<?xml version="1.0" encoding="UTF-8" standalone="no"?>
<!DOCTYPE svg PUBLIC "-//W3C//DTD SVG 1.1//EN"
 "http://www.w3.org/Graphics/SVG/1.1/DTD/svg11.dtd">
<!-- Generated by graphviz version 2.50.0 (20211204.2007)
 -->
<!-- Pages: 1 -->
<svg width="617pt" height="588pt"
 viewBox="0.00 0.00 617.00 588.00" xmlns="http://www.w3.org/2000/svg" xmlns:xlink="http://www.w3.org/1999/xlink">
<g id="graph0" class="graph" transform="scale(1 1) rotate(0) translate(4 584)">
<polygon fill="white" stroke="transparent" points="-4,4 -4,-584 613,-584 613,4 -4,4"/>
<!-- 1 -->
<g id="node1" class="node">
<title>1</title>
<text text-anchor="start" x="225" y="-561.8" font-family="Arial" font-weight="bold" font-size="14.00"> </text>
<path fill="#ebebeb" stroke="transparent" d="M185,-489C185,-489 269,-489 269,-489 275,-489 281,-495 281,-501 281,-501 281,-541 281,-541 281,-547 275,-553 269,-553 269,-553 185,-553 185,-553 179,-553 173,-547 173,-541 173,-541 173,-501 173,-501 173,-495 179,-489 185,-489"/>
<text text-anchor="start" x="174" y="-550.4" font-family="Arial" font-size="2.00"> </text>
<text text-anchor="start" x="174" y="-544.4" font-family="Arial" font-size="7.00"> &#160;1</text>
<text text-anchor="start" x="188" y="-527.8" font-family="Arial" font-weight="bold" font-size="14.00">Mean: 10.44</text>
<text text-anchor="start" x="203.5" y="-510.8" font-family="Arial" font-weight="bold" font-size="14.00">n = 672</text>
<text text-anchor="start" x="225.5" y="-492.8" font-family="Arial" font-size="9.00"> </text>
<path fill="none" stroke="#333333" d="M185,-489C185,-489 269,-489 269,-489 275,-489 281,-495 281,-501 281,-501 281,-541 281,-541 281,-547 275,-553 269,-553 269,-553 185,-553 185,-553 179,-553 173,-547 173,-541 173,-541 173,-501 173,-501 173,-495 179,-489 185,-489"/>
<text text-anchor="start" x="212.5" y="-474.8" font-family="Arial" font-weight="bold" font-size="14.00">time</text>
</g>
<!-- 2 -->
<g id="node2" class="node">
<title>2</title>
<text text-anchor="start" x="133.5" y="-407.8" font-family="Arial" font-weight="bold" font-size="14.00"> &lt; 5.5</text>
<path fill="#f8766d" fill-opacity="0.874510" stroke="transparent" d="M106,-335C106,-335 196,-335 196,-335 202,-335 208,-341 208,-347 208,-347 208,-387 208,-387 208,-393 202,-399 196,-399 196,-399 106,-399 106,-399 100,-399 94,-393 94,-387 94,-387 94,-347 94,-347 94,-341 100,-335 106,-335"/>
<text text-anchor="start" x="95" y="-396.4" font-family="Arial" font-size="2.00"> </text>
<text text-anchor="start" x="95" y="-390.4" font-family="Arial" font-size="7.00"> &#160;2</text>
<text text-anchor="start" x="109" y="-373.8" font-family="Arial" font-weight="bold" font-size="14.00">Predict 7.922</text>
<text text-anchor="start" x="127.5" y="-356.8" font-family="Arial" font-weight="bold" font-size="14.00">n = 168</text>
<text text-anchor="start" x="149.5" y="-338.8" font-family="Arial" font-size="9.00"> </text>
<path fill="none" stroke="#333333" d="M106,-335C106,-335 196,-335 196,-335 202,-335 208,-341 208,-347 208,-347 208,-387 208,-387 208,-393 202,-399 196,-399 196,-399 106,-399 106,-399 100,-399 94,-393 94,-387 94,-387 94,-347 94,-347 94,-341 100,-335 106,-335"/>
<text text-anchor="start" x="149" y="-320.8" font-family="Arial" font-weight="bold" font-size="14.00"> </text>
</g>
<!-- 1&#45;&gt;2 -->
<g id="edge1" class="edge">
<title>1&#45;&gt;2</title>
<path fill="none" stroke="#888888" d="M197.83,-461.67C193.52,-453.03 189.04,-444.07 184.64,-435.27"/>
<polygon fill="#888888" stroke="#888888" points="187.69,-433.56 180.09,-426.18 181.43,-436.69 187.69,-433.56"/>
</g>
<!-- 3 -->
<g id="node3" class="node">
<title>3</title>
<text text-anchor="start" x="287.5" y="-407.8" font-family="Arial" font-weight="bold" font-size="14.00"> ≥ 5.5</text>
<path fill="#ebebeb" stroke="transparent" d="M263,-335C263,-335 346,-335 346,-335 352,-335 358,-341 358,-347 358,-347 358,-387 358,-387 358,-393 352,-399 346,-399 346,-399 263,-399 263,-399 257,-399 251,-393 251,-387 251,-387 251,-347 251,-347 251,-341 257,-335 263,-335"/>
<text text-anchor="start" x="252" y="-396.4" font-family="Arial" font-size="2.00"> </text>
<text text-anchor="start" x="252" y="-390.4" font-family="Arial" font-size="7.00"> &#160;3</text>
<text text-anchor="start" x="266" y="-373.8" font-family="Arial" font-weight="bold" font-size="14.00">Mean: 11.27</text>
<text text-anchor="start" x="281" y="-356.8" font-family="Arial" font-weight="bold" font-size="14.00">n = 504</text>
<text text-anchor="start" x="303" y="-338.8" font-family="Arial" font-size="9.00"> </text>
<path fill="none" stroke="#333333" d="M263,-335C263,-335 346,-335 346,-335 352,-335 358,-341 358,-347 358,-347 358,-387 358,-387 358,-393 352,-399 346,-399 346,-399 263,-399 263,-399 257,-399 251,-393 251,-387 251,-387 251,-347 251,-347 251,-341 257,-335 263,-335"/>
<text text-anchor="start" x="290" y="-320.8" font-family="Arial" font-weight="bold" font-size="14.00">time</text>
</g>
<!-- 1&#45;&gt;3 -->
<g id="edge2" class="edge">
<title>1&#45;&gt;3</title>
<path fill="none" stroke="#888888" d="M256.55,-461.67C260.93,-453.03 265.46,-444.07 269.92,-435.27"/>
<polygon fill="#888888" stroke="#888888" points="273.13,-436.68 274.53,-426.18 266.89,-433.52 273.13,-436.68"/>
</g>
<!-- 4 -->
<g id="node4" class="node">
<title>4</title>
<text text-anchor="start" x="201.5" y="-253.8" font-family="Arial" font-weight="bold" font-size="14.00"> &lt; 17.5</text>
<text text-anchor="start" x="155" y="-209.3" font-family="Arial" font-size="14.00"> &#160;&#160;</text>
<path fill="#ebebeb" stroke="transparent" d="M181,-181C181,-181 265,-181 265,-181 271,-181 277,-187 277,-193 277,-193 277,-233 277,-233 277,-239 271,-245 265,-245 265,-245 181,-245 181,-245 175,-245 169,-239 169,-233 169,-233 169,-193 169,-193 169,-187 175,-181 181,-181"/>
<text text-anchor="start" x="170" y="-242.4" font-family="Arial" font-size="2.00"> </text>
<text text-anchor="start" x="170" y="-236.4" font-family="Arial" font-size="7.00"> &#160;4</text>
<text text-anchor="start" x="184" y="-219.8" font-family="Arial" font-weight="bold" font-size="14.00">Mean: 10.84</text>
<text text-anchor="start" x="199.5" y="-202.8" font-family="Arial" font-weight="bold" font-size="14.00">n = 336</text>
<text text-anchor="start" x="221.5" y="-184.8" font-family="Arial" font-size="9.00"> </text>
<path fill="none" stroke="#333333" d="M181,-181C181,-181 265,-181 265,-181 271,-181 277,-187 277,-193 277,-193 277,-233 277,-233 277,-239 271,-245 265,-245 265,-245 181,-245 181,-245 175,-245 169,-239 169,-233 169,-233 169,-193 169,-193 169,-187 175,-181 181,-181"/>
<text text-anchor="start" x="279" y="-209.3" font-family="Arial" font-size="14.00"> &#160;&#160;</text>
<text text-anchor="start" x="170" y="-166.8" font-family="Arial" font-weight="bold" font-size="14.00">prev_168_inflow</text>
</g>
<!-- 3&#45;&gt;4 -->
<g id="edge3" class="edge">
<title>3&#45;&gt;4</title>
<path fill="none" stroke="#888888" d="M272.91,-307.67C268.31,-299.03 263.54,-290.07 258.85,-281.27"/>
<polygon fill="#888888" stroke="#888888" points="261.79,-279.36 254,-272.18 255.62,-282.65 261.79,-279.36"/>
</g>
<!-- 7 -->
<g id="node5" class="node">
<title>7</title>
<text text-anchor="start" x="364" y="-253.8" font-family="Arial" font-weight="bold" font-size="14.00"> ≥ 17.5</text>
<path fill="#ebebeb" stroke="transparent" d="M343,-181C343,-181 427,-181 427,-181 433,-181 439,-187 439,-193 439,-193 439,-233 439,-233 439,-239 433,-245 427,-245 427,-245 343,-245 343,-245 337,-245 331,-239 331,-233 331,-233 331,-193 331,-193 331,-187 337,-181 343,-181"/>
<text text-anchor="start" x="332" y="-242.4" font-family="Arial" font-size="2.00"> </text>
<text text-anchor="start" x="332" y="-236.4" font-family="Arial" font-size="7.00"> &#160;7</text>
<text text-anchor="start" x="346" y="-219.8" font-family="Arial" font-weight="bold" font-size="14.00">Mean: 12.13</text>
<text text-anchor="start" x="361.5" y="-202.8" font-family="Arial" font-weight="bold" font-size="14.00">n = 168</text>
<text text-anchor="start" x="383.5" y="-184.8" font-family="Arial" font-size="9.00"> </text>
<path fill="none" stroke="#333333" d="M343,-181C343,-181 427,-181 427,-181 433,-181 439,-187 439,-193 439,-193 439,-233 439,-233 439,-239 433,-245 427,-245 427,-245 343,-245 343,-245 337,-245 331,-239 331,-233 331,-233 331,-193 331,-193 331,-187 337,-181 343,-181"/>
<text text-anchor="start" x="370.5" y="-166.8" font-family="Arial" font-weight="bold" font-size="14.00">time</text>
</g>
<!-- 3&#45;&gt;7 -->
<g id="edge4" class="edge">
<title>3&#45;&gt;7</title>
<path fill="none" stroke="#888888" d="M335.09,-307.67C339.69,-299.03 344.46,-290.07 349.15,-281.27"/>
<polygon fill="#888888" stroke="#888888" points="352.38,-282.65 354,-272.18 346.21,-279.36 352.38,-282.65"/>
</g>
<!-- 5 -->
<g id="node6" class="node">
<title>5</title>
<text text-anchor="start" x="44.5" y="-99.8" font-family="Arial" font-weight="bold" font-size="14.00"> &lt; 11.23</text>
<path fill="#f8766d" fill-opacity="0.647059" stroke="transparent" d="M24,-27C24,-27 114,-27 114,-27 120,-27 126,-33 126,-39 126,-39 126,-79 126,-79 126,-85 120,-91 114,-91 114,-91 24,-91 24,-91 18,-91 12,-85 12,-79 12,-79 12,-39 12,-39 12,-33 18,-27 24,-27"/>
<text text-anchor="start" x="13" y="-88.4" font-family="Arial" font-size="2.00"> </text>
<text text-anchor="start" x="13" y="-82.4" font-family="Arial" font-size="7.00"> &#160;5</text>
<text text-anchor="start" x="27" y="-65.8" font-family="Arial" font-weight="bold" font-size="14.00">Predict 10.47</text>
<text text-anchor="start" x="45.5" y="-48.8" font-family="Arial" font-weight="bold" font-size="14.00">n = 247</text>
<text text-anchor="start" x="67.5" y="-30.8" font-family="Arial" font-size="9.00"> </text>
<path fill="none" stroke="#333333" d="M24,-27C24,-27 114,-27 114,-27 120,-27 126,-33 126,-39 126,-39 126,-79 126,-79 126,-85 120,-91 114,-91 114,-91 24,-91 24,-91 18,-91 12,-85 12,-79 12,-79 12,-39 12,-39 12,-33 18,-27 24,-27"/>
<text text-anchor="start" x="67" y="-12.8" font-family="Arial" font-weight="bold" font-size="14.00"> </text>
</g>
<!-- 4&#45;&gt;5 -->
<g id="edge5" class="edge">
<title>4&#45;&gt;5</title>
<path fill="none" stroke="#888888" d="M163.9,-153.67C154.5,-144.39 144.73,-134.75 135.19,-125.33"/>
<polygon fill="#888888" stroke="#888888" points="137.52,-122.71 127.94,-118.18 132.6,-127.69 137.52,-122.71"/>
</g>
<!-- 6 -->
<g id="node7" class="node">
<title>6</title>
<text text-anchor="start" x="201" y="-99.8" font-family="Arial" font-weight="bold" font-size="14.00"> ≥ 11.23</text>
<path fill="#f8766d" fill-opacity="0.521569" stroke="transparent" d="M181,-27C181,-27 270,-27 270,-27 276,-27 282,-33 282,-39 282,-39 282,-79 282,-79 282,-85 276,-91 270,-91 270,-91 181,-91 181,-91 175,-91 169,-85 169,-79 169,-79 169,-39 169,-39 169,-33 175,-27 181,-27"/>
<text text-anchor="start" x="170" y="-88.4" font-family="Arial" font-size="2.00"> </text>
<text text-anchor="start" x="170" y="-82.4" font-family="Arial" font-size="7.00"> &#160;6</text>
<text text-anchor="start" x="184" y="-65.8" font-family="Arial" font-weight="bold" font-size="14.00">Predict 11.87</text>
<text text-anchor="start" x="205.5" y="-48.8" font-family="Arial" font-weight="bold" font-size="14.00">n = 89</text>
<text text-anchor="start" x="224" y="-30.8" font-family="Arial" font-size="9.00"> </text>
<path fill="none" stroke="#333333" d="M181,-27C181,-27 270,-27 270,-27 276,-27 282,-33 282,-39 282,-39 282,-79 282,-79 282,-85 276,-91 270,-91 270,-91 181,-91 181,-91 175,-91 169,-85 169,-79 169,-79 169,-39 169,-39 169,-33 175,-27 181,-27"/>
<text text-anchor="start" x="223.5" y="-12.8" font-family="Arial" font-weight="bold" font-size="14.00"> </text>
</g>
<!-- 4&#45;&gt;6 -->
<g id="edge6" class="edge">
<title>4&#45;&gt;6</title>
<path fill="none" stroke="#888888" d="M223.77,-153.67C223.88,-145.39 223.99,-136.83 224.1,-128.38"/>
<polygon fill="#888888" stroke="#888888" points="227.6,-128.22 224.23,-118.18 220.6,-128.13 227.6,-128.22"/>
</g>
<!-- 8 -->
<g id="node8" class="node">
<title>8</title>
<text text-anchor="start" x="362.5" y="-99.8" font-family="Arial" font-weight="bold" font-size="14.00"> &lt; 21.5</text>
<path fill="#f8766d" fill-opacity="0.376471" stroke="transparent" d="M339,-27C339,-27 429,-27 429,-27 435,-27 441,-33 441,-39 441,-39 441,-79 441,-79 441,-85 435,-91 429,-91 429,-91 339,-91 339,-91 333,-91 327,-85 327,-79 327,-79 327,-39 327,-39 327,-33 333,-27 339,-27"/>
<text text-anchor="start" x="328" y="-88.4" font-family="Arial" font-size="2.00"> </text>
<text text-anchor="start" x="328" y="-82.4" font-family="Arial" font-size="7.00"> &#160;8</text>
<text text-anchor="start" x="342" y="-65.8" font-family="Arial" font-weight="bold" font-size="14.00">Predict 13.47</text>
<text text-anchor="start" x="361" y="-48.8" font-family="Arial" font-weight="bold" font-size="14.00">n = 112</text>
<text text-anchor="start" x="382.5" y="-30.8" font-family="Arial" font-size="9.00"> </text>
<path fill="none" stroke="#333333" d="M339,-27C339,-27 429,-27 429,-27 435,-27 441,-33 441,-39 441,-39 441,-79 441,-79 441,-85 435,-91 429,-91 429,-91 339,-91 339,-91 333,-91 327,-85 327,-79 327,-79 327,-39 327,-39 327,-33 333,-27 339,-27"/>
<text text-anchor="start" x="382" y="-12.8" font-family="Arial" font-weight="bold" font-size="14.00"> </text>
</g>
<!-- 7&#45;&gt;8 -->
<g id="edge7" class="edge">
<title>7&#45;&gt;8</title>
<path fill="none" stroke="#888888" d="M384.62,-153.67C384.56,-145.39 384.51,-136.83 384.45,-128.38"/>
<polygon fill="#888888" stroke="#888888" points="387.95,-128.15 384.38,-118.18 380.95,-128.2 387.95,-128.15"/>
</g>
<!-- 9 -->
<g id="node9" class="node">
<title>9</title>
<text text-anchor="start" x="519" y="-99.8" font-family="Arial" font-weight="bold" font-size="14.00"> ≥ 21.5</text>
<path fill="#f8766d" fill-opacity="0.737255" stroke="transparent" d="M495,-27C495,-27 585,-27 585,-27 591,-27 597,-33 597,-39 597,-39 597,-79 597,-79 597,-85 591,-91 585,-91 585,-91 495,-91 495,-91 489,-91 483,-85 483,-79 483,-79 483,-39 483,-39 483,-33 489,-27 495,-27"/>
<text text-anchor="start" x="484" y="-88.4" font-family="Arial" font-size="2.00"> </text>
<text text-anchor="start" x="484" y="-82.4" font-family="Arial" font-size="7.00"> &#160;9</text>
<text text-anchor="start" x="498" y="-65.8" font-family="Arial" font-weight="bold" font-size="14.00">Predict 9.444</text>
<text text-anchor="start" x="520" y="-48.8" font-family="Arial" font-weight="bold" font-size="14.00">n = 56</text>
<text text-anchor="start" x="538.5" y="-30.8" font-family="Arial" font-size="9.00"> </text>
<path fill="none" stroke="#333333" d="M495,-27C495,-27 585,-27 585,-27 591,-27 597,-33 597,-39 597,-39 597,-79 597,-79 597,-85 591,-91 585,-91 585,-91 495,-91 495,-91 489,-91 483,-85 483,-79 483,-79 483,-39 483,-39 483,-33 489,-27 495,-27"/>
<text text-anchor="start" x="538" y="-12.8" font-family="Arial" font-weight="bold" font-size="14.00"> </text>
</g>
<!-- 7&#45;&gt;9 -->
<g id="edge8" class="edge">
<title>7&#45;&gt;9</title>
<path fill="none" stroke="#888888" d="M444.48,-153.67C453.94,-144.39 463.78,-134.75 473.38,-125.33"/>
<polygon fill="#888888" stroke="#888888" points="475.99,-127.68 480.68,-118.18 471.08,-122.68 475.99,-127.68"/>
</g>
</g>
</svg>
