<?xml version="1.0" encoding="UTF-8" standalone="no"?>
<!DOCTYPE svg PUBLIC "-//W3C//DTD SVG 1.1//EN"
 "http://www.w3.org/Graphics/SVG/1.1/DTD/svg11.dtd">
<!-- Generated by graphviz version 2.50.0 (20211204.2007)
 -->
<!-- Pages: 1 -->
<svg width="1432pt" height="896pt"
 viewBox="0.00 0.00 1432.00 896.00" xmlns="http://www.w3.org/2000/svg" xmlns:xlink="http://www.w3.org/1999/xlink">
<g id="graph0" class="graph" transform="scale(1 1) rotate(0) translate(4 892)">
<polygon fill="white" stroke="transparent" points="-4,4 -4,-892 1428,-892 1428,4 -4,4"/>
<!-- 1 -->
<g id="node1" class="node">
<title>1</title>
<text text-anchor="start" x="586" y="-869.8" font-family="Arial" font-weight="bold" font-size="14.00"> </text>
<text text-anchor="start" x="516" y="-825.3" font-family="Arial" font-size="14.00"> &#160;&#160;&#160;</text>
<path fill="#ebebeb" stroke="transparent" d="M546,-797C546,-797 630,-797 630,-797 636,-797 642,-803 642,-809 642,-809 642,-849 642,-849 642,-855 636,-861 630,-861 630,-861 546,-861 546,-861 540,-861 534,-855 534,-849 534,-849 534,-809 534,-809 534,-803 540,-797 546,-797"/>
<text text-anchor="start" x="535" y="-858.4" font-family="Arial" font-size="2.00"> </text>
<text text-anchor="start" x="535" y="-852.4" font-family="Arial" font-size="7.00"> &#160;1</text>
<text text-anchor="start" x="549" y="-835.8" font-family="Arial" font-weight="bold" font-size="14.00">Mean: 21.34</text>
<text text-anchor="start" x="564.5" y="-818.8" font-family="Arial" font-weight="bold" font-size="14.00">n = 168</text>
<text text-anchor="start" x="586.5" y="-800.8" font-family="Arial" font-size="9.00"> </text>
<path fill="none" stroke="#333333" d="M546,-797C546,-797 630,-797 630,-797 636,-797 642,-803 642,-809 642,-809 642,-849 642,-849 642,-855 636,-861 630,-861 630,-861 546,-861 546,-861 540,-861 534,-855 534,-849 534,-849 534,-809 534,-809 534,-803 540,-797 546,-797"/>
<text text-anchor="start" x="644" y="-825.3" font-family="Arial" font-size="14.00"> &#160;&#160;&#160;</text>
<text text-anchor="start" x="530.5" y="-782.8" font-family="Arial" font-weight="bold" font-size="14.00">prev_168h_inflow</text>
</g>
<!-- 2 -->
<g id="node2" class="node">
<title>2</title>
<text text-anchor="start" x="478" y="-715.8" font-family="Arial" font-weight="bold" font-size="14.00"> &lt; 20.32</text>
<path fill="#ebebeb" stroke="transparent" d="M461,-643C461,-643 545,-643 545,-643 551,-643 557,-649 557,-655 557,-655 557,-695 557,-695 557,-701 551,-707 545,-707 545,-707 461,-707 461,-707 455,-707 449,-701 449,-695 449,-695 449,-655 449,-655 449,-649 455,-643 461,-643"/>
<text text-anchor="start" x="450" y="-704.4" font-family="Arial" font-size="2.00"> </text>
<text text-anchor="start" x="450" y="-698.4" font-family="Arial" font-size="7.00"> &#160;2</text>
<text text-anchor="start" x="464" y="-681.8" font-family="Arial" font-weight="bold" font-size="14.00">Mean: 15.63</text>
<text text-anchor="start" x="483" y="-664.8" font-family="Arial" font-weight="bold" font-size="14.00">n = 66</text>
<text text-anchor="start" x="501.5" y="-646.8" font-family="Arial" font-size="9.00"> </text>
<path fill="none" stroke="#333333" d="M461,-643C461,-643 545,-643 545,-643 551,-643 557,-649 557,-655 557,-655 557,-695 557,-695 557,-701 551,-707 545,-707 545,-707 461,-707 461,-707 455,-707 449,-701 449,-695 449,-695 449,-655 449,-655 449,-649 455,-643 461,-643"/>
<text text-anchor="start" x="488.5" y="-628.8" font-family="Arial" font-weight="bold" font-size="14.00">time</text>
</g>
<!-- 1&#45;&gt;2 -->
<g id="edge1" class="edge">
<title>1&#45;&gt;2</title>
<path fill="none" stroke="#888888" d="M555.38,-769.67C550.5,-760.94 545.43,-751.88 540.46,-742.99"/>
<polygon fill="#888888" stroke="#888888" points="543.47,-741.2 535.53,-734.18 537.36,-744.61 543.47,-741.2"/>
</g>
<!-- 13 -->
<g id="node3" class="node">
<title>13</title>
<text text-anchor="start" x="713.5" y="-715.8" font-family="Arial" font-weight="bold" font-size="14.00"> ≥ 20.32</text>
<text text-anchor="start" x="666" y="-671.3" font-family="Arial" font-size="14.00"> &#160;&#160;&#160;</text>
<path fill="#ebebeb" stroke="transparent" d="M696,-643C696,-643 780,-643 780,-643 786,-643 792,-649 792,-655 792,-655 792,-695 792,-695 792,-701 786,-707 780,-707 780,-707 696,-707 696,-707 690,-707 684,-701 684,-695 684,-695 684,-655 684,-655 684,-649 690,-643 696,-643"/>
<text text-anchor="start" x="685" y="-704.4" font-family="Arial" font-size="2.00"> </text>
<text text-anchor="start" x="685" y="-698.4" font-family="Arial" font-size="7.00"> &#160;13</text>
<text text-anchor="start" x="699" y="-681.8" font-family="Arial" font-weight="bold" font-size="14.00">Mean: 25.03</text>
<text text-anchor="start" x="714.5" y="-664.8" font-family="Arial" font-weight="bold" font-size="14.00">n = 102</text>
<text text-anchor="start" x="736.5" y="-646.8" font-family="Arial" font-size="9.00"> </text>
<path fill="none" stroke="#333333" d="M696,-643C696,-643 780,-643 780,-643 786,-643 792,-649 792,-655 792,-655 792,-695 792,-695 792,-701 786,-707 780,-707 780,-707 696,-707 696,-707 690,-707 684,-701 684,-695 684,-695 684,-655 684,-655 684,-649 690,-643 696,-643"/>
<text text-anchor="start" x="794" y="-671.3" font-family="Arial" font-size="14.00"> &#160;&#160;&#160;</text>
<text text-anchor="start" x="680.5" y="-628.8" font-family="Arial" font-weight="bold" font-size="14.00">prev_168h_inflow</text>
</g>
<!-- 1&#45;&gt;13 -->
<g id="edge2" class="edge">
<title>1&#45;&gt;13</title>
<path fill="none" stroke="#888888" d="M645.56,-769.67C654.72,-760.39 664.23,-750.75 673.53,-741.33"/>
<polygon fill="#888888" stroke="#888888" points="676.06,-743.75 680.59,-734.18 671.07,-738.84 676.06,-743.75"/>
</g>
<!-- 3 -->
<g id="node4" class="node">
<title>3</title>
<text text-anchor="start" x="206.5" y="-561.8" font-family="Arial" font-weight="bold" font-size="14.00"> &lt; 5.5</text>
<text text-anchor="start" x="156" y="-517.3" font-family="Arial" font-size="14.00"> &#160;&#160;</text>
<path fill="#ebebeb" stroke="transparent" d="M182,-489C182,-489 266,-489 266,-489 272,-489 278,-495 278,-501 278,-501 278,-541 278,-541 278,-547 272,-553 266,-553 266,-553 182,-553 182,-553 176,-553 170,-547 170,-541 170,-541 170,-501 170,-501 170,-495 176,-489 182,-489"/>
<text text-anchor="start" x="171" y="-550.4" font-family="Arial" font-size="2.00"> </text>
<text text-anchor="start" x="171" y="-544.4" font-family="Arial" font-size="7.00"> &#160;3</text>
<text text-anchor="start" x="185" y="-527.8" font-family="Arial" font-weight="bold" font-size="14.00">Mean: 13.87</text>
<text text-anchor="start" x="204" y="-510.8" font-family="Arial" font-weight="bold" font-size="14.00">n = 42</text>
<text text-anchor="start" x="222.5" y="-492.8" font-family="Arial" font-size="9.00"> </text>
<path fill="none" stroke="#333333" d="M182,-489C182,-489 266,-489 266,-489 272,-489 278,-495 278,-501 278,-501 278,-541 278,-541 278,-547 272,-553 266,-553 266,-553 182,-553 182,-553 176,-553 170,-547 170,-541 170,-541 170,-501 170,-501 170,-495 176,-489 182,-489"/>
<text text-anchor="start" x="280" y="-517.3" font-family="Arial" font-size="14.00"> &#160;&#160;</text>
<text text-anchor="start" x="170.5" y="-474.8" font-family="Arial" font-weight="bold" font-size="14.00">prev_24h_inflow</text>
</g>
<!-- 2&#45;&gt;3 -->
<g id="edge3" class="edge">
<title>2&#45;&gt;3</title>
<path fill="none" stroke="#888888" d="M436.88,-637.98C399.2,-617.45 351.53,-591.48 310.86,-569.32"/>
<polygon fill="#888888" stroke="#888888" points="312.48,-566.22 302.03,-564.51 309.13,-572.37 312.48,-566.22"/>
</g>
<!-- 8 -->
<g id="node5" class="node">
<title>8</title>
<text text-anchor="start" x="486" y="-561.8" font-family="Arial" font-weight="bold" font-size="14.00"> ≥ 5.5</text>
<text text-anchor="start" x="435" y="-517.3" font-family="Arial" font-size="14.00"> &#160;&#160;</text>
<path fill="#ebebeb" stroke="transparent" d="M461,-489C461,-489 545,-489 545,-489 551,-489 557,-495 557,-501 557,-501 557,-541 557,-541 557,-547 551,-553 545,-553 545,-553 461,-553 461,-553 455,-553 449,-547 449,-541 449,-541 449,-501 449,-501 449,-495 455,-489 461,-489"/>
<text text-anchor="start" x="450" y="-550.4" font-family="Arial" font-size="2.00"> </text>
<text text-anchor="start" x="450" y="-544.4" font-family="Arial" font-size="7.00"> &#160;8</text>
<text text-anchor="start" x="464" y="-527.8" font-family="Arial" font-weight="bold" font-size="14.00">Mean: 18.72</text>
<text text-anchor="start" x="483" y="-510.8" font-family="Arial" font-weight="bold" font-size="14.00">n = 24</text>
<text text-anchor="start" x="501.5" y="-492.8" font-family="Arial" font-size="9.00"> </text>
<path fill="none" stroke="#333333" d="M461,-489C461,-489 545,-489 545,-489 551,-489 557,-495 557,-501 557,-501 557,-541 557,-541 557,-547 551,-553 545,-553 545,-553 461,-553 461,-553 455,-553 449,-547 449,-541 449,-541 449,-501 449,-501 449,-495 455,-489 461,-489"/>
<text text-anchor="start" x="559" y="-517.3" font-family="Arial" font-size="14.00"> &#160;&#160;</text>
<text text-anchor="start" x="449.5" y="-474.8" font-family="Arial" font-weight="bold" font-size="14.00">prev_24h_inflow</text>
</g>
<!-- 2&#45;&gt;8 -->
<g id="edge4" class="edge">
<title>2&#45;&gt;8</title>
<path fill="none" stroke="#888888" d="M503,-615.67C503,-607.39 503,-598.83 503,-590.38"/>
<polygon fill="#888888" stroke="#888888" points="506.5,-590.18 503,-580.18 499.5,-590.18 506.5,-590.18"/>
</g>
<!-- 14 -->
<g id="node14" class="node">
<title>14</title>
<text text-anchor="start" x="716.5" y="-561.8" font-family="Arial" font-weight="bold" font-size="14.00"> &lt; 23.5</text>
<text text-anchor="start" x="674" y="-517.3" font-family="Arial" font-size="14.00"> &#160;</text>
<path fill="#ebebeb" stroke="transparent" d="M696,-489C696,-489 780,-489 780,-489 786,-489 792,-495 792,-501 792,-501 792,-541 792,-541 792,-547 786,-553 780,-553 780,-553 696,-553 696,-553 690,-553 684,-547 684,-541 684,-541 684,-501 684,-501 684,-495 690,-489 696,-489"/>
<text text-anchor="start" x="685" y="-550.4" font-family="Arial" font-size="2.00"> </text>
<text text-anchor="start" x="685" y="-544.4" font-family="Arial" font-size="7.00"> &#160;14</text>
<text text-anchor="start" x="699" y="-527.8" font-family="Arial" font-weight="bold" font-size="14.00">Mean: 22.34</text>
<text text-anchor="start" x="718" y="-510.8" font-family="Arial" font-weight="bold" font-size="14.00">n = 27</text>
<text text-anchor="start" x="736.5" y="-492.8" font-family="Arial" font-size="9.00"> </text>
<path fill="none" stroke="#333333" d="M696,-489C696,-489 780,-489 780,-489 786,-489 792,-495 792,-501 792,-501 792,-541 792,-541 792,-547 786,-553 780,-553 780,-553 696,-553 696,-553 690,-553 684,-547 684,-541 684,-541 684,-501 684,-501 684,-495 690,-489 696,-489"/>
<text text-anchor="start" x="794" y="-517.3" font-family="Arial" font-size="14.00"> &#160;</text>
<text text-anchor="start" x="688" y="-474.8" font-family="Arial" font-weight="bold" font-size="14.00">prev_1h_inflow</text>
</g>
<!-- 13&#45;&gt;14 -->
<g id="edge13" class="edge">
<title>13&#45;&gt;14</title>
<path fill="none" stroke="#888888" d="M738,-615.67C738,-607.39 738,-598.83 738,-590.38"/>
<polygon fill="#888888" stroke="#888888" points="741.5,-590.18 738,-580.18 734.5,-590.18 741.5,-590.18"/>
</g>
<!-- 17 -->
<g id="node15" class="node">
<title>17</title>
<text text-anchor="start" x="1003.5" y="-561.8" font-family="Arial" font-weight="bold" font-size="14.00"> ≥ 23.5</text>
<path fill="#ebebeb" stroke="transparent" d="M992,-489C992,-489 1057,-489 1057,-489 1063,-489 1069,-495 1069,-501 1069,-501 1069,-541 1069,-541 1069,-547 1063,-553 1057,-553 1057,-553 992,-553 992,-553 986,-553 980,-547 980,-541 980,-541 980,-501 980,-501 980,-495 986,-489 992,-489"/>
<text text-anchor="start" x="981" y="-550.4" font-family="Arial" font-size="2.00"> </text>
<text text-anchor="start" x="981" y="-544.4" font-family="Arial" font-size="7.00"> &#160;17</text>
<text text-anchor="start" x="995" y="-527.8" font-family="Arial" font-weight="bold" font-size="14.00">Mean: 26</text>
<text text-anchor="start" x="1004.5" y="-510.8" font-family="Arial" font-weight="bold" font-size="14.00">n = 75</text>
<text text-anchor="start" x="1023" y="-492.8" font-family="Arial" font-size="9.00"> </text>
<path fill="none" stroke="#333333" d="M992,-489C992,-489 1057,-489 1057,-489 1063,-489 1069,-495 1069,-501 1069,-501 1069,-541 1069,-541 1069,-547 1063,-553 1057,-553 1057,-553 992,-553 992,-553 986,-553 980,-547 980,-541 980,-541 980,-501 980,-501 980,-495 986,-489 992,-489"/>
<text text-anchor="start" x="1010" y="-474.8" font-family="Arial" font-weight="bold" font-size="14.00">time</text>
</g>
<!-- 13&#45;&gt;17 -->
<g id="edge14" class="edge">
<title>13&#45;&gt;17</title>
<path fill="none" stroke="#888888" d="M820.34,-630.24C864.06,-607 917.07,-578.83 958.05,-557.05"/>
<polygon fill="#888888" stroke="#888888" points="959.95,-560.01 967.13,-552.22 956.66,-553.83 959.95,-560.01"/>
</g>
<!-- 4 -->
<g id="node6" class="node">
<title>4</title>
<text text-anchor="start" x="46" y="-407.8" font-family="Arial" font-weight="bold" font-size="14.00"> &lt; 14.33</text>
<path fill="#f8766d" fill-opacity="0.874510" stroke="transparent" d="M26,-335C26,-335 116,-335 116,-335 122,-335 128,-341 128,-347 128,-347 128,-387 128,-387 128,-393 122,-399 116,-399 116,-399 26,-399 26,-399 20,-399 14,-393 14,-387 14,-387 14,-347 14,-347 14,-341 20,-335 26,-335"/>
<text text-anchor="start" x="15" y="-396.4" font-family="Arial" font-size="2.00"> </text>
<text text-anchor="start" x="15" y="-390.4" font-family="Arial" font-size="7.00"> &#160;4</text>
<text text-anchor="start" x="29" y="-373.8" font-family="Arial" font-weight="bold" font-size="14.00">Predict 13.07</text>
<text text-anchor="start" x="51" y="-356.8" font-family="Arial" font-weight="bold" font-size="14.00">n = 29</text>
<text text-anchor="start" x="69.5" y="-338.8" font-family="Arial" font-size="9.00"> </text>
<path fill="none" stroke="#333333" d="M26,-335C26,-335 116,-335 116,-335 122,-335 128,-341 128,-347 128,-347 128,-387 128,-387 128,-393 122,-399 116,-399 116,-399 26,-399 26,-399 20,-399 14,-393 14,-387 14,-387 14,-347 14,-347 14,-341 20,-335 26,-335"/>
<text text-anchor="start" x="69" y="-320.8" font-family="Arial" font-weight="bold" font-size="14.00"> </text>
</g>
<!-- 3&#45;&gt;4 -->
<g id="edge5" class="edge">
<title>3&#45;&gt;4</title>
<path fill="none" stroke="#888888" d="M165.28,-461.67C155.95,-452.39 146.24,-442.75 136.76,-433.33"/>
<polygon fill="#888888" stroke="#888888" points="139.12,-430.74 129.56,-426.18 134.19,-435.71 139.12,-430.74"/>
</g>
<!-- 5 -->
<g id="node7" class="node">
<title>5</title>
<text text-anchor="start" x="199.5" y="-407.8" font-family="Arial" font-weight="bold" font-size="14.00"> ≥ 14.33</text>
<path fill="#ebebeb" stroke="transparent" d="M182,-335C182,-335 266,-335 266,-335 272,-335 278,-341 278,-347 278,-347 278,-387 278,-387 278,-393 272,-399 266,-399 266,-399 182,-399 182,-399 176,-399 170,-393 170,-387 170,-387 170,-347 170,-347 170,-341 176,-335 182,-335"/>
<text text-anchor="start" x="171" y="-396.4" font-family="Arial" font-size="2.00"> </text>
<text text-anchor="start" x="171" y="-390.4" font-family="Arial" font-size="7.00"> &#160;5</text>
<text text-anchor="start" x="185" y="-373.8" font-family="Arial" font-weight="bold" font-size="14.00">Mean: 15.66</text>
<text text-anchor="start" x="204" y="-356.8" font-family="Arial" font-weight="bold" font-size="14.00">n = 13</text>
<text text-anchor="start" x="222.5" y="-338.8" font-family="Arial" font-size="9.00"> </text>
<path fill="none" stroke="#333333" d="M182,-335C182,-335 266,-335 266,-335 272,-335 278,-341 278,-347 278,-347 278,-387 278,-387 278,-393 272,-399 266,-399 266,-399 182,-399 182,-399 176,-399 170,-393 170,-387 170,-387 170,-347 170,-347 170,-341 176,-335 182,-335"/>
<text text-anchor="start" x="188.5" y="-320.8" font-family="Arial" font-weight="bold" font-size="14.00">windspeed</text>
</g>
<!-- 3&#45;&gt;5 -->
<g id="edge6" class="edge">
<title>3&#45;&gt;5</title>
<path fill="none" stroke="#888888" d="M224,-461.67C224,-453.39 224,-444.83 224,-436.38"/>
<polygon fill="#888888" stroke="#888888" points="227.5,-436.18 224,-426.18 220.5,-436.18 227.5,-436.18"/>
</g>
<!-- 9 -->
<g id="node10" class="node">
<title>9</title>
<text text-anchor="start" x="357" y="-407.8" font-family="Arial" font-weight="bold" font-size="14.00"> &lt; 19.69</text>
<text text-anchor="start" x="318" y="-363.3" font-family="Arial" font-size="14.00"> &#160;</text>
<path fill="#ebebeb" stroke="transparent" d="M340,-335C340,-335 424,-335 424,-335 430,-335 436,-341 436,-347 436,-347 436,-387 436,-387 436,-393 430,-399 424,-399 424,-399 340,-399 340,-399 334,-399 328,-393 328,-387 328,-387 328,-347 328,-347 328,-341 334,-335 340,-335"/>
<text text-anchor="start" x="329" y="-396.4" font-family="Arial" font-size="2.00"> </text>
<text text-anchor="start" x="329" y="-390.4" font-family="Arial" font-size="7.00"> &#160;9</text>
<text text-anchor="start" x="343" y="-373.8" font-family="Arial" font-weight="bold" font-size="14.00">Mean: 17.83</text>
<text text-anchor="start" x="362" y="-356.8" font-family="Arial" font-weight="bold" font-size="14.00">n = 14</text>
<text text-anchor="start" x="380.5" y="-338.8" font-family="Arial" font-size="9.00"> </text>
<path fill="none" stroke="#333333" d="M340,-335C340,-335 424,-335 424,-335 430,-335 436,-341 436,-347 436,-347 436,-387 436,-387 436,-393 430,-399 424,-399 424,-399 340,-399 340,-399 334,-399 328,-393 328,-387 328,-387 328,-347 328,-347 328,-341 334,-335 340,-335"/>
<text text-anchor="start" x="438" y="-363.3" font-family="Arial" font-size="14.00"> &#160;</text>
<text text-anchor="start" x="332" y="-320.8" font-family="Arial" font-weight="bold" font-size="14.00">prev_1h_inflow</text>
</g>
<!-- 8&#45;&gt;9 -->
<g id="edge9" class="edge">
<title>8&#45;&gt;9</title>
<path fill="none" stroke="#888888" d="M456.56,-461.67C449.4,-452.67 441.96,-443.32 434.67,-434.16"/>
<polygon fill="#888888" stroke="#888888" points="437.28,-431.82 428.31,-426.18 431.8,-436.18 437.28,-431.82"/>
</g>
<!-- 12 -->
<g id="node11" class="node">
<title>12</title>
<text text-anchor="start" x="518.5" y="-407.8" font-family="Arial" font-weight="bold" font-size="14.00"> ≥ 19.69</text>
<path fill="#f8766d" fill-opacity="0.658824" stroke="transparent" d="M498,-335C498,-335 588,-335 588,-335 594,-335 600,-341 600,-347 600,-347 600,-387 600,-387 600,-393 594,-399 588,-399 588,-399 498,-399 498,-399 492,-399 486,-393 486,-387 486,-387 486,-347 486,-347 486,-341 492,-335 498,-335"/>
<text text-anchor="start" x="487" y="-396.4" font-family="Arial" font-size="2.00"> </text>
<text text-anchor="start" x="487" y="-390.4" font-family="Arial" font-size="7.00"> &#160;12</text>
<text text-anchor="start" x="501" y="-373.8" font-family="Arial" font-weight="bold" font-size="14.00">Predict 19.96</text>
<text text-anchor="start" x="523" y="-356.8" font-family="Arial" font-weight="bold" font-size="14.00">n = 10</text>
<text text-anchor="start" x="541.5" y="-338.8" font-family="Arial" font-size="9.00"> </text>
<path fill="none" stroke="#333333" d="M498,-335C498,-335 588,-335 588,-335 594,-335 600,-341 600,-347 600,-347 600,-387 600,-387 600,-393 594,-399 588,-399 588,-399 498,-399 498,-399 492,-399 486,-393 486,-387 486,-387 486,-347 486,-347 486,-341 492,-335 498,-335"/>
<text text-anchor="start" x="541" y="-320.8" font-family="Arial" font-weight="bold" font-size="14.00"> </text>
</g>
<!-- 8&#45;&gt;12 -->
<g id="edge10" class="edge">
<title>8&#45;&gt;12</title>
<path fill="none" stroke="#888888" d="M518.35,-461.67C520.55,-453.3 522.83,-444.64 525.08,-436.1"/>
<polygon fill="#888888" stroke="#888888" points="528.53,-436.74 527.69,-426.18 521.76,-434.96 528.53,-436.74"/>
</g>
<!-- 6 -->
<g id="node8" class="node">
<title>6</title>
<text text-anchor="start" x="47.5" y="-253.8" font-family="Arial" font-weight="bold" font-size="14.00"> &lt; 35.5</text>
<path fill="#f8766d" fill-opacity="0.811765" stroke="transparent" d="M24,-181C24,-181 114,-181 114,-181 120,-181 126,-187 126,-193 126,-193 126,-233 126,-233 126,-239 120,-245 114,-245 114,-245 24,-245 24,-245 18,-245 12,-239 12,-233 12,-233 12,-193 12,-193 12,-187 18,-181 24,-181"/>
<text text-anchor="start" x="13" y="-242.4" font-family="Arial" font-size="2.00"> </text>
<text text-anchor="start" x="13" y="-236.4" font-family="Arial" font-size="7.00"> &#160;6</text>
<text text-anchor="start" x="27" y="-219.8" font-family="Arial" font-weight="bold" font-size="14.00">Predict 15.03</text>
<text text-anchor="start" x="49" y="-202.8" font-family="Arial" font-weight="bold" font-size="14.00">n = 10</text>
<text text-anchor="start" x="67.5" y="-184.8" font-family="Arial" font-size="9.00"> </text>
<path fill="none" stroke="#333333" d="M24,-181C24,-181 114,-181 114,-181 120,-181 126,-187 126,-193 126,-193 126,-233 126,-233 126,-239 120,-245 114,-245 114,-245 24,-245 24,-245 18,-245 12,-239 12,-233 12,-233 12,-193 12,-193 12,-187 18,-181 24,-181"/>
<text text-anchor="start" x="67" y="-166.8" font-family="Arial" font-weight="bold" font-size="14.00"> </text>
</g>
<!-- 5&#45;&gt;6 -->
<g id="edge7" class="edge">
<title>5&#45;&gt;6</title>
<path fill="none" stroke="#888888" d="M164.52,-307.67C155.06,-298.39 145.22,-288.75 135.62,-279.33"/>
<polygon fill="#888888" stroke="#888888" points="137.92,-276.68 128.32,-272.18 133.01,-281.68 137.92,-276.68"/>
</g>
<!-- 7 -->
<g id="node9" class="node">
<title>7</title>
<text text-anchor="start" x="204" y="-253.8" font-family="Arial" font-weight="bold" font-size="14.00"> ≥ 35.5</text>
<path fill="#f8766d" fill-opacity="0.725490" stroke="transparent" d="M180,-181C180,-181 270,-181 270,-181 276,-181 282,-187 282,-193 282,-193 282,-233 282,-233 282,-239 276,-245 270,-245 270,-245 180,-245 180,-245 174,-245 168,-239 168,-233 168,-233 168,-193 168,-193 168,-187 174,-181 180,-181"/>
<text text-anchor="start" x="169" y="-242.4" font-family="Arial" font-size="2.00"> </text>
<text text-anchor="start" x="169" y="-236.4" font-family="Arial" font-size="7.00"> &#160;7</text>
<text text-anchor="start" x="183" y="-219.8" font-family="Arial" font-weight="bold" font-size="14.00">Predict 17.77</text>
<text text-anchor="start" x="209" y="-202.8" font-family="Arial" font-weight="bold" font-size="14.00">n = 3</text>
<text text-anchor="start" x="223.5" y="-184.8" font-family="Arial" font-size="9.00"> </text>
<path fill="none" stroke="#333333" d="M180,-181C180,-181 270,-181 270,-181 276,-181 282,-187 282,-193 282,-193 282,-233 282,-233 282,-239 276,-245 270,-245 270,-245 180,-245 180,-245 174,-245 168,-239 168,-233 168,-233 168,-193 168,-193 168,-187 174,-181 180,-181"/>
<text text-anchor="start" x="223" y="-166.8" font-family="Arial" font-weight="bold" font-size="14.00"> </text>
</g>
<!-- 5&#45;&gt;7 -->
<g id="edge8" class="edge">
<title>5&#45;&gt;7</title>
<path fill="none" stroke="#888888" d="M224.38,-307.67C224.44,-299.39 224.49,-290.83 224.55,-282.38"/>
<polygon fill="#888888" stroke="#888888" points="228.05,-282.2 224.62,-272.18 221.05,-282.15 228.05,-282.2"/>
</g>
<!-- 10 -->
<g id="node12" class="node">
<title>10</title>
<text text-anchor="start" x="360.5" y="-253.8" font-family="Arial" font-weight="bold" font-size="14.00"> &lt; 13.9</text>
<path fill="#f8766d" fill-opacity="0.796078" stroke="transparent" d="M337,-181C337,-181 427,-181 427,-181 433,-181 439,-187 439,-193 439,-193 439,-233 439,-233 439,-239 433,-245 427,-245 427,-245 337,-245 337,-245 331,-245 325,-239 325,-233 325,-233 325,-193 325,-193 325,-187 331,-181 337,-181"/>
<text text-anchor="start" x="326" y="-242.4" font-family="Arial" font-size="2.00"> </text>
<text text-anchor="start" x="326" y="-236.4" font-family="Arial" font-size="7.00"> &#160;10</text>
<text text-anchor="start" x="340" y="-219.8" font-family="Arial" font-weight="bold" font-size="14.00">Predict 15.57</text>
<text text-anchor="start" x="366" y="-202.8" font-family="Arial" font-weight="bold" font-size="14.00">n = 2</text>
<text text-anchor="start" x="380.5" y="-184.8" font-family="Arial" font-size="9.00"> </text>
<path fill="none" stroke="#333333" d="M337,-181C337,-181 427,-181 427,-181 433,-181 439,-187 439,-193 439,-193 439,-233 439,-233 439,-239 433,-245 427,-245 427,-245 337,-245 337,-245 331,-245 325,-239 325,-233 325,-233 325,-193 325,-193 325,-187 331,-181 337,-181"/>
<text text-anchor="start" x="380" y="-166.8" font-family="Arial" font-weight="bold" font-size="14.00"> </text>
</g>
<!-- 9&#45;&gt;10 -->
<g id="edge11" class="edge">
<title>9&#45;&gt;10</title>
<path fill="none" stroke="#888888" d="M382,-307.67C382,-299.39 382,-290.83 382,-282.38"/>
<polygon fill="#888888" stroke="#888888" points="385.5,-282.18 382,-272.18 378.5,-282.18 385.5,-282.18"/>
</g>
<!-- 11 -->
<g id="node13" class="node">
<title>11</title>
<text text-anchor="start" x="517" y="-253.8" font-family="Arial" font-weight="bold" font-size="14.00"> ≥ 13.9</text>
<path fill="#f8766d" fill-opacity="0.713725" stroke="transparent" d="M493,-181C493,-181 583,-181 583,-181 589,-181 595,-187 595,-193 595,-193 595,-233 595,-233 595,-239 589,-245 583,-245 583,-245 493,-245 493,-245 487,-245 481,-239 481,-233 481,-233 481,-193 481,-193 481,-187 487,-181 493,-181"/>
<text text-anchor="start" x="482" y="-242.4" font-family="Arial" font-size="2.00"> </text>
<text text-anchor="start" x="482" y="-236.4" font-family="Arial" font-size="7.00"> &#160;11</text>
<text text-anchor="start" x="496" y="-219.8" font-family="Arial" font-weight="bold" font-size="14.00">Predict 18.21</text>
<text text-anchor="start" x="518" y="-202.8" font-family="Arial" font-weight="bold" font-size="14.00">n = 12</text>
<text text-anchor="start" x="536.5" y="-184.8" font-family="Arial" font-size="9.00"> </text>
<path fill="none" stroke="#333333" d="M493,-181C493,-181 583,-181 583,-181 589,-181 595,-187 595,-193 595,-193 595,-233 595,-233 595,-239 589,-245 583,-245 583,-245 493,-245 493,-245 487,-245 481,-239 481,-233 481,-233 481,-193 481,-193 481,-187 487,-181 493,-181"/>
<text text-anchor="start" x="536" y="-166.8" font-family="Arial" font-weight="bold" font-size="14.00"> </text>
</g>
<!-- 9&#45;&gt;11 -->
<g id="edge12" class="edge">
<title>9&#45;&gt;11</title>
<path fill="none" stroke="#888888" d="M441.87,-307.67C451.38,-298.39 461.28,-288.75 470.95,-279.33"/>
<polygon fill="#888888" stroke="#888888" points="473.57,-281.66 478.29,-272.18 468.69,-276.65 473.57,-281.66"/>
</g>
<!-- 15 -->
<g id="node16" class="node">
<title>15</title>
<text text-anchor="start" x="674" y="-407.8" font-family="Arial" font-weight="bold" font-size="14.00"> &lt; 24.32</text>
<path fill="#f8766d" fill-opacity="0.607843" stroke="transparent" d="M654,-335C654,-335 744,-335 744,-335 750,-335 756,-341 756,-347 756,-347 756,-387 756,-387 756,-393 750,-399 744,-399 744,-399 654,-399 654,-399 648,-399 642,-393 642,-387 642,-387 642,-347 642,-347 642,-341 648,-335 654,-335"/>
<text text-anchor="start" x="643" y="-396.4" font-family="Arial" font-size="2.00"> </text>
<text text-anchor="start" x="643" y="-390.4" font-family="Arial" font-size="7.00"> &#160;15</text>
<text text-anchor="start" x="657" y="-373.8" font-family="Arial" font-weight="bold" font-size="14.00">Predict 21.56</text>
<text text-anchor="start" x="679" y="-356.8" font-family="Arial" font-weight="bold" font-size="14.00">n = 19</text>
<text text-anchor="start" x="697.5" y="-338.8" font-family="Arial" font-size="9.00"> </text>
<path fill="none" stroke="#333333" d="M654,-335C654,-335 744,-335 744,-335 750,-335 756,-341 756,-347 756,-347 756,-387 756,-387 756,-393 750,-399 744,-399 744,-399 654,-399 654,-399 648,-399 642,-393 642,-387 642,-387 642,-347 642,-347 642,-341 648,-335 654,-335"/>
<text text-anchor="start" x="697" y="-320.8" font-family="Arial" font-weight="bold" font-size="14.00"> </text>
</g>
<!-- 14&#45;&gt;15 -->
<g id="edge15" class="edge">
<title>14&#45;&gt;15</title>
<path fill="none" stroke="#888888" d="M723.03,-461.67C720.89,-453.3 718.66,-444.64 716.47,-436.1"/>
<polygon fill="#888888" stroke="#888888" points="719.8,-434.99 713.93,-426.18 713.02,-436.73 719.8,-434.99"/>
</g>
<!-- 16 -->
<g id="node17" class="node">
<title>16</title>
<text text-anchor="start" x="830.5" y="-407.8" font-family="Arial" font-weight="bold" font-size="14.00"> ≥ 24.32</text>
<path fill="#f8766d" fill-opacity="0.525490" stroke="transparent" d="M810,-335C810,-335 900,-335 900,-335 906,-335 912,-341 912,-347 912,-347 912,-387 912,-387 912,-393 906,-399 900,-399 900,-399 810,-399 810,-399 804,-399 798,-393 798,-387 798,-387 798,-347 798,-347 798,-341 804,-335 810,-335"/>
<text text-anchor="start" x="799" y="-396.4" font-family="Arial" font-size="2.00"> </text>
<text text-anchor="start" x="799" y="-390.4" font-family="Arial" font-size="7.00"> &#160;16</text>
<text text-anchor="start" x="813" y="-373.8" font-family="Arial" font-weight="bold" font-size="14.00">Predict 24.21</text>
<text text-anchor="start" x="839" y="-356.8" font-family="Arial" font-weight="bold" font-size="14.00">n = 8</text>
<text text-anchor="start" x="853.5" y="-338.8" font-family="Arial" font-size="9.00"> </text>
<path fill="none" stroke="#333333" d="M810,-335C810,-335 900,-335 900,-335 906,-335 912,-341 912,-347 912,-347 912,-387 912,-387 912,-393 906,-399 900,-399 900,-399 810,-399 810,-399 804,-399 798,-393 798,-387 798,-387 798,-347 798,-347 798,-341 804,-335 810,-335"/>
<text text-anchor="start" x="853" y="-320.8" font-family="Arial" font-weight="bold" font-size="14.00"> </text>
</g>
<!-- 14&#45;&gt;16 -->
<g id="edge16" class="edge">
<title>14&#45;&gt;16</title>
<path fill="none" stroke="#888888" d="M782.9,-461.67C789.83,-452.67 797.03,-443.32 804.07,-434.16"/>
<polygon fill="#888888" stroke="#888888" points="806.89,-436.24 810.22,-426.18 801.35,-431.97 806.89,-436.24"/>
</g>
<!-- 18 -->
<g id="node18" class="node">
<title>18</title>
<text text-anchor="start" x="1002.5" y="-407.8" font-family="Arial" font-weight="bold" font-size="14.00"> &lt; 10.5</text>
<text text-anchor="start" x="952" y="-363.3" font-family="Arial" font-size="14.00"> &#160;&#160;&#160;</text>
<path fill="#ebebeb" stroke="transparent" d="M982,-335C982,-335 1066,-335 1066,-335 1072,-335 1078,-341 1078,-347 1078,-347 1078,-387 1078,-387 1078,-393 1072,-399 1066,-399 1066,-399 982,-399 982,-399 976,-399 970,-393 970,-387 970,-387 970,-347 970,-347 970,-341 976,-335 982,-335"/>
<text text-anchor="start" x="971" y="-396.4" font-family="Arial" font-size="2.00"> </text>
<text text-anchor="start" x="971" y="-390.4" font-family="Arial" font-size="7.00"> &#160;18</text>
<text text-anchor="start" x="985" y="-373.8" font-family="Arial" font-weight="bold" font-size="14.00">Mean: 27.97</text>
<text text-anchor="start" x="1004" y="-356.8" font-family="Arial" font-weight="bold" font-size="14.00">n = 25</text>
<text text-anchor="start" x="1022.5" y="-338.8" font-family="Arial" font-size="9.00"> </text>
<path fill="none" stroke="#333333" d="M982,-335C982,-335 1066,-335 1066,-335 1072,-335 1078,-341 1078,-347 1078,-347 1078,-387 1078,-387 1078,-393 1072,-399 1066,-399 1066,-399 982,-399 982,-399 976,-399 970,-393 970,-387 970,-387 970,-347 970,-347 970,-341 976,-335 982,-335"/>
<text text-anchor="start" x="1080" y="-363.3" font-family="Arial" font-size="14.00"> &#160;&#160;&#160;</text>
<text text-anchor="start" x="966.5" y="-320.8" font-family="Arial" font-weight="bold" font-size="14.00">prev_168h_inflow</text>
</g>
<!-- 17&#45;&gt;18 -->
<g id="edge17" class="edge">
<title>17&#45;&gt;18</title>
<path fill="none" stroke="#888888" d="M1024,-461.67C1024,-453.39 1024,-444.83 1024,-436.38"/>
<polygon fill="#888888" stroke="#888888" points="1027.5,-436.18 1024,-426.18 1020.5,-436.18 1027.5,-436.18"/>
</g>
<!-- 23 -->
<g id="node19" class="node">
<title>23</title>
<text text-anchor="start" x="1185" y="-407.8" font-family="Arial" font-weight="bold" font-size="14.00"> ≥ 10.5</text>
<text text-anchor="start" x="1134" y="-363.3" font-family="Arial" font-size="14.00"> &#160;&#160;&#160;</text>
<path fill="#ebebeb" stroke="transparent" d="M1164,-335C1164,-335 1248,-335 1248,-335 1254,-335 1260,-341 1260,-347 1260,-347 1260,-387 1260,-387 1260,-393 1254,-399 1248,-399 1248,-399 1164,-399 1164,-399 1158,-399 1152,-393 1152,-387 1152,-387 1152,-347 1152,-347 1152,-341 1158,-335 1164,-335"/>
<text text-anchor="start" x="1153" y="-396.4" font-family="Arial" font-size="2.00"> </text>
<text text-anchor="start" x="1153" y="-390.4" font-family="Arial" font-size="7.00"> &#160;23</text>
<text text-anchor="start" x="1167" y="-373.8" font-family="Arial" font-weight="bold" font-size="14.00">Mean: 25.01</text>
<text text-anchor="start" x="1186" y="-356.8" font-family="Arial" font-weight="bold" font-size="14.00">n = 50</text>
<text text-anchor="start" x="1204.5" y="-338.8" font-family="Arial" font-size="9.00"> </text>
<path fill="none" stroke="#333333" d="M1164,-335C1164,-335 1248,-335 1248,-335 1254,-335 1260,-341 1260,-347 1260,-347 1260,-387 1260,-387 1260,-393 1254,-399 1248,-399 1248,-399 1164,-399 1164,-399 1158,-399 1152,-393 1152,-387 1152,-387 1152,-347 1152,-347 1152,-341 1158,-335 1164,-335"/>
<text text-anchor="start" x="1262" y="-363.3" font-family="Arial" font-size="14.00"> &#160;&#160;&#160;</text>
<text text-anchor="start" x="1148.5" y="-320.8" font-family="Arial" font-weight="bold" font-size="14.00">prev_168h_inflow</text>
</g>
<!-- 17&#45;&gt;23 -->
<g id="edge18" class="edge">
<title>17&#45;&gt;23</title>
<path fill="none" stroke="#888888" d="M1080.59,-472.74C1095.74,-460.08 1112.39,-446.18 1128.47,-432.75"/>
<polygon fill="#888888" stroke="#888888" points="1130.87,-435.31 1136.3,-426.21 1126.38,-429.93 1130.87,-435.31"/>
</g>
<!-- 19 -->
<g id="node20" class="node">
<title>19</title>
<text text-anchor="start" x="836" y="-253.8" font-family="Arial" font-weight="bold" font-size="14.00"> &lt; 27.95</text>
<text text-anchor="start" x="789" y="-209.3" font-family="Arial" font-size="14.00"> &#160;&#160;&#160;</text>
<path fill="#ebebeb" stroke="transparent" d="M819,-181C819,-181 903,-181 903,-181 909,-181 915,-187 915,-193 915,-193 915,-233 915,-233 915,-239 909,-245 903,-245 903,-245 819,-245 819,-245 813,-245 807,-239 807,-233 807,-233 807,-193 807,-193 807,-187 813,-181 819,-181"/>
<text text-anchor="start" x="808" y="-242.4" font-family="Arial" font-size="2.00"> </text>
<text text-anchor="start" x="808" y="-236.4" font-family="Arial" font-size="7.00"> &#160;19</text>
<text text-anchor="start" x="822" y="-219.8" font-family="Arial" font-weight="bold" font-size="14.00">Mean: 26.94</text>
<text text-anchor="start" x="841" y="-202.8" font-family="Arial" font-weight="bold" font-size="14.00">n = 12</text>
<text text-anchor="start" x="859.5" y="-184.8" font-family="Arial" font-size="9.00"> </text>
<path fill="none" stroke="#333333" d="M819,-181C819,-181 903,-181 903,-181 909,-181 915,-187 915,-193 915,-193 915,-233 915,-233 915,-239 909,-245 903,-245 903,-245 819,-245 819,-245 813,-245 807,-239 807,-233 807,-233 807,-193 807,-193 807,-187 813,-181 819,-181"/>
<text text-anchor="start" x="917" y="-209.3" font-family="Arial" font-size="14.00"> &#160;&#160;&#160;</text>
<text text-anchor="start" x="803.5" y="-166.8" font-family="Arial" font-weight="bold" font-size="14.00">prev_168h_inflow</text>
</g>
<!-- 18&#45;&gt;19 -->
<g id="edge19" class="edge">
<title>18&#45;&gt;19</title>
<path fill="none" stroke="#888888" d="M961.45,-307.67C951.4,-298.3 940.96,-288.56 930.76,-279.05"/>
<polygon fill="#888888" stroke="#888888" points="933.09,-276.44 923.39,-272.18 928.31,-281.56 933.09,-276.44"/>
</g>
<!-- 22 -->
<g id="node21" class="node">
<title>22</title>
<text text-anchor="start" x="1005.5" y="-253.8" font-family="Arial" font-weight="bold" font-size="14.00"> ≥ 27.95</text>
<path fill="#f8766d" fill-opacity="0.376471" stroke="transparent" d="M985,-181C985,-181 1075,-181 1075,-181 1081,-181 1087,-187 1087,-193 1087,-193 1087,-233 1087,-233 1087,-239 1081,-245 1075,-245 1075,-245 985,-245 985,-245 979,-245 973,-239 973,-233 973,-233 973,-193 973,-193 973,-187 979,-181 985,-181"/>
<text text-anchor="start" x="974" y="-242.4" font-family="Arial" font-size="2.00"> </text>
<text text-anchor="start" x="974" y="-236.4" font-family="Arial" font-size="7.00"> &#160;22</text>
<text text-anchor="start" x="988" y="-219.8" font-family="Arial" font-weight="bold" font-size="14.00">Predict 28.93</text>
<text text-anchor="start" x="1010" y="-202.8" font-family="Arial" font-weight="bold" font-size="14.00">n = 13</text>
<text text-anchor="start" x="1028.5" y="-184.8" font-family="Arial" font-size="9.00"> </text>
<path fill="none" stroke="#333333" d="M985,-181C985,-181 1075,-181 1075,-181 1081,-181 1087,-187 1087,-193 1087,-193 1087,-233 1087,-233 1087,-239 1081,-245 1075,-245 1075,-245 985,-245 985,-245 979,-245 973,-239 973,-233 973,-233 973,-193 973,-193 973,-187 979,-181 985,-181"/>
<text text-anchor="start" x="1028" y="-166.8" font-family="Arial" font-weight="bold" font-size="14.00"> </text>
</g>
<!-- 18&#45;&gt;22 -->
<g id="edge20" class="edge">
<title>18&#45;&gt;22</title>
<path fill="none" stroke="#888888" d="M1026.3,-307.67C1026.63,-299.39 1026.97,-290.83 1027.3,-282.38"/>
<polygon fill="#888888" stroke="#888888" points="1030.81,-282.31 1027.7,-272.18 1023.81,-282.03 1030.81,-282.31"/>
</g>
<!-- 24 -->
<g id="node24" class="node">
<title>24</title>
<text text-anchor="start" x="1174" y="-253.8" font-family="Arial" font-weight="bold" font-size="14.00"> &lt; 26.17</text>
<path fill="#f8766d" fill-opacity="0.517647" stroke="transparent" d="M1154,-181C1154,-181 1244,-181 1244,-181 1250,-181 1256,-187 1256,-193 1256,-193 1256,-233 1256,-233 1256,-239 1250,-245 1244,-245 1244,-245 1154,-245 1154,-245 1148,-245 1142,-239 1142,-233 1142,-233 1142,-193 1142,-193 1142,-187 1148,-181 1154,-181"/>
<text text-anchor="start" x="1143" y="-242.4" font-family="Arial" font-size="2.00"> </text>
<text text-anchor="start" x="1143" y="-236.4" font-family="Arial" font-size="7.00"> &#160;24</text>
<text text-anchor="start" x="1157" y="-219.8" font-family="Arial" font-weight="bold" font-size="14.00">Predict 24.43</text>
<text text-anchor="start" x="1179" y="-202.8" font-family="Arial" font-weight="bold" font-size="14.00">n = 34</text>
<text text-anchor="start" x="1197.5" y="-184.8" font-family="Arial" font-size="9.00"> </text>
<path fill="none" stroke="#333333" d="M1154,-181C1154,-181 1244,-181 1244,-181 1250,-181 1256,-187 1256,-193 1256,-193 1256,-233 1256,-233 1256,-239 1250,-245 1244,-245 1244,-245 1154,-245 1154,-245 1148,-245 1142,-239 1142,-233 1142,-233 1142,-193 1142,-193 1142,-187 1148,-181 1154,-181"/>
<text text-anchor="start" x="1197" y="-166.8" font-family="Arial" font-weight="bold" font-size="14.00"> </text>
</g>
<!-- 23&#45;&gt;24 -->
<g id="edge23" class="edge">
<title>23&#45;&gt;24</title>
<path fill="none" stroke="#888888" d="M1203.31,-307.67C1202.93,-299.39 1202.54,-290.83 1202.15,-282.38"/>
<polygon fill="#888888" stroke="#888888" points="1205.64,-282 1201.68,-272.18 1198.64,-282.33 1205.64,-282"/>
</g>
<!-- 25 -->
<g id="node25" class="node">
<title>25</title>
<text text-anchor="start" x="1330.5" y="-253.8" font-family="Arial" font-weight="bold" font-size="14.00"> ≥ 26.17</text>
<path fill="#f8766d" fill-opacity="0.458824" stroke="transparent" d="M1310,-181C1310,-181 1400,-181 1400,-181 1406,-181 1412,-187 1412,-193 1412,-193 1412,-233 1412,-233 1412,-239 1406,-245 1400,-245 1400,-245 1310,-245 1310,-245 1304,-245 1298,-239 1298,-233 1298,-233 1298,-193 1298,-193 1298,-187 1304,-181 1310,-181"/>
<text text-anchor="start" x="1299" y="-242.4" font-family="Arial" font-size="2.00"> </text>
<text text-anchor="start" x="1299" y="-236.4" font-family="Arial" font-size="7.00"> &#160;25</text>
<text text-anchor="start" x="1313" y="-219.8" font-family="Arial" font-weight="bold" font-size="14.00">Predict 26.25</text>
<text text-anchor="start" x="1335" y="-202.8" font-family="Arial" font-weight="bold" font-size="14.00">n = 16</text>
<text text-anchor="start" x="1353.5" y="-184.8" font-family="Arial" font-size="9.00"> </text>
<path fill="none" stroke="#333333" d="M1310,-181C1310,-181 1400,-181 1400,-181 1406,-181 1412,-187 1412,-193 1412,-193 1412,-233 1412,-233 1412,-239 1406,-245 1400,-245 1400,-245 1310,-245 1310,-245 1304,-245 1298,-239 1298,-233 1298,-233 1298,-193 1298,-193 1298,-187 1304,-181 1310,-181"/>
<text text-anchor="start" x="1353" y="-166.8" font-family="Arial" font-weight="bold" font-size="14.00"> </text>
</g>
<!-- 23&#45;&gt;25 -->
<g id="edge24" class="edge">
<title>23&#45;&gt;25</title>
<path fill="none" stroke="#888888" d="M1263.18,-307.67C1272.27,-298.39 1281.73,-288.75 1290.96,-279.33"/>
<polygon fill="#888888" stroke="#888888" points="1293.47,-281.77 1297.97,-272.18 1288.47,-276.87 1293.47,-281.77"/>
</g>
<!-- 20 -->
<g id="node22" class="node">
<title>20</title>
<text text-anchor="start" x="758" y="-99.8" font-family="Arial" font-weight="bold" font-size="14.00"> &lt; 27.38</text>
<path fill="#f8766d" fill-opacity="0.423529" stroke="transparent" d="M738,-27C738,-27 828,-27 828,-27 834,-27 840,-33 840,-39 840,-39 840,-79 840,-79 840,-85 834,-91 828,-91 828,-91 738,-91 738,-91 732,-91 726,-85 726,-79 726,-79 726,-39 726,-39 726,-33 732,-27 738,-27"/>
<text text-anchor="start" x="727" y="-88.4" font-family="Arial" font-size="2.00"> </text>
<text text-anchor="start" x="727" y="-82.4" font-family="Arial" font-size="7.00"> &#160;20</text>
<text text-anchor="start" x="741" y="-65.8" font-family="Arial" font-weight="bold" font-size="14.00">Predict 27.36</text>
<text text-anchor="start" x="763.5" y="-48.8" font-family="Arial" font-weight="bold" font-size="14.00">n = 11</text>
<text text-anchor="start" x="781.5" y="-30.8" font-family="Arial" font-size="9.00"> </text>
<path fill="none" stroke="#333333" d="M738,-27C738,-27 828,-27 828,-27 834,-27 840,-33 840,-39 840,-39 840,-79 840,-79 840,-85 834,-91 828,-91 828,-91 738,-91 738,-91 732,-91 726,-85 726,-79 726,-79 726,-39 726,-39 726,-33 732,-27 738,-27"/>
<text text-anchor="start" x="781" y="-12.8" font-family="Arial" font-weight="bold" font-size="14.00"> </text>
</g>
<!-- 19&#45;&gt;20 -->
<g id="edge21" class="edge">
<title>19&#45;&gt;20</title>
<path fill="none" stroke="#888888" d="M831.07,-153.67C826.63,-145.03 822.04,-136.07 817.52,-127.27"/>
<polygon fill="#888888" stroke="#888888" points="820.53,-125.48 812.85,-118.18 814.31,-128.67 820.53,-125.48"/>
</g>
<!-- 21 -->
<g id="node23" class="node">
<title>21</title>
<text text-anchor="start" x="914.5" y="-99.8" font-family="Arial" font-weight="bold" font-size="14.00"> ≥ 27.38</text>
<path fill="#f8766d" fill-opacity="0.580392" stroke="transparent" d="M894,-27C894,-27 984,-27 984,-27 990,-27 996,-33 996,-39 996,-39 996,-79 996,-79 996,-85 990,-91 984,-91 984,-91 894,-91 894,-91 888,-91 882,-85 882,-79 882,-79 882,-39 882,-39 882,-33 888,-27 894,-27"/>
<text text-anchor="start" x="883" y="-88.4" font-family="Arial" font-size="2.00"> </text>
<text text-anchor="start" x="883" y="-82.4" font-family="Arial" font-size="7.00"> &#160;21</text>
<text text-anchor="start" x="897" y="-65.8" font-family="Arial" font-weight="bold" font-size="14.00">Predict 22.37</text>
<text text-anchor="start" x="923" y="-48.8" font-family="Arial" font-weight="bold" font-size="14.00">n = 1</text>
<text text-anchor="start" x="937.5" y="-30.8" font-family="Arial" font-size="9.00"> </text>
<path fill="none" stroke="#333333" d="M894,-27C894,-27 984,-27 984,-27 990,-27 996,-33 996,-39 996,-39 996,-79 996,-79 996,-85 990,-91 984,-91 984,-91 894,-91 894,-91 888,-91 882,-85 882,-79 882,-79 882,-39 882,-39 882,-33 888,-27 894,-27"/>
<text text-anchor="start" x="937" y="-12.8" font-family="Arial" font-weight="bold" font-size="14.00"> </text>
</g>
<!-- 19&#45;&gt;21 -->
<g id="edge22" class="edge">
<title>19&#45;&gt;21</title>
<path fill="none" stroke="#888888" d="M890.93,-153.67C895.37,-145.03 899.96,-136.07 904.48,-127.27"/>
<polygon fill="#888888" stroke="#888888" points="907.69,-128.67 909.15,-118.18 901.47,-125.48 907.69,-128.67"/>
</g>
</g>
</svg>
