<?xml version="1.0" encoding="utf-8"?>
<svg xmlns="http://www.w3.org/2000/svg" xmlns:xlink="http://www.w3.org/1999/xlink" width="1000" height="400" viewBox="0 0 4000 1600">
<defs>
  <clipPath id="clip620">
    <rect x="0" y="0" width="4000" height="1600"/>
  </clipPath>
</defs>
<path clip-path="url(#clip620)" d="M0 1600 L4000 1600 L4000 0 L0 0  Z" fill="#ffffff" fill-rule="evenodd" fill-opacity="1"/>
<defs>
  <clipPath id="clip621">
    <rect x="800" y="0" width="2801" height="1600"/>
  </clipPath>
</defs>
<path clip-path="url(#clip620)" d="M203.67 1497.68 L3180.22 1497.68 L3180.22 47.2441 L203.67 47.2441  Z" fill="#ffffff" fill-rule="evenodd" fill-opacity="1"/>
<defs>
  <clipPath id="clip622">
    <rect x="203" y="47" width="2978" height="1451"/>
  </clipPath>
</defs>
<polyline clip-path="url(#clip622)" style="stroke:#000000; stroke-linecap:round; stroke-linejoin:round; stroke-width:2; stroke-opacity:0.1; fill:none" points="287.912,1497.68 287.912,47.2441 "/>
<polyline clip-path="url(#clip622)" style="stroke:#000000; stroke-linecap:round; stroke-linejoin:round; stroke-width:2; stroke-opacity:0.1; fill:none" points="1095.02,1497.68 1095.02,47.2441 "/>
<polyline clip-path="url(#clip622)" style="stroke:#000000; stroke-linecap:round; stroke-linejoin:round; stroke-width:2; stroke-opacity:0.1; fill:none" points="1902.13,1497.68 1902.13,47.2441 "/>
<polyline clip-path="url(#clip622)" style="stroke:#000000; stroke-linecap:round; stroke-linejoin:round; stroke-width:2; stroke-opacity:0.1; fill:none" points="2709.24,1497.68 2709.24,47.2441 "/>
<polyline clip-path="url(#clip620)" style="stroke:#000000; stroke-linecap:round; stroke-linejoin:round; stroke-width:4; stroke-opacity:1; fill:none" points="203.67,1497.68 3180.22,1497.68 "/>
<polyline clip-path="url(#clip620)" style="stroke:#000000; stroke-linecap:round; stroke-linejoin:round; stroke-width:4; stroke-opacity:1; fill:none" points="287.912,1497.68 287.912,1478.78 "/>
<polyline clip-path="url(#clip620)" style="stroke:#000000; stroke-linecap:round; stroke-linejoin:round; stroke-width:4; stroke-opacity:1; fill:none" points="1095.02,1497.68 1095.02,1478.78 "/>
<polyline clip-path="url(#clip620)" style="stroke:#000000; stroke-linecap:round; stroke-linejoin:round; stroke-width:4; stroke-opacity:1; fill:none" points="1902.13,1497.68 1902.13,1478.78 "/>
<polyline clip-path="url(#clip620)" style="stroke:#000000; stroke-linecap:round; stroke-linejoin:round; stroke-width:4; stroke-opacity:1; fill:none" points="2709.24,1497.68 2709.24,1478.78 "/>
<path clip-path="url(#clip620)" d="M143.043 1573.85 L161.403 1573.85 L161.403 1578.28 L136.715 1578.28 L136.715 1573.85 Q139.71 1570.75 144.866 1565.55 Q150.048 1560.31 151.377 1558.8 Q153.903 1555.96 154.892 1554.01 Q155.908 1552.03 155.908 1550.13 Q155.908 1547.03 153.72 1545.08 Q151.559 1543.12 148.069 1543.12 Q145.595 1543.12 142.835 1543.98 Q140.101 1544.84 136.976 1546.59 L136.976 1541.27 Q140.153 1540 142.913 1539.35 Q145.673 1538.7 147.965 1538.7 Q154.007 1538.7 157.601 1541.72 Q161.194 1544.74 161.194 1549.79 Q161.194 1552.19 160.283 1554.35 Q159.397 1556.48 157.028 1559.4 Q156.377 1560.15 152.887 1563.77 Q149.397 1567.37 143.043 1573.85 Z" fill="#000000" fill-rule="nonzero" fill-opacity="1" /><path clip-path="url(#clip620)" d="M183.694 1542.86 Q179.632 1542.86 177.574 1546.87 Q175.543 1550.86 175.543 1558.88 Q175.543 1566.87 177.574 1570.88 Q179.632 1574.87 183.694 1574.87 Q187.783 1574.87 189.814 1570.88 Q191.871 1566.87 191.871 1558.88 Q191.871 1550.86 189.814 1546.87 Q187.783 1542.86 183.694 1542.86 M183.694 1538.7 Q190.231 1538.7 193.668 1543.88 Q197.132 1549.04 197.132 1558.88 Q197.132 1568.7 193.668 1573.88 Q190.231 1579.04 183.694 1579.04 Q177.158 1579.04 173.694 1573.88 Q170.257 1568.7 170.257 1558.88 Q170.257 1549.04 173.694 1543.88 Q177.158 1538.7 183.694 1538.7 Z" fill="#000000" fill-rule="nonzero" fill-opacity="1" /><path clip-path="url(#clip620)" d="M210.908 1573.85 L229.267 1573.85 L229.267 1578.28 L204.579 1578.28 L204.579 1573.85 Q207.574 1570.75 212.73 1565.55 Q217.913 1560.31 219.241 1558.8 Q221.767 1555.96 222.756 1554.01 Q223.772 1552.03 223.772 1550.13 Q223.772 1547.03 221.585 1545.08 Q219.423 1543.12 215.934 1543.12 Q213.46 1543.12 210.699 1543.98 Q207.965 1544.84 204.84 1546.59 L204.84 1541.27 Q208.017 1540 210.777 1539.35 Q213.538 1538.7 215.829 1538.7 Q221.871 1538.7 225.465 1541.72 Q229.058 1544.74 229.058 1549.79 Q229.058 1552.19 228.147 1554.35 Q227.262 1556.48 224.892 1559.4 Q224.241 1560.15 220.751 1563.77 Q217.262 1567.37 210.908 1573.85 Z" fill="#000000" fill-rule="nonzero" fill-opacity="1" /><path clip-path="url(#clip620)" d="M244.84 1573.85 L263.199 1573.85 L263.199 1578.28 L238.512 1578.28 L238.512 1573.85 Q241.506 1570.75 246.663 1565.55 Q251.845 1560.31 253.173 1558.8 Q255.699 1555.96 256.689 1554.01 Q257.704 1552.03 257.704 1550.13 Q257.704 1547.03 255.517 1545.08 Q253.355 1543.12 249.866 1543.12 Q247.392 1543.12 244.631 1543.98 Q241.897 1544.84 238.772 1546.59 L238.772 1541.27 Q241.949 1540 244.709 1539.35 Q247.47 1538.7 249.761 1538.7 Q255.803 1538.7 259.397 1541.72 Q262.991 1544.74 262.991 1549.79 Q262.991 1552.19 262.079 1554.35 Q261.194 1556.48 258.824 1559.4 Q258.173 1560.15 254.683 1563.77 Q251.194 1567.37 244.84 1573.85 Z" fill="#000000" fill-rule="nonzero" fill-opacity="1" /><path clip-path="url(#clip620)" d="M271.142 1561.54 L285.178 1561.54 L285.178 1565.81 L271.142 1565.81 L271.142 1561.54 Z" fill="#000000" fill-rule="nonzero" fill-opacity="1" /><path clip-path="url(#clip620)" d="M304.735 1542.86 Q300.673 1542.86 298.615 1546.87 Q296.584 1550.86 296.584 1558.88 Q296.584 1566.87 298.615 1570.88 Q300.673 1574.87 304.735 1574.87 Q308.824 1574.87 310.855 1570.88 Q312.912 1566.87 312.912 1558.88 Q312.912 1550.86 310.855 1546.87 Q308.824 1542.86 304.735 1542.86 M304.735 1538.7 Q311.272 1538.7 314.709 1543.88 Q318.173 1549.04 318.173 1558.88 Q318.173 1568.7 314.709 1573.88 Q311.272 1579.04 304.735 1579.04 Q298.199 1579.04 294.735 1573.88 Q291.298 1568.7 291.298 1558.88 Q291.298 1549.04 294.735 1543.88 Q298.199 1538.7 304.735 1538.7 Z" fill="#000000" fill-rule="nonzero" fill-opacity="1" /><path clip-path="url(#clip620)" d="M326.089 1539.4 L351.089 1539.4 L351.089 1541.64 L336.975 1578.28 L331.48 1578.28 L344.761 1543.83 L326.089 1543.83 L326.089 1539.4 Z" fill="#000000" fill-rule="nonzero" fill-opacity="1" /><path clip-path="url(#clip620)" d="M358.25 1561.54 L372.287 1561.54 L372.287 1565.81 L358.25 1565.81 L358.25 1561.54 Z" fill="#000000" fill-rule="nonzero" fill-opacity="1" /><path clip-path="url(#clip620)" d="M381.506 1573.85 L390.099 1573.85 L390.099 1544.19 L380.75 1546.07 L380.75 1541.27 L390.047 1539.4 L395.308 1539.4 L395.308 1573.85 L403.901 1573.85 L403.901 1578.28 L381.506 1578.28 L381.506 1573.85 Z" fill="#000000" fill-rule="nonzero" fill-opacity="1" /><path clip-path="url(#clip620)" d="M425.776 1559.82 Q422.026 1559.82 419.865 1561.82 Q417.729 1563.83 417.729 1567.34 Q417.729 1570.86 419.865 1572.86 Q422.026 1574.87 425.776 1574.87 Q429.526 1574.87 431.688 1572.86 Q433.849 1570.83 433.849 1567.34 Q433.849 1563.83 431.688 1561.82 Q429.552 1559.82 425.776 1559.82 M420.516 1557.58 Q417.13 1556.74 415.229 1554.43 Q413.354 1552.11 413.354 1548.77 Q413.354 1544.11 416.662 1541.41 Q419.995 1538.7 425.776 1538.7 Q431.583 1538.7 434.891 1541.41 Q438.198 1544.11 438.198 1548.77 Q438.198 1552.11 436.297 1554.43 Q434.422 1556.74 431.063 1557.58 Q434.865 1558.46 436.974 1561.04 Q439.109 1563.62 439.109 1567.34 Q439.109 1572.99 435.646 1576.01 Q432.208 1579.04 425.776 1579.04 Q419.344 1579.04 415.88 1576.01 Q412.443 1572.99 412.443 1567.34 Q412.443 1563.62 414.578 1561.04 Q416.714 1558.46 420.516 1557.58 M418.589 1549.27 Q418.589 1552.29 420.464 1553.98 Q422.365 1555.68 425.776 1555.68 Q429.162 1555.68 431.063 1553.98 Q432.99 1552.29 432.99 1549.27 Q432.99 1546.25 431.063 1544.56 Q429.162 1542.86 425.776 1542.86 Q422.365 1542.86 420.464 1544.56 Q418.589 1546.25 418.589 1549.27 Z" fill="#000000" fill-rule="nonzero" fill-opacity="1" /><path clip-path="url(#clip620)" d="M950.101 1573.85 L968.46 1573.85 L968.46 1578.28 L943.773 1578.28 L943.773 1573.85 Q946.767 1570.75 951.924 1565.55 Q957.106 1560.31 958.434 1558.8 Q960.96 1555.96 961.95 1554.01 Q962.965 1552.03 962.965 1550.13 Q962.965 1547.03 960.778 1545.08 Q958.616 1543.12 955.127 1543.12 Q952.653 1543.12 949.892 1543.98 Q947.158 1544.84 944.033 1546.59 L944.033 1541.27 Q947.21 1540 949.971 1539.35 Q952.731 1538.7 955.023 1538.7 Q961.064 1538.7 964.658 1541.72 Q968.252 1544.74 968.252 1549.79 Q968.252 1552.19 967.34 1554.35 Q966.455 1556.48 964.085 1559.4 Q963.434 1560.15 959.944 1563.77 Q956.455 1567.37 950.101 1573.85 Z" fill="#000000" fill-rule="nonzero" fill-opacity="1" /><path clip-path="url(#clip620)" d="M990.752 1542.86 Q986.689 1542.86 984.632 1546.87 Q982.601 1550.86 982.601 1558.88 Q982.601 1566.87 984.632 1570.88 Q986.689 1574.87 990.752 1574.87 Q994.84 1574.87 996.871 1570.88 Q998.929 1566.87 998.929 1558.88 Q998.929 1550.86 996.871 1546.87 Q994.84 1542.86 990.752 1542.86 M990.752 1538.7 Q997.288 1538.7 1000.73 1543.88 Q1004.19 1549.04 1004.19 1558.88 Q1004.19 1568.7 1000.73 1573.88 Q997.288 1579.04 990.752 1579.04 Q984.215 1579.04 980.752 1573.88 Q977.314 1568.7 977.314 1558.88 Q977.314 1549.04 980.752 1543.88 Q984.215 1538.7 990.752 1538.7 Z" fill="#000000" fill-rule="nonzero" fill-opacity="1" /><path clip-path="url(#clip620)" d="M1017.96 1573.85 L1036.32 1573.85 L1036.32 1578.28 L1011.64 1578.28 L1011.64 1573.85 Q1014.63 1570.75 1019.79 1565.55 Q1024.97 1560.31 1026.3 1558.8 Q1028.82 1555.96 1029.81 1554.01 Q1030.83 1552.03 1030.83 1550.13 Q1030.83 1547.03 1028.64 1545.08 Q1026.48 1543.12 1022.99 1543.12 Q1020.52 1543.12 1017.76 1543.98 Q1015.02 1544.84 1011.9 1546.59 L1011.9 1541.27 Q1015.07 1540 1017.83 1539.35 Q1020.6 1538.7 1022.89 1538.7 Q1028.93 1538.7 1032.52 1541.72 Q1036.12 1544.74 1036.12 1549.79 Q1036.12 1552.19 1035.2 1554.35 Q1034.32 1556.48 1031.95 1559.4 Q1031.3 1560.15 1027.81 1563.77 Q1024.32 1567.37 1017.96 1573.85 Z" fill="#000000" fill-rule="nonzero" fill-opacity="1" /><path clip-path="url(#clip620)" d="M1051.9 1573.85 L1070.26 1573.85 L1070.26 1578.28 L1045.57 1578.28 L1045.57 1573.85 Q1048.56 1570.75 1053.72 1565.55 Q1058.9 1560.31 1060.23 1558.8 Q1062.76 1555.96 1063.75 1554.01 Q1064.76 1552.03 1064.76 1550.13 Q1064.76 1547.03 1062.57 1545.08 Q1060.41 1543.12 1056.92 1543.12 Q1054.45 1543.12 1051.69 1543.98 Q1048.95 1544.84 1045.83 1546.59 L1045.83 1541.27 Q1049.01 1540 1051.77 1539.35 Q1054.53 1538.7 1056.82 1538.7 Q1062.86 1538.7 1066.45 1541.72 Q1070.05 1544.74 1070.05 1549.79 Q1070.05 1552.19 1069.14 1554.35 Q1068.25 1556.48 1065.88 1559.4 Q1065.23 1560.15 1061.74 1563.77 Q1058.25 1567.37 1051.9 1573.85 Z" fill="#000000" fill-rule="nonzero" fill-opacity="1" /><path clip-path="url(#clip620)" d="M1078.2 1561.54 L1092.24 1561.54 L1092.24 1565.81 L1078.2 1565.81 L1078.2 1561.54 Z" fill="#000000" fill-rule="nonzero" fill-opacity="1" /><path clip-path="url(#clip620)" d="M1111.79 1542.86 Q1107.73 1542.86 1105.67 1546.87 Q1103.64 1550.86 1103.64 1558.88 Q1103.64 1566.87 1105.67 1570.88 Q1107.73 1574.87 1111.79 1574.87 Q1115.88 1574.87 1117.91 1570.88 Q1119.97 1566.87 1119.97 1558.88 Q1119.97 1550.86 1117.91 1546.87 Q1115.88 1542.86 1111.79 1542.86 M1111.79 1538.7 Q1118.33 1538.7 1121.77 1543.88 Q1125.23 1549.04 1125.23 1558.88 Q1125.23 1568.7 1121.77 1573.88 Q1118.33 1579.04 1111.79 1579.04 Q1105.26 1579.04 1101.79 1573.88 Q1098.36 1568.7 1098.36 1558.88 Q1098.36 1549.04 1101.79 1543.88 Q1105.26 1538.7 1111.79 1538.7 Z" fill="#000000" fill-rule="nonzero" fill-opacity="1" /><path clip-path="url(#clip620)" d="M1133.15 1539.4 L1158.15 1539.4 L1158.15 1541.64 L1144.03 1578.28 L1138.54 1578.28 L1151.82 1543.83 L1133.15 1543.83 L1133.15 1539.4 Z" fill="#000000" fill-rule="nonzero" fill-opacity="1" /><path clip-path="url(#clip620)" d="M1165.31 1561.54 L1179.34 1561.54 L1179.34 1565.81 L1165.31 1565.81 L1165.31 1561.54 Z" fill="#000000" fill-rule="nonzero" fill-opacity="1" /><path clip-path="url(#clip620)" d="M1192.18 1573.85 L1210.54 1573.85 L1210.54 1578.28 L1185.85 1578.28 L1185.85 1573.85 Q1188.85 1570.75 1194.01 1565.55 Q1199.19 1560.31 1200.52 1558.8 Q1203.04 1555.96 1204.03 1554.01 Q1205.05 1552.03 1205.05 1550.13 Q1205.05 1547.03 1202.86 1545.08 Q1200.7 1543.12 1197.21 1543.12 Q1194.73 1543.12 1191.97 1543.98 Q1189.24 1544.84 1186.12 1546.59 L1186.12 1541.27 Q1189.29 1540 1192.05 1539.35 Q1194.81 1538.7 1197.1 1538.7 Q1203.15 1538.7 1206.74 1541.72 Q1210.33 1544.74 1210.33 1549.79 Q1210.33 1552.19 1209.42 1554.35 Q1208.54 1556.48 1206.17 1559.4 Q1205.52 1560.15 1202.03 1563.77 Q1198.54 1567.37 1192.18 1573.85 Z" fill="#000000" fill-rule="nonzero" fill-opacity="1" /><path clip-path="url(#clip620)" d="M1232.83 1542.86 Q1228.77 1542.86 1226.71 1546.87 Q1224.68 1550.86 1224.68 1558.88 Q1224.68 1566.87 1226.71 1570.88 Q1228.77 1574.87 1232.83 1574.87 Q1236.92 1574.87 1238.95 1570.88 Q1241.01 1566.87 1241.01 1558.88 Q1241.01 1550.86 1238.95 1546.87 Q1236.92 1542.86 1232.83 1542.86 M1232.83 1538.7 Q1239.37 1538.7 1242.81 1543.88 Q1246.27 1549.04 1246.27 1558.88 Q1246.27 1568.7 1242.81 1573.88 Q1239.37 1579.04 1232.83 1579.04 Q1226.3 1579.04 1222.83 1573.88 Q1219.4 1568.7 1219.4 1558.88 Q1219.4 1549.04 1222.83 1543.88 Q1226.3 1538.7 1232.83 1538.7 Z" fill="#000000" fill-rule="nonzero" fill-opacity="1" /><path clip-path="url(#clip620)" d="M1758.11 1573.85 L1776.47 1573.85 L1776.47 1578.28 L1751.78 1578.28 L1751.78 1573.85 Q1754.78 1570.75 1759.93 1565.55 Q1765.11 1560.31 1766.44 1558.8 Q1768.97 1555.96 1769.96 1554.01 Q1770.97 1552.03 1770.97 1550.13 Q1770.97 1547.03 1768.79 1545.08 Q1766.62 1543.12 1763.13 1543.12 Q1760.66 1543.12 1757.9 1543.98 Q1755.17 1544.84 1752.04 1546.59 L1752.04 1541.27 Q1755.22 1540 1757.98 1539.35 Q1760.74 1538.7 1763.03 1538.7 Q1769.07 1538.7 1772.67 1541.72 Q1776.26 1544.74 1776.26 1549.79 Q1776.26 1552.19 1775.35 1554.35 Q1774.46 1556.48 1772.09 1559.4 Q1771.44 1560.15 1767.95 1563.77 Q1764.46 1567.37 1758.11 1573.85 Z" fill="#000000" fill-rule="nonzero" fill-opacity="1" /><path clip-path="url(#clip620)" d="M1798.76 1542.86 Q1794.7 1542.86 1792.64 1546.87 Q1790.61 1550.86 1790.61 1558.88 Q1790.61 1566.87 1792.64 1570.88 Q1794.7 1574.87 1798.76 1574.87 Q1802.85 1574.87 1804.88 1570.88 Q1806.94 1566.87 1806.94 1558.88 Q1806.94 1550.86 1804.88 1546.87 Q1802.85 1542.86 1798.76 1542.86 M1798.76 1538.7 Q1805.3 1538.7 1808.73 1543.88 Q1812.2 1549.04 1812.2 1558.88 Q1812.2 1568.7 1808.73 1573.88 Q1805.3 1579.04 1798.76 1579.04 Q1792.22 1579.04 1788.76 1573.88 Q1785.32 1568.7 1785.32 1558.88 Q1785.32 1549.04 1788.76 1543.88 Q1792.22 1538.7 1798.76 1538.7 Z" fill="#000000" fill-rule="nonzero" fill-opacity="1" /><path clip-path="url(#clip620)" d="M1825.97 1573.85 L1844.33 1573.85 L1844.33 1578.28 L1819.64 1578.28 L1819.64 1573.85 Q1822.64 1570.75 1827.8 1565.55 Q1832.98 1560.31 1834.31 1558.8 Q1836.83 1555.96 1837.82 1554.01 Q1838.84 1552.03 1838.84 1550.13 Q1838.84 1547.03 1836.65 1545.08 Q1834.49 1543.12 1831 1543.12 Q1828.53 1543.12 1825.76 1543.98 Q1823.03 1544.84 1819.91 1546.59 L1819.91 1541.27 Q1823.08 1540 1825.84 1539.35 Q1828.6 1538.7 1830.89 1538.7 Q1836.94 1538.7 1840.53 1541.72 Q1844.12 1544.74 1844.12 1549.79 Q1844.12 1552.19 1843.21 1554.35 Q1842.33 1556.48 1839.96 1559.4 Q1839.31 1560.15 1835.82 1563.77 Q1832.33 1567.37 1825.97 1573.85 Z" fill="#000000" fill-rule="nonzero" fill-opacity="1" /><path clip-path="url(#clip620)" d="M1859.91 1573.85 L1878.26 1573.85 L1878.26 1578.28 L1853.58 1578.28 L1853.58 1573.85 Q1856.57 1570.75 1861.73 1565.55 Q1866.91 1560.31 1868.24 1558.8 Q1870.76 1555.96 1871.75 1554.01 Q1872.77 1552.03 1872.77 1550.13 Q1872.77 1547.03 1870.58 1545.08 Q1868.42 1543.12 1864.93 1543.12 Q1862.46 1543.12 1859.7 1543.98 Q1856.96 1544.84 1853.84 1546.59 L1853.84 1541.27 Q1857.01 1540 1859.77 1539.35 Q1862.54 1538.7 1864.83 1538.7 Q1870.87 1538.7 1874.46 1541.72 Q1878.06 1544.74 1878.06 1549.79 Q1878.06 1552.19 1877.14 1554.35 Q1876.26 1556.48 1873.89 1559.4 Q1873.24 1560.15 1869.75 1563.77 Q1866.26 1567.37 1859.91 1573.85 Z" fill="#000000" fill-rule="nonzero" fill-opacity="1" /><path clip-path="url(#clip620)" d="M1886.21 1561.54 L1900.24 1561.54 L1900.24 1565.81 L1886.21 1565.81 L1886.21 1561.54 Z" fill="#000000" fill-rule="nonzero" fill-opacity="1" /><path clip-path="url(#clip620)" d="M1919.8 1542.86 Q1915.74 1542.86 1913.68 1546.87 Q1911.65 1550.86 1911.65 1558.88 Q1911.65 1566.87 1913.68 1570.88 Q1915.74 1574.87 1919.8 1574.87 Q1923.89 1574.87 1925.92 1570.88 Q1927.98 1566.87 1927.98 1558.88 Q1927.98 1550.86 1925.92 1546.87 Q1923.89 1542.86 1919.8 1542.86 M1919.8 1538.7 Q1926.34 1538.7 1929.77 1543.88 Q1933.24 1549.04 1933.24 1558.88 Q1933.24 1568.7 1929.77 1573.88 Q1926.34 1579.04 1919.8 1579.04 Q1913.26 1579.04 1909.8 1573.88 Q1906.36 1568.7 1906.36 1558.88 Q1906.36 1549.04 1909.8 1543.88 Q1913.26 1538.7 1919.8 1538.7 Z" fill="#000000" fill-rule="nonzero" fill-opacity="1" /><path clip-path="url(#clip620)" d="M1941.15 1539.4 L1966.15 1539.4 L1966.15 1541.64 L1952.04 1578.28 L1946.55 1578.28 L1959.83 1543.83 L1941.15 1543.83 L1941.15 1539.4 Z" fill="#000000" fill-rule="nonzero" fill-opacity="1" /><path clip-path="url(#clip620)" d="M1973.32 1561.54 L1987.35 1561.54 L1987.35 1565.81 L1973.32 1565.81 L1973.32 1561.54 Z" fill="#000000" fill-rule="nonzero" fill-opacity="1" /><path clip-path="url(#clip620)" d="M2000.19 1573.85 L2018.55 1573.85 L2018.55 1578.28 L1993.86 1578.28 L1993.86 1573.85 Q1996.86 1570.75 2002.01 1565.55 Q2007.2 1560.31 2008.52 1558.8 Q2011.05 1555.96 2012.04 1554.01 Q2013.06 1552.03 2013.06 1550.13 Q2013.06 1547.03 2010.87 1545.08 Q2008.71 1543.12 2005.22 1543.12 Q2002.74 1543.12 1999.98 1543.98 Q1997.25 1544.84 1994.12 1546.59 L1994.12 1541.27 Q1997.3 1540 2000.06 1539.35 Q2002.82 1538.7 2005.11 1538.7 Q2011.15 1538.7 2014.75 1541.72 Q2018.34 1544.74 2018.34 1549.79 Q2018.34 1552.19 2017.43 1554.35 Q2016.54 1556.48 2014.18 1559.4 Q2013.52 1560.15 2010.03 1563.77 Q2006.54 1567.37 2000.19 1573.85 Z" fill="#000000" fill-rule="nonzero" fill-opacity="1" /><path clip-path="url(#clip620)" d="M2034.12 1573.85 L2052.48 1573.85 L2052.48 1578.28 L2027.79 1578.28 L2027.79 1573.85 Q2030.79 1570.75 2035.95 1565.55 Q2041.13 1560.31 2042.46 1558.8 Q2044.98 1555.96 2045.97 1554.01 Q2046.99 1552.03 2046.99 1550.13 Q2046.99 1547.03 2044.8 1545.08 Q2042.64 1543.12 2039.15 1543.12 Q2036.67 1543.12 2033.91 1543.98 Q2031.18 1544.84 2028.06 1546.59 L2028.06 1541.27 Q2031.23 1540 2033.99 1539.35 Q2036.75 1538.7 2039.04 1538.7 Q2045.09 1538.7 2048.68 1541.72 Q2052.27 1544.74 2052.27 1549.79 Q2052.27 1552.19 2051.36 1554.35 Q2050.48 1556.48 2048.11 1559.4 Q2047.46 1560.15 2043.97 1563.77 Q2040.48 1567.37 2034.12 1573.85 Z" fill="#000000" fill-rule="nonzero" fill-opacity="1" /><path clip-path="url(#clip620)" d="M2564.05 1573.85 L2582.41 1573.85 L2582.41 1578.28 L2557.72 1578.28 L2557.72 1573.85 Q2560.71 1570.75 2565.87 1565.55 Q2571.05 1560.31 2572.38 1558.8 Q2574.91 1555.96 2575.9 1554.01 Q2576.91 1552.03 2576.91 1550.13 Q2576.91 1547.03 2574.72 1545.08 Q2572.56 1543.12 2569.07 1543.12 Q2566.6 1543.12 2563.84 1543.98 Q2561.1 1544.84 2557.98 1546.59 L2557.98 1541.27 Q2561.16 1540 2563.92 1539.35 Q2566.68 1538.7 2568.97 1538.7 Q2575.01 1538.7 2578.6 1541.72 Q2582.2 1544.74 2582.2 1549.79 Q2582.2 1552.19 2581.29 1554.35 Q2580.4 1556.48 2578.03 1559.4 Q2577.38 1560.15 2573.89 1563.77 Q2570.4 1567.37 2564.05 1573.85 Z" fill="#000000" fill-rule="nonzero" fill-opacity="1" /><path clip-path="url(#clip620)" d="M2604.7 1542.86 Q2600.63 1542.86 2598.58 1546.87 Q2596.55 1550.86 2596.55 1558.88 Q2596.55 1566.87 2598.58 1570.88 Q2600.63 1574.87 2604.7 1574.87 Q2608.79 1574.87 2610.82 1570.88 Q2612.87 1566.87 2612.87 1558.88 Q2612.87 1550.86 2610.82 1546.87 Q2608.79 1542.86 2604.7 1542.86 M2604.7 1538.7 Q2611.23 1538.7 2614.67 1543.88 Q2618.13 1549.04 2618.13 1558.88 Q2618.13 1568.7 2614.67 1573.88 Q2611.23 1579.04 2604.7 1579.04 Q2598.16 1579.04 2594.7 1573.88 Q2591.26 1568.7 2591.26 1558.88 Q2591.26 1549.04 2594.7 1543.88 Q2598.16 1538.7 2604.7 1538.7 Z" fill="#000000" fill-rule="nonzero" fill-opacity="1" /><path clip-path="url(#clip620)" d="M2631.91 1573.85 L2650.27 1573.85 L2650.27 1578.28 L2625.58 1578.28 L2625.58 1573.85 Q2628.58 1570.75 2633.73 1565.55 Q2638.92 1560.31 2640.24 1558.8 Q2642.77 1555.96 2643.76 1554.01 Q2644.78 1552.03 2644.78 1550.13 Q2644.78 1547.03 2642.59 1545.08 Q2640.43 1543.12 2636.94 1543.12 Q2634.46 1543.12 2631.7 1543.98 Q2628.97 1544.84 2625.84 1546.59 L2625.84 1541.27 Q2629.02 1540 2631.78 1539.35 Q2634.54 1538.7 2636.83 1538.7 Q2642.87 1538.7 2646.47 1541.72 Q2650.06 1544.74 2650.06 1549.79 Q2650.06 1552.19 2649.15 1554.35 Q2648.26 1556.48 2645.89 1559.4 Q2645.24 1560.15 2641.75 1563.77 Q2638.26 1567.37 2631.91 1573.85 Z" fill="#000000" fill-rule="nonzero" fill-opacity="1" /><path clip-path="url(#clip620)" d="M2665.84 1573.85 L2684.2 1573.85 L2684.2 1578.28 L2659.51 1578.28 L2659.51 1573.85 Q2662.51 1570.75 2667.67 1565.55 Q2672.85 1560.31 2674.18 1558.8 Q2676.7 1555.96 2677.69 1554.01 Q2678.71 1552.03 2678.71 1550.13 Q2678.71 1547.03 2676.52 1545.08 Q2674.36 1543.12 2670.87 1543.12 Q2668.39 1543.12 2665.63 1543.98 Q2662.9 1544.84 2659.78 1546.59 L2659.78 1541.27 Q2662.95 1540 2665.71 1539.35 Q2668.47 1538.7 2670.76 1538.7 Q2676.81 1538.7 2680.4 1541.72 Q2683.99 1544.74 2683.99 1549.79 Q2683.99 1552.19 2683.08 1554.35 Q2682.2 1556.48 2679.83 1559.4 Q2679.18 1560.15 2675.69 1563.77 Q2672.2 1567.37 2665.84 1573.85 Z" fill="#000000" fill-rule="nonzero" fill-opacity="1" /><path clip-path="url(#clip620)" d="M2692.14 1561.54 L2706.18 1561.54 L2706.18 1565.81 L2692.14 1565.81 L2692.14 1561.54 Z" fill="#000000" fill-rule="nonzero" fill-opacity="1" /><path clip-path="url(#clip620)" d="M2725.74 1542.86 Q2721.68 1542.86 2719.62 1546.87 Q2717.59 1550.86 2717.59 1558.88 Q2717.59 1566.87 2719.62 1570.88 Q2721.68 1574.87 2725.74 1574.87 Q2729.83 1574.87 2731.86 1570.88 Q2733.92 1566.87 2733.92 1558.88 Q2733.92 1550.86 2731.86 1546.87 Q2729.83 1542.86 2725.74 1542.86 M2725.74 1538.7 Q2732.27 1538.7 2735.71 1543.88 Q2739.18 1549.04 2739.18 1558.88 Q2739.18 1568.7 2735.71 1573.88 Q2732.27 1579.04 2725.74 1579.04 Q2719.2 1579.04 2715.74 1573.88 Q2712.3 1568.7 2712.3 1558.88 Q2712.3 1549.04 2715.74 1543.88 Q2719.2 1538.7 2725.74 1538.7 Z" fill="#000000" fill-rule="nonzero" fill-opacity="1" /><path clip-path="url(#clip620)" d="M2747.09 1539.4 L2772.09 1539.4 L2772.09 1541.64 L2757.98 1578.28 L2752.48 1578.28 L2765.76 1543.83 L2747.09 1543.83 L2747.09 1539.4 Z" fill="#000000" fill-rule="nonzero" fill-opacity="1" /><path clip-path="url(#clip620)" d="M2779.25 1561.54 L2793.29 1561.54 L2793.29 1565.81 L2779.25 1565.81 L2779.25 1561.54 Z" fill="#000000" fill-rule="nonzero" fill-opacity="1" /><path clip-path="url(#clip620)" d="M2806.13 1573.85 L2824.49 1573.85 L2824.49 1578.28 L2799.8 1578.28 L2799.8 1573.85 Q2802.8 1570.75 2807.95 1565.55 Q2813.13 1560.31 2814.46 1558.8 Q2816.99 1555.96 2817.98 1554.01 Q2818.99 1552.03 2818.99 1550.13 Q2818.99 1547.03 2816.81 1545.08 Q2814.64 1543.12 2811.15 1543.12 Q2808.68 1543.12 2805.92 1543.98 Q2803.19 1544.84 2800.06 1546.59 L2800.06 1541.27 Q2803.24 1540 2806 1539.35 Q2808.76 1538.7 2811.05 1538.7 Q2817.09 1538.7 2820.69 1541.72 Q2824.28 1544.74 2824.28 1549.79 Q2824.28 1552.19 2823.37 1554.35 Q2822.48 1556.48 2820.11 1559.4 Q2819.46 1560.15 2815.97 1563.77 Q2812.48 1567.37 2806.13 1573.85 Z" fill="#000000" fill-rule="nonzero" fill-opacity="1" /><path clip-path="url(#clip620)" d="M2849.98 1543.98 L2836.7 1564.74 L2849.98 1564.74 L2849.98 1543.98 M2848.6 1539.4 L2855.22 1539.4 L2855.22 1564.74 L2860.76 1564.74 L2860.76 1569.11 L2855.22 1569.11 L2855.22 1578.28 L2849.98 1578.28 L2849.98 1569.11 L2832.43 1569.11 L2832.43 1564.04 L2848.6 1539.4 Z" fill="#000000" fill-rule="nonzero" fill-opacity="1" /><polyline clip-path="url(#clip622)" style="stroke:#000000; stroke-linecap:round; stroke-linejoin:round; stroke-width:2; stroke-opacity:0.1; fill:none" points="203.67,1277.96 3180.22,1277.96 "/>
<polyline clip-path="url(#clip622)" style="stroke:#000000; stroke-linecap:round; stroke-linejoin:round; stroke-width:2; stroke-opacity:0.1; fill:none" points="203.67,987.445 3180.22,987.445 "/>
<polyline clip-path="url(#clip622)" style="stroke:#000000; stroke-linecap:round; stroke-linejoin:round; stroke-width:2; stroke-opacity:0.1; fill:none" points="203.67,696.928 3180.22,696.928 "/>
<polyline clip-path="url(#clip622)" style="stroke:#000000; stroke-linecap:round; stroke-linejoin:round; stroke-width:2; stroke-opacity:0.1; fill:none" points="203.67,406.41 3180.22,406.41 "/>
<polyline clip-path="url(#clip622)" style="stroke:#000000; stroke-linecap:round; stroke-linejoin:round; stroke-width:2; stroke-opacity:0.1; fill:none" points="203.67,115.893 3180.22,115.893 "/>
<polyline clip-path="url(#clip620)" style="stroke:#000000; stroke-linecap:round; stroke-linejoin:round; stroke-width:4; stroke-opacity:1; fill:none" points="203.67,1497.68 203.67,47.2441 "/>
<polyline clip-path="url(#clip620)" style="stroke:#000000; stroke-linecap:round; stroke-linejoin:round; stroke-width:4; stroke-opacity:1; fill:none" points="203.67,1277.96 218.674,1277.96 "/>
<polyline clip-path="url(#clip620)" style="stroke:#000000; stroke-linecap:round; stroke-linejoin:round; stroke-width:4; stroke-opacity:1; fill:none" points="203.67,987.445 218.674,987.445 "/>
<polyline clip-path="url(#clip620)" style="stroke:#000000; stroke-linecap:round; stroke-linejoin:round; stroke-width:4; stroke-opacity:1; fill:none" points="203.67,696.928 218.674,696.928 "/>
<polyline clip-path="url(#clip620)" style="stroke:#000000; stroke-linecap:round; stroke-linejoin:round; stroke-width:4; stroke-opacity:1; fill:none" points="203.67,406.41 218.674,406.41 "/>
<polyline clip-path="url(#clip620)" style="stroke:#000000; stroke-linecap:round; stroke-linejoin:round; stroke-width:4; stroke-opacity:1; fill:none" points="203.67,115.893 218.674,115.893 "/>
<path clip-path="url(#clip620)" d="M130.702 1275.87 Q127.16 1275.87 125.077 1278.29 Q123.019 1280.71 123.019 1284.93 Q123.019 1289.12 125.077 1291.57 Q127.16 1293.99 130.702 1293.99 Q134.243 1293.99 136.301 1291.57 Q138.384 1289.12 138.384 1284.93 Q138.384 1280.71 136.301 1278.29 Q134.243 1275.87 130.702 1275.87 M141.144 1259.38 L141.144 1264.17 Q139.165 1263.24 137.134 1262.74 Q135.129 1262.25 133.149 1262.25 Q127.941 1262.25 125.181 1265.76 Q122.446 1269.28 122.056 1276.39 Q123.592 1274.12 125.91 1272.92 Q128.228 1271.7 131.014 1271.7 Q136.873 1271.7 140.259 1275.27 Q143.67 1278.81 143.67 1284.93 Q143.67 1290.92 140.129 1294.54 Q136.587 1298.16 130.702 1298.16 Q123.957 1298.16 120.389 1293 Q116.821 1287.82 116.821 1278 Q116.821 1268.78 121.196 1263.31 Q125.571 1257.82 132.941 1257.82 Q134.92 1257.82 136.926 1258.21 Q138.957 1258.6 141.144 1259.38 Z" fill="#000000" fill-rule="nonzero" fill-opacity="1" /><path clip-path="url(#clip620)" d="M130.337 988.421 Q126.587 988.421 124.426 990.426 Q122.29 992.432 122.29 995.947 Q122.29 999.463 124.426 1001.47 Q126.587 1003.47 130.337 1003.47 Q134.087 1003.47 136.248 1001.47 Q138.41 999.437 138.41 995.947 Q138.41 992.432 136.248 990.426 Q134.113 988.421 130.337 988.421 M125.077 986.182 Q121.691 985.348 119.79 983.031 Q117.915 980.713 117.915 977.38 Q117.915 972.718 121.222 970.01 Q124.556 967.302 130.337 967.302 Q136.144 967.302 139.452 970.01 Q142.759 972.718 142.759 977.38 Q142.759 980.713 140.858 983.031 Q138.983 985.348 135.623 986.182 Q139.425 987.067 141.535 989.645 Q143.67 992.223 143.67 995.947 Q143.67 1001.6 140.207 1004.62 Q136.769 1007.64 130.337 1007.64 Q123.905 1007.64 120.441 1004.62 Q117.004 1001.6 117.004 995.947 Q117.004 992.223 119.139 989.645 Q121.275 987.067 125.077 986.182 M123.15 977.874 Q123.15 980.895 125.025 982.588 Q126.926 984.281 130.337 984.281 Q133.722 984.281 135.623 982.588 Q137.55 980.895 137.55 977.874 Q137.55 974.854 135.623 973.161 Q133.722 971.468 130.337 971.468 Q126.926 971.468 125.025 973.161 Q123.15 974.854 123.15 977.874 Z" fill="#000000" fill-rule="nonzero" fill-opacity="1" /><path clip-path="url(#clip620)" d="M85.9622 711.94 L94.5559 711.94 L94.5559 682.279 L85.207 684.154 L85.207 679.363 L94.5039 677.488 L99.7642 677.488 L99.7642 711.94 L108.358 711.94 L108.358 716.368 L85.9622 716.368 L85.9622 711.94 Z" fill="#000000" fill-rule="nonzero" fill-opacity="1" /><path clip-path="url(#clip620)" d="M130.233 680.951 Q126.17 680.951 124.113 684.961 Q122.082 688.946 122.082 696.967 Q122.082 704.961 124.113 708.972 Q126.17 712.956 130.233 712.956 Q134.321 712.956 136.353 708.972 Q138.41 704.961 138.41 696.967 Q138.41 688.946 136.353 684.961 Q134.321 680.951 130.233 680.951 M130.233 676.784 Q136.769 676.784 140.207 681.967 Q143.67 687.123 143.67 696.967 Q143.67 706.784 140.207 711.967 Q136.769 717.123 130.233 717.123 Q123.696 717.123 120.233 711.967 Q116.795 706.784 116.795 696.967 Q116.795 687.123 120.233 681.967 Q123.696 676.784 130.233 676.784 Z" fill="#000000" fill-rule="nonzero" fill-opacity="1" /><path clip-path="url(#clip620)" d="M87.7591 421.423 L96.3528 421.423 L96.3528 391.762 L87.0039 393.637 L87.0039 388.845 L96.3007 386.97 L101.561 386.97 L101.561 421.423 L110.155 421.423 L110.155 425.85 L87.7591 425.85 L87.7591 421.423 Z" fill="#000000" fill-rule="nonzero" fill-opacity="1" /><path clip-path="url(#clip620)" d="M125.311 421.423 L143.67 421.423 L143.67 425.85 L118.983 425.85 L118.983 421.423 Q121.978 418.324 127.134 413.116 Q132.316 407.882 133.644 406.371 Q136.17 403.533 137.16 401.58 Q138.175 399.601 138.175 397.7 Q138.175 394.601 135.988 392.647 Q133.827 390.694 130.337 390.694 Q127.863 390.694 125.103 391.554 Q122.368 392.413 119.243 394.158 L119.243 388.845 Q122.42 387.569 125.181 386.918 Q127.941 386.267 130.233 386.267 Q136.274 386.267 139.868 389.288 Q143.462 392.309 143.462 397.361 Q143.462 399.757 142.55 401.918 Q141.665 404.054 139.295 406.97 Q138.644 407.726 135.155 411.345 Q131.665 414.939 125.311 421.423 Z" fill="#000000" fill-rule="nonzero" fill-opacity="1" /><path clip-path="url(#clip620)" d="M85.4154 130.906 L94.0091 130.906 L94.0091 101.245 L84.6602 103.12 L84.6602 98.3283 L93.957 96.4533 L99.2174 96.4533 L99.2174 130.906 L107.811 130.906 L107.811 135.333 L85.4154 135.333 L85.4154 130.906 Z" fill="#000000" fill-rule="nonzero" fill-opacity="1" /><path clip-path="url(#clip620)" d="M132.889 101.037 L119.608 121.792 L132.889 121.792 L132.889 101.037 M131.509 96.4533 L138.123 96.4533 L138.123 121.792 L143.67 121.792 L143.67 126.167 L138.123 126.167 L138.123 135.333 L132.889 135.333 L132.889 126.167 L115.337 126.167 L115.337 121.089 L131.509 96.4533 Z" fill="#000000" fill-rule="nonzero" fill-opacity="1" /><path clip-path="url(#clip620)" d="M-31.4998 930.013 L-31.4998 924.168 L11.7002 924.168 L11.7002 930.013 L-31.4998 930.013 Z" fill="#000000" fill-rule="nonzero" fill-opacity="1" /><path clip-path="url(#clip620)" d="M-7.85992 885.829 L11.7002 885.829 L11.7002 891.153 L-7.68631 891.153 Q-12.287 891.153 -14.5728 892.947 Q-16.8587 894.741 -16.8587 898.329 Q-16.8587 902.641 -14.1099 905.129 Q-11.3611 907.618 -6.61572 907.618 L11.7002 907.618 L11.7002 912.97 L-20.7071 912.97 L-20.7071 907.618 L-15.6724 907.618 Q-18.5948 905.708 -20.0416 903.133 Q-21.4883 900.528 -21.4883 897.143 Q-21.4883 891.559 -18.0161 888.694 Q-14.5728 885.829 -7.85992 885.829 Z" fill="#000000" fill-rule="nonzero" fill-opacity="1" /><path clip-path="url(#clip620)" d="M-33.3227 858.804 L-28.8957 858.804 L-28.8957 863.897 Q-28.8957 866.761 -27.7383 867.89 Q-26.5809 868.989 -23.5716 868.989 L-20.7071 868.989 L-20.7071 860.222 L-16.5694 860.222 L-16.5694 868.989 L11.7002 868.989 L11.7002 874.342 L-16.5694 874.342 L-16.5694 879.435 L-20.7071 879.435 L-20.7071 874.342 L-22.964 874.342 Q-28.3749 874.342 -30.8343 871.825 Q-33.3227 869.308 -33.3227 863.839 L-33.3227 858.804 Z" fill="#000000" fill-rule="nonzero" fill-opacity="1" /><path clip-path="url(#clip620)" d="M-33.3227 854.348 L-33.3227 849.024 L11.7002 849.024 L11.7002 854.348 L-33.3227 854.348 Z" fill="#000000" fill-rule="nonzero" fill-opacity="1" /><path clip-path="url(#clip620)" d="M-16.9745 825.326 Q-16.9745 829.609 -13.618 832.097 Q-10.2905 834.585 -4.47452 834.585 Q1.34142 834.585 4.69788 832.126 Q8.02541 829.638 8.02541 825.326 Q8.02541 821.073 4.66895 818.584 Q1.31248 816.096 -4.47452 816.096 Q-10.2326 816.096 -13.5891 818.584 Q-16.9745 821.073 -16.9745 825.326 M-21.4883 825.326 Q-21.4883 818.382 -16.9745 814.418 Q-12.4606 810.454 -4.47452 810.454 Q3.48261 810.454 8.02541 814.418 Q12.5393 818.382 12.5393 825.326 Q12.5393 832.3 8.02541 836.264 Q3.48261 840.199 -4.47452 840.199 Q-12.4606 840.199 -16.9745 836.264 Q-21.4883 832.3 -21.4883 825.326 Z" fill="#000000" fill-rule="nonzero" fill-opacity="1" /><path clip-path="url(#clip620)" d="M-20.7071 804.725 L-20.7071 799.4 L4.58214 792.745 L-20.7071 786.119 L-20.7071 779.84 L4.58214 773.185 L-20.7071 766.559 L-20.7071 761.235 L11.7002 769.713 L11.7002 775.992 L-14.8622 782.965 L11.7002 789.968 L11.7002 796.247 L-20.7071 804.725 Z" fill="#000000" fill-rule="nonzero" fill-opacity="1" /><path clip-path="url(#clip620)" d="M-33.3227 734.818 L-33.3227 722.549 L-29.185 722.549 L-29.185 729.493 L15.3749 729.493 L15.3749 722.549 L19.5126 722.549 L19.5126 734.818 L-33.3227 734.818 Z" fill="#000000" fill-rule="nonzero" fill-opacity="1" /><path clip-path="url(#clip620)" d="M-31.4998 710.975 L-31.4998 705.13 L6.7812 705.13 L6.7812 684.094 L11.7002 684.094 L11.7002 710.975 L-31.4998 710.975 Z" fill="#000000" fill-rule="nonzero" fill-opacity="1" /><path clip-path="url(#clip620)" d="M-31.4998 668.73 L-31.4998 663.811 L17.1978 678.857 L17.1978 683.776 L-31.4998 668.73 Z" fill="#000000" fill-rule="nonzero" fill-opacity="1" /><path clip-path="url(#clip620)" d="M-19.7522 637.567 L-14.7175 637.567 Q-15.8749 639.824 -16.4536 642.254 Q-17.0323 644.685 -17.0323 647.289 Q-17.0323 651.253 -15.8171 653.25 Q-14.6018 655.217 -12.1712 655.217 Q-10.3194 655.217 -9.2488 653.799 Q-8.20714 652.382 -7.25229 648.099 L-6.8472 646.276 Q-5.63193 640.605 -3.40393 638.232 Q-1.20487 635.831 2.75923 635.831 Q7.2731 635.831 9.90619 639.419 Q12.5393 642.978 12.5393 649.228 Q12.5393 651.832 12.0184 654.667 Q11.5265 657.474 10.5138 660.599 L5.01617 660.599 Q6.54972 657.648 7.33097 654.783 Q8.08328 651.919 8.08328 649.112 Q8.08328 645.35 6.81014 643.325 Q5.50806 641.299 3.16432 641.299 Q0.994196 641.299 -0.163205 642.775 Q-1.32061 644.222 -2.3912 649.17 L-2.82523 651.022 Q-3.86689 655.97 -6.00808 658.169 Q-8.17821 660.368 -11.9398 660.368 Q-16.5115 660.368 -18.9999 657.127 Q-21.4883 653.886 -21.4883 647.926 Q-21.4883 644.974 -21.0543 642.37 Q-20.6203 639.766 -19.7522 637.567 Z" fill="#000000" fill-rule="nonzero" fill-opacity="1" /><path clip-path="url(#clip620)" d="M-33.3227 614.911 L19.5126 614.911 L19.5126 627.179 L15.3749 627.179 L15.3749 620.264 L-29.185 620.264 L-29.185 627.179 L-33.3227 627.179 L-33.3227 614.911 Z" fill="#000000" fill-rule="nonzero" fill-opacity="1" /><polyline clip-path="url(#clip622)" style="stroke:#023eff; stroke-linecap:round; stroke-linejoin:round; stroke-width:5; stroke-opacity:1; fill:none" points="287.912,1190.74 304.727,1359.89 321.542,1359.89 338.357,1359.89 355.171,1359.89 371.986,1359.89 388.801,1260.72 405.616,1056.95 422.431,936.763 439.245,731.004 456.06,936.763 472.875,1056.95 489.69,1056.95 506.504,1056.95 523.319,1056.95 540.134,1056.95 556.949,936.763 573.764,731.004 590.578,936.763 607.393,1056.95 624.208,731.004 641.023,1056.95 657.838,1056.95 674.652,1056.95 691.467,1283.34 708.282,1266.68 725.097,1283.34 741.911,1283.34 758.726,1283.34 775.541,1266.68 792.356,1019.83 809.171,847.415 825.985,847.415 842.8,847.415 859.615,847.415 876.43,847.415 893.244,847.415 910.059,1195.84 926.874,847.415 943.689,1185.83 960.504,1019.83 977.318,847.415 994.133,847.415 1010.95,847.415 1027.76,847.415 1044.58,1019.83 1061.39,847.415 1078.21,1185.83 1095.02,1455.97 1111.84,1283.34 1128.65,1283.34 1145.47,1455.97 1162.28,1455.97 1179.1,1283.34 1195.91,1283.34 1212.73,847.415 1229.54,847.415 1246.35,847.415 1263.17,1019.83 1279.98,1019.83 1296.8,1019.83 1313.61,847.415 1330.43,1019.83 1347.24,1019.83 1364.06,847.415 1380.87,1019.83 1397.69,847.415 1414.5,847.415 1431.32,847.415 1448.13,847.415 1464.95,1019.83 1481.76,1096.56 1498.58,1283.34 1515.39,1283.34 1532.21,1283.34 1549.02,1283.34 1565.84,1283.34 1582.65,1283.34 1599.47,1096.56 1616.28,847.415 1633.09,847.415 1649.91,847.415 1666.72,847.415 1683.54,847.415 1700.35,1019.83 1717.17,847.415 1733.98,1185.83 1750.8,1019.83 1767.61,1185.83 1784.43,847.415 1801.24,1019.83 1818.06,1019.83 1834.87,1019.83 1851.69,1019.83 1868.5,1019.83 1885.32,1185.83 1902.13,1283.34 1918.95,1455.97 1935.76,1455.97 1952.58,1455.97 1969.39,1283.34 1986.21,1283.34 2003.02,1096.56 2019.83,1019.83 2036.65,847.415 2053.46,1019.83 2070.28,1019.83 2087.09,1019.83 2103.91,1019.83 2120.72,847.415 2137.54,1096.56 2154.35,1096.56 2171.17,1019.83 2187.98,1019.83 2204.8,1096.56 2221.61,847.415 2238.43,1019.83 2255.24,1096.56 2272.06,1096.56 2288.87,1096.56 2305.69,1283.34 2322.5,1283.34 2339.32,1283.34 2356.13,1283.34 2372.95,1283.34 2389.76,1283.34 2406.57,1096.56 2423.39,847.415 2440.2,847.415 2457.02,847.415 2473.83,847.415 2490.65,1096.56 2507.46,1019.83 2524.28,1096.56 2541.09,1019.83 2557.91,847.415 2574.72,847.415 2591.54,847.415 2608.35,847.415 2625.17,847.415 2641.98,1019.83 2658.8,1096.56 2675.61,1096.56 2692.43,1096.56 2709.24,1266.68 2726.06,1283.34 2742.87,1283.34 2759.69,1283.34 2776.5,1224.19 2793.31,1283.34 2810.13,1283.34 2826.94,1096.56 2843.76,847.415 2860.57,847.415 2877.39,847.415 2894.2,1096.56 2911.02,1019.83 2927.83,1096.56 2944.65,1096.56 2961.46,1096.56 2978.28,1019.83 2995.09,847.415 3011.91,1019.83 3028.72,1019.83 3045.54,1019.83 3062.35,1096.56 3079.17,1185.83 3095.98,1185.83 "/>
<polyline clip-path="url(#clip622)" style="stroke:#ff7c00; stroke-linecap:round; stroke-linejoin:round; stroke-width:5; stroke-opacity:1; fill:none" points="287.912,1264.6 304.727,1225.51 321.542,1225.51 338.357,1225.51 355.171,1225.51 371.986,1225.51 388.801,882.176 405.616,608.713 422.431,805.921 439.245,608.713 456.06,895.948 472.875,882.176 489.69,882.176 506.504,882.176 523.319,819.57 540.134,882.176 556.949,895.948 573.764,819.57 590.578,895.948 607.393,819.57 624.208,819.57 641.023,1011.89 657.838,1011.89 674.652,1011.89 691.467,1225.21 708.282,1225.21 725.097,1225.21 741.911,1225.21 758.726,1225.21 775.541,1225.21 792.356,960.896 809.171,413.38 825.985,709.032 842.8,709.032 859.615,709.032 876.43,709.032 893.244,903.003 910.059,903.003 926.874,903.003 943.689,903.003 960.504,903.003 977.318,709.032 994.133,709.032 1010.95,709.032 1027.76,709.032 1044.58,903.003 1061.39,709.032 1078.21,1069.01 1095.02,1225.21 1111.84,1225.21 1128.65,1225.21 1145.47,1225.21 1162.28,1225.21 1179.1,1225.21 1195.91,960.896 1212.73,903.003 1229.54,709.032 1246.35,903.003 1263.17,903.003 1279.98,903.003 1296.8,903.003 1313.61,709.032 1330.43,903.003 1347.24,903.003 1364.06,709.032 1380.87,903.003 1397.69,903.003 1414.5,903.003 1431.32,709.032 1448.13,903.003 1464.95,1069.01 1481.76,1069.01 1498.58,1225.21 1515.39,1225.21 1532.21,1225.21 1549.02,1225.21 1565.84,1225.21 1582.65,1225.21 1599.47,960.896 1616.28,413.38 1633.09,709.032 1649.91,709.032 1666.72,709.032 1683.54,709.032 1700.35,903.003 1717.17,903.003 1733.98,903.003 1750.8,903.003 1767.61,903.003 1784.43,709.032 1801.24,903.003 1818.06,903.003 1834.87,903.003 1851.69,903.003 1868.5,1069.01 1885.32,1069.01 1902.13,1225.21 1918.95,1225.21 1935.76,1225.21 1952.58,1225.21 1969.39,1225.21 1986.21,1225.21 2003.02,960.896 2019.83,903.003 2036.65,709.032 2053.46,903.003 2070.28,903.003 2087.09,903.003 2103.91,903.003 2120.72,903.003 2137.54,903.003 2154.35,903.003 2171.17,903.003 2187.98,903.003 2204.8,903.003 2221.61,709.032 2238.43,903.003 2255.24,903.003 2272.06,1069.01 2288.87,1069.01 2305.69,1225.21 2322.5,1225.21 2339.32,1225.21 2356.13,1225.21 2372.95,1225.21 2389.76,1225.21 2406.57,960.896 2423.39,568.371 2440.2,568.371 2457.02,568.371 2473.83,903.003 2490.65,903.003 2507.46,903.003 2524.28,903.003 2541.09,903.003 2557.91,903.003 2574.72,903.003 2591.54,903.003 2608.35,903.003 2625.17,745.175 2641.98,903.003 2658.8,903.003 2675.61,1069.01 2692.43,1069.01 2709.24,1225.21 2726.06,1225.21 2742.87,1225.21 2759.69,1225.21 2776.5,1225.21 2793.31,1225.21 2810.13,960.896 2826.94,903.003 2843.76,568.371 2860.57,568.371 2877.39,568.371 2894.2,903.003 2911.02,903.003 2927.83,903.003 2944.65,903.003 2961.46,903.003 2978.28,903.003 2995.09,903.003 3011.91,903.003 3028.72,903.003 3045.54,903.003 3062.35,903.003 3079.17,1069.01 3095.98,1069.01 "/>
<polyline clip-path="url(#clip622)" style="stroke:#1ac938; stroke-linecap:round; stroke-linejoin:round; stroke-width:5; stroke-opacity:1; fill:none" points="287.912,1290.45 304.727,1245.43 321.542,1245.43 338.357,1245.43 355.171,1245.43 371.986,1245.43 388.801,1005.48 405.616,1005.48 422.431,892.357 439.245,756.985 456.06,892.357 472.875,1005.48 489.69,1005.48 506.504,1005.48 523.319,1005.48 540.134,1005.48 556.949,892.357 573.764,892.357 590.578,892.357 607.393,756.985 624.208,756.985 641.023,1005.48 657.838,1005.48 674.652,1005.48 691.467,1245.43 708.282,1245.43 725.097,1245.43 741.911,1245.43 758.726,1245.43 775.541,1245.43 792.356,998.495 809.171,334.053 825.985,711.496 842.8,711.496 859.615,711.496 876.43,711.496 893.244,878.277 910.059,878.277 926.874,878.277 943.689,878.277 960.504,878.277 977.318,878.277 994.133,878.277 1010.95,878.277 1027.76,878.277 1044.58,1047.47 1061.39,1047.47 1078.21,1047.47 1095.02,1245.43 1111.84,1245.43 1128.65,1245.43 1145.47,1245.43 1162.28,1245.43 1179.1,1245.43 1195.91,998.495 1212.73,334.053 1229.54,711.496 1246.35,711.496 1263.17,711.496 1279.98,711.496 1296.8,878.277 1313.61,878.277 1330.43,878.277 1347.24,878.277 1364.06,878.277 1380.87,878.277 1397.69,878.277 1414.5,878.277 1431.32,878.277 1448.13,1047.47 1464.95,1047.47 1481.76,1047.47 1498.58,1245.43 1515.39,1245.43 1532.21,1245.43 1549.02,1245.43 1565.84,1245.43 1582.65,1245.43 1599.47,998.495 1616.28,334.053 1633.09,711.496 1649.91,711.496 1666.72,711.496 1683.54,711.496 1700.35,878.277 1717.17,878.277 1733.98,878.277 1750.8,878.277 1767.61,878.277 1784.43,878.277 1801.24,878.277 1818.06,878.277 1834.87,878.277 1851.69,1047.47 1868.5,1047.47 1885.32,1047.47 1902.13,1245.43 1918.95,1245.43 1935.76,1245.43 1952.58,1245.43 1969.39,1245.43 1986.21,1245.43 2003.02,998.495 2019.83,764.594 2036.65,711.496 2053.46,711.496 2070.28,711.496 2087.09,711.496 2103.91,878.277 2120.72,878.277 2137.54,878.277 2154.35,878.277 2171.17,878.277 2187.98,878.277 2204.8,878.277 2221.61,878.277 2238.43,878.277 2255.24,1047.47 2272.06,1047.47 2288.87,1047.47 2305.69,1245.43 2322.5,1245.43 2339.32,1245.43 2356.13,1245.43 2372.95,1245.43 2389.76,1245.43 2406.57,998.495 2423.39,764.594 2440.2,711.496 2457.02,711.496 2473.83,711.496 2490.65,711.496 2507.46,878.277 2524.28,878.277 2541.09,878.277 2557.91,878.277 2574.72,878.277 2591.54,878.277 2608.35,878.277 2625.17,878.277 2641.98,878.277 2658.8,1047.47 2675.61,1047.47 2692.43,1047.47 2709.24,1245.43 2726.06,1245.43 2742.87,1245.43 2759.69,1245.43 2776.5,1245.43 2793.31,1245.43 2810.13,998.495 2826.94,764.594 2843.76,711.496 2860.57,711.496 2877.39,711.496 2894.2,711.496 2911.02,878.277 2927.83,878.277 2944.65,878.277 2961.46,878.277 2978.28,878.277 2995.09,878.277 3011.91,878.277 3028.72,878.277 3045.54,878.277 3062.35,1047.47 3079.17,1047.47 3095.98,1047.47 "/>
<polyline clip-path="url(#clip622)" style="stroke:#e8000b; stroke-linecap:round; stroke-linejoin:round; stroke-width:5; stroke-opacity:1; fill:none" points="287.912,1266.01 304.727,1266.01 321.542,1266.01 338.357,1266.01 355.171,1266.01 371.986,1266.01 388.801,1266.01 405.616,680.275 422.431,680.275 439.245,680.275 456.06,680.275 472.875,933.319 489.69,933.319 506.504,933.319 523.319,933.319 540.134,933.319 556.949,933.319 573.764,933.319 590.578,933.319 607.393,933.319 624.208,933.319 641.023,933.319 657.838,933.319 674.652,933.319 691.467,1266.01 708.282,1266.01 725.097,1266.01 741.911,1266.01 758.726,1266.01 775.541,1266.01 792.356,1266.01 809.171,680.275 825.985,680.275 842.8,680.275 859.615,680.275 876.43,361.864 893.244,933.319 910.059,933.319 926.874,933.319 943.689,933.319 960.504,933.319 977.318,361.864 994.133,361.864 1010.95,933.319 1027.76,933.319 1044.58,933.319 1061.39,933.319 1078.21,933.319 1095.02,1266.01 1111.84,1266.01 1128.65,1266.01 1145.47,1266.01 1162.28,1266.01 1179.1,1266.01 1195.91,1266.01 1212.73,680.275 1229.54,680.275 1246.35,680.275 1263.17,680.275 1279.98,933.319 1296.8,933.319 1313.61,933.319 1330.43,933.319 1347.24,933.319 1364.06,933.319 1380.87,933.319 1397.69,933.319 1414.5,933.319 1431.32,933.319 1448.13,933.319 1464.95,933.319 1481.76,933.319 1498.58,1266.01 1515.39,1266.01 1532.21,1266.01 1549.02,1266.01 1565.84,1266.01 1582.65,1266.01 1599.47,1266.01 1616.28,680.275 1633.09,680.275 1649.91,680.275 1666.72,680.275 1683.54,933.319 1700.35,933.319 1717.17,933.319 1733.98,933.319 1750.8,933.319 1767.61,933.319 1784.43,933.319 1801.24,933.319 1818.06,933.319 1834.87,933.319 1851.69,933.319 1868.5,933.319 1885.32,933.319 1902.13,1266.01 1918.95,1266.01 1935.76,1266.01 1952.58,1266.01 1969.39,1266.01 1986.21,1266.01 2003.02,1266.01 2019.83,680.275 2036.65,680.275 2053.46,680.275 2070.28,680.275 2087.09,933.319 2103.91,933.319 2120.72,933.319 2137.54,933.319 2154.35,933.319 2171.17,933.319 2187.98,933.319 2204.8,933.319 2221.61,933.319 2238.43,933.319 2255.24,933.319 2272.06,933.319 2288.87,933.319 2305.69,1266.01 2322.5,1266.01 2339.32,1266.01 2356.13,1266.01 2372.95,1266.01 2389.76,1266.01 2406.57,1266.01 2423.39,680.275 2440.2,680.275 2457.02,680.275 2473.83,680.275 2490.65,933.319 2507.46,933.319 2524.28,933.319 2541.09,933.319 2557.91,933.319 2574.72,933.319 2591.54,933.319 2608.35,933.319 2625.17,933.319 2641.98,933.319 2658.8,933.319 2675.61,933.319 2692.43,933.319 2709.24,1266.01 2726.06,1266.01 2742.87,1266.01 2759.69,1266.01 2776.5,1266.01 2793.31,1266.01 2810.13,1266.01 2826.94,680.275 2843.76,680.275 2860.57,680.275 2877.39,680.275 2894.2,933.319 2911.02,933.319 2927.83,933.319 2944.65,933.319 2961.46,933.319 2978.28,933.319 2995.09,933.319 3011.91,933.319 3028.72,933.319 3045.54,933.319 3062.35,933.319 3079.17,933.319 3095.98,933.319 "/>
<polyline clip-path="url(#clip622)" style="stroke:#000000; stroke-linecap:round; stroke-linejoin:round; stroke-width:6; stroke-opacity:1; fill:none" points="287.912,1456.63 304.727,1408.69 321.542,1354.95 338.357,1354.95 355.171,1283.77 371.986,1113.82 388.801,1052.81 405.616,502.281 422.431,718.716 439.245,708.548 456.06,628.656 472.875,734.695 489.69,875.596 506.504,865.427 523.319,919.173 540.134,1103.65 556.949,1216.95 573.764,920.626 590.578,846.544 607.393,1029.57 624.208,961.298 641.023,1060.07 657.838,1068.79 674.652,1128.35 691.467,1244.55 708.282,1202.43 725.097,1160.3 741.911,1094.94 758.726,1189.35 775.541,1187.9 792.356,1038.29 809.171,769.557 825.985,455.798 842.8,872.69 859.615,940.962 876.43,269.867 893.244,830.565 910.059,1109.46 926.874,843.639 943.689,936.604 960.504,826.208 977.318,756.484 994.133,88.2942 1010.95,368.643 1027.76,371.548 1044.58,476.135 1061.39,477.587 1078.21,955.488 1095.02,1160.3 1111.84,1292.49 1128.65,1109.46 1145.47,1170.47 1162.28,1173.38 1179.1,1256.17 1195.91,1023.76 1212.73,603.962 1229.54,906.1 1246.35,824.755 1263.17,955.488 1279.98,1126.89 1296.8,983.087 1313.61,744.863 1330.43,839.281 1347.24,884.311 1364.06,891.574 1380.87,667.876 1397.69,515.354 1414.5,377.359 1431.32,759.389 1448.13,846.544 1464.95,1142.87 1481.76,1128.35 1498.58,1209.69 1515.39,1353.5 1532.21,1298.3 1549.02,1211.14 1565.84,1276.51 1582.65,1161.75 1599.47,917.721 1616.28,669.328 1633.09,874.143 1649.91,997.613 1666.72,891.574 1683.54,878.501 1700.35,1001.97 1717.17,824.755 1733.98,975.824 1750.8,827.66 1767.61,855.259 1784.43,943.867 1801.24,853.807 1818.06,1052.81 1834.87,650.445 1851.69,940.962 1868.5,1007.78 1885.32,1221.31 1902.13,1247.46 1918.95,1224.22 1935.76,1360.76 1952.58,1283.77 1969.39,1157.4 1986.21,1206.79 2003.02,858.165 2019.83,646.087 2036.65,311.992 2053.46,1064.43 2070.28,434.01 2087.09,1016.5 2103.91,576.363 2120.72,771.009 2137.54,1019.4 2154.35,891.574 2171.17,919.173 2187.98,736.147 2204.8,945.32 2221.61,895.932 2238.43,877.048 2255.24,938.057 2272.06,1084.77 2288.87,1192.26 2305.69,1177.73 2322.5,1349.14 2339.32,1312.82 2356.13,1263.44 2372.95,1283.77 2389.76,1273.6 2406.57,862.522 2423.39,866.88 2440.2,705.643 2457.02,772.462 2473.83,827.66 2490.65,631.561 2507.46,929.341 2524.28,1038.29 2541.09,804.419 2557.91,1065.88 2574.72,1044.1 2591.54,936.604 2608.35,694.022 2625.17,984.539 2641.98,930.794 2658.8,1015.04 2675.61,1026.66 2692.43,1137.06 2709.24,1336.07 2726.06,1240.19 2742.87,1341.88 2759.69,1302.66 2776.5,1359.31 2793.31,1352.04 2810.13,1256.17 2826.94,1084.77 2843.76,1100.75 2860.57,936.604 2877.39,845.091 2894.2,730.337 2911.02,881.406 2927.83,791.346 2944.65,872.69 2961.46,1119.63 2978.28,1092.03 2995.09,1153.04 3011.91,1017.95 3028.72,939.509 3045.54,678.044 3062.35,964.203 3079.17,781.177 3095.98,1125.44 "/>
<path clip-path="url(#clip620)" d="M3305.19 445.512 L3952.76 445.512 L3952.76 95.592 L3305.19 95.592  Z" fill="#ffffff" fill-rule="evenodd" fill-opacity="1"/>
<polyline clip-path="url(#clip620)" style="stroke:#000000; stroke-linecap:round; stroke-linejoin:round; stroke-width:4; stroke-opacity:1; fill:none" points="3305.19,445.512 3952.76,445.512 3952.76,95.592 3305.19,95.592 3305.19,445.512 "/>
<polyline clip-path="url(#clip620)" style="stroke:#023eff; stroke-linecap:round; stroke-linejoin:round; stroke-width:5.625; stroke-opacity:1; fill:none" points="3346.85,153.912 3596.79,153.912 "/>
<path clip-path="url(#clip620)" d="M3643.26 168.977 L3643.26 184.446 L3638.44 184.446 L3638.44 144.185 L3643.26 144.185 L3643.26 148.613 Q3644.77 146.008 3647.06 144.758 Q3649.38 143.482 3652.59 143.482 Q3657.9 143.482 3661.2 147.701 Q3664.54 151.92 3664.54 158.795 Q3664.54 165.67 3661.2 169.888 Q3657.9 174.107 3652.59 174.107 Q3649.38 174.107 3647.06 172.857 Q3644.77 171.581 3643.26 168.977 M3659.56 158.795 Q3659.56 153.508 3657.38 150.514 Q3655.22 147.493 3651.41 147.493 Q3647.61 147.493 3645.42 150.514 Q3643.26 153.508 3643.26 158.795 Q3643.26 164.081 3645.42 167.102 Q3647.61 170.097 3651.41 170.097 Q3655.22 170.097 3657.38 167.102 Q3659.56 164.081 3659.56 158.795 Z" fill="#000000" fill-rule="nonzero" fill-opacity="1" /><path clip-path="url(#clip620)" d="M3689.38 148.665 Q3688.57 148.196 3687.61 147.988 Q3686.67 147.753 3685.53 147.753 Q3681.47 147.753 3679.28 150.409 Q3677.12 153.04 3677.12 157.987 L3677.12 173.352 L3672.3 173.352 L3672.3 144.185 L3677.12 144.185 L3677.12 148.717 Q3678.63 146.06 3681.05 144.784 Q3683.47 143.482 3686.93 143.482 Q3687.43 143.482 3688.03 143.56 Q3688.63 143.613 3689.36 143.743 L3689.38 148.665 Z" fill="#000000" fill-rule="nonzero" fill-opacity="1" /><path clip-path="url(#clip620)" d="M3718.18 157.571 L3718.18 159.915 L3696.15 159.915 Q3696.47 164.862 3699.12 167.467 Q3701.8 170.045 3706.57 170.045 Q3709.33 170.045 3711.91 169.368 Q3714.51 168.691 3717.06 167.336 L3717.06 171.868 Q3714.49 172.961 3711.78 173.534 Q3709.07 174.107 3706.28 174.107 Q3699.3 174.107 3695.22 170.045 Q3691.15 165.982 3691.15 159.055 Q3691.15 151.894 3695.01 147.701 Q3698.89 143.482 3705.45 143.482 Q3711.33 143.482 3714.75 147.284 Q3718.18 151.06 3718.18 157.571 M3713.39 156.165 Q3713.34 152.232 3711.18 149.889 Q3709.04 147.545 3705.5 147.545 Q3701.49 147.545 3699.07 149.81 Q3696.67 152.076 3696.31 156.191 L3713.39 156.165 Z" fill="#000000" fill-rule="nonzero" fill-opacity="1" /><path clip-path="url(#clip620)" d="M3745.24 148.613 L3745.24 132.831 L3750.03 132.831 L3750.03 173.352 L3745.24 173.352 L3745.24 168.977 Q3743.73 171.581 3741.41 172.857 Q3739.12 174.107 3735.89 174.107 Q3730.61 174.107 3727.27 169.888 Q3723.96 165.67 3723.96 158.795 Q3723.96 151.92 3727.27 147.701 Q3730.61 143.482 3735.89 143.482 Q3739.12 143.482 3741.41 144.758 Q3743.73 146.008 3745.24 148.613 M3728.91 158.795 Q3728.91 164.081 3731.07 167.102 Q3733.26 170.097 3737.06 170.097 Q3740.87 170.097 3743.05 167.102 Q3745.24 164.081 3745.24 158.795 Q3745.24 153.508 3743.05 150.514 Q3740.87 147.493 3737.06 147.493 Q3733.26 147.493 3731.07 150.514 Q3728.91 153.508 3728.91 158.795 Z" fill="#000000" fill-rule="nonzero" fill-opacity="1" /><path clip-path="url(#clip620)" d="M3759.9 144.185 L3764.69 144.185 L3764.69 173.352 L3759.9 173.352 L3759.9 144.185 M3759.9 132.831 L3764.69 132.831 L3764.69 138.899 L3759.9 138.899 L3759.9 132.831 Z" fill="#000000" fill-rule="nonzero" fill-opacity="1" /><path clip-path="url(#clip620)" d="M3795.71 145.305 L3795.71 149.784 Q3793.68 148.665 3791.62 148.118 Q3789.59 147.545 3787.51 147.545 Q3782.84 147.545 3780.27 150.514 Q3777.69 153.456 3777.69 158.795 Q3777.69 164.133 3780.27 167.102 Q3782.84 170.045 3787.51 170.045 Q3789.59 170.045 3791.62 169.498 Q3793.68 168.925 3795.71 167.805 L3795.71 172.232 Q3793.7 173.17 3791.54 173.638 Q3789.41 174.107 3786.99 174.107 Q3780.4 174.107 3776.52 169.967 Q3772.64 165.826 3772.64 158.795 Q3772.64 151.659 3776.54 147.571 Q3780.48 143.482 3787.3 143.482 Q3789.51 143.482 3791.62 143.951 Q3793.73 144.394 3795.71 145.305 Z" fill="#000000" fill-rule="nonzero" fill-opacity="1" /><path clip-path="url(#clip620)" d="M3808.78 135.904 L3808.78 144.185 L3818.65 144.185 L3818.65 147.909 L3808.78 147.909 L3808.78 163.743 Q3808.78 167.31 3809.75 168.326 Q3810.74 169.342 3813.73 169.342 L3818.65 169.342 L3818.65 173.352 L3813.73 173.352 Q3808.18 173.352 3806.07 171.295 Q3803.96 169.211 3803.96 163.743 L3803.96 147.909 L3800.45 147.909 L3800.45 144.185 L3803.96 144.185 L3803.96 135.904 L3808.78 135.904 Z" fill="#000000" fill-rule="nonzero" fill-opacity="1" /><path clip-path="url(#clip620)" d="M3847.12 182.206 L3847.12 185.93 L3819.41 185.93 L3819.41 182.206 L3847.12 182.206 Z" fill="#000000" fill-rule="nonzero" fill-opacity="1" /><path clip-path="url(#clip620)" d="M3852.35 134.472 L3873 134.472 L3873 138.899 L3857.17 138.899 L3857.17 148.43 Q3858.31 148.04 3859.46 147.857 Q3860.6 147.649 3861.75 147.649 Q3868.26 147.649 3872.06 151.217 Q3875.87 154.784 3875.87 160.878 Q3875.87 167.154 3871.96 170.644 Q3868.05 174.107 3860.94 174.107 Q3858.5 174.107 3855.94 173.69 Q3853.42 173.274 3850.71 172.441 L3850.71 167.154 Q3853.05 168.43 3855.55 169.055 Q3858.05 169.68 3860.84 169.68 Q3865.34 169.68 3867.97 167.31 Q3870.6 164.941 3870.6 160.878 Q3870.6 156.816 3867.97 154.446 Q3865.34 152.076 3860.84 152.076 Q3858.73 152.076 3856.62 152.545 Q3854.54 153.014 3852.35 154.003 L3852.35 134.472 Z" fill="#000000" fill-rule="nonzero" fill-opacity="1" /><path clip-path="url(#clip620)" d="M3890.76 168.925 L3909.12 168.925 L3909.12 173.352 L3884.43 173.352 L3884.43 168.925 Q3887.43 165.826 3892.58 160.618 Q3897.77 155.383 3899.09 153.873 Q3901.62 151.034 3902.61 149.081 Q3903.63 147.102 3903.63 145.201 Q3903.63 142.102 3901.44 140.149 Q3899.28 138.196 3895.79 138.196 Q3893.31 138.196 3890.55 139.055 Q3887.82 139.915 3884.69 141.659 L3884.69 136.347 Q3887.87 135.071 3890.63 134.42 Q3893.39 133.769 3895.68 133.769 Q3901.72 133.769 3905.32 136.79 Q3908.91 139.81 3908.91 144.863 Q3908.91 147.258 3908 149.42 Q3907.12 151.555 3904.75 154.472 Q3904.09 155.227 3900.6 158.847 Q3897.12 162.441 3890.76 168.925 Z" fill="#000000" fill-rule="nonzero" fill-opacity="1" /><polyline clip-path="url(#clip620)" style="stroke:#ff7c00; stroke-linecap:round; stroke-linejoin:round; stroke-width:5.625; stroke-opacity:1; fill:none" points="3346.85,212.232 3596.79,212.232 "/>
<path clip-path="url(#clip620)" d="M3643.26 227.297 L3643.26 242.766 L3638.44 242.766 L3638.44 202.505 L3643.26 202.505 L3643.26 206.933 Q3644.77 204.328 3647.06 203.078 Q3649.38 201.802 3652.59 201.802 Q3657.9 201.802 3661.2 206.021 Q3664.54 210.24 3664.54 217.115 Q3664.54 223.99 3661.2 228.208 Q3657.9 232.427 3652.59 232.427 Q3649.38 232.427 3647.06 231.177 Q3644.77 229.901 3643.26 227.297 M3659.56 217.115 Q3659.56 211.828 3657.38 208.834 Q3655.22 205.813 3651.41 205.813 Q3647.61 205.813 3645.42 208.834 Q3643.26 211.828 3643.26 217.115 Q3643.26 222.401 3645.42 225.422 Q3647.61 228.417 3651.41 228.417 Q3655.22 228.417 3657.38 225.422 Q3659.56 222.401 3659.56 217.115 Z" fill="#000000" fill-rule="nonzero" fill-opacity="1" /><path clip-path="url(#clip620)" d="M3689.38 206.985 Q3688.57 206.516 3687.61 206.308 Q3686.67 206.073 3685.53 206.073 Q3681.47 206.073 3679.28 208.729 Q3677.12 211.36 3677.12 216.307 L3677.12 231.672 L3672.3 231.672 L3672.3 202.505 L3677.12 202.505 L3677.12 207.037 Q3678.63 204.38 3681.05 203.104 Q3683.47 201.802 3686.93 201.802 Q3687.43 201.802 3688.03 201.88 Q3688.63 201.933 3689.36 202.063 L3689.38 206.985 Z" fill="#000000" fill-rule="nonzero" fill-opacity="1" /><path clip-path="url(#clip620)" d="M3718.18 215.891 L3718.18 218.235 L3696.15 218.235 Q3696.47 223.182 3699.12 225.787 Q3701.8 228.365 3706.57 228.365 Q3709.33 228.365 3711.91 227.688 Q3714.51 227.011 3717.06 225.656 L3717.06 230.188 Q3714.49 231.281 3711.78 231.854 Q3709.07 232.427 3706.28 232.427 Q3699.3 232.427 3695.22 228.365 Q3691.15 224.302 3691.15 217.375 Q3691.15 210.214 3695.01 206.021 Q3698.89 201.802 3705.45 201.802 Q3711.33 201.802 3714.75 205.604 Q3718.18 209.38 3718.18 215.891 M3713.39 214.485 Q3713.34 210.552 3711.18 208.209 Q3709.04 205.865 3705.5 205.865 Q3701.49 205.865 3699.07 208.13 Q3696.67 210.396 3696.31 214.511 L3713.39 214.485 Z" fill="#000000" fill-rule="nonzero" fill-opacity="1" /><path clip-path="url(#clip620)" d="M3745.24 206.933 L3745.24 191.151 L3750.03 191.151 L3750.03 231.672 L3745.24 231.672 L3745.24 227.297 Q3743.73 229.901 3741.41 231.177 Q3739.12 232.427 3735.89 232.427 Q3730.61 232.427 3727.27 228.208 Q3723.96 223.99 3723.96 217.115 Q3723.96 210.24 3727.27 206.021 Q3730.61 201.802 3735.89 201.802 Q3739.12 201.802 3741.41 203.078 Q3743.73 204.328 3745.24 206.933 M3728.91 217.115 Q3728.91 222.401 3731.07 225.422 Q3733.26 228.417 3737.06 228.417 Q3740.87 228.417 3743.05 225.422 Q3745.24 222.401 3745.24 217.115 Q3745.24 211.828 3743.05 208.834 Q3740.87 205.813 3737.06 205.813 Q3733.26 205.813 3731.07 208.834 Q3728.91 211.828 3728.91 217.115 Z" fill="#000000" fill-rule="nonzero" fill-opacity="1" /><path clip-path="url(#clip620)" d="M3759.9 202.505 L3764.69 202.505 L3764.69 231.672 L3759.9 231.672 L3759.9 202.505 M3759.9 191.151 L3764.69 191.151 L3764.69 197.219 L3759.9 197.219 L3759.9 191.151 Z" fill="#000000" fill-rule="nonzero" fill-opacity="1" /><path clip-path="url(#clip620)" d="M3795.71 203.625 L3795.71 208.104 Q3793.68 206.985 3791.62 206.438 Q3789.59 205.865 3787.51 205.865 Q3782.84 205.865 3780.27 208.834 Q3777.69 211.776 3777.69 217.115 Q3777.69 222.453 3780.27 225.422 Q3782.84 228.365 3787.51 228.365 Q3789.59 228.365 3791.62 227.818 Q3793.68 227.245 3795.71 226.125 L3795.71 230.552 Q3793.7 231.49 3791.54 231.958 Q3789.41 232.427 3786.99 232.427 Q3780.4 232.427 3776.52 228.287 Q3772.64 224.146 3772.64 217.115 Q3772.64 209.979 3776.54 205.891 Q3780.48 201.802 3787.3 201.802 Q3789.51 201.802 3791.62 202.271 Q3793.73 202.714 3795.71 203.625 Z" fill="#000000" fill-rule="nonzero" fill-opacity="1" /><path clip-path="url(#clip620)" d="M3808.78 194.224 L3808.78 202.505 L3818.65 202.505 L3818.65 206.229 L3808.78 206.229 L3808.78 222.063 Q3808.78 225.63 3809.75 226.646 Q3810.74 227.662 3813.73 227.662 L3818.65 227.662 L3818.65 231.672 L3813.73 231.672 Q3808.18 231.672 3806.07 229.615 Q3803.96 227.531 3803.96 222.063 L3803.96 206.229 L3800.45 206.229 L3800.45 202.505 L3803.96 202.505 L3803.96 194.224 L3808.78 194.224 Z" fill="#000000" fill-rule="nonzero" fill-opacity="1" /><path clip-path="url(#clip620)" d="M3847.12 240.526 L3847.12 244.25 L3819.41 244.25 L3819.41 240.526 L3847.12 240.526 Z" fill="#000000" fill-rule="nonzero" fill-opacity="1" /><path clip-path="url(#clip620)" d="M3856.83 227.245 L3875.19 227.245 L3875.19 231.672 L3850.5 231.672 L3850.5 227.245 Q3853.5 224.146 3858.65 218.938 Q3863.83 213.703 3865.16 212.193 Q3867.69 209.354 3868.68 207.401 Q3869.69 205.422 3869.69 203.521 Q3869.69 200.422 3867.51 198.469 Q3865.34 196.516 3861.85 196.516 Q3859.38 196.516 3856.62 197.375 Q3853.89 198.235 3850.76 199.979 L3850.76 194.667 Q3853.94 193.391 3856.7 192.74 Q3859.46 192.089 3861.75 192.089 Q3867.79 192.089 3871.39 195.11 Q3874.98 198.13 3874.98 203.183 Q3874.98 205.578 3874.07 207.74 Q3873.18 209.875 3870.81 212.792 Q3870.16 213.547 3866.67 217.167 Q3863.18 220.761 3856.83 227.245 Z" fill="#000000" fill-rule="nonzero" fill-opacity="1" /><path clip-path="url(#clip620)" d="M3898.13 210.136 Q3894.59 210.136 3892.51 212.557 Q3890.45 214.979 3890.45 219.198 Q3890.45 223.391 3892.51 225.839 Q3894.59 228.261 3898.13 228.261 Q3901.67 228.261 3903.73 225.839 Q3905.81 223.391 3905.81 219.198 Q3905.81 214.979 3903.73 212.557 Q3901.67 210.136 3898.13 210.136 M3908.57 193.651 L3908.57 198.443 Q3906.59 197.505 3904.56 197.011 Q3902.56 196.516 3900.58 196.516 Q3895.37 196.516 3892.61 200.031 Q3889.88 203.547 3889.48 210.656 Q3891.02 208.391 3893.34 207.193 Q3895.66 205.969 3898.44 205.969 Q3904.3 205.969 3907.69 209.537 Q3911.1 213.078 3911.1 219.198 Q3911.1 225.188 3907.56 228.807 Q3904.02 232.427 3898.13 232.427 Q3891.39 232.427 3887.82 227.271 Q3884.25 222.089 3884.25 212.271 Q3884.25 203.052 3888.63 197.584 Q3893 192.089 3900.37 192.089 Q3902.35 192.089 3904.35 192.479 Q3906.39 192.87 3908.57 193.651 Z" fill="#000000" fill-rule="nonzero" fill-opacity="1" /><polyline clip-path="url(#clip620)" style="stroke:#1ac938; stroke-linecap:round; stroke-linejoin:round; stroke-width:5.625; stroke-opacity:1; fill:none" points="3346.85,270.552 3596.79,270.552 "/>
<path clip-path="url(#clip620)" d="M3643.26 285.617 L3643.26 301.086 L3638.44 301.086 L3638.44 260.825 L3643.26 260.825 L3643.26 265.253 Q3644.77 262.648 3647.06 261.398 Q3649.38 260.122 3652.59 260.122 Q3657.9 260.122 3661.2 264.341 Q3664.54 268.56 3664.54 275.435 Q3664.54 282.31 3661.2 286.528 Q3657.9 290.747 3652.59 290.747 Q3649.38 290.747 3647.06 289.497 Q3644.77 288.221 3643.26 285.617 M3659.56 275.435 Q3659.56 270.148 3657.38 267.154 Q3655.22 264.133 3651.41 264.133 Q3647.61 264.133 3645.42 267.154 Q3643.26 270.148 3643.26 275.435 Q3643.26 280.721 3645.42 283.742 Q3647.61 286.737 3651.41 286.737 Q3655.22 286.737 3657.38 283.742 Q3659.56 280.721 3659.56 275.435 Z" fill="#000000" fill-rule="nonzero" fill-opacity="1" /><path clip-path="url(#clip620)" d="M3689.38 265.305 Q3688.57 264.836 3687.61 264.628 Q3686.67 264.393 3685.53 264.393 Q3681.47 264.393 3679.28 267.049 Q3677.12 269.68 3677.12 274.627 L3677.12 289.992 L3672.3 289.992 L3672.3 260.825 L3677.12 260.825 L3677.12 265.357 Q3678.63 262.7 3681.05 261.424 Q3683.47 260.122 3686.93 260.122 Q3687.43 260.122 3688.03 260.2 Q3688.63 260.253 3689.36 260.383 L3689.38 265.305 Z" fill="#000000" fill-rule="nonzero" fill-opacity="1" /><path clip-path="url(#clip620)" d="M3718.18 274.211 L3718.18 276.555 L3696.15 276.555 Q3696.47 281.502 3699.12 284.107 Q3701.8 286.685 3706.57 286.685 Q3709.33 286.685 3711.91 286.008 Q3714.51 285.331 3717.06 283.976 L3717.06 288.508 Q3714.49 289.601 3711.78 290.174 Q3709.07 290.747 3706.28 290.747 Q3699.3 290.747 3695.22 286.685 Q3691.15 282.622 3691.15 275.695 Q3691.15 268.534 3695.01 264.341 Q3698.89 260.122 3705.45 260.122 Q3711.33 260.122 3714.75 263.924 Q3718.18 267.7 3718.18 274.211 M3713.39 272.805 Q3713.34 268.872 3711.18 266.529 Q3709.04 264.185 3705.5 264.185 Q3701.49 264.185 3699.07 266.45 Q3696.67 268.716 3696.31 272.831 L3713.39 272.805 Z" fill="#000000" fill-rule="nonzero" fill-opacity="1" /><path clip-path="url(#clip620)" d="M3745.24 265.253 L3745.24 249.471 L3750.03 249.471 L3750.03 289.992 L3745.24 289.992 L3745.24 285.617 Q3743.73 288.221 3741.41 289.497 Q3739.12 290.747 3735.89 290.747 Q3730.61 290.747 3727.27 286.528 Q3723.96 282.31 3723.96 275.435 Q3723.96 268.56 3727.27 264.341 Q3730.61 260.122 3735.89 260.122 Q3739.12 260.122 3741.41 261.398 Q3743.73 262.648 3745.24 265.253 M3728.91 275.435 Q3728.91 280.721 3731.07 283.742 Q3733.26 286.737 3737.06 286.737 Q3740.87 286.737 3743.05 283.742 Q3745.24 280.721 3745.24 275.435 Q3745.24 270.148 3743.05 267.154 Q3740.87 264.133 3737.06 264.133 Q3733.26 264.133 3731.07 267.154 Q3728.91 270.148 3728.91 275.435 Z" fill="#000000" fill-rule="nonzero" fill-opacity="1" /><path clip-path="url(#clip620)" d="M3759.9 260.825 L3764.69 260.825 L3764.69 289.992 L3759.9 289.992 L3759.9 260.825 M3759.9 249.471 L3764.69 249.471 L3764.69 255.539 L3759.9 255.539 L3759.9 249.471 Z" fill="#000000" fill-rule="nonzero" fill-opacity="1" /><path clip-path="url(#clip620)" d="M3795.71 261.945 L3795.71 266.424 Q3793.68 265.305 3791.62 264.758 Q3789.59 264.185 3787.51 264.185 Q3782.84 264.185 3780.27 267.154 Q3777.69 270.096 3777.69 275.435 Q3777.69 280.773 3780.27 283.742 Q3782.84 286.685 3787.51 286.685 Q3789.59 286.685 3791.62 286.138 Q3793.68 285.565 3795.71 284.445 L3795.71 288.872 Q3793.7 289.81 3791.54 290.278 Q3789.41 290.747 3786.99 290.747 Q3780.4 290.747 3776.52 286.607 Q3772.64 282.466 3772.64 275.435 Q3772.64 268.299 3776.54 264.211 Q3780.48 260.122 3787.3 260.122 Q3789.51 260.122 3791.62 260.591 Q3793.73 261.034 3795.71 261.945 Z" fill="#000000" fill-rule="nonzero" fill-opacity="1" /><path clip-path="url(#clip620)" d="M3808.78 252.544 L3808.78 260.825 L3818.65 260.825 L3818.65 264.549 L3808.78 264.549 L3808.78 280.383 Q3808.78 283.95 3809.75 284.966 Q3810.74 285.982 3813.73 285.982 L3818.65 285.982 L3818.65 289.992 L3813.73 289.992 Q3808.18 289.992 3806.07 287.935 Q3803.96 285.851 3803.96 280.383 L3803.96 264.549 L3800.45 264.549 L3800.45 260.825 L3803.96 260.825 L3803.96 252.544 L3808.78 252.544 Z" fill="#000000" fill-rule="nonzero" fill-opacity="1" /><path clip-path="url(#clip620)" d="M3847.12 298.846 L3847.12 302.57 L3819.41 302.57 L3819.41 298.846 L3847.12 298.846 Z" fill="#000000" fill-rule="nonzero" fill-opacity="1" /><path clip-path="url(#clip620)" d="M3866.75 255.695 L3853.47 276.45 L3866.75 276.45 L3866.75 255.695 M3865.37 251.112 L3871.99 251.112 L3871.99 276.45 L3877.53 276.45 L3877.53 280.825 L3871.99 280.825 L3871.99 289.992 L3866.75 289.992 L3866.75 280.825 L3849.2 280.825 L3849.2 275.747 L3865.37 251.112 Z" fill="#000000" fill-rule="nonzero" fill-opacity="1" /><polyline clip-path="url(#clip620)" style="stroke:#e8000b; stroke-linecap:round; stroke-linejoin:round; stroke-width:5.625; stroke-opacity:1; fill:none" points="3346.85,328.872 3596.79,328.872 "/>
<path clip-path="url(#clip620)" d="M3643.26 343.937 L3643.26 359.406 L3638.44 359.406 L3638.44 319.145 L3643.26 319.145 L3643.26 323.573 Q3644.77 320.968 3647.06 319.718 Q3649.38 318.442 3652.59 318.442 Q3657.9 318.442 3661.2 322.661 Q3664.54 326.88 3664.54 333.755 Q3664.54 340.63 3661.2 344.848 Q3657.9 349.067 3652.59 349.067 Q3649.38 349.067 3647.06 347.817 Q3644.77 346.541 3643.26 343.937 M3659.56 333.755 Q3659.56 328.468 3657.38 325.474 Q3655.22 322.453 3651.41 322.453 Q3647.61 322.453 3645.42 325.474 Q3643.26 328.468 3643.26 333.755 Q3643.26 339.041 3645.42 342.062 Q3647.61 345.057 3651.41 345.057 Q3655.22 345.057 3657.38 342.062 Q3659.56 339.041 3659.56 333.755 Z" fill="#000000" fill-rule="nonzero" fill-opacity="1" /><path clip-path="url(#clip620)" d="M3689.38 323.625 Q3688.57 323.156 3687.61 322.948 Q3686.67 322.713 3685.53 322.713 Q3681.47 322.713 3679.28 325.369 Q3677.12 328 3677.12 332.947 L3677.12 348.312 L3672.3 348.312 L3672.3 319.145 L3677.12 319.145 L3677.12 323.677 Q3678.63 321.02 3681.05 319.744 Q3683.47 318.442 3686.93 318.442 Q3687.43 318.442 3688.03 318.52 Q3688.63 318.573 3689.36 318.703 L3689.38 323.625 Z" fill="#000000" fill-rule="nonzero" fill-opacity="1" /><path clip-path="url(#clip620)" d="M3718.18 332.531 L3718.18 334.875 L3696.15 334.875 Q3696.47 339.822 3699.12 342.427 Q3701.8 345.005 3706.57 345.005 Q3709.33 345.005 3711.91 344.328 Q3714.51 343.651 3717.06 342.296 L3717.06 346.828 Q3714.49 347.921 3711.78 348.494 Q3709.07 349.067 3706.28 349.067 Q3699.3 349.067 3695.22 345.005 Q3691.15 340.942 3691.15 334.015 Q3691.15 326.854 3695.01 322.661 Q3698.89 318.442 3705.45 318.442 Q3711.33 318.442 3714.75 322.244 Q3718.18 326.02 3718.18 332.531 M3713.39 331.125 Q3713.34 327.192 3711.18 324.849 Q3709.04 322.505 3705.5 322.505 Q3701.49 322.505 3699.07 324.77 Q3696.67 327.036 3696.31 331.151 L3713.39 331.125 Z" fill="#000000" fill-rule="nonzero" fill-opacity="1" /><path clip-path="url(#clip620)" d="M3745.24 323.573 L3745.24 307.791 L3750.03 307.791 L3750.03 348.312 L3745.24 348.312 L3745.24 343.937 Q3743.73 346.541 3741.41 347.817 Q3739.12 349.067 3735.89 349.067 Q3730.61 349.067 3727.27 344.848 Q3723.96 340.63 3723.96 333.755 Q3723.96 326.88 3727.27 322.661 Q3730.61 318.442 3735.89 318.442 Q3739.12 318.442 3741.41 319.718 Q3743.73 320.968 3745.24 323.573 M3728.91 333.755 Q3728.91 339.041 3731.07 342.062 Q3733.26 345.057 3737.06 345.057 Q3740.87 345.057 3743.05 342.062 Q3745.24 339.041 3745.24 333.755 Q3745.24 328.468 3743.05 325.474 Q3740.87 322.453 3737.06 322.453 Q3733.26 322.453 3731.07 325.474 Q3728.91 328.468 3728.91 333.755 Z" fill="#000000" fill-rule="nonzero" fill-opacity="1" /><path clip-path="url(#clip620)" d="M3759.9 319.145 L3764.69 319.145 L3764.69 348.312 L3759.9 348.312 L3759.9 319.145 M3759.9 307.791 L3764.69 307.791 L3764.69 313.859 L3759.9 313.859 L3759.9 307.791 Z" fill="#000000" fill-rule="nonzero" fill-opacity="1" /><path clip-path="url(#clip620)" d="M3795.71 320.265 L3795.71 324.744 Q3793.68 323.625 3791.62 323.078 Q3789.59 322.505 3787.51 322.505 Q3782.84 322.505 3780.27 325.474 Q3777.69 328.416 3777.69 333.755 Q3777.69 339.093 3780.27 342.062 Q3782.84 345.005 3787.51 345.005 Q3789.59 345.005 3791.62 344.458 Q3793.68 343.885 3795.71 342.765 L3795.71 347.192 Q3793.7 348.13 3791.54 348.598 Q3789.41 349.067 3786.99 349.067 Q3780.4 349.067 3776.52 344.927 Q3772.64 340.786 3772.64 333.755 Q3772.64 326.619 3776.54 322.531 Q3780.48 318.442 3787.3 318.442 Q3789.51 318.442 3791.62 318.911 Q3793.73 319.354 3795.71 320.265 Z" fill="#000000" fill-rule="nonzero" fill-opacity="1" /><path clip-path="url(#clip620)" d="M3808.78 310.864 L3808.78 319.145 L3818.65 319.145 L3818.65 322.869 L3808.78 322.869 L3808.78 338.703 Q3808.78 342.27 3809.75 343.286 Q3810.74 344.302 3813.73 344.302 L3818.65 344.302 L3818.65 348.312 L3813.73 348.312 Q3808.18 348.312 3806.07 346.255 Q3803.96 344.171 3803.96 338.703 L3803.96 322.869 L3800.45 322.869 L3800.45 319.145 L3803.96 319.145 L3803.96 310.864 L3808.78 310.864 Z" fill="#000000" fill-rule="nonzero" fill-opacity="1" /><path clip-path="url(#clip620)" d="M3847.12 357.166 L3847.12 360.89 L3819.41 360.89 L3819.41 357.166 L3847.12 357.166 Z" fill="#000000" fill-rule="nonzero" fill-opacity="1" /><path clip-path="url(#clip620)" d="M3853.21 343.885 L3861.8 343.885 L3861.8 314.224 L3852.45 316.099 L3852.45 311.307 L3861.75 309.432 L3867.01 309.432 L3867.01 343.885 L3875.6 343.885 L3875.6 348.312 L3853.21 348.312 L3853.21 343.885 Z" fill="#000000" fill-rule="nonzero" fill-opacity="1" /><polyline clip-path="url(#clip620)" style="stroke:#000000; stroke-linecap:round; stroke-linejoin:round; stroke-width:6.75; stroke-opacity:1; fill:none" points="3346.85,387.192 3596.79,387.192 "/>
<path clip-path="url(#clip620)" d="M3653.52 391.971 Q3647.72 391.971 3645.48 393.299 Q3643.24 394.627 3643.24 397.83 Q3643.24 400.382 3644.9 401.892 Q3646.6 403.377 3649.49 403.377 Q3653.47 403.377 3655.87 400.564 Q3658.29 397.726 3658.29 393.038 L3658.29 391.971 L3653.52 391.971 M3663.08 389.991 L3663.08 406.632 L3658.29 406.632 L3658.29 402.205 Q3656.65 404.861 3654.2 406.137 Q3651.75 407.387 3648.21 407.387 Q3643.73 407.387 3641.07 404.887 Q3638.44 402.361 3638.44 398.142 Q3638.44 393.221 3641.73 390.721 Q3645.03 388.221 3651.57 388.221 L3658.29 388.221 L3658.29 387.752 Q3658.29 384.445 3656.1 382.648 Q3653.94 380.825 3650.01 380.825 Q3647.51 380.825 3645.14 381.424 Q3642.77 382.023 3640.58 383.221 L3640.58 378.794 Q3643.21 377.778 3645.68 377.283 Q3648.16 376.762 3650.5 376.762 Q3656.83 376.762 3659.95 380.044 Q3663.08 383.325 3663.08 389.991 Z" fill="#000000" fill-rule="nonzero" fill-opacity="1" /><path clip-path="url(#clip620)" d="M3693.94 378.585 L3693.94 383.064 Q3691.91 381.945 3689.85 381.398 Q3687.82 380.825 3685.74 380.825 Q3681.07 380.825 3678.5 383.794 Q3675.92 386.736 3675.92 392.075 Q3675.92 397.413 3678.5 400.382 Q3681.07 403.325 3685.74 403.325 Q3687.82 403.325 3689.85 402.778 Q3691.91 402.205 3693.94 401.085 L3693.94 405.512 Q3691.93 406.45 3689.77 406.918 Q3687.64 407.387 3685.22 407.387 Q3678.63 407.387 3674.75 403.247 Q3670.87 399.106 3670.87 392.075 Q3670.87 384.939 3674.77 380.851 Q3678.7 376.762 3685.53 376.762 Q3687.74 376.762 3689.85 377.231 Q3691.96 377.674 3693.94 378.585 Z" fill="#000000" fill-rule="nonzero" fill-opacity="1" /><path clip-path="url(#clip620)" d="M3707.01 369.184 L3707.01 377.465 L3716.88 377.465 L3716.88 381.189 L3707.01 381.189 L3707.01 397.023 Q3707.01 400.59 3707.98 401.606 Q3708.97 402.622 3711.96 402.622 L3716.88 402.622 L3716.88 406.632 L3711.96 406.632 Q3706.41 406.632 3704.3 404.575 Q3702.19 402.491 3702.19 397.023 L3702.19 381.189 L3698.68 381.189 L3698.68 377.465 L3702.19 377.465 L3702.19 369.184 L3707.01 369.184 Z" fill="#000000" fill-rule="nonzero" fill-opacity="1" /><path clip-path="url(#clip620)" d="M3722.69 395.122 L3722.69 377.465 L3727.48 377.465 L3727.48 394.939 Q3727.48 399.08 3729.1 401.163 Q3730.71 403.221 3733.94 403.221 Q3737.82 403.221 3740.06 400.747 Q3742.32 398.273 3742.32 394.002 L3742.32 377.465 L3747.12 377.465 L3747.12 406.632 L3742.32 406.632 L3742.32 402.153 Q3740.58 404.809 3738.26 406.111 Q3735.97 407.387 3732.92 407.387 Q3727.9 407.387 3725.29 404.262 Q3722.69 401.137 3722.69 395.122 M3734.75 376.762 L3734.75 376.762 Z" fill="#000000" fill-rule="nonzero" fill-opacity="1" /><path clip-path="url(#clip620)" d="M3770.24 391.971 Q3764.43 391.971 3762.19 393.299 Q3759.95 394.627 3759.95 397.83 Q3759.95 400.382 3761.62 401.892 Q3763.31 403.377 3766.2 403.377 Q3770.19 403.377 3772.58 400.564 Q3775.01 397.726 3775.01 393.038 L3775.01 391.971 L3770.24 391.971 M3779.8 389.991 L3779.8 406.632 L3775.01 406.632 L3775.01 402.205 Q3773.37 404.861 3770.92 406.137 Q3768.47 407.387 3764.93 407.387 Q3760.45 407.387 3757.79 404.887 Q3755.16 402.361 3755.16 398.142 Q3755.16 393.221 3758.44 390.721 Q3761.75 388.221 3768.29 388.221 L3775.01 388.221 L3775.01 387.752 Q3775.01 384.445 3772.82 382.648 Q3770.66 380.825 3766.73 380.825 Q3764.23 380.825 3761.86 381.424 Q3759.49 382.023 3757.3 383.221 L3757.3 378.794 Q3759.93 377.778 3762.4 377.283 Q3764.88 376.762 3767.22 376.762 Q3773.55 376.762 3776.67 380.044 Q3779.8 383.325 3779.8 389.991 Z" fill="#000000" fill-rule="nonzero" fill-opacity="1" /><path clip-path="url(#clip620)" d="M3789.67 366.111 L3794.46 366.111 L3794.46 406.632 L3789.67 406.632 L3789.67 366.111 Z" fill="#000000" fill-rule="nonzero" fill-opacity="1" /></svg>
