<?xml version="1.0" encoding="UTF-8" standalone="no"?>
<!DOCTYPE svg PUBLIC "-//W3C//DTD SVG 1.1//EN"
 "http://www.w3.org/Graphics/SVG/1.1/DTD/svg11.dtd">
<!-- Generated by graphviz version 2.50.0 (20211204.2007)
 -->
<!-- Pages: 1 -->
<svg width="1230pt" height="588pt"
 viewBox="0.00 0.00 1230.00 588.00" xmlns="http://www.w3.org/2000/svg" xmlns:xlink="http://www.w3.org/1999/xlink">
<g id="graph0" class="graph" transform="scale(1 1) rotate(0) translate(4 584)">
<polygon fill="white" stroke="transparent" points="-4,4 -4,-584 1226,-584 1226,4 -4,4"/>
<!-- 1 -->
<g id="node1" class="node">
<title>1</title>
<text text-anchor="start" x="607" y="-561.8" font-family="Arial" font-weight="bold" font-size="14.00"> </text>
<path fill="#ebebeb" stroke="transparent" d="M567,-489C567,-489 651,-489 651,-489 657,-489 663,-495 663,-501 663,-501 663,-541 663,-541 663,-547 657,-553 651,-553 651,-553 567,-553 567,-553 561,-553 555,-547 555,-541 555,-541 555,-501 555,-501 555,-495 561,-489 567,-489"/>
<text text-anchor="start" x="556" y="-550.4" font-family="Arial" font-size="2.00"> </text>
<text text-anchor="start" x="556" y="-544.4" font-family="Arial" font-size="7.00"> &#160;1</text>
<text text-anchor="start" x="570" y="-527.8" font-family="Arial" font-weight="bold" font-size="14.00">Mean: 5.489</text>
<text text-anchor="start" x="585.5" y="-510.8" font-family="Arial" font-weight="bold" font-size="14.00">n = 168</text>
<text text-anchor="start" x="607.5" y="-492.8" font-family="Arial" font-size="9.00"> </text>
<path fill="none" stroke="#333333" d="M567,-489C567,-489 651,-489 651,-489 657,-489 663,-495 663,-501 663,-501 663,-541 663,-541 663,-547 657,-553 651,-553 651,-553 567,-553 567,-553 561,-553 555,-547 555,-541 555,-541 555,-501 555,-501 555,-495 561,-489 567,-489"/>
<text text-anchor="start" x="594.5" y="-474.8" font-family="Arial" font-weight="bold" font-size="14.00">time</text>
</g>
<!-- 2 -->
<g id="node2" class="node">
<title>2</title>
<text text-anchor="start" x="477.5" y="-407.8" font-family="Arial" font-weight="bold" font-size="14.00"> &lt; 8.5</text>
<path fill="#ebebeb" stroke="transparent" d="M453,-335C453,-335 537,-335 537,-335 543,-335 549,-341 549,-347 549,-347 549,-387 549,-387 549,-393 543,-399 537,-399 537,-399 453,-399 453,-399 447,-399 441,-393 441,-387 441,-387 441,-347 441,-347 441,-341 447,-335 453,-335"/>
<text text-anchor="start" x="442" y="-396.4" font-family="Arial" font-size="2.00"> </text>
<text text-anchor="start" x="442" y="-390.4" font-family="Arial" font-size="7.00"> &#160;2</text>
<text text-anchor="start" x="456" y="-373.8" font-family="Arial" font-weight="bold" font-size="14.00">Mean: 4.535</text>
<text text-anchor="start" x="475" y="-356.8" font-family="Arial" font-weight="bold" font-size="14.00">n = 63</text>
<text text-anchor="start" x="493.5" y="-338.8" font-family="Arial" font-size="9.00"> </text>
<path fill="none" stroke="#333333" d="M453,-335C453,-335 537,-335 537,-335 543,-335 549,-341 549,-347 549,-347 549,-387 549,-387 549,-393 543,-399 537,-399 537,-399 453,-399 453,-399 447,-399 441,-393 441,-387 441,-387 441,-347 441,-347 441,-341 447,-335 453,-335"/>
<text text-anchor="start" x="480.5" y="-320.8" font-family="Arial" font-weight="bold" font-size="14.00">time</text>
</g>
<!-- 1&#45;&gt;2 -->
<g id="edge1" class="edge">
<title>1&#45;&gt;2</title>
<path fill="none" stroke="#888888" d="M565.25,-461.67C558.57,-452.76 551.63,-443.51 544.83,-434.44"/>
<polygon fill="#888888" stroke="#888888" points="547.43,-432.08 538.63,-426.18 541.83,-436.28 547.43,-432.08"/>
</g>
<!-- 9 -->
<g id="node3" class="node">
<title>9</title>
<text text-anchor="start" x="706" y="-407.8" font-family="Arial" font-weight="bold" font-size="14.00"> ≥ 8.5</text>
<text text-anchor="start" x="655" y="-363.3" font-family="Arial" font-size="14.00"> &#160;&#160;</text>
<path fill="#ebebeb" stroke="transparent" d="M681,-335C681,-335 765,-335 765,-335 771,-335 777,-341 777,-347 777,-347 777,-387 777,-387 777,-393 771,-399 765,-399 765,-399 681,-399 681,-399 675,-399 669,-393 669,-387 669,-387 669,-347 669,-347 669,-341 675,-335 681,-335"/>
<text text-anchor="start" x="670" y="-396.4" font-family="Arial" font-size="2.00"> </text>
<text text-anchor="start" x="670" y="-390.4" font-family="Arial" font-size="7.00"> &#160;9</text>
<text text-anchor="start" x="684" y="-373.8" font-family="Arial" font-weight="bold" font-size="14.00">Mean: 6.061</text>
<text text-anchor="start" x="699.5" y="-356.8" font-family="Arial" font-weight="bold" font-size="14.00">n = 105</text>
<text text-anchor="start" x="721.5" y="-338.8" font-family="Arial" font-size="9.00"> </text>
<path fill="none" stroke="#333333" d="M681,-335C681,-335 765,-335 765,-335 771,-335 777,-341 777,-347 777,-347 777,-387 777,-387 777,-393 771,-399 765,-399 765,-399 681,-399 681,-399 675,-399 669,-393 669,-387 669,-387 669,-347 669,-347 669,-341 675,-335 681,-335"/>
<text text-anchor="start" x="779" y="-363.3" font-family="Arial" font-size="14.00"> &#160;&#160;</text>
<text text-anchor="start" x="669.5" y="-320.8" font-family="Arial" font-weight="bold" font-size="14.00">prev_24h_inflow</text>
</g>
<!-- 1&#45;&gt;9 -->
<g id="edge2" class="edge">
<title>1&#45;&gt;9</title>
<path fill="none" stroke="#888888" d="M652.75,-461.67C659.43,-452.76 666.37,-443.51 673.17,-434.44"/>
<polygon fill="#888888" stroke="#888888" points="676.17,-436.28 679.37,-426.18 670.57,-432.08 676.17,-436.28"/>
</g>
<!-- 3 -->
<g id="node4" class="node">
<title>3</title>
<text text-anchor="start" x="207.5" y="-253.8" font-family="Arial" font-weight="bold" font-size="14.00"> &lt; 5.5</text>
<text text-anchor="start" x="157" y="-209.3" font-family="Arial" font-size="14.00"> &#160;&#160;</text>
<path fill="#ebebeb" stroke="transparent" d="M183,-181C183,-181 267,-181 267,-181 273,-181 279,-187 279,-193 279,-193 279,-233 279,-233 279,-239 273,-245 267,-245 267,-245 183,-245 183,-245 177,-245 171,-239 171,-233 171,-233 171,-193 171,-193 171,-187 177,-181 183,-181"/>
<text text-anchor="start" x="172" y="-242.4" font-family="Arial" font-size="2.00"> </text>
<text text-anchor="start" x="172" y="-236.4" font-family="Arial" font-size="7.00"> &#160;3</text>
<text text-anchor="start" x="186" y="-219.8" font-family="Arial" font-weight="bold" font-size="14.00">Mean: 3.319</text>
<text text-anchor="start" x="205" y="-202.8" font-family="Arial" font-weight="bold" font-size="14.00">n = 42</text>
<text text-anchor="start" x="223.5" y="-184.8" font-family="Arial" font-size="9.00"> </text>
<path fill="none" stroke="#333333" d="M183,-181C183,-181 267,-181 267,-181 273,-181 279,-187 279,-193 279,-193 279,-233 279,-233 279,-239 273,-245 267,-245 267,-245 183,-245 183,-245 177,-245 171,-239 171,-233 171,-233 171,-193 171,-193 171,-187 177,-181 183,-181"/>
<text text-anchor="start" x="281" y="-209.3" font-family="Arial" font-size="14.00"> &#160;&#160;</text>
<text text-anchor="start" x="171.5" y="-166.8" font-family="Arial" font-weight="bold" font-size="14.00">prev_24h_inflow</text>
</g>
<!-- 2&#45;&gt;3 -->
<g id="edge3" class="edge">
<title>2&#45;&gt;3</title>
<path fill="none" stroke="#888888" d="M428.95,-328.82C393.83,-309.04 350.2,-284.48 312.31,-263.15"/>
<polygon fill="#888888" stroke="#888888" points="313.75,-259.95 303.32,-258.09 310.32,-266.05 313.75,-259.95"/>
</g>
<!-- 6 -->
<g id="node5" class="node">
<title>6</title>
<text text-anchor="start" x="478" y="-253.8" font-family="Arial" font-weight="bold" font-size="14.00"> ≥ 5.5</text>
<text text-anchor="start" x="431" y="-209.3" font-family="Arial" font-size="14.00"> &#160;</text>
<path fill="#ebebeb" stroke="transparent" d="M453,-181C453,-181 537,-181 537,-181 543,-181 549,-187 549,-193 549,-193 549,-233 549,-233 549,-239 543,-245 537,-245 537,-245 453,-245 453,-245 447,-245 441,-239 441,-233 441,-233 441,-193 441,-193 441,-187 447,-181 453,-181"/>
<text text-anchor="start" x="442" y="-242.4" font-family="Arial" font-size="2.00"> </text>
<text text-anchor="start" x="442" y="-236.4" font-family="Arial" font-size="7.00"> &#160;6</text>
<text text-anchor="start" x="456" y="-219.8" font-family="Arial" font-weight="bold" font-size="14.00">Mean: 6.967</text>
<text text-anchor="start" x="475" y="-202.8" font-family="Arial" font-weight="bold" font-size="14.00">n = 21</text>
<text text-anchor="start" x="493.5" y="-184.8" font-family="Arial" font-size="9.00"> </text>
<path fill="none" stroke="#333333" d="M453,-181C453,-181 537,-181 537,-181 543,-181 549,-187 549,-193 549,-193 549,-233 549,-233 549,-239 543,-245 537,-245 537,-245 453,-245 453,-245 447,-245 441,-239 441,-233 441,-233 441,-193 441,-193 441,-187 447,-181 453,-181"/>
<text text-anchor="start" x="551" y="-209.3" font-family="Arial" font-size="14.00"> &#160;</text>
<text text-anchor="start" x="445" y="-166.8" font-family="Arial" font-weight="bold" font-size="14.00">prev_1h_inflow</text>
</g>
<!-- 2&#45;&gt;6 -->
<g id="edge4" class="edge">
<title>2&#45;&gt;6</title>
<path fill="none" stroke="#888888" d="M495,-307.67C495,-299.39 495,-290.83 495,-282.38"/>
<polygon fill="#888888" stroke="#888888" points="498.5,-282.18 495,-272.18 491.5,-282.18 498.5,-282.18"/>
</g>
<!-- 10 -->
<g id="node10" class="node">
<title>10</title>
<text text-anchor="start" x="698" y="-253.8" font-family="Arial" font-weight="bold" font-size="14.00"> &lt; 6.785</text>
<text text-anchor="start" x="659" y="-209.3" font-family="Arial" font-size="14.00"> &#160;</text>
<path fill="#ebebeb" stroke="transparent" d="M681,-181C681,-181 765,-181 765,-181 771,-181 777,-187 777,-193 777,-193 777,-233 777,-233 777,-239 771,-245 765,-245 765,-245 681,-245 681,-245 675,-245 669,-239 669,-233 669,-233 669,-193 669,-193 669,-187 675,-181 681,-181"/>
<text text-anchor="start" x="670" y="-242.4" font-family="Arial" font-size="2.00"> </text>
<text text-anchor="start" x="670" y="-236.4" font-family="Arial" font-size="7.00"> &#160;10</text>
<text text-anchor="start" x="684" y="-219.8" font-family="Arial" font-weight="bold" font-size="14.00">Mean: 5.408</text>
<text text-anchor="start" x="703" y="-202.8" font-family="Arial" font-weight="bold" font-size="14.00">n = 78</text>
<text text-anchor="start" x="721.5" y="-184.8" font-family="Arial" font-size="9.00"> </text>
<path fill="none" stroke="#333333" d="M681,-181C681,-181 765,-181 765,-181 771,-181 777,-187 777,-193 777,-193 777,-233 777,-233 777,-239 771,-245 765,-245 765,-245 681,-245 681,-245 675,-245 669,-239 669,-233 669,-233 669,-193 669,-193 669,-187 675,-181 681,-181"/>
<text text-anchor="start" x="779" y="-209.3" font-family="Arial" font-size="14.00"> &#160;</text>
<text text-anchor="start" x="673" y="-166.8" font-family="Arial" font-weight="bold" font-size="14.00">prev_1h_inflow</text>
</g>
<!-- 9&#45;&gt;10 -->
<g id="edge9" class="edge">
<title>9&#45;&gt;10</title>
<path fill="none" stroke="#888888" d="M723,-307.67C723,-299.39 723,-290.83 723,-282.38"/>
<polygon fill="#888888" stroke="#888888" points="726.5,-282.18 723,-272.18 719.5,-282.18 726.5,-282.18"/>
</g>
<!-- 13 -->
<g id="node11" class="node">
<title>13</title>
<text text-anchor="start" x="972.5" y="-253.8" font-family="Arial" font-weight="bold" font-size="14.00"> ≥ 6.785</text>
<text text-anchor="start" x="929" y="-209.3" font-family="Arial" font-size="14.00"> &#160;&#160;&#160;</text>
<path fill="#ebebeb" stroke="transparent" d="M959,-181C959,-181 1035,-181 1035,-181 1041,-181 1047,-187 1047,-193 1047,-193 1047,-233 1047,-233 1047,-239 1041,-245 1035,-245 1035,-245 959,-245 959,-245 953,-245 947,-239 947,-233 947,-233 947,-193 947,-193 947,-187 953,-181 959,-181"/>
<text text-anchor="start" x="948" y="-242.4" font-family="Arial" font-size="2.00"> </text>
<text text-anchor="start" x="948" y="-236.4" font-family="Arial" font-size="7.00"> &#160;13</text>
<text text-anchor="start" x="962" y="-219.8" font-family="Arial" font-weight="bold" font-size="14.00">Mean: 7.95</text>
<text text-anchor="start" x="977" y="-202.8" font-family="Arial" font-weight="bold" font-size="14.00">n = 27</text>
<text text-anchor="start" x="995.5" y="-184.8" font-family="Arial" font-size="9.00"> </text>
<path fill="none" stroke="#333333" d="M959,-181C959,-181 1035,-181 1035,-181 1041,-181 1047,-187 1047,-193 1047,-193 1047,-233 1047,-233 1047,-239 1041,-245 1035,-245 1035,-245 959,-245 959,-245 953,-245 947,-239 947,-233 947,-233 947,-193 947,-193 947,-187 953,-181 959,-181"/>
<text text-anchor="start" x="1049" y="-209.3" font-family="Arial" font-size="14.00"> &#160;&#160;&#160;</text>
<text text-anchor="start" x="943.5" y="-166.8" font-family="Arial" font-weight="bold" font-size="14.00">prev_24h_inflow</text>
</g>
<!-- 9&#45;&gt;13 -->
<g id="edge10" class="edge">
<title>9&#45;&gt;13</title>
<path fill="none" stroke="#888888" d="M801.15,-322.65C835.13,-303.8 875.06,-281.64 909.98,-262.27"/>
<polygon fill="#888888" stroke="#888888" points="911.7,-265.32 918.75,-257.41 908.3,-259.2 911.7,-265.32"/>
</g>
<!-- 4 -->
<g id="node6" class="node">
<title>4</title>
<text text-anchor="start" x="44" y="-99.8" font-family="Arial" font-weight="bold" font-size="14.00"> &lt; 3.105</text>
<path fill="#f8766d" fill-opacity="0.874510" stroke="transparent" d="M24,-27C24,-27 114,-27 114,-27 120,-27 126,-33 126,-39 126,-39 126,-79 126,-79 126,-85 120,-91 114,-91 114,-91 24,-91 24,-91 18,-91 12,-85 12,-79 12,-79 12,-39 12,-39 12,-33 18,-27 24,-27"/>
<text text-anchor="start" x="13" y="-88.4" font-family="Arial" font-size="2.00"> </text>
<text text-anchor="start" x="13" y="-82.4" font-family="Arial" font-size="7.00"> &#160;4</text>
<text text-anchor="start" x="27" y="-65.8" font-family="Arial" font-weight="bold" font-size="14.00">Predict 2.779</text>
<text text-anchor="start" x="49" y="-48.8" font-family="Arial" font-weight="bold" font-size="14.00">n = 19</text>
<text text-anchor="start" x="67.5" y="-30.8" font-family="Arial" font-size="9.00"> </text>
<path fill="none" stroke="#333333" d="M24,-27C24,-27 114,-27 114,-27 120,-27 126,-33 126,-39 126,-39 126,-79 126,-79 126,-85 120,-91 114,-91 114,-91 24,-91 24,-91 18,-91 12,-85 12,-79 12,-79 12,-39 12,-39 12,-33 18,-27 24,-27"/>
<text text-anchor="start" x="67" y="-12.8" font-family="Arial" font-weight="bold" font-size="14.00"> </text>
</g>
<!-- 3&#45;&gt;4 -->
<g id="edge5" class="edge">
<title>3&#45;&gt;4</title>
<path fill="none" stroke="#888888" d="M165.13,-153.67C155.62,-144.39 145.72,-134.75 136.05,-125.33"/>
<polygon fill="#888888" stroke="#888888" points="138.31,-122.65 128.71,-118.18 133.43,-127.66 138.31,-122.65"/>
</g>
<!-- 5 -->
<g id="node7" class="node">
<title>5</title>
<text text-anchor="start" x="200.5" y="-99.8" font-family="Arial" font-weight="bold" font-size="14.00"> ≥ 3.105</text>
<path fill="#f8766d" fill-opacity="0.800000" stroke="transparent" d="M180,-27C180,-27 270,-27 270,-27 276,-27 282,-33 282,-39 282,-39 282,-79 282,-79 282,-85 276,-91 270,-91 270,-91 180,-91 180,-91 174,-91 168,-85 168,-79 168,-79 168,-39 168,-39 168,-33 174,-27 180,-27"/>
<text text-anchor="start" x="169" y="-88.4" font-family="Arial" font-size="2.00"> </text>
<text text-anchor="start" x="169" y="-82.4" font-family="Arial" font-size="7.00"> &#160;5</text>
<text text-anchor="start" x="183" y="-65.8" font-family="Arial" font-weight="bold" font-size="14.00">Predict 3.765</text>
<text text-anchor="start" x="205" y="-48.8" font-family="Arial" font-weight="bold" font-size="14.00">n = 23</text>
<text text-anchor="start" x="223.5" y="-30.8" font-family="Arial" font-size="9.00"> </text>
<path fill="none" stroke="#333333" d="M180,-27C180,-27 270,-27 270,-27 276,-27 282,-33 282,-39 282,-39 282,-79 282,-79 282,-85 276,-91 270,-91 270,-91 180,-91 180,-91 174,-91 168,-85 168,-79 168,-79 168,-39 168,-39 168,-33 174,-27 180,-27"/>
<text text-anchor="start" x="223" y="-12.8" font-family="Arial" font-weight="bold" font-size="14.00"> </text>
</g>
<!-- 3&#45;&gt;5 -->
<g id="edge6" class="edge">
<title>3&#45;&gt;5</title>
<path fill="none" stroke="#888888" d="M225,-153.67C225,-145.39 225,-136.83 225,-128.38"/>
<polygon fill="#888888" stroke="#888888" points="228.5,-128.18 225,-118.18 221.5,-128.18 228.5,-128.18"/>
</g>
<!-- 7 -->
<g id="node8" class="node">
<title>7</title>
<text text-anchor="start" x="356" y="-99.8" font-family="Arial" font-weight="bold" font-size="14.00"> &lt; 6.615</text>
<path fill="#f8766d" fill-opacity="0.592157" stroke="transparent" d="M336,-27C336,-27 426,-27 426,-27 432,-27 438,-33 438,-39 438,-39 438,-79 438,-79 438,-85 432,-91 426,-91 426,-91 336,-91 336,-91 330,-91 324,-85 324,-79 324,-79 324,-39 324,-39 324,-33 330,-27 336,-27"/>
<text text-anchor="start" x="325" y="-88.4" font-family="Arial" font-size="2.00"> </text>
<text text-anchor="start" x="325" y="-82.4" font-family="Arial" font-size="7.00"> &#160;7</text>
<text text-anchor="start" x="339" y="-65.8" font-family="Arial" font-weight="bold" font-size="14.00">Predict 6.522</text>
<text text-anchor="start" x="361" y="-48.8" font-family="Arial" font-weight="bold" font-size="14.00">n = 15</text>
<text text-anchor="start" x="379.5" y="-30.8" font-family="Arial" font-size="9.00"> </text>
<path fill="none" stroke="#333333" d="M336,-27C336,-27 426,-27 426,-27 432,-27 438,-33 438,-39 438,-39 438,-79 438,-79 438,-85 432,-91 426,-91 426,-91 336,-91 336,-91 330,-91 324,-85 324,-79 324,-79 324,-39 324,-39 324,-33 330,-27 336,-27"/>
<text text-anchor="start" x="379" y="-12.8" font-family="Arial" font-weight="bold" font-size="14.00"> </text>
</g>
<!-- 6&#45;&gt;7 -->
<g id="edge7" class="edge">
<title>6&#45;&gt;7</title>
<path fill="none" stroke="#888888" d="M451.25,-153.67C444.57,-144.76 437.63,-135.51 430.83,-126.44"/>
<polygon fill="#888888" stroke="#888888" points="433.43,-124.08 424.63,-118.18 427.83,-128.28 433.43,-124.08"/>
</g>
<!-- 8 -->
<g id="node9" class="node">
<title>8</title>
<text text-anchor="start" x="508.5" y="-99.8" font-family="Arial" font-weight="bold" font-size="14.00"> ≥ 6.615</text>
<path fill="#f8766d" fill-opacity="0.474510" stroke="transparent" d="M492,-27C492,-27 574,-27 574,-27 580,-27 586,-33 586,-39 586,-39 586,-79 586,-79 586,-85 580,-91 574,-91 574,-91 492,-91 492,-91 486,-91 480,-85 480,-79 480,-79 480,-39 480,-39 480,-33 486,-27 492,-27"/>
<text text-anchor="start" x="481" y="-88.4" font-family="Arial" font-size="2.00"> </text>
<text text-anchor="start" x="481" y="-82.4" font-family="Arial" font-size="7.00"> &#160;8</text>
<text text-anchor="start" x="495" y="-65.8" font-family="Arial" font-weight="bold" font-size="14.00">Predict 8.08</text>
<text text-anchor="start" x="517" y="-48.8" font-family="Arial" font-weight="bold" font-size="14.00">n = 6</text>
<text text-anchor="start" x="531.5" y="-30.8" font-family="Arial" font-size="9.00"> </text>
<path fill="none" stroke="#333333" d="M492,-27C492,-27 574,-27 574,-27 580,-27 586,-33 586,-39 586,-39 586,-79 586,-79 586,-85 580,-91 574,-91 574,-91 492,-91 492,-91 486,-91 480,-85 480,-79 480,-79 480,-39 480,-39 480,-33 486,-27 492,-27"/>
<text text-anchor="start" x="531" y="-12.8" font-family="Arial" font-weight="bold" font-size="14.00"> </text>
</g>
<!-- 6&#45;&gt;8 -->
<g id="edge8" class="edge">
<title>6&#45;&gt;8</title>
<path fill="none" stroke="#888888" d="M509.58,-153.67C511.67,-145.3 513.84,-136.64 515.97,-128.1"/>
<polygon fill="#888888" stroke="#888888" points="519.43,-128.73 518.46,-118.18 512.63,-127.03 519.43,-128.73"/>
</g>
<!-- 11 -->
<g id="node12" class="node">
<title>11</title>
<text text-anchor="start" x="660" y="-99.8" font-family="Arial" font-weight="bold" font-size="14.00"> &lt; 5.575</text>
<path fill="#f8766d" fill-opacity="0.717647" stroke="transparent" d="M640,-27C640,-27 730,-27 730,-27 736,-27 742,-33 742,-39 742,-39 742,-79 742,-79 742,-85 736,-91 730,-91 730,-91 640,-91 640,-91 634,-91 628,-85 628,-79 628,-79 628,-39 628,-39 628,-33 634,-27 640,-27"/>
<text text-anchor="start" x="629" y="-88.4" font-family="Arial" font-size="2.00"> </text>
<text text-anchor="start" x="629" y="-82.4" font-family="Arial" font-size="7.00"> &#160;11</text>
<text text-anchor="start" x="643" y="-65.8" font-family="Arial" font-weight="bold" font-size="14.00">Predict 4.844</text>
<text text-anchor="start" x="665" y="-48.8" font-family="Arial" font-weight="bold" font-size="14.00">n = 42</text>
<text text-anchor="start" x="683.5" y="-30.8" font-family="Arial" font-size="9.00"> </text>
<path fill="none" stroke="#333333" d="M640,-27C640,-27 730,-27 730,-27 736,-27 742,-33 742,-39 742,-39 742,-79 742,-79 742,-85 736,-91 730,-91 730,-91 640,-91 640,-91 634,-91 628,-85 628,-79 628,-79 628,-39 628,-39 628,-33 634,-27 640,-27"/>
<text text-anchor="start" x="683" y="-12.8" font-family="Arial" font-weight="bold" font-size="14.00"> </text>
</g>
<!-- 10&#45;&gt;11 -->
<g id="edge11" class="edge">
<title>10&#45;&gt;11</title>
<path fill="none" stroke="#888888" d="M708.42,-153.67C706.33,-145.3 704.16,-136.64 702.03,-128.1"/>
<polygon fill="#888888" stroke="#888888" points="705.37,-127.03 699.54,-118.18 698.57,-128.73 705.37,-127.03"/>
</g>
<!-- 12 -->
<g id="node13" class="node">
<title>12</title>
<text text-anchor="start" x="816.5" y="-99.8" font-family="Arial" font-weight="bold" font-size="14.00"> ≥ 5.575</text>
<path fill="#f8766d" fill-opacity="0.627451" stroke="transparent" d="M796,-27C796,-27 886,-27 886,-27 892,-27 898,-33 898,-39 898,-39 898,-79 898,-79 898,-85 892,-91 886,-91 886,-91 796,-91 796,-91 790,-91 784,-85 784,-79 784,-79 784,-39 784,-39 784,-33 790,-27 796,-27"/>
<text text-anchor="start" x="785" y="-88.4" font-family="Arial" font-size="2.00"> </text>
<text text-anchor="start" x="785" y="-82.4" font-family="Arial" font-size="7.00"> &#160;12</text>
<text text-anchor="start" x="799" y="-65.8" font-family="Arial" font-weight="bold" font-size="14.00">Predict 6.065</text>
<text text-anchor="start" x="821" y="-48.8" font-family="Arial" font-weight="bold" font-size="14.00">n = 36</text>
<text text-anchor="start" x="839.5" y="-30.8" font-family="Arial" font-size="9.00"> </text>
<path fill="none" stroke="#333333" d="M796,-27C796,-27 886,-27 886,-27 892,-27 898,-33 898,-39 898,-39 898,-79 898,-79 898,-85 892,-91 886,-91 886,-91 796,-91 796,-91 790,-91 784,-85 784,-79 784,-79 784,-39 784,-39 784,-33 790,-27 796,-27"/>
<text text-anchor="start" x="839" y="-12.8" font-family="Arial" font-weight="bold" font-size="14.00"> </text>
</g>
<!-- 10&#45;&gt;12 -->
<g id="edge12" class="edge">
<title>10&#45;&gt;12</title>
<path fill="none" stroke="#888888" d="M768.28,-153.67C775.27,-144.67 782.53,-135.32 789.64,-126.16"/>
<polygon fill="#888888" stroke="#888888" points="792.47,-128.22 795.84,-118.18 786.94,-123.93 792.47,-128.22"/>
</g>
<!-- 14 -->
<g id="node14" class="node">
<title>14</title>
<text text-anchor="start" x="975.5" y="-99.8" font-family="Arial" font-weight="bold" font-size="14.00"> &lt; 8.14</text>
<path fill="#f8766d" fill-opacity="0.521569" stroke="transparent" d="M952,-27C952,-27 1042,-27 1042,-27 1048,-27 1054,-33 1054,-39 1054,-39 1054,-79 1054,-79 1054,-85 1048,-91 1042,-91 1042,-91 952,-91 952,-91 946,-91 940,-85 940,-79 940,-79 940,-39 940,-39 940,-33 946,-27 952,-27"/>
<text text-anchor="start" x="941" y="-88.4" font-family="Arial" font-size="2.00"> </text>
<text text-anchor="start" x="941" y="-82.4" font-family="Arial" font-size="7.00"> &#160;14</text>
<text text-anchor="start" x="955" y="-65.8" font-family="Arial" font-weight="bold" font-size="14.00">Predict 7.442</text>
<text text-anchor="start" x="977" y="-48.8" font-family="Arial" font-weight="bold" font-size="14.00">n = 20</text>
<text text-anchor="start" x="995.5" y="-30.8" font-family="Arial" font-size="9.00"> </text>
<path fill="none" stroke="#333333" d="M952,-27C952,-27 1042,-27 1042,-27 1048,-27 1054,-33 1054,-39 1054,-39 1054,-79 1054,-79 1054,-85 1048,-91 1042,-91 1042,-91 952,-91 952,-91 946,-91 940,-85 940,-79 940,-79 940,-39 940,-39 940,-33 946,-27 952,-27"/>
<text text-anchor="start" x="995" y="-12.8" font-family="Arial" font-weight="bold" font-size="14.00"> </text>
</g>
<!-- 13&#45;&gt;14 -->
<g id="edge13" class="edge">
<title>13&#45;&gt;14</title>
<path fill="none" stroke="#888888" d="M997,-153.67C997,-145.39 997,-136.83 997,-128.38"/>
<polygon fill="#888888" stroke="#888888" points="1000.5,-128.18 997,-118.18 993.5,-128.18 1000.5,-128.18"/>
</g>
<!-- 15 -->
<g id="node15" class="node">
<title>15</title>
<text text-anchor="start" x="1132" y="-99.8" font-family="Arial" font-weight="bold" font-size="14.00"> ≥ 8.14</text>
<path fill="#f8766d" fill-opacity="0.376471" stroke="transparent" d="M1108,-27C1108,-27 1198,-27 1198,-27 1204,-27 1210,-33 1210,-39 1210,-39 1210,-79 1210,-79 1210,-85 1204,-91 1198,-91 1198,-91 1108,-91 1108,-91 1102,-91 1096,-85 1096,-79 1096,-79 1096,-39 1096,-39 1096,-33 1102,-27 1108,-27"/>
<text text-anchor="start" x="1097" y="-88.4" font-family="Arial" font-size="2.00"> </text>
<text text-anchor="start" x="1097" y="-82.4" font-family="Arial" font-size="7.00"> &#160;15</text>
<text text-anchor="start" x="1111" y="-65.8" font-family="Arial" font-weight="bold" font-size="14.00">Predict 9.401</text>
<text text-anchor="start" x="1137" y="-48.8" font-family="Arial" font-weight="bold" font-size="14.00">n = 7</text>
<text text-anchor="start" x="1151.5" y="-30.8" font-family="Arial" font-size="9.00"> </text>
<path fill="none" stroke="#333333" d="M1108,-27C1108,-27 1198,-27 1198,-27 1204,-27 1210,-33 1210,-39 1210,-39 1210,-79 1210,-79 1210,-85 1204,-91 1198,-91 1198,-91 1108,-91 1108,-91 1102,-91 1096,-85 1096,-79 1096,-79 1096,-39 1096,-39 1096,-33 1102,-27 1108,-27"/>
<text text-anchor="start" x="1151" y="-12.8" font-family="Arial" font-weight="bold" font-size="14.00"> </text>
</g>
<!-- 13&#45;&gt;15 -->
<g id="edge14" class="edge">
<title>13&#45;&gt;15</title>
<path fill="none" stroke="#888888" d="M1056.87,-153.67C1066.38,-144.39 1076.28,-134.75 1085.95,-125.33"/>
<polygon fill="#888888" stroke="#888888" points="1088.57,-127.66 1093.29,-118.18 1083.69,-122.65 1088.57,-127.66"/>
</g>
</g>
</svg>
