<?xml version="1.0" encoding="UTF-8" standalone="no"?>
<!DOCTYPE svg PUBLIC "-//W3C//DTD SVG 1.1//EN"
 "http://www.w3.org/Graphics/SVG/1.1/DTD/svg11.dtd">
<!-- Generated by graphviz version 2.50.0 (20211204.2007)
 -->
<!-- Pages: 1 -->
<svg width="640pt" height="588pt"
 viewBox="0.00 0.00 640.00 588.00" xmlns="http://www.w3.org/2000/svg" xmlns:xlink="http://www.w3.org/1999/xlink">
<g id="graph0" class="graph" transform="scale(1 1) rotate(0) translate(4 584)">
<polygon fill="white" stroke="transparent" points="-4,4 -4,-584 636,-584 636,4 -4,4"/>
<!-- 1 -->
<g id="node1" class="node">
<title>1</title>
<text text-anchor="start" x="320" y="-561.8" font-family="Arial" font-weight="bold" font-size="14.00"> </text>
<path fill="#ebebeb" stroke="transparent" d="M280,-489C280,-489 364,-489 364,-489 370,-489 376,-495 376,-501 376,-501 376,-541 376,-541 376,-547 370,-553 364,-553 364,-553 280,-553 280,-553 274,-553 268,-547 268,-541 268,-541 268,-501 268,-501 268,-495 274,-489 280,-489"/>
<text text-anchor="start" x="269" y="-550.4" font-family="Arial" font-size="2.00"> </text>
<text text-anchor="start" x="269" y="-544.4" font-family="Arial" font-size="7.00"> &#160;1</text>
<text text-anchor="start" x="283" y="-527.8" font-family="Arial" font-weight="bold" font-size="14.00">Mean: 10.44</text>
<text text-anchor="start" x="298.5" y="-510.8" font-family="Arial" font-weight="bold" font-size="14.00">n = 672</text>
<text text-anchor="start" x="320.5" y="-492.8" font-family="Arial" font-size="9.00"> </text>
<path fill="none" stroke="#333333" d="M280,-489C280,-489 364,-489 364,-489 370,-489 376,-495 376,-501 376,-501 376,-541 376,-541 376,-547 370,-553 364,-553 364,-553 280,-553 280,-553 274,-553 268,-547 268,-541 268,-541 268,-501 268,-501 268,-495 274,-489 280,-489"/>
<text text-anchor="start" x="307.5" y="-474.8" font-family="Arial" font-weight="bold" font-size="14.00">time</text>
</g>
<!-- 2 -->
<g id="node2" class="node">
<title>2</title>
<text text-anchor="start" x="216.5" y="-407.8" font-family="Arial" font-weight="bold" font-size="14.00"> &lt; 17.5</text>
<path fill="#ebebeb" stroke="transparent" d="M200,-335C200,-335 276,-335 276,-335 282,-335 288,-341 288,-347 288,-347 288,-387 288,-387 288,-393 282,-399 276,-399 276,-399 200,-399 200,-399 194,-399 188,-393 188,-387 188,-387 188,-347 188,-347 188,-341 194,-335 200,-335"/>
<text text-anchor="start" x="189" y="-396.4" font-family="Arial" font-size="2.00"> </text>
<text text-anchor="start" x="189" y="-390.4" font-family="Arial" font-size="7.00"> &#160;2</text>
<text text-anchor="start" x="203" y="-373.8" font-family="Arial" font-weight="bold" font-size="14.00">Mean: 9.87</text>
<text text-anchor="start" x="214.5" y="-356.8" font-family="Arial" font-weight="bold" font-size="14.00">n = 504</text>
<text text-anchor="start" x="236.5" y="-338.8" font-family="Arial" font-size="9.00"> </text>
<path fill="none" stroke="#333333" d="M200,-335C200,-335 276,-335 276,-335 282,-335 288,-341 288,-347 288,-347 288,-387 288,-387 288,-393 282,-399 276,-399 276,-399 200,-399 200,-399 194,-399 188,-393 188,-387 188,-387 188,-347 188,-347 188,-341 194,-335 200,-335"/>
<text text-anchor="start" x="223.5" y="-320.8" font-family="Arial" font-weight="bold" font-size="14.00">time</text>
</g>
<!-- 1&#45;&gt;2 -->
<g id="edge1" class="edge">
<title>1&#45;&gt;2</title>
<path fill="none" stroke="#888888" d="M289.76,-461.67C284.94,-452.94 279.94,-443.88 275.02,-434.99"/>
<polygon fill="#888888" stroke="#888888" points="278.05,-433.24 270.15,-426.18 271.92,-436.62 278.05,-433.24"/>
</g>
<!-- 7 -->
<g id="node3" class="node">
<title>7</title>
<text text-anchor="start" x="386" y="-407.8" font-family="Arial" font-weight="bold" font-size="14.00"> ≥ 17.5</text>
<path fill="#ebebeb" stroke="transparent" d="M365,-335C365,-335 449,-335 449,-335 455,-335 461,-341 461,-347 461,-347 461,-387 461,-387 461,-393 455,-399 449,-399 449,-399 365,-399 365,-399 359,-399 353,-393 353,-387 353,-387 353,-347 353,-347 353,-341 359,-335 365,-335"/>
<text text-anchor="start" x="354" y="-396.4" font-family="Arial" font-size="2.00"> </text>
<text text-anchor="start" x="354" y="-390.4" font-family="Arial" font-size="7.00"> &#160;7</text>
<text text-anchor="start" x="368" y="-373.8" font-family="Arial" font-weight="bold" font-size="14.00">Mean: 12.13</text>
<text text-anchor="start" x="383.5" y="-356.8" font-family="Arial" font-weight="bold" font-size="14.00">n = 168</text>
<text text-anchor="start" x="405.5" y="-338.8" font-family="Arial" font-size="9.00"> </text>
<path fill="none" stroke="#333333" d="M365,-335C365,-335 449,-335 449,-335 455,-335 461,-341 461,-347 461,-347 461,-387 461,-387 461,-393 455,-399 449,-399 449,-399 365,-399 365,-399 359,-399 353,-393 353,-387 353,-387 353,-347 353,-347 353,-341 359,-335 365,-335"/>
<text text-anchor="start" x="392.5" y="-320.8" font-family="Arial" font-weight="bold" font-size="14.00">time</text>
</g>
<!-- 1&#45;&gt;7 -->
<g id="edge2" class="edge">
<title>1&#45;&gt;7</title>
<path fill="none" stroke="#888888" d="M354.62,-461.67C359.5,-452.94 364.57,-443.88 369.54,-434.99"/>
<polygon fill="#888888" stroke="#888888" points="372.64,-436.61 374.47,-426.18 366.53,-433.2 372.64,-436.61"/>
</g>
<!-- 3 -->
<g id="node4" class="node">
<title>3</title>
<text text-anchor="start" x="51.5" y="-253.8" font-family="Arial" font-weight="bold" font-size="14.00"> &lt; 5.5</text>
<path fill="#f8766d" fill-opacity="0.874510" stroke="transparent" d="M24,-181C24,-181 114,-181 114,-181 120,-181 126,-187 126,-193 126,-193 126,-233 126,-233 126,-239 120,-245 114,-245 114,-245 24,-245 24,-245 18,-245 12,-239 12,-233 12,-233 12,-193 12,-193 12,-187 18,-181 24,-181"/>
<text text-anchor="start" x="13" y="-242.4" font-family="Arial" font-size="2.00"> </text>
<text text-anchor="start" x="13" y="-236.4" font-family="Arial" font-size="7.00"> &#160;3</text>
<text text-anchor="start" x="27" y="-219.8" font-family="Arial" font-weight="bold" font-size="14.00">Predict 7.922</text>
<text text-anchor="start" x="45.5" y="-202.8" font-family="Arial" font-weight="bold" font-size="14.00">n = 168</text>
<text text-anchor="start" x="67.5" y="-184.8" font-family="Arial" font-size="9.00"> </text>
<path fill="none" stroke="#333333" d="M24,-181C24,-181 114,-181 114,-181 120,-181 126,-187 126,-193 126,-193 126,-233 126,-233 126,-239 120,-245 114,-245 114,-245 24,-245 24,-245 18,-245 12,-239 12,-233 12,-233 12,-193 12,-193 12,-187 18,-181 24,-181"/>
<text text-anchor="start" x="67" y="-166.8" font-family="Arial" font-weight="bold" font-size="14.00"> </text>
</g>
<!-- 2&#45;&gt;3 -->
<g id="edge3" class="edge">
<title>2&#45;&gt;3</title>
<path fill="none" stroke="#888888" d="M175.55,-309.83C164.37,-299.77 152.63,-289.22 141.2,-278.93"/>
<polygon fill="#888888" stroke="#888888" points="143.51,-276.31 133.74,-272.23 138.83,-281.52 143.51,-276.31"/>
</g>
<!-- 4 -->
<g id="node5" class="node">
<title>4</title>
<text text-anchor="start" x="221" y="-253.8" font-family="Arial" font-weight="bold" font-size="14.00"> ≥ 5.5</text>
<text text-anchor="start" x="166" y="-209.3" font-family="Arial" font-size="14.00"> &#160;&#160;&#160;</text>
<path fill="#ebebeb" stroke="transparent" d="M196,-181C196,-181 280,-181 280,-181 286,-181 292,-187 292,-193 292,-193 292,-233 292,-233 292,-239 286,-245 280,-245 280,-245 196,-245 196,-245 190,-245 184,-239 184,-233 184,-233 184,-193 184,-193 184,-187 190,-181 196,-181"/>
<text text-anchor="start" x="185" y="-242.4" font-family="Arial" font-size="2.00"> </text>
<text text-anchor="start" x="185" y="-236.4" font-family="Arial" font-size="7.00"> &#160;4</text>
<text text-anchor="start" x="199" y="-219.8" font-family="Arial" font-weight="bold" font-size="14.00">Mean: 10.84</text>
<text text-anchor="start" x="214.5" y="-202.8" font-family="Arial" font-weight="bold" font-size="14.00">n = 336</text>
<text text-anchor="start" x="236.5" y="-184.8" font-family="Arial" font-size="9.00"> </text>
<path fill="none" stroke="#333333" d="M196,-181C196,-181 280,-181 280,-181 286,-181 292,-187 292,-193 292,-193 292,-233 292,-233 292,-239 286,-245 280,-245 280,-245 196,-245 196,-245 190,-245 184,-239 184,-233 184,-233 184,-193 184,-193 184,-187 190,-181 196,-181"/>
<text text-anchor="start" x="294" y="-209.3" font-family="Arial" font-size="14.00"> &#160;&#160;&#160;</text>
<text text-anchor="start" x="180.5" y="-166.8" font-family="Arial" font-weight="bold" font-size="14.00">prev_168h_inflow</text>
</g>
<!-- 2&#45;&gt;4 -->
<g id="edge4" class="edge">
<title>2&#45;&gt;4</title>
<path fill="none" stroke="#888888" d="M238,-307.67C238,-299.39 238,-290.83 238,-282.38"/>
<polygon fill="#888888" stroke="#888888" points="241.5,-282.18 238,-272.18 234.5,-282.18 241.5,-282.18"/>
</g>
<!-- 8 -->
<g id="node8" class="node">
<title>8</title>
<text text-anchor="start" x="385.5" y="-253.8" font-family="Arial" font-weight="bold" font-size="14.00"> &lt; 21.5</text>
<path fill="#f8766d" fill-opacity="0.376471" stroke="transparent" d="M362,-181C362,-181 452,-181 452,-181 458,-181 464,-187 464,-193 464,-193 464,-233 464,-233 464,-239 458,-245 452,-245 452,-245 362,-245 362,-245 356,-245 350,-239 350,-233 350,-233 350,-193 350,-193 350,-187 356,-181 362,-181"/>
<text text-anchor="start" x="351" y="-242.4" font-family="Arial" font-size="2.00"> </text>
<text text-anchor="start" x="351" y="-236.4" font-family="Arial" font-size="7.00"> &#160;8</text>
<text text-anchor="start" x="365" y="-219.8" font-family="Arial" font-weight="bold" font-size="14.00">Predict 13.47</text>
<text text-anchor="start" x="384" y="-202.8" font-family="Arial" font-weight="bold" font-size="14.00">n = 112</text>
<text text-anchor="start" x="405.5" y="-184.8" font-family="Arial" font-size="9.00"> </text>
<path fill="none" stroke="#333333" d="M362,-181C362,-181 452,-181 452,-181 458,-181 464,-187 464,-193 464,-193 464,-233 464,-233 464,-239 458,-245 452,-245 452,-245 362,-245 362,-245 356,-245 350,-239 350,-233 350,-233 350,-193 350,-193 350,-187 356,-181 362,-181"/>
<text text-anchor="start" x="405" y="-166.8" font-family="Arial" font-weight="bold" font-size="14.00"> </text>
</g>
<!-- 7&#45;&gt;8 -->
<g id="edge7" class="edge">
<title>7&#45;&gt;8</title>
<path fill="none" stroke="#888888" d="M407,-307.67C407,-299.39 407,-290.83 407,-282.38"/>
<polygon fill="#888888" stroke="#888888" points="410.5,-282.18 407,-272.18 403.5,-282.18 410.5,-282.18"/>
</g>
<!-- 9 -->
<g id="node9" class="node">
<title>9</title>
<text text-anchor="start" x="542" y="-253.8" font-family="Arial" font-weight="bold" font-size="14.00"> ≥ 21.5</text>
<path fill="#f8766d" fill-opacity="0.737255" stroke="transparent" d="M518,-181C518,-181 608,-181 608,-181 614,-181 620,-187 620,-193 620,-193 620,-233 620,-233 620,-239 614,-245 608,-245 608,-245 518,-245 518,-245 512,-245 506,-239 506,-233 506,-233 506,-193 506,-193 506,-187 512,-181 518,-181"/>
<text text-anchor="start" x="507" y="-242.4" font-family="Arial" font-size="2.00"> </text>
<text text-anchor="start" x="507" y="-236.4" font-family="Arial" font-size="7.00"> &#160;9</text>
<text text-anchor="start" x="521" y="-219.8" font-family="Arial" font-weight="bold" font-size="14.00">Predict 9.444</text>
<text text-anchor="start" x="543" y="-202.8" font-family="Arial" font-weight="bold" font-size="14.00">n = 56</text>
<text text-anchor="start" x="561.5" y="-184.8" font-family="Arial" font-size="9.00"> </text>
<path fill="none" stroke="#333333" d="M518,-181C518,-181 608,-181 608,-181 614,-181 620,-187 620,-193 620,-193 620,-233 620,-233 620,-239 614,-245 608,-245 608,-245 518,-245 518,-245 512,-245 506,-239 506,-233 506,-233 506,-193 506,-193 506,-187 512,-181 518,-181"/>
<text text-anchor="start" x="561" y="-166.8" font-family="Arial" font-weight="bold" font-size="14.00"> </text>
</g>
<!-- 7&#45;&gt;9 -->
<g id="edge8" class="edge">
<title>7&#45;&gt;9</title>
<path fill="none" stroke="#888888" d="M466.87,-307.67C476.38,-298.39 486.28,-288.75 495.95,-279.33"/>
<polygon fill="#888888" stroke="#888888" points="498.57,-281.66 503.29,-272.18 493.69,-276.65 498.57,-281.66"/>
</g>
<!-- 5 -->
<g id="node6" class="node">
<title>5</title>
<text text-anchor="start" x="135.5" y="-99.8" font-family="Arial" font-weight="bold" font-size="14.00"> &lt; 11.23</text>
<path fill="#f8766d" fill-opacity="0.647059" stroke="transparent" d="M115,-27C115,-27 205,-27 205,-27 211,-27 217,-33 217,-39 217,-39 217,-79 217,-79 217,-85 211,-91 205,-91 205,-91 115,-91 115,-91 109,-91 103,-85 103,-79 103,-79 103,-39 103,-39 103,-33 109,-27 115,-27"/>
<text text-anchor="start" x="104" y="-88.4" font-family="Arial" font-size="2.00"> </text>
<text text-anchor="start" x="104" y="-82.4" font-family="Arial" font-size="7.00"> &#160;5</text>
<text text-anchor="start" x="118" y="-65.8" font-family="Arial" font-weight="bold" font-size="14.00">Predict 10.47</text>
<text text-anchor="start" x="136.5" y="-48.8" font-family="Arial" font-weight="bold" font-size="14.00">n = 247</text>
<text text-anchor="start" x="158.5" y="-30.8" font-family="Arial" font-size="9.00"> </text>
<path fill="none" stroke="#333333" d="M115,-27C115,-27 205,-27 205,-27 211,-27 217,-33 217,-39 217,-39 217,-79 217,-79 217,-85 211,-91 205,-91 205,-91 115,-91 115,-91 109,-91 103,-85 103,-79 103,-79 103,-39 103,-39 103,-33 109,-27 115,-27"/>
<text text-anchor="start" x="158" y="-12.8" font-family="Arial" font-weight="bold" font-size="14.00"> </text>
</g>
<!-- 4&#45;&gt;5 -->
<g id="edge5" class="edge">
<title>4&#45;&gt;5</title>
<path fill="none" stroke="#888888" d="M208.07,-153.67C203.63,-145.03 199.04,-136.07 194.52,-127.27"/>
<polygon fill="#888888" stroke="#888888" points="197.53,-125.48 189.85,-118.18 191.31,-128.67 197.53,-125.48"/>
</g>
<!-- 6 -->
<g id="node7" class="node">
<title>6</title>
<text text-anchor="start" x="292" y="-99.8" font-family="Arial" font-weight="bold" font-size="14.00"> ≥ 11.23</text>
<path fill="#f8766d" fill-opacity="0.521569" stroke="transparent" d="M272,-27C272,-27 361,-27 361,-27 367,-27 373,-33 373,-39 373,-39 373,-79 373,-79 373,-85 367,-91 361,-91 361,-91 272,-91 272,-91 266,-91 260,-85 260,-79 260,-79 260,-39 260,-39 260,-33 266,-27 272,-27"/>
<text text-anchor="start" x="261" y="-88.4" font-family="Arial" font-size="2.00"> </text>
<text text-anchor="start" x="261" y="-82.4" font-family="Arial" font-size="7.00"> &#160;6</text>
<text text-anchor="start" x="275" y="-65.8" font-family="Arial" font-weight="bold" font-size="14.00">Predict 11.87</text>
<text text-anchor="start" x="296.5" y="-48.8" font-family="Arial" font-weight="bold" font-size="14.00">n = 89</text>
<text text-anchor="start" x="315" y="-30.8" font-family="Arial" font-size="9.00"> </text>
<path fill="none" stroke="#333333" d="M272,-27C272,-27 361,-27 361,-27 367,-27 373,-33 373,-39 373,-39 373,-79 373,-79 373,-85 367,-91 361,-91 361,-91 272,-91 272,-91 266,-91 260,-85 260,-79 260,-79 260,-39 260,-39 260,-33 266,-27 272,-27"/>
<text text-anchor="start" x="314.5" y="-12.8" font-family="Arial" font-weight="bold" font-size="14.00"> </text>
</g>
<!-- 4&#45;&gt;6 -->
<g id="edge6" class="edge">
<title>4&#45;&gt;6</title>
<path fill="none" stroke="#888888" d="M267.93,-153.67C272.37,-145.03 276.96,-136.07 281.48,-127.27"/>
<polygon fill="#888888" stroke="#888888" points="284.69,-128.67 286.15,-118.18 278.47,-125.48 284.69,-128.67"/>
</g>
</g>
</svg>
