<?xml version="1.0" encoding="utf-8"?>
<svg xmlns="http://www.w3.org/2000/svg" xmlns:xlink="http://www.w3.org/1999/xlink" width="500" height="250" viewBox="0 0 2000 1000">
<defs>
  <clipPath id="clip080">
    <rect x="0" y="0" width="2000" height="1000"/>
  </clipPath>
</defs>
<path clip-path="url(#clip080)" d="M0 1000 L2000 1000 L2000 0 L0 0  Z" fill="#ffffff" fill-rule="evenodd" fill-opacity="1"/>
<defs>
  <clipPath id="clip081">
    <rect x="400" y="0" width="1401" height="1000"/>
  </clipPath>
</defs>
<path clip-path="url(#clip080)" d="M192.103 897.848 L1445.35 897.848 L1445.35 47.2441 L192.103 47.2441  Z" fill="#ffffff" fill-rule="evenodd" fill-opacity="1"/>
<defs>
  <clipPath id="clip082">
    <rect x="192" y="47" width="1254" height="852"/>
  </clipPath>
</defs>
<polyline clip-path="url(#clip082)" style="stroke:#000000; stroke-linecap:round; stroke-linejoin:round; stroke-width:2; stroke-opacity:0.1; fill:none" points="227.573,897.848 227.573,47.2441 "/>
<polyline clip-path="url(#clip082)" style="stroke:#000000; stroke-linecap:round; stroke-linejoin:round; stroke-width:2; stroke-opacity:0.1; fill:none" points="567.397,897.848 567.397,47.2441 "/>
<polyline clip-path="url(#clip082)" style="stroke:#000000; stroke-linecap:round; stroke-linejoin:round; stroke-width:2; stroke-opacity:0.1; fill:none" points="907.221,897.848 907.221,47.2441 "/>
<polyline clip-path="url(#clip082)" style="stroke:#000000; stroke-linecap:round; stroke-linejoin:round; stroke-width:2; stroke-opacity:0.1; fill:none" points="1247.05,897.848 1247.05,47.2441 "/>
<polyline clip-path="url(#clip080)" style="stroke:#000000; stroke-linecap:round; stroke-linejoin:round; stroke-width:4; stroke-opacity:1; fill:none" points="192.103,897.848 1445.35,897.848 "/>
<polyline clip-path="url(#clip080)" style="stroke:#000000; stroke-linecap:round; stroke-linejoin:round; stroke-width:4; stroke-opacity:1; fill:none" points="227.573,897.848 227.573,878.95 "/>
<polyline clip-path="url(#clip080)" style="stroke:#000000; stroke-linecap:round; stroke-linejoin:round; stroke-width:4; stroke-opacity:1; fill:none" points="567.397,897.848 567.397,878.95 "/>
<polyline clip-path="url(#clip080)" style="stroke:#000000; stroke-linecap:round; stroke-linejoin:round; stroke-width:4; stroke-opacity:1; fill:none" points="907.221,897.848 907.221,878.95 "/>
<polyline clip-path="url(#clip080)" style="stroke:#000000; stroke-linecap:round; stroke-linejoin:round; stroke-width:4; stroke-opacity:1; fill:none" points="1247.05,897.848 1247.05,878.95 "/>
<path clip-path="url(#clip080)" d="M82.7035 958.021 L101.063 958.021 L101.063 962.448 L76.3754 962.448 L76.3754 958.021 Q79.3702 954.922 84.5264 949.714 Q89.7087 944.479 91.0368 942.969 Q93.5628 940.13 94.5524 938.177 Q95.568 936.198 95.568 934.297 Q95.568 931.198 93.3806 929.245 Q91.2191 927.292 87.7295 927.292 Q85.2556 927.292 82.4952 928.151 Q79.7608 929.011 76.6359 930.755 L76.6359 925.443 Q79.8129 924.167 82.5733 923.516 Q85.3337 922.865 87.6254 922.865 Q93.667 922.865 97.2607 925.886 Q100.854 928.906 100.854 933.958 Q100.854 936.354 99.943 938.516 Q99.0576 940.651 96.6878 943.568 Q96.0368 944.323 92.5472 947.943 Q89.0577 951.536 82.7035 958.021 Z" fill="#000000" fill-rule="nonzero" fill-opacity="1" /><path clip-path="url(#clip080)" d="M123.354 927.031 Q119.292 927.031 117.235 931.042 Q115.203 935.026 115.203 943.047 Q115.203 951.042 117.235 955.052 Q119.292 959.036 123.354 959.036 Q127.443 959.036 129.474 955.052 Q131.531 951.042 131.531 943.047 Q131.531 935.026 129.474 931.042 Q127.443 927.031 123.354 927.031 M123.354 922.865 Q129.891 922.865 133.328 928.047 Q136.792 933.203 136.792 943.047 Q136.792 952.865 133.328 958.047 Q129.891 963.203 123.354 963.203 Q116.818 963.203 113.354 958.047 Q109.917 952.865 109.917 943.047 Q109.917 933.203 113.354 928.047 Q116.818 922.865 123.354 922.865 Z" fill="#000000" fill-rule="nonzero" fill-opacity="1" /><path clip-path="url(#clip080)" d="M150.568 958.021 L168.927 958.021 L168.927 962.448 L144.24 962.448 L144.24 958.021 Q147.234 954.922 152.391 949.714 Q157.573 944.479 158.901 942.969 Q161.427 940.13 162.417 938.177 Q163.432 936.198 163.432 934.297 Q163.432 931.198 161.245 929.245 Q159.083 927.292 155.594 927.292 Q153.12 927.292 150.359 928.151 Q147.625 929.011 144.5 930.755 L144.5 925.443 Q147.677 924.167 150.438 923.516 Q153.198 922.865 155.49 922.865 Q161.531 922.865 165.125 925.886 Q168.719 928.906 168.719 933.958 Q168.719 936.354 167.807 938.516 Q166.922 940.651 164.552 943.568 Q163.901 944.323 160.411 947.943 Q156.922 951.536 150.568 958.021 Z" fill="#000000" fill-rule="nonzero" fill-opacity="1" /><path clip-path="url(#clip080)" d="M184.5 958.021 L202.859 958.021 L202.859 962.448 L178.172 962.448 L178.172 958.021 Q181.167 954.922 186.323 949.714 Q191.505 944.479 192.833 942.969 Q195.359 940.13 196.349 938.177 Q197.364 936.198 197.364 934.297 Q197.364 931.198 195.177 929.245 Q193.015 927.292 189.526 927.292 Q187.052 927.292 184.292 928.151 Q181.557 929.011 178.432 930.755 L178.432 925.443 Q181.609 924.167 184.37 923.516 Q187.13 922.865 189.422 922.865 Q195.463 922.865 199.057 925.886 Q202.651 928.906 202.651 933.958 Q202.651 936.354 201.739 938.516 Q200.854 940.651 198.484 943.568 Q197.833 944.323 194.344 947.943 Q190.854 951.536 184.5 958.021 Z" fill="#000000" fill-rule="nonzero" fill-opacity="1" /><path clip-path="url(#clip080)" d="M210.802 945.703 L224.838 945.703 L224.838 949.974 L210.802 949.974 L210.802 945.703 Z" fill="#000000" fill-rule="nonzero" fill-opacity="1" /><path clip-path="url(#clip080)" d="M244.395 927.031 Q240.333 927.031 238.276 931.042 Q236.244 935.026 236.244 943.047 Q236.244 951.042 238.276 955.052 Q240.333 959.036 244.395 959.036 Q248.484 959.036 250.515 955.052 Q252.572 951.042 252.572 943.047 Q252.572 935.026 250.515 931.042 Q248.484 927.031 244.395 927.031 M244.395 922.865 Q250.932 922.865 254.369 928.047 Q257.833 933.203 257.833 943.047 Q257.833 952.865 254.369 958.047 Q250.932 963.203 244.395 963.203 Q237.859 963.203 234.395 958.047 Q230.958 952.865 230.958 943.047 Q230.958 933.203 234.395 928.047 Q237.859 922.865 244.395 922.865 Z" fill="#000000" fill-rule="nonzero" fill-opacity="1" /><path clip-path="url(#clip080)" d="M265.749 923.568 L290.749 923.568 L290.749 925.807 L276.635 962.448 L271.14 962.448 L284.421 927.995 L265.749 927.995 L265.749 923.568 Z" fill="#000000" fill-rule="nonzero" fill-opacity="1" /><path clip-path="url(#clip080)" d="M297.911 945.703 L311.947 945.703 L311.947 949.974 L297.911 949.974 L297.911 945.703 Z" fill="#000000" fill-rule="nonzero" fill-opacity="1" /><path clip-path="url(#clip080)" d="M321.166 958.021 L329.759 958.021 L329.759 928.36 L320.411 930.235 L320.411 925.443 L329.707 923.568 L334.968 923.568 L334.968 958.021 L343.562 958.021 L343.562 962.448 L321.166 962.448 L321.166 958.021 Z" fill="#000000" fill-rule="nonzero" fill-opacity="1" /><path clip-path="url(#clip080)" d="M365.436 943.984 Q361.686 943.984 359.525 945.99 Q357.39 947.995 357.39 951.51 Q357.39 955.026 359.525 957.031 Q361.686 959.036 365.436 959.036 Q369.186 959.036 371.348 957.031 Q373.509 955 373.509 951.51 Q373.509 947.995 371.348 945.99 Q369.212 943.984 365.436 943.984 M360.176 941.745 Q356.791 940.912 354.89 938.594 Q353.015 936.276 353.015 932.943 Q353.015 928.281 356.322 925.573 Q359.655 922.865 365.436 922.865 Q371.244 922.865 374.551 925.573 Q377.858 928.281 377.858 932.943 Q377.858 936.276 375.957 938.594 Q374.082 940.912 370.723 941.745 Q374.525 942.63 376.634 945.208 Q378.77 947.786 378.77 951.51 Q378.77 957.161 375.306 960.182 Q371.869 963.203 365.436 963.203 Q359.004 963.203 355.541 960.182 Q352.103 957.161 352.103 951.51 Q352.103 947.786 354.239 945.208 Q356.374 942.63 360.176 941.745 M358.249 933.438 Q358.249 936.458 360.124 938.151 Q362.025 939.844 365.436 939.844 Q368.822 939.844 370.723 938.151 Q372.65 936.458 372.65 933.438 Q372.65 930.417 370.723 928.724 Q368.822 927.031 365.436 927.031 Q362.025 927.031 360.124 928.724 Q358.249 930.417 358.249 933.438 Z" fill="#000000" fill-rule="nonzero" fill-opacity="1" /><path clip-path="url(#clip080)" d="M422.476 958.021 L440.835 958.021 L440.835 962.448 L416.148 962.448 L416.148 958.021 Q419.143 954.922 424.299 949.714 Q429.481 944.479 430.809 942.969 Q433.335 940.13 434.325 938.177 Q435.34 936.198 435.34 934.297 Q435.34 931.198 433.153 929.245 Q430.991 927.292 427.502 927.292 Q425.028 927.292 422.268 928.151 Q419.533 929.011 416.408 930.755 L416.408 925.443 Q419.585 924.167 422.346 923.516 Q425.106 922.865 427.398 922.865 Q433.439 922.865 437.033 925.886 Q440.627 928.906 440.627 933.958 Q440.627 936.354 439.715 938.516 Q438.83 940.651 436.46 943.568 Q435.809 944.323 432.32 947.943 Q428.83 951.536 422.476 958.021 Z" fill="#000000" fill-rule="nonzero" fill-opacity="1" /><path clip-path="url(#clip080)" d="M463.127 927.031 Q459.064 927.031 457.007 931.042 Q454.976 935.026 454.976 943.047 Q454.976 951.042 457.007 955.052 Q459.064 959.036 463.127 959.036 Q467.215 959.036 469.246 955.052 Q471.304 951.042 471.304 943.047 Q471.304 935.026 469.246 931.042 Q467.215 927.031 463.127 927.031 M463.127 922.865 Q469.663 922.865 473.101 928.047 Q476.564 933.203 476.564 943.047 Q476.564 952.865 473.101 958.047 Q469.663 963.203 463.127 963.203 Q456.59 963.203 453.127 958.047 Q449.689 952.865 449.689 943.047 Q449.689 933.203 453.127 928.047 Q456.59 922.865 463.127 922.865 Z" fill="#000000" fill-rule="nonzero" fill-opacity="1" /><path clip-path="url(#clip080)" d="M490.34 958.021 L508.699 958.021 L508.699 962.448 L484.012 962.448 L484.012 958.021 Q487.007 954.922 492.163 949.714 Q497.345 944.479 498.673 942.969 Q501.199 940.13 502.189 938.177 Q503.205 936.198 503.205 934.297 Q503.205 931.198 501.017 929.245 Q498.856 927.292 495.366 927.292 Q492.892 927.292 490.132 928.151 Q487.397 929.011 484.272 930.755 L484.272 925.443 Q487.449 924.167 490.21 923.516 Q492.97 922.865 495.262 922.865 Q501.304 922.865 504.897 925.886 Q508.491 928.906 508.491 933.958 Q508.491 936.354 507.58 938.516 Q506.694 940.651 504.324 943.568 Q503.673 944.323 500.184 947.943 Q496.694 951.536 490.34 958.021 Z" fill="#000000" fill-rule="nonzero" fill-opacity="1" /><path clip-path="url(#clip080)" d="M524.272 958.021 L542.631 958.021 L542.631 962.448 L517.944 962.448 L517.944 958.021 Q520.939 954.922 526.095 949.714 Q531.277 944.479 532.605 942.969 Q535.131 940.13 536.121 938.177 Q537.137 936.198 537.137 934.297 Q537.137 931.198 534.949 929.245 Q532.788 927.292 529.298 927.292 Q526.824 927.292 524.064 928.151 Q521.329 929.011 518.205 930.755 L518.205 925.443 Q521.382 924.167 524.142 923.516 Q526.902 922.865 529.194 922.865 Q535.236 922.865 538.829 925.886 Q542.423 928.906 542.423 933.958 Q542.423 936.354 541.512 938.516 Q540.626 940.651 538.256 943.568 Q537.605 944.323 534.116 947.943 Q530.626 951.536 524.272 958.021 Z" fill="#000000" fill-rule="nonzero" fill-opacity="1" /><path clip-path="url(#clip080)" d="M550.574 945.703 L564.611 945.703 L564.611 949.974 L550.574 949.974 L550.574 945.703 Z" fill="#000000" fill-rule="nonzero" fill-opacity="1" /><path clip-path="url(#clip080)" d="M584.168 927.031 Q580.105 927.031 578.048 931.042 Q576.017 935.026 576.017 943.047 Q576.017 951.042 578.048 955.052 Q580.105 959.036 584.168 959.036 Q588.256 959.036 590.287 955.052 Q592.345 951.042 592.345 943.047 Q592.345 935.026 590.287 931.042 Q588.256 927.031 584.168 927.031 M584.168 922.865 Q590.704 922.865 594.142 928.047 Q597.605 933.203 597.605 943.047 Q597.605 952.865 594.142 958.047 Q590.704 963.203 584.168 963.203 Q577.631 963.203 574.168 958.047 Q570.73 952.865 570.73 943.047 Q570.73 933.203 574.168 928.047 Q577.631 922.865 584.168 922.865 Z" fill="#000000" fill-rule="nonzero" fill-opacity="1" /><path clip-path="url(#clip080)" d="M605.522 923.568 L630.522 923.568 L630.522 925.807 L616.407 962.448 L610.912 962.448 L624.194 927.995 L605.522 927.995 L605.522 923.568 Z" fill="#000000" fill-rule="nonzero" fill-opacity="1" /><path clip-path="url(#clip080)" d="M637.683 945.703 L651.719 945.703 L651.719 949.974 L637.683 949.974 L637.683 945.703 Z" fill="#000000" fill-rule="nonzero" fill-opacity="1" /><path clip-path="url(#clip080)" d="M664.558 958.021 L682.917 958.021 L682.917 962.448 L658.23 962.448 L658.23 958.021 Q661.225 954.922 666.381 949.714 Q671.563 944.479 672.891 942.969 Q675.417 940.13 676.407 938.177 Q677.422 936.198 677.422 934.297 Q677.422 931.198 675.235 929.245 Q673.073 927.292 669.584 927.292 Q667.11 927.292 664.35 928.151 Q661.615 929.011 658.49 930.755 L658.49 925.443 Q661.667 924.167 664.428 923.516 Q667.188 922.865 669.48 922.865 Q675.521 922.865 679.115 925.886 Q682.709 928.906 682.709 933.958 Q682.709 936.354 681.797 938.516 Q680.912 940.651 678.542 943.568 Q677.891 944.323 674.402 947.943 Q670.912 951.536 664.558 958.021 Z" fill="#000000" fill-rule="nonzero" fill-opacity="1" /><path clip-path="url(#clip080)" d="M705.209 927.031 Q701.146 927.031 699.089 931.042 Q697.058 935.026 697.058 943.047 Q697.058 951.042 699.089 955.052 Q701.146 959.036 705.209 959.036 Q709.297 959.036 711.328 955.052 Q713.386 951.042 713.386 943.047 Q713.386 935.026 711.328 931.042 Q709.297 927.031 705.209 927.031 M705.209 922.865 Q711.745 922.865 715.183 928.047 Q718.646 933.203 718.646 943.047 Q718.646 952.865 715.183 958.047 Q711.745 963.203 705.209 963.203 Q698.672 963.203 695.209 958.047 Q691.771 952.865 691.771 943.047 Q691.771 933.203 695.209 928.047 Q698.672 922.865 705.209 922.865 Z" fill="#000000" fill-rule="nonzero" fill-opacity="1" /><path clip-path="url(#clip080)" d="M763.199 958.021 L781.558 958.021 L781.558 962.448 L756.871 962.448 L756.871 958.021 Q759.865 954.922 765.022 949.714 Q770.204 944.479 771.532 942.969 Q774.058 940.13 775.048 938.177 Q776.063 936.198 776.063 934.297 Q776.063 931.198 773.876 929.245 Q771.714 927.292 768.225 927.292 Q765.751 927.292 762.99 928.151 Q760.256 929.011 757.131 930.755 L757.131 925.443 Q760.308 924.167 763.068 923.516 Q765.829 922.865 768.121 922.865 Q774.162 922.865 777.756 925.886 Q781.35 928.906 781.35 933.958 Q781.35 936.354 780.438 938.516 Q779.553 940.651 777.183 943.568 Q776.532 944.323 773.042 947.943 Q769.553 951.536 763.199 958.021 Z" fill="#000000" fill-rule="nonzero" fill-opacity="1" /><path clip-path="url(#clip080)" d="M803.85 927.031 Q799.787 927.031 797.73 931.042 Q795.699 935.026 795.699 943.047 Q795.699 951.042 797.73 955.052 Q799.787 959.036 803.85 959.036 Q807.938 959.036 809.969 955.052 Q812.027 951.042 812.027 943.047 Q812.027 935.026 809.969 931.042 Q807.938 927.031 803.85 927.031 M803.85 922.865 Q810.386 922.865 813.823 928.047 Q817.287 933.203 817.287 943.047 Q817.287 952.865 813.823 958.047 Q810.386 963.203 803.85 963.203 Q797.313 963.203 793.85 958.047 Q790.412 952.865 790.412 943.047 Q790.412 933.203 793.85 928.047 Q797.313 922.865 803.85 922.865 Z" fill="#000000" fill-rule="nonzero" fill-opacity="1" /><path clip-path="url(#clip080)" d="M831.063 958.021 L849.422 958.021 L849.422 962.448 L824.735 962.448 L824.735 958.021 Q827.73 954.922 832.886 949.714 Q838.068 944.479 839.396 942.969 Q841.922 940.13 842.912 938.177 Q843.927 936.198 843.927 934.297 Q843.927 931.198 841.74 929.245 Q839.578 927.292 836.089 927.292 Q833.615 927.292 830.855 928.151 Q828.12 929.011 824.995 930.755 L824.995 925.443 Q828.172 924.167 830.933 923.516 Q833.693 922.865 835.985 922.865 Q842.026 922.865 845.62 925.886 Q849.214 928.906 849.214 933.958 Q849.214 936.354 848.302 938.516 Q847.417 940.651 845.047 943.568 Q844.396 944.323 840.907 947.943 Q837.417 951.536 831.063 958.021 Z" fill="#000000" fill-rule="nonzero" fill-opacity="1" /><path clip-path="url(#clip080)" d="M864.995 958.021 L883.354 958.021 L883.354 962.448 L858.667 962.448 L858.667 958.021 Q861.662 954.922 866.818 949.714 Q872 944.479 873.328 942.969 Q875.854 940.13 876.844 938.177 Q877.86 936.198 877.86 934.297 Q877.86 931.198 875.672 929.245 Q873.511 927.292 870.021 927.292 Q867.547 927.292 864.787 928.151 Q862.052 929.011 858.927 930.755 L858.927 925.443 Q862.104 924.167 864.865 923.516 Q867.625 922.865 869.917 922.865 Q875.958 922.865 879.552 925.886 Q883.146 928.906 883.146 933.958 Q883.146 936.354 882.235 938.516 Q881.349 940.651 878.979 943.568 Q878.328 944.323 874.839 947.943 Q871.349 951.536 864.995 958.021 Z" fill="#000000" fill-rule="nonzero" fill-opacity="1" /><path clip-path="url(#clip080)" d="M891.297 945.703 L905.333 945.703 L905.333 949.974 L891.297 949.974 L891.297 945.703 Z" fill="#000000" fill-rule="nonzero" fill-opacity="1" /><path clip-path="url(#clip080)" d="M924.891 927.031 Q920.828 927.031 918.771 931.042 Q916.74 935.026 916.74 943.047 Q916.74 951.042 918.771 955.052 Q920.828 959.036 924.891 959.036 Q928.979 959.036 931.01 955.052 Q933.068 951.042 933.068 943.047 Q933.068 935.026 931.01 931.042 Q928.979 927.031 924.891 927.031 M924.891 922.865 Q931.427 922.865 934.864 928.047 Q938.328 933.203 938.328 943.047 Q938.328 952.865 934.864 958.047 Q931.427 963.203 924.891 963.203 Q918.354 963.203 914.891 958.047 Q911.453 952.865 911.453 943.047 Q911.453 933.203 914.891 928.047 Q918.354 922.865 924.891 922.865 Z" fill="#000000" fill-rule="nonzero" fill-opacity="1" /><path clip-path="url(#clip080)" d="M946.245 923.568 L971.244 923.568 L971.244 925.807 L957.13 962.448 L951.635 962.448 L964.916 927.995 L946.245 927.995 L946.245 923.568 Z" fill="#000000" fill-rule="nonzero" fill-opacity="1" /><path clip-path="url(#clip080)" d="M978.406 945.703 L992.442 945.703 L992.442 949.974 L978.406 949.974 L978.406 945.703 Z" fill="#000000" fill-rule="nonzero" fill-opacity="1" /><path clip-path="url(#clip080)" d="M1005.28 958.021 L1023.64 958.021 L1023.64 962.448 L998.953 962.448 L998.953 958.021 Q1001.95 954.922 1007.1 949.714 Q1012.29 944.479 1013.61 942.969 Q1016.14 940.13 1017.13 938.177 Q1018.15 936.198 1018.15 934.297 Q1018.15 931.198 1015.96 929.245 Q1013.8 927.292 1010.31 927.292 Q1007.83 927.292 1005.07 928.151 Q1002.34 929.011 999.213 930.755 L999.213 925.443 Q1002.39 924.167 1005.15 923.516 Q1007.91 922.865 1010.2 922.865 Q1016.24 922.865 1019.84 925.886 Q1023.43 928.906 1023.43 933.958 Q1023.43 936.354 1022.52 938.516 Q1021.63 940.651 1019.27 943.568 Q1018.61 944.323 1015.12 947.943 Q1011.63 951.536 1005.28 958.021 Z" fill="#000000" fill-rule="nonzero" fill-opacity="1" /><path clip-path="url(#clip080)" d="M1039.21 958.021 L1057.57 958.021 L1057.57 962.448 L1032.88 962.448 L1032.88 958.021 Q1035.88 954.922 1041.04 949.714 Q1046.22 944.479 1047.55 942.969 Q1050.07 940.13 1051.06 938.177 Q1052.08 936.198 1052.08 934.297 Q1052.08 931.198 1049.89 929.245 Q1047.73 927.292 1044.24 927.292 Q1041.76 927.292 1039 928.151 Q1036.27 929.011 1033.15 930.755 L1033.15 925.443 Q1036.32 924.167 1039.08 923.516 Q1041.84 922.865 1044.13 922.865 Q1050.18 922.865 1053.77 925.886 Q1057.36 928.906 1057.36 933.958 Q1057.36 936.354 1056.45 938.516 Q1055.57 940.651 1053.2 943.568 Q1052.55 944.323 1049.06 947.943 Q1045.57 951.536 1039.21 958.021 Z" fill="#000000" fill-rule="nonzero" fill-opacity="1" /><path clip-path="url(#clip080)" d="M1101.85 958.021 L1120.21 958.021 L1120.21 962.448 L1095.52 962.448 L1095.52 958.021 Q1098.52 954.922 1103.67 949.714 Q1108.86 944.479 1110.18 942.969 Q1112.71 940.13 1113.7 938.177 Q1114.72 936.198 1114.72 934.297 Q1114.72 931.198 1112.53 929.245 Q1110.37 927.292 1106.88 927.292 Q1104.4 927.292 1101.64 928.151 Q1098.91 929.011 1095.78 930.755 L1095.78 925.443 Q1098.96 924.167 1101.72 923.516 Q1104.48 922.865 1106.77 922.865 Q1112.81 922.865 1116.41 925.886 Q1120 928.906 1120 933.958 Q1120 936.354 1119.09 938.516 Q1118.21 940.651 1115.84 943.568 Q1115.18 944.323 1111.69 947.943 Q1108.21 951.536 1101.85 958.021 Z" fill="#000000" fill-rule="nonzero" fill-opacity="1" /><path clip-path="url(#clip080)" d="M1142.5 927.031 Q1138.44 927.031 1136.38 931.042 Q1134.35 935.026 1134.35 943.047 Q1134.35 951.042 1136.38 955.052 Q1138.44 959.036 1142.5 959.036 Q1146.59 959.036 1148.62 955.052 Q1150.68 951.042 1150.68 943.047 Q1150.68 935.026 1148.62 931.042 Q1146.59 927.031 1142.5 927.031 M1142.5 922.865 Q1149.04 922.865 1152.48 928.047 Q1155.94 933.203 1155.94 943.047 Q1155.94 952.865 1152.48 958.047 Q1149.04 963.203 1142.5 963.203 Q1135.97 963.203 1132.5 958.047 Q1129.06 952.865 1129.06 943.047 Q1129.06 933.203 1132.5 928.047 Q1135.97 922.865 1142.5 922.865 Z" fill="#000000" fill-rule="nonzero" fill-opacity="1" /><path clip-path="url(#clip080)" d="M1169.72 958.021 L1188.07 958.021 L1188.07 962.448 L1163.39 962.448 L1163.39 958.021 Q1166.38 954.922 1171.54 949.714 Q1176.72 944.479 1178.05 942.969 Q1180.57 940.13 1181.56 938.177 Q1182.58 936.198 1182.58 934.297 Q1182.58 931.198 1180.39 929.245 Q1178.23 927.292 1174.74 927.292 Q1172.27 927.292 1169.51 928.151 Q1166.77 929.011 1163.65 930.755 L1163.65 925.443 Q1166.82 924.167 1169.59 923.516 Q1172.35 922.865 1174.64 922.865 Q1180.68 922.865 1184.27 925.886 Q1187.87 928.906 1187.87 933.958 Q1187.87 936.354 1186.95 938.516 Q1186.07 940.651 1183.7 943.568 Q1183.05 944.323 1179.56 947.943 Q1176.07 951.536 1169.72 958.021 Z" fill="#000000" fill-rule="nonzero" fill-opacity="1" /><path clip-path="url(#clip080)" d="M1203.65 958.021 L1222.01 958.021 L1222.01 962.448 L1197.32 962.448 L1197.32 958.021 Q1200.31 954.922 1205.47 949.714 Q1210.65 944.479 1211.98 942.969 Q1214.51 940.13 1215.5 938.177 Q1216.51 936.198 1216.51 934.297 Q1216.51 931.198 1214.32 929.245 Q1212.16 927.292 1208.67 927.292 Q1206.2 927.292 1203.44 928.151 Q1200.7 929.011 1197.58 930.755 L1197.58 925.443 Q1200.76 924.167 1203.52 923.516 Q1206.28 922.865 1208.57 922.865 Q1214.61 922.865 1218.2 925.886 Q1221.8 928.906 1221.8 933.958 Q1221.8 936.354 1220.89 938.516 Q1220 940.651 1217.63 943.568 Q1216.98 944.323 1213.49 947.943 Q1210 951.536 1203.65 958.021 Z" fill="#000000" fill-rule="nonzero" fill-opacity="1" /><path clip-path="url(#clip080)" d="M1229.95 945.703 L1243.99 945.703 L1243.99 949.974 L1229.95 949.974 L1229.95 945.703 Z" fill="#000000" fill-rule="nonzero" fill-opacity="1" /><path clip-path="url(#clip080)" d="M1263.54 927.031 Q1259.48 927.031 1257.42 931.042 Q1255.39 935.026 1255.39 943.047 Q1255.39 951.042 1257.42 955.052 Q1259.48 959.036 1263.54 959.036 Q1267.63 959.036 1269.66 955.052 Q1271.72 951.042 1271.72 943.047 Q1271.72 935.026 1269.66 931.042 Q1267.63 927.031 1263.54 927.031 M1263.54 922.865 Q1270.08 922.865 1273.52 928.047 Q1276.98 933.203 1276.98 943.047 Q1276.98 952.865 1273.52 958.047 Q1270.08 963.203 1263.54 963.203 Q1257.01 963.203 1253.54 958.047 Q1250.11 952.865 1250.11 943.047 Q1250.11 933.203 1253.54 928.047 Q1257.01 922.865 1263.54 922.865 Z" fill="#000000" fill-rule="nonzero" fill-opacity="1" /><path clip-path="url(#clip080)" d="M1284.9 923.568 L1309.9 923.568 L1309.9 925.807 L1295.78 962.448 L1290.29 962.448 L1303.57 927.995 L1284.9 927.995 L1284.9 923.568 Z" fill="#000000" fill-rule="nonzero" fill-opacity="1" /><path clip-path="url(#clip080)" d="M1317.06 945.703 L1331.09 945.703 L1331.09 949.974 L1317.06 949.974 L1317.06 945.703 Z" fill="#000000" fill-rule="nonzero" fill-opacity="1" /><path clip-path="url(#clip080)" d="M1343.93 958.021 L1362.29 958.021 L1362.29 962.448 L1337.61 962.448 L1337.61 958.021 Q1340.6 954.922 1345.76 949.714 Q1350.94 944.479 1352.27 942.969 Q1354.79 940.13 1355.78 938.177 Q1356.8 936.198 1356.8 934.297 Q1356.8 931.198 1354.61 929.245 Q1352.45 927.292 1348.96 927.292 Q1346.49 927.292 1343.72 928.151 Q1340.99 929.011 1337.87 930.755 L1337.87 925.443 Q1341.04 924.167 1343.8 923.516 Q1346.56 922.865 1348.86 922.865 Q1354.9 922.865 1358.49 925.886 Q1362.08 928.906 1362.08 933.958 Q1362.08 936.354 1361.17 938.516 Q1360.29 940.651 1357.92 943.568 Q1357.27 944.323 1353.78 947.943 Q1350.29 951.536 1343.93 958.021 Z" fill="#000000" fill-rule="nonzero" fill-opacity="1" /><path clip-path="url(#clip080)" d="M1387.79 928.151 L1374.51 948.906 L1387.79 948.906 L1387.79 928.151 M1386.41 923.568 L1393.02 923.568 L1393.02 948.906 L1398.57 948.906 L1398.57 953.281 L1393.02 953.281 L1393.02 962.448 L1387.79 962.448 L1387.79 953.281 L1370.24 953.281 L1370.24 948.203 L1386.41 923.568 Z" fill="#000000" fill-rule="nonzero" fill-opacity="1" /><polyline clip-path="url(#clip082)" style="stroke:#000000; stroke-linecap:round; stroke-linejoin:round; stroke-width:2; stroke-opacity:0.1; fill:none" points="192.103,802.909 1445.35,802.909 "/>
<polyline clip-path="url(#clip082)" style="stroke:#000000; stroke-linecap:round; stroke-linejoin:round; stroke-width:2; stroke-opacity:0.1; fill:none" points="192.103,686.978 1445.35,686.978 "/>
<polyline clip-path="url(#clip082)" style="stroke:#000000; stroke-linecap:round; stroke-linejoin:round; stroke-width:2; stroke-opacity:0.1; fill:none" points="192.103,571.046 1445.35,571.046 "/>
<polyline clip-path="url(#clip082)" style="stroke:#000000; stroke-linecap:round; stroke-linejoin:round; stroke-width:2; stroke-opacity:0.1; fill:none" points="192.103,455.115 1445.35,455.115 "/>
<polyline clip-path="url(#clip082)" style="stroke:#000000; stroke-linecap:round; stroke-linejoin:round; stroke-width:2; stroke-opacity:0.1; fill:none" points="192.103,339.184 1445.35,339.184 "/>
<polyline clip-path="url(#clip082)" style="stroke:#000000; stroke-linecap:round; stroke-linejoin:round; stroke-width:2; stroke-opacity:0.1; fill:none" points="192.103,223.252 1445.35,223.252 "/>
<polyline clip-path="url(#clip082)" style="stroke:#000000; stroke-linecap:round; stroke-linejoin:round; stroke-width:2; stroke-opacity:0.1; fill:none" points="192.103,107.321 1445.35,107.321 "/>
<polyline clip-path="url(#clip080)" style="stroke:#000000; stroke-linecap:round; stroke-linejoin:round; stroke-width:4; stroke-opacity:1; fill:none" points="192.103,897.848 192.103,47.2441 "/>
<polyline clip-path="url(#clip080)" style="stroke:#000000; stroke-linecap:round; stroke-linejoin:round; stroke-width:4; stroke-opacity:1; fill:none" points="192.103,802.909 205.555,802.909 "/>
<polyline clip-path="url(#clip080)" style="stroke:#000000; stroke-linecap:round; stroke-linejoin:round; stroke-width:4; stroke-opacity:1; fill:none" points="192.103,686.978 205.555,686.978 "/>
<polyline clip-path="url(#clip080)" style="stroke:#000000; stroke-linecap:round; stroke-linejoin:round; stroke-width:4; stroke-opacity:1; fill:none" points="192.103,571.046 205.555,571.046 "/>
<polyline clip-path="url(#clip080)" style="stroke:#000000; stroke-linecap:round; stroke-linejoin:round; stroke-width:4; stroke-opacity:1; fill:none" points="192.103,455.115 205.555,455.115 "/>
<polyline clip-path="url(#clip080)" style="stroke:#000000; stroke-linecap:round; stroke-linejoin:round; stroke-width:4; stroke-opacity:1; fill:none" points="192.103,339.184 205.555,339.184 "/>
<polyline clip-path="url(#clip080)" style="stroke:#000000; stroke-linecap:round; stroke-linejoin:round; stroke-width:4; stroke-opacity:1; fill:none" points="192.103,223.252 205.555,223.252 "/>
<polyline clip-path="url(#clip080)" style="stroke:#000000; stroke-linecap:round; stroke-linejoin:round; stroke-width:4; stroke-opacity:1; fill:none" points="192.103,107.321 205.555,107.321 "/>
<path clip-path="url(#clip080)" d="M104.5 817.922 L113.093 817.922 L113.093 788.26 L103.744 790.135 L103.744 785.344 L113.041 783.469 L118.302 783.469 L118.302 817.922 L126.895 817.922 L126.895 822.349 L104.5 822.349 L104.5 817.922 Z" fill="#000000" fill-rule="nonzero" fill-opacity="1" /><path clip-path="url(#clip080)" d="M148.77 803.885 Q145.02 803.885 142.859 805.891 Q140.723 807.896 140.723 811.411 Q140.723 814.927 142.859 816.932 Q145.02 818.937 148.77 818.937 Q152.52 818.937 154.682 816.932 Q156.843 814.901 156.843 811.411 Q156.843 807.896 154.682 805.891 Q152.546 803.885 148.77 803.885 M143.51 801.646 Q140.124 800.813 138.223 798.495 Q136.348 796.177 136.348 792.844 Q136.348 788.182 139.656 785.474 Q142.989 782.766 148.77 782.766 Q154.577 782.766 157.885 785.474 Q161.192 788.182 161.192 792.844 Q161.192 796.177 159.291 798.495 Q157.416 800.813 154.057 801.646 Q157.859 802.531 159.968 805.109 Q162.103 807.687 162.103 811.411 Q162.103 817.062 158.64 820.083 Q155.202 823.104 148.77 823.104 Q142.338 823.104 138.874 820.083 Q135.437 817.062 135.437 811.411 Q135.437 807.687 137.572 805.109 Q139.708 802.531 143.51 801.646 M141.583 793.339 Q141.583 796.359 143.458 798.052 Q145.359 799.745 148.77 799.745 Q152.156 799.745 154.057 798.052 Q155.984 796.359 155.984 793.339 Q155.984 790.318 154.057 788.625 Q152.156 786.932 148.77 786.932 Q145.359 786.932 143.458 788.625 Q141.583 790.318 141.583 793.339 Z" fill="#000000" fill-rule="nonzero" fill-opacity="1" /><path clip-path="url(#clip080)" d="M108.015 701.99 L126.374 701.99 L126.374 706.418 L101.687 706.418 L101.687 701.99 Q104.682 698.892 109.838 693.683 Q115.02 688.449 116.348 686.938 Q118.874 684.1 119.864 682.147 Q120.88 680.168 120.88 678.267 Q120.88 675.168 118.692 673.215 Q116.531 671.261 113.041 671.261 Q110.567 671.261 107.807 672.121 Q105.072 672.98 101.947 674.725 L101.947 669.413 Q105.125 668.136 107.885 667.485 Q110.645 666.834 112.937 666.834 Q118.979 666.834 122.572 669.855 Q126.166 672.876 126.166 677.928 Q126.166 680.324 125.255 682.485 Q124.369 684.621 121.999 687.537 Q121.348 688.293 117.859 691.912 Q114.369 695.506 108.015 701.99 Z" fill="#000000" fill-rule="nonzero" fill-opacity="1" /><path clip-path="url(#clip080)" d="M148.666 671.001 Q144.603 671.001 142.546 675.011 Q140.515 678.996 140.515 687.017 Q140.515 695.011 142.546 699.022 Q144.603 703.006 148.666 703.006 Q152.754 703.006 154.786 699.022 Q156.843 695.011 156.843 687.017 Q156.843 678.996 154.786 675.011 Q152.754 671.001 148.666 671.001 M148.666 666.834 Q155.202 666.834 158.64 672.017 Q162.103 677.173 162.103 687.017 Q162.103 696.834 158.64 702.017 Q155.202 707.173 148.666 707.173 Q142.13 707.173 138.666 702.017 Q135.229 696.834 135.229 687.017 Q135.229 677.173 138.666 672.017 Q142.13 666.834 148.666 666.834 Z" fill="#000000" fill-rule="nonzero" fill-opacity="1" /><path clip-path="url(#clip080)" d="M109.812 586.059 L128.171 586.059 L128.171 590.486 L103.484 590.486 L103.484 586.059 Q106.479 582.96 111.635 577.752 Q116.817 572.518 118.145 571.007 Q120.671 568.169 121.661 566.216 Q122.677 564.236 122.677 562.335 Q122.677 559.236 120.489 557.283 Q118.328 555.33 114.838 555.33 Q112.364 555.33 109.604 556.19 Q106.869 557.049 103.744 558.794 L103.744 553.481 Q106.921 552.205 109.682 551.554 Q112.442 550.903 114.734 550.903 Q120.775 550.903 124.369 553.924 Q127.963 556.945 127.963 561.997 Q127.963 564.393 127.051 566.554 Q126.166 568.689 123.796 571.606 Q123.145 572.361 119.656 575.981 Q116.166 579.575 109.812 586.059 Z" fill="#000000" fill-rule="nonzero" fill-opacity="1" /><path clip-path="url(#clip080)" d="M143.744 586.059 L162.103 586.059 L162.103 590.486 L137.416 590.486 L137.416 586.059 Q140.411 582.96 145.567 577.752 Q150.749 572.518 152.077 571.007 Q154.603 568.169 155.593 566.216 Q156.609 564.236 156.609 562.335 Q156.609 559.236 154.421 557.283 Q152.26 555.33 148.77 555.33 Q146.296 555.33 143.536 556.19 Q140.801 557.049 137.676 558.794 L137.676 553.481 Q140.853 552.205 143.614 551.554 Q146.374 550.903 148.666 550.903 Q154.708 550.903 158.301 553.924 Q161.895 556.945 161.895 561.997 Q161.895 564.393 160.984 566.554 Q160.098 568.689 157.728 571.606 Q157.077 572.361 153.588 575.981 Q150.098 579.575 143.744 586.059 Z" fill="#000000" fill-rule="nonzero" fill-opacity="1" /><path clip-path="url(#clip080)" d="M107.468 470.128 L125.828 470.128 L125.828 474.555 L101.14 474.555 L101.14 470.128 Q104.135 467.029 109.291 461.821 Q114.473 456.586 115.802 455.076 Q118.328 452.237 119.317 450.284 Q120.333 448.305 120.333 446.404 Q120.333 443.305 118.145 441.352 Q115.984 439.399 112.494 439.399 Q110.02 439.399 107.26 440.258 Q104.526 441.118 101.401 442.862 L101.401 437.55 Q104.578 436.274 107.338 435.623 Q110.098 434.972 112.39 434.972 Q118.432 434.972 122.025 437.993 Q125.619 441.013 125.619 446.065 Q125.619 448.461 124.708 450.623 Q123.822 452.758 121.453 455.675 Q120.802 456.43 117.312 460.05 Q113.822 463.643 107.468 470.128 Z" fill="#000000" fill-rule="nonzero" fill-opacity="1" /><path clip-path="url(#clip080)" d="M151.322 440.258 L138.041 461.013 L151.322 461.013 L151.322 440.258 M149.942 435.675 L156.557 435.675 L156.557 461.013 L162.103 461.013 L162.103 465.388 L156.557 465.388 L156.557 474.555 L151.322 474.555 L151.322 465.388 L133.77 465.388 L133.77 460.31 L149.942 435.675 Z" fill="#000000" fill-rule="nonzero" fill-opacity="1" /><path clip-path="url(#clip080)" d="M107.833 354.196 L126.192 354.196 L126.192 358.624 L101.505 358.624 L101.505 354.196 Q104.5 351.098 109.656 345.889 Q114.838 340.655 116.166 339.144 Q118.692 336.306 119.682 334.353 Q120.697 332.374 120.697 330.473 Q120.697 327.374 118.51 325.421 Q116.348 323.467 112.859 323.467 Q110.385 323.467 107.624 324.327 Q104.89 325.186 101.765 326.931 L101.765 321.619 Q104.942 320.343 107.703 319.691 Q110.463 319.04 112.755 319.04 Q118.796 319.04 122.39 322.061 Q125.984 325.082 125.984 330.134 Q125.984 332.53 125.072 334.691 Q124.187 336.827 121.817 339.743 Q121.166 340.499 117.677 344.118 Q114.187 347.712 107.833 354.196 Z" fill="#000000" fill-rule="nonzero" fill-opacity="1" /><path clip-path="url(#clip080)" d="M149.135 337.087 Q145.593 337.087 143.51 339.509 Q141.452 341.931 141.452 346.15 Q141.452 350.342 143.51 352.79 Q145.593 355.212 149.135 355.212 Q152.676 355.212 154.734 352.79 Q156.817 350.342 156.817 346.15 Q156.817 341.931 154.734 339.509 Q152.676 337.087 149.135 337.087 M159.577 320.603 L159.577 325.395 Q157.598 324.457 155.567 323.962 Q153.562 323.467 151.583 323.467 Q146.374 323.467 143.614 326.983 Q140.88 330.499 140.489 337.608 Q142.025 335.342 144.343 334.145 Q146.661 332.921 149.447 332.921 Q155.307 332.921 158.692 336.488 Q162.103 340.03 162.103 346.15 Q162.103 352.139 158.562 355.759 Q155.02 359.379 149.135 359.379 Q142.39 359.379 138.822 354.223 Q135.255 349.04 135.255 339.223 Q135.255 330.004 139.63 324.535 Q144.005 319.04 151.374 319.04 Q153.353 319.04 155.359 319.431 Q157.39 319.822 159.577 320.603 Z" fill="#000000" fill-rule="nonzero" fill-opacity="1" /><path clip-path="url(#clip080)" d="M108.119 238.265 L126.479 238.265 L126.479 242.692 L101.791 242.692 L101.791 238.265 Q104.786 235.166 109.942 229.958 Q115.124 224.724 116.453 223.213 Q118.979 220.375 119.968 218.422 Q120.984 216.442 120.984 214.541 Q120.984 211.442 118.796 209.489 Q116.635 207.536 113.145 207.536 Q110.671 207.536 107.911 208.396 Q105.177 209.255 102.052 211 L102.052 205.687 Q105.229 204.411 107.989 203.76 Q110.749 203.109 113.041 203.109 Q119.083 203.109 122.677 206.13 Q126.27 209.151 126.27 214.203 Q126.27 216.599 125.359 218.76 Q124.473 220.895 122.104 223.812 Q121.453 224.567 117.963 228.187 Q114.473 231.781 108.119 238.265 Z" fill="#000000" fill-rule="nonzero" fill-opacity="1" /><path clip-path="url(#clip080)" d="M148.77 224.229 Q145.02 224.229 142.859 226.234 Q140.723 228.239 140.723 231.755 Q140.723 235.27 142.859 237.276 Q145.02 239.281 148.77 239.281 Q152.52 239.281 154.682 237.276 Q156.843 235.244 156.843 231.755 Q156.843 228.239 154.682 226.234 Q152.546 224.229 148.77 224.229 M143.51 221.989 Q140.124 221.156 138.223 218.838 Q136.348 216.52 136.348 213.187 Q136.348 208.526 139.656 205.817 Q142.989 203.109 148.77 203.109 Q154.577 203.109 157.885 205.817 Q161.192 208.526 161.192 213.187 Q161.192 216.52 159.291 218.838 Q157.416 221.156 154.057 221.989 Q157.859 222.875 159.968 225.453 Q162.103 228.031 162.103 231.755 Q162.103 237.406 158.64 240.427 Q155.202 243.447 148.77 243.447 Q142.338 243.447 138.874 240.427 Q135.437 237.406 135.437 231.755 Q135.437 228.031 137.572 225.453 Q139.708 222.875 143.51 221.989 M141.583 213.682 Q141.583 216.703 143.458 218.395 Q145.359 220.088 148.77 220.088 Q152.156 220.088 154.057 218.395 Q155.984 216.703 155.984 213.682 Q155.984 210.661 154.057 208.968 Q152.156 207.276 148.77 207.276 Q145.359 207.276 143.458 208.968 Q141.583 210.661 141.583 213.682 Z" fill="#000000" fill-rule="nonzero" fill-opacity="1" /><path clip-path="url(#clip080)" d="M119.421 105.797 Q123.197 106.605 125.307 109.157 Q127.442 111.709 127.442 115.459 Q127.442 121.214 123.484 124.365 Q119.525 127.516 112.234 127.516 Q109.786 127.516 107.182 127.021 Q104.604 126.553 101.843 125.589 L101.843 120.511 Q104.031 121.787 106.635 122.438 Q109.239 123.089 112.078 123.089 Q117.025 123.089 119.604 121.136 Q122.208 119.183 122.208 115.459 Q122.208 112.021 119.786 110.094 Q117.39 108.141 113.093 108.141 L108.562 108.141 L108.562 103.818 L113.302 103.818 Q117.182 103.818 119.239 102.282 Q121.296 100.719 121.296 97.8027 Q121.296 94.8079 119.161 93.2194 Q117.052 91.6048 113.093 91.6048 Q110.932 91.6048 108.458 92.0736 Q105.984 92.5423 103.015 93.5319 L103.015 88.8444 Q106.01 88.0111 108.614 87.5944 Q111.244 87.1778 113.562 87.1778 Q119.552 87.1778 123.041 89.9121 Q126.531 92.6205 126.531 97.2559 Q126.531 100.485 124.682 102.725 Q122.833 104.938 119.421 105.797 Z" fill="#000000" fill-rule="nonzero" fill-opacity="1" /><path clip-path="url(#clip080)" d="M148.666 91.3444 Q144.603 91.3444 142.546 95.3548 Q140.515 99.3392 140.515 107.36 Q140.515 115.355 142.546 119.365 Q144.603 123.349 148.666 123.349 Q152.754 123.349 154.786 119.365 Q156.843 115.355 156.843 107.36 Q156.843 99.3392 154.786 95.3548 Q152.754 91.3444 148.666 91.3444 M148.666 87.1778 Q155.202 87.1778 158.64 92.36 Q162.103 97.5163 162.103 107.36 Q162.103 117.178 158.64 122.36 Q155.202 127.516 148.666 127.516 Q142.13 127.516 138.666 122.36 Q135.229 117.178 135.229 107.36 Q135.229 97.5163 138.666 92.36 Q142.13 87.1778 148.666 87.1778 Z" fill="#000000" fill-rule="nonzero" fill-opacity="1" /><path clip-path="url(#clip080)" d="M14.9802 630.097 L14.9802 624.252 L58.1802 624.252 L58.1802 630.097 L14.9802 630.097 Z" fill="#000000" fill-rule="nonzero" fill-opacity="1" /><path clip-path="url(#clip080)" d="M38.6201 585.913 L58.1802 585.913 L58.1802 591.237 L38.7937 591.237 Q34.193 591.237 31.9072 593.031 Q29.6213 594.825 29.6213 598.413 Q29.6213 602.725 32.3701 605.213 Q35.1189 607.702 39.8643 607.702 L58.1802 607.702 L58.1802 613.054 L25.7729 613.054 L25.7729 607.702 L30.8076 607.702 Q27.8852 605.792 26.4384 603.217 Q24.9917 600.612 24.9917 597.227 Q24.9917 591.643 28.4639 588.778 Q31.9072 585.913 38.6201 585.913 Z" fill="#000000" fill-rule="nonzero" fill-opacity="1" /><path clip-path="url(#clip080)" d="M13.1573 558.888 L17.5843 558.888 L17.5843 563.981 Q17.5843 566.845 18.7417 567.974 Q19.8991 569.073 22.9084 569.073 L25.7729 569.073 L25.7729 560.306 L29.9106 560.306 L29.9106 569.073 L58.1802 569.073 L58.1802 574.426 L29.9106 574.426 L29.9106 579.519 L25.7729 579.519 L25.7729 574.426 L23.516 574.426 Q18.1051 574.426 15.6457 571.909 Q13.1573 569.392 13.1573 563.923 L13.1573 558.888 Z" fill="#000000" fill-rule="nonzero" fill-opacity="1" /><path clip-path="url(#clip080)" d="M13.1573 554.432 L13.1573 549.108 L58.1802 549.108 L58.1802 554.432 L13.1573 554.432 Z" fill="#000000" fill-rule="nonzero" fill-opacity="1" /><path clip-path="url(#clip080)" d="M29.5055 525.41 Q29.5055 529.693 32.862 532.181 Q36.1895 534.669 42.0055 534.669 Q47.8214 534.669 51.1779 532.21 Q54.5054 529.722 54.5054 525.41 Q54.5054 521.157 51.1489 518.668 Q47.7925 516.18 42.0055 516.18 Q36.2474 516.18 32.8909 518.668 Q29.5055 521.157 29.5055 525.41 M24.9917 525.41 Q24.9917 518.466 29.5055 514.502 Q34.0194 510.538 42.0055 510.538 Q49.9626 510.538 54.5054 514.502 Q59.0193 518.466 59.0193 525.41 Q59.0193 532.384 54.5054 536.348 Q49.9626 540.283 42.0055 540.283 Q34.0194 540.283 29.5055 536.348 Q24.9917 532.384 24.9917 525.41 Z" fill="#000000" fill-rule="nonzero" fill-opacity="1" /><path clip-path="url(#clip080)" d="M25.7729 504.809 L25.7729 499.484 L51.0621 492.829 L25.7729 486.203 L25.7729 479.924 L51.0621 473.269 L25.7729 466.643 L25.7729 461.319 L58.1802 469.797 L58.1802 476.076 L31.6178 483.049 L58.1802 490.052 L58.1802 496.331 L25.7729 504.809 Z" fill="#000000" fill-rule="nonzero" fill-opacity="1" /><path clip-path="url(#clip080)" d="M13.1573 434.902 L13.1573 422.633 L17.295 422.633 L17.295 429.577 L61.8549 429.577 L61.8549 422.633 L65.9926 422.633 L65.9926 434.902 L13.1573 434.902 Z" fill="#000000" fill-rule="nonzero" fill-opacity="1" /><path clip-path="url(#clip080)" d="M14.9802 411.059 L14.9802 405.214 L53.2612 405.214 L53.2612 384.178 L58.1802 384.178 L58.1802 411.059 L14.9802 411.059 Z" fill="#000000" fill-rule="nonzero" fill-opacity="1" /><path clip-path="url(#clip080)" d="M14.9802 368.814 L14.9802 363.895 L63.6778 378.941 L63.6778 383.86 L14.9802 368.814 Z" fill="#000000" fill-rule="nonzero" fill-opacity="1" /><path clip-path="url(#clip080)" d="M26.7278 337.651 L31.7625 337.651 Q30.6051 339.908 30.0264 342.338 Q29.4477 344.769 29.4477 347.373 Q29.4477 351.337 30.6629 353.334 Q31.8782 355.301 34.3088 355.301 Q36.1606 355.301 37.2312 353.883 Q38.2729 352.466 39.2277 348.183 L39.6328 346.36 Q40.8481 340.689 43.0761 338.316 Q45.2751 335.915 49.2392 335.915 Q53.7531 335.915 56.3862 339.503 Q59.0193 343.062 59.0193 349.312 Q59.0193 351.916 58.4984 354.751 Q58.0065 357.558 56.9938 360.683 L51.4962 360.683 Q53.0297 357.732 53.811 354.867 Q54.5633 352.003 54.5633 349.196 Q54.5633 345.434 53.2901 343.409 Q51.9881 341.383 49.6443 341.383 Q47.4742 341.383 46.3168 342.859 Q45.1594 344.306 44.0888 349.254 L43.6548 351.106 Q42.6131 356.054 40.4719 358.253 Q38.3018 360.452 34.5402 360.452 Q29.9685 360.452 27.4801 357.211 Q24.9917 353.97 24.9917 348.01 Q24.9917 345.058 25.4257 342.454 Q25.8597 339.85 26.7278 337.651 Z" fill="#000000" fill-rule="nonzero" fill-opacity="1" /><path clip-path="url(#clip080)" d="M13.1573 314.995 L65.9926 314.995 L65.9926 327.263 L61.8549 327.263 L61.8549 320.348 L17.295 320.348 L17.295 327.263 L13.1573 327.263 L13.1573 314.995 Z" fill="#000000" fill-rule="nonzero" fill-opacity="1" /><polyline clip-path="url(#clip082)" style="stroke:#023eff; stroke-linecap:round; stroke-linejoin:round; stroke-width:5; stroke-opacity:1; fill:none" points="227.573,739.411 234.652,737.181 241.732,737.181 248.812,737.181 255.891,737.181 262.971,737.181 270.051,737.181 277.13,406.331 284.21,406.331 291.29,406.331 298.369,406.331 305.449,406.331 312.529,406.331 319.608,406.331 326.688,406.331 333.768,406.331 340.847,406.331 347.927,568.532 355.007,568.532 362.086,568.532 369.166,568.532 376.246,568.532 383.325,568.532 390.405,568.532 397.485,758.227 404.564,758.227 411.644,758.227 418.724,758.227 425.803,758.227 432.883,758.227 439.963,758.227 447.042,481.768 454.122,354.971 461.202,481.768 468.281,354.971 475.361,354.971 482.441,354.971 489.521,481.768 496.6,481.768 503.68,481.768 510.76,481.768 517.839,550.393 524.919,550.393 531.999,550.393 539.078,550.393 546.158,631.716 553.238,631.716 560.317,631.716 567.397,758.227 574.477,758.227 581.556,758.227 588.636,758.227 595.716,758.227 602.795,758.227 609.875,758.227 616.955,481.768 624.034,481.768 631.114,481.768 638.194,354.971 645.273,481.768 652.353,481.768 659.433,481.768 666.512,354.971 673.592,481.768 680.672,481.768 687.751,550.393 694.831,550.393 701.911,550.393 708.99,550.393 716.07,631.716 723.15,631.716 730.229,631.716 737.309,758.227 744.389,758.227 751.468,758.227 758.548,758.227 765.628,758.227 772.708,758.227 779.787,758.227 786.867,481.768 793.947,354.971 801.026,354.971 808.106,354.971 815.186,481.768 822.265,481.768 829.345,354.971 836.425,481.768 843.504,354.971 850.584,481.768 857.664,550.393 864.743,550.393 871.823,550.393 878.903,550.393 885.982,631.716 893.062,631.716 900.142,631.716 907.221,758.227 914.301,758.227 921.381,758.227 928.46,758.227 935.54,758.227 942.62,758.227 949.699,758.227 956.779,481.768 963.859,354.971 970.938,481.768 978.018,354.971 985.098,354.971 992.177,481.768 999.257,354.971 1006.34,354.971 1013.42,354.971 1020.5,354.971 1027.58,550.393 1034.66,550.393 1041.74,550.393 1048.81,550.393 1055.89,631.716 1062.97,631.716 1070.05,631.716 1077.13,707.579 1084.21,707.579 1091.29,680.416 1098.37,680.416 1105.45,707.579 1112.53,789.154 1119.61,707.579 1126.69,707.579 1133.77,707.579 1140.85,707.579 1147.93,707.579 1155.01,707.579 1162.09,707.579 1169.17,707.579 1176.25,707.579 1183.33,707.579 1190.41,680.416 1197.49,680.416 1204.57,680.416 1211.65,707.579 1218.73,707.579 1225.81,707.579 1232.89,680.416 1239.97,707.579 1247.05,873.774 1254.13,873.774 1261.21,873.774 1268.28,873.774 1275.36,777.726 1282.44,777.726 1289.52,777.726 1296.6,777.726 1303.68,777.726 1310.76,873.774 1317.84,873.774 1324.92,873.774 1332,777.726 1339.08,777.726 1346.16,873.774 1353.24,873.774 1360.32,873.774 1367.4,777.726 1374.48,873.774 1381.56,873.774 1388.64,873.774 1395.72,873.774 1402.8,873.774 1409.88,873.774 "/>
<polyline clip-path="url(#clip082)" style="stroke:#ff7c00; stroke-linecap:round; stroke-linejoin:round; stroke-width:5; stroke-opacity:1; fill:none" points="227.573,724.401 234.652,769.473 241.732,769.473 248.812,722.057 255.891,722.057 262.971,722.057 270.051,722.057 277.13,71.3178 284.21,331.512 291.29,331.512 298.369,71.3178 305.449,71.3178 312.529,416.025 319.608,71.3178 326.688,71.3178 333.768,331.512 340.847,416.025 347.927,558.977 355.007,558.977 362.086,558.977 369.166,558.977 376.246,633.405 383.325,633.405 390.405,633.405 397.485,723.577 404.564,723.577 411.644,723.577 418.724,723.577 425.803,723.577 432.883,723.577 439.963,628.084 447.042,409.361 454.122,333.928 461.202,409.361 468.281,333.928 475.361,333.928 482.441,333.928 489.521,409.361 496.6,409.361 503.68,409.361 510.76,409.361 517.839,587.811 524.919,587.811 531.999,587.811 539.078,587.811 546.158,587.811 553.238,587.811 560.317,587.811 567.397,723.577 574.477,723.577 581.556,723.577 588.636,723.577 595.716,723.577 602.795,723.577 609.875,628.084 616.955,409.361 624.034,409.361 631.114,409.361 638.194,333.928 645.273,409.361 652.353,409.361 659.433,409.361 666.512,333.928 673.592,409.361 680.672,409.361 687.751,587.811 694.831,587.811 701.911,587.811 708.99,587.811 716.07,587.811 723.15,587.811 730.229,587.811 737.309,723.577 744.389,723.577 751.468,723.577 758.548,723.577 765.628,723.577 772.708,723.577 779.787,628.084 786.867,409.361 793.947,333.928 801.026,333.928 808.106,281.002 815.186,409.361 822.265,409.361 829.345,281.002 836.425,409.361 843.504,281.002 850.584,409.361 857.664,587.811 864.743,587.811 871.823,587.811 878.903,587.811 885.982,587.811 893.062,587.811 900.142,587.811 907.221,723.577 914.301,723.577 921.381,723.577 928.46,723.577 935.54,723.577 942.62,723.577 949.699,628.084 956.779,409.361 963.859,333.928 970.938,409.361 978.018,333.928 985.098,333.928 992.177,409.361 999.257,333.928 1006.34,409.361 1013.42,333.928 1020.5,409.361 1027.58,587.811 1034.66,587.811 1041.74,587.811 1048.81,587.811 1055.89,587.811 1062.97,587.811 1070.05,587.811 1077.13,762.594 1084.21,762.594 1091.29,767.459 1098.37,767.459 1105.45,762.594 1112.53,767.459 1119.61,762.594 1126.69,762.594 1133.77,762.594 1140.85,762.594 1147.93,762.594 1155.01,762.594 1162.09,762.594 1169.17,762.594 1176.25,762.594 1183.33,762.594 1190.41,767.459 1197.49,767.459 1204.57,767.459 1211.65,762.594 1218.73,762.594 1225.81,767.459 1232.89,767.459 1239.97,762.594 1247.05,762.594 1254.13,767.459 1261.21,767.459 1268.28,762.594 1275.36,762.594 1282.44,767.459 1289.52,762.594 1296.6,762.594 1303.68,762.594 1310.76,762.594 1317.84,762.594 1324.92,762.594 1332,762.594 1339.08,762.594 1346.16,762.594 1353.24,767.459 1360.32,817.969 1367.4,817.969 1374.48,767.459 1381.56,767.459 1388.64,767.459 1395.72,767.459 1402.8,762.594 1409.88,762.594 "/>
<polyline clip-path="url(#clip082)" style="stroke:#1ac938; stroke-linecap:round; stroke-linejoin:round; stroke-width:5; stroke-opacity:1; fill:none" points="227.573,695.113 234.652,718.463 241.732,718.463 248.812,718.463 255.891,718.463 262.971,718.463 270.051,536.528 277.13,536.528 284.21,360.203 291.29,360.203 298.369,360.203 305.449,360.203 312.529,360.203 319.608,360.203 326.688,360.203 333.768,360.203 340.847,360.203 347.927,564.161 355.007,564.161 362.086,564.161 369.166,564.161 376.246,564.161 383.325,564.161 390.405,564.161 397.485,718.463 404.564,718.463 411.644,718.463 418.724,718.463 425.803,718.463 432.883,718.463 439.963,536.528 447.042,536.528 454.122,360.203 461.202,360.203 468.281,360.203 475.361,360.203 482.441,360.203 489.521,360.203 496.6,360.203 503.68,360.203 510.76,360.203 517.839,564.161 524.919,564.161 531.999,564.161 539.078,564.161 546.158,564.161 553.238,564.161 560.317,564.161 567.397,718.463 574.477,718.463 581.556,718.463 588.636,718.463 595.716,718.463 602.795,718.463 609.875,536.528 616.955,536.528 624.034,360.203 631.114,360.203 638.194,360.203 645.273,360.203 652.353,360.203 659.433,360.203 666.512,360.203 673.592,360.203 680.672,360.203 687.751,564.161 694.831,564.161 701.911,564.161 708.99,564.161 716.07,564.161 723.15,564.161 730.229,564.161 737.309,718.463 744.389,718.463 751.468,718.463 758.548,718.463 765.628,718.463 772.708,718.463 779.787,536.528 786.867,536.528 793.947,360.203 801.026,360.203 808.106,360.203 815.186,360.203 822.265,360.203 829.345,360.203 836.425,360.203 843.504,360.203 850.584,360.203 857.664,564.161 864.743,564.161 871.823,564.161 878.903,564.161 885.982,564.161 893.062,564.161 900.142,564.161 907.221,718.463 914.301,718.463 921.381,718.463 928.46,718.463 935.54,718.463 942.62,718.463 949.699,536.528 956.779,536.528 963.859,360.203 970.938,360.203 978.018,360.203 985.098,360.203 992.177,360.203 999.257,360.203 1006.34,360.203 1013.42,360.203 1020.5,360.203 1027.58,564.161 1034.66,564.161 1041.74,564.161 1048.81,564.161 1055.89,564.161 1062.97,564.161 1070.05,564.161 1077.13,696.776 1084.21,696.776 1091.29,772.878 1098.37,772.878 1105.45,696.776 1112.53,772.878 1119.61,696.776 1126.69,696.776 1133.77,696.776 1140.85,696.776 1147.93,696.776 1155.01,696.776 1162.09,696.776 1169.17,696.776 1176.25,696.776 1183.33,696.776 1190.41,772.878 1197.49,772.878 1204.57,772.878 1211.65,772.878 1218.73,772.878 1225.81,772.878 1232.89,772.878 1239.97,696.776 1247.05,696.776 1254.13,772.878 1261.21,772.878 1268.28,696.776 1275.36,696.776 1282.44,772.878 1289.52,696.776 1296.6,696.776 1303.68,696.776 1310.76,696.776 1317.84,696.776 1324.92,696.776 1332,696.776 1339.08,696.776 1346.16,696.776 1353.24,772.878 1360.32,772.878 1367.4,772.878 1374.48,772.878 1381.56,772.878 1388.64,772.878 1395.72,772.878 1402.8,696.776 1409.88,696.776 "/>
<polyline clip-path="url(#clip082)" style="stroke:#e8000b; stroke-linecap:round; stroke-linejoin:round; stroke-width:5; stroke-opacity:1; fill:none" points="227.573,698.4 234.652,739.726 241.732,739.726 248.812,739.726 255.891,674.373 262.971,739.726 270.051,674.373 277.13,138.236 284.21,413.054 291.29,413.054 298.369,413.054 305.449,413.054 312.529,413.054 319.608,413.054 326.688,413.054 333.768,413.054 340.847,559.497 347.927,559.497 355.007,559.497 362.086,559.497 369.166,559.497 376.246,559.497 383.325,559.497 390.405,559.497 397.485,674.373 404.564,739.726 411.644,739.726 418.724,674.373 425.803,674.373 432.883,674.373 439.963,674.373 447.042,674.373 454.122,402.87 461.202,402.87 468.281,402.87 475.361,402.87 482.441,402.87 489.521,402.87 496.6,674.373 503.68,402.87 510.76,559.497 517.839,559.497 524.919,559.497 531.999,559.497 539.078,559.497 546.158,559.497 553.238,559.497 560.317,559.497 567.397,674.373 574.477,674.373 581.556,739.726 588.636,739.726 595.716,674.373 602.795,674.373 609.875,674.373 616.955,674.373 624.034,402.87 631.114,402.87 638.194,402.87 645.273,402.87 652.353,402.87 659.433,402.87 666.512,402.87 673.592,402.87 680.672,559.497 687.751,559.497 694.831,559.497 701.911,559.497 708.99,559.497 716.07,559.497 723.15,559.497 730.229,559.497 737.309,674.373 744.389,674.373 751.468,674.373 758.548,674.373 765.628,674.373 772.708,674.373 779.787,674.373 786.867,674.373 793.947,402.87 801.026,402.87 808.106,402.87 815.186,402.87 822.265,402.87 829.345,402.87 836.425,402.87 843.504,402.87 850.584,559.497 857.664,559.497 864.743,559.497 871.823,559.497 878.903,559.497 885.982,559.497 893.062,559.497 900.142,559.497 907.221,674.373 914.301,674.373 921.381,674.373 928.46,739.726 935.54,674.373 942.62,674.373 949.699,674.373 956.779,542.063 963.859,402.87 970.938,402.87 978.018,402.87 985.098,402.87 992.177,402.87 999.257,402.87 1006.34,402.87 1013.42,402.87 1020.5,559.497 1027.58,559.497 1034.66,559.497 1041.74,559.497 1048.81,559.497 1055.89,559.497 1062.97,559.497 1070.05,559.497 1077.13,674.373 1084.21,674.373 1091.29,739.726 1098.37,739.726 1105.45,674.373 1112.53,739.726 1119.61,674.373 1126.69,674.373 1133.77,674.373 1140.85,674.373 1147.93,674.373 1155.01,674.373 1162.09,674.373 1169.17,674.373 1176.25,674.373 1183.33,674.373 1190.41,769.47 1197.49,769.47 1204.57,769.47 1211.65,769.47 1218.73,769.47 1225.81,769.47 1232.89,769.47 1239.97,769.47 1247.05,674.373 1254.13,739.726 1261.21,739.726 1268.28,674.373 1275.36,739.726 1282.44,739.726 1289.52,739.726 1296.6,674.373 1303.68,739.726 1310.76,739.726 1317.84,674.373 1324.92,674.373 1332,739.726 1339.08,674.373 1346.16,739.726 1353.24,739.726 1360.32,769.47 1367.4,769.47 1374.48,769.47 1381.56,769.47 1388.64,769.47 1395.72,769.47 1402.8,769.47 1409.88,769.47 "/>
<polyline clip-path="url(#clip082)" style="stroke:#000000; stroke-linecap:round; stroke-linejoin:round; stroke-width:6; stroke-opacity:1; fill:none" points="227.573,616.839 234.652,691.615 241.732,744.943 248.812,789.577 255.891,820.299 262.971,715.96 270.051,666.69 277.13,505.545 284.21,497.43 291.29,411.061 298.369,480.62 305.449,387.875 312.529,429.03 319.608,536.846 326.688,467.867 333.768,453.376 340.847,492.793 347.927,471.925 355.007,528.152 362.086,435.986 369.166,498.009 376.246,644.083 383.325,591.334 390.405,567.568 397.485,519.457 404.564,662.052 411.644,688.137 418.724,728.713 425.803,627.853 432.883,706.686 439.963,653.937 447.042,358.312 454.122,418.597 461.202,315.418 468.281,274.262 475.361,194.849 482.441,405.264 489.521,407.003 496.6,438.305 503.68,513.66 510.76,449.898 517.839,476.562 524.919,591.914 531.999,604.666 539.078,573.365 546.158,565.25 553.238,598.29 560.317,540.324 567.397,581.48 574.477,721.177 581.556,675.964 588.636,667.849 595.716,609.883 602.795,705.527 609.875,645.242 616.955,393.671 624.034,454.535 631.114,441.783 638.194,517.138 645.273,278.32 652.353,455.695 659.433,462.071 666.512,331.648 673.592,394.251 680.672,419.756 687.751,435.407 694.831,636.547 701.911,604.666 708.99,509.023 716.07,551.918 723.15,611.622 730.229,483.518 737.309,543.802 744.389,736.828 751.468,787.258 758.548,672.486 765.628,642.924 772.708,693.354 779.787,691.035 786.867,499.169 793.947,352.516 801.026,458.013 808.106,438.305 815.186,421.495 822.265,507.284 829.345,430.19 836.425,440.044 843.504,472.505 850.584,484.677 857.664,473.084 864.743,471.925 871.823,622.636 878.903,565.829 885.982,562.931 893.062,633.069 900.142,622.636 907.221,469.606 914.301,645.822 921.381,713.642 928.46,731.611 935.54,783.201 942.62,731.611 949.699,600.609 956.779,396.57 963.859,405.844 970.938,405.264 978.018,484.677 985.098,448.739 992.177,441.203 999.257,397.729 1006.34,434.827 1013.42,427.871 1020.5,455.695 1027.58,564.09 1034.66,612.781 1041.74,543.223 1048.81,588.436 1055.89,426.712 1062.97,582.06 1070.05,623.795 1077.13,560.612 1084.21,711.323 1091.29,673.645 1098.37,663.791 1105.45,741.465 1112.53,734.509 1119.61,707.266 1126.69,492.793 1133.77,538.585 1140.85,555.395 1147.93,686.978 1155.01,723.496 1162.09,760.014 1169.17,760.594 1176.25,771.028 1183.33,798.272 1190.41,763.492 1197.49,765.811 1204.57,705.527 1211.65,713.062 1218.73,714.221 1225.81,712.482 1232.89,758.855 1239.97,711.903 1247.05,688.717 1254.13,849.861 1261.21,852.759 1268.28,839.427 1275.36,786.678 1282.44,815.661 1289.52,811.024 1296.6,738.567 1303.68,743.784 1310.76,680.022 1317.84,609.883 1324.92,624.375 1332,755.377 1339.08,817.4 1346.16,819.719 1353.24,831.312 1360.32,812.763 1367.4,781.462 1374.48,750.16 1381.56,715.381 1388.64,703.788 1395.72,757.116 1402.8,760.594 1409.88,680.601 "/>
<path clip-path="url(#clip080)" d="M1504.04 425.518 L1952.76 425.518 L1952.76 75.5976 L1504.04 75.5976  Z" fill="#ffffff" fill-rule="evenodd" fill-opacity="1"/>
<polyline clip-path="url(#clip080)" style="stroke:#000000; stroke-linecap:round; stroke-linejoin:round; stroke-width:4; stroke-opacity:1; fill:none" points="1504.04,425.518 1952.76,425.518 1952.76,75.5976 1504.04,75.5976 1504.04,425.518 "/>
<polyline clip-path="url(#clip080)" style="stroke:#023eff; stroke-linecap:round; stroke-linejoin:round; stroke-width:5.625; stroke-opacity:1; fill:none" points="1523.6,133.918 1640.98,133.918 "/>
<path clip-path="url(#clip080)" d="M1665.36 148.983 L1665.36 164.451 L1660.54 164.451 L1660.54 124.191 L1665.36 124.191 L1665.36 128.618 Q1666.87 126.014 1669.16 124.764 Q1671.48 123.488 1674.68 123.488 Q1679.99 123.488 1683.3 127.707 Q1686.63 131.925 1686.63 138.8 Q1686.63 145.675 1683.3 149.894 Q1679.99 154.113 1674.68 154.113 Q1671.48 154.113 1669.16 152.863 Q1666.87 151.587 1665.36 148.983 M1681.66 138.8 Q1681.66 133.514 1679.47 130.519 Q1677.31 127.498 1673.51 127.498 Q1669.7 127.498 1667.52 130.519 Q1665.36 133.514 1665.36 138.8 Q1665.36 144.087 1667.52 147.108 Q1669.7 150.102 1673.51 150.102 Q1677.31 150.102 1679.47 147.108 Q1681.66 144.087 1681.66 138.8 Z" fill="#000000" fill-rule="nonzero" fill-opacity="1" /><path clip-path="url(#clip080)" d="M1711.48 128.67 Q1710.67 128.201 1709.7 127.993 Q1708.77 127.759 1707.62 127.759 Q1703.56 127.759 1701.37 130.415 Q1699.21 133.045 1699.21 137.993 L1699.21 153.358 L1694.39 153.358 L1694.39 124.191 L1699.21 124.191 L1699.21 128.722 Q1700.72 126.066 1703.14 124.79 Q1705.56 123.488 1709.03 123.488 Q1709.52 123.488 1710.12 123.566 Q1710.72 123.618 1711.45 123.748 L1711.48 128.67 Z" fill="#000000" fill-rule="nonzero" fill-opacity="1" /><path clip-path="url(#clip080)" d="M1740.28 137.576 L1740.28 139.92 L1718.25 139.92 Q1718.56 144.868 1721.22 147.472 Q1723.9 150.05 1728.66 150.05 Q1731.42 150.05 1734 149.373 Q1736.61 148.696 1739.16 147.342 L1739.16 151.873 Q1736.58 152.967 1733.87 153.54 Q1731.16 154.113 1728.38 154.113 Q1721.4 154.113 1717.31 150.05 Q1713.25 145.988 1713.25 139.061 Q1713.25 131.899 1717.1 127.707 Q1720.98 123.488 1727.54 123.488 Q1733.43 123.488 1736.84 127.29 Q1740.28 131.066 1740.28 137.576 M1735.49 136.17 Q1735.43 132.238 1733.27 129.894 Q1731.14 127.55 1727.6 127.55 Q1723.58 127.55 1721.16 129.816 Q1718.77 132.082 1718.4 136.196 L1735.49 136.17 Z" fill="#000000" fill-rule="nonzero" fill-opacity="1" /><path clip-path="url(#clip080)" d="M1767.33 128.618 L1767.33 112.837 L1772.13 112.837 L1772.13 153.358 L1767.33 153.358 L1767.33 148.983 Q1765.82 151.587 1763.51 152.863 Q1761.21 154.113 1757.99 154.113 Q1752.7 154.113 1749.37 149.894 Q1746.06 145.675 1746.06 138.8 Q1746.06 131.925 1749.37 127.707 Q1752.7 123.488 1757.99 123.488 Q1761.21 123.488 1763.51 124.764 Q1765.82 126.014 1767.33 128.618 M1751.01 138.8 Q1751.01 144.087 1753.17 147.108 Q1755.36 150.102 1759.16 150.102 Q1762.96 150.102 1765.15 147.108 Q1767.33 144.087 1767.33 138.8 Q1767.33 133.514 1765.15 130.519 Q1762.96 127.498 1759.16 127.498 Q1755.36 127.498 1753.17 130.519 Q1751.01 133.514 1751.01 138.8 Z" fill="#000000" fill-rule="nonzero" fill-opacity="1" /><path clip-path="url(#clip080)" d="M1782 124.191 L1786.79 124.191 L1786.79 153.358 L1782 153.358 L1782 124.191 M1782 112.837 L1786.79 112.837 L1786.79 118.905 L1782 118.905 L1782 112.837 Z" fill="#000000" fill-rule="nonzero" fill-opacity="1" /><path clip-path="url(#clip080)" d="M1817.8 125.311 L1817.8 129.79 Q1815.77 128.67 1813.71 128.123 Q1811.68 127.55 1809.6 127.55 Q1804.94 127.55 1802.36 130.519 Q1799.78 133.462 1799.78 138.8 Q1799.78 144.139 1802.36 147.108 Q1804.94 150.05 1809.6 150.05 Q1811.68 150.05 1813.71 149.503 Q1815.77 148.93 1817.8 147.811 L1817.8 152.238 Q1815.8 153.175 1813.64 153.644 Q1811.5 154.113 1809.08 154.113 Q1802.49 154.113 1798.61 149.972 Q1794.73 145.832 1794.73 138.8 Q1794.73 131.665 1798.64 127.576 Q1802.57 123.488 1809.39 123.488 Q1811.61 123.488 1813.71 123.957 Q1815.82 124.399 1817.8 125.311 Z" fill="#000000" fill-rule="nonzero" fill-opacity="1" /><path clip-path="url(#clip080)" d="M1830.88 115.91 L1830.88 124.191 L1840.75 124.191 L1840.75 127.915 L1830.88 127.915 L1830.88 143.748 Q1830.88 147.316 1831.84 148.332 Q1832.83 149.347 1835.82 149.347 L1840.75 149.347 L1840.75 153.358 L1835.82 153.358 Q1830.28 153.358 1828.17 151.3 Q1826.06 149.217 1826.06 143.748 L1826.06 127.915 L1822.54 127.915 L1822.54 124.191 L1826.06 124.191 L1826.06 115.91 L1830.88 115.91 Z" fill="#000000" fill-rule="nonzero" fill-opacity="1" /><path clip-path="url(#clip080)" d="M1869.21 162.212 L1869.21 165.936 L1841.5 165.936 L1841.5 162.212 L1869.21 162.212 Z" fill="#000000" fill-rule="nonzero" fill-opacity="1" /><path clip-path="url(#clip080)" d="M1874.44 114.478 L1895.09 114.478 L1895.09 118.905 L1879.26 118.905 L1879.26 128.436 Q1880.41 128.045 1881.55 127.863 Q1882.7 127.655 1883.84 127.655 Q1890.35 127.655 1894.16 131.222 Q1897.96 134.79 1897.96 140.884 Q1897.96 147.16 1894.05 150.649 Q1890.15 154.113 1883.04 154.113 Q1880.59 154.113 1878.04 153.696 Q1875.51 153.279 1872.8 152.446 L1872.8 147.16 Q1875.15 148.436 1877.65 149.061 Q1880.15 149.686 1882.93 149.686 Q1887.44 149.686 1890.07 147.316 Q1892.7 144.946 1892.7 140.884 Q1892.7 136.821 1890.07 134.451 Q1887.44 132.082 1882.93 132.082 Q1880.82 132.082 1878.71 132.55 Q1876.63 133.019 1874.44 134.009 L1874.44 114.478 Z" fill="#000000" fill-rule="nonzero" fill-opacity="1" /><path clip-path="url(#clip080)" d="M1912.85 148.93 L1931.21 148.93 L1931.21 153.358 L1906.53 153.358 L1906.53 148.93 Q1909.52 145.832 1914.68 140.623 Q1919.86 135.389 1921.19 133.878 Q1923.71 131.04 1924.7 129.087 Q1925.72 127.108 1925.72 125.207 Q1925.72 122.108 1923.53 120.155 Q1921.37 118.201 1917.88 118.201 Q1915.41 118.201 1912.65 119.061 Q1909.91 119.92 1906.79 121.665 L1906.79 116.353 Q1909.96 115.077 1912.72 114.425 Q1915.48 113.774 1917.78 113.774 Q1923.82 113.774 1927.41 116.795 Q1931.01 119.816 1931.01 124.868 Q1931.01 127.264 1930.09 129.425 Q1929.21 131.561 1926.84 134.477 Q1926.19 135.233 1922.7 138.852 Q1919.21 142.446 1912.85 148.93 Z" fill="#000000" fill-rule="nonzero" fill-opacity="1" /><polyline clip-path="url(#clip080)" style="stroke:#ff7c00; stroke-linecap:round; stroke-linejoin:round; stroke-width:5.625; stroke-opacity:1; fill:none" points="1523.6,192.238 1640.98,192.238 "/>
<path clip-path="url(#clip080)" d="M1665.36 207.303 L1665.36 222.771 L1660.54 222.771 L1660.54 182.511 L1665.36 182.511 L1665.36 186.938 Q1666.87 184.334 1669.16 183.084 Q1671.48 181.808 1674.68 181.808 Q1679.99 181.808 1683.3 186.027 Q1686.63 190.245 1686.63 197.12 Q1686.63 203.995 1683.3 208.214 Q1679.99 212.433 1674.68 212.433 Q1671.48 212.433 1669.16 211.183 Q1666.87 209.907 1665.36 207.303 M1681.66 197.12 Q1681.66 191.834 1679.47 188.839 Q1677.31 185.818 1673.51 185.818 Q1669.7 185.818 1667.52 188.839 Q1665.36 191.834 1665.36 197.12 Q1665.36 202.407 1667.52 205.428 Q1669.7 208.422 1673.51 208.422 Q1677.31 208.422 1679.47 205.428 Q1681.66 202.407 1681.66 197.12 Z" fill="#000000" fill-rule="nonzero" fill-opacity="1" /><path clip-path="url(#clip080)" d="M1711.48 186.99 Q1710.67 186.521 1709.7 186.313 Q1708.77 186.079 1707.62 186.079 Q1703.56 186.079 1701.37 188.735 Q1699.21 191.365 1699.21 196.313 L1699.21 211.678 L1694.39 211.678 L1694.39 182.511 L1699.21 182.511 L1699.21 187.042 Q1700.72 184.386 1703.14 183.11 Q1705.56 181.808 1709.03 181.808 Q1709.52 181.808 1710.12 181.886 Q1710.72 181.938 1711.45 182.068 L1711.48 186.99 Z" fill="#000000" fill-rule="nonzero" fill-opacity="1" /><path clip-path="url(#clip080)" d="M1740.28 195.896 L1740.28 198.24 L1718.25 198.24 Q1718.56 203.188 1721.22 205.792 Q1723.9 208.37 1728.66 208.37 Q1731.42 208.37 1734 207.693 Q1736.61 207.016 1739.16 205.662 L1739.16 210.193 Q1736.58 211.287 1733.87 211.86 Q1731.16 212.433 1728.38 212.433 Q1721.4 212.433 1717.31 208.37 Q1713.25 204.308 1713.25 197.381 Q1713.25 190.219 1717.1 186.027 Q1720.98 181.808 1727.54 181.808 Q1733.43 181.808 1736.84 185.61 Q1740.28 189.386 1740.28 195.896 M1735.49 194.49 Q1735.43 190.558 1733.27 188.214 Q1731.14 185.87 1727.6 185.87 Q1723.58 185.87 1721.16 188.136 Q1718.77 190.402 1718.4 194.516 L1735.49 194.49 Z" fill="#000000" fill-rule="nonzero" fill-opacity="1" /><path clip-path="url(#clip080)" d="M1767.33 186.938 L1767.33 171.157 L1772.13 171.157 L1772.13 211.678 L1767.33 211.678 L1767.33 207.303 Q1765.82 209.907 1763.51 211.183 Q1761.21 212.433 1757.99 212.433 Q1752.7 212.433 1749.37 208.214 Q1746.06 203.995 1746.06 197.12 Q1746.06 190.245 1749.37 186.027 Q1752.7 181.808 1757.99 181.808 Q1761.21 181.808 1763.51 183.084 Q1765.82 184.334 1767.33 186.938 M1751.01 197.12 Q1751.01 202.407 1753.17 205.428 Q1755.36 208.422 1759.16 208.422 Q1762.96 208.422 1765.15 205.428 Q1767.33 202.407 1767.33 197.12 Q1767.33 191.834 1765.15 188.839 Q1762.96 185.818 1759.16 185.818 Q1755.36 185.818 1753.17 188.839 Q1751.01 191.834 1751.01 197.12 Z" fill="#000000" fill-rule="nonzero" fill-opacity="1" /><path clip-path="url(#clip080)" d="M1782 182.511 L1786.79 182.511 L1786.79 211.678 L1782 211.678 L1782 182.511 M1782 171.157 L1786.79 171.157 L1786.79 177.225 L1782 177.225 L1782 171.157 Z" fill="#000000" fill-rule="nonzero" fill-opacity="1" /><path clip-path="url(#clip080)" d="M1817.8 183.631 L1817.8 188.11 Q1815.77 186.99 1813.71 186.443 Q1811.68 185.87 1809.6 185.87 Q1804.94 185.87 1802.36 188.839 Q1799.78 191.782 1799.78 197.12 Q1799.78 202.459 1802.36 205.428 Q1804.94 208.37 1809.6 208.37 Q1811.68 208.37 1813.71 207.823 Q1815.77 207.25 1817.8 206.131 L1817.8 210.558 Q1815.8 211.495 1813.64 211.964 Q1811.5 212.433 1809.08 212.433 Q1802.49 212.433 1798.61 208.292 Q1794.73 204.152 1794.73 197.12 Q1794.73 189.985 1798.64 185.896 Q1802.57 181.808 1809.39 181.808 Q1811.61 181.808 1813.71 182.277 Q1815.82 182.719 1817.8 183.631 Z" fill="#000000" fill-rule="nonzero" fill-opacity="1" /><path clip-path="url(#clip080)" d="M1830.88 174.23 L1830.88 182.511 L1840.75 182.511 L1840.75 186.235 L1830.88 186.235 L1830.88 202.068 Q1830.88 205.636 1831.84 206.652 Q1832.83 207.667 1835.82 207.667 L1840.75 207.667 L1840.75 211.678 L1835.82 211.678 Q1830.28 211.678 1828.17 209.62 Q1826.06 207.537 1826.06 202.068 L1826.06 186.235 L1822.54 186.235 L1822.54 182.511 L1826.06 182.511 L1826.06 174.23 L1830.88 174.23 Z" fill="#000000" fill-rule="nonzero" fill-opacity="1" /><path clip-path="url(#clip080)" d="M1869.21 220.532 L1869.21 224.256 L1841.5 224.256 L1841.5 220.532 L1869.21 220.532 Z" fill="#000000" fill-rule="nonzero" fill-opacity="1" /><path clip-path="url(#clip080)" d="M1878.92 207.25 L1897.28 207.25 L1897.28 211.678 L1872.59 211.678 L1872.59 207.25 Q1875.59 204.152 1880.75 198.943 Q1885.93 193.709 1887.26 192.198 Q1889.78 189.36 1890.77 187.407 Q1891.79 185.428 1891.79 183.527 Q1891.79 180.428 1889.6 178.475 Q1887.44 176.521 1883.95 176.521 Q1881.47 176.521 1878.71 177.381 Q1875.98 178.24 1872.85 179.985 L1872.85 174.673 Q1876.03 173.397 1878.79 172.745 Q1881.55 172.094 1883.84 172.094 Q1889.89 172.094 1893.48 175.115 Q1897.07 178.136 1897.07 183.188 Q1897.07 185.584 1896.16 187.745 Q1895.28 189.881 1892.91 192.797 Q1892.26 193.553 1888.77 197.172 Q1885.28 200.766 1878.92 207.25 Z" fill="#000000" fill-rule="nonzero" fill-opacity="1" /><path clip-path="url(#clip080)" d="M1920.22 190.141 Q1916.68 190.141 1914.6 192.563 Q1912.54 194.985 1912.54 199.204 Q1912.54 203.396 1914.6 205.844 Q1916.68 208.266 1920.22 208.266 Q1923.77 208.266 1925.82 205.844 Q1927.91 203.396 1927.91 199.204 Q1927.91 194.985 1925.82 192.563 Q1923.77 190.141 1920.22 190.141 M1930.67 173.657 L1930.67 178.449 Q1928.69 177.511 1926.66 177.016 Q1924.65 176.521 1922.67 176.521 Q1917.46 176.521 1914.7 180.037 Q1911.97 183.553 1911.58 190.662 Q1913.12 188.396 1915.43 187.199 Q1917.75 185.975 1920.54 185.975 Q1926.4 185.975 1929.78 189.542 Q1933.19 193.084 1933.19 199.204 Q1933.19 205.193 1929.65 208.813 Q1926.11 212.433 1920.22 212.433 Q1913.48 212.433 1909.91 207.277 Q1906.34 202.094 1906.34 192.277 Q1906.34 183.058 1910.72 177.589 Q1915.09 172.094 1922.46 172.094 Q1924.44 172.094 1926.45 172.485 Q1928.48 172.876 1930.67 173.657 Z" fill="#000000" fill-rule="nonzero" fill-opacity="1" /><polyline clip-path="url(#clip080)" style="stroke:#1ac938; stroke-linecap:round; stroke-linejoin:round; stroke-width:5.625; stroke-opacity:1; fill:none" points="1523.6,250.558 1640.98,250.558 "/>
<path clip-path="url(#clip080)" d="M1665.36 265.623 L1665.36 281.091 L1660.54 281.091 L1660.54 240.831 L1665.36 240.831 L1665.36 245.258 Q1666.87 242.654 1669.16 241.404 Q1671.48 240.128 1674.68 240.128 Q1679.99 240.128 1683.3 244.347 Q1686.63 248.565 1686.63 255.44 Q1686.63 262.315 1683.3 266.534 Q1679.99 270.753 1674.68 270.753 Q1671.48 270.753 1669.16 269.503 Q1666.87 268.227 1665.36 265.623 M1681.66 255.44 Q1681.66 250.154 1679.47 247.159 Q1677.31 244.138 1673.51 244.138 Q1669.7 244.138 1667.52 247.159 Q1665.36 250.154 1665.36 255.44 Q1665.36 260.727 1667.52 263.748 Q1669.7 266.742 1673.51 266.742 Q1677.31 266.742 1679.47 263.748 Q1681.66 260.727 1681.66 255.44 Z" fill="#000000" fill-rule="nonzero" fill-opacity="1" /><path clip-path="url(#clip080)" d="M1711.48 245.31 Q1710.67 244.841 1709.7 244.633 Q1708.77 244.399 1707.62 244.399 Q1703.56 244.399 1701.37 247.055 Q1699.21 249.685 1699.21 254.633 L1699.21 269.998 L1694.39 269.998 L1694.39 240.831 L1699.21 240.831 L1699.21 245.362 Q1700.72 242.706 1703.14 241.43 Q1705.56 240.128 1709.03 240.128 Q1709.52 240.128 1710.12 240.206 Q1710.72 240.258 1711.45 240.388 L1711.48 245.31 Z" fill="#000000" fill-rule="nonzero" fill-opacity="1" /><path clip-path="url(#clip080)" d="M1740.28 254.216 L1740.28 256.56 L1718.25 256.56 Q1718.56 261.508 1721.22 264.112 Q1723.9 266.69 1728.66 266.69 Q1731.42 266.69 1734 266.013 Q1736.61 265.336 1739.16 263.982 L1739.16 268.513 Q1736.58 269.607 1733.87 270.18 Q1731.16 270.753 1728.38 270.753 Q1721.4 270.753 1717.31 266.69 Q1713.25 262.628 1713.25 255.701 Q1713.25 248.539 1717.1 244.347 Q1720.98 240.128 1727.54 240.128 Q1733.43 240.128 1736.84 243.93 Q1740.28 247.706 1740.28 254.216 M1735.49 252.81 Q1735.43 248.878 1733.27 246.534 Q1731.14 244.19 1727.6 244.19 Q1723.58 244.19 1721.16 246.456 Q1718.77 248.722 1718.4 252.836 L1735.49 252.81 Z" fill="#000000" fill-rule="nonzero" fill-opacity="1" /><path clip-path="url(#clip080)" d="M1767.33 245.258 L1767.33 229.477 L1772.13 229.477 L1772.13 269.998 L1767.33 269.998 L1767.33 265.623 Q1765.82 268.227 1763.51 269.503 Q1761.21 270.753 1757.99 270.753 Q1752.7 270.753 1749.37 266.534 Q1746.06 262.315 1746.06 255.44 Q1746.06 248.565 1749.37 244.347 Q1752.7 240.128 1757.99 240.128 Q1761.21 240.128 1763.51 241.404 Q1765.82 242.654 1767.33 245.258 M1751.01 255.44 Q1751.01 260.727 1753.17 263.748 Q1755.36 266.742 1759.16 266.742 Q1762.96 266.742 1765.15 263.748 Q1767.33 260.727 1767.33 255.44 Q1767.33 250.154 1765.15 247.159 Q1762.96 244.138 1759.16 244.138 Q1755.36 244.138 1753.17 247.159 Q1751.01 250.154 1751.01 255.44 Z" fill="#000000" fill-rule="nonzero" fill-opacity="1" /><path clip-path="url(#clip080)" d="M1782 240.831 L1786.79 240.831 L1786.79 269.998 L1782 269.998 L1782 240.831 M1782 229.477 L1786.79 229.477 L1786.79 235.545 L1782 235.545 L1782 229.477 Z" fill="#000000" fill-rule="nonzero" fill-opacity="1" /><path clip-path="url(#clip080)" d="M1817.8 241.951 L1817.8 246.43 Q1815.77 245.31 1813.71 244.763 Q1811.68 244.19 1809.6 244.19 Q1804.94 244.19 1802.36 247.159 Q1799.78 250.102 1799.78 255.44 Q1799.78 260.779 1802.36 263.748 Q1804.94 266.69 1809.6 266.69 Q1811.68 266.69 1813.71 266.143 Q1815.77 265.57 1817.8 264.451 L1817.8 268.878 Q1815.8 269.815 1813.64 270.284 Q1811.5 270.753 1809.08 270.753 Q1802.49 270.753 1798.61 266.612 Q1794.73 262.472 1794.73 255.44 Q1794.73 248.305 1798.64 244.216 Q1802.57 240.128 1809.39 240.128 Q1811.61 240.128 1813.71 240.597 Q1815.82 241.039 1817.8 241.951 Z" fill="#000000" fill-rule="nonzero" fill-opacity="1" /><path clip-path="url(#clip080)" d="M1830.88 232.55 L1830.88 240.831 L1840.75 240.831 L1840.75 244.555 L1830.88 244.555 L1830.88 260.388 Q1830.88 263.956 1831.84 264.972 Q1832.83 265.987 1835.82 265.987 L1840.75 265.987 L1840.75 269.998 L1835.82 269.998 Q1830.28 269.998 1828.17 267.94 Q1826.06 265.857 1826.06 260.388 L1826.06 244.555 L1822.54 244.555 L1822.54 240.831 L1826.06 240.831 L1826.06 232.55 L1830.88 232.55 Z" fill="#000000" fill-rule="nonzero" fill-opacity="1" /><path clip-path="url(#clip080)" d="M1869.21 278.852 L1869.21 282.576 L1841.5 282.576 L1841.5 278.852 L1869.21 278.852 Z" fill="#000000" fill-rule="nonzero" fill-opacity="1" /><path clip-path="url(#clip080)" d="M1888.84 235.701 L1875.56 256.456 L1888.84 256.456 L1888.84 235.701 M1887.46 231.118 L1894.08 231.118 L1894.08 256.456 L1899.63 256.456 L1899.63 260.831 L1894.08 260.831 L1894.08 269.998 L1888.84 269.998 L1888.84 260.831 L1871.29 260.831 L1871.29 255.753 L1887.46 231.118 Z" fill="#000000" fill-rule="nonzero" fill-opacity="1" /><polyline clip-path="url(#clip080)" style="stroke:#e8000b; stroke-linecap:round; stroke-linejoin:round; stroke-width:5.625; stroke-opacity:1; fill:none" points="1523.6,308.878 1640.98,308.878 "/>
<path clip-path="url(#clip080)" d="M1665.36 323.943 L1665.36 339.411 L1660.54 339.411 L1660.54 299.151 L1665.36 299.151 L1665.36 303.578 Q1666.87 300.974 1669.16 299.724 Q1671.48 298.448 1674.68 298.448 Q1679.99 298.448 1683.3 302.667 Q1686.63 306.885 1686.63 313.76 Q1686.63 320.635 1683.3 324.854 Q1679.99 329.073 1674.68 329.073 Q1671.48 329.073 1669.16 327.823 Q1666.87 326.547 1665.36 323.943 M1681.66 313.76 Q1681.66 308.474 1679.47 305.479 Q1677.31 302.458 1673.51 302.458 Q1669.7 302.458 1667.52 305.479 Q1665.36 308.474 1665.36 313.76 Q1665.36 319.047 1667.52 322.068 Q1669.7 325.062 1673.51 325.062 Q1677.31 325.062 1679.47 322.068 Q1681.66 319.047 1681.66 313.76 Z" fill="#000000" fill-rule="nonzero" fill-opacity="1" /><path clip-path="url(#clip080)" d="M1711.48 303.63 Q1710.67 303.161 1709.7 302.953 Q1708.77 302.719 1707.62 302.719 Q1703.56 302.719 1701.37 305.375 Q1699.21 308.005 1699.21 312.953 L1699.21 328.318 L1694.39 328.318 L1694.39 299.151 L1699.21 299.151 L1699.21 303.682 Q1700.72 301.026 1703.14 299.75 Q1705.56 298.448 1709.03 298.448 Q1709.52 298.448 1710.12 298.526 Q1710.72 298.578 1711.45 298.708 L1711.48 303.63 Z" fill="#000000" fill-rule="nonzero" fill-opacity="1" /><path clip-path="url(#clip080)" d="M1740.28 312.536 L1740.28 314.88 L1718.25 314.88 Q1718.56 319.828 1721.22 322.432 Q1723.9 325.01 1728.66 325.01 Q1731.42 325.01 1734 324.333 Q1736.61 323.656 1739.16 322.302 L1739.16 326.833 Q1736.58 327.927 1733.87 328.5 Q1731.16 329.073 1728.38 329.073 Q1721.4 329.073 1717.31 325.01 Q1713.25 320.948 1713.25 314.021 Q1713.25 306.859 1717.1 302.667 Q1720.98 298.448 1727.54 298.448 Q1733.43 298.448 1736.84 302.25 Q1740.28 306.026 1740.28 312.536 M1735.49 311.13 Q1735.43 307.198 1733.27 304.854 Q1731.14 302.51 1727.6 302.51 Q1723.58 302.51 1721.16 304.776 Q1718.77 307.042 1718.4 311.156 L1735.49 311.13 Z" fill="#000000" fill-rule="nonzero" fill-opacity="1" /><path clip-path="url(#clip080)" d="M1767.33 303.578 L1767.33 287.797 L1772.13 287.797 L1772.13 328.318 L1767.33 328.318 L1767.33 323.943 Q1765.82 326.547 1763.51 327.823 Q1761.21 329.073 1757.99 329.073 Q1752.7 329.073 1749.37 324.854 Q1746.06 320.635 1746.06 313.76 Q1746.06 306.885 1749.37 302.667 Q1752.7 298.448 1757.99 298.448 Q1761.21 298.448 1763.51 299.724 Q1765.82 300.974 1767.33 303.578 M1751.01 313.76 Q1751.01 319.047 1753.17 322.068 Q1755.36 325.062 1759.16 325.062 Q1762.96 325.062 1765.15 322.068 Q1767.33 319.047 1767.33 313.76 Q1767.33 308.474 1765.15 305.479 Q1762.96 302.458 1759.16 302.458 Q1755.36 302.458 1753.17 305.479 Q1751.01 308.474 1751.01 313.76 Z" fill="#000000" fill-rule="nonzero" fill-opacity="1" /><path clip-path="url(#clip080)" d="M1782 299.151 L1786.79 299.151 L1786.79 328.318 L1782 328.318 L1782 299.151 M1782 287.797 L1786.79 287.797 L1786.79 293.865 L1782 293.865 L1782 287.797 Z" fill="#000000" fill-rule="nonzero" fill-opacity="1" /><path clip-path="url(#clip080)" d="M1817.8 300.271 L1817.8 304.75 Q1815.77 303.63 1813.71 303.083 Q1811.68 302.51 1809.6 302.51 Q1804.94 302.51 1802.36 305.479 Q1799.78 308.422 1799.78 313.76 Q1799.78 319.099 1802.36 322.068 Q1804.94 325.01 1809.6 325.01 Q1811.68 325.01 1813.71 324.463 Q1815.77 323.89 1817.8 322.771 L1817.8 327.198 Q1815.8 328.135 1813.64 328.604 Q1811.5 329.073 1809.08 329.073 Q1802.49 329.073 1798.61 324.932 Q1794.73 320.792 1794.73 313.76 Q1794.73 306.625 1798.64 302.536 Q1802.57 298.448 1809.39 298.448 Q1811.61 298.448 1813.71 298.917 Q1815.82 299.359 1817.8 300.271 Z" fill="#000000" fill-rule="nonzero" fill-opacity="1" /><path clip-path="url(#clip080)" d="M1830.88 290.87 L1830.88 299.151 L1840.75 299.151 L1840.75 302.875 L1830.88 302.875 L1830.88 318.708 Q1830.88 322.276 1831.84 323.292 Q1832.83 324.307 1835.82 324.307 L1840.75 324.307 L1840.75 328.318 L1835.82 328.318 Q1830.28 328.318 1828.17 326.26 Q1826.06 324.177 1826.06 318.708 L1826.06 302.875 L1822.54 302.875 L1822.54 299.151 L1826.06 299.151 L1826.06 290.87 L1830.88 290.87 Z" fill="#000000" fill-rule="nonzero" fill-opacity="1" /><path clip-path="url(#clip080)" d="M1869.21 337.172 L1869.21 340.896 L1841.5 340.896 L1841.5 337.172 L1869.21 337.172 Z" fill="#000000" fill-rule="nonzero" fill-opacity="1" /><path clip-path="url(#clip080)" d="M1875.3 323.89 L1883.9 323.89 L1883.9 294.229 L1874.55 296.104 L1874.55 291.313 L1883.84 289.438 L1889.1 289.438 L1889.1 323.89 L1897.7 323.89 L1897.7 328.318 L1875.3 328.318 L1875.3 323.89 Z" fill="#000000" fill-rule="nonzero" fill-opacity="1" /><polyline clip-path="url(#clip080)" style="stroke:#000000; stroke-linecap:round; stroke-linejoin:round; stroke-width:6.75; stroke-opacity:1; fill:none" points="1523.6,367.198 1640.98,367.198 "/>
<path clip-path="url(#clip080)" d="M1675.62 371.976 Q1669.81 371.976 1667.57 373.304 Q1665.33 374.632 1665.33 377.836 Q1665.33 380.388 1667 381.898 Q1668.69 383.382 1671.58 383.382 Q1675.56 383.382 1677.96 380.57 Q1680.38 377.731 1680.38 373.044 L1680.38 371.976 L1675.62 371.976 M1685.17 369.997 L1685.17 386.638 L1680.38 386.638 L1680.38 382.21 Q1678.74 384.867 1676.29 386.143 Q1673.85 387.393 1670.3 387.393 Q1665.82 387.393 1663.17 384.893 Q1660.54 382.367 1660.54 378.148 Q1660.54 373.226 1663.82 370.726 Q1667.13 368.226 1673.66 368.226 L1680.38 368.226 L1680.38 367.757 Q1680.38 364.45 1678.19 362.653 Q1676.03 360.83 1672.1 360.83 Q1669.6 360.83 1667.23 361.429 Q1664.86 362.028 1662.67 363.226 L1662.67 358.799 Q1665.3 357.784 1667.78 357.289 Q1670.25 356.768 1672.6 356.768 Q1678.92 356.768 1682.05 360.049 Q1685.17 363.33 1685.17 369.997 Z" fill="#000000" fill-rule="nonzero" fill-opacity="1" /><path clip-path="url(#clip080)" d="M1716.03 358.591 L1716.03 363.07 Q1714 361.95 1711.94 361.403 Q1709.91 360.83 1707.83 360.83 Q1703.17 360.83 1700.59 363.799 Q1698.01 366.742 1698.01 372.08 Q1698.01 377.419 1700.59 380.388 Q1703.17 383.33 1707.83 383.33 Q1709.91 383.33 1711.94 382.783 Q1714 382.21 1716.03 381.091 L1716.03 385.518 Q1714.03 386.455 1711.87 386.924 Q1709.73 387.393 1707.31 387.393 Q1700.72 387.393 1696.84 383.252 Q1692.96 379.112 1692.96 372.08 Q1692.96 364.945 1696.87 360.856 Q1700.8 356.768 1707.62 356.768 Q1709.83 356.768 1711.94 357.237 Q1714.05 357.679 1716.03 358.591 Z" fill="#000000" fill-rule="nonzero" fill-opacity="1" /><path clip-path="url(#clip080)" d="M1729.11 349.19 L1729.11 357.471 L1738.98 357.471 L1738.98 361.195 L1729.11 361.195 L1729.11 377.028 Q1729.11 380.596 1730.07 381.612 Q1731.06 382.627 1734.05 382.627 L1738.98 382.627 L1738.98 386.638 L1734.05 386.638 Q1728.51 386.638 1726.4 384.58 Q1724.29 382.497 1724.29 377.028 L1724.29 361.195 L1720.77 361.195 L1720.77 357.471 L1724.29 357.471 L1724.29 349.19 L1729.11 349.19 Z" fill="#000000" fill-rule="nonzero" fill-opacity="1" /><path clip-path="url(#clip080)" d="M1744.78 375.127 L1744.78 357.471 L1749.57 357.471 L1749.57 374.945 Q1749.57 379.086 1751.19 381.169 Q1752.8 383.226 1756.03 383.226 Q1759.91 383.226 1762.15 380.752 Q1764.42 378.278 1764.42 374.007 L1764.42 357.471 L1769.21 357.471 L1769.21 386.638 L1764.42 386.638 L1764.42 382.158 Q1762.67 384.815 1760.36 386.117 Q1758.06 387.393 1755.02 387.393 Q1749.99 387.393 1747.39 384.268 Q1744.78 381.143 1744.78 375.127 M1756.84 356.768 L1756.84 356.768 Z" fill="#000000" fill-rule="nonzero" fill-opacity="1" /><path clip-path="url(#clip080)" d="M1792.33 371.976 Q1786.53 371.976 1784.29 373.304 Q1782.05 374.632 1782.05 377.836 Q1782.05 380.388 1783.71 381.898 Q1785.41 383.382 1788.3 383.382 Q1792.28 383.382 1794.68 380.57 Q1797.1 377.731 1797.1 373.044 L1797.1 371.976 L1792.33 371.976 M1801.89 369.997 L1801.89 386.638 L1797.1 386.638 L1797.1 382.21 Q1795.46 384.867 1793.01 386.143 Q1790.56 387.393 1787.02 387.393 Q1782.54 387.393 1779.89 384.893 Q1777.26 382.367 1777.26 378.148 Q1777.26 373.226 1780.54 370.726 Q1783.84 368.226 1790.38 368.226 L1797.1 368.226 L1797.1 367.757 Q1797.1 364.45 1794.91 362.653 Q1792.75 360.83 1788.82 360.83 Q1786.32 360.83 1783.95 361.429 Q1781.58 362.028 1779.39 363.226 L1779.39 358.799 Q1782.02 357.784 1784.5 357.289 Q1786.97 356.768 1789.31 356.768 Q1795.64 356.768 1798.77 360.049 Q1801.89 363.33 1801.89 369.997 Z" fill="#000000" fill-rule="nonzero" fill-opacity="1" /><path clip-path="url(#clip080)" d="M1811.76 346.117 L1816.55 346.117 L1816.55 386.638 L1811.76 386.638 L1811.76 346.117 Z" fill="#000000" fill-rule="nonzero" fill-opacity="1" /></svg>
