<?xml version="1.0" encoding="UTF-8" standalone="no"?>
<!DOCTYPE svg PUBLIC "-//W3C//DTD SVG 1.1//EN"
 "http://www.w3.org/Graphics/SVG/1.1/DTD/svg11.dtd">
<!-- Generated by graphviz version 2.50.0 (20211204.2007)
 -->
<!-- Pages: 1 -->
<svg width="1238pt" height="742pt"
 viewBox="0.00 0.00 1238.00 742.00" xmlns="http://www.w3.org/2000/svg" xmlns:xlink="http://www.w3.org/1999/xlink">
<g id="graph0" class="graph" transform="scale(1 1) rotate(0) translate(4 738)">
<polygon fill="white" stroke="transparent" points="-4,4 -4,-738 1234,-738 1234,4 -4,4"/>
<!-- 1 -->
<g id="node1" class="node">
<title>1</title>
<text text-anchor="start" x="375" y="-715.8" font-family="Arial" font-weight="bold" font-size="14.00"> </text>
<path fill="#ebebeb" stroke="transparent" d="M335,-643C335,-643 419,-643 419,-643 425,-643 431,-649 431,-655 431,-655 431,-695 431,-695 431,-701 425,-707 419,-707 419,-707 335,-707 335,-707 329,-707 323,-701 323,-695 323,-695 323,-655 323,-655 323,-649 329,-643 335,-643"/>
<text text-anchor="start" x="324" y="-704.4" font-family="Arial" font-size="2.00"> </text>
<text text-anchor="start" x="324" y="-698.4" font-family="Arial" font-size="7.00"> &#160;1</text>
<text text-anchor="start" x="338" y="-681.8" font-family="Arial" font-weight="bold" font-size="14.00">Mean: 29.03</text>
<text text-anchor="start" x="353.5" y="-664.8" font-family="Arial" font-weight="bold" font-size="14.00">n = 168</text>
<text text-anchor="start" x="375.5" y="-646.8" font-family="Arial" font-size="9.00"> </text>
<path fill="none" stroke="#333333" d="M335,-643C335,-643 419,-643 419,-643 425,-643 431,-649 431,-655 431,-655 431,-695 431,-695 431,-701 425,-707 419,-707 419,-707 335,-707 335,-707 329,-707 323,-701 323,-695 323,-695 323,-655 323,-655 323,-649 329,-643 335,-643"/>
<text text-anchor="start" x="362.5" y="-628.8" font-family="Arial" font-weight="bold" font-size="14.00">time</text>
</g>
<!-- 2 -->
<g id="node2" class="node">
<title>2</title>
<text text-anchor="start" x="276.5" y="-561.8" font-family="Arial" font-weight="bold" font-size="14.00"> &lt; 5.5</text>
<text text-anchor="start" x="230" y="-517.3" font-family="Arial" font-size="14.00"> &#160;&#160;</text>
<path fill="#ebebeb" stroke="transparent" d="M256,-489C256,-489 332,-489 332,-489 338,-489 344,-495 344,-501 344,-501 344,-541 344,-541 344,-547 338,-553 332,-553 332,-553 256,-553 256,-553 250,-553 244,-547 244,-541 244,-541 244,-501 244,-501 244,-495 250,-489 256,-489"/>
<text text-anchor="start" x="245" y="-550.4" font-family="Arial" font-size="2.00"> </text>
<text text-anchor="start" x="245" y="-544.4" font-family="Arial" font-size="7.00"> &#160;2</text>
<text text-anchor="start" x="259" y="-527.8" font-family="Arial" font-weight="bold" font-size="14.00">Mean: 22.3</text>
<text text-anchor="start" x="274" y="-510.8" font-family="Arial" font-weight="bold" font-size="14.00">n = 42</text>
<text text-anchor="start" x="292.5" y="-492.8" font-family="Arial" font-size="9.00"> </text>
<path fill="none" stroke="#333333" d="M256,-489C256,-489 332,-489 332,-489 338,-489 344,-495 344,-501 344,-501 344,-541 344,-541 344,-547 338,-553 332,-553 332,-553 256,-553 256,-553 250,-553 244,-547 244,-541 244,-541 244,-501 244,-501 244,-495 250,-489 256,-489"/>
<text text-anchor="start" x="346" y="-517.3" font-family="Arial" font-size="14.00"> &#160;&#160;</text>
<text text-anchor="start" x="244.5" y="-474.8" font-family="Arial" font-weight="bold" font-size="14.00">prev_24_inflow</text>
</g>
<!-- 1&#45;&gt;2 -->
<g id="edge1" class="edge">
<title>1&#45;&gt;2</title>
<path fill="none" stroke="#888888" d="M345.15,-615.67C340.38,-606.94 335.44,-597.88 330.58,-588.99"/>
<polygon fill="#888888" stroke="#888888" points="333.63,-587.28 325.77,-580.18 327.49,-590.63 333.63,-587.28"/>
</g>
<!-- 5 -->
<g id="node3" class="node">
<title>5</title>
<text text-anchor="start" x="443" y="-561.8" font-family="Arial" font-weight="bold" font-size="14.00"> ≥ 5.5</text>
<text text-anchor="start" x="396" y="-517.3" font-family="Arial" font-size="14.00"> &#160;</text>
<path fill="#ebebeb" stroke="transparent" d="M418,-489C418,-489 502,-489 502,-489 508,-489 514,-495 514,-501 514,-501 514,-541 514,-541 514,-547 508,-553 502,-553 502,-553 418,-553 418,-553 412,-553 406,-547 406,-541 406,-541 406,-501 406,-501 406,-495 412,-489 418,-489"/>
<text text-anchor="start" x="407" y="-550.4" font-family="Arial" font-size="2.00"> </text>
<text text-anchor="start" x="407" y="-544.4" font-family="Arial" font-size="7.00"> &#160;5</text>
<text text-anchor="start" x="421" y="-527.8" font-family="Arial" font-weight="bold" font-size="14.00">Mean: 31.27</text>
<text text-anchor="start" x="436.5" y="-510.8" font-family="Arial" font-weight="bold" font-size="14.00">n = 126</text>
<text text-anchor="start" x="458.5" y="-492.8" font-family="Arial" font-size="9.00"> </text>
<path fill="none" stroke="#333333" d="M418,-489C418,-489 502,-489 502,-489 508,-489 514,-495 514,-501 514,-501 514,-541 514,-541 514,-547 508,-553 502,-553 502,-553 418,-553 418,-553 412,-553 406,-547 406,-541 406,-541 406,-501 406,-501 406,-495 412,-489 418,-489"/>
<text text-anchor="start" x="516" y="-517.3" font-family="Arial" font-size="14.00"> &#160;</text>
<text text-anchor="start" x="410.5" y="-474.8" font-family="Arial" font-weight="bold" font-size="14.00">prev_24_inflow</text>
</g>
<!-- 1&#45;&gt;5 -->
<g id="edge2" class="edge">
<title>1&#45;&gt;5</title>
<path fill="none" stroke="#888888" d="M408.85,-615.67C413.62,-606.94 418.56,-597.88 423.42,-588.99"/>
<polygon fill="#888888" stroke="#888888" points="426.51,-590.63 428.23,-580.18 420.37,-587.28 426.51,-590.63"/>
</g>
<!-- 3 -->
<g id="node4" class="node">
<title>3</title>
<text text-anchor="start" x="123" y="-407.8" font-family="Arial" font-weight="bold" font-size="14.00"> &lt; 23.22</text>
<path fill="#f8766d" fill-opacity="0.874510" stroke="transparent" d="M107,-335C107,-335 189,-335 189,-335 195,-335 201,-341 201,-347 201,-347 201,-387 201,-387 201,-393 195,-399 189,-399 189,-399 107,-399 107,-399 101,-399 95,-393 95,-387 95,-387 95,-347 95,-347 95,-341 101,-335 107,-335"/>
<text text-anchor="start" x="96" y="-396.4" font-family="Arial" font-size="2.00"> </text>
<text text-anchor="start" x="96" y="-390.4" font-family="Arial" font-size="7.00"> &#160;3</text>
<text text-anchor="start" x="110" y="-373.8" font-family="Arial" font-weight="bold" font-size="14.00">Predict 20.9</text>
<text text-anchor="start" x="128" y="-356.8" font-family="Arial" font-weight="bold" font-size="14.00">n = 28</text>
<text text-anchor="start" x="146.5" y="-338.8" font-family="Arial" font-size="9.00"> </text>
<path fill="none" stroke="#333333" d="M107,-335C107,-335 189,-335 189,-335 195,-335 201,-341 201,-347 201,-347 201,-387 201,-387 201,-393 195,-399 189,-399 189,-399 107,-399 107,-399 101,-399 95,-393 95,-387 95,-387 95,-347 95,-347 95,-341 101,-335 107,-335"/>
<text text-anchor="start" x="146" y="-320.8" font-family="Arial" font-weight="bold" font-size="14.00"> </text>
</g>
<!-- 2&#45;&gt;3 -->
<g id="edge3" class="edge">
<title>2&#45;&gt;3</title>
<path fill="none" stroke="#888888" d="M237.97,-461.67C229.15,-452.49 219.98,-442.94 211.02,-433.6"/>
<polygon fill="#888888" stroke="#888888" points="213.33,-430.96 203.88,-426.18 208.28,-435.81 213.33,-430.96"/>
</g>
<!-- 4 -->
<g id="node5" class="node">
<title>4</title>
<text text-anchor="start" x="271.5" y="-407.8" font-family="Arial" font-weight="bold" font-size="14.00"> ≥ 23.22</text>
<path fill="#f8766d" fill-opacity="0.756863" stroke="transparent" d="M255,-335C255,-335 337,-335 337,-335 343,-335 349,-341 349,-347 349,-347 349,-387 349,-387 349,-393 343,-399 337,-399 337,-399 255,-399 255,-399 249,-399 243,-393 243,-387 243,-387 243,-347 243,-347 243,-341 249,-335 255,-335"/>
<text text-anchor="start" x="244" y="-396.4" font-family="Arial" font-size="2.00"> </text>
<text text-anchor="start" x="244" y="-390.4" font-family="Arial" font-size="7.00"> &#160;4</text>
<text text-anchor="start" x="258" y="-373.8" font-family="Arial" font-weight="bold" font-size="14.00">Predict 25.1</text>
<text text-anchor="start" x="276" y="-356.8" font-family="Arial" font-weight="bold" font-size="14.00">n = 14</text>
<text text-anchor="start" x="294.5" y="-338.8" font-family="Arial" font-size="9.00"> </text>
<path fill="none" stroke="#333333" d="M255,-335C255,-335 337,-335 337,-335 343,-335 349,-341 349,-347 349,-347 349,-387 349,-387 349,-393 343,-399 337,-399 337,-399 255,-399 255,-399 249,-399 243,-393 243,-387 243,-387 243,-347 243,-347 243,-341 249,-335 255,-335"/>
<text text-anchor="start" x="294" y="-320.8" font-family="Arial" font-weight="bold" font-size="14.00"> </text>
</g>
<!-- 2&#45;&gt;4 -->
<g id="edge4" class="edge">
<title>2&#45;&gt;4</title>
<path fill="none" stroke="#888888" d="M294.77,-461.67C294.88,-453.39 294.99,-444.83 295.1,-436.38"/>
<polygon fill="#888888" stroke="#888888" points="298.6,-436.22 295.23,-426.18 291.6,-436.13 298.6,-436.22"/>
</g>
<!-- 6 -->
<g id="node6" class="node">
<title>6</title>
<text text-anchor="start" x="434" y="-407.8" font-family="Arial" font-weight="bold" font-size="14.00"> &lt; 32.53</text>
<text text-anchor="start" x="391" y="-363.3" font-family="Arial" font-size="14.00"> &#160;&#160;</text>
<path fill="#ebebeb" stroke="transparent" d="M417,-335C417,-335 501,-335 501,-335 507,-335 513,-341 513,-347 513,-347 513,-387 513,-387 513,-393 507,-399 501,-399 501,-399 417,-399 417,-399 411,-399 405,-393 405,-387 405,-387 405,-347 405,-347 405,-341 411,-335 417,-335"/>
<text text-anchor="start" x="406" y="-396.4" font-family="Arial" font-size="2.00"> </text>
<text text-anchor="start" x="406" y="-390.4" font-family="Arial" font-size="7.00"> &#160;6</text>
<text text-anchor="start" x="420" y="-373.8" font-family="Arial" font-weight="bold" font-size="14.00">Mean: 29.59</text>
<text text-anchor="start" x="439" y="-356.8" font-family="Arial" font-weight="bold" font-size="14.00">n = 88</text>
<text text-anchor="start" x="457.5" y="-338.8" font-family="Arial" font-size="9.00"> </text>
<path fill="none" stroke="#333333" d="M417,-335C417,-335 501,-335 501,-335 507,-335 513,-341 513,-347 513,-347 513,-387 513,-387 513,-393 507,-399 501,-399 501,-399 417,-399 417,-399 411,-399 405,-393 405,-387 405,-387 405,-347 405,-347 405,-341 411,-335 417,-335"/>
<text text-anchor="start" x="515" y="-363.3" font-family="Arial" font-size="14.00"> &#160;&#160;</text>
<text text-anchor="start" x="406" y="-320.8" font-family="Arial" font-weight="bold" font-size="14.00">prev_168_inflow</text>
</g>
<!-- 5&#45;&gt;6 -->
<g id="edge5" class="edge">
<title>5&#45;&gt;6</title>
<path fill="none" stroke="#888888" d="M459.62,-461.67C459.56,-453.39 459.51,-444.83 459.45,-436.38"/>
<polygon fill="#888888" stroke="#888888" points="462.95,-436.15 459.38,-426.18 455.95,-436.2 462.95,-436.15"/>
</g>
<!-- 13 -->
<g id="node7" class="node">
<title>13</title>
<text text-anchor="start" x="671.5" y="-407.8" font-family="Arial" font-weight="bold" font-size="14.00"> ≥ 32.53</text>
<path fill="#ebebeb" stroke="transparent" d="M654,-335C654,-335 738,-335 738,-335 744,-335 750,-341 750,-347 750,-347 750,-387 750,-387 750,-393 744,-399 738,-399 738,-399 654,-399 654,-399 648,-399 642,-393 642,-387 642,-387 642,-347 642,-347 642,-341 648,-335 654,-335"/>
<text text-anchor="start" x="643" y="-396.4" font-family="Arial" font-size="2.00"> </text>
<text text-anchor="start" x="643" y="-390.4" font-family="Arial" font-size="7.00"> &#160;13</text>
<text text-anchor="start" x="657" y="-373.8" font-family="Arial" font-weight="bold" font-size="14.00">Mean: 35.17</text>
<text text-anchor="start" x="676" y="-356.8" font-family="Arial" font-weight="bold" font-size="14.00">n = 38</text>
<text text-anchor="start" x="694.5" y="-338.8" font-family="Arial" font-size="9.00"> </text>
<path fill="none" stroke="#333333" d="M654,-335C654,-335 738,-335 738,-335 744,-335 750,-341 750,-347 750,-347 750,-387 750,-387 750,-393 744,-399 738,-399 738,-399 654,-399 654,-399 648,-399 642,-393 642,-387 642,-387 642,-347 642,-347 642,-341 648,-335 654,-335"/>
<text text-anchor="start" x="681.5" y="-320.8" font-family="Arial" font-weight="bold" font-size="14.00">time</text>
</g>
<!-- 5&#45;&gt;13 -->
<g id="edge6" class="edge">
<title>5&#45;&gt;13</title>
<path fill="none" stroke="#888888" d="M534.02,-472.32C561.83,-454.41 593.44,-434.05 621.31,-416.1"/>
<polygon fill="#888888" stroke="#888888" points="623.32,-418.97 629.83,-410.62 619.53,-413.09 623.32,-418.97"/>
</g>
<!-- 7 -->
<g id="node8" class="node">
<title>7</title>
<text text-anchor="start" x="203.5" y="-253.8" font-family="Arial" font-weight="bold" font-size="14.00"> &lt; 29.2</text>
<path fill="#ebebeb" stroke="transparent" d="M183,-181C183,-181 267,-181 267,-181 273,-181 279,-187 279,-193 279,-193 279,-233 279,-233 279,-239 273,-245 267,-245 267,-245 183,-245 183,-245 177,-245 171,-239 171,-233 171,-233 171,-193 171,-193 171,-187 177,-181 183,-181"/>
<text text-anchor="start" x="172" y="-242.4" font-family="Arial" font-size="2.00"> </text>
<text text-anchor="start" x="172" y="-236.4" font-family="Arial" font-size="7.00"> &#160;7</text>
<text text-anchor="start" x="186" y="-219.8" font-family="Arial" font-weight="bold" font-size="14.00">Mean: 28.63</text>
<text text-anchor="start" x="205" y="-202.8" font-family="Arial" font-weight="bold" font-size="14.00">n = 60</text>
<text text-anchor="start" x="223.5" y="-184.8" font-family="Arial" font-size="9.00"> </text>
<path fill="none" stroke="#333333" d="M183,-181C183,-181 267,-181 267,-181 273,-181 279,-187 279,-193 279,-193 279,-233 279,-233 279,-239 273,-245 267,-245 267,-245 183,-245 183,-245 177,-245 171,-239 171,-233 171,-233 171,-193 171,-193 171,-187 177,-181 183,-181"/>
<text text-anchor="start" x="210.5" y="-166.8" font-family="Arial" font-weight="bold" font-size="14.00">time</text>
</g>
<!-- 6&#45;&gt;7 -->
<g id="edge7" class="edge">
<title>6&#45;&gt;7</title>
<path fill="none" stroke="#888888" d="M380.76,-315.17C354.61,-298.19 325.56,-279.32 299.7,-262.52"/>
<polygon fill="#888888" stroke="#888888" points="301.35,-259.42 291.06,-256.91 297.54,-265.29 301.35,-259.42"/>
</g>
<!-- 10 -->
<g id="node9" class="node">
<title>10</title>
<text text-anchor="start" x="438" y="-253.8" font-family="Arial" font-weight="bold" font-size="14.00"> ≥ 29.2</text>
<text text-anchor="start" x="395" y="-209.3" font-family="Arial" font-size="14.00"> &#160;</text>
<path fill="#ebebeb" stroke="transparent" d="M417,-181C417,-181 501,-181 501,-181 507,-181 513,-187 513,-193 513,-193 513,-233 513,-233 513,-239 507,-245 501,-245 501,-245 417,-245 417,-245 411,-245 405,-239 405,-233 405,-233 405,-193 405,-193 405,-187 411,-181 417,-181"/>
<text text-anchor="start" x="406" y="-242.4" font-family="Arial" font-size="2.00"> </text>
<text text-anchor="start" x="406" y="-236.4" font-family="Arial" font-size="7.00"> &#160;10</text>
<text text-anchor="start" x="420" y="-219.8" font-family="Arial" font-weight="bold" font-size="14.00">Mean: 31.66</text>
<text text-anchor="start" x="439" y="-202.8" font-family="Arial" font-weight="bold" font-size="14.00">n = 28</text>
<text text-anchor="start" x="457.5" y="-184.8" font-family="Arial" font-size="9.00"> </text>
<path fill="none" stroke="#333333" d="M417,-181C417,-181 501,-181 501,-181 507,-181 513,-187 513,-193 513,-193 513,-233 513,-233 513,-239 507,-245 501,-245 501,-245 417,-245 417,-245 411,-245 405,-239 405,-233 405,-233 405,-193 405,-193 405,-187 411,-181 417,-181"/>
<text text-anchor="start" x="515" y="-209.3" font-family="Arial" font-size="14.00"> &#160;</text>
<text text-anchor="start" x="409.5" y="-166.8" font-family="Arial" font-weight="bold" font-size="14.00">prev_24_inflow</text>
</g>
<!-- 6&#45;&gt;10 -->
<g id="edge8" class="edge">
<title>6&#45;&gt;10</title>
<path fill="none" stroke="#888888" d="M459,-307.67C459,-299.39 459,-290.83 459,-282.38"/>
<polygon fill="#888888" stroke="#888888" points="462.5,-282.18 459,-272.18 455.5,-282.18 462.5,-282.18"/>
</g>
<!-- 14 -->
<g id="node14" class="node">
<title>14</title>
<text text-anchor="start" x="678.5" y="-253.8" font-family="Arial" font-weight="bold" font-size="14.00"> &lt; 8.5</text>
<path fill="#ebebeb" stroke="transparent" d="M654,-181C654,-181 738,-181 738,-181 744,-181 750,-187 750,-193 750,-193 750,-233 750,-233 750,-239 744,-245 738,-245 738,-245 654,-245 654,-245 648,-245 642,-239 642,-233 642,-233 642,-193 642,-193 642,-187 648,-181 654,-181"/>
<text text-anchor="start" x="643" y="-242.4" font-family="Arial" font-size="2.00"> </text>
<text text-anchor="start" x="643" y="-236.4" font-family="Arial" font-size="7.00"> &#160;14</text>
<text text-anchor="start" x="657" y="-219.8" font-family="Arial" font-weight="bold" font-size="14.00">Mean: 36.18</text>
<text text-anchor="start" x="676" y="-202.8" font-family="Arial" font-weight="bold" font-size="14.00">n = 13</text>
<text text-anchor="start" x="694.5" y="-184.8" font-family="Arial" font-size="9.00"> </text>
<path fill="none" stroke="#333333" d="M654,-181C654,-181 738,-181 738,-181 744,-181 750,-187 750,-193 750,-193 750,-233 750,-233 750,-239 744,-245 738,-245 738,-245 654,-245 654,-245 648,-245 642,-239 642,-233 642,-233 642,-193 642,-193 642,-187 648,-181 654,-181"/>
<text text-anchor="start" x="653.5" y="-166.8" font-family="Arial" font-weight="bold" font-size="14.00">day_of_week</text>
</g>
<!-- 13&#45;&gt;14 -->
<g id="edge13" class="edge">
<title>13&#45;&gt;14</title>
<path fill="none" stroke="#888888" d="M696,-307.67C696,-299.39 696,-290.83 696,-282.38"/>
<polygon fill="#888888" stroke="#888888" points="699.5,-282.18 696,-272.18 692.5,-282.18 699.5,-282.18"/>
</g>
<!-- 17 -->
<g id="node15" class="node">
<title>17</title>
<text text-anchor="start" x="988" y="-253.8" font-family="Arial" font-weight="bold" font-size="14.00"> ≥ 8.5</text>
<path fill="#ebebeb" stroke="transparent" d="M963,-181C963,-181 1047,-181 1047,-181 1053,-181 1059,-187 1059,-193 1059,-193 1059,-233 1059,-233 1059,-239 1053,-245 1047,-245 1047,-245 963,-245 963,-245 957,-245 951,-239 951,-233 951,-233 951,-193 951,-193 951,-187 957,-181 963,-181"/>
<text text-anchor="start" x="952" y="-242.4" font-family="Arial" font-size="2.00"> </text>
<text text-anchor="start" x="952" y="-236.4" font-family="Arial" font-size="7.00"> &#160;17</text>
<text text-anchor="start" x="966" y="-219.8" font-family="Arial" font-weight="bold" font-size="14.00">Mean: 34.65</text>
<text text-anchor="start" x="985" y="-202.8" font-family="Arial" font-weight="bold" font-size="14.00">n = 25</text>
<text text-anchor="start" x="1003.5" y="-184.8" font-family="Arial" font-size="9.00"> </text>
<path fill="none" stroke="#333333" d="M963,-181C963,-181 1047,-181 1047,-181 1053,-181 1059,-187 1059,-193 1059,-193 1059,-233 1059,-233 1059,-239 1053,-245 1047,-245 1047,-245 963,-245 963,-245 957,-245 951,-239 951,-233 951,-233 951,-193 951,-193 951,-187 957,-181 963,-181"/>
<text text-anchor="start" x="976" y="-166.8" font-family="Arial" font-weight="bold" font-size="14.00">air_temp</text>
</g>
<!-- 13&#45;&gt;17 -->
<g id="edge14" class="edge">
<title>13&#45;&gt;17</title>
<path fill="none" stroke="#888888" d="M762.29,-333.39C811.47,-309.2 878.59,-276.18 929.78,-251"/>
<polygon fill="#888888" stroke="#888888" points="931.39,-254.11 938.82,-246.55 928.3,-247.83 931.39,-254.11"/>
</g>
<!-- 8 -->
<g id="node10" class="node">
<title>8</title>
<text text-anchor="start" x="47.5" y="-99.8" font-family="Arial" font-weight="bold" font-size="14.00"> &lt; 13.5</text>
<path fill="#f8766d" fill-opacity="0.627451" stroke="transparent" d="M24,-27C24,-27 114,-27 114,-27 120,-27 126,-33 126,-39 126,-39 126,-79 126,-79 126,-85 120,-91 114,-91 114,-91 24,-91 24,-91 18,-91 12,-85 12,-79 12,-79 12,-39 12,-39 12,-33 18,-27 24,-27"/>
<text text-anchor="start" x="13" y="-88.4" font-family="Arial" font-size="2.00"> </text>
<text text-anchor="start" x="13" y="-82.4" font-family="Arial" font-size="7.00"> &#160;8</text>
<text text-anchor="start" x="27" y="-65.8" font-family="Arial" font-weight="bold" font-size="14.00">Predict 29.81</text>
<text text-anchor="start" x="49" y="-48.8" font-family="Arial" font-weight="bold" font-size="14.00">n = 21</text>
<text text-anchor="start" x="67.5" y="-30.8" font-family="Arial" font-size="9.00"> </text>
<path fill="none" stroke="#333333" d="M24,-27C24,-27 114,-27 114,-27 120,-27 126,-33 126,-39 126,-39 126,-79 126,-79 126,-85 120,-91 114,-91 114,-91 24,-91 24,-91 18,-91 12,-85 12,-79 12,-79 12,-39 12,-39 12,-33 18,-27 24,-27"/>
<text text-anchor="start" x="67" y="-12.8" font-family="Arial" font-weight="bold" font-size="14.00"> </text>
</g>
<!-- 7&#45;&gt;8 -->
<g id="edge9" class="edge">
<title>7&#45;&gt;8</title>
<path fill="none" stroke="#888888" d="M165.13,-153.67C155.62,-144.39 145.72,-134.75 136.05,-125.33"/>
<polygon fill="#888888" stroke="#888888" points="138.31,-122.65 128.71,-118.18 133.43,-127.66 138.31,-122.65"/>
</g>
<!-- 9 -->
<g id="node11" class="node">
<title>9</title>
<text text-anchor="start" x="204" y="-99.8" font-family="Arial" font-weight="bold" font-size="14.00"> ≥ 13.5</text>
<path fill="#f8766d" fill-opacity="0.678431" stroke="transparent" d="M180,-27C180,-27 270,-27 270,-27 276,-27 282,-33 282,-39 282,-39 282,-79 282,-79 282,-85 276,-91 270,-91 270,-91 180,-91 180,-91 174,-91 168,-85 168,-79 168,-79 168,-39 168,-39 168,-33 174,-27 180,-27"/>
<text text-anchor="start" x="169" y="-88.4" font-family="Arial" font-size="2.00"> </text>
<text text-anchor="start" x="169" y="-82.4" font-family="Arial" font-size="7.00"> &#160;9</text>
<text text-anchor="start" x="183" y="-65.8" font-family="Arial" font-weight="bold" font-size="14.00">Predict 27.99</text>
<text text-anchor="start" x="205" y="-48.8" font-family="Arial" font-weight="bold" font-size="14.00">n = 39</text>
<text text-anchor="start" x="223.5" y="-30.8" font-family="Arial" font-size="9.00"> </text>
<path fill="none" stroke="#333333" d="M180,-27C180,-27 270,-27 270,-27 276,-27 282,-33 282,-39 282,-39 282,-79 282,-79 282,-85 276,-91 270,-91 270,-91 180,-91 180,-91 174,-91 168,-85 168,-79 168,-79 168,-39 168,-39 168,-33 174,-27 180,-27"/>
<text text-anchor="start" x="223" y="-12.8" font-family="Arial" font-weight="bold" font-size="14.00"> </text>
</g>
<!-- 7&#45;&gt;9 -->
<g id="edge10" class="edge">
<title>7&#45;&gt;9</title>
<path fill="none" stroke="#888888" d="M225,-153.67C225,-145.39 225,-136.83 225,-128.38"/>
<polygon fill="#888888" stroke="#888888" points="228.5,-128.18 225,-118.18 221.5,-128.18 228.5,-128.18"/>
</g>
<!-- 11 -->
<g id="node12" class="node">
<title>11</title>
<text text-anchor="start" x="356" y="-99.8" font-family="Arial" font-weight="bold" font-size="14.00"> &lt; 29.48</text>
<path fill="#f8766d" fill-opacity="0.623529" stroke="transparent" d="M336,-27C336,-27 426,-27 426,-27 432,-27 438,-33 438,-39 438,-39 438,-79 438,-79 438,-85 432,-91 426,-91 426,-91 336,-91 336,-91 330,-91 324,-85 324,-79 324,-79 324,-39 324,-39 324,-33 330,-27 336,-27"/>
<text text-anchor="start" x="325" y="-88.4" font-family="Arial" font-size="2.00"> </text>
<text text-anchor="start" x="325" y="-82.4" font-family="Arial" font-size="7.00"> &#160;11</text>
<text text-anchor="start" x="339" y="-65.8" font-family="Arial" font-weight="bold" font-size="14.00">Predict 29.86</text>
<text text-anchor="start" x="361" y="-48.8" font-family="Arial" font-weight="bold" font-size="14.00">n = 10</text>
<text text-anchor="start" x="379.5" y="-30.8" font-family="Arial" font-size="9.00"> </text>
<path fill="none" stroke="#333333" d="M336,-27C336,-27 426,-27 426,-27 432,-27 438,-33 438,-39 438,-39 438,-79 438,-79 438,-85 432,-91 426,-91 426,-91 336,-91 336,-91 330,-91 324,-85 324,-79 324,-79 324,-39 324,-39 324,-33 330,-27 336,-27"/>
<text text-anchor="start" x="379" y="-12.8" font-family="Arial" font-weight="bold" font-size="14.00"> </text>
</g>
<!-- 10&#45;&gt;11 -->
<g id="edge11" class="edge">
<title>10&#45;&gt;11</title>
<path fill="none" stroke="#888888" d="M429.07,-153.67C424.63,-145.03 420.04,-136.07 415.52,-127.27"/>
<polygon fill="#888888" stroke="#888888" points="418.53,-125.48 410.85,-118.18 412.31,-128.67 418.53,-125.48"/>
</g>
<!-- 12 -->
<g id="node13" class="node">
<title>12</title>
<text text-anchor="start" x="512.5" y="-99.8" font-family="Arial" font-weight="bold" font-size="14.00"> ≥ 29.48</text>
<path fill="#f8766d" fill-opacity="0.545098" stroke="transparent" d="M492,-27C492,-27 582,-27 582,-27 588,-27 594,-33 594,-39 594,-39 594,-79 594,-79 594,-85 588,-91 582,-91 582,-91 492,-91 492,-91 486,-91 480,-85 480,-79 480,-79 480,-39 480,-39 480,-33 486,-27 492,-27"/>
<text text-anchor="start" x="481" y="-88.4" font-family="Arial" font-size="2.00"> </text>
<text text-anchor="start" x="481" y="-82.4" font-family="Arial" font-size="7.00"> &#160;12</text>
<text text-anchor="start" x="495" y="-65.8" font-family="Arial" font-weight="bold" font-size="14.00">Predict 32.65</text>
<text text-anchor="start" x="517" y="-48.8" font-family="Arial" font-weight="bold" font-size="14.00">n = 18</text>
<text text-anchor="start" x="535.5" y="-30.8" font-family="Arial" font-size="9.00"> </text>
<path fill="none" stroke="#333333" d="M492,-27C492,-27 582,-27 582,-27 588,-27 594,-33 594,-39 594,-39 594,-79 594,-79 594,-85 588,-91 582,-91 582,-91 492,-91 492,-91 486,-91 480,-85 480,-79 480,-79 480,-39 480,-39 480,-33 486,-27 492,-27"/>
<text text-anchor="start" x="535" y="-12.8" font-family="Arial" font-weight="bold" font-size="14.00"> </text>
</g>
<!-- 10&#45;&gt;12 -->
<g id="edge12" class="edge">
<title>10&#45;&gt;12</title>
<path fill="none" stroke="#888888" d="M488.93,-153.67C493.37,-145.03 497.96,-136.07 502.48,-127.27"/>
<polygon fill="#888888" stroke="#888888" points="505.69,-128.67 507.15,-118.18 499.47,-125.48 505.69,-128.67"/>
</g>
<!-- 15 -->
<g id="node16" class="node">
<title>15</title>
<text text-anchor="start" x="675.5" y="-99.8" font-family="Arial" font-weight="bold" font-size="14.00"> &lt; 5.5</text>
<path fill="#f8766d" fill-opacity="0.411765" stroke="transparent" d="M648,-27C648,-27 738,-27 738,-27 744,-27 750,-33 750,-39 750,-39 750,-79 750,-79 750,-85 744,-91 738,-91 738,-91 648,-91 648,-91 642,-91 636,-85 636,-79 636,-79 636,-39 636,-39 636,-33 642,-27 648,-27"/>
<text text-anchor="start" x="637" y="-88.4" font-family="Arial" font-size="2.00"> </text>
<text text-anchor="start" x="637" y="-82.4" font-family="Arial" font-size="7.00"> &#160;15</text>
<text text-anchor="start" x="651" y="-65.8" font-family="Arial" font-weight="bold" font-size="14.00">Predict 37.48</text>
<text text-anchor="start" x="677" y="-48.8" font-family="Arial" font-weight="bold" font-size="14.00">n = 9</text>
<text text-anchor="start" x="691.5" y="-30.8" font-family="Arial" font-size="9.00"> </text>
<path fill="none" stroke="#333333" d="M648,-27C648,-27 738,-27 738,-27 744,-27 750,-33 750,-39 750,-39 750,-79 750,-79 750,-85 744,-91 738,-91 738,-91 648,-91 648,-91 642,-91 636,-85 636,-79 636,-79 636,-39 636,-39 636,-33 642,-27 648,-27"/>
<text text-anchor="start" x="691" y="-12.8" font-family="Arial" font-weight="bold" font-size="14.00"> </text>
</g>
<!-- 14&#45;&gt;15 -->
<g id="edge15" class="edge">
<title>14&#45;&gt;15</title>
<path fill="none" stroke="#888888" d="M694.85,-153.67C694.69,-145.39 694.52,-136.83 694.35,-128.38"/>
<polygon fill="#888888" stroke="#888888" points="697.84,-128.11 694.15,-118.18 690.85,-128.24 697.84,-128.11"/>
</g>
<!-- 16 -->
<g id="node17" class="node">
<title>16</title>
<text text-anchor="start" x="832" y="-99.8" font-family="Arial" font-weight="bold" font-size="14.00"> ≥ 5.5</text>
<path fill="#f8766d" fill-opacity="0.529412" stroke="transparent" d="M804,-27C804,-27 894,-27 894,-27 900,-27 906,-33 906,-39 906,-39 906,-79 906,-79 906,-85 900,-91 894,-91 894,-91 804,-91 804,-91 798,-91 792,-85 792,-79 792,-79 792,-39 792,-39 792,-33 798,-27 804,-27"/>
<text text-anchor="start" x="793" y="-88.4" font-family="Arial" font-size="2.00"> </text>
<text text-anchor="start" x="793" y="-82.4" font-family="Arial" font-size="7.00"> &#160;16</text>
<text text-anchor="start" x="807" y="-65.8" font-family="Arial" font-weight="bold" font-size="14.00">Predict 33.27</text>
<text text-anchor="start" x="833" y="-48.8" font-family="Arial" font-weight="bold" font-size="14.00">n = 4</text>
<text text-anchor="start" x="847.5" y="-30.8" font-family="Arial" font-size="9.00"> </text>
<path fill="none" stroke="#333333" d="M804,-27C804,-27 894,-27 894,-27 900,-27 906,-33 906,-39 906,-39 906,-79 906,-79 906,-85 900,-91 894,-91 894,-91 804,-91 804,-91 798,-91 792,-85 792,-79 792,-79 792,-39 792,-39 792,-33 798,-27 804,-27"/>
<text text-anchor="start" x="847" y="-12.8" font-family="Arial" font-weight="bold" font-size="14.00"> </text>
</g>
<!-- 14&#45;&gt;16 -->
<g id="edge16" class="edge">
<title>14&#45;&gt;16</title>
<path fill="none" stroke="#888888" d="M754.72,-153.67C764.05,-144.39 773.76,-134.75 783.24,-125.33"/>
<polygon fill="#888888" stroke="#888888" points="785.81,-127.71 790.44,-118.18 780.88,-122.74 785.81,-127.71"/>
</g>
<!-- 18 -->
<g id="node18" class="node">
<title>18</title>
<text text-anchor="start" x="983.5" y="-99.8" font-family="Arial" font-weight="bold" font-size="14.00"> &lt; 29.7</text>
<path fill="#f8766d" fill-opacity="0.501961" stroke="transparent" d="M960,-27C960,-27 1050,-27 1050,-27 1056,-27 1062,-33 1062,-39 1062,-39 1062,-79 1062,-79 1062,-85 1056,-91 1050,-91 1050,-91 960,-91 960,-91 954,-91 948,-85 948,-79 948,-79 948,-39 948,-39 948,-33 954,-27 960,-27"/>
<text text-anchor="start" x="949" y="-88.4" font-family="Arial" font-size="2.00"> </text>
<text text-anchor="start" x="949" y="-82.4" font-family="Arial" font-size="7.00"> &#160;18</text>
<text text-anchor="start" x="963" y="-65.8" font-family="Arial" font-weight="bold" font-size="14.00">Predict 34.29</text>
<text text-anchor="start" x="985" y="-48.8" font-family="Arial" font-weight="bold" font-size="14.00">n = 23</text>
<text text-anchor="start" x="1003.5" y="-30.8" font-family="Arial" font-size="9.00"> </text>
<path fill="none" stroke="#333333" d="M960,-27C960,-27 1050,-27 1050,-27 1056,-27 1062,-33 1062,-39 1062,-39 1062,-79 1062,-79 1062,-85 1056,-91 1050,-91 1050,-91 960,-91 960,-91 954,-91 948,-85 948,-79 948,-79 948,-39 948,-39 948,-33 954,-27 960,-27"/>
<text text-anchor="start" x="1003" y="-12.8" font-family="Arial" font-weight="bold" font-size="14.00"> </text>
</g>
<!-- 17&#45;&gt;18 -->
<g id="edge17" class="edge">
<title>17&#45;&gt;18</title>
<path fill="none" stroke="#888888" d="M1005,-153.67C1005,-145.39 1005,-136.83 1005,-128.38"/>
<polygon fill="#888888" stroke="#888888" points="1008.5,-128.18 1005,-118.18 1001.5,-128.18 1008.5,-128.18"/>
</g>
<!-- 19 -->
<g id="node19" class="node">
<title>19</title>
<text text-anchor="start" x="1140" y="-99.8" font-family="Arial" font-weight="bold" font-size="14.00"> ≥ 29.7</text>
<path fill="#f8766d" fill-opacity="0.376471" stroke="transparent" d="M1116,-27C1116,-27 1206,-27 1206,-27 1212,-27 1218,-33 1218,-39 1218,-39 1218,-79 1218,-79 1218,-85 1212,-91 1206,-91 1206,-91 1116,-91 1116,-91 1110,-91 1104,-85 1104,-79 1104,-79 1104,-39 1104,-39 1104,-33 1110,-27 1116,-27"/>
<text text-anchor="start" x="1105" y="-88.4" font-family="Arial" font-size="2.00"> </text>
<text text-anchor="start" x="1105" y="-82.4" font-family="Arial" font-size="7.00"> &#160;19</text>
<text text-anchor="start" x="1119" y="-65.8" font-family="Arial" font-weight="bold" font-size="14.00">Predict 38.76</text>
<text text-anchor="start" x="1145" y="-48.8" font-family="Arial" font-weight="bold" font-size="14.00">n = 2</text>
<text text-anchor="start" x="1159.5" y="-30.8" font-family="Arial" font-size="9.00"> </text>
<path fill="none" stroke="#333333" d="M1116,-27C1116,-27 1206,-27 1206,-27 1212,-27 1218,-33 1218,-39 1218,-39 1218,-79 1218,-79 1218,-85 1212,-91 1206,-91 1206,-91 1116,-91 1116,-91 1110,-91 1104,-85 1104,-79 1104,-79 1104,-39 1104,-39 1104,-33 1110,-27 1116,-27"/>
<text text-anchor="start" x="1159" y="-12.8" font-family="Arial" font-weight="bold" font-size="14.00"> </text>
</g>
<!-- 17&#45;&gt;19 -->
<g id="edge18" class="edge">
<title>17&#45;&gt;19</title>
<path fill="none" stroke="#888888" d="M1064.87,-153.67C1074.38,-144.39 1084.28,-134.75 1093.95,-125.33"/>
<polygon fill="#888888" stroke="#888888" points="1096.57,-127.66 1101.29,-118.18 1091.69,-122.65 1096.57,-127.66"/>
</g>
</g>
</svg>
