<?xml version="1.0" encoding="UTF-8" standalone="no"?>
<!DOCTYPE svg PUBLIC "-//W3C//DTD SVG 1.1//EN"
 "http://www.w3.org/Graphics/SVG/1.1/DTD/svg11.dtd">
<!-- Generated by graphviz version 2.50.0 (20211204.2007)
 -->
<!-- Pages: 1 -->
<svg width="619pt" height="434pt"
 viewBox="0.00 0.00 619.00 434.00" xmlns="http://www.w3.org/2000/svg" xmlns:xlink="http://www.w3.org/1999/xlink">
<g id="graph0" class="graph" transform="scale(1 1) rotate(0) translate(4 430)">
<polygon fill="white" stroke="transparent" points="-4,4 -4,-430 615,-430 615,4 -4,4"/>
<!-- 1 -->
<g id="node1" class="node">
<title>1</title>
<text text-anchor="start" x="303" y="-407.8" font-family="Arial" font-weight="bold" font-size="14.00"> </text>
<path fill="#ebebeb" stroke="transparent" d="M263,-335C263,-335 347,-335 347,-335 353,-335 359,-341 359,-347 359,-347 359,-387 359,-387 359,-393 353,-399 347,-399 347,-399 263,-399 263,-399 257,-399 251,-393 251,-387 251,-387 251,-347 251,-347 251,-341 257,-335 263,-335"/>
<text text-anchor="start" x="252" y="-396.4" font-family="Arial" font-size="2.00"> </text>
<text text-anchor="start" x="252" y="-390.4" font-family="Arial" font-size="7.00"> &#160;1</text>
<text text-anchor="start" x="266" y="-373.8" font-family="Arial" font-weight="bold" font-size="14.00">Mean: 8.065</text>
<text text-anchor="start" x="281.5" y="-356.8" font-family="Arial" font-weight="bold" font-size="14.00">n = 168</text>
<text text-anchor="start" x="303.5" y="-338.8" font-family="Arial" font-size="9.00"> </text>
<path fill="none" stroke="#333333" d="M263,-335C263,-335 347,-335 347,-335 353,-335 359,-341 359,-347 359,-347 359,-387 359,-387 359,-393 353,-399 347,-399 347,-399 263,-399 263,-399 257,-399 251,-393 251,-387 251,-387 251,-347 251,-347 251,-341 257,-335 263,-335"/>
<text text-anchor="start" x="290.5" y="-320.8" font-family="Arial" font-weight="bold" font-size="14.00">time</text>
</g>
<!-- 2 -->
<g id="node2" class="node">
<title>2</title>
<text text-anchor="start" x="200.5" y="-253.8" font-family="Arial" font-weight="bold" font-size="14.00"> &lt; 10.5</text>
<path fill="#ebebeb" stroke="transparent" d="M180,-181C180,-181 264,-181 264,-181 270,-181 276,-187 276,-193 276,-193 276,-233 276,-233 276,-239 270,-245 264,-245 264,-245 180,-245 180,-245 174,-245 168,-239 168,-233 168,-233 168,-193 168,-193 168,-187 174,-181 180,-181"/>
<text text-anchor="start" x="169" y="-242.4" font-family="Arial" font-size="2.00"> </text>
<text text-anchor="start" x="169" y="-236.4" font-family="Arial" font-size="7.00"> &#160;2</text>
<text text-anchor="start" x="183" y="-219.8" font-family="Arial" font-weight="bold" font-size="14.00">Mean: 7.549</text>
<text text-anchor="start" x="202" y="-202.8" font-family="Arial" font-weight="bold" font-size="14.00">n = 77</text>
<text text-anchor="start" x="220.5" y="-184.8" font-family="Arial" font-size="9.00"> </text>
<path fill="none" stroke="#333333" d="M180,-181C180,-181 264,-181 264,-181 270,-181 276,-187 276,-193 276,-193 276,-233 276,-233 276,-239 270,-245 264,-245 264,-245 180,-245 180,-245 174,-245 168,-239 168,-233 168,-233 168,-193 168,-193 168,-187 174,-181 180,-181"/>
<text text-anchor="start" x="207.5" y="-166.8" font-family="Arial" font-weight="bold" font-size="14.00">time</text>
</g>
<!-- 1&#45;&gt;2 -->
<g id="edge1" class="edge">
<title>1&#45;&gt;2</title>
<path fill="none" stroke="#888888" d="M273.15,-307.67C268.38,-298.94 263.44,-289.88 258.58,-280.99"/>
<polygon fill="#888888" stroke="#888888" points="261.63,-279.28 253.77,-272.18 255.49,-282.63 261.63,-279.28"/>
</g>
<!-- 5 -->
<g id="node3" class="node">
<title>5</title>
<text text-anchor="start" x="367" y="-253.8" font-family="Arial" font-weight="bold" font-size="14.00"> ≥ 10.5</text>
<text text-anchor="start" x="316" y="-209.3" font-family="Arial" font-size="14.00"> &#160;&#160;&#160;</text>
<path fill="#ebebeb" stroke="transparent" d="M346,-181C346,-181 430,-181 430,-181 436,-181 442,-187 442,-193 442,-193 442,-233 442,-233 442,-239 436,-245 430,-245 430,-245 346,-245 346,-245 340,-245 334,-239 334,-233 334,-233 334,-193 334,-193 334,-187 340,-181 346,-181"/>
<text text-anchor="start" x="335" y="-242.4" font-family="Arial" font-size="2.00"> </text>
<text text-anchor="start" x="335" y="-236.4" font-family="Arial" font-size="7.00"> &#160;5</text>
<text text-anchor="start" x="349" y="-219.8" font-family="Arial" font-weight="bold" font-size="14.00">Mean: 8.502</text>
<text text-anchor="start" x="368" y="-202.8" font-family="Arial" font-weight="bold" font-size="14.00">n = 91</text>
<text text-anchor="start" x="386.5" y="-184.8" font-family="Arial" font-size="9.00"> </text>
<path fill="none" stroke="#333333" d="M346,-181C346,-181 430,-181 430,-181 436,-181 442,-187 442,-193 442,-193 442,-233 442,-233 442,-239 436,-245 430,-245 430,-245 346,-245 346,-245 340,-245 334,-239 334,-233 334,-233 334,-193 334,-193 334,-187 340,-181 346,-181"/>
<text text-anchor="start" x="444" y="-209.3" font-family="Arial" font-size="14.00"> &#160;&#160;&#160;</text>
<text text-anchor="start" x="330.5" y="-166.8" font-family="Arial" font-weight="bold" font-size="14.00">prev_168h_inflow</text>
</g>
<!-- 1&#45;&gt;5 -->
<g id="edge2" class="edge">
<title>1&#45;&gt;5</title>
<path fill="none" stroke="#888888" d="M336.85,-307.67C341.62,-298.94 346.56,-289.88 351.42,-280.99"/>
<polygon fill="#888888" stroke="#888888" points="354.51,-282.63 356.23,-272.18 348.37,-279.28 354.51,-282.63"/>
</g>
<!-- 3 -->
<g id="node4" class="node">
<title>3</title>
<text text-anchor="start" x="51.5" y="-99.8" font-family="Arial" font-weight="bold" font-size="14.00"> &lt; 6.5</text>
<path fill="#f8766d" fill-opacity="0.874510" stroke="transparent" d="M24,-27C24,-27 114,-27 114,-27 120,-27 126,-33 126,-39 126,-39 126,-79 126,-79 126,-85 120,-91 114,-91 114,-91 24,-91 24,-91 18,-91 12,-85 12,-79 12,-79 12,-39 12,-39 12,-33 18,-27 24,-27"/>
<text text-anchor="start" x="13" y="-88.4" font-family="Arial" font-size="2.00"> </text>
<text text-anchor="start" x="13" y="-82.4" font-family="Arial" font-size="7.00"> &#160;3</text>
<text text-anchor="start" x="27" y="-65.8" font-family="Arial" font-weight="bold" font-size="14.00">Predict 6.082</text>
<text text-anchor="start" x="49" y="-48.8" font-family="Arial" font-weight="bold" font-size="14.00">n = 49</text>
<text text-anchor="start" x="67.5" y="-30.8" font-family="Arial" font-size="9.00"> </text>
<path fill="none" stroke="#333333" d="M24,-27C24,-27 114,-27 114,-27 120,-27 126,-33 126,-39 126,-39 126,-79 126,-79 126,-85 120,-91 114,-91 114,-91 24,-91 24,-91 18,-91 12,-85 12,-79 12,-79 12,-39 12,-39 12,-33 18,-27 24,-27"/>
<text text-anchor="start" x="67" y="-12.8" font-family="Arial" font-weight="bold" font-size="14.00"> </text>
</g>
<!-- 2&#45;&gt;3 -->
<g id="edge3" class="edge">
<title>2&#45;&gt;3</title>
<path fill="none" stroke="#888888" d="M163.28,-153.67C153.95,-144.39 144.24,-134.75 134.76,-125.33"/>
<polygon fill="#888888" stroke="#888888" points="137.12,-122.74 127.56,-118.18 132.19,-127.71 137.12,-122.74"/>
</g>
<!-- 4 -->
<g id="node5" class="node">
<title>4</title>
<text text-anchor="start" x="208.5" y="-99.8" font-family="Arial" font-weight="bold" font-size="14.00"> ≥ 6.5</text>
<path fill="#f8766d" fill-opacity="0.552941" stroke="transparent" d="M181,-27C181,-27 270,-27 270,-27 276,-27 282,-33 282,-39 282,-39 282,-79 282,-79 282,-85 276,-91 270,-91 270,-91 181,-91 181,-91 175,-91 169,-85 169,-79 169,-79 169,-39 169,-39 169,-33 175,-27 181,-27"/>
<text text-anchor="start" x="170" y="-88.4" font-family="Arial" font-size="2.00"> </text>
<text text-anchor="start" x="170" y="-82.4" font-family="Arial" font-size="7.00"> &#160;4</text>
<text text-anchor="start" x="184" y="-65.8" font-family="Arial" font-weight="bold" font-size="14.00">Predict 10.11</text>
<text text-anchor="start" x="205.5" y="-48.8" font-family="Arial" font-weight="bold" font-size="14.00">n = 28</text>
<text text-anchor="start" x="224" y="-30.8" font-family="Arial" font-size="9.00"> </text>
<path fill="none" stroke="#333333" d="M181,-27C181,-27 270,-27 270,-27 276,-27 282,-33 282,-39 282,-39 282,-79 282,-79 282,-85 276,-91 270,-91 270,-91 181,-91 181,-91 175,-91 169,-85 169,-79 169,-79 169,-39 169,-39 169,-33 175,-27 181,-27"/>
<text text-anchor="start" x="223.5" y="-12.8" font-family="Arial" font-weight="bold" font-size="14.00"> </text>
</g>
<!-- 2&#45;&gt;4 -->
<g id="edge4" class="edge">
<title>2&#45;&gt;4</title>
<path fill="none" stroke="#888888" d="M223.15,-153.67C223.31,-145.39 223.48,-136.83 223.65,-128.38"/>
<polygon fill="#888888" stroke="#888888" points="227.15,-128.24 223.85,-118.18 220.16,-128.11 227.15,-128.24"/>
</g>
<!-- 6 -->
<g id="node6" class="node">
<title>6</title>
<text text-anchor="start" x="361.5" y="-99.8" font-family="Arial" font-weight="bold" font-size="14.00"> &lt; 11.38</text>
<path fill="#f8766d" fill-opacity="0.690196" stroke="transparent" d="M341,-27C341,-27 431,-27 431,-27 437,-27 443,-33 443,-39 443,-39 443,-79 443,-79 443,-85 437,-91 431,-91 431,-91 341,-91 341,-91 335,-91 329,-85 329,-79 329,-79 329,-39 329,-39 329,-33 335,-27 341,-27"/>
<text text-anchor="start" x="330" y="-88.4" font-family="Arial" font-size="2.00"> </text>
<text text-anchor="start" x="330" y="-82.4" font-family="Arial" font-size="7.00"> &#160;6</text>
<text text-anchor="start" x="344" y="-65.8" font-family="Arial" font-weight="bold" font-size="14.00">Predict 8.373</text>
<text text-anchor="start" x="366" y="-48.8" font-family="Arial" font-weight="bold" font-size="14.00">n = 88</text>
<text text-anchor="start" x="384.5" y="-30.8" font-family="Arial" font-size="9.00"> </text>
<path fill="none" stroke="#333333" d="M341,-27C341,-27 431,-27 431,-27 437,-27 443,-33 443,-39 443,-39 443,-79 443,-79 443,-85 437,-91 431,-91 431,-91 341,-91 341,-91 335,-91 329,-85 329,-79 329,-79 329,-39 329,-39 329,-33 335,-27 341,-27"/>
<text text-anchor="start" x="384" y="-12.8" font-family="Arial" font-weight="bold" font-size="14.00"> </text>
</g>
<!-- 5&#45;&gt;6 -->
<g id="edge5" class="edge">
<title>5&#45;&gt;6</title>
<path fill="none" stroke="#888888" d="M387.23,-153.67C387.12,-145.39 387.01,-136.83 386.9,-128.38"/>
<polygon fill="#888888" stroke="#888888" points="390.4,-128.13 386.77,-118.18 383.4,-128.22 390.4,-128.13"/>
</g>
<!-- 7 -->
<g id="node7" class="node">
<title>7</title>
<text text-anchor="start" x="517.5" y="-99.8" font-family="Arial" font-weight="bold" font-size="14.00"> ≥ 11.38</text>
<path fill="#f8766d" fill-opacity="0.376471" stroke="transparent" d="M497,-27C497,-27 587,-27 587,-27 593,-27 599,-33 599,-39 599,-39 599,-79 599,-79 599,-85 593,-91 587,-91 587,-91 497,-91 497,-91 491,-91 485,-85 485,-79 485,-79 485,-39 485,-39 485,-33 491,-27 497,-27"/>
<text text-anchor="start" x="486" y="-88.4" font-family="Arial" font-size="2.00"> </text>
<text text-anchor="start" x="486" y="-82.4" font-family="Arial" font-size="7.00"> &#160;7</text>
<text text-anchor="start" x="500" y="-65.8" font-family="Arial" font-weight="bold" font-size="14.00">Predict 12.31</text>
<text text-anchor="start" x="526" y="-48.8" font-family="Arial" font-weight="bold" font-size="14.00">n = 3</text>
<text text-anchor="start" x="540.5" y="-30.8" font-family="Arial" font-size="9.00"> </text>
<path fill="none" stroke="#333333" d="M497,-27C497,-27 587,-27 587,-27 593,-27 599,-33 599,-39 599,-39 599,-79 599,-79 599,-85 593,-91 587,-91 587,-91 497,-91 497,-91 491,-91 485,-85 485,-79 485,-79 485,-39 485,-39 485,-33 491,-27 497,-27"/>
<text text-anchor="start" x="540" y="-12.8" font-family="Arial" font-weight="bold" font-size="14.00"> </text>
</g>
<!-- 5&#45;&gt;7 -->
<g id="edge6" class="edge">
<title>5&#45;&gt;7</title>
<path fill="none" stroke="#888888" d="M447.1,-153.67C456.5,-144.39 466.27,-134.75 475.81,-125.33"/>
<polygon fill="#888888" stroke="#888888" points="478.4,-127.69 483.06,-118.18 473.48,-122.71 478.4,-127.69"/>
</g>
</g>
</svg>
