<?xml version="1.0" encoding="UTF-8" standalone="no"?>
<!DOCTYPE svg PUBLIC "-//W3C//DTD SVG 1.1//EN"
 "http://www.w3.org/Graphics/SVG/1.1/DTD/svg11.dtd">
<!-- Generated by graphviz version 2.50.0 (20211204.2007)
 -->
<!-- Pages: 1 -->
<svg width="1854pt" height="742pt"
 viewBox="0.00 0.00 1854.00 742.00" xmlns="http://www.w3.org/2000/svg" xmlns:xlink="http://www.w3.org/1999/xlink">
<g id="graph0" class="graph" transform="scale(1 1) rotate(0) translate(4 738)">
<polygon fill="white" stroke="transparent" points="-4,4 -4,-738 1850,-738 1850,4 -4,4"/>
<!-- 1 -->
<g id="node1" class="node">
<title>1</title>
<text text-anchor="start" x="742" y="-715.8" font-family="Arial" font-weight="bold" font-size="14.00"> </text>
<path fill="#ebebeb" stroke="transparent" d="M702,-643C702,-643 786,-643 786,-643 792,-643 798,-649 798,-655 798,-655 798,-695 798,-695 798,-701 792,-707 786,-707 786,-707 702,-707 702,-707 696,-707 690,-701 690,-695 690,-695 690,-655 690,-655 690,-649 696,-643 702,-643"/>
<text text-anchor="start" x="691" y="-704.4" font-family="Arial" font-size="2.00"> </text>
<text text-anchor="start" x="691" y="-698.4" font-family="Arial" font-size="7.00"> &#160;1</text>
<text text-anchor="start" x="705" y="-681.8" font-family="Arial" font-weight="bold" font-size="14.00">Mean: 10.76</text>
<text text-anchor="start" x="720.5" y="-664.8" font-family="Arial" font-weight="bold" font-size="14.00">n = 672</text>
<text text-anchor="start" x="742.5" y="-646.8" font-family="Arial" font-size="9.00"> </text>
<path fill="none" stroke="#333333" d="M702,-643C702,-643 786,-643 786,-643 792,-643 798,-649 798,-655 798,-655 798,-695 798,-695 798,-701 792,-707 786,-707 786,-707 702,-707 702,-707 696,-707 690,-701 690,-695 690,-695 690,-655 690,-655 690,-649 696,-643 702,-643"/>
<text text-anchor="start" x="729.5" y="-628.8" font-family="Arial" font-weight="bold" font-size="14.00">time</text>
</g>
<!-- 2 -->
<g id="node2" class="node">
<title>2</title>
<text text-anchor="start" x="639.5" y="-561.8" font-family="Arial" font-weight="bold" font-size="14.00"> &lt; 5.5</text>
<text text-anchor="start" x="593" y="-517.3" font-family="Arial" font-size="14.00"> &#160;</text>
<path fill="#ebebeb" stroke="transparent" d="M615,-489C615,-489 699,-489 699,-489 705,-489 711,-495 711,-501 711,-501 711,-541 711,-541 711,-547 705,-553 699,-553 699,-553 615,-553 615,-553 609,-553 603,-547 603,-541 603,-541 603,-501 603,-501 603,-495 609,-489 615,-489"/>
<text text-anchor="start" x="604" y="-550.4" font-family="Arial" font-size="2.00"> </text>
<text text-anchor="start" x="604" y="-544.4" font-family="Arial" font-size="7.00"> &#160;2</text>
<text text-anchor="start" x="618" y="-527.8" font-family="Arial" font-weight="bold" font-size="14.00">Mean: 8.605</text>
<text text-anchor="start" x="633.5" y="-510.8" font-family="Arial" font-weight="bold" font-size="14.00">n = 168</text>
<text text-anchor="start" x="655.5" y="-492.8" font-family="Arial" font-size="9.00"> </text>
<path fill="none" stroke="#333333" d="M615,-489C615,-489 699,-489 699,-489 705,-489 711,-495 711,-501 711,-501 711,-541 711,-541 711,-547 705,-553 699,-553 699,-553 615,-553 615,-553 609,-553 603,-547 603,-541 603,-541 603,-501 603,-501 603,-495 609,-489 615,-489"/>
<text text-anchor="start" x="713" y="-517.3" font-family="Arial" font-size="14.00"> &#160;</text>
<text text-anchor="start" x="605.5" y="-474.8" font-family="Arial" font-weight="bold" font-size="14.00">min_24h_inflow</text>
</g>
<!-- 1&#45;&gt;2 -->
<g id="edge1" class="edge">
<title>1&#45;&gt;2</title>
<path fill="none" stroke="#888888" d="M710.61,-615.67C705.62,-606.94 700.43,-597.88 695.34,-588.99"/>
<polygon fill="#888888" stroke="#888888" points="698.3,-587.12 690.3,-580.18 692.23,-590.59 698.3,-587.12"/>
</g>
<!-- 13 -->
<g id="node3" class="node">
<title>13</title>
<text text-anchor="start" x="873.5" y="-561.8" font-family="Arial" font-weight="bold" font-size="14.00"> ≥ 5.5</text>
<text text-anchor="start" x="827" y="-517.3" font-family="Arial" font-size="14.00"> &#160;</text>
<path fill="#ebebeb" stroke="transparent" d="M849,-489C849,-489 932,-489 932,-489 938,-489 944,-495 944,-501 944,-501 944,-541 944,-541 944,-547 938,-553 932,-553 932,-553 849,-553 849,-553 843,-553 837,-547 837,-541 837,-541 837,-501 837,-501 837,-495 843,-489 849,-489"/>
<text text-anchor="start" x="838" y="-550.4" font-family="Arial" font-size="2.00"> </text>
<text text-anchor="start" x="838" y="-544.4" font-family="Arial" font-size="7.00"> &#160;13</text>
<text text-anchor="start" x="852" y="-527.8" font-family="Arial" font-weight="bold" font-size="14.00">Mean: 11.48</text>
<text text-anchor="start" x="867" y="-510.8" font-family="Arial" font-weight="bold" font-size="14.00">n = 504</text>
<text text-anchor="start" x="889" y="-492.8" font-family="Arial" font-size="9.00"> </text>
<path fill="none" stroke="#333333" d="M849,-489C849,-489 932,-489 932,-489 938,-489 944,-495 944,-501 944,-501 944,-541 944,-541 944,-547 938,-553 932,-553 932,-553 849,-553 849,-553 843,-553 837,-547 837,-541 837,-541 837,-501 837,-501 837,-495 843,-489 849,-489"/>
<text text-anchor="start" x="946" y="-517.3" font-family="Arial" font-size="14.00"> &#160;</text>
<text text-anchor="start" x="840.5" y="-474.8" font-family="Arial" font-weight="bold" font-size="14.00">prev_1h_inflow</text>
</g>
<!-- 1&#45;&gt;13 -->
<g id="edge2" class="edge">
<title>1&#45;&gt;13</title>
<path fill="none" stroke="#888888" d="M800.03,-615.67C808.85,-606.49 818.02,-596.94 826.98,-587.6"/>
<polygon fill="#888888" stroke="#888888" points="829.72,-589.81 834.12,-580.18 824.67,-584.96 829.72,-589.81"/>
</g>
<!-- 3 -->
<g id="node4" class="node">
<title>3</title>
<text text-anchor="start" x="353.5" y="-407.8" font-family="Arial" font-weight="bold" font-size="14.00"> &lt; 6.85</text>
<text text-anchor="start" x="303" y="-363.3" font-family="Arial" font-size="14.00"> &#160;&#160;&#160;</text>
<path fill="#ebebeb" stroke="transparent" d="M333,-335C333,-335 417,-335 417,-335 423,-335 429,-341 429,-347 429,-347 429,-387 429,-387 429,-393 423,-399 417,-399 417,-399 333,-399 333,-399 327,-399 321,-393 321,-387 321,-387 321,-347 321,-347 321,-341 327,-335 333,-335"/>
<text text-anchor="start" x="322" y="-396.4" font-family="Arial" font-size="2.00"> </text>
<text text-anchor="start" x="322" y="-390.4" font-family="Arial" font-size="7.00"> &#160;3</text>
<text text-anchor="start" x="336" y="-373.8" font-family="Arial" font-weight="bold" font-size="14.00">Mean: 8.002</text>
<text text-anchor="start" x="355" y="-356.8" font-family="Arial" font-weight="bold" font-size="14.00">n = 93</text>
<text text-anchor="start" x="373.5" y="-338.8" font-family="Arial" font-size="9.00"> </text>
<path fill="none" stroke="#333333" d="M333,-335C333,-335 417,-335 417,-335 423,-335 429,-341 429,-347 429,-347 429,-387 429,-387 429,-393 423,-399 417,-399 417,-399 333,-399 333,-399 327,-399 321,-393 321,-387 321,-387 321,-347 321,-347 321,-341 327,-335 333,-335"/>
<text text-anchor="start" x="431" y="-363.3" font-family="Arial" font-size="14.00"> &#160;&#160;&#160;</text>
<text text-anchor="start" x="317.5" y="-320.8" font-family="Arial" font-weight="bold" font-size="14.00">prev_168h_inflow</text>
</g>
<!-- 2&#45;&gt;3 -->
<g id="edge3" class="edge">
<title>2&#45;&gt;3</title>
<path fill="none" stroke="#888888" d="M582.91,-480.06C547.1,-460.76 503.8,-437.43 466.01,-417.06"/>
<polygon fill="#888888" stroke="#888888" points="467.5,-413.88 457.03,-412.22 464.18,-420.04 467.5,-413.88"/>
</g>
<!-- 8 -->
<g id="node5" class="node">
<title>8</title>
<text text-anchor="start" x="636" y="-407.8" font-family="Arial" font-weight="bold" font-size="14.00"> ≥ 6.85</text>
<text text-anchor="start" x="585" y="-363.3" font-family="Arial" font-size="14.00"> &#160;&#160;&#160;</text>
<path fill="#ebebeb" stroke="transparent" d="M615,-335C615,-335 699,-335 699,-335 705,-335 711,-341 711,-347 711,-347 711,-387 711,-387 711,-393 705,-399 699,-399 699,-399 615,-399 615,-399 609,-399 603,-393 603,-387 603,-387 603,-347 603,-347 603,-341 609,-335 615,-335"/>
<text text-anchor="start" x="604" y="-396.4" font-family="Arial" font-size="2.00"> </text>
<text text-anchor="start" x="604" y="-390.4" font-family="Arial" font-size="7.00"> &#160;8</text>
<text text-anchor="start" x="618" y="-373.8" font-family="Arial" font-weight="bold" font-size="14.00">Mean: 9.353</text>
<text text-anchor="start" x="637" y="-356.8" font-family="Arial" font-weight="bold" font-size="14.00">n = 75</text>
<text text-anchor="start" x="655.5" y="-338.8" font-family="Arial" font-size="9.00"> </text>
<path fill="none" stroke="#333333" d="M615,-335C615,-335 699,-335 699,-335 705,-335 711,-341 711,-347 711,-347 711,-387 711,-387 711,-393 705,-399 699,-399 699,-399 615,-399 615,-399 609,-399 603,-393 603,-387 603,-387 603,-347 603,-347 603,-341 609,-335 615,-335"/>
<text text-anchor="start" x="713" y="-363.3" font-family="Arial" font-size="14.00"> &#160;&#160;&#160;</text>
<text text-anchor="start" x="599.5" y="-320.8" font-family="Arial" font-weight="bold" font-size="14.00">prev_168h_inflow</text>
</g>
<!-- 2&#45;&gt;8 -->
<g id="edge4" class="edge">
<title>2&#45;&gt;8</title>
<path fill="none" stroke="#888888" d="M657,-461.67C657,-453.39 657,-444.83 657,-436.38"/>
<polygon fill="#888888" stroke="#888888" points="660.5,-436.18 657,-426.18 653.5,-436.18 660.5,-436.18"/>
</g>
<!-- 14 -->
<g id="node14" class="node">
<title>14</title>
<text text-anchor="start" x="865" y="-407.8" font-family="Arial" font-weight="bold" font-size="14.00"> &lt; 10.79</text>
<text text-anchor="start" x="826" y="-363.3" font-family="Arial" font-size="14.00"> &#160;</text>
<path fill="#ebebeb" stroke="transparent" d="M848,-335C848,-335 932,-335 932,-335 938,-335 944,-341 944,-347 944,-347 944,-387 944,-387 944,-393 938,-399 932,-399 932,-399 848,-399 848,-399 842,-399 836,-393 836,-387 836,-387 836,-347 836,-347 836,-341 842,-335 848,-335"/>
<text text-anchor="start" x="837" y="-396.4" font-family="Arial" font-size="2.00"> </text>
<text text-anchor="start" x="837" y="-390.4" font-family="Arial" font-size="7.00"> &#160;14</text>
<text text-anchor="start" x="851" y="-373.8" font-family="Arial" font-weight="bold" font-size="14.00">Mean: 9.832</text>
<text text-anchor="start" x="866.5" y="-356.8" font-family="Arial" font-weight="bold" font-size="14.00">n = 194</text>
<text text-anchor="start" x="888.5" y="-338.8" font-family="Arial" font-size="9.00"> </text>
<path fill="none" stroke="#333333" d="M848,-335C848,-335 932,-335 932,-335 938,-335 944,-341 944,-347 944,-347 944,-387 944,-387 944,-393 938,-399 932,-399 932,-399 848,-399 848,-399 842,-399 836,-393 836,-387 836,-387 836,-347 836,-347 836,-341 842,-335 848,-335"/>
<text text-anchor="start" x="946" y="-363.3" font-family="Arial" font-size="14.00"> &#160;</text>
<text text-anchor="start" x="840" y="-320.8" font-family="Arial" font-weight="bold" font-size="14.00">prev_1h_inflow</text>
</g>
<!-- 13&#45;&gt;14 -->
<g id="edge13" class="edge">
<title>13&#45;&gt;14</title>
<path fill="none" stroke="#888888" d="M890,-461.67C890,-453.39 890,-444.83 890,-436.38"/>
<polygon fill="#888888" stroke="#888888" points="893.5,-436.18 890,-426.18 886.5,-436.18 893.5,-436.18"/>
</g>
<!-- 21 -->
<g id="node15" class="node">
<title>21</title>
<text text-anchor="start" x="1357.5" y="-407.8" font-family="Arial" font-weight="bold" font-size="14.00"> ≥ 10.79</text>
<text text-anchor="start" x="1318" y="-363.3" font-family="Arial" font-size="14.00"> &#160;</text>
<path fill="#ebebeb" stroke="transparent" d="M1340,-335C1340,-335 1424,-335 1424,-335 1430,-335 1436,-341 1436,-347 1436,-347 1436,-387 1436,-387 1436,-393 1430,-399 1424,-399 1424,-399 1340,-399 1340,-399 1334,-399 1328,-393 1328,-387 1328,-387 1328,-347 1328,-347 1328,-341 1334,-335 1340,-335"/>
<text text-anchor="start" x="1329" y="-396.4" font-family="Arial" font-size="2.00"> </text>
<text text-anchor="start" x="1329" y="-390.4" font-family="Arial" font-size="7.00"> &#160;21</text>
<text text-anchor="start" x="1343" y="-373.8" font-family="Arial" font-weight="bold" font-size="14.00">Mean: 12.51</text>
<text text-anchor="start" x="1358.5" y="-356.8" font-family="Arial" font-weight="bold" font-size="14.00">n = 310</text>
<text text-anchor="start" x="1380.5" y="-338.8" font-family="Arial" font-size="9.00"> </text>
<path fill="none" stroke="#333333" d="M1340,-335C1340,-335 1424,-335 1424,-335 1430,-335 1436,-341 1436,-347 1436,-347 1436,-387 1436,-387 1436,-393 1430,-399 1424,-399 1424,-399 1340,-399 1340,-399 1334,-399 1328,-393 1328,-387 1328,-387 1328,-347 1328,-347 1328,-341 1334,-335 1340,-335"/>
<text text-anchor="start" x="1438" y="-363.3" font-family="Arial" font-size="14.00"> &#160;</text>
<text text-anchor="start" x="1332" y="-320.8" font-family="Arial" font-weight="bold" font-size="14.00">prev_1h_inflow</text>
</g>
<!-- 13&#45;&gt;21 -->
<g id="edge14" class="edge">
<title>13&#45;&gt;21</title>
<path fill="none" stroke="#888888" d="M963.66,-497.24C1053.24,-469.57 1204.1,-422.96 1298.08,-393.93"/>
<polygon fill="#888888" stroke="#888888" points="1299.32,-397.21 1307.84,-390.91 1297.25,-390.52 1299.32,-397.21"/>
</g>
<!-- 4 -->
<g id="node6" class="node">
<title>4</title>
<text text-anchor="start" x="189" y="-253.8" font-family="Arial" font-weight="bold" font-size="14.00"> &lt; 13.45</text>
<text text-anchor="start" x="150" y="-209.3" font-family="Arial" font-size="14.00"> &#160;</text>
<path fill="#ebebeb" stroke="transparent" d="M172,-181C172,-181 256,-181 256,-181 262,-181 268,-187 268,-193 268,-193 268,-233 268,-233 268,-239 262,-245 256,-245 256,-245 172,-245 172,-245 166,-245 160,-239 160,-233 160,-233 160,-193 160,-193 160,-187 166,-181 172,-181"/>
<text text-anchor="start" x="161" y="-242.4" font-family="Arial" font-size="2.00"> </text>
<text text-anchor="start" x="161" y="-236.4" font-family="Arial" font-size="7.00"> &#160;4</text>
<text text-anchor="start" x="175" y="-219.8" font-family="Arial" font-weight="bold" font-size="14.00">Mean: 7.298</text>
<text text-anchor="start" x="194" y="-202.8" font-family="Arial" font-weight="bold" font-size="14.00">n = 87</text>
<text text-anchor="start" x="212.5" y="-184.8" font-family="Arial" font-size="9.00"> </text>
<path fill="none" stroke="#333333" d="M172,-181C172,-181 256,-181 256,-181 262,-181 268,-187 268,-193 268,-193 268,-233 268,-233 268,-239 262,-245 256,-245 256,-245 172,-245 172,-245 166,-245 160,-239 160,-233 160,-233 160,-193 160,-193 160,-187 166,-181 172,-181"/>
<text text-anchor="start" x="270" y="-209.3" font-family="Arial" font-size="14.00"> &#160;</text>
<text text-anchor="start" x="164" y="-166.8" font-family="Arial" font-weight="bold" font-size="14.00">prev_1h_inflow</text>
</g>
<!-- 3&#45;&gt;4 -->
<g id="edge5" class="edge">
<title>3&#45;&gt;4</title>
<path fill="none" stroke="#888888" d="M313.21,-307.67C303.29,-298.3 292.97,-288.56 282.9,-279.05"/>
<polygon fill="#888888" stroke="#888888" points="285.3,-276.5 275.62,-272.18 280.49,-281.59 285.3,-276.5"/>
</g>
<!-- 7 -->
<g id="node7" class="node">
<title>7</title>
<text text-anchor="start" x="350.5" y="-253.8" font-family="Arial" font-weight="bold" font-size="14.00"> ≥ 13.45</text>
<path fill="#f8766d" fill-opacity="0.505882" stroke="transparent" d="M330,-181C330,-181 420,-181 420,-181 426,-181 432,-187 432,-193 432,-193 432,-233 432,-233 432,-239 426,-245 420,-245 420,-245 330,-245 330,-245 324,-245 318,-239 318,-233 318,-233 318,-193 318,-193 318,-187 324,-181 330,-181"/>
<text text-anchor="start" x="319" y="-242.4" font-family="Arial" font-size="2.00"> </text>
<text text-anchor="start" x="319" y="-236.4" font-family="Arial" font-size="7.00"> &#160;7</text>
<text text-anchor="start" x="333" y="-219.8" font-family="Arial" font-weight="bold" font-size="14.00">Predict 18.21</text>
<text text-anchor="start" x="359" y="-202.8" font-family="Arial" font-weight="bold" font-size="14.00">n = 6</text>
<text text-anchor="start" x="373.5" y="-184.8" font-family="Arial" font-size="9.00"> </text>
<path fill="none" stroke="#333333" d="M330,-181C330,-181 420,-181 420,-181 426,-181 432,-187 432,-193 432,-193 432,-233 432,-233 432,-239 426,-245 420,-245 420,-245 330,-245 330,-245 324,-245 318,-239 318,-233 318,-233 318,-193 318,-193 318,-187 324,-181 330,-181"/>
<text text-anchor="start" x="373" y="-166.8" font-family="Arial" font-weight="bold" font-size="14.00"> </text>
</g>
<!-- 3&#45;&gt;7 -->
<g id="edge6" class="edge">
<title>3&#45;&gt;7</title>
<path fill="none" stroke="#888888" d="M375,-307.67C375,-299.39 375,-290.83 375,-282.38"/>
<polygon fill="#888888" stroke="#888888" points="378.5,-282.18 375,-272.18 371.5,-282.18 378.5,-282.18"/>
</g>
<!-- 9 -->
<g id="node10" class="node">
<title>9</title>
<text text-anchor="start" x="511" y="-253.8" font-family="Arial" font-weight="bold" font-size="14.00"> &lt; 14.47</text>
<text text-anchor="start" x="472" y="-209.3" font-family="Arial" font-size="14.00"> &#160;</text>
<path fill="#ebebeb" stroke="transparent" d="M494,-181C494,-181 578,-181 578,-181 584,-181 590,-187 590,-193 590,-193 590,-233 590,-233 590,-239 584,-245 578,-245 578,-245 494,-245 494,-245 488,-245 482,-239 482,-233 482,-233 482,-193 482,-193 482,-187 488,-181 494,-181"/>
<text text-anchor="start" x="483" y="-242.4" font-family="Arial" font-size="2.00"> </text>
<text text-anchor="start" x="483" y="-236.4" font-family="Arial" font-size="7.00"> &#160;9</text>
<text text-anchor="start" x="497" y="-219.8" font-family="Arial" font-weight="bold" font-size="14.00">Mean: 8.998</text>
<text text-anchor="start" x="516" y="-202.8" font-family="Arial" font-weight="bold" font-size="14.00">n = 73</text>
<text text-anchor="start" x="534.5" y="-184.8" font-family="Arial" font-size="9.00"> </text>
<path fill="none" stroke="#333333" d="M494,-181C494,-181 578,-181 578,-181 584,-181 590,-187 590,-193 590,-193 590,-233 590,-233 590,-239 584,-245 578,-245 578,-245 494,-245 494,-245 488,-245 482,-239 482,-233 482,-233 482,-193 482,-193 482,-187 488,-181 494,-181"/>
<text text-anchor="start" x="592" y="-209.3" font-family="Arial" font-size="14.00"> &#160;</text>
<text text-anchor="start" x="484.5" y="-166.8" font-family="Arial" font-weight="bold" font-size="14.00">min_24h_inflow</text>
</g>
<!-- 8&#45;&gt;9 -->
<g id="edge9" class="edge">
<title>8&#45;&gt;9</title>
<path fill="none" stroke="#888888" d="M610.56,-307.67C603.4,-298.67 595.96,-289.32 588.67,-280.16"/>
<polygon fill="#888888" stroke="#888888" points="591.28,-277.82 582.31,-272.18 585.8,-282.18 591.28,-277.82"/>
</g>
<!-- 12 -->
<g id="node11" class="node">
<title>12</title>
<text text-anchor="start" x="672.5" y="-253.8" font-family="Arial" font-weight="bold" font-size="14.00"> ≥ 14.47</text>
<path fill="#f8766d" fill-opacity="0.376471" stroke="transparent" d="M652,-181C652,-181 742,-181 742,-181 748,-181 754,-187 754,-193 754,-193 754,-233 754,-233 754,-239 748,-245 742,-245 742,-245 652,-245 652,-245 646,-245 640,-239 640,-233 640,-233 640,-193 640,-193 640,-187 646,-181 652,-181"/>
<text text-anchor="start" x="641" y="-242.4" font-family="Arial" font-size="2.00"> </text>
<text text-anchor="start" x="641" y="-236.4" font-family="Arial" font-size="7.00"> &#160;12</text>
<text text-anchor="start" x="655" y="-219.8" font-family="Arial" font-weight="bold" font-size="14.00">Predict 22.29</text>
<text text-anchor="start" x="681" y="-202.8" font-family="Arial" font-weight="bold" font-size="14.00">n = 2</text>
<text text-anchor="start" x="695.5" y="-184.8" font-family="Arial" font-size="9.00"> </text>
<path fill="none" stroke="#333333" d="M652,-181C652,-181 742,-181 742,-181 748,-181 754,-187 754,-193 754,-193 754,-233 754,-233 754,-239 748,-245 742,-245 742,-245 652,-245 652,-245 646,-245 640,-239 640,-233 640,-233 640,-193 640,-193 640,-187 646,-181 652,-181"/>
<text text-anchor="start" x="695" y="-166.8" font-family="Arial" font-weight="bold" font-size="14.00"> </text>
</g>
<!-- 8&#45;&gt;12 -->
<g id="edge10" class="edge">
<title>8&#45;&gt;12</title>
<path fill="none" stroke="#888888" d="M672.35,-307.67C674.55,-299.3 676.83,-290.64 679.08,-282.1"/>
<polygon fill="#888888" stroke="#888888" points="682.53,-282.74 681.69,-272.18 675.76,-280.96 682.53,-282.74"/>
</g>
<!-- 5 -->
<g id="node8" class="node">
<title>5</title>
<text text-anchor="start" x="44" y="-99.8" font-family="Arial" font-weight="bold" font-size="14.00"> &lt; 7.425</text>
<path fill="#f8766d" fill-opacity="0.874510" stroke="transparent" d="M24,-27C24,-27 114,-27 114,-27 120,-27 126,-33 126,-39 126,-39 126,-79 126,-79 126,-85 120,-91 114,-91 114,-91 24,-91 24,-91 18,-91 12,-85 12,-79 12,-79 12,-39 12,-39 12,-33 18,-27 24,-27"/>
<text text-anchor="start" x="13" y="-88.4" font-family="Arial" font-size="2.00"> </text>
<text text-anchor="start" x="13" y="-82.4" font-family="Arial" font-size="7.00"> &#160;5</text>
<text text-anchor="start" x="27" y="-65.8" font-family="Arial" font-weight="bold" font-size="14.00">Predict 6.614</text>
<text text-anchor="start" x="49" y="-48.8" font-family="Arial" font-weight="bold" font-size="14.00">n = 48</text>
<text text-anchor="start" x="67.5" y="-30.8" font-family="Arial" font-size="9.00"> </text>
<path fill="none" stroke="#333333" d="M24,-27C24,-27 114,-27 114,-27 120,-27 126,-33 126,-39 126,-39 126,-79 126,-79 126,-85 120,-91 114,-91 114,-91 24,-91 24,-91 18,-91 12,-85 12,-79 12,-79 12,-39 12,-39 12,-33 18,-27 24,-27"/>
<text text-anchor="start" x="67" y="-12.8" font-family="Arial" font-weight="bold" font-size="14.00"> </text>
</g>
<!-- 4&#45;&gt;5 -->
<g id="edge7" class="edge">
<title>4&#45;&gt;5</title>
<path fill="none" stroke="#888888" d="M158.35,-153.67C149.59,-144.49 140.49,-134.94 131.58,-125.6"/>
<polygon fill="#888888" stroke="#888888" points="133.93,-123 124.5,-118.18 128.87,-127.83 133.93,-123"/>
</g>
<!-- 6 -->
<g id="node9" class="node">
<title>6</title>
<text text-anchor="start" x="196.5" y="-99.8" font-family="Arial" font-weight="bold" font-size="14.00"> ≥ 7.425</text>
<path fill="#f8766d" fill-opacity="0.827451" stroke="transparent" d="M180,-27C180,-27 262,-27 262,-27 268,-27 274,-33 274,-39 274,-39 274,-79 274,-79 274,-85 268,-91 262,-91 262,-91 180,-91 180,-91 174,-91 168,-85 168,-79 168,-79 168,-39 168,-39 168,-33 174,-27 180,-27"/>
<text text-anchor="start" x="169" y="-88.4" font-family="Arial" font-size="2.00"> </text>
<text text-anchor="start" x="169" y="-82.4" font-family="Arial" font-size="7.00"> &#160;6</text>
<text text-anchor="start" x="183" y="-65.8" font-family="Arial" font-weight="bold" font-size="14.00">Predict 8.14</text>
<text text-anchor="start" x="201" y="-48.8" font-family="Arial" font-weight="bold" font-size="14.00">n = 39</text>
<text text-anchor="start" x="219.5" y="-30.8" font-family="Arial" font-size="9.00"> </text>
<path fill="none" stroke="#333333" d="M180,-27C180,-27 262,-27 262,-27 268,-27 274,-33 274,-39 274,-39 274,-79 274,-79 274,-85 268,-91 262,-91 262,-91 180,-91 180,-91 174,-91 168,-85 168,-79 168,-79 168,-39 168,-39 168,-33 174,-27 180,-27"/>
<text text-anchor="start" x="219" y="-12.8" font-family="Arial" font-weight="bold" font-size="14.00"> </text>
</g>
<!-- 4&#45;&gt;6 -->
<g id="edge8" class="edge">
<title>4&#45;&gt;6</title>
<path fill="none" stroke="#888888" d="M216.69,-153.67C217.07,-145.39 217.46,-136.83 217.85,-128.38"/>
<polygon fill="#888888" stroke="#888888" points="221.36,-128.33 218.32,-118.18 214.36,-128 221.36,-128.33"/>
</g>
<!-- 10 -->
<g id="node12" class="node">
<title>10</title>
<text text-anchor="start" x="355" y="-99.8" font-family="Arial" font-weight="bold" font-size="14.00"> &lt; 8.125</text>
<path fill="#f8766d" fill-opacity="0.811765" stroke="transparent" d="M335,-27C335,-27 425,-27 425,-27 431,-27 437,-33 437,-39 437,-39 437,-79 437,-79 437,-85 431,-91 425,-91 425,-91 335,-91 335,-91 329,-91 323,-85 323,-79 323,-79 323,-39 323,-39 323,-33 329,-27 335,-27"/>
<text text-anchor="start" x="324" y="-88.4" font-family="Arial" font-size="2.00"> </text>
<text text-anchor="start" x="324" y="-82.4" font-family="Arial" font-size="7.00"> &#160;10</text>
<text text-anchor="start" x="338" y="-65.8" font-family="Arial" font-weight="bold" font-size="14.00">Predict 8.656</text>
<text text-anchor="start" x="360" y="-48.8" font-family="Arial" font-weight="bold" font-size="14.00">n = 60</text>
<text text-anchor="start" x="378.5" y="-30.8" font-family="Arial" font-size="9.00"> </text>
<path fill="none" stroke="#333333" d="M335,-27C335,-27 425,-27 425,-27 431,-27 437,-33 437,-39 437,-39 437,-79 437,-79 437,-85 431,-91 425,-91 425,-91 335,-91 335,-91 329,-91 323,-85 323,-79 323,-79 323,-39 323,-39 323,-33 329,-27 335,-27"/>
<text text-anchor="start" x="378" y="-12.8" font-family="Arial" font-weight="bold" font-size="14.00"> </text>
</g>
<!-- 9&#45;&gt;10 -->
<g id="edge11" class="edge">
<title>9&#45;&gt;10</title>
<path fill="none" stroke="#888888" d="M476.13,-153.67C466.62,-144.39 456.72,-134.75 447.05,-125.33"/>
<polygon fill="#888888" stroke="#888888" points="449.31,-122.65 439.71,-118.18 444.43,-127.66 449.31,-122.65"/>
</g>
<!-- 11 -->
<g id="node13" class="node">
<title>11</title>
<text text-anchor="start" x="511.5" y="-99.8" font-family="Arial" font-weight="bold" font-size="14.00"> ≥ 8.125</text>
<path fill="#f8766d" fill-opacity="0.749020" stroke="transparent" d="M491,-27C491,-27 581,-27 581,-27 587,-27 593,-33 593,-39 593,-39 593,-79 593,-79 593,-85 587,-91 581,-91 581,-91 491,-91 491,-91 485,-91 479,-85 479,-79 479,-79 479,-39 479,-39 479,-33 485,-27 491,-27"/>
<text text-anchor="start" x="480" y="-88.4" font-family="Arial" font-size="2.00"> </text>
<text text-anchor="start" x="480" y="-82.4" font-family="Arial" font-size="7.00"> &#160;11</text>
<text text-anchor="start" x="494" y="-65.8" font-family="Arial" font-weight="bold" font-size="14.00">Predict 10.58</text>
<text text-anchor="start" x="516" y="-48.8" font-family="Arial" font-weight="bold" font-size="14.00">n = 13</text>
<text text-anchor="start" x="534.5" y="-30.8" font-family="Arial" font-size="9.00"> </text>
<path fill="none" stroke="#333333" d="M491,-27C491,-27 581,-27 581,-27 587,-27 593,-33 593,-39 593,-39 593,-79 593,-79 593,-85 587,-91 581,-91 581,-91 491,-91 491,-91 485,-91 479,-85 479,-79 479,-79 479,-39 479,-39 479,-33 485,-27 491,-27"/>
<text text-anchor="start" x="534" y="-12.8" font-family="Arial" font-weight="bold" font-size="14.00"> </text>
</g>
<!-- 9&#45;&gt;11 -->
<g id="edge12" class="edge">
<title>9&#45;&gt;11</title>
<path fill="none" stroke="#888888" d="M536,-153.67C536,-145.39 536,-136.83 536,-128.38"/>
<polygon fill="#888888" stroke="#888888" points="539.5,-128.18 536,-118.18 532.5,-128.18 539.5,-128.18"/>
</g>
<!-- 15 -->
<g id="node16" class="node">
<title>15</title>
<text text-anchor="start" x="828.5" y="-253.8" font-family="Arial" font-weight="bold" font-size="14.00"> &lt; 9.13</text>
<path fill="#ebebeb" stroke="transparent" d="M808,-181C808,-181 892,-181 892,-181 898,-181 904,-187 904,-193 904,-193 904,-233 904,-233 904,-239 898,-245 892,-245 892,-245 808,-245 808,-245 802,-245 796,-239 796,-233 796,-233 796,-193 796,-193 796,-187 802,-181 808,-181"/>
<text text-anchor="start" x="797" y="-242.4" font-family="Arial" font-size="2.00"> </text>
<text text-anchor="start" x="797" y="-236.4" font-family="Arial" font-size="7.00"> &#160;15</text>
<text text-anchor="start" x="811" y="-219.8" font-family="Arial" font-weight="bold" font-size="14.00">Mean: 8.806</text>
<text text-anchor="start" x="830" y="-202.8" font-family="Arial" font-weight="bold" font-size="14.00">n = 65</text>
<text text-anchor="start" x="848.5" y="-184.8" font-family="Arial" font-size="9.00"> </text>
<path fill="none" stroke="#333333" d="M808,-181C808,-181 892,-181 892,-181 898,-181 904,-187 904,-193 904,-193 904,-233 904,-233 904,-239 898,-245 892,-245 892,-245 808,-245 808,-245 802,-245 796,-239 796,-233 796,-233 796,-193 796,-193 796,-187 802,-181 808,-181"/>
<text text-anchor="start" x="835.5" y="-166.8" font-family="Arial" font-weight="bold" font-size="14.00">time</text>
</g>
<!-- 14&#45;&gt;15 -->
<g id="edge15" class="edge">
<title>14&#45;&gt;15</title>
<path fill="none" stroke="#888888" d="M874.65,-307.67C872.45,-299.3 870.17,-290.64 867.92,-282.1"/>
<polygon fill="#888888" stroke="#888888" points="871.24,-280.96 865.31,-272.18 864.47,-282.74 871.24,-280.96"/>
</g>
<!-- 18 -->
<g id="node17" class="node">
<title>18</title>
<text text-anchor="start" x="984" y="-253.8" font-family="Arial" font-weight="bold" font-size="14.00"> ≥ 9.13</text>
<path fill="#ebebeb" stroke="transparent" d="M963,-181C963,-181 1047,-181 1047,-181 1053,-181 1059,-187 1059,-193 1059,-193 1059,-233 1059,-233 1059,-239 1053,-245 1047,-245 1047,-245 963,-245 963,-245 957,-245 951,-239 951,-233 951,-233 951,-193 951,-193 951,-187 957,-181 963,-181"/>
<text text-anchor="start" x="952" y="-242.4" font-family="Arial" font-size="2.00"> </text>
<text text-anchor="start" x="952" y="-236.4" font-family="Arial" font-size="7.00"> &#160;18</text>
<text text-anchor="start" x="966" y="-219.8" font-family="Arial" font-weight="bold" font-size="14.00">Mean: 10.35</text>
<text text-anchor="start" x="981.5" y="-202.8" font-family="Arial" font-weight="bold" font-size="14.00">n = 129</text>
<text text-anchor="start" x="1003.5" y="-184.8" font-family="Arial" font-size="9.00"> </text>
<path fill="none" stroke="#333333" d="M963,-181C963,-181 1047,-181 1047,-181 1053,-181 1059,-187 1059,-193 1059,-193 1059,-233 1059,-233 1059,-239 1053,-245 1047,-245 1047,-245 963,-245 963,-245 957,-245 951,-239 951,-233 951,-233 951,-193 951,-193 951,-187 957,-181 963,-181"/>
<text text-anchor="start" x="990.5" y="-166.8" font-family="Arial" font-weight="bold" font-size="14.00">time</text>
</g>
<!-- 14&#45;&gt;18 -->
<g id="edge16" class="edge">
<title>14&#45;&gt;18</title>
<path fill="none" stroke="#888888" d="M934.13,-307.67C940.94,-298.67 948.02,-289.32 954.95,-280.16"/>
<polygon fill="#888888" stroke="#888888" points="957.74,-282.26 960.98,-272.18 952.16,-278.04 957.74,-282.26"/>
</g>
<!-- 22 -->
<g id="node22" class="node">
<title>22</title>
<text text-anchor="start" x="1357.5" y="-253.8" font-family="Arial" font-weight="bold" font-size="14.00"> &lt; 12.96</text>
<path fill="#ebebeb" stroke="transparent" d="M1341,-181C1341,-181 1424,-181 1424,-181 1430,-181 1436,-187 1436,-193 1436,-193 1436,-233 1436,-233 1436,-239 1430,-245 1424,-245 1424,-245 1341,-245 1341,-245 1335,-245 1329,-239 1329,-233 1329,-233 1329,-193 1329,-193 1329,-187 1335,-181 1341,-181"/>
<text text-anchor="start" x="1330" y="-242.4" font-family="Arial" font-size="2.00"> </text>
<text text-anchor="start" x="1330" y="-236.4" font-family="Arial" font-size="7.00"> &#160;22</text>
<text text-anchor="start" x="1344" y="-219.8" font-family="Arial" font-weight="bold" font-size="14.00">Mean: 11.78</text>
<text text-anchor="start" x="1359" y="-202.8" font-family="Arial" font-weight="bold" font-size="14.00">n = 185</text>
<text text-anchor="start" x="1381" y="-184.8" font-family="Arial" font-size="9.00"> </text>
<path fill="none" stroke="#333333" d="M1341,-181C1341,-181 1424,-181 1424,-181 1430,-181 1436,-187 1436,-193 1436,-193 1436,-233 1436,-233 1436,-239 1430,-245 1424,-245 1424,-245 1341,-245 1341,-245 1335,-245 1329,-239 1329,-233 1329,-233 1329,-193 1329,-193 1329,-187 1335,-181 1341,-181"/>
<text text-anchor="start" x="1368" y="-166.8" font-family="Arial" font-weight="bold" font-size="14.00">time</text>
</g>
<!-- 21&#45;&gt;22 -->
<g id="edge21" class="edge">
<title>21&#45;&gt;22</title>
<path fill="none" stroke="#888888" d="M1382,-307.67C1382,-299.39 1382,-290.83 1382,-282.38"/>
<polygon fill="#888888" stroke="#888888" points="1385.5,-282.18 1382,-272.18 1378.5,-282.18 1385.5,-282.18"/>
</g>
<!-- 25 -->
<g id="node23" class="node">
<title>25</title>
<text text-anchor="start" x="1596.5" y="-253.8" font-family="Arial" font-weight="bold" font-size="14.00"> ≥ 12.96</text>
<text text-anchor="start" x="1549" y="-209.3" font-family="Arial" font-size="14.00"> &#160;&#160;&#160;</text>
<path fill="#ebebeb" stroke="transparent" d="M1579,-181C1579,-181 1663,-181 1663,-181 1669,-181 1675,-187 1675,-193 1675,-193 1675,-233 1675,-233 1675,-239 1669,-245 1663,-245 1663,-245 1579,-245 1579,-245 1573,-245 1567,-239 1567,-233 1567,-233 1567,-193 1567,-193 1567,-187 1573,-181 1579,-181"/>
<text text-anchor="start" x="1568" y="-242.4" font-family="Arial" font-size="2.00"> </text>
<text text-anchor="start" x="1568" y="-236.4" font-family="Arial" font-size="7.00"> &#160;25</text>
<text text-anchor="start" x="1582" y="-219.8" font-family="Arial" font-weight="bold" font-size="14.00">Mean: 13.58</text>
<text text-anchor="start" x="1597.5" y="-202.8" font-family="Arial" font-weight="bold" font-size="14.00">n = 125</text>
<text text-anchor="start" x="1619.5" y="-184.8" font-family="Arial" font-size="9.00"> </text>
<path fill="none" stroke="#333333" d="M1579,-181C1579,-181 1663,-181 1663,-181 1669,-181 1675,-187 1675,-193 1675,-193 1675,-233 1675,-233 1675,-239 1669,-245 1663,-245 1663,-245 1579,-245 1579,-245 1573,-245 1567,-239 1567,-233 1567,-233 1567,-193 1567,-193 1567,-187 1573,-181 1579,-181"/>
<text text-anchor="start" x="1677" y="-209.3" font-family="Arial" font-size="14.00"> &#160;&#160;&#160;</text>
<text text-anchor="start" x="1563.5" y="-166.8" font-family="Arial" font-weight="bold" font-size="14.00">prev_168h_inflow</text>
</g>
<!-- 21&#45;&gt;25 -->
<g id="edge22" class="edge">
<title>21&#45;&gt;25</title>
<path fill="none" stroke="#888888" d="M1456.31,-318.74C1479.72,-303.85 1505.85,-287.23 1530.27,-271.7"/>
<polygon fill="#888888" stroke="#888888" points="1532.27,-274.58 1538.83,-266.26 1528.51,-268.67 1532.27,-274.58"/>
</g>
<!-- 16 -->
<g id="node18" class="node">
<title>16</title>
<text text-anchor="start" x="671.5" y="-99.8" font-family="Arial" font-weight="bold" font-size="14.00"> &lt; 20.5</text>
<path fill="#f8766d" fill-opacity="0.788235" stroke="transparent" d="M648,-27C648,-27 738,-27 738,-27 744,-27 750,-33 750,-39 750,-39 750,-79 750,-79 750,-85 744,-91 738,-91 738,-91 648,-91 648,-91 642,-91 636,-85 636,-79 636,-79 636,-39 636,-39 636,-33 642,-27 648,-27"/>
<text text-anchor="start" x="637" y="-88.4" font-family="Arial" font-size="2.00"> </text>
<text text-anchor="start" x="637" y="-82.4" font-family="Arial" font-size="7.00"> &#160;16</text>
<text text-anchor="start" x="651" y="-65.8" font-family="Arial" font-weight="bold" font-size="14.00">Predict 9.326</text>
<text text-anchor="start" x="673" y="-48.8" font-family="Arial" font-weight="bold" font-size="14.00">n = 47</text>
<text text-anchor="start" x="691.5" y="-30.8" font-family="Arial" font-size="9.00"> </text>
<path fill="none" stroke="#333333" d="M648,-27C648,-27 738,-27 738,-27 744,-27 750,-33 750,-39 750,-39 750,-79 750,-79 750,-85 744,-91 738,-91 738,-91 648,-91 648,-91 642,-91 636,-85 636,-79 636,-79 636,-39 636,-39 636,-33 642,-27 648,-27"/>
<text text-anchor="start" x="691" y="-12.8" font-family="Arial" font-weight="bold" font-size="14.00"> </text>
</g>
<!-- 15&#45;&gt;16 -->
<g id="edge17" class="edge">
<title>15&#45;&gt;16</title>
<path fill="none" stroke="#888888" d="M789.75,-153.67C780.17,-144.39 770.21,-134.75 760.48,-125.33"/>
<polygon fill="#888888" stroke="#888888" points="762.71,-122.62 753.09,-118.18 757.84,-127.65 762.71,-122.62"/>
</g>
<!-- 17 -->
<g id="node19" class="node">
<title>17</title>
<text text-anchor="start" x="828" y="-99.8" font-family="Arial" font-weight="bold" font-size="14.00"> ≥ 20.5</text>
<path fill="#f8766d" fill-opacity="0.847059" stroke="transparent" d="M804,-27C804,-27 894,-27 894,-27 900,-27 906,-33 906,-39 906,-39 906,-79 906,-79 906,-85 900,-91 894,-91 894,-91 804,-91 804,-91 798,-91 792,-85 792,-79 792,-79 792,-39 792,-39 792,-33 798,-27 804,-27"/>
<text text-anchor="start" x="793" y="-88.4" font-family="Arial" font-size="2.00"> </text>
<text text-anchor="start" x="793" y="-82.4" font-family="Arial" font-size="7.00"> &#160;17</text>
<text text-anchor="start" x="807" y="-65.8" font-family="Arial" font-weight="bold" font-size="14.00">Predict 7.448</text>
<text text-anchor="start" x="829" y="-48.8" font-family="Arial" font-weight="bold" font-size="14.00">n = 18</text>
<text text-anchor="start" x="847.5" y="-30.8" font-family="Arial" font-size="9.00"> </text>
<path fill="none" stroke="#333333" d="M804,-27C804,-27 894,-27 894,-27 900,-27 906,-33 906,-39 906,-39 906,-79 906,-79 906,-85 900,-91 894,-91 894,-91 804,-91 804,-91 798,-91 792,-85 792,-79 792,-79 792,-39 792,-39 792,-33 798,-27 804,-27"/>
<text text-anchor="start" x="847" y="-12.8" font-family="Arial" font-weight="bold" font-size="14.00"> </text>
</g>
<!-- 15&#45;&gt;17 -->
<g id="edge18" class="edge">
<title>15&#45;&gt;17</title>
<path fill="none" stroke="#888888" d="M849.62,-153.67C849.56,-145.39 849.51,-136.83 849.45,-128.38"/>
<polygon fill="#888888" stroke="#888888" points="852.95,-128.15 849.38,-118.18 845.95,-128.2 852.95,-128.15"/>
</g>
<!-- 19 -->
<g id="node20" class="node">
<title>19</title>
<text text-anchor="start" x="983.5" y="-99.8" font-family="Arial" font-weight="bold" font-size="14.00"> &lt; 20.5</text>
<path fill="#f8766d" fill-opacity="0.745098" stroke="transparent" d="M960,-27C960,-27 1050,-27 1050,-27 1056,-27 1062,-33 1062,-39 1062,-39 1062,-79 1062,-79 1062,-85 1056,-91 1050,-91 1050,-91 960,-91 960,-91 954,-91 948,-85 948,-79 948,-79 948,-39 948,-39 948,-33 954,-27 960,-27"/>
<text text-anchor="start" x="949" y="-88.4" font-family="Arial" font-size="2.00"> </text>
<text text-anchor="start" x="949" y="-82.4" font-family="Arial" font-size="7.00"> &#160;19</text>
<text text-anchor="start" x="963" y="-65.8" font-family="Arial" font-weight="bold" font-size="14.00">Predict 10.63</text>
<text text-anchor="start" x="981.5" y="-48.8" font-family="Arial" font-weight="bold" font-size="14.00">n = 105</text>
<text text-anchor="start" x="1003.5" y="-30.8" font-family="Arial" font-size="9.00"> </text>
<path fill="none" stroke="#333333" d="M960,-27C960,-27 1050,-27 1050,-27 1056,-27 1062,-33 1062,-39 1062,-39 1062,-79 1062,-79 1062,-85 1056,-91 1050,-91 1050,-91 960,-91 960,-91 954,-91 948,-85 948,-79 948,-79 948,-39 948,-39 948,-33 954,-27 960,-27"/>
<text text-anchor="start" x="1003" y="-12.8" font-family="Arial" font-weight="bold" font-size="14.00"> </text>
</g>
<!-- 18&#45;&gt;19 -->
<g id="edge19" class="edge">
<title>18&#45;&gt;19</title>
<path fill="none" stroke="#888888" d="M1005,-153.67C1005,-145.39 1005,-136.83 1005,-128.38"/>
<polygon fill="#888888" stroke="#888888" points="1008.5,-128.18 1005,-118.18 1001.5,-128.18 1008.5,-128.18"/>
</g>
<!-- 20 -->
<g id="node21" class="node">
<title>20</title>
<text text-anchor="start" x="1136" y="-99.8" font-family="Arial" font-weight="bold" font-size="14.00"> ≥ 20.5</text>
<path fill="#f8766d" fill-opacity="0.796078" stroke="transparent" d="M1116,-27C1116,-27 1198,-27 1198,-27 1204,-27 1210,-33 1210,-39 1210,-39 1210,-79 1210,-79 1210,-85 1204,-91 1198,-91 1198,-91 1116,-91 1116,-91 1110,-91 1104,-85 1104,-79 1104,-79 1104,-39 1104,-39 1104,-33 1110,-27 1116,-27"/>
<text text-anchor="start" x="1105" y="-88.4" font-family="Arial" font-size="2.00"> </text>
<text text-anchor="start" x="1105" y="-82.4" font-family="Arial" font-size="7.00"> &#160;20</text>
<text text-anchor="start" x="1119" y="-65.8" font-family="Arial" font-weight="bold" font-size="14.00">Predict 9.13</text>
<text text-anchor="start" x="1137" y="-48.8" font-family="Arial" font-weight="bold" font-size="14.00">n = 24</text>
<text text-anchor="start" x="1155.5" y="-30.8" font-family="Arial" font-size="9.00"> </text>
<path fill="none" stroke="#333333" d="M1116,-27C1116,-27 1198,-27 1198,-27 1204,-27 1210,-33 1210,-39 1210,-39 1210,-79 1210,-79 1210,-85 1204,-91 1198,-91 1198,-91 1116,-91 1116,-91 1110,-91 1104,-85 1104,-79 1104,-79 1104,-39 1104,-39 1104,-33 1110,-27 1116,-27"/>
<text text-anchor="start" x="1155" y="-12.8" font-family="Arial" font-weight="bold" font-size="14.00"> </text>
</g>
<!-- 18&#45;&gt;20 -->
<g id="edge20" class="edge">
<title>18&#45;&gt;20</title>
<path fill="none" stroke="#888888" d="M1063.33,-153.67C1072.61,-144.39 1082.25,-134.75 1091.67,-125.33"/>
<polygon fill="#888888" stroke="#888888" points="1094.23,-127.72 1098.82,-118.18 1089.28,-122.77 1094.23,-127.72"/>
</g>
<!-- 23 -->
<g id="node24" class="node">
<title>23</title>
<text text-anchor="start" x="1287.5" y="-99.8" font-family="Arial" font-weight="bold" font-size="14.00"> &lt; 20.5</text>
<path fill="#f8766d" fill-opacity="0.701961" stroke="transparent" d="M1264,-27C1264,-27 1354,-27 1354,-27 1360,-27 1366,-33 1366,-39 1366,-39 1366,-79 1366,-79 1366,-85 1360,-91 1354,-91 1354,-91 1264,-91 1264,-91 1258,-91 1252,-85 1252,-79 1252,-79 1252,-39 1252,-39 1252,-33 1258,-27 1264,-27"/>
<text text-anchor="start" x="1253" y="-88.4" font-family="Arial" font-size="2.00"> </text>
<text text-anchor="start" x="1253" y="-82.4" font-family="Arial" font-size="7.00"> &#160;23</text>
<text text-anchor="start" x="1267" y="-65.8" font-family="Arial" font-weight="bold" font-size="14.00">Predict 12.05</text>
<text text-anchor="start" x="1285.5" y="-48.8" font-family="Arial" font-weight="bold" font-size="14.00">n = 157</text>
<text text-anchor="start" x="1307.5" y="-30.8" font-family="Arial" font-size="9.00"> </text>
<path fill="none" stroke="#333333" d="M1264,-27C1264,-27 1354,-27 1354,-27 1360,-27 1366,-33 1366,-39 1366,-39 1366,-79 1366,-79 1366,-85 1360,-91 1354,-91 1354,-91 1264,-91 1264,-91 1258,-91 1252,-85 1252,-79 1252,-79 1252,-39 1252,-39 1252,-33 1258,-27 1264,-27"/>
<text text-anchor="start" x="1307" y="-12.8" font-family="Arial" font-weight="bold" font-size="14.00"> </text>
</g>
<!-- 22&#45;&gt;23 -->
<g id="edge23" class="edge">
<title>22&#45;&gt;23</title>
<path fill="none" stroke="#888888" d="M1353.99,-153.67C1349.84,-145.03 1345.53,-136.07 1341.31,-127.27"/>
<polygon fill="#888888" stroke="#888888" points="1344.42,-125.68 1336.94,-118.18 1338.11,-128.71 1344.42,-125.68"/>
</g>
<!-- 24 -->
<g id="node25" class="node">
<title>24</title>
<text text-anchor="start" x="1444" y="-99.8" font-family="Arial" font-weight="bold" font-size="14.00"> ≥ 20.5</text>
<path fill="#f8766d" fill-opacity="0.756863" stroke="transparent" d="M1420,-27C1420,-27 1510,-27 1510,-27 1516,-27 1522,-33 1522,-39 1522,-39 1522,-79 1522,-79 1522,-85 1516,-91 1510,-91 1510,-91 1420,-91 1420,-91 1414,-91 1408,-85 1408,-79 1408,-79 1408,-39 1408,-39 1408,-33 1414,-27 1420,-27"/>
<text text-anchor="start" x="1409" y="-88.4" font-family="Arial" font-size="2.00"> </text>
<text text-anchor="start" x="1409" y="-82.4" font-family="Arial" font-size="7.00"> &#160;24</text>
<text text-anchor="start" x="1423" y="-65.8" font-family="Arial" font-weight="bold" font-size="14.00">Predict 10.27</text>
<text text-anchor="start" x="1445" y="-48.8" font-family="Arial" font-weight="bold" font-size="14.00">n = 28</text>
<text text-anchor="start" x="1463.5" y="-30.8" font-family="Arial" font-size="9.00"> </text>
<path fill="none" stroke="#333333" d="M1420,-27C1420,-27 1510,-27 1510,-27 1516,-27 1522,-33 1522,-39 1522,-39 1522,-79 1522,-79 1522,-85 1516,-91 1510,-91 1510,-91 1420,-91 1420,-91 1414,-91 1408,-85 1408,-79 1408,-79 1408,-39 1408,-39 1408,-33 1414,-27 1420,-27"/>
<text text-anchor="start" x="1463" y="-12.8" font-family="Arial" font-weight="bold" font-size="14.00"> </text>
</g>
<!-- 22&#45;&gt;24 -->
<g id="edge24" class="edge">
<title>22&#45;&gt;24</title>
<path fill="none" stroke="#888888" d="M1413.85,-153.67C1418.62,-144.94 1423.56,-135.88 1428.42,-126.99"/>
<polygon fill="#888888" stroke="#888888" points="1431.51,-128.63 1433.23,-118.18 1425.37,-125.28 1431.51,-128.63"/>
</g>
<!-- 26 -->
<g id="node26" class="node">
<title>26</title>
<text text-anchor="start" x="1596.5" y="-99.8" font-family="Arial" font-weight="bold" font-size="14.00"> &lt; 10.61</text>
<path fill="#f8766d" fill-opacity="0.705882" stroke="transparent" d="M1577,-27C1577,-27 1666,-27 1666,-27 1672,-27 1678,-33 1678,-39 1678,-39 1678,-79 1678,-79 1678,-85 1672,-91 1666,-91 1666,-91 1577,-91 1577,-91 1571,-91 1565,-85 1565,-79 1565,-79 1565,-39 1565,-39 1565,-33 1571,-27 1577,-27"/>
<text text-anchor="start" x="1566" y="-88.4" font-family="Arial" font-size="2.00"> </text>
<text text-anchor="start" x="1566" y="-82.4" font-family="Arial" font-size="7.00"> &#160;26</text>
<text text-anchor="start" x="1580" y="-65.8" font-family="Arial" font-weight="bold" font-size="14.00">Predict 11.91</text>
<text text-anchor="start" x="1601.5" y="-48.8" font-family="Arial" font-weight="bold" font-size="14.00">n = 15</text>
<text text-anchor="start" x="1620" y="-30.8" font-family="Arial" font-size="9.00"> </text>
<path fill="none" stroke="#333333" d="M1577,-27C1577,-27 1666,-27 1666,-27 1672,-27 1678,-33 1678,-39 1678,-39 1678,-79 1678,-79 1678,-85 1672,-91 1666,-91 1666,-91 1577,-91 1577,-91 1571,-91 1565,-85 1565,-79 1565,-79 1565,-39 1565,-39 1565,-33 1571,-27 1577,-27"/>
<text text-anchor="start" x="1619.5" y="-12.8" font-family="Arial" font-weight="bold" font-size="14.00"> </text>
</g>
<!-- 25&#45;&gt;26 -->
<g id="edge25" class="edge">
<title>25&#45;&gt;26</title>
<path fill="none" stroke="#888888" d="M1621,-153.67C1621,-145.39 1621,-136.83 1621,-128.38"/>
<polygon fill="#888888" stroke="#888888" points="1624.5,-128.18 1621,-118.18 1617.5,-128.18 1624.5,-128.18"/>
</g>
<!-- 27 -->
<g id="node27" class="node">
<title>27</title>
<text text-anchor="start" x="1752.5" y="-99.8" font-family="Arial" font-weight="bold" font-size="14.00"> ≥ 10.61</text>
<path fill="#f8766d" fill-opacity="0.647059" stroke="transparent" d="M1732,-27C1732,-27 1822,-27 1822,-27 1828,-27 1834,-33 1834,-39 1834,-39 1834,-79 1834,-79 1834,-85 1828,-91 1822,-91 1822,-91 1732,-91 1732,-91 1726,-91 1720,-85 1720,-79 1720,-79 1720,-39 1720,-39 1720,-33 1726,-27 1732,-27"/>
<text text-anchor="start" x="1721" y="-88.4" font-family="Arial" font-size="2.00"> </text>
<text text-anchor="start" x="1721" y="-82.4" font-family="Arial" font-size="7.00"> &#160;27</text>
<text text-anchor="start" x="1735" y="-65.8" font-family="Arial" font-weight="bold" font-size="14.00">Predict 13.81</text>
<text text-anchor="start" x="1754" y="-48.8" font-family="Arial" font-weight="bold" font-size="14.00">n = 110</text>
<text text-anchor="start" x="1775.5" y="-30.8" font-family="Arial" font-size="9.00"> </text>
<path fill="none" stroke="#333333" d="M1732,-27C1732,-27 1822,-27 1822,-27 1828,-27 1834,-33 1834,-39 1834,-39 1834,-79 1834,-79 1834,-85 1828,-91 1822,-91 1822,-91 1732,-91 1732,-91 1726,-91 1720,-85 1720,-79 1720,-79 1720,-39 1720,-39 1720,-33 1726,-27 1732,-27"/>
<text text-anchor="start" x="1775" y="-12.8" font-family="Arial" font-weight="bold" font-size="14.00"> </text>
</g>
<!-- 25&#45;&gt;27 -->
<g id="edge26" class="edge">
<title>25&#45;&gt;27</title>
<path fill="none" stroke="#888888" d="M1680.87,-153.67C1690.38,-144.39 1700.28,-134.75 1709.95,-125.33"/>
<polygon fill="#888888" stroke="#888888" points="1712.57,-127.66 1717.29,-118.18 1707.69,-122.65 1712.57,-127.66"/>
</g>
</g>
</svg>
