<?xml version="1.0" encoding="utf-8"?>
<svg xmlns="http://www.w3.org/2000/svg" xmlns:xlink="http://www.w3.org/1999/xlink" width="500" height="250" viewBox="0 0 2000 1000">
<defs>
  <clipPath id="clip400">
    <rect x="0" y="0" width="2000" height="1000"/>
  </clipPath>
</defs>
<path clip-path="url(#clip400)" d="M0 1000 L2000 1000 L2000 0 L0 0  Z" fill="#ffffff" fill-rule="evenodd" fill-opacity="1"/>
<defs>
  <clipPath id="clip401">
    <rect x="400" y="0" width="1401" height="1000"/>
  </clipPath>
</defs>
<path clip-path="url(#clip400)" d="M192.859 897.848 L1445.45 897.848 L1445.45 47.2441 L192.859 47.2441  Z" fill="#ffffff" fill-rule="evenodd" fill-opacity="1"/>
<defs>
  <clipPath id="clip402">
    <rect x="192" y="47" width="1254" height="852"/>
  </clipPath>
</defs>
<polyline clip-path="url(#clip402)" style="stroke:#000000; stroke-linecap:round; stroke-linejoin:round; stroke-width:2; stroke-opacity:0.1; fill:none" points="228.309,897.848 228.309,47.2441 "/>
<polyline clip-path="url(#clip402)" style="stroke:#000000; stroke-linecap:round; stroke-linejoin:round; stroke-width:2; stroke-opacity:0.1; fill:none" points="567.956,897.848 567.956,47.2441 "/>
<polyline clip-path="url(#clip402)" style="stroke:#000000; stroke-linecap:round; stroke-linejoin:round; stroke-width:2; stroke-opacity:0.1; fill:none" points="907.603,897.848 907.603,47.2441 "/>
<polyline clip-path="url(#clip402)" style="stroke:#000000; stroke-linecap:round; stroke-linejoin:round; stroke-width:2; stroke-opacity:0.1; fill:none" points="1247.25,897.848 1247.25,47.2441 "/>
<polyline clip-path="url(#clip400)" style="stroke:#000000; stroke-linecap:round; stroke-linejoin:round; stroke-width:4; stroke-opacity:1; fill:none" points="192.859,897.848 1445.45,897.848 "/>
<polyline clip-path="url(#clip400)" style="stroke:#000000; stroke-linecap:round; stroke-linejoin:round; stroke-width:4; stroke-opacity:1; fill:none" points="228.309,897.848 228.309,878.95 "/>
<polyline clip-path="url(#clip400)" style="stroke:#000000; stroke-linecap:round; stroke-linejoin:round; stroke-width:4; stroke-opacity:1; fill:none" points="567.956,897.848 567.956,878.95 "/>
<polyline clip-path="url(#clip400)" style="stroke:#000000; stroke-linecap:round; stroke-linejoin:round; stroke-width:4; stroke-opacity:1; fill:none" points="907.603,897.848 907.603,878.95 "/>
<polyline clip-path="url(#clip400)" style="stroke:#000000; stroke-linecap:round; stroke-linejoin:round; stroke-width:4; stroke-opacity:1; fill:none" points="1247.25,897.848 1247.25,878.95 "/>
<path clip-path="url(#clip400)" d="M83.4402 958.021 L101.799 958.021 L101.799 962.448 L77.1121 962.448 L77.1121 958.021 Q80.1069 954.922 85.2631 949.714 Q90.4454 944.479 91.7735 942.969 Q94.2995 940.13 95.2891 938.177 Q96.3047 936.198 96.3047 934.297 Q96.3047 931.198 94.1172 929.245 Q91.9558 927.292 88.4662 927.292 Q85.9923 927.292 83.2319 928.151 Q80.4975 929.011 77.3725 930.755 L77.3725 925.443 Q80.5496 924.167 83.31 923.516 Q86.0704 922.865 88.3621 922.865 Q94.4037 922.865 97.9974 925.886 Q101.591 928.906 101.591 933.958 Q101.591 936.354 100.68 938.516 Q99.7943 940.651 97.4245 943.568 Q96.7735 944.323 93.2839 947.943 Q89.7943 951.536 83.4402 958.021 Z" fill="#000000" fill-rule="nonzero" fill-opacity="1" /><path clip-path="url(#clip400)" d="M124.091 927.031 Q120.029 927.031 117.971 931.042 Q115.94 935.026 115.94 943.047 Q115.94 951.042 117.971 955.052 Q120.029 959.036 124.091 959.036 Q128.18 959.036 130.211 955.052 Q132.268 951.042 132.268 943.047 Q132.268 935.026 130.211 931.042 Q128.18 927.031 124.091 927.031 M124.091 922.865 Q130.627 922.865 134.065 928.047 Q137.528 933.203 137.528 943.047 Q137.528 952.865 134.065 958.047 Q130.627 963.203 124.091 963.203 Q117.555 963.203 114.091 958.047 Q110.654 952.865 110.654 943.047 Q110.654 933.203 114.091 928.047 Q117.555 922.865 124.091 922.865 Z" fill="#000000" fill-rule="nonzero" fill-opacity="1" /><path clip-path="url(#clip400)" d="M151.304 958.021 L169.664 958.021 L169.664 962.448 L144.976 962.448 L144.976 958.021 Q147.971 954.922 153.127 949.714 Q158.31 944.479 159.638 942.969 Q162.164 940.13 163.153 938.177 Q164.169 936.198 164.169 934.297 Q164.169 931.198 161.981 929.245 Q159.82 927.292 156.33 927.292 Q153.856 927.292 151.096 928.151 Q148.362 929.011 145.237 930.755 L145.237 925.443 Q148.414 924.167 151.174 923.516 Q153.935 922.865 156.226 922.865 Q162.268 922.865 165.862 925.886 Q169.455 928.906 169.455 933.958 Q169.455 936.354 168.544 938.516 Q167.659 940.651 165.289 943.568 Q164.638 944.323 161.148 947.943 Q157.659 951.536 151.304 958.021 Z" fill="#000000" fill-rule="nonzero" fill-opacity="1" /><path clip-path="url(#clip400)" d="M185.237 958.021 L203.596 958.021 L203.596 962.448 L178.908 962.448 L178.908 958.021 Q181.903 954.922 187.059 949.714 Q192.242 944.479 193.57 942.969 Q196.096 940.13 197.085 938.177 Q198.101 936.198 198.101 934.297 Q198.101 931.198 195.914 929.245 Q193.752 927.292 190.263 927.292 Q187.789 927.292 185.028 928.151 Q182.294 929.011 179.169 930.755 L179.169 925.443 Q182.346 924.167 185.106 923.516 Q187.867 922.865 190.158 922.865 Q196.2 922.865 199.794 925.886 Q203.387 928.906 203.387 933.958 Q203.387 936.354 202.476 938.516 Q201.591 940.651 199.221 943.568 Q198.57 944.323 195.08 947.943 Q191.591 951.536 185.237 958.021 Z" fill="#000000" fill-rule="nonzero" fill-opacity="1" /><path clip-path="url(#clip400)" d="M211.538 945.703 L225.575 945.703 L225.575 949.974 L211.538 949.974 L211.538 945.703 Z" fill="#000000" fill-rule="nonzero" fill-opacity="1" /><path clip-path="url(#clip400)" d="M245.132 927.031 Q241.07 927.031 239.012 931.042 Q236.981 935.026 236.981 943.047 Q236.981 951.042 239.012 955.052 Q241.07 959.036 245.132 959.036 Q249.221 959.036 251.252 955.052 Q253.309 951.042 253.309 943.047 Q253.309 935.026 251.252 931.042 Q249.221 927.031 245.132 927.031 M245.132 922.865 Q251.668 922.865 255.106 928.047 Q258.569 933.203 258.569 943.047 Q258.569 952.865 255.106 958.047 Q251.668 963.203 245.132 963.203 Q238.596 963.203 235.132 958.047 Q231.695 952.865 231.695 943.047 Q231.695 933.203 235.132 928.047 Q238.596 922.865 245.132 922.865 Z" fill="#000000" fill-rule="nonzero" fill-opacity="1" /><path clip-path="url(#clip400)" d="M266.486 923.568 L291.486 923.568 L291.486 925.807 L277.371 962.448 L271.877 962.448 L285.158 927.995 L266.486 927.995 L266.486 923.568 Z" fill="#000000" fill-rule="nonzero" fill-opacity="1" /><path clip-path="url(#clip400)" d="M298.647 945.703 L312.684 945.703 L312.684 949.974 L298.647 949.974 L298.647 945.703 Z" fill="#000000" fill-rule="nonzero" fill-opacity="1" /><path clip-path="url(#clip400)" d="M321.902 958.021 L330.496 958.021 L330.496 928.36 L321.147 930.235 L321.147 925.443 L330.444 923.568 L335.704 923.568 L335.704 958.021 L344.298 958.021 L344.298 962.448 L321.902 962.448 L321.902 958.021 Z" fill="#000000" fill-rule="nonzero" fill-opacity="1" /><path clip-path="url(#clip400)" d="M366.173 943.984 Q362.423 943.984 360.262 945.99 Q358.126 947.995 358.126 951.51 Q358.126 955.026 360.262 957.031 Q362.423 959.036 366.173 959.036 Q369.923 959.036 372.084 957.031 Q374.246 955 374.246 951.51 Q374.246 947.995 372.084 945.99 Q369.949 943.984 366.173 943.984 M360.913 941.745 Q357.527 940.912 355.626 938.594 Q353.751 936.276 353.751 932.943 Q353.751 928.281 357.059 925.573 Q360.392 922.865 366.173 922.865 Q371.98 922.865 375.288 925.573 Q378.595 928.281 378.595 932.943 Q378.595 936.276 376.694 938.594 Q374.819 940.912 371.459 941.745 Q375.262 942.63 377.371 945.208 Q379.506 947.786 379.506 951.51 Q379.506 957.161 376.043 960.182 Q372.605 963.203 366.173 963.203 Q359.741 963.203 356.277 960.182 Q352.84 957.161 352.84 951.51 Q352.84 947.786 354.975 945.208 Q357.111 942.63 360.913 941.745 M358.986 933.438 Q358.986 936.458 360.861 938.151 Q362.762 939.844 366.173 939.844 Q369.558 939.844 371.459 938.151 Q373.387 936.458 373.387 933.438 Q373.387 930.417 371.459 928.724 Q369.558 927.031 366.173 927.031 Q362.762 927.031 360.861 928.724 Q358.986 930.417 358.986 933.438 Z" fill="#000000" fill-rule="nonzero" fill-opacity="1" /><path clip-path="url(#clip400)" d="M423.035 958.021 L441.394 958.021 L441.394 962.448 L416.707 962.448 L416.707 958.021 Q419.702 954.922 424.858 949.714 Q430.04 944.479 431.368 942.969 Q433.894 940.13 434.884 938.177 Q435.9 936.198 435.9 934.297 Q435.9 931.198 433.712 929.245 Q431.551 927.292 428.061 927.292 Q425.587 927.292 422.827 928.151 Q420.092 929.011 416.967 930.755 L416.967 925.443 Q420.144 924.167 422.905 923.516 Q425.665 922.865 427.957 922.865 Q433.999 922.865 437.592 925.886 Q441.186 928.906 441.186 933.958 Q441.186 936.354 440.275 938.516 Q439.389 940.651 437.019 943.568 Q436.368 944.323 432.879 947.943 Q429.389 951.536 423.035 958.021 Z" fill="#000000" fill-rule="nonzero" fill-opacity="1" /><path clip-path="url(#clip400)" d="M463.686 927.031 Q459.623 927.031 457.566 931.042 Q455.535 935.026 455.535 943.047 Q455.535 951.042 457.566 955.052 Q459.623 959.036 463.686 959.036 Q467.774 959.036 469.806 955.052 Q471.863 951.042 471.863 943.047 Q471.863 935.026 469.806 931.042 Q467.774 927.031 463.686 927.031 M463.686 922.865 Q470.222 922.865 473.66 928.047 Q477.123 933.203 477.123 943.047 Q477.123 952.865 473.66 958.047 Q470.222 963.203 463.686 963.203 Q457.149 963.203 453.686 958.047 Q450.248 952.865 450.248 943.047 Q450.248 933.203 453.686 928.047 Q457.149 922.865 463.686 922.865 Z" fill="#000000" fill-rule="nonzero" fill-opacity="1" /><path clip-path="url(#clip400)" d="M490.899 958.021 L509.259 958.021 L509.259 962.448 L484.571 962.448 L484.571 958.021 Q487.566 954.922 492.722 949.714 Q497.904 944.479 499.233 942.969 Q501.759 940.13 502.748 938.177 Q503.764 936.198 503.764 934.297 Q503.764 931.198 501.576 929.245 Q499.415 927.292 495.925 927.292 Q493.451 927.292 490.691 928.151 Q487.957 929.011 484.832 930.755 L484.832 925.443 Q488.009 924.167 490.769 923.516 Q493.529 922.865 495.821 922.865 Q501.863 922.865 505.456 925.886 Q509.05 928.906 509.05 933.958 Q509.05 936.354 508.139 938.516 Q507.253 940.651 504.884 943.568 Q504.233 944.323 500.743 947.943 Q497.253 951.536 490.899 958.021 Z" fill="#000000" fill-rule="nonzero" fill-opacity="1" /><path clip-path="url(#clip400)" d="M524.831 958.021 L543.191 958.021 L543.191 962.448 L518.503 962.448 L518.503 958.021 Q521.498 954.922 526.654 949.714 Q531.837 944.479 533.165 942.969 Q535.691 940.13 536.68 938.177 Q537.696 936.198 537.696 934.297 Q537.696 931.198 535.508 929.245 Q533.347 927.292 529.857 927.292 Q527.383 927.292 524.623 928.151 Q521.889 929.011 518.764 930.755 L518.764 925.443 Q521.941 924.167 524.701 923.516 Q527.462 922.865 529.753 922.865 Q535.795 922.865 539.389 925.886 Q542.982 928.906 542.982 933.958 Q542.982 936.354 542.071 938.516 Q541.185 940.651 538.816 943.568 Q538.165 944.323 534.675 947.943 Q531.186 951.536 524.831 958.021 Z" fill="#000000" fill-rule="nonzero" fill-opacity="1" /><path clip-path="url(#clip400)" d="M551.133 945.703 L565.17 945.703 L565.17 949.974 L551.133 949.974 L551.133 945.703 Z" fill="#000000" fill-rule="nonzero" fill-opacity="1" /><path clip-path="url(#clip400)" d="M584.727 927.031 Q580.664 927.031 578.607 931.042 Q576.576 935.026 576.576 943.047 Q576.576 951.042 578.607 955.052 Q580.664 959.036 584.727 959.036 Q588.815 959.036 590.847 955.052 Q592.904 951.042 592.904 943.047 Q592.904 935.026 590.847 931.042 Q588.815 927.031 584.727 927.031 M584.727 922.865 Q591.263 922.865 594.701 928.047 Q598.164 933.203 598.164 943.047 Q598.164 952.865 594.701 958.047 Q591.263 963.203 584.727 963.203 Q578.19 963.203 574.727 958.047 Q571.289 952.865 571.289 943.047 Q571.289 933.203 574.727 928.047 Q578.19 922.865 584.727 922.865 Z" fill="#000000" fill-rule="nonzero" fill-opacity="1" /><path clip-path="url(#clip400)" d="M606.081 923.568 L631.081 923.568 L631.081 925.807 L616.966 962.448 L611.472 962.448 L624.753 927.995 L606.081 927.995 L606.081 923.568 Z" fill="#000000" fill-rule="nonzero" fill-opacity="1" /><path clip-path="url(#clip400)" d="M638.242 945.703 L652.279 945.703 L652.279 949.974 L638.242 949.974 L638.242 945.703 Z" fill="#000000" fill-rule="nonzero" fill-opacity="1" /><path clip-path="url(#clip400)" d="M665.117 958.021 L683.476 958.021 L683.476 962.448 L658.789 962.448 L658.789 958.021 Q661.784 954.922 666.94 949.714 Q672.122 944.479 673.45 942.969 Q675.976 940.13 676.966 938.177 Q677.982 936.198 677.982 934.297 Q677.982 931.198 675.794 929.245 Q673.633 927.292 670.143 927.292 Q667.669 927.292 664.909 928.151 Q662.174 929.011 659.049 930.755 L659.049 925.443 Q662.226 924.167 664.987 923.516 Q667.747 922.865 670.039 922.865 Q676.081 922.865 679.674 925.886 Q683.268 928.906 683.268 933.958 Q683.268 936.354 682.357 938.516 Q681.471 940.651 679.101 943.568 Q678.45 944.323 674.961 947.943 Q671.471 951.536 665.117 958.021 Z" fill="#000000" fill-rule="nonzero" fill-opacity="1" /><path clip-path="url(#clip400)" d="M705.768 927.031 Q701.705 927.031 699.648 931.042 Q697.617 935.026 697.617 943.047 Q697.617 951.042 699.648 955.052 Q701.705 959.036 705.768 959.036 Q709.856 959.036 711.888 955.052 Q713.945 951.042 713.945 943.047 Q713.945 935.026 711.888 931.042 Q709.856 927.031 705.768 927.031 M705.768 922.865 Q712.304 922.865 715.742 928.047 Q719.205 933.203 719.205 943.047 Q719.205 952.865 715.742 958.047 Q712.304 963.203 705.768 963.203 Q699.231 963.203 695.768 958.047 Q692.33 952.865 692.33 943.047 Q692.33 933.203 695.768 928.047 Q699.231 922.865 705.768 922.865 Z" fill="#000000" fill-rule="nonzero" fill-opacity="1" /><path clip-path="url(#clip400)" d="M763.58 958.021 L781.94 958.021 L781.94 962.448 L757.252 962.448 L757.252 958.021 Q760.247 954.922 765.403 949.714 Q770.586 944.479 771.914 942.969 Q774.44 940.13 775.429 938.177 Q776.445 936.198 776.445 934.297 Q776.445 931.198 774.257 929.245 Q772.096 927.292 768.606 927.292 Q766.132 927.292 763.372 928.151 Q760.638 929.011 757.513 930.755 L757.513 925.443 Q760.69 924.167 763.45 923.516 Q766.211 922.865 768.502 922.865 Q774.544 922.865 778.138 925.886 Q781.731 928.906 781.731 933.958 Q781.731 936.354 780.82 938.516 Q779.934 940.651 777.565 943.568 Q776.914 944.323 773.424 947.943 Q769.935 951.536 763.58 958.021 Z" fill="#000000" fill-rule="nonzero" fill-opacity="1" /><path clip-path="url(#clip400)" d="M804.231 927.031 Q800.169 927.031 798.111 931.042 Q796.08 935.026 796.08 943.047 Q796.08 951.042 798.111 955.052 Q800.169 959.036 804.231 959.036 Q808.32 959.036 810.351 955.052 Q812.408 951.042 812.408 943.047 Q812.408 935.026 810.351 931.042 Q808.32 927.031 804.231 927.031 M804.231 922.865 Q810.768 922.865 814.205 928.047 Q817.669 933.203 817.669 943.047 Q817.669 952.865 814.205 958.047 Q810.768 963.203 804.231 963.203 Q797.695 963.203 794.231 958.047 Q790.794 952.865 790.794 943.047 Q790.794 933.203 794.231 928.047 Q797.695 922.865 804.231 922.865 Z" fill="#000000" fill-rule="nonzero" fill-opacity="1" /><path clip-path="url(#clip400)" d="M831.445 958.021 L849.804 958.021 L849.804 962.448 L825.117 962.448 L825.117 958.021 Q828.111 954.922 833.268 949.714 Q838.45 944.479 839.778 942.969 Q842.304 940.13 843.294 938.177 Q844.309 936.198 844.309 934.297 Q844.309 931.198 842.122 929.245 Q839.96 927.292 836.471 927.292 Q833.997 927.292 831.236 928.151 Q828.502 929.011 825.377 930.755 L825.377 925.443 Q828.554 924.167 831.314 923.516 Q834.075 922.865 836.366 922.865 Q842.408 922.865 846.002 925.886 Q849.596 928.906 849.596 933.958 Q849.596 936.354 848.684 938.516 Q847.799 940.651 845.429 943.568 Q844.778 944.323 841.288 947.943 Q837.799 951.536 831.445 958.021 Z" fill="#000000" fill-rule="nonzero" fill-opacity="1" /><path clip-path="url(#clip400)" d="M865.377 958.021 L883.736 958.021 L883.736 962.448 L859.049 962.448 L859.049 958.021 Q862.043 954.922 867.2 949.714 Q872.382 944.479 873.71 942.969 Q876.236 940.13 877.226 938.177 Q878.241 936.198 878.241 934.297 Q878.241 931.198 876.054 929.245 Q873.892 927.292 870.403 927.292 Q867.929 927.292 865.168 928.151 Q862.434 929.011 859.309 930.755 L859.309 925.443 Q862.486 924.167 865.247 923.516 Q868.007 922.865 870.299 922.865 Q876.34 922.865 879.934 925.886 Q883.528 928.906 883.528 933.958 Q883.528 936.354 882.616 938.516 Q881.731 940.651 879.361 943.568 Q878.71 944.323 875.22 947.943 Q871.731 951.536 865.377 958.021 Z" fill="#000000" fill-rule="nonzero" fill-opacity="1" /><path clip-path="url(#clip400)" d="M891.679 945.703 L905.715 945.703 L905.715 949.974 L891.679 949.974 L891.679 945.703 Z" fill="#000000" fill-rule="nonzero" fill-opacity="1" /><path clip-path="url(#clip400)" d="M925.272 927.031 Q921.21 927.031 919.152 931.042 Q917.121 935.026 917.121 943.047 Q917.121 951.042 919.152 955.052 Q921.21 959.036 925.272 959.036 Q929.361 959.036 931.392 955.052 Q933.449 951.042 933.449 943.047 Q933.449 935.026 931.392 931.042 Q929.361 927.031 925.272 927.031 M925.272 922.865 Q931.809 922.865 935.246 928.047 Q938.71 933.203 938.71 943.047 Q938.71 952.865 935.246 958.047 Q931.809 963.203 925.272 963.203 Q918.736 963.203 915.272 958.047 Q911.835 952.865 911.835 943.047 Q911.835 933.203 915.272 928.047 Q918.736 922.865 925.272 922.865 Z" fill="#000000" fill-rule="nonzero" fill-opacity="1" /><path clip-path="url(#clip400)" d="M946.626 923.568 L971.626 923.568 L971.626 925.807 L957.512 962.448 L952.017 962.448 L965.298 927.995 L946.626 927.995 L946.626 923.568 Z" fill="#000000" fill-rule="nonzero" fill-opacity="1" /><path clip-path="url(#clip400)" d="M978.788 945.703 L992.824 945.703 L992.824 949.974 L978.788 949.974 L978.788 945.703 Z" fill="#000000" fill-rule="nonzero" fill-opacity="1" /><path clip-path="url(#clip400)" d="M1005.66 958.021 L1024.02 958.021 L1024.02 962.448 L999.334 962.448 L999.334 958.021 Q1002.33 954.922 1007.49 949.714 Q1012.67 944.479 1014 942.969 Q1016.52 940.13 1017.51 938.177 Q1018.53 936.198 1018.53 934.297 Q1018.53 931.198 1016.34 929.245 Q1014.18 927.292 1010.69 927.292 Q1008.21 927.292 1005.45 928.151 Q1002.72 929.011 999.595 930.755 L999.595 925.443 Q1002.77 924.167 1005.53 923.516 Q1008.29 922.865 1010.58 922.865 Q1016.63 922.865 1020.22 925.886 Q1023.81 928.906 1023.81 933.958 Q1023.81 936.354 1022.9 938.516 Q1022.02 940.651 1019.65 943.568 Q1019 944.323 1015.51 947.943 Q1012.02 951.536 1005.66 958.021 Z" fill="#000000" fill-rule="nonzero" fill-opacity="1" /><path clip-path="url(#clip400)" d="M1039.59 958.021 L1057.95 958.021 L1057.95 962.448 L1033.27 962.448 L1033.27 958.021 Q1036.26 954.922 1041.42 949.714 Q1046.6 944.479 1047.93 942.969 Q1050.45 940.13 1051.44 938.177 Q1052.46 936.198 1052.46 934.297 Q1052.46 931.198 1050.27 929.245 Q1048.11 927.292 1044.62 927.292 Q1042.15 927.292 1039.39 928.151 Q1036.65 929.011 1033.53 930.755 L1033.53 925.443 Q1036.7 924.167 1039.46 923.516 Q1042.22 922.865 1044.52 922.865 Q1050.56 922.865 1054.15 925.886 Q1057.75 928.906 1057.75 933.958 Q1057.75 936.354 1056.83 938.516 Q1055.95 940.651 1053.58 943.568 Q1052.93 944.323 1049.44 947.943 Q1045.95 951.536 1039.59 958.021 Z" fill="#000000" fill-rule="nonzero" fill-opacity="1" /><path clip-path="url(#clip400)" d="M1102.06 958.021 L1120.41 958.021 L1120.41 962.448 L1095.73 962.448 L1095.73 958.021 Q1098.72 954.922 1103.88 949.714 Q1109.06 944.479 1110.39 942.969 Q1112.91 940.13 1113.9 938.177 Q1114.92 936.198 1114.92 934.297 Q1114.92 931.198 1112.73 929.245 Q1110.57 927.292 1107.08 927.292 Q1104.61 927.292 1101.85 928.151 Q1099.11 929.011 1095.99 930.755 L1095.99 925.443 Q1099.16 924.167 1101.93 923.516 Q1104.69 922.865 1106.98 922.865 Q1113.02 922.865 1116.61 925.886 Q1120.21 928.906 1120.21 933.958 Q1120.21 936.354 1119.29 938.516 Q1118.41 940.651 1116.04 943.568 Q1115.39 944.323 1111.9 947.943 Q1108.41 951.536 1102.06 958.021 Z" fill="#000000" fill-rule="nonzero" fill-opacity="1" /><path clip-path="url(#clip400)" d="M1142.71 927.031 Q1138.64 927.031 1136.59 931.042 Q1134.56 935.026 1134.56 943.047 Q1134.56 951.042 1136.59 955.052 Q1138.64 959.036 1142.71 959.036 Q1146.79 959.036 1148.83 955.052 Q1150.88 951.042 1150.88 943.047 Q1150.88 935.026 1148.83 931.042 Q1146.79 927.031 1142.71 927.031 M1142.71 922.865 Q1149.24 922.865 1152.68 928.047 Q1156.14 933.203 1156.14 943.047 Q1156.14 952.865 1152.68 958.047 Q1149.24 963.203 1142.71 963.203 Q1136.17 963.203 1132.71 958.047 Q1129.27 952.865 1129.27 943.047 Q1129.27 933.203 1132.71 928.047 Q1136.17 922.865 1142.71 922.865 Z" fill="#000000" fill-rule="nonzero" fill-opacity="1" /><path clip-path="url(#clip400)" d="M1169.92 958.021 L1188.28 958.021 L1188.28 962.448 L1163.59 962.448 L1163.59 958.021 Q1166.59 954.922 1171.74 949.714 Q1176.92 944.479 1178.25 942.969 Q1180.78 940.13 1181.77 938.177 Q1182.78 936.198 1182.78 934.297 Q1182.78 931.198 1180.6 929.245 Q1178.44 927.292 1174.95 927.292 Q1172.47 927.292 1169.71 928.151 Q1166.98 929.011 1163.85 930.755 L1163.85 925.443 Q1167.03 924.167 1169.79 923.516 Q1172.55 922.865 1174.84 922.865 Q1180.88 922.865 1184.48 925.886 Q1188.07 928.906 1188.07 933.958 Q1188.07 936.354 1187.16 938.516 Q1186.27 940.651 1183.9 943.568 Q1183.25 944.323 1179.76 947.943 Q1176.27 951.536 1169.92 958.021 Z" fill="#000000" fill-rule="nonzero" fill-opacity="1" /><path clip-path="url(#clip400)" d="M1203.85 958.021 L1222.21 958.021 L1222.21 962.448 L1197.52 962.448 L1197.52 958.021 Q1200.52 954.922 1205.67 949.714 Q1210.86 944.479 1212.19 942.969 Q1214.71 940.13 1215.7 938.177 Q1216.72 936.198 1216.72 934.297 Q1216.72 931.198 1214.53 929.245 Q1212.37 927.292 1208.88 927.292 Q1206.4 927.292 1203.64 928.151 Q1200.91 929.011 1197.78 930.755 L1197.78 925.443 Q1200.96 924.167 1203.72 923.516 Q1206.48 922.865 1208.77 922.865 Q1214.82 922.865 1218.41 925.886 Q1222 928.906 1222 933.958 Q1222 936.354 1221.09 938.516 Q1220.21 940.651 1217.84 943.568 Q1217.19 944.323 1213.7 947.943 Q1210.21 951.536 1203.85 958.021 Z" fill="#000000" fill-rule="nonzero" fill-opacity="1" /><path clip-path="url(#clip400)" d="M1230.15 945.703 L1244.19 945.703 L1244.19 949.974 L1230.15 949.974 L1230.15 945.703 Z" fill="#000000" fill-rule="nonzero" fill-opacity="1" /><path clip-path="url(#clip400)" d="M1263.75 927.031 Q1259.68 927.031 1257.63 931.042 Q1255.6 935.026 1255.6 943.047 Q1255.6 951.042 1257.63 955.052 Q1259.68 959.036 1263.75 959.036 Q1267.84 959.036 1269.87 955.052 Q1271.92 951.042 1271.92 943.047 Q1271.92 935.026 1269.87 931.042 Q1267.84 927.031 1263.75 927.031 M1263.75 922.865 Q1270.28 922.865 1273.72 928.047 Q1277.18 933.203 1277.18 943.047 Q1277.18 952.865 1273.72 958.047 Q1270.28 963.203 1263.75 963.203 Q1257.21 963.203 1253.75 958.047 Q1250.31 952.865 1250.31 943.047 Q1250.31 933.203 1253.75 928.047 Q1257.21 922.865 1263.75 922.865 Z" fill="#000000" fill-rule="nonzero" fill-opacity="1" /><path clip-path="url(#clip400)" d="M1285.1 923.568 L1310.1 923.568 L1310.1 925.807 L1295.99 962.448 L1290.49 962.448 L1303.77 927.995 L1285.1 927.995 L1285.1 923.568 Z" fill="#000000" fill-rule="nonzero" fill-opacity="1" /><path clip-path="url(#clip400)" d="M1317.26 945.703 L1331.3 945.703 L1331.3 949.974 L1317.26 949.974 L1317.26 945.703 Z" fill="#000000" fill-rule="nonzero" fill-opacity="1" /><path clip-path="url(#clip400)" d="M1344.14 958.021 L1362.5 958.021 L1362.5 962.448 L1337.81 962.448 L1337.81 958.021 Q1340.8 954.922 1345.96 949.714 Q1351.14 944.479 1352.47 942.969 Q1355 940.13 1355.99 938.177 Q1357 936.198 1357 934.297 Q1357 931.198 1354.81 929.245 Q1352.65 927.292 1349.16 927.292 Q1346.69 927.292 1343.93 928.151 Q1341.19 929.011 1338.07 930.755 L1338.07 925.443 Q1341.25 924.167 1344.01 923.516 Q1346.77 922.865 1349.06 922.865 Q1355.1 922.865 1358.69 925.886 Q1362.29 928.906 1362.29 933.958 Q1362.29 936.354 1361.38 938.516 Q1360.49 940.651 1358.12 943.568 Q1357.47 944.323 1353.98 947.943 Q1350.49 951.536 1344.14 958.021 Z" fill="#000000" fill-rule="nonzero" fill-opacity="1" /><path clip-path="url(#clip400)" d="M1387.99 928.151 L1374.71 948.906 L1387.99 948.906 L1387.99 928.151 M1386.61 923.568 L1393.23 923.568 L1393.23 948.906 L1398.77 948.906 L1398.77 953.281 L1393.23 953.281 L1393.23 962.448 L1387.99 962.448 L1387.99 953.281 L1370.44 953.281 L1370.44 948.203 L1386.61 923.568 Z" fill="#000000" fill-rule="nonzero" fill-opacity="1" /><polyline clip-path="url(#clip402)" style="stroke:#000000; stroke-linecap:round; stroke-linejoin:round; stroke-width:2; stroke-opacity:0.1; fill:none" points="192.859,896.138 1445.45,896.138 "/>
<polyline clip-path="url(#clip402)" style="stroke:#000000; stroke-linecap:round; stroke-linejoin:round; stroke-width:2; stroke-opacity:0.1; fill:none" points="192.859,764.587 1445.45,764.587 "/>
<polyline clip-path="url(#clip402)" style="stroke:#000000; stroke-linecap:round; stroke-linejoin:round; stroke-width:2; stroke-opacity:0.1; fill:none" points="192.859,633.037 1445.45,633.037 "/>
<polyline clip-path="url(#clip402)" style="stroke:#000000; stroke-linecap:round; stroke-linejoin:round; stroke-width:2; stroke-opacity:0.1; fill:none" points="192.859,501.487 1445.45,501.487 "/>
<polyline clip-path="url(#clip402)" style="stroke:#000000; stroke-linecap:round; stroke-linejoin:round; stroke-width:2; stroke-opacity:0.1; fill:none" points="192.859,369.937 1445.45,369.937 "/>
<polyline clip-path="url(#clip402)" style="stroke:#000000; stroke-linecap:round; stroke-linejoin:round; stroke-width:2; stroke-opacity:0.1; fill:none" points="192.859,238.387 1445.45,238.387 "/>
<polyline clip-path="url(#clip402)" style="stroke:#000000; stroke-linecap:round; stroke-linejoin:round; stroke-width:2; stroke-opacity:0.1; fill:none" points="192.859,106.836 1445.45,106.836 "/>
<polyline clip-path="url(#clip400)" style="stroke:#000000; stroke-linecap:round; stroke-linejoin:round; stroke-width:4; stroke-opacity:1; fill:none" points="192.859,897.848 192.859,47.2441 "/>
<polyline clip-path="url(#clip400)" style="stroke:#000000; stroke-linecap:round; stroke-linejoin:round; stroke-width:4; stroke-opacity:1; fill:none" points="192.859,896.138 206.309,896.138 "/>
<polyline clip-path="url(#clip400)" style="stroke:#000000; stroke-linecap:round; stroke-linejoin:round; stroke-width:4; stroke-opacity:1; fill:none" points="192.859,764.587 206.309,764.587 "/>
<polyline clip-path="url(#clip400)" style="stroke:#000000; stroke-linecap:round; stroke-linejoin:round; stroke-width:4; stroke-opacity:1; fill:none" points="192.859,633.037 206.309,633.037 "/>
<polyline clip-path="url(#clip400)" style="stroke:#000000; stroke-linecap:round; stroke-linejoin:round; stroke-width:4; stroke-opacity:1; fill:none" points="192.859,501.487 206.309,501.487 "/>
<polyline clip-path="url(#clip400)" style="stroke:#000000; stroke-linecap:round; stroke-linejoin:round; stroke-width:4; stroke-opacity:1; fill:none" points="192.859,369.937 206.309,369.937 "/>
<polyline clip-path="url(#clip400)" style="stroke:#000000; stroke-linecap:round; stroke-linejoin:round; stroke-width:4; stroke-opacity:1; fill:none" points="192.859,238.387 206.309,238.387 "/>
<polyline clip-path="url(#clip400)" style="stroke:#000000; stroke-linecap:round; stroke-linejoin:round; stroke-width:4; stroke-opacity:1; fill:none" points="192.859,106.836 206.309,106.836 "/>
<path clip-path="url(#clip400)" d="M106.27 911.151 L114.864 911.151 L114.864 881.489 L105.515 883.364 L105.515 878.573 L114.812 876.698 L120.072 876.698 L120.072 911.151 L128.666 911.151 L128.666 915.578 L106.27 915.578 L106.27 911.151 Z" fill="#000000" fill-rule="nonzero" fill-opacity="1" /><path clip-path="url(#clip400)" d="M139.343 876.698 L159.994 876.698 L159.994 881.125 L144.161 881.125 L144.161 890.656 Q145.307 890.265 146.452 890.083 Q147.598 889.875 148.744 889.875 Q155.254 889.875 159.057 893.442 Q162.859 897.01 162.859 903.104 Q162.859 909.38 158.952 912.869 Q155.046 916.333 147.937 916.333 Q145.489 916.333 142.937 915.916 Q140.411 915.5 137.702 914.666 L137.702 909.38 Q140.046 910.656 142.546 911.281 Q145.046 911.906 147.833 911.906 Q152.338 911.906 154.968 909.536 Q157.598 907.166 157.598 903.104 Q157.598 899.041 154.968 896.672 Q152.338 894.302 147.833 894.302 Q145.723 894.302 143.614 894.771 Q141.531 895.239 139.343 896.229 L139.343 876.698 Z" fill="#000000" fill-rule="nonzero" fill-opacity="1" /><path clip-path="url(#clip400)" d="M108.77 779.6 L127.13 779.6 L127.13 784.027 L102.442 784.027 L102.442 779.6 Q105.437 776.501 110.593 771.293 Q115.775 766.059 117.104 764.548 Q119.63 761.71 120.619 759.757 Q121.635 757.778 121.635 755.877 Q121.635 752.778 119.447 750.825 Q117.286 748.871 113.796 748.871 Q111.322 748.871 108.562 749.731 Q105.828 750.59 102.703 752.335 L102.703 747.022 Q105.88 745.746 108.64 745.095 Q111.401 744.444 113.692 744.444 Q119.734 744.444 123.328 747.465 Q126.921 750.486 126.921 755.538 Q126.921 757.934 126.01 760.095 Q125.124 762.231 122.755 765.147 Q122.104 765.903 118.614 769.522 Q115.124 773.116 108.77 779.6 Z" fill="#000000" fill-rule="nonzero" fill-opacity="1" /><path clip-path="url(#clip400)" d="M149.421 748.611 Q145.359 748.611 143.301 752.621 Q141.27 756.606 141.27 764.627 Q141.27 772.621 143.301 776.632 Q145.359 780.616 149.421 780.616 Q153.51 780.616 155.541 776.632 Q157.598 772.621 157.598 764.627 Q157.598 756.606 155.541 752.621 Q153.51 748.611 149.421 748.611 M149.421 744.444 Q155.958 744.444 159.395 749.627 Q162.859 754.783 162.859 764.627 Q162.859 774.444 159.395 779.626 Q155.958 784.783 149.421 784.783 Q142.885 784.783 139.421 779.626 Q135.984 774.444 135.984 764.627 Q135.984 754.783 139.421 749.627 Q142.885 744.444 149.421 744.444 Z" fill="#000000" fill-rule="nonzero" fill-opacity="1" /><path clip-path="url(#clip400)" d="M109.89 648.05 L128.249 648.05 L128.249 652.477 L103.562 652.477 L103.562 648.05 Q106.557 644.951 111.713 639.743 Q116.895 634.509 118.223 632.998 Q120.749 630.16 121.739 628.207 Q122.755 626.227 122.755 624.326 Q122.755 621.227 120.567 619.274 Q118.406 617.321 114.916 617.321 Q112.442 617.321 109.682 618.181 Q106.947 619.04 103.822 620.785 L103.822 615.472 Q107 614.196 109.76 613.545 Q112.52 612.894 114.812 612.894 Q120.854 612.894 124.447 615.915 Q128.041 618.936 128.041 623.988 Q128.041 626.384 127.13 628.545 Q126.244 630.681 123.874 633.597 Q123.223 634.352 119.734 637.972 Q116.244 641.566 109.89 648.05 Z" fill="#000000" fill-rule="nonzero" fill-opacity="1" /><path clip-path="url(#clip400)" d="M139.343 613.597 L159.994 613.597 L159.994 618.024 L144.161 618.024 L144.161 627.556 Q145.307 627.165 146.452 626.983 Q147.598 626.774 148.744 626.774 Q155.254 626.774 159.057 630.342 Q162.859 633.91 162.859 640.003 Q162.859 646.279 158.952 649.769 Q155.046 653.232 147.937 653.232 Q145.489 653.232 142.937 652.816 Q140.411 652.399 137.702 651.566 L137.702 646.279 Q140.046 647.555 142.546 648.18 Q145.046 648.805 147.833 648.805 Q152.338 648.805 154.968 646.436 Q157.598 644.066 157.598 640.003 Q157.598 635.941 154.968 633.571 Q152.338 631.201 147.833 631.201 Q145.723 631.201 143.614 631.67 Q141.531 632.139 139.343 633.128 L139.343 613.597 Z" fill="#000000" fill-rule="nonzero" fill-opacity="1" /><path clip-path="url(#clip400)" d="M120.177 499.964 Q123.953 500.771 126.062 503.323 Q128.197 505.875 128.197 509.625 Q128.197 515.38 124.239 518.531 Q120.281 521.682 112.989 521.682 Q110.541 521.682 107.937 521.187 Q105.359 520.719 102.598 519.755 L102.598 514.677 Q104.786 515.953 107.39 516.604 Q109.994 517.255 112.833 517.255 Q117.781 517.255 120.359 515.302 Q122.963 513.349 122.963 509.625 Q122.963 506.188 120.541 504.26 Q118.145 502.307 113.848 502.307 L109.317 502.307 L109.317 497.984 L114.057 497.984 Q117.937 497.984 119.994 496.448 Q122.052 494.886 122.052 491.969 Q122.052 488.974 119.916 487.386 Q117.807 485.771 113.848 485.771 Q111.687 485.771 109.213 486.24 Q106.739 486.708 103.77 487.698 L103.77 483.011 Q106.765 482.177 109.369 481.761 Q111.999 481.344 114.317 481.344 Q120.307 481.344 123.796 484.078 Q127.286 486.787 127.286 491.422 Q127.286 494.651 125.437 496.891 Q123.588 499.104 120.177 499.964 Z" fill="#000000" fill-rule="nonzero" fill-opacity="1" /><path clip-path="url(#clip400)" d="M149.421 485.511 Q145.359 485.511 143.301 489.521 Q141.27 493.505 141.27 501.526 Q141.27 509.521 143.301 513.531 Q145.359 517.516 149.421 517.516 Q153.51 517.516 155.541 513.531 Q157.598 509.521 157.598 501.526 Q157.598 493.505 155.541 489.521 Q153.51 485.511 149.421 485.511 M149.421 481.344 Q155.958 481.344 159.395 486.526 Q162.859 491.682 162.859 501.526 Q162.859 511.344 159.395 516.526 Q155.958 521.682 149.421 521.682 Q142.885 521.682 139.421 516.526 Q135.984 511.344 135.984 501.526 Q135.984 491.682 139.421 486.526 Q142.885 481.344 149.421 481.344 Z" fill="#000000" fill-rule="nonzero" fill-opacity="1" /><path clip-path="url(#clip400)" d="M121.296 368.413 Q125.072 369.221 127.182 371.773 Q129.317 374.325 129.317 378.075 Q129.317 383.83 125.359 386.981 Q121.4 390.132 114.109 390.132 Q111.661 390.132 109.057 389.637 Q106.479 389.168 103.718 388.205 L103.718 383.127 Q105.906 384.403 108.51 385.054 Q111.114 385.705 113.953 385.705 Q118.9 385.705 121.479 383.752 Q124.083 381.799 124.083 378.075 Q124.083 374.637 121.661 372.71 Q119.265 370.757 114.968 370.757 L110.437 370.757 L110.437 366.434 L115.177 366.434 Q119.057 366.434 121.114 364.898 Q123.171 363.335 123.171 360.419 Q123.171 357.424 121.036 355.835 Q118.927 354.221 114.968 354.221 Q112.807 354.221 110.333 354.689 Q107.859 355.158 104.89 356.148 L104.89 351.46 Q107.885 350.627 110.489 350.21 Q113.119 349.794 115.437 349.794 Q121.427 349.794 124.916 352.528 Q128.406 355.236 128.406 359.872 Q128.406 363.101 126.557 365.34 Q124.708 367.554 121.296 368.413 Z" fill="#000000" fill-rule="nonzero" fill-opacity="1" /><path clip-path="url(#clip400)" d="M139.343 350.497 L159.994 350.497 L159.994 354.924 L144.161 354.924 L144.161 364.455 Q145.307 364.064 146.452 363.882 Q147.598 363.674 148.744 363.674 Q155.254 363.674 159.057 367.242 Q162.859 370.809 162.859 376.903 Q162.859 383.179 158.952 386.668 Q155.046 390.132 147.937 390.132 Q145.489 390.132 142.937 389.715 Q140.411 389.299 137.702 388.465 L137.702 383.179 Q140.046 384.455 142.546 385.08 Q145.046 385.705 147.833 385.705 Q152.338 385.705 154.968 383.335 Q157.598 380.965 157.598 376.903 Q157.598 372.84 154.968 370.471 Q152.338 368.101 147.833 368.101 Q145.723 368.101 143.614 368.57 Q141.531 369.038 139.343 370.028 L139.343 350.497 Z" fill="#000000" fill-rule="nonzero" fill-opacity="1" /><path clip-path="url(#clip400)" d="M118.692 223.53 L105.411 244.285 L118.692 244.285 L118.692 223.53 M117.312 218.947 L123.926 218.947 L123.926 244.285 L129.473 244.285 L129.473 248.66 L123.926 248.66 L123.926 257.827 L118.692 257.827 L118.692 248.66 L101.14 248.66 L101.14 243.582 L117.312 218.947 Z" fill="#000000" fill-rule="nonzero" fill-opacity="1" /><path clip-path="url(#clip400)" d="M149.421 222.41 Q145.359 222.41 143.301 226.42 Q141.27 230.405 141.27 238.426 Q141.27 246.42 143.301 250.431 Q145.359 254.415 149.421 254.415 Q153.51 254.415 155.541 250.431 Q157.598 246.42 157.598 238.426 Q157.598 230.405 155.541 226.42 Q153.51 222.41 149.421 222.41 M149.421 218.243 Q155.958 218.243 159.395 223.426 Q162.859 228.582 162.859 238.426 Q162.859 248.243 159.395 253.426 Q155.958 258.582 149.421 258.582 Q142.885 258.582 139.421 253.426 Q135.984 248.243 135.984 238.426 Q135.984 228.582 139.421 223.426 Q142.885 218.243 149.421 218.243 Z" fill="#000000" fill-rule="nonzero" fill-opacity="1" /><path clip-path="url(#clip400)" d="M119.812 91.9797 L106.531 112.735 L119.812 112.735 L119.812 91.9797 M118.432 87.3963 L125.046 87.3963 L125.046 112.735 L130.593 112.735 L130.593 117.11 L125.046 117.11 L125.046 126.276 L119.812 126.276 L119.812 117.11 L102.26 117.11 L102.26 112.032 L118.432 87.3963 Z" fill="#000000" fill-rule="nonzero" fill-opacity="1" /><path clip-path="url(#clip400)" d="M139.343 87.3963 L159.994 87.3963 L159.994 91.8234 L144.161 91.8234 L144.161 101.355 Q145.307 100.964 146.452 100.782 Q147.598 100.573 148.744 100.573 Q155.254 100.573 159.057 104.141 Q162.859 107.709 162.859 113.802 Q162.859 120.078 158.952 123.568 Q155.046 127.032 147.937 127.032 Q145.489 127.032 142.937 126.615 Q140.411 126.198 137.702 125.365 L137.702 120.078 Q140.046 121.354 142.546 121.979 Q145.046 122.604 147.833 122.604 Q152.338 122.604 154.968 120.235 Q157.598 117.865 157.598 113.802 Q157.598 109.74 154.968 107.37 Q152.338 105 147.833 105 Q145.723 105 143.614 105.469 Q141.531 105.938 139.343 106.927 L139.343 87.3963 Z" fill="#000000" fill-rule="nonzero" fill-opacity="1" /><path clip-path="url(#clip400)" d="M14.9802 630.097 L14.9802 624.252 L58.1802 624.252 L58.1802 630.097 L14.9802 630.097 Z" fill="#000000" fill-rule="nonzero" fill-opacity="1" /><path clip-path="url(#clip400)" d="M38.6201 585.913 L58.1802 585.913 L58.1802 591.237 L38.7937 591.237 Q34.193 591.237 31.9072 593.031 Q29.6213 594.825 29.6213 598.413 Q29.6213 602.725 32.3701 605.213 Q35.1189 607.702 39.8643 607.702 L58.1802 607.702 L58.1802 613.054 L25.7729 613.054 L25.7729 607.702 L30.8076 607.702 Q27.8852 605.792 26.4384 603.217 Q24.9917 600.612 24.9917 597.227 Q24.9917 591.643 28.4639 588.778 Q31.9072 585.913 38.6201 585.913 Z" fill="#000000" fill-rule="nonzero" fill-opacity="1" /><path clip-path="url(#clip400)" d="M13.1573 558.888 L17.5843 558.888 L17.5843 563.981 Q17.5843 566.845 18.7417 567.974 Q19.8991 569.073 22.9084 569.073 L25.7729 569.073 L25.7729 560.306 L29.9106 560.306 L29.9106 569.073 L58.1802 569.073 L58.1802 574.426 L29.9106 574.426 L29.9106 579.519 L25.7729 579.519 L25.7729 574.426 L23.516 574.426 Q18.1051 574.426 15.6457 571.909 Q13.1573 569.392 13.1573 563.923 L13.1573 558.888 Z" fill="#000000" fill-rule="nonzero" fill-opacity="1" /><path clip-path="url(#clip400)" d="M13.1573 554.432 L13.1573 549.108 L58.1802 549.108 L58.1802 554.432 L13.1573 554.432 Z" fill="#000000" fill-rule="nonzero" fill-opacity="1" /><path clip-path="url(#clip400)" d="M29.5055 525.41 Q29.5055 529.693 32.862 532.181 Q36.1895 534.669 42.0055 534.669 Q47.8214 534.669 51.1779 532.21 Q54.5054 529.722 54.5054 525.41 Q54.5054 521.157 51.1489 518.668 Q47.7925 516.18 42.0055 516.18 Q36.2474 516.18 32.8909 518.668 Q29.5055 521.157 29.5055 525.41 M24.9917 525.41 Q24.9917 518.466 29.5055 514.502 Q34.0194 510.538 42.0055 510.538 Q49.9626 510.538 54.5054 514.502 Q59.0193 518.466 59.0193 525.41 Q59.0193 532.384 54.5054 536.348 Q49.9626 540.283 42.0055 540.283 Q34.0194 540.283 29.5055 536.348 Q24.9917 532.384 24.9917 525.41 Z" fill="#000000" fill-rule="nonzero" fill-opacity="1" /><path clip-path="url(#clip400)" d="M25.7729 504.809 L25.7729 499.484 L51.0621 492.829 L25.7729 486.203 L25.7729 479.924 L51.0621 473.269 L25.7729 466.643 L25.7729 461.319 L58.1802 469.797 L58.1802 476.076 L31.6178 483.049 L58.1802 490.052 L58.1802 496.331 L25.7729 504.809 Z" fill="#000000" fill-rule="nonzero" fill-opacity="1" /><path clip-path="url(#clip400)" d="M13.1573 434.902 L13.1573 422.633 L17.295 422.633 L17.295 429.577 L61.8549 429.577 L61.8549 422.633 L65.9926 422.633 L65.9926 434.902 L13.1573 434.902 Z" fill="#000000" fill-rule="nonzero" fill-opacity="1" /><path clip-path="url(#clip400)" d="M14.9802 411.059 L14.9802 405.214 L53.2612 405.214 L53.2612 384.178 L58.1802 384.178 L58.1802 411.059 L14.9802 411.059 Z" fill="#000000" fill-rule="nonzero" fill-opacity="1" /><path clip-path="url(#clip400)" d="M14.9802 368.814 L14.9802 363.895 L63.6778 378.941 L63.6778 383.86 L14.9802 368.814 Z" fill="#000000" fill-rule="nonzero" fill-opacity="1" /><path clip-path="url(#clip400)" d="M26.7278 337.651 L31.7625 337.651 Q30.6051 339.908 30.0264 342.338 Q29.4477 344.769 29.4477 347.373 Q29.4477 351.337 30.6629 353.334 Q31.8782 355.301 34.3088 355.301 Q36.1606 355.301 37.2312 353.883 Q38.2729 352.466 39.2277 348.183 L39.6328 346.36 Q40.8481 340.689 43.0761 338.316 Q45.2751 335.915 49.2392 335.915 Q53.7531 335.915 56.3862 339.503 Q59.0193 343.062 59.0193 349.312 Q59.0193 351.916 58.4984 354.751 Q58.0065 357.558 56.9938 360.683 L51.4962 360.683 Q53.0297 357.732 53.811 354.867 Q54.5633 352.003 54.5633 349.196 Q54.5633 345.434 53.2901 343.409 Q51.9881 341.383 49.6443 341.383 Q47.4742 341.383 46.3168 342.859 Q45.1594 344.306 44.0888 349.254 L43.6548 351.106 Q42.6131 356.054 40.4719 358.253 Q38.3018 360.452 34.5402 360.452 Q29.9685 360.452 27.4801 357.211 Q24.9917 353.97 24.9917 348.01 Q24.9917 345.058 25.4257 342.454 Q25.8597 339.85 26.7278 337.651 Z" fill="#000000" fill-rule="nonzero" fill-opacity="1" /><path clip-path="url(#clip400)" d="M13.1573 314.995 L65.9926 314.995 L65.9926 327.263 L61.8549 327.263 L61.8549 320.348 L17.295 320.348 L17.295 327.263 L13.1573 327.263 L13.1573 314.995 Z" fill="#000000" fill-rule="nonzero" fill-opacity="1" /><polyline clip-path="url(#clip402)" style="stroke:#023eff; stroke-linecap:round; stroke-linejoin:round; stroke-width:5; stroke-opacity:1; fill:none" points="228.309,698.863 235.385,710.695 242.461,710.695 249.537,710.695 256.613,710.695 263.689,710.695 270.765,429.708 277.841,429.708 284.917,210.132 291.993,245.651 299.069,296.168 306.145,391.183 313.221,391.183 320.297,391.183 327.373,391.328 334.449,391.328 341.525,429.708 348.601,429.708 355.677,265.128 362.753,192.854 369.829,192.854 376.905,346.252 383.981,495.086 391.057,573.978 398.133,676.572 405.209,732.042 412.285,732.042 419.361,732.042 426.437,732.042 433.513,640.542 440.589,424.413 447.665,210.325 454.741,213.299 461.816,254.931 468.892,383.066 475.968,383.066 483.044,383.066 490.12,383.066 497.196,395.57 504.272,395.57 511.348,395.57 518.424,395.57 525.5,265.128 532.576,198.07 539.652,198.07 546.728,350.05 553.804,499.536 560.88,567.938 567.956,676.572 575.032,732.042 582.108,732.042 589.184,732.042 596.26,732.042 603.336,640.542 610.412,424.413 617.488,210.325 624.564,213.299 631.64,254.931 638.716,383.066 645.792,383.066 652.868,383.066 659.944,383.066 667.02,395.57 674.096,395.57 681.172,395.57 688.248,395.57 695.324,265.128 702.4,198.07 709.476,198.07 716.552,350.05 723.628,499.536 730.704,567.938 737.78,676.572 744.856,732.042 751.932,732.042 759.008,732.042 766.084,732.042 773.16,640.542 780.235,424.413 787.311,210.325 794.387,213.299 801.463,254.931 808.539,383.066 815.615,383.066 822.691,383.066 829.767,383.066 836.843,395.57 843.919,395.57 850.995,395.57 858.071,395.57 865.147,265.128 872.223,198.07 879.299,198.07 886.375,350.05 893.451,499.536 900.527,567.938 907.603,676.572 914.679,732.042 921.755,732.042 928.831,732.042 935.907,732.042 942.983,640.542 950.059,424.413 957.135,210.325 964.211,213.299 971.287,254.931 978.363,383.066 985.439,383.066 992.515,383.066 999.591,383.066 1006.67,395.57 1013.74,395.57 1020.82,395.57 1027.89,395.57 1034.97,265.128 1042.05,198.07 1049.12,198.07 1056.2,394.981 1063.27,499.536 1070.35,567.938 1077.43,676.572 1084.5,732.042 1091.58,732.042 1098.65,732.042 1105.73,732.042 1112.81,640.542 1119.88,377.916 1126.96,392.581 1134.03,211.569 1141.11,137.929 1148.19,206.882 1155.26,206.882 1162.34,300.29 1169.41,300.29 1176.49,395.57 1183.57,395.57 1190.64,395.57 1197.72,395.57 1204.79,265.128 1211.87,198.07 1218.95,198.07 1226.02,394.981 1233.1,499.536 1240.17,567.938 1247.25,676.572 1254.33,732.042 1261.4,732.042 1268.48,732.042 1275.55,732.042 1282.63,640.542 1289.71,377.916 1296.78,392.581 1303.86,211.569 1310.93,137.929 1318.01,206.882 1325.09,206.882 1332.16,300.29 1339.24,300.29 1346.31,395.57 1353.39,395.57 1360.47,395.57 1367.54,395.57 1374.62,265.128 1381.69,198.07 1388.77,198.07 1395.85,394.981 1402.92,499.536 1410,567.938 "/>
<polyline clip-path="url(#clip402)" style="stroke:#ff7c00; stroke-linecap:round; stroke-linejoin:round; stroke-width:5; stroke-opacity:1; fill:none" points="228.309,702.014 235.385,729.201 242.461,729.201 249.537,729.201 256.613,729.201 263.689,729.201 270.765,424.172 277.841,416.114 284.917,337.156 291.993,252.626 299.069,252.626 306.145,290.104 313.221,290.104 320.297,337.156 327.373,416.114 334.449,416.114 341.525,416.114 348.601,416.114 355.677,290.104 362.753,205.152 369.829,252.626 376.905,416.114 383.981,461.48 391.057,613.695 398.133,679.704 405.209,739.713 412.285,739.713 419.361,739.713 426.437,739.713 433.513,651.627 440.589,441.363 447.665,295.94 454.741,295.94 461.816,295.94 468.892,475.907 475.968,475.907 483.044,401.863 490.12,401.863 497.196,475.907 504.272,475.907 511.348,475.907 518.424,416.317 525.5,303.346 532.576,207.661 539.652,207.661 546.728,331.686 553.804,522.432 560.88,617.758 567.956,679.704 575.032,739.713 582.108,739.713 589.184,739.713 596.26,739.713 603.336,651.627 610.412,414.758 617.488,295.94 624.564,295.94 631.64,295.94 638.716,351.346 645.792,475.907 652.868,475.907 659.944,401.863 667.02,475.907 674.096,475.907 681.172,475.907 688.248,416.317 695.324,303.346 702.4,207.661 709.476,207.661 716.552,331.686 723.628,456.516 730.704,617.758 737.78,679.704 744.856,739.713 751.932,739.713 759.008,739.713 766.084,739.713 773.16,651.627 780.235,414.758 787.311,295.94 794.387,295.94 801.463,295.94 808.539,351.346 815.615,475.907 822.691,475.907 829.767,475.907 836.843,475.907 843.919,475.907 850.995,416.317 858.071,416.317 865.147,303.346 872.223,207.661 879.299,207.661 886.375,331.686 893.451,522.432 900.527,617.758 907.603,679.704 914.679,739.713 921.755,739.713 928.831,739.713 935.907,739.713 942.983,651.627 950.059,441.363 957.135,295.94 964.211,295.94 971.287,295.94 978.363,351.346 985.439,475.907 992.515,401.863 999.591,401.863 1006.67,475.907 1013.74,475.907 1020.82,475.907 1027.89,416.317 1034.97,303.346 1042.05,207.661 1049.12,207.661 1056.2,374.031 1063.27,522.432 1070.35,617.758 1077.43,679.704 1084.5,739.713 1091.58,739.713 1098.65,739.713 1105.73,739.713 1112.81,651.627 1119.88,561.443 1126.96,383.82 1134.03,203.585 1141.11,203.585 1148.19,203.585 1155.26,203.585 1162.34,284.71 1169.41,284.71 1176.49,475.907 1183.57,475.907 1190.64,416.317 1197.72,416.317 1204.79,303.346 1211.87,207.661 1218.95,207.661 1226.02,386.75 1233.1,522.432 1240.17,617.758 1247.25,679.704 1254.33,739.713 1261.4,739.713 1268.48,739.713 1275.55,739.713 1282.63,651.627 1289.71,561.443 1296.78,475.907 1303.86,203.585 1310.93,203.585 1318.01,203.585 1325.09,284.71 1332.16,203.585 1339.24,284.71 1346.31,416.317 1353.39,416.317 1360.47,475.907 1367.54,374.031 1374.62,303.346 1381.69,207.661 1388.77,207.661 1395.85,386.75 1402.92,456.516 1410,617.758 "/>
<polyline clip-path="url(#clip402)" style="stroke:#1ac938; stroke-linecap:round; stroke-linejoin:round; stroke-width:5; stroke-opacity:1; fill:none" points="228.309,714.872 235.385,746.982 242.461,746.982 249.537,746.982 256.613,746.982 263.689,638.945 270.765,423.345 277.841,423.345 284.917,289.735 291.993,289.735 299.069,289.735 306.145,289.735 313.221,289.735 320.297,498.147 327.373,498.147 334.449,423.345 341.525,498.147 348.601,423.345 355.677,289.735 362.753,210.264 369.829,289.735 376.905,423.345 383.981,498.147 391.057,638.945 398.133,745.362 405.209,745.362 412.285,745.362 419.361,745.362 426.437,745.362 433.513,638.945 440.589,473.448 447.665,300.164 454.741,300.164 461.816,300.164 468.892,473.448 475.968,473.448 483.044,398.148 490.12,398.148 497.196,473.448 504.272,638.945 511.348,473.448 518.424,398.148 525.5,398.148 532.576,300.164 539.652,300.164 546.728,398.148 553.804,473.448 560.88,638.945 567.956,745.362 575.032,745.362 582.108,745.362 589.184,745.362 596.26,745.362 603.336,638.945 610.412,398.148 617.488,217.23 624.564,300.164 631.64,398.148 638.716,398.148 645.792,473.448 652.868,473.448 659.944,398.148 667.02,473.448 674.096,638.945 681.172,638.945 688.248,398.148 695.324,300.164 702.4,217.23 709.476,217.23 716.552,300.164 723.628,398.148 730.704,638.945 737.78,745.362 744.856,745.362 751.932,745.362 759.008,745.362 766.084,745.362 773.16,638.945 780.235,398.148 787.311,300.164 794.387,300.164 801.463,398.148 808.539,398.148 815.615,473.448 822.691,473.448 829.767,473.448 836.843,473.448 843.919,473.448 850.995,398.148 858.071,398.148 865.147,300.164 872.223,217.23 879.299,300.164 886.375,300.164 893.451,473.448 900.527,638.945 907.603,745.362 914.679,745.362 921.755,745.362 928.831,745.362 935.907,745.362 942.983,638.945 950.059,473.448 957.135,300.164 964.211,300.164 971.287,398.148 978.363,398.148 985.439,473.448 992.515,398.148 999.591,398.148 1006.67,473.448 1013.74,638.945 1020.82,473.448 1027.89,398.148 1034.97,300.164 1042.05,217.23 1049.12,217.23 1056.2,473.448 1063.27,638.945 1070.35,638.945 1077.43,745.362 1084.5,745.362 1091.58,745.362 1098.65,745.362 1105.73,745.362 1112.81,638.945 1119.88,473.448 1126.96,398.148 1134.03,300.164 1141.11,217.23 1148.19,217.23 1155.26,217.23 1162.34,300.164 1169.41,398.148 1176.49,473.448 1183.57,473.448 1190.64,300.164 1197.72,300.164 1204.79,300.164 1211.87,300.164 1218.95,300.164 1226.02,300.164 1233.1,638.945 1240.17,638.945 1247.25,745.362 1254.33,745.362 1261.4,745.362 1268.48,745.362 1275.55,745.362 1282.63,638.945 1289.71,638.945 1296.78,473.448 1303.86,217.23 1310.93,217.23 1318.01,217.23 1325.09,300.164 1332.16,300.164 1339.24,300.164 1346.31,398.148 1353.39,398.148 1360.47,473.448 1367.54,473.448 1374.62,300.164 1381.69,217.23 1388.77,217.23 1395.85,300.164 1402.92,398.148 1410,638.945 "/>
<polyline clip-path="url(#clip402)" style="stroke:#e8000b; stroke-linecap:round; stroke-linejoin:round; stroke-width:5; stroke-opacity:1; fill:none" points="228.309,753.208 235.385,872.831 242.461,872.831 249.537,733.207 256.613,733.207 263.689,683.534 270.765,278.037 277.841,278.037 284.917,234.475 291.993,234.475 299.069,234.475 306.145,234.475 313.221,234.475 320.297,502.094 327.373,502.094 334.449,532.007 341.525,502.094 348.601,346.784 355.677,346.784 362.753,234.475 369.829,234.475 376.905,346.784 383.981,502.094 391.057,683.534 398.133,872.831 405.209,733.207 412.285,733.207 419.361,733.207 426.437,733.207 433.513,644.377 440.589,470.332 447.665,267.77 454.741,267.77 461.816,267.77 468.892,470.332 475.968,644.377 483.044,267.77 490.12,267.77 497.196,470.332 504.272,644.377 511.348,470.332 518.424,415.151 525.5,262.282 532.576,262.282 539.652,262.282 546.728,470.332 553.804,470.332 560.88,644.377 567.956,872.831 575.032,872.831 582.108,733.207 589.184,872.831 596.26,872.831 603.336,644.377 610.412,267.77 617.488,267.77 624.564,267.77 631.64,267.77 638.716,267.77 645.792,470.332 652.868,470.332 659.944,470.332 667.02,470.332 674.096,644.377 681.172,644.377 688.248,415.151 695.324,262.282 702.4,262.282 709.476,262.282 716.552,262.282 723.628,262.282 730.704,644.377 737.78,872.831 744.856,872.831 751.932,872.831 759.008,872.831 766.084,872.831 773.16,644.377 780.235,267.77 787.311,267.77 794.387,267.77 801.463,415.151 808.539,415.151 815.615,470.332 822.691,470.332 829.767,470.332 836.843,470.332 843.919,470.332 850.995,470.332 858.071,415.151 865.147,262.282 872.223,262.282 879.299,262.282 886.375,262.282 893.451,470.332 900.527,644.377 907.603,872.831 914.679,872.831 921.755,872.831 928.831,872.831 935.907,872.831 942.983,644.377 950.059,470.332 957.135,415.151 964.211,415.151 971.287,415.151 978.363,415.151 985.439,470.332 992.515,415.151 999.591,415.151 1006.67,470.332 1013.74,644.377 1020.82,470.332 1027.89,415.151 1034.97,262.282 1042.05,262.282 1049.12,262.282 1056.2,470.332 1063.27,644.377 1070.35,644.377 1077.43,872.831 1084.5,872.831 1091.58,872.831 1098.65,872.831 1105.73,872.831 1112.81,644.377 1119.88,470.332 1126.96,267.77 1134.03,415.151 1141.11,415.151 1148.19,415.151 1155.26,415.151 1162.34,415.151 1169.41,415.151 1176.49,470.332 1183.57,470.332 1190.64,267.77 1197.72,415.151 1204.79,262.282 1211.87,262.282 1218.95,262.282 1226.02,262.282 1233.1,644.377 1240.17,644.377 1247.25,872.831 1254.33,872.831 1261.4,733.207 1268.48,733.207 1275.55,733.207 1282.63,644.377 1289.71,644.377 1296.78,470.332 1303.86,415.151 1310.93,267.77 1318.01,267.77 1325.09,267.77 1332.16,267.77 1339.24,267.77 1346.31,267.77 1353.39,267.77 1360.47,470.332 1367.54,470.332 1374.62,262.282 1381.69,262.282 1388.77,262.282 1395.85,262.282 1402.92,262.282 1410,644.377 "/>
<polyline clip-path="url(#clip402)" style="stroke:#000000; stroke-linecap:round; stroke-linejoin:round; stroke-width:6; stroke-opacity:1; fill:none" points="228.309,755.905 235.385,786.425 242.461,682.237 249.537,677.501 256.613,810.367 263.689,734.594 270.765,472.546 277.841,237.071 284.917,107.363 291.993,197.606 299.069,329.156 306.145,562.263 313.221,381.513 320.297,338.365 327.373,461.496 334.449,472.809 341.525,463.074 348.601,411.77 355.677,319.685 362.753,129.463 369.829,111.835 376.905,286.271 383.981,407.034 391.057,649.349 398.133,766.166 405.209,793.792 412.285,852.2 419.361,869.301 426.437,763.009 433.513,606.727 440.589,403.087 447.665,183.662 454.741,204.71 461.816,321 468.892,409.928 475.968,333.366 483.044,417.558 490.12,427.03 497.196,519.641 504.272,549.371 511.348,421.768 518.424,365.201 525.5,310.213 532.576,272.853 539.652,146.038 546.728,313.107 553.804,490.174 560.88,599.36 567.956,774.585 575.032,815.892 582.108,800.895 589.184,873.774 596.26,844.044 603.336,728.28 610.412,436.238 617.488,257.067 624.564,244.964 631.64,216.023 638.716,359.676 645.792,398.878 652.868,464.916 659.944,434.923 667.02,481.755 674.096,346.521 681.172,361.518 688.248,382.829 695.324,222.074 702.4,118.676 709.476,116.571 716.552,337.839 723.628,467.284 730.704,610.148 737.78,699.075 744.856,719.86 751.932,766.429 759.008,682.237 766.084,810.63 773.16,673.029 780.235,465.442 787.311,197.869 794.387,294.69 801.463,269.169 808.539,413.085 815.615,479.387 822.691,464.916 829.767,450.709 836.843,542.268 843.919,523.061 850.995,372.305 858.071,330.472 865.147,232.335 872.223,143.67 879.299,71.3178 886.375,306.266 893.451,465.179 900.527,500.435 907.603,644.877 914.679,804.842 921.755,740.908 928.831,663.294 935.907,852.2 942.983,663.294 950.059,478.334 957.135,124.464 964.211,180.768 971.287,270.222 978.363,331.524 985.439,354.414 992.515,373.357 999.591,398.352 1006.67,466.232 1013.74,502.803 1020.82,435.449 1027.89,340.47 1034.97,220.496 1042.05,111.046 1049.12,156.825 1056.2,273.379 1063.27,429.924 1070.35,674.607 1077.43,686.71 1084.5,796.686 1091.58,772.217 1098.65,704.601 1105.73,658.032 1112.81,667.767 1119.88,557.791 1126.96,245.227 1134.03,178.4 1141.11,166.034 1148.19,213.918 1155.26,353.888 1162.34,326.788 1169.41,266.012 1176.49,415.716 1183.57,443.079 1190.64,416.769 1197.72,410.454 1204.79,330.472 1211.87,214.971 1218.95,263.118 1226.02,403.614 1233.1,418.084 1240.17,573.577 1247.25,709.863 1254.33,766.692 1261.4,691.182 1268.48,691.446 1275.55,612.779 1282.63,742.75 1289.71,615.936 1296.78,419.4 1303.86,192.87 1310.93,139.724 1318.01,203.394 1325.09,156.036 1332.16,305.74 1339.24,350.467 1346.31,350.994 1353.39,550.95 1360.47,406.508 1367.54,399.667 1374.62,352.309 1381.69,270.222 1388.77,194.449 1395.85,163.666 1402.92,427.03 1410,613.831 "/>
<path clip-path="url(#clip400)" d="M1504.11 425.518 L1952.76 425.518 L1952.76 75.5976 L1504.11 75.5976  Z" fill="#ffffff" fill-rule="evenodd" fill-opacity="1"/>
<polyline clip-path="url(#clip400)" style="stroke:#000000; stroke-linecap:round; stroke-linejoin:round; stroke-width:4; stroke-opacity:1; fill:none" points="1504.11,425.518 1952.76,425.518 1952.76,75.5976 1504.11,75.5976 1504.11,425.518 "/>
<polyline clip-path="url(#clip400)" style="stroke:#023eff; stroke-linecap:round; stroke-linejoin:round; stroke-width:5.625; stroke-opacity:1; fill:none" points="1523.67,133.918 1640.99,133.918 "/>
<path clip-path="url(#clip400)" d="M1665.36 148.983 L1665.36 164.451 L1660.55 164.451 L1660.55 124.191 L1665.36 124.191 L1665.36 128.618 Q1666.87 126.014 1669.17 124.764 Q1671.48 123.488 1674.69 123.488 Q1680 123.488 1683.31 127.707 Q1686.64 131.925 1686.64 138.8 Q1686.64 145.675 1683.31 149.894 Q1680 154.113 1674.69 154.113 Q1671.48 154.113 1669.17 152.863 Q1666.87 151.587 1665.36 148.983 M1681.67 138.8 Q1681.67 133.514 1679.48 130.519 Q1677.32 127.498 1673.52 127.498 Q1669.71 127.498 1667.53 130.519 Q1665.36 133.514 1665.36 138.8 Q1665.36 144.087 1667.53 147.108 Q1669.71 150.102 1673.52 150.102 Q1677.32 150.102 1679.48 147.108 Q1681.67 144.087 1681.67 138.8 Z" fill="#000000" fill-rule="nonzero" fill-opacity="1" /><path clip-path="url(#clip400)" d="M1711.48 128.67 Q1710.68 128.201 1709.71 127.993 Q1708.78 127.759 1707.63 127.759 Q1703.57 127.759 1701.38 130.415 Q1699.22 133.045 1699.22 137.993 L1699.22 153.358 L1694.4 153.358 L1694.4 124.191 L1699.22 124.191 L1699.22 128.722 Q1700.73 126.066 1703.15 124.79 Q1705.57 123.488 1709.04 123.488 Q1709.53 123.488 1710.13 123.566 Q1710.73 123.618 1711.46 123.748 L1711.48 128.67 Z" fill="#000000" fill-rule="nonzero" fill-opacity="1" /><path clip-path="url(#clip400)" d="M1740.29 137.576 L1740.29 139.92 L1718.25 139.92 Q1718.57 144.868 1721.22 147.472 Q1723.91 150.05 1728.67 150.05 Q1731.43 150.05 1734.01 149.373 Q1736.61 148.696 1739.17 147.342 L1739.17 151.873 Q1736.59 152.967 1733.88 153.54 Q1731.17 154.113 1728.38 154.113 Q1721.41 154.113 1717.32 150.05 Q1713.25 145.988 1713.25 139.061 Q1713.25 131.899 1717.11 127.707 Q1720.99 123.488 1727.55 123.488 Q1733.44 123.488 1736.85 127.29 Q1740.29 131.066 1740.29 137.576 M1735.49 136.17 Q1735.44 132.238 1733.28 129.894 Q1731.15 127.55 1727.6 127.55 Q1723.59 127.55 1721.17 129.816 Q1718.78 132.082 1718.41 136.196 L1735.49 136.17 Z" fill="#000000" fill-rule="nonzero" fill-opacity="1" /><path clip-path="url(#clip400)" d="M1767.34 128.618 L1767.34 112.837 L1772.13 112.837 L1772.13 153.358 L1767.34 153.358 L1767.34 148.983 Q1765.83 151.587 1763.51 152.863 Q1761.22 154.113 1757.99 154.113 Q1752.71 154.113 1749.37 149.894 Q1746.07 145.675 1746.07 138.8 Q1746.07 131.925 1749.37 127.707 Q1752.71 123.488 1757.99 123.488 Q1761.22 123.488 1763.51 124.764 Q1765.83 126.014 1767.34 128.618 M1751.01 138.8 Q1751.01 144.087 1753.18 147.108 Q1755.36 150.102 1759.17 150.102 Q1762.97 150.102 1765.16 147.108 Q1767.34 144.087 1767.34 138.8 Q1767.34 133.514 1765.16 130.519 Q1762.97 127.498 1759.17 127.498 Q1755.36 127.498 1753.18 130.519 Q1751.01 133.514 1751.01 138.8 Z" fill="#000000" fill-rule="nonzero" fill-opacity="1" /><path clip-path="url(#clip400)" d="M1782 124.191 L1786.8 124.191 L1786.8 153.358 L1782 153.358 L1782 124.191 M1782 112.837 L1786.8 112.837 L1786.8 118.905 L1782 118.905 L1782 112.837 Z" fill="#000000" fill-rule="nonzero" fill-opacity="1" /><path clip-path="url(#clip400)" d="M1817.81 125.311 L1817.81 129.79 Q1815.78 128.67 1813.72 128.123 Q1811.69 127.55 1809.61 127.55 Q1804.95 127.55 1802.37 130.519 Q1799.79 133.462 1799.79 138.8 Q1799.79 144.139 1802.37 147.108 Q1804.95 150.05 1809.61 150.05 Q1811.69 150.05 1813.72 149.503 Q1815.78 148.93 1817.81 147.811 L1817.81 152.238 Q1815.81 153.175 1813.64 153.644 Q1811.51 154.113 1809.09 154.113 Q1802.5 154.113 1798.62 149.972 Q1794.74 145.832 1794.74 138.8 Q1794.74 131.665 1798.64 127.576 Q1802.58 123.488 1809.4 123.488 Q1811.61 123.488 1813.72 123.957 Q1815.83 124.399 1817.81 125.311 Z" fill="#000000" fill-rule="nonzero" fill-opacity="1" /><path clip-path="url(#clip400)" d="M1830.88 115.91 L1830.88 124.191 L1840.75 124.191 L1840.75 127.915 L1830.88 127.915 L1830.88 143.748 Q1830.88 147.316 1831.85 148.332 Q1832.84 149.347 1835.83 149.347 L1840.75 149.347 L1840.75 153.358 L1835.83 153.358 Q1830.29 153.358 1828.18 151.3 Q1826.07 149.217 1826.07 143.748 L1826.07 127.915 L1822.55 127.915 L1822.55 124.191 L1826.07 124.191 L1826.07 115.91 L1830.88 115.91 Z" fill="#000000" fill-rule="nonzero" fill-opacity="1" /><path clip-path="url(#clip400)" d="M1869.22 162.212 L1869.22 165.936 L1841.51 165.936 L1841.51 162.212 L1869.22 162.212 Z" fill="#000000" fill-rule="nonzero" fill-opacity="1" /><path clip-path="url(#clip400)" d="M1874.45 114.478 L1895.1 114.478 L1895.1 118.905 L1879.27 118.905 L1879.27 128.436 Q1880.42 128.045 1881.56 127.863 Q1882.71 127.655 1883.85 127.655 Q1890.36 127.655 1894.17 131.222 Q1897.97 134.79 1897.97 140.884 Q1897.97 147.16 1894.06 150.649 Q1890.15 154.113 1883.05 154.113 Q1880.6 154.113 1878.05 153.696 Q1875.52 153.279 1872.81 152.446 L1872.81 147.16 Q1875.15 148.436 1877.65 149.061 Q1880.15 149.686 1882.94 149.686 Q1887.45 149.686 1890.08 147.316 Q1892.71 144.946 1892.71 140.884 Q1892.71 136.821 1890.08 134.451 Q1887.45 132.082 1882.94 132.082 Q1880.83 132.082 1878.72 132.55 Q1876.64 133.019 1874.45 134.009 L1874.45 114.478 Z" fill="#000000" fill-rule="nonzero" fill-opacity="1" /><path clip-path="url(#clip400)" d="M1912.86 148.93 L1931.22 148.93 L1931.22 153.358 L1906.53 153.358 L1906.53 148.93 Q1909.53 145.832 1914.69 140.623 Q1919.87 135.389 1921.2 133.878 Q1923.72 131.04 1924.71 129.087 Q1925.73 127.108 1925.73 125.207 Q1925.73 122.108 1923.54 120.155 Q1921.38 118.201 1917.89 118.201 Q1915.42 118.201 1912.65 119.061 Q1909.92 119.92 1906.8 121.665 L1906.8 116.353 Q1909.97 115.077 1912.73 114.425 Q1915.49 113.774 1917.78 113.774 Q1923.83 113.774 1927.42 116.795 Q1931.01 119.816 1931.01 124.868 Q1931.01 127.264 1930.1 129.425 Q1929.22 131.561 1926.85 134.477 Q1926.2 135.233 1922.71 138.852 Q1919.22 142.446 1912.86 148.93 Z" fill="#000000" fill-rule="nonzero" fill-opacity="1" /><polyline clip-path="url(#clip400)" style="stroke:#ff7c00; stroke-linecap:round; stroke-linejoin:round; stroke-width:5.625; stroke-opacity:1; fill:none" points="1523.67,192.238 1640.99,192.238 "/>
<path clip-path="url(#clip400)" d="M1665.36 207.303 L1665.36 222.771 L1660.55 222.771 L1660.55 182.511 L1665.36 182.511 L1665.36 186.938 Q1666.87 184.334 1669.17 183.084 Q1671.48 181.808 1674.69 181.808 Q1680 181.808 1683.31 186.027 Q1686.64 190.245 1686.64 197.12 Q1686.64 203.995 1683.31 208.214 Q1680 212.433 1674.69 212.433 Q1671.48 212.433 1669.17 211.183 Q1666.87 209.907 1665.36 207.303 M1681.67 197.12 Q1681.67 191.834 1679.48 188.839 Q1677.32 185.818 1673.52 185.818 Q1669.71 185.818 1667.53 188.839 Q1665.36 191.834 1665.36 197.12 Q1665.36 202.407 1667.53 205.428 Q1669.71 208.422 1673.52 208.422 Q1677.32 208.422 1679.48 205.428 Q1681.67 202.407 1681.67 197.12 Z" fill="#000000" fill-rule="nonzero" fill-opacity="1" /><path clip-path="url(#clip400)" d="M1711.48 186.99 Q1710.68 186.521 1709.71 186.313 Q1708.78 186.079 1707.63 186.079 Q1703.57 186.079 1701.38 188.735 Q1699.22 191.365 1699.22 196.313 L1699.22 211.678 L1694.4 211.678 L1694.4 182.511 L1699.22 182.511 L1699.22 187.042 Q1700.73 184.386 1703.15 183.11 Q1705.57 181.808 1709.04 181.808 Q1709.53 181.808 1710.13 181.886 Q1710.73 181.938 1711.46 182.068 L1711.48 186.99 Z" fill="#000000" fill-rule="nonzero" fill-opacity="1" /><path clip-path="url(#clip400)" d="M1740.29 195.896 L1740.29 198.24 L1718.25 198.24 Q1718.57 203.188 1721.22 205.792 Q1723.91 208.37 1728.67 208.37 Q1731.43 208.37 1734.01 207.693 Q1736.61 207.016 1739.17 205.662 L1739.17 210.193 Q1736.59 211.287 1733.88 211.86 Q1731.17 212.433 1728.38 212.433 Q1721.41 212.433 1717.32 208.37 Q1713.25 204.308 1713.25 197.381 Q1713.25 190.219 1717.11 186.027 Q1720.99 181.808 1727.55 181.808 Q1733.44 181.808 1736.85 185.61 Q1740.29 189.386 1740.29 195.896 M1735.49 194.49 Q1735.44 190.558 1733.28 188.214 Q1731.15 185.87 1727.6 185.87 Q1723.59 185.87 1721.17 188.136 Q1718.78 190.402 1718.41 194.516 L1735.49 194.49 Z" fill="#000000" fill-rule="nonzero" fill-opacity="1" /><path clip-path="url(#clip400)" d="M1767.34 186.938 L1767.34 171.157 L1772.13 171.157 L1772.13 211.678 L1767.34 211.678 L1767.34 207.303 Q1765.83 209.907 1763.51 211.183 Q1761.22 212.433 1757.99 212.433 Q1752.71 212.433 1749.37 208.214 Q1746.07 203.995 1746.07 197.12 Q1746.07 190.245 1749.37 186.027 Q1752.71 181.808 1757.99 181.808 Q1761.22 181.808 1763.51 183.084 Q1765.83 184.334 1767.34 186.938 M1751.01 197.12 Q1751.01 202.407 1753.18 205.428 Q1755.36 208.422 1759.17 208.422 Q1762.97 208.422 1765.16 205.428 Q1767.34 202.407 1767.34 197.12 Q1767.34 191.834 1765.16 188.839 Q1762.97 185.818 1759.17 185.818 Q1755.36 185.818 1753.18 188.839 Q1751.01 191.834 1751.01 197.12 Z" fill="#000000" fill-rule="nonzero" fill-opacity="1" /><path clip-path="url(#clip400)" d="M1782 182.511 L1786.8 182.511 L1786.8 211.678 L1782 211.678 L1782 182.511 M1782 171.157 L1786.8 171.157 L1786.8 177.225 L1782 177.225 L1782 171.157 Z" fill="#000000" fill-rule="nonzero" fill-opacity="1" /><path clip-path="url(#clip400)" d="M1817.81 183.631 L1817.81 188.11 Q1815.78 186.99 1813.72 186.443 Q1811.69 185.87 1809.61 185.87 Q1804.95 185.87 1802.37 188.839 Q1799.79 191.782 1799.79 197.12 Q1799.79 202.459 1802.37 205.428 Q1804.95 208.37 1809.61 208.37 Q1811.69 208.37 1813.72 207.823 Q1815.78 207.25 1817.81 206.131 L1817.81 210.558 Q1815.81 211.495 1813.64 211.964 Q1811.51 212.433 1809.09 212.433 Q1802.5 212.433 1798.62 208.292 Q1794.74 204.152 1794.74 197.12 Q1794.74 189.985 1798.64 185.896 Q1802.58 181.808 1809.4 181.808 Q1811.61 181.808 1813.72 182.277 Q1815.83 182.719 1817.81 183.631 Z" fill="#000000" fill-rule="nonzero" fill-opacity="1" /><path clip-path="url(#clip400)" d="M1830.88 174.23 L1830.88 182.511 L1840.75 182.511 L1840.75 186.235 L1830.88 186.235 L1830.88 202.068 Q1830.88 205.636 1831.85 206.652 Q1832.84 207.667 1835.83 207.667 L1840.75 207.667 L1840.75 211.678 L1835.83 211.678 Q1830.29 211.678 1828.18 209.62 Q1826.07 207.537 1826.07 202.068 L1826.07 186.235 L1822.55 186.235 L1822.55 182.511 L1826.07 182.511 L1826.07 174.23 L1830.88 174.23 Z" fill="#000000" fill-rule="nonzero" fill-opacity="1" /><path clip-path="url(#clip400)" d="M1869.22 220.532 L1869.22 224.256 L1841.51 224.256 L1841.51 220.532 L1869.22 220.532 Z" fill="#000000" fill-rule="nonzero" fill-opacity="1" /><path clip-path="url(#clip400)" d="M1878.93 207.25 L1897.29 207.25 L1897.29 211.678 L1872.6 211.678 L1872.6 207.25 Q1875.6 204.152 1880.75 198.943 Q1885.94 193.709 1887.26 192.198 Q1889.79 189.36 1890.78 187.407 Q1891.8 185.428 1891.8 183.527 Q1891.8 180.428 1889.61 178.475 Q1887.45 176.521 1883.96 176.521 Q1881.48 176.521 1878.72 177.381 Q1875.99 178.24 1872.86 179.985 L1872.86 174.673 Q1876.04 173.397 1878.8 172.745 Q1881.56 172.094 1883.85 172.094 Q1889.89 172.094 1893.49 175.115 Q1897.08 178.136 1897.08 183.188 Q1897.08 185.584 1896.17 187.745 Q1895.29 189.881 1892.92 192.797 Q1892.26 193.553 1888.77 197.172 Q1885.29 200.766 1878.93 207.25 Z" fill="#000000" fill-rule="nonzero" fill-opacity="1" /><path clip-path="url(#clip400)" d="M1920.23 190.141 Q1916.69 190.141 1914.61 192.563 Q1912.55 194.985 1912.55 199.204 Q1912.55 203.396 1914.61 205.844 Q1916.69 208.266 1920.23 208.266 Q1923.77 208.266 1925.83 205.844 Q1927.92 203.396 1927.92 199.204 Q1927.92 194.985 1925.83 192.563 Q1923.77 190.141 1920.23 190.141 M1930.68 173.657 L1930.68 178.449 Q1928.7 177.511 1926.67 177.016 Q1924.66 176.521 1922.68 176.521 Q1917.47 176.521 1914.71 180.037 Q1911.98 183.553 1911.59 190.662 Q1913.12 188.396 1915.44 187.199 Q1917.76 185.975 1920.55 185.975 Q1926.4 185.975 1929.79 189.542 Q1933.2 193.084 1933.2 199.204 Q1933.2 205.193 1929.66 208.813 Q1926.12 212.433 1920.23 212.433 Q1913.49 212.433 1909.92 207.277 Q1906.35 202.094 1906.35 192.277 Q1906.35 183.058 1910.73 177.589 Q1915.1 172.094 1922.47 172.094 Q1924.45 172.094 1926.46 172.485 Q1928.49 172.876 1930.68 173.657 Z" fill="#000000" fill-rule="nonzero" fill-opacity="1" /><polyline clip-path="url(#clip400)" style="stroke:#1ac938; stroke-linecap:round; stroke-linejoin:round; stroke-width:5.625; stroke-opacity:1; fill:none" points="1523.67,250.558 1640.99,250.558 "/>
<path clip-path="url(#clip400)" d="M1665.36 265.623 L1665.36 281.091 L1660.55 281.091 L1660.55 240.831 L1665.36 240.831 L1665.36 245.258 Q1666.87 242.654 1669.17 241.404 Q1671.48 240.128 1674.69 240.128 Q1680 240.128 1683.31 244.347 Q1686.64 248.565 1686.64 255.44 Q1686.64 262.315 1683.31 266.534 Q1680 270.753 1674.69 270.753 Q1671.48 270.753 1669.17 269.503 Q1666.87 268.227 1665.36 265.623 M1681.67 255.44 Q1681.67 250.154 1679.48 247.159 Q1677.32 244.138 1673.52 244.138 Q1669.71 244.138 1667.53 247.159 Q1665.36 250.154 1665.36 255.44 Q1665.36 260.727 1667.53 263.748 Q1669.71 266.742 1673.52 266.742 Q1677.32 266.742 1679.48 263.748 Q1681.67 260.727 1681.67 255.44 Z" fill="#000000" fill-rule="nonzero" fill-opacity="1" /><path clip-path="url(#clip400)" d="M1711.48 245.31 Q1710.68 244.841 1709.71 244.633 Q1708.78 244.399 1707.63 244.399 Q1703.57 244.399 1701.38 247.055 Q1699.22 249.685 1699.22 254.633 L1699.22 269.998 L1694.4 269.998 L1694.4 240.831 L1699.22 240.831 L1699.22 245.362 Q1700.73 242.706 1703.15 241.43 Q1705.57 240.128 1709.04 240.128 Q1709.53 240.128 1710.13 240.206 Q1710.73 240.258 1711.46 240.388 L1711.48 245.31 Z" fill="#000000" fill-rule="nonzero" fill-opacity="1" /><path clip-path="url(#clip400)" d="M1740.29 254.216 L1740.29 256.56 L1718.25 256.56 Q1718.57 261.508 1721.22 264.112 Q1723.91 266.69 1728.67 266.69 Q1731.43 266.69 1734.01 266.013 Q1736.61 265.336 1739.17 263.982 L1739.17 268.513 Q1736.59 269.607 1733.88 270.18 Q1731.17 270.753 1728.38 270.753 Q1721.41 270.753 1717.32 266.69 Q1713.25 262.628 1713.25 255.701 Q1713.25 248.539 1717.11 244.347 Q1720.99 240.128 1727.55 240.128 Q1733.44 240.128 1736.85 243.93 Q1740.29 247.706 1740.29 254.216 M1735.49 252.81 Q1735.44 248.878 1733.28 246.534 Q1731.15 244.19 1727.6 244.19 Q1723.59 244.19 1721.17 246.456 Q1718.78 248.722 1718.41 252.836 L1735.49 252.81 Z" fill="#000000" fill-rule="nonzero" fill-opacity="1" /><path clip-path="url(#clip400)" d="M1767.34 245.258 L1767.34 229.477 L1772.13 229.477 L1772.13 269.998 L1767.34 269.998 L1767.34 265.623 Q1765.83 268.227 1763.51 269.503 Q1761.22 270.753 1757.99 270.753 Q1752.71 270.753 1749.37 266.534 Q1746.07 262.315 1746.07 255.44 Q1746.07 248.565 1749.37 244.347 Q1752.71 240.128 1757.99 240.128 Q1761.22 240.128 1763.51 241.404 Q1765.83 242.654 1767.34 245.258 M1751.01 255.44 Q1751.01 260.727 1753.18 263.748 Q1755.36 266.742 1759.17 266.742 Q1762.97 266.742 1765.16 263.748 Q1767.34 260.727 1767.34 255.44 Q1767.34 250.154 1765.16 247.159 Q1762.97 244.138 1759.17 244.138 Q1755.36 244.138 1753.18 247.159 Q1751.01 250.154 1751.01 255.44 Z" fill="#000000" fill-rule="nonzero" fill-opacity="1" /><path clip-path="url(#clip400)" d="M1782 240.831 L1786.8 240.831 L1786.8 269.998 L1782 269.998 L1782 240.831 M1782 229.477 L1786.8 229.477 L1786.8 235.545 L1782 235.545 L1782 229.477 Z" fill="#000000" fill-rule="nonzero" fill-opacity="1" /><path clip-path="url(#clip400)" d="M1817.81 241.951 L1817.81 246.43 Q1815.78 245.31 1813.72 244.763 Q1811.69 244.19 1809.61 244.19 Q1804.95 244.19 1802.37 247.159 Q1799.79 250.102 1799.79 255.44 Q1799.79 260.779 1802.37 263.748 Q1804.95 266.69 1809.61 266.69 Q1811.69 266.69 1813.72 266.143 Q1815.78 265.57 1817.81 264.451 L1817.81 268.878 Q1815.81 269.815 1813.64 270.284 Q1811.51 270.753 1809.09 270.753 Q1802.5 270.753 1798.62 266.612 Q1794.74 262.472 1794.74 255.44 Q1794.74 248.305 1798.64 244.216 Q1802.58 240.128 1809.4 240.128 Q1811.61 240.128 1813.72 240.597 Q1815.83 241.039 1817.81 241.951 Z" fill="#000000" fill-rule="nonzero" fill-opacity="1" /><path clip-path="url(#clip400)" d="M1830.88 232.55 L1830.88 240.831 L1840.75 240.831 L1840.75 244.555 L1830.88 244.555 L1830.88 260.388 Q1830.88 263.956 1831.85 264.972 Q1832.84 265.987 1835.83 265.987 L1840.75 265.987 L1840.75 269.998 L1835.83 269.998 Q1830.29 269.998 1828.18 267.94 Q1826.07 265.857 1826.07 260.388 L1826.07 244.555 L1822.55 244.555 L1822.55 240.831 L1826.07 240.831 L1826.07 232.55 L1830.88 232.55 Z" fill="#000000" fill-rule="nonzero" fill-opacity="1" /><path clip-path="url(#clip400)" d="M1869.22 278.852 L1869.22 282.576 L1841.51 282.576 L1841.51 278.852 L1869.22 278.852 Z" fill="#000000" fill-rule="nonzero" fill-opacity="1" /><path clip-path="url(#clip400)" d="M1888.85 235.701 L1875.57 256.456 L1888.85 256.456 L1888.85 235.701 M1887.47 231.118 L1894.09 231.118 L1894.09 256.456 L1899.63 256.456 L1899.63 260.831 L1894.09 260.831 L1894.09 269.998 L1888.85 269.998 L1888.85 260.831 L1871.3 260.831 L1871.3 255.753 L1887.47 231.118 Z" fill="#000000" fill-rule="nonzero" fill-opacity="1" /><polyline clip-path="url(#clip400)" style="stroke:#e8000b; stroke-linecap:round; stroke-linejoin:round; stroke-width:5.625; stroke-opacity:1; fill:none" points="1523.67,308.878 1640.99,308.878 "/>
<path clip-path="url(#clip400)" d="M1665.36 323.943 L1665.36 339.411 L1660.55 339.411 L1660.55 299.151 L1665.36 299.151 L1665.36 303.578 Q1666.87 300.974 1669.17 299.724 Q1671.48 298.448 1674.69 298.448 Q1680 298.448 1683.31 302.667 Q1686.64 306.885 1686.64 313.76 Q1686.64 320.635 1683.31 324.854 Q1680 329.073 1674.69 329.073 Q1671.48 329.073 1669.17 327.823 Q1666.87 326.547 1665.36 323.943 M1681.67 313.76 Q1681.67 308.474 1679.48 305.479 Q1677.32 302.458 1673.52 302.458 Q1669.71 302.458 1667.53 305.479 Q1665.36 308.474 1665.36 313.76 Q1665.36 319.047 1667.53 322.068 Q1669.71 325.062 1673.52 325.062 Q1677.32 325.062 1679.48 322.068 Q1681.67 319.047 1681.67 313.76 Z" fill="#000000" fill-rule="nonzero" fill-opacity="1" /><path clip-path="url(#clip400)" d="M1711.48 303.63 Q1710.68 303.161 1709.71 302.953 Q1708.78 302.719 1707.63 302.719 Q1703.57 302.719 1701.38 305.375 Q1699.22 308.005 1699.22 312.953 L1699.22 328.318 L1694.4 328.318 L1694.4 299.151 L1699.22 299.151 L1699.22 303.682 Q1700.73 301.026 1703.15 299.75 Q1705.57 298.448 1709.04 298.448 Q1709.53 298.448 1710.13 298.526 Q1710.73 298.578 1711.46 298.708 L1711.48 303.63 Z" fill="#000000" fill-rule="nonzero" fill-opacity="1" /><path clip-path="url(#clip400)" d="M1740.29 312.536 L1740.29 314.88 L1718.25 314.88 Q1718.57 319.828 1721.22 322.432 Q1723.91 325.01 1728.67 325.01 Q1731.43 325.01 1734.01 324.333 Q1736.61 323.656 1739.17 322.302 L1739.17 326.833 Q1736.59 327.927 1733.88 328.5 Q1731.17 329.073 1728.38 329.073 Q1721.41 329.073 1717.32 325.01 Q1713.25 320.948 1713.25 314.021 Q1713.25 306.859 1717.11 302.667 Q1720.99 298.448 1727.55 298.448 Q1733.44 298.448 1736.85 302.25 Q1740.29 306.026 1740.29 312.536 M1735.49 311.13 Q1735.44 307.198 1733.28 304.854 Q1731.15 302.51 1727.6 302.51 Q1723.59 302.51 1721.17 304.776 Q1718.78 307.042 1718.41 311.156 L1735.49 311.13 Z" fill="#000000" fill-rule="nonzero" fill-opacity="1" /><path clip-path="url(#clip400)" d="M1767.34 303.578 L1767.34 287.797 L1772.13 287.797 L1772.13 328.318 L1767.34 328.318 L1767.34 323.943 Q1765.83 326.547 1763.51 327.823 Q1761.22 329.073 1757.99 329.073 Q1752.71 329.073 1749.37 324.854 Q1746.07 320.635 1746.07 313.76 Q1746.07 306.885 1749.37 302.667 Q1752.71 298.448 1757.99 298.448 Q1761.22 298.448 1763.51 299.724 Q1765.83 300.974 1767.34 303.578 M1751.01 313.76 Q1751.01 319.047 1753.18 322.068 Q1755.36 325.062 1759.17 325.062 Q1762.97 325.062 1765.16 322.068 Q1767.34 319.047 1767.34 313.76 Q1767.34 308.474 1765.16 305.479 Q1762.97 302.458 1759.17 302.458 Q1755.36 302.458 1753.18 305.479 Q1751.01 308.474 1751.01 313.76 Z" fill="#000000" fill-rule="nonzero" fill-opacity="1" /><path clip-path="url(#clip400)" d="M1782 299.151 L1786.8 299.151 L1786.8 328.318 L1782 328.318 L1782 299.151 M1782 287.797 L1786.8 287.797 L1786.8 293.865 L1782 293.865 L1782 287.797 Z" fill="#000000" fill-rule="nonzero" fill-opacity="1" /><path clip-path="url(#clip400)" d="M1817.81 300.271 L1817.81 304.75 Q1815.78 303.63 1813.72 303.083 Q1811.69 302.51 1809.61 302.51 Q1804.95 302.51 1802.37 305.479 Q1799.79 308.422 1799.79 313.76 Q1799.79 319.099 1802.37 322.068 Q1804.95 325.01 1809.61 325.01 Q1811.69 325.01 1813.72 324.463 Q1815.78 323.89 1817.81 322.771 L1817.81 327.198 Q1815.81 328.135 1813.64 328.604 Q1811.51 329.073 1809.09 329.073 Q1802.5 329.073 1798.62 324.932 Q1794.74 320.792 1794.74 313.76 Q1794.74 306.625 1798.64 302.536 Q1802.58 298.448 1809.4 298.448 Q1811.61 298.448 1813.72 298.917 Q1815.83 299.359 1817.81 300.271 Z" fill="#000000" fill-rule="nonzero" fill-opacity="1" /><path clip-path="url(#clip400)" d="M1830.88 290.87 L1830.88 299.151 L1840.75 299.151 L1840.75 302.875 L1830.88 302.875 L1830.88 318.708 Q1830.88 322.276 1831.85 323.292 Q1832.84 324.307 1835.83 324.307 L1840.75 324.307 L1840.75 328.318 L1835.83 328.318 Q1830.29 328.318 1828.18 326.26 Q1826.07 324.177 1826.07 318.708 L1826.07 302.875 L1822.55 302.875 L1822.55 299.151 L1826.07 299.151 L1826.07 290.87 L1830.88 290.87 Z" fill="#000000" fill-rule="nonzero" fill-opacity="1" /><path clip-path="url(#clip400)" d="M1869.22 337.172 L1869.22 340.896 L1841.51 340.896 L1841.51 337.172 L1869.22 337.172 Z" fill="#000000" fill-rule="nonzero" fill-opacity="1" /><path clip-path="url(#clip400)" d="M1875.31 323.89 L1883.9 323.89 L1883.9 294.229 L1874.56 296.104 L1874.56 291.313 L1883.85 289.438 L1889.11 289.438 L1889.11 323.89 L1897.71 323.89 L1897.71 328.318 L1875.31 328.318 L1875.31 323.89 Z" fill="#000000" fill-rule="nonzero" fill-opacity="1" /><polyline clip-path="url(#clip400)" style="stroke:#000000; stroke-linecap:round; stroke-linejoin:round; stroke-width:6.75; stroke-opacity:1; fill:none" points="1523.67,367.198 1640.99,367.198 "/>
<path clip-path="url(#clip400)" d="M1675.62 371.976 Q1669.82 371.976 1667.58 373.304 Q1665.34 374.632 1665.34 377.836 Q1665.34 380.388 1667.01 381.898 Q1668.7 383.382 1671.59 383.382 Q1675.57 383.382 1677.97 380.57 Q1680.39 377.731 1680.39 373.044 L1680.39 371.976 L1675.62 371.976 M1685.18 369.997 L1685.18 386.638 L1680.39 386.638 L1680.39 382.21 Q1678.75 384.867 1676.3 386.143 Q1673.85 387.393 1670.31 387.393 Q1665.83 387.393 1663.18 384.893 Q1660.55 382.367 1660.55 378.148 Q1660.55 373.226 1663.83 370.726 Q1667.14 368.226 1673.67 368.226 L1680.39 368.226 L1680.39 367.757 Q1680.39 364.45 1678.2 362.653 Q1676.04 360.83 1672.11 360.83 Q1669.61 360.83 1667.24 361.429 Q1664.87 362.028 1662.68 363.226 L1662.68 358.799 Q1665.31 357.784 1667.79 357.289 Q1670.26 356.768 1672.6 356.768 Q1678.93 356.768 1682.06 360.049 Q1685.18 363.33 1685.18 369.997 Z" fill="#000000" fill-rule="nonzero" fill-opacity="1" /><path clip-path="url(#clip400)" d="M1716.04 358.591 L1716.04 363.07 Q1714.01 361.95 1711.95 361.403 Q1709.92 360.83 1707.84 360.83 Q1703.18 360.83 1700.6 363.799 Q1698.02 366.742 1698.02 372.08 Q1698.02 377.419 1700.6 380.388 Q1703.18 383.33 1707.84 383.33 Q1709.92 383.33 1711.95 382.783 Q1714.01 382.21 1716.04 381.091 L1716.04 385.518 Q1714.04 386.455 1711.87 386.924 Q1709.74 387.393 1707.32 387.393 Q1700.73 387.393 1696.85 383.252 Q1692.97 379.112 1692.97 372.08 Q1692.97 364.945 1696.87 360.856 Q1700.81 356.768 1707.63 356.768 Q1709.84 356.768 1711.95 357.237 Q1714.06 357.679 1716.04 358.591 Z" fill="#000000" fill-rule="nonzero" fill-opacity="1" /><path clip-path="url(#clip400)" d="M1729.11 349.19 L1729.11 357.471 L1738.98 357.471 L1738.98 361.195 L1729.11 361.195 L1729.11 377.028 Q1729.11 380.596 1730.08 381.612 Q1731.07 382.627 1734.06 382.627 L1738.98 382.627 L1738.98 386.638 L1734.06 386.638 Q1728.52 386.638 1726.41 384.58 Q1724.3 382.497 1724.3 377.028 L1724.3 361.195 L1720.78 361.195 L1720.78 357.471 L1724.3 357.471 L1724.3 349.19 L1729.11 349.19 Z" fill="#000000" fill-rule="nonzero" fill-opacity="1" /><path clip-path="url(#clip400)" d="M1744.79 375.127 L1744.79 357.471 L1749.58 357.471 L1749.58 374.945 Q1749.58 379.086 1751.2 381.169 Q1752.81 383.226 1756.04 383.226 Q1759.92 383.226 1762.16 380.752 Q1764.43 378.278 1764.43 374.007 L1764.43 357.471 L1769.22 357.471 L1769.22 386.638 L1764.43 386.638 L1764.43 382.158 Q1762.68 384.815 1760.36 386.117 Q1758.07 387.393 1755.03 387.393 Q1750 387.393 1747.4 384.268 Q1744.79 381.143 1744.79 375.127 M1756.85 356.768 L1756.85 356.768 Z" fill="#000000" fill-rule="nonzero" fill-opacity="1" /><path clip-path="url(#clip400)" d="M1792.34 371.976 Q1786.54 371.976 1784.3 373.304 Q1782.06 374.632 1782.06 377.836 Q1782.06 380.388 1783.72 381.898 Q1785.42 383.382 1788.31 383.382 Q1792.29 383.382 1794.69 380.57 Q1797.11 377.731 1797.11 373.044 L1797.11 371.976 L1792.34 371.976 M1801.9 369.997 L1801.9 386.638 L1797.11 386.638 L1797.11 382.21 Q1795.47 384.867 1793.02 386.143 Q1790.57 387.393 1787.03 387.393 Q1782.55 387.393 1779.9 384.893 Q1777.26 382.367 1777.26 378.148 Q1777.26 373.226 1780.55 370.726 Q1783.85 368.226 1790.39 368.226 L1797.11 368.226 L1797.11 367.757 Q1797.11 364.45 1794.92 362.653 Q1792.76 360.83 1788.83 360.83 Q1786.33 360.83 1783.96 361.429 Q1781.59 362.028 1779.4 363.226 L1779.4 358.799 Q1782.03 357.784 1784.5 357.289 Q1786.98 356.768 1789.32 356.768 Q1795.65 356.768 1798.78 360.049 Q1801.9 363.33 1801.9 369.997 Z" fill="#000000" fill-rule="nonzero" fill-opacity="1" /><path clip-path="url(#clip400)" d="M1811.77 346.117 L1816.56 346.117 L1816.56 386.638 L1811.77 386.638 L1811.77 346.117 Z" fill="#000000" fill-rule="nonzero" fill-opacity="1" /></svg>
