<?xml version="1.0" encoding="UTF-8" standalone="no"?>
<!DOCTYPE svg PUBLIC "-//W3C//DTD SVG 1.1//EN"
 "http://www.w3.org/Graphics/SVG/1.1/DTD/svg11.dtd">
<!-- Generated by graphviz version 2.50.0 (20211204.2007)
 -->
<!-- Pages: 1 -->
<svg width="614pt" height="588pt"
 viewBox="0.00 0.00 614.00 588.00" xmlns="http://www.w3.org/2000/svg" xmlns:xlink="http://www.w3.org/1999/xlink">
<g id="graph0" class="graph" transform="scale(1 1) rotate(0) translate(4 584)">
<polygon fill="white" stroke="transparent" points="-4,4 -4,-584 610,-584 610,4 -4,4"/>
<!-- 1 -->
<g id="node1" class="node">
<title>1</title>
<text text-anchor="start" x="218" y="-561.8" font-family="Arial" font-weight="bold" font-size="14.00"> </text>
<path fill="#ebebeb" stroke="transparent" d="M178,-489C178,-489 262,-489 262,-489 268,-489 274,-495 274,-501 274,-501 274,-541 274,-541 274,-547 268,-553 262,-553 262,-553 178,-553 178,-553 172,-553 166,-547 166,-541 166,-541 166,-501 166,-501 166,-495 172,-489 178,-489"/>
<text text-anchor="start" x="167" y="-550.4" font-family="Arial" font-size="2.00"> </text>
<text text-anchor="start" x="167" y="-544.4" font-family="Arial" font-size="7.00"> &#160;1</text>
<text text-anchor="start" x="181" y="-527.8" font-family="Arial" font-weight="bold" font-size="14.00">Mean: 8.234</text>
<text text-anchor="start" x="196.5" y="-510.8" font-family="Arial" font-weight="bold" font-size="14.00">n = 672</text>
<text text-anchor="start" x="218.5" y="-492.8" font-family="Arial" font-size="9.00"> </text>
<path fill="none" stroke="#333333" d="M178,-489C178,-489 262,-489 262,-489 268,-489 274,-495 274,-501 274,-501 274,-541 274,-541 274,-547 268,-553 262,-553 262,-553 178,-553 178,-553 172,-553 166,-547 166,-541 166,-541 166,-501 166,-501 166,-495 172,-489 178,-489"/>
<text text-anchor="start" x="205.5" y="-474.8" font-family="Arial" font-weight="bold" font-size="14.00">time</text>
</g>
<!-- 2 -->
<g id="node2" class="node">
<title>2</title>
<text text-anchor="start" x="120.5" y="-407.8" font-family="Arial" font-weight="bold" font-size="14.00"> &lt; 5.5</text>
<path fill="#f8766d" fill-opacity="0.874510" stroke="transparent" d="M93,-335C93,-335 183,-335 183,-335 189,-335 195,-341 195,-347 195,-347 195,-387 195,-387 195,-393 189,-399 183,-399 183,-399 93,-399 93,-399 87,-399 81,-393 81,-387 81,-387 81,-347 81,-347 81,-341 87,-335 93,-335"/>
<text text-anchor="start" x="82" y="-396.4" font-family="Arial" font-size="2.00"> </text>
<text text-anchor="start" x="82" y="-390.4" font-family="Arial" font-size="7.00"> &#160;2</text>
<text text-anchor="start" x="96" y="-373.8" font-family="Arial" font-weight="bold" font-size="14.00">Predict 6.224</text>
<text text-anchor="start" x="114.5" y="-356.8" font-family="Arial" font-weight="bold" font-size="14.00">n = 168</text>
<text text-anchor="start" x="136.5" y="-338.8" font-family="Arial" font-size="9.00"> </text>
<path fill="none" stroke="#333333" d="M93,-335C93,-335 183,-335 183,-335 189,-335 195,-341 195,-347 195,-347 195,-387 195,-387 195,-393 189,-399 183,-399 183,-399 93,-399 93,-399 87,-399 81,-393 81,-387 81,-387 81,-347 81,-347 81,-341 87,-335 93,-335"/>
<text text-anchor="start" x="136" y="-320.8" font-family="Arial" font-weight="bold" font-size="14.00"> </text>
</g>
<!-- 1&#45;&gt;2 -->
<g id="edge1" class="edge">
<title>1&#45;&gt;2</title>
<path fill="none" stroke="#888888" d="M188.53,-461.67C183.82,-452.94 178.94,-443.88 174.14,-434.99"/>
<polygon fill="#888888" stroke="#888888" points="177.21,-433.32 169.38,-426.18 171.05,-436.64 177.21,-433.32"/>
</g>
<!-- 3 -->
<g id="node3" class="node">
<title>3</title>
<text text-anchor="start" x="286" y="-407.8" font-family="Arial" font-weight="bold" font-size="14.00"> ≥ 5.5</text>
<text text-anchor="start" x="235" y="-363.3" font-family="Arial" font-size="14.00"> &#160;&#160;</text>
<path fill="#ebebeb" stroke="transparent" d="M261,-335C261,-335 345,-335 345,-335 351,-335 357,-341 357,-347 357,-347 357,-387 357,-387 357,-393 351,-399 345,-399 345,-399 261,-399 261,-399 255,-399 249,-393 249,-387 249,-387 249,-347 249,-347 249,-341 255,-335 261,-335"/>
<text text-anchor="start" x="250" y="-396.4" font-family="Arial" font-size="2.00"> </text>
<text text-anchor="start" x="250" y="-390.4" font-family="Arial" font-size="7.00"> &#160;3</text>
<text text-anchor="start" x="264" y="-373.8" font-family="Arial" font-weight="bold" font-size="14.00">Mean: 8.904</text>
<text text-anchor="start" x="279.5" y="-356.8" font-family="Arial" font-weight="bold" font-size="14.00">n = 504</text>
<text text-anchor="start" x="301.5" y="-338.8" font-family="Arial" font-size="9.00"> </text>
<path fill="none" stroke="#333333" d="M261,-335C261,-335 345,-335 345,-335 351,-335 357,-341 357,-347 357,-347 357,-387 357,-387 357,-393 351,-399 345,-399 345,-399 261,-399 261,-399 255,-399 249,-393 249,-387 249,-387 249,-347 249,-347 249,-341 255,-335 261,-335"/>
<text text-anchor="start" x="359" y="-363.3" font-family="Arial" font-size="14.00"> &#160;&#160;</text>
<text text-anchor="start" x="250" y="-320.8" font-family="Arial" font-weight="bold" font-size="14.00">prev_168_inflow</text>
</g>
<!-- 1&#45;&gt;3 -->
<g id="edge2" class="edge">
<title>1&#45;&gt;3</title>
<path fill="none" stroke="#888888" d="M251.85,-461.67C256.62,-452.94 261.56,-443.88 266.42,-434.99"/>
<polygon fill="#888888" stroke="#888888" points="269.51,-436.63 271.23,-426.18 263.37,-433.28 269.51,-436.63"/>
</g>
<!-- 4 -->
<g id="node4" class="node">
<title>4</title>
<text text-anchor="start" x="200" y="-253.8" font-family="Arial" font-weight="bold" font-size="14.00"> &lt; 9.415</text>
<path fill="#ebebeb" stroke="transparent" d="M183,-181C183,-181 267,-181 267,-181 273,-181 279,-187 279,-193 279,-193 279,-233 279,-233 279,-239 273,-245 267,-245 267,-245 183,-245 183,-245 177,-245 171,-239 171,-233 171,-233 171,-193 171,-193 171,-187 177,-181 183,-181"/>
<text text-anchor="start" x="172" y="-242.4" font-family="Arial" font-size="2.00"> </text>
<text text-anchor="start" x="172" y="-236.4" font-family="Arial" font-size="7.00"> &#160;4</text>
<text text-anchor="start" x="186" y="-219.8" font-family="Arial" font-weight="bold" font-size="14.00">Mean: 8.312</text>
<text text-anchor="start" x="201.5" y="-202.8" font-family="Arial" font-weight="bold" font-size="14.00">n = 305</text>
<text text-anchor="start" x="223.5" y="-184.8" font-family="Arial" font-size="9.00"> </text>
<path fill="none" stroke="#333333" d="M183,-181C183,-181 267,-181 267,-181 273,-181 279,-187 279,-193 279,-193 279,-233 279,-233 279,-239 273,-245 267,-245 267,-245 183,-245 183,-245 177,-245 171,-239 171,-233 171,-233 171,-193 171,-193 171,-187 177,-181 183,-181"/>
<text text-anchor="start" x="210.5" y="-166.8" font-family="Arial" font-weight="bold" font-size="14.00">time</text>
</g>
<!-- 3&#45;&gt;4 -->
<g id="edge3" class="edge">
<title>3&#45;&gt;4</title>
<path fill="none" stroke="#888888" d="M273.07,-307.67C268.63,-299.03 264.04,-290.07 259.52,-281.27"/>
<polygon fill="#888888" stroke="#888888" points="262.53,-279.48 254.85,-272.18 256.31,-282.67 262.53,-279.48"/>
</g>
<!-- 7 -->
<g id="node5" class="node">
<title>7</title>
<text text-anchor="start" x="356.5" y="-253.8" font-family="Arial" font-weight="bold" font-size="14.00"> ≥ 9.415</text>
<path fill="#ebebeb" stroke="transparent" d="M339,-181C339,-181 423,-181 423,-181 429,-181 435,-187 435,-193 435,-193 435,-233 435,-233 435,-239 429,-245 423,-245 423,-245 339,-245 339,-245 333,-245 327,-239 327,-233 327,-233 327,-193 327,-193 327,-187 333,-181 339,-181"/>
<text text-anchor="start" x="328" y="-242.4" font-family="Arial" font-size="2.00"> </text>
<text text-anchor="start" x="328" y="-236.4" font-family="Arial" font-size="7.00"> &#160;7</text>
<text text-anchor="start" x="342" y="-219.8" font-family="Arial" font-weight="bold" font-size="14.00">Mean: 9.812</text>
<text text-anchor="start" x="357.5" y="-202.8" font-family="Arial" font-weight="bold" font-size="14.00">n = 199</text>
<text text-anchor="start" x="379.5" y="-184.8" font-family="Arial" font-size="9.00"> </text>
<path fill="none" stroke="#333333" d="M339,-181C339,-181 423,-181 423,-181 429,-181 435,-187 435,-193 435,-193 435,-233 435,-233 435,-239 429,-245 423,-245 423,-245 339,-245 339,-245 333,-245 327,-239 327,-233 327,-233 327,-193 327,-193 327,-187 333,-181 339,-181"/>
<text text-anchor="start" x="366.5" y="-166.8" font-family="Arial" font-weight="bold" font-size="14.00">time</text>
</g>
<!-- 3&#45;&gt;7 -->
<g id="edge4" class="edge">
<title>3&#45;&gt;7</title>
<path fill="none" stroke="#888888" d="M332.93,-307.67C337.37,-299.03 341.96,-290.07 346.48,-281.27"/>
<polygon fill="#888888" stroke="#888888" points="349.69,-282.67 351.15,-272.18 343.47,-279.48 349.69,-282.67"/>
</g>
<!-- 5 -->
<g id="node6" class="node">
<title>5</title>
<text text-anchor="start" x="47.5" y="-99.8" font-family="Arial" font-weight="bold" font-size="14.00"> &lt; 21.5</text>
<path fill="#f8766d" fill-opacity="0.635294" stroke="transparent" d="M24,-27C24,-27 114,-27 114,-27 120,-27 126,-33 126,-39 126,-39 126,-79 126,-79 126,-85 120,-91 114,-91 114,-91 24,-91 24,-91 18,-91 12,-85 12,-79 12,-79 12,-39 12,-39 12,-33 18,-27 24,-27"/>
<text text-anchor="start" x="13" y="-88.4" font-family="Arial" font-size="2.00"> </text>
<text text-anchor="start" x="13" y="-82.4" font-family="Arial" font-size="7.00"> &#160;5</text>
<text text-anchor="start" x="27" y="-65.8" font-family="Arial" font-weight="bold" font-size="14.00">Predict 8.528</text>
<text text-anchor="start" x="45.5" y="-48.8" font-family="Arial" font-weight="bold" font-size="14.00">n = 249</text>
<text text-anchor="start" x="67.5" y="-30.8" font-family="Arial" font-size="9.00"> </text>
<path fill="none" stroke="#333333" d="M24,-27C24,-27 114,-27 114,-27 120,-27 126,-33 126,-39 126,-39 126,-79 126,-79 126,-85 120,-91 114,-91 114,-91 24,-91 24,-91 18,-91 12,-85 12,-79 12,-79 12,-39 12,-39 12,-33 18,-27 24,-27"/>
<text text-anchor="start" x="67" y="-12.8" font-family="Arial" font-weight="bold" font-size="14.00"> </text>
</g>
<!-- 4&#45;&gt;5 -->
<g id="edge5" class="edge">
<title>4&#45;&gt;5</title>
<path fill="none" stroke="#888888" d="M165.13,-153.67C155.62,-144.39 145.72,-134.75 136.05,-125.33"/>
<polygon fill="#888888" stroke="#888888" points="138.31,-122.65 128.71,-118.18 133.43,-127.66 138.31,-122.65"/>
</g>
<!-- 6 -->
<g id="node7" class="node">
<title>6</title>
<text text-anchor="start" x="204" y="-99.8" font-family="Arial" font-weight="bold" font-size="14.00"> ≥ 21.5</text>
<path fill="#f8766d" fill-opacity="0.756863" stroke="transparent" d="M180,-27C180,-27 270,-27 270,-27 276,-27 282,-33 282,-39 282,-39 282,-79 282,-79 282,-85 276,-91 270,-91 270,-91 180,-91 180,-91 174,-91 168,-85 168,-79 168,-79 168,-39 168,-39 168,-33 174,-27 180,-27"/>
<text text-anchor="start" x="169" y="-88.4" font-family="Arial" font-size="2.00"> </text>
<text text-anchor="start" x="169" y="-82.4" font-family="Arial" font-size="7.00"> &#160;6</text>
<text text-anchor="start" x="183" y="-65.8" font-family="Arial" font-weight="bold" font-size="14.00">Predict 7.351</text>
<text text-anchor="start" x="205" y="-48.8" font-family="Arial" font-weight="bold" font-size="14.00">n = 56</text>
<text text-anchor="start" x="223.5" y="-30.8" font-family="Arial" font-size="9.00"> </text>
<path fill="none" stroke="#333333" d="M180,-27C180,-27 270,-27 270,-27 276,-27 282,-33 282,-39 282,-39 282,-79 282,-79 282,-85 276,-91 270,-91 270,-91 180,-91 180,-91 174,-91 168,-85 168,-79 168,-79 168,-39 168,-39 168,-33 174,-27 180,-27"/>
<text text-anchor="start" x="223" y="-12.8" font-family="Arial" font-weight="bold" font-size="14.00"> </text>
</g>
<!-- 4&#45;&gt;6 -->
<g id="edge6" class="edge">
<title>4&#45;&gt;6</title>
<path fill="none" stroke="#888888" d="M225,-153.67C225,-145.39 225,-136.83 225,-128.38"/>
<polygon fill="#888888" stroke="#888888" points="228.5,-128.18 225,-118.18 221.5,-128.18 228.5,-128.18"/>
</g>
<!-- 8 -->
<g id="node8" class="node">
<title>8</title>
<text text-anchor="start" x="363.5" y="-99.8" font-family="Arial" font-weight="bold" font-size="14.00"> &lt; 8.5</text>
<path fill="#f8766d" fill-opacity="0.376471" stroke="transparent" d="M336,-27C336,-27 426,-27 426,-27 432,-27 438,-33 438,-39 438,-39 438,-79 438,-79 438,-85 432,-91 426,-91 426,-91 336,-91 336,-91 330,-91 324,-85 324,-79 324,-79 324,-39 324,-39 324,-33 330,-27 336,-27"/>
<text text-anchor="start" x="325" y="-88.4" font-family="Arial" font-size="2.00"> </text>
<text text-anchor="start" x="325" y="-82.4" font-family="Arial" font-size="7.00"> &#160;8</text>
<text text-anchor="start" x="339" y="-65.8" font-family="Arial" font-weight="bold" font-size="14.00">Predict 10.99</text>
<text text-anchor="start" x="361" y="-48.8" font-family="Arial" font-weight="bold" font-size="14.00">n = 51</text>
<text text-anchor="start" x="379.5" y="-30.8" font-family="Arial" font-size="9.00"> </text>
<path fill="none" stroke="#333333" d="M336,-27C336,-27 426,-27 426,-27 432,-27 438,-33 438,-39 438,-39 438,-79 438,-79 438,-85 432,-91 426,-91 426,-91 336,-91 336,-91 330,-91 324,-85 324,-79 324,-79 324,-39 324,-39 324,-33 330,-27 336,-27"/>
<text text-anchor="start" x="379" y="-12.8" font-family="Arial" font-weight="bold" font-size="14.00"> </text>
</g>
<!-- 7&#45;&gt;8 -->
<g id="edge7" class="edge">
<title>7&#45;&gt;8</title>
<path fill="none" stroke="#888888" d="M381,-153.67C381,-145.39 381,-136.83 381,-128.38"/>
<polygon fill="#888888" stroke="#888888" points="384.5,-128.18 381,-118.18 377.5,-128.18 384.5,-128.18"/>
</g>
<!-- 9 -->
<g id="node9" class="node">
<title>9</title>
<text text-anchor="start" x="520" y="-99.8" font-family="Arial" font-weight="bold" font-size="14.00"> ≥ 8.5</text>
<path fill="#f8766d" fill-opacity="0.541176" stroke="transparent" d="M492,-27C492,-27 582,-27 582,-27 588,-27 594,-33 594,-39 594,-39 594,-79 594,-79 594,-85 588,-91 582,-91 582,-91 492,-91 492,-91 486,-91 480,-85 480,-79 480,-79 480,-39 480,-39 480,-33 486,-27 492,-27"/>
<text text-anchor="start" x="481" y="-88.4" font-family="Arial" font-size="2.00"> </text>
<text text-anchor="start" x="481" y="-82.4" font-family="Arial" font-size="7.00"> &#160;9</text>
<text text-anchor="start" x="495" y="-65.8" font-family="Arial" font-weight="bold" font-size="14.00">Predict 9.405</text>
<text text-anchor="start" x="513.5" y="-48.8" font-family="Arial" font-weight="bold" font-size="14.00">n = 148</text>
<text text-anchor="start" x="535.5" y="-30.8" font-family="Arial" font-size="9.00"> </text>
<path fill="none" stroke="#333333" d="M492,-27C492,-27 582,-27 582,-27 588,-27 594,-33 594,-39 594,-39 594,-79 594,-79 594,-85 588,-91 582,-91 582,-91 492,-91 492,-91 486,-91 480,-85 480,-79 480,-79 480,-39 480,-39 480,-33 486,-27 492,-27"/>
<text text-anchor="start" x="535" y="-12.8" font-family="Arial" font-weight="bold" font-size="14.00"> </text>
</g>
<!-- 7&#45;&gt;9 -->
<g id="edge8" class="edge">
<title>7&#45;&gt;9</title>
<path fill="none" stroke="#888888" d="M440.87,-153.67C450.38,-144.39 460.28,-134.75 469.95,-125.33"/>
<polygon fill="#888888" stroke="#888888" points="472.57,-127.66 477.29,-118.18 467.69,-122.65 472.57,-127.66"/>
</g>
</g>
</svg>
