<?xml version="1.0" encoding="UTF-8" standalone="no"?>
<!DOCTYPE svg PUBLIC "-//W3C//DTD SVG 1.1//EN"
 "http://www.w3.org/Graphics/SVG/1.1/DTD/svg11.dtd">
<!-- Generated by graphviz version 2.50.0 (20211204.2007)
 -->
<!-- Pages: 1 -->
<svg width="1094pt" height="742pt"
 viewBox="0.00 0.00 1094.00 742.00" xmlns="http://www.w3.org/2000/svg" xmlns:xlink="http://www.w3.org/1999/xlink">
<g id="graph0" class="graph" transform="scale(1 1) rotate(0) translate(4 738)">
<polygon fill="white" stroke="transparent" points="-4,4 -4,-738 1090,-738 1090,4 -4,4"/>
<!-- 1 -->
<g id="node1" class="node">
<title>1</title>
<text text-anchor="start" x="311" y="-715.8" font-family="Arial" font-weight="bold" font-size="14.00"> </text>
<text text-anchor="start" x="249" y="-671.3" font-family="Arial" font-size="14.00"> &#160;&#160;</text>
<path fill="#ebebeb" stroke="transparent" d="M275,-643C275,-643 351,-643 351,-643 357,-643 363,-649 363,-655 363,-655 363,-695 363,-695 363,-701 357,-707 351,-707 351,-707 275,-707 275,-707 269,-707 263,-701 263,-695 263,-695 263,-655 263,-655 263,-649 269,-643 275,-643"/>
<text text-anchor="start" x="264" y="-704.4" font-family="Arial" font-size="2.00"> </text>
<text text-anchor="start" x="264" y="-698.4" font-family="Arial" font-size="7.00"> &#160;1</text>
<text text-anchor="start" x="278" y="-681.8" font-family="Arial" font-weight="bold" font-size="14.00">Mean: 10.7</text>
<text text-anchor="start" x="289.5" y="-664.8" font-family="Arial" font-weight="bold" font-size="14.00">n = 168</text>
<text text-anchor="start" x="311.5" y="-646.8" font-family="Arial" font-size="9.00"> </text>
<path fill="none" stroke="#333333" d="M275,-643C275,-643 351,-643 351,-643 357,-643 363,-649 363,-655 363,-655 363,-695 363,-695 363,-701 357,-707 351,-707 351,-707 275,-707 275,-707 269,-707 263,-701 263,-695 263,-695 263,-655 263,-655 263,-649 269,-643 275,-643"/>
<text text-anchor="start" x="365" y="-671.3" font-family="Arial" font-size="14.00"> &#160;&#160;</text>
<text text-anchor="start" x="263" y="-628.8" font-family="Arial" font-weight="bold" font-size="14.00">prev_1h_inflow</text>
</g>
<!-- 2 -->
<g id="node2" class="node">
<title>2</title>
<text text-anchor="start" x="201" y="-561.8" font-family="Arial" font-weight="bold" font-size="14.00"> &lt; 10.54</text>
<text text-anchor="start" x="158" y="-517.3" font-family="Arial" font-size="14.00"> &#160;&#160;</text>
<path fill="#ebebeb" stroke="transparent" d="M184,-489C184,-489 268,-489 268,-489 274,-489 280,-495 280,-501 280,-501 280,-541 280,-541 280,-547 274,-553 268,-553 268,-553 184,-553 184,-553 178,-553 172,-547 172,-541 172,-541 172,-501 172,-501 172,-495 178,-489 184,-489"/>
<text text-anchor="start" x="173" y="-550.4" font-family="Arial" font-size="2.00"> </text>
<text text-anchor="start" x="173" y="-544.4" font-family="Arial" font-size="7.00"> &#160;2</text>
<text text-anchor="start" x="187" y="-527.8" font-family="Arial" font-weight="bold" font-size="14.00">Mean: 9.271</text>
<text text-anchor="start" x="206" y="-510.8" font-family="Arial" font-weight="bold" font-size="14.00">n = 89</text>
<text text-anchor="start" x="224.5" y="-492.8" font-family="Arial" font-size="9.00"> </text>
<path fill="none" stroke="#333333" d="M184,-489C184,-489 268,-489 268,-489 274,-489 280,-495 280,-501 280,-501 280,-541 280,-541 280,-547 274,-553 268,-553 268,-553 184,-553 184,-553 178,-553 172,-547 172,-541 172,-541 172,-501 172,-501 172,-495 178,-489 184,-489"/>
<text text-anchor="start" x="282" y="-517.3" font-family="Arial" font-size="14.00"> &#160;&#160;</text>
<text text-anchor="start" x="172.5" y="-474.8" font-family="Arial" font-weight="bold" font-size="14.00">prev_24h_inflow</text>
</g>
<!-- 1&#45;&gt;2 -->
<g id="edge1" class="edge">
<title>1&#45;&gt;2</title>
<path fill="none" stroke="#888888" d="M279.61,-615.67C274.62,-606.94 269.43,-597.88 264.34,-588.99"/>
<polygon fill="#888888" stroke="#888888" points="267.3,-587.12 259.3,-580.18 261.23,-590.59 267.3,-587.12"/>
</g>
<!-- 7 -->
<g id="node3" class="node">
<title>7</title>
<text text-anchor="start" x="444.5" y="-561.8" font-family="Arial" font-weight="bold" font-size="14.00"> ≥ 10.54</text>
<text text-anchor="start" x="401" y="-517.3" font-family="Arial" font-size="14.00"> &#160;&#160;</text>
<path fill="#ebebeb" stroke="transparent" d="M427,-489C427,-489 511,-489 511,-489 517,-489 523,-495 523,-501 523,-501 523,-541 523,-541 523,-547 517,-553 511,-553 511,-553 427,-553 427,-553 421,-553 415,-547 415,-541 415,-541 415,-501 415,-501 415,-495 421,-489 427,-489"/>
<text text-anchor="start" x="416" y="-550.4" font-family="Arial" font-size="2.00"> </text>
<text text-anchor="start" x="416" y="-544.4" font-family="Arial" font-size="7.00"> &#160;7</text>
<text text-anchor="start" x="430" y="-527.8" font-family="Arial" font-weight="bold" font-size="14.00">Mean: 12.31</text>
<text text-anchor="start" x="449" y="-510.8" font-family="Arial" font-weight="bold" font-size="14.00">n = 79</text>
<text text-anchor="start" x="467.5" y="-492.8" font-family="Arial" font-size="9.00"> </text>
<path fill="none" stroke="#333333" d="M427,-489C427,-489 511,-489 511,-489 517,-489 523,-495 523,-501 523,-501 523,-541 523,-541 523,-547 517,-553 511,-553 511,-553 427,-553 427,-553 421,-553 415,-547 415,-541 415,-541 415,-501 415,-501 415,-495 421,-489 427,-489"/>
<text text-anchor="start" x="525" y="-517.3" font-family="Arial" font-size="14.00"> &#160;&#160;</text>
<text text-anchor="start" x="415.5" y="-474.8" font-family="Arial" font-weight="bold" font-size="14.00">prev_24h_inflow</text>
</g>
<!-- 1&#45;&gt;7 -->
<g id="edge2" class="edge">
<title>1&#45;&gt;7</title>
<path fill="none" stroke="#888888" d="M372.87,-615.67C382.38,-606.39 392.28,-596.75 401.95,-587.33"/>
<polygon fill="#888888" stroke="#888888" points="404.57,-589.66 409.29,-580.18 399.69,-584.65 404.57,-589.66"/>
</g>
<!-- 3 -->
<g id="node4" class="node">
<title>3</title>
<text text-anchor="start" x="40" y="-407.8" font-family="Arial" font-weight="bold" font-size="14.00"> &lt; 8.005</text>
<path fill="#f8766d" fill-opacity="0.874510" stroke="transparent" d="M24,-335C24,-335 106,-335 106,-335 112,-335 118,-341 118,-347 118,-347 118,-387 118,-387 118,-393 112,-399 106,-399 106,-399 24,-399 24,-399 18,-399 12,-393 12,-387 12,-387 12,-347 12,-347 12,-341 18,-335 24,-335"/>
<text text-anchor="start" x="13" y="-396.4" font-family="Arial" font-size="2.00"> </text>
<text text-anchor="start" x="13" y="-390.4" font-family="Arial" font-size="7.00"> &#160;3</text>
<text text-anchor="start" x="27" y="-373.8" font-family="Arial" font-weight="bold" font-size="14.00">Predict 7.83</text>
<text text-anchor="start" x="45" y="-356.8" font-family="Arial" font-weight="bold" font-size="14.00">n = 26</text>
<text text-anchor="start" x="63.5" y="-338.8" font-family="Arial" font-size="9.00"> </text>
<path fill="none" stroke="#333333" d="M24,-335C24,-335 106,-335 106,-335 112,-335 118,-341 118,-347 118,-347 118,-387 118,-387 118,-393 112,-399 106,-399 106,-399 24,-399 24,-399 18,-399 12,-393 12,-387 12,-387 12,-347 12,-347 12,-341 18,-335 24,-335"/>
<text text-anchor="start" x="63" y="-320.8" font-family="Arial" font-weight="bold" font-size="14.00"> </text>
</g>
<!-- 2&#45;&gt;3 -->
<g id="edge3" class="edge">
<title>2&#45;&gt;3</title>
<path fill="none" stroke="#888888" d="M164.21,-461.67C154.29,-452.3 143.97,-442.56 133.9,-433.05"/>
<polygon fill="#888888" stroke="#888888" points="136.3,-430.5 126.62,-426.18 131.49,-435.59 136.3,-430.5"/>
</g>
<!-- 4 -->
<g id="node5" class="node">
<title>4</title>
<text text-anchor="start" x="201.5" y="-407.8" font-family="Arial" font-weight="bold" font-size="14.00"> ≥ 8.005</text>
<text text-anchor="start" x="158" y="-363.3" font-family="Arial" font-size="14.00"> &#160;&#160;</text>
<path fill="#ebebeb" stroke="transparent" d="M184,-335C184,-335 268,-335 268,-335 274,-335 280,-341 280,-347 280,-347 280,-387 280,-387 280,-393 274,-399 268,-399 268,-399 184,-399 184,-399 178,-399 172,-393 172,-387 172,-387 172,-347 172,-347 172,-341 178,-335 184,-335"/>
<text text-anchor="start" x="173" y="-396.4" font-family="Arial" font-size="2.00"> </text>
<text text-anchor="start" x="173" y="-390.4" font-family="Arial" font-size="7.00"> &#160;4</text>
<text text-anchor="start" x="187" y="-373.8" font-family="Arial" font-weight="bold" font-size="14.00">Mean: 9.866</text>
<text text-anchor="start" x="206" y="-356.8" font-family="Arial" font-weight="bold" font-size="14.00">n = 63</text>
<text text-anchor="start" x="224.5" y="-338.8" font-family="Arial" font-size="9.00"> </text>
<path fill="none" stroke="#333333" d="M184,-335C184,-335 268,-335 268,-335 274,-335 280,-341 280,-347 280,-347 280,-387 280,-387 280,-393 274,-399 268,-399 268,-399 184,-399 184,-399 178,-399 172,-393 172,-387 172,-387 172,-347 172,-347 172,-341 178,-335 184,-335"/>
<text text-anchor="start" x="282" y="-363.3" font-family="Arial" font-size="14.00"> &#160;&#160;</text>
<text text-anchor="start" x="172.5" y="-320.8" font-family="Arial" font-weight="bold" font-size="14.00">prev_24h_inflow</text>
</g>
<!-- 2&#45;&gt;4 -->
<g id="edge4" class="edge">
<title>2&#45;&gt;4</title>
<path fill="none" stroke="#888888" d="M226,-461.67C226,-453.39 226,-444.83 226,-436.38"/>
<polygon fill="#888888" stroke="#888888" points="229.5,-436.18 226,-426.18 222.5,-436.18 229.5,-436.18"/>
</g>
<!-- 8 -->
<g id="node8" class="node">
<title>8</title>
<text text-anchor="start" x="444.5" y="-407.8" font-family="Arial" font-weight="bold" font-size="14.00"> &lt; 12.16</text>
<text text-anchor="start" x="406" y="-363.3" font-family="Arial" font-size="14.00"> &#160;</text>
<path fill="#ebebeb" stroke="transparent" d="M428,-335C428,-335 511,-335 511,-335 517,-335 523,-341 523,-347 523,-347 523,-387 523,-387 523,-393 517,-399 511,-399 511,-399 428,-399 428,-399 422,-399 416,-393 416,-387 416,-387 416,-347 416,-347 416,-341 422,-335 428,-335"/>
<text text-anchor="start" x="417" y="-396.4" font-family="Arial" font-size="2.00"> </text>
<text text-anchor="start" x="417" y="-390.4" font-family="Arial" font-size="7.00"> &#160;8</text>
<text text-anchor="start" x="431" y="-373.8" font-family="Arial" font-weight="bold" font-size="14.00">Mean: 11.26</text>
<text text-anchor="start" x="449.5" y="-356.8" font-family="Arial" font-weight="bold" font-size="14.00">n = 45</text>
<text text-anchor="start" x="468" y="-338.8" font-family="Arial" font-size="9.00"> </text>
<path fill="none" stroke="#333333" d="M428,-335C428,-335 511,-335 511,-335 517,-335 523,-341 523,-347 523,-347 523,-387 523,-387 523,-393 517,-399 511,-399 511,-399 428,-399 428,-399 422,-399 416,-393 416,-387 416,-387 416,-347 416,-347 416,-341 422,-335 428,-335"/>
<text text-anchor="start" x="525" y="-363.3" font-family="Arial" font-size="14.00"> &#160;</text>
<text text-anchor="start" x="419.5" y="-320.8" font-family="Arial" font-weight="bold" font-size="14.00">prev_1h_inflow</text>
</g>
<!-- 7&#45;&gt;8 -->
<g id="edge7" class="edge">
<title>7&#45;&gt;8</title>
<path fill="none" stroke="#888888" d="M469,-461.67C469,-453.39 469,-444.83 469,-436.38"/>
<polygon fill="#888888" stroke="#888888" points="472.5,-436.18 469,-426.18 465.5,-436.18 472.5,-436.18"/>
</g>
<!-- 13 -->
<g id="node9" class="node">
<title>13</title>
<text text-anchor="start" x="680.5" y="-407.8" font-family="Arial" font-weight="bold" font-size="14.00"> ≥ 12.16</text>
<text text-anchor="start" x="641" y="-363.3" font-family="Arial" font-size="14.00"> &#160;</text>
<path fill="#ebebeb" stroke="transparent" d="M663,-335C663,-335 747,-335 747,-335 753,-335 759,-341 759,-347 759,-347 759,-387 759,-387 759,-393 753,-399 747,-399 747,-399 663,-399 663,-399 657,-399 651,-393 651,-387 651,-387 651,-347 651,-347 651,-341 657,-335 663,-335"/>
<text text-anchor="start" x="652" y="-396.4" font-family="Arial" font-size="2.00"> </text>
<text text-anchor="start" x="652" y="-390.4" font-family="Arial" font-size="7.00"> &#160;13</text>
<text text-anchor="start" x="666" y="-373.8" font-family="Arial" font-weight="bold" font-size="14.00">Mean: 13.71</text>
<text text-anchor="start" x="685" y="-356.8" font-family="Arial" font-weight="bold" font-size="14.00">n = 34</text>
<text text-anchor="start" x="703.5" y="-338.8" font-family="Arial" font-size="9.00"> </text>
<path fill="none" stroke="#333333" d="M663,-335C663,-335 747,-335 747,-335 753,-335 759,-341 759,-347 759,-347 759,-387 759,-387 759,-393 753,-399 747,-399 747,-399 663,-399 663,-399 657,-399 651,-393 651,-387 651,-387 651,-347 651,-347 651,-341 657,-335 663,-335"/>
<text text-anchor="start" x="761" y="-363.3" font-family="Arial" font-size="14.00"> &#160;</text>
<text text-anchor="start" x="655" y="-320.8" font-family="Arial" font-weight="bold" font-size="14.00">prev_1h_inflow</text>
</g>
<!-- 7&#45;&gt;13 -->
<g id="edge8" class="edge">
<title>7&#45;&gt;13</title>
<path fill="none" stroke="#888888" d="M547.26,-469.6C571.38,-454.06 598.02,-436.91 622.42,-421.19"/>
<polygon fill="#888888" stroke="#888888" points="624.44,-424.05 630.95,-415.69 620.65,-418.16 624.44,-424.05"/>
</g>
<!-- 5 -->
<g id="node6" class="node">
<title>5</title>
<text text-anchor="start" x="49" y="-253.8" font-family="Arial" font-weight="bold" font-size="14.00"> &lt; 9.175</text>
<path fill="#f8766d" fill-opacity="0.827451" stroke="transparent" d="M29,-181C29,-181 119,-181 119,-181 125,-181 131,-187 131,-193 131,-193 131,-233 131,-233 131,-239 125,-245 119,-245 119,-245 29,-245 29,-245 23,-245 17,-239 17,-233 17,-233 17,-193 17,-193 17,-187 23,-181 29,-181"/>
<text text-anchor="start" x="18" y="-242.4" font-family="Arial" font-size="2.00"> </text>
<text text-anchor="start" x="18" y="-236.4" font-family="Arial" font-size="7.00"> &#160;5</text>
<text text-anchor="start" x="32" y="-219.8" font-family="Arial" font-weight="bold" font-size="14.00">Predict 8.693</text>
<text text-anchor="start" x="54" y="-202.8" font-family="Arial" font-weight="bold" font-size="14.00">n = 22</text>
<text text-anchor="start" x="72.5" y="-184.8" font-family="Arial" font-size="9.00"> </text>
<path fill="none" stroke="#333333" d="M29,-181C29,-181 119,-181 119,-181 125,-181 131,-187 131,-193 131,-193 131,-233 131,-233 131,-239 125,-245 119,-245 119,-245 29,-245 29,-245 23,-245 17,-239 17,-233 17,-233 17,-193 17,-193 17,-187 23,-181 29,-181"/>
<text text-anchor="start" x="72" y="-166.8" font-family="Arial" font-weight="bold" font-size="14.00"> </text>
</g>
<!-- 4&#45;&gt;5 -->
<g id="edge5" class="edge">
<title>4&#45;&gt;5</title>
<path fill="none" stroke="#888888" d="M167.67,-307.67C158.39,-298.39 148.75,-288.75 139.33,-279.33"/>
<polygon fill="#888888" stroke="#888888" points="141.72,-276.77 132.18,-272.18 136.77,-281.72 141.72,-276.77"/>
</g>
<!-- 6 -->
<g id="node7" class="node">
<title>6</title>
<text text-anchor="start" x="201.5" y="-253.8" font-family="Arial" font-weight="bold" font-size="14.00"> ≥ 9.175</text>
<path fill="#f8766d" fill-opacity="0.729412" stroke="transparent" d="M185,-181C185,-181 267,-181 267,-181 273,-181 279,-187 279,-193 279,-193 279,-233 279,-233 279,-239 273,-245 267,-245 267,-245 185,-245 185,-245 179,-245 173,-239 173,-233 173,-233 173,-193 173,-193 173,-187 179,-181 185,-181"/>
<text text-anchor="start" x="174" y="-242.4" font-family="Arial" font-size="2.00"> </text>
<text text-anchor="start" x="174" y="-236.4" font-family="Arial" font-size="7.00"> &#160;6</text>
<text text-anchor="start" x="188" y="-219.8" font-family="Arial" font-weight="bold" font-size="14.00">Predict 10.5</text>
<text text-anchor="start" x="206" y="-202.8" font-family="Arial" font-weight="bold" font-size="14.00">n = 41</text>
<text text-anchor="start" x="224.5" y="-184.8" font-family="Arial" font-size="9.00"> </text>
<path fill="none" stroke="#333333" d="M185,-181C185,-181 267,-181 267,-181 273,-181 279,-187 279,-193 279,-193 279,-233 279,-233 279,-239 273,-245 267,-245 267,-245 185,-245 185,-245 179,-245 173,-239 173,-233 173,-233 173,-193 173,-193 173,-187 179,-181 185,-181"/>
<text text-anchor="start" x="224" y="-166.8" font-family="Arial" font-weight="bold" font-size="14.00"> </text>
</g>
<!-- 4&#45;&gt;6 -->
<g id="edge6" class="edge">
<title>4&#45;&gt;6</title>
<path fill="none" stroke="#888888" d="M226,-307.67C226,-299.39 226,-290.83 226,-282.38"/>
<polygon fill="#888888" stroke="#888888" points="229.5,-282.18 226,-272.18 222.5,-282.18 229.5,-282.18"/>
</g>
<!-- 9 -->
<g id="node10" class="node">
<title>9</title>
<text text-anchor="start" x="362.5" y="-253.8" font-family="Arial" font-weight="bold" font-size="14.00"> &lt; 13.46</text>
<text text-anchor="start" x="320" y="-209.3" font-family="Arial" font-size="14.00"> &#160;&#160;</text>
<path fill="#ebebeb" stroke="transparent" d="M346,-181C346,-181 429,-181 429,-181 435,-181 441,-187 441,-193 441,-193 441,-233 441,-233 441,-239 435,-245 429,-245 429,-245 346,-245 346,-245 340,-245 334,-239 334,-233 334,-233 334,-193 334,-193 334,-187 340,-181 346,-181"/>
<text text-anchor="start" x="335" y="-242.4" font-family="Arial" font-size="2.00"> </text>
<text text-anchor="start" x="335" y="-236.4" font-family="Arial" font-size="7.00"> &#160;9</text>
<text text-anchor="start" x="349" y="-219.8" font-family="Arial" font-weight="bold" font-size="14.00">Mean: 11.08</text>
<text text-anchor="start" x="367.5" y="-202.8" font-family="Arial" font-weight="bold" font-size="14.00">n = 39</text>
<text text-anchor="start" x="386" y="-184.8" font-family="Arial" font-size="9.00"> </text>
<path fill="none" stroke="#333333" d="M346,-181C346,-181 429,-181 429,-181 435,-181 441,-187 441,-193 441,-193 441,-233 441,-233 441,-239 435,-245 429,-245 429,-245 346,-245 346,-245 340,-245 334,-239 334,-233 334,-233 334,-193 334,-193 334,-187 340,-181 346,-181"/>
<text text-anchor="start" x="443" y="-209.3" font-family="Arial" font-size="14.00"> &#160;&#160;</text>
<text text-anchor="start" x="334" y="-166.8" font-family="Arial" font-weight="bold" font-size="14.00">prev_24h_inflow</text>
</g>
<!-- 8&#45;&gt;9 -->
<g id="edge9" class="edge">
<title>8&#45;&gt;9</title>
<path fill="none" stroke="#888888" d="M437.53,-307.67C432.82,-298.94 427.94,-289.88 423.14,-280.99"/>
<polygon fill="#888888" stroke="#888888" points="426.21,-279.32 418.38,-272.18 420.05,-282.64 426.21,-279.32"/>
</g>
<!-- 12 -->
<g id="node11" class="node">
<title>12</title>
<text text-anchor="start" x="527.5" y="-253.8" font-family="Arial" font-weight="bold" font-size="14.00"> ≥ 13.46</text>
<path fill="#f8766d" fill-opacity="0.627451" stroke="transparent" d="M507,-181C507,-181 597,-181 597,-181 603,-181 609,-187 609,-193 609,-193 609,-233 609,-233 609,-239 603,-245 597,-245 597,-245 507,-245 507,-245 501,-245 495,-239 495,-233 495,-233 495,-193 495,-193 495,-187 501,-181 507,-181"/>
<text text-anchor="start" x="496" y="-242.4" font-family="Arial" font-size="2.00"> </text>
<text text-anchor="start" x="496" y="-236.4" font-family="Arial" font-size="7.00"> &#160;12</text>
<text text-anchor="start" x="510" y="-219.8" font-family="Arial" font-weight="bold" font-size="14.00">Predict 12.43</text>
<text text-anchor="start" x="536" y="-202.8" font-family="Arial" font-weight="bold" font-size="14.00">n = 6</text>
<text text-anchor="start" x="550.5" y="-184.8" font-family="Arial" font-size="9.00"> </text>
<path fill="none" stroke="#333333" d="M507,-181C507,-181 597,-181 597,-181 603,-181 609,-187 609,-193 609,-193 609,-233 609,-233 609,-239 603,-245 597,-245 597,-245 507,-245 507,-245 501,-245 495,-239 495,-233 495,-233 495,-193 495,-193 495,-187 501,-181 507,-181"/>
<text text-anchor="start" x="550" y="-166.8" font-family="Arial" font-weight="bold" font-size="14.00"> </text>
</g>
<!-- 8&#45;&gt;12 -->
<g id="edge10" class="edge">
<title>8&#45;&gt;12</title>
<path fill="none" stroke="#888888" d="M500.85,-307.67C505.62,-298.94 510.56,-289.88 515.42,-280.99"/>
<polygon fill="#888888" stroke="#888888" points="518.51,-282.63 520.23,-272.18 512.37,-279.28 518.51,-282.63"/>
</g>
<!-- 14 -->
<g id="node14" class="node">
<title>14</title>
<text text-anchor="start" x="683.5" y="-253.8" font-family="Arial" font-weight="bold" font-size="14.00"> &lt; 13.1</text>
<path fill="#ebebeb" stroke="transparent" d="M663,-181C663,-181 747,-181 747,-181 753,-181 759,-187 759,-193 759,-193 759,-233 759,-233 759,-239 753,-245 747,-245 747,-245 663,-245 663,-245 657,-245 651,-239 651,-233 651,-233 651,-193 651,-193 651,-187 657,-181 663,-181"/>
<text text-anchor="start" x="652" y="-242.4" font-family="Arial" font-size="2.00"> </text>
<text text-anchor="start" x="652" y="-236.4" font-family="Arial" font-size="7.00"> &#160;14</text>
<text text-anchor="start" x="666" y="-219.8" font-family="Arial" font-weight="bold" font-size="14.00">Mean: 12.68</text>
<text text-anchor="start" x="685" y="-202.8" font-family="Arial" font-weight="bold" font-size="14.00">n = 20</text>
<text text-anchor="start" x="703.5" y="-184.8" font-family="Arial" font-size="9.00"> </text>
<path fill="none" stroke="#333333" d="M663,-181C663,-181 747,-181 747,-181 753,-181 759,-187 759,-193 759,-193 759,-233 759,-233 759,-239 753,-245 747,-245 747,-245 663,-245 663,-245 657,-245 651,-239 651,-233 651,-233 651,-193 651,-193 651,-187 657,-181 663,-181"/>
<text text-anchor="start" x="676" y="-166.8" font-family="Arial" font-weight="bold" font-size="14.00">air_temp</text>
</g>
<!-- 13&#45;&gt;14 -->
<g id="edge13" class="edge">
<title>13&#45;&gt;14</title>
<path fill="none" stroke="#888888" d="M705,-307.67C705,-299.39 705,-290.83 705,-282.38"/>
<polygon fill="#888888" stroke="#888888" points="708.5,-282.18 705,-272.18 701.5,-282.18 708.5,-282.18"/>
</g>
<!-- 17 -->
<g id="node15" class="node">
<title>17</title>
<text text-anchor="start" x="840" y="-253.8" font-family="Arial" font-weight="bold" font-size="14.00"> ≥ 13.1</text>
<path fill="#ebebeb" stroke="transparent" d="M819,-181C819,-181 903,-181 903,-181 909,-181 915,-187 915,-193 915,-193 915,-233 915,-233 915,-239 909,-245 903,-245 903,-245 819,-245 819,-245 813,-245 807,-239 807,-233 807,-233 807,-193 807,-193 807,-187 813,-181 819,-181"/>
<text text-anchor="start" x="808" y="-242.4" font-family="Arial" font-size="2.00"> </text>
<text text-anchor="start" x="808" y="-236.4" font-family="Arial" font-size="7.00"> &#160;17</text>
<text text-anchor="start" x="822" y="-219.8" font-family="Arial" font-weight="bold" font-size="14.00">Mean: 15.17</text>
<text text-anchor="start" x="841" y="-202.8" font-family="Arial" font-weight="bold" font-size="14.00">n = 14</text>
<text text-anchor="start" x="859.5" y="-184.8" font-family="Arial" font-size="9.00"> </text>
<path fill="none" stroke="#333333" d="M819,-181C819,-181 903,-181 903,-181 909,-181 915,-187 915,-193 915,-193 915,-233 915,-233 915,-239 909,-245 903,-245 903,-245 819,-245 819,-245 813,-245 807,-239 807,-233 807,-233 807,-193 807,-193 807,-187 813,-181 819,-181"/>
<text text-anchor="start" x="832" y="-166.8" font-family="Arial" font-weight="bold" font-size="14.00">air_temp</text>
</g>
<!-- 13&#45;&gt;17 -->
<g id="edge14" class="edge">
<title>13&#45;&gt;17</title>
<path fill="none" stroke="#888888" d="M764.87,-307.67C774.38,-298.39 784.28,-288.75 793.95,-279.33"/>
<polygon fill="#888888" stroke="#888888" points="796.57,-281.66 801.29,-272.18 791.69,-276.65 796.57,-281.66"/>
</g>
<!-- 10 -->
<g id="node12" class="node">
<title>10</title>
<text text-anchor="start" x="222.5" y="-99.8" font-family="Arial" font-weight="bold" font-size="14.00"> &lt; 11.13</text>
<path fill="#f8766d" fill-opacity="0.725490" stroke="transparent" d="M202,-27C202,-27 292,-27 292,-27 298,-27 304,-33 304,-39 304,-39 304,-79 304,-79 304,-85 298,-91 292,-91 292,-91 202,-91 202,-91 196,-91 190,-85 190,-79 190,-79 190,-39 190,-39 190,-33 196,-27 202,-27"/>
<text text-anchor="start" x="191" y="-88.4" font-family="Arial" font-size="2.00"> </text>
<text text-anchor="start" x="191" y="-82.4" font-family="Arial" font-size="7.00"> &#160;10</text>
<text text-anchor="start" x="205" y="-65.8" font-family="Arial" font-weight="bold" font-size="14.00">Predict 10.57</text>
<text text-anchor="start" x="227" y="-48.8" font-family="Arial" font-weight="bold" font-size="14.00">n = 25</text>
<text text-anchor="start" x="245.5" y="-30.8" font-family="Arial" font-size="9.00"> </text>
<path fill="none" stroke="#333333" d="M202,-27C202,-27 292,-27 292,-27 298,-27 304,-33 304,-39 304,-39 304,-79 304,-79 304,-85 298,-91 292,-91 292,-91 202,-91 202,-91 196,-91 190,-85 190,-79 190,-79 190,-39 190,-39 190,-33 196,-27 202,-27"/>
<text text-anchor="start" x="245" y="-12.8" font-family="Arial" font-weight="bold" font-size="14.00"> </text>
</g>
<!-- 9&#45;&gt;10 -->
<g id="edge11" class="edge">
<title>9&#45;&gt;10</title>
<path fill="none" stroke="#888888" d="M333.27,-153.67C324.82,-144.49 316.02,-134.94 307.43,-125.6"/>
<polygon fill="#888888" stroke="#888888" points="309.93,-123.16 300.58,-118.18 304.78,-127.9 309.93,-123.16"/>
</g>
<!-- 11 -->
<g id="node13" class="node">
<title>11</title>
<text text-anchor="start" x="370" y="-99.8" font-family="Arial" font-weight="bold" font-size="14.00"> ≥ 11.13</text>
<path fill="#f8766d" fill-opacity="0.650980" stroke="transparent" d="M359,-27C359,-27 430,-27 430,-27 436,-27 442,-33 442,-39 442,-39 442,-79 442,-79 442,-85 436,-91 430,-91 430,-91 359,-91 359,-91 353,-91 347,-85 347,-79 347,-79 347,-39 347,-39 347,-33 353,-27 359,-27"/>
<text text-anchor="start" x="348" y="-88.4" font-family="Arial" font-size="2.00"> </text>
<text text-anchor="start" x="348" y="-82.4" font-family="Arial" font-size="7.00"> &#160;11</text>
<text text-anchor="start" x="362" y="-65.8" font-family="Arial" font-weight="bold" font-size="14.00">Predict 12</text>
<text text-anchor="start" x="374.5" y="-48.8" font-family="Arial" font-weight="bold" font-size="14.00">n = 14</text>
<text text-anchor="start" x="393" y="-30.8" font-family="Arial" font-size="9.00"> </text>
<path fill="none" stroke="#333333" d="M359,-27C359,-27 430,-27 430,-27 436,-27 442,-33 442,-39 442,-39 442,-79 442,-79 442,-85 436,-91 430,-91 430,-91 359,-91 359,-91 353,-91 347,-85 347,-79 347,-79 347,-39 347,-39 347,-33 353,-27 359,-27"/>
<text text-anchor="start" x="392.5" y="-12.8" font-family="Arial" font-weight="bold" font-size="14.00"> </text>
</g>
<!-- 9&#45;&gt;11 -->
<g id="edge12" class="edge">
<title>9&#45;&gt;11</title>
<path fill="none" stroke="#888888" d="M389.69,-153.67C390.07,-145.39 390.46,-136.83 390.85,-128.38"/>
<polygon fill="#888888" stroke="#888888" points="394.36,-128.33 391.32,-118.18 387.36,-128 394.36,-128.33"/>
</g>
<!-- 15 -->
<g id="node16" class="node">
<title>15</title>
<text text-anchor="start" x="527.5" y="-99.8" font-family="Arial" font-weight="bold" font-size="14.00"> &lt; 24.2</text>
<path fill="#f8766d" fill-opacity="0.709804" stroke="transparent" d="M504,-27C504,-27 594,-27 594,-27 600,-27 606,-33 606,-39 606,-39 606,-79 606,-79 606,-85 600,-91 594,-91 594,-91 504,-91 504,-91 498,-91 492,-85 492,-79 492,-79 492,-39 492,-39 492,-33 498,-27 504,-27"/>
<text text-anchor="start" x="493" y="-88.4" font-family="Arial" font-size="2.00"> </text>
<text text-anchor="start" x="493" y="-82.4" font-family="Arial" font-size="7.00"> &#160;15</text>
<text text-anchor="start" x="507" y="-65.8" font-family="Arial" font-weight="bold" font-size="14.00">Predict 10.89</text>
<text text-anchor="start" x="533" y="-48.8" font-family="Arial" font-weight="bold" font-size="14.00">n = 5</text>
<text text-anchor="start" x="547.5" y="-30.8" font-family="Arial" font-size="9.00"> </text>
<path fill="none" stroke="#333333" d="M504,-27C504,-27 594,-27 594,-27 600,-27 606,-33 606,-39 606,-39 606,-79 606,-79 606,-85 600,-91 594,-91 594,-91 504,-91 504,-91 498,-91 492,-85 492,-79 492,-79 492,-39 492,-39 492,-33 498,-27 504,-27"/>
<text text-anchor="start" x="547" y="-12.8" font-family="Arial" font-weight="bold" font-size="14.00"> </text>
</g>
<!-- 14&#45;&gt;15 -->
<g id="edge15" class="edge">
<title>14&#45;&gt;15</title>
<path fill="none" stroke="#888888" d="M645.13,-153.67C635.62,-144.39 625.72,-134.75 616.05,-125.33"/>
<polygon fill="#888888" stroke="#888888" points="618.31,-122.65 608.71,-118.18 613.43,-127.66 618.31,-122.65"/>
</g>
<!-- 16 -->
<g id="node17" class="node">
<title>16</title>
<text text-anchor="start" x="684" y="-99.8" font-family="Arial" font-weight="bold" font-size="14.00"> ≥ 24.2</text>
<path fill="#f8766d" fill-opacity="0.580392" stroke="transparent" d="M660,-27C660,-27 750,-27 750,-27 756,-27 762,-33 762,-39 762,-39 762,-79 762,-79 762,-85 756,-91 750,-91 750,-91 660,-91 660,-91 654,-91 648,-85 648,-79 648,-79 648,-39 648,-39 648,-33 654,-27 660,-27"/>
<text text-anchor="start" x="649" y="-88.4" font-family="Arial" font-size="2.00"> </text>
<text text-anchor="start" x="649" y="-82.4" font-family="Arial" font-size="7.00"> &#160;16</text>
<text text-anchor="start" x="663" y="-65.8" font-family="Arial" font-weight="bold" font-size="14.00">Predict 13.28</text>
<text text-anchor="start" x="685" y="-48.8" font-family="Arial" font-weight="bold" font-size="14.00">n = 15</text>
<text text-anchor="start" x="703.5" y="-30.8" font-family="Arial" font-size="9.00"> </text>
<path fill="none" stroke="#333333" d="M660,-27C660,-27 750,-27 750,-27 756,-27 762,-33 762,-39 762,-39 762,-79 762,-79 762,-85 756,-91 750,-91 750,-91 660,-91 660,-91 654,-91 648,-85 648,-79 648,-79 648,-39 648,-39 648,-33 654,-27 660,-27"/>
<text text-anchor="start" x="703" y="-12.8" font-family="Arial" font-weight="bold" font-size="14.00"> </text>
</g>
<!-- 14&#45;&gt;16 -->
<g id="edge16" class="edge">
<title>14&#45;&gt;16</title>
<path fill="none" stroke="#888888" d="M705,-153.67C705,-145.39 705,-136.83 705,-128.38"/>
<polygon fill="#888888" stroke="#888888" points="708.5,-128.18 705,-118.18 701.5,-128.18 708.5,-128.18"/>
</g>
<!-- 18 -->
<g id="node18" class="node">
<title>18</title>
<text text-anchor="start" x="839.5" y="-99.8" font-family="Arial" font-weight="bold" font-size="14.00"> &lt; 29.7</text>
<path fill="#f8766d" fill-opacity="0.494118" stroke="transparent" d="M816,-27C816,-27 906,-27 906,-27 912,-27 918,-33 918,-39 918,-39 918,-79 918,-79 918,-85 912,-91 906,-91 906,-91 816,-91 816,-91 810,-91 804,-85 804,-79 804,-79 804,-39 804,-39 804,-33 810,-27 816,-27"/>
<text text-anchor="start" x="805" y="-88.4" font-family="Arial" font-size="2.00"> </text>
<text text-anchor="start" x="805" y="-82.4" font-family="Arial" font-size="7.00"> &#160;18</text>
<text text-anchor="start" x="819" y="-65.8" font-family="Arial" font-weight="bold" font-size="14.00">Predict 14.85</text>
<text text-anchor="start" x="841" y="-48.8" font-family="Arial" font-weight="bold" font-size="14.00">n = 12</text>
<text text-anchor="start" x="859.5" y="-30.8" font-family="Arial" font-size="9.00"> </text>
<path fill="none" stroke="#333333" d="M816,-27C816,-27 906,-27 906,-27 912,-27 918,-33 918,-39 918,-39 918,-79 918,-79 918,-85 912,-91 906,-91 906,-91 816,-91 816,-91 810,-91 804,-85 804,-79 804,-79 804,-39 804,-39 804,-33 810,-27 816,-27"/>
<text text-anchor="start" x="859" y="-12.8" font-family="Arial" font-weight="bold" font-size="14.00"> </text>
</g>
<!-- 17&#45;&gt;18 -->
<g id="edge17" class="edge">
<title>17&#45;&gt;18</title>
<path fill="none" stroke="#888888" d="M861,-153.67C861,-145.39 861,-136.83 861,-128.38"/>
<polygon fill="#888888" stroke="#888888" points="864.5,-128.18 861,-118.18 857.5,-128.18 864.5,-128.18"/>
</g>
<!-- 19 -->
<g id="node19" class="node">
<title>19</title>
<text text-anchor="start" x="996" y="-99.8" font-family="Arial" font-weight="bold" font-size="14.00"> ≥ 29.7</text>
<path fill="#f8766d" fill-opacity="0.376471" stroke="transparent" d="M972,-27C972,-27 1062,-27 1062,-27 1068,-27 1074,-33 1074,-39 1074,-39 1074,-79 1074,-79 1074,-85 1068,-91 1062,-91 1062,-91 972,-91 972,-91 966,-91 960,-85 960,-79 960,-79 960,-39 960,-39 960,-33 966,-27 972,-27"/>
<text text-anchor="start" x="961" y="-88.4" font-family="Arial" font-size="2.00"> </text>
<text text-anchor="start" x="961" y="-82.4" font-family="Arial" font-size="7.00"> &#160;19</text>
<text text-anchor="start" x="975" y="-65.8" font-family="Arial" font-weight="bold" font-size="14.00">Predict 17.08</text>
<text text-anchor="start" x="1001" y="-48.8" font-family="Arial" font-weight="bold" font-size="14.00">n = 2</text>
<text text-anchor="start" x="1015.5" y="-30.8" font-family="Arial" font-size="9.00"> </text>
<path fill="none" stroke="#333333" d="M972,-27C972,-27 1062,-27 1062,-27 1068,-27 1074,-33 1074,-39 1074,-39 1074,-79 1074,-79 1074,-85 1068,-91 1062,-91 1062,-91 972,-91 972,-91 966,-91 960,-85 960,-79 960,-79 960,-39 960,-39 960,-33 966,-27 972,-27"/>
<text text-anchor="start" x="1015" y="-12.8" font-family="Arial" font-weight="bold" font-size="14.00"> </text>
</g>
<!-- 17&#45;&gt;19 -->
<g id="edge18" class="edge">
<title>17&#45;&gt;19</title>
<path fill="none" stroke="#888888" d="M920.87,-153.67C930.38,-144.39 940.28,-134.75 949.95,-125.33"/>
<polygon fill="#888888" stroke="#888888" points="952.57,-127.66 957.29,-118.18 947.69,-122.65 952.57,-127.66"/>
</g>
</g>
</svg>
