<?xml version="1.0" encoding="utf-8"?>
<svg xmlns="http://www.w3.org/2000/svg" xmlns:xlink="http://www.w3.org/1999/xlink" width="1000" height="400" viewBox="0 0 4000 1600">
<defs>
  <clipPath id="clip400">
    <rect x="0" y="0" width="4000" height="1600"/>
  </clipPath>
</defs>
<path clip-path="url(#clip400)" d="M0 1600 L4000 1600 L4000 0 L0 0  Z" fill="#ffffff" fill-rule="evenodd" fill-opacity="1"/>
<defs>
  <clipPath id="clip401">
    <rect x="800" y="0" width="2801" height="1600"/>
  </clipPath>
</defs>
<path clip-path="url(#clip400)" d="M205.077 1497.68 L3180.41 1497.68 L3180.41 47.2441 L205.077 47.2441  Z" fill="#ffffff" fill-rule="evenodd" fill-opacity="1"/>
<defs>
  <clipPath id="clip402">
    <rect x="205" y="47" width="2976" height="1451"/>
  </clipPath>
</defs>
<polyline clip-path="url(#clip402)" style="stroke:#000000; stroke-linecap:round; stroke-linejoin:round; stroke-width:2; stroke-opacity:0.1; fill:none" points="289.284,1497.68 289.284,47.2441 "/>
<polyline clip-path="url(#clip402)" style="stroke:#000000; stroke-linecap:round; stroke-linejoin:round; stroke-width:2; stroke-opacity:0.1; fill:none" points="1096.06,1497.68 1096.06,47.2441 "/>
<polyline clip-path="url(#clip402)" style="stroke:#000000; stroke-linecap:round; stroke-linejoin:round; stroke-width:2; stroke-opacity:0.1; fill:none" points="1902.84,1497.68 1902.84,47.2441 "/>
<polyline clip-path="url(#clip402)" style="stroke:#000000; stroke-linecap:round; stroke-linejoin:round; stroke-width:2; stroke-opacity:0.1; fill:none" points="2709.62,1497.68 2709.62,47.2441 "/>
<polyline clip-path="url(#clip400)" style="stroke:#000000; stroke-linecap:round; stroke-linejoin:round; stroke-width:4; stroke-opacity:1; fill:none" points="205.077,1497.68 3180.41,1497.68 "/>
<polyline clip-path="url(#clip400)" style="stroke:#000000; stroke-linecap:round; stroke-linejoin:round; stroke-width:4; stroke-opacity:1; fill:none" points="289.284,1497.68 289.284,1478.78 "/>
<polyline clip-path="url(#clip400)" style="stroke:#000000; stroke-linecap:round; stroke-linejoin:round; stroke-width:4; stroke-opacity:1; fill:none" points="1096.06,1497.68 1096.06,1478.78 "/>
<polyline clip-path="url(#clip400)" style="stroke:#000000; stroke-linecap:round; stroke-linejoin:round; stroke-width:4; stroke-opacity:1; fill:none" points="1902.84,1497.68 1902.84,1478.78 "/>
<polyline clip-path="url(#clip400)" style="stroke:#000000; stroke-linecap:round; stroke-linejoin:round; stroke-width:4; stroke-opacity:1; fill:none" points="2709.62,1497.68 2709.62,1478.78 "/>
<path clip-path="url(#clip400)" d="M144.415 1573.85 L162.774 1573.85 L162.774 1578.28 L138.087 1578.28 L138.087 1573.85 Q141.082 1570.75 146.238 1565.55 Q151.42 1560.31 152.748 1558.8 Q155.274 1555.96 156.264 1554.01 Q157.28 1552.03 157.28 1550.13 Q157.28 1547.03 155.092 1545.08 Q152.931 1543.12 149.441 1543.12 Q146.967 1543.12 144.207 1543.98 Q141.472 1544.84 138.347 1546.59 L138.347 1541.27 Q141.524 1540 144.285 1539.35 Q147.045 1538.7 149.337 1538.7 Q155.379 1538.7 158.972 1541.72 Q162.566 1544.74 162.566 1549.79 Q162.566 1552.19 161.655 1554.35 Q160.769 1556.48 158.399 1559.4 Q157.748 1560.15 154.259 1563.77 Q150.769 1567.37 144.415 1573.85 Z" fill="#000000" fill-rule="nonzero" fill-opacity="1" /><path clip-path="url(#clip400)" d="M185.066 1542.86 Q181.003 1542.86 178.946 1546.87 Q176.915 1550.86 176.915 1558.88 Q176.915 1566.87 178.946 1570.88 Q181.003 1574.87 185.066 1574.87 Q189.154 1574.87 191.186 1570.88 Q193.243 1566.87 193.243 1558.88 Q193.243 1550.86 191.186 1546.87 Q189.154 1542.86 185.066 1542.86 M185.066 1538.7 Q191.602 1538.7 195.04 1543.88 Q198.503 1549.04 198.503 1558.88 Q198.503 1568.7 195.04 1573.88 Q191.602 1579.04 185.066 1579.04 Q178.529 1579.04 175.066 1573.88 Q171.628 1568.7 171.628 1558.88 Q171.628 1549.04 175.066 1543.88 Q178.529 1538.7 185.066 1538.7 Z" fill="#000000" fill-rule="nonzero" fill-opacity="1" /><path clip-path="url(#clip400)" d="M212.279 1573.85 L230.639 1573.85 L230.639 1578.28 L205.951 1578.28 L205.951 1573.85 Q208.946 1570.75 214.102 1565.55 Q219.284 1560.31 220.613 1558.8 Q223.139 1555.96 224.128 1554.01 Q225.144 1552.03 225.144 1550.13 Q225.144 1547.03 222.956 1545.08 Q220.795 1543.12 217.305 1543.12 Q214.831 1543.12 212.071 1543.98 Q209.337 1544.84 206.212 1546.59 L206.212 1541.27 Q209.389 1540 212.149 1539.35 Q214.909 1538.7 217.201 1538.7 Q223.243 1538.7 226.836 1541.72 Q230.43 1544.74 230.43 1549.79 Q230.43 1552.19 229.519 1554.35 Q228.633 1556.48 226.264 1559.4 Q225.613 1560.15 222.123 1563.77 Q218.633 1567.37 212.279 1573.85 Z" fill="#000000" fill-rule="nonzero" fill-opacity="1" /><path clip-path="url(#clip400)" d="M246.211 1573.85 L264.571 1573.85 L264.571 1578.28 L239.883 1578.28 L239.883 1573.85 Q242.878 1570.75 248.034 1565.55 Q253.217 1560.31 254.545 1558.8 Q257.071 1555.96 258.06 1554.01 Q259.076 1552.03 259.076 1550.13 Q259.076 1547.03 256.888 1545.08 Q254.727 1543.12 251.237 1543.12 Q248.763 1543.12 246.003 1543.98 Q243.269 1544.84 240.144 1546.59 L240.144 1541.27 Q243.321 1540 246.081 1539.35 Q248.842 1538.7 251.133 1538.7 Q257.175 1538.7 260.769 1541.72 Q264.362 1544.74 264.362 1549.79 Q264.362 1552.19 263.451 1554.35 Q262.565 1556.48 260.196 1559.4 Q259.545 1560.15 256.055 1563.77 Q252.566 1567.37 246.211 1573.85 Z" fill="#000000" fill-rule="nonzero" fill-opacity="1" /><path clip-path="url(#clip400)" d="M272.513 1561.54 L286.55 1561.54 L286.55 1565.81 L272.513 1565.81 L272.513 1561.54 Z" fill="#000000" fill-rule="nonzero" fill-opacity="1" /><path clip-path="url(#clip400)" d="M306.107 1542.86 Q302.044 1542.86 299.987 1546.87 Q297.956 1550.86 297.956 1558.88 Q297.956 1566.87 299.987 1570.88 Q302.044 1574.87 306.107 1574.87 Q310.195 1574.87 312.227 1570.88 Q314.284 1566.87 314.284 1558.88 Q314.284 1550.86 312.227 1546.87 Q310.195 1542.86 306.107 1542.86 M306.107 1538.7 Q312.643 1538.7 316.081 1543.88 Q319.544 1549.04 319.544 1558.88 Q319.544 1568.7 316.081 1573.88 Q312.643 1579.04 306.107 1579.04 Q299.57 1579.04 296.107 1573.88 Q292.669 1568.7 292.669 1558.88 Q292.669 1549.04 296.107 1543.88 Q299.57 1538.7 306.107 1538.7 Z" fill="#000000" fill-rule="nonzero" fill-opacity="1" /><path clip-path="url(#clip400)" d="M327.461 1539.4 L352.461 1539.4 L352.461 1541.64 L338.346 1578.28 L332.852 1578.28 L346.133 1543.83 L327.461 1543.83 L327.461 1539.4 Z" fill="#000000" fill-rule="nonzero" fill-opacity="1" /><path clip-path="url(#clip400)" d="M359.622 1561.54 L373.659 1561.54 L373.659 1565.81 L359.622 1565.81 L359.622 1561.54 Z" fill="#000000" fill-rule="nonzero" fill-opacity="1" /><path clip-path="url(#clip400)" d="M382.877 1573.85 L391.471 1573.85 L391.471 1544.19 L382.122 1546.07 L382.122 1541.27 L391.419 1539.4 L396.679 1539.4 L396.679 1573.85 L405.273 1573.85 L405.273 1578.28 L382.877 1578.28 L382.877 1573.85 Z" fill="#000000" fill-rule="nonzero" fill-opacity="1" /><path clip-path="url(#clip400)" d="M427.148 1559.82 Q423.398 1559.82 421.236 1561.82 Q419.101 1563.83 419.101 1567.34 Q419.101 1570.86 421.236 1572.86 Q423.398 1574.87 427.148 1574.87 Q430.898 1574.87 433.059 1572.86 Q435.221 1570.83 435.221 1567.34 Q435.221 1563.83 433.059 1561.82 Q430.924 1559.82 427.148 1559.82 M421.888 1557.58 Q418.502 1556.74 416.601 1554.43 Q414.726 1552.11 414.726 1548.77 Q414.726 1544.11 418.033 1541.41 Q421.367 1538.7 427.148 1538.7 Q432.955 1538.7 436.262 1541.41 Q439.57 1544.11 439.57 1548.77 Q439.57 1552.11 437.669 1554.43 Q435.794 1556.74 432.434 1557.58 Q436.236 1558.46 438.346 1561.04 Q440.481 1563.62 440.481 1567.34 Q440.481 1572.99 437.018 1576.01 Q433.58 1579.04 427.148 1579.04 Q420.716 1579.04 417.252 1576.01 Q413.815 1572.99 413.815 1567.34 Q413.815 1563.62 415.95 1561.04 Q418.085 1558.46 421.888 1557.58 M419.96 1549.27 Q419.96 1552.29 421.835 1553.98 Q423.736 1555.68 427.148 1555.68 Q430.533 1555.68 432.434 1553.98 Q434.361 1552.29 434.361 1549.27 Q434.361 1546.25 432.434 1544.56 Q430.533 1542.86 427.148 1542.86 Q423.736 1542.86 421.835 1544.56 Q419.96 1546.25 419.96 1549.27 Z" fill="#000000" fill-rule="nonzero" fill-opacity="1" /><path clip-path="url(#clip400)" d="M951.142 1573.85 L969.501 1573.85 L969.501 1578.28 L944.814 1578.28 L944.814 1573.85 Q947.809 1570.75 952.965 1565.55 Q958.147 1560.31 959.475 1558.8 Q962.001 1555.96 962.991 1554.01 Q964.007 1552.03 964.007 1550.13 Q964.007 1547.03 961.819 1545.08 Q959.658 1543.12 956.168 1543.12 Q953.694 1543.12 950.934 1543.98 Q948.199 1544.84 945.074 1546.59 L945.074 1541.27 Q948.251 1540 951.012 1539.35 Q953.772 1538.7 956.064 1538.7 Q962.106 1538.7 965.699 1541.72 Q969.293 1544.74 969.293 1549.79 Q969.293 1552.19 968.382 1554.35 Q967.496 1556.48 965.126 1559.4 Q964.475 1560.15 960.986 1563.77 Q957.496 1567.37 951.142 1573.85 Z" fill="#000000" fill-rule="nonzero" fill-opacity="1" /><path clip-path="url(#clip400)" d="M991.793 1542.86 Q987.73 1542.86 985.673 1546.87 Q983.642 1550.86 983.642 1558.88 Q983.642 1566.87 985.673 1570.88 Q987.73 1574.87 991.793 1574.87 Q995.881 1574.87 997.913 1570.88 Q999.97 1566.87 999.97 1558.88 Q999.97 1550.86 997.913 1546.87 Q995.881 1542.86 991.793 1542.86 M991.793 1538.7 Q998.329 1538.7 1001.77 1543.88 Q1005.23 1549.04 1005.23 1558.88 Q1005.23 1568.7 1001.77 1573.88 Q998.329 1579.04 991.793 1579.04 Q985.256 1579.04 981.793 1573.88 Q978.355 1568.7 978.355 1558.88 Q978.355 1549.04 981.793 1543.88 Q985.256 1538.7 991.793 1538.7 Z" fill="#000000" fill-rule="nonzero" fill-opacity="1" /><path clip-path="url(#clip400)" d="M1019.01 1573.85 L1037.37 1573.85 L1037.37 1578.28 L1012.68 1578.28 L1012.68 1573.85 Q1015.67 1570.75 1020.83 1565.55 Q1026.01 1560.31 1027.34 1558.8 Q1029.87 1555.96 1030.86 1554.01 Q1031.87 1552.03 1031.87 1550.13 Q1031.87 1547.03 1029.68 1545.08 Q1027.52 1543.12 1024.03 1543.12 Q1021.56 1543.12 1018.8 1543.98 Q1016.06 1544.84 1012.94 1546.59 L1012.94 1541.27 Q1016.12 1540 1018.88 1539.35 Q1021.64 1538.7 1023.93 1538.7 Q1029.97 1538.7 1033.56 1541.72 Q1037.16 1544.74 1037.16 1549.79 Q1037.16 1552.19 1036.25 1554.35 Q1035.36 1556.48 1032.99 1559.4 Q1032.34 1560.15 1028.85 1563.77 Q1025.36 1567.37 1019.01 1573.85 Z" fill="#000000" fill-rule="nonzero" fill-opacity="1" /><path clip-path="url(#clip400)" d="M1052.94 1573.85 L1071.3 1573.85 L1071.3 1578.28 L1046.61 1578.28 L1046.61 1573.85 Q1049.61 1570.75 1054.76 1565.55 Q1059.94 1560.31 1061.27 1558.8 Q1063.8 1555.96 1064.79 1554.01 Q1065.8 1552.03 1065.8 1550.13 Q1065.8 1547.03 1063.62 1545.08 Q1061.45 1543.12 1057.96 1543.12 Q1055.49 1543.12 1052.73 1543.98 Q1050 1544.84 1046.87 1546.59 L1046.87 1541.27 Q1050.05 1540 1052.81 1539.35 Q1055.57 1538.7 1057.86 1538.7 Q1063.9 1538.7 1067.5 1541.72 Q1071.09 1544.74 1071.09 1549.79 Q1071.09 1552.19 1070.18 1554.35 Q1069.29 1556.48 1066.92 1559.4 Q1066.27 1560.15 1062.78 1563.77 Q1059.29 1567.37 1052.94 1573.85 Z" fill="#000000" fill-rule="nonzero" fill-opacity="1" /><path clip-path="url(#clip400)" d="M1079.24 1561.54 L1093.28 1561.54 L1093.28 1565.81 L1079.24 1565.81 L1079.24 1561.54 Z" fill="#000000" fill-rule="nonzero" fill-opacity="1" /><path clip-path="url(#clip400)" d="M1112.83 1542.86 Q1108.77 1542.86 1106.71 1546.87 Q1104.68 1550.86 1104.68 1558.88 Q1104.68 1566.87 1106.71 1570.88 Q1108.77 1574.87 1112.83 1574.87 Q1116.92 1574.87 1118.95 1570.88 Q1121.01 1566.87 1121.01 1558.88 Q1121.01 1550.86 1118.95 1546.87 Q1116.92 1542.86 1112.83 1542.86 M1112.83 1538.7 Q1119.37 1538.7 1122.81 1543.88 Q1126.27 1549.04 1126.27 1558.88 Q1126.27 1568.7 1122.81 1573.88 Q1119.37 1579.04 1112.83 1579.04 Q1106.3 1579.04 1102.83 1573.88 Q1099.4 1568.7 1099.4 1558.88 Q1099.4 1549.04 1102.83 1543.88 Q1106.3 1538.7 1112.83 1538.7 Z" fill="#000000" fill-rule="nonzero" fill-opacity="1" /><path clip-path="url(#clip400)" d="M1134.19 1539.4 L1159.19 1539.4 L1159.19 1541.64 L1145.07 1578.28 L1139.58 1578.28 L1152.86 1543.83 L1134.19 1543.83 L1134.19 1539.4 Z" fill="#000000" fill-rule="nonzero" fill-opacity="1" /><path clip-path="url(#clip400)" d="M1166.35 1561.54 L1180.39 1561.54 L1180.39 1565.81 L1166.35 1565.81 L1166.35 1561.54 Z" fill="#000000" fill-rule="nonzero" fill-opacity="1" /><path clip-path="url(#clip400)" d="M1193.22 1573.85 L1211.58 1573.85 L1211.58 1578.28 L1186.9 1578.28 L1186.9 1573.85 Q1189.89 1570.75 1195.05 1565.55 Q1200.23 1560.31 1201.56 1558.8 Q1204.08 1555.96 1205.07 1554.01 Q1206.09 1552.03 1206.09 1550.13 Q1206.09 1547.03 1203.9 1545.08 Q1201.74 1543.12 1198.25 1543.12 Q1195.78 1543.12 1193.02 1543.98 Q1190.28 1544.84 1187.16 1546.59 L1187.16 1541.27 Q1190.33 1540 1193.09 1539.35 Q1195.85 1538.7 1198.15 1538.7 Q1204.19 1538.7 1207.78 1541.72 Q1211.38 1544.74 1211.38 1549.79 Q1211.38 1552.19 1210.46 1554.35 Q1209.58 1556.48 1207.21 1559.4 Q1206.56 1560.15 1203.07 1563.77 Q1199.58 1567.37 1193.22 1573.85 Z" fill="#000000" fill-rule="nonzero" fill-opacity="1" /><path clip-path="url(#clip400)" d="M1233.87 1542.86 Q1229.81 1542.86 1227.76 1546.87 Q1225.72 1550.86 1225.72 1558.88 Q1225.72 1566.87 1227.76 1570.88 Q1229.81 1574.87 1233.87 1574.87 Q1237.96 1574.87 1239.99 1570.88 Q1242.05 1566.87 1242.05 1558.88 Q1242.05 1550.86 1239.99 1546.87 Q1237.96 1542.86 1233.87 1542.86 M1233.87 1538.7 Q1240.41 1538.7 1243.85 1543.88 Q1247.31 1549.04 1247.31 1558.88 Q1247.31 1568.7 1243.85 1573.88 Q1240.41 1579.04 1233.87 1579.04 Q1227.34 1579.04 1223.87 1573.88 Q1220.44 1568.7 1220.44 1558.88 Q1220.44 1549.04 1223.87 1543.88 Q1227.34 1538.7 1233.87 1538.7 Z" fill="#000000" fill-rule="nonzero" fill-opacity="1" /><path clip-path="url(#clip400)" d="M1758.82 1573.85 L1777.18 1573.85 L1777.18 1578.28 L1752.49 1578.28 L1752.49 1573.85 Q1755.49 1570.75 1760.64 1565.55 Q1765.82 1560.31 1767.15 1558.8 Q1769.68 1555.96 1770.67 1554.01 Q1771.68 1552.03 1771.68 1550.13 Q1771.68 1547.03 1769.5 1545.08 Q1767.34 1543.12 1763.85 1543.12 Q1761.37 1543.12 1758.61 1543.98 Q1755.88 1544.84 1752.75 1546.59 L1752.75 1541.27 Q1755.93 1540 1758.69 1539.35 Q1761.45 1538.7 1763.74 1538.7 Q1769.78 1538.7 1773.38 1541.72 Q1776.97 1544.74 1776.97 1549.79 Q1776.97 1552.19 1776.06 1554.35 Q1775.17 1556.48 1772.8 1559.4 Q1772.15 1560.15 1768.66 1563.77 Q1765.17 1567.37 1758.82 1573.85 Z" fill="#000000" fill-rule="nonzero" fill-opacity="1" /><path clip-path="url(#clip400)" d="M1799.47 1542.86 Q1795.41 1542.86 1793.35 1546.87 Q1791.32 1550.86 1791.32 1558.88 Q1791.32 1566.87 1793.35 1570.88 Q1795.41 1574.87 1799.47 1574.87 Q1803.56 1574.87 1805.59 1570.88 Q1807.65 1566.87 1807.65 1558.88 Q1807.65 1550.86 1805.59 1546.87 Q1803.56 1542.86 1799.47 1542.86 M1799.47 1538.7 Q1806.01 1538.7 1809.44 1543.88 Q1812.91 1549.04 1812.91 1558.88 Q1812.91 1568.7 1809.44 1573.88 Q1806.01 1579.04 1799.47 1579.04 Q1792.93 1579.04 1789.47 1573.88 Q1786.03 1568.7 1786.03 1558.88 Q1786.03 1549.04 1789.47 1543.88 Q1792.93 1538.7 1799.47 1538.7 Z" fill="#000000" fill-rule="nonzero" fill-opacity="1" /><path clip-path="url(#clip400)" d="M1826.68 1573.85 L1845.04 1573.85 L1845.04 1578.28 L1820.36 1578.28 L1820.36 1573.85 Q1823.35 1570.75 1828.51 1565.55 Q1833.69 1560.31 1835.02 1558.8 Q1837.54 1555.96 1838.53 1554.01 Q1839.55 1552.03 1839.55 1550.13 Q1839.55 1547.03 1837.36 1545.08 Q1835.2 1543.12 1831.71 1543.12 Q1829.24 1543.12 1826.48 1543.98 Q1823.74 1544.84 1820.62 1546.59 L1820.62 1541.27 Q1823.79 1540 1826.55 1539.35 Q1829.31 1538.7 1831.61 1538.7 Q1837.65 1538.7 1841.24 1541.72 Q1844.83 1544.74 1844.83 1549.79 Q1844.83 1552.19 1843.92 1554.35 Q1843.04 1556.48 1840.67 1559.4 Q1840.02 1560.15 1836.53 1563.77 Q1833.04 1567.37 1826.68 1573.85 Z" fill="#000000" fill-rule="nonzero" fill-opacity="1" /><path clip-path="url(#clip400)" d="M1860.62 1573.85 L1878.98 1573.85 L1878.98 1578.28 L1854.29 1578.28 L1854.29 1573.85 Q1857.28 1570.75 1862.44 1565.55 Q1867.62 1560.31 1868.95 1558.8 Q1871.48 1555.96 1872.46 1554.01 Q1873.48 1552.03 1873.48 1550.13 Q1873.48 1547.03 1871.29 1545.08 Q1869.13 1543.12 1865.64 1543.12 Q1863.17 1543.12 1860.41 1543.98 Q1857.67 1544.84 1854.55 1546.59 L1854.55 1541.27 Q1857.73 1540 1860.49 1539.35 Q1863.25 1538.7 1865.54 1538.7 Q1871.58 1538.7 1875.17 1541.72 Q1878.77 1544.74 1878.77 1549.79 Q1878.77 1552.19 1877.86 1554.35 Q1876.97 1556.48 1874.6 1559.4 Q1873.95 1560.15 1870.46 1563.77 Q1866.97 1567.37 1860.62 1573.85 Z" fill="#000000" fill-rule="nonzero" fill-opacity="1" /><path clip-path="url(#clip400)" d="M1886.92 1561.54 L1900.95 1561.54 L1900.95 1565.81 L1886.92 1565.81 L1886.92 1561.54 Z" fill="#000000" fill-rule="nonzero" fill-opacity="1" /><path clip-path="url(#clip400)" d="M1920.51 1542.86 Q1916.45 1542.86 1914.39 1546.87 Q1912.36 1550.86 1912.36 1558.88 Q1912.36 1566.87 1914.39 1570.88 Q1916.45 1574.87 1920.51 1574.87 Q1924.6 1574.87 1926.63 1570.88 Q1928.69 1566.87 1928.69 1558.88 Q1928.69 1550.86 1926.63 1546.87 Q1924.6 1542.86 1920.51 1542.86 M1920.51 1538.7 Q1927.05 1538.7 1930.49 1543.88 Q1933.95 1549.04 1933.95 1558.88 Q1933.95 1568.7 1930.49 1573.88 Q1927.05 1579.04 1920.51 1579.04 Q1913.97 1579.04 1910.51 1573.88 Q1907.07 1568.7 1907.07 1558.88 Q1907.07 1549.04 1910.51 1543.88 Q1913.97 1538.7 1920.51 1538.7 Z" fill="#000000" fill-rule="nonzero" fill-opacity="1" /><path clip-path="url(#clip400)" d="M1941.87 1539.4 L1966.87 1539.4 L1966.87 1541.64 L1952.75 1578.28 L1947.26 1578.28 L1960.54 1543.83 L1941.87 1543.83 L1941.87 1539.4 Z" fill="#000000" fill-rule="nonzero" fill-opacity="1" /><path clip-path="url(#clip400)" d="M1974.03 1561.54 L1988.06 1561.54 L1988.06 1565.81 L1974.03 1565.81 L1974.03 1561.54 Z" fill="#000000" fill-rule="nonzero" fill-opacity="1" /><path clip-path="url(#clip400)" d="M2000.9 1573.85 L2019.26 1573.85 L2019.26 1578.28 L1994.57 1578.28 L1994.57 1573.85 Q1997.57 1570.75 2002.72 1565.55 Q2007.91 1560.31 2009.23 1558.8 Q2011.76 1555.96 2012.75 1554.01 Q2013.77 1552.03 2013.77 1550.13 Q2013.77 1547.03 2011.58 1545.08 Q2009.42 1543.12 2005.93 1543.12 Q2003.45 1543.12 2000.69 1543.98 Q1997.96 1544.84 1994.83 1546.59 L1994.83 1541.27 Q1998.01 1540 2000.77 1539.35 Q2003.53 1538.7 2005.82 1538.7 Q2011.87 1538.7 2015.46 1541.72 Q2019.05 1544.74 2019.05 1549.79 Q2019.05 1552.19 2018.14 1554.35 Q2017.26 1556.48 2014.89 1559.4 Q2014.23 1560.15 2010.75 1563.77 Q2007.26 1567.37 2000.9 1573.85 Z" fill="#000000" fill-rule="nonzero" fill-opacity="1" /><path clip-path="url(#clip400)" d="M2034.83 1573.85 L2053.19 1573.85 L2053.19 1578.28 L2028.51 1578.28 L2028.51 1573.85 Q2031.5 1570.75 2036.66 1565.55 Q2041.84 1560.31 2043.17 1558.8 Q2045.69 1555.96 2046.68 1554.01 Q2047.7 1552.03 2047.7 1550.13 Q2047.7 1547.03 2045.51 1545.08 Q2043.35 1543.12 2039.86 1543.12 Q2037.39 1543.12 2034.63 1543.98 Q2031.89 1544.84 2028.77 1546.59 L2028.77 1541.27 Q2031.94 1540 2034.7 1539.35 Q2037.46 1538.7 2039.76 1538.7 Q2045.8 1538.7 2049.39 1541.72 Q2052.98 1544.74 2052.98 1549.79 Q2052.98 1552.19 2052.07 1554.35 Q2051.19 1556.48 2048.82 1559.4 Q2048.17 1560.15 2044.68 1563.77 Q2041.19 1567.37 2034.83 1573.85 Z" fill="#000000" fill-rule="nonzero" fill-opacity="1" /><path clip-path="url(#clip400)" d="M2564.43 1573.85 L2582.79 1573.85 L2582.79 1578.28 L2558.1 1578.28 L2558.1 1573.85 Q2561.09 1570.75 2566.25 1565.55 Q2571.43 1560.31 2572.76 1558.8 Q2575.29 1555.96 2576.28 1554.01 Q2577.29 1552.03 2577.29 1550.13 Q2577.29 1547.03 2575.1 1545.08 Q2572.94 1543.12 2569.45 1543.12 Q2566.98 1543.12 2564.22 1543.98 Q2561.48 1544.84 2558.36 1546.59 L2558.36 1541.27 Q2561.54 1540 2564.3 1539.35 Q2567.06 1538.7 2569.35 1538.7 Q2575.39 1538.7 2578.98 1541.72 Q2582.58 1544.74 2582.58 1549.79 Q2582.58 1552.19 2581.67 1554.35 Q2580.78 1556.48 2578.41 1559.4 Q2577.76 1560.15 2574.27 1563.77 Q2570.78 1567.37 2564.43 1573.85 Z" fill="#000000" fill-rule="nonzero" fill-opacity="1" /><path clip-path="url(#clip400)" d="M2605.08 1542.86 Q2601.02 1542.86 2598.96 1546.87 Q2596.93 1550.86 2596.93 1558.88 Q2596.93 1566.87 2598.96 1570.88 Q2601.02 1574.87 2605.08 1574.87 Q2609.17 1574.87 2611.2 1570.88 Q2613.25 1566.87 2613.25 1558.88 Q2613.25 1550.86 2611.2 1546.87 Q2609.17 1542.86 2605.08 1542.86 M2605.08 1538.7 Q2611.61 1538.7 2615.05 1543.88 Q2618.52 1549.04 2618.52 1558.88 Q2618.52 1568.7 2615.05 1573.88 Q2611.61 1579.04 2605.08 1579.04 Q2598.54 1579.04 2595.08 1573.88 Q2591.64 1568.7 2591.64 1558.88 Q2591.64 1549.04 2595.08 1543.88 Q2598.54 1538.7 2605.08 1538.7 Z" fill="#000000" fill-rule="nonzero" fill-opacity="1" /><path clip-path="url(#clip400)" d="M2632.29 1573.85 L2650.65 1573.85 L2650.65 1578.28 L2625.96 1578.28 L2625.96 1573.85 Q2628.96 1570.75 2634.11 1565.55 Q2639.3 1560.31 2640.62 1558.8 Q2643.15 1555.96 2644.14 1554.01 Q2645.16 1552.03 2645.16 1550.13 Q2645.16 1547.03 2642.97 1545.08 Q2640.81 1543.12 2637.32 1543.12 Q2634.84 1543.12 2632.08 1543.98 Q2629.35 1544.84 2626.22 1546.59 L2626.22 1541.27 Q2629.4 1540 2632.16 1539.35 Q2634.92 1538.7 2637.21 1538.7 Q2643.25 1538.7 2646.85 1541.72 Q2650.44 1544.74 2650.44 1549.79 Q2650.44 1552.19 2649.53 1554.35 Q2648.65 1556.48 2646.28 1559.4 Q2645.62 1560.15 2642.13 1563.77 Q2638.65 1567.37 2632.29 1573.85 Z" fill="#000000" fill-rule="nonzero" fill-opacity="1" /><path clip-path="url(#clip400)" d="M2666.22 1573.85 L2684.58 1573.85 L2684.58 1578.28 L2659.9 1578.28 L2659.9 1573.85 Q2662.89 1570.75 2668.05 1565.55 Q2673.23 1560.31 2674.56 1558.8 Q2677.08 1555.96 2678.07 1554.01 Q2679.09 1552.03 2679.09 1550.13 Q2679.09 1547.03 2676.9 1545.08 Q2674.74 1543.12 2671.25 1543.12 Q2668.78 1543.12 2666.01 1543.98 Q2663.28 1544.84 2660.16 1546.59 L2660.16 1541.27 Q2663.33 1540 2666.09 1539.35 Q2668.85 1538.7 2671.14 1538.7 Q2677.19 1538.7 2680.78 1541.72 Q2684.37 1544.74 2684.37 1549.79 Q2684.37 1552.19 2683.46 1554.35 Q2682.58 1556.48 2680.21 1559.4 Q2679.56 1560.15 2676.07 1563.77 Q2672.58 1567.37 2666.22 1573.85 Z" fill="#000000" fill-rule="nonzero" fill-opacity="1" /><path clip-path="url(#clip400)" d="M2692.53 1561.54 L2706.56 1561.54 L2706.56 1565.81 L2692.53 1565.81 L2692.53 1561.54 Z" fill="#000000" fill-rule="nonzero" fill-opacity="1" /><path clip-path="url(#clip400)" d="M2726.12 1542.86 Q2722.06 1542.86 2720 1546.87 Q2717.97 1550.86 2717.97 1558.88 Q2717.97 1566.87 2720 1570.88 Q2722.06 1574.87 2726.12 1574.87 Q2730.21 1574.87 2732.24 1570.88 Q2734.3 1566.87 2734.3 1558.88 Q2734.3 1550.86 2732.24 1546.87 Q2730.21 1542.86 2726.12 1542.86 M2726.12 1538.7 Q2732.66 1538.7 2736.09 1543.88 Q2739.56 1549.04 2739.56 1558.88 Q2739.56 1568.7 2736.09 1573.88 Q2732.66 1579.04 2726.12 1579.04 Q2719.58 1579.04 2716.12 1573.88 Q2712.68 1568.7 2712.68 1558.88 Q2712.68 1549.04 2716.12 1543.88 Q2719.58 1538.7 2726.12 1538.7 Z" fill="#000000" fill-rule="nonzero" fill-opacity="1" /><path clip-path="url(#clip400)" d="M2747.47 1539.4 L2772.47 1539.4 L2772.47 1541.64 L2758.36 1578.28 L2752.86 1578.28 L2766.14 1543.83 L2747.47 1543.83 L2747.47 1539.4 Z" fill="#000000" fill-rule="nonzero" fill-opacity="1" /><path clip-path="url(#clip400)" d="M2779.63 1561.54 L2793.67 1561.54 L2793.67 1565.81 L2779.63 1565.81 L2779.63 1561.54 Z" fill="#000000" fill-rule="nonzero" fill-opacity="1" /><path clip-path="url(#clip400)" d="M2806.51 1573.85 L2824.87 1573.85 L2824.87 1578.28 L2800.18 1578.28 L2800.18 1573.85 Q2803.18 1570.75 2808.33 1565.55 Q2813.51 1560.31 2814.84 1558.8 Q2817.37 1555.96 2818.36 1554.01 Q2819.37 1552.03 2819.37 1550.13 Q2819.37 1547.03 2817.19 1545.08 Q2815.02 1543.12 2811.53 1543.12 Q2809.06 1543.12 2806.3 1543.98 Q2803.57 1544.84 2800.44 1546.59 L2800.44 1541.27 Q2803.62 1540 2806.38 1539.35 Q2809.14 1538.7 2811.43 1538.7 Q2817.47 1538.7 2821.07 1541.72 Q2824.66 1544.74 2824.66 1549.79 Q2824.66 1552.19 2823.75 1554.35 Q2822.86 1556.48 2820.49 1559.4 Q2819.84 1560.15 2816.35 1563.77 Q2812.86 1567.37 2806.51 1573.85 Z" fill="#000000" fill-rule="nonzero" fill-opacity="1" /><path clip-path="url(#clip400)" d="M2850.36 1543.98 L2837.08 1564.74 L2850.36 1564.74 L2850.36 1543.98 M2848.98 1539.4 L2855.6 1539.4 L2855.6 1564.74 L2861.14 1564.74 L2861.14 1569.11 L2855.6 1569.11 L2855.6 1578.28 L2850.36 1578.28 L2850.36 1569.11 L2832.81 1569.11 L2832.81 1564.04 L2848.98 1539.4 Z" fill="#000000" fill-rule="nonzero" fill-opacity="1" /><polyline clip-path="url(#clip402)" style="stroke:#000000; stroke-linecap:round; stroke-linejoin:round; stroke-width:2; stroke-opacity:0.1; fill:none" points="205.077,1211.53 3180.41,1211.53 "/>
<polyline clip-path="url(#clip402)" style="stroke:#000000; stroke-linecap:round; stroke-linejoin:round; stroke-width:2; stroke-opacity:0.1; fill:none" points="205.077,848.964 3180.41,848.964 "/>
<polyline clip-path="url(#clip402)" style="stroke:#000000; stroke-linecap:round; stroke-linejoin:round; stroke-width:2; stroke-opacity:0.1; fill:none" points="205.077,486.395 3180.41,486.395 "/>
<polyline clip-path="url(#clip402)" style="stroke:#000000; stroke-linecap:round; stroke-linejoin:round; stroke-width:2; stroke-opacity:0.1; fill:none" points="205.077,123.826 3180.41,123.826 "/>
<polyline clip-path="url(#clip400)" style="stroke:#000000; stroke-linecap:round; stroke-linejoin:round; stroke-width:4; stroke-opacity:1; fill:none" points="205.077,1497.68 205.077,47.2441 "/>
<polyline clip-path="url(#clip400)" style="stroke:#000000; stroke-linecap:round; stroke-linejoin:round; stroke-width:4; stroke-opacity:1; fill:none" points="205.077,1211.53 220.08,1211.53 "/>
<polyline clip-path="url(#clip400)" style="stroke:#000000; stroke-linecap:round; stroke-linejoin:round; stroke-width:4; stroke-opacity:1; fill:none" points="205.077,848.964 220.08,848.964 "/>
<polyline clip-path="url(#clip400)" style="stroke:#000000; stroke-linecap:round; stroke-linejoin:round; stroke-width:4; stroke-opacity:1; fill:none" points="205.077,486.395 220.08,486.395 "/>
<polyline clip-path="url(#clip400)" style="stroke:#000000; stroke-linecap:round; stroke-linejoin:round; stroke-width:4; stroke-opacity:1; fill:none" points="205.077,123.826 220.08,123.826 "/>
<path clip-path="url(#clip400)" d="M88.4883 1226.55 L97.082 1226.55 L97.082 1196.88 L87.7331 1198.76 L87.7331 1193.97 L97.0299 1192.09 L102.29 1192.09 L102.29 1226.55 L110.884 1226.55 L110.884 1230.97 L88.4883 1230.97 L88.4883 1226.55 Z" fill="#000000" fill-rule="nonzero" fill-opacity="1" /><path clip-path="url(#clip400)" d="M121.561 1192.09 L142.212 1192.09 L142.212 1196.52 L126.379 1196.52 L126.379 1206.05 Q127.525 1205.66 128.67 1205.48 Q129.816 1205.27 130.962 1205.27 Q137.472 1205.27 141.274 1208.84 Q145.077 1212.41 145.077 1218.5 Q145.077 1224.78 141.17 1228.26 Q137.264 1231.73 130.155 1231.73 Q127.707 1231.73 125.155 1231.31 Q122.629 1230.89 119.92 1230.06 L119.92 1224.78 Q122.264 1226.05 124.764 1226.68 Q127.264 1227.3 130.051 1227.3 Q134.556 1227.3 137.186 1224.93 Q139.816 1222.56 139.816 1218.5 Q139.816 1214.44 137.186 1212.07 Q134.556 1209.7 130.051 1209.7 Q127.941 1209.7 125.832 1210.17 Q123.748 1210.63 121.561 1211.62 L121.561 1192.09 Z" fill="#000000" fill-rule="nonzero" fill-opacity="1" /><path clip-path="url(#clip400)" d="M90.9882 863.977 L109.348 863.977 L109.348 868.404 L84.6602 868.404 L84.6602 863.977 Q87.6549 860.878 92.8112 855.67 Q97.9934 850.435 99.3215 848.925 Q101.848 846.086 102.837 844.133 Q103.853 842.154 103.853 840.253 Q103.853 837.154 101.665 835.201 Q99.5038 833.248 96.0143 833.248 Q93.5403 833.248 90.7799 834.107 Q88.0456 834.967 84.9206 836.712 L84.9206 831.399 Q88.0976 830.123 90.858 829.472 Q93.6184 828.821 95.9101 828.821 Q101.952 828.821 105.545 831.842 Q109.139 834.863 109.139 839.915 Q109.139 842.31 108.228 844.472 Q107.342 846.607 104.973 849.524 Q104.322 850.279 100.832 853.899 Q97.3424 857.493 90.9882 863.977 Z" fill="#000000" fill-rule="nonzero" fill-opacity="1" /><path clip-path="url(#clip400)" d="M131.639 832.988 Q127.577 832.988 125.519 836.998 Q123.488 840.982 123.488 849.003 Q123.488 856.998 125.519 861.008 Q127.577 864.993 131.639 864.993 Q135.728 864.993 137.759 861.008 Q139.816 856.998 139.816 849.003 Q139.816 840.982 137.759 836.998 Q135.728 832.988 131.639 832.988 M131.639 828.821 Q138.175 828.821 141.613 834.003 Q145.077 839.159 145.077 849.003 Q145.077 858.821 141.613 864.003 Q138.175 869.159 131.639 869.159 Q125.103 869.159 121.639 864.003 Q118.202 858.821 118.202 849.003 Q118.202 839.159 121.639 834.003 Q125.103 828.821 131.639 828.821 Z" fill="#000000" fill-rule="nonzero" fill-opacity="1" /><path clip-path="url(#clip400)" d="M92.108 501.408 L110.467 501.408 L110.467 505.835 L85.7799 505.835 L85.7799 501.408 Q88.7747 498.309 93.9309 493.101 Q99.1132 487.866 100.441 486.356 Q102.967 483.517 103.957 481.564 Q104.973 479.585 104.973 477.684 Q104.973 474.585 102.785 472.632 Q100.624 470.679 97.134 470.679 Q94.6601 470.679 91.8997 471.538 Q89.1653 472.398 86.0404 474.142 L86.0404 468.83 Q89.2174 467.554 91.9778 466.903 Q94.7382 466.252 97.0299 466.252 Q103.072 466.252 106.665 469.273 Q110.259 472.294 110.259 477.346 Q110.259 479.741 109.348 481.903 Q108.462 484.038 106.092 486.955 Q105.441 487.71 101.952 491.33 Q98.4622 494.924 92.108 501.408 Z" fill="#000000" fill-rule="nonzero" fill-opacity="1" /><path clip-path="url(#clip400)" d="M121.561 466.955 L142.212 466.955 L142.212 471.382 L126.379 471.382 L126.379 480.913 Q127.525 480.523 128.67 480.34 Q129.816 480.132 130.962 480.132 Q137.472 480.132 141.274 483.7 Q145.077 487.267 145.077 493.361 Q145.077 499.637 141.17 503.127 Q137.264 506.59 130.155 506.59 Q127.707 506.59 125.155 506.174 Q122.629 505.757 119.92 504.924 L119.92 499.637 Q122.264 500.913 124.764 501.538 Q127.264 502.163 130.051 502.163 Q134.556 502.163 137.186 499.793 Q139.816 497.424 139.816 493.361 Q139.816 489.299 137.186 486.929 Q134.556 484.559 130.051 484.559 Q127.941 484.559 125.832 485.028 Q123.748 485.497 121.561 486.486 L121.561 466.955 Z" fill="#000000" fill-rule="nonzero" fill-opacity="1" /><path clip-path="url(#clip400)" d="M102.394 122.303 Q106.17 123.11 108.28 125.662 Q110.415 128.214 110.415 131.964 Q110.415 137.719 106.457 140.87 Q102.499 144.021 95.207 144.021 Q92.7591 144.021 90.1549 143.526 Q87.5768 143.058 84.8164 142.094 L84.8164 137.016 Q87.0039 138.292 89.608 138.943 Q92.2122 139.594 95.0507 139.594 Q99.9986 139.594 102.577 137.641 Q105.181 135.688 105.181 131.964 Q105.181 128.526 102.759 126.599 Q100.363 124.646 96.0663 124.646 L91.5351 124.646 L91.5351 120.323 L96.2747 120.323 Q100.155 120.323 102.212 118.787 Q104.269 117.224 104.269 114.308 Q104.269 111.313 102.134 109.724 Q100.025 108.11 96.0663 108.11 Q93.9049 108.11 91.431 108.579 Q88.957 109.047 85.9883 110.037 L85.9883 105.349 Q88.9831 104.516 91.5872 104.099 Q94.2174 103.683 96.5351 103.683 Q102.525 103.683 106.014 106.417 Q109.504 109.125 109.504 113.761 Q109.504 116.99 107.655 119.23 Q105.806 121.443 102.394 122.303 Z" fill="#000000" fill-rule="nonzero" fill-opacity="1" /><path clip-path="url(#clip400)" d="M131.639 107.849 Q127.577 107.849 125.519 111.86 Q123.488 115.844 123.488 123.865 Q123.488 131.86 125.519 135.87 Q127.577 139.854 131.639 139.854 Q135.728 139.854 137.759 135.87 Q139.816 131.86 139.816 123.865 Q139.816 115.844 137.759 111.86 Q135.728 107.849 131.639 107.849 M131.639 103.683 Q138.175 103.683 141.613 108.865 Q145.077 114.021 145.077 123.865 Q145.077 133.683 141.613 138.865 Q138.175 144.021 131.639 144.021 Q125.103 144.021 121.639 138.865 Q118.202 133.683 118.202 123.865 Q118.202 114.021 121.639 108.865 Q125.103 103.683 131.639 103.683 Z" fill="#000000" fill-rule="nonzero" fill-opacity="1" /><path clip-path="url(#clip400)" d="M-31.4998 930.013 L-31.4998 924.168 L11.7002 924.168 L11.7002 930.013 L-31.4998 930.013 Z" fill="#000000" fill-rule="nonzero" fill-opacity="1" /><path clip-path="url(#clip400)" d="M-7.85992 885.829 L11.7002 885.829 L11.7002 891.153 L-7.68631 891.153 Q-12.287 891.153 -14.5728 892.947 Q-16.8587 894.741 -16.8587 898.329 Q-16.8587 902.641 -14.1099 905.129 Q-11.3611 907.618 -6.61572 907.618 L11.7002 907.618 L11.7002 912.97 L-20.7071 912.97 L-20.7071 907.618 L-15.6724 907.618 Q-18.5948 905.708 -20.0416 903.133 Q-21.4883 900.528 -21.4883 897.143 Q-21.4883 891.559 -18.0161 888.694 Q-14.5728 885.829 -7.85992 885.829 Z" fill="#000000" fill-rule="nonzero" fill-opacity="1" /><path clip-path="url(#clip400)" d="M-33.3227 858.804 L-28.8957 858.804 L-28.8957 863.897 Q-28.8957 866.761 -27.7383 867.89 Q-26.5809 868.989 -23.5716 868.989 L-20.7071 868.989 L-20.7071 860.222 L-16.5694 860.222 L-16.5694 868.989 L11.7002 868.989 L11.7002 874.342 L-16.5694 874.342 L-16.5694 879.435 L-20.7071 879.435 L-20.7071 874.342 L-22.964 874.342 Q-28.3749 874.342 -30.8343 871.825 Q-33.3227 869.308 -33.3227 863.839 L-33.3227 858.804 Z" fill="#000000" fill-rule="nonzero" fill-opacity="1" /><path clip-path="url(#clip400)" d="M-33.3227 854.348 L-33.3227 849.024 L11.7002 849.024 L11.7002 854.348 L-33.3227 854.348 Z" fill="#000000" fill-rule="nonzero" fill-opacity="1" /><path clip-path="url(#clip400)" d="M-16.9745 825.326 Q-16.9745 829.609 -13.618 832.097 Q-10.2905 834.585 -4.47452 834.585 Q1.34142 834.585 4.69788 832.126 Q8.02541 829.638 8.02541 825.326 Q8.02541 821.073 4.66895 818.584 Q1.31248 816.096 -4.47452 816.096 Q-10.2326 816.096 -13.5891 818.584 Q-16.9745 821.073 -16.9745 825.326 M-21.4883 825.326 Q-21.4883 818.382 -16.9745 814.418 Q-12.4606 810.454 -4.47452 810.454 Q3.48261 810.454 8.02541 814.418 Q12.5393 818.382 12.5393 825.326 Q12.5393 832.3 8.02541 836.264 Q3.48261 840.199 -4.47452 840.199 Q-12.4606 840.199 -16.9745 836.264 Q-21.4883 832.3 -21.4883 825.326 Z" fill="#000000" fill-rule="nonzero" fill-opacity="1" /><path clip-path="url(#clip400)" d="M-20.7071 804.725 L-20.7071 799.4 L4.58214 792.745 L-20.7071 786.119 L-20.7071 779.84 L4.58214 773.185 L-20.7071 766.559 L-20.7071 761.235 L11.7002 769.713 L11.7002 775.992 L-14.8622 782.965 L11.7002 789.968 L11.7002 796.247 L-20.7071 804.725 Z" fill="#000000" fill-rule="nonzero" fill-opacity="1" /><path clip-path="url(#clip400)" d="M-33.3227 734.818 L-33.3227 722.549 L-29.185 722.549 L-29.185 729.493 L15.3749 729.493 L15.3749 722.549 L19.5126 722.549 L19.5126 734.818 L-33.3227 734.818 Z" fill="#000000" fill-rule="nonzero" fill-opacity="1" /><path clip-path="url(#clip400)" d="M-31.4998 710.975 L-31.4998 705.13 L6.7812 705.13 L6.7812 684.094 L11.7002 684.094 L11.7002 710.975 L-31.4998 710.975 Z" fill="#000000" fill-rule="nonzero" fill-opacity="1" /><path clip-path="url(#clip400)" d="M-31.4998 668.73 L-31.4998 663.811 L17.1978 678.857 L17.1978 683.776 L-31.4998 668.73 Z" fill="#000000" fill-rule="nonzero" fill-opacity="1" /><path clip-path="url(#clip400)" d="M-19.7522 637.567 L-14.7175 637.567 Q-15.8749 639.824 -16.4536 642.254 Q-17.0323 644.685 -17.0323 647.289 Q-17.0323 651.253 -15.8171 653.25 Q-14.6018 655.217 -12.1712 655.217 Q-10.3194 655.217 -9.2488 653.799 Q-8.20714 652.382 -7.25229 648.099 L-6.8472 646.276 Q-5.63193 640.605 -3.40393 638.232 Q-1.20487 635.831 2.75923 635.831 Q7.2731 635.831 9.90619 639.419 Q12.5393 642.978 12.5393 649.228 Q12.5393 651.832 12.0184 654.667 Q11.5265 657.474 10.5138 660.599 L5.01617 660.599 Q6.54972 657.648 7.33097 654.783 Q8.08328 651.919 8.08328 649.112 Q8.08328 645.35 6.81014 643.325 Q5.50806 641.299 3.16432 641.299 Q0.994196 641.299 -0.163205 642.775 Q-1.32061 644.222 -2.3912 649.17 L-2.82523 651.022 Q-3.86689 655.97 -6.00808 658.169 Q-8.17821 660.368 -11.9398 660.368 Q-16.5115 660.368 -18.9999 657.127 Q-21.4883 653.886 -21.4883 647.926 Q-21.4883 644.974 -21.0543 642.37 Q-20.6203 639.766 -19.7522 637.567 Z" fill="#000000" fill-rule="nonzero" fill-opacity="1" /><path clip-path="url(#clip400)" d="M-33.3227 614.911 L19.5126 614.911 L19.5126 627.179 L15.3749 627.179 L15.3749 620.264 L-29.185 620.264 L-29.185 627.179 L-33.3227 627.179 L-33.3227 614.911 Z" fill="#000000" fill-rule="nonzero" fill-opacity="1" /><polyline clip-path="url(#clip402)" style="stroke:#023eff; stroke-linecap:round; stroke-linejoin:round; stroke-width:5; stroke-opacity:1; fill:none" points="289.284,1165.76 306.092,1187.6 322.9,1368.29 339.708,1368.29 356.516,1358.17 373.324,1370.69 390.131,902.417 406.939,380.628 423.747,282.23 440.555,282.23 457.363,282.23 474.171,371.47 490.979,371.47 507.787,428.199 524.595,428.199 541.403,589.964 558.21,663.928 575.018,548.658 591.826,480.189 608.634,480.189 625.442,480.189 642.25,589.964 659.058,835.05 675.866,1018.56 692.674,1221.25 709.482,1334.67 726.289,1420.16 743.097,1420.16 759.905,1334.67 776.713,1221.25 793.521,978.17 810.329,333.343 827.137,185.119 843.945,185.119 860.753,254.787 877.56,402.282 894.368,402.282 911.176,429.56 927.984,502.067 944.792,551.567 961.6,655.919 978.408,502.067 995.216,502.067 1012.02,551.567 1028.83,551.567 1045.64,689.568 1062.45,891.938 1079.26,1027.62 1096.06,1221.25 1112.87,1334.67 1129.68,1420.16 1146.49,1420.16 1163.29,1334.67 1180.1,1221.25 1196.91,978.17 1213.72,333.343 1230.53,185.119 1247.33,185.119 1264.14,254.787 1280.95,402.282 1297.76,402.282 1314.57,402.282 1331.37,502.067 1348.18,655.919 1364.99,502.067 1381.8,655.919 1398.61,551.567 1415.41,502.067 1432.22,502.067 1449.03,689.568 1465.84,891.938 1482.64,995.029 1499.45,1221.25 1516.26,1334.67 1533.07,1334.67 1549.88,1420.16 1566.68,1334.67 1583.49,1221.25 1600.3,978.17 1617.11,333.343 1633.92,254.787 1650.72,185.119 1667.53,185.119 1684.34,402.282 1701.15,402.282 1717.96,402.282 1734.76,551.567 1751.57,502.067 1768.38,551.567 1785.19,551.567 1801.99,551.567 1818.8,502.067 1835.61,502.067 1852.42,689.568 1869.23,891.938 1886.03,995.029 1902.84,1221.25 1919.65,1221.25 1936.46,1334.67 1953.27,1334.67 1970.07,1334.67 1986.88,1221.25 2003.69,978.17 2020.5,333.343 2037.31,185.119 2054.11,429.56 2070.92,254.787 2087.73,402.282 2104.54,429.56 2121.34,429.56 2138.15,551.567 2154.96,502.067 2171.77,655.919 2188.58,655.919 2205.38,655.919 2222.19,502.067 2239,655.919 2255.81,818.655 2272.62,995.029 2289.42,1030.2 2306.23,1030.2 2323.04,1341.83 2339.85,1334.67 2356.66,1420.16 2373.46,1334.67 2390.27,1334.67 2407.08,1148.04 2423.89,835.76 2440.69,401.071 2457.5,401.071 2474.31,401.071 2491.12,563.535 2507.93,472.204 2524.73,472.204 2541.54,701.489 2558.35,791.081 2575.16,701.489 2591.97,701.489 2608.77,701.489 2625.58,701.489 2642.39,791.081 2659.2,806.44 2676.01,791.081 2692.81,980.394 2709.62,1221.25 2726.43,1341.83 2743.24,1334.67 2760.05,1334.67 2776.85,1420.16 2793.66,1420.16 2810.47,1148.04 2827.28,1030.2 2844.08,674.245 2860.89,401.071 2877.7,267.379 2894.51,563.535 2911.32,674.245 2928.12,674.245 2944.93,791.081 2961.74,791.081 2978.55,791.081 2995.36,701.489 3012.16,701.489 3028.97,791.081 3045.78,701.489 3062.59,791.081 3079.4,791.081 3096.2,791.081 "/>
<polyline clip-path="url(#clip402)" style="stroke:#ff7c00; stroke-linecap:round; stroke-linejoin:round; stroke-width:5; stroke-opacity:1; fill:none" points="289.284,1185.84 306.092,1150.97 322.9,1395.52 339.708,1395.52 356.516,1434.92 373.324,1325.74 390.131,977.298 406.939,1030.97 423.747,178.258 440.555,178.258 457.363,255.739 474.171,370.985 490.979,217.822 507.787,217.822 524.595,582.172 541.403,576.698 558.21,599.492 575.018,576.698 591.826,494.959 608.634,494.959 625.442,494.959 642.25,656.518 659.058,880.749 675.866,1020.53 692.674,1140.38 709.482,1140.38 726.289,1379.48 743.097,1379.48 759.905,1379.48 776.713,1328.6 793.521,917.299 810.329,332.007 827.137,168.74 843.945,168.74 860.753,251.73 877.56,303.516 894.368,303.516 911.176,303.516 927.984,468.723 944.792,525.001 961.6,525.001 978.408,514.348 995.216,514.348 1012.02,514.348 1028.83,525.001 1045.64,690.723 1062.45,885.274 1079.26,989.866 1096.06,1140.38 1112.87,1140.38 1129.68,1379.48 1146.49,1379.48 1163.29,1379.48 1180.1,917.299 1196.91,1237.64 1213.72,332.007 1230.53,168.74 1247.33,168.74 1264.14,251.73 1280.95,303.516 1297.76,303.516 1314.57,303.516 1331.37,468.723 1348.18,525.001 1364.99,514.348 1381.8,525.001 1398.61,514.348 1415.41,514.348 1432.22,514.348 1449.03,690.723 1465.84,885.274 1482.64,989.866 1499.45,1140.38 1516.26,1140.38 1533.07,1379.48 1549.88,1379.48 1566.68,1379.48 1583.49,1328.6 1600.3,917.299 1617.11,332.007 1633.92,168.74 1650.72,168.74 1667.53,251.73 1684.34,303.516 1701.15,303.516 1717.96,303.516 1734.76,468.723 1751.57,514.348 1768.38,514.348 1785.19,514.348 1801.99,514.348 1818.8,514.348 1835.61,514.348 1852.42,690.723 1869.23,885.274 1886.03,989.866 1902.84,1140.38 1919.65,1140.38 1936.46,1379.48 1953.27,1379.48 1970.07,1379.48 1986.88,1328.6 2003.69,917.299 2020.5,332.007 2037.31,168.74 2054.11,168.74 2070.92,251.73 2087.73,303.516 2104.54,303.516 2121.34,303.516 2138.15,525.001 2154.96,514.348 2171.77,525.001 2188.58,525.001 2205.38,525.001 2222.19,514.348 2239,525.001 2255.81,690.723 2272.62,885.274 2289.42,989.866 2306.23,1140.38 2323.04,1140.38 2339.85,1379.48 2356.66,1379.48 2373.46,1379.48 2390.27,1328.6 2407.08,1129.13 2423.89,948.03 2440.69,386.564 2457.5,386.564 2474.31,417.629 2491.12,386.564 2507.93,522.408 2524.73,522.408 2541.54,670.044 2558.35,762.209 2575.16,698.546 2591.97,670.044 2608.77,670.044 2625.58,670.044 2642.39,762.209 2659.2,762.209 2676.01,1016.03 2692.81,1016.03 2709.62,1140.38 2726.43,1140.38 2743.24,1379.48 2760.05,1379.48 2776.85,1379.48 2793.66,1383.14 2810.47,1253.39 2827.28,948.03 2844.08,636.835 2860.89,386.564 2877.7,249.534 2894.51,636.835 2911.32,698.546 2928.12,762.209 2944.93,811.596 2961.74,762.209 2978.55,762.209 2995.36,698.546 3012.16,670.044 3028.97,762.209 3045.78,670.044 3062.59,811.596 3079.4,906.33 3096.2,1016.03 "/>
<polyline clip-path="url(#clip402)" style="stroke:#1ac938; stroke-linecap:round; stroke-linejoin:round; stroke-width:5; stroke-opacity:1; fill:none" points="289.284,1164.86 306.092,1017.89 322.9,1401.37 339.708,1401.37 356.516,1401.37 373.324,1310.15 390.131,815.301 406.939,313.54 423.747,157.488 440.555,157.488 457.363,157.488 474.171,313.581 490.979,313.581 507.787,313.581 524.595,474.803 541.403,474.803 558.21,815.301 575.018,474.803 591.826,474.803 608.634,474.803 625.442,474.803 642.25,474.803 659.058,866.456 675.866,989.186 692.674,1160.72 709.482,1160.72 726.289,1400.76 743.097,1400.76 759.905,1400.76 776.713,1296.16 793.521,863.367 810.329,320.508 827.137,89.2892 843.945,89.2892 860.753,320.508 877.56,320.508 894.368,320.508 911.176,320.508 927.984,521.015 944.792,521.015 961.6,637.447 978.408,521.015 995.216,471.407 1012.02,521.015 1028.83,521.015 1045.64,637.447 1062.45,863.367 1079.26,995.132 1096.06,1160.72 1112.87,1160.72 1129.68,1400.76 1146.49,1400.76 1163.29,1400.76 1180.1,1296.16 1196.91,863.367 1213.72,320.508 1230.53,265.623 1247.33,265.623 1264.14,320.508 1280.95,320.508 1297.76,320.508 1314.57,320.508 1331.37,521.015 1348.18,521.015 1364.99,521.015 1381.8,521.015 1398.61,521.015 1415.41,521.015 1432.22,521.015 1449.03,521.015 1465.84,803.381 1482.64,1004.41 1499.45,1160.72 1516.26,1160.72 1533.07,1400.76 1549.88,1400.76 1566.68,1400.76 1583.49,1296.16 1600.3,863.367 1617.11,265.623 1633.92,265.623 1650.72,89.2892 1667.53,265.623 1684.34,320.508 1701.15,320.508 1717.96,320.508 1734.76,521.015 1751.57,471.407 1768.38,521.015 1785.19,521.015 1801.99,521.015 1818.8,471.407 1835.61,521.015 1852.42,521.015 1869.23,863.367 1886.03,995.132 1902.84,1160.72 1919.65,1160.72 1936.46,1296.16 1953.27,1400.76 1970.07,1400.76 1986.88,1296.16 2003.69,863.367 2020.5,427.5 2037.31,89.2892 2054.11,427.5 2070.92,265.623 2087.73,427.5 2104.54,427.5 2121.34,427.5 2138.15,521.015 2154.96,471.407 2171.77,637.447 2188.58,637.447 2205.38,521.015 2222.19,471.407 2239,803.381 2255.81,506.612 2272.62,995.132 2289.42,995.132 2306.23,1160.72 2323.04,1160.72 2339.85,1296.16 2356.66,1400.76 2373.46,1296.16 2390.27,1296.16 2407.08,995.132 2423.89,863.367 2440.69,478.89 2457.5,478.89 2474.31,478.89 2491.12,533.708 2507.93,533.708 2524.73,533.708 2541.54,601.165 2558.35,601.165 2575.16,601.165 2591.97,601.165 2608.77,601.165 2625.58,601.165 2642.39,601.165 2659.2,601.165 2676.01,995.132 2692.81,995.132 2709.62,1160.72 2726.43,1160.72 2743.24,1296.16 2760.05,1400.76 2776.85,1400.76 2793.66,1400.76 2810.47,1163.6 2827.28,995.132 2844.08,711.311 2860.89,340.29 2877.7,340.29 2894.51,476.606 2911.32,476.606 2928.12,476.606 2944.93,863.367 2961.74,869.517 2978.55,869.517 2995.36,720.322 3012.16,720.322 3028.97,720.322 3045.78,720.322 3062.59,863.367 3079.4,863.367 3096.2,995.132 "/>
<polyline clip-path="url(#clip402)" style="stroke:#e8000b; stroke-linecap:round; stroke-linejoin:round; stroke-width:5; stroke-opacity:1; fill:none" points="289.284,1209.48 306.092,954.72 322.9,1351.72 339.708,1351.72 356.516,1351.72 373.324,1351.72 390.131,993.01 406.939,253.767 423.747,253.767 440.555,253.767 457.363,253.767 474.171,395.478 490.979,395.478 507.787,395.478 524.595,395.478 541.403,527.992 558.21,821.473 575.018,527.992 591.826,527.992 608.634,527.992 625.442,527.992 642.25,527.992 659.058,821.473 675.866,993.01 692.674,1252.69 709.482,1368.87 726.289,1368.87 743.097,1368.87 759.905,1368.87 776.713,1252.69 793.521,857.784 810.329,340.224 827.137,156.727 843.945,184.742 860.753,184.742 877.56,340.224 894.368,340.224 911.176,340.224 927.984,517.78 944.792,517.78 961.6,744.123 978.408,184.742 995.216,517.78 1012.02,517.78 1028.83,517.78 1045.64,517.78 1062.45,857.784 1079.26,1005.07 1096.06,1252.69 1112.87,1252.69 1129.68,1368.87 1146.49,1368.87 1163.29,1368.87 1180.1,1252.69 1196.91,857.784 1213.72,340.224 1230.53,340.224 1247.33,184.742 1264.14,340.224 1280.95,340.224 1297.76,340.224 1314.57,340.224 1331.37,517.78 1348.18,517.78 1364.99,517.78 1381.8,517.78 1398.61,517.78 1415.41,517.78 1432.22,517.78 1449.03,517.78 1465.84,802.695 1482.64,1005.07 1499.45,1252.69 1516.26,1368.87 1533.07,1368.87 1549.88,1368.87 1566.68,1368.87 1583.49,1252.69 1600.3,857.784 1617.11,340.224 1633.92,340.224 1650.72,156.727 1667.53,340.224 1684.34,340.224 1701.15,340.224 1717.96,340.224 1734.76,517.78 1751.57,517.78 1768.38,517.78 1785.19,517.78 1801.99,517.78 1818.8,517.78 1835.61,517.78 1852.42,517.78 1869.23,857.784 1886.03,1005.07 1902.84,1252.69 1919.65,1252.69 1936.46,1368.87 1953.27,1368.87 1970.07,1368.87 1986.88,1252.69 2003.69,857.784 2020.5,558.781 2037.31,558.781 2054.11,558.781 2070.92,558.781 2087.73,558.781 2104.54,558.781 2121.34,558.781 2138.15,558.781 2154.96,558.781 2171.77,558.781 2188.58,558.781 2205.38,558.781 2222.19,558.781 2239,774.275 2255.81,774.275 2272.62,857.784 2289.42,1005.07 2306.23,1252.69 2323.04,1252.69 2339.85,1252.69 2356.66,1368.87 2373.46,1252.69 2390.27,1252.69 2407.08,857.784 2423.89,857.784 2440.69,558.781 2457.5,558.781 2474.31,558.781 2491.12,558.781 2507.93,558.781 2524.73,558.781 2541.54,558.781 2558.35,558.781 2575.16,558.781 2591.97,558.781 2608.77,558.781 2625.58,558.781 2642.39,774.275 2659.2,774.275 2676.01,857.784 2692.81,1005.07 2709.62,1252.69 2726.43,1252.69 2743.24,1252.69 2760.05,1368.87 2776.85,1368.87 2793.66,1368.87 2810.47,1047.25 2827.28,857.784 2844.08,744.123 2860.89,558.781 2877.7,558.781 2894.51,558.781 2911.32,744.123 2928.12,744.123 2944.93,857.784 2961.74,558.781 2978.55,558.781 2995.36,744.123 3012.16,558.781 3028.97,558.781 3045.78,774.275 3062.59,857.784 3079.4,857.784 3096.2,1005.07 "/>
<polyline clip-path="url(#clip402)" style="stroke:#000000; stroke-linecap:round; stroke-linejoin:round; stroke-width:6; stroke-opacity:1; fill:none" points="289.284,1166.57 306.092,1099.86 322.9,1344.23 339.708,1391.37 356.516,1421.1 373.324,1318.85 390.131,1012.85 406.939,441.436 423.747,350.069 440.555,312.362 457.363,292.783 474.171,289.883 490.979,436.36 507.787,402.279 524.595,453.039 541.403,522.652 558.21,672.03 575.018,637.224 591.826,573.412 608.634,661.878 625.442,684.358 642.25,566.885 659.058,918.577 675.866,1000.52 692.674,1212.26 709.482,1025.9 726.289,1351.48 743.097,1326.83 759.905,1303.63 776.713,1292.75 793.521,1034.6 810.329,619.095 827.137,343.543 843.945,249.275 860.753,252.175 877.56,534.254 894.368,489.296 911.176,430.559 927.984,336.291 944.792,542.956 961.6,521.202 978.408,436.36 995.216,596.616 1012.02,557.459 1028.83,582.113 1045.64,628.522 1062.45,878.695 1079.26,1017.2 1096.06,1186.15 1112.87,1056.35 1129.68,1362.36 1146.49,1452.28 1163.29,1453.73 1180.1,1340.61 1196.91,1030.97 1213.72,721.34 1230.53,244.924 1247.33,250.725 1264.14,259.427 1280.95,405.18 1297.76,393.577 1314.57,181.837 1331.37,476.968 1348.18,471.167 1364.99,438.536 1381.8,386.326 1398.61,429.109 1415.41,519.026 1432.22,695.235 1449.03,687.258 1465.84,914.952 1482.64,883.046 1499.45,1197.76 1516.26,1116.54 1533.07,1418.2 1549.88,1444.3 1566.68,1456.63 1583.49,1371.79 1600.3,1143.37 1617.11,569.786 1633.92,264.503 1650.72,277.555 1667.53,307.286 1684.34,287.707 1701.15,361.671 1717.96,279.005 1734.76,357.32 1751.57,385.601 1768.38,521.927 1785.19,337.742 1801.99,389.952 1818.8,377.624 1835.61,611.844 1852.42,642.3 1869.23,853.315 1886.03,946.133 1902.84,1035.32 1919.65,992.541 1936.46,1283.32 1953.27,1365.99 1970.07,1422.55 1986.88,1316.68 2003.69,1037.5 2020.5,643.75 2037.31,268.854 2054.11,168.784 2070.92,88.2942 2087.73,278.28 2104.54,238.398 2121.34,309.461 2138.15,647.376 2154.96,566.885 2171.77,550.207 2188.58,503.073 2205.38,577.762 2222.19,601.692 2239,631.423 2255.81,685.083 2272.62,951.209 2289.42,1100.59 2306.23,1046.2 2323.04,971.512 2339.85,1356.56 2356.66,1453.73 2373.46,1445.75 2390.27,1436.33 2407.08,1237.64 2423.89,869.993 2440.69,487.845 2457.5,388.501 2474.31,426.934 2491.12,498.722 2507.93,487.845 2524.73,614.019 2541.54,634.323 2558.35,784.427 2575.16,655.352 2591.97,591.54 2608.77,584.289 2625.58,578.488 2642.39,753.971 2659.2,784.427 2676.01,971.512 2692.81,1062.88 2709.62,1160.77 2726.43,1034.6 2743.24,1391.37 2760.05,1328.28 2776.85,1443.58 2793.66,1419.65 2810.47,1296.37 2827.28,1115.81 2844.08,819.233 2860.89,468.267 2877.7,585.739 2894.51,672.03 2911.32,537.155 2928.12,758.322 2944.93,796.029 2961.74,930.905 2978.55,918.577 2995.36,769.924 3012.16,610.394 3028.97,722.79 3045.78,851.139 3062.59,767.749 3079.4,859.116 3096.2,1060.7 "/>
<path clip-path="url(#clip400)" d="M3305.33 445.512 L3952.76 445.512 L3952.76 95.592 L3305.33 95.592  Z" fill="#ffffff" fill-rule="evenodd" fill-opacity="1"/>
<polyline clip-path="url(#clip400)" style="stroke:#000000; stroke-linecap:round; stroke-linejoin:round; stroke-width:4; stroke-opacity:1; fill:none" points="3305.33,445.512 3952.76,445.512 3952.76,95.592 3305.33,95.592 3305.33,445.512 "/>
<polyline clip-path="url(#clip400)" style="stroke:#023eff; stroke-linecap:round; stroke-linejoin:round; stroke-width:5.625; stroke-opacity:1; fill:none" points="3346.97,153.912 3596.82,153.912 "/>
<path clip-path="url(#clip400)" d="M3643.28 168.977 L3643.28 184.446 L3638.46 184.446 L3638.46 144.185 L3643.28 144.185 L3643.28 148.613 Q3644.79 146.008 3647.08 144.758 Q3649.4 143.482 3652.6 143.482 Q3657.91 143.482 3661.22 147.701 Q3664.55 151.92 3664.55 158.795 Q3664.55 165.67 3661.22 169.888 Q3657.91 174.107 3652.6 174.107 Q3649.4 174.107 3647.08 172.857 Q3644.79 171.581 3643.28 168.977 M3659.58 158.795 Q3659.58 153.508 3657.39 150.514 Q3655.23 147.493 3651.43 147.493 Q3647.63 147.493 3645.44 150.514 Q3643.28 153.508 3643.28 158.795 Q3643.28 164.081 3645.44 167.102 Q3647.63 170.097 3651.43 170.097 Q3655.23 170.097 3657.39 167.102 Q3659.58 164.081 3659.58 158.795 Z" fill="#000000" fill-rule="nonzero" fill-opacity="1" /><path clip-path="url(#clip400)" d="M3689.4 148.665 Q3688.59 148.196 3687.63 147.988 Q3686.69 147.753 3685.54 147.753 Q3681.48 147.753 3679.29 150.409 Q3677.13 153.04 3677.13 157.987 L3677.13 173.352 L3672.31 173.352 L3672.31 144.185 L3677.13 144.185 L3677.13 148.717 Q3678.64 146.06 3681.06 144.784 Q3683.49 143.482 3686.95 143.482 Q3687.44 143.482 3688.04 143.56 Q3688.64 143.613 3689.37 143.743 L3689.4 148.665 Z" fill="#000000" fill-rule="nonzero" fill-opacity="1" /><path clip-path="url(#clip400)" d="M3718.2 157.571 L3718.2 159.915 L3696.17 159.915 Q3696.48 164.862 3699.14 167.467 Q3701.82 170.045 3706.58 170.045 Q3709.35 170.045 3711.92 169.368 Q3714.53 168.691 3717.08 167.336 L3717.08 171.868 Q3714.5 172.961 3711.79 173.534 Q3709.08 174.107 3706.3 174.107 Q3699.32 174.107 3695.23 170.045 Q3691.17 165.982 3691.17 159.055 Q3691.17 151.894 3695.02 147.701 Q3698.9 143.482 3705.47 143.482 Q3711.35 143.482 3714.76 147.284 Q3718.2 151.06 3718.2 157.571 M3713.41 156.165 Q3713.36 152.232 3711.19 149.889 Q3709.06 147.545 3705.52 147.545 Q3701.51 147.545 3699.08 149.81 Q3696.69 152.076 3696.32 156.191 L3713.41 156.165 Z" fill="#000000" fill-rule="nonzero" fill-opacity="1" /><path clip-path="url(#clip400)" d="M3745.26 148.613 L3745.26 132.831 L3750.05 132.831 L3750.05 173.352 L3745.26 173.352 L3745.26 168.977 Q3743.75 171.581 3741.43 172.857 Q3739.14 174.107 3735.91 174.107 Q3730.62 174.107 3727.29 169.888 Q3723.98 165.67 3723.98 158.795 Q3723.98 151.92 3727.29 147.701 Q3730.62 143.482 3735.91 143.482 Q3739.14 143.482 3741.43 144.758 Q3743.75 146.008 3745.26 148.613 M3728.93 158.795 Q3728.93 164.081 3731.09 167.102 Q3733.28 170.097 3737.08 170.097 Q3740.88 170.097 3743.07 167.102 Q3745.26 164.081 3745.26 158.795 Q3745.26 153.508 3743.07 150.514 Q3740.88 147.493 3737.08 147.493 Q3733.28 147.493 3731.09 150.514 Q3728.93 153.508 3728.93 158.795 Z" fill="#000000" fill-rule="nonzero" fill-opacity="1" /><path clip-path="url(#clip400)" d="M3759.92 144.185 L3764.71 144.185 L3764.71 173.352 L3759.92 173.352 L3759.92 144.185 M3759.92 132.831 L3764.71 132.831 L3764.71 138.899 L3759.92 138.899 L3759.92 132.831 Z" fill="#000000" fill-rule="nonzero" fill-opacity="1" /><path clip-path="url(#clip400)" d="M3795.73 145.305 L3795.73 149.784 Q3793.69 148.665 3791.64 148.118 Q3789.61 147.545 3787.52 147.545 Q3782.86 147.545 3780.28 150.514 Q3777.7 153.456 3777.7 158.795 Q3777.7 164.133 3780.28 167.102 Q3782.86 170.045 3787.52 170.045 Q3789.61 170.045 3791.64 169.498 Q3793.69 168.925 3795.73 167.805 L3795.73 172.232 Q3793.72 173.17 3791.56 173.638 Q3789.42 174.107 3787 174.107 Q3780.41 174.107 3776.53 169.967 Q3772.65 165.826 3772.65 158.795 Q3772.65 151.659 3776.56 147.571 Q3780.49 143.482 3787.31 143.482 Q3789.53 143.482 3791.64 143.951 Q3793.75 144.394 3795.73 145.305 Z" fill="#000000" fill-rule="nonzero" fill-opacity="1" /><path clip-path="url(#clip400)" d="M3808.8 135.904 L3808.8 144.185 L3818.67 144.185 L3818.67 147.909 L3808.8 147.909 L3808.8 163.743 Q3808.8 167.31 3809.76 168.326 Q3810.75 169.342 3813.75 169.342 L3818.67 169.342 L3818.67 173.352 L3813.75 173.352 Q3808.2 173.352 3806.09 171.295 Q3803.98 169.211 3803.98 163.743 L3803.98 147.909 L3800.46 147.909 L3800.46 144.185 L3803.98 144.185 L3803.98 135.904 L3808.8 135.904 Z" fill="#000000" fill-rule="nonzero" fill-opacity="1" /><path clip-path="url(#clip400)" d="M3847.13 182.206 L3847.13 185.93 L3819.42 185.93 L3819.42 182.206 L3847.13 182.206 Z" fill="#000000" fill-rule="nonzero" fill-opacity="1" /><path clip-path="url(#clip400)" d="M3852.37 134.472 L3873.02 134.472 L3873.02 138.899 L3857.18 138.899 L3857.18 148.43 Q3858.33 148.04 3859.47 147.857 Q3860.62 147.649 3861.77 147.649 Q3868.28 147.649 3872.08 151.217 Q3875.88 154.784 3875.88 160.878 Q3875.88 167.154 3871.97 170.644 Q3868.07 174.107 3860.96 174.107 Q3858.51 174.107 3855.96 173.69 Q3853.43 173.274 3850.72 172.441 L3850.72 167.154 Q3853.07 168.43 3855.57 169.055 Q3858.07 169.68 3860.85 169.68 Q3865.36 169.68 3867.99 167.31 Q3870.62 164.941 3870.62 160.878 Q3870.62 156.816 3867.99 154.446 Q3865.36 152.076 3860.85 152.076 Q3858.75 152.076 3856.64 152.545 Q3854.55 153.014 3852.37 154.003 L3852.37 134.472 Z" fill="#000000" fill-rule="nonzero" fill-opacity="1" /><path clip-path="url(#clip400)" d="M3890.78 168.925 L3909.14 168.925 L3909.14 173.352 L3884.45 173.352 L3884.45 168.925 Q3887.44 165.826 3892.6 160.618 Q3897.78 155.383 3899.11 153.873 Q3901.64 151.034 3902.63 149.081 Q3903.64 147.102 3903.64 145.201 Q3903.64 142.102 3901.45 140.149 Q3899.29 138.196 3895.8 138.196 Q3893.33 138.196 3890.57 139.055 Q3887.83 139.915 3884.71 141.659 L3884.71 136.347 Q3887.89 135.071 3890.65 134.42 Q3893.41 133.769 3895.7 133.769 Q3901.74 133.769 3905.33 136.79 Q3908.93 139.81 3908.93 144.863 Q3908.93 147.258 3908.02 149.42 Q3907.13 151.555 3904.76 154.472 Q3904.11 155.227 3900.62 158.847 Q3897.13 162.441 3890.78 168.925 Z" fill="#000000" fill-rule="nonzero" fill-opacity="1" /><polyline clip-path="url(#clip400)" style="stroke:#ff7c00; stroke-linecap:round; stroke-linejoin:round; stroke-width:5.625; stroke-opacity:1; fill:none" points="3346.97,212.232 3596.82,212.232 "/>
<path clip-path="url(#clip400)" d="M3643.28 227.297 L3643.28 242.766 L3638.46 242.766 L3638.46 202.505 L3643.28 202.505 L3643.28 206.933 Q3644.79 204.328 3647.08 203.078 Q3649.4 201.802 3652.6 201.802 Q3657.91 201.802 3661.22 206.021 Q3664.55 210.24 3664.55 217.115 Q3664.55 223.99 3661.22 228.208 Q3657.91 232.427 3652.6 232.427 Q3649.4 232.427 3647.08 231.177 Q3644.79 229.901 3643.28 227.297 M3659.58 217.115 Q3659.58 211.828 3657.39 208.834 Q3655.23 205.813 3651.43 205.813 Q3647.63 205.813 3645.44 208.834 Q3643.28 211.828 3643.28 217.115 Q3643.28 222.401 3645.44 225.422 Q3647.63 228.417 3651.43 228.417 Q3655.23 228.417 3657.39 225.422 Q3659.58 222.401 3659.58 217.115 Z" fill="#000000" fill-rule="nonzero" fill-opacity="1" /><path clip-path="url(#clip400)" d="M3689.4 206.985 Q3688.59 206.516 3687.63 206.308 Q3686.69 206.073 3685.54 206.073 Q3681.48 206.073 3679.29 208.729 Q3677.13 211.36 3677.13 216.307 L3677.13 231.672 L3672.31 231.672 L3672.31 202.505 L3677.13 202.505 L3677.13 207.037 Q3678.64 204.38 3681.06 203.104 Q3683.49 201.802 3686.95 201.802 Q3687.44 201.802 3688.04 201.88 Q3688.64 201.933 3689.37 202.063 L3689.4 206.985 Z" fill="#000000" fill-rule="nonzero" fill-opacity="1" /><path clip-path="url(#clip400)" d="M3718.2 215.891 L3718.2 218.235 L3696.17 218.235 Q3696.48 223.182 3699.14 225.787 Q3701.82 228.365 3706.58 228.365 Q3709.35 228.365 3711.92 227.688 Q3714.53 227.011 3717.08 225.656 L3717.08 230.188 Q3714.5 231.281 3711.79 231.854 Q3709.08 232.427 3706.3 232.427 Q3699.32 232.427 3695.23 228.365 Q3691.17 224.302 3691.17 217.375 Q3691.17 210.214 3695.02 206.021 Q3698.9 201.802 3705.47 201.802 Q3711.35 201.802 3714.76 205.604 Q3718.2 209.38 3718.2 215.891 M3713.41 214.485 Q3713.36 210.552 3711.19 208.209 Q3709.06 205.865 3705.52 205.865 Q3701.51 205.865 3699.08 208.13 Q3696.69 210.396 3696.32 214.511 L3713.41 214.485 Z" fill="#000000" fill-rule="nonzero" fill-opacity="1" /><path clip-path="url(#clip400)" d="M3745.26 206.933 L3745.26 191.151 L3750.05 191.151 L3750.05 231.672 L3745.26 231.672 L3745.26 227.297 Q3743.75 229.901 3741.43 231.177 Q3739.14 232.427 3735.91 232.427 Q3730.62 232.427 3727.29 228.208 Q3723.98 223.99 3723.98 217.115 Q3723.98 210.24 3727.29 206.021 Q3730.62 201.802 3735.91 201.802 Q3739.14 201.802 3741.43 203.078 Q3743.75 204.328 3745.26 206.933 M3728.93 217.115 Q3728.93 222.401 3731.09 225.422 Q3733.28 228.417 3737.08 228.417 Q3740.88 228.417 3743.07 225.422 Q3745.26 222.401 3745.26 217.115 Q3745.26 211.828 3743.07 208.834 Q3740.88 205.813 3737.08 205.813 Q3733.28 205.813 3731.09 208.834 Q3728.93 211.828 3728.93 217.115 Z" fill="#000000" fill-rule="nonzero" fill-opacity="1" /><path clip-path="url(#clip400)" d="M3759.92 202.505 L3764.71 202.505 L3764.71 231.672 L3759.92 231.672 L3759.92 202.505 M3759.92 191.151 L3764.71 191.151 L3764.71 197.219 L3759.92 197.219 L3759.92 191.151 Z" fill="#000000" fill-rule="nonzero" fill-opacity="1" /><path clip-path="url(#clip400)" d="M3795.73 203.625 L3795.73 208.104 Q3793.69 206.985 3791.64 206.438 Q3789.61 205.865 3787.52 205.865 Q3782.86 205.865 3780.28 208.834 Q3777.7 211.776 3777.7 217.115 Q3777.7 222.453 3780.28 225.422 Q3782.86 228.365 3787.52 228.365 Q3789.61 228.365 3791.64 227.818 Q3793.69 227.245 3795.73 226.125 L3795.73 230.552 Q3793.72 231.49 3791.56 231.958 Q3789.42 232.427 3787 232.427 Q3780.41 232.427 3776.53 228.287 Q3772.65 224.146 3772.65 217.115 Q3772.65 209.979 3776.56 205.891 Q3780.49 201.802 3787.31 201.802 Q3789.53 201.802 3791.64 202.271 Q3793.75 202.714 3795.73 203.625 Z" fill="#000000" fill-rule="nonzero" fill-opacity="1" /><path clip-path="url(#clip400)" d="M3808.8 194.224 L3808.8 202.505 L3818.67 202.505 L3818.67 206.229 L3808.8 206.229 L3808.8 222.063 Q3808.8 225.63 3809.76 226.646 Q3810.75 227.662 3813.75 227.662 L3818.67 227.662 L3818.67 231.672 L3813.75 231.672 Q3808.2 231.672 3806.09 229.615 Q3803.98 227.531 3803.98 222.063 L3803.98 206.229 L3800.46 206.229 L3800.46 202.505 L3803.98 202.505 L3803.98 194.224 L3808.8 194.224 Z" fill="#000000" fill-rule="nonzero" fill-opacity="1" /><path clip-path="url(#clip400)" d="M3847.13 240.526 L3847.13 244.25 L3819.42 244.25 L3819.42 240.526 L3847.13 240.526 Z" fill="#000000" fill-rule="nonzero" fill-opacity="1" /><path clip-path="url(#clip400)" d="M3856.84 227.245 L3875.2 227.245 L3875.2 231.672 L3850.52 231.672 L3850.52 227.245 Q3853.51 224.146 3858.67 218.938 Q3863.85 213.703 3865.18 212.193 Q3867.7 209.354 3868.69 207.401 Q3869.71 205.422 3869.71 203.521 Q3869.71 200.422 3867.52 198.469 Q3865.36 196.516 3861.87 196.516 Q3859.4 196.516 3856.64 197.375 Q3853.9 198.235 3850.78 199.979 L3850.78 194.667 Q3853.95 193.391 3856.71 192.74 Q3859.47 192.089 3861.77 192.089 Q3867.81 192.089 3871.4 195.11 Q3875 198.13 3875 203.183 Q3875 205.578 3874.08 207.74 Q3873.2 209.875 3870.83 212.792 Q3870.18 213.547 3866.69 217.167 Q3863.2 220.761 3856.84 227.245 Z" fill="#000000" fill-rule="nonzero" fill-opacity="1" /><path clip-path="url(#clip400)" d="M3898.15 210.136 Q3894.6 210.136 3892.52 212.557 Q3890.46 214.979 3890.46 219.198 Q3890.46 223.391 3892.52 225.839 Q3894.6 228.261 3898.15 228.261 Q3901.69 228.261 3903.75 225.839 Q3905.83 223.391 3905.83 219.198 Q3905.83 214.979 3903.75 212.557 Q3901.69 210.136 3898.15 210.136 M3908.59 193.651 L3908.59 198.443 Q3906.61 197.505 3904.58 197.011 Q3902.57 196.516 3900.59 196.516 Q3895.39 196.516 3892.63 200.031 Q3889.89 203.547 3889.5 210.656 Q3891.04 208.391 3893.35 207.193 Q3895.67 205.969 3898.46 205.969 Q3904.32 205.969 3907.7 209.537 Q3911.12 213.078 3911.12 219.198 Q3911.12 225.188 3907.57 228.807 Q3904.03 232.427 3898.15 232.427 Q3891.4 232.427 3887.83 227.271 Q3884.27 222.089 3884.27 212.271 Q3884.27 203.052 3888.64 197.584 Q3893.02 192.089 3900.39 192.089 Q3902.37 192.089 3904.37 192.479 Q3906.4 192.87 3908.59 193.651 Z" fill="#000000" fill-rule="nonzero" fill-opacity="1" /><polyline clip-path="url(#clip400)" style="stroke:#1ac938; stroke-linecap:round; stroke-linejoin:round; stroke-width:5.625; stroke-opacity:1; fill:none" points="3346.97,270.552 3596.82,270.552 "/>
<path clip-path="url(#clip400)" d="M3643.28 285.617 L3643.28 301.086 L3638.46 301.086 L3638.46 260.825 L3643.28 260.825 L3643.28 265.253 Q3644.79 262.648 3647.08 261.398 Q3649.4 260.122 3652.6 260.122 Q3657.91 260.122 3661.22 264.341 Q3664.55 268.56 3664.55 275.435 Q3664.55 282.31 3661.22 286.528 Q3657.91 290.747 3652.6 290.747 Q3649.4 290.747 3647.08 289.497 Q3644.79 288.221 3643.28 285.617 M3659.58 275.435 Q3659.58 270.148 3657.39 267.154 Q3655.23 264.133 3651.43 264.133 Q3647.63 264.133 3645.44 267.154 Q3643.28 270.148 3643.28 275.435 Q3643.28 280.721 3645.44 283.742 Q3647.63 286.737 3651.43 286.737 Q3655.23 286.737 3657.39 283.742 Q3659.58 280.721 3659.58 275.435 Z" fill="#000000" fill-rule="nonzero" fill-opacity="1" /><path clip-path="url(#clip400)" d="M3689.4 265.305 Q3688.59 264.836 3687.63 264.628 Q3686.69 264.393 3685.54 264.393 Q3681.48 264.393 3679.29 267.049 Q3677.13 269.68 3677.13 274.627 L3677.13 289.992 L3672.31 289.992 L3672.31 260.825 L3677.13 260.825 L3677.13 265.357 Q3678.64 262.7 3681.06 261.424 Q3683.49 260.122 3686.95 260.122 Q3687.44 260.122 3688.04 260.2 Q3688.64 260.253 3689.37 260.383 L3689.4 265.305 Z" fill="#000000" fill-rule="nonzero" fill-opacity="1" /><path clip-path="url(#clip400)" d="M3718.2 274.211 L3718.2 276.555 L3696.17 276.555 Q3696.48 281.502 3699.14 284.107 Q3701.82 286.685 3706.58 286.685 Q3709.35 286.685 3711.92 286.008 Q3714.53 285.331 3717.08 283.976 L3717.08 288.508 Q3714.5 289.601 3711.79 290.174 Q3709.08 290.747 3706.3 290.747 Q3699.32 290.747 3695.23 286.685 Q3691.17 282.622 3691.17 275.695 Q3691.17 268.534 3695.02 264.341 Q3698.9 260.122 3705.47 260.122 Q3711.35 260.122 3714.76 263.924 Q3718.2 267.7 3718.2 274.211 M3713.41 272.805 Q3713.36 268.872 3711.19 266.529 Q3709.06 264.185 3705.52 264.185 Q3701.51 264.185 3699.08 266.45 Q3696.69 268.716 3696.32 272.831 L3713.41 272.805 Z" fill="#000000" fill-rule="nonzero" fill-opacity="1" /><path clip-path="url(#clip400)" d="M3745.26 265.253 L3745.26 249.471 L3750.05 249.471 L3750.05 289.992 L3745.26 289.992 L3745.26 285.617 Q3743.75 288.221 3741.43 289.497 Q3739.14 290.747 3735.91 290.747 Q3730.62 290.747 3727.29 286.528 Q3723.98 282.31 3723.98 275.435 Q3723.98 268.56 3727.29 264.341 Q3730.62 260.122 3735.91 260.122 Q3739.14 260.122 3741.43 261.398 Q3743.75 262.648 3745.26 265.253 M3728.93 275.435 Q3728.93 280.721 3731.09 283.742 Q3733.28 286.737 3737.08 286.737 Q3740.88 286.737 3743.07 283.742 Q3745.26 280.721 3745.26 275.435 Q3745.26 270.148 3743.07 267.154 Q3740.88 264.133 3737.08 264.133 Q3733.28 264.133 3731.09 267.154 Q3728.93 270.148 3728.93 275.435 Z" fill="#000000" fill-rule="nonzero" fill-opacity="1" /><path clip-path="url(#clip400)" d="M3759.92 260.825 L3764.71 260.825 L3764.71 289.992 L3759.92 289.992 L3759.92 260.825 M3759.92 249.471 L3764.71 249.471 L3764.71 255.539 L3759.92 255.539 L3759.92 249.471 Z" fill="#000000" fill-rule="nonzero" fill-opacity="1" /><path clip-path="url(#clip400)" d="M3795.73 261.945 L3795.73 266.424 Q3793.69 265.305 3791.64 264.758 Q3789.61 264.185 3787.52 264.185 Q3782.86 264.185 3780.28 267.154 Q3777.7 270.096 3777.7 275.435 Q3777.7 280.773 3780.28 283.742 Q3782.86 286.685 3787.52 286.685 Q3789.61 286.685 3791.64 286.138 Q3793.69 285.565 3795.73 284.445 L3795.73 288.872 Q3793.72 289.81 3791.56 290.278 Q3789.42 290.747 3787 290.747 Q3780.41 290.747 3776.53 286.607 Q3772.65 282.466 3772.65 275.435 Q3772.65 268.299 3776.56 264.211 Q3780.49 260.122 3787.31 260.122 Q3789.53 260.122 3791.64 260.591 Q3793.75 261.034 3795.73 261.945 Z" fill="#000000" fill-rule="nonzero" fill-opacity="1" /><path clip-path="url(#clip400)" d="M3808.8 252.544 L3808.8 260.825 L3818.67 260.825 L3818.67 264.549 L3808.8 264.549 L3808.8 280.383 Q3808.8 283.95 3809.76 284.966 Q3810.75 285.982 3813.75 285.982 L3818.67 285.982 L3818.67 289.992 L3813.75 289.992 Q3808.2 289.992 3806.09 287.935 Q3803.98 285.851 3803.98 280.383 L3803.98 264.549 L3800.46 264.549 L3800.46 260.825 L3803.98 260.825 L3803.98 252.544 L3808.8 252.544 Z" fill="#000000" fill-rule="nonzero" fill-opacity="1" /><path clip-path="url(#clip400)" d="M3847.13 298.846 L3847.13 302.57 L3819.42 302.57 L3819.42 298.846 L3847.13 298.846 Z" fill="#000000" fill-rule="nonzero" fill-opacity="1" /><path clip-path="url(#clip400)" d="M3866.77 255.695 L3853.49 276.45 L3866.77 276.45 L3866.77 255.695 M3865.39 251.112 L3872 251.112 L3872 276.45 L3877.55 276.45 L3877.55 280.825 L3872 280.825 L3872 289.992 L3866.77 289.992 L3866.77 280.825 L3849.21 280.825 L3849.21 275.747 L3865.39 251.112 Z" fill="#000000" fill-rule="nonzero" fill-opacity="1" /><polyline clip-path="url(#clip400)" style="stroke:#e8000b; stroke-linecap:round; stroke-linejoin:round; stroke-width:5.625; stroke-opacity:1; fill:none" points="3346.97,328.872 3596.82,328.872 "/>
<path clip-path="url(#clip400)" d="M3643.28 343.937 L3643.28 359.406 L3638.46 359.406 L3638.46 319.145 L3643.28 319.145 L3643.28 323.573 Q3644.79 320.968 3647.08 319.718 Q3649.4 318.442 3652.6 318.442 Q3657.91 318.442 3661.22 322.661 Q3664.55 326.88 3664.55 333.755 Q3664.55 340.63 3661.22 344.848 Q3657.91 349.067 3652.6 349.067 Q3649.4 349.067 3647.08 347.817 Q3644.79 346.541 3643.28 343.937 M3659.58 333.755 Q3659.58 328.468 3657.39 325.474 Q3655.23 322.453 3651.43 322.453 Q3647.63 322.453 3645.44 325.474 Q3643.28 328.468 3643.28 333.755 Q3643.28 339.041 3645.44 342.062 Q3647.63 345.057 3651.43 345.057 Q3655.23 345.057 3657.39 342.062 Q3659.58 339.041 3659.58 333.755 Z" fill="#000000" fill-rule="nonzero" fill-opacity="1" /><path clip-path="url(#clip400)" d="M3689.4 323.625 Q3688.59 323.156 3687.63 322.948 Q3686.69 322.713 3685.54 322.713 Q3681.48 322.713 3679.29 325.369 Q3677.13 328 3677.13 332.947 L3677.13 348.312 L3672.31 348.312 L3672.31 319.145 L3677.13 319.145 L3677.13 323.677 Q3678.64 321.02 3681.06 319.744 Q3683.49 318.442 3686.95 318.442 Q3687.44 318.442 3688.04 318.52 Q3688.64 318.573 3689.37 318.703 L3689.4 323.625 Z" fill="#000000" fill-rule="nonzero" fill-opacity="1" /><path clip-path="url(#clip400)" d="M3718.2 332.531 L3718.2 334.875 L3696.17 334.875 Q3696.48 339.822 3699.14 342.427 Q3701.82 345.005 3706.58 345.005 Q3709.35 345.005 3711.92 344.328 Q3714.53 343.651 3717.08 342.296 L3717.08 346.828 Q3714.5 347.921 3711.79 348.494 Q3709.08 349.067 3706.3 349.067 Q3699.32 349.067 3695.23 345.005 Q3691.17 340.942 3691.17 334.015 Q3691.17 326.854 3695.02 322.661 Q3698.9 318.442 3705.47 318.442 Q3711.35 318.442 3714.76 322.244 Q3718.2 326.02 3718.2 332.531 M3713.41 331.125 Q3713.36 327.192 3711.19 324.849 Q3709.06 322.505 3705.52 322.505 Q3701.51 322.505 3699.08 324.77 Q3696.69 327.036 3696.32 331.151 L3713.41 331.125 Z" fill="#000000" fill-rule="nonzero" fill-opacity="1" /><path clip-path="url(#clip400)" d="M3745.26 323.573 L3745.26 307.791 L3750.05 307.791 L3750.05 348.312 L3745.26 348.312 L3745.26 343.937 Q3743.75 346.541 3741.43 347.817 Q3739.14 349.067 3735.91 349.067 Q3730.62 349.067 3727.29 344.848 Q3723.98 340.63 3723.98 333.755 Q3723.98 326.88 3727.29 322.661 Q3730.62 318.442 3735.91 318.442 Q3739.14 318.442 3741.43 319.718 Q3743.75 320.968 3745.26 323.573 M3728.93 333.755 Q3728.93 339.041 3731.09 342.062 Q3733.28 345.057 3737.08 345.057 Q3740.88 345.057 3743.07 342.062 Q3745.26 339.041 3745.26 333.755 Q3745.26 328.468 3743.07 325.474 Q3740.88 322.453 3737.08 322.453 Q3733.28 322.453 3731.09 325.474 Q3728.93 328.468 3728.93 333.755 Z" fill="#000000" fill-rule="nonzero" fill-opacity="1" /><path clip-path="url(#clip400)" d="M3759.92 319.145 L3764.71 319.145 L3764.71 348.312 L3759.92 348.312 L3759.92 319.145 M3759.92 307.791 L3764.71 307.791 L3764.71 313.859 L3759.92 313.859 L3759.92 307.791 Z" fill="#000000" fill-rule="nonzero" fill-opacity="1" /><path clip-path="url(#clip400)" d="M3795.73 320.265 L3795.73 324.744 Q3793.69 323.625 3791.64 323.078 Q3789.61 322.505 3787.52 322.505 Q3782.86 322.505 3780.28 325.474 Q3777.7 328.416 3777.7 333.755 Q3777.7 339.093 3780.28 342.062 Q3782.86 345.005 3787.52 345.005 Q3789.61 345.005 3791.64 344.458 Q3793.69 343.885 3795.73 342.765 L3795.73 347.192 Q3793.72 348.13 3791.56 348.598 Q3789.42 349.067 3787 349.067 Q3780.41 349.067 3776.53 344.927 Q3772.65 340.786 3772.65 333.755 Q3772.65 326.619 3776.56 322.531 Q3780.49 318.442 3787.31 318.442 Q3789.53 318.442 3791.64 318.911 Q3793.75 319.354 3795.73 320.265 Z" fill="#000000" fill-rule="nonzero" fill-opacity="1" /><path clip-path="url(#clip400)" d="M3808.8 310.864 L3808.8 319.145 L3818.67 319.145 L3818.67 322.869 L3808.8 322.869 L3808.8 338.703 Q3808.8 342.27 3809.76 343.286 Q3810.75 344.302 3813.75 344.302 L3818.67 344.302 L3818.67 348.312 L3813.75 348.312 Q3808.2 348.312 3806.09 346.255 Q3803.98 344.171 3803.98 338.703 L3803.98 322.869 L3800.46 322.869 L3800.46 319.145 L3803.98 319.145 L3803.98 310.864 L3808.8 310.864 Z" fill="#000000" fill-rule="nonzero" fill-opacity="1" /><path clip-path="url(#clip400)" d="M3847.13 357.166 L3847.13 360.89 L3819.42 360.89 L3819.42 357.166 L3847.13 357.166 Z" fill="#000000" fill-rule="nonzero" fill-opacity="1" /><path clip-path="url(#clip400)" d="M3853.22 343.885 L3861.82 343.885 L3861.82 314.224 L3852.47 316.099 L3852.47 311.307 L3861.77 309.432 L3867.03 309.432 L3867.03 343.885 L3875.62 343.885 L3875.62 348.312 L3853.22 348.312 L3853.22 343.885 Z" fill="#000000" fill-rule="nonzero" fill-opacity="1" /><polyline clip-path="url(#clip400)" style="stroke:#000000; stroke-linecap:round; stroke-linejoin:round; stroke-width:6.75; stroke-opacity:1; fill:none" points="3346.97,387.192 3596.82,387.192 "/>
<path clip-path="url(#clip400)" d="M3653.54 391.971 Q3647.73 391.971 3645.49 393.299 Q3643.25 394.627 3643.25 397.83 Q3643.25 400.382 3644.92 401.892 Q3646.61 403.377 3649.5 403.377 Q3653.49 403.377 3655.88 400.564 Q3658.3 397.726 3658.3 393.038 L3658.3 391.971 L3653.54 391.971 M3663.1 389.991 L3663.1 406.632 L3658.3 406.632 L3658.3 402.205 Q3656.66 404.861 3654.22 406.137 Q3651.77 407.387 3648.23 407.387 Q3643.75 407.387 3641.09 404.887 Q3638.46 402.361 3638.46 398.142 Q3638.46 393.221 3641.74 390.721 Q3645.05 388.221 3651.59 388.221 L3658.3 388.221 L3658.3 387.752 Q3658.3 384.445 3656.12 382.648 Q3653.95 380.825 3650.02 380.825 Q3647.52 380.825 3645.15 381.424 Q3642.78 382.023 3640.6 383.221 L3640.6 378.794 Q3643.23 377.778 3645.7 377.283 Q3648.17 376.762 3650.52 376.762 Q3656.85 376.762 3659.97 380.044 Q3663.1 383.325 3663.1 389.991 Z" fill="#000000" fill-rule="nonzero" fill-opacity="1" /><path clip-path="url(#clip400)" d="M3693.95 378.585 L3693.95 383.064 Q3691.92 381.945 3689.87 381.398 Q3687.83 380.825 3685.75 380.825 Q3681.09 380.825 3678.51 383.794 Q3675.93 386.736 3675.93 392.075 Q3675.93 397.413 3678.51 400.382 Q3681.09 403.325 3685.75 403.325 Q3687.83 403.325 3689.87 402.778 Q3691.92 402.205 3693.95 401.085 L3693.95 405.512 Q3691.95 406.45 3689.79 406.918 Q3687.65 407.387 3685.23 407.387 Q3678.64 407.387 3674.76 403.247 Q3670.88 399.106 3670.88 392.075 Q3670.88 384.939 3674.79 380.851 Q3678.72 376.762 3685.54 376.762 Q3687.76 376.762 3689.87 377.231 Q3691.98 377.674 3693.95 378.585 Z" fill="#000000" fill-rule="nonzero" fill-opacity="1" /><path clip-path="url(#clip400)" d="M3707.03 369.184 L3707.03 377.465 L3716.9 377.465 L3716.9 381.189 L3707.03 381.189 L3707.03 397.023 Q3707.03 400.59 3707.99 401.606 Q3708.98 402.622 3711.98 402.622 L3716.9 402.622 L3716.9 406.632 L3711.98 406.632 Q3706.43 406.632 3704.32 404.575 Q3702.21 402.491 3702.21 397.023 L3702.21 381.189 L3698.69 381.189 L3698.69 377.465 L3702.21 377.465 L3702.21 369.184 L3707.03 369.184 Z" fill="#000000" fill-rule="nonzero" fill-opacity="1" /><path clip-path="url(#clip400)" d="M3722.7 395.122 L3722.7 377.465 L3727.5 377.465 L3727.5 394.939 Q3727.5 399.08 3729.11 401.163 Q3730.73 403.221 3733.95 403.221 Q3737.83 403.221 3740.07 400.747 Q3742.34 398.273 3742.34 394.002 L3742.34 377.465 L3747.13 377.465 L3747.13 406.632 L3742.34 406.632 L3742.34 402.153 Q3740.6 404.809 3738.28 406.111 Q3735.99 407.387 3732.94 407.387 Q3727.91 407.387 3725.31 404.262 Q3722.7 401.137 3722.7 395.122 M3734.76 376.762 L3734.76 376.762 Z" fill="#000000" fill-rule="nonzero" fill-opacity="1" /><path clip-path="url(#clip400)" d="M3770.26 391.971 Q3764.45 391.971 3762.21 393.299 Q3759.97 394.627 3759.97 397.83 Q3759.97 400.382 3761.64 401.892 Q3763.33 403.377 3766.22 403.377 Q3770.2 403.377 3772.6 400.564 Q3775.02 397.726 3775.02 393.038 L3775.02 391.971 L3770.26 391.971 M3779.81 389.991 L3779.81 406.632 L3775.02 406.632 L3775.02 402.205 Q3773.38 404.861 3770.93 406.137 Q3768.49 407.387 3764.94 407.387 Q3760.46 407.387 3757.81 404.887 Q3755.18 402.361 3755.18 398.142 Q3755.18 393.221 3758.46 390.721 Q3761.77 388.221 3768.3 388.221 L3775.02 388.221 L3775.02 387.752 Q3775.02 384.445 3772.83 382.648 Q3770.67 380.825 3766.74 380.825 Q3764.24 380.825 3761.87 381.424 Q3759.5 382.023 3757.31 383.221 L3757.31 378.794 Q3759.94 377.778 3762.42 377.283 Q3764.89 376.762 3767.24 376.762 Q3773.56 376.762 3776.69 380.044 Q3779.81 383.325 3779.81 389.991 Z" fill="#000000" fill-rule="nonzero" fill-opacity="1" /><path clip-path="url(#clip400)" d="M3789.68 366.111 L3794.48 366.111 L3794.48 406.632 L3789.68 406.632 L3789.68 366.111 Z" fill="#000000" fill-rule="nonzero" fill-opacity="1" /></svg>
