<?xml version="1.0" encoding="UTF-8" standalone="no"?>
<!DOCTYPE svg PUBLIC "-//W3C//DTD SVG 1.1//EN"
 "http://www.w3.org/Graphics/SVG/1.1/DTD/svg11.dtd">
<!-- Generated by graphviz version 2.50.0 (20211204.2007)
 -->
<!-- Pages: 1 -->
<svg width="1230pt" height="588pt"
 viewBox="0.00 0.00 1230.00 588.00" xmlns="http://www.w3.org/2000/svg" xmlns:xlink="http://www.w3.org/1999/xlink">
<g id="graph0" class="graph" transform="scale(1 1) rotate(0) translate(4 584)">
<polygon fill="white" stroke="transparent" points="-4,4 -4,-584 1226,-584 1226,4 -4,4"/>
<!-- 1 -->
<g id="node1" class="node">
<title>1</title>
<text text-anchor="start" x="577" y="-561.8" font-family="Arial" font-weight="bold" font-size="14.00"> </text>
<text text-anchor="start" x="511" y="-517.3" font-family="Arial" font-size="14.00"> &#160;&#160;</text>
<path fill="#ebebeb" stroke="transparent" d="M537,-489C537,-489 621,-489 621,-489 627,-489 633,-495 633,-501 633,-501 633,-541 633,-541 633,-547 627,-553 621,-553 621,-553 537,-553 537,-553 531,-553 525,-547 525,-541 525,-541 525,-501 525,-501 525,-495 531,-489 537,-489"/>
<text text-anchor="start" x="526" y="-550.4" font-family="Arial" font-size="2.00"> </text>
<text text-anchor="start" x="526" y="-544.4" font-family="Arial" font-size="7.00"> &#160;1</text>
<text text-anchor="start" x="540" y="-527.8" font-family="Arial" font-weight="bold" font-size="14.00">Mean: 5.399</text>
<text text-anchor="start" x="555.5" y="-510.8" font-family="Arial" font-weight="bold" font-size="14.00">n = 672</text>
<text text-anchor="start" x="577.5" y="-492.8" font-family="Arial" font-size="9.00"> </text>
<path fill="none" stroke="#333333" d="M537,-489C537,-489 621,-489 621,-489 627,-489 633,-495 633,-501 633,-501 633,-541 633,-541 633,-547 627,-553 621,-553 621,-553 537,-553 537,-553 531,-553 525,-547 525,-541 525,-541 525,-501 525,-501 525,-495 531,-489 537,-489"/>
<text text-anchor="start" x="635" y="-517.3" font-family="Arial" font-size="14.00"> &#160;&#160;</text>
<text text-anchor="start" x="526" y="-474.8" font-family="Arial" font-weight="bold" font-size="14.00">prev_168_inflow</text>
</g>
<!-- 2 -->
<g id="node2" class="node">
<title>2</title>
<text text-anchor="start" x="475" y="-407.8" font-family="Arial" font-weight="bold" font-size="14.00"> &lt; 6.215</text>
<path fill="#ebebeb" stroke="transparent" d="M458,-335C458,-335 542,-335 542,-335 548,-335 554,-341 554,-347 554,-347 554,-387 554,-387 554,-393 548,-399 542,-399 542,-399 458,-399 458,-399 452,-399 446,-393 446,-387 446,-387 446,-347 446,-347 446,-341 452,-335 458,-335"/>
<text text-anchor="start" x="447" y="-396.4" font-family="Arial" font-size="2.00"> </text>
<text text-anchor="start" x="447" y="-390.4" font-family="Arial" font-size="7.00"> &#160;2</text>
<text text-anchor="start" x="461" y="-373.8" font-family="Arial" font-weight="bold" font-size="14.00">Mean: 4.698</text>
<text text-anchor="start" x="476.5" y="-356.8" font-family="Arial" font-weight="bold" font-size="14.00">n = 461</text>
<text text-anchor="start" x="498.5" y="-338.8" font-family="Arial" font-size="9.00"> </text>
<path fill="none" stroke="#333333" d="M458,-335C458,-335 542,-335 542,-335 548,-335 554,-341 554,-347 554,-347 554,-387 554,-387 554,-393 548,-399 542,-399 542,-399 458,-399 458,-399 452,-399 446,-393 446,-387 446,-387 446,-347 446,-347 446,-341 452,-335 458,-335"/>
<text text-anchor="start" x="485.5" y="-320.8" font-family="Arial" font-weight="bold" font-size="14.00">time</text>
</g>
<!-- 1&#45;&gt;2 -->
<g id="edge1" class="edge">
<title>1&#45;&gt;2</title>
<path fill="none" stroke="#888888" d="M548.68,-461.67C544.19,-453.03 539.54,-444.07 534.96,-435.27"/>
<polygon fill="#888888" stroke="#888888" points="537.95,-433.44 530.24,-426.18 531.74,-436.66 537.95,-433.44"/>
</g>
<!-- 9 -->
<g id="node3" class="node">
<title>9</title>
<text text-anchor="start" x="705.5" y="-407.8" font-family="Arial" font-weight="bold" font-size="14.00"> ≥ 6.215</text>
<path fill="#ebebeb" stroke="transparent" d="M692,-335C692,-335 768,-335 768,-335 774,-335 780,-341 780,-347 780,-347 780,-387 780,-387 780,-393 774,-399 768,-399 768,-399 692,-399 692,-399 686,-399 680,-393 680,-387 680,-387 680,-347 680,-347 680,-341 686,-335 692,-335"/>
<text text-anchor="start" x="681" y="-396.4" font-family="Arial" font-size="2.00"> </text>
<text text-anchor="start" x="681" y="-390.4" font-family="Arial" font-size="7.00"> &#160;9</text>
<text text-anchor="start" x="695" y="-373.8" font-family="Arial" font-weight="bold" font-size="14.00">Mean: 6.93</text>
<text text-anchor="start" x="707" y="-356.8" font-family="Arial" font-weight="bold" font-size="14.00">n = 211</text>
<text text-anchor="start" x="728.5" y="-338.8" font-family="Arial" font-size="9.00"> </text>
<path fill="none" stroke="#333333" d="M692,-335C692,-335 768,-335 768,-335 774,-335 780,-341 780,-347 780,-347 780,-387 780,-387 780,-393 774,-399 768,-399 768,-399 692,-399 692,-399 686,-399 680,-393 680,-387 680,-387 680,-347 680,-347 680,-341 686,-335 692,-335"/>
<text text-anchor="start" x="701" y="-320.8" font-family="Arial" font-weight="bold" font-size="14.00">air_temp</text>
</g>
<!-- 1&#45;&gt;9 -->
<g id="edge2" class="edge">
<title>1&#45;&gt;9</title>
<path fill="none" stroke="#888888" d="M636.95,-461.67C646.16,-452.39 655.74,-442.75 665.1,-433.33"/>
<polygon fill="#888888" stroke="#888888" points="667.64,-435.74 672.21,-426.18 662.68,-430.8 667.64,-435.74"/>
</g>
<!-- 3 -->
<g id="node4" class="node">
<title>3</title>
<text text-anchor="start" x="207.5" y="-253.8" font-family="Arial" font-weight="bold" font-size="14.00"> &lt; 5.5</text>
<text text-anchor="start" x="161" y="-209.3" font-family="Arial" font-size="14.00"> &#160;</text>
<path fill="#ebebeb" stroke="transparent" d="M183,-181C183,-181 267,-181 267,-181 273,-181 279,-187 279,-193 279,-193 279,-233 279,-233 279,-239 273,-245 267,-245 267,-245 183,-245 183,-245 177,-245 171,-239 171,-233 171,-233 171,-193 171,-193 171,-187 177,-181 183,-181"/>
<text text-anchor="start" x="172" y="-242.4" font-family="Arial" font-size="2.00"> </text>
<text text-anchor="start" x="172" y="-236.4" font-family="Arial" font-size="7.00"> &#160;3</text>
<text text-anchor="start" x="186" y="-219.8" font-family="Arial" font-weight="bold" font-size="14.00">Mean: 3.462</text>
<text text-anchor="start" x="201.5" y="-202.8" font-family="Arial" font-weight="bold" font-size="14.00">n = 167</text>
<text text-anchor="start" x="223.5" y="-184.8" font-family="Arial" font-size="9.00"> </text>
<path fill="none" stroke="#333333" d="M183,-181C183,-181 267,-181 267,-181 273,-181 279,-187 279,-193 279,-193 279,-233 279,-233 279,-239 273,-245 267,-245 267,-245 183,-245 183,-245 177,-245 171,-239 171,-233 171,-233 171,-193 171,-193 171,-187 177,-181 183,-181"/>
<text text-anchor="start" x="281" y="-209.3" font-family="Arial" font-size="14.00"> &#160;</text>
<text text-anchor="start" x="175.5" y="-166.8" font-family="Arial" font-weight="bold" font-size="14.00">prev_24_inflow</text>
</g>
<!-- 2&#45;&gt;3 -->
<g id="edge3" class="edge">
<title>2&#45;&gt;3</title>
<path fill="none" stroke="#888888" d="M433.78,-329.4C396.1,-308.57 348.56,-282.29 308.36,-260.07"/>
<polygon fill="#888888" stroke="#888888" points="309.81,-256.88 299.37,-255.11 306.43,-263.01 309.81,-256.88"/>
</g>
<!-- 6 -->
<g id="node5" class="node">
<title>6</title>
<text text-anchor="start" x="483" y="-253.8" font-family="Arial" font-weight="bold" font-size="14.00"> ≥ 5.5</text>
<text text-anchor="start" x="436" y="-209.3" font-family="Arial" font-size="14.00"> &#160;</text>
<path fill="#ebebeb" stroke="transparent" d="M458,-181C458,-181 542,-181 542,-181 548,-181 554,-187 554,-193 554,-193 554,-233 554,-233 554,-239 548,-245 542,-245 542,-245 458,-245 458,-245 452,-245 446,-239 446,-233 446,-233 446,-193 446,-193 446,-187 452,-181 458,-181"/>
<text text-anchor="start" x="447" y="-242.4" font-family="Arial" font-size="2.00"> </text>
<text text-anchor="start" x="447" y="-236.4" font-family="Arial" font-size="7.00"> &#160;6</text>
<text text-anchor="start" x="461" y="-219.8" font-family="Arial" font-weight="bold" font-size="14.00">Mean: 5.401</text>
<text text-anchor="start" x="476.5" y="-202.8" font-family="Arial" font-weight="bold" font-size="14.00">n = 294</text>
<text text-anchor="start" x="498.5" y="-184.8" font-family="Arial" font-size="9.00"> </text>
<path fill="none" stroke="#333333" d="M458,-181C458,-181 542,-181 542,-181 548,-181 554,-187 554,-193 554,-193 554,-233 554,-233 554,-239 548,-245 542,-245 542,-245 458,-245 458,-245 452,-245 446,-239 446,-233 446,-233 446,-193 446,-193 446,-187 452,-181 458,-181"/>
<text text-anchor="start" x="556" y="-209.3" font-family="Arial" font-size="14.00"> &#160;</text>
<text text-anchor="start" x="450.5" y="-166.8" font-family="Arial" font-weight="bold" font-size="14.00">prev_24_inflow</text>
</g>
<!-- 2&#45;&gt;6 -->
<g id="edge4" class="edge">
<title>2&#45;&gt;6</title>
<path fill="none" stroke="#888888" d="M500,-307.67C500,-299.39 500,-290.83 500,-282.38"/>
<polygon fill="#888888" stroke="#888888" points="503.5,-282.18 500,-272.18 496.5,-282.18 503.5,-282.18"/>
</g>
<!-- 10 -->
<g id="node10" class="node">
<title>10</title>
<text text-anchor="start" x="705.5" y="-253.8" font-family="Arial" font-weight="bold" font-size="14.00"> &lt; 24.75</text>
<path fill="#ebebeb" stroke="transparent" d="M689,-181C689,-181 772,-181 772,-181 778,-181 784,-187 784,-193 784,-193 784,-233 784,-233 784,-239 778,-245 772,-245 772,-245 689,-245 689,-245 683,-245 677,-239 677,-233 677,-233 677,-193 677,-193 677,-187 683,-181 689,-181"/>
<text text-anchor="start" x="678" y="-242.4" font-family="Arial" font-size="2.00"> </text>
<text text-anchor="start" x="678" y="-236.4" font-family="Arial" font-size="7.00"> &#160;10</text>
<text text-anchor="start" x="692" y="-219.8" font-family="Arial" font-weight="bold" font-size="14.00">Mean: 5.911</text>
<text text-anchor="start" x="710.5" y="-202.8" font-family="Arial" font-weight="bold" font-size="14.00">n = 50</text>
<text text-anchor="start" x="729" y="-184.8" font-family="Arial" font-size="9.00"> </text>
<path fill="none" stroke="#333333" d="M689,-181C689,-181 772,-181 772,-181 778,-181 784,-187 784,-193 784,-193 784,-233 784,-233 784,-239 778,-245 772,-245 772,-245 689,-245 689,-245 683,-245 677,-239 677,-233 677,-233 677,-193 677,-193 677,-187 683,-181 689,-181"/>
<text text-anchor="start" x="695" y="-166.8" font-family="Arial" font-weight="bold" font-size="14.00">windspeed</text>
</g>
<!-- 9&#45;&gt;10 -->
<g id="edge9" class="edge">
<title>9&#45;&gt;10</title>
<path fill="none" stroke="#888888" d="M730,-307.67C730,-299.39 730,-290.83 730,-282.38"/>
<polygon fill="#888888" stroke="#888888" points="733.5,-282.18 730,-272.18 726.5,-282.18 733.5,-282.18"/>
</g>
<!-- 13 -->
<g id="node11" class="node">
<title>13</title>
<text text-anchor="start" x="980.5" y="-253.8" font-family="Arial" font-weight="bold" font-size="14.00"> ≥ 24.75</text>
<text text-anchor="start" x="941" y="-209.3" font-family="Arial" font-size="14.00"> &#160;</text>
<path fill="#ebebeb" stroke="transparent" d="M963,-181C963,-181 1047,-181 1047,-181 1053,-181 1059,-187 1059,-193 1059,-193 1059,-233 1059,-233 1059,-239 1053,-245 1047,-245 1047,-245 963,-245 963,-245 957,-245 951,-239 951,-233 951,-233 951,-193 951,-193 951,-187 957,-181 963,-181"/>
<text text-anchor="start" x="952" y="-242.4" font-family="Arial" font-size="2.00"> </text>
<text text-anchor="start" x="952" y="-236.4" font-family="Arial" font-size="7.00"> &#160;13</text>
<text text-anchor="start" x="966" y="-219.8" font-family="Arial" font-weight="bold" font-size="14.00">Mean: 7.247</text>
<text text-anchor="start" x="981.5" y="-202.8" font-family="Arial" font-weight="bold" font-size="14.00">n = 161</text>
<text text-anchor="start" x="1003.5" y="-184.8" font-family="Arial" font-size="9.00"> </text>
<path fill="none" stroke="#333333" d="M963,-181C963,-181 1047,-181 1047,-181 1053,-181 1059,-187 1059,-193 1059,-193 1059,-233 1059,-233 1059,-239 1053,-245 1047,-245 1047,-245 963,-245 963,-245 957,-245 951,-239 951,-233 951,-233 951,-193 951,-193 951,-187 957,-181 963,-181"/>
<text text-anchor="start" x="1061" y="-209.3" font-family="Arial" font-size="14.00"> &#160;</text>
<text text-anchor="start" x="955.5" y="-166.8" font-family="Arial" font-weight="bold" font-size="14.00">prev_24_inflow</text>
</g>
<!-- 9&#45;&gt;13 -->
<g id="edge10" class="edge">
<title>9&#45;&gt;13</title>
<path fill="none" stroke="#888888" d="M792.06,-331.7C830.51,-310.44 880.36,-282.89 922.17,-259.78"/>
<polygon fill="#888888" stroke="#888888" points="923.9,-262.83 930.96,-254.93 920.51,-256.7 923.9,-262.83"/>
</g>
<!-- 4 -->
<g id="node6" class="node">
<title>4</title>
<text text-anchor="start" x="51.5" y="-99.8" font-family="Arial" font-weight="bold" font-size="14.00"> &lt; 3.6</text>
<path fill="#f8766d" fill-opacity="0.874510" stroke="transparent" d="M24,-27C24,-27 114,-27 114,-27 120,-27 126,-33 126,-39 126,-39 126,-79 126,-79 126,-85 120,-91 114,-91 114,-91 24,-91 24,-91 18,-91 12,-85 12,-79 12,-79 12,-39 12,-39 12,-33 18,-27 24,-27"/>
<text text-anchor="start" x="13" y="-88.4" font-family="Arial" font-size="2.00"> </text>
<text text-anchor="start" x="13" y="-82.4" font-family="Arial" font-size="7.00"> &#160;4</text>
<text text-anchor="start" x="27" y="-65.8" font-family="Arial" font-weight="bold" font-size="14.00">Predict 3.071</text>
<text text-anchor="start" x="49" y="-48.8" font-family="Arial" font-weight="bold" font-size="14.00">n = 99</text>
<text text-anchor="start" x="67.5" y="-30.8" font-family="Arial" font-size="9.00"> </text>
<path fill="none" stroke="#333333" d="M24,-27C24,-27 114,-27 114,-27 120,-27 126,-33 126,-39 126,-39 126,-79 126,-79 126,-85 120,-91 114,-91 114,-91 24,-91 24,-91 18,-91 12,-85 12,-79 12,-79 12,-39 12,-39 12,-33 18,-27 24,-27"/>
<text text-anchor="start" x="67" y="-12.8" font-family="Arial" font-weight="bold" font-size="14.00"> </text>
</g>
<!-- 3&#45;&gt;4 -->
<g id="edge5" class="edge">
<title>3&#45;&gt;4</title>
<path fill="none" stroke="#888888" d="M165.13,-153.67C155.62,-144.39 145.72,-134.75 136.05,-125.33"/>
<polygon fill="#888888" stroke="#888888" points="138.31,-122.65 128.71,-118.18 133.43,-127.66 138.31,-122.65"/>
</g>
<!-- 5 -->
<g id="node7" class="node">
<title>5</title>
<text text-anchor="start" x="208" y="-99.8" font-family="Arial" font-weight="bold" font-size="14.00"> ≥ 3.6</text>
<path fill="#f8766d" fill-opacity="0.780392" stroke="transparent" d="M180,-27C180,-27 270,-27 270,-27 276,-27 282,-33 282,-39 282,-39 282,-79 282,-79 282,-85 276,-91 270,-91 270,-91 180,-91 180,-91 174,-91 168,-85 168,-79 168,-79 168,-39 168,-39 168,-33 174,-27 180,-27"/>
<text text-anchor="start" x="169" y="-88.4" font-family="Arial" font-size="2.00"> </text>
<text text-anchor="start" x="169" y="-82.4" font-family="Arial" font-size="7.00"> &#160;5</text>
<text text-anchor="start" x="183" y="-65.8" font-family="Arial" font-weight="bold" font-size="14.00">Predict 4.032</text>
<text text-anchor="start" x="205" y="-48.8" font-family="Arial" font-weight="bold" font-size="14.00">n = 68</text>
<text text-anchor="start" x="223.5" y="-30.8" font-family="Arial" font-size="9.00"> </text>
<path fill="none" stroke="#333333" d="M180,-27C180,-27 270,-27 270,-27 276,-27 282,-33 282,-39 282,-39 282,-79 282,-79 282,-85 276,-91 270,-91 270,-91 180,-91 180,-91 174,-91 168,-85 168,-79 168,-79 168,-39 168,-39 168,-33 174,-27 180,-27"/>
<text text-anchor="start" x="223" y="-12.8" font-family="Arial" font-weight="bold" font-size="14.00"> </text>
</g>
<!-- 3&#45;&gt;5 -->
<g id="edge6" class="edge">
<title>3&#45;&gt;5</title>
<path fill="none" stroke="#888888" d="M225,-153.67C225,-145.39 225,-136.83 225,-128.38"/>
<polygon fill="#888888" stroke="#888888" points="228.5,-128.18 225,-118.18 221.5,-128.18 228.5,-128.18"/>
</g>
<!-- 7 -->
<g id="node8" class="node">
<title>7</title>
<text text-anchor="start" x="356" y="-99.8" font-family="Arial" font-weight="bold" font-size="14.00"> &lt; 5.755</text>
<path fill="#f8766d" fill-opacity="0.698039" stroke="transparent" d="M336,-27C336,-27 426,-27 426,-27 432,-27 438,-33 438,-39 438,-39 438,-79 438,-79 438,-85 432,-91 426,-91 426,-91 336,-91 336,-91 330,-91 324,-85 324,-79 324,-79 324,-39 324,-39 324,-33 330,-27 336,-27"/>
<text text-anchor="start" x="325" y="-88.4" font-family="Arial" font-size="2.00"> </text>
<text text-anchor="start" x="325" y="-82.4" font-family="Arial" font-size="7.00"> &#160;7</text>
<text text-anchor="start" x="339" y="-65.8" font-family="Arial" font-weight="bold" font-size="14.00">Predict 4.893</text>
<text text-anchor="start" x="357.5" y="-48.8" font-family="Arial" font-weight="bold" font-size="14.00">n = 192</text>
<text text-anchor="start" x="379.5" y="-30.8" font-family="Arial" font-size="9.00"> </text>
<path fill="none" stroke="#333333" d="M336,-27C336,-27 426,-27 426,-27 432,-27 438,-33 438,-39 438,-39 438,-79 438,-79 438,-85 432,-91 426,-91 426,-91 336,-91 336,-91 330,-91 324,-85 324,-79 324,-79 324,-39 324,-39 324,-33 330,-27 336,-27"/>
<text text-anchor="start" x="379" y="-12.8" font-family="Arial" font-weight="bold" font-size="14.00"> </text>
</g>
<!-- 6&#45;&gt;7 -->
<g id="edge7" class="edge">
<title>6&#45;&gt;7</title>
<path fill="none" stroke="#888888" d="M454.33,-153.67C447.29,-144.67 439.96,-135.32 432.8,-126.16"/>
<polygon fill="#888888" stroke="#888888" points="435.47,-123.89 426.55,-118.18 429.95,-128.21 435.47,-123.89"/>
</g>
<!-- 8 -->
<g id="node9" class="node">
<title>8</title>
<text text-anchor="start" x="512.5" y="-99.8" font-family="Arial" font-weight="bold" font-size="14.00"> ≥ 5.755</text>
<path fill="#f8766d" fill-opacity="0.552941" stroke="transparent" d="M492,-27C492,-27 582,-27 582,-27 588,-27 594,-33 594,-39 594,-39 594,-79 594,-79 594,-85 588,-91 582,-91 582,-91 492,-91 492,-91 486,-91 480,-85 480,-79 480,-79 480,-39 480,-39 480,-33 486,-27 492,-27"/>
<text text-anchor="start" x="481" y="-88.4" font-family="Arial" font-size="2.00"> </text>
<text text-anchor="start" x="481" y="-82.4" font-family="Arial" font-size="7.00"> &#160;8</text>
<text text-anchor="start" x="495" y="-65.8" font-family="Arial" font-weight="bold" font-size="14.00">Predict 6.355</text>
<text text-anchor="start" x="513.5" y="-48.8" font-family="Arial" font-weight="bold" font-size="14.00">n = 102</text>
<text text-anchor="start" x="535.5" y="-30.8" font-family="Arial" font-size="9.00"> </text>
<path fill="none" stroke="#333333" d="M492,-27C492,-27 582,-27 582,-27 588,-27 594,-33 594,-39 594,-39 594,-79 594,-79 594,-85 588,-91 582,-91 582,-91 492,-91 492,-91 486,-91 480,-85 480,-79 480,-79 480,-39 480,-39 480,-33 486,-27 492,-27"/>
<text text-anchor="start" x="535" y="-12.8" font-family="Arial" font-weight="bold" font-size="14.00"> </text>
</g>
<!-- 6&#45;&gt;8 -->
<g id="edge8" class="edge">
<title>6&#45;&gt;8</title>
<path fill="none" stroke="#888888" d="M514.2,-153.67C516.24,-145.3 518.34,-136.64 520.42,-128.1"/>
<polygon fill="#888888" stroke="#888888" points="523.87,-128.72 522.84,-118.18 517.07,-127.06 523.87,-128.72"/>
</g>
<!-- 11 -->
<g id="node12" class="node">
<title>11</title>
<text text-anchor="start" x="671.5" y="-99.8" font-family="Arial" font-weight="bold" font-size="14.00"> &lt; 33.5</text>
<path fill="#f8766d" fill-opacity="0.560784" stroke="transparent" d="M648,-27C648,-27 738,-27 738,-27 744,-27 750,-33 750,-39 750,-39 750,-79 750,-79 750,-85 744,-91 738,-91 738,-91 648,-91 648,-91 642,-91 636,-85 636,-79 636,-79 636,-39 636,-39 636,-33 642,-27 648,-27"/>
<text text-anchor="start" x="637" y="-88.4" font-family="Arial" font-size="2.00"> </text>
<text text-anchor="start" x="637" y="-82.4" font-family="Arial" font-size="7.00"> &#160;11</text>
<text text-anchor="start" x="651" y="-65.8" font-family="Arial" font-weight="bold" font-size="14.00">Predict 6.274</text>
<text text-anchor="start" x="673" y="-48.8" font-family="Arial" font-weight="bold" font-size="14.00">n = 40</text>
<text text-anchor="start" x="691.5" y="-30.8" font-family="Arial" font-size="9.00"> </text>
<path fill="none" stroke="#333333" d="M648,-27C648,-27 738,-27 738,-27 744,-27 750,-33 750,-39 750,-39 750,-79 750,-79 750,-85 744,-91 738,-91 738,-91 648,-91 648,-91 642,-91 636,-85 636,-79 636,-79 636,-39 636,-39 636,-33 642,-27 648,-27"/>
<text text-anchor="start" x="691" y="-12.8" font-family="Arial" font-weight="bold" font-size="14.00"> </text>
</g>
<!-- 10&#45;&gt;11 -->
<g id="edge11" class="edge">
<title>10&#45;&gt;11</title>
<path fill="none" stroke="#888888" d="M715.8,-153.67C713.76,-145.3 711.66,-136.64 709.58,-128.1"/>
<polygon fill="#888888" stroke="#888888" points="712.93,-127.06 707.16,-118.18 706.13,-128.72 712.93,-127.06"/>
</g>
<!-- 12 -->
<g id="node13" class="node">
<title>12</title>
<text text-anchor="start" x="828" y="-99.8" font-family="Arial" font-weight="bold" font-size="14.00"> ≥ 33.5</text>
<path fill="#f8766d" fill-opacity="0.741176" stroke="transparent" d="M804,-27C804,-27 894,-27 894,-27 900,-27 906,-33 906,-39 906,-39 906,-79 906,-79 906,-85 900,-91 894,-91 894,-91 804,-91 804,-91 798,-91 792,-85 792,-79 792,-79 792,-39 792,-39 792,-33 798,-27 804,-27"/>
<text text-anchor="start" x="793" y="-88.4" font-family="Arial" font-size="2.00"> </text>
<text text-anchor="start" x="793" y="-82.4" font-family="Arial" font-size="7.00"> &#160;12</text>
<text text-anchor="start" x="807" y="-65.8" font-family="Arial" font-weight="bold" font-size="14.00">Predict 4.457</text>
<text text-anchor="start" x="829" y="-48.8" font-family="Arial" font-weight="bold" font-size="14.00">n = 10</text>
<text text-anchor="start" x="847.5" y="-30.8" font-family="Arial" font-size="9.00"> </text>
<path fill="none" stroke="#333333" d="M804,-27C804,-27 894,-27 894,-27 900,-27 906,-33 906,-39 906,-39 906,-79 906,-79 906,-85 900,-91 894,-91 894,-91 804,-91 804,-91 798,-91 792,-85 792,-79 792,-79 792,-39 792,-39 792,-33 798,-27 804,-27"/>
<text text-anchor="start" x="847" y="-12.8" font-family="Arial" font-weight="bold" font-size="14.00"> </text>
</g>
<!-- 10&#45;&gt;12 -->
<g id="edge12" class="edge">
<title>10&#45;&gt;12</title>
<path fill="none" stroke="#888888" d="M775.67,-153.67C782.71,-144.67 790.04,-135.32 797.2,-126.16"/>
<polygon fill="#888888" stroke="#888888" points="800.05,-128.21 803.45,-118.18 794.53,-123.89 800.05,-128.21"/>
</g>
<!-- 14 -->
<g id="node14" class="node">
<title>14</title>
<text text-anchor="start" x="983.5" y="-99.8" font-family="Arial" font-weight="bold" font-size="14.00"> &lt; 7.16</text>
<path fill="#f8766d" fill-opacity="0.549020" stroke="transparent" d="M960,-27C960,-27 1050,-27 1050,-27 1056,-27 1062,-33 1062,-39 1062,-39 1062,-79 1062,-79 1062,-85 1056,-91 1050,-91 1050,-91 960,-91 960,-91 954,-91 948,-85 948,-79 948,-79 948,-39 948,-39 948,-33 954,-27 960,-27"/>
<text text-anchor="start" x="949" y="-88.4" font-family="Arial" font-size="2.00"> </text>
<text text-anchor="start" x="949" y="-82.4" font-family="Arial" font-size="7.00"> &#160;14</text>
<text text-anchor="start" x="963" y="-65.8" font-family="Arial" font-weight="bold" font-size="14.00">Predict 6.403</text>
<text text-anchor="start" x="985" y="-48.8" font-family="Arial" font-weight="bold" font-size="14.00">n = 85</text>
<text text-anchor="start" x="1003.5" y="-30.8" font-family="Arial" font-size="9.00"> </text>
<path fill="none" stroke="#333333" d="M960,-27C960,-27 1050,-27 1050,-27 1056,-27 1062,-33 1062,-39 1062,-39 1062,-79 1062,-79 1062,-85 1056,-91 1050,-91 1050,-91 960,-91 960,-91 954,-91 948,-85 948,-79 948,-79 948,-39 948,-39 948,-33 954,-27 960,-27"/>
<text text-anchor="start" x="1003" y="-12.8" font-family="Arial" font-weight="bold" font-size="14.00"> </text>
</g>
<!-- 13&#45;&gt;14 -->
<g id="edge13" class="edge">
<title>13&#45;&gt;14</title>
<path fill="none" stroke="#888888" d="M1005,-153.67C1005,-145.39 1005,-136.83 1005,-128.38"/>
<polygon fill="#888888" stroke="#888888" points="1008.5,-128.18 1005,-118.18 1001.5,-128.18 1008.5,-128.18"/>
</g>
<!-- 15 -->
<g id="node15" class="node">
<title>15</title>
<text text-anchor="start" x="1136" y="-99.8" font-family="Arial" font-weight="bold" font-size="14.00"> ≥ 7.16</text>
<path fill="#f8766d" fill-opacity="0.376471" stroke="transparent" d="M1116,-27C1116,-27 1198,-27 1198,-27 1204,-27 1210,-33 1210,-39 1210,-39 1210,-79 1210,-79 1210,-85 1204,-91 1198,-91 1198,-91 1116,-91 1116,-91 1110,-91 1104,-85 1104,-79 1104,-79 1104,-39 1104,-39 1104,-33 1110,-27 1116,-27"/>
<text text-anchor="start" x="1105" y="-88.4" font-family="Arial" font-size="2.00"> </text>
<text text-anchor="start" x="1105" y="-82.4" font-family="Arial" font-size="7.00"> &#160;15</text>
<text text-anchor="start" x="1119" y="-65.8" font-family="Arial" font-weight="bold" font-size="14.00">Predict 8.19</text>
<text text-anchor="start" x="1137" y="-48.8" font-family="Arial" font-weight="bold" font-size="14.00">n = 76</text>
<text text-anchor="start" x="1155.5" y="-30.8" font-family="Arial" font-size="9.00"> </text>
<path fill="none" stroke="#333333" d="M1116,-27C1116,-27 1198,-27 1198,-27 1204,-27 1210,-33 1210,-39 1210,-39 1210,-79 1210,-79 1210,-85 1204,-91 1198,-91 1198,-91 1116,-91 1116,-91 1110,-91 1104,-85 1104,-79 1104,-79 1104,-39 1104,-39 1104,-33 1110,-27 1116,-27"/>
<text text-anchor="start" x="1155" y="-12.8" font-family="Arial" font-weight="bold" font-size="14.00"> </text>
</g>
<!-- 13&#45;&gt;15 -->
<g id="edge14" class="edge">
<title>13&#45;&gt;15</title>
<path fill="none" stroke="#888888" d="M1063.33,-153.67C1072.61,-144.39 1082.25,-134.75 1091.67,-125.33"/>
<polygon fill="#888888" stroke="#888888" points="1094.23,-127.72 1098.82,-118.18 1089.28,-122.77 1094.23,-127.72"/>
</g>
</g>
</svg>
