<?xml version="1.0" encoding="UTF-8" standalone="no"?>
<!DOCTYPE svg PUBLIC "-//W3C//DTD SVG 1.1//EN"
 "http://www.w3.org/Graphics/SVG/1.1/DTD/svg11.dtd">
<!-- Generated by graphviz version 2.50.0 (20211204.2007)
 -->
<!-- Pages: 1 -->
<svg width="983pt" height="742pt"
 viewBox="0.00 0.00 983.00 742.00" xmlns="http://www.w3.org/2000/svg" xmlns:xlink="http://www.w3.org/1999/xlink">
<g id="graph0" class="graph" transform="scale(1 1) rotate(0) translate(4 738)">
<polygon fill="white" stroke="transparent" points="-4,4 -4,-738 979,-738 979,4 -4,4"/>
<!-- 1 -->
<g id="node1" class="node">
<title>1</title>
<text text-anchor="start" x="448" y="-715.8" font-family="Arial" font-weight="bold" font-size="14.00"> </text>
<path fill="#ebebeb" stroke="transparent" d="M408,-643C408,-643 492,-643 492,-643 498,-643 504,-649 504,-655 504,-655 504,-695 504,-695 504,-701 498,-707 492,-707 492,-707 408,-707 408,-707 402,-707 396,-701 396,-695 396,-695 396,-655 396,-655 396,-649 402,-643 408,-643"/>
<text text-anchor="start" x="397" y="-704.4" font-family="Arial" font-size="2.00"> </text>
<text text-anchor="start" x="397" y="-698.4" font-family="Arial" font-size="7.00"> &#160;1</text>
<text text-anchor="start" x="411" y="-681.8" font-family="Arial" font-weight="bold" font-size="14.00">Mean: 28.76</text>
<text text-anchor="start" x="426.5" y="-664.8" font-family="Arial" font-weight="bold" font-size="14.00">n = 168</text>
<text text-anchor="start" x="448.5" y="-646.8" font-family="Arial" font-size="9.00"> </text>
<path fill="none" stroke="#333333" d="M408,-643C408,-643 492,-643 492,-643 498,-643 504,-649 504,-655 504,-655 504,-695 504,-695 504,-701 498,-707 492,-707 492,-707 408,-707 408,-707 402,-707 396,-701 396,-695 396,-695 396,-655 396,-655 396,-649 402,-643 408,-643"/>
<text text-anchor="start" x="435.5" y="-628.8" font-family="Arial" font-weight="bold" font-size="14.00">time</text>
</g>
<!-- 2 -->
<g id="node2" class="node">
<title>2</title>
<text text-anchor="start" x="348" y="-561.8" font-family="Arial" font-weight="bold" font-size="14.00"> &lt; 11.5</text>
<text text-anchor="start" x="301" y="-517.3" font-family="Arial" font-size="14.00"> &#160;&#160;</text>
<path fill="#ebebeb" stroke="transparent" d="M327,-489C327,-489 411,-489 411,-489 417,-489 423,-495 423,-501 423,-501 423,-541 423,-541 423,-547 417,-553 411,-553 411,-553 327,-553 327,-553 321,-553 315,-547 315,-541 315,-541 315,-501 315,-501 315,-495 321,-489 327,-489"/>
<text text-anchor="start" x="316" y="-550.4" font-family="Arial" font-size="2.00"> </text>
<text text-anchor="start" x="316" y="-544.4" font-family="Arial" font-size="7.00"> &#160;2</text>
<text text-anchor="start" x="330" y="-527.8" font-family="Arial" font-weight="bold" font-size="14.00">Mean: 28.06</text>
<text text-anchor="start" x="349" y="-510.8" font-family="Arial" font-weight="bold" font-size="14.00">n = 84</text>
<text text-anchor="start" x="367.5" y="-492.8" font-family="Arial" font-size="9.00"> </text>
<path fill="none" stroke="#333333" d="M327,-489C327,-489 411,-489 411,-489 417,-489 423,-495 423,-501 423,-501 423,-541 423,-541 423,-547 417,-553 411,-553 411,-553 327,-553 327,-553 321,-553 315,-547 315,-541 315,-541 315,-501 315,-501 315,-495 321,-489 327,-489"/>
<text text-anchor="start" x="425" y="-517.3" font-family="Arial" font-size="14.00"> &#160;&#160;</text>
<text text-anchor="start" x="316" y="-474.8" font-family="Arial" font-weight="bold" font-size="14.00">prev_168_inflow</text>
</g>
<!-- 1&#45;&gt;2 -->
<g id="edge1" class="edge">
<title>1&#45;&gt;2</title>
<path fill="none" stroke="#888888" d="M418.91,-615.67C414.31,-607.03 409.54,-598.07 404.85,-589.27"/>
<polygon fill="#888888" stroke="#888888" points="407.79,-587.36 400,-580.18 401.62,-590.65 407.79,-587.36"/>
</g>
<!-- 11 -->
<g id="node3" class="node">
<title>11</title>
<text text-anchor="start" x="510.5" y="-561.8" font-family="Arial" font-weight="bold" font-size="14.00"> ≥ 11.5</text>
<path fill="#ebebeb" stroke="transparent" d="M489,-489C489,-489 573,-489 573,-489 579,-489 585,-495 585,-501 585,-501 585,-541 585,-541 585,-547 579,-553 573,-553 573,-553 489,-553 489,-553 483,-553 477,-547 477,-541 477,-541 477,-501 477,-501 477,-495 483,-489 489,-489"/>
<text text-anchor="start" x="478" y="-550.4" font-family="Arial" font-size="2.00"> </text>
<text text-anchor="start" x="478" y="-544.4" font-family="Arial" font-size="7.00"> &#160;11</text>
<text text-anchor="start" x="492" y="-527.8" font-family="Arial" font-weight="bold" font-size="14.00">Mean: 29.46</text>
<text text-anchor="start" x="511" y="-510.8" font-family="Arial" font-weight="bold" font-size="14.00">n = 84</text>
<text text-anchor="start" x="529.5" y="-492.8" font-family="Arial" font-size="9.00"> </text>
<path fill="none" stroke="#333333" d="M489,-489C489,-489 573,-489 573,-489 579,-489 585,-495 585,-501 585,-501 585,-541 585,-541 585,-547 579,-553 573,-553 573,-553 489,-553 489,-553 483,-553 477,-547 477,-541 477,-541 477,-501 477,-501 477,-495 483,-489 489,-489"/>
<text text-anchor="start" x="501.5" y="-474.8" font-family="Arial" font-weight="bold" font-size="14.00">day_type</text>
</g>
<!-- 1&#45;&gt;11 -->
<g id="edge2" class="edge">
<title>1&#45;&gt;11</title>
<path fill="none" stroke="#888888" d="M481.09,-615.67C485.69,-607.03 490.46,-598.07 495.15,-589.27"/>
<polygon fill="#888888" stroke="#888888" points="498.38,-590.65 500,-580.18 492.21,-587.36 498.38,-590.65"/>
</g>
<!-- 3 -->
<g id="node4" class="node">
<title>3</title>
<text text-anchor="start" x="189" y="-407.8" font-family="Arial" font-weight="bold" font-size="14.00"> &lt; 31.36</text>
<text text-anchor="start" x="150" y="-363.3" font-family="Arial" font-size="14.00"> &#160;</text>
<path fill="#ebebeb" stroke="transparent" d="M172,-335C172,-335 256,-335 256,-335 262,-335 268,-341 268,-347 268,-347 268,-387 268,-387 268,-393 262,-399 256,-399 256,-399 172,-399 172,-399 166,-399 160,-393 160,-387 160,-387 160,-347 160,-347 160,-341 166,-335 172,-335"/>
<text text-anchor="start" x="161" y="-396.4" font-family="Arial" font-size="2.00"> </text>
<text text-anchor="start" x="161" y="-390.4" font-family="Arial" font-size="7.00"> &#160;3</text>
<text text-anchor="start" x="175" y="-373.8" font-family="Arial" font-weight="bold" font-size="14.00">Mean: 25.14</text>
<text text-anchor="start" x="194" y="-356.8" font-family="Arial" font-weight="bold" font-size="14.00">n = 59</text>
<text text-anchor="start" x="212.5" y="-338.8" font-family="Arial" font-size="9.00"> </text>
<path fill="none" stroke="#333333" d="M172,-335C172,-335 256,-335 256,-335 262,-335 268,-341 268,-347 268,-347 268,-387 268,-387 268,-393 262,-399 256,-399 256,-399 172,-399 172,-399 166,-399 160,-393 160,-387 160,-387 160,-347 160,-347 160,-341 166,-335 172,-335"/>
<text text-anchor="start" x="270" y="-363.3" font-family="Arial" font-size="14.00"> &#160;</text>
<text text-anchor="start" x="164.5" y="-320.8" font-family="Arial" font-weight="bold" font-size="14.00">prev_24_inflow</text>
</g>
<!-- 2&#45;&gt;3 -->
<g id="edge3" class="edge">
<title>2&#45;&gt;3</title>
<path fill="none" stroke="#888888" d="M309.52,-461.67C300.06,-452.39 290.22,-442.75 280.62,-433.33"/>
<polygon fill="#888888" stroke="#888888" points="282.92,-430.68 273.32,-426.18 278.01,-435.68 282.92,-430.68"/>
</g>
<!-- 6 -->
<g id="node5" class="node">
<title>6</title>
<text text-anchor="start" x="347.5" y="-407.8" font-family="Arial" font-weight="bold" font-size="14.00"> ≥ 31.36</text>
<path fill="#ebebeb" stroke="transparent" d="M330,-335C330,-335 414,-335 414,-335 420,-335 426,-341 426,-347 426,-347 426,-387 426,-387 426,-393 420,-399 414,-399 414,-399 330,-399 330,-399 324,-399 318,-393 318,-387 318,-387 318,-347 318,-347 318,-341 324,-335 330,-335"/>
<text text-anchor="start" x="319" y="-396.4" font-family="Arial" font-size="2.00"> </text>
<text text-anchor="start" x="319" y="-390.4" font-family="Arial" font-size="7.00"> &#160;6</text>
<text text-anchor="start" x="333" y="-373.8" font-family="Arial" font-weight="bold" font-size="14.00">Mean: 34.94</text>
<text text-anchor="start" x="352" y="-356.8" font-family="Arial" font-weight="bold" font-size="14.00">n = 25</text>
<text text-anchor="start" x="370.5" y="-338.8" font-family="Arial" font-size="9.00"> </text>
<path fill="none" stroke="#333333" d="M330,-335C330,-335 414,-335 414,-335 420,-335 426,-341 426,-347 426,-347 426,-387 426,-387 426,-393 420,-399 414,-399 414,-399 330,-399 330,-399 324,-399 318,-393 318,-387 318,-387 318,-347 318,-347 318,-341 324,-335 330,-335"/>
<text text-anchor="start" x="343" y="-320.8" font-family="Arial" font-weight="bold" font-size="14.00">air_temp</text>
</g>
<!-- 2&#45;&gt;6 -->
<g id="edge4" class="edge">
<title>2&#45;&gt;6</title>
<path fill="none" stroke="#888888" d="M370.15,-461.67C370.31,-453.39 370.48,-444.83 370.65,-436.38"/>
<polygon fill="#888888" stroke="#888888" points="374.15,-436.24 370.85,-426.18 367.16,-436.11 374.15,-436.24"/>
</g>
<!-- 12 -->
<g id="node12" class="node">
<title>12</title>
<text text-anchor="start" x="511.5" y="-407.8" font-family="Arial" font-weight="bold" font-size="14.00"> &lt; 0.5</text>
<path fill="#f8766d" fill-opacity="0.807843" stroke="transparent" d="M484,-335C484,-335 574,-335 574,-335 580,-335 586,-341 586,-347 586,-347 586,-387 586,-387 586,-393 580,-399 574,-399 574,-399 484,-399 484,-399 478,-399 472,-393 472,-387 472,-387 472,-347 472,-347 472,-341 478,-335 484,-335"/>
<text text-anchor="start" x="473" y="-396.4" font-family="Arial" font-size="2.00"> </text>
<text text-anchor="start" x="473" y="-390.4" font-family="Arial" font-size="7.00"> &#160;12</text>
<text text-anchor="start" x="487" y="-373.8" font-family="Arial" font-weight="bold" font-size="14.00">Predict 26.31</text>
<text text-anchor="start" x="509" y="-356.8" font-family="Arial" font-weight="bold" font-size="14.00">n = 24</text>
<text text-anchor="start" x="527.5" y="-338.8" font-family="Arial" font-size="9.00"> </text>
<path fill="none" stroke="#333333" d="M484,-335C484,-335 574,-335 574,-335 580,-335 586,-341 586,-347 586,-347 586,-387 586,-387 586,-393 580,-399 574,-399 574,-399 484,-399 484,-399 478,-399 472,-393 472,-387 472,-387 472,-347 472,-347 472,-341 478,-335 484,-335"/>
<text text-anchor="start" x="527" y="-320.8" font-family="Arial" font-weight="bold" font-size="14.00"> </text>
</g>
<!-- 11&#45;&gt;12 -->
<g id="edge11" class="edge">
<title>11&#45;&gt;12</title>
<path fill="none" stroke="#888888" d="M530.23,-461.67C530.12,-453.39 530.01,-444.83 529.9,-436.38"/>
<polygon fill="#888888" stroke="#888888" points="533.4,-436.13 529.77,-426.18 526.4,-436.22 533.4,-436.13"/>
</g>
<!-- 13 -->
<g id="node13" class="node">
<title>13</title>
<text text-anchor="start" x="665" y="-407.8" font-family="Arial" font-weight="bold" font-size="14.00"> ≥ 0.5</text>
<path fill="#ebebeb" stroke="transparent" d="M640,-335C640,-335 724,-335 724,-335 730,-335 736,-341 736,-347 736,-347 736,-387 736,-387 736,-393 730,-399 724,-399 724,-399 640,-399 640,-399 634,-399 628,-393 628,-387 628,-387 628,-347 628,-347 628,-341 634,-335 640,-335"/>
<text text-anchor="start" x="629" y="-396.4" font-family="Arial" font-size="2.00"> </text>
<text text-anchor="start" x="629" y="-390.4" font-family="Arial" font-size="7.00"> &#160;13</text>
<text text-anchor="start" x="643" y="-373.8" font-family="Arial" font-weight="bold" font-size="14.00">Mean: 30.72</text>
<text text-anchor="start" x="662" y="-356.8" font-family="Arial" font-weight="bold" font-size="14.00">n = 60</text>
<text text-anchor="start" x="680.5" y="-338.8" font-family="Arial" font-size="9.00"> </text>
<path fill="none" stroke="#333333" d="M640,-335C640,-335 724,-335 724,-335 730,-335 736,-341 736,-347 736,-347 736,-387 736,-387 736,-393 730,-399 724,-399 724,-399 640,-399 640,-399 634,-399 628,-393 628,-387 628,-387 628,-347 628,-347 628,-341 634,-335 640,-335"/>
<text text-anchor="start" x="667.5" y="-320.8" font-family="Arial" font-weight="bold" font-size="14.00">time</text>
</g>
<!-- 11&#45;&gt;13 -->
<g id="edge12" class="edge">
<title>11&#45;&gt;13</title>
<path fill="none" stroke="#888888" d="M588.95,-461.67C598.16,-452.39 607.74,-442.75 617.1,-433.33"/>
<polygon fill="#888888" stroke="#888888" points="619.64,-435.74 624.21,-426.18 614.68,-430.8 619.64,-435.74"/>
</g>
<!-- 4 -->
<g id="node6" class="node">
<title>4</title>
<text text-anchor="start" x="40" y="-253.8" font-family="Arial" font-weight="bold" font-size="14.00"> &lt; 26.33</text>
<path fill="#f8766d" fill-opacity="0.874510" stroke="transparent" d="M24,-181C24,-181 106,-181 106,-181 112,-181 118,-187 118,-193 118,-193 118,-233 118,-233 118,-239 112,-245 106,-245 106,-245 24,-245 24,-245 18,-245 12,-239 12,-233 12,-233 12,-193 12,-193 12,-187 18,-181 24,-181"/>
<text text-anchor="start" x="13" y="-242.4" font-family="Arial" font-size="2.00"> </text>
<text text-anchor="start" x="13" y="-236.4" font-family="Arial" font-size="7.00"> &#160;4</text>
<text text-anchor="start" x="27" y="-219.8" font-family="Arial" font-weight="bold" font-size="14.00">Predict 23.9</text>
<text text-anchor="start" x="45" y="-202.8" font-family="Arial" font-weight="bold" font-size="14.00">n = 44</text>
<text text-anchor="start" x="63.5" y="-184.8" font-family="Arial" font-size="9.00"> </text>
<path fill="none" stroke="#333333" d="M24,-181C24,-181 106,-181 106,-181 112,-181 118,-187 118,-193 118,-193 118,-233 118,-233 118,-239 112,-245 106,-245 106,-245 24,-245 24,-245 18,-245 12,-239 12,-233 12,-233 12,-193 12,-193 12,-187 18,-181 24,-181"/>
<text text-anchor="start" x="63" y="-166.8" font-family="Arial" font-weight="bold" font-size="14.00"> </text>
</g>
<!-- 3&#45;&gt;4 -->
<g id="edge5" class="edge">
<title>3&#45;&gt;4</title>
<path fill="none" stroke="#888888" d="M156.82,-307.67C147.73,-298.39 138.27,-288.75 129.04,-279.33"/>
<polygon fill="#888888" stroke="#888888" points="131.53,-276.87 122.03,-272.18 126.53,-281.77 131.53,-276.87"/>
</g>
<!-- 5 -->
<g id="node7" class="node">
<title>5</title>
<text text-anchor="start" x="192.5" y="-253.8" font-family="Arial" font-weight="bold" font-size="14.00"> ≥ 26.33</text>
<path fill="#f8766d" fill-opacity="0.741176" stroke="transparent" d="M172,-181C172,-181 262,-181 262,-181 268,-181 274,-187 274,-193 274,-193 274,-233 274,-233 274,-239 268,-245 262,-245 262,-245 172,-245 172,-245 166,-245 160,-239 160,-233 160,-233 160,-193 160,-193 160,-187 166,-181 172,-181"/>
<text text-anchor="start" x="161" y="-242.4" font-family="Arial" font-size="2.00"> </text>
<text text-anchor="start" x="161" y="-236.4" font-family="Arial" font-size="7.00"> &#160;5</text>
<text text-anchor="start" x="175" y="-219.8" font-family="Arial" font-weight="bold" font-size="14.00">Predict 28.78</text>
<text text-anchor="start" x="197" y="-202.8" font-family="Arial" font-weight="bold" font-size="14.00">n = 15</text>
<text text-anchor="start" x="215.5" y="-184.8" font-family="Arial" font-size="9.00"> </text>
<path fill="none" stroke="#333333" d="M172,-181C172,-181 262,-181 262,-181 268,-181 274,-187 274,-193 274,-193 274,-233 274,-233 274,-239 268,-245 262,-245 262,-245 172,-245 172,-245 166,-245 160,-239 160,-233 160,-233 160,-193 160,-193 160,-187 166,-181 172,-181"/>
<text text-anchor="start" x="215" y="-166.8" font-family="Arial" font-weight="bold" font-size="14.00"> </text>
</g>
<!-- 3&#45;&gt;5 -->
<g id="edge6" class="edge">
<title>3&#45;&gt;5</title>
<path fill="none" stroke="#888888" d="M215.15,-307.67C215.31,-299.39 215.48,-290.83 215.65,-282.38"/>
<polygon fill="#888888" stroke="#888888" points="219.15,-282.24 215.85,-272.18 212.16,-282.11 219.15,-282.24"/>
</g>
<!-- 7 -->
<g id="node8" class="node">
<title>7</title>
<text text-anchor="start" x="345" y="-253.8" font-family="Arial" font-weight="bold" font-size="14.00"> &lt; 22.25</text>
<path fill="#ebebeb" stroke="transparent" d="M332,-181C332,-181 408,-181 408,-181 414,-181 420,-187 420,-193 420,-193 420,-233 420,-233 420,-239 414,-245 408,-245 408,-245 332,-245 332,-245 326,-245 320,-239 320,-233 320,-233 320,-193 320,-193 320,-187 326,-181 332,-181"/>
<text text-anchor="start" x="321" y="-242.4" font-family="Arial" font-size="2.00"> </text>
<text text-anchor="start" x="321" y="-236.4" font-family="Arial" font-size="7.00"> &#160;7</text>
<text text-anchor="start" x="335" y="-219.8" font-family="Arial" font-weight="bold" font-size="14.00">Mean: 40.3</text>
<text text-anchor="start" x="354" y="-202.8" font-family="Arial" font-weight="bold" font-size="14.00">n = 3</text>
<text text-anchor="start" x="368.5" y="-184.8" font-family="Arial" font-size="9.00"> </text>
<path fill="none" stroke="#333333" d="M332,-181C332,-181 408,-181 408,-181 414,-181 420,-187 420,-193 420,-193 420,-233 420,-233 420,-239 414,-245 408,-245 408,-245 332,-245 332,-245 326,-245 320,-239 320,-233 320,-233 320,-193 320,-193 320,-187 326,-181 332,-181"/>
<text text-anchor="start" x="355.5" y="-166.8" font-family="Arial" font-weight="bold" font-size="14.00">time</text>
</g>
<!-- 6&#45;&gt;7 -->
<g id="edge7" class="edge">
<title>6&#45;&gt;7</title>
<path fill="none" stroke="#888888" d="M371.23,-307.67C371.12,-299.39 371.01,-290.83 370.9,-282.38"/>
<polygon fill="#888888" stroke="#888888" points="374.4,-282.13 370.77,-272.18 367.4,-282.22 374.4,-282.13"/>
</g>
<!-- 10 -->
<g id="node9" class="node">
<title>10</title>
<text text-anchor="start" x="494.5" y="-253.8" font-family="Arial" font-weight="bold" font-size="14.00"> ≥ 22.25</text>
<path fill="#f8766d" fill-opacity="0.596078" stroke="transparent" d="M474,-181C474,-181 564,-181 564,-181 570,-181 576,-187 576,-193 576,-193 576,-233 576,-233 576,-239 570,-245 564,-245 564,-245 474,-245 474,-245 468,-245 462,-239 462,-233 462,-233 462,-193 462,-193 462,-187 468,-181 474,-181"/>
<text text-anchor="start" x="463" y="-242.4" font-family="Arial" font-size="2.00"> </text>
<text text-anchor="start" x="463" y="-236.4" font-family="Arial" font-size="7.00"> &#160;10</text>
<text text-anchor="start" x="477" y="-219.8" font-family="Arial" font-weight="bold" font-size="14.00">Predict 34.21</text>
<text text-anchor="start" x="499" y="-202.8" font-family="Arial" font-weight="bold" font-size="14.00">n = 22</text>
<text text-anchor="start" x="517.5" y="-184.8" font-family="Arial" font-size="9.00"> </text>
<path fill="none" stroke="#333333" d="M474,-181C474,-181 564,-181 564,-181 570,-181 576,-187 576,-193 576,-193 576,-233 576,-233 576,-239 570,-245 564,-245 564,-245 474,-245 474,-245 468,-245 462,-239 462,-233 462,-233 462,-193 462,-193 462,-187 468,-181 474,-181"/>
<text text-anchor="start" x="517" y="-166.8" font-family="Arial" font-weight="bold" font-size="14.00"> </text>
</g>
<!-- 6&#45;&gt;10 -->
<g id="edge8" class="edge">
<title>6&#45;&gt;10</title>
<path fill="none" stroke="#888888" d="M428.41,-307.67C437.29,-298.49 446.53,-288.94 455.55,-279.6"/>
<polygon fill="#888888" stroke="#888888" points="458.3,-281.8 462.74,-272.18 453.27,-276.93 458.3,-281.8"/>
</g>
<!-- 8 -->
<g id="node10" class="node">
<title>8</title>
<text text-anchor="start" x="274.5" y="-99.8" font-family="Arial" font-weight="bold" font-size="14.00"> &lt; 7.5</text>
<path fill="#f8766d" fill-opacity="0.533333" stroke="transparent" d="M247,-27C247,-27 337,-27 337,-27 343,-27 349,-33 349,-39 349,-39 349,-79 349,-79 349,-85 343,-91 337,-91 337,-91 247,-91 247,-91 241,-91 235,-85 235,-79 235,-79 235,-39 235,-39 235,-33 241,-27 247,-27"/>
<text text-anchor="start" x="236" y="-88.4" font-family="Arial" font-size="2.00"> </text>
<text text-anchor="start" x="236" y="-82.4" font-family="Arial" font-size="7.00"> &#160;8</text>
<text text-anchor="start" x="250" y="-65.8" font-family="Arial" font-weight="bold" font-size="14.00">Predict 36.39</text>
<text text-anchor="start" x="276" y="-48.8" font-family="Arial" font-weight="bold" font-size="14.00">n = 1</text>
<text text-anchor="start" x="290.5" y="-30.8" font-family="Arial" font-size="9.00"> </text>
<path fill="none" stroke="#333333" d="M247,-27C247,-27 337,-27 337,-27 343,-27 349,-33 349,-39 349,-39 349,-79 349,-79 349,-85 343,-91 337,-91 337,-91 247,-91 247,-91 241,-91 235,-85 235,-79 235,-79 235,-39 235,-39 235,-33 241,-27 247,-27"/>
<text text-anchor="start" x="290" y="-12.8" font-family="Arial" font-weight="bold" font-size="14.00"> </text>
</g>
<!-- 7&#45;&gt;8 -->
<g id="edge9" class="edge">
<title>7&#45;&gt;8</title>
<path fill="none" stroke="#888888" d="M340.07,-153.67C335.63,-145.03 331.04,-136.07 326.52,-127.27"/>
<polygon fill="#888888" stroke="#888888" points="329.53,-125.48 321.85,-118.18 323.31,-128.67 329.53,-125.48"/>
</g>
<!-- 9 -->
<g id="node11" class="node">
<title>9</title>
<text text-anchor="start" x="431" y="-99.8" font-family="Arial" font-weight="bold" font-size="14.00"> ≥ 7.5</text>
<path fill="#f8766d" fill-opacity="0.376471" stroke="transparent" d="M403,-27C403,-27 493,-27 493,-27 499,-27 505,-33 505,-39 505,-39 505,-79 505,-79 505,-85 499,-91 493,-91 493,-91 403,-91 403,-91 397,-91 391,-85 391,-79 391,-79 391,-39 391,-39 391,-33 397,-27 403,-27"/>
<text text-anchor="start" x="392" y="-88.4" font-family="Arial" font-size="2.00"> </text>
<text text-anchor="start" x="392" y="-82.4" font-family="Arial" font-size="7.00"> &#160;9</text>
<text text-anchor="start" x="406" y="-65.8" font-family="Arial" font-weight="bold" font-size="14.00">Predict 42.26</text>
<text text-anchor="start" x="432" y="-48.8" font-family="Arial" font-weight="bold" font-size="14.00">n = 2</text>
<text text-anchor="start" x="446.5" y="-30.8" font-family="Arial" font-size="9.00"> </text>
<path fill="none" stroke="#333333" d="M403,-27C403,-27 493,-27 493,-27 499,-27 505,-33 505,-39 505,-39 505,-79 505,-79 505,-85 499,-91 493,-91 493,-91 403,-91 403,-91 397,-91 391,-85 391,-79 391,-79 391,-39 391,-39 391,-33 397,-27 403,-27"/>
<text text-anchor="start" x="446" y="-12.8" font-family="Arial" font-weight="bold" font-size="14.00"> </text>
</g>
<!-- 7&#45;&gt;9 -->
<g id="edge10" class="edge">
<title>7&#45;&gt;9</title>
<path fill="none" stroke="#888888" d="M399.93,-153.67C404.37,-145.03 408.96,-136.07 413.48,-127.27"/>
<polygon fill="#888888" stroke="#888888" points="416.69,-128.67 418.15,-118.18 410.47,-125.48 416.69,-128.67"/>
</g>
<!-- 14 -->
<g id="node14" class="node">
<title>14</title>
<text text-anchor="start" x="657.5" y="-253.8" font-family="Arial" font-weight="bold" font-size="14.00"> &lt; 15.5</text>
<path fill="#f8766d" fill-opacity="0.639216" stroke="transparent" d="M634,-181C634,-181 724,-181 724,-181 730,-181 736,-187 736,-193 736,-193 736,-233 736,-233 736,-239 730,-245 724,-245 724,-245 634,-245 634,-245 628,-245 622,-239 622,-233 622,-233 622,-193 622,-193 622,-187 628,-181 634,-181"/>
<text text-anchor="start" x="623" y="-242.4" font-family="Arial" font-size="2.00"> </text>
<text text-anchor="start" x="623" y="-236.4" font-family="Arial" font-size="7.00"> &#160;14</text>
<text text-anchor="start" x="637" y="-219.8" font-family="Arial" font-weight="bold" font-size="14.00">Predict 32.56</text>
<text text-anchor="start" x="659" y="-202.8" font-family="Arial" font-weight="bold" font-size="14.00">n = 20</text>
<text text-anchor="start" x="677.5" y="-184.8" font-family="Arial" font-size="9.00"> </text>
<path fill="none" stroke="#333333" d="M634,-181C634,-181 724,-181 724,-181 730,-181 736,-187 736,-193 736,-193 736,-233 736,-233 736,-239 730,-245 724,-245 724,-245 634,-245 634,-245 628,-245 622,-239 622,-233 622,-233 622,-193 622,-193 622,-187 628,-181 634,-181"/>
<text text-anchor="start" x="677" y="-166.8" font-family="Arial" font-weight="bold" font-size="14.00"> </text>
</g>
<!-- 13&#45;&gt;14 -->
<g id="edge13" class="edge">
<title>13&#45;&gt;14</title>
<path fill="none" stroke="#888888" d="M680.85,-307.67C680.69,-299.39 680.52,-290.83 680.35,-282.38"/>
<polygon fill="#888888" stroke="#888888" points="683.84,-282.11 680.15,-272.18 676.85,-282.24 683.84,-282.11"/>
</g>
<!-- 15 -->
<g id="node15" class="node">
<title>15</title>
<text text-anchor="start" x="807" y="-253.8" font-family="Arial" font-weight="bold" font-size="14.00"> ≥ 15.5</text>
<path fill="#ebebeb" stroke="transparent" d="M790,-181C790,-181 866,-181 866,-181 872,-181 878,-187 878,-193 878,-193 878,-233 878,-233 878,-239 872,-245 866,-245 866,-245 790,-245 790,-245 784,-245 778,-239 778,-233 778,-233 778,-193 778,-193 778,-187 784,-181 790,-181"/>
<text text-anchor="start" x="779" y="-242.4" font-family="Arial" font-size="2.00"> </text>
<text text-anchor="start" x="779" y="-236.4" font-family="Arial" font-size="7.00"> &#160;15</text>
<text text-anchor="start" x="793" y="-219.8" font-family="Arial" font-weight="bold" font-size="14.00">Mean: 29.8</text>
<text text-anchor="start" x="808" y="-202.8" font-family="Arial" font-weight="bold" font-size="14.00">n = 40</text>
<text text-anchor="start" x="826.5" y="-184.8" font-family="Arial" font-size="9.00"> </text>
<path fill="none" stroke="#333333" d="M790,-181C790,-181 866,-181 866,-181 872,-181 878,-187 878,-193 878,-193 878,-233 878,-233 878,-239 872,-245 866,-245 866,-245 790,-245 790,-245 784,-245 778,-239 778,-233 778,-233 778,-193 778,-193 778,-187 784,-181 790,-181"/>
<text text-anchor="start" x="813.5" y="-166.8" font-family="Arial" font-weight="bold" font-size="14.00">time</text>
</g>
<!-- 13&#45;&gt;15 -->
<g id="edge14" class="edge">
<title>13&#45;&gt;15</title>
<path fill="none" stroke="#888888" d="M738.03,-307.67C746.85,-298.49 756.02,-288.94 764.98,-279.6"/>
<polygon fill="#888888" stroke="#888888" points="767.72,-281.81 772.12,-272.18 762.67,-276.96 767.72,-281.81"/>
</g>
<!-- 16 -->
<g id="node16" class="node">
<title>16</title>
<text text-anchor="start" x="728.5" y="-99.8" font-family="Arial" font-weight="bold" font-size="14.00"> &lt; 20.5</text>
<path fill="#f8766d" fill-opacity="0.686275" stroke="transparent" d="M705,-27C705,-27 795,-27 795,-27 801,-27 807,-33 807,-39 807,-39 807,-79 807,-79 807,-85 801,-91 795,-91 795,-91 705,-91 705,-91 699,-91 693,-85 693,-79 693,-79 693,-39 693,-39 693,-33 699,-27 705,-27"/>
<text text-anchor="start" x="694" y="-88.4" font-family="Arial" font-size="2.00"> </text>
<text text-anchor="start" x="694" y="-82.4" font-family="Arial" font-size="7.00"> &#160;16</text>
<text text-anchor="start" x="708" y="-65.8" font-family="Arial" font-weight="bold" font-size="14.00">Predict 30.84</text>
<text text-anchor="start" x="730" y="-48.8" font-family="Arial" font-weight="bold" font-size="14.00">n = 25</text>
<text text-anchor="start" x="748.5" y="-30.8" font-family="Arial" font-size="9.00"> </text>
<path fill="none" stroke="#333333" d="M705,-27C705,-27 795,-27 795,-27 801,-27 807,-33 807,-39 807,-39 807,-79 807,-79 807,-85 801,-91 795,-91 795,-91 705,-91 705,-91 699,-91 693,-85 693,-79 693,-79 693,-39 693,-39 693,-33 699,-27 705,-27"/>
<text text-anchor="start" x="748" y="-12.8" font-family="Arial" font-weight="bold" font-size="14.00"> </text>
</g>
<!-- 15&#45;&gt;16 -->
<g id="edge15" class="edge">
<title>15&#45;&gt;16</title>
<path fill="none" stroke="#888888" d="M798.07,-153.67C793.63,-145.03 789.04,-136.07 784.52,-127.27"/>
<polygon fill="#888888" stroke="#888888" points="787.53,-125.48 779.85,-118.18 781.31,-128.67 787.53,-125.48"/>
</g>
<!-- 17 -->
<g id="node17" class="node">
<title>17</title>
<text text-anchor="start" x="885" y="-99.8" font-family="Arial" font-weight="bold" font-size="14.00"> ≥ 20.5</text>
<path fill="#f8766d" fill-opacity="0.760784" stroke="transparent" d="M861,-27C861,-27 951,-27 951,-27 957,-27 963,-33 963,-39 963,-39 963,-79 963,-79 963,-85 957,-91 951,-91 951,-91 861,-91 861,-91 855,-91 849,-85 849,-79 849,-79 849,-39 849,-39 849,-33 855,-27 861,-27"/>
<text text-anchor="start" x="850" y="-88.4" font-family="Arial" font-size="2.00"> </text>
<text text-anchor="start" x="850" y="-82.4" font-family="Arial" font-size="7.00"> &#160;17</text>
<text text-anchor="start" x="864" y="-65.8" font-family="Arial" font-weight="bold" font-size="14.00">Predict 28.07</text>
<text text-anchor="start" x="886" y="-48.8" font-family="Arial" font-weight="bold" font-size="14.00">n = 15</text>
<text text-anchor="start" x="904.5" y="-30.8" font-family="Arial" font-size="9.00"> </text>
<path fill="none" stroke="#333333" d="M861,-27C861,-27 951,-27 951,-27 957,-27 963,-33 963,-39 963,-39 963,-79 963,-79 963,-85 957,-91 951,-91 951,-91 861,-91 861,-91 855,-91 849,-85 849,-79 849,-79 849,-39 849,-39 849,-33 855,-27 861,-27"/>
<text text-anchor="start" x="904" y="-12.8" font-family="Arial" font-weight="bold" font-size="14.00"> </text>
</g>
<!-- 15&#45;&gt;17 -->
<g id="edge16" class="edge">
<title>15&#45;&gt;17</title>
<path fill="none" stroke="#888888" d="M857.93,-153.67C862.37,-145.03 866.96,-136.07 871.48,-127.27"/>
<polygon fill="#888888" stroke="#888888" points="874.69,-128.67 876.15,-118.18 868.47,-125.48 874.69,-128.67"/>
</g>
</g>
</svg>
