<?xml version="1.0" encoding="UTF-8" standalone="no"?>
<!DOCTYPE svg PUBLIC "-//W3C//DTD SVG 1.1//EN"
 "http://www.w3.org/Graphics/SVG/1.1/DTD/svg11.dtd">
<!-- Generated by graphviz version 2.50.0 (20211204.2007)
 -->
<!-- Pages: 1 -->
<svg width="1559pt" height="742pt"
 viewBox="0.00 0.00 1559.00 742.00" xmlns="http://www.w3.org/2000/svg" xmlns:xlink="http://www.w3.org/1999/xlink">
<g id="graph0" class="graph" transform="scale(1 1) rotate(0) translate(4 738)">
<polygon fill="white" stroke="transparent" points="-4,4 -4,-738 1555,-738 1555,4 -4,4"/>
<!-- 1 -->
<g id="node1" class="node">
<title>1</title>
<text text-anchor="start" x="427" y="-715.8" font-family="Arial" font-weight="bold" font-size="14.00"> </text>
<text text-anchor="start" x="361" y="-671.3" font-family="Arial" font-size="14.00"> &#160;&#160;</text>
<path fill="#ebebeb" stroke="transparent" d="M387,-643C387,-643 471,-643 471,-643 477,-643 483,-649 483,-655 483,-655 483,-695 483,-695 483,-701 477,-707 471,-707 471,-707 387,-707 387,-707 381,-707 375,-701 375,-695 375,-695 375,-655 375,-655 375,-649 381,-643 387,-643"/>
<text text-anchor="start" x="376" y="-704.4" font-family="Arial" font-size="2.00"> </text>
<text text-anchor="start" x="376" y="-698.4" font-family="Arial" font-size="7.00"> &#160;1</text>
<text text-anchor="start" x="390" y="-681.8" font-family="Arial" font-weight="bold" font-size="14.00">Mean: 28.76</text>
<text text-anchor="start" x="405.5" y="-664.8" font-family="Arial" font-weight="bold" font-size="14.00">n = 168</text>
<text text-anchor="start" x="427.5" y="-646.8" font-family="Arial" font-size="9.00"> </text>
<path fill="none" stroke="#333333" d="M387,-643C387,-643 471,-643 471,-643 477,-643 483,-649 483,-655 483,-655 483,-695 483,-695 483,-701 477,-707 471,-707 471,-707 387,-707 387,-707 381,-707 375,-701 375,-695 375,-695 375,-655 375,-655 375,-649 381,-643 387,-643"/>
<text text-anchor="start" x="485" y="-671.3" font-family="Arial" font-size="14.00"> &#160;&#160;</text>
<text text-anchor="start" x="376" y="-628.8" font-family="Arial" font-weight="bold" font-size="14.00">prev_168_inflow</text>
</g>
<!-- 2 -->
<g id="node2" class="node">
<title>2</title>
<text text-anchor="start" x="209" y="-561.8" font-family="Arial" font-weight="bold" font-size="14.00"> &lt; 28.14</text>
<path fill="#ebebeb" stroke="transparent" d="M196,-489C196,-489 272,-489 272,-489 278,-489 284,-495 284,-501 284,-501 284,-541 284,-541 284,-547 278,-553 272,-553 272,-553 196,-553 196,-553 190,-553 184,-547 184,-541 184,-541 184,-501 184,-501 184,-495 190,-489 196,-489"/>
<text text-anchor="start" x="185" y="-550.4" font-family="Arial" font-size="2.00"> </text>
<text text-anchor="start" x="185" y="-544.4" font-family="Arial" font-size="7.00"> &#160;2</text>
<text text-anchor="start" x="199" y="-527.8" font-family="Arial" font-weight="bold" font-size="14.00">Mean: 25.4</text>
<text text-anchor="start" x="214" y="-510.8" font-family="Arial" font-weight="bold" font-size="14.00">n = 82</text>
<text text-anchor="start" x="232.5" y="-492.8" font-family="Arial" font-size="9.00"> </text>
<path fill="none" stroke="#333333" d="M196,-489C196,-489 272,-489 272,-489 278,-489 284,-495 284,-501 284,-501 284,-541 284,-541 284,-547 278,-553 272,-553 272,-553 196,-553 196,-553 190,-553 184,-547 184,-541 184,-541 184,-501 184,-501 184,-495 190,-489 196,-489"/>
<text text-anchor="start" x="219.5" y="-474.8" font-family="Arial" font-weight="bold" font-size="14.00">time</text>
</g>
<!-- 1&#45;&gt;2 -->
<g id="edge1" class="edge">
<title>1&#45;&gt;2</title>
<path fill="none" stroke="#888888" d="M354.44,-615.88C337.9,-602.99 320.43,-589.37 304.08,-576.63"/>
<polygon fill="#888888" stroke="#888888" points="306.19,-573.83 296.15,-570.45 301.89,-579.35 306.19,-573.83"/>
</g>
<!-- 9 -->
<g id="node3" class="node">
<title>9</title>
<text text-anchor="start" x="599.5" y="-561.8" font-family="Arial" font-weight="bold" font-size="14.00"> ≥ 28.14</text>
<text text-anchor="start" x="556" y="-517.3" font-family="Arial" font-size="14.00"> &#160;&#160;</text>
<path fill="#ebebeb" stroke="transparent" d="M582,-489C582,-489 666,-489 666,-489 672,-489 678,-495 678,-501 678,-501 678,-541 678,-541 678,-547 672,-553 666,-553 666,-553 582,-553 582,-553 576,-553 570,-547 570,-541 570,-541 570,-501 570,-501 570,-495 576,-489 582,-489"/>
<text text-anchor="start" x="571" y="-550.4" font-family="Arial" font-size="2.00"> </text>
<text text-anchor="start" x="571" y="-544.4" font-family="Arial" font-size="7.00"> &#160;9</text>
<text text-anchor="start" x="585" y="-527.8" font-family="Arial" font-weight="bold" font-size="14.00">Mean: 31.97</text>
<text text-anchor="start" x="604" y="-510.8" font-family="Arial" font-weight="bold" font-size="14.00">n = 86</text>
<text text-anchor="start" x="622.5" y="-492.8" font-family="Arial" font-size="9.00"> </text>
<path fill="none" stroke="#333333" d="M582,-489C582,-489 666,-489 666,-489 672,-489 678,-495 678,-501 678,-501 678,-541 678,-541 678,-547 672,-553 666,-553 666,-553 582,-553 582,-553 576,-553 570,-547 570,-541 570,-541 570,-501 570,-501 570,-495 576,-489 582,-489"/>
<text text-anchor="start" x="680" y="-517.3" font-family="Arial" font-size="14.00"> &#160;&#160;</text>
<text text-anchor="start" x="571" y="-474.8" font-family="Arial" font-weight="bold" font-size="14.00">prev_168_inflow</text>
</g>
<!-- 1&#45;&gt;9 -->
<g id="edge2" class="edge">
<title>1&#45;&gt;9</title>
<path fill="none" stroke="#888888" d="M503.56,-615.88C515.9,-606.26 528.77,-596.23 541.31,-586.46"/>
<polygon fill="#888888" stroke="#888888" points="543.75,-588.99 549.49,-580.08 539.45,-583.47 543.75,-588.99"/>
</g>
<!-- 3 -->
<g id="node4" class="node">
<title>3</title>
<text text-anchor="start" x="51.5" y="-407.8" font-family="Arial" font-weight="bold" font-size="14.00"> &lt; 5.5</text>
<path fill="#f8766d" fill-opacity="0.874510" stroke="transparent" d="M24,-335C24,-335 114,-335 114,-335 120,-335 126,-341 126,-347 126,-347 126,-387 126,-387 126,-393 120,-399 114,-399 114,-399 24,-399 24,-399 18,-399 12,-393 12,-387 12,-387 12,-347 12,-347 12,-341 18,-335 24,-335"/>
<text text-anchor="start" x="13" y="-396.4" font-family="Arial" font-size="2.00"> </text>
<text text-anchor="start" x="13" y="-390.4" font-family="Arial" font-size="7.00"> &#160;3</text>
<text text-anchor="start" x="27" y="-373.8" font-family="Arial" font-weight="bold" font-size="14.00">Predict 23.81</text>
<text text-anchor="start" x="49" y="-356.8" font-family="Arial" font-weight="bold" font-size="14.00">n = 42</text>
<text text-anchor="start" x="67.5" y="-338.8" font-family="Arial" font-size="9.00"> </text>
<path fill="none" stroke="#333333" d="M24,-335C24,-335 114,-335 114,-335 120,-335 126,-341 126,-347 126,-347 126,-387 126,-387 126,-393 120,-399 114,-399 114,-399 24,-399 24,-399 18,-399 12,-393 12,-387 12,-387 12,-347 12,-347 12,-341 18,-335 24,-335"/>
<text text-anchor="start" x="67" y="-320.8" font-family="Arial" font-weight="bold" font-size="14.00"> </text>
</g>
<!-- 2&#45;&gt;3 -->
<g id="edge3" class="edge">
<title>2&#45;&gt;3</title>
<path fill="none" stroke="#888888" d="M171.62,-462.54C161.09,-452.84 150.1,-442.71 139.38,-432.84"/>
<polygon fill="#888888" stroke="#888888" points="141.74,-430.25 132.02,-426.05 137,-435.4 141.74,-430.25"/>
</g>
<!-- 4 -->
<g id="node5" class="node">
<title>4</title>
<text text-anchor="start" x="217" y="-407.8" font-family="Arial" font-weight="bold" font-size="14.00"> ≥ 5.5</text>
<text text-anchor="start" x="166" y="-363.3" font-family="Arial" font-size="14.00"> &#160;&#160;</text>
<path fill="#ebebeb" stroke="transparent" d="M192,-335C192,-335 276,-335 276,-335 282,-335 288,-341 288,-347 288,-347 288,-387 288,-387 288,-393 282,-399 276,-399 276,-399 192,-399 192,-399 186,-399 180,-393 180,-387 180,-387 180,-347 180,-347 180,-341 186,-335 192,-335"/>
<text text-anchor="start" x="181" y="-396.4" font-family="Arial" font-size="2.00"> </text>
<text text-anchor="start" x="181" y="-390.4" font-family="Arial" font-size="7.00"> &#160;4</text>
<text text-anchor="start" x="195" y="-373.8" font-family="Arial" font-weight="bold" font-size="14.00">Mean: 27.06</text>
<text text-anchor="start" x="214" y="-356.8" font-family="Arial" font-weight="bold" font-size="14.00">n = 40</text>
<text text-anchor="start" x="232.5" y="-338.8" font-family="Arial" font-size="9.00"> </text>
<path fill="none" stroke="#333333" d="M192,-335C192,-335 276,-335 276,-335 282,-335 288,-341 288,-347 288,-347 288,-387 288,-387 288,-393 282,-399 276,-399 276,-399 192,-399 192,-399 186,-399 180,-393 180,-387 180,-387 180,-347 180,-347 180,-341 186,-335 192,-335"/>
<text text-anchor="start" x="290" y="-363.3" font-family="Arial" font-size="14.00"> &#160;&#160;</text>
<text text-anchor="start" x="181" y="-320.8" font-family="Arial" font-weight="bold" font-size="14.00">prev_168_inflow</text>
</g>
<!-- 2&#45;&gt;4 -->
<g id="edge4" class="edge">
<title>2&#45;&gt;4</title>
<path fill="none" stroke="#888888" d="M234,-461.67C234,-453.39 234,-444.83 234,-436.38"/>
<polygon fill="#888888" stroke="#888888" points="237.5,-436.18 234,-426.18 230.5,-436.18 237.5,-436.18"/>
</g>
<!-- 10 -->
<g id="node10" class="node">
<title>10</title>
<text text-anchor="start" x="599" y="-407.8" font-family="Arial" font-weight="bold" font-size="14.00"> &lt; 31.54</text>
<path fill="#ebebeb" stroke="transparent" d="M582,-335C582,-335 666,-335 666,-335 672,-335 678,-341 678,-347 678,-347 678,-387 678,-387 678,-393 672,-399 666,-399 666,-399 582,-399 582,-399 576,-399 570,-393 570,-387 570,-387 570,-347 570,-347 570,-341 576,-335 582,-335"/>
<text text-anchor="start" x="571" y="-396.4" font-family="Arial" font-size="2.00"> </text>
<text text-anchor="start" x="571" y="-390.4" font-family="Arial" font-size="7.00"> &#160;10</text>
<text text-anchor="start" x="585" y="-373.8" font-family="Arial" font-weight="bold" font-size="14.00">Mean: 29.76</text>
<text text-anchor="start" x="604" y="-356.8" font-family="Arial" font-weight="bold" font-size="14.00">n = 26</text>
<text text-anchor="start" x="622.5" y="-338.8" font-family="Arial" font-size="9.00"> </text>
<path fill="none" stroke="#333333" d="M582,-335C582,-335 666,-335 666,-335 672,-335 678,-341 678,-347 678,-347 678,-387 678,-387 678,-393 672,-399 666,-399 666,-399 582,-399 582,-399 576,-399 570,-393 570,-387 570,-387 570,-347 570,-347 570,-341 576,-335 582,-335"/>
<text text-anchor="start" x="609.5" y="-320.8" font-family="Arial" font-weight="bold" font-size="14.00">time</text>
</g>
<!-- 9&#45;&gt;10 -->
<g id="edge9" class="edge">
<title>9&#45;&gt;10</title>
<path fill="none" stroke="#888888" d="M624,-461.67C624,-453.39 624,-444.83 624,-436.38"/>
<polygon fill="#888888" stroke="#888888" points="627.5,-436.18 624,-426.18 620.5,-436.18 627.5,-436.18"/>
</g>
<!-- 17 -->
<g id="node11" class="node">
<title>17</title>
<text text-anchor="start" x="1067.5" y="-407.8" font-family="Arial" font-weight="bold" font-size="14.00"> ≥ 31.54</text>
<path fill="#ebebeb" stroke="transparent" d="M1050,-335C1050,-335 1134,-335 1134,-335 1140,-335 1146,-341 1146,-347 1146,-347 1146,-387 1146,-387 1146,-393 1140,-399 1134,-399 1134,-399 1050,-399 1050,-399 1044,-399 1038,-393 1038,-387 1038,-387 1038,-347 1038,-347 1038,-341 1044,-335 1050,-335"/>
<text text-anchor="start" x="1039" y="-396.4" font-family="Arial" font-size="2.00"> </text>
<text text-anchor="start" x="1039" y="-390.4" font-family="Arial" font-size="7.00"> &#160;17</text>
<text text-anchor="start" x="1053" y="-373.8" font-family="Arial" font-weight="bold" font-size="14.00">Mean: 32.93</text>
<text text-anchor="start" x="1072" y="-356.8" font-family="Arial" font-weight="bold" font-size="14.00">n = 60</text>
<text text-anchor="start" x="1090.5" y="-338.8" font-family="Arial" font-size="9.00"> </text>
<path fill="none" stroke="#333333" d="M1050,-335C1050,-335 1134,-335 1134,-335 1140,-335 1146,-341 1146,-347 1146,-347 1146,-387 1146,-387 1146,-393 1140,-399 1134,-399 1134,-399 1050,-399 1050,-399 1044,-399 1038,-393 1038,-387 1038,-387 1038,-347 1038,-347 1038,-341 1044,-335 1050,-335"/>
<text text-anchor="start" x="1056.5" y="-320.8" font-family="Arial" font-weight="bold" font-size="14.00">windspeed</text>
</g>
<!-- 9&#45;&gt;17 -->
<g id="edge10" class="edge">
<title>9&#45;&gt;17</title>
<path fill="none" stroke="#888888" d="M702.07,-494.64C789.34,-466.3 929.71,-420.71 1016.09,-392.65"/>
<polygon fill="#888888" stroke="#888888" points="1017.4,-395.91 1025.83,-389.49 1015.24,-389.25 1017.4,-395.91"/>
</g>
<!-- 5 -->
<g id="node6" class="node">
<title>5</title>
<text text-anchor="start" x="56" y="-253.8" font-family="Arial" font-weight="bold" font-size="14.00"> &lt; 25.72</text>
<path fill="#f8766d" fill-opacity="0.815686" stroke="transparent" d="M36,-181C36,-181 126,-181 126,-181 132,-181 138,-187 138,-193 138,-193 138,-233 138,-233 138,-239 132,-245 126,-245 126,-245 36,-245 36,-245 30,-245 24,-239 24,-233 24,-233 24,-193 24,-193 24,-187 30,-181 36,-181"/>
<text text-anchor="start" x="25" y="-242.4" font-family="Arial" font-size="2.00"> </text>
<text text-anchor="start" x="25" y="-236.4" font-family="Arial" font-size="7.00"> &#160;5</text>
<text text-anchor="start" x="39" y="-219.8" font-family="Arial" font-weight="bold" font-size="14.00">Predict 25.96</text>
<text text-anchor="start" x="61" y="-202.8" font-family="Arial" font-weight="bold" font-size="14.00">n = 17</text>
<text text-anchor="start" x="79.5" y="-184.8" font-family="Arial" font-size="9.00"> </text>
<path fill="none" stroke="#333333" d="M36,-181C36,-181 126,-181 126,-181 132,-181 138,-187 138,-193 138,-193 138,-233 138,-233 138,-239 132,-245 126,-245 126,-245 36,-245 36,-245 30,-245 24,-239 24,-233 24,-233 24,-193 24,-193 24,-187 30,-181 36,-181"/>
<text text-anchor="start" x="79" y="-166.8" font-family="Arial" font-weight="bold" font-size="14.00"> </text>
</g>
<!-- 4&#45;&gt;5 -->
<g id="edge5" class="edge">
<title>4&#45;&gt;5</title>
<path fill="none" stroke="#888888" d="M175.28,-307.67C165.95,-298.39 156.24,-288.75 146.76,-279.33"/>
<polygon fill="#888888" stroke="#888888" points="149.12,-276.74 139.56,-272.18 144.19,-281.71 149.12,-276.74"/>
</g>
<!-- 6 -->
<g id="node7" class="node">
<title>6</title>
<text text-anchor="start" x="209.5" y="-253.8" font-family="Arial" font-weight="bold" font-size="14.00"> ≥ 25.72</text>
<path fill="#ebebeb" stroke="transparent" d="M192,-181C192,-181 276,-181 276,-181 282,-181 288,-187 288,-193 288,-193 288,-233 288,-233 288,-239 282,-245 276,-245 276,-245 192,-245 192,-245 186,-245 180,-239 180,-233 180,-233 180,-193 180,-193 180,-187 186,-181 192,-181"/>
<text text-anchor="start" x="181" y="-242.4" font-family="Arial" font-size="2.00"> </text>
<text text-anchor="start" x="181" y="-236.4" font-family="Arial" font-size="7.00"> &#160;6</text>
<text text-anchor="start" x="195" y="-219.8" font-family="Arial" font-weight="bold" font-size="14.00">Mean: 27.88</text>
<text text-anchor="start" x="214" y="-202.8" font-family="Arial" font-weight="bold" font-size="14.00">n = 23</text>
<text text-anchor="start" x="232.5" y="-184.8" font-family="Arial" font-size="9.00"> </text>
<path fill="none" stroke="#333333" d="M192,-181C192,-181 276,-181 276,-181 282,-181 288,-187 288,-193 288,-193 288,-233 288,-233 288,-239 282,-245 276,-245 276,-245 192,-245 192,-245 186,-245 180,-239 180,-233 180,-233 180,-193 180,-193 180,-187 186,-181 192,-181"/>
<text text-anchor="start" x="201" y="-166.8" font-family="Arial" font-weight="bold" font-size="14.00">air_humid</text>
</g>
<!-- 4&#45;&gt;6 -->
<g id="edge6" class="edge">
<title>4&#45;&gt;6</title>
<path fill="none" stroke="#888888" d="M234,-307.67C234,-299.39 234,-290.83 234,-282.38"/>
<polygon fill="#888888" stroke="#888888" points="237.5,-282.18 234,-272.18 230.5,-282.18 237.5,-282.18"/>
</g>
<!-- 7 -->
<g id="node8" class="node">
<title>7</title>
<text text-anchor="start" x="60.5" y="-99.8" font-family="Arial" font-weight="bold" font-size="14.00"> &lt; 64.5</text>
<path fill="#f8766d" fill-opacity="0.780392" stroke="transparent" d="M41,-27C41,-27 123,-27 123,-27 129,-27 135,-33 135,-39 135,-39 135,-79 135,-79 135,-85 129,-91 123,-91 123,-91 41,-91 41,-91 35,-91 29,-85 29,-79 29,-79 29,-39 29,-39 29,-33 35,-27 41,-27"/>
<text text-anchor="start" x="30" y="-88.4" font-family="Arial" font-size="2.00"> </text>
<text text-anchor="start" x="30" y="-82.4" font-family="Arial" font-size="7.00"> &#160;7</text>
<text text-anchor="start" x="44" y="-65.8" font-family="Arial" font-weight="bold" font-size="14.00">Predict 27.3</text>
<text text-anchor="start" x="62" y="-48.8" font-family="Arial" font-weight="bold" font-size="14.00">n = 18</text>
<text text-anchor="start" x="80.5" y="-30.8" font-family="Arial" font-size="9.00"> </text>
<path fill="none" stroke="#333333" d="M41,-27C41,-27 123,-27 123,-27 129,-27 135,-33 135,-39 135,-39 135,-79 135,-79 135,-85 129,-91 123,-91 123,-91 41,-91 41,-91 35,-91 29,-85 29,-79 29,-79 29,-39 29,-39 29,-33 35,-27 41,-27"/>
<text text-anchor="start" x="80" y="-12.8" font-family="Arial" font-weight="bold" font-size="14.00"> </text>
</g>
<!-- 6&#45;&gt;7 -->
<g id="edge7" class="edge">
<title>6&#45;&gt;7</title>
<path fill="none" stroke="#888888" d="M175.67,-153.67C166.39,-144.39 156.75,-134.75 147.33,-125.33"/>
<polygon fill="#888888" stroke="#888888" points="149.72,-122.77 140.18,-118.18 144.77,-127.72 149.72,-122.77"/>
</g>
<!-- 8 -->
<g id="node9" class="node">
<title>8</title>
<text text-anchor="start" x="213" y="-99.8" font-family="Arial" font-weight="bold" font-size="14.00"> ≥ 64.5</text>
<path fill="#f8766d" fill-opacity="0.709804" stroke="transparent" d="M189,-27C189,-27 279,-27 279,-27 285,-27 291,-33 291,-39 291,-39 291,-79 291,-79 291,-85 285,-91 279,-91 279,-91 189,-91 189,-91 183,-91 177,-85 177,-79 177,-79 177,-39 177,-39 177,-33 183,-27 189,-27"/>
<text text-anchor="start" x="178" y="-88.4" font-family="Arial" font-size="2.00"> </text>
<text text-anchor="start" x="178" y="-82.4" font-family="Arial" font-size="7.00"> &#160;8</text>
<text text-anchor="start" x="192" y="-65.8" font-family="Arial" font-weight="bold" font-size="14.00">Predict 29.94</text>
<text text-anchor="start" x="218" y="-48.8" font-family="Arial" font-weight="bold" font-size="14.00">n = 5</text>
<text text-anchor="start" x="232.5" y="-30.8" font-family="Arial" font-size="9.00"> </text>
<path fill="none" stroke="#333333" d="M189,-27C189,-27 279,-27 279,-27 285,-27 291,-33 291,-39 291,-39 291,-79 291,-79 291,-85 285,-91 279,-91 279,-91 189,-91 189,-91 183,-91 177,-85 177,-79 177,-79 177,-39 177,-39 177,-33 183,-27 189,-27"/>
<text text-anchor="start" x="232" y="-12.8" font-family="Arial" font-weight="bold" font-size="14.00"> </text>
</g>
<!-- 6&#45;&gt;8 -->
<g id="edge8" class="edge">
<title>6&#45;&gt;8</title>
<path fill="none" stroke="#888888" d="M234,-153.67C234,-145.39 234,-136.83 234,-128.38"/>
<polygon fill="#888888" stroke="#888888" points="237.5,-128.18 234,-118.18 230.5,-128.18 237.5,-128.18"/>
</g>
<!-- 11 -->
<g id="node12" class="node">
<title>11</title>
<text text-anchor="start" x="524.5" y="-253.8" font-family="Arial" font-weight="bold" font-size="14.00"> &lt; 12.5</text>
<path fill="#ebebeb" stroke="transparent" d="M504,-181C504,-181 588,-181 588,-181 594,-181 600,-187 600,-193 600,-193 600,-233 600,-233 600,-239 594,-245 588,-245 588,-245 504,-245 504,-245 498,-245 492,-239 492,-233 492,-233 492,-193 492,-193 492,-187 498,-181 504,-181"/>
<text text-anchor="start" x="493" y="-242.4" font-family="Arial" font-size="2.00"> </text>
<text text-anchor="start" x="493" y="-236.4" font-family="Arial" font-size="7.00"> &#160;11</text>
<text text-anchor="start" x="507" y="-219.8" font-family="Arial" font-weight="bold" font-size="14.00">Mean: 28.72</text>
<text text-anchor="start" x="526.5" y="-202.8" font-family="Arial" font-weight="bold" font-size="14.00">n = 11</text>
<text text-anchor="start" x="544.5" y="-184.8" font-family="Arial" font-size="9.00"> </text>
<path fill="none" stroke="#333333" d="M504,-181C504,-181 588,-181 588,-181 594,-181 600,-187 600,-193 600,-193 600,-233 600,-233 600,-239 594,-245 588,-245 588,-245 504,-245 504,-245 498,-245 492,-239 492,-233 492,-233 492,-193 492,-193 492,-187 498,-181 504,-181"/>
<text text-anchor="start" x="516.5" y="-166.8" font-family="Arial" font-weight="bold" font-size="14.00">day_type</text>
</g>
<!-- 10&#45;&gt;11 -->
<g id="edge11" class="edge">
<title>10&#45;&gt;11</title>
<path fill="none" stroke="#888888" d="M594.07,-307.67C589.63,-299.03 585.04,-290.07 580.52,-281.27"/>
<polygon fill="#888888" stroke="#888888" points="583.53,-279.48 575.85,-272.18 577.31,-282.67 583.53,-279.48"/>
</g>
<!-- 14 -->
<g id="node13" class="node">
<title>14</title>
<text text-anchor="start" x="681" y="-253.8" font-family="Arial" font-weight="bold" font-size="14.00"> ≥ 12.5</text>
<path fill="#ebebeb" stroke="transparent" d="M660,-181C660,-181 744,-181 744,-181 750,-181 756,-187 756,-193 756,-193 756,-233 756,-233 756,-239 750,-245 744,-245 744,-245 660,-245 660,-245 654,-245 648,-239 648,-233 648,-233 648,-193 648,-193 648,-187 654,-181 660,-181"/>
<text text-anchor="start" x="649" y="-242.4" font-family="Arial" font-size="2.00"> </text>
<text text-anchor="start" x="649" y="-236.4" font-family="Arial" font-size="7.00"> &#160;14</text>
<text text-anchor="start" x="663" y="-219.8" font-family="Arial" font-weight="bold" font-size="14.00">Mean: 30.52</text>
<text text-anchor="start" x="682" y="-202.8" font-family="Arial" font-weight="bold" font-size="14.00">n = 15</text>
<text text-anchor="start" x="700.5" y="-184.8" font-family="Arial" font-size="9.00"> </text>
<path fill="none" stroke="#333333" d="M660,-181C660,-181 744,-181 744,-181 750,-181 756,-187 756,-193 756,-193 756,-233 756,-233 756,-239 750,-245 744,-245 744,-245 660,-245 660,-245 654,-245 648,-239 648,-233 648,-233 648,-193 648,-193 648,-187 654,-181 660,-181"/>
<text text-anchor="start" x="687.5" y="-166.8" font-family="Arial" font-weight="bold" font-size="14.00">time</text>
</g>
<!-- 10&#45;&gt;14 -->
<g id="edge12" class="edge">
<title>10&#45;&gt;14</title>
<path fill="none" stroke="#888888" d="M653.93,-307.67C658.37,-299.03 662.96,-290.07 667.48,-281.27"/>
<polygon fill="#888888" stroke="#888888" points="670.69,-282.67 672.15,-272.18 664.47,-279.48 670.69,-282.67"/>
</g>
<!-- 18 -->
<g id="node18" class="node">
<title>18</title>
<text text-anchor="start" x="1070.5" y="-253.8" font-family="Arial" font-weight="bold" font-size="14.00"> &lt; 23.5</text>
<path fill="#ebebeb" stroke="transparent" d="M1050,-181C1050,-181 1134,-181 1134,-181 1140,-181 1146,-187 1146,-193 1146,-193 1146,-233 1146,-233 1146,-239 1140,-245 1134,-245 1134,-245 1050,-245 1050,-245 1044,-245 1038,-239 1038,-233 1038,-233 1038,-193 1038,-193 1038,-187 1044,-181 1050,-181"/>
<text text-anchor="start" x="1039" y="-242.4" font-family="Arial" font-size="2.00"> </text>
<text text-anchor="start" x="1039" y="-236.4" font-family="Arial" font-size="7.00"> &#160;18</text>
<text text-anchor="start" x="1053" y="-219.8" font-family="Arial" font-weight="bold" font-size="14.00">Mean: 32.54</text>
<text text-anchor="start" x="1072" y="-202.8" font-family="Arial" font-weight="bold" font-size="14.00">n = 57</text>
<text text-anchor="start" x="1090.5" y="-184.8" font-family="Arial" font-size="9.00"> </text>
<path fill="none" stroke="#333333" d="M1050,-181C1050,-181 1134,-181 1134,-181 1140,-181 1146,-187 1146,-193 1146,-193 1146,-233 1146,-233 1146,-239 1140,-245 1134,-245 1134,-245 1050,-245 1050,-245 1044,-245 1038,-239 1038,-233 1038,-233 1038,-193 1038,-193 1038,-187 1044,-181 1050,-181"/>
<text text-anchor="start" x="1077.5" y="-166.8" font-family="Arial" font-weight="bold" font-size="14.00">time</text>
</g>
<!-- 17&#45;&gt;18 -->
<g id="edge17" class="edge">
<title>17&#45;&gt;18</title>
<path fill="none" stroke="#888888" d="M1092,-307.67C1092,-299.39 1092,-290.83 1092,-282.38"/>
<polygon fill="#888888" stroke="#888888" points="1095.5,-282.18 1092,-272.18 1088.5,-282.18 1095.5,-282.18"/>
</g>
<!-- 21 -->
<g id="node19" class="node">
<title>21</title>
<text text-anchor="start" x="1305" y="-253.8" font-family="Arial" font-weight="bold" font-size="14.00"> ≥ 23.5</text>
<path fill="#ebebeb" stroke="transparent" d="M1288,-181C1288,-181 1364,-181 1364,-181 1370,-181 1376,-187 1376,-193 1376,-193 1376,-233 1376,-233 1376,-239 1370,-245 1364,-245 1364,-245 1288,-245 1288,-245 1282,-245 1276,-239 1276,-233 1276,-233 1276,-193 1276,-193 1276,-187 1282,-181 1288,-181"/>
<text text-anchor="start" x="1277" y="-242.4" font-family="Arial" font-size="2.00"> </text>
<text text-anchor="start" x="1277" y="-236.4" font-family="Arial" font-size="7.00"> &#160;21</text>
<text text-anchor="start" x="1291" y="-219.8" font-family="Arial" font-weight="bold" font-size="14.00">Mean: 40.3</text>
<text text-anchor="start" x="1310" y="-202.8" font-family="Arial" font-weight="bold" font-size="14.00">n = 3</text>
<text text-anchor="start" x="1324.5" y="-184.8" font-family="Arial" font-size="9.00"> </text>
<path fill="none" stroke="#333333" d="M1288,-181C1288,-181 1364,-181 1364,-181 1370,-181 1376,-187 1376,-193 1376,-193 1376,-233 1376,-233 1376,-239 1370,-245 1364,-245 1364,-245 1288,-245 1288,-245 1282,-245 1276,-239 1276,-233 1276,-233 1276,-193 1276,-193 1276,-187 1282,-181 1288,-181"/>
<text text-anchor="start" x="1311.5" y="-166.8" font-family="Arial" font-weight="bold" font-size="14.00">time</text>
</g>
<!-- 17&#45;&gt;21 -->
<g id="edge18" class="edge">
<title>17&#45;&gt;21</title>
<path fill="none" stroke="#888888" d="M1158.12,-323.05C1188.38,-303.39 1224.29,-280.07 1255.11,-260.05"/>
<polygon fill="#888888" stroke="#888888" points="1257.19,-262.87 1263.67,-254.49 1253.37,-257 1257.19,-262.87"/>
</g>
<!-- 12 -->
<g id="node14" class="node">
<title>12</title>
<text text-anchor="start" x="372.5" y="-99.8" font-family="Arial" font-weight="bold" font-size="14.00"> &lt; 0.5</text>
<path fill="#f8766d" fill-opacity="0.725490" stroke="transparent" d="M345,-27C345,-27 435,-27 435,-27 441,-27 447,-33 447,-39 447,-39 447,-79 447,-79 447,-85 441,-91 435,-91 435,-91 345,-91 345,-91 339,-91 333,-85 333,-79 333,-79 333,-39 333,-39 333,-33 339,-27 345,-27"/>
<text text-anchor="start" x="334" y="-88.4" font-family="Arial" font-size="2.00"> </text>
<text text-anchor="start" x="334" y="-82.4" font-family="Arial" font-size="7.00"> &#160;12</text>
<text text-anchor="start" x="348" y="-65.8" font-family="Arial" font-weight="bold" font-size="14.00">Predict 29.31</text>
<text text-anchor="start" x="374" y="-48.8" font-family="Arial" font-weight="bold" font-size="14.00">n = 8</text>
<text text-anchor="start" x="388.5" y="-30.8" font-family="Arial" font-size="9.00"> </text>
<path fill="none" stroke="#333333" d="M345,-27C345,-27 435,-27 435,-27 441,-27 447,-33 447,-39 447,-39 447,-79 447,-79 447,-85 441,-91 435,-91 435,-91 345,-91 345,-91 339,-91 333,-85 333,-79 333,-79 333,-39 333,-39 333,-33 339,-27 345,-27"/>
<text text-anchor="start" x="388" y="-12.8" font-family="Arial" font-weight="bold" font-size="14.00"> </text>
</g>
<!-- 11&#45;&gt;12 -->
<g id="edge13" class="edge">
<title>11&#45;&gt;12</title>
<path fill="none" stroke="#888888" d="M486.13,-153.67C476.62,-144.39 466.72,-134.75 457.05,-125.33"/>
<polygon fill="#888888" stroke="#888888" points="459.31,-122.65 449.71,-118.18 454.43,-127.66 459.31,-122.65"/>
</g>
<!-- 13 -->
<g id="node15" class="node">
<title>13</title>
<text text-anchor="start" x="529" y="-99.8" font-family="Arial" font-weight="bold" font-size="14.00"> ≥ 0.5</text>
<path fill="#f8766d" fill-opacity="0.784314" stroke="transparent" d="M501,-27C501,-27 591,-27 591,-27 597,-27 603,-33 603,-39 603,-39 603,-79 603,-79 603,-85 597,-91 591,-91 591,-91 501,-91 501,-91 495,-91 489,-85 489,-79 489,-79 489,-39 489,-39 489,-33 495,-27 501,-27"/>
<text text-anchor="start" x="490" y="-88.4" font-family="Arial" font-size="2.00"> </text>
<text text-anchor="start" x="490" y="-82.4" font-family="Arial" font-size="7.00"> &#160;13</text>
<text text-anchor="start" x="504" y="-65.8" font-family="Arial" font-weight="bold" font-size="14.00">Predict 27.12</text>
<text text-anchor="start" x="530" y="-48.8" font-family="Arial" font-weight="bold" font-size="14.00">n = 3</text>
<text text-anchor="start" x="544.5" y="-30.8" font-family="Arial" font-size="9.00"> </text>
<path fill="none" stroke="#333333" d="M501,-27C501,-27 591,-27 591,-27 597,-27 603,-33 603,-39 603,-39 603,-79 603,-79 603,-85 597,-91 591,-91 591,-91 501,-91 501,-91 495,-91 489,-85 489,-79 489,-79 489,-39 489,-39 489,-33 495,-27 501,-27"/>
<text text-anchor="start" x="544" y="-12.8" font-family="Arial" font-weight="bold" font-size="14.00"> </text>
</g>
<!-- 11&#45;&gt;13 -->
<g id="edge14" class="edge">
<title>11&#45;&gt;13</title>
<path fill="none" stroke="#888888" d="M546,-153.67C546,-145.39 546,-136.83 546,-128.38"/>
<polygon fill="#888888" stroke="#888888" points="549.5,-128.18 546,-118.18 542.5,-128.18 549.5,-128.18"/>
</g>
<!-- 15 -->
<g id="node16" class="node">
<title>15</title>
<text text-anchor="start" x="680.5" y="-99.8" font-family="Arial" font-weight="bold" font-size="14.00"> &lt; 19.5</text>
<path fill="#f8766d" fill-opacity="0.643137" stroke="transparent" d="M657,-27C657,-27 747,-27 747,-27 753,-27 759,-33 759,-39 759,-39 759,-79 759,-79 759,-85 753,-91 747,-91 747,-91 657,-91 657,-91 651,-91 645,-85 645,-79 645,-79 645,-39 645,-39 645,-33 651,-27 657,-27"/>
<text text-anchor="start" x="646" y="-88.4" font-family="Arial" font-size="2.00"> </text>
<text text-anchor="start" x="646" y="-82.4" font-family="Arial" font-size="7.00"> &#160;15</text>
<text text-anchor="start" x="660" y="-65.8" font-family="Arial" font-weight="bold" font-size="14.00">Predict 32.39</text>
<text text-anchor="start" x="686" y="-48.8" font-family="Arial" font-weight="bold" font-size="14.00">n = 8</text>
<text text-anchor="start" x="700.5" y="-30.8" font-family="Arial" font-size="9.00"> </text>
<path fill="none" stroke="#333333" d="M657,-27C657,-27 747,-27 747,-27 753,-27 759,-33 759,-39 759,-39 759,-79 759,-79 759,-85 753,-91 747,-91 747,-91 657,-91 657,-91 651,-91 645,-85 645,-79 645,-79 645,-39 645,-39 645,-33 651,-27 657,-27"/>
<text text-anchor="start" x="700" y="-12.8" font-family="Arial" font-weight="bold" font-size="14.00"> </text>
</g>
<!-- 14&#45;&gt;15 -->
<g id="edge15" class="edge">
<title>14&#45;&gt;15</title>
<path fill="none" stroke="#888888" d="M702,-153.67C702,-145.39 702,-136.83 702,-128.38"/>
<polygon fill="#888888" stroke="#888888" points="705.5,-128.18 702,-118.18 698.5,-128.18 705.5,-128.18"/>
</g>
<!-- 16 -->
<g id="node17" class="node">
<title>16</title>
<text text-anchor="start" x="837" y="-99.8" font-family="Arial" font-weight="bold" font-size="14.00"> ≥ 19.5</text>
<path fill="#f8766d" fill-opacity="0.749020" stroke="transparent" d="M813,-27C813,-27 903,-27 903,-27 909,-27 915,-33 915,-39 915,-39 915,-79 915,-79 915,-85 909,-91 903,-91 903,-91 813,-91 813,-91 807,-91 801,-85 801,-79 801,-79 801,-39 801,-39 801,-33 807,-27 813,-27"/>
<text text-anchor="start" x="802" y="-88.4" font-family="Arial" font-size="2.00"> </text>
<text text-anchor="start" x="802" y="-82.4" font-family="Arial" font-size="7.00"> &#160;16</text>
<text text-anchor="start" x="816" y="-65.8" font-family="Arial" font-weight="bold" font-size="14.00">Predict 28.39</text>
<text text-anchor="start" x="842" y="-48.8" font-family="Arial" font-weight="bold" font-size="14.00">n = 7</text>
<text text-anchor="start" x="856.5" y="-30.8" font-family="Arial" font-size="9.00"> </text>
<path fill="none" stroke="#333333" d="M813,-27C813,-27 903,-27 903,-27 909,-27 915,-33 915,-39 915,-39 915,-79 915,-79 915,-85 909,-91 903,-91 903,-91 813,-91 813,-91 807,-91 801,-85 801,-79 801,-79 801,-39 801,-39 801,-33 807,-27 813,-27"/>
<text text-anchor="start" x="856" y="-12.8" font-family="Arial" font-weight="bold" font-size="14.00"> </text>
</g>
<!-- 14&#45;&gt;16 -->
<g id="edge16" class="edge">
<title>14&#45;&gt;16</title>
<path fill="none" stroke="#888888" d="M761.87,-153.67C771.38,-144.39 781.28,-134.75 790.95,-125.33"/>
<polygon fill="#888888" stroke="#888888" points="793.57,-127.66 798.29,-118.18 788.69,-122.65 793.57,-127.66"/>
</g>
<!-- 19 -->
<g id="node20" class="node">
<title>19</title>
<text text-anchor="start" x="992.5" y="-99.8" font-family="Arial" font-weight="bold" font-size="14.00"> &lt; 15.5</text>
<path fill="#f8766d" fill-opacity="0.615686" stroke="transparent" d="M969,-27C969,-27 1059,-27 1059,-27 1065,-27 1071,-33 1071,-39 1071,-39 1071,-79 1071,-79 1071,-85 1065,-91 1059,-91 1059,-91 969,-91 969,-91 963,-91 957,-85 957,-79 957,-79 957,-39 957,-39 957,-33 963,-27 969,-27"/>
<text text-anchor="start" x="958" y="-88.4" font-family="Arial" font-size="2.00"> </text>
<text text-anchor="start" x="958" y="-82.4" font-family="Arial" font-size="7.00"> &#160;19</text>
<text text-anchor="start" x="972" y="-65.8" font-family="Arial" font-weight="bold" font-size="14.00">Predict 33.44</text>
<text text-anchor="start" x="994" y="-48.8" font-family="Arial" font-weight="bold" font-size="14.00">n = 41</text>
<text text-anchor="start" x="1012.5" y="-30.8" font-family="Arial" font-size="9.00"> </text>
<path fill="none" stroke="#333333" d="M969,-27C969,-27 1059,-27 1059,-27 1065,-27 1071,-33 1071,-39 1071,-39 1071,-79 1071,-79 1071,-85 1065,-91 1059,-91 1059,-91 969,-91 969,-91 963,-91 957,-85 957,-79 957,-79 957,-39 957,-39 957,-33 963,-27 969,-27"/>
<text text-anchor="start" x="1012" y="-12.8" font-family="Arial" font-weight="bold" font-size="14.00"> </text>
</g>
<!-- 18&#45;&gt;19 -->
<g id="edge19" class="edge">
<title>18&#45;&gt;19</title>
<path fill="none" stroke="#888888" d="M1062.07,-153.67C1057.63,-145.03 1053.04,-136.07 1048.52,-127.27"/>
<polygon fill="#888888" stroke="#888888" points="1051.53,-125.48 1043.85,-118.18 1045.31,-128.67 1051.53,-125.48"/>
</g>
<!-- 20 -->
<g id="node21" class="node">
<title>20</title>
<text text-anchor="start" x="1149" y="-99.8" font-family="Arial" font-weight="bold" font-size="14.00"> ≥ 15.5</text>
<path fill="#f8766d" fill-opacity="0.701961" stroke="transparent" d="M1125,-27C1125,-27 1215,-27 1215,-27 1221,-27 1227,-33 1227,-39 1227,-39 1227,-79 1227,-79 1227,-85 1221,-91 1215,-91 1215,-91 1125,-91 1125,-91 1119,-91 1113,-85 1113,-79 1113,-79 1113,-39 1113,-39 1113,-33 1119,-27 1125,-27"/>
<text text-anchor="start" x="1114" y="-88.4" font-family="Arial" font-size="2.00"> </text>
<text text-anchor="start" x="1114" y="-82.4" font-family="Arial" font-size="7.00"> &#160;20</text>
<text text-anchor="start" x="1128" y="-65.8" font-family="Arial" font-weight="bold" font-size="14.00">Predict 30.22</text>
<text text-anchor="start" x="1150" y="-48.8" font-family="Arial" font-weight="bold" font-size="14.00">n = 16</text>
<text text-anchor="start" x="1168.5" y="-30.8" font-family="Arial" font-size="9.00"> </text>
<path fill="none" stroke="#333333" d="M1125,-27C1125,-27 1215,-27 1215,-27 1221,-27 1227,-33 1227,-39 1227,-39 1227,-79 1227,-79 1227,-85 1221,-91 1215,-91 1215,-91 1125,-91 1125,-91 1119,-91 1113,-85 1113,-79 1113,-79 1113,-39 1113,-39 1113,-33 1119,-27 1125,-27"/>
<text text-anchor="start" x="1168" y="-12.8" font-family="Arial" font-weight="bold" font-size="14.00"> </text>
</g>
<!-- 18&#45;&gt;20 -->
<g id="edge20" class="edge">
<title>18&#45;&gt;20</title>
<path fill="none" stroke="#888888" d="M1121.93,-153.67C1126.37,-145.03 1130.96,-136.07 1135.48,-127.27"/>
<polygon fill="#888888" stroke="#888888" points="1138.69,-128.67 1140.15,-118.18 1132.47,-125.48 1138.69,-128.67"/>
</g>
<!-- 22 -->
<g id="node22" class="node">
<title>22</title>
<text text-anchor="start" x="1308.5" y="-99.8" font-family="Arial" font-weight="bold" font-size="14.00"> &lt; 7.5</text>
<path fill="#f8766d" fill-opacity="0.533333" stroke="transparent" d="M1281,-27C1281,-27 1371,-27 1371,-27 1377,-27 1383,-33 1383,-39 1383,-39 1383,-79 1383,-79 1383,-85 1377,-91 1371,-91 1371,-91 1281,-91 1281,-91 1275,-91 1269,-85 1269,-79 1269,-79 1269,-39 1269,-39 1269,-33 1275,-27 1281,-27"/>
<text text-anchor="start" x="1270" y="-88.4" font-family="Arial" font-size="2.00"> </text>
<text text-anchor="start" x="1270" y="-82.4" font-family="Arial" font-size="7.00"> &#160;22</text>
<text text-anchor="start" x="1284" y="-65.8" font-family="Arial" font-weight="bold" font-size="14.00">Predict 36.39</text>
<text text-anchor="start" x="1310" y="-48.8" font-family="Arial" font-weight="bold" font-size="14.00">n = 1</text>
<text text-anchor="start" x="1324.5" y="-30.8" font-family="Arial" font-size="9.00"> </text>
<path fill="none" stroke="#333333" d="M1281,-27C1281,-27 1371,-27 1371,-27 1377,-27 1383,-33 1383,-39 1383,-39 1383,-79 1383,-79 1383,-85 1377,-91 1371,-91 1371,-91 1281,-91 1281,-91 1275,-91 1269,-85 1269,-79 1269,-79 1269,-39 1269,-39 1269,-33 1275,-27 1281,-27"/>
<text text-anchor="start" x="1324" y="-12.8" font-family="Arial" font-weight="bold" font-size="14.00"> </text>
</g>
<!-- 21&#45;&gt;22 -->
<g id="edge21" class="edge">
<title>21&#45;&gt;22</title>
<path fill="none" stroke="#888888" d="M1326,-153.67C1326,-145.39 1326,-136.83 1326,-128.38"/>
<polygon fill="#888888" stroke="#888888" points="1329.5,-128.18 1326,-118.18 1322.5,-128.18 1329.5,-128.18"/>
</g>
<!-- 23 -->
<g id="node23" class="node">
<title>23</title>
<text text-anchor="start" x="1465" y="-99.8" font-family="Arial" font-weight="bold" font-size="14.00"> ≥ 7.5</text>
<path fill="#f8766d" fill-opacity="0.376471" stroke="transparent" d="M1437,-27C1437,-27 1527,-27 1527,-27 1533,-27 1539,-33 1539,-39 1539,-39 1539,-79 1539,-79 1539,-85 1533,-91 1527,-91 1527,-91 1437,-91 1437,-91 1431,-91 1425,-85 1425,-79 1425,-79 1425,-39 1425,-39 1425,-33 1431,-27 1437,-27"/>
<text text-anchor="start" x="1426" y="-88.4" font-family="Arial" font-size="2.00"> </text>
<text text-anchor="start" x="1426" y="-82.4" font-family="Arial" font-size="7.00"> &#160;23</text>
<text text-anchor="start" x="1440" y="-65.8" font-family="Arial" font-weight="bold" font-size="14.00">Predict 42.26</text>
<text text-anchor="start" x="1466" y="-48.8" font-family="Arial" font-weight="bold" font-size="14.00">n = 2</text>
<text text-anchor="start" x="1480.5" y="-30.8" font-family="Arial" font-size="9.00"> </text>
<path fill="none" stroke="#333333" d="M1437,-27C1437,-27 1527,-27 1527,-27 1533,-27 1539,-33 1539,-39 1539,-39 1539,-79 1539,-79 1539,-85 1533,-91 1527,-91 1527,-91 1437,-91 1437,-91 1431,-91 1425,-85 1425,-79 1425,-79 1425,-39 1425,-39 1425,-33 1431,-27 1437,-27"/>
<text text-anchor="start" x="1480" y="-12.8" font-family="Arial" font-weight="bold" font-size="14.00"> </text>
</g>
<!-- 21&#45;&gt;23 -->
<g id="edge22" class="edge">
<title>21&#45;&gt;23</title>
<path fill="none" stroke="#888888" d="M1385.87,-153.67C1395.38,-144.39 1405.28,-134.75 1414.95,-125.33"/>
<polygon fill="#888888" stroke="#888888" points="1417.57,-127.66 1422.29,-118.18 1412.69,-122.65 1417.57,-127.66"/>
</g>
</g>
</svg>
