<?xml version="1.0" encoding="UTF-8" standalone="no"?>
<!DOCTYPE svg PUBLIC "-//W3C//DTD SVG 1.1//EN"
 "http://www.w3.org/Graphics/SVG/1.1/DTD/svg11.dtd">
<!-- Generated by graphviz version 2.50.0 (20211204.2007)
 -->
<!-- Pages: 1 -->
<svg width="1230pt" height="588pt"
 viewBox="0.00 0.00 1230.00 588.00" xmlns="http://www.w3.org/2000/svg" xmlns:xlink="http://www.w3.org/1999/xlink">
<g id="graph0" class="graph" transform="scale(1 1) rotate(0) translate(4 584)">
<polygon fill="white" stroke="transparent" points="-4,4 -4,-584 1226,-584 1226,4 -4,4"/>
<!-- 1 -->
<g id="node1" class="node">
<title>1</title>
<text text-anchor="start" x="605" y="-561.8" font-family="Arial" font-weight="bold" font-size="14.00"> </text>
<path fill="#ebebeb" stroke="transparent" d="M565,-489C565,-489 649,-489 649,-489 655,-489 661,-495 661,-501 661,-501 661,-541 661,-541 661,-547 655,-553 649,-553 649,-553 565,-553 565,-553 559,-553 553,-547 553,-541 553,-541 553,-501 553,-501 553,-495 559,-489 565,-489"/>
<text text-anchor="start" x="554" y="-550.4" font-family="Arial" font-size="2.00"> </text>
<text text-anchor="start" x="554" y="-544.4" font-family="Arial" font-size="7.00"> &#160;1</text>
<text text-anchor="start" x="568" y="-527.8" font-family="Arial" font-weight="bold" font-size="14.00">Mean: 28.97</text>
<text text-anchor="start" x="583.5" y="-510.8" font-family="Arial" font-weight="bold" font-size="14.00">n = 672</text>
<text text-anchor="start" x="605.5" y="-492.8" font-family="Arial" font-size="9.00"> </text>
<path fill="none" stroke="#333333" d="M565,-489C565,-489 649,-489 649,-489 655,-489 661,-495 661,-501 661,-501 661,-541 661,-541 661,-547 655,-553 649,-553 649,-553 565,-553 565,-553 559,-553 553,-547 553,-541 553,-541 553,-501 553,-501 553,-495 559,-489 565,-489"/>
<text text-anchor="start" x="592.5" y="-474.8" font-family="Arial" font-weight="bold" font-size="14.00">time</text>
</g>
<!-- 2 -->
<g id="node2" class="node">
<title>2</title>
<text text-anchor="start" x="469" y="-407.8" font-family="Arial" font-weight="bold" font-size="14.00"> &lt; 11.5</text>
<path fill="#ebebeb" stroke="transparent" d="M448,-335C448,-335 532,-335 532,-335 538,-335 544,-341 544,-347 544,-347 544,-387 544,-387 544,-393 538,-399 532,-399 532,-399 448,-399 448,-399 442,-399 436,-393 436,-387 436,-387 436,-347 436,-347 436,-341 442,-335 448,-335"/>
<text text-anchor="start" x="437" y="-396.4" font-family="Arial" font-size="2.00"> </text>
<text text-anchor="start" x="437" y="-390.4" font-family="Arial" font-size="7.00"> &#160;2</text>
<text text-anchor="start" x="451" y="-373.8" font-family="Arial" font-weight="bold" font-size="14.00">Mean: 28.06</text>
<text text-anchor="start" x="466.5" y="-356.8" font-family="Arial" font-weight="bold" font-size="14.00">n = 336</text>
<text text-anchor="start" x="488.5" y="-338.8" font-family="Arial" font-size="9.00"> </text>
<path fill="none" stroke="#333333" d="M448,-335C448,-335 532,-335 532,-335 538,-335 544,-341 544,-347 544,-347 544,-387 544,-387 544,-393 538,-399 532,-399 532,-399 448,-399 448,-399 442,-399 436,-393 436,-387 436,-387 436,-347 436,-347 436,-341 442,-335 448,-335"/>
<text text-anchor="start" x="475.5" y="-320.8" font-family="Arial" font-weight="bold" font-size="14.00">time</text>
</g>
<!-- 1&#45;&gt;2 -->
<g id="edge1" class="edge">
<title>1&#45;&gt;2</title>
<path fill="none" stroke="#888888" d="M562.1,-461.67C555.17,-452.67 547.97,-443.32 540.93,-434.16"/>
<polygon fill="#888888" stroke="#888888" points="543.65,-431.97 534.78,-426.18 538.11,-436.24 543.65,-431.97"/>
</g>
<!-- 9 -->
<g id="node3" class="node">
<title>9</title>
<text text-anchor="start" x="703.5" y="-407.8" font-family="Arial" font-weight="bold" font-size="14.00"> ≥ 11.5</text>
<path fill="#ebebeb" stroke="transparent" d="M682,-335C682,-335 766,-335 766,-335 772,-335 778,-341 778,-347 778,-347 778,-387 778,-387 778,-393 772,-399 766,-399 766,-399 682,-399 682,-399 676,-399 670,-393 670,-387 670,-387 670,-347 670,-347 670,-341 676,-335 682,-335"/>
<text text-anchor="start" x="671" y="-396.4" font-family="Arial" font-size="2.00"> </text>
<text text-anchor="start" x="671" y="-390.4" font-family="Arial" font-size="7.00"> &#160;9</text>
<text text-anchor="start" x="685" y="-373.8" font-family="Arial" font-weight="bold" font-size="14.00">Mean: 29.88</text>
<text text-anchor="start" x="700.5" y="-356.8" font-family="Arial" font-weight="bold" font-size="14.00">n = 336</text>
<text text-anchor="start" x="722.5" y="-338.8" font-family="Arial" font-size="9.00"> </text>
<path fill="none" stroke="#333333" d="M682,-335C682,-335 766,-335 766,-335 772,-335 778,-341 778,-347 778,-347 778,-387 778,-387 778,-393 772,-399 766,-399 766,-399 682,-399 682,-399 676,-399 670,-393 670,-387 670,-387 670,-347 670,-347 670,-341 676,-335 682,-335"/>
<text text-anchor="start" x="694.5" y="-320.8" font-family="Arial" font-weight="bold" font-size="14.00">day_type</text>
</g>
<!-- 1&#45;&gt;9 -->
<g id="edge2" class="edge">
<title>1&#45;&gt;9</title>
<path fill="none" stroke="#888888" d="M651.9,-461.67C658.83,-452.67 666.03,-443.32 673.07,-434.16"/>
<polygon fill="#888888" stroke="#888888" points="675.89,-436.24 679.22,-426.18 670.35,-431.97 675.89,-436.24"/>
</g>
<!-- 3 -->
<g id="node4" class="node">
<title>3</title>
<text text-anchor="start" x="199.5" y="-253.8" font-family="Arial" font-weight="bold" font-size="14.00"> &lt; 5.5</text>
<text text-anchor="start" x="149" y="-209.3" font-family="Arial" font-size="14.00"> &#160;&#160;</text>
<path fill="#ebebeb" stroke="transparent" d="M175,-181C175,-181 259,-181 259,-181 265,-181 271,-187 271,-193 271,-193 271,-233 271,-233 271,-239 265,-245 259,-245 259,-245 175,-245 175,-245 169,-245 163,-239 163,-233 163,-233 163,-193 163,-193 163,-187 169,-181 175,-181"/>
<text text-anchor="start" x="164" y="-242.4" font-family="Arial" font-size="2.00"> </text>
<text text-anchor="start" x="164" y="-236.4" font-family="Arial" font-size="7.00"> &#160;3</text>
<text text-anchor="start" x="178" y="-219.8" font-family="Arial" font-weight="bold" font-size="14.00">Mean: 23.37</text>
<text text-anchor="start" x="193.5" y="-202.8" font-family="Arial" font-weight="bold" font-size="14.00">n = 168</text>
<text text-anchor="start" x="215.5" y="-184.8" font-family="Arial" font-size="9.00"> </text>
<path fill="none" stroke="#333333" d="M175,-181C175,-181 259,-181 259,-181 265,-181 271,-187 271,-193 271,-193 271,-233 271,-233 271,-239 265,-245 259,-245 259,-245 175,-245 175,-245 169,-245 163,-239 163,-233 163,-233 163,-193 163,-193 163,-187 169,-181 175,-181"/>
<text text-anchor="start" x="273" y="-209.3" font-family="Arial" font-size="14.00"> &#160;&#160;</text>
<text text-anchor="start" x="164" y="-166.8" font-family="Arial" font-weight="bold" font-size="14.00">prev_168_inflow</text>
</g>
<!-- 2&#45;&gt;3 -->
<g id="edge3" class="edge">
<title>2&#45;&gt;3</title>
<path fill="none" stroke="#888888" d="M423.91,-329.21C387.98,-309.2 343.07,-284.19 304.28,-262.6"/>
<polygon fill="#888888" stroke="#888888" points="305.52,-259.28 295.08,-257.47 302.12,-265.4 305.52,-259.28"/>
</g>
<!-- 6 -->
<g id="node5" class="node">
<title>6</title>
<text text-anchor="start" x="473" y="-253.8" font-family="Arial" font-weight="bold" font-size="14.00"> ≥ 5.5</text>
<text text-anchor="start" x="422" y="-209.3" font-family="Arial" font-size="14.00"> &#160;&#160;</text>
<path fill="#ebebeb" stroke="transparent" d="M448,-181C448,-181 532,-181 532,-181 538,-181 544,-187 544,-193 544,-193 544,-233 544,-233 544,-239 538,-245 532,-245 532,-245 448,-245 448,-245 442,-245 436,-239 436,-233 436,-233 436,-193 436,-193 436,-187 442,-181 448,-181"/>
<text text-anchor="start" x="437" y="-242.4" font-family="Arial" font-size="2.00"> </text>
<text text-anchor="start" x="437" y="-236.4" font-family="Arial" font-size="7.00"> &#160;6</text>
<text text-anchor="start" x="451" y="-219.8" font-family="Arial" font-weight="bold" font-size="14.00">Mean: 32.75</text>
<text text-anchor="start" x="466.5" y="-202.8" font-family="Arial" font-weight="bold" font-size="14.00">n = 168</text>
<text text-anchor="start" x="488.5" y="-184.8" font-family="Arial" font-size="9.00"> </text>
<path fill="none" stroke="#333333" d="M448,-181C448,-181 532,-181 532,-181 538,-181 544,-187 544,-193 544,-193 544,-233 544,-233 544,-239 538,-245 532,-245 532,-245 448,-245 448,-245 442,-245 436,-239 436,-233 436,-233 436,-193 436,-193 436,-187 442,-181 448,-181"/>
<text text-anchor="start" x="546" y="-209.3" font-family="Arial" font-size="14.00"> &#160;&#160;</text>
<text text-anchor="start" x="437" y="-166.8" font-family="Arial" font-weight="bold" font-size="14.00">prev_168_inflow</text>
</g>
<!-- 2&#45;&gt;6 -->
<g id="edge4" class="edge">
<title>2&#45;&gt;6</title>
<path fill="none" stroke="#888888" d="M490,-307.67C490,-299.39 490,-290.83 490,-282.38"/>
<polygon fill="#888888" stroke="#888888" points="493.5,-282.18 490,-272.18 486.5,-282.18 493.5,-282.18"/>
</g>
<!-- 10 -->
<g id="node10" class="node">
<title>10</title>
<text text-anchor="start" x="706.5" y="-253.8" font-family="Arial" font-weight="bold" font-size="14.00"> &lt; 0.5</text>
<text text-anchor="start" x="656" y="-209.3" font-family="Arial" font-size="14.00"> &#160;&#160;</text>
<path fill="#ebebeb" stroke="transparent" d="M682,-181C682,-181 766,-181 766,-181 772,-181 778,-187 778,-193 778,-193 778,-233 778,-233 778,-239 772,-245 766,-245 766,-245 682,-245 682,-245 676,-245 670,-239 670,-233 670,-233 670,-193 670,-193 670,-187 676,-181 682,-181"/>
<text text-anchor="start" x="671" y="-242.4" font-family="Arial" font-size="2.00"> </text>
<text text-anchor="start" x="671" y="-236.4" font-family="Arial" font-size="7.00"> &#160;10</text>
<text text-anchor="start" x="685" y="-219.8" font-family="Arial" font-weight="bold" font-size="14.00">Mean: 26.16</text>
<text text-anchor="start" x="704" y="-202.8" font-family="Arial" font-weight="bold" font-size="14.00">n = 96</text>
<text text-anchor="start" x="722.5" y="-184.8" font-family="Arial" font-size="9.00"> </text>
<path fill="none" stroke="#333333" d="M682,-181C682,-181 766,-181 766,-181 772,-181 778,-187 778,-193 778,-193 778,-233 778,-233 778,-239 772,-245 766,-245 766,-245 682,-245 682,-245 676,-245 670,-239 670,-233 670,-233 670,-193 670,-193 670,-187 676,-181 682,-181"/>
<text text-anchor="start" x="780" y="-209.3" font-family="Arial" font-size="14.00"> &#160;&#160;</text>
<text text-anchor="start" x="671" y="-166.8" font-family="Arial" font-weight="bold" font-size="14.00">prev_168_inflow</text>
</g>
<!-- 9&#45;&gt;10 -->
<g id="edge9" class="edge">
<title>9&#45;&gt;10</title>
<path fill="none" stroke="#888888" d="M724,-307.67C724,-299.39 724,-290.83 724,-282.38"/>
<polygon fill="#888888" stroke="#888888" points="727.5,-282.18 724,-272.18 720.5,-282.18 727.5,-282.18"/>
</g>
<!-- 13 -->
<g id="node11" class="node">
<title>13</title>
<text text-anchor="start" x="980" y="-253.8" font-family="Arial" font-weight="bold" font-size="14.00"> ≥ 0.5</text>
<path fill="#ebebeb" stroke="transparent" d="M955,-181C955,-181 1039,-181 1039,-181 1045,-181 1051,-187 1051,-193 1051,-193 1051,-233 1051,-233 1051,-239 1045,-245 1039,-245 1039,-245 955,-245 955,-245 949,-245 943,-239 943,-233 943,-233 943,-193 943,-193 943,-187 949,-181 955,-181"/>
<text text-anchor="start" x="944" y="-242.4" font-family="Arial" font-size="2.00"> </text>
<text text-anchor="start" x="944" y="-236.4" font-family="Arial" font-size="7.00"> &#160;13</text>
<text text-anchor="start" x="958" y="-219.8" font-family="Arial" font-weight="bold" font-size="14.00">Mean: 31.37</text>
<text text-anchor="start" x="973.5" y="-202.8" font-family="Arial" font-weight="bold" font-size="14.00">n = 240</text>
<text text-anchor="start" x="995.5" y="-184.8" font-family="Arial" font-size="9.00"> </text>
<path fill="none" stroke="#333333" d="M955,-181C955,-181 1039,-181 1039,-181 1045,-181 1051,-187 1051,-193 1051,-193 1051,-233 1051,-233 1051,-239 1045,-245 1039,-245 1039,-245 955,-245 955,-245 949,-245 943,-239 943,-233 943,-233 943,-193 943,-193 943,-187 949,-181 955,-181"/>
<text text-anchor="start" x="982.5" y="-166.8" font-family="Arial" font-weight="bold" font-size="14.00">time</text>
</g>
<!-- 9&#45;&gt;13 -->
<g id="edge10" class="edge">
<title>9&#45;&gt;13</title>
<path fill="none" stroke="#888888" d="M790.09,-329.21C829.78,-307.1 880.41,-278.91 921.66,-255.95"/>
<polygon fill="#888888" stroke="#888888" points="923.54,-258.91 930.58,-250.98 920.14,-252.79 923.54,-258.91"/>
</g>
<!-- 4 -->
<g id="node6" class="node">
<title>4</title>
<text text-anchor="start" x="40" y="-99.8" font-family="Arial" font-weight="bold" font-size="14.00"> &lt; 22.61</text>
<path fill="#f8766d" fill-opacity="0.874510" stroke="transparent" d="M24,-27C24,-27 106,-27 106,-27 112,-27 118,-33 118,-39 118,-39 118,-79 118,-79 118,-85 112,-91 106,-91 106,-91 24,-91 24,-91 18,-91 12,-85 12,-79 12,-79 12,-39 12,-39 12,-33 18,-27 24,-27"/>
<text text-anchor="start" x="13" y="-88.4" font-family="Arial" font-size="2.00"> </text>
<text text-anchor="start" x="13" y="-82.4" font-family="Arial" font-size="7.00"> &#160;4</text>
<text text-anchor="start" x="27" y="-65.8" font-family="Arial" font-weight="bold" font-size="14.00">Predict 22.5</text>
<text text-anchor="start" x="45" y="-48.8" font-family="Arial" font-weight="bold" font-size="14.00">n = 60</text>
<text text-anchor="start" x="63.5" y="-30.8" font-family="Arial" font-size="9.00"> </text>
<path fill="none" stroke="#333333" d="M24,-27C24,-27 106,-27 106,-27 112,-27 118,-33 118,-39 118,-39 118,-79 118,-79 118,-85 112,-91 106,-91 106,-91 24,-91 24,-91 18,-91 12,-85 12,-79 12,-79 12,-39 12,-39 12,-33 18,-27 24,-27"/>
<text text-anchor="start" x="63" y="-12.8" font-family="Arial" font-weight="bold" font-size="14.00"> </text>
</g>
<!-- 3&#45;&gt;4 -->
<g id="edge5" class="edge">
<title>3&#45;&gt;4</title>
<path fill="none" stroke="#888888" d="M158.67,-153.67C149.39,-144.39 139.75,-134.75 130.33,-125.33"/>
<polygon fill="#888888" stroke="#888888" points="132.72,-122.77 123.18,-118.18 127.77,-127.72 132.72,-122.77"/>
</g>
<!-- 5 -->
<g id="node7" class="node">
<title>5</title>
<text text-anchor="start" x="192.5" y="-99.8" font-family="Arial" font-weight="bold" font-size="14.00"> ≥ 22.61</text>
<path fill="#f8766d" fill-opacity="0.823529" stroke="transparent" d="M172,-27C172,-27 262,-27 262,-27 268,-27 274,-33 274,-39 274,-39 274,-79 274,-79 274,-85 268,-91 262,-91 262,-91 172,-91 172,-91 166,-91 160,-85 160,-79 160,-79 160,-39 160,-39 160,-33 166,-27 172,-27"/>
<text text-anchor="start" x="161" y="-88.4" font-family="Arial" font-size="2.00"> </text>
<text text-anchor="start" x="161" y="-82.4" font-family="Arial" font-size="7.00"> &#160;5</text>
<text text-anchor="start" x="175" y="-65.8" font-family="Arial" font-weight="bold" font-size="14.00">Predict 23.86</text>
<text text-anchor="start" x="193.5" y="-48.8" font-family="Arial" font-weight="bold" font-size="14.00">n = 108</text>
<text text-anchor="start" x="215.5" y="-30.8" font-family="Arial" font-size="9.00"> </text>
<path fill="none" stroke="#333333" d="M172,-27C172,-27 262,-27 262,-27 268,-27 274,-33 274,-39 274,-39 274,-79 274,-79 274,-85 268,-91 262,-91 262,-91 172,-91 172,-91 166,-91 160,-85 160,-79 160,-79 160,-39 160,-39 160,-33 166,-27 172,-27"/>
<text text-anchor="start" x="215" y="-12.8" font-family="Arial" font-weight="bold" font-size="14.00"> </text>
</g>
<!-- 3&#45;&gt;5 -->
<g id="edge6" class="edge">
<title>3&#45;&gt;5</title>
<path fill="none" stroke="#888888" d="M217,-153.67C217,-145.39 217,-136.83 217,-128.38"/>
<polygon fill="#888888" stroke="#888888" points="220.5,-128.18 217,-118.18 213.5,-128.18 220.5,-128.18"/>
</g>
<!-- 7 -->
<g id="node8" class="node">
<title>7</title>
<text text-anchor="start" x="348" y="-99.8" font-family="Arial" font-weight="bold" font-size="14.00"> &lt; 31.57</text>
<path fill="#f8766d" fill-opacity="0.635294" stroke="transparent" d="M328,-27C328,-27 418,-27 418,-27 424,-27 430,-33 430,-39 430,-39 430,-79 430,-79 430,-85 424,-91 418,-91 418,-91 328,-91 328,-91 322,-91 316,-85 316,-79 316,-79 316,-39 316,-39 316,-33 322,-27 328,-27"/>
<text text-anchor="start" x="317" y="-88.4" font-family="Arial" font-size="2.00"> </text>
<text text-anchor="start" x="317" y="-82.4" font-family="Arial" font-size="7.00"> &#160;7</text>
<text text-anchor="start" x="331" y="-65.8" font-family="Arial" font-weight="bold" font-size="14.00">Predict 28.63</text>
<text text-anchor="start" x="353" y="-48.8" font-family="Arial" font-weight="bold" font-size="14.00">n = 64</text>
<text text-anchor="start" x="371.5" y="-30.8" font-family="Arial" font-size="9.00"> </text>
<path fill="none" stroke="#333333" d="M328,-27C328,-27 418,-27 418,-27 424,-27 430,-33 430,-39 430,-39 430,-79 430,-79 430,-85 424,-91 418,-91 418,-91 328,-91 328,-91 322,-91 316,-85 316,-79 316,-79 316,-39 316,-39 316,-33 322,-27 328,-27"/>
<text text-anchor="start" x="371" y="-12.8" font-family="Arial" font-weight="bold" font-size="14.00"> </text>
</g>
<!-- 6&#45;&gt;7 -->
<g id="edge7" class="edge">
<title>6&#45;&gt;7</title>
<path fill="none" stroke="#888888" d="M445.1,-153.67C438.17,-144.67 430.97,-135.32 423.93,-126.16"/>
<polygon fill="#888888" stroke="#888888" points="426.65,-123.97 417.78,-118.18 421.11,-128.24 426.65,-123.97"/>
</g>
<!-- 8 -->
<g id="node9" class="node">
<title>8</title>
<text text-anchor="start" x="504.5" y="-99.8" font-family="Arial" font-weight="bold" font-size="14.00"> ≥ 31.57</text>
<path fill="#f8766d" fill-opacity="0.376471" stroke="transparent" d="M484,-27C484,-27 574,-27 574,-27 580,-27 586,-33 586,-39 586,-39 586,-79 586,-79 586,-85 580,-91 574,-91 574,-91 484,-91 484,-91 478,-91 472,-85 472,-79 472,-79 472,-39 472,-39 472,-33 478,-27 484,-27"/>
<text text-anchor="start" x="473" y="-88.4" font-family="Arial" font-size="2.00"> </text>
<text text-anchor="start" x="473" y="-82.4" font-family="Arial" font-size="7.00"> &#160;8</text>
<text text-anchor="start" x="487" y="-65.8" font-family="Arial" font-weight="bold" font-size="14.00">Predict 35.28</text>
<text text-anchor="start" x="505.5" y="-48.8" font-family="Arial" font-weight="bold" font-size="14.00">n = 104</text>
<text text-anchor="start" x="527.5" y="-30.8" font-family="Arial" font-size="9.00"> </text>
<path fill="none" stroke="#333333" d="M484,-27C484,-27 574,-27 574,-27 580,-27 586,-33 586,-39 586,-39 586,-79 586,-79 586,-85 580,-91 574,-91 574,-91 484,-91 484,-91 478,-91 472,-85 472,-79 472,-79 472,-39 472,-39 472,-33 478,-27 484,-27"/>
<text text-anchor="start" x="527" y="-12.8" font-family="Arial" font-weight="bold" font-size="14.00"> </text>
</g>
<!-- 6&#45;&gt;8 -->
<g id="edge8" class="edge">
<title>6&#45;&gt;8</title>
<path fill="none" stroke="#888888" d="M504.97,-153.67C507.11,-145.3 509.34,-136.64 511.53,-128.1"/>
<polygon fill="#888888" stroke="#888888" points="514.98,-128.73 514.07,-118.18 508.2,-126.99 514.98,-128.73"/>
</g>
<!-- 11 -->
<g id="node12" class="node">
<title>11</title>
<text text-anchor="start" x="660" y="-99.8" font-family="Arial" font-weight="bold" font-size="14.00"> &lt; 26.12</text>
<path fill="#f8766d" fill-opacity="0.760784" stroke="transparent" d="M640,-27C640,-27 730,-27 730,-27 736,-27 742,-33 742,-39 742,-39 742,-79 742,-79 742,-85 736,-91 730,-91 730,-91 640,-91 640,-91 634,-91 628,-85 628,-79 628,-79 628,-39 628,-39 628,-33 634,-27 640,-27"/>
<text text-anchor="start" x="629" y="-88.4" font-family="Arial" font-size="2.00"> </text>
<text text-anchor="start" x="629" y="-82.4" font-family="Arial" font-size="7.00"> &#160;11</text>
<text text-anchor="start" x="643" y="-65.8" font-family="Arial" font-weight="bold" font-size="14.00">Predict 25.43</text>
<text text-anchor="start" x="665" y="-48.8" font-family="Arial" font-weight="bold" font-size="14.00">n = 54</text>
<text text-anchor="start" x="683.5" y="-30.8" font-family="Arial" font-size="9.00"> </text>
<path fill="none" stroke="#333333" d="M640,-27C640,-27 730,-27 730,-27 736,-27 742,-33 742,-39 742,-39 742,-79 742,-79 742,-85 736,-91 730,-91 730,-91 640,-91 640,-91 634,-91 628,-85 628,-79 628,-79 628,-39 628,-39 628,-33 634,-27 640,-27"/>
<text text-anchor="start" x="683" y="-12.8" font-family="Arial" font-weight="bold" font-size="14.00"> </text>
</g>
<!-- 10&#45;&gt;11 -->
<g id="edge11" class="edge">
<title>10&#45;&gt;11</title>
<path fill="none" stroke="#888888" d="M709.03,-153.67C706.89,-145.3 704.66,-136.64 702.47,-128.1"/>
<polygon fill="#888888" stroke="#888888" points="705.8,-126.99 699.93,-118.18 699.02,-128.73 705.8,-126.99"/>
</g>
<!-- 12 -->
<g id="node13" class="node">
<title>12</title>
<text text-anchor="start" x="816.5" y="-99.8" font-family="Arial" font-weight="bold" font-size="14.00"> ≥ 26.12</text>
<path fill="#f8766d" fill-opacity="0.694118" stroke="transparent" d="M796,-27C796,-27 886,-27 886,-27 892,-27 898,-33 898,-39 898,-39 898,-79 898,-79 898,-85 892,-91 886,-91 886,-91 796,-91 796,-91 790,-91 784,-85 784,-79 784,-79 784,-39 784,-39 784,-33 790,-27 796,-27"/>
<text text-anchor="start" x="785" y="-88.4" font-family="Arial" font-size="2.00"> </text>
<text text-anchor="start" x="785" y="-82.4" font-family="Arial" font-size="7.00"> &#160;12</text>
<text text-anchor="start" x="799" y="-65.8" font-family="Arial" font-weight="bold" font-size="14.00">Predict 27.09</text>
<text text-anchor="start" x="821" y="-48.8" font-family="Arial" font-weight="bold" font-size="14.00">n = 42</text>
<text text-anchor="start" x="839.5" y="-30.8" font-family="Arial" font-size="9.00"> </text>
<path fill="none" stroke="#333333" d="M796,-27C796,-27 886,-27 886,-27 892,-27 898,-33 898,-39 898,-39 898,-79 898,-79 898,-85 892,-91 886,-91 886,-91 796,-91 796,-91 790,-91 784,-85 784,-79 784,-79 784,-39 784,-39 784,-33 790,-27 796,-27"/>
<text text-anchor="start" x="839" y="-12.8" font-family="Arial" font-weight="bold" font-size="14.00"> </text>
</g>
<!-- 10&#45;&gt;12 -->
<g id="edge12" class="edge">
<title>10&#45;&gt;12</title>
<path fill="none" stroke="#888888" d="M768.9,-153.67C775.83,-144.67 783.03,-135.32 790.07,-126.16"/>
<polygon fill="#888888" stroke="#888888" points="792.89,-128.24 796.22,-118.18 787.35,-123.97 792.89,-128.24"/>
</g>
<!-- 14 -->
<g id="node14" class="node">
<title>14</title>
<text text-anchor="start" x="975.5" y="-99.8" font-family="Arial" font-weight="bold" font-size="14.00"> &lt; 20.5</text>
<path fill="#f8766d" fill-opacity="0.486275" stroke="transparent" d="M952,-27C952,-27 1042,-27 1042,-27 1048,-27 1054,-33 1054,-39 1054,-39 1054,-79 1054,-79 1054,-85 1048,-91 1042,-91 1042,-91 952,-91 952,-91 946,-91 940,-85 940,-79 940,-79 940,-39 940,-39 940,-33 946,-27 952,-27"/>
<text text-anchor="start" x="941" y="-88.4" font-family="Arial" font-size="2.00"> </text>
<text text-anchor="start" x="941" y="-82.4" font-family="Arial" font-size="7.00"> &#160;14</text>
<text text-anchor="start" x="955" y="-65.8" font-family="Arial" font-weight="bold" font-size="14.00">Predict 32.47</text>
<text text-anchor="start" x="973.5" y="-48.8" font-family="Arial" font-weight="bold" font-size="14.00">n = 180</text>
<text text-anchor="start" x="995.5" y="-30.8" font-family="Arial" font-size="9.00"> </text>
<path fill="none" stroke="#333333" d="M952,-27C952,-27 1042,-27 1042,-27 1048,-27 1054,-33 1054,-39 1054,-39 1054,-79 1054,-79 1054,-85 1048,-91 1042,-91 1042,-91 952,-91 952,-91 946,-91 940,-85 940,-79 940,-79 940,-39 940,-39 940,-33 946,-27 952,-27"/>
<text text-anchor="start" x="995" y="-12.8" font-family="Arial" font-weight="bold" font-size="14.00"> </text>
</g>
<!-- 13&#45;&gt;14 -->
<g id="edge13" class="edge">
<title>13&#45;&gt;14</title>
<path fill="none" stroke="#888888" d="M997,-153.67C997,-145.39 997,-136.83 997,-128.38"/>
<polygon fill="#888888" stroke="#888888" points="1000.5,-128.18 997,-118.18 993.5,-128.18 1000.5,-128.18"/>
</g>
<!-- 15 -->
<g id="node15" class="node">
<title>15</title>
<text text-anchor="start" x="1132" y="-99.8" font-family="Arial" font-weight="bold" font-size="14.00"> ≥ 20.5</text>
<path fill="#f8766d" fill-opacity="0.654902" stroke="transparent" d="M1108,-27C1108,-27 1198,-27 1198,-27 1204,-27 1210,-33 1210,-39 1210,-39 1210,-79 1210,-79 1210,-85 1204,-91 1198,-91 1198,-91 1108,-91 1108,-91 1102,-91 1096,-85 1096,-79 1096,-79 1096,-39 1096,-39 1096,-33 1102,-27 1108,-27"/>
<text text-anchor="start" x="1097" y="-88.4" font-family="Arial" font-size="2.00"> </text>
<text text-anchor="start" x="1097" y="-82.4" font-family="Arial" font-size="7.00"> &#160;15</text>
<text text-anchor="start" x="1111" y="-65.8" font-family="Arial" font-weight="bold" font-size="14.00">Predict 28.09</text>
<text text-anchor="start" x="1133" y="-48.8" font-family="Arial" font-weight="bold" font-size="14.00">n = 60</text>
<text text-anchor="start" x="1151.5" y="-30.8" font-family="Arial" font-size="9.00"> </text>
<path fill="none" stroke="#333333" d="M1108,-27C1108,-27 1198,-27 1198,-27 1204,-27 1210,-33 1210,-39 1210,-39 1210,-79 1210,-79 1210,-85 1204,-91 1198,-91 1198,-91 1108,-91 1108,-91 1102,-91 1096,-85 1096,-79 1096,-79 1096,-39 1096,-39 1096,-33 1102,-27 1108,-27"/>
<text text-anchor="start" x="1151" y="-12.8" font-family="Arial" font-weight="bold" font-size="14.00"> </text>
</g>
<!-- 13&#45;&gt;15 -->
<g id="edge14" class="edge">
<title>13&#45;&gt;15</title>
<path fill="none" stroke="#888888" d="M1056.87,-153.67C1066.38,-144.39 1076.28,-134.75 1085.95,-125.33"/>
<polygon fill="#888888" stroke="#888888" points="1088.57,-127.66 1093.29,-118.18 1083.69,-122.65 1088.57,-127.66"/>
</g>
</g>
</svg>
