<?xml version="1.0" encoding="UTF-8" standalone="no"?>
<!DOCTYPE svg PUBLIC "-//W3C//DTD SVG 1.1//EN"
 "http://www.w3.org/Graphics/SVG/1.1/DTD/svg11.dtd">
<!-- Generated by graphviz version 2.50.0 (20211204.2007)
 -->
<!-- Pages: 1 -->
<svg width="632pt" height="588pt"
 viewBox="0.00 0.00 632.00 588.00" xmlns="http://www.w3.org/2000/svg" xmlns:xlink="http://www.w3.org/1999/xlink">
<g id="graph0" class="graph" transform="scale(1 1) rotate(0) translate(4 584)">
<polygon fill="white" stroke="transparent" points="-4,4 -4,-584 628,-584 628,4 -4,4"/>
<!-- 1 -->
<g id="node1" class="node">
<title>1</title>
<text text-anchor="start" x="314" y="-561.8" font-family="Arial" font-weight="bold" font-size="14.00"> </text>
<path fill="#ebebeb" stroke="transparent" d="M274,-489C274,-489 358,-489 358,-489 364,-489 370,-495 370,-501 370,-501 370,-541 370,-541 370,-547 364,-553 358,-553 358,-553 274,-553 274,-553 268,-553 262,-547 262,-541 262,-541 262,-501 262,-501 262,-495 268,-489 274,-489"/>
<text text-anchor="start" x="263" y="-550.4" font-family="Arial" font-size="2.00"> </text>
<text text-anchor="start" x="263" y="-544.4" font-family="Arial" font-size="7.00"> &#160;1</text>
<text text-anchor="start" x="277" y="-527.8" font-family="Arial" font-weight="bold" font-size="14.00">Mean: 10.44</text>
<text text-anchor="start" x="292.5" y="-510.8" font-family="Arial" font-weight="bold" font-size="14.00">n = 672</text>
<text text-anchor="start" x="314.5" y="-492.8" font-family="Arial" font-size="9.00"> </text>
<path fill="none" stroke="#333333" d="M274,-489C274,-489 358,-489 358,-489 364,-489 370,-495 370,-501 370,-501 370,-541 370,-541 370,-547 364,-553 358,-553 358,-553 274,-553 274,-553 268,-553 262,-547 262,-541 262,-541 262,-501 262,-501 262,-495 268,-489 274,-489"/>
<text text-anchor="start" x="301.5" y="-474.8" font-family="Arial" font-weight="bold" font-size="14.00">time</text>
</g>
<!-- 2 -->
<g id="node2" class="node">
<title>2</title>
<text text-anchor="start" x="212.5" y="-407.8" font-family="Arial" font-weight="bold" font-size="14.00"> &lt; 17.5</text>
<path fill="#ebebeb" stroke="transparent" d="M196,-335C196,-335 272,-335 272,-335 278,-335 284,-341 284,-347 284,-347 284,-387 284,-387 284,-393 278,-399 272,-399 272,-399 196,-399 196,-399 190,-399 184,-393 184,-387 184,-387 184,-347 184,-347 184,-341 190,-335 196,-335"/>
<text text-anchor="start" x="185" y="-396.4" font-family="Arial" font-size="2.00"> </text>
<text text-anchor="start" x="185" y="-390.4" font-family="Arial" font-size="7.00"> &#160;2</text>
<text text-anchor="start" x="199" y="-373.8" font-family="Arial" font-weight="bold" font-size="14.00">Mean: 9.87</text>
<text text-anchor="start" x="210.5" y="-356.8" font-family="Arial" font-weight="bold" font-size="14.00">n = 504</text>
<text text-anchor="start" x="232.5" y="-338.8" font-family="Arial" font-size="9.00"> </text>
<path fill="none" stroke="#333333" d="M196,-335C196,-335 272,-335 272,-335 278,-335 284,-341 284,-347 284,-347 284,-387 284,-387 284,-393 278,-399 272,-399 272,-399 196,-399 196,-399 190,-399 184,-393 184,-387 184,-387 184,-347 184,-347 184,-341 190,-335 196,-335"/>
<text text-anchor="start" x="219.5" y="-320.8" font-family="Arial" font-weight="bold" font-size="14.00">time</text>
</g>
<!-- 1&#45;&gt;2 -->
<g id="edge1" class="edge">
<title>1&#45;&gt;2</title>
<path fill="none" stroke="#888888" d="M284.53,-461.67C279.82,-452.94 274.94,-443.88 270.14,-434.99"/>
<polygon fill="#888888" stroke="#888888" points="273.21,-433.32 265.38,-426.18 267.05,-436.64 273.21,-433.32"/>
</g>
<!-- 7 -->
<g id="node3" class="node">
<title>7</title>
<text text-anchor="start" x="378" y="-407.8" font-family="Arial" font-weight="bold" font-size="14.00"> ≥ 17.5</text>
<path fill="#ebebeb" stroke="transparent" d="M357,-335C357,-335 441,-335 441,-335 447,-335 453,-341 453,-347 453,-347 453,-387 453,-387 453,-393 447,-399 441,-399 441,-399 357,-399 357,-399 351,-399 345,-393 345,-387 345,-387 345,-347 345,-347 345,-341 351,-335 357,-335"/>
<text text-anchor="start" x="346" y="-396.4" font-family="Arial" font-size="2.00"> </text>
<text text-anchor="start" x="346" y="-390.4" font-family="Arial" font-size="7.00"> &#160;7</text>
<text text-anchor="start" x="360" y="-373.8" font-family="Arial" font-weight="bold" font-size="14.00">Mean: 12.13</text>
<text text-anchor="start" x="375.5" y="-356.8" font-family="Arial" font-weight="bold" font-size="14.00">n = 168</text>
<text text-anchor="start" x="397.5" y="-338.8" font-family="Arial" font-size="9.00"> </text>
<path fill="none" stroke="#333333" d="M357,-335C357,-335 441,-335 441,-335 447,-335 453,-341 453,-347 453,-347 453,-387 453,-387 453,-393 447,-399 441,-399 441,-399 357,-399 357,-399 351,-399 345,-393 345,-387 345,-387 345,-347 345,-347 345,-341 351,-335 357,-335"/>
<text text-anchor="start" x="384.5" y="-320.8" font-family="Arial" font-weight="bold" font-size="14.00">time</text>
</g>
<!-- 1&#45;&gt;7 -->
<g id="edge2" class="edge">
<title>1&#45;&gt;7</title>
<path fill="none" stroke="#888888" d="M347.85,-461.67C352.62,-452.94 357.56,-443.88 362.42,-434.99"/>
<polygon fill="#888888" stroke="#888888" points="365.51,-436.63 367.23,-426.18 359.37,-433.28 365.51,-436.63"/>
</g>
<!-- 3 -->
<g id="node4" class="node">
<title>3</title>
<text text-anchor="start" x="51.5" y="-253.8" font-family="Arial" font-weight="bold" font-size="14.00"> &lt; 5.5</text>
<path fill="#f8766d" fill-opacity="0.874510" stroke="transparent" d="M24,-181C24,-181 114,-181 114,-181 120,-181 126,-187 126,-193 126,-193 126,-233 126,-233 126,-239 120,-245 114,-245 114,-245 24,-245 24,-245 18,-245 12,-239 12,-233 12,-233 12,-193 12,-193 12,-187 18,-181 24,-181"/>
<text text-anchor="start" x="13" y="-242.4" font-family="Arial" font-size="2.00"> </text>
<text text-anchor="start" x="13" y="-236.4" font-family="Arial" font-size="7.00"> &#160;3</text>
<text text-anchor="start" x="27" y="-219.8" font-family="Arial" font-weight="bold" font-size="14.00">Predict 7.922</text>
<text text-anchor="start" x="45.5" y="-202.8" font-family="Arial" font-weight="bold" font-size="14.00">n = 168</text>
<text text-anchor="start" x="67.5" y="-184.8" font-family="Arial" font-size="9.00"> </text>
<path fill="none" stroke="#333333" d="M24,-181C24,-181 114,-181 114,-181 120,-181 126,-187 126,-193 126,-193 126,-233 126,-233 126,-239 120,-245 114,-245 114,-245 24,-245 24,-245 18,-245 12,-239 12,-233 12,-233 12,-193 12,-193 12,-187 18,-181 24,-181"/>
<text text-anchor="start" x="67" y="-166.8" font-family="Arial" font-weight="bold" font-size="14.00"> </text>
</g>
<!-- 2&#45;&gt;3 -->
<g id="edge3" class="edge">
<title>2&#45;&gt;3</title>
<path fill="none" stroke="#888888" d="M171.62,-308.54C161.09,-298.84 150.1,-288.71 139.38,-278.84"/>
<polygon fill="#888888" stroke="#888888" points="141.74,-276.25 132.02,-272.05 137,-281.4 141.74,-276.25"/>
</g>
<!-- 4 -->
<g id="node5" class="node">
<title>4</title>
<text text-anchor="start" x="217" y="-253.8" font-family="Arial" font-weight="bold" font-size="14.00"> ≥ 5.5</text>
<text text-anchor="start" x="166" y="-209.3" font-family="Arial" font-size="14.00"> &#160;&#160;</text>
<path fill="#ebebeb" stroke="transparent" d="M192,-181C192,-181 276,-181 276,-181 282,-181 288,-187 288,-193 288,-193 288,-233 288,-233 288,-239 282,-245 276,-245 276,-245 192,-245 192,-245 186,-245 180,-239 180,-233 180,-233 180,-193 180,-193 180,-187 186,-181 192,-181"/>
<text text-anchor="start" x="181" y="-242.4" font-family="Arial" font-size="2.00"> </text>
<text text-anchor="start" x="181" y="-236.4" font-family="Arial" font-size="7.00"> &#160;4</text>
<text text-anchor="start" x="195" y="-219.8" font-family="Arial" font-weight="bold" font-size="14.00">Mean: 10.84</text>
<text text-anchor="start" x="210.5" y="-202.8" font-family="Arial" font-weight="bold" font-size="14.00">n = 336</text>
<text text-anchor="start" x="232.5" y="-184.8" font-family="Arial" font-size="9.00"> </text>
<path fill="none" stroke="#333333" d="M192,-181C192,-181 276,-181 276,-181 282,-181 288,-187 288,-193 288,-193 288,-233 288,-233 288,-239 282,-245 276,-245 276,-245 192,-245 192,-245 186,-245 180,-239 180,-233 180,-233 180,-193 180,-193 180,-187 186,-181 192,-181"/>
<text text-anchor="start" x="290" y="-209.3" font-family="Arial" font-size="14.00"> &#160;&#160;</text>
<text text-anchor="start" x="181" y="-166.8" font-family="Arial" font-weight="bold" font-size="14.00">prev_168_inflow</text>
</g>
<!-- 2&#45;&gt;4 -->
<g id="edge4" class="edge">
<title>2&#45;&gt;4</title>
<path fill="none" stroke="#888888" d="M234,-307.67C234,-299.39 234,-290.83 234,-282.38"/>
<polygon fill="#888888" stroke="#888888" points="237.5,-282.18 234,-272.18 230.5,-282.18 237.5,-282.18"/>
</g>
<!-- 8 -->
<g id="node8" class="node">
<title>8</title>
<text text-anchor="start" x="377.5" y="-253.8" font-family="Arial" font-weight="bold" font-size="14.00"> &lt; 21.5</text>
<path fill="#f8766d" fill-opacity="0.376471" stroke="transparent" d="M354,-181C354,-181 444,-181 444,-181 450,-181 456,-187 456,-193 456,-193 456,-233 456,-233 456,-239 450,-245 444,-245 444,-245 354,-245 354,-245 348,-245 342,-239 342,-233 342,-233 342,-193 342,-193 342,-187 348,-181 354,-181"/>
<text text-anchor="start" x="343" y="-242.4" font-family="Arial" font-size="2.00"> </text>
<text text-anchor="start" x="343" y="-236.4" font-family="Arial" font-size="7.00"> &#160;8</text>
<text text-anchor="start" x="357" y="-219.8" font-family="Arial" font-weight="bold" font-size="14.00">Predict 13.47</text>
<text text-anchor="start" x="376" y="-202.8" font-family="Arial" font-weight="bold" font-size="14.00">n = 112</text>
<text text-anchor="start" x="397.5" y="-184.8" font-family="Arial" font-size="9.00"> </text>
<path fill="none" stroke="#333333" d="M354,-181C354,-181 444,-181 444,-181 450,-181 456,-187 456,-193 456,-193 456,-233 456,-233 456,-239 450,-245 444,-245 444,-245 354,-245 354,-245 348,-245 342,-239 342,-233 342,-233 342,-193 342,-193 342,-187 348,-181 354,-181"/>
<text text-anchor="start" x="397" y="-166.8" font-family="Arial" font-weight="bold" font-size="14.00"> </text>
</g>
<!-- 7&#45;&gt;8 -->
<g id="edge7" class="edge">
<title>7&#45;&gt;8</title>
<path fill="none" stroke="#888888" d="M399,-307.67C399,-299.39 399,-290.83 399,-282.38"/>
<polygon fill="#888888" stroke="#888888" points="402.5,-282.18 399,-272.18 395.5,-282.18 402.5,-282.18"/>
</g>
<!-- 9 -->
<g id="node9" class="node">
<title>9</title>
<text text-anchor="start" x="534" y="-253.8" font-family="Arial" font-weight="bold" font-size="14.00"> ≥ 21.5</text>
<path fill="#f8766d" fill-opacity="0.737255" stroke="transparent" d="M510,-181C510,-181 600,-181 600,-181 606,-181 612,-187 612,-193 612,-193 612,-233 612,-233 612,-239 606,-245 600,-245 600,-245 510,-245 510,-245 504,-245 498,-239 498,-233 498,-233 498,-193 498,-193 498,-187 504,-181 510,-181"/>
<text text-anchor="start" x="499" y="-242.4" font-family="Arial" font-size="2.00"> </text>
<text text-anchor="start" x="499" y="-236.4" font-family="Arial" font-size="7.00"> &#160;9</text>
<text text-anchor="start" x="513" y="-219.8" font-family="Arial" font-weight="bold" font-size="14.00">Predict 9.444</text>
<text text-anchor="start" x="535" y="-202.8" font-family="Arial" font-weight="bold" font-size="14.00">n = 56</text>
<text text-anchor="start" x="553.5" y="-184.8" font-family="Arial" font-size="9.00"> </text>
<path fill="none" stroke="#333333" d="M510,-181C510,-181 600,-181 600,-181 606,-181 612,-187 612,-193 612,-193 612,-233 612,-233 612,-239 606,-245 600,-245 600,-245 510,-245 510,-245 504,-245 498,-239 498,-233 498,-233 498,-193 498,-193 498,-187 504,-181 510,-181"/>
<text text-anchor="start" x="553" y="-166.8" font-family="Arial" font-weight="bold" font-size="14.00"> </text>
</g>
<!-- 7&#45;&gt;9 -->
<g id="edge8" class="edge">
<title>7&#45;&gt;9</title>
<path fill="none" stroke="#888888" d="M458.87,-307.67C468.38,-298.39 478.28,-288.75 487.95,-279.33"/>
<polygon fill="#888888" stroke="#888888" points="490.57,-281.66 495.29,-272.18 485.69,-276.65 490.57,-281.66"/>
</g>
<!-- 5 -->
<g id="node6" class="node">
<title>5</title>
<text text-anchor="start" x="131.5" y="-99.8" font-family="Arial" font-weight="bold" font-size="14.00"> &lt; 11.23</text>
<path fill="#f8766d" fill-opacity="0.647059" stroke="transparent" d="M111,-27C111,-27 201,-27 201,-27 207,-27 213,-33 213,-39 213,-39 213,-79 213,-79 213,-85 207,-91 201,-91 201,-91 111,-91 111,-91 105,-91 99,-85 99,-79 99,-79 99,-39 99,-39 99,-33 105,-27 111,-27"/>
<text text-anchor="start" x="100" y="-88.4" font-family="Arial" font-size="2.00"> </text>
<text text-anchor="start" x="100" y="-82.4" font-family="Arial" font-size="7.00"> &#160;5</text>
<text text-anchor="start" x="114" y="-65.8" font-family="Arial" font-weight="bold" font-size="14.00">Predict 10.47</text>
<text text-anchor="start" x="132.5" y="-48.8" font-family="Arial" font-weight="bold" font-size="14.00">n = 247</text>
<text text-anchor="start" x="154.5" y="-30.8" font-family="Arial" font-size="9.00"> </text>
<path fill="none" stroke="#333333" d="M111,-27C111,-27 201,-27 201,-27 207,-27 213,-33 213,-39 213,-39 213,-79 213,-79 213,-85 207,-91 201,-91 201,-91 111,-91 111,-91 105,-91 99,-85 99,-79 99,-79 99,-39 99,-39 99,-33 105,-27 111,-27"/>
<text text-anchor="start" x="154" y="-12.8" font-family="Arial" font-weight="bold" font-size="14.00"> </text>
</g>
<!-- 4&#45;&gt;5 -->
<g id="edge5" class="edge">
<title>4&#45;&gt;5</title>
<path fill="none" stroke="#888888" d="M204.07,-153.67C199.63,-145.03 195.04,-136.07 190.52,-127.27"/>
<polygon fill="#888888" stroke="#888888" points="193.53,-125.48 185.85,-118.18 187.31,-128.67 193.53,-125.48"/>
</g>
<!-- 6 -->
<g id="node7" class="node">
<title>6</title>
<text text-anchor="start" x="288" y="-99.8" font-family="Arial" font-weight="bold" font-size="14.00"> ≥ 11.23</text>
<path fill="#f8766d" fill-opacity="0.521569" stroke="transparent" d="M268,-27C268,-27 357,-27 357,-27 363,-27 369,-33 369,-39 369,-39 369,-79 369,-79 369,-85 363,-91 357,-91 357,-91 268,-91 268,-91 262,-91 256,-85 256,-79 256,-79 256,-39 256,-39 256,-33 262,-27 268,-27"/>
<text text-anchor="start" x="257" y="-88.4" font-family="Arial" font-size="2.00"> </text>
<text text-anchor="start" x="257" y="-82.4" font-family="Arial" font-size="7.00"> &#160;6</text>
<text text-anchor="start" x="271" y="-65.8" font-family="Arial" font-weight="bold" font-size="14.00">Predict 11.87</text>
<text text-anchor="start" x="292.5" y="-48.8" font-family="Arial" font-weight="bold" font-size="14.00">n = 89</text>
<text text-anchor="start" x="311" y="-30.8" font-family="Arial" font-size="9.00"> </text>
<path fill="none" stroke="#333333" d="M268,-27C268,-27 357,-27 357,-27 363,-27 369,-33 369,-39 369,-39 369,-79 369,-79 369,-85 363,-91 357,-91 357,-91 268,-91 268,-91 262,-91 256,-85 256,-79 256,-79 256,-39 256,-39 256,-33 262,-27 268,-27"/>
<text text-anchor="start" x="310.5" y="-12.8" font-family="Arial" font-weight="bold" font-size="14.00"> </text>
</g>
<!-- 4&#45;&gt;6 -->
<g id="edge6" class="edge">
<title>4&#45;&gt;6</title>
<path fill="none" stroke="#888888" d="M263.93,-153.67C268.37,-145.03 272.96,-136.07 277.48,-127.27"/>
<polygon fill="#888888" stroke="#888888" points="280.69,-128.67 282.15,-118.18 274.47,-125.48 280.69,-128.67"/>
</g>
</g>
</svg>
