<?xml version="1.0" encoding="UTF-8" standalone="no"?>
<!DOCTYPE svg PUBLIC "-//W3C//DTD SVG 1.1//EN"
 "http://www.w3.org/Graphics/SVG/1.1/DTD/svg11.dtd">
<!-- Generated by graphviz version 2.50.0 (20211204.2007)
 -->
<!-- Pages: 1 -->
<svg width="389pt" height="434pt"
 viewBox="0.00 0.00 389.00 434.00" xmlns="http://www.w3.org/2000/svg" xmlns:xlink="http://www.w3.org/1999/xlink">
<g id="graph0" class="graph" transform="scale(1 1) rotate(0) translate(4 430)">
<polygon fill="white" stroke="transparent" points="-4,4 -4,-430 385,-430 385,4 -4,4"/>
<!-- 1 -->
<g id="node1" class="node">
<title>1</title>
<text text-anchor="start" x="227" y="-407.8" font-family="Arial" font-weight="bold" font-size="14.00"> </text>
<text text-anchor="start" x="161" y="-363.3" font-family="Arial" font-size="14.00"> &#160;&#160;&#160;</text>
<path fill="#ebebeb" stroke="transparent" d="M191,-335C191,-335 267,-335 267,-335 273,-335 279,-341 279,-347 279,-347 279,-387 279,-387 279,-393 273,-399 267,-399 267,-399 191,-399 191,-399 185,-399 179,-393 179,-387 179,-387 179,-347 179,-347 179,-341 185,-335 191,-335"/>
<text text-anchor="start" x="180" y="-396.4" font-family="Arial" font-size="2.00"> </text>
<text text-anchor="start" x="180" y="-390.4" font-family="Arial" font-size="7.00"> &#160;1</text>
<text text-anchor="start" x="194" y="-373.8" font-family="Arial" font-weight="bold" font-size="14.00">Mean: 10.7</text>
<text text-anchor="start" x="205.5" y="-356.8" font-family="Arial" font-weight="bold" font-size="14.00">n = 168</text>
<text text-anchor="start" x="227.5" y="-338.8" font-family="Arial" font-size="9.00"> </text>
<path fill="none" stroke="#333333" d="M191,-335C191,-335 267,-335 267,-335 273,-335 279,-341 279,-347 279,-347 279,-387 279,-387 279,-393 273,-399 267,-399 267,-399 191,-399 191,-399 185,-399 179,-393 179,-387 179,-387 179,-347 179,-347 179,-341 185,-335 191,-335"/>
<text text-anchor="start" x="281" y="-363.3" font-family="Arial" font-size="14.00"> &#160;&#160;&#160;</text>
<text text-anchor="start" x="175.5" y="-320.8" font-family="Arial" font-weight="bold" font-size="14.00">prev_24h_inflow</text>
</g>
<!-- 2 -->
<g id="node2" class="node">
<title>2</title>
<text text-anchor="start" x="122.5" y="-253.8" font-family="Arial" font-weight="bold" font-size="14.00"> &lt; 11.86</text>
<text text-anchor="start" x="79" y="-209.3" font-family="Arial" font-size="14.00"> &#160;&#160;</text>
<path fill="#ebebeb" stroke="transparent" d="M105,-181C105,-181 189,-181 189,-181 195,-181 201,-187 201,-193 201,-193 201,-233 201,-233 201,-239 195,-245 189,-245 189,-245 105,-245 105,-245 99,-245 93,-239 93,-233 93,-233 93,-193 93,-193 93,-187 99,-181 105,-181"/>
<text text-anchor="start" x="94" y="-242.4" font-family="Arial" font-size="2.00"> </text>
<text text-anchor="start" x="94" y="-236.4" font-family="Arial" font-size="7.00"> &#160;2</text>
<text text-anchor="start" x="108" y="-219.8" font-family="Arial" font-weight="bold" font-size="14.00">Mean: 9.873</text>
<text text-anchor="start" x="123.5" y="-202.8" font-family="Arial" font-weight="bold" font-size="14.00">n = 129</text>
<text text-anchor="start" x="145.5" y="-184.8" font-family="Arial" font-size="9.00"> </text>
<path fill="none" stroke="#333333" d="M105,-181C105,-181 189,-181 189,-181 195,-181 201,-187 201,-193 201,-193 201,-233 201,-233 201,-239 195,-245 189,-245 189,-245 105,-245 105,-245 99,-245 93,-239 93,-233 93,-233 93,-193 93,-193 93,-187 99,-181 105,-181"/>
<text text-anchor="start" x="203" y="-209.3" font-family="Arial" font-size="14.00"> &#160;&#160;</text>
<text text-anchor="start" x="93.5" y="-166.8" font-family="Arial" font-weight="bold" font-size="14.00">prev_24h_inflow</text>
</g>
<!-- 1&#45;&gt;2 -->
<g id="edge1" class="edge">
<title>1&#45;&gt;2</title>
<path fill="none" stroke="#888888" d="M197.53,-307.67C192.82,-298.94 187.94,-289.88 183.14,-280.99"/>
<polygon fill="#888888" stroke="#888888" points="186.21,-279.32 178.38,-272.18 180.05,-282.64 186.21,-279.32"/>
</g>
<!-- 5 -->
<g id="node3" class="node">
<title>5</title>
<text text-anchor="start" x="287.5" y="-253.8" font-family="Arial" font-weight="bold" font-size="14.00"> ≥ 11.86</text>
<path fill="#f8766d" fill-opacity="0.376471" stroke="transparent" d="M267,-181C267,-181 357,-181 357,-181 363,-181 369,-187 369,-193 369,-193 369,-233 369,-233 369,-239 363,-245 357,-245 357,-245 267,-245 267,-245 261,-245 255,-239 255,-233 255,-233 255,-193 255,-193 255,-187 261,-181 267,-181"/>
<text text-anchor="start" x="256" y="-242.4" font-family="Arial" font-size="2.00"> </text>
<text text-anchor="start" x="256" y="-236.4" font-family="Arial" font-size="7.00"> &#160;5</text>
<text text-anchor="start" x="270" y="-219.8" font-family="Arial" font-weight="bold" font-size="14.00">Predict 13.44</text>
<text text-anchor="start" x="292" y="-202.8" font-family="Arial" font-weight="bold" font-size="14.00">n = 39</text>
<text text-anchor="start" x="310.5" y="-184.8" font-family="Arial" font-size="9.00"> </text>
<path fill="none" stroke="#333333" d="M267,-181C267,-181 357,-181 357,-181 363,-181 369,-187 369,-193 369,-193 369,-233 369,-233 369,-239 363,-245 357,-245 357,-245 267,-245 267,-245 261,-245 255,-239 255,-233 255,-233 255,-193 255,-193 255,-187 261,-181 267,-181"/>
<text text-anchor="start" x="310" y="-166.8" font-family="Arial" font-weight="bold" font-size="14.00"> </text>
</g>
<!-- 1&#45;&gt;5 -->
<g id="edge2" class="edge">
<title>1&#45;&gt;5</title>
<path fill="none" stroke="#888888" d="M260.85,-307.67C265.62,-298.94 270.56,-289.88 275.42,-280.99"/>
<polygon fill="#888888" stroke="#888888" points="278.51,-282.63 280.23,-272.18 272.37,-279.28 278.51,-282.63"/>
</g>
<!-- 3 -->
<g id="node4" class="node">
<title>3</title>
<text text-anchor="start" x="44" y="-99.8" font-family="Arial" font-weight="bold" font-size="14.00"> &lt; 9.175</text>
<path fill="#f8766d" fill-opacity="0.874510" stroke="transparent" d="M24,-27C24,-27 114,-27 114,-27 120,-27 126,-33 126,-39 126,-39 126,-79 126,-79 126,-85 120,-91 114,-91 114,-91 24,-91 24,-91 18,-91 12,-85 12,-79 12,-79 12,-39 12,-39 12,-33 18,-27 24,-27"/>
<text text-anchor="start" x="13" y="-88.4" font-family="Arial" font-size="2.00"> </text>
<text text-anchor="start" x="13" y="-82.4" font-family="Arial" font-size="7.00"> &#160;3</text>
<text text-anchor="start" x="27" y="-65.8" font-family="Arial" font-weight="bold" font-size="14.00">Predict 8.225</text>
<text text-anchor="start" x="49" y="-48.8" font-family="Arial" font-weight="bold" font-size="14.00">n = 48</text>
<text text-anchor="start" x="67.5" y="-30.8" font-family="Arial" font-size="9.00"> </text>
<path fill="none" stroke="#333333" d="M24,-27C24,-27 114,-27 114,-27 120,-27 126,-33 126,-39 126,-39 126,-79 126,-79 126,-85 120,-91 114,-91 114,-91 24,-91 24,-91 18,-91 12,-85 12,-79 12,-79 12,-39 12,-39 12,-33 18,-27 24,-27"/>
<text text-anchor="start" x="67" y="-12.8" font-family="Arial" font-weight="bold" font-size="14.00"> </text>
</g>
<!-- 2&#45;&gt;3 -->
<g id="edge3" class="edge">
<title>2&#45;&gt;3</title>
<path fill="none" stroke="#888888" d="M117.07,-153.67C112.63,-145.03 108.04,-136.07 103.52,-127.27"/>
<polygon fill="#888888" stroke="#888888" points="106.53,-125.48 98.85,-118.18 100.31,-128.67 106.53,-125.48"/>
</g>
<!-- 4 -->
<g id="node5" class="node">
<title>4</title>
<text text-anchor="start" x="200.5" y="-99.8" font-family="Arial" font-weight="bold" font-size="14.00"> ≥ 9.175</text>
<path fill="#f8766d" fill-opacity="0.623529" stroke="transparent" d="M180,-27C180,-27 270,-27 270,-27 276,-27 282,-33 282,-39 282,-39 282,-79 282,-79 282,-85 276,-91 270,-91 270,-91 180,-91 180,-91 174,-91 168,-85 168,-79 168,-79 168,-39 168,-39 168,-33 174,-27 180,-27"/>
<text text-anchor="start" x="169" y="-88.4" font-family="Arial" font-size="2.00"> </text>
<text text-anchor="start" x="169" y="-82.4" font-family="Arial" font-size="7.00"> &#160;4</text>
<text text-anchor="start" x="183" y="-65.8" font-family="Arial" font-weight="bold" font-size="14.00">Predict 10.85</text>
<text text-anchor="start" x="205" y="-48.8" font-family="Arial" font-weight="bold" font-size="14.00">n = 81</text>
<text text-anchor="start" x="223.5" y="-30.8" font-family="Arial" font-size="9.00"> </text>
<path fill="none" stroke="#333333" d="M180,-27C180,-27 270,-27 270,-27 276,-27 282,-33 282,-39 282,-39 282,-79 282,-79 282,-85 276,-91 270,-91 270,-91 180,-91 180,-91 174,-91 168,-85 168,-79 168,-79 168,-39 168,-39 168,-33 174,-27 180,-27"/>
<text text-anchor="start" x="223" y="-12.8" font-family="Arial" font-weight="bold" font-size="14.00"> </text>
</g>
<!-- 2&#45;&gt;4 -->
<g id="edge4" class="edge">
<title>2&#45;&gt;4</title>
<path fill="none" stroke="#888888" d="M176.93,-153.67C181.37,-145.03 185.96,-136.07 190.48,-127.27"/>
<polygon fill="#888888" stroke="#888888" points="193.69,-128.67 195.15,-118.18 187.47,-125.48 193.69,-128.67"/>
</g>
</g>
</svg>
