<?xml version="1.0" encoding="UTF-8" standalone="no"?>
<!DOCTYPE svg PUBLIC "-//W3C//DTD SVG 1.1//EN"
 "http://www.w3.org/Graphics/SVG/1.1/DTD/svg11.dtd">
<!-- Generated by graphviz version 2.50.0 (20211204.2007)
 -->
<!-- Pages: 1 -->
<svg width="783pt" height="588pt"
 viewBox="0.00 0.00 783.00 588.00" xmlns="http://www.w3.org/2000/svg" xmlns:xlink="http://www.w3.org/1999/xlink">
<g id="graph0" class="graph" transform="scale(1 1) rotate(0) translate(4 584)">
<polygon fill="white" stroke="transparent" points="-4,4 -4,-584 779,-584 779,4 -4,4"/>
<!-- 1 -->
<g id="node1" class="node">
<title>1</title>
<text text-anchor="start" x="306" y="-561.8" font-family="Arial" font-weight="bold" font-size="14.00"> </text>
<text text-anchor="start" x="244" y="-517.3" font-family="Arial" font-size="14.00"> &#160;</text>
<path fill="#ebebeb" stroke="transparent" d="M266,-489C266,-489 350,-489 350,-489 356,-489 362,-495 362,-501 362,-501 362,-541 362,-541 362,-547 356,-553 350,-553 350,-553 266,-553 266,-553 260,-553 254,-547 254,-541 254,-541 254,-501 254,-501 254,-495 260,-489 266,-489"/>
<text text-anchor="start" x="255" y="-550.4" font-family="Arial" font-size="2.00"> </text>
<text text-anchor="start" x="255" y="-544.4" font-family="Arial" font-size="7.00"> &#160;1</text>
<text text-anchor="start" x="269" y="-527.8" font-family="Arial" font-weight="bold" font-size="14.00">Mean: 29.03</text>
<text text-anchor="start" x="284.5" y="-510.8" font-family="Arial" font-weight="bold" font-size="14.00">n = 168</text>
<text text-anchor="start" x="306.5" y="-492.8" font-family="Arial" font-size="9.00"> </text>
<path fill="none" stroke="#333333" d="M266,-489C266,-489 350,-489 350,-489 356,-489 362,-495 362,-501 362,-501 362,-541 362,-541 362,-547 356,-553 350,-553 350,-553 266,-553 266,-553 260,-553 254,-547 254,-541 254,-541 254,-501 254,-501 254,-495 260,-489 266,-489"/>
<text text-anchor="start" x="364" y="-517.3" font-family="Arial" font-size="14.00"> &#160;</text>
<text text-anchor="start" x="258.5" y="-474.8" font-family="Arial" font-weight="bold" font-size="14.00">prev_24_inflow</text>
</g>
<!-- 2 -->
<g id="node2" class="node">
<title>2</title>
<text text-anchor="start" x="198" y="-407.8" font-family="Arial" font-weight="bold" font-size="14.00"> &lt; 26.73</text>
<text text-anchor="start" x="155" y="-363.3" font-family="Arial" font-size="14.00"> &#160;&#160;</text>
<path fill="#ebebeb" stroke="transparent" d="M181,-335C181,-335 265,-335 265,-335 271,-335 277,-341 277,-347 277,-347 277,-387 277,-387 277,-393 271,-399 265,-399 265,-399 181,-399 181,-399 175,-399 169,-393 169,-387 169,-387 169,-347 169,-347 169,-341 175,-335 181,-335"/>
<text text-anchor="start" x="170" y="-396.4" font-family="Arial" font-size="2.00"> </text>
<text text-anchor="start" x="170" y="-390.4" font-family="Arial" font-size="7.00"> &#160;2</text>
<text text-anchor="start" x="184" y="-373.8" font-family="Arial" font-weight="bold" font-size="14.00">Mean: 23.33</text>
<text text-anchor="start" x="203" y="-356.8" font-family="Arial" font-weight="bold" font-size="14.00">n = 53</text>
<text text-anchor="start" x="221.5" y="-338.8" font-family="Arial" font-size="9.00"> </text>
<path fill="none" stroke="#333333" d="M181,-335C181,-335 265,-335 265,-335 271,-335 277,-341 277,-347 277,-347 277,-387 277,-387 277,-393 271,-399 265,-399 265,-399 181,-399 181,-399 175,-399 169,-393 169,-387 169,-387 169,-347 169,-347 169,-341 175,-335 181,-335"/>
<text text-anchor="start" x="279" y="-363.3" font-family="Arial" font-size="14.00"> &#160;&#160;</text>
<text text-anchor="start" x="170" y="-320.8" font-family="Arial" font-weight="bold" font-size="14.00">prev_168_inflow</text>
</g>
<!-- 1&#45;&gt;2 -->
<g id="edge1" class="edge">
<title>1&#45;&gt;2</title>
<path fill="none" stroke="#888888" d="M275.38,-461.67C270.5,-452.94 265.43,-443.88 260.46,-434.99"/>
<polygon fill="#888888" stroke="#888888" points="263.47,-433.2 255.53,-426.18 257.36,-436.61 263.47,-433.2"/>
</g>
<!-- 5 -->
<g id="node3" class="node">
<title>5</title>
<text text-anchor="start" x="368.5" y="-407.8" font-family="Arial" font-weight="bold" font-size="14.00"> ≥ 26.73</text>
<text text-anchor="start" x="329" y="-363.3" font-family="Arial" font-size="14.00"> &#160;</text>
<path fill="#ebebeb" stroke="transparent" d="M351,-335C351,-335 435,-335 435,-335 441,-335 447,-341 447,-347 447,-347 447,-387 447,-387 447,-393 441,-399 435,-399 435,-399 351,-399 351,-399 345,-399 339,-393 339,-387 339,-387 339,-347 339,-347 339,-341 345,-335 351,-335"/>
<text text-anchor="start" x="340" y="-396.4" font-family="Arial" font-size="2.00"> </text>
<text text-anchor="start" x="340" y="-390.4" font-family="Arial" font-size="7.00"> &#160;5</text>
<text text-anchor="start" x="354" y="-373.8" font-family="Arial" font-weight="bold" font-size="14.00">Mean: 31.66</text>
<text text-anchor="start" x="370" y="-356.8" font-family="Arial" font-weight="bold" font-size="14.00">n = 115</text>
<text text-anchor="start" x="391.5" y="-338.8" font-family="Arial" font-size="9.00"> </text>
<path fill="none" stroke="#333333" d="M351,-335C351,-335 435,-335 435,-335 441,-335 447,-341 447,-347 447,-347 447,-387 447,-387 447,-393 441,-399 435,-399 435,-399 351,-399 351,-399 345,-399 339,-393 339,-387 339,-387 339,-347 339,-347 339,-341 345,-335 351,-335"/>
<text text-anchor="start" x="449" y="-363.3" font-family="Arial" font-size="14.00"> &#160;</text>
<text text-anchor="start" x="343.5" y="-320.8" font-family="Arial" font-weight="bold" font-size="14.00">prev_24_inflow</text>
</g>
<!-- 1&#45;&gt;5 -->
<g id="edge2" class="edge">
<title>1&#45;&gt;5</title>
<path fill="none" stroke="#888888" d="M340.62,-461.67C345.5,-452.94 350.57,-443.88 355.54,-434.99"/>
<polygon fill="#888888" stroke="#888888" points="358.64,-436.61 360.47,-426.18 352.53,-433.2 358.64,-436.61"/>
</g>
<!-- 3 -->
<g id="node4" class="node">
<title>3</title>
<text text-anchor="start" x="44" y="-253.8" font-family="Arial" font-weight="bold" font-size="14.00"> &lt; 23.17</text>
<path fill="#f8766d" fill-opacity="0.874510" stroke="transparent" d="M24,-181C24,-181 114,-181 114,-181 120,-181 126,-187 126,-193 126,-193 126,-233 126,-233 126,-239 120,-245 114,-245 114,-245 24,-245 24,-245 18,-245 12,-239 12,-233 12,-233 12,-193 12,-193 12,-187 18,-181 24,-181"/>
<text text-anchor="start" x="13" y="-242.4" font-family="Arial" font-size="2.00"> </text>
<text text-anchor="start" x="13" y="-236.4" font-family="Arial" font-size="7.00"> &#160;3</text>
<text text-anchor="start" x="27" y="-219.8" font-family="Arial" font-weight="bold" font-size="14.00">Predict 20.99</text>
<text text-anchor="start" x="49" y="-202.8" font-family="Arial" font-weight="bold" font-size="14.00">n = 29</text>
<text text-anchor="start" x="67.5" y="-184.8" font-family="Arial" font-size="9.00"> </text>
<path fill="none" stroke="#333333" d="M24,-181C24,-181 114,-181 114,-181 120,-181 126,-187 126,-193 126,-193 126,-233 126,-233 126,-239 120,-245 114,-245 114,-245 24,-245 24,-245 18,-245 12,-239 12,-233 12,-233 12,-193 12,-193 12,-187 18,-181 24,-181"/>
<text text-anchor="start" x="67" y="-166.8" font-family="Arial" font-weight="bold" font-size="14.00"> </text>
</g>
<!-- 2&#45;&gt;3 -->
<g id="edge3" class="edge">
<title>2&#45;&gt;3</title>
<path fill="none" stroke="#888888" d="M163.9,-307.67C154.5,-298.39 144.73,-288.75 135.19,-279.33"/>
<polygon fill="#888888" stroke="#888888" points="137.52,-276.71 127.94,-272.18 132.6,-281.69 137.52,-276.71"/>
</g>
<!-- 4 -->
<g id="node5" class="node">
<title>4</title>
<text text-anchor="start" x="200.5" y="-253.8" font-family="Arial" font-weight="bold" font-size="14.00"> ≥ 23.17</text>
<path fill="#f8766d" fill-opacity="0.709804" stroke="transparent" d="M180,-181C180,-181 270,-181 270,-181 276,-181 282,-187 282,-193 282,-193 282,-233 282,-233 282,-239 276,-245 270,-245 270,-245 180,-245 180,-245 174,-245 168,-239 168,-233 168,-233 168,-193 168,-193 168,-187 174,-181 180,-181"/>
<text text-anchor="start" x="169" y="-242.4" font-family="Arial" font-size="2.00"> </text>
<text text-anchor="start" x="169" y="-236.4" font-family="Arial" font-size="7.00"> &#160;4</text>
<text text-anchor="start" x="183" y="-219.8" font-family="Arial" font-weight="bold" font-size="14.00">Predict 26.15</text>
<text text-anchor="start" x="205" y="-202.8" font-family="Arial" font-weight="bold" font-size="14.00">n = 24</text>
<text text-anchor="start" x="223.5" y="-184.8" font-family="Arial" font-size="9.00"> </text>
<path fill="none" stroke="#333333" d="M180,-181C180,-181 270,-181 270,-181 276,-181 282,-187 282,-193 282,-193 282,-233 282,-233 282,-239 276,-245 270,-245 270,-245 180,-245 180,-245 174,-245 168,-239 168,-233 168,-233 168,-193 168,-193 168,-187 174,-181 180,-181"/>
<text text-anchor="start" x="223" y="-166.8" font-family="Arial" font-weight="bold" font-size="14.00"> </text>
</g>
<!-- 2&#45;&gt;4 -->
<g id="edge4" class="edge">
<title>2&#45;&gt;4</title>
<path fill="none" stroke="#888888" d="M223.77,-307.67C223.88,-299.39 223.99,-290.83 224.1,-282.38"/>
<polygon fill="#888888" stroke="#888888" points="227.6,-282.22 224.23,-272.18 220.6,-282.13 227.6,-282.22"/>
</g>
<!-- 6 -->
<g id="node6" class="node">
<title>6</title>
<text text-anchor="start" x="367" y="-253.8" font-family="Arial" font-weight="bold" font-size="14.00"> &lt; 32.53</text>
<text text-anchor="start" x="324" y="-209.3" font-family="Arial" font-size="14.00"> &#160;&#160;</text>
<path fill="#ebebeb" stroke="transparent" d="M350,-181C350,-181 434,-181 434,-181 440,-181 446,-187 446,-193 446,-193 446,-233 446,-233 446,-239 440,-245 434,-245 434,-245 350,-245 350,-245 344,-245 338,-239 338,-233 338,-233 338,-193 338,-193 338,-187 344,-181 350,-181"/>
<text text-anchor="start" x="339" y="-242.4" font-family="Arial" font-size="2.00"> </text>
<text text-anchor="start" x="339" y="-236.4" font-family="Arial" font-size="7.00"> &#160;6</text>
<text text-anchor="start" x="353" y="-219.8" font-family="Arial" font-weight="bold" font-size="14.00">Mean: 29.93</text>
<text text-anchor="start" x="372" y="-202.8" font-family="Arial" font-weight="bold" font-size="14.00">n = 77</text>
<text text-anchor="start" x="390.5" y="-184.8" font-family="Arial" font-size="9.00"> </text>
<path fill="none" stroke="#333333" d="M350,-181C350,-181 434,-181 434,-181 440,-181 446,-187 446,-193 446,-193 446,-233 446,-233 446,-239 440,-245 434,-245 434,-245 350,-245 350,-245 344,-245 338,-239 338,-233 338,-233 338,-193 338,-193 338,-187 344,-181 350,-181"/>
<text text-anchor="start" x="448" y="-209.3" font-family="Arial" font-size="14.00"> &#160;&#160;</text>
<text text-anchor="start" x="339" y="-166.8" font-family="Arial" font-weight="bold" font-size="14.00">prev_168_inflow</text>
</g>
<!-- 5&#45;&gt;6 -->
<g id="edge5" class="edge">
<title>5&#45;&gt;6</title>
<path fill="none" stroke="#888888" d="M392.62,-307.67C392.56,-299.39 392.51,-290.83 392.45,-282.38"/>
<polygon fill="#888888" stroke="#888888" points="395.95,-282.15 392.38,-272.18 388.95,-282.2 395.95,-282.15"/>
</g>
<!-- 9 -->
<g id="node7" class="node">
<title>9</title>
<text text-anchor="start" x="537.5" y="-253.8" font-family="Arial" font-weight="bold" font-size="14.00"> ≥ 32.53</text>
<text text-anchor="start" x="498" y="-209.3" font-family="Arial" font-size="14.00"> &#160;</text>
<path fill="#ebebeb" stroke="transparent" d="M520,-181C520,-181 604,-181 604,-181 610,-181 616,-187 616,-193 616,-193 616,-233 616,-233 616,-239 610,-245 604,-245 604,-245 520,-245 520,-245 514,-245 508,-239 508,-233 508,-233 508,-193 508,-193 508,-187 514,-181 520,-181"/>
<text text-anchor="start" x="509" y="-242.4" font-family="Arial" font-size="2.00"> </text>
<text text-anchor="start" x="509" y="-236.4" font-family="Arial" font-size="7.00"> &#160;9</text>
<text text-anchor="start" x="523" y="-219.8" font-family="Arial" font-weight="bold" font-size="14.00">Mean: 35.17</text>
<text text-anchor="start" x="542" y="-202.8" font-family="Arial" font-weight="bold" font-size="14.00">n = 38</text>
<text text-anchor="start" x="560.5" y="-184.8" font-family="Arial" font-size="9.00"> </text>
<path fill="none" stroke="#333333" d="M520,-181C520,-181 604,-181 604,-181 610,-181 616,-187 616,-193 616,-193 616,-233 616,-233 616,-239 610,-245 604,-245 604,-245 520,-245 520,-245 514,-245 508,-239 508,-233 508,-233 508,-193 508,-193 508,-187 514,-181 520,-181"/>
<text text-anchor="start" x="618" y="-209.3" font-family="Arial" font-size="14.00"> &#160;</text>
<text text-anchor="start" x="512.5" y="-166.8" font-family="Arial" font-weight="bold" font-size="14.00">prev_24_inflow</text>
</g>
<!-- 5&#45;&gt;9 -->
<g id="edge6" class="edge">
<title>5&#45;&gt;9</title>
<path fill="none" stroke="#888888" d="M457.86,-307.67C468.27,-298.3 479.1,-288.56 489.67,-279.05"/>
<polygon fill="#888888" stroke="#888888" points="492.22,-281.47 497.32,-272.18 487.54,-276.26 492.22,-281.47"/>
</g>
<!-- 7 -->
<g id="node8" class="node">
<title>7</title>
<text text-anchor="start" x="223.5" y="-99.8" font-family="Arial" font-weight="bold" font-size="14.00"> &lt; 29.36</text>
<path fill="#f8766d" fill-opacity="0.619608" stroke="transparent" d="M213,-27C213,-27 284,-27 284,-27 290,-27 296,-33 296,-39 296,-39 296,-79 296,-79 296,-85 290,-91 284,-91 284,-91 213,-91 213,-91 207,-91 201,-85 201,-79 201,-79 201,-39 201,-39 201,-33 207,-27 213,-27"/>
<text text-anchor="start" x="202" y="-88.4" font-family="Arial" font-size="2.00"> </text>
<text text-anchor="start" x="202" y="-82.4" font-family="Arial" font-size="7.00"> &#160;7</text>
<text text-anchor="start" x="216" y="-65.8" font-family="Arial" font-weight="bold" font-size="14.00">Predict 29</text>
<text text-anchor="start" x="228.5" y="-48.8" font-family="Arial" font-weight="bold" font-size="14.00">n = 52</text>
<text text-anchor="start" x="247" y="-30.8" font-family="Arial" font-size="9.00"> </text>
<path fill="none" stroke="#333333" d="M213,-27C213,-27 284,-27 284,-27 290,-27 296,-33 296,-39 296,-39 296,-79 296,-79 296,-85 290,-91 284,-91 284,-91 213,-91 213,-91 207,-91 201,-85 201,-79 201,-79 201,-39 201,-39 201,-33 207,-27 213,-27"/>
<text text-anchor="start" x="246.5" y="-12.8" font-family="Arial" font-weight="bold" font-size="14.00"> </text>
</g>
<!-- 6&#45;&gt;7 -->
<g id="edge7" class="edge">
<title>6&#45;&gt;7</title>
<path fill="none" stroke="#888888" d="M336.74,-153.67C328.04,-144.49 318.99,-134.94 310.15,-125.6"/>
<polygon fill="#888888" stroke="#888888" points="312.53,-123.03 303.11,-118.18 307.45,-127.84 312.53,-123.03"/>
</g>
<!-- 8 -->
<g id="node9" class="node">
<title>8</title>
<text text-anchor="start" x="370.5" y="-99.8" font-family="Arial" font-weight="bold" font-size="14.00"> ≥ 29.36</text>
<path fill="#f8766d" fill-opacity="0.529412" stroke="transparent" d="M350,-27C350,-27 440,-27 440,-27 446,-27 452,-33 452,-39 452,-39 452,-79 452,-79 452,-85 446,-91 440,-91 440,-91 350,-91 350,-91 344,-91 338,-85 338,-79 338,-79 338,-39 338,-39 338,-33 344,-27 350,-27"/>
<text text-anchor="start" x="339" y="-88.4" font-family="Arial" font-size="2.00"> </text>
<text text-anchor="start" x="339" y="-82.4" font-family="Arial" font-size="7.00"> &#160;8</text>
<text text-anchor="start" x="353" y="-65.8" font-family="Arial" font-weight="bold" font-size="14.00">Predict 31.86</text>
<text text-anchor="start" x="375" y="-48.8" font-family="Arial" font-weight="bold" font-size="14.00">n = 25</text>
<text text-anchor="start" x="393.5" y="-30.8" font-family="Arial" font-size="9.00"> </text>
<path fill="none" stroke="#333333" d="M350,-27C350,-27 440,-27 440,-27 446,-27 452,-33 452,-39 452,-39 452,-79 452,-79 452,-85 446,-91 440,-91 440,-91 350,-91 350,-91 344,-91 338,-85 338,-79 338,-79 338,-39 338,-39 338,-33 344,-27 350,-27"/>
<text text-anchor="start" x="393" y="-12.8" font-family="Arial" font-weight="bold" font-size="14.00"> </text>
</g>
<!-- 6&#45;&gt;8 -->
<g id="edge8" class="edge">
<title>6&#45;&gt;8</title>
<path fill="none" stroke="#888888" d="M393.15,-153.67C393.31,-145.39 393.48,-136.83 393.65,-128.38"/>
<polygon fill="#888888" stroke="#888888" points="397.15,-128.24 393.85,-118.18 390.16,-128.11 397.15,-128.24"/>
</g>
<!-- 10 -->
<g id="node10" class="node">
<title>10</title>
<text text-anchor="start" x="542.5" y="-99.8" font-family="Arial" font-weight="bold" font-size="14.00"> &lt; 35</text>
<path fill="#f8766d" fill-opacity="0.450980" stroke="transparent" d="M513,-27C513,-27 603,-27 603,-27 609,-27 615,-33 615,-39 615,-39 615,-79 615,-79 615,-85 609,-91 603,-91 603,-91 513,-91 513,-91 507,-91 501,-85 501,-79 501,-79 501,-39 501,-39 501,-33 507,-27 513,-27"/>
<text text-anchor="start" x="502" y="-88.4" font-family="Arial" font-size="2.00"> </text>
<text text-anchor="start" x="502" y="-82.4" font-family="Arial" font-size="7.00"> &#160;10</text>
<text text-anchor="start" x="516" y="-65.8" font-family="Arial" font-weight="bold" font-size="14.00">Predict 34.28</text>
<text text-anchor="start" x="538" y="-48.8" font-family="Arial" font-weight="bold" font-size="14.00">n = 24</text>
<text text-anchor="start" x="556.5" y="-30.8" font-family="Arial" font-size="9.00"> </text>
<path fill="none" stroke="#333333" d="M513,-27C513,-27 603,-27 603,-27 609,-27 615,-33 615,-39 615,-39 615,-79 615,-79 615,-85 609,-91 603,-91 603,-91 513,-91 513,-91 507,-91 501,-85 501,-79 501,-79 501,-39 501,-39 501,-33 507,-27 513,-27"/>
<text text-anchor="start" x="556" y="-12.8" font-family="Arial" font-weight="bold" font-size="14.00"> </text>
</g>
<!-- 9&#45;&gt;10 -->
<g id="edge9" class="edge">
<title>9&#45;&gt;10</title>
<path fill="none" stroke="#888888" d="M560.46,-153.67C560.25,-145.39 560.02,-136.83 559.8,-128.38"/>
<polygon fill="#888888" stroke="#888888" points="563.29,-128.08 559.53,-118.18 556.3,-128.27 563.29,-128.08"/>
</g>
<!-- 11 -->
<g id="node11" class="node">
<title>11</title>
<text text-anchor="start" x="694.5" y="-99.8" font-family="Arial" font-weight="bold" font-size="14.00"> ≥ 35</text>
<path fill="#f8766d" fill-opacity="0.376471" stroke="transparent" d="M669,-27C669,-27 751,-27 751,-27 757,-27 763,-33 763,-39 763,-39 763,-79 763,-79 763,-85 757,-91 751,-91 751,-91 669,-91 669,-91 663,-91 657,-85 657,-79 657,-79 657,-39 657,-39 657,-33 663,-27 669,-27"/>
<text text-anchor="start" x="658" y="-88.4" font-family="Arial" font-size="2.00"> </text>
<text text-anchor="start" x="658" y="-82.4" font-family="Arial" font-size="7.00"> &#160;11</text>
<text text-anchor="start" x="672" y="-65.8" font-family="Arial" font-weight="bold" font-size="14.00">Predict 36.7</text>
<text text-anchor="start" x="690" y="-48.8" font-family="Arial" font-weight="bold" font-size="14.00">n = 14</text>
<text text-anchor="start" x="708.5" y="-30.8" font-family="Arial" font-size="9.00"> </text>
<path fill="none" stroke="#333333" d="M669,-27C669,-27 751,-27 751,-27 757,-27 763,-33 763,-39 763,-39 763,-79 763,-79 763,-85 757,-91 751,-91 751,-91 669,-91 669,-91 663,-91 657,-85 657,-79 657,-79 657,-39 657,-39 657,-33 663,-27 669,-27"/>
<text text-anchor="start" x="708" y="-12.8" font-family="Arial" font-weight="bold" font-size="14.00"> </text>
</g>
<!-- 9&#45;&gt;11 -->
<g id="edge10" class="edge">
<title>9&#45;&gt;11</title>
<path fill="none" stroke="#888888" d="M618.8,-153.67C627.74,-144.49 637.03,-134.94 646.12,-125.6"/>
<polygon fill="#888888" stroke="#888888" points="648.89,-127.78 653.35,-118.18 643.87,-122.9 648.89,-127.78"/>
</g>
</g>
</svg>
