<?xml version="1.0" encoding="utf-8"?>
<svg xmlns="http://www.w3.org/2000/svg" xmlns:xlink="http://www.w3.org/1999/xlink" width="1000" height="400" viewBox="0 0 4000 1600">
<defs>
  <clipPath id="clip700">
    <rect x="0" y="0" width="4000" height="1600"/>
  </clipPath>
</defs>
<path clip-path="url(#clip700)" d="M0 1600 L4000 1600 L4000 0 L0 0  Z" fill="#ffffff" fill-rule="evenodd" fill-opacity="1"/>
<defs>
  <clipPath id="clip701">
    <rect x="800" y="0" width="2801" height="1600"/>
  </clipPath>
</defs>
<path clip-path="url(#clip700)" d="M206.379 1497.68 L3180.58 1497.68 L3180.58 47.2441 L206.379 47.2441  Z" fill="#ffffff" fill-rule="evenodd" fill-opacity="1"/>
<defs>
  <clipPath id="clip702">
    <rect x="206" y="47" width="2975" height="1451"/>
  </clipPath>
</defs>
<polyline clip-path="url(#clip702)" style="stroke:#000000; stroke-linecap:round; stroke-linejoin:round; stroke-width:2; stroke-opacity:0.1; fill:none" points="290.554,1497.68 290.554,47.2441 "/>
<polyline clip-path="url(#clip702)" style="stroke:#000000; stroke-linecap:round; stroke-linejoin:round; stroke-width:2; stroke-opacity:0.1; fill:none" points="1097.03,1497.68 1097.03,47.2441 "/>
<polyline clip-path="url(#clip702)" style="stroke:#000000; stroke-linecap:round; stroke-linejoin:round; stroke-width:2; stroke-opacity:0.1; fill:none" points="1903.5,1497.68 1903.5,47.2441 "/>
<polyline clip-path="url(#clip702)" style="stroke:#000000; stroke-linecap:round; stroke-linejoin:round; stroke-width:2; stroke-opacity:0.1; fill:none" points="2709.97,1497.68 2709.97,47.2441 "/>
<polyline clip-path="url(#clip700)" style="stroke:#000000; stroke-linecap:round; stroke-linejoin:round; stroke-width:4; stroke-opacity:1; fill:none" points="206.379,1497.68 3180.58,1497.68 "/>
<polyline clip-path="url(#clip700)" style="stroke:#000000; stroke-linecap:round; stroke-linejoin:round; stroke-width:4; stroke-opacity:1; fill:none" points="290.554,1497.68 290.554,1478.78 "/>
<polyline clip-path="url(#clip700)" style="stroke:#000000; stroke-linecap:round; stroke-linejoin:round; stroke-width:4; stroke-opacity:1; fill:none" points="1097.03,1497.68 1097.03,1478.78 "/>
<polyline clip-path="url(#clip700)" style="stroke:#000000; stroke-linecap:round; stroke-linejoin:round; stroke-width:4; stroke-opacity:1; fill:none" points="1903.5,1497.68 1903.5,1478.78 "/>
<polyline clip-path="url(#clip700)" style="stroke:#000000; stroke-linecap:round; stroke-linejoin:round; stroke-width:4; stroke-opacity:1; fill:none" points="2709.97,1497.68 2709.97,1478.78 "/>
<path clip-path="url(#clip700)" d="M145.685 1573.85 L164.044 1573.85 L164.044 1578.28 L139.357 1578.28 L139.357 1573.85 Q142.352 1570.75 147.508 1565.55 Q152.69 1560.31 154.018 1558.8 Q156.545 1555.96 157.534 1554.01 Q158.55 1552.03 158.55 1550.13 Q158.55 1547.03 156.362 1545.08 Q154.201 1543.12 150.711 1543.12 Q148.237 1543.12 145.477 1543.98 Q142.742 1544.84 139.618 1546.59 L139.618 1541.27 Q142.795 1540 145.555 1539.35 Q148.315 1538.7 150.607 1538.7 Q156.649 1538.7 160.242 1541.72 Q163.836 1544.74 163.836 1549.79 Q163.836 1552.19 162.925 1554.35 Q162.039 1556.48 159.669 1559.4 Q159.018 1560.15 155.529 1563.77 Q152.039 1567.37 145.685 1573.85 Z" fill="#000000" fill-rule="nonzero" fill-opacity="1" /><path clip-path="url(#clip700)" d="M186.336 1542.86 Q182.274 1542.86 180.216 1546.87 Q178.185 1550.86 178.185 1558.88 Q178.185 1566.87 180.216 1570.88 Q182.274 1574.87 186.336 1574.87 Q190.425 1574.87 192.456 1570.88 Q194.513 1566.87 194.513 1558.88 Q194.513 1550.86 192.456 1546.87 Q190.425 1542.86 186.336 1542.86 M186.336 1538.7 Q192.872 1538.7 196.31 1543.88 Q199.773 1549.04 199.773 1558.88 Q199.773 1568.7 196.31 1573.88 Q192.872 1579.04 186.336 1579.04 Q179.8 1579.04 176.336 1573.88 Q172.899 1568.7 172.899 1558.88 Q172.899 1549.04 176.336 1543.88 Q179.8 1538.7 186.336 1538.7 Z" fill="#000000" fill-rule="nonzero" fill-opacity="1" /><path clip-path="url(#clip700)" d="M213.549 1573.85 L231.909 1573.85 L231.909 1578.28 L207.221 1578.28 L207.221 1573.85 Q210.216 1570.75 215.372 1565.55 Q220.555 1560.31 221.883 1558.8 Q224.409 1555.96 225.398 1554.01 Q226.414 1552.03 226.414 1550.13 Q226.414 1547.03 224.226 1545.08 Q222.065 1543.12 218.575 1543.12 Q216.101 1543.12 213.341 1543.98 Q210.607 1544.84 207.482 1546.59 L207.482 1541.27 Q210.659 1540 213.419 1539.35 Q216.18 1538.7 218.471 1538.7 Q224.513 1538.7 228.107 1541.72 Q231.7 1544.74 231.7 1549.79 Q231.7 1552.19 230.789 1554.35 Q229.903 1556.48 227.534 1559.4 Q226.883 1560.15 223.393 1563.77 Q219.904 1567.37 213.549 1573.85 Z" fill="#000000" fill-rule="nonzero" fill-opacity="1" /><path clip-path="url(#clip700)" d="M247.482 1573.85 L265.841 1573.85 L265.841 1578.28 L241.153 1578.28 L241.153 1573.85 Q244.148 1570.75 249.304 1565.55 Q254.487 1560.31 255.815 1558.8 Q258.341 1555.96 259.33 1554.01 Q260.346 1552.03 260.346 1550.13 Q260.346 1547.03 258.159 1545.08 Q255.997 1543.12 252.508 1543.12 Q250.034 1543.12 247.273 1543.98 Q244.539 1544.84 241.414 1546.59 L241.414 1541.27 Q244.591 1540 247.351 1539.35 Q250.112 1538.7 252.403 1538.7 Q258.445 1538.7 262.039 1541.72 Q265.632 1544.74 265.632 1549.79 Q265.632 1552.19 264.721 1554.35 Q263.836 1556.48 261.466 1559.4 Q260.815 1560.15 257.325 1563.77 Q253.836 1567.37 247.482 1573.85 Z" fill="#000000" fill-rule="nonzero" fill-opacity="1" /><path clip-path="url(#clip700)" d="M273.783 1561.54 L287.82 1561.54 L287.82 1565.81 L273.783 1565.81 L273.783 1561.54 Z" fill="#000000" fill-rule="nonzero" fill-opacity="1" /><path clip-path="url(#clip700)" d="M307.377 1542.86 Q303.315 1542.86 301.257 1546.87 Q299.226 1550.86 299.226 1558.88 Q299.226 1566.87 301.257 1570.88 Q303.315 1574.87 307.377 1574.87 Q311.466 1574.87 313.497 1570.88 Q315.554 1566.87 315.554 1558.88 Q315.554 1550.86 313.497 1546.87 Q311.466 1542.86 307.377 1542.86 M307.377 1538.7 Q313.913 1538.7 317.351 1543.88 Q320.814 1549.04 320.814 1558.88 Q320.814 1568.7 317.351 1573.88 Q313.913 1579.04 307.377 1579.04 Q300.841 1579.04 297.377 1573.88 Q293.94 1568.7 293.94 1558.88 Q293.94 1549.04 297.377 1543.88 Q300.841 1538.7 307.377 1538.7 Z" fill="#000000" fill-rule="nonzero" fill-opacity="1" /><path clip-path="url(#clip700)" d="M328.731 1539.4 L353.731 1539.4 L353.731 1541.64 L339.616 1578.28 L334.122 1578.28 L347.403 1543.83 L328.731 1543.83 L328.731 1539.4 Z" fill="#000000" fill-rule="nonzero" fill-opacity="1" /><path clip-path="url(#clip700)" d="M360.892 1561.54 L374.929 1561.54 L374.929 1565.81 L360.892 1565.81 L360.892 1561.54 Z" fill="#000000" fill-rule="nonzero" fill-opacity="1" /><path clip-path="url(#clip700)" d="M384.147 1573.85 L392.741 1573.85 L392.741 1544.19 L383.392 1546.07 L383.392 1541.27 L392.689 1539.4 L397.949 1539.4 L397.949 1573.85 L406.543 1573.85 L406.543 1578.28 L384.147 1578.28 L384.147 1573.85 Z" fill="#000000" fill-rule="nonzero" fill-opacity="1" /><path clip-path="url(#clip700)" d="M428.418 1559.82 Q424.668 1559.82 422.507 1561.82 Q420.371 1563.83 420.371 1567.34 Q420.371 1570.86 422.507 1572.86 Q424.668 1574.87 428.418 1574.87 Q432.168 1574.87 434.329 1572.86 Q436.491 1570.83 436.491 1567.34 Q436.491 1563.83 434.329 1561.82 Q432.194 1559.82 428.418 1559.82 M423.158 1557.58 Q419.772 1556.74 417.871 1554.43 Q415.996 1552.11 415.996 1548.77 Q415.996 1544.11 419.304 1541.41 Q422.637 1538.7 428.418 1538.7 Q434.225 1538.7 437.533 1541.41 Q440.84 1544.11 440.84 1548.77 Q440.84 1552.11 438.939 1554.43 Q437.064 1556.74 433.704 1557.58 Q437.507 1558.46 439.616 1561.04 Q441.751 1563.62 441.751 1567.34 Q441.751 1572.99 438.288 1576.01 Q434.85 1579.04 428.418 1579.04 Q421.986 1579.04 418.522 1576.01 Q415.085 1572.99 415.085 1567.34 Q415.085 1563.62 417.22 1561.04 Q419.356 1558.46 423.158 1557.58 M421.231 1549.27 Q421.231 1552.29 423.106 1553.98 Q425.007 1555.68 428.418 1555.68 Q431.803 1555.68 433.704 1553.98 Q435.632 1552.29 435.632 1549.27 Q435.632 1546.25 433.704 1544.56 Q431.803 1542.86 428.418 1542.86 Q425.007 1542.86 423.106 1544.56 Q421.231 1546.25 421.231 1549.27 Z" fill="#000000" fill-rule="nonzero" fill-opacity="1" /><path clip-path="url(#clip700)" d="M952.106 1573.85 L970.465 1573.85 L970.465 1578.28 L945.778 1578.28 L945.778 1573.85 Q948.773 1570.75 953.929 1565.55 Q959.111 1560.31 960.439 1558.8 Q962.966 1555.96 963.955 1554.01 Q964.971 1552.03 964.971 1550.13 Q964.971 1547.03 962.783 1545.08 Q960.622 1543.12 957.132 1543.12 Q954.658 1543.12 951.898 1543.98 Q949.164 1544.84 946.039 1546.59 L946.039 1541.27 Q949.216 1540 951.976 1539.35 Q954.736 1538.7 957.028 1538.7 Q963.07 1538.7 966.663 1541.72 Q970.257 1544.74 970.257 1549.79 Q970.257 1552.19 969.346 1554.35 Q968.46 1556.48 966.091 1559.4 Q965.439 1560.15 961.95 1563.77 Q958.46 1567.37 952.106 1573.85 Z" fill="#000000" fill-rule="nonzero" fill-opacity="1" /><path clip-path="url(#clip700)" d="M992.757 1542.86 Q988.695 1542.86 986.637 1546.87 Q984.606 1550.86 984.606 1558.88 Q984.606 1566.87 986.637 1570.88 Q988.695 1574.87 992.757 1574.87 Q996.846 1574.87 998.877 1570.88 Q1000.93 1566.87 1000.93 1558.88 Q1000.93 1550.86 998.877 1546.87 Q996.846 1542.86 992.757 1542.86 M992.757 1538.7 Q999.293 1538.7 1002.73 1543.88 Q1006.19 1549.04 1006.19 1558.88 Q1006.19 1568.7 1002.73 1573.88 Q999.293 1579.04 992.757 1579.04 Q986.221 1579.04 982.757 1573.88 Q979.32 1568.7 979.32 1558.88 Q979.32 1549.04 982.757 1543.88 Q986.221 1538.7 992.757 1538.7 Z" fill="#000000" fill-rule="nonzero" fill-opacity="1" /><path clip-path="url(#clip700)" d="M1019.97 1573.85 L1038.33 1573.85 L1038.33 1578.28 L1013.64 1578.28 L1013.64 1573.85 Q1016.64 1570.75 1021.79 1565.55 Q1026.98 1560.31 1028.3 1558.8 Q1030.83 1555.96 1031.82 1554.01 Q1032.83 1552.03 1032.83 1550.13 Q1032.83 1547.03 1030.65 1545.08 Q1028.49 1543.12 1025 1543.12 Q1022.52 1543.12 1019.76 1543.98 Q1017.03 1544.84 1013.9 1546.59 L1013.9 1541.27 Q1017.08 1540 1019.84 1539.35 Q1022.6 1538.7 1024.89 1538.7 Q1030.93 1538.7 1034.53 1541.72 Q1038.12 1544.74 1038.12 1549.79 Q1038.12 1552.19 1037.21 1554.35 Q1036.32 1556.48 1033.95 1559.4 Q1033.3 1560.15 1029.81 1563.77 Q1026.32 1567.37 1019.97 1573.85 Z" fill="#000000" fill-rule="nonzero" fill-opacity="1" /><path clip-path="url(#clip700)" d="M1053.9 1573.85 L1072.26 1573.85 L1072.26 1578.28 L1047.57 1578.28 L1047.57 1573.85 Q1050.57 1570.75 1055.73 1565.55 Q1060.91 1560.31 1062.24 1558.8 Q1064.76 1555.96 1065.75 1554.01 Q1066.77 1552.03 1066.77 1550.13 Q1066.77 1547.03 1064.58 1545.08 Q1062.42 1543.12 1058.93 1543.12 Q1056.45 1543.12 1053.69 1543.98 Q1050.96 1544.84 1047.83 1546.59 L1047.83 1541.27 Q1051.01 1540 1053.77 1539.35 Q1056.53 1538.7 1058.82 1538.7 Q1064.87 1538.7 1068.46 1541.72 Q1072.05 1544.74 1072.05 1549.79 Q1072.05 1552.19 1071.14 1554.35 Q1070.26 1556.48 1067.89 1559.4 Q1067.24 1560.15 1063.75 1563.77 Q1060.26 1567.37 1053.9 1573.85 Z" fill="#000000" fill-rule="nonzero" fill-opacity="1" /><path clip-path="url(#clip700)" d="M1080.2 1561.54 L1094.24 1561.54 L1094.24 1565.81 L1080.2 1565.81 L1080.2 1561.54 Z" fill="#000000" fill-rule="nonzero" fill-opacity="1" /><path clip-path="url(#clip700)" d="M1113.8 1542.86 Q1109.74 1542.86 1107.68 1546.87 Q1105.65 1550.86 1105.65 1558.88 Q1105.65 1566.87 1107.68 1570.88 Q1109.74 1574.87 1113.8 1574.87 Q1117.89 1574.87 1119.92 1570.88 Q1121.98 1566.87 1121.98 1558.88 Q1121.98 1550.86 1119.92 1546.87 Q1117.89 1542.86 1113.8 1542.86 M1113.8 1538.7 Q1120.33 1538.7 1123.77 1543.88 Q1127.24 1549.04 1127.24 1558.88 Q1127.24 1568.7 1123.77 1573.88 Q1120.33 1579.04 1113.8 1579.04 Q1107.26 1579.04 1103.8 1573.88 Q1100.36 1568.7 1100.36 1558.88 Q1100.36 1549.04 1103.8 1543.88 Q1107.26 1538.7 1113.8 1538.7 Z" fill="#000000" fill-rule="nonzero" fill-opacity="1" /><path clip-path="url(#clip700)" d="M1135.15 1539.4 L1160.15 1539.4 L1160.15 1541.64 L1146.04 1578.28 L1140.54 1578.28 L1153.82 1543.83 L1135.15 1543.83 L1135.15 1539.4 Z" fill="#000000" fill-rule="nonzero" fill-opacity="1" /><path clip-path="url(#clip700)" d="M1167.31 1561.54 L1181.35 1561.54 L1181.35 1565.81 L1167.31 1565.81 L1167.31 1561.54 Z" fill="#000000" fill-rule="nonzero" fill-opacity="1" /><path clip-path="url(#clip700)" d="M1194.19 1573.85 L1212.55 1573.85 L1212.55 1578.28 L1187.86 1578.28 L1187.86 1573.85 Q1190.85 1570.75 1196.01 1565.55 Q1201.19 1560.31 1202.52 1558.8 Q1205.05 1555.96 1206.04 1554.01 Q1207.05 1552.03 1207.05 1550.13 Q1207.05 1547.03 1204.87 1545.08 Q1202.7 1543.12 1199.21 1543.12 Q1196.74 1543.12 1193.98 1543.98 Q1191.25 1544.84 1188.12 1546.59 L1188.12 1541.27 Q1191.3 1540 1194.06 1539.35 Q1196.82 1538.7 1199.11 1538.7 Q1205.15 1538.7 1208.75 1541.72 Q1212.34 1544.74 1212.34 1549.79 Q1212.34 1552.19 1211.43 1554.35 Q1210.54 1556.48 1208.17 1559.4 Q1207.52 1560.15 1204.03 1563.77 Q1200.54 1567.37 1194.19 1573.85 Z" fill="#000000" fill-rule="nonzero" fill-opacity="1" /><path clip-path="url(#clip700)" d="M1234.84 1542.86 Q1230.78 1542.86 1228.72 1546.87 Q1226.69 1550.86 1226.69 1558.88 Q1226.69 1566.87 1228.72 1570.88 Q1230.78 1574.87 1234.84 1574.87 Q1238.93 1574.87 1240.96 1570.88 Q1243.02 1566.87 1243.02 1558.88 Q1243.02 1550.86 1240.96 1546.87 Q1238.93 1542.86 1234.84 1542.86 M1234.84 1538.7 Q1241.38 1538.7 1244.81 1543.88 Q1248.28 1549.04 1248.28 1558.88 Q1248.28 1568.7 1244.81 1573.88 Q1241.38 1579.04 1234.84 1579.04 Q1228.3 1579.04 1224.84 1573.88 Q1221.4 1568.7 1221.4 1558.88 Q1221.4 1549.04 1224.84 1543.88 Q1228.3 1538.7 1234.84 1538.7 Z" fill="#000000" fill-rule="nonzero" fill-opacity="1" /><path clip-path="url(#clip700)" d="M1759.48 1573.85 L1777.84 1573.85 L1777.84 1578.28 L1753.15 1578.28 L1753.15 1573.85 Q1756.14 1570.75 1761.3 1565.55 Q1766.48 1560.31 1767.81 1558.8 Q1770.34 1555.96 1771.33 1554.01 Q1772.34 1552.03 1772.34 1550.13 Q1772.34 1547.03 1770.15 1545.08 Q1767.99 1543.12 1764.5 1543.12 Q1762.03 1543.12 1759.27 1543.98 Q1756.54 1544.84 1753.41 1546.59 L1753.41 1541.27 Q1756.59 1540 1759.35 1539.35 Q1762.11 1538.7 1764.4 1538.7 Q1770.44 1538.7 1774.03 1541.72 Q1777.63 1544.74 1777.63 1549.79 Q1777.63 1552.19 1776.72 1554.35 Q1775.83 1556.48 1773.46 1559.4 Q1772.81 1560.15 1769.32 1563.77 Q1765.83 1567.37 1759.48 1573.85 Z" fill="#000000" fill-rule="nonzero" fill-opacity="1" /><path clip-path="url(#clip700)" d="M1800.13 1542.86 Q1796.07 1542.86 1794.01 1546.87 Q1791.98 1550.86 1791.98 1558.88 Q1791.98 1566.87 1794.01 1570.88 Q1796.07 1574.87 1800.13 1574.87 Q1804.22 1574.87 1806.25 1570.88 Q1808.31 1566.87 1808.31 1558.88 Q1808.31 1550.86 1806.25 1546.87 Q1804.22 1542.86 1800.13 1542.86 M1800.13 1538.7 Q1806.66 1538.7 1810.1 1543.88 Q1813.57 1549.04 1813.57 1558.88 Q1813.57 1568.7 1810.1 1573.88 Q1806.66 1579.04 1800.13 1579.04 Q1793.59 1579.04 1790.13 1573.88 Q1786.69 1568.7 1786.69 1558.88 Q1786.69 1549.04 1790.13 1543.88 Q1793.59 1538.7 1800.13 1538.7 Z" fill="#000000" fill-rule="nonzero" fill-opacity="1" /><path clip-path="url(#clip700)" d="M1827.34 1573.85 L1845.7 1573.85 L1845.7 1578.28 L1821.01 1578.28 L1821.01 1573.85 Q1824.01 1570.75 1829.16 1565.55 Q1834.35 1560.31 1835.68 1558.8 Q1838.2 1555.96 1839.19 1554.01 Q1840.21 1552.03 1840.21 1550.13 Q1840.21 1547.03 1838.02 1545.08 Q1835.86 1543.12 1832.37 1543.12 Q1829.89 1543.12 1827.13 1543.98 Q1824.4 1544.84 1821.27 1546.59 L1821.27 1541.27 Q1824.45 1540 1827.21 1539.35 Q1829.97 1538.7 1832.26 1538.7 Q1838.31 1538.7 1841.9 1541.72 Q1845.49 1544.74 1845.49 1549.79 Q1845.49 1552.19 1844.58 1554.35 Q1843.7 1556.48 1841.33 1559.4 Q1840.68 1560.15 1837.19 1563.77 Q1833.7 1567.37 1827.34 1573.85 Z" fill="#000000" fill-rule="nonzero" fill-opacity="1" /><path clip-path="url(#clip700)" d="M1861.27 1573.85 L1879.63 1573.85 L1879.63 1578.28 L1854.95 1578.28 L1854.95 1573.85 Q1857.94 1570.75 1863.1 1565.55 Q1868.28 1560.31 1869.61 1558.8 Q1872.13 1555.96 1873.12 1554.01 Q1874.14 1552.03 1874.14 1550.13 Q1874.14 1547.03 1871.95 1545.08 Q1869.79 1543.12 1866.3 1543.12 Q1863.83 1543.12 1861.07 1543.98 Q1858.33 1544.84 1855.21 1546.59 L1855.21 1541.27 Q1858.38 1540 1861.14 1539.35 Q1863.9 1538.7 1866.2 1538.7 Q1872.24 1538.7 1875.83 1541.72 Q1879.43 1544.74 1879.43 1549.79 Q1879.43 1552.19 1878.51 1554.35 Q1877.63 1556.48 1875.26 1559.4 Q1874.61 1560.15 1871.12 1563.77 Q1867.63 1567.37 1861.27 1573.85 Z" fill="#000000" fill-rule="nonzero" fill-opacity="1" /><path clip-path="url(#clip700)" d="M1887.58 1561.54 L1901.61 1561.54 L1901.61 1565.81 L1887.58 1565.81 L1887.58 1561.54 Z" fill="#000000" fill-rule="nonzero" fill-opacity="1" /><path clip-path="url(#clip700)" d="M1921.17 1542.86 Q1917.11 1542.86 1915.05 1546.87 Q1913.02 1550.86 1913.02 1558.88 Q1913.02 1566.87 1915.05 1570.88 Q1917.11 1574.87 1921.17 1574.87 Q1925.26 1574.87 1927.29 1570.88 Q1929.35 1566.87 1929.35 1558.88 Q1929.35 1550.86 1927.29 1546.87 Q1925.26 1542.86 1921.17 1542.86 M1921.17 1538.7 Q1927.71 1538.7 1931.14 1543.88 Q1934.61 1549.04 1934.61 1558.88 Q1934.61 1568.7 1931.14 1573.88 Q1927.71 1579.04 1921.17 1579.04 Q1914.63 1579.04 1911.17 1573.88 Q1907.73 1568.7 1907.73 1558.88 Q1907.73 1549.04 1911.17 1543.88 Q1914.63 1538.7 1921.17 1538.7 Z" fill="#000000" fill-rule="nonzero" fill-opacity="1" /><path clip-path="url(#clip700)" d="M1942.52 1539.4 L1967.52 1539.4 L1967.52 1541.64 L1953.41 1578.28 L1947.91 1578.28 L1961.2 1543.83 L1942.52 1543.83 L1942.52 1539.4 Z" fill="#000000" fill-rule="nonzero" fill-opacity="1" /><path clip-path="url(#clip700)" d="M1974.68 1561.54 L1988.72 1561.54 L1988.72 1565.81 L1974.68 1565.81 L1974.68 1561.54 Z" fill="#000000" fill-rule="nonzero" fill-opacity="1" /><path clip-path="url(#clip700)" d="M2001.56 1573.85 L2019.92 1573.85 L2019.92 1578.28 L1995.23 1578.28 L1995.23 1573.85 Q1998.23 1570.75 2003.38 1565.55 Q2008.56 1560.31 2009.89 1558.8 Q2012.42 1555.96 2013.41 1554.01 Q2014.42 1552.03 2014.42 1550.13 Q2014.42 1547.03 2012.24 1545.08 Q2010.08 1543.12 2006.59 1543.12 Q2004.11 1543.12 2001.35 1543.98 Q1998.62 1544.84 1995.49 1546.59 L1995.49 1541.27 Q1998.67 1540 2001.43 1539.35 Q2004.19 1538.7 2006.48 1538.7 Q2012.52 1538.7 2016.12 1541.72 Q2019.71 1544.74 2019.71 1549.79 Q2019.71 1552.19 2018.8 1554.35 Q2017.91 1556.48 2015.54 1559.4 Q2014.89 1560.15 2011.4 1563.77 Q2007.91 1567.37 2001.56 1573.85 Z" fill="#000000" fill-rule="nonzero" fill-opacity="1" /><path clip-path="url(#clip700)" d="M2035.49 1573.85 L2053.85 1573.85 L2053.85 1578.28 L2029.16 1578.28 L2029.16 1573.85 Q2032.16 1570.75 2037.31 1565.55 Q2042.5 1560.31 2043.83 1558.8 Q2046.35 1555.96 2047.34 1554.01 Q2048.36 1552.03 2048.36 1550.13 Q2048.36 1547.03 2046.17 1545.08 Q2044.01 1543.12 2040.52 1543.12 Q2038.04 1543.12 2035.28 1543.98 Q2032.55 1544.84 2029.42 1546.59 L2029.42 1541.27 Q2032.6 1540 2035.36 1539.35 Q2038.12 1538.7 2040.41 1538.7 Q2046.46 1538.7 2050.05 1541.72 Q2053.64 1544.74 2053.64 1549.79 Q2053.64 1552.19 2052.73 1554.35 Q2051.85 1556.48 2049.48 1559.4 Q2048.83 1560.15 2045.34 1563.77 Q2041.85 1567.37 2035.49 1573.85 Z" fill="#000000" fill-rule="nonzero" fill-opacity="1" /><path clip-path="url(#clip700)" d="M2564.78 1573.85 L2583.14 1573.85 L2583.14 1578.28 L2558.45 1578.28 L2558.45 1573.85 Q2561.45 1570.75 2566.6 1565.55 Q2571.78 1560.31 2573.11 1558.8 Q2575.64 1555.96 2576.63 1554.01 Q2577.64 1552.03 2577.64 1550.13 Q2577.64 1547.03 2575.46 1545.08 Q2573.29 1543.12 2569.8 1543.12 Q2567.33 1543.12 2564.57 1543.98 Q2561.84 1544.84 2558.71 1546.59 L2558.71 1541.27 Q2561.89 1540 2564.65 1539.35 Q2567.41 1538.7 2569.7 1538.7 Q2575.74 1538.7 2579.34 1541.72 Q2582.93 1544.74 2582.93 1549.79 Q2582.93 1552.19 2582.02 1554.35 Q2581.13 1556.48 2578.76 1559.4 Q2578.11 1560.15 2574.62 1563.77 Q2571.13 1567.37 2564.78 1573.85 Z" fill="#000000" fill-rule="nonzero" fill-opacity="1" /><path clip-path="url(#clip700)" d="M2605.43 1542.86 Q2601.37 1542.86 2599.31 1546.87 Q2597.28 1550.86 2597.28 1558.88 Q2597.28 1566.87 2599.31 1570.88 Q2601.37 1574.87 2605.43 1574.87 Q2609.52 1574.87 2611.55 1570.88 Q2613.61 1566.87 2613.61 1558.88 Q2613.61 1550.86 2611.55 1546.87 Q2609.52 1542.86 2605.43 1542.86 M2605.43 1538.7 Q2611.97 1538.7 2615.4 1543.88 Q2618.87 1549.04 2618.87 1558.88 Q2618.87 1568.7 2615.4 1573.88 Q2611.97 1579.04 2605.43 1579.04 Q2598.89 1579.04 2595.43 1573.88 Q2591.99 1568.7 2591.99 1558.88 Q2591.99 1549.04 2595.43 1543.88 Q2598.89 1538.7 2605.43 1538.7 Z" fill="#000000" fill-rule="nonzero" fill-opacity="1" /><path clip-path="url(#clip700)" d="M2632.64 1573.85 L2651 1573.85 L2651 1578.28 L2626.32 1578.28 L2626.32 1573.85 Q2629.31 1570.75 2634.47 1565.55 Q2639.65 1560.31 2640.98 1558.8 Q2643.5 1555.96 2644.49 1554.01 Q2645.51 1552.03 2645.51 1550.13 Q2645.51 1547.03 2643.32 1545.08 Q2641.16 1543.12 2637.67 1543.12 Q2635.2 1543.12 2632.43 1543.98 Q2629.7 1544.84 2626.58 1546.59 L2626.58 1541.27 Q2629.75 1540 2632.51 1539.35 Q2635.27 1538.7 2637.57 1538.7 Q2643.61 1538.7 2647.2 1541.72 Q2650.79 1544.74 2650.79 1549.79 Q2650.79 1552.19 2649.88 1554.35 Q2649 1556.48 2646.63 1559.4 Q2645.98 1560.15 2642.49 1563.77 Q2639 1567.37 2632.64 1573.85 Z" fill="#000000" fill-rule="nonzero" fill-opacity="1" /><path clip-path="url(#clip700)" d="M2666.58 1573.85 L2684.93 1573.85 L2684.93 1578.28 L2660.25 1578.28 L2660.25 1573.85 Q2663.24 1570.75 2668.4 1565.55 Q2673.58 1560.31 2674.91 1558.8 Q2677.43 1555.96 2678.42 1554.01 Q2679.44 1552.03 2679.44 1550.13 Q2679.44 1547.03 2677.25 1545.08 Q2675.09 1543.12 2671.6 1543.12 Q2669.13 1543.12 2666.37 1543.98 Q2663.63 1544.84 2660.51 1546.59 L2660.51 1541.27 Q2663.68 1540 2666.45 1539.35 Q2669.21 1538.7 2671.5 1538.7 Q2677.54 1538.7 2681.13 1541.72 Q2684.73 1544.74 2684.73 1549.79 Q2684.73 1552.19 2683.81 1554.35 Q2682.93 1556.48 2680.56 1559.4 Q2679.91 1560.15 2676.42 1563.77 Q2672.93 1567.37 2666.58 1573.85 Z" fill="#000000" fill-rule="nonzero" fill-opacity="1" /><path clip-path="url(#clip700)" d="M2692.88 1561.54 L2706.91 1561.54 L2706.91 1565.81 L2692.88 1565.81 L2692.88 1561.54 Z" fill="#000000" fill-rule="nonzero" fill-opacity="1" /><path clip-path="url(#clip700)" d="M2726.47 1542.86 Q2722.41 1542.86 2720.35 1546.87 Q2718.32 1550.86 2718.32 1558.88 Q2718.32 1566.87 2720.35 1570.88 Q2722.41 1574.87 2726.47 1574.87 Q2730.56 1574.87 2732.59 1570.88 Q2734.65 1566.87 2734.65 1558.88 Q2734.65 1550.86 2732.59 1546.87 Q2730.56 1542.86 2726.47 1542.86 M2726.47 1538.7 Q2733.01 1538.7 2736.44 1543.88 Q2739.91 1549.04 2739.91 1558.88 Q2739.91 1568.7 2736.44 1573.88 Q2733.01 1579.04 2726.47 1579.04 Q2719.93 1579.04 2716.47 1573.88 Q2713.03 1568.7 2713.03 1558.88 Q2713.03 1549.04 2716.47 1543.88 Q2719.93 1538.7 2726.47 1538.7 Z" fill="#000000" fill-rule="nonzero" fill-opacity="1" /><path clip-path="url(#clip700)" d="M2747.82 1539.4 L2772.82 1539.4 L2772.82 1541.64 L2758.71 1578.28 L2753.22 1578.28 L2766.5 1543.83 L2747.82 1543.83 L2747.82 1539.4 Z" fill="#000000" fill-rule="nonzero" fill-opacity="1" /><path clip-path="url(#clip700)" d="M2779.99 1561.54 L2794.02 1561.54 L2794.02 1565.81 L2779.99 1565.81 L2779.99 1561.54 Z" fill="#000000" fill-rule="nonzero" fill-opacity="1" /><path clip-path="url(#clip700)" d="M2806.86 1573.85 L2825.22 1573.85 L2825.22 1578.28 L2800.53 1578.28 L2800.53 1573.85 Q2803.53 1570.75 2808.68 1565.55 Q2813.87 1560.31 2815.19 1558.8 Q2817.72 1555.96 2818.71 1554.01 Q2819.73 1552.03 2819.73 1550.13 Q2819.73 1547.03 2817.54 1545.08 Q2815.38 1543.12 2811.89 1543.12 Q2809.41 1543.12 2806.65 1543.98 Q2803.92 1544.84 2800.79 1546.59 L2800.79 1541.27 Q2803.97 1540 2806.73 1539.35 Q2809.49 1538.7 2811.78 1538.7 Q2817.82 1538.7 2821.42 1541.72 Q2825.01 1544.74 2825.01 1549.79 Q2825.01 1552.19 2824.1 1554.35 Q2823.22 1556.48 2820.85 1559.4 Q2820.19 1560.15 2816.7 1563.77 Q2813.22 1567.37 2806.86 1573.85 Z" fill="#000000" fill-rule="nonzero" fill-opacity="1" /><path clip-path="url(#clip700)" d="M2850.71 1543.98 L2837.43 1564.74 L2850.71 1564.74 L2850.71 1543.98 M2849.33 1539.4 L2855.95 1539.4 L2855.95 1564.74 L2861.5 1564.74 L2861.5 1569.11 L2855.95 1569.11 L2855.95 1578.28 L2850.71 1578.28 L2850.71 1569.11 L2833.16 1569.11 L2833.16 1564.04 L2849.33 1539.4 Z" fill="#000000" fill-rule="nonzero" fill-opacity="1" /><polyline clip-path="url(#clip702)" style="stroke:#000000; stroke-linecap:round; stroke-linejoin:round; stroke-width:2; stroke-opacity:0.1; fill:none" points="206.379,1412.36 3180.58,1412.36 "/>
<polyline clip-path="url(#clip702)" style="stroke:#000000; stroke-linecap:round; stroke-linejoin:round; stroke-width:2; stroke-opacity:0.1; fill:none" points="206.379,1106.86 3180.58,1106.86 "/>
<polyline clip-path="url(#clip702)" style="stroke:#000000; stroke-linecap:round; stroke-linejoin:round; stroke-width:2; stroke-opacity:0.1; fill:none" points="206.379,801.349 3180.58,801.349 "/>
<polyline clip-path="url(#clip702)" style="stroke:#000000; stroke-linecap:round; stroke-linejoin:round; stroke-width:2; stroke-opacity:0.1; fill:none" points="206.379,495.841 3180.58,495.841 "/>
<polyline clip-path="url(#clip702)" style="stroke:#000000; stroke-linecap:round; stroke-linejoin:round; stroke-width:2; stroke-opacity:0.1; fill:none" points="206.379,190.334 3180.58,190.334 "/>
<polyline clip-path="url(#clip700)" style="stroke:#000000; stroke-linecap:round; stroke-linejoin:round; stroke-width:4; stroke-opacity:1; fill:none" points="206.379,1497.68 206.379,47.2441 "/>
<polyline clip-path="url(#clip700)" style="stroke:#000000; stroke-linecap:round; stroke-linejoin:round; stroke-width:4; stroke-opacity:1; fill:none" points="206.379,1412.36 221.381,1412.36 "/>
<polyline clip-path="url(#clip700)" style="stroke:#000000; stroke-linecap:round; stroke-linejoin:round; stroke-width:4; stroke-opacity:1; fill:none" points="206.379,1106.86 221.381,1106.86 "/>
<polyline clip-path="url(#clip700)" style="stroke:#000000; stroke-linecap:round; stroke-linejoin:round; stroke-width:4; stroke-opacity:1; fill:none" points="206.379,801.349 221.381,801.349 "/>
<polyline clip-path="url(#clip700)" style="stroke:#000000; stroke-linecap:round; stroke-linejoin:round; stroke-width:4; stroke-opacity:1; fill:none" points="206.379,495.841 221.381,495.841 "/>
<polyline clip-path="url(#clip700)" style="stroke:#000000; stroke-linecap:round; stroke-linejoin:round; stroke-width:4; stroke-opacity:1; fill:none" points="206.379,190.334 221.381,190.334 "/>
<path clip-path="url(#clip700)" d="M92.2903 1427.38 L110.65 1427.38 L110.65 1431.8 L85.9622 1431.8 L85.9622 1427.38 Q88.957 1424.28 94.1132 1419.07 Q99.2955 1413.84 100.624 1412.32 Q103.15 1409.49 104.139 1407.53 Q105.155 1405.55 105.155 1403.65 Q105.155 1400.55 102.967 1398.6 Q100.806 1396.65 97.3163 1396.65 Q94.8424 1396.65 92.082 1397.51 Q89.3476 1398.37 86.2226 1400.11 L86.2226 1394.8 Q89.3997 1393.52 92.1601 1392.87 Q94.9205 1392.22 97.2122 1392.22 Q103.254 1392.22 106.848 1395.24 Q110.441 1398.26 110.441 1403.31 Q110.441 1405.71 109.53 1407.87 Q108.644 1410.01 106.275 1412.92 Q105.624 1413.68 102.134 1417.3 Q98.6445 1420.89 92.2903 1427.38 Z" fill="#000000" fill-rule="nonzero" fill-opacity="1" /><path clip-path="url(#clip700)" d="M132.941 1396.39 Q128.879 1396.39 126.821 1400.4 Q124.79 1404.38 124.79 1412.4 Q124.79 1420.4 126.821 1424.41 Q128.879 1428.39 132.941 1428.39 Q137.03 1428.39 139.061 1424.41 Q141.118 1420.4 141.118 1412.4 Q141.118 1404.38 139.061 1400.4 Q137.03 1396.39 132.941 1396.39 M132.941 1392.22 Q139.478 1392.22 142.915 1397.4 Q146.379 1402.56 146.379 1412.4 Q146.379 1422.22 142.915 1427.4 Q139.478 1432.56 132.941 1432.56 Q126.405 1432.56 122.941 1427.4 Q119.504 1422.22 119.504 1412.4 Q119.504 1402.56 122.941 1397.4 Q126.405 1392.22 132.941 1392.22 Z" fill="#000000" fill-rule="nonzero" fill-opacity="1" /><path clip-path="url(#clip700)" d="M93.4101 1121.87 L111.769 1121.87 L111.769 1126.3 L87.082 1126.3 L87.082 1121.87 Q90.0768 1118.77 95.233 1113.56 Q100.415 1108.33 101.743 1106.82 Q104.269 1103.98 105.259 1102.03 Q106.275 1100.05 106.275 1098.15 Q106.275 1095.05 104.087 1093.09 Q101.926 1091.14 98.4361 1091.14 Q95.9622 1091.14 93.2018 1092 Q90.4674 1092.86 87.3424 1094.6 L87.3424 1089.29 Q90.5195 1088.02 93.2799 1087.36 Q96.0403 1086.71 98.332 1086.71 Q104.374 1086.71 107.967 1089.73 Q111.561 1092.75 111.561 1097.81 Q111.561 1100.2 110.65 1102.36 Q109.764 1104.5 107.394 1107.42 Q106.743 1108.17 103.254 1111.79 Q99.7642 1115.39 93.4101 1121.87 Z" fill="#000000" fill-rule="nonzero" fill-opacity="1" /><path clip-path="url(#clip700)" d="M122.863 1087.42 L143.514 1087.42 L143.514 1091.84 L127.681 1091.84 L127.681 1101.37 Q128.827 1100.98 129.972 1100.8 Q131.118 1100.59 132.264 1100.59 Q138.774 1100.59 142.577 1104.16 Q146.379 1107.73 146.379 1113.82 Q146.379 1120.1 142.472 1123.59 Q138.566 1127.05 131.457 1127.05 Q129.009 1127.05 126.457 1126.63 Q123.931 1126.22 121.222 1125.39 L121.222 1120.1 Q123.566 1121.37 126.066 1122 Q128.566 1122.62 131.353 1122.62 Q135.858 1122.62 138.488 1120.25 Q141.118 1117.89 141.118 1113.82 Q141.118 1109.76 138.488 1107.39 Q135.858 1105.02 131.353 1105.02 Q129.243 1105.02 127.134 1105.49 Q125.051 1105.96 122.863 1106.95 L122.863 1087.42 Z" fill="#000000" fill-rule="nonzero" fill-opacity="1" /><path clip-path="url(#clip700)" d="M103.697 799.825 Q107.473 800.633 109.582 803.185 Q111.717 805.737 111.717 809.487 Q111.717 815.242 107.759 818.393 Q103.801 821.544 96.5091 821.544 Q94.0611 821.544 91.457 821.049 Q88.8789 820.581 86.1185 819.617 L86.1185 814.539 Q88.306 815.815 90.9101 816.466 Q93.5143 817.117 96.3528 817.117 Q101.301 817.117 103.879 815.164 Q106.483 813.211 106.483 809.487 Q106.483 806.049 104.061 804.122 Q101.665 802.169 97.3684 802.169 L92.8372 802.169 L92.8372 797.846 L97.5768 797.846 Q101.457 797.846 103.514 796.31 Q105.572 794.747 105.572 791.831 Q105.572 788.836 103.436 787.247 Q101.327 785.633 97.3684 785.633 Q95.207 785.633 92.733 786.102 Q90.2591 786.57 87.2904 787.56 L87.2904 782.872 Q90.2851 782.039 92.8893 781.622 Q95.5195 781.206 97.8372 781.206 Q103.827 781.206 107.316 783.94 Q110.806 786.648 110.806 791.284 Q110.806 794.513 108.957 796.753 Q107.108 798.966 103.697 799.825 Z" fill="#000000" fill-rule="nonzero" fill-opacity="1" /><path clip-path="url(#clip700)" d="M132.941 785.372 Q128.879 785.372 126.821 789.383 Q124.79 793.367 124.79 801.388 Q124.79 809.383 126.821 813.393 Q128.879 817.377 132.941 817.377 Q137.03 817.377 139.061 813.393 Q141.118 809.383 141.118 801.388 Q141.118 793.367 139.061 789.383 Q137.03 785.372 132.941 785.372 M132.941 781.206 Q139.478 781.206 142.915 786.388 Q146.379 791.544 146.379 801.388 Q146.379 811.206 142.915 816.388 Q139.478 821.544 132.941 821.544 Q126.405 821.544 122.941 816.388 Q119.504 811.206 119.504 801.388 Q119.504 791.544 122.941 786.388 Q126.405 781.206 132.941 781.206 Z" fill="#000000" fill-rule="nonzero" fill-opacity="1" /><path clip-path="url(#clip700)" d="M104.816 494.318 Q108.592 495.125 110.702 497.677 Q112.837 500.229 112.837 503.979 Q112.837 509.734 108.879 512.885 Q104.92 516.036 97.6288 516.036 Q95.1809 516.036 92.5768 515.542 Q89.9987 515.073 87.2383 514.109 L87.2383 509.031 Q89.4258 510.307 92.0299 510.958 Q94.6341 511.609 97.4726 511.609 Q102.42 511.609 104.999 509.656 Q107.603 507.703 107.603 503.979 Q107.603 500.542 105.181 498.615 Q102.785 496.662 98.4882 496.662 L93.957 496.662 L93.957 492.339 L98.6965 492.339 Q102.577 492.339 104.634 490.802 Q106.691 489.24 106.691 486.323 Q106.691 483.328 104.556 481.74 Q102.447 480.125 98.4882 480.125 Q96.3268 480.125 93.8528 480.594 Q91.3789 481.063 88.4101 482.052 L88.4101 477.365 Q91.4049 476.531 94.0091 476.115 Q96.6393 475.698 98.957 475.698 Q104.947 475.698 108.436 478.433 Q111.926 481.141 111.926 485.776 Q111.926 489.005 110.077 491.245 Q108.228 493.458 104.816 494.318 Z" fill="#000000" fill-rule="nonzero" fill-opacity="1" /><path clip-path="url(#clip700)" d="M122.863 476.401 L143.514 476.401 L143.514 480.828 L127.681 480.828 L127.681 490.36 Q128.827 489.969 129.972 489.787 Q131.118 489.578 132.264 489.578 Q138.774 489.578 142.577 493.146 Q146.379 496.714 146.379 502.807 Q146.379 509.083 142.472 512.573 Q138.566 516.036 131.457 516.036 Q129.009 516.036 126.457 515.62 Q123.931 515.203 121.222 514.37 L121.222 509.083 Q123.566 510.359 126.066 510.984 Q128.566 511.609 131.353 511.609 Q135.858 511.609 138.488 509.24 Q141.118 506.87 141.118 502.807 Q141.118 498.745 138.488 496.375 Q135.858 494.005 131.353 494.005 Q129.243 494.005 127.134 494.474 Q125.051 494.943 122.863 495.932 L122.863 476.401 Z" fill="#000000" fill-rule="nonzero" fill-opacity="1" /><path clip-path="url(#clip700)" d="M102.212 175.477 L88.931 196.232 L102.212 196.232 L102.212 175.477 M100.832 170.894 L107.446 170.894 L107.446 196.232 L112.993 196.232 L112.993 200.607 L107.446 200.607 L107.446 209.774 L102.212 209.774 L102.212 200.607 L84.6602 200.607 L84.6602 195.529 L100.832 170.894 Z" fill="#000000" fill-rule="nonzero" fill-opacity="1" /><path clip-path="url(#clip700)" d="M132.941 174.357 Q128.879 174.357 126.821 178.368 Q124.79 182.352 124.79 190.373 Q124.79 198.368 126.821 202.378 Q128.879 206.362 132.941 206.362 Q137.03 206.362 139.061 202.378 Q141.118 198.368 141.118 190.373 Q141.118 182.352 139.061 178.368 Q137.03 174.357 132.941 174.357 M132.941 170.191 Q139.478 170.191 142.915 175.373 Q146.379 180.529 146.379 190.373 Q146.379 200.19 142.915 205.373 Q139.478 210.529 132.941 210.529 Q126.405 210.529 122.941 205.373 Q119.504 200.19 119.504 190.373 Q119.504 180.529 122.941 175.373 Q126.405 170.191 132.941 170.191 Z" fill="#000000" fill-rule="nonzero" fill-opacity="1" /><path clip-path="url(#clip700)" d="M-31.4998 930.013 L-31.4998 924.168 L11.7002 924.168 L11.7002 930.013 L-31.4998 930.013 Z" fill="#000000" fill-rule="nonzero" fill-opacity="1" /><path clip-path="url(#clip700)" d="M-7.85992 885.829 L11.7002 885.829 L11.7002 891.153 L-7.68631 891.153 Q-12.287 891.153 -14.5728 892.947 Q-16.8587 894.741 -16.8587 898.329 Q-16.8587 902.641 -14.1099 905.129 Q-11.3611 907.618 -6.61572 907.618 L11.7002 907.618 L11.7002 912.97 L-20.7071 912.97 L-20.7071 907.618 L-15.6724 907.618 Q-18.5948 905.708 -20.0416 903.133 Q-21.4883 900.528 -21.4883 897.143 Q-21.4883 891.559 -18.0161 888.694 Q-14.5728 885.829 -7.85992 885.829 Z" fill="#000000" fill-rule="nonzero" fill-opacity="1" /><path clip-path="url(#clip700)" d="M-33.3227 858.804 L-28.8957 858.804 L-28.8957 863.897 Q-28.8957 866.761 -27.7383 867.89 Q-26.5809 868.989 -23.5716 868.989 L-20.7071 868.989 L-20.7071 860.222 L-16.5694 860.222 L-16.5694 868.989 L11.7002 868.989 L11.7002 874.342 L-16.5694 874.342 L-16.5694 879.435 L-20.7071 879.435 L-20.7071 874.342 L-22.964 874.342 Q-28.3749 874.342 -30.8343 871.825 Q-33.3227 869.308 -33.3227 863.839 L-33.3227 858.804 Z" fill="#000000" fill-rule="nonzero" fill-opacity="1" /><path clip-path="url(#clip700)" d="M-33.3227 854.348 L-33.3227 849.024 L11.7002 849.024 L11.7002 854.348 L-33.3227 854.348 Z" fill="#000000" fill-rule="nonzero" fill-opacity="1" /><path clip-path="url(#clip700)" d="M-16.9745 825.326 Q-16.9745 829.609 -13.618 832.097 Q-10.2905 834.585 -4.47452 834.585 Q1.34142 834.585 4.69788 832.126 Q8.02541 829.638 8.02541 825.326 Q8.02541 821.073 4.66895 818.584 Q1.31248 816.096 -4.47452 816.096 Q-10.2326 816.096 -13.5891 818.584 Q-16.9745 821.073 -16.9745 825.326 M-21.4883 825.326 Q-21.4883 818.382 -16.9745 814.418 Q-12.4606 810.454 -4.47452 810.454 Q3.48261 810.454 8.02541 814.418 Q12.5393 818.382 12.5393 825.326 Q12.5393 832.3 8.02541 836.264 Q3.48261 840.199 -4.47452 840.199 Q-12.4606 840.199 -16.9745 836.264 Q-21.4883 832.3 -21.4883 825.326 Z" fill="#000000" fill-rule="nonzero" fill-opacity="1" /><path clip-path="url(#clip700)" d="M-20.7071 804.725 L-20.7071 799.4 L4.58214 792.745 L-20.7071 786.119 L-20.7071 779.84 L4.58214 773.185 L-20.7071 766.559 L-20.7071 761.235 L11.7002 769.713 L11.7002 775.992 L-14.8622 782.965 L11.7002 789.968 L11.7002 796.247 L-20.7071 804.725 Z" fill="#000000" fill-rule="nonzero" fill-opacity="1" /><path clip-path="url(#clip700)" d="M-33.3227 734.818 L-33.3227 722.549 L-29.185 722.549 L-29.185 729.493 L15.3749 729.493 L15.3749 722.549 L19.5126 722.549 L19.5126 734.818 L-33.3227 734.818 Z" fill="#000000" fill-rule="nonzero" fill-opacity="1" /><path clip-path="url(#clip700)" d="M-31.4998 710.975 L-31.4998 705.13 L6.7812 705.13 L6.7812 684.094 L11.7002 684.094 L11.7002 710.975 L-31.4998 710.975 Z" fill="#000000" fill-rule="nonzero" fill-opacity="1" /><path clip-path="url(#clip700)" d="M-31.4998 668.73 L-31.4998 663.811 L17.1978 678.857 L17.1978 683.776 L-31.4998 668.73 Z" fill="#000000" fill-rule="nonzero" fill-opacity="1" /><path clip-path="url(#clip700)" d="M-19.7522 637.567 L-14.7175 637.567 Q-15.8749 639.824 -16.4536 642.254 Q-17.0323 644.685 -17.0323 647.289 Q-17.0323 651.253 -15.8171 653.25 Q-14.6018 655.217 -12.1712 655.217 Q-10.3194 655.217 -9.2488 653.799 Q-8.20714 652.382 -7.25229 648.099 L-6.8472 646.276 Q-5.63193 640.605 -3.40393 638.232 Q-1.20487 635.831 2.75923 635.831 Q7.2731 635.831 9.90619 639.419 Q12.5393 642.978 12.5393 649.228 Q12.5393 651.832 12.0184 654.667 Q11.5265 657.474 10.5138 660.599 L5.01617 660.599 Q6.54972 657.648 7.33097 654.783 Q8.08328 651.919 8.08328 649.112 Q8.08328 645.35 6.81014 643.325 Q5.50806 641.299 3.16432 641.299 Q0.994196 641.299 -0.163205 642.775 Q-1.32061 644.222 -2.3912 649.17 L-2.82523 651.022 Q-3.86689 655.97 -6.00808 658.169 Q-8.17821 660.368 -11.9398 660.368 Q-16.5115 660.368 -18.9999 657.127 Q-21.4883 653.886 -21.4883 647.926 Q-21.4883 644.974 -21.0543 642.37 Q-20.6203 639.766 -19.7522 637.567 Z" fill="#000000" fill-rule="nonzero" fill-opacity="1" /><path clip-path="url(#clip700)" d="M-33.3227 614.911 L19.5126 614.911 L19.5126 627.179 L15.3749 627.179 L15.3749 620.264 L-29.185 620.264 L-29.185 627.179 L-33.3227 627.179 L-33.3227 614.911 Z" fill="#000000" fill-rule="nonzero" fill-opacity="1" /><polyline clip-path="url(#clip702)" style="stroke:#023eff; stroke-linecap:round; stroke-linejoin:round; stroke-width:5; stroke-opacity:1; fill:none" points="290.554,305.275 307.356,1218.27 324.157,1401.64 340.959,1433.12 357.76,1320.84 374.562,1130.88 391.363,794.475 408.165,582.119 424.966,418.099 441.768,720.873 458.569,624.847 475.371,624.847 492.172,858.287 508.974,891.517 525.776,891.517 542.577,1048.98 559.379,979.662 576.18,721.433 592.982,624.847 609.783,511.776 626.585,511.776 643.386,624.847 660.188,624.847 676.989,865.771 693.791,1182.28 710.592,1378.48 727.394,1378.48 744.195,1378.48 760.997,1378.48 777.798,1182.28 794.6,858.95 811.401,368.816 828.203,368.816 845.004,504.34 861.806,636.588 878.608,636.588 895.409,823.645 912.211,823.645 929.012,906.284 945.814,992.493 962.615,959.855 979.417,906.284 996.218,636.588 1013.02,614.212 1029.82,614.212 1046.62,686.122 1063.42,959.855 1080.23,992.493 1097.03,1182.28 1113.83,1378.48 1130.63,1378.48 1147.43,1378.48 1164.23,1378.48 1181.03,1182.28 1197.84,858.95 1214.64,368.816 1231.44,368.816 1248.24,504.34 1265.04,823.645 1281.84,885.442 1298.65,885.442 1315.45,823.645 1332.25,959.855 1349.05,992.493 1365.85,959.855 1382.65,823.645 1399.45,763.2 1416.26,614.212 1433.06,614.212 1449.86,614.212 1466.66,823.645 1483.46,885.442 1500.26,1182.28 1517.07,1378.48 1533.87,1378.48 1550.67,1378.48 1567.47,1378.48 1584.27,1182.28 1601.07,858.95 1617.87,368.816 1634.68,368.816 1651.48,504.34 1668.28,636.588 1685.08,823.645 1701.88,763.2 1718.68,823.645 1735.49,885.442 1752.29,885.442 1769.09,823.645 1785.89,885.442 1802.69,823.645 1819.49,489.818 1836.29,489.818 1853.1,614.212 1869.9,823.645 1886.7,906.284 1903.5,1182.28 1920.3,1182.28 1937.1,1378.48 1953.9,1378.48 1970.71,1182.28 1987.51,1182.28 2004.31,858.95 2021.11,368.816 2037.91,368.816 2054.71,504.34 2071.52,823.645 2088.32,823.645 2105.12,885.442 2121.92,885.442 2138.72,992.493 2155.52,992.493 2172.32,959.855 2189.13,885.442 2205.93,823.645 2222.73,489.818 2239.53,489.818 2256.33,686.122 2273.13,823.645 2289.94,992.493 2306.74,1182.28 2323.54,1182.28 2340.34,1378.48 2357.14,1378.48 2373.94,1378.48 2390.74,1182.28 2407.55,858.95 2424.35,504.34 2441.15,504.34 2457.95,504.34 2474.75,614.212 2491.55,763.2 2508.36,823.645 2525.16,823.645 2541.96,823.645 2558.76,885.442 2575.56,823.645 2592.36,823.645 2609.16,636.588 2625.97,614.212 2642.77,614.212 2659.57,614.212 2676.37,823.645 2693.17,959.855 2709.97,1182.28 2726.78,1182.28 2743.58,1378.48 2760.38,1456.63 2777.18,1378.48 2793.98,1182.28 2810.78,858.95 2827.58,630.065 2844.39,504.34 2861.19,534.509 2877.99,489.818 2894.79,489.818 2911.59,489.818 2928.39,885.442 2945.19,906.284 2962,906.284 2978.8,823.645 2995.6,489.818 3012.4,489.818 3029.2,489.818 3046,489.818 3062.81,489.818 3079.61,636.588 3096.41,823.645 "/>
<polyline clip-path="url(#clip702)" style="stroke:#ff7c00; stroke-linecap:round; stroke-linejoin:round; stroke-width:5; stroke-opacity:1; fill:none" points="290.554,1141.48 307.356,1218.43 324.157,1425.57 340.959,1420.42 357.76,1312.7 374.562,1092.94 391.363,856.189 408.165,416.08 424.966,416.08 441.768,649.573 458.569,802.527 475.371,632.607 492.172,799.495 508.974,790.86 525.776,925.571 542.577,1004.53 559.379,975.47 576.18,873.983 592.982,797.92 609.783,571.073 626.585,571.073 643.386,571.073 660.188,571.073 676.989,872.328 693.791,1138.43 710.592,1347.33 727.394,1402.12 744.195,1402.12 760.997,1347.33 777.798,1138.43 794.6,753.711 811.401,380.343 828.203,380.343 845.004,659.643 861.806,659.643 878.608,882.178 895.409,882.178 912.211,882.178 929.012,967.048 945.814,967.048 962.615,967.048 979.417,967.048 996.218,662.498 1013.02,548.27 1029.82,548.27 1046.62,662.498 1063.42,965.331 1080.23,965.331 1097.03,1132.52 1113.83,1347.33 1130.63,1402.12 1147.43,1402.12 1164.23,1347.33 1181.03,1138.43 1197.84,753.711 1214.64,380.343 1231.44,380.343 1248.24,659.643 1265.04,832.905 1281.84,882.178 1298.65,882.178 1315.45,882.178 1332.25,967.048 1349.05,967.048 1365.85,967.048 1382.65,967.048 1399.45,662.498 1416.26,548.27 1433.06,548.27 1449.86,548.27 1466.66,662.498 1483.46,965.331 1500.26,1132.52 1517.07,1347.33 1533.87,1402.12 1550.67,1402.12 1567.47,1402.12 1584.27,1138.43 1601.07,753.711 1617.87,380.343 1634.68,380.343 1651.48,659.643 1668.28,659.643 1685.08,882.178 1701.88,882.178 1718.68,882.178 1735.49,967.048 1752.29,967.048 1769.09,967.048 1785.89,967.048 1802.69,662.498 1819.49,548.27 1836.29,548.27 1853.1,662.498 1869.9,965.331 1886.7,965.331 1903.5,1138.43 1920.3,1132.52 1937.1,1347.33 1953.9,1347.33 1970.71,1305.74 1987.51,1138.43 2004.31,753.711 2021.11,380.343 2037.91,380.343 2054.71,659.643 2071.52,832.905 2088.32,882.178 2105.12,882.178 2121.92,882.178 2138.72,967.048 2155.52,967.048 2172.32,967.048 2189.13,967.048 2205.93,662.498 2222.73,548.27 2239.53,548.27 2256.33,662.498 2273.13,965.331 2289.94,965.331 2306.74,1132.52 2323.54,1132.52 2340.34,1402.12 2357.14,1347.33 2373.94,1347.33 2390.74,1132.52 2407.55,753.711 2424.35,564.461 2441.15,564.461 2457.95,499.623 2474.75,499.623 2491.55,759.417 2508.36,759.417 2525.16,759.417 2541.96,912.007 2558.76,912.007 2575.56,912.007 2592.36,912.007 2609.16,662.498 2625.97,548.27 2642.77,548.27 2659.57,662.498 2676.37,965.331 2693.17,965.331 2709.97,1138.43 2726.78,1132.52 2743.58,1402.12 2760.38,1448.69 2777.18,1305.74 2793.98,1132.52 2810.78,894.391 2827.58,753.711 2844.39,564.461 2861.19,499.623 2877.99,499.623 2894.79,759.417 2911.59,759.417 2928.39,759.417 2945.19,912.007 2962,912.007 2978.8,912.007 2995.6,912.007 3012.4,548.27 3029.2,548.27 3046,548.27 3062.81,548.27 3079.61,662.498 3096.41,965.331 "/>
<polyline clip-path="url(#clip702)" style="stroke:#1ac938; stroke-linecap:round; stroke-linejoin:round; stroke-width:5; stroke-opacity:1; fill:none" points="290.554,1167.87 307.356,1216.09 324.157,1388.89 340.959,1432.38 357.76,1388.89 374.562,1141.53 391.363,886.641 408.165,339.999 424.966,339.999 441.768,472.138 458.569,686.75 475.371,686.75 492.172,806.984 508.974,886.641 525.776,886.641 542.577,985.543 559.379,922.384 576.18,806.984 592.982,686.75 609.783,472.138 626.585,472.138 643.386,472.138 660.188,658.482 676.989,922.384 693.791,1147.27 710.592,1326.55 727.394,1414.78 744.195,1414.78 760.997,1414.78 777.798,1147.27 794.6,829.183 811.401,328.939 828.203,328.939 845.004,517.518 861.806,607.034 878.608,607.034 895.409,829.183 912.211,815.097 929.012,945.423 945.814,945.423 962.615,945.423 979.417,945.423 996.218,607.034 1013.02,517.518 1029.82,517.518 1046.62,686.424 1063.42,856.929 1080.23,1006.24 1097.03,1147.27 1113.83,1326.55 1130.63,1414.78 1147.43,1414.78 1164.23,1414.78 1181.03,1147.27 1197.84,829.183 1214.64,328.939 1231.44,328.939 1248.24,607.034 1265.04,829.183 1281.84,829.183 1298.65,829.183 1315.45,829.183 1332.25,945.423 1349.05,945.423 1365.85,945.423 1382.65,945.423 1399.45,686.424 1416.26,517.518 1433.06,517.518 1449.86,607.034 1466.66,856.929 1483.46,1006.24 1500.26,1147.27 1517.07,1326.55 1533.87,1414.78 1550.67,1414.78 1567.47,1414.78 1584.27,1147.27 1601.07,815.097 1617.87,328.939 1634.68,328.939 1651.48,517.518 1668.28,607.034 1685.08,829.183 1701.88,815.097 1718.68,829.183 1735.49,945.423 1752.29,945.423 1769.09,945.423 1785.89,945.423 1802.69,686.424 1819.49,517.518 1836.29,517.518 1853.1,607.034 1869.9,856.929 1886.7,1006.24 1903.5,1147.27 1920.3,1147.27 1937.1,1414.78 1953.9,1414.78 1970.71,1414.78 1987.51,1147.27 2004.31,520.078 2021.11,328.939 2037.91,328.939 2054.71,517.518 2071.52,829.183 2088.32,829.183 2105.12,829.183 2121.92,829.183 2138.72,945.423 2155.52,945.423 2172.32,945.423 2189.13,945.423 2205.93,686.424 2222.73,517.518 2239.53,607.034 2256.33,607.034 2273.13,856.929 2289.94,1006.24 2306.74,1147.27 2323.54,1147.27 2340.34,1414.78 2357.14,1414.78 2373.94,1414.78 2390.74,1147.27 2407.55,829.183 2424.35,549.183 2441.15,549.183 2457.95,517.518 2474.75,517.518 2491.55,520.078 2508.36,829.183 2525.16,829.183 2541.96,945.423 2558.76,945.423 2575.56,945.423 2592.36,945.423 2609.16,607.034 2625.97,517.518 2642.77,517.518 2659.57,607.034 2676.37,856.929 2693.17,1006.24 2709.97,1147.27 2726.78,1147.27 2743.58,1414.78 2760.38,1414.78 2777.18,1414.78 2793.98,1147.27 2810.78,829.183 2827.58,815.097 2844.39,549.183 2861.19,517.518 2877.99,607.034 2894.79,607.034 2911.59,607.034 2928.39,829.183 2945.19,945.423 2962,945.423 2978.8,945.423 2995.6,607.034 3012.4,517.518 3029.2,517.518 3046,517.518 3062.81,517.518 3079.61,607.034 3096.41,1006.24 "/>
<polyline clip-path="url(#clip702)" style="stroke:#e8000b; stroke-linecap:round; stroke-linejoin:round; stroke-width:5; stroke-opacity:1; fill:none" points="290.554,993.401 307.356,1357.13 324.157,1357.13 340.959,1357.13 357.76,1357.13 374.562,1100.48 391.363,809.659 408.165,639.294 424.966,344.377 441.768,539.356 458.569,539.356 475.371,539.356 492.172,266.1 508.974,812.9 525.776,924.147 542.577,924.147 559.379,924.147 576.18,539.356 592.982,539.356 609.783,539.356 626.585,539.356 643.386,539.356 660.188,639.294 676.989,924.147 693.791,1117.66 710.592,1366.3 727.394,1366.3 744.195,1366.3 760.997,1366.3 777.798,1117.66 794.6,794.036 811.401,475.932 828.203,475.932 845.004,475.932 861.806,475.932 878.608,475.932 895.409,794.036 912.211,794.036 929.012,862.92 945.814,862.92 962.615,862.92 979.417,862.92 996.218,615.295 1013.02,615.295 1029.82,615.295 1046.62,615.295 1063.42,862.92 1080.23,862.92 1097.03,1117.66 1113.83,1366.3 1130.63,1366.3 1147.43,1366.3 1164.23,1366.3 1181.03,1117.66 1197.84,794.036 1214.64,475.932 1231.44,475.932 1248.24,475.932 1265.04,794.036 1281.84,794.036 1298.65,794.036 1315.45,794.036 1332.25,862.92 1349.05,862.92 1365.85,862.92 1382.65,615.295 1399.45,615.295 1416.26,615.295 1433.06,615.295 1449.86,615.295 1466.66,615.295 1483.46,862.92 1500.26,1117.66 1517.07,1366.3 1533.87,1366.3 1550.67,1366.3 1567.47,1366.3 1584.27,1117.66 1601.07,475.932 1617.87,475.932 1634.68,475.932 1651.48,475.932 1668.28,475.932 1685.08,794.036 1701.88,475.932 1718.68,794.036 1735.49,862.92 1752.29,862.92 1769.09,615.295 1785.89,862.92 1802.69,615.295 1819.49,615.295 1836.29,615.295 1853.1,615.295 1869.9,615.295 1886.7,862.92 1903.5,1117.66 1920.3,1117.66 1937.1,1366.3 1953.9,1366.3 1970.71,1117.66 1987.51,1117.66 2004.31,475.932 2021.11,475.932 2037.91,475.932 2054.71,475.932 2071.52,794.036 2088.32,794.036 2105.12,794.036 2121.92,794.036 2138.72,862.92 2155.52,862.92 2172.32,862.92 2189.13,862.92 2205.93,615.295 2222.73,615.295 2239.53,615.295 2256.33,615.295 2273.13,615.295 2289.94,862.92 2306.74,1117.66 2323.54,1117.66 2340.34,1366.3 2357.14,1366.3 2373.94,1366.3 2390.74,1117.66 2407.55,794.036 2424.35,475.932 2441.15,475.932 2457.95,475.932 2474.75,475.932 2491.55,475.932 2508.36,794.036 2525.16,794.036 2541.96,615.295 2558.76,862.92 2575.56,862.92 2592.36,615.295 2609.16,615.295 2625.97,615.295 2642.77,615.295 2659.57,615.295 2676.37,615.295 2693.17,862.92 2709.97,1117.66 2726.78,1117.66 2743.58,1366.3 2760.38,1366.3 2777.18,1366.3 2793.98,1117.66 2810.78,794.036 2827.58,475.932 2844.39,475.932 2861.19,475.932 2877.99,475.932 2894.79,475.932 2911.59,475.932 2928.39,794.036 2945.19,862.92 2962,862.92 2978.8,615.295 2995.6,615.295 3012.4,615.295 3029.2,615.295 3046,615.295 3062.81,615.295 3079.61,615.295 3096.41,615.295 "/>
<polyline clip-path="url(#clip702)" style="stroke:#000000; stroke-linecap:round; stroke-linejoin:round; stroke-width:6; stroke-opacity:1; fill:none" points="290.554,1074.47 307.356,1277.33 324.157,1361.65 340.959,1333.54 357.76,1200.34 374.562,1051.87 391.363,690.755 408.165,271.599 424.966,392.58 441.768,625.988 458.569,726.194 475.371,792.795 492.172,831.9 508.974,802.571 525.776,804.404 542.577,928.44 559.379,893.001 576.18,863.672 592.982,591.16 609.783,293.595 626.585,220.273 643.386,509.895 660.188,759.189 676.989,925.385 693.791,1095.86 710.592,1237 727.394,1326.21 744.195,1321.93 760.997,1180.18 777.798,989.542 794.6,719.473 811.401,237.382 828.203,225.162 845.004,521.504 861.806,691.977 878.608,878.337 895.409,756.745 912.211,813.569 929.012,778.741 945.814,855.729 962.615,839.843 979.417,657.149 996.218,611.934 1013.02,357.752 1029.82,354.086 1046.62,448.182 1063.42,626.599 1080.23,854.507 1097.03,1035.37 1113.83,1162.46 1130.63,1263.89 1147.43,1335.38 1164.23,1222.34 1181.03,1060.42 1197.84,603.991 1214.64,325.979 1231.44,179.335 1248.24,368.75 1265.04,599.103 1281.84,633.931 1298.65,766.521 1315.45,792.184 1332.25,901.555 1349.05,695.643 1365.85,705.419 1382.65,655.927 1399.45,422.519 1416.26,473.234 1433.06,324.146 1449.86,413.354 1466.66,596.048 1483.46,797.072 1500.26,1032.31 1517.07,1188.12 1533.87,1257.17 1550.67,1366.54 1567.47,1230.89 1584.27,1127.02 1601.07,726.194 1617.87,277.709 1634.68,311.315 1651.48,441.461 1668.28,687.7 1685.08,742.08 1701.88,734.748 1718.68,803.793 1735.49,965.712 1752.29,952.881 1769.09,982.82 1785.89,842.898 1802.69,624.765 1819.49,454.903 1836.29,366.917 1853.1,493.397 1869.9,812.347 1886.7,910.11 1903.5,1133.13 1920.3,1224.78 1937.1,1360.43 1953.9,1384.26 1970.71,1302.38 1987.51,1074.47 2004.31,784.24 2021.11,310.093 2037.91,88.2942 2054.71,408.466 2071.52,644.929 2088.32,791.573 2105.12,718.251 2121.92,665.092 2138.72,789.74 2155.52,803.182 2172.32,819.679 2189.13,724.361 2205.93,589.938 2222.73,429.852 2239.53,363.862 2256.33,594.826 2273.13,624.154 2289.94,820.29 2306.74,1041.48 2323.54,1167.96 2340.34,1331.71 2357.14,1381.81 2373.94,1189.95 2390.74,1109.3 2407.55,872.227 2424.35,662.648 2441.15,358.363 2457.95,277.709 2474.75,437.795 2491.55,722.528 2508.36,544.111 2525.16,708.475 2541.96,777.519 2558.76,915.609 2575.56,940.049 2592.36,767.132 2609.16,451.848 2625.97,448.793 2642.77,500.729 2659.57,666.926 2676.37,838.01 2693.17,900.944 2709.97,1065.31 2726.78,1153.9 2743.58,1259.61 2760.38,1320.1 2777.18,1208.28 2793.98,1022.54 2810.78,787.296 2827.58,743.913 2844.39,450.015 2861.19,285.041 2877.99,501.951 2894.79,603.991 2911.59,644.929 2928.39,730.471 2945.19,794.628 2962,977.321 2978.8,907.666 2995.6,683.423 3012.4,536.168 3029.2,468.346 3046,313.759 3062.81,745.424 3079.61,759.8 3096.41,864.894 "/>
<path clip-path="url(#clip700)" d="M3305.46 445.512 L3952.76 445.512 L3952.76 95.592 L3305.46 95.592  Z" fill="#ffffff" fill-rule="evenodd" fill-opacity="1"/>
<polyline clip-path="url(#clip700)" style="stroke:#000000; stroke-linecap:round; stroke-linejoin:round; stroke-width:4; stroke-opacity:1; fill:none" points="3305.46,445.512 3952.76,445.512 3952.76,95.592 3305.46,95.592 3305.46,445.512 "/>
<polyline clip-path="url(#clip700)" style="stroke:#023eff; stroke-linecap:round; stroke-linejoin:round; stroke-width:5.625; stroke-opacity:1; fill:none" points="3347.09,153.912 3596.85,153.912 "/>
<path clip-path="url(#clip700)" d="M3643.29 168.977 L3643.29 184.446 L3638.47 184.446 L3638.47 144.185 L3643.29 144.185 L3643.29 148.613 Q3644.8 146.008 3647.09 144.758 Q3649.41 143.482 3652.62 143.482 Q3657.93 143.482 3661.23 147.701 Q3664.57 151.92 3664.57 158.795 Q3664.57 165.67 3661.23 169.888 Q3657.93 174.107 3652.62 174.107 Q3649.41 174.107 3647.09 172.857 Q3644.8 171.581 3643.29 168.977 M3659.59 158.795 Q3659.59 153.508 3657.41 150.514 Q3655.25 147.493 3651.44 147.493 Q3647.64 147.493 3645.45 150.514 Q3643.29 153.508 3643.29 158.795 Q3643.29 164.081 3645.45 167.102 Q3647.64 170.097 3651.44 170.097 Q3655.25 170.097 3657.41 167.102 Q3659.59 164.081 3659.59 158.795 Z" fill="#000000" fill-rule="nonzero" fill-opacity="1" /><path clip-path="url(#clip700)" d="M3689.41 148.665 Q3688.6 148.196 3687.64 147.988 Q3686.7 147.753 3685.56 147.753 Q3681.5 147.753 3679.31 150.409 Q3677.15 153.04 3677.15 157.987 L3677.15 173.352 L3672.33 173.352 L3672.33 144.185 L3677.15 144.185 L3677.15 148.717 Q3678.66 146.06 3681.08 144.784 Q3683.5 143.482 3686.96 143.482 Q3687.46 143.482 3688.06 143.56 Q3688.66 143.613 3689.39 143.743 L3689.41 148.665 Z" fill="#000000" fill-rule="nonzero" fill-opacity="1" /><path clip-path="url(#clip700)" d="M3718.21 157.571 L3718.21 159.915 L3696.18 159.915 Q3696.5 164.862 3699.15 167.467 Q3701.83 170.045 3706.6 170.045 Q3709.36 170.045 3711.94 169.368 Q3714.54 168.691 3717.09 167.336 L3717.09 171.868 Q3714.52 172.961 3711.81 173.534 Q3709.1 174.107 3706.31 174.107 Q3699.33 174.107 3695.25 170.045 Q3691.18 165.982 3691.18 159.055 Q3691.18 151.894 3695.04 147.701 Q3698.92 143.482 3705.48 143.482 Q3711.36 143.482 3714.78 147.284 Q3718.21 151.06 3718.21 157.571 M3713.42 156.165 Q3713.37 152.232 3711.21 149.889 Q3709.07 147.545 3705.53 147.545 Q3701.52 147.545 3699.1 149.81 Q3696.7 152.076 3696.34 156.191 L3713.42 156.165 Z" fill="#000000" fill-rule="nonzero" fill-opacity="1" /><path clip-path="url(#clip700)" d="M3745.27 148.613 L3745.27 132.831 L3750.06 132.831 L3750.06 173.352 L3745.27 173.352 L3745.27 168.977 Q3743.76 171.581 3741.44 172.857 Q3739.15 174.107 3735.92 174.107 Q3730.64 174.107 3727.3 169.888 Q3724 165.67 3724 158.795 Q3724 151.92 3727.3 147.701 Q3730.64 143.482 3735.92 143.482 Q3739.15 143.482 3741.44 144.758 Q3743.76 146.008 3745.27 148.613 M3728.94 158.795 Q3728.94 164.081 3731.1 167.102 Q3733.29 170.097 3737.09 170.097 Q3740.9 170.097 3743.08 167.102 Q3745.27 164.081 3745.27 158.795 Q3745.27 153.508 3743.08 150.514 Q3740.9 147.493 3737.09 147.493 Q3733.29 147.493 3731.1 150.514 Q3728.94 153.508 3728.94 158.795 Z" fill="#000000" fill-rule="nonzero" fill-opacity="1" /><path clip-path="url(#clip700)" d="M3759.93 144.185 L3764.72 144.185 L3764.72 173.352 L3759.93 173.352 L3759.93 144.185 M3759.93 132.831 L3764.72 132.831 L3764.72 138.899 L3759.93 138.899 L3759.93 132.831 Z" fill="#000000" fill-rule="nonzero" fill-opacity="1" /><path clip-path="url(#clip700)" d="M3795.74 145.305 L3795.74 149.784 Q3793.71 148.665 3791.65 148.118 Q3789.62 147.545 3787.54 147.545 Q3782.87 147.545 3780.3 150.514 Q3777.72 153.456 3777.72 158.795 Q3777.72 164.133 3780.3 167.102 Q3782.87 170.045 3787.54 170.045 Q3789.62 170.045 3791.65 169.498 Q3793.71 168.925 3795.74 167.805 L3795.74 172.232 Q3793.73 173.17 3791.57 173.638 Q3789.44 174.107 3787.02 174.107 Q3780.43 174.107 3776.55 169.967 Q3772.67 165.826 3772.67 158.795 Q3772.67 151.659 3776.57 147.571 Q3780.51 143.482 3787.33 143.482 Q3789.54 143.482 3791.65 143.951 Q3793.76 144.394 3795.74 145.305 Z" fill="#000000" fill-rule="nonzero" fill-opacity="1" /><path clip-path="url(#clip700)" d="M3808.81 135.904 L3808.81 144.185 L3818.68 144.185 L3818.68 147.909 L3808.81 147.909 L3808.81 163.743 Q3808.81 167.31 3809.78 168.326 Q3810.77 169.342 3813.76 169.342 L3818.68 169.342 L3818.68 173.352 L3813.76 173.352 Q3808.21 173.352 3806.1 171.295 Q3803.99 169.211 3803.99 163.743 L3803.99 147.909 L3800.48 147.909 L3800.48 144.185 L3803.99 144.185 L3803.99 135.904 L3808.81 135.904 Z" fill="#000000" fill-rule="nonzero" fill-opacity="1" /><path clip-path="url(#clip700)" d="M3847.15 182.206 L3847.15 185.93 L3819.44 185.93 L3819.44 182.206 L3847.15 182.206 Z" fill="#000000" fill-rule="nonzero" fill-opacity="1" /><path clip-path="url(#clip700)" d="M3852.38 134.472 L3873.03 134.472 L3873.03 138.899 L3857.2 138.899 L3857.2 148.43 Q3858.34 148.04 3859.49 147.857 Q3860.63 147.649 3861.78 147.649 Q3868.29 147.649 3872.09 151.217 Q3875.9 154.784 3875.9 160.878 Q3875.9 167.154 3871.99 170.644 Q3868.08 174.107 3860.97 174.107 Q3858.53 174.107 3855.97 173.69 Q3853.45 173.274 3850.74 172.441 L3850.74 167.154 Q3853.08 168.43 3855.58 169.055 Q3858.08 169.68 3860.87 169.68 Q3865.37 169.68 3868 167.31 Q3870.63 164.941 3870.63 160.878 Q3870.63 156.816 3868 154.446 Q3865.37 152.076 3860.87 152.076 Q3858.76 152.076 3856.65 152.545 Q3854.57 153.014 3852.38 154.003 L3852.38 134.472 Z" fill="#000000" fill-rule="nonzero" fill-opacity="1" /><path clip-path="url(#clip700)" d="M3890.79 168.925 L3909.15 168.925 L3909.15 173.352 L3884.46 173.352 L3884.46 168.925 Q3887.46 165.826 3892.61 160.618 Q3897.8 155.383 3899.12 153.873 Q3901.65 151.034 3902.64 149.081 Q3903.66 147.102 3903.66 145.201 Q3903.66 142.102 3901.47 140.149 Q3899.31 138.196 3895.82 138.196 Q3893.34 138.196 3890.58 139.055 Q3887.85 139.915 3884.72 141.659 L3884.72 136.347 Q3887.9 135.071 3890.66 134.42 Q3893.42 133.769 3895.71 133.769 Q3901.75 133.769 3905.35 136.79 Q3908.94 139.81 3908.94 144.863 Q3908.94 147.258 3908.03 149.42 Q3907.15 151.555 3904.78 154.472 Q3904.12 155.227 3900.63 158.847 Q3897.15 162.441 3890.79 168.925 Z" fill="#000000" fill-rule="nonzero" fill-opacity="1" /><polyline clip-path="url(#clip700)" style="stroke:#ff7c00; stroke-linecap:round; stroke-linejoin:round; stroke-width:5.625; stroke-opacity:1; fill:none" points="3347.09,212.232 3596.85,212.232 "/>
<path clip-path="url(#clip700)" d="M3643.29 227.297 L3643.29 242.766 L3638.47 242.766 L3638.47 202.505 L3643.29 202.505 L3643.29 206.933 Q3644.8 204.328 3647.09 203.078 Q3649.41 201.802 3652.62 201.802 Q3657.93 201.802 3661.23 206.021 Q3664.57 210.24 3664.57 217.115 Q3664.57 223.99 3661.23 228.208 Q3657.93 232.427 3652.62 232.427 Q3649.41 232.427 3647.09 231.177 Q3644.8 229.901 3643.29 227.297 M3659.59 217.115 Q3659.59 211.828 3657.41 208.834 Q3655.25 205.813 3651.44 205.813 Q3647.64 205.813 3645.45 208.834 Q3643.29 211.828 3643.29 217.115 Q3643.29 222.401 3645.45 225.422 Q3647.64 228.417 3651.44 228.417 Q3655.25 228.417 3657.41 225.422 Q3659.59 222.401 3659.59 217.115 Z" fill="#000000" fill-rule="nonzero" fill-opacity="1" /><path clip-path="url(#clip700)" d="M3689.41 206.985 Q3688.6 206.516 3687.64 206.308 Q3686.7 206.073 3685.56 206.073 Q3681.5 206.073 3679.31 208.729 Q3677.15 211.36 3677.15 216.307 L3677.15 231.672 L3672.33 231.672 L3672.33 202.505 L3677.15 202.505 L3677.15 207.037 Q3678.66 204.38 3681.08 203.104 Q3683.5 201.802 3686.96 201.802 Q3687.46 201.802 3688.06 201.88 Q3688.66 201.933 3689.39 202.063 L3689.41 206.985 Z" fill="#000000" fill-rule="nonzero" fill-opacity="1" /><path clip-path="url(#clip700)" d="M3718.21 215.891 L3718.21 218.235 L3696.18 218.235 Q3696.5 223.182 3699.15 225.787 Q3701.83 228.365 3706.6 228.365 Q3709.36 228.365 3711.94 227.688 Q3714.54 227.011 3717.09 225.656 L3717.09 230.188 Q3714.52 231.281 3711.81 231.854 Q3709.1 232.427 3706.31 232.427 Q3699.33 232.427 3695.25 228.365 Q3691.18 224.302 3691.18 217.375 Q3691.18 210.214 3695.04 206.021 Q3698.92 201.802 3705.48 201.802 Q3711.36 201.802 3714.78 205.604 Q3718.21 209.38 3718.21 215.891 M3713.42 214.485 Q3713.37 210.552 3711.21 208.209 Q3709.07 205.865 3705.53 205.865 Q3701.52 205.865 3699.1 208.13 Q3696.7 210.396 3696.34 214.511 L3713.42 214.485 Z" fill="#000000" fill-rule="nonzero" fill-opacity="1" /><path clip-path="url(#clip700)" d="M3745.27 206.933 L3745.27 191.151 L3750.06 191.151 L3750.06 231.672 L3745.27 231.672 L3745.27 227.297 Q3743.76 229.901 3741.44 231.177 Q3739.15 232.427 3735.92 232.427 Q3730.64 232.427 3727.3 228.208 Q3724 223.99 3724 217.115 Q3724 210.24 3727.3 206.021 Q3730.64 201.802 3735.92 201.802 Q3739.15 201.802 3741.44 203.078 Q3743.76 204.328 3745.27 206.933 M3728.94 217.115 Q3728.94 222.401 3731.1 225.422 Q3733.29 228.417 3737.09 228.417 Q3740.9 228.417 3743.08 225.422 Q3745.27 222.401 3745.27 217.115 Q3745.27 211.828 3743.08 208.834 Q3740.9 205.813 3737.09 205.813 Q3733.29 205.813 3731.1 208.834 Q3728.94 211.828 3728.94 217.115 Z" fill="#000000" fill-rule="nonzero" fill-opacity="1" /><path clip-path="url(#clip700)" d="M3759.93 202.505 L3764.72 202.505 L3764.72 231.672 L3759.93 231.672 L3759.93 202.505 M3759.93 191.151 L3764.72 191.151 L3764.72 197.219 L3759.93 197.219 L3759.93 191.151 Z" fill="#000000" fill-rule="nonzero" fill-opacity="1" /><path clip-path="url(#clip700)" d="M3795.74 203.625 L3795.74 208.104 Q3793.71 206.985 3791.65 206.438 Q3789.62 205.865 3787.54 205.865 Q3782.87 205.865 3780.3 208.834 Q3777.72 211.776 3777.72 217.115 Q3777.72 222.453 3780.3 225.422 Q3782.87 228.365 3787.54 228.365 Q3789.62 228.365 3791.65 227.818 Q3793.71 227.245 3795.74 226.125 L3795.74 230.552 Q3793.73 231.49 3791.57 231.958 Q3789.44 232.427 3787.02 232.427 Q3780.43 232.427 3776.55 228.287 Q3772.67 224.146 3772.67 217.115 Q3772.67 209.979 3776.57 205.891 Q3780.51 201.802 3787.33 201.802 Q3789.54 201.802 3791.65 202.271 Q3793.76 202.714 3795.74 203.625 Z" fill="#000000" fill-rule="nonzero" fill-opacity="1" /><path clip-path="url(#clip700)" d="M3808.81 194.224 L3808.81 202.505 L3818.68 202.505 L3818.68 206.229 L3808.81 206.229 L3808.81 222.063 Q3808.81 225.63 3809.78 226.646 Q3810.77 227.662 3813.76 227.662 L3818.68 227.662 L3818.68 231.672 L3813.76 231.672 Q3808.21 231.672 3806.1 229.615 Q3803.99 227.531 3803.99 222.063 L3803.99 206.229 L3800.48 206.229 L3800.48 202.505 L3803.99 202.505 L3803.99 194.224 L3808.81 194.224 Z" fill="#000000" fill-rule="nonzero" fill-opacity="1" /><path clip-path="url(#clip700)" d="M3847.15 240.526 L3847.15 244.25 L3819.44 244.25 L3819.44 240.526 L3847.15 240.526 Z" fill="#000000" fill-rule="nonzero" fill-opacity="1" /><path clip-path="url(#clip700)" d="M3856.86 227.245 L3875.22 227.245 L3875.22 231.672 L3850.53 231.672 L3850.53 227.245 Q3853.53 224.146 3858.68 218.938 Q3863.86 213.703 3865.19 212.193 Q3867.72 209.354 3868.71 207.401 Q3869.72 205.422 3869.72 203.521 Q3869.72 200.422 3867.54 198.469 Q3865.37 196.516 3861.88 196.516 Q3859.41 196.516 3856.65 197.375 Q3853.92 198.235 3850.79 199.979 L3850.79 194.667 Q3853.97 193.391 3856.73 192.74 Q3859.49 192.089 3861.78 192.089 Q3867.82 192.089 3871.42 195.11 Q3875.01 198.13 3875.01 203.183 Q3875.01 205.578 3874.1 207.74 Q3873.21 209.875 3870.84 212.792 Q3870.19 213.547 3866.7 217.167 Q3863.21 220.761 3856.86 227.245 Z" fill="#000000" fill-rule="nonzero" fill-opacity="1" /><path clip-path="url(#clip700)" d="M3898.16 210.136 Q3894.62 210.136 3892.54 212.557 Q3890.48 214.979 3890.48 219.198 Q3890.48 223.391 3892.54 225.839 Q3894.62 228.261 3898.16 228.261 Q3901.7 228.261 3903.76 225.839 Q3905.84 223.391 3905.84 219.198 Q3905.84 214.979 3903.76 212.557 Q3901.7 210.136 3898.16 210.136 M3908.6 193.651 L3908.6 198.443 Q3906.62 197.505 3904.59 197.011 Q3902.59 196.516 3900.61 196.516 Q3895.4 196.516 3892.64 200.031 Q3889.91 203.547 3889.52 210.656 Q3891.05 208.391 3893.37 207.193 Q3895.69 205.969 3898.47 205.969 Q3904.33 205.969 3907.72 209.537 Q3911.13 213.078 3911.13 219.198 Q3911.13 225.188 3907.59 228.807 Q3904.05 232.427 3898.16 232.427 Q3891.42 232.427 3887.85 227.271 Q3884.28 222.089 3884.28 212.271 Q3884.28 203.052 3888.66 197.584 Q3893.03 192.089 3900.4 192.089 Q3902.38 192.089 3904.38 192.479 Q3906.42 192.87 3908.6 193.651 Z" fill="#000000" fill-rule="nonzero" fill-opacity="1" /><polyline clip-path="url(#clip700)" style="stroke:#1ac938; stroke-linecap:round; stroke-linejoin:round; stroke-width:5.625; stroke-opacity:1; fill:none" points="3347.09,270.552 3596.85,270.552 "/>
<path clip-path="url(#clip700)" d="M3643.29 285.617 L3643.29 301.086 L3638.47 301.086 L3638.47 260.825 L3643.29 260.825 L3643.29 265.253 Q3644.8 262.648 3647.09 261.398 Q3649.41 260.122 3652.62 260.122 Q3657.93 260.122 3661.23 264.341 Q3664.57 268.56 3664.57 275.435 Q3664.57 282.31 3661.23 286.528 Q3657.93 290.747 3652.62 290.747 Q3649.41 290.747 3647.09 289.497 Q3644.8 288.221 3643.29 285.617 M3659.59 275.435 Q3659.59 270.148 3657.41 267.154 Q3655.25 264.133 3651.44 264.133 Q3647.64 264.133 3645.45 267.154 Q3643.29 270.148 3643.29 275.435 Q3643.29 280.721 3645.45 283.742 Q3647.64 286.737 3651.44 286.737 Q3655.25 286.737 3657.41 283.742 Q3659.59 280.721 3659.59 275.435 Z" fill="#000000" fill-rule="nonzero" fill-opacity="1" /><path clip-path="url(#clip700)" d="M3689.41 265.305 Q3688.6 264.836 3687.64 264.628 Q3686.7 264.393 3685.56 264.393 Q3681.5 264.393 3679.31 267.049 Q3677.15 269.68 3677.15 274.627 L3677.15 289.992 L3672.33 289.992 L3672.33 260.825 L3677.15 260.825 L3677.15 265.357 Q3678.66 262.7 3681.08 261.424 Q3683.5 260.122 3686.96 260.122 Q3687.46 260.122 3688.06 260.2 Q3688.66 260.253 3689.39 260.383 L3689.41 265.305 Z" fill="#000000" fill-rule="nonzero" fill-opacity="1" /><path clip-path="url(#clip700)" d="M3718.21 274.211 L3718.21 276.555 L3696.18 276.555 Q3696.5 281.502 3699.15 284.107 Q3701.83 286.685 3706.6 286.685 Q3709.36 286.685 3711.94 286.008 Q3714.54 285.331 3717.09 283.976 L3717.09 288.508 Q3714.52 289.601 3711.81 290.174 Q3709.1 290.747 3706.31 290.747 Q3699.33 290.747 3695.25 286.685 Q3691.18 282.622 3691.18 275.695 Q3691.18 268.534 3695.04 264.341 Q3698.92 260.122 3705.48 260.122 Q3711.36 260.122 3714.78 263.924 Q3718.21 267.7 3718.21 274.211 M3713.42 272.805 Q3713.37 268.872 3711.21 266.529 Q3709.07 264.185 3705.53 264.185 Q3701.52 264.185 3699.1 266.45 Q3696.7 268.716 3696.34 272.831 L3713.42 272.805 Z" fill="#000000" fill-rule="nonzero" fill-opacity="1" /><path clip-path="url(#clip700)" d="M3745.27 265.253 L3745.27 249.471 L3750.06 249.471 L3750.06 289.992 L3745.27 289.992 L3745.27 285.617 Q3743.76 288.221 3741.44 289.497 Q3739.15 290.747 3735.92 290.747 Q3730.64 290.747 3727.3 286.528 Q3724 282.31 3724 275.435 Q3724 268.56 3727.3 264.341 Q3730.64 260.122 3735.92 260.122 Q3739.15 260.122 3741.44 261.398 Q3743.76 262.648 3745.27 265.253 M3728.94 275.435 Q3728.94 280.721 3731.1 283.742 Q3733.29 286.737 3737.09 286.737 Q3740.9 286.737 3743.08 283.742 Q3745.27 280.721 3745.27 275.435 Q3745.27 270.148 3743.08 267.154 Q3740.9 264.133 3737.09 264.133 Q3733.29 264.133 3731.1 267.154 Q3728.94 270.148 3728.94 275.435 Z" fill="#000000" fill-rule="nonzero" fill-opacity="1" /><path clip-path="url(#clip700)" d="M3759.93 260.825 L3764.72 260.825 L3764.72 289.992 L3759.93 289.992 L3759.93 260.825 M3759.93 249.471 L3764.72 249.471 L3764.72 255.539 L3759.93 255.539 L3759.93 249.471 Z" fill="#000000" fill-rule="nonzero" fill-opacity="1" /><path clip-path="url(#clip700)" d="M3795.74 261.945 L3795.74 266.424 Q3793.71 265.305 3791.65 264.758 Q3789.62 264.185 3787.54 264.185 Q3782.87 264.185 3780.3 267.154 Q3777.72 270.096 3777.72 275.435 Q3777.72 280.773 3780.3 283.742 Q3782.87 286.685 3787.54 286.685 Q3789.62 286.685 3791.65 286.138 Q3793.71 285.565 3795.74 284.445 L3795.74 288.872 Q3793.73 289.81 3791.57 290.278 Q3789.44 290.747 3787.02 290.747 Q3780.43 290.747 3776.55 286.607 Q3772.67 282.466 3772.67 275.435 Q3772.67 268.299 3776.57 264.211 Q3780.51 260.122 3787.33 260.122 Q3789.54 260.122 3791.65 260.591 Q3793.76 261.034 3795.74 261.945 Z" fill="#000000" fill-rule="nonzero" fill-opacity="1" /><path clip-path="url(#clip700)" d="M3808.81 252.544 L3808.81 260.825 L3818.68 260.825 L3818.68 264.549 L3808.81 264.549 L3808.81 280.383 Q3808.81 283.95 3809.78 284.966 Q3810.77 285.982 3813.76 285.982 L3818.68 285.982 L3818.68 289.992 L3813.76 289.992 Q3808.21 289.992 3806.1 287.935 Q3803.99 285.851 3803.99 280.383 L3803.99 264.549 L3800.48 264.549 L3800.48 260.825 L3803.99 260.825 L3803.99 252.544 L3808.81 252.544 Z" fill="#000000" fill-rule="nonzero" fill-opacity="1" /><path clip-path="url(#clip700)" d="M3847.15 298.846 L3847.15 302.57 L3819.44 302.57 L3819.44 298.846 L3847.15 298.846 Z" fill="#000000" fill-rule="nonzero" fill-opacity="1" /><path clip-path="url(#clip700)" d="M3866.78 255.695 L3853.5 276.45 L3866.78 276.45 L3866.78 255.695 M3865.4 251.112 L3872.02 251.112 L3872.02 276.45 L3877.56 276.45 L3877.56 280.825 L3872.02 280.825 L3872.02 289.992 L3866.78 289.992 L3866.78 280.825 L3849.23 280.825 L3849.23 275.747 L3865.4 251.112 Z" fill="#000000" fill-rule="nonzero" fill-opacity="1" /><polyline clip-path="url(#clip700)" style="stroke:#e8000b; stroke-linecap:round; stroke-linejoin:round; stroke-width:5.625; stroke-opacity:1; fill:none" points="3347.09,328.872 3596.85,328.872 "/>
<path clip-path="url(#clip700)" d="M3643.29 343.937 L3643.29 359.406 L3638.47 359.406 L3638.47 319.145 L3643.29 319.145 L3643.29 323.573 Q3644.8 320.968 3647.09 319.718 Q3649.41 318.442 3652.62 318.442 Q3657.93 318.442 3661.23 322.661 Q3664.57 326.88 3664.57 333.755 Q3664.57 340.63 3661.23 344.848 Q3657.93 349.067 3652.62 349.067 Q3649.41 349.067 3647.09 347.817 Q3644.8 346.541 3643.29 343.937 M3659.59 333.755 Q3659.59 328.468 3657.41 325.474 Q3655.25 322.453 3651.44 322.453 Q3647.64 322.453 3645.45 325.474 Q3643.29 328.468 3643.29 333.755 Q3643.29 339.041 3645.45 342.062 Q3647.64 345.057 3651.44 345.057 Q3655.25 345.057 3657.41 342.062 Q3659.59 339.041 3659.59 333.755 Z" fill="#000000" fill-rule="nonzero" fill-opacity="1" /><path clip-path="url(#clip700)" d="M3689.41 323.625 Q3688.6 323.156 3687.64 322.948 Q3686.7 322.713 3685.56 322.713 Q3681.5 322.713 3679.31 325.369 Q3677.15 328 3677.15 332.947 L3677.15 348.312 L3672.33 348.312 L3672.33 319.145 L3677.15 319.145 L3677.15 323.677 Q3678.66 321.02 3681.08 319.744 Q3683.5 318.442 3686.96 318.442 Q3687.46 318.442 3688.06 318.52 Q3688.66 318.573 3689.39 318.703 L3689.41 323.625 Z" fill="#000000" fill-rule="nonzero" fill-opacity="1" /><path clip-path="url(#clip700)" d="M3718.21 332.531 L3718.21 334.875 L3696.18 334.875 Q3696.5 339.822 3699.15 342.427 Q3701.83 345.005 3706.6 345.005 Q3709.36 345.005 3711.94 344.328 Q3714.54 343.651 3717.09 342.296 L3717.09 346.828 Q3714.52 347.921 3711.81 348.494 Q3709.1 349.067 3706.31 349.067 Q3699.33 349.067 3695.25 345.005 Q3691.18 340.942 3691.18 334.015 Q3691.18 326.854 3695.04 322.661 Q3698.92 318.442 3705.48 318.442 Q3711.36 318.442 3714.78 322.244 Q3718.21 326.02 3718.21 332.531 M3713.42 331.125 Q3713.37 327.192 3711.21 324.849 Q3709.07 322.505 3705.53 322.505 Q3701.52 322.505 3699.1 324.77 Q3696.7 327.036 3696.34 331.151 L3713.42 331.125 Z" fill="#000000" fill-rule="nonzero" fill-opacity="1" /><path clip-path="url(#clip700)" d="M3745.27 323.573 L3745.27 307.791 L3750.06 307.791 L3750.06 348.312 L3745.27 348.312 L3745.27 343.937 Q3743.76 346.541 3741.44 347.817 Q3739.15 349.067 3735.92 349.067 Q3730.64 349.067 3727.3 344.848 Q3724 340.63 3724 333.755 Q3724 326.88 3727.3 322.661 Q3730.64 318.442 3735.92 318.442 Q3739.15 318.442 3741.44 319.718 Q3743.76 320.968 3745.27 323.573 M3728.94 333.755 Q3728.94 339.041 3731.1 342.062 Q3733.29 345.057 3737.09 345.057 Q3740.9 345.057 3743.08 342.062 Q3745.27 339.041 3745.27 333.755 Q3745.27 328.468 3743.08 325.474 Q3740.9 322.453 3737.09 322.453 Q3733.29 322.453 3731.1 325.474 Q3728.94 328.468 3728.94 333.755 Z" fill="#000000" fill-rule="nonzero" fill-opacity="1" /><path clip-path="url(#clip700)" d="M3759.93 319.145 L3764.72 319.145 L3764.72 348.312 L3759.93 348.312 L3759.93 319.145 M3759.93 307.791 L3764.72 307.791 L3764.72 313.859 L3759.93 313.859 L3759.93 307.791 Z" fill="#000000" fill-rule="nonzero" fill-opacity="1" /><path clip-path="url(#clip700)" d="M3795.74 320.265 L3795.74 324.744 Q3793.71 323.625 3791.65 323.078 Q3789.62 322.505 3787.54 322.505 Q3782.87 322.505 3780.3 325.474 Q3777.72 328.416 3777.72 333.755 Q3777.72 339.093 3780.3 342.062 Q3782.87 345.005 3787.54 345.005 Q3789.62 345.005 3791.65 344.458 Q3793.71 343.885 3795.74 342.765 L3795.74 347.192 Q3793.73 348.13 3791.57 348.598 Q3789.44 349.067 3787.02 349.067 Q3780.43 349.067 3776.55 344.927 Q3772.67 340.786 3772.67 333.755 Q3772.67 326.619 3776.57 322.531 Q3780.51 318.442 3787.33 318.442 Q3789.54 318.442 3791.65 318.911 Q3793.76 319.354 3795.74 320.265 Z" fill="#000000" fill-rule="nonzero" fill-opacity="1" /><path clip-path="url(#clip700)" d="M3808.81 310.864 L3808.81 319.145 L3818.68 319.145 L3818.68 322.869 L3808.81 322.869 L3808.81 338.703 Q3808.81 342.27 3809.78 343.286 Q3810.77 344.302 3813.76 344.302 L3818.68 344.302 L3818.68 348.312 L3813.76 348.312 Q3808.21 348.312 3806.1 346.255 Q3803.99 344.171 3803.99 338.703 L3803.99 322.869 L3800.48 322.869 L3800.48 319.145 L3803.99 319.145 L3803.99 310.864 L3808.81 310.864 Z" fill="#000000" fill-rule="nonzero" fill-opacity="1" /><path clip-path="url(#clip700)" d="M3847.15 357.166 L3847.15 360.89 L3819.44 360.89 L3819.44 357.166 L3847.15 357.166 Z" fill="#000000" fill-rule="nonzero" fill-opacity="1" /><path clip-path="url(#clip700)" d="M3853.24 343.885 L3861.83 343.885 L3861.83 314.224 L3852.48 316.099 L3852.48 311.307 L3861.78 309.432 L3867.04 309.432 L3867.04 343.885 L3875.63 343.885 L3875.63 348.312 L3853.24 348.312 L3853.24 343.885 Z" fill="#000000" fill-rule="nonzero" fill-opacity="1" /><polyline clip-path="url(#clip700)" style="stroke:#000000; stroke-linecap:round; stroke-linejoin:round; stroke-width:6.75; stroke-opacity:1; fill:none" points="3347.09,387.192 3596.85,387.192 "/>
<path clip-path="url(#clip700)" d="M3653.55 391.971 Q3647.75 391.971 3645.51 393.299 Q3643.27 394.627 3643.27 397.83 Q3643.27 400.382 3644.93 401.892 Q3646.63 403.377 3649.52 403.377 Q3653.5 403.377 3655.9 400.564 Q3658.32 397.726 3658.32 393.038 L3658.32 391.971 L3653.55 391.971 M3663.11 389.991 L3663.11 406.632 L3658.32 406.632 L3658.32 402.205 Q3656.68 404.861 3654.23 406.137 Q3651.78 407.387 3648.24 407.387 Q3643.76 407.387 3641.1 404.887 Q3638.47 402.361 3638.47 398.142 Q3638.47 393.221 3641.76 390.721 Q3645.06 388.221 3651.6 388.221 L3658.32 388.221 L3658.32 387.752 Q3658.32 384.445 3656.13 382.648 Q3653.97 380.825 3650.04 380.825 Q3647.54 380.825 3645.17 381.424 Q3642.8 382.023 3640.61 383.221 L3640.61 378.794 Q3643.24 377.778 3645.71 377.283 Q3648.19 376.762 3650.53 376.762 Q3656.86 376.762 3659.99 380.044 Q3663.11 383.325 3663.11 389.991 Z" fill="#000000" fill-rule="nonzero" fill-opacity="1" /><path clip-path="url(#clip700)" d="M3693.97 378.585 L3693.97 383.064 Q3691.94 381.945 3689.88 381.398 Q3687.85 380.825 3685.77 380.825 Q3681.1 380.825 3678.53 383.794 Q3675.95 386.736 3675.95 392.075 Q3675.95 397.413 3678.53 400.382 Q3681.1 403.325 3685.77 403.325 Q3687.85 403.325 3689.88 402.778 Q3691.94 402.205 3693.97 401.085 L3693.97 405.512 Q3691.96 406.45 3689.8 406.918 Q3687.67 407.387 3685.25 407.387 Q3678.66 407.387 3674.78 403.247 Q3670.9 399.106 3670.9 392.075 Q3670.9 384.939 3674.8 380.851 Q3678.73 376.762 3685.56 376.762 Q3687.77 376.762 3689.88 377.231 Q3691.99 377.674 3693.97 378.585 Z" fill="#000000" fill-rule="nonzero" fill-opacity="1" /><path clip-path="url(#clip700)" d="M3707.04 369.184 L3707.04 377.465 L3716.91 377.465 L3716.91 381.189 L3707.04 381.189 L3707.04 397.023 Q3707.04 400.59 3708.01 401.606 Q3709 402.622 3711.99 402.622 L3716.91 402.622 L3716.91 406.632 L3711.99 406.632 Q3706.44 406.632 3704.33 404.575 Q3702.22 402.491 3702.22 397.023 L3702.22 381.189 L3698.71 381.189 L3698.71 377.465 L3702.22 377.465 L3702.22 369.184 L3707.04 369.184 Z" fill="#000000" fill-rule="nonzero" fill-opacity="1" /><path clip-path="url(#clip700)" d="M3722.72 395.122 L3722.72 377.465 L3727.51 377.465 L3727.51 394.939 Q3727.51 399.08 3729.13 401.163 Q3730.74 403.221 3733.97 403.221 Q3737.85 403.221 3740.09 400.747 Q3742.35 398.273 3742.35 394.002 L3742.35 377.465 L3747.15 377.465 L3747.15 406.632 L3742.35 406.632 L3742.35 402.153 Q3740.61 404.809 3738.29 406.111 Q3736 407.387 3732.95 407.387 Q3727.93 407.387 3725.32 404.262 Q3722.72 401.137 3722.72 395.122 M3734.78 376.762 L3734.78 376.762 Z" fill="#000000" fill-rule="nonzero" fill-opacity="1" /><path clip-path="url(#clip700)" d="M3770.27 391.971 Q3764.46 391.971 3762.22 393.299 Q3759.98 394.627 3759.98 397.83 Q3759.98 400.382 3761.65 401.892 Q3763.34 403.377 3766.23 403.377 Q3770.22 403.377 3772.61 400.564 Q3775.04 397.726 3775.04 393.038 L3775.04 391.971 L3770.27 391.971 M3779.83 389.991 L3779.83 406.632 L3775.04 406.632 L3775.04 402.205 Q3773.4 404.861 3770.95 406.137 Q3768.5 407.387 3764.96 407.387 Q3760.48 407.387 3757.82 404.887 Q3755.19 402.361 3755.19 398.142 Q3755.19 393.221 3758.47 390.721 Q3761.78 388.221 3768.32 388.221 L3775.04 388.221 L3775.04 387.752 Q3775.04 384.445 3772.85 382.648 Q3770.69 380.825 3766.76 380.825 Q3764.26 380.825 3761.89 381.424 Q3759.52 382.023 3757.33 383.221 L3757.33 378.794 Q3759.96 377.778 3762.43 377.283 Q3764.91 376.762 3767.25 376.762 Q3773.58 376.762 3776.7 380.044 Q3779.83 383.325 3779.83 389.991 Z" fill="#000000" fill-rule="nonzero" fill-opacity="1" /><path clip-path="url(#clip700)" d="M3789.7 366.111 L3794.49 366.111 L3794.49 406.632 L3789.7 406.632 L3789.7 366.111 Z" fill="#000000" fill-rule="nonzero" fill-opacity="1" /></svg>
