<?xml version="1.0" encoding="UTF-8" standalone="no"?>
<!DOCTYPE svg PUBLIC "-//W3C//DTD SVG 1.1//EN"
 "http://www.w3.org/Graphics/SVG/1.1/DTD/svg11.dtd">
<!-- Generated by graphviz version 2.50.0 (20211204.2007)
 -->
<!-- Pages: 1 -->
<svg width="1405pt" height="742pt"
 viewBox="0.00 0.00 1405.00 742.00" xmlns="http://www.w3.org/2000/svg" xmlns:xlink="http://www.w3.org/1999/xlink">
<g id="graph0" class="graph" transform="scale(1 1) rotate(0) translate(4 738)">
<polygon fill="white" stroke="transparent" points="-4,4 -4,-738 1401,-738 1401,4 -4,4"/>
<!-- 1 -->
<g id="node1" class="node">
<title>1</title>
<text text-anchor="start" x="611" y="-715.8" font-family="Arial" font-weight="bold" font-size="14.00"> </text>
<path fill="#ebebeb" stroke="transparent" d="M571,-643C571,-643 655,-643 655,-643 661,-643 667,-649 667,-655 667,-655 667,-695 667,-695 667,-701 661,-707 655,-707 655,-707 571,-707 571,-707 565,-707 559,-701 559,-695 559,-695 559,-655 559,-655 559,-649 565,-643 571,-643"/>
<text text-anchor="start" x="560" y="-704.4" font-family="Arial" font-size="2.00"> </text>
<text text-anchor="start" x="560" y="-698.4" font-family="Arial" font-size="7.00"> &#160;1</text>
<text text-anchor="start" x="574" y="-681.8" font-family="Arial" font-weight="bold" font-size="14.00">Mean: 5.399</text>
<text text-anchor="start" x="589.5" y="-664.8" font-family="Arial" font-weight="bold" font-size="14.00">n = 672</text>
<text text-anchor="start" x="611.5" y="-646.8" font-family="Arial" font-size="9.00"> </text>
<path fill="none" stroke="#333333" d="M571,-643C571,-643 655,-643 655,-643 661,-643 667,-649 667,-655 667,-655 667,-695 667,-695 667,-701 661,-707 655,-707 655,-707 571,-707 571,-707 565,-707 559,-701 559,-695 559,-695 559,-655 559,-655 559,-649 565,-643 571,-643"/>
<text text-anchor="start" x="598.5" y="-628.8" font-family="Arial" font-weight="bold" font-size="14.00">time</text>
</g>
<!-- 2 -->
<g id="node2" class="node">
<title>2</title>
<text text-anchor="start" x="479.5" y="-561.8" font-family="Arial" font-weight="bold" font-size="14.00"> &lt; 6.5</text>
<path fill="#ebebeb" stroke="transparent" d="M455,-489C455,-489 539,-489 539,-489 545,-489 551,-495 551,-501 551,-501 551,-541 551,-541 551,-547 545,-553 539,-553 539,-553 455,-553 455,-553 449,-553 443,-547 443,-541 443,-541 443,-501 443,-501 443,-495 449,-489 455,-489"/>
<text text-anchor="start" x="444" y="-550.4" font-family="Arial" font-size="2.00"> </text>
<text text-anchor="start" x="444" y="-544.4" font-family="Arial" font-size="7.00"> &#160;2</text>
<text text-anchor="start" x="458" y="-527.8" font-family="Arial" font-weight="bold" font-size="14.00">Mean: 3.889</text>
<text text-anchor="start" x="473.5" y="-510.8" font-family="Arial" font-weight="bold" font-size="14.00">n = 196</text>
<text text-anchor="start" x="495.5" y="-492.8" font-family="Arial" font-size="9.00"> </text>
<path fill="none" stroke="#333333" d="M455,-489C455,-489 539,-489 539,-489 545,-489 551,-495 551,-501 551,-501 551,-541 551,-541 551,-547 545,-553 539,-553 539,-553 455,-553 455,-553 449,-553 443,-547 443,-541 443,-541 443,-501 443,-501 443,-495 449,-489 455,-489"/>
<text text-anchor="start" x="482.5" y="-474.8" font-family="Arial" font-weight="bold" font-size="14.00">time</text>
</g>
<!-- 1&#45;&gt;2 -->
<g id="edge1" class="edge">
<title>1&#45;&gt;2</title>
<path fill="none" stroke="#888888" d="M568.48,-615.67C561.61,-606.67 554.48,-597.32 547.49,-588.16"/>
<polygon fill="#888888" stroke="#888888" points="550.25,-586 541.4,-580.18 544.68,-590.25 550.25,-586"/>
</g>
<!-- 9 -->
<g id="node3" class="node">
<title>9</title>
<text text-anchor="start" x="712" y="-561.8" font-family="Arial" font-weight="bold" font-size="14.00"> ≥ 6.5</text>
<text text-anchor="start" x="665" y="-517.3" font-family="Arial" font-size="14.00"> &#160;</text>
<path fill="#ebebeb" stroke="transparent" d="M687,-489C687,-489 771,-489 771,-489 777,-489 783,-495 783,-501 783,-501 783,-541 783,-541 783,-547 777,-553 771,-553 771,-553 687,-553 687,-553 681,-553 675,-547 675,-541 675,-541 675,-501 675,-501 675,-495 681,-489 687,-489"/>
<text text-anchor="start" x="676" y="-550.4" font-family="Arial" font-size="2.00"> </text>
<text text-anchor="start" x="676" y="-544.4" font-family="Arial" font-size="7.00"> &#160;9</text>
<text text-anchor="start" x="690" y="-527.8" font-family="Arial" font-weight="bold" font-size="14.00">Mean: 6.021</text>
<text text-anchor="start" x="705.5" y="-510.8" font-family="Arial" font-weight="bold" font-size="14.00">n = 476</text>
<text text-anchor="start" x="727.5" y="-492.8" font-family="Arial" font-size="9.00"> </text>
<path fill="none" stroke="#333333" d="M687,-489C687,-489 771,-489 771,-489 777,-489 783,-495 783,-501 783,-501 783,-541 783,-541 783,-547 777,-553 771,-553 771,-553 687,-553 687,-553 681,-553 675,-547 675,-541 675,-541 675,-501 675,-501 675,-495 681,-489 687,-489"/>
<text text-anchor="start" x="785" y="-517.3" font-family="Arial" font-size="14.00"> &#160;</text>
<text text-anchor="start" x="679" y="-474.8" font-family="Arial" font-weight="bold" font-size="14.00">prev_1h_inflow</text>
</g>
<!-- 1&#45;&gt;9 -->
<g id="edge2" class="edge">
<title>1&#45;&gt;9</title>
<path fill="none" stroke="#888888" d="M657.52,-615.67C664.39,-606.67 671.52,-597.32 678.51,-588.16"/>
<polygon fill="#888888" stroke="#888888" points="681.32,-590.25 684.6,-580.18 675.75,-586 681.32,-590.25"/>
</g>
<!-- 3 -->
<g id="node4" class="node">
<title>3</title>
<text text-anchor="start" x="207.5" y="-407.8" font-family="Arial" font-weight="bold" font-size="14.00"> &lt; 4.5</text>
<text text-anchor="start" x="161" y="-363.3" font-family="Arial" font-size="14.00"> &#160;</text>
<path fill="#ebebeb" stroke="transparent" d="M183,-335C183,-335 267,-335 267,-335 273,-335 279,-341 279,-347 279,-347 279,-387 279,-387 279,-393 273,-399 267,-399 267,-399 183,-399 183,-399 177,-399 171,-393 171,-387 171,-387 171,-347 171,-347 171,-341 177,-335 183,-335"/>
<text text-anchor="start" x="172" y="-396.4" font-family="Arial" font-size="2.00"> </text>
<text text-anchor="start" x="172" y="-390.4" font-family="Arial" font-size="7.00"> &#160;3</text>
<text text-anchor="start" x="186" y="-373.8" font-family="Arial" font-weight="bold" font-size="14.00">Mean: 3.313</text>
<text text-anchor="start" x="201.5" y="-356.8" font-family="Arial" font-weight="bold" font-size="14.00">n = 140</text>
<text text-anchor="start" x="223.5" y="-338.8" font-family="Arial" font-size="9.00"> </text>
<path fill="none" stroke="#333333" d="M183,-335C183,-335 267,-335 267,-335 273,-335 279,-341 279,-347 279,-347 279,-387 279,-387 279,-393 273,-399 267,-399 267,-399 183,-399 183,-399 177,-399 171,-393 171,-387 171,-387 171,-347 171,-347 171,-341 177,-335 183,-335"/>
<text text-anchor="start" x="281" y="-363.3" font-family="Arial" font-size="14.00"> &#160;</text>
<text text-anchor="start" x="175" y="-320.8" font-family="Arial" font-weight="bold" font-size="14.00">prev_1h_inflow</text>
</g>
<!-- 2&#45;&gt;3 -->
<g id="edge3" class="edge">
<title>2&#45;&gt;3</title>
<path fill="none" stroke="#888888" d="M430.81,-483.01C393.82,-462.34 347.38,-436.39 307.98,-414.37"/>
<polygon fill="#888888" stroke="#888888" points="309.61,-411.27 299.17,-409.45 306.19,-417.38 309.61,-411.27"/>
</g>
<!-- 6 -->
<g id="node5" class="node">
<title>6</title>
<text text-anchor="start" x="480" y="-407.8" font-family="Arial" font-weight="bold" font-size="14.00"> ≥ 4.5</text>
<text text-anchor="start" x="433" y="-363.3" font-family="Arial" font-size="14.00"> &#160;</text>
<path fill="#ebebeb" stroke="transparent" d="M455,-335C455,-335 539,-335 539,-335 545,-335 551,-341 551,-347 551,-347 551,-387 551,-387 551,-393 545,-399 539,-399 539,-399 455,-399 455,-399 449,-399 443,-393 443,-387 443,-387 443,-347 443,-347 443,-341 449,-335 455,-335"/>
<text text-anchor="start" x="444" y="-396.4" font-family="Arial" font-size="2.00"> </text>
<text text-anchor="start" x="444" y="-390.4" font-family="Arial" font-size="7.00"> &#160;6</text>
<text text-anchor="start" x="458" y="-373.8" font-family="Arial" font-weight="bold" font-size="14.00">Mean: 5.329</text>
<text text-anchor="start" x="477" y="-356.8" font-family="Arial" font-weight="bold" font-size="14.00">n = 56</text>
<text text-anchor="start" x="495.5" y="-338.8" font-family="Arial" font-size="9.00"> </text>
<path fill="none" stroke="#333333" d="M455,-335C455,-335 539,-335 539,-335 545,-335 551,-341 551,-347 551,-347 551,-387 551,-387 551,-393 545,-399 539,-399 539,-399 455,-399 455,-399 449,-399 443,-393 443,-387 443,-387 443,-347 443,-347 443,-341 449,-335 455,-335"/>
<text text-anchor="start" x="553" y="-363.3" font-family="Arial" font-size="14.00"> &#160;</text>
<text text-anchor="start" x="447" y="-320.8" font-family="Arial" font-weight="bold" font-size="14.00">prev_1h_inflow</text>
</g>
<!-- 2&#45;&gt;6 -->
<g id="edge4" class="edge">
<title>2&#45;&gt;6</title>
<path fill="none" stroke="#888888" d="M497,-461.67C497,-453.39 497,-444.83 497,-436.38"/>
<polygon fill="#888888" stroke="#888888" points="500.5,-436.18 497,-426.18 493.5,-436.18 500.5,-436.18"/>
</g>
<!-- 10 -->
<g id="node10" class="node">
<title>10</title>
<text text-anchor="start" x="704" y="-407.8" font-family="Arial" font-weight="bold" font-size="14.00"> &lt; 6.595</text>
<text text-anchor="start" x="665" y="-363.3" font-family="Arial" font-size="14.00"> &#160;</text>
<path fill="#ebebeb" stroke="transparent" d="M687,-335C687,-335 771,-335 771,-335 777,-335 783,-341 783,-347 783,-347 783,-387 783,-387 783,-393 777,-399 771,-399 771,-399 687,-399 687,-399 681,-399 675,-393 675,-387 675,-387 675,-347 675,-347 675,-341 681,-335 687,-335"/>
<text text-anchor="start" x="676" y="-396.4" font-family="Arial" font-size="2.00"> </text>
<text text-anchor="start" x="676" y="-390.4" font-family="Arial" font-size="7.00"> &#160;10</text>
<text text-anchor="start" x="690" y="-373.8" font-family="Arial" font-weight="bold" font-size="14.00">Mean: 5.266</text>
<text text-anchor="start" x="705.5" y="-356.8" font-family="Arial" font-weight="bold" font-size="14.00">n = 312</text>
<text text-anchor="start" x="727.5" y="-338.8" font-family="Arial" font-size="9.00"> </text>
<path fill="none" stroke="#333333" d="M687,-335C687,-335 771,-335 771,-335 777,-335 783,-341 783,-347 783,-347 783,-387 783,-387 783,-393 777,-399 771,-399 771,-399 687,-399 687,-399 681,-399 675,-393 675,-387 675,-387 675,-347 675,-347 675,-341 681,-335 687,-335"/>
<text text-anchor="start" x="785" y="-363.3" font-family="Arial" font-size="14.00"> &#160;</text>
<text text-anchor="start" x="679" y="-320.8" font-family="Arial" font-weight="bold" font-size="14.00">prev_1h_inflow</text>
</g>
<!-- 9&#45;&gt;10 -->
<g id="edge9" class="edge">
<title>9&#45;&gt;10</title>
<path fill="none" stroke="#888888" d="M729,-461.67C729,-453.39 729,-444.83 729,-436.38"/>
<polygon fill="#888888" stroke="#888888" points="732.5,-436.18 729,-426.18 725.5,-436.18 732.5,-436.18"/>
</g>
<!-- 17 -->
<g id="node11" class="node">
<title>17</title>
<text text-anchor="start" x="992.5" y="-407.8" font-family="Arial" font-weight="bold" font-size="14.00"> ≥ 6.595</text>
<text text-anchor="start" x="949" y="-363.3" font-family="Arial" font-size="14.00"> &#160;&#160;</text>
<path fill="#ebebeb" stroke="transparent" d="M975,-335C975,-335 1059,-335 1059,-335 1065,-335 1071,-341 1071,-347 1071,-347 1071,-387 1071,-387 1071,-393 1065,-399 1059,-399 1059,-399 975,-399 975,-399 969,-399 963,-393 963,-387 963,-387 963,-347 963,-347 963,-341 969,-335 975,-335"/>
<text text-anchor="start" x="964" y="-396.4" font-family="Arial" font-size="2.00"> </text>
<text text-anchor="start" x="964" y="-390.4" font-family="Arial" font-size="7.00"> &#160;17</text>
<text text-anchor="start" x="978" y="-373.8" font-family="Arial" font-weight="bold" font-size="14.00">Mean: 7.457</text>
<text text-anchor="start" x="993.5" y="-356.8" font-family="Arial" font-weight="bold" font-size="14.00">n = 164</text>
<text text-anchor="start" x="1015.5" y="-338.8" font-family="Arial" font-size="9.00"> </text>
<path fill="none" stroke="#333333" d="M975,-335C975,-335 1059,-335 1059,-335 1065,-335 1071,-341 1071,-347 1071,-347 1071,-387 1071,-387 1071,-393 1065,-399 1059,-399 1059,-399 975,-399 975,-399 969,-399 963,-393 963,-387 963,-387 963,-347 963,-347 963,-341 969,-335 975,-335"/>
<text text-anchor="start" x="1073" y="-363.3" font-family="Arial" font-size="14.00"> &#160;&#160;</text>
<text text-anchor="start" x="963.5" y="-320.8" font-family="Arial" font-weight="bold" font-size="14.00">prev_24h_inflow</text>
</g>
<!-- 9&#45;&gt;17 -->
<g id="edge10" class="edge">
<title>9&#45;&gt;17</title>
<path fill="none" stroke="#888888" d="M803.17,-480.86C841.83,-460.45 889.35,-435.37 929.76,-414.04"/>
<polygon fill="#888888" stroke="#888888" points="931.59,-417.03 938.8,-409.27 928.33,-410.84 931.59,-417.03"/>
</g>
<!-- 4 -->
<g id="node6" class="node">
<title>4</title>
<text text-anchor="start" x="47.5" y="-253.8" font-family="Arial" font-weight="bold" font-size="14.00"> &lt; 4.46</text>
<path fill="#f8766d" fill-opacity="0.874510" stroke="transparent" d="M24,-181C24,-181 114,-181 114,-181 120,-181 126,-187 126,-193 126,-193 126,-233 126,-233 126,-239 120,-245 114,-245 114,-245 24,-245 24,-245 18,-245 12,-239 12,-233 12,-233 12,-193 12,-193 12,-187 18,-181 24,-181"/>
<text text-anchor="start" x="13" y="-242.4" font-family="Arial" font-size="2.00"> </text>
<text text-anchor="start" x="13" y="-236.4" font-family="Arial" font-size="7.00"> &#160;4</text>
<text text-anchor="start" x="27" y="-219.8" font-family="Arial" font-weight="bold" font-size="14.00">Predict 2.933</text>
<text text-anchor="start" x="45.5" y="-202.8" font-family="Arial" font-weight="bold" font-size="14.00">n = 100</text>
<text text-anchor="start" x="67.5" y="-184.8" font-family="Arial" font-size="9.00"> </text>
<path fill="none" stroke="#333333" d="M24,-181C24,-181 114,-181 114,-181 120,-181 126,-187 126,-193 126,-193 126,-233 126,-233 126,-239 120,-245 114,-245 114,-245 24,-245 24,-245 18,-245 12,-239 12,-233 12,-233 12,-193 12,-193 12,-187 18,-181 24,-181"/>
<text text-anchor="start" x="67" y="-166.8" font-family="Arial" font-weight="bold" font-size="14.00"> </text>
</g>
<!-- 3&#45;&gt;4 -->
<g id="edge5" class="edge">
<title>3&#45;&gt;4</title>
<path fill="none" stroke="#888888" d="M165.13,-307.67C155.62,-298.39 145.72,-288.75 136.05,-279.33"/>
<polygon fill="#888888" stroke="#888888" points="138.31,-276.65 128.71,-272.18 133.43,-281.66 138.31,-276.65"/>
</g>
<!-- 5 -->
<g id="node7" class="node">
<title>5</title>
<text text-anchor="start" x="204" y="-253.8" font-family="Arial" font-weight="bold" font-size="14.00"> ≥ 4.46</text>
<path fill="#f8766d" fill-opacity="0.764706" stroke="transparent" d="M180,-181C180,-181 270,-181 270,-181 276,-181 282,-187 282,-193 282,-193 282,-233 282,-233 282,-239 276,-245 270,-245 270,-245 180,-245 180,-245 174,-245 168,-239 168,-233 168,-233 168,-193 168,-193 168,-187 174,-181 180,-181"/>
<text text-anchor="start" x="169" y="-242.4" font-family="Arial" font-size="2.00"> </text>
<text text-anchor="start" x="169" y="-236.4" font-family="Arial" font-size="7.00"> &#160;5</text>
<text text-anchor="start" x="183" y="-219.8" font-family="Arial" font-weight="bold" font-size="14.00">Predict 4.263</text>
<text text-anchor="start" x="205" y="-202.8" font-family="Arial" font-weight="bold" font-size="14.00">n = 40</text>
<text text-anchor="start" x="223.5" y="-184.8" font-family="Arial" font-size="9.00"> </text>
<path fill="none" stroke="#333333" d="M180,-181C180,-181 270,-181 270,-181 276,-181 282,-187 282,-193 282,-193 282,-233 282,-233 282,-239 276,-245 270,-245 270,-245 180,-245 180,-245 174,-245 168,-239 168,-233 168,-233 168,-193 168,-193 168,-187 174,-181 180,-181"/>
<text text-anchor="start" x="223" y="-166.8" font-family="Arial" font-weight="bold" font-size="14.00"> </text>
</g>
<!-- 3&#45;&gt;5 -->
<g id="edge6" class="edge">
<title>3&#45;&gt;5</title>
<path fill="none" stroke="#888888" d="M225,-307.67C225,-299.39 225,-290.83 225,-282.38"/>
<polygon fill="#888888" stroke="#888888" points="228.5,-282.18 225,-272.18 221.5,-282.18 228.5,-282.18"/>
</g>
<!-- 7 -->
<g id="node8" class="node">
<title>7</title>
<text text-anchor="start" x="356" y="-253.8" font-family="Arial" font-weight="bold" font-size="14.00"> &lt; 3.535</text>
<path fill="#f8766d" fill-opacity="0.772549" stroke="transparent" d="M336,-181C336,-181 426,-181 426,-181 432,-181 438,-187 438,-193 438,-193 438,-233 438,-233 438,-239 432,-245 426,-245 426,-245 336,-245 336,-245 330,-245 324,-239 324,-233 324,-233 324,-193 324,-193 324,-187 330,-181 336,-181"/>
<text text-anchor="start" x="325" y="-242.4" font-family="Arial" font-size="2.00"> </text>
<text text-anchor="start" x="325" y="-236.4" font-family="Arial" font-size="7.00"> &#160;7</text>
<text text-anchor="start" x="339" y="-219.8" font-family="Arial" font-weight="bold" font-size="14.00">Predict 4.166</text>
<text text-anchor="start" x="361" y="-202.8" font-family="Arial" font-weight="bold" font-size="14.00">n = 30</text>
<text text-anchor="start" x="379.5" y="-184.8" font-family="Arial" font-size="9.00"> </text>
<path fill="none" stroke="#333333" d="M336,-181C336,-181 426,-181 426,-181 432,-181 438,-187 438,-193 438,-193 438,-233 438,-233 438,-239 432,-245 426,-245 426,-245 336,-245 336,-245 330,-245 324,-239 324,-233 324,-233 324,-193 324,-193 324,-187 330,-181 336,-181"/>
<text text-anchor="start" x="379" y="-166.8" font-family="Arial" font-weight="bold" font-size="14.00"> </text>
</g>
<!-- 6&#45;&gt;7 -->
<g id="edge7" class="edge">
<title>6&#45;&gt;7</title>
<path fill="none" stroke="#888888" d="M452.48,-307.67C445.61,-298.67 438.48,-289.32 431.49,-280.16"/>
<polygon fill="#888888" stroke="#888888" points="434.25,-278 425.4,-272.18 428.68,-282.25 434.25,-278"/>
</g>
<!-- 8 -->
<g id="node9" class="node">
<title>8</title>
<text text-anchor="start" x="512.5" y="-253.8" font-family="Arial" font-weight="bold" font-size="14.00"> ≥ 3.535</text>
<path fill="#f8766d" fill-opacity="0.560784" stroke="transparent" d="M492,-181C492,-181 582,-181 582,-181 588,-181 594,-187 594,-193 594,-193 594,-233 594,-233 594,-239 588,-245 582,-245 582,-245 492,-245 492,-245 486,-245 480,-239 480,-233 480,-233 480,-193 480,-193 480,-187 486,-181 492,-181"/>
<text text-anchor="start" x="481" y="-242.4" font-family="Arial" font-size="2.00"> </text>
<text text-anchor="start" x="481" y="-236.4" font-family="Arial" font-size="7.00"> &#160;8</text>
<text text-anchor="start" x="495" y="-219.8" font-family="Arial" font-weight="bold" font-size="14.00">Predict 6.672</text>
<text text-anchor="start" x="517" y="-202.8" font-family="Arial" font-weight="bold" font-size="14.00">n = 26</text>
<text text-anchor="start" x="535.5" y="-184.8" font-family="Arial" font-size="9.00"> </text>
<path fill="none" stroke="#333333" d="M492,-181C492,-181 582,-181 582,-181 588,-181 594,-187 594,-193 594,-193 594,-233 594,-233 594,-239 588,-245 582,-245 582,-245 492,-245 492,-245 486,-245 480,-239 480,-233 480,-233 480,-193 480,-193 480,-187 486,-181 492,-181"/>
<text text-anchor="start" x="535" y="-166.8" font-family="Arial" font-weight="bold" font-size="14.00"> </text>
</g>
<!-- 6&#45;&gt;8 -->
<g id="edge8" class="edge">
<title>6&#45;&gt;8</title>
<path fill="none" stroke="#888888" d="M512.35,-307.67C514.55,-299.3 516.83,-290.64 519.08,-282.1"/>
<polygon fill="#888888" stroke="#888888" points="522.53,-282.74 521.69,-272.18 515.76,-280.96 522.53,-282.74"/>
</g>
<!-- 11 -->
<g id="node12" class="node">
<title>11</title>
<text text-anchor="start" x="665" y="-253.8" font-family="Arial" font-weight="bold" font-size="14.00"> &lt; 5.335</text>
<path fill="#ebebeb" stroke="transparent" d="M648,-181C648,-181 732,-181 732,-181 738,-181 744,-187 744,-193 744,-193 744,-233 744,-233 744,-239 738,-245 732,-245 732,-245 648,-245 648,-245 642,-245 636,-239 636,-233 636,-233 636,-193 636,-193 636,-187 642,-181 648,-181"/>
<text text-anchor="start" x="637" y="-242.4" font-family="Arial" font-size="2.00"> </text>
<text text-anchor="start" x="637" y="-236.4" font-family="Arial" font-size="7.00"> &#160;11</text>
<text text-anchor="start" x="651" y="-219.8" font-family="Arial" font-weight="bold" font-size="14.00">Mean: 4.778</text>
<text text-anchor="start" x="666.5" y="-202.8" font-family="Arial" font-weight="bold" font-size="14.00">n = 190</text>
<text text-anchor="start" x="688.5" y="-184.8" font-family="Arial" font-size="9.00"> </text>
<path fill="none" stroke="#333333" d="M648,-181C648,-181 732,-181 732,-181 738,-181 744,-187 744,-193 744,-193 744,-233 744,-233 744,-239 738,-245 732,-245 732,-245 648,-245 648,-245 642,-245 636,-239 636,-233 636,-233 636,-193 636,-193 636,-187 642,-181 648,-181"/>
<text text-anchor="start" x="675.5" y="-166.8" font-family="Arial" font-weight="bold" font-size="14.00">time</text>
</g>
<!-- 10&#45;&gt;11 -->
<g id="edge11" class="edge">
<title>10&#45;&gt;11</title>
<path fill="none" stroke="#888888" d="M714.03,-307.67C711.89,-299.3 709.66,-290.64 707.47,-282.1"/>
<polygon fill="#888888" stroke="#888888" points="710.8,-280.99 704.93,-272.18 704.02,-282.73 710.8,-280.99"/>
</g>
<!-- 14 -->
<g id="node13" class="node">
<title>14</title>
<text text-anchor="start" x="827.5" y="-253.8" font-family="Arial" font-weight="bold" font-size="14.00"> ≥ 5.335</text>
<text text-anchor="start" x="784" y="-209.3" font-family="Arial" font-size="14.00"> &#160;&#160;</text>
<path fill="#ebebeb" stroke="transparent" d="M810,-181C810,-181 894,-181 894,-181 900,-181 906,-187 906,-193 906,-193 906,-233 906,-233 906,-239 900,-245 894,-245 894,-245 810,-245 810,-245 804,-245 798,-239 798,-233 798,-233 798,-193 798,-193 798,-187 804,-181 810,-181"/>
<text text-anchor="start" x="799" y="-242.4" font-family="Arial" font-size="2.00"> </text>
<text text-anchor="start" x="799" y="-236.4" font-family="Arial" font-size="7.00"> &#160;14</text>
<text text-anchor="start" x="813" y="-219.8" font-family="Arial" font-weight="bold" font-size="14.00">Mean: 6.026</text>
<text text-anchor="start" x="828.5" y="-202.8" font-family="Arial" font-weight="bold" font-size="14.00">n = 122</text>
<text text-anchor="start" x="850.5" y="-184.8" font-family="Arial" font-size="9.00"> </text>
<path fill="none" stroke="#333333" d="M810,-181C810,-181 894,-181 894,-181 900,-181 906,-187 906,-193 906,-193 906,-233 906,-233 906,-239 900,-245 894,-245 894,-245 810,-245 810,-245 804,-245 798,-239 798,-233 798,-233 798,-193 798,-193 798,-187 804,-181 810,-181"/>
<text text-anchor="start" x="908" y="-209.3" font-family="Arial" font-size="14.00"> &#160;&#160;</text>
<text text-anchor="start" x="798.5" y="-166.8" font-family="Arial" font-weight="bold" font-size="14.00">prev_24h_inflow</text>
</g>
<!-- 10&#45;&gt;14 -->
<g id="edge12" class="edge">
<title>10&#45;&gt;14</title>
<path fill="none" stroke="#888888" d="M776.2,-307.67C783.49,-298.67 791.05,-289.32 798.46,-280.16"/>
<polygon fill="#888888" stroke="#888888" points="801.35,-282.15 804.92,-272.18 795.91,-277.75 801.35,-282.15"/>
</g>
<!-- 18 -->
<g id="node18" class="node">
<title>18</title>
<text text-anchor="start" x="995.5" y="-253.8" font-family="Arial" font-weight="bold" font-size="14.00"> &lt; 6.85</text>
<path fill="#f8766d" fill-opacity="0.560784" stroke="transparent" d="M972,-181C972,-181 1062,-181 1062,-181 1068,-181 1074,-187 1074,-193 1074,-193 1074,-233 1074,-233 1074,-239 1068,-245 1062,-245 1062,-245 972,-245 972,-245 966,-245 960,-239 960,-233 960,-233 960,-193 960,-193 960,-187 966,-181 972,-181"/>
<text text-anchor="start" x="961" y="-242.4" font-family="Arial" font-size="2.00"> </text>
<text text-anchor="start" x="961" y="-236.4" font-family="Arial" font-size="7.00"> &#160;18</text>
<text text-anchor="start" x="975" y="-219.8" font-family="Arial" font-weight="bold" font-size="14.00">Predict 6.661</text>
<text text-anchor="start" x="997" y="-202.8" font-family="Arial" font-weight="bold" font-size="14.00">n = 72</text>
<text text-anchor="start" x="1015.5" y="-184.8" font-family="Arial" font-size="9.00"> </text>
<path fill="none" stroke="#333333" d="M972,-181C972,-181 1062,-181 1062,-181 1068,-181 1074,-187 1074,-193 1074,-193 1074,-233 1074,-233 1074,-239 1068,-245 1062,-245 1062,-245 972,-245 972,-245 966,-245 960,-239 960,-233 960,-233 960,-193 960,-193 960,-187 966,-181 972,-181"/>
<text text-anchor="start" x="1015" y="-166.8" font-family="Arial" font-weight="bold" font-size="14.00"> </text>
</g>
<!-- 17&#45;&gt;18 -->
<g id="edge17" class="edge">
<title>17&#45;&gt;18</title>
<path fill="none" stroke="#888888" d="M1017,-307.67C1017,-299.39 1017,-290.83 1017,-282.38"/>
<polygon fill="#888888" stroke="#888888" points="1020.5,-282.18 1017,-272.18 1013.5,-282.18 1020.5,-282.18"/>
</g>
<!-- 19 -->
<g id="node19" class="node">
<title>19</title>
<text text-anchor="start" x="1157" y="-253.8" font-family="Arial" font-weight="bold" font-size="14.00"> ≥ 6.85</text>
<text text-anchor="start" x="1114" y="-209.3" font-family="Arial" font-size="14.00"> &#160;</text>
<path fill="#ebebeb" stroke="transparent" d="M1136,-181C1136,-181 1220,-181 1220,-181 1226,-181 1232,-187 1232,-193 1232,-193 1232,-233 1232,-233 1232,-239 1226,-245 1220,-245 1220,-245 1136,-245 1136,-245 1130,-245 1124,-239 1124,-233 1124,-233 1124,-193 1124,-193 1124,-187 1130,-181 1136,-181"/>
<text text-anchor="start" x="1125" y="-242.4" font-family="Arial" font-size="2.00"> </text>
<text text-anchor="start" x="1125" y="-236.4" font-family="Arial" font-size="7.00"> &#160;19</text>
<text text-anchor="start" x="1139" y="-219.8" font-family="Arial" font-weight="bold" font-size="14.00">Mean: 8.081</text>
<text text-anchor="start" x="1158" y="-202.8" font-family="Arial" font-weight="bold" font-size="14.00">n = 92</text>
<text text-anchor="start" x="1176.5" y="-184.8" font-family="Arial" font-size="9.00"> </text>
<path fill="none" stroke="#333333" d="M1136,-181C1136,-181 1220,-181 1220,-181 1226,-181 1232,-187 1232,-193 1232,-193 1232,-233 1232,-233 1232,-239 1226,-245 1220,-245 1220,-245 1136,-245 1136,-245 1130,-245 1124,-239 1124,-233 1124,-233 1124,-193 1124,-193 1124,-187 1130,-181 1136,-181"/>
<text text-anchor="start" x="1234" y="-209.3" font-family="Arial" font-size="14.00"> &#160;</text>
<text text-anchor="start" x="1128" y="-166.8" font-family="Arial" font-weight="bold" font-size="14.00">prev_1h_inflow</text>
</g>
<!-- 17&#45;&gt;19 -->
<g id="edge18" class="edge">
<title>17&#45;&gt;19</title>
<path fill="none" stroke="#888888" d="M1078.79,-307.67C1088.71,-298.3 1099.03,-288.56 1109.1,-279.05"/>
<polygon fill="#888888" stroke="#888888" points="1111.51,-281.59 1116.38,-272.18 1106.7,-276.5 1111.51,-281.59"/>
</g>
<!-- 12 -->
<g id="node14" class="node">
<title>12</title>
<text text-anchor="start" x="513.5" y="-99.8" font-family="Arial" font-weight="bold" font-size="14.00"> &lt; 16.5</text>
<path fill="#f8766d" fill-opacity="0.741176" stroke="transparent" d="M490,-27C490,-27 580,-27 580,-27 586,-27 592,-33 592,-39 592,-39 592,-79 592,-79 592,-85 586,-91 580,-91 580,-91 490,-91 490,-91 484,-91 478,-85 478,-79 478,-79 478,-39 478,-39 478,-33 484,-27 490,-27"/>
<text text-anchor="start" x="479" y="-88.4" font-family="Arial" font-size="2.00"> </text>
<text text-anchor="start" x="479" y="-82.4" font-family="Arial" font-size="7.00"> &#160;12</text>
<text text-anchor="start" x="493" y="-65.8" font-family="Arial" font-weight="bold" font-size="14.00">Predict 4.538</text>
<text text-anchor="start" x="511.5" y="-48.8" font-family="Arial" font-weight="bold" font-size="14.00">n = 128</text>
<text text-anchor="start" x="533.5" y="-30.8" font-family="Arial" font-size="9.00"> </text>
<path fill="none" stroke="#333333" d="M490,-27C490,-27 580,-27 580,-27 586,-27 592,-33 592,-39 592,-39 592,-79 592,-79 592,-85 586,-91 580,-91 580,-91 490,-91 490,-91 484,-91 478,-85 478,-79 478,-79 478,-39 478,-39 478,-33 484,-27 490,-27"/>
<text text-anchor="start" x="533" y="-12.8" font-family="Arial" font-weight="bold" font-size="14.00"> </text>
</g>
<!-- 11&#45;&gt;12 -->
<g id="edge13" class="edge">
<title>11&#45;&gt;12</title>
<path fill="none" stroke="#888888" d="M630.52,-153.67C621.06,-144.39 611.22,-134.75 601.62,-125.33"/>
<polygon fill="#888888" stroke="#888888" points="603.92,-122.68 594.32,-118.18 599.01,-127.68 603.92,-122.68"/>
</g>
<!-- 13 -->
<g id="node15" class="node">
<title>13</title>
<text text-anchor="start" x="670" y="-99.8" font-family="Arial" font-weight="bold" font-size="14.00"> ≥ 16.5</text>
<path fill="#f8766d" fill-opacity="0.678431" stroke="transparent" d="M646,-27C646,-27 736,-27 736,-27 742,-27 748,-33 748,-39 748,-39 748,-79 748,-79 748,-85 742,-91 736,-91 736,-91 646,-91 646,-91 640,-91 634,-85 634,-79 634,-79 634,-39 634,-39 634,-33 640,-27 646,-27"/>
<text text-anchor="start" x="635" y="-88.4" font-family="Arial" font-size="2.00"> </text>
<text text-anchor="start" x="635" y="-82.4" font-family="Arial" font-size="7.00"> &#160;13</text>
<text text-anchor="start" x="649" y="-65.8" font-family="Arial" font-weight="bold" font-size="14.00">Predict 5.273</text>
<text text-anchor="start" x="671" y="-48.8" font-family="Arial" font-weight="bold" font-size="14.00">n = 62</text>
<text text-anchor="start" x="689.5" y="-30.8" font-family="Arial" font-size="9.00"> </text>
<path fill="none" stroke="#333333" d="M646,-27C646,-27 736,-27 736,-27 742,-27 748,-33 748,-39 748,-39 748,-79 748,-79 748,-85 742,-91 736,-91 736,-91 646,-91 646,-91 640,-91 634,-85 634,-79 634,-79 634,-39 634,-39 634,-33 640,-27 646,-27"/>
<text text-anchor="start" x="689" y="-12.8" font-family="Arial" font-weight="bold" font-size="14.00"> </text>
</g>
<!-- 11&#45;&gt;13 -->
<g id="edge14" class="edge">
<title>11&#45;&gt;13</title>
<path fill="none" stroke="#888888" d="M690.38,-153.67C690.44,-145.39 690.49,-136.83 690.55,-128.38"/>
<polygon fill="#888888" stroke="#888888" points="694.05,-128.2 690.62,-118.18 687.05,-128.15 694.05,-128.2"/>
</g>
<!-- 15 -->
<g id="node16" class="node">
<title>15</title>
<text text-anchor="start" x="825" y="-99.8" font-family="Arial" font-weight="bold" font-size="14.00"> &lt; 7.105</text>
<path fill="#f8766d" fill-opacity="0.639216" stroke="transparent" d="M805,-27C805,-27 895,-27 895,-27 901,-27 907,-33 907,-39 907,-39 907,-79 907,-79 907,-85 901,-91 895,-91 895,-91 805,-91 805,-91 799,-91 793,-85 793,-79 793,-79 793,-39 793,-39 793,-33 799,-27 805,-27"/>
<text text-anchor="start" x="794" y="-88.4" font-family="Arial" font-size="2.00"> </text>
<text text-anchor="start" x="794" y="-82.4" font-family="Arial" font-size="7.00"> &#160;15</text>
<text text-anchor="start" x="808" y="-65.8" font-family="Arial" font-weight="bold" font-size="14.00">Predict 5.766</text>
<text text-anchor="start" x="830" y="-48.8" font-family="Arial" font-weight="bold" font-size="14.00">n = 92</text>
<text text-anchor="start" x="848.5" y="-30.8" font-family="Arial" font-size="9.00"> </text>
<path fill="none" stroke="#333333" d="M805,-27C805,-27 895,-27 895,-27 901,-27 907,-33 907,-39 907,-39 907,-79 907,-79 907,-85 901,-91 895,-91 895,-91 805,-91 805,-91 799,-91 793,-85 793,-79 793,-79 793,-39 793,-39 793,-33 799,-27 805,-27"/>
<text text-anchor="start" x="848" y="-12.8" font-family="Arial" font-weight="bold" font-size="14.00"> </text>
</g>
<!-- 14&#45;&gt;15 -->
<g id="edge15" class="edge">
<title>14&#45;&gt;15</title>
<path fill="none" stroke="#888888" d="M851.23,-153.67C851.12,-145.39 851.01,-136.83 850.9,-128.38"/>
<polygon fill="#888888" stroke="#888888" points="854.4,-128.13 850.77,-118.18 847.4,-128.22 854.4,-128.13"/>
</g>
<!-- 16 -->
<g id="node17" class="node">
<title>16</title>
<text text-anchor="start" x="981.5" y="-99.8" font-family="Arial" font-weight="bold" font-size="14.00"> ≥ 7.105</text>
<path fill="#f8766d" fill-opacity="0.549020" stroke="transparent" d="M961,-27C961,-27 1051,-27 1051,-27 1057,-27 1063,-33 1063,-39 1063,-39 1063,-79 1063,-79 1063,-85 1057,-91 1051,-91 1051,-91 961,-91 961,-91 955,-91 949,-85 949,-79 949,-79 949,-39 949,-39 949,-33 955,-27 961,-27"/>
<text text-anchor="start" x="950" y="-88.4" font-family="Arial" font-size="2.00"> </text>
<text text-anchor="start" x="950" y="-82.4" font-family="Arial" font-size="7.00"> &#160;16</text>
<text text-anchor="start" x="964" y="-65.8" font-family="Arial" font-weight="bold" font-size="14.00">Predict 6.826</text>
<text text-anchor="start" x="986" y="-48.8" font-family="Arial" font-weight="bold" font-size="14.00">n = 30</text>
<text text-anchor="start" x="1004.5" y="-30.8" font-family="Arial" font-size="9.00"> </text>
<path fill="none" stroke="#333333" d="M961,-27C961,-27 1051,-27 1051,-27 1057,-27 1063,-33 1063,-39 1063,-39 1063,-79 1063,-79 1063,-85 1057,-91 1051,-91 1051,-91 961,-91 961,-91 955,-91 949,-85 949,-79 949,-79 949,-39 949,-39 949,-33 955,-27 961,-27"/>
<text text-anchor="start" x="1004" y="-12.8" font-family="Arial" font-weight="bold" font-size="14.00"> </text>
</g>
<!-- 14&#45;&gt;16 -->
<g id="edge16" class="edge">
<title>14&#45;&gt;16</title>
<path fill="none" stroke="#888888" d="M911.1,-153.67C920.5,-144.39 930.27,-134.75 939.81,-125.33"/>
<polygon fill="#888888" stroke="#888888" points="942.4,-127.69 947.06,-118.18 937.48,-122.71 942.4,-127.69"/>
</g>
<!-- 20 -->
<g id="node20" class="node">
<title>20</title>
<text text-anchor="start" x="1147" y="-99.8" font-family="Arial" font-weight="bold" font-size="14.00"> &lt; 8.835</text>
<path fill="#f8766d" fill-opacity="0.458824" stroke="transparent" d="M1127,-27C1127,-27 1217,-27 1217,-27 1223,-27 1229,-33 1229,-39 1229,-39 1229,-79 1229,-79 1229,-85 1223,-91 1217,-91 1217,-91 1127,-91 1127,-91 1121,-91 1115,-85 1115,-79 1115,-79 1115,-39 1115,-39 1115,-33 1121,-27 1127,-27"/>
<text text-anchor="start" x="1116" y="-88.4" font-family="Arial" font-size="2.00"> </text>
<text text-anchor="start" x="1116" y="-82.4" font-family="Arial" font-size="7.00"> &#160;20</text>
<text text-anchor="start" x="1130" y="-65.8" font-family="Arial" font-weight="bold" font-size="14.00">Predict 7.881</text>
<text text-anchor="start" x="1152" y="-48.8" font-family="Arial" font-weight="bold" font-size="14.00">n = 74</text>
<text text-anchor="start" x="1170.5" y="-30.8" font-family="Arial" font-size="9.00"> </text>
<path fill="none" stroke="#333333" d="M1127,-27C1127,-27 1217,-27 1217,-27 1223,-27 1229,-33 1229,-39 1229,-39 1229,-79 1229,-79 1229,-85 1223,-91 1217,-91 1217,-91 1127,-91 1127,-91 1121,-91 1115,-85 1115,-79 1115,-79 1115,-39 1115,-39 1115,-33 1121,-27 1127,-27"/>
<text text-anchor="start" x="1170" y="-12.8" font-family="Arial" font-weight="bold" font-size="14.00"> </text>
</g>
<!-- 19&#45;&gt;20 -->
<g id="edge19" class="edge">
<title>19&#45;&gt;20</title>
<path fill="none" stroke="#888888" d="M1175.7,-153.67C1175.37,-145.39 1175.03,-136.83 1174.7,-128.38"/>
<polygon fill="#888888" stroke="#888888" points="1178.19,-128.03 1174.3,-118.18 1171.19,-128.31 1178.19,-128.03"/>
</g>
<!-- 21 -->
<g id="node21" class="node">
<title>21</title>
<text text-anchor="start" x="1303.5" y="-99.8" font-family="Arial" font-weight="bold" font-size="14.00"> ≥ 8.835</text>
<path fill="#f8766d" fill-opacity="0.376471" stroke="transparent" d="M1283,-27C1283,-27 1373,-27 1373,-27 1379,-27 1385,-33 1385,-39 1385,-39 1385,-79 1385,-79 1385,-85 1379,-91 1373,-91 1373,-91 1283,-91 1283,-91 1277,-91 1271,-85 1271,-79 1271,-79 1271,-39 1271,-39 1271,-33 1277,-27 1283,-27"/>
<text text-anchor="start" x="1272" y="-88.4" font-family="Arial" font-size="2.00"> </text>
<text text-anchor="start" x="1272" y="-82.4" font-family="Arial" font-size="7.00"> &#160;21</text>
<text text-anchor="start" x="1286" y="-65.8" font-family="Arial" font-weight="bold" font-size="14.00">Predict 8.902</text>
<text text-anchor="start" x="1308" y="-48.8" font-family="Arial" font-weight="bold" font-size="14.00">n = 18</text>
<text text-anchor="start" x="1326.5" y="-30.8" font-family="Arial" font-size="9.00"> </text>
<path fill="none" stroke="#333333" d="M1283,-27C1283,-27 1373,-27 1373,-27 1379,-27 1385,-33 1385,-39 1385,-39 1385,-79 1385,-79 1385,-85 1379,-91 1373,-91 1373,-91 1283,-91 1283,-91 1277,-91 1271,-85 1271,-79 1271,-79 1271,-39 1271,-39 1271,-33 1277,-27 1283,-27"/>
<text text-anchor="start" x="1326" y="-12.8" font-family="Arial" font-weight="bold" font-size="14.00"> </text>
</g>
<!-- 19&#45;&gt;21 -->
<g id="edge20" class="edge">
<title>19&#45;&gt;21</title>
<path fill="none" stroke="#888888" d="M1235.56,-153.67C1244.72,-144.39 1254.23,-134.75 1263.53,-125.33"/>
<polygon fill="#888888" stroke="#888888" points="1266.06,-127.75 1270.59,-118.18 1261.07,-122.84 1266.06,-127.75"/>
</g>
</g>
</svg>
