<?xml version="1.0" encoding="UTF-8" standalone="no"?>
<!DOCTYPE svg PUBLIC "-//W3C//DTD SVG 1.1//EN"
 "http://www.w3.org/Graphics/SVG/1.1/DTD/svg11.dtd">
<!-- Generated by graphviz version 2.50.0 (20211204.2007)
 -->
<!-- Pages: 1 -->
<svg width="1237pt" height="588pt"
 viewBox="0.00 0.00 1237.00 588.00" xmlns="http://www.w3.org/2000/svg" xmlns:xlink="http://www.w3.org/1999/xlink">
<g id="graph0" class="graph" transform="scale(1 1) rotate(0) translate(4 584)">
<polygon fill="white" stroke="transparent" points="-4,4 -4,-584 1233,-584 1233,4 -4,4"/>
<!-- 1 -->
<g id="node1" class="node">
<title>1</title>
<text text-anchor="start" x="580" y="-561.8" font-family="Arial" font-weight="bold" font-size="14.00"> </text>
<text text-anchor="start" x="510" y="-517.3" font-family="Arial" font-size="14.00"> &#160;&#160;&#160;</text>
<path fill="#ebebeb" stroke="transparent" d="M540,-489C540,-489 624,-489 624,-489 630,-489 636,-495 636,-501 636,-501 636,-541 636,-541 636,-547 630,-553 624,-553 624,-553 540,-553 540,-553 534,-553 528,-547 528,-541 528,-541 528,-501 528,-501 528,-495 534,-489 540,-489"/>
<text text-anchor="start" x="529" y="-550.4" font-family="Arial" font-size="2.00"> </text>
<text text-anchor="start" x="529" y="-544.4" font-family="Arial" font-size="7.00"> &#160;1</text>
<text text-anchor="start" x="543" y="-527.8" font-family="Arial" font-weight="bold" font-size="14.00">Mean: 8.234</text>
<text text-anchor="start" x="558.5" y="-510.8" font-family="Arial" font-weight="bold" font-size="14.00">n = 672</text>
<text text-anchor="start" x="580.5" y="-492.8" font-family="Arial" font-size="9.00"> </text>
<path fill="none" stroke="#333333" d="M540,-489C540,-489 624,-489 624,-489 630,-489 636,-495 636,-501 636,-501 636,-541 636,-541 636,-547 630,-553 624,-553 624,-553 540,-553 540,-553 534,-553 528,-547 528,-541 528,-541 528,-501 528,-501 528,-495 534,-489 540,-489"/>
<text text-anchor="start" x="638" y="-517.3" font-family="Arial" font-size="14.00"> &#160;&#160;&#160;</text>
<text text-anchor="start" x="524.5" y="-474.8" font-family="Arial" font-weight="bold" font-size="14.00">prev_168h_inflow</text>
</g>
<!-- 2 -->
<g id="node2" class="node">
<title>2</title>
<text text-anchor="start" x="472" y="-407.8" font-family="Arial" font-weight="bold" font-size="14.00"> &lt; 9.415</text>
<path fill="#ebebeb" stroke="transparent" d="M459,-335C459,-335 535,-335 535,-335 541,-335 547,-341 547,-347 547,-347 547,-387 547,-387 547,-393 541,-399 535,-399 535,-399 459,-399 459,-399 453,-399 447,-393 447,-387 447,-387 447,-347 447,-347 447,-341 453,-335 459,-335"/>
<text text-anchor="start" x="448" y="-396.4" font-family="Arial" font-size="2.00"> </text>
<text text-anchor="start" x="448" y="-390.4" font-family="Arial" font-size="7.00"> &#160;2</text>
<text text-anchor="start" x="462" y="-373.8" font-family="Arial" font-weight="bold" font-size="14.00">Mean: 7.57</text>
<text text-anchor="start" x="473.5" y="-356.8" font-family="Arial" font-weight="bold" font-size="14.00">n = 473</text>
<text text-anchor="start" x="495.5" y="-338.8" font-family="Arial" font-size="9.00"> </text>
<path fill="none" stroke="#333333" d="M459,-335C459,-335 535,-335 535,-335 541,-335 547,-341 547,-347 547,-347 547,-387 547,-387 547,-393 541,-399 535,-399 535,-399 459,-399 459,-399 453,-399 447,-393 447,-387 447,-387 447,-347 447,-347 447,-341 453,-335 459,-335"/>
<text text-anchor="start" x="482.5" y="-320.8" font-family="Arial" font-weight="bold" font-size="14.00">time</text>
</g>
<!-- 1&#45;&gt;2 -->
<g id="edge1" class="edge">
<title>1&#45;&gt;2</title>
<path fill="none" stroke="#888888" d="M549.38,-461.67C544.5,-452.94 539.43,-443.88 534.46,-434.99"/>
<polygon fill="#888888" stroke="#888888" points="537.47,-433.2 529.53,-426.18 531.36,-436.61 537.47,-433.2"/>
</g>
<!-- 9 -->
<g id="node3" class="node">
<title>9</title>
<text text-anchor="start" x="708.5" y="-407.8" font-family="Arial" font-weight="bold" font-size="14.00"> ≥ 9.415</text>
<path fill="#ebebeb" stroke="transparent" d="M691,-335C691,-335 775,-335 775,-335 781,-335 787,-341 787,-347 787,-347 787,-387 787,-387 787,-393 781,-399 775,-399 775,-399 691,-399 691,-399 685,-399 679,-393 679,-387 679,-387 679,-347 679,-347 679,-341 685,-335 691,-335"/>
<text text-anchor="start" x="680" y="-396.4" font-family="Arial" font-size="2.00"> </text>
<text text-anchor="start" x="680" y="-390.4" font-family="Arial" font-size="7.00"> &#160;9</text>
<text text-anchor="start" x="694" y="-373.8" font-family="Arial" font-weight="bold" font-size="14.00">Mean: 9.812</text>
<text text-anchor="start" x="709.5" y="-356.8" font-family="Arial" font-weight="bold" font-size="14.00">n = 199</text>
<text text-anchor="start" x="731.5" y="-338.8" font-family="Arial" font-size="9.00"> </text>
<path fill="none" stroke="#333333" d="M691,-335C691,-335 775,-335 775,-335 781,-335 787,-341 787,-347 787,-347 787,-387 787,-387 787,-393 781,-399 775,-399 775,-399 691,-399 691,-399 685,-399 679,-393 679,-387 679,-387 679,-347 679,-347 679,-341 685,-335 691,-335"/>
<text text-anchor="start" x="718.5" y="-320.8" font-family="Arial" font-weight="bold" font-size="14.00">time</text>
</g>
<!-- 1&#45;&gt;9 -->
<g id="edge2" class="edge">
<title>1&#45;&gt;9</title>
<path fill="none" stroke="#888888" d="M639.95,-461.67C649.16,-452.39 658.74,-442.75 668.1,-433.33"/>
<polygon fill="#888888" stroke="#888888" points="670.64,-435.74 675.21,-426.18 665.68,-430.8 670.64,-435.74"/>
</g>
<!-- 3 -->
<g id="node4" class="node">
<title>3</title>
<text text-anchor="start" x="207.5" y="-253.8" font-family="Arial" font-weight="bold" font-size="14.00"> &lt; 5.5</text>
<text text-anchor="start" x="161" y="-209.3" font-family="Arial" font-size="14.00"> &#160;</text>
<path fill="#ebebeb" stroke="transparent" d="M183,-181C183,-181 267,-181 267,-181 273,-181 279,-187 279,-193 279,-193 279,-233 279,-233 279,-239 273,-245 267,-245 267,-245 183,-245 183,-245 177,-245 171,-239 171,-233 171,-233 171,-193 171,-193 171,-187 177,-181 183,-181"/>
<text text-anchor="start" x="172" y="-242.4" font-family="Arial" font-size="2.00"> </text>
<text text-anchor="start" x="172" y="-236.4" font-family="Arial" font-size="7.00"> &#160;3</text>
<text text-anchor="start" x="186" y="-219.8" font-family="Arial" font-weight="bold" font-size="14.00">Mean: 6.224</text>
<text text-anchor="start" x="201.5" y="-202.8" font-family="Arial" font-weight="bold" font-size="14.00">n = 168</text>
<text text-anchor="start" x="223.5" y="-184.8" font-family="Arial" font-size="9.00"> </text>
<path fill="none" stroke="#333333" d="M183,-181C183,-181 267,-181 267,-181 273,-181 279,-187 279,-193 279,-193 279,-233 279,-233 279,-239 273,-245 267,-245 267,-245 183,-245 183,-245 177,-245 171,-239 171,-233 171,-233 171,-193 171,-193 171,-187 177,-181 183,-181"/>
<text text-anchor="start" x="281" y="-209.3" font-family="Arial" font-size="14.00"> &#160;</text>
<text text-anchor="start" x="175" y="-166.8" font-family="Arial" font-weight="bold" font-size="14.00">prev_1h_inflow</text>
</g>
<!-- 2&#45;&gt;3 -->
<g id="edge3" class="edge">
<title>2&#45;&gt;3</title>
<path fill="none" stroke="#888888" d="M434.94,-331.32C397.4,-310.34 349.06,-283.33 308.23,-260.51"/>
<polygon fill="#888888" stroke="#888888" points="309.8,-257.38 299.37,-255.56 306.39,-263.49 309.8,-257.38"/>
</g>
<!-- 6 -->
<g id="node5" class="node">
<title>6</title>
<text text-anchor="start" x="480" y="-253.8" font-family="Arial" font-weight="bold" font-size="14.00"> ≥ 5.5</text>
<text text-anchor="start" x="433" y="-209.3" font-family="Arial" font-size="14.00"> &#160;</text>
<path fill="#ebebeb" stroke="transparent" d="M455,-181C455,-181 539,-181 539,-181 545,-181 551,-187 551,-193 551,-193 551,-233 551,-233 551,-239 545,-245 539,-245 539,-245 455,-245 455,-245 449,-245 443,-239 443,-233 443,-233 443,-193 443,-193 443,-187 449,-181 455,-181"/>
<text text-anchor="start" x="444" y="-242.4" font-family="Arial" font-size="2.00"> </text>
<text text-anchor="start" x="444" y="-236.4" font-family="Arial" font-size="7.00"> &#160;6</text>
<text text-anchor="start" x="458" y="-219.8" font-family="Arial" font-weight="bold" font-size="14.00">Mean: 8.312</text>
<text text-anchor="start" x="473.5" y="-202.8" font-family="Arial" font-weight="bold" font-size="14.00">n = 305</text>
<text text-anchor="start" x="495.5" y="-184.8" font-family="Arial" font-size="9.00"> </text>
<path fill="none" stroke="#333333" d="M455,-181C455,-181 539,-181 539,-181 545,-181 551,-187 551,-193 551,-193 551,-233 551,-233 551,-239 545,-245 539,-245 539,-245 455,-245 455,-245 449,-245 443,-239 443,-233 443,-233 443,-193 443,-193 443,-187 449,-181 455,-181"/>
<text text-anchor="start" x="553" y="-209.3" font-family="Arial" font-size="14.00"> &#160;</text>
<text text-anchor="start" x="447" y="-166.8" font-family="Arial" font-weight="bold" font-size="14.00">prev_1h_inflow</text>
</g>
<!-- 2&#45;&gt;6 -->
<g id="edge4" class="edge">
<title>2&#45;&gt;6</title>
<path fill="none" stroke="#888888" d="M497,-307.67C497,-299.39 497,-290.83 497,-282.38"/>
<polygon fill="#888888" stroke="#888888" points="500.5,-282.18 497,-272.18 493.5,-282.18 500.5,-282.18"/>
</g>
<!-- 10 -->
<g id="node10" class="node">
<title>10</title>
<text text-anchor="start" x="711.5" y="-253.8" font-family="Arial" font-weight="bold" font-size="14.00"> &lt; 10.5</text>
<text text-anchor="start" x="665" y="-209.3" font-family="Arial" font-size="14.00"> &#160;&#160;</text>
<path fill="#ebebeb" stroke="transparent" d="M691,-181C691,-181 775,-181 775,-181 781,-181 787,-187 787,-193 787,-193 787,-233 787,-233 787,-239 781,-245 775,-245 775,-245 691,-245 691,-245 685,-245 679,-239 679,-233 679,-233 679,-193 679,-193 679,-187 685,-181 691,-181"/>
<text text-anchor="start" x="680" y="-242.4" font-family="Arial" font-size="2.00"> </text>
<text text-anchor="start" x="680" y="-236.4" font-family="Arial" font-size="7.00"> &#160;10</text>
<text text-anchor="start" x="694" y="-219.8" font-family="Arial" font-weight="bold" font-size="14.00">Mean: 10.49</text>
<text text-anchor="start" x="713" y="-202.8" font-family="Arial" font-weight="bold" font-size="14.00">n = 92</text>
<text text-anchor="start" x="731.5" y="-184.8" font-family="Arial" font-size="9.00"> </text>
<path fill="none" stroke="#333333" d="M691,-181C691,-181 775,-181 775,-181 781,-181 787,-187 787,-193 787,-193 787,-233 787,-233 787,-239 781,-245 775,-245 775,-245 691,-245 691,-245 685,-245 679,-239 679,-233 679,-233 679,-193 679,-193 679,-187 685,-181 691,-181"/>
<text text-anchor="start" x="789" y="-209.3" font-family="Arial" font-size="14.00"> &#160;&#160;</text>
<text text-anchor="start" x="679.5" y="-166.8" font-family="Arial" font-weight="bold" font-size="14.00">prev_24h_inflow</text>
</g>
<!-- 9&#45;&gt;10 -->
<g id="edge9" class="edge">
<title>9&#45;&gt;10</title>
<path fill="none" stroke="#888888" d="M733,-307.67C733,-299.39 733,-290.83 733,-282.38"/>
<polygon fill="#888888" stroke="#888888" points="736.5,-282.18 733,-272.18 729.5,-282.18 736.5,-282.18"/>
</g>
<!-- 13 -->
<g id="node11" class="node">
<title>13</title>
<text text-anchor="start" x="983" y="-253.8" font-family="Arial" font-weight="bold" font-size="14.00"> ≥ 10.5</text>
<text text-anchor="start" x="940" y="-209.3" font-family="Arial" font-size="14.00"> &#160;&#160;</text>
<path fill="#ebebeb" stroke="transparent" d="M966,-181C966,-181 1042,-181 1042,-181 1048,-181 1054,-187 1054,-193 1054,-193 1054,-233 1054,-233 1054,-239 1048,-245 1042,-245 1042,-245 966,-245 966,-245 960,-245 954,-239 954,-233 954,-233 954,-193 954,-193 954,-187 960,-181 966,-181"/>
<text text-anchor="start" x="955" y="-242.4" font-family="Arial" font-size="2.00"> </text>
<text text-anchor="start" x="955" y="-236.4" font-family="Arial" font-size="7.00"> &#160;13</text>
<text text-anchor="start" x="969" y="-219.8" font-family="Arial" font-weight="bold" font-size="14.00">Mean: 9.23</text>
<text text-anchor="start" x="980.5" y="-202.8" font-family="Arial" font-weight="bold" font-size="14.00">n = 107</text>
<text text-anchor="start" x="1002.5" y="-184.8" font-family="Arial" font-size="9.00"> </text>
<path fill="none" stroke="#333333" d="M966,-181C966,-181 1042,-181 1042,-181 1048,-181 1054,-187 1054,-193 1054,-193 1054,-233 1054,-233 1054,-239 1048,-245 1042,-245 1042,-245 966,-245 966,-245 960,-245 954,-239 954,-233 954,-233 954,-193 954,-193 954,-187 960,-181 966,-181"/>
<text text-anchor="start" x="1056" y="-209.3" font-family="Arial" font-size="14.00"> &#160;&#160;</text>
<text text-anchor="start" x="954" y="-166.8" font-family="Arial" font-weight="bold" font-size="14.00">prev_1h_inflow</text>
</g>
<!-- 9&#45;&gt;13 -->
<g id="edge10" class="edge">
<title>9&#45;&gt;13</title>
<path fill="none" stroke="#888888" d="M799.29,-328.82C836.01,-308.23 881.98,-282.44 921.06,-260.52"/>
<polygon fill="#888888" stroke="#888888" points="922.79,-263.56 929.8,-255.62 919.36,-257.46 922.79,-263.56"/>
</g>
<!-- 4 -->
<g id="node6" class="node">
<title>4</title>
<text text-anchor="start" x="44" y="-99.8" font-family="Arial" font-weight="bold" font-size="14.00"> &lt; 6.345</text>
<path fill="#f8766d" fill-opacity="0.874510" stroke="transparent" d="M24,-27C24,-27 114,-27 114,-27 120,-27 126,-33 126,-39 126,-39 126,-79 126,-79 126,-85 120,-91 114,-91 114,-91 24,-91 24,-91 18,-91 12,-85 12,-79 12,-79 12,-39 12,-39 12,-33 18,-27 24,-27"/>
<text text-anchor="start" x="13" y="-88.4" font-family="Arial" font-size="2.00"> </text>
<text text-anchor="start" x="13" y="-82.4" font-family="Arial" font-size="7.00"> &#160;4</text>
<text text-anchor="start" x="27" y="-65.8" font-family="Arial" font-weight="bold" font-size="14.00">Predict 5.914</text>
<text text-anchor="start" x="49" y="-48.8" font-family="Arial" font-weight="bold" font-size="14.00">n = 97</text>
<text text-anchor="start" x="67.5" y="-30.8" font-family="Arial" font-size="9.00"> </text>
<path fill="none" stroke="#333333" d="M24,-27C24,-27 114,-27 114,-27 120,-27 126,-33 126,-39 126,-39 126,-79 126,-79 126,-85 120,-91 114,-91 114,-91 24,-91 24,-91 18,-91 12,-85 12,-79 12,-79 12,-39 12,-39 12,-33 18,-27 24,-27"/>
<text text-anchor="start" x="67" y="-12.8" font-family="Arial" font-weight="bold" font-size="14.00"> </text>
</g>
<!-- 3&#45;&gt;4 -->
<g id="edge5" class="edge">
<title>3&#45;&gt;4</title>
<path fill="none" stroke="#888888" d="M165.13,-153.67C155.62,-144.39 145.72,-134.75 136.05,-125.33"/>
<polygon fill="#888888" stroke="#888888" points="138.31,-122.65 128.71,-118.18 133.43,-127.66 138.31,-122.65"/>
</g>
<!-- 5 -->
<g id="node7" class="node">
<title>5</title>
<text text-anchor="start" x="200.5" y="-99.8" font-family="Arial" font-weight="bold" font-size="14.00"> ≥ 6.345</text>
<path fill="#f8766d" fill-opacity="0.823529" stroke="transparent" d="M180,-27C180,-27 270,-27 270,-27 276,-27 282,-33 282,-39 282,-39 282,-79 282,-79 282,-85 276,-91 270,-91 270,-91 180,-91 180,-91 174,-91 168,-85 168,-79 168,-79 168,-39 168,-39 168,-33 174,-27 180,-27"/>
<text text-anchor="start" x="169" y="-88.4" font-family="Arial" font-size="2.00"> </text>
<text text-anchor="start" x="169" y="-82.4" font-family="Arial" font-size="7.00"> &#160;5</text>
<text text-anchor="start" x="183" y="-65.8" font-family="Arial" font-weight="bold" font-size="14.00">Predict 6.647</text>
<text text-anchor="start" x="205" y="-48.8" font-family="Arial" font-weight="bold" font-size="14.00">n = 71</text>
<text text-anchor="start" x="223.5" y="-30.8" font-family="Arial" font-size="9.00"> </text>
<path fill="none" stroke="#333333" d="M180,-27C180,-27 270,-27 270,-27 276,-27 282,-33 282,-39 282,-39 282,-79 282,-79 282,-85 276,-91 270,-91 270,-91 180,-91 180,-91 174,-91 168,-85 168,-79 168,-79 168,-39 168,-39 168,-33 174,-27 180,-27"/>
<text text-anchor="start" x="223" y="-12.8" font-family="Arial" font-weight="bold" font-size="14.00"> </text>
</g>
<!-- 3&#45;&gt;5 -->
<g id="edge6" class="edge">
<title>3&#45;&gt;5</title>
<path fill="none" stroke="#888888" d="M225,-153.67C225,-145.39 225,-136.83 225,-128.38"/>
<polygon fill="#888888" stroke="#888888" points="228.5,-128.18 225,-118.18 221.5,-128.18 228.5,-128.18"/>
</g>
<!-- 7 -->
<g id="node8" class="node">
<title>7</title>
<text text-anchor="start" x="356" y="-99.8" font-family="Arial" font-weight="bold" font-size="14.00"> &lt; 8.065</text>
<path fill="#f8766d" fill-opacity="0.752941" stroke="transparent" d="M336,-27C336,-27 426,-27 426,-27 432,-27 438,-33 438,-39 438,-39 438,-79 438,-79 438,-85 432,-91 426,-91 426,-91 336,-91 336,-91 330,-91 324,-85 324,-79 324,-79 324,-39 324,-39 324,-33 330,-27 336,-27"/>
<text text-anchor="start" x="325" y="-88.4" font-family="Arial" font-size="2.00"> </text>
<text text-anchor="start" x="325" y="-82.4" font-family="Arial" font-size="7.00"> &#160;7</text>
<text text-anchor="start" x="339" y="-65.8" font-family="Arial" font-weight="bold" font-size="14.00">Predict 7.584</text>
<text text-anchor="start" x="358" y="-48.8" font-family="Arial" font-weight="bold" font-size="14.00">n = 116</text>
<text text-anchor="start" x="379.5" y="-30.8" font-family="Arial" font-size="9.00"> </text>
<path fill="none" stroke="#333333" d="M336,-27C336,-27 426,-27 426,-27 432,-27 438,-33 438,-39 438,-39 438,-79 438,-79 438,-85 432,-91 426,-91 426,-91 336,-91 336,-91 330,-91 324,-85 324,-79 324,-79 324,-39 324,-39 324,-33 330,-27 336,-27"/>
<text text-anchor="start" x="379" y="-12.8" font-family="Arial" font-weight="bold" font-size="14.00"> </text>
</g>
<!-- 6&#45;&gt;7 -->
<g id="edge7" class="edge">
<title>6&#45;&gt;7</title>
<path fill="none" stroke="#888888" d="M452.48,-153.67C445.61,-144.67 438.48,-135.32 431.49,-126.16"/>
<polygon fill="#888888" stroke="#888888" points="434.25,-124 425.4,-118.18 428.68,-128.25 434.25,-124"/>
</g>
<!-- 8 -->
<g id="node9" class="node">
<title>8</title>
<text text-anchor="start" x="512.5" y="-99.8" font-family="Arial" font-weight="bold" font-size="14.00"> ≥ 8.065</text>
<path fill="#f8766d" fill-opacity="0.666667" stroke="transparent" d="M492,-27C492,-27 582,-27 582,-27 588,-27 594,-33 594,-39 594,-39 594,-79 594,-79 594,-85 588,-91 582,-91 582,-91 492,-91 492,-91 486,-91 480,-85 480,-79 480,-79 480,-39 480,-39 480,-33 486,-27 492,-27"/>
<text text-anchor="start" x="481" y="-88.4" font-family="Arial" font-size="2.00"> </text>
<text text-anchor="start" x="481" y="-82.4" font-family="Arial" font-size="7.00"> &#160;8</text>
<text text-anchor="start" x="495" y="-65.8" font-family="Arial" font-weight="bold" font-size="14.00">Predict 8.758</text>
<text text-anchor="start" x="513.5" y="-48.8" font-family="Arial" font-weight="bold" font-size="14.00">n = 189</text>
<text text-anchor="start" x="535.5" y="-30.8" font-family="Arial" font-size="9.00"> </text>
<path fill="none" stroke="#333333" d="M492,-27C492,-27 582,-27 582,-27 588,-27 594,-33 594,-39 594,-39 594,-79 594,-79 594,-85 588,-91 582,-91 582,-91 492,-91 492,-91 486,-91 480,-85 480,-79 480,-79 480,-39 480,-39 480,-33 486,-27 492,-27"/>
<text text-anchor="start" x="535" y="-12.8" font-family="Arial" font-weight="bold" font-size="14.00"> </text>
</g>
<!-- 6&#45;&gt;8 -->
<g id="edge8" class="edge">
<title>6&#45;&gt;8</title>
<path fill="none" stroke="#888888" d="M512.35,-153.67C514.55,-145.3 516.83,-136.64 519.08,-128.1"/>
<polygon fill="#888888" stroke="#888888" points="522.53,-128.74 521.69,-118.18 515.76,-126.96 522.53,-128.74"/>
</g>
<!-- 11 -->
<g id="node12" class="node">
<title>11</title>
<text text-anchor="start" x="669" y="-99.8" font-family="Arial" font-weight="bold" font-size="14.00"> &lt; 11.22</text>
<path fill="#f8766d" fill-opacity="0.568627" stroke="transparent" d="M649,-27C649,-27 738,-27 738,-27 744,-27 750,-33 750,-39 750,-39 750,-79 750,-79 750,-85 744,-91 738,-91 738,-91 649,-91 649,-91 643,-91 637,-85 637,-79 637,-79 637,-39 637,-39 637,-33 643,-27 649,-27"/>
<text text-anchor="start" x="638" y="-88.4" font-family="Arial" font-size="2.00"> </text>
<text text-anchor="start" x="638" y="-82.4" font-family="Arial" font-size="7.00"> &#160;11</text>
<text text-anchor="start" x="652" y="-65.8" font-family="Arial" font-weight="bold" font-size="14.00">Predict 10.11</text>
<text text-anchor="start" x="673.5" y="-48.8" font-family="Arial" font-weight="bold" font-size="14.00">n = 68</text>
<text text-anchor="start" x="692" y="-30.8" font-family="Arial" font-size="9.00"> </text>
<path fill="none" stroke="#333333" d="M649,-27C649,-27 738,-27 738,-27 744,-27 750,-33 750,-39 750,-39 750,-79 750,-79 750,-85 744,-91 738,-91 738,-91 649,-91 649,-91 643,-91 637,-85 637,-79 637,-79 637,-39 637,-39 637,-33 643,-27 649,-27"/>
<text text-anchor="start" x="691.5" y="-12.8" font-family="Arial" font-weight="bold" font-size="14.00"> </text>
</g>
<!-- 10&#45;&gt;11 -->
<g id="edge11" class="edge">
<title>10&#45;&gt;11</title>
<path fill="none" stroke="#888888" d="M717.65,-153.67C715.45,-145.3 713.17,-136.64 710.92,-128.1"/>
<polygon fill="#888888" stroke="#888888" points="714.24,-126.96 708.31,-118.18 707.47,-128.74 714.24,-126.96"/>
</g>
<!-- 12 -->
<g id="node13" class="node">
<title>12</title>
<text text-anchor="start" x="824" y="-99.8" font-family="Arial" font-weight="bold" font-size="14.00"> ≥ 11.22</text>
<path fill="#f8766d" fill-opacity="0.462745" stroke="transparent" d="M804,-27C804,-27 893,-27 893,-27 899,-27 905,-33 905,-39 905,-39 905,-79 905,-79 905,-85 899,-91 893,-91 893,-91 804,-91 804,-91 798,-91 792,-85 792,-79 792,-79 792,-39 792,-39 792,-33 798,-27 804,-27"/>
<text text-anchor="start" x="793" y="-88.4" font-family="Arial" font-size="2.00"> </text>
<text text-anchor="start" x="793" y="-82.4" font-family="Arial" font-size="7.00"> &#160;12</text>
<text text-anchor="start" x="807" y="-65.8" font-family="Arial" font-weight="bold" font-size="14.00">Predict 11.56</text>
<text text-anchor="start" x="828.5" y="-48.8" font-family="Arial" font-weight="bold" font-size="14.00">n = 24</text>
<text text-anchor="start" x="847" y="-30.8" font-family="Arial" font-size="9.00"> </text>
<path fill="none" stroke="#333333" d="M804,-27C804,-27 893,-27 893,-27 899,-27 905,-33 905,-39 905,-39 905,-79 905,-79 905,-85 899,-91 893,-91 893,-91 804,-91 804,-91 798,-91 792,-85 792,-79 792,-79 792,-39 792,-39 792,-33 798,-27 804,-27"/>
<text text-anchor="start" x="846.5" y="-12.8" font-family="Arial" font-weight="bold" font-size="14.00"> </text>
</g>
<!-- 10&#45;&gt;12 -->
<g id="edge12" class="edge">
<title>10&#45;&gt;12</title>
<path fill="none" stroke="#888888" d="M777.13,-153.67C783.94,-144.67 791.02,-135.32 797.95,-126.16"/>
<polygon fill="#888888" stroke="#888888" points="800.74,-128.26 803.98,-118.18 795.16,-124.04 800.74,-128.26"/>
</g>
<!-- 14 -->
<g id="node14" class="node">
<title>14</title>
<text text-anchor="start" x="979.5" y="-99.8" font-family="Arial" font-weight="bold" font-size="14.00"> &lt; 11.88</text>
<path fill="#f8766d" fill-opacity="0.650980" stroke="transparent" d="M959,-27C959,-27 1049,-27 1049,-27 1055,-27 1061,-33 1061,-39 1061,-39 1061,-79 1061,-79 1061,-85 1055,-91 1049,-91 1049,-91 959,-91 959,-91 953,-91 947,-85 947,-79 947,-79 947,-39 947,-39 947,-33 953,-27 959,-27"/>
<text text-anchor="start" x="948" y="-88.4" font-family="Arial" font-size="2.00"> </text>
<text text-anchor="start" x="948" y="-82.4" font-family="Arial" font-size="7.00"> &#160;14</text>
<text text-anchor="start" x="962" y="-65.8" font-family="Arial" font-weight="bold" font-size="14.00">Predict 9.019</text>
<text text-anchor="start" x="980.5" y="-48.8" font-family="Arial" font-weight="bold" font-size="14.00">n = 101</text>
<text text-anchor="start" x="1002.5" y="-30.8" font-family="Arial" font-size="9.00"> </text>
<path fill="none" stroke="#333333" d="M959,-27C959,-27 1049,-27 1049,-27 1055,-27 1061,-33 1061,-39 1061,-39 1061,-79 1061,-79 1061,-85 1055,-91 1049,-91 1049,-91 959,-91 959,-91 953,-91 947,-85 947,-79 947,-79 947,-39 947,-39 947,-33 953,-27 959,-27"/>
<text text-anchor="start" x="1002" y="-12.8" font-family="Arial" font-weight="bold" font-size="14.00"> </text>
</g>
<!-- 13&#45;&gt;14 -->
<g id="edge13" class="edge">
<title>13&#45;&gt;14</title>
<path fill="none" stroke="#888888" d="M1004,-153.67C1004,-145.39 1004,-136.83 1004,-128.38"/>
<polygon fill="#888888" stroke="#888888" points="1007.5,-128.18 1004,-118.18 1000.5,-128.18 1007.5,-128.18"/>
</g>
<!-- 15 -->
<g id="node15" class="node">
<title>15</title>
<text text-anchor="start" x="1135.5" y="-99.8" font-family="Arial" font-weight="bold" font-size="14.00"> ≥ 11.88</text>
<path fill="#f8766d" fill-opacity="0.376471" stroke="transparent" d="M1115,-27C1115,-27 1205,-27 1205,-27 1211,-27 1217,-33 1217,-39 1217,-39 1217,-79 1217,-79 1217,-85 1211,-91 1205,-91 1205,-91 1115,-91 1115,-91 1109,-91 1103,-85 1103,-79 1103,-79 1103,-39 1103,-39 1103,-33 1109,-27 1115,-27"/>
<text text-anchor="start" x="1104" y="-88.4" font-family="Arial" font-size="2.00"> </text>
<text text-anchor="start" x="1104" y="-82.4" font-family="Arial" font-size="7.00"> &#160;15</text>
<text text-anchor="start" x="1118" y="-65.8" font-family="Arial" font-weight="bold" font-size="14.00">Predict 12.78</text>
<text text-anchor="start" x="1144" y="-48.8" font-family="Arial" font-weight="bold" font-size="14.00">n = 6</text>
<text text-anchor="start" x="1158.5" y="-30.8" font-family="Arial" font-size="9.00"> </text>
<path fill="none" stroke="#333333" d="M1115,-27C1115,-27 1205,-27 1205,-27 1211,-27 1217,-33 1217,-39 1217,-39 1217,-79 1217,-79 1217,-85 1211,-91 1205,-91 1205,-91 1115,-91 1115,-91 1109,-91 1103,-85 1103,-79 1103,-79 1103,-39 1103,-39 1103,-33 1109,-27 1115,-27"/>
<text text-anchor="start" x="1158" y="-12.8" font-family="Arial" font-weight="bold" font-size="14.00"> </text>
</g>
<!-- 13&#45;&gt;15 -->
<g id="edge14" class="edge">
<title>13&#45;&gt;15</title>
<path fill="none" stroke="#888888" d="M1063.87,-153.67C1073.38,-144.39 1083.28,-134.75 1092.95,-125.33"/>
<polygon fill="#888888" stroke="#888888" points="1095.57,-127.66 1100.29,-118.18 1090.69,-122.65 1095.57,-127.66"/>
</g>
</g>
</svg>
