<?xml version="1.0" encoding="UTF-8" standalone="no"?>
<!DOCTYPE svg PUBLIC "-//W3C//DTD SVG 1.1//EN"
 "http://www.w3.org/Graphics/SVG/1.1/DTD/svg11.dtd">
<!-- Generated by graphviz version 2.50.0 (20211204.2007)
 -->
<!-- Pages: 1 -->
<svg width="916pt" height="588pt"
 viewBox="0.00 0.00 916.00 588.00" xmlns="http://www.w3.org/2000/svg" xmlns:xlink="http://www.w3.org/1999/xlink">
<g id="graph0" class="graph" transform="scale(1 1) rotate(0) translate(4 584)">
<polygon fill="white" stroke="transparent" points="-4,4 -4,-584 912,-584 912,4 -4,4"/>
<!-- 1 -->
<g id="node1" class="node">
<title>1</title>
<text text-anchor="start" x="454" y="-561.8" font-family="Arial" font-weight="bold" font-size="14.00"> </text>
<path fill="#ebebeb" stroke="transparent" d="M414,-489C414,-489 498,-489 498,-489 504,-489 510,-495 510,-501 510,-501 510,-541 510,-541 510,-547 504,-553 498,-553 498,-553 414,-553 414,-553 408,-553 402,-547 402,-541 402,-541 402,-501 402,-501 402,-495 408,-489 414,-489"/>
<text text-anchor="start" x="403" y="-550.4" font-family="Arial" font-size="2.00"> </text>
<text text-anchor="start" x="403" y="-544.4" font-family="Arial" font-size="7.00"> &#160;1</text>
<text text-anchor="start" x="417" y="-527.8" font-family="Arial" font-weight="bold" font-size="14.00">Mean: 28.76</text>
<text text-anchor="start" x="432.5" y="-510.8" font-family="Arial" font-weight="bold" font-size="14.00">n = 168</text>
<text text-anchor="start" x="454.5" y="-492.8" font-family="Arial" font-size="9.00"> </text>
<path fill="none" stroke="#333333" d="M414,-489C414,-489 498,-489 498,-489 504,-489 510,-495 510,-501 510,-501 510,-541 510,-541 510,-547 504,-553 498,-553 498,-553 414,-553 414,-553 408,-553 402,-547 402,-541 402,-541 402,-501 402,-501 402,-495 408,-489 414,-489"/>
<text text-anchor="start" x="441.5" y="-474.8" font-family="Arial" font-weight="bold" font-size="14.00">time</text>
</g>
<!-- 2 -->
<g id="node2" class="node">
<title>2</title>
<text text-anchor="start" x="349.5" y="-407.8" font-family="Arial" font-weight="bold" font-size="14.00"> &lt; 13.5</text>
<text text-anchor="start" x="303" y="-363.3" font-family="Arial" font-size="14.00"> &#160;&#160;</text>
<path fill="#ebebeb" stroke="transparent" d="M329,-335C329,-335 413,-335 413,-335 419,-335 425,-341 425,-347 425,-347 425,-387 425,-387 425,-393 419,-399 413,-399 413,-399 329,-399 329,-399 323,-399 317,-393 317,-387 317,-387 317,-347 317,-347 317,-341 323,-335 329,-335"/>
<text text-anchor="start" x="318" y="-396.4" font-family="Arial" font-size="2.00"> </text>
<text text-anchor="start" x="318" y="-390.4" font-family="Arial" font-size="7.00"> &#160;2</text>
<text text-anchor="start" x="332" y="-373.8" font-family="Arial" font-weight="bold" font-size="14.00">Mean: 28.51</text>
<text text-anchor="start" x="351" y="-356.8" font-family="Arial" font-weight="bold" font-size="14.00">n = 98</text>
<text text-anchor="start" x="369.5" y="-338.8" font-family="Arial" font-size="9.00"> </text>
<path fill="none" stroke="#333333" d="M329,-335C329,-335 413,-335 413,-335 419,-335 425,-341 425,-347 425,-347 425,-387 425,-387 425,-393 419,-399 413,-399 413,-399 329,-399 329,-399 323,-399 317,-393 317,-387 317,-387 317,-347 317,-347 317,-341 323,-335 329,-335"/>
<text text-anchor="start" x="427" y="-363.3" font-family="Arial" font-size="14.00"> &#160;&#160;</text>
<text text-anchor="start" x="318" y="-320.8" font-family="Arial" font-weight="bold" font-size="14.00">prev_168_inflow</text>
</g>
<!-- 1&#45;&gt;2 -->
<g id="edge1" class="edge">
<title>1&#45;&gt;2</title>
<path fill="none" stroke="#888888" d="M423.38,-461.67C418.5,-452.94 413.43,-443.88 408.46,-434.99"/>
<polygon fill="#888888" stroke="#888888" points="411.47,-433.2 403.53,-426.18 405.36,-436.61 411.47,-433.2"/>
</g>
<!-- 9 -->
<g id="node3" class="node">
<title>9</title>
<text text-anchor="start" x="520" y="-407.8" font-family="Arial" font-weight="bold" font-size="14.00"> ≥ 13.5</text>
<text text-anchor="start" x="477" y="-363.3" font-family="Arial" font-size="14.00"> &#160;</text>
<path fill="#ebebeb" stroke="transparent" d="M499,-335C499,-335 583,-335 583,-335 589,-335 595,-341 595,-347 595,-347 595,-387 595,-387 595,-393 589,-399 583,-399 583,-399 499,-399 499,-399 493,-399 487,-393 487,-387 487,-387 487,-347 487,-347 487,-341 493,-335 499,-335"/>
<text text-anchor="start" x="488" y="-396.4" font-family="Arial" font-size="2.00"> </text>
<text text-anchor="start" x="488" y="-390.4" font-family="Arial" font-size="7.00"> &#160;9</text>
<text text-anchor="start" x="502" y="-373.8" font-family="Arial" font-weight="bold" font-size="14.00">Mean: 29.12</text>
<text text-anchor="start" x="521" y="-356.8" font-family="Arial" font-weight="bold" font-size="14.00">n = 70</text>
<text text-anchor="start" x="539.5" y="-338.8" font-family="Arial" font-size="9.00"> </text>
<path fill="none" stroke="#333333" d="M499,-335C499,-335 583,-335 583,-335 589,-335 595,-341 595,-347 595,-347 595,-387 595,-387 595,-393 589,-399 583,-399 583,-399 499,-399 499,-399 493,-399 487,-393 487,-387 487,-387 487,-347 487,-347 487,-341 493,-335 499,-335"/>
<text text-anchor="start" x="597" y="-363.3" font-family="Arial" font-size="14.00"> &#160;</text>
<text text-anchor="start" x="495.5" y="-320.8" font-family="Arial" font-weight="bold" font-size="14.00">prev_1_inflow</text>
</g>
<!-- 1&#45;&gt;9 -->
<g id="edge2" class="edge">
<title>1&#45;&gt;9</title>
<path fill="none" stroke="#888888" d="M488.62,-461.67C493.5,-452.94 498.57,-443.88 503.54,-434.99"/>
<polygon fill="#888888" stroke="#888888" points="506.64,-436.61 508.47,-426.18 500.53,-433.2 506.64,-436.61"/>
</g>
<!-- 3 -->
<g id="node4" class="node">
<title>3</title>
<text text-anchor="start" x="190" y="-253.8" font-family="Arial" font-weight="bold" font-size="14.00"> &lt; 31.82</text>
<text text-anchor="start" x="151" y="-209.3" font-family="Arial" font-size="14.00"> &#160;</text>
<path fill="#ebebeb" stroke="transparent" d="M173,-181C173,-181 257,-181 257,-181 263,-181 269,-187 269,-193 269,-193 269,-233 269,-233 269,-239 263,-245 257,-245 257,-245 173,-245 173,-245 167,-245 161,-239 161,-233 161,-233 161,-193 161,-193 161,-187 167,-181 173,-181"/>
<text text-anchor="start" x="162" y="-242.4" font-family="Arial" font-size="2.00"> </text>
<text text-anchor="start" x="162" y="-236.4" font-family="Arial" font-size="7.00"> &#160;3</text>
<text text-anchor="start" x="176" y="-219.8" font-family="Arial" font-weight="bold" font-size="14.00">Mean: 25.26</text>
<text text-anchor="start" x="195" y="-202.8" font-family="Arial" font-weight="bold" font-size="14.00">n = 63</text>
<text text-anchor="start" x="213.5" y="-184.8" font-family="Arial" font-size="9.00"> </text>
<path fill="none" stroke="#333333" d="M173,-181C173,-181 257,-181 257,-181 263,-181 269,-187 269,-193 269,-193 269,-233 269,-233 269,-239 263,-245 257,-245 257,-245 173,-245 173,-245 167,-245 161,-239 161,-233 161,-233 161,-193 161,-193 161,-187 167,-181 173,-181"/>
<text text-anchor="start" x="271" y="-209.3" font-family="Arial" font-size="14.00"> &#160;</text>
<text text-anchor="start" x="165.5" y="-166.8" font-family="Arial" font-weight="bold" font-size="14.00">prev_24_inflow</text>
</g>
<!-- 2&#45;&gt;3 -->
<g id="edge3" class="edge">
<title>2&#45;&gt;3</title>
<path fill="none" stroke="#888888" d="M311.13,-307.67C301.62,-298.39 291.72,-288.75 282.05,-279.33"/>
<polygon fill="#888888" stroke="#888888" points="284.31,-276.65 274.71,-272.18 279.43,-281.66 284.31,-276.65"/>
</g>
<!-- 6 -->
<g id="node5" class="node">
<title>6</title>
<text text-anchor="start" x="348.5" y="-253.8" font-family="Arial" font-weight="bold" font-size="14.00"> ≥ 31.82</text>
<path fill="#ebebeb" stroke="transparent" d="M331,-181C331,-181 415,-181 415,-181 421,-181 427,-187 427,-193 427,-193 427,-233 427,-233 427,-239 421,-245 415,-245 415,-245 331,-245 331,-245 325,-245 319,-239 319,-233 319,-233 319,-193 319,-193 319,-187 325,-181 331,-181"/>
<text text-anchor="start" x="320" y="-242.4" font-family="Arial" font-size="2.00"> </text>
<text text-anchor="start" x="320" y="-236.4" font-family="Arial" font-size="7.00"> &#160;6</text>
<text text-anchor="start" x="334" y="-219.8" font-family="Arial" font-weight="bold" font-size="14.00">Mean: 34.35</text>
<text text-anchor="start" x="353" y="-202.8" font-family="Arial" font-weight="bold" font-size="14.00">n = 35</text>
<text text-anchor="start" x="371.5" y="-184.8" font-family="Arial" font-size="9.00"> </text>
<path fill="none" stroke="#333333" d="M331,-181C331,-181 415,-181 415,-181 421,-181 427,-187 427,-193 427,-193 427,-233 427,-233 427,-239 421,-245 415,-245 415,-245 331,-245 331,-245 325,-245 319,-239 319,-233 319,-233 319,-193 319,-193 319,-187 325,-181 331,-181"/>
<text text-anchor="start" x="344" y="-166.8" font-family="Arial" font-weight="bold" font-size="14.00">air_temp</text>
</g>
<!-- 2&#45;&gt;6 -->
<g id="edge4" class="edge">
<title>2&#45;&gt;6</title>
<path fill="none" stroke="#888888" d="M371.77,-307.67C371.88,-299.39 371.99,-290.83 372.1,-282.38"/>
<polygon fill="#888888" stroke="#888888" points="375.6,-282.22 372.23,-272.18 368.6,-282.13 375.6,-282.22"/>
</g>
<!-- 10 -->
<g id="node10" class="node">
<title>10</title>
<text text-anchor="start" x="511" y="-253.8" font-family="Arial" font-weight="bold" font-size="14.00"> &lt; 27.91</text>
<path fill="#f8766d" fill-opacity="0.803922" stroke="transparent" d="M491,-181C491,-181 581,-181 581,-181 587,-181 593,-187 593,-193 593,-193 593,-233 593,-233 593,-239 587,-245 581,-245 581,-245 491,-245 491,-245 485,-245 479,-239 479,-233 479,-233 479,-193 479,-193 479,-187 485,-181 491,-181"/>
<text text-anchor="start" x="480" y="-242.4" font-family="Arial" font-size="2.00"> </text>
<text text-anchor="start" x="480" y="-236.4" font-family="Arial" font-size="7.00"> &#160;10</text>
<text text-anchor="start" x="494" y="-219.8" font-family="Arial" font-weight="bold" font-size="14.00">Predict 26.29</text>
<text text-anchor="start" x="516" y="-202.8" font-family="Arial" font-weight="bold" font-size="14.00">n = 23</text>
<text text-anchor="start" x="534.5" y="-184.8" font-family="Arial" font-size="9.00"> </text>
<path fill="none" stroke="#333333" d="M491,-181C491,-181 581,-181 581,-181 587,-181 593,-187 593,-193 593,-193 593,-233 593,-233 593,-239 587,-245 581,-245 581,-245 491,-245 491,-245 485,-245 479,-239 479,-233 479,-233 479,-193 479,-193 479,-187 485,-181 491,-181"/>
<text text-anchor="start" x="534" y="-166.8" font-family="Arial" font-weight="bold" font-size="14.00"> </text>
</g>
<!-- 9&#45;&gt;10 -->
<g id="edge9" class="edge">
<title>9&#45;&gt;10</title>
<path fill="none" stroke="#888888" d="M539.08,-307.67C538.81,-299.39 538.53,-290.83 538.25,-282.38"/>
<polygon fill="#888888" stroke="#888888" points="541.74,-282.06 537.91,-272.18 534.74,-282.29 541.74,-282.06"/>
</g>
<!-- 11 -->
<g id="node11" class="node">
<title>11</title>
<text text-anchor="start" x="660.5" y="-253.8" font-family="Arial" font-weight="bold" font-size="14.00"> ≥ 27.91</text>
<path fill="#ebebeb" stroke="transparent" d="M647,-181C647,-181 723,-181 723,-181 729,-181 735,-187 735,-193 735,-193 735,-233 735,-233 735,-239 729,-245 723,-245 723,-245 647,-245 647,-245 641,-245 635,-239 635,-233 635,-233 635,-193 635,-193 635,-187 641,-181 647,-181"/>
<text text-anchor="start" x="636" y="-242.4" font-family="Arial" font-size="2.00"> </text>
<text text-anchor="start" x="636" y="-236.4" font-family="Arial" font-size="7.00"> &#160;11</text>
<text text-anchor="start" x="650" y="-219.8" font-family="Arial" font-weight="bold" font-size="14.00">Mean: 30.5</text>
<text text-anchor="start" x="665" y="-202.8" font-family="Arial" font-weight="bold" font-size="14.00">n = 47</text>
<text text-anchor="start" x="683.5" y="-184.8" font-family="Arial" font-size="9.00"> </text>
<path fill="none" stroke="#333333" d="M647,-181C647,-181 723,-181 723,-181 729,-181 735,-187 735,-193 735,-193 735,-233 735,-233 735,-239 729,-245 723,-245 723,-245 647,-245 647,-245 641,-245 635,-239 635,-233 635,-233 635,-193 635,-193 635,-187 641,-181 647,-181"/>
<text text-anchor="start" x="670.5" y="-166.8" font-family="Arial" font-weight="bold" font-size="14.00">time</text>
</g>
<!-- 9&#45;&gt;11 -->
<g id="edge10" class="edge">
<title>9&#45;&gt;11</title>
<path fill="none" stroke="#888888" d="M596.26,-307.67C604.96,-298.49 614.01,-288.94 622.85,-279.6"/>
<polygon fill="#888888" stroke="#888888" points="625.55,-281.84 629.89,-272.18 620.47,-277.03 625.55,-281.84"/>
</g>
<!-- 4 -->
<g id="node6" class="node">
<title>4</title>
<text text-anchor="start" x="40" y="-99.8" font-family="Arial" font-weight="bold" font-size="14.00"> &lt; 26.33</text>
<path fill="#f8766d" fill-opacity="0.874510" stroke="transparent" d="M24,-27C24,-27 106,-27 106,-27 112,-27 118,-33 118,-39 118,-39 118,-79 118,-79 118,-85 112,-91 106,-91 106,-91 24,-91 24,-91 18,-91 12,-85 12,-79 12,-79 12,-39 12,-39 12,-33 18,-27 24,-27"/>
<text text-anchor="start" x="13" y="-88.4" font-family="Arial" font-size="2.00"> </text>
<text text-anchor="start" x="13" y="-82.4" font-family="Arial" font-size="7.00"> &#160;4</text>
<text text-anchor="start" x="27" y="-65.8" font-family="Arial" font-weight="bold" font-size="14.00">Predict 23.9</text>
<text text-anchor="start" x="45" y="-48.8" font-family="Arial" font-weight="bold" font-size="14.00">n = 44</text>
<text text-anchor="start" x="63.5" y="-30.8" font-family="Arial" font-size="9.00"> </text>
<path fill="none" stroke="#333333" d="M24,-27C24,-27 106,-27 106,-27 112,-27 118,-33 118,-39 118,-39 118,-79 118,-79 118,-85 112,-91 106,-91 106,-91 24,-91 24,-91 18,-91 12,-85 12,-79 12,-79 12,-39 12,-39 12,-33 18,-27 24,-27"/>
<text text-anchor="start" x="63" y="-12.8" font-family="Arial" font-weight="bold" font-size="14.00"> </text>
</g>
<!-- 3&#45;&gt;4 -->
<g id="edge5" class="edge">
<title>3&#45;&gt;4</title>
<path fill="none" stroke="#888888" d="M157.44,-153.67C148.28,-144.39 138.77,-134.75 129.47,-125.33"/>
<polygon fill="#888888" stroke="#888888" points="131.93,-122.84 122.41,-118.18 126.94,-127.75 131.93,-122.84"/>
</g>
<!-- 5 -->
<g id="node7" class="node">
<title>5</title>
<text text-anchor="start" x="192.5" y="-99.8" font-family="Arial" font-weight="bold" font-size="14.00"> ≥ 26.33</text>
<path fill="#f8766d" fill-opacity="0.737255" stroke="transparent" d="M172,-27C172,-27 262,-27 262,-27 268,-27 274,-33 274,-39 274,-39 274,-79 274,-79 274,-85 268,-91 262,-91 262,-91 172,-91 172,-91 166,-91 160,-85 160,-79 160,-79 160,-39 160,-39 160,-33 166,-27 172,-27"/>
<text text-anchor="start" x="161" y="-88.4" font-family="Arial" font-size="2.00"> </text>
<text text-anchor="start" x="161" y="-82.4" font-family="Arial" font-size="7.00"> &#160;5</text>
<text text-anchor="start" x="175" y="-65.8" font-family="Arial" font-weight="bold" font-size="14.00">Predict 28.41</text>
<text text-anchor="start" x="197" y="-48.8" font-family="Arial" font-weight="bold" font-size="14.00">n = 19</text>
<text text-anchor="start" x="215.5" y="-30.8" font-family="Arial" font-size="9.00"> </text>
<path fill="none" stroke="#333333" d="M172,-27C172,-27 262,-27 262,-27 268,-27 274,-33 274,-39 274,-39 274,-79 274,-79 274,-85 268,-91 262,-91 262,-91 172,-91 172,-91 166,-91 160,-85 160,-79 160,-79 160,-39 160,-39 160,-33 166,-27 172,-27"/>
<text text-anchor="start" x="215" y="-12.8" font-family="Arial" font-weight="bold" font-size="14.00"> </text>
</g>
<!-- 3&#45;&gt;5 -->
<g id="edge6" class="edge">
<title>3&#45;&gt;5</title>
<path fill="none" stroke="#888888" d="M215.77,-153.67C215.88,-145.39 215.99,-136.83 216.1,-128.38"/>
<polygon fill="#888888" stroke="#888888" points="219.6,-128.22 216.23,-118.18 212.6,-128.13 219.6,-128.22"/>
</g>
<!-- 7 -->
<g id="node8" class="node">
<title>7</title>
<text text-anchor="start" x="347" y="-99.8" font-family="Arial" font-weight="bold" font-size="14.00"> &lt; 22.25</text>
<path fill="#f8766d" fill-opacity="0.376471" stroke="transparent" d="M331,-27C331,-27 413,-27 413,-27 419,-27 425,-33 425,-39 425,-39 425,-79 425,-79 425,-85 419,-91 413,-91 413,-91 331,-91 331,-91 325,-91 319,-85 319,-79 319,-79 319,-39 319,-39 319,-33 325,-27 331,-27"/>
<text text-anchor="start" x="320" y="-88.4" font-family="Arial" font-size="2.00"> </text>
<text text-anchor="start" x="320" y="-82.4" font-family="Arial" font-size="7.00"> &#160;7</text>
<text text-anchor="start" x="334" y="-65.8" font-family="Arial" font-weight="bold" font-size="14.00">Predict 40.3</text>
<text text-anchor="start" x="356" y="-48.8" font-family="Arial" font-weight="bold" font-size="14.00">n = 3</text>
<text text-anchor="start" x="370.5" y="-30.8" font-family="Arial" font-size="9.00"> </text>
<path fill="none" stroke="#333333" d="M331,-27C331,-27 413,-27 413,-27 419,-27 425,-33 425,-39 425,-39 425,-79 425,-79 425,-85 419,-91 413,-91 413,-91 331,-91 331,-91 325,-91 319,-85 319,-79 319,-79 319,-39 319,-39 319,-33 325,-27 331,-27"/>
<text text-anchor="start" x="370" y="-12.8" font-family="Arial" font-weight="bold" font-size="14.00"> </text>
</g>
<!-- 6&#45;&gt;7 -->
<g id="edge7" class="edge">
<title>6&#45;&gt;7</title>
<path fill="none" stroke="#888888" d="M372.62,-153.67C372.56,-145.39 372.51,-136.83 372.45,-128.38"/>
<polygon fill="#888888" stroke="#888888" points="375.95,-128.15 372.38,-118.18 368.95,-128.2 375.95,-128.15"/>
</g>
<!-- 8 -->
<g id="node9" class="node">
<title>8</title>
<text text-anchor="start" x="499.5" y="-99.8" font-family="Arial" font-weight="bold" font-size="14.00"> ≥ 22.25</text>
<path fill="#f8766d" fill-opacity="0.572549" stroke="transparent" d="M479,-27C479,-27 569,-27 569,-27 575,-27 581,-33 581,-39 581,-39 581,-79 581,-79 581,-85 575,-91 569,-91 569,-91 479,-91 479,-91 473,-91 467,-85 467,-79 467,-79 467,-39 467,-39 467,-33 473,-27 479,-27"/>
<text text-anchor="start" x="468" y="-88.4" font-family="Arial" font-size="2.00"> </text>
<text text-anchor="start" x="468" y="-82.4" font-family="Arial" font-size="7.00"> &#160;8</text>
<text text-anchor="start" x="482" y="-65.8" font-family="Arial" font-weight="bold" font-size="14.00">Predict 33.79</text>
<text text-anchor="start" x="504" y="-48.8" font-family="Arial" font-weight="bold" font-size="14.00">n = 32</text>
<text text-anchor="start" x="522.5" y="-30.8" font-family="Arial" font-size="9.00"> </text>
<path fill="none" stroke="#333333" d="M479,-27C479,-27 569,-27 569,-27 575,-27 581,-33 581,-39 581,-39 581,-79 581,-79 581,-85 575,-91 569,-91 569,-91 479,-91 479,-91 473,-91 467,-85 467,-79 467,-79 467,-39 467,-39 467,-33 473,-27 479,-27"/>
<text text-anchor="start" x="522" y="-12.8" font-family="Arial" font-weight="bold" font-size="14.00"> </text>
</g>
<!-- 6&#45;&gt;8 -->
<g id="edge8" class="edge">
<title>6&#45;&gt;8</title>
<path fill="none" stroke="#888888" d="M430.95,-153.67C440.16,-144.39 449.74,-134.75 459.1,-125.33"/>
<polygon fill="#888888" stroke="#888888" points="461.64,-127.74 466.21,-118.18 456.68,-122.8 461.64,-127.74"/>
</g>
<!-- 12 -->
<g id="node12" class="node">
<title>12</title>
<text text-anchor="start" x="661.5" y="-99.8" font-family="Arial" font-weight="bold" font-size="14.00"> &lt; 20.5</text>
<path fill="#f8766d" fill-opacity="0.650980" stroke="transparent" d="M638,-27C638,-27 728,-27 728,-27 734,-27 740,-33 740,-39 740,-39 740,-79 740,-79 740,-85 734,-91 728,-91 728,-91 638,-91 638,-91 632,-91 626,-85 626,-79 626,-79 626,-39 626,-39 626,-33 632,-27 638,-27"/>
<text text-anchor="start" x="627" y="-88.4" font-family="Arial" font-size="2.00"> </text>
<text text-anchor="start" x="627" y="-82.4" font-family="Arial" font-size="7.00"> &#160;12</text>
<text text-anchor="start" x="641" y="-65.8" font-family="Arial" font-weight="bold" font-size="14.00">Predict 31.24</text>
<text text-anchor="start" x="663" y="-48.8" font-family="Arial" font-weight="bold" font-size="14.00">n = 35</text>
<text text-anchor="start" x="681.5" y="-30.8" font-family="Arial" font-size="9.00"> </text>
<path fill="none" stroke="#333333" d="M638,-27C638,-27 728,-27 728,-27 734,-27 740,-33 740,-39 740,-39 740,-79 740,-79 740,-85 734,-91 728,-91 728,-91 638,-91 638,-91 632,-91 626,-85 626,-79 626,-79 626,-39 626,-39 626,-33 632,-27 638,-27"/>
<text text-anchor="start" x="681" y="-12.8" font-family="Arial" font-weight="bold" font-size="14.00"> </text>
</g>
<!-- 11&#45;&gt;12 -->
<g id="edge11" class="edge">
<title>11&#45;&gt;12</title>
<path fill="none" stroke="#888888" d="M684.23,-153.67C684.12,-145.39 684.01,-136.83 683.9,-128.38"/>
<polygon fill="#888888" stroke="#888888" points="687.4,-128.13 683.77,-118.18 680.4,-128.22 687.4,-128.13"/>
</g>
<!-- 13 -->
<g id="node13" class="node">
<title>13</title>
<text text-anchor="start" x="818" y="-99.8" font-family="Arial" font-weight="bold" font-size="14.00"> ≥ 20.5</text>
<path fill="#f8766d" fill-opacity="0.741176" stroke="transparent" d="M794,-27C794,-27 884,-27 884,-27 890,-27 896,-33 896,-39 896,-39 896,-79 896,-79 896,-85 890,-91 884,-91 884,-91 794,-91 794,-91 788,-91 782,-85 782,-79 782,-79 782,-39 782,-39 782,-33 788,-27 794,-27"/>
<text text-anchor="start" x="783" y="-88.4" font-family="Arial" font-size="2.00"> </text>
<text text-anchor="start" x="783" y="-82.4" font-family="Arial" font-size="7.00"> &#160;13</text>
<text text-anchor="start" x="797" y="-65.8" font-family="Arial" font-weight="bold" font-size="14.00">Predict 28.32</text>
<text text-anchor="start" x="819" y="-48.8" font-family="Arial" font-weight="bold" font-size="14.00">n = 12</text>
<text text-anchor="start" x="837.5" y="-30.8" font-family="Arial" font-size="9.00"> </text>
<path fill="none" stroke="#333333" d="M794,-27C794,-27 884,-27 884,-27 890,-27 896,-33 896,-39 896,-39 896,-79 896,-79 896,-85 890,-91 884,-91 884,-91 794,-91 794,-91 788,-91 782,-85 782,-79 782,-79 782,-39 782,-39 782,-33 788,-27 794,-27"/>
<text text-anchor="start" x="837" y="-12.8" font-family="Arial" font-weight="bold" font-size="14.00"> </text>
</g>
<!-- 11&#45;&gt;13 -->
<g id="edge12" class="edge">
<title>11&#45;&gt;13</title>
<path fill="none" stroke="#888888" d="M744.1,-153.67C753.5,-144.39 763.27,-134.75 772.81,-125.33"/>
<polygon fill="#888888" stroke="#888888" points="775.4,-127.69 780.06,-118.18 770.48,-122.71 775.4,-127.69"/>
</g>
</g>
</svg>
