<?xml version="1.0" encoding="UTF-8" standalone="no"?>
<!DOCTYPE svg PUBLIC "-//W3C//DTD SVG 1.1//EN"
 "http://www.w3.org/Graphics/SVG/1.1/DTD/svg11.dtd">
<!-- Generated by graphviz version 2.50.0 (20211204.2007)
 -->
<!-- Pages: 1 -->
<svg width="1238pt" height="588pt"
 viewBox="0.00 0.00 1238.00 588.00" xmlns="http://www.w3.org/2000/svg" xmlns:xlink="http://www.w3.org/1999/xlink">
<g id="graph0" class="graph" transform="scale(1 1) rotate(0) translate(4 584)">
<polygon fill="white" stroke="transparent" points="-4,4 -4,-584 1234,-584 1234,4 -4,4"/>
<!-- 1 -->
<g id="node1" class="node">
<title>1</title>
<text text-anchor="start" x="613" y="-561.8" font-family="Arial" font-weight="bold" font-size="14.00"> </text>
<path fill="#ebebeb" stroke="transparent" d="M573,-489C573,-489 657,-489 657,-489 663,-489 669,-495 669,-501 669,-501 669,-541 669,-541 669,-547 663,-553 657,-553 657,-553 573,-553 573,-553 567,-553 561,-547 561,-541 561,-541 561,-501 561,-501 561,-495 567,-489 573,-489"/>
<text text-anchor="start" x="562" y="-550.4" font-family="Arial" font-size="2.00"> </text>
<text text-anchor="start" x="562" y="-544.4" font-family="Arial" font-size="7.00"> &#160;1</text>
<text text-anchor="start" x="576" y="-527.8" font-family="Arial" font-weight="bold" font-size="14.00">Mean: 29.03</text>
<text text-anchor="start" x="591.5" y="-510.8" font-family="Arial" font-weight="bold" font-size="14.00">n = 168</text>
<text text-anchor="start" x="613.5" y="-492.8" font-family="Arial" font-size="9.00"> </text>
<path fill="none" stroke="#333333" d="M573,-489C573,-489 657,-489 657,-489 663,-489 669,-495 669,-501 669,-501 669,-541 669,-541 669,-547 663,-553 657,-553 657,-553 573,-553 573,-553 567,-553 561,-547 561,-541 561,-541 561,-501 561,-501 561,-495 567,-489 573,-489"/>
<text text-anchor="start" x="600.5" y="-474.8" font-family="Arial" font-weight="bold" font-size="14.00">time</text>
</g>
<!-- 2 -->
<g id="node2" class="node">
<title>2</title>
<text text-anchor="start" x="479.5" y="-407.8" font-family="Arial" font-weight="bold" font-size="14.00"> &lt; 13.5</text>
<path fill="#ebebeb" stroke="transparent" d="M459,-335C459,-335 543,-335 543,-335 549,-335 555,-341 555,-347 555,-347 555,-387 555,-387 555,-393 549,-399 543,-399 543,-399 459,-399 459,-399 453,-399 447,-393 447,-387 447,-387 447,-347 447,-347 447,-341 453,-335 459,-335"/>
<text text-anchor="start" x="448" y="-396.4" font-family="Arial" font-size="2.00"> </text>
<text text-anchor="start" x="448" y="-390.4" font-family="Arial" font-size="7.00"> &#160;2</text>
<text text-anchor="start" x="462" y="-373.8" font-family="Arial" font-weight="bold" font-size="14.00">Mean: 28.05</text>
<text text-anchor="start" x="481" y="-356.8" font-family="Arial" font-weight="bold" font-size="14.00">n = 98</text>
<text text-anchor="start" x="499.5" y="-338.8" font-family="Arial" font-size="9.00"> </text>
<path fill="none" stroke="#333333" d="M459,-335C459,-335 543,-335 543,-335 549,-335 555,-341 555,-347 555,-347 555,-387 555,-387 555,-393 549,-399 543,-399 543,-399 459,-399 459,-399 453,-399 447,-393 447,-387 447,-387 447,-347 447,-347 447,-341 453,-335 459,-335"/>
<text text-anchor="start" x="486.5" y="-320.8" font-family="Arial" font-weight="bold" font-size="14.00">time</text>
</g>
<!-- 1&#45;&gt;2 -->
<g id="edge1" class="edge">
<title>1&#45;&gt;2</title>
<path fill="none" stroke="#888888" d="M571.25,-461.67C564.57,-452.76 557.63,-443.51 550.83,-434.44"/>
<polygon fill="#888888" stroke="#888888" points="553.43,-432.08 544.63,-426.18 547.83,-436.28 553.43,-432.08"/>
</g>
<!-- 9 -->
<g id="node3" class="node">
<title>9</title>
<text text-anchor="start" x="708" y="-407.8" font-family="Arial" font-weight="bold" font-size="14.00"> ≥ 13.5</text>
<text text-anchor="start" x="661" y="-363.3" font-family="Arial" font-size="14.00"> &#160;&#160;</text>
<path fill="#ebebeb" stroke="transparent" d="M687,-335C687,-335 771,-335 771,-335 777,-335 783,-341 783,-347 783,-347 783,-387 783,-387 783,-393 777,-399 771,-399 771,-399 687,-399 687,-399 681,-399 675,-393 675,-387 675,-387 675,-347 675,-347 675,-341 681,-335 687,-335"/>
<text text-anchor="start" x="676" y="-396.4" font-family="Arial" font-size="2.00"> </text>
<text text-anchor="start" x="676" y="-390.4" font-family="Arial" font-size="7.00"> &#160;9</text>
<text text-anchor="start" x="690" y="-373.8" font-family="Arial" font-weight="bold" font-size="14.00">Mean: 30.41</text>
<text text-anchor="start" x="709" y="-356.8" font-family="Arial" font-weight="bold" font-size="14.00">n = 70</text>
<text text-anchor="start" x="727.5" y="-338.8" font-family="Arial" font-size="9.00"> </text>
<path fill="none" stroke="#333333" d="M687,-335C687,-335 771,-335 771,-335 777,-335 783,-341 783,-347 783,-347 783,-387 783,-387 783,-393 777,-399 771,-399 771,-399 687,-399 687,-399 681,-399 675,-393 675,-387 675,-387 675,-347 675,-347 675,-341 681,-335 687,-335"/>
<text text-anchor="start" x="785" y="-363.3" font-family="Arial" font-size="14.00"> &#160;&#160;</text>
<text text-anchor="start" x="676" y="-320.8" font-family="Arial" font-weight="bold" font-size="14.00">prev_168_inflow</text>
</g>
<!-- 1&#45;&gt;9 -->
<g id="edge2" class="edge">
<title>1&#45;&gt;9</title>
<path fill="none" stroke="#888888" d="M658.75,-461.67C665.43,-452.76 672.37,-443.51 679.17,-434.44"/>
<polygon fill="#888888" stroke="#888888" points="682.17,-436.28 685.37,-426.18 676.57,-432.08 682.17,-436.28"/>
</g>
<!-- 3 -->
<g id="node4" class="node">
<title>3</title>
<text text-anchor="start" x="207.5" y="-253.8" font-family="Arial" font-weight="bold" font-size="14.00"> &lt; 5.5</text>
<text text-anchor="start" x="157" y="-209.3" font-family="Arial" font-size="14.00"> &#160;&#160;&#160;</text>
<path fill="#ebebeb" stroke="transparent" d="M187,-181C187,-181 263,-181 263,-181 269,-181 275,-187 275,-193 275,-193 275,-233 275,-233 275,-239 269,-245 263,-245 263,-245 187,-245 187,-245 181,-245 175,-239 175,-233 175,-233 175,-193 175,-193 175,-187 181,-181 187,-181"/>
<text text-anchor="start" x="176" y="-242.4" font-family="Arial" font-size="2.00"> </text>
<text text-anchor="start" x="176" y="-236.4" font-family="Arial" font-size="7.00"> &#160;3</text>
<text text-anchor="start" x="190" y="-219.8" font-family="Arial" font-weight="bold" font-size="14.00">Mean: 22.3</text>
<text text-anchor="start" x="205" y="-202.8" font-family="Arial" font-weight="bold" font-size="14.00">n = 42</text>
<text text-anchor="start" x="223.5" y="-184.8" font-family="Arial" font-size="9.00"> </text>
<path fill="none" stroke="#333333" d="M187,-181C187,-181 263,-181 263,-181 269,-181 275,-187 275,-193 275,-193 275,-233 275,-233 275,-239 269,-245 263,-245 263,-245 187,-245 187,-245 181,-245 175,-239 175,-233 175,-233 175,-193 175,-193 175,-187 181,-181 187,-181"/>
<text text-anchor="start" x="277" y="-209.3" font-family="Arial" font-size="14.00"> &#160;&#160;&#160;</text>
<text text-anchor="start" x="172" y="-166.8" font-family="Arial" font-weight="bold" font-size="14.00">prev_168_inflow</text>
</g>
<!-- 2&#45;&gt;3 -->
<g id="edge3" class="edge">
<title>2&#45;&gt;3</title>
<path fill="none" stroke="#888888" d="M434.89,-329.59C398.05,-309.3 351.72,-283.79 311.97,-261.89"/>
<polygon fill="#888888" stroke="#888888" points="313.51,-258.75 303.07,-256.99 310.14,-264.88 313.51,-258.75"/>
</g>
<!-- 6 -->
<g id="node5" class="node">
<title>6</title>
<text text-anchor="start" x="484" y="-253.8" font-family="Arial" font-weight="bold" font-size="14.00"> ≥ 5.5</text>
<text text-anchor="start" x="433" y="-209.3" font-family="Arial" font-size="14.00"> &#160;&#160;</text>
<path fill="#ebebeb" stroke="transparent" d="M459,-181C459,-181 543,-181 543,-181 549,-181 555,-187 555,-193 555,-193 555,-233 555,-233 555,-239 549,-245 543,-245 543,-245 459,-245 459,-245 453,-245 447,-239 447,-233 447,-233 447,-193 447,-193 447,-187 453,-181 459,-181"/>
<text text-anchor="start" x="448" y="-242.4" font-family="Arial" font-size="2.00"> </text>
<text text-anchor="start" x="448" y="-236.4" font-family="Arial" font-size="7.00"> &#160;6</text>
<text text-anchor="start" x="462" y="-219.8" font-family="Arial" font-weight="bold" font-size="14.00">Mean: 32.35</text>
<text text-anchor="start" x="481" y="-202.8" font-family="Arial" font-weight="bold" font-size="14.00">n = 56</text>
<text text-anchor="start" x="499.5" y="-184.8" font-family="Arial" font-size="9.00"> </text>
<path fill="none" stroke="#333333" d="M459,-181C459,-181 543,-181 543,-181 549,-181 555,-187 555,-193 555,-193 555,-233 555,-233 555,-239 549,-245 543,-245 543,-245 459,-245 459,-245 453,-245 447,-239 447,-233 447,-233 447,-193 447,-193 447,-187 453,-181 459,-181"/>
<text text-anchor="start" x="557" y="-209.3" font-family="Arial" font-size="14.00"> &#160;&#160;</text>
<text text-anchor="start" x="448" y="-166.8" font-family="Arial" font-weight="bold" font-size="14.00">prev_168_inflow</text>
</g>
<!-- 2&#45;&gt;6 -->
<g id="edge4" class="edge">
<title>2&#45;&gt;6</title>
<path fill="none" stroke="#888888" d="M501,-307.67C501,-299.39 501,-290.83 501,-282.38"/>
<polygon fill="#888888" stroke="#888888" points="504.5,-282.18 501,-272.18 497.5,-282.18 504.5,-282.18"/>
</g>
<!-- 10 -->
<g id="node10" class="node">
<title>10</title>
<text text-anchor="start" x="704.5" y="-253.8" font-family="Arial" font-weight="bold" font-size="14.00"> &lt; 29.11</text>
<path fill="#ebebeb" stroke="transparent" d="M687,-181C687,-181 771,-181 771,-181 777,-181 783,-187 783,-193 783,-193 783,-233 783,-233 783,-239 777,-245 771,-245 771,-245 687,-245 687,-245 681,-245 675,-239 675,-233 675,-233 675,-193 675,-193 675,-187 681,-181 687,-181"/>
<text text-anchor="start" x="676" y="-242.4" font-family="Arial" font-size="2.00"> </text>
<text text-anchor="start" x="676" y="-236.4" font-family="Arial" font-size="7.00"> &#160;10</text>
<text text-anchor="start" x="690" y="-219.8" font-family="Arial" font-weight="bold" font-size="14.00">Mean: 28.22</text>
<text text-anchor="start" x="709" y="-202.8" font-family="Arial" font-weight="bold" font-size="14.00">n = 41</text>
<text text-anchor="start" x="727.5" y="-184.8" font-family="Arial" font-size="9.00"> </text>
<path fill="none" stroke="#333333" d="M687,-181C687,-181 771,-181 771,-181 777,-181 783,-187 783,-193 783,-193 783,-233 783,-233 783,-239 777,-245 771,-245 771,-245 687,-245 687,-245 681,-245 675,-239 675,-233 675,-233 675,-193 675,-193 675,-187 681,-181 687,-181"/>
<text text-anchor="start" x="700" y="-166.8" font-family="Arial" font-weight="bold" font-size="14.00">air_temp</text>
</g>
<!-- 9&#45;&gt;10 -->
<g id="edge9" class="edge">
<title>9&#45;&gt;10</title>
<path fill="none" stroke="#888888" d="M729,-307.67C729,-299.39 729,-290.83 729,-282.38"/>
<polygon fill="#888888" stroke="#888888" points="732.5,-282.18 729,-272.18 725.5,-282.18 732.5,-282.18"/>
</g>
<!-- 13 -->
<g id="node11" class="node">
<title>13</title>
<text text-anchor="start" x="980.5" y="-253.8" font-family="Arial" font-weight="bold" font-size="14.00"> ≥ 29.11</text>
<path fill="#ebebeb" stroke="transparent" d="M963,-181C963,-181 1047,-181 1047,-181 1053,-181 1059,-187 1059,-193 1059,-193 1059,-233 1059,-233 1059,-239 1053,-245 1047,-245 1047,-245 963,-245 963,-245 957,-245 951,-239 951,-233 951,-233 951,-193 951,-193 951,-187 957,-181 963,-181"/>
<text text-anchor="start" x="952" y="-242.4" font-family="Arial" font-size="2.00"> </text>
<text text-anchor="start" x="952" y="-236.4" font-family="Arial" font-size="7.00"> &#160;13</text>
<text text-anchor="start" x="966" y="-219.8" font-family="Arial" font-weight="bold" font-size="14.00">Mean: 33.51</text>
<text text-anchor="start" x="985" y="-202.8" font-family="Arial" font-weight="bold" font-size="14.00">n = 29</text>
<text text-anchor="start" x="1003.5" y="-184.8" font-family="Arial" font-size="9.00"> </text>
<path fill="none" stroke="#333333" d="M963,-181C963,-181 1047,-181 1047,-181 1053,-181 1059,-187 1059,-193 1059,-193 1059,-233 1059,-233 1059,-239 1053,-245 1047,-245 1047,-245 963,-245 963,-245 957,-245 951,-239 951,-233 951,-233 951,-193 951,-193 951,-187 957,-181 963,-181"/>
<text text-anchor="start" x="969.5" y="-166.8" font-family="Arial" font-weight="bold" font-size="14.00">windspeed</text>
</g>
<!-- 9&#45;&gt;13 -->
<g id="edge10" class="edge">
<title>9&#45;&gt;13</title>
<path fill="none" stroke="#888888" d="M807.35,-322.85C845.71,-301.72 891.69,-276.4 929.64,-255.5"/>
<polygon fill="#888888" stroke="#888888" points="931.53,-258.45 938.61,-250.56 928.16,-252.32 931.53,-258.45"/>
</g>
<!-- 4 -->
<g id="node6" class="node">
<title>4</title>
<text text-anchor="start" x="44" y="-99.8" font-family="Arial" font-weight="bold" font-size="14.00"> &lt; 21.87</text>
<path fill="#f8766d" fill-opacity="0.874510" stroke="transparent" d="M24,-27C24,-27 114,-27 114,-27 120,-27 126,-33 126,-39 126,-39 126,-79 126,-79 126,-85 120,-91 114,-91 114,-91 24,-91 24,-91 18,-91 12,-85 12,-79 12,-79 12,-39 12,-39 12,-33 18,-27 24,-27"/>
<text text-anchor="start" x="13" y="-88.4" font-family="Arial" font-size="2.00"> </text>
<text text-anchor="start" x="13" y="-82.4" font-family="Arial" font-size="7.00"> &#160;4</text>
<text text-anchor="start" x="27" y="-65.8" font-family="Arial" font-weight="bold" font-size="14.00">Predict 20.75</text>
<text text-anchor="start" x="49" y="-48.8" font-family="Arial" font-weight="bold" font-size="14.00">n = 26</text>
<text text-anchor="start" x="67.5" y="-30.8" font-family="Arial" font-size="9.00"> </text>
<path fill="none" stroke="#333333" d="M24,-27C24,-27 114,-27 114,-27 120,-27 126,-33 126,-39 126,-39 126,-79 126,-79 126,-85 120,-91 114,-91 114,-91 24,-91 24,-91 18,-91 12,-85 12,-79 12,-79 12,-39 12,-39 12,-33 18,-27 24,-27"/>
<text text-anchor="start" x="67" y="-12.8" font-family="Arial" font-weight="bold" font-size="14.00"> </text>
</g>
<!-- 3&#45;&gt;4 -->
<g id="edge5" class="edge">
<title>3&#45;&gt;4</title>
<path fill="none" stroke="#888888" d="M165.13,-153.67C155.62,-144.39 145.72,-134.75 136.05,-125.33"/>
<polygon fill="#888888" stroke="#888888" points="138.31,-122.65 128.71,-118.18 133.43,-127.66 138.31,-122.65"/>
</g>
<!-- 5 -->
<g id="node7" class="node">
<title>5</title>
<text text-anchor="start" x="200.5" y="-99.8" font-family="Arial" font-weight="bold" font-size="14.00"> ≥ 21.87</text>
<path fill="#f8766d" fill-opacity="0.752941" stroke="transparent" d="M180,-27C180,-27 270,-27 270,-27 276,-27 282,-33 282,-39 282,-39 282,-79 282,-79 282,-85 276,-91 270,-91 270,-91 180,-91 180,-91 174,-91 168,-85 168,-79 168,-79 168,-39 168,-39 168,-33 174,-27 180,-27"/>
<text text-anchor="start" x="169" y="-88.4" font-family="Arial" font-size="2.00"> </text>
<text text-anchor="start" x="169" y="-82.4" font-family="Arial" font-size="7.00"> &#160;5</text>
<text text-anchor="start" x="183" y="-65.8" font-family="Arial" font-weight="bold" font-size="14.00">Predict 24.82</text>
<text text-anchor="start" x="205" y="-48.8" font-family="Arial" font-weight="bold" font-size="14.00">n = 16</text>
<text text-anchor="start" x="223.5" y="-30.8" font-family="Arial" font-size="9.00"> </text>
<path fill="none" stroke="#333333" d="M180,-27C180,-27 270,-27 270,-27 276,-27 282,-33 282,-39 282,-39 282,-79 282,-79 282,-85 276,-91 270,-91 270,-91 180,-91 180,-91 174,-91 168,-85 168,-79 168,-79 168,-39 168,-39 168,-33 174,-27 180,-27"/>
<text text-anchor="start" x="223" y="-12.8" font-family="Arial" font-weight="bold" font-size="14.00"> </text>
</g>
<!-- 3&#45;&gt;5 -->
<g id="edge6" class="edge">
<title>3&#45;&gt;5</title>
<path fill="none" stroke="#888888" d="M225,-153.67C225,-145.39 225,-136.83 225,-128.38"/>
<polygon fill="#888888" stroke="#888888" points="228.5,-128.18 225,-118.18 221.5,-128.18 228.5,-128.18"/>
</g>
<!-- 7 -->
<g id="node8" class="node">
<title>7</title>
<text text-anchor="start" x="356" y="-99.8" font-family="Arial" font-weight="bold" font-size="14.00"> &lt; 30.78</text>
<path fill="#f8766d" fill-opacity="0.596078" stroke="transparent" d="M336,-27C336,-27 426,-27 426,-27 432,-27 438,-33 438,-39 438,-39 438,-79 438,-79 438,-85 432,-91 426,-91 426,-91 336,-91 336,-91 330,-91 324,-85 324,-79 324,-79 324,-39 324,-39 324,-33 330,-27 336,-27"/>
<text text-anchor="start" x="325" y="-88.4" font-family="Arial" font-size="2.00"> </text>
<text text-anchor="start" x="325" y="-82.4" font-family="Arial" font-size="7.00"> &#160;7</text>
<text text-anchor="start" x="339" y="-65.8" font-family="Arial" font-weight="bold" font-size="14.00">Predict 30.12</text>
<text text-anchor="start" x="361" y="-48.8" font-family="Arial" font-weight="bold" font-size="14.00">n = 32</text>
<text text-anchor="start" x="379.5" y="-30.8" font-family="Arial" font-size="9.00"> </text>
<path fill="none" stroke="#333333" d="M336,-27C336,-27 426,-27 426,-27 432,-27 438,-33 438,-39 438,-39 438,-79 438,-79 438,-85 432,-91 426,-91 426,-91 336,-91 336,-91 330,-91 324,-85 324,-79 324,-79 324,-39 324,-39 324,-33 330,-27 336,-27"/>
<text text-anchor="start" x="379" y="-12.8" font-family="Arial" font-weight="bold" font-size="14.00"> </text>
</g>
<!-- 6&#45;&gt;7 -->
<g id="edge7" class="edge">
<title>6&#45;&gt;7</title>
<path fill="none" stroke="#888888" d="M454.95,-153.67C447.84,-144.67 440.46,-135.32 433.23,-126.16"/>
<polygon fill="#888888" stroke="#888888" points="435.87,-123.86 426.93,-118.18 430.38,-128.19 435.87,-123.86"/>
</g>
<!-- 8 -->
<g id="node9" class="node">
<title>8</title>
<text text-anchor="start" x="512.5" y="-99.8" font-family="Arial" font-weight="bold" font-size="14.00"> ≥ 30.78</text>
<path fill="#f8766d" fill-opacity="0.443137" stroke="transparent" d="M492,-27C492,-27 582,-27 582,-27 588,-27 594,-33 594,-39 594,-39 594,-79 594,-79 594,-85 588,-91 582,-91 582,-91 492,-91 492,-91 486,-91 480,-85 480,-79 480,-79 480,-39 480,-39 480,-33 486,-27 492,-27"/>
<text text-anchor="start" x="481" y="-88.4" font-family="Arial" font-size="2.00"> </text>
<text text-anchor="start" x="481" y="-82.4" font-family="Arial" font-size="7.00"> &#160;8</text>
<text text-anchor="start" x="495" y="-65.8" font-family="Arial" font-weight="bold" font-size="14.00">Predict 35.33</text>
<text text-anchor="start" x="517" y="-48.8" font-family="Arial" font-weight="bold" font-size="14.00">n = 24</text>
<text text-anchor="start" x="535.5" y="-30.8" font-family="Arial" font-size="9.00"> </text>
<path fill="none" stroke="#333333" d="M492,-27C492,-27 582,-27 582,-27 588,-27 594,-33 594,-39 594,-39 594,-79 594,-79 594,-85 588,-91 582,-91 582,-91 492,-91 492,-91 486,-91 480,-85 480,-79 480,-79 480,-39 480,-39 480,-33 486,-27 492,-27"/>
<text text-anchor="start" x="535" y="-12.8" font-family="Arial" font-weight="bold" font-size="14.00"> </text>
</g>
<!-- 6&#45;&gt;8 -->
<g id="edge8" class="edge">
<title>6&#45;&gt;8</title>
<path fill="none" stroke="#888888" d="M514.82,-153.67C516.8,-145.3 518.85,-136.64 520.87,-128.1"/>
<polygon fill="#888888" stroke="#888888" points="524.32,-128.71 523.22,-118.18 517.51,-127.1 524.32,-128.71"/>
</g>
<!-- 11 -->
<g id="node12" class="node">
<title>11</title>
<text text-anchor="start" x="671.5" y="-99.8" font-family="Arial" font-weight="bold" font-size="14.00"> &lt; 25.5</text>
<path fill="#f8766d" fill-opacity="0.694118" stroke="transparent" d="M648,-27C648,-27 738,-27 738,-27 744,-27 750,-33 750,-39 750,-39 750,-79 750,-79 750,-85 744,-91 738,-91 738,-91 648,-91 648,-91 642,-91 636,-85 636,-79 636,-79 636,-39 636,-39 636,-33 642,-27 648,-27"/>
<text text-anchor="start" x="637" y="-88.4" font-family="Arial" font-size="2.00"> </text>
<text text-anchor="start" x="637" y="-82.4" font-family="Arial" font-size="7.00"> &#160;11</text>
<text text-anchor="start" x="651" y="-65.8" font-family="Arial" font-weight="bold" font-size="14.00">Predict 26.88</text>
<text text-anchor="start" x="673" y="-48.8" font-family="Arial" font-weight="bold" font-size="14.00">n = 15</text>
<text text-anchor="start" x="691.5" y="-30.8" font-family="Arial" font-size="9.00"> </text>
<path fill="none" stroke="#333333" d="M648,-27C648,-27 738,-27 738,-27 744,-27 750,-33 750,-39 750,-39 750,-79 750,-79 750,-85 744,-91 738,-91 738,-91 648,-91 648,-91 642,-91 636,-85 636,-79 636,-79 636,-39 636,-39 636,-33 642,-27 648,-27"/>
<text text-anchor="start" x="691" y="-12.8" font-family="Arial" font-weight="bold" font-size="14.00"> </text>
</g>
<!-- 10&#45;&gt;11 -->
<g id="edge11" class="edge">
<title>10&#45;&gt;11</title>
<path fill="none" stroke="#888888" d="M715.18,-153.67C713.2,-145.3 711.15,-136.64 709.13,-128.1"/>
<polygon fill="#888888" stroke="#888888" points="712.49,-127.1 706.78,-118.18 705.68,-128.71 712.49,-127.1"/>
</g>
<!-- 12 -->
<g id="node13" class="node">
<title>12</title>
<text text-anchor="start" x="828" y="-99.8" font-family="Arial" font-weight="bold" font-size="14.00"> ≥ 25.5</text>
<path fill="#f8766d" fill-opacity="0.631373" stroke="transparent" d="M804,-27C804,-27 894,-27 894,-27 900,-27 906,-33 906,-39 906,-39 906,-79 906,-79 906,-85 900,-91 894,-91 894,-91 804,-91 804,-91 798,-91 792,-85 792,-79 792,-79 792,-39 792,-39 792,-33 798,-27 804,-27"/>
<text text-anchor="start" x="793" y="-88.4" font-family="Arial" font-size="2.00"> </text>
<text text-anchor="start" x="793" y="-82.4" font-family="Arial" font-size="7.00"> &#160;12</text>
<text text-anchor="start" x="807" y="-65.8" font-family="Arial" font-weight="bold" font-size="14.00">Predict 28.99</text>
<text text-anchor="start" x="829" y="-48.8" font-family="Arial" font-weight="bold" font-size="14.00">n = 26</text>
<text text-anchor="start" x="847.5" y="-30.8" font-family="Arial" font-size="9.00"> </text>
<path fill="none" stroke="#333333" d="M804,-27C804,-27 894,-27 894,-27 900,-27 906,-33 906,-39 906,-39 906,-79 906,-79 906,-85 900,-91 894,-91 894,-91 804,-91 804,-91 798,-91 792,-85 792,-79 792,-79 792,-39 792,-39 792,-33 798,-27 804,-27"/>
<text text-anchor="start" x="847" y="-12.8" font-family="Arial" font-weight="bold" font-size="14.00"> </text>
</g>
<!-- 10&#45;&gt;12 -->
<g id="edge12" class="edge">
<title>10&#45;&gt;12</title>
<path fill="none" stroke="#888888" d="M775.05,-153.67C782.16,-144.67 789.54,-135.32 796.77,-126.16"/>
<polygon fill="#888888" stroke="#888888" points="799.62,-128.19 803.07,-118.18 794.13,-123.86 799.62,-128.19"/>
</g>
<!-- 14 -->
<g id="node14" class="node">
<title>14</title>
<text text-anchor="start" x="983.5" y="-99.8" font-family="Arial" font-weight="bold" font-size="14.00"> &lt; 26.5</text>
<path fill="#f8766d" fill-opacity="0.509804" stroke="transparent" d="M960,-27C960,-27 1050,-27 1050,-27 1056,-27 1062,-33 1062,-39 1062,-39 1062,-79 1062,-79 1062,-85 1056,-91 1050,-91 1050,-91 960,-91 960,-91 954,-91 948,-85 948,-79 948,-79 948,-39 948,-39 948,-33 954,-27 960,-27"/>
<text text-anchor="start" x="949" y="-88.4" font-family="Arial" font-size="2.00"> </text>
<text text-anchor="start" x="949" y="-82.4" font-family="Arial" font-size="7.00"> &#160;14</text>
<text text-anchor="start" x="963" y="-65.8" font-family="Arial" font-weight="bold" font-size="14.00">Predict 33.05</text>
<text text-anchor="start" x="985" y="-48.8" font-family="Arial" font-weight="bold" font-size="14.00">n = 26</text>
<text text-anchor="start" x="1003.5" y="-30.8" font-family="Arial" font-size="9.00"> </text>
<path fill="none" stroke="#333333" d="M960,-27C960,-27 1050,-27 1050,-27 1056,-27 1062,-33 1062,-39 1062,-39 1062,-79 1062,-79 1062,-85 1056,-91 1050,-91 1050,-91 960,-91 960,-91 954,-91 948,-85 948,-79 948,-79 948,-39 948,-39 948,-33 954,-27 960,-27"/>
<text text-anchor="start" x="1003" y="-12.8" font-family="Arial" font-weight="bold" font-size="14.00"> </text>
</g>
<!-- 13&#45;&gt;14 -->
<g id="edge13" class="edge">
<title>13&#45;&gt;14</title>
<path fill="none" stroke="#888888" d="M1005,-153.67C1005,-145.39 1005,-136.83 1005,-128.38"/>
<polygon fill="#888888" stroke="#888888" points="1008.5,-128.18 1005,-118.18 1001.5,-128.18 1008.5,-128.18"/>
</g>
<!-- 15 -->
<g id="node15" class="node">
<title>15</title>
<text text-anchor="start" x="1140" y="-99.8" font-family="Arial" font-weight="bold" font-size="14.00"> ≥ 26.5</text>
<path fill="#f8766d" fill-opacity="0.376471" stroke="transparent" d="M1116,-27C1116,-27 1206,-27 1206,-27 1212,-27 1218,-33 1218,-39 1218,-39 1218,-79 1218,-79 1218,-85 1212,-91 1206,-91 1206,-91 1116,-91 1116,-91 1110,-91 1104,-85 1104,-79 1104,-79 1104,-39 1104,-39 1104,-33 1110,-27 1116,-27"/>
<text text-anchor="start" x="1105" y="-88.4" font-family="Arial" font-size="2.00"> </text>
<text text-anchor="start" x="1105" y="-82.4" font-family="Arial" font-size="7.00"> &#160;15</text>
<text text-anchor="start" x="1119" y="-65.8" font-family="Arial" font-weight="bold" font-size="14.00">Predict 37.59</text>
<text text-anchor="start" x="1145" y="-48.8" font-family="Arial" font-weight="bold" font-size="14.00">n = 3</text>
<text text-anchor="start" x="1159.5" y="-30.8" font-family="Arial" font-size="9.00"> </text>
<path fill="none" stroke="#333333" d="M1116,-27C1116,-27 1206,-27 1206,-27 1212,-27 1218,-33 1218,-39 1218,-39 1218,-79 1218,-79 1218,-85 1212,-91 1206,-91 1206,-91 1116,-91 1116,-91 1110,-91 1104,-85 1104,-79 1104,-79 1104,-39 1104,-39 1104,-33 1110,-27 1116,-27"/>
<text text-anchor="start" x="1159" y="-12.8" font-family="Arial" font-weight="bold" font-size="14.00"> </text>
</g>
<!-- 13&#45;&gt;15 -->
<g id="edge14" class="edge">
<title>13&#45;&gt;15</title>
<path fill="none" stroke="#888888" d="M1064.87,-153.67C1074.38,-144.39 1084.28,-134.75 1093.95,-125.33"/>
<polygon fill="#888888" stroke="#888888" points="1096.57,-127.66 1101.29,-118.18 1091.69,-122.65 1096.57,-127.66"/>
</g>
</g>
</svg>
