<?xml version="1.0" encoding="UTF-8" standalone="no"?>
<!DOCTYPE svg PUBLIC "-//W3C//DTD SVG 1.1//EN"
 "http://www.w3.org/Graphics/SVG/1.1/DTD/svg11.dtd">
<!-- Generated by graphviz version 2.50.0 (20211204.2007)
 -->
<!-- Pages: 1 -->
<svg width="923pt" height="588pt"
 viewBox="0.00 0.00 923.00 588.00" xmlns="http://www.w3.org/2000/svg" xmlns:xlink="http://www.w3.org/1999/xlink">
<g id="graph0" class="graph" transform="scale(1 1) rotate(0) translate(4 584)">
<polygon fill="white" stroke="transparent" points="-4,4 -4,-584 919,-584 919,4 -4,4"/>
<!-- 1 -->
<g id="node1" class="node">
<title>1</title>
<text text-anchor="start" x="309" y="-561.8" font-family="Arial" font-weight="bold" font-size="14.00"> </text>
<path fill="#ebebeb" stroke="transparent" d="M269,-489C269,-489 353,-489 353,-489 359,-489 365,-495 365,-501 365,-501 365,-541 365,-541 365,-547 359,-553 353,-553 353,-553 269,-553 269,-553 263,-553 257,-547 257,-541 257,-541 257,-501 257,-501 257,-495 263,-489 269,-489"/>
<text text-anchor="start" x="258" y="-550.4" font-family="Arial" font-size="2.00"> </text>
<text text-anchor="start" x="258" y="-544.4" font-family="Arial" font-size="7.00"> &#160;1</text>
<text text-anchor="start" x="272" y="-527.8" font-family="Arial" font-weight="bold" font-size="14.00">Mean: 21.77</text>
<text text-anchor="start" x="287.5" y="-510.8" font-family="Arial" font-weight="bold" font-size="14.00">n = 672</text>
<text text-anchor="start" x="309.5" y="-492.8" font-family="Arial" font-size="9.00"> </text>
<path fill="none" stroke="#333333" d="M269,-489C269,-489 353,-489 353,-489 359,-489 365,-495 365,-501 365,-501 365,-541 365,-541 365,-547 359,-553 353,-553 353,-553 269,-553 269,-553 263,-553 257,-547 257,-541 257,-541 257,-501 257,-501 257,-495 263,-489 269,-489"/>
<text text-anchor="start" x="281.5" y="-474.8" font-family="Arial" font-weight="bold" font-size="14.00">day_type</text>
</g>
<!-- 2 -->
<g id="node2" class="node">
<title>2</title>
<text text-anchor="start" x="212.5" y="-407.8" font-family="Arial" font-weight="bold" font-size="14.00"> &lt; 0.5</text>
<text text-anchor="start" x="162" y="-363.3" font-family="Arial" font-size="14.00"> &#160;&#160;</text>
<path fill="#ebebeb" stroke="transparent" d="M188,-335C188,-335 272,-335 272,-335 278,-335 284,-341 284,-347 284,-347 284,-387 284,-387 284,-393 278,-399 272,-399 272,-399 188,-399 188,-399 182,-399 176,-393 176,-387 176,-387 176,-347 176,-347 176,-341 182,-335 188,-335"/>
<text text-anchor="start" x="177" y="-396.4" font-family="Arial" font-size="2.00"> </text>
<text text-anchor="start" x="177" y="-390.4" font-family="Arial" font-size="7.00"> &#160;2</text>
<text text-anchor="start" x="191" y="-373.8" font-family="Arial" font-weight="bold" font-size="14.00">Mean: 19.15</text>
<text text-anchor="start" x="206.5" y="-356.8" font-family="Arial" font-weight="bold" font-size="14.00">n = 192</text>
<text text-anchor="start" x="228.5" y="-338.8" font-family="Arial" font-size="9.00"> </text>
<path fill="none" stroke="#333333" d="M188,-335C188,-335 272,-335 272,-335 278,-335 284,-341 284,-347 284,-347 284,-387 284,-387 284,-393 278,-399 272,-399 272,-399 188,-399 188,-399 182,-399 176,-393 176,-387 176,-387 176,-347 176,-347 176,-341 182,-335 188,-335"/>
<text text-anchor="start" x="286" y="-363.3" font-family="Arial" font-size="14.00"> &#160;&#160;</text>
<text text-anchor="start" x="177" y="-320.8" font-family="Arial" font-weight="bold" font-size="14.00">prev_168_inflow</text>
</g>
<!-- 1&#45;&gt;2 -->
<g id="edge1" class="edge">
<title>1&#45;&gt;2</title>
<path fill="none" stroke="#888888" d="M279.91,-461.67C275.31,-453.03 270.54,-444.07 265.85,-435.27"/>
<polygon fill="#888888" stroke="#888888" points="268.79,-433.36 261,-426.18 262.62,-436.65 268.79,-433.36"/>
</g>
<!-- 7 -->
<g id="node3" class="node">
<title>7</title>
<text text-anchor="start" x="448" y="-407.8" font-family="Arial" font-weight="bold" font-size="14.00"> ≥ 0.5</text>
<path fill="#ebebeb" stroke="transparent" d="M423,-335C423,-335 507,-335 507,-335 513,-335 519,-341 519,-347 519,-347 519,-387 519,-387 519,-393 513,-399 507,-399 507,-399 423,-399 423,-399 417,-399 411,-393 411,-387 411,-387 411,-347 411,-347 411,-341 417,-335 423,-335"/>
<text text-anchor="start" x="412" y="-396.4" font-family="Arial" font-size="2.00"> </text>
<text text-anchor="start" x="412" y="-390.4" font-family="Arial" font-size="7.00"> &#160;7</text>
<text text-anchor="start" x="426" y="-373.8" font-family="Arial" font-weight="bold" font-size="14.00">Mean: 22.81</text>
<text text-anchor="start" x="441.5" y="-356.8" font-family="Arial" font-weight="bold" font-size="14.00">n = 480</text>
<text text-anchor="start" x="463.5" y="-338.8" font-family="Arial" font-size="9.00"> </text>
<path fill="none" stroke="#333333" d="M423,-335C423,-335 507,-335 507,-335 513,-335 519,-341 519,-347 519,-347 519,-387 519,-387 519,-393 513,-399 507,-399 507,-399 423,-399 423,-399 417,-399 411,-393 411,-387 411,-387 411,-347 411,-347 411,-341 417,-335 423,-335"/>
<text text-anchor="start" x="450.5" y="-320.8" font-family="Arial" font-weight="bold" font-size="14.00">time</text>
</g>
<!-- 1&#45;&gt;7 -->
<g id="edge2" class="edge">
<title>1&#45;&gt;7</title>
<path fill="none" stroke="#888888" d="M370.1,-461.67C379.5,-452.39 389.27,-442.75 398.81,-433.33"/>
<polygon fill="#888888" stroke="#888888" points="401.4,-435.69 406.06,-426.18 396.48,-430.71 401.4,-435.69"/>
</g>
<!-- 3 -->
<g id="node4" class="node">
<title>3</title>
<text text-anchor="start" x="44" y="-253.8" font-family="Arial" font-weight="bold" font-size="14.00"> &lt; 18.89</text>
<path fill="#f8766d" fill-opacity="0.874510" stroke="transparent" d="M24,-181C24,-181 114,-181 114,-181 120,-181 126,-187 126,-193 126,-193 126,-233 126,-233 126,-239 120,-245 114,-245 114,-245 24,-245 24,-245 18,-245 12,-239 12,-233 12,-233 12,-193 12,-193 12,-187 18,-181 24,-181"/>
<text text-anchor="start" x="13" y="-242.4" font-family="Arial" font-size="2.00"> </text>
<text text-anchor="start" x="13" y="-236.4" font-family="Arial" font-size="7.00"> &#160;3</text>
<text text-anchor="start" x="27" y="-219.8" font-family="Arial" font-weight="bold" font-size="14.00">Predict 18.52</text>
<text text-anchor="start" x="49" y="-202.8" font-family="Arial" font-weight="bold" font-size="14.00">n = 99</text>
<text text-anchor="start" x="67.5" y="-184.8" font-family="Arial" font-size="9.00"> </text>
<path fill="none" stroke="#333333" d="M24,-181C24,-181 114,-181 114,-181 120,-181 126,-187 126,-193 126,-193 126,-233 126,-233 126,-239 120,-245 114,-245 114,-245 24,-245 24,-245 18,-245 12,-239 12,-233 12,-233 12,-193 12,-193 12,-187 18,-181 24,-181"/>
<text text-anchor="start" x="67" y="-166.8" font-family="Arial" font-weight="bold" font-size="14.00"> </text>
</g>
<!-- 2&#45;&gt;3 -->
<g id="edge3" class="edge">
<title>2&#45;&gt;3</title>
<path fill="none" stroke="#888888" d="M168.21,-307.67C158.29,-298.3 147.97,-288.56 137.9,-279.05"/>
<polygon fill="#888888" stroke="#888888" points="140.3,-276.5 130.62,-272.18 135.49,-281.59 140.3,-276.5"/>
</g>
<!-- 4 -->
<g id="node5" class="node">
<title>4</title>
<text text-anchor="start" x="205.5" y="-253.8" font-family="Arial" font-weight="bold" font-size="14.00"> ≥ 18.89</text>
<text text-anchor="start" x="166" y="-209.3" font-family="Arial" font-size="14.00"> &#160;</text>
<path fill="#ebebeb" stroke="transparent" d="M188,-181C188,-181 272,-181 272,-181 278,-181 284,-187 284,-193 284,-193 284,-233 284,-233 284,-239 278,-245 272,-245 272,-245 188,-245 188,-245 182,-245 176,-239 176,-233 176,-233 176,-193 176,-193 176,-187 182,-181 188,-181"/>
<text text-anchor="start" x="177" y="-242.4" font-family="Arial" font-size="2.00"> </text>
<text text-anchor="start" x="177" y="-236.4" font-family="Arial" font-size="7.00"> &#160;4</text>
<text text-anchor="start" x="191" y="-219.8" font-family="Arial" font-weight="bold" font-size="14.00">Mean: 19.83</text>
<text text-anchor="start" x="210" y="-202.8" font-family="Arial" font-weight="bold" font-size="14.00">n = 93</text>
<text text-anchor="start" x="228.5" y="-184.8" font-family="Arial" font-size="9.00"> </text>
<path fill="none" stroke="#333333" d="M188,-181C188,-181 272,-181 272,-181 278,-181 284,-187 284,-193 284,-193 284,-233 284,-233 284,-239 278,-245 272,-245 272,-245 188,-245 188,-245 182,-245 176,-239 176,-233 176,-233 176,-193 176,-193 176,-187 182,-181 188,-181"/>
<text text-anchor="start" x="286" y="-209.3" font-family="Arial" font-size="14.00"> &#160;</text>
<text text-anchor="start" x="180.5" y="-166.8" font-family="Arial" font-weight="bold" font-size="14.00">prev_24_inflow</text>
</g>
<!-- 2&#45;&gt;4 -->
<g id="edge4" class="edge">
<title>2&#45;&gt;4</title>
<path fill="none" stroke="#888888" d="M230,-307.67C230,-299.39 230,-290.83 230,-282.38"/>
<polygon fill="#888888" stroke="#888888" points="233.5,-282.18 230,-272.18 226.5,-282.18 233.5,-282.18"/>
</g>
<!-- 8 -->
<g id="node8" class="node">
<title>8</title>
<text text-anchor="start" x="447.5" y="-253.8" font-family="Arial" font-weight="bold" font-size="14.00"> &lt; 7.5</text>
<path fill="#ebebeb" stroke="transparent" d="M423,-181C423,-181 507,-181 507,-181 513,-181 519,-187 519,-193 519,-193 519,-233 519,-233 519,-239 513,-245 507,-245 507,-245 423,-245 423,-245 417,-245 411,-239 411,-233 411,-233 411,-193 411,-193 411,-187 417,-181 423,-181"/>
<text text-anchor="start" x="412" y="-242.4" font-family="Arial" font-size="2.00"> </text>
<text text-anchor="start" x="412" y="-236.4" font-family="Arial" font-size="7.00"> &#160;8</text>
<text text-anchor="start" x="426" y="-219.8" font-family="Arial" font-weight="bold" font-size="14.00">Mean: 20.24</text>
<text text-anchor="start" x="441.5" y="-202.8" font-family="Arial" font-weight="bold" font-size="14.00">n = 160</text>
<text text-anchor="start" x="463.5" y="-184.8" font-family="Arial" font-size="9.00"> </text>
<path fill="none" stroke="#333333" d="M423,-181C423,-181 507,-181 507,-181 513,-181 519,-187 519,-193 519,-193 519,-233 519,-233 519,-239 513,-245 507,-245 507,-245 423,-245 423,-245 417,-245 411,-239 411,-233 411,-233 411,-193 411,-193 411,-187 417,-181 423,-181"/>
<text text-anchor="start" x="450.5" y="-166.8" font-family="Arial" font-weight="bold" font-size="14.00">time</text>
</g>
<!-- 7&#45;&gt;8 -->
<g id="edge7" class="edge">
<title>7&#45;&gt;8</title>
<path fill="none" stroke="#888888" d="M465,-307.67C465,-299.39 465,-290.83 465,-282.38"/>
<polygon fill="#888888" stroke="#888888" points="468.5,-282.18 465,-272.18 461.5,-282.18 468.5,-282.18"/>
</g>
<!-- 11 -->
<g id="node9" class="node">
<title>11</title>
<text text-anchor="start" x="673" y="-253.8" font-family="Arial" font-weight="bold" font-size="14.00"> ≥ 7.5</text>
<path fill="#ebebeb" stroke="transparent" d="M652,-181C652,-181 728,-181 728,-181 734,-181 740,-187 740,-193 740,-193 740,-233 740,-233 740,-239 734,-245 728,-245 728,-245 652,-245 652,-245 646,-245 640,-239 640,-233 640,-233 640,-193 640,-193 640,-187 646,-181 652,-181"/>
<text text-anchor="start" x="641" y="-242.4" font-family="Arial" font-size="2.00"> </text>
<text text-anchor="start" x="641" y="-236.4" font-family="Arial" font-size="7.00"> &#160;11</text>
<text text-anchor="start" x="655" y="-219.8" font-family="Arial" font-weight="bold" font-size="14.00">Mean: 24.1</text>
<text text-anchor="start" x="666.5" y="-202.8" font-family="Arial" font-weight="bold" font-size="14.00">n = 320</text>
<text text-anchor="start" x="688.5" y="-184.8" font-family="Arial" font-size="9.00"> </text>
<path fill="none" stroke="#333333" d="M652,-181C652,-181 728,-181 728,-181 734,-181 740,-187 740,-193 740,-193 740,-233 740,-233 740,-239 734,-245 728,-245 728,-245 652,-245 652,-245 646,-245 640,-239 640,-233 640,-233 640,-193 640,-193 640,-187 646,-181 652,-181"/>
<text text-anchor="start" x="675.5" y="-166.8" font-family="Arial" font-weight="bold" font-size="14.00">time</text>
</g>
<!-- 7&#45;&gt;11 -->
<g id="edge8" class="edge">
<title>7&#45;&gt;11</title>
<path fill="none" stroke="#888888" d="M531.29,-321.22C558.9,-302.57 591,-280.88 619.08,-261.91"/>
<polygon fill="#888888" stroke="#888888" points="621.32,-264.62 627.65,-256.12 617.41,-258.82 621.32,-264.62"/>
</g>
<!-- 5 -->
<g id="node6" class="node">
<title>5</title>
<text text-anchor="start" x="49" y="-99.8" font-family="Arial" font-weight="bold" font-size="14.00"> &lt; 23.64</text>
<path fill="#f8766d" fill-opacity="0.811765" stroke="transparent" d="M29,-27C29,-27 119,-27 119,-27 125,-27 131,-33 131,-39 131,-39 131,-79 131,-79 131,-85 125,-91 119,-91 119,-91 29,-91 29,-91 23,-91 17,-85 17,-79 17,-79 17,-39 17,-39 17,-33 23,-27 29,-27"/>
<text text-anchor="start" x="18" y="-88.4" font-family="Arial" font-size="2.00"> </text>
<text text-anchor="start" x="18" y="-82.4" font-family="Arial" font-size="7.00"> &#160;5</text>
<text text-anchor="start" x="32" y="-65.8" font-family="Arial" font-weight="bold" font-size="14.00">Predict 19.45</text>
<text text-anchor="start" x="54" y="-48.8" font-family="Arial" font-weight="bold" font-size="14.00">n = 67</text>
<text text-anchor="start" x="72.5" y="-30.8" font-family="Arial" font-size="9.00"> </text>
<path fill="none" stroke="#333333" d="M29,-27C29,-27 119,-27 119,-27 125,-27 131,-33 131,-39 131,-39 131,-79 131,-79 131,-85 125,-91 119,-91 119,-91 29,-91 29,-91 23,-91 17,-85 17,-79 17,-79 17,-39 17,-39 17,-33 23,-27 29,-27"/>
<text text-anchor="start" x="72" y="-12.8" font-family="Arial" font-weight="bold" font-size="14.00"> </text>
</g>
<!-- 4&#45;&gt;5 -->
<g id="edge5" class="edge">
<title>4&#45;&gt;5</title>
<path fill="none" stroke="#888888" d="M170.13,-153.67C160.62,-144.39 150.72,-134.75 141.05,-125.33"/>
<polygon fill="#888888" stroke="#888888" points="143.31,-122.65 133.71,-118.18 138.43,-127.66 143.31,-122.65"/>
</g>
<!-- 6 -->
<g id="node7" class="node">
<title>6</title>
<text text-anchor="start" x="205.5" y="-99.8" font-family="Arial" font-weight="bold" font-size="14.00"> ≥ 23.64</text>
<path fill="#f8766d" fill-opacity="0.713725" stroke="transparent" d="M185,-27C185,-27 275,-27 275,-27 281,-27 287,-33 287,-39 287,-39 287,-79 287,-79 287,-85 281,-91 275,-91 275,-91 185,-91 185,-91 179,-91 173,-85 173,-79 173,-79 173,-39 173,-39 173,-33 179,-27 185,-27"/>
<text text-anchor="start" x="174" y="-88.4" font-family="Arial" font-size="2.00"> </text>
<text text-anchor="start" x="174" y="-82.4" font-family="Arial" font-size="7.00"> &#160;6</text>
<text text-anchor="start" x="188" y="-65.8" font-family="Arial" font-weight="bold" font-size="14.00">Predict 20.82</text>
<text text-anchor="start" x="210" y="-48.8" font-family="Arial" font-weight="bold" font-size="14.00">n = 26</text>
<text text-anchor="start" x="228.5" y="-30.8" font-family="Arial" font-size="9.00"> </text>
<path fill="none" stroke="#333333" d="M185,-27C185,-27 275,-27 275,-27 281,-27 287,-33 287,-39 287,-39 287,-79 287,-79 287,-85 281,-91 275,-91 275,-91 185,-91 185,-91 179,-91 173,-85 173,-79 173,-79 173,-39 173,-39 173,-33 179,-27 185,-27"/>
<text text-anchor="start" x="228" y="-12.8" font-family="Arial" font-weight="bold" font-size="14.00"> </text>
</g>
<!-- 4&#45;&gt;6 -->
<g id="edge6" class="edge">
<title>4&#45;&gt;6</title>
<path fill="none" stroke="#888888" d="M230,-153.67C230,-145.39 230,-136.83 230,-128.38"/>
<polygon fill="#888888" stroke="#888888" points="233.5,-128.18 230,-118.18 226.5,-128.18 233.5,-128.18"/>
</g>
<!-- 9 -->
<g id="node10" class="node">
<title>9</title>
<text text-anchor="start" x="368.5" y="-99.8" font-family="Arial" font-weight="bold" font-size="14.00"> &lt; 5.5</text>
<path fill="#f8766d" fill-opacity="0.807843" stroke="transparent" d="M341,-27C341,-27 431,-27 431,-27 437,-27 443,-33 443,-39 443,-39 443,-79 443,-79 443,-85 437,-91 431,-91 431,-91 341,-91 341,-91 335,-91 329,-85 329,-79 329,-79 329,-39 329,-39 329,-33 335,-27 341,-27"/>
<text text-anchor="start" x="330" y="-88.4" font-family="Arial" font-size="2.00"> </text>
<text text-anchor="start" x="330" y="-82.4" font-family="Arial" font-size="7.00"> &#160;9</text>
<text text-anchor="start" x="344" y="-65.8" font-family="Arial" font-weight="bold" font-size="14.00">Predict 19.46</text>
<text text-anchor="start" x="362.5" y="-48.8" font-family="Arial" font-weight="bold" font-size="14.00">n = 120</text>
<text text-anchor="start" x="384.5" y="-30.8" font-family="Arial" font-size="9.00"> </text>
<path fill="none" stroke="#333333" d="M341,-27C341,-27 431,-27 431,-27 437,-27 443,-33 443,-39 443,-39 443,-79 443,-79 443,-85 437,-91 431,-91 431,-91 341,-91 341,-91 335,-91 329,-85 329,-79 329,-79 329,-39 329,-39 329,-33 335,-27 341,-27"/>
<text text-anchor="start" x="384" y="-12.8" font-family="Arial" font-weight="bold" font-size="14.00"> </text>
</g>
<!-- 8&#45;&gt;9 -->
<g id="edge9" class="edge">
<title>8&#45;&gt;9</title>
<path fill="none" stroke="#888888" d="M434.68,-153.67C430.19,-145.03 425.54,-136.07 420.96,-127.27"/>
<polygon fill="#888888" stroke="#888888" points="423.95,-125.44 416.24,-118.18 417.74,-128.66 423.95,-125.44"/>
</g>
<!-- 10 -->
<g id="node11" class="node">
<title>10</title>
<text text-anchor="start" x="521" y="-99.8" font-family="Arial" font-weight="bold" font-size="14.00"> ≥ 5.5</text>
<path fill="#f8766d" fill-opacity="0.588235" stroke="transparent" d="M497,-27C497,-27 579,-27 579,-27 585,-27 591,-33 591,-39 591,-39 591,-79 591,-79 591,-85 585,-91 579,-91 579,-91 497,-91 497,-91 491,-91 485,-85 485,-79 485,-79 485,-39 485,-39 485,-33 491,-27 497,-27"/>
<text text-anchor="start" x="486" y="-88.4" font-family="Arial" font-size="2.00"> </text>
<text text-anchor="start" x="486" y="-82.4" font-family="Arial" font-size="7.00"> &#160;10</text>
<text text-anchor="start" x="500" y="-65.8" font-family="Arial" font-weight="bold" font-size="14.00">Predict 22.6</text>
<text text-anchor="start" x="518" y="-48.8" font-family="Arial" font-weight="bold" font-size="14.00">n = 40</text>
<text text-anchor="start" x="536.5" y="-30.8" font-family="Arial" font-size="9.00"> </text>
<path fill="none" stroke="#333333" d="M497,-27C497,-27 579,-27 579,-27 585,-27 591,-33 591,-39 591,-39 591,-79 591,-79 591,-85 585,-91 579,-91 579,-91 497,-91 497,-91 491,-91 485,-85 485,-79 485,-79 485,-39 485,-39 485,-33 491,-27 497,-27"/>
<text text-anchor="start" x="536" y="-12.8" font-family="Arial" font-weight="bold" font-size="14.00"> </text>
</g>
<!-- 8&#45;&gt;10 -->
<g id="edge10" class="edge">
<title>8&#45;&gt;10</title>
<path fill="none" stroke="#888888" d="M493.01,-153.67C497.16,-145.03 501.47,-136.07 505.69,-127.27"/>
<polygon fill="#888888" stroke="#888888" points="508.89,-128.71 510.06,-118.18 502.58,-125.68 508.89,-128.71"/>
</g>
<!-- 12 -->
<g id="node12" class="node">
<title>12</title>
<text text-anchor="start" x="668.5" y="-99.8" font-family="Arial" font-weight="bold" font-size="14.00"> &lt; 16.5</text>
<path fill="#f8766d" fill-opacity="0.376471" stroke="transparent" d="M645,-27C645,-27 735,-27 735,-27 741,-27 747,-33 747,-39 747,-39 747,-79 747,-79 747,-85 741,-91 735,-91 735,-91 645,-91 645,-91 639,-91 633,-85 633,-79 633,-79 633,-39 633,-39 633,-33 639,-27 645,-27"/>
<text text-anchor="start" x="634" y="-88.4" font-family="Arial" font-size="2.00"> </text>
<text text-anchor="start" x="634" y="-82.4" font-family="Arial" font-size="7.00"> &#160;12</text>
<text text-anchor="start" x="648" y="-65.8" font-family="Arial" font-weight="bold" font-size="14.00">Predict 25.64</text>
<text text-anchor="start" x="666.5" y="-48.8" font-family="Arial" font-weight="bold" font-size="14.00">n = 180</text>
<text text-anchor="start" x="688.5" y="-30.8" font-family="Arial" font-size="9.00"> </text>
<path fill="none" stroke="#333333" d="M645,-27C645,-27 735,-27 735,-27 741,-27 747,-33 747,-39 747,-39 747,-79 747,-79 747,-85 741,-91 735,-91 735,-91 645,-91 645,-91 639,-91 633,-85 633,-79 633,-79 633,-39 633,-39 633,-33 639,-27 645,-27"/>
<text text-anchor="start" x="688" y="-12.8" font-family="Arial" font-weight="bold" font-size="14.00"> </text>
</g>
<!-- 11&#45;&gt;12 -->
<g id="edge11" class="edge">
<title>11&#45;&gt;12</title>
<path fill="none" stroke="#888888" d="M690,-153.67C690,-145.39 690,-136.83 690,-128.38"/>
<polygon fill="#888888" stroke="#888888" points="693.5,-128.18 690,-118.18 686.5,-128.18 693.5,-128.18"/>
</g>
<!-- 13 -->
<g id="node13" class="node">
<title>13</title>
<text text-anchor="start" x="825" y="-99.8" font-family="Arial" font-weight="bold" font-size="14.00"> ≥ 16.5</text>
<path fill="#f8766d" fill-opacity="0.623529" stroke="transparent" d="M801,-27C801,-27 891,-27 891,-27 897,-27 903,-33 903,-39 903,-39 903,-79 903,-79 903,-85 897,-91 891,-91 891,-91 801,-91 801,-91 795,-91 789,-85 789,-79 789,-79 789,-39 789,-39 789,-33 795,-27 801,-27"/>
<text text-anchor="start" x="790" y="-88.4" font-family="Arial" font-size="2.00"> </text>
<text text-anchor="start" x="790" y="-82.4" font-family="Arial" font-size="7.00"> &#160;13</text>
<text text-anchor="start" x="804" y="-65.8" font-family="Arial" font-weight="bold" font-size="14.00">Predict 22.12</text>
<text text-anchor="start" x="822.5" y="-48.8" font-family="Arial" font-weight="bold" font-size="14.00">n = 140</text>
<text text-anchor="start" x="844.5" y="-30.8" font-family="Arial" font-size="9.00"> </text>
<path fill="none" stroke="#333333" d="M801,-27C801,-27 891,-27 891,-27 897,-27 903,-33 903,-39 903,-39 903,-79 903,-79 903,-85 897,-91 891,-91 891,-91 801,-91 801,-91 795,-91 789,-85 789,-79 789,-79 789,-39 789,-39 789,-33 795,-27 801,-27"/>
<text text-anchor="start" x="844" y="-12.8" font-family="Arial" font-weight="bold" font-size="14.00"> </text>
</g>
<!-- 11&#45;&gt;13 -->
<g id="edge12" class="edge">
<title>11&#45;&gt;13</title>
<path fill="none" stroke="#888888" d="M749.87,-153.67C759.38,-144.39 769.28,-134.75 778.95,-125.33"/>
<polygon fill="#888888" stroke="#888888" points="781.57,-127.66 786.29,-118.18 776.69,-122.65 781.57,-127.66"/>
</g>
</g>
</svg>
