<?xml version="1.0" encoding="UTF-8" standalone="no"?>
<!DOCTYPE svg PUBLIC "-//W3C//DTD SVG 1.1//EN"
 "http://www.w3.org/Graphics/SVG/1.1/DTD/svg11.dtd">
<!-- Generated by graphviz version 2.50.0 (20211204.2007)
 -->
<!-- Pages: 1 -->
<svg width="926pt" height="588pt"
 viewBox="0.00 0.00 926.00 588.00" xmlns="http://www.w3.org/2000/svg" xmlns:xlink="http://www.w3.org/1999/xlink">
<g id="graph0" class="graph" transform="scale(1 1) rotate(0) translate(4 584)">
<polygon fill="white" stroke="transparent" points="-4,4 -4,-584 922,-584 922,4 -4,4"/>
<!-- 1 -->
<g id="node1" class="node">
<title>1</title>
<text text-anchor="start" x="574" y="-561.8" font-family="Arial" font-weight="bold" font-size="14.00"> </text>
<text text-anchor="start" x="508" y="-517.3" font-family="Arial" font-size="14.00"> &#160;&#160;</text>
<path fill="#ebebeb" stroke="transparent" d="M534,-489C534,-489 618,-489 618,-489 624,-489 630,-495 630,-501 630,-501 630,-541 630,-541 630,-547 624,-553 618,-553 618,-553 534,-553 534,-553 528,-553 522,-547 522,-541 522,-541 522,-501 522,-501 522,-495 528,-489 534,-489"/>
<text text-anchor="start" x="523" y="-550.4" font-family="Arial" font-size="2.00"> </text>
<text text-anchor="start" x="523" y="-544.4" font-family="Arial" font-size="7.00"> &#160;1</text>
<text text-anchor="start" x="537" y="-527.8" font-family="Arial" font-weight="bold" font-size="14.00">Mean: 30.69</text>
<text text-anchor="start" x="552.5" y="-510.8" font-family="Arial" font-weight="bold" font-size="14.00">n = 168</text>
<text text-anchor="start" x="574.5" y="-492.8" font-family="Arial" font-size="9.00"> </text>
<path fill="none" stroke="#333333" d="M534,-489C534,-489 618,-489 618,-489 624,-489 630,-495 630,-501 630,-501 630,-541 630,-541 630,-547 624,-553 618,-553 618,-553 534,-553 534,-553 528,-553 522,-547 522,-541 522,-541 522,-501 522,-501 522,-495 528,-489 534,-489"/>
<text text-anchor="start" x="632" y="-517.3" font-family="Arial" font-size="14.00"> &#160;&#160;</text>
<text text-anchor="start" x="523" y="-474.8" font-family="Arial" font-weight="bold" font-size="14.00">prev_168_inflow</text>
</g>
<!-- 2 -->
<g id="node2" class="node">
<title>2</title>
<text text-anchor="start" x="437.5" y="-407.8" font-family="Arial" font-weight="bold" font-size="14.00"> &lt; 32.2</text>
<path fill="#ebebeb" stroke="transparent" d="M417,-335C417,-335 501,-335 501,-335 507,-335 513,-341 513,-347 513,-347 513,-387 513,-387 513,-393 507,-399 501,-399 501,-399 417,-399 417,-399 411,-399 405,-393 405,-387 405,-387 405,-347 405,-347 405,-341 411,-335 417,-335"/>
<text text-anchor="start" x="406" y="-396.4" font-family="Arial" font-size="2.00"> </text>
<text text-anchor="start" x="406" y="-390.4" font-family="Arial" font-size="7.00"> &#160;2</text>
<text text-anchor="start" x="420" y="-373.8" font-family="Arial" font-weight="bold" font-size="14.00">Mean: 24.69</text>
<text text-anchor="start" x="439" y="-356.8" font-family="Arial" font-weight="bold" font-size="14.00">n = 84</text>
<text text-anchor="start" x="457.5" y="-338.8" font-family="Arial" font-size="9.00"> </text>
<path fill="none" stroke="#333333" d="M417,-335C417,-335 501,-335 501,-335 507,-335 513,-341 513,-347 513,-347 513,-387 513,-387 513,-393 507,-399 501,-399 501,-399 417,-399 417,-399 411,-399 405,-393 405,-387 405,-387 405,-347 405,-347 405,-341 411,-335 417,-335"/>
<text text-anchor="start" x="444.5" y="-320.8" font-family="Arial" font-weight="bold" font-size="14.00">time</text>
</g>
<!-- 1&#45;&gt;2 -->
<g id="edge1" class="edge">
<title>1&#45;&gt;2</title>
<path fill="none" stroke="#888888" d="M531.1,-461.67C524.17,-452.67 516.97,-443.32 509.93,-434.16"/>
<polygon fill="#888888" stroke="#888888" points="512.65,-431.97 503.78,-426.18 507.11,-436.24 512.65,-431.97"/>
</g>
<!-- 9 -->
<g id="node3" class="node">
<title>9</title>
<text text-anchor="start" x="672" y="-407.8" font-family="Arial" font-weight="bold" font-size="14.00"> ≥ 32.2</text>
<path fill="#ebebeb" stroke="transparent" d="M651,-335C651,-335 735,-335 735,-335 741,-335 747,-341 747,-347 747,-347 747,-387 747,-387 747,-393 741,-399 735,-399 735,-399 651,-399 651,-399 645,-399 639,-393 639,-387 639,-387 639,-347 639,-347 639,-341 645,-335 651,-335"/>
<text text-anchor="start" x="640" y="-396.4" font-family="Arial" font-size="2.00"> </text>
<text text-anchor="start" x="640" y="-390.4" font-family="Arial" font-size="7.00"> &#160;9</text>
<text text-anchor="start" x="654" y="-373.8" font-family="Arial" font-weight="bold" font-size="14.00">Mean: 36.69</text>
<text text-anchor="start" x="673" y="-356.8" font-family="Arial" font-weight="bold" font-size="14.00">n = 84</text>
<text text-anchor="start" x="691.5" y="-338.8" font-family="Arial" font-size="9.00"> </text>
<path fill="none" stroke="#333333" d="M651,-335C651,-335 735,-335 735,-335 741,-335 747,-341 747,-347 747,-347 747,-387 747,-387 747,-393 741,-399 735,-399 735,-399 651,-399 651,-399 645,-399 639,-393 639,-387 639,-387 639,-347 639,-347 639,-341 645,-335 651,-335"/>
<text text-anchor="start" x="678.5" y="-320.8" font-family="Arial" font-weight="bold" font-size="14.00">time</text>
</g>
<!-- 1&#45;&gt;9 -->
<g id="edge2" class="edge">
<title>1&#45;&gt;9</title>
<path fill="none" stroke="#888888" d="M620.9,-461.67C627.83,-452.67 635.03,-443.32 642.07,-434.16"/>
<polygon fill="#888888" stroke="#888888" points="644.89,-436.24 648.22,-426.18 639.35,-431.97 644.89,-436.24"/>
</g>
<!-- 3 -->
<g id="node4" class="node">
<title>3</title>
<text text-anchor="start" x="207.5" y="-253.8" font-family="Arial" font-weight="bold" font-size="14.00"> &lt; 4.5</text>
<path fill="#ebebeb" stroke="transparent" d="M183,-181C183,-181 267,-181 267,-181 273,-181 279,-187 279,-193 279,-193 279,-233 279,-233 279,-239 273,-245 267,-245 267,-245 183,-245 183,-245 177,-245 171,-239 171,-233 171,-233 171,-193 171,-193 171,-187 177,-181 183,-181"/>
<text text-anchor="start" x="172" y="-242.4" font-family="Arial" font-size="2.00"> </text>
<text text-anchor="start" x="172" y="-236.4" font-family="Arial" font-size="7.00"> &#160;3</text>
<text text-anchor="start" x="186" y="-219.8" font-family="Arial" font-weight="bold" font-size="14.00">Mean: 19.37</text>
<text text-anchor="start" x="205" y="-202.8" font-family="Arial" font-weight="bold" font-size="14.00">n = 35</text>
<text text-anchor="start" x="223.5" y="-184.8" font-family="Arial" font-size="9.00"> </text>
<path fill="none" stroke="#333333" d="M183,-181C183,-181 267,-181 267,-181 273,-181 279,-187 279,-193 279,-193 279,-233 279,-233 279,-239 273,-245 267,-245 267,-245 183,-245 183,-245 177,-245 171,-239 171,-233 171,-233 171,-193 171,-193 171,-187 177,-181 183,-181"/>
<text text-anchor="start" x="189.5" y="-166.8" font-family="Arial" font-weight="bold" font-size="14.00">windspeed</text>
</g>
<!-- 2&#45;&gt;3 -->
<g id="edge3" class="edge">
<title>2&#45;&gt;3</title>
<path fill="none" stroke="#888888" d="M392.88,-323.05C363.98,-304.28 329.92,-282.16 300.07,-262.76"/>
<polygon fill="#888888" stroke="#888888" points="301.65,-259.62 291.36,-257.1 297.84,-265.49 301.65,-259.62"/>
</g>
<!-- 6 -->
<g id="node5" class="node">
<title>6</title>
<text text-anchor="start" x="442" y="-253.8" font-family="Arial" font-weight="bold" font-size="14.00"> ≥ 4.5</text>
<text text-anchor="start" x="391" y="-209.3" font-family="Arial" font-size="14.00"> &#160;&#160;</text>
<path fill="#ebebeb" stroke="transparent" d="M417,-181C417,-181 501,-181 501,-181 507,-181 513,-187 513,-193 513,-193 513,-233 513,-233 513,-239 507,-245 501,-245 501,-245 417,-245 417,-245 411,-245 405,-239 405,-233 405,-233 405,-193 405,-193 405,-187 411,-181 417,-181"/>
<text text-anchor="start" x="406" y="-242.4" font-family="Arial" font-size="2.00"> </text>
<text text-anchor="start" x="406" y="-236.4" font-family="Arial" font-size="7.00"> &#160;6</text>
<text text-anchor="start" x="420" y="-219.8" font-family="Arial" font-weight="bold" font-size="14.00">Mean: 28.48</text>
<text text-anchor="start" x="439" y="-202.8" font-family="Arial" font-weight="bold" font-size="14.00">n = 49</text>
<text text-anchor="start" x="457.5" y="-184.8" font-family="Arial" font-size="9.00"> </text>
<path fill="none" stroke="#333333" d="M417,-181C417,-181 501,-181 501,-181 507,-181 513,-187 513,-193 513,-193 513,-233 513,-233 513,-239 507,-245 501,-245 501,-245 417,-245 417,-245 411,-245 405,-239 405,-233 405,-233 405,-193 405,-193 405,-187 411,-181 417,-181"/>
<text text-anchor="start" x="515" y="-209.3" font-family="Arial" font-size="14.00"> &#160;&#160;</text>
<text text-anchor="start" x="406" y="-166.8" font-family="Arial" font-weight="bold" font-size="14.00">prev_168_inflow</text>
</g>
<!-- 2&#45;&gt;6 -->
<g id="edge4" class="edge">
<title>2&#45;&gt;6</title>
<path fill="none" stroke="#888888" d="M459,-307.67C459,-299.39 459,-290.83 459,-282.38"/>
<polygon fill="#888888" stroke="#888888" points="462.5,-282.18 459,-272.18 455.5,-282.18 462.5,-282.18"/>
</g>
<!-- 10 -->
<g id="node10" class="node">
<title>10</title>
<text text-anchor="start" x="671.5" y="-253.8" font-family="Arial" font-weight="bold" font-size="14.00"> &lt; 17.5</text>
<path fill="#ebebeb" stroke="transparent" d="M651,-181C651,-181 735,-181 735,-181 741,-181 747,-187 747,-193 747,-193 747,-233 747,-233 747,-239 741,-245 735,-245 735,-245 651,-245 651,-245 645,-245 639,-239 639,-233 639,-233 639,-193 639,-193 639,-187 645,-181 651,-181"/>
<text text-anchor="start" x="640" y="-242.4" font-family="Arial" font-size="2.00"> </text>
<text text-anchor="start" x="640" y="-236.4" font-family="Arial" font-size="7.00"> &#160;10</text>
<text text-anchor="start" x="654" y="-219.8" font-family="Arial" font-weight="bold" font-size="14.00">Mean: 35.48</text>
<text text-anchor="start" x="673" y="-202.8" font-family="Arial" font-weight="bold" font-size="14.00">n = 56</text>
<text text-anchor="start" x="691.5" y="-184.8" font-family="Arial" font-size="9.00"> </text>
<path fill="none" stroke="#333333" d="M651,-181C651,-181 735,-181 735,-181 741,-181 747,-187 747,-193 747,-193 747,-233 747,-233 747,-239 741,-245 735,-245 735,-245 651,-245 651,-245 645,-245 639,-239 639,-233 639,-233 639,-193 639,-193 639,-187 645,-181 651,-181"/>
<text text-anchor="start" x="660" y="-166.8" font-family="Arial" font-weight="bold" font-size="14.00">air_humid</text>
</g>
<!-- 9&#45;&gt;10 -->
<g id="edge9" class="edge">
<title>9&#45;&gt;10</title>
<path fill="none" stroke="#888888" d="M693,-307.67C693,-299.39 693,-290.83 693,-282.38"/>
<polygon fill="#888888" stroke="#888888" points="696.5,-282.18 693,-272.18 689.5,-282.18 696.5,-282.18"/>
</g>
<!-- 13 -->
<g id="node11" class="node">
<title>13</title>
<text text-anchor="start" x="825" y="-253.8" font-family="Arial" font-weight="bold" font-size="14.00"> ≥ 17.5</text>
<path fill="#f8766d" fill-opacity="0.376471" stroke="transparent" d="M801,-181C801,-181 891,-181 891,-181 897,-181 903,-187 903,-193 903,-193 903,-233 903,-233 903,-239 897,-245 891,-245 891,-245 801,-245 801,-245 795,-245 789,-239 789,-233 789,-233 789,-193 789,-193 789,-187 795,-181 801,-181"/>
<text text-anchor="start" x="790" y="-242.4" font-family="Arial" font-size="2.00"> </text>
<text text-anchor="start" x="790" y="-236.4" font-family="Arial" font-size="7.00"> &#160;13</text>
<text text-anchor="start" x="804" y="-219.8" font-family="Arial" font-weight="bold" font-size="14.00">Predict 39.09</text>
<text text-anchor="start" x="826" y="-202.8" font-family="Arial" font-weight="bold" font-size="14.00">n = 28</text>
<text text-anchor="start" x="844.5" y="-184.8" font-family="Arial" font-size="9.00"> </text>
<path fill="none" stroke="#333333" d="M801,-181C801,-181 891,-181 891,-181 897,-181 903,-187 903,-193 903,-193 903,-233 903,-233 903,-239 897,-245 891,-245 891,-245 801,-245 801,-245 795,-245 789,-239 789,-233 789,-233 789,-193 789,-193 789,-187 795,-181 801,-181"/>
<text text-anchor="start" x="844" y="-166.8" font-family="Arial" font-weight="bold" font-size="14.00"> </text>
</g>
<!-- 9&#45;&gt;13 -->
<g id="edge10" class="edge">
<title>9&#45;&gt;13</title>
<path fill="none" stroke="#888888" d="M751.72,-307.67C761.05,-298.39 770.76,-288.75 780.24,-279.33"/>
<polygon fill="#888888" stroke="#888888" points="782.81,-281.71 787.44,-272.18 777.88,-276.74 782.81,-281.71"/>
</g>
<!-- 4 -->
<g id="node6" class="node">
<title>4</title>
<text text-anchor="start" x="47.5" y="-99.8" font-family="Arial" font-weight="bold" font-size="14.00"> &lt; 10.5</text>
<path fill="#f8766d" fill-opacity="0.874510" stroke="transparent" d="M24,-27C24,-27 114,-27 114,-27 120,-27 126,-33 126,-39 126,-39 126,-79 126,-79 126,-85 120,-91 114,-91 114,-91 24,-91 24,-91 18,-91 12,-85 12,-79 12,-79 12,-39 12,-39 12,-33 18,-27 24,-27"/>
<text text-anchor="start" x="13" y="-88.4" font-family="Arial" font-size="2.00"> </text>
<text text-anchor="start" x="13" y="-82.4" font-family="Arial" font-size="7.00"> &#160;4</text>
<text text-anchor="start" x="27" y="-65.8" font-family="Arial" font-weight="bold" font-size="14.00">Predict 15.89</text>
<text text-anchor="start" x="49" y="-48.8" font-family="Arial" font-weight="bold" font-size="14.00">n = 12</text>
<text text-anchor="start" x="67.5" y="-30.8" font-family="Arial" font-size="9.00"> </text>
<path fill="none" stroke="#333333" d="M24,-27C24,-27 114,-27 114,-27 120,-27 126,-33 126,-39 126,-39 126,-79 126,-79 126,-85 120,-91 114,-91 114,-91 24,-91 24,-91 18,-91 12,-85 12,-79 12,-79 12,-39 12,-39 12,-33 18,-27 24,-27"/>
<text text-anchor="start" x="67" y="-12.8" font-family="Arial" font-weight="bold" font-size="14.00"> </text>
</g>
<!-- 3&#45;&gt;4 -->
<g id="edge5" class="edge">
<title>3&#45;&gt;4</title>
<path fill="none" stroke="#888888" d="M165.13,-153.67C155.62,-144.39 145.72,-134.75 136.05,-125.33"/>
<polygon fill="#888888" stroke="#888888" points="138.31,-122.65 128.71,-118.18 133.43,-127.66 138.31,-122.65"/>
</g>
<!-- 5 -->
<g id="node7" class="node">
<title>5</title>
<text text-anchor="start" x="204" y="-99.8" font-family="Arial" font-weight="bold" font-size="14.00"> ≥ 10.5</text>
<path fill="#f8766d" fill-opacity="0.760784" stroke="transparent" d="M180,-27C180,-27 270,-27 270,-27 276,-27 282,-33 282,-39 282,-39 282,-79 282,-79 282,-85 276,-91 270,-91 270,-91 180,-91 180,-91 174,-91 168,-85 168,-79 168,-79 168,-39 168,-39 168,-33 174,-27 180,-27"/>
<text text-anchor="start" x="169" y="-88.4" font-family="Arial" font-size="2.00"> </text>
<text text-anchor="start" x="169" y="-82.4" font-family="Arial" font-size="7.00"> &#160;5</text>
<text text-anchor="start" x="183" y="-65.8" font-family="Arial" font-weight="bold" font-size="14.00">Predict 21.19</text>
<text text-anchor="start" x="205" y="-48.8" font-family="Arial" font-weight="bold" font-size="14.00">n = 23</text>
<text text-anchor="start" x="223.5" y="-30.8" font-family="Arial" font-size="9.00"> </text>
<path fill="none" stroke="#333333" d="M180,-27C180,-27 270,-27 270,-27 276,-27 282,-33 282,-39 282,-39 282,-79 282,-79 282,-85 276,-91 270,-91 270,-91 180,-91 180,-91 174,-91 168,-85 168,-79 168,-79 168,-39 168,-39 168,-33 174,-27 180,-27"/>
<text text-anchor="start" x="223" y="-12.8" font-family="Arial" font-weight="bold" font-size="14.00"> </text>
</g>
<!-- 3&#45;&gt;5 -->
<g id="edge6" class="edge">
<title>3&#45;&gt;5</title>
<path fill="none" stroke="#888888" d="M225,-153.67C225,-145.39 225,-136.83 225,-128.38"/>
<polygon fill="#888888" stroke="#888888" points="228.5,-128.18 225,-118.18 221.5,-128.18 228.5,-128.18"/>
</g>
<!-- 7 -->
<g id="node8" class="node">
<title>7</title>
<text text-anchor="start" x="356" y="-99.8" font-family="Arial" font-weight="bold" font-size="14.00"> &lt; 27.95</text>
<path fill="#f8766d" fill-opacity="0.686275" stroke="transparent" d="M336,-27C336,-27 426,-27 426,-27 432,-27 438,-33 438,-39 438,-39 438,-79 438,-79 438,-85 432,-91 426,-91 426,-91 336,-91 336,-91 330,-91 324,-85 324,-79 324,-79 324,-39 324,-39 324,-33 330,-27 336,-27"/>
<text text-anchor="start" x="325" y="-88.4" font-family="Arial" font-size="2.00"> </text>
<text text-anchor="start" x="325" y="-82.4" font-family="Arial" font-size="7.00"> &#160;7</text>
<text text-anchor="start" x="339" y="-65.8" font-family="Arial" font-weight="bold" font-size="14.00">Predict 24.57</text>
<text text-anchor="start" x="361" y="-48.8" font-family="Arial" font-weight="bold" font-size="14.00">n = 20</text>
<text text-anchor="start" x="379.5" y="-30.8" font-family="Arial" font-size="9.00"> </text>
<path fill="none" stroke="#333333" d="M336,-27C336,-27 426,-27 426,-27 432,-27 438,-33 438,-39 438,-39 438,-79 438,-79 438,-85 432,-91 426,-91 426,-91 336,-91 336,-91 330,-91 324,-85 324,-79 324,-79 324,-39 324,-39 324,-33 330,-27 336,-27"/>
<text text-anchor="start" x="379" y="-12.8" font-family="Arial" font-weight="bold" font-size="14.00"> </text>
</g>
<!-- 6&#45;&gt;7 -->
<g id="edge7" class="edge">
<title>6&#45;&gt;7</title>
<path fill="none" stroke="#888888" d="M429.07,-153.67C424.63,-145.03 420.04,-136.07 415.52,-127.27"/>
<polygon fill="#888888" stroke="#888888" points="418.53,-125.48 410.85,-118.18 412.31,-128.67 418.53,-125.48"/>
</g>
<!-- 8 -->
<g id="node9" class="node">
<title>8</title>
<text text-anchor="start" x="512.5" y="-99.8" font-family="Arial" font-weight="bold" font-size="14.00"> ≥ 27.95</text>
<path fill="#f8766d" fill-opacity="0.545098" stroke="transparent" d="M492,-27C492,-27 582,-27 582,-27 588,-27 594,-33 594,-39 594,-39 594,-79 594,-79 594,-85 588,-91 582,-91 582,-91 492,-91 492,-91 486,-91 480,-85 480,-79 480,-79 480,-39 480,-39 480,-33 486,-27 492,-27"/>
<text text-anchor="start" x="481" y="-88.4" font-family="Arial" font-size="2.00"> </text>
<text text-anchor="start" x="481" y="-82.4" font-family="Arial" font-size="7.00"> &#160;8</text>
<text text-anchor="start" x="495" y="-65.8" font-family="Arial" font-weight="bold" font-size="14.00">Predict 31.18</text>
<text text-anchor="start" x="517" y="-48.8" font-family="Arial" font-weight="bold" font-size="14.00">n = 29</text>
<text text-anchor="start" x="535.5" y="-30.8" font-family="Arial" font-size="9.00"> </text>
<path fill="none" stroke="#333333" d="M492,-27C492,-27 582,-27 582,-27 588,-27 594,-33 594,-39 594,-39 594,-79 594,-79 594,-85 588,-91 582,-91 582,-91 492,-91 492,-91 486,-91 480,-85 480,-79 480,-79 480,-39 480,-39 480,-33 486,-27 492,-27"/>
<text text-anchor="start" x="535" y="-12.8" font-family="Arial" font-weight="bold" font-size="14.00"> </text>
</g>
<!-- 6&#45;&gt;8 -->
<g id="edge8" class="edge">
<title>6&#45;&gt;8</title>
<path fill="none" stroke="#888888" d="M488.93,-153.67C493.37,-145.03 497.96,-136.07 502.48,-127.27"/>
<polygon fill="#888888" stroke="#888888" points="505.69,-128.67 507.15,-118.18 499.47,-125.48 505.69,-128.67"/>
</g>
<!-- 11 -->
<g id="node12" class="node">
<title>11</title>
<text text-anchor="start" x="677.5" y="-99.8" font-family="Arial" font-weight="bold" font-size="14.00"> &lt; 48</text>
<path fill="#f8766d" fill-opacity="0.380392" stroke="transparent" d="M648,-27C648,-27 738,-27 738,-27 744,-27 750,-33 750,-39 750,-39 750,-79 750,-79 750,-85 744,-91 738,-91 738,-91 648,-91 648,-91 642,-91 636,-85 636,-79 636,-79 636,-39 636,-39 636,-33 642,-27 648,-27"/>
<text text-anchor="start" x="637" y="-88.4" font-family="Arial" font-size="2.00"> </text>
<text text-anchor="start" x="637" y="-82.4" font-family="Arial" font-size="7.00"> &#160;11</text>
<text text-anchor="start" x="651" y="-65.8" font-family="Arial" font-weight="bold" font-size="14.00">Predict 38.88</text>
<text text-anchor="start" x="673" y="-48.8" font-family="Arial" font-weight="bold" font-size="14.00">n = 22</text>
<text text-anchor="start" x="691.5" y="-30.8" font-family="Arial" font-size="9.00"> </text>
<path fill="none" stroke="#333333" d="M648,-27C648,-27 738,-27 738,-27 744,-27 750,-33 750,-39 750,-39 750,-79 750,-79 750,-85 744,-91 738,-91 738,-91 648,-91 648,-91 642,-91 636,-85 636,-79 636,-79 636,-39 636,-39 636,-33 642,-27 648,-27"/>
<text text-anchor="start" x="691" y="-12.8" font-family="Arial" font-weight="bold" font-size="14.00"> </text>
</g>
<!-- 10&#45;&gt;11 -->
<g id="edge11" class="edge">
<title>10&#45;&gt;11</title>
<path fill="none" stroke="#888888" d="M693,-153.67C693,-145.39 693,-136.83 693,-128.38"/>
<polygon fill="#888888" stroke="#888888" points="696.5,-128.18 693,-118.18 689.5,-128.18 696.5,-128.18"/>
</g>
<!-- 12 -->
<g id="node13" class="node">
<title>12</title>
<text text-anchor="start" x="833.5" y="-99.8" font-family="Arial" font-weight="bold" font-size="14.00"> ≥ 48</text>
<path fill="#f8766d" fill-opacity="0.501961" stroke="transparent" d="M804,-27C804,-27 894,-27 894,-27 900,-27 906,-33 906,-39 906,-39 906,-79 906,-79 906,-85 900,-91 894,-91 894,-91 804,-91 804,-91 798,-91 792,-85 792,-79 792,-79 792,-39 792,-39 792,-33 798,-27 804,-27"/>
<text text-anchor="start" x="793" y="-88.4" font-family="Arial" font-size="2.00"> </text>
<text text-anchor="start" x="793" y="-82.4" font-family="Arial" font-size="7.00"> &#160;12</text>
<text text-anchor="start" x="807" y="-65.8" font-family="Arial" font-weight="bold" font-size="14.00">Predict 33.28</text>
<text text-anchor="start" x="829" y="-48.8" font-family="Arial" font-weight="bold" font-size="14.00">n = 34</text>
<text text-anchor="start" x="847.5" y="-30.8" font-family="Arial" font-size="9.00"> </text>
<path fill="none" stroke="#333333" d="M804,-27C804,-27 894,-27 894,-27 900,-27 906,-33 906,-39 906,-39 906,-79 906,-79 906,-85 900,-91 894,-91 894,-91 804,-91 804,-91 798,-91 792,-85 792,-79 792,-79 792,-39 792,-39 792,-33 798,-27 804,-27"/>
<text text-anchor="start" x="847" y="-12.8" font-family="Arial" font-weight="bold" font-size="14.00"> </text>
</g>
<!-- 10&#45;&gt;12 -->
<g id="edge12" class="edge">
<title>10&#45;&gt;12</title>
<path fill="none" stroke="#888888" d="M752.87,-153.67C762.38,-144.39 772.28,-134.75 781.95,-125.33"/>
<polygon fill="#888888" stroke="#888888" points="784.57,-127.66 789.29,-118.18 779.69,-122.65 784.57,-127.66"/>
</g>
</g>
</svg>
