<?xml version="1.0" encoding="utf-8"?>
<svg xmlns="http://www.w3.org/2000/svg" xmlns:xlink="http://www.w3.org/1999/xlink" width="500" height="250" viewBox="0 0 2000 1000">
<defs>
  <clipPath id="clip480">
    <rect x="0" y="0" width="2000" height="1000"/>
  </clipPath>
</defs>
<path clip-path="url(#clip480)" d="M0 1000 L2000 1000 L2000 0 L0 0  Z" fill="#ffffff" fill-rule="evenodd" fill-opacity="1"/>
<defs>
  <clipPath id="clip481">
    <rect x="400" y="0" width="1401" height="1000"/>
  </clipPath>
</defs>
<path clip-path="url(#clip480)" d="M223.535 897.848 L1449.54 897.848 L1449.54 47.2441 L223.535 47.2441  Z" fill="#ffffff" fill-rule="evenodd" fill-opacity="1"/>
<defs>
  <clipPath id="clip482">
    <rect x="223" y="47" width="1227" height="852"/>
  </clipPath>
</defs>
<polyline clip-path="url(#clip482)" style="stroke:#000000; stroke-linecap:round; stroke-linejoin:round; stroke-width:2; stroke-opacity:0.1; fill:none" points="258.234,897.848 258.234,47.2441 "/>
<polyline clip-path="url(#clip482)" style="stroke:#000000; stroke-linecap:round; stroke-linejoin:round; stroke-width:2; stroke-opacity:0.1; fill:none" points="590.671,897.848 590.671,47.2441 "/>
<polyline clip-path="url(#clip482)" style="stroke:#000000; stroke-linecap:round; stroke-linejoin:round; stroke-width:2; stroke-opacity:0.1; fill:none" points="923.109,897.848 923.109,47.2441 "/>
<polyline clip-path="url(#clip482)" style="stroke:#000000; stroke-linecap:round; stroke-linejoin:round; stroke-width:2; stroke-opacity:0.1; fill:none" points="1255.55,897.848 1255.55,47.2441 "/>
<polyline clip-path="url(#clip480)" style="stroke:#000000; stroke-linecap:round; stroke-linejoin:round; stroke-width:4; stroke-opacity:1; fill:none" points="223.535,897.848 1449.54,897.848 "/>
<polyline clip-path="url(#clip480)" style="stroke:#000000; stroke-linecap:round; stroke-linejoin:round; stroke-width:4; stroke-opacity:1; fill:none" points="258.234,897.848 258.234,878.95 "/>
<polyline clip-path="url(#clip480)" style="stroke:#000000; stroke-linecap:round; stroke-linejoin:round; stroke-width:4; stroke-opacity:1; fill:none" points="590.671,897.848 590.671,878.95 "/>
<polyline clip-path="url(#clip480)" style="stroke:#000000; stroke-linecap:round; stroke-linejoin:round; stroke-width:4; stroke-opacity:1; fill:none" points="923.109,897.848 923.109,878.95 "/>
<polyline clip-path="url(#clip480)" style="stroke:#000000; stroke-linecap:round; stroke-linejoin:round; stroke-width:4; stroke-opacity:1; fill:none" points="1255.55,897.848 1255.55,878.95 "/>
<path clip-path="url(#clip480)" d="M113.365 958.021 L131.724 958.021 L131.724 962.448 L107.037 962.448 L107.037 958.021 Q110.031 954.922 115.188 949.714 Q120.37 944.479 121.698 942.969 Q124.224 940.13 125.214 938.177 Q126.229 936.198 126.229 934.297 Q126.229 931.198 124.042 929.245 Q121.88 927.292 118.391 927.292 Q115.917 927.292 113.156 928.151 Q110.422 929.011 107.297 930.755 L107.297 925.443 Q110.474 924.167 113.234 923.516 Q115.995 922.865 118.287 922.865 Q124.328 922.865 127.922 925.886 Q131.516 928.906 131.516 933.958 Q131.516 936.354 130.604 938.516 Q129.719 940.651 127.349 943.568 Q126.698 944.323 123.208 947.943 Q119.719 951.536 113.365 958.021 Z" fill="#000000" fill-rule="nonzero" fill-opacity="1" /><path clip-path="url(#clip480)" d="M154.015 927.031 Q149.953 927.031 147.896 931.042 Q145.865 935.026 145.865 943.047 Q145.865 951.042 147.896 955.052 Q149.953 959.036 154.015 959.036 Q158.104 959.036 160.135 955.052 Q162.193 951.042 162.193 943.047 Q162.193 935.026 160.135 931.042 Q158.104 927.031 154.015 927.031 M154.015 922.865 Q160.552 922.865 163.989 928.047 Q167.453 933.203 167.453 943.047 Q167.453 952.865 163.989 958.047 Q160.552 963.203 154.015 963.203 Q147.479 963.203 144.016 958.047 Q140.578 952.865 140.578 943.047 Q140.578 933.203 144.016 928.047 Q147.479 922.865 154.015 922.865 Z" fill="#000000" fill-rule="nonzero" fill-opacity="1" /><path clip-path="url(#clip480)" d="M181.229 958.021 L199.588 958.021 L199.588 962.448 L174.901 962.448 L174.901 958.021 Q177.896 954.922 183.052 949.714 Q188.234 944.479 189.562 942.969 Q192.088 940.13 193.078 938.177 Q194.093 936.198 194.093 934.297 Q194.093 931.198 191.906 929.245 Q189.744 927.292 186.255 927.292 Q183.781 927.292 181.021 928.151 Q178.286 929.011 175.161 930.755 L175.161 925.443 Q178.338 924.167 181.099 923.516 Q183.859 922.865 186.151 922.865 Q192.192 922.865 195.786 925.886 Q199.38 928.906 199.38 933.958 Q199.38 936.354 198.468 938.516 Q197.583 940.651 195.213 943.568 Q194.562 944.323 191.073 947.943 Q187.583 951.536 181.229 958.021 Z" fill="#000000" fill-rule="nonzero" fill-opacity="1" /><path clip-path="url(#clip480)" d="M215.161 958.021 L233.52 958.021 L233.52 962.448 L208.833 962.448 L208.833 958.021 Q211.828 954.922 216.984 949.714 Q222.166 944.479 223.494 942.969 Q226.02 940.13 227.01 938.177 Q228.026 936.198 228.026 934.297 Q228.026 931.198 225.838 929.245 Q223.677 927.292 220.187 927.292 Q217.713 927.292 214.953 928.151 Q212.218 929.011 209.093 930.755 L209.093 925.443 Q212.27 924.167 215.031 923.516 Q217.791 922.865 220.083 922.865 Q226.124 922.865 229.718 925.886 Q233.312 928.906 233.312 933.958 Q233.312 936.354 232.4 938.516 Q231.515 940.651 229.145 943.568 Q228.494 944.323 225.005 947.943 Q221.515 951.536 215.161 958.021 Z" fill="#000000" fill-rule="nonzero" fill-opacity="1" /><path clip-path="url(#clip480)" d="M241.463 945.703 L255.499 945.703 L255.499 949.974 L241.463 949.974 L241.463 945.703 Z" fill="#000000" fill-rule="nonzero" fill-opacity="1" /><path clip-path="url(#clip480)" d="M275.057 927.031 Q270.994 927.031 268.937 931.042 Q266.906 935.026 266.906 943.047 Q266.906 951.042 268.937 955.052 Q270.994 959.036 275.057 959.036 Q279.145 959.036 281.176 955.052 Q283.234 951.042 283.234 943.047 Q283.234 935.026 281.176 931.042 Q279.145 927.031 275.057 927.031 M275.057 922.865 Q281.593 922.865 285.03 928.047 Q288.494 933.203 288.494 943.047 Q288.494 952.865 285.03 958.047 Q281.593 963.203 275.057 963.203 Q268.52 963.203 265.057 958.047 Q261.619 952.865 261.619 943.047 Q261.619 933.203 265.057 928.047 Q268.52 922.865 275.057 922.865 Z" fill="#000000" fill-rule="nonzero" fill-opacity="1" /><path clip-path="url(#clip480)" d="M296.411 923.568 L321.41 923.568 L321.41 925.807 L307.296 962.448 L301.801 962.448 L315.082 927.995 L296.411 927.995 L296.411 923.568 Z" fill="#000000" fill-rule="nonzero" fill-opacity="1" /><path clip-path="url(#clip480)" d="M328.572 945.703 L342.608 945.703 L342.608 949.974 L328.572 949.974 L328.572 945.703 Z" fill="#000000" fill-rule="nonzero" fill-opacity="1" /><path clip-path="url(#clip480)" d="M351.827 958.021 L360.421 958.021 L360.421 928.36 L351.072 930.235 L351.072 925.443 L360.369 923.568 L365.629 923.568 L365.629 958.021 L374.223 958.021 L374.223 962.448 L351.827 962.448 L351.827 958.021 Z" fill="#000000" fill-rule="nonzero" fill-opacity="1" /><path clip-path="url(#clip480)" d="M396.098 943.984 Q392.348 943.984 390.186 945.99 Q388.051 947.995 388.051 951.51 Q388.051 955.026 390.186 957.031 Q392.348 959.036 396.098 959.036 Q399.848 959.036 402.009 957.031 Q404.17 955 404.17 951.51 Q404.17 947.995 402.009 945.99 Q399.874 943.984 396.098 943.984 M390.837 941.745 Q387.452 940.912 385.551 938.594 Q383.676 936.276 383.676 932.943 Q383.676 928.281 386.983 925.573 Q390.316 922.865 396.098 922.865 Q401.905 922.865 405.212 925.573 Q408.519 928.281 408.519 932.943 Q408.519 936.276 406.618 938.594 Q404.743 940.912 401.384 941.745 Q405.186 942.63 407.295 945.208 Q409.431 947.786 409.431 951.51 Q409.431 957.161 405.967 960.182 Q402.53 963.203 396.098 963.203 Q389.665 963.203 386.202 960.182 Q382.764 957.161 382.764 951.51 Q382.764 947.786 384.9 945.208 Q387.035 942.63 390.837 941.745 M388.91 933.438 Q388.91 936.458 390.785 938.151 Q392.686 939.844 396.098 939.844 Q399.483 939.844 401.384 938.151 Q403.311 936.458 403.311 933.438 Q403.311 930.417 401.384 928.724 Q399.483 927.031 396.098 927.031 Q392.686 927.031 390.785 928.724 Q388.91 930.417 388.91 933.438 Z" fill="#000000" fill-rule="nonzero" fill-opacity="1" /><path clip-path="url(#clip480)" d="M445.75 958.021 L464.11 958.021 L464.11 962.448 L439.422 962.448 L439.422 958.021 Q442.417 954.922 447.573 949.714 Q452.756 944.479 454.084 942.969 Q456.61 940.13 457.599 938.177 Q458.615 936.198 458.615 934.297 Q458.615 931.198 456.427 929.245 Q454.266 927.292 450.776 927.292 Q448.302 927.292 445.542 928.151 Q442.808 929.011 439.683 930.755 L439.683 925.443 Q442.86 924.167 445.62 923.516 Q448.381 922.865 450.672 922.865 Q456.714 922.865 460.308 925.886 Q463.901 928.906 463.901 933.958 Q463.901 936.354 462.99 938.516 Q462.104 940.651 459.735 943.568 Q459.084 944.323 455.594 947.943 Q452.105 951.536 445.75 958.021 Z" fill="#000000" fill-rule="nonzero" fill-opacity="1" /><path clip-path="url(#clip480)" d="M486.401 927.031 Q482.339 927.031 480.281 931.042 Q478.25 935.026 478.25 943.047 Q478.25 951.042 480.281 955.052 Q482.339 959.036 486.401 959.036 Q490.49 959.036 492.521 955.052 Q494.578 951.042 494.578 943.047 Q494.578 935.026 492.521 931.042 Q490.49 927.031 486.401 927.031 M486.401 922.865 Q492.938 922.865 496.375 928.047 Q499.839 933.203 499.839 943.047 Q499.839 952.865 496.375 958.047 Q492.938 963.203 486.401 963.203 Q479.865 963.203 476.401 958.047 Q472.964 952.865 472.964 943.047 Q472.964 933.203 476.401 928.047 Q479.865 922.865 486.401 922.865 Z" fill="#000000" fill-rule="nonzero" fill-opacity="1" /><path clip-path="url(#clip480)" d="M513.615 958.021 L531.974 958.021 L531.974 962.448 L507.287 962.448 L507.287 958.021 Q510.281 954.922 515.438 949.714 Q520.62 944.479 521.948 942.969 Q524.474 940.13 525.464 938.177 Q526.479 936.198 526.479 934.297 Q526.479 931.198 524.292 929.245 Q522.13 927.292 518.641 927.292 Q516.167 927.292 513.406 928.151 Q510.672 929.011 507.547 930.755 L507.547 925.443 Q510.724 924.167 513.484 923.516 Q516.245 922.865 518.536 922.865 Q524.578 922.865 528.172 925.886 Q531.766 928.906 531.766 933.958 Q531.766 936.354 530.854 938.516 Q529.969 940.651 527.599 943.568 Q526.948 944.323 523.458 947.943 Q519.969 951.536 513.615 958.021 Z" fill="#000000" fill-rule="nonzero" fill-opacity="1" /><path clip-path="url(#clip480)" d="M547.547 958.021 L565.906 958.021 L565.906 962.448 L541.219 962.448 L541.219 958.021 Q544.213 954.922 549.37 949.714 Q554.552 944.479 555.88 942.969 Q558.406 940.13 559.396 938.177 Q560.411 936.198 560.411 934.297 Q560.411 931.198 558.224 929.245 Q556.062 927.292 552.573 927.292 Q550.099 927.292 547.338 928.151 Q544.604 929.011 541.479 930.755 L541.479 925.443 Q544.656 924.167 547.417 923.516 Q550.177 922.865 552.469 922.865 Q558.51 922.865 562.104 925.886 Q565.698 928.906 565.698 933.958 Q565.698 936.354 564.786 938.516 Q563.901 940.651 561.531 943.568 Q560.88 944.323 557.39 947.943 Q553.901 951.536 547.547 958.021 Z" fill="#000000" fill-rule="nonzero" fill-opacity="1" /><path clip-path="url(#clip480)" d="M573.849 945.703 L587.885 945.703 L587.885 949.974 L573.849 949.974 L573.849 945.703 Z" fill="#000000" fill-rule="nonzero" fill-opacity="1" /><path clip-path="url(#clip480)" d="M607.442 927.031 Q603.38 927.031 601.322 931.042 Q599.291 935.026 599.291 943.047 Q599.291 951.042 601.322 955.052 Q603.38 959.036 607.442 959.036 Q611.531 959.036 613.562 955.052 Q615.619 951.042 615.619 943.047 Q615.619 935.026 613.562 931.042 Q611.531 927.031 607.442 927.031 M607.442 922.865 Q613.979 922.865 617.416 928.047 Q620.88 933.203 620.88 943.047 Q620.88 952.865 617.416 958.047 Q613.979 963.203 607.442 963.203 Q600.906 963.203 597.442 958.047 Q594.005 952.865 594.005 943.047 Q594.005 933.203 597.442 928.047 Q600.906 922.865 607.442 922.865 Z" fill="#000000" fill-rule="nonzero" fill-opacity="1" /><path clip-path="url(#clip480)" d="M628.796 923.568 L653.796 923.568 L653.796 925.807 L639.682 962.448 L634.187 962.448 L647.468 927.995 L628.796 927.995 L628.796 923.568 Z" fill="#000000" fill-rule="nonzero" fill-opacity="1" /><path clip-path="url(#clip480)" d="M660.958 945.703 L674.994 945.703 L674.994 949.974 L660.958 949.974 L660.958 945.703 Z" fill="#000000" fill-rule="nonzero" fill-opacity="1" /><path clip-path="url(#clip480)" d="M687.832 958.021 L706.192 958.021 L706.192 962.448 L681.504 962.448 L681.504 958.021 Q684.499 954.922 689.655 949.714 Q694.838 944.479 696.166 942.969 Q698.692 940.13 699.681 938.177 Q700.697 936.198 700.697 934.297 Q700.697 931.198 698.509 929.245 Q696.348 927.292 692.858 927.292 Q690.384 927.292 687.624 928.151 Q684.89 929.011 681.765 930.755 L681.765 925.443 Q684.942 924.167 687.702 923.516 Q690.463 922.865 692.754 922.865 Q698.796 922.865 702.39 925.886 Q705.983 928.906 705.983 933.958 Q705.983 936.354 705.072 938.516 Q704.187 940.651 701.817 943.568 Q701.166 944.323 697.676 947.943 Q694.187 951.536 687.832 958.021 Z" fill="#000000" fill-rule="nonzero" fill-opacity="1" /><path clip-path="url(#clip480)" d="M728.483 927.031 Q724.421 927.031 722.363 931.042 Q720.332 935.026 720.332 943.047 Q720.332 951.042 722.363 955.052 Q724.421 959.036 728.483 959.036 Q732.572 959.036 734.603 955.052 Q736.66 951.042 736.66 943.047 Q736.66 935.026 734.603 931.042 Q732.572 927.031 728.483 927.031 M728.483 922.865 Q735.02 922.865 738.457 928.047 Q741.921 933.203 741.921 943.047 Q741.921 952.865 738.457 958.047 Q735.02 963.203 728.483 963.203 Q721.947 963.203 718.483 958.047 Q715.046 952.865 715.046 943.047 Q715.046 933.203 718.483 928.047 Q721.947 922.865 728.483 922.865 Z" fill="#000000" fill-rule="nonzero" fill-opacity="1" /><path clip-path="url(#clip480)" d="M779.087 958.021 L797.446 958.021 L797.446 962.448 L772.759 962.448 L772.759 958.021 Q775.753 954.922 780.91 949.714 Q786.092 944.479 787.42 942.969 Q789.946 940.13 790.936 938.177 Q791.951 936.198 791.951 934.297 Q791.951 931.198 789.764 929.245 Q787.602 927.292 784.113 927.292 Q781.639 927.292 778.878 928.151 Q776.144 929.011 773.019 930.755 L773.019 925.443 Q776.196 924.167 778.956 923.516 Q781.717 922.865 784.008 922.865 Q790.05 922.865 793.644 925.886 Q797.238 928.906 797.238 933.958 Q797.238 936.354 796.326 938.516 Q795.441 940.651 793.071 943.568 Q792.42 944.323 788.93 947.943 Q785.441 951.536 779.087 958.021 Z" fill="#000000" fill-rule="nonzero" fill-opacity="1" /><path clip-path="url(#clip480)" d="M819.737 927.031 Q815.675 927.031 813.618 931.042 Q811.586 935.026 811.586 943.047 Q811.586 951.042 813.618 955.052 Q815.675 959.036 819.737 959.036 Q823.826 959.036 825.857 955.052 Q827.914 951.042 827.914 943.047 Q827.914 935.026 825.857 931.042 Q823.826 927.031 819.737 927.031 M819.737 922.865 Q826.274 922.865 829.711 928.047 Q833.175 933.203 833.175 943.047 Q833.175 952.865 829.711 958.047 Q826.274 963.203 819.737 963.203 Q813.201 963.203 809.738 958.047 Q806.3 952.865 806.3 943.047 Q806.3 933.203 809.738 928.047 Q813.201 922.865 819.737 922.865 Z" fill="#000000" fill-rule="nonzero" fill-opacity="1" /><path clip-path="url(#clip480)" d="M846.951 958.021 L865.31 958.021 L865.31 962.448 L840.623 962.448 L840.623 958.021 Q843.618 954.922 848.774 949.714 Q853.956 944.479 855.284 942.969 Q857.81 940.13 858.8 938.177 Q859.815 936.198 859.815 934.297 Q859.815 931.198 857.628 929.245 Q855.466 927.292 851.977 927.292 Q849.503 927.292 846.743 928.151 Q844.008 929.011 840.883 930.755 L840.883 925.443 Q844.06 924.167 846.821 923.516 Q849.581 922.865 851.873 922.865 Q857.914 922.865 861.508 925.886 Q865.102 928.906 865.102 933.958 Q865.102 936.354 864.19 938.516 Q863.305 940.651 860.935 943.568 Q860.284 944.323 856.795 947.943 Q853.305 951.536 846.951 958.021 Z" fill="#000000" fill-rule="nonzero" fill-opacity="1" /><path clip-path="url(#clip480)" d="M880.883 958.021 L899.242 958.021 L899.242 962.448 L874.555 962.448 L874.555 958.021 Q877.55 954.922 882.706 949.714 Q887.888 944.479 889.216 942.969 Q891.742 940.13 892.732 938.177 Q893.747 936.198 893.747 934.297 Q893.747 931.198 891.56 929.245 Q889.399 927.292 885.909 927.292 Q883.435 927.292 880.675 928.151 Q877.94 929.011 874.815 930.755 L874.815 925.443 Q877.992 924.167 880.753 923.516 Q883.513 922.865 885.805 922.865 Q891.846 922.865 895.44 925.886 Q899.034 928.906 899.034 933.958 Q899.034 936.354 898.122 938.516 Q897.237 940.651 894.867 943.568 Q894.216 944.323 890.727 947.943 Q887.237 951.536 880.883 958.021 Z" fill="#000000" fill-rule="nonzero" fill-opacity="1" /><path clip-path="url(#clip480)" d="M907.185 945.703 L921.221 945.703 L921.221 949.974 L907.185 949.974 L907.185 945.703 Z" fill="#000000" fill-rule="nonzero" fill-opacity="1" /><path clip-path="url(#clip480)" d="M940.778 927.031 Q936.716 927.031 934.659 931.042 Q932.627 935.026 932.627 943.047 Q932.627 951.042 934.659 955.052 Q936.716 959.036 940.778 959.036 Q944.867 959.036 946.898 955.052 Q948.956 951.042 948.956 943.047 Q948.956 935.026 946.898 931.042 Q944.867 927.031 940.778 927.031 M940.778 922.865 Q947.315 922.865 950.752 928.047 Q954.216 933.203 954.216 943.047 Q954.216 952.865 950.752 958.047 Q947.315 963.203 940.778 963.203 Q934.242 963.203 930.779 958.047 Q927.341 952.865 927.341 943.047 Q927.341 933.203 930.779 928.047 Q934.242 922.865 940.778 922.865 Z" fill="#000000" fill-rule="nonzero" fill-opacity="1" /><path clip-path="url(#clip480)" d="M962.133 923.568 L987.132 923.568 L987.132 925.807 L973.018 962.448 L967.523 962.448 L980.804 927.995 L962.133 927.995 L962.133 923.568 Z" fill="#000000" fill-rule="nonzero" fill-opacity="1" /><path clip-path="url(#clip480)" d="M994.294 945.703 L1008.33 945.703 L1008.33 949.974 L994.294 949.974 L994.294 945.703 Z" fill="#000000" fill-rule="nonzero" fill-opacity="1" /><path clip-path="url(#clip480)" d="M1021.17 958.021 L1039.53 958.021 L1039.53 962.448 L1014.84 962.448 L1014.84 958.021 Q1017.84 954.922 1022.99 949.714 Q1028.17 944.479 1029.5 942.969 Q1032.03 940.13 1033.02 938.177 Q1034.03 936.198 1034.03 934.297 Q1034.03 931.198 1031.85 929.245 Q1029.68 927.292 1026.19 927.292 Q1023.72 927.292 1020.96 928.151 Q1018.23 929.011 1015.1 930.755 L1015.1 925.443 Q1018.28 924.167 1021.04 923.516 Q1023.8 922.865 1026.09 922.865 Q1032.13 922.865 1035.73 925.886 Q1039.32 928.906 1039.32 933.958 Q1039.32 936.354 1038.41 938.516 Q1037.52 940.651 1035.15 943.568 Q1034.5 944.323 1031.01 947.943 Q1027.52 951.536 1021.17 958.021 Z" fill="#000000" fill-rule="nonzero" fill-opacity="1" /><path clip-path="url(#clip480)" d="M1055.1 958.021 L1073.46 958.021 L1073.46 962.448 L1048.77 962.448 L1048.77 958.021 Q1051.77 954.922 1056.92 949.714 Q1062.11 944.479 1063.43 942.969 Q1065.96 940.13 1066.95 938.177 Q1067.97 936.198 1067.97 934.297 Q1067.97 931.198 1065.78 929.245 Q1063.62 927.292 1060.13 927.292 Q1057.65 927.292 1054.89 928.151 Q1052.16 929.011 1049.03 930.755 L1049.03 925.443 Q1052.21 924.167 1054.97 923.516 Q1057.73 922.865 1060.02 922.865 Q1066.06 922.865 1069.66 925.886 Q1073.25 928.906 1073.25 933.958 Q1073.25 936.354 1072.34 938.516 Q1071.45 940.651 1069.09 943.568 Q1068.43 944.323 1064.94 947.943 Q1061.45 951.536 1055.1 958.021 Z" fill="#000000" fill-rule="nonzero" fill-opacity="1" /><path clip-path="url(#clip480)" d="M1110.35 958.021 L1128.71 958.021 L1128.71 962.448 L1104.02 962.448 L1104.02 958.021 Q1107.02 954.922 1112.18 949.714 Q1117.36 944.479 1118.69 942.969 Q1121.21 940.13 1122.2 938.177 Q1123.22 936.198 1123.22 934.297 Q1123.22 931.198 1121.03 929.245 Q1118.87 927.292 1115.38 927.292 Q1112.9 927.292 1110.14 928.151 Q1107.41 929.011 1104.28 930.755 L1104.28 925.443 Q1107.46 924.167 1110.22 923.516 Q1112.98 922.865 1115.27 922.865 Q1121.32 922.865 1124.91 925.886 Q1128.5 928.906 1128.5 933.958 Q1128.5 936.354 1127.59 938.516 Q1126.71 940.651 1124.34 943.568 Q1123.69 944.323 1120.2 947.943 Q1116.71 951.536 1110.35 958.021 Z" fill="#000000" fill-rule="nonzero" fill-opacity="1" /><path clip-path="url(#clip480)" d="M1151 927.031 Q1146.94 927.031 1144.88 931.042 Q1142.85 935.026 1142.85 943.047 Q1142.85 951.042 1144.88 955.052 Q1146.94 959.036 1151 959.036 Q1155.09 959.036 1157.12 955.052 Q1159.18 951.042 1159.18 943.047 Q1159.18 935.026 1157.12 931.042 Q1155.09 927.031 1151 927.031 M1151 922.865 Q1157.54 922.865 1160.98 928.047 Q1164.44 933.203 1164.44 943.047 Q1164.44 952.865 1160.98 958.047 Q1157.54 963.203 1151 963.203 Q1144.47 963.203 1141 958.047 Q1137.57 952.865 1137.57 943.047 Q1137.57 933.203 1141 928.047 Q1144.47 922.865 1151 922.865 Z" fill="#000000" fill-rule="nonzero" fill-opacity="1" /><path clip-path="url(#clip480)" d="M1178.22 958.021 L1196.58 958.021 L1196.58 962.448 L1171.89 962.448 L1171.89 958.021 Q1174.88 954.922 1180.04 949.714 Q1185.22 944.479 1186.55 942.969 Q1189.08 940.13 1190.07 938.177 Q1191.08 936.198 1191.08 934.297 Q1191.08 931.198 1188.89 929.245 Q1186.73 927.292 1183.24 927.292 Q1180.77 927.292 1178.01 928.151 Q1175.27 929.011 1172.15 930.755 L1172.15 925.443 Q1175.33 924.167 1178.09 923.516 Q1180.85 922.865 1183.14 922.865 Q1189.18 922.865 1192.77 925.886 Q1196.37 928.906 1196.37 933.958 Q1196.37 936.354 1195.46 938.516 Q1194.57 940.651 1192.2 943.568 Q1191.55 944.323 1188.06 947.943 Q1184.57 951.536 1178.22 958.021 Z" fill="#000000" fill-rule="nonzero" fill-opacity="1" /><path clip-path="url(#clip480)" d="M1212.15 958.021 L1230.51 958.021 L1230.51 962.448 L1205.82 962.448 L1205.82 958.021 Q1208.82 954.922 1213.97 949.714 Q1219.15 944.479 1220.48 942.969 Q1223.01 940.13 1224 938.177 Q1225.01 936.198 1225.01 934.297 Q1225.01 931.198 1222.83 929.245 Q1220.66 927.292 1217.17 927.292 Q1214.7 927.292 1211.94 928.151 Q1209.21 929.011 1206.08 930.755 L1206.08 925.443 Q1209.26 924.167 1212.02 923.516 Q1214.78 922.865 1217.07 922.865 Q1223.11 922.865 1226.71 925.886 Q1230.3 928.906 1230.3 933.958 Q1230.3 936.354 1229.39 938.516 Q1228.5 940.651 1226.13 943.568 Q1225.48 944.323 1221.99 947.943 Q1218.5 951.536 1212.15 958.021 Z" fill="#000000" fill-rule="nonzero" fill-opacity="1" /><path clip-path="url(#clip480)" d="M1238.45 945.703 L1252.49 945.703 L1252.49 949.974 L1238.45 949.974 L1238.45 945.703 Z" fill="#000000" fill-rule="nonzero" fill-opacity="1" /><path clip-path="url(#clip480)" d="M1272.04 927.031 Q1267.98 927.031 1265.92 931.042 Q1263.89 935.026 1263.89 943.047 Q1263.89 951.042 1265.92 955.052 Q1267.98 959.036 1272.04 959.036 Q1276.13 959.036 1278.16 955.052 Q1280.22 951.042 1280.22 943.047 Q1280.22 935.026 1278.16 931.042 Q1276.13 927.031 1272.04 927.031 M1272.04 922.865 Q1278.58 922.865 1282.02 928.047 Q1285.48 933.203 1285.48 943.047 Q1285.48 952.865 1282.02 958.047 Q1278.58 963.203 1272.04 963.203 Q1265.51 963.203 1262.04 958.047 Q1258.61 952.865 1258.61 943.047 Q1258.61 933.203 1262.04 928.047 Q1265.51 922.865 1272.04 922.865 Z" fill="#000000" fill-rule="nonzero" fill-opacity="1" /><path clip-path="url(#clip480)" d="M1293.4 923.568 L1318.4 923.568 L1318.4 925.807 L1304.28 962.448 L1298.79 962.448 L1312.07 927.995 L1293.4 927.995 L1293.4 923.568 Z" fill="#000000" fill-rule="nonzero" fill-opacity="1" /><path clip-path="url(#clip480)" d="M1325.56 945.703 L1339.6 945.703 L1339.6 949.974 L1325.56 949.974 L1325.56 945.703 Z" fill="#000000" fill-rule="nonzero" fill-opacity="1" /><path clip-path="url(#clip480)" d="M1352.43 958.021 L1370.79 958.021 L1370.79 962.448 L1346.11 962.448 L1346.11 958.021 Q1349.1 954.922 1354.26 949.714 Q1359.44 944.479 1360.77 942.969 Q1363.29 940.13 1364.28 938.177 Q1365.3 936.198 1365.3 934.297 Q1365.3 931.198 1363.11 929.245 Q1360.95 927.292 1357.46 927.292 Q1354.99 927.292 1352.23 928.151 Q1349.49 929.011 1346.37 930.755 L1346.37 925.443 Q1349.54 924.167 1352.3 923.516 Q1355.06 922.865 1357.36 922.865 Q1363.4 922.865 1366.99 925.886 Q1370.59 928.906 1370.59 933.958 Q1370.59 936.354 1369.67 938.516 Q1368.79 940.651 1366.42 943.568 Q1365.77 944.323 1362.28 947.943 Q1358.79 951.536 1352.43 958.021 Z" fill="#000000" fill-rule="nonzero" fill-opacity="1" /><path clip-path="url(#clip480)" d="M1396.29 928.151 L1383.01 948.906 L1396.29 948.906 L1396.29 928.151 M1394.91 923.568 L1401.52 923.568 L1401.52 948.906 L1407.07 948.906 L1407.07 953.281 L1401.52 953.281 L1401.52 962.448 L1396.29 962.448 L1396.29 953.281 L1378.74 953.281 L1378.74 948.203 L1394.91 923.568 Z" fill="#000000" fill-rule="nonzero" fill-opacity="1" /><polyline clip-path="url(#clip482)" style="stroke:#000000; stroke-linecap:round; stroke-linejoin:round; stroke-width:2; stroke-opacity:0.1; fill:none" points="223.535,805.703 1449.54,805.703 "/>
<polyline clip-path="url(#clip482)" style="stroke:#000000; stroke-linecap:round; stroke-linejoin:round; stroke-width:2; stroke-opacity:0.1; fill:none" points="223.535,634.358 1449.54,634.358 "/>
<polyline clip-path="url(#clip482)" style="stroke:#000000; stroke-linecap:round; stroke-linejoin:round; stroke-width:2; stroke-opacity:0.1; fill:none" points="223.535,463.013 1449.54,463.013 "/>
<polyline clip-path="url(#clip482)" style="stroke:#000000; stroke-linecap:round; stroke-linejoin:round; stroke-width:2; stroke-opacity:0.1; fill:none" points="223.535,291.668 1449.54,291.668 "/>
<polyline clip-path="url(#clip482)" style="stroke:#000000; stroke-linecap:round; stroke-linejoin:round; stroke-width:2; stroke-opacity:0.1; fill:none" points="223.535,120.323 1449.54,120.323 "/>
<polyline clip-path="url(#clip480)" style="stroke:#000000; stroke-linecap:round; stroke-linejoin:round; stroke-width:4; stroke-opacity:1; fill:none" points="223.535,897.848 223.535,47.2441 "/>
<polyline clip-path="url(#clip480)" style="stroke:#000000; stroke-linecap:round; stroke-linejoin:round; stroke-width:4; stroke-opacity:1; fill:none" points="223.535,805.703 236.934,805.703 "/>
<polyline clip-path="url(#clip480)" style="stroke:#000000; stroke-linecap:round; stroke-linejoin:round; stroke-width:4; stroke-opacity:1; fill:none" points="223.535,634.358 236.934,634.358 "/>
<polyline clip-path="url(#clip480)" style="stroke:#000000; stroke-linecap:round; stroke-linejoin:round; stroke-width:4; stroke-opacity:1; fill:none" points="223.535,463.013 236.934,463.013 "/>
<polyline clip-path="url(#clip480)" style="stroke:#000000; stroke-linecap:round; stroke-linejoin:round; stroke-width:4; stroke-opacity:1; fill:none" points="223.535,291.668 236.934,291.668 "/>
<polyline clip-path="url(#clip480)" style="stroke:#000000; stroke-linecap:round; stroke-linejoin:round; stroke-width:4; stroke-opacity:1; fill:none" points="223.535,120.323 236.934,120.323 "/>
<path clip-path="url(#clip480)" d="M146.817 803.607 Q143.275 803.607 141.192 806.029 Q139.135 808.451 139.135 812.669 Q139.135 816.862 141.192 819.31 Q143.275 821.732 146.817 821.732 Q150.359 821.732 152.416 819.31 Q154.499 816.862 154.499 812.669 Q154.499 808.451 152.416 806.029 Q150.359 803.607 146.817 803.607 M157.26 787.122 L157.26 791.914 Q155.28 790.977 153.249 790.482 Q151.244 789.987 149.265 789.987 Q144.057 789.987 141.296 793.503 Q138.562 797.018 138.171 804.128 Q139.708 801.862 142.025 800.664 Q144.343 799.44 147.129 799.44 Q152.989 799.44 156.374 803.008 Q159.786 806.549 159.786 812.669 Q159.786 818.659 156.244 822.279 Q152.702 825.898 146.817 825.898 Q140.072 825.898 136.505 820.742 Q132.937 815.56 132.937 805.742 Q132.937 796.523 137.312 791.055 Q141.687 785.56 149.057 785.56 Q151.036 785.56 153.041 785.951 Q155.072 786.341 157.26 787.122 Z" fill="#000000" fill-rule="nonzero" fill-opacity="1" /><path clip-path="url(#clip480)" d="M180.098 789.727 Q176.036 789.727 173.978 793.737 Q171.947 797.721 171.947 805.742 Q171.947 813.737 173.978 817.747 Q176.036 821.732 180.098 821.732 Q184.187 821.732 186.218 817.747 Q188.275 813.737 188.275 805.742 Q188.275 797.721 186.218 793.737 Q184.187 789.727 180.098 789.727 M180.098 785.56 Q186.634 785.56 190.072 790.742 Q193.535 795.898 193.535 805.742 Q193.535 815.56 190.072 820.742 Q186.634 825.898 180.098 825.898 Q173.562 825.898 170.098 820.742 Q166.661 815.56 166.661 805.742 Q166.661 795.898 170.098 790.742 Q173.562 785.56 180.098 785.56 Z" fill="#000000" fill-rule="nonzero" fill-opacity="1" /><path clip-path="url(#clip480)" d="M133.588 614.918 L158.588 614.918 L158.588 617.158 L144.473 653.798 L138.978 653.798 L152.26 619.345 L133.588 619.345 L133.588 614.918 Z" fill="#000000" fill-rule="nonzero" fill-opacity="1" /><path clip-path="url(#clip480)" d="M180.098 618.381 Q176.036 618.381 173.978 622.392 Q171.947 626.376 171.947 634.397 Q171.947 642.392 173.978 646.402 Q176.036 650.387 180.098 650.387 Q184.187 650.387 186.218 646.402 Q188.275 642.392 188.275 634.397 Q188.275 626.376 186.218 622.392 Q184.187 618.381 180.098 618.381 M180.098 614.215 Q186.634 614.215 190.072 619.397 Q193.535 624.553 193.535 634.397 Q193.535 644.215 190.072 649.397 Q186.634 654.553 180.098 654.553 Q173.562 654.553 170.098 649.397 Q166.661 644.215 166.661 634.397 Q166.661 624.553 170.098 619.397 Q173.562 614.215 180.098 614.215 Z" fill="#000000" fill-rule="nonzero" fill-opacity="1" /><path clip-path="url(#clip480)" d="M146.166 463.989 Q142.416 463.989 140.255 465.995 Q138.119 468 138.119 471.515 Q138.119 475.031 140.255 477.036 Q142.416 479.041 146.166 479.041 Q149.916 479.041 152.077 477.036 Q154.239 475.005 154.239 471.515 Q154.239 468 152.077 465.995 Q149.942 463.989 146.166 463.989 M140.906 461.75 Q137.52 460.916 135.619 458.599 Q133.744 456.281 133.744 452.948 Q133.744 448.286 137.051 445.578 Q140.385 442.87 146.166 442.87 Q151.973 442.87 155.28 445.578 Q158.588 448.286 158.588 452.948 Q158.588 456.281 156.687 458.599 Q154.812 460.916 151.452 461.75 Q155.254 462.635 157.364 465.213 Q159.499 467.791 159.499 471.515 Q159.499 477.166 156.036 480.187 Q152.598 483.208 146.166 483.208 Q139.734 483.208 136.27 480.187 Q132.833 477.166 132.833 471.515 Q132.833 467.791 134.968 465.213 Q137.104 462.635 140.906 461.75 M138.978 453.443 Q138.978 456.463 140.853 458.156 Q142.755 459.849 146.166 459.849 Q149.551 459.849 151.452 458.156 Q153.379 456.463 153.379 453.443 Q153.379 450.422 151.452 448.729 Q149.551 447.036 146.166 447.036 Q142.755 447.036 140.853 448.729 Q138.978 450.422 138.978 453.443 Z" fill="#000000" fill-rule="nonzero" fill-opacity="1" /><path clip-path="url(#clip480)" d="M180.098 447.036 Q176.036 447.036 173.978 451.047 Q171.947 455.031 171.947 463.052 Q171.947 471.047 173.978 475.057 Q176.036 479.041 180.098 479.041 Q184.187 479.041 186.218 475.057 Q188.275 471.047 188.275 463.052 Q188.275 455.031 186.218 451.047 Q184.187 447.036 180.098 447.036 M180.098 442.87 Q186.634 442.87 190.072 448.052 Q193.535 453.208 193.535 463.052 Q193.535 472.87 190.072 478.052 Q186.634 483.208 180.098 483.208 Q173.562 483.208 170.098 478.052 Q166.661 472.87 166.661 463.052 Q166.661 453.208 170.098 448.052 Q173.562 442.87 180.098 442.87 Z" fill="#000000" fill-rule="nonzero" fill-opacity="1" /><path clip-path="url(#clip480)" d="M135.072 310.3 L135.072 305.509 Q137.051 306.446 139.083 306.941 Q141.114 307.436 143.067 307.436 Q148.275 307.436 151.01 303.946 Q153.77 300.431 154.161 293.295 Q152.65 295.535 150.333 296.733 Q148.015 297.931 145.202 297.931 Q139.369 297.931 135.958 294.415 Q132.572 290.873 132.572 284.754 Q132.572 278.764 136.114 275.144 Q139.656 271.525 145.541 271.525 Q152.286 271.525 155.827 276.707 Q159.395 281.863 159.395 291.707 Q159.395 300.899 155.02 306.394 Q150.671 311.863 143.301 311.863 Q141.322 311.863 139.291 311.472 Q137.26 311.082 135.072 310.3 M145.541 293.816 Q149.083 293.816 151.14 291.394 Q153.223 288.972 153.223 284.754 Q153.223 280.561 151.14 278.139 Q149.083 275.691 145.541 275.691 Q141.999 275.691 139.916 278.139 Q137.859 280.561 137.859 284.754 Q137.859 288.972 139.916 291.394 Q141.999 293.816 145.541 293.816 Z" fill="#000000" fill-rule="nonzero" fill-opacity="1" /><path clip-path="url(#clip480)" d="M180.098 275.691 Q176.036 275.691 173.978 279.702 Q171.947 283.686 171.947 291.707 Q171.947 299.701 173.978 303.712 Q176.036 307.696 180.098 307.696 Q184.187 307.696 186.218 303.712 Q188.275 299.701 188.275 291.707 Q188.275 283.686 186.218 279.702 Q184.187 275.691 180.098 275.691 M180.098 271.525 Q186.634 271.525 190.072 276.707 Q193.535 281.863 193.535 291.707 Q193.535 301.524 190.072 306.707 Q186.634 311.863 180.098 311.863 Q173.562 311.863 170.098 306.707 Q166.661 301.524 166.661 291.707 Q166.661 281.863 170.098 276.707 Q173.562 271.525 180.098 271.525 Z" fill="#000000" fill-rule="nonzero" fill-opacity="1" /><path clip-path="url(#clip480)" d="M101.895 135.335 L110.489 135.335 L110.489 105.674 L101.14 107.549 L101.14 102.757 L110.437 100.883 L115.697 100.883 L115.697 135.335 L124.291 135.335 L124.291 139.763 L101.895 139.763 L101.895 135.335 Z" fill="#000000" fill-rule="nonzero" fill-opacity="1" /><path clip-path="url(#clip480)" d="M146.166 104.346 Q142.103 104.346 140.046 108.356 Q138.015 112.341 138.015 120.362 Q138.015 128.356 140.046 132.367 Q142.103 136.351 146.166 136.351 Q150.254 136.351 152.286 132.367 Q154.343 128.356 154.343 120.362 Q154.343 112.341 152.286 108.356 Q150.254 104.346 146.166 104.346 M146.166 100.179 Q152.702 100.179 156.14 105.362 Q159.603 110.518 159.603 120.362 Q159.603 130.179 156.14 135.361 Q152.702 140.518 146.166 140.518 Q139.63 140.518 136.166 135.361 Q132.729 130.179 132.729 120.362 Q132.729 110.518 136.166 105.362 Q139.63 100.179 146.166 100.179 Z" fill="#000000" fill-rule="nonzero" fill-opacity="1" /><path clip-path="url(#clip480)" d="M180.098 104.346 Q176.036 104.346 173.978 108.356 Q171.947 112.341 171.947 120.362 Q171.947 128.356 173.978 132.367 Q176.036 136.351 180.098 136.351 Q184.187 136.351 186.218 132.367 Q188.275 128.356 188.275 120.362 Q188.275 112.341 186.218 108.356 Q184.187 104.346 180.098 104.346 M180.098 100.179 Q186.634 100.179 190.072 105.362 Q193.535 110.518 193.535 120.362 Q193.535 130.179 190.072 135.361 Q186.634 140.518 180.098 140.518 Q173.562 140.518 170.098 135.361 Q166.661 130.179 166.661 120.362 Q166.661 110.518 170.098 105.362 Q173.562 100.179 180.098 100.179 Z" fill="#000000" fill-rule="nonzero" fill-opacity="1" /><path clip-path="url(#clip480)" d="M14.9802 630.097 L14.9802 624.252 L58.1802 624.252 L58.1802 630.097 L14.9802 630.097 Z" fill="#000000" fill-rule="nonzero" fill-opacity="1" /><path clip-path="url(#clip480)" d="M38.6201 585.913 L58.1802 585.913 L58.1802 591.237 L38.7937 591.237 Q34.193 591.237 31.9072 593.031 Q29.6213 594.825 29.6213 598.413 Q29.6213 602.725 32.3701 605.213 Q35.1189 607.702 39.8643 607.702 L58.1802 607.702 L58.1802 613.054 L25.7729 613.054 L25.7729 607.702 L30.8076 607.702 Q27.8852 605.792 26.4384 603.217 Q24.9917 600.612 24.9917 597.227 Q24.9917 591.643 28.4639 588.778 Q31.9072 585.913 38.6201 585.913 Z" fill="#000000" fill-rule="nonzero" fill-opacity="1" /><path clip-path="url(#clip480)" d="M13.1573 558.888 L17.5843 558.888 L17.5843 563.981 Q17.5843 566.845 18.7417 567.974 Q19.8991 569.073 22.9084 569.073 L25.7729 569.073 L25.7729 560.306 L29.9106 560.306 L29.9106 569.073 L58.1802 569.073 L58.1802 574.426 L29.9106 574.426 L29.9106 579.519 L25.7729 579.519 L25.7729 574.426 L23.516 574.426 Q18.1051 574.426 15.6457 571.909 Q13.1573 569.392 13.1573 563.923 L13.1573 558.888 Z" fill="#000000" fill-rule="nonzero" fill-opacity="1" /><path clip-path="url(#clip480)" d="M13.1573 554.432 L13.1573 549.108 L58.1802 549.108 L58.1802 554.432 L13.1573 554.432 Z" fill="#000000" fill-rule="nonzero" fill-opacity="1" /><path clip-path="url(#clip480)" d="M29.5055 525.41 Q29.5055 529.693 32.862 532.181 Q36.1895 534.669 42.0055 534.669 Q47.8214 534.669 51.1779 532.21 Q54.5054 529.722 54.5054 525.41 Q54.5054 521.157 51.1489 518.668 Q47.7925 516.18 42.0055 516.18 Q36.2474 516.18 32.8909 518.668 Q29.5055 521.157 29.5055 525.41 M24.9917 525.41 Q24.9917 518.466 29.5055 514.502 Q34.0194 510.538 42.0055 510.538 Q49.9626 510.538 54.5054 514.502 Q59.0193 518.466 59.0193 525.41 Q59.0193 532.384 54.5054 536.348 Q49.9626 540.283 42.0055 540.283 Q34.0194 540.283 29.5055 536.348 Q24.9917 532.384 24.9917 525.41 Z" fill="#000000" fill-rule="nonzero" fill-opacity="1" /><path clip-path="url(#clip480)" d="M25.7729 504.809 L25.7729 499.484 L51.0621 492.829 L25.7729 486.203 L25.7729 479.924 L51.0621 473.269 L25.7729 466.643 L25.7729 461.319 L58.1802 469.797 L58.1802 476.076 L31.6178 483.049 L58.1802 490.052 L58.1802 496.331 L25.7729 504.809 Z" fill="#000000" fill-rule="nonzero" fill-opacity="1" /><path clip-path="url(#clip480)" d="M13.1573 434.902 L13.1573 422.633 L17.295 422.633 L17.295 429.577 L61.8549 429.577 L61.8549 422.633 L65.9926 422.633 L65.9926 434.902 L13.1573 434.902 Z" fill="#000000" fill-rule="nonzero" fill-opacity="1" /><path clip-path="url(#clip480)" d="M14.9802 411.059 L14.9802 405.214 L53.2612 405.214 L53.2612 384.178 L58.1802 384.178 L58.1802 411.059 L14.9802 411.059 Z" fill="#000000" fill-rule="nonzero" fill-opacity="1" /><path clip-path="url(#clip480)" d="M14.9802 368.814 L14.9802 363.895 L63.6778 378.941 L63.6778 383.86 L14.9802 368.814 Z" fill="#000000" fill-rule="nonzero" fill-opacity="1" /><path clip-path="url(#clip480)" d="M26.7278 337.651 L31.7625 337.651 Q30.6051 339.908 30.0264 342.338 Q29.4477 344.769 29.4477 347.373 Q29.4477 351.337 30.6629 353.334 Q31.8782 355.301 34.3088 355.301 Q36.1606 355.301 37.2312 353.883 Q38.2729 352.466 39.2277 348.183 L39.6328 346.36 Q40.8481 340.689 43.0761 338.316 Q45.2751 335.915 49.2392 335.915 Q53.7531 335.915 56.3862 339.503 Q59.0193 343.062 59.0193 349.312 Q59.0193 351.916 58.4984 354.751 Q58.0065 357.558 56.9938 360.683 L51.4962 360.683 Q53.0297 357.732 53.811 354.867 Q54.5633 352.003 54.5633 349.196 Q54.5633 345.434 53.2901 343.409 Q51.9881 341.383 49.6443 341.383 Q47.4742 341.383 46.3168 342.859 Q45.1594 344.306 44.0888 349.254 L43.6548 351.106 Q42.6131 356.054 40.4719 358.253 Q38.3018 360.452 34.5402 360.452 Q29.9685 360.452 27.4801 357.211 Q24.9917 353.97 24.9917 348.01 Q24.9917 345.058 25.4257 342.454 Q25.8597 339.85 26.7278 337.651 Z" fill="#000000" fill-rule="nonzero" fill-opacity="1" /><path clip-path="url(#clip480)" d="M13.1573 314.995 L65.9926 314.995 L65.9926 327.263 L61.8549 327.263 L61.8549 320.348 L17.295 320.348 L17.295 327.263 L13.1573 327.263 L13.1573 314.995 Z" fill="#000000" fill-rule="nonzero" fill-opacity="1" /><polyline clip-path="url(#clip482)" style="stroke:#023eff; stroke-linecap:round; stroke-linejoin:round; stroke-width:5; stroke-opacity:1; fill:none" points="258.234,758.626 265.159,787.753 272.085,823.618 279.011,823.618 285.937,823.618 292.863,787.753 299.788,481.868 306.714,205.379 313.64,130.015 320.566,205.379 327.492,336.166 334.417,336.166 341.343,336.166 348.269,376.348 355.195,459.278 362.121,459.278 369.046,496.004 375.972,459.278 382.898,376.348 389.824,307.259 396.749,272.455 403.675,307.259 410.601,446.72 417.527,533.859 424.453,734.895 431.378,873.774 438.304,873.774 445.23,873.774 452.156,873.774 459.082,734.895 466.007,487.011 472.933,113.966 479.859,113.966 486.785,215.271 493.71,307.143 500.636,377.316 507.562,377.316 514.488,377.316 521.414,440.302 528.339,470.114 535.265,470.114 542.191,440.302 549.117,388.981 556.043,280.112 562.968,280.112 569.894,336.076 576.82,463.724 583.746,571.566 590.671,734.895 597.597,774.366 604.523,862.034 611.449,862.034 618.375,774.366 625.3,734.895 632.226,487.011 639.152,180.383 646.078,113.966 653.004,215.271 659.929,307.143 666.855,377.316 673.781,377.316 680.707,377.316 687.633,440.302 694.558,470.114 701.484,470.114 708.41,440.302 715.336,388.981 722.261,280.112 729.187,280.112 736.113,336.076 743.039,463.724 749.965,571.566 756.89,734.895 763.816,774.366 770.742,774.366 777.668,774.366 784.594,774.366 791.519,742.336 798.445,487.011 805.371,113.966 812.297,113.966 819.222,215.271 826.148,307.143 833.074,377.316 840,377.316 846.926,377.316 853.851,440.302 860.777,470.114 867.703,470.114 874.629,440.302 881.555,388.981 888.48,280.112 895.406,280.112 902.332,336.076 909.258,463.724 916.184,571.566 923.109,742.336 930.035,774.366 936.961,862.034 943.887,862.034 950.812,774.366 957.738,742.336 964.664,487.011 971.59,113.966 978.516,113.966 985.441,215.271 992.367,307.143 999.293,377.316 1006.22,377.316 1013.14,377.316 1020.07,440.302 1027,440.302 1033.92,440.302 1040.85,440.302 1047.77,388.981 1054.7,280.112 1061.63,280.112 1068.55,336.076 1075.48,507.617 1082.4,571.566 1089.33,722.063 1096.25,774.366 1103.18,862.034 1110.11,862.034 1117.03,774.366 1123.96,774.366 1130.88,652.956 1137.81,322.799 1144.73,215.271 1151.66,180.383 1158.59,254.416 1165.51,322.799 1172.44,322.799 1179.36,322.799 1186.29,470.114 1193.22,470.114 1200.14,470.114 1207.07,440.302 1213.99,388.981 1220.92,336.076 1227.84,336.076 1234.77,407.618 1241.7,507.617 1248.62,571.566 1255.55,722.063 1262.47,774.366 1269.4,862.034 1276.32,862.034 1283.25,807.759 1290.18,807.759 1297.1,652.956 1304.03,540.263 1310.95,322.799 1317.88,215.271 1324.8,254.416 1331.73,322.799 1338.66,322.799 1345.58,322.799 1352.51,470.114 1359.43,501.732 1366.36,501.732 1373.29,470.114 1380.21,407.618 1387.14,280.112 1394.06,280.112 1400.99,336.076 1407.91,463.724 1414.84,571.566 "/>
<polyline clip-path="url(#clip482)" style="stroke:#ff7c00; stroke-linecap:round; stroke-linejoin:round; stroke-width:5; stroke-opacity:1; fill:none" points="258.234,724.446 265.159,822.61 272.085,869.031 279.011,869.031 285.937,822.61 292.863,776.478 299.788,500.332 306.714,213.094 313.64,125.124 320.566,213.094 327.492,315.978 334.417,370.983 341.343,370.983 348.269,370.983 355.195,406.3 362.121,452.959 369.046,500.332 375.972,452.959 382.898,370.983 389.824,315.978 396.749,262.503 403.675,315.978 410.601,500.332 417.527,577.607 424.453,754.188 431.378,812.848 438.304,869.031 445.23,869.031 452.156,812.848 459.082,754.188 466.007,500.332 472.933,125.124 479.859,125.124 486.785,213.094 493.71,315.978 500.636,370.983 507.562,370.983 514.488,370.983 521.414,452.959 528.339,452.959 535.265,452.959 542.191,452.959 549.117,370.983 556.043,315.978 562.968,315.978 569.894,370.983 576.82,500.332 583.746,577.607 590.671,754.188 597.597,812.848 604.523,869.031 611.449,869.031 618.375,812.848 625.3,754.188 632.226,452.959 639.152,125.124 646.078,125.124 653.004,213.094 659.929,315.978 666.855,406.3 673.781,370.983 680.707,370.983 687.633,452.959 694.558,500.332 701.484,500.332 708.41,452.959 715.336,370.983 722.261,315.978 729.187,262.503 736.113,315.978 743.039,452.959 749.965,577.607 756.89,666.431 763.816,812.848 770.742,812.848 777.668,812.848 784.594,754.188 791.519,754.188 798.445,452.959 805.371,125.124 812.297,125.124 819.222,213.094 826.148,315.978 833.074,370.983 840,370.983 846.926,370.983 853.851,406.3 860.777,452.959 867.703,500.332 874.629,370.983 881.555,315.978 888.48,262.503 895.406,262.503 902.332,315.978 909.258,452.959 916.184,577.607 923.109,754.188 930.035,812.848 936.961,812.848 943.887,812.848 950.812,812.848 957.738,754.188 964.664,452.959 971.59,125.124 978.516,125.124 985.441,213.094 992.367,370.983 999.293,370.983 1006.22,370.983 1013.14,370.983 1020.07,406.3 1027,452.959 1033.92,452.959 1040.85,406.3 1047.77,370.983 1054.7,315.978 1061.63,315.978 1068.55,370.983 1075.48,500.332 1082.4,577.607 1089.33,666.431 1096.25,754.188 1103.18,812.848 1110.11,869.031 1117.03,812.848 1123.96,754.188 1130.88,577.607 1137.81,370.983 1144.73,213.094 1151.66,125.124 1158.59,213.094 1165.51,315.978 1172.44,370.983 1179.36,370.983 1186.29,452.959 1193.22,500.332 1200.14,452.959 1207.07,406.3 1213.99,370.983 1220.92,315.978 1227.84,315.978 1234.77,406.3 1241.7,500.332 1248.62,577.607 1255.55,666.431 1262.47,754.188 1269.4,812.848 1276.32,812.848 1283.25,812.848 1290.18,754.188 1297.1,666.431 1304.03,500.332 1310.95,315.978 1317.88,213.094 1324.8,213.094 1331.73,315.978 1338.66,315.978 1345.58,406.3 1352.51,500.332 1359.43,500.332 1366.36,500.332 1373.29,452.959 1380.21,370.983 1387.14,315.978 1394.06,262.503 1400.99,315.978 1407.91,406.3 1414.84,500.332 "/>
<polyline clip-path="url(#clip482)" style="stroke:#1ac938; stroke-linecap:round; stroke-linejoin:round; stroke-width:5; stroke-opacity:1; fill:none" points="258.234,717.681 265.159,778.93 272.085,849.488 279.011,849.488 285.937,849.488 292.863,725.699 299.788,476.469 306.714,231.698 313.64,153.21 320.566,306.42 327.492,306.42 334.417,374.334 341.343,346.592 348.269,346.592 355.195,430.436 362.121,452.483 369.046,452.483 375.972,452.483 382.898,374.334 389.824,306.42 396.749,306.42 403.675,306.42 410.601,452.483 417.527,586.736 424.453,717.681 431.378,849.488 438.304,849.488 445.23,849.488 452.156,849.488 459.082,774.091 466.007,529.628 472.933,153.21 479.859,80.9313 486.785,301.068 493.71,341.184 500.636,383.174 507.562,341.184 514.488,383.174 521.414,459.685 528.339,459.685 535.265,459.685 542.191,459.685 549.117,383.174 556.043,301.068 562.968,301.068 569.894,383.174 576.82,459.685 583.746,587.42 590.671,717.681 597.597,774.091 604.523,849.488 611.449,849.488 618.375,774.091 625.3,774.091 632.226,459.685 639.152,153.21 646.078,80.9313 653.004,231.698 659.929,341.184 666.855,383.174 673.781,383.174 680.707,383.174 687.633,459.685 694.558,459.685 701.484,459.685 708.41,459.685 715.336,383.174 722.261,301.068 729.187,231.698 736.113,341.184 743.039,459.685 749.965,587.42 756.89,717.681 763.816,774.091 770.742,774.091 777.668,774.091 784.594,774.091 791.519,774.091 798.445,459.685 805.371,153.21 812.297,153.21 819.222,231.698 826.148,341.184 833.074,383.174 840,341.184 846.926,383.174 853.851,426.121 860.777,459.685 867.703,459.685 874.629,383.174 881.555,341.184 888.48,301.068 895.406,301.068 902.332,341.184 909.258,459.685 916.184,587.42 923.109,717.681 930.035,774.091 936.961,849.488 943.887,849.488 950.812,774.091 957.738,774.091 964.664,459.685 971.59,153.21 978.516,80.9313 985.441,231.698 992.367,341.184 999.293,383.174 1006.22,383.174 1013.14,383.174 1020.07,383.174 1027,459.685 1033.92,459.685 1040.85,426.121 1047.77,383.174 1054.7,301.068 1061.63,301.068 1068.55,383.174 1075.48,529.628 1082.4,587.42 1089.33,717.681 1096.25,774.091 1103.18,849.488 1110.11,849.488 1117.03,774.091 1123.96,774.091 1130.88,587.42 1137.81,383.174 1144.73,231.698 1151.66,153.21 1158.59,231.698 1165.51,301.068 1172.44,341.184 1179.36,341.184 1186.29,459.685 1193.22,459.685 1200.14,459.685 1207.07,426.121 1213.99,341.184 1220.92,301.068 1227.84,341.184 1234.77,426.121 1241.7,529.628 1248.62,587.42 1255.55,717.681 1262.47,774.091 1269.4,849.488 1276.32,849.488 1283.25,774.091 1290.18,774.091 1297.1,587.42 1304.03,529.628 1310.95,341.184 1317.88,231.698 1324.8,231.698 1331.73,301.068 1338.66,341.184 1345.58,426.121 1352.51,459.685 1359.43,529.628 1366.36,529.628 1373.29,459.685 1380.21,383.174 1387.14,301.068 1394.06,301.068 1400.99,341.184 1407.91,426.121 1414.84,529.628 "/>
<polyline clip-path="url(#clip482)" style="stroke:#e8000b; stroke-linecap:round; stroke-linejoin:round; stroke-width:5; stroke-opacity:1; fill:none" points="258.234,724.889 265.159,825.644 272.085,825.644 279.011,825.644 285.937,825.644 292.863,724.889 299.788,461.117 306.714,130.757 313.64,130.757 320.566,258.007 327.492,354.394 334.417,354.394 341.343,354.394 348.269,354.394 355.195,461.117 362.121,461.117 369.046,461.117 375.972,461.117 382.898,354.394 389.824,258.007 396.749,258.007 403.675,258.007 410.601,461.117 417.527,545.087 424.453,692.787 431.378,834.217 438.304,834.217 445.23,834.217 452.156,834.217 459.082,692.787 466.007,513.027 472.933,117.214 479.859,117.214 486.785,355.408 493.71,355.408 500.636,355.408 507.562,355.408 514.488,355.408 521.414,440.567 528.339,440.567 535.265,440.567 542.191,440.567 549.117,342.029 556.043,278.843 562.968,278.843 569.894,342.029 576.82,440.567 583.746,579.381 590.671,692.787 597.597,798.702 604.523,834.217 611.449,834.217 618.375,798.702 625.3,692.787 632.226,440.567 639.152,117.214 646.078,117.214 653.004,225.643 659.929,355.408 666.855,355.408 673.781,355.408 680.707,355.408 687.633,440.567 694.558,440.567 701.484,440.567 708.41,440.567 715.336,342.029 722.261,278.843 729.187,278.843 736.113,278.843 743.039,440.567 749.965,579.381 756.89,692.787 763.816,798.702 770.742,798.702 777.668,798.702 784.594,692.787 791.519,692.787 798.445,480.833 805.371,117.214 812.297,117.214 819.222,225.643 826.148,355.408 833.074,355.408 840,355.408 846.926,355.408 853.851,446.766 860.777,440.567 867.703,440.567 874.629,446.766 881.555,383.08 888.48,278.843 895.406,278.843 902.332,278.843 909.258,440.567 916.184,579.381 923.109,692.787 930.035,798.702 936.961,834.217 943.887,834.217 950.812,798.702 957.738,692.787 964.664,440.567 971.59,117.214 978.516,117.214 985.441,225.643 992.367,355.408 999.293,355.408 1006.22,355.408 1013.14,355.408 1020.07,446.766 1027,440.567 1033.92,440.567 1040.85,446.766 1047.77,342.029 1054.7,278.843 1061.63,278.843 1068.55,342.029 1075.48,513.027 1082.4,579.381 1089.33,692.787 1096.25,692.787 1103.18,834.217 1110.11,834.217 1117.03,798.702 1123.96,692.787 1130.88,579.381 1137.81,355.408 1144.73,225.643 1151.66,117.214 1158.59,225.643 1165.51,355.408 1172.44,355.408 1179.36,355.408 1186.29,440.567 1193.22,440.567 1200.14,440.567 1207.07,446.766 1213.99,342.029 1220.92,278.843 1227.84,278.843 1234.77,342.029 1241.7,513.027 1248.62,579.381 1255.55,692.787 1262.47,692.787 1269.4,834.217 1276.32,834.217 1283.25,798.702 1290.18,692.787 1297.1,692.787 1304.03,513.027 1310.95,355.408 1317.88,225.643 1324.8,225.643 1331.73,355.408 1338.66,355.408 1345.58,355.408 1352.51,440.567 1359.43,513.027 1366.36,513.027 1373.29,440.567 1380.21,342.029 1387.14,278.843 1394.06,278.843 1400.99,278.843 1407.91,342.029 1414.84,513.027 "/>
<polyline clip-path="url(#clip482)" style="stroke:#000000; stroke-linecap:round; stroke-linejoin:round; stroke-width:6; stroke-opacity:1; fill:none" points="258.234,679.936 265.159,782.057 272.085,817.526 279.011,832.776 285.937,786.341 292.863,729.969 299.788,476.035 306.714,116.896 313.64,105.415 320.566,195.543 327.492,303.833 334.417,384.023 341.343,363.633 348.269,381.624 355.195,419.662 362.121,479.633 369.046,448.791 375.972,396.188 382.898,313.428 389.824,218.332 396.749,139.17 403.675,283.786 410.601,432.513 417.527,557.767 424.453,689.874 431.378,774.69 438.304,811.186 445.23,811.186 452.156,760.639 459.082,700.669 466.007,432.513 472.933,71.3178 479.859,110.556 486.785,222.273 493.71,313.428 500.636,350.439 507.562,369.116 514.488,339.473 521.414,428.915 528.339,439.539 535.265,450.162 542.191,448.277 549.117,387.107 556.043,284.3 562.968,227.756 569.894,313.257 576.82,442.28 583.746,549.199 590.671,717.289 597.597,791.31 604.523,820.781 611.449,832.262 618.375,805.018 625.3,734.938 632.226,482.032 639.152,108.671 646.078,80.5704 653.004,241.121 659.929,331.762 666.855,352.152 673.781,350.268 680.707,353.352 687.633,415.722 694.558,337.245 701.484,319.083 708.41,342.557 715.336,307.431 722.261,229.469 729.187,217.304 736.113,327.479 743.039,468.667 749.965,588.095 756.89,708.722 763.816,780.858 770.742,817.355 777.668,816.327 784.594,781.201 791.519,702.896 798.445,461.471 805.371,127.176 812.297,109.87 819.222,225.871 826.148,336.217 833.074,371.172 840,354.723 846.926,361.919 853.851,440.224 860.777,457.016 867.703,443.822 874.629,405.955 881.555,316.341 888.48,230.84 895.406,247.632 902.332,289.954 909.258,461.813 916.184,556.567 923.109,708.55 930.035,783.428 936.961,818.211 943.887,811.529 950.812,801.419 957.738,724.828 964.664,446.735 971.59,109.699 978.516,74.7447 985.441,192.973 992.367,309.488 999.293,340.672 1006.22,370.144 1013.14,348.897 1020.07,405.784 1027,435.255 1033.92,401.5 1040.85,379.91 1047.77,327.821 1054.7,259.626 1061.63,257.57 1068.55,360.548 1075.48,502.251 1082.4,577.3 1089.33,682.677 1096.25,744.533 1103.18,785.484 1110.11,771.605 1117.03,773.49 1123.96,730.483 1130.88,553.483 1137.81,362.776 1144.73,201.026 1151.66,126.148 1158.59,194.515 1165.51,285.157 1172.44,319.426 1179.36,352.838 1186.29,413.494 1193.22,448.791 1200.14,453.075 1207.07,404.584 1213.99,326.108 1220.92,259.455 1227.84,279.845 1234.77,381.281 1241.7,506.877 1248.62,572.674 1255.55,648.58 1262.47,721.915 1269.4,770.406 1276.32,774.518 1283.25,769.549 1290.18,740.078 1297.1,615.167 1304.03,453.589 1310.95,268.365 1317.88,158.19 1324.8,126.32 1331.73,225.014 1338.66,308.631 1345.58,339.644 1352.51,429.601 1359.43,450.505 1366.36,422.918 1373.29,401.671 1380.21,314.628 1387.14,223.301 1394.06,238.037 1400.99,280.359 1407.91,409.039 1414.84,520.927 "/>
<path clip-path="url(#clip480)" d="M1507.18 425.518 L1952.76 425.518 L1952.76 75.5976 L1507.18 75.5976  Z" fill="#ffffff" fill-rule="evenodd" fill-opacity="1"/>
<polyline clip-path="url(#clip480)" style="stroke:#000000; stroke-linecap:round; stroke-linejoin:round; stroke-width:4; stroke-opacity:1; fill:none" points="1507.18,425.518 1952.76,425.518 1952.76,75.5976 1507.18,75.5976 1507.18,425.518 "/>
<polyline clip-path="url(#clip480)" style="stroke:#023eff; stroke-linecap:round; stroke-linejoin:round; stroke-width:5.625; stroke-opacity:1; fill:none" points="1526.39,133.918 1641.67,133.918 "/>
<path clip-path="url(#clip480)" d="M1665.71 148.983 L1665.71 164.451 L1660.89 164.451 L1660.89 124.191 L1665.71 124.191 L1665.71 128.618 Q1667.22 126.014 1669.51 124.764 Q1671.82 123.488 1675.03 123.488 Q1680.34 123.488 1683.65 127.707 Q1686.98 131.925 1686.98 138.8 Q1686.98 145.675 1683.65 149.894 Q1680.34 154.113 1675.03 154.113 Q1671.82 154.113 1669.51 152.863 Q1667.22 151.587 1665.71 148.983 M1682.01 138.8 Q1682.01 133.514 1679.82 130.519 Q1677.66 127.498 1673.86 127.498 Q1670.05 127.498 1667.87 130.519 Q1665.71 133.514 1665.71 138.8 Q1665.71 144.087 1667.87 147.108 Q1670.05 150.102 1673.86 150.102 Q1677.66 150.102 1679.82 147.108 Q1682.01 144.087 1682.01 138.8 Z" fill="#000000" fill-rule="nonzero" fill-opacity="1" /><path clip-path="url(#clip480)" d="M1711.82 128.67 Q1711.02 128.201 1710.05 127.993 Q1709.12 127.759 1707.97 127.759 Q1703.91 127.759 1701.72 130.415 Q1699.56 133.045 1699.56 137.993 L1699.56 153.358 L1694.74 153.358 L1694.74 124.191 L1699.56 124.191 L1699.56 128.722 Q1701.07 126.066 1703.49 124.79 Q1705.91 123.488 1709.38 123.488 Q1709.87 123.488 1710.47 123.566 Q1711.07 123.618 1711.8 123.748 L1711.82 128.67 Z" fill="#000000" fill-rule="nonzero" fill-opacity="1" /><path clip-path="url(#clip480)" d="M1740.63 137.576 L1740.63 139.92 L1718.6 139.92 Q1718.91 144.868 1721.56 147.472 Q1724.25 150.05 1729.01 150.05 Q1731.77 150.05 1734.35 149.373 Q1736.95 148.696 1739.51 147.342 L1739.51 151.873 Q1736.93 152.967 1734.22 153.54 Q1731.51 154.113 1728.73 154.113 Q1721.75 154.113 1717.66 150.05 Q1713.6 145.988 1713.6 139.061 Q1713.6 131.899 1717.45 127.707 Q1721.33 123.488 1727.89 123.488 Q1733.78 123.488 1737.19 127.29 Q1740.63 131.066 1740.63 137.576 M1735.84 136.17 Q1735.78 132.238 1733.62 129.894 Q1731.49 127.55 1727.94 127.55 Q1723.93 127.55 1721.51 129.816 Q1719.12 132.082 1718.75 136.196 L1735.84 136.17 Z" fill="#000000" fill-rule="nonzero" fill-opacity="1" /><path clip-path="url(#clip480)" d="M1767.68 128.618 L1767.68 112.837 L1772.48 112.837 L1772.48 153.358 L1767.68 153.358 L1767.68 148.983 Q1766.17 151.587 1763.86 152.863 Q1761.56 154.113 1758.33 154.113 Q1753.05 154.113 1749.72 149.894 Q1746.41 145.675 1746.41 138.8 Q1746.41 131.925 1749.72 127.707 Q1753.05 123.488 1758.33 123.488 Q1761.56 123.488 1763.86 124.764 Q1766.17 126.014 1767.68 128.618 M1751.36 138.8 Q1751.36 144.087 1753.52 147.108 Q1755.7 150.102 1759.51 150.102 Q1763.31 150.102 1765.5 147.108 Q1767.68 144.087 1767.68 138.8 Q1767.68 133.514 1765.5 130.519 Q1763.31 127.498 1759.51 127.498 Q1755.7 127.498 1753.52 130.519 Q1751.36 133.514 1751.36 138.8 Z" fill="#000000" fill-rule="nonzero" fill-opacity="1" /><path clip-path="url(#clip480)" d="M1782.35 124.191 L1787.14 124.191 L1787.14 153.358 L1782.35 153.358 L1782.35 124.191 M1782.35 112.837 L1787.14 112.837 L1787.14 118.905 L1782.35 118.905 L1782.35 112.837 Z" fill="#000000" fill-rule="nonzero" fill-opacity="1" /><path clip-path="url(#clip480)" d="M1818.15 125.311 L1818.15 129.79 Q1816.12 128.67 1814.06 128.123 Q1812.03 127.55 1809.95 127.55 Q1805.29 127.55 1802.71 130.519 Q1800.13 133.462 1800.13 138.8 Q1800.13 144.139 1802.71 147.108 Q1805.29 150.05 1809.95 150.05 Q1812.03 150.05 1814.06 149.503 Q1816.12 148.93 1818.15 147.811 L1818.15 152.238 Q1816.15 153.175 1813.99 153.644 Q1811.85 154.113 1809.43 154.113 Q1802.84 154.113 1798.96 149.972 Q1795.08 145.832 1795.08 138.8 Q1795.08 131.665 1798.99 127.576 Q1802.92 123.488 1809.74 123.488 Q1811.95 123.488 1814.06 123.957 Q1816.17 124.399 1818.15 125.311 Z" fill="#000000" fill-rule="nonzero" fill-opacity="1" /><path clip-path="url(#clip480)" d="M1831.23 115.91 L1831.23 124.191 L1841.09 124.191 L1841.09 127.915 L1831.23 127.915 L1831.23 143.748 Q1831.23 147.316 1832.19 148.332 Q1833.18 149.347 1836.17 149.347 L1841.09 149.347 L1841.09 153.358 L1836.17 153.358 Q1830.63 153.358 1828.52 151.3 Q1826.41 149.217 1826.41 143.748 L1826.41 127.915 L1822.89 127.915 L1822.89 124.191 L1826.41 124.191 L1826.41 115.91 L1831.23 115.91 Z" fill="#000000" fill-rule="nonzero" fill-opacity="1" /><path clip-path="url(#clip480)" d="M1869.56 162.212 L1869.56 165.936 L1841.85 165.936 L1841.85 162.212 L1869.56 162.212 Z" fill="#000000" fill-rule="nonzero" fill-opacity="1" /><path clip-path="url(#clip480)" d="M1874.79 114.478 L1895.44 114.478 L1895.44 118.905 L1879.61 118.905 L1879.61 128.436 Q1880.76 128.045 1881.9 127.863 Q1883.05 127.655 1884.19 127.655 Q1890.7 127.655 1894.51 131.222 Q1898.31 134.79 1898.31 140.884 Q1898.31 147.16 1894.4 150.649 Q1890.5 154.113 1883.39 154.113 Q1880.94 154.113 1878.39 153.696 Q1875.86 153.279 1873.15 152.446 L1873.15 147.16 Q1875.5 148.436 1878 149.061 Q1880.5 149.686 1883.28 149.686 Q1887.79 149.686 1890.42 147.316 Q1893.05 144.946 1893.05 140.884 Q1893.05 136.821 1890.42 134.451 Q1887.79 132.082 1883.28 132.082 Q1881.17 132.082 1879.06 132.55 Q1876.98 133.019 1874.79 134.009 L1874.79 114.478 Z" fill="#000000" fill-rule="nonzero" fill-opacity="1" /><path clip-path="url(#clip480)" d="M1913.2 148.93 L1931.56 148.93 L1931.56 153.358 L1906.88 153.358 L1906.88 148.93 Q1909.87 145.832 1915.03 140.623 Q1920.21 135.389 1921.54 133.878 Q1924.06 131.04 1925.05 129.087 Q1926.07 127.108 1926.07 125.207 Q1926.07 122.108 1923.88 120.155 Q1921.72 118.201 1918.23 118.201 Q1915.76 118.201 1913 119.061 Q1910.26 119.92 1907.14 121.665 L1907.14 116.353 Q1910.31 115.077 1913.07 114.425 Q1915.83 113.774 1918.13 113.774 Q1924.17 113.774 1927.76 116.795 Q1931.35 119.816 1931.35 124.868 Q1931.35 127.264 1930.44 129.425 Q1929.56 131.561 1927.19 134.477 Q1926.54 135.233 1923.05 138.852 Q1919.56 142.446 1913.2 148.93 Z" fill="#000000" fill-rule="nonzero" fill-opacity="1" /><polyline clip-path="url(#clip480)" style="stroke:#ff7c00; stroke-linecap:round; stroke-linejoin:round; stroke-width:5.625; stroke-opacity:1; fill:none" points="1526.39,192.238 1641.67,192.238 "/>
<path clip-path="url(#clip480)" d="M1665.71 207.303 L1665.71 222.771 L1660.89 222.771 L1660.89 182.511 L1665.71 182.511 L1665.71 186.938 Q1667.22 184.334 1669.51 183.084 Q1671.82 181.808 1675.03 181.808 Q1680.34 181.808 1683.65 186.027 Q1686.98 190.245 1686.98 197.12 Q1686.98 203.995 1683.65 208.214 Q1680.34 212.433 1675.03 212.433 Q1671.82 212.433 1669.51 211.183 Q1667.22 209.907 1665.71 207.303 M1682.01 197.12 Q1682.01 191.834 1679.82 188.839 Q1677.66 185.818 1673.86 185.818 Q1670.05 185.818 1667.87 188.839 Q1665.71 191.834 1665.71 197.12 Q1665.71 202.407 1667.87 205.428 Q1670.05 208.422 1673.86 208.422 Q1677.66 208.422 1679.82 205.428 Q1682.01 202.407 1682.01 197.12 Z" fill="#000000" fill-rule="nonzero" fill-opacity="1" /><path clip-path="url(#clip480)" d="M1711.82 186.99 Q1711.02 186.521 1710.05 186.313 Q1709.12 186.079 1707.97 186.079 Q1703.91 186.079 1701.72 188.735 Q1699.56 191.365 1699.56 196.313 L1699.56 211.678 L1694.74 211.678 L1694.74 182.511 L1699.56 182.511 L1699.56 187.042 Q1701.07 184.386 1703.49 183.11 Q1705.91 181.808 1709.38 181.808 Q1709.87 181.808 1710.47 181.886 Q1711.07 181.938 1711.8 182.068 L1711.82 186.99 Z" fill="#000000" fill-rule="nonzero" fill-opacity="1" /><path clip-path="url(#clip480)" d="M1740.63 195.896 L1740.63 198.24 L1718.6 198.24 Q1718.91 203.188 1721.56 205.792 Q1724.25 208.37 1729.01 208.37 Q1731.77 208.37 1734.35 207.693 Q1736.95 207.016 1739.51 205.662 L1739.51 210.193 Q1736.93 211.287 1734.22 211.86 Q1731.51 212.433 1728.73 212.433 Q1721.75 212.433 1717.66 208.37 Q1713.6 204.308 1713.6 197.381 Q1713.6 190.219 1717.45 186.027 Q1721.33 181.808 1727.89 181.808 Q1733.78 181.808 1737.19 185.61 Q1740.63 189.386 1740.63 195.896 M1735.84 194.49 Q1735.78 190.558 1733.62 188.214 Q1731.49 185.87 1727.94 185.87 Q1723.93 185.87 1721.51 188.136 Q1719.12 190.402 1718.75 194.516 L1735.84 194.49 Z" fill="#000000" fill-rule="nonzero" fill-opacity="1" /><path clip-path="url(#clip480)" d="M1767.68 186.938 L1767.68 171.157 L1772.48 171.157 L1772.48 211.678 L1767.68 211.678 L1767.68 207.303 Q1766.17 209.907 1763.86 211.183 Q1761.56 212.433 1758.33 212.433 Q1753.05 212.433 1749.72 208.214 Q1746.41 203.995 1746.41 197.12 Q1746.41 190.245 1749.72 186.027 Q1753.05 181.808 1758.33 181.808 Q1761.56 181.808 1763.86 183.084 Q1766.17 184.334 1767.68 186.938 M1751.36 197.12 Q1751.36 202.407 1753.52 205.428 Q1755.7 208.422 1759.51 208.422 Q1763.31 208.422 1765.5 205.428 Q1767.68 202.407 1767.68 197.12 Q1767.68 191.834 1765.5 188.839 Q1763.31 185.818 1759.51 185.818 Q1755.7 185.818 1753.52 188.839 Q1751.36 191.834 1751.36 197.12 Z" fill="#000000" fill-rule="nonzero" fill-opacity="1" /><path clip-path="url(#clip480)" d="M1782.35 182.511 L1787.14 182.511 L1787.14 211.678 L1782.35 211.678 L1782.35 182.511 M1782.35 171.157 L1787.14 171.157 L1787.14 177.225 L1782.35 177.225 L1782.35 171.157 Z" fill="#000000" fill-rule="nonzero" fill-opacity="1" /><path clip-path="url(#clip480)" d="M1818.15 183.631 L1818.15 188.11 Q1816.12 186.99 1814.06 186.443 Q1812.03 185.87 1809.95 185.87 Q1805.29 185.87 1802.71 188.839 Q1800.13 191.782 1800.13 197.12 Q1800.13 202.459 1802.71 205.428 Q1805.29 208.37 1809.95 208.37 Q1812.03 208.37 1814.06 207.823 Q1816.12 207.25 1818.15 206.131 L1818.15 210.558 Q1816.15 211.495 1813.99 211.964 Q1811.85 212.433 1809.43 212.433 Q1802.84 212.433 1798.96 208.292 Q1795.08 204.152 1795.08 197.12 Q1795.08 189.985 1798.99 185.896 Q1802.92 181.808 1809.74 181.808 Q1811.95 181.808 1814.06 182.277 Q1816.17 182.719 1818.15 183.631 Z" fill="#000000" fill-rule="nonzero" fill-opacity="1" /><path clip-path="url(#clip480)" d="M1831.23 174.23 L1831.23 182.511 L1841.09 182.511 L1841.09 186.235 L1831.23 186.235 L1831.23 202.068 Q1831.23 205.636 1832.19 206.652 Q1833.18 207.667 1836.17 207.667 L1841.09 207.667 L1841.09 211.678 L1836.17 211.678 Q1830.63 211.678 1828.52 209.62 Q1826.41 207.537 1826.41 202.068 L1826.41 186.235 L1822.89 186.235 L1822.89 182.511 L1826.41 182.511 L1826.41 174.23 L1831.23 174.23 Z" fill="#000000" fill-rule="nonzero" fill-opacity="1" /><path clip-path="url(#clip480)" d="M1869.56 220.532 L1869.56 224.256 L1841.85 224.256 L1841.85 220.532 L1869.56 220.532 Z" fill="#000000" fill-rule="nonzero" fill-opacity="1" /><path clip-path="url(#clip480)" d="M1879.27 207.25 L1897.63 207.25 L1897.63 211.678 L1872.94 211.678 L1872.94 207.25 Q1875.94 204.152 1881.09 198.943 Q1886.28 193.709 1887.61 192.198 Q1890.13 189.36 1891.12 187.407 Q1892.14 185.428 1892.14 183.527 Q1892.14 180.428 1889.95 178.475 Q1887.79 176.521 1884.3 176.521 Q1881.82 176.521 1879.06 177.381 Q1876.33 178.24 1873.2 179.985 L1873.2 174.673 Q1876.38 173.397 1879.14 172.745 Q1881.9 172.094 1884.19 172.094 Q1890.24 172.094 1893.83 175.115 Q1897.42 178.136 1897.42 183.188 Q1897.42 185.584 1896.51 187.745 Q1895.63 189.881 1893.26 192.797 Q1892.61 193.553 1889.12 197.172 Q1885.63 200.766 1879.27 207.25 Z" fill="#000000" fill-rule="nonzero" fill-opacity="1" /><path clip-path="url(#clip480)" d="M1920.57 190.141 Q1917.03 190.141 1914.95 192.563 Q1912.89 194.985 1912.89 199.204 Q1912.89 203.396 1914.95 205.844 Q1917.03 208.266 1920.57 208.266 Q1924.12 208.266 1926.17 205.844 Q1928.26 203.396 1928.26 199.204 Q1928.26 194.985 1926.17 192.563 Q1924.12 190.141 1920.57 190.141 M1931.02 173.657 L1931.02 178.449 Q1929.04 177.511 1927.01 177.016 Q1925 176.521 1923.02 176.521 Q1917.81 176.521 1915.05 180.037 Q1912.32 183.553 1911.93 190.662 Q1913.46 188.396 1915.78 187.199 Q1918.1 185.975 1920.89 185.975 Q1926.75 185.975 1930.13 189.542 Q1933.54 193.084 1933.54 199.204 Q1933.54 205.193 1930 208.813 Q1926.46 212.433 1920.57 212.433 Q1913.83 212.433 1910.26 207.277 Q1906.69 202.094 1906.69 192.277 Q1906.69 183.058 1911.07 177.589 Q1915.44 172.094 1922.81 172.094 Q1924.79 172.094 1926.8 172.485 Q1928.83 172.876 1931.02 173.657 Z" fill="#000000" fill-rule="nonzero" fill-opacity="1" /><polyline clip-path="url(#clip480)" style="stroke:#1ac938; stroke-linecap:round; stroke-linejoin:round; stroke-width:5.625; stroke-opacity:1; fill:none" points="1526.39,250.558 1641.67,250.558 "/>
<path clip-path="url(#clip480)" d="M1665.71 265.623 L1665.71 281.091 L1660.89 281.091 L1660.89 240.831 L1665.71 240.831 L1665.71 245.258 Q1667.22 242.654 1669.51 241.404 Q1671.82 240.128 1675.03 240.128 Q1680.34 240.128 1683.65 244.347 Q1686.98 248.565 1686.98 255.44 Q1686.98 262.315 1683.65 266.534 Q1680.34 270.753 1675.03 270.753 Q1671.82 270.753 1669.51 269.503 Q1667.22 268.227 1665.71 265.623 M1682.01 255.44 Q1682.01 250.154 1679.82 247.159 Q1677.66 244.138 1673.86 244.138 Q1670.05 244.138 1667.87 247.159 Q1665.71 250.154 1665.71 255.44 Q1665.71 260.727 1667.87 263.748 Q1670.05 266.742 1673.86 266.742 Q1677.66 266.742 1679.82 263.748 Q1682.01 260.727 1682.01 255.44 Z" fill="#000000" fill-rule="nonzero" fill-opacity="1" /><path clip-path="url(#clip480)" d="M1711.82 245.31 Q1711.02 244.841 1710.05 244.633 Q1709.12 244.399 1707.97 244.399 Q1703.91 244.399 1701.72 247.055 Q1699.56 249.685 1699.56 254.633 L1699.56 269.998 L1694.74 269.998 L1694.74 240.831 L1699.56 240.831 L1699.56 245.362 Q1701.07 242.706 1703.49 241.43 Q1705.91 240.128 1709.38 240.128 Q1709.87 240.128 1710.47 240.206 Q1711.07 240.258 1711.8 240.388 L1711.82 245.31 Z" fill="#000000" fill-rule="nonzero" fill-opacity="1" /><path clip-path="url(#clip480)" d="M1740.63 254.216 L1740.63 256.56 L1718.6 256.56 Q1718.91 261.508 1721.56 264.112 Q1724.25 266.69 1729.01 266.69 Q1731.77 266.69 1734.35 266.013 Q1736.95 265.336 1739.51 263.982 L1739.51 268.513 Q1736.93 269.607 1734.22 270.18 Q1731.51 270.753 1728.73 270.753 Q1721.75 270.753 1717.66 266.69 Q1713.6 262.628 1713.6 255.701 Q1713.6 248.539 1717.45 244.347 Q1721.33 240.128 1727.89 240.128 Q1733.78 240.128 1737.19 243.93 Q1740.63 247.706 1740.63 254.216 M1735.84 252.81 Q1735.78 248.878 1733.62 246.534 Q1731.49 244.19 1727.94 244.19 Q1723.93 244.19 1721.51 246.456 Q1719.12 248.722 1718.75 252.836 L1735.84 252.81 Z" fill="#000000" fill-rule="nonzero" fill-opacity="1" /><path clip-path="url(#clip480)" d="M1767.68 245.258 L1767.68 229.477 L1772.48 229.477 L1772.48 269.998 L1767.68 269.998 L1767.68 265.623 Q1766.17 268.227 1763.86 269.503 Q1761.56 270.753 1758.33 270.753 Q1753.05 270.753 1749.72 266.534 Q1746.41 262.315 1746.41 255.44 Q1746.41 248.565 1749.72 244.347 Q1753.05 240.128 1758.33 240.128 Q1761.56 240.128 1763.86 241.404 Q1766.17 242.654 1767.68 245.258 M1751.36 255.44 Q1751.36 260.727 1753.52 263.748 Q1755.7 266.742 1759.51 266.742 Q1763.31 266.742 1765.5 263.748 Q1767.68 260.727 1767.68 255.44 Q1767.68 250.154 1765.5 247.159 Q1763.31 244.138 1759.51 244.138 Q1755.7 244.138 1753.52 247.159 Q1751.36 250.154 1751.36 255.44 Z" fill="#000000" fill-rule="nonzero" fill-opacity="1" /><path clip-path="url(#clip480)" d="M1782.35 240.831 L1787.14 240.831 L1787.14 269.998 L1782.35 269.998 L1782.35 240.831 M1782.35 229.477 L1787.14 229.477 L1787.14 235.545 L1782.35 235.545 L1782.35 229.477 Z" fill="#000000" fill-rule="nonzero" fill-opacity="1" /><path clip-path="url(#clip480)" d="M1818.15 241.951 L1818.15 246.43 Q1816.12 245.31 1814.06 244.763 Q1812.03 244.19 1809.95 244.19 Q1805.29 244.19 1802.71 247.159 Q1800.13 250.102 1800.13 255.44 Q1800.13 260.779 1802.71 263.748 Q1805.29 266.69 1809.95 266.69 Q1812.03 266.69 1814.06 266.143 Q1816.12 265.57 1818.15 264.451 L1818.15 268.878 Q1816.15 269.815 1813.99 270.284 Q1811.85 270.753 1809.43 270.753 Q1802.84 270.753 1798.96 266.612 Q1795.08 262.472 1795.08 255.44 Q1795.08 248.305 1798.99 244.216 Q1802.92 240.128 1809.74 240.128 Q1811.95 240.128 1814.06 240.597 Q1816.17 241.039 1818.15 241.951 Z" fill="#000000" fill-rule="nonzero" fill-opacity="1" /><path clip-path="url(#clip480)" d="M1831.23 232.55 L1831.23 240.831 L1841.09 240.831 L1841.09 244.555 L1831.23 244.555 L1831.23 260.388 Q1831.23 263.956 1832.19 264.972 Q1833.18 265.987 1836.17 265.987 L1841.09 265.987 L1841.09 269.998 L1836.17 269.998 Q1830.63 269.998 1828.52 267.94 Q1826.41 265.857 1826.41 260.388 L1826.41 244.555 L1822.89 244.555 L1822.89 240.831 L1826.41 240.831 L1826.41 232.55 L1831.23 232.55 Z" fill="#000000" fill-rule="nonzero" fill-opacity="1" /><path clip-path="url(#clip480)" d="M1869.56 278.852 L1869.56 282.576 L1841.85 282.576 L1841.85 278.852 L1869.56 278.852 Z" fill="#000000" fill-rule="nonzero" fill-opacity="1" /><path clip-path="url(#clip480)" d="M1889.19 235.701 L1875.91 256.456 L1889.19 256.456 L1889.19 235.701 M1887.81 231.118 L1894.43 231.118 L1894.43 256.456 L1899.97 256.456 L1899.97 260.831 L1894.43 260.831 L1894.43 269.998 L1889.19 269.998 L1889.19 260.831 L1871.64 260.831 L1871.64 255.753 L1887.81 231.118 Z" fill="#000000" fill-rule="nonzero" fill-opacity="1" /><polyline clip-path="url(#clip480)" style="stroke:#e8000b; stroke-linecap:round; stroke-linejoin:round; stroke-width:5.625; stroke-opacity:1; fill:none" points="1526.39,308.878 1641.67,308.878 "/>
<path clip-path="url(#clip480)" d="M1665.71 323.943 L1665.71 339.411 L1660.89 339.411 L1660.89 299.151 L1665.71 299.151 L1665.71 303.578 Q1667.22 300.974 1669.51 299.724 Q1671.82 298.448 1675.03 298.448 Q1680.34 298.448 1683.65 302.667 Q1686.98 306.885 1686.98 313.76 Q1686.98 320.635 1683.65 324.854 Q1680.34 329.073 1675.03 329.073 Q1671.82 329.073 1669.51 327.823 Q1667.22 326.547 1665.71 323.943 M1682.01 313.76 Q1682.01 308.474 1679.82 305.479 Q1677.66 302.458 1673.86 302.458 Q1670.05 302.458 1667.87 305.479 Q1665.71 308.474 1665.71 313.76 Q1665.71 319.047 1667.87 322.068 Q1670.05 325.062 1673.86 325.062 Q1677.66 325.062 1679.82 322.068 Q1682.01 319.047 1682.01 313.76 Z" fill="#000000" fill-rule="nonzero" fill-opacity="1" /><path clip-path="url(#clip480)" d="M1711.82 303.63 Q1711.02 303.161 1710.05 302.953 Q1709.12 302.719 1707.97 302.719 Q1703.91 302.719 1701.72 305.375 Q1699.56 308.005 1699.56 312.953 L1699.56 328.318 L1694.74 328.318 L1694.74 299.151 L1699.56 299.151 L1699.56 303.682 Q1701.07 301.026 1703.49 299.75 Q1705.91 298.448 1709.38 298.448 Q1709.87 298.448 1710.47 298.526 Q1711.07 298.578 1711.8 298.708 L1711.82 303.63 Z" fill="#000000" fill-rule="nonzero" fill-opacity="1" /><path clip-path="url(#clip480)" d="M1740.63 312.536 L1740.63 314.88 L1718.6 314.88 Q1718.91 319.828 1721.56 322.432 Q1724.25 325.01 1729.01 325.01 Q1731.77 325.01 1734.35 324.333 Q1736.95 323.656 1739.51 322.302 L1739.51 326.833 Q1736.93 327.927 1734.22 328.5 Q1731.51 329.073 1728.73 329.073 Q1721.75 329.073 1717.66 325.01 Q1713.6 320.948 1713.6 314.021 Q1713.6 306.859 1717.45 302.667 Q1721.33 298.448 1727.89 298.448 Q1733.78 298.448 1737.19 302.25 Q1740.63 306.026 1740.63 312.536 M1735.84 311.13 Q1735.78 307.198 1733.62 304.854 Q1731.49 302.51 1727.94 302.51 Q1723.93 302.51 1721.51 304.776 Q1719.12 307.042 1718.75 311.156 L1735.84 311.13 Z" fill="#000000" fill-rule="nonzero" fill-opacity="1" /><path clip-path="url(#clip480)" d="M1767.68 303.578 L1767.68 287.797 L1772.48 287.797 L1772.48 328.318 L1767.68 328.318 L1767.68 323.943 Q1766.17 326.547 1763.86 327.823 Q1761.56 329.073 1758.33 329.073 Q1753.05 329.073 1749.72 324.854 Q1746.41 320.635 1746.41 313.76 Q1746.41 306.885 1749.72 302.667 Q1753.05 298.448 1758.33 298.448 Q1761.56 298.448 1763.86 299.724 Q1766.17 300.974 1767.68 303.578 M1751.36 313.76 Q1751.36 319.047 1753.52 322.068 Q1755.7 325.062 1759.51 325.062 Q1763.31 325.062 1765.5 322.068 Q1767.68 319.047 1767.68 313.76 Q1767.68 308.474 1765.5 305.479 Q1763.31 302.458 1759.51 302.458 Q1755.7 302.458 1753.52 305.479 Q1751.36 308.474 1751.36 313.76 Z" fill="#000000" fill-rule="nonzero" fill-opacity="1" /><path clip-path="url(#clip480)" d="M1782.35 299.151 L1787.14 299.151 L1787.14 328.318 L1782.35 328.318 L1782.35 299.151 M1782.35 287.797 L1787.14 287.797 L1787.14 293.865 L1782.35 293.865 L1782.35 287.797 Z" fill="#000000" fill-rule="nonzero" fill-opacity="1" /><path clip-path="url(#clip480)" d="M1818.15 300.271 L1818.15 304.75 Q1816.12 303.63 1814.06 303.083 Q1812.03 302.51 1809.95 302.51 Q1805.29 302.51 1802.71 305.479 Q1800.13 308.422 1800.13 313.76 Q1800.13 319.099 1802.71 322.068 Q1805.29 325.01 1809.95 325.01 Q1812.03 325.01 1814.06 324.463 Q1816.12 323.89 1818.15 322.771 L1818.15 327.198 Q1816.15 328.135 1813.99 328.604 Q1811.85 329.073 1809.43 329.073 Q1802.84 329.073 1798.96 324.932 Q1795.08 320.792 1795.08 313.76 Q1795.08 306.625 1798.99 302.536 Q1802.92 298.448 1809.74 298.448 Q1811.95 298.448 1814.06 298.917 Q1816.17 299.359 1818.15 300.271 Z" fill="#000000" fill-rule="nonzero" fill-opacity="1" /><path clip-path="url(#clip480)" d="M1831.23 290.87 L1831.23 299.151 L1841.09 299.151 L1841.09 302.875 L1831.23 302.875 L1831.23 318.708 Q1831.23 322.276 1832.19 323.292 Q1833.18 324.307 1836.17 324.307 L1841.09 324.307 L1841.09 328.318 L1836.17 328.318 Q1830.63 328.318 1828.52 326.26 Q1826.41 324.177 1826.41 318.708 L1826.41 302.875 L1822.89 302.875 L1822.89 299.151 L1826.41 299.151 L1826.41 290.87 L1831.23 290.87 Z" fill="#000000" fill-rule="nonzero" fill-opacity="1" /><path clip-path="url(#clip480)" d="M1869.56 337.172 L1869.56 340.896 L1841.85 340.896 L1841.85 337.172 L1869.56 337.172 Z" fill="#000000" fill-rule="nonzero" fill-opacity="1" /><path clip-path="url(#clip480)" d="M1875.65 323.89 L1884.25 323.89 L1884.25 294.229 L1874.9 296.104 L1874.9 291.313 L1884.19 289.438 L1889.45 289.438 L1889.45 323.89 L1898.05 323.89 L1898.05 328.318 L1875.65 328.318 L1875.65 323.89 Z" fill="#000000" fill-rule="nonzero" fill-opacity="1" /><polyline clip-path="url(#clip480)" style="stroke:#000000; stroke-linecap:round; stroke-linejoin:round; stroke-width:6.75; stroke-opacity:1; fill:none" points="1526.39,367.198 1641.67,367.198 "/>
<path clip-path="url(#clip480)" d="M1675.97 371.976 Q1670.16 371.976 1667.92 373.304 Q1665.68 374.632 1665.68 377.836 Q1665.68 380.388 1667.35 381.898 Q1669.04 383.382 1671.93 383.382 Q1675.91 383.382 1678.31 380.57 Q1680.73 377.731 1680.73 373.044 L1680.73 371.976 L1675.97 371.976 M1685.52 369.997 L1685.52 386.638 L1680.73 386.638 L1680.73 382.21 Q1679.09 384.867 1676.64 386.143 Q1674.19 387.393 1670.65 387.393 Q1666.17 387.393 1663.52 384.893 Q1660.89 382.367 1660.89 378.148 Q1660.89 373.226 1664.17 370.726 Q1667.48 368.226 1674.01 368.226 L1680.73 368.226 L1680.73 367.757 Q1680.73 364.45 1678.54 362.653 Q1676.38 360.83 1672.45 360.83 Q1669.95 360.83 1667.58 361.429 Q1665.21 362.028 1663.02 363.226 L1663.02 358.799 Q1665.65 357.784 1668.13 357.289 Q1670.6 356.768 1672.94 356.768 Q1679.27 356.768 1682.4 360.049 Q1685.52 363.33 1685.52 369.997 Z" fill="#000000" fill-rule="nonzero" fill-opacity="1" /><path clip-path="url(#clip480)" d="M1716.38 358.591 L1716.38 363.07 Q1714.35 361.95 1712.29 361.403 Q1710.26 360.83 1708.18 360.83 Q1703.52 360.83 1700.94 363.799 Q1698.36 366.742 1698.36 372.08 Q1698.36 377.419 1700.94 380.388 Q1703.52 383.33 1708.18 383.33 Q1710.26 383.33 1712.29 382.783 Q1714.35 382.21 1716.38 381.091 L1716.38 385.518 Q1714.38 386.455 1712.22 386.924 Q1710.08 387.393 1707.66 387.393 Q1701.07 387.393 1697.19 383.252 Q1693.31 379.112 1693.31 372.08 Q1693.31 364.945 1697.22 360.856 Q1701.15 356.768 1707.97 356.768 Q1710.18 356.768 1712.29 357.237 Q1714.4 357.679 1716.38 358.591 Z" fill="#000000" fill-rule="nonzero" fill-opacity="1" /><path clip-path="url(#clip480)" d="M1729.45 349.19 L1729.45 357.471 L1739.32 357.471 L1739.32 361.195 L1729.45 361.195 L1729.45 377.028 Q1729.45 380.596 1730.42 381.612 Q1731.41 382.627 1734.4 382.627 L1739.32 382.627 L1739.32 386.638 L1734.4 386.638 Q1728.86 386.638 1726.75 384.58 Q1724.64 382.497 1724.64 377.028 L1724.64 361.195 L1721.12 361.195 L1721.12 357.471 L1724.64 357.471 L1724.64 349.19 L1729.45 349.19 Z" fill="#000000" fill-rule="nonzero" fill-opacity="1" /><path clip-path="url(#clip480)" d="M1745.13 375.127 L1745.13 357.471 L1749.92 357.471 L1749.92 374.945 Q1749.92 379.086 1751.54 381.169 Q1753.15 383.226 1756.38 383.226 Q1760.26 383.226 1762.5 380.752 Q1764.77 378.278 1764.77 374.007 L1764.77 357.471 L1769.56 357.471 L1769.56 386.638 L1764.77 386.638 L1764.77 382.158 Q1763.02 384.815 1760.7 386.117 Q1758.41 387.393 1755.37 387.393 Q1750.34 387.393 1747.74 384.268 Q1745.13 381.143 1745.13 375.127 M1757.19 356.768 L1757.19 356.768 Z" fill="#000000" fill-rule="nonzero" fill-opacity="1" /><path clip-path="url(#clip480)" d="M1792.68 371.976 Q1786.88 371.976 1784.64 373.304 Q1782.4 374.632 1782.4 377.836 Q1782.4 380.388 1784.06 381.898 Q1785.76 383.382 1788.65 383.382 Q1792.63 383.382 1795.03 380.57 Q1797.45 377.731 1797.45 373.044 L1797.45 371.976 L1792.68 371.976 M1802.24 369.997 L1802.24 386.638 L1797.45 386.638 L1797.45 382.21 Q1795.81 384.867 1793.36 386.143 Q1790.91 387.393 1787.37 387.393 Q1782.89 387.393 1780.24 384.893 Q1777.61 382.367 1777.61 378.148 Q1777.61 373.226 1780.89 370.726 Q1784.19 368.226 1790.73 368.226 L1797.45 368.226 L1797.45 367.757 Q1797.45 364.45 1795.26 362.653 Q1793.1 360.83 1789.17 360.83 Q1786.67 360.83 1784.3 361.429 Q1781.93 362.028 1779.74 363.226 L1779.74 358.799 Q1782.37 357.784 1784.85 357.289 Q1787.32 356.768 1789.66 356.768 Q1795.99 356.768 1799.12 360.049 Q1802.24 363.33 1802.24 369.997 Z" fill="#000000" fill-rule="nonzero" fill-opacity="1" /><path clip-path="url(#clip480)" d="M1812.11 346.117 L1816.9 346.117 L1816.9 386.638 L1812.11 386.638 L1812.11 346.117 Z" fill="#000000" fill-rule="nonzero" fill-opacity="1" /></svg>
