<?xml version="1.0" encoding="UTF-8" standalone="no"?>
<!DOCTYPE svg PUBLIC "-//W3C//DTD SVG 1.1//EN"
 "http://www.w3.org/Graphics/SVG/1.1/DTD/svg11.dtd">
<!-- Generated by graphviz version 2.50.0 (20211204.2007)
 -->
<!-- Pages: 1 -->
<svg width="921pt" height="588pt"
 viewBox="0.00 0.00 921.00 588.00" xmlns="http://www.w3.org/2000/svg" xmlns:xlink="http://www.w3.org/1999/xlink">
<g id="graph0" class="graph" transform="scale(1 1) rotate(0) translate(4 584)">
<polygon fill="white" stroke="transparent" points="-4,4 -4,-584 917,-584 917,4 -4,4"/>
<!-- 1 -->
<g id="node1" class="node">
<title>1</title>
<text text-anchor="start" x="450" y="-561.8" font-family="Arial" font-weight="bold" font-size="14.00"> </text>
<path fill="#ebebeb" stroke="transparent" d="M410,-489C410,-489 494,-489 494,-489 500,-489 506,-495 506,-501 506,-501 506,-541 506,-541 506,-547 500,-553 494,-553 494,-553 410,-553 410,-553 404,-553 398,-547 398,-541 398,-541 398,-501 398,-501 398,-495 404,-489 410,-489"/>
<text text-anchor="start" x="399" y="-550.4" font-family="Arial" font-size="2.00"> </text>
<text text-anchor="start" x="399" y="-544.4" font-family="Arial" font-size="7.00"> &#160;1</text>
<text text-anchor="start" x="413" y="-527.8" font-family="Arial" font-weight="bold" font-size="14.00">Mean: 21.77</text>
<text text-anchor="start" x="428.5" y="-510.8" font-family="Arial" font-weight="bold" font-size="14.00">n = 672</text>
<text text-anchor="start" x="450.5" y="-492.8" font-family="Arial" font-size="9.00"> </text>
<path fill="none" stroke="#333333" d="M410,-489C410,-489 494,-489 494,-489 500,-489 506,-495 506,-501 506,-501 506,-541 506,-541 506,-547 500,-553 494,-553 494,-553 410,-553 410,-553 404,-553 398,-547 398,-541 398,-541 398,-501 398,-501 398,-495 404,-489 410,-489"/>
<text text-anchor="start" x="409.5" y="-474.8" font-family="Arial" font-weight="bold" font-size="14.00">day_of_week</text>
</g>
<!-- 2 -->
<g id="node2" class="node">
<title>2</title>
<text text-anchor="start" x="353.5" y="-407.8" font-family="Arial" font-weight="bold" font-size="14.00"> &lt; 5.5</text>
<path fill="#ebebeb" stroke="transparent" d="M329,-335C329,-335 413,-335 413,-335 419,-335 425,-341 425,-347 425,-347 425,-387 425,-387 425,-393 419,-399 413,-399 413,-399 329,-399 329,-399 323,-399 317,-393 317,-387 317,-387 317,-347 317,-347 317,-341 323,-335 329,-335"/>
<text text-anchor="start" x="318" y="-396.4" font-family="Arial" font-size="2.00"> </text>
<text text-anchor="start" x="318" y="-390.4" font-family="Arial" font-size="7.00"> &#160;2</text>
<text text-anchor="start" x="332" y="-373.8" font-family="Arial" font-weight="bold" font-size="14.00">Mean: 22.81</text>
<text text-anchor="start" x="347.5" y="-356.8" font-family="Arial" font-weight="bold" font-size="14.00">n = 480</text>
<text text-anchor="start" x="369.5" y="-338.8" font-family="Arial" font-size="9.00"> </text>
<path fill="none" stroke="#333333" d="M329,-335C329,-335 413,-335 413,-335 419,-335 425,-341 425,-347 425,-347 425,-387 425,-387 425,-393 419,-399 413,-399 413,-399 329,-399 329,-399 323,-399 317,-393 317,-387 317,-387 317,-347 317,-347 317,-341 323,-335 329,-335"/>
<text text-anchor="start" x="356.5" y="-320.8" font-family="Arial" font-weight="bold" font-size="14.00">time</text>
</g>
<!-- 1&#45;&gt;2 -->
<g id="edge1" class="edge">
<title>1&#45;&gt;2</title>
<path fill="none" stroke="#888888" d="M420.91,-461.67C416.31,-453.03 411.54,-444.07 406.85,-435.27"/>
<polygon fill="#888888" stroke="#888888" points="409.79,-433.36 402,-426.18 403.62,-436.65 409.79,-433.36"/>
</g>
<!-- 9 -->
<g id="node3" class="node">
<title>9</title>
<text text-anchor="start" x="516" y="-407.8" font-family="Arial" font-weight="bold" font-size="14.00"> ≥ 5.5</text>
<text text-anchor="start" x="465" y="-363.3" font-family="Arial" font-size="14.00"> &#160;&#160;</text>
<path fill="#ebebeb" stroke="transparent" d="M491,-335C491,-335 575,-335 575,-335 581,-335 587,-341 587,-347 587,-347 587,-387 587,-387 587,-393 581,-399 575,-399 575,-399 491,-399 491,-399 485,-399 479,-393 479,-387 479,-387 479,-347 479,-347 479,-341 485,-335 491,-335"/>
<text text-anchor="start" x="480" y="-396.4" font-family="Arial" font-size="2.00"> </text>
<text text-anchor="start" x="480" y="-390.4" font-family="Arial" font-size="7.00"> &#160;9</text>
<text text-anchor="start" x="494" y="-373.8" font-family="Arial" font-weight="bold" font-size="14.00">Mean: 19.15</text>
<text text-anchor="start" x="509.5" y="-356.8" font-family="Arial" font-weight="bold" font-size="14.00">n = 192</text>
<text text-anchor="start" x="531.5" y="-338.8" font-family="Arial" font-size="9.00"> </text>
<path fill="none" stroke="#333333" d="M491,-335C491,-335 575,-335 575,-335 581,-335 587,-341 587,-347 587,-347 587,-387 587,-387 587,-393 581,-399 575,-399 575,-399 491,-399 491,-399 485,-399 479,-393 479,-387 479,-387 479,-347 479,-347 479,-341 485,-335 491,-335"/>
<text text-anchor="start" x="589" y="-363.3" font-family="Arial" font-size="14.00"> &#160;&#160;</text>
<text text-anchor="start" x="480" y="-320.8" font-family="Arial" font-weight="bold" font-size="14.00">prev_168_inflow</text>
</g>
<!-- 1&#45;&gt;9 -->
<g id="edge2" class="edge">
<title>1&#45;&gt;9</title>
<path fill="none" stroke="#888888" d="M483.09,-461.67C487.69,-453.03 492.46,-444.07 497.15,-435.27"/>
<polygon fill="#888888" stroke="#888888" points="500.38,-436.65 502,-426.18 494.21,-433.36 500.38,-436.65"/>
</g>
<!-- 3 -->
<g id="node4" class="node">
<title>3</title>
<text text-anchor="start" x="203.5" y="-253.8" font-family="Arial" font-weight="bold" font-size="14.00"> &lt; 7.5</text>
<path fill="#ebebeb" stroke="transparent" d="M179,-181C179,-181 263,-181 263,-181 269,-181 275,-187 275,-193 275,-193 275,-233 275,-233 275,-239 269,-245 263,-245 263,-245 179,-245 179,-245 173,-245 167,-239 167,-233 167,-233 167,-193 167,-193 167,-187 173,-181 179,-181"/>
<text text-anchor="start" x="168" y="-242.4" font-family="Arial" font-size="2.00"> </text>
<text text-anchor="start" x="168" y="-236.4" font-family="Arial" font-size="7.00"> &#160;3</text>
<text text-anchor="start" x="182" y="-219.8" font-family="Arial" font-weight="bold" font-size="14.00">Mean: 20.24</text>
<text text-anchor="start" x="197.5" y="-202.8" font-family="Arial" font-weight="bold" font-size="14.00">n = 160</text>
<text text-anchor="start" x="219.5" y="-184.8" font-family="Arial" font-size="9.00"> </text>
<path fill="none" stroke="#333333" d="M179,-181C179,-181 263,-181 263,-181 269,-181 275,-187 275,-193 275,-193 275,-233 275,-233 275,-239 269,-245 263,-245 263,-245 179,-245 179,-245 173,-245 167,-239 167,-233 167,-233 167,-193 167,-193 167,-187 173,-181 179,-181"/>
<text text-anchor="start" x="206.5" y="-166.8" font-family="Arial" font-weight="bold" font-size="14.00">time</text>
</g>
<!-- 2&#45;&gt;3 -->
<g id="edge3" class="edge">
<title>2&#45;&gt;3</title>
<path fill="none" stroke="#888888" d="M313.44,-307.67C304.28,-298.39 294.77,-288.75 285.47,-279.33"/>
<polygon fill="#888888" stroke="#888888" points="287.93,-276.84 278.41,-272.18 282.94,-281.75 287.93,-276.84"/>
</g>
<!-- 6 -->
<g id="node5" class="node">
<title>6</title>
<text text-anchor="start" x="356" y="-253.8" font-family="Arial" font-weight="bold" font-size="14.00"> ≥ 7.5</text>
<path fill="#ebebeb" stroke="transparent" d="M335,-181C335,-181 411,-181 411,-181 417,-181 423,-187 423,-193 423,-193 423,-233 423,-233 423,-239 417,-245 411,-245 411,-245 335,-245 335,-245 329,-245 323,-239 323,-233 323,-233 323,-193 323,-193 323,-187 329,-181 335,-181"/>
<text text-anchor="start" x="324" y="-242.4" font-family="Arial" font-size="2.00"> </text>
<text text-anchor="start" x="324" y="-236.4" font-family="Arial" font-size="7.00"> &#160;6</text>
<text text-anchor="start" x="338" y="-219.8" font-family="Arial" font-weight="bold" font-size="14.00">Mean: 24.1</text>
<text text-anchor="start" x="349.5" y="-202.8" font-family="Arial" font-weight="bold" font-size="14.00">n = 320</text>
<text text-anchor="start" x="371.5" y="-184.8" font-family="Arial" font-size="9.00"> </text>
<path fill="none" stroke="#333333" d="M335,-181C335,-181 411,-181 411,-181 417,-181 423,-187 423,-193 423,-193 423,-233 423,-233 423,-239 417,-245 411,-245 411,-245 335,-245 335,-245 329,-245 323,-239 323,-233 323,-233 323,-193 323,-193 323,-187 329,-181 335,-181"/>
<text text-anchor="start" x="358.5" y="-166.8" font-family="Arial" font-weight="bold" font-size="14.00">time</text>
</g>
<!-- 2&#45;&gt;6 -->
<g id="edge4" class="edge">
<title>2&#45;&gt;6</title>
<path fill="none" stroke="#888888" d="M371.77,-307.67C371.88,-299.39 371.99,-290.83 372.1,-282.38"/>
<polygon fill="#888888" stroke="#888888" points="375.6,-282.22 372.23,-272.18 368.6,-282.13 375.6,-282.22"/>
</g>
<!-- 10 -->
<g id="node10" class="node">
<title>10</title>
<text text-anchor="start" x="503" y="-253.8" font-family="Arial" font-weight="bold" font-size="14.00"> &lt; 18.89</text>
<path fill="#f8766d" fill-opacity="0.874510" stroke="transparent" d="M483,-181C483,-181 573,-181 573,-181 579,-181 585,-187 585,-193 585,-193 585,-233 585,-233 585,-239 579,-245 573,-245 573,-245 483,-245 483,-245 477,-245 471,-239 471,-233 471,-233 471,-193 471,-193 471,-187 477,-181 483,-181"/>
<text text-anchor="start" x="472" y="-242.4" font-family="Arial" font-size="2.00"> </text>
<text text-anchor="start" x="472" y="-236.4" font-family="Arial" font-size="7.00"> &#160;10</text>
<text text-anchor="start" x="486" y="-219.8" font-family="Arial" font-weight="bold" font-size="14.00">Predict 18.52</text>
<text text-anchor="start" x="508" y="-202.8" font-family="Arial" font-weight="bold" font-size="14.00">n = 99</text>
<text text-anchor="start" x="526.5" y="-184.8" font-family="Arial" font-size="9.00"> </text>
<path fill="none" stroke="#333333" d="M483,-181C483,-181 573,-181 573,-181 579,-181 585,-187 585,-193 585,-193 585,-233 585,-233 585,-239 579,-245 573,-245 573,-245 483,-245 483,-245 477,-245 471,-239 471,-233 471,-233 471,-193 471,-193 471,-187 477,-181 483,-181"/>
<text text-anchor="start" x="526" y="-166.8" font-family="Arial" font-weight="bold" font-size="14.00"> </text>
</g>
<!-- 9&#45;&gt;10 -->
<g id="edge9" class="edge">
<title>9&#45;&gt;10</title>
<path fill="none" stroke="#888888" d="M531.08,-307.67C530.81,-299.39 530.53,-290.83 530.25,-282.38"/>
<polygon fill="#888888" stroke="#888888" points="533.74,-282.06 529.91,-272.18 526.74,-282.29 533.74,-282.06"/>
</g>
<!-- 11 -->
<g id="node11" class="node">
<title>11</title>
<text text-anchor="start" x="664.5" y="-253.8" font-family="Arial" font-weight="bold" font-size="14.00"> ≥ 18.89</text>
<text text-anchor="start" x="625" y="-209.3" font-family="Arial" font-size="14.00"> &#160;</text>
<path fill="#ebebeb" stroke="transparent" d="M647,-181C647,-181 731,-181 731,-181 737,-181 743,-187 743,-193 743,-193 743,-233 743,-233 743,-239 737,-245 731,-245 731,-245 647,-245 647,-245 641,-245 635,-239 635,-233 635,-233 635,-193 635,-193 635,-187 641,-181 647,-181"/>
<text text-anchor="start" x="636" y="-242.4" font-family="Arial" font-size="2.00"> </text>
<text text-anchor="start" x="636" y="-236.4" font-family="Arial" font-size="7.00"> &#160;11</text>
<text text-anchor="start" x="650" y="-219.8" font-family="Arial" font-weight="bold" font-size="14.00">Mean: 19.83</text>
<text text-anchor="start" x="669" y="-202.8" font-family="Arial" font-weight="bold" font-size="14.00">n = 93</text>
<text text-anchor="start" x="687.5" y="-184.8" font-family="Arial" font-size="9.00"> </text>
<path fill="none" stroke="#333333" d="M647,-181C647,-181 731,-181 731,-181 737,-181 743,-187 743,-193 743,-193 743,-233 743,-233 743,-239 737,-245 731,-245 731,-245 647,-245 647,-245 641,-245 635,-239 635,-233 635,-233 635,-193 635,-193 635,-187 641,-181 647,-181"/>
<text text-anchor="start" x="745" y="-209.3" font-family="Arial" font-size="14.00"> &#160;</text>
<text text-anchor="start" x="639.5" y="-166.8" font-family="Arial" font-weight="bold" font-size="14.00">prev_24_inflow</text>
</g>
<!-- 9&#45;&gt;11 -->
<g id="edge10" class="edge">
<title>9&#45;&gt;11</title>
<path fill="none" stroke="#888888" d="M592.87,-307.67C602.38,-298.39 612.28,-288.75 621.95,-279.33"/>
<polygon fill="#888888" stroke="#888888" points="624.57,-281.66 629.29,-272.18 619.69,-276.65 624.57,-281.66"/>
</g>
<!-- 4 -->
<g id="node6" class="node">
<title>4</title>
<text text-anchor="start" x="51.5" y="-99.8" font-family="Arial" font-weight="bold" font-size="14.00"> &lt; 5.5</text>
<path fill="#f8766d" fill-opacity="0.807843" stroke="transparent" d="M24,-27C24,-27 114,-27 114,-27 120,-27 126,-33 126,-39 126,-39 126,-79 126,-79 126,-85 120,-91 114,-91 114,-91 24,-91 24,-91 18,-91 12,-85 12,-79 12,-79 12,-39 12,-39 12,-33 18,-27 24,-27"/>
<text text-anchor="start" x="13" y="-88.4" font-family="Arial" font-size="2.00"> </text>
<text text-anchor="start" x="13" y="-82.4" font-family="Arial" font-size="7.00"> &#160;4</text>
<text text-anchor="start" x="27" y="-65.8" font-family="Arial" font-weight="bold" font-size="14.00">Predict 19.46</text>
<text text-anchor="start" x="45.5" y="-48.8" font-family="Arial" font-weight="bold" font-size="14.00">n = 120</text>
<text text-anchor="start" x="67.5" y="-30.8" font-family="Arial" font-size="9.00"> </text>
<path fill="none" stroke="#333333" d="M24,-27C24,-27 114,-27 114,-27 120,-27 126,-33 126,-39 126,-39 126,-79 126,-79 126,-85 120,-91 114,-91 114,-91 24,-91 24,-91 18,-91 12,-85 12,-79 12,-79 12,-39 12,-39 12,-33 18,-27 24,-27"/>
<text text-anchor="start" x="67" y="-12.8" font-family="Arial" font-weight="bold" font-size="14.00"> </text>
</g>
<!-- 3&#45;&gt;4 -->
<g id="edge5" class="edge">
<title>3&#45;&gt;4</title>
<path fill="none" stroke="#888888" d="M162.67,-153.67C153.39,-144.39 143.75,-134.75 134.33,-125.33"/>
<polygon fill="#888888" stroke="#888888" points="136.72,-122.77 127.18,-118.18 131.77,-127.72 136.72,-122.77"/>
</g>
<!-- 5 -->
<g id="node7" class="node">
<title>5</title>
<text text-anchor="start" x="204" y="-99.8" font-family="Arial" font-weight="bold" font-size="14.00"> ≥ 5.5</text>
<path fill="#f8766d" fill-opacity="0.588235" stroke="transparent" d="M180,-27C180,-27 262,-27 262,-27 268,-27 274,-33 274,-39 274,-39 274,-79 274,-79 274,-85 268,-91 262,-91 262,-91 180,-91 180,-91 174,-91 168,-85 168,-79 168,-79 168,-39 168,-39 168,-33 174,-27 180,-27"/>
<text text-anchor="start" x="169" y="-88.4" font-family="Arial" font-size="2.00"> </text>
<text text-anchor="start" x="169" y="-82.4" font-family="Arial" font-size="7.00"> &#160;5</text>
<text text-anchor="start" x="183" y="-65.8" font-family="Arial" font-weight="bold" font-size="14.00">Predict 22.6</text>
<text text-anchor="start" x="201" y="-48.8" font-family="Arial" font-weight="bold" font-size="14.00">n = 40</text>
<text text-anchor="start" x="219.5" y="-30.8" font-family="Arial" font-size="9.00"> </text>
<path fill="none" stroke="#333333" d="M180,-27C180,-27 262,-27 262,-27 268,-27 274,-33 274,-39 274,-39 274,-79 274,-79 274,-85 268,-91 262,-91 262,-91 180,-91 180,-91 174,-91 168,-85 168,-79 168,-79 168,-39 168,-39 168,-33 174,-27 180,-27"/>
<text text-anchor="start" x="219" y="-12.8" font-family="Arial" font-weight="bold" font-size="14.00"> </text>
</g>
<!-- 3&#45;&gt;5 -->
<g id="edge6" class="edge">
<title>3&#45;&gt;5</title>
<path fill="none" stroke="#888888" d="M221,-153.67C221,-145.39 221,-136.83 221,-128.38"/>
<polygon fill="#888888" stroke="#888888" points="224.5,-128.18 221,-118.18 217.5,-128.18 224.5,-128.18"/>
</g>
<!-- 7 -->
<g id="node8" class="node">
<title>7</title>
<text text-anchor="start" x="351.5" y="-99.8" font-family="Arial" font-weight="bold" font-size="14.00"> &lt; 16.5</text>
<path fill="#f8766d" fill-opacity="0.376471" stroke="transparent" d="M328,-27C328,-27 418,-27 418,-27 424,-27 430,-33 430,-39 430,-39 430,-79 430,-79 430,-85 424,-91 418,-91 418,-91 328,-91 328,-91 322,-91 316,-85 316,-79 316,-79 316,-39 316,-39 316,-33 322,-27 328,-27"/>
<text text-anchor="start" x="317" y="-88.4" font-family="Arial" font-size="2.00"> </text>
<text text-anchor="start" x="317" y="-82.4" font-family="Arial" font-size="7.00"> &#160;7</text>
<text text-anchor="start" x="331" y="-65.8" font-family="Arial" font-weight="bold" font-size="14.00">Predict 25.64</text>
<text text-anchor="start" x="349.5" y="-48.8" font-family="Arial" font-weight="bold" font-size="14.00">n = 180</text>
<text text-anchor="start" x="371.5" y="-30.8" font-family="Arial" font-size="9.00"> </text>
<path fill="none" stroke="#333333" d="M328,-27C328,-27 418,-27 418,-27 424,-27 430,-33 430,-39 430,-39 430,-79 430,-79 430,-85 424,-91 418,-91 418,-91 328,-91 328,-91 322,-91 316,-85 316,-79 316,-79 316,-39 316,-39 316,-33 322,-27 328,-27"/>
<text text-anchor="start" x="371" y="-12.8" font-family="Arial" font-weight="bold" font-size="14.00"> </text>
</g>
<!-- 6&#45;&gt;7 -->
<g id="edge7" class="edge">
<title>6&#45;&gt;7</title>
<path fill="none" stroke="#888888" d="M373,-153.67C373,-145.39 373,-136.83 373,-128.38"/>
<polygon fill="#888888" stroke="#888888" points="376.5,-128.18 373,-118.18 369.5,-128.18 376.5,-128.18"/>
</g>
<!-- 8 -->
<g id="node9" class="node">
<title>8</title>
<text text-anchor="start" x="508" y="-99.8" font-family="Arial" font-weight="bold" font-size="14.00"> ≥ 16.5</text>
<path fill="#f8766d" fill-opacity="0.623529" stroke="transparent" d="M484,-27C484,-27 574,-27 574,-27 580,-27 586,-33 586,-39 586,-39 586,-79 586,-79 586,-85 580,-91 574,-91 574,-91 484,-91 484,-91 478,-91 472,-85 472,-79 472,-79 472,-39 472,-39 472,-33 478,-27 484,-27"/>
<text text-anchor="start" x="473" y="-88.4" font-family="Arial" font-size="2.00"> </text>
<text text-anchor="start" x="473" y="-82.4" font-family="Arial" font-size="7.00"> &#160;8</text>
<text text-anchor="start" x="487" y="-65.8" font-family="Arial" font-weight="bold" font-size="14.00">Predict 22.12</text>
<text text-anchor="start" x="505.5" y="-48.8" font-family="Arial" font-weight="bold" font-size="14.00">n = 140</text>
<text text-anchor="start" x="527.5" y="-30.8" font-family="Arial" font-size="9.00"> </text>
<path fill="none" stroke="#333333" d="M484,-27C484,-27 574,-27 574,-27 580,-27 586,-33 586,-39 586,-39 586,-79 586,-79 586,-85 580,-91 574,-91 574,-91 484,-91 484,-91 478,-91 472,-85 472,-79 472,-79 472,-39 472,-39 472,-33 478,-27 484,-27"/>
<text text-anchor="start" x="527" y="-12.8" font-family="Arial" font-weight="bold" font-size="14.00"> </text>
</g>
<!-- 6&#45;&gt;8 -->
<g id="edge8" class="edge">
<title>6&#45;&gt;8</title>
<path fill="none" stroke="#888888" d="M432.87,-153.67C442.38,-144.39 452.28,-134.75 461.95,-125.33"/>
<polygon fill="#888888" stroke="#888888" points="464.57,-127.66 469.29,-118.18 459.69,-122.65 464.57,-127.66"/>
</g>
<!-- 12 -->
<g id="node12" class="node">
<title>12</title>
<text text-anchor="start" x="663" y="-99.8" font-family="Arial" font-weight="bold" font-size="14.00"> &lt; 23.64</text>
<path fill="#f8766d" fill-opacity="0.811765" stroke="transparent" d="M643,-27C643,-27 733,-27 733,-27 739,-27 745,-33 745,-39 745,-39 745,-79 745,-79 745,-85 739,-91 733,-91 733,-91 643,-91 643,-91 637,-91 631,-85 631,-79 631,-79 631,-39 631,-39 631,-33 637,-27 643,-27"/>
<text text-anchor="start" x="632" y="-88.4" font-family="Arial" font-size="2.00"> </text>
<text text-anchor="start" x="632" y="-82.4" font-family="Arial" font-size="7.00"> &#160;12</text>
<text text-anchor="start" x="646" y="-65.8" font-family="Arial" font-weight="bold" font-size="14.00">Predict 19.45</text>
<text text-anchor="start" x="668" y="-48.8" font-family="Arial" font-weight="bold" font-size="14.00">n = 67</text>
<text text-anchor="start" x="686.5" y="-30.8" font-family="Arial" font-size="9.00"> </text>
<path fill="none" stroke="#333333" d="M643,-27C643,-27 733,-27 733,-27 739,-27 745,-33 745,-39 745,-39 745,-79 745,-79 745,-85 739,-91 733,-91 733,-91 643,-91 643,-91 637,-91 631,-85 631,-79 631,-79 631,-39 631,-39 631,-33 637,-27 643,-27"/>
<text text-anchor="start" x="686" y="-12.8" font-family="Arial" font-weight="bold" font-size="14.00"> </text>
</g>
<!-- 11&#45;&gt;12 -->
<g id="edge11" class="edge">
<title>11&#45;&gt;12</title>
<path fill="none" stroke="#888888" d="M688.62,-153.67C688.56,-145.39 688.51,-136.83 688.45,-128.38"/>
<polygon fill="#888888" stroke="#888888" points="691.95,-128.15 688.38,-118.18 684.95,-128.2 691.95,-128.15"/>
</g>
<!-- 13 -->
<g id="node13" class="node">
<title>13</title>
<text text-anchor="start" x="819.5" y="-99.8" font-family="Arial" font-weight="bold" font-size="14.00"> ≥ 23.64</text>
<path fill="#f8766d" fill-opacity="0.713725" stroke="transparent" d="M799,-27C799,-27 889,-27 889,-27 895,-27 901,-33 901,-39 901,-39 901,-79 901,-79 901,-85 895,-91 889,-91 889,-91 799,-91 799,-91 793,-91 787,-85 787,-79 787,-79 787,-39 787,-39 787,-33 793,-27 799,-27"/>
<text text-anchor="start" x="788" y="-88.4" font-family="Arial" font-size="2.00"> </text>
<text text-anchor="start" x="788" y="-82.4" font-family="Arial" font-size="7.00"> &#160;13</text>
<text text-anchor="start" x="802" y="-65.8" font-family="Arial" font-weight="bold" font-size="14.00">Predict 20.82</text>
<text text-anchor="start" x="824" y="-48.8" font-family="Arial" font-weight="bold" font-size="14.00">n = 26</text>
<text text-anchor="start" x="842.5" y="-30.8" font-family="Arial" font-size="9.00"> </text>
<path fill="none" stroke="#333333" d="M799,-27C799,-27 889,-27 889,-27 895,-27 901,-33 901,-39 901,-39 901,-79 901,-79 901,-85 895,-91 889,-91 889,-91 799,-91 799,-91 793,-91 787,-85 787,-79 787,-79 787,-39 787,-39 787,-33 793,-27 799,-27"/>
<text text-anchor="start" x="842" y="-12.8" font-family="Arial" font-weight="bold" font-size="14.00"> </text>
</g>
<!-- 11&#45;&gt;13 -->
<g id="edge12" class="edge">
<title>11&#45;&gt;13</title>
<path fill="none" stroke="#888888" d="M748.48,-153.67C757.94,-144.39 767.78,-134.75 777.38,-125.33"/>
<polygon fill="#888888" stroke="#888888" points="779.99,-127.68 784.68,-118.18 775.08,-122.68 779.99,-127.68"/>
</g>
</g>
</svg>
