<?xml version="1.0" encoding="UTF-8" standalone="no"?>
<!DOCTYPE svg PUBLIC "-//W3C//DTD SVG 1.1//EN"
 "http://www.w3.org/Graphics/SVG/1.1/DTD/svg11.dtd">
<!-- Generated by graphviz version 2.50.0 (20211204.2007)
 -->
<!-- Pages: 1 -->
<svg width="1372pt" height="742pt"
 viewBox="0.00 0.00 1372.00 742.00" xmlns="http://www.w3.org/2000/svg" xmlns:xlink="http://www.w3.org/1999/xlink">
<g id="graph0" class="graph" transform="scale(1 1) rotate(0) translate(4 738)">
<polygon fill="white" stroke="transparent" points="-4,4 -4,-738 1368,-738 1368,4 -4,4"/>
<!-- 1 -->
<g id="node1" class="node">
<title>1</title>
<text text-anchor="start" x="596" y="-715.8" font-family="Arial" font-weight="bold" font-size="14.00"> </text>
<path fill="#ebebeb" stroke="transparent" d="M556,-643C556,-643 640,-643 640,-643 646,-643 652,-649 652,-655 652,-655 652,-695 652,-695 652,-701 646,-707 640,-707 640,-707 556,-707 556,-707 550,-707 544,-701 544,-695 544,-695 544,-655 544,-655 544,-649 550,-643 556,-643"/>
<text text-anchor="start" x="545" y="-704.4" font-family="Arial" font-size="2.00"> </text>
<text text-anchor="start" x="545" y="-698.4" font-family="Arial" font-size="7.00"> &#160;1</text>
<text text-anchor="start" x="559" y="-681.8" font-family="Arial" font-weight="bold" font-size="14.00">Mean: 28.97</text>
<text text-anchor="start" x="574.5" y="-664.8" font-family="Arial" font-weight="bold" font-size="14.00">n = 672</text>
<text text-anchor="start" x="596.5" y="-646.8" font-family="Arial" font-size="9.00"> </text>
<path fill="none" stroke="#333333" d="M556,-643C556,-643 640,-643 640,-643 646,-643 652,-649 652,-655 652,-655 652,-695 652,-695 652,-701 646,-707 640,-707 640,-707 556,-707 556,-707 550,-707 544,-701 544,-695 544,-695 544,-655 544,-655 544,-649 550,-643 556,-643"/>
<text text-anchor="start" x="568.5" y="-628.8" font-family="Arial" font-weight="bold" font-size="14.00">day_type</text>
</g>
<!-- 2 -->
<g id="node2" class="node">
<title>2</title>
<text text-anchor="start" x="426.5" y="-561.8" font-family="Arial" font-weight="bold" font-size="14.00"> &lt; 0.5</text>
<text text-anchor="start" x="372" y="-517.3" font-family="Arial" font-size="14.00"> &#160;&#160;&#160;</text>
<path fill="#ebebeb" stroke="transparent" d="M402,-489C402,-489 486,-489 486,-489 492,-489 498,-495 498,-501 498,-501 498,-541 498,-541 498,-547 492,-553 486,-553 486,-553 402,-553 402,-553 396,-553 390,-547 390,-541 390,-541 390,-501 390,-501 390,-495 396,-489 402,-489"/>
<text text-anchor="start" x="391" y="-550.4" font-family="Arial" font-size="2.00"> </text>
<text text-anchor="start" x="391" y="-544.4" font-family="Arial" font-size="7.00"> &#160;2</text>
<text text-anchor="start" x="405" y="-527.8" font-family="Arial" font-weight="bold" font-size="14.00">Mean: 25.87</text>
<text text-anchor="start" x="420.5" y="-510.8" font-family="Arial" font-weight="bold" font-size="14.00">n = 192</text>
<text text-anchor="start" x="442.5" y="-492.8" font-family="Arial" font-size="9.00"> </text>
<path fill="none" stroke="#333333" d="M402,-489C402,-489 486,-489 486,-489 492,-489 498,-495 498,-501 498,-501 498,-541 498,-541 498,-547 492,-553 486,-553 486,-553 402,-553 402,-553 396,-553 390,-547 390,-541 390,-541 390,-501 390,-501 390,-495 396,-489 402,-489"/>
<text text-anchor="start" x="500" y="-517.3" font-family="Arial" font-size="14.00"> &#160;&#160;&#160;</text>
<text text-anchor="start" x="386.5" y="-474.8" font-family="Arial" font-weight="bold" font-size="14.00">prev_168h_inflow</text>
</g>
<!-- 1&#45;&gt;2 -->
<g id="edge1" class="edge">
<title>1&#45;&gt;2</title>
<path fill="none" stroke="#888888" d="M538.9,-615.67C529.5,-606.39 519.73,-596.75 510.19,-587.33"/>
<polygon fill="#888888" stroke="#888888" points="512.52,-584.71 502.94,-580.18 507.6,-589.69 512.52,-584.71"/>
</g>
<!-- 9 -->
<g id="node3" class="node">
<title>9</title>
<text text-anchor="start" x="741" y="-561.8" font-family="Arial" font-weight="bold" font-size="14.00"> ≥ 0.5</text>
<path fill="#ebebeb" stroke="transparent" d="M716,-489C716,-489 800,-489 800,-489 806,-489 812,-495 812,-501 812,-501 812,-541 812,-541 812,-547 806,-553 800,-553 800,-553 716,-553 716,-553 710,-553 704,-547 704,-541 704,-541 704,-501 704,-501 704,-495 710,-489 716,-489"/>
<text text-anchor="start" x="705" y="-550.4" font-family="Arial" font-size="2.00"> </text>
<text text-anchor="start" x="705" y="-544.4" font-family="Arial" font-size="7.00"> &#160;9</text>
<text text-anchor="start" x="719" y="-527.8" font-family="Arial" font-weight="bold" font-size="14.00">Mean: 30.21</text>
<text text-anchor="start" x="734.5" y="-510.8" font-family="Arial" font-weight="bold" font-size="14.00">n = 480</text>
<text text-anchor="start" x="756.5" y="-492.8" font-family="Arial" font-size="9.00"> </text>
<path fill="none" stroke="#333333" d="M716,-489C716,-489 800,-489 800,-489 806,-489 812,-495 812,-501 812,-501 812,-541 812,-541 812,-547 806,-553 800,-553 800,-553 716,-553 716,-553 710,-553 704,-547 704,-541 704,-541 704,-501 704,-501 704,-495 710,-489 716,-489"/>
<text text-anchor="start" x="743.5" y="-474.8" font-family="Arial" font-weight="bold" font-size="14.00">time</text>
</g>
<!-- 1&#45;&gt;9 -->
<g id="edge2" class="edge">
<title>1&#45;&gt;9</title>
<path fill="none" stroke="#888888" d="M659.4,-615.67C669.16,-606.39 679.32,-596.75 689.23,-587.33"/>
<polygon fill="#888888" stroke="#888888" points="691.92,-589.6 696.76,-580.18 687.1,-584.53 691.92,-589.6"/>
</g>
<!-- 3 -->
<g id="node4" class="node">
<title>3</title>
<text text-anchor="start" x="195.5" y="-407.8" font-family="Arial" font-weight="bold" font-size="14.00"> &lt; 26.5</text>
<path fill="#ebebeb" stroke="transparent" d="M175,-335C175,-335 259,-335 259,-335 265,-335 271,-341 271,-347 271,-347 271,-387 271,-387 271,-393 265,-399 259,-399 259,-399 175,-399 175,-399 169,-399 163,-393 163,-387 163,-387 163,-347 163,-347 163,-341 169,-335 175,-335"/>
<text text-anchor="start" x="164" y="-396.4" font-family="Arial" font-size="2.00"> </text>
<text text-anchor="start" x="164" y="-390.4" font-family="Arial" font-size="7.00"> &#160;3</text>
<text text-anchor="start" x="178" y="-373.8" font-family="Arial" font-weight="bold" font-size="14.00">Mean: 24.45</text>
<text text-anchor="start" x="194" y="-356.8" font-family="Arial" font-weight="bold" font-size="14.00">n = 119</text>
<text text-anchor="start" x="215.5" y="-338.8" font-family="Arial" font-size="9.00"> </text>
<path fill="none" stroke="#333333" d="M175,-335C175,-335 259,-335 259,-335 265,-335 271,-341 271,-347 271,-347 271,-387 271,-387 271,-393 265,-399 259,-399 259,-399 175,-399 175,-399 169,-399 163,-393 163,-387 163,-387 163,-347 163,-347 163,-341 169,-335 175,-335"/>
<text text-anchor="start" x="202.5" y="-320.8" font-family="Arial" font-weight="bold" font-size="14.00">time</text>
</g>
<!-- 2&#45;&gt;3 -->
<g id="edge3" class="edge">
<title>2&#45;&gt;3</title>
<path fill="none" stroke="#888888" d="M361.73,-464.91C338.78,-449.54 313.98,-432.94 291.5,-417.89"/>
<polygon fill="#888888" stroke="#888888" points="293.26,-414.85 283.01,-412.2 289.37,-420.67 293.26,-414.85"/>
</g>
<!-- 6 -->
<g id="node5" class="node">
<title>6</title>
<text text-anchor="start" x="423" y="-407.8" font-family="Arial" font-weight="bold" font-size="14.00"> ≥ 26.5</text>
<path fill="#ebebeb" stroke="transparent" d="M402,-335C402,-335 486,-335 486,-335 492,-335 498,-341 498,-347 498,-347 498,-387 498,-387 498,-393 492,-399 486,-399 486,-399 402,-399 402,-399 396,-399 390,-393 390,-387 390,-387 390,-347 390,-347 390,-341 396,-335 402,-335"/>
<text text-anchor="start" x="391" y="-396.4" font-family="Arial" font-size="2.00"> </text>
<text text-anchor="start" x="391" y="-390.4" font-family="Arial" font-size="7.00"> &#160;6</text>
<text text-anchor="start" x="405" y="-373.8" font-family="Arial" font-weight="bold" font-size="14.00">Mean: 28.18</text>
<text text-anchor="start" x="424" y="-356.8" font-family="Arial" font-weight="bold" font-size="14.00">n = 73</text>
<text text-anchor="start" x="442.5" y="-338.8" font-family="Arial" font-size="9.00"> </text>
<path fill="none" stroke="#333333" d="M402,-335C402,-335 486,-335 486,-335 492,-335 498,-341 498,-347 498,-347 498,-387 498,-387 498,-393 492,-399 486,-399 486,-399 402,-399 402,-399 396,-399 390,-393 390,-387 390,-387 390,-347 390,-347 390,-341 396,-335 402,-335"/>
<text text-anchor="start" x="429.5" y="-320.8" font-family="Arial" font-weight="bold" font-size="14.00">time</text>
</g>
<!-- 2&#45;&gt;6 -->
<g id="edge4" class="edge">
<title>2&#45;&gt;6</title>
<path fill="none" stroke="#888888" d="M444,-461.67C444,-453.39 444,-444.83 444,-436.38"/>
<polygon fill="#888888" stroke="#888888" points="447.5,-436.18 444,-426.18 440.5,-436.18 447.5,-436.18"/>
</g>
<!-- 10 -->
<g id="node10" class="node">
<title>10</title>
<text text-anchor="start" x="736.5" y="-407.8" font-family="Arial" font-weight="bold" font-size="14.00"> &lt; 14.5</text>
<path fill="#ebebeb" stroke="transparent" d="M716,-335C716,-335 800,-335 800,-335 806,-335 812,-341 812,-347 812,-347 812,-387 812,-387 812,-393 806,-399 800,-399 800,-399 716,-399 716,-399 710,-399 704,-393 704,-387 704,-387 704,-347 704,-347 704,-341 710,-335 716,-335"/>
<text text-anchor="start" x="705" y="-396.4" font-family="Arial" font-size="2.00"> </text>
<text text-anchor="start" x="705" y="-390.4" font-family="Arial" font-size="7.00"> &#160;10</text>
<text text-anchor="start" x="719" y="-373.8" font-family="Arial" font-weight="bold" font-size="14.00">Mean: 29.96</text>
<text text-anchor="start" x="734.5" y="-356.8" font-family="Arial" font-weight="bold" font-size="14.00">n = 300</text>
<text text-anchor="start" x="756.5" y="-338.8" font-family="Arial" font-size="9.00"> </text>
<path fill="none" stroke="#333333" d="M716,-335C716,-335 800,-335 800,-335 806,-335 812,-341 812,-347 812,-347 812,-387 812,-387 812,-393 806,-399 800,-399 800,-399 716,-399 716,-399 710,-399 704,-393 704,-387 704,-387 704,-347 704,-347 704,-341 710,-335 716,-335"/>
<text text-anchor="start" x="743.5" y="-320.8" font-family="Arial" font-weight="bold" font-size="14.00">time</text>
</g>
<!-- 9&#45;&gt;10 -->
<g id="edge9" class="edge">
<title>9&#45;&gt;10</title>
<path fill="none" stroke="#888888" d="M758,-461.67C758,-453.39 758,-444.83 758,-436.38"/>
<polygon fill="#888888" stroke="#888888" points="761.5,-436.18 758,-426.18 754.5,-436.18 761.5,-436.18"/>
</g>
<!-- 17 -->
<g id="node11" class="node">
<title>17</title>
<text text-anchor="start" x="1118" y="-407.8" font-family="Arial" font-weight="bold" font-size="14.00"> ≥ 14.5</text>
<path fill="#ebebeb" stroke="transparent" d="M1097,-335C1097,-335 1181,-335 1181,-335 1187,-335 1193,-341 1193,-347 1193,-347 1193,-387 1193,-387 1193,-393 1187,-399 1181,-399 1181,-399 1097,-399 1097,-399 1091,-399 1085,-393 1085,-387 1085,-387 1085,-347 1085,-347 1085,-341 1091,-335 1097,-335"/>
<text text-anchor="start" x="1086" y="-396.4" font-family="Arial" font-size="2.00"> </text>
<text text-anchor="start" x="1086" y="-390.4" font-family="Arial" font-size="7.00"> &#160;17</text>
<text text-anchor="start" x="1100" y="-373.8" font-family="Arial" font-weight="bold" font-size="14.00">Mean: 30.63</text>
<text text-anchor="start" x="1115.5" y="-356.8" font-family="Arial" font-weight="bold" font-size="14.00">n = 180</text>
<text text-anchor="start" x="1137.5" y="-338.8" font-family="Arial" font-size="9.00"> </text>
<path fill="none" stroke="#333333" d="M1097,-335C1097,-335 1181,-335 1181,-335 1187,-335 1193,-341 1193,-347 1193,-347 1193,-387 1193,-387 1193,-393 1187,-399 1181,-399 1181,-399 1097,-399 1097,-399 1091,-399 1085,-393 1085,-387 1085,-387 1085,-347 1085,-347 1085,-341 1091,-335 1097,-335"/>
<text text-anchor="start" x="1124.5" y="-320.8" font-family="Arial" font-weight="bold" font-size="14.00">time</text>
</g>
<!-- 9&#45;&gt;17 -->
<g id="edge10" class="edge">
<title>9&#45;&gt;17</title>
<path fill="none" stroke="#888888" d="M824.37,-493.52C890.95,-466.96 993.37,-426.1 1063.14,-398.27"/>
<polygon fill="#888888" stroke="#888888" points="1064.77,-401.38 1072.76,-394.43 1062.17,-394.88 1064.77,-401.38"/>
</g>
<!-- 4 -->
<g id="node6" class="node">
<title>4</title>
<text text-anchor="start" x="47.5" y="-253.8" font-family="Arial" font-weight="bold" font-size="14.00"> &lt; 5.5</text>
<path fill="#f8766d" fill-opacity="0.874510" stroke="transparent" d="M24,-181C24,-181 106,-181 106,-181 112,-181 118,-187 118,-193 118,-193 118,-233 118,-233 118,-239 112,-245 106,-245 106,-245 24,-245 24,-245 18,-245 12,-239 12,-233 12,-233 12,-193 12,-193 12,-187 18,-181 24,-181"/>
<text text-anchor="start" x="13" y="-242.4" font-family="Arial" font-size="2.00"> </text>
<text text-anchor="start" x="13" y="-236.4" font-family="Arial" font-size="7.00"> &#160;4</text>
<text text-anchor="start" x="27" y="-219.8" font-family="Arial" font-weight="bold" font-size="14.00">Predict 22.7</text>
<text text-anchor="start" x="45" y="-202.8" font-family="Arial" font-weight="bold" font-size="14.00">n = 48</text>
<text text-anchor="start" x="63.5" y="-184.8" font-family="Arial" font-size="9.00"> </text>
<path fill="none" stroke="#333333" d="M24,-181C24,-181 106,-181 106,-181 112,-181 118,-187 118,-193 118,-193 118,-233 118,-233 118,-239 112,-245 106,-245 106,-245 24,-245 24,-245 18,-245 12,-239 12,-233 12,-233 12,-193 12,-193 12,-187 18,-181 24,-181"/>
<text text-anchor="start" x="63" y="-166.8" font-family="Arial" font-weight="bold" font-size="14.00"> </text>
</g>
<!-- 3&#45;&gt;4 -->
<g id="edge5" class="edge">
<title>3&#45;&gt;4</title>
<path fill="none" stroke="#888888" d="M158.67,-307.67C149.39,-298.39 139.75,-288.75 130.33,-279.33"/>
<polygon fill="#888888" stroke="#888888" points="132.72,-276.77 123.18,-272.18 127.77,-281.72 132.72,-276.77"/>
</g>
<!-- 5 -->
<g id="node7" class="node">
<title>5</title>
<text text-anchor="start" x="200" y="-253.8" font-family="Arial" font-weight="bold" font-size="14.00"> ≥ 5.5</text>
<path fill="#f8766d" fill-opacity="0.760784" stroke="transparent" d="M172,-181C172,-181 262,-181 262,-181 268,-181 274,-187 274,-193 274,-193 274,-233 274,-233 274,-239 268,-245 262,-245 262,-245 172,-245 172,-245 166,-245 160,-239 160,-233 160,-233 160,-193 160,-193 160,-187 166,-181 172,-181"/>
<text text-anchor="start" x="161" y="-242.4" font-family="Arial" font-size="2.00"> </text>
<text text-anchor="start" x="161" y="-236.4" font-family="Arial" font-size="7.00"> &#160;5</text>
<text text-anchor="start" x="175" y="-219.8" font-family="Arial" font-weight="bold" font-size="14.00">Predict 25.64</text>
<text text-anchor="start" x="197" y="-202.8" font-family="Arial" font-weight="bold" font-size="14.00">n = 71</text>
<text text-anchor="start" x="215.5" y="-184.8" font-family="Arial" font-size="9.00"> </text>
<path fill="none" stroke="#333333" d="M172,-181C172,-181 262,-181 262,-181 268,-181 274,-187 274,-193 274,-193 274,-233 274,-233 274,-239 268,-245 262,-245 262,-245 172,-245 172,-245 166,-245 160,-239 160,-233 160,-233 160,-193 160,-193 160,-187 166,-181 172,-181"/>
<text text-anchor="start" x="215" y="-166.8" font-family="Arial" font-weight="bold" font-size="14.00"> </text>
</g>
<!-- 3&#45;&gt;5 -->
<g id="edge6" class="edge">
<title>3&#45;&gt;5</title>
<path fill="none" stroke="#888888" d="M217,-307.67C217,-299.39 217,-290.83 217,-282.38"/>
<polygon fill="#888888" stroke="#888888" points="220.5,-282.18 217,-272.18 213.5,-282.18 220.5,-282.18"/>
</g>
<!-- 7 -->
<g id="node8" class="node">
<title>7</title>
<text text-anchor="start" x="352" y="-253.8" font-family="Arial" font-weight="bold" font-size="14.00"> &lt; 11.5</text>
<path fill="#f8766d" fill-opacity="0.623529" stroke="transparent" d="M328,-181C328,-181 418,-181 418,-181 424,-181 430,-187 430,-193 430,-193 430,-233 430,-233 430,-239 424,-245 418,-245 418,-245 328,-245 328,-245 322,-245 316,-239 316,-233 316,-233 316,-193 316,-193 316,-187 322,-181 328,-181"/>
<text text-anchor="start" x="317" y="-242.4" font-family="Arial" font-size="2.00"> </text>
<text text-anchor="start" x="317" y="-236.4" font-family="Arial" font-size="7.00"> &#160;7</text>
<text text-anchor="start" x="331" y="-219.8" font-family="Arial" font-weight="bold" font-size="14.00">Predict 29.09</text>
<text text-anchor="start" x="353" y="-202.8" font-family="Arial" font-weight="bold" font-size="14.00">n = 38</text>
<text text-anchor="start" x="371.5" y="-184.8" font-family="Arial" font-size="9.00"> </text>
<path fill="none" stroke="#333333" d="M328,-181C328,-181 418,-181 418,-181 424,-181 430,-187 430,-193 430,-193 430,-233 430,-233 430,-239 424,-245 418,-245 418,-245 328,-245 328,-245 322,-245 316,-239 316,-233 316,-233 316,-193 316,-193 316,-187 322,-181 328,-181"/>
<text text-anchor="start" x="371" y="-166.8" font-family="Arial" font-weight="bold" font-size="14.00"> </text>
</g>
<!-- 6&#45;&gt;7 -->
<g id="edge7" class="edge">
<title>6&#45;&gt;7</title>
<path fill="none" stroke="#888888" d="M416.75,-307.67C412.72,-299.03 408.53,-290.07 404.42,-281.27"/>
<polygon fill="#888888" stroke="#888888" points="407.58,-279.76 400.17,-272.18 401.24,-282.72 407.58,-279.76"/>
</g>
<!-- 8 -->
<g id="node9" class="node">
<title>8</title>
<text text-anchor="start" x="508.5" y="-253.8" font-family="Arial" font-weight="bold" font-size="14.00"> ≥ 11.5</text>
<path fill="#f8766d" fill-opacity="0.698039" stroke="transparent" d="M484,-181C484,-181 574,-181 574,-181 580,-181 586,-187 586,-193 586,-193 586,-233 586,-233 586,-239 580,-245 574,-245 574,-245 484,-245 484,-245 478,-245 472,-239 472,-233 472,-233 472,-193 472,-193 472,-187 478,-181 484,-181"/>
<text text-anchor="start" x="473" y="-242.4" font-family="Arial" font-size="2.00"> </text>
<text text-anchor="start" x="473" y="-236.4" font-family="Arial" font-size="7.00"> &#160;8</text>
<text text-anchor="start" x="487" y="-219.8" font-family="Arial" font-weight="bold" font-size="14.00">Predict 27.19</text>
<text text-anchor="start" x="509" y="-202.8" font-family="Arial" font-weight="bold" font-size="14.00">n = 35</text>
<text text-anchor="start" x="527.5" y="-184.8" font-family="Arial" font-size="9.00"> </text>
<path fill="none" stroke="#333333" d="M484,-181C484,-181 574,-181 574,-181 580,-181 586,-187 586,-193 586,-193 586,-233 586,-233 586,-239 580,-245 574,-245 574,-245 484,-245 484,-245 478,-245 472,-239 472,-233 472,-233 472,-193 472,-193 472,-187 478,-181 484,-181"/>
<text text-anchor="start" x="527" y="-166.8" font-family="Arial" font-weight="bold" font-size="14.00"> </text>
</g>
<!-- 6&#45;&gt;8 -->
<g id="edge8" class="edge">
<title>6&#45;&gt;8</title>
<path fill="none" stroke="#888888" d="M476.62,-307.67C481.5,-298.94 486.57,-289.88 491.54,-280.99"/>
<polygon fill="#888888" stroke="#888888" points="494.64,-282.61 496.47,-272.18 488.53,-279.2 494.64,-282.61"/>
</g>
<!-- 11 -->
<g id="node12" class="node">
<title>11</title>
<text text-anchor="start" x="664.5" y="-253.8" font-family="Arial" font-weight="bold" font-size="14.00"> &lt; 6.5</text>
<path fill="#ebebeb" stroke="transparent" d="M640,-181C640,-181 724,-181 724,-181 730,-181 736,-187 736,-193 736,-193 736,-233 736,-233 736,-239 730,-245 724,-245 724,-245 640,-245 640,-245 634,-245 628,-239 628,-233 628,-233 628,-193 628,-193 628,-187 634,-181 640,-181"/>
<text text-anchor="start" x="629" y="-242.4" font-family="Arial" font-size="2.00"> </text>
<text text-anchor="start" x="629" y="-236.4" font-family="Arial" font-size="7.00"> &#160;11</text>
<text text-anchor="start" x="643" y="-219.8" font-family="Arial" font-weight="bold" font-size="14.00">Mean: 24.45</text>
<text text-anchor="start" x="658.5" y="-202.8" font-family="Arial" font-weight="bold" font-size="14.00">n = 140</text>
<text text-anchor="start" x="680.5" y="-184.8" font-family="Arial" font-size="9.00"> </text>
<path fill="none" stroke="#333333" d="M640,-181C640,-181 724,-181 724,-181 730,-181 736,-187 736,-193 736,-193 736,-233 736,-233 736,-239 730,-245 724,-245 724,-245 640,-245 640,-245 634,-245 628,-239 628,-233 628,-233 628,-193 628,-193 628,-187 634,-181 640,-181"/>
<text text-anchor="start" x="667.5" y="-166.8" font-family="Arial" font-weight="bold" font-size="14.00">time</text>
</g>
<!-- 10&#45;&gt;11 -->
<g id="edge11" class="edge">
<title>10&#45;&gt;11</title>
<path fill="none" stroke="#888888" d="M728.83,-307.67C724.52,-299.03 720.04,-290.07 715.64,-281.27"/>
<polygon fill="#888888" stroke="#888888" points="718.69,-279.56 711.09,-272.18 712.43,-282.69 718.69,-279.56"/>
</g>
<!-- 14 -->
<g id="node13" class="node">
<title>14</title>
<text text-anchor="start" x="818" y="-253.8" font-family="Arial" font-weight="bold" font-size="14.00"> ≥ 6.5</text>
<path fill="#ebebeb" stroke="transparent" d="M793,-181C793,-181 877,-181 877,-181 883,-181 889,-187 889,-193 889,-193 889,-233 889,-233 889,-239 883,-245 877,-245 877,-245 793,-245 793,-245 787,-245 781,-239 781,-233 781,-233 781,-193 781,-193 781,-187 787,-181 793,-181"/>
<text text-anchor="start" x="782" y="-242.4" font-family="Arial" font-size="2.00"> </text>
<text text-anchor="start" x="782" y="-236.4" font-family="Arial" font-size="7.00"> &#160;14</text>
<text text-anchor="start" x="796" y="-219.8" font-family="Arial" font-weight="bold" font-size="14.00">Mean: 34.78</text>
<text text-anchor="start" x="811.5" y="-202.8" font-family="Arial" font-weight="bold" font-size="14.00">n = 160</text>
<text text-anchor="start" x="833.5" y="-184.8" font-family="Arial" font-size="9.00"> </text>
<path fill="none" stroke="#333333" d="M793,-181C793,-181 877,-181 877,-181 883,-181 889,-187 889,-193 889,-193 889,-233 889,-233 889,-239 883,-245 877,-245 877,-245 793,-245 793,-245 787,-245 781,-239 781,-233 781,-233 781,-193 781,-193 781,-187 787,-181 793,-181"/>
<text text-anchor="start" x="820.5" y="-166.8" font-family="Arial" font-weight="bold" font-size="14.00">time</text>
</g>
<!-- 10&#45;&gt;14 -->
<g id="edge12" class="edge">
<title>10&#45;&gt;14</title>
<path fill="none" stroke="#888888" d="M787.55,-307.67C791.93,-299.03 796.46,-290.07 800.92,-281.27"/>
<polygon fill="#888888" stroke="#888888" points="804.13,-282.68 805.53,-272.18 797.89,-279.52 804.13,-282.68"/>
</g>
<!-- 18 -->
<g id="node18" class="node">
<title>18</title>
<text text-anchor="start" x="1117.5" y="-253.8" font-family="Arial" font-weight="bold" font-size="14.00"> &lt; 20.5</text>
<path fill="#ebebeb" stroke="transparent" d="M1101,-181C1101,-181 1177,-181 1177,-181 1183,-181 1189,-187 1189,-193 1189,-193 1189,-233 1189,-233 1189,-239 1183,-245 1177,-245 1177,-245 1101,-245 1101,-245 1095,-245 1089,-239 1089,-233 1089,-233 1089,-193 1089,-193 1089,-187 1095,-181 1101,-181"/>
<text text-anchor="start" x="1090" y="-242.4" font-family="Arial" font-size="2.00"> </text>
<text text-anchor="start" x="1090" y="-236.4" font-family="Arial" font-size="7.00"> &#160;18</text>
<text text-anchor="start" x="1104" y="-219.8" font-family="Arial" font-weight="bold" font-size="14.00">Mean: 31.9</text>
<text text-anchor="start" x="1115.5" y="-202.8" font-family="Arial" font-weight="bold" font-size="14.00">n = 120</text>
<text text-anchor="start" x="1137.5" y="-184.8" font-family="Arial" font-size="9.00"> </text>
<path fill="none" stroke="#333333" d="M1101,-181C1101,-181 1177,-181 1177,-181 1183,-181 1189,-187 1189,-193 1189,-193 1189,-233 1189,-233 1189,-239 1183,-245 1177,-245 1177,-245 1101,-245 1101,-245 1095,-245 1089,-239 1089,-233 1089,-233 1089,-193 1089,-193 1089,-187 1095,-181 1101,-181"/>
<text text-anchor="start" x="1110" y="-166.8" font-family="Arial" font-weight="bold" font-size="14.00">air_temp</text>
</g>
<!-- 17&#45;&gt;18 -->
<g id="edge17" class="edge">
<title>17&#45;&gt;18</title>
<path fill="none" stroke="#888888" d="M1139,-307.67C1139,-299.39 1139,-290.83 1139,-282.38"/>
<polygon fill="#888888" stroke="#888888" points="1142.5,-282.18 1139,-272.18 1135.5,-282.18 1142.5,-282.18"/>
</g>
<!-- 21 -->
<g id="node19" class="node">
<title>21</title>
<text text-anchor="start" x="1267" y="-253.8" font-family="Arial" font-weight="bold" font-size="14.00"> ≥ 20.5</text>
<path fill="#f8766d" fill-opacity="0.662745" stroke="transparent" d="M1243,-181C1243,-181 1333,-181 1333,-181 1339,-181 1345,-187 1345,-193 1345,-193 1345,-233 1345,-233 1345,-239 1339,-245 1333,-245 1333,-245 1243,-245 1243,-245 1237,-245 1231,-239 1231,-233 1231,-233 1231,-193 1231,-193 1231,-187 1237,-181 1243,-181"/>
<text text-anchor="start" x="1232" y="-242.4" font-family="Arial" font-size="2.00"> </text>
<text text-anchor="start" x="1232" y="-236.4" font-family="Arial" font-size="7.00"> &#160;21</text>
<text text-anchor="start" x="1246" y="-219.8" font-family="Arial" font-weight="bold" font-size="14.00">Predict 28.09</text>
<text text-anchor="start" x="1268" y="-202.8" font-family="Arial" font-weight="bold" font-size="14.00">n = 60</text>
<text text-anchor="start" x="1286.5" y="-184.8" font-family="Arial" font-size="9.00"> </text>
<path fill="none" stroke="#333333" d="M1243,-181C1243,-181 1333,-181 1333,-181 1339,-181 1345,-187 1345,-193 1345,-193 1345,-233 1345,-233 1345,-239 1339,-245 1333,-245 1333,-245 1243,-245 1243,-245 1237,-245 1231,-239 1231,-233 1231,-233 1231,-193 1231,-193 1231,-187 1237,-181 1243,-181"/>
<text text-anchor="start" x="1286" y="-166.8" font-family="Arial" font-weight="bold" font-size="14.00"> </text>
</g>
<!-- 17&#45;&gt;21 -->
<g id="edge18" class="edge">
<title>17&#45;&gt;21</title>
<path fill="none" stroke="#888888" d="M1196.18,-307.67C1205.27,-298.39 1214.73,-288.75 1223.96,-279.33"/>
<polygon fill="#888888" stroke="#888888" points="1226.47,-281.77 1230.97,-272.18 1221.47,-276.87 1226.47,-281.77"/>
</g>
<!-- 12 -->
<g id="node14" class="node">
<title>12</title>
<text text-anchor="start" x="505.5" y="-99.8" font-family="Arial" font-weight="bold" font-size="14.00"> &lt; 5.5</text>
<path fill="#f8766d" fill-opacity="0.839216" stroke="transparent" d="M478,-27C478,-27 568,-27 568,-27 574,-27 580,-33 580,-39 580,-39 580,-79 580,-79 580,-85 574,-91 568,-91 568,-91 478,-91 478,-91 472,-91 466,-85 466,-79 466,-79 466,-39 466,-39 466,-33 472,-27 478,-27"/>
<text text-anchor="start" x="467" y="-88.4" font-family="Arial" font-size="2.00"> </text>
<text text-anchor="start" x="467" y="-82.4" font-family="Arial" font-size="7.00"> &#160;12</text>
<text text-anchor="start" x="481" y="-65.8" font-family="Arial" font-weight="bold" font-size="14.00">Predict 23.64</text>
<text text-anchor="start" x="499.5" y="-48.8" font-family="Arial" font-weight="bold" font-size="14.00">n = 120</text>
<text text-anchor="start" x="521.5" y="-30.8" font-family="Arial" font-size="9.00"> </text>
<path fill="none" stroke="#333333" d="M478,-27C478,-27 568,-27 568,-27 574,-27 580,-33 580,-39 580,-39 580,-79 580,-79 580,-85 574,-91 568,-91 568,-91 478,-91 478,-91 472,-91 466,-85 466,-79 466,-79 466,-39 466,-39 466,-33 472,-27 478,-27"/>
<text text-anchor="start" x="521" y="-12.8" font-family="Arial" font-weight="bold" font-size="14.00"> </text>
</g>
<!-- 11&#45;&gt;12 -->
<g id="edge13" class="edge">
<title>11&#45;&gt;12</title>
<path fill="none" stroke="#888888" d="M620.98,-153.67C611.28,-144.39 601.19,-134.75 591.34,-125.33"/>
<polygon fill="#888888" stroke="#888888" points="593.5,-122.56 583.86,-118.18 588.67,-127.62 593.5,-122.56"/>
</g>
<!-- 13 -->
<g id="node15" class="node">
<title>13</title>
<text text-anchor="start" x="662" y="-99.8" font-family="Arial" font-weight="bold" font-size="14.00"> ≥ 5.5</text>
<path fill="#f8766d" fill-opacity="0.615686" stroke="transparent" d="M634,-27C634,-27 724,-27 724,-27 730,-27 736,-33 736,-39 736,-39 736,-79 736,-79 736,-85 730,-91 724,-91 724,-91 634,-91 634,-91 628,-91 622,-85 622,-79 622,-79 622,-39 622,-39 622,-33 628,-27 634,-27"/>
<text text-anchor="start" x="623" y="-88.4" font-family="Arial" font-size="2.00"> </text>
<text text-anchor="start" x="623" y="-82.4" font-family="Arial" font-size="7.00"> &#160;13</text>
<text text-anchor="start" x="637" y="-65.8" font-family="Arial" font-weight="bold" font-size="14.00">Predict 29.29</text>
<text text-anchor="start" x="659" y="-48.8" font-family="Arial" font-weight="bold" font-size="14.00">n = 20</text>
<text text-anchor="start" x="677.5" y="-30.8" font-family="Arial" font-size="9.00"> </text>
<path fill="none" stroke="#333333" d="M634,-27C634,-27 724,-27 724,-27 730,-27 736,-33 736,-39 736,-39 736,-79 736,-79 736,-85 730,-91 724,-91 724,-91 634,-91 634,-91 628,-91 622,-85 622,-79 622,-79 622,-39 622,-39 622,-33 628,-27 634,-27"/>
<text text-anchor="start" x="677" y="-12.8" font-family="Arial" font-weight="bold" font-size="14.00"> </text>
</g>
<!-- 11&#45;&gt;13 -->
<g id="edge14" class="edge">
<title>11&#45;&gt;13</title>
<path fill="none" stroke="#888888" d="M680.85,-153.67C680.69,-145.39 680.52,-136.83 680.35,-128.38"/>
<polygon fill="#888888" stroke="#888888" points="683.84,-128.11 680.15,-118.18 676.85,-128.24 683.84,-128.11"/>
</g>
<!-- 15 -->
<g id="node16" class="node">
<title>15</title>
<text text-anchor="start" x="814" y="-99.8" font-family="Arial" font-weight="bold" font-size="14.00"> &lt; 11.5</text>
<path fill="#f8766d" fill-opacity="0.376471" stroke="transparent" d="M790,-27C790,-27 880,-27 880,-27 886,-27 892,-33 892,-39 892,-39 892,-79 892,-79 892,-85 886,-91 880,-91 880,-91 790,-91 790,-91 784,-91 778,-85 778,-79 778,-79 778,-39 778,-39 778,-33 784,-27 790,-27"/>
<text text-anchor="start" x="779" y="-88.4" font-family="Arial" font-size="2.00"> </text>
<text text-anchor="start" x="779" y="-82.4" font-family="Arial" font-size="7.00"> &#160;15</text>
<text text-anchor="start" x="793" y="-65.8" font-family="Arial" font-weight="bold" font-size="14.00">Predict 35.49</text>
<text text-anchor="start" x="811.5" y="-48.8" font-family="Arial" font-weight="bold" font-size="14.00">n = 100</text>
<text text-anchor="start" x="833.5" y="-30.8" font-family="Arial" font-size="9.00"> </text>
<path fill="none" stroke="#333333" d="M790,-27C790,-27 880,-27 880,-27 886,-27 892,-33 892,-39 892,-39 892,-79 892,-79 892,-85 886,-91 880,-91 880,-91 790,-91 790,-91 784,-91 778,-85 778,-79 778,-79 778,-39 778,-39 778,-33 784,-27 790,-27"/>
<text text-anchor="start" x="833" y="-12.8" font-family="Arial" font-weight="bold" font-size="14.00"> </text>
</g>
<!-- 14&#45;&gt;15 -->
<g id="edge15" class="edge">
<title>14&#45;&gt;15</title>
<path fill="none" stroke="#888888" d="M835,-153.67C835,-145.39 835,-136.83 835,-128.38"/>
<polygon fill="#888888" stroke="#888888" points="838.5,-128.18 835,-118.18 831.5,-128.18 838.5,-128.18"/>
</g>
<!-- 16 -->
<g id="node17" class="node">
<title>16</title>
<text text-anchor="start" x="966.5" y="-99.8" font-family="Arial" font-weight="bold" font-size="14.00"> ≥ 11.5</text>
<path fill="#f8766d" fill-opacity="0.450980" stroke="transparent" d="M946,-27C946,-27 1028,-27 1028,-27 1034,-27 1040,-33 1040,-39 1040,-39 1040,-79 1040,-79 1040,-85 1034,-91 1028,-91 1028,-91 946,-91 946,-91 940,-91 934,-85 934,-79 934,-79 934,-39 934,-39 934,-33 940,-27 946,-27"/>
<text text-anchor="start" x="935" y="-88.4" font-family="Arial" font-size="2.00"> </text>
<text text-anchor="start" x="935" y="-82.4" font-family="Arial" font-size="7.00"> &#160;16</text>
<text text-anchor="start" x="949" y="-65.8" font-family="Arial" font-weight="bold" font-size="14.00">Predict 33.6</text>
<text text-anchor="start" x="967" y="-48.8" font-family="Arial" font-weight="bold" font-size="14.00">n = 60</text>
<text text-anchor="start" x="985.5" y="-30.8" font-family="Arial" font-size="9.00"> </text>
<path fill="none" stroke="#333333" d="M946,-27C946,-27 1028,-27 1028,-27 1034,-27 1040,-33 1040,-39 1040,-39 1040,-79 1040,-79 1040,-85 1034,-91 1028,-91 1028,-91 946,-91 946,-91 940,-91 934,-85 934,-79 934,-79 934,-39 934,-39 934,-33 940,-27 946,-27"/>
<text text-anchor="start" x="985" y="-12.8" font-family="Arial" font-weight="bold" font-size="14.00"> </text>
</g>
<!-- 14&#45;&gt;16 -->
<g id="edge16" class="edge">
<title>14&#45;&gt;16</title>
<path fill="none" stroke="#888888" d="M893.33,-153.67C902.61,-144.39 912.25,-134.75 921.67,-125.33"/>
<polygon fill="#888888" stroke="#888888" points="924.23,-127.72 928.82,-118.18 919.28,-122.77 924.23,-127.72"/>
</g>
<!-- 19 -->
<g id="node20" class="node">
<title>19</title>
<text text-anchor="start" x="1114" y="-99.8" font-family="Arial" font-weight="bold" font-size="14.00"> &lt; 27.95</text>
<path fill="#f8766d" fill-opacity="0.529412" stroke="transparent" d="M1094,-27C1094,-27 1184,-27 1184,-27 1190,-27 1196,-33 1196,-39 1196,-39 1196,-79 1196,-79 1196,-85 1190,-91 1184,-91 1184,-91 1094,-91 1094,-91 1088,-91 1082,-85 1082,-79 1082,-79 1082,-39 1082,-39 1082,-33 1088,-27 1094,-27"/>
<text text-anchor="start" x="1083" y="-88.4" font-family="Arial" font-size="2.00"> </text>
<text text-anchor="start" x="1083" y="-82.4" font-family="Arial" font-size="7.00"> &#160;19</text>
<text text-anchor="start" x="1097" y="-65.8" font-family="Arial" font-weight="bold" font-size="14.00">Predict 31.51</text>
<text text-anchor="start" x="1119" y="-48.8" font-family="Arial" font-weight="bold" font-size="14.00">n = 84</text>
<text text-anchor="start" x="1137.5" y="-30.8" font-family="Arial" font-size="9.00"> </text>
<path fill="none" stroke="#333333" d="M1094,-27C1094,-27 1184,-27 1184,-27 1190,-27 1196,-33 1196,-39 1196,-39 1196,-79 1196,-79 1196,-85 1190,-91 1184,-91 1184,-91 1094,-91 1094,-91 1088,-91 1082,-85 1082,-79 1082,-79 1082,-39 1082,-39 1082,-33 1088,-27 1094,-27"/>
<text text-anchor="start" x="1137" y="-12.8" font-family="Arial" font-weight="bold" font-size="14.00"> </text>
</g>
<!-- 18&#45;&gt;19 -->
<g id="edge19" class="edge">
<title>18&#45;&gt;19</title>
<path fill="none" stroke="#888888" d="M1139,-153.67C1139,-145.39 1139,-136.83 1139,-128.38"/>
<polygon fill="#888888" stroke="#888888" points="1142.5,-128.18 1139,-118.18 1135.5,-128.18 1142.5,-128.18"/>
</g>
<!-- 20 -->
<g id="node21" class="node">
<title>20</title>
<text text-anchor="start" x="1270.5" y="-99.8" font-family="Arial" font-weight="bold" font-size="14.00"> ≥ 27.95</text>
<path fill="#f8766d" fill-opacity="0.478431" stroke="transparent" d="M1250,-27C1250,-27 1340,-27 1340,-27 1346,-27 1352,-33 1352,-39 1352,-39 1352,-79 1352,-79 1352,-85 1346,-91 1340,-91 1340,-91 1250,-91 1250,-91 1244,-91 1238,-85 1238,-79 1238,-79 1238,-39 1238,-39 1238,-33 1244,-27 1250,-27"/>
<text text-anchor="start" x="1239" y="-88.4" font-family="Arial" font-size="2.00"> </text>
<text text-anchor="start" x="1239" y="-82.4" font-family="Arial" font-size="7.00"> &#160;20</text>
<text text-anchor="start" x="1253" y="-65.8" font-family="Arial" font-weight="bold" font-size="14.00">Predict 32.83</text>
<text text-anchor="start" x="1275" y="-48.8" font-family="Arial" font-weight="bold" font-size="14.00">n = 36</text>
<text text-anchor="start" x="1293.5" y="-30.8" font-family="Arial" font-size="9.00"> </text>
<path fill="none" stroke="#333333" d="M1250,-27C1250,-27 1340,-27 1340,-27 1346,-27 1352,-33 1352,-39 1352,-39 1352,-79 1352,-79 1352,-85 1346,-91 1340,-91 1340,-91 1250,-91 1250,-91 1244,-91 1238,-85 1238,-79 1238,-79 1238,-39 1238,-39 1238,-33 1244,-27 1250,-27"/>
<text text-anchor="start" x="1293" y="-12.8" font-family="Arial" font-weight="bold" font-size="14.00"> </text>
</g>
<!-- 18&#45;&gt;20 -->
<g id="edge20" class="edge">
<title>18&#45;&gt;20</title>
<path fill="none" stroke="#888888" d="M1198.87,-153.67C1208.38,-144.39 1218.28,-134.75 1227.95,-125.33"/>
<polygon fill="#888888" stroke="#888888" points="1230.57,-127.66 1235.29,-118.18 1225.69,-122.65 1230.57,-127.66"/>
</g>
</g>
</svg>
