<?xml version="1.0" encoding="UTF-8" standalone="no"?>
<!DOCTYPE svg PUBLIC "-//W3C//DTD SVG 1.1//EN"
 "http://www.w3.org/Graphics/SVG/1.1/DTD/svg11.dtd">
<!-- Generated by graphviz version 2.50.0 (20211204.2007)
 -->
<!-- Pages: 1 -->
<svg width="927pt" height="588pt"
 viewBox="0.00 0.00 927.00 588.00" xmlns="http://www.w3.org/2000/svg" xmlns:xlink="http://www.w3.org/1999/xlink">
<g id="graph0" class="graph" transform="scale(1 1) rotate(0) translate(4 584)">
<polygon fill="white" stroke="transparent" points="-4,4 -4,-584 923,-584 923,4 -4,4"/>
<!-- 1 -->
<g id="node1" class="node">
<title>1</title>
<text text-anchor="start" x="315" y="-561.8" font-family="Arial" font-weight="bold" font-size="14.00"> </text>
<path fill="#ebebeb" stroke="transparent" d="M275,-489C275,-489 359,-489 359,-489 365,-489 371,-495 371,-501 371,-501 371,-541 371,-541 371,-547 365,-553 359,-553 359,-553 275,-553 275,-553 269,-553 263,-547 263,-541 263,-541 263,-501 263,-501 263,-495 269,-489 275,-489"/>
<text text-anchor="start" x="264" y="-550.4" font-family="Arial" font-size="2.00"> </text>
<text text-anchor="start" x="264" y="-544.4" font-family="Arial" font-size="7.00"> &#160;1</text>
<text text-anchor="start" x="278" y="-527.8" font-family="Arial" font-weight="bold" font-size="14.00">Mean: 21.77</text>
<text text-anchor="start" x="293.5" y="-510.8" font-family="Arial" font-weight="bold" font-size="14.00">n = 672</text>
<text text-anchor="start" x="315.5" y="-492.8" font-family="Arial" font-size="9.00"> </text>
<path fill="none" stroke="#333333" d="M275,-489C275,-489 359,-489 359,-489 365,-489 371,-495 371,-501 371,-501 371,-541 371,-541 371,-547 365,-553 359,-553 359,-553 275,-553 275,-553 269,-553 263,-547 263,-541 263,-541 263,-501 263,-501 263,-495 269,-489 275,-489"/>
<text text-anchor="start" x="287.5" y="-474.8" font-family="Arial" font-weight="bold" font-size="14.00">day_type</text>
</g>
<!-- 2 -->
<g id="node2" class="node">
<title>2</title>
<text text-anchor="start" x="216.5" y="-407.8" font-family="Arial" font-weight="bold" font-size="14.00"> &lt; 0.5</text>
<text text-anchor="start" x="162" y="-363.3" font-family="Arial" font-size="14.00"> &#160;&#160;&#160;</text>
<path fill="#ebebeb" stroke="transparent" d="M192,-335C192,-335 276,-335 276,-335 282,-335 288,-341 288,-347 288,-347 288,-387 288,-387 288,-393 282,-399 276,-399 276,-399 192,-399 192,-399 186,-399 180,-393 180,-387 180,-387 180,-347 180,-347 180,-341 186,-335 192,-335"/>
<text text-anchor="start" x="181" y="-396.4" font-family="Arial" font-size="2.00"> </text>
<text text-anchor="start" x="181" y="-390.4" font-family="Arial" font-size="7.00"> &#160;2</text>
<text text-anchor="start" x="195" y="-373.8" font-family="Arial" font-weight="bold" font-size="14.00">Mean: 19.15</text>
<text text-anchor="start" x="210.5" y="-356.8" font-family="Arial" font-weight="bold" font-size="14.00">n = 192</text>
<text text-anchor="start" x="232.5" y="-338.8" font-family="Arial" font-size="9.00"> </text>
<path fill="none" stroke="#333333" d="M192,-335C192,-335 276,-335 276,-335 282,-335 288,-341 288,-347 288,-347 288,-387 288,-387 288,-393 282,-399 276,-399 276,-399 192,-399 192,-399 186,-399 180,-393 180,-387 180,-387 180,-347 180,-347 180,-341 186,-335 192,-335"/>
<text text-anchor="start" x="290" y="-363.3" font-family="Arial" font-size="14.00"> &#160;&#160;&#160;</text>
<text text-anchor="start" x="176.5" y="-320.8" font-family="Arial" font-weight="bold" font-size="14.00">prev_168h_inflow</text>
</g>
<!-- 1&#45;&gt;2 -->
<g id="edge1" class="edge">
<title>1&#45;&gt;2</title>
<path fill="none" stroke="#888888" d="M285.15,-461.67C280.38,-452.94 275.44,-443.88 270.58,-434.99"/>
<polygon fill="#888888" stroke="#888888" points="273.63,-433.28 265.77,-426.18 267.49,-436.63 273.63,-433.28"/>
</g>
<!-- 7 -->
<g id="node3" class="node">
<title>7</title>
<text text-anchor="start" x="454" y="-407.8" font-family="Arial" font-weight="bold" font-size="14.00"> ≥ 0.5</text>
<path fill="#ebebeb" stroke="transparent" d="M429,-335C429,-335 513,-335 513,-335 519,-335 525,-341 525,-347 525,-347 525,-387 525,-387 525,-393 519,-399 513,-399 513,-399 429,-399 429,-399 423,-399 417,-393 417,-387 417,-387 417,-347 417,-347 417,-341 423,-335 429,-335"/>
<text text-anchor="start" x="418" y="-396.4" font-family="Arial" font-size="2.00"> </text>
<text text-anchor="start" x="418" y="-390.4" font-family="Arial" font-size="7.00"> &#160;7</text>
<text text-anchor="start" x="432" y="-373.8" font-family="Arial" font-weight="bold" font-size="14.00">Mean: 22.81</text>
<text text-anchor="start" x="447.5" y="-356.8" font-family="Arial" font-weight="bold" font-size="14.00">n = 480</text>
<text text-anchor="start" x="469.5" y="-338.8" font-family="Arial" font-size="9.00"> </text>
<path fill="none" stroke="#333333" d="M429,-335C429,-335 513,-335 513,-335 519,-335 525,-341 525,-347 525,-347 525,-387 525,-387 525,-393 519,-399 513,-399 513,-399 429,-399 429,-399 423,-399 417,-393 417,-387 417,-387 417,-347 417,-347 417,-341 423,-335 429,-335"/>
<text text-anchor="start" x="456.5" y="-320.8" font-family="Arial" font-weight="bold" font-size="14.00">time</text>
</g>
<!-- 1&#45;&gt;7 -->
<g id="edge2" class="edge">
<title>1&#45;&gt;7</title>
<path fill="none" stroke="#888888" d="M376.1,-461.67C385.5,-452.39 395.27,-442.75 404.81,-433.33"/>
<polygon fill="#888888" stroke="#888888" points="407.4,-435.69 412.06,-426.18 402.48,-430.71 407.4,-435.69"/>
</g>
<!-- 3 -->
<g id="node4" class="node">
<title>3</title>
<text text-anchor="start" x="44" y="-253.8" font-family="Arial" font-weight="bold" font-size="14.00"> &lt; 18.89</text>
<path fill="#f8766d" fill-opacity="0.874510" stroke="transparent" d="M24,-181C24,-181 114,-181 114,-181 120,-181 126,-187 126,-193 126,-193 126,-233 126,-233 126,-239 120,-245 114,-245 114,-245 24,-245 24,-245 18,-245 12,-239 12,-233 12,-233 12,-193 12,-193 12,-187 18,-181 24,-181"/>
<text text-anchor="start" x="13" y="-242.4" font-family="Arial" font-size="2.00"> </text>
<text text-anchor="start" x="13" y="-236.4" font-family="Arial" font-size="7.00"> &#160;3</text>
<text text-anchor="start" x="27" y="-219.8" font-family="Arial" font-weight="bold" font-size="14.00">Predict 18.52</text>
<text text-anchor="start" x="49" y="-202.8" font-family="Arial" font-weight="bold" font-size="14.00">n = 99</text>
<text text-anchor="start" x="67.5" y="-184.8" font-family="Arial" font-size="9.00"> </text>
<path fill="none" stroke="#333333" d="M24,-181C24,-181 114,-181 114,-181 120,-181 126,-187 126,-193 126,-193 126,-233 126,-233 126,-239 120,-245 114,-245 114,-245 24,-245 24,-245 18,-245 12,-239 12,-233 12,-233 12,-193 12,-193 12,-187 18,-181 24,-181"/>
<text text-anchor="start" x="67" y="-166.8" font-family="Arial" font-weight="bold" font-size="14.00"> </text>
</g>
<!-- 2&#45;&gt;3 -->
<g id="edge3" class="edge">
<title>2&#45;&gt;3</title>
<path fill="none" stroke="#888888" d="M170.68,-307.67C160.51,-298.3 149.94,-288.56 139.61,-279.05"/>
<polygon fill="#888888" stroke="#888888" points="141.88,-276.38 132.15,-272.18 137.14,-281.53 141.88,-276.38"/>
</g>
<!-- 4 -->
<g id="node5" class="node">
<title>4</title>
<text text-anchor="start" x="209.5" y="-253.8" font-family="Arial" font-weight="bold" font-size="14.00"> ≥ 18.89</text>
<text text-anchor="start" x="166" y="-209.3" font-family="Arial" font-size="14.00"> &#160;&#160;</text>
<path fill="#ebebeb" stroke="transparent" d="M192,-181C192,-181 276,-181 276,-181 282,-181 288,-187 288,-193 288,-193 288,-233 288,-233 288,-239 282,-245 276,-245 276,-245 192,-245 192,-245 186,-245 180,-239 180,-233 180,-233 180,-193 180,-193 180,-187 186,-181 192,-181"/>
<text text-anchor="start" x="181" y="-242.4" font-family="Arial" font-size="2.00"> </text>
<text text-anchor="start" x="181" y="-236.4" font-family="Arial" font-size="7.00"> &#160;4</text>
<text text-anchor="start" x="195" y="-219.8" font-family="Arial" font-weight="bold" font-size="14.00">Mean: 19.83</text>
<text text-anchor="start" x="214" y="-202.8" font-family="Arial" font-weight="bold" font-size="14.00">n = 93</text>
<text text-anchor="start" x="232.5" y="-184.8" font-family="Arial" font-size="9.00"> </text>
<path fill="none" stroke="#333333" d="M192,-181C192,-181 276,-181 276,-181 282,-181 288,-187 288,-193 288,-193 288,-233 288,-233 288,-239 282,-245 276,-245 276,-245 192,-245 192,-245 186,-245 180,-239 180,-233 180,-233 180,-193 180,-193 180,-187 186,-181 192,-181"/>
<text text-anchor="start" x="290" y="-209.3" font-family="Arial" font-size="14.00"> &#160;&#160;</text>
<text text-anchor="start" x="180.5" y="-166.8" font-family="Arial" font-weight="bold" font-size="14.00">prev_24h_inflow</text>
</g>
<!-- 2&#45;&gt;4 -->
<g id="edge4" class="edge">
<title>2&#45;&gt;4</title>
<path fill="none" stroke="#888888" d="M234,-307.67C234,-299.39 234,-290.83 234,-282.38"/>
<polygon fill="#888888" stroke="#888888" points="237.5,-282.18 234,-272.18 230.5,-282.18 237.5,-282.18"/>
</g>
<!-- 8 -->
<g id="node8" class="node">
<title>8</title>
<text text-anchor="start" x="453.5" y="-253.8" font-family="Arial" font-weight="bold" font-size="14.00"> &lt; 7.5</text>
<path fill="#ebebeb" stroke="transparent" d="M429,-181C429,-181 513,-181 513,-181 519,-181 525,-187 525,-193 525,-193 525,-233 525,-233 525,-239 519,-245 513,-245 513,-245 429,-245 429,-245 423,-245 417,-239 417,-233 417,-233 417,-193 417,-193 417,-187 423,-181 429,-181"/>
<text text-anchor="start" x="418" y="-242.4" font-family="Arial" font-size="2.00"> </text>
<text text-anchor="start" x="418" y="-236.4" font-family="Arial" font-size="7.00"> &#160;8</text>
<text text-anchor="start" x="432" y="-219.8" font-family="Arial" font-weight="bold" font-size="14.00">Mean: 20.24</text>
<text text-anchor="start" x="447.5" y="-202.8" font-family="Arial" font-weight="bold" font-size="14.00">n = 160</text>
<text text-anchor="start" x="469.5" y="-184.8" font-family="Arial" font-size="9.00"> </text>
<path fill="none" stroke="#333333" d="M429,-181C429,-181 513,-181 513,-181 519,-181 525,-187 525,-193 525,-193 525,-233 525,-233 525,-239 519,-245 513,-245 513,-245 429,-245 429,-245 423,-245 417,-239 417,-233 417,-233 417,-193 417,-193 417,-187 423,-181 429,-181"/>
<text text-anchor="start" x="456.5" y="-166.8" font-family="Arial" font-weight="bold" font-size="14.00">time</text>
</g>
<!-- 7&#45;&gt;8 -->
<g id="edge7" class="edge">
<title>7&#45;&gt;8</title>
<path fill="none" stroke="#888888" d="M471,-307.67C471,-299.39 471,-290.83 471,-282.38"/>
<polygon fill="#888888" stroke="#888888" points="474.5,-282.18 471,-272.18 467.5,-282.18 474.5,-282.18"/>
</g>
<!-- 11 -->
<g id="node9" class="node">
<title>11</title>
<text text-anchor="start" x="677" y="-253.8" font-family="Arial" font-weight="bold" font-size="14.00"> ≥ 7.5</text>
<path fill="#ebebeb" stroke="transparent" d="M656,-181C656,-181 732,-181 732,-181 738,-181 744,-187 744,-193 744,-193 744,-233 744,-233 744,-239 738,-245 732,-245 732,-245 656,-245 656,-245 650,-245 644,-239 644,-233 644,-233 644,-193 644,-193 644,-187 650,-181 656,-181"/>
<text text-anchor="start" x="645" y="-242.4" font-family="Arial" font-size="2.00"> </text>
<text text-anchor="start" x="645" y="-236.4" font-family="Arial" font-size="7.00"> &#160;11</text>
<text text-anchor="start" x="659" y="-219.8" font-family="Arial" font-weight="bold" font-size="14.00">Mean: 24.1</text>
<text text-anchor="start" x="670.5" y="-202.8" font-family="Arial" font-weight="bold" font-size="14.00">n = 320</text>
<text text-anchor="start" x="692.5" y="-184.8" font-family="Arial" font-size="9.00"> </text>
<path fill="none" stroke="#333333" d="M656,-181C656,-181 732,-181 732,-181 738,-181 744,-187 744,-193 744,-193 744,-233 744,-233 744,-239 738,-245 732,-245 732,-245 656,-245 656,-245 650,-245 644,-239 644,-233 644,-233 644,-193 644,-193 644,-187 650,-181 656,-181"/>
<text text-anchor="start" x="679.5" y="-166.8" font-family="Arial" font-weight="bold" font-size="14.00">time</text>
</g>
<!-- 7&#45;&gt;11 -->
<g id="edge8" class="edge">
<title>7&#45;&gt;11</title>
<path fill="none" stroke="#888888" d="M537,-321.01C564.24,-302.45 595.85,-280.9 623.53,-262.03"/>
<polygon fill="#888888" stroke="#888888" points="625.7,-264.79 631.99,-256.27 621.75,-259.01 625.7,-264.79"/>
</g>
<!-- 5 -->
<g id="node6" class="node">
<title>5</title>
<text text-anchor="start" x="53" y="-99.8" font-family="Arial" font-weight="bold" font-size="14.00"> &lt; 23.64</text>
<path fill="#f8766d" fill-opacity="0.811765" stroke="transparent" d="M33,-27C33,-27 123,-27 123,-27 129,-27 135,-33 135,-39 135,-39 135,-79 135,-79 135,-85 129,-91 123,-91 123,-91 33,-91 33,-91 27,-91 21,-85 21,-79 21,-79 21,-39 21,-39 21,-33 27,-27 33,-27"/>
<text text-anchor="start" x="22" y="-88.4" font-family="Arial" font-size="2.00"> </text>
<text text-anchor="start" x="22" y="-82.4" font-family="Arial" font-size="7.00"> &#160;5</text>
<text text-anchor="start" x="36" y="-65.8" font-family="Arial" font-weight="bold" font-size="14.00">Predict 19.45</text>
<text text-anchor="start" x="58" y="-48.8" font-family="Arial" font-weight="bold" font-size="14.00">n = 67</text>
<text text-anchor="start" x="76.5" y="-30.8" font-family="Arial" font-size="9.00"> </text>
<path fill="none" stroke="#333333" d="M33,-27C33,-27 123,-27 123,-27 129,-27 135,-33 135,-39 135,-39 135,-79 135,-79 135,-85 129,-91 123,-91 123,-91 33,-91 33,-91 27,-91 21,-85 21,-79 21,-79 21,-39 21,-39 21,-33 27,-27 33,-27"/>
<text text-anchor="start" x="76" y="-12.8" font-family="Arial" font-weight="bold" font-size="14.00"> </text>
</g>
<!-- 4&#45;&gt;5 -->
<g id="edge5" class="edge">
<title>4&#45;&gt;5</title>
<path fill="none" stroke="#888888" d="M174.13,-153.67C164.62,-144.39 154.72,-134.75 145.05,-125.33"/>
<polygon fill="#888888" stroke="#888888" points="147.31,-122.65 137.71,-118.18 142.43,-127.66 147.31,-122.65"/>
</g>
<!-- 6 -->
<g id="node7" class="node">
<title>6</title>
<text text-anchor="start" x="209.5" y="-99.8" font-family="Arial" font-weight="bold" font-size="14.00"> ≥ 23.64</text>
<path fill="#f8766d" fill-opacity="0.713725" stroke="transparent" d="M189,-27C189,-27 279,-27 279,-27 285,-27 291,-33 291,-39 291,-39 291,-79 291,-79 291,-85 285,-91 279,-91 279,-91 189,-91 189,-91 183,-91 177,-85 177,-79 177,-79 177,-39 177,-39 177,-33 183,-27 189,-27"/>
<text text-anchor="start" x="178" y="-88.4" font-family="Arial" font-size="2.00"> </text>
<text text-anchor="start" x="178" y="-82.4" font-family="Arial" font-size="7.00"> &#160;6</text>
<text text-anchor="start" x="192" y="-65.8" font-family="Arial" font-weight="bold" font-size="14.00">Predict 20.82</text>
<text text-anchor="start" x="214" y="-48.8" font-family="Arial" font-weight="bold" font-size="14.00">n = 26</text>
<text text-anchor="start" x="232.5" y="-30.8" font-family="Arial" font-size="9.00"> </text>
<path fill="none" stroke="#333333" d="M189,-27C189,-27 279,-27 279,-27 285,-27 291,-33 291,-39 291,-39 291,-79 291,-79 291,-85 285,-91 279,-91 279,-91 189,-91 189,-91 183,-91 177,-85 177,-79 177,-79 177,-39 177,-39 177,-33 183,-27 189,-27"/>
<text text-anchor="start" x="232" y="-12.8" font-family="Arial" font-weight="bold" font-size="14.00"> </text>
</g>
<!-- 4&#45;&gt;6 -->
<g id="edge6" class="edge">
<title>4&#45;&gt;6</title>
<path fill="none" stroke="#888888" d="M234,-153.67C234,-145.39 234,-136.83 234,-128.38"/>
<polygon fill="#888888" stroke="#888888" points="237.5,-128.18 234,-118.18 230.5,-128.18 237.5,-128.18"/>
</g>
<!-- 9 -->
<g id="node10" class="node">
<title>9</title>
<text text-anchor="start" x="372.5" y="-99.8" font-family="Arial" font-weight="bold" font-size="14.00"> &lt; 5.5</text>
<path fill="#f8766d" fill-opacity="0.807843" stroke="transparent" d="M345,-27C345,-27 435,-27 435,-27 441,-27 447,-33 447,-39 447,-39 447,-79 447,-79 447,-85 441,-91 435,-91 435,-91 345,-91 345,-91 339,-91 333,-85 333,-79 333,-79 333,-39 333,-39 333,-33 339,-27 345,-27"/>
<text text-anchor="start" x="334" y="-88.4" font-family="Arial" font-size="2.00"> </text>
<text text-anchor="start" x="334" y="-82.4" font-family="Arial" font-size="7.00"> &#160;9</text>
<text text-anchor="start" x="348" y="-65.8" font-family="Arial" font-weight="bold" font-size="14.00">Predict 19.46</text>
<text text-anchor="start" x="366.5" y="-48.8" font-family="Arial" font-weight="bold" font-size="14.00">n = 120</text>
<text text-anchor="start" x="388.5" y="-30.8" font-family="Arial" font-size="9.00"> </text>
<path fill="none" stroke="#333333" d="M345,-27C345,-27 435,-27 435,-27 441,-27 447,-33 447,-39 447,-39 447,-79 447,-79 447,-85 441,-91 435,-91 435,-91 345,-91 345,-91 339,-91 333,-85 333,-79 333,-79 333,-39 333,-39 333,-33 339,-27 345,-27"/>
<text text-anchor="start" x="388" y="-12.8" font-family="Arial" font-weight="bold" font-size="14.00"> </text>
</g>
<!-- 8&#45;&gt;9 -->
<g id="edge9" class="edge">
<title>8&#45;&gt;9</title>
<path fill="none" stroke="#888888" d="M439.91,-153.67C435.31,-145.03 430.54,-136.07 425.85,-127.27"/>
<polygon fill="#888888" stroke="#888888" points="428.79,-125.36 421,-118.18 422.62,-128.65 428.79,-125.36"/>
</g>
<!-- 10 -->
<g id="node11" class="node">
<title>10</title>
<text text-anchor="start" x="525" y="-99.8" font-family="Arial" font-weight="bold" font-size="14.00"> ≥ 5.5</text>
<path fill="#f8766d" fill-opacity="0.588235" stroke="transparent" d="M501,-27C501,-27 583,-27 583,-27 589,-27 595,-33 595,-39 595,-39 595,-79 595,-79 595,-85 589,-91 583,-91 583,-91 501,-91 501,-91 495,-91 489,-85 489,-79 489,-79 489,-39 489,-39 489,-33 495,-27 501,-27"/>
<text text-anchor="start" x="490" y="-88.4" font-family="Arial" font-size="2.00"> </text>
<text text-anchor="start" x="490" y="-82.4" font-family="Arial" font-size="7.00"> &#160;10</text>
<text text-anchor="start" x="504" y="-65.8" font-family="Arial" font-weight="bold" font-size="14.00">Predict 22.6</text>
<text text-anchor="start" x="522" y="-48.8" font-family="Arial" font-weight="bold" font-size="14.00">n = 40</text>
<text text-anchor="start" x="540.5" y="-30.8" font-family="Arial" font-size="9.00"> </text>
<path fill="none" stroke="#333333" d="M501,-27C501,-27 583,-27 583,-27 589,-27 595,-33 595,-39 595,-39 595,-79 595,-79 595,-85 589,-91 583,-91 583,-91 501,-91 501,-91 495,-91 489,-85 489,-79 489,-79 489,-39 489,-39 489,-33 495,-27 501,-27"/>
<text text-anchor="start" x="540" y="-12.8" font-family="Arial" font-weight="bold" font-size="14.00"> </text>
</g>
<!-- 8&#45;&gt;10 -->
<g id="edge10" class="edge">
<title>8&#45;&gt;10</title>
<path fill="none" stroke="#888888" d="M498.25,-153.67C502.28,-145.03 506.47,-136.07 510.58,-127.27"/>
<polygon fill="#888888" stroke="#888888" points="513.76,-128.72 514.83,-118.18 507.42,-125.76 513.76,-128.72"/>
</g>
<!-- 12 -->
<g id="node12" class="node">
<title>12</title>
<text text-anchor="start" x="672.5" y="-99.8" font-family="Arial" font-weight="bold" font-size="14.00"> &lt; 16.5</text>
<path fill="#f8766d" fill-opacity="0.376471" stroke="transparent" d="M649,-27C649,-27 739,-27 739,-27 745,-27 751,-33 751,-39 751,-39 751,-79 751,-79 751,-85 745,-91 739,-91 739,-91 649,-91 649,-91 643,-91 637,-85 637,-79 637,-79 637,-39 637,-39 637,-33 643,-27 649,-27"/>
<text text-anchor="start" x="638" y="-88.4" font-family="Arial" font-size="2.00"> </text>
<text text-anchor="start" x="638" y="-82.4" font-family="Arial" font-size="7.00"> &#160;12</text>
<text text-anchor="start" x="652" y="-65.8" font-family="Arial" font-weight="bold" font-size="14.00">Predict 25.64</text>
<text text-anchor="start" x="670.5" y="-48.8" font-family="Arial" font-weight="bold" font-size="14.00">n = 180</text>
<text text-anchor="start" x="692.5" y="-30.8" font-family="Arial" font-size="9.00"> </text>
<path fill="none" stroke="#333333" d="M649,-27C649,-27 739,-27 739,-27 745,-27 751,-33 751,-39 751,-39 751,-79 751,-79 751,-85 745,-91 739,-91 739,-91 649,-91 649,-91 643,-91 637,-85 637,-79 637,-79 637,-39 637,-39 637,-33 643,-27 649,-27"/>
<text text-anchor="start" x="692" y="-12.8" font-family="Arial" font-weight="bold" font-size="14.00"> </text>
</g>
<!-- 11&#45;&gt;12 -->
<g id="edge11" class="edge">
<title>11&#45;&gt;12</title>
<path fill="none" stroke="#888888" d="M694,-153.67C694,-145.39 694,-136.83 694,-128.38"/>
<polygon fill="#888888" stroke="#888888" points="697.5,-128.18 694,-118.18 690.5,-128.18 697.5,-128.18"/>
</g>
<!-- 13 -->
<g id="node13" class="node">
<title>13</title>
<text text-anchor="start" x="829" y="-99.8" font-family="Arial" font-weight="bold" font-size="14.00"> ≥ 16.5</text>
<path fill="#f8766d" fill-opacity="0.623529" stroke="transparent" d="M805,-27C805,-27 895,-27 895,-27 901,-27 907,-33 907,-39 907,-39 907,-79 907,-79 907,-85 901,-91 895,-91 895,-91 805,-91 805,-91 799,-91 793,-85 793,-79 793,-79 793,-39 793,-39 793,-33 799,-27 805,-27"/>
<text text-anchor="start" x="794" y="-88.4" font-family="Arial" font-size="2.00"> </text>
<text text-anchor="start" x="794" y="-82.4" font-family="Arial" font-size="7.00"> &#160;13</text>
<text text-anchor="start" x="808" y="-65.8" font-family="Arial" font-weight="bold" font-size="14.00">Predict 22.12</text>
<text text-anchor="start" x="826.5" y="-48.8" font-family="Arial" font-weight="bold" font-size="14.00">n = 140</text>
<text text-anchor="start" x="848.5" y="-30.8" font-family="Arial" font-size="9.00"> </text>
<path fill="none" stroke="#333333" d="M805,-27C805,-27 895,-27 895,-27 901,-27 907,-33 907,-39 907,-39 907,-79 907,-79 907,-85 901,-91 895,-91 895,-91 805,-91 805,-91 799,-91 793,-85 793,-79 793,-79 793,-39 793,-39 793,-33 799,-27 805,-27"/>
<text text-anchor="start" x="848" y="-12.8" font-family="Arial" font-weight="bold" font-size="14.00"> </text>
</g>
<!-- 11&#45;&gt;13 -->
<g id="edge12" class="edge">
<title>11&#45;&gt;13</title>
<path fill="none" stroke="#888888" d="M753.87,-153.67C763.38,-144.39 773.28,-134.75 782.95,-125.33"/>
<polygon fill="#888888" stroke="#888888" points="785.57,-127.66 790.29,-118.18 780.69,-122.65 785.57,-127.66"/>
</g>
</g>
</svg>
