<?xml version="1.0" encoding="utf-8"?>
<svg xmlns="http://www.w3.org/2000/svg" xmlns:xlink="http://www.w3.org/1999/xlink" width="1000" height="400" viewBox="0 0 4000 1600">
<defs>
  <clipPath id="clip300">
    <rect x="0" y="0" width="4000" height="1600"/>
  </clipPath>
</defs>
<path clip-path="url(#clip300)" d="M0 1600 L4000 1600 L4000 0 L0 0  Z" fill="#ffffff" fill-rule="evenodd" fill-opacity="1"/>
<defs>
  <clipPath id="clip301">
    <rect x="800" y="0" width="2801" height="1600"/>
  </clipPath>
</defs>
<path clip-path="url(#clip300)" d="M203.123 1497.68 L3180.15 1497.68 L3180.15 47.2441 L203.123 47.2441  Z" fill="#ffffff" fill-rule="evenodd" fill-opacity="1"/>
<defs>
  <clipPath id="clip302">
    <rect x="203" y="47" width="2978" height="1451"/>
  </clipPath>
</defs>
<polyline clip-path="url(#clip302)" style="stroke:#000000; stroke-linecap:round; stroke-linejoin:round; stroke-width:2; stroke-opacity:0.1; fill:none" points="287.379,1497.68 287.379,47.2441 "/>
<polyline clip-path="url(#clip302)" style="stroke:#000000; stroke-linecap:round; stroke-linejoin:round; stroke-width:2; stroke-opacity:0.1; fill:none" points="1094.62,1497.68 1094.62,47.2441 "/>
<polyline clip-path="url(#clip302)" style="stroke:#000000; stroke-linecap:round; stroke-linejoin:round; stroke-width:2; stroke-opacity:0.1; fill:none" points="1901.85,1497.68 1901.85,47.2441 "/>
<polyline clip-path="url(#clip302)" style="stroke:#000000; stroke-linecap:round; stroke-linejoin:round; stroke-width:2; stroke-opacity:0.1; fill:none" points="2709.09,1497.68 2709.09,47.2441 "/>
<polyline clip-path="url(#clip300)" style="stroke:#000000; stroke-linecap:round; stroke-linejoin:round; stroke-width:4; stroke-opacity:1; fill:none" points="203.123,1497.68 3180.15,1497.68 "/>
<polyline clip-path="url(#clip300)" style="stroke:#000000; stroke-linecap:round; stroke-linejoin:round; stroke-width:4; stroke-opacity:1; fill:none" points="287.379,1497.68 287.379,1478.78 "/>
<polyline clip-path="url(#clip300)" style="stroke:#000000; stroke-linecap:round; stroke-linejoin:round; stroke-width:4; stroke-opacity:1; fill:none" points="1094.62,1497.68 1094.62,1478.78 "/>
<polyline clip-path="url(#clip300)" style="stroke:#000000; stroke-linecap:round; stroke-linejoin:round; stroke-width:4; stroke-opacity:1; fill:none" points="1901.85,1497.68 1901.85,1478.78 "/>
<polyline clip-path="url(#clip300)" style="stroke:#000000; stroke-linecap:round; stroke-linejoin:round; stroke-width:4; stroke-opacity:1; fill:none" points="2709.09,1497.68 2709.09,1478.78 "/>
<path clip-path="url(#clip300)" d="M142.51 1573.85 L160.869 1573.85 L160.869 1578.28 L136.182 1578.28 L136.182 1573.85 Q139.177 1570.75 144.333 1565.55 Q149.515 1560.31 150.843 1558.8 Q153.369 1555.96 154.359 1554.01 Q155.374 1552.03 155.374 1550.13 Q155.374 1547.03 153.187 1545.08 Q151.025 1543.12 147.536 1543.12 Q145.062 1543.12 142.302 1543.98 Q139.567 1544.84 136.442 1546.59 L136.442 1541.27 Q139.619 1540 142.38 1539.35 Q145.14 1538.7 147.432 1538.7 Q153.473 1538.7 157.067 1541.72 Q160.661 1544.74 160.661 1549.79 Q160.661 1552.19 159.749 1554.35 Q158.864 1556.48 156.494 1559.4 Q155.843 1560.15 152.354 1563.77 Q148.864 1567.37 142.51 1573.85 Z" fill="#000000" fill-rule="nonzero" fill-opacity="1" /><path clip-path="url(#clip300)" d="M183.161 1542.86 Q179.098 1542.86 177.041 1546.87 Q175.01 1550.86 175.01 1558.88 Q175.01 1566.87 177.041 1570.88 Q179.098 1574.87 183.161 1574.87 Q187.249 1574.87 189.28 1570.88 Q191.338 1566.87 191.338 1558.88 Q191.338 1550.86 189.28 1546.87 Q187.249 1542.86 183.161 1542.86 M183.161 1538.7 Q189.697 1538.7 193.135 1543.88 Q196.598 1549.04 196.598 1558.88 Q196.598 1568.7 193.135 1573.88 Q189.697 1579.04 183.161 1579.04 Q176.624 1579.04 173.161 1573.88 Q169.723 1568.7 169.723 1558.88 Q169.723 1549.04 173.161 1543.88 Q176.624 1538.7 183.161 1538.7 Z" fill="#000000" fill-rule="nonzero" fill-opacity="1" /><path clip-path="url(#clip300)" d="M210.374 1573.85 L228.733 1573.85 L228.733 1578.28 L204.046 1578.28 L204.046 1573.85 Q207.041 1570.75 212.197 1565.55 Q217.379 1560.31 218.707 1558.8 Q221.233 1555.96 222.223 1554.01 Q223.239 1552.03 223.239 1550.13 Q223.239 1547.03 221.051 1545.08 Q218.89 1543.12 215.4 1543.12 Q212.926 1543.12 210.166 1543.98 Q207.431 1544.84 204.306 1546.59 L204.306 1541.27 Q207.483 1540 210.244 1539.35 Q213.004 1538.7 215.296 1538.7 Q221.338 1538.7 224.931 1541.72 Q228.525 1544.74 228.525 1549.79 Q228.525 1552.19 227.614 1554.35 Q226.728 1556.48 224.358 1559.4 Q223.707 1560.15 220.218 1563.77 Q216.728 1567.37 210.374 1573.85 Z" fill="#000000" fill-rule="nonzero" fill-opacity="1" /><path clip-path="url(#clip300)" d="M244.306 1573.85 L262.665 1573.85 L262.665 1578.28 L237.978 1578.28 L237.978 1573.85 Q240.973 1570.75 246.129 1565.55 Q251.311 1560.31 252.639 1558.8 Q255.165 1555.96 256.155 1554.01 Q257.171 1552.03 257.171 1550.13 Q257.171 1547.03 254.983 1545.08 Q252.822 1543.12 249.332 1543.12 Q246.858 1543.12 244.098 1543.98 Q241.363 1544.84 238.238 1546.59 L238.238 1541.27 Q241.416 1540 244.176 1539.35 Q246.936 1538.7 249.228 1538.7 Q255.27 1538.7 258.863 1541.72 Q262.457 1544.74 262.457 1549.79 Q262.457 1552.19 261.546 1554.35 Q260.66 1556.48 258.29 1559.4 Q257.639 1560.15 254.15 1563.77 Q250.66 1567.37 244.306 1573.85 Z" fill="#000000" fill-rule="nonzero" fill-opacity="1" /><path clip-path="url(#clip300)" d="M270.608 1561.54 L284.644 1561.54 L284.644 1565.81 L270.608 1565.81 L270.608 1561.54 Z" fill="#000000" fill-rule="nonzero" fill-opacity="1" /><path clip-path="url(#clip300)" d="M304.202 1542.86 Q300.139 1542.86 298.082 1546.87 Q296.051 1550.86 296.051 1558.88 Q296.051 1566.87 298.082 1570.88 Q300.139 1574.87 304.202 1574.87 Q308.29 1574.87 310.321 1570.88 Q312.379 1566.87 312.379 1558.88 Q312.379 1550.86 310.321 1546.87 Q308.29 1542.86 304.202 1542.86 M304.202 1538.7 Q310.738 1538.7 314.176 1543.88 Q317.639 1549.04 317.639 1558.88 Q317.639 1568.7 314.176 1573.88 Q310.738 1579.04 304.202 1579.04 Q297.665 1579.04 294.202 1573.88 Q290.764 1568.7 290.764 1558.88 Q290.764 1549.04 294.202 1543.88 Q297.665 1538.7 304.202 1538.7 Z" fill="#000000" fill-rule="nonzero" fill-opacity="1" /><path clip-path="url(#clip300)" d="M325.556 1539.4 L350.556 1539.4 L350.556 1541.64 L336.441 1578.28 L330.946 1578.28 L344.228 1543.83 L325.556 1543.83 L325.556 1539.4 Z" fill="#000000" fill-rule="nonzero" fill-opacity="1" /><path clip-path="url(#clip300)" d="M357.717 1561.54 L371.753 1561.54 L371.753 1565.81 L357.717 1565.81 L357.717 1561.54 Z" fill="#000000" fill-rule="nonzero" fill-opacity="1" /><path clip-path="url(#clip300)" d="M380.972 1573.85 L389.566 1573.85 L389.566 1544.19 L380.217 1546.07 L380.217 1541.27 L389.514 1539.4 L394.774 1539.4 L394.774 1573.85 L403.368 1573.85 L403.368 1578.28 L380.972 1578.28 L380.972 1573.85 Z" fill="#000000" fill-rule="nonzero" fill-opacity="1" /><path clip-path="url(#clip300)" d="M425.243 1559.82 Q421.493 1559.82 419.331 1561.82 Q417.196 1563.83 417.196 1567.34 Q417.196 1570.86 419.331 1572.86 Q421.493 1574.87 425.243 1574.87 Q428.993 1574.87 431.154 1572.86 Q433.316 1570.83 433.316 1567.34 Q433.316 1563.83 431.154 1561.82 Q429.019 1559.82 425.243 1559.82 M419.982 1557.58 Q416.597 1556.74 414.696 1554.43 Q412.821 1552.11 412.821 1548.77 Q412.821 1544.11 416.128 1541.41 Q419.461 1538.7 425.243 1538.7 Q431.05 1538.7 434.357 1541.41 Q437.665 1544.11 437.665 1548.77 Q437.665 1552.11 435.763 1554.43 Q433.888 1556.74 430.529 1557.58 Q434.331 1558.46 436.441 1561.04 Q438.576 1563.62 438.576 1567.34 Q438.576 1572.99 435.112 1576.01 Q431.675 1579.04 425.243 1579.04 Q418.81 1579.04 415.347 1576.01 Q411.909 1572.99 411.909 1567.34 Q411.909 1563.62 414.045 1561.04 Q416.18 1558.46 419.982 1557.58 M418.055 1549.27 Q418.055 1552.29 419.93 1553.98 Q421.831 1555.68 425.243 1555.68 Q428.628 1555.68 430.529 1553.98 Q432.456 1552.29 432.456 1549.27 Q432.456 1546.25 430.529 1544.56 Q428.628 1542.86 425.243 1542.86 Q421.831 1542.86 419.93 1544.56 Q418.055 1546.25 418.055 1549.27 Z" fill="#000000" fill-rule="nonzero" fill-opacity="1" /><path clip-path="url(#clip300)" d="M949.696 1573.85 L968.055 1573.85 L968.055 1578.28 L943.368 1578.28 L943.368 1573.85 Q946.363 1570.75 951.519 1565.55 Q956.701 1560.31 958.029 1558.8 Q960.555 1555.96 961.545 1554.01 Q962.56 1552.03 962.56 1550.13 Q962.56 1547.03 960.373 1545.08 Q958.211 1543.12 954.722 1543.12 Q952.248 1543.12 949.487 1543.98 Q946.753 1544.84 943.628 1546.59 L943.628 1541.27 Q946.805 1540 949.566 1539.35 Q952.326 1538.7 954.618 1538.7 Q960.659 1538.7 964.253 1541.72 Q967.847 1544.74 967.847 1549.79 Q967.847 1552.19 966.935 1554.35 Q966.05 1556.48 963.68 1559.4 Q963.029 1560.15 959.54 1563.77 Q956.05 1567.37 949.696 1573.85 Z" fill="#000000" fill-rule="nonzero" fill-opacity="1" /><path clip-path="url(#clip300)" d="M990.347 1542.86 Q986.284 1542.86 984.227 1546.87 Q982.196 1550.86 982.196 1558.88 Q982.196 1566.87 984.227 1570.88 Q986.284 1574.87 990.347 1574.87 Q994.435 1574.87 996.466 1570.88 Q998.524 1566.87 998.524 1558.88 Q998.524 1550.86 996.466 1546.87 Q994.435 1542.86 990.347 1542.86 M990.347 1538.7 Q996.883 1538.7 1000.32 1543.88 Q1003.78 1549.04 1003.78 1558.88 Q1003.78 1568.7 1000.32 1573.88 Q996.883 1579.04 990.347 1579.04 Q983.81 1579.04 980.347 1573.88 Q976.909 1568.7 976.909 1558.88 Q976.909 1549.04 980.347 1543.88 Q983.81 1538.7 990.347 1538.7 Z" fill="#000000" fill-rule="nonzero" fill-opacity="1" /><path clip-path="url(#clip300)" d="M1017.56 1573.85 L1035.92 1573.85 L1035.92 1578.28 L1011.23 1578.28 L1011.23 1573.85 Q1014.23 1570.75 1019.38 1565.55 Q1024.57 1560.31 1025.89 1558.8 Q1028.42 1555.96 1029.41 1554.01 Q1030.42 1552.03 1030.42 1550.13 Q1030.42 1547.03 1028.24 1545.08 Q1026.08 1543.12 1022.59 1543.12 Q1020.11 1543.12 1017.35 1543.98 Q1014.62 1544.84 1011.49 1546.59 L1011.49 1541.27 Q1014.67 1540 1017.43 1539.35 Q1020.19 1538.7 1022.48 1538.7 Q1028.52 1538.7 1032.12 1541.72 Q1035.71 1544.74 1035.71 1549.79 Q1035.71 1552.19 1034.8 1554.35 Q1033.91 1556.48 1031.54 1559.4 Q1030.89 1560.15 1027.4 1563.77 Q1023.91 1567.37 1017.56 1573.85 Z" fill="#000000" fill-rule="nonzero" fill-opacity="1" /><path clip-path="url(#clip300)" d="M1051.49 1573.85 L1069.85 1573.85 L1069.85 1578.28 L1045.16 1578.28 L1045.16 1573.85 Q1048.16 1570.75 1053.32 1565.55 Q1058.5 1560.31 1059.83 1558.8 Q1062.35 1555.96 1063.34 1554.01 Q1064.36 1552.03 1064.36 1550.13 Q1064.36 1547.03 1062.17 1545.08 Q1060.01 1543.12 1056.52 1543.12 Q1054.04 1543.12 1051.28 1543.98 Q1048.55 1544.84 1045.42 1546.59 L1045.42 1541.27 Q1048.6 1540 1051.36 1539.35 Q1054.12 1538.7 1056.41 1538.7 Q1062.46 1538.7 1066.05 1541.72 Q1069.64 1544.74 1069.64 1549.79 Q1069.64 1552.19 1068.73 1554.35 Q1067.85 1556.48 1065.48 1559.4 Q1064.83 1560.15 1061.34 1563.77 Q1057.85 1567.37 1051.49 1573.85 Z" fill="#000000" fill-rule="nonzero" fill-opacity="1" /><path clip-path="url(#clip300)" d="M1077.79 1561.54 L1091.83 1561.54 L1091.83 1565.81 L1077.79 1565.81 L1077.79 1561.54 Z" fill="#000000" fill-rule="nonzero" fill-opacity="1" /><path clip-path="url(#clip300)" d="M1111.39 1542.86 Q1107.33 1542.86 1105.27 1546.87 Q1103.24 1550.86 1103.24 1558.88 Q1103.24 1566.87 1105.27 1570.88 Q1107.33 1574.87 1111.39 1574.87 Q1115.48 1574.87 1117.51 1570.88 Q1119.56 1566.87 1119.56 1558.88 Q1119.56 1550.86 1117.51 1546.87 Q1115.48 1542.86 1111.39 1542.86 M1111.39 1538.7 Q1117.92 1538.7 1121.36 1543.88 Q1124.83 1549.04 1124.83 1558.88 Q1124.83 1568.7 1121.36 1573.88 Q1117.92 1579.04 1111.39 1579.04 Q1104.85 1579.04 1101.39 1573.88 Q1097.95 1568.7 1097.95 1558.88 Q1097.95 1549.04 1101.39 1543.88 Q1104.85 1538.7 1111.39 1538.7 Z" fill="#000000" fill-rule="nonzero" fill-opacity="1" /><path clip-path="url(#clip300)" d="M1132.74 1539.4 L1157.74 1539.4 L1157.74 1541.64 L1143.63 1578.28 L1138.13 1578.28 L1151.41 1543.83 L1132.74 1543.83 L1132.74 1539.4 Z" fill="#000000" fill-rule="nonzero" fill-opacity="1" /><path clip-path="url(#clip300)" d="M1164.9 1561.54 L1178.94 1561.54 L1178.94 1565.81 L1164.9 1565.81 L1164.9 1561.54 Z" fill="#000000" fill-rule="nonzero" fill-opacity="1" /><path clip-path="url(#clip300)" d="M1191.78 1573.85 L1210.14 1573.85 L1210.14 1578.28 L1185.45 1578.28 L1185.45 1573.85 Q1188.44 1570.75 1193.6 1565.55 Q1198.78 1560.31 1200.11 1558.8 Q1202.64 1555.96 1203.63 1554.01 Q1204.64 1552.03 1204.64 1550.13 Q1204.64 1547.03 1202.45 1545.08 Q1200.29 1543.12 1196.8 1543.12 Q1194.33 1543.12 1191.57 1543.98 Q1188.84 1544.84 1185.71 1546.59 L1185.71 1541.27 Q1188.89 1540 1191.65 1539.35 Q1194.41 1538.7 1196.7 1538.7 Q1202.74 1538.7 1206.34 1541.72 Q1209.93 1544.74 1209.93 1549.79 Q1209.93 1552.19 1209.02 1554.35 Q1208.13 1556.48 1205.76 1559.4 Q1205.11 1560.15 1201.62 1563.77 Q1198.13 1567.37 1191.78 1573.85 Z" fill="#000000" fill-rule="nonzero" fill-opacity="1" /><path clip-path="url(#clip300)" d="M1232.43 1542.86 Q1228.37 1542.86 1226.31 1546.87 Q1224.28 1550.86 1224.28 1558.88 Q1224.28 1566.87 1226.31 1570.88 Q1228.37 1574.87 1232.43 1574.87 Q1236.52 1574.87 1238.55 1570.88 Q1240.61 1566.87 1240.61 1558.88 Q1240.61 1550.86 1238.55 1546.87 Q1236.52 1542.86 1232.43 1542.86 M1232.43 1538.7 Q1238.97 1538.7 1242.4 1543.88 Q1245.87 1549.04 1245.87 1558.88 Q1245.87 1568.7 1242.4 1573.88 Q1238.97 1579.04 1232.43 1579.04 Q1225.89 1579.04 1222.43 1573.88 Q1218.99 1568.7 1218.99 1558.88 Q1218.99 1549.04 1222.43 1543.88 Q1225.89 1538.7 1232.43 1538.7 Z" fill="#000000" fill-rule="nonzero" fill-opacity="1" /><path clip-path="url(#clip300)" d="M1757.83 1573.85 L1776.19 1573.85 L1776.19 1578.28 L1751.5 1578.28 L1751.5 1573.85 Q1754.5 1570.75 1759.66 1565.55 Q1764.84 1560.31 1766.17 1558.8 Q1768.69 1555.96 1769.68 1554.01 Q1770.7 1552.03 1770.7 1550.13 Q1770.7 1547.03 1768.51 1545.08 Q1766.35 1543.12 1762.86 1543.12 Q1760.38 1543.12 1757.62 1543.98 Q1754.89 1544.84 1751.76 1546.59 L1751.76 1541.27 Q1754.94 1540 1757.7 1539.35 Q1760.46 1538.7 1762.75 1538.7 Q1768.8 1538.7 1772.39 1541.72 Q1775.98 1544.74 1775.98 1549.79 Q1775.98 1552.19 1775.07 1554.35 Q1774.19 1556.48 1771.82 1559.4 Q1771.17 1560.15 1767.68 1563.77 Q1764.19 1567.37 1757.83 1573.85 Z" fill="#000000" fill-rule="nonzero" fill-opacity="1" /><path clip-path="url(#clip300)" d="M1798.48 1542.86 Q1794.42 1542.86 1792.36 1546.87 Q1790.33 1550.86 1790.33 1558.88 Q1790.33 1566.87 1792.36 1570.88 Q1794.42 1574.87 1798.48 1574.87 Q1802.57 1574.87 1804.6 1570.88 Q1806.66 1566.87 1806.66 1558.88 Q1806.66 1550.86 1804.6 1546.87 Q1802.57 1542.86 1798.48 1542.86 M1798.48 1538.7 Q1805.02 1538.7 1808.46 1543.88 Q1811.92 1549.04 1811.92 1558.88 Q1811.92 1568.7 1808.46 1573.88 Q1805.02 1579.04 1798.48 1579.04 Q1791.95 1579.04 1788.48 1573.88 Q1785.05 1568.7 1785.05 1558.88 Q1785.05 1549.04 1788.48 1543.88 Q1791.95 1538.7 1798.48 1538.7 Z" fill="#000000" fill-rule="nonzero" fill-opacity="1" /><path clip-path="url(#clip300)" d="M1825.7 1573.85 L1844.06 1573.85 L1844.06 1578.28 L1819.37 1578.28 L1819.37 1573.85 Q1822.36 1570.75 1827.52 1565.55 Q1832.7 1560.31 1834.03 1558.8 Q1836.56 1555.96 1837.55 1554.01 Q1838.56 1552.03 1838.56 1550.13 Q1838.56 1547.03 1836.37 1545.08 Q1834.21 1543.12 1830.72 1543.12 Q1828.25 1543.12 1825.49 1543.98 Q1822.75 1544.84 1819.63 1546.59 L1819.63 1541.27 Q1822.81 1540 1825.57 1539.35 Q1828.33 1538.7 1830.62 1538.7 Q1836.66 1538.7 1840.25 1541.72 Q1843.85 1544.74 1843.85 1549.79 Q1843.85 1552.19 1842.94 1554.35 Q1842.05 1556.48 1839.68 1559.4 Q1839.03 1560.15 1835.54 1563.77 Q1832.05 1567.37 1825.7 1573.85 Z" fill="#000000" fill-rule="nonzero" fill-opacity="1" /><path clip-path="url(#clip300)" d="M1859.63 1573.85 L1877.99 1573.85 L1877.99 1578.28 L1853.3 1578.28 L1853.3 1573.85 Q1856.3 1570.75 1861.45 1565.55 Q1866.63 1560.31 1867.96 1558.8 Q1870.49 1555.96 1871.48 1554.01 Q1872.49 1552.03 1872.49 1550.13 Q1872.49 1547.03 1870.31 1545.08 Q1868.14 1543.12 1864.65 1543.12 Q1862.18 1543.12 1859.42 1543.98 Q1856.69 1544.84 1853.56 1546.59 L1853.56 1541.27 Q1856.74 1540 1859.5 1539.35 Q1862.26 1538.7 1864.55 1538.7 Q1870.59 1538.7 1874.19 1541.72 Q1877.78 1544.74 1877.78 1549.79 Q1877.78 1552.19 1876.87 1554.35 Q1875.98 1556.48 1873.61 1559.4 Q1872.96 1560.15 1869.47 1563.77 Q1865.98 1567.37 1859.63 1573.85 Z" fill="#000000" fill-rule="nonzero" fill-opacity="1" /><path clip-path="url(#clip300)" d="M1885.93 1561.54 L1899.97 1561.54 L1899.97 1565.81 L1885.93 1565.81 L1885.93 1561.54 Z" fill="#000000" fill-rule="nonzero" fill-opacity="1" /><path clip-path="url(#clip300)" d="M1919.52 1542.86 Q1915.46 1542.86 1913.4 1546.87 Q1911.37 1550.86 1911.37 1558.88 Q1911.37 1566.87 1913.4 1570.88 Q1915.46 1574.87 1919.52 1574.87 Q1923.61 1574.87 1925.64 1570.88 Q1927.7 1566.87 1927.7 1558.88 Q1927.7 1550.86 1925.64 1546.87 Q1923.61 1542.86 1919.52 1542.86 M1919.52 1538.7 Q1926.06 1538.7 1929.5 1543.88 Q1932.96 1549.04 1932.96 1558.88 Q1932.96 1568.7 1929.5 1573.88 Q1926.06 1579.04 1919.52 1579.04 Q1912.99 1579.04 1909.52 1573.88 Q1906.09 1568.7 1906.09 1558.88 Q1906.09 1549.04 1909.52 1543.88 Q1912.99 1538.7 1919.52 1538.7 Z" fill="#000000" fill-rule="nonzero" fill-opacity="1" /><path clip-path="url(#clip300)" d="M1940.88 1539.4 L1965.88 1539.4 L1965.88 1541.64 L1951.76 1578.28 L1946.27 1578.28 L1959.55 1543.83 L1940.88 1543.83 L1940.88 1539.4 Z" fill="#000000" fill-rule="nonzero" fill-opacity="1" /><path clip-path="url(#clip300)" d="M1973.04 1561.54 L1987.08 1561.54 L1987.08 1565.81 L1973.04 1565.81 L1973.04 1561.54 Z" fill="#000000" fill-rule="nonzero" fill-opacity="1" /><path clip-path="url(#clip300)" d="M1999.91 1573.85 L2018.27 1573.85 L2018.27 1578.28 L1993.59 1578.28 L1993.59 1573.85 Q1996.58 1570.75 2001.74 1565.55 Q2006.92 1560.31 2008.25 1558.8 Q2010.77 1555.96 2011.76 1554.01 Q2012.78 1552.03 2012.78 1550.13 Q2012.78 1547.03 2010.59 1545.08 Q2008.43 1543.12 2004.94 1543.12 Q2002.47 1543.12 1999.71 1543.98 Q1996.97 1544.84 1993.85 1546.59 L1993.85 1541.27 Q1997.02 1540 1999.78 1539.35 Q2002.54 1538.7 2004.84 1538.7 Q2010.88 1538.7 2014.47 1541.72 Q2018.07 1544.74 2018.07 1549.79 Q2018.07 1552.19 2017.15 1554.35 Q2016.27 1556.48 2013.9 1559.4 Q2013.25 1560.15 2009.76 1563.77 Q2006.27 1567.37 1999.91 1573.85 Z" fill="#000000" fill-rule="nonzero" fill-opacity="1" /><path clip-path="url(#clip300)" d="M2033.85 1573.85 L2052.21 1573.85 L2052.21 1578.28 L2027.52 1578.28 L2027.52 1573.85 Q2030.51 1570.75 2035.67 1565.55 Q2040.85 1560.31 2042.18 1558.8 Q2044.71 1555.96 2045.7 1554.01 Q2046.71 1552.03 2046.71 1550.13 Q2046.71 1547.03 2044.52 1545.08 Q2042.36 1543.12 2038.87 1543.12 Q2036.4 1543.12 2033.64 1543.98 Q2030.9 1544.84 2027.78 1546.59 L2027.78 1541.27 Q2030.96 1540 2033.72 1539.35 Q2036.48 1538.7 2038.77 1538.7 Q2044.81 1538.7 2048.4 1541.72 Q2052 1544.74 2052 1549.79 Q2052 1552.19 2051.09 1554.35 Q2050.2 1556.48 2047.83 1559.4 Q2047.18 1560.15 2043.69 1563.77 Q2040.2 1567.37 2033.85 1573.85 Z" fill="#000000" fill-rule="nonzero" fill-opacity="1" /><path clip-path="url(#clip300)" d="M2563.9 1573.85 L2582.26 1573.85 L2582.26 1578.28 L2557.57 1578.28 L2557.57 1573.85 Q2560.57 1570.75 2565.72 1565.55 Q2570.9 1560.31 2572.23 1558.8 Q2574.76 1555.96 2575.75 1554.01 Q2576.76 1552.03 2576.76 1550.13 Q2576.76 1547.03 2574.58 1545.08 Q2572.41 1543.12 2568.92 1543.12 Q2566.45 1543.12 2563.69 1543.98 Q2560.96 1544.84 2557.83 1546.59 L2557.83 1541.27 Q2561.01 1540 2563.77 1539.35 Q2566.53 1538.7 2568.82 1538.7 Q2574.86 1538.7 2578.46 1541.72 Q2582.05 1544.74 2582.05 1549.79 Q2582.05 1552.19 2581.14 1554.35 Q2580.25 1556.48 2577.88 1559.4 Q2577.23 1560.15 2573.74 1563.77 Q2570.25 1567.37 2563.9 1573.85 Z" fill="#000000" fill-rule="nonzero" fill-opacity="1" /><path clip-path="url(#clip300)" d="M2604.55 1542.86 Q2600.49 1542.86 2598.43 1546.87 Q2596.4 1550.86 2596.4 1558.88 Q2596.4 1566.87 2598.43 1570.88 Q2600.49 1574.87 2604.55 1574.87 Q2608.64 1574.87 2610.67 1570.88 Q2612.73 1566.87 2612.73 1558.88 Q2612.73 1550.86 2610.67 1546.87 Q2608.64 1542.86 2604.55 1542.86 M2604.55 1538.7 Q2611.09 1538.7 2614.52 1543.88 Q2617.99 1549.04 2617.99 1558.88 Q2617.99 1568.7 2614.52 1573.88 Q2611.09 1579.04 2604.55 1579.04 Q2598.01 1579.04 2594.55 1573.88 Q2591.11 1568.7 2591.11 1558.88 Q2591.11 1549.04 2594.55 1543.88 Q2598.01 1538.7 2604.55 1538.7 Z" fill="#000000" fill-rule="nonzero" fill-opacity="1" /><path clip-path="url(#clip300)" d="M2631.76 1573.85 L2650.12 1573.85 L2650.12 1578.28 L2625.43 1578.28 L2625.43 1573.85 Q2628.43 1570.75 2633.59 1565.55 Q2638.77 1560.31 2640.1 1558.8 Q2642.62 1555.96 2643.61 1554.01 Q2644.63 1552.03 2644.63 1550.13 Q2644.63 1547.03 2642.44 1545.08 Q2640.28 1543.12 2636.79 1543.12 Q2634.31 1543.12 2631.55 1543.98 Q2628.82 1544.84 2625.7 1546.59 L2625.7 1541.27 Q2628.87 1540 2631.63 1539.35 Q2634.39 1538.7 2636.68 1538.7 Q2642.73 1538.7 2646.32 1541.72 Q2649.91 1544.74 2649.91 1549.79 Q2649.91 1552.19 2649 1554.35 Q2648.12 1556.48 2645.75 1559.4 Q2645.1 1560.15 2641.61 1563.77 Q2638.12 1567.37 2631.76 1573.85 Z" fill="#000000" fill-rule="nonzero" fill-opacity="1" /><path clip-path="url(#clip300)" d="M2665.69 1573.85 L2684.05 1573.85 L2684.05 1578.28 L2659.37 1578.28 L2659.37 1573.85 Q2662.36 1570.75 2667.52 1565.55 Q2672.7 1560.31 2674.03 1558.8 Q2676.55 1555.96 2677.54 1554.01 Q2678.56 1552.03 2678.56 1550.13 Q2678.56 1547.03 2676.37 1545.08 Q2674.21 1543.12 2670.72 1543.12 Q2668.25 1543.12 2665.49 1543.98 Q2662.75 1544.84 2659.63 1546.59 L2659.63 1541.27 Q2662.8 1540 2665.56 1539.35 Q2668.33 1538.7 2670.62 1538.7 Q2676.66 1538.7 2680.25 1541.72 Q2683.85 1544.74 2683.85 1549.79 Q2683.85 1552.19 2682.93 1554.35 Q2682.05 1556.48 2679.68 1559.4 Q2679.03 1560.15 2675.54 1563.77 Q2672.05 1567.37 2665.69 1573.85 Z" fill="#000000" fill-rule="nonzero" fill-opacity="1" /><path clip-path="url(#clip300)" d="M2692 1561.54 L2706.03 1561.54 L2706.03 1565.81 L2692 1565.81 L2692 1561.54 Z" fill="#000000" fill-rule="nonzero" fill-opacity="1" /><path clip-path="url(#clip300)" d="M2725.59 1542.86 Q2721.53 1542.86 2719.47 1546.87 Q2717.44 1550.86 2717.44 1558.88 Q2717.44 1566.87 2719.47 1570.88 Q2721.53 1574.87 2725.59 1574.87 Q2729.68 1574.87 2731.71 1570.88 Q2733.77 1566.87 2733.77 1558.88 Q2733.77 1550.86 2731.71 1546.87 Q2729.68 1542.86 2725.59 1542.86 M2725.59 1538.7 Q2732.13 1538.7 2735.56 1543.88 Q2739.03 1549.04 2739.03 1558.88 Q2739.03 1568.7 2735.56 1573.88 Q2732.13 1579.04 2725.59 1579.04 Q2719.05 1579.04 2715.59 1573.88 Q2712.15 1568.7 2712.15 1558.88 Q2712.15 1549.04 2715.59 1543.88 Q2719.05 1538.7 2725.59 1538.7 Z" fill="#000000" fill-rule="nonzero" fill-opacity="1" /><path clip-path="url(#clip300)" d="M2746.94 1539.4 L2771.94 1539.4 L2771.94 1541.64 L2757.83 1578.28 L2752.34 1578.28 L2765.62 1543.83 L2746.94 1543.83 L2746.94 1539.4 Z" fill="#000000" fill-rule="nonzero" fill-opacity="1" /><path clip-path="url(#clip300)" d="M2779.11 1561.54 L2793.14 1561.54 L2793.14 1565.81 L2779.11 1565.81 L2779.11 1561.54 Z" fill="#000000" fill-rule="nonzero" fill-opacity="1" /><path clip-path="url(#clip300)" d="M2805.98 1573.85 L2824.34 1573.85 L2824.34 1578.28 L2799.65 1578.28 L2799.65 1573.85 Q2802.65 1570.75 2807.8 1565.55 Q2812.99 1560.31 2814.31 1558.8 Q2816.84 1555.96 2817.83 1554.01 Q2818.85 1552.03 2818.85 1550.13 Q2818.85 1547.03 2816.66 1545.08 Q2814.5 1543.12 2811.01 1543.12 Q2808.53 1543.12 2805.77 1543.98 Q2803.04 1544.84 2799.91 1546.59 L2799.91 1541.27 Q2803.09 1540 2805.85 1539.35 Q2808.61 1538.7 2810.9 1538.7 Q2816.94 1538.7 2820.54 1541.72 Q2824.13 1544.74 2824.13 1549.79 Q2824.13 1552.19 2823.22 1554.35 Q2822.33 1556.48 2819.96 1559.4 Q2819.31 1560.15 2815.82 1563.77 Q2812.33 1567.37 2805.98 1573.85 Z" fill="#000000" fill-rule="nonzero" fill-opacity="1" /><path clip-path="url(#clip300)" d="M2849.83 1543.98 L2836.55 1564.74 L2849.83 1564.74 L2849.83 1543.98 M2848.45 1539.4 L2855.07 1539.4 L2855.07 1564.74 L2860.62 1564.74 L2860.62 1569.11 L2855.07 1569.11 L2855.07 1578.28 L2849.83 1578.28 L2849.83 1569.11 L2832.28 1569.11 L2832.28 1564.04 L2848.45 1539.4 Z" fill="#000000" fill-rule="nonzero" fill-opacity="1" /><polyline clip-path="url(#clip302)" style="stroke:#000000; stroke-linecap:round; stroke-linejoin:round; stroke-width:2; stroke-opacity:0.1; fill:none" points="203.123,1212.44 3180.15,1212.44 "/>
<polyline clip-path="url(#clip302)" style="stroke:#000000; stroke-linecap:round; stroke-linejoin:round; stroke-width:2; stroke-opacity:0.1; fill:none" points="203.123,890.794 3180.15,890.794 "/>
<polyline clip-path="url(#clip302)" style="stroke:#000000; stroke-linecap:round; stroke-linejoin:round; stroke-width:2; stroke-opacity:0.1; fill:none" points="203.123,569.151 3180.15,569.151 "/>
<polyline clip-path="url(#clip302)" style="stroke:#000000; stroke-linecap:round; stroke-linejoin:round; stroke-width:2; stroke-opacity:0.1; fill:none" points="203.123,247.508 3180.15,247.508 "/>
<polyline clip-path="url(#clip300)" style="stroke:#000000; stroke-linecap:round; stroke-linejoin:round; stroke-width:4; stroke-opacity:1; fill:none" points="203.123,1497.68 203.123,47.2441 "/>
<polyline clip-path="url(#clip300)" style="stroke:#000000; stroke-linecap:round; stroke-linejoin:round; stroke-width:4; stroke-opacity:1; fill:none" points="203.123,1212.44 218.127,1212.44 "/>
<polyline clip-path="url(#clip300)" style="stroke:#000000; stroke-linecap:round; stroke-linejoin:round; stroke-width:4; stroke-opacity:1; fill:none" points="203.123,890.794 218.127,890.794 "/>
<polyline clip-path="url(#clip300)" style="stroke:#000000; stroke-linecap:round; stroke-linejoin:round; stroke-width:4; stroke-opacity:1; fill:none" points="203.123,569.151 218.127,569.151 "/>
<polyline clip-path="url(#clip300)" style="stroke:#000000; stroke-linecap:round; stroke-linejoin:round; stroke-width:4; stroke-opacity:1; fill:none" points="203.123,247.508 218.127,247.508 "/>
<path clip-path="url(#clip300)" d="M132.342 1197.58 L119.061 1218.34 L132.342 1218.34 L132.342 1197.58 M130.962 1193 L137.577 1193 L137.577 1218.34 L143.123 1218.34 L143.123 1222.71 L137.577 1222.71 L137.577 1231.88 L132.342 1231.88 L132.342 1222.71 L114.79 1222.71 L114.79 1217.63 L130.962 1193 Z" fill="#000000" fill-rule="nonzero" fill-opacity="1" /><path clip-path="url(#clip300)" d="M130.155 888.698 Q126.613 888.698 124.53 891.12 Q122.472 893.542 122.472 897.76 Q122.472 901.953 124.53 904.401 Q126.613 906.823 130.155 906.823 Q133.696 906.823 135.754 904.401 Q137.837 901.953 137.837 897.76 Q137.837 893.542 135.754 891.12 Q133.696 888.698 130.155 888.698 M140.597 872.214 L140.597 877.005 Q138.618 876.068 136.587 875.573 Q134.582 875.078 132.603 875.078 Q127.394 875.078 124.634 878.594 Q121.9 882.109 121.509 889.219 Q123.045 886.953 125.363 885.755 Q127.681 884.531 130.467 884.531 Q136.327 884.531 139.712 888.099 Q143.123 891.641 143.123 897.76 Q143.123 903.75 139.582 907.37 Q136.04 910.989 130.155 910.989 Q123.41 910.989 119.842 905.833 Q116.275 900.651 116.275 890.833 Q116.275 881.615 120.65 876.146 Q125.025 870.651 132.394 870.651 Q134.373 870.651 136.379 871.042 Q138.41 871.432 140.597 872.214 Z" fill="#000000" fill-rule="nonzero" fill-opacity="1" /><path clip-path="url(#clip300)" d="M129.79 570.127 Q126.04 570.127 123.879 572.133 Q121.743 574.138 121.743 577.653 Q121.743 581.169 123.879 583.174 Q126.04 585.179 129.79 585.179 Q133.54 585.179 135.702 583.174 Q137.863 581.143 137.863 577.653 Q137.863 574.138 135.702 572.133 Q133.566 570.127 129.79 570.127 M124.53 567.888 Q121.144 567.055 119.243 564.737 Q117.368 562.419 117.368 559.086 Q117.368 554.424 120.676 551.716 Q124.009 549.008 129.79 549.008 Q135.597 549.008 138.905 551.716 Q142.212 554.424 142.212 559.086 Q142.212 562.419 140.311 564.737 Q138.436 567.055 135.077 567.888 Q138.879 568.773 140.988 571.351 Q143.123 573.93 143.123 577.653 Q143.123 583.304 139.66 586.325 Q136.222 589.346 129.79 589.346 Q123.358 589.346 119.894 586.325 Q116.457 583.304 116.457 577.653 Q116.457 573.93 118.592 571.351 Q120.728 568.773 124.53 567.888 M122.603 559.581 Q122.603 562.601 124.478 564.294 Q126.379 565.987 129.79 565.987 Q133.176 565.987 135.077 564.294 Q137.004 562.601 137.004 559.581 Q137.004 556.56 135.077 554.867 Q133.176 553.174 129.79 553.174 Q126.379 553.174 124.478 554.867 Q122.603 556.56 122.603 559.581 Z" fill="#000000" fill-rule="nonzero" fill-opacity="1" /><path clip-path="url(#clip300)" d="M85.4154 262.521 L94.0091 262.521 L94.0091 232.859 L84.6602 234.734 L84.6602 229.943 L93.957 228.068 L99.2174 228.068 L99.2174 262.521 L107.811 262.521 L107.811 266.948 L85.4154 266.948 L85.4154 262.521 Z" fill="#000000" fill-rule="nonzero" fill-opacity="1" /><path clip-path="url(#clip300)" d="M129.686 231.531 Q125.623 231.531 123.566 235.542 Q121.535 239.526 121.535 247.547 Q121.535 255.541 123.566 259.552 Q125.623 263.536 129.686 263.536 Q133.774 263.536 135.806 259.552 Q137.863 255.541 137.863 247.547 Q137.863 239.526 135.806 235.542 Q133.774 231.531 129.686 231.531 M129.686 227.364 Q136.222 227.364 139.66 232.547 Q143.123 237.703 143.123 247.547 Q143.123 257.364 139.66 262.547 Q136.222 267.703 129.686 267.703 Q123.15 267.703 119.686 262.547 Q116.249 257.364 116.249 247.547 Q116.249 237.703 119.686 232.547 Q123.15 227.364 129.686 227.364 Z" fill="#000000" fill-rule="nonzero" fill-opacity="1" /><path clip-path="url(#clip300)" d="M-31.4998 930.013 L-31.4998 924.168 L11.7002 924.168 L11.7002 930.013 L-31.4998 930.013 Z" fill="#000000" fill-rule="nonzero" fill-opacity="1" /><path clip-path="url(#clip300)" d="M-7.85992 885.829 L11.7002 885.829 L11.7002 891.153 L-7.68631 891.153 Q-12.287 891.153 -14.5728 892.947 Q-16.8587 894.741 -16.8587 898.329 Q-16.8587 902.641 -14.1099 905.129 Q-11.3611 907.618 -6.61572 907.618 L11.7002 907.618 L11.7002 912.97 L-20.7071 912.97 L-20.7071 907.618 L-15.6724 907.618 Q-18.5948 905.708 -20.0416 903.133 Q-21.4883 900.528 -21.4883 897.143 Q-21.4883 891.559 -18.0161 888.694 Q-14.5728 885.829 -7.85992 885.829 Z" fill="#000000" fill-rule="nonzero" fill-opacity="1" /><path clip-path="url(#clip300)" d="M-33.3227 858.804 L-28.8957 858.804 L-28.8957 863.897 Q-28.8957 866.761 -27.7383 867.89 Q-26.5809 868.989 -23.5716 868.989 L-20.7071 868.989 L-20.7071 860.222 L-16.5694 860.222 L-16.5694 868.989 L11.7002 868.989 L11.7002 874.342 L-16.5694 874.342 L-16.5694 879.435 L-20.7071 879.435 L-20.7071 874.342 L-22.964 874.342 Q-28.3749 874.342 -30.8343 871.825 Q-33.3227 869.308 -33.3227 863.839 L-33.3227 858.804 Z" fill="#000000" fill-rule="nonzero" fill-opacity="1" /><path clip-path="url(#clip300)" d="M-33.3227 854.348 L-33.3227 849.024 L11.7002 849.024 L11.7002 854.348 L-33.3227 854.348 Z" fill="#000000" fill-rule="nonzero" fill-opacity="1" /><path clip-path="url(#clip300)" d="M-16.9745 825.326 Q-16.9745 829.609 -13.618 832.097 Q-10.2905 834.585 -4.47452 834.585 Q1.34142 834.585 4.69788 832.126 Q8.02541 829.638 8.02541 825.326 Q8.02541 821.073 4.66895 818.584 Q1.31248 816.096 -4.47452 816.096 Q-10.2326 816.096 -13.5891 818.584 Q-16.9745 821.073 -16.9745 825.326 M-21.4883 825.326 Q-21.4883 818.382 -16.9745 814.418 Q-12.4606 810.454 -4.47452 810.454 Q3.48261 810.454 8.02541 814.418 Q12.5393 818.382 12.5393 825.326 Q12.5393 832.3 8.02541 836.264 Q3.48261 840.199 -4.47452 840.199 Q-12.4606 840.199 -16.9745 836.264 Q-21.4883 832.3 -21.4883 825.326 Z" fill="#000000" fill-rule="nonzero" fill-opacity="1" /><path clip-path="url(#clip300)" d="M-20.7071 804.725 L-20.7071 799.4 L4.58214 792.745 L-20.7071 786.119 L-20.7071 779.84 L4.58214 773.185 L-20.7071 766.559 L-20.7071 761.235 L11.7002 769.713 L11.7002 775.992 L-14.8622 782.965 L11.7002 789.968 L11.7002 796.247 L-20.7071 804.725 Z" fill="#000000" fill-rule="nonzero" fill-opacity="1" /><path clip-path="url(#clip300)" d="M-33.3227 734.818 L-33.3227 722.549 L-29.185 722.549 L-29.185 729.493 L15.3749 729.493 L15.3749 722.549 L19.5126 722.549 L19.5126 734.818 L-33.3227 734.818 Z" fill="#000000" fill-rule="nonzero" fill-opacity="1" /><path clip-path="url(#clip300)" d="M-31.4998 710.975 L-31.4998 705.13 L6.7812 705.13 L6.7812 684.094 L11.7002 684.094 L11.7002 710.975 L-31.4998 710.975 Z" fill="#000000" fill-rule="nonzero" fill-opacity="1" /><path clip-path="url(#clip300)" d="M-31.4998 668.73 L-31.4998 663.811 L17.1978 678.857 L17.1978 683.776 L-31.4998 668.73 Z" fill="#000000" fill-rule="nonzero" fill-opacity="1" /><path clip-path="url(#clip300)" d="M-19.7522 637.567 L-14.7175 637.567 Q-15.8749 639.824 -16.4536 642.254 Q-17.0323 644.685 -17.0323 647.289 Q-17.0323 651.253 -15.8171 653.25 Q-14.6018 655.217 -12.1712 655.217 Q-10.3194 655.217 -9.2488 653.799 Q-8.20714 652.382 -7.25229 648.099 L-6.8472 646.276 Q-5.63193 640.605 -3.40393 638.232 Q-1.20487 635.831 2.75923 635.831 Q7.2731 635.831 9.90619 639.419 Q12.5393 642.978 12.5393 649.228 Q12.5393 651.832 12.0184 654.667 Q11.5265 657.474 10.5138 660.599 L5.01617 660.599 Q6.54972 657.648 7.33097 654.783 Q8.08328 651.919 8.08328 649.112 Q8.08328 645.35 6.81014 643.325 Q5.50806 641.299 3.16432 641.299 Q0.994196 641.299 -0.163205 642.775 Q-1.32061 644.222 -2.3912 649.17 L-2.82523 651.022 Q-3.86689 655.97 -6.00808 658.169 Q-8.17821 660.368 -11.9398 660.368 Q-16.5115 660.368 -18.9999 657.127 Q-21.4883 653.886 -21.4883 647.926 Q-21.4883 644.974 -21.0543 642.37 Q-20.6203 639.766 -19.7522 637.567 Z" fill="#000000" fill-rule="nonzero" fill-opacity="1" /><path clip-path="url(#clip300)" d="M-33.3227 614.911 L19.5126 614.911 L19.5126 627.179 L15.3749 627.179 L15.3749 620.264 L-29.185 620.264 L-29.185 627.179 L-33.3227 627.179 L-33.3227 614.911 Z" fill="#000000" fill-rule="nonzero" fill-opacity="1" /><polyline clip-path="url(#clip302)" style="stroke:#023eff; stroke-linecap:round; stroke-linejoin:round; stroke-width:5; stroke-opacity:1; fill:none" points="287.379,1095.43 304.196,1263.38 321.014,1407.08 337.831,1456.63 354.649,1407.08 371.466,1186.97 388.284,869.481 405.101,662.606 421.919,828.395 438.736,828.395 455.553,828.395 472.371,828.395 489.188,1000.97 506.006,1000.97 522.823,1138.92 539.641,1138.92 556.458,1138.92 573.276,1138.92 590.093,537.419 606.911,614.717 623.728,614.717 640.546,537.419 657.363,903.296 674.18,903.296 690.998,1188.29 707.815,1348.51 724.633,1348.51 741.45,1348.51 758.268,1348.51 775.085,1069.94 791.903,813.032 808.72,546.904 825.538,546.904 842.355,862.618 859.172,948.753 875.99,948.753 892.807,1071.36 909.625,948.753 926.442,1071.36 943.26,1071.36 960.077,1071.36 976.895,948.753 993.712,680.026 1010.53,680.026 1027.35,519.399 1044.16,519.399 1060.98,939.94 1077.8,873.084 1094.62,1035.53 1111.43,1348.51 1128.25,1348.51 1145.07,1348.51 1161.89,1348.51 1178.7,1348.51 1195.52,813.032 1212.34,546.904 1229.16,546.904 1245.97,862.618 1262.79,948.753 1279.61,948.753 1296.43,948.753 1313.24,1071.36 1330.06,1071.36 1346.88,1071.36 1363.7,1071.36 1380.51,948.753 1397.33,519.399 1414.15,680.026 1430.97,680.026 1447.78,519.399 1464.6,939.94 1481.42,873.084 1498.24,1188.29 1515.05,1348.51 1531.87,1348.51 1548.69,1348.51 1565.51,1348.51 1582.32,1069.94 1599.14,677.625 1615.96,546.904 1632.78,546.904 1649.59,862.618 1666.41,948.753 1683.23,1071.36 1700.05,1071.36 1716.86,948.753 1733.68,1071.36 1750.5,1071.36 1767.32,1071.36 1784.13,948.753 1800.95,519.399 1817.77,680.026 1834.59,519.399 1851.4,519.399 1868.22,873.084 1885.04,873.084 1901.85,1188.29 1918.67,1188.29 1935.49,1348.51 1952.31,1348.51 1969.12,1348.51 1985.94,1069.94 2002.76,677.625 2019.58,434.463 2036.39,434.463 2053.21,434.463 2070.03,948.753 2086.85,948.753 2103.66,948.753 2120.48,1071.36 2137.3,1071.36 2154.12,1071.36 2170.93,948.753 2187.75,948.753 2204.57,519.399 2221.39,519.399 2238.2,680.026 2255.02,519.399 2271.84,873.084 2288.66,873.084 2305.47,1188.29 2322.29,1348.51 2339.11,1188.29 2355.93,1348.51 2372.74,1348.51 2389.56,1069.94 2406.38,677.625 2423.2,434.463 2440.01,434.463 2456.83,571.213 2473.65,754.785 2490.47,754.785 2507.28,754.785 2524.1,949.322 2540.92,949.322 2557.74,949.322 2574.55,949.322 2591.37,949.322 2608.19,680.026 2625.01,680.026 2641.82,680.026 2658.64,680.026 2675.46,939.94 2692.28,939.94 2709.09,1188.29 2725.91,1348.51 2742.73,1348.51 2759.55,1348.51 2776.36,1348.51 2793.18,1069.94 2810,813.032 2826.82,703.746 2843.63,571.213 2860.45,571.213 2877.27,754.785 2894.09,754.785 2910.9,754.785 2927.72,949.322 2944.54,949.322 2961.35,949.322 2978.17,949.322 2994.99,949.322 3011.81,680.026 3028.62,519.399 3045.44,519.399 3062.26,519.399 3079.08,873.084 3095.89,873.084 "/>
<polyline clip-path="url(#clip302)" style="stroke:#ff7c00; stroke-linecap:round; stroke-linejoin:round; stroke-width:5; stroke-opacity:1; fill:none" points="287.379,863.64 304.196,1340.26 321.014,1376.98 337.831,1369.69 354.649,1340.26 371.466,1213.7 388.284,645.554 405.101,645.554 421.919,645.554 438.736,809.579 455.553,1039.87 472.371,1039.87 489.188,1039.87 506.006,1039.87 522.823,1059.89 539.641,1115.02 556.458,1115.02 573.276,1039.87 590.093,762.78 606.911,420.994 623.728,420.994 640.546,584.105 657.363,827.993 674.18,827.993 690.998,1236.78 707.815,1305.76 724.633,1305.76 741.45,1406.25 758.268,1406.25 775.085,1236.78 791.903,631.282 808.72,631.282 825.538,631.282 842.355,921.84 859.172,921.84 875.99,1054.59 892.807,1054.59 909.625,1054.59 926.442,1054.59 943.26,1119.3 960.077,1054.59 976.895,1054.59 993.712,794.332 1010.53,600.043 1027.35,600.043 1044.16,710.196 1060.98,898.406 1077.8,898.406 1094.62,1035.53 1111.43,1305.76 1128.25,1411.28 1145.07,1406.25 1161.89,1406.25 1178.7,1192.47 1195.52,631.282 1212.34,631.282 1229.16,631.282 1245.97,921.84 1262.79,921.84 1279.61,1054.59 1296.43,1054.59 1313.24,1054.59 1330.06,1054.59 1346.88,1119.3 1363.7,1054.59 1380.51,1054.59 1397.33,794.332 1414.15,600.043 1430.97,600.043 1447.78,710.196 1464.6,898.406 1481.42,898.406 1498.24,1236.78 1515.05,1305.76 1531.87,1305.76 1548.69,1406.25 1565.51,1406.25 1582.32,1192.47 1599.14,631.282 1615.96,631.282 1632.78,631.282 1649.59,921.84 1666.41,921.84 1683.23,978.591 1700.05,1054.59 1716.86,1054.59 1733.68,1054.59 1750.5,978.591 1767.32,1054.59 1784.13,1054.59 1800.95,794.332 1817.77,600.043 1834.59,600.043 1851.4,710.196 1868.22,898.406 1885.04,898.406 1901.85,1236.78 1918.67,1305.76 1935.49,1305.76 1952.31,1406.25 1969.12,1406.25 1985.94,1236.78 2002.76,631.282 2019.58,631.282 2036.39,631.282 2053.21,921.84 2070.03,921.84 2086.85,1054.59 2103.66,1054.59 2120.48,1054.59 2137.3,1054.59 2154.12,1054.59 2170.93,1054.59 2187.75,1054.59 2204.57,794.332 2221.39,600.043 2238.2,600.043 2255.02,710.196 2271.84,898.406 2288.66,898.406 2305.47,1158.16 2322.29,1305.76 2339.11,1305.76 2355.93,1406.25 2372.74,1406.25 2389.56,1236.78 2406.38,631.282 2423.2,631.282 2440.01,631.282 2456.83,921.84 2473.65,921.84 2490.47,1054.59 2507.28,1054.59 2524.1,1054.59 2540.92,1054.59 2557.74,1054.59 2574.55,1054.59 2591.37,1054.59 2608.19,794.332 2625.01,600.043 2641.82,600.043 2658.64,710.196 2675.46,898.406 2692.28,898.406 2709.09,1158.16 2725.91,1305.76 2742.73,1305.76 2759.55,1406.25 2776.36,1406.25 2793.18,1192.47 2810,631.282 2826.82,631.282 2843.63,631.282 2860.45,785.346 2877.27,785.346 2894.09,785.346 2910.9,785.346 2927.72,785.346 2944.54,785.346 2961.35,984.462 2978.17,785.346 2994.99,785.346 3011.81,794.332 3028.62,600.043 3045.44,600.043 3062.26,710.196 3079.08,898.406 3095.89,898.406 "/>
<polyline clip-path="url(#clip302)" style="stroke:#1ac938; stroke-linecap:round; stroke-linejoin:round; stroke-width:5; stroke-opacity:1; fill:none" points="287.379,1170.14 304.196,1361.9 321.014,1361.9 337.831,1361.9 354.649,1361.9 371.466,1207.26 388.284,833.628 405.101,826.011 421.919,538.531 438.736,833.628 455.553,833.628 472.371,833.628 489.188,833.628 506.006,833.628 522.823,1068.75 539.641,1068.75 556.458,1068.75 573.276,833.628 590.093,833.628 606.911,538.531 623.728,538.531 640.546,538.531 657.363,833.628 674.18,833.628 690.998,1223.1 707.815,1372.91 724.633,1372.91 741.45,1372.91 758.268,1372.91 775.085,1223.1 791.903,644.712 808.72,644.712 825.538,644.712 842.355,795.172 859.172,1072 875.99,1072 892.807,1072 909.625,1072 926.442,1072 943.26,1072 960.077,1072 976.895,1072 993.712,800.198 1010.53,612.271 1027.35,612.271 1044.16,612.271 1060.98,899.964 1077.8,899.964 1094.62,1372.91 1111.43,1372.91 1128.25,1372.91 1145.07,1372.91 1161.89,1372.91 1178.7,1372.91 1195.52,644.712 1212.34,644.712 1229.16,644.712 1245.97,795.172 1262.79,1072 1279.61,1072 1296.43,1072 1313.24,1072 1330.06,1072 1346.88,1072 1363.7,1072 1380.51,1072 1397.33,800.198 1414.15,612.271 1430.97,612.271 1447.78,612.271 1464.6,899.964 1481.42,899.964 1498.24,1223.1 1515.05,1372.91 1531.87,1372.91 1548.69,1372.91 1565.51,1372.91 1582.32,1223.1 1599.14,644.712 1615.96,644.712 1632.78,644.712 1649.59,795.172 1666.41,1072 1683.23,1072 1700.05,1072 1716.86,1072 1733.68,1072 1750.5,1072 1767.32,1072 1784.13,1072 1800.95,848.396 1817.77,612.271 1834.59,612.271 1851.4,612.271 1868.22,899.964 1885.04,899.964 1901.85,1223.1 1918.67,1223.1 1935.49,1372.91 1952.31,1372.91 1969.12,1372.91 1985.94,1223.1 2002.76,644.712 2019.58,644.712 2036.39,644.712 2053.21,795.172 2070.03,848.396 2086.85,1072 2103.66,1072 2120.48,1072 2137.3,1072 2154.12,1072 2170.93,1072 2187.75,1072 2204.57,800.198 2221.39,612.271 2238.2,612.271 2255.02,612.271 2271.84,899.964 2288.66,899.964 2305.47,1223.1 2322.29,1372.91 2339.11,1223.1 2355.93,1372.91 2372.74,1372.91 2389.56,1223.1 2406.38,644.712 2423.2,644.712 2440.01,644.712 2456.83,795.172 2473.65,848.396 2490.47,848.396 2507.28,848.396 2524.1,848.396 2540.92,848.396 2557.74,1072 2574.55,1072 2591.37,1072 2608.19,848.396 2625.01,612.271 2641.82,612.271 2658.64,612.271 2675.46,899.964 2692.28,899.964 2709.09,1223.1 2725.91,1372.91 2742.73,1372.91 2759.55,1372.91 2776.36,1372.91 2793.18,1223.1 2810,644.712 2826.82,644.712 2843.63,644.712 2860.45,795.172 2877.27,848.396 2894.09,848.396 2910.9,848.396 2927.72,848.396 2944.54,1072 2961.35,1072 2978.17,1072 2994.99,1072 3011.81,848.396 3028.62,612.271 3045.44,612.271 3062.26,612.271 3079.08,899.964 3095.89,899.964 "/>
<polyline clip-path="url(#clip302)" style="stroke:#e8000b; stroke-linecap:round; stroke-linejoin:round; stroke-width:5; stroke-opacity:1; fill:none" points="287.379,1250.2 304.196,1321.91 321.014,1321.91 337.831,1321.91 354.649,1321.91 371.466,1321.91 388.284,735.257 405.101,735.257 421.919,735.257 438.736,577.132 455.553,577.132 472.371,577.132 489.188,577.132 506.006,986.056 522.823,986.056 539.641,986.056 556.458,986.056 573.276,986.056 590.093,577.132 606.911,577.132 623.728,577.132 640.546,577.132 657.363,986.056 674.18,986.056 690.998,1190.38 707.815,1386.64 724.633,1386.64 741.45,1386.64 758.268,1386.64 775.085,1194.52 791.903,948.69 808.72,948.69 825.538,948.69 842.355,948.69 859.172,1000.55 875.99,1000.55 892.807,1112.51 909.625,1112.51 926.442,1112.51 943.26,1112.51 960.077,1112.51 976.895,1112.51 993.712,890.151 1010.53,430.615 1027.35,430.615 1044.16,680.922 1060.98,889.494 1077.8,889.494 1094.62,1190.38 1111.43,1386.64 1128.25,1386.64 1145.07,1386.64 1161.89,1386.64 1178.7,1194.52 1195.52,948.69 1212.34,948.69 1229.16,948.69 1245.97,948.69 1262.79,1000.55 1279.61,1000.55 1296.43,1112.51 1313.24,1112.51 1330.06,1112.51 1346.88,1112.51 1363.7,1112.51 1380.51,1112.51 1397.33,890.151 1414.15,430.615 1430.97,430.615 1447.78,680.922 1464.6,889.494 1481.42,889.494 1498.24,1190.38 1515.05,1386.64 1531.87,1386.64 1548.69,1386.64 1565.51,1386.64 1582.32,1194.52 1599.14,587.199 1615.96,587.199 1632.78,587.199 1649.59,587.199 1666.41,1000.55 1683.23,1000.55 1700.05,1112.51 1716.86,1112.51 1733.68,1112.51 1750.5,1112.51 1767.32,1112.51 1784.13,1112.51 1800.95,890.151 1817.77,430.615 1834.59,430.615 1851.4,680.922 1868.22,889.494 1885.04,889.494 1901.85,1190.38 1918.67,1386.64 1935.49,1386.64 1952.31,1386.64 1969.12,1386.64 1985.94,1194.52 2002.76,587.199 2019.58,587.199 2036.39,587.199 2053.21,587.199 2070.03,1000.55 2086.85,1000.55 2103.66,1112.51 2120.48,1112.51 2137.3,1112.51 2154.12,1112.51 2170.93,1112.51 2187.75,1112.51 2204.57,890.151 2221.39,430.615 2238.2,430.615 2255.02,680.922 2271.84,889.494 2288.66,889.494 2305.47,1190.38 2322.29,1386.64 2339.11,1386.64 2355.93,1386.64 2372.74,1386.64 2389.56,1194.52 2406.38,838.929 2423.2,838.929 2440.01,672.72 2456.83,672.72 2473.65,672.72 2490.47,672.72 2507.28,672.72 2524.1,906.876 2540.92,906.876 2557.74,906.876 2574.55,906.876 2591.37,906.876 2608.19,653.582 2625.01,430.615 2641.82,430.615 2658.64,680.922 2675.46,889.494 2692.28,889.494 2709.09,1190.38 2725.91,1386.64 2742.73,1386.64 2759.55,1386.64 2776.36,1386.64 2793.18,1194.52 2810,838.929 2826.82,838.929 2843.63,672.72 2860.45,672.72 2877.27,672.72 2894.09,672.72 2910.9,672.72 2927.72,906.876 2944.54,906.876 2961.35,906.876 2978.17,906.876 2994.99,906.876 3011.81,653.582 3028.62,152.623 3045.44,152.623 3062.26,680.922 3079.08,889.494 3095.89,889.494 "/>
<polyline clip-path="url(#clip302)" style="stroke:#000000; stroke-linecap:round; stroke-linejoin:round; stroke-width:6; stroke-opacity:1; fill:none" points="287.379,1085.39 304.196,1291.24 321.014,1341.09 337.831,1353.96 354.649,1260.68 371.466,1066.09 388.284,424.411 405.101,249.116 421.919,440.494 438.736,736.405 455.553,934.216 472.371,885.97 489.188,964.772 506.006,995.328 522.823,1032.32 539.641,1135.24 556.458,1080.56 573.276,947.082 590.093,704.241 606.911,319.877 623.728,196.045 640.546,517.688 657.363,736.405 674.18,762.137 690.998,1019.45 707.815,1236.56 724.633,1234.95 741.45,1337.88 758.268,1262.29 775.085,964.772 791.903,627.047 808.72,469.441 825.538,446.926 842.355,766.962 859.172,871.496 875.99,955.123 892.807,961.556 909.625,939.041 926.442,951.906 943.26,979.246 960.077,1027.49 976.895,1029.1 993.712,591.666 1010.53,253.94 1027.35,88.2942 1044.16,279.672 1060.98,894.011 1077.8,1078.96 1094.62,1257.47 1111.43,1307.32 1128.25,1185.1 1145.07,1160.97 1161.89,1189.92 1178.7,1156.15 1195.52,631.871 1212.34,448.535 1229.16,491.957 1245.97,696.2 1262.79,868.279 1279.61,820.033 1296.43,808.775 1313.24,845.764 1330.06,998.545 1346.88,995.328 1363.7,848.981 1380.51,795.909 1397.33,562.718 1414.15,337.568 1430.97,184.787 1447.78,453.359 1464.6,876.32 1481.42,916.526 1498.24,1117.55 1515.05,1255.86 1531.87,1234.95 1548.69,1252.64 1565.51,1265.51 1582.32,1144.89 1599.14,763.745 1615.96,424.411 1632.78,580.408 1649.59,720.323 1666.41,757.312 1683.23,931 1700.05,924.567 1716.86,987.287 1733.68,1030.71 1750.5,1040.36 1767.32,1048.4 1784.13,934.216 1800.95,741.23 1817.77,471.05 1834.59,387.422 1851.4,520.904 1868.22,832.898 1885.04,842.548 1901.85,1066.09 1918.67,1370.04 1935.49,1333.05 1952.31,1292.85 1969.12,1246.21 1985.94,1178.66 2002.76,763.745 2019.58,417.979 2036.39,488.74 2053.21,799.126 2070.03,934.216 2086.85,1021.06 2103.66,910.093 2120.48,992.112 2137.3,1099.86 2154.12,1103.08 2170.93,1032.32 2187.75,911.701 2204.57,702.633 2221.39,499.998 2238.2,356.866 2255.02,660.819 2271.84,873.104 2288.66,916.526 2305.47,1048.4 2322.29,1281.59 2339.11,1296.06 2355.93,1310.54 2372.74,1230.13 2389.56,1186.71 2406.38,799.126 2423.2,593.274 2440.01,401.896 2456.83,686.551 2473.65,802.342 2490.47,853.805 2507.28,908.485 2524.1,943.865 2540.92,1074.13 2557.74,1096.65 2574.55,1033.93 2591.37,969.597 2608.19,723.54 2625.01,533.77 2641.82,508.039 2658.64,850.589 2675.46,1041.97 2692.28,932.608 2709.09,1128.81 2725.91,1331.45 2742.73,1292.85 2759.55,1296.33 2776.36,1228.52 2793.18,1263.9 2810,1048.4 2826.82,773.394 2843.63,508.039 2860.45,545.028 2877.27,675.293 2894.09,684.942 2910.9,728.364 2927.72,914.917 2944.54,855.413 2961.35,1025.88 2978.17,1006.59 2994.99,865.063 3011.81,662.427 3028.62,245.899 3045.44,237.858 3062.26,556.285 3079.08,860.238 3095.89,829.682 "/>
<path clip-path="url(#clip300)" d="M3305.14 445.512 L3952.76 445.512 L3952.76 95.592 L3305.14 95.592  Z" fill="#ffffff" fill-rule="evenodd" fill-opacity="1"/>
<polyline clip-path="url(#clip300)" style="stroke:#000000; stroke-linecap:round; stroke-linejoin:round; stroke-width:4; stroke-opacity:1; fill:none" points="3305.14,445.512 3952.76,445.512 3952.76,95.592 3305.14,95.592 3305.14,445.512 "/>
<polyline clip-path="url(#clip300)" style="stroke:#023eff; stroke-linecap:round; stroke-linejoin:round; stroke-width:5.625; stroke-opacity:1; fill:none" points="3346.8,153.912 3596.78,153.912 "/>
<path clip-path="url(#clip300)" d="M3643.26 168.977 L3643.26 184.446 L3638.44 184.446 L3638.44 144.185 L3643.26 144.185 L3643.26 148.613 Q3644.77 146.008 3647.06 144.758 Q3649.38 143.482 3652.58 143.482 Q3657.89 143.482 3661.2 147.701 Q3664.53 151.92 3664.53 158.795 Q3664.53 165.67 3661.2 169.888 Q3657.89 174.107 3652.58 174.107 Q3649.38 174.107 3647.06 172.857 Q3644.77 171.581 3643.26 168.977 M3659.56 158.795 Q3659.56 153.508 3657.37 150.514 Q3655.21 147.493 3651.41 147.493 Q3647.61 147.493 3645.42 150.514 Q3643.26 153.508 3643.26 158.795 Q3643.26 164.081 3645.42 167.102 Q3647.61 170.097 3651.41 170.097 Q3655.21 170.097 3657.37 167.102 Q3659.56 164.081 3659.56 158.795 Z" fill="#000000" fill-rule="nonzero" fill-opacity="1" /><path clip-path="url(#clip300)" d="M3689.38 148.665 Q3688.57 148.196 3687.6 147.988 Q3686.67 147.753 3685.52 147.753 Q3681.46 147.753 3679.27 150.409 Q3677.11 153.04 3677.11 157.987 L3677.11 173.352 L3672.29 173.352 L3672.29 144.185 L3677.11 144.185 L3677.11 148.717 Q3678.62 146.06 3681.04 144.784 Q3683.46 143.482 3686.93 143.482 Q3687.42 143.482 3688.02 143.56 Q3688.62 143.613 3689.35 143.743 L3689.38 148.665 Z" fill="#000000" fill-rule="nonzero" fill-opacity="1" /><path clip-path="url(#clip300)" d="M3718.18 157.571 L3718.18 159.915 L3696.15 159.915 Q3696.46 164.862 3699.12 167.467 Q3701.8 170.045 3706.56 170.045 Q3709.32 170.045 3711.9 169.368 Q3714.51 168.691 3717.06 167.336 L3717.06 171.868 Q3714.48 172.961 3711.77 173.534 Q3709.06 174.107 3706.28 174.107 Q3699.3 174.107 3695.21 170.045 Q3691.15 165.982 3691.15 159.055 Q3691.15 151.894 3695 147.701 Q3698.88 143.482 3705.44 143.482 Q3711.33 143.482 3714.74 147.284 Q3718.18 151.06 3718.18 157.571 M3713.39 156.165 Q3713.33 152.232 3711.17 149.889 Q3709.04 147.545 3705.5 147.545 Q3701.49 147.545 3699.06 149.81 Q3696.67 152.076 3696.3 156.191 L3713.39 156.165 Z" fill="#000000" fill-rule="nonzero" fill-opacity="1" /><path clip-path="url(#clip300)" d="M3745.23 148.613 L3745.23 132.831 L3750.03 132.831 L3750.03 173.352 L3745.23 173.352 L3745.23 168.977 Q3743.72 171.581 3741.41 172.857 Q3739.12 174.107 3735.89 174.107 Q3730.6 174.107 3727.27 169.888 Q3723.96 165.67 3723.96 158.795 Q3723.96 151.92 3727.27 147.701 Q3730.6 143.482 3735.89 143.482 Q3739.12 143.482 3741.41 144.758 Q3743.72 146.008 3745.23 148.613 M3728.91 158.795 Q3728.91 164.081 3731.07 167.102 Q3733.26 170.097 3737.06 170.097 Q3740.86 170.097 3743.05 167.102 Q3745.23 164.081 3745.23 158.795 Q3745.23 153.508 3743.05 150.514 Q3740.86 147.493 3737.06 147.493 Q3733.26 147.493 3731.07 150.514 Q3728.91 153.508 3728.91 158.795 Z" fill="#000000" fill-rule="nonzero" fill-opacity="1" /><path clip-path="url(#clip300)" d="M3759.9 144.185 L3764.69 144.185 L3764.69 173.352 L3759.9 173.352 L3759.9 144.185 M3759.9 132.831 L3764.69 132.831 L3764.69 138.899 L3759.9 138.899 L3759.9 132.831 Z" fill="#000000" fill-rule="nonzero" fill-opacity="1" /><path clip-path="url(#clip300)" d="M3795.7 145.305 L3795.7 149.784 Q3793.67 148.665 3791.61 148.118 Q3789.58 147.545 3787.5 147.545 Q3782.84 147.545 3780.26 150.514 Q3777.68 153.456 3777.68 158.795 Q3777.68 164.133 3780.26 167.102 Q3782.84 170.045 3787.5 170.045 Q3789.58 170.045 3791.61 169.498 Q3793.67 168.925 3795.7 167.805 L3795.7 172.232 Q3793.7 173.17 3791.54 173.638 Q3789.4 174.107 3786.98 174.107 Q3780.39 174.107 3776.51 169.967 Q3772.63 165.826 3772.63 158.795 Q3772.63 151.659 3776.54 147.571 Q3780.47 143.482 3787.29 143.482 Q3789.51 143.482 3791.61 143.951 Q3793.72 144.394 3795.7 145.305 Z" fill="#000000" fill-rule="nonzero" fill-opacity="1" /><path clip-path="url(#clip300)" d="M3808.78 135.904 L3808.78 144.185 L3818.65 144.185 L3818.65 147.909 L3808.78 147.909 L3808.78 163.743 Q3808.78 167.31 3809.74 168.326 Q3810.73 169.342 3813.72 169.342 L3818.65 169.342 L3818.65 173.352 L3813.72 173.352 Q3808.18 173.352 3806.07 171.295 Q3803.96 169.211 3803.96 163.743 L3803.96 147.909 L3800.44 147.909 L3800.44 144.185 L3803.96 144.185 L3803.96 135.904 L3808.78 135.904 Z" fill="#000000" fill-rule="nonzero" fill-opacity="1" /><path clip-path="url(#clip300)" d="M3847.11 182.206 L3847.11 185.93 L3819.4 185.93 L3819.4 182.206 L3847.11 182.206 Z" fill="#000000" fill-rule="nonzero" fill-opacity="1" /><path clip-path="url(#clip300)" d="M3852.34 134.472 L3872.99 134.472 L3872.99 138.899 L3857.16 138.899 L3857.16 148.43 Q3858.31 148.04 3859.45 147.857 Q3860.6 147.649 3861.74 147.649 Q3868.26 147.649 3872.06 151.217 Q3875.86 154.784 3875.86 160.878 Q3875.86 167.154 3871.95 170.644 Q3868.05 174.107 3860.94 174.107 Q3858.49 174.107 3855.94 173.69 Q3853.41 173.274 3850.7 172.441 L3850.7 167.154 Q3853.05 168.43 3855.55 169.055 Q3858.05 169.68 3860.83 169.68 Q3865.34 169.68 3867.97 167.31 Q3870.6 164.941 3870.6 160.878 Q3870.6 156.816 3867.97 154.446 Q3865.34 152.076 3860.83 152.076 Q3858.72 152.076 3856.61 152.545 Q3854.53 153.014 3852.34 154.003 L3852.34 134.472 Z" fill="#000000" fill-rule="nonzero" fill-opacity="1" /><path clip-path="url(#clip300)" d="M3890.75 168.925 L3909.11 168.925 L3909.11 173.352 L3884.43 173.352 L3884.43 168.925 Q3887.42 165.826 3892.58 160.618 Q3897.76 155.383 3899.09 153.873 Q3901.61 151.034 3902.6 149.081 Q3903.62 147.102 3903.62 145.201 Q3903.62 142.102 3901.43 140.149 Q3899.27 138.196 3895.78 138.196 Q3893.31 138.196 3890.55 139.055 Q3887.81 139.915 3884.69 141.659 L3884.69 136.347 Q3887.86 135.071 3890.62 134.42 Q3893.39 133.769 3895.68 133.769 Q3901.72 133.769 3905.31 136.79 Q3908.91 139.81 3908.91 144.863 Q3908.91 147.258 3907.99 149.42 Q3907.11 151.555 3904.74 154.472 Q3904.09 155.227 3900.6 158.847 Q3897.11 162.441 3890.75 168.925 Z" fill="#000000" fill-rule="nonzero" fill-opacity="1" /><polyline clip-path="url(#clip300)" style="stroke:#ff7c00; stroke-linecap:round; stroke-linejoin:round; stroke-width:5.625; stroke-opacity:1; fill:none" points="3346.8,212.232 3596.78,212.232 "/>
<path clip-path="url(#clip300)" d="M3643.26 227.297 L3643.26 242.766 L3638.44 242.766 L3638.44 202.505 L3643.26 202.505 L3643.26 206.933 Q3644.77 204.328 3647.06 203.078 Q3649.38 201.802 3652.58 201.802 Q3657.89 201.802 3661.2 206.021 Q3664.53 210.24 3664.53 217.115 Q3664.53 223.99 3661.2 228.208 Q3657.89 232.427 3652.58 232.427 Q3649.38 232.427 3647.06 231.177 Q3644.77 229.901 3643.26 227.297 M3659.56 217.115 Q3659.56 211.828 3657.37 208.834 Q3655.21 205.813 3651.41 205.813 Q3647.61 205.813 3645.42 208.834 Q3643.26 211.828 3643.26 217.115 Q3643.26 222.401 3645.42 225.422 Q3647.61 228.417 3651.41 228.417 Q3655.21 228.417 3657.37 225.422 Q3659.56 222.401 3659.56 217.115 Z" fill="#000000" fill-rule="nonzero" fill-opacity="1" /><path clip-path="url(#clip300)" d="M3689.38 206.985 Q3688.57 206.516 3687.6 206.308 Q3686.67 206.073 3685.52 206.073 Q3681.46 206.073 3679.27 208.729 Q3677.11 211.36 3677.11 216.307 L3677.11 231.672 L3672.29 231.672 L3672.29 202.505 L3677.11 202.505 L3677.11 207.037 Q3678.62 204.38 3681.04 203.104 Q3683.46 201.802 3686.93 201.802 Q3687.42 201.802 3688.02 201.88 Q3688.62 201.933 3689.35 202.063 L3689.38 206.985 Z" fill="#000000" fill-rule="nonzero" fill-opacity="1" /><path clip-path="url(#clip300)" d="M3718.18 215.891 L3718.18 218.235 L3696.15 218.235 Q3696.46 223.182 3699.12 225.787 Q3701.8 228.365 3706.56 228.365 Q3709.32 228.365 3711.9 227.688 Q3714.51 227.011 3717.06 225.656 L3717.06 230.188 Q3714.48 231.281 3711.77 231.854 Q3709.06 232.427 3706.28 232.427 Q3699.3 232.427 3695.21 228.365 Q3691.15 224.302 3691.15 217.375 Q3691.15 210.214 3695 206.021 Q3698.88 201.802 3705.44 201.802 Q3711.33 201.802 3714.74 205.604 Q3718.18 209.38 3718.18 215.891 M3713.39 214.485 Q3713.33 210.552 3711.17 208.209 Q3709.04 205.865 3705.5 205.865 Q3701.49 205.865 3699.06 208.13 Q3696.67 210.396 3696.3 214.511 L3713.39 214.485 Z" fill="#000000" fill-rule="nonzero" fill-opacity="1" /><path clip-path="url(#clip300)" d="M3745.23 206.933 L3745.23 191.151 L3750.03 191.151 L3750.03 231.672 L3745.23 231.672 L3745.23 227.297 Q3743.72 229.901 3741.41 231.177 Q3739.12 232.427 3735.89 232.427 Q3730.6 232.427 3727.27 228.208 Q3723.96 223.99 3723.96 217.115 Q3723.96 210.24 3727.27 206.021 Q3730.6 201.802 3735.89 201.802 Q3739.12 201.802 3741.41 203.078 Q3743.72 204.328 3745.23 206.933 M3728.91 217.115 Q3728.91 222.401 3731.07 225.422 Q3733.26 228.417 3737.06 228.417 Q3740.86 228.417 3743.05 225.422 Q3745.23 222.401 3745.23 217.115 Q3745.23 211.828 3743.05 208.834 Q3740.86 205.813 3737.06 205.813 Q3733.26 205.813 3731.07 208.834 Q3728.91 211.828 3728.91 217.115 Z" fill="#000000" fill-rule="nonzero" fill-opacity="1" /><path clip-path="url(#clip300)" d="M3759.9 202.505 L3764.69 202.505 L3764.69 231.672 L3759.9 231.672 L3759.9 202.505 M3759.9 191.151 L3764.69 191.151 L3764.69 197.219 L3759.9 197.219 L3759.9 191.151 Z" fill="#000000" fill-rule="nonzero" fill-opacity="1" /><path clip-path="url(#clip300)" d="M3795.7 203.625 L3795.7 208.104 Q3793.67 206.985 3791.61 206.438 Q3789.58 205.865 3787.5 205.865 Q3782.84 205.865 3780.26 208.834 Q3777.68 211.776 3777.68 217.115 Q3777.68 222.453 3780.26 225.422 Q3782.84 228.365 3787.5 228.365 Q3789.58 228.365 3791.61 227.818 Q3793.67 227.245 3795.7 226.125 L3795.7 230.552 Q3793.7 231.49 3791.54 231.958 Q3789.4 232.427 3786.98 232.427 Q3780.39 232.427 3776.51 228.287 Q3772.63 224.146 3772.63 217.115 Q3772.63 209.979 3776.54 205.891 Q3780.47 201.802 3787.29 201.802 Q3789.51 201.802 3791.61 202.271 Q3793.72 202.714 3795.7 203.625 Z" fill="#000000" fill-rule="nonzero" fill-opacity="1" /><path clip-path="url(#clip300)" d="M3808.78 194.224 L3808.78 202.505 L3818.65 202.505 L3818.65 206.229 L3808.78 206.229 L3808.78 222.063 Q3808.78 225.63 3809.74 226.646 Q3810.73 227.662 3813.72 227.662 L3818.65 227.662 L3818.65 231.672 L3813.72 231.672 Q3808.18 231.672 3806.07 229.615 Q3803.96 227.531 3803.96 222.063 L3803.96 206.229 L3800.44 206.229 L3800.44 202.505 L3803.96 202.505 L3803.96 194.224 L3808.78 194.224 Z" fill="#000000" fill-rule="nonzero" fill-opacity="1" /><path clip-path="url(#clip300)" d="M3847.11 240.526 L3847.11 244.25 L3819.4 244.25 L3819.4 240.526 L3847.11 240.526 Z" fill="#000000" fill-rule="nonzero" fill-opacity="1" /><path clip-path="url(#clip300)" d="M3856.82 227.245 L3875.18 227.245 L3875.18 231.672 L3850.49 231.672 L3850.49 227.245 Q3853.49 224.146 3858.65 218.938 Q3863.83 213.703 3865.16 212.193 Q3867.68 209.354 3868.67 207.401 Q3869.69 205.422 3869.69 203.521 Q3869.69 200.422 3867.5 198.469 Q3865.34 196.516 3861.85 196.516 Q3859.37 196.516 3856.61 197.375 Q3853.88 198.235 3850.76 199.979 L3850.76 194.667 Q3853.93 193.391 3856.69 192.74 Q3859.45 192.089 3861.74 192.089 Q3867.79 192.089 3871.38 195.11 Q3874.97 198.13 3874.97 203.183 Q3874.97 205.578 3874.06 207.74 Q3873.18 209.875 3870.81 212.792 Q3870.16 213.547 3866.67 217.167 Q3863.18 220.761 3856.82 227.245 Z" fill="#000000" fill-rule="nonzero" fill-opacity="1" /><path clip-path="url(#clip300)" d="M3898.12 210.136 Q3894.58 210.136 3892.5 212.557 Q3890.44 214.979 3890.44 219.198 Q3890.44 223.391 3892.5 225.839 Q3894.58 228.261 3898.12 228.261 Q3901.67 228.261 3903.72 225.839 Q3905.81 223.391 3905.81 219.198 Q3905.81 214.979 3903.72 212.557 Q3901.67 210.136 3898.12 210.136 M3908.57 193.651 L3908.57 198.443 Q3906.59 197.505 3904.56 197.011 Q3902.55 196.516 3900.57 196.516 Q3895.36 196.516 3892.6 200.031 Q3889.87 203.547 3889.48 210.656 Q3891.02 208.391 3893.33 207.193 Q3895.65 205.969 3898.44 205.969 Q3904.3 205.969 3907.68 209.537 Q3911.09 213.078 3911.09 219.198 Q3911.09 225.188 3907.55 228.807 Q3904.01 232.427 3898.12 232.427 Q3891.38 232.427 3887.81 227.271 Q3884.24 222.089 3884.24 212.271 Q3884.24 203.052 3888.62 197.584 Q3892.99 192.089 3900.36 192.089 Q3902.34 192.089 3904.35 192.479 Q3906.38 192.87 3908.57 193.651 Z" fill="#000000" fill-rule="nonzero" fill-opacity="1" /><polyline clip-path="url(#clip300)" style="stroke:#1ac938; stroke-linecap:round; stroke-linejoin:round; stroke-width:5.625; stroke-opacity:1; fill:none" points="3346.8,270.552 3596.78,270.552 "/>
<path clip-path="url(#clip300)" d="M3643.26 285.617 L3643.26 301.086 L3638.44 301.086 L3638.44 260.825 L3643.26 260.825 L3643.26 265.253 Q3644.77 262.648 3647.06 261.398 Q3649.38 260.122 3652.58 260.122 Q3657.89 260.122 3661.2 264.341 Q3664.53 268.56 3664.53 275.435 Q3664.53 282.31 3661.2 286.528 Q3657.89 290.747 3652.58 290.747 Q3649.38 290.747 3647.06 289.497 Q3644.77 288.221 3643.26 285.617 M3659.56 275.435 Q3659.56 270.148 3657.37 267.154 Q3655.21 264.133 3651.41 264.133 Q3647.61 264.133 3645.42 267.154 Q3643.26 270.148 3643.26 275.435 Q3643.26 280.721 3645.42 283.742 Q3647.61 286.737 3651.41 286.737 Q3655.21 286.737 3657.37 283.742 Q3659.56 280.721 3659.56 275.435 Z" fill="#000000" fill-rule="nonzero" fill-opacity="1" /><path clip-path="url(#clip300)" d="M3689.38 265.305 Q3688.57 264.836 3687.6 264.628 Q3686.67 264.393 3685.52 264.393 Q3681.46 264.393 3679.27 267.049 Q3677.11 269.68 3677.11 274.627 L3677.11 289.992 L3672.29 289.992 L3672.29 260.825 L3677.11 260.825 L3677.11 265.357 Q3678.62 262.7 3681.04 261.424 Q3683.46 260.122 3686.93 260.122 Q3687.42 260.122 3688.02 260.2 Q3688.62 260.253 3689.35 260.383 L3689.38 265.305 Z" fill="#000000" fill-rule="nonzero" fill-opacity="1" /><path clip-path="url(#clip300)" d="M3718.18 274.211 L3718.18 276.555 L3696.15 276.555 Q3696.46 281.502 3699.12 284.107 Q3701.8 286.685 3706.56 286.685 Q3709.32 286.685 3711.9 286.008 Q3714.51 285.331 3717.06 283.976 L3717.06 288.508 Q3714.48 289.601 3711.77 290.174 Q3709.06 290.747 3706.28 290.747 Q3699.3 290.747 3695.21 286.685 Q3691.15 282.622 3691.15 275.695 Q3691.15 268.534 3695 264.341 Q3698.88 260.122 3705.44 260.122 Q3711.33 260.122 3714.74 263.924 Q3718.18 267.7 3718.18 274.211 M3713.39 272.805 Q3713.33 268.872 3711.17 266.529 Q3709.04 264.185 3705.5 264.185 Q3701.49 264.185 3699.06 266.45 Q3696.67 268.716 3696.3 272.831 L3713.39 272.805 Z" fill="#000000" fill-rule="nonzero" fill-opacity="1" /><path clip-path="url(#clip300)" d="M3745.23 265.253 L3745.23 249.471 L3750.03 249.471 L3750.03 289.992 L3745.23 289.992 L3745.23 285.617 Q3743.72 288.221 3741.41 289.497 Q3739.12 290.747 3735.89 290.747 Q3730.6 290.747 3727.27 286.528 Q3723.96 282.31 3723.96 275.435 Q3723.96 268.56 3727.27 264.341 Q3730.6 260.122 3735.89 260.122 Q3739.12 260.122 3741.41 261.398 Q3743.72 262.648 3745.23 265.253 M3728.91 275.435 Q3728.91 280.721 3731.07 283.742 Q3733.26 286.737 3737.06 286.737 Q3740.86 286.737 3743.05 283.742 Q3745.23 280.721 3745.23 275.435 Q3745.23 270.148 3743.05 267.154 Q3740.86 264.133 3737.06 264.133 Q3733.26 264.133 3731.07 267.154 Q3728.91 270.148 3728.91 275.435 Z" fill="#000000" fill-rule="nonzero" fill-opacity="1" /><path clip-path="url(#clip300)" d="M3759.9 260.825 L3764.69 260.825 L3764.69 289.992 L3759.9 289.992 L3759.9 260.825 M3759.9 249.471 L3764.69 249.471 L3764.69 255.539 L3759.9 255.539 L3759.9 249.471 Z" fill="#000000" fill-rule="nonzero" fill-opacity="1" /><path clip-path="url(#clip300)" d="M3795.7 261.945 L3795.7 266.424 Q3793.67 265.305 3791.61 264.758 Q3789.58 264.185 3787.5 264.185 Q3782.84 264.185 3780.26 267.154 Q3777.68 270.096 3777.68 275.435 Q3777.68 280.773 3780.26 283.742 Q3782.84 286.685 3787.5 286.685 Q3789.58 286.685 3791.61 286.138 Q3793.67 285.565 3795.7 284.445 L3795.7 288.872 Q3793.7 289.81 3791.54 290.278 Q3789.4 290.747 3786.98 290.747 Q3780.39 290.747 3776.51 286.607 Q3772.63 282.466 3772.63 275.435 Q3772.63 268.299 3776.54 264.211 Q3780.47 260.122 3787.29 260.122 Q3789.51 260.122 3791.61 260.591 Q3793.72 261.034 3795.7 261.945 Z" fill="#000000" fill-rule="nonzero" fill-opacity="1" /><path clip-path="url(#clip300)" d="M3808.78 252.544 L3808.78 260.825 L3818.65 260.825 L3818.65 264.549 L3808.78 264.549 L3808.78 280.383 Q3808.78 283.95 3809.74 284.966 Q3810.73 285.982 3813.72 285.982 L3818.65 285.982 L3818.65 289.992 L3813.72 289.992 Q3808.18 289.992 3806.07 287.935 Q3803.96 285.851 3803.96 280.383 L3803.96 264.549 L3800.44 264.549 L3800.44 260.825 L3803.96 260.825 L3803.96 252.544 L3808.78 252.544 Z" fill="#000000" fill-rule="nonzero" fill-opacity="1" /><path clip-path="url(#clip300)" d="M3847.11 298.846 L3847.11 302.57 L3819.4 302.57 L3819.4 298.846 L3847.11 298.846 Z" fill="#000000" fill-rule="nonzero" fill-opacity="1" /><path clip-path="url(#clip300)" d="M3866.74 255.695 L3853.46 276.45 L3866.74 276.45 L3866.74 255.695 M3865.36 251.112 L3871.98 251.112 L3871.98 276.45 L3877.53 276.45 L3877.53 280.825 L3871.98 280.825 L3871.98 289.992 L3866.74 289.992 L3866.74 280.825 L3849.19 280.825 L3849.19 275.747 L3865.36 251.112 Z" fill="#000000" fill-rule="nonzero" fill-opacity="1" /><polyline clip-path="url(#clip300)" style="stroke:#e8000b; stroke-linecap:round; stroke-linejoin:round; stroke-width:5.625; stroke-opacity:1; fill:none" points="3346.8,328.872 3596.78,328.872 "/>
<path clip-path="url(#clip300)" d="M3643.26 343.937 L3643.26 359.406 L3638.44 359.406 L3638.44 319.145 L3643.26 319.145 L3643.26 323.573 Q3644.77 320.968 3647.06 319.718 Q3649.38 318.442 3652.58 318.442 Q3657.89 318.442 3661.2 322.661 Q3664.53 326.88 3664.53 333.755 Q3664.53 340.63 3661.2 344.848 Q3657.89 349.067 3652.58 349.067 Q3649.38 349.067 3647.06 347.817 Q3644.77 346.541 3643.26 343.937 M3659.56 333.755 Q3659.56 328.468 3657.37 325.474 Q3655.21 322.453 3651.41 322.453 Q3647.61 322.453 3645.42 325.474 Q3643.26 328.468 3643.26 333.755 Q3643.26 339.041 3645.42 342.062 Q3647.61 345.057 3651.41 345.057 Q3655.21 345.057 3657.37 342.062 Q3659.56 339.041 3659.56 333.755 Z" fill="#000000" fill-rule="nonzero" fill-opacity="1" /><path clip-path="url(#clip300)" d="M3689.38 323.625 Q3688.57 323.156 3687.6 322.948 Q3686.67 322.713 3685.52 322.713 Q3681.46 322.713 3679.27 325.369 Q3677.11 328 3677.11 332.947 L3677.11 348.312 L3672.29 348.312 L3672.29 319.145 L3677.11 319.145 L3677.11 323.677 Q3678.62 321.02 3681.04 319.744 Q3683.46 318.442 3686.93 318.442 Q3687.42 318.442 3688.02 318.52 Q3688.62 318.573 3689.35 318.703 L3689.38 323.625 Z" fill="#000000" fill-rule="nonzero" fill-opacity="1" /><path clip-path="url(#clip300)" d="M3718.18 332.531 L3718.18 334.875 L3696.15 334.875 Q3696.46 339.822 3699.12 342.427 Q3701.8 345.005 3706.56 345.005 Q3709.32 345.005 3711.9 344.328 Q3714.51 343.651 3717.06 342.296 L3717.06 346.828 Q3714.48 347.921 3711.77 348.494 Q3709.06 349.067 3706.28 349.067 Q3699.3 349.067 3695.21 345.005 Q3691.15 340.942 3691.15 334.015 Q3691.15 326.854 3695 322.661 Q3698.88 318.442 3705.44 318.442 Q3711.33 318.442 3714.74 322.244 Q3718.18 326.02 3718.18 332.531 M3713.39 331.125 Q3713.33 327.192 3711.17 324.849 Q3709.04 322.505 3705.5 322.505 Q3701.49 322.505 3699.06 324.77 Q3696.67 327.036 3696.3 331.151 L3713.39 331.125 Z" fill="#000000" fill-rule="nonzero" fill-opacity="1" /><path clip-path="url(#clip300)" d="M3745.23 323.573 L3745.23 307.791 L3750.03 307.791 L3750.03 348.312 L3745.23 348.312 L3745.23 343.937 Q3743.72 346.541 3741.41 347.817 Q3739.12 349.067 3735.89 349.067 Q3730.6 349.067 3727.27 344.848 Q3723.96 340.63 3723.96 333.755 Q3723.96 326.88 3727.27 322.661 Q3730.6 318.442 3735.89 318.442 Q3739.12 318.442 3741.41 319.718 Q3743.72 320.968 3745.23 323.573 M3728.91 333.755 Q3728.91 339.041 3731.07 342.062 Q3733.26 345.057 3737.06 345.057 Q3740.86 345.057 3743.05 342.062 Q3745.23 339.041 3745.23 333.755 Q3745.23 328.468 3743.05 325.474 Q3740.86 322.453 3737.06 322.453 Q3733.26 322.453 3731.07 325.474 Q3728.91 328.468 3728.91 333.755 Z" fill="#000000" fill-rule="nonzero" fill-opacity="1" /><path clip-path="url(#clip300)" d="M3759.9 319.145 L3764.69 319.145 L3764.69 348.312 L3759.9 348.312 L3759.9 319.145 M3759.9 307.791 L3764.69 307.791 L3764.69 313.859 L3759.9 313.859 L3759.9 307.791 Z" fill="#000000" fill-rule="nonzero" fill-opacity="1" /><path clip-path="url(#clip300)" d="M3795.7 320.265 L3795.7 324.744 Q3793.67 323.625 3791.61 323.078 Q3789.58 322.505 3787.5 322.505 Q3782.84 322.505 3780.26 325.474 Q3777.68 328.416 3777.68 333.755 Q3777.68 339.093 3780.26 342.062 Q3782.84 345.005 3787.5 345.005 Q3789.58 345.005 3791.61 344.458 Q3793.67 343.885 3795.7 342.765 L3795.7 347.192 Q3793.7 348.13 3791.54 348.598 Q3789.4 349.067 3786.98 349.067 Q3780.39 349.067 3776.51 344.927 Q3772.63 340.786 3772.63 333.755 Q3772.63 326.619 3776.54 322.531 Q3780.47 318.442 3787.29 318.442 Q3789.51 318.442 3791.61 318.911 Q3793.72 319.354 3795.7 320.265 Z" fill="#000000" fill-rule="nonzero" fill-opacity="1" /><path clip-path="url(#clip300)" d="M3808.78 310.864 L3808.78 319.145 L3818.65 319.145 L3818.65 322.869 L3808.78 322.869 L3808.78 338.703 Q3808.78 342.27 3809.74 343.286 Q3810.73 344.302 3813.72 344.302 L3818.65 344.302 L3818.65 348.312 L3813.72 348.312 Q3808.18 348.312 3806.07 346.255 Q3803.96 344.171 3803.96 338.703 L3803.96 322.869 L3800.44 322.869 L3800.44 319.145 L3803.96 319.145 L3803.96 310.864 L3808.78 310.864 Z" fill="#000000" fill-rule="nonzero" fill-opacity="1" /><path clip-path="url(#clip300)" d="M3847.11 357.166 L3847.11 360.89 L3819.4 360.89 L3819.4 357.166 L3847.11 357.166 Z" fill="#000000" fill-rule="nonzero" fill-opacity="1" /><path clip-path="url(#clip300)" d="M3853.2 343.885 L3861.8 343.885 L3861.8 314.224 L3852.45 316.099 L3852.45 311.307 L3861.74 309.432 L3867.01 309.432 L3867.01 343.885 L3875.6 343.885 L3875.6 348.312 L3853.2 348.312 L3853.2 343.885 Z" fill="#000000" fill-rule="nonzero" fill-opacity="1" /><polyline clip-path="url(#clip300)" style="stroke:#000000; stroke-linecap:round; stroke-linejoin:round; stroke-width:6.75; stroke-opacity:1; fill:none" points="3346.8,387.192 3596.78,387.192 "/>
<path clip-path="url(#clip300)" d="M3653.52 391.971 Q3647.71 391.971 3645.47 393.299 Q3643.23 394.627 3643.23 397.83 Q3643.23 400.382 3644.9 401.892 Q3646.59 403.377 3649.48 403.377 Q3653.46 403.377 3655.86 400.564 Q3658.28 397.726 3658.28 393.038 L3658.28 391.971 L3653.52 391.971 M3663.07 389.991 L3663.07 406.632 L3658.28 406.632 L3658.28 402.205 Q3656.64 404.861 3654.19 406.137 Q3651.75 407.387 3648.2 407.387 Q3643.72 407.387 3641.07 404.887 Q3638.44 402.361 3638.44 398.142 Q3638.44 393.221 3641.72 390.721 Q3645.03 388.221 3651.56 388.221 L3658.28 388.221 L3658.28 387.752 Q3658.28 384.445 3656.09 382.648 Q3653.93 380.825 3650 380.825 Q3647.5 380.825 3645.13 381.424 Q3642.76 382.023 3640.57 383.221 L3640.57 378.794 Q3643.2 377.778 3645.68 377.283 Q3648.15 376.762 3650.5 376.762 Q3656.82 376.762 3659.95 380.044 Q3663.07 383.325 3663.07 389.991 Z" fill="#000000" fill-rule="nonzero" fill-opacity="1" /><path clip-path="url(#clip300)" d="M3693.93 378.585 L3693.93 383.064 Q3691.9 381.945 3689.84 381.398 Q3687.81 380.825 3685.73 380.825 Q3681.07 380.825 3678.49 383.794 Q3675.91 386.736 3675.91 392.075 Q3675.91 397.413 3678.49 400.382 Q3681.07 403.325 3685.73 403.325 Q3687.81 403.325 3689.84 402.778 Q3691.9 402.205 3693.93 401.085 L3693.93 405.512 Q3691.93 406.45 3689.77 406.918 Q3687.63 407.387 3685.21 407.387 Q3678.62 407.387 3674.74 403.247 Q3670.86 399.106 3670.86 392.075 Q3670.86 384.939 3674.77 380.851 Q3678.7 376.762 3685.52 376.762 Q3687.74 376.762 3689.84 377.231 Q3691.95 377.674 3693.93 378.585 Z" fill="#000000" fill-rule="nonzero" fill-opacity="1" /><path clip-path="url(#clip300)" d="M3707.01 369.184 L3707.01 377.465 L3716.88 377.465 L3716.88 381.189 L3707.01 381.189 L3707.01 397.023 Q3707.01 400.59 3707.97 401.606 Q3708.96 402.622 3711.95 402.622 L3716.88 402.622 L3716.88 406.632 L3711.95 406.632 Q3706.41 406.632 3704.3 404.575 Q3702.19 402.491 3702.19 397.023 L3702.19 381.189 L3698.67 381.189 L3698.67 377.465 L3702.19 377.465 L3702.19 369.184 L3707.01 369.184 Z" fill="#000000" fill-rule="nonzero" fill-opacity="1" /><path clip-path="url(#clip300)" d="M3722.68 395.122 L3722.68 377.465 L3727.47 377.465 L3727.47 394.939 Q3727.47 399.08 3729.09 401.163 Q3730.7 403.221 3733.93 403.221 Q3737.81 403.221 3740.05 400.747 Q3742.32 398.273 3742.32 394.002 L3742.32 377.465 L3747.11 377.465 L3747.11 406.632 L3742.32 406.632 L3742.32 402.153 Q3740.57 404.809 3738.26 406.111 Q3735.96 407.387 3732.92 407.387 Q3727.89 407.387 3725.29 404.262 Q3722.68 401.137 3722.68 395.122 M3734.74 376.762 L3734.74 376.762 Z" fill="#000000" fill-rule="nonzero" fill-opacity="1" /><path clip-path="url(#clip300)" d="M3770.23 391.971 Q3764.43 391.971 3762.19 393.299 Q3759.95 394.627 3759.95 397.83 Q3759.95 400.382 3761.61 401.892 Q3763.31 403.377 3766.2 403.377 Q3770.18 403.377 3772.58 400.564 Q3775 397.726 3775 393.038 L3775 391.971 L3770.23 391.971 M3779.79 389.991 L3779.79 406.632 L3775 406.632 L3775 402.205 Q3773.36 404.861 3770.91 406.137 Q3768.46 407.387 3764.92 407.387 Q3760.44 407.387 3757.79 404.887 Q3755.16 402.361 3755.16 398.142 Q3755.16 393.221 3758.44 390.721 Q3761.75 388.221 3768.28 388.221 L3775 388.221 L3775 387.752 Q3775 384.445 3772.81 382.648 Q3770.65 380.825 3766.72 380.825 Q3764.22 380.825 3761.85 381.424 Q3759.48 382.023 3757.29 383.221 L3757.29 378.794 Q3759.92 377.778 3762.4 377.283 Q3764.87 376.762 3767.21 376.762 Q3773.54 376.762 3776.67 380.044 Q3779.79 383.325 3779.79 389.991 Z" fill="#000000" fill-rule="nonzero" fill-opacity="1" /><path clip-path="url(#clip300)" d="M3789.66 366.111 L3794.45 366.111 L3794.45 406.632 L3789.66 406.632 L3789.66 366.111 Z" fill="#000000" fill-rule="nonzero" fill-opacity="1" /></svg>
