<?xml version="1.0" encoding="UTF-8" standalone="no"?>
<!DOCTYPE svg PUBLIC "-//W3C//DTD SVG 1.1//EN"
 "http://www.w3.org/Graphics/SVG/1.1/DTD/svg11.dtd">
<!-- Generated by graphviz version 2.50.0 (20211204.2007)
 -->
<!-- Pages: 1 -->
<svg width="1245pt" height="896pt"
 viewBox="0.00 0.00 1245.00 896.00" xmlns="http://www.w3.org/2000/svg" xmlns:xlink="http://www.w3.org/1999/xlink">
<g id="graph0" class="graph" transform="scale(1 1) rotate(0) translate(4 892)">
<polygon fill="white" stroke="transparent" points="-4,4 -4,-892 1241,-892 1241,4 -4,4"/>
<!-- 1 -->
<g id="node1" class="node">
<title>1</title>
<text text-anchor="start" x="611" y="-869.8" font-family="Arial" font-weight="bold" font-size="14.00"> </text>
<path fill="#ebebeb" stroke="transparent" d="M571,-797C571,-797 655,-797 655,-797 661,-797 667,-803 667,-809 667,-809 667,-849 667,-849 667,-855 661,-861 655,-861 655,-861 571,-861 571,-861 565,-861 559,-855 559,-849 559,-849 559,-809 559,-809 559,-803 565,-797 571,-797"/>
<text text-anchor="start" x="560" y="-858.4" font-family="Arial" font-size="2.00"> </text>
<text text-anchor="start" x="560" y="-852.4" font-family="Arial" font-size="7.00"> &#160;1</text>
<text text-anchor="start" x="574" y="-835.8" font-family="Arial" font-weight="bold" font-size="14.00">Mean: 10.76</text>
<text text-anchor="start" x="589.5" y="-818.8" font-family="Arial" font-weight="bold" font-size="14.00">n = 672</text>
<text text-anchor="start" x="611.5" y="-800.8" font-family="Arial" font-size="9.00"> </text>
<path fill="none" stroke="#333333" d="M571,-797C571,-797 655,-797 655,-797 661,-797 667,-803 667,-809 667,-809 667,-849 667,-849 667,-855 661,-861 655,-861 655,-861 571,-861 571,-861 565,-861 559,-855 559,-849 559,-849 559,-809 559,-809 559,-803 565,-797 571,-797"/>
<text text-anchor="start" x="598.5" y="-782.8" font-family="Arial" font-weight="bold" font-size="14.00">time</text>
</g>
<!-- 2 -->
<g id="node2" class="node">
<title>2</title>
<text text-anchor="start" x="514.5" y="-715.8" font-family="Arial" font-weight="bold" font-size="14.00"> &lt; 6.5</text>
<text text-anchor="start" x="464" y="-671.3" font-family="Arial" font-size="14.00"> &#160;&#160;</text>
<path fill="#ebebeb" stroke="transparent" d="M490,-643C490,-643 574,-643 574,-643 580,-643 586,-649 586,-655 586,-655 586,-695 586,-695 586,-701 580,-707 574,-707 574,-707 490,-707 490,-707 484,-707 478,-701 478,-695 478,-695 478,-655 478,-655 478,-649 484,-643 490,-643"/>
<text text-anchor="start" x="479" y="-704.4" font-family="Arial" font-size="2.00"> </text>
<text text-anchor="start" x="479" y="-698.4" font-family="Arial" font-size="7.00"> &#160;2</text>
<text text-anchor="start" x="493" y="-681.8" font-family="Arial" font-weight="bold" font-size="14.00">Mean: 8.855</text>
<text text-anchor="start" x="508.5" y="-664.8" font-family="Arial" font-weight="bold" font-size="14.00">n = 196</text>
<text text-anchor="start" x="530.5" y="-646.8" font-family="Arial" font-size="9.00"> </text>
<path fill="none" stroke="#333333" d="M490,-643C490,-643 574,-643 574,-643 580,-643 586,-649 586,-655 586,-655 586,-695 586,-695 586,-701 580,-707 574,-707 574,-707 490,-707 490,-707 484,-707 478,-701 478,-695 478,-695 478,-655 478,-655 478,-649 484,-643 490,-643"/>
<text text-anchor="start" x="588" y="-671.3" font-family="Arial" font-size="14.00"> &#160;&#160;</text>
<text text-anchor="start" x="479" y="-628.8" font-family="Arial" font-weight="bold" font-size="14.00">prev_168_inflow</text>
</g>
<!-- 1&#45;&gt;2 -->
<g id="edge1" class="edge">
<title>1&#45;&gt;2</title>
<path fill="none" stroke="#888888" d="M581.91,-769.67C577.31,-761.03 572.54,-752.07 567.85,-743.27"/>
<polygon fill="#888888" stroke="#888888" points="570.79,-741.36 563,-734.18 564.62,-744.65 570.79,-741.36"/>
</g>
<!-- 11 -->
<g id="node3" class="node">
<title>11</title>
<text text-anchor="start" x="677.5" y="-715.8" font-family="Arial" font-weight="bold" font-size="14.00"> ≥ 6.5</text>
<path fill="#ebebeb" stroke="transparent" d="M653,-643C653,-643 736,-643 736,-643 742,-643 748,-649 748,-655 748,-655 748,-695 748,-695 748,-701 742,-707 736,-707 736,-707 653,-707 653,-707 647,-707 641,-701 641,-695 641,-695 641,-655 641,-655 641,-649 647,-643 653,-643"/>
<text text-anchor="start" x="642" y="-704.4" font-family="Arial" font-size="2.00"> </text>
<text text-anchor="start" x="642" y="-698.4" font-family="Arial" font-size="7.00"> &#160;11</text>
<text text-anchor="start" x="656" y="-681.8" font-family="Arial" font-weight="bold" font-size="14.00">Mean: 11.54</text>
<text text-anchor="start" x="671" y="-664.8" font-family="Arial" font-weight="bold" font-size="14.00">n = 476</text>
<text text-anchor="start" x="693" y="-646.8" font-family="Arial" font-size="9.00"> </text>
<path fill="none" stroke="#333333" d="M653,-643C653,-643 736,-643 736,-643 742,-643 748,-649 748,-655 748,-655 748,-695 748,-695 748,-701 742,-707 736,-707 736,-707 653,-707 653,-707 647,-707 641,-701 641,-695 641,-695 641,-655 641,-655 641,-649 647,-643 653,-643"/>
<text text-anchor="start" x="665.5" y="-628.8" font-family="Arial" font-weight="bold" font-size="14.00">air_temp</text>
</g>
<!-- 1&#45;&gt;11 -->
<g id="edge2" class="edge">
<title>1&#45;&gt;11</title>
<path fill="none" stroke="#888888" d="M644.09,-769.67C648.69,-761.03 653.46,-752.07 658.15,-743.27"/>
<polygon fill="#888888" stroke="#888888" points="661.38,-744.65 663,-734.18 655.21,-741.36 661.38,-744.65"/>
</g>
<!-- 3 -->
<g id="node4" class="node">
<title>3</title>
<text text-anchor="start" x="356" y="-561.8" font-family="Arial" font-weight="bold" font-size="14.00"> &lt; 15.41</text>
<path fill="#ebebeb" stroke="transparent" d="M339,-489C339,-489 423,-489 423,-489 429,-489 435,-495 435,-501 435,-501 435,-541 435,-541 435,-547 429,-553 423,-553 423,-553 339,-553 339,-553 333,-553 327,-547 327,-541 327,-541 327,-501 327,-501 327,-495 333,-489 339,-489"/>
<text text-anchor="start" x="328" y="-550.4" font-family="Arial" font-size="2.00"> </text>
<text text-anchor="start" x="328" y="-544.4" font-family="Arial" font-size="7.00"> &#160;3</text>
<text text-anchor="start" x="342" y="-527.8" font-family="Arial" font-weight="bold" font-size="14.00">Mean: 8.414</text>
<text text-anchor="start" x="357.5" y="-510.8" font-family="Arial" font-weight="bold" font-size="14.00">n = 188</text>
<text text-anchor="start" x="379.5" y="-492.8" font-family="Arial" font-size="9.00"> </text>
<path fill="none" stroke="#333333" d="M339,-489C339,-489 423,-489 423,-489 429,-489 435,-495 435,-501 435,-501 435,-541 435,-541 435,-547 429,-553 423,-553 423,-553 339,-553 339,-553 333,-553 327,-547 327,-541 327,-541 327,-501 327,-501 327,-495 333,-489 339,-489"/>
<text text-anchor="start" x="366.5" y="-474.8" font-family="Arial" font-weight="bold" font-size="14.00">time</text>
</g>
<!-- 2&#45;&gt;3 -->
<g id="edge3" class="edge">
<title>2&#45;&gt;3</title>
<path fill="none" stroke="#888888" d="M474.05,-615.67C464.84,-606.39 455.26,-596.75 445.9,-587.33"/>
<polygon fill="#888888" stroke="#888888" points="448.32,-584.8 438.79,-580.18 443.36,-589.74 448.32,-584.8"/>
</g>
<!-- 10 -->
<g id="node5" class="node">
<title>10</title>
<text text-anchor="start" x="509.5" y="-561.8" font-family="Arial" font-weight="bold" font-size="14.00"> ≥ 15.41</text>
<path fill="#f8766d" fill-opacity="0.376471" stroke="transparent" d="M489,-489C489,-489 579,-489 579,-489 585,-489 591,-495 591,-501 591,-501 591,-541 591,-541 591,-547 585,-553 579,-553 579,-553 489,-553 489,-553 483,-553 477,-547 477,-541 477,-541 477,-501 477,-501 477,-495 483,-489 489,-489"/>
<text text-anchor="start" x="478" y="-550.4" font-family="Arial" font-size="2.00"> </text>
<text text-anchor="start" x="478" y="-544.4" font-family="Arial" font-size="7.00"> &#160;10</text>
<text text-anchor="start" x="492" y="-527.8" font-family="Arial" font-weight="bold" font-size="14.00">Predict 19.23</text>
<text text-anchor="start" x="518" y="-510.8" font-family="Arial" font-weight="bold" font-size="14.00">n = 8</text>
<text text-anchor="start" x="532.5" y="-492.8" font-family="Arial" font-size="9.00"> </text>
<path fill="none" stroke="#333333" d="M489,-489C489,-489 579,-489 579,-489 585,-489 591,-495 591,-501 591,-501 591,-541 591,-541 591,-547 585,-553 579,-553 579,-553 489,-553 489,-553 483,-553 477,-547 477,-541 477,-541 477,-501 477,-501 477,-495 483,-489 489,-489"/>
<text text-anchor="start" x="532" y="-474.8" font-family="Arial" font-weight="bold" font-size="14.00"> </text>
</g>
<!-- 2&#45;&gt;10 -->
<g id="edge4" class="edge">
<title>2&#45;&gt;10</title>
<path fill="none" stroke="#888888" d="M532.77,-615.67C532.88,-607.39 532.99,-598.83 533.1,-590.38"/>
<polygon fill="#888888" stroke="#888888" points="536.6,-590.22 533.23,-580.18 529.6,-590.13 536.6,-590.22"/>
</g>
<!-- 12 -->
<g id="node12" class="node">
<title>12</title>
<text text-anchor="start" x="668" y="-561.8" font-family="Arial" font-weight="bold" font-size="14.00"> &lt; 26.15</text>
<path fill="#ebebeb" stroke="transparent" d="M651,-489C651,-489 735,-489 735,-489 741,-489 747,-495 747,-501 747,-501 747,-541 747,-541 747,-547 741,-553 735,-553 735,-553 651,-553 651,-553 645,-553 639,-547 639,-541 639,-541 639,-501 639,-501 639,-495 645,-489 651,-489"/>
<text text-anchor="start" x="640" y="-550.4" font-family="Arial" font-size="2.00"> </text>
<text text-anchor="start" x="640" y="-544.4" font-family="Arial" font-size="7.00"> &#160;12</text>
<text text-anchor="start" x="654" y="-527.8" font-family="Arial" font-weight="bold" font-size="14.00">Mean: 10.78</text>
<text text-anchor="start" x="670" y="-510.8" font-family="Arial" font-weight="bold" font-size="14.00">n = 211</text>
<text text-anchor="start" x="691.5" y="-492.8" font-family="Arial" font-size="9.00"> </text>
<path fill="none" stroke="#333333" d="M651,-489C651,-489 735,-489 735,-489 741,-489 747,-495 747,-501 747,-501 747,-541 747,-541 747,-547 741,-553 735,-553 735,-553 651,-553 651,-553 645,-553 639,-547 639,-541 639,-541 639,-501 639,-501 639,-495 645,-489 651,-489"/>
<text text-anchor="start" x="678.5" y="-474.8" font-family="Arial" font-weight="bold" font-size="14.00">time</text>
</g>
<!-- 11&#45;&gt;12 -->
<g id="edge11" class="edge">
<title>11&#45;&gt;12</title>
<path fill="none" stroke="#888888" d="M693.62,-615.67C693.56,-607.39 693.51,-598.83 693.45,-590.38"/>
<polygon fill="#888888" stroke="#888888" points="696.95,-590.15 693.38,-580.18 689.95,-590.2 696.95,-590.15"/>
</g>
<!-- 19 -->
<g id="node13" class="node">
<title>19</title>
<text text-anchor="start" x="830.5" y="-561.8" font-family="Arial" font-weight="bold" font-size="14.00"> ≥ 26.15</text>
<text text-anchor="start" x="787" y="-517.3" font-family="Arial" font-size="14.00"> &#160;&#160;</text>
<path fill="#ebebeb" stroke="transparent" d="M813,-489C813,-489 897,-489 897,-489 903,-489 909,-495 909,-501 909,-501 909,-541 909,-541 909,-547 903,-553 897,-553 897,-553 813,-553 813,-553 807,-553 801,-547 801,-541 801,-541 801,-501 801,-501 801,-495 807,-489 813,-489"/>
<text text-anchor="start" x="802" y="-550.4" font-family="Arial" font-size="2.00"> </text>
<text text-anchor="start" x="802" y="-544.4" font-family="Arial" font-size="7.00"> &#160;19</text>
<text text-anchor="start" x="816" y="-527.8" font-family="Arial" font-weight="bold" font-size="14.00">Mean: 12.15</text>
<text text-anchor="start" x="831.5" y="-510.8" font-family="Arial" font-weight="bold" font-size="14.00">n = 265</text>
<text text-anchor="start" x="853.5" y="-492.8" font-family="Arial" font-size="9.00"> </text>
<path fill="none" stroke="#333333" d="M813,-489C813,-489 897,-489 897,-489 903,-489 909,-495 909,-501 909,-501 909,-541 909,-541 909,-547 903,-553 897,-553 897,-553 813,-553 813,-553 807,-553 801,-547 801,-541 801,-541 801,-501 801,-501 801,-495 807,-489 813,-489"/>
<text text-anchor="start" x="911" y="-517.3" font-family="Arial" font-size="14.00"> &#160;&#160;</text>
<text text-anchor="start" x="802" y="-474.8" font-family="Arial" font-weight="bold" font-size="14.00">prev_168_inflow</text>
</g>
<!-- 11&#45;&gt;19 -->
<g id="edge12" class="edge">
<title>11&#45;&gt;19</title>
<path fill="none" stroke="#888888" d="M755.79,-615.67C765.71,-606.3 776.03,-596.56 786.1,-587.05"/>
<polygon fill="#888888" stroke="#888888" points="788.51,-589.59 793.38,-580.18 783.7,-584.5 788.51,-589.59"/>
</g>
<!-- 4 -->
<g id="node6" class="node">
<title>4</title>
<text text-anchor="start" x="212.5" y="-407.8" font-family="Arial" font-weight="bold" font-size="14.00"> &lt; 5.5</text>
<path fill="#ebebeb" stroke="transparent" d="M188,-335C188,-335 272,-335 272,-335 278,-335 284,-341 284,-347 284,-347 284,-387 284,-387 284,-393 278,-399 272,-399 272,-399 188,-399 188,-399 182,-399 176,-393 176,-387 176,-387 176,-347 176,-347 176,-341 182,-335 188,-335"/>
<text text-anchor="start" x="177" y="-396.4" font-family="Arial" font-size="2.00"> </text>
<text text-anchor="start" x="177" y="-390.4" font-family="Arial" font-size="7.00"> &#160;4</text>
<text text-anchor="start" x="191" y="-373.8" font-family="Arial" font-weight="bold" font-size="14.00">Mean: 8.073</text>
<text text-anchor="start" x="206.5" y="-356.8" font-family="Arial" font-weight="bold" font-size="14.00">n = 160</text>
<text text-anchor="start" x="228.5" y="-338.8" font-family="Arial" font-size="9.00"> </text>
<path fill="none" stroke="#333333" d="M188,-335C188,-335 272,-335 272,-335 278,-335 284,-341 284,-347 284,-347 284,-387 284,-387 284,-393 278,-399 272,-399 272,-399 188,-399 188,-399 182,-399 176,-393 176,-387 176,-387 176,-347 176,-347 176,-341 182,-335 188,-335"/>
<text text-anchor="start" x="201" y="-320.8" font-family="Arial" font-weight="bold" font-size="14.00">air_temp</text>
</g>
<!-- 3&#45;&gt;4 -->
<g id="edge5" class="edge">
<title>3&#45;&gt;4</title>
<path fill="none" stroke="#888888" d="M323.05,-461.67C313.84,-452.39 304.26,-442.75 294.9,-433.33"/>
<polygon fill="#888888" stroke="#888888" points="297.32,-430.8 287.79,-426.18 292.36,-435.74 297.32,-430.8"/>
</g>
<!-- 9 -->
<g id="node7" class="node">
<title>9</title>
<text text-anchor="start" x="366" y="-407.8" font-family="Arial" font-weight="bold" font-size="14.00"> ≥ 5.5</text>
<path fill="#f8766d" fill-opacity="0.737255" stroke="transparent" d="M338,-335C338,-335 428,-335 428,-335 434,-335 440,-341 440,-347 440,-347 440,-387 440,-387 440,-393 434,-399 428,-399 428,-399 338,-399 338,-399 332,-399 326,-393 326,-387 326,-387 326,-347 326,-347 326,-341 332,-335 338,-335"/>
<text text-anchor="start" x="327" y="-396.4" font-family="Arial" font-size="2.00"> </text>
<text text-anchor="start" x="327" y="-390.4" font-family="Arial" font-size="7.00"> &#160;9</text>
<text text-anchor="start" x="341" y="-373.8" font-family="Arial" font-weight="bold" font-size="14.00">Predict 10.36</text>
<text text-anchor="start" x="363" y="-356.8" font-family="Arial" font-weight="bold" font-size="14.00">n = 28</text>
<text text-anchor="start" x="381.5" y="-338.8" font-family="Arial" font-size="9.00"> </text>
<path fill="none" stroke="#333333" d="M338,-335C338,-335 428,-335 428,-335 434,-335 440,-341 440,-347 440,-347 440,-387 440,-387 440,-393 434,-399 428,-399 428,-399 338,-399 338,-399 332,-399 326,-393 326,-387 326,-387 326,-347 326,-347 326,-341 332,-335 338,-335"/>
<text text-anchor="start" x="381" y="-320.8" font-family="Arial" font-weight="bold" font-size="14.00"> </text>
</g>
<!-- 3&#45;&gt;9 -->
<g id="edge6" class="edge">
<title>3&#45;&gt;9</title>
<path fill="none" stroke="#888888" d="M381.77,-461.67C381.88,-453.39 381.99,-444.83 382.1,-436.38"/>
<polygon fill="#888888" stroke="#888888" points="385.6,-436.22 382.23,-426.18 378.6,-436.13 385.6,-436.22"/>
</g>
<!-- 5 -->
<g id="node8" class="node">
<title>5</title>
<text text-anchor="start" x="44" y="-253.8" font-family="Arial" font-weight="bold" font-size="14.00"> &lt; 24.05</text>
<path fill="#f8766d" fill-opacity="0.874510" stroke="transparent" d="M24,-181C24,-181 114,-181 114,-181 120,-181 126,-187 126,-193 126,-193 126,-233 126,-233 126,-239 120,-245 114,-245 114,-245 24,-245 24,-245 18,-245 12,-239 12,-233 12,-233 12,-193 12,-193 12,-187 18,-181 24,-181"/>
<text text-anchor="start" x="13" y="-242.4" font-family="Arial" font-size="2.00"> </text>
<text text-anchor="start" x="13" y="-236.4" font-family="Arial" font-size="7.00"> &#160;5</text>
<text text-anchor="start" x="27" y="-219.8" font-family="Arial" font-weight="bold" font-size="14.00">Predict 7.017</text>
<text text-anchor="start" x="49" y="-202.8" font-family="Arial" font-weight="bold" font-size="14.00">n = 51</text>
<text text-anchor="start" x="67.5" y="-184.8" font-family="Arial" font-size="9.00"> </text>
<path fill="none" stroke="#333333" d="M24,-181C24,-181 114,-181 114,-181 120,-181 126,-187 126,-193 126,-193 126,-233 126,-233 126,-239 120,-245 114,-245 114,-245 24,-245 24,-245 18,-245 12,-239 12,-233 12,-233 12,-193 12,-193 12,-187 18,-181 24,-181"/>
<text text-anchor="start" x="67" y="-166.8" font-family="Arial" font-weight="bold" font-size="14.00"> </text>
</g>
<!-- 4&#45;&gt;5 -->
<g id="edge7" class="edge">
<title>4&#45;&gt;5</title>
<path fill="none" stroke="#888888" d="M168.21,-307.67C158.29,-298.3 147.97,-288.56 137.9,-279.05"/>
<polygon fill="#888888" stroke="#888888" points="140.3,-276.5 130.62,-272.18 135.49,-281.59 140.3,-276.5"/>
</g>
<!-- 6 -->
<g id="node9" class="node">
<title>6</title>
<text text-anchor="start" x="209.5" y="-253.8" font-family="Arial" font-weight="bold" font-size="14.00"> ≥ 24.05</text>
<text text-anchor="start" x="166" y="-209.3" font-family="Arial" font-size="14.00"> &#160;&#160;</text>
<path fill="#ebebeb" stroke="transparent" d="M192,-181C192,-181 276,-181 276,-181 282,-181 288,-187 288,-193 288,-193 288,-233 288,-233 288,-239 282,-245 276,-245 276,-245 192,-245 192,-245 186,-245 180,-239 180,-233 180,-233 180,-193 180,-193 180,-187 186,-181 192,-181"/>
<text text-anchor="start" x="181" y="-242.4" font-family="Arial" font-size="2.00"> </text>
<text text-anchor="start" x="181" y="-236.4" font-family="Arial" font-size="7.00"> &#160;6</text>
<text text-anchor="start" x="195" y="-219.8" font-family="Arial" font-weight="bold" font-size="14.00">Mean: 8.568</text>
<text text-anchor="start" x="210.5" y="-202.8" font-family="Arial" font-weight="bold" font-size="14.00">n = 109</text>
<text text-anchor="start" x="232.5" y="-184.8" font-family="Arial" font-size="9.00"> </text>
<path fill="none" stroke="#333333" d="M192,-181C192,-181 276,-181 276,-181 282,-181 288,-187 288,-193 288,-193 288,-233 288,-233 288,-239 282,-245 276,-245 276,-245 192,-245 192,-245 186,-245 180,-239 180,-233 180,-233 180,-193 180,-193 180,-187 186,-181 192,-181"/>
<text text-anchor="start" x="290" y="-209.3" font-family="Arial" font-size="14.00"> &#160;&#160;</text>
<text text-anchor="start" x="181" y="-166.8" font-family="Arial" font-weight="bold" font-size="14.00">prev_168_inflow</text>
</g>
<!-- 4&#45;&gt;6 -->
<g id="edge8" class="edge">
<title>4&#45;&gt;6</title>
<path fill="none" stroke="#888888" d="M231.54,-307.67C231.75,-299.39 231.98,-290.83 232.2,-282.38"/>
<polygon fill="#888888" stroke="#888888" points="235.7,-282.27 232.47,-272.18 228.71,-282.08 235.7,-282.27"/>
</g>
<!-- 7 -->
<g id="node10" class="node">
<title>7</title>
<text text-anchor="start" x="139.5" y="-99.8" font-family="Arial" font-weight="bold" font-size="14.00"> &lt; 7.98</text>
<path fill="#f8766d" fill-opacity="0.835294" stroke="transparent" d="M116,-27C116,-27 206,-27 206,-27 212,-27 218,-33 218,-39 218,-39 218,-79 218,-79 218,-85 212,-91 206,-91 206,-91 116,-91 116,-91 110,-91 104,-85 104,-79 104,-79 104,-39 104,-39 104,-33 110,-27 116,-27"/>
<text text-anchor="start" x="105" y="-88.4" font-family="Arial" font-size="2.00"> </text>
<text text-anchor="start" x="105" y="-82.4" font-family="Arial" font-size="7.00"> &#160;7</text>
<text text-anchor="start" x="119" y="-65.8" font-family="Arial" font-weight="bold" font-size="14.00">Predict 8.032</text>
<text text-anchor="start" x="141" y="-48.8" font-family="Arial" font-weight="bold" font-size="14.00">n = 66</text>
<text text-anchor="start" x="159.5" y="-30.8" font-family="Arial" font-size="9.00"> </text>
<path fill="none" stroke="#333333" d="M116,-27C116,-27 206,-27 206,-27 212,-27 218,-33 218,-39 218,-39 218,-79 218,-79 218,-85 212,-91 206,-91 206,-91 116,-91 116,-91 110,-91 104,-85 104,-79 104,-79 104,-39 104,-39 104,-33 110,-27 116,-27"/>
<text text-anchor="start" x="159" y="-12.8" font-family="Arial" font-weight="bold" font-size="14.00"> </text>
</g>
<!-- 6&#45;&gt;7 -->
<g id="edge9" class="edge">
<title>6&#45;&gt;7</title>
<path fill="none" stroke="#888888" d="M205.99,-153.67C201.84,-145.03 197.53,-136.07 193.31,-127.27"/>
<polygon fill="#888888" stroke="#888888" points="196.42,-125.68 188.94,-118.18 190.11,-128.71 196.42,-125.68"/>
</g>
<!-- 8 -->
<g id="node11" class="node">
<title>8</title>
<text text-anchor="start" x="292" y="-99.8" font-family="Arial" font-weight="bold" font-size="14.00"> ≥ 7.98</text>
<path fill="#f8766d" fill-opacity="0.776471" stroke="transparent" d="M272,-27C272,-27 354,-27 354,-27 360,-27 366,-33 366,-39 366,-39 366,-79 366,-79 366,-85 360,-91 354,-91 354,-91 272,-91 272,-91 266,-91 260,-85 260,-79 260,-79 260,-39 260,-39 260,-33 266,-27 272,-27"/>
<text text-anchor="start" x="261" y="-88.4" font-family="Arial" font-size="2.00"> </text>
<text text-anchor="start" x="261" y="-82.4" font-family="Arial" font-size="7.00"> &#160;8</text>
<text text-anchor="start" x="275" y="-65.8" font-family="Arial" font-weight="bold" font-size="14.00">Predict 9.39</text>
<text text-anchor="start" x="293" y="-48.8" font-family="Arial" font-weight="bold" font-size="14.00">n = 43</text>
<text text-anchor="start" x="311.5" y="-30.8" font-family="Arial" font-size="9.00"> </text>
<path fill="none" stroke="#333333" d="M272,-27C272,-27 354,-27 354,-27 360,-27 366,-33 366,-39 366,-39 366,-79 366,-79 366,-85 360,-91 354,-91 354,-91 272,-91 272,-91 266,-91 260,-85 260,-79 260,-79 260,-39 260,-39 260,-33 266,-27 272,-27"/>
<text text-anchor="start" x="311" y="-12.8" font-family="Arial" font-weight="bold" font-size="14.00"> </text>
</g>
<!-- 6&#45;&gt;8 -->
<g id="edge10" class="edge">
<title>6&#45;&gt;8</title>
<path fill="none" stroke="#888888" d="M264.32,-153.67C268.81,-145.03 273.46,-136.07 278.04,-127.27"/>
<polygon fill="#888888" stroke="#888888" points="281.26,-128.66 282.76,-118.18 275.05,-125.44 281.26,-128.66"/>
</g>
<!-- 13 -->
<g id="node14" class="node">
<title>13</title>
<text text-anchor="start" x="519" y="-407.8" font-family="Arial" font-weight="bold" font-size="14.00"> &lt; 21.5</text>
<path fill="#ebebeb" stroke="transparent" d="M499,-335C499,-335 582,-335 582,-335 588,-335 594,-341 594,-347 594,-347 594,-387 594,-387 594,-393 588,-399 582,-399 582,-399 499,-399 499,-399 493,-399 487,-393 487,-387 487,-387 487,-347 487,-347 487,-341 493,-335 499,-335"/>
<text text-anchor="start" x="488" y="-396.4" font-family="Arial" font-size="2.00"> </text>
<text text-anchor="start" x="488" y="-390.4" font-family="Arial" font-size="7.00"> &#160;13</text>
<text text-anchor="start" x="502" y="-373.8" font-family="Arial" font-weight="bold" font-size="14.00">Mean: 11.15</text>
<text text-anchor="start" x="517" y="-356.8" font-family="Arial" font-weight="bold" font-size="14.00">n = 185</text>
<text text-anchor="start" x="539" y="-338.8" font-family="Arial" font-size="9.00"> </text>
<path fill="none" stroke="#333333" d="M499,-335C499,-335 582,-335 582,-335 588,-335 594,-341 594,-347 594,-347 594,-387 594,-387 594,-393 588,-399 582,-399 582,-399 499,-399 499,-399 493,-399 487,-393 487,-387 487,-387 487,-347 487,-347 487,-341 493,-335 499,-335"/>
<text text-anchor="start" x="511" y="-320.8" font-family="Arial" font-weight="bold" font-size="14.00">day_type</text>
</g>
<!-- 12&#45;&gt;13 -->
<g id="edge13" class="edge">
<title>12&#45;&gt;13</title>
<path fill="none" stroke="#888888" d="M634.28,-461.67C624.95,-452.39 615.24,-442.75 605.76,-433.33"/>
<polygon fill="#888888" stroke="#888888" points="608.12,-430.74 598.56,-426.18 603.19,-435.71 608.12,-430.74"/>
</g>
<!-- 18 -->
<g id="node15" class="node">
<title>18</title>
<text text-anchor="start" x="672" y="-407.8" font-family="Arial" font-weight="bold" font-size="14.00"> ≥ 21.5</text>
<path fill="#f8766d" fill-opacity="0.827451" stroke="transparent" d="M648,-335C648,-335 738,-335 738,-335 744,-335 750,-341 750,-347 750,-347 750,-387 750,-387 750,-393 744,-399 738,-399 738,-399 648,-399 648,-399 642,-399 636,-393 636,-387 636,-387 636,-347 636,-347 636,-341 642,-335 648,-335"/>
<text text-anchor="start" x="637" y="-396.4" font-family="Arial" font-size="2.00"> </text>
<text text-anchor="start" x="637" y="-390.4" font-family="Arial" font-size="7.00"> &#160;18</text>
<text text-anchor="start" x="651" y="-373.8" font-family="Arial" font-weight="bold" font-size="14.00">Predict 8.149</text>
<text text-anchor="start" x="673" y="-356.8" font-family="Arial" font-weight="bold" font-size="14.00">n = 26</text>
<text text-anchor="start" x="691.5" y="-338.8" font-family="Arial" font-size="9.00"> </text>
<path fill="none" stroke="#333333" d="M648,-335C648,-335 738,-335 738,-335 744,-335 750,-341 750,-347 750,-347 750,-387 750,-387 750,-393 744,-399 738,-399 738,-399 648,-399 648,-399 642,-399 636,-393 636,-387 636,-387 636,-347 636,-347 636,-341 642,-335 648,-335"/>
<text text-anchor="start" x="691" y="-320.8" font-family="Arial" font-weight="bold" font-size="14.00"> </text>
</g>
<!-- 12&#45;&gt;18 -->
<g id="edge14" class="edge">
<title>12&#45;&gt;18</title>
<path fill="none" stroke="#888888" d="M693,-461.67C693,-453.39 693,-444.83 693,-436.38"/>
<polygon fill="#888888" stroke="#888888" points="696.5,-436.18 693,-426.18 689.5,-436.18 696.5,-436.18"/>
</g>
<!-- 20 -->
<g id="node20" class="node">
<title>20</title>
<text text-anchor="start" x="830" y="-407.8" font-family="Arial" font-weight="bold" font-size="14.00"> &lt; 10.45</text>
<text text-anchor="start" x="791" y="-363.3" font-family="Arial" font-size="14.00"> &#160;</text>
<path fill="#ebebeb" stroke="transparent" d="M813,-335C813,-335 897,-335 897,-335 903,-335 909,-341 909,-347 909,-347 909,-387 909,-387 909,-393 903,-399 897,-399 897,-399 813,-399 813,-399 807,-399 801,-393 801,-387 801,-387 801,-347 801,-347 801,-341 807,-335 813,-335"/>
<text text-anchor="start" x="802" y="-396.4" font-family="Arial" font-size="2.00"> </text>
<text text-anchor="start" x="802" y="-390.4" font-family="Arial" font-size="7.00"> &#160;20</text>
<text text-anchor="start" x="816" y="-373.8" font-family="Arial" font-weight="bold" font-size="14.00">Mean: 10.48</text>
<text text-anchor="start" x="835" y="-356.8" font-family="Arial" font-weight="bold" font-size="14.00">n = 86</text>
<text text-anchor="start" x="853.5" y="-338.8" font-family="Arial" font-size="9.00"> </text>
<path fill="none" stroke="#333333" d="M813,-335C813,-335 897,-335 897,-335 903,-335 909,-341 909,-347 909,-347 909,-387 909,-387 909,-393 903,-399 897,-399 897,-399 813,-399 813,-399 807,-399 801,-393 801,-387 801,-387 801,-347 801,-347 801,-341 807,-335 813,-335"/>
<text text-anchor="start" x="911" y="-363.3" font-family="Arial" font-size="14.00"> &#160;</text>
<text text-anchor="start" x="805.5" y="-320.8" font-family="Arial" font-weight="bold" font-size="14.00">prev_24_inflow</text>
</g>
<!-- 19&#45;&gt;20 -->
<g id="edge19" class="edge">
<title>19&#45;&gt;20</title>
<path fill="none" stroke="#888888" d="M855,-461.67C855,-453.39 855,-444.83 855,-436.38"/>
<polygon fill="#888888" stroke="#888888" points="858.5,-436.18 855,-426.18 851.5,-436.18 858.5,-436.18"/>
</g>
<!-- 23 -->
<g id="node21" class="node">
<title>23</title>
<text text-anchor="start" x="988.5" y="-407.8" font-family="Arial" font-weight="bold" font-size="14.00"> ≥ 10.45</text>
<path fill="#ebebeb" stroke="transparent" d="M971,-335C971,-335 1055,-335 1055,-335 1061,-335 1067,-341 1067,-347 1067,-347 1067,-387 1067,-387 1067,-393 1061,-399 1055,-399 1055,-399 971,-399 971,-399 965,-399 959,-393 959,-387 959,-387 959,-347 959,-347 959,-341 965,-335 971,-335"/>
<text text-anchor="start" x="960" y="-396.4" font-family="Arial" font-size="2.00"> </text>
<text text-anchor="start" x="960" y="-390.4" font-family="Arial" font-size="7.00"> &#160;23</text>
<text text-anchor="start" x="974" y="-373.8" font-family="Arial" font-weight="bold" font-size="14.00">Mean: 12.96</text>
<text text-anchor="start" x="989.5" y="-356.8" font-family="Arial" font-weight="bold" font-size="14.00">n = 179</text>
<text text-anchor="start" x="1011.5" y="-338.8" font-family="Arial" font-size="9.00"> </text>
<path fill="none" stroke="#333333" d="M971,-335C971,-335 1055,-335 1055,-335 1061,-335 1067,-341 1067,-347 1067,-347 1067,-387 1067,-387 1067,-393 1061,-399 1055,-399 1055,-399 971,-399 971,-399 965,-399 959,-393 959,-387 959,-387 959,-347 959,-347 959,-341 965,-335 971,-335"/>
<text text-anchor="start" x="998.5" y="-320.8" font-family="Arial" font-weight="bold" font-size="14.00">time</text>
</g>
<!-- 19&#45;&gt;23 -->
<g id="edge20" class="edge">
<title>19&#45;&gt;23</title>
<path fill="none" stroke="#888888" d="M915.64,-461.67C925.27,-452.39 935.3,-442.75 945.09,-433.33"/>
<polygon fill="#888888" stroke="#888888" points="947.75,-435.63 952.53,-426.18 942.89,-430.59 947.75,-435.63"/>
</g>
<!-- 14 -->
<g id="node16" class="node">
<title>14</title>
<text text-anchor="start" x="383.5" y="-253.8" font-family="Arial" font-weight="bold" font-size="14.00"> &lt; 0.5</text>
<path fill="#f8766d" fill-opacity="0.760784" stroke="transparent" d="M356,-181C356,-181 446,-181 446,-181 452,-181 458,-187 458,-193 458,-193 458,-233 458,-233 458,-239 452,-245 446,-245 446,-245 356,-245 356,-245 350,-245 344,-239 344,-233 344,-233 344,-193 344,-193 344,-187 350,-181 356,-181"/>
<text text-anchor="start" x="345" y="-242.4" font-family="Arial" font-size="2.00"> </text>
<text text-anchor="start" x="345" y="-236.4" font-family="Arial" font-size="7.00"> &#160;14</text>
<text text-anchor="start" x="359" y="-219.8" font-family="Arial" font-weight="bold" font-size="14.00">Predict 9.836</text>
<text text-anchor="start" x="381" y="-202.8" font-family="Arial" font-weight="bold" font-size="14.00">n = 54</text>
<text text-anchor="start" x="399.5" y="-184.8" font-family="Arial" font-size="9.00"> </text>
<path fill="none" stroke="#333333" d="M356,-181C356,-181 446,-181 446,-181 452,-181 458,-187 458,-193 458,-193 458,-233 458,-233 458,-239 452,-245 446,-245 446,-245 356,-245 356,-245 350,-245 344,-239 344,-233 344,-233 344,-193 344,-193 344,-187 350,-181 356,-181"/>
<text text-anchor="start" x="399" y="-166.8" font-family="Arial" font-weight="bold" font-size="14.00"> </text>
</g>
<!-- 13&#45;&gt;14 -->
<g id="edge15" class="edge">
<title>13&#45;&gt;14</title>
<path fill="none" stroke="#888888" d="M486.66,-307.67C478.26,-298.49 469.53,-288.94 460.99,-279.6"/>
<polygon fill="#888888" stroke="#888888" points="463.53,-277.19 454.2,-272.18 458.37,-281.92 463.53,-277.19"/>
</g>
<!-- 15 -->
<g id="node17" class="node">
<title>15</title>
<text text-anchor="start" x="537.5" y="-253.8" font-family="Arial" font-weight="bold" font-size="14.00"> ≥ 0.5</text>
<path fill="#ebebeb" stroke="transparent" d="M513,-181C513,-181 596,-181 596,-181 602,-181 608,-187 608,-193 608,-193 608,-233 608,-233 608,-239 602,-245 596,-245 596,-245 513,-245 513,-245 507,-245 501,-239 501,-233 501,-233 501,-193 501,-193 501,-187 507,-181 513,-181"/>
<text text-anchor="start" x="502" y="-242.4" font-family="Arial" font-size="2.00"> </text>
<text text-anchor="start" x="502" y="-236.4" font-family="Arial" font-size="7.00"> &#160;15</text>
<text text-anchor="start" x="516" y="-219.8" font-family="Arial" font-weight="bold" font-size="14.00">Mean: 11.69</text>
<text text-anchor="start" x="531" y="-202.8" font-family="Arial" font-weight="bold" font-size="14.00">n = 131</text>
<text text-anchor="start" x="553" y="-184.8" font-family="Arial" font-size="9.00"> </text>
<path fill="none" stroke="#333333" d="M513,-181C513,-181 596,-181 596,-181 602,-181 608,-187 608,-193 608,-193 608,-233 608,-233 608,-239 602,-245 596,-245 596,-245 513,-245 513,-245 507,-245 501,-239 501,-233 501,-233 501,-193 501,-193 501,-187 507,-181 513,-181"/>
<text text-anchor="start" x="531" y="-166.8" font-family="Arial" font-weight="bold" font-size="14.00">quarter</text>
</g>
<!-- 13&#45;&gt;15 -->
<g id="edge16" class="edge">
<title>13&#45;&gt;15</title>
<path fill="none" stroke="#888888" d="M545.37,-307.67C546.13,-299.39 546.92,-290.83 547.7,-282.38"/>
<polygon fill="#888888" stroke="#888888" points="551.21,-282.46 548.64,-272.18 544.24,-281.81 551.21,-282.46"/>
</g>
<!-- 16 -->
<g id="node18" class="node">
<title>16</title>
<text text-anchor="start" x="454.5" y="-99.8" font-family="Arial" font-weight="bold" font-size="14.00"> &lt; 2.5</text>
<path fill="#f8766d" fill-opacity="0.643137" stroke="transparent" d="M427,-27C427,-27 517,-27 517,-27 523,-27 529,-33 529,-39 529,-39 529,-79 529,-79 529,-85 523,-91 517,-91 517,-91 427,-91 427,-91 421,-91 415,-85 415,-79 415,-79 415,-39 415,-39 415,-33 421,-27 427,-27"/>
<text text-anchor="start" x="416" y="-88.4" font-family="Arial" font-size="2.00"> </text>
<text text-anchor="start" x="416" y="-82.4" font-family="Arial" font-size="7.00"> &#160;16</text>
<text text-anchor="start" x="430" y="-65.8" font-family="Arial" font-weight="bold" font-size="14.00">Predict 12.73</text>
<text text-anchor="start" x="452" y="-48.8" font-family="Arial" font-weight="bold" font-size="14.00">n = 56</text>
<text text-anchor="start" x="470.5" y="-30.8" font-family="Arial" font-size="9.00"> </text>
<path fill="none" stroke="#333333" d="M427,-27C427,-27 517,-27 517,-27 523,-27 529,-33 529,-39 529,-39 529,-79 529,-79 529,-85 523,-91 517,-91 517,-91 427,-91 427,-91 421,-91 415,-85 415,-79 415,-79 415,-39 415,-39 415,-33 421,-27 427,-27"/>
<text text-anchor="start" x="470" y="-12.8" font-family="Arial" font-weight="bold" font-size="14.00"> </text>
</g>
<!-- 15&#45;&gt;16 -->
<g id="edge17" class="edge">
<title>15&#45;&gt;16</title>
<path fill="none" stroke="#888888" d="M522.53,-153.67C517.82,-144.94 512.94,-135.88 508.14,-126.99"/>
<polygon fill="#888888" stroke="#888888" points="511.21,-125.32 503.38,-118.18 505.05,-128.64 511.21,-125.32"/>
</g>
<!-- 17 -->
<g id="node19" class="node">
<title>17</title>
<text text-anchor="start" x="611" y="-99.8" font-family="Arial" font-weight="bold" font-size="14.00"> ≥ 2.5</text>
<path fill="#f8766d" fill-opacity="0.717647" stroke="transparent" d="M583,-27C583,-27 673,-27 673,-27 679,-27 685,-33 685,-39 685,-39 685,-79 685,-79 685,-85 679,-91 673,-91 673,-91 583,-91 583,-91 577,-91 571,-85 571,-79 571,-79 571,-39 571,-39 571,-33 577,-27 583,-27"/>
<text text-anchor="start" x="572" y="-88.4" font-family="Arial" font-size="2.00"> </text>
<text text-anchor="start" x="572" y="-82.4" font-family="Arial" font-size="7.00"> &#160;17</text>
<text text-anchor="start" x="586" y="-65.8" font-family="Arial" font-weight="bold" font-size="14.00">Predict 10.91</text>
<text text-anchor="start" x="608" y="-48.8" font-family="Arial" font-weight="bold" font-size="14.00">n = 75</text>
<text text-anchor="start" x="626.5" y="-30.8" font-family="Arial" font-size="9.00"> </text>
<path fill="none" stroke="#333333" d="M583,-27C583,-27 673,-27 673,-27 679,-27 685,-33 685,-39 685,-39 685,-79 685,-79 685,-85 679,-91 673,-91 673,-91 583,-91 583,-91 577,-91 571,-85 571,-79 571,-79 571,-39 571,-39 571,-33 577,-27 583,-27"/>
<text text-anchor="start" x="626" y="-12.8" font-family="Arial" font-weight="bold" font-size="14.00"> </text>
</g>
<!-- 15&#45;&gt;17 -->
<g id="edge18" class="edge">
<title>15&#45;&gt;17</title>
<path fill="none" stroke="#888888" d="M582.4,-153.67C586.6,-145.03 590.97,-136.07 595.25,-127.27"/>
<polygon fill="#888888" stroke="#888888" points="598.45,-128.7 599.68,-118.18 592.15,-125.64 598.45,-128.7"/>
</g>
<!-- 21 -->
<g id="node22" class="node">
<title>21</title>
<text text-anchor="start" x="679" y="-253.8" font-family="Arial" font-weight="bold" font-size="14.00"> &lt; 9.585</text>
<path fill="#f8766d" fill-opacity="0.788235" stroke="transparent" d="M663,-181C663,-181 745,-181 745,-181 751,-181 757,-187 757,-193 757,-193 757,-233 757,-233 757,-239 751,-245 745,-245 745,-245 663,-245 663,-245 657,-245 651,-239 651,-233 651,-233 651,-193 651,-193 651,-187 657,-181 663,-181"/>
<text text-anchor="start" x="652" y="-242.4" font-family="Arial" font-size="2.00"> </text>
<text text-anchor="start" x="652" y="-236.4" font-family="Arial" font-size="7.00"> &#160;21</text>
<text text-anchor="start" x="666" y="-219.8" font-family="Arial" font-weight="bold" font-size="14.00">Predict 9.13</text>
<text text-anchor="start" x="684" y="-202.8" font-family="Arial" font-weight="bold" font-size="14.00">n = 23</text>
<text text-anchor="start" x="702.5" y="-184.8" font-family="Arial" font-size="9.00"> </text>
<path fill="none" stroke="#333333" d="M663,-181C663,-181 745,-181 745,-181 751,-181 757,-187 757,-193 757,-193 757,-233 757,-233 757,-239 751,-245 745,-245 745,-245 663,-245 663,-245 657,-245 651,-239 651,-233 651,-233 651,-193 651,-193 651,-187 657,-181 663,-181"/>
<text text-anchor="start" x="702" y="-166.8" font-family="Arial" font-weight="bold" font-size="14.00"> </text>
</g>
<!-- 20&#45;&gt;21 -->
<g id="edge21" class="edge">
<title>20&#45;&gt;21</title>
<path fill="none" stroke="#888888" d="M797.05,-307.67C787.84,-298.39 778.26,-288.75 768.9,-279.33"/>
<polygon fill="#888888" stroke="#888888" points="771.32,-276.8 761.79,-272.18 766.36,-281.74 771.32,-276.8"/>
</g>
<!-- 22 -->
<g id="node23" class="node">
<title>22</title>
<text text-anchor="start" x="831.5" y="-253.8" font-family="Arial" font-weight="bold" font-size="14.00"> ≥ 9.585</text>
<path fill="#f8766d" fill-opacity="0.713725" stroke="transparent" d="M811,-181C811,-181 901,-181 901,-181 907,-181 913,-187 913,-193 913,-193 913,-233 913,-233 913,-239 907,-245 901,-245 901,-245 811,-245 811,-245 805,-245 799,-239 799,-233 799,-233 799,-193 799,-193 799,-187 805,-181 811,-181"/>
<text text-anchor="start" x="800" y="-242.4" font-family="Arial" font-size="2.00"> </text>
<text text-anchor="start" x="800" y="-236.4" font-family="Arial" font-size="7.00"> &#160;22</text>
<text text-anchor="start" x="814" y="-219.8" font-family="Arial" font-weight="bold" font-size="14.00">Predict 10.98</text>
<text text-anchor="start" x="836" y="-202.8" font-family="Arial" font-weight="bold" font-size="14.00">n = 63</text>
<text text-anchor="start" x="854.5" y="-184.8" font-family="Arial" font-size="9.00"> </text>
<path fill="none" stroke="#333333" d="M811,-181C811,-181 901,-181 901,-181 907,-181 913,-187 913,-193 913,-193 913,-233 913,-233 913,-239 907,-245 901,-245 901,-245 811,-245 811,-245 805,-245 799,-239 799,-233 799,-233 799,-193 799,-193 799,-187 805,-181 811,-181"/>
<text text-anchor="start" x="854" y="-166.8" font-family="Arial" font-weight="bold" font-size="14.00"> </text>
</g>
<!-- 20&#45;&gt;22 -->
<g id="edge22" class="edge">
<title>20&#45;&gt;22</title>
<path fill="none" stroke="#888888" d="M855.38,-307.67C855.44,-299.39 855.49,-290.83 855.55,-282.38"/>
<polygon fill="#888888" stroke="#888888" points="859.05,-282.2 855.62,-272.18 852.05,-282.15 859.05,-282.2"/>
</g>
<!-- 24 -->
<g id="node24" class="node">
<title>24</title>
<text text-anchor="start" x="990.5" y="-253.8" font-family="Arial" font-weight="bold" font-size="14.00"> &lt; 14.5</text>
<path fill="#f8766d" fill-opacity="0.603922" stroke="transparent" d="M967,-181C967,-181 1057,-181 1057,-181 1063,-181 1069,-187 1069,-193 1069,-193 1069,-233 1069,-233 1069,-239 1063,-245 1057,-245 1057,-245 967,-245 967,-245 961,-245 955,-239 955,-233 955,-233 955,-193 955,-193 955,-187 961,-181 967,-181"/>
<text text-anchor="start" x="956" y="-242.4" font-family="Arial" font-size="2.00"> </text>
<text text-anchor="start" x="956" y="-236.4" font-family="Arial" font-size="7.00"> &#160;24</text>
<text text-anchor="start" x="970" y="-219.8" font-family="Arial" font-weight="bold" font-size="14.00">Predict 13.69</text>
<text text-anchor="start" x="992" y="-202.8" font-family="Arial" font-weight="bold" font-size="14.00">n = 87</text>
<text text-anchor="start" x="1010.5" y="-184.8" font-family="Arial" font-size="9.00"> </text>
<path fill="none" stroke="#333333" d="M967,-181C967,-181 1057,-181 1057,-181 1063,-181 1069,-187 1069,-193 1069,-193 1069,-233 1069,-233 1069,-239 1063,-245 1057,-245 1057,-245 967,-245 967,-245 961,-245 955,-239 955,-233 955,-233 955,-193 955,-193 955,-187 961,-181 967,-181"/>
<text text-anchor="start" x="1010" y="-166.8" font-family="Arial" font-weight="bold" font-size="14.00"> </text>
</g>
<!-- 23&#45;&gt;24 -->
<g id="edge23" class="edge">
<title>23&#45;&gt;24</title>
<path fill="none" stroke="#888888" d="M1012.62,-307.67C1012.56,-299.39 1012.51,-290.83 1012.45,-282.38"/>
<polygon fill="#888888" stroke="#888888" points="1015.95,-282.15 1012.38,-272.18 1008.95,-282.2 1015.95,-282.15"/>
</g>
<!-- 25 -->
<g id="node25" class="node">
<title>25</title>
<text text-anchor="start" x="1147" y="-253.8" font-family="Arial" font-weight="bold" font-size="14.00"> ≥ 14.5</text>
<path fill="#f8766d" fill-opacity="0.658824" stroke="transparent" d="M1123,-181C1123,-181 1213,-181 1213,-181 1219,-181 1225,-187 1225,-193 1225,-193 1225,-233 1225,-233 1225,-239 1219,-245 1213,-245 1213,-245 1123,-245 1123,-245 1117,-245 1111,-239 1111,-233 1111,-233 1111,-193 1111,-193 1111,-187 1117,-181 1123,-181"/>
<text text-anchor="start" x="1112" y="-242.4" font-family="Arial" font-size="2.00"> </text>
<text text-anchor="start" x="1112" y="-236.4" font-family="Arial" font-size="7.00"> &#160;25</text>
<text text-anchor="start" x="1126" y="-219.8" font-family="Arial" font-weight="bold" font-size="14.00">Predict 12.27</text>
<text text-anchor="start" x="1148" y="-202.8" font-family="Arial" font-weight="bold" font-size="14.00">n = 92</text>
<text text-anchor="start" x="1166.5" y="-184.8" font-family="Arial" font-size="9.00"> </text>
<path fill="none" stroke="#333333" d="M1123,-181C1123,-181 1213,-181 1213,-181 1219,-181 1225,-187 1225,-193 1225,-193 1225,-233 1225,-233 1225,-239 1219,-245 1213,-245 1213,-245 1123,-245 1123,-245 1117,-245 1111,-239 1111,-233 1111,-233 1111,-193 1111,-193 1111,-187 1117,-181 1123,-181"/>
<text text-anchor="start" x="1166" y="-166.8" font-family="Arial" font-weight="bold" font-size="14.00"> </text>
</g>
<!-- 23&#45;&gt;25 -->
<g id="edge24" class="edge">
<title>23&#45;&gt;25</title>
<path fill="none" stroke="#888888" d="M1072.48,-307.67C1081.94,-298.39 1091.78,-288.75 1101.38,-279.33"/>
<polygon fill="#888888" stroke="#888888" points="1103.99,-281.68 1108.68,-272.18 1099.08,-276.68 1103.99,-281.68"/>
</g>
</g>
</svg>
