<?xml version="1.0" encoding="UTF-8" standalone="no"?>
<!DOCTYPE svg PUBLIC "-//W3C//DTD SVG 1.1//EN"
 "http://www.w3.org/Graphics/SVG/1.1/DTD/svg11.dtd">
<!-- Generated by graphviz version 2.50.0 (20211204.2007)
 -->
<!-- Pages: 1 -->
<svg width="761pt" height="588pt"
 viewBox="0.00 0.00 761.00 588.00" xmlns="http://www.w3.org/2000/svg" xmlns:xlink="http://www.w3.org/1999/xlink">
<g id="graph0" class="graph" transform="scale(1 1) rotate(0) translate(4 584)">
<polygon fill="white" stroke="transparent" points="-4,4 -4,-584 757,-584 757,4 -4,4"/>
<!-- 1 -->
<g id="node1" class="node">
<title>1</title>
<text text-anchor="start" x="448" y="-561.8" font-family="Arial" font-weight="bold" font-size="14.00"> </text>
<path fill="#ebebeb" stroke="transparent" d="M408,-489C408,-489 492,-489 492,-489 498,-489 504,-495 504,-501 504,-501 504,-541 504,-541 504,-547 498,-553 492,-553 492,-553 408,-553 408,-553 402,-553 396,-547 396,-541 396,-541 396,-501 396,-501 396,-495 402,-489 408,-489"/>
<text text-anchor="start" x="397" y="-550.4" font-family="Arial" font-size="2.00"> </text>
<text text-anchor="start" x="397" y="-544.4" font-family="Arial" font-size="7.00"> &#160;1</text>
<text text-anchor="start" x="411" y="-527.8" font-family="Arial" font-weight="bold" font-size="14.00">Mean: 21.77</text>
<text text-anchor="start" x="426.5" y="-510.8" font-family="Arial" font-weight="bold" font-size="14.00">n = 672</text>
<text text-anchor="start" x="448.5" y="-492.8" font-family="Arial" font-size="9.00"> </text>
<path fill="none" stroke="#333333" d="M408,-489C408,-489 492,-489 492,-489 498,-489 504,-495 504,-501 504,-501 504,-541 504,-541 504,-547 498,-553 492,-553 492,-553 408,-553 408,-553 402,-553 396,-547 396,-541 396,-541 396,-501 396,-501 396,-495 402,-489 408,-489"/>
<text text-anchor="start" x="407.5" y="-474.8" font-family="Arial" font-weight="bold" font-size="14.00">day_of_week</text>
</g>
<!-- 2 -->
<g id="node2" class="node">
<title>2</title>
<text text-anchor="start" x="351.5" y="-407.8" font-family="Arial" font-weight="bold" font-size="14.00"> &lt; 5.5</text>
<path fill="#ebebeb" stroke="transparent" d="M327,-335C327,-335 411,-335 411,-335 417,-335 423,-341 423,-347 423,-347 423,-387 423,-387 423,-393 417,-399 411,-399 411,-399 327,-399 327,-399 321,-399 315,-393 315,-387 315,-387 315,-347 315,-347 315,-341 321,-335 327,-335"/>
<text text-anchor="start" x="316" y="-396.4" font-family="Arial" font-size="2.00"> </text>
<text text-anchor="start" x="316" y="-390.4" font-family="Arial" font-size="7.00"> &#160;2</text>
<text text-anchor="start" x="330" y="-373.8" font-family="Arial" font-weight="bold" font-size="14.00">Mean: 22.81</text>
<text text-anchor="start" x="345.5" y="-356.8" font-family="Arial" font-weight="bold" font-size="14.00">n = 480</text>
<text text-anchor="start" x="367.5" y="-338.8" font-family="Arial" font-size="9.00"> </text>
<path fill="none" stroke="#333333" d="M327,-335C327,-335 411,-335 411,-335 417,-335 423,-341 423,-347 423,-347 423,-387 423,-387 423,-393 417,-399 411,-399 411,-399 327,-399 327,-399 321,-399 315,-393 315,-387 315,-387 315,-347 315,-347 315,-341 321,-335 327,-335"/>
<text text-anchor="start" x="354.5" y="-320.8" font-family="Arial" font-weight="bold" font-size="14.00">time</text>
</g>
<!-- 1&#45;&gt;2 -->
<g id="edge1" class="edge">
<title>1&#45;&gt;2</title>
<path fill="none" stroke="#888888" d="M418.91,-461.67C414.31,-453.03 409.54,-444.07 404.85,-435.27"/>
<polygon fill="#888888" stroke="#888888" points="407.79,-433.36 400,-426.18 401.62,-436.65 407.79,-433.36"/>
</g>
<!-- 9 -->
<g id="node3" class="node">
<title>9</title>
<text text-anchor="start" x="514" y="-407.8" font-family="Arial" font-weight="bold" font-size="14.00"> ≥ 5.5</text>
<text text-anchor="start" x="463" y="-363.3" font-family="Arial" font-size="14.00"> &#160;&#160;</text>
<path fill="#ebebeb" stroke="transparent" d="M489,-335C489,-335 573,-335 573,-335 579,-335 585,-341 585,-347 585,-347 585,-387 585,-387 585,-393 579,-399 573,-399 573,-399 489,-399 489,-399 483,-399 477,-393 477,-387 477,-387 477,-347 477,-347 477,-341 483,-335 489,-335"/>
<text text-anchor="start" x="478" y="-396.4" font-family="Arial" font-size="2.00"> </text>
<text text-anchor="start" x="478" y="-390.4" font-family="Arial" font-size="7.00"> &#160;9</text>
<text text-anchor="start" x="492" y="-373.8" font-family="Arial" font-weight="bold" font-size="14.00">Mean: 19.15</text>
<text text-anchor="start" x="507.5" y="-356.8" font-family="Arial" font-weight="bold" font-size="14.00">n = 192</text>
<text text-anchor="start" x="529.5" y="-338.8" font-family="Arial" font-size="9.00"> </text>
<path fill="none" stroke="#333333" d="M489,-335C489,-335 573,-335 573,-335 579,-335 585,-341 585,-347 585,-347 585,-387 585,-387 585,-393 579,-399 573,-399 573,-399 489,-399 489,-399 483,-399 477,-393 477,-387 477,-387 477,-347 477,-347 477,-341 483,-335 489,-335"/>
<text text-anchor="start" x="587" y="-363.3" font-family="Arial" font-size="14.00"> &#160;&#160;</text>
<text text-anchor="start" x="478" y="-320.8" font-family="Arial" font-weight="bold" font-size="14.00">prev_168_inflow</text>
</g>
<!-- 1&#45;&gt;9 -->
<g id="edge2" class="edge">
<title>1&#45;&gt;9</title>
<path fill="none" stroke="#888888" d="M481.09,-461.67C485.69,-453.03 490.46,-444.07 495.15,-435.27"/>
<polygon fill="#888888" stroke="#888888" points="498.38,-436.65 500,-426.18 492.21,-433.36 498.38,-436.65"/>
</g>
<!-- 3 -->
<g id="node4" class="node">
<title>3</title>
<text text-anchor="start" x="203.5" y="-253.8" font-family="Arial" font-weight="bold" font-size="14.00"> &lt; 7.5</text>
<path fill="#ebebeb" stroke="transparent" d="M179,-181C179,-181 263,-181 263,-181 269,-181 275,-187 275,-193 275,-193 275,-233 275,-233 275,-239 269,-245 263,-245 263,-245 179,-245 179,-245 173,-245 167,-239 167,-233 167,-233 167,-193 167,-193 167,-187 173,-181 179,-181"/>
<text text-anchor="start" x="168" y="-242.4" font-family="Arial" font-size="2.00"> </text>
<text text-anchor="start" x="168" y="-236.4" font-family="Arial" font-size="7.00"> &#160;3</text>
<text text-anchor="start" x="182" y="-219.8" font-family="Arial" font-weight="bold" font-size="14.00">Mean: 20.24</text>
<text text-anchor="start" x="197.5" y="-202.8" font-family="Arial" font-weight="bold" font-size="14.00">n = 160</text>
<text text-anchor="start" x="219.5" y="-184.8" font-family="Arial" font-size="9.00"> </text>
<path fill="none" stroke="#333333" d="M179,-181C179,-181 263,-181 263,-181 269,-181 275,-187 275,-193 275,-193 275,-233 275,-233 275,-239 269,-245 263,-245 263,-245 179,-245 179,-245 173,-245 167,-239 167,-233 167,-233 167,-193 167,-193 167,-187 173,-181 179,-181"/>
<text text-anchor="start" x="206.5" y="-166.8" font-family="Arial" font-weight="bold" font-size="14.00">time</text>
</g>
<!-- 2&#45;&gt;3 -->
<g id="edge3" class="edge">
<title>2&#45;&gt;3</title>
<path fill="none" stroke="#888888" d="M312.2,-307.67C303.26,-298.49 293.97,-288.94 284.88,-279.6"/>
<polygon fill="#888888" stroke="#888888" points="287.13,-276.9 277.65,-272.18 282.11,-281.78 287.13,-276.9"/>
</g>
<!-- 6 -->
<g id="node5" class="node">
<title>6</title>
<text text-anchor="start" x="356" y="-253.8" font-family="Arial" font-weight="bold" font-size="14.00"> ≥ 7.5</text>
<path fill="#ebebeb" stroke="transparent" d="M335,-181C335,-181 411,-181 411,-181 417,-181 423,-187 423,-193 423,-193 423,-233 423,-233 423,-239 417,-245 411,-245 411,-245 335,-245 335,-245 329,-245 323,-239 323,-233 323,-233 323,-193 323,-193 323,-187 329,-181 335,-181"/>
<text text-anchor="start" x="324" y="-242.4" font-family="Arial" font-size="2.00"> </text>
<text text-anchor="start" x="324" y="-236.4" font-family="Arial" font-size="7.00"> &#160;6</text>
<text text-anchor="start" x="338" y="-219.8" font-family="Arial" font-weight="bold" font-size="14.00">Mean: 24.1</text>
<text text-anchor="start" x="349.5" y="-202.8" font-family="Arial" font-weight="bold" font-size="14.00">n = 320</text>
<text text-anchor="start" x="371.5" y="-184.8" font-family="Arial" font-size="9.00"> </text>
<path fill="none" stroke="#333333" d="M335,-181C335,-181 411,-181 411,-181 417,-181 423,-187 423,-193 423,-193 423,-233 423,-233 423,-239 417,-245 411,-245 411,-245 335,-245 335,-245 329,-245 323,-239 323,-233 323,-233 323,-193 323,-193 323,-187 329,-181 335,-181"/>
<text text-anchor="start" x="358.5" y="-166.8" font-family="Arial" font-weight="bold" font-size="14.00">time</text>
</g>
<!-- 2&#45;&gt;6 -->
<g id="edge4" class="edge">
<title>2&#45;&gt;6</title>
<path fill="none" stroke="#888888" d="M370.54,-307.67C370.75,-299.39 370.98,-290.83 371.2,-282.38"/>
<polygon fill="#888888" stroke="#888888" points="374.7,-282.27 371.47,-272.18 367.71,-282.08 374.7,-282.27"/>
</g>
<!-- 10 -->
<g id="node10" class="node">
<title>10</title>
<text text-anchor="start" x="503" y="-253.8" font-family="Arial" font-weight="bold" font-size="14.00"> &lt; 18.89</text>
<path fill="#f8766d" fill-opacity="0.874510" stroke="transparent" d="M483,-181C483,-181 573,-181 573,-181 579,-181 585,-187 585,-193 585,-193 585,-233 585,-233 585,-239 579,-245 573,-245 573,-245 483,-245 483,-245 477,-245 471,-239 471,-233 471,-233 471,-193 471,-193 471,-187 477,-181 483,-181"/>
<text text-anchor="start" x="472" y="-242.4" font-family="Arial" font-size="2.00"> </text>
<text text-anchor="start" x="472" y="-236.4" font-family="Arial" font-size="7.00"> &#160;10</text>
<text text-anchor="start" x="486" y="-219.8" font-family="Arial" font-weight="bold" font-size="14.00">Predict 18.52</text>
<text text-anchor="start" x="508" y="-202.8" font-family="Arial" font-weight="bold" font-size="14.00">n = 99</text>
<text text-anchor="start" x="526.5" y="-184.8" font-family="Arial" font-size="9.00"> </text>
<path fill="none" stroke="#333333" d="M483,-181C483,-181 573,-181 573,-181 579,-181 585,-187 585,-193 585,-193 585,-233 585,-233 585,-239 579,-245 573,-245 573,-245 483,-245 483,-245 477,-245 471,-239 471,-233 471,-233 471,-193 471,-193 471,-187 477,-181 483,-181"/>
<text text-anchor="start" x="526" y="-166.8" font-family="Arial" font-weight="bold" font-size="14.00"> </text>
</g>
<!-- 9&#45;&gt;10 -->
<g id="edge9" class="edge">
<title>9&#45;&gt;10</title>
<path fill="none" stroke="#888888" d="M529.85,-307.67C529.69,-299.39 529.52,-290.83 529.35,-282.38"/>
<polygon fill="#888888" stroke="#888888" points="532.84,-282.11 529.15,-272.18 525.85,-282.24 532.84,-282.11"/>
</g>
<!-- 11 -->
<g id="node11" class="node">
<title>11</title>
<text text-anchor="start" x="659.5" y="-253.8" font-family="Arial" font-weight="bold" font-size="14.00"> ≥ 18.89</text>
<path fill="#f8766d" fill-opacity="0.784314" stroke="transparent" d="M639,-181C639,-181 729,-181 729,-181 735,-181 741,-187 741,-193 741,-193 741,-233 741,-233 741,-239 735,-245 729,-245 729,-245 639,-245 639,-245 633,-245 627,-239 627,-233 627,-233 627,-193 627,-193 627,-187 633,-181 639,-181"/>
<text text-anchor="start" x="628" y="-242.4" font-family="Arial" font-size="2.00"> </text>
<text text-anchor="start" x="628" y="-236.4" font-family="Arial" font-size="7.00"> &#160;11</text>
<text text-anchor="start" x="642" y="-219.8" font-family="Arial" font-weight="bold" font-size="14.00">Predict 19.83</text>
<text text-anchor="start" x="664" y="-202.8" font-family="Arial" font-weight="bold" font-size="14.00">n = 93</text>
<text text-anchor="start" x="682.5" y="-184.8" font-family="Arial" font-size="9.00"> </text>
<path fill="none" stroke="#333333" d="M639,-181C639,-181 729,-181 729,-181 735,-181 741,-187 741,-193 741,-193 741,-233 741,-233 741,-239 735,-245 729,-245 729,-245 639,-245 639,-245 633,-245 627,-239 627,-233 627,-233 627,-193 627,-193 627,-187 633,-181 639,-181"/>
<text text-anchor="start" x="682" y="-166.8" font-family="Arial" font-weight="bold" font-size="14.00"> </text>
</g>
<!-- 9&#45;&gt;11 -->
<g id="edge10" class="edge">
<title>9&#45;&gt;11</title>
<path fill="none" stroke="#888888" d="M589.72,-307.67C599.05,-298.39 608.76,-288.75 618.24,-279.33"/>
<polygon fill="#888888" stroke="#888888" points="620.81,-281.71 625.44,-272.18 615.88,-276.74 620.81,-281.71"/>
</g>
<!-- 4 -->
<g id="node6" class="node">
<title>4</title>
<text text-anchor="start" x="51.5" y="-99.8" font-family="Arial" font-weight="bold" font-size="14.00"> &lt; 5.5</text>
<path fill="#f8766d" fill-opacity="0.807843" stroke="transparent" d="M24,-27C24,-27 114,-27 114,-27 120,-27 126,-33 126,-39 126,-39 126,-79 126,-79 126,-85 120,-91 114,-91 114,-91 24,-91 24,-91 18,-91 12,-85 12,-79 12,-79 12,-39 12,-39 12,-33 18,-27 24,-27"/>
<text text-anchor="start" x="13" y="-88.4" font-family="Arial" font-size="2.00"> </text>
<text text-anchor="start" x="13" y="-82.4" font-family="Arial" font-size="7.00"> &#160;4</text>
<text text-anchor="start" x="27" y="-65.8" font-family="Arial" font-weight="bold" font-size="14.00">Predict 19.46</text>
<text text-anchor="start" x="45.5" y="-48.8" font-family="Arial" font-weight="bold" font-size="14.00">n = 120</text>
<text text-anchor="start" x="67.5" y="-30.8" font-family="Arial" font-size="9.00"> </text>
<path fill="none" stroke="#333333" d="M24,-27C24,-27 114,-27 114,-27 120,-27 126,-33 126,-39 126,-39 126,-79 126,-79 126,-85 120,-91 114,-91 114,-91 24,-91 24,-91 18,-91 12,-85 12,-79 12,-79 12,-39 12,-39 12,-33 18,-27 24,-27"/>
<text text-anchor="start" x="67" y="-12.8" font-family="Arial" font-weight="bold" font-size="14.00"> </text>
</g>
<!-- 3&#45;&gt;4 -->
<g id="edge5" class="edge">
<title>3&#45;&gt;4</title>
<path fill="none" stroke="#888888" d="M162.67,-153.67C153.39,-144.39 143.75,-134.75 134.33,-125.33"/>
<polygon fill="#888888" stroke="#888888" points="136.72,-122.77 127.18,-118.18 131.77,-127.72 136.72,-122.77"/>
</g>
<!-- 5 -->
<g id="node7" class="node">
<title>5</title>
<text text-anchor="start" x="204" y="-99.8" font-family="Arial" font-weight="bold" font-size="14.00"> ≥ 5.5</text>
<path fill="#f8766d" fill-opacity="0.588235" stroke="transparent" d="M180,-27C180,-27 262,-27 262,-27 268,-27 274,-33 274,-39 274,-39 274,-79 274,-79 274,-85 268,-91 262,-91 262,-91 180,-91 180,-91 174,-91 168,-85 168,-79 168,-79 168,-39 168,-39 168,-33 174,-27 180,-27"/>
<text text-anchor="start" x="169" y="-88.4" font-family="Arial" font-size="2.00"> </text>
<text text-anchor="start" x="169" y="-82.4" font-family="Arial" font-size="7.00"> &#160;5</text>
<text text-anchor="start" x="183" y="-65.8" font-family="Arial" font-weight="bold" font-size="14.00">Predict 22.6</text>
<text text-anchor="start" x="201" y="-48.8" font-family="Arial" font-weight="bold" font-size="14.00">n = 40</text>
<text text-anchor="start" x="219.5" y="-30.8" font-family="Arial" font-size="9.00"> </text>
<path fill="none" stroke="#333333" d="M180,-27C180,-27 262,-27 262,-27 268,-27 274,-33 274,-39 274,-39 274,-79 274,-79 274,-85 268,-91 262,-91 262,-91 180,-91 180,-91 174,-91 168,-85 168,-79 168,-79 168,-39 168,-39 168,-33 174,-27 180,-27"/>
<text text-anchor="start" x="219" y="-12.8" font-family="Arial" font-weight="bold" font-size="14.00"> </text>
</g>
<!-- 3&#45;&gt;5 -->
<g id="edge6" class="edge">
<title>3&#45;&gt;5</title>
<path fill="none" stroke="#888888" d="M221,-153.67C221,-145.39 221,-136.83 221,-128.38"/>
<polygon fill="#888888" stroke="#888888" points="224.5,-128.18 221,-118.18 217.5,-128.18 224.5,-128.18"/>
</g>
<!-- 7 -->
<g id="node8" class="node">
<title>7</title>
<text text-anchor="start" x="351.5" y="-99.8" font-family="Arial" font-weight="bold" font-size="14.00"> &lt; 16.5</text>
<path fill="#f8766d" fill-opacity="0.376471" stroke="transparent" d="M328,-27C328,-27 418,-27 418,-27 424,-27 430,-33 430,-39 430,-39 430,-79 430,-79 430,-85 424,-91 418,-91 418,-91 328,-91 328,-91 322,-91 316,-85 316,-79 316,-79 316,-39 316,-39 316,-33 322,-27 328,-27"/>
<text text-anchor="start" x="317" y="-88.4" font-family="Arial" font-size="2.00"> </text>
<text text-anchor="start" x="317" y="-82.4" font-family="Arial" font-size="7.00"> &#160;7</text>
<text text-anchor="start" x="331" y="-65.8" font-family="Arial" font-weight="bold" font-size="14.00">Predict 25.64</text>
<text text-anchor="start" x="349.5" y="-48.8" font-family="Arial" font-weight="bold" font-size="14.00">n = 180</text>
<text text-anchor="start" x="371.5" y="-30.8" font-family="Arial" font-size="9.00"> </text>
<path fill="none" stroke="#333333" d="M328,-27C328,-27 418,-27 418,-27 424,-27 430,-33 430,-39 430,-39 430,-79 430,-79 430,-85 424,-91 418,-91 418,-91 328,-91 328,-91 322,-91 316,-85 316,-79 316,-79 316,-39 316,-39 316,-33 322,-27 328,-27"/>
<text text-anchor="start" x="371" y="-12.8" font-family="Arial" font-weight="bold" font-size="14.00"> </text>
</g>
<!-- 6&#45;&gt;7 -->
<g id="edge7" class="edge">
<title>6&#45;&gt;7</title>
<path fill="none" stroke="#888888" d="M373,-153.67C373,-145.39 373,-136.83 373,-128.38"/>
<polygon fill="#888888" stroke="#888888" points="376.5,-128.18 373,-118.18 369.5,-128.18 376.5,-128.18"/>
</g>
<!-- 8 -->
<g id="node9" class="node">
<title>8</title>
<text text-anchor="start" x="508" y="-99.8" font-family="Arial" font-weight="bold" font-size="14.00"> ≥ 16.5</text>
<path fill="#f8766d" fill-opacity="0.623529" stroke="transparent" d="M484,-27C484,-27 574,-27 574,-27 580,-27 586,-33 586,-39 586,-39 586,-79 586,-79 586,-85 580,-91 574,-91 574,-91 484,-91 484,-91 478,-91 472,-85 472,-79 472,-79 472,-39 472,-39 472,-33 478,-27 484,-27"/>
<text text-anchor="start" x="473" y="-88.4" font-family="Arial" font-size="2.00"> </text>
<text text-anchor="start" x="473" y="-82.4" font-family="Arial" font-size="7.00"> &#160;8</text>
<text text-anchor="start" x="487" y="-65.8" font-family="Arial" font-weight="bold" font-size="14.00">Predict 22.12</text>
<text text-anchor="start" x="505.5" y="-48.8" font-family="Arial" font-weight="bold" font-size="14.00">n = 140</text>
<text text-anchor="start" x="527.5" y="-30.8" font-family="Arial" font-size="9.00"> </text>
<path fill="none" stroke="#333333" d="M484,-27C484,-27 574,-27 574,-27 580,-27 586,-33 586,-39 586,-39 586,-79 586,-79 586,-85 580,-91 574,-91 574,-91 484,-91 484,-91 478,-91 472,-85 472,-79 472,-79 472,-39 472,-39 472,-33 478,-27 484,-27"/>
<text text-anchor="start" x="527" y="-12.8" font-family="Arial" font-weight="bold" font-size="14.00"> </text>
</g>
<!-- 6&#45;&gt;8 -->
<g id="edge8" class="edge">
<title>6&#45;&gt;8</title>
<path fill="none" stroke="#888888" d="M432.87,-153.67C442.38,-144.39 452.28,-134.75 461.95,-125.33"/>
<polygon fill="#888888" stroke="#888888" points="464.57,-127.66 469.29,-118.18 459.69,-122.65 464.57,-127.66"/>
</g>
</g>
</svg>
