<?xml version="1.0" encoding="UTF-8" standalone="no"?>
<!DOCTYPE svg PUBLIC "-//W3C//DTD SVG 1.1//EN"
 "http://www.w3.org/Graphics/SVG/1.1/DTD/svg11.dtd">
<!-- Generated by graphviz version 2.50.0 (20211204.2007)
 -->
<!-- Pages: 1 -->
<svg width="1221pt" height="896pt"
 viewBox="0.00 0.00 1221.00 896.00" xmlns="http://www.w3.org/2000/svg" xmlns:xlink="http://www.w3.org/1999/xlink">
<g id="graph0" class="graph" transform="scale(1 1) rotate(0) translate(4 892)">
<polygon fill="white" stroke="transparent" points="-4,4 -4,-892 1217,-892 1217,4 -4,4"/>
<!-- 1 -->
<g id="node1" class="node">
<title>1</title>
<text text-anchor="start" x="351" y="-869.8" font-family="Arial" font-weight="bold" font-size="14.00"> </text>
<text text-anchor="start" x="285" y="-825.3" font-family="Arial" font-size="14.00"> &#160;&#160;</text>
<path fill="#ebebeb" stroke="transparent" d="M311,-797C311,-797 395,-797 395,-797 401,-797 407,-803 407,-809 407,-809 407,-849 407,-849 407,-855 401,-861 395,-861 395,-861 311,-861 311,-861 305,-861 299,-855 299,-849 299,-849 299,-809 299,-809 299,-803 305,-797 311,-797"/>
<text text-anchor="start" x="300" y="-858.4" font-family="Arial" font-size="2.00"> </text>
<text text-anchor="start" x="300" y="-852.4" font-family="Arial" font-size="7.00"> &#160;1</text>
<text text-anchor="start" x="314" y="-835.8" font-family="Arial" font-weight="bold" font-size="14.00">Mean: 31.33</text>
<text text-anchor="start" x="329.5" y="-818.8" font-family="Arial" font-weight="bold" font-size="14.00">n = 672</text>
<text text-anchor="start" x="351.5" y="-800.8" font-family="Arial" font-size="9.00"> </text>
<path fill="none" stroke="#333333" d="M311,-797C311,-797 395,-797 395,-797 401,-797 407,-803 407,-809 407,-809 407,-849 407,-849 407,-855 401,-861 395,-861 395,-861 311,-861 311,-861 305,-861 299,-855 299,-849 299,-849 299,-809 299,-809 299,-803 305,-797 311,-797"/>
<text text-anchor="start" x="409" y="-825.3" font-family="Arial" font-size="14.00"> &#160;&#160;</text>
<text text-anchor="start" x="300" y="-782.8" font-family="Arial" font-weight="bold" font-size="14.00">prev_168_inflow</text>
</g>
<!-- 2 -->
<g id="node2" class="node">
<title>2</title>
<text text-anchor="start" x="209" y="-715.8" font-family="Arial" font-weight="bold" font-size="14.00"> &lt; 30.71</text>
<path fill="#ebebeb" stroke="transparent" d="M192,-643C192,-643 276,-643 276,-643 282,-643 288,-649 288,-655 288,-655 288,-695 288,-695 288,-701 282,-707 276,-707 276,-707 192,-707 192,-707 186,-707 180,-701 180,-695 180,-695 180,-655 180,-655 180,-649 186,-643 192,-643"/>
<text text-anchor="start" x="181" y="-704.4" font-family="Arial" font-size="2.00"> </text>
<text text-anchor="start" x="181" y="-698.4" font-family="Arial" font-size="7.00"> &#160;2</text>
<text text-anchor="start" x="195" y="-681.8" font-family="Arial" font-weight="bold" font-size="14.00">Mean: 23.89</text>
<text text-anchor="start" x="210.5" y="-664.8" font-family="Arial" font-weight="bold" font-size="14.00">n = 264</text>
<text text-anchor="start" x="232.5" y="-646.8" font-family="Arial" font-size="9.00"> </text>
<path fill="none" stroke="#333333" d="M192,-643C192,-643 276,-643 276,-643 282,-643 288,-649 288,-655 288,-655 288,-695 288,-695 288,-701 282,-707 276,-707 276,-707 192,-707 192,-707 186,-707 180,-701 180,-695 180,-695 180,-655 180,-655 180,-649 186,-643 192,-643"/>
<text text-anchor="start" x="219.5" y="-628.8" font-family="Arial" font-weight="bold" font-size="14.00">time</text>
</g>
<!-- 1&#45;&gt;2 -->
<g id="edge1" class="edge">
<title>1&#45;&gt;2</title>
<path fill="none" stroke="#888888" d="M307.33,-769.67C300.29,-760.67 292.96,-751.32 285.8,-742.16"/>
<polygon fill="#888888" stroke="#888888" points="288.47,-739.89 279.55,-734.18 282.95,-744.21 288.47,-739.89"/>
</g>
<!-- 7 -->
<g id="node3" class="node">
<title>7</title>
<text text-anchor="start" x="448.5" y="-715.8" font-family="Arial" font-weight="bold" font-size="14.00"> ≥ 30.71</text>
<path fill="#ebebeb" stroke="transparent" d="M431,-643C431,-643 515,-643 515,-643 521,-643 527,-649 527,-655 527,-655 527,-695 527,-695 527,-701 521,-707 515,-707 515,-707 431,-707 431,-707 425,-707 419,-701 419,-695 419,-695 419,-655 419,-655 419,-649 425,-643 431,-643"/>
<text text-anchor="start" x="420" y="-704.4" font-family="Arial" font-size="2.00"> </text>
<text text-anchor="start" x="420" y="-698.4" font-family="Arial" font-size="7.00"> &#160;7</text>
<text text-anchor="start" x="434" y="-681.8" font-family="Arial" font-weight="bold" font-size="14.00">Mean: 36.15</text>
<text text-anchor="start" x="449.5" y="-664.8" font-family="Arial" font-weight="bold" font-size="14.00">n = 408</text>
<text text-anchor="start" x="471.5" y="-646.8" font-family="Arial" font-size="9.00"> </text>
<path fill="none" stroke="#333333" d="M431,-643C431,-643 515,-643 515,-643 521,-643 527,-649 527,-655 527,-655 527,-695 527,-695 527,-701 521,-707 515,-707 515,-707 431,-707 431,-707 425,-707 419,-701 419,-695 419,-695 419,-655 419,-655 419,-649 425,-643 431,-643"/>
<text text-anchor="start" x="458.5" y="-628.8" font-family="Arial" font-weight="bold" font-size="14.00">time</text>
</g>
<!-- 1&#45;&gt;7 -->
<g id="edge2" class="edge">
<title>1&#45;&gt;7</title>
<path fill="none" stroke="#888888" d="M399.05,-769.67C406.16,-760.67 413.54,-751.32 420.77,-742.16"/>
<polygon fill="#888888" stroke="#888888" points="423.62,-744.19 427.07,-734.18 418.13,-739.86 423.62,-744.19"/>
</g>
<!-- 3 -->
<g id="node4" class="node">
<title>3</title>
<text text-anchor="start" x="51.5" y="-561.8" font-family="Arial" font-weight="bold" font-size="14.00"> &lt; 4.5</text>
<path fill="#f8766d" fill-opacity="0.874510" stroke="transparent" d="M24,-489C24,-489 114,-489 114,-489 120,-489 126,-495 126,-501 126,-501 126,-541 126,-541 126,-547 120,-553 114,-553 114,-553 24,-553 24,-553 18,-553 12,-547 12,-541 12,-541 12,-501 12,-501 12,-495 18,-489 24,-489"/>
<text text-anchor="start" x="13" y="-550.4" font-family="Arial" font-size="2.00"> </text>
<text text-anchor="start" x="13" y="-544.4" font-family="Arial" font-size="7.00"> &#160;3</text>
<text text-anchor="start" x="27" y="-527.8" font-family="Arial" font-weight="bold" font-size="14.00">Predict 20.73</text>
<text text-anchor="start" x="45.5" y="-510.8" font-family="Arial" font-weight="bold" font-size="14.00">n = 140</text>
<text text-anchor="start" x="67.5" y="-492.8" font-family="Arial" font-size="9.00"> </text>
<path fill="none" stroke="#333333" d="M24,-489C24,-489 114,-489 114,-489 120,-489 126,-495 126,-501 126,-501 126,-541 126,-541 126,-547 120,-553 114,-553 114,-553 24,-553 24,-553 18,-553 12,-547 12,-541 12,-541 12,-501 12,-501 12,-495 18,-489 24,-489"/>
<text text-anchor="start" x="67" y="-474.8" font-family="Arial" font-weight="bold" font-size="14.00"> </text>
</g>
<!-- 2&#45;&gt;3 -->
<g id="edge3" class="edge">
<title>2&#45;&gt;3</title>
<path fill="none" stroke="#888888" d="M170.68,-615.67C160.51,-606.3 149.94,-596.56 139.61,-587.05"/>
<polygon fill="#888888" stroke="#888888" points="141.88,-584.38 132.15,-580.18 137.14,-589.53 141.88,-584.38"/>
</g>
<!-- 4 -->
<g id="node5" class="node">
<title>4</title>
<text text-anchor="start" x="217" y="-561.8" font-family="Arial" font-weight="bold" font-size="14.00"> ≥ 4.5</text>
<text text-anchor="start" x="166" y="-517.3" font-family="Arial" font-size="14.00"> &#160;&#160;</text>
<path fill="#ebebeb" stroke="transparent" d="M192,-489C192,-489 276,-489 276,-489 282,-489 288,-495 288,-501 288,-501 288,-541 288,-541 288,-547 282,-553 276,-553 276,-553 192,-553 192,-553 186,-553 180,-547 180,-541 180,-541 180,-501 180,-501 180,-495 186,-489 192,-489"/>
<text text-anchor="start" x="181" y="-550.4" font-family="Arial" font-size="2.00"> </text>
<text text-anchor="start" x="181" y="-544.4" font-family="Arial" font-size="7.00"> &#160;4</text>
<text text-anchor="start" x="195" y="-527.8" font-family="Arial" font-weight="bold" font-size="14.00">Mean: 27.45</text>
<text text-anchor="start" x="210.5" y="-510.8" font-family="Arial" font-weight="bold" font-size="14.00">n = 124</text>
<text text-anchor="start" x="232.5" y="-492.8" font-family="Arial" font-size="9.00"> </text>
<path fill="none" stroke="#333333" d="M192,-489C192,-489 276,-489 276,-489 282,-489 288,-495 288,-501 288,-501 288,-541 288,-541 288,-547 282,-553 276,-553 276,-553 192,-553 192,-553 186,-553 180,-547 180,-541 180,-541 180,-501 180,-501 180,-495 186,-489 192,-489"/>
<text text-anchor="start" x="290" y="-517.3" font-family="Arial" font-size="14.00"> &#160;&#160;</text>
<text text-anchor="start" x="181" y="-474.8" font-family="Arial" font-weight="bold" font-size="14.00">prev_168_inflow</text>
</g>
<!-- 2&#45;&gt;4 -->
<g id="edge4" class="edge">
<title>2&#45;&gt;4</title>
<path fill="none" stroke="#888888" d="M234,-615.67C234,-607.39 234,-598.83 234,-590.38"/>
<polygon fill="#888888" stroke="#888888" points="237.5,-590.18 234,-580.18 230.5,-590.18 237.5,-590.18"/>
</g>
<!-- 8 -->
<g id="node8" class="node">
<title>8</title>
<text text-anchor="start" x="451.5" y="-561.8" font-family="Arial" font-weight="bold" font-size="14.00"> &lt; 17.5</text>
<text text-anchor="start" x="405" y="-517.3" font-family="Arial" font-size="14.00"> &#160;&#160;</text>
<path fill="#ebebeb" stroke="transparent" d="M431,-489C431,-489 515,-489 515,-489 521,-489 527,-495 527,-501 527,-501 527,-541 527,-541 527,-547 521,-553 515,-553 515,-553 431,-553 431,-553 425,-553 419,-547 419,-541 419,-541 419,-501 419,-501 419,-495 425,-489 431,-489"/>
<text text-anchor="start" x="420" y="-550.4" font-family="Arial" font-size="2.00"> </text>
<text text-anchor="start" x="420" y="-544.4" font-family="Arial" font-size="7.00"> &#160;8</text>
<text text-anchor="start" x="434" y="-527.8" font-family="Arial" font-weight="bold" font-size="14.00">Mean: 35.15</text>
<text text-anchor="start" x="449.5" y="-510.8" font-family="Arial" font-weight="bold" font-size="14.00">n = 286</text>
<text text-anchor="start" x="471.5" y="-492.8" font-family="Arial" font-size="9.00"> </text>
<path fill="none" stroke="#333333" d="M431,-489C431,-489 515,-489 515,-489 521,-489 527,-495 527,-501 527,-501 527,-541 527,-541 527,-547 521,-553 515,-553 515,-553 431,-553 431,-553 425,-553 419,-547 419,-541 419,-541 419,-501 419,-501 419,-495 425,-489 431,-489"/>
<text text-anchor="start" x="529" y="-517.3" font-family="Arial" font-size="14.00"> &#160;&#160;</text>
<text text-anchor="start" x="420" y="-474.8" font-family="Arial" font-weight="bold" font-size="14.00">prev_168_inflow</text>
</g>
<!-- 7&#45;&gt;8 -->
<g id="edge7" class="edge">
<title>7&#45;&gt;8</title>
<path fill="none" stroke="#888888" d="M473,-615.67C473,-607.39 473,-598.83 473,-590.38"/>
<polygon fill="#888888" stroke="#888888" points="476.5,-590.18 473,-580.18 469.5,-590.18 476.5,-590.18"/>
</g>
<!-- 15 -->
<g id="node9" class="node">
<title>15</title>
<text text-anchor="start" x="743" y="-561.8" font-family="Arial" font-weight="bold" font-size="14.00"> ≥ 17.5</text>
<path fill="#ebebeb" stroke="transparent" d="M726,-489C726,-489 802,-489 802,-489 808,-489 814,-495 814,-501 814,-501 814,-541 814,-541 814,-547 808,-553 802,-553 802,-553 726,-553 726,-553 720,-553 714,-547 714,-541 714,-541 714,-501 714,-501 714,-495 720,-489 726,-489"/>
<text text-anchor="start" x="715" y="-550.4" font-family="Arial" font-size="2.00"> </text>
<text text-anchor="start" x="715" y="-544.4" font-family="Arial" font-size="7.00"> &#160;15</text>
<text text-anchor="start" x="729" y="-527.8" font-family="Arial" font-weight="bold" font-size="14.00">Mean: 38.5</text>
<text text-anchor="start" x="740.5" y="-510.8" font-family="Arial" font-weight="bold" font-size="14.00">n = 122</text>
<text text-anchor="start" x="762.5" y="-492.8" font-family="Arial" font-size="9.00"> </text>
<path fill="none" stroke="#333333" d="M726,-489C726,-489 802,-489 802,-489 808,-489 814,-495 814,-501 814,-501 814,-541 814,-541 814,-547 808,-553 802,-553 802,-553 726,-553 726,-553 720,-553 714,-547 714,-541 714,-541 714,-501 714,-501 714,-495 720,-489 726,-489"/>
<text text-anchor="start" x="749.5" y="-474.8" font-family="Arial" font-weight="bold" font-size="14.00">time</text>
</g>
<!-- 7&#45;&gt;15 -->
<g id="edge8" class="edge">
<title>7&#45;&gt;15</title>
<path fill="none" stroke="#888888" d="M539.03,-639.51C584.88,-615.56 645.9,-583.69 692.83,-559.18"/>
<polygon fill="#888888" stroke="#888888" points="694.47,-562.27 701.72,-554.53 691.23,-556.06 694.47,-562.27"/>
</g>
<!-- 5 -->
<g id="node6" class="node">
<title>5</title>
<text text-anchor="start" x="57" y="-407.8" font-family="Arial" font-weight="bold" font-size="14.00"> &lt; 27.51</text>
<path fill="#f8766d" fill-opacity="0.776471" stroke="transparent" d="M37,-335C37,-335 127,-335 127,-335 133,-335 139,-341 139,-347 139,-347 139,-387 139,-387 139,-393 133,-399 127,-399 127,-399 37,-399 37,-399 31,-399 25,-393 25,-387 25,-387 25,-347 25,-347 25,-341 31,-335 37,-335"/>
<text text-anchor="start" x="26" y="-396.4" font-family="Arial" font-size="2.00"> </text>
<text text-anchor="start" x="26" y="-390.4" font-family="Arial" font-size="7.00"> &#160;5</text>
<text text-anchor="start" x="40" y="-373.8" font-family="Arial" font-weight="bold" font-size="14.00">Predict 24.78</text>
<text text-anchor="start" x="62" y="-356.8" font-family="Arial" font-weight="bold" font-size="14.00">n = 64</text>
<text text-anchor="start" x="80.5" y="-338.8" font-family="Arial" font-size="9.00"> </text>
<path fill="none" stroke="#333333" d="M37,-335C37,-335 127,-335 127,-335 133,-335 139,-341 139,-347 139,-347 139,-387 139,-387 139,-393 133,-399 127,-399 127,-399 37,-399 37,-399 31,-399 25,-393 25,-387 25,-387 25,-347 25,-347 25,-341 31,-335 37,-335"/>
<text text-anchor="start" x="80" y="-320.8" font-family="Arial" font-weight="bold" font-size="14.00"> </text>
</g>
<!-- 4&#45;&gt;5 -->
<g id="edge5" class="edge">
<title>4&#45;&gt;5</title>
<path fill="none" stroke="#888888" d="M175.67,-461.67C166.39,-452.39 156.75,-442.75 147.33,-433.33"/>
<polygon fill="#888888" stroke="#888888" points="149.72,-430.77 140.18,-426.18 144.77,-435.72 149.72,-430.77"/>
</g>
<!-- 6 -->
<g id="node7" class="node">
<title>6</title>
<text text-anchor="start" x="209.5" y="-407.8" font-family="Arial" font-weight="bold" font-size="14.00"> ≥ 27.51</text>
<path fill="#f8766d" fill-opacity="0.639216" stroke="transparent" d="M193,-335C193,-335 275,-335 275,-335 281,-335 287,-341 287,-347 287,-347 287,-387 287,-387 287,-393 281,-399 275,-399 275,-399 193,-399 193,-399 187,-399 181,-393 181,-387 181,-387 181,-347 181,-347 181,-341 187,-335 193,-335"/>
<text text-anchor="start" x="182" y="-396.4" font-family="Arial" font-size="2.00"> </text>
<text text-anchor="start" x="182" y="-390.4" font-family="Arial" font-size="7.00"> &#160;6</text>
<text text-anchor="start" x="196" y="-373.8" font-family="Arial" font-weight="bold" font-size="14.00">Predict 30.3</text>
<text text-anchor="start" x="214" y="-356.8" font-family="Arial" font-weight="bold" font-size="14.00">n = 60</text>
<text text-anchor="start" x="232.5" y="-338.8" font-family="Arial" font-size="9.00"> </text>
<path fill="none" stroke="#333333" d="M193,-335C193,-335 275,-335 275,-335 281,-335 287,-341 287,-347 287,-347 287,-387 287,-387 287,-393 281,-399 275,-399 275,-399 193,-399 193,-399 187,-399 181,-393 181,-387 181,-387 181,-347 181,-347 181,-341 187,-335 193,-335"/>
<text text-anchor="start" x="232" y="-320.8" font-family="Arial" font-weight="bold" font-size="14.00"> </text>
</g>
<!-- 4&#45;&gt;6 -->
<g id="edge6" class="edge">
<title>4&#45;&gt;6</title>
<path fill="none" stroke="#888888" d="M234,-461.67C234,-453.39 234,-444.83 234,-436.38"/>
<polygon fill="#888888" stroke="#888888" points="237.5,-436.18 234,-426.18 230.5,-436.18 237.5,-436.18"/>
</g>
<!-- 9 -->
<g id="node10" class="node">
<title>9</title>
<text text-anchor="start" x="370.5" y="-407.8" font-family="Arial" font-weight="bold" font-size="14.00"> &lt; 35</text>
<path fill="#f8766d" fill-opacity="0.576471" stroke="transparent" d="M341,-335C341,-335 431,-335 431,-335 437,-335 443,-341 443,-347 443,-347 443,-387 443,-387 443,-393 437,-399 431,-399 431,-399 341,-399 341,-399 335,-399 329,-393 329,-387 329,-387 329,-347 329,-347 329,-341 335,-335 341,-335"/>
<text text-anchor="start" x="330" y="-396.4" font-family="Arial" font-size="2.00"> </text>
<text text-anchor="start" x="330" y="-390.4" font-family="Arial" font-size="7.00"> &#160;9</text>
<text text-anchor="start" x="344" y="-373.8" font-family="Arial" font-weight="bold" font-size="14.00">Predict 32.86</text>
<text text-anchor="start" x="362.5" y="-356.8" font-family="Arial" font-weight="bold" font-size="14.00">n = 125</text>
<text text-anchor="start" x="384.5" y="-338.8" font-family="Arial" font-size="9.00"> </text>
<path fill="none" stroke="#333333" d="M341,-335C341,-335 431,-335 431,-335 437,-335 443,-341 443,-347 443,-347 443,-387 443,-387 443,-393 437,-399 431,-399 431,-399 341,-399 341,-399 335,-399 329,-393 329,-387 329,-387 329,-347 329,-347 329,-341 335,-335 341,-335"/>
<text text-anchor="start" x="384" y="-320.8" font-family="Arial" font-weight="bold" font-size="14.00"> </text>
</g>
<!-- 8&#45;&gt;9 -->
<g id="edge9" class="edge">
<title>8&#45;&gt;9</title>
<path fill="none" stroke="#888888" d="M439.61,-461.67C434.62,-452.94 429.43,-443.88 424.34,-434.99"/>
<polygon fill="#888888" stroke="#888888" points="427.3,-433.12 419.3,-426.18 421.23,-436.59 427.3,-433.12"/>
</g>
<!-- 10 -->
<g id="node11" class="node">
<title>10</title>
<text text-anchor="start" x="523.5" y="-407.8" font-family="Arial" font-weight="bold" font-size="14.00"> ≥ 35</text>
<path fill="#ebebeb" stroke="transparent" d="M497,-335C497,-335 581,-335 581,-335 587,-335 593,-341 593,-347 593,-347 593,-387 593,-387 593,-393 587,-399 581,-399 581,-399 497,-399 497,-399 491,-399 485,-393 485,-387 485,-387 485,-347 485,-347 485,-341 491,-335 497,-335"/>
<text text-anchor="start" x="486" y="-396.4" font-family="Arial" font-size="2.00"> </text>
<text text-anchor="start" x="486" y="-390.4" font-family="Arial" font-size="7.00"> &#160;10</text>
<text text-anchor="start" x="500" y="-373.8" font-family="Arial" font-weight="bold" font-size="14.00">Mean: 36.92</text>
<text text-anchor="start" x="515.5" y="-356.8" font-family="Arial" font-weight="bold" font-size="14.00">n = 161</text>
<text text-anchor="start" x="537.5" y="-338.8" font-family="Arial" font-size="9.00"> </text>
<path fill="none" stroke="#333333" d="M497,-335C497,-335 581,-335 581,-335 587,-335 593,-341 593,-347 593,-347 593,-387 593,-387 593,-393 587,-399 581,-399 581,-399 497,-399 497,-399 491,-399 485,-393 485,-387 485,-387 485,-347 485,-347 485,-341 491,-335 497,-335"/>
<text text-anchor="start" x="524.5" y="-320.8" font-family="Arial" font-weight="bold" font-size="14.00">time</text>
</g>
<!-- 8&#45;&gt;10 -->
<g id="edge10" class="edge">
<title>8&#45;&gt;10</title>
<path fill="none" stroke="#888888" d="M498.33,-461.67C502.04,-453.12 505.89,-444.26 509.67,-435.55"/>
<polygon fill="#888888" stroke="#888888" points="512.97,-436.74 513.74,-426.18 506.55,-433.95 512.97,-436.74"/>
</g>
<!-- 16 -->
<g id="node16" class="node">
<title>16</title>
<text text-anchor="start" x="742.5" y="-407.8" font-family="Arial" font-weight="bold" font-size="14.00"> &lt; 20.5</text>
<path fill="#ebebeb" stroke="transparent" d="M722,-335C722,-335 806,-335 806,-335 812,-335 818,-341 818,-347 818,-347 818,-387 818,-387 818,-393 812,-399 806,-399 806,-399 722,-399 722,-399 716,-399 710,-393 710,-387 710,-387 710,-347 710,-347 710,-341 716,-335 722,-335"/>
<text text-anchor="start" x="711" y="-396.4" font-family="Arial" font-size="2.00"> </text>
<text text-anchor="start" x="711" y="-390.4" font-family="Arial" font-size="7.00"> &#160;16</text>
<text text-anchor="start" x="725" y="-373.8" font-family="Arial" font-weight="bold" font-size="14.00">Mean: 40.17</text>
<text text-anchor="start" x="744" y="-356.8" font-family="Arial" font-weight="bold" font-size="14.00">n = 84</text>
<text text-anchor="start" x="762.5" y="-338.8" font-family="Arial" font-size="9.00"> </text>
<path fill="none" stroke="#333333" d="M722,-335C722,-335 806,-335 806,-335 812,-335 818,-341 818,-347 818,-347 818,-387 818,-387 818,-393 812,-399 806,-399 806,-399 722,-399 722,-399 716,-399 710,-393 710,-387 710,-387 710,-347 710,-347 710,-341 716,-335 722,-335"/>
<text text-anchor="start" x="749.5" y="-320.8" font-family="Arial" font-weight="bold" font-size="14.00">time</text>
</g>
<!-- 15&#45;&gt;16 -->
<g id="edge15" class="edge">
<title>15&#45;&gt;16</title>
<path fill="none" stroke="#888888" d="M764,-461.67C764,-453.39 764,-444.83 764,-436.38"/>
<polygon fill="#888888" stroke="#888888" points="767.5,-436.18 764,-426.18 760.5,-436.18 767.5,-436.18"/>
</g>
<!-- 19 -->
<g id="node17" class="node">
<title>19</title>
<text text-anchor="start" x="975" y="-407.8" font-family="Arial" font-weight="bold" font-size="14.00"> ≥ 20.5</text>
<path fill="#ebebeb" stroke="transparent" d="M954,-335C954,-335 1038,-335 1038,-335 1044,-335 1050,-341 1050,-347 1050,-347 1050,-387 1050,-387 1050,-393 1044,-399 1038,-399 1038,-399 954,-399 954,-399 948,-399 942,-393 942,-387 942,-387 942,-347 942,-347 942,-341 948,-335 954,-335"/>
<text text-anchor="start" x="943" y="-396.4" font-family="Arial" font-size="2.00"> </text>
<text text-anchor="start" x="943" y="-390.4" font-family="Arial" font-size="7.00"> &#160;19</text>
<text text-anchor="start" x="957" y="-373.8" font-family="Arial" font-weight="bold" font-size="14.00">Mean: 34.81</text>
<text text-anchor="start" x="976" y="-356.8" font-family="Arial" font-weight="bold" font-size="14.00">n = 38</text>
<text text-anchor="start" x="994.5" y="-338.8" font-family="Arial" font-size="9.00"> </text>
<path fill="none" stroke="#333333" d="M954,-335C954,-335 1038,-335 1038,-335 1044,-335 1050,-341 1050,-347 1050,-347 1050,-387 1050,-387 1050,-393 1044,-399 1038,-399 1038,-399 954,-399 954,-399 948,-399 942,-393 942,-387 942,-387 942,-347 942,-347 942,-341 948,-335 954,-335"/>
<text text-anchor="start" x="981.5" y="-320.8" font-family="Arial" font-weight="bold" font-size="14.00">time</text>
</g>
<!-- 15&#45;&gt;19 -->
<g id="edge16" class="edge">
<title>15&#45;&gt;19</title>
<path fill="none" stroke="#888888" d="M826.17,-479.27C855.37,-460.14 890.42,-437.17 921.07,-417.09"/>
<polygon fill="#888888" stroke="#888888" points="923.14,-419.92 929.59,-411.51 919.31,-414.06 923.14,-419.92"/>
</g>
<!-- 11 -->
<g id="node12" class="node">
<title>11</title>
<text text-anchor="start" x="368.5" y="-253.8" font-family="Arial" font-weight="bold" font-size="14.00"> &lt; 9.5</text>
<path fill="#f8766d" fill-opacity="0.427451" stroke="transparent" d="M341,-181C341,-181 431,-181 431,-181 437,-181 443,-187 443,-193 443,-193 443,-233 443,-233 443,-239 437,-245 431,-245 431,-245 341,-245 341,-245 335,-245 329,-239 329,-233 329,-233 329,-193 329,-193 329,-187 335,-181 341,-181"/>
<text text-anchor="start" x="330" y="-242.4" font-family="Arial" font-size="2.00"> </text>
<text text-anchor="start" x="330" y="-236.4" font-family="Arial" font-size="7.00"> &#160;11</text>
<text text-anchor="start" x="344" y="-219.8" font-family="Arial" font-weight="bold" font-size="14.00">Predict 39.04</text>
<text text-anchor="start" x="366" y="-202.8" font-family="Arial" font-weight="bold" font-size="14.00">n = 74</text>
<text text-anchor="start" x="384.5" y="-184.8" font-family="Arial" font-size="9.00"> </text>
<path fill="none" stroke="#333333" d="M341,-181C341,-181 431,-181 431,-181 437,-181 443,-187 443,-193 443,-193 443,-233 443,-233 443,-239 437,-245 431,-245 431,-245 341,-245 341,-245 335,-245 329,-239 329,-233 329,-233 329,-193 329,-193 329,-187 335,-181 341,-181"/>
<text text-anchor="start" x="384" y="-166.8" font-family="Arial" font-weight="bold" font-size="14.00"> </text>
</g>
<!-- 10&#45;&gt;11 -->
<g id="edge11" class="edge">
<title>10&#45;&gt;11</title>
<path fill="none" stroke="#888888" d="M480.28,-307.67C470.95,-298.39 461.24,-288.75 451.76,-279.33"/>
<polygon fill="#888888" stroke="#888888" points="454.12,-276.74 444.56,-272.18 449.19,-281.71 454.12,-276.74"/>
</g>
<!-- 12 -->
<g id="node13" class="node">
<title>12</title>
<text text-anchor="start" x="522" y="-253.8" font-family="Arial" font-weight="bold" font-size="14.00"> ≥ 9.5</text>
<path fill="#ebebeb" stroke="transparent" d="M497,-181C497,-181 581,-181 581,-181 587,-181 593,-187 593,-193 593,-193 593,-233 593,-233 593,-239 587,-245 581,-245 581,-245 497,-245 497,-245 491,-245 485,-239 485,-233 485,-233 485,-193 485,-193 485,-187 491,-181 497,-181"/>
<text text-anchor="start" x="486" y="-242.4" font-family="Arial" font-size="2.00"> </text>
<text text-anchor="start" x="486" y="-236.4" font-family="Arial" font-size="7.00"> &#160;12</text>
<text text-anchor="start" x="500" y="-219.8" font-family="Arial" font-weight="bold" font-size="14.00">Mean: 35.13</text>
<text text-anchor="start" x="519" y="-202.8" font-family="Arial" font-weight="bold" font-size="14.00">n = 87</text>
<text text-anchor="start" x="537.5" y="-184.8" font-family="Arial" font-size="9.00"> </text>
<path fill="none" stroke="#333333" d="M497,-181C497,-181 581,-181 581,-181 587,-181 593,-187 593,-193 593,-193 593,-233 593,-233 593,-239 587,-245 581,-245 581,-245 497,-245 497,-245 491,-245 485,-239 485,-233 485,-233 485,-193 485,-193 485,-187 491,-181 497,-181"/>
<text text-anchor="start" x="509.5" y="-166.8" font-family="Arial" font-weight="bold" font-size="14.00">day_type</text>
</g>
<!-- 10&#45;&gt;12 -->
<g id="edge12" class="edge">
<title>10&#45;&gt;12</title>
<path fill="none" stroke="#888888" d="M539,-307.67C539,-299.39 539,-290.83 539,-282.38"/>
<polygon fill="#888888" stroke="#888888" points="542.5,-282.18 539,-272.18 535.5,-282.18 542.5,-282.18"/>
</g>
<!-- 13 -->
<g id="node14" class="node">
<title>13</title>
<text text-anchor="start" x="443.5" y="-99.8" font-family="Arial" font-weight="bold" font-size="14.00"> &lt; 0.5</text>
<path fill="#f8766d" fill-opacity="0.454902" stroke="transparent" d="M416,-27C416,-27 506,-27 506,-27 512,-27 518,-33 518,-39 518,-39 518,-79 518,-79 518,-85 512,-91 506,-91 506,-91 416,-91 416,-91 410,-91 404,-85 404,-79 404,-79 404,-39 404,-39 404,-33 410,-27 416,-27"/>
<text text-anchor="start" x="405" y="-88.4" font-family="Arial" font-size="2.00"> </text>
<text text-anchor="start" x="405" y="-82.4" font-family="Arial" font-size="7.00"> &#160;13</text>
<text text-anchor="start" x="419" y="-65.8" font-family="Arial" font-weight="bold" font-size="14.00">Predict 37.82</text>
<text text-anchor="start" x="441" y="-48.8" font-family="Arial" font-weight="bold" font-size="14.00">n = 33</text>
<text text-anchor="start" x="459.5" y="-30.8" font-family="Arial" font-size="9.00"> </text>
<path fill="none" stroke="#333333" d="M416,-27C416,-27 506,-27 506,-27 512,-27 518,-33 518,-39 518,-39 518,-79 518,-79 518,-85 512,-91 506,-91 506,-91 416,-91 416,-91 410,-91 404,-85 404,-79 404,-79 404,-39 404,-39 404,-33 410,-27 416,-27"/>
<text text-anchor="start" x="459" y="-12.8" font-family="Arial" font-weight="bold" font-size="14.00"> </text>
</g>
<!-- 12&#45;&gt;13 -->
<g id="edge13" class="edge">
<title>12&#45;&gt;13</title>
<path fill="none" stroke="#888888" d="M509.07,-153.67C504.63,-145.03 500.04,-136.07 495.52,-127.27"/>
<polygon fill="#888888" stroke="#888888" points="498.53,-125.48 490.85,-118.18 492.31,-128.67 498.53,-125.48"/>
</g>
<!-- 14 -->
<g id="node15" class="node">
<title>14</title>
<text text-anchor="start" x="600" y="-99.8" font-family="Arial" font-weight="bold" font-size="14.00"> ≥ 0.5</text>
<path fill="#f8766d" fill-opacity="0.564706" stroke="transparent" d="M572,-27C572,-27 662,-27 662,-27 668,-27 674,-33 674,-39 674,-39 674,-79 674,-79 674,-85 668,-91 662,-91 662,-91 572,-91 572,-91 566,-91 560,-85 560,-79 560,-79 560,-39 560,-39 560,-33 566,-27 572,-27"/>
<text text-anchor="start" x="561" y="-88.4" font-family="Arial" font-size="2.00"> </text>
<text text-anchor="start" x="561" y="-82.4" font-family="Arial" font-size="7.00"> &#160;14</text>
<text text-anchor="start" x="575" y="-65.8" font-family="Arial" font-weight="bold" font-size="14.00">Predict 33.48</text>
<text text-anchor="start" x="597" y="-48.8" font-family="Arial" font-weight="bold" font-size="14.00">n = 54</text>
<text text-anchor="start" x="615.5" y="-30.8" font-family="Arial" font-size="9.00"> </text>
<path fill="none" stroke="#333333" d="M572,-27C572,-27 662,-27 662,-27 668,-27 674,-33 674,-39 674,-39 674,-79 674,-79 674,-85 668,-91 662,-91 662,-91 572,-91 572,-91 566,-91 560,-85 560,-79 560,-79 560,-39 560,-39 560,-33 566,-27 572,-27"/>
<text text-anchor="start" x="615" y="-12.8" font-family="Arial" font-weight="bold" font-size="14.00"> </text>
</g>
<!-- 12&#45;&gt;14 -->
<g id="edge14" class="edge">
<title>12&#45;&gt;14</title>
<path fill="none" stroke="#888888" d="M568.93,-153.67C573.37,-145.03 577.96,-136.07 582.48,-127.27"/>
<polygon fill="#888888" stroke="#888888" points="585.69,-128.67 587.15,-118.18 579.47,-125.48 585.69,-128.67"/>
</g>
<!-- 17 -->
<g id="node18" class="node">
<title>17</title>
<text text-anchor="start" x="666.5" y="-253.8" font-family="Arial" font-weight="bold" font-size="14.00"> &lt; 18.5</text>
<path fill="#f8766d" fill-opacity="0.447059" stroke="transparent" d="M647,-181C647,-181 729,-181 729,-181 735,-181 741,-187 741,-193 741,-193 741,-233 741,-233 741,-239 735,-245 729,-245 729,-245 647,-245 647,-245 641,-245 635,-239 635,-233 635,-233 635,-193 635,-193 635,-187 641,-181 647,-181"/>
<text text-anchor="start" x="636" y="-242.4" font-family="Arial" font-size="2.00"> </text>
<text text-anchor="start" x="636" y="-236.4" font-family="Arial" font-size="7.00"> &#160;17</text>
<text text-anchor="start" x="650" y="-219.8" font-family="Arial" font-weight="bold" font-size="14.00">Predict 38.2</text>
<text text-anchor="start" x="668" y="-202.8" font-family="Arial" font-weight="bold" font-size="14.00">n = 28</text>
<text text-anchor="start" x="686.5" y="-184.8" font-family="Arial" font-size="9.00"> </text>
<path fill="none" stroke="#333333" d="M647,-181C647,-181 729,-181 729,-181 735,-181 741,-187 741,-193 741,-193 741,-233 741,-233 741,-239 735,-245 729,-245 729,-245 647,-245 647,-245 641,-245 635,-239 635,-233 635,-233 635,-193 635,-193 635,-187 641,-181 647,-181"/>
<text text-anchor="start" x="686" y="-166.8" font-family="Arial" font-weight="bold" font-size="14.00"> </text>
</g>
<!-- 16&#45;&gt;17 -->
<g id="edge17" class="edge">
<title>16&#45;&gt;17</title>
<path fill="none" stroke="#888888" d="M734.83,-307.67C730.52,-299.03 726.04,-290.07 721.64,-281.27"/>
<polygon fill="#888888" stroke="#888888" points="724.69,-279.56 717.09,-272.18 718.43,-282.69 724.69,-279.56"/>
</g>
<!-- 18 -->
<g id="node19" class="node">
<title>18</title>
<text text-anchor="start" x="819" y="-253.8" font-family="Arial" font-weight="bold" font-size="14.00"> ≥ 18.5</text>
<path fill="#f8766d" fill-opacity="0.376471" stroke="transparent" d="M795,-181C795,-181 885,-181 885,-181 891,-181 897,-187 897,-193 897,-193 897,-233 897,-233 897,-239 891,-245 885,-245 885,-245 795,-245 795,-245 789,-245 783,-239 783,-233 783,-233 783,-193 783,-193 783,-187 789,-181 795,-181"/>
<text text-anchor="start" x="784" y="-242.4" font-family="Arial" font-size="2.00"> </text>
<text text-anchor="start" x="784" y="-236.4" font-family="Arial" font-size="7.00"> &#160;18</text>
<text text-anchor="start" x="798" y="-219.8" font-family="Arial" font-weight="bold" font-size="14.00">Predict 41.16</text>
<text text-anchor="start" x="820" y="-202.8" font-family="Arial" font-weight="bold" font-size="14.00">n = 56</text>
<text text-anchor="start" x="838.5" y="-184.8" font-family="Arial" font-size="9.00"> </text>
<path fill="none" stroke="#333333" d="M795,-181C795,-181 885,-181 885,-181 891,-181 897,-187 897,-193 897,-193 897,-233 897,-233 897,-239 891,-245 885,-245 885,-245 795,-245 795,-245 789,-245 783,-239 783,-233 783,-233 783,-193 783,-193 783,-187 789,-181 795,-181"/>
<text text-anchor="start" x="838" y="-166.8" font-family="Arial" font-weight="bold" font-size="14.00"> </text>
</g>
<!-- 16&#45;&gt;18 -->
<g id="edge18" class="edge">
<title>16&#45;&gt;18</title>
<path fill="none" stroke="#888888" d="M793.17,-307.67C797.48,-299.03 801.96,-290.07 806.36,-281.27"/>
<polygon fill="#888888" stroke="#888888" points="809.57,-282.69 810.91,-272.18 803.31,-279.56 809.57,-282.69"/>
</g>
<!-- 20 -->
<g id="node20" class="node">
<title>20</title>
<text text-anchor="start" x="974.5" y="-253.8" font-family="Arial" font-weight="bold" font-size="14.00"> &lt; 21.5</text>
<path fill="#f8766d" fill-opacity="0.498039" stroke="transparent" d="M951,-181C951,-181 1041,-181 1041,-181 1047,-181 1053,-187 1053,-193 1053,-193 1053,-233 1053,-233 1053,-239 1047,-245 1041,-245 1041,-245 951,-245 951,-245 945,-245 939,-239 939,-233 939,-233 939,-193 939,-193 939,-187 945,-181 951,-181"/>
<text text-anchor="start" x="940" y="-242.4" font-family="Arial" font-size="2.00"> </text>
<text text-anchor="start" x="940" y="-236.4" font-family="Arial" font-size="7.00"> &#160;20</text>
<text text-anchor="start" x="954" y="-219.8" font-family="Arial" font-weight="bold" font-size="14.00">Predict 36.12</text>
<text text-anchor="start" x="976" y="-202.8" font-family="Arial" font-weight="bold" font-size="14.00">n = 27</text>
<text text-anchor="start" x="994.5" y="-184.8" font-family="Arial" font-size="9.00"> </text>
<path fill="none" stroke="#333333" d="M951,-181C951,-181 1041,-181 1041,-181 1047,-181 1053,-187 1053,-193 1053,-193 1053,-233 1053,-233 1053,-239 1047,-245 1041,-245 1041,-245 951,-245 951,-245 945,-245 939,-239 939,-233 939,-233 939,-193 939,-193 939,-187 945,-181 951,-181"/>
<text text-anchor="start" x="994" y="-166.8" font-family="Arial" font-weight="bold" font-size="14.00"> </text>
</g>
<!-- 19&#45;&gt;20 -->
<g id="edge19" class="edge">
<title>19&#45;&gt;20</title>
<path fill="none" stroke="#888888" d="M996,-307.67C996,-299.39 996,-290.83 996,-282.38"/>
<polygon fill="#888888" stroke="#888888" points="999.5,-282.18 996,-272.18 992.5,-282.18 999.5,-282.18"/>
</g>
<!-- 21 -->
<g id="node21" class="node">
<title>21</title>
<text text-anchor="start" x="1127" y="-253.8" font-family="Arial" font-weight="bold" font-size="14.00"> ≥ 21.5</text>
<path fill="#f8766d" fill-opacity="0.607843" stroke="transparent" d="M1107,-181C1107,-181 1189,-181 1189,-181 1195,-181 1201,-187 1201,-193 1201,-193 1201,-233 1201,-233 1201,-239 1195,-245 1189,-245 1189,-245 1107,-245 1107,-245 1101,-245 1095,-239 1095,-233 1095,-233 1095,-193 1095,-193 1095,-187 1101,-181 1107,-181"/>
<text text-anchor="start" x="1096" y="-242.4" font-family="Arial" font-size="2.00"> </text>
<text text-anchor="start" x="1096" y="-236.4" font-family="Arial" font-size="7.00"> &#160;21</text>
<text text-anchor="start" x="1110" y="-219.8" font-family="Arial" font-weight="bold" font-size="14.00">Predict 31.6</text>
<text text-anchor="start" x="1128.5" y="-202.8" font-family="Arial" font-weight="bold" font-size="14.00">n = 11</text>
<text text-anchor="start" x="1146.5" y="-184.8" font-family="Arial" font-size="9.00"> </text>
<path fill="none" stroke="#333333" d="M1107,-181C1107,-181 1189,-181 1189,-181 1195,-181 1201,-187 1201,-193 1201,-193 1201,-233 1201,-233 1201,-239 1195,-245 1189,-245 1189,-245 1107,-245 1107,-245 1101,-245 1095,-239 1095,-233 1095,-233 1095,-193 1095,-193 1095,-187 1101,-181 1107,-181"/>
<text text-anchor="start" x="1146" y="-166.8" font-family="Arial" font-weight="bold" font-size="14.00"> </text>
</g>
<!-- 19&#45;&gt;21 -->
<g id="edge20" class="edge">
<title>19&#45;&gt;21</title>
<path fill="none" stroke="#888888" d="M1054.33,-307.67C1063.61,-298.39 1073.25,-288.75 1082.67,-279.33"/>
<polygon fill="#888888" stroke="#888888" points="1085.23,-281.72 1089.82,-272.18 1080.28,-276.77 1085.23,-281.72"/>
</g>
</g>
</svg>
