<?xml version="1.0" encoding="UTF-8" standalone="no"?>
<!DOCTYPE svg PUBLIC "-//W3C//DTD SVG 1.1//EN"
 "http://www.w3.org/Graphics/SVG/1.1/DTD/svg11.dtd">
<!-- Generated by graphviz version 2.50.0 (20211204.2007)
 -->
<!-- Pages: 1 -->
<svg width="692pt" height="588pt"
 viewBox="0.00 0.00 692.00 588.00" xmlns="http://www.w3.org/2000/svg" xmlns:xlink="http://www.w3.org/1999/xlink">
<g id="graph0" class="graph" transform="scale(1 1) rotate(0) translate(4 584)">
<polygon fill="white" stroke="transparent" points="-4,4 -4,-584 688,-584 688,4 -4,4"/>
<!-- 1 -->
<g id="node1" class="node">
<title>1</title>
<text text-anchor="start" x="302" y="-561.8" font-family="Arial" font-weight="bold" font-size="14.00"> </text>
<text text-anchor="start" x="240" y="-517.3" font-family="Arial" font-size="14.00"> &#160;</text>
<path fill="#ebebeb" stroke="transparent" d="M262,-489C262,-489 346,-489 346,-489 352,-489 358,-495 358,-501 358,-501 358,-541 358,-541 358,-547 352,-553 346,-553 346,-553 262,-553 262,-553 256,-553 250,-547 250,-541 250,-541 250,-501 250,-501 250,-495 256,-489 262,-489"/>
<text text-anchor="start" x="251" y="-550.4" font-family="Arial" font-size="2.00"> </text>
<text text-anchor="start" x="251" y="-544.4" font-family="Arial" font-size="7.00"> &#160;1</text>
<text text-anchor="start" x="265" y="-527.8" font-family="Arial" font-weight="bold" font-size="14.00">Mean: 8.234</text>
<text text-anchor="start" x="280.5" y="-510.8" font-family="Arial" font-weight="bold" font-size="14.00">n = 672</text>
<text text-anchor="start" x="302.5" y="-492.8" font-family="Arial" font-size="9.00"> </text>
<path fill="none" stroke="#333333" d="M262,-489C262,-489 346,-489 346,-489 352,-489 358,-495 358,-501 358,-501 358,-541 358,-541 358,-547 352,-553 346,-553 346,-553 262,-553 262,-553 256,-553 250,-547 250,-541 250,-541 250,-501 250,-501 250,-495 256,-489 262,-489"/>
<text text-anchor="start" x="360" y="-517.3" font-family="Arial" font-size="14.00"> &#160;</text>
<text text-anchor="start" x="254.5" y="-474.8" font-family="Arial" font-weight="bold" font-size="14.00">prev_24_inflow</text>
</g>
<!-- 2 -->
<g id="node2" class="node">
<title>2</title>
<text text-anchor="start" x="201.5" y="-407.8" font-family="Arial" font-weight="bold" font-size="14.00"> &lt; 8.04</text>
<path fill="#ebebeb" stroke="transparent" d="M181,-335C181,-335 265,-335 265,-335 271,-335 277,-341 277,-347 277,-347 277,-387 277,-387 277,-393 271,-399 265,-399 265,-399 181,-399 181,-399 175,-399 169,-393 169,-387 169,-387 169,-347 169,-347 169,-341 175,-335 181,-335"/>
<text text-anchor="start" x="170" y="-396.4" font-family="Arial" font-size="2.00"> </text>
<text text-anchor="start" x="170" y="-390.4" font-family="Arial" font-size="7.00"> &#160;2</text>
<text text-anchor="start" x="184" y="-373.8" font-family="Arial" font-weight="bold" font-size="14.00">Mean: 6.986</text>
<text text-anchor="start" x="199.5" y="-356.8" font-family="Arial" font-weight="bold" font-size="14.00">n = 312</text>
<text text-anchor="start" x="221.5" y="-338.8" font-family="Arial" font-size="9.00"> </text>
<path fill="none" stroke="#333333" d="M181,-335C181,-335 265,-335 265,-335 271,-335 277,-341 277,-347 277,-347 277,-387 277,-387 277,-393 271,-399 265,-399 265,-399 181,-399 181,-399 175,-399 169,-393 169,-387 169,-387 169,-347 169,-347 169,-341 175,-335 181,-335"/>
<text text-anchor="start" x="208.5" y="-320.8" font-family="Arial" font-weight="bold" font-size="14.00">time</text>
</g>
<!-- 1&#45;&gt;2 -->
<g id="edge1" class="edge">
<title>1&#45;&gt;2</title>
<path fill="none" stroke="#888888" d="M272.91,-461.67C268.31,-453.03 263.54,-444.07 258.85,-435.27"/>
<polygon fill="#888888" stroke="#888888" points="261.79,-433.36 254,-426.18 255.62,-436.65 261.79,-433.36"/>
</g>
<!-- 5 -->
<g id="node3" class="node">
<title>5</title>
<text text-anchor="start" x="364" y="-407.8" font-family="Arial" font-weight="bold" font-size="14.00"> ≥ 8.04</text>
<text text-anchor="start" x="317" y="-363.3" font-family="Arial" font-size="14.00"> &#160;&#160;</text>
<path fill="#ebebeb" stroke="transparent" d="M343,-335C343,-335 427,-335 427,-335 433,-335 439,-341 439,-347 439,-347 439,-387 439,-387 439,-393 433,-399 427,-399 427,-399 343,-399 343,-399 337,-399 331,-393 331,-387 331,-387 331,-347 331,-347 331,-341 337,-335 343,-335"/>
<text text-anchor="start" x="332" y="-396.4" font-family="Arial" font-size="2.00"> </text>
<text text-anchor="start" x="332" y="-390.4" font-family="Arial" font-size="7.00"> &#160;5</text>
<text text-anchor="start" x="346" y="-373.8" font-family="Arial" font-weight="bold" font-size="14.00">Mean: 9.315</text>
<text text-anchor="start" x="361.5" y="-356.8" font-family="Arial" font-weight="bold" font-size="14.00">n = 360</text>
<text text-anchor="start" x="383.5" y="-338.8" font-family="Arial" font-size="9.00"> </text>
<path fill="none" stroke="#333333" d="M343,-335C343,-335 427,-335 427,-335 433,-335 439,-341 439,-347 439,-347 439,-387 439,-387 439,-393 433,-399 427,-399 427,-399 343,-399 343,-399 337,-399 331,-393 331,-387 331,-387 331,-347 331,-347 331,-341 337,-335 343,-335"/>
<text text-anchor="start" x="441" y="-363.3" font-family="Arial" font-size="14.00"> &#160;&#160;</text>
<text text-anchor="start" x="332" y="-320.8" font-family="Arial" font-weight="bold" font-size="14.00">prev_168_inflow</text>
</g>
<!-- 1&#45;&gt;5 -->
<g id="edge2" class="edge">
<title>1&#45;&gt;5</title>
<path fill="none" stroke="#888888" d="M335.09,-461.67C339.69,-453.03 344.46,-444.07 349.15,-435.27"/>
<polygon fill="#888888" stroke="#888888" points="352.38,-436.65 354,-426.18 346.21,-433.36 352.38,-436.65"/>
</g>
<!-- 3 -->
<g id="node4" class="node">
<title>3</title>
<text text-anchor="start" x="51.5" y="-253.8" font-family="Arial" font-weight="bold" font-size="14.00"> &lt; 5.5</text>
<path fill="#f8766d" fill-opacity="0.874510" stroke="transparent" d="M24,-181C24,-181 114,-181 114,-181 120,-181 126,-187 126,-193 126,-193 126,-233 126,-233 126,-239 120,-245 114,-245 114,-245 24,-245 24,-245 18,-245 12,-239 12,-233 12,-233 12,-193 12,-193 12,-187 18,-181 24,-181"/>
<text text-anchor="start" x="13" y="-242.4" font-family="Arial" font-size="2.00"> </text>
<text text-anchor="start" x="13" y="-236.4" font-family="Arial" font-size="7.00"> &#160;3</text>
<text text-anchor="start" x="27" y="-219.8" font-family="Arial" font-weight="bold" font-size="14.00">Predict 6.224</text>
<text text-anchor="start" x="45.5" y="-202.8" font-family="Arial" font-weight="bold" font-size="14.00">n = 168</text>
<text text-anchor="start" x="67.5" y="-184.8" font-family="Arial" font-size="9.00"> </text>
<path fill="none" stroke="#333333" d="M24,-181C24,-181 114,-181 114,-181 120,-181 126,-187 126,-193 126,-193 126,-233 126,-233 126,-239 120,-245 114,-245 114,-245 24,-245 24,-245 18,-245 12,-239 12,-233 12,-233 12,-193 12,-193 12,-187 18,-181 24,-181"/>
<text text-anchor="start" x="67" y="-166.8" font-family="Arial" font-weight="bold" font-size="14.00"> </text>
</g>
<!-- 2&#45;&gt;3 -->
<g id="edge3" class="edge">
<title>2&#45;&gt;3</title>
<path fill="none" stroke="#888888" d="M163.9,-307.67C154.5,-298.39 144.73,-288.75 135.19,-279.33"/>
<polygon fill="#888888" stroke="#888888" points="137.52,-276.71 127.94,-272.18 132.6,-281.69 137.52,-276.71"/>
</g>
<!-- 4 -->
<g id="node5" class="node">
<title>4</title>
<text text-anchor="start" x="208" y="-253.8" font-family="Arial" font-weight="bold" font-size="14.00"> ≥ 5.5</text>
<path fill="#f8766d" fill-opacity="0.705882" stroke="transparent" d="M180,-181C180,-181 270,-181 270,-181 276,-181 282,-187 282,-193 282,-193 282,-233 282,-233 282,-239 276,-245 270,-245 270,-245 180,-245 180,-245 174,-245 168,-239 168,-233 168,-233 168,-193 168,-193 168,-187 174,-181 180,-181"/>
<text text-anchor="start" x="169" y="-242.4" font-family="Arial" font-size="2.00"> </text>
<text text-anchor="start" x="169" y="-236.4" font-family="Arial" font-size="7.00"> &#160;4</text>
<text text-anchor="start" x="183" y="-219.8" font-family="Arial" font-weight="bold" font-size="14.00">Predict 7.876</text>
<text text-anchor="start" x="201.5" y="-202.8" font-family="Arial" font-weight="bold" font-size="14.00">n = 144</text>
<text text-anchor="start" x="223.5" y="-184.8" font-family="Arial" font-size="9.00"> </text>
<path fill="none" stroke="#333333" d="M180,-181C180,-181 270,-181 270,-181 276,-181 282,-187 282,-193 282,-193 282,-233 282,-233 282,-239 276,-245 270,-245 270,-245 180,-245 180,-245 174,-245 168,-239 168,-233 168,-233 168,-193 168,-193 168,-187 174,-181 180,-181"/>
<text text-anchor="start" x="223" y="-166.8" font-family="Arial" font-weight="bold" font-size="14.00"> </text>
</g>
<!-- 2&#45;&gt;4 -->
<g id="edge4" class="edge">
<title>2&#45;&gt;4</title>
<path fill="none" stroke="#888888" d="M223.77,-307.67C223.88,-299.39 223.99,-290.83 224.1,-282.38"/>
<polygon fill="#888888" stroke="#888888" points="227.6,-282.22 224.23,-272.18 220.6,-282.13 227.6,-282.22"/>
</g>
<!-- 6 -->
<g id="node6" class="node">
<title>6</title>
<text text-anchor="start" x="359" y="-253.8" font-family="Arial" font-weight="bold" font-size="14.00"> &lt; 9.405</text>
<path fill="#f8766d" fill-opacity="0.627451" stroke="transparent" d="M339,-181C339,-181 429,-181 429,-181 435,-181 441,-187 441,-193 441,-193 441,-233 441,-233 441,-239 435,-245 429,-245 429,-245 339,-245 339,-245 333,-245 327,-239 327,-233 327,-233 327,-193 327,-193 327,-187 333,-181 339,-181"/>
<text text-anchor="start" x="328" y="-242.4" font-family="Arial" font-size="2.00"> </text>
<text text-anchor="start" x="328" y="-236.4" font-family="Arial" font-size="7.00"> &#160;6</text>
<text text-anchor="start" x="342" y="-219.8" font-family="Arial" font-weight="bold" font-size="14.00">Predict 8.655</text>
<text text-anchor="start" x="360.5" y="-202.8" font-family="Arial" font-weight="bold" font-size="14.00">n = 185</text>
<text text-anchor="start" x="382.5" y="-184.8" font-family="Arial" font-size="9.00"> </text>
<path fill="none" stroke="#333333" d="M339,-181C339,-181 429,-181 429,-181 435,-181 441,-187 441,-193 441,-193 441,-233 441,-233 441,-239 435,-245 429,-245 429,-245 339,-245 339,-245 333,-245 327,-239 327,-233 327,-233 327,-193 327,-193 327,-187 333,-181 339,-181"/>
<text text-anchor="start" x="382" y="-166.8" font-family="Arial" font-weight="bold" font-size="14.00"> </text>
</g>
<!-- 5&#45;&gt;6 -->
<g id="edge5" class="edge">
<title>5&#45;&gt;6</title>
<path fill="none" stroke="#888888" d="M384.62,-307.67C384.56,-299.39 384.51,-290.83 384.45,-282.38"/>
<polygon fill="#888888" stroke="#888888" points="387.95,-282.15 384.38,-272.18 380.95,-282.2 387.95,-282.15"/>
</g>
<!-- 7 -->
<g id="node7" class="node">
<title>7</title>
<text text-anchor="start" x="512.5" y="-253.8" font-family="Arial" font-weight="bold" font-size="14.00"> ≥ 9.405</text>
<path fill="#ebebeb" stroke="transparent" d="M495,-181C495,-181 579,-181 579,-181 585,-181 591,-187 591,-193 591,-193 591,-233 591,-233 591,-239 585,-245 579,-245 579,-245 495,-245 495,-245 489,-245 483,-239 483,-233 483,-233 483,-193 483,-193 483,-187 489,-181 495,-181"/>
<text text-anchor="start" x="484" y="-242.4" font-family="Arial" font-size="2.00"> </text>
<text text-anchor="start" x="484" y="-236.4" font-family="Arial" font-size="7.00"> &#160;7</text>
<text text-anchor="start" x="498" y="-219.8" font-family="Arial" font-weight="bold" font-size="14.00">Mean: 10.01</text>
<text text-anchor="start" x="513.5" y="-202.8" font-family="Arial" font-weight="bold" font-size="14.00">n = 175</text>
<text text-anchor="start" x="535.5" y="-184.8" font-family="Arial" font-size="9.00"> </text>
<path fill="none" stroke="#333333" d="M495,-181C495,-181 579,-181 579,-181 585,-181 591,-187 591,-193 591,-193 591,-233 591,-233 591,-239 585,-245 579,-245 579,-245 495,-245 495,-245 489,-245 483,-239 483,-233 483,-233 483,-193 483,-193 483,-187 489,-181 495,-181"/>
<text text-anchor="start" x="522.5" y="-166.8" font-family="Arial" font-weight="bold" font-size="14.00">time</text>
</g>
<!-- 5&#45;&gt;7 -->
<g id="edge6" class="edge">
<title>5&#45;&gt;7</title>
<path fill="none" stroke="#888888" d="M443.33,-307.67C452.61,-298.39 462.25,-288.75 471.67,-279.33"/>
<polygon fill="#888888" stroke="#888888" points="474.23,-281.72 478.82,-272.18 469.28,-276.77 474.23,-281.72"/>
</g>
<!-- 8 -->
<g id="node8" class="node">
<title>8</title>
<text text-anchor="start" x="442" y="-99.8" font-family="Arial" font-weight="bold" font-size="14.00"> &lt; 8.5</text>
<path fill="#f8766d" fill-opacity="0.376471" stroke="transparent" d="M415,-27C415,-27 504,-27 504,-27 510,-27 516,-33 516,-39 516,-39 516,-79 516,-79 516,-85 510,-91 504,-91 504,-91 415,-91 415,-91 409,-91 403,-85 403,-79 403,-79 403,-39 403,-39 403,-33 409,-27 415,-27"/>
<text text-anchor="start" x="404" y="-88.4" font-family="Arial" font-size="2.00"> </text>
<text text-anchor="start" x="404" y="-82.4" font-family="Arial" font-size="7.00"> &#160;8</text>
<text text-anchor="start" x="418" y="-65.8" font-family="Arial" font-weight="bold" font-size="14.00">Predict 11.15</text>
<text text-anchor="start" x="439.5" y="-48.8" font-family="Arial" font-weight="bold" font-size="14.00">n = 48</text>
<text text-anchor="start" x="458" y="-30.8" font-family="Arial" font-size="9.00"> </text>
<path fill="none" stroke="#333333" d="M415,-27C415,-27 504,-27 504,-27 510,-27 516,-33 516,-39 516,-39 516,-79 516,-79 516,-85 510,-91 504,-91 504,-91 415,-91 415,-91 409,-91 403,-85 403,-79 403,-79 403,-39 403,-39 403,-33 409,-27 415,-27"/>
<text text-anchor="start" x="457.5" y="-12.8" font-family="Arial" font-weight="bold" font-size="14.00"> </text>
</g>
<!-- 7&#45;&gt;8 -->
<g id="edge7" class="edge">
<title>7&#45;&gt;8</title>
<path fill="none" stroke="#888888" d="M507.07,-153.67C502.63,-145.03 498.04,-136.07 493.52,-127.27"/>
<polygon fill="#888888" stroke="#888888" points="496.53,-125.48 488.85,-118.18 490.31,-128.67 496.53,-125.48"/>
</g>
<!-- 9 -->
<g id="node9" class="node">
<title>9</title>
<text text-anchor="start" x="598" y="-99.8" font-family="Arial" font-weight="bold" font-size="14.00"> ≥ 8.5</text>
<path fill="#f8766d" fill-opacity="0.533333" stroke="transparent" d="M570,-27C570,-27 660,-27 660,-27 666,-27 672,-33 672,-39 672,-39 672,-79 672,-79 672,-85 666,-91 660,-91 660,-91 570,-91 570,-91 564,-91 558,-85 558,-79 558,-79 558,-39 558,-39 558,-33 564,-27 570,-27"/>
<text text-anchor="start" x="559" y="-88.4" font-family="Arial" font-size="2.00"> </text>
<text text-anchor="start" x="559" y="-82.4" font-family="Arial" font-size="7.00"> &#160;9</text>
<text text-anchor="start" x="573" y="-65.8" font-family="Arial" font-weight="bold" font-size="14.00">Predict 9.587</text>
<text text-anchor="start" x="591.5" y="-48.8" font-family="Arial" font-weight="bold" font-size="14.00">n = 127</text>
<text text-anchor="start" x="613.5" y="-30.8" font-family="Arial" font-size="9.00"> </text>
<path fill="none" stroke="#333333" d="M570,-27C570,-27 660,-27 660,-27 666,-27 672,-33 672,-39 672,-39 672,-79 672,-79 672,-85 666,-91 660,-91 660,-91 570,-91 570,-91 564,-91 558,-85 558,-79 558,-79 558,-39 558,-39 558,-33 564,-27 570,-27"/>
<text text-anchor="start" x="613" y="-12.8" font-family="Arial" font-weight="bold" font-size="14.00"> </text>
</g>
<!-- 7&#45;&gt;9 -->
<g id="edge8" class="edge">
<title>7&#45;&gt;9</title>
<path fill="none" stroke="#888888" d="M566.93,-153.67C571.37,-145.03 575.96,-136.07 580.48,-127.27"/>
<polygon fill="#888888" stroke="#888888" points="583.69,-128.67 585.15,-118.18 577.47,-125.48 583.69,-128.67"/>
</g>
</g>
</svg>
