<?xml version="1.0" encoding="UTF-8" standalone="no"?>
<!DOCTYPE svg PUBLIC "-//W3C//DTD SVG 1.1//EN"
 "http://www.w3.org/Graphics/SVG/1.1/DTD/svg11.dtd">
<!-- Generated by graphviz version 2.50.0 (20211204.2007)
 -->
<!-- Pages: 1 -->
<svg width="898pt" height="742pt"
 viewBox="0.00 0.00 898.00 742.00" xmlns="http://www.w3.org/2000/svg" xmlns:xlink="http://www.w3.org/1999/xlink">
<g id="graph0" class="graph" transform="scale(1 1) rotate(0) translate(4 738)">
<polygon fill="white" stroke="transparent" points="-4,4 -4,-738 894,-738 894,4 -4,4"/>
<!-- 1 -->
<g id="node1" class="node">
<title>1</title>
<text text-anchor="start" x="520" y="-715.8" font-family="Arial" font-weight="bold" font-size="14.00"> </text>
<path fill="#ebebeb" stroke="transparent" d="M480,-643C480,-643 564,-643 564,-643 570,-643 576,-649 576,-655 576,-655 576,-695 576,-695 576,-701 570,-707 564,-707 564,-707 480,-707 480,-707 474,-707 468,-701 468,-695 468,-695 468,-655 468,-655 468,-649 474,-643 480,-643"/>
<text text-anchor="start" x="469" y="-704.4" font-family="Arial" font-size="2.00"> </text>
<text text-anchor="start" x="469" y="-698.4" font-family="Arial" font-size="7.00"> &#160;1</text>
<text text-anchor="start" x="483" y="-681.8" font-family="Arial" font-weight="bold" font-size="14.00">Mean: 28.76</text>
<text text-anchor="start" x="498.5" y="-664.8" font-family="Arial" font-weight="bold" font-size="14.00">n = 168</text>
<text text-anchor="start" x="520.5" y="-646.8" font-family="Arial" font-size="9.00"> </text>
<path fill="none" stroke="#333333" d="M480,-643C480,-643 564,-643 564,-643 570,-643 576,-649 576,-655 576,-655 576,-695 576,-695 576,-701 570,-707 564,-707 564,-707 480,-707 480,-707 474,-707 468,-701 468,-695 468,-695 468,-655 468,-655 468,-649 474,-643 480,-643"/>
<text text-anchor="start" x="507.5" y="-628.8" font-family="Arial" font-weight="bold" font-size="14.00">time</text>
</g>
<!-- 2 -->
<g id="node2" class="node">
<title>2</title>
<text text-anchor="start" x="420" y="-561.8" font-family="Arial" font-weight="bold" font-size="14.00"> &lt; 11.5</text>
<text text-anchor="start" x="373" y="-517.3" font-family="Arial" font-size="14.00"> &#160;&#160;</text>
<path fill="#ebebeb" stroke="transparent" d="M399,-489C399,-489 483,-489 483,-489 489,-489 495,-495 495,-501 495,-501 495,-541 495,-541 495,-547 489,-553 483,-553 483,-553 399,-553 399,-553 393,-553 387,-547 387,-541 387,-541 387,-501 387,-501 387,-495 393,-489 399,-489"/>
<text text-anchor="start" x="388" y="-550.4" font-family="Arial" font-size="2.00"> </text>
<text text-anchor="start" x="388" y="-544.4" font-family="Arial" font-size="7.00"> &#160;2</text>
<text text-anchor="start" x="402" y="-527.8" font-family="Arial" font-weight="bold" font-size="14.00">Mean: 28.06</text>
<text text-anchor="start" x="421" y="-510.8" font-family="Arial" font-weight="bold" font-size="14.00">n = 84</text>
<text text-anchor="start" x="439.5" y="-492.8" font-family="Arial" font-size="9.00"> </text>
<path fill="none" stroke="#333333" d="M399,-489C399,-489 483,-489 483,-489 489,-489 495,-495 495,-501 495,-501 495,-541 495,-541 495,-547 489,-553 483,-553 483,-553 399,-553 399,-553 393,-553 387,-547 387,-541 387,-541 387,-501 387,-501 387,-495 393,-489 399,-489"/>
<text text-anchor="start" x="497" y="-517.3" font-family="Arial" font-size="14.00"> &#160;&#160;</text>
<text text-anchor="start" x="388" y="-474.8" font-family="Arial" font-weight="bold" font-size="14.00">prev_168_inflow</text>
</g>
<!-- 1&#45;&gt;2 -->
<g id="edge1" class="edge">
<title>1&#45;&gt;2</title>
<path fill="none" stroke="#888888" d="M490.91,-615.67C486.31,-607.03 481.54,-598.07 476.85,-589.27"/>
<polygon fill="#888888" stroke="#888888" points="479.79,-587.36 472,-580.18 473.62,-590.65 479.79,-587.36"/>
</g>
<!-- 11 -->
<g id="node3" class="node">
<title>11</title>
<text text-anchor="start" x="647.5" y="-561.8" font-family="Arial" font-weight="bold" font-size="14.00"> ≥ 11.5</text>
<path fill="#ebebeb" stroke="transparent" d="M626,-489C626,-489 710,-489 710,-489 716,-489 722,-495 722,-501 722,-501 722,-541 722,-541 722,-547 716,-553 710,-553 710,-553 626,-553 626,-553 620,-553 614,-547 614,-541 614,-541 614,-501 614,-501 614,-495 620,-489 626,-489"/>
<text text-anchor="start" x="615" y="-550.4" font-family="Arial" font-size="2.00"> </text>
<text text-anchor="start" x="615" y="-544.4" font-family="Arial" font-size="7.00"> &#160;11</text>
<text text-anchor="start" x="629" y="-527.8" font-family="Arial" font-weight="bold" font-size="14.00">Mean: 29.46</text>
<text text-anchor="start" x="648" y="-510.8" font-family="Arial" font-weight="bold" font-size="14.00">n = 84</text>
<text text-anchor="start" x="666.5" y="-492.8" font-family="Arial" font-size="9.00"> </text>
<path fill="none" stroke="#333333" d="M626,-489C626,-489 710,-489 710,-489 716,-489 722,-495 722,-501 722,-501 722,-541 722,-541 722,-547 716,-553 710,-553 710,-553 626,-553 626,-553 620,-553 614,-547 614,-541 614,-541 614,-501 614,-501 614,-495 620,-489 626,-489"/>
<text text-anchor="start" x="625.5" y="-474.8" font-family="Arial" font-weight="bold" font-size="14.00">day_of_week</text>
</g>
<!-- 1&#45;&gt;11 -->
<g id="edge2" class="edge">
<title>1&#45;&gt;11</title>
<path fill="none" stroke="#888888" d="M578.03,-615.67C586.85,-606.49 596.02,-596.94 604.98,-587.6"/>
<polygon fill="#888888" stroke="#888888" points="607.72,-589.81 612.12,-580.18 602.67,-584.96 607.72,-589.81"/>
</g>
<!-- 3 -->
<g id="node4" class="node">
<title>3</title>
<text text-anchor="start" x="192" y="-407.8" font-family="Arial" font-weight="bold" font-size="14.00"> &lt; 31.76</text>
<text text-anchor="start" x="153" y="-363.3" font-family="Arial" font-size="14.00"> &#160;</text>
<path fill="#ebebeb" stroke="transparent" d="M175,-335C175,-335 259,-335 259,-335 265,-335 271,-341 271,-347 271,-347 271,-387 271,-387 271,-393 265,-399 259,-399 259,-399 175,-399 175,-399 169,-399 163,-393 163,-387 163,-387 163,-347 163,-347 163,-341 169,-335 175,-335"/>
<text text-anchor="start" x="164" y="-396.4" font-family="Arial" font-size="2.00"> </text>
<text text-anchor="start" x="164" y="-390.4" font-family="Arial" font-size="7.00"> &#160;3</text>
<text text-anchor="start" x="178" y="-373.8" font-family="Arial" font-weight="bold" font-size="14.00">Mean: 25.14</text>
<text text-anchor="start" x="197" y="-356.8" font-family="Arial" font-weight="bold" font-size="14.00">n = 59</text>
<text text-anchor="start" x="215.5" y="-338.8" font-family="Arial" font-size="9.00"> </text>
<path fill="none" stroke="#333333" d="M175,-335C175,-335 259,-335 259,-335 265,-335 271,-341 271,-347 271,-347 271,-387 271,-387 271,-393 265,-399 259,-399 259,-399 175,-399 175,-399 169,-399 163,-393 163,-387 163,-387 163,-347 163,-347 163,-341 169,-335 175,-335"/>
<text text-anchor="start" x="273" y="-363.3" font-family="Arial" font-size="14.00"> &#160;</text>
<text text-anchor="start" x="167.5" y="-320.8" font-family="Arial" font-weight="bold" font-size="14.00">prev_24_inflow</text>
</g>
<!-- 2&#45;&gt;3 -->
<g id="edge3" class="edge">
<title>2&#45;&gt;3</title>
<path fill="none" stroke="#888888" d="M362.97,-467.05C342.55,-453.2 320.47,-438.21 299.81,-424.19"/>
<polygon fill="#888888" stroke="#888888" points="301.6,-421.18 291.36,-418.46 297.67,-426.97 301.6,-421.18"/>
</g>
<!-- 6 -->
<g id="node5" class="node">
<title>6</title>
<text text-anchor="start" x="416.5" y="-407.8" font-family="Arial" font-weight="bold" font-size="14.00"> ≥ 31.76</text>
<path fill="#ebebeb" stroke="transparent" d="M399,-335C399,-335 483,-335 483,-335 489,-335 495,-341 495,-347 495,-347 495,-387 495,-387 495,-393 489,-399 483,-399 483,-399 399,-399 399,-399 393,-399 387,-393 387,-387 387,-387 387,-347 387,-347 387,-341 393,-335 399,-335"/>
<text text-anchor="start" x="388" y="-396.4" font-family="Arial" font-size="2.00"> </text>
<text text-anchor="start" x="388" y="-390.4" font-family="Arial" font-size="7.00"> &#160;6</text>
<text text-anchor="start" x="402" y="-373.8" font-family="Arial" font-weight="bold" font-size="14.00">Mean: 34.94</text>
<text text-anchor="start" x="421" y="-356.8" font-family="Arial" font-weight="bold" font-size="14.00">n = 25</text>
<text text-anchor="start" x="439.5" y="-338.8" font-family="Arial" font-size="9.00"> </text>
<path fill="none" stroke="#333333" d="M399,-335C399,-335 483,-335 483,-335 489,-335 495,-341 495,-347 495,-347 495,-387 495,-387 495,-393 489,-399 483,-399 483,-399 399,-399 399,-399 393,-399 387,-393 387,-387 387,-387 387,-347 387,-347 387,-341 393,-335 399,-335"/>
<text text-anchor="start" x="412" y="-320.8" font-family="Arial" font-weight="bold" font-size="14.00">air_temp</text>
</g>
<!-- 2&#45;&gt;6 -->
<g id="edge4" class="edge">
<title>2&#45;&gt;6</title>
<path fill="none" stroke="#888888" d="M441,-461.67C441,-453.39 441,-444.83 441,-436.38"/>
<polygon fill="#888888" stroke="#888888" points="444.5,-436.18 441,-426.18 437.5,-436.18 444.5,-436.18"/>
</g>
<!-- 12 -->
<g id="node12" class="node">
<title>12</title>
<text text-anchor="start" x="650.5" y="-407.8" font-family="Arial" font-weight="bold" font-size="14.00"> &lt; 5.5</text>
<path fill="#ebebeb" stroke="transparent" d="M626,-335C626,-335 710,-335 710,-335 716,-335 722,-341 722,-347 722,-347 722,-387 722,-387 722,-393 716,-399 710,-399 710,-399 626,-399 626,-399 620,-399 614,-393 614,-387 614,-387 614,-347 614,-347 614,-341 620,-335 626,-335"/>
<text text-anchor="start" x="615" y="-396.4" font-family="Arial" font-size="2.00"> </text>
<text text-anchor="start" x="615" y="-390.4" font-family="Arial" font-size="7.00"> &#160;12</text>
<text text-anchor="start" x="629" y="-373.8" font-family="Arial" font-weight="bold" font-size="14.00">Mean: 30.72</text>
<text text-anchor="start" x="648" y="-356.8" font-family="Arial" font-weight="bold" font-size="14.00">n = 60</text>
<text text-anchor="start" x="666.5" y="-338.8" font-family="Arial" font-size="9.00"> </text>
<path fill="none" stroke="#333333" d="M626,-335C626,-335 710,-335 710,-335 716,-335 722,-341 722,-347 722,-347 722,-387 722,-387 722,-393 716,-399 710,-399 710,-399 626,-399 626,-399 620,-399 614,-393 614,-387 614,-387 614,-347 614,-347 614,-341 620,-335 626,-335"/>
<text text-anchor="start" x="653.5" y="-320.8" font-family="Arial" font-weight="bold" font-size="14.00">time</text>
</g>
<!-- 11&#45;&gt;12 -->
<g id="edge11" class="edge">
<title>11&#45;&gt;12</title>
<path fill="none" stroke="#888888" d="M668,-461.67C668,-453.39 668,-444.83 668,-436.38"/>
<polygon fill="#888888" stroke="#888888" points="671.5,-436.18 668,-426.18 664.5,-436.18 671.5,-436.18"/>
</g>
<!-- 17 -->
<g id="node13" class="node">
<title>17</title>
<text text-anchor="start" x="804" y="-407.8" font-family="Arial" font-weight="bold" font-size="14.00"> ≥ 5.5</text>
<path fill="#f8766d" fill-opacity="0.807843" stroke="transparent" d="M776,-335C776,-335 866,-335 866,-335 872,-335 878,-341 878,-347 878,-347 878,-387 878,-387 878,-393 872,-399 866,-399 866,-399 776,-399 776,-399 770,-399 764,-393 764,-387 764,-387 764,-347 764,-347 764,-341 770,-335 776,-335"/>
<text text-anchor="start" x="765" y="-396.4" font-family="Arial" font-size="2.00"> </text>
<text text-anchor="start" x="765" y="-390.4" font-family="Arial" font-size="7.00"> &#160;17</text>
<text text-anchor="start" x="779" y="-373.8" font-family="Arial" font-weight="bold" font-size="14.00">Predict 26.31</text>
<text text-anchor="start" x="801" y="-356.8" font-family="Arial" font-weight="bold" font-size="14.00">n = 24</text>
<text text-anchor="start" x="819.5" y="-338.8" font-family="Arial" font-size="9.00"> </text>
<path fill="none" stroke="#333333" d="M776,-335C776,-335 866,-335 866,-335 872,-335 878,-341 878,-347 878,-347 878,-387 878,-387 878,-393 872,-399 866,-399 866,-399 776,-399 776,-399 770,-399 764,-393 764,-387 764,-387 764,-347 764,-347 764,-341 770,-335 776,-335"/>
<text text-anchor="start" x="819" y="-320.8" font-family="Arial" font-weight="bold" font-size="14.00"> </text>
</g>
<!-- 11&#45;&gt;17 -->
<g id="edge12" class="edge">
<title>11&#45;&gt;17</title>
<path fill="none" stroke="#888888" d="M726.72,-461.67C736.05,-452.39 745.76,-442.75 755.24,-433.33"/>
<polygon fill="#888888" stroke="#888888" points="757.81,-435.71 762.44,-426.18 752.88,-430.74 757.81,-435.71"/>
</g>
<!-- 4 -->
<g id="node6" class="node">
<title>4</title>
<text text-anchor="start" x="40" y="-253.8" font-family="Arial" font-weight="bold" font-size="14.00"> &lt; 26.33</text>
<path fill="#f8766d" fill-opacity="0.874510" stroke="transparent" d="M24,-181C24,-181 106,-181 106,-181 112,-181 118,-187 118,-193 118,-193 118,-233 118,-233 118,-239 112,-245 106,-245 106,-245 24,-245 24,-245 18,-245 12,-239 12,-233 12,-233 12,-193 12,-193 12,-187 18,-181 24,-181"/>
<text text-anchor="start" x="13" y="-242.4" font-family="Arial" font-size="2.00"> </text>
<text text-anchor="start" x="13" y="-236.4" font-family="Arial" font-size="7.00"> &#160;4</text>
<text text-anchor="start" x="27" y="-219.8" font-family="Arial" font-weight="bold" font-size="14.00">Predict 23.9</text>
<text text-anchor="start" x="45" y="-202.8" font-family="Arial" font-weight="bold" font-size="14.00">n = 44</text>
<text text-anchor="start" x="63.5" y="-184.8" font-family="Arial" font-size="9.00"> </text>
<path fill="none" stroke="#333333" d="M24,-181C24,-181 106,-181 106,-181 112,-181 118,-187 118,-193 118,-193 118,-233 118,-233 118,-239 112,-245 106,-245 106,-245 24,-245 24,-245 18,-245 12,-239 12,-233 12,-233 12,-193 12,-193 12,-187 18,-181 24,-181"/>
<text text-anchor="start" x="63" y="-166.8" font-family="Arial" font-weight="bold" font-size="14.00"> </text>
</g>
<!-- 3&#45;&gt;4 -->
<g id="edge5" class="edge">
<title>3&#45;&gt;4</title>
<path fill="none" stroke="#888888" d="M158.67,-307.67C149.39,-298.39 139.75,-288.75 130.33,-279.33"/>
<polygon fill="#888888" stroke="#888888" points="132.72,-276.77 123.18,-272.18 127.77,-281.72 132.72,-276.77"/>
</g>
<!-- 5 -->
<g id="node7" class="node">
<title>5</title>
<text text-anchor="start" x="192.5" y="-253.8" font-family="Arial" font-weight="bold" font-size="14.00"> ≥ 26.33</text>
<path fill="#f8766d" fill-opacity="0.741176" stroke="transparent" d="M172,-181C172,-181 262,-181 262,-181 268,-181 274,-187 274,-193 274,-193 274,-233 274,-233 274,-239 268,-245 262,-245 262,-245 172,-245 172,-245 166,-245 160,-239 160,-233 160,-233 160,-193 160,-193 160,-187 166,-181 172,-181"/>
<text text-anchor="start" x="161" y="-242.4" font-family="Arial" font-size="2.00"> </text>
<text text-anchor="start" x="161" y="-236.4" font-family="Arial" font-size="7.00"> &#160;5</text>
<text text-anchor="start" x="175" y="-219.8" font-family="Arial" font-weight="bold" font-size="14.00">Predict 28.78</text>
<text text-anchor="start" x="197" y="-202.8" font-family="Arial" font-weight="bold" font-size="14.00">n = 15</text>
<text text-anchor="start" x="215.5" y="-184.8" font-family="Arial" font-size="9.00"> </text>
<path fill="none" stroke="#333333" d="M172,-181C172,-181 262,-181 262,-181 268,-181 274,-187 274,-193 274,-193 274,-233 274,-233 274,-239 268,-245 262,-245 262,-245 172,-245 172,-245 166,-245 160,-239 160,-233 160,-233 160,-193 160,-193 160,-187 166,-181 172,-181"/>
<text text-anchor="start" x="215" y="-166.8" font-family="Arial" font-weight="bold" font-size="14.00"> </text>
</g>
<!-- 3&#45;&gt;5 -->
<g id="edge6" class="edge">
<title>3&#45;&gt;5</title>
<path fill="none" stroke="#888888" d="M217,-307.67C217,-299.39 217,-290.83 217,-282.38"/>
<polygon fill="#888888" stroke="#888888" points="220.5,-282.18 217,-272.18 213.5,-282.18 220.5,-282.18"/>
</g>
<!-- 7 -->
<g id="node8" class="node">
<title>7</title>
<text text-anchor="start" x="341" y="-253.8" font-family="Arial" font-weight="bold" font-size="14.00"> &lt; 22.25</text>
<path fill="#ebebeb" stroke="transparent" d="M328,-181C328,-181 404,-181 404,-181 410,-181 416,-187 416,-193 416,-193 416,-233 416,-233 416,-239 410,-245 404,-245 404,-245 328,-245 328,-245 322,-245 316,-239 316,-233 316,-233 316,-193 316,-193 316,-187 322,-181 328,-181"/>
<text text-anchor="start" x="317" y="-242.4" font-family="Arial" font-size="2.00"> </text>
<text text-anchor="start" x="317" y="-236.4" font-family="Arial" font-size="7.00"> &#160;7</text>
<text text-anchor="start" x="331" y="-219.8" font-family="Arial" font-weight="bold" font-size="14.00">Mean: 40.3</text>
<text text-anchor="start" x="350" y="-202.8" font-family="Arial" font-weight="bold" font-size="14.00">n = 3</text>
<text text-anchor="start" x="364.5" y="-184.8" font-family="Arial" font-size="9.00"> </text>
<path fill="none" stroke="#333333" d="M328,-181C328,-181 404,-181 404,-181 410,-181 416,-187 416,-193 416,-193 416,-233 416,-233 416,-239 410,-245 404,-245 404,-245 328,-245 328,-245 322,-245 316,-239 316,-233 316,-233 316,-193 316,-193 316,-187 322,-181 328,-181"/>
<text text-anchor="start" x="351.5" y="-166.8" font-family="Arial" font-weight="bold" font-size="14.00">time</text>
</g>
<!-- 6&#45;&gt;7 -->
<g id="edge7" class="edge">
<title>6&#45;&gt;7</title>
<path fill="none" stroke="#888888" d="M412.22,-307.67C407.96,-299.03 403.54,-290.07 399.19,-281.27"/>
<polygon fill="#888888" stroke="#888888" points="402.27,-279.6 394.71,-272.18 395.99,-282.69 402.27,-279.6"/>
</g>
<!-- 10 -->
<g id="node9" class="node">
<title>10</title>
<text text-anchor="start" x="490.5" y="-253.8" font-family="Arial" font-weight="bold" font-size="14.00"> ≥ 22.25</text>
<path fill="#f8766d" fill-opacity="0.596078" stroke="transparent" d="M470,-181C470,-181 560,-181 560,-181 566,-181 572,-187 572,-193 572,-193 572,-233 572,-233 572,-239 566,-245 560,-245 560,-245 470,-245 470,-245 464,-245 458,-239 458,-233 458,-233 458,-193 458,-193 458,-187 464,-181 470,-181"/>
<text text-anchor="start" x="459" y="-242.4" font-family="Arial" font-size="2.00"> </text>
<text text-anchor="start" x="459" y="-236.4" font-family="Arial" font-size="7.00"> &#160;10</text>
<text text-anchor="start" x="473" y="-219.8" font-family="Arial" font-weight="bold" font-size="14.00">Predict 34.21</text>
<text text-anchor="start" x="495" y="-202.8" font-family="Arial" font-weight="bold" font-size="14.00">n = 22</text>
<text text-anchor="start" x="513.5" y="-184.8" font-family="Arial" font-size="9.00"> </text>
<path fill="none" stroke="#333333" d="M470,-181C470,-181 560,-181 560,-181 566,-181 572,-187 572,-193 572,-193 572,-233 572,-233 572,-239 566,-245 560,-245 560,-245 470,-245 470,-245 464,-245 458,-239 458,-233 458,-233 458,-193 458,-193 458,-187 464,-181 470,-181"/>
<text text-anchor="start" x="513" y="-166.8" font-family="Arial" font-weight="bold" font-size="14.00"> </text>
</g>
<!-- 6&#45;&gt;10 -->
<g id="edge8" class="edge">
<title>6&#45;&gt;10</title>
<path fill="none" stroke="#888888" d="M469.4,-307.67C473.6,-299.03 477.97,-290.07 482.25,-281.27"/>
<polygon fill="#888888" stroke="#888888" points="485.45,-282.7 486.68,-272.18 479.15,-279.64 485.45,-282.7"/>
</g>
<!-- 8 -->
<g id="node10" class="node">
<title>8</title>
<text text-anchor="start" x="228.5" y="-99.8" font-family="Arial" font-weight="bold" font-size="14.00"> &lt; 7.5</text>
<path fill="#f8766d" fill-opacity="0.533333" stroke="transparent" d="M201,-27C201,-27 291,-27 291,-27 297,-27 303,-33 303,-39 303,-39 303,-79 303,-79 303,-85 297,-91 291,-91 291,-91 201,-91 201,-91 195,-91 189,-85 189,-79 189,-79 189,-39 189,-39 189,-33 195,-27 201,-27"/>
<text text-anchor="start" x="190" y="-88.4" font-family="Arial" font-size="2.00"> </text>
<text text-anchor="start" x="190" y="-82.4" font-family="Arial" font-size="7.00"> &#160;8</text>
<text text-anchor="start" x="204" y="-65.8" font-family="Arial" font-weight="bold" font-size="14.00">Predict 36.39</text>
<text text-anchor="start" x="230" y="-48.8" font-family="Arial" font-weight="bold" font-size="14.00">n = 1</text>
<text text-anchor="start" x="244.5" y="-30.8" font-family="Arial" font-size="9.00"> </text>
<path fill="none" stroke="#333333" d="M201,-27C201,-27 291,-27 291,-27 297,-27 303,-33 303,-39 303,-39 303,-79 303,-79 303,-85 297,-91 291,-91 291,-91 201,-91 201,-91 195,-91 189,-85 189,-79 189,-79 189,-39 189,-39 189,-33 195,-27 201,-27"/>
<text text-anchor="start" x="244" y="-12.8" font-family="Arial" font-weight="bold" font-size="14.00"> </text>
</g>
<!-- 7&#45;&gt;8 -->
<g id="edge9" class="edge">
<title>7&#45;&gt;8</title>
<path fill="none" stroke="#888888" d="M319.95,-153.67C312.84,-144.67 305.46,-135.32 298.23,-126.16"/>
<polygon fill="#888888" stroke="#888888" points="300.87,-123.86 291.93,-118.18 295.38,-128.19 300.87,-123.86"/>
</g>
<!-- 9 -->
<g id="node11" class="node">
<title>9</title>
<text text-anchor="start" x="385" y="-99.8" font-family="Arial" font-weight="bold" font-size="14.00"> ≥ 7.5</text>
<path fill="#f8766d" fill-opacity="0.376471" stroke="transparent" d="M357,-27C357,-27 447,-27 447,-27 453,-27 459,-33 459,-39 459,-39 459,-79 459,-79 459,-85 453,-91 447,-91 447,-91 357,-91 357,-91 351,-91 345,-85 345,-79 345,-79 345,-39 345,-39 345,-33 351,-27 357,-27"/>
<text text-anchor="start" x="346" y="-88.4" font-family="Arial" font-size="2.00"> </text>
<text text-anchor="start" x="346" y="-82.4" font-family="Arial" font-size="7.00"> &#160;9</text>
<text text-anchor="start" x="360" y="-65.8" font-family="Arial" font-weight="bold" font-size="14.00">Predict 42.26</text>
<text text-anchor="start" x="386" y="-48.8" font-family="Arial" font-weight="bold" font-size="14.00">n = 2</text>
<text text-anchor="start" x="400.5" y="-30.8" font-family="Arial" font-size="9.00"> </text>
<path fill="none" stroke="#333333" d="M357,-27C357,-27 447,-27 447,-27 453,-27 459,-33 459,-39 459,-39 459,-79 459,-79 459,-85 453,-91 447,-91 447,-91 357,-91 357,-91 351,-91 345,-85 345,-79 345,-79 345,-39 345,-39 345,-33 351,-27 357,-27"/>
<text text-anchor="start" x="400" y="-12.8" font-family="Arial" font-weight="bold" font-size="14.00"> </text>
</g>
<!-- 7&#45;&gt;9 -->
<g id="edge10" class="edge">
<title>7&#45;&gt;9</title>
<path fill="none" stroke="#888888" d="M379.82,-153.67C381.8,-145.3 383.85,-136.64 385.87,-128.1"/>
<polygon fill="#888888" stroke="#888888" points="389.32,-128.71 388.22,-118.18 382.51,-127.1 389.32,-128.71"/>
</g>
<!-- 13 -->
<g id="node14" class="node">
<title>13</title>
<text text-anchor="start" x="646.5" y="-253.8" font-family="Arial" font-weight="bold" font-size="14.00"> &lt; 20.5</text>
<path fill="#ebebeb" stroke="transparent" d="M626,-181C626,-181 710,-181 710,-181 716,-181 722,-187 722,-193 722,-193 722,-233 722,-233 722,-239 716,-245 710,-245 710,-245 626,-245 626,-245 620,-245 614,-239 614,-233 614,-233 614,-193 614,-193 614,-187 620,-181 626,-181"/>
<text text-anchor="start" x="615" y="-242.4" font-family="Arial" font-size="2.00"> </text>
<text text-anchor="start" x="615" y="-236.4" font-family="Arial" font-size="7.00"> &#160;13</text>
<text text-anchor="start" x="629" y="-219.8" font-family="Arial" font-weight="bold" font-size="14.00">Mean: 31.61</text>
<text text-anchor="start" x="648" y="-202.8" font-family="Arial" font-weight="bold" font-size="14.00">n = 45</text>
<text text-anchor="start" x="666.5" y="-184.8" font-family="Arial" font-size="9.00"> </text>
<path fill="none" stroke="#333333" d="M626,-181C626,-181 710,-181 710,-181 716,-181 722,-187 722,-193 722,-193 722,-233 722,-233 722,-239 716,-245 710,-245 710,-245 626,-245 626,-245 620,-245 614,-239 614,-233 614,-233 614,-193 614,-193 614,-187 620,-181 626,-181"/>
<text text-anchor="start" x="653.5" y="-166.8" font-family="Arial" font-weight="bold" font-size="14.00">time</text>
</g>
<!-- 12&#45;&gt;13 -->
<g id="edge13" class="edge">
<title>12&#45;&gt;13</title>
<path fill="none" stroke="#888888" d="M668,-307.67C668,-299.39 668,-290.83 668,-282.38"/>
<polygon fill="#888888" stroke="#888888" points="671.5,-282.18 668,-272.18 664.5,-282.18 671.5,-282.18"/>
</g>
<!-- 16 -->
<g id="node15" class="node">
<title>16</title>
<text text-anchor="start" x="800" y="-253.8" font-family="Arial" font-weight="bold" font-size="14.00"> ≥ 20.5</text>
<path fill="#f8766d" fill-opacity="0.760784" stroke="transparent" d="M776,-181C776,-181 866,-181 866,-181 872,-181 878,-187 878,-193 878,-193 878,-233 878,-233 878,-239 872,-245 866,-245 866,-245 776,-245 776,-245 770,-245 764,-239 764,-233 764,-233 764,-193 764,-193 764,-187 770,-181 776,-181"/>
<text text-anchor="start" x="765" y="-242.4" font-family="Arial" font-size="2.00"> </text>
<text text-anchor="start" x="765" y="-236.4" font-family="Arial" font-size="7.00"> &#160;16</text>
<text text-anchor="start" x="779" y="-219.8" font-family="Arial" font-weight="bold" font-size="14.00">Predict 28.07</text>
<text text-anchor="start" x="801" y="-202.8" font-family="Arial" font-weight="bold" font-size="14.00">n = 15</text>
<text text-anchor="start" x="819.5" y="-184.8" font-family="Arial" font-size="9.00"> </text>
<path fill="none" stroke="#333333" d="M776,-181C776,-181 866,-181 866,-181 872,-181 878,-187 878,-193 878,-193 878,-233 878,-233 878,-239 872,-245 866,-245 866,-245 776,-245 776,-245 770,-245 764,-239 764,-233 764,-233 764,-193 764,-193 764,-187 770,-181 776,-181"/>
<text text-anchor="start" x="819" y="-166.8" font-family="Arial" font-weight="bold" font-size="14.00"> </text>
</g>
<!-- 12&#45;&gt;16 -->
<g id="edge14" class="edge">
<title>12&#45;&gt;16</title>
<path fill="none" stroke="#888888" d="M726.72,-307.67C736.05,-298.39 745.76,-288.75 755.24,-279.33"/>
<polygon fill="#888888" stroke="#888888" points="757.81,-281.71 762.44,-272.18 752.88,-276.74 757.81,-281.71"/>
</g>
<!-- 14 -->
<g id="node16" class="node">
<title>14</title>
<text text-anchor="start" x="609.5" y="-99.8" font-family="Arial" font-weight="bold" font-size="14.00"> &lt; 15.5</text>
<path fill="#f8766d" fill-opacity="0.639216" stroke="transparent" d="M586,-27C586,-27 676,-27 676,-27 682,-27 688,-33 688,-39 688,-39 688,-79 688,-79 688,-85 682,-91 676,-91 676,-91 586,-91 586,-91 580,-91 574,-85 574,-79 574,-79 574,-39 574,-39 574,-33 580,-27 586,-27"/>
<text text-anchor="start" x="575" y="-88.4" font-family="Arial" font-size="2.00"> </text>
<text text-anchor="start" x="575" y="-82.4" font-family="Arial" font-size="7.00"> &#160;14</text>
<text text-anchor="start" x="589" y="-65.8" font-family="Arial" font-weight="bold" font-size="14.00">Predict 32.56</text>
<text text-anchor="start" x="611" y="-48.8" font-family="Arial" font-weight="bold" font-size="14.00">n = 20</text>
<text text-anchor="start" x="629.5" y="-30.8" font-family="Arial" font-size="9.00"> </text>
<path fill="none" stroke="#333333" d="M586,-27C586,-27 676,-27 676,-27 682,-27 688,-33 688,-39 688,-39 688,-79 688,-79 688,-85 682,-91 676,-91 676,-91 586,-91 586,-91 580,-91 574,-85 574,-79 574,-79 574,-39 574,-39 574,-33 580,-27 586,-27"/>
<text text-anchor="start" x="629" y="-12.8" font-family="Arial" font-weight="bold" font-size="14.00"> </text>
</g>
<!-- 13&#45;&gt;14 -->
<g id="edge15" class="edge">
<title>13&#45;&gt;14</title>
<path fill="none" stroke="#888888" d="M653.8,-153.67C651.76,-145.3 649.66,-136.64 647.58,-128.1"/>
<polygon fill="#888888" stroke="#888888" points="650.93,-127.06 645.16,-118.18 644.13,-128.72 650.93,-127.06"/>
</g>
<!-- 15 -->
<g id="node17" class="node">
<title>15</title>
<text text-anchor="start" x="766" y="-99.8" font-family="Arial" font-weight="bold" font-size="14.00"> ≥ 15.5</text>
<path fill="#f8766d" fill-opacity="0.686275" stroke="transparent" d="M742,-27C742,-27 832,-27 832,-27 838,-27 844,-33 844,-39 844,-39 844,-79 844,-79 844,-85 838,-91 832,-91 832,-91 742,-91 742,-91 736,-91 730,-85 730,-79 730,-79 730,-39 730,-39 730,-33 736,-27 742,-27"/>
<text text-anchor="start" x="731" y="-88.4" font-family="Arial" font-size="2.00"> </text>
<text text-anchor="start" x="731" y="-82.4" font-family="Arial" font-size="7.00"> &#160;15</text>
<text text-anchor="start" x="745" y="-65.8" font-family="Arial" font-weight="bold" font-size="14.00">Predict 30.84</text>
<text text-anchor="start" x="767" y="-48.8" font-family="Arial" font-weight="bold" font-size="14.00">n = 25</text>
<text text-anchor="start" x="785.5" y="-30.8" font-family="Arial" font-size="9.00"> </text>
<path fill="none" stroke="#333333" d="M742,-27C742,-27 832,-27 832,-27 838,-27 844,-33 844,-39 844,-39 844,-79 844,-79 844,-85 838,-91 832,-91 832,-91 742,-91 742,-91 736,-91 730,-85 730,-79 730,-79 730,-39 730,-39 730,-33 736,-27 742,-27"/>
<text text-anchor="start" x="785" y="-12.8" font-family="Arial" font-weight="bold" font-size="14.00"> </text>
</g>
<!-- 13&#45;&gt;15 -->
<g id="edge16" class="edge">
<title>13&#45;&gt;15</title>
<path fill="none" stroke="#888888" d="M713.67,-153.67C720.71,-144.67 728.04,-135.32 735.2,-126.16"/>
<polygon fill="#888888" stroke="#888888" points="738.05,-128.21 741.45,-118.18 732.53,-123.89 738.05,-128.21"/>
</g>
</g>
</svg>
