<?xml version="1.0" encoding="UTF-8" standalone="no"?>
<!DOCTYPE svg PUBLIC "-//W3C//DTD SVG 1.1//EN"
 "http://www.w3.org/Graphics/SVG/1.1/DTD/svg11.dtd">
<!-- Generated by graphviz version 2.50.0 (20211204.2007)
 -->
<!-- Pages: 1 -->
<svg width="1089pt" height="742pt"
 viewBox="0.00 0.00 1089.00 742.00" xmlns="http://www.w3.org/2000/svg" xmlns:xlink="http://www.w3.org/1999/xlink">
<g id="graph0" class="graph" transform="scale(1 1) rotate(0) translate(4 738)">
<polygon fill="white" stroke="transparent" points="-4,4 -4,-738 1085,-738 1085,4 -4,4"/>
<!-- 1 -->
<g id="node1" class="node">
<title>1</title>
<text text-anchor="start" x="621" y="-715.8" font-family="Arial" font-weight="bold" font-size="14.00"> </text>
<path fill="#ebebeb" stroke="transparent" d="M581,-643C581,-643 665,-643 665,-643 671,-643 677,-649 677,-655 677,-655 677,-695 677,-695 677,-701 671,-707 665,-707 665,-707 581,-707 581,-707 575,-707 569,-701 569,-695 569,-695 569,-655 569,-655 569,-649 575,-643 581,-643"/>
<text text-anchor="start" x="570" y="-704.4" font-family="Arial" font-size="2.00"> </text>
<text text-anchor="start" x="570" y="-698.4" font-family="Arial" font-size="7.00"> &#160;1</text>
<text text-anchor="start" x="584" y="-681.8" font-family="Arial" font-weight="bold" font-size="14.00">Mean: 28.76</text>
<text text-anchor="start" x="599.5" y="-664.8" font-family="Arial" font-weight="bold" font-size="14.00">n = 168</text>
<text text-anchor="start" x="621.5" y="-646.8" font-family="Arial" font-size="9.00"> </text>
<path fill="none" stroke="#333333" d="M581,-643C581,-643 665,-643 665,-643 671,-643 677,-649 677,-655 677,-655 677,-695 677,-695 677,-701 671,-707 665,-707 665,-707 581,-707 581,-707 575,-707 569,-701 569,-695 569,-695 569,-655 569,-655 569,-649 575,-643 581,-643"/>
<text text-anchor="start" x="608.5" y="-628.8" font-family="Arial" font-weight="bold" font-size="14.00">time</text>
</g>
<!-- 2 -->
<g id="node2" class="node">
<title>2</title>
<text text-anchor="start" x="520.5" y="-561.8" font-family="Arial" font-weight="bold" font-size="14.00"> &lt; 14.5</text>
<text text-anchor="start" x="474" y="-517.3" font-family="Arial" font-size="14.00"> &#160;&#160;</text>
<path fill="#ebebeb" stroke="transparent" d="M500,-489C500,-489 584,-489 584,-489 590,-489 596,-495 596,-501 596,-501 596,-541 596,-541 596,-547 590,-553 584,-553 584,-553 500,-553 500,-553 494,-553 488,-547 488,-541 488,-541 488,-501 488,-501 488,-495 494,-489 500,-489"/>
<text text-anchor="start" x="489" y="-550.4" font-family="Arial" font-size="2.00"> </text>
<text text-anchor="start" x="489" y="-544.4" font-family="Arial" font-size="7.00"> &#160;2</text>
<text text-anchor="start" x="503" y="-527.8" font-family="Arial" font-weight="bold" font-size="14.00">Mean: 28.63</text>
<text text-anchor="start" x="518.5" y="-510.8" font-family="Arial" font-weight="bold" font-size="14.00">n = 105</text>
<text text-anchor="start" x="540.5" y="-492.8" font-family="Arial" font-size="9.00"> </text>
<path fill="none" stroke="#333333" d="M500,-489C500,-489 584,-489 584,-489 590,-489 596,-495 596,-501 596,-501 596,-541 596,-541 596,-547 590,-553 584,-553 584,-553 500,-553 500,-553 494,-553 488,-547 488,-541 488,-541 488,-501 488,-501 488,-495 494,-489 500,-489"/>
<text text-anchor="start" x="598" y="-517.3" font-family="Arial" font-size="14.00"> &#160;&#160;</text>
<text text-anchor="start" x="489" y="-474.8" font-family="Arial" font-weight="bold" font-size="14.00">prev_168_inflow</text>
</g>
<!-- 1&#45;&gt;2 -->
<g id="edge1" class="edge">
<title>1&#45;&gt;2</title>
<path fill="none" stroke="#888888" d="M591.91,-615.67C587.31,-607.03 582.54,-598.07 577.85,-589.27"/>
<polygon fill="#888888" stroke="#888888" points="580.79,-587.36 573,-580.18 574.62,-590.65 580.79,-587.36"/>
</g>
<!-- 15 -->
<g id="node3" class="node">
<title>15</title>
<text text-anchor="start" x="683" y="-561.8" font-family="Arial" font-weight="bold" font-size="14.00"> ≥ 14.5</text>
<path fill="#ebebeb" stroke="transparent" d="M662,-489C662,-489 746,-489 746,-489 752,-489 758,-495 758,-501 758,-501 758,-541 758,-541 758,-547 752,-553 746,-553 746,-553 662,-553 662,-553 656,-553 650,-547 650,-541 650,-541 650,-501 650,-501 650,-495 656,-489 662,-489"/>
<text text-anchor="start" x="651" y="-550.4" font-family="Arial" font-size="2.00"> </text>
<text text-anchor="start" x="651" y="-544.4" font-family="Arial" font-size="7.00"> &#160;15</text>
<text text-anchor="start" x="665" y="-527.8" font-family="Arial" font-weight="bold" font-size="14.00">Mean: 28.98</text>
<text text-anchor="start" x="684" y="-510.8" font-family="Arial" font-weight="bold" font-size="14.00">n = 63</text>
<text text-anchor="start" x="702.5" y="-492.8" font-family="Arial" font-size="9.00"> </text>
<path fill="none" stroke="#333333" d="M662,-489C662,-489 746,-489 746,-489 752,-489 758,-495 758,-501 758,-501 758,-541 758,-541 758,-547 752,-553 746,-553 746,-553 662,-553 662,-553 656,-553 650,-547 650,-541 650,-541 650,-501 650,-501 650,-495 656,-489 662,-489"/>
<text text-anchor="start" x="674.5" y="-474.8" font-family="Arial" font-weight="bold" font-size="14.00">day_type</text>
</g>
<!-- 1&#45;&gt;15 -->
<g id="edge2" class="edge">
<title>1&#45;&gt;15</title>
<path fill="none" stroke="#888888" d="M654.09,-615.67C658.69,-607.03 663.46,-598.07 668.15,-589.27"/>
<polygon fill="#888888" stroke="#888888" points="671.38,-590.65 673,-580.18 665.21,-587.36 671.38,-590.65"/>
</g>
<!-- 3 -->
<g id="node4" class="node">
<title>3</title>
<text text-anchor="start" x="209" y="-407.8" font-family="Arial" font-weight="bold" font-size="14.00"> &lt; 31.82</text>
<path fill="#ebebeb" stroke="transparent" d="M192,-335C192,-335 276,-335 276,-335 282,-335 288,-341 288,-347 288,-347 288,-387 288,-387 288,-393 282,-399 276,-399 276,-399 192,-399 192,-399 186,-399 180,-393 180,-387 180,-387 180,-347 180,-347 180,-341 186,-335 192,-335"/>
<text text-anchor="start" x="181" y="-396.4" font-family="Arial" font-size="2.00"> </text>
<text text-anchor="start" x="181" y="-390.4" font-family="Arial" font-size="7.00"> &#160;3</text>
<text text-anchor="start" x="195" y="-373.8" font-family="Arial" font-weight="bold" font-size="14.00">Mean: 25.28</text>
<text text-anchor="start" x="214" y="-356.8" font-family="Arial" font-weight="bold" font-size="14.00">n = 65</text>
<text text-anchor="start" x="232.5" y="-338.8" font-family="Arial" font-size="9.00"> </text>
<path fill="none" stroke="#333333" d="M192,-335C192,-335 276,-335 276,-335 282,-335 288,-341 288,-347 288,-347 288,-387 288,-387 288,-393 282,-399 276,-399 276,-399 192,-399 192,-399 186,-399 180,-393 180,-387 180,-387 180,-347 180,-347 180,-341 186,-335 192,-335"/>
<text text-anchor="start" x="219.5" y="-320.8" font-family="Arial" font-weight="bold" font-size="14.00">time</text>
</g>
<!-- 2&#45;&gt;3 -->
<g id="edge3" class="edge">
<title>2&#45;&gt;3</title>
<path fill="none" stroke="#888888" d="M463.88,-481.45C416.43,-458.03 356.17,-428.29 309.25,-405.13"/>
<polygon fill="#888888" stroke="#888888" points="310.56,-401.88 300.05,-400.59 307.47,-408.16 310.56,-401.88"/>
</g>
<!-- 8 -->
<g id="node5" class="node">
<title>8</title>
<text text-anchor="start" x="520.5" y="-407.8" font-family="Arial" font-weight="bold" font-size="14.00"> ≥ 31.82</text>
<path fill="#ebebeb" stroke="transparent" d="M503,-335C503,-335 587,-335 587,-335 593,-335 599,-341 599,-347 599,-347 599,-387 599,-387 599,-393 593,-399 587,-399 587,-399 503,-399 503,-399 497,-399 491,-393 491,-387 491,-387 491,-347 491,-347 491,-341 497,-335 503,-335"/>
<text text-anchor="start" x="492" y="-396.4" font-family="Arial" font-size="2.00"> </text>
<text text-anchor="start" x="492" y="-390.4" font-family="Arial" font-size="7.00"> &#160;8</text>
<text text-anchor="start" x="506" y="-373.8" font-family="Arial" font-weight="bold" font-size="14.00">Mean: 34.08</text>
<text text-anchor="start" x="525" y="-356.8" font-family="Arial" font-weight="bold" font-size="14.00">n = 40</text>
<text text-anchor="start" x="543.5" y="-338.8" font-family="Arial" font-size="9.00"> </text>
<path fill="none" stroke="#333333" d="M503,-335C503,-335 587,-335 587,-335 593,-335 599,-341 599,-347 599,-347 599,-387 599,-387 599,-393 593,-399 587,-399 587,-399 503,-399 503,-399 497,-399 491,-393 491,-387 491,-387 491,-347 491,-347 491,-341 497,-335 503,-335"/>
<text text-anchor="start" x="516" y="-320.8" font-family="Arial" font-weight="bold" font-size="14.00">air_temp</text>
</g>
<!-- 2&#45;&gt;8 -->
<g id="edge4" class="edge">
<title>2&#45;&gt;8</title>
<path fill="none" stroke="#888888" d="M543.15,-461.67C543.31,-453.39 543.48,-444.83 543.65,-436.38"/>
<polygon fill="#888888" stroke="#888888" points="547.15,-436.24 543.85,-426.18 540.16,-436.11 547.15,-436.24"/>
</g>
<!-- 16 -->
<g id="node16" class="node">
<title>16</title>
<text text-anchor="start" x="685.5" y="-407.8" font-family="Arial" font-weight="bold" font-size="14.00"> &lt; 0.5</text>
<path fill="#f8766d" fill-opacity="0.807843" stroke="transparent" d="M658,-335C658,-335 748,-335 748,-335 754,-335 760,-341 760,-347 760,-347 760,-387 760,-387 760,-393 754,-399 748,-399 748,-399 658,-399 658,-399 652,-399 646,-393 646,-387 646,-387 646,-347 646,-347 646,-341 652,-335 658,-335"/>
<text text-anchor="start" x="647" y="-396.4" font-family="Arial" font-size="2.00"> </text>
<text text-anchor="start" x="647" y="-390.4" font-family="Arial" font-size="7.00"> &#160;16</text>
<text text-anchor="start" x="661" y="-373.8" font-family="Arial" font-weight="bold" font-size="14.00">Predict 26.22</text>
<text text-anchor="start" x="683" y="-356.8" font-family="Arial" font-weight="bold" font-size="14.00">n = 18</text>
<text text-anchor="start" x="701.5" y="-338.8" font-family="Arial" font-size="9.00"> </text>
<path fill="none" stroke="#333333" d="M658,-335C658,-335 748,-335 748,-335 754,-335 760,-341 760,-347 760,-347 760,-387 760,-387 760,-393 754,-399 748,-399 748,-399 658,-399 658,-399 652,-399 646,-393 646,-387 646,-387 646,-347 646,-347 646,-341 652,-335 658,-335"/>
<text text-anchor="start" x="701" y="-320.8" font-family="Arial" font-weight="bold" font-size="14.00"> </text>
</g>
<!-- 15&#45;&gt;16 -->
<g id="edge15" class="edge">
<title>15&#45;&gt;16</title>
<path fill="none" stroke="#888888" d="M703.62,-461.67C703.56,-453.39 703.51,-444.83 703.45,-436.38"/>
<polygon fill="#888888" stroke="#888888" points="706.95,-436.15 703.38,-426.18 699.95,-436.2 706.95,-436.15"/>
</g>
<!-- 17 -->
<g id="node17" class="node">
<title>17</title>
<text text-anchor="start" x="839" y="-407.8" font-family="Arial" font-weight="bold" font-size="14.00"> ≥ 0.5</text>
<path fill="#ebebeb" stroke="transparent" d="M814,-335C814,-335 898,-335 898,-335 904,-335 910,-341 910,-347 910,-347 910,-387 910,-387 910,-393 904,-399 898,-399 898,-399 814,-399 814,-399 808,-399 802,-393 802,-387 802,-387 802,-347 802,-347 802,-341 808,-335 814,-335"/>
<text text-anchor="start" x="803" y="-396.4" font-family="Arial" font-size="2.00"> </text>
<text text-anchor="start" x="803" y="-390.4" font-family="Arial" font-size="7.00"> &#160;17</text>
<text text-anchor="start" x="817" y="-373.8" font-family="Arial" font-weight="bold" font-size="14.00">Mean: 30.08</text>
<text text-anchor="start" x="836" y="-356.8" font-family="Arial" font-weight="bold" font-size="14.00">n = 45</text>
<text text-anchor="start" x="854.5" y="-338.8" font-family="Arial" font-size="9.00"> </text>
<path fill="none" stroke="#333333" d="M814,-335C814,-335 898,-335 898,-335 904,-335 910,-341 910,-347 910,-347 910,-387 910,-387 910,-393 904,-399 898,-399 898,-399 814,-399 814,-399 808,-399 802,-393 802,-387 802,-387 802,-347 802,-347 802,-341 808,-335 814,-335"/>
<text text-anchor="start" x="841.5" y="-320.8" font-family="Arial" font-weight="bold" font-size="14.00">time</text>
</g>
<!-- 15&#45;&gt;17 -->
<g id="edge16" class="edge">
<title>15&#45;&gt;17</title>
<path fill="none" stroke="#888888" d="M762.33,-461.67C771.61,-452.39 781.25,-442.75 790.67,-433.33"/>
<polygon fill="#888888" stroke="#888888" points="793.23,-435.72 797.82,-426.18 788.28,-430.77 793.23,-435.72"/>
</g>
<!-- 4 -->
<g id="node6" class="node">
<title>4</title>
<text text-anchor="start" x="51.5" y="-253.8" font-family="Arial" font-weight="bold" font-size="14.00"> &lt; 5.5</text>
<path fill="#f8766d" fill-opacity="0.874510" stroke="transparent" d="M24,-181C24,-181 114,-181 114,-181 120,-181 126,-187 126,-193 126,-193 126,-233 126,-233 126,-239 120,-245 114,-245 114,-245 24,-245 24,-245 18,-245 12,-239 12,-233 12,-233 12,-193 12,-193 12,-187 18,-181 24,-181"/>
<text text-anchor="start" x="13" y="-242.4" font-family="Arial" font-size="2.00"> </text>
<text text-anchor="start" x="13" y="-236.4" font-family="Arial" font-size="7.00"> &#160;4</text>
<text text-anchor="start" x="27" y="-219.8" font-family="Arial" font-weight="bold" font-size="14.00">Predict 23.81</text>
<text text-anchor="start" x="49" y="-202.8" font-family="Arial" font-weight="bold" font-size="14.00">n = 42</text>
<text text-anchor="start" x="67.5" y="-184.8" font-family="Arial" font-size="9.00"> </text>
<path fill="none" stroke="#333333" d="M24,-181C24,-181 114,-181 114,-181 120,-181 126,-187 126,-193 126,-193 126,-233 126,-233 126,-239 120,-245 114,-245 114,-245 24,-245 24,-245 18,-245 12,-239 12,-233 12,-233 12,-193 12,-193 12,-187 18,-181 24,-181"/>
<text text-anchor="start" x="67" y="-166.8" font-family="Arial" font-weight="bold" font-size="14.00"> </text>
</g>
<!-- 3&#45;&gt;4 -->
<g id="edge5" class="edge">
<title>3&#45;&gt;4</title>
<path fill="none" stroke="#888888" d="M170.68,-307.67C160.51,-298.3 149.94,-288.56 139.61,-279.05"/>
<polygon fill="#888888" stroke="#888888" points="141.88,-276.38 132.15,-272.18 137.14,-281.53 141.88,-276.38"/>
</g>
<!-- 5 -->
<g id="node7" class="node">
<title>5</title>
<text text-anchor="start" x="217" y="-253.8" font-family="Arial" font-weight="bold" font-size="14.00"> ≥ 5.5</text>
<text text-anchor="start" x="166" y="-209.3" font-family="Arial" font-size="14.00"> &#160;&#160;</text>
<path fill="#ebebeb" stroke="transparent" d="M192,-181C192,-181 276,-181 276,-181 282,-181 288,-187 288,-193 288,-193 288,-233 288,-233 288,-239 282,-245 276,-245 276,-245 192,-245 192,-245 186,-245 180,-239 180,-233 180,-233 180,-193 180,-193 180,-187 186,-181 192,-181"/>
<text text-anchor="start" x="181" y="-242.4" font-family="Arial" font-size="2.00"> </text>
<text text-anchor="start" x="181" y="-236.4" font-family="Arial" font-size="7.00"> &#160;5</text>
<text text-anchor="start" x="195" y="-219.8" font-family="Arial" font-weight="bold" font-size="14.00">Mean: 27.96</text>
<text text-anchor="start" x="214" y="-202.8" font-family="Arial" font-weight="bold" font-size="14.00">n = 23</text>
<text text-anchor="start" x="232.5" y="-184.8" font-family="Arial" font-size="9.00"> </text>
<path fill="none" stroke="#333333" d="M192,-181C192,-181 276,-181 276,-181 282,-181 288,-187 288,-193 288,-193 288,-233 288,-233 288,-239 282,-245 276,-245 276,-245 192,-245 192,-245 186,-245 180,-239 180,-233 180,-233 180,-193 180,-193 180,-187 186,-181 192,-181"/>
<text text-anchor="start" x="290" y="-209.3" font-family="Arial" font-size="14.00"> &#160;&#160;</text>
<text text-anchor="start" x="181" y="-166.8" font-family="Arial" font-weight="bold" font-size="14.00">prev_168_inflow</text>
</g>
<!-- 3&#45;&gt;5 -->
<g id="edge6" class="edge">
<title>3&#45;&gt;5</title>
<path fill="none" stroke="#888888" d="M234,-307.67C234,-299.39 234,-290.83 234,-282.38"/>
<polygon fill="#888888" stroke="#888888" points="237.5,-282.18 234,-272.18 230.5,-282.18 237.5,-282.18"/>
</g>
<!-- 9 -->
<g id="node10" class="node">
<title>9</title>
<text text-anchor="start" x="520" y="-253.8" font-family="Arial" font-weight="bold" font-size="14.00"> &lt; 22.25</text>
<path fill="#ebebeb" stroke="transparent" d="M507,-181C507,-181 583,-181 583,-181 589,-181 595,-187 595,-193 595,-193 595,-233 595,-233 595,-239 589,-245 583,-245 583,-245 507,-245 507,-245 501,-245 495,-239 495,-233 495,-233 495,-193 495,-193 495,-187 501,-181 507,-181"/>
<text text-anchor="start" x="496" y="-242.4" font-family="Arial" font-size="2.00"> </text>
<text text-anchor="start" x="496" y="-236.4" font-family="Arial" font-size="7.00"> &#160;9</text>
<text text-anchor="start" x="510" y="-219.8" font-family="Arial" font-weight="bold" font-size="14.00">Mean: 40.3</text>
<text text-anchor="start" x="529" y="-202.8" font-family="Arial" font-weight="bold" font-size="14.00">n = 3</text>
<text text-anchor="start" x="543.5" y="-184.8" font-family="Arial" font-size="9.00"> </text>
<path fill="none" stroke="#333333" d="M507,-181C507,-181 583,-181 583,-181 589,-181 595,-187 595,-193 595,-193 595,-233 595,-233 595,-239 589,-245 583,-245 583,-245 507,-245 507,-245 501,-245 495,-239 495,-233 495,-233 495,-193 495,-193 495,-187 501,-181 507,-181"/>
<text text-anchor="start" x="530.5" y="-166.8" font-family="Arial" font-weight="bold" font-size="14.00">time</text>
</g>
<!-- 8&#45;&gt;9 -->
<g id="edge9" class="edge">
<title>8&#45;&gt;9</title>
<path fill="none" stroke="#888888" d="M545,-307.67C545,-299.39 545,-290.83 545,-282.38"/>
<polygon fill="#888888" stroke="#888888" points="548.5,-282.18 545,-272.18 541.5,-282.18 548.5,-282.18"/>
</g>
<!-- 12 -->
<g id="node11" class="node">
<title>12</title>
<text text-anchor="start" x="677.5" y="-253.8" font-family="Arial" font-weight="bold" font-size="14.00"> ≥ 22.25</text>
<path fill="#ebebeb" stroke="transparent" d="M660,-181C660,-181 744,-181 744,-181 750,-181 756,-187 756,-193 756,-193 756,-233 756,-233 756,-239 750,-245 744,-245 744,-245 660,-245 660,-245 654,-245 648,-239 648,-233 648,-233 648,-193 648,-193 648,-187 654,-181 660,-181"/>
<text text-anchor="start" x="649" y="-242.4" font-family="Arial" font-size="2.00"> </text>
<text text-anchor="start" x="649" y="-236.4" font-family="Arial" font-size="7.00"> &#160;12</text>
<text text-anchor="start" x="663" y="-219.8" font-family="Arial" font-weight="bold" font-size="14.00">Mean: 33.57</text>
<text text-anchor="start" x="682" y="-202.8" font-family="Arial" font-weight="bold" font-size="14.00">n = 37</text>
<text text-anchor="start" x="700.5" y="-184.8" font-family="Arial" font-size="9.00"> </text>
<path fill="none" stroke="#333333" d="M660,-181C660,-181 744,-181 744,-181 750,-181 756,-187 756,-193 756,-193 756,-233 756,-233 756,-239 750,-245 744,-245 744,-245 660,-245 660,-245 654,-245 648,-239 648,-233 648,-233 648,-193 648,-193 648,-187 654,-181 660,-181"/>
<text text-anchor="start" x="687.5" y="-166.8" font-family="Arial" font-weight="bold" font-size="14.00">time</text>
</g>
<!-- 8&#45;&gt;12 -->
<g id="edge10" class="edge">
<title>8&#45;&gt;12</title>
<path fill="none" stroke="#888888" d="M605.25,-307.67C614.83,-298.39 624.79,-288.75 634.52,-279.33"/>
<polygon fill="#888888" stroke="#888888" points="637.16,-281.65 641.91,-272.18 632.29,-276.62 637.16,-281.65"/>
</g>
<!-- 6 -->
<g id="node8" class="node">
<title>6</title>
<text text-anchor="start" x="53" y="-99.8" font-family="Arial" font-weight="bold" font-size="14.00"> &lt; 27.42</text>
<path fill="#f8766d" fill-opacity="0.800000" stroke="transparent" d="M33,-27C33,-27 123,-27 123,-27 129,-27 135,-33 135,-39 135,-39 135,-79 135,-79 135,-85 129,-91 123,-91 123,-91 33,-91 33,-91 27,-91 21,-85 21,-79 21,-79 21,-39 21,-39 21,-33 27,-27 33,-27"/>
<text text-anchor="start" x="22" y="-88.4" font-family="Arial" font-size="2.00"> </text>
<text text-anchor="start" x="22" y="-82.4" font-family="Arial" font-size="7.00"> &#160;6</text>
<text text-anchor="start" x="36" y="-65.8" font-family="Arial" font-weight="bold" font-size="14.00">Predict 26.54</text>
<text text-anchor="start" x="62" y="-48.8" font-family="Arial" font-weight="bold" font-size="14.00">n = 9</text>
<text text-anchor="start" x="76.5" y="-30.8" font-family="Arial" font-size="9.00"> </text>
<path fill="none" stroke="#333333" d="M33,-27C33,-27 123,-27 123,-27 129,-27 135,-33 135,-39 135,-39 135,-79 135,-79 135,-85 129,-91 123,-91 123,-91 33,-91 33,-91 27,-91 21,-85 21,-79 21,-79 21,-39 21,-39 21,-33 27,-27 33,-27"/>
<text text-anchor="start" x="76" y="-12.8" font-family="Arial" font-weight="bold" font-size="14.00"> </text>
</g>
<!-- 5&#45;&gt;6 -->
<g id="edge7" class="edge">
<title>5&#45;&gt;6</title>
<path fill="none" stroke="#888888" d="M174.13,-153.67C164.62,-144.39 154.72,-134.75 145.05,-125.33"/>
<polygon fill="#888888" stroke="#888888" points="147.31,-122.65 137.71,-118.18 142.43,-127.66 147.31,-122.65"/>
</g>
<!-- 7 -->
<g id="node9" class="node">
<title>7</title>
<text text-anchor="start" x="209.5" y="-99.8" font-family="Arial" font-weight="bold" font-size="14.00"> ≥ 27.42</text>
<path fill="#f8766d" fill-opacity="0.737255" stroke="transparent" d="M189,-27C189,-27 279,-27 279,-27 285,-27 291,-33 291,-39 291,-39 291,-79 291,-79 291,-85 285,-91 279,-91 279,-91 189,-91 189,-91 183,-91 177,-85 177,-79 177,-79 177,-39 177,-39 177,-33 183,-27 189,-27"/>
<text text-anchor="start" x="178" y="-88.4" font-family="Arial" font-size="2.00"> </text>
<text text-anchor="start" x="178" y="-82.4" font-family="Arial" font-size="7.00"> &#160;7</text>
<text text-anchor="start" x="192" y="-65.8" font-family="Arial" font-weight="bold" font-size="14.00">Predict 28.87</text>
<text text-anchor="start" x="214" y="-48.8" font-family="Arial" font-weight="bold" font-size="14.00">n = 14</text>
<text text-anchor="start" x="232.5" y="-30.8" font-family="Arial" font-size="9.00"> </text>
<path fill="none" stroke="#333333" d="M189,-27C189,-27 279,-27 279,-27 285,-27 291,-33 291,-39 291,-39 291,-79 291,-79 291,-85 285,-91 279,-91 279,-91 189,-91 189,-91 183,-91 177,-85 177,-79 177,-79 177,-39 177,-39 177,-33 183,-27 189,-27"/>
<text text-anchor="start" x="232" y="-12.8" font-family="Arial" font-weight="bold" font-size="14.00"> </text>
</g>
<!-- 5&#45;&gt;7 -->
<g id="edge8" class="edge">
<title>5&#45;&gt;7</title>
<path fill="none" stroke="#888888" d="M234,-153.67C234,-145.39 234,-136.83 234,-128.38"/>
<polygon fill="#888888" stroke="#888888" points="237.5,-128.18 234,-118.18 230.5,-128.18 237.5,-128.18"/>
</g>
<!-- 10 -->
<g id="node12" class="node">
<title>10</title>
<text text-anchor="start" x="372.5" y="-99.8" font-family="Arial" font-weight="bold" font-size="14.00"> &lt; 7.5</text>
<path fill="#f8766d" fill-opacity="0.533333" stroke="transparent" d="M345,-27C345,-27 435,-27 435,-27 441,-27 447,-33 447,-39 447,-39 447,-79 447,-79 447,-85 441,-91 435,-91 435,-91 345,-91 345,-91 339,-91 333,-85 333,-79 333,-79 333,-39 333,-39 333,-33 339,-27 345,-27"/>
<text text-anchor="start" x="334" y="-88.4" font-family="Arial" font-size="2.00"> </text>
<text text-anchor="start" x="334" y="-82.4" font-family="Arial" font-size="7.00"> &#160;10</text>
<text text-anchor="start" x="348" y="-65.8" font-family="Arial" font-weight="bold" font-size="14.00">Predict 36.39</text>
<text text-anchor="start" x="374" y="-48.8" font-family="Arial" font-weight="bold" font-size="14.00">n = 1</text>
<text text-anchor="start" x="388.5" y="-30.8" font-family="Arial" font-size="9.00"> </text>
<path fill="none" stroke="#333333" d="M345,-27C345,-27 435,-27 435,-27 441,-27 447,-33 447,-39 447,-39 447,-79 447,-79 447,-85 441,-91 435,-91 435,-91 345,-91 345,-91 339,-91 333,-85 333,-79 333,-79 333,-39 333,-39 333,-33 339,-27 345,-27"/>
<text text-anchor="start" x="388" y="-12.8" font-family="Arial" font-weight="bold" font-size="14.00"> </text>
</g>
<!-- 9&#45;&gt;10 -->
<g id="edge11" class="edge">
<title>9&#45;&gt;10</title>
<path fill="none" stroke="#888888" d="M485.52,-153.67C476.06,-144.39 466.22,-134.75 456.62,-125.33"/>
<polygon fill="#888888" stroke="#888888" points="458.92,-122.68 449.32,-118.18 454.01,-127.68 458.92,-122.68"/>
</g>
<!-- 11 -->
<g id="node13" class="node">
<title>11</title>
<text text-anchor="start" x="529" y="-99.8" font-family="Arial" font-weight="bold" font-size="14.00"> ≥ 7.5</text>
<path fill="#f8766d" fill-opacity="0.376471" stroke="transparent" d="M501,-27C501,-27 591,-27 591,-27 597,-27 603,-33 603,-39 603,-39 603,-79 603,-79 603,-85 597,-91 591,-91 591,-91 501,-91 501,-91 495,-91 489,-85 489,-79 489,-79 489,-39 489,-39 489,-33 495,-27 501,-27"/>
<text text-anchor="start" x="490" y="-88.4" font-family="Arial" font-size="2.00"> </text>
<text text-anchor="start" x="490" y="-82.4" font-family="Arial" font-size="7.00"> &#160;11</text>
<text text-anchor="start" x="504" y="-65.8" font-family="Arial" font-weight="bold" font-size="14.00">Predict 42.26</text>
<text text-anchor="start" x="530" y="-48.8" font-family="Arial" font-weight="bold" font-size="14.00">n = 2</text>
<text text-anchor="start" x="544.5" y="-30.8" font-family="Arial" font-size="9.00"> </text>
<path fill="none" stroke="#333333" d="M501,-27C501,-27 591,-27 591,-27 597,-27 603,-33 603,-39 603,-39 603,-79 603,-79 603,-85 597,-91 591,-91 591,-91 501,-91 501,-91 495,-91 489,-85 489,-79 489,-79 489,-39 489,-39 489,-33 495,-27 501,-27"/>
<text text-anchor="start" x="544" y="-12.8" font-family="Arial" font-weight="bold" font-size="14.00"> </text>
</g>
<!-- 9&#45;&gt;11 -->
<g id="edge12" class="edge">
<title>9&#45;&gt;11</title>
<path fill="none" stroke="#888888" d="M545.38,-153.67C545.44,-145.39 545.49,-136.83 545.55,-128.38"/>
<polygon fill="#888888" stroke="#888888" points="549.05,-128.2 545.62,-118.18 542.05,-128.15 549.05,-128.2"/>
</g>
<!-- 13 -->
<g id="node14" class="node">
<title>13</title>
<text text-anchor="start" x="681" y="-99.8" font-family="Arial" font-weight="bold" font-size="14.00"> &lt; 11.5</text>
<path fill="#f8766d" fill-opacity="0.592157" stroke="transparent" d="M657,-27C657,-27 747,-27 747,-27 753,-27 759,-33 759,-39 759,-39 759,-79 759,-79 759,-85 753,-91 747,-91 747,-91 657,-91 657,-91 651,-91 645,-85 645,-79 645,-79 645,-39 645,-39 645,-33 651,-27 657,-27"/>
<text text-anchor="start" x="646" y="-88.4" font-family="Arial" font-size="2.00"> </text>
<text text-anchor="start" x="646" y="-82.4" font-family="Arial" font-size="7.00"> &#160;13</text>
<text text-anchor="start" x="660" y="-65.8" font-family="Arial" font-weight="bold" font-size="14.00">Predict 34.21</text>
<text text-anchor="start" x="682" y="-48.8" font-family="Arial" font-weight="bold" font-size="14.00">n = 22</text>
<text text-anchor="start" x="700.5" y="-30.8" font-family="Arial" font-size="9.00"> </text>
<path fill="none" stroke="#333333" d="M657,-27C657,-27 747,-27 747,-27 753,-27 759,-33 759,-39 759,-39 759,-79 759,-79 759,-85 753,-91 747,-91 747,-91 657,-91 657,-91 651,-91 645,-85 645,-79 645,-79 645,-39 645,-39 645,-33 651,-27 657,-27"/>
<text text-anchor="start" x="700" y="-12.8" font-family="Arial" font-weight="bold" font-size="14.00"> </text>
</g>
<!-- 12&#45;&gt;13 -->
<g id="edge13" class="edge">
<title>12&#45;&gt;13</title>
<path fill="none" stroke="#888888" d="M702,-153.67C702,-145.39 702,-136.83 702,-128.38"/>
<polygon fill="#888888" stroke="#888888" points="705.5,-128.18 702,-118.18 698.5,-128.18 705.5,-128.18"/>
</g>
<!-- 14 -->
<g id="node15" class="node">
<title>14</title>
<text text-anchor="start" x="837.5" y="-99.8" font-family="Arial" font-weight="bold" font-size="14.00"> ≥ 11.5</text>
<path fill="#f8766d" fill-opacity="0.635294" stroke="transparent" d="M813,-27C813,-27 903,-27 903,-27 909,-27 915,-33 915,-39 915,-39 915,-79 915,-79 915,-85 909,-91 903,-91 903,-91 813,-91 813,-91 807,-91 801,-85 801,-79 801,-79 801,-39 801,-39 801,-33 807,-27 813,-27"/>
<text text-anchor="start" x="802" y="-88.4" font-family="Arial" font-size="2.00"> </text>
<text text-anchor="start" x="802" y="-82.4" font-family="Arial" font-size="7.00"> &#160;14</text>
<text text-anchor="start" x="816" y="-65.8" font-family="Arial" font-weight="bold" font-size="14.00">Predict 32.65</text>
<text text-anchor="start" x="838" y="-48.8" font-family="Arial" font-weight="bold" font-size="14.00">n = 15</text>
<text text-anchor="start" x="856.5" y="-30.8" font-family="Arial" font-size="9.00"> </text>
<path fill="none" stroke="#333333" d="M813,-27C813,-27 903,-27 903,-27 909,-27 915,-33 915,-39 915,-39 915,-79 915,-79 915,-85 909,-91 903,-91 903,-91 813,-91 813,-91 807,-91 801,-85 801,-79 801,-79 801,-39 801,-39 801,-33 807,-27 813,-27"/>
<text text-anchor="start" x="856" y="-12.8" font-family="Arial" font-weight="bold" font-size="14.00"> </text>
</g>
<!-- 12&#45;&gt;14 -->
<g id="edge14" class="edge">
<title>12&#45;&gt;14</title>
<path fill="none" stroke="#888888" d="M761.87,-153.67C771.38,-144.39 781.28,-134.75 790.95,-125.33"/>
<polygon fill="#888888" stroke="#888888" points="793.57,-127.66 798.29,-118.18 788.69,-122.65 793.57,-127.66"/>
</g>
<!-- 18 -->
<g id="node18" class="node">
<title>18</title>
<text text-anchor="start" x="834.5" y="-253.8" font-family="Arial" font-weight="bold" font-size="14.00"> &lt; 20.5</text>
<path fill="#f8766d" fill-opacity="0.678431" stroke="transparent" d="M811,-181C811,-181 901,-181 901,-181 907,-181 913,-187 913,-193 913,-193 913,-233 913,-233 913,-239 907,-245 901,-245 901,-245 811,-245 811,-245 805,-245 799,-239 799,-233 799,-233 799,-193 799,-193 799,-187 805,-181 811,-181"/>
<text text-anchor="start" x="800" y="-242.4" font-family="Arial" font-size="2.00"> </text>
<text text-anchor="start" x="800" y="-236.4" font-family="Arial" font-size="7.00"> &#160;18</text>
<text text-anchor="start" x="814" y="-219.8" font-family="Arial" font-weight="bold" font-size="14.00">Predict 31.09</text>
<text text-anchor="start" x="836" y="-202.8" font-family="Arial" font-weight="bold" font-size="14.00">n = 30</text>
<text text-anchor="start" x="854.5" y="-184.8" font-family="Arial" font-size="9.00"> </text>
<path fill="none" stroke="#333333" d="M811,-181C811,-181 901,-181 901,-181 907,-181 913,-187 913,-193 913,-193 913,-233 913,-233 913,-239 907,-245 901,-245 901,-245 811,-245 811,-245 805,-245 799,-239 799,-233 799,-233 799,-193 799,-193 799,-187 805,-181 811,-181"/>
<text text-anchor="start" x="854" y="-166.8" font-family="Arial" font-weight="bold" font-size="14.00"> </text>
</g>
<!-- 17&#45;&gt;18 -->
<g id="edge17" class="edge">
<title>17&#45;&gt;18</title>
<path fill="none" stroke="#888888" d="M856,-307.67C856,-299.39 856,-290.83 856,-282.38"/>
<polygon fill="#888888" stroke="#888888" points="859.5,-282.18 856,-272.18 852.5,-282.18 859.5,-282.18"/>
</g>
<!-- 19 -->
<g id="node19" class="node">
<title>19</title>
<text text-anchor="start" x="991" y="-253.8" font-family="Arial" font-weight="bold" font-size="14.00"> ≥ 20.5</text>
<path fill="#f8766d" fill-opacity="0.760784" stroke="transparent" d="M967,-181C967,-181 1057,-181 1057,-181 1063,-181 1069,-187 1069,-193 1069,-193 1069,-233 1069,-233 1069,-239 1063,-245 1057,-245 1057,-245 967,-245 967,-245 961,-245 955,-239 955,-233 955,-233 955,-193 955,-193 955,-187 961,-181 967,-181"/>
<text text-anchor="start" x="956" y="-242.4" font-family="Arial" font-size="2.00"> </text>
<text text-anchor="start" x="956" y="-236.4" font-family="Arial" font-size="7.00"> &#160;19</text>
<text text-anchor="start" x="970" y="-219.8" font-family="Arial" font-weight="bold" font-size="14.00">Predict 28.07</text>
<text text-anchor="start" x="992" y="-202.8" font-family="Arial" font-weight="bold" font-size="14.00">n = 15</text>
<text text-anchor="start" x="1010.5" y="-184.8" font-family="Arial" font-size="9.00"> </text>
<path fill="none" stroke="#333333" d="M967,-181C967,-181 1057,-181 1057,-181 1063,-181 1069,-187 1069,-193 1069,-193 1069,-233 1069,-233 1069,-239 1063,-245 1057,-245 1057,-245 967,-245 967,-245 961,-245 955,-239 955,-233 955,-233 955,-193 955,-193 955,-187 961,-181 967,-181"/>
<text text-anchor="start" x="1010" y="-166.8" font-family="Arial" font-weight="bold" font-size="14.00"> </text>
</g>
<!-- 17&#45;&gt;19 -->
<g id="edge18" class="edge">
<title>17&#45;&gt;19</title>
<path fill="none" stroke="#888888" d="M915.87,-307.67C925.38,-298.39 935.28,-288.75 944.95,-279.33"/>
<polygon fill="#888888" stroke="#888888" points="947.57,-281.66 952.29,-272.18 942.69,-276.65 947.57,-281.66"/>
</g>
</g>
</svg>
