<?xml version="1.0" encoding="UTF-8" standalone="no"?>
<!DOCTYPE svg PUBLIC "-//W3C//DTD SVG 1.1//EN"
 "http://www.w3.org/Graphics/SVG/1.1/DTD/svg11.dtd">
<!-- Generated by graphviz version 2.50.0 (20211204.2007)
 -->
<!-- Pages: 1 -->
<svg width="769pt" height="588pt"
 viewBox="0.00 0.00 769.00 588.00" xmlns="http://www.w3.org/2000/svg" xmlns:xlink="http://www.w3.org/1999/xlink">
<g id="graph0" class="graph" transform="scale(1 1) rotate(0) translate(4 584)">
<polygon fill="white" stroke="transparent" points="-4,4 -4,-584 765,-584 765,4 -4,4"/>
<!-- 1 -->
<g id="node1" class="node">
<title>1</title>
<text text-anchor="start" x="460" y="-561.8" font-family="Arial" font-weight="bold" font-size="14.00"> </text>
<path fill="#ebebeb" stroke="transparent" d="M420,-489C420,-489 504,-489 504,-489 510,-489 516,-495 516,-501 516,-501 516,-541 516,-541 516,-547 510,-553 504,-553 504,-553 420,-553 420,-553 414,-553 408,-547 408,-541 408,-541 408,-501 408,-501 408,-495 414,-489 420,-489"/>
<text text-anchor="start" x="409" y="-550.4" font-family="Arial" font-size="2.00"> </text>
<text text-anchor="start" x="409" y="-544.4" font-family="Arial" font-size="7.00"> &#160;1</text>
<text text-anchor="start" x="423" y="-527.8" font-family="Arial" font-weight="bold" font-size="14.00">Mean: 21.63</text>
<text text-anchor="start" x="438.5" y="-510.8" font-family="Arial" font-weight="bold" font-size="14.00">n = 168</text>
<text text-anchor="start" x="460.5" y="-492.8" font-family="Arial" font-size="9.00"> </text>
<path fill="none" stroke="#333333" d="M420,-489C420,-489 504,-489 504,-489 510,-489 516,-495 516,-501 516,-501 516,-541 516,-541 516,-547 510,-553 504,-553 504,-553 420,-553 420,-553 414,-553 408,-547 408,-541 408,-541 408,-501 408,-501 408,-495 414,-489 420,-489"/>
<text text-anchor="start" x="447.5" y="-474.8" font-family="Arial" font-weight="bold" font-size="14.00">time</text>
</g>
<!-- 2 -->
<g id="node2" class="node">
<title>2</title>
<text text-anchor="start" x="359.5" y="-407.8" font-family="Arial" font-weight="bold" font-size="14.00"> &lt; 15.5</text>
<text text-anchor="start" x="313" y="-363.3" font-family="Arial" font-size="14.00"> &#160;&#160;</text>
<path fill="#ebebeb" stroke="transparent" d="M339,-335C339,-335 423,-335 423,-335 429,-335 435,-341 435,-347 435,-347 435,-387 435,-387 435,-393 429,-399 423,-399 423,-399 339,-399 339,-399 333,-399 327,-393 327,-387 327,-387 327,-347 327,-347 327,-341 333,-335 339,-335"/>
<text text-anchor="start" x="328" y="-396.4" font-family="Arial" font-size="2.00"> </text>
<text text-anchor="start" x="328" y="-390.4" font-family="Arial" font-size="7.00"> &#160;2</text>
<text text-anchor="start" x="342" y="-373.8" font-family="Arial" font-weight="bold" font-size="14.00">Mean: 21.86</text>
<text text-anchor="start" x="358" y="-356.8" font-family="Arial" font-weight="bold" font-size="14.00">n = 112</text>
<text text-anchor="start" x="379.5" y="-338.8" font-family="Arial" font-size="9.00"> </text>
<path fill="none" stroke="#333333" d="M339,-335C339,-335 423,-335 423,-335 429,-335 435,-341 435,-347 435,-347 435,-387 435,-387 435,-393 429,-399 423,-399 423,-399 339,-399 339,-399 333,-399 327,-393 327,-387 327,-387 327,-347 327,-347 327,-341 333,-335 339,-335"/>
<text text-anchor="start" x="437" y="-363.3" font-family="Arial" font-size="14.00"> &#160;&#160;</text>
<text text-anchor="start" x="328" y="-320.8" font-family="Arial" font-weight="bold" font-size="14.00">prev_168_inflow</text>
</g>
<!-- 1&#45;&gt;2 -->
<g id="edge1" class="edge">
<title>1&#45;&gt;2</title>
<path fill="none" stroke="#888888" d="M430.91,-461.67C426.31,-453.03 421.54,-444.07 416.85,-435.27"/>
<polygon fill="#888888" stroke="#888888" points="419.79,-433.36 412,-426.18 413.62,-436.65 419.79,-433.36"/>
</g>
<!-- 9 -->
<g id="node3" class="node">
<title>9</title>
<text text-anchor="start" x="522" y="-407.8" font-family="Arial" font-weight="bold" font-size="14.00"> ≥ 15.5</text>
<path fill="#ebebeb" stroke="transparent" d="M501,-335C501,-335 585,-335 585,-335 591,-335 597,-341 597,-347 597,-347 597,-387 597,-387 597,-393 591,-399 585,-399 585,-399 501,-399 501,-399 495,-399 489,-393 489,-387 489,-387 489,-347 489,-347 489,-341 495,-335 501,-335"/>
<text text-anchor="start" x="490" y="-396.4" font-family="Arial" font-size="2.00"> </text>
<text text-anchor="start" x="490" y="-390.4" font-family="Arial" font-size="7.00"> &#160;9</text>
<text text-anchor="start" x="504" y="-373.8" font-family="Arial" font-weight="bold" font-size="14.00">Mean: 21.16</text>
<text text-anchor="start" x="523" y="-356.8" font-family="Arial" font-weight="bold" font-size="14.00">n = 56</text>
<text text-anchor="start" x="541.5" y="-338.8" font-family="Arial" font-size="9.00"> </text>
<path fill="none" stroke="#333333" d="M501,-335C501,-335 585,-335 585,-335 591,-335 597,-341 597,-347 597,-347 597,-387 597,-387 597,-393 591,-399 585,-399 585,-399 501,-399 501,-399 495,-399 489,-393 489,-387 489,-387 489,-347 489,-347 489,-341 495,-335 501,-335"/>
<text text-anchor="start" x="500.5" y="-320.8" font-family="Arial" font-weight="bold" font-size="14.00">day_of_week</text>
</g>
<!-- 1&#45;&gt;9 -->
<g id="edge2" class="edge">
<title>1&#45;&gt;9</title>
<path fill="none" stroke="#888888" d="M493.09,-461.67C497.69,-453.03 502.46,-444.07 507.15,-435.27"/>
<polygon fill="#888888" stroke="#888888" points="510.38,-436.65 512,-426.18 504.21,-433.36 510.38,-436.65"/>
</g>
<!-- 3 -->
<g id="node4" class="node">
<title>3</title>
<text text-anchor="start" x="198" y="-253.8" font-family="Arial" font-weight="bold" font-size="14.00"> &lt; 23.02</text>
<text text-anchor="start" x="155" y="-209.3" font-family="Arial" font-size="14.00"> &#160;&#160;&#160;</text>
<path fill="#ebebeb" stroke="transparent" d="M185,-181C185,-181 261,-181 261,-181 267,-181 273,-187 273,-193 273,-193 273,-233 273,-233 273,-239 267,-245 261,-245 261,-245 185,-245 185,-245 179,-245 173,-239 173,-233 173,-233 173,-193 173,-193 173,-187 179,-181 185,-181"/>
<text text-anchor="start" x="174" y="-242.4" font-family="Arial" font-size="2.00"> </text>
<text text-anchor="start" x="174" y="-236.4" font-family="Arial" font-size="7.00"> &#160;3</text>
<text text-anchor="start" x="188" y="-219.8" font-family="Arial" font-weight="bold" font-size="14.00">Mean: 19.8</text>
<text text-anchor="start" x="203" y="-202.8" font-family="Arial" font-weight="bold" font-size="14.00">n = 68</text>
<text text-anchor="start" x="221.5" y="-184.8" font-family="Arial" font-size="9.00"> </text>
<path fill="none" stroke="#333333" d="M185,-181C185,-181 261,-181 261,-181 267,-181 273,-187 273,-193 273,-193 273,-233 273,-233 273,-239 267,-245 261,-245 261,-245 185,-245 185,-245 179,-245 173,-239 173,-233 173,-233 173,-193 173,-193 173,-187 179,-181 185,-181"/>
<text text-anchor="start" x="275" y="-209.3" font-family="Arial" font-size="14.00"> &#160;&#160;&#160;</text>
<text text-anchor="start" x="170" y="-166.8" font-family="Arial" font-weight="bold" font-size="14.00">prev_168_inflow</text>
</g>
<!-- 2&#45;&gt;3 -->
<g id="edge3" class="edge">
<title>2&#45;&gt;3</title>
<path fill="none" stroke="#888888" d="M320.36,-307.67C310.73,-298.39 300.7,-288.75 290.91,-279.33"/>
<polygon fill="#888888" stroke="#888888" points="293.11,-276.59 283.47,-272.18 288.25,-281.63 293.11,-276.59"/>
</g>
<!-- 6 -->
<g id="node5" class="node">
<title>6</title>
<text text-anchor="start" x="360.5" y="-253.8" font-family="Arial" font-weight="bold" font-size="14.00"> ≥ 23.02</text>
<path fill="#ebebeb" stroke="transparent" d="M343,-181C343,-181 427,-181 427,-181 433,-181 439,-187 439,-193 439,-193 439,-233 439,-233 439,-239 433,-245 427,-245 427,-245 343,-245 343,-245 337,-245 331,-239 331,-233 331,-233 331,-193 331,-193 331,-187 337,-181 343,-181"/>
<text text-anchor="start" x="332" y="-242.4" font-family="Arial" font-size="2.00"> </text>
<text text-anchor="start" x="332" y="-236.4" font-family="Arial" font-size="7.00"> &#160;6</text>
<text text-anchor="start" x="346" y="-219.8" font-family="Arial" font-weight="bold" font-size="14.00">Mean: 25.05</text>
<text text-anchor="start" x="365" y="-202.8" font-family="Arial" font-weight="bold" font-size="14.00">n = 44</text>
<text text-anchor="start" x="383.5" y="-184.8" font-family="Arial" font-size="9.00"> </text>
<path fill="none" stroke="#333333" d="M343,-181C343,-181 427,-181 427,-181 433,-181 439,-187 439,-193 439,-193 439,-233 439,-233 439,-239 433,-245 427,-245 427,-245 343,-245 343,-245 337,-245 331,-239 331,-233 331,-233 331,-193 331,-193 331,-187 337,-181 343,-181"/>
<text text-anchor="start" x="356" y="-166.8" font-family="Arial" font-weight="bold" font-size="14.00">air_temp</text>
</g>
<!-- 2&#45;&gt;6 -->
<g id="edge4" class="edge">
<title>2&#45;&gt;6</title>
<path fill="none" stroke="#888888" d="M382.54,-307.67C382.75,-299.39 382.98,-290.83 383.2,-282.38"/>
<polygon fill="#888888" stroke="#888888" points="386.7,-282.27 383.47,-272.18 379.71,-282.08 386.7,-282.27"/>
</g>
<!-- 10 -->
<g id="node10" class="node">
<title>10</title>
<text text-anchor="start" x="522.5" y="-253.8" font-family="Arial" font-weight="bold" font-size="14.00"> &lt; 5.5</text>
<path fill="#f8766d" fill-opacity="0.709804" stroke="transparent" d="M499,-181C499,-181 581,-181 581,-181 587,-181 593,-187 593,-193 593,-193 593,-233 593,-233 593,-239 587,-245 581,-245 581,-245 499,-245 499,-245 493,-245 487,-239 487,-233 487,-233 487,-193 487,-193 487,-187 493,-181 499,-181"/>
<text text-anchor="start" x="488" y="-242.4" font-family="Arial" font-size="2.00"> </text>
<text text-anchor="start" x="488" y="-236.4" font-family="Arial" font-size="7.00"> &#160;10</text>
<text text-anchor="start" x="502" y="-219.8" font-family="Arial" font-weight="bold" font-size="14.00">Predict 22.2</text>
<text text-anchor="start" x="520" y="-202.8" font-family="Arial" font-weight="bold" font-size="14.00">n = 40</text>
<text text-anchor="start" x="538.5" y="-184.8" font-family="Arial" font-size="9.00"> </text>
<path fill="none" stroke="#333333" d="M499,-181C499,-181 581,-181 581,-181 587,-181 593,-187 593,-193 593,-193 593,-233 593,-233 593,-239 587,-245 581,-245 581,-245 499,-245 499,-245 493,-245 487,-239 487,-233 487,-233 487,-193 487,-193 487,-187 493,-181 499,-181"/>
<text text-anchor="start" x="538" y="-166.8" font-family="Arial" font-weight="bold" font-size="14.00"> </text>
</g>
<!-- 9&#45;&gt;10 -->
<g id="edge9" class="edge">
<title>9&#45;&gt;10</title>
<path fill="none" stroke="#888888" d="M541.85,-307.67C541.69,-299.39 541.52,-290.83 541.35,-282.38"/>
<polygon fill="#888888" stroke="#888888" points="544.84,-282.11 541.15,-272.18 537.85,-282.24 544.84,-282.11"/>
</g>
<!-- 11 -->
<g id="node11" class="node">
<title>11</title>
<text text-anchor="start" x="675" y="-253.8" font-family="Arial" font-weight="bold" font-size="14.00"> ≥ 5.5</text>
<path fill="#f8766d" fill-opacity="0.874510" stroke="transparent" d="M647,-181C647,-181 737,-181 737,-181 743,-181 749,-187 749,-193 749,-193 749,-233 749,-233 749,-239 743,-245 737,-245 737,-245 647,-245 647,-245 641,-245 635,-239 635,-233 635,-233 635,-193 635,-193 635,-187 641,-181 647,-181"/>
<text text-anchor="start" x="636" y="-242.4" font-family="Arial" font-size="2.00"> </text>
<text text-anchor="start" x="636" y="-236.4" font-family="Arial" font-size="7.00"> &#160;11</text>
<text text-anchor="start" x="650" y="-219.8" font-family="Arial" font-weight="bold" font-size="14.00">Predict 18.58</text>
<text text-anchor="start" x="672" y="-202.8" font-family="Arial" font-weight="bold" font-size="14.00">n = 16</text>
<text text-anchor="start" x="690.5" y="-184.8" font-family="Arial" font-size="9.00"> </text>
<path fill="none" stroke="#333333" d="M647,-181C647,-181 737,-181 737,-181 743,-181 749,-187 749,-193 749,-193 749,-233 749,-233 749,-239 743,-245 737,-245 737,-245 647,-245 647,-245 641,-245 635,-239 635,-233 635,-233 635,-193 635,-193 635,-187 641,-181 647,-181"/>
<text text-anchor="start" x="690" y="-166.8" font-family="Arial" font-weight="bold" font-size="14.00"> </text>
</g>
<!-- 9&#45;&gt;11 -->
<g id="edge10" class="edge">
<title>9&#45;&gt;11</title>
<path fill="none" stroke="#888888" d="M600.18,-307.67C609.27,-298.39 618.73,-288.75 627.96,-279.33"/>
<polygon fill="#888888" stroke="#888888" points="630.47,-281.77 634.97,-272.18 625.47,-276.87 630.47,-281.77"/>
</g>
<!-- 4 -->
<g id="node6" class="node">
<title>4</title>
<text text-anchor="start" x="44" y="-99.8" font-family="Arial" font-weight="bold" font-size="14.00"> &lt; 19.25</text>
<path fill="#f8766d" fill-opacity="0.850980" stroke="transparent" d="M24,-27C24,-27 114,-27 114,-27 120,-27 126,-33 126,-39 126,-39 126,-79 126,-79 126,-85 120,-91 114,-91 114,-91 24,-91 24,-91 18,-91 12,-85 12,-79 12,-79 12,-39 12,-39 12,-33 18,-27 24,-27"/>
<text text-anchor="start" x="13" y="-88.4" font-family="Arial" font-size="2.00"> </text>
<text text-anchor="start" x="13" y="-82.4" font-family="Arial" font-size="7.00"> &#160;4</text>
<text text-anchor="start" x="27" y="-65.8" font-family="Arial" font-weight="bold" font-size="14.00">Predict 19.09</text>
<text text-anchor="start" x="49" y="-48.8" font-family="Arial" font-weight="bold" font-size="14.00">n = 25</text>
<text text-anchor="start" x="67.5" y="-30.8" font-family="Arial" font-size="9.00"> </text>
<path fill="none" stroke="#333333" d="M24,-27C24,-27 114,-27 114,-27 120,-27 126,-33 126,-39 126,-39 126,-79 126,-79 126,-85 120,-91 114,-91 114,-91 24,-91 24,-91 18,-91 12,-85 12,-79 12,-79 12,-39 12,-39 12,-33 18,-27 24,-27"/>
<text text-anchor="start" x="67" y="-12.8" font-family="Arial" font-weight="bold" font-size="14.00"> </text>
</g>
<!-- 3&#45;&gt;4 -->
<g id="edge5" class="edge">
<title>3&#45;&gt;4</title>
<path fill="none" stroke="#888888" d="M163.9,-153.67C154.5,-144.39 144.73,-134.75 135.19,-125.33"/>
<polygon fill="#888888" stroke="#888888" points="137.52,-122.71 127.94,-118.18 132.6,-127.69 137.52,-122.71"/>
</g>
<!-- 5 -->
<g id="node7" class="node">
<title>5</title>
<text text-anchor="start" x="200.5" y="-99.8" font-family="Arial" font-weight="bold" font-size="14.00"> ≥ 19.25</text>
<path fill="#f8766d" fill-opacity="0.800000" stroke="transparent" d="M180,-27C180,-27 270,-27 270,-27 276,-27 282,-33 282,-39 282,-39 282,-79 282,-79 282,-85 276,-91 270,-91 270,-91 180,-91 180,-91 174,-91 168,-85 168,-79 168,-79 168,-39 168,-39 168,-33 174,-27 180,-27"/>
<text text-anchor="start" x="169" y="-88.4" font-family="Arial" font-size="2.00"> </text>
<text text-anchor="start" x="169" y="-82.4" font-family="Arial" font-size="7.00"> &#160;5</text>
<text text-anchor="start" x="183" y="-65.8" font-family="Arial" font-weight="bold" font-size="14.00">Predict 20.22</text>
<text text-anchor="start" x="205" y="-48.8" font-family="Arial" font-weight="bold" font-size="14.00">n = 43</text>
<text text-anchor="start" x="223.5" y="-30.8" font-family="Arial" font-size="9.00"> </text>
<path fill="none" stroke="#333333" d="M180,-27C180,-27 270,-27 270,-27 276,-27 282,-33 282,-39 282,-39 282,-79 282,-79 282,-85 276,-91 270,-91 270,-91 180,-91 180,-91 174,-91 168,-85 168,-79 168,-79 168,-39 168,-39 168,-33 174,-27 180,-27"/>
<text text-anchor="start" x="223" y="-12.8" font-family="Arial" font-weight="bold" font-size="14.00"> </text>
</g>
<!-- 3&#45;&gt;5 -->
<g id="edge6" class="edge">
<title>3&#45;&gt;5</title>
<path fill="none" stroke="#888888" d="M223.77,-153.67C223.88,-145.39 223.99,-136.83 224.1,-128.38"/>
<polygon fill="#888888" stroke="#888888" points="227.6,-128.22 224.23,-118.18 220.6,-128.13 227.6,-128.22"/>
</g>
<!-- 7 -->
<g id="node8" class="node">
<title>7</title>
<text text-anchor="start" x="359" y="-99.8" font-family="Arial" font-weight="bold" font-size="14.00"> &lt; 22.25</text>
<path fill="#f8766d" fill-opacity="0.376471" stroke="transparent" d="M339,-27C339,-27 429,-27 429,-27 435,-27 441,-33 441,-39 441,-39 441,-79 441,-79 441,-85 435,-91 429,-91 429,-91 339,-91 339,-91 333,-91 327,-85 327,-79 327,-79 327,-39 327,-39 327,-33 333,-27 339,-27"/>
<text text-anchor="start" x="328" y="-88.4" font-family="Arial" font-size="2.00"> </text>
<text text-anchor="start" x="328" y="-82.4" font-family="Arial" font-size="7.00"> &#160;7</text>
<text text-anchor="start" x="342" y="-65.8" font-family="Arial" font-weight="bold" font-size="14.00">Predict 29.47</text>
<text text-anchor="start" x="368" y="-48.8" font-family="Arial" font-weight="bold" font-size="14.00">n = 3</text>
<text text-anchor="start" x="382.5" y="-30.8" font-family="Arial" font-size="9.00"> </text>
<path fill="none" stroke="#333333" d="M339,-27C339,-27 429,-27 429,-27 435,-27 441,-33 441,-39 441,-39 441,-79 441,-79 441,-85 435,-91 429,-91 429,-91 339,-91 339,-91 333,-91 327,-85 327,-79 327,-79 327,-39 327,-39 327,-33 333,-27 339,-27"/>
<text text-anchor="start" x="382" y="-12.8" font-family="Arial" font-weight="bold" font-size="14.00"> </text>
</g>
<!-- 6&#45;&gt;7 -->
<g id="edge7" class="edge">
<title>6&#45;&gt;7</title>
<path fill="none" stroke="#888888" d="M384.62,-153.67C384.56,-145.39 384.51,-136.83 384.45,-128.38"/>
<polygon fill="#888888" stroke="#888888" points="387.95,-128.15 384.38,-118.18 380.95,-128.2 387.95,-128.15"/>
</g>
<!-- 8 -->
<g id="node9" class="node">
<title>8</title>
<text text-anchor="start" x="515.5" y="-99.8" font-family="Arial" font-weight="bold" font-size="14.00"> ≥ 22.25</text>
<path fill="#f8766d" fill-opacity="0.592157" stroke="transparent" d="M495,-27C495,-27 585,-27 585,-27 591,-27 597,-33 597,-39 597,-39 597,-79 597,-79 597,-85 591,-91 585,-91 585,-91 495,-91 495,-91 489,-91 483,-85 483,-79 483,-79 483,-39 483,-39 483,-33 489,-27 495,-27"/>
<text text-anchor="start" x="484" y="-88.4" font-family="Arial" font-size="2.00"> </text>
<text text-anchor="start" x="484" y="-82.4" font-family="Arial" font-size="7.00"> &#160;8</text>
<text text-anchor="start" x="498" y="-65.8" font-family="Arial" font-weight="bold" font-size="14.00">Predict 24.73</text>
<text text-anchor="start" x="520" y="-48.8" font-family="Arial" font-weight="bold" font-size="14.00">n = 41</text>
<text text-anchor="start" x="538.5" y="-30.8" font-family="Arial" font-size="9.00"> </text>
<path fill="none" stroke="#333333" d="M495,-27C495,-27 585,-27 585,-27 591,-27 597,-33 597,-39 597,-39 597,-79 597,-79 597,-85 591,-91 585,-91 585,-91 495,-91 495,-91 489,-91 483,-85 483,-79 483,-79 483,-39 483,-39 483,-33 489,-27 495,-27"/>
<text text-anchor="start" x="538" y="-12.8" font-family="Arial" font-weight="bold" font-size="14.00"> </text>
</g>
<!-- 6&#45;&gt;8 -->
<g id="edge8" class="edge">
<title>6&#45;&gt;8</title>
<path fill="none" stroke="#888888" d="M444.48,-153.67C453.94,-144.39 463.78,-134.75 473.38,-125.33"/>
<polygon fill="#888888" stroke="#888888" points="475.99,-127.68 480.68,-118.18 471.08,-122.68 475.99,-127.68"/>
</g>
</g>
</svg>
