<?xml version="1.0" encoding="UTF-8" standalone="no"?>
<!DOCTYPE svg PUBLIC "-//W3C//DTD SVG 1.1//EN"
 "http://www.w3.org/Graphics/SVG/1.1/DTD/svg11.dtd">
<!-- Generated by graphviz version 2.50.0 (20211204.2007)
 -->
<!-- Pages: 1 -->
<svg width="1542pt" height="742pt"
 viewBox="0.00 0.00 1542.00 742.00" xmlns="http://www.w3.org/2000/svg" xmlns:xlink="http://www.w3.org/1999/xlink">
<g id="graph0" class="graph" transform="scale(1 1) rotate(0) translate(4 738)">
<polygon fill="white" stroke="transparent" points="-4,4 -4,-738 1538,-738 1538,4 -4,4"/>
<!-- 1 -->
<g id="node1" class="node">
<title>1</title>
<text text-anchor="start" x="567" y="-715.8" font-family="Arial" font-weight="bold" font-size="14.00"> </text>
<path fill="#ebebeb" stroke="transparent" d="M527,-643C527,-643 611,-643 611,-643 617,-643 623,-649 623,-655 623,-655 623,-695 623,-695 623,-701 617,-707 611,-707 611,-707 527,-707 527,-707 521,-707 515,-701 515,-695 515,-695 515,-655 515,-655 515,-649 521,-643 527,-643"/>
<text text-anchor="start" x="516" y="-704.4" font-family="Arial" font-size="2.00"> </text>
<text text-anchor="start" x="516" y="-698.4" font-family="Arial" font-size="7.00"> &#160;1</text>
<text text-anchor="start" x="530" y="-681.8" font-family="Arial" font-weight="bold" font-size="14.00">Mean: 10.76</text>
<text text-anchor="start" x="545.5" y="-664.8" font-family="Arial" font-weight="bold" font-size="14.00">n = 672</text>
<text text-anchor="start" x="567.5" y="-646.8" font-family="Arial" font-size="9.00"> </text>
<path fill="none" stroke="#333333" d="M527,-643C527,-643 611,-643 611,-643 617,-643 623,-649 623,-655 623,-655 623,-695 623,-695 623,-701 617,-707 611,-707 611,-707 527,-707 527,-707 521,-707 515,-701 515,-695 515,-695 515,-655 515,-655 515,-649 521,-643 527,-643"/>
<text text-anchor="start" x="554.5" y="-628.8" font-family="Arial" font-weight="bold" font-size="14.00">time</text>
</g>
<!-- 2 -->
<g id="node2" class="node">
<title>2</title>
<text text-anchor="start" x="400.5" y="-561.8" font-family="Arial" font-weight="bold" font-size="14.00"> &lt; 5.5</text>
<text text-anchor="start" x="346" y="-517.3" font-family="Arial" font-size="14.00"> &#160;&#160;&#160;</text>
<path fill="#ebebeb" stroke="transparent" d="M376,-489C376,-489 460,-489 460,-489 466,-489 472,-495 472,-501 472,-501 472,-541 472,-541 472,-547 466,-553 460,-553 460,-553 376,-553 376,-553 370,-553 364,-547 364,-541 364,-541 364,-501 364,-501 364,-495 370,-489 376,-489"/>
<text text-anchor="start" x="365" y="-550.4" font-family="Arial" font-size="2.00"> </text>
<text text-anchor="start" x="365" y="-544.4" font-family="Arial" font-size="7.00"> &#160;2</text>
<text text-anchor="start" x="379" y="-527.8" font-family="Arial" font-weight="bold" font-size="14.00">Mean: 8.605</text>
<text text-anchor="start" x="394.5" y="-510.8" font-family="Arial" font-weight="bold" font-size="14.00">n = 168</text>
<text text-anchor="start" x="416.5" y="-492.8" font-family="Arial" font-size="9.00"> </text>
<path fill="none" stroke="#333333" d="M376,-489C376,-489 460,-489 460,-489 466,-489 472,-495 472,-501 472,-501 472,-541 472,-541 472,-547 466,-553 460,-553 460,-553 376,-553 376,-553 370,-553 364,-547 364,-541 364,-541 364,-501 364,-501 364,-495 370,-489 376,-489"/>
<text text-anchor="start" x="474" y="-517.3" font-family="Arial" font-size="14.00"> &#160;&#160;&#160;</text>
<text text-anchor="start" x="360.5" y="-474.8" font-family="Arial" font-weight="bold" font-size="14.00">prev_168h_inflow</text>
</g>
<!-- 1&#45;&gt;2 -->
<g id="edge1" class="edge">
<title>1&#45;&gt;2</title>
<path fill="none" stroke="#888888" d="M511.05,-615.67C501.84,-606.39 492.26,-596.75 482.9,-587.33"/>
<polygon fill="#888888" stroke="#888888" points="485.32,-584.8 475.79,-580.18 480.36,-589.74 485.32,-584.8"/>
</g>
<!-- 9 -->
<g id="node3" class="node">
<title>9</title>
<text text-anchor="start" x="608.5" y="-561.8" font-family="Arial" font-weight="bold" font-size="14.00"> ≥ 5.5</text>
<text text-anchor="start" x="562" y="-517.3" font-family="Arial" font-size="14.00"> &#160;</text>
<path fill="#ebebeb" stroke="transparent" d="M584,-489C584,-489 667,-489 667,-489 673,-489 679,-495 679,-501 679,-501 679,-541 679,-541 679,-547 673,-553 667,-553 667,-553 584,-553 584,-553 578,-553 572,-547 572,-541 572,-541 572,-501 572,-501 572,-495 578,-489 584,-489"/>
<text text-anchor="start" x="573" y="-550.4" font-family="Arial" font-size="2.00"> </text>
<text text-anchor="start" x="573" y="-544.4" font-family="Arial" font-size="7.00"> &#160;9</text>
<text text-anchor="start" x="587" y="-527.8" font-family="Arial" font-weight="bold" font-size="14.00">Mean: 11.48</text>
<text text-anchor="start" x="602" y="-510.8" font-family="Arial" font-weight="bold" font-size="14.00">n = 504</text>
<text text-anchor="start" x="624" y="-492.8" font-family="Arial" font-size="9.00"> </text>
<path fill="none" stroke="#333333" d="M584,-489C584,-489 667,-489 667,-489 673,-489 679,-495 679,-501 679,-501 679,-541 679,-541 679,-547 673,-553 667,-553 667,-553 584,-553 584,-553 578,-553 572,-547 572,-541 572,-541 572,-501 572,-501 572,-495 578,-489 584,-489"/>
<text text-anchor="start" x="681" y="-517.3" font-family="Arial" font-size="14.00"> &#160;</text>
<text text-anchor="start" x="574" y="-474.8" font-family="Arial" font-weight="bold" font-size="14.00">min_24h_inflow</text>
</g>
<!-- 1&#45;&gt;9 -->
<g id="edge2" class="edge">
<title>1&#45;&gt;9</title>
<path fill="none" stroke="#888888" d="M590.49,-615.67C593.61,-607.21 596.83,-598.45 600.01,-589.83"/>
<polygon fill="#888888" stroke="#888888" points="603.39,-590.77 603.57,-580.18 596.83,-588.35 603.39,-590.77"/>
</g>
<!-- 3 -->
<g id="node4" class="node">
<title>3</title>
<text text-anchor="start" x="200" y="-407.8" font-family="Arial" font-weight="bold" font-size="14.00"> &lt; 14.06</text>
<text text-anchor="start" x="161" y="-363.3" font-family="Arial" font-size="14.00"> &#160;</text>
<path fill="#ebebeb" stroke="transparent" d="M183,-335C183,-335 267,-335 267,-335 273,-335 279,-341 279,-347 279,-347 279,-387 279,-387 279,-393 273,-399 267,-399 267,-399 183,-399 183,-399 177,-399 171,-393 171,-387 171,-387 171,-347 171,-347 171,-341 177,-335 183,-335"/>
<text text-anchor="start" x="172" y="-396.4" font-family="Arial" font-size="2.00"> </text>
<text text-anchor="start" x="172" y="-390.4" font-family="Arial" font-size="7.00"> &#160;3</text>
<text text-anchor="start" x="186" y="-373.8" font-family="Arial" font-weight="bold" font-size="14.00">Mean: 8.073</text>
<text text-anchor="start" x="201.5" y="-356.8" font-family="Arial" font-weight="bold" font-size="14.00">n = 160</text>
<text text-anchor="start" x="223.5" y="-338.8" font-family="Arial" font-size="9.00"> </text>
<path fill="none" stroke="#333333" d="M183,-335C183,-335 267,-335 267,-335 273,-335 279,-341 279,-347 279,-347 279,-387 279,-387 279,-393 273,-399 267,-399 267,-399 183,-399 183,-399 177,-399 171,-393 171,-387 171,-387 171,-347 171,-347 171,-341 177,-335 183,-335"/>
<text text-anchor="start" x="281" y="-363.3" font-family="Arial" font-size="14.00"> &#160;</text>
<text text-anchor="start" x="173.5" y="-320.8" font-family="Arial" font-weight="bold" font-size="14.00">min_24h_inflow</text>
</g>
<!-- 2&#45;&gt;3 -->
<g id="edge3" class="edge">
<title>2&#45;&gt;3</title>
<path fill="none" stroke="#888888" d="M344.21,-461.88C331.99,-452.26 319.25,-442.23 306.85,-432.46"/>
<polygon fill="#888888" stroke="#888888" points="308.77,-429.52 298.75,-426.08 304.44,-435.02 308.77,-429.52"/>
</g>
<!-- 8 -->
<g id="node5" class="node">
<title>8</title>
<text text-anchor="start" x="393.5" y="-407.8" font-family="Arial" font-weight="bold" font-size="14.00"> ≥ 14.06</text>
<path fill="#f8766d" fill-opacity="0.376471" stroke="transparent" d="M373,-335C373,-335 463,-335 463,-335 469,-335 475,-341 475,-347 475,-347 475,-387 475,-387 475,-393 469,-399 463,-399 463,-399 373,-399 373,-399 367,-399 361,-393 361,-387 361,-387 361,-347 361,-347 361,-341 367,-335 373,-335"/>
<text text-anchor="start" x="362" y="-396.4" font-family="Arial" font-size="2.00"> </text>
<text text-anchor="start" x="362" y="-390.4" font-family="Arial" font-size="7.00"> &#160;8</text>
<text text-anchor="start" x="376" y="-373.8" font-family="Arial" font-weight="bold" font-size="14.00">Predict 19.23</text>
<text text-anchor="start" x="402" y="-356.8" font-family="Arial" font-weight="bold" font-size="14.00">n = 8</text>
<text text-anchor="start" x="416.5" y="-338.8" font-family="Arial" font-size="9.00"> </text>
<path fill="none" stroke="#333333" d="M373,-335C373,-335 463,-335 463,-335 469,-335 475,-341 475,-347 475,-347 475,-387 475,-387 475,-393 469,-399 463,-399 463,-399 373,-399 373,-399 367,-399 361,-393 361,-387 361,-387 361,-347 361,-347 361,-341 367,-335 373,-335"/>
<text text-anchor="start" x="416" y="-320.8" font-family="Arial" font-weight="bold" font-size="14.00"> </text>
</g>
<!-- 2&#45;&gt;8 -->
<g id="edge4" class="edge">
<title>2&#45;&gt;8</title>
<path fill="none" stroke="#888888" d="M418,-461.67C418,-453.39 418,-444.83 418,-436.38"/>
<polygon fill="#888888" stroke="#888888" points="421.5,-436.18 418,-426.18 414.5,-436.18 421.5,-436.18"/>
</g>
<!-- 10 -->
<g id="node10" class="node">
<title>10</title>
<text text-anchor="start" x="600" y="-407.8" font-family="Arial" font-weight="bold" font-size="14.00"> &lt; 6.985</text>
<text text-anchor="start" x="557" y="-363.3" font-family="Arial" font-size="14.00"> &#160;&#160;</text>
<path fill="#ebebeb" stroke="transparent" d="M583,-335C583,-335 667,-335 667,-335 673,-335 679,-341 679,-347 679,-347 679,-387 679,-387 679,-393 673,-399 667,-399 667,-399 583,-399 583,-399 577,-399 571,-393 571,-387 571,-387 571,-347 571,-347 571,-341 577,-335 583,-335"/>
<text text-anchor="start" x="572" y="-396.4" font-family="Arial" font-size="2.00"> </text>
<text text-anchor="start" x="572" y="-390.4" font-family="Arial" font-size="7.00"> &#160;10</text>
<text text-anchor="start" x="586" y="-373.8" font-family="Arial" font-weight="bold" font-size="14.00">Mean: 10.72</text>
<text text-anchor="start" x="601.5" y="-356.8" font-family="Arial" font-weight="bold" font-size="14.00">n = 289</text>
<text text-anchor="start" x="623.5" y="-338.8" font-family="Arial" font-size="9.00"> </text>
<path fill="none" stroke="#333333" d="M583,-335C583,-335 667,-335 667,-335 673,-335 679,-341 679,-347 679,-347 679,-387 679,-387 679,-393 673,-399 667,-399 667,-399 583,-399 583,-399 577,-399 571,-393 571,-387 571,-387 571,-347 571,-347 571,-341 577,-335 583,-335"/>
<text text-anchor="start" x="681" y="-363.3" font-family="Arial" font-size="14.00"> &#160;&#160;</text>
<text text-anchor="start" x="571.5" y="-320.8" font-family="Arial" font-weight="bold" font-size="14.00">prev_24h_inflow</text>
</g>
<!-- 9&#45;&gt;10 -->
<g id="edge9" class="edge">
<title>9&#45;&gt;10</title>
<path fill="none" stroke="#888888" d="M625,-461.67C625,-453.39 625,-444.83 625,-436.38"/>
<polygon fill="#888888" stroke="#888888" points="628.5,-436.18 625,-426.18 621.5,-436.18 628.5,-436.18"/>
</g>
<!-- 17 -->
<g id="node11" class="node">
<title>17</title>
<text text-anchor="start" x="1039.5" y="-407.8" font-family="Arial" font-weight="bold" font-size="14.00"> ≥ 6.985</text>
<text text-anchor="start" x="996" y="-363.3" font-family="Arial" font-size="14.00"> &#160;&#160;&#160;</text>
<path fill="#ebebeb" stroke="transparent" d="M1026,-335C1026,-335 1102,-335 1102,-335 1108,-335 1114,-341 1114,-347 1114,-347 1114,-387 1114,-387 1114,-393 1108,-399 1102,-399 1102,-399 1026,-399 1026,-399 1020,-399 1014,-393 1014,-387 1014,-387 1014,-347 1014,-347 1014,-341 1020,-335 1026,-335"/>
<text text-anchor="start" x="1015" y="-396.4" font-family="Arial" font-size="2.00"> </text>
<text text-anchor="start" x="1015" y="-390.4" font-family="Arial" font-size="7.00"> &#160;17</text>
<text text-anchor="start" x="1029" y="-373.8" font-family="Arial" font-weight="bold" font-size="14.00">Mean: 12.5</text>
<text text-anchor="start" x="1040.5" y="-356.8" font-family="Arial" font-weight="bold" font-size="14.00">n = 215</text>
<text text-anchor="start" x="1062.5" y="-338.8" font-family="Arial" font-size="9.00"> </text>
<path fill="none" stroke="#333333" d="M1026,-335C1026,-335 1102,-335 1102,-335 1108,-335 1114,-341 1114,-347 1114,-347 1114,-387 1114,-387 1114,-393 1108,-399 1102,-399 1102,-399 1026,-399 1026,-399 1020,-399 1014,-393 1014,-387 1014,-387 1014,-347 1014,-347 1014,-341 1020,-335 1026,-335"/>
<text text-anchor="start" x="1116" y="-363.3" font-family="Arial" font-size="14.00"> &#160;&#160;&#160;</text>
<text text-anchor="start" x="1006.5" y="-320.8" font-family="Arial" font-weight="bold" font-size="14.00">prev_168h_inflow</text>
</g>
<!-- 9&#45;&gt;17 -->
<g id="edge10" class="edge">
<title>9&#45;&gt;17</title>
<path fill="none" stroke="#888888" d="M698.97,-494.39C775.41,-467.92 894.68,-426.62 975.93,-398.49"/>
<polygon fill="#888888" stroke="#888888" points="977.34,-401.71 985.65,-395.13 975.05,-395.09 977.34,-401.71"/>
</g>
<!-- 4 -->
<g id="node6" class="node">
<title>4</title>
<text text-anchor="start" x="43" y="-253.8" font-family="Arial" font-weight="bold" font-size="14.00"> &lt; 6.205</text>
<path fill="#f8766d" fill-opacity="0.874510" stroke="transparent" d="M27,-181C27,-181 109,-181 109,-181 115,-181 121,-187 121,-193 121,-193 121,-233 121,-233 121,-239 115,-245 109,-245 109,-245 27,-245 27,-245 21,-245 15,-239 15,-233 15,-233 15,-193 15,-193 15,-187 21,-181 27,-181"/>
<text text-anchor="start" x="16" y="-242.4" font-family="Arial" font-size="2.00"> </text>
<text text-anchor="start" x="16" y="-236.4" font-family="Arial" font-size="7.00"> &#160;4</text>
<text text-anchor="start" x="30" y="-219.8" font-family="Arial" font-weight="bold" font-size="14.00">Predict 6.95</text>
<text text-anchor="start" x="48" y="-202.8" font-family="Arial" font-weight="bold" font-size="14.00">n = 64</text>
<text text-anchor="start" x="66.5" y="-184.8" font-family="Arial" font-size="9.00"> </text>
<path fill="none" stroke="#333333" d="M27,-181C27,-181 109,-181 109,-181 115,-181 121,-187 121,-193 121,-193 121,-233 121,-233 121,-239 115,-245 109,-245 109,-245 27,-245 27,-245 21,-245 15,-239 15,-233 15,-233 15,-193 15,-193 15,-187 21,-181 27,-181"/>
<text text-anchor="start" x="66" y="-166.8" font-family="Arial" font-weight="bold" font-size="14.00"> </text>
</g>
<!-- 3&#45;&gt;4 -->
<g id="edge5" class="edge">
<title>3&#45;&gt;4</title>
<path fill="none" stroke="#888888" d="M164.75,-307.67C155.17,-298.39 145.21,-288.75 135.48,-279.33"/>
<polygon fill="#888888" stroke="#888888" points="137.71,-276.62 128.09,-272.18 132.84,-281.65 137.71,-276.62"/>
</g>
<!-- 5 -->
<g id="node7" class="node">
<title>5</title>
<text text-anchor="start" x="200.5" y="-253.8" font-family="Arial" font-weight="bold" font-size="14.00"> ≥ 6.205</text>
<text text-anchor="start" x="161" y="-209.3" font-family="Arial" font-size="14.00"> &#160;</text>
<path fill="#ebebeb" stroke="transparent" d="M183,-181C183,-181 267,-181 267,-181 273,-181 279,-187 279,-193 279,-193 279,-233 279,-233 279,-239 273,-245 267,-245 267,-245 183,-245 183,-245 177,-245 171,-239 171,-233 171,-233 171,-193 171,-193 171,-187 177,-181 183,-181"/>
<text text-anchor="start" x="172" y="-242.4" font-family="Arial" font-size="2.00"> </text>
<text text-anchor="start" x="172" y="-236.4" font-family="Arial" font-size="7.00"> &#160;5</text>
<text text-anchor="start" x="186" y="-219.8" font-family="Arial" font-weight="bold" font-size="14.00">Mean: 8.822</text>
<text text-anchor="start" x="205" y="-202.8" font-family="Arial" font-weight="bold" font-size="14.00">n = 96</text>
<text text-anchor="start" x="223.5" y="-184.8" font-family="Arial" font-size="9.00"> </text>
<path fill="none" stroke="#333333" d="M183,-181C183,-181 267,-181 267,-181 273,-181 279,-187 279,-193 279,-193 279,-233 279,-233 279,-239 273,-245 267,-245 267,-245 183,-245 183,-245 177,-245 171,-239 171,-233 171,-233 171,-193 171,-193 171,-187 177,-181 183,-181"/>
<text text-anchor="start" x="281" y="-209.3" font-family="Arial" font-size="14.00"> &#160;</text>
<text text-anchor="start" x="173.5" y="-166.8" font-family="Arial" font-weight="bold" font-size="14.00">min_24h_inflow</text>
</g>
<!-- 3&#45;&gt;5 -->
<g id="edge6" class="edge">
<title>3&#45;&gt;5</title>
<path fill="none" stroke="#888888" d="M225,-307.67C225,-299.39 225,-290.83 225,-282.38"/>
<polygon fill="#888888" stroke="#888888" points="228.5,-282.18 225,-272.18 221.5,-282.18 228.5,-282.18"/>
</g>
<!-- 6 -->
<g id="node8" class="node">
<title>6</title>
<text text-anchor="start" x="44" y="-99.8" font-family="Arial" font-weight="bold" font-size="14.00"> &lt; 8.125</text>
<path fill="#f8766d" fill-opacity="0.811765" stroke="transparent" d="M24,-27C24,-27 114,-27 114,-27 120,-27 126,-33 126,-39 126,-39 126,-79 126,-79 126,-85 120,-91 114,-91 114,-91 24,-91 24,-91 18,-91 12,-85 12,-79 12,-79 12,-39 12,-39 12,-33 18,-27 24,-27"/>
<text text-anchor="start" x="13" y="-88.4" font-family="Arial" font-size="2.00"> </text>
<text text-anchor="start" x="13" y="-82.4" font-family="Arial" font-size="7.00"> &#160;6</text>
<text text-anchor="start" x="27" y="-65.8" font-family="Arial" font-weight="bold" font-size="14.00">Predict 8.547</text>
<text text-anchor="start" x="49" y="-48.8" font-family="Arial" font-weight="bold" font-size="14.00">n = 83</text>
<text text-anchor="start" x="67.5" y="-30.8" font-family="Arial" font-size="9.00"> </text>
<path fill="none" stroke="#333333" d="M24,-27C24,-27 114,-27 114,-27 120,-27 126,-33 126,-39 126,-39 126,-79 126,-79 126,-85 120,-91 114,-91 114,-91 24,-91 24,-91 18,-91 12,-85 12,-79 12,-79 12,-39 12,-39 12,-33 18,-27 24,-27"/>
<text text-anchor="start" x="67" y="-12.8" font-family="Arial" font-weight="bold" font-size="14.00"> </text>
</g>
<!-- 5&#45;&gt;6 -->
<g id="edge7" class="edge">
<title>5&#45;&gt;6</title>
<path fill="none" stroke="#888888" d="M165.13,-153.67C155.62,-144.39 145.72,-134.75 136.05,-125.33"/>
<polygon fill="#888888" stroke="#888888" points="138.31,-122.65 128.71,-118.18 133.43,-127.66 138.31,-122.65"/>
</g>
<!-- 7 -->
<g id="node9" class="node">
<title>7</title>
<text text-anchor="start" x="200.5" y="-99.8" font-family="Arial" font-weight="bold" font-size="14.00"> ≥ 8.125</text>
<path fill="#f8766d" fill-opacity="0.725490" stroke="transparent" d="M180,-27C180,-27 270,-27 270,-27 276,-27 282,-33 282,-39 282,-39 282,-79 282,-79 282,-85 276,-91 270,-91 270,-91 180,-91 180,-91 174,-91 168,-85 168,-79 168,-79 168,-39 168,-39 168,-33 174,-27 180,-27"/>
<text text-anchor="start" x="169" y="-88.4" font-family="Arial" font-size="2.00"> </text>
<text text-anchor="start" x="169" y="-82.4" font-family="Arial" font-size="7.00"> &#160;7</text>
<text text-anchor="start" x="183" y="-65.8" font-family="Arial" font-weight="bold" font-size="14.00">Predict 10.58</text>
<text text-anchor="start" x="205" y="-48.8" font-family="Arial" font-weight="bold" font-size="14.00">n = 13</text>
<text text-anchor="start" x="223.5" y="-30.8" font-family="Arial" font-size="9.00"> </text>
<path fill="none" stroke="#333333" d="M180,-27C180,-27 270,-27 270,-27 276,-27 282,-33 282,-39 282,-39 282,-79 282,-79 282,-85 276,-91 270,-91 270,-91 180,-91 180,-91 174,-91 168,-85 168,-79 168,-79 168,-39 168,-39 168,-33 174,-27 180,-27"/>
<text text-anchor="start" x="223" y="-12.8" font-family="Arial" font-weight="bold" font-size="14.00"> </text>
</g>
<!-- 5&#45;&gt;7 -->
<g id="edge8" class="edge">
<title>5&#45;&gt;7</title>
<path fill="none" stroke="#888888" d="M225,-153.67C225,-145.39 225,-136.83 225,-128.38"/>
<polygon fill="#888888" stroke="#888888" points="228.5,-128.18 225,-118.18 221.5,-128.18 228.5,-128.18"/>
</g>
<!-- 11 -->
<g id="node12" class="node">
<title>11</title>
<text text-anchor="start" x="512" y="-253.8" font-family="Arial" font-weight="bold" font-size="14.00"> &lt; 10.71</text>
<path fill="#ebebeb" stroke="transparent" d="M499,-181C499,-181 575,-181 575,-181 581,-181 587,-187 587,-193 587,-193 587,-233 587,-233 587,-239 581,-245 575,-245 575,-245 499,-245 499,-245 493,-245 487,-239 487,-233 487,-233 487,-193 487,-193 487,-187 493,-181 499,-181"/>
<text text-anchor="start" x="488" y="-242.4" font-family="Arial" font-size="2.00"> </text>
<text text-anchor="start" x="488" y="-236.4" font-family="Arial" font-size="7.00"> &#160;11</text>
<text text-anchor="start" x="502" y="-219.8" font-family="Arial" font-weight="bold" font-size="14.00">Mean: 9.89</text>
<text text-anchor="start" x="513.5" y="-202.8" font-family="Arial" font-weight="bold" font-size="14.00">n = 145</text>
<text text-anchor="start" x="535.5" y="-184.8" font-family="Arial" font-size="9.00"> </text>
<path fill="none" stroke="#333333" d="M499,-181C499,-181 575,-181 575,-181 581,-181 587,-187 587,-193 587,-193 587,-233 587,-233 587,-239 581,-245 575,-245 575,-245 499,-245 499,-245 493,-245 487,-239 487,-233 487,-233 487,-193 487,-193 487,-187 493,-181 499,-181"/>
<text text-anchor="start" x="522.5" y="-166.8" font-family="Arial" font-weight="bold" font-size="14.00">time</text>
</g>
<!-- 10&#45;&gt;11 -->
<g id="edge11" class="edge">
<title>10&#45;&gt;11</title>
<path fill="none" stroke="#888888" d="M591.23,-307.67C586.18,-298.94 580.93,-289.88 575.79,-280.99"/>
<polygon fill="#888888" stroke="#888888" points="578.72,-279.08 570.68,-272.18 572.66,-282.58 578.72,-279.08"/>
</g>
<!-- 14 -->
<g id="node13" class="node">
<title>14</title>
<text text-anchor="start" x="665" y="-253.8" font-family="Arial" font-weight="bold" font-size="14.00"> ≥ 10.71</text>
<path fill="#ebebeb" stroke="transparent" d="M648,-181C648,-181 731,-181 731,-181 737,-181 743,-187 743,-193 743,-193 743,-233 743,-233 743,-239 737,-245 731,-245 731,-245 648,-245 648,-245 642,-245 636,-239 636,-233 636,-233 636,-193 636,-193 636,-187 642,-181 648,-181"/>
<text text-anchor="start" x="637" y="-242.4" font-family="Arial" font-size="2.00"> </text>
<text text-anchor="start" x="637" y="-236.4" font-family="Arial" font-size="7.00"> &#160;14</text>
<text text-anchor="start" x="651" y="-219.8" font-family="Arial" font-weight="bold" font-size="14.00">Mean: 11.55</text>
<text text-anchor="start" x="666" y="-202.8" font-family="Arial" font-weight="bold" font-size="14.00">n = 144</text>
<text text-anchor="start" x="688" y="-184.8" font-family="Arial" font-size="9.00"> </text>
<path fill="none" stroke="#333333" d="M648,-181C648,-181 731,-181 731,-181 737,-181 743,-187 743,-193 743,-193 743,-233 743,-233 743,-239 737,-245 731,-245 731,-245 648,-245 648,-245 642,-245 636,-239 636,-233 636,-233 636,-193 636,-193 636,-187 642,-181 648,-181"/>
<text text-anchor="start" x="647" y="-166.8" font-family="Arial" font-weight="bold" font-size="14.00">day_of_week</text>
</g>
<!-- 10&#45;&gt;14 -->
<g id="edge12" class="edge">
<title>10&#45;&gt;14</title>
<path fill="none" stroke="#888888" d="M649.56,-307.67C653.16,-299.12 656.89,-290.26 660.56,-281.55"/>
<polygon fill="#888888" stroke="#888888" points="663.85,-282.75 664.5,-272.18 657.4,-280.03 663.85,-282.75"/>
</g>
<!-- 18 -->
<g id="node18" class="node">
<title>18</title>
<text text-anchor="start" x="1039" y="-253.8" font-family="Arial" font-weight="bold" font-size="14.00"> &lt; 10.59</text>
<text text-anchor="start" x="992" y="-209.3" font-family="Arial" font-size="14.00"> &#160;&#160;&#160;</text>
<path fill="#ebebeb" stroke="transparent" d="M1022,-181C1022,-181 1106,-181 1106,-181 1112,-181 1118,-187 1118,-193 1118,-193 1118,-233 1118,-233 1118,-239 1112,-245 1106,-245 1106,-245 1022,-245 1022,-245 1016,-245 1010,-239 1010,-233 1010,-233 1010,-193 1010,-193 1010,-187 1016,-181 1022,-181"/>
<text text-anchor="start" x="1011" y="-242.4" font-family="Arial" font-size="2.00"> </text>
<text text-anchor="start" x="1011" y="-236.4" font-family="Arial" font-size="7.00"> &#160;18</text>
<text text-anchor="start" x="1025" y="-219.8" font-family="Arial" font-weight="bold" font-size="14.00">Mean: 10.55</text>
<text text-anchor="start" x="1044" y="-202.8" font-family="Arial" font-weight="bold" font-size="14.00">n = 59</text>
<text text-anchor="start" x="1062.5" y="-184.8" font-family="Arial" font-size="9.00"> </text>
<path fill="none" stroke="#333333" d="M1022,-181C1022,-181 1106,-181 1106,-181 1112,-181 1118,-187 1118,-193 1118,-193 1118,-233 1118,-233 1118,-239 1112,-245 1106,-245 1106,-245 1022,-245 1022,-245 1016,-245 1010,-239 1010,-233 1010,-233 1010,-193 1010,-193 1010,-187 1016,-181 1022,-181"/>
<text text-anchor="start" x="1120" y="-209.3" font-family="Arial" font-size="14.00"> &#160;&#160;&#160;</text>
<text text-anchor="start" x="1006.5" y="-166.8" font-family="Arial" font-weight="bold" font-size="14.00">prev_168h_inflow</text>
</g>
<!-- 17&#45;&gt;18 -->
<g id="edge17" class="edge">
<title>17&#45;&gt;18</title>
<path fill="none" stroke="#888888" d="M1064,-307.67C1064,-299.39 1064,-290.83 1064,-282.38"/>
<polygon fill="#888888" stroke="#888888" points="1067.5,-282.18 1064,-272.18 1060.5,-282.18 1067.5,-282.18"/>
</g>
<!-- 21 -->
<g id="node19" class="node">
<title>21</title>
<text text-anchor="start" x="1284.5" y="-253.8" font-family="Arial" font-weight="bold" font-size="14.00"> ≥ 10.59</text>
<text text-anchor="start" x="1241" y="-209.3" font-family="Arial" font-size="14.00"> &#160;&#160;</text>
<path fill="#ebebeb" stroke="transparent" d="M1267,-181C1267,-181 1351,-181 1351,-181 1357,-181 1363,-187 1363,-193 1363,-193 1363,-233 1363,-233 1363,-239 1357,-245 1351,-245 1351,-245 1267,-245 1267,-245 1261,-245 1255,-239 1255,-233 1255,-233 1255,-193 1255,-193 1255,-187 1261,-181 1267,-181"/>
<text text-anchor="start" x="1256" y="-242.4" font-family="Arial" font-size="2.00"> </text>
<text text-anchor="start" x="1256" y="-236.4" font-family="Arial" font-size="7.00"> &#160;21</text>
<text text-anchor="start" x="1270" y="-219.8" font-family="Arial" font-weight="bold" font-size="14.00">Mean: 13.24</text>
<text text-anchor="start" x="1285.5" y="-202.8" font-family="Arial" font-weight="bold" font-size="14.00">n = 156</text>
<text text-anchor="start" x="1307.5" y="-184.8" font-family="Arial" font-size="9.00"> </text>
<path fill="none" stroke="#333333" d="M1267,-181C1267,-181 1351,-181 1351,-181 1357,-181 1363,-187 1363,-193 1363,-193 1363,-233 1363,-233 1363,-239 1357,-245 1351,-245 1351,-245 1267,-245 1267,-245 1261,-245 1255,-239 1255,-233 1255,-233 1255,-193 1255,-193 1255,-187 1261,-181 1267,-181"/>
<text text-anchor="start" x="1365" y="-209.3" font-family="Arial" font-size="14.00"> &#160;&#160;</text>
<text text-anchor="start" x="1255.5" y="-166.8" font-family="Arial" font-weight="bold" font-size="14.00">prev_24h_inflow</text>
</g>
<!-- 17&#45;&gt;21 -->
<g id="edge18" class="edge">
<title>17&#45;&gt;21</title>
<path fill="none" stroke="#888888" d="M1142.19,-317.49C1167.61,-301.72 1195.96,-284.13 1221.98,-267.99"/>
<polygon fill="#888888" stroke="#888888" points="1224.06,-270.82 1230.71,-262.57 1220.37,-264.87 1224.06,-270.82"/>
</g>
<!-- 12 -->
<g id="node14" class="node">
<title>12</title>
<text text-anchor="start" x="359.5" y="-99.8" font-family="Arial" font-weight="bold" font-size="14.00"> &lt; 21.5</text>
<path fill="#f8766d" fill-opacity="0.737255" stroke="transparent" d="M336,-27C336,-27 426,-27 426,-27 432,-27 438,-33 438,-39 438,-39 438,-79 438,-79 438,-85 432,-91 426,-91 426,-91 336,-91 336,-91 330,-91 324,-85 324,-79 324,-79 324,-39 324,-39 324,-33 330,-27 336,-27"/>
<text text-anchor="start" x="325" y="-88.4" font-family="Arial" font-size="2.00"> </text>
<text text-anchor="start" x="325" y="-82.4" font-family="Arial" font-size="7.00"> &#160;12</text>
<text text-anchor="start" x="339" y="-65.8" font-family="Arial" font-weight="bold" font-size="14.00">Predict 10.31</text>
<text text-anchor="start" x="358" y="-48.8" font-family="Arial" font-weight="bold" font-size="14.00">n = 115</text>
<text text-anchor="start" x="379.5" y="-30.8" font-family="Arial" font-size="9.00"> </text>
<path fill="none" stroke="#333333" d="M336,-27C336,-27 426,-27 426,-27 432,-27 438,-33 438,-39 438,-39 438,-79 438,-79 438,-85 432,-91 426,-91 426,-91 336,-91 336,-91 330,-91 324,-85 324,-79 324,-79 324,-39 324,-39 324,-33 330,-27 336,-27"/>
<text text-anchor="start" x="379" y="-12.8" font-family="Arial" font-weight="bold" font-size="14.00"> </text>
</g>
<!-- 11&#45;&gt;12 -->
<g id="edge13" class="edge">
<title>11&#45;&gt;12</title>
<path fill="none" stroke="#888888" d="M477.13,-153.67C467.62,-144.39 457.72,-134.75 448.05,-125.33"/>
<polygon fill="#888888" stroke="#888888" points="450.31,-122.65 440.71,-118.18 445.43,-127.66 450.31,-122.65"/>
</g>
<!-- 13 -->
<g id="node15" class="node">
<title>13</title>
<text text-anchor="start" x="516" y="-99.8" font-family="Arial" font-weight="bold" font-size="14.00"> ≥ 21.5</text>
<path fill="#f8766d" fill-opacity="0.819608" stroke="transparent" d="M492,-27C492,-27 582,-27 582,-27 588,-27 594,-33 594,-39 594,-39 594,-79 594,-79 594,-85 588,-91 582,-91 582,-91 492,-91 492,-91 486,-91 480,-85 480,-79 480,-79 480,-39 480,-39 480,-33 486,-27 492,-27"/>
<text text-anchor="start" x="481" y="-88.4" font-family="Arial" font-size="2.00"> </text>
<text text-anchor="start" x="481" y="-82.4" font-family="Arial" font-size="7.00"> &#160;13</text>
<text text-anchor="start" x="495" y="-65.8" font-family="Arial" font-weight="bold" font-size="14.00">Predict 8.268</text>
<text text-anchor="start" x="517" y="-48.8" font-family="Arial" font-weight="bold" font-size="14.00">n = 30</text>
<text text-anchor="start" x="535.5" y="-30.8" font-family="Arial" font-size="9.00"> </text>
<path fill="none" stroke="#333333" d="M492,-27C492,-27 582,-27 582,-27 588,-27 594,-33 594,-39 594,-39 594,-79 594,-79 594,-85 588,-91 582,-91 582,-91 492,-91 492,-91 486,-91 480,-85 480,-79 480,-79 480,-39 480,-39 480,-33 486,-27 492,-27"/>
<text text-anchor="start" x="535" y="-12.8" font-family="Arial" font-weight="bold" font-size="14.00"> </text>
</g>
<!-- 11&#45;&gt;13 -->
<g id="edge14" class="edge">
<title>11&#45;&gt;13</title>
<path fill="none" stroke="#888888" d="M537,-153.67C537,-145.39 537,-136.83 537,-128.38"/>
<polygon fill="#888888" stroke="#888888" points="540.5,-128.18 537,-118.18 533.5,-128.18 540.5,-128.18"/>
</g>
<!-- 15 -->
<g id="node16" class="node">
<title>15</title>
<text text-anchor="start" x="671.5" y="-99.8" font-family="Arial" font-weight="bold" font-size="14.00"> &lt; 2.5</text>
<path fill="#f8766d" fill-opacity="0.643137" stroke="transparent" d="M648,-27C648,-27 730,-27 730,-27 736,-27 742,-33 742,-39 742,-39 742,-79 742,-79 742,-85 736,-91 730,-91 730,-91 648,-91 648,-91 642,-91 636,-85 636,-79 636,-79 636,-39 636,-39 636,-33 642,-27 648,-27"/>
<text text-anchor="start" x="637" y="-88.4" font-family="Arial" font-size="2.00"> </text>
<text text-anchor="start" x="637" y="-82.4" font-family="Arial" font-size="7.00"> &#160;15</text>
<text text-anchor="start" x="651" y="-65.8" font-family="Arial" font-weight="bold" font-size="14.00">Predict 12.6</text>
<text text-anchor="start" x="669" y="-48.8" font-family="Arial" font-weight="bold" font-size="14.00">n = 44</text>
<text text-anchor="start" x="687.5" y="-30.8" font-family="Arial" font-size="9.00"> </text>
<path fill="none" stroke="#333333" d="M648,-27C648,-27 730,-27 730,-27 736,-27 742,-33 742,-39 742,-39 742,-79 742,-79 742,-85 736,-91 730,-91 730,-91 648,-91 648,-91 642,-91 636,-85 636,-79 636,-79 636,-39 636,-39 636,-33 642,-27 648,-27"/>
<text text-anchor="start" x="687" y="-12.8" font-family="Arial" font-weight="bold" font-size="14.00"> </text>
</g>
<!-- 14&#45;&gt;15 -->
<g id="edge15" class="edge">
<title>14&#45;&gt;15</title>
<path fill="none" stroke="#888888" d="M689,-153.67C689,-145.39 689,-136.83 689,-128.38"/>
<polygon fill="#888888" stroke="#888888" points="692.5,-128.18 689,-118.18 685.5,-128.18 692.5,-128.18"/>
</g>
<!-- 16 -->
<g id="node17" class="node">
<title>16</title>
<text text-anchor="start" x="824.5" y="-99.8" font-family="Arial" font-weight="bold" font-size="14.00"> ≥ 2.5</text>
<path fill="#f8766d" fill-opacity="0.705882" stroke="transparent" d="M797,-27C797,-27 886,-27 886,-27 892,-27 898,-33 898,-39 898,-39 898,-79 898,-79 898,-85 892,-91 886,-91 886,-91 797,-91 797,-91 791,-91 785,-85 785,-79 785,-79 785,-39 785,-39 785,-33 791,-27 797,-27"/>
<text text-anchor="start" x="786" y="-88.4" font-family="Arial" font-size="2.00"> </text>
<text text-anchor="start" x="786" y="-82.4" font-family="Arial" font-size="7.00"> &#160;16</text>
<text text-anchor="start" x="800" y="-65.8" font-family="Arial" font-weight="bold" font-size="14.00">Predict 11.08</text>
<text text-anchor="start" x="818" y="-48.8" font-family="Arial" font-weight="bold" font-size="14.00">n = 100</text>
<text text-anchor="start" x="840" y="-30.8" font-family="Arial" font-size="9.00"> </text>
<path fill="none" stroke="#333333" d="M797,-27C797,-27 886,-27 886,-27 892,-27 898,-33 898,-39 898,-39 898,-79 898,-79 898,-85 892,-91 886,-91 886,-91 797,-91 797,-91 791,-91 785,-85 785,-79 785,-79 785,-39 785,-39 785,-33 791,-27 797,-27"/>
<text text-anchor="start" x="839.5" y="-12.8" font-family="Arial" font-weight="bold" font-size="14.00"> </text>
</g>
<!-- 14&#45;&gt;16 -->
<g id="edge16" class="edge">
<title>14&#45;&gt;16</title>
<path fill="none" stroke="#888888" d="M747.33,-153.67C756.61,-144.39 766.25,-134.75 775.67,-125.33"/>
<polygon fill="#888888" stroke="#888888" points="778.23,-127.72 782.82,-118.18 773.28,-122.77 778.23,-127.72"/>
</g>
<!-- 19 -->
<g id="node20" class="node">
<title>19</title>
<text text-anchor="start" x="972" y="-99.8" font-family="Arial" font-weight="bold" font-size="14.00"> &lt; 9.365</text>
<path fill="#f8766d" fill-opacity="0.756863" stroke="transparent" d="M952,-27C952,-27 1042,-27 1042,-27 1048,-27 1054,-33 1054,-39 1054,-39 1054,-79 1054,-79 1054,-85 1048,-91 1042,-91 1042,-91 952,-91 952,-91 946,-91 940,-85 940,-79 940,-79 940,-39 940,-39 940,-33 946,-27 952,-27"/>
<text text-anchor="start" x="941" y="-88.4" font-family="Arial" font-size="2.00"> </text>
<text text-anchor="start" x="941" y="-82.4" font-family="Arial" font-size="7.00"> &#160;19</text>
<text text-anchor="start" x="955" y="-65.8" font-family="Arial" font-weight="bold" font-size="14.00">Predict 9.824</text>
<text text-anchor="start" x="977" y="-48.8" font-family="Arial" font-weight="bold" font-size="14.00">n = 34</text>
<text text-anchor="start" x="995.5" y="-30.8" font-family="Arial" font-size="9.00"> </text>
<path fill="none" stroke="#333333" d="M952,-27C952,-27 1042,-27 1042,-27 1048,-27 1054,-33 1054,-39 1054,-39 1054,-79 1054,-79 1054,-85 1048,-91 1042,-91 1042,-91 952,-91 952,-91 946,-91 940,-85 940,-79 940,-79 940,-39 940,-39 940,-33 946,-27 952,-27"/>
<text text-anchor="start" x="995" y="-12.8" font-family="Arial" font-weight="bold" font-size="14.00"> </text>
</g>
<!-- 18&#45;&gt;19 -->
<g id="edge19" class="edge">
<title>18&#45;&gt;19</title>
<path fill="none" stroke="#888888" d="M1038.29,-153.67C1034.52,-145.12 1030.61,-136.26 1026.77,-127.55"/>
<polygon fill="#888888" stroke="#888888" points="1029.88,-125.92 1022.64,-118.18 1023.47,-128.74 1029.88,-125.92"/>
</g>
<!-- 20 -->
<g id="node21" class="node">
<title>20</title>
<text text-anchor="start" x="1129" y="-99.8" font-family="Arial" font-weight="bold" font-size="14.00"> ≥ 9.365</text>
<path fill="#f8766d" fill-opacity="0.690196" stroke="transparent" d="M1109,-27C1109,-27 1198,-27 1198,-27 1204,-27 1210,-33 1210,-39 1210,-39 1210,-79 1210,-79 1210,-85 1204,-91 1198,-91 1198,-91 1109,-91 1109,-91 1103,-91 1097,-85 1097,-79 1097,-79 1097,-39 1097,-39 1097,-33 1103,-27 1109,-27"/>
<text text-anchor="start" x="1098" y="-88.4" font-family="Arial" font-size="2.00"> </text>
<text text-anchor="start" x="1098" y="-82.4" font-family="Arial" font-size="7.00"> &#160;20</text>
<text text-anchor="start" x="1112" y="-65.8" font-family="Arial" font-weight="bold" font-size="14.00">Predict 11.53</text>
<text text-anchor="start" x="1133.5" y="-48.8" font-family="Arial" font-weight="bold" font-size="14.00">n = 25</text>
<text text-anchor="start" x="1152" y="-30.8" font-family="Arial" font-size="9.00"> </text>
<path fill="none" stroke="#333333" d="M1109,-27C1109,-27 1198,-27 1198,-27 1204,-27 1210,-33 1210,-39 1210,-39 1210,-79 1210,-79 1210,-85 1204,-91 1198,-91 1198,-91 1109,-91 1109,-91 1103,-91 1097,-85 1097,-79 1097,-79 1097,-39 1097,-39 1097,-33 1103,-27 1109,-27"/>
<text text-anchor="start" x="1151.5" y="-12.8" font-family="Arial" font-weight="bold" font-size="14.00"> </text>
</g>
<!-- 18&#45;&gt;20 -->
<g id="edge20" class="edge">
<title>18&#45;&gt;20</title>
<path fill="none" stroke="#888888" d="M1098.16,-153.67C1103.27,-144.94 1108.57,-135.88 1113.77,-126.99"/>
<polygon fill="#888888" stroke="#888888" points="1116.9,-128.57 1118.94,-118.18 1110.86,-125.04 1116.9,-128.57"/>
</g>
<!-- 22 -->
<g id="node22" class="node">
<title>22</title>
<text text-anchor="start" x="1284" y="-99.8" font-family="Arial" font-weight="bold" font-size="14.00"> &lt; 12.84</text>
<path fill="#f8766d" fill-opacity="0.643137" stroke="transparent" d="M1264,-27C1264,-27 1354,-27 1354,-27 1360,-27 1366,-33 1366,-39 1366,-39 1366,-79 1366,-79 1366,-85 1360,-91 1354,-91 1354,-91 1264,-91 1264,-91 1258,-91 1252,-85 1252,-79 1252,-79 1252,-39 1252,-39 1252,-33 1258,-27 1264,-27"/>
<text text-anchor="start" x="1253" y="-88.4" font-family="Arial" font-size="2.00"> </text>
<text text-anchor="start" x="1253" y="-82.4" font-family="Arial" font-size="7.00"> &#160;22</text>
<text text-anchor="start" x="1267" y="-65.8" font-family="Arial" font-weight="bold" font-size="14.00">Predict 12.66</text>
<text text-anchor="start" x="1289" y="-48.8" font-family="Arial" font-weight="bold" font-size="14.00">n = 78</text>
<text text-anchor="start" x="1307.5" y="-30.8" font-family="Arial" font-size="9.00"> </text>
<path fill="none" stroke="#333333" d="M1264,-27C1264,-27 1354,-27 1354,-27 1360,-27 1366,-33 1366,-39 1366,-39 1366,-79 1366,-79 1366,-85 1360,-91 1354,-91 1354,-91 1264,-91 1264,-91 1258,-91 1252,-85 1252,-79 1252,-79 1252,-39 1252,-39 1252,-33 1258,-27 1264,-27"/>
<text text-anchor="start" x="1307" y="-12.8" font-family="Arial" font-weight="bold" font-size="14.00"> </text>
</g>
<!-- 21&#45;&gt;22 -->
<g id="edge21" class="edge">
<title>21&#45;&gt;22</title>
<path fill="none" stroke="#888888" d="M1309,-153.67C1309,-145.39 1309,-136.83 1309,-128.38"/>
<polygon fill="#888888" stroke="#888888" points="1312.5,-128.18 1309,-118.18 1305.5,-128.18 1312.5,-128.18"/>
</g>
<!-- 23 -->
<g id="node23" class="node">
<title>23</title>
<text text-anchor="start" x="1440.5" y="-99.8" font-family="Arial" font-weight="bold" font-size="14.00"> ≥ 12.84</text>
<path fill="#f8766d" fill-opacity="0.596078" stroke="transparent" d="M1420,-27C1420,-27 1510,-27 1510,-27 1516,-27 1522,-33 1522,-39 1522,-39 1522,-79 1522,-79 1522,-85 1516,-91 1510,-91 1510,-91 1420,-91 1420,-91 1414,-91 1408,-85 1408,-79 1408,-79 1408,-39 1408,-39 1408,-33 1414,-27 1420,-27"/>
<text text-anchor="start" x="1409" y="-88.4" font-family="Arial" font-size="2.00"> </text>
<text text-anchor="start" x="1409" y="-82.4" font-family="Arial" font-size="7.00"> &#160;23</text>
<text text-anchor="start" x="1423" y="-65.8" font-family="Arial" font-weight="bold" font-size="14.00">Predict 13.83</text>
<text text-anchor="start" x="1445" y="-48.8" font-family="Arial" font-weight="bold" font-size="14.00">n = 78</text>
<text text-anchor="start" x="1463.5" y="-30.8" font-family="Arial" font-size="9.00"> </text>
<path fill="none" stroke="#333333" d="M1420,-27C1420,-27 1510,-27 1510,-27 1516,-27 1522,-33 1522,-39 1522,-39 1522,-79 1522,-79 1522,-85 1516,-91 1510,-91 1510,-91 1420,-91 1420,-91 1414,-91 1408,-85 1408,-79 1408,-79 1408,-39 1408,-39 1408,-33 1414,-27 1420,-27"/>
<text text-anchor="start" x="1463" y="-12.8" font-family="Arial" font-weight="bold" font-size="14.00"> </text>
</g>
<!-- 21&#45;&gt;23 -->
<g id="edge22" class="edge">
<title>21&#45;&gt;23</title>
<path fill="none" stroke="#888888" d="M1368.87,-153.67C1378.38,-144.39 1388.28,-134.75 1397.95,-125.33"/>
<polygon fill="#888888" stroke="#888888" points="1400.57,-127.66 1405.29,-118.18 1395.69,-122.65 1400.57,-127.66"/>
</g>
</g>
</svg>
