<?xml version="1.0" encoding="UTF-8" standalone="no"?>
<!DOCTYPE svg PUBLIC "-//W3C//DTD SVG 1.1//EN"
 "http://www.w3.org/Graphics/SVG/1.1/DTD/svg11.dtd">
<!-- Generated by graphviz version 2.50.0 (20211204.2007)
 -->
<!-- Pages: 1 -->
<svg width="2174pt" height="742pt"
 viewBox="0.00 0.00 2174.00 742.00" xmlns="http://www.w3.org/2000/svg" xmlns:xlink="http://www.w3.org/1999/xlink">
<g id="graph0" class="graph" transform="scale(1 1) rotate(0) translate(4 738)">
<polygon fill="white" stroke="transparent" points="-4,4 -4,-738 2170,-738 2170,4 -4,4"/>
<!-- 1 -->
<g id="node1" class="node">
<title>1</title>
<text text-anchor="start" x="1159" y="-715.8" font-family="Arial" font-weight="bold" font-size="14.00"> </text>
<path fill="#ebebeb" stroke="transparent" d="M1119,-643C1119,-643 1203,-643 1203,-643 1209,-643 1215,-649 1215,-655 1215,-655 1215,-695 1215,-695 1215,-701 1209,-707 1203,-707 1203,-707 1119,-707 1119,-707 1113,-707 1107,-701 1107,-695 1107,-695 1107,-655 1107,-655 1107,-649 1113,-643 1119,-643"/>
<text text-anchor="start" x="1108" y="-704.4" font-family="Arial" font-size="2.00"> </text>
<text text-anchor="start" x="1108" y="-698.4" font-family="Arial" font-size="7.00"> &#160;1</text>
<text text-anchor="start" x="1122" y="-681.8" font-family="Arial" font-weight="bold" font-size="14.00">Mean: 28.76</text>
<text text-anchor="start" x="1137.5" y="-664.8" font-family="Arial" font-weight="bold" font-size="14.00">n = 168</text>
<text text-anchor="start" x="1159.5" y="-646.8" font-family="Arial" font-size="9.00"> </text>
<path fill="none" stroke="#333333" d="M1119,-643C1119,-643 1203,-643 1203,-643 1209,-643 1215,-649 1215,-655 1215,-655 1215,-695 1215,-695 1215,-701 1209,-707 1203,-707 1203,-707 1119,-707 1119,-707 1113,-707 1107,-701 1107,-695 1107,-695 1107,-655 1107,-655 1107,-649 1113,-643 1119,-643"/>
<text text-anchor="start" x="1146.5" y="-628.8" font-family="Arial" font-weight="bold" font-size="14.00">time</text>
</g>
<!-- 2 -->
<g id="node2" class="node">
<title>2</title>
<text text-anchor="start" x="906" y="-561.8" font-family="Arial" font-weight="bold" font-size="14.00"> &lt; 11.5</text>
<text text-anchor="start" x="859" y="-517.3" font-family="Arial" font-size="14.00"> &#160;&#160;</text>
<path fill="#ebebeb" stroke="transparent" d="M885,-489C885,-489 969,-489 969,-489 975,-489 981,-495 981,-501 981,-501 981,-541 981,-541 981,-547 975,-553 969,-553 969,-553 885,-553 885,-553 879,-553 873,-547 873,-541 873,-541 873,-501 873,-501 873,-495 879,-489 885,-489"/>
<text text-anchor="start" x="874" y="-550.4" font-family="Arial" font-size="2.00"> </text>
<text text-anchor="start" x="874" y="-544.4" font-family="Arial" font-size="7.00"> &#160;2</text>
<text text-anchor="start" x="888" y="-527.8" font-family="Arial" font-weight="bold" font-size="14.00">Mean: 28.06</text>
<text text-anchor="start" x="907" y="-510.8" font-family="Arial" font-weight="bold" font-size="14.00">n = 84</text>
<text text-anchor="start" x="925.5" y="-492.8" font-family="Arial" font-size="9.00"> </text>
<path fill="none" stroke="#333333" d="M885,-489C885,-489 969,-489 969,-489 975,-489 981,-495 981,-501 981,-501 981,-541 981,-541 981,-547 975,-553 969,-553 969,-553 885,-553 885,-553 879,-553 873,-547 873,-541 873,-541 873,-501 873,-501 873,-495 879,-489 885,-489"/>
<text text-anchor="start" x="983" y="-517.3" font-family="Arial" font-size="14.00"> &#160;&#160;</text>
<text text-anchor="start" x="874" y="-474.8" font-family="Arial" font-weight="bold" font-size="14.00">prev_168_inflow</text>
</g>
<!-- 1&#45;&gt;2 -->
<g id="edge1" class="edge">
<title>1&#45;&gt;2</title>
<path fill="none" stroke="#888888" d="M1094.88,-631.05C1069.76,-614.73 1040.75,-595.89 1013.99,-578.51"/>
<polygon fill="#888888" stroke="#888888" points="1015.68,-575.43 1005.39,-572.92 1011.87,-581.3 1015.68,-575.43"/>
</g>
<!-- 17 -->
<g id="node3" class="node">
<title>17</title>
<text text-anchor="start" x="1299.5" y="-561.8" font-family="Arial" font-weight="bold" font-size="14.00"> ≥ 11.5</text>
<text text-anchor="start" x="1252" y="-517.3" font-family="Arial" font-size="14.00"> &#160;&#160;</text>
<path fill="#ebebeb" stroke="transparent" d="M1278,-489C1278,-489 1362,-489 1362,-489 1368,-489 1374,-495 1374,-501 1374,-501 1374,-541 1374,-541 1374,-547 1368,-553 1362,-553 1362,-553 1278,-553 1278,-553 1272,-553 1266,-547 1266,-541 1266,-541 1266,-501 1266,-501 1266,-495 1272,-489 1278,-489"/>
<text text-anchor="start" x="1267" y="-550.4" font-family="Arial" font-size="2.00"> </text>
<text text-anchor="start" x="1267" y="-544.4" font-family="Arial" font-size="7.00"> &#160;17</text>
<text text-anchor="start" x="1281" y="-527.8" font-family="Arial" font-weight="bold" font-size="14.00">Mean: 29.46</text>
<text text-anchor="start" x="1300" y="-510.8" font-family="Arial" font-weight="bold" font-size="14.00">n = 84</text>
<text text-anchor="start" x="1318.5" y="-492.8" font-family="Arial" font-size="9.00"> </text>
<path fill="none" stroke="#333333" d="M1278,-489C1278,-489 1362,-489 1362,-489 1368,-489 1374,-495 1374,-501 1374,-501 1374,-541 1374,-541 1374,-547 1368,-553 1362,-553 1362,-553 1278,-553 1278,-553 1272,-553 1266,-547 1266,-541 1266,-541 1266,-501 1266,-501 1266,-495 1272,-489 1278,-489"/>
<text text-anchor="start" x="1376" y="-517.3" font-family="Arial" font-size="14.00"> &#160;&#160;</text>
<text text-anchor="start" x="1267" y="-474.8" font-family="Arial" font-weight="bold" font-size="14.00">prev_168_inflow</text>
</g>
<!-- 1&#45;&gt;17 -->
<g id="edge2" class="edge">
<title>1&#45;&gt;17</title>
<path fill="none" stroke="#888888" d="M1222.02,-615.67C1231.72,-606.39 1241.81,-596.75 1251.66,-587.33"/>
<polygon fill="#888888" stroke="#888888" points="1254.33,-589.62 1259.14,-580.18 1249.5,-584.56 1254.33,-589.62"/>
</g>
<!-- 3 -->
<g id="node4" class="node">
<title>3</title>
<text text-anchor="start" x="440.5" y="-407.8" font-family="Arial" font-weight="bold" font-size="14.00"> &lt; 31.8</text>
<path fill="#ebebeb" stroke="transparent" d="M420,-335C420,-335 504,-335 504,-335 510,-335 516,-341 516,-347 516,-347 516,-387 516,-387 516,-393 510,-399 504,-399 504,-399 420,-399 420,-399 414,-399 408,-393 408,-387 408,-387 408,-347 408,-347 408,-341 414,-335 420,-335"/>
<text text-anchor="start" x="409" y="-396.4" font-family="Arial" font-size="2.00"> </text>
<text text-anchor="start" x="409" y="-390.4" font-family="Arial" font-size="7.00"> &#160;3</text>
<text text-anchor="start" x="423" y="-373.8" font-family="Arial" font-weight="bold" font-size="14.00">Mean: 25.14</text>
<text text-anchor="start" x="442" y="-356.8" font-family="Arial" font-weight="bold" font-size="14.00">n = 59</text>
<text text-anchor="start" x="460.5" y="-338.8" font-family="Arial" font-size="9.00"> </text>
<path fill="none" stroke="#333333" d="M420,-335C420,-335 504,-335 504,-335 510,-335 516,-341 516,-347 516,-347 516,-387 516,-387 516,-393 510,-399 504,-399 504,-399 420,-399 420,-399 414,-399 408,-393 408,-387 408,-387 408,-347 408,-347 408,-341 414,-335 420,-335"/>
<text text-anchor="start" x="447.5" y="-320.8" font-family="Arial" font-weight="bold" font-size="14.00">time</text>
</g>
<!-- 2&#45;&gt;3 -->
<g id="edge3" class="edge">
<title>2&#45;&gt;3</title>
<path fill="none" stroke="#888888" d="M848.91,-494.47C762.35,-466.18 623.68,-420.85 537.98,-392.84"/>
<polygon fill="#888888" stroke="#888888" points="538.91,-389.46 528.32,-389.68 536.73,-396.11 538.91,-389.46"/>
</g>
<!-- 10 -->
<g id="node5" class="node">
<title>10</title>
<text text-anchor="start" x="906" y="-407.8" font-family="Arial" font-weight="bold" font-size="14.00"> ≥ 31.8</text>
<path fill="#ebebeb" stroke="transparent" d="M885,-335C885,-335 969,-335 969,-335 975,-335 981,-341 981,-347 981,-347 981,-387 981,-387 981,-393 975,-399 969,-399 969,-399 885,-399 885,-399 879,-399 873,-393 873,-387 873,-387 873,-347 873,-347 873,-341 879,-335 885,-335"/>
<text text-anchor="start" x="874" y="-396.4" font-family="Arial" font-size="2.00"> </text>
<text text-anchor="start" x="874" y="-390.4" font-family="Arial" font-size="7.00"> &#160;10</text>
<text text-anchor="start" x="888" y="-373.8" font-family="Arial" font-weight="bold" font-size="14.00">Mean: 34.94</text>
<text text-anchor="start" x="907" y="-356.8" font-family="Arial" font-weight="bold" font-size="14.00">n = 25</text>
<text text-anchor="start" x="925.5" y="-338.8" font-family="Arial" font-size="9.00"> </text>
<path fill="none" stroke="#333333" d="M885,-335C885,-335 969,-335 969,-335 975,-335 981,-341 981,-347 981,-347 981,-387 981,-387 981,-393 975,-399 969,-399 969,-399 885,-399 885,-399 879,-399 873,-393 873,-387 873,-387 873,-347 873,-347 873,-341 879,-335 885,-335"/>
<text text-anchor="start" x="891.5" y="-320.8" font-family="Arial" font-weight="bold" font-size="14.00">windspeed</text>
</g>
<!-- 2&#45;&gt;10 -->
<g id="edge4" class="edge">
<title>2&#45;&gt;10</title>
<path fill="none" stroke="#888888" d="M927,-461.67C927,-453.39 927,-444.83 927,-436.38"/>
<polygon fill="#888888" stroke="#888888" points="930.5,-436.18 927,-426.18 923.5,-436.18 930.5,-436.18"/>
</g>
<!-- 18 -->
<g id="node18" class="node">
<title>18</title>
<text text-anchor="start" x="1295" y="-407.8" font-family="Arial" font-weight="bold" font-size="14.00"> &lt; 28.01</text>
<text text-anchor="start" x="1252" y="-363.3" font-family="Arial" font-size="14.00"> &#160;&#160;</text>
<path fill="#ebebeb" stroke="transparent" d="M1278,-335C1278,-335 1362,-335 1362,-335 1368,-335 1374,-341 1374,-347 1374,-347 1374,-387 1374,-387 1374,-393 1368,-399 1362,-399 1362,-399 1278,-399 1278,-399 1272,-399 1266,-393 1266,-387 1266,-387 1266,-347 1266,-347 1266,-341 1272,-335 1278,-335"/>
<text text-anchor="start" x="1267" y="-396.4" font-family="Arial" font-size="2.00"> </text>
<text text-anchor="start" x="1267" y="-390.4" font-family="Arial" font-size="7.00"> &#160;18</text>
<text text-anchor="start" x="1281" y="-373.8" font-family="Arial" font-weight="bold" font-size="14.00">Mean: 26.87</text>
<text text-anchor="start" x="1300" y="-356.8" font-family="Arial" font-weight="bold" font-size="14.00">n = 33</text>
<text text-anchor="start" x="1318.5" y="-338.8" font-family="Arial" font-size="9.00"> </text>
<path fill="none" stroke="#333333" d="M1278,-335C1278,-335 1362,-335 1362,-335 1368,-335 1374,-341 1374,-347 1374,-347 1374,-387 1374,-387 1374,-393 1368,-399 1362,-399 1362,-399 1278,-399 1278,-399 1272,-399 1266,-393 1266,-387 1266,-387 1266,-347 1266,-347 1266,-341 1272,-335 1278,-335"/>
<text text-anchor="start" x="1376" y="-363.3" font-family="Arial" font-size="14.00"> &#160;&#160;</text>
<text text-anchor="start" x="1267" y="-320.8" font-family="Arial" font-weight="bold" font-size="14.00">prev_168_inflow</text>
</g>
<!-- 17&#45;&gt;18 -->
<g id="edge17" class="edge">
<title>17&#45;&gt;18</title>
<path fill="none" stroke="#888888" d="M1320,-461.67C1320,-453.39 1320,-444.83 1320,-436.38"/>
<polygon fill="#888888" stroke="#888888" points="1323.5,-436.18 1320,-426.18 1316.5,-436.18 1323.5,-436.18"/>
</g>
<!-- 23 -->
<g id="node19" class="node">
<title>23</title>
<text text-anchor="start" x="1679.5" y="-407.8" font-family="Arial" font-weight="bold" font-size="14.00"> ≥ 28.01</text>
<path fill="#ebebeb" stroke="transparent" d="M1662,-335C1662,-335 1746,-335 1746,-335 1752,-335 1758,-341 1758,-347 1758,-347 1758,-387 1758,-387 1758,-393 1752,-399 1746,-399 1746,-399 1662,-399 1662,-399 1656,-399 1650,-393 1650,-387 1650,-387 1650,-347 1650,-347 1650,-341 1656,-335 1662,-335"/>
<text text-anchor="start" x="1651" y="-396.4" font-family="Arial" font-size="2.00"> </text>
<text text-anchor="start" x="1651" y="-390.4" font-family="Arial" font-size="7.00"> &#160;23</text>
<text text-anchor="start" x="1665" y="-373.8" font-family="Arial" font-weight="bold" font-size="14.00">Mean: 31.14</text>
<text text-anchor="start" x="1684" y="-356.8" font-family="Arial" font-weight="bold" font-size="14.00">n = 51</text>
<text text-anchor="start" x="1702.5" y="-338.8" font-family="Arial" font-size="9.00"> </text>
<path fill="none" stroke="#333333" d="M1662,-335C1662,-335 1746,-335 1746,-335 1752,-335 1758,-341 1758,-347 1758,-347 1758,-387 1758,-387 1758,-393 1752,-399 1746,-399 1746,-399 1662,-399 1662,-399 1656,-399 1650,-393 1650,-387 1650,-387 1650,-347 1650,-347 1650,-341 1656,-335 1662,-335"/>
<text text-anchor="start" x="1689.5" y="-320.8" font-family="Arial" font-weight="bold" font-size="14.00">time</text>
</g>
<!-- 17&#45;&gt;23 -->
<g id="edge18" class="edge">
<title>17&#45;&gt;23</title>
<path fill="none" stroke="#888888" d="M1398.17,-489.06C1465.37,-462.46 1561.68,-424.34 1628.18,-398.01"/>
<polygon fill="#888888" stroke="#888888" points="1629.76,-401.15 1637.77,-394.22 1627.19,-394.64 1629.76,-401.15"/>
</g>
<!-- 4 -->
<g id="node6" class="node">
<title>4</title>
<text text-anchor="start" x="207.5" y="-253.8" font-family="Arial" font-weight="bold" font-size="14.00"> &lt; 5.5</text>
<path fill="#ebebeb" stroke="transparent" d="M183,-181C183,-181 267,-181 267,-181 273,-181 279,-187 279,-193 279,-193 279,-233 279,-233 279,-239 273,-245 267,-245 267,-245 183,-245 183,-245 177,-245 171,-239 171,-233 171,-233 171,-193 171,-193 171,-187 177,-181 183,-181"/>
<text text-anchor="start" x="172" y="-242.4" font-family="Arial" font-size="2.00"> </text>
<text text-anchor="start" x="172" y="-236.4" font-family="Arial" font-size="7.00"> &#160;4</text>
<text text-anchor="start" x="186" y="-219.8" font-family="Arial" font-weight="bold" font-size="14.00">Mean: 23.81</text>
<text text-anchor="start" x="205" y="-202.8" font-family="Arial" font-weight="bold" font-size="14.00">n = 42</text>
<text text-anchor="start" x="223.5" y="-184.8" font-family="Arial" font-size="9.00"> </text>
<path fill="none" stroke="#333333" d="M183,-181C183,-181 267,-181 267,-181 273,-181 279,-187 279,-193 279,-193 279,-233 279,-233 279,-239 273,-245 267,-245 267,-245 183,-245 183,-245 177,-245 171,-239 171,-233 171,-233 171,-193 171,-193 171,-187 177,-181 183,-181"/>
<text text-anchor="start" x="189.5" y="-166.8" font-family="Arial" font-weight="bold" font-size="14.00">windspeed</text>
</g>
<!-- 3&#45;&gt;4 -->
<g id="edge5" class="edge">
<title>3&#45;&gt;4</title>
<path fill="none" stroke="#888888" d="M395.98,-323.66C366.06,-304.47 330.54,-281.69 299.66,-261.88"/>
<polygon fill="#888888" stroke="#888888" points="301.38,-258.83 291.07,-256.38 297.6,-264.72 301.38,-258.83"/>
</g>
<!-- 7 -->
<g id="node7" class="node">
<title>7</title>
<text text-anchor="start" x="445" y="-253.8" font-family="Arial" font-weight="bold" font-size="14.00"> ≥ 5.5</text>
<text text-anchor="start" x="394" y="-209.3" font-family="Arial" font-size="14.00"> &#160;&#160;</text>
<path fill="#ebebeb" stroke="transparent" d="M420,-181C420,-181 504,-181 504,-181 510,-181 516,-187 516,-193 516,-193 516,-233 516,-233 516,-239 510,-245 504,-245 504,-245 420,-245 420,-245 414,-245 408,-239 408,-233 408,-233 408,-193 408,-193 408,-187 414,-181 420,-181"/>
<text text-anchor="start" x="409" y="-242.4" font-family="Arial" font-size="2.00"> </text>
<text text-anchor="start" x="409" y="-236.4" font-family="Arial" font-size="7.00"> &#160;7</text>
<text text-anchor="start" x="423" y="-219.8" font-family="Arial" font-weight="bold" font-size="14.00">Mean: 28.44</text>
<text text-anchor="start" x="442" y="-202.8" font-family="Arial" font-weight="bold" font-size="14.00">n = 17</text>
<text text-anchor="start" x="460.5" y="-184.8" font-family="Arial" font-size="9.00"> </text>
<path fill="none" stroke="#333333" d="M420,-181C420,-181 504,-181 504,-181 510,-181 516,-187 516,-193 516,-193 516,-233 516,-233 516,-239 510,-245 504,-245 504,-245 420,-245 420,-245 414,-245 408,-239 408,-233 408,-233 408,-193 408,-193 408,-187 414,-181 420,-181"/>
<text text-anchor="start" x="518" y="-209.3" font-family="Arial" font-size="14.00"> &#160;&#160;</text>
<text text-anchor="start" x="409" y="-166.8" font-family="Arial" font-weight="bold" font-size="14.00">prev_168_inflow</text>
</g>
<!-- 3&#45;&gt;7 -->
<g id="edge6" class="edge">
<title>3&#45;&gt;7</title>
<path fill="none" stroke="#888888" d="M462,-307.67C462,-299.39 462,-290.83 462,-282.38"/>
<polygon fill="#888888" stroke="#888888" points="465.5,-282.18 462,-272.18 458.5,-282.18 465.5,-282.18"/>
</g>
<!-- 11 -->
<g id="node12" class="node">
<title>11</title>
<text text-anchor="start" x="827.5" y="-253.8" font-family="Arial" font-weight="bold" font-size="14.00"> &lt; 23.5</text>
<path fill="#ebebeb" stroke="transparent" d="M807,-181C807,-181 891,-181 891,-181 897,-181 903,-187 903,-193 903,-193 903,-233 903,-233 903,-239 897,-245 891,-245 891,-245 807,-245 807,-245 801,-245 795,-239 795,-233 795,-233 795,-193 795,-193 795,-187 801,-181 807,-181"/>
<text text-anchor="start" x="796" y="-242.4" font-family="Arial" font-size="2.00"> </text>
<text text-anchor="start" x="796" y="-236.4" font-family="Arial" font-size="7.00"> &#160;11</text>
<text text-anchor="start" x="810" y="-219.8" font-family="Arial" font-weight="bold" font-size="14.00">Mean: 34.21</text>
<text text-anchor="start" x="829" y="-202.8" font-family="Arial" font-weight="bold" font-size="14.00">n = 22</text>
<text text-anchor="start" x="847.5" y="-184.8" font-family="Arial" font-size="9.00"> </text>
<path fill="none" stroke="#333333" d="M807,-181C807,-181 891,-181 891,-181 897,-181 903,-187 903,-193 903,-193 903,-233 903,-233 903,-239 897,-245 891,-245 891,-245 807,-245 807,-245 801,-245 795,-239 795,-233 795,-233 795,-193 795,-193 795,-187 801,-181 807,-181"/>
<text text-anchor="start" x="834.5" y="-166.8" font-family="Arial" font-weight="bold" font-size="14.00">time</text>
</g>
<!-- 10&#45;&gt;11 -->
<g id="edge11" class="edge">
<title>10&#45;&gt;11</title>
<path fill="none" stroke="#888888" d="M897.07,-307.67C892.63,-299.03 888.04,-290.07 883.52,-281.27"/>
<polygon fill="#888888" stroke="#888888" points="886.53,-279.48 878.85,-272.18 880.31,-282.67 886.53,-279.48"/>
</g>
<!-- 14 -->
<g id="node13" class="node">
<title>14</title>
<text text-anchor="start" x="984" y="-253.8" font-family="Arial" font-weight="bold" font-size="14.00"> ≥ 23.5</text>
<path fill="#ebebeb" stroke="transparent" d="M967,-181C967,-181 1043,-181 1043,-181 1049,-181 1055,-187 1055,-193 1055,-193 1055,-233 1055,-233 1055,-239 1049,-245 1043,-245 1043,-245 967,-245 967,-245 961,-245 955,-239 955,-233 955,-233 955,-193 955,-193 955,-187 961,-181 967,-181"/>
<text text-anchor="start" x="956" y="-242.4" font-family="Arial" font-size="2.00"> </text>
<text text-anchor="start" x="956" y="-236.4" font-family="Arial" font-size="7.00"> &#160;14</text>
<text text-anchor="start" x="970" y="-219.8" font-family="Arial" font-weight="bold" font-size="14.00">Mean: 40.3</text>
<text text-anchor="start" x="989" y="-202.8" font-family="Arial" font-weight="bold" font-size="14.00">n = 3</text>
<text text-anchor="start" x="1003.5" y="-184.8" font-family="Arial" font-size="9.00"> </text>
<path fill="none" stroke="#333333" d="M967,-181C967,-181 1043,-181 1043,-181 1049,-181 1055,-187 1055,-193 1055,-193 1055,-233 1055,-233 1055,-239 1049,-245 1043,-245 1043,-245 967,-245 967,-245 961,-245 955,-239 955,-233 955,-233 955,-193 955,-193 955,-187 961,-181 967,-181"/>
<text text-anchor="start" x="990.5" y="-166.8" font-family="Arial" font-weight="bold" font-size="14.00">time</text>
</g>
<!-- 10&#45;&gt;14 -->
<g id="edge12" class="edge">
<title>10&#45;&gt;14</title>
<path fill="none" stroke="#888888" d="M956.93,-307.67C961.37,-299.03 965.96,-290.07 970.48,-281.27"/>
<polygon fill="#888888" stroke="#888888" points="973.69,-282.67 975.15,-272.18 967.47,-279.48 973.69,-282.67"/>
</g>
<!-- 5 -->
<g id="node8" class="node">
<title>5</title>
<text text-anchor="start" x="47.5" y="-99.8" font-family="Arial" font-weight="bold" font-size="14.00"> &lt; 12.5</text>
<path fill="#f8766d" fill-opacity="0.850980" stroke="transparent" d="M24,-27C24,-27 114,-27 114,-27 120,-27 126,-33 126,-39 126,-39 126,-79 126,-79 126,-85 120,-91 114,-91 114,-91 24,-91 24,-91 18,-91 12,-85 12,-79 12,-79 12,-39 12,-39 12,-33 18,-27 24,-27"/>
<text text-anchor="start" x="13" y="-88.4" font-family="Arial" font-size="2.00"> </text>
<text text-anchor="start" x="13" y="-82.4" font-family="Arial" font-size="7.00"> &#160;5</text>
<text text-anchor="start" x="27" y="-65.8" font-family="Arial" font-weight="bold" font-size="14.00">Predict 24.22</text>
<text text-anchor="start" x="49" y="-48.8" font-family="Arial" font-weight="bold" font-size="14.00">n = 22</text>
<text text-anchor="start" x="67.5" y="-30.8" font-family="Arial" font-size="9.00"> </text>
<path fill="none" stroke="#333333" d="M24,-27C24,-27 114,-27 114,-27 120,-27 126,-33 126,-39 126,-39 126,-79 126,-79 126,-85 120,-91 114,-91 114,-91 24,-91 24,-91 18,-91 12,-85 12,-79 12,-79 12,-39 12,-39 12,-33 18,-27 24,-27"/>
<text text-anchor="start" x="67" y="-12.8" font-family="Arial" font-weight="bold" font-size="14.00"> </text>
</g>
<!-- 4&#45;&gt;5 -->
<g id="edge7" class="edge">
<title>4&#45;&gt;5</title>
<path fill="none" stroke="#888888" d="M165.13,-153.67C155.62,-144.39 145.72,-134.75 136.05,-125.33"/>
<polygon fill="#888888" stroke="#888888" points="138.31,-122.65 128.71,-118.18 133.43,-127.66 138.31,-122.65"/>
</g>
<!-- 6 -->
<g id="node9" class="node">
<title>6</title>
<text text-anchor="start" x="204" y="-99.8" font-family="Arial" font-weight="bold" font-size="14.00"> ≥ 12.5</text>
<path fill="#f8766d" fill-opacity="0.874510" stroke="transparent" d="M180,-27C180,-27 270,-27 270,-27 276,-27 282,-33 282,-39 282,-39 282,-79 282,-79 282,-85 276,-91 270,-91 270,-91 180,-91 180,-91 174,-91 168,-85 168,-79 168,-79 168,-39 168,-39 168,-33 174,-27 180,-27"/>
<text text-anchor="start" x="169" y="-88.4" font-family="Arial" font-size="2.00"> </text>
<text text-anchor="start" x="169" y="-82.4" font-family="Arial" font-size="7.00"> &#160;6</text>
<text text-anchor="start" x="183" y="-65.8" font-family="Arial" font-weight="bold" font-size="14.00">Predict 23.36</text>
<text text-anchor="start" x="205" y="-48.8" font-family="Arial" font-weight="bold" font-size="14.00">n = 20</text>
<text text-anchor="start" x="223.5" y="-30.8" font-family="Arial" font-size="9.00"> </text>
<path fill="none" stroke="#333333" d="M180,-27C180,-27 270,-27 270,-27 276,-27 282,-33 282,-39 282,-39 282,-79 282,-79 282,-85 276,-91 270,-91 270,-91 180,-91 180,-91 174,-91 168,-85 168,-79 168,-79 168,-39 168,-39 168,-33 174,-27 180,-27"/>
<text text-anchor="start" x="223" y="-12.8" font-family="Arial" font-weight="bold" font-size="14.00"> </text>
</g>
<!-- 4&#45;&gt;6 -->
<g id="edge8" class="edge">
<title>4&#45;&gt;6</title>
<path fill="none" stroke="#888888" d="M225,-153.67C225,-145.39 225,-136.83 225,-128.38"/>
<polygon fill="#888888" stroke="#888888" points="228.5,-128.18 225,-118.18 221.5,-128.18 228.5,-128.18"/>
</g>
<!-- 8 -->
<g id="node10" class="node">
<title>8</title>
<text text-anchor="start" x="356" y="-99.8" font-family="Arial" font-weight="bold" font-size="14.00"> &lt; 26.98</text>
<path fill="#f8766d" fill-opacity="0.792157" stroke="transparent" d="M336,-27C336,-27 426,-27 426,-27 432,-27 438,-33 438,-39 438,-39 438,-79 438,-79 438,-85 432,-91 426,-91 426,-91 336,-91 336,-91 330,-91 324,-85 324,-79 324,-79 324,-39 324,-39 324,-33 330,-27 336,-27"/>
<text text-anchor="start" x="325" y="-88.4" font-family="Arial" font-size="2.00"> </text>
<text text-anchor="start" x="325" y="-82.4" font-family="Arial" font-size="7.00"> &#160;8</text>
<text text-anchor="start" x="339" y="-65.8" font-family="Arial" font-weight="bold" font-size="14.00">Predict 26.42</text>
<text text-anchor="start" x="365" y="-48.8" font-family="Arial" font-weight="bold" font-size="14.00">n = 3</text>
<text text-anchor="start" x="379.5" y="-30.8" font-family="Arial" font-size="9.00"> </text>
<path fill="none" stroke="#333333" d="M336,-27C336,-27 426,-27 426,-27 432,-27 438,-33 438,-39 438,-39 438,-79 438,-79 438,-85 432,-91 426,-91 426,-91 336,-91 336,-91 330,-91 324,-85 324,-79 324,-79 324,-39 324,-39 324,-33 330,-27 336,-27"/>
<text text-anchor="start" x="379" y="-12.8" font-family="Arial" font-weight="bold" font-size="14.00"> </text>
</g>
<!-- 7&#45;&gt;8 -->
<g id="edge9" class="edge">
<title>7&#45;&gt;8</title>
<path fill="none" stroke="#888888" d="M430.91,-153.67C426.31,-145.03 421.54,-136.07 416.85,-127.27"/>
<polygon fill="#888888" stroke="#888888" points="419.79,-125.36 412,-118.18 413.62,-128.65 419.79,-125.36"/>
</g>
<!-- 9 -->
<g id="node11" class="node">
<title>9</title>
<text text-anchor="start" x="512.5" y="-99.8" font-family="Arial" font-weight="bold" font-size="14.00"> ≥ 26.98</text>
<path fill="#f8766d" fill-opacity="0.729412" stroke="transparent" d="M492,-27C492,-27 582,-27 582,-27 588,-27 594,-33 594,-39 594,-39 594,-79 594,-79 594,-85 588,-91 582,-91 582,-91 492,-91 492,-91 486,-91 480,-85 480,-79 480,-79 480,-39 480,-39 480,-33 486,-27 492,-27"/>
<text text-anchor="start" x="481" y="-88.4" font-family="Arial" font-size="2.00"> </text>
<text text-anchor="start" x="481" y="-82.4" font-family="Arial" font-size="7.00"> &#160;9</text>
<text text-anchor="start" x="495" y="-65.8" font-family="Arial" font-weight="bold" font-size="14.00">Predict 28.87</text>
<text text-anchor="start" x="517" y="-48.8" font-family="Arial" font-weight="bold" font-size="14.00">n = 14</text>
<text text-anchor="start" x="535.5" y="-30.8" font-family="Arial" font-size="9.00"> </text>
<path fill="none" stroke="#333333" d="M492,-27C492,-27 582,-27 582,-27 588,-27 594,-33 594,-39 594,-39 594,-79 594,-79 594,-85 588,-91 582,-91 582,-91 492,-91 492,-91 486,-91 480,-85 480,-79 480,-79 480,-39 480,-39 480,-33 486,-27 492,-27"/>
<text text-anchor="start" x="535" y="-12.8" font-family="Arial" font-weight="bold" font-size="14.00"> </text>
</g>
<!-- 7&#45;&gt;9 -->
<g id="edge10" class="edge">
<title>7&#45;&gt;9</title>
<path fill="none" stroke="#888888" d="M490.78,-153.67C495.04,-145.03 499.46,-136.07 503.81,-127.27"/>
<polygon fill="#888888" stroke="#888888" points="507.01,-128.69 508.29,-118.18 500.73,-125.6 507.01,-128.69"/>
</g>
<!-- 12 -->
<g id="node14" class="node">
<title>12</title>
<text text-anchor="start" x="675.5" y="-99.8" font-family="Arial" font-weight="bold" font-size="14.00"> &lt; 7.5</text>
<path fill="#f8766d" fill-opacity="0.631373" stroke="transparent" d="M648,-27C648,-27 738,-27 738,-27 744,-27 750,-33 750,-39 750,-39 750,-79 750,-79 750,-85 744,-91 738,-91 738,-91 648,-91 648,-91 642,-91 636,-85 636,-79 636,-79 636,-39 636,-39 636,-33 642,-27 648,-27"/>
<text text-anchor="start" x="637" y="-88.4" font-family="Arial" font-size="2.00"> </text>
<text text-anchor="start" x="637" y="-82.4" font-family="Arial" font-size="7.00"> &#160;12</text>
<text text-anchor="start" x="651" y="-65.8" font-family="Arial" font-weight="bold" font-size="14.00">Predict 32.59</text>
<text text-anchor="start" x="677" y="-48.8" font-family="Arial" font-weight="bold" font-size="14.00">n = 4</text>
<text text-anchor="start" x="691.5" y="-30.8" font-family="Arial" font-size="9.00"> </text>
<path fill="none" stroke="#333333" d="M648,-27C648,-27 738,-27 738,-27 744,-27 750,-33 750,-39 750,-39 750,-79 750,-79 750,-85 744,-91 738,-91 738,-91 648,-91 648,-91 642,-91 636,-85 636,-79 636,-79 636,-39 636,-39 636,-33 642,-27 648,-27"/>
<text text-anchor="start" x="691" y="-12.8" font-family="Arial" font-weight="bold" font-size="14.00"> </text>
</g>
<!-- 11&#45;&gt;12 -->
<g id="edge13" class="edge">
<title>11&#45;&gt;12</title>
<path fill="none" stroke="#888888" d="M789.13,-153.67C779.62,-144.39 769.72,-134.75 760.05,-125.33"/>
<polygon fill="#888888" stroke="#888888" points="762.31,-122.65 752.71,-118.18 757.43,-127.66 762.31,-122.65"/>
</g>
<!-- 13 -->
<g id="node15" class="node">
<title>13</title>
<text text-anchor="start" x="832" y="-99.8" font-family="Arial" font-weight="bold" font-size="14.00"> ≥ 7.5</text>
<path fill="#f8766d" fill-opacity="0.580392" stroke="transparent" d="M804,-27C804,-27 894,-27 894,-27 900,-27 906,-33 906,-39 906,-39 906,-79 906,-79 906,-85 900,-91 894,-91 894,-91 804,-91 804,-91 798,-91 792,-85 792,-79 792,-79 792,-39 792,-39 792,-33 798,-27 804,-27"/>
<text text-anchor="start" x="793" y="-88.4" font-family="Arial" font-size="2.00"> </text>
<text text-anchor="start" x="793" y="-82.4" font-family="Arial" font-size="7.00"> &#160;13</text>
<text text-anchor="start" x="807" y="-65.8" font-family="Arial" font-weight="bold" font-size="14.00">Predict 34.56</text>
<text text-anchor="start" x="829" y="-48.8" font-family="Arial" font-weight="bold" font-size="14.00">n = 18</text>
<text text-anchor="start" x="847.5" y="-30.8" font-family="Arial" font-size="9.00"> </text>
<path fill="none" stroke="#333333" d="M804,-27C804,-27 894,-27 894,-27 900,-27 906,-33 906,-39 906,-39 906,-79 906,-79 906,-85 900,-91 894,-91 894,-91 804,-91 804,-91 798,-91 792,-85 792,-79 792,-79 792,-39 792,-39 792,-33 798,-27 804,-27"/>
<text text-anchor="start" x="847" y="-12.8" font-family="Arial" font-weight="bold" font-size="14.00"> </text>
</g>
<!-- 11&#45;&gt;13 -->
<g id="edge14" class="edge">
<title>11&#45;&gt;13</title>
<path fill="none" stroke="#888888" d="M849,-153.67C849,-145.39 849,-136.83 849,-128.38"/>
<polygon fill="#888888" stroke="#888888" points="852.5,-128.18 849,-118.18 845.5,-128.18 852.5,-128.18"/>
</g>
<!-- 15 -->
<g id="node16" class="node">
<title>15</title>
<text text-anchor="start" x="987.5" y="-99.8" font-family="Arial" font-weight="bold" font-size="14.00"> &lt; 7.5</text>
<path fill="#f8766d" fill-opacity="0.529412" stroke="transparent" d="M960,-27C960,-27 1050,-27 1050,-27 1056,-27 1062,-33 1062,-39 1062,-39 1062,-79 1062,-79 1062,-85 1056,-91 1050,-91 1050,-91 960,-91 960,-91 954,-91 948,-85 948,-79 948,-79 948,-39 948,-39 948,-33 954,-27 960,-27"/>
<text text-anchor="start" x="949" y="-88.4" font-family="Arial" font-size="2.00"> </text>
<text text-anchor="start" x="949" y="-82.4" font-family="Arial" font-size="7.00"> &#160;15</text>
<text text-anchor="start" x="963" y="-65.8" font-family="Arial" font-weight="bold" font-size="14.00">Predict 36.39</text>
<text text-anchor="start" x="989" y="-48.8" font-family="Arial" font-weight="bold" font-size="14.00">n = 1</text>
<text text-anchor="start" x="1003.5" y="-30.8" font-family="Arial" font-size="9.00"> </text>
<path fill="none" stroke="#333333" d="M960,-27C960,-27 1050,-27 1050,-27 1056,-27 1062,-33 1062,-39 1062,-39 1062,-79 1062,-79 1062,-85 1056,-91 1050,-91 1050,-91 960,-91 960,-91 954,-91 948,-85 948,-79 948,-79 948,-39 948,-39 948,-33 954,-27 960,-27"/>
<text text-anchor="start" x="1003" y="-12.8" font-family="Arial" font-weight="bold" font-size="14.00"> </text>
</g>
<!-- 14&#45;&gt;15 -->
<g id="edge15" class="edge">
<title>14&#45;&gt;15</title>
<path fill="none" stroke="#888888" d="M1005,-153.67C1005,-145.39 1005,-136.83 1005,-128.38"/>
<polygon fill="#888888" stroke="#888888" points="1008.5,-128.18 1005,-118.18 1001.5,-128.18 1008.5,-128.18"/>
</g>
<!-- 16 -->
<g id="node17" class="node">
<title>16</title>
<text text-anchor="start" x="1144" y="-99.8" font-family="Arial" font-weight="bold" font-size="14.00"> ≥ 7.5</text>
<path fill="#f8766d" fill-opacity="0.376471" stroke="transparent" d="M1116,-27C1116,-27 1206,-27 1206,-27 1212,-27 1218,-33 1218,-39 1218,-39 1218,-79 1218,-79 1218,-85 1212,-91 1206,-91 1206,-91 1116,-91 1116,-91 1110,-91 1104,-85 1104,-79 1104,-79 1104,-39 1104,-39 1104,-33 1110,-27 1116,-27"/>
<text text-anchor="start" x="1105" y="-88.4" font-family="Arial" font-size="2.00"> </text>
<text text-anchor="start" x="1105" y="-82.4" font-family="Arial" font-size="7.00"> &#160;16</text>
<text text-anchor="start" x="1119" y="-65.8" font-family="Arial" font-weight="bold" font-size="14.00">Predict 42.26</text>
<text text-anchor="start" x="1145" y="-48.8" font-family="Arial" font-weight="bold" font-size="14.00">n = 2</text>
<text text-anchor="start" x="1159.5" y="-30.8" font-family="Arial" font-size="9.00"> </text>
<path fill="none" stroke="#333333" d="M1116,-27C1116,-27 1206,-27 1206,-27 1212,-27 1218,-33 1218,-39 1218,-39 1218,-79 1218,-79 1218,-85 1212,-91 1206,-91 1206,-91 1116,-91 1116,-91 1110,-91 1104,-85 1104,-79 1104,-79 1104,-39 1104,-39 1104,-33 1110,-27 1116,-27"/>
<text text-anchor="start" x="1159" y="-12.8" font-family="Arial" font-weight="bold" font-size="14.00"> </text>
</g>
<!-- 14&#45;&gt;16 -->
<g id="edge16" class="edge">
<title>14&#45;&gt;16</title>
<path fill="none" stroke="#888888" d="M1064.87,-153.67C1074.38,-144.39 1084.28,-134.75 1093.95,-125.33"/>
<polygon fill="#888888" stroke="#888888" points="1096.57,-127.66 1101.29,-118.18 1091.69,-122.65 1096.57,-127.66"/>
</g>
<!-- 19 -->
<g id="node20" class="node">
<title>19</title>
<text text-anchor="start" x="1220" y="-253.8" font-family="Arial" font-weight="bold" font-size="14.00"> &lt; 25.72</text>
<path fill="#f8766d" fill-opacity="0.807843" stroke="transparent" d="M1200,-181C1200,-181 1290,-181 1290,-181 1296,-181 1302,-187 1302,-193 1302,-193 1302,-233 1302,-233 1302,-239 1296,-245 1290,-245 1290,-245 1200,-245 1200,-245 1194,-245 1188,-239 1188,-233 1188,-233 1188,-193 1188,-193 1188,-187 1194,-181 1200,-181"/>
<text text-anchor="start" x="1189" y="-242.4" font-family="Arial" font-size="2.00"> </text>
<text text-anchor="start" x="1189" y="-236.4" font-family="Arial" font-size="7.00"> &#160;19</text>
<text text-anchor="start" x="1203" y="-219.8" font-family="Arial" font-weight="bold" font-size="14.00">Predict 25.88</text>
<text text-anchor="start" x="1225" y="-202.8" font-family="Arial" font-weight="bold" font-size="14.00">n = 15</text>
<text text-anchor="start" x="1243.5" y="-184.8" font-family="Arial" font-size="9.00"> </text>
<path fill="none" stroke="#333333" d="M1200,-181C1200,-181 1290,-181 1290,-181 1296,-181 1302,-187 1302,-193 1302,-193 1302,-233 1302,-233 1302,-239 1296,-245 1290,-245 1290,-245 1200,-245 1200,-245 1194,-245 1188,-239 1188,-233 1188,-233 1188,-193 1188,-193 1188,-187 1194,-181 1200,-181"/>
<text text-anchor="start" x="1243" y="-166.8" font-family="Arial" font-weight="bold" font-size="14.00"> </text>
</g>
<!-- 18&#45;&gt;19 -->
<g id="edge19" class="edge">
<title>18&#45;&gt;19</title>
<path fill="none" stroke="#888888" d="M1291.22,-307.67C1286.96,-299.03 1282.54,-290.07 1278.19,-281.27"/>
<polygon fill="#888888" stroke="#888888" points="1281.27,-279.6 1273.71,-272.18 1274.99,-282.69 1281.27,-279.6"/>
</g>
<!-- 20 -->
<g id="node21" class="node">
<title>20</title>
<text text-anchor="start" x="1369.5" y="-253.8" font-family="Arial" font-weight="bold" font-size="14.00"> ≥ 25.72</text>
<path fill="#ebebeb" stroke="transparent" d="M1356,-181C1356,-181 1432,-181 1432,-181 1438,-181 1444,-187 1444,-193 1444,-193 1444,-233 1444,-233 1444,-239 1438,-245 1432,-245 1432,-245 1356,-245 1356,-245 1350,-245 1344,-239 1344,-233 1344,-233 1344,-193 1344,-193 1344,-187 1350,-181 1356,-181"/>
<text text-anchor="start" x="1345" y="-242.4" font-family="Arial" font-size="2.00"> </text>
<text text-anchor="start" x="1345" y="-236.4" font-family="Arial" font-size="7.00"> &#160;20</text>
<text text-anchor="start" x="1359" y="-219.8" font-family="Arial" font-weight="bold" font-size="14.00">Mean: 27.7</text>
<text text-anchor="start" x="1374" y="-202.8" font-family="Arial" font-weight="bold" font-size="14.00">n = 18</text>
<text text-anchor="start" x="1392.5" y="-184.8" font-family="Arial" font-size="9.00"> </text>
<path fill="none" stroke="#333333" d="M1356,-181C1356,-181 1432,-181 1432,-181 1438,-181 1444,-187 1444,-193 1444,-193 1444,-233 1444,-233 1444,-239 1438,-245 1432,-245 1432,-245 1356,-245 1356,-245 1350,-245 1344,-239 1344,-233 1344,-233 1344,-193 1344,-193 1344,-187 1350,-181 1356,-181"/>
<text text-anchor="start" x="1361" y="-166.8" font-family="Arial" font-weight="bold" font-size="14.00">air_humid</text>
</g>
<!-- 18&#45;&gt;20 -->
<g id="edge20" class="edge">
<title>18&#45;&gt;20</title>
<path fill="none" stroke="#888888" d="M1348.4,-307.67C1352.6,-299.03 1356.97,-290.07 1361.25,-281.27"/>
<polygon fill="#888888" stroke="#888888" points="1364.45,-282.7 1365.68,-272.18 1358.15,-279.64 1364.45,-282.7"/>
</g>
<!-- 24 -->
<g id="node24" class="node">
<title>24</title>
<text text-anchor="start" x="1682.5" y="-253.8" font-family="Arial" font-weight="bold" font-size="14.00"> &lt; 15.5</text>
<text text-anchor="start" x="1636" y="-209.3" font-family="Arial" font-size="14.00"> &#160;&#160;</text>
<path fill="#ebebeb" stroke="transparent" d="M1662,-181C1662,-181 1746,-181 1746,-181 1752,-181 1758,-187 1758,-193 1758,-193 1758,-233 1758,-233 1758,-239 1752,-245 1746,-245 1746,-245 1662,-245 1662,-245 1656,-245 1650,-239 1650,-233 1650,-233 1650,-193 1650,-193 1650,-187 1656,-181 1662,-181"/>
<text text-anchor="start" x="1651" y="-242.4" font-family="Arial" font-size="2.00"> </text>
<text text-anchor="start" x="1651" y="-236.4" font-family="Arial" font-size="7.00"> &#160;24</text>
<text text-anchor="start" x="1665" y="-219.8" font-family="Arial" font-weight="bold" font-size="14.00">Mean: 32.56</text>
<text text-anchor="start" x="1684" y="-202.8" font-family="Arial" font-weight="bold" font-size="14.00">n = 20</text>
<text text-anchor="start" x="1702.5" y="-184.8" font-family="Arial" font-size="9.00"> </text>
<path fill="none" stroke="#333333" d="M1662,-181C1662,-181 1746,-181 1746,-181 1752,-181 1758,-187 1758,-193 1758,-193 1758,-233 1758,-233 1758,-239 1752,-245 1746,-245 1746,-245 1662,-245 1662,-245 1656,-245 1650,-239 1650,-233 1650,-233 1650,-193 1650,-193 1650,-187 1656,-181 1662,-181"/>
<text text-anchor="start" x="1760" y="-209.3" font-family="Arial" font-size="14.00"> &#160;&#160;</text>
<text text-anchor="start" x="1651" y="-166.8" font-family="Arial" font-weight="bold" font-size="14.00">prev_168_inflow</text>
</g>
<!-- 23&#45;&gt;24 -->
<g id="edge23" class="edge">
<title>23&#45;&gt;24</title>
<path fill="none" stroke="#888888" d="M1704,-307.67C1704,-299.39 1704,-290.83 1704,-282.38"/>
<polygon fill="#888888" stroke="#888888" points="1707.5,-282.18 1704,-272.18 1700.5,-282.18 1707.5,-282.18"/>
</g>
<!-- 27 -->
<g id="node25" class="node">
<title>27</title>
<text text-anchor="start" x="1920" y="-253.8" font-family="Arial" font-weight="bold" font-size="14.00"> ≥ 15.5</text>
<path fill="#ebebeb" stroke="transparent" d="M1899,-181C1899,-181 1983,-181 1983,-181 1989,-181 1995,-187 1995,-193 1995,-193 1995,-233 1995,-233 1995,-239 1989,-245 1983,-245 1983,-245 1899,-245 1899,-245 1893,-245 1887,-239 1887,-233 1887,-233 1887,-193 1887,-193 1887,-187 1893,-181 1899,-181"/>
<text text-anchor="start" x="1888" y="-242.4" font-family="Arial" font-size="2.00"> </text>
<text text-anchor="start" x="1888" y="-236.4" font-family="Arial" font-size="7.00"> &#160;27</text>
<text text-anchor="start" x="1902" y="-219.8" font-family="Arial" font-weight="bold" font-size="14.00">Mean: 30.22</text>
<text text-anchor="start" x="1921" y="-202.8" font-family="Arial" font-weight="bold" font-size="14.00">n = 31</text>
<text text-anchor="start" x="1939.5" y="-184.8" font-family="Arial" font-size="9.00"> </text>
<path fill="none" stroke="#333333" d="M1899,-181C1899,-181 1983,-181 1983,-181 1989,-181 1995,-187 1995,-193 1995,-193 1995,-233 1995,-233 1995,-239 1989,-245 1983,-245 1983,-245 1899,-245 1899,-245 1893,-245 1887,-239 1887,-233 1887,-233 1887,-193 1887,-193 1887,-187 1893,-181 1899,-181"/>
<text text-anchor="start" x="1926.5" y="-166.8" font-family="Arial" font-weight="bold" font-size="14.00">time</text>
</g>
<!-- 23&#45;&gt;27 -->
<g id="edge24" class="edge">
<title>23&#45;&gt;27</title>
<path fill="none" stroke="#888888" d="M1770.02,-323.66C1799.94,-304.47 1835.46,-281.69 1866.34,-261.88"/>
<polygon fill="#888888" stroke="#888888" points="1868.4,-264.72 1874.93,-256.38 1864.62,-258.83 1868.4,-264.72"/>
</g>
<!-- 21 -->
<g id="node22" class="node">
<title>21</title>
<text text-anchor="start" x="1295.5" y="-99.8" font-family="Arial" font-weight="bold" font-size="14.00"> &lt; 64.5</text>
<path fill="#f8766d" fill-opacity="0.776471" stroke="transparent" d="M1272,-27C1272,-27 1362,-27 1362,-27 1368,-27 1374,-33 1374,-39 1374,-39 1374,-79 1374,-79 1374,-85 1368,-91 1362,-91 1362,-91 1272,-91 1272,-91 1266,-91 1260,-85 1260,-79 1260,-79 1260,-39 1260,-39 1260,-33 1266,-27 1272,-27"/>
<text text-anchor="start" x="1261" y="-88.4" font-family="Arial" font-size="2.00"> </text>
<text text-anchor="start" x="1261" y="-82.4" font-family="Arial" font-size="7.00"> &#160;21</text>
<text text-anchor="start" x="1275" y="-65.8" font-family="Arial" font-weight="bold" font-size="14.00">Predict 27.13</text>
<text text-anchor="start" x="1297" y="-48.8" font-family="Arial" font-weight="bold" font-size="14.00">n = 14</text>
<text text-anchor="start" x="1315.5" y="-30.8" font-family="Arial" font-size="9.00"> </text>
<path fill="none" stroke="#333333" d="M1272,-27C1272,-27 1362,-27 1362,-27 1368,-27 1374,-33 1374,-39 1374,-39 1374,-79 1374,-79 1374,-85 1368,-91 1362,-91 1362,-91 1272,-91 1272,-91 1266,-91 1260,-85 1260,-79 1260,-79 1260,-39 1260,-39 1260,-33 1266,-27 1272,-27"/>
<text text-anchor="start" x="1315" y="-12.8" font-family="Arial" font-weight="bold" font-size="14.00"> </text>
</g>
<!-- 20&#45;&gt;21 -->
<g id="edge21" class="edge">
<title>20&#45;&gt;21</title>
<path fill="none" stroke="#888888" d="M1364.45,-153.67C1360.07,-145.03 1355.54,-136.07 1351.08,-127.27"/>
<polygon fill="#888888" stroke="#888888" points="1354.11,-125.52 1346.47,-118.18 1347.87,-128.68 1354.11,-125.52"/>
</g>
<!-- 22 -->
<g id="node23" class="node">
<title>22</title>
<text text-anchor="start" x="1452" y="-99.8" font-family="Arial" font-weight="bold" font-size="14.00"> ≥ 64.5</text>
<path fill="#f8766d" fill-opacity="0.705882" stroke="transparent" d="M1428,-27C1428,-27 1518,-27 1518,-27 1524,-27 1530,-33 1530,-39 1530,-39 1530,-79 1530,-79 1530,-85 1524,-91 1518,-91 1518,-91 1428,-91 1428,-91 1422,-91 1416,-85 1416,-79 1416,-79 1416,-39 1416,-39 1416,-33 1422,-27 1428,-27"/>
<text text-anchor="start" x="1417" y="-88.4" font-family="Arial" font-size="2.00"> </text>
<text text-anchor="start" x="1417" y="-82.4" font-family="Arial" font-size="7.00"> &#160;22</text>
<text text-anchor="start" x="1431" y="-65.8" font-family="Arial" font-weight="bold" font-size="14.00">Predict 29.69</text>
<text text-anchor="start" x="1457" y="-48.8" font-family="Arial" font-weight="bold" font-size="14.00">n = 4</text>
<text text-anchor="start" x="1471.5" y="-30.8" font-family="Arial" font-size="9.00"> </text>
<path fill="none" stroke="#333333" d="M1428,-27C1428,-27 1518,-27 1518,-27 1524,-27 1530,-33 1530,-39 1530,-39 1530,-79 1530,-79 1530,-85 1524,-91 1518,-91 1518,-91 1428,-91 1428,-91 1422,-91 1416,-85 1416,-79 1416,-79 1416,-39 1416,-39 1416,-33 1422,-27 1428,-27"/>
<text text-anchor="start" x="1471" y="-12.8" font-family="Arial" font-weight="bold" font-size="14.00"> </text>
</g>
<!-- 20&#45;&gt;22 -->
<g id="edge22" class="edge">
<title>20&#45;&gt;22</title>
<path fill="none" stroke="#888888" d="M1424.32,-153.67C1428.81,-145.03 1433.46,-136.07 1438.04,-127.27"/>
<polygon fill="#888888" stroke="#888888" points="1441.26,-128.66 1442.76,-118.18 1435.05,-125.44 1441.26,-128.66"/>
</g>
<!-- 25 -->
<g id="node26" class="node">
<title>25</title>
<text text-anchor="start" x="1613.5" y="-99.8" font-family="Arial" font-weight="bold" font-size="14.00"> &lt; 35</text>
<path fill="#f8766d" fill-opacity="0.639216" stroke="transparent" d="M1584,-27C1584,-27 1674,-27 1674,-27 1680,-27 1686,-33 1686,-39 1686,-39 1686,-79 1686,-79 1686,-85 1680,-91 1674,-91 1674,-91 1584,-91 1584,-91 1578,-91 1572,-85 1572,-79 1572,-79 1572,-39 1572,-39 1572,-33 1578,-27 1584,-27"/>
<text text-anchor="start" x="1573" y="-88.4" font-family="Arial" font-size="2.00"> </text>
<text text-anchor="start" x="1573" y="-82.4" font-family="Arial" font-size="7.00"> &#160;25</text>
<text text-anchor="start" x="1587" y="-65.8" font-family="Arial" font-weight="bold" font-size="14.00">Predict 32.33</text>
<text text-anchor="start" x="1609" y="-48.8" font-family="Arial" font-weight="bold" font-size="14.00">n = 16</text>
<text text-anchor="start" x="1627.5" y="-30.8" font-family="Arial" font-size="9.00"> </text>
<path fill="none" stroke="#333333" d="M1584,-27C1584,-27 1674,-27 1674,-27 1680,-27 1686,-33 1686,-39 1686,-39 1686,-79 1686,-79 1686,-85 1680,-91 1674,-91 1674,-91 1584,-91 1584,-91 1578,-91 1572,-85 1572,-79 1572,-79 1572,-39 1572,-39 1572,-33 1578,-27 1584,-27"/>
<text text-anchor="start" x="1627" y="-12.8" font-family="Arial" font-weight="bold" font-size="14.00"> </text>
</g>
<!-- 24&#45;&gt;25 -->
<g id="edge25" class="edge">
<title>24&#45;&gt;25</title>
<path fill="none" stroke="#888888" d="M1675.22,-153.67C1670.96,-145.03 1666.54,-136.07 1662.19,-127.27"/>
<polygon fill="#888888" stroke="#888888" points="1665.27,-125.6 1657.71,-118.18 1658.99,-128.69 1665.27,-125.6"/>
</g>
<!-- 26 -->
<g id="node27" class="node">
<title>26</title>
<text text-anchor="start" x="1769.5" y="-99.8" font-family="Arial" font-weight="bold" font-size="14.00"> ≥ 35</text>
<path fill="#f8766d" fill-opacity="0.607843" stroke="transparent" d="M1740,-27C1740,-27 1830,-27 1830,-27 1836,-27 1842,-33 1842,-39 1842,-39 1842,-79 1842,-79 1842,-85 1836,-91 1830,-91 1830,-91 1740,-91 1740,-91 1734,-91 1728,-85 1728,-79 1728,-79 1728,-39 1728,-39 1728,-33 1734,-27 1740,-27"/>
<text text-anchor="start" x="1729" y="-88.4" font-family="Arial" font-size="2.00"> </text>
<text text-anchor="start" x="1729" y="-82.4" font-family="Arial" font-size="7.00"> &#160;26</text>
<text text-anchor="start" x="1743" y="-65.8" font-family="Arial" font-weight="bold" font-size="14.00">Predict 33.49</text>
<text text-anchor="start" x="1769" y="-48.8" font-family="Arial" font-weight="bold" font-size="14.00">n = 4</text>
<text text-anchor="start" x="1783.5" y="-30.8" font-family="Arial" font-size="9.00"> </text>
<path fill="none" stroke="#333333" d="M1740,-27C1740,-27 1830,-27 1830,-27 1836,-27 1842,-33 1842,-39 1842,-39 1842,-79 1842,-79 1842,-85 1836,-91 1830,-91 1830,-91 1740,-91 1740,-91 1734,-91 1728,-85 1728,-79 1728,-79 1728,-39 1728,-39 1728,-33 1734,-27 1740,-27"/>
<text text-anchor="start" x="1783" y="-12.8" font-family="Arial" font-weight="bold" font-size="14.00"> </text>
</g>
<!-- 24&#45;&gt;26 -->
<g id="edge26" class="edge">
<title>24&#45;&gt;26</title>
<path fill="none" stroke="#888888" d="M1735.09,-153.67C1739.69,-145.03 1744.46,-136.07 1749.15,-127.27"/>
<polygon fill="#888888" stroke="#888888" points="1752.38,-128.65 1754,-118.18 1746.21,-125.36 1752.38,-128.65"/>
</g>
<!-- 28 -->
<g id="node28" class="node">
<title>28</title>
<text text-anchor="start" x="1919.5" y="-99.8" font-family="Arial" font-weight="bold" font-size="14.00"> &lt; 20.5</text>
<path fill="#f8766d" fill-opacity="0.678431" stroke="transparent" d="M1896,-27C1896,-27 1986,-27 1986,-27 1992,-27 1998,-33 1998,-39 1998,-39 1998,-79 1998,-79 1998,-85 1992,-91 1986,-91 1986,-91 1896,-91 1896,-91 1890,-91 1884,-85 1884,-79 1884,-79 1884,-39 1884,-39 1884,-33 1890,-27 1896,-27"/>
<text text-anchor="start" x="1885" y="-88.4" font-family="Arial" font-size="2.00"> </text>
<text text-anchor="start" x="1885" y="-82.4" font-family="Arial" font-size="7.00"> &#160;28</text>
<text text-anchor="start" x="1899" y="-65.8" font-family="Arial" font-weight="bold" font-size="14.00">Predict 30.84</text>
<text text-anchor="start" x="1921" y="-48.8" font-family="Arial" font-weight="bold" font-size="14.00">n = 24</text>
<text text-anchor="start" x="1939.5" y="-30.8" font-family="Arial" font-size="9.00"> </text>
<path fill="none" stroke="#333333" d="M1896,-27C1896,-27 1986,-27 1986,-27 1992,-27 1998,-33 1998,-39 1998,-39 1998,-79 1998,-79 1998,-85 1992,-91 1986,-91 1986,-91 1896,-91 1896,-91 1890,-91 1884,-85 1884,-79 1884,-79 1884,-39 1884,-39 1884,-33 1890,-27 1896,-27"/>
<text text-anchor="start" x="1939" y="-12.8" font-family="Arial" font-weight="bold" font-size="14.00"> </text>
</g>
<!-- 27&#45;&gt;28 -->
<g id="edge27" class="edge">
<title>27&#45;&gt;28</title>
<path fill="none" stroke="#888888" d="M1941,-153.67C1941,-145.39 1941,-136.83 1941,-128.38"/>
<polygon fill="#888888" stroke="#888888" points="1944.5,-128.18 1941,-118.18 1937.5,-128.18 1944.5,-128.18"/>
</g>
<!-- 29 -->
<g id="node29" class="node">
<title>29</title>
<text text-anchor="start" x="2076" y="-99.8" font-family="Arial" font-weight="bold" font-size="14.00"> ≥ 20.5</text>
<path fill="#f8766d" fill-opacity="0.749020" stroke="transparent" d="M2052,-27C2052,-27 2142,-27 2142,-27 2148,-27 2154,-33 2154,-39 2154,-39 2154,-79 2154,-79 2154,-85 2148,-91 2142,-91 2142,-91 2052,-91 2052,-91 2046,-91 2040,-85 2040,-79 2040,-79 2040,-39 2040,-39 2040,-33 2046,-27 2052,-27"/>
<text text-anchor="start" x="2041" y="-88.4" font-family="Arial" font-size="2.00"> </text>
<text text-anchor="start" x="2041" y="-82.4" font-family="Arial" font-size="7.00"> &#160;29</text>
<text text-anchor="start" x="2055" y="-65.8" font-family="Arial" font-weight="bold" font-size="14.00">Predict 28.09</text>
<text text-anchor="start" x="2081" y="-48.8" font-family="Arial" font-weight="bold" font-size="14.00">n = 7</text>
<text text-anchor="start" x="2095.5" y="-30.8" font-family="Arial" font-size="9.00"> </text>
<path fill="none" stroke="#333333" d="M2052,-27C2052,-27 2142,-27 2142,-27 2148,-27 2154,-33 2154,-39 2154,-39 2154,-79 2154,-79 2154,-85 2148,-91 2142,-91 2142,-91 2052,-91 2052,-91 2046,-91 2040,-85 2040,-79 2040,-79 2040,-39 2040,-39 2040,-33 2046,-27 2052,-27"/>
<text text-anchor="start" x="2095" y="-12.8" font-family="Arial" font-weight="bold" font-size="14.00"> </text>
</g>
<!-- 27&#45;&gt;29 -->
<g id="edge28" class="edge">
<title>27&#45;&gt;29</title>
<path fill="none" stroke="#888888" d="M2000.87,-153.67C2010.38,-144.39 2020.28,-134.75 2029.95,-125.33"/>
<polygon fill="#888888" stroke="#888888" points="2032.57,-127.66 2037.29,-118.18 2027.69,-122.65 2032.57,-127.66"/>
</g>
</g>
</svg>
