<?xml version="1.0" encoding="UTF-8" standalone="no"?>
<!DOCTYPE svg PUBLIC "-//W3C//DTD SVG 1.1//EN"
 "http://www.w3.org/Graphics/SVG/1.1/DTD/svg11.dtd">
<!-- Generated by graphviz version 2.50.0 (20211204.2007)
 -->
<!-- Pages: 1 -->
<svg width="1422pt" height="896pt"
 viewBox="0.00 0.00 1422.00 896.00" xmlns="http://www.w3.org/2000/svg" xmlns:xlink="http://www.w3.org/1999/xlink">
<g id="graph0" class="graph" transform="scale(1 1) rotate(0) translate(4 892)">
<polygon fill="white" stroke="transparent" points="-4,4 -4,-892 1418,-892 1418,4 -4,4"/>
<!-- 1 -->
<g id="node1" class="node">
<title>1</title>
<text text-anchor="start" x="583" y="-869.8" font-family="Arial" font-weight="bold" font-size="14.00"> </text>
<text text-anchor="start" x="517" y="-825.3" font-family="Arial" font-size="14.00"> &#160;&#160;</text>
<path fill="#ebebeb" stroke="transparent" d="M543,-797C543,-797 627,-797 627,-797 633,-797 639,-803 639,-809 639,-809 639,-849 639,-849 639,-855 633,-861 627,-861 627,-861 543,-861 543,-861 537,-861 531,-855 531,-849 531,-849 531,-809 531,-809 531,-803 537,-797 543,-797"/>
<text text-anchor="start" x="532" y="-858.4" font-family="Arial" font-size="2.00"> </text>
<text text-anchor="start" x="532" y="-852.4" font-family="Arial" font-size="7.00"> &#160;1</text>
<text text-anchor="start" x="546" y="-835.8" font-family="Arial" font-weight="bold" font-size="14.00">Mean: 21.34</text>
<text text-anchor="start" x="561.5" y="-818.8" font-family="Arial" font-weight="bold" font-size="14.00">n = 168</text>
<text text-anchor="start" x="583.5" y="-800.8" font-family="Arial" font-size="9.00"> </text>
<path fill="none" stroke="#333333" d="M543,-797C543,-797 627,-797 627,-797 633,-797 639,-803 639,-809 639,-809 639,-849 639,-849 639,-855 633,-861 627,-861 627,-861 543,-861 543,-861 537,-861 531,-855 531,-849 531,-849 531,-809 531,-809 531,-803 537,-797 543,-797"/>
<text text-anchor="start" x="641" y="-825.3" font-family="Arial" font-size="14.00"> &#160;&#160;</text>
<text text-anchor="start" x="532" y="-782.8" font-family="Arial" font-weight="bold" font-size="14.00">prev_168_inflow</text>
</g>
<!-- 2 -->
<g id="node2" class="node">
<title>2</title>
<text text-anchor="start" x="477" y="-715.8" font-family="Arial" font-weight="bold" font-size="14.00"> &lt; 20.32</text>
<path fill="#ebebeb" stroke="transparent" d="M460,-643C460,-643 544,-643 544,-643 550,-643 556,-649 556,-655 556,-655 556,-695 556,-695 556,-701 550,-707 544,-707 544,-707 460,-707 460,-707 454,-707 448,-701 448,-695 448,-695 448,-655 448,-655 448,-649 454,-643 460,-643"/>
<text text-anchor="start" x="449" y="-704.4" font-family="Arial" font-size="2.00"> </text>
<text text-anchor="start" x="449" y="-698.4" font-family="Arial" font-size="7.00"> &#160;2</text>
<text text-anchor="start" x="463" y="-681.8" font-family="Arial" font-weight="bold" font-size="14.00">Mean: 15.63</text>
<text text-anchor="start" x="482" y="-664.8" font-family="Arial" font-weight="bold" font-size="14.00">n = 66</text>
<text text-anchor="start" x="500.5" y="-646.8" font-family="Arial" font-size="9.00"> </text>
<path fill="none" stroke="#333333" d="M460,-643C460,-643 544,-643 544,-643 550,-643 556,-649 556,-655 556,-655 556,-695 556,-695 556,-701 550,-707 544,-707 544,-707 460,-707 460,-707 454,-707 448,-701 448,-695 448,-695 448,-655 448,-655 448,-649 454,-643 460,-643"/>
<text text-anchor="start" x="487.5" y="-628.8" font-family="Arial" font-weight="bold" font-size="14.00">time</text>
</g>
<!-- 1&#45;&gt;2 -->
<g id="edge1" class="edge">
<title>1&#45;&gt;2</title>
<path fill="none" stroke="#888888" d="M553.15,-769.67C548.38,-760.94 543.44,-751.88 538.58,-742.99"/>
<polygon fill="#888888" stroke="#888888" points="541.63,-741.28 533.77,-734.18 535.49,-744.63 541.63,-741.28"/>
</g>
<!-- 13 -->
<g id="node3" class="node">
<title>13</title>
<text text-anchor="start" x="714.5" y="-715.8" font-family="Arial" font-weight="bold" font-size="14.00"> ≥ 20.32</text>
<text text-anchor="start" x="671" y="-671.3" font-family="Arial" font-size="14.00"> &#160;&#160;</text>
<path fill="#ebebeb" stroke="transparent" d="M697,-643C697,-643 781,-643 781,-643 787,-643 793,-649 793,-655 793,-655 793,-695 793,-695 793,-701 787,-707 781,-707 781,-707 697,-707 697,-707 691,-707 685,-701 685,-695 685,-695 685,-655 685,-655 685,-649 691,-643 697,-643"/>
<text text-anchor="start" x="686" y="-704.4" font-family="Arial" font-size="2.00"> </text>
<text text-anchor="start" x="686" y="-698.4" font-family="Arial" font-size="7.00"> &#160;13</text>
<text text-anchor="start" x="700" y="-681.8" font-family="Arial" font-weight="bold" font-size="14.00">Mean: 25.03</text>
<text text-anchor="start" x="715.5" y="-664.8" font-family="Arial" font-weight="bold" font-size="14.00">n = 102</text>
<text text-anchor="start" x="737.5" y="-646.8" font-family="Arial" font-size="9.00"> </text>
<path fill="none" stroke="#333333" d="M697,-643C697,-643 781,-643 781,-643 787,-643 793,-649 793,-655 793,-655 793,-695 793,-695 793,-701 787,-707 781,-707 781,-707 697,-707 697,-707 691,-707 685,-701 685,-695 685,-695 685,-655 685,-655 685,-649 691,-643 697,-643"/>
<text text-anchor="start" x="795" y="-671.3" font-family="Arial" font-size="14.00"> &#160;&#160;</text>
<text text-anchor="start" x="686" y="-628.8" font-family="Arial" font-weight="bold" font-size="14.00">prev_168_inflow</text>
</g>
<!-- 1&#45;&gt;13 -->
<g id="edge2" class="edge">
<title>1&#45;&gt;13</title>
<path fill="none" stroke="#888888" d="M644.1,-769.67C653.5,-760.39 663.27,-750.75 672.81,-741.33"/>
<polygon fill="#888888" stroke="#888888" points="675.4,-743.69 680.06,-734.18 670.48,-738.71 675.4,-743.69"/>
</g>
<!-- 3 -->
<g id="node4" class="node">
<title>3</title>
<text text-anchor="start" x="206.5" y="-561.8" font-family="Arial" font-weight="bold" font-size="14.00"> &lt; 5.5</text>
<text text-anchor="start" x="160" y="-517.3" font-family="Arial" font-size="14.00"> &#160;</text>
<path fill="#ebebeb" stroke="transparent" d="M182,-489C182,-489 266,-489 266,-489 272,-489 278,-495 278,-501 278,-501 278,-541 278,-541 278,-547 272,-553 266,-553 266,-553 182,-553 182,-553 176,-553 170,-547 170,-541 170,-541 170,-501 170,-501 170,-495 176,-489 182,-489"/>
<text text-anchor="start" x="171" y="-550.4" font-family="Arial" font-size="2.00"> </text>
<text text-anchor="start" x="171" y="-544.4" font-family="Arial" font-size="7.00"> &#160;3</text>
<text text-anchor="start" x="185" y="-527.8" font-family="Arial" font-weight="bold" font-size="14.00">Mean: 13.87</text>
<text text-anchor="start" x="204" y="-510.8" font-family="Arial" font-weight="bold" font-size="14.00">n = 42</text>
<text text-anchor="start" x="222.5" y="-492.8" font-family="Arial" font-size="9.00"> </text>
<path fill="none" stroke="#333333" d="M182,-489C182,-489 266,-489 266,-489 272,-489 278,-495 278,-501 278,-501 278,-541 278,-541 278,-547 272,-553 266,-553 266,-553 182,-553 182,-553 176,-553 170,-547 170,-541 170,-541 170,-501 170,-501 170,-495 176,-489 182,-489"/>
<text text-anchor="start" x="280" y="-517.3" font-family="Arial" font-size="14.00"> &#160;</text>
<text text-anchor="start" x="174.5" y="-474.8" font-family="Arial" font-weight="bold" font-size="14.00">prev_24_inflow</text>
</g>
<!-- 2&#45;&gt;3 -->
<g id="edge3" class="edge">
<title>2&#45;&gt;3</title>
<path fill="none" stroke="#888888" d="M435.77,-637.79C397.16,-616.68 348.13,-589.87 306.98,-567.37"/>
<polygon fill="#888888" stroke="#888888" points="308.5,-564.21 298.05,-562.49 305.14,-570.36 308.5,-564.21"/>
</g>
<!-- 8 -->
<g id="node5" class="node">
<title>8</title>
<text text-anchor="start" x="485" y="-561.8" font-family="Arial" font-weight="bold" font-size="14.00"> ≥ 5.5</text>
<text text-anchor="start" x="438" y="-517.3" font-family="Arial" font-size="14.00"> &#160;</text>
<path fill="#ebebeb" stroke="transparent" d="M460,-489C460,-489 544,-489 544,-489 550,-489 556,-495 556,-501 556,-501 556,-541 556,-541 556,-547 550,-553 544,-553 544,-553 460,-553 460,-553 454,-553 448,-547 448,-541 448,-541 448,-501 448,-501 448,-495 454,-489 460,-489"/>
<text text-anchor="start" x="449" y="-550.4" font-family="Arial" font-size="2.00"> </text>
<text text-anchor="start" x="449" y="-544.4" font-family="Arial" font-size="7.00"> &#160;8</text>
<text text-anchor="start" x="463" y="-527.8" font-family="Arial" font-weight="bold" font-size="14.00">Mean: 18.72</text>
<text text-anchor="start" x="482" y="-510.8" font-family="Arial" font-weight="bold" font-size="14.00">n = 24</text>
<text text-anchor="start" x="500.5" y="-492.8" font-family="Arial" font-size="9.00"> </text>
<path fill="none" stroke="#333333" d="M460,-489C460,-489 544,-489 544,-489 550,-489 556,-495 556,-501 556,-501 556,-541 556,-541 556,-547 550,-553 544,-553 544,-553 460,-553 460,-553 454,-553 448,-547 448,-541 448,-541 448,-501 448,-501 448,-495 454,-489 460,-489"/>
<text text-anchor="start" x="558" y="-517.3" font-family="Arial" font-size="14.00"> &#160;</text>
<text text-anchor="start" x="452.5" y="-474.8" font-family="Arial" font-weight="bold" font-size="14.00">prev_24_inflow</text>
</g>
<!-- 2&#45;&gt;8 -->
<g id="edge4" class="edge">
<title>2&#45;&gt;8</title>
<path fill="none" stroke="#888888" d="M502,-615.67C502,-607.39 502,-598.83 502,-590.38"/>
<polygon fill="#888888" stroke="#888888" points="505.5,-590.18 502,-580.18 498.5,-590.18 505.5,-590.18"/>
</g>
<!-- 14 -->
<g id="node14" class="node">
<title>14</title>
<text text-anchor="start" x="717.5" y="-561.8" font-family="Arial" font-weight="bold" font-size="14.00"> &lt; 23.5</text>
<text text-anchor="start" x="675" y="-517.3" font-family="Arial" font-size="14.00"> &#160;</text>
<path fill="#ebebeb" stroke="transparent" d="M697,-489C697,-489 781,-489 781,-489 787,-489 793,-495 793,-501 793,-501 793,-541 793,-541 793,-547 787,-553 781,-553 781,-553 697,-553 697,-553 691,-553 685,-547 685,-541 685,-541 685,-501 685,-501 685,-495 691,-489 697,-489"/>
<text text-anchor="start" x="686" y="-550.4" font-family="Arial" font-size="2.00"> </text>
<text text-anchor="start" x="686" y="-544.4" font-family="Arial" font-size="7.00"> &#160;14</text>
<text text-anchor="start" x="700" y="-527.8" font-family="Arial" font-weight="bold" font-size="14.00">Mean: 22.34</text>
<text text-anchor="start" x="719" y="-510.8" font-family="Arial" font-weight="bold" font-size="14.00">n = 27</text>
<text text-anchor="start" x="737.5" y="-492.8" font-family="Arial" font-size="9.00"> </text>
<path fill="none" stroke="#333333" d="M697,-489C697,-489 781,-489 781,-489 787,-489 793,-495 793,-501 793,-501 793,-541 793,-541 793,-547 787,-553 781,-553 781,-553 697,-553 697,-553 691,-553 685,-547 685,-541 685,-541 685,-501 685,-501 685,-495 691,-489 697,-489"/>
<text text-anchor="start" x="795" y="-517.3" font-family="Arial" font-size="14.00"> &#160;</text>
<text text-anchor="start" x="693.5" y="-474.8" font-family="Arial" font-weight="bold" font-size="14.00">prev_1_inflow</text>
</g>
<!-- 13&#45;&gt;14 -->
<g id="edge13" class="edge">
<title>13&#45;&gt;14</title>
<path fill="none" stroke="#888888" d="M739,-615.67C739,-607.39 739,-598.83 739,-590.38"/>
<polygon fill="#888888" stroke="#888888" points="742.5,-590.18 739,-580.18 735.5,-590.18 742.5,-590.18"/>
</g>
<!-- 17 -->
<g id="node15" class="node">
<title>17</title>
<text text-anchor="start" x="999.5" y="-561.8" font-family="Arial" font-weight="bold" font-size="14.00"> ≥ 23.5</text>
<path fill="#ebebeb" stroke="transparent" d="M988,-489C988,-489 1053,-489 1053,-489 1059,-489 1065,-495 1065,-501 1065,-501 1065,-541 1065,-541 1065,-547 1059,-553 1053,-553 1053,-553 988,-553 988,-553 982,-553 976,-547 976,-541 976,-541 976,-501 976,-501 976,-495 982,-489 988,-489"/>
<text text-anchor="start" x="977" y="-550.4" font-family="Arial" font-size="2.00"> </text>
<text text-anchor="start" x="977" y="-544.4" font-family="Arial" font-size="7.00"> &#160;17</text>
<text text-anchor="start" x="991" y="-527.8" font-family="Arial" font-weight="bold" font-size="14.00">Mean: 26</text>
<text text-anchor="start" x="1000.5" y="-510.8" font-family="Arial" font-weight="bold" font-size="14.00">n = 75</text>
<text text-anchor="start" x="1019" y="-492.8" font-family="Arial" font-size="9.00"> </text>
<path fill="none" stroke="#333333" d="M988,-489C988,-489 1053,-489 1053,-489 1059,-489 1065,-495 1065,-501 1065,-501 1065,-541 1065,-541 1065,-547 1059,-553 1053,-553 1053,-553 988,-553 988,-553 982,-553 976,-547 976,-541 976,-541 976,-501 976,-501 976,-495 982,-489 988,-489"/>
<text text-anchor="start" x="1006" y="-474.8" font-family="Arial" font-weight="bold" font-size="14.00">time</text>
</g>
<!-- 13&#45;&gt;17 -->
<g id="edge14" class="edge">
<title>13&#45;&gt;17</title>
<path fill="none" stroke="#888888" d="M817.27,-631.66C860.39,-608.34 913.31,-579.71 954.27,-557.56"/>
<polygon fill="#888888" stroke="#888888" points="955.95,-560.63 963.08,-552.79 952.62,-554.47 955.95,-560.63"/>
</g>
<!-- 4 -->
<g id="node6" class="node">
<title>4</title>
<text text-anchor="start" x="46" y="-407.8" font-family="Arial" font-weight="bold" font-size="14.00"> &lt; 14.33</text>
<path fill="#f8766d" fill-opacity="0.874510" stroke="transparent" d="M26,-335C26,-335 116,-335 116,-335 122,-335 128,-341 128,-347 128,-347 128,-387 128,-387 128,-393 122,-399 116,-399 116,-399 26,-399 26,-399 20,-399 14,-393 14,-387 14,-387 14,-347 14,-347 14,-341 20,-335 26,-335"/>
<text text-anchor="start" x="15" y="-396.4" font-family="Arial" font-size="2.00"> </text>
<text text-anchor="start" x="15" y="-390.4" font-family="Arial" font-size="7.00"> &#160;4</text>
<text text-anchor="start" x="29" y="-373.8" font-family="Arial" font-weight="bold" font-size="14.00">Predict 13.07</text>
<text text-anchor="start" x="51" y="-356.8" font-family="Arial" font-weight="bold" font-size="14.00">n = 29</text>
<text text-anchor="start" x="69.5" y="-338.8" font-family="Arial" font-size="9.00"> </text>
<path fill="none" stroke="#333333" d="M26,-335C26,-335 116,-335 116,-335 122,-335 128,-341 128,-347 128,-347 128,-387 128,-387 128,-393 122,-399 116,-399 116,-399 26,-399 26,-399 20,-399 14,-393 14,-387 14,-387 14,-347 14,-347 14,-341 20,-335 26,-335"/>
<text text-anchor="start" x="69" y="-320.8" font-family="Arial" font-weight="bold" font-size="14.00"> </text>
</g>
<!-- 3&#45;&gt;4 -->
<g id="edge5" class="edge">
<title>3&#45;&gt;4</title>
<path fill="none" stroke="#888888" d="M165.28,-461.67C155.95,-452.39 146.24,-442.75 136.76,-433.33"/>
<polygon fill="#888888" stroke="#888888" points="139.12,-430.74 129.56,-426.18 134.19,-435.71 139.12,-430.74"/>
</g>
<!-- 5 -->
<g id="node7" class="node">
<title>5</title>
<text text-anchor="start" x="199.5" y="-407.8" font-family="Arial" font-weight="bold" font-size="14.00"> ≥ 14.33</text>
<path fill="#ebebeb" stroke="transparent" d="M182,-335C182,-335 266,-335 266,-335 272,-335 278,-341 278,-347 278,-347 278,-387 278,-387 278,-393 272,-399 266,-399 266,-399 182,-399 182,-399 176,-399 170,-393 170,-387 170,-387 170,-347 170,-347 170,-341 176,-335 182,-335"/>
<text text-anchor="start" x="171" y="-396.4" font-family="Arial" font-size="2.00"> </text>
<text text-anchor="start" x="171" y="-390.4" font-family="Arial" font-size="7.00"> &#160;5</text>
<text text-anchor="start" x="185" y="-373.8" font-family="Arial" font-weight="bold" font-size="14.00">Mean: 15.66</text>
<text text-anchor="start" x="204" y="-356.8" font-family="Arial" font-weight="bold" font-size="14.00">n = 13</text>
<text text-anchor="start" x="222.5" y="-338.8" font-family="Arial" font-size="9.00"> </text>
<path fill="none" stroke="#333333" d="M182,-335C182,-335 266,-335 266,-335 272,-335 278,-341 278,-347 278,-347 278,-387 278,-387 278,-393 272,-399 266,-399 266,-399 182,-399 182,-399 176,-399 170,-393 170,-387 170,-387 170,-347 170,-347 170,-341 176,-335 182,-335"/>
<text text-anchor="start" x="188.5" y="-320.8" font-family="Arial" font-weight="bold" font-size="14.00">windspeed</text>
</g>
<!-- 3&#45;&gt;5 -->
<g id="edge6" class="edge">
<title>3&#45;&gt;5</title>
<path fill="none" stroke="#888888" d="M224,-461.67C224,-453.39 224,-444.83 224,-436.38"/>
<polygon fill="#888888" stroke="#888888" points="227.5,-436.18 224,-426.18 220.5,-436.18 227.5,-436.18"/>
</g>
<!-- 9 -->
<g id="node10" class="node">
<title>9</title>
<text text-anchor="start" x="357" y="-407.8" font-family="Arial" font-weight="bold" font-size="14.00"> &lt; 19.69</text>
<text text-anchor="start" x="318" y="-363.3" font-family="Arial" font-size="14.00"> &#160;</text>
<path fill="#ebebeb" stroke="transparent" d="M340,-335C340,-335 424,-335 424,-335 430,-335 436,-341 436,-347 436,-347 436,-387 436,-387 436,-393 430,-399 424,-399 424,-399 340,-399 340,-399 334,-399 328,-393 328,-387 328,-387 328,-347 328,-347 328,-341 334,-335 340,-335"/>
<text text-anchor="start" x="329" y="-396.4" font-family="Arial" font-size="2.00"> </text>
<text text-anchor="start" x="329" y="-390.4" font-family="Arial" font-size="7.00"> &#160;9</text>
<text text-anchor="start" x="343" y="-373.8" font-family="Arial" font-weight="bold" font-size="14.00">Mean: 17.83</text>
<text text-anchor="start" x="362" y="-356.8" font-family="Arial" font-weight="bold" font-size="14.00">n = 14</text>
<text text-anchor="start" x="380.5" y="-338.8" font-family="Arial" font-size="9.00"> </text>
<path fill="none" stroke="#333333" d="M340,-335C340,-335 424,-335 424,-335 430,-335 436,-341 436,-347 436,-347 436,-387 436,-387 436,-393 430,-399 424,-399 424,-399 340,-399 340,-399 334,-399 328,-393 328,-387 328,-387 328,-347 328,-347 328,-341 334,-335 340,-335"/>
<text text-anchor="start" x="438" y="-363.3" font-family="Arial" font-size="14.00"> &#160;</text>
<text text-anchor="start" x="336.5" y="-320.8" font-family="Arial" font-weight="bold" font-size="14.00">prev_1_inflow</text>
</g>
<!-- 8&#45;&gt;9 -->
<g id="edge9" class="edge">
<title>8&#45;&gt;9</title>
<path fill="none" stroke="#888888" d="M455.95,-461.67C448.84,-452.67 441.46,-443.32 434.23,-434.16"/>
<polygon fill="#888888" stroke="#888888" points="436.87,-431.86 427.93,-426.18 431.38,-436.19 436.87,-431.86"/>
</g>
<!-- 12 -->
<g id="node11" class="node">
<title>12</title>
<text text-anchor="start" x="518.5" y="-407.8" font-family="Arial" font-weight="bold" font-size="14.00"> ≥ 19.69</text>
<path fill="#f8766d" fill-opacity="0.658824" stroke="transparent" d="M498,-335C498,-335 588,-335 588,-335 594,-335 600,-341 600,-347 600,-347 600,-387 600,-387 600,-393 594,-399 588,-399 588,-399 498,-399 498,-399 492,-399 486,-393 486,-387 486,-387 486,-347 486,-347 486,-341 492,-335 498,-335"/>
<text text-anchor="start" x="487" y="-396.4" font-family="Arial" font-size="2.00"> </text>
<text text-anchor="start" x="487" y="-390.4" font-family="Arial" font-size="7.00"> &#160;12</text>
<text text-anchor="start" x="501" y="-373.8" font-family="Arial" font-weight="bold" font-size="14.00">Predict 19.96</text>
<text text-anchor="start" x="523" y="-356.8" font-family="Arial" font-weight="bold" font-size="14.00">n = 10</text>
<text text-anchor="start" x="541.5" y="-338.8" font-family="Arial" font-size="9.00"> </text>
<path fill="none" stroke="#333333" d="M498,-335C498,-335 588,-335 588,-335 594,-335 600,-341 600,-347 600,-347 600,-387 600,-387 600,-393 594,-399 588,-399 588,-399 498,-399 498,-399 492,-399 486,-393 486,-387 486,-387 486,-347 486,-347 486,-341 492,-335 498,-335"/>
<text text-anchor="start" x="541" y="-320.8" font-family="Arial" font-weight="bold" font-size="14.00"> </text>
</g>
<!-- 8&#45;&gt;12 -->
<g id="edge10" class="edge">
<title>8&#45;&gt;12</title>
<path fill="none" stroke="#888888" d="M517.73,-461.67C519.99,-453.3 522.33,-444.64 524.63,-436.1"/>
<polygon fill="#888888" stroke="#888888" points="528.08,-436.74 527.31,-426.18 521.32,-434.92 528.08,-436.74"/>
</g>
<!-- 6 -->
<g id="node8" class="node">
<title>6</title>
<text text-anchor="start" x="47.5" y="-253.8" font-family="Arial" font-weight="bold" font-size="14.00"> &lt; 35.5</text>
<path fill="#f8766d" fill-opacity="0.811765" stroke="transparent" d="M24,-181C24,-181 114,-181 114,-181 120,-181 126,-187 126,-193 126,-193 126,-233 126,-233 126,-239 120,-245 114,-245 114,-245 24,-245 24,-245 18,-245 12,-239 12,-233 12,-233 12,-193 12,-193 12,-187 18,-181 24,-181"/>
<text text-anchor="start" x="13" y="-242.4" font-family="Arial" font-size="2.00"> </text>
<text text-anchor="start" x="13" y="-236.4" font-family="Arial" font-size="7.00"> &#160;6</text>
<text text-anchor="start" x="27" y="-219.8" font-family="Arial" font-weight="bold" font-size="14.00">Predict 15.03</text>
<text text-anchor="start" x="49" y="-202.8" font-family="Arial" font-weight="bold" font-size="14.00">n = 10</text>
<text text-anchor="start" x="67.5" y="-184.8" font-family="Arial" font-size="9.00"> </text>
<path fill="none" stroke="#333333" d="M24,-181C24,-181 114,-181 114,-181 120,-181 126,-187 126,-193 126,-193 126,-233 126,-233 126,-239 120,-245 114,-245 114,-245 24,-245 24,-245 18,-245 12,-239 12,-233 12,-233 12,-193 12,-193 12,-187 18,-181 24,-181"/>
<text text-anchor="start" x="67" y="-166.8" font-family="Arial" font-weight="bold" font-size="14.00"> </text>
</g>
<!-- 5&#45;&gt;6 -->
<g id="edge7" class="edge">
<title>5&#45;&gt;6</title>
<path fill="none" stroke="#888888" d="M164.52,-307.67C155.06,-298.39 145.22,-288.75 135.62,-279.33"/>
<polygon fill="#888888" stroke="#888888" points="137.92,-276.68 128.32,-272.18 133.01,-281.68 137.92,-276.68"/>
</g>
<!-- 7 -->
<g id="node9" class="node">
<title>7</title>
<text text-anchor="start" x="204" y="-253.8" font-family="Arial" font-weight="bold" font-size="14.00"> ≥ 35.5</text>
<path fill="#f8766d" fill-opacity="0.725490" stroke="transparent" d="M180,-181C180,-181 270,-181 270,-181 276,-181 282,-187 282,-193 282,-193 282,-233 282,-233 282,-239 276,-245 270,-245 270,-245 180,-245 180,-245 174,-245 168,-239 168,-233 168,-233 168,-193 168,-193 168,-187 174,-181 180,-181"/>
<text text-anchor="start" x="169" y="-242.4" font-family="Arial" font-size="2.00"> </text>
<text text-anchor="start" x="169" y="-236.4" font-family="Arial" font-size="7.00"> &#160;7</text>
<text text-anchor="start" x="183" y="-219.8" font-family="Arial" font-weight="bold" font-size="14.00">Predict 17.77</text>
<text text-anchor="start" x="209" y="-202.8" font-family="Arial" font-weight="bold" font-size="14.00">n = 3</text>
<text text-anchor="start" x="223.5" y="-184.8" font-family="Arial" font-size="9.00"> </text>
<path fill="none" stroke="#333333" d="M180,-181C180,-181 270,-181 270,-181 276,-181 282,-187 282,-193 282,-193 282,-233 282,-233 282,-239 276,-245 270,-245 270,-245 180,-245 180,-245 174,-245 168,-239 168,-233 168,-233 168,-193 168,-193 168,-187 174,-181 180,-181"/>
<text text-anchor="start" x="223" y="-166.8" font-family="Arial" font-weight="bold" font-size="14.00"> </text>
</g>
<!-- 5&#45;&gt;7 -->
<g id="edge8" class="edge">
<title>5&#45;&gt;7</title>
<path fill="none" stroke="#888888" d="M224.38,-307.67C224.44,-299.39 224.49,-290.83 224.55,-282.38"/>
<polygon fill="#888888" stroke="#888888" points="228.05,-282.2 224.62,-272.18 221.05,-282.15 228.05,-282.2"/>
</g>
<!-- 10 -->
<g id="node12" class="node">
<title>10</title>
<text text-anchor="start" x="360.5" y="-253.8" font-family="Arial" font-weight="bold" font-size="14.00"> &lt; 13.9</text>
<path fill="#f8766d" fill-opacity="0.796078" stroke="transparent" d="M337,-181C337,-181 427,-181 427,-181 433,-181 439,-187 439,-193 439,-193 439,-233 439,-233 439,-239 433,-245 427,-245 427,-245 337,-245 337,-245 331,-245 325,-239 325,-233 325,-233 325,-193 325,-193 325,-187 331,-181 337,-181"/>
<text text-anchor="start" x="326" y="-242.4" font-family="Arial" font-size="2.00"> </text>
<text text-anchor="start" x="326" y="-236.4" font-family="Arial" font-size="7.00"> &#160;10</text>
<text text-anchor="start" x="340" y="-219.8" font-family="Arial" font-weight="bold" font-size="14.00">Predict 15.57</text>
<text text-anchor="start" x="366" y="-202.8" font-family="Arial" font-weight="bold" font-size="14.00">n = 2</text>
<text text-anchor="start" x="380.5" y="-184.8" font-family="Arial" font-size="9.00"> </text>
<path fill="none" stroke="#333333" d="M337,-181C337,-181 427,-181 427,-181 433,-181 439,-187 439,-193 439,-193 439,-233 439,-233 439,-239 433,-245 427,-245 427,-245 337,-245 337,-245 331,-245 325,-239 325,-233 325,-233 325,-193 325,-193 325,-187 331,-181 337,-181"/>
<text text-anchor="start" x="380" y="-166.8" font-family="Arial" font-weight="bold" font-size="14.00"> </text>
</g>
<!-- 9&#45;&gt;10 -->
<g id="edge11" class="edge">
<title>9&#45;&gt;10</title>
<path fill="none" stroke="#888888" d="M382,-307.67C382,-299.39 382,-290.83 382,-282.38"/>
<polygon fill="#888888" stroke="#888888" points="385.5,-282.18 382,-272.18 378.5,-282.18 385.5,-282.18"/>
</g>
<!-- 11 -->
<g id="node13" class="node">
<title>11</title>
<text text-anchor="start" x="517" y="-253.8" font-family="Arial" font-weight="bold" font-size="14.00"> ≥ 13.9</text>
<path fill="#f8766d" fill-opacity="0.713725" stroke="transparent" d="M493,-181C493,-181 583,-181 583,-181 589,-181 595,-187 595,-193 595,-193 595,-233 595,-233 595,-239 589,-245 583,-245 583,-245 493,-245 493,-245 487,-245 481,-239 481,-233 481,-233 481,-193 481,-193 481,-187 487,-181 493,-181"/>
<text text-anchor="start" x="482" y="-242.4" font-family="Arial" font-size="2.00"> </text>
<text text-anchor="start" x="482" y="-236.4" font-family="Arial" font-size="7.00"> &#160;11</text>
<text text-anchor="start" x="496" y="-219.8" font-family="Arial" font-weight="bold" font-size="14.00">Predict 18.21</text>
<text text-anchor="start" x="518" y="-202.8" font-family="Arial" font-weight="bold" font-size="14.00">n = 12</text>
<text text-anchor="start" x="536.5" y="-184.8" font-family="Arial" font-size="9.00"> </text>
<path fill="none" stroke="#333333" d="M493,-181C493,-181 583,-181 583,-181 589,-181 595,-187 595,-193 595,-193 595,-233 595,-233 595,-239 589,-245 583,-245 583,-245 493,-245 493,-245 487,-245 481,-239 481,-233 481,-233 481,-193 481,-193 481,-187 487,-181 493,-181"/>
<text text-anchor="start" x="536" y="-166.8" font-family="Arial" font-weight="bold" font-size="14.00"> </text>
</g>
<!-- 9&#45;&gt;11 -->
<g id="edge12" class="edge">
<title>9&#45;&gt;11</title>
<path fill="none" stroke="#888888" d="M441.87,-307.67C451.38,-298.39 461.28,-288.75 470.95,-279.33"/>
<polygon fill="#888888" stroke="#888888" points="473.57,-281.66 478.29,-272.18 468.69,-276.65 473.57,-281.66"/>
</g>
<!-- 15 -->
<g id="node16" class="node">
<title>15</title>
<text text-anchor="start" x="674" y="-407.8" font-family="Arial" font-weight="bold" font-size="14.00"> &lt; 24.32</text>
<path fill="#f8766d" fill-opacity="0.607843" stroke="transparent" d="M654,-335C654,-335 744,-335 744,-335 750,-335 756,-341 756,-347 756,-347 756,-387 756,-387 756,-393 750,-399 744,-399 744,-399 654,-399 654,-399 648,-399 642,-393 642,-387 642,-387 642,-347 642,-347 642,-341 648,-335 654,-335"/>
<text text-anchor="start" x="643" y="-396.4" font-family="Arial" font-size="2.00"> </text>
<text text-anchor="start" x="643" y="-390.4" font-family="Arial" font-size="7.00"> &#160;15</text>
<text text-anchor="start" x="657" y="-373.8" font-family="Arial" font-weight="bold" font-size="14.00">Predict 21.56</text>
<text text-anchor="start" x="679" y="-356.8" font-family="Arial" font-weight="bold" font-size="14.00">n = 19</text>
<text text-anchor="start" x="697.5" y="-338.8" font-family="Arial" font-size="9.00"> </text>
<path fill="none" stroke="#333333" d="M654,-335C654,-335 744,-335 744,-335 750,-335 756,-341 756,-347 756,-347 756,-387 756,-387 756,-393 750,-399 744,-399 744,-399 654,-399 654,-399 648,-399 642,-393 642,-387 642,-387 642,-347 642,-347 642,-341 648,-335 654,-335"/>
<text text-anchor="start" x="697" y="-320.8" font-family="Arial" font-weight="bold" font-size="14.00"> </text>
</g>
<!-- 14&#45;&gt;15 -->
<g id="edge15" class="edge">
<title>14&#45;&gt;15</title>
<path fill="none" stroke="#888888" d="M723.65,-461.67C721.45,-453.3 719.17,-444.64 716.92,-436.1"/>
<polygon fill="#888888" stroke="#888888" points="720.24,-434.96 714.31,-426.18 713.47,-436.74 720.24,-434.96"/>
</g>
<!-- 16 -->
<g id="node17" class="node">
<title>16</title>
<text text-anchor="start" x="830.5" y="-407.8" font-family="Arial" font-weight="bold" font-size="14.00"> ≥ 24.32</text>
<path fill="#f8766d" fill-opacity="0.525490" stroke="transparent" d="M810,-335C810,-335 900,-335 900,-335 906,-335 912,-341 912,-347 912,-347 912,-387 912,-387 912,-393 906,-399 900,-399 900,-399 810,-399 810,-399 804,-399 798,-393 798,-387 798,-387 798,-347 798,-347 798,-341 804,-335 810,-335"/>
<text text-anchor="start" x="799" y="-396.4" font-family="Arial" font-size="2.00"> </text>
<text text-anchor="start" x="799" y="-390.4" font-family="Arial" font-size="7.00"> &#160;16</text>
<text text-anchor="start" x="813" y="-373.8" font-family="Arial" font-weight="bold" font-size="14.00">Predict 24.21</text>
<text text-anchor="start" x="839" y="-356.8" font-family="Arial" font-weight="bold" font-size="14.00">n = 8</text>
<text text-anchor="start" x="853.5" y="-338.8" font-family="Arial" font-size="9.00"> </text>
<path fill="none" stroke="#333333" d="M810,-335C810,-335 900,-335 900,-335 906,-335 912,-341 912,-347 912,-347 912,-387 912,-387 912,-393 906,-399 900,-399 900,-399 810,-399 810,-399 804,-399 798,-393 798,-387 798,-387 798,-347 798,-347 798,-341 804,-335 810,-335"/>
<text text-anchor="start" x="853" y="-320.8" font-family="Arial" font-weight="bold" font-size="14.00"> </text>
</g>
<!-- 14&#45;&gt;16 -->
<g id="edge16" class="edge">
<title>14&#45;&gt;16</title>
<path fill="none" stroke="#888888" d="M783.52,-461.67C790.39,-452.67 797.52,-443.32 804.51,-434.16"/>
<polygon fill="#888888" stroke="#888888" points="807.32,-436.25 810.6,-426.18 801.75,-432 807.32,-436.25"/>
</g>
<!-- 18 -->
<g id="node18" class="node">
<title>18</title>
<text text-anchor="start" x="998.5" y="-407.8" font-family="Arial" font-weight="bold" font-size="14.00"> &lt; 10.5</text>
<text text-anchor="start" x="952" y="-363.3" font-family="Arial" font-size="14.00"> &#160;&#160;</text>
<path fill="#ebebeb" stroke="transparent" d="M978,-335C978,-335 1062,-335 1062,-335 1068,-335 1074,-341 1074,-347 1074,-347 1074,-387 1074,-387 1074,-393 1068,-399 1062,-399 1062,-399 978,-399 978,-399 972,-399 966,-393 966,-387 966,-387 966,-347 966,-347 966,-341 972,-335 978,-335"/>
<text text-anchor="start" x="967" y="-396.4" font-family="Arial" font-size="2.00"> </text>
<text text-anchor="start" x="967" y="-390.4" font-family="Arial" font-size="7.00"> &#160;18</text>
<text text-anchor="start" x="981" y="-373.8" font-family="Arial" font-weight="bold" font-size="14.00">Mean: 27.97</text>
<text text-anchor="start" x="1000" y="-356.8" font-family="Arial" font-weight="bold" font-size="14.00">n = 25</text>
<text text-anchor="start" x="1018.5" y="-338.8" font-family="Arial" font-size="9.00"> </text>
<path fill="none" stroke="#333333" d="M978,-335C978,-335 1062,-335 1062,-335 1068,-335 1074,-341 1074,-347 1074,-347 1074,-387 1074,-387 1074,-393 1068,-399 1062,-399 1062,-399 978,-399 978,-399 972,-399 966,-393 966,-387 966,-387 966,-347 966,-347 966,-341 972,-335 978,-335"/>
<text text-anchor="start" x="1076" y="-363.3" font-family="Arial" font-size="14.00"> &#160;&#160;</text>
<text text-anchor="start" x="967" y="-320.8" font-family="Arial" font-weight="bold" font-size="14.00">prev_168_inflow</text>
</g>
<!-- 17&#45;&gt;18 -->
<g id="edge17" class="edge">
<title>17&#45;&gt;18</title>
<path fill="none" stroke="#888888" d="M1020,-461.67C1020,-453.39 1020,-444.83 1020,-436.38"/>
<polygon fill="#888888" stroke="#888888" points="1023.5,-436.18 1020,-426.18 1016.5,-436.18 1023.5,-436.18"/>
</g>
<!-- 23 -->
<g id="node19" class="node">
<title>23</title>
<text text-anchor="start" x="1173" y="-407.8" font-family="Arial" font-weight="bold" font-size="14.00"> ≥ 10.5</text>
<text text-anchor="start" x="1126" y="-363.3" font-family="Arial" font-size="14.00"> &#160;&#160;</text>
<path fill="#ebebeb" stroke="transparent" d="M1152,-335C1152,-335 1236,-335 1236,-335 1242,-335 1248,-341 1248,-347 1248,-347 1248,-387 1248,-387 1248,-393 1242,-399 1236,-399 1236,-399 1152,-399 1152,-399 1146,-399 1140,-393 1140,-387 1140,-387 1140,-347 1140,-347 1140,-341 1146,-335 1152,-335"/>
<text text-anchor="start" x="1141" y="-396.4" font-family="Arial" font-size="2.00"> </text>
<text text-anchor="start" x="1141" y="-390.4" font-family="Arial" font-size="7.00"> &#160;23</text>
<text text-anchor="start" x="1155" y="-373.8" font-family="Arial" font-weight="bold" font-size="14.00">Mean: 25.01</text>
<text text-anchor="start" x="1174" y="-356.8" font-family="Arial" font-weight="bold" font-size="14.00">n = 50</text>
<text text-anchor="start" x="1192.5" y="-338.8" font-family="Arial" font-size="9.00"> </text>
<path fill="none" stroke="#333333" d="M1152,-335C1152,-335 1236,-335 1236,-335 1242,-335 1248,-341 1248,-347 1248,-347 1248,-387 1248,-387 1248,-393 1242,-399 1236,-399 1236,-399 1152,-399 1152,-399 1146,-399 1140,-393 1140,-387 1140,-387 1140,-347 1140,-347 1140,-341 1146,-335 1152,-335"/>
<text text-anchor="start" x="1250" y="-363.3" font-family="Arial" font-size="14.00"> &#160;&#160;</text>
<text text-anchor="start" x="1141" y="-320.8" font-family="Arial" font-weight="bold" font-size="14.00">prev_168_inflow</text>
</g>
<!-- 17&#45;&gt;23 -->
<g id="edge18" class="edge">
<title>17&#45;&gt;23</title>
<path fill="none" stroke="#888888" d="M1076.97,-470.23C1090.61,-458.32 1105.36,-445.44 1119.64,-432.95"/>
<polygon fill="#888888" stroke="#888888" points="1122.3,-435.29 1127.52,-426.07 1117.69,-430.01 1122.3,-435.29"/>
</g>
<!-- 19 -->
<g id="node20" class="node">
<title>19</title>
<text text-anchor="start" x="834" y="-253.8" font-family="Arial" font-weight="bold" font-size="14.00"> &lt; 27.95</text>
<text text-anchor="start" x="791" y="-209.3" font-family="Arial" font-size="14.00"> &#160;&#160;</text>
<path fill="#ebebeb" stroke="transparent" d="M817,-181C817,-181 901,-181 901,-181 907,-181 913,-187 913,-193 913,-193 913,-233 913,-233 913,-239 907,-245 901,-245 901,-245 817,-245 817,-245 811,-245 805,-239 805,-233 805,-233 805,-193 805,-193 805,-187 811,-181 817,-181"/>
<text text-anchor="start" x="806" y="-242.4" font-family="Arial" font-size="2.00"> </text>
<text text-anchor="start" x="806" y="-236.4" font-family="Arial" font-size="7.00"> &#160;19</text>
<text text-anchor="start" x="820" y="-219.8" font-family="Arial" font-weight="bold" font-size="14.00">Mean: 26.94</text>
<text text-anchor="start" x="839" y="-202.8" font-family="Arial" font-weight="bold" font-size="14.00">n = 12</text>
<text text-anchor="start" x="857.5" y="-184.8" font-family="Arial" font-size="9.00"> </text>
<path fill="none" stroke="#333333" d="M817,-181C817,-181 901,-181 901,-181 907,-181 913,-187 913,-193 913,-193 913,-233 913,-233 913,-239 907,-245 901,-245 901,-245 817,-245 817,-245 811,-245 805,-239 805,-233 805,-233 805,-193 805,-193 805,-187 811,-181 817,-181"/>
<text text-anchor="start" x="915" y="-209.3" font-family="Arial" font-size="14.00"> &#160;&#160;</text>
<text text-anchor="start" x="806" y="-166.8" font-family="Arial" font-weight="bold" font-size="14.00">prev_168_inflow</text>
</g>
<!-- 18&#45;&gt;19 -->
<g id="edge19" class="edge">
<title>18&#45;&gt;19</title>
<path fill="none" stroke="#888888" d="M958.21,-307.67C948.29,-298.3 937.97,-288.56 927.9,-279.05"/>
<polygon fill="#888888" stroke="#888888" points="930.3,-276.5 920.62,-272.18 925.49,-281.59 930.3,-276.5"/>
</g>
<!-- 22 -->
<g id="node21" class="node">
<title>22</title>
<text text-anchor="start" x="999.5" y="-253.8" font-family="Arial" font-weight="bold" font-size="14.00"> ≥ 27.95</text>
<path fill="#f8766d" fill-opacity="0.376471" stroke="transparent" d="M979,-181C979,-181 1069,-181 1069,-181 1075,-181 1081,-187 1081,-193 1081,-193 1081,-233 1081,-233 1081,-239 1075,-245 1069,-245 1069,-245 979,-245 979,-245 973,-245 967,-239 967,-233 967,-233 967,-193 967,-193 967,-187 973,-181 979,-181"/>
<text text-anchor="start" x="968" y="-242.4" font-family="Arial" font-size="2.00"> </text>
<text text-anchor="start" x="968" y="-236.4" font-family="Arial" font-size="7.00"> &#160;22</text>
<text text-anchor="start" x="982" y="-219.8" font-family="Arial" font-weight="bold" font-size="14.00">Predict 28.93</text>
<text text-anchor="start" x="1004" y="-202.8" font-family="Arial" font-weight="bold" font-size="14.00">n = 13</text>
<text text-anchor="start" x="1022.5" y="-184.8" font-family="Arial" font-size="9.00"> </text>
<path fill="none" stroke="#333333" d="M979,-181C979,-181 1069,-181 1069,-181 1075,-181 1081,-187 1081,-193 1081,-193 1081,-233 1081,-233 1081,-239 1075,-245 1069,-245 1069,-245 979,-245 979,-245 973,-245 967,-239 967,-233 967,-233 967,-193 967,-193 967,-187 973,-181 979,-181"/>
<text text-anchor="start" x="1022" y="-166.8" font-family="Arial" font-weight="bold" font-size="14.00"> </text>
</g>
<!-- 18&#45;&gt;22 -->
<g id="edge20" class="edge">
<title>18&#45;&gt;22</title>
<path fill="none" stroke="#888888" d="M1021.54,-307.67C1021.75,-299.39 1021.98,-290.83 1022.2,-282.38"/>
<polygon fill="#888888" stroke="#888888" points="1025.7,-282.27 1022.47,-272.18 1018.71,-282.08 1025.7,-282.27"/>
</g>
<!-- 24 -->
<g id="node24" class="node">
<title>24</title>
<text text-anchor="start" x="1164" y="-253.8" font-family="Arial" font-weight="bold" font-size="14.00"> &lt; 26.17</text>
<path fill="#f8766d" fill-opacity="0.517647" stroke="transparent" d="M1144,-181C1144,-181 1234,-181 1234,-181 1240,-181 1246,-187 1246,-193 1246,-193 1246,-233 1246,-233 1246,-239 1240,-245 1234,-245 1234,-245 1144,-245 1144,-245 1138,-245 1132,-239 1132,-233 1132,-233 1132,-193 1132,-193 1132,-187 1138,-181 1144,-181"/>
<text text-anchor="start" x="1133" y="-242.4" font-family="Arial" font-size="2.00"> </text>
<text text-anchor="start" x="1133" y="-236.4" font-family="Arial" font-size="7.00"> &#160;24</text>
<text text-anchor="start" x="1147" y="-219.8" font-family="Arial" font-weight="bold" font-size="14.00">Predict 24.43</text>
<text text-anchor="start" x="1169" y="-202.8" font-family="Arial" font-weight="bold" font-size="14.00">n = 34</text>
<text text-anchor="start" x="1187.5" y="-184.8" font-family="Arial" font-size="9.00"> </text>
<path fill="none" stroke="#333333" d="M1144,-181C1144,-181 1234,-181 1234,-181 1240,-181 1246,-187 1246,-193 1246,-193 1246,-233 1246,-233 1246,-239 1240,-245 1234,-245 1234,-245 1144,-245 1144,-245 1138,-245 1132,-239 1132,-233 1132,-233 1132,-193 1132,-193 1132,-187 1138,-181 1144,-181"/>
<text text-anchor="start" x="1187" y="-166.8" font-family="Arial" font-weight="bold" font-size="14.00"> </text>
</g>
<!-- 23&#45;&gt;24 -->
<g id="edge23" class="edge">
<title>23&#45;&gt;24</title>
<path fill="none" stroke="#888888" d="M1192.08,-307.67C1191.81,-299.39 1191.53,-290.83 1191.25,-282.38"/>
<polygon fill="#888888" stroke="#888888" points="1194.74,-282.06 1190.91,-272.18 1187.74,-282.29 1194.74,-282.06"/>
</g>
<!-- 25 -->
<g id="node25" class="node">
<title>25</title>
<text text-anchor="start" x="1320.5" y="-253.8" font-family="Arial" font-weight="bold" font-size="14.00"> ≥ 26.17</text>
<path fill="#f8766d" fill-opacity="0.458824" stroke="transparent" d="M1300,-181C1300,-181 1390,-181 1390,-181 1396,-181 1402,-187 1402,-193 1402,-193 1402,-233 1402,-233 1402,-239 1396,-245 1390,-245 1390,-245 1300,-245 1300,-245 1294,-245 1288,-239 1288,-233 1288,-233 1288,-193 1288,-193 1288,-187 1294,-181 1300,-181"/>
<text text-anchor="start" x="1289" y="-242.4" font-family="Arial" font-size="2.00"> </text>
<text text-anchor="start" x="1289" y="-236.4" font-family="Arial" font-size="7.00"> &#160;25</text>
<text text-anchor="start" x="1303" y="-219.8" font-family="Arial" font-weight="bold" font-size="14.00">Predict 26.25</text>
<text text-anchor="start" x="1325" y="-202.8" font-family="Arial" font-weight="bold" font-size="14.00">n = 16</text>
<text text-anchor="start" x="1343.5" y="-184.8" font-family="Arial" font-size="9.00"> </text>
<path fill="none" stroke="#333333" d="M1300,-181C1300,-181 1390,-181 1390,-181 1396,-181 1402,-187 1402,-193 1402,-193 1402,-233 1402,-233 1402,-239 1396,-245 1390,-245 1390,-245 1300,-245 1300,-245 1294,-245 1288,-239 1288,-233 1288,-233 1288,-193 1288,-193 1288,-187 1294,-181 1300,-181"/>
<text text-anchor="start" x="1343" y="-166.8" font-family="Arial" font-weight="bold" font-size="14.00"> </text>
</g>
<!-- 23&#45;&gt;25 -->
<g id="edge24" class="edge">
<title>23&#45;&gt;25</title>
<path fill="none" stroke="#888888" d="M1251.95,-307.67C1261.16,-298.39 1270.74,-288.75 1280.1,-279.33"/>
<polygon fill="#888888" stroke="#888888" points="1282.64,-281.74 1287.21,-272.18 1277.68,-276.8 1282.64,-281.74"/>
</g>
<!-- 20 -->
<g id="node22" class="node">
<title>20</title>
<text text-anchor="start" x="756" y="-99.8" font-family="Arial" font-weight="bold" font-size="14.00"> &lt; 27.38</text>
<path fill="#f8766d" fill-opacity="0.423529" stroke="transparent" d="M736,-27C736,-27 826,-27 826,-27 832,-27 838,-33 838,-39 838,-39 838,-79 838,-79 838,-85 832,-91 826,-91 826,-91 736,-91 736,-91 730,-91 724,-85 724,-79 724,-79 724,-39 724,-39 724,-33 730,-27 736,-27"/>
<text text-anchor="start" x="725" y="-88.4" font-family="Arial" font-size="2.00"> </text>
<text text-anchor="start" x="725" y="-82.4" font-family="Arial" font-size="7.00"> &#160;20</text>
<text text-anchor="start" x="739" y="-65.8" font-family="Arial" font-weight="bold" font-size="14.00">Predict 27.36</text>
<text text-anchor="start" x="761.5" y="-48.8" font-family="Arial" font-weight="bold" font-size="14.00">n = 11</text>
<text text-anchor="start" x="779.5" y="-30.8" font-family="Arial" font-size="9.00"> </text>
<path fill="none" stroke="#333333" d="M736,-27C736,-27 826,-27 826,-27 832,-27 838,-33 838,-39 838,-39 838,-79 838,-79 838,-85 832,-91 826,-91 826,-91 736,-91 736,-91 730,-91 724,-85 724,-79 724,-79 724,-39 724,-39 724,-33 730,-27 736,-27"/>
<text text-anchor="start" x="779" y="-12.8" font-family="Arial" font-weight="bold" font-size="14.00"> </text>
</g>
<!-- 19&#45;&gt;20 -->
<g id="edge21" class="edge">
<title>19&#45;&gt;20</title>
<path fill="none" stroke="#888888" d="M829.07,-153.67C824.63,-145.03 820.04,-136.07 815.52,-127.27"/>
<polygon fill="#888888" stroke="#888888" points="818.53,-125.48 810.85,-118.18 812.31,-128.67 818.53,-125.48"/>
</g>
<!-- 21 -->
<g id="node23" class="node">
<title>21</title>
<text text-anchor="start" x="912.5" y="-99.8" font-family="Arial" font-weight="bold" font-size="14.00"> ≥ 27.38</text>
<path fill="#f8766d" fill-opacity="0.580392" stroke="transparent" d="M892,-27C892,-27 982,-27 982,-27 988,-27 994,-33 994,-39 994,-39 994,-79 994,-79 994,-85 988,-91 982,-91 982,-91 892,-91 892,-91 886,-91 880,-85 880,-79 880,-79 880,-39 880,-39 880,-33 886,-27 892,-27"/>
<text text-anchor="start" x="881" y="-88.4" font-family="Arial" font-size="2.00"> </text>
<text text-anchor="start" x="881" y="-82.4" font-family="Arial" font-size="7.00"> &#160;21</text>
<text text-anchor="start" x="895" y="-65.8" font-family="Arial" font-weight="bold" font-size="14.00">Predict 22.37</text>
<text text-anchor="start" x="921" y="-48.8" font-family="Arial" font-weight="bold" font-size="14.00">n = 1</text>
<text text-anchor="start" x="935.5" y="-30.8" font-family="Arial" font-size="9.00"> </text>
<path fill="none" stroke="#333333" d="M892,-27C892,-27 982,-27 982,-27 988,-27 994,-33 994,-39 994,-39 994,-79 994,-79 994,-85 988,-91 982,-91 982,-91 892,-91 892,-91 886,-91 880,-85 880,-79 880,-79 880,-39 880,-39 880,-33 886,-27 892,-27"/>
<text text-anchor="start" x="935" y="-12.8" font-family="Arial" font-weight="bold" font-size="14.00"> </text>
</g>
<!-- 19&#45;&gt;21 -->
<g id="edge22" class="edge">
<title>19&#45;&gt;21</title>
<path fill="none" stroke="#888888" d="M888.93,-153.67C893.37,-145.03 897.96,-136.07 902.48,-127.27"/>
<polygon fill="#888888" stroke="#888888" points="905.69,-128.67 907.15,-118.18 899.47,-125.48 905.69,-128.67"/>
</g>
</g>
</svg>
