<?xml version="1.0" encoding="UTF-8" standalone="no"?>
<!DOCTYPE svg PUBLIC "-//W3C//DTD SVG 1.1//EN"
 "http://www.w3.org/Graphics/SVG/1.1/DTD/svg11.dtd">
<!-- Generated by graphviz version 2.50.0 (20211204.2007)
 -->
<!-- Pages: 1 -->
<svg width="1230pt" height="588pt"
 viewBox="0.00 0.00 1230.00 588.00" xmlns="http://www.w3.org/2000/svg" xmlns:xlink="http://www.w3.org/1999/xlink">
<g id="graph0" class="graph" transform="scale(1 1) rotate(0) translate(4 584)">
<polygon fill="white" stroke="transparent" points="-4,4 -4,-584 1226,-584 1226,4 -4,4"/>
<!-- 1 -->
<g id="node1" class="node">
<title>1</title>
<text text-anchor="start" x="608" y="-561.8" font-family="Arial" font-weight="bold" font-size="14.00"> </text>
<path fill="#ebebeb" stroke="transparent" d="M568,-489C568,-489 652,-489 652,-489 658,-489 664,-495 664,-501 664,-501 664,-541 664,-541 664,-547 658,-553 652,-553 652,-553 568,-553 568,-553 562,-553 556,-547 556,-541 556,-541 556,-501 556,-501 556,-495 562,-489 568,-489"/>
<text text-anchor="start" x="557" y="-550.4" font-family="Arial" font-size="2.00"> </text>
<text text-anchor="start" x="557" y="-544.4" font-family="Arial" font-size="7.00"> &#160;1</text>
<text text-anchor="start" x="571" y="-527.8" font-family="Arial" font-weight="bold" font-size="14.00">Mean: 5.489</text>
<text text-anchor="start" x="586.5" y="-510.8" font-family="Arial" font-weight="bold" font-size="14.00">n = 168</text>
<text text-anchor="start" x="608.5" y="-492.8" font-family="Arial" font-size="9.00"> </text>
<path fill="none" stroke="#333333" d="M568,-489C568,-489 652,-489 652,-489 658,-489 664,-495 664,-501 664,-501 664,-541 664,-541 664,-547 658,-553 652,-553 652,-553 568,-553 568,-553 562,-553 556,-547 556,-541 556,-541 556,-501 556,-501 556,-495 562,-489 568,-489"/>
<text text-anchor="start" x="595.5" y="-474.8" font-family="Arial" font-weight="bold" font-size="14.00">time</text>
</g>
<!-- 2 -->
<g id="node2" class="node">
<title>2</title>
<text text-anchor="start" x="439.5" y="-407.8" font-family="Arial" font-weight="bold" font-size="14.00"> &lt; 9.5</text>
<path fill="#ebebeb" stroke="transparent" d="M415,-335C415,-335 499,-335 499,-335 505,-335 511,-341 511,-347 511,-347 511,-387 511,-387 511,-393 505,-399 499,-399 499,-399 415,-399 415,-399 409,-399 403,-393 403,-387 403,-387 403,-347 403,-347 403,-341 409,-335 415,-335"/>
<text text-anchor="start" x="404" y="-396.4" font-family="Arial" font-size="2.00"> </text>
<text text-anchor="start" x="404" y="-390.4" font-family="Arial" font-size="7.00"> &#160;2</text>
<text text-anchor="start" x="418" y="-373.8" font-family="Arial" font-weight="bold" font-size="14.00">Mean: 4.758</text>
<text text-anchor="start" x="437" y="-356.8" font-family="Arial" font-weight="bold" font-size="14.00">n = 70</text>
<text text-anchor="start" x="455.5" y="-338.8" font-family="Arial" font-size="9.00"> </text>
<path fill="none" stroke="#333333" d="M415,-335C415,-335 499,-335 499,-335 505,-335 511,-341 511,-347 511,-347 511,-387 511,-387 511,-393 505,-399 499,-399 499,-399 415,-399 415,-399 409,-399 403,-393 403,-387 403,-387 403,-347 403,-347 403,-341 409,-335 415,-335"/>
<text text-anchor="start" x="442.5" y="-320.8" font-family="Arial" font-weight="bold" font-size="14.00">time</text>
</g>
<!-- 1&#45;&gt;2 -->
<g id="edge1" class="edge">
<title>1&#45;&gt;2</title>
<path fill="none" stroke="#888888" d="M551.28,-461.67C541.95,-452.39 532.24,-442.75 522.76,-433.33"/>
<polygon fill="#888888" stroke="#888888" points="525.12,-430.74 515.56,-426.18 520.19,-435.71 525.12,-430.74"/>
</g>
<!-- 9 -->
<g id="node3" class="node">
<title>9</title>
<text text-anchor="start" x="747.5" y="-407.8" font-family="Arial" font-weight="bold" font-size="14.00"> ≥ 9.5</text>
<text text-anchor="start" x="701" y="-363.3" font-family="Arial" font-size="14.00"> &#160;</text>
<path fill="#ebebeb" stroke="transparent" d="M723,-335C723,-335 806,-335 806,-335 812,-335 818,-341 818,-347 818,-347 818,-387 818,-387 818,-393 812,-399 806,-399 806,-399 723,-399 723,-399 717,-399 711,-393 711,-387 711,-387 711,-347 711,-347 711,-341 717,-335 723,-335"/>
<text text-anchor="start" x="712" y="-396.4" font-family="Arial" font-size="2.00"> </text>
<text text-anchor="start" x="712" y="-390.4" font-family="Arial" font-size="7.00"> &#160;9</text>
<text text-anchor="start" x="726" y="-373.8" font-family="Arial" font-weight="bold" font-size="14.00">Mean: 6.011</text>
<text text-anchor="start" x="744.5" y="-356.8" font-family="Arial" font-weight="bold" font-size="14.00">n = 98</text>
<text text-anchor="start" x="763" y="-338.8" font-family="Arial" font-size="9.00"> </text>
<path fill="none" stroke="#333333" d="M723,-335C723,-335 806,-335 806,-335 812,-335 818,-341 818,-347 818,-347 818,-387 818,-387 818,-393 812,-399 806,-399 806,-399 723,-399 723,-399 717,-399 711,-393 711,-387 711,-387 711,-347 711,-347 711,-341 717,-335 723,-335"/>
<text text-anchor="start" x="820" y="-363.3" font-family="Arial" font-size="14.00"> &#160;</text>
<text text-anchor="start" x="715" y="-320.8" font-family="Arial" font-weight="bold" font-size="14.00">prev_24_inflow</text>
</g>
<!-- 1&#45;&gt;9 -->
<g id="edge2" class="edge">
<title>1&#45;&gt;9</title>
<path fill="none" stroke="#888888" d="M669.1,-461.67C678.5,-452.39 688.27,-442.75 697.81,-433.33"/>
<polygon fill="#888888" stroke="#888888" points="700.4,-435.69 705.06,-426.18 695.48,-430.71 700.4,-435.69"/>
</g>
<!-- 3 -->
<g id="node4" class="node">
<title>3</title>
<text text-anchor="start" x="207.5" y="-253.8" font-family="Arial" font-weight="bold" font-size="14.00"> &lt; 5.5</text>
<text text-anchor="start" x="161" y="-209.3" font-family="Arial" font-size="14.00"> &#160;</text>
<path fill="#ebebeb" stroke="transparent" d="M183,-181C183,-181 267,-181 267,-181 273,-181 279,-187 279,-193 279,-193 279,-233 279,-233 279,-239 273,-245 267,-245 267,-245 183,-245 183,-245 177,-245 171,-239 171,-233 171,-233 171,-193 171,-193 171,-187 177,-181 183,-181"/>
<text text-anchor="start" x="172" y="-242.4" font-family="Arial" font-size="2.00"> </text>
<text text-anchor="start" x="172" y="-236.4" font-family="Arial" font-size="7.00"> &#160;3</text>
<text text-anchor="start" x="186" y="-219.8" font-family="Arial" font-weight="bold" font-size="14.00">Mean: 3.319</text>
<text text-anchor="start" x="205" y="-202.8" font-family="Arial" font-weight="bold" font-size="14.00">n = 42</text>
<text text-anchor="start" x="223.5" y="-184.8" font-family="Arial" font-size="9.00"> </text>
<path fill="none" stroke="#333333" d="M183,-181C183,-181 267,-181 267,-181 273,-181 279,-187 279,-193 279,-193 279,-233 279,-233 279,-239 273,-245 267,-245 267,-245 183,-245 183,-245 177,-245 171,-239 171,-233 171,-233 171,-193 171,-193 171,-187 177,-181 183,-181"/>
<text text-anchor="start" x="281" y="-209.3" font-family="Arial" font-size="14.00"> &#160;</text>
<text text-anchor="start" x="175.5" y="-166.8" font-family="Arial" font-weight="bold" font-size="14.00">prev_24_inflow</text>
</g>
<!-- 2&#45;&gt;3 -->
<g id="edge3" class="edge">
<title>2&#45;&gt;3</title>
<path fill="none" stroke="#888888" d="M390.83,-322.65C364.85,-305.63 334.76,-285.91 307.4,-267.99"/>
<polygon fill="#888888" stroke="#888888" points="309.29,-265.04 299.01,-262.49 305.45,-270.9 309.29,-265.04"/>
</g>
<!-- 6 -->
<g id="node5" class="node">
<title>6</title>
<text text-anchor="start" x="440" y="-253.8" font-family="Arial" font-weight="bold" font-size="14.00"> ≥ 5.5</text>
<path fill="#ebebeb" stroke="transparent" d="M415,-181C415,-181 499,-181 499,-181 505,-181 511,-187 511,-193 511,-193 511,-233 511,-233 511,-239 505,-245 499,-245 499,-245 415,-245 415,-245 409,-245 403,-239 403,-233 403,-233 403,-193 403,-193 403,-187 409,-181 415,-181"/>
<text text-anchor="start" x="404" y="-242.4" font-family="Arial" font-size="2.00"> </text>
<text text-anchor="start" x="404" y="-236.4" font-family="Arial" font-size="7.00"> &#160;6</text>
<text text-anchor="start" x="418" y="-219.8" font-family="Arial" font-weight="bold" font-size="14.00">Mean: 6.916</text>
<text text-anchor="start" x="437" y="-202.8" font-family="Arial" font-weight="bold" font-size="14.00">n = 28</text>
<text text-anchor="start" x="455.5" y="-184.8" font-family="Arial" font-size="9.00"> </text>
<path fill="none" stroke="#333333" d="M415,-181C415,-181 499,-181 499,-181 505,-181 511,-187 511,-193 511,-193 511,-233 511,-233 511,-239 505,-245 499,-245 499,-245 415,-245 415,-245 409,-245 403,-239 403,-233 403,-233 403,-193 403,-193 403,-187 409,-181 415,-181"/>
<text text-anchor="start" x="428" y="-166.8" font-family="Arial" font-weight="bold" font-size="14.00">air_temp</text>
</g>
<!-- 2&#45;&gt;6 -->
<g id="edge4" class="edge">
<title>2&#45;&gt;6</title>
<path fill="none" stroke="#888888" d="M457,-307.67C457,-299.39 457,-290.83 457,-282.38"/>
<polygon fill="#888888" stroke="#888888" points="460.5,-282.18 457,-272.18 453.5,-282.18 460.5,-282.18"/>
</g>
<!-- 10 -->
<g id="node10" class="node">
<title>10</title>
<text text-anchor="start" x="742.5" y="-253.8" font-family="Arial" font-weight="bold" font-size="14.00"> &lt; 6.81</text>
<path fill="#ebebeb" stroke="transparent" d="M722,-181C722,-181 806,-181 806,-181 812,-181 818,-187 818,-193 818,-193 818,-233 818,-233 818,-239 812,-245 806,-245 806,-245 722,-245 722,-245 716,-245 710,-239 710,-233 710,-233 710,-193 710,-193 710,-187 716,-181 722,-181"/>
<text text-anchor="start" x="711" y="-242.4" font-family="Arial" font-size="2.00"> </text>
<text text-anchor="start" x="711" y="-236.4" font-family="Arial" font-size="7.00"> &#160;10</text>
<text text-anchor="start" x="725" y="-219.8" font-family="Arial" font-weight="bold" font-size="14.00">Mean: 5.383</text>
<text text-anchor="start" x="744" y="-202.8" font-family="Arial" font-weight="bold" font-size="14.00">n = 75</text>
<text text-anchor="start" x="762.5" y="-184.8" font-family="Arial" font-size="9.00"> </text>
<path fill="none" stroke="#333333" d="M722,-181C722,-181 806,-181 806,-181 812,-181 818,-187 818,-193 818,-193 818,-233 818,-233 818,-239 812,-245 806,-245 806,-245 722,-245 722,-245 716,-245 710,-239 710,-233 710,-233 710,-193 710,-193 710,-187 716,-181 722,-181"/>
<text text-anchor="start" x="735" y="-166.8" font-family="Arial" font-weight="bold" font-size="14.00">air_temp</text>
</g>
<!-- 9&#45;&gt;10 -->
<g id="edge9" class="edge">
<title>9&#45;&gt;10</title>
<path fill="none" stroke="#888888" d="M764,-307.67C764,-299.39 764,-290.83 764,-282.38"/>
<polygon fill="#888888" stroke="#888888" points="767.5,-282.18 764,-272.18 760.5,-282.18 767.5,-282.18"/>
</g>
<!-- 13 -->
<g id="node11" class="node">
<title>13</title>
<text text-anchor="start" x="976" y="-253.8" font-family="Arial" font-weight="bold" font-size="14.00"> ≥ 6.81</text>
<text text-anchor="start" x="933" y="-209.3" font-family="Arial" font-size="14.00"> &#160;&#160;</text>
<path fill="#ebebeb" stroke="transparent" d="M959,-181C959,-181 1035,-181 1035,-181 1041,-181 1047,-187 1047,-193 1047,-193 1047,-233 1047,-233 1047,-239 1041,-245 1035,-245 1035,-245 959,-245 959,-245 953,-245 947,-239 947,-233 947,-233 947,-193 947,-193 947,-187 953,-181 959,-181"/>
<text text-anchor="start" x="948" y="-242.4" font-family="Arial" font-size="2.00"> </text>
<text text-anchor="start" x="948" y="-236.4" font-family="Arial" font-size="7.00"> &#160;13</text>
<text text-anchor="start" x="962" y="-219.8" font-family="Arial" font-weight="bold" font-size="14.00">Mean: 8.06</text>
<text text-anchor="start" x="977" y="-202.8" font-family="Arial" font-weight="bold" font-size="14.00">n = 23</text>
<text text-anchor="start" x="995.5" y="-184.8" font-family="Arial" font-size="9.00"> </text>
<path fill="none" stroke="#333333" d="M959,-181C959,-181 1035,-181 1035,-181 1041,-181 1047,-187 1047,-193 1047,-193 1047,-233 1047,-233 1047,-239 1041,-245 1035,-245 1035,-245 959,-245 959,-245 953,-245 947,-239 947,-233 947,-233 947,-193 947,-193 947,-187 953,-181 959,-181"/>
<text text-anchor="start" x="1049" y="-209.3" font-family="Arial" font-size="14.00"> &#160;&#160;</text>
<text text-anchor="start" x="947.5" y="-166.8" font-family="Arial" font-weight="bold" font-size="14.00">prev_24_inflow</text>
</g>
<!-- 9&#45;&gt;13 -->
<g id="edge10" class="edge">
<title>9&#45;&gt;13</title>
<path fill="none" stroke="#888888" d="M837.72,-317.91C862.16,-301.97 889.51,-284.12 914.56,-267.78"/>
<polygon fill="#888888" stroke="#888888" points="916.49,-270.7 922.96,-262.3 912.67,-264.84 916.49,-270.7"/>
</g>
<!-- 4 -->
<g id="node6" class="node">
<title>4</title>
<text text-anchor="start" x="44" y="-99.8" font-family="Arial" font-weight="bold" font-size="14.00"> &lt; 3.105</text>
<path fill="#f8766d" fill-opacity="0.874510" stroke="transparent" d="M24,-27C24,-27 114,-27 114,-27 120,-27 126,-33 126,-39 126,-39 126,-79 126,-79 126,-85 120,-91 114,-91 114,-91 24,-91 24,-91 18,-91 12,-85 12,-79 12,-79 12,-39 12,-39 12,-33 18,-27 24,-27"/>
<text text-anchor="start" x="13" y="-88.4" font-family="Arial" font-size="2.00"> </text>
<text text-anchor="start" x="13" y="-82.4" font-family="Arial" font-size="7.00"> &#160;4</text>
<text text-anchor="start" x="27" y="-65.8" font-family="Arial" font-weight="bold" font-size="14.00">Predict 2.779</text>
<text text-anchor="start" x="49" y="-48.8" font-family="Arial" font-weight="bold" font-size="14.00">n = 19</text>
<text text-anchor="start" x="67.5" y="-30.8" font-family="Arial" font-size="9.00"> </text>
<path fill="none" stroke="#333333" d="M24,-27C24,-27 114,-27 114,-27 120,-27 126,-33 126,-39 126,-39 126,-79 126,-79 126,-85 120,-91 114,-91 114,-91 24,-91 24,-91 18,-91 12,-85 12,-79 12,-79 12,-39 12,-39 12,-33 18,-27 24,-27"/>
<text text-anchor="start" x="67" y="-12.8" font-family="Arial" font-weight="bold" font-size="14.00"> </text>
</g>
<!-- 3&#45;&gt;4 -->
<g id="edge5" class="edge">
<title>3&#45;&gt;4</title>
<path fill="none" stroke="#888888" d="M165.13,-153.67C155.62,-144.39 145.72,-134.75 136.05,-125.33"/>
<polygon fill="#888888" stroke="#888888" points="138.31,-122.65 128.71,-118.18 133.43,-127.66 138.31,-122.65"/>
</g>
<!-- 5 -->
<g id="node7" class="node">
<title>5</title>
<text text-anchor="start" x="200.5" y="-99.8" font-family="Arial" font-weight="bold" font-size="14.00"> ≥ 3.105</text>
<path fill="#f8766d" fill-opacity="0.800000" stroke="transparent" d="M180,-27C180,-27 270,-27 270,-27 276,-27 282,-33 282,-39 282,-39 282,-79 282,-79 282,-85 276,-91 270,-91 270,-91 180,-91 180,-91 174,-91 168,-85 168,-79 168,-79 168,-39 168,-39 168,-33 174,-27 180,-27"/>
<text text-anchor="start" x="169" y="-88.4" font-family="Arial" font-size="2.00"> </text>
<text text-anchor="start" x="169" y="-82.4" font-family="Arial" font-size="7.00"> &#160;5</text>
<text text-anchor="start" x="183" y="-65.8" font-family="Arial" font-weight="bold" font-size="14.00">Predict 3.765</text>
<text text-anchor="start" x="205" y="-48.8" font-family="Arial" font-weight="bold" font-size="14.00">n = 23</text>
<text text-anchor="start" x="223.5" y="-30.8" font-family="Arial" font-size="9.00"> </text>
<path fill="none" stroke="#333333" d="M180,-27C180,-27 270,-27 270,-27 276,-27 282,-33 282,-39 282,-39 282,-79 282,-79 282,-85 276,-91 270,-91 270,-91 180,-91 180,-91 174,-91 168,-85 168,-79 168,-79 168,-39 168,-39 168,-33 174,-27 180,-27"/>
<text text-anchor="start" x="223" y="-12.8" font-family="Arial" font-weight="bold" font-size="14.00"> </text>
</g>
<!-- 3&#45;&gt;5 -->
<g id="edge6" class="edge">
<title>3&#45;&gt;5</title>
<path fill="none" stroke="#888888" d="M225,-153.67C225,-145.39 225,-136.83 225,-128.38"/>
<polygon fill="#888888" stroke="#888888" points="228.5,-128.18 225,-118.18 221.5,-128.18 228.5,-128.18"/>
</g>
<!-- 7 -->
<g id="node8" class="node">
<title>7</title>
<text text-anchor="start" x="356" y="-99.8" font-family="Arial" font-weight="bold" font-size="14.00"> &lt; 23.35</text>
<path fill="#f8766d" fill-opacity="0.627451" stroke="transparent" d="M336,-27C336,-27 426,-27 426,-27 432,-27 438,-33 438,-39 438,-39 438,-79 438,-79 438,-85 432,-91 426,-91 426,-91 336,-91 336,-91 330,-91 324,-85 324,-79 324,-79 324,-39 324,-39 324,-33 330,-27 336,-27"/>
<text text-anchor="start" x="325" y="-88.4" font-family="Arial" font-size="2.00"> </text>
<text text-anchor="start" x="325" y="-82.4" font-family="Arial" font-size="7.00"> &#160;7</text>
<text text-anchor="start" x="339" y="-65.8" font-family="Arial" font-weight="bold" font-size="14.00">Predict 6.079</text>
<text text-anchor="start" x="361" y="-48.8" font-family="Arial" font-weight="bold" font-size="14.00">n = 10</text>
<text text-anchor="start" x="379.5" y="-30.8" font-family="Arial" font-size="9.00"> </text>
<path fill="none" stroke="#333333" d="M336,-27C336,-27 426,-27 426,-27 432,-27 438,-33 438,-39 438,-39 438,-79 438,-79 438,-85 432,-91 426,-91 426,-91 336,-91 336,-91 330,-91 324,-85 324,-79 324,-79 324,-39 324,-39 324,-33 330,-27 336,-27"/>
<text text-anchor="start" x="379" y="-12.8" font-family="Arial" font-weight="bold" font-size="14.00"> </text>
</g>
<!-- 6&#45;&gt;7 -->
<g id="edge7" class="edge">
<title>6&#45;&gt;7</title>
<path fill="none" stroke="#888888" d="M427.83,-153.67C423.52,-145.03 419.04,-136.07 414.64,-127.27"/>
<polygon fill="#888888" stroke="#888888" points="417.69,-125.56 410.09,-118.18 411.43,-128.69 417.69,-125.56"/>
</g>
<!-- 8 -->
<g id="node9" class="node">
<title>8</title>
<text text-anchor="start" x="512.5" y="-99.8" font-family="Arial" font-weight="bold" font-size="14.00"> ≥ 23.35</text>
<path fill="#f8766d" fill-opacity="0.529412" stroke="transparent" d="M492,-27C492,-27 582,-27 582,-27 588,-27 594,-33 594,-39 594,-39 594,-79 594,-79 594,-85 588,-91 582,-91 582,-91 492,-91 492,-91 486,-91 480,-85 480,-79 480,-79 480,-39 480,-39 480,-33 486,-27 492,-27"/>
<text text-anchor="start" x="481" y="-88.4" font-family="Arial" font-size="2.00"> </text>
<text text-anchor="start" x="481" y="-82.4" font-family="Arial" font-size="7.00"> &#160;8</text>
<text text-anchor="start" x="495" y="-65.8" font-family="Arial" font-weight="bold" font-size="14.00">Predict 7.381</text>
<text text-anchor="start" x="517" y="-48.8" font-family="Arial" font-weight="bold" font-size="14.00">n = 18</text>
<text text-anchor="start" x="535.5" y="-30.8" font-family="Arial" font-size="9.00"> </text>
<path fill="none" stroke="#333333" d="M492,-27C492,-27 582,-27 582,-27 588,-27 594,-33 594,-39 594,-39 594,-79 594,-79 594,-85 588,-91 582,-91 582,-91 492,-91 492,-91 486,-91 480,-85 480,-79 480,-79 480,-39 480,-39 480,-33 486,-27 492,-27"/>
<text text-anchor="start" x="535" y="-12.8" font-family="Arial" font-weight="bold" font-size="14.00"> </text>
</g>
<!-- 6&#45;&gt;8 -->
<g id="edge8" class="edge">
<title>6&#45;&gt;8</title>
<path fill="none" stroke="#888888" d="M487.7,-153.67C492.25,-145.03 496.96,-136.07 501.59,-127.27"/>
<polygon fill="#888888" stroke="#888888" points="504.82,-128.66 506.38,-118.18 498.63,-125.4 504.82,-128.66"/>
</g>
<!-- 11 -->
<g id="node12" class="node">
<title>11</title>
<text text-anchor="start" x="664" y="-99.8" font-family="Arial" font-weight="bold" font-size="14.00"> &lt; 27.05</text>
<path fill="#f8766d" fill-opacity="0.701961" stroke="transparent" d="M648,-27C648,-27 730,-27 730,-27 736,-27 742,-33 742,-39 742,-39 742,-79 742,-79 742,-85 736,-91 730,-91 730,-91 648,-91 648,-91 642,-91 636,-85 636,-79 636,-79 636,-39 636,-39 636,-33 642,-27 648,-27"/>
<text text-anchor="start" x="637" y="-88.4" font-family="Arial" font-size="2.00"> </text>
<text text-anchor="start" x="637" y="-82.4" font-family="Arial" font-size="7.00"> &#160;11</text>
<text text-anchor="start" x="651" y="-65.8" font-family="Arial" font-weight="bold" font-size="14.00">Predict 5.09</text>
<text text-anchor="start" x="669" y="-48.8" font-family="Arial" font-weight="bold" font-size="14.00">n = 54</text>
<text text-anchor="start" x="687.5" y="-30.8" font-family="Arial" font-size="9.00"> </text>
<path fill="none" stroke="#333333" d="M648,-27C648,-27 730,-27 730,-27 736,-27 742,-33 742,-39 742,-39 742,-79 742,-79 742,-85 736,-91 730,-91 730,-91 648,-91 648,-91 642,-91 636,-85 636,-79 636,-79 636,-39 636,-39 636,-33 642,-27 648,-27"/>
<text text-anchor="start" x="687" y="-12.8" font-family="Arial" font-weight="bold" font-size="14.00"> </text>
</g>
<!-- 10&#45;&gt;11 -->
<g id="edge11" class="edge">
<title>10&#45;&gt;11</title>
<path fill="none" stroke="#888888" d="M735.22,-153.67C730.96,-145.03 726.54,-136.07 722.19,-127.27"/>
<polygon fill="#888888" stroke="#888888" points="725.27,-125.6 717.71,-118.18 718.99,-128.69 725.27,-125.6"/>
</g>
<!-- 12 -->
<g id="node13" class="node">
<title>12</title>
<text text-anchor="start" x="816.5" y="-99.8" font-family="Arial" font-weight="bold" font-size="14.00"> ≥ 27.05</text>
<path fill="#f8766d" fill-opacity="0.619608" stroke="transparent" d="M796,-27C796,-27 886,-27 886,-27 892,-27 898,-33 898,-39 898,-39 898,-79 898,-79 898,-85 892,-91 886,-91 886,-91 796,-91 796,-91 790,-91 784,-85 784,-79 784,-79 784,-39 784,-39 784,-33 790,-27 796,-27"/>
<text text-anchor="start" x="785" y="-88.4" font-family="Arial" font-size="2.00"> </text>
<text text-anchor="start" x="785" y="-82.4" font-family="Arial" font-size="7.00"> &#160;12</text>
<text text-anchor="start" x="799" y="-65.8" font-family="Arial" font-weight="bold" font-size="14.00">Predict 6.136</text>
<text text-anchor="start" x="821" y="-48.8" font-family="Arial" font-weight="bold" font-size="14.00">n = 21</text>
<text text-anchor="start" x="839.5" y="-30.8" font-family="Arial" font-size="9.00"> </text>
<path fill="none" stroke="#333333" d="M796,-27C796,-27 886,-27 886,-27 892,-27 898,-33 898,-39 898,-39 898,-79 898,-79 898,-85 892,-91 886,-91 886,-91 796,-91 796,-91 790,-91 784,-85 784,-79 784,-79 784,-39 784,-39 784,-33 790,-27 796,-27"/>
<text text-anchor="start" x="839" y="-12.8" font-family="Arial" font-weight="bold" font-size="14.00"> </text>
</g>
<!-- 10&#45;&gt;12 -->
<g id="edge12" class="edge">
<title>10&#45;&gt;12</title>
<path fill="none" stroke="#888888" d="M793.55,-153.67C797.93,-145.03 802.46,-136.07 806.92,-127.27"/>
<polygon fill="#888888" stroke="#888888" points="810.13,-128.68 811.53,-118.18 803.89,-125.52 810.13,-128.68"/>
</g>
<!-- 14 -->
<g id="node14" class="node">
<title>14</title>
<text text-anchor="start" x="975.5" y="-99.8" font-family="Arial" font-weight="bold" font-size="14.00"> &lt; 8.04</text>
<path fill="#f8766d" fill-opacity="0.521569" stroke="transparent" d="M952,-27C952,-27 1042,-27 1042,-27 1048,-27 1054,-33 1054,-39 1054,-39 1054,-79 1054,-79 1054,-85 1048,-91 1042,-91 1042,-91 952,-91 952,-91 946,-91 940,-85 940,-79 940,-79 940,-39 940,-39 940,-33 946,-27 952,-27"/>
<text text-anchor="start" x="941" y="-88.4" font-family="Arial" font-size="2.00"> </text>
<text text-anchor="start" x="941" y="-82.4" font-family="Arial" font-size="7.00"> &#160;14</text>
<text text-anchor="start" x="955" y="-65.8" font-family="Arial" font-weight="bold" font-size="14.00">Predict 7.474</text>
<text text-anchor="start" x="977" y="-48.8" font-family="Arial" font-weight="bold" font-size="14.00">n = 16</text>
<text text-anchor="start" x="995.5" y="-30.8" font-family="Arial" font-size="9.00"> </text>
<path fill="none" stroke="#333333" d="M952,-27C952,-27 1042,-27 1042,-27 1048,-27 1054,-33 1054,-39 1054,-39 1054,-79 1054,-79 1054,-85 1048,-91 1042,-91 1042,-91 952,-91 952,-91 946,-91 940,-85 940,-79 940,-79 940,-39 940,-39 940,-33 946,-27 952,-27"/>
<text text-anchor="start" x="995" y="-12.8" font-family="Arial" font-weight="bold" font-size="14.00"> </text>
</g>
<!-- 13&#45;&gt;14 -->
<g id="edge13" class="edge">
<title>13&#45;&gt;14</title>
<path fill="none" stroke="#888888" d="M997,-153.67C997,-145.39 997,-136.83 997,-128.38"/>
<polygon fill="#888888" stroke="#888888" points="1000.5,-128.18 997,-118.18 993.5,-128.18 1000.5,-128.18"/>
</g>
<!-- 15 -->
<g id="node15" class="node">
<title>15</title>
<text text-anchor="start" x="1132" y="-99.8" font-family="Arial" font-weight="bold" font-size="14.00"> ≥ 8.04</text>
<path fill="#f8766d" fill-opacity="0.376471" stroke="transparent" d="M1108,-27C1108,-27 1198,-27 1198,-27 1204,-27 1210,-33 1210,-39 1210,-39 1210,-79 1210,-79 1210,-85 1204,-91 1198,-91 1198,-91 1108,-91 1108,-91 1102,-91 1096,-85 1096,-79 1096,-79 1096,-39 1096,-39 1096,-33 1102,-27 1108,-27"/>
<text text-anchor="start" x="1097" y="-88.4" font-family="Arial" font-size="2.00"> </text>
<text text-anchor="start" x="1097" y="-82.4" font-family="Arial" font-size="7.00"> &#160;15</text>
<text text-anchor="start" x="1111" y="-65.8" font-family="Arial" font-weight="bold" font-size="14.00">Predict 9.401</text>
<text text-anchor="start" x="1137" y="-48.8" font-family="Arial" font-weight="bold" font-size="14.00">n = 7</text>
<text text-anchor="start" x="1151.5" y="-30.8" font-family="Arial" font-size="9.00"> </text>
<path fill="none" stroke="#333333" d="M1108,-27C1108,-27 1198,-27 1198,-27 1204,-27 1210,-33 1210,-39 1210,-39 1210,-79 1210,-79 1210,-85 1204,-91 1198,-91 1198,-91 1108,-91 1108,-91 1102,-91 1096,-85 1096,-79 1096,-79 1096,-39 1096,-39 1096,-33 1102,-27 1108,-27"/>
<text text-anchor="start" x="1151" y="-12.8" font-family="Arial" font-weight="bold" font-size="14.00"> </text>
</g>
<!-- 13&#45;&gt;15 -->
<g id="edge14" class="edge">
<title>13&#45;&gt;15</title>
<path fill="none" stroke="#888888" d="M1056.87,-153.67C1066.38,-144.39 1076.28,-134.75 1085.95,-125.33"/>
<polygon fill="#888888" stroke="#888888" points="1088.57,-127.66 1093.29,-118.18 1083.69,-122.65 1088.57,-127.66"/>
</g>
</g>
</svg>
