<?xml version="1.0" encoding="utf-8"?>
<svg xmlns="http://www.w3.org/2000/svg" xmlns:xlink="http://www.w3.org/1999/xlink" width="500" height="250" viewBox="0 0 2000 1000">
<defs>
  <clipPath id="clip840">
    <rect x="0" y="0" width="2000" height="1000"/>
  </clipPath>
</defs>
<path clip-path="url(#clip840)" d="M0 1000 L2000 1000 L2000 0 L0 0  Z" fill="#ffffff" fill-rule="evenodd" fill-opacity="1"/>
<defs>
  <clipPath id="clip841">
    <rect x="400" y="0" width="1401" height="1000"/>
  </clipPath>
</defs>
<path clip-path="url(#clip840)" d="M190.15 897.848 L1445.09 897.848 L1445.09 47.2441 L190.15 47.2441  Z" fill="#ffffff" fill-rule="evenodd" fill-opacity="1"/>
<defs>
  <clipPath id="clip842">
    <rect x="190" y="47" width="1256" height="852"/>
  </clipPath>
</defs>
<polyline clip-path="url(#clip842)" style="stroke:#000000; stroke-linecap:round; stroke-linejoin:round; stroke-width:2; stroke-opacity:0.1; fill:none" points="225.667,897.848 225.667,47.2441 "/>
<polyline clip-path="url(#clip842)" style="stroke:#000000; stroke-linecap:round; stroke-linejoin:round; stroke-width:2; stroke-opacity:0.1; fill:none" points="565.951,897.848 565.951,47.2441 "/>
<polyline clip-path="url(#clip842)" style="stroke:#000000; stroke-linecap:round; stroke-linejoin:round; stroke-width:2; stroke-opacity:0.1; fill:none" points="906.234,897.848 906.234,47.2441 "/>
<polyline clip-path="url(#clip842)" style="stroke:#000000; stroke-linecap:round; stroke-linejoin:round; stroke-width:2; stroke-opacity:0.1; fill:none" points="1246.52,897.848 1246.52,47.2441 "/>
<polyline clip-path="url(#clip840)" style="stroke:#000000; stroke-linecap:round; stroke-linejoin:round; stroke-width:4; stroke-opacity:1; fill:none" points="190.15,897.848 1445.09,897.848 "/>
<polyline clip-path="url(#clip840)" style="stroke:#000000; stroke-linecap:round; stroke-linejoin:round; stroke-width:4; stroke-opacity:1; fill:none" points="225.667,897.848 225.667,878.95 "/>
<polyline clip-path="url(#clip840)" style="stroke:#000000; stroke-linecap:round; stroke-linejoin:round; stroke-width:4; stroke-opacity:1; fill:none" points="565.951,897.848 565.951,878.95 "/>
<polyline clip-path="url(#clip840)" style="stroke:#000000; stroke-linecap:round; stroke-linejoin:round; stroke-width:4; stroke-opacity:1; fill:none" points="906.234,897.848 906.234,878.95 "/>
<polyline clip-path="url(#clip840)" style="stroke:#000000; stroke-linecap:round; stroke-linejoin:round; stroke-width:4; stroke-opacity:1; fill:none" points="1246.52,897.848 1246.52,878.95 "/>
<path clip-path="url(#clip840)" d="M80.7983 958.021 L99.1576 958.021 L99.1576 962.448 L74.4702 962.448 L74.4702 958.021 Q77.465 954.922 82.6212 949.714 Q87.8035 944.479 89.1316 942.969 Q91.6576 940.13 92.6472 938.177 Q93.6628 936.198 93.6628 934.297 Q93.6628 931.198 91.4753 929.245 Q89.3139 927.292 85.8243 927.292 Q83.3504 927.292 80.59 928.151 Q77.8556 929.011 74.7306 930.755 L74.7306 925.443 Q77.9077 924.167 80.6681 923.516 Q83.4285 922.865 85.7202 922.865 Q91.7618 922.865 95.3555 925.886 Q98.9493 928.906 98.9493 933.958 Q98.9493 936.354 98.0378 938.516 Q97.1524 940.651 94.7826 943.568 Q94.1316 944.323 90.642 947.943 Q87.1525 951.536 80.7983 958.021 Z" fill="#000000" fill-rule="nonzero" fill-opacity="1" /><path clip-path="url(#clip840)" d="M121.449 927.031 Q117.387 927.031 115.329 931.042 Q113.298 935.026 113.298 943.047 Q113.298 951.042 115.329 955.052 Q117.387 959.036 121.449 959.036 Q125.538 959.036 127.569 955.052 Q129.626 951.042 129.626 943.047 Q129.626 935.026 127.569 931.042 Q125.538 927.031 121.449 927.031 M121.449 922.865 Q127.986 922.865 131.423 928.047 Q134.887 933.203 134.887 943.047 Q134.887 952.865 131.423 958.047 Q127.986 963.203 121.449 963.203 Q114.913 963.203 111.449 958.047 Q108.012 952.865 108.012 943.047 Q108.012 933.203 111.449 928.047 Q114.913 922.865 121.449 922.865 Z" fill="#000000" fill-rule="nonzero" fill-opacity="1" /><path clip-path="url(#clip840)" d="M148.663 958.021 L167.022 958.021 L167.022 962.448 L142.334 962.448 L142.334 958.021 Q145.329 954.922 150.485 949.714 Q155.668 944.479 156.996 942.969 Q159.522 940.13 160.511 938.177 Q161.527 936.198 161.527 934.297 Q161.527 931.198 159.34 929.245 Q157.178 927.292 153.689 927.292 Q151.215 927.292 148.454 928.151 Q145.72 929.011 142.595 930.755 L142.595 925.443 Q145.772 924.167 148.532 923.516 Q151.293 922.865 153.584 922.865 Q159.626 922.865 163.22 925.886 Q166.813 928.906 166.813 933.958 Q166.813 936.354 165.902 938.516 Q165.017 940.651 162.647 943.568 Q161.996 944.323 158.506 947.943 Q155.017 951.536 148.663 958.021 Z" fill="#000000" fill-rule="nonzero" fill-opacity="1" /><path clip-path="url(#clip840)" d="M182.595 958.021 L200.954 958.021 L200.954 962.448 L176.267 962.448 L176.267 958.021 Q179.261 954.922 184.418 949.714 Q189.6 944.479 190.928 942.969 Q193.454 940.13 194.444 938.177 Q195.459 936.198 195.459 934.297 Q195.459 931.198 193.272 929.245 Q191.11 927.292 187.621 927.292 Q185.147 927.292 182.386 928.151 Q179.652 929.011 176.527 930.755 L176.527 925.443 Q179.704 924.167 182.464 923.516 Q185.225 922.865 187.516 922.865 Q193.558 922.865 197.152 925.886 Q200.746 928.906 200.746 933.958 Q200.746 936.354 199.834 938.516 Q198.949 940.651 196.579 943.568 Q195.928 944.323 192.438 947.943 Q188.949 951.536 182.595 958.021 Z" fill="#000000" fill-rule="nonzero" fill-opacity="1" /><path clip-path="url(#clip840)" d="M208.897 945.703 L222.933 945.703 L222.933 949.974 L208.897 949.974 L208.897 945.703 Z" fill="#000000" fill-rule="nonzero" fill-opacity="1" /><path clip-path="url(#clip840)" d="M242.49 927.031 Q238.428 927.031 236.37 931.042 Q234.339 935.026 234.339 943.047 Q234.339 951.042 236.37 955.052 Q238.428 959.036 242.49 959.036 Q246.579 959.036 248.61 955.052 Q250.667 951.042 250.667 943.047 Q250.667 935.026 248.61 931.042 Q246.579 927.031 242.49 927.031 M242.49 922.865 Q249.027 922.865 252.464 928.047 Q255.928 933.203 255.928 943.047 Q255.928 952.865 252.464 958.047 Q249.027 963.203 242.49 963.203 Q235.954 963.203 232.49 958.047 Q229.053 952.865 229.053 943.047 Q229.053 933.203 232.49 928.047 Q235.954 922.865 242.49 922.865 Z" fill="#000000" fill-rule="nonzero" fill-opacity="1" /><path clip-path="url(#clip840)" d="M263.844 923.568 L288.844 923.568 L288.844 925.807 L274.73 962.448 L269.235 962.448 L282.516 927.995 L263.844 927.995 L263.844 923.568 Z" fill="#000000" fill-rule="nonzero" fill-opacity="1" /><path clip-path="url(#clip840)" d="M296.006 945.703 L310.042 945.703 L310.042 949.974 L296.006 949.974 L296.006 945.703 Z" fill="#000000" fill-rule="nonzero" fill-opacity="1" /><path clip-path="url(#clip840)" d="M319.261 958.021 L327.854 958.021 L327.854 928.36 L318.505 930.235 L318.505 925.443 L327.802 923.568 L333.063 923.568 L333.063 958.021 L341.656 958.021 L341.656 962.448 L319.261 962.448 L319.261 958.021 Z" fill="#000000" fill-rule="nonzero" fill-opacity="1" /><path clip-path="url(#clip840)" d="M363.531 943.984 Q359.781 943.984 357.62 945.99 Q355.484 947.995 355.484 951.51 Q355.484 955.026 357.62 957.031 Q359.781 959.036 363.531 959.036 Q367.281 959.036 369.443 957.031 Q371.604 955 371.604 951.51 Q371.604 947.995 369.443 945.99 Q367.307 943.984 363.531 943.984 M358.271 941.745 Q354.885 940.912 352.984 938.594 Q351.109 936.276 351.109 932.943 Q351.109 928.281 354.417 925.573 Q357.75 922.865 363.531 922.865 Q369.338 922.865 372.646 925.573 Q375.953 928.281 375.953 932.943 Q375.953 936.276 374.052 938.594 Q372.177 940.912 368.818 941.745 Q372.62 942.63 374.729 945.208 Q376.864 947.786 376.864 951.51 Q376.864 957.161 373.401 960.182 Q369.963 963.203 363.531 963.203 Q357.099 963.203 353.635 960.182 Q350.198 957.161 350.198 951.51 Q350.198 947.786 352.333 945.208 Q354.469 942.63 358.271 941.745 M356.344 933.438 Q356.344 936.458 358.219 938.151 Q360.12 939.844 363.531 939.844 Q366.917 939.844 368.818 938.151 Q370.745 936.458 370.745 933.438 Q370.745 930.417 368.818 928.724 Q366.917 927.031 363.531 927.031 Q360.12 927.031 358.219 928.724 Q356.344 930.417 356.344 933.438 Z" fill="#000000" fill-rule="nonzero" fill-opacity="1" /><path clip-path="url(#clip840)" d="M421.03 958.021 L439.389 958.021 L439.389 962.448 L414.702 962.448 L414.702 958.021 Q417.696 954.922 422.853 949.714 Q428.035 944.479 429.363 942.969 Q431.889 940.13 432.879 938.177 Q433.894 936.198 433.894 934.297 Q433.894 931.198 431.707 929.245 Q429.545 927.292 426.056 927.292 Q423.582 927.292 420.821 928.151 Q418.087 929.011 414.962 930.755 L414.962 925.443 Q418.139 924.167 420.899 923.516 Q423.66 922.865 425.951 922.865 Q431.993 922.865 435.587 925.886 Q439.181 928.906 439.181 933.958 Q439.181 936.354 438.269 938.516 Q437.384 940.651 435.014 943.568 Q434.363 944.323 430.873 947.943 Q427.384 951.536 421.03 958.021 Z" fill="#000000" fill-rule="nonzero" fill-opacity="1" /><path clip-path="url(#clip840)" d="M461.68 927.031 Q457.618 927.031 455.561 931.042 Q453.529 935.026 453.529 943.047 Q453.529 951.042 455.561 955.052 Q457.618 959.036 461.68 959.036 Q465.769 959.036 467.8 955.052 Q469.857 951.042 469.857 943.047 Q469.857 935.026 467.8 931.042 Q465.769 927.031 461.68 927.031 M461.68 922.865 Q468.217 922.865 471.654 928.047 Q475.118 933.203 475.118 943.047 Q475.118 952.865 471.654 958.047 Q468.217 963.203 461.68 963.203 Q455.144 963.203 451.681 958.047 Q448.243 952.865 448.243 943.047 Q448.243 933.203 451.681 928.047 Q455.144 922.865 461.68 922.865 Z" fill="#000000" fill-rule="nonzero" fill-opacity="1" /><path clip-path="url(#clip840)" d="M488.894 958.021 L507.253 958.021 L507.253 962.448 L482.566 962.448 L482.566 958.021 Q485.561 954.922 490.717 949.714 Q495.899 944.479 497.227 942.969 Q499.753 940.13 500.743 938.177 Q501.758 936.198 501.758 934.297 Q501.758 931.198 499.571 929.245 Q497.409 927.292 493.92 927.292 Q491.446 927.292 488.686 928.151 Q485.951 929.011 482.826 930.755 L482.826 925.443 Q486.003 924.167 488.764 923.516 Q491.524 922.865 493.816 922.865 Q499.857 922.865 503.451 925.886 Q507.045 928.906 507.045 933.958 Q507.045 936.354 506.133 938.516 Q505.248 940.651 502.878 943.568 Q502.227 944.323 498.738 947.943 Q495.248 951.536 488.894 958.021 Z" fill="#000000" fill-rule="nonzero" fill-opacity="1" /><path clip-path="url(#clip840)" d="M522.826 958.021 L541.185 958.021 L541.185 962.448 L516.498 962.448 L516.498 958.021 Q519.493 954.922 524.649 949.714 Q529.831 944.479 531.159 942.969 Q533.685 940.13 534.675 938.177 Q535.69 936.198 535.69 934.297 Q535.69 931.198 533.503 929.245 Q531.342 927.292 527.852 927.292 Q525.378 927.292 522.618 928.151 Q519.883 929.011 516.758 930.755 L516.758 925.443 Q519.935 924.167 522.696 923.516 Q525.456 922.865 527.748 922.865 Q533.789 922.865 537.383 925.886 Q540.977 928.906 540.977 933.958 Q540.977 936.354 540.065 938.516 Q539.18 940.651 536.81 943.568 Q536.159 944.323 532.67 947.943 Q529.18 951.536 522.826 958.021 Z" fill="#000000" fill-rule="nonzero" fill-opacity="1" /><path clip-path="url(#clip840)" d="M549.128 945.703 L563.164 945.703 L563.164 949.974 L549.128 949.974 L549.128 945.703 Z" fill="#000000" fill-rule="nonzero" fill-opacity="1" /><path clip-path="url(#clip840)" d="M582.721 927.031 Q578.659 927.031 576.602 931.042 Q574.57 935.026 574.57 943.047 Q574.57 951.042 576.602 955.052 Q578.659 959.036 582.721 959.036 Q586.81 959.036 588.841 955.052 Q590.899 951.042 590.899 943.047 Q590.899 935.026 588.841 931.042 Q586.81 927.031 582.721 927.031 M582.721 922.865 Q589.258 922.865 592.695 928.047 Q596.159 933.203 596.159 943.047 Q596.159 952.865 592.695 958.047 Q589.258 963.203 582.721 963.203 Q576.185 963.203 572.722 958.047 Q569.284 952.865 569.284 943.047 Q569.284 933.203 572.722 928.047 Q576.185 922.865 582.721 922.865 Z" fill="#000000" fill-rule="nonzero" fill-opacity="1" /><path clip-path="url(#clip840)" d="M604.076 923.568 L629.075 923.568 L629.075 925.807 L614.961 962.448 L609.466 962.448 L622.747 927.995 L604.076 927.995 L604.076 923.568 Z" fill="#000000" fill-rule="nonzero" fill-opacity="1" /><path clip-path="url(#clip840)" d="M636.237 945.703 L650.273 945.703 L650.273 949.974 L636.237 949.974 L636.237 945.703 Z" fill="#000000" fill-rule="nonzero" fill-opacity="1" /><path clip-path="url(#clip840)" d="M663.112 958.021 L681.471 958.021 L681.471 962.448 L656.784 962.448 L656.784 958.021 Q659.778 954.922 664.935 949.714 Q670.117 944.479 671.445 942.969 Q673.971 940.13 674.961 938.177 Q675.976 936.198 675.976 934.297 Q675.976 931.198 673.789 929.245 Q671.627 927.292 668.138 927.292 Q665.664 927.292 662.903 928.151 Q660.169 929.011 657.044 930.755 L657.044 925.443 Q660.221 924.167 662.981 923.516 Q665.742 922.865 668.034 922.865 Q674.075 922.865 677.669 925.886 Q681.263 928.906 681.263 933.958 Q681.263 936.354 680.351 938.516 Q679.466 940.651 677.096 943.568 Q676.445 944.323 672.955 947.943 Q669.466 951.536 663.112 958.021 Z" fill="#000000" fill-rule="nonzero" fill-opacity="1" /><path clip-path="url(#clip840)" d="M703.762 927.031 Q699.7 927.031 697.643 931.042 Q695.611 935.026 695.611 943.047 Q695.611 951.042 697.643 955.052 Q699.7 959.036 703.762 959.036 Q707.851 959.036 709.882 955.052 Q711.94 951.042 711.94 943.047 Q711.94 935.026 709.882 931.042 Q707.851 927.031 703.762 927.031 M703.762 922.865 Q710.299 922.865 713.736 928.047 Q717.2 933.203 717.2 943.047 Q717.2 952.865 713.736 958.047 Q710.299 963.203 703.762 963.203 Q697.226 963.203 693.763 958.047 Q690.325 952.865 690.325 943.047 Q690.325 933.203 693.763 928.047 Q697.226 922.865 703.762 922.865 Z" fill="#000000" fill-rule="nonzero" fill-opacity="1" /><path clip-path="url(#clip840)" d="M762.211 958.021 L780.571 958.021 L780.571 962.448 L755.883 962.448 L755.883 958.021 Q758.878 954.922 764.034 949.714 Q769.217 944.479 770.545 942.969 Q773.071 940.13 774.06 938.177 Q775.076 936.198 775.076 934.297 Q775.076 931.198 772.888 929.245 Q770.727 927.292 767.237 927.292 Q764.764 927.292 762.003 928.151 Q759.269 929.011 756.144 930.755 L756.144 925.443 Q759.321 924.167 762.081 923.516 Q764.842 922.865 767.133 922.865 Q773.175 922.865 776.769 925.886 Q780.362 928.906 780.362 933.958 Q780.362 936.354 779.451 938.516 Q778.566 940.651 776.196 943.568 Q775.545 944.323 772.055 947.943 Q768.566 951.536 762.211 958.021 Z" fill="#000000" fill-rule="nonzero" fill-opacity="1" /><path clip-path="url(#clip840)" d="M802.862 927.031 Q798.8 927.031 796.743 931.042 Q794.711 935.026 794.711 943.047 Q794.711 951.042 796.743 955.052 Q798.8 959.036 802.862 959.036 Q806.951 959.036 808.982 955.052 Q811.039 951.042 811.039 943.047 Q811.039 935.026 808.982 931.042 Q806.951 927.031 802.862 927.031 M802.862 922.865 Q809.399 922.865 812.836 928.047 Q816.3 933.203 816.3 943.047 Q816.3 952.865 812.836 958.047 Q809.399 963.203 802.862 963.203 Q796.326 963.203 792.862 958.047 Q789.425 952.865 789.425 943.047 Q789.425 933.203 792.862 928.047 Q796.326 922.865 802.862 922.865 Z" fill="#000000" fill-rule="nonzero" fill-opacity="1" /><path clip-path="url(#clip840)" d="M830.076 958.021 L848.435 958.021 L848.435 962.448 L823.748 962.448 L823.748 958.021 Q826.742 954.922 831.899 949.714 Q837.081 944.479 838.409 942.969 Q840.935 940.13 841.925 938.177 Q842.94 936.198 842.94 934.297 Q842.94 931.198 840.753 929.245 Q838.591 927.292 835.102 927.292 Q832.628 927.292 829.867 928.151 Q827.133 929.011 824.008 930.755 L824.008 925.443 Q827.185 924.167 829.945 923.516 Q832.706 922.865 834.998 922.865 Q841.039 922.865 844.633 925.886 Q848.227 928.906 848.227 933.958 Q848.227 936.354 847.315 938.516 Q846.43 940.651 844.06 943.568 Q843.409 944.323 839.919 947.943 Q836.43 951.536 830.076 958.021 Z" fill="#000000" fill-rule="nonzero" fill-opacity="1" /><path clip-path="url(#clip840)" d="M864.008 958.021 L882.367 958.021 L882.367 962.448 L857.68 962.448 L857.68 958.021 Q860.674 954.922 865.831 949.714 Q871.013 944.479 872.341 942.969 Q874.867 940.13 875.857 938.177 Q876.872 936.198 876.872 934.297 Q876.872 931.198 874.685 929.245 Q872.523 927.292 869.034 927.292 Q866.56 927.292 863.799 928.151 Q861.065 929.011 857.94 930.755 L857.94 925.443 Q861.117 924.167 863.878 923.516 Q866.638 922.865 868.93 922.865 Q874.971 922.865 878.565 925.886 Q882.159 928.906 882.159 933.958 Q882.159 936.354 881.247 938.516 Q880.362 940.651 877.992 943.568 Q877.341 944.323 873.851 947.943 Q870.362 951.536 864.008 958.021 Z" fill="#000000" fill-rule="nonzero" fill-opacity="1" /><path clip-path="url(#clip840)" d="M890.31 945.703 L904.346 945.703 L904.346 949.974 L890.31 949.974 L890.31 945.703 Z" fill="#000000" fill-rule="nonzero" fill-opacity="1" /><path clip-path="url(#clip840)" d="M923.903 927.031 Q919.841 927.031 917.784 931.042 Q915.752 935.026 915.752 943.047 Q915.752 951.042 917.784 955.052 Q919.841 959.036 923.903 959.036 Q927.992 959.036 930.023 955.052 Q932.08 951.042 932.08 943.047 Q932.08 935.026 930.023 931.042 Q927.992 927.031 923.903 927.031 M923.903 922.865 Q930.44 922.865 933.877 928.047 Q937.341 933.203 937.341 943.047 Q937.341 952.865 933.877 958.047 Q930.44 963.203 923.903 963.203 Q917.367 963.203 913.903 958.047 Q910.466 952.865 910.466 943.047 Q910.466 933.203 913.903 928.047 Q917.367 922.865 923.903 922.865 Z" fill="#000000" fill-rule="nonzero" fill-opacity="1" /><path clip-path="url(#clip840)" d="M945.257 923.568 L970.257 923.568 L970.257 925.807 L956.143 962.448 L950.648 962.448 L963.929 927.995 L945.257 927.995 L945.257 923.568 Z" fill="#000000" fill-rule="nonzero" fill-opacity="1" /><path clip-path="url(#clip840)" d="M977.419 945.703 L991.455 945.703 L991.455 949.974 L977.419 949.974 L977.419 945.703 Z" fill="#000000" fill-rule="nonzero" fill-opacity="1" /><path clip-path="url(#clip840)" d="M1004.29 958.021 L1022.65 958.021 L1022.65 962.448 L997.965 962.448 L997.965 958.021 Q1000.96 954.922 1006.12 949.714 Q1011.3 944.479 1012.63 942.969 Q1015.15 940.13 1016.14 938.177 Q1017.16 936.198 1017.16 934.297 Q1017.16 931.198 1014.97 929.245 Q1012.81 927.292 1009.32 927.292 Q1006.85 927.292 1004.09 928.151 Q1001.35 929.011 998.226 930.755 L998.226 925.443 Q1001.4 924.167 1004.16 923.516 Q1006.92 922.865 1009.22 922.865 Q1015.26 922.865 1018.85 925.886 Q1022.44 928.906 1022.44 933.958 Q1022.44 936.354 1021.53 938.516 Q1020.65 940.651 1018.28 943.568 Q1017.63 944.323 1014.14 947.943 Q1010.65 951.536 1004.29 958.021 Z" fill="#000000" fill-rule="nonzero" fill-opacity="1" /><path clip-path="url(#clip840)" d="M1038.23 958.021 L1056.58 958.021 L1056.58 962.448 L1031.9 962.448 L1031.9 958.021 Q1034.89 954.922 1040.05 949.714 Q1045.23 944.479 1046.56 942.969 Q1049.08 940.13 1050.07 938.177 Q1051.09 936.198 1051.09 934.297 Q1051.09 931.198 1048.9 929.245 Q1046.74 927.292 1043.25 927.292 Q1040.78 927.292 1038.02 928.151 Q1035.28 929.011 1032.16 930.755 L1032.16 925.443 Q1035.33 924.167 1038.1 923.516 Q1040.86 922.865 1043.15 922.865 Q1049.19 922.865 1052.78 925.886 Q1056.38 928.906 1056.38 933.958 Q1056.38 936.354 1055.47 938.516 Q1054.58 940.651 1052.21 943.568 Q1051.56 944.323 1048.07 947.943 Q1044.58 951.536 1038.23 958.021 Z" fill="#000000" fill-rule="nonzero" fill-opacity="1" /><path clip-path="url(#clip840)" d="M1101.32 958.021 L1119.68 958.021 L1119.68 962.448 L1094.99 962.448 L1094.99 958.021 Q1097.99 954.922 1103.15 949.714 Q1108.33 944.479 1109.66 942.969 Q1112.18 940.13 1113.17 938.177 Q1114.19 936.198 1114.19 934.297 Q1114.19 931.198 1112 929.245 Q1109.84 927.292 1106.35 927.292 Q1103.88 927.292 1101.11 928.151 Q1098.38 929.011 1095.26 930.755 L1095.26 925.443 Q1098.43 924.167 1101.19 923.516 Q1103.95 922.865 1106.24 922.865 Q1112.29 922.865 1115.88 925.886 Q1119.47 928.906 1119.47 933.958 Q1119.47 936.354 1118.56 938.516 Q1117.68 940.651 1115.31 943.568 Q1114.66 944.323 1111.17 947.943 Q1107.68 951.536 1101.32 958.021 Z" fill="#000000" fill-rule="nonzero" fill-opacity="1" /><path clip-path="url(#clip840)" d="M1141.97 927.031 Q1137.91 927.031 1135.85 931.042 Q1133.82 935.026 1133.82 943.047 Q1133.82 951.042 1135.85 955.052 Q1137.91 959.036 1141.97 959.036 Q1146.06 959.036 1148.09 955.052 Q1150.15 951.042 1150.15 943.047 Q1150.15 935.026 1148.09 931.042 Q1146.06 927.031 1141.97 927.031 M1141.97 922.865 Q1148.51 922.865 1151.95 928.047 Q1155.41 933.203 1155.41 943.047 Q1155.41 952.865 1151.95 958.047 Q1148.51 963.203 1141.97 963.203 Q1135.44 963.203 1131.97 958.047 Q1128.54 952.865 1128.54 943.047 Q1128.54 933.203 1131.97 928.047 Q1135.44 922.865 1141.97 922.865 Z" fill="#000000" fill-rule="nonzero" fill-opacity="1" /><path clip-path="url(#clip840)" d="M1169.19 958.021 L1187.55 958.021 L1187.55 962.448 L1162.86 962.448 L1162.86 958.021 Q1165.85 954.922 1171.01 949.714 Q1176.19 944.479 1177.52 942.969 Q1180.05 940.13 1181.04 938.177 Q1182.05 936.198 1182.05 934.297 Q1182.05 931.198 1179.86 929.245 Q1177.7 927.292 1174.21 927.292 Q1171.74 927.292 1168.98 928.151 Q1166.24 929.011 1163.12 930.755 L1163.12 925.443 Q1166.3 924.167 1169.06 923.516 Q1171.82 922.865 1174.11 922.865 Q1180.15 922.865 1183.74 925.886 Q1187.34 928.906 1187.34 933.958 Q1187.34 936.354 1186.43 938.516 Q1185.54 940.651 1183.17 943.568 Q1182.52 944.323 1179.03 947.943 Q1175.54 951.536 1169.19 958.021 Z" fill="#000000" fill-rule="nonzero" fill-opacity="1" /><path clip-path="url(#clip840)" d="M1203.12 958.021 L1221.48 958.021 L1221.48 962.448 L1196.79 962.448 L1196.79 958.021 Q1199.79 954.922 1204.94 949.714 Q1210.12 944.479 1211.45 942.969 Q1213.98 940.13 1214.97 938.177 Q1215.98 936.198 1215.98 934.297 Q1215.98 931.198 1213.8 929.245 Q1211.63 927.292 1208.15 927.292 Q1205.67 927.292 1202.91 928.151 Q1200.18 929.011 1197.05 930.755 L1197.05 925.443 Q1200.23 924.167 1202.99 923.516 Q1205.75 922.865 1208.04 922.865 Q1214.08 922.865 1217.68 925.886 Q1221.27 928.906 1221.27 933.958 Q1221.27 936.354 1220.36 938.516 Q1219.47 940.651 1217.1 943.568 Q1216.45 944.323 1212.96 947.943 Q1209.47 951.536 1203.12 958.021 Z" fill="#000000" fill-rule="nonzero" fill-opacity="1" /><path clip-path="url(#clip840)" d="M1229.42 945.703 L1243.46 945.703 L1243.46 949.974 L1229.42 949.974 L1229.42 945.703 Z" fill="#000000" fill-rule="nonzero" fill-opacity="1" /><path clip-path="url(#clip840)" d="M1263.01 927.031 Q1258.95 927.031 1256.9 931.042 Q1254.86 935.026 1254.86 943.047 Q1254.86 951.042 1256.9 955.052 Q1258.95 959.036 1263.01 959.036 Q1267.1 959.036 1269.13 955.052 Q1271.19 951.042 1271.19 943.047 Q1271.19 935.026 1269.13 931.042 Q1267.1 927.031 1263.01 927.031 M1263.01 922.865 Q1269.55 922.865 1272.99 928.047 Q1276.45 933.203 1276.45 943.047 Q1276.45 952.865 1272.99 958.047 Q1269.55 963.203 1263.01 963.203 Q1256.48 963.203 1253.01 958.047 Q1249.58 952.865 1249.58 943.047 Q1249.58 933.203 1253.01 928.047 Q1256.48 922.865 1263.01 922.865 Z" fill="#000000" fill-rule="nonzero" fill-opacity="1" /><path clip-path="url(#clip840)" d="M1284.37 923.568 L1309.37 923.568 L1309.37 925.807 L1295.25 962.448 L1289.76 962.448 L1303.04 927.995 L1284.37 927.995 L1284.37 923.568 Z" fill="#000000" fill-rule="nonzero" fill-opacity="1" /><path clip-path="url(#clip840)" d="M1316.53 945.703 L1330.57 945.703 L1330.57 949.974 L1316.53 949.974 L1316.53 945.703 Z" fill="#000000" fill-rule="nonzero" fill-opacity="1" /><path clip-path="url(#clip840)" d="M1343.4 958.021 L1361.76 958.021 L1361.76 962.448 L1337.08 962.448 L1337.08 958.021 Q1340.07 954.922 1345.23 949.714 Q1350.41 944.479 1351.74 942.969 Q1354.26 940.13 1355.25 938.177 Q1356.27 936.198 1356.27 934.297 Q1356.27 931.198 1354.08 929.245 Q1351.92 927.292 1348.43 927.292 Q1345.96 927.292 1343.2 928.151 Q1340.46 929.011 1337.34 930.755 L1337.34 925.443 Q1340.51 924.167 1343.27 923.516 Q1346.04 922.865 1348.33 922.865 Q1354.37 922.865 1357.96 925.886 Q1361.56 928.906 1361.56 933.958 Q1361.56 936.354 1360.64 938.516 Q1359.76 940.651 1357.39 943.568 Q1356.74 944.323 1353.25 947.943 Q1349.76 951.536 1343.4 958.021 Z" fill="#000000" fill-rule="nonzero" fill-opacity="1" /><path clip-path="url(#clip840)" d="M1387.26 928.151 L1373.98 948.906 L1387.26 948.906 L1387.26 928.151 M1385.88 923.568 L1392.49 923.568 L1392.49 948.906 L1398.04 948.906 L1398.04 953.281 L1392.49 953.281 L1392.49 962.448 L1387.26 962.448 L1387.26 953.281 L1369.71 953.281 L1369.71 948.203 L1385.88 923.568 Z" fill="#000000" fill-rule="nonzero" fill-opacity="1" /><polyline clip-path="url(#clip842)" style="stroke:#000000; stroke-linecap:round; stroke-linejoin:round; stroke-width:2; stroke-opacity:0.1; fill:none" points="190.15,740.985 1445.09,740.985 "/>
<polyline clip-path="url(#clip842)" style="stroke:#000000; stroke-linecap:round; stroke-linejoin:round; stroke-width:2; stroke-opacity:0.1; fill:none" points="190.15,577.452 1445.09,577.452 "/>
<polyline clip-path="url(#clip842)" style="stroke:#000000; stroke-linecap:round; stroke-linejoin:round; stroke-width:2; stroke-opacity:0.1; fill:none" points="190.15,413.919 1445.09,413.919 "/>
<polyline clip-path="url(#clip842)" style="stroke:#000000; stroke-linecap:round; stroke-linejoin:round; stroke-width:2; stroke-opacity:0.1; fill:none" points="190.15,250.386 1445.09,250.386 "/>
<polyline clip-path="url(#clip842)" style="stroke:#000000; stroke-linecap:round; stroke-linejoin:round; stroke-width:2; stroke-opacity:0.1; fill:none" points="190.15,86.8534 1445.09,86.8534 "/>
<polyline clip-path="url(#clip840)" style="stroke:#000000; stroke-linecap:round; stroke-linejoin:round; stroke-width:4; stroke-opacity:1; fill:none" points="190.15,897.848 190.15,47.2441 "/>
<polyline clip-path="url(#clip840)" style="stroke:#000000; stroke-linecap:round; stroke-linejoin:round; stroke-width:4; stroke-opacity:1; fill:none" points="190.15,740.985 203.605,740.985 "/>
<polyline clip-path="url(#clip840)" style="stroke:#000000; stroke-linecap:round; stroke-linejoin:round; stroke-width:4; stroke-opacity:1; fill:none" points="190.15,577.452 203.605,577.452 "/>
<polyline clip-path="url(#clip840)" style="stroke:#000000; stroke-linecap:round; stroke-linejoin:round; stroke-width:4; stroke-opacity:1; fill:none" points="190.15,413.919 203.605,413.919 "/>
<polyline clip-path="url(#clip840)" style="stroke:#000000; stroke-linecap:round; stroke-linejoin:round; stroke-width:4; stroke-opacity:1; fill:none" points="190.15,250.386 203.605,250.386 "/>
<polyline clip-path="url(#clip840)" style="stroke:#000000; stroke-linecap:round; stroke-linejoin:round; stroke-width:4; stroke-opacity:1; fill:none" points="190.15,86.8534 203.605,86.8534 "/>
<path clip-path="url(#clip840)" d="M147.182 738.889 Q143.64 738.889 141.557 741.311 Q139.499 743.733 139.499 747.952 Q139.499 752.144 141.557 754.592 Q143.64 757.014 147.182 757.014 Q150.723 757.014 152.781 754.592 Q154.864 752.144 154.864 747.952 Q154.864 743.733 152.781 741.311 Q150.723 738.889 147.182 738.889 M157.624 722.405 L157.624 727.196 Q155.645 726.259 153.614 725.764 Q151.609 725.269 149.629 725.269 Q144.421 725.269 141.661 728.785 Q138.926 732.301 138.536 739.41 Q140.072 737.144 142.39 735.946 Q144.708 734.722 147.494 734.722 Q153.353 734.722 156.739 738.29 Q160.15 741.832 160.15 747.952 Q160.15 753.941 156.609 757.561 Q153.067 761.181 147.182 761.181 Q140.437 761.181 136.869 756.024 Q133.301 750.842 133.301 741.024 Q133.301 731.806 137.676 726.337 Q142.051 720.842 149.421 720.842 Q151.4 720.842 153.406 721.233 Q155.437 721.624 157.624 722.405 Z" fill="#000000" fill-rule="nonzero" fill-opacity="1" /><path clip-path="url(#clip840)" d="M146.817 578.429 Q143.067 578.429 140.906 580.434 Q138.77 582.439 138.77 585.955 Q138.77 589.471 140.906 591.476 Q143.067 593.481 146.817 593.481 Q150.567 593.481 152.728 591.476 Q154.89 589.445 154.89 585.955 Q154.89 582.439 152.728 580.434 Q150.593 578.429 146.817 578.429 M141.557 576.189 Q138.171 575.356 136.27 573.038 Q134.395 570.721 134.395 567.387 Q134.395 562.726 137.702 560.018 Q141.036 557.309 146.817 557.309 Q152.624 557.309 155.932 560.018 Q159.239 562.726 159.239 567.387 Q159.239 570.721 157.338 573.038 Q155.463 575.356 152.103 576.189 Q155.905 577.075 158.015 579.653 Q160.15 582.231 160.15 585.955 Q160.15 591.606 156.687 594.627 Q153.249 597.648 146.817 597.648 Q140.385 597.648 136.921 594.627 Q133.484 591.606 133.484 585.955 Q133.484 582.231 135.619 579.653 Q137.755 577.075 141.557 576.189 M139.63 567.882 Q139.63 570.903 141.505 572.596 Q143.406 574.288 146.817 574.288 Q150.202 574.288 152.103 572.596 Q154.03 570.903 154.03 567.882 Q154.03 564.861 152.103 563.169 Q150.202 561.476 146.817 561.476 Q143.406 561.476 141.505 563.169 Q139.63 564.861 139.63 567.882 Z" fill="#000000" fill-rule="nonzero" fill-opacity="1" /><path clip-path="url(#clip840)" d="M102.442 428.932 L111.036 428.932 L111.036 399.271 L101.687 401.146 L101.687 396.354 L110.984 394.479 L116.244 394.479 L116.244 428.932 L124.838 428.932 L124.838 433.359 L102.442 433.359 L102.442 428.932 Z" fill="#000000" fill-rule="nonzero" fill-opacity="1" /><path clip-path="url(#clip840)" d="M146.713 397.943 Q142.65 397.943 140.593 401.953 Q138.562 405.938 138.562 413.958 Q138.562 421.953 140.593 425.964 Q142.65 429.948 146.713 429.948 Q150.801 429.948 152.833 425.964 Q154.89 421.953 154.89 413.958 Q154.89 405.938 152.833 401.953 Q150.801 397.943 146.713 397.943 M146.713 393.776 Q153.249 393.776 156.687 398.959 Q160.15 404.115 160.15 413.958 Q160.15 423.776 156.687 428.958 Q153.249 434.115 146.713 434.115 Q140.176 434.115 136.713 428.958 Q133.275 423.776 133.275 413.958 Q133.275 404.115 136.713 398.959 Q140.176 393.776 146.713 393.776 Z" fill="#000000" fill-rule="nonzero" fill-opacity="1" /><path clip-path="url(#clip840)" d="M104.239 265.399 L112.833 265.399 L112.833 235.738 L103.484 237.613 L103.484 232.821 L112.781 230.946 L118.041 230.946 L118.041 265.399 L126.635 265.399 L126.635 269.826 L104.239 269.826 L104.239 265.399 Z" fill="#000000" fill-rule="nonzero" fill-opacity="1" /><path clip-path="url(#clip840)" d="M141.791 265.399 L160.15 265.399 L160.15 269.826 L135.463 269.826 L135.463 265.399 Q138.458 262.3 143.614 257.092 Q148.796 251.858 150.124 250.347 Q152.65 247.509 153.64 245.556 Q154.655 243.577 154.655 241.676 Q154.655 238.577 152.468 236.623 Q150.307 234.67 146.817 234.67 Q144.343 234.67 141.583 235.53 Q138.848 236.389 135.723 238.134 L135.723 232.821 Q138.9 231.545 141.661 230.894 Q144.421 230.243 146.713 230.243 Q152.754 230.243 156.348 233.264 Q159.942 236.285 159.942 241.337 Q159.942 243.733 159.03 245.894 Q158.145 248.03 155.775 250.946 Q155.124 251.702 151.635 255.321 Q148.145 258.915 141.791 265.399 Z" fill="#000000" fill-rule="nonzero" fill-opacity="1" /><path clip-path="url(#clip840)" d="M101.895 101.866 L110.489 101.866 L110.489 72.2051 L101.14 74.0801 L101.14 69.2884 L110.437 67.4134 L115.697 67.4134 L115.697 101.866 L124.291 101.866 L124.291 106.293 L101.895 106.293 L101.895 101.866 Z" fill="#000000" fill-rule="nonzero" fill-opacity="1" /><path clip-path="url(#clip840)" d="M149.369 71.9967 L136.088 92.7518 L149.369 92.7518 L149.369 71.9967 M147.989 67.4134 L154.603 67.4134 L154.603 92.7518 L160.15 92.7518 L160.15 97.1268 L154.603 97.1268 L154.603 106.293 L149.369 106.293 L149.369 97.1268 L131.817 97.1268 L131.817 92.0487 L147.989 67.4134 Z" fill="#000000" fill-rule="nonzero" fill-opacity="1" /><path clip-path="url(#clip840)" d="M14.9802 630.097 L14.9802 624.252 L58.1802 624.252 L58.1802 630.097 L14.9802 630.097 Z" fill="#000000" fill-rule="nonzero" fill-opacity="1" /><path clip-path="url(#clip840)" d="M38.6201 585.913 L58.1802 585.913 L58.1802 591.237 L38.7937 591.237 Q34.193 591.237 31.9072 593.031 Q29.6213 594.825 29.6213 598.413 Q29.6213 602.725 32.3701 605.213 Q35.1189 607.702 39.8643 607.702 L58.1802 607.702 L58.1802 613.054 L25.7729 613.054 L25.7729 607.702 L30.8076 607.702 Q27.8852 605.792 26.4384 603.217 Q24.9917 600.612 24.9917 597.227 Q24.9917 591.643 28.4639 588.778 Q31.9072 585.913 38.6201 585.913 Z" fill="#000000" fill-rule="nonzero" fill-opacity="1" /><path clip-path="url(#clip840)" d="M13.1573 558.888 L17.5843 558.888 L17.5843 563.981 Q17.5843 566.845 18.7417 567.974 Q19.8991 569.073 22.9084 569.073 L25.7729 569.073 L25.7729 560.306 L29.9106 560.306 L29.9106 569.073 L58.1802 569.073 L58.1802 574.426 L29.9106 574.426 L29.9106 579.519 L25.7729 579.519 L25.7729 574.426 L23.516 574.426 Q18.1051 574.426 15.6457 571.909 Q13.1573 569.392 13.1573 563.923 L13.1573 558.888 Z" fill="#000000" fill-rule="nonzero" fill-opacity="1" /><path clip-path="url(#clip840)" d="M13.1573 554.432 L13.1573 549.108 L58.1802 549.108 L58.1802 554.432 L13.1573 554.432 Z" fill="#000000" fill-rule="nonzero" fill-opacity="1" /><path clip-path="url(#clip840)" d="M29.5055 525.41 Q29.5055 529.693 32.862 532.181 Q36.1895 534.669 42.0055 534.669 Q47.8214 534.669 51.1779 532.21 Q54.5054 529.722 54.5054 525.41 Q54.5054 521.157 51.1489 518.668 Q47.7925 516.18 42.0055 516.18 Q36.2474 516.18 32.8909 518.668 Q29.5055 521.157 29.5055 525.41 M24.9917 525.41 Q24.9917 518.466 29.5055 514.502 Q34.0194 510.538 42.0055 510.538 Q49.9626 510.538 54.5054 514.502 Q59.0193 518.466 59.0193 525.41 Q59.0193 532.384 54.5054 536.348 Q49.9626 540.283 42.0055 540.283 Q34.0194 540.283 29.5055 536.348 Q24.9917 532.384 24.9917 525.41 Z" fill="#000000" fill-rule="nonzero" fill-opacity="1" /><path clip-path="url(#clip840)" d="M25.7729 504.809 L25.7729 499.484 L51.0621 492.829 L25.7729 486.203 L25.7729 479.924 L51.0621 473.269 L25.7729 466.643 L25.7729 461.319 L58.1802 469.797 L58.1802 476.076 L31.6178 483.049 L58.1802 490.052 L58.1802 496.331 L25.7729 504.809 Z" fill="#000000" fill-rule="nonzero" fill-opacity="1" /><path clip-path="url(#clip840)" d="M13.1573 434.902 L13.1573 422.633 L17.295 422.633 L17.295 429.577 L61.8549 429.577 L61.8549 422.633 L65.9926 422.633 L65.9926 434.902 L13.1573 434.902 Z" fill="#000000" fill-rule="nonzero" fill-opacity="1" /><path clip-path="url(#clip840)" d="M14.9802 411.059 L14.9802 405.214 L53.2612 405.214 L53.2612 384.178 L58.1802 384.178 L58.1802 411.059 L14.9802 411.059 Z" fill="#000000" fill-rule="nonzero" fill-opacity="1" /><path clip-path="url(#clip840)" d="M14.9802 368.814 L14.9802 363.895 L63.6778 378.941 L63.6778 383.86 L14.9802 368.814 Z" fill="#000000" fill-rule="nonzero" fill-opacity="1" /><path clip-path="url(#clip840)" d="M26.7278 337.651 L31.7625 337.651 Q30.6051 339.908 30.0264 342.338 Q29.4477 344.769 29.4477 347.373 Q29.4477 351.337 30.6629 353.334 Q31.8782 355.301 34.3088 355.301 Q36.1606 355.301 37.2312 353.883 Q38.2729 352.466 39.2277 348.183 L39.6328 346.36 Q40.8481 340.689 43.0761 338.316 Q45.2751 335.915 49.2392 335.915 Q53.7531 335.915 56.3862 339.503 Q59.0193 343.062 59.0193 349.312 Q59.0193 351.916 58.4984 354.751 Q58.0065 357.558 56.9938 360.683 L51.4962 360.683 Q53.0297 357.732 53.811 354.867 Q54.5633 352.003 54.5633 349.196 Q54.5633 345.434 53.2901 343.409 Q51.9881 341.383 49.6443 341.383 Q47.4742 341.383 46.3168 342.859 Q45.1594 344.306 44.0888 349.254 L43.6548 351.106 Q42.6131 356.054 40.4719 358.253 Q38.3018 360.452 34.5402 360.452 Q29.9685 360.452 27.4801 357.211 Q24.9917 353.97 24.9917 348.01 Q24.9917 345.058 25.4257 342.454 Q25.8597 339.85 26.7278 337.651 Z" fill="#000000" fill-rule="nonzero" fill-opacity="1" /><path clip-path="url(#clip840)" d="M13.1573 314.995 L65.9926 314.995 L65.9926 327.263 L61.8549 327.263 L61.8549 320.348 L17.295 320.348 L17.295 327.263 L13.1573 327.263 L13.1573 314.995 Z" fill="#000000" fill-rule="nonzero" fill-opacity="1" /><polyline clip-path="url(#clip842)" style="stroke:#023eff; stroke-linecap:round; stroke-linejoin:round; stroke-width:5; stroke-opacity:1; fill:none" points="225.667,693.13 232.757,778.032 239.846,778.032 246.935,778.032 254.024,778.032 261.114,778.032 268.203,690.251 275.292,564.822 282.381,552.858 289.47,435.489 296.56,552.858 303.649,552.858 310.738,552.858 317.827,552.858 324.917,564.822 332.006,552.858 339.095,552.858 346.184,435.489 353.274,552.858 360.363,564.822 367.452,435.489 374.541,552.858 381.631,768.287 388.72,768.287 395.809,760.763 402.898,721.002 409.988,839.82 417.077,839.82 424.166,839.82 431.255,721.002 438.344,583.309 445.434,412.933 452.523,412.933 459.612,412.933 466.701,412.933 473.791,535.767 480.88,583.309 487.969,719.209 495.058,583.309 502.148,684.126 509.237,583.309 516.326,535.767 523.415,535.767 530.505,535.767 537.594,535.767 544.683,583.309 551.772,535.767 558.861,814.76 565.951,839.82 573.04,839.82 580.129,760.763 587.218,839.82 594.308,760.763 601.397,839.82 608.486,684.126 615.575,412.933 622.665,412.933 629.754,412.933 636.843,583.309 643.932,583.309 651.022,583.309 658.111,535.767 665.2,583.309 672.289,583.309 679.379,535.767 686.468,583.309 693.557,583.309 700.646,535.767 707.735,535.767 714.825,583.309 721.914,583.309 729.003,583.309 736.092,721.002 743.182,839.82 750.271,839.82 757.36,839.82 764.449,839.82 771.539,684.126 778.628,583.309 785.717,412.933 792.806,412.933 799.896,412.933 806.985,412.933 814.074,535.767 821.163,583.309 828.252,583.309 835.342,684.126 842.431,583.309 849.52,684.126 856.609,535.767 863.699,583.309 870.788,583.309 877.877,583.309 884.966,583.309 892.056,583.309 899.145,814.76 906.234,465.497 913.323,839.82 920.413,839.82 927.502,839.82 934.591,839.82 941.68,839.82 948.77,583.309 955.859,583.309 962.948,412.933 970.037,583.309 977.126,583.309 984.216,583.309 991.305,583.309 998.394,583.309 1005.48,583.309 1012.57,583.309 1019.66,583.309 1026.75,583.309 1033.84,583.309 1040.93,535.767 1048.02,583.309 1055.11,583.309 1062.2,583.309 1069.29,583.309 1076.38,465.497 1083.47,465.497 1090.55,760.763 1097.64,760.763 1104.73,839.82 1111.82,684.126 1118.91,583.309 1126,412.933 1133.09,412.933 1140.18,412.933 1147.27,412.933 1154.36,583.309 1161.45,583.309 1168.54,583.309 1175.63,583.309 1182.71,535.767 1189.8,535.767 1196.89,583.309 1203.98,583.309 1211.07,535.767 1218.16,583.309 1225.25,583.309 1232.34,583.309 1239.43,583.309 1246.52,721.002 1253.61,465.497 1260.7,873.774 1267.79,873.774 1274.87,620.105 1281.96,620.105 1289.05,638.128 1296.14,583.309 1303.23,412.933 1310.32,412.933 1317.41,412.933 1324.5,583.309 1331.59,583.309 1338.68,583.309 1345.77,583.309 1352.86,583.309 1359.95,583.309 1367.03,535.767 1374.12,583.309 1381.21,583.309 1388.3,583.309 1395.39,583.309 1402.48,711.85 1409.57,711.85 "/>
<polyline clip-path="url(#clip842)" style="stroke:#ff7c00; stroke-linecap:round; stroke-linejoin:round; stroke-width:5; stroke-opacity:1; fill:none" points="225.667,709.013 232.757,711.293 239.846,711.293 246.935,711.293 254.024,711.293 261.114,711.293 268.203,570.595 275.292,258.391 282.381,418.98 289.47,418.98 296.56,418.98 303.649,418.98 310.738,493.895 317.827,493.895 324.917,493.895 332.006,493.895 339.095,493.895 346.184,493.895 353.274,493.895 360.363,493.895 367.452,493.895 374.541,493.895 381.631,622.912 388.72,622.912 395.809,711.293 402.898,711.293 409.988,711.293 417.077,711.293 424.166,711.293 431.255,711.293 438.344,507.484 445.434,258.391 452.523,418.98 459.612,418.98 466.701,418.98 473.791,418.98 480.88,549.975 487.969,549.975 495.058,549.975 502.148,549.975 509.237,549.975 516.326,549.975 523.415,549.975 530.505,549.975 537.594,549.975 544.683,549.975 551.772,622.912 558.861,622.912 565.951,711.293 573.04,711.293 580.129,711.293 587.218,711.293 594.308,711.293 601.397,711.293 608.486,507.484 615.575,258.391 622.665,418.98 629.754,418.98 636.843,418.98 643.932,418.98 651.022,549.975 658.111,549.975 665.2,549.975 672.289,549.975 679.379,549.975 686.468,549.975 693.557,549.975 700.646,549.975 707.735,549.975 714.825,549.975 721.914,622.912 729.003,622.912 736.092,711.293 743.182,711.293 750.271,711.293 757.36,711.293 764.449,711.293 771.539,711.293 778.628,507.484 785.717,258.391 792.806,418.98 799.896,418.98 806.985,418.98 814.074,418.98 821.163,549.975 828.252,549.975 835.342,549.975 842.431,549.975 849.52,549.975 856.609,549.975 863.699,549.975 870.788,549.975 877.877,549.975 884.966,549.975 892.056,622.912 899.145,622.912 906.234,711.293 913.323,711.293 920.413,711.293 927.502,711.293 934.591,711.293 941.68,711.293 948.77,507.484 955.859,258.391 962.948,418.98 970.037,418.98 977.126,418.98 984.216,418.98 991.305,549.975 998.394,549.975 1005.48,549.975 1012.57,549.975 1019.66,549.975 1026.75,549.975 1033.84,549.975 1040.93,549.975 1048.02,549.975 1055.11,549.975 1062.2,622.912 1069.29,622.912 1076.38,711.293 1083.47,711.293 1090.55,711.293 1097.64,711.293 1104.73,711.293 1111.82,711.293 1118.91,609.052 1126,464.564 1133.09,326.893 1140.18,326.893 1147.27,326.893 1154.36,326.893 1161.45,549.975 1168.54,549.975 1175.63,549.975 1182.71,549.975 1189.8,549.975 1196.89,549.975 1203.98,549.975 1211.07,549.975 1218.16,549.975 1225.25,549.975 1232.34,622.912 1239.43,622.912 1246.52,711.293 1253.61,711.293 1260.7,711.293 1267.79,711.293 1274.87,711.293 1281.96,711.293 1289.05,609.052 1296.14,464.564 1303.23,326.893 1310.32,326.893 1317.41,326.893 1324.5,326.893 1331.59,549.975 1338.68,549.975 1345.77,549.975 1352.86,549.975 1359.95,549.975 1367.03,549.975 1374.12,549.975 1381.21,549.975 1388.3,549.975 1395.39,549.975 1402.48,622.912 1409.57,622.912 "/>
<polyline clip-path="url(#clip842)" style="stroke:#1ac938; stroke-linecap:round; stroke-linejoin:round; stroke-width:5; stroke-opacity:1; fill:none" points="225.667,722.671 232.757,722.671 239.846,722.671 246.935,722.671 254.024,722.671 261.114,722.671 268.203,587.605 275.292,587.605 282.381,523.927 289.47,447.726 296.56,523.927 303.649,587.605 310.738,587.605 317.827,587.605 324.917,587.605 332.006,587.605 339.095,523.927 346.184,523.927 353.274,523.927 360.363,447.726 367.452,447.726 374.541,587.605 381.631,587.605 388.72,587.605 395.809,722.671 402.898,722.671 409.988,722.671 417.077,722.671 424.166,722.671 431.255,722.671 438.344,583.672 445.434,313.277 452.523,313.277 459.612,462.547 466.701,462.547 473.791,462.547 480.88,528.635 487.969,528.635 495.058,528.635 502.148,528.635 509.237,528.635 516.326,462.547 523.415,462.547 530.505,462.547 537.594,462.547 544.683,528.635 551.772,462.547 558.861,630.513 565.951,722.671 573.04,722.671 580.129,722.671 587.218,722.671 594.308,722.671 601.397,722.671 608.486,583.672 615.575,313.277 622.665,313.277 629.754,462.547 636.843,528.635 643.932,528.635 651.022,528.635 658.111,462.547 665.2,528.635 672.289,528.635 679.379,462.547 686.468,528.635 693.557,528.635 700.646,462.547 707.735,462.547 714.825,528.635 721.914,630.513 729.003,630.513 736.092,722.671 743.182,722.671 750.271,722.671 757.36,722.671 764.449,722.671 771.539,722.671 778.628,583.672 785.717,313.277 792.806,313.277 799.896,462.547 806.985,462.547 814.074,462.547 821.163,528.635 828.252,528.635 835.342,528.635 842.431,528.635 849.52,528.635 856.609,462.547 863.699,528.635 870.788,528.635 877.877,528.635 884.966,528.635 892.056,630.513 899.145,630.513 906.234,722.671 913.323,722.671 920.413,722.671 927.502,722.671 934.591,722.671 941.68,722.671 948.77,583.672 955.859,528.635 962.948,313.277 970.037,528.635 977.126,528.635 984.216,528.635 991.305,528.635 998.394,528.635 1005.48,528.635 1012.57,528.635 1019.66,528.635 1026.75,528.635 1033.84,528.635 1040.93,462.547 1048.02,528.635 1055.11,528.635 1062.2,630.513 1069.29,630.513 1076.38,722.671 1083.47,722.671 1090.55,722.671 1097.64,722.671 1104.73,722.671 1111.82,722.671 1118.91,583.672 1126,313.277 1133.09,313.277 1140.18,462.547 1147.27,462.547 1154.36,528.635 1161.45,528.635 1168.54,528.635 1175.63,528.635 1182.71,528.635 1189.8,528.635 1196.89,528.635 1203.98,528.635 1211.07,462.547 1218.16,528.635 1225.25,528.635 1232.34,630.513 1239.43,630.513 1246.52,722.671 1253.61,722.671 1260.7,722.671 1267.79,722.671 1274.87,722.671 1281.96,722.671 1289.05,583.672 1296.14,528.635 1303.23,313.277 1310.32,462.547 1317.41,462.547 1324.5,528.635 1331.59,528.635 1338.68,528.635 1345.77,528.635 1352.86,528.635 1359.95,528.635 1367.03,528.635 1374.12,528.635 1381.21,528.635 1388.3,528.635 1395.39,528.635 1402.48,630.513 1409.57,630.513 "/>
<polyline clip-path="url(#clip842)" style="stroke:#e8000b; stroke-linecap:round; stroke-linejoin:round; stroke-width:5; stroke-opacity:1; fill:none" points="225.667,734.261 232.757,734.261 239.846,734.261 246.935,734.261 254.024,734.261 261.114,734.261 268.203,734.261 275.292,404.545 282.381,404.545 289.47,404.545 296.56,404.545 303.649,546.985 310.738,546.985 317.827,546.985 324.917,546.985 332.006,546.985 339.095,546.985 346.184,546.985 353.274,546.985 360.363,546.985 367.452,546.985 374.541,546.985 381.631,546.985 388.72,546.985 395.809,734.261 402.898,734.261 409.988,734.261 417.077,734.261 424.166,734.261 431.255,734.261 438.344,734.261 445.434,404.545 452.523,404.545 459.612,404.545 466.701,404.545 473.791,225.311 480.88,546.985 487.969,546.985 495.058,546.985 502.148,546.985 509.237,546.985 516.326,225.311 523.415,225.311 530.505,546.985 537.594,546.985 544.683,546.985 551.772,546.985 558.861,546.985 565.951,734.261 573.04,734.261 580.129,734.261 587.218,734.261 594.308,734.261 601.397,734.261 608.486,734.261 615.575,404.545 622.665,404.545 629.754,404.545 636.843,404.545 643.932,546.985 651.022,546.985 658.111,546.985 665.2,546.985 672.289,546.985 679.379,546.985 686.468,546.985 693.557,546.985 700.646,546.985 707.735,546.985 714.825,546.985 721.914,546.985 729.003,546.985 736.092,734.261 743.182,734.261 750.271,734.261 757.36,734.261 764.449,734.261 771.539,734.261 778.628,734.261 785.717,404.545 792.806,404.545 799.896,404.545 806.985,404.545 814.074,546.985 821.163,546.985 828.252,546.985 835.342,546.985 842.431,546.985 849.52,546.985 856.609,546.985 863.699,546.985 870.788,546.985 877.877,546.985 884.966,546.985 892.056,546.985 899.145,546.985 906.234,734.261 913.323,734.261 920.413,734.261 927.502,734.261 934.591,734.261 941.68,734.261 948.77,734.261 955.859,404.545 962.948,404.545 970.037,404.545 977.126,404.545 984.216,546.985 991.305,546.985 998.394,546.985 1005.48,546.985 1012.57,546.985 1019.66,546.985 1026.75,546.985 1033.84,546.985 1040.93,546.985 1048.02,546.985 1055.11,546.985 1062.2,546.985 1069.29,546.985 1076.38,734.261 1083.47,734.261 1090.55,734.261 1097.64,734.261 1104.73,734.261 1111.82,734.261 1118.91,734.261 1126,404.545 1133.09,404.545 1140.18,404.545 1147.27,404.545 1154.36,546.985 1161.45,546.985 1168.54,546.985 1175.63,546.985 1182.71,546.985 1189.8,546.985 1196.89,546.985 1203.98,546.985 1211.07,546.985 1218.16,546.985 1225.25,546.985 1232.34,546.985 1239.43,546.985 1246.52,734.261 1253.61,734.261 1260.7,734.261 1267.79,734.261 1274.87,734.261 1281.96,734.261 1289.05,734.261 1296.14,404.545 1303.23,404.545 1310.32,404.545 1317.41,404.545 1324.5,546.985 1331.59,546.985 1338.68,546.985 1345.77,546.985 1352.86,546.985 1359.95,546.985 1367.03,546.985 1374.12,546.985 1381.21,546.985 1388.3,546.985 1395.39,546.985 1402.48,546.985 1409.57,546.985 "/>
<polyline clip-path="url(#clip842)" style="stroke:#000000; stroke-linecap:round; stroke-linejoin:round; stroke-width:6; stroke-opacity:1; fill:none" points="225.667,841.558 232.757,814.575 239.846,784.322 246.935,784.322 254.024,744.256 261.114,648.589 268.203,614.247 275.292,304.352 282.381,426.184 289.47,420.461 296.56,375.489 303.649,435.179 310.738,514.492 317.827,508.769 324.917,539.022 332.006,642.866 339.095,706.643 346.184,539.84 353.274,498.139 360.363,601.165 367.452,562.734 374.541,618.336 381.631,623.242 388.72,656.766 395.809,722.179 402.898,698.467 409.988,674.755 417.077,637.96 424.166,691.108 431.255,690.29 438.344,606.071 445.434,454.803 452.523,278.187 459.612,512.857 466.701,551.287 473.791,173.526 480.88,489.145 487.969,646.136 495.058,496.504 502.148,548.834 509.237,486.692 516.326,447.444 523.415,71.3178 530.505,229.127 537.594,230.762 544.683,289.634 551.772,290.452 558.861,559.464 565.951,674.755 573.04,749.162 580.129,646.136 587.218,680.478 594.308,682.114 601.397,728.72 608.486,597.894 615.575,361.589 622.665,531.663 629.754,485.874 636.843,559.464 643.932,655.948 651.022,574.999 658.111,440.902 665.2,494.051 672.289,519.398 679.379,523.487 686.468,397.566 693.557,311.711 700.646,234.033 707.735,449.079 714.825,498.139 721.914,664.943 729.003,656.766 736.092,702.555 743.182,783.504 750.271,752.433 757.36,703.373 764.449,740.168 771.539,675.572 778.628,538.204 785.717,398.384 792.806,513.675 799.896,583.176 806.985,523.487 814.074,516.128 821.163,585.629 828.252,485.874 835.342,570.911 842.431,487.509 849.52,503.045 856.609,552.922 863.699,502.227 870.788,614.247 877.877,387.754 884.966,551.287 892.056,588.9 899.145,709.096 906.234,723.814 913.323,710.732 920.413,787.592 927.502,744.256 934.591,673.119 941.68,700.92 948.77,504.68 955.859,385.301 962.948,197.238 970.037,620.789 977.126,265.922 984.216,593.806 991.305,346.053 998.394,455.62 1005.48,595.441 1012.57,523.487 1019.66,539.022 1026.75,435.996 1033.84,553.74 1040.93,525.94 1048.02,515.31 1055.11,549.652 1062.2,632.236 1069.29,692.743 1076.38,684.567 1083.47,781.051 1090.55,760.609 1097.64,732.809 1104.73,744.256 1111.82,738.532 1118.91,507.133 1126,509.586 1133.09,418.825 1140.18,456.438 1147.27,487.509 1154.36,377.124 1161.45,544.746 1168.54,606.071 1175.63,474.427 1182.71,621.606 1189.8,609.341 1196.89,548.834 1203.98,412.284 1211.07,575.817 1218.16,545.563 1225.25,592.988 1232.34,599.529 1239.43,661.672 1246.52,773.692 1253.61,719.726 1260.7,776.963 1267.79,754.886 1274.87,786.775 1281.96,782.686 1289.05,728.72 1296.14,632.236 1303.23,641.23 1310.32,548.834 1317.41,497.321 1324.5,432.726 1331.59,517.763 1338.68,467.068 1345.77,512.857 1352.86,651.86 1359.95,636.324 1367.03,670.666 1374.12,594.623 1381.21,550.469 1388.3,403.29 1395.39,564.37 1402.48,461.344 1409.57,655.131 "/>
<path clip-path="url(#clip840)" d="M1503.84 425.518 L1952.76 425.518 L1952.76 75.5976 L1503.84 75.5976  Z" fill="#ffffff" fill-rule="evenodd" fill-opacity="1"/>
<polyline clip-path="url(#clip840)" style="stroke:#000000; stroke-linecap:round; stroke-linejoin:round; stroke-width:4; stroke-opacity:1; fill:none" points="1503.84,425.518 1952.76,425.518 1952.76,75.5976 1503.84,75.5976 1503.84,425.518 "/>
<polyline clip-path="url(#clip840)" style="stroke:#023eff; stroke-linecap:round; stroke-linejoin:round; stroke-width:5.625; stroke-opacity:1; fill:none" points="1523.43,133.918 1640.93,133.918 "/>
<path clip-path="url(#clip840)" d="M1665.33 148.983 L1665.33 164.451 L1660.52 164.451 L1660.52 124.191 L1665.33 124.191 L1665.33 128.618 Q1666.84 126.014 1669.14 124.764 Q1671.45 123.488 1674.66 123.488 Q1679.97 123.488 1683.28 127.707 Q1686.61 131.925 1686.61 138.8 Q1686.61 145.675 1683.28 149.894 Q1679.97 154.113 1674.66 154.113 Q1671.45 154.113 1669.14 152.863 Q1666.84 151.587 1665.33 148.983 M1681.64 138.8 Q1681.64 133.514 1679.45 130.519 Q1677.29 127.498 1673.49 127.498 Q1669.68 127.498 1667.5 130.519 Q1665.33 133.514 1665.33 138.8 Q1665.33 144.087 1667.5 147.108 Q1669.68 150.102 1673.49 150.102 Q1677.29 150.102 1679.45 147.108 Q1681.64 144.087 1681.64 138.8 Z" fill="#000000" fill-rule="nonzero" fill-opacity="1" /><path clip-path="url(#clip840)" d="M1711.45 128.67 Q1710.65 128.201 1709.68 127.993 Q1708.75 127.759 1707.6 127.759 Q1703.54 127.759 1701.35 130.415 Q1699.19 133.045 1699.19 137.993 L1699.19 153.358 L1694.37 153.358 L1694.37 124.191 L1699.19 124.191 L1699.19 128.722 Q1700.7 126.066 1703.12 124.79 Q1705.54 123.488 1709.01 123.488 Q1709.5 123.488 1710.1 123.566 Q1710.7 123.618 1711.43 123.748 L1711.45 128.67 Z" fill="#000000" fill-rule="nonzero" fill-opacity="1" /><path clip-path="url(#clip840)" d="M1740.26 137.576 L1740.26 139.92 L1718.22 139.92 Q1718.54 144.868 1721.19 147.472 Q1723.88 150.05 1728.64 150.05 Q1731.4 150.05 1733.98 149.373 Q1736.58 148.696 1739.14 147.342 L1739.14 151.873 Q1736.56 152.967 1733.85 153.54 Q1731.14 154.113 1728.35 154.113 Q1721.38 154.113 1717.29 150.05 Q1713.22 145.988 1713.22 139.061 Q1713.22 131.899 1717.08 127.707 Q1720.96 123.488 1727.52 123.488 Q1733.41 123.488 1736.82 127.29 Q1740.26 131.066 1740.26 137.576 M1735.46 136.17 Q1735.41 132.238 1733.25 129.894 Q1731.12 127.55 1727.57 127.55 Q1723.56 127.55 1721.14 129.816 Q1718.75 132.082 1718.38 136.196 L1735.46 136.17 Z" fill="#000000" fill-rule="nonzero" fill-opacity="1" /><path clip-path="url(#clip840)" d="M1767.31 128.618 L1767.31 112.837 L1772.1 112.837 L1772.1 153.358 L1767.31 153.358 L1767.31 148.983 Q1765.8 151.587 1763.48 152.863 Q1761.19 154.113 1757.96 154.113 Q1752.68 154.113 1749.34 149.894 Q1746.04 145.675 1746.04 138.8 Q1746.04 131.925 1749.34 127.707 Q1752.68 123.488 1757.96 123.488 Q1761.19 123.488 1763.48 124.764 Q1765.8 126.014 1767.31 128.618 M1750.98 138.8 Q1750.98 144.087 1753.15 147.108 Q1755.33 150.102 1759.14 150.102 Q1762.94 150.102 1765.13 147.108 Q1767.31 144.087 1767.31 138.8 Q1767.31 133.514 1765.13 130.519 Q1762.94 127.498 1759.14 127.498 Q1755.33 127.498 1753.15 130.519 Q1750.98 133.514 1750.98 138.8 Z" fill="#000000" fill-rule="nonzero" fill-opacity="1" /><path clip-path="url(#clip840)" d="M1781.97 124.191 L1786.77 124.191 L1786.77 153.358 L1781.97 153.358 L1781.97 124.191 M1781.97 112.837 L1786.77 112.837 L1786.77 118.905 L1781.97 118.905 L1781.97 112.837 Z" fill="#000000" fill-rule="nonzero" fill-opacity="1" /><path clip-path="url(#clip840)" d="M1817.78 125.311 L1817.78 129.79 Q1815.75 128.67 1813.69 128.123 Q1811.66 127.55 1809.58 127.55 Q1804.92 127.55 1802.34 130.519 Q1799.76 133.462 1799.76 138.8 Q1799.76 144.139 1802.34 147.108 Q1804.92 150.05 1809.58 150.05 Q1811.66 150.05 1813.69 149.503 Q1815.75 148.93 1817.78 147.811 L1817.78 152.238 Q1815.78 153.175 1813.61 153.644 Q1811.48 154.113 1809.06 154.113 Q1802.47 154.113 1798.59 149.972 Q1794.71 145.832 1794.71 138.8 Q1794.71 131.665 1798.61 127.576 Q1802.55 123.488 1809.37 123.488 Q1811.58 123.488 1813.69 123.957 Q1815.8 124.399 1817.78 125.311 Z" fill="#000000" fill-rule="nonzero" fill-opacity="1" /><path clip-path="url(#clip840)" d="M1830.85 115.91 L1830.85 124.191 L1840.72 124.191 L1840.72 127.915 L1830.85 127.915 L1830.85 143.748 Q1830.85 147.316 1831.82 148.332 Q1832.81 149.347 1835.8 149.347 L1840.72 149.347 L1840.72 153.358 L1835.8 153.358 Q1830.26 153.358 1828.15 151.3 Q1826.04 149.217 1826.04 143.748 L1826.04 127.915 L1822.52 127.915 L1822.52 124.191 L1826.04 124.191 L1826.04 115.91 L1830.85 115.91 Z" fill="#000000" fill-rule="nonzero" fill-opacity="1" /><path clip-path="url(#clip840)" d="M1869.19 162.212 L1869.19 165.936 L1841.48 165.936 L1841.48 162.212 L1869.19 162.212 Z" fill="#000000" fill-rule="nonzero" fill-opacity="1" /><path clip-path="url(#clip840)" d="M1874.42 114.478 L1895.07 114.478 L1895.07 118.905 L1879.24 118.905 L1879.24 128.436 Q1880.39 128.045 1881.53 127.863 Q1882.68 127.655 1883.82 127.655 Q1890.33 127.655 1894.14 131.222 Q1897.94 134.79 1897.94 140.884 Q1897.94 147.16 1894.03 150.649 Q1890.12 154.113 1883.02 154.113 Q1880.57 154.113 1878.02 153.696 Q1875.49 153.279 1872.78 152.446 L1872.78 147.16 Q1875.12 148.436 1877.62 149.061 Q1880.12 149.686 1882.91 149.686 Q1887.42 149.686 1890.05 147.316 Q1892.68 144.946 1892.68 140.884 Q1892.68 136.821 1890.05 134.451 Q1887.42 132.082 1882.91 132.082 Q1880.8 132.082 1878.69 132.55 Q1876.61 133.019 1874.42 134.009 L1874.42 114.478 Z" fill="#000000" fill-rule="nonzero" fill-opacity="1" /><path clip-path="url(#clip840)" d="M1912.83 148.93 L1931.19 148.93 L1931.19 153.358 L1906.5 153.358 L1906.5 148.93 Q1909.5 145.832 1914.66 140.623 Q1919.84 135.389 1921.17 133.878 Q1923.69 131.04 1924.68 129.087 Q1925.7 127.108 1925.7 125.207 Q1925.7 122.108 1923.51 120.155 Q1921.35 118.201 1917.86 118.201 Q1915.39 118.201 1912.62 119.061 Q1909.89 119.92 1906.77 121.665 L1906.77 116.353 Q1909.94 115.077 1912.7 114.425 Q1915.46 113.774 1917.75 113.774 Q1923.8 113.774 1927.39 116.795 Q1930.98 119.816 1930.98 124.868 Q1930.98 127.264 1930.07 129.425 Q1929.19 131.561 1926.82 134.477 Q1926.17 135.233 1922.68 138.852 Q1919.19 142.446 1912.83 148.93 Z" fill="#000000" fill-rule="nonzero" fill-opacity="1" /><polyline clip-path="url(#clip840)" style="stroke:#ff7c00; stroke-linecap:round; stroke-linejoin:round; stroke-width:5.625; stroke-opacity:1; fill:none" points="1523.43,192.238 1640.93,192.238 "/>
<path clip-path="url(#clip840)" d="M1665.33 207.303 L1665.33 222.771 L1660.52 222.771 L1660.52 182.511 L1665.33 182.511 L1665.33 186.938 Q1666.84 184.334 1669.14 183.084 Q1671.45 181.808 1674.66 181.808 Q1679.97 181.808 1683.28 186.027 Q1686.61 190.245 1686.61 197.12 Q1686.61 203.995 1683.28 208.214 Q1679.97 212.433 1674.66 212.433 Q1671.45 212.433 1669.14 211.183 Q1666.84 209.907 1665.33 207.303 M1681.64 197.12 Q1681.64 191.834 1679.45 188.839 Q1677.29 185.818 1673.49 185.818 Q1669.68 185.818 1667.5 188.839 Q1665.33 191.834 1665.33 197.12 Q1665.33 202.407 1667.5 205.428 Q1669.68 208.422 1673.49 208.422 Q1677.29 208.422 1679.45 205.428 Q1681.64 202.407 1681.64 197.12 Z" fill="#000000" fill-rule="nonzero" fill-opacity="1" /><path clip-path="url(#clip840)" d="M1711.45 186.99 Q1710.65 186.521 1709.68 186.313 Q1708.75 186.079 1707.6 186.079 Q1703.54 186.079 1701.35 188.735 Q1699.19 191.365 1699.19 196.313 L1699.19 211.678 L1694.37 211.678 L1694.37 182.511 L1699.19 182.511 L1699.19 187.042 Q1700.7 184.386 1703.12 183.11 Q1705.54 181.808 1709.01 181.808 Q1709.5 181.808 1710.1 181.886 Q1710.7 181.938 1711.43 182.068 L1711.45 186.99 Z" fill="#000000" fill-rule="nonzero" fill-opacity="1" /><path clip-path="url(#clip840)" d="M1740.26 195.896 L1740.26 198.24 L1718.22 198.24 Q1718.54 203.188 1721.19 205.792 Q1723.88 208.37 1728.64 208.37 Q1731.4 208.37 1733.98 207.693 Q1736.58 207.016 1739.14 205.662 L1739.14 210.193 Q1736.56 211.287 1733.85 211.86 Q1731.14 212.433 1728.35 212.433 Q1721.38 212.433 1717.29 208.37 Q1713.22 204.308 1713.22 197.381 Q1713.22 190.219 1717.08 186.027 Q1720.96 181.808 1727.52 181.808 Q1733.41 181.808 1736.82 185.61 Q1740.26 189.386 1740.26 195.896 M1735.46 194.49 Q1735.41 190.558 1733.25 188.214 Q1731.12 185.87 1727.57 185.87 Q1723.56 185.87 1721.14 188.136 Q1718.75 190.402 1718.38 194.516 L1735.46 194.49 Z" fill="#000000" fill-rule="nonzero" fill-opacity="1" /><path clip-path="url(#clip840)" d="M1767.31 186.938 L1767.31 171.157 L1772.1 171.157 L1772.1 211.678 L1767.31 211.678 L1767.31 207.303 Q1765.8 209.907 1763.48 211.183 Q1761.19 212.433 1757.96 212.433 Q1752.68 212.433 1749.34 208.214 Q1746.04 203.995 1746.04 197.12 Q1746.04 190.245 1749.34 186.027 Q1752.68 181.808 1757.96 181.808 Q1761.19 181.808 1763.48 183.084 Q1765.8 184.334 1767.31 186.938 M1750.98 197.12 Q1750.98 202.407 1753.15 205.428 Q1755.33 208.422 1759.14 208.422 Q1762.94 208.422 1765.13 205.428 Q1767.31 202.407 1767.31 197.12 Q1767.31 191.834 1765.13 188.839 Q1762.94 185.818 1759.14 185.818 Q1755.33 185.818 1753.15 188.839 Q1750.98 191.834 1750.98 197.12 Z" fill="#000000" fill-rule="nonzero" fill-opacity="1" /><path clip-path="url(#clip840)" d="M1781.97 182.511 L1786.77 182.511 L1786.77 211.678 L1781.97 211.678 L1781.97 182.511 M1781.97 171.157 L1786.77 171.157 L1786.77 177.225 L1781.97 177.225 L1781.97 171.157 Z" fill="#000000" fill-rule="nonzero" fill-opacity="1" /><path clip-path="url(#clip840)" d="M1817.78 183.631 L1817.78 188.11 Q1815.75 186.99 1813.69 186.443 Q1811.66 185.87 1809.58 185.87 Q1804.92 185.87 1802.34 188.839 Q1799.76 191.782 1799.76 197.12 Q1799.76 202.459 1802.34 205.428 Q1804.92 208.37 1809.58 208.37 Q1811.66 208.37 1813.69 207.823 Q1815.75 207.25 1817.78 206.131 L1817.78 210.558 Q1815.78 211.495 1813.61 211.964 Q1811.48 212.433 1809.06 212.433 Q1802.47 212.433 1798.59 208.292 Q1794.71 204.152 1794.71 197.12 Q1794.71 189.985 1798.61 185.896 Q1802.55 181.808 1809.37 181.808 Q1811.58 181.808 1813.69 182.277 Q1815.8 182.719 1817.78 183.631 Z" fill="#000000" fill-rule="nonzero" fill-opacity="1" /><path clip-path="url(#clip840)" d="M1830.85 174.23 L1830.85 182.511 L1840.72 182.511 L1840.72 186.235 L1830.85 186.235 L1830.85 202.068 Q1830.85 205.636 1831.82 206.652 Q1832.81 207.667 1835.8 207.667 L1840.72 207.667 L1840.72 211.678 L1835.8 211.678 Q1830.26 211.678 1828.15 209.62 Q1826.04 207.537 1826.04 202.068 L1826.04 186.235 L1822.52 186.235 L1822.52 182.511 L1826.04 182.511 L1826.04 174.23 L1830.85 174.23 Z" fill="#000000" fill-rule="nonzero" fill-opacity="1" /><path clip-path="url(#clip840)" d="M1869.19 220.532 L1869.19 224.256 L1841.48 224.256 L1841.48 220.532 L1869.19 220.532 Z" fill="#000000" fill-rule="nonzero" fill-opacity="1" /><path clip-path="url(#clip840)" d="M1878.9 207.25 L1897.26 207.25 L1897.26 211.678 L1872.57 211.678 L1872.57 207.25 Q1875.57 204.152 1880.72 198.943 Q1885.91 193.709 1887.23 192.198 Q1889.76 189.36 1890.75 187.407 Q1891.77 185.428 1891.77 183.527 Q1891.77 180.428 1889.58 178.475 Q1887.42 176.521 1883.93 176.521 Q1881.45 176.521 1878.69 177.381 Q1875.96 178.24 1872.83 179.985 L1872.83 174.673 Q1876.01 173.397 1878.77 172.745 Q1881.53 172.094 1883.82 172.094 Q1889.86 172.094 1893.46 175.115 Q1897.05 178.136 1897.05 183.188 Q1897.05 185.584 1896.14 187.745 Q1895.25 189.881 1892.89 192.797 Q1892.23 193.553 1888.74 197.172 Q1885.25 200.766 1878.9 207.25 Z" fill="#000000" fill-rule="nonzero" fill-opacity="1" /><path clip-path="url(#clip840)" d="M1920.2 190.141 Q1916.66 190.141 1914.58 192.563 Q1912.52 194.985 1912.52 199.204 Q1912.52 203.396 1914.58 205.844 Q1916.66 208.266 1920.2 208.266 Q1923.74 208.266 1925.8 205.844 Q1927.88 203.396 1927.88 199.204 Q1927.88 194.985 1925.8 192.563 Q1923.74 190.141 1920.2 190.141 M1930.65 173.657 L1930.65 178.449 Q1928.67 177.511 1926.63 177.016 Q1924.63 176.521 1922.65 176.521 Q1917.44 176.521 1914.68 180.037 Q1911.95 183.553 1911.56 190.662 Q1913.09 188.396 1915.41 187.199 Q1917.73 185.975 1920.52 185.975 Q1926.37 185.975 1929.76 189.542 Q1933.17 193.084 1933.17 199.204 Q1933.17 205.193 1929.63 208.813 Q1926.09 212.433 1920.2 212.433 Q1913.46 212.433 1909.89 207.277 Q1906.32 202.094 1906.32 192.277 Q1906.32 183.058 1910.7 177.589 Q1915.07 172.094 1922.44 172.094 Q1924.42 172.094 1926.43 172.485 Q1928.46 172.876 1930.65 173.657 Z" fill="#000000" fill-rule="nonzero" fill-opacity="1" /><polyline clip-path="url(#clip840)" style="stroke:#1ac938; stroke-linecap:round; stroke-linejoin:round; stroke-width:5.625; stroke-opacity:1; fill:none" points="1523.43,250.558 1640.93,250.558 "/>
<path clip-path="url(#clip840)" d="M1665.33 265.623 L1665.33 281.091 L1660.52 281.091 L1660.52 240.831 L1665.33 240.831 L1665.33 245.258 Q1666.84 242.654 1669.14 241.404 Q1671.45 240.128 1674.66 240.128 Q1679.97 240.128 1683.28 244.347 Q1686.61 248.565 1686.61 255.44 Q1686.61 262.315 1683.28 266.534 Q1679.97 270.753 1674.66 270.753 Q1671.45 270.753 1669.14 269.503 Q1666.84 268.227 1665.33 265.623 M1681.64 255.44 Q1681.64 250.154 1679.45 247.159 Q1677.29 244.138 1673.49 244.138 Q1669.68 244.138 1667.5 247.159 Q1665.33 250.154 1665.33 255.44 Q1665.33 260.727 1667.5 263.748 Q1669.68 266.742 1673.49 266.742 Q1677.29 266.742 1679.45 263.748 Q1681.64 260.727 1681.64 255.44 Z" fill="#000000" fill-rule="nonzero" fill-opacity="1" /><path clip-path="url(#clip840)" d="M1711.45 245.31 Q1710.65 244.841 1709.68 244.633 Q1708.75 244.399 1707.6 244.399 Q1703.54 244.399 1701.35 247.055 Q1699.19 249.685 1699.19 254.633 L1699.19 269.998 L1694.37 269.998 L1694.37 240.831 L1699.19 240.831 L1699.19 245.362 Q1700.7 242.706 1703.12 241.43 Q1705.54 240.128 1709.01 240.128 Q1709.5 240.128 1710.1 240.206 Q1710.7 240.258 1711.43 240.388 L1711.45 245.31 Z" fill="#000000" fill-rule="nonzero" fill-opacity="1" /><path clip-path="url(#clip840)" d="M1740.26 254.216 L1740.26 256.56 L1718.22 256.56 Q1718.54 261.508 1721.19 264.112 Q1723.88 266.69 1728.64 266.69 Q1731.4 266.69 1733.98 266.013 Q1736.58 265.336 1739.14 263.982 L1739.14 268.513 Q1736.56 269.607 1733.85 270.18 Q1731.14 270.753 1728.35 270.753 Q1721.38 270.753 1717.29 266.69 Q1713.22 262.628 1713.22 255.701 Q1713.22 248.539 1717.08 244.347 Q1720.96 240.128 1727.52 240.128 Q1733.41 240.128 1736.82 243.93 Q1740.26 247.706 1740.26 254.216 M1735.46 252.81 Q1735.41 248.878 1733.25 246.534 Q1731.12 244.19 1727.57 244.19 Q1723.56 244.19 1721.14 246.456 Q1718.75 248.722 1718.38 252.836 L1735.46 252.81 Z" fill="#000000" fill-rule="nonzero" fill-opacity="1" /><path clip-path="url(#clip840)" d="M1767.31 245.258 L1767.31 229.477 L1772.1 229.477 L1772.1 269.998 L1767.31 269.998 L1767.31 265.623 Q1765.8 268.227 1763.48 269.503 Q1761.19 270.753 1757.96 270.753 Q1752.68 270.753 1749.34 266.534 Q1746.04 262.315 1746.04 255.44 Q1746.04 248.565 1749.34 244.347 Q1752.68 240.128 1757.96 240.128 Q1761.19 240.128 1763.48 241.404 Q1765.8 242.654 1767.31 245.258 M1750.98 255.44 Q1750.98 260.727 1753.15 263.748 Q1755.33 266.742 1759.14 266.742 Q1762.94 266.742 1765.13 263.748 Q1767.31 260.727 1767.31 255.44 Q1767.31 250.154 1765.13 247.159 Q1762.94 244.138 1759.14 244.138 Q1755.33 244.138 1753.15 247.159 Q1750.98 250.154 1750.98 255.44 Z" fill="#000000" fill-rule="nonzero" fill-opacity="1" /><path clip-path="url(#clip840)" d="M1781.97 240.831 L1786.77 240.831 L1786.77 269.998 L1781.97 269.998 L1781.97 240.831 M1781.97 229.477 L1786.77 229.477 L1786.77 235.545 L1781.97 235.545 L1781.97 229.477 Z" fill="#000000" fill-rule="nonzero" fill-opacity="1" /><path clip-path="url(#clip840)" d="M1817.78 241.951 L1817.78 246.43 Q1815.75 245.31 1813.69 244.763 Q1811.66 244.19 1809.58 244.19 Q1804.92 244.19 1802.34 247.159 Q1799.76 250.102 1799.76 255.44 Q1799.76 260.779 1802.34 263.748 Q1804.92 266.69 1809.58 266.69 Q1811.66 266.69 1813.69 266.143 Q1815.75 265.57 1817.78 264.451 L1817.78 268.878 Q1815.78 269.815 1813.61 270.284 Q1811.48 270.753 1809.06 270.753 Q1802.47 270.753 1798.59 266.612 Q1794.71 262.472 1794.71 255.44 Q1794.71 248.305 1798.61 244.216 Q1802.55 240.128 1809.37 240.128 Q1811.58 240.128 1813.69 240.597 Q1815.8 241.039 1817.78 241.951 Z" fill="#000000" fill-rule="nonzero" fill-opacity="1" /><path clip-path="url(#clip840)" d="M1830.85 232.55 L1830.85 240.831 L1840.72 240.831 L1840.72 244.555 L1830.85 244.555 L1830.85 260.388 Q1830.85 263.956 1831.82 264.972 Q1832.81 265.987 1835.8 265.987 L1840.72 265.987 L1840.72 269.998 L1835.8 269.998 Q1830.26 269.998 1828.15 267.94 Q1826.04 265.857 1826.04 260.388 L1826.04 244.555 L1822.52 244.555 L1822.52 240.831 L1826.04 240.831 L1826.04 232.55 L1830.85 232.55 Z" fill="#000000" fill-rule="nonzero" fill-opacity="1" /><path clip-path="url(#clip840)" d="M1869.19 278.852 L1869.19 282.576 L1841.48 282.576 L1841.48 278.852 L1869.19 278.852 Z" fill="#000000" fill-rule="nonzero" fill-opacity="1" /><path clip-path="url(#clip840)" d="M1888.82 235.701 L1875.54 256.456 L1888.82 256.456 L1888.82 235.701 M1887.44 231.118 L1894.06 231.118 L1894.06 256.456 L1899.6 256.456 L1899.6 260.831 L1894.06 260.831 L1894.06 269.998 L1888.82 269.998 L1888.82 260.831 L1871.27 260.831 L1871.27 255.753 L1887.44 231.118 Z" fill="#000000" fill-rule="nonzero" fill-opacity="1" /><polyline clip-path="url(#clip840)" style="stroke:#e8000b; stroke-linecap:round; stroke-linejoin:round; stroke-width:5.625; stroke-opacity:1; fill:none" points="1523.43,308.878 1640.93,308.878 "/>
<path clip-path="url(#clip840)" d="M1665.33 323.943 L1665.33 339.411 L1660.52 339.411 L1660.52 299.151 L1665.33 299.151 L1665.33 303.578 Q1666.84 300.974 1669.14 299.724 Q1671.45 298.448 1674.66 298.448 Q1679.97 298.448 1683.28 302.667 Q1686.61 306.885 1686.61 313.76 Q1686.61 320.635 1683.28 324.854 Q1679.97 329.073 1674.66 329.073 Q1671.45 329.073 1669.14 327.823 Q1666.84 326.547 1665.33 323.943 M1681.64 313.76 Q1681.64 308.474 1679.45 305.479 Q1677.29 302.458 1673.49 302.458 Q1669.68 302.458 1667.5 305.479 Q1665.33 308.474 1665.33 313.76 Q1665.33 319.047 1667.5 322.068 Q1669.68 325.062 1673.49 325.062 Q1677.29 325.062 1679.45 322.068 Q1681.64 319.047 1681.64 313.76 Z" fill="#000000" fill-rule="nonzero" fill-opacity="1" /><path clip-path="url(#clip840)" d="M1711.45 303.63 Q1710.65 303.161 1709.68 302.953 Q1708.75 302.719 1707.6 302.719 Q1703.54 302.719 1701.35 305.375 Q1699.19 308.005 1699.19 312.953 L1699.19 328.318 L1694.37 328.318 L1694.37 299.151 L1699.19 299.151 L1699.19 303.682 Q1700.7 301.026 1703.12 299.75 Q1705.54 298.448 1709.01 298.448 Q1709.5 298.448 1710.1 298.526 Q1710.7 298.578 1711.43 298.708 L1711.45 303.63 Z" fill="#000000" fill-rule="nonzero" fill-opacity="1" /><path clip-path="url(#clip840)" d="M1740.26 312.536 L1740.26 314.88 L1718.22 314.88 Q1718.54 319.828 1721.19 322.432 Q1723.88 325.01 1728.64 325.01 Q1731.4 325.01 1733.98 324.333 Q1736.58 323.656 1739.14 322.302 L1739.14 326.833 Q1736.56 327.927 1733.85 328.5 Q1731.14 329.073 1728.35 329.073 Q1721.38 329.073 1717.29 325.01 Q1713.22 320.948 1713.22 314.021 Q1713.22 306.859 1717.08 302.667 Q1720.96 298.448 1727.52 298.448 Q1733.41 298.448 1736.82 302.25 Q1740.26 306.026 1740.26 312.536 M1735.46 311.13 Q1735.41 307.198 1733.25 304.854 Q1731.12 302.51 1727.57 302.51 Q1723.56 302.51 1721.14 304.776 Q1718.75 307.042 1718.38 311.156 L1735.46 311.13 Z" fill="#000000" fill-rule="nonzero" fill-opacity="1" /><path clip-path="url(#clip840)" d="M1767.31 303.578 L1767.31 287.797 L1772.1 287.797 L1772.1 328.318 L1767.31 328.318 L1767.31 323.943 Q1765.8 326.547 1763.48 327.823 Q1761.19 329.073 1757.96 329.073 Q1752.68 329.073 1749.34 324.854 Q1746.04 320.635 1746.04 313.76 Q1746.04 306.885 1749.34 302.667 Q1752.68 298.448 1757.96 298.448 Q1761.19 298.448 1763.48 299.724 Q1765.8 300.974 1767.31 303.578 M1750.98 313.76 Q1750.98 319.047 1753.15 322.068 Q1755.33 325.062 1759.14 325.062 Q1762.94 325.062 1765.13 322.068 Q1767.31 319.047 1767.31 313.76 Q1767.31 308.474 1765.13 305.479 Q1762.94 302.458 1759.14 302.458 Q1755.33 302.458 1753.15 305.479 Q1750.98 308.474 1750.98 313.76 Z" fill="#000000" fill-rule="nonzero" fill-opacity="1" /><path clip-path="url(#clip840)" d="M1781.97 299.151 L1786.77 299.151 L1786.77 328.318 L1781.97 328.318 L1781.97 299.151 M1781.97 287.797 L1786.77 287.797 L1786.77 293.865 L1781.97 293.865 L1781.97 287.797 Z" fill="#000000" fill-rule="nonzero" fill-opacity="1" /><path clip-path="url(#clip840)" d="M1817.78 300.271 L1817.78 304.75 Q1815.75 303.63 1813.69 303.083 Q1811.66 302.51 1809.58 302.51 Q1804.92 302.51 1802.34 305.479 Q1799.76 308.422 1799.76 313.76 Q1799.76 319.099 1802.34 322.068 Q1804.92 325.01 1809.58 325.01 Q1811.66 325.01 1813.69 324.463 Q1815.75 323.89 1817.78 322.771 L1817.78 327.198 Q1815.78 328.135 1813.61 328.604 Q1811.48 329.073 1809.06 329.073 Q1802.47 329.073 1798.59 324.932 Q1794.71 320.792 1794.71 313.76 Q1794.71 306.625 1798.61 302.536 Q1802.55 298.448 1809.37 298.448 Q1811.58 298.448 1813.69 298.917 Q1815.8 299.359 1817.78 300.271 Z" fill="#000000" fill-rule="nonzero" fill-opacity="1" /><path clip-path="url(#clip840)" d="M1830.85 290.87 L1830.85 299.151 L1840.72 299.151 L1840.72 302.875 L1830.85 302.875 L1830.85 318.708 Q1830.85 322.276 1831.82 323.292 Q1832.81 324.307 1835.8 324.307 L1840.72 324.307 L1840.72 328.318 L1835.8 328.318 Q1830.26 328.318 1828.15 326.26 Q1826.04 324.177 1826.04 318.708 L1826.04 302.875 L1822.52 302.875 L1822.52 299.151 L1826.04 299.151 L1826.04 290.87 L1830.85 290.87 Z" fill="#000000" fill-rule="nonzero" fill-opacity="1" /><path clip-path="url(#clip840)" d="M1869.19 337.172 L1869.19 340.896 L1841.48 340.896 L1841.48 337.172 L1869.19 337.172 Z" fill="#000000" fill-rule="nonzero" fill-opacity="1" /><path clip-path="url(#clip840)" d="M1875.28 323.89 L1883.87 323.89 L1883.87 294.229 L1874.53 296.104 L1874.53 291.313 L1883.82 289.438 L1889.08 289.438 L1889.08 323.89 L1897.68 323.89 L1897.68 328.318 L1875.28 328.318 L1875.28 323.89 Z" fill="#000000" fill-rule="nonzero" fill-opacity="1" /><polyline clip-path="url(#clip840)" style="stroke:#000000; stroke-linecap:round; stroke-linejoin:round; stroke-width:6.75; stroke-opacity:1; fill:none" points="1523.43,367.198 1640.93,367.198 "/>
<path clip-path="url(#clip840)" d="M1675.59 371.976 Q1669.79 371.976 1667.55 373.304 Q1665.31 374.632 1665.31 377.836 Q1665.31 380.388 1666.97 381.898 Q1668.67 383.382 1671.56 383.382 Q1675.54 383.382 1677.94 380.57 Q1680.36 377.731 1680.36 373.044 L1680.36 371.976 L1675.59 371.976 M1685.15 369.997 L1685.15 386.638 L1680.36 386.638 L1680.36 382.21 Q1678.72 384.867 1676.27 386.143 Q1673.82 387.393 1670.28 387.393 Q1665.8 387.393 1663.15 384.893 Q1660.52 382.367 1660.52 378.148 Q1660.52 373.226 1663.8 370.726 Q1667.11 368.226 1673.64 368.226 L1680.36 368.226 L1680.36 367.757 Q1680.36 364.45 1678.17 362.653 Q1676.01 360.83 1672.08 360.83 Q1669.58 360.83 1667.21 361.429 Q1664.84 362.028 1662.65 363.226 L1662.65 358.799 Q1665.28 357.784 1667.76 357.289 Q1670.23 356.768 1672.57 356.768 Q1678.9 356.768 1682.03 360.049 Q1685.15 363.33 1685.15 369.997 Z" fill="#000000" fill-rule="nonzero" fill-opacity="1" /><path clip-path="url(#clip840)" d="M1716.01 358.591 L1716.01 363.07 Q1713.98 361.95 1711.92 361.403 Q1709.89 360.83 1707.81 360.83 Q1703.15 360.83 1700.57 363.799 Q1697.99 366.742 1697.99 372.08 Q1697.99 377.419 1700.57 380.388 Q1703.15 383.33 1707.81 383.33 Q1709.89 383.33 1711.92 382.783 Q1713.98 382.21 1716.01 381.091 L1716.01 385.518 Q1714.01 386.455 1711.84 386.924 Q1709.71 387.393 1707.29 387.393 Q1700.7 387.393 1696.82 383.252 Q1692.94 379.112 1692.94 372.08 Q1692.94 364.945 1696.84 360.856 Q1700.78 356.768 1707.6 356.768 Q1709.81 356.768 1711.92 357.237 Q1714.03 357.679 1716.01 358.591 Z" fill="#000000" fill-rule="nonzero" fill-opacity="1" /><path clip-path="url(#clip840)" d="M1729.08 349.19 L1729.08 357.471 L1738.95 357.471 L1738.95 361.195 L1729.08 361.195 L1729.08 377.028 Q1729.08 380.596 1730.05 381.612 Q1731.04 382.627 1734.03 382.627 L1738.95 382.627 L1738.95 386.638 L1734.03 386.638 Q1728.48 386.638 1726.38 384.58 Q1724.27 382.497 1724.27 377.028 L1724.27 361.195 L1720.75 361.195 L1720.75 357.471 L1724.27 357.471 L1724.27 349.19 L1729.08 349.19 Z" fill="#000000" fill-rule="nonzero" fill-opacity="1" /><path clip-path="url(#clip840)" d="M1744.76 375.127 L1744.76 357.471 L1749.55 357.471 L1749.55 374.945 Q1749.55 379.086 1751.17 381.169 Q1752.78 383.226 1756.01 383.226 Q1759.89 383.226 1762.13 380.752 Q1764.4 378.278 1764.4 374.007 L1764.4 357.471 L1769.19 357.471 L1769.19 386.638 L1764.4 386.638 L1764.4 382.158 Q1762.65 384.815 1760.33 386.117 Q1758.04 387.393 1755 387.393 Q1749.97 387.393 1747.37 384.268 Q1744.76 381.143 1744.76 375.127 M1756.82 356.768 L1756.82 356.768 Z" fill="#000000" fill-rule="nonzero" fill-opacity="1" /><path clip-path="url(#clip840)" d="M1792.31 371.976 Q1786.51 371.976 1784.27 373.304 Q1782.03 374.632 1782.03 377.836 Q1782.03 380.388 1783.69 381.898 Q1785.39 383.382 1788.28 383.382 Q1792.26 383.382 1794.66 380.57 Q1797.08 377.731 1797.08 373.044 L1797.08 371.976 L1792.31 371.976 M1801.87 369.997 L1801.87 386.638 L1797.08 386.638 L1797.08 382.21 Q1795.44 384.867 1792.99 386.143 Q1790.54 387.393 1787 387.393 Q1782.52 387.393 1779.86 384.893 Q1777.23 382.367 1777.23 378.148 Q1777.23 373.226 1780.52 370.726 Q1783.82 368.226 1790.36 368.226 L1797.08 368.226 L1797.08 367.757 Q1797.08 364.45 1794.89 362.653 Q1792.73 360.83 1788.8 360.83 Q1786.3 360.83 1783.93 361.429 Q1781.56 362.028 1779.37 363.226 L1779.37 358.799 Q1782 357.784 1784.47 357.289 Q1786.95 356.768 1789.29 356.768 Q1795.62 356.768 1798.75 360.049 Q1801.87 363.33 1801.87 369.997 Z" fill="#000000" fill-rule="nonzero" fill-opacity="1" /><path clip-path="url(#clip840)" d="M1811.74 346.117 L1816.53 346.117 L1816.53 386.638 L1811.74 386.638 L1811.74 346.117 Z" fill="#000000" fill-rule="nonzero" fill-opacity="1" /></svg>
