<?xml version="1.0" encoding="UTF-8" standalone="no"?>
<!DOCTYPE svg PUBLIC "-//W3C//DTD SVG 1.1//EN"
 "http://www.w3.org/Graphics/SVG/1.1/DTD/svg11.dtd">
<!-- Generated by graphviz version 2.50.0 (20211204.2007)
 -->
<!-- Pages: 1 -->
<svg width="1081pt" height="742pt"
 viewBox="0.00 0.00 1081.00 742.00" xmlns="http://www.w3.org/2000/svg" xmlns:xlink="http://www.w3.org/1999/xlink">
<g id="graph0" class="graph" transform="scale(1 1) rotate(0) translate(4 738)">
<polygon fill="white" stroke="transparent" points="-4,4 -4,-738 1077,-738 1077,4 -4,4"/>
<!-- 1 -->
<g id="node1" class="node">
<title>1</title>
<text text-anchor="start" x="386" y="-715.8" font-family="Arial" font-weight="bold" font-size="14.00"> </text>
<text text-anchor="start" x="320" y="-671.3" font-family="Arial" font-size="14.00"> &#160;&#160;</text>
<path fill="#ebebeb" stroke="transparent" d="M346,-643C346,-643 430,-643 430,-643 436,-643 442,-649 442,-655 442,-655 442,-695 442,-695 442,-701 436,-707 430,-707 430,-707 346,-707 346,-707 340,-707 334,-701 334,-695 334,-695 334,-655 334,-655 334,-649 340,-643 346,-643"/>
<text text-anchor="start" x="335" y="-704.4" font-family="Arial" font-size="2.00"> </text>
<text text-anchor="start" x="335" y="-698.4" font-family="Arial" font-size="7.00"> &#160;1</text>
<text text-anchor="start" x="349" y="-681.8" font-family="Arial" font-weight="bold" font-size="14.00">Mean: 31.33</text>
<text text-anchor="start" x="364.5" y="-664.8" font-family="Arial" font-weight="bold" font-size="14.00">n = 672</text>
<text text-anchor="start" x="386.5" y="-646.8" font-family="Arial" font-size="9.00"> </text>
<path fill="none" stroke="#333333" d="M346,-643C346,-643 430,-643 430,-643 436,-643 442,-649 442,-655 442,-655 442,-695 442,-695 442,-701 436,-707 430,-707 430,-707 346,-707 346,-707 340,-707 334,-701 334,-695 334,-695 334,-655 334,-655 334,-649 340,-643 346,-643"/>
<text text-anchor="start" x="444" y="-671.3" font-family="Arial" font-size="14.00"> &#160;&#160;</text>
<text text-anchor="start" x="335" y="-628.8" font-family="Arial" font-weight="bold" font-size="14.00">prev_168_inflow</text>
</g>
<!-- 2 -->
<g id="node2" class="node">
<title>2</title>
<text text-anchor="start" x="209" y="-561.8" font-family="Arial" font-weight="bold" font-size="14.00"> &lt; 34.08</text>
<path fill="#ebebeb" stroke="transparent" d="M192,-489C192,-489 276,-489 276,-489 282,-489 288,-495 288,-501 288,-501 288,-541 288,-541 288,-547 282,-553 276,-553 276,-553 192,-553 192,-553 186,-553 180,-547 180,-541 180,-541 180,-501 180,-501 180,-495 186,-489 192,-489"/>
<text text-anchor="start" x="181" y="-550.4" font-family="Arial" font-size="2.00"> </text>
<text text-anchor="start" x="181" y="-544.4" font-family="Arial" font-size="7.00"> &#160;2</text>
<text text-anchor="start" x="195" y="-527.8" font-family="Arial" font-weight="bold" font-size="14.00">Mean: 26.65</text>
<text text-anchor="start" x="210.5" y="-510.8" font-family="Arial" font-weight="bold" font-size="14.00">n = 381</text>
<text text-anchor="start" x="232.5" y="-492.8" font-family="Arial" font-size="9.00"> </text>
<path fill="none" stroke="#333333" d="M192,-489C192,-489 276,-489 276,-489 282,-489 288,-495 288,-501 288,-501 288,-541 288,-541 288,-547 282,-553 276,-553 276,-553 192,-553 192,-553 186,-553 180,-547 180,-541 180,-541 180,-501 180,-501 180,-495 186,-489 192,-489"/>
<text text-anchor="start" x="219.5" y="-474.8" font-family="Arial" font-weight="bold" font-size="14.00">time</text>
</g>
<!-- 1&#45;&gt;2 -->
<g id="edge1" class="edge">
<title>1&#45;&gt;2</title>
<path fill="none" stroke="#888888" d="M328.9,-615.67C319.5,-606.39 309.73,-596.75 300.19,-587.33"/>
<polygon fill="#888888" stroke="#888888" points="302.52,-584.71 292.94,-580.18 297.6,-589.69 302.52,-584.71"/>
</g>
<!-- 9 -->
<g id="node3" class="node">
<title>9</title>
<text text-anchor="start" x="592.5" y="-561.8" font-family="Arial" font-weight="bold" font-size="14.00"> ≥ 34.08</text>
<path fill="#ebebeb" stroke="transparent" d="M575,-489C575,-489 659,-489 659,-489 665,-489 671,-495 671,-501 671,-501 671,-541 671,-541 671,-547 665,-553 659,-553 659,-553 575,-553 575,-553 569,-553 563,-547 563,-541 563,-541 563,-501 563,-501 563,-495 569,-489 575,-489"/>
<text text-anchor="start" x="564" y="-550.4" font-family="Arial" font-size="2.00"> </text>
<text text-anchor="start" x="564" y="-544.4" font-family="Arial" font-size="7.00"> &#160;9</text>
<text text-anchor="start" x="578" y="-527.8" font-family="Arial" font-weight="bold" font-size="14.00">Mean: 37.46</text>
<text text-anchor="start" x="593.5" y="-510.8" font-family="Arial" font-weight="bold" font-size="14.00">n = 291</text>
<text text-anchor="start" x="615.5" y="-492.8" font-family="Arial" font-size="9.00"> </text>
<path fill="none" stroke="#333333" d="M575,-489C575,-489 659,-489 659,-489 665,-489 671,-495 671,-501 671,-501 671,-541 671,-541 671,-547 665,-553 659,-553 659,-553 575,-553 575,-553 569,-553 563,-547 563,-541 563,-541 563,-501 563,-501 563,-495 569,-489 575,-489"/>
<text text-anchor="start" x="602.5" y="-474.8" font-family="Arial" font-weight="bold" font-size="14.00">time</text>
</g>
<!-- 1&#45;&gt;9 -->
<g id="edge2" class="edge">
<title>1&#45;&gt;9</title>
<path fill="none" stroke="#888888" d="M466.17,-622.12C490.86,-605.73 518.06,-587.67 542.48,-571.46"/>
<polygon fill="#888888" stroke="#888888" points="544.6,-574.26 551,-565.81 540.73,-568.42 544.6,-574.26"/>
</g>
<!-- 3 -->
<g id="node4" class="node">
<title>3</title>
<text text-anchor="start" x="51.5" y="-407.8" font-family="Arial" font-weight="bold" font-size="14.00"> &lt; 4.5</text>
<path fill="#f8766d" fill-opacity="0.874510" stroke="transparent" d="M24,-335C24,-335 114,-335 114,-335 120,-335 126,-341 126,-347 126,-347 126,-387 126,-387 126,-393 120,-399 114,-399 114,-399 24,-399 24,-399 18,-399 12,-393 12,-387 12,-387 12,-347 12,-347 12,-341 18,-335 24,-335"/>
<text text-anchor="start" x="13" y="-396.4" font-family="Arial" font-size="2.00"> </text>
<text text-anchor="start" x="13" y="-390.4" font-family="Arial" font-size="7.00"> &#160;3</text>
<text text-anchor="start" x="27" y="-373.8" font-family="Arial" font-weight="bold" font-size="14.00">Predict 20.73</text>
<text text-anchor="start" x="45.5" y="-356.8" font-family="Arial" font-weight="bold" font-size="14.00">n = 140</text>
<text text-anchor="start" x="67.5" y="-338.8" font-family="Arial" font-size="9.00"> </text>
<path fill="none" stroke="#333333" d="M24,-335C24,-335 114,-335 114,-335 120,-335 126,-341 126,-347 126,-347 126,-387 126,-387 126,-393 120,-399 114,-399 114,-399 24,-399 24,-399 18,-399 12,-393 12,-387 12,-387 12,-347 12,-347 12,-341 18,-335 24,-335"/>
<text text-anchor="start" x="67" y="-320.8" font-family="Arial" font-weight="bold" font-size="14.00"> </text>
</g>
<!-- 2&#45;&gt;3 -->
<g id="edge3" class="edge">
<title>2&#45;&gt;3</title>
<path fill="none" stroke="#888888" d="M170.68,-461.67C160.51,-452.3 149.94,-442.56 139.61,-433.05"/>
<polygon fill="#888888" stroke="#888888" points="141.88,-430.38 132.15,-426.18 137.14,-435.53 141.88,-430.38"/>
</g>
<!-- 4 -->
<g id="node5" class="node">
<title>4</title>
<text text-anchor="start" x="217" y="-407.8" font-family="Arial" font-weight="bold" font-size="14.00"> ≥ 4.5</text>
<text text-anchor="start" x="166" y="-363.3" font-family="Arial" font-size="14.00"> &#160;&#160;</text>
<path fill="#ebebeb" stroke="transparent" d="M192,-335C192,-335 276,-335 276,-335 282,-335 288,-341 288,-347 288,-347 288,-387 288,-387 288,-393 282,-399 276,-399 276,-399 192,-399 192,-399 186,-399 180,-393 180,-387 180,-387 180,-347 180,-347 180,-341 186,-335 192,-335"/>
<text text-anchor="start" x="181" y="-396.4" font-family="Arial" font-size="2.00"> </text>
<text text-anchor="start" x="181" y="-390.4" font-family="Arial" font-size="7.00"> &#160;4</text>
<text text-anchor="start" x="195" y="-373.8" font-family="Arial" font-weight="bold" font-size="14.00">Mean: 30.09</text>
<text text-anchor="start" x="210.5" y="-356.8" font-family="Arial" font-weight="bold" font-size="14.00">n = 241</text>
<text text-anchor="start" x="232.5" y="-338.8" font-family="Arial" font-size="9.00"> </text>
<path fill="none" stroke="#333333" d="M192,-335C192,-335 276,-335 276,-335 282,-335 288,-341 288,-347 288,-347 288,-387 288,-387 288,-393 282,-399 276,-399 276,-399 192,-399 192,-399 186,-399 180,-393 180,-387 180,-387 180,-347 180,-347 180,-341 186,-335 192,-335"/>
<text text-anchor="start" x="290" y="-363.3" font-family="Arial" font-size="14.00"> &#160;&#160;</text>
<text text-anchor="start" x="181" y="-320.8" font-family="Arial" font-weight="bold" font-size="14.00">prev_168_inflow</text>
</g>
<!-- 2&#45;&gt;4 -->
<g id="edge4" class="edge">
<title>2&#45;&gt;4</title>
<path fill="none" stroke="#888888" d="M234,-461.67C234,-453.39 234,-444.83 234,-436.38"/>
<polygon fill="#888888" stroke="#888888" points="237.5,-436.18 234,-426.18 230.5,-436.18 237.5,-436.18"/>
</g>
<!-- 10 -->
<g id="node10" class="node">
<title>10</title>
<text text-anchor="start" x="595.5" y="-407.8" font-family="Arial" font-weight="bold" font-size="14.00"> &lt; 17.5</text>
<path fill="#ebebeb" stroke="transparent" d="M575,-335C575,-335 659,-335 659,-335 665,-335 671,-341 671,-347 671,-347 671,-387 671,-387 671,-393 665,-399 659,-399 659,-399 575,-399 575,-399 569,-399 563,-393 563,-387 563,-387 563,-347 563,-347 563,-341 569,-335 575,-335"/>
<text text-anchor="start" x="564" y="-396.4" font-family="Arial" font-size="2.00"> </text>
<text text-anchor="start" x="564" y="-390.4" font-family="Arial" font-size="7.00"> &#160;10</text>
<text text-anchor="start" x="578" y="-373.8" font-family="Arial" font-weight="bold" font-size="14.00">Mean: 36.45</text>
<text text-anchor="start" x="593.5" y="-356.8" font-family="Arial" font-weight="bold" font-size="14.00">n = 187</text>
<text text-anchor="start" x="615.5" y="-338.8" font-family="Arial" font-size="9.00"> </text>
<path fill="none" stroke="#333333" d="M575,-335C575,-335 659,-335 659,-335 665,-335 671,-341 671,-347 671,-347 671,-387 671,-387 671,-393 665,-399 659,-399 659,-399 575,-399 575,-399 569,-399 563,-393 563,-387 563,-387 563,-347 563,-347 563,-341 569,-335 575,-335"/>
<text text-anchor="start" x="574.5" y="-320.8" font-family="Arial" font-weight="bold" font-size="14.00">day_of_week</text>
</g>
<!-- 9&#45;&gt;10 -->
<g id="edge9" class="edge">
<title>9&#45;&gt;10</title>
<path fill="none" stroke="#888888" d="M617,-461.67C617,-453.39 617,-444.83 617,-436.38"/>
<polygon fill="#888888" stroke="#888888" points="620.5,-436.18 617,-426.18 613.5,-436.18 620.5,-436.18"/>
</g>
<!-- 17 -->
<g id="node11" class="node">
<title>17</title>
<text text-anchor="start" x="827" y="-407.8" font-family="Arial" font-weight="bold" font-size="14.00"> ≥ 17.5</text>
<path fill="#ebebeb" stroke="transparent" d="M806,-335C806,-335 890,-335 890,-335 896,-335 902,-341 902,-347 902,-347 902,-387 902,-387 902,-393 896,-399 890,-399 890,-399 806,-399 806,-399 800,-399 794,-393 794,-387 794,-387 794,-347 794,-347 794,-341 800,-335 806,-335"/>
<text text-anchor="start" x="795" y="-396.4" font-family="Arial" font-size="2.00"> </text>
<text text-anchor="start" x="795" y="-390.4" font-family="Arial" font-size="7.00"> &#160;17</text>
<text text-anchor="start" x="809" y="-373.8" font-family="Arial" font-weight="bold" font-size="14.00">Mean: 39.26</text>
<text text-anchor="start" x="824.5" y="-356.8" font-family="Arial" font-weight="bold" font-size="14.00">n = 104</text>
<text text-anchor="start" x="846.5" y="-338.8" font-family="Arial" font-size="9.00"> </text>
<path fill="none" stroke="#333333" d="M806,-335C806,-335 890,-335 890,-335 896,-335 902,-341 902,-347 902,-347 902,-387 902,-387 902,-393 896,-399 890,-399 890,-399 806,-399 806,-399 800,-399 794,-393 794,-387 794,-387 794,-347 794,-347 794,-341 800,-335 806,-335"/>
<text text-anchor="start" x="833.5" y="-320.8" font-family="Arial" font-weight="bold" font-size="14.00">time</text>
</g>
<!-- 9&#45;&gt;17 -->
<g id="edge10" class="edge">
<title>9&#45;&gt;17</title>
<path fill="none" stroke="#888888" d="M683.2,-476.44C711.35,-457.92 744.31,-436.23 773.33,-417.14"/>
<polygon fill="#888888" stroke="#888888" points="775.37,-419.98 781.8,-411.56 771.52,-414.14 775.37,-419.98"/>
</g>
<!-- 5 -->
<g id="node6" class="node">
<title>5</title>
<text text-anchor="start" x="44" y="-253.8" font-family="Arial" font-weight="bold" font-size="14.00"> &lt; 27.51</text>
<path fill="#f8766d" fill-opacity="0.772549" stroke="transparent" d="M24,-181C24,-181 114,-181 114,-181 120,-181 126,-187 126,-193 126,-193 126,-233 126,-233 126,-239 120,-245 114,-245 114,-245 24,-245 24,-245 18,-245 12,-239 12,-233 12,-233 12,-193 12,-193 12,-187 18,-181 24,-181"/>
<text text-anchor="start" x="13" y="-242.4" font-family="Arial" font-size="2.00"> </text>
<text text-anchor="start" x="13" y="-236.4" font-family="Arial" font-size="7.00"> &#160;5</text>
<text text-anchor="start" x="27" y="-219.8" font-family="Arial" font-weight="bold" font-size="14.00">Predict 24.78</text>
<text text-anchor="start" x="49" y="-202.8" font-family="Arial" font-weight="bold" font-size="14.00">n = 64</text>
<text text-anchor="start" x="67.5" y="-184.8" font-family="Arial" font-size="9.00"> </text>
<path fill="none" stroke="#333333" d="M24,-181C24,-181 114,-181 114,-181 120,-181 126,-187 126,-193 126,-193 126,-233 126,-233 126,-239 120,-245 114,-245 114,-245 24,-245 24,-245 18,-245 12,-239 12,-233 12,-233 12,-193 12,-193 12,-187 18,-181 24,-181"/>
<text text-anchor="start" x="67" y="-166.8" font-family="Arial" font-weight="bold" font-size="14.00"> </text>
</g>
<!-- 4&#45;&gt;5 -->
<g id="edge5" class="edge">
<title>4&#45;&gt;5</title>
<path fill="none" stroke="#888888" d="M170.68,-307.67C160.51,-298.3 149.94,-288.56 139.61,-279.05"/>
<polygon fill="#888888" stroke="#888888" points="141.88,-276.38 132.15,-272.18 137.14,-281.53 141.88,-276.38"/>
</g>
<!-- 6 -->
<g id="node7" class="node">
<title>6</title>
<text text-anchor="start" x="209.5" y="-253.8" font-family="Arial" font-weight="bold" font-size="14.00"> ≥ 27.51</text>
<text text-anchor="start" x="166" y="-209.3" font-family="Arial" font-size="14.00"> &#160;&#160;</text>
<path fill="#ebebeb" stroke="transparent" d="M192,-181C192,-181 276,-181 276,-181 282,-181 288,-187 288,-193 288,-193 288,-233 288,-233 288,-239 282,-245 276,-245 276,-245 192,-245 192,-245 186,-245 180,-239 180,-233 180,-233 180,-193 180,-193 180,-187 186,-181 192,-181"/>
<text text-anchor="start" x="181" y="-242.4" font-family="Arial" font-size="2.00"> </text>
<text text-anchor="start" x="181" y="-236.4" font-family="Arial" font-size="7.00"> &#160;6</text>
<text text-anchor="start" x="195" y="-219.8" font-family="Arial" font-weight="bold" font-size="14.00">Mean: 32.02</text>
<text text-anchor="start" x="210.5" y="-202.8" font-family="Arial" font-weight="bold" font-size="14.00">n = 177</text>
<text text-anchor="start" x="232.5" y="-184.8" font-family="Arial" font-size="9.00"> </text>
<path fill="none" stroke="#333333" d="M192,-181C192,-181 276,-181 276,-181 282,-181 288,-187 288,-193 288,-193 288,-233 288,-233 288,-239 282,-245 276,-245 276,-245 192,-245 192,-245 186,-245 180,-239 180,-233 180,-233 180,-193 180,-193 180,-187 186,-181 192,-181"/>
<text text-anchor="start" x="290" y="-209.3" font-family="Arial" font-size="14.00"> &#160;&#160;</text>
<text text-anchor="start" x="181" y="-166.8" font-family="Arial" font-weight="bold" font-size="14.00">prev_168_inflow</text>
</g>
<!-- 4&#45;&gt;6 -->
<g id="edge6" class="edge">
<title>4&#45;&gt;6</title>
<path fill="none" stroke="#888888" d="M234,-307.67C234,-299.39 234,-290.83 234,-282.38"/>
<polygon fill="#888888" stroke="#888888" points="237.5,-282.18 234,-272.18 230.5,-282.18 237.5,-282.18"/>
</g>
<!-- 7 -->
<g id="node8" class="node">
<title>7</title>
<text text-anchor="start" x="61" y="-99.8" font-family="Arial" font-weight="bold" font-size="14.00"> &lt; 30.71</text>
<path fill="#f8766d" fill-opacity="0.631373" stroke="transparent" d="M45,-27C45,-27 127,-27 127,-27 133,-27 139,-33 139,-39 139,-39 139,-79 139,-79 139,-85 133,-91 127,-91 127,-91 45,-91 45,-91 39,-91 33,-85 33,-79 33,-79 33,-39 33,-39 33,-33 39,-27 45,-27"/>
<text text-anchor="start" x="34" y="-88.4" font-family="Arial" font-size="2.00"> </text>
<text text-anchor="start" x="34" y="-82.4" font-family="Arial" font-size="7.00"> &#160;7</text>
<text text-anchor="start" x="48" y="-65.8" font-family="Arial" font-weight="bold" font-size="14.00">Predict 30.3</text>
<text text-anchor="start" x="66" y="-48.8" font-family="Arial" font-weight="bold" font-size="14.00">n = 60</text>
<text text-anchor="start" x="84.5" y="-30.8" font-family="Arial" font-size="9.00"> </text>
<path fill="none" stroke="#333333" d="M45,-27C45,-27 127,-27 127,-27 133,-27 139,-33 139,-39 139,-39 139,-79 139,-79 139,-85 133,-91 127,-91 127,-91 45,-91 45,-91 39,-91 33,-85 33,-79 33,-79 33,-39 33,-39 33,-33 39,-27 45,-27"/>
<text text-anchor="start" x="84" y="-12.8" font-family="Arial" font-weight="bold" font-size="14.00"> </text>
</g>
<!-- 6&#45;&gt;7 -->
<g id="edge7" class="edge">
<title>6&#45;&gt;7</title>
<path fill="none" stroke="#888888" d="M177.2,-153.67C168.26,-144.49 158.97,-134.94 149.88,-125.6"/>
<polygon fill="#888888" stroke="#888888" points="152.13,-122.9 142.65,-118.18 147.11,-127.78 152.13,-122.9"/>
</g>
<!-- 8 -->
<g id="node9" class="node">
<title>8</title>
<text text-anchor="start" x="209.5" y="-99.8" font-family="Arial" font-weight="bold" font-size="14.00"> ≥ 30.71</text>
<path fill="#f8766d" fill-opacity="0.564706" stroke="transparent" d="M193,-27C193,-27 275,-27 275,-27 281,-27 287,-33 287,-39 287,-39 287,-79 287,-79 287,-85 281,-91 275,-91 275,-91 193,-91 193,-91 187,-91 181,-85 181,-79 181,-79 181,-39 181,-39 181,-33 187,-27 193,-27"/>
<text text-anchor="start" x="182" y="-88.4" font-family="Arial" font-size="2.00"> </text>
<text text-anchor="start" x="182" y="-82.4" font-family="Arial" font-size="7.00"> &#160;8</text>
<text text-anchor="start" x="196" y="-65.8" font-family="Arial" font-weight="bold" font-size="14.00">Predict 32.9</text>
<text text-anchor="start" x="211" y="-48.8" font-family="Arial" font-weight="bold" font-size="14.00">n = 117</text>
<text text-anchor="start" x="232.5" y="-30.8" font-family="Arial" font-size="9.00"> </text>
<path fill="none" stroke="#333333" d="M193,-27C193,-27 275,-27 275,-27 281,-27 287,-33 287,-39 287,-39 287,-79 287,-79 287,-85 281,-91 275,-91 275,-91 193,-91 193,-91 187,-91 181,-85 181,-79 181,-79 181,-39 181,-39 181,-33 187,-27 193,-27"/>
<text text-anchor="start" x="232" y="-12.8" font-family="Arial" font-weight="bold" font-size="14.00"> </text>
</g>
<!-- 6&#45;&gt;8 -->
<g id="edge8" class="edge">
<title>6&#45;&gt;8</title>
<path fill="none" stroke="#888888" d="M234,-153.67C234,-145.39 234,-136.83 234,-128.38"/>
<polygon fill="#888888" stroke="#888888" points="237.5,-128.18 234,-118.18 230.5,-128.18 237.5,-128.18"/>
</g>
<!-- 11 -->
<g id="node12" class="node">
<title>11</title>
<text text-anchor="start" x="524.5" y="-253.8" font-family="Arial" font-weight="bold" font-size="14.00"> &lt; 5.5</text>
<path fill="#ebebeb" stroke="transparent" d="M500,-181C500,-181 584,-181 584,-181 590,-181 596,-187 596,-193 596,-193 596,-233 596,-233 596,-239 590,-245 584,-245 584,-245 500,-245 500,-245 494,-245 488,-239 488,-233 488,-233 488,-193 488,-193 488,-187 494,-181 500,-181"/>
<text text-anchor="start" x="489" y="-242.4" font-family="Arial" font-size="2.00"> </text>
<text text-anchor="start" x="489" y="-236.4" font-family="Arial" font-size="7.00"> &#160;11</text>
<text text-anchor="start" x="503" y="-219.8" font-family="Arial" font-weight="bold" font-size="14.00">Mean: 35.63</text>
<text text-anchor="start" x="518.5" y="-202.8" font-family="Arial" font-weight="bold" font-size="14.00">n = 132</text>
<text text-anchor="start" x="540.5" y="-184.8" font-family="Arial" font-size="9.00"> </text>
<path fill="none" stroke="#333333" d="M500,-181C500,-181 584,-181 584,-181 590,-181 596,-187 596,-193 596,-193 596,-233 596,-233 596,-239 590,-245 584,-245 584,-245 500,-245 500,-245 494,-245 488,-239 488,-233 488,-233 488,-193 488,-193 488,-187 494,-181 500,-181"/>
<text text-anchor="start" x="527.5" y="-166.8" font-family="Arial" font-weight="bold" font-size="14.00">time</text>
</g>
<!-- 10&#45;&gt;11 -->
<g id="edge11" class="edge">
<title>10&#45;&gt;11</title>
<path fill="none" stroke="#888888" d="M588.22,-307.67C583.96,-299.03 579.54,-290.07 575.19,-281.27"/>
<polygon fill="#888888" stroke="#888888" points="578.27,-279.6 570.71,-272.18 571.99,-282.69 578.27,-279.6"/>
</g>
<!-- 14 -->
<g id="node13" class="node">
<title>14</title>
<text text-anchor="start" x="678" y="-253.8" font-family="Arial" font-weight="bold" font-size="14.00"> ≥ 5.5</text>
<path fill="#ebebeb" stroke="transparent" d="M653,-181C653,-181 737,-181 737,-181 743,-181 749,-187 749,-193 749,-193 749,-233 749,-233 749,-239 743,-245 737,-245 737,-245 653,-245 653,-245 647,-245 641,-239 641,-233 641,-233 641,-193 641,-193 641,-187 647,-181 653,-181"/>
<text text-anchor="start" x="642" y="-242.4" font-family="Arial" font-size="2.00"> </text>
<text text-anchor="start" x="642" y="-236.4" font-family="Arial" font-size="7.00"> &#160;14</text>
<text text-anchor="start" x="656" y="-219.8" font-family="Arial" font-weight="bold" font-size="14.00">Mean: 38.44</text>
<text text-anchor="start" x="675" y="-202.8" font-family="Arial" font-weight="bold" font-size="14.00">n = 55</text>
<text text-anchor="start" x="693.5" y="-184.8" font-family="Arial" font-size="9.00"> </text>
<path fill="none" stroke="#333333" d="M653,-181C653,-181 737,-181 737,-181 743,-181 749,-187 749,-193 749,-193 749,-233 749,-233 749,-239 743,-245 737,-245 737,-245 653,-245 653,-245 647,-245 641,-239 641,-233 641,-233 641,-193 641,-193 641,-187 647,-181 653,-181"/>
<text text-anchor="start" x="680.5" y="-166.8" font-family="Arial" font-weight="bold" font-size="14.00">time</text>
</g>
<!-- 10&#45;&gt;14 -->
<g id="edge12" class="edge">
<title>10&#45;&gt;14</title>
<path fill="none" stroke="#888888" d="M646.93,-307.67C651.37,-299.03 655.96,-290.07 660.48,-281.27"/>
<polygon fill="#888888" stroke="#888888" points="663.69,-282.67 665.15,-272.18 657.47,-279.48 663.69,-282.67"/>
</g>
<!-- 18 -->
<g id="node18" class="node">
<title>18</title>
<text text-anchor="start" x="826.5" y="-253.8" font-family="Arial" font-weight="bold" font-size="14.00"> &lt; 20.5</text>
<path fill="#f8766d" fill-opacity="0.380392" stroke="transparent" d="M803,-181C803,-181 893,-181 893,-181 899,-181 905,-187 905,-193 905,-193 905,-233 905,-233 905,-239 899,-245 893,-245 893,-245 803,-245 803,-245 797,-245 791,-239 791,-233 791,-233 791,-193 791,-193 791,-187 797,-181 803,-181"/>
<text text-anchor="start" x="792" y="-242.4" font-family="Arial" font-size="2.00"> </text>
<text text-anchor="start" x="792" y="-236.4" font-family="Arial" font-size="7.00"> &#160;18</text>
<text text-anchor="start" x="806" y="-219.8" font-family="Arial" font-weight="bold" font-size="14.00">Predict 40.12</text>
<text text-anchor="start" x="828" y="-202.8" font-family="Arial" font-weight="bold" font-size="14.00">n = 82</text>
<text text-anchor="start" x="846.5" y="-184.8" font-family="Arial" font-size="9.00"> </text>
<path fill="none" stroke="#333333" d="M803,-181C803,-181 893,-181 893,-181 899,-181 905,-187 905,-193 905,-193 905,-233 905,-233 905,-239 899,-245 893,-245 893,-245 803,-245 803,-245 797,-245 791,-239 791,-233 791,-233 791,-193 791,-193 791,-187 797,-181 803,-181"/>
<text text-anchor="start" x="846" y="-166.8" font-family="Arial" font-weight="bold" font-size="14.00"> </text>
</g>
<!-- 17&#45;&gt;18 -->
<g id="edge17" class="edge">
<title>17&#45;&gt;18</title>
<path fill="none" stroke="#888888" d="M848,-307.67C848,-299.39 848,-290.83 848,-282.38"/>
<polygon fill="#888888" stroke="#888888" points="851.5,-282.18 848,-272.18 844.5,-282.18 851.5,-282.18"/>
</g>
<!-- 19 -->
<g id="node19" class="node">
<title>19</title>
<text text-anchor="start" x="983" y="-253.8" font-family="Arial" font-weight="bold" font-size="14.00"> ≥ 20.5</text>
<path fill="#f8766d" fill-opacity="0.482353" stroke="transparent" d="M959,-181C959,-181 1049,-181 1049,-181 1055,-181 1061,-187 1061,-193 1061,-193 1061,-233 1061,-233 1061,-239 1055,-245 1049,-245 1049,-245 959,-245 959,-245 953,-245 947,-239 947,-233 947,-233 947,-193 947,-193 947,-187 953,-181 959,-181"/>
<text text-anchor="start" x="948" y="-242.4" font-family="Arial" font-size="2.00"> </text>
<text text-anchor="start" x="948" y="-236.4" font-family="Arial" font-size="7.00"> &#160;19</text>
<text text-anchor="start" x="962" y="-219.8" font-family="Arial" font-weight="bold" font-size="14.00">Predict 36.07</text>
<text text-anchor="start" x="984" y="-202.8" font-family="Arial" font-weight="bold" font-size="14.00">n = 22</text>
<text text-anchor="start" x="1002.5" y="-184.8" font-family="Arial" font-size="9.00"> </text>
<path fill="none" stroke="#333333" d="M959,-181C959,-181 1049,-181 1049,-181 1055,-181 1061,-187 1061,-193 1061,-193 1061,-233 1061,-233 1061,-239 1055,-245 1049,-245 1049,-245 959,-245 959,-245 953,-245 947,-239 947,-233 947,-233 947,-193 947,-193 947,-187 953,-181 959,-181"/>
<text text-anchor="start" x="1002" y="-166.8" font-family="Arial" font-weight="bold" font-size="14.00"> </text>
</g>
<!-- 17&#45;&gt;19 -->
<g id="edge18" class="edge">
<title>17&#45;&gt;19</title>
<path fill="none" stroke="#888888" d="M907.87,-307.67C917.38,-298.39 927.28,-288.75 936.95,-279.33"/>
<polygon fill="#888888" stroke="#888888" points="939.57,-281.66 944.29,-272.18 934.69,-276.65 939.57,-281.66"/>
</g>
<!-- 12 -->
<g id="node14" class="node">
<title>12</title>
<text text-anchor="start" x="368.5" y="-99.8" font-family="Arial" font-weight="bold" font-size="14.00"> &lt; 9.5</text>
<path fill="#f8766d" fill-opacity="0.423529" stroke="transparent" d="M341,-27C341,-27 431,-27 431,-27 437,-27 443,-33 443,-39 443,-39 443,-79 443,-79 443,-85 437,-91 431,-91 431,-91 341,-91 341,-91 335,-91 329,-85 329,-79 329,-79 329,-39 329,-39 329,-33 335,-27 341,-27"/>
<text text-anchor="start" x="330" y="-88.4" font-family="Arial" font-size="2.00"> </text>
<text text-anchor="start" x="330" y="-82.4" font-family="Arial" font-size="7.00"> &#160;12</text>
<text text-anchor="start" x="344" y="-65.8" font-family="Arial" font-weight="bold" font-size="14.00">Predict 38.44</text>
<text text-anchor="start" x="366" y="-48.8" font-family="Arial" font-weight="bold" font-size="14.00">n = 58</text>
<text text-anchor="start" x="384.5" y="-30.8" font-family="Arial" font-size="9.00"> </text>
<path fill="none" stroke="#333333" d="M341,-27C341,-27 431,-27 431,-27 437,-27 443,-33 443,-39 443,-39 443,-79 443,-79 443,-85 437,-91 431,-91 431,-91 341,-91 341,-91 335,-91 329,-85 329,-79 329,-79 329,-39 329,-39 329,-33 335,-27 341,-27"/>
<text text-anchor="start" x="384" y="-12.8" font-family="Arial" font-weight="bold" font-size="14.00"> </text>
</g>
<!-- 11&#45;&gt;12 -->
<g id="edge13" class="edge">
<title>11&#45;&gt;12</title>
<path fill="none" stroke="#888888" d="M482.13,-153.67C472.62,-144.39 462.72,-134.75 453.05,-125.33"/>
<polygon fill="#888888" stroke="#888888" points="455.31,-122.65 445.71,-118.18 450.43,-127.66 455.31,-122.65"/>
</g>
<!-- 13 -->
<g id="node15" class="node">
<title>13</title>
<text text-anchor="start" x="525" y="-99.8" font-family="Arial" font-weight="bold" font-size="14.00"> ≥ 9.5</text>
<path fill="#f8766d" fill-opacity="0.549020" stroke="transparent" d="M497,-27C497,-27 587,-27 587,-27 593,-27 599,-33 599,-39 599,-39 599,-79 599,-79 599,-85 593,-91 587,-91 587,-91 497,-91 497,-91 491,-91 485,-85 485,-79 485,-79 485,-39 485,-39 485,-33 491,-27 497,-27"/>
<text text-anchor="start" x="486" y="-88.4" font-family="Arial" font-size="2.00"> </text>
<text text-anchor="start" x="486" y="-82.4" font-family="Arial" font-size="7.00"> &#160;13</text>
<text text-anchor="start" x="500" y="-65.8" font-family="Arial" font-weight="bold" font-size="14.00">Predict 33.42</text>
<text text-anchor="start" x="522" y="-48.8" font-family="Arial" font-weight="bold" font-size="14.00">n = 74</text>
<text text-anchor="start" x="540.5" y="-30.8" font-family="Arial" font-size="9.00"> </text>
<path fill="none" stroke="#333333" d="M497,-27C497,-27 587,-27 587,-27 593,-27 599,-33 599,-39 599,-39 599,-79 599,-79 599,-85 593,-91 587,-91 587,-91 497,-91 497,-91 491,-91 485,-85 485,-79 485,-79 485,-39 485,-39 485,-33 491,-27 497,-27"/>
<text text-anchor="start" x="540" y="-12.8" font-family="Arial" font-weight="bold" font-size="14.00"> </text>
</g>
<!-- 11&#45;&gt;13 -->
<g id="edge14" class="edge">
<title>11&#45;&gt;13</title>
<path fill="none" stroke="#888888" d="M542,-153.67C542,-145.39 542,-136.83 542,-128.38"/>
<polygon fill="#888888" stroke="#888888" points="545.5,-128.18 542,-118.18 538.5,-128.18 545.5,-128.18"/>
</g>
<!-- 15 -->
<g id="node16" class="node">
<title>15</title>
<text text-anchor="start" x="677" y="-99.8" font-family="Arial" font-weight="bold" font-size="14.00"> &lt; 11.5</text>
<path fill="#f8766d" fill-opacity="0.376471" stroke="transparent" d="M653,-27C653,-27 743,-27 743,-27 749,-27 755,-33 755,-39 755,-39 755,-79 755,-79 755,-85 749,-91 743,-91 743,-91 653,-91 653,-91 647,-91 641,-85 641,-79 641,-79 641,-39 641,-39 641,-33 647,-27 653,-27"/>
<text text-anchor="start" x="642" y="-88.4" font-family="Arial" font-size="2.00"> </text>
<text text-anchor="start" x="642" y="-82.4" font-family="Arial" font-size="7.00"> &#160;15</text>
<text text-anchor="start" x="656" y="-65.8" font-family="Arial" font-weight="bold" font-size="14.00">Predict 40.26</text>
<text text-anchor="start" x="678" y="-48.8" font-family="Arial" font-weight="bold" font-size="14.00">n = 34</text>
<text text-anchor="start" x="696.5" y="-30.8" font-family="Arial" font-size="9.00"> </text>
<path fill="none" stroke="#333333" d="M653,-27C653,-27 743,-27 743,-27 749,-27 755,-33 755,-39 755,-39 755,-79 755,-79 755,-85 749,-91 743,-91 743,-91 653,-91 653,-91 647,-91 641,-85 641,-79 641,-79 641,-39 641,-39 641,-33 647,-27 653,-27"/>
<text text-anchor="start" x="696" y="-12.8" font-family="Arial" font-weight="bold" font-size="14.00"> </text>
</g>
<!-- 14&#45;&gt;15 -->
<g id="edge15" class="edge">
<title>14&#45;&gt;15</title>
<path fill="none" stroke="#888888" d="M696.15,-153.67C696.31,-145.39 696.48,-136.83 696.65,-128.38"/>
<polygon fill="#888888" stroke="#888888" points="700.15,-128.24 696.85,-118.18 693.16,-128.11 700.15,-128.24"/>
</g>
<!-- 16 -->
<g id="node17" class="node">
<title>16</title>
<text text-anchor="start" x="833.5" y="-99.8" font-family="Arial" font-weight="bold" font-size="14.00"> ≥ 11.5</text>
<path fill="#f8766d" fill-opacity="0.498039" stroke="transparent" d="M809,-27C809,-27 899,-27 899,-27 905,-27 911,-33 911,-39 911,-39 911,-79 911,-79 911,-85 905,-91 899,-91 899,-91 809,-91 809,-91 803,-91 797,-85 797,-79 797,-79 797,-39 797,-39 797,-33 803,-27 809,-27"/>
<text text-anchor="start" x="798" y="-88.4" font-family="Arial" font-size="2.00"> </text>
<text text-anchor="start" x="798" y="-82.4" font-family="Arial" font-size="7.00"> &#160;16</text>
<text text-anchor="start" x="812" y="-65.8" font-family="Arial" font-weight="bold" font-size="14.00">Predict 35.49</text>
<text text-anchor="start" x="834" y="-48.8" font-family="Arial" font-weight="bold" font-size="14.00">n = 21</text>
<text text-anchor="start" x="852.5" y="-30.8" font-family="Arial" font-size="9.00"> </text>
<path fill="none" stroke="#333333" d="M809,-27C809,-27 899,-27 899,-27 905,-27 911,-33 911,-39 911,-39 911,-79 911,-79 911,-85 905,-91 899,-91 899,-91 809,-91 809,-91 803,-91 797,-85 797,-79 797,-79 797,-39 797,-39 797,-33 803,-27 809,-27"/>
<text text-anchor="start" x="852" y="-12.8" font-family="Arial" font-weight="bold" font-size="14.00"> </text>
</g>
<!-- 14&#45;&gt;16 -->
<g id="edge16" class="edge">
<title>14&#45;&gt;16</title>
<path fill="none" stroke="#888888" d="M756.02,-153.67C765.72,-144.39 775.81,-134.75 785.66,-125.33"/>
<polygon fill="#888888" stroke="#888888" points="788.33,-127.62 793.14,-118.18 783.5,-122.56 788.33,-127.62"/>
</g>
</g>
</svg>
