<?xml version="1.0" encoding="UTF-8" standalone="no"?>
<!DOCTYPE svg PUBLIC "-//W3C//DTD SVG 1.1//EN"
 "http://www.w3.org/Graphics/SVG/1.1/DTD/svg11.dtd">
<!-- Generated by graphviz version 2.50.0 (20211204.2007)
 -->
<!-- Pages: 1 -->
<svg width="1551pt" height="742pt"
 viewBox="0.00 0.00 1551.00 742.00" xmlns="http://www.w3.org/2000/svg" xmlns:xlink="http://www.w3.org/1999/xlink">
<g id="graph0" class="graph" transform="scale(1 1) rotate(0) translate(4 738)">
<polygon fill="white" stroke="transparent" points="-4,4 -4,-738 1547,-738 1547,4 -4,4"/>
<!-- 1 -->
<g id="node1" class="node">
<title>1</title>
<text text-anchor="start" x="619" y="-715.8" font-family="Arial" font-weight="bold" font-size="14.00"> </text>
<path fill="#ebebeb" stroke="transparent" d="M579,-643C579,-643 663,-643 663,-643 669,-643 675,-649 675,-655 675,-655 675,-695 675,-695 675,-701 669,-707 663,-707 663,-707 579,-707 579,-707 573,-707 567,-701 567,-695 567,-695 567,-655 567,-655 567,-649 573,-643 579,-643"/>
<text text-anchor="start" x="568" y="-704.4" font-family="Arial" font-size="2.00"> </text>
<text text-anchor="start" x="568" y="-698.4" font-family="Arial" font-size="7.00"> &#160;1</text>
<text text-anchor="start" x="582" y="-681.8" font-family="Arial" font-weight="bold" font-size="14.00">Mean: 30.69</text>
<text text-anchor="start" x="597.5" y="-664.8" font-family="Arial" font-weight="bold" font-size="14.00">n = 168</text>
<text text-anchor="start" x="619.5" y="-646.8" font-family="Arial" font-size="9.00"> </text>
<path fill="none" stroke="#333333" d="M579,-643C579,-643 663,-643 663,-643 669,-643 675,-649 675,-655 675,-655 675,-695 675,-695 675,-701 669,-707 663,-707 663,-707 579,-707 579,-707 573,-707 567,-701 567,-695 567,-695 567,-655 567,-655 567,-649 573,-643 579,-643"/>
<text text-anchor="start" x="588" y="-628.8" font-family="Arial" font-weight="bold" font-size="14.00">air_humid</text>
</g>
<!-- 2 -->
<g id="node2" class="node">
<title>2</title>
<text text-anchor="start" x="518.5" y="-561.8" font-family="Arial" font-weight="bold" font-size="14.00"> &lt; 44.5</text>
<path fill="#ebebeb" stroke="transparent" d="M498,-489C498,-489 582,-489 582,-489 588,-489 594,-495 594,-501 594,-501 594,-541 594,-541 594,-547 588,-553 582,-553 582,-553 498,-553 498,-553 492,-553 486,-547 486,-541 486,-541 486,-501 486,-501 486,-495 492,-489 498,-489"/>
<text text-anchor="start" x="487" y="-550.4" font-family="Arial" font-size="2.00"> </text>
<text text-anchor="start" x="487" y="-544.4" font-family="Arial" font-size="7.00"> &#160;2</text>
<text text-anchor="start" x="501" y="-527.8" font-family="Arial" font-weight="bold" font-size="14.00">Mean: 36.89</text>
<text text-anchor="start" x="520" y="-510.8" font-family="Arial" font-weight="bold" font-size="14.00">n = 28</text>
<text text-anchor="start" x="538.5" y="-492.8" font-family="Arial" font-size="9.00"> </text>
<path fill="none" stroke="#333333" d="M498,-489C498,-489 582,-489 582,-489 588,-489 594,-495 594,-501 594,-501 594,-541 594,-541 594,-547 588,-553 582,-553 582,-553 498,-553 498,-553 492,-553 486,-547 486,-541 486,-541 486,-501 486,-501 486,-495 492,-489 498,-489"/>
<text text-anchor="start" x="525.5" y="-474.8" font-family="Arial" font-weight="bold" font-size="14.00">time</text>
</g>
<!-- 1&#45;&gt;2 -->
<g id="edge1" class="edge">
<title>1&#45;&gt;2</title>
<path fill="none" stroke="#888888" d="M589.91,-615.67C585.31,-607.03 580.54,-598.07 575.85,-589.27"/>
<polygon fill="#888888" stroke="#888888" points="578.79,-587.36 571,-580.18 572.62,-590.65 578.79,-587.36"/>
</g>
<!-- 9 -->
<g id="node3" class="node">
<title>9</title>
<text text-anchor="start" x="681" y="-561.8" font-family="Arial" font-weight="bold" font-size="14.00"> ≥ 44.5</text>
<text text-anchor="start" x="634" y="-517.3" font-family="Arial" font-size="14.00"> &#160;&#160;</text>
<path fill="#ebebeb" stroke="transparent" d="M660,-489C660,-489 744,-489 744,-489 750,-489 756,-495 756,-501 756,-501 756,-541 756,-541 756,-547 750,-553 744,-553 744,-553 660,-553 660,-553 654,-553 648,-547 648,-541 648,-541 648,-501 648,-501 648,-495 654,-489 660,-489"/>
<text text-anchor="start" x="649" y="-550.4" font-family="Arial" font-size="2.00"> </text>
<text text-anchor="start" x="649" y="-544.4" font-family="Arial" font-size="7.00"> &#160;9</text>
<text text-anchor="start" x="663" y="-527.8" font-family="Arial" font-weight="bold" font-size="14.00">Mean: 29.45</text>
<text text-anchor="start" x="678.5" y="-510.8" font-family="Arial" font-weight="bold" font-size="14.00">n = 140</text>
<text text-anchor="start" x="700.5" y="-492.8" font-family="Arial" font-size="9.00"> </text>
<path fill="none" stroke="#333333" d="M660,-489C660,-489 744,-489 744,-489 750,-489 756,-495 756,-501 756,-501 756,-541 756,-541 756,-547 750,-553 744,-553 744,-553 660,-553 660,-553 654,-553 648,-547 648,-541 648,-541 648,-501 648,-501 648,-495 654,-489 660,-489"/>
<text text-anchor="start" x="758" y="-517.3" font-family="Arial" font-size="14.00"> &#160;&#160;</text>
<text text-anchor="start" x="649" y="-474.8" font-family="Arial" font-weight="bold" font-size="14.00">prev_168_inflow</text>
</g>
<!-- 1&#45;&gt;9 -->
<g id="edge2" class="edge">
<title>1&#45;&gt;9</title>
<path fill="none" stroke="#888888" d="M652.09,-615.67C656.69,-607.03 661.46,-598.07 666.15,-589.27"/>
<polygon fill="#888888" stroke="#888888" points="669.38,-590.65 671,-580.18 663.21,-587.36 669.38,-590.65"/>
</g>
<!-- 3 -->
<g id="node4" class="node">
<title>3</title>
<text text-anchor="start" x="356.5" y="-407.8" font-family="Arial" font-weight="bold" font-size="14.00"> &lt; 22.5</text>
<text text-anchor="start" x="310" y="-363.3" font-family="Arial" font-size="14.00"> &#160;&#160;</text>
<path fill="#ebebeb" stroke="transparent" d="M336,-335C336,-335 420,-335 420,-335 426,-335 432,-341 432,-347 432,-347 432,-387 432,-387 432,-393 426,-399 420,-399 420,-399 336,-399 336,-399 330,-399 324,-393 324,-387 324,-387 324,-347 324,-347 324,-341 330,-335 336,-335"/>
<text text-anchor="start" x="325" y="-396.4" font-family="Arial" font-size="2.00"> </text>
<text text-anchor="start" x="325" y="-390.4" font-family="Arial" font-size="7.00"> &#160;3</text>
<text text-anchor="start" x="339" y="-373.8" font-family="Arial" font-weight="bold" font-size="14.00">Mean: 37.32</text>
<text text-anchor="start" x="358" y="-356.8" font-family="Arial" font-weight="bold" font-size="14.00">n = 27</text>
<text text-anchor="start" x="376.5" y="-338.8" font-family="Arial" font-size="9.00"> </text>
<path fill="none" stroke="#333333" d="M336,-335C336,-335 420,-335 420,-335 426,-335 432,-341 432,-347 432,-347 432,-387 432,-387 432,-393 426,-399 420,-399 420,-399 336,-399 336,-399 330,-399 324,-393 324,-387 324,-387 324,-347 324,-347 324,-341 330,-335 336,-335"/>
<text text-anchor="start" x="434" y="-363.3" font-family="Arial" font-size="14.00"> &#160;&#160;</text>
<text text-anchor="start" x="325" y="-320.8" font-family="Arial" font-weight="bold" font-size="14.00">prev_168_inflow</text>
</g>
<!-- 2&#45;&gt;3 -->
<g id="edge3" class="edge">
<title>2&#45;&gt;3</title>
<path fill="none" stroke="#888888" d="M477.83,-461.67C467.85,-452.3 457.47,-442.56 447.33,-433.05"/>
<polygon fill="#888888" stroke="#888888" points="449.69,-430.47 440,-426.18 444.9,-435.57 449.69,-430.47"/>
</g>
<!-- 8 -->
<g id="node5" class="node">
<title>8</title>
<text text-anchor="start" x="522" y="-407.8" font-family="Arial" font-weight="bold" font-size="14.00"> ≥ 22.5</text>
<path fill="#f8766d" fill-opacity="0.709804" stroke="transparent" d="M498,-335C498,-335 588,-335 588,-335 594,-335 600,-341 600,-347 600,-347 600,-387 600,-387 600,-393 594,-399 588,-399 588,-399 498,-399 498,-399 492,-399 486,-393 486,-387 486,-387 486,-347 486,-347 486,-341 492,-335 498,-335"/>
<text text-anchor="start" x="487" y="-396.4" font-family="Arial" font-size="2.00"> </text>
<text text-anchor="start" x="487" y="-390.4" font-family="Arial" font-size="7.00"> &#160;8</text>
<text text-anchor="start" x="501" y="-373.8" font-family="Arial" font-weight="bold" font-size="14.00">Predict 25.13</text>
<text text-anchor="start" x="527" y="-356.8" font-family="Arial" font-weight="bold" font-size="14.00">n = 1</text>
<text text-anchor="start" x="541.5" y="-338.8" font-family="Arial" font-size="9.00"> </text>
<path fill="none" stroke="#333333" d="M498,-335C498,-335 588,-335 588,-335 594,-335 600,-341 600,-347 600,-347 600,-387 600,-387 600,-393 594,-399 588,-399 588,-399 498,-399 498,-399 492,-399 486,-393 486,-387 486,-387 486,-347 486,-347 486,-341 492,-335 498,-335"/>
<text text-anchor="start" x="541" y="-320.8" font-family="Arial" font-weight="bold" font-size="14.00"> </text>
</g>
<!-- 2&#45;&gt;8 -->
<g id="edge4" class="edge">
<title>2&#45;&gt;8</title>
<path fill="none" stroke="#888888" d="M541.15,-461.67C541.31,-453.39 541.48,-444.83 541.65,-436.38"/>
<polygon fill="#888888" stroke="#888888" points="545.15,-436.24 541.85,-426.18 538.16,-436.11 545.15,-436.24"/>
</g>
<!-- 10 -->
<g id="node10" class="node">
<title>10</title>
<text text-anchor="start" x="679.5" y="-407.8" font-family="Arial" font-weight="bold" font-size="14.00"> &lt; 32.2</text>
<path fill="#ebebeb" stroke="transparent" d="M659,-335C659,-335 743,-335 743,-335 749,-335 755,-341 755,-347 755,-347 755,-387 755,-387 755,-393 749,-399 743,-399 743,-399 659,-399 659,-399 653,-399 647,-393 647,-387 647,-387 647,-347 647,-347 647,-341 653,-335 659,-335"/>
<text text-anchor="start" x="648" y="-396.4" font-family="Arial" font-size="2.00"> </text>
<text text-anchor="start" x="648" y="-390.4" font-family="Arial" font-size="7.00"> &#160;10</text>
<text text-anchor="start" x="662" y="-373.8" font-family="Arial" font-weight="bold" font-size="14.00">Mean: 24.34</text>
<text text-anchor="start" x="681" y="-356.8" font-family="Arial" font-weight="bold" font-size="14.00">n = 79</text>
<text text-anchor="start" x="699.5" y="-338.8" font-family="Arial" font-size="9.00"> </text>
<path fill="none" stroke="#333333" d="M659,-335C659,-335 743,-335 743,-335 749,-335 755,-341 755,-347 755,-347 755,-387 755,-387 755,-393 749,-399 743,-399 743,-399 659,-399 659,-399 653,-399 647,-393 647,-387 647,-387 647,-347 647,-347 647,-341 653,-335 659,-335"/>
<text text-anchor="start" x="686.5" y="-320.8" font-family="Arial" font-weight="bold" font-size="14.00">time</text>
</g>
<!-- 9&#45;&gt;10 -->
<g id="edge9" class="edge">
<title>9&#45;&gt;10</title>
<path fill="none" stroke="#888888" d="M701.62,-461.67C701.56,-453.39 701.51,-444.83 701.45,-436.38"/>
<polygon fill="#888888" stroke="#888888" points="704.95,-436.15 701.38,-426.18 697.95,-436.2 704.95,-436.15"/>
</g>
<!-- 17 -->
<g id="node11" class="node">
<title>17</title>
<text text-anchor="start" x="1063" y="-407.8" font-family="Arial" font-weight="bold" font-size="14.00"> ≥ 32.2</text>
<path fill="#ebebeb" stroke="transparent" d="M1042,-335C1042,-335 1126,-335 1126,-335 1132,-335 1138,-341 1138,-347 1138,-347 1138,-387 1138,-387 1138,-393 1132,-399 1126,-399 1126,-399 1042,-399 1042,-399 1036,-399 1030,-393 1030,-387 1030,-387 1030,-347 1030,-347 1030,-341 1036,-335 1042,-335"/>
<text text-anchor="start" x="1031" y="-396.4" font-family="Arial" font-size="2.00"> </text>
<text text-anchor="start" x="1031" y="-390.4" font-family="Arial" font-size="7.00"> &#160;17</text>
<text text-anchor="start" x="1045" y="-373.8" font-family="Arial" font-weight="bold" font-size="14.00">Mean: 36.06</text>
<text text-anchor="start" x="1064" y="-356.8" font-family="Arial" font-weight="bold" font-size="14.00">n = 61</text>
<text text-anchor="start" x="1082.5" y="-338.8" font-family="Arial" font-size="9.00"> </text>
<path fill="none" stroke="#333333" d="M1042,-335C1042,-335 1126,-335 1126,-335 1132,-335 1138,-341 1138,-347 1138,-347 1138,-387 1138,-387 1138,-393 1132,-399 1126,-399 1126,-399 1042,-399 1042,-399 1036,-399 1030,-393 1030,-387 1030,-387 1030,-347 1030,-347 1030,-341 1036,-335 1042,-335"/>
<text text-anchor="start" x="1069.5" y="-320.8" font-family="Arial" font-weight="bold" font-size="14.00">time</text>
</g>
<!-- 9&#45;&gt;17 -->
<g id="edge10" class="edge">
<title>9&#45;&gt;17</title>
<path fill="none" stroke="#888888" d="M780.23,-488.87C847.01,-462.3 942.45,-424.32 1008.45,-398.06"/>
<polygon fill="#888888" stroke="#888888" points="1009.97,-401.22 1017.97,-394.27 1007.38,-394.72 1009.97,-401.22"/>
</g>
<!-- 4 -->
<g id="node6" class="node">
<title>4</title>
<text text-anchor="start" x="200" y="-253.8" font-family="Arial" font-weight="bold" font-size="14.00"> &lt; 34.71</text>
<path fill="#ebebeb" stroke="transparent" d="M183,-181C183,-181 267,-181 267,-181 273,-181 279,-187 279,-193 279,-193 279,-233 279,-233 279,-239 273,-245 267,-245 267,-245 183,-245 183,-245 177,-245 171,-239 171,-233 171,-233 171,-193 171,-193 171,-187 177,-181 183,-181"/>
<text text-anchor="start" x="172" y="-242.4" font-family="Arial" font-size="2.00"> </text>
<text text-anchor="start" x="172" y="-236.4" font-family="Arial" font-size="7.00"> &#160;4</text>
<text text-anchor="start" x="186" y="-219.8" font-family="Arial" font-weight="bold" font-size="14.00">Mean: 34.64</text>
<text text-anchor="start" x="205" y="-202.8" font-family="Arial" font-weight="bold" font-size="14.00">n = 13</text>
<text text-anchor="start" x="223.5" y="-184.8" font-family="Arial" font-size="9.00"> </text>
<path fill="none" stroke="#333333" d="M183,-181C183,-181 267,-181 267,-181 273,-181 279,-187 279,-193 279,-193 279,-233 279,-233 279,-239 273,-245 267,-245 267,-245 183,-245 183,-245 177,-245 171,-239 171,-233 171,-233 171,-193 171,-193 171,-187 177,-181 183,-181"/>
<text text-anchor="start" x="189.5" y="-166.8" font-family="Arial" font-weight="bold" font-size="14.00">windspeed</text>
</g>
<!-- 3&#45;&gt;4 -->
<g id="edge5" class="edge">
<title>3&#45;&gt;4</title>
<path fill="none" stroke="#888888" d="M319.28,-307.67C309.95,-298.39 300.24,-288.75 290.76,-279.33"/>
<polygon fill="#888888" stroke="#888888" points="293.12,-276.74 283.56,-272.18 288.19,-281.71 293.12,-276.74"/>
</g>
<!-- 7 -->
<g id="node7" class="node">
<title>7</title>
<text text-anchor="start" x="353.5" y="-253.8" font-family="Arial" font-weight="bold" font-size="14.00"> ≥ 34.71</text>
<path fill="#f8766d" fill-opacity="0.443137" stroke="transparent" d="M333,-181C333,-181 423,-181 423,-181 429,-181 435,-187 435,-193 435,-193 435,-233 435,-233 435,-239 429,-245 423,-245 423,-245 333,-245 333,-245 327,-245 321,-239 321,-233 321,-233 321,-193 321,-193 321,-187 327,-181 333,-181"/>
<text text-anchor="start" x="322" y="-242.4" font-family="Arial" font-size="2.00"> </text>
<text text-anchor="start" x="322" y="-236.4" font-family="Arial" font-size="7.00"> &#160;7</text>
<text text-anchor="start" x="336" y="-219.8" font-family="Arial" font-weight="bold" font-size="14.00">Predict 39.81</text>
<text text-anchor="start" x="358" y="-202.8" font-family="Arial" font-weight="bold" font-size="14.00">n = 14</text>
<text text-anchor="start" x="376.5" y="-184.8" font-family="Arial" font-size="9.00"> </text>
<path fill="none" stroke="#333333" d="M333,-181C333,-181 423,-181 423,-181 429,-181 435,-187 435,-193 435,-193 435,-233 435,-233 435,-239 429,-245 423,-245 423,-245 333,-245 333,-245 327,-245 321,-239 321,-233 321,-233 321,-193 321,-193 321,-187 327,-181 333,-181"/>
<text text-anchor="start" x="376" y="-166.8" font-family="Arial" font-weight="bold" font-size="14.00"> </text>
</g>
<!-- 3&#45;&gt;7 -->
<g id="edge6" class="edge">
<title>3&#45;&gt;7</title>
<path fill="none" stroke="#888888" d="M378,-307.67C378,-299.39 378,-290.83 378,-282.38"/>
<polygon fill="#888888" stroke="#888888" points="381.5,-282.18 378,-272.18 374.5,-282.18 381.5,-282.18"/>
</g>
<!-- 5 -->
<g id="node8" class="node">
<title>5</title>
<text text-anchor="start" x="51.5" y="-99.8" font-family="Arial" font-weight="bold" font-size="14.00"> &lt; 7.5</text>
<path fill="#f8766d" fill-opacity="0.376471" stroke="transparent" d="M24,-27C24,-27 114,-27 114,-27 120,-27 126,-33 126,-39 126,-39 126,-79 126,-79 126,-85 120,-91 114,-91 114,-91 24,-91 24,-91 18,-91 12,-85 12,-79 12,-79 12,-39 12,-39 12,-33 18,-27 24,-27"/>
<text text-anchor="start" x="13" y="-88.4" font-family="Arial" font-size="2.00"> </text>
<text text-anchor="start" x="13" y="-82.4" font-family="Arial" font-size="7.00"> &#160;5</text>
<text text-anchor="start" x="27" y="-65.8" font-family="Arial" font-weight="bold" font-size="14.00">Predict 43.68</text>
<text text-anchor="start" x="53" y="-48.8" font-family="Arial" font-weight="bold" font-size="14.00">n = 1</text>
<text text-anchor="start" x="67.5" y="-30.8" font-family="Arial" font-size="9.00"> </text>
<path fill="none" stroke="#333333" d="M24,-27C24,-27 114,-27 114,-27 120,-27 126,-33 126,-39 126,-39 126,-79 126,-79 126,-85 120,-91 114,-91 114,-91 24,-91 24,-91 18,-91 12,-85 12,-79 12,-79 12,-39 12,-39 12,-33 18,-27 24,-27"/>
<text text-anchor="start" x="67" y="-12.8" font-family="Arial" font-weight="bold" font-size="14.00"> </text>
</g>
<!-- 4&#45;&gt;5 -->
<g id="edge7" class="edge">
<title>4&#45;&gt;5</title>
<path fill="none" stroke="#888888" d="M165.13,-153.67C155.62,-144.39 145.72,-134.75 136.05,-125.33"/>
<polygon fill="#888888" stroke="#888888" points="138.31,-122.65 128.71,-118.18 133.43,-127.66 138.31,-122.65"/>
</g>
<!-- 6 -->
<g id="node9" class="node">
<title>6</title>
<text text-anchor="start" x="208" y="-99.8" font-family="Arial" font-weight="bold" font-size="14.00"> ≥ 7.5</text>
<path fill="#f8766d" fill-opacity="0.552941" stroke="transparent" d="M180,-27C180,-27 270,-27 270,-27 276,-27 282,-33 282,-39 282,-39 282,-79 282,-79 282,-85 276,-91 270,-91 270,-91 180,-91 180,-91 174,-91 168,-85 168,-79 168,-79 168,-39 168,-39 168,-33 174,-27 180,-27"/>
<text text-anchor="start" x="169" y="-88.4" font-family="Arial" font-size="2.00"> </text>
<text text-anchor="start" x="169" y="-82.4" font-family="Arial" font-size="7.00"> &#160;6</text>
<text text-anchor="start" x="183" y="-65.8" font-family="Arial" font-weight="bold" font-size="14.00">Predict 33.89</text>
<text text-anchor="start" x="205" y="-48.8" font-family="Arial" font-weight="bold" font-size="14.00">n = 12</text>
<text text-anchor="start" x="223.5" y="-30.8" font-family="Arial" font-size="9.00"> </text>
<path fill="none" stroke="#333333" d="M180,-27C180,-27 270,-27 270,-27 276,-27 282,-33 282,-39 282,-39 282,-79 282,-79 282,-85 276,-91 270,-91 270,-91 180,-91 180,-91 174,-91 168,-85 168,-79 168,-79 168,-39 168,-39 168,-33 174,-27 180,-27"/>
<text text-anchor="start" x="223" y="-12.8" font-family="Arial" font-weight="bold" font-size="14.00"> </text>
</g>
<!-- 4&#45;&gt;6 -->
<g id="edge8" class="edge">
<title>4&#45;&gt;6</title>
<path fill="none" stroke="#888888" d="M225,-153.67C225,-145.39 225,-136.83 225,-128.38"/>
<polygon fill="#888888" stroke="#888888" points="228.5,-128.18 225,-118.18 221.5,-128.18 228.5,-128.18"/>
</g>
<!-- 11 -->
<g id="node12" class="node">
<title>11</title>
<text text-anchor="start" x="520.5" y="-253.8" font-family="Arial" font-weight="bold" font-size="14.00"> &lt; 4.5</text>
<path fill="#ebebeb" stroke="transparent" d="M496,-181C496,-181 580,-181 580,-181 586,-181 592,-187 592,-193 592,-193 592,-233 592,-233 592,-239 586,-245 580,-245 580,-245 496,-245 496,-245 490,-245 484,-239 484,-233 484,-233 484,-193 484,-193 484,-187 490,-181 496,-181"/>
<text text-anchor="start" x="485" y="-242.4" font-family="Arial" font-size="2.00"> </text>
<text text-anchor="start" x="485" y="-236.4" font-family="Arial" font-size="7.00"> &#160;11</text>
<text text-anchor="start" x="499" y="-219.8" font-family="Arial" font-weight="bold" font-size="14.00">Mean: 19.37</text>
<text text-anchor="start" x="518" y="-202.8" font-family="Arial" font-weight="bold" font-size="14.00">n = 35</text>
<text text-anchor="start" x="536.5" y="-184.8" font-family="Arial" font-size="9.00"> </text>
<path fill="none" stroke="#333333" d="M496,-181C496,-181 580,-181 580,-181 586,-181 592,-187 592,-193 592,-193 592,-233 592,-233 592,-239 586,-245 580,-245 580,-245 496,-245 496,-245 490,-245 484,-239 484,-233 484,-233 484,-193 484,-193 484,-187 490,-181 496,-181"/>
<text text-anchor="start" x="502.5" y="-166.8" font-family="Arial" font-weight="bold" font-size="14.00">windspeed</text>
</g>
<!-- 10&#45;&gt;11 -->
<g id="edge11" class="edge">
<title>10&#45;&gt;11</title>
<path fill="none" stroke="#888888" d="M638.45,-307.67C628.4,-298.3 617.96,-288.56 607.76,-279.05"/>
<polygon fill="#888888" stroke="#888888" points="610.09,-276.44 600.39,-272.18 605.31,-281.56 610.09,-276.44"/>
</g>
<!-- 14 -->
<g id="node13" class="node">
<title>14</title>
<text text-anchor="start" x="684" y="-253.8" font-family="Arial" font-weight="bold" font-size="14.00"> ≥ 4.5</text>
<text text-anchor="start" x="633" y="-209.3" font-family="Arial" font-size="14.00"> &#160;&#160;&#160;</text>
<path fill="#ebebeb" stroke="transparent" d="M663,-181C663,-181 739,-181 739,-181 745,-181 751,-187 751,-193 751,-193 751,-233 751,-233 751,-239 745,-245 739,-245 739,-245 663,-245 663,-245 657,-245 651,-239 651,-233 651,-233 651,-193 651,-193 651,-187 657,-181 663,-181"/>
<text text-anchor="start" x="652" y="-242.4" font-family="Arial" font-size="2.00"> </text>
<text text-anchor="start" x="652" y="-236.4" font-family="Arial" font-size="7.00"> &#160;14</text>
<text text-anchor="start" x="666" y="-219.8" font-family="Arial" font-weight="bold" font-size="14.00">Mean: 28.3</text>
<text text-anchor="start" x="681" y="-202.8" font-family="Arial" font-weight="bold" font-size="14.00">n = 44</text>
<text text-anchor="start" x="699.5" y="-184.8" font-family="Arial" font-size="9.00"> </text>
<path fill="none" stroke="#333333" d="M663,-181C663,-181 739,-181 739,-181 745,-181 751,-187 751,-193 751,-193 751,-233 751,-233 751,-239 745,-245 739,-245 739,-245 663,-245 663,-245 657,-245 651,-239 651,-233 651,-233 651,-193 651,-193 651,-187 657,-181 663,-181"/>
<text text-anchor="start" x="753" y="-209.3" font-family="Arial" font-size="14.00"> &#160;&#160;&#160;</text>
<text text-anchor="start" x="648" y="-166.8" font-family="Arial" font-weight="bold" font-size="14.00">prev_168_inflow</text>
</g>
<!-- 10&#45;&gt;14 -->
<g id="edge12" class="edge">
<title>10&#45;&gt;14</title>
<path fill="none" stroke="#888888" d="M701,-307.67C701,-299.39 701,-290.83 701,-282.38"/>
<polygon fill="#888888" stroke="#888888" points="704.5,-282.18 701,-272.18 697.5,-282.18 704.5,-282.18"/>
</g>
<!-- 18 -->
<g id="node18" class="node">
<title>18</title>
<text text-anchor="start" x="1066.5" y="-253.8" font-family="Arial" font-weight="bold" font-size="14.00"> &lt; 9.5</text>
<path fill="#ebebeb" stroke="transparent" d="M1042,-181C1042,-181 1126,-181 1126,-181 1132,-181 1138,-187 1138,-193 1138,-193 1138,-233 1138,-233 1138,-239 1132,-245 1126,-245 1126,-245 1042,-245 1042,-245 1036,-245 1030,-239 1030,-233 1030,-233 1030,-193 1030,-193 1030,-187 1036,-181 1042,-181"/>
<text text-anchor="start" x="1031" y="-242.4" font-family="Arial" font-size="2.00"> </text>
<text text-anchor="start" x="1031" y="-236.4" font-family="Arial" font-size="7.00"> &#160;18</text>
<text text-anchor="start" x="1045" y="-219.8" font-family="Arial" font-weight="bold" font-size="14.00">Mean: 38.62</text>
<text text-anchor="start" x="1064" y="-202.8" font-family="Arial" font-weight="bold" font-size="14.00">n = 16</text>
<text text-anchor="start" x="1082.5" y="-184.8" font-family="Arial" font-size="9.00"> </text>
<path fill="none" stroke="#333333" d="M1042,-181C1042,-181 1126,-181 1126,-181 1132,-181 1138,-187 1138,-193 1138,-193 1138,-233 1138,-233 1138,-239 1132,-245 1126,-245 1126,-245 1042,-245 1042,-245 1036,-245 1030,-239 1030,-233 1030,-233 1030,-193 1030,-193 1030,-187 1036,-181 1042,-181"/>
<text text-anchor="start" x="1051" y="-166.8" font-family="Arial" font-weight="bold" font-size="14.00">air_humid</text>
</g>
<!-- 17&#45;&gt;18 -->
<g id="edge17" class="edge">
<title>17&#45;&gt;18</title>
<path fill="none" stroke="#888888" d="M1084,-307.67C1084,-299.39 1084,-290.83 1084,-282.38"/>
<polygon fill="#888888" stroke="#888888" points="1087.5,-282.18 1084,-272.18 1080.5,-282.18 1087.5,-282.18"/>
</g>
<!-- 21 -->
<g id="node19" class="node">
<title>21</title>
<text text-anchor="start" x="1301" y="-253.8" font-family="Arial" font-weight="bold" font-size="14.00"> ≥ 9.5</text>
<path fill="#ebebeb" stroke="transparent" d="M1276,-181C1276,-181 1360,-181 1360,-181 1366,-181 1372,-187 1372,-193 1372,-193 1372,-233 1372,-233 1372,-239 1366,-245 1360,-245 1360,-245 1276,-245 1276,-245 1270,-245 1264,-239 1264,-233 1264,-233 1264,-193 1264,-193 1264,-187 1270,-181 1276,-181"/>
<text text-anchor="start" x="1265" y="-242.4" font-family="Arial" font-size="2.00"> </text>
<text text-anchor="start" x="1265" y="-236.4" font-family="Arial" font-size="7.00"> &#160;21</text>
<text text-anchor="start" x="1279" y="-219.8" font-family="Arial" font-weight="bold" font-size="14.00">Mean: 35.14</text>
<text text-anchor="start" x="1298" y="-202.8" font-family="Arial" font-weight="bold" font-size="14.00">n = 45</text>
<text text-anchor="start" x="1316.5" y="-184.8" font-family="Arial" font-size="9.00"> </text>
<path fill="none" stroke="#333333" d="M1276,-181C1276,-181 1360,-181 1360,-181 1366,-181 1372,-187 1372,-193 1372,-193 1372,-233 1372,-233 1372,-239 1366,-245 1360,-245 1360,-245 1276,-245 1276,-245 1270,-245 1264,-239 1264,-233 1264,-233 1264,-193 1264,-193 1264,-187 1270,-181 1276,-181"/>
<text text-anchor="start" x="1303.5" y="-166.8" font-family="Arial" font-weight="bold" font-size="14.00">time</text>
</g>
<!-- 17&#45;&gt;21 -->
<g id="edge18" class="edge">
<title>17&#45;&gt;21</title>
<path fill="none" stroke="#888888" d="M1150.12,-323.05C1179.02,-304.28 1213.08,-282.16 1242.93,-262.76"/>
<polygon fill="#888888" stroke="#888888" points="1245.16,-265.49 1251.64,-257.1 1241.35,-259.62 1245.16,-265.49"/>
</g>
<!-- 12 -->
<g id="node14" class="node">
<title>12</title>
<text text-anchor="start" x="360.5" y="-99.8" font-family="Arial" font-weight="bold" font-size="14.00"> &lt; 10.5</text>
<path fill="#f8766d" fill-opacity="0.874510" stroke="transparent" d="M337,-27C337,-27 427,-27 427,-27 433,-27 439,-33 439,-39 439,-39 439,-79 439,-79 439,-85 433,-91 427,-91 427,-91 337,-91 337,-91 331,-91 325,-85 325,-79 325,-79 325,-39 325,-39 325,-33 331,-27 337,-27"/>
<text text-anchor="start" x="326" y="-88.4" font-family="Arial" font-size="2.00"> </text>
<text text-anchor="start" x="326" y="-82.4" font-family="Arial" font-size="7.00"> &#160;12</text>
<text text-anchor="start" x="340" y="-65.8" font-family="Arial" font-weight="bold" font-size="14.00">Predict 15.89</text>
<text text-anchor="start" x="362" y="-48.8" font-family="Arial" font-weight="bold" font-size="14.00">n = 12</text>
<text text-anchor="start" x="380.5" y="-30.8" font-family="Arial" font-size="9.00"> </text>
<path fill="none" stroke="#333333" d="M337,-27C337,-27 427,-27 427,-27 433,-27 439,-33 439,-39 439,-39 439,-79 439,-79 439,-85 433,-91 427,-91 427,-91 337,-91 337,-91 331,-91 325,-85 325,-79 325,-79 325,-39 325,-39 325,-33 331,-27 337,-27"/>
<text text-anchor="start" x="380" y="-12.8" font-family="Arial" font-weight="bold" font-size="14.00"> </text>
</g>
<!-- 11&#45;&gt;12 -->
<g id="edge13" class="edge">
<title>11&#45;&gt;12</title>
<path fill="none" stroke="#888888" d="M478.13,-153.67C468.62,-144.39 458.72,-134.75 449.05,-125.33"/>
<polygon fill="#888888" stroke="#888888" points="451.31,-122.65 441.71,-118.18 446.43,-127.66 451.31,-122.65"/>
</g>
<!-- 13 -->
<g id="node15" class="node">
<title>13</title>
<text text-anchor="start" x="517" y="-99.8" font-family="Arial" font-weight="bold" font-size="14.00"> ≥ 10.5</text>
<path fill="#f8766d" fill-opacity="0.780392" stroke="transparent" d="M493,-27C493,-27 583,-27 583,-27 589,-27 595,-33 595,-39 595,-39 595,-79 595,-79 595,-85 589,-91 583,-91 583,-91 493,-91 493,-91 487,-91 481,-85 481,-79 481,-79 481,-39 481,-39 481,-33 487,-27 493,-27"/>
<text text-anchor="start" x="482" y="-88.4" font-family="Arial" font-size="2.00"> </text>
<text text-anchor="start" x="482" y="-82.4" font-family="Arial" font-size="7.00"> &#160;13</text>
<text text-anchor="start" x="496" y="-65.8" font-family="Arial" font-weight="bold" font-size="14.00">Predict 21.19</text>
<text text-anchor="start" x="518" y="-48.8" font-family="Arial" font-weight="bold" font-size="14.00">n = 23</text>
<text text-anchor="start" x="536.5" y="-30.8" font-family="Arial" font-size="9.00"> </text>
<path fill="none" stroke="#333333" d="M493,-27C493,-27 583,-27 583,-27 589,-27 595,-33 595,-39 595,-39 595,-79 595,-79 595,-85 589,-91 583,-91 583,-91 493,-91 493,-91 487,-91 481,-85 481,-79 481,-79 481,-39 481,-39 481,-33 487,-27 493,-27"/>
<text text-anchor="start" x="536" y="-12.8" font-family="Arial" font-weight="bold" font-size="14.00"> </text>
</g>
<!-- 11&#45;&gt;13 -->
<g id="edge14" class="edge">
<title>11&#45;&gt;13</title>
<path fill="none" stroke="#888888" d="M538,-153.67C538,-145.39 538,-136.83 538,-128.38"/>
<polygon fill="#888888" stroke="#888888" points="541.5,-128.18 538,-118.18 534.5,-128.18 541.5,-128.18"/>
</g>
<!-- 15 -->
<g id="node16" class="node">
<title>15</title>
<text text-anchor="start" x="669" y="-99.8" font-family="Arial" font-weight="bold" font-size="14.00"> &lt; 27.77</text>
<path fill="#f8766d" fill-opacity="0.725490" stroke="transparent" d="M649,-27C649,-27 739,-27 739,-27 745,-27 751,-33 751,-39 751,-39 751,-79 751,-79 751,-85 745,-91 739,-91 739,-91 649,-91 649,-91 643,-91 637,-85 637,-79 637,-79 637,-39 637,-39 637,-33 643,-27 649,-27"/>
<text text-anchor="start" x="638" y="-88.4" font-family="Arial" font-size="2.00"> </text>
<text text-anchor="start" x="638" y="-82.4" font-family="Arial" font-size="7.00"> &#160;15</text>
<text text-anchor="start" x="652" y="-65.8" font-family="Arial" font-weight="bold" font-size="14.00">Predict 24.12</text>
<text text-anchor="start" x="674" y="-48.8" font-family="Arial" font-weight="bold" font-size="14.00">n = 19</text>
<text text-anchor="start" x="692.5" y="-30.8" font-family="Arial" font-size="9.00"> </text>
<path fill="none" stroke="#333333" d="M649,-27C649,-27 739,-27 739,-27 745,-27 751,-33 751,-39 751,-39 751,-79 751,-79 751,-85 745,-91 739,-91 739,-91 649,-91 649,-91 643,-91 637,-85 637,-79 637,-79 637,-39 637,-39 637,-33 643,-27 649,-27"/>
<text text-anchor="start" x="692" y="-12.8" font-family="Arial" font-weight="bold" font-size="14.00"> </text>
</g>
<!-- 14&#45;&gt;15 -->
<g id="edge15" class="edge">
<title>14&#45;&gt;15</title>
<path fill="none" stroke="#888888" d="M698.31,-153.67C697.93,-145.39 697.54,-136.83 697.15,-128.38"/>
<polygon fill="#888888" stroke="#888888" points="700.64,-128 696.68,-118.18 693.64,-128.33 700.64,-128"/>
</g>
<!-- 16 -->
<g id="node17" class="node">
<title>16</title>
<text text-anchor="start" x="825.5" y="-99.8" font-family="Arial" font-weight="bold" font-size="14.00"> ≥ 27.77</text>
<path fill="#f8766d" fill-opacity="0.596078" stroke="transparent" d="M805,-27C805,-27 895,-27 895,-27 901,-27 907,-33 907,-39 907,-39 907,-79 907,-79 907,-85 901,-91 895,-91 895,-91 805,-91 805,-91 799,-91 793,-85 793,-79 793,-79 793,-39 793,-39 793,-33 799,-27 805,-27"/>
<text text-anchor="start" x="794" y="-88.4" font-family="Arial" font-size="2.00"> </text>
<text text-anchor="start" x="794" y="-82.4" font-family="Arial" font-size="7.00"> &#160;16</text>
<text text-anchor="start" x="808" y="-65.8" font-family="Arial" font-weight="bold" font-size="14.00">Predict 31.47</text>
<text text-anchor="start" x="830" y="-48.8" font-family="Arial" font-weight="bold" font-size="14.00">n = 25</text>
<text text-anchor="start" x="848.5" y="-30.8" font-family="Arial" font-size="9.00"> </text>
<path fill="none" stroke="#333333" d="M805,-27C805,-27 895,-27 895,-27 901,-27 907,-33 907,-39 907,-39 907,-79 907,-79 907,-85 901,-91 895,-91 895,-91 805,-91 805,-91 799,-91 793,-85 793,-79 793,-79 793,-39 793,-39 793,-33 799,-27 805,-27"/>
<text text-anchor="start" x="848" y="-12.8" font-family="Arial" font-weight="bold" font-size="14.00"> </text>
</g>
<!-- 14&#45;&gt;16 -->
<g id="edge16" class="edge">
<title>14&#45;&gt;16</title>
<path fill="none" stroke="#888888" d="M758.18,-153.67C767.27,-144.39 776.73,-134.75 785.96,-125.33"/>
<polygon fill="#888888" stroke="#888888" points="788.47,-127.77 792.97,-118.18 783.47,-122.87 788.47,-127.77"/>
</g>
<!-- 19 -->
<g id="node20" class="node">
<title>19</title>
<text text-anchor="start" x="984.5" y="-99.8" font-family="Arial" font-weight="bold" font-size="14.00"> &lt; 51.5</text>
<path fill="#f8766d" fill-opacity="0.411765" stroke="transparent" d="M961,-27C961,-27 1051,-27 1051,-27 1057,-27 1063,-33 1063,-39 1063,-39 1063,-79 1063,-79 1063,-85 1057,-91 1051,-91 1051,-91 961,-91 961,-91 955,-91 949,-85 949,-79 949,-79 949,-39 949,-39 949,-33 955,-27 961,-27"/>
<text text-anchor="start" x="950" y="-88.4" font-family="Arial" font-size="2.00"> </text>
<text text-anchor="start" x="950" y="-82.4" font-family="Arial" font-size="7.00"> &#160;19</text>
<text text-anchor="start" x="964" y="-65.8" font-family="Arial" font-weight="bold" font-size="14.00">Predict 41.58</text>
<text text-anchor="start" x="990" y="-48.8" font-family="Arial" font-weight="bold" font-size="14.00">n = 6</text>
<text text-anchor="start" x="1004.5" y="-30.8" font-family="Arial" font-size="9.00"> </text>
<path fill="none" stroke="#333333" d="M961,-27C961,-27 1051,-27 1051,-27 1057,-27 1063,-33 1063,-39 1063,-39 1063,-79 1063,-79 1063,-85 1057,-91 1051,-91 1051,-91 961,-91 961,-91 955,-91 949,-85 949,-79 949,-79 949,-39 949,-39 949,-33 955,-27 961,-27"/>
<text text-anchor="start" x="1004" y="-12.8" font-family="Arial" font-weight="bold" font-size="14.00"> </text>
</g>
<!-- 18&#45;&gt;19 -->
<g id="edge19" class="edge">
<title>18&#45;&gt;19</title>
<path fill="none" stroke="#888888" d="M1054.07,-153.67C1049.63,-145.03 1045.04,-136.07 1040.52,-127.27"/>
<polygon fill="#888888" stroke="#888888" points="1043.53,-125.48 1035.85,-118.18 1037.31,-128.67 1043.53,-125.48"/>
</g>
<!-- 20 -->
<g id="node21" class="node">
<title>20</title>
<text text-anchor="start" x="1141" y="-99.8" font-family="Arial" font-weight="bold" font-size="14.00"> ≥ 51.5</text>
<path fill="#f8766d" fill-opacity="0.498039" stroke="transparent" d="M1117,-27C1117,-27 1207,-27 1207,-27 1213,-27 1219,-33 1219,-39 1219,-39 1219,-79 1219,-79 1219,-85 1213,-91 1207,-91 1207,-91 1117,-91 1117,-91 1111,-91 1105,-85 1105,-79 1105,-79 1105,-39 1105,-39 1105,-33 1111,-27 1117,-27"/>
<text text-anchor="start" x="1106" y="-88.4" font-family="Arial" font-size="2.00"> </text>
<text text-anchor="start" x="1106" y="-82.4" font-family="Arial" font-size="7.00"> &#160;20</text>
<text text-anchor="start" x="1120" y="-65.8" font-family="Arial" font-weight="bold" font-size="14.00">Predict 36.85</text>
<text text-anchor="start" x="1142" y="-48.8" font-family="Arial" font-weight="bold" font-size="14.00">n = 10</text>
<text text-anchor="start" x="1160.5" y="-30.8" font-family="Arial" font-size="9.00"> </text>
<path fill="none" stroke="#333333" d="M1117,-27C1117,-27 1207,-27 1207,-27 1213,-27 1219,-33 1219,-39 1219,-39 1219,-79 1219,-79 1219,-85 1213,-91 1207,-91 1207,-91 1117,-91 1117,-91 1111,-91 1105,-85 1105,-79 1105,-79 1105,-39 1105,-39 1105,-33 1111,-27 1117,-27"/>
<text text-anchor="start" x="1160" y="-12.8" font-family="Arial" font-weight="bold" font-size="14.00"> </text>
</g>
<!-- 18&#45;&gt;20 -->
<g id="edge20" class="edge">
<title>18&#45;&gt;20</title>
<path fill="none" stroke="#888888" d="M1113.93,-153.67C1118.37,-145.03 1122.96,-136.07 1127.48,-127.27"/>
<polygon fill="#888888" stroke="#888888" points="1130.69,-128.67 1132.15,-118.18 1124.47,-125.48 1130.69,-128.67"/>
</g>
<!-- 22 -->
<g id="node22" class="node">
<title>22</title>
<text text-anchor="start" x="1296.5" y="-99.8" font-family="Arial" font-weight="bold" font-size="14.00"> &lt; 16.5</text>
<path fill="#f8766d" fill-opacity="0.603922" stroke="transparent" d="M1273,-27C1273,-27 1363,-27 1363,-27 1369,-27 1375,-33 1375,-39 1375,-39 1375,-79 1375,-79 1375,-85 1369,-91 1363,-91 1363,-91 1273,-91 1273,-91 1267,-91 1261,-85 1261,-79 1261,-79 1261,-39 1261,-39 1261,-33 1267,-27 1273,-27"/>
<text text-anchor="start" x="1262" y="-88.4" font-family="Arial" font-size="2.00"> </text>
<text text-anchor="start" x="1262" y="-82.4" font-family="Arial" font-size="7.00"> &#160;22</text>
<text text-anchor="start" x="1276" y="-65.8" font-family="Arial" font-weight="bold" font-size="14.00">Predict 30.88</text>
<text text-anchor="start" x="1298" y="-48.8" font-family="Arial" font-weight="bold" font-size="14.00">n = 20</text>
<text text-anchor="start" x="1316.5" y="-30.8" font-family="Arial" font-size="9.00"> </text>
<path fill="none" stroke="#333333" d="M1273,-27C1273,-27 1363,-27 1363,-27 1369,-27 1375,-33 1375,-39 1375,-39 1375,-79 1375,-79 1375,-85 1369,-91 1363,-91 1363,-91 1273,-91 1273,-91 1267,-91 1261,-85 1261,-79 1261,-79 1261,-39 1261,-39 1261,-33 1267,-27 1273,-27"/>
<text text-anchor="start" x="1316" y="-12.8" font-family="Arial" font-weight="bold" font-size="14.00"> </text>
</g>
<!-- 21&#45;&gt;22 -->
<g id="edge21" class="edge">
<title>21&#45;&gt;22</title>
<path fill="none" stroke="#888888" d="M1318,-153.67C1318,-145.39 1318,-136.83 1318,-128.38"/>
<polygon fill="#888888" stroke="#888888" points="1321.5,-128.18 1318,-118.18 1314.5,-128.18 1321.5,-128.18"/>
</g>
<!-- 23 -->
<g id="node23" class="node">
<title>23</title>
<text text-anchor="start" x="1453" y="-99.8" font-family="Arial" font-weight="bold" font-size="14.00"> ≥ 16.5</text>
<path fill="#f8766d" fill-opacity="0.466667" stroke="transparent" d="M1429,-27C1429,-27 1519,-27 1519,-27 1525,-27 1531,-33 1531,-39 1531,-39 1531,-79 1531,-79 1531,-85 1525,-91 1519,-91 1519,-91 1429,-91 1429,-91 1423,-91 1417,-85 1417,-79 1417,-79 1417,-39 1417,-39 1417,-33 1423,-27 1429,-27"/>
<text text-anchor="start" x="1418" y="-88.4" font-family="Arial" font-size="2.00"> </text>
<text text-anchor="start" x="1418" y="-82.4" font-family="Arial" font-size="7.00"> &#160;23</text>
<text text-anchor="start" x="1432" y="-65.8" font-family="Arial" font-weight="bold" font-size="14.00">Predict 38.55</text>
<text text-anchor="start" x="1454" y="-48.8" font-family="Arial" font-weight="bold" font-size="14.00">n = 25</text>
<text text-anchor="start" x="1472.5" y="-30.8" font-family="Arial" font-size="9.00"> </text>
<path fill="none" stroke="#333333" d="M1429,-27C1429,-27 1519,-27 1519,-27 1525,-27 1531,-33 1531,-39 1531,-39 1531,-79 1531,-79 1531,-85 1525,-91 1519,-91 1519,-91 1429,-91 1429,-91 1423,-91 1417,-85 1417,-79 1417,-79 1417,-39 1417,-39 1417,-33 1423,-27 1429,-27"/>
<text text-anchor="start" x="1472" y="-12.8" font-family="Arial" font-weight="bold" font-size="14.00"> </text>
</g>
<!-- 21&#45;&gt;23 -->
<g id="edge22" class="edge">
<title>21&#45;&gt;23</title>
<path fill="none" stroke="#888888" d="M1377.87,-153.67C1387.38,-144.39 1397.28,-134.75 1406.95,-125.33"/>
<polygon fill="#888888" stroke="#888888" points="1409.57,-127.66 1414.29,-118.18 1404.69,-122.65 1409.57,-127.66"/>
</g>
</g>
</svg>
