<?xml version="1.0" encoding="UTF-8" standalone="no"?>
<!DOCTYPE svg PUBLIC "-//W3C//DTD SVG 1.1//EN"
 "http://www.w3.org/Graphics/SVG/1.1/DTD/svg11.dtd">
<!-- Generated by graphviz version 2.50.0 (20211204.2007)
 -->
<!-- Pages: 1 -->
<svg width="395pt" height="588pt"
 viewBox="0.00 0.00 395.00 588.00" xmlns="http://www.w3.org/2000/svg" xmlns:xlink="http://www.w3.org/1999/xlink">
<g id="graph0" class="graph" transform="scale(1 1) rotate(0) translate(4 584)">
<polygon fill="white" stroke="transparent" points="-4,4 -4,-584 391,-584 391,4 -4,4"/>
<!-- 1 -->
<g id="node1" class="node">
<title>1</title>
<text text-anchor="start" x="149" y="-561.8" font-family="Arial" font-weight="bold" font-size="14.00"> </text>
<text text-anchor="start" x="79" y="-517.3" font-family="Arial" font-size="14.00"> &#160;&#160;&#160;</text>
<path fill="#ebebeb" stroke="transparent" d="M109,-489C109,-489 193,-489 193,-489 199,-489 205,-495 205,-501 205,-501 205,-541 205,-541 205,-547 199,-553 193,-553 193,-553 109,-553 109,-553 103,-553 97,-547 97,-541 97,-541 97,-501 97,-501 97,-495 103,-489 109,-489"/>
<text text-anchor="start" x="98" y="-550.4" font-family="Arial" font-size="2.00"> </text>
<text text-anchor="start" x="98" y="-544.4" font-family="Arial" font-size="7.00"> &#160;1</text>
<text text-anchor="start" x="112" y="-527.8" font-family="Arial" font-weight="bold" font-size="14.00">Mean: 29.03</text>
<text text-anchor="start" x="127.5" y="-510.8" font-family="Arial" font-weight="bold" font-size="14.00">n = 168</text>
<text text-anchor="start" x="149.5" y="-492.8" font-family="Arial" font-size="9.00"> </text>
<path fill="none" stroke="#333333" d="M109,-489C109,-489 193,-489 193,-489 199,-489 205,-495 205,-501 205,-501 205,-541 205,-541 205,-547 199,-553 193,-553 193,-553 109,-553 109,-553 103,-553 97,-547 97,-541 97,-541 97,-501 97,-501 97,-495 103,-489 109,-489"/>
<text text-anchor="start" x="207" y="-517.3" font-family="Arial" font-size="14.00"> &#160;&#160;&#160;</text>
<text text-anchor="start" x="93.5" y="-474.8" font-family="Arial" font-weight="bold" font-size="14.00">prev_168h_inflow</text>
</g>
<!-- 2 -->
<g id="node2" class="node">
<title>2</title>
<text text-anchor="start" x="44" y="-407.8" font-family="Arial" font-weight="bold" font-size="14.00"> &lt; 23.17</text>
<path fill="#f8766d" fill-opacity="0.874510" stroke="transparent" d="M24,-335C24,-335 114,-335 114,-335 120,-335 126,-341 126,-347 126,-347 126,-387 126,-387 126,-393 120,-399 114,-399 114,-399 24,-399 24,-399 18,-399 12,-393 12,-387 12,-387 12,-347 12,-347 12,-341 18,-335 24,-335"/>
<text text-anchor="start" x="13" y="-396.4" font-family="Arial" font-size="2.00"> </text>
<text text-anchor="start" x="13" y="-390.4" font-family="Arial" font-size="7.00"> &#160;2</text>
<text text-anchor="start" x="27" y="-373.8" font-family="Arial" font-weight="bold" font-size="14.00">Predict 20.99</text>
<text text-anchor="start" x="49" y="-356.8" font-family="Arial" font-weight="bold" font-size="14.00">n = 29</text>
<text text-anchor="start" x="67.5" y="-338.8" font-family="Arial" font-size="9.00"> </text>
<path fill="none" stroke="#333333" d="M24,-335C24,-335 114,-335 114,-335 120,-335 126,-341 126,-347 126,-347 126,-387 126,-387 126,-393 120,-399 114,-399 114,-399 24,-399 24,-399 18,-399 12,-393 12,-387 12,-387 12,-347 12,-347 12,-341 18,-335 24,-335"/>
<text text-anchor="start" x="67" y="-320.8" font-family="Arial" font-weight="bold" font-size="14.00"> </text>
</g>
<!-- 1&#45;&gt;2 -->
<g id="edge1" class="edge">
<title>1&#45;&gt;2</title>
<path fill="none" stroke="#888888" d="M119.53,-461.67C114.82,-452.94 109.94,-443.88 105.14,-434.99"/>
<polygon fill="#888888" stroke="#888888" points="108.21,-433.32 100.38,-426.18 102.05,-436.64 108.21,-433.32"/>
</g>
<!-- 3 -->
<g id="node3" class="node">
<title>3</title>
<text text-anchor="start" x="209.5" y="-407.8" font-family="Arial" font-weight="bold" font-size="14.00"> ≥ 23.17</text>
<text text-anchor="start" x="166" y="-363.3" font-family="Arial" font-size="14.00"> &#160;&#160;</text>
<path fill="#ebebeb" stroke="transparent" d="M192,-335C192,-335 276,-335 276,-335 282,-335 288,-341 288,-347 288,-347 288,-387 288,-387 288,-393 282,-399 276,-399 276,-399 192,-399 192,-399 186,-399 180,-393 180,-387 180,-387 180,-347 180,-347 180,-341 186,-335 192,-335"/>
<text text-anchor="start" x="181" y="-396.4" font-family="Arial" font-size="2.00"> </text>
<text text-anchor="start" x="181" y="-390.4" font-family="Arial" font-size="7.00"> &#160;3</text>
<text text-anchor="start" x="195" y="-373.8" font-family="Arial" font-weight="bold" font-size="14.00">Mean: 30.71</text>
<text text-anchor="start" x="210.5" y="-356.8" font-family="Arial" font-weight="bold" font-size="14.00">n = 139</text>
<text text-anchor="start" x="232.5" y="-338.8" font-family="Arial" font-size="9.00"> </text>
<path fill="none" stroke="#333333" d="M192,-335C192,-335 276,-335 276,-335 282,-335 288,-341 288,-347 288,-347 288,-387 288,-387 288,-393 282,-399 276,-399 276,-399 192,-399 192,-399 186,-399 180,-393 180,-387 180,-387 180,-347 180,-347 180,-341 186,-335 192,-335"/>
<text text-anchor="start" x="290" y="-363.3" font-family="Arial" font-size="14.00"> &#160;&#160;</text>
<text text-anchor="start" x="180.5" y="-320.8" font-family="Arial" font-weight="bold" font-size="14.00">prev_24h_inflow</text>
</g>
<!-- 1&#45;&gt;3 -->
<g id="edge2" class="edge">
<title>1&#45;&gt;3</title>
<path fill="none" stroke="#888888" d="M182.85,-461.67C187.62,-452.94 192.56,-443.88 197.42,-434.99"/>
<polygon fill="#888888" stroke="#888888" points="200.51,-436.63 202.23,-426.18 194.37,-433.28 200.51,-436.63"/>
</g>
<!-- 4 -->
<g id="node4" class="node">
<title>4</title>
<text text-anchor="start" x="124" y="-253.8" font-family="Arial" font-weight="bold" font-size="14.00"> &lt; 32.53</text>
<text text-anchor="start" x="77" y="-209.3" font-family="Arial" font-size="14.00"> &#160;&#160;&#160;</text>
<path fill="#ebebeb" stroke="transparent" d="M107,-181C107,-181 191,-181 191,-181 197,-181 203,-187 203,-193 203,-193 203,-233 203,-233 203,-239 197,-245 191,-245 191,-245 107,-245 107,-245 101,-245 95,-239 95,-233 95,-233 95,-193 95,-193 95,-187 101,-181 107,-181"/>
<text text-anchor="start" x="96" y="-242.4" font-family="Arial" font-size="2.00"> </text>
<text text-anchor="start" x="96" y="-236.4" font-family="Arial" font-size="7.00"> &#160;4</text>
<text text-anchor="start" x="110" y="-219.8" font-family="Arial" font-weight="bold" font-size="14.00">Mean: 29.03</text>
<text text-anchor="start" x="125.5" y="-202.8" font-family="Arial" font-weight="bold" font-size="14.00">n = 101</text>
<text text-anchor="start" x="147.5" y="-184.8" font-family="Arial" font-size="9.00"> </text>
<path fill="none" stroke="#333333" d="M107,-181C107,-181 191,-181 191,-181 197,-181 203,-187 203,-193 203,-193 203,-233 203,-233 203,-239 197,-245 191,-245 191,-245 107,-245 107,-245 101,-245 95,-239 95,-233 95,-233 95,-193 95,-193 95,-187 101,-181 107,-181"/>
<text text-anchor="start" x="205" y="-209.3" font-family="Arial" font-size="14.00"> &#160;&#160;&#160;</text>
<text text-anchor="start" x="91.5" y="-166.8" font-family="Arial" font-weight="bold" font-size="14.00">prev_168h_inflow</text>
</g>
<!-- 3&#45;&gt;4 -->
<g id="edge3" class="edge">
<title>3&#45;&gt;4</title>
<path fill="none" stroke="#888888" d="M201.38,-307.67C196.5,-298.94 191.43,-289.88 186.46,-280.99"/>
<polygon fill="#888888" stroke="#888888" points="189.47,-279.2 181.53,-272.18 183.36,-282.61 189.47,-279.2"/>
</g>
<!-- 7 -->
<g id="node5" class="node">
<title>7</title>
<text text-anchor="start" x="293.5" y="-253.8" font-family="Arial" font-weight="bold" font-size="14.00"> ≥ 32.53</text>
<path fill="#f8766d" fill-opacity="0.376471" stroke="transparent" d="M273,-181C273,-181 363,-181 363,-181 369,-181 375,-187 375,-193 375,-193 375,-233 375,-233 375,-239 369,-245 363,-245 363,-245 273,-245 273,-245 267,-245 261,-239 261,-233 261,-233 261,-193 261,-193 261,-187 267,-181 273,-181"/>
<text text-anchor="start" x="262" y="-242.4" font-family="Arial" font-size="2.00"> </text>
<text text-anchor="start" x="262" y="-236.4" font-family="Arial" font-size="7.00"> &#160;7</text>
<text text-anchor="start" x="276" y="-219.8" font-family="Arial" font-weight="bold" font-size="14.00">Predict 35.17</text>
<text text-anchor="start" x="298" y="-202.8" font-family="Arial" font-weight="bold" font-size="14.00">n = 38</text>
<text text-anchor="start" x="316.5" y="-184.8" font-family="Arial" font-size="9.00"> </text>
<path fill="none" stroke="#333333" d="M273,-181C273,-181 363,-181 363,-181 369,-181 375,-187 375,-193 375,-193 375,-233 375,-233 375,-239 369,-245 363,-245 363,-245 273,-245 273,-245 267,-245 261,-239 261,-233 261,-233 261,-193 261,-193 261,-187 267,-181 273,-181"/>
<text text-anchor="start" x="316" y="-166.8" font-family="Arial" font-weight="bold" font-size="14.00"> </text>
</g>
<!-- 3&#45;&gt;7 -->
<g id="edge4" class="edge">
<title>3&#45;&gt;7</title>
<path fill="none" stroke="#888888" d="M266.24,-307.67C271.06,-298.94 276.06,-289.88 280.98,-280.99"/>
<polygon fill="#888888" stroke="#888888" points="284.08,-282.62 285.85,-272.18 277.95,-279.24 284.08,-282.62"/>
</g>
<!-- 5 -->
<g id="node6" class="node">
<title>5</title>
<text text-anchor="start" x="46" y="-99.8" font-family="Arial" font-weight="bold" font-size="14.00"> &lt; 27.47</text>
<path fill="#f8766d" fill-opacity="0.666667" stroke="transparent" d="M26,-27C26,-27 116,-27 116,-27 122,-27 128,-33 128,-39 128,-39 128,-79 128,-79 128,-85 122,-91 116,-91 116,-91 26,-91 26,-91 20,-91 14,-85 14,-79 14,-79 14,-39 14,-39 14,-33 20,-27 26,-27"/>
<text text-anchor="start" x="15" y="-88.4" font-family="Arial" font-size="2.00"> </text>
<text text-anchor="start" x="15" y="-82.4" font-family="Arial" font-size="7.00"> &#160;5</text>
<text text-anchor="start" x="29" y="-65.8" font-family="Arial" font-weight="bold" font-size="14.00">Predict 26.86</text>
<text text-anchor="start" x="51" y="-48.8" font-family="Arial" font-weight="bold" font-size="14.00">n = 38</text>
<text text-anchor="start" x="69.5" y="-30.8" font-family="Arial" font-size="9.00"> </text>
<path fill="none" stroke="#333333" d="M26,-27C26,-27 116,-27 116,-27 122,-27 128,-33 128,-39 128,-39 128,-79 128,-79 128,-85 122,-91 116,-91 116,-91 26,-91 26,-91 20,-91 14,-85 14,-79 14,-79 14,-39 14,-39 14,-33 20,-27 26,-27"/>
<text text-anchor="start" x="69" y="-12.8" font-family="Arial" font-weight="bold" font-size="14.00"> </text>
</g>
<!-- 4&#45;&gt;5 -->
<g id="edge5" class="edge">
<title>4&#45;&gt;5</title>
<path fill="none" stroke="#888888" d="M119.07,-153.67C114.63,-145.03 110.04,-136.07 105.52,-127.27"/>
<polygon fill="#888888" stroke="#888888" points="108.53,-125.48 100.85,-118.18 102.31,-128.67 108.53,-125.48"/>
</g>
<!-- 6 -->
<g id="node7" class="node">
<title>6</title>
<text text-anchor="start" x="202.5" y="-99.8" font-family="Arial" font-weight="bold" font-size="14.00"> ≥ 27.47</text>
<path fill="#f8766d" fill-opacity="0.545098" stroke="transparent" d="M182,-27C182,-27 272,-27 272,-27 278,-27 284,-33 284,-39 284,-39 284,-79 284,-79 284,-85 278,-91 272,-91 272,-91 182,-91 182,-91 176,-91 170,-85 170,-79 170,-79 170,-39 170,-39 170,-33 176,-27 182,-27"/>
<text text-anchor="start" x="171" y="-88.4" font-family="Arial" font-size="2.00"> </text>
<text text-anchor="start" x="171" y="-82.4" font-family="Arial" font-size="7.00"> &#160;6</text>
<text text-anchor="start" x="185" y="-65.8" font-family="Arial" font-weight="bold" font-size="14.00">Predict 30.34</text>
<text text-anchor="start" x="207" y="-48.8" font-family="Arial" font-weight="bold" font-size="14.00">n = 63</text>
<text text-anchor="start" x="225.5" y="-30.8" font-family="Arial" font-size="9.00"> </text>
<path fill="none" stroke="#333333" d="M182,-27C182,-27 272,-27 272,-27 278,-27 284,-33 284,-39 284,-39 284,-79 284,-79 284,-85 278,-91 272,-91 272,-91 182,-91 182,-91 176,-91 170,-85 170,-79 170,-79 170,-39 170,-39 170,-33 176,-27 182,-27"/>
<text text-anchor="start" x="225" y="-12.8" font-family="Arial" font-weight="bold" font-size="14.00"> </text>
</g>
<!-- 4&#45;&gt;6 -->
<g id="edge6" class="edge">
<title>4&#45;&gt;6</title>
<path fill="none" stroke="#888888" d="M178.93,-153.67C183.37,-145.03 187.96,-136.07 192.48,-127.27"/>
<polygon fill="#888888" stroke="#888888" points="195.69,-128.67 197.15,-118.18 189.47,-125.48 195.69,-128.67"/>
</g>
</g>
</svg>
