<?xml version="1.0" encoding="utf-8"?>
<svg xmlns="http://www.w3.org/2000/svg" xmlns:xlink="http://www.w3.org/1999/xlink" width="500" height="250" viewBox="0 0 2000 1000">
<defs>
  <clipPath id="clip780">
    <rect x="0" y="0" width="2000" height="1000"/>
  </clipPath>
</defs>
<path clip-path="url(#clip780)" d="M0 1000 L2000 1000 L2000 0 L0 0  Z" fill="#ffffff" fill-rule="evenodd" fill-opacity="1"/>
<defs>
  <clipPath id="clip781">
    <rect x="400" y="0" width="1401" height="1000"/>
  </clipPath>
</defs>
<path clip-path="url(#clip780)" d="M191.557 897.848 L1952.76 897.848 L1952.76 47.2441 L191.557 47.2441  Z" fill="#ffffff" fill-rule="evenodd" fill-opacity="1"/>
<defs>
  <clipPath id="clip782">
    <rect x="191" y="47" width="1762" height="852"/>
  </clipPath>
</defs>
<polyline clip-path="url(#clip782)" style="stroke:#000000; stroke-linecap:round; stroke-linejoin:round; stroke-width:2; stroke-opacity:0.1; fill:none" points="241.402,897.848 241.402,47.2441 "/>
<polyline clip-path="url(#clip782)" style="stroke:#000000; stroke-linecap:round; stroke-linejoin:round; stroke-width:2; stroke-opacity:0.1; fill:none" points="718.961,897.848 718.961,47.2441 "/>
<polyline clip-path="url(#clip782)" style="stroke:#000000; stroke-linecap:round; stroke-linejoin:round; stroke-width:2; stroke-opacity:0.1; fill:none" points="1196.52,897.848 1196.52,47.2441 "/>
<polyline clip-path="url(#clip782)" style="stroke:#000000; stroke-linecap:round; stroke-linejoin:round; stroke-width:2; stroke-opacity:0.1; fill:none" points="1674.08,897.848 1674.08,47.2441 "/>
<polyline clip-path="url(#clip780)" style="stroke:#000000; stroke-linecap:round; stroke-linejoin:round; stroke-width:4; stroke-opacity:1; fill:none" points="191.557,897.848 1952.76,897.848 "/>
<polyline clip-path="url(#clip780)" style="stroke:#000000; stroke-linecap:round; stroke-linejoin:round; stroke-width:4; stroke-opacity:1; fill:none" points="241.402,897.848 241.402,878.95 "/>
<polyline clip-path="url(#clip780)" style="stroke:#000000; stroke-linecap:round; stroke-linejoin:round; stroke-width:4; stroke-opacity:1; fill:none" points="718.961,897.848 718.961,878.95 "/>
<polyline clip-path="url(#clip780)" style="stroke:#000000; stroke-linecap:round; stroke-linejoin:round; stroke-width:4; stroke-opacity:1; fill:none" points="1196.52,897.848 1196.52,878.95 "/>
<polyline clip-path="url(#clip780)" style="stroke:#000000; stroke-linecap:round; stroke-linejoin:round; stroke-width:4; stroke-opacity:1; fill:none" points="1674.08,897.848 1674.08,878.95 "/>
<path clip-path="url(#clip780)" d="M97.0406 958.021 L115.4 958.021 L115.4 962.448 L90.7125 962.448 L90.7125 958.021 Q93.7072 954.922 98.8635 949.714 Q104.046 944.479 105.374 942.969 Q107.9 940.13 108.889 938.177 Q109.905 936.198 109.905 934.297 Q109.905 931.198 107.718 929.245 Q105.556 927.292 102.067 927.292 Q99.5926 927.292 96.8322 928.151 Q94.0979 929.011 90.9729 930.755 L90.9729 925.443 Q94.15 924.167 96.9104 923.516 Q99.6708 922.865 101.962 922.865 Q108.004 922.865 111.598 925.886 Q115.192 928.906 115.192 933.958 Q115.192 936.354 114.28 938.516 Q113.395 940.651 111.025 943.568 Q110.374 944.323 106.884 947.943 Q103.395 951.536 97.0406 958.021 Z" fill="#000000" fill-rule="nonzero" fill-opacity="1" /><path clip-path="url(#clip780)" d="M137.691 927.031 Q133.629 927.031 131.572 931.042 Q129.54 935.026 129.54 943.047 Q129.54 951.042 131.572 955.052 Q133.629 959.036 137.691 959.036 Q141.78 959.036 143.811 955.052 Q145.868 951.042 145.868 943.047 Q145.868 935.026 143.811 931.042 Q141.78 927.031 137.691 927.031 M137.691 922.865 Q144.228 922.865 147.665 928.047 Q151.129 933.203 151.129 943.047 Q151.129 952.865 147.665 958.047 Q144.228 963.203 137.691 963.203 Q131.155 963.203 127.691 958.047 Q124.254 952.865 124.254 943.047 Q124.254 933.203 127.691 928.047 Q131.155 922.865 137.691 922.865 Z" fill="#000000" fill-rule="nonzero" fill-opacity="1" /><path clip-path="url(#clip780)" d="M164.905 958.021 L183.264 958.021 L183.264 962.448 L158.577 962.448 L158.577 958.021 Q161.571 954.922 166.728 949.714 Q171.91 944.479 173.238 942.969 Q175.764 940.13 176.754 938.177 Q177.769 936.198 177.769 934.297 Q177.769 931.198 175.582 929.245 Q173.42 927.292 169.931 927.292 Q167.457 927.292 164.696 928.151 Q161.962 929.011 158.837 930.755 L158.837 925.443 Q162.014 924.167 164.775 923.516 Q167.535 922.865 169.827 922.865 Q175.868 922.865 179.462 925.886 Q183.056 928.906 183.056 933.958 Q183.056 936.354 182.144 938.516 Q181.259 940.651 178.889 943.568 Q178.238 944.323 174.748 947.943 Q171.259 951.536 164.905 958.021 Z" fill="#000000" fill-rule="nonzero" fill-opacity="1" /><path clip-path="url(#clip780)" d="M198.837 958.021 L217.196 958.021 L217.196 962.448 L192.509 962.448 L192.509 958.021 Q195.504 954.922 200.66 949.714 Q205.842 944.479 207.17 942.969 Q209.696 940.13 210.686 938.177 Q211.701 936.198 211.701 934.297 Q211.701 931.198 209.514 929.245 Q207.352 927.292 203.863 927.292 Q201.389 927.292 198.629 928.151 Q195.894 929.011 192.769 930.755 L192.769 925.443 Q195.946 924.167 198.707 923.516 Q201.467 922.865 203.759 922.865 Q209.8 922.865 213.394 925.886 Q216.988 928.906 216.988 933.958 Q216.988 936.354 216.076 938.516 Q215.191 940.651 212.821 943.568 Q212.17 944.323 208.681 947.943 Q205.191 951.536 198.837 958.021 Z" fill="#000000" fill-rule="nonzero" fill-opacity="1" /><path clip-path="url(#clip780)" d="M225.139 945.703 L239.175 945.703 L239.175 949.974 L225.139 949.974 L225.139 945.703 Z" fill="#000000" fill-rule="nonzero" fill-opacity="1" /><path clip-path="url(#clip780)" d="M258.732 927.031 Q254.67 927.031 252.613 931.042 Q250.581 935.026 250.581 943.047 Q250.581 951.042 252.613 955.052 Q254.67 959.036 258.732 959.036 Q262.821 959.036 264.852 955.052 Q266.909 951.042 266.909 943.047 Q266.909 935.026 264.852 931.042 Q262.821 927.031 258.732 927.031 M258.732 922.865 Q265.269 922.865 268.706 928.047 Q272.17 933.203 272.17 943.047 Q272.17 952.865 268.706 958.047 Q265.269 963.203 258.732 963.203 Q252.196 963.203 248.732 958.047 Q245.295 952.865 245.295 943.047 Q245.295 933.203 248.732 928.047 Q252.196 922.865 258.732 922.865 Z" fill="#000000" fill-rule="nonzero" fill-opacity="1" /><path clip-path="url(#clip780)" d="M280.086 923.568 L305.086 923.568 L305.086 925.807 L290.972 962.448 L285.477 962.448 L298.758 927.995 L280.086 927.995 L280.086 923.568 Z" fill="#000000" fill-rule="nonzero" fill-opacity="1" /><path clip-path="url(#clip780)" d="M312.248 945.703 L326.284 945.703 L326.284 949.974 L312.248 949.974 L312.248 945.703 Z" fill="#000000" fill-rule="nonzero" fill-opacity="1" /><path clip-path="url(#clip780)" d="M339.123 958.021 L357.482 958.021 L357.482 962.448 L332.795 962.448 L332.795 958.021 Q335.789 954.922 340.946 949.714 Q346.128 944.479 347.456 942.969 Q349.982 940.13 350.971 938.177 Q351.987 936.198 351.987 934.297 Q351.987 931.198 349.8 929.245 Q347.638 927.292 344.149 927.292 Q341.675 927.292 338.914 928.151 Q336.18 929.011 333.055 930.755 L333.055 925.443 Q336.232 924.167 338.992 923.516 Q341.753 922.865 344.044 922.865 Q350.086 922.865 353.68 925.886 Q357.274 928.906 357.274 933.958 Q357.274 936.354 356.362 938.516 Q355.477 940.651 353.107 943.568 Q352.456 944.323 348.966 947.943 Q345.477 951.536 339.123 958.021 Z" fill="#000000" fill-rule="nonzero" fill-opacity="1" /><path clip-path="url(#clip780)" d="M368.576 923.568 L389.226 923.568 L389.226 927.995 L373.393 927.995 L373.393 937.526 Q374.539 937.136 375.685 936.953 Q376.831 936.745 377.977 936.745 Q384.487 936.745 388.289 940.313 Q392.091 943.88 392.091 949.974 Q392.091 956.25 388.185 959.74 Q384.279 963.203 377.169 963.203 Q374.721 963.203 372.169 962.786 Q369.643 962.37 366.935 961.536 L366.935 956.25 Q369.279 957.526 371.779 958.151 Q374.279 958.776 377.065 958.776 Q381.57 958.776 384.2 956.406 Q386.831 954.036 386.831 949.974 Q386.831 945.912 384.2 943.542 Q381.57 941.172 377.065 941.172 Q374.956 941.172 372.846 941.641 Q370.763 942.109 368.576 943.099 L368.576 923.568 Z" fill="#000000" fill-rule="nonzero" fill-opacity="1" /><path clip-path="url(#clip780)" d="M574.548 958.021 L592.907 958.021 L592.907 962.448 L568.22 962.448 L568.22 958.021 Q571.215 954.922 576.371 949.714 Q581.553 944.479 582.881 942.969 Q585.407 940.13 586.397 938.177 Q587.412 936.198 587.412 934.297 Q587.412 931.198 585.225 929.245 Q583.063 927.292 579.574 927.292 Q577.1 927.292 574.34 928.151 Q571.605 929.011 568.48 930.755 L568.48 925.443 Q571.657 924.167 574.418 923.516 Q577.178 922.865 579.47 922.865 Q585.511 922.865 589.105 925.886 Q592.699 928.906 592.699 933.958 Q592.699 936.354 591.787 938.516 Q590.902 940.651 588.532 943.568 Q587.881 944.323 584.392 947.943 Q580.902 951.536 574.548 958.021 Z" fill="#000000" fill-rule="nonzero" fill-opacity="1" /><path clip-path="url(#clip780)" d="M615.199 927.031 Q611.136 927.031 609.079 931.042 Q607.048 935.026 607.048 943.047 Q607.048 951.042 609.079 955.052 Q611.136 959.036 615.199 959.036 Q619.287 959.036 621.318 955.052 Q623.376 951.042 623.376 943.047 Q623.376 935.026 621.318 931.042 Q619.287 927.031 615.199 927.031 M615.199 922.865 Q621.735 922.865 625.173 928.047 Q628.636 933.203 628.636 943.047 Q628.636 952.865 625.173 958.047 Q621.735 963.203 615.199 963.203 Q608.662 963.203 605.199 958.047 Q601.761 952.865 601.761 943.047 Q601.761 933.203 605.199 928.047 Q608.662 922.865 615.199 922.865 Z" fill="#000000" fill-rule="nonzero" fill-opacity="1" /><path clip-path="url(#clip780)" d="M642.412 958.021 L660.771 958.021 L660.771 962.448 L636.084 962.448 L636.084 958.021 Q639.079 954.922 644.235 949.714 Q649.417 944.479 650.745 942.969 Q653.271 940.13 654.261 938.177 Q655.277 936.198 655.277 934.297 Q655.277 931.198 653.089 929.245 Q650.928 927.292 647.438 927.292 Q644.964 927.292 642.204 928.151 Q639.469 929.011 636.344 930.755 L636.344 925.443 Q639.522 924.167 642.282 923.516 Q645.042 922.865 647.334 922.865 Q653.376 922.865 656.969 925.886 Q660.563 928.906 660.563 933.958 Q660.563 936.354 659.652 938.516 Q658.766 940.651 656.396 943.568 Q655.745 944.323 652.256 947.943 Q648.766 951.536 642.412 958.021 Z" fill="#000000" fill-rule="nonzero" fill-opacity="1" /><path clip-path="url(#clip780)" d="M676.344 958.021 L694.704 958.021 L694.704 962.448 L670.016 962.448 L670.016 958.021 Q673.011 954.922 678.167 949.714 Q683.349 944.479 684.678 942.969 Q687.204 940.13 688.193 938.177 Q689.209 936.198 689.209 934.297 Q689.209 931.198 687.021 929.245 Q684.86 927.292 681.37 927.292 Q678.896 927.292 676.136 928.151 Q673.402 929.011 670.277 930.755 L670.277 925.443 Q673.454 924.167 676.214 923.516 Q678.974 922.865 681.266 922.865 Q687.308 922.865 690.901 925.886 Q694.495 928.906 694.495 933.958 Q694.495 936.354 693.584 938.516 Q692.698 940.651 690.329 943.568 Q689.678 944.323 686.188 947.943 Q682.698 951.536 676.344 958.021 Z" fill="#000000" fill-rule="nonzero" fill-opacity="1" /><path clip-path="url(#clip780)" d="M702.646 945.703 L716.683 945.703 L716.683 949.974 L702.646 949.974 L702.646 945.703 Z" fill="#000000" fill-rule="nonzero" fill-opacity="1" /><path clip-path="url(#clip780)" d="M736.24 927.031 Q732.177 927.031 730.12 931.042 Q728.089 935.026 728.089 943.047 Q728.089 951.042 730.12 955.052 Q732.177 959.036 736.24 959.036 Q740.328 959.036 742.36 955.052 Q744.417 951.042 744.417 943.047 Q744.417 935.026 742.36 931.042 Q740.328 927.031 736.24 927.031 M736.24 922.865 Q742.776 922.865 746.214 928.047 Q749.677 933.203 749.677 943.047 Q749.677 952.865 746.214 958.047 Q742.776 963.203 736.24 963.203 Q729.703 963.203 726.24 958.047 Q722.802 952.865 722.802 943.047 Q722.802 933.203 726.24 928.047 Q729.703 922.865 736.24 922.865 Z" fill="#000000" fill-rule="nonzero" fill-opacity="1" /><path clip-path="url(#clip780)" d="M757.594 923.568 L782.594 923.568 L782.594 925.807 L768.479 962.448 L762.984 962.448 L776.266 927.995 L757.594 927.995 L757.594 923.568 Z" fill="#000000" fill-rule="nonzero" fill-opacity="1" /><path clip-path="url(#clip780)" d="M789.755 945.703 L803.791 945.703 L803.791 949.974 L789.755 949.974 L789.755 945.703 Z" fill="#000000" fill-rule="nonzero" fill-opacity="1" /><path clip-path="url(#clip780)" d="M816.63 958.021 L834.989 958.021 L834.989 962.448 L810.302 962.448 L810.302 958.021 Q813.297 954.922 818.453 949.714 Q823.635 944.479 824.963 942.969 Q827.489 940.13 828.479 938.177 Q829.494 936.198 829.494 934.297 Q829.494 931.198 827.307 929.245 Q825.146 927.292 821.656 927.292 Q819.182 927.292 816.422 928.151 Q813.687 929.011 810.562 930.755 L810.562 925.443 Q813.739 924.167 816.5 923.516 Q819.26 922.865 821.552 922.865 Q827.593 922.865 831.187 925.886 Q834.781 928.906 834.781 933.958 Q834.781 936.354 833.869 938.516 Q832.984 940.651 830.614 943.568 Q829.963 944.323 826.474 947.943 Q822.984 951.536 816.63 958.021 Z" fill="#000000" fill-rule="nonzero" fill-opacity="1" /><path clip-path="url(#clip780)" d="M844.703 923.568 L869.703 923.568 L869.703 925.807 L855.588 962.448 L850.093 962.448 L863.374 927.995 L844.703 927.995 L844.703 923.568 Z" fill="#000000" fill-rule="nonzero" fill-opacity="1" /><path clip-path="url(#clip780)" d="M1051.7 958.021 L1070.06 958.021 L1070.06 962.448 L1045.38 962.448 L1045.38 958.021 Q1048.37 954.922 1053.53 949.714 Q1058.71 944.479 1060.04 942.969 Q1062.56 940.13 1063.55 938.177 Q1064.57 936.198 1064.57 934.297 Q1064.57 931.198 1062.38 929.245 Q1060.22 927.292 1056.73 927.292 Q1054.26 927.292 1051.5 928.151 Q1048.76 929.011 1045.64 930.755 L1045.64 925.443 Q1048.81 924.167 1051.57 923.516 Q1054.33 922.865 1056.63 922.865 Q1062.67 922.865 1066.26 925.886 Q1069.85 928.906 1069.85 933.958 Q1069.85 936.354 1068.94 938.516 Q1068.06 940.651 1065.69 943.568 Q1065.04 944.323 1061.55 947.943 Q1058.06 951.536 1051.7 958.021 Z" fill="#000000" fill-rule="nonzero" fill-opacity="1" /><path clip-path="url(#clip780)" d="M1092.35 927.031 Q1088.29 927.031 1086.23 931.042 Q1084.2 935.026 1084.2 943.047 Q1084.2 951.042 1086.23 955.052 Q1088.29 959.036 1092.35 959.036 Q1096.44 959.036 1098.47 955.052 Q1100.53 951.042 1100.53 943.047 Q1100.53 935.026 1098.47 931.042 Q1096.44 927.031 1092.35 927.031 M1092.35 922.865 Q1098.89 922.865 1102.33 928.047 Q1105.79 933.203 1105.79 943.047 Q1105.79 952.865 1102.33 958.047 Q1098.89 963.203 1092.35 963.203 Q1085.82 963.203 1082.35 958.047 Q1078.92 952.865 1078.92 943.047 Q1078.92 933.203 1082.35 928.047 Q1085.82 922.865 1092.35 922.865 Z" fill="#000000" fill-rule="nonzero" fill-opacity="1" /><path clip-path="url(#clip780)" d="M1119.57 958.021 L1137.93 958.021 L1137.93 962.448 L1113.24 962.448 L1113.24 958.021 Q1116.23 954.922 1121.39 949.714 Q1126.57 944.479 1127.9 942.969 Q1130.43 940.13 1131.42 938.177 Q1132.43 936.198 1132.43 934.297 Q1132.43 931.198 1130.24 929.245 Q1128.08 927.292 1124.59 927.292 Q1122.12 927.292 1119.36 928.151 Q1116.63 929.011 1113.5 930.755 L1113.5 925.443 Q1116.68 924.167 1119.44 923.516 Q1122.2 922.865 1124.49 922.865 Q1130.53 922.865 1134.13 925.886 Q1137.72 928.906 1137.72 933.958 Q1137.72 936.354 1136.81 938.516 Q1135.92 940.651 1133.55 943.568 Q1132.9 944.323 1129.41 947.943 Q1125.92 951.536 1119.57 958.021 Z" fill="#000000" fill-rule="nonzero" fill-opacity="1" /><path clip-path="url(#clip780)" d="M1153.5 958.021 L1171.86 958.021 L1171.86 962.448 L1147.17 962.448 L1147.17 958.021 Q1150.17 954.922 1155.32 949.714 Q1160.51 944.479 1161.83 942.969 Q1164.36 940.13 1165.35 938.177 Q1166.36 936.198 1166.36 934.297 Q1166.36 931.198 1164.18 929.245 Q1162.02 927.292 1158.53 927.292 Q1156.05 927.292 1153.29 928.151 Q1150.56 929.011 1147.43 930.755 L1147.43 925.443 Q1150.61 924.167 1153.37 923.516 Q1156.13 922.865 1158.42 922.865 Q1164.46 922.865 1168.06 925.886 Q1171.65 928.906 1171.65 933.958 Q1171.65 936.354 1170.74 938.516 Q1169.85 940.651 1167.48 943.568 Q1166.83 944.323 1163.34 947.943 Q1159.85 951.536 1153.5 958.021 Z" fill="#000000" fill-rule="nonzero" fill-opacity="1" /><path clip-path="url(#clip780)" d="M1179.8 945.703 L1193.84 945.703 L1193.84 949.974 L1179.8 949.974 L1179.8 945.703 Z" fill="#000000" fill-rule="nonzero" fill-opacity="1" /><path clip-path="url(#clip780)" d="M1213.4 927.031 Q1209.33 927.031 1207.28 931.042 Q1205.24 935.026 1205.24 943.047 Q1205.24 951.042 1207.28 955.052 Q1209.33 959.036 1213.4 959.036 Q1217.48 959.036 1219.52 955.052 Q1221.57 951.042 1221.57 943.047 Q1221.57 935.026 1219.52 931.042 Q1217.48 927.031 1213.4 927.031 M1213.4 922.865 Q1219.93 922.865 1223.37 928.047 Q1226.83 933.203 1226.83 943.047 Q1226.83 952.865 1223.37 958.047 Q1219.93 963.203 1213.4 963.203 Q1206.86 963.203 1203.4 958.047 Q1199.96 952.865 1199.96 943.047 Q1199.96 933.203 1203.4 928.047 Q1206.86 922.865 1213.4 922.865 Z" fill="#000000" fill-rule="nonzero" fill-opacity="1" /><path clip-path="url(#clip780)" d="M1234.75 923.568 L1259.75 923.568 L1259.75 925.807 L1245.63 962.448 L1240.14 962.448 L1253.42 927.995 L1234.75 927.995 L1234.75 923.568 Z" fill="#000000" fill-rule="nonzero" fill-opacity="1" /><path clip-path="url(#clip780)" d="M1266.91 945.703 L1280.95 945.703 L1280.95 949.974 L1266.91 949.974 L1266.91 945.703 Z" fill="#000000" fill-rule="nonzero" fill-opacity="1" /><path clip-path="url(#clip780)" d="M1293.79 958.021 L1312.15 958.021 L1312.15 962.448 L1287.46 962.448 L1287.46 958.021 Q1290.45 954.922 1295.61 949.714 Q1300.79 944.479 1302.12 942.969 Q1304.65 940.13 1305.63 938.177 Q1306.65 936.198 1306.65 934.297 Q1306.65 931.198 1304.46 929.245 Q1302.3 927.292 1298.81 927.292 Q1296.34 927.292 1293.58 928.151 Q1290.84 929.011 1287.72 930.755 L1287.72 925.443 Q1290.9 924.167 1293.66 923.516 Q1296.42 922.865 1298.71 922.865 Q1304.75 922.865 1308.34 925.886 Q1311.94 928.906 1311.94 933.958 Q1311.94 936.354 1311.03 938.516 Q1310.14 940.651 1307.77 943.568 Q1307.12 944.323 1303.63 947.943 Q1300.14 951.536 1293.79 958.021 Z" fill="#000000" fill-rule="nonzero" fill-opacity="1" /><path clip-path="url(#clip780)" d="M1323.34 961.641 L1323.34 956.849 Q1325.32 957.786 1327.35 958.281 Q1329.38 958.776 1331.34 958.776 Q1336.55 958.776 1339.28 955.286 Q1342.04 951.771 1342.43 944.635 Q1340.92 946.875 1338.6 948.073 Q1336.29 949.271 1333.47 949.271 Q1327.64 949.271 1324.23 945.755 Q1320.84 942.214 1320.84 936.094 Q1320.84 930.104 1324.38 926.485 Q1327.93 922.865 1333.81 922.865 Q1340.56 922.865 1344.1 928.047 Q1347.67 933.203 1347.67 943.047 Q1347.67 952.24 1343.29 957.734 Q1338.94 963.203 1331.57 963.203 Q1329.59 963.203 1327.56 962.812 Q1325.53 962.422 1323.34 961.641 M1333.81 945.156 Q1337.35 945.156 1339.41 942.734 Q1341.49 940.313 1341.49 936.094 Q1341.49 931.901 1339.41 929.479 Q1337.35 927.031 1333.81 927.031 Q1330.27 927.031 1328.19 929.479 Q1326.13 931.901 1326.13 936.094 Q1326.13 940.313 1328.19 942.734 Q1330.27 945.156 1333.81 945.156 Z" fill="#000000" fill-rule="nonzero" fill-opacity="1" /><path clip-path="url(#clip780)" d="M1529.85 958.021 L1548.21 958.021 L1548.21 962.448 L1523.52 962.448 L1523.52 958.021 Q1526.52 954.922 1531.67 949.714 Q1536.85 944.479 1538.18 942.969 Q1540.71 940.13 1541.7 938.177 Q1542.71 936.198 1542.71 934.297 Q1542.71 931.198 1540.53 929.245 Q1538.36 927.292 1534.88 927.292 Q1532.4 927.292 1529.64 928.151 Q1526.91 929.011 1523.78 930.755 L1523.78 925.443 Q1526.96 924.167 1529.72 923.516 Q1532.48 922.865 1534.77 922.865 Q1540.81 922.865 1544.41 925.886 Q1548 928.906 1548 933.958 Q1548 936.354 1547.09 938.516 Q1546.2 940.651 1543.83 943.568 Q1543.18 944.323 1539.69 947.943 Q1536.2 951.536 1529.85 958.021 Z" fill="#000000" fill-rule="nonzero" fill-opacity="1" /><path clip-path="url(#clip780)" d="M1570.5 927.031 Q1566.44 927.031 1564.38 931.042 Q1562.35 935.026 1562.35 943.047 Q1562.35 951.042 1564.38 955.052 Q1566.44 959.036 1570.5 959.036 Q1574.59 959.036 1576.62 955.052 Q1578.68 951.042 1578.68 943.047 Q1578.68 935.026 1576.62 931.042 Q1574.59 927.031 1570.5 927.031 M1570.5 922.865 Q1577.04 922.865 1580.47 928.047 Q1583.94 933.203 1583.94 943.047 Q1583.94 952.865 1580.47 958.047 Q1577.04 963.203 1570.5 963.203 Q1563.96 963.203 1560.5 958.047 Q1557.06 952.865 1557.06 943.047 Q1557.06 933.203 1560.5 928.047 Q1563.96 922.865 1570.5 922.865 Z" fill="#000000" fill-rule="nonzero" fill-opacity="1" /><path clip-path="url(#clip780)" d="M1597.71 958.021 L1616.07 958.021 L1616.07 962.448 L1591.39 962.448 L1591.39 958.021 Q1594.38 954.922 1599.54 949.714 Q1604.72 944.479 1606.05 942.969 Q1608.57 940.13 1609.56 938.177 Q1610.58 936.198 1610.58 934.297 Q1610.58 931.198 1608.39 929.245 Q1606.23 927.292 1602.74 927.292 Q1600.27 927.292 1597.5 928.151 Q1594.77 929.011 1591.65 930.755 L1591.65 925.443 Q1594.82 924.167 1597.58 923.516 Q1600.34 922.865 1602.64 922.865 Q1608.68 922.865 1612.27 925.886 Q1615.86 928.906 1615.86 933.958 Q1615.86 936.354 1614.95 938.516 Q1614.07 940.651 1611.7 943.568 Q1611.05 944.323 1607.56 947.943 Q1604.07 951.536 1597.71 958.021 Z" fill="#000000" fill-rule="nonzero" fill-opacity="1" /><path clip-path="url(#clip780)" d="M1631.65 958.021 L1650 958.021 L1650 962.448 L1625.32 962.448 L1625.32 958.021 Q1628.31 954.922 1633.47 949.714 Q1638.65 944.479 1639.98 942.969 Q1642.5 940.13 1643.49 938.177 Q1644.51 936.198 1644.51 934.297 Q1644.51 931.198 1642.32 929.245 Q1640.16 927.292 1636.67 927.292 Q1634.2 927.292 1631.44 928.151 Q1628.7 929.011 1625.58 930.755 L1625.58 925.443 Q1628.75 924.167 1631.52 923.516 Q1634.28 922.865 1636.57 922.865 Q1642.61 922.865 1646.2 925.886 Q1649.8 928.906 1649.8 933.958 Q1649.8 936.354 1648.88 938.516 Q1648 940.651 1645.63 943.568 Q1644.98 944.323 1641.49 947.943 Q1638 951.536 1631.65 958.021 Z" fill="#000000" fill-rule="nonzero" fill-opacity="1" /><path clip-path="url(#clip780)" d="M1657.95 945.703 L1671.98 945.703 L1671.98 949.974 L1657.95 949.974 L1657.95 945.703 Z" fill="#000000" fill-rule="nonzero" fill-opacity="1" /><path clip-path="url(#clip780)" d="M1691.54 927.031 Q1687.48 927.031 1685.42 931.042 Q1683.39 935.026 1683.39 943.047 Q1683.39 951.042 1685.42 955.052 Q1687.48 959.036 1691.54 959.036 Q1695.63 959.036 1697.66 955.052 Q1699.72 951.042 1699.72 943.047 Q1699.72 935.026 1697.66 931.042 Q1695.63 927.031 1691.54 927.031 M1691.54 922.865 Q1698.08 922.865 1701.51 928.047 Q1704.98 933.203 1704.98 943.047 Q1704.98 952.865 1701.51 958.047 Q1698.08 963.203 1691.54 963.203 Q1685 963.203 1681.54 958.047 Q1678.1 952.865 1678.1 943.047 Q1678.1 933.203 1681.54 928.047 Q1685 922.865 1691.54 922.865 Z" fill="#000000" fill-rule="nonzero" fill-opacity="1" /><path clip-path="url(#clip780)" d="M1712.89 923.568 L1737.89 923.568 L1737.89 925.807 L1723.78 962.448 L1718.29 962.448 L1731.57 927.995 L1712.89 927.995 L1712.89 923.568 Z" fill="#000000" fill-rule="nonzero" fill-opacity="1" /><path clip-path="url(#clip780)" d="M1745.06 945.703 L1759.09 945.703 L1759.09 949.974 L1745.06 949.974 L1745.06 945.703 Z" fill="#000000" fill-rule="nonzero" fill-opacity="1" /><path clip-path="url(#clip780)" d="M1783.34 941.484 Q1787.11 942.292 1789.22 944.844 Q1791.36 947.396 1791.36 951.146 Q1791.36 956.901 1787.4 960.052 Q1783.44 963.203 1776.15 963.203 Q1773.7 963.203 1771.1 962.708 Q1768.52 962.24 1765.76 961.276 L1765.76 956.198 Q1767.95 957.474 1770.55 958.125 Q1773.16 958.776 1775.99 958.776 Q1780.94 958.776 1783.52 956.823 Q1786.12 954.87 1786.12 951.146 Q1786.12 947.708 1783.7 945.781 Q1781.31 943.828 1777.01 943.828 L1772.48 943.828 L1772.48 939.505 L1777.22 939.505 Q1781.1 939.505 1783.16 937.969 Q1785.21 936.406 1785.21 933.49 Q1785.21 930.495 1783.08 928.906 Q1780.97 927.292 1777.01 927.292 Q1774.85 927.292 1772.37 927.761 Q1769.9 928.229 1766.93 929.219 L1766.93 924.531 Q1769.93 923.698 1772.53 923.281 Q1775.16 922.865 1777.48 922.865 Q1783.47 922.865 1786.96 925.599 Q1790.45 928.307 1790.45 932.943 Q1790.45 936.172 1788.6 938.412 Q1786.75 940.625 1783.34 941.484 Z" fill="#000000" fill-rule="nonzero" fill-opacity="1" /><path clip-path="url(#clip780)" d="M1802.24 958.021 L1810.84 958.021 L1810.84 928.36 L1801.49 930.235 L1801.49 925.443 L1810.79 923.568 L1816.05 923.568 L1816.05 958.021 L1824.64 958.021 L1824.64 962.448 L1802.24 962.448 L1802.24 958.021 Z" fill="#000000" fill-rule="nonzero" fill-opacity="1" /><polyline clip-path="url(#clip782)" style="stroke:#000000; stroke-linecap:round; stroke-linejoin:round; stroke-width:2; stroke-opacity:0.1; fill:none" points="191.557,897.848 1952.76,897.848 "/>
<polyline clip-path="url(#clip782)" style="stroke:#000000; stroke-linecap:round; stroke-linejoin:round; stroke-width:2; stroke-opacity:0.1; fill:none" points="191.557,685.197 1952.76,685.197 "/>
<polyline clip-path="url(#clip782)" style="stroke:#000000; stroke-linecap:round; stroke-linejoin:round; stroke-width:2; stroke-opacity:0.1; fill:none" points="191.557,472.546 1952.76,472.546 "/>
<polyline clip-path="url(#clip782)" style="stroke:#000000; stroke-linecap:round; stroke-linejoin:round; stroke-width:2; stroke-opacity:0.1; fill:none" points="191.557,259.895 1952.76,259.895 "/>
<polyline clip-path="url(#clip782)" style="stroke:#000000; stroke-linecap:round; stroke-linejoin:round; stroke-width:2; stroke-opacity:0.1; fill:none" points="191.557,47.2441 1952.76,47.2441 "/>
<polyline clip-path="url(#clip780)" style="stroke:#000000; stroke-linecap:round; stroke-linejoin:round; stroke-width:4; stroke-opacity:1; fill:none" points="191.557,897.848 191.557,47.2441 "/>
<polyline clip-path="url(#clip780)" style="stroke:#000000; stroke-linecap:round; stroke-linejoin:round; stroke-width:4; stroke-opacity:1; fill:none" points="191.557,897.848 210.454,897.848 "/>
<polyline clip-path="url(#clip780)" style="stroke:#000000; stroke-linecap:round; stroke-linejoin:round; stroke-width:4; stroke-opacity:1; fill:none" points="191.557,685.197 210.454,685.197 "/>
<polyline clip-path="url(#clip780)" style="stroke:#000000; stroke-linecap:round; stroke-linejoin:round; stroke-width:4; stroke-opacity:1; fill:none" points="191.557,472.546 210.454,472.546 "/>
<polyline clip-path="url(#clip780)" style="stroke:#000000; stroke-linecap:round; stroke-linejoin:round; stroke-width:4; stroke-opacity:1; fill:none" points="191.557,259.895 210.454,259.895 "/>
<polyline clip-path="url(#clip780)" style="stroke:#000000; stroke-linecap:round; stroke-linejoin:round; stroke-width:4; stroke-opacity:1; fill:none" points="191.557,47.2441 210.454,47.2441 "/>
<path clip-path="url(#clip780)" d="M148.119 881.871 Q144.057 881.871 141.999 885.882 Q139.968 889.866 139.968 897.887 Q139.968 905.882 141.999 909.892 Q144.057 913.876 148.119 913.876 Q152.208 913.876 154.239 909.892 Q156.296 905.882 156.296 897.887 Q156.296 889.866 154.239 885.882 Q152.208 881.871 148.119 881.871 M148.119 877.705 Q154.655 877.705 158.093 882.887 Q161.557 888.043 161.557 897.887 Q161.557 907.705 158.093 912.887 Q154.655 918.043 148.119 918.043 Q141.583 918.043 138.119 912.887 Q134.682 907.705 134.682 897.887 Q134.682 888.043 138.119 882.887 Q141.583 877.705 148.119 877.705 Z" fill="#000000" fill-rule="nonzero" fill-opacity="1" /><path clip-path="url(#clip780)" d="M138.041 665.757 L158.692 665.757 L158.692 670.184 L142.859 670.184 L142.859 679.715 Q144.005 679.325 145.15 679.142 Q146.296 678.934 147.442 678.934 Q153.952 678.934 157.754 682.502 Q161.557 686.069 161.557 692.163 Q161.557 698.439 157.65 701.929 Q153.744 705.392 146.635 705.392 Q144.187 705.392 141.635 704.975 Q139.109 704.559 136.4 703.725 L136.4 698.439 Q138.744 699.715 141.244 700.34 Q143.744 700.965 146.531 700.965 Q151.036 700.965 153.666 698.595 Q156.296 696.226 156.296 692.163 Q156.296 688.101 153.666 685.731 Q151.036 683.361 146.531 683.361 Q144.421 683.361 142.312 683.83 Q140.228 684.298 138.041 685.288 L138.041 665.757 Z" fill="#000000" fill-rule="nonzero" fill-opacity="1" /><path clip-path="url(#clip780)" d="M103.848 487.559 L112.442 487.559 L112.442 457.898 L103.093 459.773 L103.093 454.981 L112.39 453.106 L117.65 453.106 L117.65 487.559 L126.244 487.559 L126.244 491.986 L103.848 491.986 L103.848 487.559 Z" fill="#000000" fill-rule="nonzero" fill-opacity="1" /><path clip-path="url(#clip780)" d="M148.119 456.57 Q144.057 456.57 141.999 460.58 Q139.968 464.564 139.968 472.585 Q139.968 480.58 141.999 484.59 Q144.057 488.575 148.119 488.575 Q152.208 488.575 154.239 484.59 Q156.296 480.58 156.296 472.585 Q156.296 464.564 154.239 460.58 Q152.208 456.57 148.119 456.57 M148.119 452.403 Q154.655 452.403 158.093 457.585 Q161.557 462.741 161.557 472.585 Q161.557 482.403 158.093 487.585 Q154.655 492.741 148.119 492.741 Q141.583 492.741 138.119 487.585 Q134.682 482.403 134.682 472.585 Q134.682 462.741 138.119 457.585 Q141.583 452.403 148.119 452.403 Z" fill="#000000" fill-rule="nonzero" fill-opacity="1" /><path clip-path="url(#clip780)" d="M104.968 274.908 L113.562 274.908 L113.562 245.247 L104.213 247.122 L104.213 242.33 L113.51 240.455 L118.77 240.455 L118.77 274.908 L127.364 274.908 L127.364 279.335 L104.968 279.335 L104.968 274.908 Z" fill="#000000" fill-rule="nonzero" fill-opacity="1" /><path clip-path="url(#clip780)" d="M138.041 240.455 L158.692 240.455 L158.692 244.882 L142.859 244.882 L142.859 254.413 Q144.005 254.023 145.15 253.84 Q146.296 253.632 147.442 253.632 Q153.952 253.632 157.754 257.2 Q161.557 260.767 161.557 266.861 Q161.557 273.137 157.65 276.627 Q153.744 280.09 146.635 280.09 Q144.187 280.09 141.635 279.674 Q139.109 279.257 136.4 278.424 L136.4 273.137 Q138.744 274.413 141.244 275.038 Q143.744 275.663 146.531 275.663 Q151.036 275.663 153.666 273.293 Q156.296 270.924 156.296 266.861 Q156.296 262.799 153.666 260.429 Q151.036 258.059 146.531 258.059 Q144.421 258.059 142.312 258.528 Q140.228 258.997 138.041 259.986 L138.041 240.455 Z" fill="#000000" fill-rule="nonzero" fill-opacity="1" /><path clip-path="url(#clip780)" d="M107.468 62.257 L125.828 62.257 L125.828 66.6841 L101.14 66.6841 L101.14 62.257 Q104.135 59.1581 109.291 53.9498 Q114.473 48.7154 115.802 47.205 Q118.328 44.3665 119.317 42.4134 Q120.333 40.4342 120.333 38.5332 Q120.333 35.4343 118.145 33.4811 Q115.984 31.528 112.494 31.528 Q110.02 31.528 107.26 32.3874 Q104.526 33.2468 101.401 34.9916 L101.401 29.6791 Q104.578 28.403 107.338 27.752 Q110.098 27.101 112.39 27.101 Q118.432 27.101 122.025 30.1218 Q125.619 33.1426 125.619 38.1947 Q125.619 40.5905 124.708 42.7519 Q123.822 44.8873 121.453 47.804 Q120.802 48.5592 117.312 52.179 Q113.822 55.7727 107.468 62.257 Z" fill="#000000" fill-rule="nonzero" fill-opacity="1" /><path clip-path="url(#clip780)" d="M148.119 31.2676 Q144.057 31.2676 141.999 35.278 Q139.968 39.2624 139.968 47.2832 Q139.968 55.2779 141.999 59.2883 Q144.057 63.2727 148.119 63.2727 Q152.208 63.2727 154.239 59.2883 Q156.296 55.2779 156.296 47.2832 Q156.296 39.2624 154.239 35.278 Q152.208 31.2676 148.119 31.2676 M148.119 27.101 Q154.655 27.101 158.093 32.2832 Q161.557 37.4395 161.557 47.2832 Q161.557 57.1008 158.093 62.2831 Q154.655 67.4393 148.119 67.4393 Q141.583 67.4393 138.119 62.2831 Q134.682 57.1008 134.682 47.2832 Q134.682 37.4395 138.119 32.2832 Q141.583 27.101 148.119 27.101 Z" fill="#000000" fill-rule="nonzero" fill-opacity="1" /><path clip-path="url(#clip780)" d="M14.9802 630.097 L14.9802 624.252 L58.1802 624.252 L58.1802 630.097 L14.9802 630.097 Z" fill="#000000" fill-rule="nonzero" fill-opacity="1" /><path clip-path="url(#clip780)" d="M38.6201 585.913 L58.1802 585.913 L58.1802 591.237 L38.7937 591.237 Q34.193 591.237 31.9072 593.031 Q29.6213 594.825 29.6213 598.413 Q29.6213 602.725 32.3701 605.213 Q35.1189 607.702 39.8643 607.702 L58.1802 607.702 L58.1802 613.054 L25.7729 613.054 L25.7729 607.702 L30.8076 607.702 Q27.8852 605.792 26.4384 603.217 Q24.9917 600.612 24.9917 597.227 Q24.9917 591.643 28.4639 588.778 Q31.9072 585.913 38.6201 585.913 Z" fill="#000000" fill-rule="nonzero" fill-opacity="1" /><path clip-path="url(#clip780)" d="M13.1573 558.888 L17.5843 558.888 L17.5843 563.981 Q17.5843 566.845 18.7417 567.974 Q19.8991 569.073 22.9084 569.073 L25.7729 569.073 L25.7729 560.306 L29.9106 560.306 L29.9106 569.073 L58.1802 569.073 L58.1802 574.426 L29.9106 574.426 L29.9106 579.519 L25.7729 579.519 L25.7729 574.426 L23.516 574.426 Q18.1051 574.426 15.6457 571.909 Q13.1573 569.392 13.1573 563.923 L13.1573 558.888 Z" fill="#000000" fill-rule="nonzero" fill-opacity="1" /><path clip-path="url(#clip780)" d="M13.1573 554.432 L13.1573 549.108 L58.1802 549.108 L58.1802 554.432 L13.1573 554.432 Z" fill="#000000" fill-rule="nonzero" fill-opacity="1" /><path clip-path="url(#clip780)" d="M29.5055 525.41 Q29.5055 529.693 32.862 532.181 Q36.1895 534.669 42.0055 534.669 Q47.8214 534.669 51.1779 532.21 Q54.5054 529.722 54.5054 525.41 Q54.5054 521.157 51.1489 518.668 Q47.7925 516.18 42.0055 516.18 Q36.2474 516.18 32.8909 518.668 Q29.5055 521.157 29.5055 525.41 M24.9917 525.41 Q24.9917 518.466 29.5055 514.502 Q34.0194 510.538 42.0055 510.538 Q49.9626 510.538 54.5054 514.502 Q59.0193 518.466 59.0193 525.41 Q59.0193 532.384 54.5054 536.348 Q49.9626 540.283 42.0055 540.283 Q34.0194 540.283 29.5055 536.348 Q24.9917 532.384 24.9917 525.41 Z" fill="#000000" fill-rule="nonzero" fill-opacity="1" /><path clip-path="url(#clip780)" d="M25.7729 504.809 L25.7729 499.484 L51.0621 492.829 L25.7729 486.203 L25.7729 479.924 L51.0621 473.269 L25.7729 466.643 L25.7729 461.319 L58.1802 469.797 L58.1802 476.076 L31.6178 483.049 L58.1802 490.052 L58.1802 496.331 L25.7729 504.809 Z" fill="#000000" fill-rule="nonzero" fill-opacity="1" /><path clip-path="url(#clip780)" d="M13.1573 434.902 L13.1573 422.633 L17.295 422.633 L17.295 429.577 L61.8549 429.577 L61.8549 422.633 L65.9926 422.633 L65.9926 434.902 L13.1573 434.902 Z" fill="#000000" fill-rule="nonzero" fill-opacity="1" /><path clip-path="url(#clip780)" d="M14.9802 411.059 L14.9802 405.214 L53.2612 405.214 L53.2612 384.178 L58.1802 384.178 L58.1802 411.059 L14.9802 411.059 Z" fill="#000000" fill-rule="nonzero" fill-opacity="1" /><path clip-path="url(#clip780)" d="M14.9802 368.814 L14.9802 363.895 L63.6778 378.941 L63.6778 383.86 L14.9802 368.814 Z" fill="#000000" fill-rule="nonzero" fill-opacity="1" /><path clip-path="url(#clip780)" d="M26.7278 337.651 L31.7625 337.651 Q30.6051 339.908 30.0264 342.338 Q29.4477 344.769 29.4477 347.373 Q29.4477 351.337 30.6629 353.334 Q31.8782 355.301 34.3088 355.301 Q36.1606 355.301 37.2312 353.883 Q38.2729 352.466 39.2277 348.183 L39.6328 346.36 Q40.8481 340.689 43.0761 338.316 Q45.2751 335.915 49.2392 335.915 Q53.7531 335.915 56.3862 339.503 Q59.0193 343.062 59.0193 349.312 Q59.0193 351.916 58.4984 354.751 Q58.0065 357.558 56.9938 360.683 L51.4962 360.683 Q53.0297 357.732 53.811 354.867 Q54.5633 352.003 54.5633 349.196 Q54.5633 345.434 53.2901 343.409 Q51.9881 341.383 49.6443 341.383 Q47.4742 341.383 46.3168 342.859 Q45.1594 344.306 44.0888 349.254 L43.6548 351.106 Q42.6131 356.054 40.4719 358.253 Q38.3018 360.452 34.5402 360.452 Q29.9685 360.452 27.4801 357.211 Q24.9917 353.97 24.9917 348.01 Q24.9917 345.058 25.4257 342.454 Q25.8597 339.85 26.7278 337.651 Z" fill="#000000" fill-rule="nonzero" fill-opacity="1" /><path clip-path="url(#clip780)" d="M13.1573 314.995 L65.9926 314.995 L65.9926 327.263 L61.8549 327.263 L61.8549 320.348 L17.295 320.348 L17.295 327.263 L13.1573 327.263 L13.1573 314.995 Z" fill="#000000" fill-rule="nonzero" fill-opacity="1" /><polyline clip-path="url(#clip782)" style="stroke:#808080; stroke-linecap:round; stroke-linejoin:round; stroke-width:5; stroke-opacity:1; fill:none" points="241.402,161.65 251.351,658.828 261.3,649.046 271.249,633.735 281.198,576.32 291.148,516.352 301.097,418.533 311.046,337.725 320.995,285.413 330.944,304.126 340.893,324.966 350.842,464.891 360.792,451.281 370.741,426.613 380.69,411.728 390.639,403.222 400.588,421.51 410.537,401.521 420.487,227.997 430.436,291.793 440.385,348.783 450.334,443.625 460.283,499.34 470.232,555.905 480.181,563.986 490.131,582.274 500.08,100.832 510.029,626.08 519.978,618.85 529.927,575.044 539.876,480.627 549.826,407.475 559.775,398.118 569.724,415.981 579.673,404.498 589.622,398.969 599.571,363.669 609.52,319.012 619.47,286.689 629.419,369.623 639.368,395.992 649.317,402.796 659.266,316.885 669.215,370.474 679.165,355.588 689.114,435.119 699.063,511.248 709.012,566.538 718.961,597.585 728.91,592.481 738.86,556.33 748.809,526.559 758.758,520.18 768.707,472.121 778.656,425.337 788.605,386.21 798.554,363.243 808.504,413.854 818.453,379.405 828.402,319.012 838.351,322.84 848.3,354.312 858.249,386.635 868.199,413.429 878.148,425.337 888.097,361.967 898.046,406.199 907.995,374.727 917.944,350.484 927.893,436.821 937.843,496.363 947.792,489.558 957.741,551.227 967.69,565.687 977.639,546.974 987.588,569.09 997.538,565.262 1007.49,524.008 1017.44,426.613 1027.39,396.417 1037.33,364.094 1047.28,353.036 1057.23,349.208 1067.18,362.393 1077.13,345.806 1087.08,364.945 1097.03,396.417 1106.98,378.98 1116.93,429.59 1126.88,450.43 1136.83,374.301 1146.77,293.069 1156.72,292.643 1166.67,400.67 1176.62,512.524 1186.57,507.846 1196.52,554.629 1206.47,538.893 1216.42,573.343 1226.37,577.17 1236.32,599.711 1246.27,543.997 1256.22,404.923 1266.16,313.908 1276.11,351.76 1286.06,357.714 1296.01,325.392 1305.96,378.554 1315.91,400.67 1325.86,378.129 1335.81,410.027 1345.76,429.59 1355.71,370.474 1365.66,304.977 1375.61,346.231 1385.55,328.369 1395.5,329.645 1405.45,418.958 1415.4,459.362 1425.35,521.456 1435.3,501.892 1445.25,566.538 1455.2,561.859 1465.15,496.363 1475.1,490.409 1485.05,554.629 1495,497.639 1504.94,419.383 1514.89,334.323 1524.84,363.243 1534.79,373.451 1544.74,394.29 1554.69,432.993 1564.64,456.385 1574.59,467.868 1584.54,465.316 1594.49,448.304 1604.44,402.371 1614.39,397.268 1624.33,333.898 1634.28,386.635 1644.23,478.075 1654.18,525.709 1664.13,510.823 1674.08,467.017 1684.03,509.973 1693.98,546.549 1703.93,549.951 1713.88,536.341 1723.83,558.882 1733.78,506.995 1743.72,456.81 1753.67,399.394 1763.62,401.521 1773.57,418.958 1783.52,454.683 1793.47,459.362 1803.42,468.293 1813.37,455.959 1823.32,502.742 1833.27,458.936 1843.22,409.601 1853.16,397.268 1863.11,348.358 1873.06,351.76 1883.01,406.199 1892.96,454.683 1902.91,407.475 "/>
<polyline clip-path="url(#clip782)" style="stroke:#0000ff; stroke-linecap:round; stroke-linejoin:round; stroke-width:6; stroke-opacity:1; fill:none" points="241.402,95.9635 251.351,548.048 261.3,548.048 271.249,548.048 281.198,548.048 291.148,548.048 301.097,384.654 311.046,384.654 320.995,384.654 330.944,384.654 340.893,384.654 350.842,384.654 360.792,384.654 370.741,384.654 380.69,384.654 390.639,490.505 400.588,384.654 410.537,384.654 420.487,384.654 430.436,384.654 440.385,384.654 450.334,490.505 460.283,549.248 470.232,490.505 480.181,530.438 490.131,548.048 500.08,95.9635 510.029,548.048 519.978,548.048 529.927,548.048 539.876,490.505 549.826,384.654 559.775,384.654 569.724,384.654 579.673,384.654 589.622,384.654 599.571,384.654 609.52,384.654 619.47,384.654 629.419,384.654 639.368,490.505 649.317,384.654 659.266,384.654 669.215,384.654 679.165,384.654 689.114,490.505 699.063,549.248 709.012,543.32 718.961,548.048 728.91,548.048 738.86,548.048 748.809,548.048 758.758,548.048 768.707,530.438 778.656,384.654 788.605,384.654 798.554,384.654 808.504,384.654 818.453,384.654 828.402,384.654 838.351,384.654 848.3,384.654 858.249,384.654 868.199,384.654 878.148,384.654 888.097,384.654 898.046,384.654 907.995,384.654 917.944,384.654 927.893,490.505 937.843,490.505 947.792,490.505 957.741,548.048 967.69,620.051 977.639,548.048 987.588,530.438 997.538,548.048 1007.49,548.048 1017.44,384.654 1027.39,384.654 1037.33,384.654 1047.28,384.654 1057.23,384.654 1067.18,384.654 1077.13,384.654 1087.08,384.654 1097.03,384.654 1106.98,384.654 1116.93,384.654 1126.88,384.654 1136.83,384.654 1146.77,384.654 1156.72,384.654 1166.67,456.604 1176.62,456.604 1186.57,456.604 1196.52,548.048 1206.47,548.048 1216.42,548.048 1226.37,548.048 1236.32,548.048 1246.27,548.048 1256.22,384.654 1266.16,384.654 1276.11,384.654 1286.06,384.654 1296.01,384.654 1305.96,384.654 1315.91,384.654 1325.86,384.654 1335.81,384.654 1345.76,384.654 1355.71,384.654 1365.66,384.654 1375.61,384.654 1385.55,384.654 1395.5,384.654 1405.45,456.604 1415.4,490.505 1425.35,490.505 1435.3,548.048 1445.25,548.048 1455.2,548.048 1465.15,530.438 1475.1,530.438 1485.05,530.438 1495,407.816 1504.94,407.816 1514.89,407.816 1524.84,407.816 1534.79,407.816 1544.74,490.505 1554.69,407.816 1564.64,407.816 1574.59,407.816 1584.54,490.505 1594.49,490.505 1604.44,407.816 1614.39,407.816 1624.33,407.816 1634.28,407.816 1644.23,407.816 1654.18,407.816 1664.13,490.505 1674.08,548.048 1684.03,548.048 1693.98,548.048 1703.93,548.048 1713.88,530.438 1723.83,530.438 1733.78,407.816 1743.72,407.816 1753.67,407.816 1763.62,407.816 1773.57,407.816 1783.52,490.505 1793.47,407.816 1803.42,407.816 1813.37,407.816 1823.32,490.505 1833.27,407.816 1843.22,407.816 1853.16,407.816 1863.11,407.816 1873.06,407.816 1883.01,407.816 1892.96,407.816 1902.91,407.816 "/>
<path clip-path="url(#clip780)" d="M1477.64 250.558 L1894.05 250.558 L1894.05 75.5976 L1477.64 75.5976  Z" fill="#ffffff" fill-rule="evenodd" fill-opacity="1"/>
<polyline clip-path="url(#clip780)" style="stroke:#000000; stroke-linecap:round; stroke-linejoin:round; stroke-width:4; stroke-opacity:1; fill:none" points="1477.64,250.558 1894.05,250.558 1894.05,75.5976 1477.64,75.5976 1477.64,250.558 "/>
<polyline clip-path="url(#clip780)" style="stroke:#808080; stroke-linecap:round; stroke-linejoin:round; stroke-width:5.625; stroke-opacity:1; fill:none" points="1497.21,133.918 1614.63,133.918 "/>
<path clip-path="url(#clip780)" d="M1652.01 119.66 L1644.87 139.009 L1659.17 139.009 L1652.01 119.66 M1649.04 114.478 L1655 114.478 L1669.82 153.358 L1664.35 153.358 L1660.81 143.384 L1643.28 143.384 L1639.74 153.358 L1634.2 153.358 L1649.04 114.478 Z" fill="#000000" fill-rule="nonzero" fill-opacity="1" /><path clip-path="url(#clip780)" d="M1695.34 125.311 L1695.34 129.79 Q1693.31 128.67 1691.25 128.123 Q1689.22 127.55 1687.14 127.55 Q1682.48 127.55 1679.9 130.519 Q1677.32 133.462 1677.32 138.8 Q1677.32 144.139 1679.9 147.108 Q1682.48 150.05 1687.14 150.05 Q1689.22 150.05 1691.25 149.503 Q1693.31 148.93 1695.34 147.811 L1695.34 152.238 Q1693.34 153.175 1691.17 153.644 Q1689.04 154.113 1686.62 154.113 Q1680.03 154.113 1676.15 149.972 Q1672.27 145.832 1672.27 138.8 Q1672.27 131.665 1676.17 127.576 Q1680.11 123.488 1686.93 123.488 Q1689.14 123.488 1691.25 123.957 Q1693.36 124.399 1695.34 125.311 Z" fill="#000000" fill-rule="nonzero" fill-opacity="1" /><path clip-path="url(#clip780)" d="M1708.41 115.91 L1708.41 124.191 L1718.28 124.191 L1718.28 127.915 L1708.41 127.915 L1708.41 143.748 Q1708.41 147.316 1709.38 148.332 Q1710.37 149.347 1713.36 149.347 L1718.28 149.347 L1718.28 153.358 L1713.36 153.358 Q1707.81 153.358 1705.71 151.3 Q1703.6 149.217 1703.6 143.748 L1703.6 127.915 L1700.08 127.915 L1700.08 124.191 L1703.6 124.191 L1703.6 115.91 L1708.41 115.91 Z" fill="#000000" fill-rule="nonzero" fill-opacity="1" /><path clip-path="url(#clip780)" d="M1724.09 141.847 L1724.09 124.191 L1728.88 124.191 L1728.88 141.665 Q1728.88 145.806 1730.5 147.889 Q1732.11 149.946 1735.34 149.946 Q1739.22 149.946 1741.46 147.472 Q1743.73 144.998 1743.73 140.727 L1743.73 124.191 L1748.52 124.191 L1748.52 153.358 L1743.73 153.358 L1743.73 148.878 Q1741.98 151.535 1739.66 152.837 Q1737.37 154.113 1734.32 154.113 Q1729.3 154.113 1726.69 150.988 Q1724.09 147.863 1724.09 141.847 M1736.15 123.488 L1736.15 123.488 Z" fill="#000000" fill-rule="nonzero" fill-opacity="1" /><path clip-path="url(#clip780)" d="M1771.64 138.696 Q1765.84 138.696 1763.6 140.024 Q1761.36 141.352 1761.36 144.556 Q1761.36 147.108 1763.02 148.618 Q1764.72 150.102 1767.61 150.102 Q1771.59 150.102 1773.99 147.29 Q1776.41 144.451 1776.41 139.764 L1776.41 138.696 L1771.64 138.696 M1781.2 136.717 L1781.2 153.358 L1776.41 153.358 L1776.41 148.93 Q1774.77 151.587 1772.32 152.863 Q1769.87 154.113 1766.33 154.113 Q1761.85 154.113 1759.19 151.613 Q1756.56 149.087 1756.56 144.868 Q1756.56 139.946 1759.85 137.446 Q1763.15 134.946 1769.69 134.946 L1776.41 134.946 L1776.41 134.477 Q1776.41 131.17 1774.22 129.373 Q1772.06 127.55 1768.13 127.55 Q1765.63 127.55 1763.26 128.149 Q1760.89 128.748 1758.7 129.946 L1758.7 125.519 Q1761.33 124.504 1763.8 124.009 Q1766.28 123.488 1768.62 123.488 Q1774.95 123.488 1778.07 126.769 Q1781.2 130.05 1781.2 136.717 Z" fill="#000000" fill-rule="nonzero" fill-opacity="1" /><path clip-path="url(#clip780)" d="M1791.07 112.837 L1795.86 112.837 L1795.86 153.358 L1791.07 153.358 L1791.07 112.837 Z" fill="#000000" fill-rule="nonzero" fill-opacity="1" /><polyline clip-path="url(#clip780)" style="stroke:#0000ff; stroke-linecap:round; stroke-linejoin:round; stroke-width:6.75; stroke-opacity:1; fill:none" points="1497.21,192.238 1614.63,192.238 "/>
<path clip-path="url(#clip780)" d="M1639.46 177.12 L1639.46 191.73 L1646.07 191.73 Q1649.74 191.73 1651.75 189.829 Q1653.75 187.928 1653.75 184.412 Q1653.75 180.923 1651.75 179.021 Q1649.74 177.12 1646.07 177.12 L1639.46 177.12 M1634.2 172.798 L1646.07 172.798 Q1652.61 172.798 1655.94 175.766 Q1659.3 178.709 1659.3 184.412 Q1659.3 190.167 1655.94 193.11 Q1652.61 196.053 1646.07 196.053 L1639.46 196.053 L1639.46 211.678 L1634.2 211.678 L1634.2 172.798 Z" fill="#000000" fill-rule="nonzero" fill-opacity="1" /><path clip-path="url(#clip780)" d="M1682.11 186.99 Q1681.3 186.521 1680.34 186.313 Q1679.4 186.079 1678.26 186.079 Q1674.19 186.079 1672.01 188.735 Q1669.85 191.365 1669.85 196.313 L1669.85 211.678 L1665.03 211.678 L1665.03 182.511 L1669.85 182.511 L1669.85 187.042 Q1671.36 184.386 1673.78 183.11 Q1676.2 181.808 1679.66 181.808 Q1680.16 181.808 1680.76 181.886 Q1681.36 181.938 1682.09 182.068 L1682.11 186.99 Z" fill="#000000" fill-rule="nonzero" fill-opacity="1" /><path clip-path="url(#clip780)" d="M1710.91 195.896 L1710.91 198.24 L1688.88 198.24 Q1689.19 203.188 1691.85 205.792 Q1694.53 208.37 1699.3 208.37 Q1702.06 208.37 1704.64 207.693 Q1707.24 207.016 1709.79 205.662 L1709.79 210.193 Q1707.22 211.287 1704.51 211.86 Q1701.8 212.433 1699.01 212.433 Q1692.03 212.433 1687.94 208.37 Q1683.88 204.308 1683.88 197.381 Q1683.88 190.219 1687.74 186.027 Q1691.62 181.808 1698.18 181.808 Q1704.06 181.808 1707.48 185.61 Q1710.91 189.386 1710.91 195.896 M1706.12 194.49 Q1706.07 190.558 1703.91 188.214 Q1701.77 185.87 1698.23 185.87 Q1694.22 185.87 1691.8 188.136 Q1689.4 190.402 1689.04 194.516 L1706.12 194.49 Z" fill="#000000" fill-rule="nonzero" fill-opacity="1" /><path clip-path="url(#clip780)" d="M1737.97 186.938 L1737.97 171.157 L1742.76 171.157 L1742.76 211.678 L1737.97 211.678 L1737.97 207.303 Q1736.46 209.907 1734.14 211.183 Q1731.85 212.433 1728.62 212.433 Q1723.34 212.433 1720 208.214 Q1716.69 203.995 1716.69 197.12 Q1716.69 190.245 1720 186.027 Q1723.34 181.808 1728.62 181.808 Q1731.85 181.808 1734.14 183.084 Q1736.46 184.334 1737.97 186.938 M1721.64 197.12 Q1721.64 202.407 1723.8 205.428 Q1725.99 208.422 1729.79 208.422 Q1733.6 208.422 1735.78 205.428 Q1737.97 202.407 1737.97 197.12 Q1737.97 191.834 1735.78 188.839 Q1733.6 185.818 1729.79 185.818 Q1725.99 185.818 1723.8 188.839 Q1721.64 191.834 1721.64 197.12 Z" fill="#000000" fill-rule="nonzero" fill-opacity="1" /><path clip-path="url(#clip780)" d="M1752.63 182.511 L1757.42 182.511 L1757.42 211.678 L1752.63 211.678 L1752.63 182.511 M1752.63 171.157 L1757.42 171.157 L1757.42 177.225 L1752.63 177.225 L1752.63 171.157 Z" fill="#000000" fill-rule="nonzero" fill-opacity="1" /><path clip-path="url(#clip780)" d="M1788.44 183.631 L1788.44 188.11 Q1786.41 186.99 1784.35 186.443 Q1782.32 185.87 1780.24 185.87 Q1775.57 185.87 1773 188.839 Q1770.42 191.782 1770.42 197.12 Q1770.42 202.459 1773 205.428 Q1775.57 208.37 1780.24 208.37 Q1782.32 208.37 1784.35 207.823 Q1786.41 207.25 1788.44 206.131 L1788.44 210.558 Q1786.43 211.495 1784.27 211.964 Q1782.14 212.433 1779.72 212.433 Q1773.13 212.433 1769.25 208.292 Q1765.37 204.152 1765.37 197.12 Q1765.37 189.985 1769.27 185.896 Q1773.2 181.808 1780.03 181.808 Q1782.24 181.808 1784.35 182.277 Q1786.46 182.719 1788.44 183.631 Z" fill="#000000" fill-rule="nonzero" fill-opacity="1" /><path clip-path="url(#clip780)" d="M1801.51 174.23 L1801.51 182.511 L1811.38 182.511 L1811.38 186.235 L1801.51 186.235 L1801.51 202.068 Q1801.51 205.636 1802.48 206.652 Q1803.47 207.667 1806.46 207.667 L1811.38 207.667 L1811.38 211.678 L1806.46 211.678 Q1800.91 211.678 1798.8 209.62 Q1796.69 207.537 1796.69 202.068 L1796.69 186.235 L1793.18 186.235 L1793.18 182.511 L1796.69 182.511 L1796.69 174.23 L1801.51 174.23 Z" fill="#000000" fill-rule="nonzero" fill-opacity="1" /><path clip-path="url(#clip780)" d="M1842.63 195.896 L1842.63 198.24 L1820.6 198.24 Q1820.91 203.188 1823.57 205.792 Q1826.25 208.37 1831.02 208.37 Q1833.78 208.37 1836.36 207.693 Q1838.96 207.016 1841.51 205.662 L1841.51 210.193 Q1838.93 211.287 1836.23 211.86 Q1833.52 212.433 1830.73 212.433 Q1823.75 212.433 1819.66 208.37 Q1815.6 204.308 1815.6 197.381 Q1815.6 190.219 1819.45 186.027 Q1823.33 181.808 1829.9 181.808 Q1835.78 181.808 1839.19 185.61 Q1842.63 189.386 1842.63 195.896 M1837.84 194.49 Q1837.79 190.558 1835.63 188.214 Q1833.49 185.87 1829.95 185.87 Q1825.94 185.87 1823.52 188.136 Q1821.12 190.402 1820.76 194.516 L1837.84 194.49 Z" fill="#000000" fill-rule="nonzero" fill-opacity="1" /><path clip-path="url(#clip780)" d="M1869.69 186.938 L1869.69 171.157 L1874.48 171.157 L1874.48 211.678 L1869.69 211.678 L1869.69 207.303 Q1868.18 209.907 1865.86 211.183 Q1863.57 212.433 1860.34 212.433 Q1855.05 212.433 1851.72 208.214 Q1848.41 203.995 1848.41 197.12 Q1848.41 190.245 1851.72 186.027 Q1855.05 181.808 1860.34 181.808 Q1863.57 181.808 1865.86 183.084 Q1868.18 184.334 1869.69 186.938 M1853.36 197.12 Q1853.36 202.407 1855.52 205.428 Q1857.71 208.422 1861.51 208.422 Q1865.31 208.422 1867.5 205.428 Q1869.69 202.407 1869.69 197.12 Q1869.69 191.834 1867.5 188.839 Q1865.31 185.818 1861.51 185.818 Q1857.71 185.818 1855.52 188.839 Q1853.36 191.834 1853.36 197.12 Z" fill="#000000" fill-rule="nonzero" fill-opacity="1" /></svg>
