<?xml version="1.0" encoding="UTF-8" standalone="no"?>
<!DOCTYPE svg PUBLIC "-//W3C//DTD SVG 1.1//EN"
 "http://www.w3.org/Graphics/SVG/1.1/DTD/svg11.dtd">
<!-- Generated by graphviz version 2.50.0 (20211204.2007)
 -->
<!-- Pages: 1 -->
<svg width="914pt" height="588pt"
 viewBox="0.00 0.00 913.50 588.00" xmlns="http://www.w3.org/2000/svg" xmlns:xlink="http://www.w3.org/1999/xlink">
<g id="graph0" class="graph" transform="scale(1 1) rotate(0) translate(4 584)">
<polygon fill="white" stroke="transparent" points="-4,4 -4,-584 909.5,-584 909.5,4 -4,4"/>
<!-- 1 -->
<g id="node1" class="node">
<title>1</title>
<text text-anchor="start" x="458" y="-561.8" font-family="Arial" font-weight="bold" font-size="14.00"> </text>
<path fill="#ebebeb" stroke="transparent" d="M418,-489C418,-489 502,-489 502,-489 508,-489 514,-495 514,-501 514,-501 514,-541 514,-541 514,-547 508,-553 502,-553 502,-553 418,-553 418,-553 412,-553 406,-547 406,-541 406,-541 406,-501 406,-501 406,-495 412,-489 418,-489"/>
<text text-anchor="start" x="407" y="-550.4" font-family="Arial" font-size="2.00"> </text>
<text text-anchor="start" x="407" y="-544.4" font-family="Arial" font-size="7.00"> &#160;1</text>
<text text-anchor="start" x="421" y="-527.8" font-family="Arial" font-weight="bold" font-size="14.00">Mean: 10.31</text>
<text text-anchor="start" x="436.5" y="-510.8" font-family="Arial" font-weight="bold" font-size="14.00">n = 336</text>
<text text-anchor="start" x="458.5" y="-492.8" font-family="Arial" font-size="9.00"> </text>
<path fill="none" stroke="#333333" d="M418,-489C418,-489 502,-489 502,-489 508,-489 514,-495 514,-501 514,-501 514,-541 514,-541 514,-547 508,-553 502,-553 502,-553 418,-553 418,-553 412,-553 406,-547 406,-541 406,-541 406,-501 406,-501 406,-495 412,-489 418,-489"/>
<text text-anchor="start" x="445.5" y="-474.8" font-family="Arial" font-weight="bold" font-size="14.00">time</text>
</g>
<!-- 2 -->
<g id="node2" class="node">
<title>2</title>
<text text-anchor="start" x="361.5" y="-407.8" font-family="Arial" font-weight="bold" font-size="14.00"> &lt; 5.5</text>
<text text-anchor="start" x="311" y="-363.3" font-family="Arial" font-size="14.00"> &#160;&#160;&#160;</text>
<path fill="#ebebeb" stroke="transparent" d="M341,-335C341,-335 417,-335 417,-335 423,-335 429,-341 429,-347 429,-347 429,-387 429,-387 429,-393 423,-399 417,-399 417,-399 341,-399 341,-399 335,-399 329,-393 329,-387 329,-387 329,-347 329,-347 329,-341 335,-335 341,-335"/>
<text text-anchor="start" x="330" y="-396.4" font-family="Arial" font-size="2.00"> </text>
<text text-anchor="start" x="330" y="-390.4" font-family="Arial" font-size="7.00"> &#160;2</text>
<text text-anchor="start" x="344" y="-373.8" font-family="Arial" font-weight="bold" font-size="14.00">Mean: 7.99</text>
<text text-anchor="start" x="359" y="-356.8" font-family="Arial" font-weight="bold" font-size="14.00">n = 84</text>
<text text-anchor="start" x="377.5" y="-338.8" font-family="Arial" font-size="9.00"> </text>
<path fill="none" stroke="#333333" d="M341,-335C341,-335 417,-335 417,-335 423,-335 429,-341 429,-347 429,-347 429,-387 429,-387 429,-393 423,-399 417,-399 417,-399 341,-399 341,-399 335,-399 329,-393 329,-387 329,-387 329,-347 329,-347 329,-341 335,-335 341,-335"/>
<text text-anchor="start" x="431" y="-363.3" font-family="Arial" font-size="14.00"> &#160;&#160;&#160;</text>
<text text-anchor="start" x="326" y="-320.8" font-family="Arial" font-weight="bold" font-size="14.00">prev_168_inflow</text>
</g>
<!-- 1&#45;&gt;2 -->
<g id="edge1" class="edge">
<title>1&#45;&gt;2</title>
<path fill="none" stroke="#888888" d="M428.91,-461.67C424.31,-453.03 419.54,-444.07 414.85,-435.27"/>
<polygon fill="#888888" stroke="#888888" points="417.79,-433.36 410,-426.18 411.62,-436.65 417.79,-433.36"/>
</g>
<!-- 7 -->
<g id="node3" class="node">
<title>7</title>
<text text-anchor="start" x="524.5" y="-407.8" font-family="Arial" font-weight="bold" font-size="14.00"> ≥ 5.5</text>
<path fill="#ebebeb" stroke="transparent" d="M500,-335C500,-335 583,-335 583,-335 589,-335 595,-341 595,-347 595,-347 595,-387 595,-387 595,-393 589,-399 583,-399 583,-399 500,-399 500,-399 494,-399 488,-393 488,-387 488,-387 488,-347 488,-347 488,-341 494,-335 500,-335"/>
<text text-anchor="start" x="489" y="-396.4" font-family="Arial" font-size="2.00"> </text>
<text text-anchor="start" x="489" y="-390.4" font-family="Arial" font-size="7.00"> &#160;7</text>
<text text-anchor="start" x="503" y="-373.8" font-family="Arial" font-weight="bold" font-size="14.00">Mean: 11.08</text>
<text text-anchor="start" x="518" y="-356.8" font-family="Arial" font-weight="bold" font-size="14.00">n = 252</text>
<text text-anchor="start" x="540" y="-338.8" font-family="Arial" font-size="9.00"> </text>
<path fill="none" stroke="#333333" d="M500,-335C500,-335 583,-335 583,-335 589,-335 595,-341 595,-347 595,-347 595,-387 595,-387 595,-393 589,-399 583,-399 583,-399 500,-399 500,-399 494,-399 488,-393 488,-387 488,-387 488,-347 488,-347 488,-341 494,-335 500,-335"/>
<text text-anchor="start" x="512.5" y="-320.8" font-family="Arial" font-weight="bold" font-size="14.00">air_temp</text>
</g>
<!-- 1&#45;&gt;7 -->
<g id="edge2" class="edge">
<title>1&#45;&gt;7</title>
<path fill="none" stroke="#888888" d="M491.09,-461.67C495.69,-453.03 500.46,-444.07 505.15,-435.27"/>
<polygon fill="#888888" stroke="#888888" points="508.38,-436.65 510,-426.18 502.21,-433.36 508.38,-436.65"/>
</g>
<!-- 3 -->
<g id="node4" class="node">
<title>3</title>
<text text-anchor="start" x="196" y="-253.8" font-family="Arial" font-weight="bold" font-size="14.00"> &lt; 15.37</text>
<text text-anchor="start" x="157" y="-209.3" font-family="Arial" font-size="14.00"> &#160;</text>
<path fill="#ebebeb" stroke="transparent" d="M179,-181C179,-181 263,-181 263,-181 269,-181 275,-187 275,-193 275,-193 275,-233 275,-233 275,-239 269,-245 263,-245 263,-245 179,-245 179,-245 173,-245 167,-239 167,-233 167,-233 167,-193 167,-193 167,-187 173,-181 179,-181"/>
<text text-anchor="start" x="168" y="-242.4" font-family="Arial" font-size="2.00"> </text>
<text text-anchor="start" x="168" y="-236.4" font-family="Arial" font-size="7.00"> &#160;3</text>
<text text-anchor="start" x="182" y="-219.8" font-family="Arial" font-weight="bold" font-size="14.00">Mean: 7.512</text>
<text text-anchor="start" x="201" y="-202.8" font-family="Arial" font-weight="bold" font-size="14.00">n = 80</text>
<text text-anchor="start" x="219.5" y="-184.8" font-family="Arial" font-size="9.00"> </text>
<path fill="none" stroke="#333333" d="M179,-181C179,-181 263,-181 263,-181 269,-181 275,-187 275,-193 275,-193 275,-233 275,-233 275,-239 269,-245 263,-245 263,-245 179,-245 179,-245 173,-245 167,-239 167,-233 167,-233 167,-193 167,-193 167,-187 173,-181 179,-181"/>
<text text-anchor="start" x="277" y="-209.3" font-family="Arial" font-size="14.00"> &#160;</text>
<text text-anchor="start" x="169" y="-166.8" font-family="Arial" font-weight="bold" font-size="14.00">week_of_month</text>
</g>
<!-- 2&#45;&gt;3 -->
<g id="edge3" class="edge">
<title>2&#45;&gt;3</title>
<path fill="none" stroke="#888888" d="M318.36,-307.67C308.73,-298.39 298.7,-288.75 288.91,-279.33"/>
<polygon fill="#888888" stroke="#888888" points="291.11,-276.59 281.47,-272.18 286.25,-281.63 291.11,-276.59"/>
</g>
<!-- 6 -->
<g id="node5" class="node">
<title>6</title>
<text text-anchor="start" x="357.5" y="-253.8" font-family="Arial" font-weight="bold" font-size="14.00"> ≥ 15.37</text>
<path fill="#f8766d" fill-opacity="0.376471" stroke="transparent" d="M337,-181C337,-181 427,-181 427,-181 433,-181 439,-187 439,-193 439,-193 439,-233 439,-233 439,-239 433,-245 427,-245 427,-245 337,-245 337,-245 331,-245 325,-239 325,-233 325,-233 325,-193 325,-193 325,-187 331,-181 337,-181"/>
<text text-anchor="start" x="326" y="-242.4" font-family="Arial" font-size="2.00"> </text>
<text text-anchor="start" x="326" y="-236.4" font-family="Arial" font-size="7.00"> &#160;6</text>
<text text-anchor="start" x="340" y="-219.8" font-family="Arial" font-weight="bold" font-size="14.00">Predict 17.55</text>
<text text-anchor="start" x="366" y="-202.8" font-family="Arial" font-weight="bold" font-size="14.00">n = 4</text>
<text text-anchor="start" x="380.5" y="-184.8" font-family="Arial" font-size="9.00"> </text>
<path fill="none" stroke="#333333" d="M337,-181C337,-181 427,-181 427,-181 433,-181 439,-187 439,-193 439,-193 439,-233 439,-233 439,-239 433,-245 427,-245 427,-245 337,-245 337,-245 331,-245 325,-239 325,-233 325,-233 325,-193 325,-193 325,-187 331,-181 337,-181"/>
<text text-anchor="start" x="380" y="-166.8" font-family="Arial" font-weight="bold" font-size="14.00"> </text>
</g>
<!-- 2&#45;&gt;6 -->
<g id="edge4" class="edge">
<title>2&#45;&gt;6</title>
<path fill="none" stroke="#888888" d="M380.15,-307.67C380.31,-299.39 380.48,-290.83 380.65,-282.38"/>
<polygon fill="#888888" stroke="#888888" points="384.15,-282.24 380.85,-272.18 377.16,-282.11 384.15,-282.24"/>
</g>
<!-- 8 -->
<g id="node8" class="node">
<title>8</title>
<text text-anchor="start" x="514" y="-253.8" font-family="Arial" font-weight="bold" font-size="14.00"> &lt; 25.45</text>
<path fill="#ebebeb" stroke="transparent" d="M497,-181C497,-181 581,-181 581,-181 587,-181 593,-187 593,-193 593,-193 593,-233 593,-233 593,-239 587,-245 581,-245 581,-245 497,-245 497,-245 491,-245 485,-239 485,-233 485,-233 485,-193 485,-193 485,-187 491,-181 497,-181"/>
<text text-anchor="start" x="486" y="-242.4" font-family="Arial" font-size="2.00"> </text>
<text text-anchor="start" x="486" y="-236.4" font-family="Arial" font-size="7.00"> &#160;8</text>
<text text-anchor="start" x="500" y="-219.8" font-family="Arial" font-weight="bold" font-size="14.00">Mean: 10.49</text>
<text text-anchor="start" x="519" y="-202.8" font-family="Arial" font-weight="bold" font-size="14.00">n = 74</text>
<text text-anchor="start" x="537.5" y="-184.8" font-family="Arial" font-size="9.00"> </text>
<path fill="none" stroke="#333333" d="M497,-181C497,-181 581,-181 581,-181 587,-181 593,-187 593,-193 593,-193 593,-233 593,-233 593,-239 587,-245 581,-245 581,-245 497,-245 497,-245 491,-245 485,-239 485,-233 485,-233 485,-193 485,-193 485,-187 491,-181 497,-181"/>
<text text-anchor="start" x="524.5" y="-166.8" font-family="Arial" font-weight="bold" font-size="14.00">time</text>
</g>
<!-- 7&#45;&gt;8 -->
<g id="edge7" class="edge">
<title>7&#45;&gt;8</title>
<path fill="none" stroke="#888888" d="M540.23,-307.67C540.12,-299.39 540.01,-290.83 539.9,-282.38"/>
<polygon fill="#888888" stroke="#888888" points="543.4,-282.13 539.77,-272.18 536.4,-282.22 543.4,-282.13"/>
</g>
<!-- 11 -->
<g id="node9" class="node">
<title>11</title>
<text text-anchor="start" x="677" y="-253.8" font-family="Arial" font-weight="bold" font-size="14.00"> ≥ 25.45</text>
<text text-anchor="start" x="634" y="-209.3" font-family="Arial" font-size="14.00"> &#160;&#160;</text>
<path fill="#ebebeb" stroke="transparent" d="M660,-181C660,-181 743,-181 743,-181 749,-181 755,-187 755,-193 755,-193 755,-233 755,-233 755,-239 749,-245 743,-245 743,-245 660,-245 660,-245 654,-245 648,-239 648,-233 648,-233 648,-193 648,-193 648,-187 654,-181 660,-181"/>
<text text-anchor="start" x="649" y="-242.4" font-family="Arial" font-size="2.00"> </text>
<text text-anchor="start" x="649" y="-236.4" font-family="Arial" font-size="7.00"> &#160;11</text>
<text text-anchor="start" x="663" y="-219.8" font-family="Arial" font-weight="bold" font-size="14.00">Mean: 11.32</text>
<text text-anchor="start" x="678" y="-202.8" font-family="Arial" font-weight="bold" font-size="14.00">n = 178</text>
<text text-anchor="start" x="700" y="-184.8" font-family="Arial" font-size="9.00"> </text>
<path fill="none" stroke="#333333" d="M660,-181C660,-181 743,-181 743,-181 749,-181 755,-187 755,-193 755,-193 755,-233 755,-233 755,-239 749,-245 743,-245 743,-245 660,-245 660,-245 654,-245 648,-239 648,-233 648,-233 648,-193 648,-193 648,-187 654,-181 660,-181"/>
<text text-anchor="start" x="757" y="-209.3" font-family="Arial" font-size="14.00"> &#160;&#160;</text>
<text text-anchor="start" x="648.5" y="-166.8" font-family="Arial" font-weight="bold" font-size="14.00">prev_168_inflow</text>
</g>
<!-- 7&#45;&gt;11 -->
<g id="edge8" class="edge">
<title>7&#45;&gt;11</title>
<path fill="none" stroke="#888888" d="M602.4,-307.67C612.16,-298.39 622.32,-288.75 632.23,-279.33"/>
<polygon fill="#888888" stroke="#888888" points="634.92,-281.6 639.76,-272.18 630.1,-276.53 634.92,-281.6"/>
</g>
<!-- 4 -->
<g id="node6" class="node">
<title>4</title>
<text text-anchor="start" x="51.5" y="-99.8" font-family="Arial" font-weight="bold" font-size="14.00"> &lt; 3.5</text>
<path fill="#f8766d" fill-opacity="0.874510" stroke="transparent" d="M24,-27C24,-27 114,-27 114,-27 120,-27 126,-33 126,-39 126,-39 126,-79 126,-79 126,-85 120,-91 114,-91 114,-91 24,-91 24,-91 18,-91 12,-85 12,-79 12,-79 12,-39 12,-39 12,-33 18,-27 24,-27"/>
<text text-anchor="start" x="13" y="-88.4" font-family="Arial" font-size="2.00"> </text>
<text text-anchor="start" x="13" y="-82.4" font-family="Arial" font-size="7.00"> &#160;4</text>
<text text-anchor="start" x="27" y="-65.8" font-family="Arial" font-weight="bold" font-size="14.00">Predict 7.253</text>
<text text-anchor="start" x="49" y="-48.8" font-family="Arial" font-weight="bold" font-size="14.00">n = 62</text>
<text text-anchor="start" x="67.5" y="-30.8" font-family="Arial" font-size="9.00"> </text>
<path fill="none" stroke="#333333" d="M24,-27C24,-27 114,-27 114,-27 120,-27 126,-33 126,-39 126,-39 126,-79 126,-79 126,-85 120,-91 114,-91 114,-91 24,-91 24,-91 18,-91 12,-85 12,-79 12,-79 12,-39 12,-39 12,-33 18,-27 24,-27"/>
<text text-anchor="start" x="67" y="-12.8" font-family="Arial" font-weight="bold" font-size="14.00"> </text>
</g>
<!-- 3&#45;&gt;4 -->
<g id="edge5" class="edge">
<title>3&#45;&gt;4</title>
<path fill="none" stroke="#888888" d="M162.67,-153.67C153.39,-144.39 143.75,-134.75 134.33,-125.33"/>
<polygon fill="#888888" stroke="#888888" points="136.72,-122.77 127.18,-118.18 131.77,-127.72 136.72,-122.77"/>
</g>
<!-- 5 -->
<g id="node7" class="node">
<title>5</title>
<text text-anchor="start" x="208" y="-99.8" font-family="Arial" font-weight="bold" font-size="14.00"> ≥ 3.5</text>
<path fill="#f8766d" fill-opacity="0.819608" stroke="transparent" d="M180,-27C180,-27 270,-27 270,-27 276,-27 282,-33 282,-39 282,-39 282,-79 282,-79 282,-85 276,-91 270,-91 270,-91 180,-91 180,-91 174,-91 168,-85 168,-79 168,-79 168,-39 168,-39 168,-33 174,-27 180,-27"/>
<text text-anchor="start" x="169" y="-88.4" font-family="Arial" font-size="2.00"> </text>
<text text-anchor="start" x="169" y="-82.4" font-family="Arial" font-size="7.00"> &#160;5</text>
<text text-anchor="start" x="183" y="-65.8" font-family="Arial" font-weight="bold" font-size="14.00">Predict 8.403</text>
<text text-anchor="start" x="205" y="-48.8" font-family="Arial" font-weight="bold" font-size="14.00">n = 18</text>
<text text-anchor="start" x="223.5" y="-30.8" font-family="Arial" font-size="9.00"> </text>
<path fill="none" stroke="#333333" d="M180,-27C180,-27 270,-27 270,-27 276,-27 282,-33 282,-39 282,-39 282,-79 282,-79 282,-85 276,-91 270,-91 270,-91 180,-91 180,-91 174,-91 168,-85 168,-79 168,-79 168,-39 168,-39 168,-33 174,-27 180,-27"/>
<text text-anchor="start" x="223" y="-12.8" font-family="Arial" font-weight="bold" font-size="14.00"> </text>
</g>
<!-- 3&#45;&gt;5 -->
<g id="edge6" class="edge">
<title>3&#45;&gt;5</title>
<path fill="none" stroke="#888888" d="M222.54,-153.67C222.75,-145.39 222.98,-136.83 223.2,-128.38"/>
<polygon fill="#888888" stroke="#888888" points="226.7,-128.27 223.47,-118.18 219.71,-128.08 226.7,-128.27"/>
</g>
<!-- 9 -->
<g id="node10" class="node">
<title>9</title>
<text text-anchor="start" x="363.5" y="-99.8" font-family="Arial" font-weight="bold" font-size="14.00"> &lt; 20.5</text>
<path fill="#f8766d" fill-opacity="0.698039" stroke="transparent" d="M340,-27C340,-27 430,-27 430,-27 436,-27 442,-33 442,-39 442,-39 442,-79 442,-79 442,-85 436,-91 430,-91 430,-91 340,-91 340,-91 334,-91 328,-85 328,-79 328,-79 328,-39 328,-39 328,-33 334,-27 340,-27"/>
<text text-anchor="start" x="329" y="-88.4" font-family="Arial" font-size="2.00"> </text>
<text text-anchor="start" x="329" y="-82.4" font-family="Arial" font-size="7.00"> &#160;9</text>
<text text-anchor="start" x="343" y="-65.8" font-family="Arial" font-weight="bold" font-size="14.00">Predict 10.91</text>
<text text-anchor="start" x="365" y="-48.8" font-family="Arial" font-weight="bold" font-size="14.00">n = 65</text>
<text text-anchor="start" x="383.5" y="-30.8" font-family="Arial" font-size="9.00"> </text>
<path fill="none" stroke="#333333" d="M340,-27C340,-27 430,-27 430,-27 436,-27 442,-33 442,-39 442,-39 442,-79 442,-79 442,-85 436,-91 430,-91 430,-91 340,-91 340,-91 334,-91 328,-85 328,-79 328,-79 328,-39 328,-39 328,-33 334,-27 340,-27"/>
<text text-anchor="start" x="383" y="-12.8" font-family="Arial" font-weight="bold" font-size="14.00"> </text>
</g>
<!-- 8&#45;&gt;9 -->
<g id="edge9" class="edge">
<title>8&#45;&gt;9</title>
<path fill="none" stroke="#888888" d="M479.9,-153.67C470.5,-144.39 460.73,-134.75 451.19,-125.33"/>
<polygon fill="#888888" stroke="#888888" points="453.52,-122.71 443.94,-118.18 448.6,-127.69 453.52,-122.71"/>
</g>
<!-- 10 -->
<g id="node11" class="node">
<title>10</title>
<text text-anchor="start" x="520" y="-99.8" font-family="Arial" font-weight="bold" font-size="14.00"> ≥ 20.5</text>
<path fill="#f8766d" fill-opacity="0.862745" stroke="transparent" d="M496,-27C496,-27 586,-27 586,-27 592,-27 598,-33 598,-39 598,-39 598,-79 598,-79 598,-85 592,-91 586,-91 586,-91 496,-91 496,-91 490,-91 484,-85 484,-79 484,-79 484,-39 484,-39 484,-33 490,-27 496,-27"/>
<text text-anchor="start" x="485" y="-88.4" font-family="Arial" font-size="2.00"> </text>
<text text-anchor="start" x="485" y="-82.4" font-family="Arial" font-size="7.00"> &#160;10</text>
<text text-anchor="start" x="499" y="-65.8" font-family="Arial" font-weight="bold" font-size="14.00">Predict 7.506</text>
<text text-anchor="start" x="525" y="-48.8" font-family="Arial" font-weight="bold" font-size="14.00">n = 9</text>
<text text-anchor="start" x="539.5" y="-30.8" font-family="Arial" font-size="9.00"> </text>
<path fill="none" stroke="#333333" d="M496,-27C496,-27 586,-27 586,-27 592,-27 598,-33 598,-39 598,-39 598,-79 598,-79 598,-85 592,-91 586,-91 586,-91 496,-91 496,-91 490,-91 484,-85 484,-79 484,-79 484,-39 484,-39 484,-33 490,-27 496,-27"/>
<text text-anchor="start" x="539" y="-12.8" font-family="Arial" font-weight="bold" font-size="14.00"> </text>
</g>
<!-- 8&#45;&gt;10 -->
<g id="edge10" class="edge">
<title>8&#45;&gt;10</title>
<path fill="none" stroke="#888888" d="M539.77,-153.67C539.88,-145.39 539.99,-136.83 540.1,-128.38"/>
<polygon fill="#888888" stroke="#888888" points="543.6,-128.22 540.23,-118.18 536.6,-128.13 543.6,-128.22"/>
</g>
<!-- 12 -->
<g id="node12" class="node">
<title>12</title>
<text text-anchor="start" x="674" y="-99.8" font-family="Arial" font-weight="bold" font-size="14.00"> &lt; 9.565</text>
<path fill="#f8766d" fill-opacity="0.745098" stroke="transparent" d="M654,-27C654,-27 744,-27 744,-27 750,-27 756,-33 756,-39 756,-39 756,-79 756,-79 756,-85 750,-91 744,-91 744,-91 654,-91 654,-91 648,-91 642,-85 642,-79 642,-79 642,-39 642,-39 642,-33 648,-27 654,-27"/>
<text text-anchor="start" x="643" y="-88.4" font-family="Arial" font-size="2.00"> </text>
<text text-anchor="start" x="643" y="-82.4" font-family="Arial" font-size="7.00"> &#160;12</text>
<text text-anchor="start" x="657" y="-65.8" font-family="Arial" font-weight="bold" font-size="14.00">Predict 9.921</text>
<text text-anchor="start" x="679" y="-48.8" font-family="Arial" font-weight="bold" font-size="14.00">n = 58</text>
<text text-anchor="start" x="697.5" y="-30.8" font-family="Arial" font-size="9.00"> </text>
<path fill="none" stroke="#333333" d="M654,-27C654,-27 744,-27 744,-27 750,-27 756,-33 756,-39 756,-39 756,-79 756,-79 756,-85 750,-91 744,-91 744,-91 654,-91 654,-91 648,-91 642,-85 642,-79 642,-79 642,-39 642,-39 642,-33 648,-27 654,-27"/>
<text text-anchor="start" x="697" y="-12.8" font-family="Arial" font-weight="bold" font-size="14.00"> </text>
</g>
<!-- 11&#45;&gt;12 -->
<g id="edge11" class="edge">
<title>11&#45;&gt;12</title>
<path fill="none" stroke="#888888" d="M700.23,-153.67C700.12,-145.39 700.01,-136.83 699.9,-128.38"/>
<polygon fill="#888888" stroke="#888888" points="703.4,-128.13 699.77,-118.18 696.4,-128.22 703.4,-128.13"/>
</g>
<!-- 13 -->
<g id="node13" class="node">
<title>13</title>
<text text-anchor="start" x="822" y="-99.8" font-family="Arial" font-weight="bold" font-size="14.00"> ≥ 9.565</text>
<path fill="#f8766d" fill-opacity="0.643137" stroke="transparent" d="M811,-27C811,-27 882,-27 882,-27 888,-27 894,-33 894,-39 894,-39 894,-79 894,-79 894,-85 888,-91 882,-91 882,-91 811,-91 811,-91 805,-91 799,-85 799,-79 799,-79 799,-39 799,-39 799,-33 805,-27 811,-27"/>
<text text-anchor="start" x="800" y="-88.4" font-family="Arial" font-size="2.00"> </text>
<text text-anchor="start" x="800" y="-82.4" font-family="Arial" font-size="7.00"> &#160;13</text>
<text text-anchor="start" x="814" y="-65.8" font-family="Arial" font-weight="bold" font-size="14.00">Predict 12</text>
<text text-anchor="start" x="823" y="-48.8" font-family="Arial" font-weight="bold" font-size="14.00">n = 120</text>
<text text-anchor="start" x="845" y="-30.8" font-family="Arial" font-size="9.00"> </text>
<path fill="none" stroke="#333333" d="M811,-27C811,-27 882,-27 882,-27 888,-27 894,-33 894,-39 894,-39 894,-79 894,-79 894,-85 888,-91 882,-91 882,-91 811,-91 811,-91 805,-91 799,-85 799,-79 799,-79 799,-39 799,-39 799,-33 805,-27 811,-27"/>
<text text-anchor="start" x="844.5" y="-12.8" font-family="Arial" font-weight="bold" font-size="14.00"> </text>
</g>
<!-- 11&#45;&gt;13 -->
<g id="edge12" class="edge">
<title>11&#45;&gt;13</title>
<path fill="none" stroke="#888888" d="M756.65,-153.67C765.41,-144.49 774.51,-134.94 783.42,-125.6"/>
<polygon fill="#888888" stroke="#888888" points="786.13,-127.83 790.5,-118.18 781.07,-123 786.13,-127.83"/>
</g>
</g>
</svg>
