<?xml version="1.0" encoding="UTF-8" standalone="no"?>
<!DOCTYPE svg PUBLIC "-//W3C//DTD SVG 1.1//EN"
 "http://www.w3.org/Graphics/SVG/1.1/DTD/svg11.dtd">
<!-- Generated by graphviz version 2.50.0 (20211204.2007)
 -->
<!-- Pages: 1 -->
<svg width="699pt" height="588pt"
 viewBox="0.00 0.00 699.00 588.00" xmlns="http://www.w3.org/2000/svg" xmlns:xlink="http://www.w3.org/1999/xlink">
<g id="graph0" class="graph" transform="scale(1 1) rotate(0) translate(4 584)">
<polygon fill="white" stroke="transparent" points="-4,4 -4,-584 695,-584 695,4 -4,4"/>
<!-- 1 -->
<g id="node1" class="node">
<title>1</title>
<text text-anchor="start" x="377" y="-561.8" font-family="Arial" font-weight="bold" font-size="14.00"> </text>
<text text-anchor="start" x="311" y="-517.3" font-family="Arial" font-size="14.00"> &#160;&#160;</text>
<path fill="#ebebeb" stroke="transparent" d="M337,-489C337,-489 421,-489 421,-489 427,-489 433,-495 433,-501 433,-501 433,-541 433,-541 433,-547 427,-553 421,-553 421,-553 337,-553 337,-553 331,-553 325,-547 325,-541 325,-541 325,-501 325,-501 325,-495 331,-489 337,-489"/>
<text text-anchor="start" x="326" y="-550.4" font-family="Arial" font-size="2.00"> </text>
<text text-anchor="start" x="326" y="-544.4" font-family="Arial" font-size="7.00"> &#160;1</text>
<text text-anchor="start" x="340" y="-527.8" font-family="Arial" font-weight="bold" font-size="14.00">Mean: 30.69</text>
<text text-anchor="start" x="355.5" y="-510.8" font-family="Arial" font-weight="bold" font-size="14.00">n = 168</text>
<text text-anchor="start" x="377.5" y="-492.8" font-family="Arial" font-size="9.00"> </text>
<path fill="none" stroke="#333333" d="M337,-489C337,-489 421,-489 421,-489 427,-489 433,-495 433,-501 433,-501 433,-541 433,-541 433,-547 427,-553 421,-553 421,-553 337,-553 337,-553 331,-553 325,-547 325,-541 325,-541 325,-501 325,-501 325,-495 331,-489 337,-489"/>
<text text-anchor="start" x="435" y="-517.3" font-family="Arial" font-size="14.00"> &#160;&#160;</text>
<text text-anchor="start" x="326" y="-474.8" font-family="Arial" font-weight="bold" font-size="14.00">prev_168_inflow</text>
</g>
<!-- 2 -->
<g id="node2" class="node">
<title>2</title>
<text text-anchor="start" x="271" y="-407.8" font-family="Arial" font-weight="bold" font-size="14.00"> &lt; 30.99</text>
<text text-anchor="start" x="232" y="-363.3" font-family="Arial" font-size="14.00"> &#160;</text>
<path fill="#ebebeb" stroke="transparent" d="M254,-335C254,-335 338,-335 338,-335 344,-335 350,-341 350,-347 350,-347 350,-387 350,-387 350,-393 344,-399 338,-399 338,-399 254,-399 254,-399 248,-399 242,-393 242,-387 242,-387 242,-347 242,-347 242,-341 248,-335 254,-335"/>
<text text-anchor="start" x="243" y="-396.4" font-family="Arial" font-size="2.00"> </text>
<text text-anchor="start" x="243" y="-390.4" font-family="Arial" font-size="7.00"> &#160;2</text>
<text text-anchor="start" x="257" y="-373.8" font-family="Arial" font-weight="bold" font-size="14.00">Mean: 23.74</text>
<text text-anchor="start" x="276" y="-356.8" font-family="Arial" font-weight="bold" font-size="14.00">n = 75</text>
<text text-anchor="start" x="294.5" y="-338.8" font-family="Arial" font-size="9.00"> </text>
<path fill="none" stroke="#333333" d="M254,-335C254,-335 338,-335 338,-335 344,-335 350,-341 350,-347 350,-347 350,-387 350,-387 350,-393 344,-399 338,-399 338,-399 254,-399 254,-399 248,-399 242,-393 242,-387 242,-387 242,-347 242,-347 242,-341 248,-335 254,-335"/>
<text text-anchor="start" x="352" y="-363.3" font-family="Arial" font-size="14.00"> &#160;</text>
<text text-anchor="start" x="246.5" y="-320.8" font-family="Arial" font-weight="bold" font-size="14.00">prev_24_inflow</text>
</g>
<!-- 1&#45;&gt;2 -->
<g id="edge1" class="edge">
<title>1&#45;&gt;2</title>
<path fill="none" stroke="#888888" d="M347.15,-461.67C342.38,-452.94 337.44,-443.88 332.58,-434.99"/>
<polygon fill="#888888" stroke="#888888" points="335.63,-433.28 327.77,-426.18 329.49,-436.63 335.63,-433.28"/>
</g>
<!-- 7 -->
<g id="node3" class="node">
<title>7</title>
<text text-anchor="start" x="437.5" y="-407.8" font-family="Arial" font-weight="bold" font-size="14.00"> ≥ 30.99</text>
<text text-anchor="start" x="398" y="-363.3" font-family="Arial" font-size="14.00"> &#160;</text>
<path fill="#ebebeb" stroke="transparent" d="M420,-335C420,-335 504,-335 504,-335 510,-335 516,-341 516,-347 516,-347 516,-387 516,-387 516,-393 510,-399 504,-399 504,-399 420,-399 420,-399 414,-399 408,-393 408,-387 408,-387 408,-347 408,-347 408,-341 414,-335 420,-335"/>
<text text-anchor="start" x="409" y="-396.4" font-family="Arial" font-size="2.00"> </text>
<text text-anchor="start" x="409" y="-390.4" font-family="Arial" font-size="7.00"> &#160;7</text>
<text text-anchor="start" x="423" y="-373.8" font-family="Arial" font-weight="bold" font-size="14.00">Mean: 36.29</text>
<text text-anchor="start" x="442" y="-356.8" font-family="Arial" font-weight="bold" font-size="14.00">n = 93</text>
<text text-anchor="start" x="460.5" y="-338.8" font-family="Arial" font-size="9.00"> </text>
<path fill="none" stroke="#333333" d="M420,-335C420,-335 504,-335 504,-335 510,-335 516,-341 516,-347 516,-347 516,-387 516,-387 516,-393 510,-399 504,-399 504,-399 420,-399 420,-399 414,-399 408,-393 408,-387 408,-387 408,-347 408,-347 408,-341 414,-335 420,-335"/>
<text text-anchor="start" x="518" y="-363.3" font-family="Arial" font-size="14.00"> &#160;</text>
<text text-anchor="start" x="412.5" y="-320.8" font-family="Arial" font-weight="bold" font-size="14.00">prev_24_inflow</text>
</g>
<!-- 1&#45;&gt;7 -->
<g id="edge2" class="edge">
<title>1&#45;&gt;7</title>
<path fill="none" stroke="#888888" d="M410.85,-461.67C415.62,-452.94 420.56,-443.88 425.42,-434.99"/>
<polygon fill="#888888" stroke="#888888" points="428.51,-436.63 430.23,-426.18 422.37,-433.28 428.51,-436.63"/>
</g>
<!-- 3 -->
<g id="node4" class="node">
<title>3</title>
<text text-anchor="start" x="112" y="-253.8" font-family="Arial" font-weight="bold" font-size="14.00"> &lt; 27.09</text>
<text text-anchor="start" x="73" y="-209.3" font-family="Arial" font-size="14.00"> &#160;</text>
<path fill="#ebebeb" stroke="transparent" d="M95,-181C95,-181 179,-181 179,-181 185,-181 191,-187 191,-193 191,-193 191,-233 191,-233 191,-239 185,-245 179,-245 179,-245 95,-245 95,-245 89,-245 83,-239 83,-233 83,-233 83,-193 83,-193 83,-187 89,-181 95,-181"/>
<text text-anchor="start" x="84" y="-242.4" font-family="Arial" font-size="2.00"> </text>
<text text-anchor="start" x="84" y="-236.4" font-family="Arial" font-size="7.00"> &#160;3</text>
<text text-anchor="start" x="98" y="-219.8" font-family="Arial" font-weight="bold" font-size="14.00">Mean: 20.43</text>
<text text-anchor="start" x="117" y="-202.8" font-family="Arial" font-weight="bold" font-size="14.00">n = 49</text>
<text text-anchor="start" x="135.5" y="-184.8" font-family="Arial" font-size="9.00"> </text>
<path fill="none" stroke="#333333" d="M95,-181C95,-181 179,-181 179,-181 185,-181 191,-187 191,-193 191,-193 191,-233 191,-233 191,-239 185,-245 179,-245 179,-245 95,-245 95,-245 89,-245 83,-239 83,-233 83,-233 83,-193 83,-193 83,-187 89,-181 95,-181"/>
<text text-anchor="start" x="193" y="-209.3" font-family="Arial" font-size="14.00"> &#160;</text>
<text text-anchor="start" x="91.5" y="-166.8" font-family="Arial" font-weight="bold" font-size="14.00">prev_1_inflow</text>
</g>
<!-- 2&#45;&gt;3 -->
<g id="edge3" class="edge">
<title>2&#45;&gt;3</title>
<path fill="none" stroke="#888888" d="M234.98,-307.67C225.28,-298.39 215.19,-288.75 205.34,-279.33"/>
<polygon fill="#888888" stroke="#888888" points="207.5,-276.56 197.86,-272.18 202.67,-281.62 207.5,-276.56"/>
</g>
<!-- 6 -->
<g id="node5" class="node">
<title>6</title>
<text text-anchor="start" x="273.5" y="-253.8" font-family="Arial" font-weight="bold" font-size="14.00"> ≥ 27.09</text>
<path fill="#f8766d" fill-opacity="0.596078" stroke="transparent" d="M253,-181C253,-181 343,-181 343,-181 349,-181 355,-187 355,-193 355,-193 355,-233 355,-233 355,-239 349,-245 343,-245 343,-245 253,-245 253,-245 247,-245 241,-239 241,-233 241,-233 241,-193 241,-193 241,-187 247,-181 253,-181"/>
<text text-anchor="start" x="242" y="-242.4" font-family="Arial" font-size="2.00"> </text>
<text text-anchor="start" x="242" y="-236.4" font-family="Arial" font-size="7.00"> &#160;6</text>
<text text-anchor="start" x="256" y="-219.8" font-family="Arial" font-weight="bold" font-size="14.00">Predict 29.98</text>
<text text-anchor="start" x="278" y="-202.8" font-family="Arial" font-weight="bold" font-size="14.00">n = 26</text>
<text text-anchor="start" x="296.5" y="-184.8" font-family="Arial" font-size="9.00"> </text>
<path fill="none" stroke="#333333" d="M253,-181C253,-181 343,-181 343,-181 349,-181 355,-187 355,-193 355,-193 355,-233 355,-233 355,-239 349,-245 343,-245 343,-245 253,-245 253,-245 247,-245 241,-239 241,-233 241,-233 241,-193 241,-193 241,-187 247,-181 253,-181"/>
<text text-anchor="start" x="296" y="-166.8" font-family="Arial" font-weight="bold" font-size="14.00"> </text>
</g>
<!-- 2&#45;&gt;6 -->
<g id="edge4" class="edge">
<title>2&#45;&gt;6</title>
<path fill="none" stroke="#888888" d="M296.77,-307.67C296.88,-299.39 296.99,-290.83 297.1,-282.38"/>
<polygon fill="#888888" stroke="#888888" points="300.6,-282.22 297.23,-272.18 293.6,-282.13 300.6,-282.22"/>
</g>
<!-- 8 -->
<g id="node8" class="node">
<title>8</title>
<text text-anchor="start" x="436" y="-253.8" font-family="Arial" font-weight="bold" font-size="14.00"> &lt; 38.03</text>
<text text-anchor="start" x="397" y="-209.3" font-family="Arial" font-size="14.00"> &#160;</text>
<path fill="#ebebeb" stroke="transparent" d="M419,-181C419,-181 503,-181 503,-181 509,-181 515,-187 515,-193 515,-193 515,-233 515,-233 515,-239 509,-245 503,-245 503,-245 419,-245 419,-245 413,-245 407,-239 407,-233 407,-233 407,-193 407,-193 407,-187 413,-181 419,-181"/>
<text text-anchor="start" x="408" y="-242.4" font-family="Arial" font-size="2.00"> </text>
<text text-anchor="start" x="408" y="-236.4" font-family="Arial" font-size="7.00"> &#160;8</text>
<text text-anchor="start" x="422" y="-219.8" font-family="Arial" font-weight="bold" font-size="14.00">Mean: 34.45</text>
<text text-anchor="start" x="441" y="-202.8" font-family="Arial" font-weight="bold" font-size="14.00">n = 63</text>
<text text-anchor="start" x="459.5" y="-184.8" font-family="Arial" font-size="9.00"> </text>
<path fill="none" stroke="#333333" d="M419,-181C419,-181 503,-181 503,-181 509,-181 515,-187 515,-193 515,-193 515,-233 515,-233 515,-239 509,-245 503,-245 503,-245 419,-245 419,-245 413,-245 407,-239 407,-233 407,-233 407,-193 407,-193 407,-187 413,-181 419,-181"/>
<text text-anchor="start" x="517" y="-209.3" font-family="Arial" font-size="14.00"> &#160;</text>
<text text-anchor="start" x="415.5" y="-166.8" font-family="Arial" font-weight="bold" font-size="14.00">prev_1_inflow</text>
</g>
<!-- 7&#45;&gt;8 -->
<g id="edge7" class="edge">
<title>7&#45;&gt;8</title>
<path fill="none" stroke="#888888" d="M461.62,-307.67C461.56,-299.39 461.51,-290.83 461.45,-282.38"/>
<polygon fill="#888888" stroke="#888888" points="464.95,-282.15 461.38,-272.18 457.95,-282.2 464.95,-282.15"/>
</g>
<!-- 11 -->
<g id="node9" class="node">
<title>11</title>
<text text-anchor="start" x="597.5" y="-253.8" font-family="Arial" font-weight="bold" font-size="14.00"> ≥ 38.03</text>
<path fill="#f8766d" fill-opacity="0.376471" stroke="transparent" d="M577,-181C577,-181 667,-181 667,-181 673,-181 679,-187 679,-193 679,-193 679,-233 679,-233 679,-239 673,-245 667,-245 667,-245 577,-245 577,-245 571,-245 565,-239 565,-233 565,-233 565,-193 565,-193 565,-187 571,-181 577,-181"/>
<text text-anchor="start" x="566" y="-242.4" font-family="Arial" font-size="2.00"> </text>
<text text-anchor="start" x="566" y="-236.4" font-family="Arial" font-size="7.00"> &#160;11</text>
<text text-anchor="start" x="580" y="-219.8" font-family="Arial" font-weight="bold" font-size="14.00">Predict 40.15</text>
<text text-anchor="start" x="602" y="-202.8" font-family="Arial" font-weight="bold" font-size="14.00">n = 30</text>
<text text-anchor="start" x="620.5" y="-184.8" font-family="Arial" font-size="9.00"> </text>
<path fill="none" stroke="#333333" d="M577,-181C577,-181 667,-181 667,-181 673,-181 679,-187 679,-193 679,-193 679,-233 679,-233 679,-239 673,-245 667,-245 667,-245 577,-245 577,-245 571,-245 565,-239 565,-233 565,-233 565,-193 565,-193 565,-187 571,-181 577,-181"/>
<text text-anchor="start" x="620" y="-166.8" font-family="Arial" font-weight="bold" font-size="14.00"> </text>
</g>
<!-- 7&#45;&gt;11 -->
<g id="edge8" class="edge">
<title>7&#45;&gt;11</title>
<path fill="none" stroke="#888888" d="M523.4,-307.67C533.16,-298.39 543.32,-288.75 553.23,-279.33"/>
<polygon fill="#888888" stroke="#888888" points="555.92,-281.6 560.76,-272.18 551.1,-276.53 555.92,-281.6"/>
</g>
<!-- 4 -->
<g id="node6" class="node">
<title>4</title>
<text text-anchor="start" x="44" y="-99.8" font-family="Arial" font-weight="bold" font-size="14.00"> &lt; 19.29</text>
<path fill="#f8766d" fill-opacity="0.874510" stroke="transparent" d="M24,-27C24,-27 114,-27 114,-27 120,-27 126,-33 126,-39 126,-39 126,-79 126,-79 126,-85 120,-91 114,-91 114,-91 24,-91 24,-91 18,-91 12,-85 12,-79 12,-79 12,-39 12,-39 12,-33 18,-27 24,-27"/>
<text text-anchor="start" x="13" y="-88.4" font-family="Arial" font-size="2.00"> </text>
<text text-anchor="start" x="13" y="-82.4" font-family="Arial" font-size="7.00"> &#160;4</text>
<text text-anchor="start" x="27" y="-65.8" font-family="Arial" font-weight="bold" font-size="14.00">Predict 17.17</text>
<text text-anchor="start" x="49" y="-48.8" font-family="Arial" font-weight="bold" font-size="14.00">n = 17</text>
<text text-anchor="start" x="67.5" y="-30.8" font-family="Arial" font-size="9.00"> </text>
<path fill="none" stroke="#333333" d="M24,-27C24,-27 114,-27 114,-27 120,-27 126,-33 126,-39 126,-39 126,-79 126,-79 126,-85 120,-91 114,-91 114,-91 24,-91 24,-91 18,-91 12,-85 12,-79 12,-79 12,-39 12,-39 12,-33 18,-27 24,-27"/>
<text text-anchor="start" x="67" y="-12.8" font-family="Arial" font-weight="bold" font-size="14.00"> </text>
</g>
<!-- 3&#45;&gt;4 -->
<g id="edge5" class="edge">
<title>3&#45;&gt;4</title>
<path fill="none" stroke="#888888" d="M110.9,-153.67C107.08,-145.12 103.12,-136.26 99.22,-127.55"/>
<polygon fill="#888888" stroke="#888888" points="102.3,-125.88 95.03,-118.18 95.92,-128.73 102.3,-125.88"/>
</g>
<!-- 5 -->
<g id="node7" class="node">
<title>5</title>
<text text-anchor="start" x="200.5" y="-99.8" font-family="Arial" font-weight="bold" font-size="14.00"> ≥ 19.29</text>
<path fill="#f8766d" fill-opacity="0.764706" stroke="transparent" d="M180,-27C180,-27 270,-27 270,-27 276,-27 282,-33 282,-39 282,-39 282,-79 282,-79 282,-85 276,-91 270,-91 270,-91 180,-91 180,-91 174,-91 168,-85 168,-79 168,-79 168,-39 168,-39 168,-33 174,-27 180,-27"/>
<text text-anchor="start" x="169" y="-88.4" font-family="Arial" font-size="2.00"> </text>
<text text-anchor="start" x="169" y="-82.4" font-family="Arial" font-size="7.00"> &#160;5</text>
<text text-anchor="start" x="183" y="-65.8" font-family="Arial" font-weight="bold" font-size="14.00">Predict 22.17</text>
<text text-anchor="start" x="205" y="-48.8" font-family="Arial" font-weight="bold" font-size="14.00">n = 32</text>
<text text-anchor="start" x="223.5" y="-30.8" font-family="Arial" font-size="9.00"> </text>
<path fill="none" stroke="#333333" d="M180,-27C180,-27 270,-27 270,-27 276,-27 282,-33 282,-39 282,-39 282,-79 282,-79 282,-85 276,-91 270,-91 270,-91 180,-91 180,-91 174,-91 168,-85 168,-79 168,-79 168,-39 168,-39 168,-33 174,-27 180,-27"/>
<text text-anchor="start" x="223" y="-12.8" font-family="Arial" font-weight="bold" font-size="14.00"> </text>
</g>
<!-- 3&#45;&gt;5 -->
<g id="edge6" class="edge">
<title>3&#45;&gt;5</title>
<path fill="none" stroke="#888888" d="M170.77,-153.67C175.82,-144.94 181.07,-135.88 186.21,-126.99"/>
<polygon fill="#888888" stroke="#888888" points="189.34,-128.58 191.32,-118.18 183.28,-125.08 189.34,-128.58"/>
</g>
<!-- 9 -->
<g id="node10" class="node">
<title>9</title>
<text text-anchor="start" x="394" y="-99.8" font-family="Arial" font-weight="bold" font-size="14.00"> &lt; 36.69</text>
<path fill="#f8766d" fill-opacity="0.533333" stroke="transparent" d="M378,-27C378,-27 460,-27 460,-27 466,-27 472,-33 472,-39 472,-39 472,-79 472,-79 472,-85 466,-91 460,-91 460,-91 378,-91 378,-91 372,-91 366,-85 366,-79 366,-79 366,-39 366,-39 366,-33 372,-27 378,-27"/>
<text text-anchor="start" x="367" y="-88.4" font-family="Arial" font-size="2.00"> </text>
<text text-anchor="start" x="367" y="-82.4" font-family="Arial" font-size="7.00"> &#160;9</text>
<text text-anchor="start" x="381" y="-65.8" font-family="Arial" font-weight="bold" font-size="14.00">Predict 32.8</text>
<text text-anchor="start" x="399" y="-48.8" font-family="Arial" font-weight="bold" font-size="14.00">n = 42</text>
<text text-anchor="start" x="417.5" y="-30.8" font-family="Arial" font-size="9.00"> </text>
<path fill="none" stroke="#333333" d="M378,-27C378,-27 460,-27 460,-27 466,-27 472,-33 472,-39 472,-39 472,-79 472,-79 472,-85 466,-91 460,-91 460,-91 378,-91 378,-91 372,-91 366,-85 366,-79 366,-79 366,-39 366,-39 366,-33 372,-27 378,-27"/>
<text text-anchor="start" x="417" y="-12.8" font-family="Arial" font-weight="bold" font-size="14.00"> </text>
</g>
<!-- 8&#45;&gt;9 -->
<g id="edge9" class="edge">
<title>8&#45;&gt;9</title>
<path fill="none" stroke="#888888" d="M444.88,-153.67C442.55,-145.21 440.12,-136.45 437.74,-127.83"/>
<polygon fill="#888888" stroke="#888888" points="441.11,-126.88 435.08,-118.18 434.36,-128.75 441.11,-126.88"/>
</g>
<!-- 10 -->
<g id="node11" class="node">
<title>10</title>
<text text-anchor="start" x="546.5" y="-99.8" font-family="Arial" font-weight="bold" font-size="14.00"> ≥ 36.69</text>
<path fill="#f8766d" fill-opacity="0.427451" stroke="transparent" d="M526,-27C526,-27 616,-27 616,-27 622,-27 628,-33 628,-39 628,-39 628,-79 628,-79 628,-85 622,-91 616,-91 616,-91 526,-91 526,-91 520,-91 514,-85 514,-79 514,-79 514,-39 514,-39 514,-33 520,-27 526,-27"/>
<text text-anchor="start" x="515" y="-88.4" font-family="Arial" font-size="2.00"> </text>
<text text-anchor="start" x="515" y="-82.4" font-family="Arial" font-size="7.00"> &#160;10</text>
<text text-anchor="start" x="529" y="-65.8" font-family="Arial" font-weight="bold" font-size="14.00">Predict 37.74</text>
<text text-anchor="start" x="551" y="-48.8" font-family="Arial" font-weight="bold" font-size="14.00">n = 21</text>
<text text-anchor="start" x="569.5" y="-30.8" font-family="Arial" font-size="9.00"> </text>
<path fill="none" stroke="#333333" d="M526,-27C526,-27 616,-27 616,-27 622,-27 628,-33 628,-39 628,-39 628,-79 628,-79 628,-85 622,-91 616,-91 616,-91 526,-91 526,-91 520,-91 514,-85 514,-79 514,-79 514,-39 514,-39 514,-33 520,-27 526,-27"/>
<text text-anchor="start" x="569" y="-12.8" font-family="Arial" font-weight="bold" font-size="14.00"> </text>
</g>
<!-- 8&#45;&gt;10 -->
<g id="edge10" class="edge">
<title>8&#45;&gt;10</title>
<path fill="none" stroke="#888888" d="M503.21,-153.67C509.66,-144.76 516.36,-135.51 522.92,-126.44"/>
<polygon fill="#888888" stroke="#888888" points="525.87,-128.33 528.9,-118.18 520.2,-124.23 525.87,-128.33"/>
</g>
</g>
</svg>
