<?xml version="1.0" encoding="utf-8"?>
<svg xmlns="http://www.w3.org/2000/svg" xmlns:xlink="http://www.w3.org/1999/xlink" width="1000" height="400" viewBox="0 0 4000 1600">
<defs>
  <clipPath id="clip560">
    <rect x="0" y="0" width="4000" height="1600"/>
  </clipPath>
</defs>
<path clip-path="url(#clip560)" d="M0 1600 L4000 1600 L4000 0 L0 0  Z" fill="#ffffff" fill-rule="evenodd" fill-opacity="1"/>
<defs>
  <clipPath id="clip561">
    <rect x="800" y="0" width="2801" height="1600"/>
  </clipPath>
</defs>
<path clip-path="url(#clip560)" d="M206.379 1497.68 L3180.58 1497.68 L3180.58 47.2441 L206.379 47.2441  Z" fill="#ffffff" fill-rule="evenodd" fill-opacity="1"/>
<defs>
  <clipPath id="clip562">
    <rect x="206" y="47" width="2975" height="1451"/>
  </clipPath>
</defs>
<polyline clip-path="url(#clip562)" style="stroke:#000000; stroke-linecap:round; stroke-linejoin:round; stroke-width:2; stroke-opacity:0.1; fill:none" points="290.554,1497.68 290.554,47.2441 "/>
<polyline clip-path="url(#clip562)" style="stroke:#000000; stroke-linecap:round; stroke-linejoin:round; stroke-width:2; stroke-opacity:0.1; fill:none" points="1097.03,1497.68 1097.03,47.2441 "/>
<polyline clip-path="url(#clip562)" style="stroke:#000000; stroke-linecap:round; stroke-linejoin:round; stroke-width:2; stroke-opacity:0.1; fill:none" points="1903.5,1497.68 1903.5,47.2441 "/>
<polyline clip-path="url(#clip562)" style="stroke:#000000; stroke-linecap:round; stroke-linejoin:round; stroke-width:2; stroke-opacity:0.1; fill:none" points="2709.97,1497.68 2709.97,47.2441 "/>
<polyline clip-path="url(#clip560)" style="stroke:#000000; stroke-linecap:round; stroke-linejoin:round; stroke-width:4; stroke-opacity:1; fill:none" points="206.379,1497.68 3180.58,1497.68 "/>
<polyline clip-path="url(#clip560)" style="stroke:#000000; stroke-linecap:round; stroke-linejoin:round; stroke-width:4; stroke-opacity:1; fill:none" points="290.554,1497.68 290.554,1478.78 "/>
<polyline clip-path="url(#clip560)" style="stroke:#000000; stroke-linecap:round; stroke-linejoin:round; stroke-width:4; stroke-opacity:1; fill:none" points="1097.03,1497.68 1097.03,1478.78 "/>
<polyline clip-path="url(#clip560)" style="stroke:#000000; stroke-linecap:round; stroke-linejoin:round; stroke-width:4; stroke-opacity:1; fill:none" points="1903.5,1497.68 1903.5,1478.78 "/>
<polyline clip-path="url(#clip560)" style="stroke:#000000; stroke-linecap:round; stroke-linejoin:round; stroke-width:4; stroke-opacity:1; fill:none" points="2709.97,1497.68 2709.97,1478.78 "/>
<path clip-path="url(#clip560)" d="M145.685 1573.85 L164.044 1573.85 L164.044 1578.28 L139.357 1578.28 L139.357 1573.85 Q142.352 1570.75 147.508 1565.55 Q152.69 1560.31 154.018 1558.8 Q156.545 1555.96 157.534 1554.01 Q158.55 1552.03 158.55 1550.13 Q158.55 1547.03 156.362 1545.08 Q154.201 1543.12 150.711 1543.12 Q148.237 1543.12 145.477 1543.98 Q142.742 1544.84 139.618 1546.59 L139.618 1541.27 Q142.795 1540 145.555 1539.35 Q148.315 1538.7 150.607 1538.7 Q156.649 1538.7 160.242 1541.72 Q163.836 1544.74 163.836 1549.79 Q163.836 1552.19 162.925 1554.35 Q162.039 1556.48 159.669 1559.4 Q159.018 1560.15 155.529 1563.77 Q152.039 1567.37 145.685 1573.85 Z" fill="#000000" fill-rule="nonzero" fill-opacity="1" /><path clip-path="url(#clip560)" d="M186.336 1542.86 Q182.274 1542.86 180.216 1546.87 Q178.185 1550.86 178.185 1558.88 Q178.185 1566.87 180.216 1570.88 Q182.274 1574.87 186.336 1574.87 Q190.425 1574.87 192.456 1570.88 Q194.513 1566.87 194.513 1558.88 Q194.513 1550.86 192.456 1546.87 Q190.425 1542.86 186.336 1542.86 M186.336 1538.7 Q192.872 1538.7 196.31 1543.88 Q199.773 1549.04 199.773 1558.88 Q199.773 1568.7 196.31 1573.88 Q192.872 1579.04 186.336 1579.04 Q179.8 1579.04 176.336 1573.88 Q172.899 1568.7 172.899 1558.88 Q172.899 1549.04 176.336 1543.88 Q179.8 1538.7 186.336 1538.7 Z" fill="#000000" fill-rule="nonzero" fill-opacity="1" /><path clip-path="url(#clip560)" d="M213.549 1573.85 L231.909 1573.85 L231.909 1578.28 L207.221 1578.28 L207.221 1573.85 Q210.216 1570.75 215.372 1565.55 Q220.555 1560.31 221.883 1558.8 Q224.409 1555.96 225.398 1554.01 Q226.414 1552.03 226.414 1550.13 Q226.414 1547.03 224.226 1545.08 Q222.065 1543.12 218.575 1543.12 Q216.101 1543.12 213.341 1543.98 Q210.607 1544.84 207.482 1546.59 L207.482 1541.27 Q210.659 1540 213.419 1539.35 Q216.18 1538.7 218.471 1538.7 Q224.513 1538.7 228.107 1541.72 Q231.7 1544.74 231.7 1549.79 Q231.7 1552.19 230.789 1554.35 Q229.903 1556.48 227.534 1559.4 Q226.883 1560.15 223.393 1563.77 Q219.904 1567.37 213.549 1573.85 Z" fill="#000000" fill-rule="nonzero" fill-opacity="1" /><path clip-path="url(#clip560)" d="M247.482 1573.85 L265.841 1573.85 L265.841 1578.28 L241.153 1578.28 L241.153 1573.85 Q244.148 1570.75 249.304 1565.55 Q254.487 1560.31 255.815 1558.8 Q258.341 1555.96 259.33 1554.01 Q260.346 1552.03 260.346 1550.13 Q260.346 1547.03 258.159 1545.08 Q255.997 1543.12 252.508 1543.12 Q250.034 1543.12 247.273 1543.98 Q244.539 1544.84 241.414 1546.59 L241.414 1541.27 Q244.591 1540 247.351 1539.35 Q250.112 1538.7 252.403 1538.7 Q258.445 1538.7 262.039 1541.72 Q265.632 1544.74 265.632 1549.79 Q265.632 1552.19 264.721 1554.35 Q263.836 1556.48 261.466 1559.4 Q260.815 1560.15 257.325 1563.77 Q253.836 1567.37 247.482 1573.85 Z" fill="#000000" fill-rule="nonzero" fill-opacity="1" /><path clip-path="url(#clip560)" d="M273.783 1561.54 L287.82 1561.54 L287.82 1565.81 L273.783 1565.81 L273.783 1561.54 Z" fill="#000000" fill-rule="nonzero" fill-opacity="1" /><path clip-path="url(#clip560)" d="M307.377 1542.86 Q303.315 1542.86 301.257 1546.87 Q299.226 1550.86 299.226 1558.88 Q299.226 1566.87 301.257 1570.88 Q303.315 1574.87 307.377 1574.87 Q311.466 1574.87 313.497 1570.88 Q315.554 1566.87 315.554 1558.88 Q315.554 1550.86 313.497 1546.87 Q311.466 1542.86 307.377 1542.86 M307.377 1538.7 Q313.913 1538.7 317.351 1543.88 Q320.814 1549.04 320.814 1558.88 Q320.814 1568.7 317.351 1573.88 Q313.913 1579.04 307.377 1579.04 Q300.841 1579.04 297.377 1573.88 Q293.94 1568.7 293.94 1558.88 Q293.94 1549.04 297.377 1543.88 Q300.841 1538.7 307.377 1538.7 Z" fill="#000000" fill-rule="nonzero" fill-opacity="1" /><path clip-path="url(#clip560)" d="M328.731 1539.4 L353.731 1539.4 L353.731 1541.64 L339.616 1578.28 L334.122 1578.28 L347.403 1543.83 L328.731 1543.83 L328.731 1539.4 Z" fill="#000000" fill-rule="nonzero" fill-opacity="1" /><path clip-path="url(#clip560)" d="M360.892 1561.54 L374.929 1561.54 L374.929 1565.81 L360.892 1565.81 L360.892 1561.54 Z" fill="#000000" fill-rule="nonzero" fill-opacity="1" /><path clip-path="url(#clip560)" d="M384.147 1573.85 L392.741 1573.85 L392.741 1544.19 L383.392 1546.07 L383.392 1541.27 L392.689 1539.4 L397.949 1539.4 L397.949 1573.85 L406.543 1573.85 L406.543 1578.28 L384.147 1578.28 L384.147 1573.85 Z" fill="#000000" fill-rule="nonzero" fill-opacity="1" /><path clip-path="url(#clip560)" d="M428.418 1559.82 Q424.668 1559.82 422.507 1561.82 Q420.371 1563.83 420.371 1567.34 Q420.371 1570.86 422.507 1572.86 Q424.668 1574.87 428.418 1574.87 Q432.168 1574.87 434.329 1572.86 Q436.491 1570.83 436.491 1567.34 Q436.491 1563.83 434.329 1561.82 Q432.194 1559.82 428.418 1559.82 M423.158 1557.58 Q419.772 1556.74 417.871 1554.43 Q415.996 1552.11 415.996 1548.77 Q415.996 1544.11 419.304 1541.41 Q422.637 1538.7 428.418 1538.7 Q434.225 1538.7 437.533 1541.41 Q440.84 1544.11 440.84 1548.77 Q440.84 1552.11 438.939 1554.43 Q437.064 1556.74 433.704 1557.58 Q437.507 1558.46 439.616 1561.04 Q441.751 1563.62 441.751 1567.34 Q441.751 1572.99 438.288 1576.01 Q434.85 1579.04 428.418 1579.04 Q421.986 1579.04 418.522 1576.01 Q415.085 1572.99 415.085 1567.34 Q415.085 1563.62 417.22 1561.04 Q419.356 1558.46 423.158 1557.58 M421.231 1549.27 Q421.231 1552.29 423.106 1553.98 Q425.007 1555.68 428.418 1555.68 Q431.803 1555.68 433.704 1553.98 Q435.632 1552.29 435.632 1549.27 Q435.632 1546.25 433.704 1544.56 Q431.803 1542.86 428.418 1542.86 Q425.007 1542.86 423.106 1544.56 Q421.231 1546.25 421.231 1549.27 Z" fill="#000000" fill-rule="nonzero" fill-opacity="1" /><path clip-path="url(#clip560)" d="M952.106 1573.85 L970.465 1573.85 L970.465 1578.28 L945.778 1578.28 L945.778 1573.85 Q948.773 1570.75 953.929 1565.55 Q959.111 1560.31 960.439 1558.8 Q962.966 1555.96 963.955 1554.01 Q964.971 1552.03 964.971 1550.13 Q964.971 1547.03 962.783 1545.08 Q960.622 1543.12 957.132 1543.12 Q954.658 1543.12 951.898 1543.98 Q949.164 1544.84 946.039 1546.59 L946.039 1541.27 Q949.216 1540 951.976 1539.35 Q954.736 1538.7 957.028 1538.7 Q963.07 1538.7 966.663 1541.72 Q970.257 1544.74 970.257 1549.79 Q970.257 1552.19 969.346 1554.35 Q968.46 1556.48 966.091 1559.4 Q965.439 1560.15 961.95 1563.77 Q958.46 1567.37 952.106 1573.85 Z" fill="#000000" fill-rule="nonzero" fill-opacity="1" /><path clip-path="url(#clip560)" d="M992.757 1542.86 Q988.695 1542.86 986.637 1546.87 Q984.606 1550.86 984.606 1558.88 Q984.606 1566.87 986.637 1570.88 Q988.695 1574.87 992.757 1574.87 Q996.846 1574.87 998.877 1570.88 Q1000.93 1566.87 1000.93 1558.88 Q1000.93 1550.86 998.877 1546.87 Q996.846 1542.86 992.757 1542.86 M992.757 1538.7 Q999.293 1538.7 1002.73 1543.88 Q1006.19 1549.04 1006.19 1558.88 Q1006.19 1568.7 1002.73 1573.88 Q999.293 1579.04 992.757 1579.04 Q986.221 1579.04 982.757 1573.88 Q979.32 1568.7 979.32 1558.88 Q979.32 1549.04 982.757 1543.88 Q986.221 1538.7 992.757 1538.7 Z" fill="#000000" fill-rule="nonzero" fill-opacity="1" /><path clip-path="url(#clip560)" d="M1019.97 1573.85 L1038.33 1573.85 L1038.33 1578.28 L1013.64 1578.28 L1013.64 1573.85 Q1016.64 1570.75 1021.79 1565.55 Q1026.98 1560.31 1028.3 1558.8 Q1030.83 1555.96 1031.82 1554.01 Q1032.83 1552.03 1032.83 1550.13 Q1032.83 1547.03 1030.65 1545.08 Q1028.49 1543.12 1025 1543.12 Q1022.52 1543.12 1019.76 1543.98 Q1017.03 1544.84 1013.9 1546.59 L1013.9 1541.27 Q1017.08 1540 1019.84 1539.35 Q1022.6 1538.7 1024.89 1538.7 Q1030.93 1538.7 1034.53 1541.72 Q1038.12 1544.74 1038.12 1549.79 Q1038.12 1552.19 1037.21 1554.35 Q1036.32 1556.48 1033.95 1559.4 Q1033.3 1560.15 1029.81 1563.77 Q1026.32 1567.37 1019.97 1573.85 Z" fill="#000000" fill-rule="nonzero" fill-opacity="1" /><path clip-path="url(#clip560)" d="M1053.9 1573.85 L1072.26 1573.85 L1072.26 1578.28 L1047.57 1578.28 L1047.57 1573.85 Q1050.57 1570.75 1055.73 1565.55 Q1060.91 1560.31 1062.24 1558.8 Q1064.76 1555.96 1065.75 1554.01 Q1066.77 1552.03 1066.77 1550.13 Q1066.77 1547.03 1064.58 1545.08 Q1062.42 1543.12 1058.93 1543.12 Q1056.45 1543.12 1053.69 1543.98 Q1050.96 1544.84 1047.83 1546.59 L1047.83 1541.27 Q1051.01 1540 1053.77 1539.35 Q1056.53 1538.7 1058.82 1538.7 Q1064.87 1538.7 1068.46 1541.72 Q1072.05 1544.74 1072.05 1549.79 Q1072.05 1552.19 1071.14 1554.35 Q1070.26 1556.48 1067.89 1559.4 Q1067.24 1560.15 1063.75 1563.77 Q1060.26 1567.37 1053.9 1573.85 Z" fill="#000000" fill-rule="nonzero" fill-opacity="1" /><path clip-path="url(#clip560)" d="M1080.2 1561.54 L1094.24 1561.54 L1094.24 1565.81 L1080.2 1565.81 L1080.2 1561.54 Z" fill="#000000" fill-rule="nonzero" fill-opacity="1" /><path clip-path="url(#clip560)" d="M1113.8 1542.86 Q1109.74 1542.86 1107.68 1546.87 Q1105.65 1550.86 1105.65 1558.88 Q1105.65 1566.87 1107.68 1570.88 Q1109.74 1574.87 1113.8 1574.87 Q1117.89 1574.87 1119.92 1570.88 Q1121.98 1566.87 1121.98 1558.88 Q1121.98 1550.86 1119.92 1546.87 Q1117.89 1542.86 1113.8 1542.86 M1113.8 1538.7 Q1120.33 1538.7 1123.77 1543.88 Q1127.24 1549.04 1127.24 1558.88 Q1127.24 1568.7 1123.77 1573.88 Q1120.33 1579.04 1113.8 1579.04 Q1107.26 1579.04 1103.8 1573.88 Q1100.36 1568.7 1100.36 1558.88 Q1100.36 1549.04 1103.8 1543.88 Q1107.26 1538.7 1113.8 1538.7 Z" fill="#000000" fill-rule="nonzero" fill-opacity="1" /><path clip-path="url(#clip560)" d="M1135.15 1539.4 L1160.15 1539.4 L1160.15 1541.64 L1146.04 1578.28 L1140.54 1578.28 L1153.82 1543.83 L1135.15 1543.83 L1135.15 1539.4 Z" fill="#000000" fill-rule="nonzero" fill-opacity="1" /><path clip-path="url(#clip560)" d="M1167.31 1561.54 L1181.35 1561.54 L1181.35 1565.81 L1167.31 1565.81 L1167.31 1561.54 Z" fill="#000000" fill-rule="nonzero" fill-opacity="1" /><path clip-path="url(#clip560)" d="M1194.19 1573.85 L1212.55 1573.85 L1212.55 1578.28 L1187.86 1578.28 L1187.86 1573.85 Q1190.85 1570.75 1196.01 1565.55 Q1201.19 1560.31 1202.52 1558.8 Q1205.05 1555.96 1206.04 1554.01 Q1207.05 1552.03 1207.05 1550.13 Q1207.05 1547.03 1204.87 1545.08 Q1202.7 1543.12 1199.21 1543.12 Q1196.74 1543.12 1193.98 1543.98 Q1191.25 1544.84 1188.12 1546.59 L1188.12 1541.27 Q1191.3 1540 1194.06 1539.35 Q1196.82 1538.7 1199.11 1538.7 Q1205.15 1538.7 1208.75 1541.72 Q1212.34 1544.74 1212.34 1549.79 Q1212.34 1552.19 1211.43 1554.35 Q1210.54 1556.48 1208.17 1559.4 Q1207.52 1560.15 1204.03 1563.77 Q1200.54 1567.37 1194.19 1573.85 Z" fill="#000000" fill-rule="nonzero" fill-opacity="1" /><path clip-path="url(#clip560)" d="M1234.84 1542.86 Q1230.78 1542.86 1228.72 1546.87 Q1226.69 1550.86 1226.69 1558.88 Q1226.69 1566.87 1228.72 1570.88 Q1230.78 1574.87 1234.84 1574.87 Q1238.93 1574.87 1240.96 1570.88 Q1243.02 1566.87 1243.02 1558.88 Q1243.02 1550.86 1240.96 1546.87 Q1238.93 1542.86 1234.84 1542.86 M1234.84 1538.7 Q1241.38 1538.7 1244.81 1543.88 Q1248.28 1549.04 1248.28 1558.88 Q1248.28 1568.7 1244.81 1573.88 Q1241.38 1579.04 1234.84 1579.04 Q1228.3 1579.04 1224.84 1573.88 Q1221.4 1568.7 1221.4 1558.88 Q1221.4 1549.04 1224.84 1543.88 Q1228.3 1538.7 1234.84 1538.7 Z" fill="#000000" fill-rule="nonzero" fill-opacity="1" /><path clip-path="url(#clip560)" d="M1759.48 1573.85 L1777.84 1573.85 L1777.84 1578.28 L1753.15 1578.28 L1753.15 1573.85 Q1756.14 1570.75 1761.3 1565.55 Q1766.48 1560.31 1767.81 1558.8 Q1770.34 1555.96 1771.33 1554.01 Q1772.34 1552.03 1772.34 1550.13 Q1772.34 1547.03 1770.15 1545.08 Q1767.99 1543.12 1764.5 1543.12 Q1762.03 1543.12 1759.27 1543.98 Q1756.54 1544.84 1753.41 1546.59 L1753.41 1541.27 Q1756.59 1540 1759.35 1539.35 Q1762.11 1538.7 1764.4 1538.7 Q1770.44 1538.7 1774.03 1541.72 Q1777.63 1544.74 1777.63 1549.79 Q1777.63 1552.19 1776.72 1554.35 Q1775.83 1556.48 1773.46 1559.4 Q1772.81 1560.15 1769.32 1563.77 Q1765.83 1567.37 1759.48 1573.85 Z" fill="#000000" fill-rule="nonzero" fill-opacity="1" /><path clip-path="url(#clip560)" d="M1800.13 1542.86 Q1796.07 1542.86 1794.01 1546.87 Q1791.98 1550.86 1791.98 1558.88 Q1791.98 1566.87 1794.01 1570.88 Q1796.07 1574.87 1800.13 1574.87 Q1804.22 1574.87 1806.25 1570.88 Q1808.31 1566.87 1808.31 1558.88 Q1808.31 1550.86 1806.25 1546.87 Q1804.22 1542.86 1800.13 1542.86 M1800.13 1538.7 Q1806.66 1538.7 1810.1 1543.88 Q1813.57 1549.04 1813.57 1558.88 Q1813.57 1568.7 1810.1 1573.88 Q1806.66 1579.04 1800.13 1579.04 Q1793.59 1579.04 1790.13 1573.88 Q1786.69 1568.7 1786.69 1558.88 Q1786.69 1549.04 1790.13 1543.88 Q1793.59 1538.7 1800.13 1538.7 Z" fill="#000000" fill-rule="nonzero" fill-opacity="1" /><path clip-path="url(#clip560)" d="M1827.34 1573.85 L1845.7 1573.85 L1845.7 1578.28 L1821.01 1578.28 L1821.01 1573.85 Q1824.01 1570.75 1829.16 1565.55 Q1834.35 1560.31 1835.68 1558.8 Q1838.2 1555.96 1839.19 1554.01 Q1840.21 1552.03 1840.21 1550.13 Q1840.21 1547.03 1838.02 1545.08 Q1835.86 1543.12 1832.37 1543.12 Q1829.89 1543.12 1827.13 1543.98 Q1824.4 1544.84 1821.27 1546.59 L1821.27 1541.27 Q1824.45 1540 1827.21 1539.35 Q1829.97 1538.7 1832.26 1538.7 Q1838.31 1538.7 1841.9 1541.72 Q1845.49 1544.74 1845.49 1549.79 Q1845.49 1552.19 1844.58 1554.35 Q1843.7 1556.48 1841.33 1559.4 Q1840.68 1560.15 1837.19 1563.77 Q1833.7 1567.37 1827.34 1573.85 Z" fill="#000000" fill-rule="nonzero" fill-opacity="1" /><path clip-path="url(#clip560)" d="M1861.27 1573.85 L1879.63 1573.85 L1879.63 1578.28 L1854.95 1578.28 L1854.95 1573.85 Q1857.94 1570.75 1863.1 1565.55 Q1868.28 1560.31 1869.61 1558.8 Q1872.13 1555.96 1873.12 1554.01 Q1874.14 1552.03 1874.14 1550.13 Q1874.14 1547.03 1871.95 1545.08 Q1869.79 1543.12 1866.3 1543.12 Q1863.83 1543.12 1861.07 1543.98 Q1858.33 1544.84 1855.21 1546.59 L1855.21 1541.27 Q1858.38 1540 1861.14 1539.35 Q1863.9 1538.7 1866.2 1538.7 Q1872.24 1538.7 1875.83 1541.72 Q1879.43 1544.74 1879.43 1549.79 Q1879.43 1552.19 1878.51 1554.35 Q1877.63 1556.48 1875.26 1559.4 Q1874.61 1560.15 1871.12 1563.77 Q1867.63 1567.37 1861.27 1573.85 Z" fill="#000000" fill-rule="nonzero" fill-opacity="1" /><path clip-path="url(#clip560)" d="M1887.58 1561.54 L1901.61 1561.54 L1901.61 1565.81 L1887.58 1565.81 L1887.58 1561.54 Z" fill="#000000" fill-rule="nonzero" fill-opacity="1" /><path clip-path="url(#clip560)" d="M1921.17 1542.86 Q1917.11 1542.86 1915.05 1546.87 Q1913.02 1550.86 1913.02 1558.88 Q1913.02 1566.87 1915.05 1570.88 Q1917.11 1574.87 1921.17 1574.87 Q1925.26 1574.87 1927.29 1570.88 Q1929.35 1566.87 1929.35 1558.88 Q1929.35 1550.86 1927.29 1546.87 Q1925.26 1542.86 1921.17 1542.86 M1921.17 1538.7 Q1927.71 1538.7 1931.14 1543.88 Q1934.61 1549.04 1934.61 1558.88 Q1934.61 1568.7 1931.14 1573.88 Q1927.71 1579.04 1921.17 1579.04 Q1914.63 1579.04 1911.17 1573.88 Q1907.73 1568.7 1907.73 1558.88 Q1907.73 1549.04 1911.17 1543.88 Q1914.63 1538.7 1921.17 1538.7 Z" fill="#000000" fill-rule="nonzero" fill-opacity="1" /><path clip-path="url(#clip560)" d="M1942.52 1539.4 L1967.52 1539.4 L1967.52 1541.64 L1953.41 1578.28 L1947.91 1578.28 L1961.2 1543.83 L1942.52 1543.83 L1942.52 1539.4 Z" fill="#000000" fill-rule="nonzero" fill-opacity="1" /><path clip-path="url(#clip560)" d="M1974.68 1561.54 L1988.72 1561.54 L1988.72 1565.81 L1974.68 1565.81 L1974.68 1561.54 Z" fill="#000000" fill-rule="nonzero" fill-opacity="1" /><path clip-path="url(#clip560)" d="M2001.56 1573.85 L2019.92 1573.85 L2019.92 1578.28 L1995.23 1578.28 L1995.23 1573.85 Q1998.23 1570.75 2003.38 1565.55 Q2008.56 1560.31 2009.89 1558.8 Q2012.42 1555.96 2013.41 1554.01 Q2014.42 1552.03 2014.42 1550.13 Q2014.42 1547.03 2012.24 1545.08 Q2010.08 1543.12 2006.59 1543.12 Q2004.11 1543.12 2001.35 1543.98 Q1998.62 1544.84 1995.49 1546.59 L1995.49 1541.27 Q1998.67 1540 2001.43 1539.35 Q2004.19 1538.7 2006.48 1538.7 Q2012.52 1538.7 2016.12 1541.72 Q2019.71 1544.74 2019.71 1549.79 Q2019.71 1552.19 2018.8 1554.35 Q2017.91 1556.48 2015.54 1559.4 Q2014.89 1560.15 2011.4 1563.77 Q2007.91 1567.37 2001.56 1573.85 Z" fill="#000000" fill-rule="nonzero" fill-opacity="1" /><path clip-path="url(#clip560)" d="M2035.49 1573.85 L2053.85 1573.85 L2053.85 1578.28 L2029.16 1578.28 L2029.16 1573.85 Q2032.16 1570.75 2037.31 1565.55 Q2042.5 1560.31 2043.83 1558.8 Q2046.35 1555.96 2047.34 1554.01 Q2048.36 1552.03 2048.36 1550.13 Q2048.36 1547.03 2046.17 1545.08 Q2044.01 1543.12 2040.52 1543.12 Q2038.04 1543.12 2035.28 1543.98 Q2032.55 1544.84 2029.42 1546.59 L2029.42 1541.27 Q2032.6 1540 2035.36 1539.35 Q2038.12 1538.7 2040.41 1538.7 Q2046.46 1538.7 2050.05 1541.72 Q2053.64 1544.74 2053.64 1549.79 Q2053.64 1552.19 2052.73 1554.35 Q2051.85 1556.48 2049.48 1559.4 Q2048.83 1560.15 2045.34 1563.77 Q2041.85 1567.37 2035.49 1573.85 Z" fill="#000000" fill-rule="nonzero" fill-opacity="1" /><path clip-path="url(#clip560)" d="M2564.78 1573.85 L2583.14 1573.85 L2583.14 1578.28 L2558.45 1578.28 L2558.45 1573.85 Q2561.45 1570.75 2566.6 1565.55 Q2571.78 1560.31 2573.11 1558.8 Q2575.64 1555.96 2576.63 1554.01 Q2577.64 1552.03 2577.64 1550.13 Q2577.64 1547.03 2575.46 1545.08 Q2573.29 1543.12 2569.8 1543.12 Q2567.33 1543.12 2564.57 1543.98 Q2561.84 1544.84 2558.71 1546.59 L2558.71 1541.27 Q2561.89 1540 2564.65 1539.35 Q2567.41 1538.7 2569.7 1538.7 Q2575.74 1538.7 2579.34 1541.72 Q2582.93 1544.74 2582.93 1549.79 Q2582.93 1552.19 2582.02 1554.35 Q2581.13 1556.48 2578.76 1559.4 Q2578.11 1560.15 2574.62 1563.77 Q2571.13 1567.37 2564.78 1573.85 Z" fill="#000000" fill-rule="nonzero" fill-opacity="1" /><path clip-path="url(#clip560)" d="M2605.43 1542.86 Q2601.37 1542.86 2599.31 1546.87 Q2597.28 1550.86 2597.28 1558.88 Q2597.28 1566.87 2599.31 1570.88 Q2601.37 1574.87 2605.43 1574.87 Q2609.52 1574.87 2611.55 1570.88 Q2613.61 1566.87 2613.61 1558.88 Q2613.61 1550.86 2611.55 1546.87 Q2609.52 1542.86 2605.43 1542.86 M2605.43 1538.7 Q2611.97 1538.7 2615.4 1543.88 Q2618.87 1549.04 2618.87 1558.88 Q2618.87 1568.7 2615.4 1573.88 Q2611.97 1579.04 2605.43 1579.04 Q2598.89 1579.04 2595.43 1573.88 Q2591.99 1568.7 2591.99 1558.88 Q2591.99 1549.04 2595.43 1543.88 Q2598.89 1538.7 2605.43 1538.7 Z" fill="#000000" fill-rule="nonzero" fill-opacity="1" /><path clip-path="url(#clip560)" d="M2632.64 1573.85 L2651 1573.85 L2651 1578.28 L2626.32 1578.28 L2626.32 1573.85 Q2629.31 1570.75 2634.47 1565.55 Q2639.65 1560.31 2640.98 1558.8 Q2643.5 1555.96 2644.49 1554.01 Q2645.51 1552.03 2645.51 1550.13 Q2645.51 1547.03 2643.32 1545.08 Q2641.16 1543.12 2637.67 1543.12 Q2635.2 1543.12 2632.43 1543.98 Q2629.7 1544.84 2626.58 1546.59 L2626.58 1541.27 Q2629.75 1540 2632.51 1539.35 Q2635.27 1538.7 2637.57 1538.7 Q2643.61 1538.7 2647.2 1541.72 Q2650.79 1544.74 2650.79 1549.79 Q2650.79 1552.19 2649.88 1554.35 Q2649 1556.48 2646.63 1559.4 Q2645.98 1560.15 2642.49 1563.77 Q2639 1567.37 2632.64 1573.85 Z" fill="#000000" fill-rule="nonzero" fill-opacity="1" /><path clip-path="url(#clip560)" d="M2666.58 1573.85 L2684.93 1573.85 L2684.93 1578.28 L2660.25 1578.28 L2660.25 1573.85 Q2663.24 1570.75 2668.4 1565.55 Q2673.58 1560.31 2674.91 1558.8 Q2677.43 1555.96 2678.42 1554.01 Q2679.44 1552.03 2679.44 1550.13 Q2679.44 1547.03 2677.25 1545.08 Q2675.09 1543.12 2671.6 1543.12 Q2669.13 1543.12 2666.37 1543.98 Q2663.63 1544.84 2660.51 1546.59 L2660.51 1541.27 Q2663.68 1540 2666.45 1539.35 Q2669.21 1538.7 2671.5 1538.7 Q2677.54 1538.7 2681.13 1541.72 Q2684.73 1544.74 2684.73 1549.79 Q2684.73 1552.19 2683.81 1554.35 Q2682.93 1556.48 2680.56 1559.4 Q2679.91 1560.15 2676.42 1563.77 Q2672.93 1567.37 2666.58 1573.85 Z" fill="#000000" fill-rule="nonzero" fill-opacity="1" /><path clip-path="url(#clip560)" d="M2692.88 1561.54 L2706.91 1561.54 L2706.91 1565.81 L2692.88 1565.81 L2692.88 1561.54 Z" fill="#000000" fill-rule="nonzero" fill-opacity="1" /><path clip-path="url(#clip560)" d="M2726.47 1542.86 Q2722.41 1542.86 2720.35 1546.87 Q2718.32 1550.86 2718.32 1558.88 Q2718.32 1566.87 2720.35 1570.88 Q2722.41 1574.87 2726.47 1574.87 Q2730.56 1574.87 2732.59 1570.88 Q2734.65 1566.87 2734.65 1558.88 Q2734.65 1550.86 2732.59 1546.87 Q2730.56 1542.86 2726.47 1542.86 M2726.47 1538.7 Q2733.01 1538.7 2736.44 1543.88 Q2739.91 1549.04 2739.91 1558.88 Q2739.91 1568.7 2736.44 1573.88 Q2733.01 1579.04 2726.47 1579.04 Q2719.93 1579.04 2716.47 1573.88 Q2713.03 1568.7 2713.03 1558.88 Q2713.03 1549.04 2716.47 1543.88 Q2719.93 1538.7 2726.47 1538.7 Z" fill="#000000" fill-rule="nonzero" fill-opacity="1" /><path clip-path="url(#clip560)" d="M2747.82 1539.4 L2772.82 1539.4 L2772.82 1541.64 L2758.71 1578.28 L2753.22 1578.28 L2766.5 1543.83 L2747.82 1543.83 L2747.82 1539.4 Z" fill="#000000" fill-rule="nonzero" fill-opacity="1" /><path clip-path="url(#clip560)" d="M2779.99 1561.54 L2794.02 1561.54 L2794.02 1565.81 L2779.99 1565.81 L2779.99 1561.54 Z" fill="#000000" fill-rule="nonzero" fill-opacity="1" /><path clip-path="url(#clip560)" d="M2806.86 1573.85 L2825.22 1573.85 L2825.22 1578.28 L2800.53 1578.28 L2800.53 1573.85 Q2803.53 1570.75 2808.68 1565.55 Q2813.87 1560.31 2815.19 1558.8 Q2817.72 1555.96 2818.71 1554.01 Q2819.73 1552.03 2819.73 1550.13 Q2819.73 1547.03 2817.54 1545.08 Q2815.38 1543.12 2811.89 1543.12 Q2809.41 1543.12 2806.65 1543.98 Q2803.92 1544.84 2800.79 1546.59 L2800.79 1541.27 Q2803.97 1540 2806.73 1539.35 Q2809.49 1538.7 2811.78 1538.7 Q2817.82 1538.7 2821.42 1541.72 Q2825.01 1544.74 2825.01 1549.79 Q2825.01 1552.19 2824.1 1554.35 Q2823.22 1556.48 2820.85 1559.4 Q2820.19 1560.15 2816.7 1563.77 Q2813.22 1567.37 2806.86 1573.85 Z" fill="#000000" fill-rule="nonzero" fill-opacity="1" /><path clip-path="url(#clip560)" d="M2850.71 1543.98 L2837.43 1564.74 L2850.71 1564.74 L2850.71 1543.98 M2849.33 1539.4 L2855.95 1539.4 L2855.95 1564.74 L2861.5 1564.74 L2861.5 1569.11 L2855.95 1569.11 L2855.95 1578.28 L2850.71 1578.28 L2850.71 1569.11 L2833.16 1569.11 L2833.16 1564.04 L2849.33 1539.4 Z" fill="#000000" fill-rule="nonzero" fill-opacity="1" /><polyline clip-path="url(#clip562)" style="stroke:#000000; stroke-linecap:round; stroke-linejoin:round; stroke-width:2; stroke-opacity:0.1; fill:none" points="206.379,1250.3 3180.58,1250.3 "/>
<polyline clip-path="url(#clip562)" style="stroke:#000000; stroke-linecap:round; stroke-linejoin:round; stroke-width:2; stroke-opacity:0.1; fill:none" points="206.379,933.852 3180.58,933.852 "/>
<polyline clip-path="url(#clip562)" style="stroke:#000000; stroke-linecap:round; stroke-linejoin:round; stroke-width:2; stroke-opacity:0.1; fill:none" points="206.379,617.401 3180.58,617.401 "/>
<polyline clip-path="url(#clip562)" style="stroke:#000000; stroke-linecap:round; stroke-linejoin:round; stroke-width:2; stroke-opacity:0.1; fill:none" points="206.379,300.949 3180.58,300.949 "/>
<polyline clip-path="url(#clip560)" style="stroke:#000000; stroke-linecap:round; stroke-linejoin:round; stroke-width:4; stroke-opacity:1; fill:none" points="206.379,1497.68 206.379,47.2441 "/>
<polyline clip-path="url(#clip560)" style="stroke:#000000; stroke-linecap:round; stroke-linejoin:round; stroke-width:4; stroke-opacity:1; fill:none" points="206.379,1250.3 221.381,1250.3 "/>
<polyline clip-path="url(#clip560)" style="stroke:#000000; stroke-linecap:round; stroke-linejoin:round; stroke-width:4; stroke-opacity:1; fill:none" points="206.379,933.852 221.381,933.852 "/>
<polyline clip-path="url(#clip560)" style="stroke:#000000; stroke-linecap:round; stroke-linejoin:round; stroke-width:4; stroke-opacity:1; fill:none" points="206.379,617.401 221.381,617.401 "/>
<polyline clip-path="url(#clip560)" style="stroke:#000000; stroke-linecap:round; stroke-linejoin:round; stroke-width:4; stroke-opacity:1; fill:none" points="206.379,300.949 221.381,300.949 "/>
<path clip-path="url(#clip560)" d="M93.4101 1265.32 L111.769 1265.32 L111.769 1269.74 L87.082 1269.74 L87.082 1265.32 Q90.0768 1262.22 95.233 1257.01 Q100.415 1251.77 101.743 1250.26 Q104.269 1247.43 105.259 1245.47 Q106.275 1243.49 106.275 1241.59 Q106.275 1238.49 104.087 1236.54 Q101.926 1234.59 98.4361 1234.59 Q95.9622 1234.59 93.2018 1235.45 Q90.4674 1236.31 87.3424 1238.05 L87.3424 1232.74 Q90.5195 1231.46 93.2799 1230.81 Q96.0403 1230.16 98.332 1230.16 Q104.374 1230.16 107.967 1233.18 Q111.561 1236.2 111.561 1241.25 Q111.561 1243.65 110.65 1245.81 Q109.764 1247.95 107.394 1250.86 Q106.743 1251.62 103.254 1255.24 Q99.7642 1258.83 93.4101 1265.32 Z" fill="#000000" fill-rule="nonzero" fill-opacity="1" /><path clip-path="url(#clip560)" d="M122.863 1230.86 L143.514 1230.86 L143.514 1235.29 L127.681 1235.29 L127.681 1244.82 Q128.827 1244.43 129.972 1244.25 Q131.118 1244.04 132.264 1244.04 Q138.774 1244.04 142.577 1247.61 Q146.379 1251.18 146.379 1257.27 Q146.379 1263.55 142.472 1267.04 Q138.566 1270.5 131.457 1270.5 Q129.009 1270.5 126.457 1270.08 Q123.931 1269.67 121.222 1268.83 L121.222 1263.55 Q123.566 1264.82 126.066 1265.45 Q128.566 1266.07 131.353 1266.07 Q135.858 1266.07 138.488 1263.7 Q141.118 1261.33 141.118 1257.27 Q141.118 1253.21 138.488 1250.84 Q135.858 1248.47 131.353 1248.47 Q129.243 1248.47 127.134 1248.94 Q125.051 1249.41 122.863 1250.39 L122.863 1230.86 Z" fill="#000000" fill-rule="nonzero" fill-opacity="1" /><path clip-path="url(#clip560)" d="M103.697 932.329 Q107.473 933.136 109.582 935.688 Q111.717 938.24 111.717 941.99 Q111.717 947.745 107.759 950.896 Q103.801 954.047 96.5091 954.047 Q94.0611 954.047 91.457 953.553 Q88.8789 953.084 86.1185 952.12 L86.1185 947.042 Q88.306 948.318 90.9101 948.969 Q93.5143 949.62 96.3528 949.62 Q101.301 949.62 103.879 947.667 Q106.483 945.714 106.483 941.99 Q106.483 938.553 104.061 936.626 Q101.665 934.672 97.3684 934.672 L92.8372 934.672 L92.8372 930.35 L97.5768 930.35 Q101.457 930.35 103.514 928.813 Q105.572 927.251 105.572 924.334 Q105.572 921.339 103.436 919.751 Q101.327 918.136 97.3684 918.136 Q95.207 918.136 92.733 918.605 Q90.2591 919.074 87.2904 920.063 L87.2904 915.376 Q90.2851 914.542 92.8893 914.126 Q95.5195 913.709 97.8372 913.709 Q103.827 913.709 107.316 916.443 Q110.806 919.152 110.806 923.787 Q110.806 927.016 108.957 929.256 Q107.108 931.469 103.697 932.329 Z" fill="#000000" fill-rule="nonzero" fill-opacity="1" /><path clip-path="url(#clip560)" d="M132.941 917.876 Q128.879 917.876 126.821 921.886 Q124.79 925.87 124.79 933.891 Q124.79 941.886 126.821 945.896 Q128.879 949.881 132.941 949.881 Q137.03 949.881 139.061 945.896 Q141.118 941.886 141.118 933.891 Q141.118 925.87 139.061 921.886 Q137.03 917.876 132.941 917.876 M132.941 913.709 Q139.478 913.709 142.915 918.891 Q146.379 924.048 146.379 933.891 Q146.379 943.709 142.915 948.891 Q139.478 954.047 132.941 954.047 Q126.405 954.047 122.941 948.891 Q119.504 943.709 119.504 933.891 Q119.504 924.048 122.941 918.891 Q126.405 913.709 132.941 913.709 Z" fill="#000000" fill-rule="nonzero" fill-opacity="1" /><path clip-path="url(#clip560)" d="M104.816 615.877 Q108.592 616.685 110.702 619.237 Q112.837 621.789 112.837 625.539 Q112.837 631.294 108.879 634.445 Q104.92 637.596 97.6288 637.596 Q95.1809 637.596 92.5768 637.101 Q89.9987 636.632 87.2383 635.669 L87.2383 630.591 Q89.4258 631.867 92.0299 632.518 Q94.6341 633.169 97.4726 633.169 Q102.42 633.169 104.999 631.216 Q107.603 629.263 107.603 625.539 Q107.603 622.101 105.181 620.174 Q102.785 618.221 98.4882 618.221 L93.957 618.221 L93.957 613.898 L98.6965 613.898 Q102.577 613.898 104.634 612.362 Q106.691 610.799 106.691 607.883 Q106.691 604.888 104.556 603.299 Q102.447 601.685 98.4882 601.685 Q96.3268 601.685 93.8528 602.154 Q91.3789 602.622 88.4101 603.612 L88.4101 598.924 Q91.4049 598.091 94.0091 597.674 Q96.6393 597.258 98.957 597.258 Q104.947 597.258 108.436 599.992 Q111.926 602.7 111.926 607.336 Q111.926 610.565 110.077 612.804 Q108.228 615.018 104.816 615.877 Z" fill="#000000" fill-rule="nonzero" fill-opacity="1" /><path clip-path="url(#clip560)" d="M122.863 597.961 L143.514 597.961 L143.514 602.388 L127.681 602.388 L127.681 611.919 Q128.827 611.528 129.972 611.346 Q131.118 611.138 132.264 611.138 Q138.774 611.138 142.577 614.706 Q146.379 618.273 146.379 624.367 Q146.379 630.643 142.472 634.133 Q138.566 637.596 131.457 637.596 Q129.009 637.596 126.457 637.179 Q123.931 636.763 121.222 635.929 L121.222 630.643 Q123.566 631.919 126.066 632.544 Q128.566 633.169 131.353 633.169 Q135.858 633.169 138.488 630.799 Q141.118 628.429 141.118 624.367 Q141.118 620.304 138.488 617.935 Q135.858 615.565 131.353 615.565 Q129.243 615.565 127.134 616.034 Q125.051 616.502 122.863 617.492 L122.863 597.961 Z" fill="#000000" fill-rule="nonzero" fill-opacity="1" /><path clip-path="url(#clip560)" d="M102.212 286.093 L88.931 306.848 L102.212 306.848 L102.212 286.093 M100.832 281.509 L107.446 281.509 L107.446 306.848 L112.993 306.848 L112.993 311.223 L107.446 311.223 L107.446 320.389 L102.212 320.389 L102.212 311.223 L84.6602 311.223 L84.6602 306.145 L100.832 281.509 Z" fill="#000000" fill-rule="nonzero" fill-opacity="1" /><path clip-path="url(#clip560)" d="M132.941 284.973 Q128.879 284.973 126.821 288.983 Q124.79 292.968 124.79 300.989 Q124.79 308.983 126.821 312.994 Q128.879 316.978 132.941 316.978 Q137.03 316.978 139.061 312.994 Q141.118 308.983 141.118 300.989 Q141.118 292.968 139.061 288.983 Q137.03 284.973 132.941 284.973 M132.941 280.806 Q139.478 280.806 142.915 285.989 Q146.379 291.145 146.379 300.989 Q146.379 310.806 142.915 315.988 Q139.478 321.145 132.941 321.145 Q126.405 321.145 122.941 315.988 Q119.504 310.806 119.504 300.989 Q119.504 291.145 122.941 285.989 Q126.405 280.806 132.941 280.806 Z" fill="#000000" fill-rule="nonzero" fill-opacity="1" /><path clip-path="url(#clip560)" d="M-31.4998 930.013 L-31.4998 924.168 L11.7002 924.168 L11.7002 930.013 L-31.4998 930.013 Z" fill="#000000" fill-rule="nonzero" fill-opacity="1" /><path clip-path="url(#clip560)" d="M-7.85992 885.829 L11.7002 885.829 L11.7002 891.153 L-7.68631 891.153 Q-12.287 891.153 -14.5728 892.947 Q-16.8587 894.741 -16.8587 898.329 Q-16.8587 902.641 -14.1099 905.129 Q-11.3611 907.618 -6.61572 907.618 L11.7002 907.618 L11.7002 912.97 L-20.7071 912.97 L-20.7071 907.618 L-15.6724 907.618 Q-18.5948 905.708 -20.0416 903.133 Q-21.4883 900.528 -21.4883 897.143 Q-21.4883 891.559 -18.0161 888.694 Q-14.5728 885.829 -7.85992 885.829 Z" fill="#000000" fill-rule="nonzero" fill-opacity="1" /><path clip-path="url(#clip560)" d="M-33.3227 858.804 L-28.8957 858.804 L-28.8957 863.897 Q-28.8957 866.761 -27.7383 867.89 Q-26.5809 868.989 -23.5716 868.989 L-20.7071 868.989 L-20.7071 860.222 L-16.5694 860.222 L-16.5694 868.989 L11.7002 868.989 L11.7002 874.342 L-16.5694 874.342 L-16.5694 879.435 L-20.7071 879.435 L-20.7071 874.342 L-22.964 874.342 Q-28.3749 874.342 -30.8343 871.825 Q-33.3227 869.308 -33.3227 863.839 L-33.3227 858.804 Z" fill="#000000" fill-rule="nonzero" fill-opacity="1" /><path clip-path="url(#clip560)" d="M-33.3227 854.348 L-33.3227 849.024 L11.7002 849.024 L11.7002 854.348 L-33.3227 854.348 Z" fill="#000000" fill-rule="nonzero" fill-opacity="1" /><path clip-path="url(#clip560)" d="M-16.9745 825.326 Q-16.9745 829.609 -13.618 832.097 Q-10.2905 834.585 -4.47452 834.585 Q1.34142 834.585 4.69788 832.126 Q8.02541 829.638 8.02541 825.326 Q8.02541 821.073 4.66895 818.584 Q1.31248 816.096 -4.47452 816.096 Q-10.2326 816.096 -13.5891 818.584 Q-16.9745 821.073 -16.9745 825.326 M-21.4883 825.326 Q-21.4883 818.382 -16.9745 814.418 Q-12.4606 810.454 -4.47452 810.454 Q3.48261 810.454 8.02541 814.418 Q12.5393 818.382 12.5393 825.326 Q12.5393 832.3 8.02541 836.264 Q3.48261 840.199 -4.47452 840.199 Q-12.4606 840.199 -16.9745 836.264 Q-21.4883 832.3 -21.4883 825.326 Z" fill="#000000" fill-rule="nonzero" fill-opacity="1" /><path clip-path="url(#clip560)" d="M-20.7071 804.725 L-20.7071 799.4 L4.58214 792.745 L-20.7071 786.119 L-20.7071 779.84 L4.58214 773.185 L-20.7071 766.559 L-20.7071 761.235 L11.7002 769.713 L11.7002 775.992 L-14.8622 782.965 L11.7002 789.968 L11.7002 796.247 L-20.7071 804.725 Z" fill="#000000" fill-rule="nonzero" fill-opacity="1" /><path clip-path="url(#clip560)" d="M-33.3227 734.818 L-33.3227 722.549 L-29.185 722.549 L-29.185 729.493 L15.3749 729.493 L15.3749 722.549 L19.5126 722.549 L19.5126 734.818 L-33.3227 734.818 Z" fill="#000000" fill-rule="nonzero" fill-opacity="1" /><path clip-path="url(#clip560)" d="M-31.4998 710.975 L-31.4998 705.13 L6.7812 705.13 L6.7812 684.094 L11.7002 684.094 L11.7002 710.975 L-31.4998 710.975 Z" fill="#000000" fill-rule="nonzero" fill-opacity="1" /><path clip-path="url(#clip560)" d="M-31.4998 668.73 L-31.4998 663.811 L17.1978 678.857 L17.1978 683.776 L-31.4998 668.73 Z" fill="#000000" fill-rule="nonzero" fill-opacity="1" /><path clip-path="url(#clip560)" d="M-19.7522 637.567 L-14.7175 637.567 Q-15.8749 639.824 -16.4536 642.254 Q-17.0323 644.685 -17.0323 647.289 Q-17.0323 651.253 -15.8171 653.25 Q-14.6018 655.217 -12.1712 655.217 Q-10.3194 655.217 -9.2488 653.799 Q-8.20714 652.382 -7.25229 648.099 L-6.8472 646.276 Q-5.63193 640.605 -3.40393 638.232 Q-1.20487 635.831 2.75923 635.831 Q7.2731 635.831 9.90619 639.419 Q12.5393 642.978 12.5393 649.228 Q12.5393 651.832 12.0184 654.667 Q11.5265 657.474 10.5138 660.599 L5.01617 660.599 Q6.54972 657.648 7.33097 654.783 Q8.08328 651.919 8.08328 649.112 Q8.08328 645.35 6.81014 643.325 Q5.50806 641.299 3.16432 641.299 Q0.994196 641.299 -0.163205 642.775 Q-1.32061 644.222 -2.3912 649.17 L-2.82523 651.022 Q-3.86689 655.97 -6.00808 658.169 Q-8.17821 660.368 -11.9398 660.368 Q-16.5115 660.368 -18.9999 657.127 Q-21.4883 653.886 -21.4883 647.926 Q-21.4883 644.974 -21.0543 642.37 Q-20.6203 639.766 -19.7522 637.567 Z" fill="#000000" fill-rule="nonzero" fill-opacity="1" /><path clip-path="url(#clip560)" d="M-33.3227 614.911 L19.5126 614.911 L19.5126 627.179 L15.3749 627.179 L15.3749 620.264 L-29.185 620.264 L-29.185 627.179 L-33.3227 627.179 L-33.3227 614.911 Z" fill="#000000" fill-rule="nonzero" fill-opacity="1" /><polyline clip-path="url(#clip562)" style="stroke:#023eff; stroke-linecap:round; stroke-linejoin:round; stroke-width:5; stroke-opacity:1; fill:none" points="290.554,1344.23 307.356,1381.32 324.157,1381.32 340.959,1381.32 357.76,1381.32 374.562,1381.32 391.363,1032.78 408.165,673.838 424.966,673.838 441.768,673.838 458.569,673.838 475.371,673.838 492.172,673.838 508.974,673.838 525.776,673.838 542.577,910.178 559.379,910.178 576.18,910.178 592.982,910.178 609.783,910.178 626.585,910.178 643.386,1060.33 660.188,1060.33 676.989,1060.33 693.791,1349.63 710.592,1349.63 727.394,1349.63 744.195,1349.63 760.997,1349.63 777.798,1349.63 794.6,1024.27 811.401,629.476 828.203,629.476 845.004,629.476 861.806,629.476 878.608,629.476 895.409,732.117 912.211,732.117 929.012,732.117 945.814,820.019 962.615,820.019 979.417,899.284 996.218,899.284 1013.02,899.284 1029.82,899.284 1046.62,1127.1 1063.42,1127.1 1080.23,1127.1 1097.03,1349.63 1113.83,1349.63 1130.63,1349.63 1147.43,1349.63 1164.23,1349.63 1181.03,1349.63 1197.84,1024.27 1214.64,629.476 1231.44,629.476 1248.24,629.476 1265.04,629.476 1281.84,629.476 1298.65,732.117 1315.45,732.117 1332.25,732.117 1349.05,820.019 1365.85,820.019 1382.65,899.284 1399.45,899.284 1416.26,899.284 1433.06,899.284 1449.86,1127.1 1466.66,1127.1 1483.46,1127.1 1500.26,1349.63 1517.07,1349.63 1533.87,1349.63 1550.67,1349.63 1567.47,1349.63 1584.27,1349.63 1601.07,1024.27 1617.87,629.476 1634.68,629.476 1651.48,629.476 1668.28,629.476 1685.08,629.476 1701.88,732.117 1718.68,732.117 1735.49,732.117 1752.29,820.019 1769.09,820.019 1785.89,899.284 1802.69,899.284 1819.49,899.284 1836.29,899.284 1853.1,1127.1 1869.9,1095.62 1886.7,1127.1 1903.5,1349.63 1920.3,1349.63 1937.1,1349.63 1953.9,1349.63 1970.71,1349.63 1987.51,1349.63 2004.31,1024.27 2021.11,629.476 2037.91,629.476 2054.71,629.476 2071.52,629.476 2088.32,629.476 2105.12,732.117 2121.92,732.117 2138.72,732.117 2155.52,820.019 2172.32,820.019 2189.13,899.284 2205.93,899.284 2222.73,899.284 2239.53,899.284 2256.33,1127.1 2273.13,1127.1 2289.94,1127.1 2306.74,1191.91 2323.54,1191.91 2340.34,1191.91 2357.14,1191.91 2373.94,1412.49 2390.74,1412.49 2407.55,997.639 2424.35,1023.55 2441.15,1023.55 2457.95,1023.55 2474.75,1023.55 2491.55,1023.55 2508.36,1023.55 2525.16,1206.45 2541.96,1206.45 2558.76,1206.45 2575.56,1206.45 2592.36,1206.45 2609.16,955.956 2625.97,955.956 2642.77,955.956 2659.57,955.956 2676.37,955.956 2693.17,955.956 2709.97,1191.91 2726.78,1191.91 2743.58,1191.91 2760.38,1191.91 2777.18,1191.91 2793.98,1191.91 2810.78,997.639 2827.58,1023.55 2844.39,1023.55 2861.19,1023.55 2877.99,1023.55 2894.79,1023.55 2911.59,1023.55 2928.39,1206.45 2945.19,1206.45 2962,1209.61 2978.8,1209.61 2995.6,955.956 3012.4,1080.83 3029.2,955.956 3046,955.956 3062.81,1080.83 3079.61,955.956 3096.41,1080.83 "/>
<polyline clip-path="url(#clip562)" style="stroke:#ff7c00; stroke-linecap:round; stroke-linejoin:round; stroke-width:5; stroke-opacity:1; fill:none" points="290.554,1325.18 307.356,1360.9 324.157,1360.9 340.959,1360.9 357.76,1360.9 374.562,1360.9 391.363,1033.82 408.165,709.371 424.966,603.061 441.768,603.061 458.569,603.061 475.371,603.061 492.172,725.292 508.974,725.292 525.776,725.292 542.577,737.551 559.379,1083.09 576.18,809.678 592.982,809.678 609.783,809.678 626.585,809.678 643.386,1066.6 660.188,1066.6 676.989,1033.82 693.791,1303.12 710.592,1326.14 727.394,1326.14 744.195,1326.14 760.997,1326.14 777.798,1303.12 794.6,921.384 811.401,88.2942 828.203,595.462 845.004,595.462 861.806,595.462 878.608,595.462 895.409,712.994 912.211,712.994 929.012,712.994 945.814,553.478 962.615,747.673 979.417,750.656 996.218,750.656 1013.02,891.305 1029.82,891.305 1046.62,995.442 1063.42,995.442 1080.23,1073.86 1097.03,1303.12 1113.83,1303.12 1130.63,1326.14 1147.43,1326.14 1164.23,1303.12 1181.03,1326.14 1197.84,921.384 1214.64,724 1231.44,595.462 1248.24,595.462 1265.04,595.462 1281.84,595.462 1298.65,712.994 1315.45,712.994 1332.25,712.994 1349.05,747.673 1365.85,750.656 1382.65,891.305 1399.45,750.656 1416.26,750.656 1433.06,750.656 1449.86,995.442 1466.66,750.656 1483.46,995.442 1500.26,1303.12 1517.07,1326.14 1533.87,1326.14 1550.67,1303.12 1567.47,1326.14 1584.27,1303.12 1601.07,1025.15 1617.87,724 1634.68,595.462 1651.48,595.462 1668.28,595.462 1685.08,595.462 1701.88,712.994 1718.68,712.994 1735.49,712.994 1752.29,1018.98 1769.09,747.673 1785.89,811.242 1802.69,811.242 1819.49,842.758 1836.29,891.305 1853.1,995.442 1869.9,995.442 1886.7,995.442 1903.5,1344.25 1920.3,1326.14 1937.1,1326.14 1953.9,1326.14 1970.71,1326.14 1987.51,1344.25 2004.31,921.384 2021.11,724 2037.91,595.462 2054.71,595.462 2071.52,595.462 2088.32,595.462 2105.12,712.994 2121.92,712.994 2138.72,712.994 2155.52,1018.98 2172.32,1018.98 2189.13,891.305 2205.93,1018.98 2222.73,842.758 2239.53,891.305 2256.33,995.442 2273.13,612.338 2289.94,1095.02 2306.74,1344.25 2323.54,1326.14 2340.34,1326.14 2357.14,1326.14 2373.94,1326.14 2390.74,1326.14 2407.55,1193.99 2424.35,990.25 2441.15,990.25 2457.95,990.25 2474.75,990.25 2491.55,990.25 2508.36,990.25 2525.16,1095.02 2541.96,1193.99 2558.76,1095.02 2575.56,1095.02 2592.36,1193.99 2609.16,1095.02 2625.97,1120.48 2642.77,1120.48 2659.57,1095.02 2676.37,1193.99 2693.17,1193.99 2709.97,1425.2 2726.78,1425.2 2743.58,1425.2 2760.38,1425.2 2777.18,1425.2 2793.98,1425.2 2810.78,1193.99 2827.58,1062.11 2844.39,1062.11 2861.19,1062.11 2877.99,1062.11 2894.79,1062.11 2911.59,1165.66 2928.39,1193.99 2945.19,1193.99 2962,1193.99 2978.8,1193.99 2995.6,1193.99 3012.4,1095.02 3029.2,1095.02 3046,612.338 3062.81,612.338 3079.61,1193.99 3096.41,1193.99 "/>
<polyline clip-path="url(#clip562)" style="stroke:#1ac938; stroke-linecap:round; stroke-linejoin:round; stroke-width:5; stroke-opacity:1; fill:none" points="290.554,1322.42 307.356,1353.16 324.157,1353.16 340.959,1353.16 357.76,1353.16 374.562,1353.16 391.363,1044.88 408.165,586.174 424.966,586.174 441.768,586.174 458.569,586.174 475.371,586.174 492.172,777.705 508.974,777.705 525.776,777.705 542.577,777.705 559.379,777.705 576.18,777.705 592.982,777.705 609.783,777.705 626.585,777.705 643.386,1054.96 660.188,1054.96 676.989,1054.96 693.791,1336.09 710.592,1336.09 727.394,1336.09 744.195,1336.09 760.997,1336.09 777.798,1336.09 794.6,978.788 811.401,586.174 828.203,586.174 845.004,586.174 861.806,586.174 878.608,586.174 895.409,706.292 912.211,706.292 929.012,706.292 945.814,754.635 962.615,754.635 979.417,838.6 996.218,838.6 1013.02,754.635 1029.82,838.6 1046.62,1054.96 1063.42,1054.96 1080.23,1054.96 1097.03,1336.09 1113.83,1336.09 1130.63,1336.09 1147.43,1336.09 1164.23,1336.09 1181.03,1336.09 1197.84,978.788 1214.64,586.174 1231.44,586.174 1248.24,586.174 1265.04,586.174 1281.84,586.174 1298.65,706.292 1315.45,706.292 1332.25,706.292 1349.05,754.635 1365.85,838.6 1382.65,838.6 1399.45,754.635 1416.26,838.6 1433.06,754.635 1449.86,1054.96 1466.66,1054.96 1483.46,1054.96 1500.26,1336.09 1517.07,1336.09 1533.87,1336.09 1550.67,1336.09 1567.47,1336.09 1584.27,1336.09 1601.07,978.788 1617.87,586.174 1634.68,586.174 1651.48,586.174 1668.28,586.174 1685.08,586.174 1701.88,706.292 1718.68,706.292 1735.49,706.292 1752.29,754.635 1769.09,754.635 1785.89,754.635 1802.69,754.635 1819.49,754.635 1836.29,754.635 1853.1,1054.96 1869.9,1054.96 1886.7,1054.96 1903.5,1336.09 1920.3,1336.09 1937.1,1336.09 1953.9,1336.09 1970.71,1336.09 1987.51,1336.09 2004.31,978.788 2021.11,586.174 2037.91,586.174 2054.71,586.174 2071.52,586.174 2088.32,586.174 2105.12,706.292 2121.92,706.292 2138.72,706.292 2155.52,754.635 2172.32,754.635 2189.13,754.635 2205.93,754.635 2222.73,754.635 2239.53,754.635 2256.33,1054.96 2273.13,1054.96 2289.94,1054.96 2306.74,1395.82 2323.54,1395.82 2340.34,1395.82 2357.14,1395.82 2373.94,1395.82 2390.74,1395.82 2407.55,1210.04 2424.35,991.18 2441.15,991.18 2457.95,991.18 2474.75,991.18 2491.55,991.18 2508.36,1111.39 2525.16,1111.39 2541.96,1210.04 2558.76,1111.39 2575.56,1111.39 2592.36,1210.04 2609.16,1111.39 2625.97,1111.39 2642.77,1111.39 2659.57,1111.39 2676.37,1210.04 2693.17,1210.04 2709.97,1395.82 2726.78,1395.82 2743.58,1395.82 2760.38,1395.82 2777.18,1395.82 2793.98,1395.82 2810.78,1210.04 2827.58,991.18 2844.39,991.18 2861.19,991.18 2877.99,991.18 2894.79,991.18 2911.59,1111.39 2928.39,1210.04 2945.19,1210.04 2962,1210.04 2978.8,1210.04 2995.6,1210.04 3012.4,1111.39 3029.2,1210.04 3046,1111.39 3062.81,1111.39 3079.61,1210.04 3096.41,1210.04 "/>
<polyline clip-path="url(#clip562)" style="stroke:#e8000b; stroke-linecap:round; stroke-linejoin:round; stroke-width:5; stroke-opacity:1; fill:none" points="290.554,1319.72 307.356,1299.88 324.157,1299.88 340.959,1369.62 357.76,1369.62 374.562,1369.62 391.363,1234.38 408.165,667.63 424.966,667.63 441.768,667.63 458.569,667.63 475.371,667.63 492.172,1115.92 508.974,772.129 525.776,772.129 542.577,772.129 559.379,782.668 576.18,782.668 592.982,782.668 609.783,782.668 626.585,1037.57 643.386,1037.57 660.188,1037.57 676.989,1037.57 693.791,1325.54 710.592,1325.54 727.394,1325.54 744.195,1325.54 760.997,1325.54 777.798,1325.54 794.6,1005.46 811.401,667.63 828.203,667.63 845.004,667.63 861.806,667.63 878.608,667.63 895.409,766.26 912.211,1005.46 929.012,1005.46 945.814,865.182 962.615,865.182 979.417,865.182 996.218,865.182 1013.02,865.182 1029.82,865.182 1046.62,1056.09 1063.42,1056.09 1080.23,1056.09 1097.03,1325.54 1113.83,1325.54 1130.63,1325.54 1147.43,1325.54 1164.23,1325.54 1181.03,1325.54 1197.84,1152.77 1214.64,667.63 1231.44,667.63 1248.24,667.63 1265.04,667.63 1281.84,667.63 1298.65,766.26 1315.45,766.26 1332.25,766.26 1349.05,865.182 1365.85,865.182 1382.65,865.182 1399.45,865.182 1416.26,865.182 1433.06,865.182 1449.86,1056.09 1466.66,1056.09 1483.46,1056.09 1500.26,1325.54 1517.07,1325.54 1533.87,1325.54 1550.67,1325.54 1567.47,1325.54 1584.27,1325.54 1601.07,1005.46 1617.87,667.63 1634.68,667.63 1651.48,667.63 1668.28,667.63 1685.08,667.63 1701.88,766.26 1718.68,766.26 1735.49,1005.46 1752.29,865.182 1769.09,865.182 1785.89,865.182 1802.69,865.182 1819.49,865.182 1836.29,865.182 1853.1,1056.09 1869.9,1056.09 1886.7,1056.09 1903.5,1325.54 1920.3,1325.54 1937.1,1325.54 1953.9,1325.54 1970.71,1325.54 1987.51,1325.54 2004.31,1005.46 2021.11,667.63 2037.91,667.63 2054.71,667.63 2071.52,667.63 2088.32,667.63 2105.12,766.26 2121.92,766.26 2138.72,766.26 2155.52,865.182 2172.32,865.182 2189.13,865.182 2205.93,865.182 2222.73,865.182 2239.53,865.182 2256.33,1056.09 2273.13,1056.09 2289.94,1056.09 2306.74,1325.54 2323.54,1325.54 2340.34,1325.54 2357.14,1325.54 2373.94,1325.54 2390.74,1325.54 2407.55,1152.77 2424.35,1005.46 2441.15,1005.46 2457.95,1005.46 2474.75,1005.46 2491.55,1005.46 2508.36,1005.46 2525.16,1152.77 2541.96,1152.77 2558.76,1173.16 2575.56,1173.16 2592.36,1173.16 2609.16,1173.16 2625.97,1173.16 2642.77,1173.16 2659.57,1173.16 2676.37,1173.16 2693.17,1173.16 2709.97,1325.54 2726.78,1325.54 2743.58,1325.54 2760.38,1325.54 2777.18,1325.54 2793.98,1325.54 2810.78,1152.77 2827.58,1005.46 2844.39,1005.46 2861.19,1005.46 2877.99,1005.46 2894.79,1005.46 2911.59,1152.77 2928.39,1152.77 2945.19,1152.77 2962,1173.16 2978.8,1173.16 2995.6,1173.16 3012.4,1173.16 3029.2,1173.16 3046,1173.16 3062.81,1173.16 3079.61,1173.16 3096.41,1173.16 "/>
<polyline clip-path="url(#clip562)" style="stroke:#000000; stroke-linecap:round; stroke-linejoin:round; stroke-width:6; stroke-opacity:1; fill:none" points="290.554,1328.78 307.356,1324.99 324.157,1360.43 340.959,1402.83 357.76,1442.71 374.562,1378.78 391.363,1075.62 408.165,711.07 424.966,721.83 441.768,579.427 458.569,678.792 475.371,606.009 492.172,697.779 508.974,911.068 525.776,914.865 542.577,931.321 559.379,783.221 576.18,680.058 592.982,768.665 609.783,627.527 626.585,711.703 643.386,1055.37 660.188,1014.86 676.989,1126.89 693.791,1130.05 710.592,1345.87 727.394,1383.85 744.195,1342.07 760.997,1290.81 777.798,1285.11 794.6,1018.66 811.401,468.036 828.203,544.617 845.004,538.921 861.806,511.073 878.608,485.124 895.409,652.21 912.211,799.677 929.012,774.361 945.814,911.068 962.615,702.21 979.417,773.728 996.218,942.08 1013.02,814.234 1029.82,814.234 1046.62,941.447 1063.42,1004.1 1080.23,1090.18 1097.03,1198.41 1113.83,1357.9 1130.63,1367.39 1147.43,1323.72 1164.23,1280.68 1181.03,1359.16 1197.84,1037.65 1214.64,556.642 1231.44,632.59 1248.24,665.501 1265.04,758.538 1281.84,595.882 1298.65,756.007 1315.45,768.665 1332.25,819.297 1349.05,862.334 1365.85,729.425 1382.65,735.121 1399.45,938.282 1416.26,792.082 1433.06,674.362 1449.86,952.839 1466.66,1061.7 1483.46,1007.27 1500.26,1150.3 1517.07,1341.44 1533.87,1450.3 1550.67,1234.48 1567.47,1239.54 1584.27,1324.99 1601.07,1079.42 1617.87,716.134 1634.68,428.163 1651.48,645.249 1668.28,671.198 1685.08,665.501 1701.88,781.323 1718.68,749.677 1735.49,822.461 1752.29,856.638 1769.09,866.764 1785.89,785.12 1802.69,845.879 1819.49,811.069 1836.29,769.93 1853.1,894.612 1869.9,1095.24 1886.7,1190.18 1903.5,1085.12 1920.3,1302.2 1937.1,1370.56 1953.9,1384.48 1970.71,1415.49 1987.51,1370.56 2004.31,953.472 2021.11,635.755 2037.91,514.871 2054.71,637.021 2071.52,756.639 2088.32,734.488 2105.12,768.032 2121.92,816.765 2138.72,811.069 2155.52,769.297 2172.32,863.6 2189.13,910.435 2205.93,860.435 2222.73,723.096 2239.53,867.397 2256.33,813.601 2273.13,1048.41 2289.94,1217.39 2306.74,1221.82 2323.54,1380.68 2340.34,1337.01 2357.14,1255.37 2373.94,1426.25 2390.74,1376.25 2407.55,1197.77 2424.35,890.182 2441.15,722.463 2457.95,827.525 2474.75,1030.69 2491.55,1073.72 2508.36,1152.2 2525.16,1183.22 2541.96,1207.9 2558.76,1289.54 2575.56,1238.28 2592.36,1216.76 2609.16,1073.09 2625.97,1044.61 2642.77,1043.34 2659.57,1076.26 2676.37,1271.19 2693.17,1262.33 2709.97,1297.77 2726.78,1456.63 2743.58,1429.41 2760.38,1425.62 2777.18,1435.74 2793.98,1438.28 2810.78,1331.32 2827.58,1124.99 2844.39,992.712 2861.19,895.245 2877.99,990.181 2894.79,1045.88 2911.59,1203.47 2928.39,1222.46 2945.19,1272.46 2962,1314.86 2978.8,1309.16 2995.6,1204.1 3012.4,1099.04 3029.2,1032.58 3046,933.219 3062.81,1131.32 3079.61,1214.23 3096.41,1235.75 "/>
<path clip-path="url(#clip560)" d="M3305.46 445.512 L3952.76 445.512 L3952.76 95.592 L3305.46 95.592  Z" fill="#ffffff" fill-rule="evenodd" fill-opacity="1"/>
<polyline clip-path="url(#clip560)" style="stroke:#000000; stroke-linecap:round; stroke-linejoin:round; stroke-width:4; stroke-opacity:1; fill:none" points="3305.46,445.512 3952.76,445.512 3952.76,95.592 3305.46,95.592 3305.46,445.512 "/>
<polyline clip-path="url(#clip560)" style="stroke:#023eff; stroke-linecap:round; stroke-linejoin:round; stroke-width:5.625; stroke-opacity:1; fill:none" points="3347.09,153.912 3596.85,153.912 "/>
<path clip-path="url(#clip560)" d="M3643.29 168.977 L3643.29 184.446 L3638.47 184.446 L3638.47 144.185 L3643.29 144.185 L3643.29 148.613 Q3644.8 146.008 3647.09 144.758 Q3649.41 143.482 3652.62 143.482 Q3657.93 143.482 3661.23 147.701 Q3664.57 151.92 3664.57 158.795 Q3664.57 165.67 3661.23 169.888 Q3657.93 174.107 3652.62 174.107 Q3649.41 174.107 3647.09 172.857 Q3644.8 171.581 3643.29 168.977 M3659.59 158.795 Q3659.59 153.508 3657.41 150.514 Q3655.25 147.493 3651.44 147.493 Q3647.64 147.493 3645.45 150.514 Q3643.29 153.508 3643.29 158.795 Q3643.29 164.081 3645.45 167.102 Q3647.64 170.097 3651.44 170.097 Q3655.25 170.097 3657.41 167.102 Q3659.59 164.081 3659.59 158.795 Z" fill="#000000" fill-rule="nonzero" fill-opacity="1" /><path clip-path="url(#clip560)" d="M3689.41 148.665 Q3688.6 148.196 3687.64 147.988 Q3686.7 147.753 3685.56 147.753 Q3681.5 147.753 3679.31 150.409 Q3677.15 153.04 3677.15 157.987 L3677.15 173.352 L3672.33 173.352 L3672.33 144.185 L3677.15 144.185 L3677.15 148.717 Q3678.66 146.06 3681.08 144.784 Q3683.5 143.482 3686.96 143.482 Q3687.46 143.482 3688.06 143.56 Q3688.66 143.613 3689.39 143.743 L3689.41 148.665 Z" fill="#000000" fill-rule="nonzero" fill-opacity="1" /><path clip-path="url(#clip560)" d="M3718.21 157.571 L3718.21 159.915 L3696.18 159.915 Q3696.5 164.862 3699.15 167.467 Q3701.83 170.045 3706.6 170.045 Q3709.36 170.045 3711.94 169.368 Q3714.54 168.691 3717.09 167.336 L3717.09 171.868 Q3714.52 172.961 3711.81 173.534 Q3709.1 174.107 3706.31 174.107 Q3699.33 174.107 3695.25 170.045 Q3691.18 165.982 3691.18 159.055 Q3691.18 151.894 3695.04 147.701 Q3698.92 143.482 3705.48 143.482 Q3711.36 143.482 3714.78 147.284 Q3718.21 151.06 3718.21 157.571 M3713.42 156.165 Q3713.37 152.232 3711.21 149.889 Q3709.07 147.545 3705.53 147.545 Q3701.52 147.545 3699.1 149.81 Q3696.7 152.076 3696.34 156.191 L3713.42 156.165 Z" fill="#000000" fill-rule="nonzero" fill-opacity="1" /><path clip-path="url(#clip560)" d="M3745.27 148.613 L3745.27 132.831 L3750.06 132.831 L3750.06 173.352 L3745.27 173.352 L3745.27 168.977 Q3743.76 171.581 3741.44 172.857 Q3739.15 174.107 3735.92 174.107 Q3730.64 174.107 3727.3 169.888 Q3724 165.67 3724 158.795 Q3724 151.92 3727.3 147.701 Q3730.64 143.482 3735.92 143.482 Q3739.15 143.482 3741.44 144.758 Q3743.76 146.008 3745.27 148.613 M3728.94 158.795 Q3728.94 164.081 3731.1 167.102 Q3733.29 170.097 3737.09 170.097 Q3740.9 170.097 3743.08 167.102 Q3745.27 164.081 3745.27 158.795 Q3745.27 153.508 3743.08 150.514 Q3740.9 147.493 3737.09 147.493 Q3733.29 147.493 3731.1 150.514 Q3728.94 153.508 3728.94 158.795 Z" fill="#000000" fill-rule="nonzero" fill-opacity="1" /><path clip-path="url(#clip560)" d="M3759.93 144.185 L3764.72 144.185 L3764.72 173.352 L3759.93 173.352 L3759.93 144.185 M3759.93 132.831 L3764.72 132.831 L3764.72 138.899 L3759.93 138.899 L3759.93 132.831 Z" fill="#000000" fill-rule="nonzero" fill-opacity="1" /><path clip-path="url(#clip560)" d="M3795.74 145.305 L3795.74 149.784 Q3793.71 148.665 3791.65 148.118 Q3789.62 147.545 3787.54 147.545 Q3782.87 147.545 3780.3 150.514 Q3777.72 153.456 3777.72 158.795 Q3777.72 164.133 3780.3 167.102 Q3782.87 170.045 3787.54 170.045 Q3789.62 170.045 3791.65 169.498 Q3793.71 168.925 3795.74 167.805 L3795.74 172.232 Q3793.73 173.17 3791.57 173.638 Q3789.44 174.107 3787.02 174.107 Q3780.43 174.107 3776.55 169.967 Q3772.67 165.826 3772.67 158.795 Q3772.67 151.659 3776.57 147.571 Q3780.51 143.482 3787.33 143.482 Q3789.54 143.482 3791.65 143.951 Q3793.76 144.394 3795.74 145.305 Z" fill="#000000" fill-rule="nonzero" fill-opacity="1" /><path clip-path="url(#clip560)" d="M3808.81 135.904 L3808.81 144.185 L3818.68 144.185 L3818.68 147.909 L3808.81 147.909 L3808.81 163.743 Q3808.81 167.31 3809.78 168.326 Q3810.77 169.342 3813.76 169.342 L3818.68 169.342 L3818.68 173.352 L3813.76 173.352 Q3808.21 173.352 3806.1 171.295 Q3803.99 169.211 3803.99 163.743 L3803.99 147.909 L3800.48 147.909 L3800.48 144.185 L3803.99 144.185 L3803.99 135.904 L3808.81 135.904 Z" fill="#000000" fill-rule="nonzero" fill-opacity="1" /><path clip-path="url(#clip560)" d="M3847.15 182.206 L3847.15 185.93 L3819.44 185.93 L3819.44 182.206 L3847.15 182.206 Z" fill="#000000" fill-rule="nonzero" fill-opacity="1" /><path clip-path="url(#clip560)" d="M3852.38 134.472 L3873.03 134.472 L3873.03 138.899 L3857.2 138.899 L3857.2 148.43 Q3858.34 148.04 3859.49 147.857 Q3860.63 147.649 3861.78 147.649 Q3868.29 147.649 3872.09 151.217 Q3875.9 154.784 3875.9 160.878 Q3875.9 167.154 3871.99 170.644 Q3868.08 174.107 3860.97 174.107 Q3858.53 174.107 3855.97 173.69 Q3853.45 173.274 3850.74 172.441 L3850.74 167.154 Q3853.08 168.43 3855.58 169.055 Q3858.08 169.68 3860.87 169.68 Q3865.37 169.68 3868 167.31 Q3870.63 164.941 3870.63 160.878 Q3870.63 156.816 3868 154.446 Q3865.37 152.076 3860.87 152.076 Q3858.76 152.076 3856.65 152.545 Q3854.57 153.014 3852.38 154.003 L3852.38 134.472 Z" fill="#000000" fill-rule="nonzero" fill-opacity="1" /><path clip-path="url(#clip560)" d="M3890.79 168.925 L3909.15 168.925 L3909.15 173.352 L3884.46 173.352 L3884.46 168.925 Q3887.46 165.826 3892.61 160.618 Q3897.8 155.383 3899.12 153.873 Q3901.65 151.034 3902.64 149.081 Q3903.66 147.102 3903.66 145.201 Q3903.66 142.102 3901.47 140.149 Q3899.31 138.196 3895.82 138.196 Q3893.34 138.196 3890.58 139.055 Q3887.85 139.915 3884.72 141.659 L3884.72 136.347 Q3887.9 135.071 3890.66 134.42 Q3893.42 133.769 3895.71 133.769 Q3901.75 133.769 3905.35 136.79 Q3908.94 139.81 3908.94 144.863 Q3908.94 147.258 3908.03 149.42 Q3907.15 151.555 3904.78 154.472 Q3904.12 155.227 3900.63 158.847 Q3897.15 162.441 3890.79 168.925 Z" fill="#000000" fill-rule="nonzero" fill-opacity="1" /><polyline clip-path="url(#clip560)" style="stroke:#ff7c00; stroke-linecap:round; stroke-linejoin:round; stroke-width:5.625; stroke-opacity:1; fill:none" points="3347.09,212.232 3596.85,212.232 "/>
<path clip-path="url(#clip560)" d="M3643.29 227.297 L3643.29 242.766 L3638.47 242.766 L3638.47 202.505 L3643.29 202.505 L3643.29 206.933 Q3644.8 204.328 3647.09 203.078 Q3649.41 201.802 3652.62 201.802 Q3657.93 201.802 3661.23 206.021 Q3664.57 210.24 3664.57 217.115 Q3664.57 223.99 3661.23 228.208 Q3657.93 232.427 3652.62 232.427 Q3649.41 232.427 3647.09 231.177 Q3644.8 229.901 3643.29 227.297 M3659.59 217.115 Q3659.59 211.828 3657.41 208.834 Q3655.25 205.813 3651.44 205.813 Q3647.64 205.813 3645.45 208.834 Q3643.29 211.828 3643.29 217.115 Q3643.29 222.401 3645.45 225.422 Q3647.64 228.417 3651.44 228.417 Q3655.25 228.417 3657.41 225.422 Q3659.59 222.401 3659.59 217.115 Z" fill="#000000" fill-rule="nonzero" fill-opacity="1" /><path clip-path="url(#clip560)" d="M3689.41 206.985 Q3688.6 206.516 3687.64 206.308 Q3686.7 206.073 3685.56 206.073 Q3681.5 206.073 3679.31 208.729 Q3677.15 211.36 3677.15 216.307 L3677.15 231.672 L3672.33 231.672 L3672.33 202.505 L3677.15 202.505 L3677.15 207.037 Q3678.66 204.38 3681.08 203.104 Q3683.5 201.802 3686.96 201.802 Q3687.46 201.802 3688.06 201.88 Q3688.66 201.933 3689.39 202.063 L3689.41 206.985 Z" fill="#000000" fill-rule="nonzero" fill-opacity="1" /><path clip-path="url(#clip560)" d="M3718.21 215.891 L3718.21 218.235 L3696.18 218.235 Q3696.5 223.182 3699.15 225.787 Q3701.83 228.365 3706.6 228.365 Q3709.36 228.365 3711.94 227.688 Q3714.54 227.011 3717.09 225.656 L3717.09 230.188 Q3714.52 231.281 3711.81 231.854 Q3709.1 232.427 3706.31 232.427 Q3699.33 232.427 3695.25 228.365 Q3691.18 224.302 3691.18 217.375 Q3691.18 210.214 3695.04 206.021 Q3698.92 201.802 3705.48 201.802 Q3711.36 201.802 3714.78 205.604 Q3718.21 209.38 3718.21 215.891 M3713.42 214.485 Q3713.37 210.552 3711.21 208.209 Q3709.07 205.865 3705.53 205.865 Q3701.52 205.865 3699.1 208.13 Q3696.7 210.396 3696.34 214.511 L3713.42 214.485 Z" fill="#000000" fill-rule="nonzero" fill-opacity="1" /><path clip-path="url(#clip560)" d="M3745.27 206.933 L3745.27 191.151 L3750.06 191.151 L3750.06 231.672 L3745.27 231.672 L3745.27 227.297 Q3743.76 229.901 3741.44 231.177 Q3739.15 232.427 3735.92 232.427 Q3730.64 232.427 3727.3 228.208 Q3724 223.99 3724 217.115 Q3724 210.24 3727.3 206.021 Q3730.64 201.802 3735.92 201.802 Q3739.15 201.802 3741.44 203.078 Q3743.76 204.328 3745.27 206.933 M3728.94 217.115 Q3728.94 222.401 3731.1 225.422 Q3733.29 228.417 3737.09 228.417 Q3740.9 228.417 3743.08 225.422 Q3745.27 222.401 3745.27 217.115 Q3745.27 211.828 3743.08 208.834 Q3740.9 205.813 3737.09 205.813 Q3733.29 205.813 3731.1 208.834 Q3728.94 211.828 3728.94 217.115 Z" fill="#000000" fill-rule="nonzero" fill-opacity="1" /><path clip-path="url(#clip560)" d="M3759.93 202.505 L3764.72 202.505 L3764.72 231.672 L3759.93 231.672 L3759.93 202.505 M3759.93 191.151 L3764.72 191.151 L3764.72 197.219 L3759.93 197.219 L3759.93 191.151 Z" fill="#000000" fill-rule="nonzero" fill-opacity="1" /><path clip-path="url(#clip560)" d="M3795.74 203.625 L3795.74 208.104 Q3793.71 206.985 3791.65 206.438 Q3789.62 205.865 3787.54 205.865 Q3782.87 205.865 3780.3 208.834 Q3777.72 211.776 3777.72 217.115 Q3777.72 222.453 3780.3 225.422 Q3782.87 228.365 3787.54 228.365 Q3789.62 228.365 3791.65 227.818 Q3793.71 227.245 3795.74 226.125 L3795.74 230.552 Q3793.73 231.49 3791.57 231.958 Q3789.44 232.427 3787.02 232.427 Q3780.43 232.427 3776.55 228.287 Q3772.67 224.146 3772.67 217.115 Q3772.67 209.979 3776.57 205.891 Q3780.51 201.802 3787.33 201.802 Q3789.54 201.802 3791.65 202.271 Q3793.76 202.714 3795.74 203.625 Z" fill="#000000" fill-rule="nonzero" fill-opacity="1" /><path clip-path="url(#clip560)" d="M3808.81 194.224 L3808.81 202.505 L3818.68 202.505 L3818.68 206.229 L3808.81 206.229 L3808.81 222.063 Q3808.81 225.63 3809.78 226.646 Q3810.77 227.662 3813.76 227.662 L3818.68 227.662 L3818.68 231.672 L3813.76 231.672 Q3808.21 231.672 3806.1 229.615 Q3803.99 227.531 3803.99 222.063 L3803.99 206.229 L3800.48 206.229 L3800.48 202.505 L3803.99 202.505 L3803.99 194.224 L3808.81 194.224 Z" fill="#000000" fill-rule="nonzero" fill-opacity="1" /><path clip-path="url(#clip560)" d="M3847.15 240.526 L3847.15 244.25 L3819.44 244.25 L3819.44 240.526 L3847.15 240.526 Z" fill="#000000" fill-rule="nonzero" fill-opacity="1" /><path clip-path="url(#clip560)" d="M3856.86 227.245 L3875.22 227.245 L3875.22 231.672 L3850.53 231.672 L3850.53 227.245 Q3853.53 224.146 3858.68 218.938 Q3863.86 213.703 3865.19 212.193 Q3867.72 209.354 3868.71 207.401 Q3869.72 205.422 3869.72 203.521 Q3869.72 200.422 3867.54 198.469 Q3865.37 196.516 3861.88 196.516 Q3859.41 196.516 3856.65 197.375 Q3853.92 198.235 3850.79 199.979 L3850.79 194.667 Q3853.97 193.391 3856.73 192.74 Q3859.49 192.089 3861.78 192.089 Q3867.82 192.089 3871.42 195.11 Q3875.01 198.13 3875.01 203.183 Q3875.01 205.578 3874.1 207.74 Q3873.21 209.875 3870.84 212.792 Q3870.19 213.547 3866.7 217.167 Q3863.21 220.761 3856.86 227.245 Z" fill="#000000" fill-rule="nonzero" fill-opacity="1" /><path clip-path="url(#clip560)" d="M3898.16 210.136 Q3894.62 210.136 3892.54 212.557 Q3890.48 214.979 3890.48 219.198 Q3890.48 223.391 3892.54 225.839 Q3894.62 228.261 3898.16 228.261 Q3901.7 228.261 3903.76 225.839 Q3905.84 223.391 3905.84 219.198 Q3905.84 214.979 3903.76 212.557 Q3901.7 210.136 3898.16 210.136 M3908.6 193.651 L3908.6 198.443 Q3906.62 197.505 3904.59 197.011 Q3902.59 196.516 3900.61 196.516 Q3895.4 196.516 3892.64 200.031 Q3889.91 203.547 3889.52 210.656 Q3891.05 208.391 3893.37 207.193 Q3895.69 205.969 3898.47 205.969 Q3904.33 205.969 3907.72 209.537 Q3911.13 213.078 3911.13 219.198 Q3911.13 225.188 3907.59 228.807 Q3904.05 232.427 3898.16 232.427 Q3891.42 232.427 3887.85 227.271 Q3884.28 222.089 3884.28 212.271 Q3884.28 203.052 3888.66 197.584 Q3893.03 192.089 3900.4 192.089 Q3902.38 192.089 3904.38 192.479 Q3906.42 192.87 3908.6 193.651 Z" fill="#000000" fill-rule="nonzero" fill-opacity="1" /><polyline clip-path="url(#clip560)" style="stroke:#1ac938; stroke-linecap:round; stroke-linejoin:round; stroke-width:5.625; stroke-opacity:1; fill:none" points="3347.09,270.552 3596.85,270.552 "/>
<path clip-path="url(#clip560)" d="M3643.29 285.617 L3643.29 301.086 L3638.47 301.086 L3638.47 260.825 L3643.29 260.825 L3643.29 265.253 Q3644.8 262.648 3647.09 261.398 Q3649.41 260.122 3652.62 260.122 Q3657.93 260.122 3661.23 264.341 Q3664.57 268.56 3664.57 275.435 Q3664.57 282.31 3661.23 286.528 Q3657.93 290.747 3652.62 290.747 Q3649.41 290.747 3647.09 289.497 Q3644.8 288.221 3643.29 285.617 M3659.59 275.435 Q3659.59 270.148 3657.41 267.154 Q3655.25 264.133 3651.44 264.133 Q3647.64 264.133 3645.45 267.154 Q3643.29 270.148 3643.29 275.435 Q3643.29 280.721 3645.45 283.742 Q3647.64 286.737 3651.44 286.737 Q3655.25 286.737 3657.41 283.742 Q3659.59 280.721 3659.59 275.435 Z" fill="#000000" fill-rule="nonzero" fill-opacity="1" /><path clip-path="url(#clip560)" d="M3689.41 265.305 Q3688.6 264.836 3687.64 264.628 Q3686.7 264.393 3685.56 264.393 Q3681.5 264.393 3679.31 267.049 Q3677.15 269.68 3677.15 274.627 L3677.15 289.992 L3672.33 289.992 L3672.33 260.825 L3677.15 260.825 L3677.15 265.357 Q3678.66 262.7 3681.08 261.424 Q3683.5 260.122 3686.96 260.122 Q3687.46 260.122 3688.06 260.2 Q3688.66 260.253 3689.39 260.383 L3689.41 265.305 Z" fill="#000000" fill-rule="nonzero" fill-opacity="1" /><path clip-path="url(#clip560)" d="M3718.21 274.211 L3718.21 276.555 L3696.18 276.555 Q3696.5 281.502 3699.15 284.107 Q3701.83 286.685 3706.6 286.685 Q3709.36 286.685 3711.94 286.008 Q3714.54 285.331 3717.09 283.976 L3717.09 288.508 Q3714.52 289.601 3711.81 290.174 Q3709.1 290.747 3706.31 290.747 Q3699.33 290.747 3695.25 286.685 Q3691.18 282.622 3691.18 275.695 Q3691.18 268.534 3695.04 264.341 Q3698.92 260.122 3705.48 260.122 Q3711.36 260.122 3714.78 263.924 Q3718.21 267.7 3718.21 274.211 M3713.42 272.805 Q3713.37 268.872 3711.21 266.529 Q3709.07 264.185 3705.53 264.185 Q3701.52 264.185 3699.1 266.45 Q3696.7 268.716 3696.34 272.831 L3713.42 272.805 Z" fill="#000000" fill-rule="nonzero" fill-opacity="1" /><path clip-path="url(#clip560)" d="M3745.27 265.253 L3745.27 249.471 L3750.06 249.471 L3750.06 289.992 L3745.27 289.992 L3745.27 285.617 Q3743.76 288.221 3741.44 289.497 Q3739.15 290.747 3735.92 290.747 Q3730.64 290.747 3727.3 286.528 Q3724 282.31 3724 275.435 Q3724 268.56 3727.3 264.341 Q3730.64 260.122 3735.92 260.122 Q3739.15 260.122 3741.44 261.398 Q3743.76 262.648 3745.27 265.253 M3728.94 275.435 Q3728.94 280.721 3731.1 283.742 Q3733.29 286.737 3737.09 286.737 Q3740.9 286.737 3743.08 283.742 Q3745.27 280.721 3745.27 275.435 Q3745.27 270.148 3743.08 267.154 Q3740.9 264.133 3737.09 264.133 Q3733.29 264.133 3731.1 267.154 Q3728.94 270.148 3728.94 275.435 Z" fill="#000000" fill-rule="nonzero" fill-opacity="1" /><path clip-path="url(#clip560)" d="M3759.93 260.825 L3764.72 260.825 L3764.72 289.992 L3759.93 289.992 L3759.93 260.825 M3759.93 249.471 L3764.72 249.471 L3764.72 255.539 L3759.93 255.539 L3759.93 249.471 Z" fill="#000000" fill-rule="nonzero" fill-opacity="1" /><path clip-path="url(#clip560)" d="M3795.74 261.945 L3795.74 266.424 Q3793.71 265.305 3791.65 264.758 Q3789.62 264.185 3787.54 264.185 Q3782.87 264.185 3780.3 267.154 Q3777.72 270.096 3777.72 275.435 Q3777.72 280.773 3780.3 283.742 Q3782.87 286.685 3787.54 286.685 Q3789.62 286.685 3791.65 286.138 Q3793.71 285.565 3795.74 284.445 L3795.74 288.872 Q3793.73 289.81 3791.57 290.278 Q3789.44 290.747 3787.02 290.747 Q3780.43 290.747 3776.55 286.607 Q3772.67 282.466 3772.67 275.435 Q3772.67 268.299 3776.57 264.211 Q3780.51 260.122 3787.33 260.122 Q3789.54 260.122 3791.65 260.591 Q3793.76 261.034 3795.74 261.945 Z" fill="#000000" fill-rule="nonzero" fill-opacity="1" /><path clip-path="url(#clip560)" d="M3808.81 252.544 L3808.81 260.825 L3818.68 260.825 L3818.68 264.549 L3808.81 264.549 L3808.81 280.383 Q3808.81 283.95 3809.78 284.966 Q3810.77 285.982 3813.76 285.982 L3818.68 285.982 L3818.68 289.992 L3813.76 289.992 Q3808.21 289.992 3806.1 287.935 Q3803.99 285.851 3803.99 280.383 L3803.99 264.549 L3800.48 264.549 L3800.48 260.825 L3803.99 260.825 L3803.99 252.544 L3808.81 252.544 Z" fill="#000000" fill-rule="nonzero" fill-opacity="1" /><path clip-path="url(#clip560)" d="M3847.15 298.846 L3847.15 302.57 L3819.44 302.57 L3819.44 298.846 L3847.15 298.846 Z" fill="#000000" fill-rule="nonzero" fill-opacity="1" /><path clip-path="url(#clip560)" d="M3866.78 255.695 L3853.5 276.45 L3866.78 276.45 L3866.78 255.695 M3865.4 251.112 L3872.02 251.112 L3872.02 276.45 L3877.56 276.45 L3877.56 280.825 L3872.02 280.825 L3872.02 289.992 L3866.78 289.992 L3866.78 280.825 L3849.23 280.825 L3849.23 275.747 L3865.4 251.112 Z" fill="#000000" fill-rule="nonzero" fill-opacity="1" /><polyline clip-path="url(#clip560)" style="stroke:#e8000b; stroke-linecap:round; stroke-linejoin:round; stroke-width:5.625; stroke-opacity:1; fill:none" points="3347.09,328.872 3596.85,328.872 "/>
<path clip-path="url(#clip560)" d="M3643.29 343.937 L3643.29 359.406 L3638.47 359.406 L3638.47 319.145 L3643.29 319.145 L3643.29 323.573 Q3644.8 320.968 3647.09 319.718 Q3649.41 318.442 3652.62 318.442 Q3657.93 318.442 3661.23 322.661 Q3664.57 326.88 3664.57 333.755 Q3664.57 340.63 3661.23 344.848 Q3657.93 349.067 3652.62 349.067 Q3649.41 349.067 3647.09 347.817 Q3644.8 346.541 3643.29 343.937 M3659.59 333.755 Q3659.59 328.468 3657.41 325.474 Q3655.25 322.453 3651.44 322.453 Q3647.64 322.453 3645.45 325.474 Q3643.29 328.468 3643.29 333.755 Q3643.29 339.041 3645.45 342.062 Q3647.64 345.057 3651.44 345.057 Q3655.25 345.057 3657.41 342.062 Q3659.59 339.041 3659.59 333.755 Z" fill="#000000" fill-rule="nonzero" fill-opacity="1" /><path clip-path="url(#clip560)" d="M3689.41 323.625 Q3688.6 323.156 3687.64 322.948 Q3686.7 322.713 3685.56 322.713 Q3681.5 322.713 3679.31 325.369 Q3677.15 328 3677.15 332.947 L3677.15 348.312 L3672.33 348.312 L3672.33 319.145 L3677.15 319.145 L3677.15 323.677 Q3678.66 321.02 3681.08 319.744 Q3683.5 318.442 3686.96 318.442 Q3687.46 318.442 3688.06 318.52 Q3688.66 318.573 3689.39 318.703 L3689.41 323.625 Z" fill="#000000" fill-rule="nonzero" fill-opacity="1" /><path clip-path="url(#clip560)" d="M3718.21 332.531 L3718.21 334.875 L3696.18 334.875 Q3696.5 339.822 3699.15 342.427 Q3701.83 345.005 3706.6 345.005 Q3709.36 345.005 3711.94 344.328 Q3714.54 343.651 3717.09 342.296 L3717.09 346.828 Q3714.52 347.921 3711.81 348.494 Q3709.1 349.067 3706.31 349.067 Q3699.33 349.067 3695.25 345.005 Q3691.18 340.942 3691.18 334.015 Q3691.18 326.854 3695.04 322.661 Q3698.92 318.442 3705.48 318.442 Q3711.36 318.442 3714.78 322.244 Q3718.21 326.02 3718.21 332.531 M3713.42 331.125 Q3713.37 327.192 3711.21 324.849 Q3709.07 322.505 3705.53 322.505 Q3701.52 322.505 3699.1 324.77 Q3696.7 327.036 3696.34 331.151 L3713.42 331.125 Z" fill="#000000" fill-rule="nonzero" fill-opacity="1" /><path clip-path="url(#clip560)" d="M3745.27 323.573 L3745.27 307.791 L3750.06 307.791 L3750.06 348.312 L3745.27 348.312 L3745.27 343.937 Q3743.76 346.541 3741.44 347.817 Q3739.15 349.067 3735.92 349.067 Q3730.64 349.067 3727.3 344.848 Q3724 340.63 3724 333.755 Q3724 326.88 3727.3 322.661 Q3730.64 318.442 3735.92 318.442 Q3739.15 318.442 3741.44 319.718 Q3743.76 320.968 3745.27 323.573 M3728.94 333.755 Q3728.94 339.041 3731.1 342.062 Q3733.29 345.057 3737.09 345.057 Q3740.9 345.057 3743.08 342.062 Q3745.27 339.041 3745.27 333.755 Q3745.27 328.468 3743.08 325.474 Q3740.9 322.453 3737.09 322.453 Q3733.29 322.453 3731.1 325.474 Q3728.94 328.468 3728.94 333.755 Z" fill="#000000" fill-rule="nonzero" fill-opacity="1" /><path clip-path="url(#clip560)" d="M3759.93 319.145 L3764.72 319.145 L3764.72 348.312 L3759.93 348.312 L3759.93 319.145 M3759.93 307.791 L3764.72 307.791 L3764.72 313.859 L3759.93 313.859 L3759.93 307.791 Z" fill="#000000" fill-rule="nonzero" fill-opacity="1" /><path clip-path="url(#clip560)" d="M3795.74 320.265 L3795.74 324.744 Q3793.71 323.625 3791.65 323.078 Q3789.62 322.505 3787.54 322.505 Q3782.87 322.505 3780.3 325.474 Q3777.72 328.416 3777.72 333.755 Q3777.72 339.093 3780.3 342.062 Q3782.87 345.005 3787.54 345.005 Q3789.62 345.005 3791.65 344.458 Q3793.71 343.885 3795.74 342.765 L3795.74 347.192 Q3793.73 348.13 3791.57 348.598 Q3789.44 349.067 3787.02 349.067 Q3780.43 349.067 3776.55 344.927 Q3772.67 340.786 3772.67 333.755 Q3772.67 326.619 3776.57 322.531 Q3780.51 318.442 3787.33 318.442 Q3789.54 318.442 3791.65 318.911 Q3793.76 319.354 3795.74 320.265 Z" fill="#000000" fill-rule="nonzero" fill-opacity="1" /><path clip-path="url(#clip560)" d="M3808.81 310.864 L3808.81 319.145 L3818.68 319.145 L3818.68 322.869 L3808.81 322.869 L3808.81 338.703 Q3808.81 342.27 3809.78 343.286 Q3810.77 344.302 3813.76 344.302 L3818.68 344.302 L3818.68 348.312 L3813.76 348.312 Q3808.21 348.312 3806.1 346.255 Q3803.99 344.171 3803.99 338.703 L3803.99 322.869 L3800.48 322.869 L3800.48 319.145 L3803.99 319.145 L3803.99 310.864 L3808.81 310.864 Z" fill="#000000" fill-rule="nonzero" fill-opacity="1" /><path clip-path="url(#clip560)" d="M3847.15 357.166 L3847.15 360.89 L3819.44 360.89 L3819.44 357.166 L3847.15 357.166 Z" fill="#000000" fill-rule="nonzero" fill-opacity="1" /><path clip-path="url(#clip560)" d="M3853.24 343.885 L3861.83 343.885 L3861.83 314.224 L3852.48 316.099 L3852.48 311.307 L3861.78 309.432 L3867.04 309.432 L3867.04 343.885 L3875.63 343.885 L3875.63 348.312 L3853.24 348.312 L3853.24 343.885 Z" fill="#000000" fill-rule="nonzero" fill-opacity="1" /><polyline clip-path="url(#clip560)" style="stroke:#000000; stroke-linecap:round; stroke-linejoin:round; stroke-width:6.75; stroke-opacity:1; fill:none" points="3347.09,387.192 3596.85,387.192 "/>
<path clip-path="url(#clip560)" d="M3653.55 391.971 Q3647.75 391.971 3645.51 393.299 Q3643.27 394.627 3643.27 397.83 Q3643.27 400.382 3644.93 401.892 Q3646.63 403.377 3649.52 403.377 Q3653.5 403.377 3655.9 400.564 Q3658.32 397.726 3658.32 393.038 L3658.32 391.971 L3653.55 391.971 M3663.11 389.991 L3663.11 406.632 L3658.32 406.632 L3658.32 402.205 Q3656.68 404.861 3654.23 406.137 Q3651.78 407.387 3648.24 407.387 Q3643.76 407.387 3641.1 404.887 Q3638.47 402.361 3638.47 398.142 Q3638.47 393.221 3641.76 390.721 Q3645.06 388.221 3651.6 388.221 L3658.32 388.221 L3658.32 387.752 Q3658.32 384.445 3656.13 382.648 Q3653.97 380.825 3650.04 380.825 Q3647.54 380.825 3645.17 381.424 Q3642.8 382.023 3640.61 383.221 L3640.61 378.794 Q3643.24 377.778 3645.71 377.283 Q3648.19 376.762 3650.53 376.762 Q3656.86 376.762 3659.99 380.044 Q3663.11 383.325 3663.11 389.991 Z" fill="#000000" fill-rule="nonzero" fill-opacity="1" /><path clip-path="url(#clip560)" d="M3693.97 378.585 L3693.97 383.064 Q3691.94 381.945 3689.88 381.398 Q3687.85 380.825 3685.77 380.825 Q3681.1 380.825 3678.53 383.794 Q3675.95 386.736 3675.95 392.075 Q3675.95 397.413 3678.53 400.382 Q3681.1 403.325 3685.77 403.325 Q3687.85 403.325 3689.88 402.778 Q3691.94 402.205 3693.97 401.085 L3693.97 405.512 Q3691.96 406.45 3689.8 406.918 Q3687.67 407.387 3685.25 407.387 Q3678.66 407.387 3674.78 403.247 Q3670.9 399.106 3670.9 392.075 Q3670.9 384.939 3674.8 380.851 Q3678.73 376.762 3685.56 376.762 Q3687.77 376.762 3689.88 377.231 Q3691.99 377.674 3693.97 378.585 Z" fill="#000000" fill-rule="nonzero" fill-opacity="1" /><path clip-path="url(#clip560)" d="M3707.04 369.184 L3707.04 377.465 L3716.91 377.465 L3716.91 381.189 L3707.04 381.189 L3707.04 397.023 Q3707.04 400.59 3708.01 401.606 Q3709 402.622 3711.99 402.622 L3716.91 402.622 L3716.91 406.632 L3711.99 406.632 Q3706.44 406.632 3704.33 404.575 Q3702.22 402.491 3702.22 397.023 L3702.22 381.189 L3698.71 381.189 L3698.71 377.465 L3702.22 377.465 L3702.22 369.184 L3707.04 369.184 Z" fill="#000000" fill-rule="nonzero" fill-opacity="1" /><path clip-path="url(#clip560)" d="M3722.72 395.122 L3722.72 377.465 L3727.51 377.465 L3727.51 394.939 Q3727.51 399.08 3729.13 401.163 Q3730.74 403.221 3733.97 403.221 Q3737.85 403.221 3740.09 400.747 Q3742.35 398.273 3742.35 394.002 L3742.35 377.465 L3747.15 377.465 L3747.15 406.632 L3742.35 406.632 L3742.35 402.153 Q3740.61 404.809 3738.29 406.111 Q3736 407.387 3732.95 407.387 Q3727.93 407.387 3725.32 404.262 Q3722.72 401.137 3722.72 395.122 M3734.78 376.762 L3734.78 376.762 Z" fill="#000000" fill-rule="nonzero" fill-opacity="1" /><path clip-path="url(#clip560)" d="M3770.27 391.971 Q3764.46 391.971 3762.22 393.299 Q3759.98 394.627 3759.98 397.83 Q3759.98 400.382 3761.65 401.892 Q3763.34 403.377 3766.23 403.377 Q3770.22 403.377 3772.61 400.564 Q3775.04 397.726 3775.04 393.038 L3775.04 391.971 L3770.27 391.971 M3779.83 389.991 L3779.83 406.632 L3775.04 406.632 L3775.04 402.205 Q3773.4 404.861 3770.95 406.137 Q3768.5 407.387 3764.96 407.387 Q3760.48 407.387 3757.82 404.887 Q3755.19 402.361 3755.19 398.142 Q3755.19 393.221 3758.47 390.721 Q3761.78 388.221 3768.32 388.221 L3775.04 388.221 L3775.04 387.752 Q3775.04 384.445 3772.85 382.648 Q3770.69 380.825 3766.76 380.825 Q3764.26 380.825 3761.89 381.424 Q3759.52 382.023 3757.33 383.221 L3757.33 378.794 Q3759.96 377.778 3762.43 377.283 Q3764.91 376.762 3767.25 376.762 Q3773.58 376.762 3776.7 380.044 Q3779.83 383.325 3779.83 389.991 Z" fill="#000000" fill-rule="nonzero" fill-opacity="1" /><path clip-path="url(#clip560)" d="M3789.7 366.111 L3794.49 366.111 L3794.49 406.632 L3789.7 406.632 L3789.7 366.111 Z" fill="#000000" fill-rule="nonzero" fill-opacity="1" /></svg>
