<?xml version="1.0" encoding="UTF-8" standalone="no"?>
<!DOCTYPE svg PUBLIC "-//W3C//DTD SVG 1.1//EN"
 "http://www.w3.org/Graphics/SVG/1.1/DTD/svg11.dtd">
<!-- Generated by graphviz version 2.50.0 (20211204.2007)
 -->
<!-- Pages: 1 -->
<svg width="377pt" height="434pt"
 viewBox="0.00 0.00 377.00 434.00" xmlns="http://www.w3.org/2000/svg" xmlns:xlink="http://www.w3.org/1999/xlink">
<g id="graph0" class="graph" transform="scale(1 1) rotate(0) translate(4 430)">
<polygon fill="white" stroke="transparent" points="-4,4 -4,-430 373,-430 373,4 -4,4"/>
<!-- 1 -->
<g id="node1" class="node">
<title>1</title>
<text text-anchor="start" x="221" y="-407.8" font-family="Arial" font-weight="bold" font-size="14.00"> </text>
<path fill="#ebebeb" stroke="transparent" d="M181,-335C181,-335 265,-335 265,-335 271,-335 277,-341 277,-347 277,-347 277,-387 277,-387 277,-393 271,-399 265,-399 265,-399 181,-399 181,-399 175,-399 169,-393 169,-387 169,-387 169,-347 169,-347 169,-341 175,-335 181,-335"/>
<text text-anchor="start" x="170" y="-396.4" font-family="Arial" font-size="2.00"> </text>
<text text-anchor="start" x="170" y="-390.4" font-family="Arial" font-size="7.00"> &#160;1</text>
<text text-anchor="start" x="184" y="-373.8" font-family="Arial" font-weight="bold" font-size="14.00">Mean: 10.92</text>
<text text-anchor="start" x="199.5" y="-356.8" font-family="Arial" font-weight="bold" font-size="14.00">n = 168</text>
<text text-anchor="start" x="221.5" y="-338.8" font-family="Arial" font-size="9.00"> </text>
<path fill="none" stroke="#333333" d="M181,-335C181,-335 265,-335 265,-335 271,-335 277,-341 277,-347 277,-347 277,-387 277,-387 277,-393 271,-399 265,-399 265,-399 181,-399 181,-399 175,-399 169,-393 169,-387 169,-387 169,-347 169,-347 169,-341 175,-335 181,-335"/>
<text text-anchor="start" x="208.5" y="-320.8" font-family="Arial" font-weight="bold" font-size="14.00">time</text>
</g>
<!-- 2 -->
<g id="node2" class="node">
<title>2</title>
<text text-anchor="start" x="125.5" y="-253.8" font-family="Arial" font-weight="bold" font-size="14.00"> &lt; 21.5</text>
<path fill="#ebebeb" stroke="transparent" d="M105,-181C105,-181 189,-181 189,-181 195,-181 201,-187 201,-193 201,-193 201,-233 201,-233 201,-239 195,-245 189,-245 189,-245 105,-245 105,-245 99,-245 93,-239 93,-233 93,-233 93,-193 93,-193 93,-187 99,-181 105,-181"/>
<text text-anchor="start" x="94" y="-242.4" font-family="Arial" font-size="2.00"> </text>
<text text-anchor="start" x="94" y="-236.4" font-family="Arial" font-size="7.00"> &#160;2</text>
<text text-anchor="start" x="108" y="-219.8" font-family="Arial" font-weight="bold" font-size="14.00">Mean: 10.97</text>
<text text-anchor="start" x="123.5" y="-202.8" font-family="Arial" font-weight="bold" font-size="14.00">n = 154</text>
<text text-anchor="start" x="145.5" y="-184.8" font-family="Arial" font-size="9.00"> </text>
<path fill="none" stroke="#333333" d="M105,-181C105,-181 189,-181 189,-181 195,-181 201,-187 201,-193 201,-193 201,-233 201,-233 201,-239 195,-245 189,-245 189,-245 105,-245 105,-245 99,-245 93,-239 93,-233 93,-233 93,-193 93,-193 93,-187 99,-181 105,-181"/>
<text text-anchor="start" x="132.5" y="-166.8" font-family="Arial" font-weight="bold" font-size="14.00">time</text>
</g>
<!-- 1&#45;&gt;2 -->
<g id="edge1" class="edge">
<title>1&#45;&gt;2</title>
<path fill="none" stroke="#888888" d="M193.83,-307.67C189.52,-299.03 185.04,-290.07 180.64,-281.27"/>
<polygon fill="#888888" stroke="#888888" points="183.69,-279.56 176.09,-272.18 177.43,-282.69 183.69,-279.56"/>
</g>
<!-- 5 -->
<g id="node3" class="node">
<title>5</title>
<text text-anchor="start" x="279" y="-253.8" font-family="Arial" font-weight="bold" font-size="14.00"> ≥ 21.5</text>
<path fill="#f8766d" fill-opacity="0.654902" stroke="transparent" d="M255,-181C255,-181 345,-181 345,-181 351,-181 357,-187 357,-193 357,-193 357,-233 357,-233 357,-239 351,-245 345,-245 345,-245 255,-245 255,-245 249,-245 243,-239 243,-233 243,-233 243,-193 243,-193 243,-187 249,-181 255,-181"/>
<text text-anchor="start" x="244" y="-242.4" font-family="Arial" font-size="2.00"> </text>
<text text-anchor="start" x="244" y="-236.4" font-family="Arial" font-size="7.00"> &#160;5</text>
<text text-anchor="start" x="258" y="-219.8" font-family="Arial" font-weight="bold" font-size="14.00">Predict 10.43</text>
<text text-anchor="start" x="280" y="-202.8" font-family="Arial" font-weight="bold" font-size="14.00">n = 14</text>
<text text-anchor="start" x="298.5" y="-184.8" font-family="Arial" font-size="9.00"> </text>
<path fill="none" stroke="#333333" d="M255,-181C255,-181 345,-181 345,-181 351,-181 357,-187 357,-193 357,-193 357,-233 357,-233 357,-239 351,-245 345,-245 345,-245 255,-245 255,-245 249,-245 243,-239 243,-233 243,-233 243,-193 243,-193 243,-187 249,-181 255,-181"/>
<text text-anchor="start" x="298" y="-166.8" font-family="Arial" font-weight="bold" font-size="14.00"> </text>
</g>
<!-- 1&#45;&gt;5 -->
<g id="edge2" class="edge">
<title>1&#45;&gt;5</title>
<path fill="none" stroke="#888888" d="M252.55,-307.67C256.93,-299.03 261.46,-290.07 265.92,-281.27"/>
<polygon fill="#888888" stroke="#888888" points="269.13,-282.68 270.53,-272.18 262.89,-279.52 269.13,-282.68"/>
</g>
<!-- 3 -->
<g id="node4" class="node">
<title>3</title>
<text text-anchor="start" x="51.5" y="-99.8" font-family="Arial" font-weight="bold" font-size="14.00"> &lt; 6.5</text>
<path fill="#f8766d" fill-opacity="0.874510" stroke="transparent" d="M24,-27C24,-27 114,-27 114,-27 120,-27 126,-33 126,-39 126,-39 126,-79 126,-79 126,-85 120,-91 114,-91 114,-91 24,-91 24,-91 18,-91 12,-85 12,-79 12,-79 12,-39 12,-39 12,-33 18,-27 24,-27"/>
<text text-anchor="start" x="13" y="-88.4" font-family="Arial" font-size="2.00"> </text>
<text text-anchor="start" x="13" y="-82.4" font-family="Arial" font-size="7.00"> &#160;3</text>
<text text-anchor="start" x="27" y="-65.8" font-family="Arial" font-weight="bold" font-size="14.00">Predict 9.416</text>
<text text-anchor="start" x="49" y="-48.8" font-family="Arial" font-weight="bold" font-size="14.00">n = 49</text>
<text text-anchor="start" x="67.5" y="-30.8" font-family="Arial" font-size="9.00"> </text>
<path fill="none" stroke="#333333" d="M24,-27C24,-27 114,-27 114,-27 120,-27 126,-33 126,-39 126,-39 126,-79 126,-79 126,-85 120,-91 114,-91 114,-91 24,-91 24,-91 18,-91 12,-85 12,-79 12,-79 12,-39 12,-39 12,-33 18,-27 24,-27"/>
<text text-anchor="start" x="67" y="-12.8" font-family="Arial" font-weight="bold" font-size="14.00"> </text>
</g>
<!-- 2&#45;&gt;3 -->
<g id="edge3" class="edge">
<title>2&#45;&gt;3</title>
<path fill="none" stroke="#888888" d="M117.07,-153.67C112.63,-145.03 108.04,-136.07 103.52,-127.27"/>
<polygon fill="#888888" stroke="#888888" points="106.53,-125.48 98.85,-118.18 100.31,-128.67 106.53,-125.48"/>
</g>
<!-- 4 -->
<g id="node5" class="node">
<title>4</title>
<text text-anchor="start" x="208.5" y="-99.8" font-family="Arial" font-weight="bold" font-size="14.00"> ≥ 6.5</text>
<path fill="#f8766d" fill-opacity="0.376471" stroke="transparent" d="M181,-27C181,-27 270,-27 270,-27 276,-27 282,-33 282,-39 282,-39 282,-79 282,-79 282,-85 276,-91 270,-91 270,-91 181,-91 181,-91 175,-91 169,-85 169,-79 169,-79 169,-39 169,-39 169,-33 175,-27 181,-27"/>
<text text-anchor="start" x="170" y="-88.4" font-family="Arial" font-size="2.00"> </text>
<text text-anchor="start" x="170" y="-82.4" font-family="Arial" font-size="7.00"> &#160;4</text>
<text text-anchor="start" x="184" y="-65.8" font-family="Arial" font-weight="bold" font-size="14.00">Predict 11.69</text>
<text text-anchor="start" x="202" y="-48.8" font-family="Arial" font-weight="bold" font-size="14.00">n = 105</text>
<text text-anchor="start" x="224" y="-30.8" font-family="Arial" font-size="9.00"> </text>
<path fill="none" stroke="#333333" d="M181,-27C181,-27 270,-27 270,-27 276,-27 282,-33 282,-39 282,-39 282,-79 282,-79 282,-85 276,-91 270,-91 270,-91 181,-91 181,-91 175,-91 169,-85 169,-79 169,-79 169,-39 169,-39 169,-33 175,-27 181,-27"/>
<text text-anchor="start" x="223.5" y="-12.8" font-family="Arial" font-weight="bold" font-size="14.00"> </text>
</g>
<!-- 2&#45;&gt;4 -->
<g id="edge4" class="edge">
<title>2&#45;&gt;4</title>
<path fill="none" stroke="#888888" d="M176.93,-153.67C181.37,-145.03 185.96,-136.07 190.48,-127.27"/>
<polygon fill="#888888" stroke="#888888" points="193.69,-128.67 195.15,-118.18 187.47,-125.48 193.69,-128.67"/>
</g>
</g>
</svg>
