<?xml version="1.0" encoding="UTF-8" standalone="no"?>
<!DOCTYPE svg PUBLIC "-//W3C//DTD SVG 1.1//EN"
 "http://www.w3.org/Graphics/SVG/1.1/DTD/svg11.dtd">
<!-- Generated by graphviz version 2.50.0 (20211204.2007)
 -->
<!-- Pages: 1 -->
<svg width="1222pt" height="588pt"
 viewBox="0.00 0.00 1222.00 588.00" xmlns="http://www.w3.org/2000/svg" xmlns:xlink="http://www.w3.org/1999/xlink">
<g id="graph0" class="graph" transform="scale(1 1) rotate(0) translate(4 584)">
<polygon fill="white" stroke="transparent" points="-4,4 -4,-584 1218,-584 1218,4 -4,4"/>
<!-- 1 -->
<g id="node1" class="node">
<title>1</title>
<text text-anchor="start" x="580" y="-561.8" font-family="Arial" font-weight="bold" font-size="14.00"> </text>
<text text-anchor="start" x="514" y="-517.3" font-family="Arial" font-size="14.00"> &#160;&#160;&#160;</text>
<path fill="#ebebeb" stroke="transparent" d="M544,-489C544,-489 620,-489 620,-489 626,-489 632,-495 632,-501 632,-501 632,-541 632,-541 632,-547 626,-553 620,-553 620,-553 544,-553 544,-553 538,-553 532,-547 532,-541 532,-541 532,-501 532,-501 532,-495 538,-489 544,-489"/>
<text text-anchor="start" x="533" y="-550.4" font-family="Arial" font-size="2.00"> </text>
<text text-anchor="start" x="533" y="-544.4" font-family="Arial" font-size="7.00"> &#160;1</text>
<text text-anchor="start" x="547" y="-527.8" font-family="Arial" font-weight="bold" font-size="14.00">Mean: 25.9</text>
<text text-anchor="start" x="558.5" y="-510.8" font-family="Arial" font-weight="bold" font-size="14.00">n = 168</text>
<text text-anchor="start" x="580.5" y="-492.8" font-family="Arial" font-size="9.00"> </text>
<path fill="none" stroke="#333333" d="M544,-489C544,-489 620,-489 620,-489 626,-489 632,-495 632,-501 632,-501 632,-541 632,-541 632,-547 626,-553 620,-553 620,-553 544,-553 544,-553 538,-553 532,-547 532,-541 532,-541 532,-501 532,-501 532,-495 538,-489 544,-489"/>
<text text-anchor="start" x="634" y="-517.3" font-family="Arial" font-size="14.00"> &#160;&#160;&#160;</text>
<text text-anchor="start" x="524.5" y="-474.8" font-family="Arial" font-weight="bold" font-size="14.00">prev_168h_inflow</text>
</g>
<!-- 2 -->
<g id="node2" class="node">
<title>2</title>
<text text-anchor="start" x="469.5" y="-407.8" font-family="Arial" font-weight="bold" font-size="14.00"> &lt; 25.7</text>
<text text-anchor="start" x="419" y="-363.3" font-family="Arial" font-size="14.00"> &#160;&#160;&#160;</text>
<path fill="#ebebeb" stroke="transparent" d="M449,-335C449,-335 533,-335 533,-335 539,-335 545,-341 545,-347 545,-347 545,-387 545,-387 545,-393 539,-399 533,-399 533,-399 449,-399 449,-399 443,-399 437,-393 437,-387 437,-387 437,-347 437,-347 437,-341 443,-335 449,-335"/>
<text text-anchor="start" x="438" y="-396.4" font-family="Arial" font-size="2.00"> </text>
<text text-anchor="start" x="438" y="-390.4" font-family="Arial" font-size="7.00"> &#160;2</text>
<text text-anchor="start" x="452" y="-373.8" font-family="Arial" font-weight="bold" font-size="14.00">Mean: 22.44</text>
<text text-anchor="start" x="471" y="-356.8" font-family="Arial" font-weight="bold" font-size="14.00">n = 81</text>
<text text-anchor="start" x="489.5" y="-338.8" font-family="Arial" font-size="9.00"> </text>
<path fill="none" stroke="#333333" d="M449,-335C449,-335 533,-335 533,-335 539,-335 545,-341 545,-347 545,-347 545,-387 545,-387 545,-393 539,-399 533,-399 533,-399 449,-399 449,-399 443,-399 437,-393 437,-387 437,-387 437,-347 437,-347 437,-341 443,-335 449,-335"/>
<text text-anchor="start" x="547" y="-363.3" font-family="Arial" font-size="14.00"> &#160;&#160;&#160;</text>
<text text-anchor="start" x="433.5" y="-320.8" font-family="Arial" font-weight="bold" font-size="14.00">prev_168h_inflow</text>
</g>
<!-- 1&#45;&gt;2 -->
<g id="edge1" class="edge">
<title>1&#45;&gt;2</title>
<path fill="none" stroke="#888888" d="M547.08,-461.67C541.85,-452.94 536.43,-443.88 531.11,-434.99"/>
<polygon fill="#888888" stroke="#888888" points="533.97,-432.96 525.83,-426.18 527.96,-436.55 533.97,-432.96"/>
</g>
<!-- 9 -->
<g id="node3" class="node">
<title>9</title>
<text text-anchor="start" x="702" y="-407.8" font-family="Arial" font-weight="bold" font-size="14.00"> ≥ 25.7</text>
<text text-anchor="start" x="651" y="-363.3" font-family="Arial" font-size="14.00"> &#160;&#160;&#160;</text>
<path fill="#ebebeb" stroke="transparent" d="M681,-335C681,-335 765,-335 765,-335 771,-335 777,-341 777,-347 777,-347 777,-387 777,-387 777,-393 771,-399 765,-399 765,-399 681,-399 681,-399 675,-399 669,-393 669,-387 669,-387 669,-347 669,-347 669,-341 675,-335 681,-335"/>
<text text-anchor="start" x="670" y="-396.4" font-family="Arial" font-size="2.00"> </text>
<text text-anchor="start" x="670" y="-390.4" font-family="Arial" font-size="7.00"> &#160;9</text>
<text text-anchor="start" x="684" y="-373.8" font-family="Arial" font-weight="bold" font-size="14.00">Mean: 29.12</text>
<text text-anchor="start" x="703" y="-356.8" font-family="Arial" font-weight="bold" font-size="14.00">n = 87</text>
<text text-anchor="start" x="721.5" y="-338.8" font-family="Arial" font-size="9.00"> </text>
<path fill="none" stroke="#333333" d="M681,-335C681,-335 765,-335 765,-335 771,-335 777,-341 777,-347 777,-347 777,-387 777,-387 777,-393 771,-399 765,-399 765,-399 681,-399 681,-399 675,-399 669,-393 669,-387 669,-387 669,-347 669,-347 669,-341 675,-335 681,-335"/>
<text text-anchor="start" x="779" y="-363.3" font-family="Arial" font-size="14.00"> &#160;&#160;&#160;</text>
<text text-anchor="start" x="665.5" y="-320.8" font-family="Arial" font-weight="bold" font-size="14.00">prev_168h_inflow</text>
</g>
<!-- 1&#45;&gt;9 -->
<g id="edge2" class="edge">
<title>1&#45;&gt;9</title>
<path fill="none" stroke="#888888" d="M636.11,-461.67C644.63,-452.49 653.48,-442.94 662.14,-433.6"/>
<polygon fill="#888888" stroke="#888888" points="664.8,-435.89 669.03,-426.18 659.67,-431.13 664.8,-435.89"/>
</g>
<!-- 3 -->
<g id="node4" class="node">
<title>3</title>
<text text-anchor="start" x="200" y="-253.8" font-family="Arial" font-weight="bold" font-size="14.00"> &lt; 22.07</text>
<text text-anchor="start" x="157" y="-209.3" font-family="Arial" font-size="14.00"> &#160;&#160;</text>
<path fill="#ebebeb" stroke="transparent" d="M183,-181C183,-181 267,-181 267,-181 273,-181 279,-187 279,-193 279,-193 279,-233 279,-233 279,-239 273,-245 267,-245 267,-245 183,-245 183,-245 177,-245 171,-239 171,-233 171,-233 171,-193 171,-193 171,-187 177,-181 183,-181"/>
<text text-anchor="start" x="172" y="-242.4" font-family="Arial" font-size="2.00"> </text>
<text text-anchor="start" x="172" y="-236.4" font-family="Arial" font-size="7.00"> &#160;3</text>
<text text-anchor="start" x="186" y="-219.8" font-family="Arial" font-weight="bold" font-size="14.00">Mean: 19.99</text>
<text text-anchor="start" x="205" y="-202.8" font-family="Arial" font-weight="bold" font-size="14.00">n = 43</text>
<text text-anchor="start" x="223.5" y="-184.8" font-family="Arial" font-size="9.00"> </text>
<path fill="none" stroke="#333333" d="M183,-181C183,-181 267,-181 267,-181 273,-181 279,-187 279,-193 279,-193 279,-233 279,-233 279,-239 273,-245 267,-245 267,-245 183,-245 183,-245 177,-245 171,-239 171,-233 171,-233 171,-193 171,-193 171,-187 177,-181 183,-181"/>
<text text-anchor="start" x="281" y="-209.3" font-family="Arial" font-size="14.00"> &#160;&#160;</text>
<text text-anchor="start" x="171.5" y="-166.8" font-family="Arial" font-weight="bold" font-size="14.00">prev_24h_inflow</text>
</g>
<!-- 2&#45;&gt;3 -->
<g id="edge3" class="edge">
<title>2&#45;&gt;3</title>
<path fill="none" stroke="#888888" d="M408.66,-318.95C378.11,-301.49 343.36,-281.63 312.38,-263.93"/>
<polygon fill="#888888" stroke="#888888" points="313.74,-260.68 303.32,-258.75 310.26,-266.75 313.74,-260.68"/>
</g>
<!-- 6 -->
<g id="node5" class="node">
<title>6</title>
<text text-anchor="start" x="466.5" y="-253.8" font-family="Arial" font-weight="bold" font-size="14.00"> ≥ 22.07</text>
<text text-anchor="start" x="419" y="-209.3" font-family="Arial" font-size="14.00"> &#160;&#160;&#160;</text>
<path fill="#ebebeb" stroke="transparent" d="M449,-181C449,-181 533,-181 533,-181 539,-181 545,-187 545,-193 545,-193 545,-233 545,-233 545,-239 539,-245 533,-245 533,-245 449,-245 449,-245 443,-245 437,-239 437,-233 437,-233 437,-193 437,-193 437,-187 443,-181 449,-181"/>
<text text-anchor="start" x="438" y="-242.4" font-family="Arial" font-size="2.00"> </text>
<text text-anchor="start" x="438" y="-236.4" font-family="Arial" font-size="7.00"> &#160;6</text>
<text text-anchor="start" x="452" y="-219.8" font-family="Arial" font-weight="bold" font-size="14.00">Mean: 25.21</text>
<text text-anchor="start" x="471" y="-202.8" font-family="Arial" font-weight="bold" font-size="14.00">n = 38</text>
<text text-anchor="start" x="489.5" y="-184.8" font-family="Arial" font-size="9.00"> </text>
<path fill="none" stroke="#333333" d="M449,-181C449,-181 533,-181 533,-181 539,-181 545,-187 545,-193 545,-193 545,-233 545,-233 545,-239 539,-245 533,-245 533,-245 449,-245 449,-245 443,-245 437,-239 437,-233 437,-233 437,-193 437,-193 437,-187 443,-181 449,-181"/>
<text text-anchor="start" x="547" y="-209.3" font-family="Arial" font-size="14.00"> &#160;&#160;&#160;</text>
<text text-anchor="start" x="433.5" y="-166.8" font-family="Arial" font-weight="bold" font-size="14.00">prev_168h_inflow</text>
</g>
<!-- 2&#45;&gt;6 -->
<g id="edge4" class="edge">
<title>2&#45;&gt;6</title>
<path fill="none" stroke="#888888" d="M491,-307.67C491,-299.39 491,-290.83 491,-282.38"/>
<polygon fill="#888888" stroke="#888888" points="494.5,-282.18 491,-272.18 487.5,-282.18 494.5,-282.18"/>
</g>
<!-- 10 -->
<g id="node10" class="node">
<title>10</title>
<text text-anchor="start" x="698" y="-253.8" font-family="Arial" font-weight="bold" font-size="14.00"> &lt; 28.19</text>
<text text-anchor="start" x="655" y="-209.3" font-family="Arial" font-size="14.00"> &#160;&#160;</text>
<path fill="#ebebeb" stroke="transparent" d="M681,-181C681,-181 765,-181 765,-181 771,-181 777,-187 777,-193 777,-193 777,-233 777,-233 777,-239 771,-245 765,-245 765,-245 681,-245 681,-245 675,-245 669,-239 669,-233 669,-233 669,-193 669,-193 669,-187 675,-181 681,-181"/>
<text text-anchor="start" x="670" y="-242.4" font-family="Arial" font-size="2.00"> </text>
<text text-anchor="start" x="670" y="-236.4" font-family="Arial" font-size="7.00"> &#160;10</text>
<text text-anchor="start" x="684" y="-219.8" font-family="Arial" font-weight="bold" font-size="14.00">Mean: 27.48</text>
<text text-anchor="start" x="703" y="-202.8" font-family="Arial" font-weight="bold" font-size="14.00">n = 49</text>
<text text-anchor="start" x="721.5" y="-184.8" font-family="Arial" font-size="9.00"> </text>
<path fill="none" stroke="#333333" d="M681,-181C681,-181 765,-181 765,-181 771,-181 777,-187 777,-193 777,-193 777,-233 777,-233 777,-239 771,-245 765,-245 765,-245 681,-245 681,-245 675,-245 669,-239 669,-233 669,-233 669,-193 669,-193 669,-187 675,-181 681,-181"/>
<text text-anchor="start" x="779" y="-209.3" font-family="Arial" font-size="14.00"> &#160;&#160;</text>
<text text-anchor="start" x="669.5" y="-166.8" font-family="Arial" font-weight="bold" font-size="14.00">prev_24h_inflow</text>
</g>
<!-- 9&#45;&gt;10 -->
<g id="edge9" class="edge">
<title>9&#45;&gt;10</title>
<path fill="none" stroke="#888888" d="M723,-307.67C723,-299.39 723,-290.83 723,-282.38"/>
<polygon fill="#888888" stroke="#888888" points="726.5,-282.18 723,-272.18 719.5,-282.18 726.5,-282.18"/>
</g>
<!-- 13 -->
<g id="node11" class="node">
<title>13</title>
<text text-anchor="start" x="968.5" y="-253.8" font-family="Arial" font-weight="bold" font-size="14.00"> ≥ 28.19</text>
<text text-anchor="start" x="921" y="-209.3" font-family="Arial" font-size="14.00"> &#160;&#160;&#160;</text>
<path fill="#ebebeb" stroke="transparent" d="M951,-181C951,-181 1035,-181 1035,-181 1041,-181 1047,-187 1047,-193 1047,-193 1047,-233 1047,-233 1047,-239 1041,-245 1035,-245 1035,-245 951,-245 951,-245 945,-245 939,-239 939,-233 939,-233 939,-193 939,-193 939,-187 945,-181 951,-181"/>
<text text-anchor="start" x="940" y="-242.4" font-family="Arial" font-size="2.00"> </text>
<text text-anchor="start" x="940" y="-236.4" font-family="Arial" font-size="7.00"> &#160;13</text>
<text text-anchor="start" x="954" y="-219.8" font-family="Arial" font-weight="bold" font-size="14.00">Mean: 31.22</text>
<text text-anchor="start" x="973" y="-202.8" font-family="Arial" font-weight="bold" font-size="14.00">n = 38</text>
<text text-anchor="start" x="991.5" y="-184.8" font-family="Arial" font-size="9.00"> </text>
<path fill="none" stroke="#333333" d="M951,-181C951,-181 1035,-181 1035,-181 1041,-181 1047,-187 1047,-193 1047,-193 1047,-233 1047,-233 1047,-239 1041,-245 1035,-245 1035,-245 951,-245 951,-245 945,-245 939,-239 939,-233 939,-233 939,-193 939,-193 939,-187 945,-181 951,-181"/>
<text text-anchor="start" x="1049" y="-209.3" font-family="Arial" font-size="14.00"> &#160;&#160;&#160;</text>
<text text-anchor="start" x="935.5" y="-166.8" font-family="Arial" font-weight="bold" font-size="14.00">prev_168h_inflow</text>
</g>
<!-- 9&#45;&gt;13 -->
<g id="edge10" class="edge">
<title>9&#45;&gt;13</title>
<path fill="none" stroke="#888888" d="M805.11,-319.78C835.74,-302.53 870.69,-282.86 902.07,-265.19"/>
<polygon fill="#888888" stroke="#888888" points="903.82,-268.22 910.82,-260.27 900.39,-262.12 903.82,-268.22"/>
</g>
<!-- 4 -->
<g id="node6" class="node">
<title>4</title>
<text text-anchor="start" x="44" y="-99.8" font-family="Arial" font-weight="bold" font-size="14.00"> &lt; 21.04</text>
<path fill="#f8766d" fill-opacity="0.874510" stroke="transparent" d="M24,-27C24,-27 114,-27 114,-27 120,-27 126,-33 126,-39 126,-39 126,-79 126,-79 126,-85 120,-91 114,-91 114,-91 24,-91 24,-91 18,-91 12,-85 12,-79 12,-79 12,-39 12,-39 12,-33 18,-27 24,-27"/>
<text text-anchor="start" x="13" y="-88.4" font-family="Arial" font-size="2.00"> </text>
<text text-anchor="start" x="13" y="-82.4" font-family="Arial" font-size="7.00"> &#160;4</text>
<text text-anchor="start" x="27" y="-65.8" font-family="Arial" font-weight="bold" font-size="14.00">Predict 19.61</text>
<text text-anchor="start" x="49" y="-48.8" font-family="Arial" font-weight="bold" font-size="14.00">n = 35</text>
<text text-anchor="start" x="67.5" y="-30.8" font-family="Arial" font-size="9.00"> </text>
<path fill="none" stroke="#333333" d="M24,-27C24,-27 114,-27 114,-27 120,-27 126,-33 126,-39 126,-39 126,-79 126,-79 126,-85 120,-91 114,-91 114,-91 24,-91 24,-91 18,-91 12,-85 12,-79 12,-79 12,-39 12,-39 12,-33 18,-27 24,-27"/>
<text text-anchor="start" x="67" y="-12.8" font-family="Arial" font-weight="bold" font-size="14.00"> </text>
</g>
<!-- 3&#45;&gt;4 -->
<g id="edge5" class="edge">
<title>3&#45;&gt;4</title>
<path fill="none" stroke="#888888" d="M165.13,-153.67C155.62,-144.39 145.72,-134.75 136.05,-125.33"/>
<polygon fill="#888888" stroke="#888888" points="138.31,-122.65 128.71,-118.18 133.43,-127.66 138.31,-122.65"/>
</g>
<!-- 5 -->
<g id="node7" class="node">
<title>5</title>
<text text-anchor="start" x="200.5" y="-99.8" font-family="Arial" font-weight="bold" font-size="14.00"> ≥ 21.04</text>
<path fill="#f8766d" fill-opacity="0.796078" stroke="transparent" d="M180,-27C180,-27 270,-27 270,-27 276,-27 282,-33 282,-39 282,-39 282,-79 282,-79 282,-85 276,-91 270,-91 270,-91 180,-91 180,-91 174,-91 168,-85 168,-79 168,-79 168,-39 168,-39 168,-33 174,-27 180,-27"/>
<text text-anchor="start" x="169" y="-88.4" font-family="Arial" font-size="2.00"> </text>
<text text-anchor="start" x="169" y="-82.4" font-family="Arial" font-size="7.00"> &#160;5</text>
<text text-anchor="start" x="183" y="-65.8" font-family="Arial" font-weight="bold" font-size="14.00">Predict 21.63</text>
<text text-anchor="start" x="209" y="-48.8" font-family="Arial" font-weight="bold" font-size="14.00">n = 8</text>
<text text-anchor="start" x="223.5" y="-30.8" font-family="Arial" font-size="9.00"> </text>
<path fill="none" stroke="#333333" d="M180,-27C180,-27 270,-27 270,-27 276,-27 282,-33 282,-39 282,-39 282,-79 282,-79 282,-85 276,-91 270,-91 270,-91 180,-91 180,-91 174,-91 168,-85 168,-79 168,-79 168,-39 168,-39 168,-33 174,-27 180,-27"/>
<text text-anchor="start" x="223" y="-12.8" font-family="Arial" font-weight="bold" font-size="14.00"> </text>
</g>
<!-- 3&#45;&gt;5 -->
<g id="edge6" class="edge">
<title>3&#45;&gt;5</title>
<path fill="none" stroke="#888888" d="M225,-153.67C225,-145.39 225,-136.83 225,-128.38"/>
<polygon fill="#888888" stroke="#888888" points="228.5,-128.18 225,-118.18 221.5,-128.18 228.5,-128.18"/>
</g>
<!-- 7 -->
<g id="node8" class="node">
<title>7</title>
<text text-anchor="start" x="352" y="-99.8" font-family="Arial" font-weight="bold" font-size="14.00"> &lt; 24.41</text>
<path fill="#f8766d" fill-opacity="0.717647" stroke="transparent" d="M336,-27C336,-27 418,-27 418,-27 424,-27 430,-33 430,-39 430,-39 430,-79 430,-79 430,-85 424,-91 418,-91 418,-91 336,-91 336,-91 330,-91 324,-85 324,-79 324,-79 324,-39 324,-39 324,-33 330,-27 336,-27"/>
<text text-anchor="start" x="325" y="-88.4" font-family="Arial" font-size="2.00"> </text>
<text text-anchor="start" x="325" y="-82.4" font-family="Arial" font-size="7.00"> &#160;7</text>
<text text-anchor="start" x="339" y="-65.8" font-family="Arial" font-weight="bold" font-size="14.00">Predict 23.7</text>
<text text-anchor="start" x="357" y="-48.8" font-family="Arial" font-weight="bold" font-size="14.00">n = 14</text>
<text text-anchor="start" x="375.5" y="-30.8" font-family="Arial" font-size="9.00"> </text>
<path fill="none" stroke="#333333" d="M336,-27C336,-27 418,-27 418,-27 424,-27 430,-33 430,-39 430,-39 430,-79 430,-79 430,-85 424,-91 418,-91 418,-91 336,-91 336,-91 330,-91 324,-85 324,-79 324,-79 324,-39 324,-39 324,-33 330,-27 336,-27"/>
<text text-anchor="start" x="375" y="-12.8" font-family="Arial" font-weight="bold" font-size="14.00"> </text>
</g>
<!-- 6&#45;&gt;7 -->
<g id="edge7" class="edge">
<title>6&#45;&gt;7</title>
<path fill="none" stroke="#888888" d="M447.25,-153.67C440.57,-144.76 433.63,-135.51 426.83,-126.44"/>
<polygon fill="#888888" stroke="#888888" points="429.43,-124.08 420.63,-118.18 423.83,-128.28 429.43,-124.08"/>
</g>
<!-- 8 -->
<g id="node9" class="node">
<title>8</title>
<text text-anchor="start" x="504.5" y="-99.8" font-family="Arial" font-weight="bold" font-size="14.00"> ≥ 24.41</text>
<path fill="#f8766d" fill-opacity="0.627451" stroke="transparent" d="M484,-27C484,-27 574,-27 574,-27 580,-27 586,-33 586,-39 586,-39 586,-79 586,-79 586,-85 580,-91 574,-91 574,-91 484,-91 484,-91 478,-91 472,-85 472,-79 472,-79 472,-39 472,-39 472,-33 478,-27 484,-27"/>
<text text-anchor="start" x="473" y="-88.4" font-family="Arial" font-size="2.00"> </text>
<text text-anchor="start" x="473" y="-82.4" font-family="Arial" font-size="7.00"> &#160;8</text>
<text text-anchor="start" x="487" y="-65.8" font-family="Arial" font-weight="bold" font-size="14.00">Predict 26.08</text>
<text text-anchor="start" x="509" y="-48.8" font-family="Arial" font-weight="bold" font-size="14.00">n = 24</text>
<text text-anchor="start" x="527.5" y="-30.8" font-family="Arial" font-size="9.00"> </text>
<path fill="none" stroke="#333333" d="M484,-27C484,-27 574,-27 574,-27 580,-27 586,-33 586,-39 586,-39 586,-79 586,-79 586,-85 580,-91 574,-91 574,-91 484,-91 484,-91 478,-91 472,-85 472,-79 472,-79 472,-39 472,-39 472,-33 478,-27 484,-27"/>
<text text-anchor="start" x="527" y="-12.8" font-family="Arial" font-weight="bold" font-size="14.00"> </text>
</g>
<!-- 6&#45;&gt;8 -->
<g id="edge8" class="edge">
<title>6&#45;&gt;8</title>
<path fill="none" stroke="#888888" d="M505.58,-153.67C507.67,-145.3 509.84,-136.64 511.97,-128.1"/>
<polygon fill="#888888" stroke="#888888" points="515.43,-128.73 514.46,-118.18 508.63,-127.03 515.43,-128.73"/>
</g>
<!-- 11 -->
<g id="node12" class="node">
<title>11</title>
<text text-anchor="start" x="660" y="-99.8" font-family="Arial" font-weight="bold" font-size="14.00"> &lt; 25.89</text>
<path fill="#f8766d" fill-opacity="0.650980" stroke="transparent" d="M640,-27C640,-27 730,-27 730,-27 736,-27 742,-33 742,-39 742,-39 742,-79 742,-79 742,-85 736,-91 730,-91 730,-91 640,-91 640,-91 634,-91 628,-85 628,-79 628,-79 628,-39 628,-39 628,-33 634,-27 640,-27"/>
<text text-anchor="start" x="629" y="-88.4" font-family="Arial" font-size="2.00"> </text>
<text text-anchor="start" x="629" y="-82.4" font-family="Arial" font-size="7.00"> &#160;11</text>
<text text-anchor="start" x="643" y="-65.8" font-family="Arial" font-weight="bold" font-size="14.00">Predict 25.45</text>
<text text-anchor="start" x="669" y="-48.8" font-family="Arial" font-weight="bold" font-size="14.00">n = 6</text>
<text text-anchor="start" x="683.5" y="-30.8" font-family="Arial" font-size="9.00"> </text>
<path fill="none" stroke="#333333" d="M640,-27C640,-27 730,-27 730,-27 736,-27 742,-33 742,-39 742,-39 742,-79 742,-79 742,-85 736,-91 730,-91 730,-91 640,-91 640,-91 634,-91 628,-85 628,-79 628,-79 628,-39 628,-39 628,-33 634,-27 640,-27"/>
<text text-anchor="start" x="683" y="-12.8" font-family="Arial" font-weight="bold" font-size="14.00"> </text>
</g>
<!-- 10&#45;&gt;11 -->
<g id="edge11" class="edge">
<title>10&#45;&gt;11</title>
<path fill="none" stroke="#888888" d="M708.42,-153.67C706.33,-145.3 704.16,-136.64 702.03,-128.1"/>
<polygon fill="#888888" stroke="#888888" points="705.37,-127.03 699.54,-118.18 698.57,-128.73 705.37,-127.03"/>
</g>
<!-- 12 -->
<g id="node13" class="node">
<title>12</title>
<text text-anchor="start" x="816.5" y="-99.8" font-family="Arial" font-weight="bold" font-size="14.00"> ≥ 25.89</text>
<path fill="#f8766d" fill-opacity="0.560784" stroke="transparent" d="M796,-27C796,-27 886,-27 886,-27 892,-27 898,-33 898,-39 898,-39 898,-79 898,-79 898,-85 892,-91 886,-91 886,-91 796,-91 796,-91 790,-91 784,-85 784,-79 784,-79 784,-39 784,-39 784,-33 790,-27 796,-27"/>
<text text-anchor="start" x="785" y="-88.4" font-family="Arial" font-size="2.00"> </text>
<text text-anchor="start" x="785" y="-82.4" font-family="Arial" font-size="7.00"> &#160;12</text>
<text text-anchor="start" x="799" y="-65.8" font-family="Arial" font-weight="bold" font-size="14.00">Predict 27.76</text>
<text text-anchor="start" x="821" y="-48.8" font-family="Arial" font-weight="bold" font-size="14.00">n = 43</text>
<text text-anchor="start" x="839.5" y="-30.8" font-family="Arial" font-size="9.00"> </text>
<path fill="none" stroke="#333333" d="M796,-27C796,-27 886,-27 886,-27 892,-27 898,-33 898,-39 898,-39 898,-79 898,-79 898,-85 892,-91 886,-91 886,-91 796,-91 796,-91 790,-91 784,-85 784,-79 784,-79 784,-39 784,-39 784,-33 790,-27 796,-27"/>
<text text-anchor="start" x="839" y="-12.8" font-family="Arial" font-weight="bold" font-size="14.00"> </text>
</g>
<!-- 10&#45;&gt;12 -->
<g id="edge12" class="edge">
<title>10&#45;&gt;12</title>
<path fill="none" stroke="#888888" d="M768.28,-153.67C775.27,-144.67 782.53,-135.32 789.64,-126.16"/>
<polygon fill="#888888" stroke="#888888" points="792.47,-128.22 795.84,-118.18 786.94,-123.93 792.47,-128.22"/>
</g>
<!-- 14 -->
<g id="node14" class="node">
<title>14</title>
<text text-anchor="start" x="968" y="-99.8" font-family="Arial" font-weight="bold" font-size="14.00"> &lt; 30.88</text>
<path fill="#f8766d" fill-opacity="0.466667" stroke="transparent" d="M952,-27C952,-27 1034,-27 1034,-27 1040,-27 1046,-33 1046,-39 1046,-39 1046,-79 1046,-79 1046,-85 1040,-91 1034,-91 1034,-91 952,-91 952,-91 946,-91 940,-85 940,-79 940,-79 940,-39 940,-39 940,-33 946,-27 952,-27"/>
<text text-anchor="start" x="941" y="-88.4" font-family="Arial" font-size="2.00"> </text>
<text text-anchor="start" x="941" y="-82.4" font-family="Arial" font-size="7.00"> &#160;14</text>
<text text-anchor="start" x="955" y="-65.8" font-family="Arial" font-weight="bold" font-size="14.00">Predict 30.3</text>
<text text-anchor="start" x="973" y="-48.8" font-family="Arial" font-weight="bold" font-size="14.00">n = 23</text>
<text text-anchor="start" x="991.5" y="-30.8" font-family="Arial" font-size="9.00"> </text>
<path fill="none" stroke="#333333" d="M952,-27C952,-27 1034,-27 1034,-27 1040,-27 1046,-33 1046,-39 1046,-39 1046,-79 1046,-79 1046,-85 1040,-91 1034,-91 1034,-91 952,-91 952,-91 946,-91 940,-85 940,-79 940,-79 940,-39 940,-39 940,-33 946,-27 952,-27"/>
<text text-anchor="start" x="991" y="-12.8" font-family="Arial" font-weight="bold" font-size="14.00"> </text>
</g>
<!-- 13&#45;&gt;14 -->
<g id="edge13" class="edge">
<title>13&#45;&gt;14</title>
<path fill="none" stroke="#888888" d="M993,-153.67C993,-145.39 993,-136.83 993,-128.38"/>
<polygon fill="#888888" stroke="#888888" points="996.5,-128.18 993,-118.18 989.5,-128.18 996.5,-128.18"/>
</g>
<!-- 15 -->
<g id="node15" class="node">
<title>15</title>
<text text-anchor="start" x="1120.5" y="-99.8" font-family="Arial" font-weight="bold" font-size="14.00"> ≥ 30.88</text>
<path fill="#f8766d" fill-opacity="0.376471" stroke="transparent" d="M1100,-27C1100,-27 1190,-27 1190,-27 1196,-27 1202,-33 1202,-39 1202,-39 1202,-79 1202,-79 1202,-85 1196,-91 1190,-91 1190,-91 1100,-91 1100,-91 1094,-91 1088,-85 1088,-79 1088,-79 1088,-39 1088,-39 1088,-33 1094,-27 1100,-27"/>
<text text-anchor="start" x="1089" y="-88.4" font-family="Arial" font-size="2.00"> </text>
<text text-anchor="start" x="1089" y="-82.4" font-family="Arial" font-size="7.00"> &#160;15</text>
<text text-anchor="start" x="1103" y="-65.8" font-family="Arial" font-weight="bold" font-size="14.00">Predict 32.64</text>
<text text-anchor="start" x="1125" y="-48.8" font-family="Arial" font-weight="bold" font-size="14.00">n = 15</text>
<text text-anchor="start" x="1143.5" y="-30.8" font-family="Arial" font-size="9.00"> </text>
<path fill="none" stroke="#333333" d="M1100,-27C1100,-27 1190,-27 1190,-27 1196,-27 1202,-33 1202,-39 1202,-39 1202,-79 1202,-79 1202,-85 1196,-91 1190,-91 1190,-91 1100,-91 1100,-91 1094,-91 1088,-85 1088,-79 1088,-79 1088,-39 1088,-39 1088,-33 1094,-27 1100,-27"/>
<text text-anchor="start" x="1143" y="-12.8" font-family="Arial" font-weight="bold" font-size="14.00"> </text>
</g>
<!-- 13&#45;&gt;15 -->
<g id="edge14" class="edge">
<title>13&#45;&gt;15</title>
<path fill="none" stroke="#888888" d="M1051.33,-153.67C1060.61,-144.39 1070.25,-134.75 1079.67,-125.33"/>
<polygon fill="#888888" stroke="#888888" points="1082.23,-127.72 1086.82,-118.18 1077.28,-122.77 1082.23,-127.72"/>
</g>
</g>
</svg>
