<?xml version="1.0" encoding="UTF-8" standalone="no"?>
<!DOCTYPE svg PUBLIC "-//W3C//DTD SVG 1.1//EN"
 "http://www.w3.org/Graphics/SVG/1.1/DTD/svg11.dtd">
<!-- Generated by graphviz version 2.50.0 (20211204.2007)
 -->
<!-- Pages: 1 -->
<svg width="798pt" height="742pt"
 viewBox="0.00 0.00 798.00 742.00" xmlns="http://www.w3.org/2000/svg" xmlns:xlink="http://www.w3.org/1999/xlink">
<g id="graph0" class="graph" transform="scale(1 1) rotate(0) translate(4 738)">
<polygon fill="white" stroke="transparent" points="-4,4 -4,-738 794,-738 794,4 -4,4"/>
<!-- 1 -->
<g id="node1" class="node">
<title>1</title>
<text text-anchor="start" x="308" y="-715.8" font-family="Arial" font-weight="bold" font-size="14.00"> </text>
<text text-anchor="start" x="242" y="-671.3" font-family="Arial" font-size="14.00"> &#160;&#160;</text>
<path fill="#ebebeb" stroke="transparent" d="M268,-643C268,-643 352,-643 352,-643 358,-643 364,-649 364,-655 364,-655 364,-695 364,-695 364,-701 358,-707 352,-707 352,-707 268,-707 268,-707 262,-707 256,-701 256,-695 256,-695 256,-655 256,-655 256,-649 262,-643 268,-643"/>
<text text-anchor="start" x="257" y="-704.4" font-family="Arial" font-size="2.00"> </text>
<text text-anchor="start" x="257" y="-698.4" font-family="Arial" font-size="7.00"> &#160;1</text>
<text text-anchor="start" x="271" y="-681.8" font-family="Arial" font-weight="bold" font-size="14.00">Mean: 21.54</text>
<text text-anchor="start" x="286.5" y="-664.8" font-family="Arial" font-weight="bold" font-size="14.00">n = 168</text>
<text text-anchor="start" x="308.5" y="-646.8" font-family="Arial" font-size="9.00"> </text>
<path fill="none" stroke="#333333" d="M268,-643C268,-643 352,-643 352,-643 358,-643 364,-649 364,-655 364,-655 364,-695 364,-695 364,-701 358,-707 352,-707 352,-707 268,-707 268,-707 262,-707 256,-701 256,-695 256,-695 256,-655 256,-655 256,-649 262,-643 268,-643"/>
<text text-anchor="start" x="366" y="-671.3" font-family="Arial" font-size="14.00"> &#160;&#160;</text>
<text text-anchor="start" x="256.5" y="-628.8" font-family="Arial" font-weight="bold" font-size="14.00">prev_24h_inflow</text>
</g>
<!-- 2 -->
<g id="node2" class="node">
<title>2</title>
<text text-anchor="start" x="194" y="-561.8" font-family="Arial" font-weight="bold" font-size="14.00"> &lt; 19.14</text>
<text text-anchor="start" x="147" y="-517.3" font-family="Arial" font-size="14.00"> &#160;&#160;&#160;</text>
<path fill="#ebebeb" stroke="transparent" d="M177,-489C177,-489 261,-489 261,-489 267,-489 273,-495 273,-501 273,-501 273,-541 273,-541 273,-547 267,-553 261,-553 261,-553 177,-553 177,-553 171,-553 165,-547 165,-541 165,-541 165,-501 165,-501 165,-495 171,-489 177,-489"/>
<text text-anchor="start" x="166" y="-550.4" font-family="Arial" font-size="2.00"> </text>
<text text-anchor="start" x="166" y="-544.4" font-family="Arial" font-size="7.00"> &#160;2</text>
<text text-anchor="start" x="180" y="-527.8" font-family="Arial" font-weight="bold" font-size="14.00">Mean: 17.68</text>
<text text-anchor="start" x="199" y="-510.8" font-family="Arial" font-weight="bold" font-size="14.00">n = 49</text>
<text text-anchor="start" x="217.5" y="-492.8" font-family="Arial" font-size="9.00"> </text>
<path fill="none" stroke="#333333" d="M177,-489C177,-489 261,-489 261,-489 267,-489 273,-495 273,-501 273,-501 273,-541 273,-541 273,-547 267,-553 261,-553 261,-553 177,-553 177,-553 171,-553 165,-547 165,-541 165,-541 165,-501 165,-501 165,-495 171,-489 177,-489"/>
<text text-anchor="start" x="275" y="-517.3" font-family="Arial" font-size="14.00"> &#160;&#160;&#160;</text>
<text text-anchor="start" x="161.5" y="-474.8" font-family="Arial" font-weight="bold" font-size="14.00">prev_168h_inflow</text>
</g>
<!-- 1&#45;&gt;2 -->
<g id="edge1" class="edge">
<title>1&#45;&gt;2</title>
<path fill="none" stroke="#888888" d="M275.08,-615.67C269.85,-606.94 264.43,-597.88 259.11,-588.99"/>
<polygon fill="#888888" stroke="#888888" points="261.97,-586.96 253.83,-580.18 255.96,-590.55 261.97,-586.96"/>
</g>
<!-- 5 -->
<g id="node3" class="node">
<title>5</title>
<text text-anchor="start" x="376.5" y="-561.8" font-family="Arial" font-weight="bold" font-size="14.00"> ≥ 19.14</text>
<text text-anchor="start" x="329" y="-517.3" font-family="Arial" font-size="14.00"> &#160;&#160;&#160;</text>
<path fill="#ebebeb" stroke="transparent" d="M359,-489C359,-489 443,-489 443,-489 449,-489 455,-495 455,-501 455,-501 455,-541 455,-541 455,-547 449,-553 443,-553 443,-553 359,-553 359,-553 353,-553 347,-547 347,-541 347,-541 347,-501 347,-501 347,-495 353,-489 359,-489"/>
<text text-anchor="start" x="348" y="-550.4" font-family="Arial" font-size="2.00"> </text>
<text text-anchor="start" x="348" y="-544.4" font-family="Arial" font-size="7.00"> &#160;5</text>
<text text-anchor="start" x="362" y="-527.8" font-family="Arial" font-weight="bold" font-size="14.00">Mean: 23.13</text>
<text text-anchor="start" x="378" y="-510.8" font-family="Arial" font-weight="bold" font-size="14.00">n = 119</text>
<text text-anchor="start" x="399.5" y="-492.8" font-family="Arial" font-size="9.00"> </text>
<path fill="none" stroke="#333333" d="M359,-489C359,-489 443,-489 443,-489 449,-489 455,-495 455,-501 455,-501 455,-541 455,-541 455,-547 449,-553 443,-553 443,-553 359,-553 359,-553 353,-553 347,-547 347,-541 347,-541 347,-501 347,-501 347,-495 353,-489 359,-489"/>
<text text-anchor="start" x="457" y="-517.3" font-family="Arial" font-size="14.00"> &#160;&#160;&#160;</text>
<text text-anchor="start" x="343.5" y="-474.8" font-family="Arial" font-weight="bold" font-size="14.00">prev_168h_inflow</text>
</g>
<!-- 1&#45;&gt;5 -->
<g id="edge2" class="edge">
<title>1&#45;&gt;5</title>
<path fill="none" stroke="#888888" d="M344.92,-615.67C350.15,-606.94 355.57,-597.88 360.89,-588.99"/>
<polygon fill="#888888" stroke="#888888" points="364.04,-590.55 366.17,-580.18 358.03,-586.96 364.04,-590.55"/>
</g>
<!-- 3 -->
<g id="node4" class="node">
<title>3</title>
<text text-anchor="start" x="47.5" y="-407.8" font-family="Arial" font-weight="bold" font-size="14.00"> &lt; 20.6</text>
<path fill="#f8766d" fill-opacity="0.874510" stroke="transparent" d="M24,-335C24,-335 114,-335 114,-335 120,-335 126,-341 126,-347 126,-347 126,-387 126,-387 126,-393 120,-399 114,-399 114,-399 24,-399 24,-399 18,-399 12,-393 12,-387 12,-387 12,-347 12,-347 12,-341 18,-335 24,-335"/>
<text text-anchor="start" x="13" y="-396.4" font-family="Arial" font-size="2.00"> </text>
<text text-anchor="start" x="13" y="-390.4" font-family="Arial" font-size="7.00"> &#160;3</text>
<text text-anchor="start" x="27" y="-373.8" font-family="Arial" font-weight="bold" font-size="14.00">Predict 17.29</text>
<text text-anchor="start" x="49" y="-356.8" font-family="Arial" font-weight="bold" font-size="14.00">n = 42</text>
<text text-anchor="start" x="67.5" y="-338.8" font-family="Arial" font-size="9.00"> </text>
<path fill="none" stroke="#333333" d="M24,-335C24,-335 114,-335 114,-335 120,-335 126,-341 126,-347 126,-347 126,-387 126,-387 126,-393 120,-399 114,-399 114,-399 24,-399 24,-399 18,-399 12,-393 12,-387 12,-387 12,-347 12,-347 12,-341 18,-335 24,-335"/>
<text text-anchor="start" x="67" y="-320.8" font-family="Arial" font-weight="bold" font-size="14.00"> </text>
</g>
<!-- 2&#45;&gt;3 -->
<g id="edge3" class="edge">
<title>2&#45;&gt;3</title>
<path fill="none" stroke="#888888" d="M161.44,-461.67C152.28,-452.39 142.77,-442.75 133.47,-433.33"/>
<polygon fill="#888888" stroke="#888888" points="135.93,-430.84 126.41,-426.18 130.94,-435.75 135.93,-430.84"/>
</g>
<!-- 4 -->
<g id="node5" class="node">
<title>4</title>
<text text-anchor="start" x="204" y="-407.8" font-family="Arial" font-weight="bold" font-size="14.00"> ≥ 20.6</text>
<path fill="#f8766d" fill-opacity="0.725490" stroke="transparent" d="M180,-335C180,-335 270,-335 270,-335 276,-335 282,-341 282,-347 282,-347 282,-387 282,-387 282,-393 276,-399 270,-399 270,-399 180,-399 180,-399 174,-399 168,-393 168,-387 168,-387 168,-347 168,-347 168,-341 174,-335 180,-335"/>
<text text-anchor="start" x="169" y="-396.4" font-family="Arial" font-size="2.00"> </text>
<text text-anchor="start" x="169" y="-390.4" font-family="Arial" font-size="7.00"> &#160;4</text>
<text text-anchor="start" x="183" y="-373.8" font-family="Arial" font-weight="bold" font-size="14.00">Predict 19.98</text>
<text text-anchor="start" x="209" y="-356.8" font-family="Arial" font-weight="bold" font-size="14.00">n = 7</text>
<text text-anchor="start" x="223.5" y="-338.8" font-family="Arial" font-size="9.00"> </text>
<path fill="none" stroke="#333333" d="M180,-335C180,-335 270,-335 270,-335 276,-335 282,-341 282,-347 282,-347 282,-387 282,-387 282,-393 276,-399 270,-399 270,-399 180,-399 180,-399 174,-399 168,-393 168,-387 168,-387 168,-347 168,-347 168,-341 174,-335 180,-335"/>
<text text-anchor="start" x="223" y="-320.8" font-family="Arial" font-weight="bold" font-size="14.00"> </text>
</g>
<!-- 2&#45;&gt;4 -->
<g id="edge4" class="edge">
<title>2&#45;&gt;4</title>
<path fill="none" stroke="#888888" d="M221.3,-461.67C221.63,-453.39 221.97,-444.83 222.3,-436.38"/>
<polygon fill="#888888" stroke="#888888" points="225.81,-436.31 222.7,-426.18 218.81,-436.03 225.81,-436.31"/>
</g>
<!-- 6 -->
<g id="node6" class="node">
<title>6</title>
<text text-anchor="start" x="371" y="-407.8" font-family="Arial" font-weight="bold" font-size="14.00"> &lt; 24.52</text>
<text text-anchor="start" x="332" y="-363.3" font-family="Arial" font-size="14.00"> &#160;</text>
<path fill="#ebebeb" stroke="transparent" d="M354,-335C354,-335 438,-335 438,-335 444,-335 450,-341 450,-347 450,-347 450,-387 450,-387 450,-393 444,-399 438,-399 438,-399 354,-399 354,-399 348,-399 342,-393 342,-387 342,-387 342,-347 342,-347 342,-341 348,-335 354,-335"/>
<text text-anchor="start" x="343" y="-396.4" font-family="Arial" font-size="2.00"> </text>
<text text-anchor="start" x="343" y="-390.4" font-family="Arial" font-size="7.00"> &#160;6</text>
<text text-anchor="start" x="357" y="-373.8" font-family="Arial" font-weight="bold" font-size="14.00">Mean: 21.23</text>
<text text-anchor="start" x="376" y="-356.8" font-family="Arial" font-weight="bold" font-size="14.00">n = 69</text>
<text text-anchor="start" x="394.5" y="-338.8" font-family="Arial" font-size="9.00"> </text>
<path fill="none" stroke="#333333" d="M354,-335C354,-335 438,-335 438,-335 444,-335 450,-341 450,-347 450,-347 450,-387 450,-387 450,-393 444,-399 438,-399 438,-399 354,-399 354,-399 348,-399 342,-393 342,-387 342,-387 342,-347 342,-347 342,-341 348,-335 354,-335"/>
<text text-anchor="start" x="452" y="-363.3" font-family="Arial" font-size="14.00"> &#160;</text>
<text text-anchor="start" x="346" y="-320.8" font-family="Arial" font-weight="bold" font-size="14.00">prev_1h_inflow</text>
</g>
<!-- 5&#45;&gt;6 -->
<g id="edge5" class="edge">
<title>5&#45;&gt;6</title>
<path fill="none" stroke="#888888" d="M399.08,-461.67C398.81,-453.39 398.53,-444.83 398.25,-436.38"/>
<polygon fill="#888888" stroke="#888888" points="401.74,-436.06 397.91,-426.18 394.74,-436.29 401.74,-436.06"/>
</g>
<!-- 11 -->
<g id="node7" class="node">
<title>11</title>
<text text-anchor="start" x="540.5" y="-407.8" font-family="Arial" font-weight="bold" font-size="14.00"> ≥ 24.52</text>
<path fill="#ebebeb" stroke="transparent" d="M523,-335C523,-335 607,-335 607,-335 613,-335 619,-341 619,-347 619,-347 619,-387 619,-387 619,-393 613,-399 607,-399 607,-399 523,-399 523,-399 517,-399 511,-393 511,-387 511,-387 511,-347 511,-347 511,-341 517,-335 523,-335"/>
<text text-anchor="start" x="512" y="-396.4" font-family="Arial" font-size="2.00"> </text>
<text text-anchor="start" x="512" y="-390.4" font-family="Arial" font-size="7.00"> &#160;11</text>
<text text-anchor="start" x="526" y="-373.8" font-family="Arial" font-weight="bold" font-size="14.00">Mean: 25.76</text>
<text text-anchor="start" x="545" y="-356.8" font-family="Arial" font-weight="bold" font-size="14.00">n = 50</text>
<text text-anchor="start" x="563.5" y="-338.8" font-family="Arial" font-size="9.00"> </text>
<path fill="none" stroke="#333333" d="M523,-335C523,-335 607,-335 607,-335 613,-335 619,-341 619,-347 619,-347 619,-387 619,-387 619,-393 613,-399 607,-399 607,-399 523,-399 523,-399 517,-399 511,-393 511,-387 511,-387 511,-347 511,-347 511,-341 517,-335 523,-335"/>
<text text-anchor="start" x="550.5" y="-320.8" font-family="Arial" font-weight="bold" font-size="14.00">time</text>
</g>
<!-- 5&#45;&gt;11 -->
<g id="edge6" class="edge">
<title>5&#45;&gt;11</title>
<path fill="none" stroke="#888888" d="M463.94,-461.67C474.04,-452.3 484.55,-442.56 494.81,-433.05"/>
<polygon fill="#888888" stroke="#888888" points="497.28,-435.54 502.23,-426.18 492.52,-430.41 497.28,-435.54"/>
</g>
<!-- 7 -->
<g id="node8" class="node">
<title>7</title>
<text text-anchor="start" x="202" y="-253.8" font-family="Arial" font-weight="bold" font-size="14.00"> &lt; 20.44</text>
<path fill="#f8766d" fill-opacity="0.737255" stroke="transparent" d="M182,-181C182,-181 272,-181 272,-181 278,-181 284,-187 284,-193 284,-193 284,-233 284,-233 284,-239 278,-245 272,-245 272,-245 182,-245 182,-245 176,-245 170,-239 170,-233 170,-233 170,-193 170,-193 170,-187 176,-181 182,-181"/>
<text text-anchor="start" x="171" y="-242.4" font-family="Arial" font-size="2.00"> </text>
<text text-anchor="start" x="171" y="-236.4" font-family="Arial" font-size="7.00"> &#160;7</text>
<text text-anchor="start" x="185" y="-219.8" font-family="Arial" font-weight="bold" font-size="14.00">Predict 19.71</text>
<text text-anchor="start" x="207" y="-202.8" font-family="Arial" font-weight="bold" font-size="14.00">n = 23</text>
<text text-anchor="start" x="225.5" y="-184.8" font-family="Arial" font-size="9.00"> </text>
<path fill="none" stroke="#333333" d="M182,-181C182,-181 272,-181 272,-181 278,-181 284,-187 284,-193 284,-193 284,-233 284,-233 284,-239 278,-245 272,-245 272,-245 182,-245 182,-245 176,-245 170,-239 170,-233 170,-233 170,-193 170,-193 170,-187 176,-181 182,-181"/>
<text text-anchor="start" x="225" y="-166.8" font-family="Arial" font-weight="bold" font-size="14.00"> </text>
</g>
<!-- 6&#45;&gt;7 -->
<g id="edge7" class="edge">
<title>6&#45;&gt;7</title>
<path fill="none" stroke="#888888" d="M331.14,-307.67C320.73,-298.3 309.9,-288.56 299.33,-279.05"/>
<polygon fill="#888888" stroke="#888888" points="301.46,-276.26 291.68,-272.18 296.78,-281.47 301.46,-276.26"/>
</g>
<!-- 8 -->
<g id="node9" class="node">
<title>8</title>
<text text-anchor="start" x="371.5" y="-253.8" font-family="Arial" font-weight="bold" font-size="14.00"> ≥ 20.44</text>
<text text-anchor="start" x="324" y="-209.3" font-family="Arial" font-size="14.00"> &#160;&#160;&#160;</text>
<path fill="#ebebeb" stroke="transparent" d="M354,-181C354,-181 438,-181 438,-181 444,-181 450,-187 450,-193 450,-193 450,-233 450,-233 450,-239 444,-245 438,-245 438,-245 354,-245 354,-245 348,-245 342,-239 342,-233 342,-233 342,-193 342,-193 342,-187 348,-181 354,-181"/>
<text text-anchor="start" x="343" y="-242.4" font-family="Arial" font-size="2.00"> </text>
<text text-anchor="start" x="343" y="-236.4" font-family="Arial" font-size="7.00"> &#160;8</text>
<text text-anchor="start" x="357" y="-219.8" font-family="Arial" font-weight="bold" font-size="14.00">Mean: 21.99</text>
<text text-anchor="start" x="376" y="-202.8" font-family="Arial" font-weight="bold" font-size="14.00">n = 46</text>
<text text-anchor="start" x="394.5" y="-184.8" font-family="Arial" font-size="9.00"> </text>
<path fill="none" stroke="#333333" d="M354,-181C354,-181 438,-181 438,-181 444,-181 450,-187 450,-193 450,-193 450,-233 450,-233 450,-239 444,-245 438,-245 438,-245 354,-245 354,-245 348,-245 342,-239 342,-233 342,-233 342,-193 342,-193 342,-187 348,-181 354,-181"/>
<text text-anchor="start" x="452" y="-209.3" font-family="Arial" font-size="14.00"> &#160;&#160;&#160;</text>
<text text-anchor="start" x="338.5" y="-166.8" font-family="Arial" font-weight="bold" font-size="14.00">prev_168h_inflow</text>
</g>
<!-- 6&#45;&gt;8 -->
<g id="edge8" class="edge">
<title>6&#45;&gt;8</title>
<path fill="none" stroke="#888888" d="M396,-307.67C396,-299.39 396,-290.83 396,-282.38"/>
<polygon fill="#888888" stroke="#888888" points="399.5,-282.18 396,-272.18 392.5,-282.18 399.5,-282.18"/>
</g>
<!-- 12 -->
<g id="node12" class="node">
<title>12</title>
<text text-anchor="start" x="543.5" y="-253.8" font-family="Arial" font-weight="bold" font-size="14.00"> &lt; 15.5</text>
<path fill="#f8766d" fill-opacity="0.376471" stroke="transparent" d="M520,-181C520,-181 610,-181 610,-181 616,-181 622,-187 622,-193 622,-193 622,-233 622,-233 622,-239 616,-245 610,-245 610,-245 520,-245 520,-245 514,-245 508,-239 508,-233 508,-233 508,-193 508,-193 508,-187 514,-181 520,-181"/>
<text text-anchor="start" x="509" y="-242.4" font-family="Arial" font-size="2.00"> </text>
<text text-anchor="start" x="509" y="-236.4" font-family="Arial" font-size="7.00"> &#160;12</text>
<text text-anchor="start" x="523" y="-219.8" font-family="Arial" font-weight="bold" font-size="14.00">Predict 26.18</text>
<text text-anchor="start" x="545" y="-202.8" font-family="Arial" font-weight="bold" font-size="14.00">n = 42</text>
<text text-anchor="start" x="563.5" y="-184.8" font-family="Arial" font-size="9.00"> </text>
<path fill="none" stroke="#333333" d="M520,-181C520,-181 610,-181 610,-181 616,-181 622,-187 622,-193 622,-193 622,-233 622,-233 622,-239 616,-245 610,-245 610,-245 520,-245 520,-245 514,-245 508,-239 508,-233 508,-233 508,-193 508,-193 508,-187 514,-181 520,-181"/>
<text text-anchor="start" x="563" y="-166.8" font-family="Arial" font-weight="bold" font-size="14.00"> </text>
</g>
<!-- 11&#45;&gt;12 -->
<g id="edge11" class="edge">
<title>11&#45;&gt;12</title>
<path fill="none" stroke="#888888" d="M565,-307.67C565,-299.39 565,-290.83 565,-282.38"/>
<polygon fill="#888888" stroke="#888888" points="568.5,-282.18 565,-272.18 561.5,-282.18 568.5,-282.18"/>
</g>
<!-- 13 -->
<g id="node13" class="node">
<title>13</title>
<text text-anchor="start" x="700" y="-253.8" font-family="Arial" font-weight="bold" font-size="14.00"> ≥ 15.5</text>
<path fill="#f8766d" fill-opacity="0.521569" stroke="transparent" d="M676,-181C676,-181 766,-181 766,-181 772,-181 778,-187 778,-193 778,-193 778,-233 778,-233 778,-239 772,-245 766,-245 766,-245 676,-245 676,-245 670,-245 664,-239 664,-233 664,-233 664,-193 664,-193 664,-187 670,-181 676,-181"/>
<text text-anchor="start" x="665" y="-242.4" font-family="Arial" font-size="2.00"> </text>
<text text-anchor="start" x="665" y="-236.4" font-family="Arial" font-size="7.00"> &#160;13</text>
<text text-anchor="start" x="679" y="-219.8" font-family="Arial" font-weight="bold" font-size="14.00">Predict 23.55</text>
<text text-anchor="start" x="705" y="-202.8" font-family="Arial" font-weight="bold" font-size="14.00">n = 8</text>
<text text-anchor="start" x="719.5" y="-184.8" font-family="Arial" font-size="9.00"> </text>
<path fill="none" stroke="#333333" d="M676,-181C676,-181 766,-181 766,-181 772,-181 778,-187 778,-193 778,-193 778,-233 778,-233 778,-239 772,-245 766,-245 766,-245 676,-245 676,-245 670,-245 664,-239 664,-233 664,-233 664,-193 664,-193 664,-187 670,-181 676,-181"/>
<text text-anchor="start" x="719" y="-166.8" font-family="Arial" font-weight="bold" font-size="14.00"> </text>
</g>
<!-- 11&#45;&gt;13 -->
<g id="edge12" class="edge">
<title>11&#45;&gt;13</title>
<path fill="none" stroke="#888888" d="M624.87,-307.67C634.38,-298.39 644.28,-288.75 653.95,-279.33"/>
<polygon fill="#888888" stroke="#888888" points="656.57,-281.66 661.29,-272.18 651.69,-276.65 656.57,-281.66"/>
</g>
<!-- 9 -->
<g id="node10" class="node">
<title>9</title>
<text text-anchor="start" x="293" y="-99.8" font-family="Arial" font-weight="bold" font-size="14.00"> &lt; 21.26</text>
<path fill="#f8766d" fill-opacity="0.686275" stroke="transparent" d="M273,-27C273,-27 363,-27 363,-27 369,-27 375,-33 375,-39 375,-39 375,-79 375,-79 375,-85 369,-91 363,-91 363,-91 273,-91 273,-91 267,-91 261,-85 261,-79 261,-79 261,-39 261,-39 261,-33 267,-27 273,-27"/>
<text text-anchor="start" x="262" y="-88.4" font-family="Arial" font-size="2.00"> </text>
<text text-anchor="start" x="262" y="-82.4" font-family="Arial" font-size="7.00"> &#160;9</text>
<text text-anchor="start" x="276" y="-65.8" font-family="Arial" font-weight="bold" font-size="14.00">Predict 20.67</text>
<text text-anchor="start" x="298" y="-48.8" font-family="Arial" font-weight="bold" font-size="14.00">n = 15</text>
<text text-anchor="start" x="316.5" y="-30.8" font-family="Arial" font-size="9.00"> </text>
<path fill="none" stroke="#333333" d="M273,-27C273,-27 363,-27 363,-27 369,-27 375,-33 375,-39 375,-39 375,-79 375,-79 375,-85 369,-91 363,-91 363,-91 273,-91 273,-91 267,-91 261,-85 261,-79 261,-79 261,-39 261,-39 261,-33 267,-27 273,-27"/>
<text text-anchor="start" x="316" y="-12.8" font-family="Arial" font-weight="bold" font-size="14.00"> </text>
</g>
<!-- 8&#45;&gt;9 -->
<g id="edge9" class="edge">
<title>8&#45;&gt;9</title>
<path fill="none" stroke="#888888" d="M366.07,-153.67C361.63,-145.03 357.04,-136.07 352.52,-127.27"/>
<polygon fill="#888888" stroke="#888888" points="355.53,-125.48 347.85,-118.18 349.31,-128.67 355.53,-125.48"/>
</g>
<!-- 10 -->
<g id="node11" class="node">
<title>10</title>
<text text-anchor="start" x="449.5" y="-99.8" font-family="Arial" font-weight="bold" font-size="14.00"> ≥ 21.26</text>
<path fill="#f8766d" fill-opacity="0.576471" stroke="transparent" d="M429,-27C429,-27 519,-27 519,-27 525,-27 531,-33 531,-39 531,-39 531,-79 531,-79 531,-85 525,-91 519,-91 519,-91 429,-91 429,-91 423,-91 417,-85 417,-79 417,-79 417,-39 417,-39 417,-33 423,-27 429,-27"/>
<text text-anchor="start" x="418" y="-88.4" font-family="Arial" font-size="2.00"> </text>
<text text-anchor="start" x="418" y="-82.4" font-family="Arial" font-size="7.00"> &#160;10</text>
<text text-anchor="start" x="432" y="-65.8" font-family="Arial" font-weight="bold" font-size="14.00">Predict 22.62</text>
<text text-anchor="start" x="454" y="-48.8" font-family="Arial" font-weight="bold" font-size="14.00">n = 31</text>
<text text-anchor="start" x="472.5" y="-30.8" font-family="Arial" font-size="9.00"> </text>
<path fill="none" stroke="#333333" d="M429,-27C429,-27 519,-27 519,-27 525,-27 531,-33 531,-39 531,-39 531,-79 531,-79 531,-85 525,-91 519,-91 519,-91 429,-91 429,-91 423,-91 417,-85 417,-79 417,-79 417,-39 417,-39 417,-33 423,-27 429,-27"/>
<text text-anchor="start" x="472" y="-12.8" font-family="Arial" font-weight="bold" font-size="14.00"> </text>
</g>
<!-- 8&#45;&gt;10 -->
<g id="edge10" class="edge">
<title>8&#45;&gt;10</title>
<path fill="none" stroke="#888888" d="M425.93,-153.67C430.37,-145.03 434.96,-136.07 439.48,-127.27"/>
<polygon fill="#888888" stroke="#888888" points="442.69,-128.67 444.15,-118.18 436.47,-125.48 442.69,-128.67"/>
</g>
</g>
</svg>
