<?xml version="1.0" encoding="UTF-8" standalone="no"?>
<!DOCTYPE svg PUBLIC "-//W3C//DTD SVG 1.1//EN"
 "http://www.w3.org/Graphics/SVG/1.1/DTD/svg11.dtd">
<!-- Generated by graphviz version 2.50.0 (20211204.2007)
 -->
<!-- Pages: 1 -->
<svg width="605pt" height="434pt"
 viewBox="0.00 0.00 605.00 434.00" xmlns="http://www.w3.org/2000/svg" xmlns:xlink="http://www.w3.org/1999/xlink">
<g id="graph0" class="graph" transform="scale(1 1) rotate(0) translate(4 430)">
<polygon fill="white" stroke="transparent" points="-4,4 -4,-430 601,-430 601,4 -4,4"/>
<!-- 1 -->
<g id="node1" class="node">
<title>1</title>
<text text-anchor="start" x="294" y="-407.8" font-family="Arial" font-weight="bold" font-size="14.00"> </text>
<text text-anchor="start" x="228" y="-363.3" font-family="Arial" font-size="14.00"> &#160;&#160;</text>
<path fill="#ebebeb" stroke="transparent" d="M254,-335C254,-335 338,-335 338,-335 344,-335 350,-341 350,-347 350,-347 350,-387 350,-387 350,-393 344,-399 338,-399 338,-399 254,-399 254,-399 248,-399 242,-393 242,-387 242,-387 242,-347 242,-347 242,-341 248,-335 254,-335"/>
<text text-anchor="start" x="243" y="-396.4" font-family="Arial" font-size="2.00"> </text>
<text text-anchor="start" x="243" y="-390.4" font-family="Arial" font-size="7.00"> &#160;1</text>
<text text-anchor="start" x="257" y="-373.8" font-family="Arial" font-weight="bold" font-size="14.00">Mean: 9.137</text>
<text text-anchor="start" x="272.5" y="-356.8" font-family="Arial" font-weight="bold" font-size="14.00">n = 168</text>
<text text-anchor="start" x="294.5" y="-338.8" font-family="Arial" font-size="9.00"> </text>
<path fill="none" stroke="#333333" d="M254,-335C254,-335 338,-335 338,-335 344,-335 350,-341 350,-347 350,-347 350,-387 350,-387 350,-393 344,-399 338,-399 338,-399 254,-399 254,-399 248,-399 242,-393 242,-387 242,-387 242,-347 242,-347 242,-341 248,-335 254,-335"/>
<text text-anchor="start" x="352" y="-363.3" font-family="Arial" font-size="14.00"> &#160;&#160;</text>
<text text-anchor="start" x="242.5" y="-320.8" font-family="Arial" font-weight="bold" font-size="14.00">prev_24h_inflow</text>
</g>
<!-- 2 -->
<g id="node2" class="node">
<title>2</title>
<text text-anchor="start" x="188" y="-253.8" font-family="Arial" font-weight="bold" font-size="14.00"> &lt; 8.875</text>
<path fill="#ebebeb" stroke="transparent" d="M171,-181C171,-181 255,-181 255,-181 261,-181 267,-187 267,-193 267,-193 267,-233 267,-233 267,-239 261,-245 255,-245 255,-245 171,-245 171,-245 165,-245 159,-239 159,-233 159,-233 159,-193 159,-193 159,-187 165,-181 171,-181"/>
<text text-anchor="start" x="160" y="-242.4" font-family="Arial" font-size="2.00"> </text>
<text text-anchor="start" x="160" y="-236.4" font-family="Arial" font-size="7.00"> &#160;2</text>
<text text-anchor="start" x="174" y="-219.8" font-family="Arial" font-weight="bold" font-size="14.00">Mean: 8.094</text>
<text text-anchor="start" x="193" y="-202.8" font-family="Arial" font-weight="bold" font-size="14.00">n = 61</text>
<text text-anchor="start" x="211.5" y="-184.8" font-family="Arial" font-size="9.00"> </text>
<path fill="none" stroke="#333333" d="M171,-181C171,-181 255,-181 255,-181 261,-181 267,-187 267,-193 267,-193 267,-233 267,-233 267,-239 261,-245 255,-245 255,-245 171,-245 171,-245 165,-245 159,-239 159,-233 159,-233 159,-193 159,-193 159,-187 165,-181 171,-181"/>
<text text-anchor="start" x="198.5" y="-166.8" font-family="Arial" font-weight="bold" font-size="14.00">time</text>
</g>
<!-- 1&#45;&gt;2 -->
<g id="edge1" class="edge">
<title>1&#45;&gt;2</title>
<path fill="none" stroke="#888888" d="M264.15,-307.67C259.38,-298.94 254.44,-289.88 249.58,-280.99"/>
<polygon fill="#888888" stroke="#888888" points="252.63,-279.28 244.77,-272.18 246.49,-282.63 252.63,-279.28"/>
</g>
<!-- 5 -->
<g id="node3" class="node">
<title>5</title>
<text text-anchor="start" x="354.5" y="-253.8" font-family="Arial" font-weight="bold" font-size="14.00"> ≥ 8.875</text>
<text text-anchor="start" x="307" y="-209.3" font-family="Arial" font-size="14.00"> &#160;&#160;&#160;</text>
<path fill="#ebebeb" stroke="transparent" d="M337,-181C337,-181 421,-181 421,-181 427,-181 433,-187 433,-193 433,-193 433,-233 433,-233 433,-239 427,-245 421,-245 421,-245 337,-245 337,-245 331,-245 325,-239 325,-233 325,-233 325,-193 325,-193 325,-187 331,-181 337,-181"/>
<text text-anchor="start" x="326" y="-242.4" font-family="Arial" font-size="2.00"> </text>
<text text-anchor="start" x="326" y="-236.4" font-family="Arial" font-size="7.00"> &#160;5</text>
<text text-anchor="start" x="340" y="-219.8" font-family="Arial" font-weight="bold" font-size="14.00">Mean: 9.732</text>
<text text-anchor="start" x="355.5" y="-202.8" font-family="Arial" font-weight="bold" font-size="14.00">n = 107</text>
<text text-anchor="start" x="377.5" y="-184.8" font-family="Arial" font-size="9.00"> </text>
<path fill="none" stroke="#333333" d="M337,-181C337,-181 421,-181 421,-181 427,-181 433,-187 433,-193 433,-193 433,-233 433,-233 433,-239 427,-245 421,-245 421,-245 337,-245 337,-245 331,-245 325,-239 325,-233 325,-233 325,-193 325,-193 325,-187 331,-181 337,-181"/>
<text text-anchor="start" x="435" y="-209.3" font-family="Arial" font-size="14.00"> &#160;&#160;&#160;</text>
<text text-anchor="start" x="321.5" y="-166.8" font-family="Arial" font-weight="bold" font-size="14.00">prev_168h_inflow</text>
</g>
<!-- 1&#45;&gt;5 -->
<g id="edge2" class="edge">
<title>1&#45;&gt;5</title>
<path fill="none" stroke="#888888" d="M327.85,-307.67C332.62,-298.94 337.56,-289.88 342.42,-280.99"/>
<polygon fill="#888888" stroke="#888888" points="345.51,-282.63 347.23,-272.18 339.37,-279.28 345.51,-282.63"/>
</g>
<!-- 3 -->
<g id="node4" class="node">
<title>3</title>
<text text-anchor="start" x="47.5" y="-99.8" font-family="Arial" font-weight="bold" font-size="14.00"> &lt; 5.5</text>
<path fill="#f8766d" fill-opacity="0.874510" stroke="transparent" d="M24,-27C24,-27 106,-27 106,-27 112,-27 118,-33 118,-39 118,-39 118,-79 118,-79 118,-85 112,-91 106,-91 106,-91 24,-91 24,-91 18,-91 12,-85 12,-79 12,-79 12,-39 12,-39 12,-33 18,-27 24,-27"/>
<text text-anchor="start" x="13" y="-88.4" font-family="Arial" font-size="2.00"> </text>
<text text-anchor="start" x="13" y="-82.4" font-family="Arial" font-size="7.00"> &#160;3</text>
<text text-anchor="start" x="27" y="-65.8" font-family="Arial" font-weight="bold" font-size="14.00">Predict 7.85</text>
<text text-anchor="start" x="45" y="-48.8" font-family="Arial" font-weight="bold" font-size="14.00">n = 42</text>
<text text-anchor="start" x="63.5" y="-30.8" font-family="Arial" font-size="9.00"> </text>
<path fill="none" stroke="#333333" d="M24,-27C24,-27 106,-27 106,-27 112,-27 118,-33 118,-39 118,-39 118,-79 118,-79 118,-85 112,-91 106,-91 106,-91 24,-91 24,-91 18,-91 12,-85 12,-79 12,-79 12,-39 12,-39 12,-33 18,-27 24,-27"/>
<text text-anchor="start" x="63" y="-12.8" font-family="Arial" font-weight="bold" font-size="14.00"> </text>
</g>
<!-- 2&#45;&gt;3 -->
<g id="edge3" class="edge">
<title>2&#45;&gt;3</title>
<path fill="none" stroke="#888888" d="M156.2,-153.67C147.26,-144.49 137.97,-134.94 128.88,-125.6"/>
<polygon fill="#888888" stroke="#888888" points="131.13,-122.9 121.65,-118.18 126.11,-127.78 131.13,-122.9"/>
</g>
<!-- 4 -->
<g id="node5" class="node">
<title>4</title>
<text text-anchor="start" x="200" y="-99.8" font-family="Arial" font-weight="bold" font-size="14.00"> ≥ 5.5</text>
<path fill="#f8766d" fill-opacity="0.694118" stroke="transparent" d="M172,-27C172,-27 262,-27 262,-27 268,-27 274,-33 274,-39 274,-39 274,-79 274,-79 274,-85 268,-91 262,-91 262,-91 172,-91 172,-91 166,-91 160,-85 160,-79 160,-79 160,-39 160,-39 160,-33 166,-27 172,-27"/>
<text text-anchor="start" x="161" y="-88.4" font-family="Arial" font-size="2.00"> </text>
<text text-anchor="start" x="161" y="-82.4" font-family="Arial" font-size="7.00"> &#160;4</text>
<text text-anchor="start" x="175" y="-65.8" font-family="Arial" font-weight="bold" font-size="14.00">Predict 8.635</text>
<text text-anchor="start" x="197" y="-48.8" font-family="Arial" font-weight="bold" font-size="14.00">n = 19</text>
<text text-anchor="start" x="215.5" y="-30.8" font-family="Arial" font-size="9.00"> </text>
<path fill="none" stroke="#333333" d="M172,-27C172,-27 262,-27 262,-27 268,-27 274,-33 274,-39 274,-39 274,-79 274,-79 274,-85 268,-91 262,-91 262,-91 172,-91 172,-91 166,-91 160,-85 160,-79 160,-79 160,-39 160,-39 160,-33 166,-27 172,-27"/>
<text text-anchor="start" x="215" y="-12.8" font-family="Arial" font-weight="bold" font-size="14.00"> </text>
</g>
<!-- 2&#45;&gt;4 -->
<g id="edge4" class="edge">
<title>2&#45;&gt;4</title>
<path fill="none" stroke="#888888" d="M214.54,-153.67C214.75,-145.39 214.98,-136.83 215.2,-128.38"/>
<polygon fill="#888888" stroke="#888888" points="218.7,-128.27 215.47,-118.18 211.71,-128.08 218.7,-128.27"/>
</g>
<!-- 6 -->
<g id="node6" class="node">
<title>6</title>
<text text-anchor="start" x="351" y="-99.8" font-family="Arial" font-weight="bold" font-size="14.00"> &lt; 9.995</text>
<path fill="#f8766d" fill-opacity="0.486275" stroke="transparent" d="M335,-27C335,-27 417,-27 417,-27 423,-27 429,-33 429,-39 429,-39 429,-79 429,-79 429,-85 423,-91 417,-91 417,-91 335,-91 335,-91 329,-91 323,-85 323,-79 323,-79 323,-39 323,-39 323,-33 329,-27 335,-27"/>
<text text-anchor="start" x="324" y="-88.4" font-family="Arial" font-size="2.00"> </text>
<text text-anchor="start" x="324" y="-82.4" font-family="Arial" font-size="7.00"> &#160;6</text>
<text text-anchor="start" x="338" y="-65.8" font-family="Arial" font-weight="bold" font-size="14.00">Predict 9.54</text>
<text text-anchor="start" x="356" y="-48.8" font-family="Arial" font-weight="bold" font-size="14.00">n = 65</text>
<text text-anchor="start" x="374.5" y="-30.8" font-family="Arial" font-size="9.00"> </text>
<path fill="none" stroke="#333333" d="M335,-27C335,-27 417,-27 417,-27 423,-27 429,-33 429,-39 429,-39 429,-79 429,-79 429,-85 423,-91 417,-91 417,-91 335,-91 335,-91 329,-91 323,-85 323,-79 323,-79 323,-39 323,-39 323,-33 329,-27 335,-27"/>
<text text-anchor="start" x="374" y="-12.8" font-family="Arial" font-weight="bold" font-size="14.00"> </text>
</g>
<!-- 5&#45;&gt;6 -->
<g id="edge5" class="edge">
<title>5&#45;&gt;6</title>
<path fill="none" stroke="#888888" d="M377.85,-153.67C377.69,-145.39 377.52,-136.83 377.35,-128.38"/>
<polygon fill="#888888" stroke="#888888" points="380.84,-128.11 377.15,-118.18 373.85,-128.24 380.84,-128.11"/>
</g>
<!-- 7 -->
<g id="node7" class="node">
<title>7</title>
<text text-anchor="start" x="503.5" y="-99.8" font-family="Arial" font-weight="bold" font-size="14.00"> ≥ 9.995</text>
<path fill="#f8766d" fill-opacity="0.376471" stroke="transparent" d="M483,-27C483,-27 573,-27 573,-27 579,-27 585,-33 585,-39 585,-39 585,-79 585,-79 585,-85 579,-91 573,-91 573,-91 483,-91 483,-91 477,-91 471,-85 471,-79 471,-79 471,-39 471,-39 471,-33 477,-27 483,-27"/>
<text text-anchor="start" x="472" y="-88.4" font-family="Arial" font-size="2.00"> </text>
<text text-anchor="start" x="472" y="-82.4" font-family="Arial" font-size="7.00"> &#160;7</text>
<text text-anchor="start" x="486" y="-65.8" font-family="Arial" font-weight="bold" font-size="14.00">Predict 10.03</text>
<text text-anchor="start" x="508" y="-48.8" font-family="Arial" font-weight="bold" font-size="14.00">n = 42</text>
<text text-anchor="start" x="526.5" y="-30.8" font-family="Arial" font-size="9.00"> </text>
<path fill="none" stroke="#333333" d="M483,-27C483,-27 573,-27 573,-27 579,-27 585,-33 585,-39 585,-39 585,-79 585,-79 585,-85 579,-91 573,-91 573,-91 483,-91 483,-91 477,-91 471,-85 471,-79 471,-79 471,-39 471,-39 471,-33 477,-27 483,-27"/>
<text text-anchor="start" x="526" y="-12.8" font-family="Arial" font-weight="bold" font-size="14.00"> </text>
</g>
<!-- 5&#45;&gt;7 -->
<g id="edge6" class="edge">
<title>5&#45;&gt;7</title>
<path fill="none" stroke="#888888" d="M436.18,-153.67C445.27,-144.39 454.73,-134.75 463.96,-125.33"/>
<polygon fill="#888888" stroke="#888888" points="466.47,-127.77 470.97,-118.18 461.47,-122.87 466.47,-127.77"/>
</g>
</g>
</svg>
