<?xml version="1.0" encoding="utf-8"?>
<svg xmlns="http://www.w3.org/2000/svg" xmlns:xlink="http://www.w3.org/1999/xlink" width="1000" height="400" viewBox="0 0 4000 1600">
<defs>
  <clipPath id="clip150">
    <rect x="0" y="0" width="4000" height="1600"/>
  </clipPath>
</defs>
<path clip-path="url(#clip150)" d="M0 1600 L4000 1600 L4000 0 L0 0  Z" fill="#ffffff" fill-rule="evenodd" fill-opacity="1"/>
<defs>
  <clipPath id="clip151">
    <rect x="800" y="0" width="2801" height="1600"/>
  </clipPath>
</defs>
<path clip-path="url(#clip150)" d="M237.055 1497.68 L3184.67 1497.68 L3184.67 47.2441 L237.055 47.2441  Z" fill="#ffffff" fill-rule="evenodd" fill-opacity="1"/>
<defs>
  <clipPath id="clip152">
    <rect x="237" y="47" width="2949" height="1451"/>
  </clipPath>
</defs>
<polyline clip-path="url(#clip152)" style="stroke:#000000; stroke-linecap:round; stroke-linejoin:round; stroke-width:2; stroke-opacity:0.1; fill:none" points="320.479,1497.68 320.479,47.2441 "/>
<polyline clip-path="url(#clip152)" style="stroke:#000000; stroke-linecap:round; stroke-linejoin:round; stroke-width:2; stroke-opacity:0.1; fill:none" points="1119.74,1497.68 1119.74,47.2441 "/>
<polyline clip-path="url(#clip152)" style="stroke:#000000; stroke-linecap:round; stroke-linejoin:round; stroke-width:2; stroke-opacity:0.1; fill:none" points="1919.01,1497.68 1919.01,47.2441 "/>
<polyline clip-path="url(#clip152)" style="stroke:#000000; stroke-linecap:round; stroke-linejoin:round; stroke-width:2; stroke-opacity:0.1; fill:none" points="2718.27,1497.68 2718.27,47.2441 "/>
<polyline clip-path="url(#clip150)" style="stroke:#000000; stroke-linecap:round; stroke-linejoin:round; stroke-width:4; stroke-opacity:1; fill:none" points="237.055,1497.68 3184.67,1497.68 "/>
<polyline clip-path="url(#clip150)" style="stroke:#000000; stroke-linecap:round; stroke-linejoin:round; stroke-width:4; stroke-opacity:1; fill:none" points="320.479,1497.68 320.479,1478.78 "/>
<polyline clip-path="url(#clip150)" style="stroke:#000000; stroke-linecap:round; stroke-linejoin:round; stroke-width:4; stroke-opacity:1; fill:none" points="1119.74,1497.68 1119.74,1478.78 "/>
<polyline clip-path="url(#clip150)" style="stroke:#000000; stroke-linecap:round; stroke-linejoin:round; stroke-width:4; stroke-opacity:1; fill:none" points="1919.01,1497.68 1919.01,1478.78 "/>
<polyline clip-path="url(#clip150)" style="stroke:#000000; stroke-linecap:round; stroke-linejoin:round; stroke-width:4; stroke-opacity:1; fill:none" points="2718.27,1497.68 2718.27,1478.78 "/>
<path clip-path="url(#clip150)" d="M176.065 1573.85 L194.425 1573.85 L194.425 1578.28 L169.737 1578.28 L169.737 1573.85 Q172.732 1570.75 177.888 1565.55 Q183.071 1560.31 184.399 1558.8 Q186.925 1555.96 187.914 1554.01 Q188.93 1552.03 188.93 1550.13 Q188.93 1547.03 186.742 1545.08 Q184.581 1543.12 181.091 1543.12 Q178.617 1543.12 175.857 1543.98 Q173.123 1544.84 169.998 1546.59 L169.998 1541.27 Q173.175 1540 175.935 1539.35 Q178.696 1538.7 180.987 1538.7 Q187.029 1538.7 190.623 1541.72 Q194.216 1544.74 194.216 1549.79 Q194.216 1552.19 193.305 1554.35 Q192.419 1556.48 190.05 1559.4 Q189.399 1560.15 185.909 1563.77 Q182.42 1567.37 176.065 1573.85 Z" fill="#000000" fill-rule="nonzero" fill-opacity="1" /><path clip-path="url(#clip150)" d="M216.716 1542.86 Q212.654 1542.86 210.596 1546.87 Q208.565 1550.86 208.565 1558.88 Q208.565 1566.87 210.596 1570.88 Q212.654 1574.87 216.716 1574.87 Q220.805 1574.87 222.836 1570.88 Q224.893 1566.87 224.893 1558.88 Q224.893 1550.86 222.836 1546.87 Q220.805 1542.86 216.716 1542.86 M216.716 1538.7 Q223.253 1538.7 226.69 1543.88 Q230.154 1549.04 230.154 1558.88 Q230.154 1568.7 226.69 1573.88 Q223.253 1579.04 216.716 1579.04 Q210.18 1579.04 206.716 1573.88 Q203.279 1568.7 203.279 1558.88 Q203.279 1549.04 206.716 1543.88 Q210.18 1538.7 216.716 1538.7 Z" fill="#000000" fill-rule="nonzero" fill-opacity="1" /><path clip-path="url(#clip150)" d="M243.93 1573.85 L262.289 1573.85 L262.289 1578.28 L237.602 1578.28 L237.602 1573.85 Q240.596 1570.75 245.753 1565.55 Q250.935 1560.31 252.263 1558.8 Q254.789 1555.96 255.778 1554.01 Q256.794 1552.03 256.794 1550.13 Q256.794 1547.03 254.607 1545.08 Q252.445 1543.12 248.956 1543.12 Q246.482 1543.12 243.721 1543.98 Q240.987 1544.84 237.862 1546.59 L237.862 1541.27 Q241.039 1540 243.799 1539.35 Q246.56 1538.7 248.851 1538.7 Q254.893 1538.7 258.487 1541.72 Q262.081 1544.74 262.081 1549.79 Q262.081 1552.19 261.169 1554.35 Q260.284 1556.48 257.914 1559.4 Q257.263 1560.15 253.773 1563.77 Q250.284 1567.37 243.93 1573.85 Z" fill="#000000" fill-rule="nonzero" fill-opacity="1" /><path clip-path="url(#clip150)" d="M289.268 1557.32 Q293.044 1558.12 295.153 1560.68 Q297.289 1563.23 297.289 1566.98 Q297.289 1572.73 293.33 1575.88 Q289.372 1579.04 282.08 1579.04 Q279.633 1579.04 277.028 1578.54 Q274.45 1578.07 271.69 1577.11 L271.69 1572.03 Q273.877 1573.31 276.482 1573.96 Q279.086 1574.61 281.924 1574.61 Q286.872 1574.61 289.45 1572.65 Q292.054 1570.7 292.054 1566.98 Q292.054 1563.54 289.632 1561.61 Q287.237 1559.66 282.94 1559.66 L278.409 1559.66 L278.409 1555.34 L283.148 1555.34 Q287.028 1555.34 289.086 1553.8 Q291.143 1552.24 291.143 1549.32 Q291.143 1546.33 289.007 1544.74 Q286.898 1543.12 282.94 1543.12 Q280.778 1543.12 278.304 1543.59 Q275.83 1544.06 272.862 1545.05 L272.862 1540.36 Q275.857 1539.53 278.461 1539.11 Q281.091 1538.7 283.409 1538.7 Q289.398 1538.7 292.888 1541.43 Q296.377 1544.14 296.377 1548.77 Q296.377 1552 294.528 1554.24 Q292.679 1556.46 289.268 1557.32 Z" fill="#000000" fill-rule="nonzero" fill-opacity="1" /><path clip-path="url(#clip150)" d="M304.164 1561.54 L318.2 1561.54 L318.2 1565.81 L304.164 1565.81 L304.164 1561.54 Z" fill="#000000" fill-rule="nonzero" fill-opacity="1" /><path clip-path="url(#clip150)" d="M337.757 1542.86 Q333.695 1542.86 331.637 1546.87 Q329.606 1550.86 329.606 1558.88 Q329.606 1566.87 331.637 1570.88 Q333.695 1574.87 337.757 1574.87 Q341.846 1574.87 343.877 1570.88 Q345.934 1566.87 345.934 1558.88 Q345.934 1550.86 343.877 1546.87 Q341.846 1542.86 337.757 1542.86 M337.757 1538.7 Q344.294 1538.7 347.731 1543.88 Q351.195 1549.04 351.195 1558.88 Q351.195 1568.7 347.731 1573.88 Q344.294 1579.04 337.757 1579.04 Q331.221 1579.04 327.757 1573.88 Q324.32 1568.7 324.32 1558.88 Q324.32 1549.04 327.757 1543.88 Q331.221 1538.7 337.757 1538.7 Z" fill="#000000" fill-rule="nonzero" fill-opacity="1" /><path clip-path="url(#clip150)" d="M364.971 1573.85 L383.33 1573.85 L383.33 1578.28 L358.643 1578.28 L358.643 1573.85 Q361.637 1570.75 366.794 1565.55 Q371.976 1560.31 373.304 1558.8 Q375.83 1555.96 376.82 1554.01 Q377.835 1552.03 377.835 1550.13 Q377.835 1547.03 375.648 1545.08 Q373.486 1543.12 369.997 1543.12 Q367.523 1543.12 364.762 1543.98 Q362.028 1544.84 358.903 1546.59 L358.903 1541.27 Q362.08 1540 364.84 1539.35 Q367.601 1538.7 369.892 1538.7 Q375.934 1538.7 379.528 1541.72 Q383.122 1544.74 383.122 1549.79 Q383.122 1552.19 382.21 1554.35 Q381.325 1556.48 378.955 1559.4 Q378.304 1560.15 374.814 1563.77 Q371.325 1567.37 364.971 1573.85 Z" fill="#000000" fill-rule="nonzero" fill-opacity="1" /><path clip-path="url(#clip150)" d="M391.273 1561.54 L405.309 1561.54 L405.309 1565.81 L391.273 1565.81 L391.273 1561.54 Z" fill="#000000" fill-rule="nonzero" fill-opacity="1" /><path clip-path="url(#clip150)" d="M418.147 1573.85 L436.507 1573.85 L436.507 1578.28 L411.819 1578.28 L411.819 1573.85 Q414.814 1570.75 419.97 1565.55 Q425.153 1560.31 426.481 1558.8 Q429.007 1555.96 429.996 1554.01 Q431.012 1552.03 431.012 1550.13 Q431.012 1547.03 428.824 1545.08 Q426.663 1543.12 423.173 1543.12 Q420.699 1543.12 417.939 1543.98 Q415.205 1544.84 412.08 1546.59 L412.08 1541.27 Q415.257 1540 418.017 1539.35 Q420.778 1538.7 423.069 1538.7 Q429.111 1538.7 432.705 1541.72 Q436.298 1544.74 436.298 1549.79 Q436.298 1552.19 435.387 1554.35 Q434.501 1556.48 432.132 1559.4 Q431.481 1560.15 427.991 1563.77 Q424.502 1567.37 418.147 1573.85 Z" fill="#000000" fill-rule="nonzero" fill-opacity="1" /><path clip-path="url(#clip150)" d="M446.22 1539.4 L471.22 1539.4 L471.22 1541.64 L457.106 1578.28 L451.611 1578.28 L464.892 1543.83 L446.22 1543.83 L446.22 1539.4 Z" fill="#000000" fill-rule="nonzero" fill-opacity="1" /><path clip-path="url(#clip150)" d="M975.512 1573.85 L993.871 1573.85 L993.871 1578.28 L969.184 1578.28 L969.184 1573.85 Q972.178 1570.75 977.335 1565.55 Q982.517 1560.31 983.845 1558.8 Q986.371 1555.96 987.361 1554.01 Q988.376 1552.03 988.376 1550.13 Q988.376 1547.03 986.189 1545.08 Q984.027 1543.12 980.538 1543.12 Q978.064 1543.12 975.303 1543.98 Q972.569 1544.84 969.444 1546.59 L969.444 1541.27 Q972.621 1540 975.381 1539.35 Q978.142 1538.7 980.433 1538.7 Q986.475 1538.7 990.069 1541.72 Q993.663 1544.74 993.663 1549.79 Q993.663 1552.19 992.751 1554.35 Q991.866 1556.48 989.496 1559.4 Q988.845 1560.15 985.355 1563.77 Q981.866 1567.37 975.512 1573.85 Z" fill="#000000" fill-rule="nonzero" fill-opacity="1" /><path clip-path="url(#clip150)" d="M1016.16 1542.86 Q1012.1 1542.86 1010.04 1546.87 Q1008.01 1550.86 1008.01 1558.88 Q1008.01 1566.87 1010.04 1570.88 Q1012.1 1574.87 1016.16 1574.87 Q1020.25 1574.87 1022.28 1570.88 Q1024.34 1566.87 1024.34 1558.88 Q1024.34 1550.86 1022.28 1546.87 Q1020.25 1542.86 1016.16 1542.86 M1016.16 1538.7 Q1022.7 1538.7 1026.14 1543.88 Q1029.6 1549.04 1029.6 1558.88 Q1029.6 1568.7 1026.14 1573.88 Q1022.7 1579.04 1016.16 1579.04 Q1009.63 1579.04 1006.16 1573.88 Q1002.73 1568.7 1002.73 1558.88 Q1002.73 1549.04 1006.16 1543.88 Q1009.63 1538.7 1016.16 1538.7 Z" fill="#000000" fill-rule="nonzero" fill-opacity="1" /><path clip-path="url(#clip150)" d="M1043.38 1573.85 L1061.74 1573.85 L1061.74 1578.28 L1037.05 1578.28 L1037.05 1573.85 Q1040.04 1570.75 1045.2 1565.55 Q1050.38 1560.31 1051.71 1558.8 Q1054.24 1555.96 1055.22 1554.01 Q1056.24 1552.03 1056.24 1550.13 Q1056.24 1547.03 1054.05 1545.08 Q1051.89 1543.12 1048.4 1543.12 Q1045.93 1543.12 1043.17 1543.98 Q1040.43 1544.84 1037.31 1546.59 L1037.31 1541.27 Q1040.49 1540 1043.25 1539.35 Q1046.01 1538.7 1048.3 1538.7 Q1054.34 1538.7 1057.93 1541.72 Q1061.53 1544.74 1061.53 1549.79 Q1061.53 1552.19 1060.62 1554.35 Q1059.73 1556.48 1057.36 1559.4 Q1056.71 1560.15 1053.22 1563.77 Q1049.73 1567.37 1043.38 1573.85 Z" fill="#000000" fill-rule="nonzero" fill-opacity="1" /><path clip-path="url(#clip150)" d="M1088.71 1557.32 Q1092.49 1558.12 1094.6 1560.68 Q1096.73 1563.23 1096.73 1566.98 Q1096.73 1572.73 1092.78 1575.88 Q1088.82 1579.04 1081.53 1579.04 Q1079.08 1579.04 1076.47 1578.54 Q1073.9 1578.07 1071.14 1577.11 L1071.14 1572.03 Q1073.32 1573.31 1075.93 1573.96 Q1078.53 1574.61 1081.37 1574.61 Q1086.32 1574.61 1088.9 1572.65 Q1091.5 1570.7 1091.5 1566.98 Q1091.5 1563.54 1089.08 1561.61 Q1086.68 1559.66 1082.39 1559.66 L1077.85 1559.66 L1077.85 1555.34 L1082.59 1555.34 Q1086.47 1555.34 1088.53 1553.8 Q1090.59 1552.24 1090.59 1549.32 Q1090.59 1546.33 1088.45 1544.74 Q1086.34 1543.12 1082.39 1543.12 Q1080.22 1543.12 1077.75 1543.59 Q1075.28 1544.06 1072.31 1545.05 L1072.31 1540.36 Q1075.3 1539.53 1077.91 1539.11 Q1080.54 1538.7 1082.85 1538.7 Q1088.84 1538.7 1092.33 1541.43 Q1095.82 1544.14 1095.82 1548.77 Q1095.82 1552 1093.97 1554.24 Q1092.13 1556.46 1088.71 1557.32 Z" fill="#000000" fill-rule="nonzero" fill-opacity="1" /><path clip-path="url(#clip150)" d="M1103.61 1561.54 L1117.65 1561.54 L1117.65 1565.81 L1103.61 1565.81 L1103.61 1561.54 Z" fill="#000000" fill-rule="nonzero" fill-opacity="1" /><path clip-path="url(#clip150)" d="M1137.2 1542.86 Q1133.14 1542.86 1131.08 1546.87 Q1129.05 1550.86 1129.05 1558.88 Q1129.05 1566.87 1131.08 1570.88 Q1133.14 1574.87 1137.2 1574.87 Q1141.29 1574.87 1143.32 1570.88 Q1145.38 1566.87 1145.38 1558.88 Q1145.38 1550.86 1143.32 1546.87 Q1141.29 1542.86 1137.2 1542.86 M1137.2 1538.7 Q1143.74 1538.7 1147.18 1543.88 Q1150.64 1549.04 1150.64 1558.88 Q1150.64 1568.7 1147.18 1573.88 Q1143.74 1579.04 1137.2 1579.04 Q1130.67 1579.04 1127.2 1573.88 Q1123.77 1568.7 1123.77 1558.88 Q1123.77 1549.04 1127.2 1543.88 Q1130.67 1538.7 1137.2 1538.7 Z" fill="#000000" fill-rule="nonzero" fill-opacity="1" /><path clip-path="url(#clip150)" d="M1175.82 1557.32 Q1179.6 1558.12 1181.71 1560.68 Q1183.84 1563.23 1183.84 1566.98 Q1183.84 1572.73 1179.89 1575.88 Q1175.93 1579.04 1168.64 1579.04 Q1166.19 1579.04 1163.58 1578.54 Q1161.01 1578.07 1158.25 1577.11 L1158.25 1572.03 Q1160.43 1573.31 1163.04 1573.96 Q1165.64 1574.61 1168.48 1574.61 Q1173.43 1574.61 1176.01 1572.65 Q1178.61 1570.7 1178.61 1566.98 Q1178.61 1563.54 1176.19 1561.61 Q1173.79 1559.66 1169.49 1559.66 L1164.96 1559.66 L1164.96 1555.34 L1169.7 1555.34 Q1173.58 1555.34 1175.64 1553.8 Q1177.7 1552.24 1177.7 1549.32 Q1177.7 1546.33 1175.56 1544.74 Q1173.45 1543.12 1169.49 1543.12 Q1167.33 1543.12 1164.86 1543.59 Q1162.39 1544.06 1159.42 1545.05 L1159.42 1540.36 Q1162.41 1539.53 1165.02 1539.11 Q1167.65 1538.7 1169.96 1538.7 Q1175.95 1538.7 1179.44 1541.43 Q1182.93 1544.14 1182.93 1548.77 Q1182.93 1552 1181.08 1554.24 Q1179.23 1556.46 1175.82 1557.32 Z" fill="#000000" fill-rule="nonzero" fill-opacity="1" /><path clip-path="url(#clip150)" d="M1190.72 1561.54 L1204.76 1561.54 L1204.76 1565.81 L1190.72 1565.81 L1190.72 1561.54 Z" fill="#000000" fill-rule="nonzero" fill-opacity="1" /><path clip-path="url(#clip150)" d="M1224.31 1542.86 Q1220.25 1542.86 1218.19 1546.87 Q1216.16 1550.86 1216.16 1558.88 Q1216.16 1566.87 1218.19 1570.88 Q1220.25 1574.87 1224.31 1574.87 Q1228.4 1574.87 1230.43 1570.88 Q1232.49 1566.87 1232.49 1558.88 Q1232.49 1550.86 1230.43 1546.87 Q1228.4 1542.86 1224.31 1542.86 M1224.31 1538.7 Q1230.85 1538.7 1234.29 1543.88 Q1237.75 1549.04 1237.75 1558.88 Q1237.75 1568.7 1234.29 1573.88 Q1230.85 1579.04 1224.31 1579.04 Q1217.78 1579.04 1214.31 1573.88 Q1210.87 1568.7 1210.87 1558.88 Q1210.87 1549.04 1214.31 1543.88 Q1217.78 1538.7 1224.31 1538.7 Z" fill="#000000" fill-rule="nonzero" fill-opacity="1" /><path clip-path="url(#clip150)" d="M1247.91 1573.85 L1256.5 1573.85 L1256.5 1544.19 L1247.15 1546.07 L1247.15 1541.27 L1256.45 1539.4 L1261.71 1539.4 L1261.71 1573.85 L1270.3 1573.85 L1270.3 1578.28 L1247.91 1578.28 L1247.91 1573.85 Z" fill="#000000" fill-rule="nonzero" fill-opacity="1" /><path clip-path="url(#clip150)" d="M1774.45 1573.85 L1792.81 1573.85 L1792.81 1578.28 L1768.12 1578.28 L1768.12 1573.85 Q1771.12 1570.75 1776.27 1565.55 Q1781.46 1560.31 1782.78 1558.8 Q1785.31 1555.96 1786.3 1554.01 Q1787.31 1552.03 1787.31 1550.13 Q1787.31 1547.03 1785.13 1545.08 Q1782.97 1543.12 1779.48 1543.12 Q1777 1543.12 1774.24 1543.98 Q1771.51 1544.84 1768.38 1546.59 L1768.38 1541.27 Q1771.56 1540 1774.32 1539.35 Q1777.08 1538.7 1779.37 1538.7 Q1785.41 1538.7 1789.01 1541.72 Q1792.6 1544.74 1792.6 1549.79 Q1792.6 1552.19 1791.69 1554.35 Q1790.8 1556.48 1788.43 1559.4 Q1787.78 1560.15 1784.29 1563.77 Q1780.8 1567.37 1774.45 1573.85 Z" fill="#000000" fill-rule="nonzero" fill-opacity="1" /><path clip-path="url(#clip150)" d="M1815.1 1542.86 Q1811.04 1542.86 1808.98 1546.87 Q1806.95 1550.86 1806.95 1558.88 Q1806.95 1566.87 1808.98 1570.88 Q1811.04 1574.87 1815.1 1574.87 Q1819.19 1574.87 1821.22 1570.88 Q1823.28 1566.87 1823.28 1558.88 Q1823.28 1550.86 1821.22 1546.87 Q1819.19 1542.86 1815.1 1542.86 M1815.1 1538.7 Q1821.64 1538.7 1825.07 1543.88 Q1828.54 1549.04 1828.54 1558.88 Q1828.54 1568.7 1825.07 1573.88 Q1821.64 1579.04 1815.1 1579.04 Q1808.56 1579.04 1805.1 1573.88 Q1801.66 1568.7 1801.66 1558.88 Q1801.66 1549.04 1805.1 1543.88 Q1808.56 1538.7 1815.1 1538.7 Z" fill="#000000" fill-rule="nonzero" fill-opacity="1" /><path clip-path="url(#clip150)" d="M1842.31 1573.85 L1860.67 1573.85 L1860.67 1578.28 L1835.99 1578.28 L1835.99 1573.85 Q1838.98 1570.75 1844.14 1565.55 Q1849.32 1560.31 1850.65 1558.8 Q1853.17 1555.96 1854.16 1554.01 Q1855.18 1552.03 1855.18 1550.13 Q1855.18 1547.03 1852.99 1545.08 Q1850.83 1543.12 1847.34 1543.12 Q1844.87 1543.12 1842.11 1543.98 Q1839.37 1544.84 1836.25 1546.59 L1836.25 1541.27 Q1839.42 1540 1842.18 1539.35 Q1844.94 1538.7 1847.24 1538.7 Q1853.28 1538.7 1856.87 1541.72 Q1860.47 1544.74 1860.47 1549.79 Q1860.47 1552.19 1859.55 1554.35 Q1858.67 1556.48 1856.3 1559.4 Q1855.65 1560.15 1852.16 1563.77 Q1848.67 1567.37 1842.31 1573.85 Z" fill="#000000" fill-rule="nonzero" fill-opacity="1" /><path clip-path="url(#clip150)" d="M1887.65 1557.32 Q1891.43 1558.12 1893.54 1560.68 Q1895.67 1563.23 1895.67 1566.98 Q1895.67 1572.73 1891.72 1575.88 Q1887.76 1579.04 1880.47 1579.04 Q1878.02 1579.04 1875.41 1578.54 Q1872.83 1578.07 1870.07 1577.11 L1870.07 1572.03 Q1872.26 1573.31 1874.87 1573.96 Q1877.47 1574.61 1880.31 1574.61 Q1885.26 1574.61 1887.83 1572.65 Q1890.44 1570.7 1890.44 1566.98 Q1890.44 1563.54 1888.02 1561.61 Q1885.62 1559.66 1881.32 1559.66 L1876.79 1559.66 L1876.79 1555.34 L1881.53 1555.34 Q1885.41 1555.34 1887.47 1553.8 Q1889.53 1552.24 1889.53 1549.32 Q1889.53 1546.33 1887.39 1544.74 Q1885.28 1543.12 1881.32 1543.12 Q1879.16 1543.12 1876.69 1543.59 Q1874.22 1544.06 1871.25 1545.05 L1871.25 1540.36 Q1874.24 1539.53 1876.85 1539.11 Q1879.48 1538.7 1881.79 1538.7 Q1887.78 1538.7 1891.27 1541.43 Q1894.76 1544.14 1894.76 1548.77 Q1894.76 1552 1892.91 1554.24 Q1891.06 1556.46 1887.65 1557.32 Z" fill="#000000" fill-rule="nonzero" fill-opacity="1" /><path clip-path="url(#clip150)" d="M1902.55 1561.54 L1916.58 1561.54 L1916.58 1565.81 L1902.55 1565.81 L1902.55 1561.54 Z" fill="#000000" fill-rule="nonzero" fill-opacity="1" /><path clip-path="url(#clip150)" d="M1936.14 1542.86 Q1932.08 1542.86 1930.02 1546.87 Q1927.99 1550.86 1927.99 1558.88 Q1927.99 1566.87 1930.02 1570.88 Q1932.08 1574.87 1936.14 1574.87 Q1940.23 1574.87 1942.26 1570.88 Q1944.32 1566.87 1944.32 1558.88 Q1944.32 1550.86 1942.26 1546.87 Q1940.23 1542.86 1936.14 1542.86 M1936.14 1538.7 Q1942.68 1538.7 1946.12 1543.88 Q1949.58 1549.04 1949.58 1558.88 Q1949.58 1568.7 1946.12 1573.88 Q1942.68 1579.04 1936.14 1579.04 Q1929.61 1579.04 1926.14 1573.88 Q1922.7 1568.7 1922.7 1558.88 Q1922.7 1549.04 1926.14 1543.88 Q1929.61 1538.7 1936.14 1538.7 Z" fill="#000000" fill-rule="nonzero" fill-opacity="1" /><path clip-path="url(#clip150)" d="M1974.76 1557.32 Q1978.54 1558.12 1980.65 1560.68 Q1982.78 1563.23 1982.78 1566.98 Q1982.78 1572.73 1978.82 1575.88 Q1974.87 1579.04 1967.57 1579.04 Q1965.13 1579.04 1962.52 1578.54 Q1959.94 1578.07 1957.18 1577.11 L1957.18 1572.03 Q1959.37 1573.31 1961.98 1573.96 Q1964.58 1574.61 1967.42 1574.61 Q1972.37 1574.61 1974.94 1572.65 Q1977.55 1570.7 1977.55 1566.98 Q1977.55 1563.54 1975.13 1561.61 Q1972.73 1559.66 1968.43 1559.66 L1963.9 1559.66 L1963.9 1555.34 L1968.64 1555.34 Q1972.52 1555.34 1974.58 1553.8 Q1976.64 1552.24 1976.64 1549.32 Q1976.64 1546.33 1974.5 1544.74 Q1972.39 1543.12 1968.43 1543.12 Q1966.27 1543.12 1963.8 1543.59 Q1961.32 1544.06 1958.36 1545.05 L1958.36 1540.36 Q1961.35 1539.53 1963.95 1539.11 Q1966.58 1538.7 1968.9 1538.7 Q1974.89 1538.7 1978.38 1541.43 Q1981.87 1544.14 1981.87 1548.77 Q1981.87 1552 1980.02 1554.24 Q1978.17 1556.46 1974.76 1557.32 Z" fill="#000000" fill-rule="nonzero" fill-opacity="1" /><path clip-path="url(#clip150)" d="M1989.66 1561.54 L2003.69 1561.54 L2003.69 1565.81 L1989.66 1565.81 L1989.66 1561.54 Z" fill="#000000" fill-rule="nonzero" fill-opacity="1" /><path clip-path="url(#clip150)" d="M2023.25 1542.86 Q2019.19 1542.86 2017.13 1546.87 Q2015.1 1550.86 2015.1 1558.88 Q2015.1 1566.87 2017.13 1570.88 Q2019.19 1574.87 2023.25 1574.87 Q2027.34 1574.87 2029.37 1570.88 Q2031.43 1566.87 2031.43 1558.88 Q2031.43 1550.86 2029.37 1546.87 Q2027.34 1542.86 2023.25 1542.86 M2023.25 1538.7 Q2029.79 1538.7 2033.22 1543.88 Q2036.69 1549.04 2036.69 1558.88 Q2036.69 1568.7 2033.22 1573.88 Q2029.79 1579.04 2023.25 1579.04 Q2016.71 1579.04 2013.25 1573.88 Q2009.81 1568.7 2009.81 1558.88 Q2009.81 1549.04 2013.25 1543.88 Q2016.71 1538.7 2023.25 1538.7 Z" fill="#000000" fill-rule="nonzero" fill-opacity="1" /><path clip-path="url(#clip150)" d="M2061.87 1557.32 Q2065.65 1558.12 2067.76 1560.68 Q2069.89 1563.23 2069.89 1566.98 Q2069.89 1572.73 2065.93 1575.88 Q2061.97 1579.04 2054.68 1579.04 Q2052.24 1579.04 2049.63 1578.54 Q2047.05 1578.07 2044.29 1577.11 L2044.29 1572.03 Q2046.48 1573.31 2049.08 1573.96 Q2051.69 1574.61 2054.53 1574.61 Q2059.47 1574.61 2062.05 1572.65 Q2064.66 1570.7 2064.66 1566.98 Q2064.66 1563.54 2062.24 1561.61 Q2059.84 1559.66 2055.54 1559.66 L2051.01 1559.66 L2051.01 1555.34 L2055.75 1555.34 Q2059.63 1555.34 2061.69 1553.8 Q2063.75 1552.24 2063.75 1549.32 Q2063.75 1546.33 2061.61 1544.74 Q2059.5 1543.12 2055.54 1543.12 Q2053.38 1543.12 2050.91 1543.59 Q2048.43 1544.06 2045.46 1545.05 L2045.46 1540.36 Q2048.46 1539.53 2051.06 1539.11 Q2053.69 1538.7 2056.01 1538.7 Q2062 1538.7 2065.49 1541.43 Q2068.98 1544.14 2068.98 1548.77 Q2068.98 1552 2067.13 1554.24 Q2065.28 1556.46 2061.87 1557.32 Z" fill="#000000" fill-rule="nonzero" fill-opacity="1" /><path clip-path="url(#clip150)" d="M2573.91 1573.85 L2592.27 1573.85 L2592.27 1578.28 L2567.58 1578.28 L2567.58 1573.85 Q2570.58 1570.75 2575.73 1565.55 Q2580.91 1560.31 2582.24 1558.8 Q2584.77 1555.96 2585.76 1554.01 Q2586.77 1552.03 2586.77 1550.13 Q2586.77 1547.03 2584.59 1545.08 Q2582.42 1543.12 2578.94 1543.12 Q2576.46 1543.12 2573.7 1543.98 Q2570.97 1544.84 2567.84 1546.59 L2567.84 1541.27 Q2571.02 1540 2573.78 1539.35 Q2576.54 1538.7 2578.83 1538.7 Q2584.87 1538.7 2588.47 1541.72 Q2592.06 1544.74 2592.06 1549.79 Q2592.06 1552.19 2591.15 1554.35 Q2590.26 1556.48 2587.89 1559.4 Q2587.24 1560.15 2583.75 1563.77 Q2580.26 1567.37 2573.91 1573.85 Z" fill="#000000" fill-rule="nonzero" fill-opacity="1" /><path clip-path="url(#clip150)" d="M2614.56 1542.86 Q2610.5 1542.86 2608.44 1546.87 Q2606.41 1550.86 2606.41 1558.88 Q2606.41 1566.87 2608.44 1570.88 Q2610.5 1574.87 2614.56 1574.87 Q2618.65 1574.87 2620.68 1570.88 Q2622.74 1566.87 2622.74 1558.88 Q2622.74 1550.86 2620.68 1546.87 Q2618.65 1542.86 2614.56 1542.86 M2614.56 1538.7 Q2621.1 1538.7 2624.53 1543.88 Q2628 1549.04 2628 1558.88 Q2628 1568.7 2624.53 1573.88 Q2621.1 1579.04 2614.56 1579.04 Q2608.02 1579.04 2604.56 1573.88 Q2601.12 1568.7 2601.12 1558.88 Q2601.12 1549.04 2604.56 1543.88 Q2608.02 1538.7 2614.56 1538.7 Z" fill="#000000" fill-rule="nonzero" fill-opacity="1" /><path clip-path="url(#clip150)" d="M2641.77 1573.85 L2660.13 1573.85 L2660.13 1578.28 L2635.45 1578.28 L2635.45 1573.85 Q2638.44 1570.75 2643.6 1565.55 Q2648.78 1560.31 2650.11 1558.8 Q2652.63 1555.96 2653.62 1554.01 Q2654.64 1552.03 2654.64 1550.13 Q2654.64 1547.03 2652.45 1545.08 Q2650.29 1543.12 2646.8 1543.12 Q2644.33 1543.12 2641.57 1543.98 Q2638.83 1544.84 2635.71 1546.59 L2635.71 1541.27 Q2638.88 1540 2641.64 1539.35 Q2644.4 1538.7 2646.7 1538.7 Q2652.74 1538.7 2656.33 1541.72 Q2659.92 1544.74 2659.92 1549.79 Q2659.92 1552.19 2659.01 1554.35 Q2658.13 1556.48 2655.76 1559.4 Q2655.11 1560.15 2651.62 1563.77 Q2648.13 1567.37 2641.77 1573.85 Z" fill="#000000" fill-rule="nonzero" fill-opacity="1" /><path clip-path="url(#clip150)" d="M2687.11 1557.32 Q2690.89 1558.12 2693 1560.68 Q2695.13 1563.23 2695.13 1566.98 Q2695.13 1572.73 2691.17 1575.88 Q2687.22 1579.04 2679.92 1579.04 Q2677.48 1579.04 2674.87 1578.54 Q2672.29 1578.07 2669.53 1577.11 L2669.53 1572.03 Q2671.72 1573.31 2674.33 1573.96 Q2676.93 1574.61 2679.77 1574.61 Q2684.72 1574.61 2687.29 1572.65 Q2689.9 1570.7 2689.9 1566.98 Q2689.9 1563.54 2687.48 1561.61 Q2685.08 1559.66 2680.78 1559.66 L2676.25 1559.66 L2676.25 1555.34 L2680.99 1555.34 Q2684.87 1555.34 2686.93 1553.8 Q2688.99 1552.24 2688.99 1549.32 Q2688.99 1546.33 2686.85 1544.74 Q2684.74 1543.12 2680.78 1543.12 Q2678.62 1543.12 2676.15 1543.59 Q2673.67 1544.06 2670.71 1545.05 L2670.71 1540.36 Q2673.7 1539.53 2676.3 1539.11 Q2678.93 1538.7 2681.25 1538.7 Q2687.24 1538.7 2690.73 1541.43 Q2694.22 1544.14 2694.22 1548.77 Q2694.22 1552 2692.37 1554.24 Q2690.52 1556.46 2687.11 1557.32 Z" fill="#000000" fill-rule="nonzero" fill-opacity="1" /><path clip-path="url(#clip150)" d="M2702.01 1561.54 L2716.04 1561.54 L2716.04 1565.81 L2702.01 1565.81 L2702.01 1561.54 Z" fill="#000000" fill-rule="nonzero" fill-opacity="1" /><path clip-path="url(#clip150)" d="M2735.6 1542.86 Q2731.54 1542.86 2729.48 1546.87 Q2727.45 1550.86 2727.45 1558.88 Q2727.45 1566.87 2729.48 1570.88 Q2731.54 1574.87 2735.6 1574.87 Q2739.69 1574.87 2741.72 1570.88 Q2743.78 1566.87 2743.78 1558.88 Q2743.78 1550.86 2741.72 1546.87 Q2739.69 1542.86 2735.6 1542.86 M2735.6 1538.7 Q2742.14 1538.7 2745.58 1543.88 Q2749.04 1549.04 2749.04 1558.88 Q2749.04 1568.7 2745.58 1573.88 Q2742.14 1579.04 2735.6 1579.04 Q2729.06 1579.04 2725.6 1573.88 Q2722.16 1568.7 2722.16 1558.88 Q2722.16 1549.04 2725.6 1543.88 Q2729.06 1538.7 2735.6 1538.7 Z" fill="#000000" fill-rule="nonzero" fill-opacity="1" /><path clip-path="url(#clip150)" d="M2774.22 1557.32 Q2778 1558.12 2780.11 1560.68 Q2782.24 1563.23 2782.24 1566.98 Q2782.24 1572.73 2778.28 1575.88 Q2774.32 1579.04 2767.03 1579.04 Q2764.59 1579.04 2761.98 1578.54 Q2759.4 1578.07 2756.64 1577.11 L2756.64 1572.03 Q2758.83 1573.31 2761.43 1573.96 Q2764.04 1574.61 2766.88 1574.61 Q2771.82 1574.61 2774.4 1572.65 Q2777.01 1570.7 2777.01 1566.98 Q2777.01 1563.54 2774.59 1561.61 Q2772.19 1559.66 2767.89 1559.66 L2763.36 1559.66 L2763.36 1555.34 L2768.1 1555.34 Q2771.98 1555.34 2774.04 1553.8 Q2776.1 1552.24 2776.1 1549.32 Q2776.1 1546.33 2773.96 1544.74 Q2771.85 1543.12 2767.89 1543.12 Q2765.73 1543.12 2763.26 1543.59 Q2760.78 1544.06 2757.81 1545.05 L2757.81 1540.36 Q2760.81 1539.53 2763.41 1539.11 Q2766.04 1538.7 2768.36 1538.7 Q2774.35 1538.7 2777.84 1541.43 Q2781.33 1544.14 2781.33 1548.77 Q2781.33 1552 2779.48 1554.24 Q2777.63 1556.46 2774.22 1557.32 Z" fill="#000000" fill-rule="nonzero" fill-opacity="1" /><path clip-path="url(#clip150)" d="M2789.12 1561.54 L2803.15 1561.54 L2803.15 1565.81 L2789.12 1565.81 L2789.12 1561.54 Z" fill="#000000" fill-rule="nonzero" fill-opacity="1" /><path clip-path="url(#clip150)" d="M2822.71 1542.86 Q2818.65 1542.86 2816.59 1546.87 Q2814.56 1550.86 2814.56 1558.88 Q2814.56 1566.87 2816.59 1570.88 Q2818.65 1574.87 2822.71 1574.87 Q2826.8 1574.87 2828.83 1570.88 Q2830.89 1566.87 2830.89 1558.88 Q2830.89 1550.86 2828.83 1546.87 Q2826.8 1542.86 2822.71 1542.86 M2822.71 1538.7 Q2829.25 1538.7 2832.68 1543.88 Q2836.15 1549.04 2836.15 1558.88 Q2836.15 1568.7 2832.68 1573.88 Q2829.25 1579.04 2822.71 1579.04 Q2816.17 1579.04 2812.71 1573.88 Q2809.27 1568.7 2809.27 1558.88 Q2809.27 1549.04 2812.71 1543.88 Q2816.17 1538.7 2822.71 1538.7 Z" fill="#000000" fill-rule="nonzero" fill-opacity="1" /><path clip-path="url(#clip150)" d="M2845.44 1539.4 L2866.1 1539.4 L2866.1 1543.83 L2850.26 1543.83 L2850.26 1553.36 Q2851.41 1552.97 2852.55 1552.79 Q2853.7 1552.58 2854.85 1552.58 Q2861.36 1552.58 2865.16 1556.14 Q2868.96 1559.71 2868.96 1565.81 Q2868.96 1572.08 2865.05 1575.57 Q2861.15 1579.04 2854.04 1579.04 Q2851.59 1579.04 2849.04 1578.62 Q2846.51 1578.2 2843.8 1577.37 L2843.8 1572.08 Q2846.15 1573.36 2848.65 1573.98 Q2851.15 1574.61 2853.93 1574.61 Q2858.44 1574.61 2861.07 1572.24 Q2863.7 1569.87 2863.7 1565.81 Q2863.7 1561.74 2861.07 1559.37 Q2858.44 1557 2853.93 1557 Q2851.82 1557 2849.72 1557.47 Q2847.63 1557.94 2845.44 1558.93 L2845.44 1539.4 Z" fill="#000000" fill-rule="nonzero" fill-opacity="1" /><polyline clip-path="url(#clip152)" style="stroke:#000000; stroke-linecap:round; stroke-linejoin:round; stroke-width:2; stroke-opacity:0.1; fill:none" points="237.055,1360.6 3184.67,1360.6 "/>
<polyline clip-path="url(#clip152)" style="stroke:#000000; stroke-linecap:round; stroke-linejoin:round; stroke-width:2; stroke-opacity:0.1; fill:none" points="237.055,1097.45 3184.67,1097.45 "/>
<polyline clip-path="url(#clip152)" style="stroke:#000000; stroke-linecap:round; stroke-linejoin:round; stroke-width:2; stroke-opacity:0.1; fill:none" points="237.055,834.309 3184.67,834.309 "/>
<polyline clip-path="url(#clip152)" style="stroke:#000000; stroke-linecap:round; stroke-linejoin:round; stroke-width:2; stroke-opacity:0.1; fill:none" points="237.055,571.165 3184.67,571.165 "/>
<polyline clip-path="url(#clip152)" style="stroke:#000000; stroke-linecap:round; stroke-linejoin:round; stroke-width:2; stroke-opacity:0.1; fill:none" points="237.055,308.02 3184.67,308.02 "/>
<polyline clip-path="url(#clip150)" style="stroke:#000000; stroke-linecap:round; stroke-linejoin:round; stroke-width:4; stroke-opacity:1; fill:none" points="237.055,1497.68 237.055,47.2441 "/>
<polyline clip-path="url(#clip150)" style="stroke:#000000; stroke-linecap:round; stroke-linejoin:round; stroke-width:4; stroke-opacity:1; fill:none" points="237.055,1360.6 252.047,1360.6 "/>
<polyline clip-path="url(#clip150)" style="stroke:#000000; stroke-linecap:round; stroke-linejoin:round; stroke-width:4; stroke-opacity:1; fill:none" points="237.055,1097.45 252.047,1097.45 "/>
<polyline clip-path="url(#clip150)" style="stroke:#000000; stroke-linecap:round; stroke-linejoin:round; stroke-width:4; stroke-opacity:1; fill:none" points="237.055,834.309 252.047,834.309 "/>
<polyline clip-path="url(#clip150)" style="stroke:#000000; stroke-linecap:round; stroke-linejoin:round; stroke-width:4; stroke-opacity:1; fill:none" points="237.055,571.165 252.047,571.165 "/>
<polyline clip-path="url(#clip150)" style="stroke:#000000; stroke-linecap:round; stroke-linejoin:round; stroke-width:4; stroke-opacity:1; fill:none" points="237.055,308.02 252.047,308.02 "/>
<path clip-path="url(#clip150)" d="M130.337 1358.5 Q126.795 1358.5 124.712 1360.92 Q122.655 1363.35 122.655 1367.56 Q122.655 1371.76 124.712 1374.21 Q126.795 1376.63 130.337 1376.63 Q133.879 1376.63 135.936 1374.21 Q138.019 1371.76 138.019 1367.56 Q138.019 1363.35 135.936 1360.92 Q133.879 1358.5 130.337 1358.5 M140.78 1342.02 L140.78 1346.81 Q138.8 1345.87 136.769 1345.38 Q134.764 1344.88 132.785 1344.88 Q127.577 1344.88 124.816 1348.4 Q122.082 1351.91 121.691 1359.02 Q123.228 1356.76 125.545 1355.56 Q127.863 1354.34 130.649 1354.34 Q136.509 1354.34 139.894 1357.9 Q143.306 1361.44 143.306 1367.56 Q143.306 1373.55 139.764 1377.17 Q136.222 1380.79 130.337 1380.79 Q123.592 1380.79 120.025 1375.64 Q116.457 1370.46 116.457 1360.64 Q116.457 1351.42 120.832 1345.95 Q125.207 1340.46 132.577 1340.46 Q134.556 1340.46 136.561 1340.85 Q138.592 1341.24 140.78 1342.02 Z" fill="#000000" fill-rule="nonzero" fill-opacity="1" /><path clip-path="url(#clip150)" d="M163.618 1344.62 Q159.556 1344.62 157.498 1348.63 Q155.467 1352.62 155.467 1360.64 Q155.467 1368.63 157.498 1372.64 Q159.556 1376.63 163.618 1376.63 Q167.707 1376.63 169.738 1372.64 Q171.795 1368.63 171.795 1360.64 Q171.795 1352.62 169.738 1348.63 Q167.707 1344.62 163.618 1344.62 M163.618 1340.46 Q170.154 1340.46 173.592 1345.64 Q177.055 1350.79 177.055 1360.64 Q177.055 1370.46 173.592 1375.64 Q170.154 1380.79 163.618 1380.79 Q157.082 1380.79 153.618 1375.64 Q150.181 1370.46 150.181 1360.64 Q150.181 1350.79 153.618 1345.64 Q157.082 1340.46 163.618 1340.46 Z" fill="#000000" fill-rule="nonzero" fill-opacity="1" /><path clip-path="url(#clip150)" d="M117.108 1078.01 L142.108 1078.01 L142.108 1080.25 L127.993 1116.89 L122.498 1116.89 L135.78 1082.44 L117.108 1082.44 L117.108 1078.01 Z" fill="#000000" fill-rule="nonzero" fill-opacity="1" /><path clip-path="url(#clip150)" d="M163.618 1081.48 Q159.556 1081.48 157.498 1085.49 Q155.467 1089.47 155.467 1097.49 Q155.467 1105.49 157.498 1109.5 Q159.556 1113.48 163.618 1113.48 Q167.707 1113.48 169.738 1109.5 Q171.795 1105.49 171.795 1097.49 Q171.795 1089.47 169.738 1085.49 Q167.707 1081.48 163.618 1081.48 M163.618 1077.31 Q170.154 1077.31 173.592 1082.49 Q177.055 1087.65 177.055 1097.49 Q177.055 1107.31 173.592 1112.49 Q170.154 1117.65 163.618 1117.65 Q157.082 1117.65 153.618 1112.49 Q150.181 1107.31 150.181 1097.49 Q150.181 1087.65 153.618 1082.49 Q157.082 1077.31 163.618 1077.31 Z" fill="#000000" fill-rule="nonzero" fill-opacity="1" /><path clip-path="url(#clip150)" d="M129.686 835.286 Q125.936 835.286 123.775 837.291 Q121.639 839.296 121.639 842.812 Q121.639 846.327 123.775 848.333 Q125.936 850.338 129.686 850.338 Q133.436 850.338 135.597 848.333 Q137.759 846.301 137.759 842.812 Q137.759 839.296 135.597 837.291 Q133.462 835.286 129.686 835.286 M124.426 833.046 Q121.04 832.213 119.139 829.895 Q117.264 827.578 117.264 824.244 Q117.264 819.583 120.571 816.874 Q123.905 814.166 129.686 814.166 Q135.493 814.166 138.8 816.874 Q142.108 819.583 142.108 824.244 Q142.108 827.578 140.207 829.895 Q138.332 832.213 134.972 833.046 Q138.774 833.932 140.884 836.51 Q143.019 839.088 143.019 842.812 Q143.019 848.463 139.556 851.484 Q136.118 854.504 129.686 854.504 Q123.254 854.504 119.79 851.484 Q116.353 848.463 116.353 842.812 Q116.353 839.088 118.488 836.51 Q120.624 833.932 124.426 833.046 M122.498 824.739 Q122.498 827.76 124.373 829.453 Q126.275 831.145 129.686 831.145 Q133.071 831.145 134.972 829.453 Q136.899 827.76 136.899 824.739 Q136.899 821.718 134.972 820.025 Q133.071 818.333 129.686 818.333 Q126.275 818.333 124.373 820.025 Q122.498 821.718 122.498 824.739 Z" fill="#000000" fill-rule="nonzero" fill-opacity="1" /><path clip-path="url(#clip150)" d="M163.618 818.333 Q159.556 818.333 157.498 822.343 Q155.467 826.328 155.467 834.348 Q155.467 842.343 157.498 846.353 Q159.556 850.338 163.618 850.338 Q167.707 850.338 169.738 846.353 Q171.795 842.343 171.795 834.348 Q171.795 826.328 169.738 822.343 Q167.707 818.333 163.618 818.333 M163.618 814.166 Q170.154 814.166 173.592 819.348 Q177.055 824.505 177.055 834.348 Q177.055 844.166 173.592 849.348 Q170.154 854.504 163.618 854.504 Q157.082 854.504 153.618 849.348 Q150.181 844.166 150.181 834.348 Q150.181 824.505 153.618 819.348 Q157.082 814.166 163.618 814.166 Z" fill="#000000" fill-rule="nonzero" fill-opacity="1" /><path clip-path="url(#clip150)" d="M118.592 589.797 L118.592 585.006 Q120.571 585.943 122.603 586.438 Q124.634 586.933 126.587 586.933 Q131.795 586.933 134.53 583.443 Q137.29 579.928 137.681 572.792 Q136.17 575.032 133.853 576.23 Q131.535 577.428 128.722 577.428 Q122.889 577.428 119.478 573.912 Q116.092 570.37 116.092 564.251 Q116.092 558.261 119.634 554.641 Q123.176 551.021 129.061 551.021 Q135.806 551.021 139.347 556.204 Q142.915 561.36 142.915 571.204 Q142.915 580.396 138.54 585.891 Q134.191 591.36 126.821 591.36 Q124.842 591.36 122.811 590.969 Q120.78 590.579 118.592 589.797 M129.061 573.313 Q132.603 573.313 134.66 570.891 Q136.743 568.469 136.743 564.251 Q136.743 560.058 134.66 557.636 Q132.603 555.188 129.061 555.188 Q125.519 555.188 123.436 557.636 Q121.379 560.058 121.379 564.251 Q121.379 568.469 123.436 570.891 Q125.519 573.313 129.061 573.313 Z" fill="#000000" fill-rule="nonzero" fill-opacity="1" /><path clip-path="url(#clip150)" d="M163.618 555.188 Q159.556 555.188 157.498 559.199 Q155.467 563.183 155.467 571.204 Q155.467 579.198 157.498 583.209 Q159.556 587.193 163.618 587.193 Q167.707 587.193 169.738 583.209 Q171.795 579.198 171.795 571.204 Q171.795 563.183 169.738 559.199 Q167.707 555.188 163.618 555.188 M163.618 551.021 Q170.154 551.021 173.592 556.204 Q177.055 561.36 177.055 571.204 Q177.055 581.021 173.592 586.204 Q170.154 591.36 163.618 591.36 Q157.082 591.36 153.618 586.204 Q150.181 581.021 150.181 571.204 Q150.181 561.36 153.618 556.204 Q157.082 551.021 163.618 551.021 Z" fill="#000000" fill-rule="nonzero" fill-opacity="1" /><path clip-path="url(#clip150)" d="M85.4154 323.033 L94.0091 323.033 L94.0091 293.372 L84.6602 295.247 L84.6602 290.455 L93.957 288.58 L99.2174 288.58 L99.2174 323.033 L107.811 323.033 L107.811 327.46 L85.4154 327.46 L85.4154 323.033 Z" fill="#000000" fill-rule="nonzero" fill-opacity="1" /><path clip-path="url(#clip150)" d="M129.686 292.043 Q125.623 292.043 123.566 296.054 Q121.535 300.038 121.535 308.059 Q121.535 316.054 123.566 320.064 Q125.623 324.049 129.686 324.049 Q133.774 324.049 135.806 320.064 Q137.863 316.054 137.863 308.059 Q137.863 300.038 135.806 296.054 Q133.774 292.043 129.686 292.043 M129.686 287.877 Q136.222 287.877 139.66 293.059 Q143.123 298.215 143.123 308.059 Q143.123 317.877 139.66 323.059 Q136.222 328.215 129.686 328.215 Q123.15 328.215 119.686 323.059 Q116.249 317.877 116.249 308.059 Q116.249 298.215 119.686 293.059 Q123.15 287.877 129.686 287.877 Z" fill="#000000" fill-rule="nonzero" fill-opacity="1" /><path clip-path="url(#clip150)" d="M163.618 292.043 Q159.556 292.043 157.498 296.054 Q155.467 300.038 155.467 308.059 Q155.467 316.054 157.498 320.064 Q159.556 324.049 163.618 324.049 Q167.707 324.049 169.738 320.064 Q171.795 316.054 171.795 308.059 Q171.795 300.038 169.738 296.054 Q167.707 292.043 163.618 292.043 M163.618 287.877 Q170.154 287.877 173.592 293.059 Q177.055 298.215 177.055 308.059 Q177.055 317.877 173.592 323.059 Q170.154 328.215 163.618 328.215 Q157.082 328.215 153.618 323.059 Q150.181 317.877 150.181 308.059 Q150.181 298.215 153.618 293.059 Q157.082 287.877 163.618 287.877 Z" fill="#000000" fill-rule="nonzero" fill-opacity="1" /><path clip-path="url(#clip150)" d="M-31.4998 930.013 L-31.4998 924.168 L11.7002 924.168 L11.7002 930.013 L-31.4998 930.013 Z" fill="#000000" fill-rule="nonzero" fill-opacity="1" /><path clip-path="url(#clip150)" d="M-7.85992 885.829 L11.7002 885.829 L11.7002 891.153 L-7.68631 891.153 Q-12.287 891.153 -14.5728 892.947 Q-16.8587 894.741 -16.8587 898.329 Q-16.8587 902.641 -14.1099 905.129 Q-11.3611 907.618 -6.61572 907.618 L11.7002 907.618 L11.7002 912.97 L-20.7071 912.97 L-20.7071 907.618 L-15.6724 907.618 Q-18.5948 905.708 -20.0416 903.133 Q-21.4883 900.528 -21.4883 897.143 Q-21.4883 891.559 -18.0161 888.694 Q-14.5728 885.829 -7.85992 885.829 Z" fill="#000000" fill-rule="nonzero" fill-opacity="1" /><path clip-path="url(#clip150)" d="M-33.3227 858.804 L-28.8957 858.804 L-28.8957 863.897 Q-28.8957 866.761 -27.7383 867.89 Q-26.5809 868.989 -23.5716 868.989 L-20.7071 868.989 L-20.7071 860.222 L-16.5694 860.222 L-16.5694 868.989 L11.7002 868.989 L11.7002 874.342 L-16.5694 874.342 L-16.5694 879.435 L-20.7071 879.435 L-20.7071 874.342 L-22.964 874.342 Q-28.3749 874.342 -30.8343 871.825 Q-33.3227 869.308 -33.3227 863.839 L-33.3227 858.804 Z" fill="#000000" fill-rule="nonzero" fill-opacity="1" /><path clip-path="url(#clip150)" d="M-33.3227 854.348 L-33.3227 849.024 L11.7002 849.024 L11.7002 854.348 L-33.3227 854.348 Z" fill="#000000" fill-rule="nonzero" fill-opacity="1" /><path clip-path="url(#clip150)" d="M-16.9745 825.326 Q-16.9745 829.609 -13.618 832.097 Q-10.2905 834.585 -4.47452 834.585 Q1.34142 834.585 4.69788 832.126 Q8.02541 829.638 8.02541 825.326 Q8.02541 821.073 4.66895 818.584 Q1.31248 816.096 -4.47452 816.096 Q-10.2326 816.096 -13.5891 818.584 Q-16.9745 821.073 -16.9745 825.326 M-21.4883 825.326 Q-21.4883 818.382 -16.9745 814.418 Q-12.4606 810.454 -4.47452 810.454 Q3.48261 810.454 8.02541 814.418 Q12.5393 818.382 12.5393 825.326 Q12.5393 832.3 8.02541 836.264 Q3.48261 840.199 -4.47452 840.199 Q-12.4606 840.199 -16.9745 836.264 Q-21.4883 832.3 -21.4883 825.326 Z" fill="#000000" fill-rule="nonzero" fill-opacity="1" /><path clip-path="url(#clip150)" d="M-20.7071 804.725 L-20.7071 799.4 L4.58214 792.745 L-20.7071 786.119 L-20.7071 779.84 L4.58214 773.185 L-20.7071 766.559 L-20.7071 761.235 L11.7002 769.713 L11.7002 775.992 L-14.8622 782.965 L11.7002 789.968 L11.7002 796.247 L-20.7071 804.725 Z" fill="#000000" fill-rule="nonzero" fill-opacity="1" /><path clip-path="url(#clip150)" d="M-33.3227 734.818 L-33.3227 722.549 L-29.185 722.549 L-29.185 729.493 L15.3749 729.493 L15.3749 722.549 L19.5126 722.549 L19.5126 734.818 L-33.3227 734.818 Z" fill="#000000" fill-rule="nonzero" fill-opacity="1" /><path clip-path="url(#clip150)" d="M-31.4998 710.975 L-31.4998 705.13 L6.7812 705.13 L6.7812 684.094 L11.7002 684.094 L11.7002 710.975 L-31.4998 710.975 Z" fill="#000000" fill-rule="nonzero" fill-opacity="1" /><path clip-path="url(#clip150)" d="M-31.4998 668.73 L-31.4998 663.811 L17.1978 678.857 L17.1978 683.776 L-31.4998 668.73 Z" fill="#000000" fill-rule="nonzero" fill-opacity="1" /><path clip-path="url(#clip150)" d="M-19.7522 637.567 L-14.7175 637.567 Q-15.8749 639.824 -16.4536 642.254 Q-17.0323 644.685 -17.0323 647.289 Q-17.0323 651.253 -15.8171 653.25 Q-14.6018 655.217 -12.1712 655.217 Q-10.3194 655.217 -9.2488 653.799 Q-8.20714 652.382 -7.25229 648.099 L-6.8472 646.276 Q-5.63193 640.605 -3.40393 638.232 Q-1.20487 635.831 2.75923 635.831 Q7.2731 635.831 9.90619 639.419 Q12.5393 642.978 12.5393 649.228 Q12.5393 651.832 12.0184 654.667 Q11.5265 657.474 10.5138 660.599 L5.01617 660.599 Q6.54972 657.648 7.33097 654.783 Q8.08328 651.919 8.08328 649.112 Q8.08328 645.35 6.81014 643.325 Q5.50806 641.299 3.16432 641.299 Q0.994196 641.299 -0.163205 642.775 Q-1.32061 644.222 -2.3912 649.17 L-2.82523 651.022 Q-3.86689 655.97 -6.00808 658.169 Q-8.17821 660.368 -11.9398 660.368 Q-16.5115 660.368 -18.9999 657.127 Q-21.4883 653.886 -21.4883 647.926 Q-21.4883 644.974 -21.0543 642.37 Q-20.6203 639.766 -19.7522 637.567 Z" fill="#000000" fill-rule="nonzero" fill-opacity="1" /><path clip-path="url(#clip150)" d="M-33.3227 614.911 L19.5126 614.911 L19.5126 627.179 L15.3749 627.179 L15.3749 620.264 L-29.185 620.264 L-29.185 627.179 L-33.3227 627.179 L-33.3227 614.911 Z" fill="#000000" fill-rule="nonzero" fill-opacity="1" /><polyline clip-path="url(#clip152)" style="stroke:#023eff; stroke-linecap:round; stroke-linejoin:round; stroke-width:5; stroke-opacity:1; fill:none" points="320.479,1183.81 337.13,1334.8 353.781,1407.06 370.433,1407.06 387.084,1456.63 403.735,1407.06 420.387,933.164 437.038,251.624 453.689,314.24 470.341,314.24 486.992,467.969 503.643,583.787 520.295,583.787 536.946,583.787 553.597,657.358 570.249,819.717 586.9,819.717 603.551,705.337 620.203,583.787 636.854,530.733 653.505,530.733 670.157,679.243 686.808,888.69 703.459,989.968 720.111,1219.84 736.762,1351.38 753.413,1402.75 770.065,1402.75 786.716,1402.75 803.367,1351.38 820.019,920.485 836.67,270.288 853.321,270.288 869.973,380.111 886.624,588.927 903.275,628.958 919.927,567.17 936.578,567.17 953.229,737.184 969.881,829.704 986.532,829.704 1003.18,737.184 1019.83,628.958 1036.49,567.17 1053.14,567.17 1069.79,737.184 1086.44,896.627 1103.09,984.52 1119.74,1219.84 1136.39,1351.38 1153.05,1402.75 1169.7,1402.75 1186.35,1402.75 1203,1328.55 1219.65,1015.04 1236.3,270.288 1252.95,270.288 1269.6,380.111 1286.26,470.412 1302.91,567.17 1319.56,567.17 1336.21,567.17 1352.86,684.713 1369.51,737.184 1386.16,737.184 1402.82,737.184 1419.47,628.958 1436.12,434.02 1452.77,434.02 1469.42,628.958 1486.07,833.038 1502.72,984.52 1519.37,1219.84 1536.03,1351.38 1552.68,1402.75 1569.33,1402.75 1585.98,1402.75 1602.63,1328.55 1619.28,1015.04 1635.93,270.288 1652.59,270.288 1669.24,380.111 1685.89,588.927 1702.54,628.958 1719.19,628.958 1735.84,628.958 1752.49,684.713 1769.14,737.184 1785.8,829.704 1802.45,737.184 1819.1,684.713 1835.75,567.17 1852.4,567.17 1869.05,684.713 1885.7,896.627 1902.36,1107.1 1919.01,1219.84 1935.66,1402.75 1952.31,1402.75 1968.96,1454.4 1985.61,1402.75 2002.26,1351.38 2018.91,1015.04 2035.57,270.288 2052.22,270.288 2068.87,380.111 2085.52,459.722 2102.17,628.958 2118.82,628.958 2135.47,628.958 2152.13,684.713 2168.78,737.184 2185.43,737.184 2202.08,737.184 2218.73,684.713 2235.38,567.17 2252.03,567.17 2268.68,737.184 2285.34,896.627 2301.99,1107.1 2318.64,1219.84 2335.29,1351.38 2351.94,1402.75 2368.59,1454.4 2385.24,1402.75 2401.9,1402.75 2418.55,1244.11 2435.2,819.433 2451.85,477.748 2468.5,173.636 2485.15,321.093 2501.8,434.02 2518.45,434.02 2535.11,434.02 2551.76,567.17 2568.41,684.713 2585.06,737.184 2601.71,684.713 2618.36,628.958 2635.01,628.958 2651.67,684.713 2668.32,829.704 2684.97,984.52 2701.62,1107.1 2718.27,1219.84 2734.92,1351.38 2751.57,1402.75 2768.22,1402.75 2784.88,1402.75 2801.53,1402.75 2818.18,1244.11 2834.83,1002.25 2851.48,477.748 2868.13,173.636 2884.78,173.636 2901.44,434.02 2918.09,434.02 2934.74,567.17 2951.39,628.958 2968.04,684.713 2984.69,737.184 3001.34,684.713 3017.99,567.17 3034.65,567.17 3051.3,567.17 3067.95,684.713 3084.6,896.627 3101.25,1107.1 "/>
<polyline clip-path="url(#clip152)" style="stroke:#ff7c00; stroke-linecap:round; stroke-linejoin:round; stroke-width:5; stroke-opacity:1; fill:none" points="320.479,1257.7 337.13,1361.49 353.781,1361.49 370.433,1361.49 387.084,1361.49 403.735,1361.49 420.387,965.876 437.038,435.654 453.689,211.868 470.341,327.019 486.992,435.654 503.643,518.766 520.295,518.766 536.946,590.992 553.597,688.67 570.249,774.074 586.9,774.074 603.551,774.074 620.203,590.992 636.854,590.992 653.505,590.992 670.157,688.67 686.808,877.114 703.459,1060.09 720.111,1281.34 736.762,1361.5 753.413,1361.5 770.065,1361.5 786.716,1361.5 803.367,1361.5 820.019,895.051 836.67,444.145 853.321,202.593 869.973,343.245 886.624,551.638 903.275,608.301 919.927,608.301 936.578,608.301 953.229,731.484 969.881,783.16 986.532,783.16 1003.18,731.484 1019.83,608.301 1036.49,551.638 1053.14,551.638 1069.79,731.484 1086.44,870.484 1103.09,1050.21 1119.74,1159.8 1136.39,1361.5 1153.05,1361.5 1169.7,1361.5 1186.35,1361.5 1203,1361.5 1219.65,895.051 1236.3,444.145 1252.95,202.593 1269.6,343.245 1286.26,444.145 1302.91,608.301 1319.56,608.301 1336.21,551.638 1352.86,676.935 1369.51,731.484 1386.16,731.484 1402.82,731.484 1419.47,608.301 1436.12,444.145 1452.77,444.145 1469.42,608.301 1486.07,870.484 1502.72,1050.21 1519.37,1281.34 1536.03,1361.5 1552.68,1361.5 1569.33,1361.5 1585.98,1361.5 1602.63,1361.5 1619.28,895.051 1635.93,202.593 1652.59,202.593 1669.24,444.145 1685.89,551.638 1702.54,608.301 1719.19,608.301 1735.84,608.301 1752.49,676.935 1769.14,783.16 1785.8,783.16 1802.45,783.16 1819.1,676.935 1835.75,551.638 1852.4,551.638 1869.05,676.935 1885.7,870.484 1902.36,1050.21 1919.01,1281.34 1935.66,1361.5 1952.31,1361.5 1968.96,1361.5 1985.61,1361.5 2002.26,1361.5 2018.91,895.051 2035.57,343.245 2052.22,343.245 2068.87,444.145 2085.52,551.638 2102.17,608.301 2118.82,608.301 2135.47,608.301 2152.13,731.484 2168.78,731.484 2185.43,783.16 2202.08,731.484 2218.73,676.935 2235.38,608.301 2252.03,608.301 2268.68,731.484 2285.34,870.484 2301.99,1050.21 2318.64,1159.8 2335.29,1361.5 2351.94,1361.5 2368.59,1361.5 2385.24,1361.5 2401.9,1361.5 2418.55,1281.34 2435.2,895.051 2451.85,444.145 2468.5,202.593 2485.15,202.593 2501.8,444.145 2518.45,444.145 2535.11,444.145 2551.76,551.638 2568.41,731.484 2585.06,783.16 2601.71,676.935 2618.36,608.301 2635.01,608.301 2651.67,676.935 2668.32,783.16 2684.97,870.484 2701.62,1050.21 2718.27,1159.8 2734.92,1361.5 2751.57,1361.5 2768.22,1361.5 2784.88,1361.5 2801.53,1361.5 2818.18,1281.34 2834.83,895.051 2851.48,608.301 2868.13,202.593 2884.78,202.593 2901.44,202.593 2918.09,343.245 2934.74,551.638 2951.39,608.301 2968.04,676.935 2984.69,731.484 3001.34,676.935 3017.99,608.301 3034.65,551.638 3051.3,551.638 3067.95,676.935 3084.6,870.484 3101.25,1050.21 "/>
<polyline clip-path="url(#clip152)" style="stroke:#1ac938; stroke-linecap:round; stroke-linejoin:round; stroke-width:5; stroke-opacity:1; fill:none" points="320.479,1206.31 337.13,1365 353.781,1403.39 370.433,1403.39 387.084,1403.39 403.735,1403.39 420.387,1016.03 437.038,483.174 453.689,244.464 470.341,395.43 486.992,483.174 503.643,585.786 520.295,585.786 536.946,585.786 553.597,642.202 570.249,820.659 586.9,820.659 603.551,744.944 620.203,585.786 636.854,483.174 653.505,483.174 670.157,693.929 686.808,906.727 703.459,1016.03 720.111,1218.41 736.762,1350.85 753.413,1409.4 770.065,1409.4 786.716,1409.4 803.367,1350.85 820.019,887.295 836.67,440.035 853.321,214.228 869.973,346.376 886.624,559.403 903.275,613.895 919.927,598.103 936.578,598.103 953.229,735.473 969.881,779.121 986.532,779.121 1003.18,779.121 1019.83,672.307 1036.49,559.403 1053.14,496.722 1069.79,735.473 1086.44,917.134 1103.09,1039.47 1119.74,1218.41 1136.39,1350.85 1153.05,1409.4 1169.7,1409.4 1186.35,1409.4 1203,1350.85 1219.65,887.295 1236.3,440.035 1252.95,214.228 1269.6,346.376 1286.26,496.722 1302.91,598.103 1319.56,598.103 1336.21,559.403 1352.86,672.307 1369.51,735.473 1386.16,779.121 1402.82,735.473 1419.47,672.307 1436.12,440.035 1452.77,440.035 1469.42,672.307 1486.07,847.231 1502.72,1039.47 1519.37,1218.41 1536.03,1386.09 1552.68,1409.4 1569.33,1409.4 1585.98,1409.4 1602.63,1350.85 1619.28,887.295 1635.93,214.228 1652.59,214.228 1669.24,440.035 1685.89,598.103 1702.54,613.895 1719.19,613.895 1735.84,613.895 1752.49,735.473 1769.14,779.121 1785.8,779.121 1802.45,779.121 1819.1,672.307 1835.75,496.722 1852.4,559.403 1869.05,672.307 1885.7,917.134 1902.36,1039.47 1919.01,1218.41 1935.66,1386.09 1952.31,1409.4 1968.96,1409.4 1985.61,1409.4 2002.26,1350.85 2018.91,887.295 2035.57,346.376 2052.22,346.376 2068.87,440.035 2085.52,559.403 2102.17,613.895 2118.82,613.895 2135.47,613.895 2152.13,735.473 2168.78,779.121 2185.43,779.121 2202.08,735.473 2218.73,672.307 2235.38,598.103 2252.03,598.103 2268.68,779.121 2285.34,999.276 2301.99,1039.47 2318.64,1218.41 2335.29,1386.09 2351.94,1409.4 2368.59,1409.4 2385.24,1409.4 2401.9,1386.09 2418.55,1218.41 2435.2,847.231 2451.85,496.722 2468.5,214.228 2485.15,214.228 2501.8,440.035 2518.45,440.035 2535.11,440.035 2551.76,570.826 2568.41,735.473 2585.06,779.121 2601.71,735.473 2618.36,672.307 2635.01,672.307 2651.67,672.307 2668.32,847.231 2684.97,999.276 2701.62,1039.47 2718.27,1218.41 2734.92,1350.85 2751.57,1409.4 2768.22,1409.4 2784.88,1409.4 2801.53,1409.4 2818.18,1299.54 2834.83,999.276 2851.48,613.895 2868.13,214.228 2884.78,214.228 2901.44,214.228 2918.09,346.376 2934.74,496.722 2951.39,672.307 2968.04,672.307 2984.69,779.121 3001.34,735.473 3017.99,598.103 3034.65,559.403 3051.3,559.403 3067.95,735.473 3084.6,917.134 3101.25,1039.47 "/>
<polyline clip-path="url(#clip152)" style="stroke:#e8000b; stroke-linecap:round; stroke-linejoin:round; stroke-width:5; stroke-opacity:1; fill:none" points="320.479,1221.43 337.13,1394.21 353.781,1394.21 370.433,1394.21 387.084,1394.21 403.735,1394.21 420.387,1033.22 437.038,485.511 453.689,249.573 470.341,249.573 486.992,485.511 503.643,598.926 520.295,598.926 536.946,598.926 553.597,675.955 570.249,779.396 586.9,779.396 603.551,779.396 620.203,598.926 636.854,485.511 653.505,485.511 670.157,675.955 686.808,931.322 703.459,1033.22 720.111,1221.43 736.762,1356 753.413,1417.16 770.065,1417.16 786.716,1417.16 803.367,1356 820.019,1043.84 836.67,504.514 853.321,260.582 869.973,415.997 886.624,592.055 903.275,642.461 919.927,592.055 936.578,592.055 953.229,779.396 969.881,779.396 986.532,779.396 1003.18,779.396 1019.83,642.461 1036.49,504.514 1053.14,504.514 1069.79,779.396 1086.44,942.127 1103.09,1043.84 1119.74,1221.43 1136.39,1356 1153.05,1417.16 1169.7,1417.16 1186.35,1417.16 1203,1356 1219.65,1043.84 1236.3,504.514 1252.95,260.582 1269.6,415.997 1286.26,504.514 1302.91,592.055 1319.56,592.055 1336.21,592.055 1352.86,705.5 1369.51,779.396 1386.16,779.396 1402.82,779.396 1419.47,642.461 1436.12,504.514 1452.77,415.997 1469.42,642.461 1486.07,779.396 1502.72,1043.84 1519.37,1221.43 1536.03,1417.16 1552.68,1417.16 1569.33,1417.16 1585.98,1417.16 1602.63,1356 1619.28,942.127 1635.93,371.701 1652.59,260.582 1669.24,504.514 1685.89,592.055 1702.54,642.461 1719.19,642.461 1735.84,642.461 1752.49,705.5 1769.14,779.396 1785.8,779.396 1802.45,779.396 1819.1,705.5 1835.75,504.514 1852.4,504.514 1869.05,705.5 1885.7,942.127 1902.36,1043.84 1919.01,1221.43 1935.66,1417.16 1952.31,1417.16 1968.96,1417.16 1985.61,1417.16 2002.26,1356 2018.91,942.127 2035.57,371.701 2052.22,260.582 2068.87,415.997 2085.52,592.055 2102.17,642.461 2118.82,642.461 2135.47,642.461 2152.13,779.396 2168.78,779.396 2185.43,779.396 2202.08,779.396 2218.73,705.5 2235.38,592.055 2252.03,592.055 2268.68,779.396 2285.34,942.127 2301.99,1043.84 2318.64,1221.43 2335.29,1417.16 2351.94,1417.16 2368.59,1417.16 2385.24,1417.16 2401.9,1417.16 2418.55,1221.43 2435.2,942.127 2451.85,504.514 2468.5,260.582 2485.15,260.582 2501.8,415.997 2518.45,504.514 2535.11,504.514 2551.76,592.055 2568.41,779.396 2585.06,779.396 2601.71,705.5 2618.36,642.461 2635.01,642.461 2651.67,705.5 2668.32,942.127 2684.97,1043.84 2701.62,1043.84 2718.27,1221.43 2734.92,1356 2751.57,1417.16 2768.22,1417.16 2784.88,1417.16 2801.53,1417.16 2818.18,1356 2834.83,1043.84 2851.48,642.461 2868.13,260.582 2884.78,260.582 2901.44,260.582 2918.09,415.997 2934.74,504.514 2951.39,642.461 2968.04,705.5 2984.69,779.396 3001.34,705.5 3017.99,592.055 3034.65,592.055 3051.3,504.514 3067.95,779.396 3084.6,942.127 3101.25,1043.84 "/>
<polyline clip-path="url(#clip152)" style="stroke:#000000; stroke-linecap:round; stroke-linejoin:round; stroke-width:6; stroke-opacity:1; fill:none" points="320.479,1256.92 337.13,1375.33 353.781,1422.17 370.433,1426.91 387.084,1423.49 403.735,1330.6 420.387,934.041 437.038,280.653 453.689,285.653 470.341,439.855 486.992,517.483 503.643,574.059 520.295,609.057 536.946,604.058 553.597,681.685 570.249,807.732 586.9,767.471 603.551,747.735 620.203,591.164 636.854,488.8 653.505,497.747 670.157,664.844 686.808,911.937 703.459,1040.88 720.111,1255.87 736.762,1387.97 753.413,1411.39 770.065,1444.28 786.716,1434.81 803.367,1345.6 820.019,965.882 836.67,264.075 853.321,288.284 869.973,420.909 886.624,573.007 903.275,620.11 919.927,585.374 936.578,635.372 953.229,673.265 969.881,787.47 986.532,789.838 1003.18,734.314 1019.83,621.688 1036.49,464.591 1053.14,449.855 1069.79,648.266 1086.44,816.942 1103.09,1043.51 1119.74,1269.55 1136.39,1376.39 1153.05,1424.54 1169.7,1436.38 1186.35,1439.54 1203,1360.34 1219.65,938.778 1236.3,247.234 1252.95,288.81 1269.6,399.068 1286.26,531.693 1302.91,640.635 1319.56,639.056 1336.21,673.528 1352.86,723.262 1369.51,819.047 1386.16,794.048 1402.82,765.629 1419.47,619.846 1436.12,481.432 1452.77,457.749 1469.42,629.846 1486.07,876.676 1502.72,1042.19 1519.37,1254.03 1536.03,1390.07 1552.68,1411.65 1569.33,1405.33 1585.98,1411.12 1602.63,1344.81 1619.28,885.622 1635.93,164.869 1652.59,256.707 1669.24,403.278 1685.89,569.323 1702.54,598.005 1719.19,617.741 1735.84,611.689 1752.49,678.264 1769.14,761.155 1785.8,775.365 1802.45,744.577 1819.1,642.477 1835.75,466.17 1852.4,478.011 1869.05,674.317 1885.7,865.887 1902.36,1064.82 1919.01,1238.24 1935.66,1367.18 1952.31,1431.12 1968.96,1449.02 1985.61,1416.12 2002.26,1334.02 2018.91,911.148 2035.57,225.919 2052.22,240.918 2068.87,421.435 2085.52,551.955 2102.17,596.953 2118.82,645.635 2135.47,624.32 2152.13,704.316 2168.78,765.892 2185.43,776.944 2202.08,727.999 2218.73,654.581 2235.38,519.062 2252.03,579.848 2268.68,706.421 2285.34,949.83 2301.99,1038.51 2318.64,1208.24 2335.29,1329.81 2351.94,1406.39 2368.59,1419.02 2385.24,1421.12 2401.9,1368.49 2418.55,1199.29 2435.2,751.156 2451.85,274.074 2468.5,138.818 2485.15,148.028 2501.8,369.333 2518.45,489.59 2535.11,508.799 2551.76,604.058 2568.41,731.946 2585.06,766.418 2601.71,723.525 2618.36,654.581 2635.01,574.059 2651.67,647.477 2668.32,831.415 2684.97,984.302 2701.62,1044.83 2718.27,1189.29 2734.92,1342.18 2751.57,1403.23 2768.22,1442.44 2784.88,1441.91 2801.53,1414.28 2818.18,1273.5 2834.83,890.885 2851.48,423.014 2868.13,119.872 2884.78,88.2942 2901.44,306.178 2918.09,440.908 2934.74,589.322 2951.39,656.687 2968.04,798.258 2984.69,835.888 3001.34,718.789 3017.99,625.109 3034.65,484.327 3051.3,528.009 3067.95,718.789 3084.6,902.464 3101.25,1074.56 "/>
<path clip-path="url(#clip150)" d="M3308.53 445.512 L3952.76 445.512 L3952.76 95.592 L3308.53 95.592  Z" fill="#ffffff" fill-rule="evenodd" fill-opacity="1"/>
<polyline clip-path="url(#clip150)" style="stroke:#000000; stroke-linecap:round; stroke-linejoin:round; stroke-width:4; stroke-opacity:1; fill:none" points="3308.53,445.512 3952.76,445.512 3952.76,95.592 3308.53,95.592 3308.53,445.512 "/>
<polyline clip-path="url(#clip150)" style="stroke:#023eff; stroke-linecap:round; stroke-linejoin:round; stroke-width:5.625; stroke-opacity:1; fill:none" points="3349.82,153.912 3597.53,153.912 "/>
<path clip-path="url(#clip150)" d="M3643.63 168.977 L3643.63 184.446 L3638.82 184.446 L3638.82 144.185 L3643.63 144.185 L3643.63 148.613 Q3645.14 146.008 3647.44 144.758 Q3649.75 143.482 3652.96 143.482 Q3658.27 143.482 3661.58 147.701 Q3664.91 151.92 3664.91 158.795 Q3664.91 165.67 3661.58 169.888 Q3658.27 174.107 3652.96 174.107 Q3649.75 174.107 3647.44 172.857 Q3645.14 171.581 3643.63 168.977 M3659.94 158.795 Q3659.94 153.508 3657.75 150.514 Q3655.59 147.493 3651.78 147.493 Q3647.98 147.493 3645.79 150.514 Q3643.63 153.508 3643.63 158.795 Q3643.63 164.081 3645.79 167.102 Q3647.98 170.097 3651.78 170.097 Q3655.59 170.097 3657.75 167.102 Q3659.94 164.081 3659.94 158.795 Z" fill="#000000" fill-rule="nonzero" fill-opacity="1" /><path clip-path="url(#clip150)" d="M3689.75 148.665 Q3688.95 148.196 3687.98 147.988 Q3687.04 147.753 3685.9 147.753 Q3681.84 147.753 3679.65 150.409 Q3677.49 153.04 3677.49 157.987 L3677.49 173.352 L3672.67 173.352 L3672.67 144.185 L3677.49 144.185 L3677.49 148.717 Q3679 146.06 3681.42 144.784 Q3683.84 143.482 3687.3 143.482 Q3687.8 143.482 3688.4 143.56 Q3689 143.613 3689.73 143.743 L3689.75 148.665 Z" fill="#000000" fill-rule="nonzero" fill-opacity="1" /><path clip-path="url(#clip150)" d="M3718.55 157.571 L3718.55 159.915 L3696.52 159.915 Q3696.84 164.862 3699.49 167.467 Q3702.17 170.045 3706.94 170.045 Q3709.7 170.045 3712.28 169.368 Q3714.88 168.691 3717.43 167.336 L3717.43 171.868 Q3714.86 172.961 3712.15 173.534 Q3709.44 174.107 3706.65 174.107 Q3699.67 174.107 3695.59 170.045 Q3691.52 165.982 3691.52 159.055 Q3691.52 151.894 3695.38 147.701 Q3699.26 143.482 3705.82 143.482 Q3711.71 143.482 3715.12 147.284 Q3718.55 151.06 3718.55 157.571 M3713.76 156.165 Q3713.71 152.232 3711.55 149.889 Q3709.41 147.545 3705.87 147.545 Q3701.86 147.545 3699.44 149.81 Q3697.04 152.076 3696.68 156.191 L3713.76 156.165 Z" fill="#000000" fill-rule="nonzero" fill-opacity="1" /><path clip-path="url(#clip150)" d="M3745.61 148.613 L3745.61 132.831 L3750.4 132.831 L3750.4 173.352 L3745.61 173.352 L3745.61 168.977 Q3744.1 171.581 3741.78 172.857 Q3739.49 174.107 3736.26 174.107 Q3730.98 174.107 3727.64 169.888 Q3724.34 165.67 3724.34 158.795 Q3724.34 151.92 3727.64 147.701 Q3730.98 143.482 3736.26 143.482 Q3739.49 143.482 3741.78 144.758 Q3744.1 146.008 3745.61 148.613 M3729.28 158.795 Q3729.28 164.081 3731.45 167.102 Q3733.63 170.097 3737.43 170.097 Q3741.24 170.097 3743.42 167.102 Q3745.61 164.081 3745.61 158.795 Q3745.61 153.508 3743.42 150.514 Q3741.24 147.493 3737.43 147.493 Q3733.63 147.493 3731.45 150.514 Q3729.28 153.508 3729.28 158.795 Z" fill="#000000" fill-rule="nonzero" fill-opacity="1" /><path clip-path="url(#clip150)" d="M3760.27 144.185 L3765.06 144.185 L3765.06 173.352 L3760.27 173.352 L3760.27 144.185 M3760.27 132.831 L3765.06 132.831 L3765.06 138.899 L3760.27 138.899 L3760.27 132.831 Z" fill="#000000" fill-rule="nonzero" fill-opacity="1" /><path clip-path="url(#clip150)" d="M3796.08 145.305 L3796.08 149.784 Q3794.05 148.665 3791.99 148.118 Q3789.96 147.545 3787.88 147.545 Q3783.22 147.545 3780.64 150.514 Q3778.06 153.456 3778.06 158.795 Q3778.06 164.133 3780.64 167.102 Q3783.22 170.045 3787.88 170.045 Q3789.96 170.045 3791.99 169.498 Q3794.05 168.925 3796.08 167.805 L3796.08 172.232 Q3794.08 173.17 3791.91 173.638 Q3789.78 174.107 3787.36 174.107 Q3780.77 174.107 3776.89 169.967 Q3773.01 165.826 3773.01 158.795 Q3773.01 151.659 3776.91 147.571 Q3780.85 143.482 3787.67 143.482 Q3789.88 143.482 3791.99 143.951 Q3794.1 144.394 3796.08 145.305 Z" fill="#000000" fill-rule="nonzero" fill-opacity="1" /><path clip-path="url(#clip150)" d="M3809.15 135.904 L3809.15 144.185 L3819.02 144.185 L3819.02 147.909 L3809.15 147.909 L3809.15 163.743 Q3809.15 167.31 3810.12 168.326 Q3811.11 169.342 3814.1 169.342 L3819.02 169.342 L3819.02 173.352 L3814.1 173.352 Q3808.55 173.352 3806.44 171.295 Q3804.34 169.211 3804.34 163.743 L3804.34 147.909 L3800.82 147.909 L3800.82 144.185 L3804.34 144.185 L3804.34 135.904 L3809.15 135.904 Z" fill="#000000" fill-rule="nonzero" fill-opacity="1" /><path clip-path="url(#clip150)" d="M3847.49 182.206 L3847.49 185.93 L3819.78 185.93 L3819.78 182.206 L3847.49 182.206 Z" fill="#000000" fill-rule="nonzero" fill-opacity="1" /><path clip-path="url(#clip150)" d="M3852.72 134.472 L3873.37 134.472 L3873.37 138.899 L3857.54 138.899 L3857.54 148.43 Q3858.68 148.04 3859.83 147.857 Q3860.98 147.649 3862.12 147.649 Q3868.63 147.649 3872.43 151.217 Q3876.24 154.784 3876.24 160.878 Q3876.24 167.154 3872.33 170.644 Q3868.42 174.107 3861.31 174.107 Q3858.87 174.107 3856.31 173.69 Q3853.79 173.274 3851.08 172.441 L3851.08 167.154 Q3853.42 168.43 3855.92 169.055 Q3858.42 169.68 3861.21 169.68 Q3865.72 169.68 3868.35 167.31 Q3870.98 164.941 3870.98 160.878 Q3870.98 156.816 3868.35 154.446 Q3865.72 152.076 3861.21 152.076 Q3859.1 152.076 3856.99 152.545 Q3854.91 153.014 3852.72 154.003 L3852.72 134.472 Z" fill="#000000" fill-rule="nonzero" fill-opacity="1" /><path clip-path="url(#clip150)" d="M3891.13 168.925 L3909.49 168.925 L3909.49 173.352 L3884.8 173.352 L3884.8 168.925 Q3887.8 165.826 3892.95 160.618 Q3898.14 155.383 3899.47 153.873 Q3901.99 151.034 3902.98 149.081 Q3904 147.102 3904 145.201 Q3904 142.102 3901.81 140.149 Q3899.65 138.196 3896.16 138.196 Q3893.68 138.196 3890.92 139.055 Q3888.19 139.915 3885.06 141.659 L3885.06 136.347 Q3888.24 135.071 3891 134.42 Q3893.76 133.769 3896.05 133.769 Q3902.1 133.769 3905.69 136.79 Q3909.28 139.81 3909.28 144.863 Q3909.28 147.258 3908.37 149.42 Q3907.49 151.555 3905.12 154.472 Q3904.47 155.227 3900.98 158.847 Q3897.49 162.441 3891.13 168.925 Z" fill="#000000" fill-rule="nonzero" fill-opacity="1" /><polyline clip-path="url(#clip150)" style="stroke:#ff7c00; stroke-linecap:round; stroke-linejoin:round; stroke-width:5.625; stroke-opacity:1; fill:none" points="3349.82,212.232 3597.53,212.232 "/>
<path clip-path="url(#clip150)" d="M3643.63 227.297 L3643.63 242.766 L3638.82 242.766 L3638.82 202.505 L3643.63 202.505 L3643.63 206.933 Q3645.14 204.328 3647.44 203.078 Q3649.75 201.802 3652.96 201.802 Q3658.27 201.802 3661.58 206.021 Q3664.91 210.24 3664.91 217.115 Q3664.91 223.99 3661.58 228.208 Q3658.27 232.427 3652.96 232.427 Q3649.75 232.427 3647.44 231.177 Q3645.14 229.901 3643.63 227.297 M3659.94 217.115 Q3659.94 211.828 3657.75 208.834 Q3655.59 205.813 3651.78 205.813 Q3647.98 205.813 3645.79 208.834 Q3643.63 211.828 3643.63 217.115 Q3643.63 222.401 3645.79 225.422 Q3647.98 228.417 3651.78 228.417 Q3655.59 228.417 3657.75 225.422 Q3659.94 222.401 3659.94 217.115 Z" fill="#000000" fill-rule="nonzero" fill-opacity="1" /><path clip-path="url(#clip150)" d="M3689.75 206.985 Q3688.95 206.516 3687.98 206.308 Q3687.04 206.073 3685.9 206.073 Q3681.84 206.073 3679.65 208.729 Q3677.49 211.36 3677.49 216.307 L3677.49 231.672 L3672.67 231.672 L3672.67 202.505 L3677.49 202.505 L3677.49 207.037 Q3679 204.38 3681.42 203.104 Q3683.84 201.802 3687.3 201.802 Q3687.8 201.802 3688.4 201.88 Q3689 201.933 3689.73 202.063 L3689.75 206.985 Z" fill="#000000" fill-rule="nonzero" fill-opacity="1" /><path clip-path="url(#clip150)" d="M3718.55 215.891 L3718.55 218.235 L3696.52 218.235 Q3696.84 223.182 3699.49 225.787 Q3702.17 228.365 3706.94 228.365 Q3709.7 228.365 3712.28 227.688 Q3714.88 227.011 3717.43 225.656 L3717.43 230.188 Q3714.86 231.281 3712.15 231.854 Q3709.44 232.427 3706.65 232.427 Q3699.67 232.427 3695.59 228.365 Q3691.52 224.302 3691.52 217.375 Q3691.52 210.214 3695.38 206.021 Q3699.26 201.802 3705.82 201.802 Q3711.71 201.802 3715.12 205.604 Q3718.55 209.38 3718.55 215.891 M3713.76 214.485 Q3713.71 210.552 3711.55 208.209 Q3709.41 205.865 3705.87 205.865 Q3701.86 205.865 3699.44 208.13 Q3697.04 210.396 3696.68 214.511 L3713.76 214.485 Z" fill="#000000" fill-rule="nonzero" fill-opacity="1" /><path clip-path="url(#clip150)" d="M3745.61 206.933 L3745.61 191.151 L3750.4 191.151 L3750.4 231.672 L3745.61 231.672 L3745.61 227.297 Q3744.1 229.901 3741.78 231.177 Q3739.49 232.427 3736.26 232.427 Q3730.98 232.427 3727.64 228.208 Q3724.34 223.99 3724.34 217.115 Q3724.34 210.24 3727.64 206.021 Q3730.98 201.802 3736.26 201.802 Q3739.49 201.802 3741.78 203.078 Q3744.1 204.328 3745.61 206.933 M3729.28 217.115 Q3729.28 222.401 3731.45 225.422 Q3733.63 228.417 3737.43 228.417 Q3741.24 228.417 3743.42 225.422 Q3745.61 222.401 3745.61 217.115 Q3745.61 211.828 3743.42 208.834 Q3741.24 205.813 3737.43 205.813 Q3733.63 205.813 3731.45 208.834 Q3729.28 211.828 3729.28 217.115 Z" fill="#000000" fill-rule="nonzero" fill-opacity="1" /><path clip-path="url(#clip150)" d="M3760.27 202.505 L3765.06 202.505 L3765.06 231.672 L3760.27 231.672 L3760.27 202.505 M3760.27 191.151 L3765.06 191.151 L3765.06 197.219 L3760.27 197.219 L3760.27 191.151 Z" fill="#000000" fill-rule="nonzero" fill-opacity="1" /><path clip-path="url(#clip150)" d="M3796.08 203.625 L3796.08 208.104 Q3794.05 206.985 3791.99 206.438 Q3789.96 205.865 3787.88 205.865 Q3783.22 205.865 3780.64 208.834 Q3778.06 211.776 3778.06 217.115 Q3778.06 222.453 3780.64 225.422 Q3783.22 228.365 3787.88 228.365 Q3789.96 228.365 3791.99 227.818 Q3794.05 227.245 3796.08 226.125 L3796.08 230.552 Q3794.08 231.49 3791.91 231.958 Q3789.78 232.427 3787.36 232.427 Q3780.77 232.427 3776.89 228.287 Q3773.01 224.146 3773.01 217.115 Q3773.01 209.979 3776.91 205.891 Q3780.85 201.802 3787.67 201.802 Q3789.88 201.802 3791.99 202.271 Q3794.1 202.714 3796.08 203.625 Z" fill="#000000" fill-rule="nonzero" fill-opacity="1" /><path clip-path="url(#clip150)" d="M3809.15 194.224 L3809.15 202.505 L3819.02 202.505 L3819.02 206.229 L3809.15 206.229 L3809.15 222.063 Q3809.15 225.63 3810.12 226.646 Q3811.11 227.662 3814.1 227.662 L3819.02 227.662 L3819.02 231.672 L3814.1 231.672 Q3808.55 231.672 3806.44 229.615 Q3804.34 227.531 3804.34 222.063 L3804.34 206.229 L3800.82 206.229 L3800.82 202.505 L3804.34 202.505 L3804.34 194.224 L3809.15 194.224 Z" fill="#000000" fill-rule="nonzero" fill-opacity="1" /><path clip-path="url(#clip150)" d="M3847.49 240.526 L3847.49 244.25 L3819.78 244.25 L3819.78 240.526 L3847.49 240.526 Z" fill="#000000" fill-rule="nonzero" fill-opacity="1" /><path clip-path="url(#clip150)" d="M3857.2 227.245 L3875.56 227.245 L3875.56 231.672 L3850.87 231.672 L3850.87 227.245 Q3853.87 224.146 3859.02 218.938 Q3864.2 213.703 3865.53 212.193 Q3868.06 209.354 3869.05 207.401 Q3870.06 205.422 3870.06 203.521 Q3870.06 200.422 3867.88 198.469 Q3865.72 196.516 3862.23 196.516 Q3859.75 196.516 3856.99 197.375 Q3854.26 198.235 3851.13 199.979 L3851.13 194.667 Q3854.31 193.391 3857.07 192.74 Q3859.83 192.089 3862.12 192.089 Q3868.16 192.089 3871.76 195.11 Q3875.35 198.13 3875.35 203.183 Q3875.35 205.578 3874.44 207.74 Q3873.55 209.875 3871.18 212.792 Q3870.53 213.547 3867.04 217.167 Q3863.55 220.761 3857.2 227.245 Z" fill="#000000" fill-rule="nonzero" fill-opacity="1" /><path clip-path="url(#clip150)" d="M3898.5 210.136 Q3894.96 210.136 3892.88 212.557 Q3890.82 214.979 3890.82 219.198 Q3890.82 223.391 3892.88 225.839 Q3894.96 228.261 3898.5 228.261 Q3902.04 228.261 3904.1 225.839 Q3906.18 223.391 3906.18 219.198 Q3906.18 214.979 3904.1 212.557 Q3902.04 210.136 3898.5 210.136 M3908.94 193.651 L3908.94 198.443 Q3906.97 197.505 3904.93 197.011 Q3902.93 196.516 3900.95 196.516 Q3895.74 196.516 3892.98 200.031 Q3890.25 203.547 3889.86 210.656 Q3891.39 208.391 3893.71 207.193 Q3896.03 205.969 3898.81 205.969 Q3904.67 205.969 3908.06 209.537 Q3911.47 213.078 3911.47 219.198 Q3911.47 225.188 3907.93 228.807 Q3904.39 232.427 3898.5 232.427 Q3891.76 232.427 3888.19 227.271 Q3884.62 222.089 3884.62 212.271 Q3884.62 203.052 3889 197.584 Q3893.37 192.089 3900.74 192.089 Q3902.72 192.089 3904.73 192.479 Q3906.76 192.87 3908.94 193.651 Z" fill="#000000" fill-rule="nonzero" fill-opacity="1" /><polyline clip-path="url(#clip150)" style="stroke:#1ac938; stroke-linecap:round; stroke-linejoin:round; stroke-width:5.625; stroke-opacity:1; fill:none" points="3349.82,270.552 3597.53,270.552 "/>
<path clip-path="url(#clip150)" d="M3643.63 285.617 L3643.63 301.086 L3638.82 301.086 L3638.82 260.825 L3643.63 260.825 L3643.63 265.253 Q3645.14 262.648 3647.44 261.398 Q3649.75 260.122 3652.96 260.122 Q3658.27 260.122 3661.58 264.341 Q3664.91 268.56 3664.91 275.435 Q3664.91 282.31 3661.58 286.528 Q3658.27 290.747 3652.96 290.747 Q3649.75 290.747 3647.44 289.497 Q3645.14 288.221 3643.63 285.617 M3659.94 275.435 Q3659.94 270.148 3657.75 267.154 Q3655.59 264.133 3651.78 264.133 Q3647.98 264.133 3645.79 267.154 Q3643.63 270.148 3643.63 275.435 Q3643.63 280.721 3645.79 283.742 Q3647.98 286.737 3651.78 286.737 Q3655.59 286.737 3657.75 283.742 Q3659.94 280.721 3659.94 275.435 Z" fill="#000000" fill-rule="nonzero" fill-opacity="1" /><path clip-path="url(#clip150)" d="M3689.75 265.305 Q3688.95 264.836 3687.98 264.628 Q3687.04 264.393 3685.9 264.393 Q3681.84 264.393 3679.65 267.049 Q3677.49 269.68 3677.49 274.627 L3677.49 289.992 L3672.67 289.992 L3672.67 260.825 L3677.49 260.825 L3677.49 265.357 Q3679 262.7 3681.42 261.424 Q3683.84 260.122 3687.3 260.122 Q3687.8 260.122 3688.4 260.2 Q3689 260.253 3689.73 260.383 L3689.75 265.305 Z" fill="#000000" fill-rule="nonzero" fill-opacity="1" /><path clip-path="url(#clip150)" d="M3718.55 274.211 L3718.55 276.555 L3696.52 276.555 Q3696.84 281.502 3699.49 284.107 Q3702.17 286.685 3706.94 286.685 Q3709.7 286.685 3712.28 286.008 Q3714.88 285.331 3717.43 283.976 L3717.43 288.508 Q3714.86 289.601 3712.15 290.174 Q3709.44 290.747 3706.65 290.747 Q3699.67 290.747 3695.59 286.685 Q3691.52 282.622 3691.52 275.695 Q3691.52 268.534 3695.38 264.341 Q3699.26 260.122 3705.82 260.122 Q3711.71 260.122 3715.12 263.924 Q3718.55 267.7 3718.55 274.211 M3713.76 272.805 Q3713.71 268.872 3711.55 266.529 Q3709.41 264.185 3705.87 264.185 Q3701.86 264.185 3699.44 266.45 Q3697.04 268.716 3696.68 272.831 L3713.76 272.805 Z" fill="#000000" fill-rule="nonzero" fill-opacity="1" /><path clip-path="url(#clip150)" d="M3745.61 265.253 L3745.61 249.471 L3750.4 249.471 L3750.4 289.992 L3745.61 289.992 L3745.61 285.617 Q3744.1 288.221 3741.78 289.497 Q3739.49 290.747 3736.26 290.747 Q3730.98 290.747 3727.64 286.528 Q3724.34 282.31 3724.34 275.435 Q3724.34 268.56 3727.64 264.341 Q3730.98 260.122 3736.26 260.122 Q3739.49 260.122 3741.78 261.398 Q3744.1 262.648 3745.61 265.253 M3729.28 275.435 Q3729.28 280.721 3731.45 283.742 Q3733.63 286.737 3737.43 286.737 Q3741.24 286.737 3743.42 283.742 Q3745.61 280.721 3745.61 275.435 Q3745.61 270.148 3743.42 267.154 Q3741.24 264.133 3737.43 264.133 Q3733.63 264.133 3731.45 267.154 Q3729.28 270.148 3729.28 275.435 Z" fill="#000000" fill-rule="nonzero" fill-opacity="1" /><path clip-path="url(#clip150)" d="M3760.27 260.825 L3765.06 260.825 L3765.06 289.992 L3760.27 289.992 L3760.27 260.825 M3760.27 249.471 L3765.06 249.471 L3765.06 255.539 L3760.27 255.539 L3760.27 249.471 Z" fill="#000000" fill-rule="nonzero" fill-opacity="1" /><path clip-path="url(#clip150)" d="M3796.08 261.945 L3796.08 266.424 Q3794.05 265.305 3791.99 264.758 Q3789.96 264.185 3787.88 264.185 Q3783.22 264.185 3780.64 267.154 Q3778.06 270.096 3778.06 275.435 Q3778.06 280.773 3780.64 283.742 Q3783.22 286.685 3787.88 286.685 Q3789.96 286.685 3791.99 286.138 Q3794.05 285.565 3796.08 284.445 L3796.08 288.872 Q3794.08 289.81 3791.91 290.278 Q3789.78 290.747 3787.36 290.747 Q3780.77 290.747 3776.89 286.607 Q3773.01 282.466 3773.01 275.435 Q3773.01 268.299 3776.91 264.211 Q3780.85 260.122 3787.67 260.122 Q3789.88 260.122 3791.99 260.591 Q3794.1 261.034 3796.08 261.945 Z" fill="#000000" fill-rule="nonzero" fill-opacity="1" /><path clip-path="url(#clip150)" d="M3809.15 252.544 L3809.15 260.825 L3819.02 260.825 L3819.02 264.549 L3809.15 264.549 L3809.15 280.383 Q3809.15 283.95 3810.12 284.966 Q3811.11 285.982 3814.1 285.982 L3819.02 285.982 L3819.02 289.992 L3814.1 289.992 Q3808.55 289.992 3806.44 287.935 Q3804.34 285.851 3804.34 280.383 L3804.34 264.549 L3800.82 264.549 L3800.82 260.825 L3804.34 260.825 L3804.34 252.544 L3809.15 252.544 Z" fill="#000000" fill-rule="nonzero" fill-opacity="1" /><path clip-path="url(#clip150)" d="M3847.49 298.846 L3847.49 302.57 L3819.78 302.57 L3819.78 298.846 L3847.49 298.846 Z" fill="#000000" fill-rule="nonzero" fill-opacity="1" /><path clip-path="url(#clip150)" d="M3867.12 255.695 L3853.84 276.45 L3867.12 276.45 L3867.12 255.695 M3865.74 251.112 L3872.36 251.112 L3872.36 276.45 L3877.9 276.45 L3877.9 280.825 L3872.36 280.825 L3872.36 289.992 L3867.12 289.992 L3867.12 280.825 L3849.57 280.825 L3849.57 275.747 L3865.74 251.112 Z" fill="#000000" fill-rule="nonzero" fill-opacity="1" /><polyline clip-path="url(#clip150)" style="stroke:#e8000b; stroke-linecap:round; stroke-linejoin:round; stroke-width:5.625; stroke-opacity:1; fill:none" points="3349.82,328.872 3597.53,328.872 "/>
<path clip-path="url(#clip150)" d="M3643.63 343.937 L3643.63 359.406 L3638.82 359.406 L3638.82 319.145 L3643.63 319.145 L3643.63 323.573 Q3645.14 320.968 3647.44 319.718 Q3649.75 318.442 3652.96 318.442 Q3658.27 318.442 3661.58 322.661 Q3664.91 326.88 3664.91 333.755 Q3664.91 340.63 3661.58 344.848 Q3658.27 349.067 3652.96 349.067 Q3649.75 349.067 3647.44 347.817 Q3645.14 346.541 3643.63 343.937 M3659.94 333.755 Q3659.94 328.468 3657.75 325.474 Q3655.59 322.453 3651.78 322.453 Q3647.98 322.453 3645.79 325.474 Q3643.63 328.468 3643.63 333.755 Q3643.63 339.041 3645.79 342.062 Q3647.98 345.057 3651.78 345.057 Q3655.59 345.057 3657.75 342.062 Q3659.94 339.041 3659.94 333.755 Z" fill="#000000" fill-rule="nonzero" fill-opacity="1" /><path clip-path="url(#clip150)" d="M3689.75 323.625 Q3688.95 323.156 3687.98 322.948 Q3687.04 322.713 3685.9 322.713 Q3681.84 322.713 3679.65 325.369 Q3677.49 328 3677.49 332.947 L3677.49 348.312 L3672.67 348.312 L3672.67 319.145 L3677.49 319.145 L3677.49 323.677 Q3679 321.02 3681.42 319.744 Q3683.84 318.442 3687.3 318.442 Q3687.8 318.442 3688.4 318.52 Q3689 318.573 3689.73 318.703 L3689.75 323.625 Z" fill="#000000" fill-rule="nonzero" fill-opacity="1" /><path clip-path="url(#clip150)" d="M3718.55 332.531 L3718.55 334.875 L3696.52 334.875 Q3696.84 339.822 3699.49 342.427 Q3702.17 345.005 3706.94 345.005 Q3709.7 345.005 3712.28 344.328 Q3714.88 343.651 3717.43 342.296 L3717.43 346.828 Q3714.86 347.921 3712.15 348.494 Q3709.44 349.067 3706.65 349.067 Q3699.67 349.067 3695.59 345.005 Q3691.52 340.942 3691.52 334.015 Q3691.52 326.854 3695.38 322.661 Q3699.26 318.442 3705.82 318.442 Q3711.71 318.442 3715.12 322.244 Q3718.55 326.02 3718.55 332.531 M3713.76 331.125 Q3713.71 327.192 3711.55 324.849 Q3709.41 322.505 3705.87 322.505 Q3701.86 322.505 3699.44 324.77 Q3697.04 327.036 3696.68 331.151 L3713.76 331.125 Z" fill="#000000" fill-rule="nonzero" fill-opacity="1" /><path clip-path="url(#clip150)" d="M3745.61 323.573 L3745.61 307.791 L3750.4 307.791 L3750.4 348.312 L3745.61 348.312 L3745.61 343.937 Q3744.1 346.541 3741.78 347.817 Q3739.49 349.067 3736.26 349.067 Q3730.98 349.067 3727.64 344.848 Q3724.34 340.63 3724.34 333.755 Q3724.34 326.88 3727.64 322.661 Q3730.98 318.442 3736.26 318.442 Q3739.49 318.442 3741.78 319.718 Q3744.1 320.968 3745.61 323.573 M3729.28 333.755 Q3729.28 339.041 3731.45 342.062 Q3733.63 345.057 3737.43 345.057 Q3741.24 345.057 3743.42 342.062 Q3745.61 339.041 3745.61 333.755 Q3745.61 328.468 3743.42 325.474 Q3741.24 322.453 3737.43 322.453 Q3733.63 322.453 3731.45 325.474 Q3729.28 328.468 3729.28 333.755 Z" fill="#000000" fill-rule="nonzero" fill-opacity="1" /><path clip-path="url(#clip150)" d="M3760.27 319.145 L3765.06 319.145 L3765.06 348.312 L3760.27 348.312 L3760.27 319.145 M3760.27 307.791 L3765.06 307.791 L3765.06 313.859 L3760.27 313.859 L3760.27 307.791 Z" fill="#000000" fill-rule="nonzero" fill-opacity="1" /><path clip-path="url(#clip150)" d="M3796.08 320.265 L3796.08 324.744 Q3794.05 323.625 3791.99 323.078 Q3789.96 322.505 3787.88 322.505 Q3783.22 322.505 3780.64 325.474 Q3778.06 328.416 3778.06 333.755 Q3778.06 339.093 3780.64 342.062 Q3783.22 345.005 3787.88 345.005 Q3789.96 345.005 3791.99 344.458 Q3794.05 343.885 3796.08 342.765 L3796.08 347.192 Q3794.08 348.13 3791.91 348.598 Q3789.78 349.067 3787.36 349.067 Q3780.77 349.067 3776.89 344.927 Q3773.01 340.786 3773.01 333.755 Q3773.01 326.619 3776.91 322.531 Q3780.85 318.442 3787.67 318.442 Q3789.88 318.442 3791.99 318.911 Q3794.1 319.354 3796.08 320.265 Z" fill="#000000" fill-rule="nonzero" fill-opacity="1" /><path clip-path="url(#clip150)" d="M3809.15 310.864 L3809.15 319.145 L3819.02 319.145 L3819.02 322.869 L3809.15 322.869 L3809.15 338.703 Q3809.15 342.27 3810.12 343.286 Q3811.11 344.302 3814.1 344.302 L3819.02 344.302 L3819.02 348.312 L3814.1 348.312 Q3808.55 348.312 3806.44 346.255 Q3804.34 344.171 3804.34 338.703 L3804.34 322.869 L3800.82 322.869 L3800.82 319.145 L3804.34 319.145 L3804.34 310.864 L3809.15 310.864 Z" fill="#000000" fill-rule="nonzero" fill-opacity="1" /><path clip-path="url(#clip150)" d="M3847.49 357.166 L3847.49 360.89 L3819.78 360.89 L3819.78 357.166 L3847.49 357.166 Z" fill="#000000" fill-rule="nonzero" fill-opacity="1" /><path clip-path="url(#clip150)" d="M3853.58 343.885 L3862.17 343.885 L3862.17 314.224 L3852.82 316.099 L3852.82 311.307 L3862.12 309.432 L3867.38 309.432 L3867.38 343.885 L3875.98 343.885 L3875.98 348.312 L3853.58 348.312 L3853.58 343.885 Z" fill="#000000" fill-rule="nonzero" fill-opacity="1" /><polyline clip-path="url(#clip150)" style="stroke:#000000; stroke-linecap:round; stroke-linejoin:round; stroke-width:6.75; stroke-opacity:1; fill:none" points="3349.82,387.192 3597.53,387.192 "/>
<path clip-path="url(#clip150)" d="M3653.89 391.971 Q3648.09 391.971 3645.85 393.299 Q3643.61 394.627 3643.61 397.83 Q3643.61 400.382 3645.27 401.892 Q3646.97 403.377 3649.86 403.377 Q3653.84 403.377 3656.24 400.564 Q3658.66 397.726 3658.66 393.038 L3658.66 391.971 L3653.89 391.971 M3663.45 389.991 L3663.45 406.632 L3658.66 406.632 L3658.66 402.205 Q3657.02 404.861 3654.57 406.137 Q3652.12 407.387 3648.58 407.387 Q3644.1 407.387 3641.45 404.887 Q3638.82 402.361 3638.82 398.142 Q3638.82 393.221 3642.1 390.721 Q3645.4 388.221 3651.94 388.221 L3658.66 388.221 L3658.66 387.752 Q3658.66 384.445 3656.47 382.648 Q3654.31 380.825 3650.38 380.825 Q3647.88 380.825 3645.51 381.424 Q3643.14 382.023 3640.95 383.221 L3640.95 378.794 Q3643.58 377.778 3646.06 377.283 Q3648.53 376.762 3650.87 376.762 Q3657.2 376.762 3660.33 380.044 Q3663.45 383.325 3663.45 389.991 Z" fill="#000000" fill-rule="nonzero" fill-opacity="1" /><path clip-path="url(#clip150)" d="M3694.31 378.585 L3694.31 383.064 Q3692.28 381.945 3690.22 381.398 Q3688.19 380.825 3686.11 380.825 Q3681.45 380.825 3678.87 383.794 Q3676.29 386.736 3676.29 392.075 Q3676.29 397.413 3678.87 400.382 Q3681.45 403.325 3686.11 403.325 Q3688.19 403.325 3690.22 402.778 Q3692.28 402.205 3694.31 401.085 L3694.31 405.512 Q3692.3 406.45 3690.14 406.918 Q3688.01 407.387 3685.59 407.387 Q3679 407.387 3675.12 403.247 Q3671.24 399.106 3671.24 392.075 Q3671.24 384.939 3675.14 380.851 Q3679.08 376.762 3685.9 376.762 Q3688.11 376.762 3690.22 377.231 Q3692.33 377.674 3694.31 378.585 Z" fill="#000000" fill-rule="nonzero" fill-opacity="1" /><path clip-path="url(#clip150)" d="M3707.38 369.184 L3707.38 377.465 L3717.25 377.465 L3717.25 381.189 L3707.38 381.189 L3707.38 397.023 Q3707.38 400.59 3708.35 401.606 Q3709.34 402.622 3712.33 402.622 L3717.25 402.622 L3717.25 406.632 L3712.33 406.632 Q3706.78 406.632 3704.67 404.575 Q3702.57 402.491 3702.57 397.023 L3702.57 381.189 L3699.05 381.189 L3699.05 377.465 L3702.57 377.465 L3702.57 369.184 L3707.38 369.184 Z" fill="#000000" fill-rule="nonzero" fill-opacity="1" /><path clip-path="url(#clip150)" d="M3723.06 395.122 L3723.06 377.465 L3727.85 377.465 L3727.85 394.939 Q3727.85 399.08 3729.47 401.163 Q3731.08 403.221 3734.31 403.221 Q3738.19 403.221 3740.43 400.747 Q3742.7 398.273 3742.7 394.002 L3742.7 377.465 L3747.49 377.465 L3747.49 406.632 L3742.7 406.632 L3742.7 402.153 Q3740.95 404.809 3738.63 406.111 Q3736.34 407.387 3733.29 407.387 Q3728.27 407.387 3725.66 404.262 Q3723.06 401.137 3723.06 395.122 M3735.12 376.762 L3735.12 376.762 Z" fill="#000000" fill-rule="nonzero" fill-opacity="1" /><path clip-path="url(#clip150)" d="M3770.61 391.971 Q3764.8 391.971 3762.56 393.299 Q3760.33 394.627 3760.33 397.83 Q3760.33 400.382 3761.99 401.892 Q3763.68 403.377 3766.58 403.377 Q3770.56 403.377 3772.96 400.564 Q3775.38 397.726 3775.38 393.038 L3775.38 391.971 L3770.61 391.971 M3780.17 389.991 L3780.17 406.632 L3775.38 406.632 L3775.38 402.205 Q3773.74 404.861 3771.29 406.137 Q3768.84 407.387 3765.3 407.387 Q3760.82 407.387 3758.16 404.887 Q3755.53 402.361 3755.53 398.142 Q3755.53 393.221 3758.81 390.721 Q3762.12 388.221 3768.66 388.221 L3775.38 388.221 L3775.38 387.752 Q3775.38 384.445 3773.19 382.648 Q3771.03 380.825 3767.1 380.825 Q3764.6 380.825 3762.23 381.424 Q3759.86 382.023 3757.67 383.221 L3757.67 378.794 Q3760.3 377.778 3762.77 377.283 Q3765.25 376.762 3767.59 376.762 Q3773.92 376.762 3777.04 380.044 Q3780.17 383.325 3780.17 389.991 Z" fill="#000000" fill-rule="nonzero" fill-opacity="1" /><path clip-path="url(#clip150)" d="M3790.04 366.111 L3794.83 366.111 L3794.83 406.632 L3790.04 406.632 L3790.04 366.111 Z" fill="#000000" fill-rule="nonzero" fill-opacity="1" /></svg>
