<?xml version="1.0" encoding="UTF-8" standalone="no"?>
<!DOCTYPE svg PUBLIC "-//W3C//DTD SVG 1.1//EN"
 "http://www.w3.org/Graphics/SVG/1.1/DTD/svg11.dtd">
<!-- Generated by graphviz version 2.50.0 (20211204.2007)
 -->
<!-- Pages: 1 -->
<svg width="833pt" height="896pt"
 viewBox="0.00 0.00 833.00 896.00" xmlns="http://www.w3.org/2000/svg" xmlns:xlink="http://www.w3.org/1999/xlink">
<g id="graph0" class="graph" transform="scale(1 1) rotate(0) translate(4 892)">
<polygon fill="white" stroke="transparent" points="-4,4 -4,-892 829,-892 829,4 -4,4"/>
<!-- 1 -->
<g id="node1" class="node">
<title>1</title>
<text text-anchor="start" x="300" y="-869.8" font-family="Arial" font-weight="bold" font-size="14.00"> </text>
<text text-anchor="start" x="230" y="-825.3" font-family="Arial" font-size="14.00"> &#160;&#160;&#160;</text>
<path fill="#ebebeb" stroke="transparent" d="M260,-797C260,-797 344,-797 344,-797 350,-797 356,-803 356,-809 356,-809 356,-849 356,-849 356,-855 350,-861 344,-861 344,-861 260,-861 260,-861 254,-861 248,-855 248,-849 248,-849 248,-809 248,-809 248,-803 254,-797 260,-797"/>
<text text-anchor="start" x="249" y="-858.4" font-family="Arial" font-size="2.00"> </text>
<text text-anchor="start" x="249" y="-852.4" font-family="Arial" font-size="7.00"> &#160;1</text>
<text text-anchor="start" x="263" y="-835.8" font-family="Arial" font-weight="bold" font-size="14.00">Mean: 2.928</text>
<text text-anchor="start" x="278.5" y="-818.8" font-family="Arial" font-weight="bold" font-size="14.00">n = 168</text>
<text text-anchor="start" x="300.5" y="-800.8" font-family="Arial" font-size="9.00"> </text>
<path fill="none" stroke="#333333" d="M260,-797C260,-797 344,-797 344,-797 350,-797 356,-803 356,-809 356,-809 356,-849 356,-849 356,-855 350,-861 344,-861 344,-861 260,-861 260,-861 254,-861 248,-855 248,-849 248,-849 248,-809 248,-809 248,-803 254,-797 260,-797"/>
<text text-anchor="start" x="358" y="-825.3" font-family="Arial" font-size="14.00"> &#160;&#160;&#160;</text>
<text text-anchor="start" x="244.5" y="-782.8" font-family="Arial" font-weight="bold" font-size="14.00">prev_168h_inflow</text>
</g>
<!-- 2 -->
<g id="node2" class="node">
<title>2</title>
<text text-anchor="start" x="190" y="-715.8" font-family="Arial" font-weight="bold" font-size="14.00"> &lt; 2.235</text>
<text text-anchor="start" x="143" y="-671.3" font-family="Arial" font-size="14.00"> &#160;&#160;&#160;</text>
<path fill="#ebebeb" stroke="transparent" d="M173,-643C173,-643 257,-643 257,-643 263,-643 269,-649 269,-655 269,-655 269,-695 269,-695 269,-701 263,-707 257,-707 257,-707 173,-707 173,-707 167,-707 161,-701 161,-695 161,-695 161,-655 161,-655 161,-649 167,-643 173,-643"/>
<text text-anchor="start" x="162" y="-704.4" font-family="Arial" font-size="2.00"> </text>
<text text-anchor="start" x="162" y="-698.4" font-family="Arial" font-size="7.00"> &#160;2</text>
<text text-anchor="start" x="176" y="-681.8" font-family="Arial" font-weight="bold" font-size="14.00">Mean: 1.762</text>
<text text-anchor="start" x="195" y="-664.8" font-family="Arial" font-weight="bold" font-size="14.00">n = 44</text>
<text text-anchor="start" x="213.5" y="-646.8" font-family="Arial" font-size="9.00"> </text>
<path fill="none" stroke="#333333" d="M173,-643C173,-643 257,-643 257,-643 263,-643 269,-649 269,-655 269,-655 269,-695 269,-695 269,-701 263,-707 257,-707 257,-707 173,-707 173,-707 167,-707 161,-701 161,-695 161,-695 161,-655 161,-655 161,-649 167,-643 173,-643"/>
<text text-anchor="start" x="271" y="-671.3" font-family="Arial" font-size="14.00"> &#160;&#160;&#160;</text>
<text text-anchor="start" x="157.5" y="-628.8" font-family="Arial" font-weight="bold" font-size="14.00">prev_168h_inflow</text>
</g>
<!-- 1&#45;&gt;2 -->
<g id="edge1" class="edge">
<title>1&#45;&gt;2</title>
<path fill="none" stroke="#888888" d="M268.61,-769.67C263.62,-760.94 258.43,-751.88 253.34,-742.99"/>
<polygon fill="#888888" stroke="#888888" points="256.3,-741.12 248.3,-734.18 250.23,-744.59 256.3,-741.12"/>
</g>
<!-- 5 -->
<g id="node3" class="node">
<title>5</title>
<text text-anchor="start" x="364.5" y="-715.8" font-family="Arial" font-weight="bold" font-size="14.00"> ≥ 2.235</text>
<text text-anchor="start" x="325" y="-671.3" font-family="Arial" font-size="14.00"> &#160;</text>
<path fill="#ebebeb" stroke="transparent" d="M347,-643C347,-643 431,-643 431,-643 437,-643 443,-649 443,-655 443,-655 443,-695 443,-695 443,-701 437,-707 431,-707 431,-707 347,-707 347,-707 341,-707 335,-701 335,-695 335,-695 335,-655 335,-655 335,-649 341,-643 347,-643"/>
<text text-anchor="start" x="336" y="-704.4" font-family="Arial" font-size="2.00"> </text>
<text text-anchor="start" x="336" y="-698.4" font-family="Arial" font-size="7.00"> &#160;5</text>
<text text-anchor="start" x="350" y="-681.8" font-family="Arial" font-weight="bold" font-size="14.00">Mean: 3.342</text>
<text text-anchor="start" x="365.5" y="-664.8" font-family="Arial" font-weight="bold" font-size="14.00">n = 124</text>
<text text-anchor="start" x="387.5" y="-646.8" font-family="Arial" font-size="9.00"> </text>
<path fill="none" stroke="#333333" d="M347,-643C347,-643 431,-643 431,-643 437,-643 443,-649 443,-655 443,-655 443,-695 443,-695 443,-701 437,-707 431,-707 431,-707 347,-707 347,-707 341,-707 335,-701 335,-695 335,-695 335,-655 335,-655 335,-649 341,-643 347,-643"/>
<text text-anchor="start" x="445" y="-671.3" font-family="Arial" font-size="14.00"> &#160;</text>
<text text-anchor="start" x="339" y="-628.8" font-family="Arial" font-weight="bold" font-size="14.00">prev_1h_inflow</text>
</g>
<!-- 1&#45;&gt;5 -->
<g id="edge2" class="edge">
<title>1&#45;&gt;5</title>
<path fill="none" stroke="#888888" d="M335.39,-769.67C340.38,-760.94 345.57,-751.88 350.66,-742.99"/>
<polygon fill="#888888" stroke="#888888" points="353.77,-744.59 355.7,-734.18 347.7,-741.12 353.77,-744.59"/>
</g>
<!-- 3 -->
<g id="node4" class="node">
<title>3</title>
<text text-anchor="start" x="47.5" y="-561.8" font-family="Arial" font-weight="bold" font-size="14.00"> &lt; 1.9</text>
<path fill="#f8766d" fill-opacity="0.874510" stroke="transparent" d="M24,-489C24,-489 106,-489 106,-489 112,-489 118,-495 118,-501 118,-501 118,-541 118,-541 118,-547 112,-553 106,-553 106,-553 24,-553 24,-553 18,-553 12,-547 12,-541 12,-541 12,-501 12,-501 12,-495 18,-489 24,-489"/>
<text text-anchor="start" x="13" y="-550.4" font-family="Arial" font-size="2.00"> </text>
<text text-anchor="start" x="13" y="-544.4" font-family="Arial" font-size="7.00"> &#160;3</text>
<text text-anchor="start" x="27" y="-527.8" font-family="Arial" font-weight="bold" font-size="14.00">Predict 1.67</text>
<text text-anchor="start" x="45" y="-510.8" font-family="Arial" font-weight="bold" font-size="14.00">n = 32</text>
<text text-anchor="start" x="63.5" y="-492.8" font-family="Arial" font-size="9.00"> </text>
<path fill="none" stroke="#333333" d="M24,-489C24,-489 106,-489 106,-489 112,-489 118,-495 118,-501 118,-501 118,-541 118,-541 118,-547 112,-553 106,-553 106,-553 24,-553 24,-553 18,-553 12,-547 12,-541 12,-541 12,-501 12,-501 12,-495 18,-489 24,-489"/>
<text text-anchor="start" x="63" y="-474.8" font-family="Arial" font-weight="bold" font-size="14.00"> </text>
</g>
<!-- 2&#45;&gt;3 -->
<g id="edge3" class="edge">
<title>2&#45;&gt;3</title>
<path fill="none" stroke="#888888" d="M157.44,-615.67C148.28,-606.39 138.77,-596.75 129.47,-587.33"/>
<polygon fill="#888888" stroke="#888888" points="131.93,-584.84 122.41,-580.18 126.94,-589.75 131.93,-584.84"/>
</g>
<!-- 4 -->
<g id="node5" class="node">
<title>4</title>
<text text-anchor="start" x="200" y="-561.8" font-family="Arial" font-weight="bold" font-size="14.00"> ≥ 1.9</text>
<path fill="#f8766d" fill-opacity="0.815686" stroke="transparent" d="M172,-489C172,-489 262,-489 262,-489 268,-489 274,-495 274,-501 274,-501 274,-541 274,-541 274,-547 268,-553 262,-553 262,-553 172,-553 172,-553 166,-553 160,-547 160,-541 160,-541 160,-501 160,-501 160,-495 166,-489 172,-489"/>
<text text-anchor="start" x="161" y="-550.4" font-family="Arial" font-size="2.00"> </text>
<text text-anchor="start" x="161" y="-544.4" font-family="Arial" font-size="7.00"> &#160;4</text>
<text text-anchor="start" x="175" y="-527.8" font-family="Arial" font-weight="bold" font-size="14.00">Predict 2.008</text>
<text text-anchor="start" x="197" y="-510.8" font-family="Arial" font-weight="bold" font-size="14.00">n = 12</text>
<text text-anchor="start" x="215.5" y="-492.8" font-family="Arial" font-size="9.00"> </text>
<path fill="none" stroke="#333333" d="M172,-489C172,-489 262,-489 262,-489 268,-489 274,-495 274,-501 274,-501 274,-541 274,-541 274,-547 268,-553 262,-553 262,-553 172,-553 172,-553 166,-553 160,-547 160,-541 160,-541 160,-501 160,-501 160,-495 166,-489 172,-489"/>
<text text-anchor="start" x="215" y="-474.8" font-family="Arial" font-weight="bold" font-size="14.00"> </text>
</g>
<!-- 2&#45;&gt;4 -->
<g id="edge4" class="edge">
<title>2&#45;&gt;4</title>
<path fill="none" stroke="#888888" d="M215.77,-615.67C215.88,-607.39 215.99,-598.83 216.1,-590.38"/>
<polygon fill="#888888" stroke="#888888" points="219.6,-590.22 216.23,-580.18 212.6,-590.13 219.6,-590.22"/>
</g>
<!-- 6 -->
<g id="node6" class="node">
<title>6</title>
<text text-anchor="start" x="363" y="-561.8" font-family="Arial" font-weight="bold" font-size="14.00"> &lt; 3.615</text>
<text text-anchor="start" x="316" y="-517.3" font-family="Arial" font-size="14.00"> &#160;&#160;&#160;</text>
<path fill="#ebebeb" stroke="transparent" d="M346,-489C346,-489 430,-489 430,-489 436,-489 442,-495 442,-501 442,-501 442,-541 442,-541 442,-547 436,-553 430,-553 430,-553 346,-553 346,-553 340,-553 334,-547 334,-541 334,-541 334,-501 334,-501 334,-495 340,-489 346,-489"/>
<text text-anchor="start" x="335" y="-550.4" font-family="Arial" font-size="2.00"> </text>
<text text-anchor="start" x="335" y="-544.4" font-family="Arial" font-size="7.00"> &#160;6</text>
<text text-anchor="start" x="349" y="-527.8" font-family="Arial" font-weight="bold" font-size="14.00">Mean: 3.147</text>
<text text-anchor="start" x="368" y="-510.8" font-family="Arial" font-weight="bold" font-size="14.00">n = 82</text>
<text text-anchor="start" x="386.5" y="-492.8" font-family="Arial" font-size="9.00"> </text>
<path fill="none" stroke="#333333" d="M346,-489C346,-489 430,-489 430,-489 436,-489 442,-495 442,-501 442,-501 442,-541 442,-541 442,-547 436,-553 430,-553 430,-553 346,-553 346,-553 340,-553 334,-547 334,-541 334,-541 334,-501 334,-501 334,-495 340,-489 346,-489"/>
<text text-anchor="start" x="444" y="-517.3" font-family="Arial" font-size="14.00"> &#160;&#160;&#160;</text>
<text text-anchor="start" x="330.5" y="-474.8" font-family="Arial" font-weight="bold" font-size="14.00">prev_168h_inflow</text>
</g>
<!-- 5&#45;&gt;6 -->
<g id="edge5" class="edge">
<title>5&#45;&gt;6</title>
<path fill="none" stroke="#888888" d="M388.62,-615.67C388.56,-607.39 388.51,-598.83 388.45,-590.38"/>
<polygon fill="#888888" stroke="#888888" points="391.95,-590.15 388.38,-580.18 384.95,-590.2 391.95,-590.15"/>
</g>
<!-- 13 -->
<g id="node7" class="node">
<title>13</title>
<text text-anchor="start" x="545.5" y="-561.8" font-family="Arial" font-weight="bold" font-size="14.00"> ≥ 3.615</text>
<text text-anchor="start" x="498" y="-517.3" font-family="Arial" font-size="14.00"> &#160;&#160;&#160;</text>
<path fill="#ebebeb" stroke="transparent" d="M528,-489C528,-489 612,-489 612,-489 618,-489 624,-495 624,-501 624,-501 624,-541 624,-541 624,-547 618,-553 612,-553 612,-553 528,-553 528,-553 522,-553 516,-547 516,-541 516,-541 516,-501 516,-501 516,-495 522,-489 528,-489"/>
<text text-anchor="start" x="517" y="-550.4" font-family="Arial" font-size="2.00"> </text>
<text text-anchor="start" x="517" y="-544.4" font-family="Arial" font-size="7.00"> &#160;13</text>
<text text-anchor="start" x="531" y="-527.8" font-family="Arial" font-weight="bold" font-size="14.00">Mean: 3.722</text>
<text text-anchor="start" x="550" y="-510.8" font-family="Arial" font-weight="bold" font-size="14.00">n = 42</text>
<text text-anchor="start" x="568.5" y="-492.8" font-family="Arial" font-size="9.00"> </text>
<path fill="none" stroke="#333333" d="M528,-489C528,-489 612,-489 612,-489 618,-489 624,-495 624,-501 624,-501 624,-541 624,-541 624,-547 618,-553 612,-553 612,-553 528,-553 528,-553 522,-553 516,-547 516,-541 516,-541 516,-501 516,-501 516,-495 522,-489 528,-489"/>
<text text-anchor="start" x="626" y="-517.3" font-family="Arial" font-size="14.00"> &#160;&#160;&#160;</text>
<text text-anchor="start" x="512.5" y="-474.8" font-family="Arial" font-weight="bold" font-size="14.00">prev_168h_inflow</text>
</g>
<!-- 5&#45;&gt;13 -->
<g id="edge6" class="edge">
<title>5&#45;&gt;13</title>
<path fill="none" stroke="#888888" d="M458.2,-615.88C469.56,-606.35 481.38,-596.42 492.91,-586.74"/>
<polygon fill="#888888" stroke="#888888" points="495.43,-589.19 500.84,-580.08 490.93,-583.83 495.43,-589.19"/>
</g>
<!-- 7 -->
<g id="node8" class="node">
<title>7</title>
<text text-anchor="start" x="209.5" y="-407.8" font-family="Arial" font-weight="bold" font-size="14.00"> &lt; 3.44</text>
<text text-anchor="start" x="163" y="-363.3" font-family="Arial" font-size="14.00"> &#160;&#160;</text>
<path fill="#ebebeb" stroke="transparent" d="M189,-335C189,-335 273,-335 273,-335 279,-335 285,-341 285,-347 285,-347 285,-387 285,-387 285,-393 279,-399 273,-399 273,-399 189,-399 189,-399 183,-399 177,-393 177,-387 177,-387 177,-347 177,-347 177,-341 183,-335 189,-335"/>
<text text-anchor="start" x="178" y="-396.4" font-family="Arial" font-size="2.00"> </text>
<text text-anchor="start" x="178" y="-390.4" font-family="Arial" font-size="7.00"> &#160;7</text>
<text text-anchor="start" x="192" y="-373.8" font-family="Arial" font-weight="bold" font-size="14.00">Mean: 2.998</text>
<text text-anchor="start" x="211" y="-356.8" font-family="Arial" font-weight="bold" font-size="14.00">n = 65</text>
<text text-anchor="start" x="229.5" y="-338.8" font-family="Arial" font-size="9.00"> </text>
<path fill="none" stroke="#333333" d="M189,-335C189,-335 273,-335 273,-335 279,-335 285,-341 285,-347 285,-347 285,-387 285,-387 285,-393 279,-399 273,-399 273,-399 189,-399 189,-399 183,-399 177,-393 177,-387 177,-387 177,-347 177,-347 177,-341 183,-335 189,-335"/>
<text text-anchor="start" x="287" y="-363.3" font-family="Arial" font-size="14.00"> &#160;&#160;</text>
<text text-anchor="start" x="177.5" y="-320.8" font-family="Arial" font-weight="bold" font-size="14.00">prev_24h_inflow</text>
</g>
<!-- 6&#45;&gt;7 -->
<g id="edge7" class="edge">
<title>6&#45;&gt;7</title>
<path fill="none" stroke="#888888" d="M327.75,-461.67C318.17,-452.39 308.21,-442.75 298.48,-433.33"/>
<polygon fill="#888888" stroke="#888888" points="300.71,-430.62 291.09,-426.18 295.84,-435.65 300.71,-430.62"/>
</g>
<!-- 12 -->
<g id="node9" class="node">
<title>12</title>
<text text-anchor="start" x="375" y="-407.8" font-family="Arial" font-weight="bold" font-size="14.00"> ≥ 3.44</text>
<path fill="#f8766d" fill-opacity="0.509804" stroke="transparent" d="M351,-335C351,-335 441,-335 441,-335 447,-335 453,-341 453,-347 453,-347 453,-387 453,-387 453,-393 447,-399 441,-399 441,-399 351,-399 351,-399 345,-399 339,-393 339,-387 339,-387 339,-347 339,-347 339,-341 345,-335 351,-335"/>
<text text-anchor="start" x="340" y="-396.4" font-family="Arial" font-size="2.00"> </text>
<text text-anchor="start" x="340" y="-390.4" font-family="Arial" font-size="7.00"> &#160;12</text>
<text text-anchor="start" x="354" y="-373.8" font-family="Arial" font-weight="bold" font-size="14.00">Predict 3.715</text>
<text text-anchor="start" x="376" y="-356.8" font-family="Arial" font-weight="bold" font-size="14.00">n = 17</text>
<text text-anchor="start" x="394.5" y="-338.8" font-family="Arial" font-size="9.00"> </text>
<path fill="none" stroke="#333333" d="M351,-335C351,-335 441,-335 441,-335 447,-335 453,-341 453,-347 453,-347 453,-387 453,-387 453,-393 447,-399 441,-399 441,-399 351,-399 351,-399 345,-399 339,-393 339,-387 339,-387 339,-347 339,-347 339,-341 345,-335 351,-335"/>
<text text-anchor="start" x="394" y="-320.8" font-family="Arial" font-weight="bold" font-size="14.00"> </text>
</g>
<!-- 6&#45;&gt;12 -->
<g id="edge8" class="edge">
<title>6&#45;&gt;12</title>
<path fill="none" stroke="#888888" d="M391.07,-461.67C391.51,-453.39 391.96,-444.83 392.4,-436.38"/>
<polygon fill="#888888" stroke="#888888" points="395.91,-436.35 392.94,-426.18 388.92,-435.98 395.91,-436.35"/>
</g>
<!-- 14 -->
<g id="node14" class="node">
<title>14</title>
<text text-anchor="start" x="540" y="-407.8" font-family="Arial" font-weight="bold" font-size="14.00"> &lt; 4.275</text>
<text text-anchor="start" x="497" y="-363.3" font-family="Arial" font-size="14.00"> &#160;&#160;</text>
<path fill="#ebebeb" stroke="transparent" d="M523,-335C523,-335 607,-335 607,-335 613,-335 619,-341 619,-347 619,-347 619,-387 619,-387 619,-393 613,-399 607,-399 607,-399 523,-399 523,-399 517,-399 511,-393 511,-387 511,-387 511,-347 511,-347 511,-341 517,-335 523,-335"/>
<text text-anchor="start" x="512" y="-396.4" font-family="Arial" font-size="2.00"> </text>
<text text-anchor="start" x="512" y="-390.4" font-family="Arial" font-size="7.00"> &#160;14</text>
<text text-anchor="start" x="526" y="-373.8" font-family="Arial" font-weight="bold" font-size="14.00">Mean: 3.619</text>
<text text-anchor="start" x="545" y="-356.8" font-family="Arial" font-weight="bold" font-size="14.00">n = 37</text>
<text text-anchor="start" x="563.5" y="-338.8" font-family="Arial" font-size="9.00"> </text>
<path fill="none" stroke="#333333" d="M523,-335C523,-335 607,-335 607,-335 613,-335 619,-341 619,-347 619,-347 619,-387 619,-387 619,-393 613,-399 607,-399 607,-399 523,-399 523,-399 517,-399 511,-393 511,-387 511,-387 511,-347 511,-347 511,-341 517,-335 523,-335"/>
<text text-anchor="start" x="621" y="-363.3" font-family="Arial" font-size="14.00"> &#160;&#160;</text>
<text text-anchor="start" x="511.5" y="-320.8" font-family="Arial" font-weight="bold" font-size="14.00">prev_24h_inflow</text>
</g>
<!-- 13&#45;&gt;14 -->
<g id="edge13" class="edge">
<title>13&#45;&gt;14</title>
<path fill="none" stroke="#888888" d="M568.08,-461.67C567.81,-453.39 567.53,-444.83 567.25,-436.38"/>
<polygon fill="#888888" stroke="#888888" points="570.74,-436.06 566.91,-426.18 563.74,-436.29 570.74,-436.06"/>
</g>
<!-- 19 -->
<g id="node15" class="node">
<title>19</title>
<text text-anchor="start" x="705.5" y="-407.8" font-family="Arial" font-weight="bold" font-size="14.00"> ≥ 4.275</text>
<path fill="#f8766d" fill-opacity="0.376471" stroke="transparent" d="M685,-335C685,-335 775,-335 775,-335 781,-335 787,-341 787,-347 787,-347 787,-387 787,-387 787,-393 781,-399 775,-399 775,-399 685,-399 685,-399 679,-399 673,-393 673,-387 673,-387 673,-347 673,-347 673,-341 679,-335 685,-335"/>
<text text-anchor="start" x="674" y="-396.4" font-family="Arial" font-size="2.00"> </text>
<text text-anchor="start" x="674" y="-390.4" font-family="Arial" font-size="7.00"> &#160;19</text>
<text text-anchor="start" x="688" y="-373.8" font-family="Arial" font-weight="bold" font-size="14.00">Predict 4.484</text>
<text text-anchor="start" x="714" y="-356.8" font-family="Arial" font-weight="bold" font-size="14.00">n = 5</text>
<text text-anchor="start" x="728.5" y="-338.8" font-family="Arial" font-size="9.00"> </text>
<path fill="none" stroke="#333333" d="M685,-335C685,-335 775,-335 775,-335 781,-335 787,-341 787,-347 787,-347 787,-387 787,-387 787,-393 781,-399 775,-399 775,-399 685,-399 685,-399 679,-399 673,-393 673,-387 673,-387 673,-347 673,-347 673,-341 679,-335 685,-335"/>
<text text-anchor="start" x="728" y="-320.8" font-family="Arial" font-weight="bold" font-size="14.00"> </text>
</g>
<!-- 13&#45;&gt;19 -->
<g id="edge14" class="edge">
<title>13&#45;&gt;19</title>
<path fill="none" stroke="#888888" d="M631.4,-461.67C641.16,-452.39 651.32,-442.75 661.23,-433.33"/>
<polygon fill="#888888" stroke="#888888" points="663.92,-435.6 668.76,-426.18 659.1,-430.53 663.92,-435.6"/>
</g>
<!-- 8 -->
<g id="node10" class="node">
<title>8</title>
<text text-anchor="start" x="136" y="-253.8" font-family="Arial" font-weight="bold" font-size="14.00"> &lt; 3.205</text>
<path fill="#ebebeb" stroke="transparent" d="M119,-181C119,-181 203,-181 203,-181 209,-181 215,-187 215,-193 215,-193 215,-233 215,-233 215,-239 209,-245 203,-245 203,-245 119,-245 119,-245 113,-245 107,-239 107,-233 107,-233 107,-193 107,-193 107,-187 113,-181 119,-181"/>
<text text-anchor="start" x="108" y="-242.4" font-family="Arial" font-size="2.00"> </text>
<text text-anchor="start" x="108" y="-236.4" font-family="Arial" font-size="7.00"> &#160;8</text>
<text text-anchor="start" x="122" y="-219.8" font-family="Arial" font-weight="bold" font-size="14.00">Mean: 2.806</text>
<text text-anchor="start" x="141" y="-202.8" font-family="Arial" font-weight="bold" font-size="14.00">n = 37</text>
<text text-anchor="start" x="159.5" y="-184.8" font-family="Arial" font-size="9.00"> </text>
<path fill="none" stroke="#333333" d="M119,-181C119,-181 203,-181 203,-181 209,-181 215,-187 215,-193 215,-193 215,-233 215,-233 215,-239 209,-245 203,-245 203,-245 119,-245 119,-245 113,-245 107,-239 107,-233 107,-233 107,-193 107,-193 107,-187 113,-181 119,-181"/>
<text text-anchor="start" x="146.5" y="-166.8" font-family="Arial" font-weight="bold" font-size="14.00">time</text>
</g>
<!-- 7&#45;&gt;8 -->
<g id="edge9" class="edge">
<title>7&#45;&gt;8</title>
<path fill="none" stroke="#888888" d="M204.14,-307.67C200.16,-299.03 196.03,-290.07 191.98,-281.27"/>
<polygon fill="#888888" stroke="#888888" points="195.15,-279.8 187.79,-272.18 188.8,-282.72 195.15,-279.8"/>
</g>
<!-- 11 -->
<g id="node11" class="node">
<title>11</title>
<text text-anchor="start" x="289.5" y="-253.8" font-family="Arial" font-weight="bold" font-size="14.00"> ≥ 3.205</text>
<path fill="#f8766d" fill-opacity="0.592157" stroke="transparent" d="M269,-181C269,-181 359,-181 359,-181 365,-181 371,-187 371,-193 371,-193 371,-233 371,-233 371,-239 365,-245 359,-245 359,-245 269,-245 269,-245 263,-245 257,-239 257,-233 257,-233 257,-193 257,-193 257,-187 263,-181 269,-181"/>
<text text-anchor="start" x="258" y="-242.4" font-family="Arial" font-size="2.00"> </text>
<text text-anchor="start" x="258" y="-236.4" font-family="Arial" font-size="7.00"> &#160;11</text>
<text text-anchor="start" x="272" y="-219.8" font-family="Arial" font-weight="bold" font-size="14.00">Predict 3.252</text>
<text text-anchor="start" x="294" y="-202.8" font-family="Arial" font-weight="bold" font-size="14.00">n = 28</text>
<text text-anchor="start" x="312.5" y="-184.8" font-family="Arial" font-size="9.00"> </text>
<path fill="none" stroke="#333333" d="M269,-181C269,-181 359,-181 359,-181 365,-181 371,-187 371,-193 371,-193 371,-233 371,-233 371,-239 365,-245 359,-245 359,-245 269,-245 269,-245 263,-245 257,-239 257,-233 257,-233 257,-193 257,-193 257,-187 263,-181 269,-181"/>
<text text-anchor="start" x="312" y="-166.8" font-family="Arial" font-weight="bold" font-size="14.00"> </text>
</g>
<!-- 7&#45;&gt;11 -->
<g id="edge10" class="edge">
<title>7&#45;&gt;11</title>
<path fill="none" stroke="#888888" d="M262.85,-307.67C267.62,-298.94 272.56,-289.88 277.42,-280.99"/>
<polygon fill="#888888" stroke="#888888" points="280.51,-282.63 282.23,-272.18 274.37,-279.28 280.51,-282.63"/>
</g>
<!-- 9 -->
<g id="node12" class="node">
<title>9</title>
<text text-anchor="start" x="61.5" y="-99.8" font-family="Arial" font-weight="bold" font-size="14.00"> &lt; 21.5</text>
<path fill="#f8766d" fill-opacity="0.639216" stroke="transparent" d="M38,-27C38,-27 128,-27 128,-27 134,-27 140,-33 140,-39 140,-39 140,-79 140,-79 140,-85 134,-91 128,-91 128,-91 38,-91 38,-91 32,-91 26,-85 26,-79 26,-79 26,-39 26,-39 26,-33 32,-27 38,-27"/>
<text text-anchor="start" x="27" y="-88.4" font-family="Arial" font-size="2.00"> </text>
<text text-anchor="start" x="27" y="-82.4" font-family="Arial" font-size="7.00"> &#160;9</text>
<text text-anchor="start" x="41" y="-65.8" font-family="Arial" font-weight="bold" font-size="14.00">Predict 2.993</text>
<text text-anchor="start" x="63" y="-48.8" font-family="Arial" font-weight="bold" font-size="14.00">n = 24</text>
<text text-anchor="start" x="81.5" y="-30.8" font-family="Arial" font-size="9.00"> </text>
<path fill="none" stroke="#333333" d="M38,-27C38,-27 128,-27 128,-27 134,-27 140,-33 140,-39 140,-39 140,-79 140,-79 140,-85 134,-91 128,-91 128,-91 38,-91 38,-91 32,-91 26,-85 26,-79 26,-79 26,-39 26,-39 26,-33 32,-27 38,-27"/>
<text text-anchor="start" x="81" y="-12.8" font-family="Arial" font-weight="bold" font-size="14.00"> </text>
</g>
<!-- 8&#45;&gt;9 -->
<g id="edge11" class="edge">
<title>8&#45;&gt;9</title>
<path fill="none" stroke="#888888" d="M131.07,-153.67C126.63,-145.03 122.04,-136.07 117.52,-127.27"/>
<polygon fill="#888888" stroke="#888888" points="120.53,-125.48 112.85,-118.18 114.31,-128.67 120.53,-125.48"/>
</g>
<!-- 10 -->
<g id="node13" class="node">
<title>10</title>
<text text-anchor="start" x="218" y="-99.8" font-family="Arial" font-weight="bold" font-size="14.00"> ≥ 21.5</text>
<path fill="#f8766d" fill-opacity="0.733333" stroke="transparent" d="M194,-27C194,-27 284,-27 284,-27 290,-27 296,-33 296,-39 296,-39 296,-79 296,-79 296,-85 290,-91 284,-91 284,-91 194,-91 194,-91 188,-91 182,-85 182,-79 182,-79 182,-39 182,-39 182,-33 188,-27 194,-27"/>
<text text-anchor="start" x="183" y="-88.4" font-family="Arial" font-size="2.00"> </text>
<text text-anchor="start" x="183" y="-82.4" font-family="Arial" font-size="7.00"> &#160;10</text>
<text text-anchor="start" x="197" y="-65.8" font-family="Arial" font-weight="bold" font-size="14.00">Predict 2.462</text>
<text text-anchor="start" x="219" y="-48.8" font-family="Arial" font-weight="bold" font-size="14.00">n = 13</text>
<text text-anchor="start" x="237.5" y="-30.8" font-family="Arial" font-size="9.00"> </text>
<path fill="none" stroke="#333333" d="M194,-27C194,-27 284,-27 284,-27 290,-27 296,-33 296,-39 296,-39 296,-79 296,-79 296,-85 290,-91 284,-91 284,-91 194,-91 194,-91 188,-91 182,-85 182,-79 182,-79 182,-39 182,-39 182,-33 188,-27 194,-27"/>
<text text-anchor="start" x="237" y="-12.8" font-family="Arial" font-weight="bold" font-size="14.00"> </text>
</g>
<!-- 8&#45;&gt;10 -->
<g id="edge12" class="edge">
<title>8&#45;&gt;10</title>
<path fill="none" stroke="#888888" d="M190.93,-153.67C195.37,-145.03 199.96,-136.07 204.48,-127.27"/>
<polygon fill="#888888" stroke="#888888" points="207.69,-128.67 209.15,-118.18 201.47,-125.48 207.69,-128.67"/>
</g>
<!-- 15 -->
<g id="node16" class="node">
<title>15</title>
<text text-anchor="start" x="495.5" y="-253.8" font-family="Arial" font-weight="bold" font-size="14.00"> &lt; 2.92</text>
<path fill="#f8766d" fill-opacity="0.615686" stroke="transparent" d="M472,-181C472,-181 562,-181 562,-181 568,-181 574,-187 574,-193 574,-193 574,-233 574,-233 574,-239 568,-245 562,-245 562,-245 472,-245 472,-245 466,-245 460,-239 460,-233 460,-233 460,-193 460,-193 460,-187 466,-181 472,-181"/>
<text text-anchor="start" x="461" y="-242.4" font-family="Arial" font-size="2.00"> </text>
<text text-anchor="start" x="461" y="-236.4" font-family="Arial" font-size="7.00"> &#160;15</text>
<text text-anchor="start" x="475" y="-219.8" font-family="Arial" font-weight="bold" font-size="14.00">Predict 3.136</text>
<text text-anchor="start" x="501" y="-202.8" font-family="Arial" font-weight="bold" font-size="14.00">n = 5</text>
<text text-anchor="start" x="515.5" y="-184.8" font-family="Arial" font-size="9.00"> </text>
<path fill="none" stroke="#333333" d="M472,-181C472,-181 562,-181 562,-181 568,-181 574,-187 574,-193 574,-193 574,-233 574,-233 574,-239 568,-245 562,-245 562,-245 472,-245 472,-245 466,-245 460,-239 460,-233 460,-233 460,-193 460,-193 460,-187 466,-181 472,-181"/>
<text text-anchor="start" x="515" y="-166.8" font-family="Arial" font-weight="bold" font-size="14.00"> </text>
</g>
<!-- 14&#45;&gt;15 -->
<g id="edge15" class="edge">
<title>14&#45;&gt;15</title>
<path fill="none" stroke="#888888" d="M546.58,-307.67C543.91,-299.21 541.14,-290.45 538.42,-281.83"/>
<polygon fill="#888888" stroke="#888888" points="541.72,-280.66 535.37,-272.18 535.05,-282.77 541.72,-280.66"/>
</g>
<!-- 16 -->
<g id="node17" class="node">
<title>16</title>
<text text-anchor="start" x="657" y="-253.8" font-family="Arial" font-weight="bold" font-size="14.00"> ≥ 2.92</text>
<text text-anchor="start" x="614" y="-209.3" font-family="Arial" font-size="14.00"> &#160;</text>
<path fill="#ebebeb" stroke="transparent" d="M636,-181C636,-181 720,-181 720,-181 726,-181 732,-187 732,-193 732,-193 732,-233 732,-233 732,-239 726,-245 720,-245 720,-245 636,-245 636,-245 630,-245 624,-239 624,-233 624,-233 624,-193 624,-193 624,-187 630,-181 636,-181"/>
<text text-anchor="start" x="625" y="-242.4" font-family="Arial" font-size="2.00"> </text>
<text text-anchor="start" x="625" y="-236.4" font-family="Arial" font-size="7.00"> &#160;16</text>
<text text-anchor="start" x="639" y="-219.8" font-family="Arial" font-weight="bold" font-size="14.00">Mean: 3.695</text>
<text text-anchor="start" x="658" y="-202.8" font-family="Arial" font-weight="bold" font-size="14.00">n = 32</text>
<text text-anchor="start" x="676.5" y="-184.8" font-family="Arial" font-size="9.00"> </text>
<path fill="none" stroke="#333333" d="M636,-181C636,-181 720,-181 720,-181 726,-181 732,-187 732,-193 732,-193 732,-233 732,-233 732,-239 726,-245 720,-245 720,-245 636,-245 636,-245 630,-245 624,-239 624,-233 624,-233 624,-193 624,-193 624,-187 630,-181 636,-181"/>
<text text-anchor="start" x="734" y="-209.3" font-family="Arial" font-size="14.00"> &#160;</text>
<text text-anchor="start" x="628" y="-166.8" font-family="Arial" font-weight="bold" font-size="14.00">prev_1h_inflow</text>
</g>
<!-- 14&#45;&gt;16 -->
<g id="edge16" class="edge">
<title>14&#45;&gt;16</title>
<path fill="none" stroke="#888888" d="M608.37,-307.67C614.99,-298.76 621.87,-289.51 628.61,-280.44"/>
<polygon fill="#888888" stroke="#888888" points="631.59,-282.29 634.75,-272.18 625.98,-278.11 631.59,-282.29"/>
</g>
<!-- 17 -->
<g id="node18" class="node">
<title>17</title>
<text text-anchor="start" x="578.5" y="-99.8" font-family="Arial" font-weight="bold" font-size="14.00"> &lt; 3.98</text>
<path fill="#f8766d" fill-opacity="0.529412" stroke="transparent" d="M555,-27C555,-27 645,-27 645,-27 651,-27 657,-33 657,-39 657,-39 657,-79 657,-79 657,-85 651,-91 645,-91 645,-91 555,-91 555,-91 549,-91 543,-85 543,-79 543,-79 543,-39 543,-39 543,-33 549,-27 555,-27"/>
<text text-anchor="start" x="544" y="-88.4" font-family="Arial" font-size="2.00"> </text>
<text text-anchor="start" x="544" y="-82.4" font-family="Arial" font-size="7.00"> &#160;17</text>
<text text-anchor="start" x="558" y="-65.8" font-family="Arial" font-weight="bold" font-size="14.00">Predict 3.614</text>
<text text-anchor="start" x="580" y="-48.8" font-family="Arial" font-weight="bold" font-size="14.00">n = 25</text>
<text text-anchor="start" x="598.5" y="-30.8" font-family="Arial" font-size="9.00"> </text>
<path fill="none" stroke="#333333" d="M555,-27C555,-27 645,-27 645,-27 651,-27 657,-33 657,-39 657,-39 657,-79 657,-79 657,-85 651,-91 645,-91 645,-91 555,-91 555,-91 549,-91 543,-85 543,-79 543,-79 543,-39 543,-39 543,-33 549,-27 555,-27"/>
<text text-anchor="start" x="598" y="-12.8" font-family="Arial" font-weight="bold" font-size="14.00"> </text>
</g>
<!-- 16&#45;&gt;17 -->
<g id="edge17" class="edge">
<title>16&#45;&gt;17</title>
<path fill="none" stroke="#888888" d="M648.07,-153.67C643.63,-145.03 639.04,-136.07 634.52,-127.27"/>
<polygon fill="#888888" stroke="#888888" points="637.53,-125.48 629.85,-118.18 631.31,-128.67 637.53,-125.48"/>
</g>
<!-- 18 -->
<g id="node19" class="node">
<title>18</title>
<text text-anchor="start" x="735" y="-99.8" font-family="Arial" font-weight="bold" font-size="14.00"> ≥ 3.98</text>
<path fill="#f8766d" fill-opacity="0.462745" stroke="transparent" d="M711,-27C711,-27 801,-27 801,-27 807,-27 813,-33 813,-39 813,-39 813,-79 813,-79 813,-85 807,-91 801,-91 801,-91 711,-91 711,-91 705,-91 699,-85 699,-79 699,-79 699,-39 699,-39 699,-33 705,-27 711,-27"/>
<text text-anchor="start" x="700" y="-88.4" font-family="Arial" font-size="2.00"> </text>
<text text-anchor="start" x="700" y="-82.4" font-family="Arial" font-size="7.00"> &#160;18</text>
<text text-anchor="start" x="714" y="-65.8" font-family="Arial" font-weight="bold" font-size="14.00">Predict 3.986</text>
<text text-anchor="start" x="740" y="-48.8" font-family="Arial" font-weight="bold" font-size="14.00">n = 7</text>
<text text-anchor="start" x="754.5" y="-30.8" font-family="Arial" font-size="9.00"> </text>
<path fill="none" stroke="#333333" d="M711,-27C711,-27 801,-27 801,-27 807,-27 813,-33 813,-39 813,-39 813,-79 813,-79 813,-85 807,-91 801,-91 801,-91 711,-91 711,-91 705,-91 699,-85 699,-79 699,-79 699,-39 699,-39 699,-33 705,-27 711,-27"/>
<text text-anchor="start" x="754" y="-12.8" font-family="Arial" font-weight="bold" font-size="14.00"> </text>
</g>
<!-- 16&#45;&gt;18 -->
<g id="edge18" class="edge">
<title>16&#45;&gt;18</title>
<path fill="none" stroke="#888888" d="M707.93,-153.67C712.37,-145.03 716.96,-136.07 721.48,-127.27"/>
<polygon fill="#888888" stroke="#888888" points="724.69,-128.67 726.15,-118.18 718.47,-125.48 724.69,-128.67"/>
</g>
</g>
</svg>
