<?xml version="1.0" encoding="UTF-8" standalone="no"?>
<!DOCTYPE svg PUBLIC "-//W3C//DTD SVG 1.1//EN"
 "http://www.w3.org/Graphics/SVG/1.1/DTD/svg11.dtd">
<!-- Generated by graphviz version 2.50.0 (20211204.2007)
 -->
<!-- Pages: 1 -->
<svg width="681pt" height="742pt"
 viewBox="0.00 0.00 681.00 742.00" xmlns="http://www.w3.org/2000/svg" xmlns:xlink="http://www.w3.org/1999/xlink">
<g id="graph0" class="graph" transform="scale(1 1) rotate(0) translate(4 738)">
<polygon fill="white" stroke="transparent" points="-4,4 -4,-738 677,-738 677,4 -4,4"/>
<!-- 1 -->
<g id="node1" class="node">
<title>1</title>
<text text-anchor="start" x="299" y="-715.8" font-family="Arial" font-weight="bold" font-size="14.00"> </text>
<text text-anchor="start" x="229" y="-671.3" font-family="Arial" font-size="14.00"> &#160;&#160;&#160;</text>
<path fill="#ebebeb" stroke="transparent" d="M259,-643C259,-643 343,-643 343,-643 349,-643 355,-649 355,-655 355,-655 355,-695 355,-695 355,-701 349,-707 343,-707 343,-707 259,-707 259,-707 253,-707 247,-701 247,-695 247,-695 247,-655 247,-655 247,-649 253,-643 259,-643"/>
<text text-anchor="start" x="248" y="-704.4" font-family="Arial" font-size="2.00"> </text>
<text text-anchor="start" x="248" y="-698.4" font-family="Arial" font-size="7.00"> &#160;1</text>
<text text-anchor="start" x="262" y="-681.8" font-family="Arial" font-weight="bold" font-size="14.00">Mean: 24.07</text>
<text text-anchor="start" x="277.5" y="-664.8" font-family="Arial" font-weight="bold" font-size="14.00">n = 168</text>
<text text-anchor="start" x="299.5" y="-646.8" font-family="Arial" font-size="9.00"> </text>
<path fill="none" stroke="#333333" d="M259,-643C259,-643 343,-643 343,-643 349,-643 355,-649 355,-655 355,-655 355,-695 355,-695 355,-701 349,-707 343,-707 343,-707 259,-707 259,-707 253,-707 247,-701 247,-695 247,-695 247,-655 247,-655 247,-649 253,-643 259,-643"/>
<text text-anchor="start" x="357" y="-671.3" font-family="Arial" font-size="14.00"> &#160;&#160;&#160;</text>
<text text-anchor="start" x="243.5" y="-628.8" font-family="Arial" font-weight="bold" font-size="14.00">prev_168h_inflow</text>
</g>
<!-- 2 -->
<g id="node2" class="node">
<title>2</title>
<text text-anchor="start" x="200" y="-561.8" font-family="Arial" font-weight="bold" font-size="14.00"> &lt; 25.98</text>
<path fill="#ebebeb" stroke="transparent" d="M183,-489C183,-489 267,-489 267,-489 273,-489 279,-495 279,-501 279,-501 279,-541 279,-541 279,-547 273,-553 267,-553 267,-553 183,-553 183,-553 177,-553 171,-547 171,-541 171,-541 171,-501 171,-501 171,-495 177,-489 183,-489"/>
<text text-anchor="start" x="172" y="-550.4" font-family="Arial" font-size="2.00"> </text>
<text text-anchor="start" x="172" y="-544.4" font-family="Arial" font-size="7.00"> &#160;2</text>
<text text-anchor="start" x="186" y="-527.8" font-family="Arial" font-weight="bold" font-size="14.00">Mean: 22.14</text>
<text text-anchor="start" x="201.5" y="-510.8" font-family="Arial" font-weight="bold" font-size="14.00">n = 109</text>
<text text-anchor="start" x="223.5" y="-492.8" font-family="Arial" font-size="9.00"> </text>
<path fill="none" stroke="#333333" d="M183,-489C183,-489 267,-489 267,-489 273,-489 279,-495 279,-501 279,-501 279,-541 279,-541 279,-547 273,-553 267,-553 267,-553 183,-553 183,-553 177,-553 171,-547 171,-541 171,-541 171,-501 171,-501 171,-495 177,-489 183,-489"/>
<text text-anchor="start" x="210.5" y="-474.8" font-family="Arial" font-weight="bold" font-size="14.00">time</text>
</g>
<!-- 1&#45;&gt;2 -->
<g id="edge1" class="edge">
<title>1&#45;&gt;2</title>
<path fill="none" stroke="#888888" d="M271.83,-615.67C267.52,-607.03 263.04,-598.07 258.64,-589.27"/>
<polygon fill="#888888" stroke="#888888" points="261.69,-587.56 254.09,-580.18 255.43,-590.69 261.69,-587.56"/>
</g>
<!-- 5 -->
<g id="node3" class="node">
<title>5</title>
<text text-anchor="start" x="353.5" y="-561.8" font-family="Arial" font-weight="bold" font-size="14.00"> ≥ 25.98</text>
<path fill="#ebebeb" stroke="transparent" d="M336,-489C336,-489 420,-489 420,-489 426,-489 432,-495 432,-501 432,-501 432,-541 432,-541 432,-547 426,-553 420,-553 420,-553 336,-553 336,-553 330,-553 324,-547 324,-541 324,-541 324,-501 324,-501 324,-495 330,-489 336,-489"/>
<text text-anchor="start" x="325" y="-550.4" font-family="Arial" font-size="2.00"> </text>
<text text-anchor="start" x="325" y="-544.4" font-family="Arial" font-size="7.00"> &#160;5</text>
<text text-anchor="start" x="339" y="-527.8" font-family="Arial" font-weight="bold" font-size="14.00">Mean: 27.62</text>
<text text-anchor="start" x="358" y="-510.8" font-family="Arial" font-weight="bold" font-size="14.00">n = 59</text>
<text text-anchor="start" x="376.5" y="-492.8" font-family="Arial" font-size="9.00"> </text>
<path fill="none" stroke="#333333" d="M336,-489C336,-489 420,-489 420,-489 426,-489 432,-495 432,-501 432,-501 432,-541 432,-541 432,-547 426,-553 420,-553 420,-553 336,-553 336,-553 330,-553 324,-547 324,-541 324,-541 324,-501 324,-501 324,-495 330,-489 336,-489"/>
<text text-anchor="start" x="363.5" y="-474.8" font-family="Arial" font-weight="bold" font-size="14.00">time</text>
</g>
<!-- 1&#45;&gt;5 -->
<g id="edge2" class="edge">
<title>1&#45;&gt;5</title>
<path fill="none" stroke="#888888" d="M330.55,-615.67C334.93,-607.03 339.46,-598.07 343.92,-589.27"/>
<polygon fill="#888888" stroke="#888888" points="347.13,-590.68 348.53,-580.18 340.89,-587.52 347.13,-590.68"/>
</g>
<!-- 3 -->
<g id="node4" class="node">
<title>3</title>
<text text-anchor="start" x="51.5" y="-407.8" font-family="Arial" font-weight="bold" font-size="14.00"> &lt; 5.5</text>
<path fill="#f8766d" fill-opacity="0.874510" stroke="transparent" d="M24,-335C24,-335 114,-335 114,-335 120,-335 126,-341 126,-347 126,-347 126,-387 126,-387 126,-393 120,-399 114,-399 114,-399 24,-399 24,-399 18,-399 12,-393 12,-387 12,-387 12,-347 12,-347 12,-341 18,-335 24,-335"/>
<text text-anchor="start" x="13" y="-396.4" font-family="Arial" font-size="2.00"> </text>
<text text-anchor="start" x="13" y="-390.4" font-family="Arial" font-size="7.00"> &#160;3</text>
<text text-anchor="start" x="27" y="-373.8" font-family="Arial" font-weight="bold" font-size="14.00">Predict 20.98</text>
<text text-anchor="start" x="49" y="-356.8" font-family="Arial" font-weight="bold" font-size="14.00">n = 42</text>
<text text-anchor="start" x="67.5" y="-338.8" font-family="Arial" font-size="9.00"> </text>
<path fill="none" stroke="#333333" d="M24,-335C24,-335 114,-335 114,-335 120,-335 126,-341 126,-347 126,-347 126,-387 126,-387 126,-393 120,-399 114,-399 114,-399 24,-399 24,-399 18,-399 12,-393 12,-387 12,-387 12,-347 12,-347 12,-341 18,-335 24,-335"/>
<text text-anchor="start" x="67" y="-320.8" font-family="Arial" font-weight="bold" font-size="14.00"> </text>
</g>
<!-- 2&#45;&gt;3 -->
<g id="edge3" class="edge">
<title>2&#45;&gt;3</title>
<path fill="none" stroke="#888888" d="M165.13,-461.67C155.62,-452.39 145.72,-442.75 136.05,-433.33"/>
<polygon fill="#888888" stroke="#888888" points="138.31,-430.65 128.71,-426.18 133.43,-435.66 138.31,-430.65"/>
</g>
<!-- 4 -->
<g id="node5" class="node">
<title>4</title>
<text text-anchor="start" x="208" y="-407.8" font-family="Arial" font-weight="bold" font-size="14.00"> ≥ 5.5</text>
<path fill="#f8766d" fill-opacity="0.819608" stroke="transparent" d="M180,-335C180,-335 270,-335 270,-335 276,-335 282,-341 282,-347 282,-347 282,-387 282,-387 282,-393 276,-399 270,-399 270,-399 180,-399 180,-399 174,-399 168,-393 168,-387 168,-387 168,-347 168,-347 168,-341 174,-335 180,-335"/>
<text text-anchor="start" x="169" y="-396.4" font-family="Arial" font-size="2.00"> </text>
<text text-anchor="start" x="169" y="-390.4" font-family="Arial" font-size="7.00"> &#160;4</text>
<text text-anchor="start" x="183" y="-373.8" font-family="Arial" font-weight="bold" font-size="14.00">Predict 22.87</text>
<text text-anchor="start" x="205" y="-356.8" font-family="Arial" font-weight="bold" font-size="14.00">n = 67</text>
<text text-anchor="start" x="223.5" y="-338.8" font-family="Arial" font-size="9.00"> </text>
<path fill="none" stroke="#333333" d="M180,-335C180,-335 270,-335 270,-335 276,-335 282,-341 282,-347 282,-347 282,-387 282,-387 282,-393 276,-399 270,-399 270,-399 180,-399 180,-399 174,-399 168,-393 168,-387 168,-387 168,-347 168,-347 168,-341 174,-335 180,-335"/>
<text text-anchor="start" x="223" y="-320.8" font-family="Arial" font-weight="bold" font-size="14.00"> </text>
</g>
<!-- 2&#45;&gt;4 -->
<g id="edge4" class="edge">
<title>2&#45;&gt;4</title>
<path fill="none" stroke="#888888" d="M225,-461.67C225,-453.39 225,-444.83 225,-436.38"/>
<polygon fill="#888888" stroke="#888888" points="228.5,-436.18 225,-426.18 221.5,-436.18 228.5,-436.18"/>
</g>
<!-- 6 -->
<g id="node6" class="node">
<title>6</title>
<text text-anchor="start" x="356.5" y="-407.8" font-family="Arial" font-weight="bold" font-size="14.00"> &lt; 15.5</text>
<path fill="#ebebeb" stroke="transparent" d="M336,-335C336,-335 420,-335 420,-335 426,-335 432,-341 432,-347 432,-347 432,-387 432,-387 432,-393 426,-399 420,-399 420,-399 336,-399 336,-399 330,-399 324,-393 324,-387 324,-387 324,-347 324,-347 324,-341 330,-335 336,-335"/>
<text text-anchor="start" x="325" y="-396.4" font-family="Arial" font-size="2.00"> </text>
<text text-anchor="start" x="325" y="-390.4" font-family="Arial" font-size="7.00"> &#160;6</text>
<text text-anchor="start" x="339" y="-373.8" font-family="Arial" font-weight="bold" font-size="14.00">Mean: 28.22</text>
<text text-anchor="start" x="358" y="-356.8" font-family="Arial" font-weight="bold" font-size="14.00">n = 47</text>
<text text-anchor="start" x="376.5" y="-338.8" font-family="Arial" font-size="9.00"> </text>
<path fill="none" stroke="#333333" d="M336,-335C336,-335 420,-335 420,-335 426,-335 432,-341 432,-347 432,-347 432,-387 432,-387 432,-393 426,-399 420,-399 420,-399 336,-399 336,-399 330,-399 324,-393 324,-387 324,-387 324,-347 324,-347 324,-341 330,-335 336,-335"/>
<text text-anchor="start" x="363.5" y="-320.8" font-family="Arial" font-weight="bold" font-size="14.00">time</text>
</g>
<!-- 5&#45;&gt;6 -->
<g id="edge5" class="edge">
<title>5&#45;&gt;6</title>
<path fill="none" stroke="#888888" d="M378,-461.67C378,-453.39 378,-444.83 378,-436.38"/>
<polygon fill="#888888" stroke="#888888" points="381.5,-436.18 378,-426.18 374.5,-436.18 381.5,-436.18"/>
</g>
<!-- 13 -->
<g id="node7" class="node">
<title>13</title>
<text text-anchor="start" x="510" y="-407.8" font-family="Arial" font-weight="bold" font-size="14.00"> ≥ 15.5</text>
<path fill="#f8766d" fill-opacity="0.749020" stroke="transparent" d="M486,-335C486,-335 576,-335 576,-335 582,-335 588,-341 588,-347 588,-347 588,-387 588,-387 588,-393 582,-399 576,-399 576,-399 486,-399 486,-399 480,-399 474,-393 474,-387 474,-387 474,-347 474,-347 474,-341 480,-335 486,-335"/>
<text text-anchor="start" x="475" y="-396.4" font-family="Arial" font-size="2.00"> </text>
<text text-anchor="start" x="475" y="-390.4" font-family="Arial" font-size="7.00"> &#160;13</text>
<text text-anchor="start" x="489" y="-373.8" font-family="Arial" font-weight="bold" font-size="14.00">Predict 25.28</text>
<text text-anchor="start" x="511" y="-356.8" font-family="Arial" font-weight="bold" font-size="14.00">n = 12</text>
<text text-anchor="start" x="529.5" y="-338.8" font-family="Arial" font-size="9.00"> </text>
<path fill="none" stroke="#333333" d="M486,-335C486,-335 576,-335 576,-335 582,-335 588,-341 588,-347 588,-347 588,-387 588,-387 588,-393 582,-399 576,-399 576,-399 486,-399 486,-399 480,-399 474,-393 474,-387 474,-387 474,-347 474,-347 474,-341 480,-335 486,-335"/>
<text text-anchor="start" x="529" y="-320.8" font-family="Arial" font-weight="bold" font-size="14.00"> </text>
</g>
<!-- 5&#45;&gt;13 -->
<g id="edge6" class="edge">
<title>5&#45;&gt;13</title>
<path fill="none" stroke="#888888" d="M436.72,-461.67C446.05,-452.39 455.76,-442.75 465.24,-433.33"/>
<polygon fill="#888888" stroke="#888888" points="467.81,-435.71 472.44,-426.18 462.88,-430.74 467.81,-435.71"/>
</g>
<!-- 7 -->
<g id="node8" class="node">
<title>7</title>
<text text-anchor="start" x="282.5" y="-253.8" font-family="Arial" font-weight="bold" font-size="14.00"> &lt; 9.5</text>
<path fill="#ebebeb" stroke="transparent" d="M258,-181C258,-181 342,-181 342,-181 348,-181 354,-187 354,-193 354,-193 354,-233 354,-233 354,-239 348,-245 342,-245 342,-245 258,-245 258,-245 252,-245 246,-239 246,-233 246,-233 246,-193 246,-193 246,-187 252,-181 258,-181"/>
<text text-anchor="start" x="247" y="-242.4" font-family="Arial" font-size="2.00"> </text>
<text text-anchor="start" x="247" y="-236.4" font-family="Arial" font-size="7.00"> &#160;7</text>
<text text-anchor="start" x="261" y="-219.8" font-family="Arial" font-weight="bold" font-size="14.00">Mean: 28.17</text>
<text text-anchor="start" x="280" y="-202.8" font-family="Arial" font-weight="bold" font-size="14.00">n = 13</text>
<text text-anchor="start" x="298.5" y="-184.8" font-family="Arial" font-size="9.00"> </text>
<path fill="none" stroke="#333333" d="M258,-181C258,-181 342,-181 342,-181 348,-181 354,-187 354,-193 354,-193 354,-233 354,-233 354,-239 348,-245 342,-245 342,-245 258,-245 258,-245 252,-245 246,-239 246,-233 246,-233 246,-193 246,-193 246,-187 252,-181 258,-181"/>
<text text-anchor="start" x="264.5" y="-166.8" font-family="Arial" font-weight="bold" font-size="14.00">windspeed</text>
</g>
<!-- 6&#45;&gt;7 -->
<g id="edge7" class="edge">
<title>6&#45;&gt;7</title>
<path fill="none" stroke="#888888" d="M348.07,-307.67C343.63,-299.03 339.04,-290.07 334.52,-281.27"/>
<polygon fill="#888888" stroke="#888888" points="337.53,-279.48 329.85,-272.18 331.31,-282.67 337.53,-279.48"/>
</g>
<!-- 10 -->
<g id="node9" class="node">
<title>10</title>
<text text-anchor="start" x="439" y="-253.8" font-family="Arial" font-weight="bold" font-size="14.00"> ≥ 9.5</text>
<path fill="#ebebeb" stroke="transparent" d="M414,-181C414,-181 498,-181 498,-181 504,-181 510,-187 510,-193 510,-193 510,-233 510,-233 510,-239 504,-245 498,-245 498,-245 414,-245 414,-245 408,-245 402,-239 402,-233 402,-233 402,-193 402,-193 402,-187 408,-181 414,-181"/>
<text text-anchor="start" x="403" y="-242.4" font-family="Arial" font-size="2.00"> </text>
<text text-anchor="start" x="403" y="-236.4" font-family="Arial" font-size="7.00"> &#160;10</text>
<text text-anchor="start" x="417" y="-219.8" font-family="Arial" font-weight="bold" font-size="14.00">Mean: 28.24</text>
<text text-anchor="start" x="436" y="-202.8" font-family="Arial" font-weight="bold" font-size="14.00">n = 34</text>
<text text-anchor="start" x="454.5" y="-184.8" font-family="Arial" font-size="9.00"> </text>
<path fill="none" stroke="#333333" d="M414,-181C414,-181 498,-181 498,-181 504,-181 510,-187 510,-193 510,-193 510,-233 510,-233 510,-239 504,-245 498,-245 498,-245 414,-245 414,-245 408,-245 402,-239 402,-233 402,-233 402,-193 402,-193 402,-187 408,-181 414,-181"/>
<text text-anchor="start" x="413.5" y="-166.8" font-family="Arial" font-weight="bold" font-size="14.00">day_of_week</text>
</g>
<!-- 6&#45;&gt;10 -->
<g id="edge8" class="edge">
<title>6&#45;&gt;10</title>
<path fill="none" stroke="#888888" d="M407.93,-307.67C412.37,-299.03 416.96,-290.07 421.48,-281.27"/>
<polygon fill="#888888" stroke="#888888" points="424.69,-282.67 426.15,-272.18 418.47,-279.48 424.69,-282.67"/>
</g>
<!-- 8 -->
<g id="node10" class="node">
<title>8</title>
<text text-anchor="start" x="132" y="-99.8" font-family="Arial" font-weight="bold" font-size="14.00"> &lt; 5</text>
<path fill="#f8766d" fill-opacity="0.690196" stroke="transparent" d="M99,-27C99,-27 189,-27 189,-27 195,-27 201,-33 201,-39 201,-39 201,-79 201,-79 201,-85 195,-91 189,-91 189,-91 99,-91 99,-91 93,-91 87,-85 87,-79 87,-79 87,-39 87,-39 87,-33 93,-27 99,-27"/>
<text text-anchor="start" x="88" y="-88.4" font-family="Arial" font-size="2.00"> </text>
<text text-anchor="start" x="88" y="-82.4" font-family="Arial" font-size="7.00"> &#160;8</text>
<text text-anchor="start" x="102" y="-65.8" font-family="Arial" font-weight="bold" font-size="14.00">Predict 27.34</text>
<text text-anchor="start" x="124" y="-48.8" font-family="Arial" font-weight="bold" font-size="14.00">n = 12</text>
<text text-anchor="start" x="142.5" y="-30.8" font-family="Arial" font-size="9.00"> </text>
<path fill="none" stroke="#333333" d="M99,-27C99,-27 189,-27 189,-27 195,-27 201,-33 201,-39 201,-39 201,-79 201,-79 201,-85 195,-91 189,-91 189,-91 99,-91 99,-91 93,-91 87,-85 87,-79 87,-79 87,-39 87,-39 87,-33 93,-27 99,-27"/>
<text text-anchor="start" x="142" y="-12.8" font-family="Arial" font-weight="bold" font-size="14.00"> </text>
</g>
<!-- 7&#45;&gt;8 -->
<g id="edge9" class="edge">
<title>7&#45;&gt;8</title>
<path fill="none" stroke="#888888" d="M240.13,-153.67C230.62,-144.39 220.72,-134.75 211.05,-125.33"/>
<polygon fill="#888888" stroke="#888888" points="213.31,-122.65 203.71,-118.18 208.43,-127.66 213.31,-122.65"/>
</g>
<!-- 9 -->
<g id="node11" class="node">
<title>9</title>
<text text-anchor="start" x="288.5" y="-99.8" font-family="Arial" font-weight="bold" font-size="14.00"> ≥ 5</text>
<path fill="#f8766d" fill-opacity="0.376471" stroke="transparent" d="M255,-27C255,-27 345,-27 345,-27 351,-27 357,-33 357,-39 357,-39 357,-79 357,-79 357,-85 351,-91 345,-91 345,-91 255,-91 255,-91 249,-91 243,-85 243,-79 243,-79 243,-39 243,-39 243,-33 249,-27 255,-27"/>
<text text-anchor="start" x="244" y="-88.4" font-family="Arial" font-size="2.00"> </text>
<text text-anchor="start" x="244" y="-82.4" font-family="Arial" font-size="7.00"> &#160;9</text>
<text text-anchor="start" x="258" y="-65.8" font-family="Arial" font-weight="bold" font-size="14.00">Predict 38.03</text>
<text text-anchor="start" x="284" y="-48.8" font-family="Arial" font-weight="bold" font-size="14.00">n = 1</text>
<text text-anchor="start" x="298.5" y="-30.8" font-family="Arial" font-size="9.00"> </text>
<path fill="none" stroke="#333333" d="M255,-27C255,-27 345,-27 345,-27 351,-27 357,-33 357,-39 357,-39 357,-79 357,-79 357,-85 351,-91 345,-91 345,-91 255,-91 255,-91 249,-91 243,-85 243,-79 243,-79 243,-39 243,-39 243,-33 249,-27 255,-27"/>
<text text-anchor="start" x="298" y="-12.8" font-family="Arial" font-weight="bold" font-size="14.00"> </text>
</g>
<!-- 7&#45;&gt;9 -->
<g id="edge10" class="edge">
<title>7&#45;&gt;9</title>
<path fill="none" stroke="#888888" d="M300,-153.67C300,-145.39 300,-136.83 300,-128.38"/>
<polygon fill="#888888" stroke="#888888" points="303.5,-128.18 300,-118.18 296.5,-128.18 303.5,-128.18"/>
</g>
<!-- 11 -->
<g id="node12" class="node">
<title>11</title>
<text text-anchor="start" x="438.5" y="-99.8" font-family="Arial" font-weight="bold" font-size="14.00"> &lt; 5.5</text>
<path fill="#f8766d" fill-opacity="0.647059" stroke="transparent" d="M411,-27C411,-27 501,-27 501,-27 507,-27 513,-33 513,-39 513,-39 513,-79 513,-79 513,-85 507,-91 501,-91 501,-91 411,-91 411,-91 405,-91 399,-85 399,-79 399,-79 399,-39 399,-39 399,-33 405,-27 411,-27"/>
<text text-anchor="start" x="400" y="-88.4" font-family="Arial" font-size="2.00"> </text>
<text text-anchor="start" x="400" y="-82.4" font-family="Arial" font-size="7.00"> &#160;11</text>
<text text-anchor="start" x="414" y="-65.8" font-family="Arial" font-weight="bold" font-size="14.00">Predict 28.71</text>
<text text-anchor="start" x="436" y="-48.8" font-family="Arial" font-weight="bold" font-size="14.00">n = 30</text>
<text text-anchor="start" x="454.5" y="-30.8" font-family="Arial" font-size="9.00"> </text>
<path fill="none" stroke="#333333" d="M411,-27C411,-27 501,-27 501,-27 507,-27 513,-33 513,-39 513,-39 513,-79 513,-79 513,-85 507,-91 501,-91 501,-91 411,-91 411,-91 405,-91 399,-85 399,-79 399,-79 399,-39 399,-39 399,-33 405,-27 411,-27"/>
<text text-anchor="start" x="454" y="-12.8" font-family="Arial" font-weight="bold" font-size="14.00"> </text>
</g>
<!-- 10&#45;&gt;11 -->
<g id="edge11" class="edge">
<title>10&#45;&gt;11</title>
<path fill="none" stroke="#888888" d="M456,-153.67C456,-145.39 456,-136.83 456,-128.38"/>
<polygon fill="#888888" stroke="#888888" points="459.5,-128.18 456,-118.18 452.5,-128.18 459.5,-128.18"/>
</g>
<!-- 12 -->
<g id="node13" class="node">
<title>12</title>
<text text-anchor="start" x="591" y="-99.8" font-family="Arial" font-weight="bold" font-size="14.00"> ≥ 5.5</text>
<path fill="#f8766d" fill-opacity="0.764706" stroke="transparent" d="M567,-27C567,-27 649,-27 649,-27 655,-27 661,-33 661,-39 661,-39 661,-79 661,-79 661,-85 655,-91 649,-91 649,-91 567,-91 567,-91 561,-91 555,-85 555,-79 555,-79 555,-39 555,-39 555,-33 561,-27 567,-27"/>
<text text-anchor="start" x="556" y="-88.4" font-family="Arial" font-size="2.00"> </text>
<text text-anchor="start" x="556" y="-82.4" font-family="Arial" font-size="7.00"> &#160;12</text>
<text text-anchor="start" x="570" y="-65.8" font-family="Arial" font-weight="bold" font-size="14.00">Predict 24.7</text>
<text text-anchor="start" x="592" y="-48.8" font-family="Arial" font-weight="bold" font-size="14.00">n = 4</text>
<text text-anchor="start" x="606.5" y="-30.8" font-family="Arial" font-size="9.00"> </text>
<path fill="none" stroke="#333333" d="M567,-27C567,-27 649,-27 649,-27 655,-27 661,-33 661,-39 661,-39 661,-79 661,-79 661,-85 655,-91 649,-91 649,-91 567,-91 567,-91 561,-91 555,-85 555,-79 555,-79 555,-39 555,-39 555,-33 561,-27 567,-27"/>
<text text-anchor="start" x="606" y="-12.8" font-family="Arial" font-weight="bold" font-size="14.00"> </text>
</g>
<!-- 10&#45;&gt;12 -->
<g id="edge12" class="edge">
<title>10&#45;&gt;12</title>
<path fill="none" stroke="#888888" d="M514.33,-153.67C523.61,-144.39 533.25,-134.75 542.67,-125.33"/>
<polygon fill="#888888" stroke="#888888" points="545.23,-127.72 549.82,-118.18 540.28,-122.77 545.23,-127.72"/>
</g>
</g>
</svg>
