<?xml version="1.0" encoding="UTF-8" standalone="no"?>
<!DOCTYPE svg PUBLIC "-//W3C//DTD SVG 1.1//EN"
 "http://www.w3.org/Graphics/SVG/1.1/DTD/svg11.dtd">
<!-- Generated by graphviz version 2.50.0 (20211204.2007)
 -->
<!-- Pages: 1 -->
<svg width="1861pt" height="742pt"
 viewBox="0.00 0.00 1861.00 742.00" xmlns="http://www.w3.org/2000/svg" xmlns:xlink="http://www.w3.org/1999/xlink">
<g id="graph0" class="graph" transform="scale(1 1) rotate(0) translate(4 738)">
<polygon fill="white" stroke="transparent" points="-4,4 -4,-738 1857,-738 1857,4 -4,4"/>
<!-- 1 -->
<g id="node1" class="node">
<title>1</title>
<text text-anchor="start" x="784" y="-715.8" font-family="Arial" font-weight="bold" font-size="14.00"> </text>
<text text-anchor="start" x="718" y="-671.3" font-family="Arial" font-size="14.00"> &#160;&#160;&#160;</text>
<path fill="#ebebeb" stroke="transparent" d="M748,-643C748,-643 824,-643 824,-643 830,-643 836,-649 836,-655 836,-655 836,-695 836,-695 836,-701 830,-707 824,-707 824,-707 748,-707 748,-707 742,-707 736,-701 736,-695 736,-695 736,-655 736,-655 736,-649 742,-643 748,-643"/>
<text text-anchor="start" x="737" y="-704.4" font-family="Arial" font-size="2.00"> </text>
<text text-anchor="start" x="737" y="-698.4" font-family="Arial" font-size="7.00"> &#160;1</text>
<text text-anchor="start" x="751" y="-681.8" font-family="Arial" font-weight="bold" font-size="14.00">Mean: 80.2</text>
<text text-anchor="start" x="762.5" y="-664.8" font-family="Arial" font-weight="bold" font-size="14.00">n = 168</text>
<text text-anchor="start" x="784.5" y="-646.8" font-family="Arial" font-size="9.00"> </text>
<path fill="none" stroke="#333333" d="M748,-643C748,-643 824,-643 824,-643 830,-643 836,-649 836,-655 836,-655 836,-695 836,-695 836,-701 830,-707 824,-707 824,-707 748,-707 748,-707 742,-707 736,-701 736,-695 736,-695 736,-655 736,-655 736,-649 742,-643 748,-643"/>
<text text-anchor="start" x="838" y="-671.3" font-family="Arial" font-size="14.00"> &#160;&#160;&#160;</text>
<text text-anchor="start" x="728.5" y="-628.8" font-family="Arial" font-weight="bold" font-size="14.00">prev_168h_inflow</text>
</g>
<!-- 2 -->
<g id="node2" class="node">
<title>2</title>
<text text-anchor="start" x="620" y="-561.8" font-family="Arial" font-weight="bold" font-size="14.00"> &lt; 86.59</text>
<text text-anchor="start" x="573" y="-517.3" font-family="Arial" font-size="14.00"> &#160;&#160;&#160;</text>
<path fill="#ebebeb" stroke="transparent" d="M603,-489C603,-489 687,-489 687,-489 693,-489 699,-495 699,-501 699,-501 699,-541 699,-541 699,-547 693,-553 687,-553 687,-553 603,-553 603,-553 597,-553 591,-547 591,-541 591,-541 591,-501 591,-501 591,-495 597,-489 603,-489"/>
<text text-anchor="start" x="592" y="-550.4" font-family="Arial" font-size="2.00"> </text>
<text text-anchor="start" x="592" y="-544.4" font-family="Arial" font-size="7.00"> &#160;2</text>
<text text-anchor="start" x="606" y="-527.8" font-family="Arial" font-weight="bold" font-size="14.00">Mean: 70.28</text>
<text text-anchor="start" x="625" y="-510.8" font-family="Arial" font-weight="bold" font-size="14.00">n = 93</text>
<text text-anchor="start" x="643.5" y="-492.8" font-family="Arial" font-size="9.00"> </text>
<path fill="none" stroke="#333333" d="M603,-489C603,-489 687,-489 687,-489 693,-489 699,-495 699,-501 699,-501 699,-541 699,-541 699,-547 693,-553 687,-553 687,-553 603,-553 603,-553 597,-553 591,-547 591,-541 591,-541 591,-501 591,-501 591,-495 597,-489 603,-489"/>
<text text-anchor="start" x="701" y="-517.3" font-family="Arial" font-size="14.00"> &#160;&#160;&#160;</text>
<text text-anchor="start" x="587.5" y="-474.8" font-family="Arial" font-weight="bold" font-size="14.00">prev_168h_inflow</text>
</g>
<!-- 1&#45;&gt;2 -->
<g id="edge1" class="edge">
<title>1&#45;&gt;2</title>
<path fill="none" stroke="#888888" d="M731.89,-615.67C723.37,-606.49 714.52,-596.94 705.86,-587.6"/>
<polygon fill="#888888" stroke="#888888" points="708.33,-585.13 698.97,-580.18 703.2,-589.89 708.33,-585.13"/>
</g>
<!-- 15 -->
<g id="node3" class="node">
<title>15</title>
<text text-anchor="start" x="1099.5" y="-561.8" font-family="Arial" font-weight="bold" font-size="14.00"> ≥ 86.59</text>
<text text-anchor="start" x="1056" y="-517.3" font-family="Arial" font-size="14.00"> &#160;&#160;&#160;</text>
<path fill="#ebebeb" stroke="transparent" d="M1086,-489C1086,-489 1162,-489 1162,-489 1168,-489 1174,-495 1174,-501 1174,-501 1174,-541 1174,-541 1174,-547 1168,-553 1162,-553 1162,-553 1086,-553 1086,-553 1080,-553 1074,-547 1074,-541 1074,-541 1074,-501 1074,-501 1074,-495 1080,-489 1086,-489"/>
<text text-anchor="start" x="1075" y="-550.4" font-family="Arial" font-size="2.00"> </text>
<text text-anchor="start" x="1075" y="-544.4" font-family="Arial" font-size="7.00"> &#160;15</text>
<text text-anchor="start" x="1089" y="-527.8" font-family="Arial" font-weight="bold" font-size="14.00">Mean: 92.5</text>
<text text-anchor="start" x="1104" y="-510.8" font-family="Arial" font-weight="bold" font-size="14.00">n = 75</text>
<text text-anchor="start" x="1122.5" y="-492.8" font-family="Arial" font-size="9.00"> </text>
<path fill="none" stroke="#333333" d="M1086,-489C1086,-489 1162,-489 1162,-489 1168,-489 1174,-495 1174,-501 1174,-501 1174,-541 1174,-541 1174,-547 1168,-553 1162,-553 1162,-553 1086,-553 1086,-553 1080,-553 1074,-547 1074,-541 1074,-541 1074,-501 1074,-501 1074,-495 1080,-489 1086,-489"/>
<text text-anchor="start" x="1176" y="-517.3" font-family="Arial" font-size="14.00"> &#160;&#160;&#160;</text>
<text text-anchor="start" x="1066.5" y="-474.8" font-family="Arial" font-weight="bold" font-size="14.00">prev_168h_inflow</text>
</g>
<!-- 1&#45;&gt;15 -->
<g id="edge2" class="edge">
<title>1&#45;&gt;15</title>
<path fill="none" stroke="#888888" d="M864.39,-638.75C915.81,-615.62 983.12,-585.35 1036.32,-561.43"/>
<polygon fill="#888888" stroke="#888888" points="1038.05,-564.49 1045.74,-557.19 1035.18,-558.1 1038.05,-564.49"/>
</g>
<!-- 3 -->
<g id="node4" class="node">
<title>3</title>
<text text-anchor="start" x="354.5" y="-407.8" font-family="Arial" font-weight="bold" font-size="14.00"> &lt; 69.03</text>
<text text-anchor="start" x="310" y="-363.3" font-family="Arial" font-size="14.00"> &#160;&#160;&#160;&#160;&#160;</text>
<path fill="#ebebeb" stroke="transparent" d="M347,-335C347,-335 412,-335 412,-335 418,-335 424,-341 424,-347 424,-347 424,-387 424,-387 424,-393 418,-399 412,-399 412,-399 347,-399 347,-399 341,-399 335,-393 335,-387 335,-387 335,-347 335,-347 335,-341 341,-335 347,-335"/>
<text text-anchor="start" x="336" y="-396.4" font-family="Arial" font-size="2.00"> </text>
<text text-anchor="start" x="336" y="-390.4" font-family="Arial" font-size="7.00"> &#160;3</text>
<text text-anchor="start" x="350" y="-373.8" font-family="Arial" font-weight="bold" font-size="14.00">Mean: 60</text>
<text text-anchor="start" x="359.5" y="-356.8" font-family="Arial" font-weight="bold" font-size="14.00">n = 44</text>
<text text-anchor="start" x="378" y="-338.8" font-family="Arial" font-size="9.00"> </text>
<path fill="none" stroke="#333333" d="M347,-335C347,-335 412,-335 412,-335 418,-335 424,-341 424,-347 424,-347 424,-387 424,-387 424,-393 418,-399 412,-399 412,-399 347,-399 347,-399 341,-399 335,-393 335,-387 335,-387 335,-347 335,-347 335,-341 341,-335 347,-335"/>
<text text-anchor="start" x="426" y="-363.3" font-family="Arial" font-size="14.00"> &#160;&#160;&#160;&#160;&#160;</text>
<text text-anchor="start" x="322" y="-320.8" font-family="Arial" font-weight="bold" font-size="14.00">prev_168h_inflow</text>
</g>
<!-- 2&#45;&gt;3 -->
<g id="edge3" class="edge">
<title>2&#45;&gt;3</title>
<path fill="none" stroke="#888888" d="M562.66,-472.95C532.52,-455.73 498.31,-436.18 467.64,-418.65"/>
<polygon fill="#888888" stroke="#888888" points="469.09,-415.45 458.68,-413.53 465.62,-421.53 469.09,-415.45"/>
</g>
<!-- 8 -->
<g id="node5" class="node">
<title>8</title>
<text text-anchor="start" x="620.5" y="-407.8" font-family="Arial" font-weight="bold" font-size="14.00"> ≥ 69.03</text>
<text text-anchor="start" x="573" y="-363.3" font-family="Arial" font-size="14.00"> &#160;&#160;&#160;</text>
<path fill="#ebebeb" stroke="transparent" d="M603,-335C603,-335 687,-335 687,-335 693,-335 699,-341 699,-347 699,-347 699,-387 699,-387 699,-393 693,-399 687,-399 687,-399 603,-399 603,-399 597,-399 591,-393 591,-387 591,-387 591,-347 591,-347 591,-341 597,-335 603,-335"/>
<text text-anchor="start" x="592" y="-396.4" font-family="Arial" font-size="2.00"> </text>
<text text-anchor="start" x="592" y="-390.4" font-family="Arial" font-size="7.00"> &#160;8</text>
<text text-anchor="start" x="606" y="-373.8" font-family="Arial" font-weight="bold" font-size="14.00">Mean: 79.52</text>
<text text-anchor="start" x="625" y="-356.8" font-family="Arial" font-weight="bold" font-size="14.00">n = 49</text>
<text text-anchor="start" x="643.5" y="-338.8" font-family="Arial" font-size="9.00"> </text>
<path fill="none" stroke="#333333" d="M603,-335C603,-335 687,-335 687,-335 693,-335 699,-341 699,-347 699,-347 699,-387 699,-387 699,-393 693,-399 687,-399 687,-399 603,-399 603,-399 597,-399 591,-393 591,-387 591,-387 591,-347 591,-347 591,-341 597,-335 603,-335"/>
<text text-anchor="start" x="701" y="-363.3" font-family="Arial" font-size="14.00"> &#160;&#160;&#160;</text>
<text text-anchor="start" x="587.5" y="-320.8" font-family="Arial" font-weight="bold" font-size="14.00">prev_168h_inflow</text>
</g>
<!-- 2&#45;&gt;8 -->
<g id="edge4" class="edge">
<title>2&#45;&gt;8</title>
<path fill="none" stroke="#888888" d="M645,-461.67C645,-453.39 645,-444.83 645,-436.38"/>
<polygon fill="#888888" stroke="#888888" points="648.5,-436.18 645,-426.18 641.5,-436.18 648.5,-436.18"/>
</g>
<!-- 16 -->
<g id="node16" class="node">
<title>16</title>
<text text-anchor="start" x="1099" y="-407.8" font-family="Arial" font-weight="bold" font-size="14.00"> &lt; 91.57</text>
<text text-anchor="start" x="1052" y="-363.3" font-family="Arial" font-size="14.00"> &#160;&#160;&#160;</text>
<path fill="#ebebeb" stroke="transparent" d="M1082,-335C1082,-335 1166,-335 1166,-335 1172,-335 1178,-341 1178,-347 1178,-347 1178,-387 1178,-387 1178,-393 1172,-399 1166,-399 1166,-399 1082,-399 1082,-399 1076,-399 1070,-393 1070,-387 1070,-387 1070,-347 1070,-347 1070,-341 1076,-335 1082,-335"/>
<text text-anchor="start" x="1071" y="-396.4" font-family="Arial" font-size="2.00"> </text>
<text text-anchor="start" x="1071" y="-390.4" font-family="Arial" font-size="7.00"> &#160;16</text>
<text text-anchor="start" x="1085" y="-373.8" font-family="Arial" font-weight="bold" font-size="14.00">Mean: 88.09</text>
<text text-anchor="start" x="1104" y="-356.8" font-family="Arial" font-weight="bold" font-size="14.00">n = 36</text>
<text text-anchor="start" x="1122.5" y="-338.8" font-family="Arial" font-size="9.00"> </text>
<path fill="none" stroke="#333333" d="M1082,-335C1082,-335 1166,-335 1166,-335 1172,-335 1178,-341 1178,-347 1178,-347 1178,-387 1178,-387 1178,-393 1172,-399 1166,-399 1166,-399 1082,-399 1082,-399 1076,-399 1070,-393 1070,-387 1070,-387 1070,-347 1070,-347 1070,-341 1076,-335 1082,-335"/>
<text text-anchor="start" x="1180" y="-363.3" font-family="Arial" font-size="14.00"> &#160;&#160;&#160;</text>
<text text-anchor="start" x="1066.5" y="-320.8" font-family="Arial" font-weight="bold" font-size="14.00">prev_168h_inflow</text>
</g>
<!-- 15&#45;&gt;16 -->
<g id="edge15" class="edge">
<title>15&#45;&gt;16</title>
<path fill="none" stroke="#888888" d="M1124,-461.67C1124,-453.39 1124,-444.83 1124,-436.38"/>
<polygon fill="#888888" stroke="#888888" points="1127.5,-436.18 1124,-426.18 1120.5,-436.18 1127.5,-436.18"/>
</g>
<!-- 21 -->
<g id="node17" class="node">
<title>21</title>
<text text-anchor="start" x="1381.5" y="-407.8" font-family="Arial" font-weight="bold" font-size="14.00"> ≥ 91.57</text>
<text text-anchor="start" x="1334" y="-363.3" font-family="Arial" font-size="14.00"> &#160;&#160;&#160;</text>
<path fill="#ebebeb" stroke="transparent" d="M1364,-335C1364,-335 1448,-335 1448,-335 1454,-335 1460,-341 1460,-347 1460,-347 1460,-387 1460,-387 1460,-393 1454,-399 1448,-399 1448,-399 1364,-399 1364,-399 1358,-399 1352,-393 1352,-387 1352,-387 1352,-347 1352,-347 1352,-341 1358,-335 1364,-335"/>
<text text-anchor="start" x="1353" y="-396.4" font-family="Arial" font-size="2.00"> </text>
<text text-anchor="start" x="1353" y="-390.4" font-family="Arial" font-size="7.00"> &#160;21</text>
<text text-anchor="start" x="1367" y="-373.8" font-family="Arial" font-weight="bold" font-size="14.00">Mean: 96.57</text>
<text text-anchor="start" x="1386" y="-356.8" font-family="Arial" font-weight="bold" font-size="14.00">n = 39</text>
<text text-anchor="start" x="1404.5" y="-338.8" font-family="Arial" font-size="9.00"> </text>
<path fill="none" stroke="#333333" d="M1364,-335C1364,-335 1448,-335 1448,-335 1454,-335 1460,-341 1460,-347 1460,-347 1460,-387 1460,-387 1460,-393 1454,-399 1448,-399 1448,-399 1364,-399 1364,-399 1358,-399 1352,-393 1352,-387 1352,-387 1352,-347 1352,-347 1352,-341 1358,-335 1364,-335"/>
<text text-anchor="start" x="1462" y="-363.3" font-family="Arial" font-size="14.00"> &#160;&#160;&#160;</text>
<text text-anchor="start" x="1348.5" y="-320.8" font-family="Arial" font-weight="bold" font-size="14.00">prev_168h_inflow</text>
</g>
<!-- 15&#45;&gt;21 -->
<g id="edge16" class="edge">
<title>15&#45;&gt;21</title>
<path fill="none" stroke="#888888" d="M1202.18,-477.86C1237.04,-459.07 1278.34,-436.81 1314.62,-417.25"/>
<polygon fill="#888888" stroke="#888888" points="1316.59,-420.17 1323.73,-412.34 1313.27,-414.01 1316.59,-420.17"/>
</g>
<!-- 4 -->
<g id="node6" class="node">
<title>4</title>
<text text-anchor="start" x="185" y="-253.8" font-family="Arial" font-weight="bold" font-size="14.00"> &lt; 64.39</text>
<text text-anchor="start" x="138" y="-209.3" font-family="Arial" font-size="14.00"> &#160;&#160;&#160;</text>
<path fill="#ebebeb" stroke="transparent" d="M168,-181C168,-181 252,-181 252,-181 258,-181 264,-187 264,-193 264,-193 264,-233 264,-233 264,-239 258,-245 252,-245 252,-245 168,-245 168,-245 162,-245 156,-239 156,-233 156,-233 156,-193 156,-193 156,-187 162,-181 168,-181"/>
<text text-anchor="start" x="157" y="-242.4" font-family="Arial" font-size="2.00"> </text>
<text text-anchor="start" x="157" y="-236.4" font-family="Arial" font-size="7.00"> &#160;4</text>
<text text-anchor="start" x="171" y="-219.8" font-family="Arial" font-weight="bold" font-size="14.00">Mean: 58.82</text>
<text text-anchor="start" x="190" y="-202.8" font-family="Arial" font-weight="bold" font-size="14.00">n = 36</text>
<text text-anchor="start" x="208.5" y="-184.8" font-family="Arial" font-size="9.00"> </text>
<path fill="none" stroke="#333333" d="M168,-181C168,-181 252,-181 252,-181 258,-181 264,-187 264,-193 264,-193 264,-233 264,-233 264,-239 258,-245 252,-245 252,-245 168,-245 168,-245 162,-245 156,-239 156,-233 156,-233 156,-193 156,-193 156,-187 162,-181 168,-181"/>
<text text-anchor="start" x="266" y="-209.3" font-family="Arial" font-size="14.00"> &#160;&#160;&#160;</text>
<text text-anchor="start" x="152.5" y="-166.8" font-family="Arial" font-weight="bold" font-size="14.00">prev_168h_inflow</text>
</g>
<!-- 3&#45;&gt;4 -->
<g id="edge5" class="edge">
<title>3&#45;&gt;4</title>
<path fill="none" stroke="#888888" d="M314.14,-307.67C303.73,-298.3 292.9,-288.56 282.33,-279.05"/>
<polygon fill="#888888" stroke="#888888" points="284.46,-276.26 274.68,-272.18 279.78,-281.47 284.46,-276.26"/>
</g>
<!-- 7 -->
<g id="node7" class="node">
<title>7</title>
<text text-anchor="start" x="354.5" y="-253.8" font-family="Arial" font-weight="bold" font-size="14.00"> ≥ 64.39</text>
<path fill="#f8766d" fill-opacity="0.792157" stroke="transparent" d="M334,-181C334,-181 424,-181 424,-181 430,-181 436,-187 436,-193 436,-193 436,-233 436,-233 436,-239 430,-245 424,-245 424,-245 334,-245 334,-245 328,-245 322,-239 322,-233 322,-233 322,-193 322,-193 322,-187 328,-181 334,-181"/>
<text text-anchor="start" x="323" y="-242.4" font-family="Arial" font-size="2.00"> </text>
<text text-anchor="start" x="323" y="-236.4" font-family="Arial" font-size="7.00"> &#160;7</text>
<text text-anchor="start" x="337" y="-219.8" font-family="Arial" font-weight="bold" font-size="14.00">Predict 65.29</text>
<text text-anchor="start" x="363" y="-202.8" font-family="Arial" font-weight="bold" font-size="14.00">n = 8</text>
<text text-anchor="start" x="377.5" y="-184.8" font-family="Arial" font-size="9.00"> </text>
<path fill="none" stroke="#333333" d="M334,-181C334,-181 424,-181 424,-181 430,-181 436,-187 436,-193 436,-193 436,-233 436,-233 436,-239 430,-245 424,-245 424,-245 334,-245 334,-245 328,-245 322,-239 322,-233 322,-233 322,-193 322,-193 322,-187 328,-181 334,-181"/>
<text text-anchor="start" x="377" y="-166.8" font-family="Arial" font-weight="bold" font-size="14.00"> </text>
</g>
<!-- 3&#45;&gt;7 -->
<g id="edge6" class="edge">
<title>3&#45;&gt;7</title>
<path fill="none" stroke="#888888" d="M379,-307.67C379,-299.39 379,-290.83 379,-282.38"/>
<polygon fill="#888888" stroke="#888888" points="382.5,-282.18 379,-272.18 375.5,-282.18 382.5,-282.18"/>
</g>
<!-- 9 -->
<g id="node10" class="node">
<title>9</title>
<text text-anchor="start" x="523" y="-253.8" font-family="Arial" font-weight="bold" font-size="14.00"> &lt; 79.65</text>
<text text-anchor="start" x="476" y="-209.3" font-family="Arial" font-size="14.00"> &#160;&#160;&#160;</text>
<path fill="#ebebeb" stroke="transparent" d="M506,-181C506,-181 590,-181 590,-181 596,-181 602,-187 602,-193 602,-193 602,-233 602,-233 602,-239 596,-245 590,-245 590,-245 506,-245 506,-245 500,-245 494,-239 494,-233 494,-233 494,-193 494,-193 494,-187 500,-181 506,-181"/>
<text text-anchor="start" x="495" y="-242.4" font-family="Arial" font-size="2.00"> </text>
<text text-anchor="start" x="495" y="-236.4" font-family="Arial" font-size="7.00"> &#160;9</text>
<text text-anchor="start" x="509" y="-219.8" font-family="Arial" font-weight="bold" font-size="14.00">Mean: 74.28</text>
<text text-anchor="start" x="528" y="-202.8" font-family="Arial" font-weight="bold" font-size="14.00">n = 19</text>
<text text-anchor="start" x="546.5" y="-184.8" font-family="Arial" font-size="9.00"> </text>
<path fill="none" stroke="#333333" d="M506,-181C506,-181 590,-181 590,-181 596,-181 602,-187 602,-193 602,-193 602,-233 602,-233 602,-239 596,-245 590,-245 590,-245 506,-245 506,-245 500,-245 494,-239 494,-233 494,-233 494,-193 494,-193 494,-187 500,-181 506,-181"/>
<text text-anchor="start" x="604" y="-209.3" font-family="Arial" font-size="14.00"> &#160;&#160;&#160;</text>
<text text-anchor="start" x="490.5" y="-166.8" font-family="Arial" font-weight="bold" font-size="14.00">prev_168h_inflow</text>
</g>
<!-- 8&#45;&gt;9 -->
<g id="edge9" class="edge">
<title>8&#45;&gt;9</title>
<path fill="none" stroke="#888888" d="M607.77,-307.67C602.15,-298.85 596.3,-289.69 590.57,-280.71"/>
<polygon fill="#888888" stroke="#888888" points="593.46,-278.72 585.13,-272.18 587.55,-282.49 593.46,-278.72"/>
</g>
<!-- 12 -->
<g id="node11" class="node">
<title>12</title>
<text text-anchor="start" x="705.5" y="-253.8" font-family="Arial" font-weight="bold" font-size="14.00"> ≥ 79.65</text>
<text text-anchor="start" x="658" y="-209.3" font-family="Arial" font-size="14.00"> &#160;&#160;&#160;</text>
<path fill="#ebebeb" stroke="transparent" d="M688,-181C688,-181 772,-181 772,-181 778,-181 784,-187 784,-193 784,-193 784,-233 784,-233 784,-239 778,-245 772,-245 772,-245 688,-245 688,-245 682,-245 676,-239 676,-233 676,-233 676,-193 676,-193 676,-187 682,-181 688,-181"/>
<text text-anchor="start" x="677" y="-242.4" font-family="Arial" font-size="2.00"> </text>
<text text-anchor="start" x="677" y="-236.4" font-family="Arial" font-size="7.00"> &#160;12</text>
<text text-anchor="start" x="691" y="-219.8" font-family="Arial" font-weight="bold" font-size="14.00">Mean: 82.84</text>
<text text-anchor="start" x="710" y="-202.8" font-family="Arial" font-weight="bold" font-size="14.00">n = 30</text>
<text text-anchor="start" x="728.5" y="-184.8" font-family="Arial" font-size="9.00"> </text>
<path fill="none" stroke="#333333" d="M688,-181C688,-181 772,-181 772,-181 778,-181 784,-187 784,-193 784,-193 784,-233 784,-233 784,-239 778,-245 772,-245 772,-245 688,-245 688,-245 682,-245 676,-239 676,-233 676,-233 676,-193 676,-193 676,-187 682,-181 688,-181"/>
<text text-anchor="start" x="786" y="-209.3" font-family="Arial" font-size="14.00"> &#160;&#160;&#160;</text>
<text text-anchor="start" x="672.5" y="-166.8" font-family="Arial" font-weight="bold" font-size="14.00">prev_168h_inflow</text>
</g>
<!-- 8&#45;&gt;12 -->
<g id="edge10" class="edge">
<title>8&#45;&gt;12</title>
<path fill="none" stroke="#888888" d="M677.62,-307.67C682.5,-298.94 687.57,-289.88 692.54,-280.99"/>
<polygon fill="#888888" stroke="#888888" points="695.64,-282.61 697.47,-272.18 689.53,-279.2 695.64,-282.61"/>
</g>
<!-- 5 -->
<g id="node8" class="node">
<title>5</title>
<text text-anchor="start" x="44" y="-99.8" font-family="Arial" font-weight="bold" font-size="14.00"> &lt; 60.06</text>
<path fill="#f8766d" fill-opacity="0.874510" stroke="transparent" d="M24,-27C24,-27 114,-27 114,-27 120,-27 126,-33 126,-39 126,-39 126,-79 126,-79 126,-85 120,-91 114,-91 114,-91 24,-91 24,-91 18,-91 12,-85 12,-79 12,-79 12,-39 12,-39 12,-33 18,-27 24,-27"/>
<text text-anchor="start" x="13" y="-88.4" font-family="Arial" font-size="2.00"> </text>
<text text-anchor="start" x="13" y="-82.4" font-family="Arial" font-size="7.00"> &#160;5</text>
<text text-anchor="start" x="27" y="-65.8" font-family="Arial" font-weight="bold" font-size="14.00">Predict 57.85</text>
<text text-anchor="start" x="49" y="-48.8" font-family="Arial" font-weight="bold" font-size="14.00">n = 21</text>
<text text-anchor="start" x="67.5" y="-30.8" font-family="Arial" font-size="9.00"> </text>
<path fill="none" stroke="#333333" d="M24,-27C24,-27 114,-27 114,-27 120,-27 126,-33 126,-39 126,-39 126,-79 126,-79 126,-85 120,-91 114,-91 114,-91 24,-91 24,-91 18,-91 12,-85 12,-79 12,-79 12,-39 12,-39 12,-33 18,-27 24,-27"/>
<text text-anchor="start" x="67" y="-12.8" font-family="Arial" font-weight="bold" font-size="14.00"> </text>
</g>
<!-- 4&#45;&gt;5 -->
<g id="edge7" class="edge">
<title>4&#45;&gt;5</title>
<path fill="none" stroke="#888888" d="M155.89,-153.67C147.37,-144.49 138.52,-134.94 129.86,-125.6"/>
<polygon fill="#888888" stroke="#888888" points="132.33,-123.13 122.97,-118.18 127.2,-127.89 132.33,-123.13"/>
</g>
<!-- 6 -->
<g id="node9" class="node">
<title>6</title>
<text text-anchor="start" x="200.5" y="-99.8" font-family="Arial" font-weight="bold" font-size="14.00"> ≥ 60.06</text>
<path fill="#f8766d" fill-opacity="0.847059" stroke="transparent" d="M180,-27C180,-27 270,-27 270,-27 276,-27 282,-33 282,-39 282,-39 282,-79 282,-79 282,-85 276,-91 270,-91 270,-91 180,-91 180,-91 174,-91 168,-85 168,-79 168,-79 168,-39 168,-39 168,-33 174,-27 180,-27"/>
<text text-anchor="start" x="169" y="-88.4" font-family="Arial" font-size="2.00"> </text>
<text text-anchor="start" x="169" y="-82.4" font-family="Arial" font-size="7.00"> &#160;6</text>
<text text-anchor="start" x="183" y="-65.8" font-family="Arial" font-weight="bold" font-size="14.00">Predict 60.17</text>
<text text-anchor="start" x="205" y="-48.8" font-family="Arial" font-weight="bold" font-size="14.00">n = 15</text>
<text text-anchor="start" x="223.5" y="-30.8" font-family="Arial" font-size="9.00"> </text>
<path fill="none" stroke="#333333" d="M180,-27C180,-27 270,-27 270,-27 276,-27 282,-33 282,-39 282,-39 282,-79 282,-79 282,-85 276,-91 270,-91 270,-91 180,-91 180,-91 174,-91 168,-85 168,-79 168,-79 168,-39 168,-39 168,-33 174,-27 180,-27"/>
<text text-anchor="start" x="223" y="-12.8" font-family="Arial" font-weight="bold" font-size="14.00"> </text>
</g>
<!-- 4&#45;&gt;6 -->
<g id="edge8" class="edge">
<title>4&#45;&gt;6</title>
<path fill="none" stroke="#888888" d="M215.76,-153.67C216.57,-145.39 217.42,-136.83 218.25,-128.38"/>
<polygon fill="#888888" stroke="#888888" points="221.76,-128.47 219.26,-118.18 214.79,-127.78 221.76,-128.47"/>
</g>
<!-- 10 -->
<g id="node12" class="node">
<title>10</title>
<text text-anchor="start" x="371" y="-99.8" font-family="Arial" font-weight="bold" font-size="14.00"> &lt; 74.81</text>
<path fill="#f8766d" fill-opacity="0.713725" stroke="transparent" d="M351,-27C351,-27 441,-27 441,-27 447,-27 453,-33 453,-39 453,-39 453,-79 453,-79 453,-85 447,-91 441,-91 441,-91 351,-91 351,-91 345,-91 339,-85 339,-79 339,-79 339,-39 339,-39 339,-33 345,-27 351,-27"/>
<text text-anchor="start" x="340" y="-88.4" font-family="Arial" font-size="2.00"> </text>
<text text-anchor="start" x="340" y="-82.4" font-family="Arial" font-size="7.00"> &#160;10</text>
<text text-anchor="start" x="354" y="-65.8" font-family="Arial" font-weight="bold" font-size="14.00">Predict 72.04</text>
<text text-anchor="start" x="380" y="-48.8" font-family="Arial" font-weight="bold" font-size="14.00">n = 8</text>
<text text-anchor="start" x="394.5" y="-30.8" font-family="Arial" font-size="9.00"> </text>
<path fill="none" stroke="#333333" d="M351,-27C351,-27 441,-27 441,-27 447,-27 453,-33 453,-39 453,-39 453,-79 453,-79 453,-85 447,-91 441,-91 441,-91 351,-91 351,-91 345,-91 339,-85 339,-79 339,-79 339,-39 339,-39 339,-33 345,-27 351,-27"/>
<text text-anchor="start" x="394" y="-12.8" font-family="Arial" font-weight="bold" font-size="14.00"> </text>
</g>
<!-- 9&#45;&gt;10 -->
<g id="edge11" class="edge">
<title>9&#45;&gt;10</title>
<path fill="none" stroke="#888888" d="M489.67,-153.67C480.39,-144.39 470.75,-134.75 461.33,-125.33"/>
<polygon fill="#888888" stroke="#888888" points="463.72,-122.77 454.18,-118.18 458.77,-127.72 463.72,-122.77"/>
</g>
<!-- 11 -->
<g id="node13" class="node">
<title>11</title>
<text text-anchor="start" x="523.5" y="-99.8" font-family="Arial" font-weight="bold" font-size="14.00"> ≥ 74.81</text>
<path fill="#f8766d" fill-opacity="0.670588" stroke="transparent" d="M507,-27C507,-27 589,-27 589,-27 595,-27 601,-33 601,-39 601,-39 601,-79 601,-79 601,-85 595,-91 589,-91 589,-91 507,-91 507,-91 501,-91 495,-85 495,-79 495,-79 495,-39 495,-39 495,-33 501,-27 507,-27"/>
<text text-anchor="start" x="496" y="-88.4" font-family="Arial" font-size="2.00"> </text>
<text text-anchor="start" x="496" y="-82.4" font-family="Arial" font-size="7.00"> &#160;11</text>
<text text-anchor="start" x="510" y="-65.8" font-family="Arial" font-weight="bold" font-size="14.00">Predict 75.9</text>
<text text-anchor="start" x="528.5" y="-48.8" font-family="Arial" font-weight="bold" font-size="14.00">n = 11</text>
<text text-anchor="start" x="546.5" y="-30.8" font-family="Arial" font-size="9.00"> </text>
<path fill="none" stroke="#333333" d="M507,-27C507,-27 589,-27 589,-27 595,-27 601,-33 601,-39 601,-39 601,-79 601,-79 601,-85 595,-91 589,-91 589,-91 507,-91 507,-91 501,-91 495,-85 495,-79 495,-79 495,-39 495,-39 495,-33 501,-27 507,-27"/>
<text text-anchor="start" x="546" y="-12.8" font-family="Arial" font-weight="bold" font-size="14.00"> </text>
</g>
<!-- 9&#45;&gt;11 -->
<g id="edge12" class="edge">
<title>9&#45;&gt;11</title>
<path fill="none" stroke="#888888" d="M548,-153.67C548,-145.39 548,-136.83 548,-128.38"/>
<polygon fill="#888888" stroke="#888888" points="551.5,-128.18 548,-118.18 544.5,-128.18 551.5,-128.18"/>
</g>
<!-- 13 -->
<g id="node14" class="node">
<title>13</title>
<text text-anchor="start" x="675" y="-99.8" font-family="Arial" font-weight="bold" font-size="14.00"> &lt; 84.78</text>
<path fill="#f8766d" fill-opacity="0.600000" stroke="transparent" d="M655,-27C655,-27 745,-27 745,-27 751,-27 757,-33 757,-39 757,-39 757,-79 757,-79 757,-85 751,-91 745,-91 745,-91 655,-91 655,-91 649,-91 643,-85 643,-79 643,-79 643,-39 643,-39 643,-33 649,-27 655,-27"/>
<text text-anchor="start" x="644" y="-88.4" font-family="Arial" font-size="2.00"> </text>
<text text-anchor="start" x="644" y="-82.4" font-family="Arial" font-size="7.00"> &#160;13</text>
<text text-anchor="start" x="658" y="-65.8" font-family="Arial" font-weight="bold" font-size="14.00">Predict 82.09</text>
<text text-anchor="start" x="680" y="-48.8" font-family="Arial" font-weight="bold" font-size="14.00">n = 22</text>
<text text-anchor="start" x="698.5" y="-30.8" font-family="Arial" font-size="9.00"> </text>
<path fill="none" stroke="#333333" d="M655,-27C655,-27 745,-27 745,-27 751,-27 757,-33 757,-39 757,-39 757,-79 757,-79 757,-85 751,-91 745,-91 745,-91 655,-91 655,-91 649,-91 643,-85 643,-79 643,-79 643,-39 643,-39 643,-33 649,-27 655,-27"/>
<text text-anchor="start" x="698" y="-12.8" font-family="Arial" font-weight="bold" font-size="14.00"> </text>
</g>
<!-- 12&#45;&gt;13 -->
<g id="edge13" class="edge">
<title>12&#45;&gt;13</title>
<path fill="none" stroke="#888888" d="M718.49,-153.67C716.84,-145.3 715.13,-136.64 713.44,-128.1"/>
<polygon fill="#888888" stroke="#888888" points="716.85,-127.31 711.48,-118.18 709.98,-128.66 716.85,-127.31"/>
</g>
<!-- 14 -->
<g id="node15" class="node">
<title>14</title>
<text text-anchor="start" x="831.5" y="-99.8" font-family="Arial" font-weight="bold" font-size="14.00"> ≥ 84.78</text>
<path fill="#f8766d" fill-opacity="0.568627" stroke="transparent" d="M811,-27C811,-27 901,-27 901,-27 907,-27 913,-33 913,-39 913,-39 913,-79 913,-79 913,-85 907,-91 901,-91 901,-91 811,-91 811,-91 805,-91 799,-85 799,-79 799,-79 799,-39 799,-39 799,-33 805,-27 811,-27"/>
<text text-anchor="start" x="800" y="-88.4" font-family="Arial" font-size="2.00"> </text>
<text text-anchor="start" x="800" y="-82.4" font-family="Arial" font-size="7.00"> &#160;14</text>
<text text-anchor="start" x="814" y="-65.8" font-family="Arial" font-weight="bold" font-size="14.00">Predict 84.89</text>
<text text-anchor="start" x="840" y="-48.8" font-family="Arial" font-weight="bold" font-size="14.00">n = 8</text>
<text text-anchor="start" x="854.5" y="-30.8" font-family="Arial" font-size="9.00"> </text>
<path fill="none" stroke="#333333" d="M811,-27C811,-27 901,-27 901,-27 907,-27 913,-33 913,-39 913,-39 913,-79 913,-79 913,-85 907,-91 901,-91 901,-91 811,-91 811,-91 805,-91 799,-85 799,-79 799,-79 799,-39 799,-39 799,-33 805,-27 811,-27"/>
<text text-anchor="start" x="854" y="-12.8" font-family="Arial" font-weight="bold" font-size="14.00"> </text>
</g>
<!-- 12&#45;&gt;14 -->
<g id="edge14" class="edge">
<title>12&#45;&gt;14</title>
<path fill="none" stroke="#888888" d="M778.35,-153.67C785.89,-144.58 793.72,-135.13 801.39,-125.88"/>
<polygon fill="#888888" stroke="#888888" points="804.09,-128.11 807.77,-118.18 798.7,-123.64 804.09,-128.11"/>
</g>
<!-- 17 -->
<g id="node18" class="node">
<title>17</title>
<text text-anchor="start" x="1015" y="-253.8" font-family="Arial" font-weight="bold" font-size="14.00"> &lt; 91.13</text>
<text text-anchor="start" x="968" y="-209.3" font-family="Arial" font-size="14.00"> &#160;&#160;&#160;</text>
<path fill="#ebebeb" stroke="transparent" d="M998,-181C998,-181 1082,-181 1082,-181 1088,-181 1094,-187 1094,-193 1094,-193 1094,-233 1094,-233 1094,-239 1088,-245 1082,-245 1082,-245 998,-245 998,-245 992,-245 986,-239 986,-233 986,-233 986,-193 986,-193 986,-187 992,-181 998,-181"/>
<text text-anchor="start" x="987" y="-242.4" font-family="Arial" font-size="2.00"> </text>
<text text-anchor="start" x="987" y="-236.4" font-family="Arial" font-size="7.00"> &#160;17</text>
<text text-anchor="start" x="1001" y="-219.8" font-family="Arial" font-weight="bold" font-size="14.00">Mean: 88.28</text>
<text text-anchor="start" x="1020" y="-202.8" font-family="Arial" font-weight="bold" font-size="14.00">n = 35</text>
<text text-anchor="start" x="1038.5" y="-184.8" font-family="Arial" font-size="9.00"> </text>
<path fill="none" stroke="#333333" d="M998,-181C998,-181 1082,-181 1082,-181 1088,-181 1094,-187 1094,-193 1094,-193 1094,-233 1094,-233 1094,-239 1088,-245 1082,-245 1082,-245 998,-245 998,-245 992,-245 986,-239 986,-233 986,-233 986,-193 986,-193 986,-187 992,-181 998,-181"/>
<text text-anchor="start" x="1096" y="-209.3" font-family="Arial" font-size="14.00"> &#160;&#160;&#160;</text>
<text text-anchor="start" x="982.5" y="-166.8" font-family="Arial" font-weight="bold" font-size="14.00">prev_168h_inflow</text>
</g>
<!-- 16&#45;&gt;17 -->
<g id="edge17" class="edge">
<title>16&#45;&gt;17</title>
<path fill="none" stroke="#888888" d="M1091.76,-307.67C1086.94,-298.94 1081.94,-289.88 1077.02,-280.99"/>
<polygon fill="#888888" stroke="#888888" points="1080.05,-279.24 1072.15,-272.18 1073.92,-282.62 1080.05,-279.24"/>
</g>
<!-- 20 -->
<g id="node19" class="node">
<title>20</title>
<text text-anchor="start" x="1184.5" y="-253.8" font-family="Arial" font-weight="bold" font-size="14.00"> ≥ 91.13</text>
<path fill="#f8766d" fill-opacity="0.603922" stroke="transparent" d="M1164,-181C1164,-181 1254,-181 1254,-181 1260,-181 1266,-187 1266,-193 1266,-193 1266,-233 1266,-233 1266,-239 1260,-245 1254,-245 1254,-245 1164,-245 1164,-245 1158,-245 1152,-239 1152,-233 1152,-233 1152,-193 1152,-193 1152,-187 1158,-181 1164,-181"/>
<text text-anchor="start" x="1153" y="-242.4" font-family="Arial" font-size="2.00"> </text>
<text text-anchor="start" x="1153" y="-236.4" font-family="Arial" font-size="7.00"> &#160;20</text>
<text text-anchor="start" x="1167" y="-219.8" font-family="Arial" font-weight="bold" font-size="14.00">Predict 81.57</text>
<text text-anchor="start" x="1193" y="-202.8" font-family="Arial" font-weight="bold" font-size="14.00">n = 1</text>
<text text-anchor="start" x="1207.5" y="-184.8" font-family="Arial" font-size="9.00"> </text>
<path fill="none" stroke="#333333" d="M1164,-181C1164,-181 1254,-181 1254,-181 1260,-181 1266,-187 1266,-193 1266,-193 1266,-233 1266,-233 1266,-239 1260,-245 1254,-245 1254,-245 1164,-245 1164,-245 1158,-245 1152,-239 1152,-233 1152,-233 1152,-193 1152,-193 1152,-187 1158,-181 1164,-181"/>
<text text-anchor="start" x="1207" y="-166.8" font-family="Arial" font-weight="bold" font-size="14.00"> </text>
</g>
<!-- 16&#45;&gt;20 -->
<g id="edge18" class="edge">
<title>16&#45;&gt;20</title>
<path fill="none" stroke="#888888" d="M1156.62,-307.67C1161.5,-298.94 1166.57,-289.88 1171.54,-280.99"/>
<polygon fill="#888888" stroke="#888888" points="1174.64,-282.61 1176.47,-272.18 1168.53,-279.2 1174.64,-282.61"/>
</g>
<!-- 22 -->
<g id="node22" class="node">
<title>22</title>
<text text-anchor="start" x="1381" y="-253.8" font-family="Arial" font-weight="bold" font-size="14.00"> &lt; 98.91</text>
<text text-anchor="start" x="1334" y="-209.3" font-family="Arial" font-size="14.00"> &#160;&#160;&#160;</text>
<path fill="#ebebeb" stroke="transparent" d="M1364,-181C1364,-181 1448,-181 1448,-181 1454,-181 1460,-187 1460,-193 1460,-193 1460,-233 1460,-233 1460,-239 1454,-245 1448,-245 1448,-245 1364,-245 1364,-245 1358,-245 1352,-239 1352,-233 1352,-233 1352,-193 1352,-193 1352,-187 1358,-181 1364,-181"/>
<text text-anchor="start" x="1353" y="-242.4" font-family="Arial" font-size="2.00"> </text>
<text text-anchor="start" x="1353" y="-236.4" font-family="Arial" font-size="7.00"> &#160;22</text>
<text text-anchor="start" x="1367" y="-219.8" font-family="Arial" font-weight="bold" font-size="14.00">Mean: 93.85</text>
<text text-anchor="start" x="1386" y="-202.8" font-family="Arial" font-weight="bold" font-size="14.00">n = 23</text>
<text text-anchor="start" x="1404.5" y="-184.8" font-family="Arial" font-size="9.00"> </text>
<path fill="none" stroke="#333333" d="M1364,-181C1364,-181 1448,-181 1448,-181 1454,-181 1460,-187 1460,-193 1460,-193 1460,-233 1460,-233 1460,-239 1454,-245 1448,-245 1448,-245 1364,-245 1364,-245 1358,-245 1352,-239 1352,-233 1352,-233 1352,-193 1352,-193 1352,-187 1358,-181 1364,-181"/>
<text text-anchor="start" x="1462" y="-209.3" font-family="Arial" font-size="14.00"> &#160;&#160;&#160;</text>
<text text-anchor="start" x="1348.5" y="-166.8" font-family="Arial" font-weight="bold" font-size="14.00">prev_168h_inflow</text>
</g>
<!-- 21&#45;&gt;22 -->
<g id="edge21" class="edge">
<title>21&#45;&gt;22</title>
<path fill="none" stroke="#888888" d="M1406,-307.67C1406,-299.39 1406,-290.83 1406,-282.38"/>
<polygon fill="#888888" stroke="#888888" points="1409.5,-282.18 1406,-272.18 1402.5,-282.18 1409.5,-282.18"/>
</g>
<!-- 25 -->
<g id="node23" class="node">
<title>25</title>
<text text-anchor="start" x="1603.5" y="-253.8" font-family="Arial" font-weight="bold" font-size="14.00"> ≥ 98.91</text>
<path fill="#ebebeb" stroke="transparent" d="M1586,-181C1586,-181 1670,-181 1670,-181 1676,-181 1682,-187 1682,-193 1682,-193 1682,-233 1682,-233 1682,-239 1676,-245 1670,-245 1670,-245 1586,-245 1586,-245 1580,-245 1574,-239 1574,-233 1574,-233 1574,-193 1574,-193 1574,-187 1580,-181 1586,-181"/>
<text text-anchor="start" x="1575" y="-242.4" font-family="Arial" font-size="2.00"> </text>
<text text-anchor="start" x="1575" y="-236.4" font-family="Arial" font-size="7.00"> &#160;25</text>
<text text-anchor="start" x="1589" y="-219.8" font-family="Arial" font-weight="bold" font-size="14.00">Mean: 100.5</text>
<text text-anchor="start" x="1608" y="-202.8" font-family="Arial" font-weight="bold" font-size="14.00">n = 16</text>
<text text-anchor="start" x="1626.5" y="-184.8" font-family="Arial" font-size="9.00"> </text>
<path fill="none" stroke="#333333" d="M1586,-181C1586,-181 1670,-181 1670,-181 1676,-181 1682,-187 1682,-193 1682,-193 1682,-233 1682,-233 1682,-239 1676,-245 1670,-245 1670,-245 1586,-245 1586,-245 1580,-245 1574,-239 1574,-233 1574,-233 1574,-193 1574,-193 1574,-187 1580,-181 1586,-181"/>
<text text-anchor="start" x="1613.5" y="-166.8" font-family="Arial" font-weight="bold" font-size="14.00">time</text>
</g>
<!-- 21&#45;&gt;25 -->
<g id="edge22" class="edge">
<title>21&#45;&gt;25</title>
<path fill="none" stroke="#888888" d="M1488.03,-309.83C1509.51,-295.12 1532.55,-279.35 1553.61,-264.93"/>
<polygon fill="#888888" stroke="#888888" points="1555.61,-267.81 1561.88,-259.27 1551.65,-262.03 1555.61,-267.81"/>
</g>
<!-- 18 -->
<g id="node20" class="node">
<title>18</title>
<text text-anchor="start" x="990.5" y="-99.8" font-family="Arial" font-weight="bold" font-size="14.00"> &lt; 88.4</text>
<path fill="#f8766d" fill-opacity="0.541176" stroke="transparent" d="M967,-27C967,-27 1057,-27 1057,-27 1063,-27 1069,-33 1069,-39 1069,-39 1069,-79 1069,-79 1069,-85 1063,-91 1057,-91 1057,-91 967,-91 967,-91 961,-91 955,-85 955,-79 955,-79 955,-39 955,-39 955,-33 961,-27 967,-27"/>
<text text-anchor="start" x="956" y="-88.4" font-family="Arial" font-size="2.00"> </text>
<text text-anchor="start" x="956" y="-82.4" font-family="Arial" font-size="7.00"> &#160;18</text>
<text text-anchor="start" x="970" y="-65.8" font-family="Arial" font-weight="bold" font-size="14.00">Predict 87.29</text>
<text text-anchor="start" x="992" y="-48.8" font-family="Arial" font-weight="bold" font-size="14.00">n = 17</text>
<text text-anchor="start" x="1010.5" y="-30.8" font-family="Arial" font-size="9.00"> </text>
<path fill="none" stroke="#333333" d="M967,-27C967,-27 1057,-27 1057,-27 1063,-27 1069,-33 1069,-39 1069,-39 1069,-79 1069,-79 1069,-85 1063,-91 1057,-91 1057,-91 967,-91 967,-91 961,-91 955,-85 955,-79 955,-79 955,-39 955,-39 955,-33 961,-27 967,-27"/>
<text text-anchor="start" x="1010" y="-12.8" font-family="Arial" font-weight="bold" font-size="14.00"> </text>
</g>
<!-- 17&#45;&gt;18 -->
<g id="edge19" class="edge">
<title>17&#45;&gt;18</title>
<path fill="none" stroke="#888888" d="M1029.25,-153.67C1027.71,-145.3 1026.12,-136.64 1024.55,-128.1"/>
<polygon fill="#888888" stroke="#888888" points="1027.97,-127.38 1022.72,-118.18 1021.09,-128.64 1027.97,-127.38"/>
</g>
<!-- 19 -->
<g id="node21" class="node">
<title>19</title>
<text text-anchor="start" x="1147" y="-99.8" font-family="Arial" font-weight="bold" font-size="14.00"> ≥ 88.4</text>
<path fill="#f8766d" fill-opacity="0.517647" stroke="transparent" d="M1123,-27C1123,-27 1213,-27 1213,-27 1219,-27 1225,-33 1225,-39 1225,-39 1225,-79 1225,-79 1225,-85 1219,-91 1213,-91 1213,-91 1123,-91 1123,-91 1117,-91 1111,-85 1111,-79 1111,-79 1111,-39 1111,-39 1111,-33 1117,-27 1123,-27"/>
<text text-anchor="start" x="1112" y="-88.4" font-family="Arial" font-size="2.00"> </text>
<text text-anchor="start" x="1112" y="-82.4" font-family="Arial" font-size="7.00"> &#160;19</text>
<text text-anchor="start" x="1126" y="-65.8" font-family="Arial" font-weight="bold" font-size="14.00">Predict 89.21</text>
<text text-anchor="start" x="1148" y="-48.8" font-family="Arial" font-weight="bold" font-size="14.00">n = 18</text>
<text text-anchor="start" x="1166.5" y="-30.8" font-family="Arial" font-size="9.00"> </text>
<path fill="none" stroke="#333333" d="M1123,-27C1123,-27 1213,-27 1213,-27 1219,-27 1225,-33 1225,-39 1225,-39 1225,-79 1225,-79 1225,-85 1219,-91 1213,-91 1213,-91 1123,-91 1123,-91 1117,-91 1111,-85 1111,-79 1111,-79 1111,-39 1111,-39 1111,-33 1117,-27 1123,-27"/>
<text text-anchor="start" x="1166" y="-12.8" font-family="Arial" font-weight="bold" font-size="14.00"> </text>
</g>
<!-- 17&#45;&gt;19 -->
<g id="edge20" class="edge">
<title>17&#45;&gt;19</title>
<path fill="none" stroke="#888888" d="M1089.12,-153.67C1096.78,-144.58 1104.73,-135.13 1112.52,-125.88"/>
<polygon fill="#888888" stroke="#888888" points="1115.25,-128.08 1119.01,-118.18 1109.89,-123.57 1115.25,-128.08"/>
</g>
<!-- 23 -->
<g id="node24" class="node">
<title>23</title>
<text text-anchor="start" x="1299" y="-99.8" font-family="Arial" font-weight="bold" font-size="14.00"> &lt; 95.16</text>
<path fill="#f8766d" fill-opacity="0.482353" stroke="transparent" d="M1279,-27C1279,-27 1369,-27 1369,-27 1375,-27 1381,-33 1381,-39 1381,-39 1381,-79 1381,-79 1381,-85 1375,-91 1369,-91 1369,-91 1279,-91 1279,-91 1273,-91 1267,-85 1267,-79 1267,-79 1267,-39 1267,-39 1267,-33 1273,-27 1279,-27"/>
<text text-anchor="start" x="1268" y="-88.4" font-family="Arial" font-size="2.00"> </text>
<text text-anchor="start" x="1268" y="-82.4" font-family="Arial" font-size="7.00"> &#160;23</text>
<text text-anchor="start" x="1282" y="-65.8" font-family="Arial" font-weight="bold" font-size="14.00">Predict 92.53</text>
<text text-anchor="start" x="1304" y="-48.8" font-family="Arial" font-weight="bold" font-size="14.00">n = 14</text>
<text text-anchor="start" x="1322.5" y="-30.8" font-family="Arial" font-size="9.00"> </text>
<path fill="none" stroke="#333333" d="M1279,-27C1279,-27 1369,-27 1369,-27 1375,-27 1381,-33 1381,-39 1381,-39 1381,-79 1381,-79 1381,-85 1375,-91 1369,-91 1369,-91 1279,-91 1279,-91 1273,-91 1267,-85 1267,-79 1267,-79 1267,-39 1267,-39 1267,-33 1273,-27 1279,-27"/>
<text text-anchor="start" x="1322" y="-12.8" font-family="Arial" font-weight="bold" font-size="14.00"> </text>
</g>
<!-- 22&#45;&gt;23 -->
<g id="edge23" class="edge">
<title>22&#45;&gt;23</title>
<path fill="none" stroke="#888888" d="M1374.53,-153.67C1369.82,-144.94 1364.94,-135.88 1360.14,-126.99"/>
<polygon fill="#888888" stroke="#888888" points="1363.21,-125.32 1355.38,-118.18 1357.05,-128.64 1363.21,-125.32"/>
</g>
<!-- 24 -->
<g id="node25" class="node">
<title>24</title>
<text text-anchor="start" x="1451.5" y="-99.8" font-family="Arial" font-weight="bold" font-size="14.00"> ≥ 95.16</text>
<path fill="#f8766d" fill-opacity="0.443137" stroke="transparent" d="M1435,-27C1435,-27 1517,-27 1517,-27 1523,-27 1529,-33 1529,-39 1529,-39 1529,-79 1529,-79 1529,-85 1523,-91 1517,-91 1517,-91 1435,-91 1435,-91 1429,-91 1423,-85 1423,-79 1423,-79 1423,-39 1423,-39 1423,-33 1429,-27 1435,-27"/>
<text text-anchor="start" x="1424" y="-88.4" font-family="Arial" font-size="2.00"> </text>
<text text-anchor="start" x="1424" y="-82.4" font-family="Arial" font-size="7.00"> &#160;24</text>
<text text-anchor="start" x="1438" y="-65.8" font-family="Arial" font-weight="bold" font-size="14.00">Predict 95.9</text>
<text text-anchor="start" x="1460" y="-48.8" font-family="Arial" font-weight="bold" font-size="14.00">n = 9</text>
<text text-anchor="start" x="1474.5" y="-30.8" font-family="Arial" font-size="9.00"> </text>
<path fill="none" stroke="#333333" d="M1435,-27C1435,-27 1517,-27 1517,-27 1523,-27 1529,-33 1529,-39 1529,-39 1529,-79 1529,-79 1529,-85 1523,-91 1517,-91 1517,-91 1435,-91 1435,-91 1429,-91 1423,-85 1423,-79 1423,-79 1423,-39 1423,-39 1423,-33 1429,-27 1435,-27"/>
<text text-anchor="start" x="1474" y="-12.8" font-family="Arial" font-weight="bold" font-size="14.00"> </text>
</g>
<!-- 22&#45;&gt;24 -->
<g id="edge24" class="edge">
<title>22&#45;&gt;24</title>
<path fill="none" stroke="#888888" d="M1432.86,-153.67C1436.84,-145.03 1440.97,-136.07 1445.02,-127.27"/>
<polygon fill="#888888" stroke="#888888" points="1448.2,-128.72 1449.21,-118.18 1441.85,-125.8 1448.2,-128.72"/>
</g>
<!-- 26 -->
<g id="node26" class="node">
<title>26</title>
<text text-anchor="start" x="1610.5" y="-99.8" font-family="Arial" font-weight="bold" font-size="14.00"> &lt; 7.5</text>
<path fill="#f8766d" fill-opacity="0.423529" stroke="transparent" d="M1583,-27C1583,-27 1673,-27 1673,-27 1679,-27 1685,-33 1685,-39 1685,-39 1685,-79 1685,-79 1685,-85 1679,-91 1673,-91 1673,-91 1583,-91 1583,-91 1577,-91 1571,-85 1571,-79 1571,-79 1571,-39 1571,-39 1571,-33 1577,-27 1583,-27"/>
<text text-anchor="start" x="1572" y="-88.4" font-family="Arial" font-size="2.00"> </text>
<text text-anchor="start" x="1572" y="-82.4" font-family="Arial" font-size="7.00"> &#160;26</text>
<text text-anchor="start" x="1586" y="-65.8" font-family="Arial" font-weight="bold" font-size="14.00">Predict 97.58</text>
<text text-anchor="start" x="1612" y="-48.8" font-family="Arial" font-weight="bold" font-size="14.00">n = 5</text>
<text text-anchor="start" x="1626.5" y="-30.8" font-family="Arial" font-size="9.00"> </text>
<path fill="none" stroke="#333333" d="M1583,-27C1583,-27 1673,-27 1673,-27 1679,-27 1685,-33 1685,-39 1685,-39 1685,-79 1685,-79 1685,-85 1679,-91 1673,-91 1673,-91 1583,-91 1583,-91 1577,-91 1571,-85 1571,-79 1571,-79 1571,-39 1571,-39 1571,-33 1577,-27 1583,-27"/>
<text text-anchor="start" x="1626" y="-12.8" font-family="Arial" font-weight="bold" font-size="14.00"> </text>
</g>
<!-- 25&#45;&gt;26 -->
<g id="edge25" class="edge">
<title>25&#45;&gt;26</title>
<path fill="none" stroke="#888888" d="M1628,-153.67C1628,-145.39 1628,-136.83 1628,-128.38"/>
<polygon fill="#888888" stroke="#888888" points="1631.5,-128.18 1628,-118.18 1624.5,-128.18 1631.5,-128.18"/>
</g>
<!-- 27 -->
<g id="node27" class="node">
<title>27</title>
<text text-anchor="start" x="1767" y="-99.8" font-family="Arial" font-weight="bold" font-size="14.00"> ≥ 7.5</text>
<path fill="#f8766d" fill-opacity="0.376471" stroke="transparent" d="M1739,-27C1739,-27 1829,-27 1829,-27 1835,-27 1841,-33 1841,-39 1841,-39 1841,-79 1841,-79 1841,-85 1835,-91 1829,-91 1829,-91 1739,-91 1739,-91 1733,-91 1727,-85 1727,-79 1727,-79 1727,-39 1727,-39 1727,-33 1733,-27 1739,-27"/>
<text text-anchor="start" x="1728" y="-88.4" font-family="Arial" font-size="2.00"> </text>
<text text-anchor="start" x="1728" y="-82.4" font-family="Arial" font-size="7.00"> &#160;27</text>
<text text-anchor="start" x="1742" y="-65.8" font-family="Arial" font-weight="bold" font-size="14.00">Predict 101.8</text>
<text text-anchor="start" x="1764.5" y="-48.8" font-family="Arial" font-weight="bold" font-size="14.00">n = 11</text>
<text text-anchor="start" x="1782.5" y="-30.8" font-family="Arial" font-size="9.00"> </text>
<path fill="none" stroke="#333333" d="M1739,-27C1739,-27 1829,-27 1829,-27 1835,-27 1841,-33 1841,-39 1841,-39 1841,-79 1841,-79 1841,-85 1835,-91 1829,-91 1829,-91 1739,-91 1739,-91 1733,-91 1727,-85 1727,-79 1727,-79 1727,-39 1727,-39 1727,-33 1733,-27 1739,-27"/>
<text text-anchor="start" x="1782" y="-12.8" font-family="Arial" font-weight="bold" font-size="14.00"> </text>
</g>
<!-- 25&#45;&gt;27 -->
<g id="edge26" class="edge">
<title>25&#45;&gt;27</title>
<path fill="none" stroke="#888888" d="M1687.87,-153.67C1697.38,-144.39 1707.28,-134.75 1716.95,-125.33"/>
<polygon fill="#888888" stroke="#888888" points="1719.57,-127.66 1724.29,-118.18 1714.69,-122.65 1719.57,-127.66"/>
</g>
</g>
</svg>
