<?xml version="1.0" encoding="UTF-8" standalone="no"?>
<!DOCTYPE svg PUBLIC "-//W3C//DTD SVG 1.1//EN"
 "http://www.w3.org/Graphics/SVG/1.1/DTD/svg11.dtd">
<!-- Generated by graphviz version 2.50.0 (20211204.2007)
 -->
<!-- Pages: 1 -->
<svg width="393pt" height="588pt"
 viewBox="0.00 0.00 392.50 588.00" xmlns="http://www.w3.org/2000/svg" xmlns:xlink="http://www.w3.org/1999/xlink">
<g id="graph0" class="graph" transform="scale(1 1) rotate(0) translate(4 584)">
<polygon fill="white" stroke="transparent" points="-4,4 -4,-584 388.5,-584 388.5,4 -4,4"/>
<!-- 1 -->
<g id="node1" class="node">
<title>1</title>
<text text-anchor="start" x="152" y="-561.8" font-family="Arial" font-weight="bold" font-size="14.00"> </text>
<path fill="#ebebeb" stroke="transparent" d="M112.5,-489C112.5,-489 195.5,-489 195.5,-489 201.5,-489 207.5,-495 207.5,-501 207.5,-501 207.5,-541 207.5,-541 207.5,-547 201.5,-553 195.5,-553 195.5,-553 112.5,-553 112.5,-553 106.5,-553 100.5,-547 100.5,-541 100.5,-541 100.5,-501 100.5,-501 100.5,-495 106.5,-489 112.5,-489"/>
<text text-anchor="start" x="101.5" y="-550.4" font-family="Arial" font-size="2.00"> </text>
<text text-anchor="start" x="101.5" y="-544.4" font-family="Arial" font-size="7.00"> &#160;1</text>
<text text-anchor="start" x="115.5" y="-527.8" font-family="Arial" font-weight="bold" font-size="14.00">Mean: 11.18</text>
<text text-anchor="start" x="130.5" y="-510.8" font-family="Arial" font-weight="bold" font-size="14.00">n = 672</text>
<text text-anchor="start" x="152.5" y="-492.8" font-family="Arial" font-size="9.00"> </text>
<path fill="none" stroke="#333333" d="M112.5,-489C112.5,-489 195.5,-489 195.5,-489 201.5,-489 207.5,-495 207.5,-501 207.5,-501 207.5,-541 207.5,-541 207.5,-547 201.5,-553 195.5,-553 195.5,-553 112.5,-553 112.5,-553 106.5,-553 100.5,-547 100.5,-541 100.5,-541 100.5,-501 100.5,-501 100.5,-495 106.5,-489 112.5,-489"/>
<text text-anchor="start" x="139.5" y="-474.8" font-family="Arial" font-weight="bold" font-size="14.00">time</text>
</g>
<!-- 2 -->
<g id="node2" class="node">
<title>2</title>
<text text-anchor="start" x="60" y="-407.8" font-family="Arial" font-weight="bold" font-size="14.00"> &lt; 6.5</text>
<path fill="#f8766d" fill-opacity="0.874510" stroke="transparent" d="M32.5,-335C32.5,-335 122.5,-335 122.5,-335 128.5,-335 134.5,-341 134.5,-347 134.5,-347 134.5,-387 134.5,-387 134.5,-393 128.5,-399 122.5,-399 122.5,-399 32.5,-399 32.5,-399 26.5,-399 20.5,-393 20.5,-387 20.5,-387 20.5,-347 20.5,-347 20.5,-341 26.5,-335 32.5,-335"/>
<text text-anchor="start" x="21.5" y="-396.4" font-family="Arial" font-size="2.00"> </text>
<text text-anchor="start" x="21.5" y="-390.4" font-family="Arial" font-size="7.00"> &#160;2</text>
<text text-anchor="start" x="35.5" y="-373.8" font-family="Arial" font-weight="bold" font-size="14.00">Predict 9.592</text>
<text text-anchor="start" x="54" y="-356.8" font-family="Arial" font-weight="bold" font-size="14.00">n = 196</text>
<text text-anchor="start" x="76" y="-338.8" font-family="Arial" font-size="9.00"> </text>
<path fill="none" stroke="#333333" d="M32.5,-335C32.5,-335 122.5,-335 122.5,-335 128.5,-335 134.5,-341 134.5,-347 134.5,-347 134.5,-387 134.5,-387 134.5,-393 128.5,-399 122.5,-399 122.5,-399 32.5,-399 32.5,-399 26.5,-399 20.5,-393 20.5,-387 20.5,-387 20.5,-347 20.5,-347 20.5,-341 26.5,-335 32.5,-335"/>
<text text-anchor="start" x="75.5" y="-320.8" font-family="Arial" font-weight="bold" font-size="14.00"> </text>
</g>
<!-- 1&#45;&gt;2 -->
<g id="edge1" class="edge">
<title>1&#45;&gt;2</title>
<path fill="none" stroke="#888888" d="M124.33,-461.67C120.02,-453.03 115.54,-444.07 111.14,-435.27"/>
<polygon fill="#888888" stroke="#888888" points="114.19,-433.56 106.59,-426.18 107.93,-436.69 114.19,-433.56"/>
</g>
<!-- 3 -->
<g id="node3" class="node">
<title>3</title>
<text text-anchor="start" x="214" y="-407.8" font-family="Arial" font-weight="bold" font-size="14.00"> ≥ 6.5</text>
<path fill="#ebebeb" stroke="transparent" d="M189.5,-335C189.5,-335 272.5,-335 272.5,-335 278.5,-335 284.5,-341 284.5,-347 284.5,-347 284.5,-387 284.5,-387 284.5,-393 278.5,-399 272.5,-399 272.5,-399 189.5,-399 189.5,-399 183.5,-399 177.5,-393 177.5,-387 177.5,-387 177.5,-347 177.5,-347 177.5,-341 183.5,-335 189.5,-335"/>
<text text-anchor="start" x="178.5" y="-396.4" font-family="Arial" font-size="2.00"> </text>
<text text-anchor="start" x="178.5" y="-390.4" font-family="Arial" font-size="7.00"> &#160;3</text>
<text text-anchor="start" x="192.5" y="-373.8" font-family="Arial" font-weight="bold" font-size="14.00">Mean: 11.83</text>
<text text-anchor="start" x="207.5" y="-356.8" font-family="Arial" font-weight="bold" font-size="14.00">n = 476</text>
<text text-anchor="start" x="229.5" y="-338.8" font-family="Arial" font-size="9.00"> </text>
<path fill="none" stroke="#333333" d="M189.5,-335C189.5,-335 272.5,-335 272.5,-335 278.5,-335 284.5,-341 284.5,-347 284.5,-347 284.5,-387 284.5,-387 284.5,-393 278.5,-399 272.5,-399 272.5,-399 189.5,-399 189.5,-399 183.5,-399 177.5,-393 177.5,-387 177.5,-387 177.5,-347 177.5,-347 177.5,-341 183.5,-335 189.5,-335"/>
<text text-anchor="start" x="216.5" y="-320.8" font-family="Arial" font-weight="bold" font-size="14.00">time</text>
</g>
<!-- 1&#45;&gt;3 -->
<g id="edge2" class="edge">
<title>1&#45;&gt;3</title>
<path fill="none" stroke="#888888" d="M183.05,-461.67C187.43,-453.03 191.96,-444.07 196.42,-435.27"/>
<polygon fill="#888888" stroke="#888888" points="199.63,-436.68 201.03,-426.18 193.39,-433.52 199.63,-436.68"/>
</g>
<!-- 4 -->
<g id="node4" class="node">
<title>4</title>
<text text-anchor="start" x="125" y="-253.8" font-family="Arial" font-weight="bold" font-size="14.00"> &lt; 21.5</text>
<text text-anchor="start" x="74.5" y="-209.3" font-family="Arial" font-size="14.00"> &#160;&#160;&#160;</text>
<path fill="#ebebeb" stroke="transparent" d="M104.5,-181C104.5,-181 188.5,-181 188.5,-181 194.5,-181 200.5,-187 200.5,-193 200.5,-193 200.5,-233 200.5,-233 200.5,-239 194.5,-245 188.5,-245 188.5,-245 104.5,-245 104.5,-245 98.5,-245 92.5,-239 92.5,-233 92.5,-233 92.5,-193 92.5,-193 92.5,-187 98.5,-181 104.5,-181"/>
<text text-anchor="start" x="93.5" y="-242.4" font-family="Arial" font-size="2.00"> </text>
<text text-anchor="start" x="93.5" y="-236.4" font-family="Arial" font-size="7.00"> &#160;4</text>
<text text-anchor="start" x="107.5" y="-219.8" font-family="Arial" font-weight="bold" font-size="14.00">Mean: 12.01</text>
<text text-anchor="start" x="123" y="-202.8" font-family="Arial" font-weight="bold" font-size="14.00">n = 420</text>
<text text-anchor="start" x="145" y="-184.8" font-family="Arial" font-size="9.00"> </text>
<path fill="none" stroke="#333333" d="M104.5,-181C104.5,-181 188.5,-181 188.5,-181 194.5,-181 200.5,-187 200.5,-193 200.5,-193 200.5,-233 200.5,-233 200.5,-239 194.5,-245 188.5,-245 188.5,-245 104.5,-245 104.5,-245 98.5,-245 92.5,-239 92.5,-233 92.5,-233 92.5,-193 92.5,-193 92.5,-187 98.5,-181 104.5,-181"/>
<text text-anchor="start" x="202.5" y="-209.3" font-family="Arial" font-size="14.00"> &#160;&#160;&#160;</text>
<text text-anchor="start" x="89" y="-166.8" font-family="Arial" font-weight="bold" font-size="14.00">prev_168h_inflow</text>
</g>
<!-- 3&#45;&gt;4 -->
<g id="edge3" class="edge">
<title>3&#45;&gt;4</title>
<path fill="none" stroke="#888888" d="M198.26,-307.67C193.44,-298.94 188.44,-289.88 183.52,-280.99"/>
<polygon fill="#888888" stroke="#888888" points="186.55,-279.24 178.65,-272.18 180.42,-282.62 186.55,-279.24"/>
</g>
<!-- 7 -->
<g id="node5" class="node">
<title>7</title>
<text text-anchor="start" x="294.5" y="-253.8" font-family="Arial" font-weight="bold" font-size="14.00"> ≥ 21.5</text>
<path fill="#f8766d" fill-opacity="0.705882" stroke="transparent" d="M270.5,-181C270.5,-181 360.5,-181 360.5,-181 366.5,-181 372.5,-187 372.5,-193 372.5,-193 372.5,-233 372.5,-233 372.5,-239 366.5,-245 360.5,-245 360.5,-245 270.5,-245 270.5,-245 264.5,-245 258.5,-239 258.5,-233 258.5,-233 258.5,-193 258.5,-193 258.5,-187 264.5,-181 270.5,-181"/>
<text text-anchor="start" x="259.5" y="-242.4" font-family="Arial" font-size="2.00"> </text>
<text text-anchor="start" x="259.5" y="-236.4" font-family="Arial" font-size="7.00"> &#160;7</text>
<text text-anchor="start" x="273.5" y="-219.8" font-family="Arial" font-weight="bold" font-size="14.00">Predict 10.47</text>
<text text-anchor="start" x="295.5" y="-202.8" font-family="Arial" font-weight="bold" font-size="14.00">n = 56</text>
<text text-anchor="start" x="314" y="-184.8" font-family="Arial" font-size="9.00"> </text>
<path fill="none" stroke="#333333" d="M270.5,-181C270.5,-181 360.5,-181 360.5,-181 366.5,-181 372.5,-187 372.5,-193 372.5,-193 372.5,-233 372.5,-233 372.5,-239 366.5,-245 360.5,-245 360.5,-245 270.5,-245 270.5,-245 264.5,-245 258.5,-239 258.5,-233 258.5,-233 258.5,-193 258.5,-193 258.5,-187 264.5,-181 270.5,-181"/>
<text text-anchor="start" x="313.5" y="-166.8" font-family="Arial" font-weight="bold" font-size="14.00"> </text>
</g>
<!-- 3&#45;&gt;7 -->
<g id="edge4" class="edge">
<title>3&#45;&gt;7</title>
<path fill="none" stroke="#888888" d="M263.12,-307.67C268,-298.94 273.07,-289.88 278.04,-280.99"/>
<polygon fill="#888888" stroke="#888888" points="281.14,-282.61 282.97,-272.18 275.03,-279.2 281.14,-282.61"/>
</g>
<!-- 5 -->
<g id="node6" class="node">
<title>5</title>
<text text-anchor="start" x="44.5" y="-99.8" font-family="Arial" font-weight="bold" font-size="14.00"> &lt; 11.06</text>
<path fill="#f8766d" fill-opacity="0.529412" stroke="transparent" d="M24.5,-27C24.5,-27 113.5,-27 113.5,-27 119.5,-27 125.5,-33 125.5,-39 125.5,-39 125.5,-79 125.5,-79 125.5,-85 119.5,-91 113.5,-91 113.5,-91 24.5,-91 24.5,-91 18.5,-91 12.5,-85 12.5,-79 12.5,-79 12.5,-39 12.5,-39 12.5,-33 18.5,-27 24.5,-27"/>
<text text-anchor="start" x="13.5" y="-88.4" font-family="Arial" font-size="2.00"> </text>
<text text-anchor="start" x="13.5" y="-82.4" font-family="Arial" font-size="7.00"> &#160;5</text>
<text text-anchor="start" x="27.5" y="-65.8" font-family="Arial" font-weight="bold" font-size="14.00">Predict 11.39</text>
<text text-anchor="start" x="49" y="-48.8" font-family="Arial" font-weight="bold" font-size="14.00">n = 90</text>
<text text-anchor="start" x="67.5" y="-30.8" font-family="Arial" font-size="9.00"> </text>
<path fill="none" stroke="#333333" d="M24.5,-27C24.5,-27 113.5,-27 113.5,-27 119.5,-27 125.5,-33 125.5,-39 125.5,-39 125.5,-79 125.5,-79 125.5,-85 119.5,-91 113.5,-91 113.5,-91 24.5,-91 24.5,-91 18.5,-91 12.5,-85 12.5,-79 12.5,-79 12.5,-39 12.5,-39 12.5,-33 18.5,-27 24.5,-27"/>
<text text-anchor="start" x="67" y="-12.8" font-family="Arial" font-weight="bold" font-size="14.00"> </text>
</g>
<!-- 4&#45;&gt;5 -->
<g id="edge5" class="edge">
<title>4&#45;&gt;5</title>
<path fill="none" stroke="#888888" d="M116.57,-153.67C112.13,-145.03 107.54,-136.07 103.02,-127.27"/>
<polygon fill="#888888" stroke="#888888" points="106.03,-125.48 98.35,-118.18 99.81,-128.67 106.03,-125.48"/>
</g>
<!-- 6 -->
<g id="node7" class="node">
<title>6</title>
<text text-anchor="start" x="200" y="-99.8" font-family="Arial" font-weight="bold" font-size="14.00"> ≥ 11.06</text>
<path fill="#f8766d" fill-opacity="0.376471" stroke="transparent" d="M179.5,-27C179.5,-27 269.5,-27 269.5,-27 275.5,-27 281.5,-33 281.5,-39 281.5,-39 281.5,-79 281.5,-79 281.5,-85 275.5,-91 269.5,-91 269.5,-91 179.5,-91 179.5,-91 173.5,-91 167.5,-85 167.5,-79 167.5,-79 167.5,-39 167.5,-39 167.5,-33 173.5,-27 179.5,-27"/>
<text text-anchor="start" x="168.5" y="-88.4" font-family="Arial" font-size="2.00"> </text>
<text text-anchor="start" x="168.5" y="-82.4" font-family="Arial" font-size="7.00"> &#160;6</text>
<text text-anchor="start" x="182.5" y="-65.8" font-family="Arial" font-weight="bold" font-size="14.00">Predict 12.18</text>
<text text-anchor="start" x="201" y="-48.8" font-family="Arial" font-weight="bold" font-size="14.00">n = 330</text>
<text text-anchor="start" x="223" y="-30.8" font-family="Arial" font-size="9.00"> </text>
<path fill="none" stroke="#333333" d="M179.5,-27C179.5,-27 269.5,-27 269.5,-27 275.5,-27 281.5,-33 281.5,-39 281.5,-39 281.5,-79 281.5,-79 281.5,-85 275.5,-91 269.5,-91 269.5,-91 179.5,-91 179.5,-91 173.5,-91 167.5,-85 167.5,-79 167.5,-79 167.5,-39 167.5,-39 167.5,-33 173.5,-27 179.5,-27"/>
<text text-anchor="start" x="222.5" y="-12.8" font-family="Arial" font-weight="bold" font-size="14.00"> </text>
</g>
<!-- 4&#45;&gt;6 -->
<g id="edge6" class="edge">
<title>4&#45;&gt;6</title>
<path fill="none" stroke="#888888" d="M176.43,-153.67C180.87,-145.03 185.46,-136.07 189.98,-127.27"/>
<polygon fill="#888888" stroke="#888888" points="193.19,-128.67 194.65,-118.18 186.97,-125.48 193.19,-128.67"/>
</g>
</g>
</svg>
