<?xml version="1.0" encoding="utf-8"?>
<svg xmlns="http://www.w3.org/2000/svg" xmlns:xlink="http://www.w3.org/1999/xlink" width="1000" height="400" viewBox="0 0 4000 1600">
<defs>
  <clipPath id="clip390">
    <rect x="0" y="0" width="4000" height="1600"/>
  </clipPath>
</defs>
<path clip-path="url(#clip390)" d="M0 1600 L4000 1600 L4000 0 L0 0  Z" fill="#ffffff" fill-rule="evenodd" fill-opacity="1"/>
<defs>
  <clipPath id="clip391">
    <rect x="800" y="0" width="2801" height="1600"/>
  </clipPath>
</defs>
<path clip-path="url(#clip390)" d="M205.077 1497.68 L3180.41 1497.68 L3180.41 47.2441 L205.077 47.2441  Z" fill="#ffffff" fill-rule="evenodd" fill-opacity="1"/>
<defs>
  <clipPath id="clip392">
    <rect x="205" y="47" width="2976" height="1451"/>
  </clipPath>
</defs>
<polyline clip-path="url(#clip392)" style="stroke:#000000; stroke-linecap:round; stroke-linejoin:round; stroke-width:2; stroke-opacity:0.1; fill:none" points="289.284,1497.68 289.284,47.2441 "/>
<polyline clip-path="url(#clip392)" style="stroke:#000000; stroke-linecap:round; stroke-linejoin:round; stroke-width:2; stroke-opacity:0.1; fill:none" points="1096.06,1497.68 1096.06,47.2441 "/>
<polyline clip-path="url(#clip392)" style="stroke:#000000; stroke-linecap:round; stroke-linejoin:round; stroke-width:2; stroke-opacity:0.1; fill:none" points="1902.84,1497.68 1902.84,47.2441 "/>
<polyline clip-path="url(#clip392)" style="stroke:#000000; stroke-linecap:round; stroke-linejoin:round; stroke-width:2; stroke-opacity:0.1; fill:none" points="2709.62,1497.68 2709.62,47.2441 "/>
<polyline clip-path="url(#clip390)" style="stroke:#000000; stroke-linecap:round; stroke-linejoin:round; stroke-width:4; stroke-opacity:1; fill:none" points="205.077,1497.68 3180.41,1497.68 "/>
<polyline clip-path="url(#clip390)" style="stroke:#000000; stroke-linecap:round; stroke-linejoin:round; stroke-width:4; stroke-opacity:1; fill:none" points="289.284,1497.68 289.284,1478.78 "/>
<polyline clip-path="url(#clip390)" style="stroke:#000000; stroke-linecap:round; stroke-linejoin:round; stroke-width:4; stroke-opacity:1; fill:none" points="1096.06,1497.68 1096.06,1478.78 "/>
<polyline clip-path="url(#clip390)" style="stroke:#000000; stroke-linecap:round; stroke-linejoin:round; stroke-width:4; stroke-opacity:1; fill:none" points="1902.84,1497.68 1902.84,1478.78 "/>
<polyline clip-path="url(#clip390)" style="stroke:#000000; stroke-linecap:round; stroke-linejoin:round; stroke-width:4; stroke-opacity:1; fill:none" points="2709.62,1497.68 2709.62,1478.78 "/>
<path clip-path="url(#clip390)" d="M144.871 1573.85 L163.23 1573.85 L163.23 1578.28 L138.543 1578.28 L138.543 1573.85 Q141.537 1570.75 146.694 1565.55 Q151.876 1560.31 153.204 1558.8 Q155.73 1555.96 156.72 1554.01 Q157.735 1552.03 157.735 1550.13 Q157.735 1547.03 155.548 1545.08 Q153.386 1543.12 149.897 1543.12 Q147.423 1543.12 144.662 1543.98 Q141.928 1544.84 138.803 1546.59 L138.803 1541.27 Q141.98 1540 144.741 1539.35 Q147.501 1538.7 149.793 1538.7 Q155.834 1538.7 159.428 1541.72 Q163.022 1544.74 163.022 1549.79 Q163.022 1552.19 162.11 1554.35 Q161.225 1556.48 158.855 1559.4 Q158.204 1560.15 154.714 1563.77 Q151.225 1567.37 144.871 1573.85 Z" fill="#000000" fill-rule="nonzero" fill-opacity="1" /><path clip-path="url(#clip390)" d="M185.522 1542.86 Q181.459 1542.86 179.402 1546.87 Q177.371 1550.86 177.371 1558.88 Q177.371 1566.87 179.402 1570.88 Q181.459 1574.87 185.522 1574.87 Q189.61 1574.87 191.641 1570.88 Q193.699 1566.87 193.699 1558.88 Q193.699 1550.86 191.641 1546.87 Q189.61 1542.86 185.522 1542.86 M185.522 1538.7 Q192.058 1538.7 195.496 1543.88 Q198.959 1549.04 198.959 1558.88 Q198.959 1568.7 195.496 1573.88 Q192.058 1579.04 185.522 1579.04 Q178.985 1579.04 175.522 1573.88 Q172.084 1568.7 172.084 1558.88 Q172.084 1549.04 175.522 1543.88 Q178.985 1538.7 185.522 1538.7 Z" fill="#000000" fill-rule="nonzero" fill-opacity="1" /><path clip-path="url(#clip390)" d="M212.735 1573.85 L231.094 1573.85 L231.094 1578.28 L206.407 1578.28 L206.407 1573.85 Q209.402 1570.75 214.558 1565.55 Q219.74 1560.31 221.068 1558.8 Q223.594 1555.96 224.584 1554.01 Q225.6 1552.03 225.6 1550.13 Q225.6 1547.03 223.412 1545.08 Q221.251 1543.12 217.761 1543.12 Q215.287 1543.12 212.527 1543.98 Q209.792 1544.84 206.667 1546.59 L206.667 1541.27 Q209.844 1540 212.605 1539.35 Q215.365 1538.7 217.657 1538.7 Q223.698 1538.7 227.292 1541.72 Q230.886 1544.74 230.886 1549.79 Q230.886 1552.19 229.974 1554.35 Q229.089 1556.48 226.719 1559.4 Q226.068 1560.15 222.579 1563.77 Q219.089 1567.37 212.735 1573.85 Z" fill="#000000" fill-rule="nonzero" fill-opacity="1" /><path clip-path="url(#clip390)" d="M258.073 1557.32 Q261.849 1558.12 263.959 1560.68 Q266.094 1563.23 266.094 1566.98 Q266.094 1572.73 262.136 1575.88 Q258.177 1579.04 250.886 1579.04 Q248.438 1579.04 245.834 1578.54 Q243.256 1578.07 240.495 1577.11 L240.495 1572.03 Q242.683 1573.31 245.287 1573.96 Q247.891 1574.61 250.73 1574.61 Q255.677 1574.61 258.256 1572.65 Q260.86 1570.7 260.86 1566.98 Q260.86 1563.54 258.438 1561.61 Q256.042 1559.66 251.745 1559.66 L247.214 1559.66 L247.214 1555.34 L251.954 1555.34 Q255.834 1555.34 257.891 1553.8 Q259.948 1552.24 259.948 1549.32 Q259.948 1546.33 257.813 1544.74 Q255.704 1543.12 251.745 1543.12 Q249.584 1543.12 247.11 1543.59 Q244.636 1544.06 241.667 1545.05 L241.667 1540.36 Q244.662 1539.53 247.266 1539.11 Q249.896 1538.7 252.214 1538.7 Q258.204 1538.7 261.693 1541.43 Q265.183 1544.14 265.183 1548.77 Q265.183 1552 263.334 1554.24 Q261.485 1556.46 258.073 1557.32 Z" fill="#000000" fill-rule="nonzero" fill-opacity="1" /><path clip-path="url(#clip390)" d="M272.969 1561.54 L287.005 1561.54 L287.005 1565.81 L272.969 1565.81 L272.969 1561.54 Z" fill="#000000" fill-rule="nonzero" fill-opacity="1" /><path clip-path="url(#clip390)" d="M306.563 1542.86 Q302.5 1542.86 300.443 1546.87 Q298.412 1550.86 298.412 1558.88 Q298.412 1566.87 300.443 1570.88 Q302.5 1574.87 306.563 1574.87 Q310.651 1574.87 312.682 1570.88 Q314.74 1566.87 314.74 1558.88 Q314.74 1550.86 312.682 1546.87 Q310.651 1542.86 306.563 1542.86 M306.563 1538.7 Q313.099 1538.7 316.537 1543.88 Q320 1549.04 320 1558.88 Q320 1568.7 316.537 1573.88 Q313.099 1579.04 306.563 1579.04 Q300.026 1579.04 296.563 1573.88 Q293.125 1568.7 293.125 1558.88 Q293.125 1549.04 296.563 1543.88 Q300.026 1538.7 306.563 1538.7 Z" fill="#000000" fill-rule="nonzero" fill-opacity="1" /><path clip-path="url(#clip390)" d="M333.776 1573.85 L352.135 1573.85 L352.135 1578.28 L327.448 1578.28 L327.448 1573.85 Q330.443 1570.75 335.599 1565.55 Q340.781 1560.31 342.109 1558.8 Q344.635 1555.96 345.625 1554.01 Q346.641 1552.03 346.641 1550.13 Q346.641 1547.03 344.453 1545.08 Q342.292 1543.12 338.802 1543.12 Q336.328 1543.12 333.568 1543.98 Q330.833 1544.84 327.708 1546.59 L327.708 1541.27 Q330.885 1540 333.646 1539.35 Q336.406 1538.7 338.698 1538.7 Q344.739 1538.7 348.333 1541.72 Q351.927 1544.74 351.927 1549.79 Q351.927 1552.19 351.016 1554.35 Q350.13 1556.48 347.76 1559.4 Q347.109 1560.15 343.62 1563.77 Q340.13 1567.37 333.776 1573.85 Z" fill="#000000" fill-rule="nonzero" fill-opacity="1" /><path clip-path="url(#clip390)" d="M360.078 1561.54 L374.114 1561.54 L374.114 1565.81 L360.078 1565.81 L360.078 1561.54 Z" fill="#000000" fill-rule="nonzero" fill-opacity="1" /><path clip-path="url(#clip390)" d="M386.953 1573.85 L405.312 1573.85 L405.312 1578.28 L380.625 1578.28 L380.625 1573.85 Q383.619 1570.75 388.776 1565.55 Q393.958 1560.31 395.286 1558.8 Q397.812 1555.96 398.802 1554.01 Q399.817 1552.03 399.817 1550.13 Q399.817 1547.03 397.63 1545.08 Q395.468 1543.12 391.979 1543.12 Q389.505 1543.12 386.744 1543.98 Q384.01 1544.84 380.885 1546.59 L380.885 1541.27 Q384.062 1540 386.823 1539.35 Q389.583 1538.7 391.875 1538.7 Q397.916 1538.7 401.51 1541.72 Q405.104 1544.74 405.104 1549.79 Q405.104 1552.19 404.192 1554.35 Q403.307 1556.48 400.937 1559.4 Q400.286 1560.15 396.797 1563.77 Q393.307 1567.37 386.953 1573.85 Z" fill="#000000" fill-rule="nonzero" fill-opacity="1" /><path clip-path="url(#clip390)" d="M415.026 1539.4 L440.025 1539.4 L440.025 1541.64 L425.911 1578.28 L420.416 1578.28 L433.697 1543.83 L415.026 1543.83 L415.026 1539.4 Z" fill="#000000" fill-rule="nonzero" fill-opacity="1" /><path clip-path="url(#clip390)" d="M951.832 1573.85 L970.191 1573.85 L970.191 1578.28 L945.504 1578.28 L945.504 1573.85 Q948.499 1570.75 953.655 1565.55 Q958.837 1560.31 960.165 1558.8 Q962.691 1555.96 963.681 1554.01 Q964.697 1552.03 964.697 1550.13 Q964.697 1547.03 962.509 1545.08 Q960.348 1543.12 956.858 1543.12 Q954.384 1543.12 951.624 1543.98 Q948.889 1544.84 945.764 1546.59 L945.764 1541.27 Q948.942 1540 951.702 1539.35 Q954.462 1538.7 956.754 1538.7 Q962.796 1538.7 966.389 1541.72 Q969.983 1544.74 969.983 1549.79 Q969.983 1552.19 969.072 1554.35 Q968.186 1556.48 965.816 1559.4 Q965.165 1560.15 961.676 1563.77 Q958.186 1567.37 951.832 1573.85 Z" fill="#000000" fill-rule="nonzero" fill-opacity="1" /><path clip-path="url(#clip390)" d="M992.483 1542.86 Q988.42 1542.86 986.363 1546.87 Q984.332 1550.86 984.332 1558.88 Q984.332 1566.87 986.363 1570.88 Q988.42 1574.87 992.483 1574.87 Q996.571 1574.87 998.603 1570.88 Q1000.66 1566.87 1000.66 1558.88 Q1000.66 1550.86 998.603 1546.87 Q996.571 1542.86 992.483 1542.86 M992.483 1538.7 Q999.019 1538.7 1002.46 1543.88 Q1005.92 1549.04 1005.92 1558.88 Q1005.92 1568.7 1002.46 1573.88 Q999.019 1579.04 992.483 1579.04 Q985.947 1579.04 982.483 1573.88 Q979.046 1568.7 979.046 1558.88 Q979.046 1549.04 982.483 1543.88 Q985.947 1538.7 992.483 1538.7 Z" fill="#000000" fill-rule="nonzero" fill-opacity="1" /><path clip-path="url(#clip390)" d="M1019.7 1573.85 L1038.06 1573.85 L1038.06 1578.28 L1013.37 1578.28 L1013.37 1573.85 Q1016.36 1570.75 1021.52 1565.55 Q1026.7 1560.31 1028.03 1558.8 Q1030.56 1555.96 1031.55 1554.01 Q1032.56 1552.03 1032.56 1550.13 Q1032.56 1547.03 1030.37 1545.08 Q1028.21 1543.12 1024.72 1543.12 Q1022.25 1543.12 1019.49 1543.98 Q1016.75 1544.84 1013.63 1546.59 L1013.63 1541.27 Q1016.81 1540 1019.57 1539.35 Q1022.33 1538.7 1024.62 1538.7 Q1030.66 1538.7 1034.25 1541.72 Q1037.85 1544.74 1037.85 1549.79 Q1037.85 1552.19 1036.94 1554.35 Q1036.05 1556.48 1033.68 1559.4 Q1033.03 1560.15 1029.54 1563.77 Q1026.05 1567.37 1019.7 1573.85 Z" fill="#000000" fill-rule="nonzero" fill-opacity="1" /><path clip-path="url(#clip390)" d="M1065.03 1557.32 Q1068.81 1558.12 1070.92 1560.68 Q1073.06 1563.23 1073.06 1566.98 Q1073.06 1572.73 1069.1 1575.88 Q1065.14 1579.04 1057.85 1579.04 Q1055.4 1579.04 1052.8 1578.54 Q1050.22 1578.07 1047.46 1577.11 L1047.46 1572.03 Q1049.64 1573.31 1052.25 1573.96 Q1054.85 1574.61 1057.69 1574.61 Q1062.64 1574.61 1065.22 1572.65 Q1067.82 1570.7 1067.82 1566.98 Q1067.82 1563.54 1065.4 1561.61 Q1063 1559.66 1058.71 1559.66 L1054.18 1559.66 L1054.18 1555.34 L1058.91 1555.34 Q1062.8 1555.34 1064.85 1553.8 Q1066.91 1552.24 1066.91 1549.32 Q1066.91 1546.33 1064.77 1544.74 Q1062.66 1543.12 1058.71 1543.12 Q1056.55 1543.12 1054.07 1543.59 Q1051.6 1544.06 1048.63 1545.05 L1048.63 1540.36 Q1051.62 1539.53 1054.23 1539.11 Q1056.86 1538.7 1059.18 1538.7 Q1065.16 1538.7 1068.65 1541.43 Q1072.14 1544.14 1072.14 1548.77 Q1072.14 1552 1070.3 1554.24 Q1068.45 1556.46 1065.03 1557.32 Z" fill="#000000" fill-rule="nonzero" fill-opacity="1" /><path clip-path="url(#clip390)" d="M1079.93 1561.54 L1093.97 1561.54 L1093.97 1565.81 L1079.93 1565.81 L1079.93 1561.54 Z" fill="#000000" fill-rule="nonzero" fill-opacity="1" /><path clip-path="url(#clip390)" d="M1113.52 1542.86 Q1109.46 1542.86 1107.4 1546.87 Q1105.37 1550.86 1105.37 1558.88 Q1105.37 1566.87 1107.4 1570.88 Q1109.46 1574.87 1113.52 1574.87 Q1117.61 1574.87 1119.64 1570.88 Q1121.7 1566.87 1121.7 1558.88 Q1121.7 1550.86 1119.64 1546.87 Q1117.61 1542.86 1113.52 1542.86 M1113.52 1538.7 Q1120.06 1538.7 1123.5 1543.88 Q1126.96 1549.04 1126.96 1558.88 Q1126.96 1568.7 1123.5 1573.88 Q1120.06 1579.04 1113.52 1579.04 Q1106.99 1579.04 1103.52 1573.88 Q1100.09 1568.7 1100.09 1558.88 Q1100.09 1549.04 1103.52 1543.88 Q1106.99 1538.7 1113.52 1538.7 Z" fill="#000000" fill-rule="nonzero" fill-opacity="1" /><path clip-path="url(#clip390)" d="M1152.14 1557.32 Q1155.92 1558.12 1158.03 1560.68 Q1160.16 1563.23 1160.16 1566.98 Q1160.16 1572.73 1156.21 1575.88 Q1152.25 1579.04 1144.96 1579.04 Q1142.51 1579.04 1139.9 1578.54 Q1137.33 1578.07 1134.57 1577.11 L1134.57 1572.03 Q1136.75 1573.31 1139.36 1573.96 Q1141.96 1574.61 1144.8 1574.61 Q1149.75 1574.61 1152.33 1572.65 Q1154.93 1570.7 1154.93 1566.98 Q1154.93 1563.54 1152.51 1561.61 Q1150.11 1559.66 1145.82 1559.66 L1141.28 1559.66 L1141.28 1555.34 L1146.02 1555.34 Q1149.9 1555.34 1151.96 1553.8 Q1154.02 1552.24 1154.02 1549.32 Q1154.02 1546.33 1151.88 1544.74 Q1149.77 1543.12 1145.82 1543.12 Q1143.65 1543.12 1141.18 1543.59 Q1138.71 1544.06 1135.74 1545.05 L1135.74 1540.36 Q1138.73 1539.53 1141.34 1539.11 Q1143.97 1538.7 1146.28 1538.7 Q1152.27 1538.7 1155.76 1541.43 Q1159.25 1544.14 1159.25 1548.77 Q1159.25 1552 1157.4 1554.24 Q1155.56 1556.46 1152.14 1557.32 Z" fill="#000000" fill-rule="nonzero" fill-opacity="1" /><path clip-path="url(#clip390)" d="M1167.04 1561.54 L1181.08 1561.54 L1181.08 1565.81 L1167.04 1565.81 L1167.04 1561.54 Z" fill="#000000" fill-rule="nonzero" fill-opacity="1" /><path clip-path="url(#clip390)" d="M1200.63 1542.86 Q1196.57 1542.86 1194.51 1546.87 Q1192.48 1550.86 1192.48 1558.88 Q1192.48 1566.87 1194.51 1570.88 Q1196.57 1574.87 1200.63 1574.87 Q1204.72 1574.87 1206.75 1570.88 Q1208.81 1566.87 1208.81 1558.88 Q1208.81 1550.86 1206.75 1546.87 Q1204.72 1542.86 1200.63 1542.86 M1200.63 1538.7 Q1207.17 1538.7 1210.61 1543.88 Q1214.07 1549.04 1214.07 1558.88 Q1214.07 1568.7 1210.61 1573.88 Q1207.17 1579.04 1200.63 1579.04 Q1194.1 1579.04 1190.63 1573.88 Q1187.2 1568.7 1187.2 1558.88 Q1187.2 1549.04 1190.63 1543.88 Q1194.1 1538.7 1200.63 1538.7 Z" fill="#000000" fill-rule="nonzero" fill-opacity="1" /><path clip-path="url(#clip390)" d="M1224.23 1573.85 L1232.82 1573.85 L1232.82 1544.19 L1223.47 1546.07 L1223.47 1541.27 L1232.77 1539.4 L1238.03 1539.4 L1238.03 1573.85 L1246.62 1573.85 L1246.62 1578.28 L1224.23 1578.28 L1224.23 1573.85 Z" fill="#000000" fill-rule="nonzero" fill-opacity="1" /><path clip-path="url(#clip390)" d="M1758.29 1573.85 L1776.64 1573.85 L1776.64 1578.28 L1751.96 1578.28 L1751.96 1573.85 Q1754.95 1570.75 1760.11 1565.55 Q1765.29 1560.31 1766.62 1558.8 Q1769.15 1555.96 1770.13 1554.01 Q1771.15 1552.03 1771.15 1550.13 Q1771.15 1547.03 1768.96 1545.08 Q1766.8 1543.12 1763.31 1543.12 Q1760.84 1543.12 1758.08 1543.98 Q1755.34 1544.84 1752.22 1546.59 L1752.22 1541.27 Q1755.4 1540 1758.16 1539.35 Q1760.92 1538.7 1763.21 1538.7 Q1769.25 1538.7 1772.84 1541.72 Q1776.44 1544.74 1776.44 1549.79 Q1776.44 1552.19 1775.53 1554.35 Q1774.64 1556.48 1772.27 1559.4 Q1771.62 1560.15 1768.13 1563.77 Q1764.64 1567.37 1758.29 1573.85 Z" fill="#000000" fill-rule="nonzero" fill-opacity="1" /><path clip-path="url(#clip390)" d="M1798.94 1542.86 Q1794.87 1542.86 1792.82 1546.87 Q1790.79 1550.86 1790.79 1558.88 Q1790.79 1566.87 1792.82 1570.88 Q1794.87 1574.87 1798.94 1574.87 Q1803.03 1574.87 1805.06 1570.88 Q1807.11 1566.87 1807.11 1558.88 Q1807.11 1550.86 1805.06 1546.87 Q1803.03 1542.86 1798.94 1542.86 M1798.94 1538.7 Q1805.47 1538.7 1808.91 1543.88 Q1812.37 1549.04 1812.37 1558.88 Q1812.37 1568.7 1808.91 1573.88 Q1805.47 1579.04 1798.94 1579.04 Q1792.4 1579.04 1788.94 1573.88 Q1785.5 1568.7 1785.5 1558.88 Q1785.5 1549.04 1788.94 1543.88 Q1792.4 1538.7 1798.94 1538.7 Z" fill="#000000" fill-rule="nonzero" fill-opacity="1" /><path clip-path="url(#clip390)" d="M1826.15 1573.85 L1844.51 1573.85 L1844.51 1578.28 L1819.82 1578.28 L1819.82 1573.85 Q1822.82 1570.75 1827.97 1565.55 Q1833.16 1560.31 1834.48 1558.8 Q1837.01 1555.96 1838 1554.01 Q1839.01 1552.03 1839.01 1550.13 Q1839.01 1547.03 1836.83 1545.08 Q1834.67 1543.12 1831.18 1543.12 Q1828.7 1543.12 1825.94 1543.98 Q1823.21 1544.84 1820.08 1546.59 L1820.08 1541.27 Q1823.26 1540 1826.02 1539.35 Q1828.78 1538.7 1831.07 1538.7 Q1837.11 1538.7 1840.71 1541.72 Q1844.3 1544.74 1844.3 1549.79 Q1844.3 1552.19 1843.39 1554.35 Q1842.5 1556.48 1840.13 1559.4 Q1839.48 1560.15 1835.99 1563.77 Q1832.5 1567.37 1826.15 1573.85 Z" fill="#000000" fill-rule="nonzero" fill-opacity="1" /><path clip-path="url(#clip390)" d="M1871.49 1557.32 Q1875.26 1558.12 1877.37 1560.68 Q1879.51 1563.23 1879.51 1566.98 Q1879.51 1572.73 1875.55 1575.88 Q1871.59 1579.04 1864.3 1579.04 Q1861.85 1579.04 1859.25 1578.54 Q1856.67 1578.07 1853.91 1577.11 L1853.91 1572.03 Q1856.1 1573.31 1858.7 1573.96 Q1861.31 1574.61 1864.14 1574.61 Q1869.09 1574.61 1871.67 1572.65 Q1874.27 1570.7 1874.27 1566.98 Q1874.27 1563.54 1871.85 1561.61 Q1869.46 1559.66 1865.16 1559.66 L1860.63 1559.66 L1860.63 1555.34 L1865.37 1555.34 Q1869.25 1555.34 1871.31 1553.8 Q1873.36 1552.24 1873.36 1549.32 Q1873.36 1546.33 1871.23 1544.74 Q1869.12 1543.12 1865.16 1543.12 Q1863 1543.12 1860.52 1543.59 Q1858.05 1544.06 1855.08 1545.05 L1855.08 1540.36 Q1858.08 1539.53 1860.68 1539.11 Q1863.31 1538.7 1865.63 1538.7 Q1871.62 1538.7 1875.11 1541.43 Q1878.6 1544.14 1878.6 1548.77 Q1878.6 1552 1876.75 1554.24 Q1874.9 1556.46 1871.49 1557.32 Z" fill="#000000" fill-rule="nonzero" fill-opacity="1" /><path clip-path="url(#clip390)" d="M1886.38 1561.54 L1900.42 1561.54 L1900.42 1565.81 L1886.38 1565.81 L1886.38 1561.54 Z" fill="#000000" fill-rule="nonzero" fill-opacity="1" /><path clip-path="url(#clip390)" d="M1919.98 1542.86 Q1915.92 1542.86 1913.86 1546.87 Q1911.83 1550.86 1911.83 1558.88 Q1911.83 1566.87 1913.86 1570.88 Q1915.92 1574.87 1919.98 1574.87 Q1924.07 1574.87 1926.1 1570.88 Q1928.15 1566.87 1928.15 1558.88 Q1928.15 1550.86 1926.1 1546.87 Q1924.07 1542.86 1919.98 1542.86 M1919.98 1538.7 Q1926.51 1538.7 1929.95 1543.88 Q1933.41 1549.04 1933.41 1558.88 Q1933.41 1568.7 1929.95 1573.88 Q1926.51 1579.04 1919.98 1579.04 Q1913.44 1579.04 1909.98 1573.88 Q1906.54 1568.7 1906.54 1558.88 Q1906.54 1549.04 1909.98 1543.88 Q1913.44 1538.7 1919.98 1538.7 Z" fill="#000000" fill-rule="nonzero" fill-opacity="1" /><path clip-path="url(#clip390)" d="M1958.6 1557.32 Q1962.37 1558.12 1964.48 1560.68 Q1966.62 1563.23 1966.62 1566.98 Q1966.62 1572.73 1962.66 1575.88 Q1958.7 1579.04 1951.41 1579.04 Q1948.96 1579.04 1946.36 1578.54 Q1943.78 1578.07 1941.02 1577.11 L1941.02 1572.03 Q1943.21 1573.31 1945.81 1573.96 Q1948.41 1574.61 1951.25 1574.61 Q1956.2 1574.61 1958.78 1572.65 Q1961.38 1570.7 1961.38 1566.98 Q1961.38 1563.54 1958.96 1561.61 Q1956.57 1559.66 1952.27 1559.66 L1947.74 1559.66 L1947.74 1555.34 L1952.48 1555.34 Q1956.36 1555.34 1958.41 1553.8 Q1960.47 1552.24 1960.47 1549.32 Q1960.47 1546.33 1958.34 1544.74 Q1956.23 1543.12 1952.27 1543.12 Q1950.11 1543.12 1947.63 1543.59 Q1945.16 1544.06 1942.19 1545.05 L1942.19 1540.36 Q1945.19 1539.53 1947.79 1539.11 Q1950.42 1538.7 1952.74 1538.7 Q1958.73 1538.7 1962.22 1541.43 Q1965.71 1544.14 1965.71 1548.77 Q1965.71 1552 1963.86 1554.24 Q1962.01 1556.46 1958.6 1557.32 Z" fill="#000000" fill-rule="nonzero" fill-opacity="1" /><path clip-path="url(#clip390)" d="M1973.49 1561.54 L1987.53 1561.54 L1987.53 1565.81 L1973.49 1565.81 L1973.49 1561.54 Z" fill="#000000" fill-rule="nonzero" fill-opacity="1" /><path clip-path="url(#clip390)" d="M2007.09 1542.86 Q2003.02 1542.86 2000.97 1546.87 Q1998.94 1550.86 1998.94 1558.88 Q1998.94 1566.87 2000.97 1570.88 Q2003.02 1574.87 2007.09 1574.87 Q2011.17 1574.87 2013.21 1570.88 Q2015.26 1566.87 2015.26 1558.88 Q2015.26 1550.86 2013.21 1546.87 Q2011.17 1542.86 2007.09 1542.86 M2007.09 1538.7 Q2013.62 1538.7 2017.06 1543.88 Q2020.52 1549.04 2020.52 1558.88 Q2020.52 1568.7 2017.06 1573.88 Q2013.62 1579.04 2007.09 1579.04 Q2000.55 1579.04 1997.09 1573.88 Q1993.65 1568.7 1993.65 1558.88 Q1993.65 1549.04 1997.09 1543.88 Q2000.55 1538.7 2007.09 1538.7 Z" fill="#000000" fill-rule="nonzero" fill-opacity="1" /><path clip-path="url(#clip390)" d="M2045.71 1557.32 Q2049.48 1558.12 2051.59 1560.68 Q2053.73 1563.23 2053.73 1566.98 Q2053.73 1572.73 2049.77 1575.88 Q2045.81 1579.04 2038.52 1579.04 Q2036.07 1579.04 2033.47 1578.54 Q2030.89 1578.07 2028.13 1577.11 L2028.13 1572.03 Q2030.32 1573.31 2032.92 1573.96 Q2035.52 1574.61 2038.36 1574.61 Q2043.31 1574.61 2045.89 1572.65 Q2048.49 1570.7 2048.49 1566.98 Q2048.49 1563.54 2046.07 1561.61 Q2043.67 1559.66 2039.38 1559.66 L2034.85 1559.66 L2034.85 1555.34 L2039.59 1555.34 Q2043.47 1555.34 2045.52 1553.8 Q2047.58 1552.24 2047.58 1549.32 Q2047.58 1546.33 2045.45 1544.74 Q2043.34 1543.12 2039.38 1543.12 Q2037.22 1543.12 2034.74 1543.59 Q2032.27 1544.06 2029.3 1545.05 L2029.3 1540.36 Q2032.29 1539.53 2034.9 1539.11 Q2037.53 1538.7 2039.85 1538.7 Q2045.84 1538.7 2049.33 1541.43 Q2052.82 1544.14 2052.82 1548.77 Q2052.82 1552 2050.97 1554.24 Q2049.12 1556.46 2045.71 1557.32 Z" fill="#000000" fill-rule="nonzero" fill-opacity="1" /><path clip-path="url(#clip390)" d="M2565.26 1573.85 L2583.62 1573.85 L2583.62 1578.28 L2558.93 1578.28 L2558.93 1573.85 Q2561.93 1570.75 2567.08 1565.55 Q2572.27 1560.31 2573.59 1558.8 Q2576.12 1555.96 2577.11 1554.01 Q2578.12 1552.03 2578.12 1550.13 Q2578.12 1547.03 2575.94 1545.08 Q2573.78 1543.12 2570.29 1543.12 Q2567.81 1543.12 2565.05 1543.98 Q2562.32 1544.84 2559.19 1546.59 L2559.19 1541.27 Q2562.37 1540 2565.13 1539.35 Q2567.89 1538.7 2570.18 1538.7 Q2576.22 1538.7 2579.82 1541.72 Q2583.41 1544.74 2583.41 1549.79 Q2583.41 1552.19 2582.5 1554.35 Q2581.61 1556.48 2579.24 1559.4 Q2578.59 1560.15 2575.1 1563.77 Q2571.61 1567.37 2565.26 1573.85 Z" fill="#000000" fill-rule="nonzero" fill-opacity="1" /><path clip-path="url(#clip390)" d="M2605.91 1542.86 Q2601.85 1542.86 2599.79 1546.87 Q2597.76 1550.86 2597.76 1558.88 Q2597.76 1566.87 2599.79 1570.88 Q2601.85 1574.87 2605.91 1574.87 Q2610 1574.87 2612.03 1570.88 Q2614.09 1566.87 2614.09 1558.88 Q2614.09 1550.86 2612.03 1546.87 Q2610 1542.86 2605.91 1542.86 M2605.91 1538.7 Q2612.45 1538.7 2615.88 1543.88 Q2619.35 1549.04 2619.35 1558.88 Q2619.35 1568.7 2615.88 1573.88 Q2612.45 1579.04 2605.91 1579.04 Q2599.37 1579.04 2595.91 1573.88 Q2592.47 1568.7 2592.47 1558.88 Q2592.47 1549.04 2595.91 1543.88 Q2599.37 1538.7 2605.91 1538.7 Z" fill="#000000" fill-rule="nonzero" fill-opacity="1" /><path clip-path="url(#clip390)" d="M2633.12 1573.85 L2651.48 1573.85 L2651.48 1578.28 L2626.8 1578.28 L2626.8 1573.85 Q2629.79 1570.75 2634.95 1565.55 Q2640.13 1560.31 2641.46 1558.8 Q2643.98 1555.96 2644.97 1554.01 Q2645.99 1552.03 2645.99 1550.13 Q2645.99 1547.03 2643.8 1545.08 Q2641.64 1543.12 2638.15 1543.12 Q2635.68 1543.12 2632.92 1543.98 Q2630.18 1544.84 2627.06 1546.59 L2627.06 1541.27 Q2630.23 1540 2632.99 1539.35 Q2635.75 1538.7 2638.05 1538.7 Q2644.09 1538.7 2647.68 1541.72 Q2651.28 1544.74 2651.28 1549.79 Q2651.28 1552.19 2650.36 1554.35 Q2649.48 1556.48 2647.11 1559.4 Q2646.46 1560.15 2642.97 1563.77 Q2639.48 1567.37 2633.12 1573.85 Z" fill="#000000" fill-rule="nonzero" fill-opacity="1" /><path clip-path="url(#clip390)" d="M2678.46 1557.32 Q2682.24 1558.12 2684.35 1560.68 Q2686.48 1563.23 2686.48 1566.98 Q2686.48 1572.73 2682.53 1575.88 Q2678.57 1579.04 2671.28 1579.04 Q2668.83 1579.04 2666.22 1578.54 Q2663.65 1578.07 2660.88 1577.11 L2660.88 1572.03 Q2663.07 1573.31 2665.68 1573.96 Q2668.28 1574.61 2671.12 1574.61 Q2676.07 1574.61 2678.64 1572.65 Q2681.25 1570.7 2681.25 1566.98 Q2681.25 1563.54 2678.83 1561.61 Q2676.43 1559.66 2672.13 1559.66 L2667.6 1559.66 L2667.6 1555.34 L2672.34 1555.34 Q2676.22 1555.34 2678.28 1553.8 Q2680.34 1552.24 2680.34 1549.32 Q2680.34 1546.33 2678.2 1544.74 Q2676.09 1543.12 2672.13 1543.12 Q2669.97 1543.12 2667.5 1543.59 Q2665.03 1544.06 2662.06 1545.05 L2662.06 1540.36 Q2665.05 1539.53 2667.66 1539.11 Q2670.29 1538.7 2672.6 1538.7 Q2678.59 1538.7 2682.08 1541.43 Q2685.57 1544.14 2685.57 1548.77 Q2685.57 1552 2683.72 1554.24 Q2681.87 1556.46 2678.46 1557.32 Z" fill="#000000" fill-rule="nonzero" fill-opacity="1" /><path clip-path="url(#clip390)" d="M2693.36 1561.54 L2707.39 1561.54 L2707.39 1565.81 L2693.36 1565.81 L2693.36 1561.54 Z" fill="#000000" fill-rule="nonzero" fill-opacity="1" /><path clip-path="url(#clip390)" d="M2726.95 1542.86 Q2722.89 1542.86 2720.83 1546.87 Q2718.8 1550.86 2718.8 1558.88 Q2718.8 1566.87 2720.83 1570.88 Q2722.89 1574.87 2726.95 1574.87 Q2731.04 1574.87 2733.07 1570.88 Q2735.13 1566.87 2735.13 1558.88 Q2735.13 1550.86 2733.07 1546.87 Q2731.04 1542.86 2726.95 1542.86 M2726.95 1538.7 Q2733.49 1538.7 2736.93 1543.88 Q2740.39 1549.04 2740.39 1558.88 Q2740.39 1568.7 2736.93 1573.88 Q2733.49 1579.04 2726.95 1579.04 Q2720.42 1579.04 2716.95 1573.88 Q2713.51 1568.7 2713.51 1558.88 Q2713.51 1549.04 2716.95 1543.88 Q2720.42 1538.7 2726.95 1538.7 Z" fill="#000000" fill-rule="nonzero" fill-opacity="1" /><path clip-path="url(#clip390)" d="M2765.57 1557.32 Q2769.35 1558.12 2771.46 1560.68 Q2773.59 1563.23 2773.59 1566.98 Q2773.59 1572.73 2769.63 1575.88 Q2765.68 1579.04 2758.38 1579.04 Q2755.94 1579.04 2753.33 1578.54 Q2750.75 1578.07 2747.99 1577.11 L2747.99 1572.03 Q2750.18 1573.31 2752.79 1573.96 Q2755.39 1574.61 2758.23 1574.61 Q2763.18 1574.61 2765.75 1572.65 Q2768.36 1570.7 2768.36 1566.98 Q2768.36 1563.54 2765.94 1561.61 Q2763.54 1559.66 2759.24 1559.66 L2754.71 1559.66 L2754.71 1555.34 L2759.45 1555.34 Q2763.33 1555.34 2765.39 1553.8 Q2767.45 1552.24 2767.45 1549.32 Q2767.45 1546.33 2765.31 1544.74 Q2763.2 1543.12 2759.24 1543.12 Q2757.08 1543.12 2754.61 1543.59 Q2752.13 1544.06 2749.17 1545.05 L2749.17 1540.36 Q2752.16 1539.53 2754.76 1539.11 Q2757.39 1538.7 2759.71 1538.7 Q2765.7 1538.7 2769.19 1541.43 Q2772.68 1544.14 2772.68 1548.77 Q2772.68 1552 2770.83 1554.24 Q2768.98 1556.46 2765.57 1557.32 Z" fill="#000000" fill-rule="nonzero" fill-opacity="1" /><path clip-path="url(#clip390)" d="M2780.47 1561.54 L2794.5 1561.54 L2794.5 1565.81 L2780.47 1565.81 L2780.47 1561.54 Z" fill="#000000" fill-rule="nonzero" fill-opacity="1" /><path clip-path="url(#clip390)" d="M2814.06 1542.86 Q2810 1542.86 2807.94 1546.87 Q2805.91 1550.86 2805.91 1558.88 Q2805.91 1566.87 2807.94 1570.88 Q2810 1574.87 2814.06 1574.87 Q2818.15 1574.87 2820.18 1570.88 Q2822.24 1566.87 2822.24 1558.88 Q2822.24 1550.86 2820.18 1546.87 Q2818.15 1542.86 2814.06 1542.86 M2814.06 1538.7 Q2820.6 1538.7 2824.03 1543.88 Q2827.5 1549.04 2827.5 1558.88 Q2827.5 1568.7 2824.03 1573.88 Q2820.6 1579.04 2814.06 1579.04 Q2807.52 1579.04 2804.06 1573.88 Q2800.62 1568.7 2800.62 1558.88 Q2800.62 1549.04 2804.06 1543.88 Q2807.52 1538.7 2814.06 1538.7 Z" fill="#000000" fill-rule="nonzero" fill-opacity="1" /><path clip-path="url(#clip390)" d="M2836.8 1539.4 L2857.45 1539.4 L2857.45 1543.83 L2841.61 1543.83 L2841.61 1553.36 Q2842.76 1552.97 2843.9 1552.79 Q2845.05 1552.58 2846.2 1552.58 Q2852.71 1552.58 2856.51 1556.14 Q2860.31 1559.71 2860.31 1565.81 Q2860.31 1572.08 2856.4 1575.57 Q2852.5 1579.04 2845.39 1579.04 Q2842.94 1579.04 2840.39 1578.62 Q2837.86 1578.2 2835.15 1577.37 L2835.15 1572.08 Q2837.5 1573.36 2840 1573.98 Q2842.5 1574.61 2845.28 1574.61 Q2849.79 1574.61 2852.42 1572.24 Q2855.05 1569.87 2855.05 1565.81 Q2855.05 1561.74 2852.42 1559.37 Q2849.79 1557 2845.28 1557 Q2843.18 1557 2841.07 1557.47 Q2838.98 1557.94 2836.8 1558.93 L2836.8 1539.4 Z" fill="#000000" fill-rule="nonzero" fill-opacity="1" /><polyline clip-path="url(#clip392)" style="stroke:#000000; stroke-linecap:round; stroke-linejoin:round; stroke-width:2; stroke-opacity:0.1; fill:none" points="205.077,1283.15 3180.41,1283.15 "/>
<polyline clip-path="url(#clip392)" style="stroke:#000000; stroke-linecap:round; stroke-linejoin:round; stroke-width:2; stroke-opacity:0.1; fill:none" points="205.077,1004.37 3180.41,1004.37 "/>
<polyline clip-path="url(#clip392)" style="stroke:#000000; stroke-linecap:round; stroke-linejoin:round; stroke-width:2; stroke-opacity:0.1; fill:none" points="205.077,725.589 3180.41,725.589 "/>
<polyline clip-path="url(#clip392)" style="stroke:#000000; stroke-linecap:round; stroke-linejoin:round; stroke-width:2; stroke-opacity:0.1; fill:none" points="205.077,446.807 3180.41,446.807 "/>
<polyline clip-path="url(#clip392)" style="stroke:#000000; stroke-linecap:round; stroke-linejoin:round; stroke-width:2; stroke-opacity:0.1; fill:none" points="205.077,168.026 3180.41,168.026 "/>
<polyline clip-path="url(#clip390)" style="stroke:#000000; stroke-linecap:round; stroke-linejoin:round; stroke-width:4; stroke-opacity:1; fill:none" points="205.077,1497.68 205.077,47.2441 "/>
<polyline clip-path="url(#clip390)" style="stroke:#000000; stroke-linecap:round; stroke-linejoin:round; stroke-width:4; stroke-opacity:1; fill:none" points="205.077,1283.15 220.08,1283.15 "/>
<polyline clip-path="url(#clip390)" style="stroke:#000000; stroke-linecap:round; stroke-linejoin:round; stroke-width:4; stroke-opacity:1; fill:none" points="205.077,1004.37 220.08,1004.37 "/>
<polyline clip-path="url(#clip390)" style="stroke:#000000; stroke-linecap:round; stroke-linejoin:round; stroke-width:4; stroke-opacity:1; fill:none" points="205.077,725.589 220.08,725.589 "/>
<polyline clip-path="url(#clip390)" style="stroke:#000000; stroke-linecap:round; stroke-linejoin:round; stroke-width:4; stroke-opacity:1; fill:none" points="205.077,446.807 220.08,446.807 "/>
<polyline clip-path="url(#clip390)" style="stroke:#000000; stroke-linecap:round; stroke-linejoin:round; stroke-width:4; stroke-opacity:1; fill:none" points="205.077,168.026 220.08,168.026 "/>
<path clip-path="url(#clip390)" d="M88.4883 1298.17 L97.082 1298.17 L97.082 1268.5 L87.7331 1270.38 L87.7331 1265.59 L97.0299 1263.71 L102.29 1263.71 L102.29 1298.17 L110.884 1298.17 L110.884 1302.59 L88.4883 1302.59 L88.4883 1298.17 Z" fill="#000000" fill-rule="nonzero" fill-opacity="1" /><path clip-path="url(#clip390)" d="M121.561 1263.71 L142.212 1263.71 L142.212 1268.14 L126.379 1268.14 L126.379 1277.67 Q127.525 1277.28 128.67 1277.1 Q129.816 1276.89 130.962 1276.89 Q137.472 1276.89 141.274 1280.46 Q145.077 1284.02 145.077 1290.12 Q145.077 1296.39 141.17 1299.88 Q137.264 1303.35 130.155 1303.35 Q127.707 1303.35 125.155 1302.93 Q122.629 1302.51 119.92 1301.68 L119.92 1296.39 Q122.264 1297.67 124.764 1298.3 Q127.264 1298.92 130.051 1298.92 Q134.556 1298.92 137.186 1296.55 Q139.816 1294.18 139.816 1290.12 Q139.816 1286.06 137.186 1283.69 Q134.556 1281.32 130.051 1281.32 Q127.941 1281.32 125.832 1281.79 Q123.748 1282.25 121.561 1283.24 L121.561 1263.71 Z" fill="#000000" fill-rule="nonzero" fill-opacity="1" /><path clip-path="url(#clip390)" d="M90.9882 1019.38 L109.348 1019.38 L109.348 1023.81 L84.6602 1023.81 L84.6602 1019.38 Q87.6549 1016.28 92.8112 1011.08 Q97.9934 1005.84 99.3215 1004.33 Q101.848 1001.49 102.837 999.54 Q103.853 997.561 103.853 995.66 Q103.853 992.561 101.665 990.608 Q99.5038 988.655 96.0143 988.655 Q93.5403 988.655 90.7799 989.514 Q88.0456 990.374 84.9206 992.118 L84.9206 986.806 Q88.0976 985.53 90.858 984.879 Q93.6184 984.228 95.9101 984.228 Q101.952 984.228 105.545 987.249 Q109.139 990.269 109.139 995.321 Q109.139 997.717 108.228 999.879 Q107.342 1002.01 104.973 1004.93 Q104.322 1005.69 100.832 1009.31 Q97.3424 1012.9 90.9882 1019.38 Z" fill="#000000" fill-rule="nonzero" fill-opacity="1" /><path clip-path="url(#clip390)" d="M131.639 988.394 Q127.577 988.394 125.519 992.405 Q123.488 996.389 123.488 1004.41 Q123.488 1012.4 125.519 1016.42 Q127.577 1020.4 131.639 1020.4 Q135.728 1020.4 137.759 1016.42 Q139.816 1012.4 139.816 1004.41 Q139.816 996.389 137.759 992.405 Q135.728 988.394 131.639 988.394 M131.639 984.228 Q138.175 984.228 141.613 989.41 Q145.077 994.566 145.077 1004.41 Q145.077 1014.23 141.613 1019.41 Q138.175 1024.57 131.639 1024.57 Q125.103 1024.57 121.639 1019.41 Q118.202 1014.23 118.202 1004.41 Q118.202 994.566 121.639 989.41 Q125.103 984.228 131.639 984.228 Z" fill="#000000" fill-rule="nonzero" fill-opacity="1" /><path clip-path="url(#clip390)" d="M92.108 740.602 L110.467 740.602 L110.467 745.029 L85.7799 745.029 L85.7799 740.602 Q88.7747 737.503 93.9309 732.295 Q99.1132 727.06 100.441 725.55 Q102.967 722.712 103.957 720.758 Q104.973 718.779 104.973 716.878 Q104.973 713.779 102.785 711.826 Q100.624 709.873 97.134 709.873 Q94.6601 709.873 91.8997 710.732 Q89.1653 711.592 86.0404 713.337 L86.0404 708.024 Q89.2174 706.748 91.9778 706.097 Q94.7382 705.446 97.0299 705.446 Q103.072 705.446 106.665 708.467 Q110.259 711.488 110.259 716.54 Q110.259 718.936 109.348 721.097 Q108.462 723.232 106.092 726.149 Q105.441 726.904 101.952 730.524 Q98.4622 734.118 92.108 740.602 Z" fill="#000000" fill-rule="nonzero" fill-opacity="1" /><path clip-path="url(#clip390)" d="M121.561 706.149 L142.212 706.149 L142.212 710.576 L126.379 710.576 L126.379 720.107 Q127.525 719.717 128.67 719.534 Q129.816 719.326 130.962 719.326 Q137.472 719.326 141.274 722.894 Q145.077 726.462 145.077 732.555 Q145.077 738.831 141.17 742.321 Q137.264 745.784 130.155 745.784 Q127.707 745.784 125.155 745.368 Q122.629 744.951 119.92 744.118 L119.92 738.831 Q122.264 740.107 124.764 740.732 Q127.264 741.357 130.051 741.357 Q134.556 741.357 137.186 738.988 Q139.816 736.618 139.816 732.555 Q139.816 728.493 137.186 726.123 Q134.556 723.753 130.051 723.753 Q127.941 723.753 125.832 724.222 Q123.748 724.691 121.561 725.68 L121.561 706.149 Z" fill="#000000" fill-rule="nonzero" fill-opacity="1" /><path clip-path="url(#clip390)" d="M102.394 445.284 Q106.17 446.091 108.28 448.643 Q110.415 451.195 110.415 454.945 Q110.415 460.701 106.457 463.852 Q102.499 467.003 95.207 467.003 Q92.7591 467.003 90.1549 466.508 Q87.5768 466.039 84.8164 465.076 L84.8164 459.997 Q87.0039 461.274 89.608 461.925 Q92.2122 462.576 95.0507 462.576 Q99.9986 462.576 102.577 460.622 Q105.181 458.669 105.181 454.945 Q105.181 451.508 102.759 449.581 Q100.363 447.628 96.0663 447.628 L91.5351 447.628 L91.5351 443.305 L96.2747 443.305 Q100.155 443.305 102.212 441.768 Q104.269 440.206 104.269 437.289 Q104.269 434.294 102.134 432.706 Q100.025 431.091 96.0663 431.091 Q93.9049 431.091 91.431 431.56 Q88.957 432.029 85.9883 433.018 L85.9883 428.331 Q88.9831 427.498 91.5872 427.081 Q94.2174 426.664 96.5351 426.664 Q102.525 426.664 106.014 429.399 Q109.504 432.107 109.504 436.742 Q109.504 439.972 107.655 442.211 Q105.806 444.425 102.394 445.284 Z" fill="#000000" fill-rule="nonzero" fill-opacity="1" /><path clip-path="url(#clip390)" d="M131.639 430.831 Q127.577 430.831 125.519 434.841 Q123.488 438.826 123.488 446.847 Q123.488 454.841 125.519 458.852 Q127.577 462.836 131.639 462.836 Q135.728 462.836 137.759 458.852 Q139.816 454.841 139.816 446.847 Q139.816 438.826 137.759 434.841 Q135.728 430.831 131.639 430.831 M131.639 426.664 Q138.175 426.664 141.613 431.847 Q145.077 437.003 145.077 446.847 Q145.077 456.664 141.613 461.846 Q138.175 467.003 131.639 467.003 Q125.103 467.003 121.639 461.846 Q118.202 456.664 118.202 446.847 Q118.202 437.003 121.639 431.847 Q125.103 426.664 131.639 426.664 Z" fill="#000000" fill-rule="nonzero" fill-opacity="1" /><path clip-path="url(#clip390)" d="M103.514 166.502 Q107.29 167.31 109.4 169.862 Q111.535 172.414 111.535 176.164 Q111.535 181.919 107.577 185.07 Q103.618 188.221 96.3268 188.221 Q93.8789 188.221 91.2747 187.726 Q88.6966 187.257 85.9362 186.294 L85.9362 181.216 Q88.1237 182.492 90.7278 183.143 Q93.332 183.794 96.1705 183.794 Q101.118 183.794 103.697 181.841 Q106.301 179.888 106.301 176.164 Q106.301 172.726 103.879 170.799 Q101.483 168.846 97.1861 168.846 L92.6549 168.846 L92.6549 164.523 L97.3945 164.523 Q101.275 164.523 103.332 162.987 Q105.389 161.424 105.389 158.508 Q105.389 155.513 103.254 153.924 Q101.144 152.31 97.1861 152.31 Q95.0247 152.31 92.5507 152.778 Q90.0768 153.247 87.1081 154.237 L87.1081 149.549 Q90.1028 148.716 92.707 148.299 Q95.3372 147.883 97.6549 147.883 Q103.644 147.883 107.134 150.617 Q110.624 153.325 110.624 157.961 Q110.624 161.19 108.775 163.429 Q106.926 165.643 103.514 166.502 Z" fill="#000000" fill-rule="nonzero" fill-opacity="1" /><path clip-path="url(#clip390)" d="M121.561 148.586 L142.212 148.586 L142.212 153.013 L126.379 153.013 L126.379 162.544 Q127.525 162.153 128.67 161.971 Q129.816 161.763 130.962 161.763 Q137.472 161.763 141.274 165.33 Q145.077 168.898 145.077 174.992 Q145.077 181.268 141.17 184.757 Q137.264 188.221 130.155 188.221 Q127.707 188.221 125.155 187.804 Q122.629 187.388 119.92 186.554 L119.92 181.268 Q122.264 182.544 124.764 183.169 Q127.264 183.794 130.051 183.794 Q134.556 183.794 137.186 181.424 Q139.816 179.054 139.816 174.992 Q139.816 170.929 137.186 168.56 Q134.556 166.19 130.051 166.19 Q127.941 166.19 125.832 166.659 Q123.748 167.127 121.561 168.117 L121.561 148.586 Z" fill="#000000" fill-rule="nonzero" fill-opacity="1" /><path clip-path="url(#clip390)" d="M-31.4998 930.013 L-31.4998 924.168 L11.7002 924.168 L11.7002 930.013 L-31.4998 930.013 Z" fill="#000000" fill-rule="nonzero" fill-opacity="1" /><path clip-path="url(#clip390)" d="M-7.85992 885.829 L11.7002 885.829 L11.7002 891.153 L-7.68631 891.153 Q-12.287 891.153 -14.5728 892.947 Q-16.8587 894.741 -16.8587 898.329 Q-16.8587 902.641 -14.1099 905.129 Q-11.3611 907.618 -6.61572 907.618 L11.7002 907.618 L11.7002 912.97 L-20.7071 912.97 L-20.7071 907.618 L-15.6724 907.618 Q-18.5948 905.708 -20.0416 903.133 Q-21.4883 900.528 -21.4883 897.143 Q-21.4883 891.559 -18.0161 888.694 Q-14.5728 885.829 -7.85992 885.829 Z" fill="#000000" fill-rule="nonzero" fill-opacity="1" /><path clip-path="url(#clip390)" d="M-33.3227 858.804 L-28.8957 858.804 L-28.8957 863.897 Q-28.8957 866.761 -27.7383 867.89 Q-26.5809 868.989 -23.5716 868.989 L-20.7071 868.989 L-20.7071 860.222 L-16.5694 860.222 L-16.5694 868.989 L11.7002 868.989 L11.7002 874.342 L-16.5694 874.342 L-16.5694 879.435 L-20.7071 879.435 L-20.7071 874.342 L-22.964 874.342 Q-28.3749 874.342 -30.8343 871.825 Q-33.3227 869.308 -33.3227 863.839 L-33.3227 858.804 Z" fill="#000000" fill-rule="nonzero" fill-opacity="1" /><path clip-path="url(#clip390)" d="M-33.3227 854.348 L-33.3227 849.024 L11.7002 849.024 L11.7002 854.348 L-33.3227 854.348 Z" fill="#000000" fill-rule="nonzero" fill-opacity="1" /><path clip-path="url(#clip390)" d="M-16.9745 825.326 Q-16.9745 829.609 -13.618 832.097 Q-10.2905 834.585 -4.47452 834.585 Q1.34142 834.585 4.69788 832.126 Q8.02541 829.638 8.02541 825.326 Q8.02541 821.073 4.66895 818.584 Q1.31248 816.096 -4.47452 816.096 Q-10.2326 816.096 -13.5891 818.584 Q-16.9745 821.073 -16.9745 825.326 M-21.4883 825.326 Q-21.4883 818.382 -16.9745 814.418 Q-12.4606 810.454 -4.47452 810.454 Q3.48261 810.454 8.02541 814.418 Q12.5393 818.382 12.5393 825.326 Q12.5393 832.3 8.02541 836.264 Q3.48261 840.199 -4.47452 840.199 Q-12.4606 840.199 -16.9745 836.264 Q-21.4883 832.3 -21.4883 825.326 Z" fill="#000000" fill-rule="nonzero" fill-opacity="1" /><path clip-path="url(#clip390)" d="M-20.7071 804.725 L-20.7071 799.4 L4.58214 792.745 L-20.7071 786.119 L-20.7071 779.84 L4.58214 773.185 L-20.7071 766.559 L-20.7071 761.235 L11.7002 769.713 L11.7002 775.992 L-14.8622 782.965 L11.7002 789.968 L11.7002 796.247 L-20.7071 804.725 Z" fill="#000000" fill-rule="nonzero" fill-opacity="1" /><path clip-path="url(#clip390)" d="M-33.3227 734.818 L-33.3227 722.549 L-29.185 722.549 L-29.185 729.493 L15.3749 729.493 L15.3749 722.549 L19.5126 722.549 L19.5126 734.818 L-33.3227 734.818 Z" fill="#000000" fill-rule="nonzero" fill-opacity="1" /><path clip-path="url(#clip390)" d="M-31.4998 710.975 L-31.4998 705.13 L6.7812 705.13 L6.7812 684.094 L11.7002 684.094 L11.7002 710.975 L-31.4998 710.975 Z" fill="#000000" fill-rule="nonzero" fill-opacity="1" /><path clip-path="url(#clip390)" d="M-31.4998 668.73 L-31.4998 663.811 L17.1978 678.857 L17.1978 683.776 L-31.4998 668.73 Z" fill="#000000" fill-rule="nonzero" fill-opacity="1" /><path clip-path="url(#clip390)" d="M-19.7522 637.567 L-14.7175 637.567 Q-15.8749 639.824 -16.4536 642.254 Q-17.0323 644.685 -17.0323 647.289 Q-17.0323 651.253 -15.8171 653.25 Q-14.6018 655.217 -12.1712 655.217 Q-10.3194 655.217 -9.2488 653.799 Q-8.20714 652.382 -7.25229 648.099 L-6.8472 646.276 Q-5.63193 640.605 -3.40393 638.232 Q-1.20487 635.831 2.75923 635.831 Q7.2731 635.831 9.90619 639.419 Q12.5393 642.978 12.5393 649.228 Q12.5393 651.832 12.0184 654.667 Q11.5265 657.474 10.5138 660.599 L5.01617 660.599 Q6.54972 657.648 7.33097 654.783 Q8.08328 651.919 8.08328 649.112 Q8.08328 645.35 6.81014 643.325 Q5.50806 641.299 3.16432 641.299 Q0.994196 641.299 -0.163205 642.775 Q-1.32061 644.222 -2.3912 649.17 L-2.82523 651.022 Q-3.86689 655.97 -6.00808 658.169 Q-8.17821 660.368 -11.9398 660.368 Q-16.5115 660.368 -18.9999 657.127 Q-21.4883 653.886 -21.4883 647.926 Q-21.4883 644.974 -21.0543 642.37 Q-20.6203 639.766 -19.7522 637.567 Z" fill="#000000" fill-rule="nonzero" fill-opacity="1" /><path clip-path="url(#clip390)" d="M-33.3227 614.911 L19.5126 614.911 L19.5126 627.179 L15.3749 627.179 L15.3749 620.264 L-29.185 620.264 L-29.185 627.179 L-33.3227 627.179 L-33.3227 614.911 Z" fill="#000000" fill-rule="nonzero" fill-opacity="1" /><polyline clip-path="url(#clip392)" style="stroke:#023eff; stroke-linecap:round; stroke-linejoin:round; stroke-width:5; stroke-opacity:1; fill:none" points="289.284,1100.92 306.092,1224.06 322.9,1283.59 339.708,1348.73 356.516,1348.73 373.324,1299.75 390.131,1224.06 406.939,634.149 423.747,344.73 440.555,504.495 457.363,254.39 474.171,403.98 490.979,403.98 507.787,403.98 524.595,522.416 541.403,522.416 558.21,590.534 575.018,590.534 591.826,585.121 608.634,403.98 625.442,522.416 642.25,590.534 659.058,780.936 675.866,982.199 692.674,1104.88 709.482,1248.9 726.289,1315.76 743.097,1352.1 759.905,1352.1 776.713,1315.76 793.521,1100.47 810.329,610.606 827.137,246.708 843.945,246.708 860.753,246.708 877.56,371.092 894.368,336.675 911.176,336.675 927.984,447.617 944.792,758.645 961.6,758.645 978.408,518.603 995.216,518.603 1012.02,434.617 1028.83,434.617 1045.64,518.603 1062.45,758.645 1079.26,973.902 1096.06,1283.11 1112.87,1289.56 1129.68,1414.51 1146.49,1456.63 1163.29,1456.63 1180.1,1377.44 1196.91,1100.47 1213.72,610.606 1230.53,449.351 1247.33,449.351 1264.14,544.061 1280.95,682.869 1297.76,682.869 1314.57,682.869 1331.37,747.466 1348.18,747.466 1364.99,747.466 1381.8,747.466 1398.61,747.466 1415.41,747.466 1432.22,747.466 1449.03,747.466 1465.84,809.452 1482.64,973.902 1499.45,1283.11 1516.26,1289.56 1533.07,1414.51 1549.88,1456.63 1566.68,1456.63 1583.49,1377.44 1600.3,1100.47 1617.11,610.606 1633.92,449.351 1650.72,449.351 1667.53,544.061 1684.34,682.869 1701.15,682.869 1717.96,682.869 1734.76,747.466 1751.57,747.466 1768.38,747.466 1785.19,747.466 1801.99,747.466 1818.8,747.466 1835.61,747.466 1852.42,747.466 1869.23,747.466 1886.03,881.991 1902.84,1283.11 1919.65,1289.56 1936.46,1414.51 1953.27,1456.63 1970.07,1456.63 1986.88,1377.44 2003.69,1100.47 2020.5,616.886 2037.31,449.351 2054.11,449.351 2070.92,544.061 2087.73,682.869 2104.54,682.869 2121.34,682.869 2138.15,747.466 2154.96,747.466 2171.77,747.466 2188.58,747.466 2205.38,747.466 2222.19,747.466 2239,747.466 2255.81,747.466 2272.62,881.991 2289.42,881.991 2306.23,1283.11 2323.04,1289.56 2339.85,1414.51 2356.66,1456.63 2373.46,1456.63 2390.27,1377.44 2407.08,1236.76 2423.89,995.19 2440.69,637.381 2457.5,449.351 2474.31,544.061 2491.12,682.869 2507.93,682.869 2524.73,682.869 2541.54,823.849 2558.35,823.849 2575.16,823.849 2591.97,823.849 2608.77,823.849 2625.58,823.849 2642.39,823.849 2659.2,823.849 2676.01,945.873 2692.81,945.873 2709.62,1283.11 2726.43,1289.56 2743.24,1414.51 2760.05,1456.63 2776.85,1456.63 2793.66,1377.44 2810.47,1304.04 2827.28,1180.79 2844.08,807.867 2860.89,449.351 2877.7,544.061 2894.51,682.869 2911.32,682.869 2928.12,682.869 2944.93,823.849 2961.74,823.849 2978.55,823.849 2995.36,823.849 3012.16,823.849 3028.97,823.849 3045.78,823.849 3062.59,823.849 3079.4,945.873 3096.2,945.873 "/>
<polyline clip-path="url(#clip392)" style="stroke:#ff7c00; stroke-linecap:round; stroke-linejoin:round; stroke-width:5; stroke-opacity:1; fill:none" points="289.284,1110.68 306.092,1201.33 322.9,1331.53 339.708,1331.53 356.516,1331.53 373.324,1331.53 390.131,1257.48 406.939,697.43 423.747,321.021 440.555,261.87 457.363,261.87 474.171,378.054 490.979,434.969 507.787,378.054 524.595,489.023 541.403,490.069 558.21,604.603 575.018,604.603 591.826,490.069 608.634,378.054 625.442,490.069 642.25,490.069 659.058,697.43 675.866,965.373 692.674,1113 709.482,1269.07 726.289,1343.12 743.097,1343.12 759.905,1343.12 776.713,1343.12 793.521,1113 810.329,567.913 827.137,281.005 843.945,281.005 860.753,281.005 877.56,367.31 894.368,405.261 911.176,367.31 927.984,596.649 944.792,617.276 961.6,617.276 978.408,596.649 995.216,596.649 1012.02,476.829 1028.83,596.649 1045.64,596.649 1062.45,806.697 1079.26,959.937 1096.06,1113 1112.87,1269.07 1129.68,1343.12 1146.49,1395.77 1163.29,1343.12 1180.1,1269.07 1196.91,1193.43 1213.72,567.913 1230.53,281.005 1247.33,281.005 1264.14,281.005 1280.95,367.31 1297.76,367.31 1314.57,367.31 1331.37,476.829 1348.18,596.649 1364.99,596.649 1381.8,596.649 1398.61,596.649 1415.41,476.829 1432.22,476.829 1449.03,596.649 1465.84,806.697 1482.64,959.937 1499.45,1113 1516.26,1193.43 1533.07,1269.07 1549.88,1343.12 1566.68,1343.12 1583.49,1269.07 1600.3,1113 1617.11,567.913 1633.92,281.005 1650.72,281.005 1667.53,281.005 1684.34,367.31 1701.15,500.002 1717.96,500.002 1734.76,555.834 1751.57,690.571 1768.38,690.571 1785.19,596.649 1801.99,596.649 1818.8,476.829 1835.61,476.829 1852.42,596.649 1869.23,806.697 1886.03,806.697 1902.84,1113 1919.65,1193.43 1936.46,1269.07 1953.27,1343.12 1970.07,1343.12 1986.88,1269.07 2003.69,1113 2020.5,567.913 2037.31,281.005 2054.11,360.387 2070.92,360.387 2087.73,500.002 2104.54,500.002 2121.34,500.002 2138.15,555.834 2154.96,555.834 2171.77,555.834 2188.58,690.571 2205.38,631.583 2222.19,555.834 2239,476.829 2255.81,713.937 2272.62,806.697 2289.42,806.697 2306.23,1113 2323.04,1269.07 2339.85,1269.07 2356.66,1343.12 2373.46,1343.12 2390.27,1269.07 2407.08,1193.43 2423.89,1037.3 2440.69,544.612 2457.5,360.387 2474.31,360.387 2491.12,500.002 2507.93,500.002 2524.73,500.002 2541.54,555.834 2558.35,555.834 2575.16,690.571 2591.97,690.571 2608.77,690.571 2625.58,690.571 2642.39,690.571 2659.2,793.568 2676.01,882.822 2692.81,806.697 2709.62,1113 2726.43,1193.43 2743.24,1269.07 2760.05,1343.12 2776.85,1343.12 2793.66,1269.07 2810.47,1269.07 2827.28,1181.09 2844.08,544.612 2860.89,281.005 2877.7,360.387 2894.51,500.002 2911.32,500.002 2928.12,500.002 2944.93,555.834 2961.74,690.571 2978.55,690.571 2995.36,690.571 3012.16,631.583 3028.97,476.829 3045.78,596.649 3062.59,596.649 3079.4,806.697 3096.2,959.937 "/>
<polyline clip-path="url(#clip392)" style="stroke:#1ac938; stroke-linecap:round; stroke-linejoin:round; stroke-width:5; stroke-opacity:1; fill:none" points="289.284,1103.22 306.092,1258.01 322.9,1316.58 339.708,1316.58 356.516,1316.58 373.324,1316.58 390.131,1249.14 406.939,1104.38 423.747,266.467 440.555,218.873 457.363,218.873 474.171,282.512 490.979,447.378 507.787,419.406 524.595,419.406 541.403,579.515 558.21,555.644 575.018,694.759 591.826,579.515 608.634,419.406 625.442,482.584 642.25,579.515 659.058,694.759 675.866,932.817 692.674,1103.22 709.482,1243.43 726.289,1324.13 743.097,1324.13 759.905,1324.13 776.713,1324.13 793.521,1103.22 810.329,560.481 827.137,237.77 843.945,237.77 860.753,237.77 877.56,384.145 894.368,440.372 911.176,384.145 927.984,574.451 944.792,649.223 961.6,754.443 978.408,574.451 995.216,574.451 1012.02,430.77 1028.83,574.451 1045.64,574.451 1062.45,754.443 1079.26,944.174 1096.06,1103.22 1112.87,1243.43 1129.68,1324.13 1146.49,1324.13 1163.29,1324.13 1180.1,1324.13 1196.91,1103.22 1213.72,560.481 1230.53,237.77 1247.33,237.77 1264.14,237.77 1280.95,384.145 1297.76,440.372 1314.57,384.145 1331.37,469.609 1348.18,574.451 1364.99,649.223 1381.8,649.223 1398.61,574.451 1415.41,430.77 1432.22,430.77 1449.03,574.451 1465.84,754.443 1482.64,944.174 1499.45,1103.22 1516.26,1243.43 1533.07,1324.13 1549.88,1324.13 1566.68,1324.13 1583.49,1324.13 1600.3,1103.22 1617.11,560.481 1633.92,237.77 1650.72,237.77 1667.53,237.77 1684.34,384.145 1701.15,384.145 1717.96,440.372 1734.76,469.609 1751.57,574.451 1768.38,649.223 1785.19,574.451 1801.99,574.451 1818.8,430.77 1835.61,430.77 1852.42,574.451 1869.23,771.947 1886.03,944.174 1902.84,1103.22 1919.65,1243.43 1936.46,1324.13 1953.27,1324.13 1970.07,1324.13 1986.88,1324.13 2003.69,1103.22 2020.5,560.481 2037.31,237.77 2054.11,237.77 2070.92,237.77 2087.73,384.145 2104.54,384.145 2121.34,384.145 2138.15,469.609 2154.96,561.387 2171.77,574.451 2188.58,649.223 2205.38,574.451 2222.19,430.77 2239,430.77 2255.81,649.223 2272.62,944.174 2289.42,944.174 2306.23,1103.22 2323.04,1243.43 2339.85,1324.13 2356.66,1324.13 2373.46,1324.13 2390.27,1324.13 2407.08,1216.86 2423.89,944.174 2440.69,560.481 2457.5,237.77 2474.31,237.77 2491.12,384.145 2507.93,440.372 2524.73,384.145 2541.54,469.609 2558.35,574.451 2575.16,649.223 2591.97,649.223 2608.77,649.223 2625.58,649.223 2642.39,649.223 2659.2,754.443 2676.01,944.174 2692.81,944.174 2709.62,1103.22 2726.43,1243.43 2743.24,1324.13 2760.05,1324.13 2776.85,1324.13 2793.66,1324.13 2810.47,1216.86 2827.28,1216.86 2844.08,754.443 2860.89,371.377 2877.7,371.377 2894.51,384.145 2911.32,384.145 2928.12,440.372 2944.93,574.451 2961.74,574.451 2978.55,649.223 2995.36,649.223 3012.16,574.451 3028.97,430.77 3045.78,574.451 3062.59,649.223 3079.4,754.443 3096.2,944.174 "/>
<polyline clip-path="url(#clip392)" style="stroke:#e8000b; stroke-linecap:round; stroke-linejoin:round; stroke-width:5; stroke-opacity:1; fill:none" points="289.284,1108.08 306.092,1307.51 322.9,1307.51 339.708,1307.51 356.516,1307.51 373.324,1307.51 390.131,1108.08 406.939,721.389 423.747,246.085 440.555,246.085 457.363,246.085 474.171,410.287 490.979,410.287 507.787,410.287 524.595,410.287 541.403,576.357 558.21,576.357 575.018,721.389 591.826,576.357 608.634,410.287 625.442,410.287 642.25,576.357 659.058,721.389 675.866,906.853 692.674,1108.08 709.482,1307.51 726.289,1307.51 743.097,1307.51 759.905,1307.51 776.713,1307.51 793.521,1108.08 810.329,721.389 827.137,246.085 843.945,246.085 860.753,246.085 877.56,410.287 894.368,576.357 911.176,410.287 927.984,576.357 944.792,721.389 961.6,721.389 978.408,576.357 995.216,576.357 1012.02,576.357 1028.83,576.357 1045.64,576.357 1062.45,721.389 1079.26,906.853 1096.06,1108.08 1112.87,1307.51 1129.68,1307.51 1146.49,1307.51 1163.29,1307.51 1180.1,1307.51 1196.91,1108.08 1213.72,721.389 1230.53,246.085 1247.33,246.085 1264.14,246.085 1280.95,410.287 1297.76,410.287 1314.57,410.287 1331.37,576.357 1348.18,576.357 1364.99,576.357 1381.8,576.357 1398.61,576.357 1415.41,410.287 1432.22,410.287 1449.03,576.357 1465.84,721.389 1482.64,906.853 1499.45,1108.08 1516.26,1108.08 1533.07,1307.51 1549.88,1307.51 1566.68,1307.51 1583.49,1307.51 1600.3,1108.08 1617.11,576.357 1633.92,246.085 1650.72,246.085 1667.53,246.085 1684.34,410.287 1701.15,410.287 1717.96,410.287 1734.76,410.287 1751.57,576.357 1768.38,576.357 1785.19,576.357 1801.99,576.357 1818.8,410.287 1835.61,576.357 1852.42,576.357 1869.23,721.389 1886.03,906.853 1902.84,1108.08 1919.65,1307.51 1936.46,1307.51 1953.27,1307.51 1970.07,1307.51 1986.88,1307.51 2003.69,1108.08 2020.5,576.357 2037.31,246.085 2054.11,246.085 2070.92,246.085 2087.73,410.287 2104.54,410.287 2121.34,410.287 2138.15,576.357 2154.96,576.357 2171.77,576.357 2188.58,576.357 2205.38,576.357 2222.19,576.357 2239,576.357 2255.81,721.389 2272.62,906.853 2289.42,906.853 2306.23,1108.08 2323.04,1307.51 2339.85,1307.51 2356.66,1307.51 2373.46,1307.51 2390.27,1307.51 2407.08,1307.51 2423.89,1108.08 2440.69,576.357 2457.5,246.085 2474.31,246.085 2491.12,410.287 2507.93,410.287 2524.73,410.287 2541.54,410.287 2558.35,576.357 2575.16,721.389 2591.97,576.357 2608.77,576.357 2625.58,576.357 2642.39,721.389 2659.2,721.389 2676.01,906.853 2692.81,906.853 2709.62,1108.08 2726.43,1108.08 2743.24,1307.51 2760.05,1307.51 2776.85,1307.51 2793.66,1307.51 2810.47,1307.51 2827.28,1108.08 2844.08,721.389 2860.89,246.085 2877.7,246.085 2894.51,410.287 2911.32,410.287 2928.12,410.287 2944.93,576.357 2961.74,576.357 2978.55,721.389 2995.36,721.389 3012.16,576.357 3028.97,576.357 3045.78,576.357 3062.59,576.357 3079.4,721.389 3096.2,906.853 "/>
<polyline clip-path="url(#clip392)" style="stroke:#000000; stroke-linecap:round; stroke-linejoin:round; stroke-width:6; stroke-opacity:1; fill:none" points="289.284,1124.8 306.092,1249.14 322.9,1353.96 339.708,1356.19 356.516,1333.89 373.324,1319.95 390.131,1081.87 406.939,495.315 423.747,244.412 440.555,276.193 457.363,405.548 474.171,358.155 490.979,412.796 507.787,471.898 524.595,564.453 541.403,669.833 558.21,621.882 575.018,661.469 591.826,556.647 608.634,367.076 625.442,485.279 642.25,472.455 659.058,796.957 675.866,926.87 692.674,1088.01 709.482,1249.14 726.289,1323.3 743.097,1317.72 759.905,1311.03 776.713,1270.33 793.521,1101.94 810.329,478.031 827.137,198.692 843.945,173.601 860.753,248.872 877.56,309.089 894.368,425.062 911.176,276.193 927.984,476.916 944.792,561.108 961.6,624.67 978.408,407.22 995.216,510.927 1012.02,366.518 1028.83,405.548 1045.64,480.261 1062.45,740.643 1079.26,868.325 1096.06,1098.6 1112.87,1205.65 1129.68,1204.54 1146.49,1274.79 1163.29,1343.93 1180.1,1246.91 1196.91,1089.12 1213.72,397.742 1230.53,88.2942 1247.33,177.504 1264.14,180.292 1280.95,366.518 1297.76,372.652 1314.57,308.532 1331.37,512.042 1348.18,461.304 1364.99,612.961 1381.8,533.23 1398.61,531.557 1415.41,357.597 1432.22,297.38 1449.03,504.236 1465.84,788.036 1482.64,898.434 1499.45,1101.39 1516.26,1286.5 1533.07,1303.22 1549.88,1324.41 1566.68,1292.07 1583.49,1272.56 1600.3,1066.82 1617.11,488.625 1633.92,100.561 1650.72,152.972 1667.53,282.326 1684.34,410.008 1701.15,400.53 1717.96,387.706 1734.76,379.9 1751.57,545.496 1768.38,667.045 1785.19,575.047 1801.99,558.32 1818.8,393.839 1835.61,410.566 1852.42,503.679 1869.23,718.341 1886.03,902.337 1902.84,1154.91 1919.65,1253.6 1936.46,1343.37 1953.27,1377.38 1970.07,1343.37 1986.88,1299.32 2003.69,1060.68 2020.5,481.934 2037.31,151.299 2054.11,244.969 2070.92,320.241 2087.73,391.051 2104.54,357.04 2121.34,416.699 2138.15,514.273 2154.96,590.659 2171.77,532.672 2188.58,553.302 2205.38,547.169 2222.19,347.004 2239,445.692 2255.81,548.842 2272.62,668.718 2289.42,883.38 2306.23,1064.03 2323.04,1228.51 2339.85,1297.65 2356.66,1291.52 2373.46,1323.3 2390.27,1287.61 2407.08,1234.09 2423.89,909.028 2440.69,488.067 2457.5,155.759 2474.31,234.933 2491.12,358.712 2507.93,360.385 2524.73,499.218 2541.54,447.365 2558.35,542.151 2575.16,615.749 2591.97,709.42 2608.77,694.366 2625.58,507.582 2642.39,635.821 2659.2,723.916 2676.01,799.745 2692.81,924.082 2709.62,1068.49 2726.43,1263.08 2743.24,1329.43 2760.05,1342.81 2776.85,1338.91 2793.66,1327.76 2810.47,1259.18 2827.28,1053.99 2844.08,688.79 2860.89,200.364 2877.7,223.225 2894.51,397.184 2911.32,454.613 2928.12,551.072 2944.93,680.427 2961.74,649.761 2978.55,762.946 2995.36,750.122 3012.16,557.763 3028.97,475.801 3045.78,559.435 3062.59,713.323 3079.4,795.285 3096.2,931.888 "/>
<path clip-path="url(#clip390)" d="M3305.33 445.512 L3952.76 445.512 L3952.76 95.592 L3305.33 95.592  Z" fill="#ffffff" fill-rule="evenodd" fill-opacity="1"/>
<polyline clip-path="url(#clip390)" style="stroke:#000000; stroke-linecap:round; stroke-linejoin:round; stroke-width:4; stroke-opacity:1; fill:none" points="3305.33,445.512 3952.76,445.512 3952.76,95.592 3305.33,95.592 3305.33,445.512 "/>
<polyline clip-path="url(#clip390)" style="stroke:#023eff; stroke-linecap:round; stroke-linejoin:round; stroke-width:5.625; stroke-opacity:1; fill:none" points="3346.97,153.912 3596.82,153.912 "/>
<path clip-path="url(#clip390)" d="M3643.28 168.977 L3643.28 184.446 L3638.46 184.446 L3638.46 144.185 L3643.28 144.185 L3643.28 148.613 Q3644.79 146.008 3647.08 144.758 Q3649.4 143.482 3652.6 143.482 Q3657.91 143.482 3661.22 147.701 Q3664.55 151.92 3664.55 158.795 Q3664.55 165.67 3661.22 169.888 Q3657.91 174.107 3652.6 174.107 Q3649.4 174.107 3647.08 172.857 Q3644.79 171.581 3643.28 168.977 M3659.58 158.795 Q3659.58 153.508 3657.39 150.514 Q3655.23 147.493 3651.43 147.493 Q3647.63 147.493 3645.44 150.514 Q3643.28 153.508 3643.28 158.795 Q3643.28 164.081 3645.44 167.102 Q3647.63 170.097 3651.43 170.097 Q3655.23 170.097 3657.39 167.102 Q3659.58 164.081 3659.58 158.795 Z" fill="#000000" fill-rule="nonzero" fill-opacity="1" /><path clip-path="url(#clip390)" d="M3689.4 148.665 Q3688.59 148.196 3687.63 147.988 Q3686.69 147.753 3685.54 147.753 Q3681.48 147.753 3679.29 150.409 Q3677.13 153.04 3677.13 157.987 L3677.13 173.352 L3672.31 173.352 L3672.31 144.185 L3677.13 144.185 L3677.13 148.717 Q3678.64 146.06 3681.06 144.784 Q3683.49 143.482 3686.95 143.482 Q3687.44 143.482 3688.04 143.56 Q3688.64 143.613 3689.37 143.743 L3689.4 148.665 Z" fill="#000000" fill-rule="nonzero" fill-opacity="1" /><path clip-path="url(#clip390)" d="M3718.2 157.571 L3718.2 159.915 L3696.17 159.915 Q3696.48 164.862 3699.14 167.467 Q3701.82 170.045 3706.58 170.045 Q3709.35 170.045 3711.92 169.368 Q3714.53 168.691 3717.08 167.336 L3717.08 171.868 Q3714.5 172.961 3711.79 173.534 Q3709.08 174.107 3706.3 174.107 Q3699.32 174.107 3695.23 170.045 Q3691.17 165.982 3691.17 159.055 Q3691.17 151.894 3695.02 147.701 Q3698.9 143.482 3705.47 143.482 Q3711.35 143.482 3714.76 147.284 Q3718.2 151.06 3718.2 157.571 M3713.41 156.165 Q3713.36 152.232 3711.19 149.889 Q3709.06 147.545 3705.52 147.545 Q3701.51 147.545 3699.08 149.81 Q3696.69 152.076 3696.32 156.191 L3713.41 156.165 Z" fill="#000000" fill-rule="nonzero" fill-opacity="1" /><path clip-path="url(#clip390)" d="M3745.26 148.613 L3745.26 132.831 L3750.05 132.831 L3750.05 173.352 L3745.26 173.352 L3745.26 168.977 Q3743.75 171.581 3741.43 172.857 Q3739.14 174.107 3735.91 174.107 Q3730.62 174.107 3727.29 169.888 Q3723.98 165.67 3723.98 158.795 Q3723.98 151.92 3727.29 147.701 Q3730.62 143.482 3735.91 143.482 Q3739.14 143.482 3741.43 144.758 Q3743.75 146.008 3745.26 148.613 M3728.93 158.795 Q3728.93 164.081 3731.09 167.102 Q3733.28 170.097 3737.08 170.097 Q3740.88 170.097 3743.07 167.102 Q3745.26 164.081 3745.26 158.795 Q3745.26 153.508 3743.07 150.514 Q3740.88 147.493 3737.08 147.493 Q3733.28 147.493 3731.09 150.514 Q3728.93 153.508 3728.93 158.795 Z" fill="#000000" fill-rule="nonzero" fill-opacity="1" /><path clip-path="url(#clip390)" d="M3759.92 144.185 L3764.71 144.185 L3764.71 173.352 L3759.92 173.352 L3759.92 144.185 M3759.92 132.831 L3764.71 132.831 L3764.71 138.899 L3759.92 138.899 L3759.92 132.831 Z" fill="#000000" fill-rule="nonzero" fill-opacity="1" /><path clip-path="url(#clip390)" d="M3795.73 145.305 L3795.73 149.784 Q3793.69 148.665 3791.64 148.118 Q3789.61 147.545 3787.52 147.545 Q3782.86 147.545 3780.28 150.514 Q3777.7 153.456 3777.7 158.795 Q3777.7 164.133 3780.28 167.102 Q3782.86 170.045 3787.52 170.045 Q3789.61 170.045 3791.64 169.498 Q3793.69 168.925 3795.73 167.805 L3795.73 172.232 Q3793.72 173.17 3791.56 173.638 Q3789.42 174.107 3787 174.107 Q3780.41 174.107 3776.53 169.967 Q3772.65 165.826 3772.65 158.795 Q3772.65 151.659 3776.56 147.571 Q3780.49 143.482 3787.31 143.482 Q3789.53 143.482 3791.64 143.951 Q3793.75 144.394 3795.73 145.305 Z" fill="#000000" fill-rule="nonzero" fill-opacity="1" /><path clip-path="url(#clip390)" d="M3808.8 135.904 L3808.8 144.185 L3818.67 144.185 L3818.67 147.909 L3808.8 147.909 L3808.8 163.743 Q3808.8 167.31 3809.76 168.326 Q3810.75 169.342 3813.75 169.342 L3818.67 169.342 L3818.67 173.352 L3813.75 173.352 Q3808.2 173.352 3806.09 171.295 Q3803.98 169.211 3803.98 163.743 L3803.98 147.909 L3800.46 147.909 L3800.46 144.185 L3803.98 144.185 L3803.98 135.904 L3808.8 135.904 Z" fill="#000000" fill-rule="nonzero" fill-opacity="1" /><path clip-path="url(#clip390)" d="M3847.13 182.206 L3847.13 185.93 L3819.42 185.93 L3819.42 182.206 L3847.13 182.206 Z" fill="#000000" fill-rule="nonzero" fill-opacity="1" /><path clip-path="url(#clip390)" d="M3852.37 134.472 L3873.02 134.472 L3873.02 138.899 L3857.18 138.899 L3857.18 148.43 Q3858.33 148.04 3859.47 147.857 Q3860.62 147.649 3861.77 147.649 Q3868.28 147.649 3872.08 151.217 Q3875.88 154.784 3875.88 160.878 Q3875.88 167.154 3871.97 170.644 Q3868.07 174.107 3860.96 174.107 Q3858.51 174.107 3855.96 173.69 Q3853.43 173.274 3850.72 172.441 L3850.72 167.154 Q3853.07 168.43 3855.57 169.055 Q3858.07 169.68 3860.85 169.68 Q3865.36 169.68 3867.99 167.31 Q3870.62 164.941 3870.62 160.878 Q3870.62 156.816 3867.99 154.446 Q3865.36 152.076 3860.85 152.076 Q3858.75 152.076 3856.64 152.545 Q3854.55 153.014 3852.37 154.003 L3852.37 134.472 Z" fill="#000000" fill-rule="nonzero" fill-opacity="1" /><path clip-path="url(#clip390)" d="M3890.78 168.925 L3909.14 168.925 L3909.14 173.352 L3884.45 173.352 L3884.45 168.925 Q3887.44 165.826 3892.6 160.618 Q3897.78 155.383 3899.11 153.873 Q3901.64 151.034 3902.63 149.081 Q3903.64 147.102 3903.64 145.201 Q3903.64 142.102 3901.45 140.149 Q3899.29 138.196 3895.8 138.196 Q3893.33 138.196 3890.57 139.055 Q3887.83 139.915 3884.71 141.659 L3884.71 136.347 Q3887.89 135.071 3890.65 134.42 Q3893.41 133.769 3895.7 133.769 Q3901.74 133.769 3905.33 136.79 Q3908.93 139.81 3908.93 144.863 Q3908.93 147.258 3908.02 149.42 Q3907.13 151.555 3904.76 154.472 Q3904.11 155.227 3900.62 158.847 Q3897.13 162.441 3890.78 168.925 Z" fill="#000000" fill-rule="nonzero" fill-opacity="1" /><polyline clip-path="url(#clip390)" style="stroke:#ff7c00; stroke-linecap:round; stroke-linejoin:round; stroke-width:5.625; stroke-opacity:1; fill:none" points="3346.97,212.232 3596.82,212.232 "/>
<path clip-path="url(#clip390)" d="M3643.28 227.297 L3643.28 242.766 L3638.46 242.766 L3638.46 202.505 L3643.28 202.505 L3643.28 206.933 Q3644.79 204.328 3647.08 203.078 Q3649.4 201.802 3652.6 201.802 Q3657.91 201.802 3661.22 206.021 Q3664.55 210.24 3664.55 217.115 Q3664.55 223.99 3661.22 228.208 Q3657.91 232.427 3652.6 232.427 Q3649.4 232.427 3647.08 231.177 Q3644.79 229.901 3643.28 227.297 M3659.58 217.115 Q3659.58 211.828 3657.39 208.834 Q3655.23 205.813 3651.43 205.813 Q3647.63 205.813 3645.44 208.834 Q3643.28 211.828 3643.28 217.115 Q3643.28 222.401 3645.44 225.422 Q3647.63 228.417 3651.43 228.417 Q3655.23 228.417 3657.39 225.422 Q3659.58 222.401 3659.58 217.115 Z" fill="#000000" fill-rule="nonzero" fill-opacity="1" /><path clip-path="url(#clip390)" d="M3689.4 206.985 Q3688.59 206.516 3687.63 206.308 Q3686.69 206.073 3685.54 206.073 Q3681.48 206.073 3679.29 208.729 Q3677.13 211.36 3677.13 216.307 L3677.13 231.672 L3672.31 231.672 L3672.31 202.505 L3677.13 202.505 L3677.13 207.037 Q3678.64 204.38 3681.06 203.104 Q3683.49 201.802 3686.95 201.802 Q3687.44 201.802 3688.04 201.88 Q3688.64 201.933 3689.37 202.063 L3689.4 206.985 Z" fill="#000000" fill-rule="nonzero" fill-opacity="1" /><path clip-path="url(#clip390)" d="M3718.2 215.891 L3718.2 218.235 L3696.17 218.235 Q3696.48 223.182 3699.14 225.787 Q3701.82 228.365 3706.58 228.365 Q3709.35 228.365 3711.92 227.688 Q3714.53 227.011 3717.08 225.656 L3717.08 230.188 Q3714.5 231.281 3711.79 231.854 Q3709.08 232.427 3706.3 232.427 Q3699.32 232.427 3695.23 228.365 Q3691.17 224.302 3691.17 217.375 Q3691.17 210.214 3695.02 206.021 Q3698.9 201.802 3705.47 201.802 Q3711.35 201.802 3714.76 205.604 Q3718.2 209.38 3718.2 215.891 M3713.41 214.485 Q3713.36 210.552 3711.19 208.209 Q3709.06 205.865 3705.52 205.865 Q3701.51 205.865 3699.08 208.13 Q3696.69 210.396 3696.32 214.511 L3713.41 214.485 Z" fill="#000000" fill-rule="nonzero" fill-opacity="1" /><path clip-path="url(#clip390)" d="M3745.26 206.933 L3745.26 191.151 L3750.05 191.151 L3750.05 231.672 L3745.26 231.672 L3745.26 227.297 Q3743.75 229.901 3741.43 231.177 Q3739.14 232.427 3735.91 232.427 Q3730.62 232.427 3727.29 228.208 Q3723.98 223.99 3723.98 217.115 Q3723.98 210.24 3727.29 206.021 Q3730.62 201.802 3735.91 201.802 Q3739.14 201.802 3741.43 203.078 Q3743.75 204.328 3745.26 206.933 M3728.93 217.115 Q3728.93 222.401 3731.09 225.422 Q3733.28 228.417 3737.08 228.417 Q3740.88 228.417 3743.07 225.422 Q3745.26 222.401 3745.26 217.115 Q3745.26 211.828 3743.07 208.834 Q3740.88 205.813 3737.08 205.813 Q3733.28 205.813 3731.09 208.834 Q3728.93 211.828 3728.93 217.115 Z" fill="#000000" fill-rule="nonzero" fill-opacity="1" /><path clip-path="url(#clip390)" d="M3759.92 202.505 L3764.71 202.505 L3764.71 231.672 L3759.92 231.672 L3759.92 202.505 M3759.92 191.151 L3764.71 191.151 L3764.71 197.219 L3759.92 197.219 L3759.92 191.151 Z" fill="#000000" fill-rule="nonzero" fill-opacity="1" /><path clip-path="url(#clip390)" d="M3795.73 203.625 L3795.73 208.104 Q3793.69 206.985 3791.64 206.438 Q3789.61 205.865 3787.52 205.865 Q3782.86 205.865 3780.28 208.834 Q3777.7 211.776 3777.7 217.115 Q3777.7 222.453 3780.28 225.422 Q3782.86 228.365 3787.52 228.365 Q3789.61 228.365 3791.64 227.818 Q3793.69 227.245 3795.73 226.125 L3795.73 230.552 Q3793.72 231.49 3791.56 231.958 Q3789.42 232.427 3787 232.427 Q3780.41 232.427 3776.53 228.287 Q3772.65 224.146 3772.65 217.115 Q3772.65 209.979 3776.56 205.891 Q3780.49 201.802 3787.31 201.802 Q3789.53 201.802 3791.64 202.271 Q3793.75 202.714 3795.73 203.625 Z" fill="#000000" fill-rule="nonzero" fill-opacity="1" /><path clip-path="url(#clip390)" d="M3808.8 194.224 L3808.8 202.505 L3818.67 202.505 L3818.67 206.229 L3808.8 206.229 L3808.8 222.063 Q3808.8 225.63 3809.76 226.646 Q3810.75 227.662 3813.75 227.662 L3818.67 227.662 L3818.67 231.672 L3813.75 231.672 Q3808.2 231.672 3806.09 229.615 Q3803.98 227.531 3803.98 222.063 L3803.98 206.229 L3800.46 206.229 L3800.46 202.505 L3803.98 202.505 L3803.98 194.224 L3808.8 194.224 Z" fill="#000000" fill-rule="nonzero" fill-opacity="1" /><path clip-path="url(#clip390)" d="M3847.13 240.526 L3847.13 244.25 L3819.42 244.25 L3819.42 240.526 L3847.13 240.526 Z" fill="#000000" fill-rule="nonzero" fill-opacity="1" /><path clip-path="url(#clip390)" d="M3856.84 227.245 L3875.2 227.245 L3875.2 231.672 L3850.52 231.672 L3850.52 227.245 Q3853.51 224.146 3858.67 218.938 Q3863.85 213.703 3865.18 212.193 Q3867.7 209.354 3868.69 207.401 Q3869.71 205.422 3869.71 203.521 Q3869.71 200.422 3867.52 198.469 Q3865.36 196.516 3861.87 196.516 Q3859.4 196.516 3856.64 197.375 Q3853.9 198.235 3850.78 199.979 L3850.78 194.667 Q3853.95 193.391 3856.71 192.74 Q3859.47 192.089 3861.77 192.089 Q3867.81 192.089 3871.4 195.11 Q3875 198.13 3875 203.183 Q3875 205.578 3874.08 207.74 Q3873.2 209.875 3870.83 212.792 Q3870.18 213.547 3866.69 217.167 Q3863.2 220.761 3856.84 227.245 Z" fill="#000000" fill-rule="nonzero" fill-opacity="1" /><path clip-path="url(#clip390)" d="M3898.15 210.136 Q3894.6 210.136 3892.52 212.557 Q3890.46 214.979 3890.46 219.198 Q3890.46 223.391 3892.52 225.839 Q3894.6 228.261 3898.15 228.261 Q3901.69 228.261 3903.75 225.839 Q3905.83 223.391 3905.83 219.198 Q3905.83 214.979 3903.75 212.557 Q3901.69 210.136 3898.15 210.136 M3908.59 193.651 L3908.59 198.443 Q3906.61 197.505 3904.58 197.011 Q3902.57 196.516 3900.59 196.516 Q3895.39 196.516 3892.63 200.031 Q3889.89 203.547 3889.5 210.656 Q3891.04 208.391 3893.35 207.193 Q3895.67 205.969 3898.46 205.969 Q3904.32 205.969 3907.7 209.537 Q3911.12 213.078 3911.12 219.198 Q3911.12 225.188 3907.57 228.807 Q3904.03 232.427 3898.15 232.427 Q3891.4 232.427 3887.83 227.271 Q3884.27 222.089 3884.27 212.271 Q3884.27 203.052 3888.64 197.584 Q3893.02 192.089 3900.39 192.089 Q3902.37 192.089 3904.37 192.479 Q3906.4 192.87 3908.59 193.651 Z" fill="#000000" fill-rule="nonzero" fill-opacity="1" /><polyline clip-path="url(#clip390)" style="stroke:#1ac938; stroke-linecap:round; stroke-linejoin:round; stroke-width:5.625; stroke-opacity:1; fill:none" points="3346.97,270.552 3596.82,270.552 "/>
<path clip-path="url(#clip390)" d="M3643.28 285.617 L3643.28 301.086 L3638.46 301.086 L3638.46 260.825 L3643.28 260.825 L3643.28 265.253 Q3644.79 262.648 3647.08 261.398 Q3649.4 260.122 3652.6 260.122 Q3657.91 260.122 3661.22 264.341 Q3664.55 268.56 3664.55 275.435 Q3664.55 282.31 3661.22 286.528 Q3657.91 290.747 3652.6 290.747 Q3649.4 290.747 3647.08 289.497 Q3644.79 288.221 3643.28 285.617 M3659.58 275.435 Q3659.58 270.148 3657.39 267.154 Q3655.23 264.133 3651.43 264.133 Q3647.63 264.133 3645.44 267.154 Q3643.28 270.148 3643.28 275.435 Q3643.28 280.721 3645.44 283.742 Q3647.63 286.737 3651.43 286.737 Q3655.23 286.737 3657.39 283.742 Q3659.58 280.721 3659.58 275.435 Z" fill="#000000" fill-rule="nonzero" fill-opacity="1" /><path clip-path="url(#clip390)" d="M3689.4 265.305 Q3688.59 264.836 3687.63 264.628 Q3686.69 264.393 3685.54 264.393 Q3681.48 264.393 3679.29 267.049 Q3677.13 269.68 3677.13 274.627 L3677.13 289.992 L3672.31 289.992 L3672.31 260.825 L3677.13 260.825 L3677.13 265.357 Q3678.64 262.7 3681.06 261.424 Q3683.49 260.122 3686.95 260.122 Q3687.44 260.122 3688.04 260.2 Q3688.64 260.253 3689.37 260.383 L3689.4 265.305 Z" fill="#000000" fill-rule="nonzero" fill-opacity="1" /><path clip-path="url(#clip390)" d="M3718.2 274.211 L3718.2 276.555 L3696.17 276.555 Q3696.48 281.502 3699.14 284.107 Q3701.82 286.685 3706.58 286.685 Q3709.35 286.685 3711.92 286.008 Q3714.53 285.331 3717.08 283.976 L3717.08 288.508 Q3714.5 289.601 3711.79 290.174 Q3709.08 290.747 3706.3 290.747 Q3699.32 290.747 3695.23 286.685 Q3691.17 282.622 3691.17 275.695 Q3691.17 268.534 3695.02 264.341 Q3698.9 260.122 3705.47 260.122 Q3711.35 260.122 3714.76 263.924 Q3718.2 267.7 3718.2 274.211 M3713.41 272.805 Q3713.36 268.872 3711.19 266.529 Q3709.06 264.185 3705.52 264.185 Q3701.51 264.185 3699.08 266.45 Q3696.69 268.716 3696.32 272.831 L3713.41 272.805 Z" fill="#000000" fill-rule="nonzero" fill-opacity="1" /><path clip-path="url(#clip390)" d="M3745.26 265.253 L3745.26 249.471 L3750.05 249.471 L3750.05 289.992 L3745.26 289.992 L3745.26 285.617 Q3743.75 288.221 3741.43 289.497 Q3739.14 290.747 3735.91 290.747 Q3730.62 290.747 3727.29 286.528 Q3723.98 282.31 3723.98 275.435 Q3723.98 268.56 3727.29 264.341 Q3730.62 260.122 3735.91 260.122 Q3739.14 260.122 3741.43 261.398 Q3743.75 262.648 3745.26 265.253 M3728.93 275.435 Q3728.93 280.721 3731.09 283.742 Q3733.28 286.737 3737.08 286.737 Q3740.88 286.737 3743.07 283.742 Q3745.26 280.721 3745.26 275.435 Q3745.26 270.148 3743.07 267.154 Q3740.88 264.133 3737.08 264.133 Q3733.28 264.133 3731.09 267.154 Q3728.93 270.148 3728.93 275.435 Z" fill="#000000" fill-rule="nonzero" fill-opacity="1" /><path clip-path="url(#clip390)" d="M3759.92 260.825 L3764.71 260.825 L3764.71 289.992 L3759.92 289.992 L3759.92 260.825 M3759.92 249.471 L3764.71 249.471 L3764.71 255.539 L3759.92 255.539 L3759.92 249.471 Z" fill="#000000" fill-rule="nonzero" fill-opacity="1" /><path clip-path="url(#clip390)" d="M3795.73 261.945 L3795.73 266.424 Q3793.69 265.305 3791.64 264.758 Q3789.61 264.185 3787.52 264.185 Q3782.86 264.185 3780.28 267.154 Q3777.7 270.096 3777.7 275.435 Q3777.7 280.773 3780.28 283.742 Q3782.86 286.685 3787.52 286.685 Q3789.61 286.685 3791.64 286.138 Q3793.69 285.565 3795.73 284.445 L3795.73 288.872 Q3793.72 289.81 3791.56 290.278 Q3789.42 290.747 3787 290.747 Q3780.41 290.747 3776.53 286.607 Q3772.65 282.466 3772.65 275.435 Q3772.65 268.299 3776.56 264.211 Q3780.49 260.122 3787.31 260.122 Q3789.53 260.122 3791.64 260.591 Q3793.75 261.034 3795.73 261.945 Z" fill="#000000" fill-rule="nonzero" fill-opacity="1" /><path clip-path="url(#clip390)" d="M3808.8 252.544 L3808.8 260.825 L3818.67 260.825 L3818.67 264.549 L3808.8 264.549 L3808.8 280.383 Q3808.8 283.95 3809.76 284.966 Q3810.75 285.982 3813.75 285.982 L3818.67 285.982 L3818.67 289.992 L3813.75 289.992 Q3808.2 289.992 3806.09 287.935 Q3803.98 285.851 3803.98 280.383 L3803.98 264.549 L3800.46 264.549 L3800.46 260.825 L3803.98 260.825 L3803.98 252.544 L3808.8 252.544 Z" fill="#000000" fill-rule="nonzero" fill-opacity="1" /><path clip-path="url(#clip390)" d="M3847.13 298.846 L3847.13 302.57 L3819.42 302.57 L3819.42 298.846 L3847.13 298.846 Z" fill="#000000" fill-rule="nonzero" fill-opacity="1" /><path clip-path="url(#clip390)" d="M3866.77 255.695 L3853.49 276.45 L3866.77 276.45 L3866.77 255.695 M3865.39 251.112 L3872 251.112 L3872 276.45 L3877.55 276.45 L3877.55 280.825 L3872 280.825 L3872 289.992 L3866.77 289.992 L3866.77 280.825 L3849.21 280.825 L3849.21 275.747 L3865.39 251.112 Z" fill="#000000" fill-rule="nonzero" fill-opacity="1" /><polyline clip-path="url(#clip390)" style="stroke:#e8000b; stroke-linecap:round; stroke-linejoin:round; stroke-width:5.625; stroke-opacity:1; fill:none" points="3346.97,328.872 3596.82,328.872 "/>
<path clip-path="url(#clip390)" d="M3643.28 343.937 L3643.28 359.406 L3638.46 359.406 L3638.46 319.145 L3643.28 319.145 L3643.28 323.573 Q3644.79 320.968 3647.08 319.718 Q3649.4 318.442 3652.6 318.442 Q3657.91 318.442 3661.22 322.661 Q3664.55 326.88 3664.55 333.755 Q3664.55 340.63 3661.22 344.848 Q3657.91 349.067 3652.6 349.067 Q3649.4 349.067 3647.08 347.817 Q3644.79 346.541 3643.28 343.937 M3659.58 333.755 Q3659.58 328.468 3657.39 325.474 Q3655.23 322.453 3651.43 322.453 Q3647.63 322.453 3645.44 325.474 Q3643.28 328.468 3643.28 333.755 Q3643.28 339.041 3645.44 342.062 Q3647.63 345.057 3651.43 345.057 Q3655.23 345.057 3657.39 342.062 Q3659.58 339.041 3659.58 333.755 Z" fill="#000000" fill-rule="nonzero" fill-opacity="1" /><path clip-path="url(#clip390)" d="M3689.4 323.625 Q3688.59 323.156 3687.63 322.948 Q3686.69 322.713 3685.54 322.713 Q3681.48 322.713 3679.29 325.369 Q3677.13 328 3677.13 332.947 L3677.13 348.312 L3672.31 348.312 L3672.31 319.145 L3677.13 319.145 L3677.13 323.677 Q3678.64 321.02 3681.06 319.744 Q3683.49 318.442 3686.95 318.442 Q3687.44 318.442 3688.04 318.52 Q3688.64 318.573 3689.37 318.703 L3689.4 323.625 Z" fill="#000000" fill-rule="nonzero" fill-opacity="1" /><path clip-path="url(#clip390)" d="M3718.2 332.531 L3718.2 334.875 L3696.17 334.875 Q3696.48 339.822 3699.14 342.427 Q3701.82 345.005 3706.58 345.005 Q3709.35 345.005 3711.92 344.328 Q3714.53 343.651 3717.08 342.296 L3717.08 346.828 Q3714.5 347.921 3711.79 348.494 Q3709.08 349.067 3706.3 349.067 Q3699.32 349.067 3695.23 345.005 Q3691.17 340.942 3691.17 334.015 Q3691.17 326.854 3695.02 322.661 Q3698.9 318.442 3705.47 318.442 Q3711.35 318.442 3714.76 322.244 Q3718.2 326.02 3718.2 332.531 M3713.41 331.125 Q3713.36 327.192 3711.19 324.849 Q3709.06 322.505 3705.52 322.505 Q3701.51 322.505 3699.08 324.77 Q3696.69 327.036 3696.32 331.151 L3713.41 331.125 Z" fill="#000000" fill-rule="nonzero" fill-opacity="1" /><path clip-path="url(#clip390)" d="M3745.26 323.573 L3745.26 307.791 L3750.05 307.791 L3750.05 348.312 L3745.26 348.312 L3745.26 343.937 Q3743.75 346.541 3741.43 347.817 Q3739.14 349.067 3735.91 349.067 Q3730.62 349.067 3727.29 344.848 Q3723.98 340.63 3723.98 333.755 Q3723.98 326.88 3727.29 322.661 Q3730.62 318.442 3735.91 318.442 Q3739.14 318.442 3741.43 319.718 Q3743.75 320.968 3745.26 323.573 M3728.93 333.755 Q3728.93 339.041 3731.09 342.062 Q3733.28 345.057 3737.08 345.057 Q3740.88 345.057 3743.07 342.062 Q3745.26 339.041 3745.26 333.755 Q3745.26 328.468 3743.07 325.474 Q3740.88 322.453 3737.08 322.453 Q3733.28 322.453 3731.09 325.474 Q3728.93 328.468 3728.93 333.755 Z" fill="#000000" fill-rule="nonzero" fill-opacity="1" /><path clip-path="url(#clip390)" d="M3759.92 319.145 L3764.71 319.145 L3764.71 348.312 L3759.92 348.312 L3759.92 319.145 M3759.92 307.791 L3764.71 307.791 L3764.71 313.859 L3759.92 313.859 L3759.92 307.791 Z" fill="#000000" fill-rule="nonzero" fill-opacity="1" /><path clip-path="url(#clip390)" d="M3795.73 320.265 L3795.73 324.744 Q3793.69 323.625 3791.64 323.078 Q3789.61 322.505 3787.52 322.505 Q3782.86 322.505 3780.28 325.474 Q3777.7 328.416 3777.7 333.755 Q3777.7 339.093 3780.28 342.062 Q3782.86 345.005 3787.52 345.005 Q3789.61 345.005 3791.64 344.458 Q3793.69 343.885 3795.73 342.765 L3795.73 347.192 Q3793.72 348.13 3791.56 348.598 Q3789.42 349.067 3787 349.067 Q3780.41 349.067 3776.53 344.927 Q3772.65 340.786 3772.65 333.755 Q3772.65 326.619 3776.56 322.531 Q3780.49 318.442 3787.31 318.442 Q3789.53 318.442 3791.64 318.911 Q3793.75 319.354 3795.73 320.265 Z" fill="#000000" fill-rule="nonzero" fill-opacity="1" /><path clip-path="url(#clip390)" d="M3808.8 310.864 L3808.8 319.145 L3818.67 319.145 L3818.67 322.869 L3808.8 322.869 L3808.8 338.703 Q3808.8 342.27 3809.76 343.286 Q3810.75 344.302 3813.75 344.302 L3818.67 344.302 L3818.67 348.312 L3813.75 348.312 Q3808.2 348.312 3806.09 346.255 Q3803.98 344.171 3803.98 338.703 L3803.98 322.869 L3800.46 322.869 L3800.46 319.145 L3803.98 319.145 L3803.98 310.864 L3808.8 310.864 Z" fill="#000000" fill-rule="nonzero" fill-opacity="1" /><path clip-path="url(#clip390)" d="M3847.13 357.166 L3847.13 360.89 L3819.42 360.89 L3819.42 357.166 L3847.13 357.166 Z" fill="#000000" fill-rule="nonzero" fill-opacity="1" /><path clip-path="url(#clip390)" d="M3853.22 343.885 L3861.82 343.885 L3861.82 314.224 L3852.47 316.099 L3852.47 311.307 L3861.77 309.432 L3867.03 309.432 L3867.03 343.885 L3875.62 343.885 L3875.62 348.312 L3853.22 348.312 L3853.22 343.885 Z" fill="#000000" fill-rule="nonzero" fill-opacity="1" /><polyline clip-path="url(#clip390)" style="stroke:#000000; stroke-linecap:round; stroke-linejoin:round; stroke-width:6.75; stroke-opacity:1; fill:none" points="3346.97,387.192 3596.82,387.192 "/>
<path clip-path="url(#clip390)" d="M3653.54 391.971 Q3647.73 391.971 3645.49 393.299 Q3643.25 394.627 3643.25 397.83 Q3643.25 400.382 3644.92 401.892 Q3646.61 403.377 3649.5 403.377 Q3653.49 403.377 3655.88 400.564 Q3658.3 397.726 3658.3 393.038 L3658.3 391.971 L3653.54 391.971 M3663.1 389.991 L3663.1 406.632 L3658.3 406.632 L3658.3 402.205 Q3656.66 404.861 3654.22 406.137 Q3651.77 407.387 3648.23 407.387 Q3643.75 407.387 3641.09 404.887 Q3638.46 402.361 3638.46 398.142 Q3638.46 393.221 3641.74 390.721 Q3645.05 388.221 3651.59 388.221 L3658.3 388.221 L3658.3 387.752 Q3658.3 384.445 3656.12 382.648 Q3653.95 380.825 3650.02 380.825 Q3647.52 380.825 3645.15 381.424 Q3642.78 382.023 3640.6 383.221 L3640.6 378.794 Q3643.23 377.778 3645.7 377.283 Q3648.17 376.762 3650.52 376.762 Q3656.85 376.762 3659.97 380.044 Q3663.1 383.325 3663.1 389.991 Z" fill="#000000" fill-rule="nonzero" fill-opacity="1" /><path clip-path="url(#clip390)" d="M3693.95 378.585 L3693.95 383.064 Q3691.92 381.945 3689.87 381.398 Q3687.83 380.825 3685.75 380.825 Q3681.09 380.825 3678.51 383.794 Q3675.93 386.736 3675.93 392.075 Q3675.93 397.413 3678.51 400.382 Q3681.09 403.325 3685.75 403.325 Q3687.83 403.325 3689.87 402.778 Q3691.92 402.205 3693.95 401.085 L3693.95 405.512 Q3691.95 406.45 3689.79 406.918 Q3687.65 407.387 3685.23 407.387 Q3678.64 407.387 3674.76 403.247 Q3670.88 399.106 3670.88 392.075 Q3670.88 384.939 3674.79 380.851 Q3678.72 376.762 3685.54 376.762 Q3687.76 376.762 3689.87 377.231 Q3691.98 377.674 3693.95 378.585 Z" fill="#000000" fill-rule="nonzero" fill-opacity="1" /><path clip-path="url(#clip390)" d="M3707.03 369.184 L3707.03 377.465 L3716.9 377.465 L3716.9 381.189 L3707.03 381.189 L3707.03 397.023 Q3707.03 400.59 3707.99 401.606 Q3708.98 402.622 3711.98 402.622 L3716.9 402.622 L3716.9 406.632 L3711.98 406.632 Q3706.43 406.632 3704.32 404.575 Q3702.21 402.491 3702.21 397.023 L3702.21 381.189 L3698.69 381.189 L3698.69 377.465 L3702.21 377.465 L3702.21 369.184 L3707.03 369.184 Z" fill="#000000" fill-rule="nonzero" fill-opacity="1" /><path clip-path="url(#clip390)" d="M3722.7 395.122 L3722.7 377.465 L3727.5 377.465 L3727.5 394.939 Q3727.5 399.08 3729.11 401.163 Q3730.73 403.221 3733.95 403.221 Q3737.83 403.221 3740.07 400.747 Q3742.34 398.273 3742.34 394.002 L3742.34 377.465 L3747.13 377.465 L3747.13 406.632 L3742.34 406.632 L3742.34 402.153 Q3740.6 404.809 3738.28 406.111 Q3735.99 407.387 3732.94 407.387 Q3727.91 407.387 3725.31 404.262 Q3722.7 401.137 3722.7 395.122 M3734.76 376.762 L3734.76 376.762 Z" fill="#000000" fill-rule="nonzero" fill-opacity="1" /><path clip-path="url(#clip390)" d="M3770.26 391.971 Q3764.45 391.971 3762.21 393.299 Q3759.97 394.627 3759.97 397.83 Q3759.97 400.382 3761.64 401.892 Q3763.33 403.377 3766.22 403.377 Q3770.2 403.377 3772.6 400.564 Q3775.02 397.726 3775.02 393.038 L3775.02 391.971 L3770.26 391.971 M3779.81 389.991 L3779.81 406.632 L3775.02 406.632 L3775.02 402.205 Q3773.38 404.861 3770.93 406.137 Q3768.49 407.387 3764.94 407.387 Q3760.46 407.387 3757.81 404.887 Q3755.18 402.361 3755.18 398.142 Q3755.18 393.221 3758.46 390.721 Q3761.77 388.221 3768.3 388.221 L3775.02 388.221 L3775.02 387.752 Q3775.02 384.445 3772.83 382.648 Q3770.67 380.825 3766.74 380.825 Q3764.24 380.825 3761.87 381.424 Q3759.5 382.023 3757.31 383.221 L3757.31 378.794 Q3759.94 377.778 3762.42 377.283 Q3764.89 376.762 3767.24 376.762 Q3773.56 376.762 3776.69 380.044 Q3779.81 383.325 3779.81 389.991 Z" fill="#000000" fill-rule="nonzero" fill-opacity="1" /><path clip-path="url(#clip390)" d="M3789.68 366.111 L3794.48 366.111 L3794.48 406.632 L3789.68 406.632 L3789.68 366.111 Z" fill="#000000" fill-rule="nonzero" fill-opacity="1" /></svg>
