<?xml version="1.0" encoding="UTF-8" standalone="no"?>
<!DOCTYPE svg PUBLIC "-//W3C//DTD SVG 1.1//EN"
 "http://www.w3.org/Graphics/SVG/1.1/DTD/svg11.dtd">
<!-- Generated by graphviz version 2.50.0 (20211204.2007)
 -->
<!-- Pages: 1 -->
<svg width="1865pt" height="742pt"
 viewBox="0.00 0.00 1865.00 742.00" xmlns="http://www.w3.org/2000/svg" xmlns:xlink="http://www.w3.org/1999/xlink">
<g id="graph0" class="graph" transform="scale(1 1) rotate(0) translate(4 738)">
<polygon fill="white" stroke="transparent" points="-4,4 -4,-738 1861,-738 1861,4 -4,4"/>
<!-- 1 -->
<g id="node1" class="node">
<title>1</title>
<text text-anchor="start" x="858" y="-715.8" font-family="Arial" font-weight="bold" font-size="14.00"> </text>
<text text-anchor="start" x="792" y="-671.3" font-family="Arial" font-size="14.00"> &#160;&#160;&#160;</text>
<path fill="#ebebeb" stroke="transparent" d="M822,-643C822,-643 898,-643 898,-643 904,-643 910,-649 910,-655 910,-655 910,-695 910,-695 910,-701 904,-707 898,-707 898,-707 822,-707 822,-707 816,-707 810,-701 810,-695 810,-695 810,-655 810,-655 810,-649 816,-643 822,-643"/>
<text text-anchor="start" x="811" y="-704.4" font-family="Arial" font-size="2.00"> </text>
<text text-anchor="start" x="811" y="-698.4" font-family="Arial" font-size="7.00"> &#160;1</text>
<text text-anchor="start" x="825" y="-681.8" font-family="Arial" font-weight="bold" font-size="14.00">Mean: 80.2</text>
<text text-anchor="start" x="836.5" y="-664.8" font-family="Arial" font-weight="bold" font-size="14.00">n = 168</text>
<text text-anchor="start" x="858.5" y="-646.8" font-family="Arial" font-size="9.00"> </text>
<path fill="none" stroke="#333333" d="M822,-643C822,-643 898,-643 898,-643 904,-643 910,-649 910,-655 910,-655 910,-695 910,-695 910,-701 904,-707 898,-707 898,-707 822,-707 822,-707 816,-707 810,-701 810,-695 810,-695 810,-655 810,-655 810,-649 816,-643 822,-643"/>
<text text-anchor="start" x="912" y="-671.3" font-family="Arial" font-size="14.00"> &#160;&#160;&#160;</text>
<text text-anchor="start" x="802.5" y="-628.8" font-family="Arial" font-weight="bold" font-size="14.00">prev_168h_inflow</text>
</g>
<!-- 2 -->
<g id="node2" class="node">
<title>2</title>
<text text-anchor="start" x="611" y="-561.8" font-family="Arial" font-weight="bold" font-size="14.00"> &lt; 85.73</text>
<text text-anchor="start" x="564" y="-517.3" font-family="Arial" font-size="14.00"> &#160;&#160;&#160;</text>
<path fill="#ebebeb" stroke="transparent" d="M594,-489C594,-489 678,-489 678,-489 684,-489 690,-495 690,-501 690,-501 690,-541 690,-541 690,-547 684,-553 678,-553 678,-553 594,-553 594,-553 588,-553 582,-547 582,-541 582,-541 582,-501 582,-501 582,-495 588,-489 594,-489"/>
<text text-anchor="start" x="583" y="-550.4" font-family="Arial" font-size="2.00"> </text>
<text text-anchor="start" x="583" y="-544.4" font-family="Arial" font-size="7.00"> &#160;2</text>
<text text-anchor="start" x="597" y="-527.8" font-family="Arial" font-weight="bold" font-size="14.00">Mean: 69.43</text>
<text text-anchor="start" x="616" y="-510.8" font-family="Arial" font-weight="bold" font-size="14.00">n = 88</text>
<text text-anchor="start" x="634.5" y="-492.8" font-family="Arial" font-size="9.00"> </text>
<path fill="none" stroke="#333333" d="M594,-489C594,-489 678,-489 678,-489 684,-489 690,-495 690,-501 690,-501 690,-541 690,-541 690,-547 684,-553 678,-553 678,-553 594,-553 594,-553 588,-553 582,-547 582,-541 582,-541 582,-501 582,-501 582,-495 588,-489 594,-489"/>
<text text-anchor="start" x="692" y="-517.3" font-family="Arial" font-size="14.00"> &#160;&#160;&#160;</text>
<text text-anchor="start" x="578.5" y="-474.8" font-family="Arial" font-weight="bold" font-size="14.00">prev_168h_inflow</text>
</g>
<!-- 1&#45;&gt;2 -->
<g id="edge1" class="edge">
<title>1&#45;&gt;2</title>
<path fill="none" stroke="#888888" d="M781.97,-621.05C764.12,-608.94 745,-595.97 726.68,-583.53"/>
<polygon fill="#888888" stroke="#888888" points="728.56,-580.58 718.32,-577.86 724.63,-586.37 728.56,-580.58"/>
</g>
<!-- 15 -->
<g id="node3" class="node">
<title>15</title>
<text text-anchor="start" x="1125.5" y="-561.8" font-family="Arial" font-weight="bold" font-size="14.00"> ≥ 85.73</text>
<text text-anchor="start" x="1078" y="-517.3" font-family="Arial" font-size="14.00"> &#160;&#160;&#160;</text>
<path fill="#ebebeb" stroke="transparent" d="M1108,-489C1108,-489 1192,-489 1192,-489 1198,-489 1204,-495 1204,-501 1204,-501 1204,-541 1204,-541 1204,-547 1198,-553 1192,-553 1192,-553 1108,-553 1108,-553 1102,-553 1096,-547 1096,-541 1096,-541 1096,-501 1096,-501 1096,-495 1102,-489 1108,-489"/>
<text text-anchor="start" x="1097" y="-550.4" font-family="Arial" font-size="2.00"> </text>
<text text-anchor="start" x="1097" y="-544.4" font-family="Arial" font-size="7.00"> &#160;15</text>
<text text-anchor="start" x="1111" y="-527.8" font-family="Arial" font-weight="bold" font-size="14.00">Mean: 92.04</text>
<text text-anchor="start" x="1130" y="-510.8" font-family="Arial" font-weight="bold" font-size="14.00">n = 80</text>
<text text-anchor="start" x="1148.5" y="-492.8" font-family="Arial" font-size="9.00"> </text>
<path fill="none" stroke="#333333" d="M1108,-489C1108,-489 1192,-489 1192,-489 1198,-489 1204,-495 1204,-501 1204,-501 1204,-541 1204,-541 1204,-547 1198,-553 1192,-553 1192,-553 1108,-553 1108,-553 1102,-553 1096,-547 1096,-541 1096,-541 1096,-501 1096,-501 1096,-495 1102,-489 1108,-489"/>
<text text-anchor="start" x="1206" y="-517.3" font-family="Arial" font-size="14.00"> &#160;&#160;&#160;</text>
<text text-anchor="start" x="1092.5" y="-474.8" font-family="Arial" font-weight="bold" font-size="14.00">prev_168h_inflow</text>
</g>
<!-- 1&#45;&gt;15 -->
<g id="edge2" class="edge">
<title>1&#45;&gt;15</title>
<path fill="none" stroke="#888888" d="M938.1,-633.07C975.29,-613.57 1020.01,-590.13 1058.76,-569.82"/>
<polygon fill="#888888" stroke="#888888" points="1060.73,-572.74 1067.96,-565 1057.48,-566.54 1060.73,-572.74"/>
</g>
<!-- 3 -->
<g id="node4" class="node">
<title>3</title>
<text text-anchor="start" x="358.5" y="-407.8" font-family="Arial" font-weight="bold" font-size="14.00"> &lt; 69.62</text>
<text text-anchor="start" x="314" y="-363.3" font-family="Arial" font-size="14.00"> &#160;&#160;&#160;&#160;&#160;</text>
<path fill="#ebebeb" stroke="transparent" d="M351,-335C351,-335 416,-335 416,-335 422,-335 428,-341 428,-347 428,-347 428,-387 428,-387 428,-393 422,-399 416,-399 416,-399 351,-399 351,-399 345,-399 339,-393 339,-387 339,-387 339,-347 339,-347 339,-341 345,-335 351,-335"/>
<text text-anchor="start" x="340" y="-396.4" font-family="Arial" font-size="2.00"> </text>
<text text-anchor="start" x="340" y="-390.4" font-family="Arial" font-size="7.00"> &#160;3</text>
<text text-anchor="start" x="354" y="-373.8" font-family="Arial" font-weight="bold" font-size="14.00">Mean: 60</text>
<text text-anchor="start" x="363.5" y="-356.8" font-family="Arial" font-weight="bold" font-size="14.00">n = 44</text>
<text text-anchor="start" x="382" y="-338.8" font-family="Arial" font-size="9.00"> </text>
<path fill="none" stroke="#333333" d="M351,-335C351,-335 416,-335 416,-335 422,-335 428,-341 428,-347 428,-347 428,-387 428,-387 428,-393 422,-399 416,-399 416,-399 351,-399 351,-399 345,-399 339,-393 339,-387 339,-387 339,-347 339,-347 339,-341 345,-335 351,-335"/>
<text text-anchor="start" x="430" y="-363.3" font-family="Arial" font-size="14.00"> &#160;&#160;&#160;&#160;&#160;</text>
<text text-anchor="start" x="326" y="-320.8" font-family="Arial" font-weight="bold" font-size="14.00">prev_168h_inflow</text>
</g>
<!-- 2&#45;&gt;3 -->
<g id="edge3" class="edge">
<title>2&#45;&gt;3</title>
<path fill="none" stroke="#888888" d="M553.86,-470.65C527.43,-454.77 498.04,-437.12 471.19,-420.99"/>
<polygon fill="#888888" stroke="#888888" points="472.95,-417.96 462.57,-415.81 469.34,-423.96 472.95,-417.96"/>
</g>
<!-- 8 -->
<g id="node5" class="node">
<title>8</title>
<text text-anchor="start" x="611.5" y="-407.8" font-family="Arial" font-weight="bold" font-size="14.00"> ≥ 69.62</text>
<text text-anchor="start" x="564" y="-363.3" font-family="Arial" font-size="14.00"> &#160;&#160;&#160;</text>
<path fill="#ebebeb" stroke="transparent" d="M594,-335C594,-335 678,-335 678,-335 684,-335 690,-341 690,-347 690,-347 690,-387 690,-387 690,-393 684,-399 678,-399 678,-399 594,-399 594,-399 588,-399 582,-393 582,-387 582,-387 582,-347 582,-347 582,-341 588,-335 594,-335"/>
<text text-anchor="start" x="583" y="-396.4" font-family="Arial" font-size="2.00"> </text>
<text text-anchor="start" x="583" y="-390.4" font-family="Arial" font-size="7.00"> &#160;8</text>
<text text-anchor="start" x="597" y="-373.8" font-family="Arial" font-weight="bold" font-size="14.00">Mean: 78.87</text>
<text text-anchor="start" x="616" y="-356.8" font-family="Arial" font-weight="bold" font-size="14.00">n = 44</text>
<text text-anchor="start" x="634.5" y="-338.8" font-family="Arial" font-size="9.00"> </text>
<path fill="none" stroke="#333333" d="M594,-335C594,-335 678,-335 678,-335 684,-335 690,-341 690,-347 690,-347 690,-387 690,-387 690,-393 684,-399 678,-399 678,-399 594,-399 594,-399 588,-399 582,-393 582,-387 582,-387 582,-347 582,-347 582,-341 588,-335 594,-335"/>
<text text-anchor="start" x="692" y="-363.3" font-family="Arial" font-size="14.00"> &#160;&#160;&#160;</text>
<text text-anchor="start" x="578.5" y="-320.8" font-family="Arial" font-weight="bold" font-size="14.00">prev_168h_inflow</text>
</g>
<!-- 2&#45;&gt;8 -->
<g id="edge4" class="edge">
<title>2&#45;&gt;8</title>
<path fill="none" stroke="#888888" d="M636,-461.67C636,-453.39 636,-444.83 636,-436.38"/>
<polygon fill="#888888" stroke="#888888" points="639.5,-436.18 636,-426.18 632.5,-436.18 639.5,-436.18"/>
</g>
<!-- 16 -->
<g id="node16" class="node">
<title>16</title>
<text text-anchor="start" x="1125.5" y="-407.8" font-family="Arial" font-weight="bold" font-size="14.00"> &lt; 92.05</text>
<text text-anchor="start" x="1085" y="-363.3" font-family="Arial" font-size="14.00"> &#160;&#160;&#160;&#160;</text>
<path fill="#ebebeb" stroke="transparent" d="M1118,-335C1118,-335 1183,-335 1183,-335 1189,-335 1195,-341 1195,-347 1195,-347 1195,-387 1195,-387 1195,-393 1189,-399 1183,-399 1183,-399 1118,-399 1118,-399 1112,-399 1106,-393 1106,-387 1106,-387 1106,-347 1106,-347 1106,-341 1112,-335 1118,-335"/>
<text text-anchor="start" x="1107" y="-396.4" font-family="Arial" font-size="2.00"> </text>
<text text-anchor="start" x="1107" y="-390.4" font-family="Arial" font-size="7.00"> &#160;16</text>
<text text-anchor="start" x="1121" y="-373.8" font-family="Arial" font-weight="bold" font-size="14.00">Mean: 88</text>
<text text-anchor="start" x="1130.5" y="-356.8" font-family="Arial" font-weight="bold" font-size="14.00">n = 45</text>
<text text-anchor="start" x="1149" y="-338.8" font-family="Arial" font-size="9.00"> </text>
<path fill="none" stroke="#333333" d="M1118,-335C1118,-335 1183,-335 1183,-335 1189,-335 1195,-341 1195,-347 1195,-347 1195,-387 1195,-387 1195,-393 1189,-399 1183,-399 1183,-399 1118,-399 1118,-399 1112,-399 1106,-393 1106,-387 1106,-387 1106,-347 1106,-347 1106,-341 1112,-335 1118,-335"/>
<text text-anchor="start" x="1197" y="-363.3" font-family="Arial" font-size="14.00"> &#160;&#160;&#160;&#160;</text>
<text text-anchor="start" x="1097" y="-320.8" font-family="Arial" font-weight="bold" font-size="14.00">prev_24h_inflow</text>
</g>
<!-- 15&#45;&gt;16 -->
<g id="edge15" class="edge">
<title>15&#45;&gt;16</title>
<path fill="none" stroke="#888888" d="M1150,-461.67C1150,-453.39 1150,-444.83 1150,-436.38"/>
<polygon fill="#888888" stroke="#888888" points="1153.5,-436.18 1150,-426.18 1146.5,-436.18 1153.5,-436.18"/>
</g>
<!-- 21 -->
<g id="node17" class="node">
<title>21</title>
<text text-anchor="start" x="1368.5" y="-407.8" font-family="Arial" font-weight="bold" font-size="14.00"> ≥ 92.05</text>
<text text-anchor="start" x="1321" y="-363.3" font-family="Arial" font-size="14.00"> &#160;&#160;&#160;</text>
<path fill="#ebebeb" stroke="transparent" d="M1351,-335C1351,-335 1435,-335 1435,-335 1441,-335 1447,-341 1447,-347 1447,-347 1447,-387 1447,-387 1447,-393 1441,-399 1435,-399 1435,-399 1351,-399 1351,-399 1345,-399 1339,-393 1339,-387 1339,-387 1339,-347 1339,-347 1339,-341 1345,-335 1351,-335"/>
<text text-anchor="start" x="1340" y="-396.4" font-family="Arial" font-size="2.00"> </text>
<text text-anchor="start" x="1340" y="-390.4" font-family="Arial" font-size="7.00"> &#160;21</text>
<text text-anchor="start" x="1354" y="-373.8" font-family="Arial" font-weight="bold" font-size="14.00">Mean: 97.24</text>
<text text-anchor="start" x="1373" y="-356.8" font-family="Arial" font-weight="bold" font-size="14.00">n = 35</text>
<text text-anchor="start" x="1391.5" y="-338.8" font-family="Arial" font-size="9.00"> </text>
<path fill="none" stroke="#333333" d="M1351,-335C1351,-335 1435,-335 1435,-335 1441,-335 1447,-341 1447,-347 1447,-347 1447,-387 1447,-387 1447,-393 1441,-399 1435,-399 1435,-399 1351,-399 1351,-399 1345,-399 1339,-393 1339,-387 1339,-387 1339,-347 1339,-347 1339,-341 1345,-335 1351,-335"/>
<text text-anchor="start" x="1449" y="-363.3" font-family="Arial" font-size="14.00"> &#160;&#160;&#160;</text>
<text text-anchor="start" x="1335.5" y="-320.8" font-family="Arial" font-weight="bold" font-size="14.00">prev_168h_inflow</text>
</g>
<!-- 15&#45;&gt;21 -->
<g id="edge16" class="edge">
<title>15&#45;&gt;21</title>
<path fill="none" stroke="#888888" d="M1232.27,-468.54C1254.73,-454.49 1279.2,-439.18 1302.12,-424.85"/>
<polygon fill="#888888" stroke="#888888" points="1304.19,-427.68 1310.82,-419.41 1300.48,-421.74 1304.19,-427.68"/>
</g>
<!-- 4 -->
<g id="node6" class="node">
<title>4</title>
<text text-anchor="start" x="189" y="-253.8" font-family="Arial" font-weight="bold" font-size="14.00"> &lt; 64.39</text>
<text text-anchor="start" x="142" y="-209.3" font-family="Arial" font-size="14.00"> &#160;&#160;&#160;</text>
<path fill="#ebebeb" stroke="transparent" d="M172,-181C172,-181 256,-181 256,-181 262,-181 268,-187 268,-193 268,-193 268,-233 268,-233 268,-239 262,-245 256,-245 256,-245 172,-245 172,-245 166,-245 160,-239 160,-233 160,-233 160,-193 160,-193 160,-187 166,-181 172,-181"/>
<text text-anchor="start" x="161" y="-242.4" font-family="Arial" font-size="2.00"> </text>
<text text-anchor="start" x="161" y="-236.4" font-family="Arial" font-size="7.00"> &#160;4</text>
<text text-anchor="start" x="175" y="-219.8" font-family="Arial" font-weight="bold" font-size="14.00">Mean: 58.82</text>
<text text-anchor="start" x="194" y="-202.8" font-family="Arial" font-weight="bold" font-size="14.00">n = 36</text>
<text text-anchor="start" x="212.5" y="-184.8" font-family="Arial" font-size="9.00"> </text>
<path fill="none" stroke="#333333" d="M172,-181C172,-181 256,-181 256,-181 262,-181 268,-187 268,-193 268,-193 268,-233 268,-233 268,-239 262,-245 256,-245 256,-245 172,-245 172,-245 166,-245 160,-239 160,-233 160,-233 160,-193 160,-193 160,-187 166,-181 172,-181"/>
<text text-anchor="start" x="270" y="-209.3" font-family="Arial" font-size="14.00"> &#160;&#160;&#160;</text>
<text text-anchor="start" x="156.5" y="-166.8" font-family="Arial" font-weight="bold" font-size="14.00">prev_168h_inflow</text>
</g>
<!-- 3&#45;&gt;4 -->
<g id="edge5" class="edge">
<title>3&#45;&gt;4</title>
<path fill="none" stroke="#888888" d="M318.14,-307.67C307.73,-298.3 296.9,-288.56 286.33,-279.05"/>
<polygon fill="#888888" stroke="#888888" points="288.46,-276.26 278.68,-272.18 283.78,-281.47 288.46,-276.26"/>
</g>
<!-- 7 -->
<g id="node7" class="node">
<title>7</title>
<text text-anchor="start" x="358.5" y="-253.8" font-family="Arial" font-weight="bold" font-size="14.00"> ≥ 64.39</text>
<path fill="#f8766d" fill-opacity="0.792157" stroke="transparent" d="M338,-181C338,-181 428,-181 428,-181 434,-181 440,-187 440,-193 440,-193 440,-233 440,-233 440,-239 434,-245 428,-245 428,-245 338,-245 338,-245 332,-245 326,-239 326,-233 326,-233 326,-193 326,-193 326,-187 332,-181 338,-181"/>
<text text-anchor="start" x="327" y="-242.4" font-family="Arial" font-size="2.00"> </text>
<text text-anchor="start" x="327" y="-236.4" font-family="Arial" font-size="7.00"> &#160;7</text>
<text text-anchor="start" x="341" y="-219.8" font-family="Arial" font-weight="bold" font-size="14.00">Predict 65.29</text>
<text text-anchor="start" x="367" y="-202.8" font-family="Arial" font-weight="bold" font-size="14.00">n = 8</text>
<text text-anchor="start" x="381.5" y="-184.8" font-family="Arial" font-size="9.00"> </text>
<path fill="none" stroke="#333333" d="M338,-181C338,-181 428,-181 428,-181 434,-181 440,-187 440,-193 440,-193 440,-233 440,-233 440,-239 434,-245 428,-245 428,-245 338,-245 338,-245 332,-245 326,-239 326,-233 326,-233 326,-193 326,-193 326,-187 332,-181 338,-181"/>
<text text-anchor="start" x="381" y="-166.8" font-family="Arial" font-weight="bold" font-size="14.00"> </text>
</g>
<!-- 3&#45;&gt;7 -->
<g id="edge6" class="edge">
<title>3&#45;&gt;7</title>
<path fill="none" stroke="#888888" d="M383,-307.67C383,-299.39 383,-290.83 383,-282.38"/>
<polygon fill="#888888" stroke="#888888" points="386.5,-282.18 383,-272.18 379.5,-282.18 386.5,-282.18"/>
</g>
<!-- 9 -->
<g id="node10" class="node">
<title>9</title>
<text text-anchor="start" x="523" y="-253.8" font-family="Arial" font-weight="bold" font-size="14.00"> &lt; 79.65</text>
<text text-anchor="start" x="480" y="-209.3" font-family="Arial" font-size="14.00"> &#160;&#160;</text>
<path fill="#ebebeb" stroke="transparent" d="M506,-181C506,-181 590,-181 590,-181 596,-181 602,-187 602,-193 602,-193 602,-233 602,-233 602,-239 596,-245 590,-245 590,-245 506,-245 506,-245 500,-245 494,-239 494,-233 494,-233 494,-193 494,-193 494,-187 500,-181 506,-181"/>
<text text-anchor="start" x="495" y="-242.4" font-family="Arial" font-size="2.00"> </text>
<text text-anchor="start" x="495" y="-236.4" font-family="Arial" font-size="7.00"> &#160;9</text>
<text text-anchor="start" x="509" y="-219.8" font-family="Arial" font-weight="bold" font-size="14.00">Mean: 74.28</text>
<text text-anchor="start" x="528" y="-202.8" font-family="Arial" font-weight="bold" font-size="14.00">n = 19</text>
<text text-anchor="start" x="546.5" y="-184.8" font-family="Arial" font-size="9.00"> </text>
<path fill="none" stroke="#333333" d="M506,-181C506,-181 590,-181 590,-181 596,-181 602,-187 602,-193 602,-193 602,-233 602,-233 602,-239 596,-245 590,-245 590,-245 506,-245 506,-245 500,-245 494,-239 494,-233 494,-233 494,-193 494,-193 494,-187 500,-181 506,-181"/>
<text text-anchor="start" x="604" y="-209.3" font-family="Arial" font-size="14.00"> &#160;&#160;</text>
<text text-anchor="start" x="494.5" y="-166.8" font-family="Arial" font-weight="bold" font-size="14.00">prev_24h_inflow</text>
</g>
<!-- 8&#45;&gt;9 -->
<g id="edge9" class="edge">
<title>8&#45;&gt;9</title>
<path fill="none" stroke="#888888" d="M602.23,-307.67C597.18,-298.94 591.93,-289.88 586.79,-280.99"/>
<polygon fill="#888888" stroke="#888888" points="589.72,-279.08 581.68,-272.18 583.66,-282.58 589.72,-279.08"/>
</g>
<!-- 12 -->
<g id="node11" class="node">
<title>12</title>
<text text-anchor="start" x="685.5" y="-253.8" font-family="Arial" font-weight="bold" font-size="14.00"> ≥ 79.65</text>
<path fill="#ebebeb" stroke="transparent" d="M668,-181C668,-181 752,-181 752,-181 758,-181 764,-187 764,-193 764,-193 764,-233 764,-233 764,-239 758,-245 752,-245 752,-245 668,-245 668,-245 662,-245 656,-239 656,-233 656,-233 656,-193 656,-193 656,-187 662,-181 668,-181"/>
<text text-anchor="start" x="657" y="-242.4" font-family="Arial" font-size="2.00"> </text>
<text text-anchor="start" x="657" y="-236.4" font-family="Arial" font-size="7.00"> &#160;12</text>
<text text-anchor="start" x="671" y="-219.8" font-family="Arial" font-weight="bold" font-size="14.00">Mean: 82.37</text>
<text text-anchor="start" x="690" y="-202.8" font-family="Arial" font-weight="bold" font-size="14.00">n = 25</text>
<text text-anchor="start" x="708.5" y="-184.8" font-family="Arial" font-size="9.00"> </text>
<path fill="none" stroke="#333333" d="M668,-181C668,-181 752,-181 752,-181 758,-181 764,-187 764,-193 764,-193 764,-233 764,-233 764,-239 758,-245 752,-245 752,-245 668,-245 668,-245 662,-245 656,-239 656,-233 656,-233 656,-193 656,-193 656,-187 662,-181 668,-181"/>
<text text-anchor="start" x="674.5" y="-166.8" font-family="Arial" font-weight="bold" font-size="14.00">windspeed</text>
</g>
<!-- 8&#45;&gt;12 -->
<g id="edge10" class="edge">
<title>8&#45;&gt;12</title>
<path fill="none" stroke="#888888" d="M664.4,-307.67C668.6,-299.03 672.97,-290.07 677.25,-281.27"/>
<polygon fill="#888888" stroke="#888888" points="680.45,-282.7 681.68,-272.18 674.15,-279.64 680.45,-282.7"/>
</g>
<!-- 5 -->
<g id="node8" class="node">
<title>5</title>
<text text-anchor="start" x="44" y="-99.8" font-family="Arial" font-weight="bold" font-size="14.00"> &lt; 60.06</text>
<path fill="#f8766d" fill-opacity="0.874510" stroke="transparent" d="M24,-27C24,-27 114,-27 114,-27 120,-27 126,-33 126,-39 126,-39 126,-79 126,-79 126,-85 120,-91 114,-91 114,-91 24,-91 24,-91 18,-91 12,-85 12,-79 12,-79 12,-39 12,-39 12,-33 18,-27 24,-27"/>
<text text-anchor="start" x="13" y="-88.4" font-family="Arial" font-size="2.00"> </text>
<text text-anchor="start" x="13" y="-82.4" font-family="Arial" font-size="7.00"> &#160;5</text>
<text text-anchor="start" x="27" y="-65.8" font-family="Arial" font-weight="bold" font-size="14.00">Predict 57.85</text>
<text text-anchor="start" x="49" y="-48.8" font-family="Arial" font-weight="bold" font-size="14.00">n = 21</text>
<text text-anchor="start" x="67.5" y="-30.8" font-family="Arial" font-size="9.00"> </text>
<path fill="none" stroke="#333333" d="M24,-27C24,-27 114,-27 114,-27 120,-27 126,-33 126,-39 126,-39 126,-79 126,-79 126,-85 120,-91 114,-91 114,-91 24,-91 24,-91 18,-91 12,-85 12,-79 12,-79 12,-39 12,-39 12,-33 18,-27 24,-27"/>
<text text-anchor="start" x="67" y="-12.8" font-family="Arial" font-weight="bold" font-size="14.00"> </text>
</g>
<!-- 4&#45;&gt;5 -->
<g id="edge7" class="edge">
<title>4&#45;&gt;5</title>
<path fill="none" stroke="#888888" d="M158.35,-153.67C149.59,-144.49 140.49,-134.94 131.58,-125.6"/>
<polygon fill="#888888" stroke="#888888" points="133.93,-123 124.5,-118.18 128.87,-127.83 133.93,-123"/>
</g>
<!-- 6 -->
<g id="node9" class="node">
<title>6</title>
<text text-anchor="start" x="200.5" y="-99.8" font-family="Arial" font-weight="bold" font-size="14.00"> ≥ 60.06</text>
<path fill="#f8766d" fill-opacity="0.847059" stroke="transparent" d="M180,-27C180,-27 270,-27 270,-27 276,-27 282,-33 282,-39 282,-39 282,-79 282,-79 282,-85 276,-91 270,-91 270,-91 180,-91 180,-91 174,-91 168,-85 168,-79 168,-79 168,-39 168,-39 168,-33 174,-27 180,-27"/>
<text text-anchor="start" x="169" y="-88.4" font-family="Arial" font-size="2.00"> </text>
<text text-anchor="start" x="169" y="-82.4" font-family="Arial" font-size="7.00"> &#160;6</text>
<text text-anchor="start" x="183" y="-65.8" font-family="Arial" font-weight="bold" font-size="14.00">Predict 60.17</text>
<text text-anchor="start" x="205" y="-48.8" font-family="Arial" font-weight="bold" font-size="14.00">n = 15</text>
<text text-anchor="start" x="223.5" y="-30.8" font-family="Arial" font-size="9.00"> </text>
<path fill="none" stroke="#333333" d="M180,-27C180,-27 270,-27 270,-27 276,-27 282,-33 282,-39 282,-39 282,-79 282,-79 282,-85 276,-91 270,-91 270,-91 180,-91 180,-91 174,-91 168,-85 168,-79 168,-79 168,-39 168,-39 168,-33 174,-27 180,-27"/>
<text text-anchor="start" x="223" y="-12.8" font-family="Arial" font-weight="bold" font-size="14.00"> </text>
</g>
<!-- 4&#45;&gt;6 -->
<g id="edge8" class="edge">
<title>4&#45;&gt;6</title>
<path fill="none" stroke="#888888" d="M218.22,-153.67C218.82,-145.39 219.44,-136.83 220.05,-128.38"/>
<polygon fill="#888888" stroke="#888888" points="223.56,-128.4 220.79,-118.18 216.58,-127.9 223.56,-128.4"/>
</g>
<!-- 10 -->
<g id="node12" class="node">
<title>10</title>
<text text-anchor="start" x="376.5" y="-99.8" font-family="Arial" font-weight="bold" font-size="14.00"> &lt; 74</text>
<path fill="#f8766d" fill-opacity="0.709804" stroke="transparent" d="M347,-27C347,-27 437,-27 437,-27 443,-27 449,-33 449,-39 449,-39 449,-79 449,-79 449,-85 443,-91 437,-91 437,-91 347,-91 347,-91 341,-91 335,-85 335,-79 335,-79 335,-39 335,-39 335,-33 341,-27 347,-27"/>
<text text-anchor="start" x="336" y="-88.4" font-family="Arial" font-size="2.00"> </text>
<text text-anchor="start" x="336" y="-82.4" font-family="Arial" font-size="7.00"> &#160;10</text>
<text text-anchor="start" x="350" y="-65.8" font-family="Arial" font-weight="bold" font-size="14.00">Predict 72.44</text>
<text text-anchor="start" x="372" y="-48.8" font-family="Arial" font-weight="bold" font-size="14.00">n = 10</text>
<text text-anchor="start" x="390.5" y="-30.8" font-family="Arial" font-size="9.00"> </text>
<path fill="none" stroke="#333333" d="M347,-27C347,-27 437,-27 437,-27 443,-27 449,-33 449,-39 449,-39 449,-79 449,-79 449,-85 443,-91 437,-91 437,-91 347,-91 347,-91 341,-91 335,-85 335,-79 335,-79 335,-39 335,-39 335,-33 341,-27 347,-27"/>
<text text-anchor="start" x="390" y="-12.8" font-family="Arial" font-weight="bold" font-size="14.00"> </text>
</g>
<!-- 9&#45;&gt;10 -->
<g id="edge11" class="edge">
<title>9&#45;&gt;10</title>
<path fill="none" stroke="#888888" d="M488.13,-153.67C478.62,-144.39 468.72,-134.75 459.05,-125.33"/>
<polygon fill="#888888" stroke="#888888" points="461.31,-122.65 451.71,-118.18 456.43,-127.66 461.31,-122.65"/>
</g>
<!-- 11 -->
<g id="node13" class="node">
<title>11</title>
<text text-anchor="start" x="532.5" y="-99.8" font-family="Arial" font-weight="bold" font-size="14.00"> ≥ 74</text>
<path fill="#f8766d" fill-opacity="0.666667" stroke="transparent" d="M503,-27C503,-27 593,-27 593,-27 599,-27 605,-33 605,-39 605,-39 605,-79 605,-79 605,-85 599,-91 593,-91 593,-91 503,-91 503,-91 497,-91 491,-85 491,-79 491,-79 491,-39 491,-39 491,-33 497,-27 503,-27"/>
<text text-anchor="start" x="492" y="-88.4" font-family="Arial" font-size="2.00"> </text>
<text text-anchor="start" x="492" y="-82.4" font-family="Arial" font-size="7.00"> &#160;11</text>
<text text-anchor="start" x="506" y="-65.8" font-family="Arial" font-weight="bold" font-size="14.00">Predict 76.31</text>
<text text-anchor="start" x="532" y="-48.8" font-family="Arial" font-weight="bold" font-size="14.00">n = 9</text>
<text text-anchor="start" x="546.5" y="-30.8" font-family="Arial" font-size="9.00"> </text>
<path fill="none" stroke="#333333" d="M503,-27C503,-27 593,-27 593,-27 599,-27 605,-33 605,-39 605,-39 605,-79 605,-79 605,-85 599,-91 593,-91 593,-91 503,-91 503,-91 497,-91 491,-85 491,-79 491,-79 491,-39 491,-39 491,-33 497,-27 503,-27"/>
<text text-anchor="start" x="546" y="-12.8" font-family="Arial" font-weight="bold" font-size="14.00"> </text>
</g>
<!-- 9&#45;&gt;11 -->
<g id="edge12" class="edge">
<title>9&#45;&gt;11</title>
<path fill="none" stroke="#888888" d="M548,-153.67C548,-145.39 548,-136.83 548,-128.38"/>
<polygon fill="#888888" stroke="#888888" points="551.5,-128.18 548,-118.18 544.5,-128.18 551.5,-128.18"/>
</g>
<!-- 13 -->
<g id="node14" class="node">
<title>13</title>
<text text-anchor="start" x="684.5" y="-99.8" font-family="Arial" font-weight="bold" font-size="14.00"> &lt; 18</text>
<path fill="#f8766d" fill-opacity="0.603922" stroke="transparent" d="M659,-27C659,-27 741,-27 741,-27 747,-27 753,-33 753,-39 753,-39 753,-79 753,-79 753,-85 747,-91 741,-91 741,-91 659,-91 659,-91 653,-91 647,-85 647,-79 647,-79 647,-39 647,-39 647,-33 653,-27 659,-27"/>
<text text-anchor="start" x="648" y="-88.4" font-family="Arial" font-size="2.00"> </text>
<text text-anchor="start" x="648" y="-82.4" font-family="Arial" font-size="7.00"> &#160;13</text>
<text text-anchor="start" x="662" y="-65.8" font-family="Arial" font-weight="bold" font-size="14.00">Predict 81.8</text>
<text text-anchor="start" x="680" y="-48.8" font-family="Arial" font-weight="bold" font-size="14.00">n = 20</text>
<text text-anchor="start" x="698.5" y="-30.8" font-family="Arial" font-size="9.00"> </text>
<path fill="none" stroke="#333333" d="M659,-27C659,-27 741,-27 741,-27 747,-27 753,-33 753,-39 753,-39 753,-79 753,-79 753,-85 747,-91 741,-91 741,-91 659,-91 659,-91 653,-91 647,-85 647,-79 647,-79 647,-39 647,-39 647,-33 653,-27 659,-27"/>
<text text-anchor="start" x="698" y="-12.8" font-family="Arial" font-weight="bold" font-size="14.00"> </text>
</g>
<!-- 12&#45;&gt;13 -->
<g id="edge13" class="edge">
<title>12&#45;&gt;13</title>
<path fill="none" stroke="#888888" d="M706.16,-153.67C705.62,-145.39 705.05,-136.83 704.5,-128.38"/>
<polygon fill="#888888" stroke="#888888" points="707.98,-127.92 703.83,-118.18 700.99,-128.38 707.98,-127.92"/>
</g>
<!-- 14 -->
<g id="node15" class="node">
<title>14</title>
<text text-anchor="start" x="836.5" y="-99.8" font-family="Arial" font-weight="bold" font-size="14.00"> ≥ 18</text>
<path fill="#f8766d" fill-opacity="0.568627" stroke="transparent" d="M807,-27C807,-27 897,-27 897,-27 903,-27 909,-33 909,-39 909,-39 909,-79 909,-79 909,-85 903,-91 897,-91 897,-91 807,-91 807,-91 801,-91 795,-85 795,-79 795,-79 795,-39 795,-39 795,-33 801,-27 807,-27"/>
<text text-anchor="start" x="796" y="-88.4" font-family="Arial" font-size="2.00"> </text>
<text text-anchor="start" x="796" y="-82.4" font-family="Arial" font-size="7.00"> &#160;14</text>
<text text-anchor="start" x="810" y="-65.8" font-family="Arial" font-weight="bold" font-size="14.00">Predict 84.64</text>
<text text-anchor="start" x="836" y="-48.8" font-family="Arial" font-weight="bold" font-size="14.00">n = 5</text>
<text text-anchor="start" x="850.5" y="-30.8" font-family="Arial" font-size="9.00"> </text>
<path fill="none" stroke="#333333" d="M807,-27C807,-27 897,-27 897,-27 903,-27 909,-33 909,-39 909,-39 909,-79 909,-79 909,-85 903,-91 897,-91 897,-91 807,-91 807,-91 801,-91 795,-85 795,-79 795,-79 795,-39 795,-39 795,-33 801,-27 807,-27"/>
<text text-anchor="start" x="850" y="-12.8" font-family="Arial" font-weight="bold" font-size="14.00"> </text>
</g>
<!-- 12&#45;&gt;14 -->
<g id="edge14" class="edge">
<title>12&#45;&gt;14</title>
<path fill="none" stroke="#888888" d="M764.49,-153.67C773.07,-144.49 781.99,-134.94 790.71,-125.6"/>
<polygon fill="#888888" stroke="#888888" points="793.38,-127.87 797.65,-118.18 788.27,-123.09 793.38,-127.87"/>
</g>
<!-- 17 -->
<g id="node18" class="node">
<title>17</title>
<text text-anchor="start" x="1058.5" y="-253.8" font-family="Arial" font-weight="bold" font-size="14.00"> &lt; 89.31</text>
<text text-anchor="start" x="1033" y="-209.3" font-family="Arial" font-size="14.00"> </text>
<path fill="#ebebeb" stroke="transparent" d="M1051,-181C1051,-181 1116,-181 1116,-181 1122,-181 1128,-187 1128,-193 1128,-193 1128,-233 1128,-233 1128,-239 1122,-245 1116,-245 1116,-245 1051,-245 1051,-245 1045,-245 1039,-239 1039,-233 1039,-233 1039,-193 1039,-193 1039,-187 1045,-181 1051,-181"/>
<text text-anchor="start" x="1040" y="-242.4" font-family="Arial" font-size="2.00"> </text>
<text text-anchor="start" x="1040" y="-236.4" font-family="Arial" font-size="7.00"> &#160;17</text>
<text text-anchor="start" x="1054" y="-219.8" font-family="Arial" font-weight="bold" font-size="14.00">Mean: 87</text>
<text text-anchor="start" x="1063.5" y="-202.8" font-family="Arial" font-weight="bold" font-size="14.00">n = 27</text>
<text text-anchor="start" x="1082" y="-184.8" font-family="Arial" font-size="9.00"> </text>
<path fill="none" stroke="#333333" d="M1051,-181C1051,-181 1116,-181 1116,-181 1122,-181 1128,-187 1128,-193 1128,-193 1128,-233 1128,-233 1128,-239 1122,-245 1116,-245 1116,-245 1051,-245 1051,-245 1045,-245 1039,-239 1039,-233 1039,-233 1039,-193 1039,-193 1039,-187 1045,-181 1051,-181"/>
<text text-anchor="start" x="1130" y="-209.3" font-family="Arial" font-size="14.00"> </text>
<text text-anchor="start" x="1050.5" y="-166.8" font-family="Arial" font-weight="bold" font-size="14.00">air_humid</text>
</g>
<!-- 16&#45;&gt;17 -->
<g id="edge17" class="edge">
<title>16&#45;&gt;17</title>
<path fill="none" stroke="#888888" d="M1124.29,-307.67C1120.52,-299.12 1116.61,-290.26 1112.77,-281.55"/>
<polygon fill="#888888" stroke="#888888" points="1115.88,-279.92 1108.64,-272.18 1109.47,-282.74 1115.88,-279.92"/>
</g>
<!-- 20 -->
<g id="node19" class="node">
<title>20</title>
<text text-anchor="start" x="1206.5" y="-253.8" font-family="Arial" font-weight="bold" font-size="14.00"> ≥ 89.31</text>
<path fill="#f8766d" fill-opacity="0.513725" stroke="transparent" d="M1186,-181C1186,-181 1276,-181 1276,-181 1282,-181 1288,-187 1288,-193 1288,-193 1288,-233 1288,-233 1288,-239 1282,-245 1276,-245 1276,-245 1186,-245 1186,-245 1180,-245 1174,-239 1174,-233 1174,-233 1174,-193 1174,-193 1174,-187 1180,-181 1186,-181"/>
<text text-anchor="start" x="1175" y="-242.4" font-family="Arial" font-size="2.00"> </text>
<text text-anchor="start" x="1175" y="-236.4" font-family="Arial" font-size="7.00"> &#160;20</text>
<text text-anchor="start" x="1189" y="-219.8" font-family="Arial" font-weight="bold" font-size="14.00">Predict 89.51</text>
<text text-anchor="start" x="1211" y="-202.8" font-family="Arial" font-weight="bold" font-size="14.00">n = 18</text>
<text text-anchor="start" x="1229.5" y="-184.8" font-family="Arial" font-size="9.00"> </text>
<path fill="none" stroke="#333333" d="M1186,-181C1186,-181 1276,-181 1276,-181 1282,-181 1288,-187 1288,-193 1288,-193 1288,-233 1288,-233 1288,-239 1282,-245 1276,-245 1276,-245 1186,-245 1186,-245 1180,-245 1174,-239 1174,-233 1174,-233 1174,-193 1174,-193 1174,-187 1180,-181 1186,-181"/>
<text text-anchor="start" x="1229" y="-166.8" font-family="Arial" font-weight="bold" font-size="14.00"> </text>
</g>
<!-- 16&#45;&gt;20 -->
<g id="edge18" class="edge">
<title>16&#45;&gt;20</title>
<path fill="none" stroke="#888888" d="M1181.09,-307.67C1185.69,-299.03 1190.46,-290.07 1195.15,-281.27"/>
<polygon fill="#888888" stroke="#888888" points="1198.38,-282.65 1200,-272.18 1192.21,-279.36 1198.38,-282.65"/>
</g>
<!-- 22 -->
<g id="node22" class="node">
<title>22</title>
<text text-anchor="start" x="1368" y="-253.8" font-family="Arial" font-weight="bold" font-size="14.00"> &lt; 99.18</text>
<text text-anchor="start" x="1329" y="-209.3" font-family="Arial" font-size="14.00"> &#160;</text>
<path fill="#ebebeb" stroke="transparent" d="M1351,-181C1351,-181 1435,-181 1435,-181 1441,-181 1447,-187 1447,-193 1447,-193 1447,-233 1447,-233 1447,-239 1441,-245 1435,-245 1435,-245 1351,-245 1351,-245 1345,-245 1339,-239 1339,-233 1339,-233 1339,-193 1339,-193 1339,-187 1345,-181 1351,-181"/>
<text text-anchor="start" x="1340" y="-242.4" font-family="Arial" font-size="2.00"> </text>
<text text-anchor="start" x="1340" y="-236.4" font-family="Arial" font-size="7.00"> &#160;22</text>
<text text-anchor="start" x="1354" y="-219.8" font-family="Arial" font-weight="bold" font-size="14.00">Mean: 94.51</text>
<text text-anchor="start" x="1373" y="-202.8" font-family="Arial" font-weight="bold" font-size="14.00">n = 19</text>
<text text-anchor="start" x="1391.5" y="-184.8" font-family="Arial" font-size="9.00"> </text>
<path fill="none" stroke="#333333" d="M1351,-181C1351,-181 1435,-181 1435,-181 1441,-181 1447,-187 1447,-193 1447,-193 1447,-233 1447,-233 1447,-239 1441,-245 1435,-245 1435,-245 1351,-245 1351,-245 1345,-245 1339,-239 1339,-233 1339,-233 1339,-193 1339,-193 1339,-187 1345,-181 1351,-181"/>
<text text-anchor="start" x="1449" y="-209.3" font-family="Arial" font-size="14.00"> &#160;</text>
<text text-anchor="start" x="1343" y="-166.8" font-family="Arial" font-weight="bold" font-size="14.00">prev_1h_inflow</text>
</g>
<!-- 21&#45;&gt;22 -->
<g id="edge21" class="edge">
<title>21&#45;&gt;22</title>
<path fill="none" stroke="#888888" d="M1393,-307.67C1393,-299.39 1393,-290.83 1393,-282.38"/>
<polygon fill="#888888" stroke="#888888" points="1396.5,-282.18 1393,-272.18 1389.5,-282.18 1396.5,-282.18"/>
</g>
<!-- 25 -->
<g id="node23" class="node">
<title>25</title>
<text text-anchor="start" x="1607.5" y="-253.8" font-family="Arial" font-weight="bold" font-size="14.00"> ≥ 99.18</text>
<text text-anchor="start" x="1568" y="-209.3" font-family="Arial" font-size="14.00"> &#160;</text>
<path fill="#ebebeb" stroke="transparent" d="M1590,-181C1590,-181 1674,-181 1674,-181 1680,-181 1686,-187 1686,-193 1686,-193 1686,-233 1686,-233 1686,-239 1680,-245 1674,-245 1674,-245 1590,-245 1590,-245 1584,-245 1578,-239 1578,-233 1578,-233 1578,-193 1578,-193 1578,-187 1584,-181 1590,-181"/>
<text text-anchor="start" x="1579" y="-242.4" font-family="Arial" font-size="2.00"> </text>
<text text-anchor="start" x="1579" y="-236.4" font-family="Arial" font-size="7.00"> &#160;25</text>
<text text-anchor="start" x="1593" y="-219.8" font-family="Arial" font-weight="bold" font-size="14.00">Mean: 100.5</text>
<text text-anchor="start" x="1612" y="-202.8" font-family="Arial" font-weight="bold" font-size="14.00">n = 16</text>
<text text-anchor="start" x="1630.5" y="-184.8" font-family="Arial" font-size="9.00"> </text>
<path fill="none" stroke="#333333" d="M1590,-181C1590,-181 1674,-181 1674,-181 1680,-181 1686,-187 1686,-193 1686,-193 1686,-233 1686,-233 1686,-239 1680,-245 1674,-245 1674,-245 1590,-245 1590,-245 1584,-245 1578,-239 1578,-233 1578,-233 1578,-193 1578,-193 1578,-187 1584,-181 1590,-181"/>
<text text-anchor="start" x="1688" y="-209.3" font-family="Arial" font-size="14.00"> &#160;</text>
<text text-anchor="start" x="1582" y="-166.8" font-family="Arial" font-weight="bold" font-size="14.00">prev_1h_inflow</text>
</g>
<!-- 21&#45;&gt;25 -->
<g id="edge22" class="edge">
<title>21&#45;&gt;25</title>
<path fill="none" stroke="#888888" d="M1475.25,-313.69C1499.06,-298.55 1525.07,-282.01 1548.93,-266.83"/>
<polygon fill="#888888" stroke="#888888" points="1551.05,-269.63 1557.61,-261.31 1547.3,-263.72 1551.05,-269.63"/>
</g>
<!-- 18 -->
<g id="node20" class="node">
<title>18</title>
<text text-anchor="start" x="986.5" y="-99.8" font-family="Arial" font-weight="bold" font-size="14.00"> &lt; 86.5</text>
<path fill="#f8766d" fill-opacity="0.505882" stroke="transparent" d="M963,-27C963,-27 1053,-27 1053,-27 1059,-27 1065,-33 1065,-39 1065,-39 1065,-79 1065,-79 1065,-85 1059,-91 1053,-91 1053,-91 963,-91 963,-91 957,-91 951,-85 951,-79 951,-79 951,-39 951,-39 951,-33 957,-27 963,-27"/>
<text text-anchor="start" x="952" y="-88.4" font-family="Arial" font-size="2.00"> </text>
<text text-anchor="start" x="952" y="-82.4" font-family="Arial" font-size="7.00"> &#160;18</text>
<text text-anchor="start" x="966" y="-65.8" font-family="Arial" font-weight="bold" font-size="14.00">Predict 90.33</text>
<text text-anchor="start" x="992" y="-48.8" font-family="Arial" font-weight="bold" font-size="14.00">n = 4</text>
<text text-anchor="start" x="1006.5" y="-30.8" font-family="Arial" font-size="9.00"> </text>
<path fill="none" stroke="#333333" d="M963,-27C963,-27 1053,-27 1053,-27 1059,-27 1065,-33 1065,-39 1065,-39 1065,-79 1065,-79 1065,-85 1059,-91 1053,-91 1053,-91 963,-91 963,-91 957,-91 951,-85 951,-79 951,-79 951,-39 951,-39 951,-33 957,-27 963,-27"/>
<text text-anchor="start" x="1006" y="-12.8" font-family="Arial" font-weight="bold" font-size="14.00"> </text>
</g>
<!-- 17&#45;&gt;18 -->
<g id="edge19" class="edge">
<title>17&#45;&gt;18</title>
<path fill="none" stroke="#888888" d="M1054.22,-153.67C1049.96,-145.03 1045.54,-136.07 1041.19,-127.27"/>
<polygon fill="#888888" stroke="#888888" points="1044.27,-125.6 1036.71,-118.18 1037.99,-128.69 1044.27,-125.6"/>
</g>
<!-- 19 -->
<g id="node21" class="node">
<title>19</title>
<text text-anchor="start" x="1143" y="-99.8" font-family="Arial" font-weight="bold" font-size="14.00"> ≥ 86.5</text>
<path fill="#f8766d" fill-opacity="0.549020" stroke="transparent" d="M1119,-27C1119,-27 1209,-27 1209,-27 1215,-27 1221,-33 1221,-39 1221,-39 1221,-79 1221,-79 1221,-85 1215,-91 1209,-91 1209,-91 1119,-91 1119,-91 1113,-91 1107,-85 1107,-79 1107,-79 1107,-39 1107,-39 1107,-33 1113,-27 1119,-27"/>
<text text-anchor="start" x="1108" y="-88.4" font-family="Arial" font-size="2.00"> </text>
<text text-anchor="start" x="1108" y="-82.4" font-family="Arial" font-size="7.00"> &#160;19</text>
<text text-anchor="start" x="1122" y="-65.8" font-family="Arial" font-weight="bold" font-size="14.00">Predict 86.42</text>
<text text-anchor="start" x="1144" y="-48.8" font-family="Arial" font-weight="bold" font-size="14.00">n = 23</text>
<text text-anchor="start" x="1162.5" y="-30.8" font-family="Arial" font-size="9.00"> </text>
<path fill="none" stroke="#333333" d="M1119,-27C1119,-27 1209,-27 1209,-27 1215,-27 1221,-33 1221,-39 1221,-39 1221,-79 1221,-79 1221,-85 1215,-91 1209,-91 1209,-91 1119,-91 1119,-91 1113,-91 1107,-85 1107,-79 1107,-79 1107,-39 1107,-39 1107,-33 1113,-27 1119,-27"/>
<text text-anchor="start" x="1162" y="-12.8" font-family="Arial" font-weight="bold" font-size="14.00"> </text>
</g>
<!-- 17&#45;&gt;19 -->
<g id="edge20" class="edge">
<title>17&#45;&gt;19</title>
<path fill="none" stroke="#888888" d="M1114.09,-153.67C1118.69,-145.03 1123.46,-136.07 1128.15,-127.27"/>
<polygon fill="#888888" stroke="#888888" points="1131.38,-128.65 1133,-118.18 1125.21,-125.36 1131.38,-128.65"/>
</g>
<!-- 23 -->
<g id="node24" class="node">
<title>23</title>
<text text-anchor="start" x="1295" y="-99.8" font-family="Arial" font-weight="bold" font-size="14.00"> &lt; 99.92</text>
<path fill="#f8766d" fill-opacity="0.470588" stroke="transparent" d="M1275,-27C1275,-27 1365,-27 1365,-27 1371,-27 1377,-33 1377,-39 1377,-39 1377,-79 1377,-79 1377,-85 1371,-91 1365,-91 1365,-91 1275,-91 1275,-91 1269,-91 1263,-85 1263,-79 1263,-79 1263,-39 1263,-39 1263,-33 1269,-27 1275,-27"/>
<text text-anchor="start" x="1264" y="-88.4" font-family="Arial" font-size="2.00"> </text>
<text text-anchor="start" x="1264" y="-82.4" font-family="Arial" font-size="7.00"> &#160;23</text>
<text text-anchor="start" x="1278" y="-65.8" font-family="Arial" font-weight="bold" font-size="14.00">Predict 93.41</text>
<text text-anchor="start" x="1300" y="-48.8" font-family="Arial" font-weight="bold" font-size="14.00">n = 13</text>
<text text-anchor="start" x="1318.5" y="-30.8" font-family="Arial" font-size="9.00"> </text>
<path fill="none" stroke="#333333" d="M1275,-27C1275,-27 1365,-27 1365,-27 1371,-27 1377,-33 1377,-39 1377,-39 1377,-79 1377,-79 1377,-85 1371,-91 1365,-91 1365,-91 1275,-91 1275,-91 1269,-91 1263,-85 1263,-79 1263,-79 1263,-39 1263,-39 1263,-33 1269,-27 1275,-27"/>
<text text-anchor="start" x="1318" y="-12.8" font-family="Arial" font-weight="bold" font-size="14.00"> </text>
</g>
<!-- 22&#45;&gt;23 -->
<g id="edge23" class="edge">
<title>22&#45;&gt;23</title>
<path fill="none" stroke="#888888" d="M1364.99,-153.67C1360.84,-145.03 1356.53,-136.07 1352.31,-127.27"/>
<polygon fill="#888888" stroke="#888888" points="1355.42,-125.68 1347.94,-118.18 1349.11,-128.71 1355.42,-125.68"/>
</g>
<!-- 24 -->
<g id="node25" class="node">
<title>24</title>
<text text-anchor="start" x="1451.5" y="-99.8" font-family="Arial" font-weight="bold" font-size="14.00"> ≥ 99.92</text>
<path fill="#f8766d" fill-opacity="0.431373" stroke="transparent" d="M1431,-27C1431,-27 1521,-27 1521,-27 1527,-27 1533,-33 1533,-39 1533,-39 1533,-79 1533,-79 1533,-85 1527,-91 1521,-91 1521,-91 1431,-91 1431,-91 1425,-91 1419,-85 1419,-79 1419,-79 1419,-39 1419,-39 1419,-33 1425,-27 1431,-27"/>
<text text-anchor="start" x="1420" y="-88.4" font-family="Arial" font-size="2.00"> </text>
<text text-anchor="start" x="1420" y="-82.4" font-family="Arial" font-size="7.00"> &#160;24</text>
<text text-anchor="start" x="1434" y="-65.8" font-family="Arial" font-weight="bold" font-size="14.00">Predict 96.88</text>
<text text-anchor="start" x="1460" y="-48.8" font-family="Arial" font-weight="bold" font-size="14.00">n = 6</text>
<text text-anchor="start" x="1474.5" y="-30.8" font-family="Arial" font-size="9.00"> </text>
<path fill="none" stroke="#333333" d="M1431,-27C1431,-27 1521,-27 1521,-27 1527,-27 1533,-33 1533,-39 1533,-39 1533,-79 1533,-79 1533,-85 1527,-91 1521,-91 1521,-91 1431,-91 1431,-91 1425,-91 1419,-85 1419,-79 1419,-79 1419,-39 1419,-39 1419,-33 1425,-27 1431,-27"/>
<text text-anchor="start" x="1474" y="-12.8" font-family="Arial" font-weight="bold" font-size="14.00"> </text>
</g>
<!-- 22&#45;&gt;24 -->
<g id="edge24" class="edge">
<title>22&#45;&gt;24</title>
<path fill="none" stroke="#888888" d="M1424.85,-153.67C1429.62,-144.94 1434.56,-135.88 1439.42,-126.99"/>
<polygon fill="#888888" stroke="#888888" points="1442.51,-128.63 1444.23,-118.18 1436.37,-125.28 1442.51,-128.63"/>
</g>
<!-- 26 -->
<g id="node26" class="node">
<title>26</title>
<text text-anchor="start" x="1607" y="-99.8" font-family="Arial" font-weight="bold" font-size="14.00"> &lt; 75.56</text>
<path fill="#f8766d" fill-opacity="0.454902" stroke="transparent" d="M1587,-27C1587,-27 1677,-27 1677,-27 1683,-27 1689,-33 1689,-39 1689,-39 1689,-79 1689,-79 1689,-85 1683,-91 1677,-91 1677,-91 1587,-91 1587,-91 1581,-91 1575,-85 1575,-79 1575,-79 1575,-39 1575,-39 1575,-33 1581,-27 1587,-27"/>
<text text-anchor="start" x="1576" y="-88.4" font-family="Arial" font-size="2.00"> </text>
<text text-anchor="start" x="1576" y="-82.4" font-family="Arial" font-size="7.00"> &#160;26</text>
<text text-anchor="start" x="1590" y="-65.8" font-family="Arial" font-weight="bold" font-size="14.00">Predict 94.92</text>
<text text-anchor="start" x="1616" y="-48.8" font-family="Arial" font-weight="bold" font-size="14.00">n = 3</text>
<text text-anchor="start" x="1630.5" y="-30.8" font-family="Arial" font-size="9.00"> </text>
<path fill="none" stroke="#333333" d="M1587,-27C1587,-27 1677,-27 1677,-27 1683,-27 1689,-33 1689,-39 1689,-39 1689,-79 1689,-79 1689,-85 1683,-91 1677,-91 1677,-91 1587,-91 1587,-91 1581,-91 1575,-85 1575,-79 1575,-79 1575,-39 1575,-39 1575,-33 1581,-27 1587,-27"/>
<text text-anchor="start" x="1630" y="-12.8" font-family="Arial" font-weight="bold" font-size="14.00"> </text>
</g>
<!-- 25&#45;&gt;26 -->
<g id="edge25" class="edge">
<title>25&#45;&gt;26</title>
<path fill="none" stroke="#888888" d="M1632,-153.67C1632,-145.39 1632,-136.83 1632,-128.38"/>
<polygon fill="#888888" stroke="#888888" points="1635.5,-128.18 1632,-118.18 1628.5,-128.18 1635.5,-128.18"/>
</g>
<!-- 27 -->
<g id="node27" class="node">
<title>27</title>
<text text-anchor="start" x="1763.5" y="-99.8" font-family="Arial" font-weight="bold" font-size="14.00"> ≥ 75.56</text>
<path fill="#f8766d" fill-opacity="0.376471" stroke="transparent" d="M1743,-27C1743,-27 1833,-27 1833,-27 1839,-27 1845,-33 1845,-39 1845,-39 1845,-79 1845,-79 1845,-85 1839,-91 1833,-91 1833,-91 1743,-91 1743,-91 1737,-91 1731,-85 1731,-79 1731,-79 1731,-39 1731,-39 1731,-33 1737,-27 1743,-27"/>
<text text-anchor="start" x="1732" y="-88.4" font-family="Arial" font-size="2.00"> </text>
<text text-anchor="start" x="1732" y="-82.4" font-family="Arial" font-size="7.00"> &#160;27</text>
<text text-anchor="start" x="1746" y="-65.8" font-family="Arial" font-weight="bold" font-size="14.00">Predict 101.8</text>
<text text-anchor="start" x="1768" y="-48.8" font-family="Arial" font-weight="bold" font-size="14.00">n = 13</text>
<text text-anchor="start" x="1786.5" y="-30.8" font-family="Arial" font-size="9.00"> </text>
<path fill="none" stroke="#333333" d="M1743,-27C1743,-27 1833,-27 1833,-27 1839,-27 1845,-33 1845,-39 1845,-39 1845,-79 1845,-79 1845,-85 1839,-91 1833,-91 1833,-91 1743,-91 1743,-91 1737,-91 1731,-85 1731,-79 1731,-79 1731,-39 1731,-39 1731,-33 1737,-27 1743,-27"/>
<text text-anchor="start" x="1786" y="-12.8" font-family="Arial" font-weight="bold" font-size="14.00"> </text>
</g>
<!-- 25&#45;&gt;27 -->
<g id="edge26" class="edge">
<title>25&#45;&gt;27</title>
<path fill="none" stroke="#888888" d="M1691.87,-153.67C1701.38,-144.39 1711.28,-134.75 1720.95,-125.33"/>
<polygon fill="#888888" stroke="#888888" points="1723.57,-127.66 1728.29,-118.18 1718.69,-122.65 1723.57,-127.66"/>
</g>
</g>
</svg>
