<?xml version="1.0" encoding="UTF-8" standalone="no"?>
<!DOCTYPE svg PUBLIC "-//W3C//DTD SVG 1.1//EN"
 "http://www.w3.org/Graphics/SVG/1.1/DTD/svg11.dtd">
<!-- Generated by graphviz version 2.50.0 (20211204.2007)
 -->
<!-- Pages: 1 -->
<svg width="1719pt" height="742pt"
 viewBox="0.00 0.00 1719.00 742.00" xmlns="http://www.w3.org/2000/svg" xmlns:xlink="http://www.w3.org/1999/xlink">
<g id="graph0" class="graph" transform="scale(1 1) rotate(0) translate(4 738)">
<polygon fill="white" stroke="transparent" points="-4,4 -4,-738 1715,-738 1715,4 -4,4"/>
<!-- 1 -->
<g id="node1" class="node">
<title>1</title>
<text text-anchor="start" x="586" y="-715.8" font-family="Arial" font-weight="bold" font-size="14.00"> </text>
<text text-anchor="start" x="516" y="-671.3" font-family="Arial" font-size="14.00"> &#160;&#160;&#160;</text>
<path fill="#ebebeb" stroke="transparent" d="M546,-643C546,-643 630,-643 630,-643 636,-643 642,-649 642,-655 642,-655 642,-695 642,-695 642,-701 636,-707 630,-707 630,-707 546,-707 546,-707 540,-707 534,-701 534,-695 534,-695 534,-655 534,-655 534,-649 540,-643 546,-643"/>
<text text-anchor="start" x="535" y="-704.4" font-family="Arial" font-size="2.00"> </text>
<text text-anchor="start" x="535" y="-698.4" font-family="Arial" font-size="7.00"> &#160;1</text>
<text text-anchor="start" x="549" y="-681.8" font-family="Arial" font-weight="bold" font-size="14.00">Mean: 81.32</text>
<text text-anchor="start" x="564.5" y="-664.8" font-family="Arial" font-weight="bold" font-size="14.00">n = 672</text>
<text text-anchor="start" x="586.5" y="-646.8" font-family="Arial" font-size="9.00"> </text>
<path fill="none" stroke="#333333" d="M546,-643C546,-643 630,-643 630,-643 636,-643 642,-649 642,-655 642,-655 642,-695 642,-695 642,-701 636,-707 630,-707 630,-707 546,-707 546,-707 540,-707 534,-701 534,-695 534,-695 534,-655 534,-655 534,-649 540,-643 546,-643"/>
<text text-anchor="start" x="644" y="-671.3" font-family="Arial" font-size="14.00"> &#160;&#160;&#160;</text>
<text text-anchor="start" x="530.5" y="-628.8" font-family="Arial" font-weight="bold" font-size="14.00">prev_168h_inflow</text>
</g>
<!-- 2 -->
<g id="node2" class="node">
<title>2</title>
<text text-anchor="start" x="472" y="-561.8" font-family="Arial" font-weight="bold" font-size="14.00"> &lt; 75.91</text>
<text text-anchor="start" x="425" y="-517.3" font-family="Arial" font-size="14.00"> &#160;&#160;&#160;</text>
<path fill="#ebebeb" stroke="transparent" d="M455,-489C455,-489 539,-489 539,-489 545,-489 551,-495 551,-501 551,-501 551,-541 551,-541 551,-547 545,-553 539,-553 539,-553 455,-553 455,-553 449,-553 443,-547 443,-541 443,-541 443,-501 443,-501 443,-495 449,-489 455,-489"/>
<text text-anchor="start" x="444" y="-550.4" font-family="Arial" font-size="2.00"> </text>
<text text-anchor="start" x="444" y="-544.4" font-family="Arial" font-size="7.00"> &#160;2</text>
<text text-anchor="start" x="458" y="-527.8" font-family="Arial" font-weight="bold" font-size="14.00">Mean: 62.89</text>
<text text-anchor="start" x="473.5" y="-510.8" font-family="Arial" font-weight="bold" font-size="14.00">n = 212</text>
<text text-anchor="start" x="495.5" y="-492.8" font-family="Arial" font-size="9.00"> </text>
<path fill="none" stroke="#333333" d="M455,-489C455,-489 539,-489 539,-489 545,-489 551,-495 551,-501 551,-501 551,-541 551,-541 551,-547 545,-553 539,-553 539,-553 455,-553 455,-553 449,-553 443,-547 443,-541 443,-541 443,-501 443,-501 443,-495 449,-489 455,-489"/>
<text text-anchor="start" x="553" y="-517.3" font-family="Arial" font-size="14.00"> &#160;&#160;&#160;</text>
<text text-anchor="start" x="439.5" y="-474.8" font-family="Arial" font-weight="bold" font-size="14.00">prev_168h_inflow</text>
</g>
<!-- 1&#45;&gt;2 -->
<g id="edge1" class="edge">
<title>1&#45;&gt;2</title>
<path fill="none" stroke="#888888" d="M553.08,-615.67C547.85,-606.94 542.43,-597.88 537.11,-588.99"/>
<polygon fill="#888888" stroke="#888888" points="539.97,-586.96 531.83,-580.18 533.96,-590.55 539.97,-586.96"/>
</g>
<!-- 9 -->
<g id="node3" class="node">
<title>9</title>
<text text-anchor="start" x="720.5" y="-561.8" font-family="Arial" font-weight="bold" font-size="14.00"> ≥ 75.91</text>
<text text-anchor="start" x="673" y="-517.3" font-family="Arial" font-size="14.00"> &#160;&#160;&#160;</text>
<path fill="#ebebeb" stroke="transparent" d="M703,-489C703,-489 787,-489 787,-489 793,-489 799,-495 799,-501 799,-501 799,-541 799,-541 799,-547 793,-553 787,-553 787,-553 703,-553 703,-553 697,-553 691,-547 691,-541 691,-541 691,-501 691,-501 691,-495 697,-489 703,-489"/>
<text text-anchor="start" x="692" y="-550.4" font-family="Arial" font-size="2.00"> </text>
<text text-anchor="start" x="692" y="-544.4" font-family="Arial" font-size="7.00"> &#160;9</text>
<text text-anchor="start" x="706" y="-527.8" font-family="Arial" font-weight="bold" font-size="14.00">Mean: 89.82</text>
<text text-anchor="start" x="721.5" y="-510.8" font-family="Arial" font-weight="bold" font-size="14.00">n = 460</text>
<text text-anchor="start" x="743.5" y="-492.8" font-family="Arial" font-size="9.00"> </text>
<path fill="none" stroke="#333333" d="M703,-489C703,-489 787,-489 787,-489 793,-489 799,-495 799,-501 799,-501 799,-541 799,-541 799,-547 793,-553 787,-553 787,-553 703,-553 703,-553 697,-553 691,-547 691,-541 691,-541 691,-501 691,-501 691,-495 697,-489 703,-489"/>
<text text-anchor="start" x="801" y="-517.3" font-family="Arial" font-size="14.00"> &#160;&#160;&#160;</text>
<text text-anchor="start" x="687.5" y="-474.8" font-family="Arial" font-weight="bold" font-size="14.00">prev_168h_inflow</text>
</g>
<!-- 1&#45;&gt;9 -->
<g id="edge2" class="edge">
<title>1&#45;&gt;9</title>
<path fill="none" stroke="#888888" d="M648.25,-615.67C657.83,-606.39 667.79,-596.75 677.52,-587.33"/>
<polygon fill="#888888" stroke="#888888" points="680.16,-589.65 684.91,-580.18 675.29,-584.62 680.16,-589.65"/>
</g>
<!-- 3 -->
<g id="node4" class="node">
<title>3</title>
<text text-anchor="start" x="200" y="-407.8" font-family="Arial" font-weight="bold" font-size="14.00"> &lt; 64.39</text>
<text text-anchor="start" x="153" y="-363.3" font-family="Arial" font-size="14.00"> &#160;&#160;&#160;</text>
<path fill="#ebebeb" stroke="transparent" d="M183,-335C183,-335 267,-335 267,-335 273,-335 279,-341 279,-347 279,-347 279,-387 279,-387 279,-393 273,-399 267,-399 267,-399 183,-399 183,-399 177,-399 171,-393 171,-387 171,-387 171,-347 171,-347 171,-341 177,-335 183,-335"/>
<text text-anchor="start" x="172" y="-396.4" font-family="Arial" font-size="2.00"> </text>
<text text-anchor="start" x="172" y="-390.4" font-family="Arial" font-size="7.00"> &#160;3</text>
<text text-anchor="start" x="186" y="-373.8" font-family="Arial" font-weight="bold" font-size="14.00">Mean: 59.68</text>
<text text-anchor="start" x="201.5" y="-356.8" font-family="Arial" font-weight="bold" font-size="14.00">n = 144</text>
<text text-anchor="start" x="223.5" y="-338.8" font-family="Arial" font-size="9.00"> </text>
<path fill="none" stroke="#333333" d="M183,-335C183,-335 267,-335 267,-335 273,-335 279,-341 279,-347 279,-347 279,-387 279,-387 279,-393 273,-399 267,-399 267,-399 183,-399 183,-399 177,-399 171,-393 171,-387 171,-387 171,-347 171,-347 171,-341 177,-335 183,-335"/>
<text text-anchor="start" x="281" y="-363.3" font-family="Arial" font-size="14.00"> &#160;&#160;&#160;</text>
<text text-anchor="start" x="167.5" y="-320.8" font-family="Arial" font-weight="bold" font-size="14.00">prev_168h_inflow</text>
</g>
<!-- 2&#45;&gt;3 -->
<g id="edge3" class="edge">
<title>2&#45;&gt;3</title>
<path fill="none" stroke="#888888" d="M414.65,-473.98C383.5,-456.57 347.86,-436.66 315.96,-418.83"/>
<polygon fill="#888888" stroke="#888888" points="317.5,-415.68 307.07,-413.86 314.09,-421.79 317.5,-415.68"/>
</g>
<!-- 6 -->
<g id="node5" class="node">
<title>6</title>
<text text-anchor="start" x="472.5" y="-407.8" font-family="Arial" font-weight="bold" font-size="14.00"> ≥ 64.39</text>
<path fill="#ebebeb" stroke="transparent" d="M455,-335C455,-335 539,-335 539,-335 545,-335 551,-341 551,-347 551,-347 551,-387 551,-387 551,-393 545,-399 539,-399 539,-399 455,-399 455,-399 449,-399 443,-393 443,-387 443,-387 443,-347 443,-347 443,-341 449,-335 455,-335"/>
<text text-anchor="start" x="444" y="-396.4" font-family="Arial" font-size="2.00"> </text>
<text text-anchor="start" x="444" y="-390.4" font-family="Arial" font-size="7.00"> &#160;6</text>
<text text-anchor="start" x="458" y="-373.8" font-family="Arial" font-weight="bold" font-size="14.00">Mean: 69.69</text>
<text text-anchor="start" x="477" y="-356.8" font-family="Arial" font-weight="bold" font-size="14.00">n = 68</text>
<text text-anchor="start" x="495.5" y="-338.8" font-family="Arial" font-size="9.00"> </text>
<path fill="none" stroke="#333333" d="M455,-335C455,-335 539,-335 539,-335 545,-335 551,-341 551,-347 551,-347 551,-387 551,-387 551,-393 545,-399 539,-399 539,-399 455,-399 455,-399 449,-399 443,-393 443,-387 443,-387 443,-347 443,-347 443,-341 449,-335 455,-335"/>
<text text-anchor="start" x="482.5" y="-320.8" font-family="Arial" font-weight="bold" font-size="14.00">time</text>
</g>
<!-- 2&#45;&gt;6 -->
<g id="edge4" class="edge">
<title>2&#45;&gt;6</title>
<path fill="none" stroke="#888888" d="M497,-461.67C497,-453.39 497,-444.83 497,-436.38"/>
<polygon fill="#888888" stroke="#888888" points="500.5,-436.18 497,-426.18 493.5,-436.18 500.5,-436.18"/>
</g>
<!-- 10 -->
<g id="node10" class="node">
<title>10</title>
<text text-anchor="start" x="720" y="-407.8" font-family="Arial" font-weight="bold" font-size="14.00"> &lt; 92.12</text>
<text text-anchor="start" x="673" y="-363.3" font-family="Arial" font-size="14.00"> &#160;&#160;&#160;</text>
<path fill="#ebebeb" stroke="transparent" d="M703,-335C703,-335 787,-335 787,-335 793,-335 799,-341 799,-347 799,-347 799,-387 799,-387 799,-393 793,-399 787,-399 787,-399 703,-399 703,-399 697,-399 691,-393 691,-387 691,-387 691,-347 691,-347 691,-341 697,-335 703,-335"/>
<text text-anchor="start" x="692" y="-396.4" font-family="Arial" font-size="2.00"> </text>
<text text-anchor="start" x="692" y="-390.4" font-family="Arial" font-size="7.00"> &#160;10</text>
<text text-anchor="start" x="706" y="-373.8" font-family="Arial" font-weight="bold" font-size="14.00">Mean: 85.36</text>
<text text-anchor="start" x="721.5" y="-356.8" font-family="Arial" font-weight="bold" font-size="14.00">n = 298</text>
<text text-anchor="start" x="743.5" y="-338.8" font-family="Arial" font-size="9.00"> </text>
<path fill="none" stroke="#333333" d="M703,-335C703,-335 787,-335 787,-335 793,-335 799,-341 799,-347 799,-347 799,-387 799,-387 799,-393 793,-399 787,-399 787,-399 703,-399 703,-399 697,-399 691,-393 691,-387 691,-387 691,-347 691,-347 691,-341 697,-335 703,-335"/>
<text text-anchor="start" x="801" y="-363.3" font-family="Arial" font-size="14.00"> &#160;&#160;&#160;</text>
<text text-anchor="start" x="687.5" y="-320.8" font-family="Arial" font-weight="bold" font-size="14.00">prev_168h_inflow</text>
</g>
<!-- 9&#45;&gt;10 -->
<g id="edge9" class="edge">
<title>9&#45;&gt;10</title>
<path fill="none" stroke="#888888" d="M745,-461.67C745,-453.39 745,-444.83 745,-436.38"/>
<polygon fill="#888888" stroke="#888888" points="748.5,-436.18 745,-426.18 741.5,-436.18 748.5,-436.18"/>
</g>
<!-- 17 -->
<g id="node11" class="node">
<title>17</title>
<text text-anchor="start" x="1218.5" y="-407.8" font-family="Arial" font-weight="bold" font-size="14.00"> ≥ 92.12</text>
<text text-anchor="start" x="1171" y="-363.3" font-family="Arial" font-size="14.00"> &#160;&#160;&#160;</text>
<path fill="#ebebeb" stroke="transparent" d="M1201,-335C1201,-335 1285,-335 1285,-335 1291,-335 1297,-341 1297,-347 1297,-347 1297,-387 1297,-387 1297,-393 1291,-399 1285,-399 1285,-399 1201,-399 1201,-399 1195,-399 1189,-393 1189,-387 1189,-387 1189,-347 1189,-347 1189,-341 1195,-335 1201,-335"/>
<text text-anchor="start" x="1190" y="-396.4" font-family="Arial" font-size="2.00"> </text>
<text text-anchor="start" x="1190" y="-390.4" font-family="Arial" font-size="7.00"> &#160;17</text>
<text text-anchor="start" x="1204" y="-373.8" font-family="Arial" font-weight="bold" font-size="14.00">Mean: 98.02</text>
<text text-anchor="start" x="1219.5" y="-356.8" font-family="Arial" font-weight="bold" font-size="14.00">n = 162</text>
<text text-anchor="start" x="1241.5" y="-338.8" font-family="Arial" font-size="9.00"> </text>
<path fill="none" stroke="#333333" d="M1201,-335C1201,-335 1285,-335 1285,-335 1291,-335 1297,-341 1297,-347 1297,-347 1297,-387 1297,-387 1297,-393 1291,-399 1285,-399 1285,-399 1201,-399 1201,-399 1195,-399 1189,-393 1189,-387 1189,-387 1189,-347 1189,-347 1189,-341 1195,-335 1201,-335"/>
<text text-anchor="start" x="1299" y="-363.3" font-family="Arial" font-size="14.00"> &#160;&#160;&#160;</text>
<text text-anchor="start" x="1185.5" y="-320.8" font-family="Arial" font-weight="bold" font-size="14.00">prev_168h_inflow</text>
</g>
<!-- 9&#45;&gt;17 -->
<g id="edge10" class="edge">
<title>9&#45;&gt;17</title>
<path fill="none" stroke="#888888" d="M827.23,-494.9C916.35,-467.7 1058.22,-424.4 1150.98,-396.09"/>
<polygon fill="#888888" stroke="#888888" points="1152.1,-399.4 1160.64,-393.14 1150.06,-392.71 1152.1,-399.4"/>
</g>
<!-- 4 -->
<g id="node6" class="node">
<title>4</title>
<text text-anchor="start" x="44" y="-253.8" font-family="Arial" font-weight="bold" font-size="14.00"> &lt; 60.87</text>
<path fill="#f8766d" fill-opacity="0.874510" stroke="transparent" d="M24,-181C24,-181 114,-181 114,-181 120,-181 126,-187 126,-193 126,-193 126,-233 126,-233 126,-239 120,-245 114,-245 114,-245 24,-245 24,-245 18,-245 12,-239 12,-233 12,-233 12,-193 12,-193 12,-187 18,-181 24,-181"/>
<text text-anchor="start" x="13" y="-242.4" font-family="Arial" font-size="2.00"> </text>
<text text-anchor="start" x="13" y="-236.4" font-family="Arial" font-size="7.00"> &#160;4</text>
<text text-anchor="start" x="27" y="-219.8" font-family="Arial" font-weight="bold" font-size="14.00">Predict 58.91</text>
<text text-anchor="start" x="45.5" y="-202.8" font-family="Arial" font-weight="bold" font-size="14.00">n = 104</text>
<text text-anchor="start" x="67.5" y="-184.8" font-family="Arial" font-size="9.00"> </text>
<path fill="none" stroke="#333333" d="M24,-181C24,-181 114,-181 114,-181 120,-181 126,-187 126,-193 126,-193 126,-233 126,-233 126,-239 120,-245 114,-245 114,-245 24,-245 24,-245 18,-245 12,-239 12,-233 12,-233 12,-193 12,-193 12,-187 18,-181 24,-181"/>
<text text-anchor="start" x="67" y="-166.8" font-family="Arial" font-weight="bold" font-size="14.00"> </text>
</g>
<!-- 3&#45;&gt;4 -->
<g id="edge5" class="edge">
<title>3&#45;&gt;4</title>
<path fill="none" stroke="#888888" d="M165.13,-307.67C155.62,-298.39 145.72,-288.75 136.05,-279.33"/>
<polygon fill="#888888" stroke="#888888" points="138.31,-276.65 128.71,-272.18 133.43,-281.66 138.31,-276.65"/>
</g>
<!-- 5 -->
<g id="node7" class="node">
<title>5</title>
<text text-anchor="start" x="200.5" y="-253.8" font-family="Arial" font-weight="bold" font-size="14.00"> ≥ 60.87</text>
<path fill="#f8766d" fill-opacity="0.843137" stroke="transparent" d="M180,-181C180,-181 270,-181 270,-181 276,-181 282,-187 282,-193 282,-193 282,-233 282,-233 282,-239 276,-245 270,-245 270,-245 180,-245 180,-245 174,-245 168,-239 168,-233 168,-233 168,-193 168,-193 168,-187 174,-181 180,-181"/>
<text text-anchor="start" x="169" y="-242.4" font-family="Arial" font-size="2.00"> </text>
<text text-anchor="start" x="169" y="-236.4" font-family="Arial" font-size="7.00"> &#160;5</text>
<text text-anchor="start" x="183" y="-219.8" font-family="Arial" font-weight="bold" font-size="14.00">Predict 61.69</text>
<text text-anchor="start" x="205" y="-202.8" font-family="Arial" font-weight="bold" font-size="14.00">n = 40</text>
<text text-anchor="start" x="223.5" y="-184.8" font-family="Arial" font-size="9.00"> </text>
<path fill="none" stroke="#333333" d="M180,-181C180,-181 270,-181 270,-181 276,-181 282,-187 282,-193 282,-193 282,-233 282,-233 282,-239 276,-245 270,-245 270,-245 180,-245 180,-245 174,-245 168,-239 168,-233 168,-233 168,-193 168,-193 168,-187 174,-181 180,-181"/>
<text text-anchor="start" x="223" y="-166.8" font-family="Arial" font-weight="bold" font-size="14.00"> </text>
</g>
<!-- 3&#45;&gt;5 -->
<g id="edge6" class="edge">
<title>3&#45;&gt;5</title>
<path fill="none" stroke="#888888" d="M225,-307.67C225,-299.39 225,-290.83 225,-282.38"/>
<polygon fill="#888888" stroke="#888888" points="228.5,-282.18 225,-272.18 221.5,-282.18 228.5,-282.18"/>
</g>
<!-- 7 -->
<g id="node8" class="node">
<title>7</title>
<text text-anchor="start" x="363.5" y="-253.8" font-family="Arial" font-weight="bold" font-size="14.00"> &lt; 6.5</text>
<path fill="#f8766d" fill-opacity="0.796078" stroke="transparent" d="M336,-181C336,-181 426,-181 426,-181 432,-181 438,-187 438,-193 438,-193 438,-233 438,-233 438,-239 432,-245 426,-245 426,-245 336,-245 336,-245 330,-245 324,-239 324,-233 324,-233 324,-193 324,-193 324,-187 330,-181 336,-181"/>
<text text-anchor="start" x="325" y="-242.4" font-family="Arial" font-size="2.00"> </text>
<text text-anchor="start" x="325" y="-236.4" font-family="Arial" font-size="7.00"> &#160;7</text>
<text text-anchor="start" x="339" y="-219.8" font-family="Arial" font-weight="bold" font-size="14.00">Predict 65.86</text>
<text text-anchor="start" x="361" y="-202.8" font-family="Arial" font-weight="bold" font-size="14.00">n = 32</text>
<text text-anchor="start" x="379.5" y="-184.8" font-family="Arial" font-size="9.00"> </text>
<path fill="none" stroke="#333333" d="M336,-181C336,-181 426,-181 426,-181 432,-181 438,-187 438,-193 438,-193 438,-233 438,-233 438,-239 432,-245 426,-245 426,-245 336,-245 336,-245 330,-245 324,-239 324,-233 324,-233 324,-193 324,-193 324,-187 330,-181 336,-181"/>
<text text-anchor="start" x="379" y="-166.8" font-family="Arial" font-weight="bold" font-size="14.00"> </text>
</g>
<!-- 6&#45;&gt;7 -->
<g id="edge7" class="edge">
<title>6&#45;&gt;7</title>
<path fill="none" stroke="#888888" d="M452.48,-307.67C445.61,-298.67 438.48,-289.32 431.49,-280.16"/>
<polygon fill="#888888" stroke="#888888" points="434.25,-278 425.4,-272.18 428.68,-282.25 434.25,-278"/>
</g>
<!-- 8 -->
<g id="node9" class="node">
<title>8</title>
<text text-anchor="start" x="520" y="-253.8" font-family="Arial" font-weight="bold" font-size="14.00"> ≥ 6.5</text>
<path fill="#f8766d" fill-opacity="0.717647" stroke="transparent" d="M492,-181C492,-181 582,-181 582,-181 588,-181 594,-187 594,-193 594,-193 594,-233 594,-233 594,-239 588,-245 582,-245 582,-245 492,-245 492,-245 486,-245 480,-239 480,-233 480,-233 480,-193 480,-193 480,-187 486,-181 492,-181"/>
<text text-anchor="start" x="481" y="-242.4" font-family="Arial" font-size="2.00"> </text>
<text text-anchor="start" x="481" y="-236.4" font-family="Arial" font-size="7.00"> &#160;8</text>
<text text-anchor="start" x="495" y="-219.8" font-family="Arial" font-weight="bold" font-size="14.00">Predict 73.09</text>
<text text-anchor="start" x="517" y="-202.8" font-family="Arial" font-weight="bold" font-size="14.00">n = 36</text>
<text text-anchor="start" x="535.5" y="-184.8" font-family="Arial" font-size="9.00"> </text>
<path fill="none" stroke="#333333" d="M492,-181C492,-181 582,-181 582,-181 588,-181 594,-187 594,-193 594,-193 594,-233 594,-233 594,-239 588,-245 582,-245 582,-245 492,-245 492,-245 486,-245 480,-239 480,-233 480,-233 480,-193 480,-193 480,-187 486,-181 492,-181"/>
<text text-anchor="start" x="535" y="-166.8" font-family="Arial" font-weight="bold" font-size="14.00"> </text>
</g>
<!-- 6&#45;&gt;8 -->
<g id="edge8" class="edge">
<title>6&#45;&gt;8</title>
<path fill="none" stroke="#888888" d="M512.35,-307.67C514.55,-299.3 516.83,-290.64 519.08,-282.1"/>
<polygon fill="#888888" stroke="#888888" points="522.53,-282.74 521.69,-272.18 515.76,-280.96 522.53,-282.74"/>
</g>
<!-- 11 -->
<g id="node12" class="node">
<title>11</title>
<text text-anchor="start" x="684.5" y="-253.8" font-family="Arial" font-weight="bold" font-size="14.00"> &lt; 85.1</text>
<text text-anchor="start" x="634" y="-209.3" font-family="Arial" font-size="14.00"> &#160;&#160;&#160;</text>
<path fill="#ebebeb" stroke="transparent" d="M664,-181C664,-181 748,-181 748,-181 754,-181 760,-187 760,-193 760,-193 760,-233 760,-233 760,-239 754,-245 748,-245 748,-245 664,-245 664,-245 658,-245 652,-239 652,-233 652,-233 652,-193 652,-193 652,-187 658,-181 664,-181"/>
<text text-anchor="start" x="653" y="-242.4" font-family="Arial" font-size="2.00"> </text>
<text text-anchor="start" x="653" y="-236.4" font-family="Arial" font-size="7.00"> &#160;11</text>
<text text-anchor="start" x="667" y="-219.8" font-family="Arial" font-weight="bold" font-size="14.00">Mean: 80.96</text>
<text text-anchor="start" x="683" y="-202.8" font-family="Arial" font-weight="bold" font-size="14.00">n = 114</text>
<text text-anchor="start" x="704.5" y="-184.8" font-family="Arial" font-size="9.00"> </text>
<path fill="none" stroke="#333333" d="M664,-181C664,-181 748,-181 748,-181 754,-181 760,-187 760,-193 760,-193 760,-233 760,-233 760,-239 754,-245 748,-245 748,-245 664,-245 664,-245 658,-245 652,-239 652,-233 652,-233 652,-193 652,-193 652,-187 658,-181 664,-181"/>
<text text-anchor="start" x="762" y="-209.3" font-family="Arial" font-size="14.00"> &#160;&#160;&#160;</text>
<text text-anchor="start" x="648.5" y="-166.8" font-family="Arial" font-weight="bold" font-size="14.00">prev_168h_inflow</text>
</g>
<!-- 10&#45;&gt;11 -->
<g id="edge11" class="edge">
<title>10&#45;&gt;11</title>
<path fill="none" stroke="#888888" d="M730.03,-307.67C727.89,-299.3 725.66,-290.64 723.47,-282.1"/>
<polygon fill="#888888" stroke="#888888" points="726.8,-280.99 720.93,-272.18 720.02,-282.73 726.8,-280.99"/>
</g>
<!-- 14 -->
<g id="node13" class="node">
<title>14</title>
<text text-anchor="start" x="867" y="-253.8" font-family="Arial" font-weight="bold" font-size="14.00"> ≥ 85.1</text>
<text text-anchor="start" x="816" y="-209.3" font-family="Arial" font-size="14.00"> &#160;&#160;&#160;</text>
<path fill="#ebebeb" stroke="transparent" d="M846,-181C846,-181 930,-181 930,-181 936,-181 942,-187 942,-193 942,-193 942,-233 942,-233 942,-239 936,-245 930,-245 930,-245 846,-245 846,-245 840,-245 834,-239 834,-233 834,-233 834,-193 834,-193 834,-187 840,-181 846,-181"/>
<text text-anchor="start" x="835" y="-242.4" font-family="Arial" font-size="2.00"> </text>
<text text-anchor="start" x="835" y="-236.4" font-family="Arial" font-size="7.00"> &#160;14</text>
<text text-anchor="start" x="849" y="-219.8" font-family="Arial" font-weight="bold" font-size="14.00">Mean: 88.08</text>
<text text-anchor="start" x="864.5" y="-202.8" font-family="Arial" font-weight="bold" font-size="14.00">n = 184</text>
<text text-anchor="start" x="886.5" y="-184.8" font-family="Arial" font-size="9.00"> </text>
<path fill="none" stroke="#333333" d="M846,-181C846,-181 930,-181 930,-181 936,-181 942,-187 942,-193 942,-193 942,-233 942,-233 942,-239 936,-245 930,-245 930,-245 846,-245 846,-245 840,-245 834,-239 834,-233 834,-233 834,-193 834,-193 834,-187 840,-181 846,-181"/>
<text text-anchor="start" x="944" y="-209.3" font-family="Arial" font-size="14.00"> &#160;&#160;&#160;</text>
<text text-anchor="start" x="830.5" y="-166.8" font-family="Arial" font-weight="bold" font-size="14.00">prev_168h_inflow</text>
</g>
<!-- 10&#45;&gt;14 -->
<g id="edge12" class="edge">
<title>10&#45;&gt;14</title>
<path fill="none" stroke="#888888" d="M799.88,-307.67C808.52,-298.49 817.5,-288.94 826.28,-279.6"/>
<polygon fill="#888888" stroke="#888888" points="828.97,-281.86 833.27,-272.18 823.87,-277.06 828.97,-281.86"/>
</g>
<!-- 18 -->
<g id="node18" class="node">
<title>18</title>
<text text-anchor="start" x="1218" y="-253.8" font-family="Arial" font-weight="bold" font-size="14.00"> &lt; 100.5</text>
<text text-anchor="start" x="1171" y="-209.3" font-family="Arial" font-size="14.00"> &#160;&#160;&#160;</text>
<path fill="#ebebeb" stroke="transparent" d="M1201,-181C1201,-181 1285,-181 1285,-181 1291,-181 1297,-187 1297,-193 1297,-193 1297,-233 1297,-233 1297,-239 1291,-245 1285,-245 1285,-245 1201,-245 1201,-245 1195,-245 1189,-239 1189,-233 1189,-233 1189,-193 1189,-193 1189,-187 1195,-181 1201,-181"/>
<text text-anchor="start" x="1190" y="-242.4" font-family="Arial" font-size="2.00"> </text>
<text text-anchor="start" x="1190" y="-236.4" font-family="Arial" font-size="7.00"> &#160;18</text>
<text text-anchor="start" x="1204" y="-219.8" font-family="Arial" font-weight="bold" font-size="14.00">Mean: 95.12</text>
<text text-anchor="start" x="1219.5" y="-202.8" font-family="Arial" font-weight="bold" font-size="14.00">n = 103</text>
<text text-anchor="start" x="1241.5" y="-184.8" font-family="Arial" font-size="9.00"> </text>
<path fill="none" stroke="#333333" d="M1201,-181C1201,-181 1285,-181 1285,-181 1291,-181 1297,-187 1297,-193 1297,-193 1297,-233 1297,-233 1297,-239 1291,-245 1285,-245 1285,-245 1201,-245 1201,-245 1195,-245 1189,-239 1189,-233 1189,-233 1189,-193 1189,-193 1189,-187 1195,-181 1201,-181"/>
<text text-anchor="start" x="1299" y="-209.3" font-family="Arial" font-size="14.00"> &#160;&#160;&#160;</text>
<text text-anchor="start" x="1185.5" y="-166.8" font-family="Arial" font-weight="bold" font-size="14.00">prev_168h_inflow</text>
</g>
<!-- 17&#45;&gt;18 -->
<g id="edge17" class="edge">
<title>17&#45;&gt;18</title>
<path fill="none" stroke="#888888" d="M1243,-307.67C1243,-299.39 1243,-290.83 1243,-282.38"/>
<polygon fill="#888888" stroke="#888888" points="1246.5,-282.18 1243,-272.18 1239.5,-282.18 1246.5,-282.18"/>
</g>
<!-- 21 -->
<g id="node19" class="node">
<title>21</title>
<text text-anchor="start" x="1461.5" y="-253.8" font-family="Arial" font-weight="bold" font-size="14.00"> ≥ 100.5</text>
<text text-anchor="start" x="1422" y="-209.3" font-family="Arial" font-size="14.00"> &#160;</text>
<path fill="#ebebeb" stroke="transparent" d="M1444,-181C1444,-181 1528,-181 1528,-181 1534,-181 1540,-187 1540,-193 1540,-193 1540,-233 1540,-233 1540,-239 1534,-245 1528,-245 1528,-245 1444,-245 1444,-245 1438,-245 1432,-239 1432,-233 1432,-233 1432,-193 1432,-193 1432,-187 1438,-181 1444,-181"/>
<text text-anchor="start" x="1433" y="-242.4" font-family="Arial" font-size="2.00"> </text>
<text text-anchor="start" x="1433" y="-236.4" font-family="Arial" font-size="7.00"> &#160;21</text>
<text text-anchor="start" x="1447" y="-219.8" font-family="Arial" font-weight="bold" font-size="14.00">Mean: 103.1</text>
<text text-anchor="start" x="1466" y="-202.8" font-family="Arial" font-weight="bold" font-size="14.00">n = 59</text>
<text text-anchor="start" x="1484.5" y="-184.8" font-family="Arial" font-size="9.00"> </text>
<path fill="none" stroke="#333333" d="M1444,-181C1444,-181 1528,-181 1528,-181 1534,-181 1540,-187 1540,-193 1540,-193 1540,-233 1540,-233 1540,-239 1534,-245 1528,-245 1528,-245 1444,-245 1444,-245 1438,-245 1432,-239 1432,-233 1432,-233 1432,-193 1432,-193 1432,-187 1438,-181 1444,-181"/>
<text text-anchor="start" x="1542" y="-209.3" font-family="Arial" font-size="14.00"> &#160;</text>
<text text-anchor="start" x="1436" y="-166.8" font-family="Arial" font-weight="bold" font-size="14.00">prev_1h_inflow</text>
</g>
<!-- 17&#45;&gt;21 -->
<g id="edge18" class="edge">
<title>17&#45;&gt;21</title>
<path fill="none" stroke="#888888" d="M1325.27,-314.54C1350.39,-298.82 1378.03,-281.54 1403.19,-265.8"/>
<polygon fill="#888888" stroke="#888888" points="1405.36,-268.57 1411.98,-260.3 1401.64,-262.64 1405.36,-268.57"/>
</g>
<!-- 12 -->
<g id="node14" class="node">
<title>12</title>
<text text-anchor="start" x="525" y="-99.8" font-family="Arial" font-weight="bold" font-size="14.00"> &lt; 80.52</text>
<path fill="#f8766d" fill-opacity="0.658824" stroke="transparent" d="M505,-27C505,-27 595,-27 595,-27 601,-27 607,-33 607,-39 607,-39 607,-79 607,-79 607,-85 601,-91 595,-91 595,-91 505,-91 505,-91 499,-91 493,-85 493,-79 493,-79 493,-39 493,-39 493,-33 499,-27 505,-27"/>
<text text-anchor="start" x="494" y="-88.4" font-family="Arial" font-size="2.00"> </text>
<text text-anchor="start" x="494" y="-82.4" font-family="Arial" font-size="7.00"> &#160;12</text>
<text text-anchor="start" x="508" y="-65.8" font-family="Arial" font-weight="bold" font-size="14.00">Predict 78.08</text>
<text text-anchor="start" x="530" y="-48.8" font-family="Arial" font-weight="bold" font-size="14.00">n = 47</text>
<text text-anchor="start" x="548.5" y="-30.8" font-family="Arial" font-size="9.00"> </text>
<path fill="none" stroke="#333333" d="M505,-27C505,-27 595,-27 595,-27 601,-27 607,-33 607,-39 607,-39 607,-79 607,-79 607,-85 601,-91 595,-91 595,-91 505,-91 505,-91 499,-91 493,-85 493,-79 493,-79 493,-39 493,-39 493,-33 499,-27 505,-27"/>
<text text-anchor="start" x="548" y="-12.8" font-family="Arial" font-weight="bold" font-size="14.00"> </text>
</g>
<!-- 11&#45;&gt;12 -->
<g id="edge13" class="edge">
<title>11&#45;&gt;12</title>
<path fill="none" stroke="#888888" d="M646.13,-153.67C636.62,-144.39 626.72,-134.75 617.05,-125.33"/>
<polygon fill="#888888" stroke="#888888" points="619.31,-122.65 609.71,-118.18 614.43,-127.66 619.31,-122.65"/>
</g>
<!-- 13 -->
<g id="node15" class="node">
<title>13</title>
<text text-anchor="start" x="681.5" y="-99.8" font-family="Arial" font-weight="bold" font-size="14.00"> ≥ 80.52</text>
<path fill="#f8766d" fill-opacity="0.603922" stroke="transparent" d="M661,-27C661,-27 751,-27 751,-27 757,-27 763,-33 763,-39 763,-39 763,-79 763,-79 763,-85 757,-91 751,-91 751,-91 661,-91 661,-91 655,-91 649,-85 649,-79 649,-79 649,-39 649,-39 649,-33 655,-27 661,-27"/>
<text text-anchor="start" x="650" y="-88.4" font-family="Arial" font-size="2.00"> </text>
<text text-anchor="start" x="650" y="-82.4" font-family="Arial" font-size="7.00"> &#160;13</text>
<text text-anchor="start" x="664" y="-65.8" font-family="Arial" font-weight="bold" font-size="14.00">Predict 82.97</text>
<text text-anchor="start" x="686" y="-48.8" font-family="Arial" font-weight="bold" font-size="14.00">n = 67</text>
<text text-anchor="start" x="704.5" y="-30.8" font-family="Arial" font-size="9.00"> </text>
<path fill="none" stroke="#333333" d="M661,-27C661,-27 751,-27 751,-27 757,-27 763,-33 763,-39 763,-39 763,-79 763,-79 763,-85 757,-91 751,-91 751,-91 661,-91 661,-91 655,-91 649,-85 649,-79 649,-79 649,-39 649,-39 649,-33 655,-27 661,-27"/>
<text text-anchor="start" x="704" y="-12.8" font-family="Arial" font-weight="bold" font-size="14.00"> </text>
</g>
<!-- 11&#45;&gt;13 -->
<g id="edge14" class="edge">
<title>11&#45;&gt;13</title>
<path fill="none" stroke="#888888" d="M706,-153.67C706,-145.39 706,-136.83 706,-128.38"/>
<polygon fill="#888888" stroke="#888888" points="709.5,-128.18 706,-118.18 702.5,-128.18 709.5,-128.18"/>
</g>
<!-- 15 -->
<g id="node16" class="node">
<title>15</title>
<text text-anchor="start" x="837" y="-99.8" font-family="Arial" font-weight="bold" font-size="14.00"> &lt; 88.54</text>
<path fill="#f8766d" fill-opacity="0.564706" stroke="transparent" d="M817,-27C817,-27 907,-27 907,-27 913,-27 919,-33 919,-39 919,-39 919,-79 919,-79 919,-85 913,-91 907,-91 907,-91 817,-91 817,-91 811,-91 805,-85 805,-79 805,-79 805,-39 805,-39 805,-33 811,-27 817,-27"/>
<text text-anchor="start" x="806" y="-88.4" font-family="Arial" font-size="2.00"> </text>
<text text-anchor="start" x="806" y="-82.4" font-family="Arial" font-size="7.00"> &#160;15</text>
<text text-anchor="start" x="820" y="-65.8" font-family="Arial" font-weight="bold" font-size="14.00">Predict 86.45</text>
<text text-anchor="start" x="842" y="-48.8" font-family="Arial" font-weight="bold" font-size="14.00">n = 81</text>
<text text-anchor="start" x="860.5" y="-30.8" font-family="Arial" font-size="9.00"> </text>
<path fill="none" stroke="#333333" d="M817,-27C817,-27 907,-27 907,-27 913,-27 919,-33 919,-39 919,-39 919,-79 919,-79 919,-85 913,-91 907,-91 907,-91 817,-91 817,-91 811,-91 805,-85 805,-79 805,-79 805,-39 805,-39 805,-33 811,-27 817,-27"/>
<text text-anchor="start" x="860" y="-12.8" font-family="Arial" font-weight="bold" font-size="14.00"> </text>
</g>
<!-- 14&#45;&gt;15 -->
<g id="edge15" class="edge">
<title>14&#45;&gt;15</title>
<path fill="none" stroke="#888888" d="M878.02,-153.67C876.59,-145.3 875.11,-136.64 873.65,-128.1"/>
<polygon fill="#888888" stroke="#888888" points="877.09,-127.44 871.95,-118.18 870.19,-128.62 877.09,-127.44"/>
</g>
<!-- 16 -->
<g id="node17" class="node">
<title>16</title>
<text text-anchor="start" x="993.5" y="-99.8" font-family="Arial" font-weight="bold" font-size="14.00"> ≥ 88.54</text>
<path fill="#f8766d" fill-opacity="0.533333" stroke="transparent" d="M973,-27C973,-27 1063,-27 1063,-27 1069,-27 1075,-33 1075,-39 1075,-39 1075,-79 1075,-79 1075,-85 1069,-91 1063,-91 1063,-91 973,-91 973,-91 967,-91 961,-85 961,-79 961,-79 961,-39 961,-39 961,-33 967,-27 973,-27"/>
<text text-anchor="start" x="962" y="-88.4" font-family="Arial" font-size="2.00"> </text>
<text text-anchor="start" x="962" y="-82.4" font-family="Arial" font-size="7.00"> &#160;16</text>
<text text-anchor="start" x="976" y="-65.8" font-family="Arial" font-weight="bold" font-size="14.00">Predict 89.37</text>
<text text-anchor="start" x="994.5" y="-48.8" font-family="Arial" font-weight="bold" font-size="14.00">n = 103</text>
<text text-anchor="start" x="1016.5" y="-30.8" font-family="Arial" font-size="9.00"> </text>
<path fill="none" stroke="#333333" d="M973,-27C973,-27 1063,-27 1063,-27 1069,-27 1075,-33 1075,-39 1075,-39 1075,-79 1075,-79 1075,-85 1069,-91 1063,-91 1063,-91 973,-91 973,-91 967,-91 961,-85 961,-79 961,-79 961,-39 961,-39 961,-33 967,-27 973,-27"/>
<text text-anchor="start" x="1016" y="-12.8" font-family="Arial" font-weight="bold" font-size="14.00"> </text>
</g>
<!-- 14&#45;&gt;16 -->
<g id="edge16" class="edge">
<title>14&#45;&gt;16</title>
<path fill="none" stroke="#888888" d="M937.89,-153.67C945.67,-144.58 953.75,-135.13 961.65,-125.88"/>
<polygon fill="#888888" stroke="#888888" points="964.4,-128.05 968.24,-118.18 959.08,-123.5 964.4,-128.05"/>
</g>
<!-- 19 -->
<g id="node20" class="node">
<title>19</title>
<text text-anchor="start" x="1149" y="-99.8" font-family="Arial" font-weight="bold" font-size="14.00"> &lt; 96.66</text>
<path fill="#f8766d" fill-opacity="0.482353" stroke="transparent" d="M1129,-27C1129,-27 1219,-27 1219,-27 1225,-27 1231,-33 1231,-39 1231,-39 1231,-79 1231,-79 1231,-85 1225,-91 1219,-91 1219,-91 1129,-91 1129,-91 1123,-91 1117,-85 1117,-79 1117,-79 1117,-39 1117,-39 1117,-33 1123,-27 1129,-27"/>
<text text-anchor="start" x="1118" y="-88.4" font-family="Arial" font-size="2.00"> </text>
<text text-anchor="start" x="1118" y="-82.4" font-family="Arial" font-size="7.00"> &#160;19</text>
<text text-anchor="start" x="1132" y="-65.8" font-family="Arial" font-weight="bold" font-size="14.00">Predict 93.97</text>
<text text-anchor="start" x="1154" y="-48.8" font-family="Arial" font-weight="bold" font-size="14.00">n = 73</text>
<text text-anchor="start" x="1172.5" y="-30.8" font-family="Arial" font-size="9.00"> </text>
<path fill="none" stroke="#333333" d="M1129,-27C1129,-27 1219,-27 1219,-27 1225,-27 1231,-33 1231,-39 1231,-39 1231,-79 1231,-79 1231,-85 1225,-91 1219,-91 1219,-91 1129,-91 1129,-91 1123,-91 1117,-85 1117,-79 1117,-79 1117,-39 1117,-39 1117,-33 1123,-27 1129,-27"/>
<text text-anchor="start" x="1172" y="-12.8" font-family="Arial" font-weight="bold" font-size="14.00"> </text>
</g>
<!-- 18&#45;&gt;19 -->
<g id="edge19" class="edge">
<title>18&#45;&gt;19</title>
<path fill="none" stroke="#888888" d="M1216.52,-153.67C1212.64,-145.12 1208.62,-136.26 1204.66,-127.55"/>
<polygon fill="#888888" stroke="#888888" points="1207.73,-125.84 1200.41,-118.18 1201.36,-128.73 1207.73,-125.84"/>
</g>
<!-- 20 -->
<g id="node21" class="node">
<title>20</title>
<text text-anchor="start" x="1305.5" y="-99.8" font-family="Arial" font-weight="bold" font-size="14.00"> ≥ 96.66</text>
<path fill="#f8766d" fill-opacity="0.439216" stroke="transparent" d="M1285,-27C1285,-27 1375,-27 1375,-27 1381,-27 1387,-33 1387,-39 1387,-39 1387,-79 1387,-79 1387,-85 1381,-91 1375,-91 1375,-91 1285,-91 1285,-91 1279,-91 1273,-85 1273,-79 1273,-79 1273,-39 1273,-39 1273,-33 1279,-27 1285,-27"/>
<text text-anchor="start" x="1274" y="-88.4" font-family="Arial" font-size="2.00"> </text>
<text text-anchor="start" x="1274" y="-82.4" font-family="Arial" font-size="7.00"> &#160;20</text>
<text text-anchor="start" x="1288" y="-65.8" font-family="Arial" font-weight="bold" font-size="14.00">Predict 97.91</text>
<text text-anchor="start" x="1310" y="-48.8" font-family="Arial" font-weight="bold" font-size="14.00">n = 30</text>
<text text-anchor="start" x="1328.5" y="-30.8" font-family="Arial" font-size="9.00"> </text>
<path fill="none" stroke="#333333" d="M1285,-27C1285,-27 1375,-27 1375,-27 1381,-27 1387,-33 1387,-39 1387,-39 1387,-79 1387,-79 1387,-85 1381,-91 1375,-91 1375,-91 1285,-91 1285,-91 1279,-91 1273,-85 1273,-79 1273,-79 1273,-39 1273,-39 1273,-33 1279,-27 1285,-27"/>
<text text-anchor="start" x="1328" y="-12.8" font-family="Arial" font-weight="bold" font-size="14.00"> </text>
</g>
<!-- 18&#45;&gt;20 -->
<g id="edge20" class="edge">
<title>18&#45;&gt;20</title>
<path fill="none" stroke="#888888" d="M1276.39,-153.67C1281.38,-144.94 1286.57,-135.88 1291.66,-126.99"/>
<polygon fill="#888888" stroke="#888888" points="1294.77,-128.59 1296.7,-118.18 1288.7,-125.12 1294.77,-128.59"/>
</g>
<!-- 22 -->
<g id="node22" class="node">
<title>22</title>
<text text-anchor="start" x="1461" y="-99.8" font-family="Arial" font-weight="bold" font-size="14.00"> &lt; 75.48</text>
<path fill="#f8766d" fill-opacity="0.470588" stroke="transparent" d="M1441,-27C1441,-27 1531,-27 1531,-27 1537,-27 1543,-33 1543,-39 1543,-39 1543,-79 1543,-79 1543,-85 1537,-91 1531,-91 1531,-91 1441,-91 1441,-91 1435,-91 1429,-85 1429,-79 1429,-79 1429,-39 1429,-39 1429,-33 1435,-27 1441,-27"/>
<text text-anchor="start" x="1430" y="-88.4" font-family="Arial" font-size="2.00"> </text>
<text text-anchor="start" x="1430" y="-82.4" font-family="Arial" font-size="7.00"> &#160;22</text>
<text text-anchor="start" x="1444" y="-65.8" font-family="Arial" font-weight="bold" font-size="14.00">Predict 94.92</text>
<text text-anchor="start" x="1470" y="-48.8" font-family="Arial" font-weight="bold" font-size="14.00">n = 3</text>
<text text-anchor="start" x="1484.5" y="-30.8" font-family="Arial" font-size="9.00"> </text>
<path fill="none" stroke="#333333" d="M1441,-27C1441,-27 1531,-27 1531,-27 1537,-27 1543,-33 1543,-39 1543,-39 1543,-79 1543,-79 1543,-85 1537,-91 1531,-91 1531,-91 1441,-91 1441,-91 1435,-91 1429,-85 1429,-79 1429,-79 1429,-39 1429,-39 1429,-33 1435,-27 1441,-27"/>
<text text-anchor="start" x="1484" y="-12.8" font-family="Arial" font-weight="bold" font-size="14.00"> </text>
</g>
<!-- 21&#45;&gt;22 -->
<g id="edge21" class="edge">
<title>21&#45;&gt;22</title>
<path fill="none" stroke="#888888" d="M1486,-153.67C1486,-145.39 1486,-136.83 1486,-128.38"/>
<polygon fill="#888888" stroke="#888888" points="1489.5,-128.18 1486,-118.18 1482.5,-128.18 1489.5,-128.18"/>
</g>
<!-- 23 -->
<g id="node23" class="node">
<title>23</title>
<text text-anchor="start" x="1617.5" y="-99.8" font-family="Arial" font-weight="bold" font-size="14.00"> ≥ 75.48</text>
<path fill="#f8766d" fill-opacity="0.376471" stroke="transparent" d="M1597,-27C1597,-27 1687,-27 1687,-27 1693,-27 1699,-33 1699,-39 1699,-39 1699,-79 1699,-79 1699,-85 1693,-91 1687,-91 1687,-91 1597,-91 1597,-91 1591,-91 1585,-85 1585,-79 1585,-79 1585,-39 1585,-39 1585,-33 1591,-27 1597,-27"/>
<text text-anchor="start" x="1586" y="-88.4" font-family="Arial" font-size="2.00"> </text>
<text text-anchor="start" x="1586" y="-82.4" font-family="Arial" font-size="7.00"> &#160;23</text>
<text text-anchor="start" x="1600" y="-65.8" font-family="Arial" font-weight="bold" font-size="14.00">Predict 103.5</text>
<text text-anchor="start" x="1622" y="-48.8" font-family="Arial" font-weight="bold" font-size="14.00">n = 56</text>
<text text-anchor="start" x="1640.5" y="-30.8" font-family="Arial" font-size="9.00"> </text>
<path fill="none" stroke="#333333" d="M1597,-27C1597,-27 1687,-27 1687,-27 1693,-27 1699,-33 1699,-39 1699,-39 1699,-79 1699,-79 1699,-85 1693,-91 1687,-91 1687,-91 1597,-91 1597,-91 1591,-91 1585,-85 1585,-79 1585,-79 1585,-39 1585,-39 1585,-33 1591,-27 1597,-27"/>
<text text-anchor="start" x="1640" y="-12.8" font-family="Arial" font-weight="bold" font-size="14.00"> </text>
</g>
<!-- 21&#45;&gt;23 -->
<g id="edge22" class="edge">
<title>21&#45;&gt;23</title>
<path fill="none" stroke="#888888" d="M1545.87,-153.67C1555.38,-144.39 1565.28,-134.75 1574.95,-125.33"/>
<polygon fill="#888888" stroke="#888888" points="1577.57,-127.66 1582.29,-118.18 1572.69,-122.65 1577.57,-127.66"/>
</g>
</g>
</svg>
