<?xml version="1.0" encoding="UTF-8" standalone="no"?>
<!DOCTYPE svg PUBLIC "-//W3C//DTD SVG 1.1//EN"
 "http://www.w3.org/Graphics/SVG/1.1/DTD/svg11.dtd">
<!-- Generated by graphviz version 2.50.0 (20211204.2007)
 -->
<!-- Pages: 1 -->
<svg width="617pt" height="434pt"
 viewBox="0.00 0.00 617.00 434.00" xmlns="http://www.w3.org/2000/svg" xmlns:xlink="http://www.w3.org/1999/xlink">
<g id="graph0" class="graph" transform="scale(1 1) rotate(0) translate(4 430)">
<polygon fill="white" stroke="transparent" points="-4,4 -4,-430 613,-430 613,4 -4,4"/>
<!-- 1 -->
<g id="node1" class="node">
<title>1</title>
<text text-anchor="start" x="298" y="-407.8" font-family="Arial" font-weight="bold" font-size="14.00"> </text>
<text text-anchor="start" x="228" y="-363.3" font-family="Arial" font-size="14.00"> &#160;&#160;&#160;</text>
<path fill="#ebebeb" stroke="transparent" d="M258,-335C258,-335 342,-335 342,-335 348,-335 354,-341 354,-347 354,-347 354,-387 354,-387 354,-393 348,-399 342,-399 342,-399 258,-399 258,-399 252,-399 246,-393 246,-387 246,-387 246,-347 246,-347 246,-341 252,-335 258,-335"/>
<text text-anchor="start" x="247" y="-396.4" font-family="Arial" font-size="2.00"> </text>
<text text-anchor="start" x="247" y="-390.4" font-family="Arial" font-size="7.00"> &#160;1</text>
<text text-anchor="start" x="261" y="-373.8" font-family="Arial" font-weight="bold" font-size="14.00">Mean: 7.264</text>
<text text-anchor="start" x="276.5" y="-356.8" font-family="Arial" font-weight="bold" font-size="14.00">n = 168</text>
<text text-anchor="start" x="298.5" y="-338.8" font-family="Arial" font-size="9.00"> </text>
<path fill="none" stroke="#333333" d="M258,-335C258,-335 342,-335 342,-335 348,-335 354,-341 354,-347 354,-347 354,-387 354,-387 354,-393 348,-399 342,-399 342,-399 258,-399 258,-399 252,-399 246,-393 246,-387 246,-387 246,-347 246,-347 246,-341 252,-335 258,-335"/>
<text text-anchor="start" x="356" y="-363.3" font-family="Arial" font-size="14.00"> &#160;&#160;&#160;</text>
<text text-anchor="start" x="242.5" y="-320.8" font-family="Arial" font-weight="bold" font-size="14.00">prev_168h_inflow</text>
</g>
<!-- 2 -->
<g id="node2" class="node">
<title>2</title>
<text text-anchor="start" x="184" y="-253.8" font-family="Arial" font-weight="bold" font-size="14.00"> &lt; 7.985</text>
<text text-anchor="start" x="137" y="-209.3" font-family="Arial" font-size="14.00"> &#160;&#160;&#160;</text>
<path fill="#ebebeb" stroke="transparent" d="M167,-181C167,-181 251,-181 251,-181 257,-181 263,-187 263,-193 263,-193 263,-233 263,-233 263,-239 257,-245 251,-245 251,-245 167,-245 167,-245 161,-245 155,-239 155,-233 155,-233 155,-193 155,-193 155,-187 161,-181 167,-181"/>
<text text-anchor="start" x="156" y="-242.4" font-family="Arial" font-size="2.00"> </text>
<text text-anchor="start" x="156" y="-236.4" font-family="Arial" font-size="7.00"> &#160;2</text>
<text text-anchor="start" x="170" y="-219.8" font-family="Arial" font-weight="bold" font-size="14.00">Mean: 5.704</text>
<text text-anchor="start" x="189" y="-202.8" font-family="Arial" font-weight="bold" font-size="14.00">n = 90</text>
<text text-anchor="start" x="207.5" y="-184.8" font-family="Arial" font-size="9.00"> </text>
<path fill="none" stroke="#333333" d="M167,-181C167,-181 251,-181 251,-181 257,-181 263,-187 263,-193 263,-193 263,-233 263,-233 263,-239 257,-245 251,-245 251,-245 167,-245 167,-245 161,-245 155,-239 155,-233 155,-233 155,-193 155,-193 155,-187 161,-181 167,-181"/>
<text text-anchor="start" x="265" y="-209.3" font-family="Arial" font-size="14.00"> &#160;&#160;&#160;</text>
<text text-anchor="start" x="151.5" y="-166.8" font-family="Arial" font-weight="bold" font-size="14.00">prev_168h_inflow</text>
</g>
<!-- 1&#45;&gt;2 -->
<g id="edge1" class="edge">
<title>1&#45;&gt;2</title>
<path fill="none" stroke="#888888" d="M265.08,-307.67C259.85,-298.94 254.43,-289.88 249.11,-280.99"/>
<polygon fill="#888888" stroke="#888888" points="251.97,-278.96 243.83,-272.18 245.96,-282.55 251.97,-278.96"/>
</g>
<!-- 5 -->
<g id="node3" class="node">
<title>5</title>
<text text-anchor="start" x="366.5" y="-253.8" font-family="Arial" font-weight="bold" font-size="14.00"> ≥ 7.985</text>
<text text-anchor="start" x="319" y="-209.3" font-family="Arial" font-size="14.00"> &#160;&#160;&#160;</text>
<path fill="#ebebeb" stroke="transparent" d="M349,-181C349,-181 433,-181 433,-181 439,-181 445,-187 445,-193 445,-193 445,-233 445,-233 445,-239 439,-245 433,-245 433,-245 349,-245 349,-245 343,-245 337,-239 337,-233 337,-233 337,-193 337,-193 337,-187 343,-181 349,-181"/>
<text text-anchor="start" x="338" y="-242.4" font-family="Arial" font-size="2.00"> </text>
<text text-anchor="start" x="338" y="-236.4" font-family="Arial" font-size="7.00"> &#160;5</text>
<text text-anchor="start" x="352" y="-219.8" font-family="Arial" font-weight="bold" font-size="14.00">Mean: 9.064</text>
<text text-anchor="start" x="371" y="-202.8" font-family="Arial" font-weight="bold" font-size="14.00">n = 78</text>
<text text-anchor="start" x="389.5" y="-184.8" font-family="Arial" font-size="9.00"> </text>
<path fill="none" stroke="#333333" d="M349,-181C349,-181 433,-181 433,-181 439,-181 445,-187 445,-193 445,-193 445,-233 445,-233 445,-239 439,-245 433,-245 433,-245 349,-245 349,-245 343,-245 337,-239 337,-233 337,-233 337,-193 337,-193 337,-187 343,-181 349,-181"/>
<text text-anchor="start" x="447" y="-209.3" font-family="Arial" font-size="14.00"> &#160;&#160;&#160;</text>
<text text-anchor="start" x="333.5" y="-166.8" font-family="Arial" font-weight="bold" font-size="14.00">prev_168h_inflow</text>
</g>
<!-- 1&#45;&gt;5 -->
<g id="edge2" class="edge">
<title>1&#45;&gt;5</title>
<path fill="none" stroke="#888888" d="M334.92,-307.67C340.15,-298.94 345.57,-289.88 350.89,-280.99"/>
<polygon fill="#888888" stroke="#888888" points="354.04,-282.55 356.17,-272.18 348.03,-278.96 354.04,-282.55"/>
</g>
<!-- 3 -->
<g id="node4" class="node">
<title>3</title>
<text text-anchor="start" x="43.5" y="-99.8" font-family="Arial" font-weight="bold" font-size="14.00"> &lt; 6.41</text>
<path fill="#f8766d" fill-opacity="0.874510" stroke="transparent" d="M24,-27C24,-27 106,-27 106,-27 112,-27 118,-33 118,-39 118,-39 118,-79 118,-79 118,-85 112,-91 106,-91 106,-91 24,-91 24,-91 18,-91 12,-85 12,-79 12,-79 12,-39 12,-39 12,-33 18,-27 24,-27"/>
<text text-anchor="start" x="13" y="-88.4" font-family="Arial" font-size="2.00"> </text>
<text text-anchor="start" x="13" y="-82.4" font-family="Arial" font-size="7.00"> &#160;3</text>
<text text-anchor="start" x="27" y="-65.8" font-family="Arial" font-weight="bold" font-size="14.00">Predict 4.85</text>
<text text-anchor="start" x="45" y="-48.8" font-family="Arial" font-weight="bold" font-size="14.00">n = 56</text>
<text text-anchor="start" x="63.5" y="-30.8" font-family="Arial" font-size="9.00"> </text>
<path fill="none" stroke="#333333" d="M24,-27C24,-27 106,-27 106,-27 112,-27 118,-33 118,-39 118,-39 118,-79 118,-79 118,-85 112,-91 106,-91 106,-91 24,-91 24,-91 18,-91 12,-85 12,-79 12,-79 12,-39 12,-39 12,-33 18,-27 24,-27"/>
<text text-anchor="start" x="63" y="-12.8" font-family="Arial" font-weight="bold" font-size="14.00"> </text>
</g>
<!-- 2&#45;&gt;3 -->
<g id="edge3" class="edge">
<title>2&#45;&gt;3</title>
<path fill="none" stroke="#888888" d="M153.74,-153.67C145.04,-144.49 135.99,-134.94 127.15,-125.6"/>
<polygon fill="#888888" stroke="#888888" points="129.53,-123.03 120.11,-118.18 124.45,-127.84 129.53,-123.03"/>
</g>
<!-- 4 -->
<g id="node5" class="node">
<title>4</title>
<text text-anchor="start" x="195" y="-99.8" font-family="Arial" font-weight="bold" font-size="14.00"> ≥ 6.41</text>
<path fill="#f8766d" fill-opacity="0.780392" stroke="transparent" d="M172,-27C172,-27 260,-27 260,-27 266,-27 272,-33 272,-39 272,-39 272,-79 272,-79 272,-85 266,-91 260,-91 260,-91 172,-91 172,-91 166,-91 160,-85 160,-79 160,-79 160,-39 160,-39 160,-33 166,-27 172,-27"/>
<text text-anchor="start" x="161" y="-88.4" font-family="Arial" font-size="2.00"> </text>
<text text-anchor="start" x="161" y="-82.4" font-family="Arial" font-size="7.00"> &#160;4</text>
<text text-anchor="start" x="175" y="-65.8" font-family="Arial" font-weight="bold" font-size="14.00">Predict 7.111</text>
<text text-anchor="start" x="196" y="-48.8" font-family="Arial" font-weight="bold" font-size="14.00">n = 34</text>
<text text-anchor="start" x="214.5" y="-30.8" font-family="Arial" font-size="9.00"> </text>
<path fill="none" stroke="#333333" d="M172,-27C172,-27 260,-27 260,-27 266,-27 272,-33 272,-39 272,-39 272,-79 272,-79 272,-85 266,-91 260,-91 260,-91 172,-91 172,-91 166,-91 160,-85 160,-79 160,-79 160,-39 160,-39 160,-33 166,-27 172,-27"/>
<text text-anchor="start" x="214" y="-12.8" font-family="Arial" font-weight="bold" font-size="14.00"> </text>
</g>
<!-- 2&#45;&gt;4 -->
<g id="edge4" class="edge">
<title>2&#45;&gt;4</title>
<path fill="none" stroke="#888888" d="M211.69,-153.67C212.07,-145.39 212.46,-136.83 212.85,-128.38"/>
<polygon fill="#888888" stroke="#888888" points="216.36,-128.33 213.32,-118.18 209.36,-128 216.36,-128.33"/>
</g>
<!-- 6 -->
<g id="node6" class="node">
<title>6</title>
<text text-anchor="start" x="359" y="-99.8" font-family="Arial" font-weight="bold" font-size="14.00"> &lt; 14.93</text>
<path fill="#f8766d" fill-opacity="0.705882" stroke="transparent" d="M339,-27C339,-27 429,-27 429,-27 435,-27 441,-33 441,-39 441,-39 441,-79 441,-79 441,-85 435,-91 429,-91 429,-91 339,-91 339,-91 333,-91 327,-85 327,-79 327,-79 327,-39 327,-39 327,-33 333,-27 339,-27"/>
<text text-anchor="start" x="328" y="-88.4" font-family="Arial" font-size="2.00"> </text>
<text text-anchor="start" x="328" y="-82.4" font-family="Arial" font-size="7.00"> &#160;6</text>
<text text-anchor="start" x="342" y="-65.8" font-family="Arial" font-weight="bold" font-size="14.00">Predict 8.861</text>
<text text-anchor="start" x="364" y="-48.8" font-family="Arial" font-weight="bold" font-size="14.00">n = 76</text>
<text text-anchor="start" x="382.5" y="-30.8" font-family="Arial" font-size="9.00"> </text>
<path fill="none" stroke="#333333" d="M339,-27C339,-27 429,-27 429,-27 435,-27 441,-33 441,-39 441,-39 441,-79 441,-79 441,-85 435,-91 429,-91 429,-91 339,-91 339,-91 333,-91 327,-85 327,-79 327,-79 327,-39 327,-39 327,-33 333,-27 339,-27"/>
<text text-anchor="start" x="382" y="-12.8" font-family="Arial" font-weight="bold" font-size="14.00"> </text>
</g>
<!-- 5&#45;&gt;6 -->
<g id="edge5" class="edge">
<title>5&#45;&gt;6</title>
<path fill="none" stroke="#888888" d="M388.31,-153.67C387.93,-145.39 387.54,-136.83 387.15,-128.38"/>
<polygon fill="#888888" stroke="#888888" points="390.64,-128 386.68,-118.18 383.64,-128.33 390.64,-128"/>
</g>
<!-- 7 -->
<g id="node7" class="node">
<title>7</title>
<text text-anchor="start" x="515.5" y="-99.8" font-family="Arial" font-weight="bold" font-size="14.00"> ≥ 14.93</text>
<path fill="#f8766d" fill-opacity="0.376471" stroke="transparent" d="M495,-27C495,-27 585,-27 585,-27 591,-27 597,-33 597,-39 597,-39 597,-79 597,-79 597,-85 591,-91 585,-91 585,-91 495,-91 495,-91 489,-91 483,-85 483,-79 483,-79 483,-39 483,-39 483,-33 489,-27 495,-27"/>
<text text-anchor="start" x="484" y="-88.4" font-family="Arial" font-size="2.00"> </text>
<text text-anchor="start" x="484" y="-82.4" font-family="Arial" font-size="7.00"> &#160;7</text>
<text text-anchor="start" x="498" y="-65.8" font-family="Arial" font-weight="bold" font-size="14.00">Predict 16.78</text>
<text text-anchor="start" x="524" y="-48.8" font-family="Arial" font-weight="bold" font-size="14.00">n = 2</text>
<text text-anchor="start" x="538.5" y="-30.8" font-family="Arial" font-size="9.00"> </text>
<path fill="none" stroke="#333333" d="M495,-27C495,-27 585,-27 585,-27 591,-27 597,-33 597,-39 597,-39 597,-79 597,-79 597,-85 591,-91 585,-91 585,-91 495,-91 495,-91 489,-91 483,-85 483,-79 483,-79 483,-39 483,-39 483,-33 489,-27 495,-27"/>
<text text-anchor="start" x="538" y="-12.8" font-family="Arial" font-weight="bold" font-size="14.00"> </text>
</g>
<!-- 5&#45;&gt;7 -->
<g id="edge6" class="edge">
<title>5&#45;&gt;7</title>
<path fill="none" stroke="#888888" d="M448.18,-153.67C457.27,-144.39 466.73,-134.75 475.96,-125.33"/>
<polygon fill="#888888" stroke="#888888" points="478.47,-127.77 482.97,-118.18 473.47,-122.87 478.47,-127.77"/>
</g>
</g>
</svg>
