<?xml version="1.0" encoding="UTF-8" standalone="no"?>
<!DOCTYPE svg PUBLIC "-//W3C//DTD SVG 1.1//EN"
 "http://www.w3.org/Graphics/SVG/1.1/DTD/svg11.dtd">
<!-- Generated by graphviz version 2.50.0 (20211204.2007)
 -->
<!-- Pages: 1 -->
<svg width="799pt" height="588pt"
 viewBox="0.00 0.00 799.00 588.00" xmlns="http://www.w3.org/2000/svg" xmlns:xlink="http://www.w3.org/1999/xlink">
<g id="graph0" class="graph" transform="scale(1 1) rotate(0) translate(4 584)">
<polygon fill="white" stroke="transparent" points="-4,4 -4,-584 795,-584 795,4 -4,4"/>
<!-- 1 -->
<g id="node1" class="node">
<title>1</title>
<text text-anchor="start" x="481" y="-561.8" font-family="Arial" font-weight="bold" font-size="14.00"> </text>
<text text-anchor="start" x="415" y="-517.3" font-family="Arial" font-size="14.00"> &#160;&#160;&#160;</text>
<path fill="#ebebeb" stroke="transparent" d="M445,-489C445,-489 521,-489 521,-489 527,-489 533,-495 533,-501 533,-501 533,-541 533,-541 533,-547 527,-553 521,-553 521,-553 445,-553 445,-553 439,-553 433,-547 433,-541 433,-541 433,-501 433,-501 433,-495 439,-489 445,-489"/>
<text text-anchor="start" x="434" y="-550.4" font-family="Arial" font-size="2.00"> </text>
<text text-anchor="start" x="434" y="-544.4" font-family="Arial" font-size="7.00"> &#160;1</text>
<text text-anchor="start" x="448" y="-527.8" font-family="Arial" font-weight="bold" font-size="14.00">Mean: 25.9</text>
<text text-anchor="start" x="459.5" y="-510.8" font-family="Arial" font-weight="bold" font-size="14.00">n = 168</text>
<text text-anchor="start" x="481.5" y="-492.8" font-family="Arial" font-size="9.00"> </text>
<path fill="none" stroke="#333333" d="M445,-489C445,-489 521,-489 521,-489 527,-489 533,-495 533,-501 533,-501 533,-541 533,-541 533,-547 527,-553 521,-553 521,-553 445,-553 445,-553 439,-553 433,-547 433,-541 433,-541 433,-501 433,-501 433,-495 439,-489 445,-489"/>
<text text-anchor="start" x="535" y="-517.3" font-family="Arial" font-size="14.00"> &#160;&#160;&#160;</text>
<text text-anchor="start" x="425.5" y="-474.8" font-family="Arial" font-weight="bold" font-size="14.00">prev_168h_inflow</text>
</g>
<!-- 2 -->
<g id="node2" class="node">
<title>2</title>
<text text-anchor="start" x="367" y="-407.8" font-family="Arial" font-weight="bold" font-size="14.00"> &lt; 28.19</text>
<text text-anchor="start" x="320" y="-363.3" font-family="Arial" font-size="14.00"> &#160;&#160;&#160;</text>
<path fill="#ebebeb" stroke="transparent" d="M350,-335C350,-335 434,-335 434,-335 440,-335 446,-341 446,-347 446,-347 446,-387 446,-387 446,-393 440,-399 434,-399 434,-399 350,-399 350,-399 344,-399 338,-393 338,-387 338,-387 338,-347 338,-347 338,-341 344,-335 350,-335"/>
<text text-anchor="start" x="339" y="-396.4" font-family="Arial" font-size="2.00"> </text>
<text text-anchor="start" x="339" y="-390.4" font-family="Arial" font-size="7.00"> &#160;2</text>
<text text-anchor="start" x="353" y="-373.8" font-family="Arial" font-weight="bold" font-size="14.00">Mean: 24.34</text>
<text text-anchor="start" x="368.5" y="-356.8" font-family="Arial" font-weight="bold" font-size="14.00">n = 130</text>
<text text-anchor="start" x="390.5" y="-338.8" font-family="Arial" font-size="9.00"> </text>
<path fill="none" stroke="#333333" d="M350,-335C350,-335 434,-335 434,-335 440,-335 446,-341 446,-347 446,-347 446,-387 446,-387 446,-393 440,-399 434,-399 434,-399 350,-399 350,-399 344,-399 338,-393 338,-387 338,-387 338,-347 338,-347 338,-341 344,-335 350,-335"/>
<text text-anchor="start" x="448" y="-363.3" font-family="Arial" font-size="14.00"> &#160;&#160;&#160;</text>
<text text-anchor="start" x="334.5" y="-320.8" font-family="Arial" font-weight="bold" font-size="14.00">prev_168h_inflow</text>
</g>
<!-- 1&#45;&gt;2 -->
<g id="edge1" class="edge">
<title>1&#45;&gt;2</title>
<path fill="none" stroke="#888888" d="M448.08,-461.67C442.85,-452.94 437.43,-443.88 432.11,-434.99"/>
<polygon fill="#888888" stroke="#888888" points="434.97,-432.96 426.83,-426.18 428.96,-436.55 434.97,-432.96"/>
</g>
<!-- 9 -->
<g id="node3" class="node">
<title>9</title>
<text text-anchor="start" x="549.5" y="-407.8" font-family="Arial" font-weight="bold" font-size="14.00"> ≥ 28.19</text>
<text text-anchor="start" x="502" y="-363.3" font-family="Arial" font-size="14.00"> &#160;&#160;&#160;</text>
<path fill="#ebebeb" stroke="transparent" d="M532,-335C532,-335 616,-335 616,-335 622,-335 628,-341 628,-347 628,-347 628,-387 628,-387 628,-393 622,-399 616,-399 616,-399 532,-399 532,-399 526,-399 520,-393 520,-387 520,-387 520,-347 520,-347 520,-341 526,-335 532,-335"/>
<text text-anchor="start" x="521" y="-396.4" font-family="Arial" font-size="2.00"> </text>
<text text-anchor="start" x="521" y="-390.4" font-family="Arial" font-size="7.00"> &#160;9</text>
<text text-anchor="start" x="535" y="-373.8" font-family="Arial" font-weight="bold" font-size="14.00">Mean: 31.22</text>
<text text-anchor="start" x="554" y="-356.8" font-family="Arial" font-weight="bold" font-size="14.00">n = 38</text>
<text text-anchor="start" x="572.5" y="-338.8" font-family="Arial" font-size="9.00"> </text>
<path fill="none" stroke="#333333" d="M532,-335C532,-335 616,-335 616,-335 622,-335 628,-341 628,-347 628,-347 628,-387 628,-387 628,-393 622,-399 616,-399 616,-399 532,-399 532,-399 526,-399 520,-393 520,-387 520,-387 520,-347 520,-347 520,-341 526,-335 532,-335"/>
<text text-anchor="start" x="630" y="-363.3" font-family="Arial" font-size="14.00"> &#160;&#160;&#160;</text>
<text text-anchor="start" x="516.5" y="-320.8" font-family="Arial" font-weight="bold" font-size="14.00">prev_168h_inflow</text>
</g>
<!-- 1&#45;&gt;9 -->
<g id="edge2" class="edge">
<title>1&#45;&gt;9</title>
<path fill="none" stroke="#888888" d="M517.92,-461.67C523.15,-452.94 528.57,-443.88 533.89,-434.99"/>
<polygon fill="#888888" stroke="#888888" points="537.04,-436.55 539.17,-426.18 531.03,-432.96 537.04,-436.55"/>
</g>
<!-- 3 -->
<g id="node4" class="node">
<title>3</title>
<text text-anchor="start" x="194" y="-253.8" font-family="Arial" font-weight="bold" font-size="14.00"> &lt; 24.41</text>
<text text-anchor="start" x="151" y="-209.3" font-family="Arial" font-size="14.00"> &#160;&#160;&#160;</text>
<path fill="#ebebeb" stroke="transparent" d="M181,-181C181,-181 257,-181 257,-181 263,-181 269,-187 269,-193 269,-193 269,-233 269,-233 269,-239 263,-245 257,-245 257,-245 181,-245 181,-245 175,-245 169,-239 169,-233 169,-233 169,-193 169,-193 169,-187 175,-181 181,-181"/>
<text text-anchor="start" x="170" y="-242.4" font-family="Arial" font-size="2.00"> </text>
<text text-anchor="start" x="170" y="-236.4" font-family="Arial" font-size="7.00"> &#160;3</text>
<text text-anchor="start" x="184" y="-219.8" font-family="Arial" font-weight="bold" font-size="14.00">Mean: 20.9</text>
<text text-anchor="start" x="199" y="-202.8" font-family="Arial" font-weight="bold" font-size="14.00">n = 57</text>
<text text-anchor="start" x="217.5" y="-184.8" font-family="Arial" font-size="9.00"> </text>
<path fill="none" stroke="#333333" d="M181,-181C181,-181 257,-181 257,-181 263,-181 269,-187 269,-193 269,-193 269,-233 269,-233 269,-239 263,-245 257,-245 257,-245 181,-245 181,-245 175,-245 169,-239 169,-233 169,-233 169,-193 169,-193 169,-187 175,-181 181,-181"/>
<text text-anchor="start" x="271" y="-209.3" font-family="Arial" font-size="14.00"> &#160;&#160;&#160;</text>
<text text-anchor="start" x="161.5" y="-166.8" font-family="Arial" font-weight="bold" font-size="14.00">prev_168h_inflow</text>
</g>
<!-- 2&#45;&gt;3 -->
<g id="edge3" class="edge">
<title>2&#45;&gt;3</title>
<path fill="none" stroke="#888888" d="M325.61,-307.67C314.95,-298.3 303.86,-288.56 293.04,-279.05"/>
<polygon fill="#888888" stroke="#888888" points="295.04,-276.15 285.21,-272.18 290.42,-281.41 295.04,-276.15"/>
</g>
<!-- 6 -->
<g id="node5" class="node">
<title>6</title>
<text text-anchor="start" x="372.5" y="-253.8" font-family="Arial" font-weight="bold" font-size="14.00"> ≥ 24.41</text>
<text text-anchor="start" x="325" y="-209.3" font-family="Arial" font-size="14.00"> &#160;&#160;&#160;</text>
<path fill="#ebebeb" stroke="transparent" d="M355,-181C355,-181 439,-181 439,-181 445,-181 451,-187 451,-193 451,-193 451,-233 451,-233 451,-239 445,-245 439,-245 439,-245 355,-245 355,-245 349,-245 343,-239 343,-233 343,-233 343,-193 343,-193 343,-187 349,-181 355,-181"/>
<text text-anchor="start" x="344" y="-242.4" font-family="Arial" font-size="2.00"> </text>
<text text-anchor="start" x="344" y="-236.4" font-family="Arial" font-size="7.00"> &#160;6</text>
<text text-anchor="start" x="358" y="-219.8" font-family="Arial" font-weight="bold" font-size="14.00">Mean: 27.02</text>
<text text-anchor="start" x="377" y="-202.8" font-family="Arial" font-weight="bold" font-size="14.00">n = 73</text>
<text text-anchor="start" x="395.5" y="-184.8" font-family="Arial" font-size="9.00"> </text>
<path fill="none" stroke="#333333" d="M355,-181C355,-181 439,-181 439,-181 445,-181 451,-187 451,-193 451,-193 451,-233 451,-233 451,-239 445,-245 439,-245 439,-245 355,-245 355,-245 349,-245 343,-239 343,-233 343,-233 343,-193 343,-193 343,-187 349,-181 355,-181"/>
<text text-anchor="start" x="453" y="-209.3" font-family="Arial" font-size="14.00"> &#160;&#160;&#160;</text>
<text text-anchor="start" x="339.5" y="-166.8" font-family="Arial" font-weight="bold" font-size="14.00">prev_168h_inflow</text>
</g>
<!-- 2&#45;&gt;6 -->
<g id="edge4" class="edge">
<title>2&#45;&gt;6</title>
<path fill="none" stroke="#888888" d="M393.92,-307.67C394.19,-299.39 394.47,-290.83 394.75,-282.38"/>
<polygon fill="#888888" stroke="#888888" points="398.26,-282.29 395.09,-272.18 391.26,-282.06 398.26,-282.29"/>
</g>
<!-- 10 -->
<g id="node10" class="node">
<title>10</title>
<text text-anchor="start" x="545" y="-253.8" font-family="Arial" font-weight="bold" font-size="14.00"> &lt; 30.88</text>
<path fill="#f8766d" fill-opacity="0.466667" stroke="transparent" d="M529,-181C529,-181 611,-181 611,-181 617,-181 623,-187 623,-193 623,-193 623,-233 623,-233 623,-239 617,-245 611,-245 611,-245 529,-245 529,-245 523,-245 517,-239 517,-233 517,-233 517,-193 517,-193 517,-187 523,-181 529,-181"/>
<text text-anchor="start" x="518" y="-242.4" font-family="Arial" font-size="2.00"> </text>
<text text-anchor="start" x="518" y="-236.4" font-family="Arial" font-size="7.00"> &#160;10</text>
<text text-anchor="start" x="532" y="-219.8" font-family="Arial" font-weight="bold" font-size="14.00">Predict 30.3</text>
<text text-anchor="start" x="550" y="-202.8" font-family="Arial" font-weight="bold" font-size="14.00">n = 23</text>
<text text-anchor="start" x="568.5" y="-184.8" font-family="Arial" font-size="9.00"> </text>
<path fill="none" stroke="#333333" d="M529,-181C529,-181 611,-181 611,-181 617,-181 623,-187 623,-193 623,-193 623,-233 623,-233 623,-239 617,-245 611,-245 611,-245 529,-245 529,-245 523,-245 517,-239 517,-233 517,-233 517,-193 517,-193 517,-187 523,-181 529,-181"/>
<text text-anchor="start" x="568" y="-166.8" font-family="Arial" font-weight="bold" font-size="14.00"> </text>
</g>
<!-- 9&#45;&gt;10 -->
<g id="edge9" class="edge">
<title>9&#45;&gt;10</title>
<path fill="none" stroke="#888888" d="M572.46,-307.67C572.25,-299.39 572.02,-290.83 571.8,-282.38"/>
<polygon fill="#888888" stroke="#888888" points="575.29,-282.08 571.53,-272.18 568.3,-282.27 575.29,-282.08"/>
</g>
<!-- 11 -->
<g id="node11" class="node">
<title>11</title>
<text text-anchor="start" x="697.5" y="-253.8" font-family="Arial" font-weight="bold" font-size="14.00"> ≥ 30.88</text>
<path fill="#f8766d" fill-opacity="0.376471" stroke="transparent" d="M677,-181C677,-181 767,-181 767,-181 773,-181 779,-187 779,-193 779,-193 779,-233 779,-233 779,-239 773,-245 767,-245 767,-245 677,-245 677,-245 671,-245 665,-239 665,-233 665,-233 665,-193 665,-193 665,-187 671,-181 677,-181"/>
<text text-anchor="start" x="666" y="-242.4" font-family="Arial" font-size="2.00"> </text>
<text text-anchor="start" x="666" y="-236.4" font-family="Arial" font-size="7.00"> &#160;11</text>
<text text-anchor="start" x="680" y="-219.8" font-family="Arial" font-weight="bold" font-size="14.00">Predict 32.64</text>
<text text-anchor="start" x="702" y="-202.8" font-family="Arial" font-weight="bold" font-size="14.00">n = 15</text>
<text text-anchor="start" x="720.5" y="-184.8" font-family="Arial" font-size="9.00"> </text>
<path fill="none" stroke="#333333" d="M677,-181C677,-181 767,-181 767,-181 773,-181 779,-187 779,-193 779,-193 779,-233 779,-233 779,-239 773,-245 767,-245 767,-245 677,-245 677,-245 671,-245 665,-239 665,-233 665,-233 665,-193 665,-193 665,-187 671,-181 677,-181"/>
<text text-anchor="start" x="720" y="-166.8" font-family="Arial" font-weight="bold" font-size="14.00"> </text>
</g>
<!-- 9&#45;&gt;11 -->
<g id="edge10" class="edge">
<title>9&#45;&gt;11</title>
<path fill="none" stroke="#888888" d="M630.8,-307.67C639.74,-298.49 649.03,-288.94 658.12,-279.6"/>
<polygon fill="#888888" stroke="#888888" points="660.89,-281.78 665.35,-272.18 655.87,-276.9 660.89,-281.78"/>
</g>
<!-- 4 -->
<g id="node6" class="node">
<title>4</title>
<text text-anchor="start" x="44" y="-99.8" font-family="Arial" font-weight="bold" font-size="14.00"> &lt; 20.98</text>
<path fill="#f8766d" fill-opacity="0.874510" stroke="transparent" d="M24,-27C24,-27 114,-27 114,-27 120,-27 126,-33 126,-39 126,-39 126,-79 126,-79 126,-85 120,-91 114,-91 114,-91 24,-91 24,-91 18,-91 12,-85 12,-79 12,-79 12,-39 12,-39 12,-33 18,-27 24,-27"/>
<text text-anchor="start" x="13" y="-88.4" font-family="Arial" font-size="2.00"> </text>
<text text-anchor="start" x="13" y="-82.4" font-family="Arial" font-size="7.00"> &#160;4</text>
<text text-anchor="start" x="27" y="-65.8" font-family="Arial" font-weight="bold" font-size="14.00">Predict 19.69</text>
<text text-anchor="start" x="49" y="-48.8" font-family="Arial" font-weight="bold" font-size="14.00">n = 37</text>
<text text-anchor="start" x="67.5" y="-30.8" font-family="Arial" font-size="9.00"> </text>
<path fill="none" stroke="#333333" d="M24,-27C24,-27 114,-27 114,-27 120,-27 126,-33 126,-39 126,-39 126,-79 126,-79 126,-85 120,-91 114,-91 114,-91 24,-91 24,-91 18,-91 12,-85 12,-79 12,-79 12,-39 12,-39 12,-33 18,-27 24,-27"/>
<text text-anchor="start" x="67" y="-12.8" font-family="Arial" font-weight="bold" font-size="14.00"> </text>
</g>
<!-- 3&#45;&gt;4 -->
<g id="edge5" class="edge">
<title>3&#45;&gt;4</title>
<path fill="none" stroke="#888888" d="M161.44,-153.67C152.28,-144.39 142.77,-134.75 133.47,-125.33"/>
<polygon fill="#888888" stroke="#888888" points="135.93,-122.84 126.41,-118.18 130.94,-127.75 135.93,-122.84"/>
</g>
<!-- 5 -->
<g id="node7" class="node">
<title>5</title>
<text text-anchor="start" x="200.5" y="-99.8" font-family="Arial" font-weight="bold" font-size="14.00"> ≥ 20.98</text>
<path fill="#f8766d" fill-opacity="0.741176" stroke="transparent" d="M180,-27C180,-27 270,-27 270,-27 276,-27 282,-33 282,-39 282,-39 282,-79 282,-79 282,-85 276,-91 270,-91 270,-91 180,-91 180,-91 174,-91 168,-85 168,-79 168,-79 168,-39 168,-39 168,-33 174,-27 180,-27"/>
<text text-anchor="start" x="169" y="-88.4" font-family="Arial" font-size="2.00"> </text>
<text text-anchor="start" x="169" y="-82.4" font-family="Arial" font-size="7.00"> &#160;5</text>
<text text-anchor="start" x="183" y="-65.8" font-family="Arial" font-weight="bold" font-size="14.00">Predict 23.14</text>
<text text-anchor="start" x="205" y="-48.8" font-family="Arial" font-weight="bold" font-size="14.00">n = 20</text>
<text text-anchor="start" x="223.5" y="-30.8" font-family="Arial" font-size="9.00"> </text>
<path fill="none" stroke="#333333" d="M180,-27C180,-27 270,-27 270,-27 276,-27 282,-33 282,-39 282,-39 282,-79 282,-79 282,-85 276,-91 270,-91 270,-91 180,-91 180,-91 174,-91 168,-85 168,-79 168,-79 168,-39 168,-39 168,-33 174,-27 180,-27"/>
<text text-anchor="start" x="223" y="-12.8" font-family="Arial" font-weight="bold" font-size="14.00"> </text>
</g>
<!-- 3&#45;&gt;5 -->
<g id="edge6" class="edge">
<title>3&#45;&gt;5</title>
<path fill="none" stroke="#888888" d="M221.3,-153.67C221.63,-145.39 221.97,-136.83 222.3,-128.38"/>
<polygon fill="#888888" stroke="#888888" points="225.81,-128.31 222.7,-118.18 218.81,-128.03 225.81,-128.31"/>
</g>
<!-- 7 -->
<g id="node8" class="node">
<title>7</title>
<text text-anchor="start" x="367" y="-99.8" font-family="Arial" font-weight="bold" font-size="14.00"> &lt; 26.44</text>
<path fill="#f8766d" fill-opacity="0.619608" stroke="transparent" d="M347,-27C347,-27 437,-27 437,-27 443,-27 449,-33 449,-39 449,-39 449,-79 449,-79 449,-85 443,-91 437,-91 437,-91 347,-91 347,-91 341,-91 335,-85 335,-79 335,-79 335,-39 335,-39 335,-33 341,-27 347,-27"/>
<text text-anchor="start" x="336" y="-88.4" font-family="Arial" font-size="2.00"> </text>
<text text-anchor="start" x="336" y="-82.4" font-family="Arial" font-size="7.00"> &#160;7</text>
<text text-anchor="start" x="350" y="-65.8" font-family="Arial" font-weight="bold" font-size="14.00">Predict 26.32</text>
<text text-anchor="start" x="372" y="-48.8" font-family="Arial" font-weight="bold" font-size="14.00">n = 42</text>
<text text-anchor="start" x="390.5" y="-30.8" font-family="Arial" font-size="9.00"> </text>
<path fill="none" stroke="#333333" d="M347,-27C347,-27 437,-27 437,-27 443,-27 449,-33 449,-39 449,-39 449,-79 449,-79 449,-85 443,-91 437,-91 437,-91 347,-91 347,-91 341,-91 335,-85 335,-79 335,-79 335,-39 335,-39 335,-33 341,-27 347,-27"/>
<text text-anchor="start" x="390" y="-12.8" font-family="Arial" font-weight="bold" font-size="14.00"> </text>
</g>
<!-- 6&#45;&gt;7 -->
<g id="edge7" class="edge">
<title>6&#45;&gt;7</title>
<path fill="none" stroke="#888888" d="M395.08,-153.67C394.81,-145.39 394.53,-136.83 394.25,-128.38"/>
<polygon fill="#888888" stroke="#888888" points="397.74,-128.06 393.91,-118.18 390.74,-128.29 397.74,-128.06"/>
</g>
<!-- 8 -->
<g id="node9" class="node">
<title>8</title>
<text text-anchor="start" x="523.5" y="-99.8" font-family="Arial" font-weight="bold" font-size="14.00"> ≥ 26.44</text>
<path fill="#f8766d" fill-opacity="0.556863" stroke="transparent" d="M503,-27C503,-27 593,-27 593,-27 599,-27 605,-33 605,-39 605,-39 605,-79 605,-79 605,-85 599,-91 593,-91 593,-91 503,-91 503,-91 497,-91 491,-85 491,-79 491,-79 491,-39 491,-39 491,-33 497,-27 503,-27"/>
<text text-anchor="start" x="492" y="-88.4" font-family="Arial" font-size="2.00"> </text>
<text text-anchor="start" x="492" y="-82.4" font-family="Arial" font-size="7.00"> &#160;8</text>
<text text-anchor="start" x="506" y="-65.8" font-family="Arial" font-weight="bold" font-size="14.00">Predict 27.97</text>
<text text-anchor="start" x="528" y="-48.8" font-family="Arial" font-weight="bold" font-size="14.00">n = 31</text>
<text text-anchor="start" x="546.5" y="-30.8" font-family="Arial" font-size="9.00"> </text>
<path fill="none" stroke="#333333" d="M503,-27C503,-27 593,-27 593,-27 599,-27 605,-33 605,-39 605,-39 605,-79 605,-79 605,-85 599,-91 593,-91 593,-91 503,-91 503,-91 497,-91 491,-85 491,-79 491,-79 491,-39 491,-39 491,-33 497,-27 503,-27"/>
<text text-anchor="start" x="546" y="-12.8" font-family="Arial" font-weight="bold" font-size="14.00"> </text>
</g>
<!-- 6&#45;&gt;8 -->
<g id="edge8" class="edge">
<title>6&#45;&gt;8</title>
<path fill="none" stroke="#888888" d="M454.95,-153.67C464.16,-144.39 473.74,-134.75 483.1,-125.33"/>
<polygon fill="#888888" stroke="#888888" points="485.64,-127.74 490.21,-118.18 480.68,-122.8 485.64,-127.74"/>
</g>
</g>
</svg>
