<?xml version="1.0" encoding="UTF-8" standalone="no"?>
<!DOCTYPE svg PUBLIC "-//W3C//DTD SVG 1.1//EN"
 "http://www.w3.org/Graphics/SVG/1.1/DTD/svg11.dtd">
<!-- Generated by graphviz version 2.50.0 (20211204.2007)
 -->
<!-- Pages: 1 -->
<svg width="1222pt" height="588pt"
 viewBox="0.00 0.00 1222.00 588.00" xmlns="http://www.w3.org/2000/svg" xmlns:xlink="http://www.w3.org/1999/xlink">
<g id="graph0" class="graph" transform="scale(1 1) rotate(0) translate(4 584)">
<polygon fill="white" stroke="transparent" points="-4,4 -4,-584 1218,-584 1218,4 -4,4"/>
<!-- 1 -->
<g id="node1" class="node">
<title>1</title>
<text text-anchor="start" x="613" y="-561.8" font-family="Arial" font-weight="bold" font-size="14.00"> </text>
<text text-anchor="start" x="543" y="-517.3" font-family="Arial" font-size="14.00"> &#160;&#160;&#160;</text>
<path fill="#ebebeb" stroke="transparent" d="M573,-489C573,-489 657,-489 657,-489 663,-489 669,-495 669,-501 669,-501 669,-541 669,-541 669,-547 663,-553 657,-553 657,-553 573,-553 573,-553 567,-553 561,-547 561,-541 561,-541 561,-501 561,-501 561,-495 567,-489 573,-489"/>
<text text-anchor="start" x="562" y="-550.4" font-family="Arial" font-size="2.00"> </text>
<text text-anchor="start" x="562" y="-544.4" font-family="Arial" font-size="7.00"> &#160;1</text>
<text text-anchor="start" x="576" y="-527.8" font-family="Arial" font-weight="bold" font-size="14.00">Mean: 24.63</text>
<text text-anchor="start" x="591.5" y="-510.8" font-family="Arial" font-weight="bold" font-size="14.00">n = 168</text>
<text text-anchor="start" x="613.5" y="-492.8" font-family="Arial" font-size="9.00"> </text>
<path fill="none" stroke="#333333" d="M573,-489C573,-489 657,-489 657,-489 663,-489 669,-495 669,-501 669,-501 669,-541 669,-541 669,-547 663,-553 657,-553 657,-553 573,-553 573,-553 567,-553 561,-547 561,-541 561,-541 561,-501 561,-501 561,-495 567,-489 573,-489"/>
<text text-anchor="start" x="671" y="-517.3" font-family="Arial" font-size="14.00"> &#160;&#160;&#160;</text>
<text text-anchor="start" x="557.5" y="-474.8" font-family="Arial" font-weight="bold" font-size="14.00">prev_168h_inflow</text>
</g>
<!-- 2 -->
<g id="node2" class="node">
<title>2</title>
<text text-anchor="start" x="475" y="-407.8" font-family="Arial" font-weight="bold" font-size="14.00"> &lt; 25.86</text>
<path fill="#ebebeb" stroke="transparent" d="M458,-335C458,-335 542,-335 542,-335 548,-335 554,-341 554,-347 554,-347 554,-387 554,-387 554,-393 548,-399 542,-399 542,-399 458,-399 458,-399 452,-399 446,-393 446,-387 446,-387 446,-347 446,-347 446,-341 452,-335 458,-335"/>
<text text-anchor="start" x="447" y="-396.4" font-family="Arial" font-size="2.00"> </text>
<text text-anchor="start" x="447" y="-390.4" font-family="Arial" font-size="7.00"> &#160;2</text>
<text text-anchor="start" x="461" y="-373.8" font-family="Arial" font-weight="bold" font-size="14.00">Mean: 18.29</text>
<text text-anchor="start" x="480" y="-356.8" font-family="Arial" font-weight="bold" font-size="14.00">n = 76</text>
<text text-anchor="start" x="498.5" y="-338.8" font-family="Arial" font-size="9.00"> </text>
<path fill="none" stroke="#333333" d="M458,-335C458,-335 542,-335 542,-335 548,-335 554,-341 554,-347 554,-347 554,-387 554,-387 554,-393 548,-399 542,-399 542,-399 458,-399 458,-399 452,-399 446,-393 446,-387 446,-387 446,-347 446,-347 446,-341 452,-335 458,-335"/>
<text text-anchor="start" x="485.5" y="-320.8" font-family="Arial" font-weight="bold" font-size="14.00">time</text>
</g>
<!-- 1&#45;&gt;2 -->
<g id="edge1" class="edge">
<title>1&#45;&gt;2</title>
<path fill="none" stroke="#888888" d="M570.87,-461.67C564.06,-452.67 556.98,-443.32 550.05,-434.16"/>
<polygon fill="#888888" stroke="#888888" points="552.84,-432.04 544.02,-426.18 547.26,-436.26 552.84,-432.04"/>
</g>
<!-- 9 -->
<g id="node3" class="node">
<title>9</title>
<text text-anchor="start" x="705.5" y="-407.8" font-family="Arial" font-weight="bold" font-size="14.00"> ≥ 25.86</text>
<text text-anchor="start" x="658" y="-363.3" font-family="Arial" font-size="14.00"> &#160;&#160;&#160;</text>
<path fill="#ebebeb" stroke="transparent" d="M688,-335C688,-335 772,-335 772,-335 778,-335 784,-341 784,-347 784,-347 784,-387 784,-387 784,-393 778,-399 772,-399 772,-399 688,-399 688,-399 682,-399 676,-393 676,-387 676,-387 676,-347 676,-347 676,-341 682,-335 688,-335"/>
<text text-anchor="start" x="677" y="-396.4" font-family="Arial" font-size="2.00"> </text>
<text text-anchor="start" x="677" y="-390.4" font-family="Arial" font-size="7.00"> &#160;9</text>
<text text-anchor="start" x="691" y="-373.8" font-family="Arial" font-weight="bold" font-size="14.00">Mean: 29.87</text>
<text text-anchor="start" x="710" y="-356.8" font-family="Arial" font-weight="bold" font-size="14.00">n = 92</text>
<text text-anchor="start" x="728.5" y="-338.8" font-family="Arial" font-size="9.00"> </text>
<path fill="none" stroke="#333333" d="M688,-335C688,-335 772,-335 772,-335 778,-335 784,-341 784,-347 784,-347 784,-387 784,-387 784,-393 778,-399 772,-399 772,-399 688,-399 688,-399 682,-399 676,-393 676,-387 676,-387 676,-347 676,-347 676,-341 682,-335 688,-335"/>
<text text-anchor="start" x="786" y="-363.3" font-family="Arial" font-size="14.00"> &#160;&#160;&#160;</text>
<text text-anchor="start" x="672.5" y="-320.8" font-family="Arial" font-weight="bold" font-size="14.00">prev_168h_inflow</text>
</g>
<!-- 1&#45;&gt;9 -->
<g id="edge2" class="edge">
<title>1&#45;&gt;9</title>
<path fill="none" stroke="#888888" d="M659.13,-461.67C665.94,-452.67 673.02,-443.32 679.95,-434.16"/>
<polygon fill="#888888" stroke="#888888" points="682.74,-436.26 685.98,-426.18 677.16,-432.04 682.74,-436.26"/>
</g>
<!-- 3 -->
<g id="node4" class="node">
<title>3</title>
<text text-anchor="start" x="207.5" y="-253.8" font-family="Arial" font-weight="bold" font-size="14.00"> &lt; 7.5</text>
<text text-anchor="start" x="153" y="-209.3" font-family="Arial" font-size="14.00"> &#160;&#160;&#160;</text>
<path fill="#ebebeb" stroke="transparent" d="M183,-181C183,-181 267,-181 267,-181 273,-181 279,-187 279,-193 279,-193 279,-233 279,-233 279,-239 273,-245 267,-245 267,-245 183,-245 183,-245 177,-245 171,-239 171,-233 171,-233 171,-193 171,-193 171,-187 177,-181 183,-181"/>
<text text-anchor="start" x="172" y="-242.4" font-family="Arial" font-size="2.00"> </text>
<text text-anchor="start" x="172" y="-236.4" font-family="Arial" font-size="7.00"> &#160;3</text>
<text text-anchor="start" x="186" y="-219.8" font-family="Arial" font-weight="bold" font-size="14.00">Mean: 15.62</text>
<text text-anchor="start" x="205" y="-202.8" font-family="Arial" font-weight="bold" font-size="14.00">n = 51</text>
<text text-anchor="start" x="223.5" y="-184.8" font-family="Arial" font-size="9.00"> </text>
<path fill="none" stroke="#333333" d="M183,-181C183,-181 267,-181 267,-181 273,-181 279,-187 279,-193 279,-193 279,-233 279,-233 279,-239 273,-245 267,-245 267,-245 183,-245 183,-245 177,-245 171,-239 171,-233 171,-233 171,-193 171,-193 171,-187 177,-181 183,-181"/>
<text text-anchor="start" x="281" y="-209.3" font-family="Arial" font-size="14.00"> &#160;&#160;&#160;</text>
<text text-anchor="start" x="167.5" y="-166.8" font-family="Arial" font-weight="bold" font-size="14.00">prev_168h_inflow</text>
</g>
<!-- 2&#45;&gt;3 -->
<g id="edge3" class="edge">
<title>2&#45;&gt;3</title>
<path fill="none" stroke="#888888" d="M433.78,-329.4C398.54,-309.92 354.67,-285.67 316.25,-264.44"/>
<polygon fill="#888888" stroke="#888888" points="317.57,-261.17 307.12,-259.39 314.18,-267.29 317.57,-261.17"/>
</g>
<!-- 6 -->
<g id="node5" class="node">
<title>6</title>
<text text-anchor="start" x="483" y="-253.8" font-family="Arial" font-weight="bold" font-size="14.00"> ≥ 7.5</text>
<text text-anchor="start" x="428" y="-209.3" font-family="Arial" font-size="14.00"> &#160;&#160;&#160;</text>
<path fill="#ebebeb" stroke="transparent" d="M458,-181C458,-181 542,-181 542,-181 548,-181 554,-187 554,-193 554,-193 554,-233 554,-233 554,-239 548,-245 542,-245 542,-245 458,-245 458,-245 452,-245 446,-239 446,-233 446,-233 446,-193 446,-193 446,-187 452,-181 458,-181"/>
<text text-anchor="start" x="447" y="-242.4" font-family="Arial" font-size="2.00"> </text>
<text text-anchor="start" x="447" y="-236.4" font-family="Arial" font-size="7.00"> &#160;6</text>
<text text-anchor="start" x="461" y="-219.8" font-family="Arial" font-weight="bold" font-size="14.00">Mean: 23.74</text>
<text text-anchor="start" x="480" y="-202.8" font-family="Arial" font-weight="bold" font-size="14.00">n = 25</text>
<text text-anchor="start" x="498.5" y="-184.8" font-family="Arial" font-size="9.00"> </text>
<path fill="none" stroke="#333333" d="M458,-181C458,-181 542,-181 542,-181 548,-181 554,-187 554,-193 554,-193 554,-233 554,-233 554,-239 548,-245 542,-245 542,-245 458,-245 458,-245 452,-245 446,-239 446,-233 446,-233 446,-193 446,-193 446,-187 452,-181 458,-181"/>
<text text-anchor="start" x="556" y="-209.3" font-family="Arial" font-size="14.00"> &#160;&#160;&#160;</text>
<text text-anchor="start" x="442.5" y="-166.8" font-family="Arial" font-weight="bold" font-size="14.00">prev_168h_inflow</text>
</g>
<!-- 2&#45;&gt;6 -->
<g id="edge4" class="edge">
<title>2&#45;&gt;6</title>
<path fill="none" stroke="#888888" d="M500,-307.67C500,-299.39 500,-290.83 500,-282.38"/>
<polygon fill="#888888" stroke="#888888" points="503.5,-282.18 500,-272.18 496.5,-282.18 503.5,-282.18"/>
</g>
<!-- 10 -->
<g id="node10" class="node">
<title>10</title>
<text text-anchor="start" x="708.5" y="-253.8" font-family="Arial" font-weight="bold" font-size="14.00"> &lt; 29.7</text>
<text text-anchor="start" x="666" y="-209.3" font-family="Arial" font-size="14.00"> &#160;</text>
<path fill="#ebebeb" stroke="transparent" d="M688,-181C688,-181 772,-181 772,-181 778,-181 784,-187 784,-193 784,-193 784,-233 784,-233 784,-239 778,-245 772,-245 772,-245 688,-245 688,-245 682,-245 676,-239 676,-233 676,-233 676,-193 676,-193 676,-187 682,-181 688,-181"/>
<text text-anchor="start" x="677" y="-242.4" font-family="Arial" font-size="2.00"> </text>
<text text-anchor="start" x="677" y="-236.4" font-family="Arial" font-size="7.00"> &#160;10</text>
<text text-anchor="start" x="691" y="-219.8" font-family="Arial" font-weight="bold" font-size="14.00">Mean: 27.68</text>
<text text-anchor="start" x="710" y="-202.8" font-family="Arial" font-weight="bold" font-size="14.00">n = 43</text>
<text text-anchor="start" x="728.5" y="-184.8" font-family="Arial" font-size="9.00"> </text>
<path fill="none" stroke="#333333" d="M688,-181C688,-181 772,-181 772,-181 778,-181 784,-187 784,-193 784,-193 784,-233 784,-233 784,-239 778,-245 772,-245 772,-245 688,-245 688,-245 682,-245 676,-239 676,-233 676,-233 676,-193 676,-193 676,-187 682,-181 688,-181"/>
<text text-anchor="start" x="786" y="-209.3" font-family="Arial" font-size="14.00"> &#160;</text>
<text text-anchor="start" x="680" y="-166.8" font-family="Arial" font-weight="bold" font-size="14.00">prev_1h_inflow</text>
</g>
<!-- 9&#45;&gt;10 -->
<g id="edge9" class="edge">
<title>9&#45;&gt;10</title>
<path fill="none" stroke="#888888" d="M730,-307.67C730,-299.39 730,-290.83 730,-282.38"/>
<polygon fill="#888888" stroke="#888888" points="733.5,-282.18 730,-272.18 726.5,-282.18 733.5,-282.18"/>
</g>
<!-- 13 -->
<g id="node11" class="node">
<title>13</title>
<text text-anchor="start" x="972" y="-253.8" font-family="Arial" font-weight="bold" font-size="14.00"> ≥ 29.7</text>
<path fill="#ebebeb" stroke="transparent" d="M955,-181C955,-181 1031,-181 1031,-181 1037,-181 1043,-187 1043,-193 1043,-193 1043,-233 1043,-233 1043,-239 1037,-245 1031,-245 1031,-245 955,-245 955,-245 949,-245 943,-239 943,-233 943,-233 943,-193 943,-193 943,-187 949,-181 955,-181"/>
<text text-anchor="start" x="944" y="-242.4" font-family="Arial" font-size="2.00"> </text>
<text text-anchor="start" x="944" y="-236.4" font-family="Arial" font-size="7.00"> &#160;13</text>
<text text-anchor="start" x="958" y="-219.8" font-family="Arial" font-weight="bold" font-size="14.00">Mean: 31.8</text>
<text text-anchor="start" x="973" y="-202.8" font-family="Arial" font-weight="bold" font-size="14.00">n = 49</text>
<text text-anchor="start" x="991.5" y="-184.8" font-family="Arial" font-size="9.00"> </text>
<path fill="none" stroke="#333333" d="M955,-181C955,-181 1031,-181 1031,-181 1037,-181 1043,-187 1043,-193 1043,-193 1043,-233 1043,-233 1043,-239 1037,-245 1031,-245 1031,-245 955,-245 955,-245 949,-245 943,-239 943,-233 943,-233 943,-193 943,-193 943,-187 949,-181 955,-181"/>
<text text-anchor="start" x="978.5" y="-166.8" font-family="Arial" font-weight="bold" font-size="14.00">time</text>
</g>
<!-- 9&#45;&gt;13 -->
<g id="edge10" class="edge">
<title>9&#45;&gt;13</title>
<path fill="none" stroke="#888888" d="M812.13,-318.53C847.27,-298.22 887.92,-274.73 921.77,-255.17"/>
<polygon fill="#888888" stroke="#888888" points="923.76,-258.06 930.67,-250.02 920.26,-252 923.76,-258.06"/>
</g>
<!-- 4 -->
<g id="node6" class="node">
<title>4</title>
<text text-anchor="start" x="44" y="-99.8" font-family="Arial" font-weight="bold" font-size="14.00"> &lt; 16.33</text>
<path fill="#f8766d" fill-opacity="0.874510" stroke="transparent" d="M24,-27C24,-27 114,-27 114,-27 120,-27 126,-33 126,-39 126,-39 126,-79 126,-79 126,-85 120,-91 114,-91 114,-91 24,-91 24,-91 18,-91 12,-85 12,-79 12,-79 12,-39 12,-39 12,-33 18,-27 24,-27"/>
<text text-anchor="start" x="13" y="-88.4" font-family="Arial" font-size="2.00"> </text>
<text text-anchor="start" x="13" y="-82.4" font-family="Arial" font-size="7.00"> &#160;4</text>
<text text-anchor="start" x="27" y="-65.8" font-family="Arial" font-weight="bold" font-size="14.00">Predict 14.56</text>
<text text-anchor="start" x="49" y="-48.8" font-family="Arial" font-weight="bold" font-size="14.00">n = 36</text>
<text text-anchor="start" x="67.5" y="-30.8" font-family="Arial" font-size="9.00"> </text>
<path fill="none" stroke="#333333" d="M24,-27C24,-27 114,-27 114,-27 120,-27 126,-33 126,-39 126,-39 126,-79 126,-79 126,-85 120,-91 114,-91 114,-91 24,-91 24,-91 18,-91 12,-85 12,-79 12,-79 12,-39 12,-39 12,-33 18,-27 24,-27"/>
<text text-anchor="start" x="67" y="-12.8" font-family="Arial" font-weight="bold" font-size="14.00"> </text>
</g>
<!-- 3&#45;&gt;4 -->
<g id="edge5" class="edge">
<title>3&#45;&gt;4</title>
<path fill="none" stroke="#888888" d="M165.13,-153.67C155.62,-144.39 145.72,-134.75 136.05,-125.33"/>
<polygon fill="#888888" stroke="#888888" points="138.31,-122.65 128.71,-118.18 133.43,-127.66 138.31,-122.65"/>
</g>
<!-- 5 -->
<g id="node7" class="node">
<title>5</title>
<text text-anchor="start" x="200.5" y="-99.8" font-family="Arial" font-weight="bold" font-size="14.00"> ≥ 16.33</text>
<path fill="#f8766d" fill-opacity="0.780392" stroke="transparent" d="M180,-27C180,-27 270,-27 270,-27 276,-27 282,-33 282,-39 282,-39 282,-79 282,-79 282,-85 276,-91 270,-91 270,-91 180,-91 180,-91 174,-91 168,-85 168,-79 168,-79 168,-39 168,-39 168,-33 174,-27 180,-27"/>
<text text-anchor="start" x="169" y="-88.4" font-family="Arial" font-size="2.00"> </text>
<text text-anchor="start" x="169" y="-82.4" font-family="Arial" font-size="7.00"> &#160;5</text>
<text text-anchor="start" x="183" y="-65.8" font-family="Arial" font-weight="bold" font-size="14.00">Predict 18.14</text>
<text text-anchor="start" x="205" y="-48.8" font-family="Arial" font-weight="bold" font-size="14.00">n = 15</text>
<text text-anchor="start" x="223.5" y="-30.8" font-family="Arial" font-size="9.00"> </text>
<path fill="none" stroke="#333333" d="M180,-27C180,-27 270,-27 270,-27 276,-27 282,-33 282,-39 282,-39 282,-79 282,-79 282,-85 276,-91 270,-91 270,-91 180,-91 180,-91 174,-91 168,-85 168,-79 168,-79 168,-39 168,-39 168,-33 174,-27 180,-27"/>
<text text-anchor="start" x="223" y="-12.8" font-family="Arial" font-weight="bold" font-size="14.00"> </text>
</g>
<!-- 3&#45;&gt;5 -->
<g id="edge6" class="edge">
<title>3&#45;&gt;5</title>
<path fill="none" stroke="#888888" d="M225,-153.67C225,-145.39 225,-136.83 225,-128.38"/>
<polygon fill="#888888" stroke="#888888" points="228.5,-128.18 225,-118.18 221.5,-128.18 228.5,-128.18"/>
</g>
<!-- 7 -->
<g id="node8" class="node">
<title>7</title>
<text text-anchor="start" x="356" y="-99.8" font-family="Arial" font-weight="bold" font-size="14.00"> &lt; 22.79</text>
<path fill="#f8766d" fill-opacity="0.686275" stroke="transparent" d="M336,-27C336,-27 426,-27 426,-27 432,-27 438,-33 438,-39 438,-39 438,-79 438,-79 438,-85 432,-91 426,-91 426,-91 336,-91 336,-91 330,-91 324,-85 324,-79 324,-79 324,-39 324,-39 324,-33 330,-27 336,-27"/>
<text text-anchor="start" x="325" y="-88.4" font-family="Arial" font-size="2.00"> </text>
<text text-anchor="start" x="325" y="-82.4" font-family="Arial" font-size="7.00"> &#160;7</text>
<text text-anchor="start" x="339" y="-65.8" font-family="Arial" font-weight="bold" font-size="14.00">Predict 21.75</text>
<text text-anchor="start" x="361" y="-48.8" font-family="Arial" font-weight="bold" font-size="14.00">n = 10</text>
<text text-anchor="start" x="379.5" y="-30.8" font-family="Arial" font-size="9.00"> </text>
<path fill="none" stroke="#333333" d="M336,-27C336,-27 426,-27 426,-27 432,-27 438,-33 438,-39 438,-39 438,-79 438,-79 438,-85 432,-91 426,-91 426,-91 336,-91 336,-91 330,-91 324,-85 324,-79 324,-79 324,-39 324,-39 324,-33 330,-27 336,-27"/>
<text text-anchor="start" x="379" y="-12.8" font-family="Arial" font-weight="bold" font-size="14.00"> </text>
</g>
<!-- 6&#45;&gt;7 -->
<g id="edge7" class="edge">
<title>6&#45;&gt;7</title>
<path fill="none" stroke="#888888" d="M454.33,-153.67C447.29,-144.67 439.96,-135.32 432.8,-126.16"/>
<polygon fill="#888888" stroke="#888888" points="435.47,-123.89 426.55,-118.18 429.95,-128.21 435.47,-123.89"/>
</g>
<!-- 8 -->
<g id="node9" class="node">
<title>8</title>
<text text-anchor="start" x="512.5" y="-99.8" font-family="Arial" font-weight="bold" font-size="14.00"> ≥ 22.79</text>
<path fill="#f8766d" fill-opacity="0.600000" stroke="transparent" d="M492,-27C492,-27 582,-27 582,-27 588,-27 594,-33 594,-39 594,-39 594,-79 594,-79 594,-85 588,-91 582,-91 582,-91 492,-91 492,-91 486,-91 480,-85 480,-79 480,-79 480,-39 480,-39 480,-33 486,-27 492,-27"/>
<text text-anchor="start" x="481" y="-88.4" font-family="Arial" font-size="2.00"> </text>
<text text-anchor="start" x="481" y="-82.4" font-family="Arial" font-size="7.00"> &#160;8</text>
<text text-anchor="start" x="495" y="-65.8" font-family="Arial" font-weight="bold" font-size="14.00">Predict 25.08</text>
<text text-anchor="start" x="517" y="-48.8" font-family="Arial" font-weight="bold" font-size="14.00">n = 15</text>
<text text-anchor="start" x="535.5" y="-30.8" font-family="Arial" font-size="9.00"> </text>
<path fill="none" stroke="#333333" d="M492,-27C492,-27 582,-27 582,-27 588,-27 594,-33 594,-39 594,-39 594,-79 594,-79 594,-85 588,-91 582,-91 582,-91 492,-91 492,-91 486,-91 480,-85 480,-79 480,-79 480,-39 480,-39 480,-33 486,-27 492,-27"/>
<text text-anchor="start" x="535" y="-12.8" font-family="Arial" font-weight="bold" font-size="14.00"> </text>
</g>
<!-- 6&#45;&gt;8 -->
<g id="edge8" class="edge">
<title>6&#45;&gt;8</title>
<path fill="none" stroke="#888888" d="M514.2,-153.67C516.24,-145.3 518.34,-136.64 520.42,-128.1"/>
<polygon fill="#888888" stroke="#888888" points="523.87,-128.72 522.84,-118.18 517.07,-127.06 523.87,-128.72"/>
</g>
<!-- 11 -->
<g id="node12" class="node">
<title>11</title>
<text text-anchor="start" x="668" y="-99.8" font-family="Arial" font-weight="bold" font-size="14.00"> &lt; 29.07</text>
<path fill="#f8766d" fill-opacity="0.549020" stroke="transparent" d="M648,-27C648,-27 738,-27 738,-27 744,-27 750,-33 750,-39 750,-39 750,-79 750,-79 750,-85 744,-91 738,-91 738,-91 648,-91 648,-91 642,-91 636,-85 636,-79 636,-79 636,-39 636,-39 636,-33 642,-27 648,-27"/>
<text text-anchor="start" x="637" y="-88.4" font-family="Arial" font-size="2.00"> </text>
<text text-anchor="start" x="637" y="-82.4" font-family="Arial" font-size="7.00"> &#160;11</text>
<text text-anchor="start" x="651" y="-65.8" font-family="Arial" font-weight="bold" font-size="14.00">Predict 26.94</text>
<text text-anchor="start" x="673" y="-48.8" font-family="Arial" font-weight="bold" font-size="14.00">n = 26</text>
<text text-anchor="start" x="691.5" y="-30.8" font-family="Arial" font-size="9.00"> </text>
<path fill="none" stroke="#333333" d="M648,-27C648,-27 738,-27 738,-27 744,-27 750,-33 750,-39 750,-39 750,-79 750,-79 750,-85 744,-91 738,-91 738,-91 648,-91 648,-91 642,-91 636,-85 636,-79 636,-79 636,-39 636,-39 636,-33 642,-27 648,-27"/>
<text text-anchor="start" x="691" y="-12.8" font-family="Arial" font-weight="bold" font-size="14.00"> </text>
</g>
<!-- 10&#45;&gt;11 -->
<g id="edge11" class="edge">
<title>10&#45;&gt;11</title>
<path fill="none" stroke="#888888" d="M715.8,-153.67C713.76,-145.3 711.66,-136.64 709.58,-128.1"/>
<polygon fill="#888888" stroke="#888888" points="712.93,-127.06 707.16,-118.18 706.13,-128.72 712.93,-127.06"/>
</g>
<!-- 12 -->
<g id="node13" class="node">
<title>12</title>
<text text-anchor="start" x="820.5" y="-99.8" font-family="Arial" font-weight="bold" font-size="14.00"> ≥ 29.07</text>
<path fill="#f8766d" fill-opacity="0.501961" stroke="transparent" d="M804,-27C804,-27 886,-27 886,-27 892,-27 898,-33 898,-39 898,-39 898,-79 898,-79 898,-85 892,-91 886,-91 886,-91 804,-91 804,-91 798,-91 792,-85 792,-79 792,-79 792,-39 792,-39 792,-33 798,-27 804,-27"/>
<text text-anchor="start" x="793" y="-88.4" font-family="Arial" font-size="2.00"> </text>
<text text-anchor="start" x="793" y="-82.4" font-family="Arial" font-size="7.00"> &#160;12</text>
<text text-anchor="start" x="807" y="-65.8" font-family="Arial" font-weight="bold" font-size="14.00">Predict 28.8</text>
<text text-anchor="start" x="825" y="-48.8" font-family="Arial" font-weight="bold" font-size="14.00">n = 17</text>
<text text-anchor="start" x="843.5" y="-30.8" font-family="Arial" font-size="9.00"> </text>
<path fill="none" stroke="#333333" d="M804,-27C804,-27 886,-27 886,-27 892,-27 898,-33 898,-39 898,-39 898,-79 898,-79 898,-85 892,-91 886,-91 886,-91 804,-91 804,-91 798,-91 792,-85 792,-79 792,-79 792,-39 792,-39 792,-33 798,-27 804,-27"/>
<text text-anchor="start" x="843" y="-12.8" font-family="Arial" font-weight="bold" font-size="14.00"> </text>
</g>
<!-- 10&#45;&gt;12 -->
<g id="edge12" class="edge">
<title>10&#45;&gt;12</title>
<path fill="none" stroke="#888888" d="M774.13,-153.67C780.94,-144.67 788.02,-135.32 794.95,-126.16"/>
<polygon fill="#888888" stroke="#888888" points="797.74,-128.26 800.98,-118.18 792.16,-124.04 797.74,-128.26"/>
</g>
<!-- 14 -->
<g id="node14" class="node">
<title>14</title>
<text text-anchor="start" x="971.5" y="-99.8" font-family="Arial" font-weight="bold" font-size="14.00"> &lt; 10.5</text>
<path fill="#f8766d" fill-opacity="0.376471" stroke="transparent" d="M952,-27C952,-27 1034,-27 1034,-27 1040,-27 1046,-33 1046,-39 1046,-39 1046,-79 1046,-79 1046,-85 1040,-91 1034,-91 1034,-91 952,-91 952,-91 946,-91 940,-85 940,-79 940,-79 940,-39 940,-39 940,-33 946,-27 952,-27"/>
<text text-anchor="start" x="941" y="-88.4" font-family="Arial" font-size="2.00"> </text>
<text text-anchor="start" x="941" y="-82.4" font-family="Arial" font-size="7.00"> &#160;14</text>
<text text-anchor="start" x="955" y="-65.8" font-family="Arial" font-weight="bold" font-size="14.00">Predict 33.6</text>
<text text-anchor="start" x="973" y="-48.8" font-family="Arial" font-weight="bold" font-size="14.00">n = 19</text>
<text text-anchor="start" x="991.5" y="-30.8" font-family="Arial" font-size="9.00"> </text>
<path fill="none" stroke="#333333" d="M952,-27C952,-27 1034,-27 1034,-27 1040,-27 1046,-33 1046,-39 1046,-39 1046,-79 1046,-79 1046,-85 1040,-91 1034,-91 1034,-91 952,-91 952,-91 946,-91 940,-85 940,-79 940,-79 940,-39 940,-39 940,-33 946,-27 952,-27"/>
<text text-anchor="start" x="991" y="-12.8" font-family="Arial" font-weight="bold" font-size="14.00"> </text>
</g>
<!-- 13&#45;&gt;14 -->
<g id="edge13" class="edge">
<title>13&#45;&gt;14</title>
<path fill="none" stroke="#888888" d="M993,-153.67C993,-145.39 993,-136.83 993,-128.38"/>
<polygon fill="#888888" stroke="#888888" points="996.5,-128.18 993,-118.18 989.5,-128.18 996.5,-128.18"/>
</g>
<!-- 15 -->
<g id="node15" class="node">
<title>15</title>
<text text-anchor="start" x="1124" y="-99.8" font-family="Arial" font-weight="bold" font-size="14.00"> ≥ 10.5</text>
<path fill="#f8766d" fill-opacity="0.450980" stroke="transparent" d="M1100,-27C1100,-27 1190,-27 1190,-27 1196,-27 1202,-33 1202,-39 1202,-39 1202,-79 1202,-79 1202,-85 1196,-91 1190,-91 1190,-91 1100,-91 1100,-91 1094,-91 1088,-85 1088,-79 1088,-79 1088,-39 1088,-39 1088,-33 1094,-27 1100,-27"/>
<text text-anchor="start" x="1089" y="-88.4" font-family="Arial" font-size="2.00"> </text>
<text text-anchor="start" x="1089" y="-82.4" font-family="Arial" font-size="7.00"> &#160;15</text>
<text text-anchor="start" x="1103" y="-65.8" font-family="Arial" font-weight="bold" font-size="14.00">Predict 30.66</text>
<text text-anchor="start" x="1125" y="-48.8" font-family="Arial" font-weight="bold" font-size="14.00">n = 30</text>
<text text-anchor="start" x="1143.5" y="-30.8" font-family="Arial" font-size="9.00"> </text>
<path fill="none" stroke="#333333" d="M1100,-27C1100,-27 1190,-27 1190,-27 1196,-27 1202,-33 1202,-39 1202,-39 1202,-79 1202,-79 1202,-85 1196,-91 1190,-91 1190,-91 1100,-91 1100,-91 1094,-91 1088,-85 1088,-79 1088,-79 1088,-39 1088,-39 1088,-33 1094,-27 1100,-27"/>
<text text-anchor="start" x="1143" y="-12.8" font-family="Arial" font-weight="bold" font-size="14.00"> </text>
</g>
<!-- 13&#45;&gt;15 -->
<g id="edge14" class="edge">
<title>13&#45;&gt;15</title>
<path fill="none" stroke="#888888" d="M1051.33,-153.67C1060.61,-144.39 1070.25,-134.75 1079.67,-125.33"/>
<polygon fill="#888888" stroke="#888888" points="1082.23,-127.72 1086.82,-118.18 1077.28,-122.77 1082.23,-127.72"/>
</g>
</g>
</svg>
