<?xml version="1.0" encoding="UTF-8" standalone="no"?>
<!DOCTYPE svg PUBLIC "-//W3C//DTD SVG 1.1//EN"
 "http://www.w3.org/Graphics/SVG/1.1/DTD/svg11.dtd">
<!-- Generated by graphviz version 2.50.0 (20211204.2007)
 -->
<!-- Pages: 1 -->
<svg width="605pt" height="434pt"
 viewBox="0.00 0.00 605.00 434.00" xmlns="http://www.w3.org/2000/svg" xmlns:xlink="http://www.w3.org/1999/xlink">
<g id="graph0" class="graph" transform="scale(1 1) rotate(0) translate(4 430)">
<polygon fill="white" stroke="transparent" points="-4,4 -4,-430 601,-430 601,4 -4,4"/>
<!-- 1 -->
<g id="node1" class="node">
<title>1</title>
<text text-anchor="start" x="296.5" y="-407.8" font-family="Arial" font-weight="bold" font-size="14.00"> </text>
<text text-anchor="start" x="229" y="-363.3" font-family="Arial" font-size="14.00"> &#160;&#160;&#160;&#160;&#160;</text>
<path fill="#ebebeb" stroke="transparent" d="M266,-335C266,-335 331,-335 331,-335 337,-335 343,-341 343,-347 343,-347 343,-387 343,-387 343,-393 337,-399 331,-399 331,-399 266,-399 266,-399 260,-399 254,-393 254,-387 254,-387 254,-347 254,-347 254,-341 260,-335 266,-335"/>
<text text-anchor="start" x="255" y="-396.4" font-family="Arial" font-size="2.00"> </text>
<text text-anchor="start" x="255" y="-390.4" font-family="Arial" font-size="7.00"> &#160;1</text>
<text text-anchor="start" x="269" y="-373.8" font-family="Arial" font-weight="bold" font-size="14.00">Mean: 32</text>
<text text-anchor="start" x="275" y="-356.8" font-family="Arial" font-weight="bold" font-size="14.00">n = 168</text>
<text text-anchor="start" x="297" y="-338.8" font-family="Arial" font-size="9.00"> </text>
<path fill="none" stroke="#333333" d="M266,-335C266,-335 331,-335 331,-335 337,-335 343,-341 343,-347 343,-347 343,-387 343,-387 343,-393 337,-399 331,-399 331,-399 266,-399 266,-399 260,-399 254,-393 254,-387 254,-387 254,-347 254,-347 254,-341 260,-335 266,-335"/>
<text text-anchor="start" x="345" y="-363.3" font-family="Arial" font-size="14.00"> &#160;&#160;&#160;&#160;&#160;</text>
<text text-anchor="start" x="241" y="-320.8" font-family="Arial" font-weight="bold" font-size="14.00">prev_168h_inflow</text>
</g>
<!-- 2 -->
<g id="node2" class="node">
<title>2</title>
<text text-anchor="start" x="192" y="-253.8" font-family="Arial" font-weight="bold" font-size="14.00"> &lt; 33.16</text>
<path fill="#ebebeb" stroke="transparent" d="M179,-181C179,-181 255,-181 255,-181 261,-181 267,-187 267,-193 267,-193 267,-233 267,-233 267,-239 261,-245 255,-245 255,-245 179,-245 179,-245 173,-245 167,-239 167,-233 167,-233 167,-193 167,-193 167,-187 173,-181 179,-181"/>
<text text-anchor="start" x="168" y="-242.4" font-family="Arial" font-size="2.00"> </text>
<text text-anchor="start" x="168" y="-236.4" font-family="Arial" font-size="7.00"> &#160;2</text>
<text text-anchor="start" x="182" y="-219.8" font-family="Arial" font-weight="bold" font-size="14.00">Mean: 26.9</text>
<text text-anchor="start" x="197" y="-202.8" font-family="Arial" font-weight="bold" font-size="14.00">n = 97</text>
<text text-anchor="start" x="215.5" y="-184.8" font-family="Arial" font-size="9.00"> </text>
<path fill="none" stroke="#333333" d="M179,-181C179,-181 255,-181 255,-181 261,-181 267,-187 267,-193 267,-193 267,-233 267,-233 267,-239 261,-245 255,-245 255,-245 179,-245 179,-245 173,-245 167,-239 167,-233 167,-233 167,-193 167,-193 167,-187 173,-181 179,-181"/>
<text text-anchor="start" x="202.5" y="-166.8" font-family="Arial" font-weight="bold" font-size="14.00">time</text>
</g>
<!-- 1&#45;&gt;2 -->
<g id="edge1" class="edge">
<title>1&#45;&gt;2</title>
<path fill="none" stroke="#888888" d="M266.91,-307.67C262.31,-299.03 257.54,-290.07 252.85,-281.27"/>
<polygon fill="#888888" stroke="#888888" points="255.79,-279.36 248,-272.18 249.62,-282.65 255.79,-279.36"/>
</g>
<!-- 5 -->
<g id="node3" class="node">
<title>5</title>
<text text-anchor="start" x="354.5" y="-253.8" font-family="Arial" font-weight="bold" font-size="14.00"> ≥ 33.16</text>
<text text-anchor="start" x="307" y="-209.3" font-family="Arial" font-size="14.00"> &#160;&#160;&#160;</text>
<path fill="#ebebeb" stroke="transparent" d="M337,-181C337,-181 421,-181 421,-181 427,-181 433,-187 433,-193 433,-193 433,-233 433,-233 433,-239 427,-245 421,-245 421,-245 337,-245 337,-245 331,-245 325,-239 325,-233 325,-233 325,-193 325,-193 325,-187 331,-181 337,-181"/>
<text text-anchor="start" x="326" y="-242.4" font-family="Arial" font-size="2.00"> </text>
<text text-anchor="start" x="326" y="-236.4" font-family="Arial" font-size="7.00"> &#160;5</text>
<text text-anchor="start" x="340" y="-219.8" font-family="Arial" font-weight="bold" font-size="14.00">Mean: 38.98</text>
<text text-anchor="start" x="359" y="-202.8" font-family="Arial" font-weight="bold" font-size="14.00">n = 71</text>
<text text-anchor="start" x="377.5" y="-184.8" font-family="Arial" font-size="9.00"> </text>
<path fill="none" stroke="#333333" d="M337,-181C337,-181 421,-181 421,-181 427,-181 433,-187 433,-193 433,-193 433,-233 433,-233 433,-239 427,-245 421,-245 421,-245 337,-245 337,-245 331,-245 325,-239 325,-233 325,-233 325,-193 325,-193 325,-187 331,-181 337,-181"/>
<text text-anchor="start" x="435" y="-209.3" font-family="Arial" font-size="14.00"> &#160;&#160;&#160;</text>
<text text-anchor="start" x="321.5" y="-166.8" font-family="Arial" font-weight="bold" font-size="14.00">prev_168h_inflow</text>
</g>
<!-- 1&#45;&gt;5 -->
<g id="edge2" class="edge">
<title>1&#45;&gt;5</title>
<path fill="none" stroke="#888888" d="M329.09,-307.67C333.69,-299.03 338.46,-290.07 343.15,-281.27"/>
<polygon fill="#888888" stroke="#888888" points="346.38,-282.65 348,-272.18 340.21,-279.36 346.38,-282.65"/>
</g>
<!-- 3 -->
<g id="node4" class="node">
<title>3</title>
<text text-anchor="start" x="51.5" y="-99.8" font-family="Arial" font-weight="bold" font-size="14.00"> &lt; 5.5</text>
<path fill="#f8766d" fill-opacity="0.874510" stroke="transparent" d="M24,-27C24,-27 114,-27 114,-27 120,-27 126,-33 126,-39 126,-39 126,-79 126,-79 126,-85 120,-91 114,-91 114,-91 24,-91 24,-91 18,-91 12,-85 12,-79 12,-79 12,-39 12,-39 12,-33 18,-27 24,-27"/>
<text text-anchor="start" x="13" y="-88.4" font-family="Arial" font-size="2.00"> </text>
<text text-anchor="start" x="13" y="-82.4" font-family="Arial" font-size="7.00"> &#160;3</text>
<text text-anchor="start" x="27" y="-65.8" font-family="Arial" font-weight="bold" font-size="14.00">Predict 20.86</text>
<text text-anchor="start" x="49" y="-48.8" font-family="Arial" font-weight="bold" font-size="14.00">n = 42</text>
<text text-anchor="start" x="67.5" y="-30.8" font-family="Arial" font-size="9.00"> </text>
<path fill="none" stroke="#333333" d="M24,-27C24,-27 114,-27 114,-27 120,-27 126,-33 126,-39 126,-39 126,-79 126,-79 126,-85 120,-91 114,-91 114,-91 24,-91 24,-91 18,-91 12,-85 12,-79 12,-79 12,-39 12,-39 12,-33 18,-27 24,-27"/>
<text text-anchor="start" x="67" y="-12.8" font-family="Arial" font-weight="bold" font-size="14.00"> </text>
</g>
<!-- 2&#45;&gt;3 -->
<g id="edge3" class="edge">
<title>2&#45;&gt;3</title>
<path fill="none" stroke="#888888" d="M160.2,-153.67C151.26,-144.49 141.97,-134.94 132.88,-125.6"/>
<polygon fill="#888888" stroke="#888888" points="135.13,-122.9 125.65,-118.18 130.11,-127.78 135.13,-122.9"/>
</g>
<!-- 4 -->
<g id="node5" class="node">
<title>4</title>
<text text-anchor="start" x="204" y="-99.8" font-family="Arial" font-weight="bold" font-size="14.00"> ≥ 5.5</text>
<path fill="#f8766d" fill-opacity="0.619608" stroke="transparent" d="M180,-27C180,-27 262,-27 262,-27 268,-27 274,-33 274,-39 274,-39 274,-79 274,-79 274,-85 268,-91 262,-91 262,-91 180,-91 180,-91 174,-91 168,-85 168,-79 168,-79 168,-39 168,-39 168,-33 174,-27 180,-27"/>
<text text-anchor="start" x="169" y="-88.4" font-family="Arial" font-size="2.00"> </text>
<text text-anchor="start" x="169" y="-82.4" font-family="Arial" font-size="7.00"> &#160;4</text>
<text text-anchor="start" x="183" y="-65.8" font-family="Arial" font-weight="bold" font-size="14.00">Predict 31.5</text>
<text text-anchor="start" x="201" y="-48.8" font-family="Arial" font-weight="bold" font-size="14.00">n = 55</text>
<text text-anchor="start" x="219.5" y="-30.8" font-family="Arial" font-size="9.00"> </text>
<path fill="none" stroke="#333333" d="M180,-27C180,-27 262,-27 262,-27 268,-27 274,-33 274,-39 274,-39 274,-79 274,-79 274,-85 268,-91 262,-91 262,-91 180,-91 180,-91 174,-91 168,-85 168,-79 168,-79 168,-39 168,-39 168,-33 174,-27 180,-27"/>
<text text-anchor="start" x="219" y="-12.8" font-family="Arial" font-weight="bold" font-size="14.00"> </text>
</g>
<!-- 2&#45;&gt;4 -->
<g id="edge4" class="edge">
<title>2&#45;&gt;4</title>
<path fill="none" stroke="#888888" d="M218.54,-153.67C218.75,-145.39 218.98,-136.83 219.2,-128.38"/>
<polygon fill="#888888" stroke="#888888" points="222.7,-128.27 219.47,-118.18 215.71,-128.08 222.7,-128.27"/>
</g>
<!-- 6 -->
<g id="node6" class="node">
<title>6</title>
<text text-anchor="start" x="351" y="-99.8" font-family="Arial" font-weight="bold" font-size="14.00"> &lt; 38.57</text>
<path fill="#f8766d" fill-opacity="0.490196" stroke="transparent" d="M335,-27C335,-27 417,-27 417,-27 423,-27 429,-33 429,-39 429,-39 429,-79 429,-79 429,-85 423,-91 417,-91 417,-91 335,-91 335,-91 329,-91 323,-85 323,-79 323,-79 323,-39 323,-39 323,-33 329,-27 335,-27"/>
<text text-anchor="start" x="324" y="-88.4" font-family="Arial" font-size="2.00"> </text>
<text text-anchor="start" x="324" y="-82.4" font-family="Arial" font-size="7.00"> &#160;6</text>
<text text-anchor="start" x="338" y="-65.8" font-family="Arial" font-weight="bold" font-size="14.00">Predict 36.9</text>
<text text-anchor="start" x="356" y="-48.8" font-family="Arial" font-weight="bold" font-size="14.00">n = 40</text>
<text text-anchor="start" x="374.5" y="-30.8" font-family="Arial" font-size="9.00"> </text>
<path fill="none" stroke="#333333" d="M335,-27C335,-27 417,-27 417,-27 423,-27 429,-33 429,-39 429,-39 429,-79 429,-79 429,-85 423,-91 417,-91 417,-91 335,-91 335,-91 329,-91 323,-85 323,-79 323,-79 323,-39 323,-39 323,-33 329,-27 335,-27"/>
<text text-anchor="start" x="374" y="-12.8" font-family="Arial" font-weight="bold" font-size="14.00"> </text>
</g>
<!-- 5&#45;&gt;6 -->
<g id="edge5" class="edge">
<title>5&#45;&gt;6</title>
<path fill="none" stroke="#888888" d="M377.85,-153.67C377.69,-145.39 377.52,-136.83 377.35,-128.38"/>
<polygon fill="#888888" stroke="#888888" points="380.84,-128.11 377.15,-118.18 373.85,-128.24 380.84,-128.11"/>
</g>
<!-- 7 -->
<g id="node7" class="node">
<title>7</title>
<text text-anchor="start" x="503.5" y="-99.8" font-family="Arial" font-weight="bold" font-size="14.00"> ≥ 38.57</text>
<path fill="#f8766d" fill-opacity="0.376471" stroke="transparent" d="M483,-27C483,-27 573,-27 573,-27 579,-27 585,-33 585,-39 585,-39 585,-79 585,-79 585,-85 579,-91 573,-91 573,-91 483,-91 483,-91 477,-91 471,-85 471,-79 471,-79 471,-39 471,-39 471,-33 477,-27 483,-27"/>
<text text-anchor="start" x="472" y="-88.4" font-family="Arial" font-size="2.00"> </text>
<text text-anchor="start" x="472" y="-82.4" font-family="Arial" font-size="7.00"> &#160;7</text>
<text text-anchor="start" x="486" y="-65.8" font-family="Arial" font-weight="bold" font-size="14.00">Predict 41.66</text>
<text text-anchor="start" x="508" y="-48.8" font-family="Arial" font-weight="bold" font-size="14.00">n = 31</text>
<text text-anchor="start" x="526.5" y="-30.8" font-family="Arial" font-size="9.00"> </text>
<path fill="none" stroke="#333333" d="M483,-27C483,-27 573,-27 573,-27 579,-27 585,-33 585,-39 585,-39 585,-79 585,-79 585,-85 579,-91 573,-91 573,-91 483,-91 483,-91 477,-91 471,-85 471,-79 471,-79 471,-39 471,-39 471,-33 477,-27 483,-27"/>
<text text-anchor="start" x="526" y="-12.8" font-family="Arial" font-weight="bold" font-size="14.00"> </text>
</g>
<!-- 5&#45;&gt;7 -->
<g id="edge6" class="edge">
<title>5&#45;&gt;7</title>
<path fill="none" stroke="#888888" d="M436.18,-153.67C445.27,-144.39 454.73,-134.75 463.96,-125.33"/>
<polygon fill="#888888" stroke="#888888" points="466.47,-127.77 470.97,-118.18 461.47,-122.87 466.47,-127.77"/>
</g>
</g>
</svg>
