<?xml version="1.0" encoding="utf-8"?>
<svg xmlns="http://www.w3.org/2000/svg" xmlns:xlink="http://www.w3.org/1999/xlink" width="1000" height="400" viewBox="0 0 4000 1600">
<defs>
  <clipPath id="clip120">
    <rect x="0" y="0" width="4000" height="1600"/>
  </clipPath>
</defs>
<path clip-path="url(#clip120)" d="M0 1600 L4000 1600 L4000 0 L0 0  Z" fill="#ffffff" fill-rule="evenodd" fill-opacity="1"/>
<defs>
  <clipPath id="clip121">
    <rect x="800" y="0" width="2801" height="1600"/>
  </clipPath>
</defs>
<path clip-path="url(#clip120)" d="M205.077 1497.68 L3180.41 1497.68 L3180.41 47.2441 L205.077 47.2441  Z" fill="#ffffff" fill-rule="evenodd" fill-opacity="1"/>
<defs>
  <clipPath id="clip122">
    <rect x="205" y="47" width="2976" height="1451"/>
  </clipPath>
</defs>
<polyline clip-path="url(#clip122)" style="stroke:#000000; stroke-linecap:round; stroke-linejoin:round; stroke-width:2; stroke-opacity:0.1; fill:none" points="289.284,1497.68 289.284,47.2441 "/>
<polyline clip-path="url(#clip122)" style="stroke:#000000; stroke-linecap:round; stroke-linejoin:round; stroke-width:2; stroke-opacity:0.1; fill:none" points="1096.06,1497.68 1096.06,47.2441 "/>
<polyline clip-path="url(#clip122)" style="stroke:#000000; stroke-linecap:round; stroke-linejoin:round; stroke-width:2; stroke-opacity:0.1; fill:none" points="1902.84,1497.68 1902.84,47.2441 "/>
<polyline clip-path="url(#clip122)" style="stroke:#000000; stroke-linecap:round; stroke-linejoin:round; stroke-width:2; stroke-opacity:0.1; fill:none" points="2709.62,1497.68 2709.62,47.2441 "/>
<polyline clip-path="url(#clip120)" style="stroke:#000000; stroke-linecap:round; stroke-linejoin:round; stroke-width:4; stroke-opacity:1; fill:none" points="205.077,1497.68 3180.41,1497.68 "/>
<polyline clip-path="url(#clip120)" style="stroke:#000000; stroke-linecap:round; stroke-linejoin:round; stroke-width:4; stroke-opacity:1; fill:none" points="289.284,1497.68 289.284,1478.78 "/>
<polyline clip-path="url(#clip120)" style="stroke:#000000; stroke-linecap:round; stroke-linejoin:round; stroke-width:4; stroke-opacity:1; fill:none" points="1096.06,1497.68 1096.06,1478.78 "/>
<polyline clip-path="url(#clip120)" style="stroke:#000000; stroke-linecap:round; stroke-linejoin:round; stroke-width:4; stroke-opacity:1; fill:none" points="1902.84,1497.68 1902.84,1478.78 "/>
<polyline clip-path="url(#clip120)" style="stroke:#000000; stroke-linecap:round; stroke-linejoin:round; stroke-width:4; stroke-opacity:1; fill:none" points="2709.62,1497.68 2709.62,1478.78 "/>
<path clip-path="url(#clip120)" d="M144.923 1573.85 L163.282 1573.85 L163.282 1578.28 L138.595 1578.28 L138.595 1573.85 Q141.59 1570.75 146.746 1565.55 Q151.928 1560.31 153.256 1558.8 Q155.782 1555.96 156.772 1554.01 Q157.787 1552.03 157.787 1550.13 Q157.787 1547.03 155.6 1545.08 Q153.438 1543.12 149.949 1543.12 Q147.475 1543.12 144.715 1543.98 Q141.98 1544.84 138.855 1546.59 L138.855 1541.27 Q142.032 1540 144.793 1539.35 Q147.553 1538.7 149.845 1538.7 Q155.886 1538.7 159.48 1541.72 Q163.074 1544.74 163.074 1549.79 Q163.074 1552.19 162.162 1554.35 Q161.277 1556.48 158.907 1559.4 Q158.256 1560.15 154.767 1563.77 Q151.277 1567.37 144.923 1573.85 Z" fill="#000000" fill-rule="nonzero" fill-opacity="1" /><path clip-path="url(#clip120)" d="M185.574 1542.86 Q181.511 1542.86 179.454 1546.87 Q177.423 1550.86 177.423 1558.88 Q177.423 1566.87 179.454 1570.88 Q181.511 1574.87 185.574 1574.87 Q189.662 1574.87 191.693 1570.88 Q193.751 1566.87 193.751 1558.88 Q193.751 1550.86 191.693 1546.87 Q189.662 1542.86 185.574 1542.86 M185.574 1538.7 Q192.11 1538.7 195.548 1543.88 Q199.011 1549.04 199.011 1558.88 Q199.011 1568.7 195.548 1573.88 Q192.11 1579.04 185.574 1579.04 Q179.037 1579.04 175.574 1573.88 Q172.136 1568.7 172.136 1558.88 Q172.136 1549.04 175.574 1543.88 Q179.037 1538.7 185.574 1538.7 Z" fill="#000000" fill-rule="nonzero" fill-opacity="1" /><path clip-path="url(#clip120)" d="M212.787 1573.85 L231.146 1573.85 L231.146 1578.28 L206.459 1578.28 L206.459 1573.85 Q209.454 1570.75 214.61 1565.55 Q219.792 1560.31 221.12 1558.8 Q223.646 1555.96 224.636 1554.01 Q225.652 1552.03 225.652 1550.13 Q225.652 1547.03 223.464 1545.08 Q221.303 1543.12 217.813 1543.12 Q215.339 1543.12 212.579 1543.98 Q209.844 1544.84 206.719 1546.59 L206.719 1541.27 Q209.896 1540 212.657 1539.35 Q215.417 1538.7 217.709 1538.7 Q223.751 1538.7 227.344 1541.72 Q230.938 1544.74 230.938 1549.79 Q230.938 1552.19 230.027 1554.35 Q229.141 1556.48 226.771 1559.4 Q226.12 1560.15 222.631 1563.77 Q219.141 1567.37 212.787 1573.85 Z" fill="#000000" fill-rule="nonzero" fill-opacity="1" /><path clip-path="url(#clip120)" d="M246.719 1573.85 L265.078 1573.85 L265.078 1578.28 L240.391 1578.28 L240.391 1573.85 Q243.386 1570.75 248.542 1565.55 Q253.724 1560.31 255.052 1558.8 Q257.579 1555.96 258.568 1554.01 Q259.584 1552.03 259.584 1550.13 Q259.584 1547.03 257.396 1545.08 Q255.235 1543.12 251.745 1543.12 Q249.271 1543.12 246.511 1543.98 Q243.776 1544.84 240.652 1546.59 L240.652 1541.27 Q243.829 1540 246.589 1539.35 Q249.349 1538.7 251.641 1538.7 Q257.683 1538.7 261.276 1541.72 Q264.87 1544.74 264.87 1549.79 Q264.87 1552.19 263.959 1554.35 Q263.073 1556.48 260.703 1559.4 Q260.052 1560.15 256.563 1563.77 Q253.073 1567.37 246.719 1573.85 Z" fill="#000000" fill-rule="nonzero" fill-opacity="1" /><path clip-path="url(#clip120)" d="M273.021 1561.54 L287.058 1561.54 L287.058 1565.81 L273.021 1565.81 L273.021 1561.54 Z" fill="#000000" fill-rule="nonzero" fill-opacity="1" /><path clip-path="url(#clip120)" d="M306.615 1542.86 Q302.552 1542.86 300.495 1546.87 Q298.464 1550.86 298.464 1558.88 Q298.464 1566.87 300.495 1570.88 Q302.552 1574.87 306.615 1574.87 Q310.703 1574.87 312.734 1570.88 Q314.792 1566.87 314.792 1558.88 Q314.792 1550.86 312.734 1546.87 Q310.703 1542.86 306.615 1542.86 M306.615 1538.7 Q313.151 1538.7 316.589 1543.88 Q320.052 1549.04 320.052 1558.88 Q320.052 1568.7 316.589 1573.88 Q313.151 1579.04 306.615 1579.04 Q300.078 1579.04 296.615 1573.88 Q293.177 1568.7 293.177 1558.88 Q293.177 1549.04 296.615 1543.88 Q300.078 1538.7 306.615 1538.7 Z" fill="#000000" fill-rule="nonzero" fill-opacity="1" /><path clip-path="url(#clip120)" d="M327.969 1539.4 L352.969 1539.4 L352.969 1541.64 L338.854 1578.28 L333.359 1578.28 L346.641 1543.83 L327.969 1543.83 L327.969 1539.4 Z" fill="#000000" fill-rule="nonzero" fill-opacity="1" /><path clip-path="url(#clip120)" d="M360.13 1561.54 L374.166 1561.54 L374.166 1565.81 L360.13 1565.81 L360.13 1561.54 Z" fill="#000000" fill-rule="nonzero" fill-opacity="1" /><path clip-path="url(#clip120)" d="M387.005 1573.85 L405.364 1573.85 L405.364 1578.28 L380.677 1578.28 L380.677 1573.85 Q383.672 1570.75 388.828 1565.55 Q394.01 1560.31 395.338 1558.8 Q397.864 1555.96 398.854 1554.01 Q399.869 1552.03 399.869 1550.13 Q399.869 1547.03 397.682 1545.08 Q395.52 1543.12 392.031 1543.12 Q389.557 1543.12 386.797 1543.98 Q384.062 1544.84 380.937 1546.59 L380.937 1541.27 Q384.114 1540 386.875 1539.35 Q389.635 1538.7 391.927 1538.7 Q397.968 1538.7 401.562 1541.72 Q405.156 1544.74 405.156 1549.79 Q405.156 1552.19 404.244 1554.35 Q403.359 1556.48 400.989 1559.4 Q400.338 1560.15 396.849 1563.77 Q393.359 1567.37 387.005 1573.85 Z" fill="#000000" fill-rule="nonzero" fill-opacity="1" /><path clip-path="url(#clip120)" d="M416.458 1539.4 L437.109 1539.4 L437.109 1543.83 L421.276 1543.83 L421.276 1553.36 Q422.421 1552.97 423.567 1552.79 Q424.713 1552.58 425.859 1552.58 Q432.369 1552.58 436.171 1556.14 Q439.973 1559.71 439.973 1565.81 Q439.973 1572.08 436.067 1575.57 Q432.161 1579.04 425.052 1579.04 Q422.604 1579.04 420.052 1578.62 Q417.526 1578.2 414.817 1577.37 L414.817 1572.08 Q417.161 1573.36 419.661 1573.98 Q422.161 1574.61 424.947 1574.61 Q429.453 1574.61 432.083 1572.24 Q434.713 1569.87 434.713 1565.81 Q434.713 1561.74 432.083 1559.37 Q429.453 1557 424.947 1557 Q422.838 1557 420.729 1557.47 Q418.645 1557.94 416.458 1558.93 L416.458 1539.4 Z" fill="#000000" fill-rule="nonzero" fill-opacity="1" /><path clip-path="url(#clip120)" d="M951.65 1573.85 L970.009 1573.85 L970.009 1578.28 L945.322 1578.28 L945.322 1573.85 Q948.317 1570.75 953.473 1565.55 Q958.655 1560.31 959.983 1558.8 Q962.509 1555.96 963.499 1554.01 Q964.514 1552.03 964.514 1550.13 Q964.514 1547.03 962.327 1545.08 Q960.165 1543.12 956.676 1543.12 Q954.202 1543.12 951.442 1543.98 Q948.707 1544.84 945.582 1546.59 L945.582 1541.27 Q948.759 1540 951.52 1539.35 Q954.28 1538.7 956.572 1538.7 Q962.613 1538.7 966.207 1541.72 Q969.801 1544.74 969.801 1549.79 Q969.801 1552.19 968.889 1554.35 Q968.004 1556.48 965.634 1559.4 Q964.983 1560.15 961.494 1563.77 Q958.004 1567.37 951.65 1573.85 Z" fill="#000000" fill-rule="nonzero" fill-opacity="1" /><path clip-path="url(#clip120)" d="M992.301 1542.86 Q988.238 1542.86 986.181 1546.87 Q984.15 1550.86 984.15 1558.88 Q984.15 1566.87 986.181 1570.88 Q988.238 1574.87 992.301 1574.87 Q996.389 1574.87 998.42 1570.88 Q1000.48 1566.87 1000.48 1558.88 Q1000.48 1550.86 998.42 1546.87 Q996.389 1542.86 992.301 1542.86 M992.301 1538.7 Q998.837 1538.7 1002.27 1543.88 Q1005.74 1549.04 1005.74 1558.88 Q1005.74 1568.7 1002.27 1573.88 Q998.837 1579.04 992.301 1579.04 Q985.764 1579.04 982.301 1573.88 Q978.863 1568.7 978.863 1558.88 Q978.863 1549.04 982.301 1543.88 Q985.764 1538.7 992.301 1538.7 Z" fill="#000000" fill-rule="nonzero" fill-opacity="1" /><path clip-path="url(#clip120)" d="M1019.51 1573.85 L1037.87 1573.85 L1037.87 1578.28 L1013.19 1578.28 L1013.19 1573.85 Q1016.18 1570.75 1021.34 1565.55 Q1026.52 1560.31 1027.85 1558.8 Q1030.37 1555.96 1031.36 1554.01 Q1032.38 1552.03 1032.38 1550.13 Q1032.38 1547.03 1030.19 1545.08 Q1028.03 1543.12 1024.54 1543.12 Q1022.07 1543.12 1019.31 1543.98 Q1016.57 1544.84 1013.45 1546.59 L1013.45 1541.27 Q1016.62 1540 1019.38 1539.35 Q1022.14 1538.7 1024.44 1538.7 Q1030.48 1538.7 1034.07 1541.72 Q1037.67 1544.74 1037.67 1549.79 Q1037.67 1552.19 1036.75 1554.35 Q1035.87 1556.48 1033.5 1559.4 Q1032.85 1560.15 1029.36 1563.77 Q1025.87 1567.37 1019.51 1573.85 Z" fill="#000000" fill-rule="nonzero" fill-opacity="1" /><path clip-path="url(#clip120)" d="M1053.45 1573.85 L1071.81 1573.85 L1071.81 1578.28 L1047.12 1578.28 L1047.12 1573.85 Q1050.11 1570.75 1055.27 1565.55 Q1060.45 1560.31 1061.78 1558.8 Q1064.31 1555.96 1065.3 1554.01 Q1066.31 1552.03 1066.31 1550.13 Q1066.31 1547.03 1064.12 1545.08 Q1061.96 1543.12 1058.47 1543.12 Q1056 1543.12 1053.24 1543.98 Q1050.5 1544.84 1047.38 1546.59 L1047.38 1541.27 Q1050.56 1540 1053.32 1539.35 Q1056.08 1538.7 1058.37 1538.7 Q1064.41 1538.7 1068 1541.72 Q1071.6 1544.74 1071.6 1549.79 Q1071.6 1552.19 1070.69 1554.35 Q1069.8 1556.48 1067.43 1559.4 Q1066.78 1560.15 1063.29 1563.77 Q1059.8 1567.37 1053.45 1573.85 Z" fill="#000000" fill-rule="nonzero" fill-opacity="1" /><path clip-path="url(#clip120)" d="M1079.75 1561.54 L1093.78 1561.54 L1093.78 1565.81 L1079.75 1565.81 L1079.75 1561.54 Z" fill="#000000" fill-rule="nonzero" fill-opacity="1" /><path clip-path="url(#clip120)" d="M1113.34 1542.86 Q1109.28 1542.86 1107.22 1546.87 Q1105.19 1550.86 1105.19 1558.88 Q1105.19 1566.87 1107.22 1570.88 Q1109.28 1574.87 1113.34 1574.87 Q1117.43 1574.87 1119.46 1570.88 Q1121.52 1566.87 1121.52 1558.88 Q1121.52 1550.86 1119.46 1546.87 Q1117.43 1542.86 1113.34 1542.86 M1113.34 1538.7 Q1119.88 1538.7 1123.32 1543.88 Q1126.78 1549.04 1126.78 1558.88 Q1126.78 1568.7 1123.32 1573.88 Q1119.88 1579.04 1113.34 1579.04 Q1106.81 1579.04 1103.34 1573.88 Q1099.9 1568.7 1099.9 1558.88 Q1099.9 1549.04 1103.34 1543.88 Q1106.81 1538.7 1113.34 1538.7 Z" fill="#000000" fill-rule="nonzero" fill-opacity="1" /><path clip-path="url(#clip120)" d="M1134.7 1539.4 L1159.7 1539.4 L1159.7 1541.64 L1145.58 1578.28 L1140.09 1578.28 L1153.37 1543.83 L1134.7 1543.83 L1134.7 1539.4 Z" fill="#000000" fill-rule="nonzero" fill-opacity="1" /><path clip-path="url(#clip120)" d="M1166.86 1561.54 L1180.89 1561.54 L1180.89 1565.81 L1166.86 1565.81 L1166.86 1561.54 Z" fill="#000000" fill-rule="nonzero" fill-opacity="1" /><path clip-path="url(#clip120)" d="M1193.73 1573.85 L1212.09 1573.85 L1212.09 1578.28 L1187.4 1578.28 L1187.4 1573.85 Q1190.4 1570.75 1195.55 1565.55 Q1200.74 1560.31 1202.07 1558.8 Q1204.59 1555.96 1205.58 1554.01 Q1206.6 1552.03 1206.6 1550.13 Q1206.6 1547.03 1204.41 1545.08 Q1202.25 1543.12 1198.76 1543.12 Q1196.28 1543.12 1193.52 1543.98 Q1190.79 1544.84 1187.66 1546.59 L1187.66 1541.27 Q1190.84 1540 1193.6 1539.35 Q1196.36 1538.7 1198.65 1538.7 Q1204.7 1538.7 1208.29 1541.72 Q1211.88 1544.74 1211.88 1549.79 Q1211.88 1552.19 1210.97 1554.35 Q1210.09 1556.48 1207.72 1559.4 Q1207.07 1560.15 1203.58 1563.77 Q1200.09 1567.37 1193.73 1573.85 Z" fill="#000000" fill-rule="nonzero" fill-opacity="1" /><path clip-path="url(#clip120)" d="M1221.8 1539.4 L1246.8 1539.4 L1246.8 1541.64 L1232.69 1578.28 L1227.2 1578.28 L1240.48 1543.83 L1221.8 1543.83 L1221.8 1539.4 Z" fill="#000000" fill-rule="nonzero" fill-opacity="1" /><path clip-path="url(#clip120)" d="M1758.03 1573.85 L1776.38 1573.85 L1776.38 1578.28 L1751.7 1578.28 L1751.7 1573.85 Q1754.69 1570.75 1759.85 1565.55 Q1765.03 1560.31 1766.36 1558.8 Q1768.88 1555.96 1769.87 1554.01 Q1770.89 1552.03 1770.89 1550.13 Q1770.89 1547.03 1768.7 1545.08 Q1766.54 1543.12 1763.05 1543.12 Q1760.58 1543.12 1757.82 1543.98 Q1755.08 1544.84 1751.96 1546.59 L1751.96 1541.27 Q1755.13 1540 1757.9 1539.35 Q1760.66 1538.7 1762.95 1538.7 Q1768.99 1538.7 1772.58 1541.72 Q1776.18 1544.74 1776.18 1549.79 Q1776.18 1552.19 1775.26 1554.35 Q1774.38 1556.48 1772.01 1559.4 Q1771.36 1560.15 1767.87 1563.77 Q1764.38 1567.37 1758.03 1573.85 Z" fill="#000000" fill-rule="nonzero" fill-opacity="1" /><path clip-path="url(#clip120)" d="M1798.68 1542.86 Q1794.61 1542.86 1792.56 1546.87 Q1790.53 1550.86 1790.53 1558.88 Q1790.53 1566.87 1792.56 1570.88 Q1794.61 1574.87 1798.68 1574.87 Q1802.76 1574.87 1804.8 1570.88 Q1806.85 1566.87 1806.85 1558.88 Q1806.85 1550.86 1804.8 1546.87 Q1802.76 1542.86 1798.68 1542.86 M1798.68 1538.7 Q1805.21 1538.7 1808.65 1543.88 Q1812.11 1549.04 1812.11 1558.88 Q1812.11 1568.7 1808.65 1573.88 Q1805.21 1579.04 1798.68 1579.04 Q1792.14 1579.04 1788.68 1573.88 Q1785.24 1568.7 1785.24 1558.88 Q1785.24 1549.04 1788.68 1543.88 Q1792.14 1538.7 1798.68 1538.7 Z" fill="#000000" fill-rule="nonzero" fill-opacity="1" /><path clip-path="url(#clip120)" d="M1825.89 1573.85 L1844.25 1573.85 L1844.25 1578.28 L1819.56 1578.28 L1819.56 1573.85 Q1822.56 1570.75 1827.71 1565.55 Q1832.89 1560.31 1834.22 1558.8 Q1836.75 1555.96 1837.74 1554.01 Q1838.75 1552.03 1838.75 1550.13 Q1838.75 1547.03 1836.57 1545.08 Q1834.41 1543.12 1830.92 1543.12 Q1828.44 1543.12 1825.68 1543.98 Q1822.95 1544.84 1819.82 1546.59 L1819.82 1541.27 Q1823 1540 1825.76 1539.35 Q1828.52 1538.7 1830.81 1538.7 Q1836.85 1538.7 1840.45 1541.72 Q1844.04 1544.74 1844.04 1549.79 Q1844.04 1552.19 1843.13 1554.35 Q1842.24 1556.48 1839.87 1559.4 Q1839.22 1560.15 1835.73 1563.77 Q1832.24 1567.37 1825.89 1573.85 Z" fill="#000000" fill-rule="nonzero" fill-opacity="1" /><path clip-path="url(#clip120)" d="M1859.82 1573.85 L1878.18 1573.85 L1878.18 1578.28 L1853.49 1578.28 L1853.49 1573.85 Q1856.49 1570.75 1861.64 1565.55 Q1866.83 1560.31 1868.15 1558.8 Q1870.68 1555.96 1871.67 1554.01 Q1872.69 1552.03 1872.69 1550.13 Q1872.69 1547.03 1870.5 1545.08 Q1868.34 1543.12 1864.85 1543.12 Q1862.37 1543.12 1859.61 1543.98 Q1856.88 1544.84 1853.75 1546.59 L1853.75 1541.27 Q1856.93 1540 1859.69 1539.35 Q1862.45 1538.7 1864.74 1538.7 Q1870.79 1538.7 1874.38 1541.72 Q1877.97 1544.74 1877.97 1549.79 Q1877.97 1552.19 1877.06 1554.35 Q1876.18 1556.48 1873.81 1559.4 Q1873.15 1560.15 1869.67 1563.77 Q1866.18 1567.37 1859.82 1573.85 Z" fill="#000000" fill-rule="nonzero" fill-opacity="1" /><path clip-path="url(#clip120)" d="M1886.12 1561.54 L1900.16 1561.54 L1900.16 1565.81 L1886.12 1565.81 L1886.12 1561.54 Z" fill="#000000" fill-rule="nonzero" fill-opacity="1" /><path clip-path="url(#clip120)" d="M1919.72 1542.86 Q1915.65 1542.86 1913.6 1546.87 Q1911.57 1550.86 1911.57 1558.88 Q1911.57 1566.87 1913.6 1570.88 Q1915.65 1574.87 1919.72 1574.87 Q1923.81 1574.87 1925.84 1570.88 Q1927.89 1566.87 1927.89 1558.88 Q1927.89 1550.86 1925.84 1546.87 Q1923.81 1542.86 1919.72 1542.86 M1919.72 1538.7 Q1926.25 1538.7 1929.69 1543.88 Q1933.15 1549.04 1933.15 1558.88 Q1933.15 1568.7 1929.69 1573.88 Q1926.25 1579.04 1919.72 1579.04 Q1913.18 1579.04 1909.72 1573.88 Q1906.28 1568.7 1906.28 1558.88 Q1906.28 1549.04 1909.72 1543.88 Q1913.18 1538.7 1919.72 1538.7 Z" fill="#000000" fill-rule="nonzero" fill-opacity="1" /><path clip-path="url(#clip120)" d="M1941.07 1539.4 L1966.07 1539.4 L1966.07 1541.64 L1951.96 1578.28 L1946.46 1578.28 L1959.74 1543.83 L1941.07 1543.83 L1941.07 1539.4 Z" fill="#000000" fill-rule="nonzero" fill-opacity="1" /><path clip-path="url(#clip120)" d="M1973.23 1561.54 L1987.27 1561.54 L1987.27 1565.81 L1973.23 1565.81 L1973.23 1561.54 Z" fill="#000000" fill-rule="nonzero" fill-opacity="1" /><path clip-path="url(#clip120)" d="M2000.11 1573.85 L2018.47 1573.85 L2018.47 1578.28 L1993.78 1578.28 L1993.78 1573.85 Q1996.77 1570.75 2001.93 1565.55 Q2007.11 1560.31 2008.44 1558.8 Q2010.97 1555.96 2011.96 1554.01 Q2012.97 1552.03 2012.97 1550.13 Q2012.97 1547.03 2010.78 1545.08 Q2008.62 1543.12 2005.13 1543.12 Q2002.66 1543.12 1999.9 1543.98 Q1997.16 1544.84 1994.04 1546.59 L1994.04 1541.27 Q1997.22 1540 1999.98 1539.35 Q2002.74 1538.7 2005.03 1538.7 Q2011.07 1538.7 2014.66 1541.72 Q2018.26 1544.74 2018.26 1549.79 Q2018.26 1552.19 2017.35 1554.35 Q2016.46 1556.48 2014.09 1559.4 Q2013.44 1560.15 2009.95 1563.77 Q2006.46 1567.37 2000.11 1573.85 Z" fill="#000000" fill-rule="nonzero" fill-opacity="1" /><path clip-path="url(#clip120)" d="M2029.66 1577.47 L2029.66 1572.68 Q2031.64 1573.62 2033.67 1574.11 Q2035.71 1574.61 2037.66 1574.61 Q2042.87 1574.61 2045.6 1571.12 Q2048.36 1567.6 2048.75 1560.47 Q2047.24 1562.71 2044.92 1563.9 Q2042.61 1565.1 2039.79 1565.1 Q2033.96 1565.1 2030.55 1561.59 Q2027.16 1558.05 2027.16 1551.93 Q2027.16 1545.94 2030.71 1542.32 Q2034.25 1538.7 2040.13 1538.7 Q2046.88 1538.7 2050.42 1543.88 Q2053.99 1549.04 2053.99 1558.88 Q2053.99 1568.07 2049.61 1573.57 Q2045.26 1579.04 2037.89 1579.04 Q2035.91 1579.04 2033.88 1578.64 Q2031.85 1578.25 2029.66 1577.47 M2040.13 1560.99 Q2043.67 1560.99 2045.73 1558.57 Q2047.82 1556.14 2047.82 1551.93 Q2047.82 1547.73 2045.73 1545.31 Q2043.67 1542.86 2040.13 1542.86 Q2036.59 1542.86 2034.51 1545.31 Q2032.45 1547.73 2032.45 1551.93 Q2032.45 1556.14 2034.51 1558.57 Q2036.59 1560.99 2040.13 1560.99 Z" fill="#000000" fill-rule="nonzero" fill-opacity="1" /><path clip-path="url(#clip120)" d="M2565.39 1573.85 L2583.75 1573.85 L2583.75 1578.28 L2559.06 1578.28 L2559.06 1573.85 Q2562.06 1570.75 2567.21 1565.55 Q2572.4 1560.31 2573.72 1558.8 Q2576.25 1555.96 2577.24 1554.01 Q2578.25 1552.03 2578.25 1550.13 Q2578.25 1547.03 2576.07 1545.08 Q2573.91 1543.12 2570.42 1543.12 Q2567.94 1543.12 2565.18 1543.98 Q2562.45 1544.84 2559.32 1546.59 L2559.32 1541.27 Q2562.5 1540 2565.26 1539.35 Q2568.02 1538.7 2570.31 1538.7 Q2576.35 1538.7 2579.95 1541.72 Q2583.54 1544.74 2583.54 1549.79 Q2583.54 1552.19 2582.63 1554.35 Q2581.74 1556.48 2579.37 1559.4 Q2578.72 1560.15 2575.23 1563.77 Q2571.74 1567.37 2565.39 1573.85 Z" fill="#000000" fill-rule="nonzero" fill-opacity="1" /><path clip-path="url(#clip120)" d="M2606.04 1542.86 Q2601.98 1542.86 2599.92 1546.87 Q2597.89 1550.86 2597.89 1558.88 Q2597.89 1566.87 2599.92 1570.88 Q2601.98 1574.87 2606.04 1574.87 Q2610.13 1574.87 2612.16 1570.88 Q2614.22 1566.87 2614.22 1558.88 Q2614.22 1550.86 2612.16 1546.87 Q2610.13 1542.86 2606.04 1542.86 M2606.04 1538.7 Q2612.58 1538.7 2616.02 1543.88 Q2619.48 1549.04 2619.48 1558.88 Q2619.48 1568.7 2616.02 1573.88 Q2612.58 1579.04 2606.04 1579.04 Q2599.5 1579.04 2596.04 1573.88 Q2592.6 1568.7 2592.6 1558.88 Q2592.6 1549.04 2596.04 1543.88 Q2599.5 1538.7 2606.04 1538.7 Z" fill="#000000" fill-rule="nonzero" fill-opacity="1" /><path clip-path="url(#clip120)" d="M2633.25 1573.85 L2651.61 1573.85 L2651.61 1578.28 L2626.93 1578.28 L2626.93 1573.85 Q2629.92 1570.75 2635.08 1565.55 Q2640.26 1560.31 2641.59 1558.8 Q2644.11 1555.96 2645.1 1554.01 Q2646.12 1552.03 2646.12 1550.13 Q2646.12 1547.03 2643.93 1545.08 Q2641.77 1543.12 2638.28 1543.12 Q2635.81 1543.12 2633.05 1543.98 Q2630.31 1544.84 2627.19 1546.59 L2627.19 1541.27 Q2630.36 1540 2633.12 1539.35 Q2635.88 1538.7 2638.18 1538.7 Q2644.22 1538.7 2647.81 1541.72 Q2651.41 1544.74 2651.41 1549.79 Q2651.41 1552.19 2650.49 1554.35 Q2649.61 1556.48 2647.24 1559.4 Q2646.59 1560.15 2643.1 1563.77 Q2639.61 1567.37 2633.25 1573.85 Z" fill="#000000" fill-rule="nonzero" fill-opacity="1" /><path clip-path="url(#clip120)" d="M2667.19 1573.85 L2685.55 1573.85 L2685.55 1578.28 L2660.86 1578.28 L2660.86 1573.85 Q2663.85 1570.75 2669.01 1565.55 Q2674.19 1560.31 2675.52 1558.8 Q2678.05 1555.96 2679.04 1554.01 Q2680.05 1552.03 2680.05 1550.13 Q2680.05 1547.03 2677.86 1545.08 Q2675.7 1543.12 2672.21 1543.12 Q2669.74 1543.12 2666.98 1543.98 Q2664.24 1544.84 2661.12 1546.59 L2661.12 1541.27 Q2664.3 1540 2667.06 1539.35 Q2669.82 1538.7 2672.11 1538.7 Q2678.15 1538.7 2681.74 1541.72 Q2685.34 1544.74 2685.34 1549.79 Q2685.34 1552.19 2684.43 1554.35 Q2683.54 1556.48 2681.17 1559.4 Q2680.52 1560.15 2677.03 1563.77 Q2673.54 1567.37 2667.19 1573.85 Z" fill="#000000" fill-rule="nonzero" fill-opacity="1" /><path clip-path="url(#clip120)" d="M2693.49 1561.54 L2707.52 1561.54 L2707.52 1565.81 L2693.49 1565.81 L2693.49 1561.54 Z" fill="#000000" fill-rule="nonzero" fill-opacity="1" /><path clip-path="url(#clip120)" d="M2727.08 1542.86 Q2723.02 1542.86 2720.96 1546.87 Q2718.93 1550.86 2718.93 1558.88 Q2718.93 1566.87 2720.96 1570.88 Q2723.02 1574.87 2727.08 1574.87 Q2731.17 1574.87 2733.2 1570.88 Q2735.26 1566.87 2735.26 1558.88 Q2735.26 1550.86 2733.2 1546.87 Q2731.17 1542.86 2727.08 1542.86 M2727.08 1538.7 Q2733.62 1538.7 2737.06 1543.88 Q2740.52 1549.04 2740.52 1558.88 Q2740.52 1568.7 2737.06 1573.88 Q2733.62 1579.04 2727.08 1579.04 Q2720.55 1579.04 2717.08 1573.88 Q2713.64 1568.7 2713.64 1558.88 Q2713.64 1549.04 2717.08 1543.88 Q2720.55 1538.7 2727.08 1538.7 Z" fill="#000000" fill-rule="nonzero" fill-opacity="1" /><path clip-path="url(#clip120)" d="M2748.44 1539.4 L2773.44 1539.4 L2773.44 1541.64 L2759.32 1578.28 L2753.83 1578.28 L2767.11 1543.83 L2748.44 1543.83 L2748.44 1539.4 Z" fill="#000000" fill-rule="nonzero" fill-opacity="1" /><path clip-path="url(#clip120)" d="M2780.6 1561.54 L2794.63 1561.54 L2794.63 1565.81 L2780.6 1565.81 L2780.6 1561.54 Z" fill="#000000" fill-rule="nonzero" fill-opacity="1" /><path clip-path="url(#clip120)" d="M2818.88 1557.32 Q2822.65 1558.12 2824.76 1560.68 Q2826.9 1563.23 2826.9 1566.98 Q2826.9 1572.73 2822.94 1575.88 Q2818.98 1579.04 2811.69 1579.04 Q2809.24 1579.04 2806.64 1578.54 Q2804.06 1578.07 2801.3 1577.11 L2801.3 1572.03 Q2803.49 1573.31 2806.09 1573.96 Q2808.7 1574.61 2811.53 1574.61 Q2816.48 1574.61 2819.06 1572.65 Q2821.66 1570.7 2821.66 1566.98 Q2821.66 1563.54 2819.24 1561.61 Q2816.85 1559.66 2812.55 1559.66 L2808.02 1559.66 L2808.02 1555.34 L2812.76 1555.34 Q2816.64 1555.34 2818.7 1553.8 Q2820.75 1552.24 2820.75 1549.32 Q2820.75 1546.33 2818.62 1544.74 Q2816.51 1543.12 2812.55 1543.12 Q2810.39 1543.12 2807.92 1543.59 Q2805.44 1544.06 2802.47 1545.05 L2802.47 1540.36 Q2805.47 1539.53 2808.07 1539.11 Q2810.7 1538.7 2813.02 1538.7 Q2819.01 1538.7 2822.5 1541.43 Q2825.99 1544.14 2825.99 1548.77 Q2825.99 1552 2824.14 1554.24 Q2822.29 1556.46 2818.88 1557.32 Z" fill="#000000" fill-rule="nonzero" fill-opacity="1" /><path clip-path="url(#clip120)" d="M2837.78 1573.85 L2846.38 1573.85 L2846.38 1544.19 L2837.03 1546.07 L2837.03 1541.27 L2846.33 1539.4 L2851.59 1539.4 L2851.59 1573.85 L2860.18 1573.85 L2860.18 1578.28 L2837.78 1578.28 L2837.78 1573.85 Z" fill="#000000" fill-rule="nonzero" fill-opacity="1" /><polyline clip-path="url(#clip122)" style="stroke:#000000; stroke-linecap:round; stroke-linejoin:round; stroke-width:2; stroke-opacity:0.1; fill:none" points="205.077,1494.46 3180.41,1494.46 "/>
<polyline clip-path="url(#clip122)" style="stroke:#000000; stroke-linecap:round; stroke-linejoin:round; stroke-width:2; stroke-opacity:0.1; fill:none" points="205.077,1117.58 3180.41,1117.58 "/>
<polyline clip-path="url(#clip122)" style="stroke:#000000; stroke-linecap:round; stroke-linejoin:round; stroke-width:2; stroke-opacity:0.1; fill:none" points="205.077,740.702 3180.41,740.702 "/>
<polyline clip-path="url(#clip122)" style="stroke:#000000; stroke-linecap:round; stroke-linejoin:round; stroke-width:2; stroke-opacity:0.1; fill:none" points="205.077,363.822 3180.41,363.822 "/>
<polyline clip-path="url(#clip120)" style="stroke:#000000; stroke-linecap:round; stroke-linejoin:round; stroke-width:4; stroke-opacity:1; fill:none" points="205.077,1497.68 205.077,47.2441 "/>
<polyline clip-path="url(#clip120)" style="stroke:#000000; stroke-linecap:round; stroke-linejoin:round; stroke-width:4; stroke-opacity:1; fill:none" points="205.077,1494.46 220.08,1494.46 "/>
<polyline clip-path="url(#clip120)" style="stroke:#000000; stroke-linecap:round; stroke-linejoin:round; stroke-width:4; stroke-opacity:1; fill:none" points="205.077,1117.58 220.08,1117.58 "/>
<polyline clip-path="url(#clip120)" style="stroke:#000000; stroke-linecap:round; stroke-linejoin:round; stroke-width:4; stroke-opacity:1; fill:none" points="205.077,740.702 220.08,740.702 "/>
<polyline clip-path="url(#clip120)" style="stroke:#000000; stroke-linecap:round; stroke-linejoin:round; stroke-width:4; stroke-opacity:1; fill:none" points="205.077,363.822 220.08,363.822 "/>
<path clip-path="url(#clip120)" d="M90.9882 1509.47 L109.348 1509.47 L109.348 1513.9 L84.6602 1513.9 L84.6602 1509.47 Q87.6549 1506.38 92.8112 1501.17 Q97.9934 1495.93 99.3215 1494.42 Q101.848 1491.58 102.837 1489.63 Q103.853 1487.65 103.853 1485.75 Q103.853 1482.65 101.665 1480.7 Q99.5038 1478.75 96.0143 1478.75 Q93.5403 1478.75 90.7799 1479.61 Q88.0456 1480.46 84.9206 1482.21 L84.9206 1476.9 Q88.0976 1475.62 90.858 1474.97 Q93.6184 1474.32 95.9101 1474.32 Q101.952 1474.32 105.545 1477.34 Q109.139 1480.36 109.139 1485.41 Q109.139 1487.81 108.228 1489.97 Q107.342 1492.11 104.973 1495.02 Q104.322 1495.78 100.832 1499.4 Q97.3424 1502.99 90.9882 1509.47 Z" fill="#000000" fill-rule="nonzero" fill-opacity="1" /><path clip-path="url(#clip120)" d="M131.639 1478.49 Q127.577 1478.49 125.519 1482.5 Q123.488 1486.48 123.488 1494.5 Q123.488 1502.5 125.519 1506.51 Q127.577 1510.49 131.639 1510.49 Q135.728 1510.49 137.759 1506.51 Q139.816 1502.5 139.816 1494.5 Q139.816 1486.48 137.759 1482.5 Q135.728 1478.49 131.639 1478.49 M131.639 1474.32 Q138.175 1474.32 141.613 1479.5 Q145.077 1484.66 145.077 1494.5 Q145.077 1504.32 141.613 1509.5 Q138.175 1514.66 131.639 1514.66 Q125.103 1514.66 121.639 1509.5 Q118.202 1504.32 118.202 1494.5 Q118.202 1484.66 121.639 1479.5 Q125.103 1474.32 131.639 1474.32 Z" fill="#000000" fill-rule="nonzero" fill-opacity="1" /><path clip-path="url(#clip120)" d="M92.108 1132.59 L110.467 1132.59 L110.467 1137.02 L85.7799 1137.02 L85.7799 1132.59 Q88.7747 1129.5 93.9309 1124.29 Q99.1132 1119.05 100.441 1117.54 Q102.967 1114.7 103.957 1112.75 Q104.973 1110.77 104.973 1108.87 Q104.973 1105.77 102.785 1103.82 Q100.624 1101.87 97.134 1101.87 Q94.6601 1101.87 91.8997 1102.73 Q89.1653 1103.58 86.0404 1105.33 L86.0404 1100.02 Q89.2174 1098.74 91.9778 1098.09 Q94.7382 1097.44 97.0299 1097.44 Q103.072 1097.44 106.665 1100.46 Q110.259 1103.48 110.259 1108.53 Q110.259 1110.93 109.348 1113.09 Q108.462 1115.23 106.092 1118.14 Q105.441 1118.9 101.952 1122.52 Q98.4622 1126.11 92.108 1132.59 Z" fill="#000000" fill-rule="nonzero" fill-opacity="1" /><path clip-path="url(#clip120)" d="M121.561 1098.14 L142.212 1098.14 L142.212 1102.57 L126.379 1102.57 L126.379 1112.1 Q127.525 1111.71 128.67 1111.53 Q129.816 1111.32 130.962 1111.32 Q137.472 1111.32 141.274 1114.89 Q145.077 1118.45 145.077 1124.55 Q145.077 1130.82 141.17 1134.31 Q137.264 1137.78 130.155 1137.78 Q127.707 1137.78 125.155 1137.36 Q122.629 1136.94 119.92 1136.11 L119.92 1130.82 Q122.264 1132.1 124.764 1132.73 Q127.264 1133.35 130.051 1133.35 Q134.556 1133.35 137.186 1130.98 Q139.816 1128.61 139.816 1124.55 Q139.816 1120.49 137.186 1118.12 Q134.556 1115.75 130.051 1115.75 Q127.941 1115.75 125.832 1116.21 Q123.748 1116.68 121.561 1117.67 L121.561 1098.14 Z" fill="#000000" fill-rule="nonzero" fill-opacity="1" /><path clip-path="url(#clip120)" d="M102.394 739.179 Q106.17 739.986 108.28 742.538 Q110.415 745.09 110.415 748.84 Q110.415 754.595 106.457 757.746 Q102.499 760.897 95.207 760.897 Q92.7591 760.897 90.1549 760.403 Q87.5768 759.934 84.8164 758.97 L84.8164 753.892 Q87.0039 755.168 89.608 755.819 Q92.2122 756.47 95.0507 756.47 Q99.9986 756.47 102.577 754.517 Q105.181 752.564 105.181 748.84 Q105.181 745.403 102.759 743.476 Q100.363 741.522 96.0663 741.522 L91.5351 741.522 L91.5351 737.2 L96.2747 737.2 Q100.155 737.2 102.212 735.663 Q104.269 734.101 104.269 731.184 Q104.269 728.189 102.134 726.601 Q100.025 724.986 96.0663 724.986 Q93.9049 724.986 91.431 725.455 Q88.957 725.924 85.9883 726.913 L85.9883 722.226 Q88.9831 721.392 91.5872 720.976 Q94.2174 720.559 96.5351 720.559 Q102.525 720.559 106.014 723.293 Q109.504 726.002 109.504 730.637 Q109.504 733.866 107.655 736.106 Q105.806 738.319 102.394 739.179 Z" fill="#000000" fill-rule="nonzero" fill-opacity="1" /><path clip-path="url(#clip120)" d="M131.639 724.726 Q127.577 724.726 125.519 728.736 Q123.488 732.72 123.488 740.741 Q123.488 748.736 125.519 752.746 Q127.577 756.731 131.639 756.731 Q135.728 756.731 137.759 752.746 Q139.816 748.736 139.816 740.741 Q139.816 732.72 137.759 728.736 Q135.728 724.726 131.639 724.726 M131.639 720.559 Q138.175 720.559 141.613 725.741 Q145.077 730.897 145.077 740.741 Q145.077 750.559 141.613 755.741 Q138.175 760.897 131.639 760.897 Q125.103 760.897 121.639 755.741 Q118.202 750.559 118.202 740.741 Q118.202 730.897 121.639 725.741 Q125.103 720.559 131.639 720.559 Z" fill="#000000" fill-rule="nonzero" fill-opacity="1" /><path clip-path="url(#clip120)" d="M103.514 362.299 Q107.29 363.106 109.4 365.658 Q111.535 368.21 111.535 371.96 Q111.535 377.715 107.577 380.866 Q103.618 384.018 96.3268 384.018 Q93.8789 384.018 91.2747 383.523 Q88.6966 383.054 85.9362 382.09 L85.9362 377.012 Q88.1237 378.288 90.7278 378.939 Q93.332 379.59 96.1705 379.59 Q101.118 379.59 103.697 377.637 Q106.301 375.684 106.301 371.96 Q106.301 368.523 103.879 366.596 Q101.483 364.643 97.1861 364.643 L92.6549 364.643 L92.6549 360.32 L97.3945 360.32 Q101.275 360.32 103.332 358.783 Q105.389 357.221 105.389 354.304 Q105.389 351.309 103.254 349.721 Q101.144 348.106 97.1861 348.106 Q95.0247 348.106 92.5507 348.575 Q90.0768 349.044 87.1081 350.033 L87.1081 345.346 Q90.1028 344.513 92.707 344.096 Q95.3372 343.679 97.6549 343.679 Q103.644 343.679 107.134 346.414 Q110.624 349.122 110.624 353.757 Q110.624 356.986 108.775 359.226 Q106.926 361.44 103.514 362.299 Z" fill="#000000" fill-rule="nonzero" fill-opacity="1" /><path clip-path="url(#clip120)" d="M121.561 344.382 L142.212 344.382 L142.212 348.809 L126.379 348.809 L126.379 358.341 Q127.525 357.95 128.67 357.768 Q129.816 357.559 130.962 357.559 Q137.472 357.559 141.274 361.127 Q145.077 364.695 145.077 370.788 Q145.077 377.064 141.17 380.554 Q137.264 384.018 130.155 384.018 Q127.707 384.018 125.155 383.601 Q122.629 383.184 119.92 382.351 L119.92 377.064 Q122.264 378.34 124.764 378.965 Q127.264 379.59 130.051 379.59 Q134.556 379.59 137.186 377.221 Q139.816 374.851 139.816 370.788 Q139.816 366.726 137.186 364.356 Q134.556 361.986 130.051 361.986 Q127.941 361.986 125.832 362.455 Q123.748 362.924 121.561 363.913 L121.561 344.382 Z" fill="#000000" fill-rule="nonzero" fill-opacity="1" /><path clip-path="url(#clip120)" d="M-31.4998 930.013 L-31.4998 924.168 L11.7002 924.168 L11.7002 930.013 L-31.4998 930.013 Z" fill="#000000" fill-rule="nonzero" fill-opacity="1" /><path clip-path="url(#clip120)" d="M-7.85992 885.829 L11.7002 885.829 L11.7002 891.153 L-7.68631 891.153 Q-12.287 891.153 -14.5728 892.947 Q-16.8587 894.741 -16.8587 898.329 Q-16.8587 902.641 -14.1099 905.129 Q-11.3611 907.618 -6.61572 907.618 L11.7002 907.618 L11.7002 912.97 L-20.7071 912.97 L-20.7071 907.618 L-15.6724 907.618 Q-18.5948 905.708 -20.0416 903.133 Q-21.4883 900.528 -21.4883 897.143 Q-21.4883 891.559 -18.0161 888.694 Q-14.5728 885.829 -7.85992 885.829 Z" fill="#000000" fill-rule="nonzero" fill-opacity="1" /><path clip-path="url(#clip120)" d="M-33.3227 858.804 L-28.8957 858.804 L-28.8957 863.897 Q-28.8957 866.761 -27.7383 867.89 Q-26.5809 868.989 -23.5716 868.989 L-20.7071 868.989 L-20.7071 860.222 L-16.5694 860.222 L-16.5694 868.989 L11.7002 868.989 L11.7002 874.342 L-16.5694 874.342 L-16.5694 879.435 L-20.7071 879.435 L-20.7071 874.342 L-22.964 874.342 Q-28.3749 874.342 -30.8343 871.825 Q-33.3227 869.308 -33.3227 863.839 L-33.3227 858.804 Z" fill="#000000" fill-rule="nonzero" fill-opacity="1" /><path clip-path="url(#clip120)" d="M-33.3227 854.348 L-33.3227 849.024 L11.7002 849.024 L11.7002 854.348 L-33.3227 854.348 Z" fill="#000000" fill-rule="nonzero" fill-opacity="1" /><path clip-path="url(#clip120)" d="M-16.9745 825.326 Q-16.9745 829.609 -13.618 832.097 Q-10.2905 834.585 -4.47452 834.585 Q1.34142 834.585 4.69788 832.126 Q8.02541 829.638 8.02541 825.326 Q8.02541 821.073 4.66895 818.584 Q1.31248 816.096 -4.47452 816.096 Q-10.2326 816.096 -13.5891 818.584 Q-16.9745 821.073 -16.9745 825.326 M-21.4883 825.326 Q-21.4883 818.382 -16.9745 814.418 Q-12.4606 810.454 -4.47452 810.454 Q3.48261 810.454 8.02541 814.418 Q12.5393 818.382 12.5393 825.326 Q12.5393 832.3 8.02541 836.264 Q3.48261 840.199 -4.47452 840.199 Q-12.4606 840.199 -16.9745 836.264 Q-21.4883 832.3 -21.4883 825.326 Z" fill="#000000" fill-rule="nonzero" fill-opacity="1" /><path clip-path="url(#clip120)" d="M-20.7071 804.725 L-20.7071 799.4 L4.58214 792.745 L-20.7071 786.119 L-20.7071 779.84 L4.58214 773.185 L-20.7071 766.559 L-20.7071 761.235 L11.7002 769.713 L11.7002 775.992 L-14.8622 782.965 L11.7002 789.968 L11.7002 796.247 L-20.7071 804.725 Z" fill="#000000" fill-rule="nonzero" fill-opacity="1" /><path clip-path="url(#clip120)" d="M-33.3227 734.818 L-33.3227 722.549 L-29.185 722.549 L-29.185 729.493 L15.3749 729.493 L15.3749 722.549 L19.5126 722.549 L19.5126 734.818 L-33.3227 734.818 Z" fill="#000000" fill-rule="nonzero" fill-opacity="1" /><path clip-path="url(#clip120)" d="M-31.4998 710.975 L-31.4998 705.13 L6.7812 705.13 L6.7812 684.094 L11.7002 684.094 L11.7002 710.975 L-31.4998 710.975 Z" fill="#000000" fill-rule="nonzero" fill-opacity="1" /><path clip-path="url(#clip120)" d="M-31.4998 668.73 L-31.4998 663.811 L17.1978 678.857 L17.1978 683.776 L-31.4998 668.73 Z" fill="#000000" fill-rule="nonzero" fill-opacity="1" /><path clip-path="url(#clip120)" d="M-19.7522 637.567 L-14.7175 637.567 Q-15.8749 639.824 -16.4536 642.254 Q-17.0323 644.685 -17.0323 647.289 Q-17.0323 651.253 -15.8171 653.25 Q-14.6018 655.217 -12.1712 655.217 Q-10.3194 655.217 -9.2488 653.799 Q-8.20714 652.382 -7.25229 648.099 L-6.8472 646.276 Q-5.63193 640.605 -3.40393 638.232 Q-1.20487 635.831 2.75923 635.831 Q7.2731 635.831 9.90619 639.419 Q12.5393 642.978 12.5393 649.228 Q12.5393 651.832 12.0184 654.667 Q11.5265 657.474 10.5138 660.599 L5.01617 660.599 Q6.54972 657.648 7.33097 654.783 Q8.08328 651.919 8.08328 649.112 Q8.08328 645.35 6.81014 643.325 Q5.50806 641.299 3.16432 641.299 Q0.994196 641.299 -0.163205 642.775 Q-1.32061 644.222 -2.3912 649.17 L-2.82523 651.022 Q-3.86689 655.97 -6.00808 658.169 Q-8.17821 660.368 -11.9398 660.368 Q-16.5115 660.368 -18.9999 657.127 Q-21.4883 653.886 -21.4883 647.926 Q-21.4883 644.974 -21.0543 642.37 Q-20.6203 639.766 -19.7522 637.567 Z" fill="#000000" fill-rule="nonzero" fill-opacity="1" /><path clip-path="url(#clip120)" d="M-33.3227 614.911 L19.5126 614.911 L19.5126 627.179 L15.3749 627.179 L15.3749 620.264 L-29.185 620.264 L-29.185 627.179 L-33.3227 627.179 L-33.3227 614.911 Z" fill="#000000" fill-rule="nonzero" fill-opacity="1" /><polyline clip-path="url(#clip122)" style="stroke:#023eff; stroke-linecap:round; stroke-linejoin:round; stroke-width:5; stroke-opacity:1; fill:none" points="289.284,1013.53 306.092,1193.6 322.9,1306.94 339.708,1306.94 356.516,1193.6 373.324,1043.14 390.131,450.416 406.939,156.977 423.747,156.977 440.555,534.177 457.363,534.177 474.171,705.836 490.979,705.836 507.787,705.836 524.595,767.111 541.403,940.338 558.21,848.81 575.018,705.836 591.826,423.324 608.634,354.673 625.442,234.553 642.25,596.976 659.058,705.836 675.866,885.435 692.674,1128.37 709.482,1128.37 726.289,1409.77 743.097,1409.77 759.905,1128.37 776.713,1128.37 793.521,761.763 810.329,216.985 827.137,216.985 843.945,529.927 860.753,741.723 877.56,748.604 894.368,852.815 911.176,852.815 927.984,852.815 944.792,852.815 961.6,852.815 978.408,852.815 995.216,683.115 1012.02,290.798 1028.83,290.798 1045.64,290.798 1062.45,764.981 1079.26,764.981 1096.06,1128.37 1112.87,1128.37 1129.68,1409.77 1146.49,1409.77 1163.29,1128.37 1180.1,1128.37 1196.91,216.985 1213.72,216.985 1230.53,216.985 1247.33,529.927 1264.14,741.723 1280.95,852.815 1297.76,852.815 1314.57,852.815 1331.37,863.302 1348.18,852.815 1364.99,852.815 1381.8,852.815 1398.61,683.115 1415.41,290.798 1432.22,290.798 1449.03,290.798 1465.84,764.981 1482.64,764.981 1499.45,1128.37 1516.26,1128.37 1533.07,1128.37 1549.88,1409.77 1566.68,1128.37 1583.49,1128.37 1600.3,761.763 1617.11,216.985 1633.92,216.985 1650.72,529.927 1667.53,741.723 1684.34,852.815 1701.15,852.815 1717.96,852.815 1734.76,863.302 1751.57,863.302 1768.38,930.307 1785.19,852.815 1801.99,683.115 1818.8,290.798 1835.61,464.54 1852.42,464.54 1869.23,764.981 1886.03,863.302 1902.84,1128.37 1919.65,1128.37 1936.46,1409.77 1953.27,1409.77 1970.07,1409.77 1986.88,1128.37 2003.69,761.763 2020.5,216.985 2037.31,216.985 2054.11,529.927 2070.92,741.723 2087.73,852.815 2104.54,852.815 2121.34,852.815 2138.15,852.815 2154.96,852.815 2171.77,852.815 2188.58,852.815 2205.38,683.115 2222.19,290.798 2239,290.798 2255.81,556.554 2272.62,764.981 2289.42,764.981 2306.23,1128.37 2323.04,1128.37 2339.85,1409.77 2356.66,1409.77 2373.46,1128.37 2390.27,1128.37 2407.08,761.763 2423.89,434.339 2440.69,434.339 2457.5,371.032 2474.31,371.032 2491.12,707.868 2507.93,571.991 2524.73,707.868 2541.54,707.868 2558.35,863.302 2575.16,863.302 2591.97,707.868 2608.77,571.991 2625.58,464.54 2642.39,464.54 2659.2,556.554 2676.01,764.981 2692.81,863.302 2709.62,1128.37 2726.43,1128.37 2743.24,1128.37 2760.05,1409.77 2776.85,1128.37 2793.66,1128.37 2810.47,761.763 2827.28,593.929 2844.08,434.339 2860.89,371.032 2877.7,371.032 2894.51,571.991 2911.32,571.991 2928.12,707.868 2944.93,707.868 2961.74,930.307 2978.55,863.302 2995.36,571.991 3012.16,571.991 3028.97,464.54 3045.78,464.54 3062.59,556.554 3079.4,764.981 3096.2,863.302 "/>
<polyline clip-path="url(#clip122)" style="stroke:#ff7c00; stroke-linecap:round; stroke-linejoin:round; stroke-width:5; stroke-opacity:1; fill:none" points="289.284,1070.14 306.092,1312.82 322.9,1312.82 339.708,1312.82 356.516,1258.1 373.324,956.969 390.131,693.915 406.939,214.768 423.747,214.768 440.555,397.286 457.363,397.286 474.171,638.434 490.979,638.434 507.787,755.828 524.595,755.828 541.403,913.778 558.21,913.778 575.018,638.434 591.826,539.534 608.634,293.71 625.442,293.71 642.25,293.71 659.058,755.828 675.866,777.704 692.674,1101.35 709.482,1200.11 726.289,1316.95 743.097,1249.72 759.905,1200.11 776.713,1101.35 793.521,767.945 810.329,205.727 827.137,205.727 843.945,557.365 860.753,557.365 877.56,764.131 894.368,764.131 911.176,764.131 927.984,956.776 944.792,880.358 961.6,880.358 978.408,880.358 995.216,524.199 1012.02,265.863 1028.83,265.863 1045.64,483.571 1062.45,531.952 1079.26,850.919 1096.06,1101.35 1112.87,1200.11 1129.68,1316.95 1146.49,1445.37 1163.29,1200.11 1180.1,1101.35 1196.91,767.945 1213.72,205.727 1230.53,205.727 1247.33,557.365 1264.14,557.365 1280.95,764.131 1297.76,764.131 1314.57,764.131 1331.37,880.358 1348.18,880.358 1364.99,880.358 1381.8,880.358 1398.61,265.863 1415.41,265.863 1432.22,265.863 1449.03,483.571 1465.84,531.952 1482.64,850.919 1499.45,1101.35 1516.26,1200.11 1533.07,1316.95 1549.88,1445.37 1566.68,1200.11 1583.49,1101.35 1600.3,767.945 1617.11,205.727 1633.92,205.727 1650.72,557.365 1667.53,557.365 1684.34,764.131 1701.15,764.131 1717.96,764.131 1734.76,880.358 1751.57,880.358 1768.38,880.358 1785.19,880.358 1801.99,689.888 1818.8,265.863 1835.61,440.643 1852.42,440.643 1869.23,850.919 1886.03,850.919 1902.84,1101.35 1919.65,1200.11 1936.46,1445.37 1953.27,1445.37 1970.07,1249.72 1986.88,1101.35 2003.69,714.506 2020.5,205.727 2037.31,205.727 2054.11,557.365 2070.92,557.365 2087.73,764.131 2104.54,764.131 2121.34,764.131 2138.15,880.358 2154.96,880.358 2171.77,880.358 2188.58,880.358 2205.38,524.199 2222.19,265.863 2239,265.863 2255.81,531.952 2272.62,531.952 2289.42,850.919 2306.23,1101.35 2323.04,1200.11 2339.85,1316.95 2356.66,1445.37 2373.46,1200.11 2390.27,1101.35 2407.08,714.506 2423.89,388.759 2440.69,213.523 2457.5,213.523 2474.31,388.759 2491.12,684.373 2507.93,707.823 2524.73,707.823 2541.54,862.817 2558.35,862.817 2575.16,862.817 2591.97,862.817 2608.77,440.643 2625.58,440.643 2642.39,440.643 2659.2,531.952 2676.01,850.919 2692.81,850.919 2709.62,1101.35 2726.43,1101.35 2743.24,1316.95 2760.05,1249.72 2776.85,1200.11 2793.66,1101.35 2810.47,714.506 2827.28,617.274 2844.08,388.759 2860.89,213.523 2877.7,388.759 2894.51,551.479 2911.32,707.823 2928.12,707.823 2944.93,862.817 2961.74,862.817 2978.55,862.817 2995.36,862.817 3012.16,440.643 3028.97,440.643 3045.78,440.643 3062.59,531.952 3079.4,531.952 3096.2,850.919 "/>
<polyline clip-path="url(#clip122)" style="stroke:#1ac938; stroke-linecap:round; stroke-linejoin:round; stroke-width:5; stroke-opacity:1; fill:none" points="289.284,1048.81 306.092,1280.77 322.9,1280.77 339.708,1456.63 356.516,1125.45 373.324,1125.45 390.131,602.333 406.939,151.71 423.747,151.71 440.555,274.896 457.363,465.475 474.171,754.115 490.979,754.115 507.787,754.115 524.595,754.115 541.403,923.154 558.21,923.154 575.018,754.115 591.826,498.754 608.634,274.896 625.442,274.896 642.25,498.754 659.058,602.333 675.866,754.115 692.674,1137.51 709.482,1137.51 726.289,1419.39 743.097,1419.39 759.905,1137.51 776.713,736.427 793.521,736.427 810.329,227.044 827.137,227.044 843.945,639.51 860.753,639.51 877.56,736.427 894.368,736.427 911.176,736.427 927.984,872.861 944.792,872.861 961.6,872.861 978.408,445.516 995.216,445.516 1012.02,227.044 1028.83,227.044 1045.64,227.044 1062.45,445.516 1079.26,809.989 1096.06,1137.51 1112.87,1137.51 1129.68,1419.39 1146.49,1419.39 1163.29,1137.51 1180.1,1137.51 1196.91,445.516 1213.72,227.044 1230.53,227.044 1247.33,227.044 1264.14,445.516 1280.95,445.516 1297.76,736.427 1314.57,736.427 1331.37,872.861 1348.18,445.516 1364.99,872.861 1381.8,445.516 1398.61,227.044 1415.41,227.044 1432.22,227.044 1449.03,227.044 1465.84,445.516 1482.64,809.989 1499.45,1137.51 1516.26,1137.51 1533.07,1137.51 1549.88,1419.39 1566.68,1137.51 1583.49,1137.51 1600.3,736.427 1617.11,227.044 1633.92,227.044 1650.72,227.044 1667.53,445.516 1684.34,736.427 1701.15,736.427 1717.96,736.427 1734.76,872.861 1751.57,872.861 1768.38,872.861 1785.19,872.861 1801.99,445.516 1818.8,227.044 1835.61,227.044 1852.42,227.044 1869.23,809.989 1886.03,809.989 1902.84,1137.51 1919.65,1137.51 1936.46,1419.39 1953.27,1419.39 1970.07,1419.39 1986.88,1137.51 2003.69,736.427 2020.5,227.044 2037.31,227.044 2054.11,227.044 2070.92,445.516 2087.73,736.427 2104.54,736.427 2121.34,445.516 2138.15,872.861 2154.96,872.861 2171.77,872.861 2188.58,872.861 2205.38,445.516 2222.19,227.044 2239,227.044 2255.81,445.516 2272.62,445.516 2289.42,809.989 2306.23,1137.51 2323.04,1137.51 2339.85,1419.39 2356.66,1419.39 2373.46,1137.51 2390.27,1137.51 2407.08,736.427 2423.89,316.288 2440.69,316.288 2457.5,639.51 2474.31,639.51 2491.12,736.427 2507.93,445.516 2524.73,736.427 2541.54,872.861 2558.35,872.861 2575.16,872.861 2591.97,872.861 2608.77,227.044 2625.58,227.044 2642.39,227.044 2659.2,445.516 2676.01,809.989 2692.81,809.989 2709.62,1137.51 2726.43,1137.51 2743.24,1137.51 2760.05,1419.39 2776.85,1137.51 2793.66,1137.51 2810.47,736.427 2827.28,736.427 2844.08,227.044 2860.89,227.044 2877.7,227.044 2894.51,445.516 2911.32,445.516 2928.12,736.427 2944.93,872.861 2961.74,872.861 2978.55,872.861 2995.36,445.516 3012.16,445.516 3028.97,227.044 3045.78,227.044 3062.59,553.498 3079.4,809.989 3096.2,809.989 "/>
<polyline clip-path="url(#clip122)" style="stroke:#e8000b; stroke-linecap:round; stroke-linejoin:round; stroke-width:5; stroke-opacity:1; fill:none" points="289.284,1066.22 306.092,1066.22 322.9,1260.51 339.708,1395.59 356.516,1260.51 373.324,1066.22 390.131,687.939 406.939,88.2942 423.747,88.2942 440.555,563.401 457.363,563.401 474.171,674.768 490.979,674.768 507.787,674.768 524.595,887.47 541.403,807.881 558.21,887.47 575.018,690.116 591.826,295.176 608.634,88.2942 625.442,88.2942 642.25,671.713 659.058,687.939 675.866,807.881 692.674,1066.22 709.482,1318.41 726.289,1318.41 743.097,1318.41 759.905,1066.22 776.713,1066.22 793.521,546.585 810.329,128.57 827.137,128.57 843.945,273.46 860.753,546.585 877.56,742.606 894.368,546.585 911.176,742.606 927.984,546.585 944.792,742.606 961.6,742.606 978.408,546.585 995.216,546.585 1012.02,128.57 1028.83,128.57 1045.64,671.713 1062.45,546.585 1079.26,742.606 1096.06,1066.22 1112.87,1066.22 1129.68,1318.41 1146.49,1318.41 1163.29,1318.41 1180.1,1066.22 1196.91,546.585 1213.72,128.57 1230.53,128.57 1247.33,128.57 1264.14,546.585 1280.95,546.585 1297.76,546.585 1314.57,742.606 1331.37,742.606 1348.18,546.585 1364.99,546.585 1381.8,546.585 1398.61,128.57 1415.41,128.57 1432.22,128.57 1449.03,671.713 1465.84,273.46 1482.64,742.606 1499.45,1066.22 1516.26,1066.22 1533.07,1318.41 1549.88,1318.41 1566.68,1318.41 1583.49,1066.22 1600.3,546.585 1617.11,128.57 1633.92,128.57 1650.72,128.57 1667.53,546.585 1684.34,546.585 1701.15,546.585 1717.96,742.606 1734.76,742.606 1751.57,742.606 1768.38,742.606 1785.19,742.606 1801.99,546.585 1818.8,128.57 1835.61,128.57 1852.42,671.713 1869.23,742.606 1886.03,742.606 1902.84,1066.22 1919.65,1318.41 1936.46,1318.41 1953.27,1318.41 1970.07,1318.41 1986.88,1066.22 2003.69,742.606 2020.5,128.57 2037.31,128.57 2054.11,128.57 2070.92,546.585 2087.73,742.606 2104.54,546.585 2121.34,546.585 2138.15,742.606 2154.96,742.606 2171.77,742.606 2188.58,546.585 2205.38,273.46 2222.19,128.57 2239,128.57 2255.81,273.46 2272.62,546.585 2289.42,742.606 2306.23,1066.22 2323.04,1066.22 2339.85,1318.41 2356.66,1318.41 2373.46,1066.22 2390.27,1066.22 2407.08,742.606 2423.89,546.585 2440.69,128.57 2457.5,128.57 2474.31,128.57 2491.12,546.585 2507.93,273.46 2524.73,546.585 2541.54,546.585 2558.35,742.606 2575.16,742.606 2591.97,546.585 2608.77,128.57 2625.58,128.57 2642.39,128.57 2659.2,546.585 2676.01,742.606 2692.81,742.606 2709.62,1066.22 2726.43,1066.22 2743.24,1318.41 2760.05,1318.41 2776.85,1066.22 2793.66,1066.22 2810.47,742.606 2827.28,546.585 2844.08,128.57 2860.89,128.57 2877.7,273.46 2894.51,546.585 2911.32,546.585 2928.12,546.585 2944.93,742.606 2961.74,742.606 2978.55,742.606 2995.36,546.585 3012.16,273.46 3028.97,128.57 3045.78,128.57 3062.59,546.585 3079.4,546.585 3096.2,742.606 "/>
<path clip-path="url(#clip120)" d="M3305.33 445.512 L3952.76 445.512 L3952.76 95.592 L3305.33 95.592  Z" fill="#ffffff" fill-rule="evenodd" fill-opacity="1"/>
<polyline clip-path="url(#clip120)" style="stroke:#000000; stroke-linecap:round; stroke-linejoin:round; stroke-width:4; stroke-opacity:1; fill:none" points="3305.33,445.512 3952.76,445.512 3952.76,95.592 3305.33,95.592 3305.33,445.512 "/>
<polyline clip-path="url(#clip120)" style="stroke:#023eff; stroke-linecap:round; stroke-linejoin:round; stroke-width:5.625; stroke-opacity:1; fill:none" points="3346.97,153.912 3596.82,153.912 "/>
<path clip-path="url(#clip120)" d="M3643.28 168.977 L3643.28 184.446 L3638.46 184.446 L3638.46 144.185 L3643.28 144.185 L3643.28 148.613 Q3644.79 146.008 3647.08 144.758 Q3649.4 143.482 3652.6 143.482 Q3657.91 143.482 3661.22 147.701 Q3664.55 151.92 3664.55 158.795 Q3664.55 165.67 3661.22 169.888 Q3657.91 174.107 3652.6 174.107 Q3649.4 174.107 3647.08 172.857 Q3644.79 171.581 3643.28 168.977 M3659.58 158.795 Q3659.58 153.508 3657.39 150.514 Q3655.23 147.493 3651.43 147.493 Q3647.63 147.493 3645.44 150.514 Q3643.28 153.508 3643.28 158.795 Q3643.28 164.081 3645.44 167.102 Q3647.63 170.097 3651.43 170.097 Q3655.23 170.097 3657.39 167.102 Q3659.58 164.081 3659.58 158.795 Z" fill="#000000" fill-rule="nonzero" fill-opacity="1" /><path clip-path="url(#clip120)" d="M3689.4 148.665 Q3688.59 148.196 3687.63 147.988 Q3686.69 147.753 3685.54 147.753 Q3681.48 147.753 3679.29 150.409 Q3677.13 153.04 3677.13 157.987 L3677.13 173.352 L3672.31 173.352 L3672.31 144.185 L3677.13 144.185 L3677.13 148.717 Q3678.64 146.06 3681.06 144.784 Q3683.49 143.482 3686.95 143.482 Q3687.44 143.482 3688.04 143.56 Q3688.64 143.613 3689.37 143.743 L3689.4 148.665 Z" fill="#000000" fill-rule="nonzero" fill-opacity="1" /><path clip-path="url(#clip120)" d="M3718.2 157.571 L3718.2 159.915 L3696.17 159.915 Q3696.48 164.862 3699.14 167.467 Q3701.82 170.045 3706.58 170.045 Q3709.35 170.045 3711.92 169.368 Q3714.53 168.691 3717.08 167.336 L3717.08 171.868 Q3714.5 172.961 3711.79 173.534 Q3709.08 174.107 3706.3 174.107 Q3699.32 174.107 3695.23 170.045 Q3691.17 165.982 3691.17 159.055 Q3691.17 151.894 3695.02 147.701 Q3698.9 143.482 3705.47 143.482 Q3711.35 143.482 3714.76 147.284 Q3718.2 151.06 3718.2 157.571 M3713.41 156.165 Q3713.36 152.232 3711.19 149.889 Q3709.06 147.545 3705.52 147.545 Q3701.51 147.545 3699.08 149.81 Q3696.69 152.076 3696.32 156.191 L3713.41 156.165 Z" fill="#000000" fill-rule="nonzero" fill-opacity="1" /><path clip-path="url(#clip120)" d="M3745.26 148.613 L3745.26 132.831 L3750.05 132.831 L3750.05 173.352 L3745.26 173.352 L3745.26 168.977 Q3743.75 171.581 3741.43 172.857 Q3739.14 174.107 3735.91 174.107 Q3730.62 174.107 3727.29 169.888 Q3723.98 165.67 3723.98 158.795 Q3723.98 151.92 3727.29 147.701 Q3730.62 143.482 3735.91 143.482 Q3739.14 143.482 3741.43 144.758 Q3743.75 146.008 3745.26 148.613 M3728.93 158.795 Q3728.93 164.081 3731.09 167.102 Q3733.28 170.097 3737.08 170.097 Q3740.88 170.097 3743.07 167.102 Q3745.26 164.081 3745.26 158.795 Q3745.26 153.508 3743.07 150.514 Q3740.88 147.493 3737.08 147.493 Q3733.28 147.493 3731.09 150.514 Q3728.93 153.508 3728.93 158.795 Z" fill="#000000" fill-rule="nonzero" fill-opacity="1" /><path clip-path="url(#clip120)" d="M3759.92 144.185 L3764.71 144.185 L3764.71 173.352 L3759.92 173.352 L3759.92 144.185 M3759.92 132.831 L3764.71 132.831 L3764.71 138.899 L3759.92 138.899 L3759.92 132.831 Z" fill="#000000" fill-rule="nonzero" fill-opacity="1" /><path clip-path="url(#clip120)" d="M3795.73 145.305 L3795.73 149.784 Q3793.69 148.665 3791.64 148.118 Q3789.61 147.545 3787.52 147.545 Q3782.86 147.545 3780.28 150.514 Q3777.7 153.456 3777.7 158.795 Q3777.7 164.133 3780.28 167.102 Q3782.86 170.045 3787.52 170.045 Q3789.61 170.045 3791.64 169.498 Q3793.69 168.925 3795.73 167.805 L3795.73 172.232 Q3793.72 173.17 3791.56 173.638 Q3789.42 174.107 3787 174.107 Q3780.41 174.107 3776.53 169.967 Q3772.65 165.826 3772.65 158.795 Q3772.65 151.659 3776.56 147.571 Q3780.49 143.482 3787.31 143.482 Q3789.53 143.482 3791.64 143.951 Q3793.75 144.394 3795.73 145.305 Z" fill="#000000" fill-rule="nonzero" fill-opacity="1" /><path clip-path="url(#clip120)" d="M3808.8 135.904 L3808.8 144.185 L3818.67 144.185 L3818.67 147.909 L3808.8 147.909 L3808.8 163.743 Q3808.8 167.31 3809.76 168.326 Q3810.75 169.342 3813.75 169.342 L3818.67 169.342 L3818.67 173.352 L3813.75 173.352 Q3808.2 173.352 3806.09 171.295 Q3803.98 169.211 3803.98 163.743 L3803.98 147.909 L3800.46 147.909 L3800.46 144.185 L3803.98 144.185 L3803.98 135.904 L3808.8 135.904 Z" fill="#000000" fill-rule="nonzero" fill-opacity="1" /><path clip-path="url(#clip120)" d="M3847.13 182.206 L3847.13 185.93 L3819.42 185.93 L3819.42 182.206 L3847.13 182.206 Z" fill="#000000" fill-rule="nonzero" fill-opacity="1" /><path clip-path="url(#clip120)" d="M3852.37 134.472 L3873.02 134.472 L3873.02 138.899 L3857.18 138.899 L3857.18 148.43 Q3858.33 148.04 3859.47 147.857 Q3860.62 147.649 3861.77 147.649 Q3868.28 147.649 3872.08 151.217 Q3875.88 154.784 3875.88 160.878 Q3875.88 167.154 3871.97 170.644 Q3868.07 174.107 3860.96 174.107 Q3858.51 174.107 3855.96 173.69 Q3853.43 173.274 3850.72 172.441 L3850.72 167.154 Q3853.07 168.43 3855.57 169.055 Q3858.07 169.68 3860.85 169.68 Q3865.36 169.68 3867.99 167.31 Q3870.62 164.941 3870.62 160.878 Q3870.62 156.816 3867.99 154.446 Q3865.36 152.076 3860.85 152.076 Q3858.75 152.076 3856.64 152.545 Q3854.55 153.014 3852.37 154.003 L3852.37 134.472 Z" fill="#000000" fill-rule="nonzero" fill-opacity="1" /><path clip-path="url(#clip120)" d="M3890.78 168.925 L3909.14 168.925 L3909.14 173.352 L3884.45 173.352 L3884.45 168.925 Q3887.44 165.826 3892.6 160.618 Q3897.78 155.383 3899.11 153.873 Q3901.64 151.034 3902.63 149.081 Q3903.64 147.102 3903.64 145.201 Q3903.64 142.102 3901.45 140.149 Q3899.29 138.196 3895.8 138.196 Q3893.33 138.196 3890.57 139.055 Q3887.83 139.915 3884.71 141.659 L3884.71 136.347 Q3887.89 135.071 3890.65 134.42 Q3893.41 133.769 3895.7 133.769 Q3901.74 133.769 3905.33 136.79 Q3908.93 139.81 3908.93 144.863 Q3908.93 147.258 3908.02 149.42 Q3907.13 151.555 3904.76 154.472 Q3904.11 155.227 3900.62 158.847 Q3897.13 162.441 3890.78 168.925 Z" fill="#000000" fill-rule="nonzero" fill-opacity="1" /><polyline clip-path="url(#clip120)" style="stroke:#ff7c00; stroke-linecap:round; stroke-linejoin:round; stroke-width:5.625; stroke-opacity:1; fill:none" points="3346.97,212.232 3596.82,212.232 "/>
<path clip-path="url(#clip120)" d="M3643.28 227.297 L3643.28 242.766 L3638.46 242.766 L3638.46 202.505 L3643.28 202.505 L3643.28 206.933 Q3644.79 204.328 3647.08 203.078 Q3649.4 201.802 3652.6 201.802 Q3657.91 201.802 3661.22 206.021 Q3664.55 210.24 3664.55 217.115 Q3664.55 223.99 3661.22 228.208 Q3657.91 232.427 3652.6 232.427 Q3649.4 232.427 3647.08 231.177 Q3644.79 229.901 3643.28 227.297 M3659.58 217.115 Q3659.58 211.828 3657.39 208.834 Q3655.23 205.813 3651.43 205.813 Q3647.63 205.813 3645.44 208.834 Q3643.28 211.828 3643.28 217.115 Q3643.28 222.401 3645.44 225.422 Q3647.63 228.417 3651.43 228.417 Q3655.23 228.417 3657.39 225.422 Q3659.58 222.401 3659.58 217.115 Z" fill="#000000" fill-rule="nonzero" fill-opacity="1" /><path clip-path="url(#clip120)" d="M3689.4 206.985 Q3688.59 206.516 3687.63 206.308 Q3686.69 206.073 3685.54 206.073 Q3681.48 206.073 3679.29 208.729 Q3677.13 211.36 3677.13 216.307 L3677.13 231.672 L3672.31 231.672 L3672.31 202.505 L3677.13 202.505 L3677.13 207.037 Q3678.64 204.38 3681.06 203.104 Q3683.49 201.802 3686.95 201.802 Q3687.44 201.802 3688.04 201.88 Q3688.64 201.933 3689.37 202.063 L3689.4 206.985 Z" fill="#000000" fill-rule="nonzero" fill-opacity="1" /><path clip-path="url(#clip120)" d="M3718.2 215.891 L3718.2 218.235 L3696.17 218.235 Q3696.48 223.182 3699.14 225.787 Q3701.82 228.365 3706.58 228.365 Q3709.35 228.365 3711.92 227.688 Q3714.53 227.011 3717.08 225.656 L3717.08 230.188 Q3714.5 231.281 3711.79 231.854 Q3709.08 232.427 3706.3 232.427 Q3699.32 232.427 3695.23 228.365 Q3691.17 224.302 3691.17 217.375 Q3691.17 210.214 3695.02 206.021 Q3698.9 201.802 3705.47 201.802 Q3711.35 201.802 3714.76 205.604 Q3718.2 209.38 3718.2 215.891 M3713.41 214.485 Q3713.36 210.552 3711.19 208.209 Q3709.06 205.865 3705.52 205.865 Q3701.51 205.865 3699.08 208.13 Q3696.69 210.396 3696.32 214.511 L3713.41 214.485 Z" fill="#000000" fill-rule="nonzero" fill-opacity="1" /><path clip-path="url(#clip120)" d="M3745.26 206.933 L3745.26 191.151 L3750.05 191.151 L3750.05 231.672 L3745.26 231.672 L3745.26 227.297 Q3743.75 229.901 3741.43 231.177 Q3739.14 232.427 3735.91 232.427 Q3730.62 232.427 3727.29 228.208 Q3723.98 223.99 3723.98 217.115 Q3723.98 210.24 3727.29 206.021 Q3730.62 201.802 3735.91 201.802 Q3739.14 201.802 3741.43 203.078 Q3743.75 204.328 3745.26 206.933 M3728.93 217.115 Q3728.93 222.401 3731.09 225.422 Q3733.28 228.417 3737.08 228.417 Q3740.88 228.417 3743.07 225.422 Q3745.26 222.401 3745.26 217.115 Q3745.26 211.828 3743.07 208.834 Q3740.88 205.813 3737.08 205.813 Q3733.28 205.813 3731.09 208.834 Q3728.93 211.828 3728.93 217.115 Z" fill="#000000" fill-rule="nonzero" fill-opacity="1" /><path clip-path="url(#clip120)" d="M3759.92 202.505 L3764.71 202.505 L3764.71 231.672 L3759.92 231.672 L3759.92 202.505 M3759.92 191.151 L3764.71 191.151 L3764.71 197.219 L3759.92 197.219 L3759.92 191.151 Z" fill="#000000" fill-rule="nonzero" fill-opacity="1" /><path clip-path="url(#clip120)" d="M3795.73 203.625 L3795.73 208.104 Q3793.69 206.985 3791.64 206.438 Q3789.61 205.865 3787.52 205.865 Q3782.86 205.865 3780.28 208.834 Q3777.7 211.776 3777.7 217.115 Q3777.7 222.453 3780.28 225.422 Q3782.86 228.365 3787.52 228.365 Q3789.61 228.365 3791.64 227.818 Q3793.69 227.245 3795.73 226.125 L3795.73 230.552 Q3793.72 231.49 3791.56 231.958 Q3789.42 232.427 3787 232.427 Q3780.41 232.427 3776.53 228.287 Q3772.65 224.146 3772.65 217.115 Q3772.65 209.979 3776.56 205.891 Q3780.49 201.802 3787.31 201.802 Q3789.53 201.802 3791.64 202.271 Q3793.75 202.714 3795.73 203.625 Z" fill="#000000" fill-rule="nonzero" fill-opacity="1" /><path clip-path="url(#clip120)" d="M3808.8 194.224 L3808.8 202.505 L3818.67 202.505 L3818.67 206.229 L3808.8 206.229 L3808.8 222.063 Q3808.8 225.63 3809.76 226.646 Q3810.75 227.662 3813.75 227.662 L3818.67 227.662 L3818.67 231.672 L3813.75 231.672 Q3808.2 231.672 3806.09 229.615 Q3803.98 227.531 3803.98 222.063 L3803.98 206.229 L3800.46 206.229 L3800.46 202.505 L3803.98 202.505 L3803.98 194.224 L3808.8 194.224 Z" fill="#000000" fill-rule="nonzero" fill-opacity="1" /><path clip-path="url(#clip120)" d="M3847.13 240.526 L3847.13 244.25 L3819.42 244.25 L3819.42 240.526 L3847.13 240.526 Z" fill="#000000" fill-rule="nonzero" fill-opacity="1" /><path clip-path="url(#clip120)" d="M3856.84 227.245 L3875.2 227.245 L3875.2 231.672 L3850.52 231.672 L3850.52 227.245 Q3853.51 224.146 3858.67 218.938 Q3863.85 213.703 3865.18 212.193 Q3867.7 209.354 3868.69 207.401 Q3869.71 205.422 3869.71 203.521 Q3869.71 200.422 3867.52 198.469 Q3865.36 196.516 3861.87 196.516 Q3859.4 196.516 3856.64 197.375 Q3853.9 198.235 3850.78 199.979 L3850.78 194.667 Q3853.95 193.391 3856.71 192.74 Q3859.47 192.089 3861.77 192.089 Q3867.81 192.089 3871.4 195.11 Q3875 198.13 3875 203.183 Q3875 205.578 3874.08 207.74 Q3873.2 209.875 3870.83 212.792 Q3870.18 213.547 3866.69 217.167 Q3863.2 220.761 3856.84 227.245 Z" fill="#000000" fill-rule="nonzero" fill-opacity="1" /><path clip-path="url(#clip120)" d="M3898.15 210.136 Q3894.6 210.136 3892.52 212.557 Q3890.46 214.979 3890.46 219.198 Q3890.46 223.391 3892.52 225.839 Q3894.6 228.261 3898.15 228.261 Q3901.69 228.261 3903.75 225.839 Q3905.83 223.391 3905.83 219.198 Q3905.83 214.979 3903.75 212.557 Q3901.69 210.136 3898.15 210.136 M3908.59 193.651 L3908.59 198.443 Q3906.61 197.505 3904.58 197.011 Q3902.57 196.516 3900.59 196.516 Q3895.39 196.516 3892.63 200.031 Q3889.89 203.547 3889.5 210.656 Q3891.04 208.391 3893.35 207.193 Q3895.67 205.969 3898.46 205.969 Q3904.32 205.969 3907.7 209.537 Q3911.12 213.078 3911.12 219.198 Q3911.12 225.188 3907.57 228.807 Q3904.03 232.427 3898.15 232.427 Q3891.4 232.427 3887.83 227.271 Q3884.27 222.089 3884.27 212.271 Q3884.27 203.052 3888.64 197.584 Q3893.02 192.089 3900.39 192.089 Q3902.37 192.089 3904.37 192.479 Q3906.4 192.87 3908.59 193.651 Z" fill="#000000" fill-rule="nonzero" fill-opacity="1" /><polyline clip-path="url(#clip120)" style="stroke:#1ac938; stroke-linecap:round; stroke-linejoin:round; stroke-width:5.625; stroke-opacity:1; fill:none" points="3346.97,270.552 3596.82,270.552 "/>
<path clip-path="url(#clip120)" d="M3643.28 285.617 L3643.28 301.086 L3638.46 301.086 L3638.46 260.825 L3643.28 260.825 L3643.28 265.253 Q3644.79 262.648 3647.08 261.398 Q3649.4 260.122 3652.6 260.122 Q3657.91 260.122 3661.22 264.341 Q3664.55 268.56 3664.55 275.435 Q3664.55 282.31 3661.22 286.528 Q3657.91 290.747 3652.6 290.747 Q3649.4 290.747 3647.08 289.497 Q3644.79 288.221 3643.28 285.617 M3659.58 275.435 Q3659.58 270.148 3657.39 267.154 Q3655.23 264.133 3651.43 264.133 Q3647.63 264.133 3645.44 267.154 Q3643.28 270.148 3643.28 275.435 Q3643.28 280.721 3645.44 283.742 Q3647.63 286.737 3651.43 286.737 Q3655.23 286.737 3657.39 283.742 Q3659.58 280.721 3659.58 275.435 Z" fill="#000000" fill-rule="nonzero" fill-opacity="1" /><path clip-path="url(#clip120)" d="M3689.4 265.305 Q3688.59 264.836 3687.63 264.628 Q3686.69 264.393 3685.54 264.393 Q3681.48 264.393 3679.29 267.049 Q3677.13 269.68 3677.13 274.627 L3677.13 289.992 L3672.31 289.992 L3672.31 260.825 L3677.13 260.825 L3677.13 265.357 Q3678.64 262.7 3681.06 261.424 Q3683.49 260.122 3686.95 260.122 Q3687.44 260.122 3688.04 260.2 Q3688.64 260.253 3689.37 260.383 L3689.4 265.305 Z" fill="#000000" fill-rule="nonzero" fill-opacity="1" /><path clip-path="url(#clip120)" d="M3718.2 274.211 L3718.2 276.555 L3696.17 276.555 Q3696.48 281.502 3699.14 284.107 Q3701.82 286.685 3706.58 286.685 Q3709.35 286.685 3711.92 286.008 Q3714.53 285.331 3717.08 283.976 L3717.08 288.508 Q3714.5 289.601 3711.79 290.174 Q3709.08 290.747 3706.3 290.747 Q3699.32 290.747 3695.23 286.685 Q3691.17 282.622 3691.17 275.695 Q3691.17 268.534 3695.02 264.341 Q3698.9 260.122 3705.47 260.122 Q3711.35 260.122 3714.76 263.924 Q3718.2 267.7 3718.2 274.211 M3713.41 272.805 Q3713.36 268.872 3711.19 266.529 Q3709.06 264.185 3705.52 264.185 Q3701.51 264.185 3699.08 266.45 Q3696.69 268.716 3696.32 272.831 L3713.41 272.805 Z" fill="#000000" fill-rule="nonzero" fill-opacity="1" /><path clip-path="url(#clip120)" d="M3745.26 265.253 L3745.26 249.471 L3750.05 249.471 L3750.05 289.992 L3745.26 289.992 L3745.26 285.617 Q3743.75 288.221 3741.43 289.497 Q3739.14 290.747 3735.91 290.747 Q3730.62 290.747 3727.29 286.528 Q3723.98 282.31 3723.98 275.435 Q3723.98 268.56 3727.29 264.341 Q3730.62 260.122 3735.91 260.122 Q3739.14 260.122 3741.43 261.398 Q3743.75 262.648 3745.26 265.253 M3728.93 275.435 Q3728.93 280.721 3731.09 283.742 Q3733.28 286.737 3737.08 286.737 Q3740.88 286.737 3743.07 283.742 Q3745.26 280.721 3745.26 275.435 Q3745.26 270.148 3743.07 267.154 Q3740.88 264.133 3737.08 264.133 Q3733.28 264.133 3731.09 267.154 Q3728.93 270.148 3728.93 275.435 Z" fill="#000000" fill-rule="nonzero" fill-opacity="1" /><path clip-path="url(#clip120)" d="M3759.92 260.825 L3764.71 260.825 L3764.71 289.992 L3759.92 289.992 L3759.92 260.825 M3759.92 249.471 L3764.71 249.471 L3764.71 255.539 L3759.92 255.539 L3759.92 249.471 Z" fill="#000000" fill-rule="nonzero" fill-opacity="1" /><path clip-path="url(#clip120)" d="M3795.73 261.945 L3795.73 266.424 Q3793.69 265.305 3791.64 264.758 Q3789.61 264.185 3787.52 264.185 Q3782.86 264.185 3780.28 267.154 Q3777.7 270.096 3777.7 275.435 Q3777.7 280.773 3780.28 283.742 Q3782.86 286.685 3787.52 286.685 Q3789.61 286.685 3791.64 286.138 Q3793.69 285.565 3795.73 284.445 L3795.73 288.872 Q3793.72 289.81 3791.56 290.278 Q3789.42 290.747 3787 290.747 Q3780.41 290.747 3776.53 286.607 Q3772.65 282.466 3772.65 275.435 Q3772.65 268.299 3776.56 264.211 Q3780.49 260.122 3787.31 260.122 Q3789.53 260.122 3791.64 260.591 Q3793.75 261.034 3795.73 261.945 Z" fill="#000000" fill-rule="nonzero" fill-opacity="1" /><path clip-path="url(#clip120)" d="M3808.8 252.544 L3808.8 260.825 L3818.67 260.825 L3818.67 264.549 L3808.8 264.549 L3808.8 280.383 Q3808.8 283.95 3809.76 284.966 Q3810.75 285.982 3813.75 285.982 L3818.67 285.982 L3818.67 289.992 L3813.75 289.992 Q3808.2 289.992 3806.09 287.935 Q3803.98 285.851 3803.98 280.383 L3803.98 264.549 L3800.46 264.549 L3800.46 260.825 L3803.98 260.825 L3803.98 252.544 L3808.8 252.544 Z" fill="#000000" fill-rule="nonzero" fill-opacity="1" /><path clip-path="url(#clip120)" d="M3847.13 298.846 L3847.13 302.57 L3819.42 302.57 L3819.42 298.846 L3847.13 298.846 Z" fill="#000000" fill-rule="nonzero" fill-opacity="1" /><path clip-path="url(#clip120)" d="M3866.77 255.695 L3853.49 276.45 L3866.77 276.45 L3866.77 255.695 M3865.39 251.112 L3872 251.112 L3872 276.45 L3877.55 276.45 L3877.55 280.825 L3872 280.825 L3872 289.992 L3866.77 289.992 L3866.77 280.825 L3849.21 280.825 L3849.21 275.747 L3865.39 251.112 Z" fill="#000000" fill-rule="nonzero" fill-opacity="1" /><polyline clip-path="url(#clip120)" style="stroke:#e8000b; stroke-linecap:round; stroke-linejoin:round; stroke-width:5.625; stroke-opacity:1; fill:none" points="3346.97,328.872 3596.82,328.872 "/>
<path clip-path="url(#clip120)" d="M3643.28 343.937 L3643.28 359.406 L3638.46 359.406 L3638.46 319.145 L3643.28 319.145 L3643.28 323.573 Q3644.79 320.968 3647.08 319.718 Q3649.4 318.442 3652.6 318.442 Q3657.91 318.442 3661.22 322.661 Q3664.55 326.88 3664.55 333.755 Q3664.55 340.63 3661.22 344.848 Q3657.91 349.067 3652.6 349.067 Q3649.4 349.067 3647.08 347.817 Q3644.79 346.541 3643.28 343.937 M3659.58 333.755 Q3659.58 328.468 3657.39 325.474 Q3655.23 322.453 3651.43 322.453 Q3647.63 322.453 3645.44 325.474 Q3643.28 328.468 3643.28 333.755 Q3643.28 339.041 3645.44 342.062 Q3647.63 345.057 3651.43 345.057 Q3655.23 345.057 3657.39 342.062 Q3659.58 339.041 3659.58 333.755 Z" fill="#000000" fill-rule="nonzero" fill-opacity="1" /><path clip-path="url(#clip120)" d="M3689.4 323.625 Q3688.59 323.156 3687.63 322.948 Q3686.69 322.713 3685.54 322.713 Q3681.48 322.713 3679.29 325.369 Q3677.13 328 3677.13 332.947 L3677.13 348.312 L3672.31 348.312 L3672.31 319.145 L3677.13 319.145 L3677.13 323.677 Q3678.64 321.02 3681.06 319.744 Q3683.49 318.442 3686.95 318.442 Q3687.44 318.442 3688.04 318.52 Q3688.64 318.573 3689.37 318.703 L3689.4 323.625 Z" fill="#000000" fill-rule="nonzero" fill-opacity="1" /><path clip-path="url(#clip120)" d="M3718.2 332.531 L3718.2 334.875 L3696.17 334.875 Q3696.48 339.822 3699.14 342.427 Q3701.82 345.005 3706.58 345.005 Q3709.35 345.005 3711.92 344.328 Q3714.53 343.651 3717.08 342.296 L3717.08 346.828 Q3714.5 347.921 3711.79 348.494 Q3709.08 349.067 3706.3 349.067 Q3699.32 349.067 3695.23 345.005 Q3691.17 340.942 3691.17 334.015 Q3691.17 326.854 3695.02 322.661 Q3698.9 318.442 3705.47 318.442 Q3711.35 318.442 3714.76 322.244 Q3718.2 326.02 3718.2 332.531 M3713.41 331.125 Q3713.36 327.192 3711.19 324.849 Q3709.06 322.505 3705.52 322.505 Q3701.51 322.505 3699.08 324.77 Q3696.69 327.036 3696.32 331.151 L3713.41 331.125 Z" fill="#000000" fill-rule="nonzero" fill-opacity="1" /><path clip-path="url(#clip120)" d="M3745.26 323.573 L3745.26 307.791 L3750.05 307.791 L3750.05 348.312 L3745.26 348.312 L3745.26 343.937 Q3743.75 346.541 3741.43 347.817 Q3739.14 349.067 3735.91 349.067 Q3730.62 349.067 3727.29 344.848 Q3723.98 340.63 3723.98 333.755 Q3723.98 326.88 3727.29 322.661 Q3730.62 318.442 3735.91 318.442 Q3739.14 318.442 3741.43 319.718 Q3743.75 320.968 3745.26 323.573 M3728.93 333.755 Q3728.93 339.041 3731.09 342.062 Q3733.28 345.057 3737.08 345.057 Q3740.88 345.057 3743.07 342.062 Q3745.26 339.041 3745.26 333.755 Q3745.26 328.468 3743.07 325.474 Q3740.88 322.453 3737.08 322.453 Q3733.28 322.453 3731.09 325.474 Q3728.93 328.468 3728.93 333.755 Z" fill="#000000" fill-rule="nonzero" fill-opacity="1" /><path clip-path="url(#clip120)" d="M3759.92 319.145 L3764.71 319.145 L3764.71 348.312 L3759.92 348.312 L3759.92 319.145 M3759.92 307.791 L3764.71 307.791 L3764.71 313.859 L3759.92 313.859 L3759.92 307.791 Z" fill="#000000" fill-rule="nonzero" fill-opacity="1" /><path clip-path="url(#clip120)" d="M3795.73 320.265 L3795.73 324.744 Q3793.69 323.625 3791.64 323.078 Q3789.61 322.505 3787.52 322.505 Q3782.86 322.505 3780.28 325.474 Q3777.7 328.416 3777.7 333.755 Q3777.7 339.093 3780.28 342.062 Q3782.86 345.005 3787.52 345.005 Q3789.61 345.005 3791.64 344.458 Q3793.69 343.885 3795.73 342.765 L3795.73 347.192 Q3793.72 348.13 3791.56 348.598 Q3789.42 349.067 3787 349.067 Q3780.41 349.067 3776.53 344.927 Q3772.65 340.786 3772.65 333.755 Q3772.65 326.619 3776.56 322.531 Q3780.49 318.442 3787.31 318.442 Q3789.53 318.442 3791.64 318.911 Q3793.75 319.354 3795.73 320.265 Z" fill="#000000" fill-rule="nonzero" fill-opacity="1" /><path clip-path="url(#clip120)" d="M3808.8 310.864 L3808.8 319.145 L3818.67 319.145 L3818.67 322.869 L3808.8 322.869 L3808.8 338.703 Q3808.8 342.27 3809.76 343.286 Q3810.75 344.302 3813.75 344.302 L3818.67 344.302 L3818.67 348.312 L3813.75 348.312 Q3808.2 348.312 3806.09 346.255 Q3803.98 344.171 3803.98 338.703 L3803.98 322.869 L3800.46 322.869 L3800.46 319.145 L3803.98 319.145 L3803.98 310.864 L3808.8 310.864 Z" fill="#000000" fill-rule="nonzero" fill-opacity="1" /><path clip-path="url(#clip120)" d="M3847.13 357.166 L3847.13 360.89 L3819.42 360.89 L3819.42 357.166 L3847.13 357.166 Z" fill="#000000" fill-rule="nonzero" fill-opacity="1" /><path clip-path="url(#clip120)" d="M3853.22 343.885 L3861.82 343.885 L3861.82 314.224 L3852.47 316.099 L3852.47 311.307 L3861.77 309.432 L3867.03 309.432 L3867.03 343.885 L3875.62 343.885 L3875.62 348.312 L3853.22 348.312 L3853.22 343.885 Z" fill="#000000" fill-rule="nonzero" fill-opacity="1" /><polyline clip-path="url(#clip120)" style="stroke:#000000; stroke-linecap:round; stroke-linejoin:round; stroke-width:6.75; stroke-opacity:1; fill:none" points="3346.97,387.192 3596.82,387.192 "/>
<path clip-path="url(#clip120)" d="M3653.54 391.971 Q3647.73 391.971 3645.49 393.299 Q3643.25 394.627 3643.25 397.83 Q3643.25 400.382 3644.92 401.892 Q3646.61 403.377 3649.5 403.377 Q3653.49 403.377 3655.88 400.564 Q3658.3 397.726 3658.3 393.038 L3658.3 391.971 L3653.54 391.971 M3663.1 389.991 L3663.1 406.632 L3658.3 406.632 L3658.3 402.205 Q3656.66 404.861 3654.22 406.137 Q3651.77 407.387 3648.23 407.387 Q3643.75 407.387 3641.09 404.887 Q3638.46 402.361 3638.46 398.142 Q3638.46 393.221 3641.74 390.721 Q3645.05 388.221 3651.59 388.221 L3658.3 388.221 L3658.3 387.752 Q3658.3 384.445 3656.12 382.648 Q3653.95 380.825 3650.02 380.825 Q3647.52 380.825 3645.15 381.424 Q3642.78 382.023 3640.6 383.221 L3640.6 378.794 Q3643.23 377.778 3645.7 377.283 Q3648.17 376.762 3650.52 376.762 Q3656.85 376.762 3659.97 380.044 Q3663.1 383.325 3663.1 389.991 Z" fill="#000000" fill-rule="nonzero" fill-opacity="1" /><path clip-path="url(#clip120)" d="M3693.95 378.585 L3693.95 383.064 Q3691.92 381.945 3689.87 381.398 Q3687.83 380.825 3685.75 380.825 Q3681.09 380.825 3678.51 383.794 Q3675.93 386.736 3675.93 392.075 Q3675.93 397.413 3678.51 400.382 Q3681.09 403.325 3685.75 403.325 Q3687.83 403.325 3689.87 402.778 Q3691.92 402.205 3693.95 401.085 L3693.95 405.512 Q3691.95 406.45 3689.79 406.918 Q3687.65 407.387 3685.23 407.387 Q3678.64 407.387 3674.76 403.247 Q3670.88 399.106 3670.88 392.075 Q3670.88 384.939 3674.79 380.851 Q3678.72 376.762 3685.54 376.762 Q3687.76 376.762 3689.87 377.231 Q3691.98 377.674 3693.95 378.585 Z" fill="#000000" fill-rule="nonzero" fill-opacity="1" /><path clip-path="url(#clip120)" d="M3707.03 369.184 L3707.03 377.465 L3716.9 377.465 L3716.9 381.189 L3707.03 381.189 L3707.03 397.023 Q3707.03 400.59 3707.99 401.606 Q3708.98 402.622 3711.98 402.622 L3716.9 402.622 L3716.9 406.632 L3711.98 406.632 Q3706.43 406.632 3704.32 404.575 Q3702.21 402.491 3702.21 397.023 L3702.21 381.189 L3698.69 381.189 L3698.69 377.465 L3702.21 377.465 L3702.21 369.184 L3707.03 369.184 Z" fill="#000000" fill-rule="nonzero" fill-opacity="1" /><path clip-path="url(#clip120)" d="M3722.7 395.122 L3722.7 377.465 L3727.5 377.465 L3727.5 394.939 Q3727.5 399.08 3729.11 401.163 Q3730.73 403.221 3733.95 403.221 Q3737.83 403.221 3740.07 400.747 Q3742.34 398.273 3742.34 394.002 L3742.34 377.465 L3747.13 377.465 L3747.13 406.632 L3742.34 406.632 L3742.34 402.153 Q3740.6 404.809 3738.28 406.111 Q3735.99 407.387 3732.94 407.387 Q3727.91 407.387 3725.31 404.262 Q3722.7 401.137 3722.7 395.122 M3734.76 376.762 L3734.76 376.762 Z" fill="#000000" fill-rule="nonzero" fill-opacity="1" /><path clip-path="url(#clip120)" d="M3770.26 391.971 Q3764.45 391.971 3762.21 393.299 Q3759.97 394.627 3759.97 397.83 Q3759.97 400.382 3761.64 401.892 Q3763.33 403.377 3766.22 403.377 Q3770.2 403.377 3772.6 400.564 Q3775.02 397.726 3775.02 393.038 L3775.02 391.971 L3770.26 391.971 M3779.81 389.991 L3779.81 406.632 L3775.02 406.632 L3775.02 402.205 Q3773.38 404.861 3770.93 406.137 Q3768.49 407.387 3764.94 407.387 Q3760.46 407.387 3757.81 404.887 Q3755.18 402.361 3755.18 398.142 Q3755.18 393.221 3758.46 390.721 Q3761.77 388.221 3768.3 388.221 L3775.02 388.221 L3775.02 387.752 Q3775.02 384.445 3772.83 382.648 Q3770.67 380.825 3766.74 380.825 Q3764.24 380.825 3761.87 381.424 Q3759.5 382.023 3757.31 383.221 L3757.31 378.794 Q3759.94 377.778 3762.42 377.283 Q3764.89 376.762 3767.24 376.762 Q3773.56 376.762 3776.69 380.044 Q3779.81 383.325 3779.81 389.991 Z" fill="#000000" fill-rule="nonzero" fill-opacity="1" /><path clip-path="url(#clip120)" d="M3789.68 366.111 L3794.48 366.111 L3794.48 406.632 L3789.68 406.632 L3789.68 366.111 Z" fill="#000000" fill-rule="nonzero" fill-opacity="1" /></svg>
