<?xml version="1.0" encoding="utf-8"?>
<svg xmlns="http://www.w3.org/2000/svg" xmlns:xlink="http://www.w3.org/1999/xlink" width="1000" height="400" viewBox="0 0 4000 1600">
<defs>
  <clipPath id="clip960">
    <rect x="0" y="0" width="4000" height="1600"/>
  </clipPath>
</defs>
<path clip-path="url(#clip960)" d="M0 1600 L4000 1600 L4000 0 L0 0  Z" fill="#ffffff" fill-rule="evenodd" fill-opacity="1"/>
<defs>
  <clipPath id="clip961">
    <rect x="800" y="0" width="2801" height="1600"/>
  </clipPath>
</defs>
<path clip-path="url(#clip960)" d="M237.055 1497.68 L3184.67 1497.68 L3184.67 47.2441 L237.055 47.2441  Z" fill="#ffffff" fill-rule="evenodd" fill-opacity="1"/>
<defs>
  <clipPath id="clip962">
    <rect x="237" y="47" width="2949" height="1451"/>
  </clipPath>
</defs>
<polyline clip-path="url(#clip962)" style="stroke:#000000; stroke-linecap:round; stroke-linejoin:round; stroke-width:2; stroke-opacity:0.1; fill:none" points="320.479,1497.68 320.479,47.2441 "/>
<polyline clip-path="url(#clip962)" style="stroke:#000000; stroke-linecap:round; stroke-linejoin:round; stroke-width:2; stroke-opacity:0.1; fill:none" points="1119.74,1497.68 1119.74,47.2441 "/>
<polyline clip-path="url(#clip962)" style="stroke:#000000; stroke-linecap:round; stroke-linejoin:round; stroke-width:2; stroke-opacity:0.1; fill:none" points="1919.01,1497.68 1919.01,47.2441 "/>
<polyline clip-path="url(#clip962)" style="stroke:#000000; stroke-linecap:round; stroke-linejoin:round; stroke-width:2; stroke-opacity:0.1; fill:none" points="2718.27,1497.68 2718.27,47.2441 "/>
<polyline clip-path="url(#clip960)" style="stroke:#000000; stroke-linecap:round; stroke-linejoin:round; stroke-width:4; stroke-opacity:1; fill:none" points="237.055,1497.68 3184.67,1497.68 "/>
<polyline clip-path="url(#clip960)" style="stroke:#000000; stroke-linecap:round; stroke-linejoin:round; stroke-width:4; stroke-opacity:1; fill:none" points="320.479,1497.68 320.479,1478.78 "/>
<polyline clip-path="url(#clip960)" style="stroke:#000000; stroke-linecap:round; stroke-linejoin:round; stroke-width:4; stroke-opacity:1; fill:none" points="1119.74,1497.68 1119.74,1478.78 "/>
<polyline clip-path="url(#clip960)" style="stroke:#000000; stroke-linecap:round; stroke-linejoin:round; stroke-width:4; stroke-opacity:1; fill:none" points="1919.01,1497.68 1919.01,1478.78 "/>
<polyline clip-path="url(#clip960)" style="stroke:#000000; stroke-linecap:round; stroke-linejoin:round; stroke-width:4; stroke-opacity:1; fill:none" points="2718.27,1497.68 2718.27,1478.78 "/>
<path clip-path="url(#clip960)" d="M176.117 1573.85 L194.477 1573.85 L194.477 1578.28 L169.789 1578.28 L169.789 1573.85 Q172.784 1570.75 177.94 1565.55 Q183.123 1560.31 184.451 1558.8 Q186.977 1555.96 187.966 1554.01 Q188.982 1552.03 188.982 1550.13 Q188.982 1547.03 186.794 1545.08 Q184.633 1543.12 181.143 1543.12 Q178.67 1543.12 175.909 1543.98 Q173.175 1544.84 170.05 1546.59 L170.05 1541.27 Q173.227 1540 175.987 1539.35 Q178.748 1538.7 181.039 1538.7 Q187.081 1538.7 190.675 1541.72 Q194.268 1544.74 194.268 1549.79 Q194.268 1552.19 193.357 1554.35 Q192.472 1556.48 190.102 1559.4 Q189.451 1560.15 185.961 1563.77 Q182.472 1567.37 176.117 1573.85 Z" fill="#000000" fill-rule="nonzero" fill-opacity="1" /><path clip-path="url(#clip960)" d="M216.768 1542.86 Q212.706 1542.86 210.649 1546.87 Q208.617 1550.86 208.617 1558.88 Q208.617 1566.87 210.649 1570.88 Q212.706 1574.87 216.768 1574.87 Q220.857 1574.87 222.888 1570.88 Q224.945 1566.87 224.945 1558.88 Q224.945 1550.86 222.888 1546.87 Q220.857 1542.86 216.768 1542.86 M216.768 1538.7 Q223.305 1538.7 226.742 1543.88 Q230.206 1549.04 230.206 1558.88 Q230.206 1568.7 226.742 1573.88 Q223.305 1579.04 216.768 1579.04 Q210.232 1579.04 206.768 1573.88 Q203.331 1568.7 203.331 1558.88 Q203.331 1549.04 206.768 1543.88 Q210.232 1538.7 216.768 1538.7 Z" fill="#000000" fill-rule="nonzero" fill-opacity="1" /><path clip-path="url(#clip960)" d="M243.982 1573.85 L262.341 1573.85 L262.341 1578.28 L237.654 1578.28 L237.654 1573.85 Q240.648 1570.75 245.805 1565.55 Q250.987 1560.31 252.315 1558.8 Q254.841 1555.96 255.831 1554.01 Q256.846 1552.03 256.846 1550.13 Q256.846 1547.03 254.659 1545.08 Q252.497 1543.12 249.008 1543.12 Q246.534 1543.12 243.773 1543.98 Q241.039 1544.84 237.914 1546.59 L237.914 1541.27 Q241.091 1540 243.851 1539.35 Q246.612 1538.7 248.904 1538.7 Q254.945 1538.7 258.539 1541.72 Q262.133 1544.74 262.133 1549.79 Q262.133 1552.19 261.221 1554.35 Q260.336 1556.48 257.966 1559.4 Q257.315 1560.15 253.825 1563.77 Q250.336 1567.37 243.982 1573.85 Z" fill="#000000" fill-rule="nonzero" fill-opacity="1" /><path clip-path="url(#clip960)" d="M277.914 1573.85 L296.273 1573.85 L296.273 1578.28 L271.586 1578.28 L271.586 1573.85 Q274.58 1570.75 279.737 1565.55 Q284.919 1560.31 286.247 1558.8 Q288.773 1555.96 289.763 1554.01 Q290.778 1552.03 290.778 1550.13 Q290.778 1547.03 288.591 1545.08 Q286.429 1543.12 282.94 1543.12 Q280.466 1543.12 277.705 1543.98 Q274.971 1544.84 271.846 1546.59 L271.846 1541.27 Q275.023 1540 277.784 1539.35 Q280.544 1538.7 282.836 1538.7 Q288.877 1538.7 292.471 1541.72 Q296.065 1544.74 296.065 1549.79 Q296.065 1552.19 295.153 1554.35 Q294.268 1556.48 291.898 1559.4 Q291.247 1560.15 287.757 1563.77 Q284.268 1567.37 277.914 1573.85 Z" fill="#000000" fill-rule="nonzero" fill-opacity="1" /><path clip-path="url(#clip960)" d="M304.216 1561.54 L318.252 1561.54 L318.252 1565.81 L304.216 1565.81 L304.216 1561.54 Z" fill="#000000" fill-rule="nonzero" fill-opacity="1" /><path clip-path="url(#clip960)" d="M337.809 1542.86 Q333.747 1542.86 331.69 1546.87 Q329.658 1550.86 329.658 1558.88 Q329.658 1566.87 331.69 1570.88 Q333.747 1574.87 337.809 1574.87 Q341.898 1574.87 343.929 1570.88 Q345.986 1566.87 345.986 1558.88 Q345.986 1550.86 343.929 1546.87 Q341.898 1542.86 337.809 1542.86 M337.809 1538.7 Q344.346 1538.7 347.783 1543.88 Q351.247 1549.04 351.247 1558.88 Q351.247 1568.7 347.783 1573.88 Q344.346 1579.04 337.809 1579.04 Q331.273 1579.04 327.809 1573.88 Q324.372 1568.7 324.372 1558.88 Q324.372 1549.04 327.809 1543.88 Q331.273 1538.7 337.809 1538.7 Z" fill="#000000" fill-rule="nonzero" fill-opacity="1" /><path clip-path="url(#clip960)" d="M359.163 1539.4 L384.163 1539.4 L384.163 1541.64 L370.049 1578.28 L364.554 1578.28 L377.835 1543.83 L359.163 1543.83 L359.163 1539.4 Z" fill="#000000" fill-rule="nonzero" fill-opacity="1" /><path clip-path="url(#clip960)" d="M391.325 1561.54 L405.361 1561.54 L405.361 1565.81 L391.325 1565.81 L391.325 1561.54 Z" fill="#000000" fill-rule="nonzero" fill-opacity="1" /><path clip-path="url(#clip960)" d="M418.2 1573.85 L436.559 1573.85 L436.559 1578.28 L411.871 1578.28 L411.871 1573.85 Q414.866 1570.75 420.022 1565.55 Q425.205 1560.31 426.533 1558.8 Q429.059 1555.96 430.048 1554.01 Q431.064 1552.03 431.064 1550.13 Q431.064 1547.03 428.877 1545.08 Q426.715 1543.12 423.226 1543.12 Q420.752 1543.12 417.991 1543.98 Q415.257 1544.84 412.132 1546.59 L412.132 1541.27 Q415.309 1540 418.069 1539.35 Q420.83 1538.7 423.121 1538.7 Q429.163 1538.7 432.757 1541.72 Q436.35 1544.74 436.35 1549.79 Q436.35 1552.19 435.439 1554.35 Q434.554 1556.48 432.184 1559.4 Q431.533 1560.15 428.043 1563.77 Q424.554 1567.37 418.2 1573.85 Z" fill="#000000" fill-rule="nonzero" fill-opacity="1" /><path clip-path="url(#clip960)" d="M447.652 1539.4 L468.303 1539.4 L468.303 1543.83 L452.47 1543.83 L452.47 1553.36 Q453.616 1552.97 454.762 1552.79 Q455.908 1552.58 457.053 1552.58 Q463.564 1552.58 467.366 1556.14 Q471.168 1559.71 471.168 1565.81 Q471.168 1572.08 467.262 1575.57 Q463.356 1579.04 456.246 1579.04 Q453.798 1579.04 451.246 1578.62 Q448.72 1578.2 446.012 1577.37 L446.012 1572.08 Q448.356 1573.36 450.856 1573.98 Q453.356 1574.61 456.142 1574.61 Q460.647 1574.61 463.277 1572.24 Q465.908 1569.87 465.908 1565.81 Q465.908 1561.74 463.277 1559.37 Q460.647 1557 456.142 1557 Q454.033 1557 451.923 1557.47 Q449.84 1557.94 447.652 1558.93 L447.652 1539.4 Z" fill="#000000" fill-rule="nonzero" fill-opacity="1" /><path clip-path="url(#clip960)" d="M975.329 1573.85 L993.689 1573.85 L993.689 1578.28 L969.001 1578.28 L969.001 1573.85 Q971.996 1570.75 977.152 1565.55 Q982.335 1560.31 983.663 1558.8 Q986.189 1555.96 987.178 1554.01 Q988.194 1552.03 988.194 1550.13 Q988.194 1547.03 986.006 1545.08 Q983.845 1543.12 980.355 1543.12 Q977.881 1543.12 975.121 1543.98 Q972.387 1544.84 969.262 1546.59 L969.262 1541.27 Q972.439 1540 975.199 1539.35 Q977.96 1538.7 980.251 1538.7 Q986.293 1538.7 989.887 1541.72 Q993.48 1544.74 993.48 1549.79 Q993.48 1552.19 992.569 1554.35 Q991.683 1556.48 989.314 1559.4 Q988.663 1560.15 985.173 1563.77 Q981.683 1567.37 975.329 1573.85 Z" fill="#000000" fill-rule="nonzero" fill-opacity="1" /><path clip-path="url(#clip960)" d="M1015.98 1542.86 Q1011.92 1542.86 1009.86 1546.87 Q1007.83 1550.86 1007.83 1558.88 Q1007.83 1566.87 1009.86 1570.88 Q1011.92 1574.87 1015.98 1574.87 Q1020.07 1574.87 1022.1 1570.88 Q1024.16 1566.87 1024.16 1558.88 Q1024.16 1550.86 1022.1 1546.87 Q1020.07 1542.86 1015.98 1542.86 M1015.98 1538.7 Q1022.52 1538.7 1025.95 1543.88 Q1029.42 1549.04 1029.42 1558.88 Q1029.42 1568.7 1025.95 1573.88 Q1022.52 1579.04 1015.98 1579.04 Q1009.44 1579.04 1005.98 1573.88 Q1002.54 1568.7 1002.54 1558.88 Q1002.54 1549.04 1005.98 1543.88 Q1009.44 1538.7 1015.98 1538.7 Z" fill="#000000" fill-rule="nonzero" fill-opacity="1" /><path clip-path="url(#clip960)" d="M1043.19 1573.85 L1061.55 1573.85 L1061.55 1578.28 L1036.87 1578.28 L1036.87 1573.85 Q1039.86 1570.75 1045.02 1565.55 Q1050.2 1560.31 1051.53 1558.8 Q1054.05 1555.96 1055.04 1554.01 Q1056.06 1552.03 1056.06 1550.13 Q1056.06 1547.03 1053.87 1545.08 Q1051.71 1543.12 1048.22 1543.12 Q1045.75 1543.12 1042.99 1543.98 Q1040.25 1544.84 1037.13 1546.59 L1037.13 1541.27 Q1040.3 1540 1043.06 1539.35 Q1045.82 1538.7 1048.12 1538.7 Q1054.16 1538.7 1057.75 1541.72 Q1061.34 1544.74 1061.34 1549.79 Q1061.34 1552.19 1060.43 1554.35 Q1059.55 1556.48 1057.18 1559.4 Q1056.53 1560.15 1053.04 1563.77 Q1049.55 1567.37 1043.19 1573.85 Z" fill="#000000" fill-rule="nonzero" fill-opacity="1" /><path clip-path="url(#clip960)" d="M1077.13 1573.85 L1095.48 1573.85 L1095.48 1578.28 L1070.8 1578.28 L1070.8 1573.85 Q1073.79 1570.75 1078.95 1565.55 Q1084.13 1560.31 1085.46 1558.8 Q1087.98 1555.96 1088.97 1554.01 Q1089.99 1552.03 1089.99 1550.13 Q1089.99 1547.03 1087.8 1545.08 Q1085.64 1543.12 1082.15 1543.12 Q1079.68 1543.12 1076.92 1543.98 Q1074.18 1544.84 1071.06 1546.59 L1071.06 1541.27 Q1074.24 1540 1077 1539.35 Q1079.76 1538.7 1082.05 1538.7 Q1088.09 1538.7 1091.68 1541.72 Q1095.28 1544.74 1095.28 1549.79 Q1095.28 1552.19 1094.37 1554.35 Q1093.48 1556.48 1091.11 1559.4 Q1090.46 1560.15 1086.97 1563.77 Q1083.48 1567.37 1077.13 1573.85 Z" fill="#000000" fill-rule="nonzero" fill-opacity="1" /><path clip-path="url(#clip960)" d="M1103.43 1561.54 L1117.46 1561.54 L1117.46 1565.81 L1103.43 1565.81 L1103.43 1561.54 Z" fill="#000000" fill-rule="nonzero" fill-opacity="1" /><path clip-path="url(#clip960)" d="M1137.02 1542.86 Q1132.96 1542.86 1130.9 1546.87 Q1128.87 1550.86 1128.87 1558.88 Q1128.87 1566.87 1130.9 1570.88 Q1132.96 1574.87 1137.02 1574.87 Q1141.11 1574.87 1143.14 1570.88 Q1145.2 1566.87 1145.2 1558.88 Q1145.2 1550.86 1143.14 1546.87 Q1141.11 1542.86 1137.02 1542.86 M1137.02 1538.7 Q1143.56 1538.7 1147 1543.88 Q1150.46 1549.04 1150.46 1558.88 Q1150.46 1568.7 1147 1573.88 Q1143.56 1579.04 1137.02 1579.04 Q1130.48 1579.04 1127.02 1573.88 Q1123.58 1568.7 1123.58 1558.88 Q1123.58 1549.04 1127.02 1543.88 Q1130.48 1538.7 1137.02 1538.7 Z" fill="#000000" fill-rule="nonzero" fill-opacity="1" /><path clip-path="url(#clip960)" d="M1158.38 1539.4 L1183.38 1539.4 L1183.38 1541.64 L1169.26 1578.28 L1163.77 1578.28 L1177.05 1543.83 L1158.38 1543.83 L1158.38 1539.4 Z" fill="#000000" fill-rule="nonzero" fill-opacity="1" /><path clip-path="url(#clip960)" d="M1190.54 1561.54 L1204.57 1561.54 L1204.57 1565.81 L1190.54 1565.81 L1190.54 1561.54 Z" fill="#000000" fill-rule="nonzero" fill-opacity="1" /><path clip-path="url(#clip960)" d="M1217.41 1573.85 L1235.77 1573.85 L1235.77 1578.28 L1211.08 1578.28 L1211.08 1573.85 Q1214.08 1570.75 1219.23 1565.55 Q1224.42 1560.31 1225.74 1558.8 Q1228.27 1555.96 1229.26 1554.01 Q1230.28 1552.03 1230.28 1550.13 Q1230.28 1547.03 1228.09 1545.08 Q1225.93 1543.12 1222.44 1543.12 Q1219.96 1543.12 1217.2 1543.98 Q1214.47 1544.84 1211.34 1546.59 L1211.34 1541.27 Q1214.52 1540 1217.28 1539.35 Q1220.04 1538.7 1222.33 1538.7 Q1228.37 1538.7 1231.97 1541.72 Q1235.56 1544.74 1235.56 1549.79 Q1235.56 1552.19 1234.65 1554.35 Q1233.77 1556.48 1231.4 1559.4 Q1230.74 1560.15 1227.26 1563.77 Q1223.77 1567.37 1217.41 1573.85 Z" fill="#000000" fill-rule="nonzero" fill-opacity="1" /><path clip-path="url(#clip960)" d="M1245.48 1539.4 L1270.48 1539.4 L1270.48 1541.64 L1256.37 1578.28 L1250.87 1578.28 L1264.16 1543.83 L1245.48 1543.83 L1245.48 1539.4 Z" fill="#000000" fill-rule="nonzero" fill-opacity="1" /><path clip-path="url(#clip960)" d="M1774.19 1573.85 L1792.55 1573.85 L1792.55 1578.28 L1767.86 1578.28 L1767.86 1573.85 Q1770.86 1570.75 1776.01 1565.55 Q1781.19 1560.31 1782.52 1558.8 Q1785.05 1555.96 1786.04 1554.01 Q1787.05 1552.03 1787.05 1550.13 Q1787.05 1547.03 1784.87 1545.08 Q1782.71 1543.12 1779.22 1543.12 Q1776.74 1543.12 1773.98 1543.98 Q1771.25 1544.84 1768.12 1546.59 L1768.12 1541.27 Q1771.3 1540 1774.06 1539.35 Q1776.82 1538.7 1779.11 1538.7 Q1785.15 1538.7 1788.75 1541.72 Q1792.34 1544.74 1792.34 1549.79 Q1792.34 1552.19 1791.43 1554.35 Q1790.54 1556.48 1788.17 1559.4 Q1787.52 1560.15 1784.03 1563.77 Q1780.54 1567.37 1774.19 1573.85 Z" fill="#000000" fill-rule="nonzero" fill-opacity="1" /><path clip-path="url(#clip960)" d="M1814.84 1542.86 Q1810.78 1542.86 1808.72 1546.87 Q1806.69 1550.86 1806.69 1558.88 Q1806.69 1566.87 1808.72 1570.88 Q1810.78 1574.87 1814.84 1574.87 Q1818.93 1574.87 1820.96 1570.88 Q1823.02 1566.87 1823.02 1558.88 Q1823.02 1550.86 1820.96 1546.87 Q1818.93 1542.86 1814.84 1542.86 M1814.84 1538.7 Q1821.38 1538.7 1824.81 1543.88 Q1828.28 1549.04 1828.28 1558.88 Q1828.28 1568.7 1824.81 1573.88 Q1821.38 1579.04 1814.84 1579.04 Q1808.3 1579.04 1804.84 1573.88 Q1801.4 1568.7 1801.4 1558.88 Q1801.4 1549.04 1804.84 1543.88 Q1808.3 1538.7 1814.84 1538.7 Z" fill="#000000" fill-rule="nonzero" fill-opacity="1" /><path clip-path="url(#clip960)" d="M1842.05 1573.85 L1860.41 1573.85 L1860.41 1578.28 L1835.73 1578.28 L1835.73 1573.85 Q1838.72 1570.75 1843.88 1565.55 Q1849.06 1560.31 1850.39 1558.8 Q1852.91 1555.96 1853.9 1554.01 Q1854.92 1552.03 1854.92 1550.13 Q1854.92 1547.03 1852.73 1545.08 Q1850.57 1543.12 1847.08 1543.12 Q1844.61 1543.12 1841.85 1543.98 Q1839.11 1544.84 1835.99 1546.59 L1835.99 1541.27 Q1839.16 1540 1841.92 1539.35 Q1844.68 1538.7 1846.98 1538.7 Q1853.02 1538.7 1856.61 1541.72 Q1860.2 1544.74 1860.2 1549.79 Q1860.2 1552.19 1859.29 1554.35 Q1858.41 1556.48 1856.04 1559.4 Q1855.39 1560.15 1851.9 1563.77 Q1848.41 1567.37 1842.05 1573.85 Z" fill="#000000" fill-rule="nonzero" fill-opacity="1" /><path clip-path="url(#clip960)" d="M1875.99 1573.85 L1894.35 1573.85 L1894.35 1578.28 L1869.66 1578.28 L1869.66 1573.85 Q1872.65 1570.75 1877.81 1565.55 Q1882.99 1560.31 1884.32 1558.8 Q1886.85 1555.96 1887.83 1554.01 Q1888.85 1552.03 1888.85 1550.13 Q1888.85 1547.03 1886.66 1545.08 Q1884.5 1543.12 1881.01 1543.12 Q1878.54 1543.12 1875.78 1543.98 Q1873.04 1544.84 1869.92 1546.59 L1869.92 1541.27 Q1873.1 1540 1875.86 1539.35 Q1878.62 1538.7 1880.91 1538.7 Q1886.95 1538.7 1890.54 1541.72 Q1894.14 1544.74 1894.14 1549.79 Q1894.14 1552.19 1893.23 1554.35 Q1892.34 1556.48 1889.97 1559.4 Q1889.32 1560.15 1885.83 1563.77 Q1882.34 1567.37 1875.99 1573.85 Z" fill="#000000" fill-rule="nonzero" fill-opacity="1" /><path clip-path="url(#clip960)" d="M1902.29 1561.54 L1916.32 1561.54 L1916.32 1565.81 L1902.29 1565.81 L1902.29 1561.54 Z" fill="#000000" fill-rule="nonzero" fill-opacity="1" /><path clip-path="url(#clip960)" d="M1935.88 1542.86 Q1931.82 1542.86 1929.76 1546.87 Q1927.73 1550.86 1927.73 1558.88 Q1927.73 1566.87 1929.76 1570.88 Q1931.82 1574.87 1935.88 1574.87 Q1939.97 1574.87 1942 1570.88 Q1944.06 1566.87 1944.06 1558.88 Q1944.06 1550.86 1942 1546.87 Q1939.97 1542.86 1935.88 1542.86 M1935.88 1538.7 Q1942.42 1538.7 1945.86 1543.88 Q1949.32 1549.04 1949.32 1558.88 Q1949.32 1568.7 1945.86 1573.88 Q1942.42 1579.04 1935.88 1579.04 Q1929.35 1579.04 1925.88 1573.88 Q1922.44 1568.7 1922.44 1558.88 Q1922.44 1549.04 1925.88 1543.88 Q1929.35 1538.7 1935.88 1538.7 Z" fill="#000000" fill-rule="nonzero" fill-opacity="1" /><path clip-path="url(#clip960)" d="M1957.24 1539.4 L1982.24 1539.4 L1982.24 1541.64 L1968.12 1578.28 L1962.63 1578.28 L1975.91 1543.83 L1957.24 1543.83 L1957.24 1539.4 Z" fill="#000000" fill-rule="nonzero" fill-opacity="1" /><path clip-path="url(#clip960)" d="M1989.4 1561.54 L2003.43 1561.54 L2003.43 1565.81 L1989.4 1565.81 L1989.4 1561.54 Z" fill="#000000" fill-rule="nonzero" fill-opacity="1" /><path clip-path="url(#clip960)" d="M2016.27 1573.85 L2034.63 1573.85 L2034.63 1578.28 L2009.94 1578.28 L2009.94 1573.85 Q2012.94 1570.75 2018.09 1565.55 Q2023.28 1560.31 2024.6 1558.8 Q2027.13 1555.96 2028.12 1554.01 Q2029.14 1552.03 2029.14 1550.13 Q2029.14 1547.03 2026.95 1545.08 Q2024.79 1543.12 2021.3 1543.12 Q2018.82 1543.12 2016.06 1543.98 Q2013.33 1544.84 2010.2 1546.59 L2010.2 1541.27 Q2013.38 1540 2016.14 1539.35 Q2018.9 1538.7 2021.19 1538.7 Q2027.24 1538.7 2030.83 1541.72 Q2034.42 1544.74 2034.42 1549.79 Q2034.42 1552.19 2033.51 1554.35 Q2032.63 1556.48 2030.26 1559.4 Q2029.6 1560.15 2026.12 1563.77 Q2022.63 1567.37 2016.27 1573.85 Z" fill="#000000" fill-rule="nonzero" fill-opacity="1" /><path clip-path="url(#clip960)" d="M2045.83 1577.47 L2045.83 1572.68 Q2047.81 1573.62 2049.84 1574.11 Q2051.87 1574.61 2053.82 1574.61 Q2059.03 1574.61 2061.77 1571.12 Q2064.53 1567.6 2064.92 1560.47 Q2063.41 1562.71 2061.09 1563.9 Q2058.77 1565.1 2055.96 1565.1 Q2050.13 1565.1 2046.71 1561.59 Q2043.33 1558.05 2043.33 1551.93 Q2043.33 1545.94 2046.87 1542.32 Q2050.41 1538.7 2056.3 1538.7 Q2063.04 1538.7 2066.58 1543.88 Q2070.15 1549.04 2070.15 1558.88 Q2070.15 1568.07 2065.78 1573.57 Q2061.43 1579.04 2054.06 1579.04 Q2052.08 1579.04 2050.05 1578.64 Q2048.02 1578.25 2045.83 1577.47 M2056.3 1560.99 Q2059.84 1560.99 2061.9 1558.57 Q2063.98 1556.14 2063.98 1551.93 Q2063.98 1547.73 2061.9 1545.31 Q2059.84 1542.86 2056.3 1542.86 Q2052.76 1542.86 2050.67 1545.31 Q2048.62 1547.73 2048.62 1551.93 Q2048.62 1556.14 2050.67 1558.57 Q2052.76 1560.99 2056.3 1560.99 Z" fill="#000000" fill-rule="nonzero" fill-opacity="1" /><path clip-path="url(#clip960)" d="M2574.04 1573.85 L2592.4 1573.85 L2592.4 1578.28 L2567.71 1578.28 L2567.71 1573.85 Q2570.71 1570.75 2575.86 1565.55 Q2581.04 1560.31 2582.37 1558.8 Q2584.9 1555.96 2585.89 1554.01 Q2586.9 1552.03 2586.9 1550.13 Q2586.9 1547.03 2584.72 1545.08 Q2582.56 1543.12 2579.07 1543.12 Q2576.59 1543.12 2573.83 1543.98 Q2571.1 1544.84 2567.97 1546.59 L2567.97 1541.27 Q2571.15 1540 2573.91 1539.35 Q2576.67 1538.7 2578.96 1538.7 Q2585 1538.7 2588.6 1541.72 Q2592.19 1544.74 2592.19 1549.79 Q2592.19 1552.19 2591.28 1554.35 Q2590.39 1556.48 2588.02 1559.4 Q2587.37 1560.15 2583.88 1563.77 Q2580.39 1567.37 2574.04 1573.85 Z" fill="#000000" fill-rule="nonzero" fill-opacity="1" /><path clip-path="url(#clip960)" d="M2614.69 1542.86 Q2610.63 1542.86 2608.57 1546.87 Q2606.54 1550.86 2606.54 1558.88 Q2606.54 1566.87 2608.57 1570.88 Q2610.63 1574.87 2614.69 1574.87 Q2618.78 1574.87 2620.81 1570.88 Q2622.87 1566.87 2622.87 1558.88 Q2622.87 1550.86 2620.81 1546.87 Q2618.78 1542.86 2614.69 1542.86 M2614.69 1538.7 Q2621.23 1538.7 2624.66 1543.88 Q2628.13 1549.04 2628.13 1558.88 Q2628.13 1568.7 2624.66 1573.88 Q2621.23 1579.04 2614.69 1579.04 Q2608.15 1579.04 2604.69 1573.88 Q2601.25 1568.7 2601.25 1558.88 Q2601.25 1549.04 2604.69 1543.88 Q2608.15 1538.7 2614.69 1538.7 Z" fill="#000000" fill-rule="nonzero" fill-opacity="1" /><path clip-path="url(#clip960)" d="M2641.9 1573.85 L2660.26 1573.85 L2660.26 1578.28 L2635.58 1578.28 L2635.58 1573.85 Q2638.57 1570.75 2643.73 1565.55 Q2648.91 1560.31 2650.24 1558.8 Q2652.76 1555.96 2653.75 1554.01 Q2654.77 1552.03 2654.77 1550.13 Q2654.77 1547.03 2652.58 1545.08 Q2650.42 1543.12 2646.93 1543.12 Q2644.46 1543.12 2641.7 1543.98 Q2638.96 1544.84 2635.84 1546.59 L2635.84 1541.27 Q2639.01 1540 2641.77 1539.35 Q2644.53 1538.7 2646.83 1538.7 Q2652.87 1538.7 2656.46 1541.72 Q2660.05 1544.74 2660.05 1549.79 Q2660.05 1552.19 2659.14 1554.35 Q2658.26 1556.48 2655.89 1559.4 Q2655.24 1560.15 2651.75 1563.77 Q2648.26 1567.37 2641.9 1573.85 Z" fill="#000000" fill-rule="nonzero" fill-opacity="1" /><path clip-path="url(#clip960)" d="M2675.84 1573.85 L2694.2 1573.85 L2694.2 1578.28 L2669.51 1578.28 L2669.51 1573.85 Q2672.5 1570.75 2677.66 1565.55 Q2682.84 1560.31 2684.17 1558.8 Q2686.7 1555.96 2687.68 1554.01 Q2688.7 1552.03 2688.7 1550.13 Q2688.7 1547.03 2686.51 1545.08 Q2684.35 1543.12 2680.86 1543.12 Q2678.39 1543.12 2675.63 1543.98 Q2672.89 1544.84 2669.77 1546.59 L2669.77 1541.27 Q2672.95 1540 2675.71 1539.35 Q2678.47 1538.7 2680.76 1538.7 Q2686.8 1538.7 2690.39 1541.72 Q2693.99 1544.74 2693.99 1549.79 Q2693.99 1552.19 2693.08 1554.35 Q2692.19 1556.48 2689.82 1559.4 Q2689.17 1560.15 2685.68 1563.77 Q2682.19 1567.37 2675.84 1573.85 Z" fill="#000000" fill-rule="nonzero" fill-opacity="1" /><path clip-path="url(#clip960)" d="M2702.14 1561.54 L2716.17 1561.54 L2716.17 1565.81 L2702.14 1565.81 L2702.14 1561.54 Z" fill="#000000" fill-rule="nonzero" fill-opacity="1" /><path clip-path="url(#clip960)" d="M2735.73 1542.86 Q2731.67 1542.86 2729.61 1546.87 Q2727.58 1550.86 2727.58 1558.88 Q2727.58 1566.87 2729.61 1570.88 Q2731.67 1574.87 2735.73 1574.87 Q2739.82 1574.87 2741.85 1570.88 Q2743.91 1566.87 2743.91 1558.88 Q2743.91 1550.86 2741.85 1546.87 Q2739.82 1542.86 2735.73 1542.86 M2735.73 1538.7 Q2742.27 1538.7 2745.71 1543.88 Q2749.17 1549.04 2749.17 1558.88 Q2749.17 1568.7 2745.71 1573.88 Q2742.27 1579.04 2735.73 1579.04 Q2729.19 1579.04 2725.73 1573.88 Q2722.29 1568.7 2722.29 1558.88 Q2722.29 1549.04 2725.73 1543.88 Q2729.19 1538.7 2735.73 1538.7 Z" fill="#000000" fill-rule="nonzero" fill-opacity="1" /><path clip-path="url(#clip960)" d="M2757.09 1539.4 L2782.09 1539.4 L2782.09 1541.64 L2767.97 1578.28 L2762.48 1578.28 L2775.76 1543.83 L2757.09 1543.83 L2757.09 1539.4 Z" fill="#000000" fill-rule="nonzero" fill-opacity="1" /><path clip-path="url(#clip960)" d="M2789.25 1561.54 L2803.28 1561.54 L2803.28 1565.81 L2789.25 1565.81 L2789.25 1561.54 Z" fill="#000000" fill-rule="nonzero" fill-opacity="1" /><path clip-path="url(#clip960)" d="M2827.53 1557.32 Q2831.3 1558.12 2833.41 1560.68 Q2835.55 1563.23 2835.55 1566.98 Q2835.55 1572.73 2831.59 1575.88 Q2827.63 1579.04 2820.34 1579.04 Q2817.89 1579.04 2815.29 1578.54 Q2812.71 1578.07 2809.95 1577.11 L2809.95 1572.03 Q2812.14 1573.31 2814.74 1573.96 Q2817.35 1574.61 2820.18 1574.61 Q2825.13 1574.61 2827.71 1572.65 Q2830.31 1570.7 2830.31 1566.98 Q2830.31 1563.54 2827.89 1561.61 Q2825.5 1559.66 2821.2 1559.66 L2816.67 1559.66 L2816.67 1555.34 L2821.41 1555.34 Q2825.29 1555.34 2827.35 1553.8 Q2829.4 1552.24 2829.4 1549.32 Q2829.4 1546.33 2827.27 1544.74 Q2825.16 1543.12 2821.2 1543.12 Q2819.04 1543.12 2816.56 1543.59 Q2814.09 1544.06 2811.12 1545.05 L2811.12 1540.36 Q2814.12 1539.53 2816.72 1539.11 Q2819.35 1538.7 2821.67 1538.7 Q2827.66 1538.7 2831.15 1541.43 Q2834.64 1544.14 2834.64 1548.77 Q2834.64 1552 2832.79 1554.24 Q2830.94 1556.46 2827.53 1557.32 Z" fill="#000000" fill-rule="nonzero" fill-opacity="1" /><path clip-path="url(#clip960)" d="M2846.43 1573.85 L2855.03 1573.85 L2855.03 1544.19 L2845.68 1546.07 L2845.68 1541.27 L2854.98 1539.4 L2860.24 1539.4 L2860.24 1573.85 L2868.83 1573.85 L2868.83 1578.28 L2846.43 1578.28 L2846.43 1573.85 Z" fill="#000000" fill-rule="nonzero" fill-opacity="1" /><polyline clip-path="url(#clip962)" style="stroke:#000000; stroke-linecap:round; stroke-linejoin:round; stroke-width:2; stroke-opacity:0.1; fill:none" points="237.055,1417.67 3184.67,1417.67 "/>
<polyline clip-path="url(#clip962)" style="stroke:#000000; stroke-linecap:round; stroke-linejoin:round; stroke-width:2; stroke-opacity:0.1; fill:none" points="237.055,1108.79 3184.67,1108.79 "/>
<polyline clip-path="url(#clip962)" style="stroke:#000000; stroke-linecap:round; stroke-linejoin:round; stroke-width:2; stroke-opacity:0.1; fill:none" points="237.055,799.905 3184.67,799.905 "/>
<polyline clip-path="url(#clip962)" style="stroke:#000000; stroke-linecap:round; stroke-linejoin:round; stroke-width:2; stroke-opacity:0.1; fill:none" points="237.055,491.024 3184.67,491.024 "/>
<polyline clip-path="url(#clip962)" style="stroke:#000000; stroke-linecap:round; stroke-linejoin:round; stroke-width:2; stroke-opacity:0.1; fill:none" points="237.055,182.143 3184.67,182.143 "/>
<polyline clip-path="url(#clip960)" style="stroke:#000000; stroke-linecap:round; stroke-linejoin:round; stroke-width:4; stroke-opacity:1; fill:none" points="237.055,1497.68 237.055,47.2441 "/>
<polyline clip-path="url(#clip960)" style="stroke:#000000; stroke-linecap:round; stroke-linejoin:round; stroke-width:4; stroke-opacity:1; fill:none" points="237.055,1417.67 252.047,1417.67 "/>
<polyline clip-path="url(#clip960)" style="stroke:#000000; stroke-linecap:round; stroke-linejoin:round; stroke-width:4; stroke-opacity:1; fill:none" points="237.055,1108.79 252.047,1108.79 "/>
<polyline clip-path="url(#clip960)" style="stroke:#000000; stroke-linecap:round; stroke-linejoin:round; stroke-width:4; stroke-opacity:1; fill:none" points="237.055,799.905 252.047,799.905 "/>
<polyline clip-path="url(#clip960)" style="stroke:#000000; stroke-linecap:round; stroke-linejoin:round; stroke-width:4; stroke-opacity:1; fill:none" points="237.055,491.024 252.047,491.024 "/>
<polyline clip-path="url(#clip960)" style="stroke:#000000; stroke-linecap:round; stroke-linejoin:round; stroke-width:4; stroke-opacity:1; fill:none" points="237.055,182.143 252.047,182.143 "/>
<path clip-path="url(#clip960)" d="M130.337 1415.57 Q126.795 1415.57 124.712 1417.99 Q122.655 1420.42 122.655 1424.63 Q122.655 1428.83 124.712 1431.27 Q126.795 1433.7 130.337 1433.7 Q133.879 1433.7 135.936 1431.27 Q138.019 1428.83 138.019 1424.63 Q138.019 1420.42 135.936 1417.99 Q133.879 1415.57 130.337 1415.57 M140.78 1399.09 L140.78 1403.88 Q138.8 1402.94 136.769 1402.45 Q134.764 1401.95 132.785 1401.95 Q127.577 1401.95 124.816 1405.47 Q122.082 1408.98 121.691 1416.09 Q123.228 1413.83 125.545 1412.63 Q127.863 1411.4 130.649 1411.4 Q136.509 1411.4 139.894 1414.97 Q143.306 1418.51 143.306 1424.63 Q143.306 1430.62 139.764 1434.24 Q136.222 1437.86 130.337 1437.86 Q123.592 1437.86 120.025 1432.71 Q116.457 1427.52 116.457 1417.71 Q116.457 1408.49 120.832 1403.02 Q125.207 1397.52 132.577 1397.52 Q134.556 1397.52 136.561 1397.92 Q138.592 1398.31 140.78 1399.09 Z" fill="#000000" fill-rule="nonzero" fill-opacity="1" /><path clip-path="url(#clip960)" d="M163.618 1401.69 Q159.556 1401.69 157.498 1405.7 Q155.467 1409.69 155.467 1417.71 Q155.467 1425.7 157.498 1429.71 Q159.556 1433.7 163.618 1433.7 Q167.707 1433.7 169.738 1429.71 Q171.795 1425.7 171.795 1417.71 Q171.795 1409.69 169.738 1405.7 Q167.707 1401.69 163.618 1401.69 M163.618 1397.52 Q170.154 1397.52 173.592 1402.71 Q177.055 1407.86 177.055 1417.71 Q177.055 1427.52 173.592 1432.71 Q170.154 1437.86 163.618 1437.86 Q157.082 1437.86 153.618 1432.71 Q150.181 1427.52 150.181 1417.71 Q150.181 1407.86 153.618 1402.71 Q157.082 1397.52 163.618 1397.52 Z" fill="#000000" fill-rule="nonzero" fill-opacity="1" /><path clip-path="url(#clip960)" d="M117.108 1089.35 L142.108 1089.35 L142.108 1091.59 L127.993 1128.23 L122.498 1128.23 L135.78 1093.77 L117.108 1093.77 L117.108 1089.35 Z" fill="#000000" fill-rule="nonzero" fill-opacity="1" /><path clip-path="url(#clip960)" d="M163.618 1092.81 Q159.556 1092.81 157.498 1096.82 Q155.467 1100.8 155.467 1108.83 Q155.467 1116.82 157.498 1120.83 Q159.556 1124.82 163.618 1124.82 Q167.707 1124.82 169.738 1120.83 Q171.795 1116.82 171.795 1108.83 Q171.795 1100.8 169.738 1096.82 Q167.707 1092.81 163.618 1092.81 M163.618 1088.64 Q170.154 1088.64 173.592 1093.83 Q177.055 1098.98 177.055 1108.83 Q177.055 1118.64 173.592 1123.83 Q170.154 1128.98 163.618 1128.98 Q157.082 1128.98 153.618 1123.83 Q150.181 1118.64 150.181 1108.83 Q150.181 1098.98 153.618 1093.83 Q157.082 1088.64 163.618 1088.64 Z" fill="#000000" fill-rule="nonzero" fill-opacity="1" /><path clip-path="url(#clip960)" d="M129.686 800.882 Q125.936 800.882 123.775 802.887 Q121.639 804.892 121.639 808.408 Q121.639 811.924 123.775 813.929 Q125.936 815.934 129.686 815.934 Q133.436 815.934 135.597 813.929 Q137.759 811.898 137.759 808.408 Q137.759 804.892 135.597 802.887 Q133.462 800.882 129.686 800.882 M124.426 798.642 Q121.04 797.809 119.139 795.491 Q117.264 793.174 117.264 789.84 Q117.264 785.179 120.571 782.471 Q123.905 779.762 129.686 779.762 Q135.493 779.762 138.8 782.471 Q142.108 785.179 142.108 789.84 Q142.108 793.174 140.207 795.491 Q138.332 797.809 134.972 798.642 Q138.774 799.528 140.884 802.106 Q143.019 804.684 143.019 808.408 Q143.019 814.059 139.556 817.08 Q136.118 820.101 129.686 820.101 Q123.254 820.101 119.79 817.08 Q116.353 814.059 116.353 808.408 Q116.353 804.684 118.488 802.106 Q120.624 799.528 124.426 798.642 M122.498 790.335 Q122.498 793.356 124.373 795.049 Q126.275 796.741 129.686 796.741 Q133.071 796.741 134.972 795.049 Q136.899 793.356 136.899 790.335 Q136.899 787.314 134.972 785.622 Q133.071 783.929 129.686 783.929 Q126.275 783.929 124.373 785.622 Q122.498 787.314 122.498 790.335 Z" fill="#000000" fill-rule="nonzero" fill-opacity="1" /><path clip-path="url(#clip960)" d="M163.618 783.929 Q159.556 783.929 157.498 787.939 Q155.467 791.924 155.467 799.944 Q155.467 807.939 157.498 811.95 Q159.556 815.934 163.618 815.934 Q167.707 815.934 169.738 811.95 Q171.795 807.939 171.795 799.944 Q171.795 791.924 169.738 787.939 Q167.707 783.929 163.618 783.929 M163.618 779.762 Q170.154 779.762 173.592 784.945 Q177.055 790.101 177.055 799.944 Q177.055 809.762 173.592 814.944 Q170.154 820.101 163.618 820.101 Q157.082 820.101 153.618 814.944 Q150.181 809.762 150.181 799.944 Q150.181 790.101 153.618 784.945 Q157.082 779.762 163.618 779.762 Z" fill="#000000" fill-rule="nonzero" fill-opacity="1" /><path clip-path="url(#clip960)" d="M118.592 509.657 L118.592 504.865 Q120.571 505.803 122.603 506.298 Q124.634 506.792 126.587 506.792 Q131.795 506.792 134.53 503.303 Q137.29 499.787 137.681 492.652 Q136.17 494.891 133.853 496.089 Q131.535 497.287 128.722 497.287 Q122.889 497.287 119.478 493.772 Q116.092 490.23 116.092 484.11 Q116.092 478.121 119.634 474.501 Q123.176 470.881 129.061 470.881 Q135.806 470.881 139.347 476.063 Q142.915 481.22 142.915 491.063 Q142.915 500.256 138.54 505.751 Q134.191 511.219 126.821 511.219 Q124.842 511.219 122.811 510.829 Q120.78 510.438 118.592 509.657 M129.061 493.173 Q132.603 493.173 134.66 490.751 Q136.743 488.329 136.743 484.11 Q136.743 479.918 134.66 477.496 Q132.603 475.048 129.061 475.048 Q125.519 475.048 123.436 477.496 Q121.379 479.918 121.379 484.11 Q121.379 488.329 123.436 490.751 Q125.519 493.173 129.061 493.173 Z" fill="#000000" fill-rule="nonzero" fill-opacity="1" /><path clip-path="url(#clip960)" d="M163.618 475.048 Q159.556 475.048 157.498 479.058 Q155.467 483.043 155.467 491.063 Q155.467 499.058 157.498 503.068 Q159.556 507.053 163.618 507.053 Q167.707 507.053 169.738 503.068 Q171.795 499.058 171.795 491.063 Q171.795 483.043 169.738 479.058 Q167.707 475.048 163.618 475.048 M163.618 470.881 Q170.154 470.881 173.592 476.063 Q177.055 481.22 177.055 491.063 Q177.055 500.881 173.592 506.063 Q170.154 511.219 163.618 511.219 Q157.082 511.219 153.618 506.063 Q150.181 500.881 150.181 491.063 Q150.181 481.22 153.618 476.063 Q157.082 470.881 163.618 470.881 Z" fill="#000000" fill-rule="nonzero" fill-opacity="1" /><path clip-path="url(#clip960)" d="M85.4154 197.156 L94.0091 197.156 L94.0091 167.495 L84.6602 169.37 L84.6602 164.578 L93.957 162.703 L99.2174 162.703 L99.2174 197.156 L107.811 197.156 L107.811 201.583 L85.4154 201.583 L85.4154 197.156 Z" fill="#000000" fill-rule="nonzero" fill-opacity="1" /><path clip-path="url(#clip960)" d="M129.686 166.167 Q125.623 166.167 123.566 170.177 Q121.535 174.161 121.535 182.182 Q121.535 190.177 123.566 194.187 Q125.623 198.172 129.686 198.172 Q133.774 198.172 135.806 194.187 Q137.863 190.177 137.863 182.182 Q137.863 174.161 135.806 170.177 Q133.774 166.167 129.686 166.167 M129.686 162 Q136.222 162 139.66 167.182 Q143.123 172.339 143.123 182.182 Q143.123 192 139.66 197.182 Q136.222 202.338 129.686 202.338 Q123.15 202.338 119.686 197.182 Q116.249 192 116.249 182.182 Q116.249 172.339 119.686 167.182 Q123.15 162 129.686 162 Z" fill="#000000" fill-rule="nonzero" fill-opacity="1" /><path clip-path="url(#clip960)" d="M163.618 166.167 Q159.556 166.167 157.498 170.177 Q155.467 174.161 155.467 182.182 Q155.467 190.177 157.498 194.187 Q159.556 198.172 163.618 198.172 Q167.707 198.172 169.738 194.187 Q171.795 190.177 171.795 182.182 Q171.795 174.161 169.738 170.177 Q167.707 166.167 163.618 166.167 M163.618 162 Q170.154 162 173.592 167.182 Q177.055 172.339 177.055 182.182 Q177.055 192 173.592 197.182 Q170.154 202.338 163.618 202.338 Q157.082 202.338 153.618 197.182 Q150.181 192 150.181 182.182 Q150.181 172.339 153.618 167.182 Q157.082 162 163.618 162 Z" fill="#000000" fill-rule="nonzero" fill-opacity="1" /><path clip-path="url(#clip960)" d="M-31.4998 930.013 L-31.4998 924.168 L11.7002 924.168 L11.7002 930.013 L-31.4998 930.013 Z" fill="#000000" fill-rule="nonzero" fill-opacity="1" /><path clip-path="url(#clip960)" d="M-7.85992 885.829 L11.7002 885.829 L11.7002 891.153 L-7.68631 891.153 Q-12.287 891.153 -14.5728 892.947 Q-16.8587 894.741 -16.8587 898.329 Q-16.8587 902.641 -14.1099 905.129 Q-11.3611 907.618 -6.61572 907.618 L11.7002 907.618 L11.7002 912.97 L-20.7071 912.97 L-20.7071 907.618 L-15.6724 907.618 Q-18.5948 905.708 -20.0416 903.133 Q-21.4883 900.528 -21.4883 897.143 Q-21.4883 891.559 -18.0161 888.694 Q-14.5728 885.829 -7.85992 885.829 Z" fill="#000000" fill-rule="nonzero" fill-opacity="1" /><path clip-path="url(#clip960)" d="M-33.3227 858.804 L-28.8957 858.804 L-28.8957 863.897 Q-28.8957 866.761 -27.7383 867.89 Q-26.5809 868.989 -23.5716 868.989 L-20.7071 868.989 L-20.7071 860.222 L-16.5694 860.222 L-16.5694 868.989 L11.7002 868.989 L11.7002 874.342 L-16.5694 874.342 L-16.5694 879.435 L-20.7071 879.435 L-20.7071 874.342 L-22.964 874.342 Q-28.3749 874.342 -30.8343 871.825 Q-33.3227 869.308 -33.3227 863.839 L-33.3227 858.804 Z" fill="#000000" fill-rule="nonzero" fill-opacity="1" /><path clip-path="url(#clip960)" d="M-33.3227 854.348 L-33.3227 849.024 L11.7002 849.024 L11.7002 854.348 L-33.3227 854.348 Z" fill="#000000" fill-rule="nonzero" fill-opacity="1" /><path clip-path="url(#clip960)" d="M-16.9745 825.326 Q-16.9745 829.609 -13.618 832.097 Q-10.2905 834.585 -4.47452 834.585 Q1.34142 834.585 4.69788 832.126 Q8.02541 829.638 8.02541 825.326 Q8.02541 821.073 4.66895 818.584 Q1.31248 816.096 -4.47452 816.096 Q-10.2326 816.096 -13.5891 818.584 Q-16.9745 821.073 -16.9745 825.326 M-21.4883 825.326 Q-21.4883 818.382 -16.9745 814.418 Q-12.4606 810.454 -4.47452 810.454 Q3.48261 810.454 8.02541 814.418 Q12.5393 818.382 12.5393 825.326 Q12.5393 832.3 8.02541 836.264 Q3.48261 840.199 -4.47452 840.199 Q-12.4606 840.199 -16.9745 836.264 Q-21.4883 832.3 -21.4883 825.326 Z" fill="#000000" fill-rule="nonzero" fill-opacity="1" /><path clip-path="url(#clip960)" d="M-20.7071 804.725 L-20.7071 799.4 L4.58214 792.745 L-20.7071 786.119 L-20.7071 779.84 L4.58214 773.185 L-20.7071 766.559 L-20.7071 761.235 L11.7002 769.713 L11.7002 775.992 L-14.8622 782.965 L11.7002 789.968 L11.7002 796.247 L-20.7071 804.725 Z" fill="#000000" fill-rule="nonzero" fill-opacity="1" /><path clip-path="url(#clip960)" d="M-33.3227 734.818 L-33.3227 722.549 L-29.185 722.549 L-29.185 729.493 L15.3749 729.493 L15.3749 722.549 L19.5126 722.549 L19.5126 734.818 L-33.3227 734.818 Z" fill="#000000" fill-rule="nonzero" fill-opacity="1" /><path clip-path="url(#clip960)" d="M-31.4998 710.975 L-31.4998 705.13 L6.7812 705.13 L6.7812 684.094 L11.7002 684.094 L11.7002 710.975 L-31.4998 710.975 Z" fill="#000000" fill-rule="nonzero" fill-opacity="1" /><path clip-path="url(#clip960)" d="M-31.4998 668.73 L-31.4998 663.811 L17.1978 678.857 L17.1978 683.776 L-31.4998 668.73 Z" fill="#000000" fill-rule="nonzero" fill-opacity="1" /><path clip-path="url(#clip960)" d="M-19.7522 637.567 L-14.7175 637.567 Q-15.8749 639.824 -16.4536 642.254 Q-17.0323 644.685 -17.0323 647.289 Q-17.0323 651.253 -15.8171 653.25 Q-14.6018 655.217 -12.1712 655.217 Q-10.3194 655.217 -9.2488 653.799 Q-8.20714 652.382 -7.25229 648.099 L-6.8472 646.276 Q-5.63193 640.605 -3.40393 638.232 Q-1.20487 635.831 2.75923 635.831 Q7.2731 635.831 9.90619 639.419 Q12.5393 642.978 12.5393 649.228 Q12.5393 651.832 12.0184 654.667 Q11.5265 657.474 10.5138 660.599 L5.01617 660.599 Q6.54972 657.648 7.33097 654.783 Q8.08328 651.919 8.08328 649.112 Q8.08328 645.35 6.81014 643.325 Q5.50806 641.299 3.16432 641.299 Q0.994196 641.299 -0.163205 642.775 Q-1.32061 644.222 -2.3912 649.17 L-2.82523 651.022 Q-3.86689 655.97 -6.00808 658.169 Q-8.17821 660.368 -11.9398 660.368 Q-16.5115 660.368 -18.9999 657.127 Q-21.4883 653.886 -21.4883 647.926 Q-21.4883 644.974 -21.0543 642.37 Q-20.6203 639.766 -19.7522 637.567 Z" fill="#000000" fill-rule="nonzero" fill-opacity="1" /><path clip-path="url(#clip960)" d="M-33.3227 614.911 L19.5126 614.911 L19.5126 627.179 L15.3749 627.179 L15.3749 620.264 L-29.185 620.264 L-29.185 627.179 L-33.3227 627.179 L-33.3227 614.911 Z" fill="#000000" fill-rule="nonzero" fill-opacity="1" /><polyline clip-path="url(#clip962)" style="stroke:#023eff; stroke-linecap:round; stroke-linejoin:round; stroke-width:5; stroke-opacity:1; fill:none" points="320.479,1281.96 337.13,1283.41 353.781,1367.94 370.433,1367.94 387.084,1367.94 403.735,1283.41 420.387,821.477 437.038,235.763 453.689,235.763 470.341,339.008 486.992,530.906 503.643,585.445 520.295,585.445 536.946,585.445 553.597,763.196 570.249,725.774 586.9,715.998 603.551,643.862 620.203,639.015 636.854,402.392 653.505,402.392 670.157,505.229 686.808,715.998 703.459,951.99 720.111,1256.26 736.762,1340.14 753.413,1434.29 770.065,1434.29 786.716,1340.14 803.367,1256.26 820.019,1197.28 836.67,88.2942 853.321,191.797 869.973,342.808 886.624,537.501 903.275,644.328 919.927,598.907 936.578,598.907 953.229,717.067 969.881,759.287 986.532,759.287 1003.18,759.287 1019.83,598.907 1036.49,443.519 1053.14,443.519 1069.79,483.164 1086.44,823.972 1103.09,981.337 1119.74,1256.26 1136.39,1432.68 1153.05,1432.68 1169.7,1432.68 1186.35,1432.68 1203,1256.26 1219.65,828.286 1236.3,191.797 1252.95,191.797 1269.6,342.808 1286.26,537.501 1302.91,598.907 1319.56,598.907 1336.21,598.907 1352.86,717.067 1369.51,598.907 1386.16,671.495 1402.82,598.907 1419.47,671.495 1436.12,443.519 1452.77,443.519 1469.42,483.164 1486.07,823.972 1502.72,981.337 1519.37,1256.26 1536.03,1323 1552.68,1432.68 1569.33,1432.68 1585.98,1323 1602.63,1256.26 1619.28,828.286 1635.93,191.797 1652.59,191.797 1669.24,342.808 1685.89,537.501 1702.54,598.907 1719.19,598.907 1735.84,598.907 1752.49,759.287 1769.14,759.287 1785.8,759.287 1802.45,717.067 1819.1,671.495 1835.75,443.519 1852.4,443.519 1869.05,443.519 1885.7,823.972 1902.36,981.337 1919.01,1256.26 1935.66,1323 1952.31,1432.68 1968.96,1432.68 1985.61,1432.68 2002.26,1256.26 2018.91,1197.28 2035.57,191.797 2052.22,88.2942 2068.87,342.808 2085.52,537.501 2102.17,598.907 2118.82,598.907 2135.47,598.907 2152.13,717.067 2168.78,759.287 2185.43,717.067 2202.08,598.907 2218.73,671.495 2235.38,443.519 2252.03,443.519 2268.68,598.907 2285.34,823.972 2301.99,981.337 2318.64,1256.26 2335.29,1256.26 2351.94,1323 2368.59,1322.55 2385.24,1322.55 2401.9,1322.55 2418.55,819.571 2435.2,537.501 2451.85,342.808 2468.5,191.797 2485.15,342.808 2501.8,425.126 2518.45,425.126 2535.11,644.328 2551.76,717.067 2568.41,759.287 2585.06,759.287 2601.71,717.067 2618.36,671.495 2635.01,443.519 2651.67,443.519 2668.32,598.907 2684.97,823.972 2701.62,981.337 2718.27,1256.26 2734.92,1256.26 2751.57,1369.23 2768.22,1369.23 2784.88,1369.23 2801.53,1256.26 2818.18,1234.46 2834.83,792.356 2851.48,342.808 2868.13,191.797 2884.78,191.797 2901.44,425.126 2918.09,425.126 2934.74,598.907 2951.39,759.287 2968.04,759.287 2984.69,717.067 3001.34,717.067 3017.99,671.495 3034.65,443.519 3051.3,443.519 3067.95,443.519 3084.6,823.972 3101.25,1068.17 "/>
<polyline clip-path="url(#clip962)" style="stroke:#ff7c00; stroke-linecap:round; stroke-linejoin:round; stroke-width:5; stroke-opacity:1; fill:none" points="320.479,1184.52 337.13,1375.79 353.781,1375.79 370.433,1440.8 387.084,1375.79 403.735,1261.73 420.387,819.22 437.038,140.519 453.689,140.519 470.341,378.446 486.992,537.468 503.643,609.156 520.295,609.156 536.946,609.156 553.597,740.33 570.249,757.223 586.9,757.223 603.551,662.7 620.203,537.468 636.854,378.446 653.505,378.446 670.157,482.134 686.808,757.223 703.459,879.594 720.111,1225.22 736.762,1361.76 753.413,1361.76 770.065,1361.76 786.716,1361.76 803.367,1225.22 820.019,784.562 836.67,99.8566 853.321,189.134 869.973,348.367 886.624,531.513 903.275,630.182 919.927,630.182 936.578,531.513 953.229,694.92 969.881,784.562 986.532,784.562 1003.18,784.562 1019.83,630.182 1036.49,531.513 1053.14,435.813 1069.79,531.513 1086.44,784.562 1103.09,869.562 1119.74,1225.22 1136.39,1361.76 1153.05,1442.57 1169.7,1442.57 1186.35,1361.76 1203,1225.22 1219.65,784.562 1236.3,189.134 1252.95,189.134 1269.6,348.367 1286.26,531.513 1302.91,630.182 1319.56,630.182 1336.21,630.182 1352.86,694.92 1369.51,531.513 1386.16,531.513 1402.82,531.513 1419.47,531.513 1436.12,435.813 1452.77,435.813 1469.42,531.513 1486.07,784.562 1502.72,1004.85 1519.37,1225.22 1536.03,1361.76 1552.68,1442.57 1569.33,1442.57 1585.98,1361.76 1602.63,1225.22 1619.28,784.562 1635.93,189.134 1652.59,189.134 1669.24,348.367 1685.89,531.513 1702.54,630.182 1719.19,630.182 1735.84,630.182 1752.49,784.562 1769.14,784.562 1785.8,784.562 1802.45,694.92 1819.1,531.513 1835.75,435.813 1852.4,435.813 1869.05,531.513 1885.7,784.562 1902.36,1004.85 1919.01,1225.22 1935.66,1361.76 1952.31,1442.57 1968.96,1361.76 1985.61,1361.76 2002.26,1225.22 2018.91,784.562 2035.57,189.134 2052.22,99.8566 2068.87,348.367 2085.52,531.513 2102.17,531.513 2118.82,630.182 2135.47,630.182 2152.13,694.92 2168.78,784.562 2185.43,694.92 2202.08,630.182 2218.73,531.513 2235.38,435.813 2252.03,435.813 2268.68,630.182 2285.34,869.562 2301.99,1004.85 2318.64,1225.22 2335.29,1361.76 2351.94,1361.76 2368.59,1361.76 2385.24,1361.76 2401.9,1225.22 2418.55,1004.85 2435.2,630.182 2451.85,348.367 2468.5,189.134 2485.15,348.367 2501.8,531.513 2518.45,531.513 2535.11,630.182 2551.76,694.92 2568.41,784.562 2585.06,784.562 2601.71,694.92 2618.36,531.513 2635.01,435.813 2651.67,531.513 2668.32,630.182 2684.97,869.562 2701.62,1004.85 2718.27,1137.67 2734.92,1225.22 2751.57,1361.76 2768.22,1361.76 2784.88,1361.76 2801.53,1361.76 2818.18,1004.85 2834.83,784.562 2851.48,348.367 2868.13,189.134 2884.78,189.134 2901.44,348.367 2918.09,531.513 2934.74,531.513 2951.39,784.562 2968.04,784.562 2984.69,694.92 3001.34,694.92 3017.99,531.513 3034.65,435.813 3051.3,435.813 3067.95,531.513 3084.6,694.92 3101.25,869.562 "/>
<polyline clip-path="url(#clip962)" style="stroke:#1ac938; stroke-linecap:round; stroke-linejoin:round; stroke-width:5; stroke-opacity:1; fill:none" points="320.479,1249.57 337.13,1280.74 353.781,1391.32 370.433,1391.32 387.084,1280.74 403.735,1280.74 420.387,754.108 437.038,141.272 453.689,141.272 470.341,374.628 486.992,442.298 503.643,614.553 520.295,555.004 536.946,614.553 553.597,754.108 570.249,754.108 586.9,754.108 603.551,626.331 620.203,555.004 636.854,374.628 653.505,277.526 670.157,442.298 686.808,754.108 703.459,977.773 720.111,1238.85 736.762,1306.82 753.413,1406.08 770.065,1406.08 786.716,1306.82 803.367,1238.85 820.019,752.698 836.67,141.272 853.321,141.272 869.973,365.039 886.624,544.139 903.275,544.139 919.927,634.033 936.578,607.884 953.229,752.698 969.881,752.698 986.532,752.698 1003.18,752.698 1019.83,634.033 1036.49,482.855 1053.14,414.887 1069.79,482.855 1086.44,752.698 1103.09,977.773 1119.74,1238.85 1136.39,1406.08 1153.05,1406.08 1169.7,1456.63 1186.35,1406.08 1203,1306.82 1219.65,831.241 1236.3,262.684 1252.95,262.684 1269.6,365.039 1286.26,544.139 1302.91,544.139 1319.56,607.884 1336.21,607.884 1352.86,752.698 1369.51,607.884 1386.16,607.884 1402.82,607.884 1419.47,607.884 1436.12,414.887 1452.77,414.887 1469.42,482.855 1486.07,752.698 1502.72,1012.06 1519.37,1238.85 1536.03,1306.82 1552.68,1406.08 1569.33,1406.08 1585.98,1306.82 1602.63,1238.85 1619.28,831.241 1635.93,262.684 1652.59,262.684 1669.24,365.039 1685.89,544.139 1702.54,634.033 1719.19,607.884 1735.84,607.884 1752.49,752.698 1769.14,752.698 1785.8,752.698 1802.45,752.698 1819.1,607.884 1835.75,414.887 1852.4,414.887 1869.05,482.855 1885.7,752.698 1902.36,977.773 1919.01,1238.85 1935.66,1306.82 1952.31,1406.08 1968.96,1406.08 1985.61,1406.08 2002.26,1238.85 2018.91,752.698 2035.57,141.272 2052.22,141.272 2068.87,365.039 2085.52,544.139 2102.17,544.139 2118.82,634.033 2135.47,607.884 2152.13,634.033 2168.78,752.698 2185.43,634.033 2202.08,634.033 2218.73,607.884 2235.38,414.887 2252.03,414.887 2268.68,482.855 2285.34,752.698 2301.99,1012.06 2318.64,1238.85 2335.29,1306.82 2351.94,1306.82 2368.59,1306.82 2385.24,1306.82 2401.9,1238.85 2418.55,863.281 2435.2,544.139 2451.85,365.039 2468.5,277.526 2485.15,365.039 2501.8,544.139 2518.45,607.884 2535.11,607.884 2551.76,831.241 2568.41,752.698 2585.06,752.698 2601.71,634.033 2618.36,607.884 2635.01,414.887 2651.67,414.887 2668.32,634.033 2684.97,752.698 2701.62,977.773 2718.27,1238.85 2734.92,1238.85 2751.57,1306.82 2768.22,1306.82 2784.88,1306.82 2801.53,1306.82 2818.18,1012.06 2834.83,831.241 2851.48,365.039 2868.13,277.526 2884.78,277.526 2901.44,414.887 2918.09,607.884 2934.74,607.884 2951.39,752.698 2968.04,752.698 2984.69,752.698 3001.34,634.033 3017.99,607.884 3034.65,414.887 3051.3,414.887 3067.95,414.887 3084.6,752.698 3101.25,977.773 "/>
<polyline clip-path="url(#clip962)" style="stroke:#e8000b; stroke-linecap:round; stroke-linejoin:round; stroke-width:5; stroke-opacity:1; fill:none" points="320.479,1253.32 337.13,1253.32 353.781,1400.17 370.433,1400.17 387.084,1253.32 403.735,1253.32 420.387,749.627 437.038,155.631 453.689,155.631 470.341,155.631 486.992,375.22 503.643,600.199 520.295,600.199 536.946,600.199 553.597,749.627 570.249,749.627 586.9,749.627 603.551,600.199 620.203,515.257 636.854,375.22 653.505,155.631 670.157,375.22 686.808,749.627 703.459,995.08 720.111,1253.32 736.762,1253.32 753.413,1400.17 770.065,1400.17 786.716,1253.32 803.367,1253.32 820.019,749.627 836.67,155.631 853.321,155.631 869.973,375.22 886.624,515.257 903.275,600.199 919.927,600.199 936.578,515.257 953.229,749.627 969.881,749.627 986.532,749.627 1003.18,749.627 1019.83,600.199 1036.49,375.22 1053.14,375.22 1069.79,515.257 1086.44,749.627 1103.09,749.627 1119.74,1253.32 1136.39,1253.32 1153.05,1400.17 1169.7,1400.17 1186.35,1400.17 1203,1253.32 1219.65,749.627 1236.3,155.631 1252.95,155.631 1269.6,375.22 1286.26,515.257 1302.91,600.199 1319.56,600.199 1336.21,600.199 1352.86,749.627 1369.51,515.257 1386.16,515.257 1402.82,515.257 1419.47,375.22 1436.12,375.22 1452.77,375.22 1469.42,515.257 1486.07,749.627 1502.72,995.08 1519.37,1253.32 1536.03,1253.32 1552.68,1400.17 1569.33,1400.17 1585.98,1253.32 1602.63,1253.32 1619.28,749.627 1635.93,155.631 1652.59,155.631 1669.24,375.22 1685.89,515.257 1702.54,600.199 1719.19,600.199 1735.84,600.199 1752.49,749.627 1769.14,749.627 1785.8,749.627 1802.45,600.199 1819.1,515.257 1835.75,375.22 1852.4,375.22 1869.05,375.22 1885.7,749.627 1902.36,995.08 1919.01,1253.32 1935.66,1253.32 1952.31,1400.17 1968.96,1400.17 1985.61,1400.17 2002.26,1253.32 2018.91,749.627 2035.57,155.631 2052.22,155.631 2068.87,155.631 2085.52,375.22 2102.17,515.257 2118.82,600.199 2135.47,600.199 2152.13,600.199 2168.78,749.627 2185.43,600.199 2202.08,600.199 2218.73,515.257 2235.38,375.22 2252.03,375.22 2268.68,600.199 2285.34,749.627 2301.99,995.08 2318.64,1253.32 2335.29,1253.32 2351.94,1253.32 2368.59,1253.32 2385.24,1253.32 2401.9,1253.32 2418.55,995.08 2435.2,600.199 2451.85,155.631 2468.5,155.631 2485.15,155.631 2501.8,375.22 2518.45,515.257 2535.11,600.199 2551.76,749.627 2568.41,749.627 2585.06,749.627 2601.71,600.199 2618.36,515.257 2635.01,375.22 2651.67,375.22 2668.32,600.199 2684.97,749.627 2701.62,995.08 2718.27,1253.32 2734.92,1253.32 2751.57,1253.32 2768.22,1253.32 2784.88,1253.32 2801.53,1253.32 2818.18,995.08 2834.83,749.627 2851.48,375.22 2868.13,155.631 2884.78,155.631 2901.44,375.22 2918.09,375.22 2934.74,515.257 2951.39,749.627 2968.04,749.627 2984.69,749.627 3001.34,600.199 3017.99,515.257 3034.65,375.22 3051.3,375.22 3067.95,375.22 3084.6,600.199 3101.25,749.627 "/>
<path clip-path="url(#clip960)" d="M3308.53 445.512 L3952.76 445.512 L3952.76 95.592 L3308.53 95.592  Z" fill="#ffffff" fill-rule="evenodd" fill-opacity="1"/>
<polyline clip-path="url(#clip960)" style="stroke:#000000; stroke-linecap:round; stroke-linejoin:round; stroke-width:4; stroke-opacity:1; fill:none" points="3308.53,445.512 3952.76,445.512 3952.76,95.592 3308.53,95.592 3308.53,445.512 "/>
<polyline clip-path="url(#clip960)" style="stroke:#023eff; stroke-linecap:round; stroke-linejoin:round; stroke-width:5.625; stroke-opacity:1; fill:none" points="3349.82,153.912 3597.53,153.912 "/>
<path clip-path="url(#clip960)" d="M3643.63 168.977 L3643.63 184.446 L3638.82 184.446 L3638.82 144.185 L3643.63 144.185 L3643.63 148.613 Q3645.14 146.008 3647.44 144.758 Q3649.75 143.482 3652.96 143.482 Q3658.27 143.482 3661.58 147.701 Q3664.91 151.92 3664.91 158.795 Q3664.91 165.67 3661.58 169.888 Q3658.27 174.107 3652.96 174.107 Q3649.75 174.107 3647.44 172.857 Q3645.14 171.581 3643.63 168.977 M3659.94 158.795 Q3659.94 153.508 3657.75 150.514 Q3655.59 147.493 3651.78 147.493 Q3647.98 147.493 3645.79 150.514 Q3643.63 153.508 3643.63 158.795 Q3643.63 164.081 3645.79 167.102 Q3647.98 170.097 3651.78 170.097 Q3655.59 170.097 3657.75 167.102 Q3659.94 164.081 3659.94 158.795 Z" fill="#000000" fill-rule="nonzero" fill-opacity="1" /><path clip-path="url(#clip960)" d="M3689.75 148.665 Q3688.95 148.196 3687.98 147.988 Q3687.04 147.753 3685.9 147.753 Q3681.84 147.753 3679.65 150.409 Q3677.49 153.04 3677.49 157.987 L3677.49 173.352 L3672.67 173.352 L3672.67 144.185 L3677.49 144.185 L3677.49 148.717 Q3679 146.06 3681.42 144.784 Q3683.84 143.482 3687.3 143.482 Q3687.8 143.482 3688.4 143.56 Q3689 143.613 3689.73 143.743 L3689.75 148.665 Z" fill="#000000" fill-rule="nonzero" fill-opacity="1" /><path clip-path="url(#clip960)" d="M3718.55 157.571 L3718.55 159.915 L3696.52 159.915 Q3696.84 164.862 3699.49 167.467 Q3702.17 170.045 3706.94 170.045 Q3709.7 170.045 3712.28 169.368 Q3714.88 168.691 3717.43 167.336 L3717.43 171.868 Q3714.86 172.961 3712.15 173.534 Q3709.44 174.107 3706.65 174.107 Q3699.67 174.107 3695.59 170.045 Q3691.52 165.982 3691.52 159.055 Q3691.52 151.894 3695.38 147.701 Q3699.26 143.482 3705.82 143.482 Q3711.71 143.482 3715.12 147.284 Q3718.55 151.06 3718.55 157.571 M3713.76 156.165 Q3713.71 152.232 3711.55 149.889 Q3709.41 147.545 3705.87 147.545 Q3701.86 147.545 3699.44 149.81 Q3697.04 152.076 3696.68 156.191 L3713.76 156.165 Z" fill="#000000" fill-rule="nonzero" fill-opacity="1" /><path clip-path="url(#clip960)" d="M3745.61 148.613 L3745.61 132.831 L3750.4 132.831 L3750.4 173.352 L3745.61 173.352 L3745.61 168.977 Q3744.1 171.581 3741.78 172.857 Q3739.49 174.107 3736.26 174.107 Q3730.98 174.107 3727.64 169.888 Q3724.34 165.67 3724.34 158.795 Q3724.34 151.92 3727.64 147.701 Q3730.98 143.482 3736.26 143.482 Q3739.49 143.482 3741.78 144.758 Q3744.1 146.008 3745.61 148.613 M3729.28 158.795 Q3729.28 164.081 3731.45 167.102 Q3733.63 170.097 3737.43 170.097 Q3741.24 170.097 3743.42 167.102 Q3745.61 164.081 3745.61 158.795 Q3745.61 153.508 3743.42 150.514 Q3741.24 147.493 3737.43 147.493 Q3733.63 147.493 3731.45 150.514 Q3729.28 153.508 3729.28 158.795 Z" fill="#000000" fill-rule="nonzero" fill-opacity="1" /><path clip-path="url(#clip960)" d="M3760.27 144.185 L3765.06 144.185 L3765.06 173.352 L3760.27 173.352 L3760.27 144.185 M3760.27 132.831 L3765.06 132.831 L3765.06 138.899 L3760.27 138.899 L3760.27 132.831 Z" fill="#000000" fill-rule="nonzero" fill-opacity="1" /><path clip-path="url(#clip960)" d="M3796.08 145.305 L3796.08 149.784 Q3794.05 148.665 3791.99 148.118 Q3789.96 147.545 3787.88 147.545 Q3783.22 147.545 3780.64 150.514 Q3778.06 153.456 3778.06 158.795 Q3778.06 164.133 3780.64 167.102 Q3783.22 170.045 3787.88 170.045 Q3789.96 170.045 3791.99 169.498 Q3794.05 168.925 3796.08 167.805 L3796.08 172.232 Q3794.08 173.17 3791.91 173.638 Q3789.78 174.107 3787.36 174.107 Q3780.77 174.107 3776.89 169.967 Q3773.01 165.826 3773.01 158.795 Q3773.01 151.659 3776.91 147.571 Q3780.85 143.482 3787.67 143.482 Q3789.88 143.482 3791.99 143.951 Q3794.1 144.394 3796.08 145.305 Z" fill="#000000" fill-rule="nonzero" fill-opacity="1" /><path clip-path="url(#clip960)" d="M3809.15 135.904 L3809.15 144.185 L3819.02 144.185 L3819.02 147.909 L3809.15 147.909 L3809.15 163.743 Q3809.15 167.31 3810.12 168.326 Q3811.11 169.342 3814.1 169.342 L3819.02 169.342 L3819.02 173.352 L3814.1 173.352 Q3808.55 173.352 3806.44 171.295 Q3804.34 169.211 3804.34 163.743 L3804.34 147.909 L3800.82 147.909 L3800.82 144.185 L3804.34 144.185 L3804.34 135.904 L3809.15 135.904 Z" fill="#000000" fill-rule="nonzero" fill-opacity="1" /><path clip-path="url(#clip960)" d="M3847.49 182.206 L3847.49 185.93 L3819.78 185.93 L3819.78 182.206 L3847.49 182.206 Z" fill="#000000" fill-rule="nonzero" fill-opacity="1" /><path clip-path="url(#clip960)" d="M3852.72 134.472 L3873.37 134.472 L3873.37 138.899 L3857.54 138.899 L3857.54 148.43 Q3858.68 148.04 3859.83 147.857 Q3860.98 147.649 3862.12 147.649 Q3868.63 147.649 3872.43 151.217 Q3876.24 154.784 3876.24 160.878 Q3876.24 167.154 3872.33 170.644 Q3868.42 174.107 3861.31 174.107 Q3858.87 174.107 3856.31 173.69 Q3853.79 173.274 3851.08 172.441 L3851.08 167.154 Q3853.42 168.43 3855.92 169.055 Q3858.42 169.68 3861.21 169.68 Q3865.72 169.68 3868.35 167.31 Q3870.98 164.941 3870.98 160.878 Q3870.98 156.816 3868.35 154.446 Q3865.72 152.076 3861.21 152.076 Q3859.1 152.076 3856.99 152.545 Q3854.91 153.014 3852.72 154.003 L3852.72 134.472 Z" fill="#000000" fill-rule="nonzero" fill-opacity="1" /><path clip-path="url(#clip960)" d="M3891.13 168.925 L3909.49 168.925 L3909.49 173.352 L3884.8 173.352 L3884.8 168.925 Q3887.8 165.826 3892.95 160.618 Q3898.14 155.383 3899.47 153.873 Q3901.99 151.034 3902.98 149.081 Q3904 147.102 3904 145.201 Q3904 142.102 3901.81 140.149 Q3899.65 138.196 3896.16 138.196 Q3893.68 138.196 3890.92 139.055 Q3888.19 139.915 3885.06 141.659 L3885.06 136.347 Q3888.24 135.071 3891 134.42 Q3893.76 133.769 3896.05 133.769 Q3902.1 133.769 3905.69 136.79 Q3909.28 139.81 3909.28 144.863 Q3909.28 147.258 3908.37 149.42 Q3907.49 151.555 3905.12 154.472 Q3904.47 155.227 3900.98 158.847 Q3897.49 162.441 3891.13 168.925 Z" fill="#000000" fill-rule="nonzero" fill-opacity="1" /><polyline clip-path="url(#clip960)" style="stroke:#ff7c00; stroke-linecap:round; stroke-linejoin:round; stroke-width:5.625; stroke-opacity:1; fill:none" points="3349.82,212.232 3597.53,212.232 "/>
<path clip-path="url(#clip960)" d="M3643.63 227.297 L3643.63 242.766 L3638.82 242.766 L3638.82 202.505 L3643.63 202.505 L3643.63 206.933 Q3645.14 204.328 3647.44 203.078 Q3649.75 201.802 3652.96 201.802 Q3658.27 201.802 3661.58 206.021 Q3664.91 210.24 3664.91 217.115 Q3664.91 223.99 3661.58 228.208 Q3658.27 232.427 3652.96 232.427 Q3649.75 232.427 3647.44 231.177 Q3645.14 229.901 3643.63 227.297 M3659.94 217.115 Q3659.94 211.828 3657.75 208.834 Q3655.59 205.813 3651.78 205.813 Q3647.98 205.813 3645.79 208.834 Q3643.63 211.828 3643.63 217.115 Q3643.63 222.401 3645.79 225.422 Q3647.98 228.417 3651.78 228.417 Q3655.59 228.417 3657.75 225.422 Q3659.94 222.401 3659.94 217.115 Z" fill="#000000" fill-rule="nonzero" fill-opacity="1" /><path clip-path="url(#clip960)" d="M3689.75 206.985 Q3688.95 206.516 3687.98 206.308 Q3687.04 206.073 3685.9 206.073 Q3681.84 206.073 3679.65 208.729 Q3677.49 211.36 3677.49 216.307 L3677.49 231.672 L3672.67 231.672 L3672.67 202.505 L3677.49 202.505 L3677.49 207.037 Q3679 204.38 3681.42 203.104 Q3683.84 201.802 3687.3 201.802 Q3687.8 201.802 3688.4 201.88 Q3689 201.933 3689.73 202.063 L3689.75 206.985 Z" fill="#000000" fill-rule="nonzero" fill-opacity="1" /><path clip-path="url(#clip960)" d="M3718.55 215.891 L3718.55 218.235 L3696.52 218.235 Q3696.84 223.182 3699.49 225.787 Q3702.17 228.365 3706.94 228.365 Q3709.7 228.365 3712.28 227.688 Q3714.88 227.011 3717.43 225.656 L3717.43 230.188 Q3714.86 231.281 3712.15 231.854 Q3709.44 232.427 3706.65 232.427 Q3699.67 232.427 3695.59 228.365 Q3691.52 224.302 3691.52 217.375 Q3691.52 210.214 3695.38 206.021 Q3699.26 201.802 3705.82 201.802 Q3711.71 201.802 3715.12 205.604 Q3718.55 209.38 3718.55 215.891 M3713.76 214.485 Q3713.71 210.552 3711.55 208.209 Q3709.41 205.865 3705.87 205.865 Q3701.86 205.865 3699.44 208.13 Q3697.04 210.396 3696.68 214.511 L3713.76 214.485 Z" fill="#000000" fill-rule="nonzero" fill-opacity="1" /><path clip-path="url(#clip960)" d="M3745.61 206.933 L3745.61 191.151 L3750.4 191.151 L3750.4 231.672 L3745.61 231.672 L3745.61 227.297 Q3744.1 229.901 3741.78 231.177 Q3739.49 232.427 3736.26 232.427 Q3730.98 232.427 3727.64 228.208 Q3724.34 223.99 3724.34 217.115 Q3724.34 210.24 3727.64 206.021 Q3730.98 201.802 3736.26 201.802 Q3739.49 201.802 3741.78 203.078 Q3744.1 204.328 3745.61 206.933 M3729.28 217.115 Q3729.28 222.401 3731.45 225.422 Q3733.63 228.417 3737.43 228.417 Q3741.24 228.417 3743.42 225.422 Q3745.61 222.401 3745.61 217.115 Q3745.61 211.828 3743.42 208.834 Q3741.24 205.813 3737.43 205.813 Q3733.63 205.813 3731.45 208.834 Q3729.28 211.828 3729.28 217.115 Z" fill="#000000" fill-rule="nonzero" fill-opacity="1" /><path clip-path="url(#clip960)" d="M3760.27 202.505 L3765.06 202.505 L3765.06 231.672 L3760.27 231.672 L3760.27 202.505 M3760.27 191.151 L3765.06 191.151 L3765.06 197.219 L3760.27 197.219 L3760.27 191.151 Z" fill="#000000" fill-rule="nonzero" fill-opacity="1" /><path clip-path="url(#clip960)" d="M3796.08 203.625 L3796.08 208.104 Q3794.05 206.985 3791.99 206.438 Q3789.96 205.865 3787.88 205.865 Q3783.22 205.865 3780.64 208.834 Q3778.06 211.776 3778.06 217.115 Q3778.06 222.453 3780.64 225.422 Q3783.22 228.365 3787.88 228.365 Q3789.96 228.365 3791.99 227.818 Q3794.05 227.245 3796.08 226.125 L3796.08 230.552 Q3794.08 231.49 3791.91 231.958 Q3789.78 232.427 3787.36 232.427 Q3780.77 232.427 3776.89 228.287 Q3773.01 224.146 3773.01 217.115 Q3773.01 209.979 3776.91 205.891 Q3780.85 201.802 3787.67 201.802 Q3789.88 201.802 3791.99 202.271 Q3794.1 202.714 3796.08 203.625 Z" fill="#000000" fill-rule="nonzero" fill-opacity="1" /><path clip-path="url(#clip960)" d="M3809.15 194.224 L3809.15 202.505 L3819.02 202.505 L3819.02 206.229 L3809.15 206.229 L3809.15 222.063 Q3809.15 225.63 3810.12 226.646 Q3811.11 227.662 3814.1 227.662 L3819.02 227.662 L3819.02 231.672 L3814.1 231.672 Q3808.55 231.672 3806.44 229.615 Q3804.34 227.531 3804.34 222.063 L3804.34 206.229 L3800.82 206.229 L3800.82 202.505 L3804.34 202.505 L3804.34 194.224 L3809.15 194.224 Z" fill="#000000" fill-rule="nonzero" fill-opacity="1" /><path clip-path="url(#clip960)" d="M3847.49 240.526 L3847.49 244.25 L3819.78 244.25 L3819.78 240.526 L3847.49 240.526 Z" fill="#000000" fill-rule="nonzero" fill-opacity="1" /><path clip-path="url(#clip960)" d="M3857.2 227.245 L3875.56 227.245 L3875.56 231.672 L3850.87 231.672 L3850.87 227.245 Q3853.87 224.146 3859.02 218.938 Q3864.2 213.703 3865.53 212.193 Q3868.06 209.354 3869.05 207.401 Q3870.06 205.422 3870.06 203.521 Q3870.06 200.422 3867.88 198.469 Q3865.72 196.516 3862.23 196.516 Q3859.75 196.516 3856.99 197.375 Q3854.26 198.235 3851.13 199.979 L3851.13 194.667 Q3854.31 193.391 3857.07 192.74 Q3859.83 192.089 3862.12 192.089 Q3868.16 192.089 3871.76 195.11 Q3875.35 198.13 3875.35 203.183 Q3875.35 205.578 3874.44 207.74 Q3873.55 209.875 3871.18 212.792 Q3870.53 213.547 3867.04 217.167 Q3863.55 220.761 3857.2 227.245 Z" fill="#000000" fill-rule="nonzero" fill-opacity="1" /><path clip-path="url(#clip960)" d="M3898.5 210.136 Q3894.96 210.136 3892.88 212.557 Q3890.82 214.979 3890.82 219.198 Q3890.82 223.391 3892.88 225.839 Q3894.96 228.261 3898.5 228.261 Q3902.04 228.261 3904.1 225.839 Q3906.18 223.391 3906.18 219.198 Q3906.18 214.979 3904.1 212.557 Q3902.04 210.136 3898.5 210.136 M3908.94 193.651 L3908.94 198.443 Q3906.97 197.505 3904.93 197.011 Q3902.93 196.516 3900.95 196.516 Q3895.74 196.516 3892.98 200.031 Q3890.25 203.547 3889.86 210.656 Q3891.39 208.391 3893.71 207.193 Q3896.03 205.969 3898.81 205.969 Q3904.67 205.969 3908.06 209.537 Q3911.47 213.078 3911.47 219.198 Q3911.47 225.188 3907.93 228.807 Q3904.39 232.427 3898.5 232.427 Q3891.76 232.427 3888.19 227.271 Q3884.62 222.089 3884.62 212.271 Q3884.62 203.052 3889 197.584 Q3893.37 192.089 3900.74 192.089 Q3902.72 192.089 3904.73 192.479 Q3906.76 192.87 3908.94 193.651 Z" fill="#000000" fill-rule="nonzero" fill-opacity="1" /><polyline clip-path="url(#clip960)" style="stroke:#1ac938; stroke-linecap:round; stroke-linejoin:round; stroke-width:5.625; stroke-opacity:1; fill:none" points="3349.82,270.552 3597.53,270.552 "/>
<path clip-path="url(#clip960)" d="M3643.63 285.617 L3643.63 301.086 L3638.82 301.086 L3638.82 260.825 L3643.63 260.825 L3643.63 265.253 Q3645.14 262.648 3647.44 261.398 Q3649.75 260.122 3652.96 260.122 Q3658.27 260.122 3661.58 264.341 Q3664.91 268.56 3664.91 275.435 Q3664.91 282.31 3661.58 286.528 Q3658.27 290.747 3652.96 290.747 Q3649.75 290.747 3647.44 289.497 Q3645.14 288.221 3643.63 285.617 M3659.94 275.435 Q3659.94 270.148 3657.75 267.154 Q3655.59 264.133 3651.78 264.133 Q3647.98 264.133 3645.79 267.154 Q3643.63 270.148 3643.63 275.435 Q3643.63 280.721 3645.79 283.742 Q3647.98 286.737 3651.78 286.737 Q3655.59 286.737 3657.75 283.742 Q3659.94 280.721 3659.94 275.435 Z" fill="#000000" fill-rule="nonzero" fill-opacity="1" /><path clip-path="url(#clip960)" d="M3689.75 265.305 Q3688.95 264.836 3687.98 264.628 Q3687.04 264.393 3685.9 264.393 Q3681.84 264.393 3679.65 267.049 Q3677.49 269.68 3677.49 274.627 L3677.49 289.992 L3672.67 289.992 L3672.67 260.825 L3677.49 260.825 L3677.49 265.357 Q3679 262.7 3681.42 261.424 Q3683.84 260.122 3687.3 260.122 Q3687.8 260.122 3688.4 260.2 Q3689 260.253 3689.73 260.383 L3689.75 265.305 Z" fill="#000000" fill-rule="nonzero" fill-opacity="1" /><path clip-path="url(#clip960)" d="M3718.55 274.211 L3718.55 276.555 L3696.52 276.555 Q3696.84 281.502 3699.49 284.107 Q3702.17 286.685 3706.94 286.685 Q3709.7 286.685 3712.28 286.008 Q3714.88 285.331 3717.43 283.976 L3717.43 288.508 Q3714.86 289.601 3712.15 290.174 Q3709.44 290.747 3706.65 290.747 Q3699.67 290.747 3695.59 286.685 Q3691.52 282.622 3691.52 275.695 Q3691.52 268.534 3695.38 264.341 Q3699.26 260.122 3705.82 260.122 Q3711.71 260.122 3715.12 263.924 Q3718.55 267.7 3718.55 274.211 M3713.76 272.805 Q3713.71 268.872 3711.55 266.529 Q3709.41 264.185 3705.87 264.185 Q3701.86 264.185 3699.44 266.45 Q3697.04 268.716 3696.68 272.831 L3713.76 272.805 Z" fill="#000000" fill-rule="nonzero" fill-opacity="1" /><path clip-path="url(#clip960)" d="M3745.61 265.253 L3745.61 249.471 L3750.4 249.471 L3750.4 289.992 L3745.61 289.992 L3745.61 285.617 Q3744.1 288.221 3741.78 289.497 Q3739.49 290.747 3736.26 290.747 Q3730.98 290.747 3727.64 286.528 Q3724.34 282.31 3724.34 275.435 Q3724.34 268.56 3727.64 264.341 Q3730.98 260.122 3736.26 260.122 Q3739.49 260.122 3741.78 261.398 Q3744.1 262.648 3745.61 265.253 M3729.28 275.435 Q3729.28 280.721 3731.45 283.742 Q3733.63 286.737 3737.43 286.737 Q3741.24 286.737 3743.42 283.742 Q3745.61 280.721 3745.61 275.435 Q3745.61 270.148 3743.42 267.154 Q3741.24 264.133 3737.43 264.133 Q3733.63 264.133 3731.45 267.154 Q3729.28 270.148 3729.28 275.435 Z" fill="#000000" fill-rule="nonzero" fill-opacity="1" /><path clip-path="url(#clip960)" d="M3760.27 260.825 L3765.06 260.825 L3765.06 289.992 L3760.27 289.992 L3760.27 260.825 M3760.27 249.471 L3765.06 249.471 L3765.06 255.539 L3760.27 255.539 L3760.27 249.471 Z" fill="#000000" fill-rule="nonzero" fill-opacity="1" /><path clip-path="url(#clip960)" d="M3796.08 261.945 L3796.08 266.424 Q3794.05 265.305 3791.99 264.758 Q3789.96 264.185 3787.88 264.185 Q3783.22 264.185 3780.64 267.154 Q3778.06 270.096 3778.06 275.435 Q3778.06 280.773 3780.64 283.742 Q3783.22 286.685 3787.88 286.685 Q3789.96 286.685 3791.99 286.138 Q3794.05 285.565 3796.08 284.445 L3796.08 288.872 Q3794.08 289.81 3791.91 290.278 Q3789.78 290.747 3787.36 290.747 Q3780.77 290.747 3776.89 286.607 Q3773.01 282.466 3773.01 275.435 Q3773.01 268.299 3776.91 264.211 Q3780.85 260.122 3787.67 260.122 Q3789.88 260.122 3791.99 260.591 Q3794.1 261.034 3796.08 261.945 Z" fill="#000000" fill-rule="nonzero" fill-opacity="1" /><path clip-path="url(#clip960)" d="M3809.15 252.544 L3809.15 260.825 L3819.02 260.825 L3819.02 264.549 L3809.15 264.549 L3809.15 280.383 Q3809.15 283.95 3810.12 284.966 Q3811.11 285.982 3814.1 285.982 L3819.02 285.982 L3819.02 289.992 L3814.1 289.992 Q3808.55 289.992 3806.44 287.935 Q3804.34 285.851 3804.34 280.383 L3804.34 264.549 L3800.82 264.549 L3800.82 260.825 L3804.34 260.825 L3804.34 252.544 L3809.15 252.544 Z" fill="#000000" fill-rule="nonzero" fill-opacity="1" /><path clip-path="url(#clip960)" d="M3847.49 298.846 L3847.49 302.57 L3819.78 302.57 L3819.78 298.846 L3847.49 298.846 Z" fill="#000000" fill-rule="nonzero" fill-opacity="1" /><path clip-path="url(#clip960)" d="M3867.12 255.695 L3853.84 276.45 L3867.12 276.45 L3867.12 255.695 M3865.74 251.112 L3872.36 251.112 L3872.36 276.45 L3877.9 276.45 L3877.9 280.825 L3872.36 280.825 L3872.36 289.992 L3867.12 289.992 L3867.12 280.825 L3849.57 280.825 L3849.57 275.747 L3865.74 251.112 Z" fill="#000000" fill-rule="nonzero" fill-opacity="1" /><polyline clip-path="url(#clip960)" style="stroke:#e8000b; stroke-linecap:round; stroke-linejoin:round; stroke-width:5.625; stroke-opacity:1; fill:none" points="3349.82,328.872 3597.53,328.872 "/>
<path clip-path="url(#clip960)" d="M3643.63 343.937 L3643.63 359.406 L3638.82 359.406 L3638.82 319.145 L3643.63 319.145 L3643.63 323.573 Q3645.14 320.968 3647.44 319.718 Q3649.75 318.442 3652.96 318.442 Q3658.27 318.442 3661.58 322.661 Q3664.91 326.88 3664.91 333.755 Q3664.91 340.63 3661.58 344.848 Q3658.27 349.067 3652.96 349.067 Q3649.75 349.067 3647.44 347.817 Q3645.14 346.541 3643.63 343.937 M3659.94 333.755 Q3659.94 328.468 3657.75 325.474 Q3655.59 322.453 3651.78 322.453 Q3647.98 322.453 3645.79 325.474 Q3643.63 328.468 3643.63 333.755 Q3643.63 339.041 3645.79 342.062 Q3647.98 345.057 3651.78 345.057 Q3655.59 345.057 3657.75 342.062 Q3659.94 339.041 3659.94 333.755 Z" fill="#000000" fill-rule="nonzero" fill-opacity="1" /><path clip-path="url(#clip960)" d="M3689.75 323.625 Q3688.95 323.156 3687.98 322.948 Q3687.04 322.713 3685.9 322.713 Q3681.84 322.713 3679.65 325.369 Q3677.49 328 3677.49 332.947 L3677.49 348.312 L3672.67 348.312 L3672.67 319.145 L3677.49 319.145 L3677.49 323.677 Q3679 321.02 3681.42 319.744 Q3683.84 318.442 3687.3 318.442 Q3687.8 318.442 3688.4 318.52 Q3689 318.573 3689.73 318.703 L3689.75 323.625 Z" fill="#000000" fill-rule="nonzero" fill-opacity="1" /><path clip-path="url(#clip960)" d="M3718.55 332.531 L3718.55 334.875 L3696.52 334.875 Q3696.84 339.822 3699.49 342.427 Q3702.17 345.005 3706.94 345.005 Q3709.7 345.005 3712.28 344.328 Q3714.88 343.651 3717.43 342.296 L3717.43 346.828 Q3714.86 347.921 3712.15 348.494 Q3709.44 349.067 3706.65 349.067 Q3699.67 349.067 3695.59 345.005 Q3691.52 340.942 3691.52 334.015 Q3691.52 326.854 3695.38 322.661 Q3699.26 318.442 3705.82 318.442 Q3711.71 318.442 3715.12 322.244 Q3718.55 326.02 3718.55 332.531 M3713.76 331.125 Q3713.71 327.192 3711.55 324.849 Q3709.41 322.505 3705.87 322.505 Q3701.86 322.505 3699.44 324.77 Q3697.04 327.036 3696.68 331.151 L3713.76 331.125 Z" fill="#000000" fill-rule="nonzero" fill-opacity="1" /><path clip-path="url(#clip960)" d="M3745.61 323.573 L3745.61 307.791 L3750.4 307.791 L3750.4 348.312 L3745.61 348.312 L3745.61 343.937 Q3744.1 346.541 3741.78 347.817 Q3739.49 349.067 3736.26 349.067 Q3730.98 349.067 3727.64 344.848 Q3724.34 340.63 3724.34 333.755 Q3724.34 326.88 3727.64 322.661 Q3730.98 318.442 3736.26 318.442 Q3739.49 318.442 3741.78 319.718 Q3744.1 320.968 3745.61 323.573 M3729.28 333.755 Q3729.28 339.041 3731.45 342.062 Q3733.63 345.057 3737.43 345.057 Q3741.24 345.057 3743.42 342.062 Q3745.61 339.041 3745.61 333.755 Q3745.61 328.468 3743.42 325.474 Q3741.24 322.453 3737.43 322.453 Q3733.63 322.453 3731.45 325.474 Q3729.28 328.468 3729.28 333.755 Z" fill="#000000" fill-rule="nonzero" fill-opacity="1" /><path clip-path="url(#clip960)" d="M3760.27 319.145 L3765.06 319.145 L3765.06 348.312 L3760.27 348.312 L3760.27 319.145 M3760.27 307.791 L3765.06 307.791 L3765.06 313.859 L3760.27 313.859 L3760.27 307.791 Z" fill="#000000" fill-rule="nonzero" fill-opacity="1" /><path clip-path="url(#clip960)" d="M3796.08 320.265 L3796.08 324.744 Q3794.05 323.625 3791.99 323.078 Q3789.96 322.505 3787.88 322.505 Q3783.22 322.505 3780.64 325.474 Q3778.06 328.416 3778.06 333.755 Q3778.06 339.093 3780.64 342.062 Q3783.22 345.005 3787.88 345.005 Q3789.96 345.005 3791.99 344.458 Q3794.05 343.885 3796.08 342.765 L3796.08 347.192 Q3794.08 348.13 3791.91 348.598 Q3789.78 349.067 3787.36 349.067 Q3780.77 349.067 3776.89 344.927 Q3773.01 340.786 3773.01 333.755 Q3773.01 326.619 3776.91 322.531 Q3780.85 318.442 3787.67 318.442 Q3789.88 318.442 3791.99 318.911 Q3794.1 319.354 3796.08 320.265 Z" fill="#000000" fill-rule="nonzero" fill-opacity="1" /><path clip-path="url(#clip960)" d="M3809.15 310.864 L3809.15 319.145 L3819.02 319.145 L3819.02 322.869 L3809.15 322.869 L3809.15 338.703 Q3809.15 342.27 3810.12 343.286 Q3811.11 344.302 3814.1 344.302 L3819.02 344.302 L3819.02 348.312 L3814.1 348.312 Q3808.55 348.312 3806.44 346.255 Q3804.34 344.171 3804.34 338.703 L3804.34 322.869 L3800.82 322.869 L3800.82 319.145 L3804.34 319.145 L3804.34 310.864 L3809.15 310.864 Z" fill="#000000" fill-rule="nonzero" fill-opacity="1" /><path clip-path="url(#clip960)" d="M3847.49 357.166 L3847.49 360.89 L3819.78 360.89 L3819.78 357.166 L3847.49 357.166 Z" fill="#000000" fill-rule="nonzero" fill-opacity="1" /><path clip-path="url(#clip960)" d="M3853.58 343.885 L3862.17 343.885 L3862.17 314.224 L3852.82 316.099 L3852.82 311.307 L3862.12 309.432 L3867.38 309.432 L3867.38 343.885 L3875.98 343.885 L3875.98 348.312 L3853.58 348.312 L3853.58 343.885 Z" fill="#000000" fill-rule="nonzero" fill-opacity="1" /><polyline clip-path="url(#clip960)" style="stroke:#000000; stroke-linecap:round; stroke-linejoin:round; stroke-width:6.75; stroke-opacity:1; fill:none" points="3349.82,387.192 3597.53,387.192 "/>
<path clip-path="url(#clip960)" d="M3653.89 391.971 Q3648.09 391.971 3645.85 393.299 Q3643.61 394.627 3643.61 397.83 Q3643.61 400.382 3645.27 401.892 Q3646.97 403.377 3649.86 403.377 Q3653.84 403.377 3656.24 400.564 Q3658.66 397.726 3658.66 393.038 L3658.66 391.971 L3653.89 391.971 M3663.45 389.991 L3663.45 406.632 L3658.66 406.632 L3658.66 402.205 Q3657.02 404.861 3654.57 406.137 Q3652.12 407.387 3648.58 407.387 Q3644.1 407.387 3641.45 404.887 Q3638.82 402.361 3638.82 398.142 Q3638.82 393.221 3642.1 390.721 Q3645.4 388.221 3651.94 388.221 L3658.66 388.221 L3658.66 387.752 Q3658.66 384.445 3656.47 382.648 Q3654.31 380.825 3650.38 380.825 Q3647.88 380.825 3645.51 381.424 Q3643.14 382.023 3640.95 383.221 L3640.95 378.794 Q3643.58 377.778 3646.06 377.283 Q3648.53 376.762 3650.87 376.762 Q3657.2 376.762 3660.33 380.044 Q3663.45 383.325 3663.45 389.991 Z" fill="#000000" fill-rule="nonzero" fill-opacity="1" /><path clip-path="url(#clip960)" d="M3694.31 378.585 L3694.31 383.064 Q3692.28 381.945 3690.22 381.398 Q3688.19 380.825 3686.11 380.825 Q3681.45 380.825 3678.87 383.794 Q3676.29 386.736 3676.29 392.075 Q3676.29 397.413 3678.87 400.382 Q3681.45 403.325 3686.11 403.325 Q3688.19 403.325 3690.22 402.778 Q3692.28 402.205 3694.31 401.085 L3694.31 405.512 Q3692.3 406.45 3690.14 406.918 Q3688.01 407.387 3685.59 407.387 Q3679 407.387 3675.12 403.247 Q3671.24 399.106 3671.24 392.075 Q3671.24 384.939 3675.14 380.851 Q3679.08 376.762 3685.9 376.762 Q3688.11 376.762 3690.22 377.231 Q3692.33 377.674 3694.31 378.585 Z" fill="#000000" fill-rule="nonzero" fill-opacity="1" /><path clip-path="url(#clip960)" d="M3707.38 369.184 L3707.38 377.465 L3717.25 377.465 L3717.25 381.189 L3707.38 381.189 L3707.38 397.023 Q3707.38 400.59 3708.35 401.606 Q3709.34 402.622 3712.33 402.622 L3717.25 402.622 L3717.25 406.632 L3712.33 406.632 Q3706.78 406.632 3704.67 404.575 Q3702.57 402.491 3702.57 397.023 L3702.57 381.189 L3699.05 381.189 L3699.05 377.465 L3702.57 377.465 L3702.57 369.184 L3707.38 369.184 Z" fill="#000000" fill-rule="nonzero" fill-opacity="1" /><path clip-path="url(#clip960)" d="M3723.06 395.122 L3723.06 377.465 L3727.85 377.465 L3727.85 394.939 Q3727.85 399.08 3729.47 401.163 Q3731.08 403.221 3734.31 403.221 Q3738.19 403.221 3740.43 400.747 Q3742.7 398.273 3742.7 394.002 L3742.7 377.465 L3747.49 377.465 L3747.49 406.632 L3742.7 406.632 L3742.7 402.153 Q3740.95 404.809 3738.63 406.111 Q3736.34 407.387 3733.29 407.387 Q3728.27 407.387 3725.66 404.262 Q3723.06 401.137 3723.06 395.122 M3735.12 376.762 L3735.12 376.762 Z" fill="#000000" fill-rule="nonzero" fill-opacity="1" /><path clip-path="url(#clip960)" d="M3770.61 391.971 Q3764.8 391.971 3762.56 393.299 Q3760.33 394.627 3760.33 397.83 Q3760.33 400.382 3761.99 401.892 Q3763.68 403.377 3766.58 403.377 Q3770.56 403.377 3772.96 400.564 Q3775.38 397.726 3775.38 393.038 L3775.38 391.971 L3770.61 391.971 M3780.17 389.991 L3780.17 406.632 L3775.38 406.632 L3775.38 402.205 Q3773.74 404.861 3771.29 406.137 Q3768.84 407.387 3765.3 407.387 Q3760.82 407.387 3758.16 404.887 Q3755.53 402.361 3755.53 398.142 Q3755.53 393.221 3758.81 390.721 Q3762.12 388.221 3768.66 388.221 L3775.38 388.221 L3775.38 387.752 Q3775.38 384.445 3773.19 382.648 Q3771.03 380.825 3767.1 380.825 Q3764.6 380.825 3762.23 381.424 Q3759.86 382.023 3757.67 383.221 L3757.67 378.794 Q3760.3 377.778 3762.77 377.283 Q3765.25 376.762 3767.59 376.762 Q3773.92 376.762 3777.04 380.044 Q3780.17 383.325 3780.17 389.991 Z" fill="#000000" fill-rule="nonzero" fill-opacity="1" /><path clip-path="url(#clip960)" d="M3790.04 366.111 L3794.83 366.111 L3794.83 406.632 L3790.04 406.632 L3790.04 366.111 Z" fill="#000000" fill-rule="nonzero" fill-opacity="1" /></svg>
