<?xml version="1.0" encoding="UTF-8" standalone="no"?>
<!DOCTYPE svg PUBLIC "-//W3C//DTD SVG 1.1//EN"
 "http://www.w3.org/Graphics/SVG/1.1/DTD/svg11.dtd">
<!-- Generated by graphviz version 2.50.0 (20211204.2007)
 -->
<!-- Pages: 1 -->
<svg width="623pt" height="434pt"
 viewBox="0.00 0.00 623.00 434.00" xmlns="http://www.w3.org/2000/svg" xmlns:xlink="http://www.w3.org/1999/xlink">
<g id="graph0" class="graph" transform="scale(1 1) rotate(0) translate(4 430)">
<polygon fill="white" stroke="transparent" points="-4,4 -4,-430 619,-430 619,4 -4,4"/>
<!-- 1 -->
<g id="node1" class="node">
<title>1</title>
<text text-anchor="start" x="305" y="-407.8" font-family="Arial" font-weight="bold" font-size="14.00"> </text>
<path fill="#ebebeb" stroke="transparent" d="M265,-335C265,-335 349,-335 349,-335 355,-335 361,-341 361,-347 361,-347 361,-387 361,-387 361,-393 355,-399 349,-399 349,-399 265,-399 265,-399 259,-399 253,-393 253,-387 253,-387 253,-347 253,-347 253,-341 259,-335 265,-335"/>
<text text-anchor="start" x="254" y="-396.4" font-family="Arial" font-size="2.00"> </text>
<text text-anchor="start" x="254" y="-390.4" font-family="Arial" font-size="7.00"> &#160;1</text>
<text text-anchor="start" x="268" y="-373.8" font-family="Arial" font-weight="bold" font-size="14.00">Mean: 10.87</text>
<text text-anchor="start" x="283.5" y="-356.8" font-family="Arial" font-weight="bold" font-size="14.00">n = 168</text>
<text text-anchor="start" x="305.5" y="-338.8" font-family="Arial" font-size="9.00"> </text>
<path fill="none" stroke="#333333" d="M265,-335C265,-335 349,-335 349,-335 355,-335 361,-341 361,-347 361,-347 361,-387 361,-387 361,-393 355,-399 349,-399 349,-399 265,-399 265,-399 259,-399 253,-393 253,-387 253,-387 253,-347 253,-347 253,-341 259,-335 265,-335"/>
<text text-anchor="start" x="292.5" y="-320.8" font-family="Arial" font-weight="bold" font-size="14.00">time</text>
</g>
<!-- 2 -->
<g id="node2" class="node">
<title>2</title>
<text text-anchor="start" x="202.5" y="-253.8" font-family="Arial" font-weight="bold" font-size="14.00"> &lt; 5.5</text>
<text text-anchor="start" x="152" y="-209.3" font-family="Arial" font-size="14.00"> &#160;&#160;</text>
<path fill="#ebebeb" stroke="transparent" d="M178,-181C178,-181 262,-181 262,-181 268,-181 274,-187 274,-193 274,-193 274,-233 274,-233 274,-239 268,-245 262,-245 262,-245 178,-245 178,-245 172,-245 166,-239 166,-233 166,-233 166,-193 166,-193 166,-187 172,-181 178,-181"/>
<text text-anchor="start" x="167" y="-242.4" font-family="Arial" font-size="2.00"> </text>
<text text-anchor="start" x="167" y="-236.4" font-family="Arial" font-size="7.00"> &#160;2</text>
<text text-anchor="start" x="181" y="-219.8" font-family="Arial" font-weight="bold" font-size="14.00">Mean: 8.471</text>
<text text-anchor="start" x="200" y="-202.8" font-family="Arial" font-weight="bold" font-size="14.00">n = 42</text>
<text text-anchor="start" x="218.5" y="-184.8" font-family="Arial" font-size="9.00"> </text>
<path fill="none" stroke="#333333" d="M178,-181C178,-181 262,-181 262,-181 268,-181 274,-187 274,-193 274,-193 274,-233 274,-233 274,-239 268,-245 262,-245 262,-245 178,-245 178,-245 172,-245 166,-239 166,-233 166,-233 166,-193 166,-193 166,-187 172,-181 178,-181"/>
<text text-anchor="start" x="276" y="-209.3" font-family="Arial" font-size="14.00"> &#160;&#160;</text>
<text text-anchor="start" x="167" y="-166.8" font-family="Arial" font-weight="bold" font-size="14.00">prev_168_inflow</text>
</g>
<!-- 1&#45;&gt;2 -->
<g id="edge1" class="edge">
<title>1&#45;&gt;2</title>
<path fill="none" stroke="#888888" d="M273.61,-307.67C268.62,-298.94 263.43,-289.88 258.34,-280.99"/>
<polygon fill="#888888" stroke="#888888" points="261.3,-279.12 253.3,-272.18 255.23,-282.59 261.3,-279.12"/>
</g>
<!-- 5 -->
<g id="node3" class="node">
<title>5</title>
<text text-anchor="start" x="377.5" y="-253.8" font-family="Arial" font-weight="bold" font-size="14.00"> ≥ 5.5</text>
<text text-anchor="start" x="327" y="-209.3" font-family="Arial" font-size="14.00"> &#160;&#160;</text>
<path fill="#ebebeb" stroke="transparent" d="M353,-181C353,-181 436,-181 436,-181 442,-181 448,-187 448,-193 448,-193 448,-233 448,-233 448,-239 442,-245 436,-245 436,-245 353,-245 353,-245 347,-245 341,-239 341,-233 341,-233 341,-193 341,-193 341,-187 347,-181 353,-181"/>
<text text-anchor="start" x="342" y="-242.4" font-family="Arial" font-size="2.00"> </text>
<text text-anchor="start" x="342" y="-236.4" font-family="Arial" font-size="7.00"> &#160;5</text>
<text text-anchor="start" x="356" y="-219.8" font-family="Arial" font-weight="bold" font-size="14.00">Mean: 11.67</text>
<text text-anchor="start" x="371" y="-202.8" font-family="Arial" font-weight="bold" font-size="14.00">n = 126</text>
<text text-anchor="start" x="393" y="-184.8" font-family="Arial" font-size="9.00"> </text>
<path fill="none" stroke="#333333" d="M353,-181C353,-181 436,-181 436,-181 442,-181 448,-187 448,-193 448,-193 448,-233 448,-233 448,-239 442,-245 436,-245 436,-245 353,-245 353,-245 347,-245 341,-239 341,-233 341,-233 341,-193 341,-193 341,-187 347,-181 353,-181"/>
<text text-anchor="start" x="450" y="-209.3" font-family="Arial" font-size="14.00"> &#160;&#160;</text>
<text text-anchor="start" x="341.5" y="-166.8" font-family="Arial" font-weight="bold" font-size="14.00">prev_168_inflow</text>
</g>
<!-- 1&#45;&gt;5 -->
<g id="edge2" class="edge">
<title>1&#45;&gt;5</title>
<path fill="none" stroke="#888888" d="M340.39,-307.67C345.38,-298.94 350.57,-289.88 355.66,-280.99"/>
<polygon fill="#888888" stroke="#888888" points="358.77,-282.59 360.7,-272.18 352.7,-279.12 358.77,-282.59"/>
</g>
<!-- 3 -->
<g id="node4" class="node">
<title>3</title>
<text text-anchor="start" x="44.5" y="-99.8" font-family="Arial" font-weight="bold" font-size="14.00"> &lt; 11.55</text>
<path fill="#f8766d" fill-opacity="0.874510" stroke="transparent" d="M24,-27C24,-27 114,-27 114,-27 120,-27 126,-33 126,-39 126,-39 126,-79 126,-79 126,-85 120,-91 114,-91 114,-91 24,-91 24,-91 18,-91 12,-85 12,-79 12,-79 12,-39 12,-39 12,-33 18,-27 24,-27"/>
<text text-anchor="start" x="13" y="-88.4" font-family="Arial" font-size="2.00"> </text>
<text text-anchor="start" x="13" y="-82.4" font-family="Arial" font-size="7.00"> &#160;3</text>
<text text-anchor="start" x="27" y="-65.8" font-family="Arial" font-weight="bold" font-size="14.00">Predict 7.993</text>
<text text-anchor="start" x="49" y="-48.8" font-family="Arial" font-weight="bold" font-size="14.00">n = 40</text>
<text text-anchor="start" x="67.5" y="-30.8" font-family="Arial" font-size="9.00"> </text>
<path fill="none" stroke="#333333" d="M24,-27C24,-27 114,-27 114,-27 120,-27 126,-33 126,-39 126,-39 126,-79 126,-79 126,-85 120,-91 114,-91 114,-91 24,-91 24,-91 18,-91 12,-85 12,-79 12,-79 12,-39 12,-39 12,-33 18,-27 24,-27"/>
<text text-anchor="start" x="67" y="-12.8" font-family="Arial" font-weight="bold" font-size="14.00"> </text>
</g>
<!-- 2&#45;&gt;3 -->
<g id="edge3" class="edge">
<title>2&#45;&gt;3</title>
<path fill="none" stroke="#888888" d="M162.05,-153.67C152.84,-144.39 143.26,-134.75 133.9,-125.33"/>
<polygon fill="#888888" stroke="#888888" points="136.32,-122.8 126.79,-118.18 131.36,-127.74 136.32,-122.8"/>
</g>
<!-- 4 -->
<g id="node5" class="node">
<title>4</title>
<text text-anchor="start" x="200.5" y="-99.8" font-family="Arial" font-weight="bold" font-size="14.00"> ≥ 11.55</text>
<path fill="#f8766d" fill-opacity="0.376471" stroke="transparent" d="M180,-27C180,-27 270,-27 270,-27 276,-27 282,-33 282,-39 282,-39 282,-79 282,-79 282,-85 276,-91 270,-91 270,-91 180,-91 180,-91 174,-91 168,-85 168,-79 168,-79 168,-39 168,-39 168,-33 174,-27 180,-27"/>
<text text-anchor="start" x="169" y="-88.4" font-family="Arial" font-size="2.00"> </text>
<text text-anchor="start" x="169" y="-82.4" font-family="Arial" font-size="7.00"> &#160;4</text>
<text text-anchor="start" x="183" y="-65.8" font-family="Arial" font-weight="bold" font-size="14.00">Predict 18.02</text>
<text text-anchor="start" x="209" y="-48.8" font-family="Arial" font-weight="bold" font-size="14.00">n = 2</text>
<text text-anchor="start" x="223.5" y="-30.8" font-family="Arial" font-size="9.00"> </text>
<path fill="none" stroke="#333333" d="M180,-27C180,-27 270,-27 270,-27 276,-27 282,-33 282,-39 282,-39 282,-79 282,-79 282,-85 276,-91 270,-91 270,-91 180,-91 180,-91 174,-91 168,-85 168,-79 168,-79 168,-39 168,-39 168,-33 174,-27 180,-27"/>
<text text-anchor="start" x="223" y="-12.8" font-family="Arial" font-weight="bold" font-size="14.00"> </text>
</g>
<!-- 2&#45;&gt;4 -->
<g id="edge4" class="edge">
<title>2&#45;&gt;4</title>
<path fill="none" stroke="#888888" d="M221.92,-153.67C222.19,-145.39 222.47,-136.83 222.75,-128.38"/>
<polygon fill="#888888" stroke="#888888" points="226.26,-128.29 223.09,-118.18 219.26,-128.06 226.26,-128.29"/>
</g>
<!-- 6 -->
<g id="node6" class="node">
<title>6</title>
<text text-anchor="start" x="365" y="-99.8" font-family="Arial" font-weight="bold" font-size="14.00"> &lt; 10.09</text>
<path fill="#f8766d" fill-opacity="0.745098" stroke="transparent" d="M345,-27C345,-27 435,-27 435,-27 441,-27 447,-33 447,-39 447,-39 447,-79 447,-79 447,-85 441,-91 435,-91 435,-91 345,-91 345,-91 339,-91 333,-85 333,-79 333,-79 333,-39 333,-39 333,-33 339,-27 345,-27"/>
<text text-anchor="start" x="334" y="-88.4" font-family="Arial" font-size="2.00"> </text>
<text text-anchor="start" x="334" y="-82.4" font-family="Arial" font-size="7.00"> &#160;6</text>
<text text-anchor="start" x="348" y="-65.8" font-family="Arial" font-weight="bold" font-size="14.00">Predict 10.61</text>
<text text-anchor="start" x="370" y="-48.8" font-family="Arial" font-weight="bold" font-size="14.00">n = 48</text>
<text text-anchor="start" x="388.5" y="-30.8" font-family="Arial" font-size="9.00"> </text>
<path fill="none" stroke="#333333" d="M345,-27C345,-27 435,-27 435,-27 441,-27 447,-33 447,-39 447,-39 447,-79 447,-79 447,-85 441,-91 435,-91 435,-91 345,-91 345,-91 339,-91 333,-85 333,-79 333,-79 333,-39 333,-39 333,-33 339,-27 345,-27"/>
<text text-anchor="start" x="388" y="-12.8" font-family="Arial" font-weight="bold" font-size="14.00"> </text>
</g>
<!-- 5&#45;&gt;6 -->
<g id="edge5" class="edge">
<title>5&#45;&gt;6</title>
<path fill="none" stroke="#888888" d="M392.46,-153.67C392.25,-145.39 392.02,-136.83 391.8,-128.38"/>
<polygon fill="#888888" stroke="#888888" points="395.29,-128.08 391.53,-118.18 388.3,-128.27 395.29,-128.08"/>
</g>
<!-- 7 -->
<g id="node7" class="node">
<title>7</title>
<text text-anchor="start" x="521.5" y="-99.8" font-family="Arial" font-weight="bold" font-size="14.00"> ≥ 10.09</text>
<path fill="#f8766d" fill-opacity="0.658824" stroke="transparent" d="M501,-27C501,-27 591,-27 591,-27 597,-27 603,-33 603,-39 603,-39 603,-79 603,-79 603,-85 597,-91 591,-91 591,-91 501,-91 501,-91 495,-91 489,-85 489,-79 489,-79 489,-39 489,-39 489,-33 495,-27 501,-27"/>
<text text-anchor="start" x="490" y="-88.4" font-family="Arial" font-size="2.00"> </text>
<text text-anchor="start" x="490" y="-82.4" font-family="Arial" font-size="7.00"> &#160;7</text>
<text text-anchor="start" x="504" y="-65.8" font-family="Arial" font-weight="bold" font-size="14.00">Predict 12.32</text>
<text text-anchor="start" x="526" y="-48.8" font-family="Arial" font-weight="bold" font-size="14.00">n = 78</text>
<text text-anchor="start" x="544.5" y="-30.8" font-family="Arial" font-size="9.00"> </text>
<path fill="none" stroke="#333333" d="M501,-27C501,-27 591,-27 591,-27 597,-27 603,-33 603,-39 603,-39 603,-79 603,-79 603,-85 597,-91 591,-91 591,-91 501,-91 501,-91 495,-91 489,-85 489,-79 489,-79 489,-39 489,-39 489,-33 495,-27 501,-27"/>
<text text-anchor="start" x="544" y="-12.8" font-family="Arial" font-weight="bold" font-size="14.00"> </text>
</g>
<!-- 5&#45;&gt;7 -->
<g id="edge6" class="edge">
<title>5&#45;&gt;7</title>
<path fill="none" stroke="#888888" d="M452.33,-153.67C461.61,-144.39 471.25,-134.75 480.67,-125.33"/>
<polygon fill="#888888" stroke="#888888" points="483.23,-127.72 487.82,-118.18 478.28,-122.77 483.23,-127.72"/>
</g>
</g>
</svg>
