<?xml version="1.0" encoding="UTF-8" standalone="no"?>
<!DOCTYPE svg PUBLIC "-//W3C//DTD SVG 1.1//EN"
 "http://www.w3.org/Graphics/SVG/1.1/DTD/svg11.dtd">
<!-- Generated by graphviz version 2.50.0 (20211204.2007)
 -->
<!-- Pages: 1 -->
<svg width="918pt" height="588pt"
 viewBox="0.00 0.00 918.00 588.00" xmlns="http://www.w3.org/2000/svg" xmlns:xlink="http://www.w3.org/1999/xlink">
<g id="graph0" class="graph" transform="scale(1 1) rotate(0) translate(4 584)">
<polygon fill="white" stroke="transparent" points="-4,4 -4,-584 914,-584 914,4 -4,4"/>
<!-- 1 -->
<g id="node1" class="node">
<title>1</title>
<text text-anchor="start" x="310" y="-561.8" font-family="Arial" font-weight="bold" font-size="14.00"> </text>
<text text-anchor="start" x="244" y="-517.3" font-family="Arial" font-size="14.00"> &#160;&#160;&#160;</text>
<path fill="#ebebeb" stroke="transparent" d="M274,-489C274,-489 350,-489 350,-489 356,-489 362,-495 362,-501 362,-501 362,-541 362,-541 362,-547 356,-553 350,-553 350,-553 274,-553 274,-553 268,-553 262,-547 262,-541 262,-541 262,-501 262,-501 262,-495 268,-489 274,-489"/>
<text text-anchor="start" x="263" y="-550.4" font-family="Arial" font-size="2.00"> </text>
<text text-anchor="start" x="263" y="-544.4" font-family="Arial" font-size="7.00"> &#160;1</text>
<text text-anchor="start" x="277" y="-527.8" font-family="Arial" font-weight="bold" font-size="14.00">Mean: 30.4</text>
<text text-anchor="start" x="288.5" y="-510.8" font-family="Arial" font-weight="bold" font-size="14.00">n = 168</text>
<text text-anchor="start" x="310.5" y="-492.8" font-family="Arial" font-size="9.00"> </text>
<path fill="none" stroke="#333333" d="M274,-489C274,-489 350,-489 350,-489 356,-489 362,-495 362,-501 362,-501 362,-541 362,-541 362,-547 356,-553 350,-553 350,-553 274,-553 274,-553 268,-553 262,-547 262,-541 262,-541 262,-501 262,-501 262,-495 268,-489 274,-489"/>
<text text-anchor="start" x="364" y="-517.3" font-family="Arial" font-size="14.00"> &#160;&#160;&#160;</text>
<text text-anchor="start" x="259" y="-474.8" font-family="Arial" font-weight="bold" font-size="14.00">prev_168_inflow</text>
</g>
<!-- 2 -->
<g id="node2" class="node">
<title>2</title>
<text text-anchor="start" x="200" y="-407.8" font-family="Arial" font-weight="bold" font-size="14.00"> &lt; 30.36</text>
<text text-anchor="start" x="157" y="-363.3" font-family="Arial" font-size="14.00"> &#160;&#160;</text>
<path fill="#ebebeb" stroke="transparent" d="M183,-335C183,-335 267,-335 267,-335 273,-335 279,-341 279,-347 279,-347 279,-387 279,-387 279,-393 273,-399 267,-399 267,-399 183,-399 183,-399 177,-399 171,-393 171,-387 171,-387 171,-347 171,-347 171,-341 177,-335 183,-335"/>
<text text-anchor="start" x="172" y="-396.4" font-family="Arial" font-size="2.00"> </text>
<text text-anchor="start" x="172" y="-390.4" font-family="Arial" font-size="7.00"> &#160;2</text>
<text text-anchor="start" x="186" y="-373.8" font-family="Arial" font-weight="bold" font-size="14.00">Mean: 27.21</text>
<text text-anchor="start" x="205" y="-356.8" font-family="Arial" font-weight="bold" font-size="14.00">n = 99</text>
<text text-anchor="start" x="223.5" y="-338.8" font-family="Arial" font-size="9.00"> </text>
<path fill="none" stroke="#333333" d="M183,-335C183,-335 267,-335 267,-335 273,-335 279,-341 279,-347 279,-347 279,-387 279,-387 279,-393 273,-399 267,-399 267,-399 183,-399 183,-399 177,-399 171,-393 171,-387 171,-387 171,-347 171,-347 171,-341 177,-335 183,-335"/>
<text text-anchor="start" x="281" y="-363.3" font-family="Arial" font-size="14.00"> &#160;&#160;</text>
<text text-anchor="start" x="172" y="-320.8" font-family="Arial" font-weight="bold" font-size="14.00">prev_168_inflow</text>
</g>
<!-- 1&#45;&gt;2 -->
<g id="edge1" class="edge">
<title>1&#45;&gt;2</title>
<path fill="none" stroke="#888888" d="M278.61,-461.67C273.62,-452.94 268.43,-443.88 263.34,-434.99"/>
<polygon fill="#888888" stroke="#888888" points="266.3,-433.12 258.3,-426.18 260.23,-436.59 266.3,-433.12"/>
</g>
<!-- 7 -->
<g id="node3" class="node">
<title>7</title>
<text text-anchor="start" x="436.5" y="-407.8" font-family="Arial" font-weight="bold" font-size="14.00"> ≥ 30.36</text>
<text text-anchor="start" x="393" y="-363.3" font-family="Arial" font-size="14.00"> &#160;&#160;</text>
<path fill="#ebebeb" stroke="transparent" d="M419,-335C419,-335 503,-335 503,-335 509,-335 515,-341 515,-347 515,-347 515,-387 515,-387 515,-393 509,-399 503,-399 503,-399 419,-399 419,-399 413,-399 407,-393 407,-387 407,-387 407,-347 407,-347 407,-341 413,-335 419,-335"/>
<text text-anchor="start" x="408" y="-396.4" font-family="Arial" font-size="2.00"> </text>
<text text-anchor="start" x="408" y="-390.4" font-family="Arial" font-size="7.00"> &#160;7</text>
<text text-anchor="start" x="422" y="-373.8" font-family="Arial" font-weight="bold" font-size="14.00">Mean: 34.97</text>
<text text-anchor="start" x="441" y="-356.8" font-family="Arial" font-weight="bold" font-size="14.00">n = 69</text>
<text text-anchor="start" x="459.5" y="-338.8" font-family="Arial" font-size="9.00"> </text>
<path fill="none" stroke="#333333" d="M419,-335C419,-335 503,-335 503,-335 509,-335 515,-341 515,-347 515,-347 515,-387 515,-387 515,-393 509,-399 503,-399 503,-399 419,-399 419,-399 413,-399 407,-393 407,-387 407,-387 407,-347 407,-347 407,-341 413,-335 419,-335"/>
<text text-anchor="start" x="517" y="-363.3" font-family="Arial" font-size="14.00"> &#160;&#160;</text>
<text text-anchor="start" x="408" y="-320.8" font-family="Arial" font-weight="bold" font-size="14.00">prev_168_inflow</text>
</g>
<!-- 1&#45;&gt;7 -->
<g id="edge2" class="edge">
<title>1&#45;&gt;7</title>
<path fill="none" stroke="#888888" d="M369.18,-461.67C378.27,-452.39 387.73,-442.75 396.96,-433.33"/>
<polygon fill="#888888" stroke="#888888" points="399.47,-435.77 403.97,-426.18 394.47,-430.87 399.47,-435.77"/>
</g>
<!-- 3 -->
<g id="node4" class="node">
<title>3</title>
<text text-anchor="start" x="47" y="-253.8" font-family="Arial" font-weight="bold" font-size="14.00"> &lt; 23.22</text>
<path fill="#f8766d" fill-opacity="0.874510" stroke="transparent" d="M27,-181C27,-181 117,-181 117,-181 123,-181 129,-187 129,-193 129,-193 129,-233 129,-233 129,-239 123,-245 117,-245 117,-245 27,-245 27,-245 21,-245 15,-239 15,-233 15,-233 15,-193 15,-193 15,-187 21,-181 27,-181"/>
<text text-anchor="start" x="16" y="-242.4" font-family="Arial" font-size="2.00"> </text>
<text text-anchor="start" x="16" y="-236.4" font-family="Arial" font-size="7.00"> &#160;3</text>
<text text-anchor="start" x="30" y="-219.8" font-family="Arial" font-weight="bold" font-size="14.00">Predict 22.34</text>
<text text-anchor="start" x="52" y="-202.8" font-family="Arial" font-weight="bold" font-size="14.00">n = 28</text>
<text text-anchor="start" x="70.5" y="-184.8" font-family="Arial" font-size="9.00"> </text>
<path fill="none" stroke="#333333" d="M27,-181C27,-181 117,-181 117,-181 123,-181 129,-187 129,-193 129,-193 129,-233 129,-233 129,-239 123,-245 117,-245 117,-245 27,-245 27,-245 21,-245 15,-239 15,-233 15,-233 15,-193 15,-193 15,-187 21,-181 27,-181"/>
<text text-anchor="start" x="70" y="-166.8" font-family="Arial" font-weight="bold" font-size="14.00"> </text>
</g>
<!-- 2&#45;&gt;3 -->
<g id="edge3" class="edge">
<title>2&#45;&gt;3</title>
<path fill="none" stroke="#888888" d="M166.28,-307.67C156.95,-298.39 147.24,-288.75 137.76,-279.33"/>
<polygon fill="#888888" stroke="#888888" points="140.12,-276.74 130.56,-272.18 135.19,-281.71 140.12,-276.74"/>
</g>
<!-- 4 -->
<g id="node5" class="node">
<title>4</title>
<text text-anchor="start" x="200.5" y="-253.8" font-family="Arial" font-weight="bold" font-size="14.00"> ≥ 23.22</text>
<path fill="#ebebeb" stroke="transparent" d="M183,-181C183,-181 267,-181 267,-181 273,-181 279,-187 279,-193 279,-193 279,-233 279,-233 279,-239 273,-245 267,-245 267,-245 183,-245 183,-245 177,-245 171,-239 171,-233 171,-233 171,-193 171,-193 171,-187 177,-181 183,-181"/>
<text text-anchor="start" x="172" y="-242.4" font-family="Arial" font-size="2.00"> </text>
<text text-anchor="start" x="172" y="-236.4" font-family="Arial" font-size="7.00"> &#160;4</text>
<text text-anchor="start" x="186" y="-219.8" font-family="Arial" font-weight="bold" font-size="14.00">Mean: 29.13</text>
<text text-anchor="start" x="205" y="-202.8" font-family="Arial" font-weight="bold" font-size="14.00">n = 71</text>
<text text-anchor="start" x="223.5" y="-184.8" font-family="Arial" font-size="9.00"> </text>
<path fill="none" stroke="#333333" d="M183,-181C183,-181 267,-181 267,-181 273,-181 279,-187 279,-193 279,-193 279,-233 279,-233 279,-239 273,-245 267,-245 267,-245 183,-245 183,-245 177,-245 171,-239 171,-233 171,-233 171,-193 171,-193 171,-187 177,-181 183,-181"/>
<text text-anchor="start" x="210.5" y="-166.8" font-family="Arial" font-weight="bold" font-size="14.00">time</text>
</g>
<!-- 2&#45;&gt;4 -->
<g id="edge4" class="edge">
<title>2&#45;&gt;4</title>
<path fill="none" stroke="#888888" d="M225,-307.67C225,-299.39 225,-290.83 225,-282.38"/>
<polygon fill="#888888" stroke="#888888" points="228.5,-282.18 225,-272.18 221.5,-282.18 228.5,-282.18"/>
</g>
<!-- 8 -->
<g id="node8" class="node">
<title>8</title>
<text text-anchor="start" x="436" y="-253.8" font-family="Arial" font-weight="bold" font-size="14.00"> &lt; 34.91</text>
<text text-anchor="start" x="393" y="-209.3" font-family="Arial" font-size="14.00"> &#160;&#160;</text>
<path fill="#ebebeb" stroke="transparent" d="M419,-181C419,-181 503,-181 503,-181 509,-181 515,-187 515,-193 515,-193 515,-233 515,-233 515,-239 509,-245 503,-245 503,-245 419,-245 419,-245 413,-245 407,-239 407,-233 407,-233 407,-193 407,-193 407,-187 413,-181 419,-181"/>
<text text-anchor="start" x="408" y="-242.4" font-family="Arial" font-size="2.00"> </text>
<text text-anchor="start" x="408" y="-236.4" font-family="Arial" font-size="7.00"> &#160;8</text>
<text text-anchor="start" x="422" y="-219.8" font-family="Arial" font-weight="bold" font-size="14.00">Mean: 33.83</text>
<text text-anchor="start" x="441" y="-202.8" font-family="Arial" font-weight="bold" font-size="14.00">n = 49</text>
<text text-anchor="start" x="459.5" y="-184.8" font-family="Arial" font-size="9.00"> </text>
<path fill="none" stroke="#333333" d="M419,-181C419,-181 503,-181 503,-181 509,-181 515,-187 515,-193 515,-193 515,-233 515,-233 515,-239 509,-245 503,-245 503,-245 419,-245 419,-245 413,-245 407,-239 407,-233 407,-233 407,-193 407,-193 407,-187 413,-181 419,-181"/>
<text text-anchor="start" x="517" y="-209.3" font-family="Arial" font-size="14.00"> &#160;&#160;</text>
<text text-anchor="start" x="408" y="-166.8" font-family="Arial" font-weight="bold" font-size="14.00">prev_168_inflow</text>
</g>
<!-- 7&#45;&gt;8 -->
<g id="edge7" class="edge">
<title>7&#45;&gt;8</title>
<path fill="none" stroke="#888888" d="M461,-307.67C461,-299.39 461,-290.83 461,-282.38"/>
<polygon fill="#888888" stroke="#888888" points="464.5,-282.18 461,-272.18 457.5,-282.18 464.5,-282.18"/>
</g>
<!-- 11 -->
<g id="node9" class="node">
<title>11</title>
<text text-anchor="start" x="660.5" y="-253.8" font-family="Arial" font-weight="bold" font-size="14.00"> ≥ 34.91</text>
<path fill="#ebebeb" stroke="transparent" d="M643,-181C643,-181 727,-181 727,-181 733,-181 739,-187 739,-193 739,-193 739,-233 739,-233 739,-239 733,-245 727,-245 727,-245 643,-245 643,-245 637,-245 631,-239 631,-233 631,-233 631,-193 631,-193 631,-187 637,-181 643,-181"/>
<text text-anchor="start" x="632" y="-242.4" font-family="Arial" font-size="2.00"> </text>
<text text-anchor="start" x="632" y="-236.4" font-family="Arial" font-size="7.00"> &#160;11</text>
<text text-anchor="start" x="646" y="-219.8" font-family="Arial" font-weight="bold" font-size="14.00">Mean: 37.76</text>
<text text-anchor="start" x="665" y="-202.8" font-family="Arial" font-weight="bold" font-size="14.00">n = 20</text>
<text text-anchor="start" x="683.5" y="-184.8" font-family="Arial" font-size="9.00"> </text>
<path fill="none" stroke="#333333" d="M643,-181C643,-181 727,-181 727,-181 733,-181 739,-187 739,-193 739,-193 739,-233 739,-233 739,-239 733,-245 727,-245 727,-245 643,-245 643,-245 637,-245 631,-239 631,-233 631,-233 631,-193 631,-193 631,-187 637,-181 643,-181"/>
<text text-anchor="start" x="670.5" y="-166.8" font-family="Arial" font-weight="bold" font-size="14.00">time</text>
</g>
<!-- 7&#45;&gt;11 -->
<g id="edge8" class="edge">
<title>7&#45;&gt;11</title>
<path fill="none" stroke="#888888" d="M539.03,-313.05C562.2,-297.33 587.5,-280.16 610.44,-264.59"/>
<polygon fill="#888888" stroke="#888888" points="612.47,-267.45 618.78,-258.94 608.54,-261.66 612.47,-267.45"/>
</g>
<!-- 5 -->
<g id="node6" class="node">
<title>5</title>
<text text-anchor="start" x="51.5" y="-99.8" font-family="Arial" font-weight="bold" font-size="14.00"> &lt; 5.5</text>
<path fill="#f8766d" fill-opacity="0.768627" stroke="transparent" d="M24,-27C24,-27 114,-27 114,-27 120,-27 126,-33 126,-39 126,-39 126,-79 126,-79 126,-85 120,-91 114,-91 114,-91 24,-91 24,-91 18,-91 12,-85 12,-79 12,-79 12,-39 12,-39 12,-33 18,-27 24,-27"/>
<text text-anchor="start" x="13" y="-88.4" font-family="Arial" font-size="2.00"> </text>
<text text-anchor="start" x="13" y="-82.4" font-family="Arial" font-size="7.00"> &#160;5</text>
<text text-anchor="start" x="27" y="-65.8" font-family="Arial" font-weight="bold" font-size="14.00">Predict 25.68</text>
<text text-anchor="start" x="49" y="-48.8" font-family="Arial" font-weight="bold" font-size="14.00">n = 14</text>
<text text-anchor="start" x="67.5" y="-30.8" font-family="Arial" font-size="9.00"> </text>
<path fill="none" stroke="#333333" d="M24,-27C24,-27 114,-27 114,-27 120,-27 126,-33 126,-39 126,-39 126,-79 126,-79 126,-85 120,-91 114,-91 114,-91 24,-91 24,-91 18,-91 12,-85 12,-79 12,-79 12,-39 12,-39 12,-33 18,-27 24,-27"/>
<text text-anchor="start" x="67" y="-12.8" font-family="Arial" font-weight="bold" font-size="14.00"> </text>
</g>
<!-- 4&#45;&gt;5 -->
<g id="edge5" class="edge">
<title>4&#45;&gt;5</title>
<path fill="none" stroke="#888888" d="M165.13,-153.67C155.62,-144.39 145.72,-134.75 136.05,-125.33"/>
<polygon fill="#888888" stroke="#888888" points="138.31,-122.65 128.71,-118.18 133.43,-127.66 138.31,-122.65"/>
</g>
<!-- 6 -->
<g id="node7" class="node">
<title>6</title>
<text text-anchor="start" x="208" y="-99.8" font-family="Arial" font-weight="bold" font-size="14.00"> ≥ 5.5</text>
<path fill="#f8766d" fill-opacity="0.631373" stroke="transparent" d="M180,-27C180,-27 270,-27 270,-27 276,-27 282,-33 282,-39 282,-39 282,-79 282,-79 282,-85 276,-91 270,-91 270,-91 180,-91 180,-91 174,-91 168,-85 168,-79 168,-79 168,-39 168,-39 168,-33 174,-27 180,-27"/>
<text text-anchor="start" x="169" y="-88.4" font-family="Arial" font-size="2.00"> </text>
<text text-anchor="start" x="169" y="-82.4" font-family="Arial" font-size="7.00"> &#160;6</text>
<text text-anchor="start" x="183" y="-65.8" font-family="Arial" font-weight="bold" font-size="14.00">Predict 29.97</text>
<text text-anchor="start" x="205" y="-48.8" font-family="Arial" font-weight="bold" font-size="14.00">n = 57</text>
<text text-anchor="start" x="223.5" y="-30.8" font-family="Arial" font-size="9.00"> </text>
<path fill="none" stroke="#333333" d="M180,-27C180,-27 270,-27 270,-27 276,-27 282,-33 282,-39 282,-39 282,-79 282,-79 282,-85 276,-91 270,-91 270,-91 180,-91 180,-91 174,-91 168,-85 168,-79 168,-79 168,-39 168,-39 168,-33 174,-27 180,-27"/>
<text text-anchor="start" x="223" y="-12.8" font-family="Arial" font-weight="bold" font-size="14.00"> </text>
</g>
<!-- 4&#45;&gt;6 -->
<g id="edge6" class="edge">
<title>4&#45;&gt;6</title>
<path fill="none" stroke="#888888" d="M225,-153.67C225,-145.39 225,-136.83 225,-128.38"/>
<polygon fill="#888888" stroke="#888888" points="228.5,-128.18 225,-118.18 221.5,-128.18 228.5,-128.18"/>
</g>
<!-- 9 -->
<g id="node10" class="node">
<title>9</title>
<text text-anchor="start" x="356" y="-99.8" font-family="Arial" font-weight="bold" font-size="14.00"> &lt; 33.36</text>
<path fill="#f8766d" fill-opacity="0.549020" stroke="transparent" d="M336,-27C336,-27 426,-27 426,-27 432,-27 438,-33 438,-39 438,-39 438,-79 438,-79 438,-85 432,-91 426,-91 426,-91 336,-91 336,-91 330,-91 324,-85 324,-79 324,-79 324,-39 324,-39 324,-33 330,-27 336,-27"/>
<text text-anchor="start" x="325" y="-88.4" font-family="Arial" font-size="2.00"> </text>
<text text-anchor="start" x="325" y="-82.4" font-family="Arial" font-size="7.00"> &#160;9</text>
<text text-anchor="start" x="339" y="-65.8" font-family="Arial" font-weight="bold" font-size="14.00">Predict 32.58</text>
<text text-anchor="start" x="361" y="-48.8" font-family="Arial" font-weight="bold" font-size="14.00">n = 32</text>
<text text-anchor="start" x="379.5" y="-30.8" font-family="Arial" font-size="9.00"> </text>
<path fill="none" stroke="#333333" d="M336,-27C336,-27 426,-27 426,-27 432,-27 438,-33 438,-39 438,-39 438,-79 438,-79 438,-85 432,-91 426,-91 426,-91 336,-91 336,-91 330,-91 324,-85 324,-79 324,-79 324,-39 324,-39 324,-33 330,-27 336,-27"/>
<text text-anchor="start" x="379" y="-12.8" font-family="Arial" font-weight="bold" font-size="14.00"> </text>
</g>
<!-- 8&#45;&gt;9 -->
<g id="edge9" class="edge">
<title>8&#45;&gt;9</title>
<path fill="none" stroke="#888888" d="M430.3,-153.67C425.75,-145.03 421.04,-136.07 416.41,-127.27"/>
<polygon fill="#888888" stroke="#888888" points="419.37,-125.4 411.62,-118.18 413.18,-128.66 419.37,-125.4"/>
</g>
<!-- 10 -->
<g id="node11" class="node">
<title>10</title>
<text text-anchor="start" x="508.5" y="-99.8" font-family="Arial" font-weight="bold" font-size="14.00"> ≥ 33.36</text>
<path fill="#f8766d" fill-opacity="0.435294" stroke="transparent" d="M492,-27C492,-27 574,-27 574,-27 580,-27 586,-33 586,-39 586,-39 586,-79 586,-79 586,-85 580,-91 574,-91 574,-91 492,-91 492,-91 486,-91 480,-85 480,-79 480,-79 480,-39 480,-39 480,-33 486,-27 492,-27"/>
<text text-anchor="start" x="481" y="-88.4" font-family="Arial" font-size="2.00"> </text>
<text text-anchor="start" x="481" y="-82.4" font-family="Arial" font-size="7.00"> &#160;10</text>
<text text-anchor="start" x="495" y="-65.8" font-family="Arial" font-weight="bold" font-size="14.00">Predict 36.2</text>
<text text-anchor="start" x="513" y="-48.8" font-family="Arial" font-weight="bold" font-size="14.00">n = 17</text>
<text text-anchor="start" x="531.5" y="-30.8" font-family="Arial" font-size="9.00"> </text>
<path fill="none" stroke="#333333" d="M492,-27C492,-27 574,-27 574,-27 580,-27 586,-33 586,-39 586,-39 586,-79 586,-79 586,-85 580,-91 574,-91 574,-91 492,-91 492,-91 486,-91 480,-85 480,-79 480,-79 480,-39 480,-39 480,-33 486,-27 492,-27"/>
<text text-anchor="start" x="531" y="-12.8" font-family="Arial" font-weight="bold" font-size="14.00"> </text>
</g>
<!-- 8&#45;&gt;10 -->
<g id="edge10" class="edge">
<title>8&#45;&gt;10</title>
<path fill="none" stroke="#888888" d="M488.63,-153.67C492.72,-145.03 496.97,-136.07 501.14,-127.27"/>
<polygon fill="#888888" stroke="#888888" points="504.32,-128.71 505.44,-118.18 498,-125.72 504.32,-128.71"/>
</g>
<!-- 12 -->
<g id="node12" class="node">
<title>12</title>
<text text-anchor="start" x="663.5" y="-99.8" font-family="Arial" font-weight="bold" font-size="14.00"> &lt; 20.5</text>
<path fill="#f8766d" fill-opacity="0.376471" stroke="transparent" d="M640,-27C640,-27 730,-27 730,-27 736,-27 742,-33 742,-39 742,-39 742,-79 742,-79 742,-85 736,-91 730,-91 730,-91 640,-91 640,-91 634,-91 628,-85 628,-79 628,-79 628,-39 628,-39 628,-33 634,-27 640,-27"/>
<text text-anchor="start" x="629" y="-88.4" font-family="Arial" font-size="2.00"> </text>
<text text-anchor="start" x="629" y="-82.4" font-family="Arial" font-size="7.00"> &#160;12</text>
<text text-anchor="start" x="643" y="-65.8" font-family="Arial" font-weight="bold" font-size="14.00">Predict 38.12</text>
<text text-anchor="start" x="665" y="-48.8" font-family="Arial" font-weight="bold" font-size="14.00">n = 19</text>
<text text-anchor="start" x="683.5" y="-30.8" font-family="Arial" font-size="9.00"> </text>
<path fill="none" stroke="#333333" d="M640,-27C640,-27 730,-27 730,-27 736,-27 742,-33 742,-39 742,-39 742,-79 742,-79 742,-85 736,-91 730,-91 730,-91 640,-91 640,-91 634,-91 628,-85 628,-79 628,-79 628,-39 628,-39 628,-33 634,-27 640,-27"/>
<text text-anchor="start" x="683" y="-12.8" font-family="Arial" font-weight="bold" font-size="14.00"> </text>
</g>
<!-- 11&#45;&gt;12 -->
<g id="edge11" class="edge">
<title>11&#45;&gt;12</title>
<path fill="none" stroke="#888888" d="M685,-153.67C685,-145.39 685,-136.83 685,-128.38"/>
<polygon fill="#888888" stroke="#888888" points="688.5,-128.18 685,-118.18 681.5,-128.18 688.5,-128.18"/>
</g>
<!-- 13 -->
<g id="node13" class="node">
<title>13</title>
<text text-anchor="start" x="820" y="-99.8" font-family="Arial" font-weight="bold" font-size="14.00"> ≥ 20.5</text>
<path fill="#f8766d" fill-opacity="0.603922" stroke="transparent" d="M796,-27C796,-27 886,-27 886,-27 892,-27 898,-33 898,-39 898,-39 898,-79 898,-79 898,-85 892,-91 886,-91 886,-91 796,-91 796,-91 790,-91 784,-85 784,-79 784,-79 784,-39 784,-39 784,-33 790,-27 796,-27"/>
<text text-anchor="start" x="785" y="-88.4" font-family="Arial" font-size="2.00"> </text>
<text text-anchor="start" x="785" y="-82.4" font-family="Arial" font-size="7.00"> &#160;13</text>
<text text-anchor="start" x="799" y="-65.8" font-family="Arial" font-weight="bold" font-size="14.00">Predict 30.92</text>
<text text-anchor="start" x="825" y="-48.8" font-family="Arial" font-weight="bold" font-size="14.00">n = 1</text>
<text text-anchor="start" x="839.5" y="-30.8" font-family="Arial" font-size="9.00"> </text>
<path fill="none" stroke="#333333" d="M796,-27C796,-27 886,-27 886,-27 892,-27 898,-33 898,-39 898,-39 898,-79 898,-79 898,-85 892,-91 886,-91 886,-91 796,-91 796,-91 790,-91 784,-85 784,-79 784,-79 784,-39 784,-39 784,-33 790,-27 796,-27"/>
<text text-anchor="start" x="839" y="-12.8" font-family="Arial" font-weight="bold" font-size="14.00"> </text>
</g>
<!-- 11&#45;&gt;13 -->
<g id="edge12" class="edge">
<title>11&#45;&gt;13</title>
<path fill="none" stroke="#888888" d="M744.87,-153.67C754.38,-144.39 764.28,-134.75 773.95,-125.33"/>
<polygon fill="#888888" stroke="#888888" points="776.57,-127.66 781.29,-118.18 771.69,-122.65 776.57,-127.66"/>
</g>
</g>
</svg>
