<?xml version="1.0" encoding="UTF-8" standalone="no"?>
<!DOCTYPE svg PUBLIC "-//W3C//DTD SVG 1.1//EN"
 "http://www.w3.org/Graphics/SVG/1.1/DTD/svg11.dtd">
<!-- Generated by graphviz version 2.50.0 (20211204.2007)
 -->
<!-- Pages: 1 -->
<svg width="666pt" height="588pt"
 viewBox="0.00 0.00 666.00 588.00" xmlns="http://www.w3.org/2000/svg" xmlns:xlink="http://www.w3.org/1999/xlink">
<g id="graph0" class="graph" transform="scale(1 1) rotate(0) translate(4 584)">
<polygon fill="white" stroke="transparent" points="-4,4 -4,-584 662,-584 662,4 -4,4"/>
<!-- 1 -->
<g id="node1" class="node">
<title>1</title>
<text text-anchor="start" x="327" y="-561.8" font-family="Arial" font-weight="bold" font-size="14.00"> </text>
<text text-anchor="start" x="257" y="-517.3" font-family="Arial" font-size="14.00"> &#160;&#160;&#160;</text>
<path fill="#ebebeb" stroke="transparent" d="M287,-489C287,-489 371,-489 371,-489 377,-489 383,-495 383,-501 383,-501 383,-541 383,-541 383,-547 377,-553 371,-553 371,-553 287,-553 287,-553 281,-553 275,-547 275,-541 275,-541 275,-501 275,-501 275,-495 281,-489 287,-489"/>
<text text-anchor="start" x="276" y="-550.4" font-family="Arial" font-size="2.00"> </text>
<text text-anchor="start" x="276" y="-544.4" font-family="Arial" font-size="7.00"> &#160;1</text>
<text text-anchor="start" x="290" y="-527.8" font-family="Arial" font-weight="bold" font-size="14.00">Mean: 28.91</text>
<text text-anchor="start" x="305.5" y="-510.8" font-family="Arial" font-weight="bold" font-size="14.00">n = 168</text>
<text text-anchor="start" x="327.5" y="-492.8" font-family="Arial" font-size="9.00"> </text>
<path fill="none" stroke="#333333" d="M287,-489C287,-489 371,-489 371,-489 377,-489 383,-495 383,-501 383,-501 383,-541 383,-541 383,-547 377,-553 371,-553 371,-553 287,-553 287,-553 281,-553 275,-547 275,-541 275,-541 275,-501 275,-501 275,-495 281,-489 287,-489"/>
<text text-anchor="start" x="385" y="-517.3" font-family="Arial" font-size="14.00"> &#160;&#160;&#160;</text>
<text text-anchor="start" x="271.5" y="-474.8" font-family="Arial" font-weight="bold" font-size="14.00">prev_168h_inflow</text>
</g>
<!-- 2 -->
<g id="node2" class="node">
<title>2</title>
<text text-anchor="start" x="213" y="-407.8" font-family="Arial" font-weight="bold" font-size="14.00"> &lt; 28.62</text>
<text text-anchor="start" x="166" y="-363.3" font-family="Arial" font-size="14.00"> &#160;&#160;&#160;</text>
<path fill="#ebebeb" stroke="transparent" d="M196,-335C196,-335 280,-335 280,-335 286,-335 292,-341 292,-347 292,-347 292,-387 292,-387 292,-393 286,-399 280,-399 280,-399 196,-399 196,-399 190,-399 184,-393 184,-387 184,-387 184,-347 184,-347 184,-341 190,-335 196,-335"/>
<text text-anchor="start" x="185" y="-396.4" font-family="Arial" font-size="2.00"> </text>
<text text-anchor="start" x="185" y="-390.4" font-family="Arial" font-size="7.00"> &#160;2</text>
<text text-anchor="start" x="199" y="-373.8" font-family="Arial" font-weight="bold" font-size="14.00">Mean: 25.38</text>
<text text-anchor="start" x="218" y="-356.8" font-family="Arial" font-weight="bold" font-size="14.00">n = 87</text>
<text text-anchor="start" x="236.5" y="-338.8" font-family="Arial" font-size="9.00"> </text>
<path fill="none" stroke="#333333" d="M196,-335C196,-335 280,-335 280,-335 286,-335 292,-341 292,-347 292,-347 292,-387 292,-387 292,-393 286,-399 280,-399 280,-399 196,-399 196,-399 190,-399 184,-393 184,-387 184,-387 184,-347 184,-347 184,-341 190,-335 196,-335"/>
<text text-anchor="start" x="294" y="-363.3" font-family="Arial" font-size="14.00"> &#160;&#160;&#160;</text>
<text text-anchor="start" x="180.5" y="-320.8" font-family="Arial" font-weight="bold" font-size="14.00">prev_168h_inflow</text>
</g>
<!-- 1&#45;&gt;2 -->
<g id="edge1" class="edge">
<title>1&#45;&gt;2</title>
<path fill="none" stroke="#888888" d="M294.08,-461.67C288.85,-452.94 283.43,-443.88 278.11,-434.99"/>
<polygon fill="#888888" stroke="#888888" points="280.97,-432.96 272.83,-426.18 274.96,-436.55 280.97,-432.96"/>
</g>
<!-- 7 -->
<g id="node3" class="node">
<title>7</title>
<text text-anchor="start" x="395.5" y="-407.8" font-family="Arial" font-weight="bold" font-size="14.00"> ≥ 28.62</text>
<path fill="#ebebeb" stroke="transparent" d="M378,-335C378,-335 462,-335 462,-335 468,-335 474,-341 474,-347 474,-347 474,-387 474,-387 474,-393 468,-399 462,-399 462,-399 378,-399 378,-399 372,-399 366,-393 366,-387 366,-387 366,-347 366,-347 366,-341 372,-335 378,-335"/>
<text text-anchor="start" x="367" y="-396.4" font-family="Arial" font-size="2.00"> </text>
<text text-anchor="start" x="367" y="-390.4" font-family="Arial" font-size="7.00"> &#160;7</text>
<text text-anchor="start" x="381" y="-373.8" font-family="Arial" font-weight="bold" font-size="14.00">Mean: 32.69</text>
<text text-anchor="start" x="400" y="-356.8" font-family="Arial" font-weight="bold" font-size="14.00">n = 81</text>
<text text-anchor="start" x="418.5" y="-338.8" font-family="Arial" font-size="9.00"> </text>
<path fill="none" stroke="#333333" d="M378,-335C378,-335 462,-335 462,-335 468,-335 474,-341 474,-347 474,-347 474,-387 474,-387 474,-393 468,-399 462,-399 462,-399 378,-399 378,-399 372,-399 366,-393 366,-387 366,-387 366,-347 366,-347 366,-341 372,-335 378,-335"/>
<text text-anchor="start" x="405.5" y="-320.8" font-family="Arial" font-weight="bold" font-size="14.00">time</text>
</g>
<!-- 1&#45;&gt;7 -->
<g id="edge2" class="edge">
<title>1&#45;&gt;7</title>
<path fill="none" stroke="#888888" d="M363.92,-461.67C369.15,-452.94 374.57,-443.88 379.89,-434.99"/>
<polygon fill="#888888" stroke="#888888" points="383.04,-436.55 385.17,-426.18 377.03,-432.96 383.04,-436.55"/>
</g>
<!-- 3 -->
<g id="node4" class="node">
<title>3</title>
<text text-anchor="start" x="44" y="-253.8" font-family="Arial" font-weight="bold" font-size="14.00"> &lt; 25.21</text>
<path fill="#f8766d" fill-opacity="0.874510" stroke="transparent" d="M24,-181C24,-181 114,-181 114,-181 120,-181 126,-187 126,-193 126,-193 126,-233 126,-233 126,-239 120,-245 114,-245 114,-245 24,-245 24,-245 18,-245 12,-239 12,-233 12,-233 12,-193 12,-193 12,-187 18,-181 24,-181"/>
<text text-anchor="start" x="13" y="-242.4" font-family="Arial" font-size="2.00"> </text>
<text text-anchor="start" x="13" y="-236.4" font-family="Arial" font-size="7.00"> &#160;3</text>
<text text-anchor="start" x="27" y="-219.8" font-family="Arial" font-weight="bold" font-size="14.00">Predict 23.57</text>
<text text-anchor="start" x="49" y="-202.8" font-family="Arial" font-weight="bold" font-size="14.00">n = 45</text>
<text text-anchor="start" x="67.5" y="-184.8" font-family="Arial" font-size="9.00"> </text>
<path fill="none" stroke="#333333" d="M24,-181C24,-181 114,-181 114,-181 120,-181 126,-187 126,-193 126,-193 126,-233 126,-233 126,-239 120,-245 114,-245 114,-245 24,-245 24,-245 18,-245 12,-239 12,-233 12,-233 12,-193 12,-193 12,-187 18,-181 24,-181"/>
<text text-anchor="start" x="67" y="-166.8" font-family="Arial" font-weight="bold" font-size="14.00"> </text>
</g>
<!-- 2&#45;&gt;3 -->
<g id="edge3" class="edge">
<title>2&#45;&gt;3</title>
<path fill="none" stroke="#888888" d="M173.14,-307.67C162.73,-298.3 151.9,-288.56 141.33,-279.05"/>
<polygon fill="#888888" stroke="#888888" points="143.46,-276.26 133.68,-272.18 138.78,-281.47 143.46,-276.26"/>
</g>
<!-- 4 -->
<g id="node5" class="node">
<title>4</title>
<text text-anchor="start" x="213.5" y="-253.8" font-family="Arial" font-weight="bold" font-size="14.00"> ≥ 25.21</text>
<text text-anchor="start" x="166" y="-209.3" font-family="Arial" font-size="14.00"> &#160;&#160;&#160;</text>
<path fill="#ebebeb" stroke="transparent" d="M196,-181C196,-181 280,-181 280,-181 286,-181 292,-187 292,-193 292,-193 292,-233 292,-233 292,-239 286,-245 280,-245 280,-245 196,-245 196,-245 190,-245 184,-239 184,-233 184,-233 184,-193 184,-193 184,-187 190,-181 196,-181"/>
<text text-anchor="start" x="185" y="-242.4" font-family="Arial" font-size="2.00"> </text>
<text text-anchor="start" x="185" y="-236.4" font-family="Arial" font-size="7.00"> &#160;4</text>
<text text-anchor="start" x="199" y="-219.8" font-family="Arial" font-weight="bold" font-size="14.00">Mean: 27.32</text>
<text text-anchor="start" x="218" y="-202.8" font-family="Arial" font-weight="bold" font-size="14.00">n = 42</text>
<text text-anchor="start" x="236.5" y="-184.8" font-family="Arial" font-size="9.00"> </text>
<path fill="none" stroke="#333333" d="M196,-181C196,-181 280,-181 280,-181 286,-181 292,-187 292,-193 292,-193 292,-233 292,-233 292,-239 286,-245 280,-245 280,-245 196,-245 196,-245 190,-245 184,-239 184,-233 184,-233 184,-193 184,-193 184,-187 190,-181 196,-181"/>
<text text-anchor="start" x="294" y="-209.3" font-family="Arial" font-size="14.00"> &#160;&#160;&#160;</text>
<text text-anchor="start" x="180.5" y="-166.8" font-family="Arial" font-weight="bold" font-size="14.00">prev_168h_inflow</text>
</g>
<!-- 2&#45;&gt;4 -->
<g id="edge4" class="edge">
<title>2&#45;&gt;4</title>
<path fill="none" stroke="#888888" d="M238,-307.67C238,-299.39 238,-290.83 238,-282.38"/>
<polygon fill="#888888" stroke="#888888" points="241.5,-282.18 238,-272.18 234.5,-282.18 241.5,-282.18"/>
</g>
<!-- 8 -->
<g id="node8" class="node">
<title>8</title>
<text text-anchor="start" x="399" y="-253.8" font-family="Arial" font-weight="bold" font-size="14.00"> &lt; 11.5</text>
<text text-anchor="start" x="348" y="-209.3" font-family="Arial" font-size="14.00"> &#160;&#160;&#160;</text>
<path fill="#ebebeb" stroke="transparent" d="M378,-181C378,-181 462,-181 462,-181 468,-181 474,-187 474,-193 474,-193 474,-233 474,-233 474,-239 468,-245 462,-245 462,-245 378,-245 378,-245 372,-245 366,-239 366,-233 366,-233 366,-193 366,-193 366,-187 372,-181 378,-181"/>
<text text-anchor="start" x="367" y="-242.4" font-family="Arial" font-size="2.00"> </text>
<text text-anchor="start" x="367" y="-236.4" font-family="Arial" font-size="7.00"> &#160;8</text>
<text text-anchor="start" x="381" y="-219.8" font-family="Arial" font-weight="bold" font-size="14.00">Mean: 33.64</text>
<text text-anchor="start" x="400" y="-202.8" font-family="Arial" font-weight="bold" font-size="14.00">n = 34</text>
<text text-anchor="start" x="418.5" y="-184.8" font-family="Arial" font-size="9.00"> </text>
<path fill="none" stroke="#333333" d="M378,-181C378,-181 462,-181 462,-181 468,-181 474,-187 474,-193 474,-193 474,-233 474,-233 474,-239 468,-245 462,-245 462,-245 378,-245 378,-245 372,-245 366,-239 366,-233 366,-233 366,-193 366,-193 366,-187 372,-181 378,-181"/>
<text text-anchor="start" x="476" y="-209.3" font-family="Arial" font-size="14.00"> &#160;&#160;&#160;</text>
<text text-anchor="start" x="362.5" y="-166.8" font-family="Arial" font-weight="bold" font-size="14.00">prev_168h_inflow</text>
</g>
<!-- 7&#45;&gt;8 -->
<g id="edge7" class="edge">
<title>7&#45;&gt;8</title>
<path fill="none" stroke="#888888" d="M420,-307.67C420,-299.39 420,-290.83 420,-282.38"/>
<polygon fill="#888888" stroke="#888888" points="423.5,-282.18 420,-272.18 416.5,-282.18 423.5,-282.18"/>
</g>
<!-- 11 -->
<g id="node9" class="node">
<title>11</title>
<text text-anchor="start" x="568.5" y="-253.8" font-family="Arial" font-weight="bold" font-size="14.00"> ≥ 11.5</text>
<path fill="#f8766d" fill-opacity="0.505882" stroke="transparent" d="M544,-181C544,-181 634,-181 634,-181 640,-181 646,-187 646,-193 646,-193 646,-233 646,-233 646,-239 640,-245 634,-245 634,-245 544,-245 544,-245 538,-245 532,-239 532,-233 532,-233 532,-193 532,-193 532,-187 538,-181 544,-181"/>
<text text-anchor="start" x="533" y="-242.4" font-family="Arial" font-size="2.00"> </text>
<text text-anchor="start" x="533" y="-236.4" font-family="Arial" font-size="7.00"> &#160;11</text>
<text text-anchor="start" x="547" y="-219.8" font-family="Arial" font-weight="bold" font-size="14.00">Predict 32.01</text>
<text text-anchor="start" x="569" y="-202.8" font-family="Arial" font-weight="bold" font-size="14.00">n = 47</text>
<text text-anchor="start" x="587.5" y="-184.8" font-family="Arial" font-size="9.00"> </text>
<path fill="none" stroke="#333333" d="M544,-181C544,-181 634,-181 634,-181 640,-181 646,-187 646,-193 646,-193 646,-233 646,-233 646,-239 640,-245 634,-245 634,-245 544,-245 544,-245 538,-245 532,-239 532,-233 532,-233 532,-193 532,-193 532,-187 538,-181 544,-181"/>
<text text-anchor="start" x="587" y="-166.8" font-family="Arial" font-weight="bold" font-size="14.00"> </text>
</g>
<!-- 7&#45;&gt;11 -->
<g id="edge8" class="edge">
<title>7&#45;&gt;11</title>
<path fill="none" stroke="#888888" d="M484.86,-307.67C495.27,-298.3 506.1,-288.56 516.67,-279.05"/>
<polygon fill="#888888" stroke="#888888" points="519.22,-281.47 524.32,-272.18 514.54,-276.26 519.22,-281.47"/>
</g>
<!-- 5 -->
<g id="node6" class="node">
<title>5</title>
<text text-anchor="start" x="68" y="-99.8" font-family="Arial" font-weight="bold" font-size="14.00"> &lt; 27.12</text>
<path fill="#f8766d" fill-opacity="0.752941" stroke="transparent" d="M52,-27C52,-27 134,-27 134,-27 140,-27 146,-33 146,-39 146,-39 146,-79 146,-79 146,-85 140,-91 134,-91 134,-91 52,-91 52,-91 46,-91 40,-85 40,-79 40,-79 40,-39 40,-39 40,-33 46,-27 52,-27"/>
<text text-anchor="start" x="41" y="-88.4" font-family="Arial" font-size="2.00"> </text>
<text text-anchor="start" x="41" y="-82.4" font-family="Arial" font-size="7.00"> &#160;5</text>
<text text-anchor="start" x="55" y="-65.8" font-family="Arial" font-weight="bold" font-size="14.00">Predict 26.4</text>
<text text-anchor="start" x="73" y="-48.8" font-family="Arial" font-weight="bold" font-size="14.00">n = 22</text>
<text text-anchor="start" x="91.5" y="-30.8" font-family="Arial" font-size="9.00"> </text>
<path fill="none" stroke="#333333" d="M52,-27C52,-27 134,-27 134,-27 140,-27 146,-33 146,-39 146,-39 146,-79 146,-79 146,-85 140,-91 134,-91 134,-91 52,-91 52,-91 46,-91 40,-85 40,-79 40,-79 40,-39 40,-39 40,-33 46,-27 52,-27"/>
<text text-anchor="start" x="91" y="-12.8" font-family="Arial" font-weight="bold" font-size="14.00"> </text>
</g>
<!-- 4&#45;&gt;5 -->
<g id="edge5" class="edge">
<title>4&#45;&gt;5</title>
<path fill="none" stroke="#888888" d="M182.35,-153.67C173.59,-144.49 164.49,-134.94 155.58,-125.6"/>
<polygon fill="#888888" stroke="#888888" points="157.93,-123 148.5,-118.18 152.87,-127.83 157.93,-123"/>
</g>
<!-- 6 -->
<g id="node7" class="node">
<title>6</title>
<text text-anchor="start" x="220.5" y="-99.8" font-family="Arial" font-weight="bold" font-size="14.00"> ≥ 27.12</text>
<path fill="#f8766d" fill-opacity="0.666667" stroke="transparent" d="M200,-27C200,-27 290,-27 290,-27 296,-27 302,-33 302,-39 302,-39 302,-79 302,-79 302,-85 296,-91 290,-91 290,-91 200,-91 200,-91 194,-91 188,-85 188,-79 188,-79 188,-39 188,-39 188,-33 194,-27 200,-27"/>
<text text-anchor="start" x="189" y="-88.4" font-family="Arial" font-size="2.00"> </text>
<text text-anchor="start" x="189" y="-82.4" font-family="Arial" font-size="7.00"> &#160;6</text>
<text text-anchor="start" x="203" y="-65.8" font-family="Arial" font-weight="bold" font-size="14.00">Predict 28.33</text>
<text text-anchor="start" x="225" y="-48.8" font-family="Arial" font-weight="bold" font-size="14.00">n = 20</text>
<text text-anchor="start" x="243.5" y="-30.8" font-family="Arial" font-size="9.00"> </text>
<path fill="none" stroke="#333333" d="M200,-27C200,-27 290,-27 290,-27 296,-27 302,-33 302,-39 302,-39 302,-79 302,-79 302,-85 296,-91 290,-91 290,-91 200,-91 200,-91 194,-91 188,-85 188,-79 188,-79 188,-39 188,-39 188,-33 194,-27 200,-27"/>
<text text-anchor="start" x="243" y="-12.8" font-family="Arial" font-weight="bold" font-size="14.00"> </text>
</g>
<!-- 4&#45;&gt;6 -->
<g id="edge6" class="edge">
<title>4&#45;&gt;6</title>
<path fill="none" stroke="#888888" d="M240.69,-153.67C241.07,-145.39 241.46,-136.83 241.85,-128.38"/>
<polygon fill="#888888" stroke="#888888" points="245.36,-128.33 242.32,-118.18 238.36,-128 245.36,-128.33"/>
</g>
<!-- 9 -->
<g id="node10" class="node">
<title>9</title>
<text text-anchor="start" x="387" y="-99.8" font-family="Arial" font-weight="bold" font-size="14.00"> &lt; 31.19</text>
<path fill="#f8766d" fill-opacity="0.596078" stroke="transparent" d="M371,-27C371,-27 453,-27 453,-27 459,-27 465,-33 465,-39 465,-39 465,-79 465,-79 465,-85 459,-91 453,-91 453,-91 371,-91 371,-91 365,-91 359,-85 359,-79 359,-79 359,-39 359,-39 359,-33 365,-27 371,-27"/>
<text text-anchor="start" x="360" y="-88.4" font-family="Arial" font-size="2.00"> </text>
<text text-anchor="start" x="360" y="-82.4" font-family="Arial" font-size="7.00"> &#160;9</text>
<text text-anchor="start" x="374" y="-65.8" font-family="Arial" font-weight="bold" font-size="14.00">Predict 29.9</text>
<text text-anchor="start" x="396" y="-48.8" font-family="Arial" font-weight="bold" font-size="14.00">n = 9</text>
<text text-anchor="start" x="410.5" y="-30.8" font-family="Arial" font-size="9.00"> </text>
<path fill="none" stroke="#333333" d="M371,-27C371,-27 453,-27 453,-27 459,-27 465,-33 465,-39 465,-39 465,-79 465,-79 465,-85 459,-91 453,-91 453,-91 371,-91 371,-91 365,-91 359,-85 359,-79 359,-79 359,-39 359,-39 359,-33 365,-27 371,-27"/>
<text text-anchor="start" x="410" y="-12.8" font-family="Arial" font-weight="bold" font-size="14.00"> </text>
</g>
<!-- 8&#45;&gt;9 -->
<g id="edge9" class="edge">
<title>8&#45;&gt;9</title>
<path fill="none" stroke="#888888" d="M416.93,-153.67C416.49,-145.39 416.04,-136.83 415.6,-128.38"/>
<polygon fill="#888888" stroke="#888888" points="419.08,-127.98 415.06,-118.18 412.09,-128.35 419.08,-127.98"/>
</g>
<!-- 10 -->
<g id="node11" class="node">
<title>10</title>
<text text-anchor="start" x="539.5" y="-99.8" font-family="Arial" font-weight="bold" font-size="14.00"> ≥ 31.19</text>
<path fill="#f8766d" fill-opacity="0.376471" stroke="transparent" d="M519,-27C519,-27 609,-27 609,-27 615,-27 621,-33 621,-39 621,-39 621,-79 621,-79 621,-85 615,-91 609,-91 609,-91 519,-91 519,-91 513,-91 507,-85 507,-79 507,-79 507,-39 507,-39 507,-33 513,-27 519,-27"/>
<text text-anchor="start" x="508" y="-88.4" font-family="Arial" font-size="2.00"> </text>
<text text-anchor="start" x="508" y="-82.4" font-family="Arial" font-size="7.00"> &#160;10</text>
<text text-anchor="start" x="522" y="-65.8" font-family="Arial" font-weight="bold" font-size="14.00">Predict 34.98</text>
<text text-anchor="start" x="544" y="-48.8" font-family="Arial" font-weight="bold" font-size="14.00">n = 25</text>
<text text-anchor="start" x="562.5" y="-30.8" font-family="Arial" font-size="9.00"> </text>
<path fill="none" stroke="#333333" d="M519,-27C519,-27 609,-27 609,-27 615,-27 621,-33 621,-39 621,-39 621,-79 621,-79 621,-85 615,-91 609,-91 609,-91 519,-91 519,-91 513,-91 507,-85 507,-79 507,-79 507,-39 507,-39 507,-33 513,-27 519,-27"/>
<text text-anchor="start" x="562" y="-12.8" font-family="Arial" font-weight="bold" font-size="14.00"> </text>
</g>
<!-- 8&#45;&gt;10 -->
<g id="edge10" class="edge">
<title>8&#45;&gt;10</title>
<path fill="none" stroke="#888888" d="M475.26,-153.67C483.96,-144.49 493.01,-134.94 501.85,-125.6"/>
<polygon fill="#888888" stroke="#888888" points="504.55,-127.84 508.89,-118.18 499.47,-123.03 504.55,-127.84"/>
</g>
</g>
</svg>
