<?xml version="1.0" encoding="UTF-8" standalone="no"?>
<!DOCTYPE svg PUBLIC "-//W3C//DTD SVG 1.1//EN"
 "http://www.w3.org/Graphics/SVG/1.1/DTD/svg11.dtd">
<!-- Generated by graphviz version 2.50.0 (20211204.2007)
 -->
<!-- Pages: 1 -->
<svg width="650pt" height="588pt"
 viewBox="0.00 0.00 650.00 588.00" xmlns="http://www.w3.org/2000/svg" xmlns:xlink="http://www.w3.org/1999/xlink">
<g id="graph0" class="graph" transform="scale(1 1) rotate(0) translate(4 584)">
<polygon fill="white" stroke="transparent" points="-4,4 -4,-584 646,-584 646,4 -4,4"/>
<!-- 1 -->
<g id="node1" class="node">
<title>1</title>
<text text-anchor="start" x="319" y="-561.8" font-family="Arial" font-weight="bold" font-size="14.00"> </text>
<text text-anchor="start" x="253" y="-517.3" font-family="Arial" font-size="14.00"> &#160;&#160;</text>
<path fill="#ebebeb" stroke="transparent" d="M279,-489C279,-489 363,-489 363,-489 369,-489 375,-495 375,-501 375,-501 375,-541 375,-541 375,-547 369,-553 363,-553 363,-553 279,-553 279,-553 273,-553 267,-547 267,-541 267,-541 267,-501 267,-501 267,-495 273,-489 279,-489"/>
<text text-anchor="start" x="268" y="-550.4" font-family="Arial" font-size="2.00"> </text>
<text text-anchor="start" x="268" y="-544.4" font-family="Arial" font-size="7.00"> &#160;1</text>
<text text-anchor="start" x="282" y="-527.8" font-family="Arial" font-weight="bold" font-size="14.00">Mean: 28.91</text>
<text text-anchor="start" x="297.5" y="-510.8" font-family="Arial" font-weight="bold" font-size="14.00">n = 168</text>
<text text-anchor="start" x="319.5" y="-492.8" font-family="Arial" font-size="9.00"> </text>
<path fill="none" stroke="#333333" d="M279,-489C279,-489 363,-489 363,-489 369,-489 375,-495 375,-501 375,-501 375,-541 375,-541 375,-547 369,-553 363,-553 363,-553 279,-553 279,-553 273,-553 267,-547 267,-541 267,-541 267,-501 267,-501 267,-495 273,-489 279,-489"/>
<text text-anchor="start" x="377" y="-517.3" font-family="Arial" font-size="14.00"> &#160;&#160;</text>
<text text-anchor="start" x="268" y="-474.8" font-family="Arial" font-weight="bold" font-size="14.00">prev_168_inflow</text>
</g>
<!-- 2 -->
<g id="node2" class="node">
<title>2</title>
<text text-anchor="start" x="209" y="-407.8" font-family="Arial" font-weight="bold" font-size="14.00"> &lt; 28.62</text>
<text text-anchor="start" x="166" y="-363.3" font-family="Arial" font-size="14.00"> &#160;&#160;</text>
<path fill="#ebebeb" stroke="transparent" d="M192,-335C192,-335 276,-335 276,-335 282,-335 288,-341 288,-347 288,-347 288,-387 288,-387 288,-393 282,-399 276,-399 276,-399 192,-399 192,-399 186,-399 180,-393 180,-387 180,-387 180,-347 180,-347 180,-341 186,-335 192,-335"/>
<text text-anchor="start" x="181" y="-396.4" font-family="Arial" font-size="2.00"> </text>
<text text-anchor="start" x="181" y="-390.4" font-family="Arial" font-size="7.00"> &#160;2</text>
<text text-anchor="start" x="195" y="-373.8" font-family="Arial" font-weight="bold" font-size="14.00">Mean: 25.38</text>
<text text-anchor="start" x="214" y="-356.8" font-family="Arial" font-weight="bold" font-size="14.00">n = 87</text>
<text text-anchor="start" x="232.5" y="-338.8" font-family="Arial" font-size="9.00"> </text>
<path fill="none" stroke="#333333" d="M192,-335C192,-335 276,-335 276,-335 282,-335 288,-341 288,-347 288,-347 288,-387 288,-387 288,-393 282,-399 276,-399 276,-399 192,-399 192,-399 186,-399 180,-393 180,-387 180,-387 180,-347 180,-347 180,-341 186,-335 192,-335"/>
<text text-anchor="start" x="290" y="-363.3" font-family="Arial" font-size="14.00"> &#160;&#160;</text>
<text text-anchor="start" x="181" y="-320.8" font-family="Arial" font-weight="bold" font-size="14.00">prev_168_inflow</text>
</g>
<!-- 1&#45;&gt;2 -->
<g id="edge1" class="edge">
<title>1&#45;&gt;2</title>
<path fill="none" stroke="#888888" d="M287.61,-461.67C282.62,-452.94 277.43,-443.88 272.34,-434.99"/>
<polygon fill="#888888" stroke="#888888" points="275.3,-433.12 267.3,-426.18 269.23,-436.59 275.3,-433.12"/>
</g>
<!-- 7 -->
<g id="node3" class="node">
<title>7</title>
<text text-anchor="start" x="383.5" y="-407.8" font-family="Arial" font-weight="bold" font-size="14.00"> ≥ 28.62</text>
<path fill="#ebebeb" stroke="transparent" d="M366,-335C366,-335 450,-335 450,-335 456,-335 462,-341 462,-347 462,-347 462,-387 462,-387 462,-393 456,-399 450,-399 450,-399 366,-399 366,-399 360,-399 354,-393 354,-387 354,-387 354,-347 354,-347 354,-341 360,-335 366,-335"/>
<text text-anchor="start" x="355" y="-396.4" font-family="Arial" font-size="2.00"> </text>
<text text-anchor="start" x="355" y="-390.4" font-family="Arial" font-size="7.00"> &#160;7</text>
<text text-anchor="start" x="369" y="-373.8" font-family="Arial" font-weight="bold" font-size="14.00">Mean: 32.69</text>
<text text-anchor="start" x="388" y="-356.8" font-family="Arial" font-weight="bold" font-size="14.00">n = 81</text>
<text text-anchor="start" x="406.5" y="-338.8" font-family="Arial" font-size="9.00"> </text>
<path fill="none" stroke="#333333" d="M366,-335C366,-335 450,-335 450,-335 456,-335 462,-341 462,-347 462,-347 462,-387 462,-387 462,-393 456,-399 450,-399 450,-399 366,-399 366,-399 360,-399 354,-393 354,-387 354,-387 354,-347 354,-347 354,-341 360,-335 366,-335"/>
<text text-anchor="start" x="393.5" y="-320.8" font-family="Arial" font-weight="bold" font-size="14.00">time</text>
</g>
<!-- 1&#45;&gt;7 -->
<g id="edge2" class="edge">
<title>1&#45;&gt;7</title>
<path fill="none" stroke="#888888" d="M354.39,-461.67C359.38,-452.94 364.57,-443.88 369.66,-434.99"/>
<polygon fill="#888888" stroke="#888888" points="372.77,-436.59 374.7,-426.18 366.7,-433.12 372.77,-436.59"/>
</g>
<!-- 3 -->
<g id="node4" class="node">
<title>3</title>
<text text-anchor="start" x="44" y="-253.8" font-family="Arial" font-weight="bold" font-size="14.00"> &lt; 25.21</text>
<path fill="#f8766d" fill-opacity="0.874510" stroke="transparent" d="M24,-181C24,-181 114,-181 114,-181 120,-181 126,-187 126,-193 126,-193 126,-233 126,-233 126,-239 120,-245 114,-245 114,-245 24,-245 24,-245 18,-245 12,-239 12,-233 12,-233 12,-193 12,-193 12,-187 18,-181 24,-181"/>
<text text-anchor="start" x="13" y="-242.4" font-family="Arial" font-size="2.00"> </text>
<text text-anchor="start" x="13" y="-236.4" font-family="Arial" font-size="7.00"> &#160;3</text>
<text text-anchor="start" x="27" y="-219.8" font-family="Arial" font-weight="bold" font-size="14.00">Predict 23.57</text>
<text text-anchor="start" x="49" y="-202.8" font-family="Arial" font-weight="bold" font-size="14.00">n = 45</text>
<text text-anchor="start" x="67.5" y="-184.8" font-family="Arial" font-size="9.00"> </text>
<path fill="none" stroke="#333333" d="M24,-181C24,-181 114,-181 114,-181 120,-181 126,-187 126,-193 126,-193 126,-233 126,-233 126,-239 120,-245 114,-245 114,-245 24,-245 24,-245 18,-245 12,-239 12,-233 12,-233 12,-193 12,-193 12,-187 18,-181 24,-181"/>
<text text-anchor="start" x="67" y="-166.8" font-family="Arial" font-weight="bold" font-size="14.00"> </text>
</g>
<!-- 2&#45;&gt;3 -->
<g id="edge3" class="edge">
<title>2&#45;&gt;3</title>
<path fill="none" stroke="#888888" d="M170.68,-307.67C160.51,-298.3 149.94,-288.56 139.61,-279.05"/>
<polygon fill="#888888" stroke="#888888" points="141.88,-276.38 132.15,-272.18 137.14,-281.53 141.88,-276.38"/>
</g>
<!-- 4 -->
<g id="node5" class="node">
<title>4</title>
<text text-anchor="start" x="209.5" y="-253.8" font-family="Arial" font-weight="bold" font-size="14.00"> ≥ 25.21</text>
<text text-anchor="start" x="166" y="-209.3" font-family="Arial" font-size="14.00"> &#160;&#160;</text>
<path fill="#ebebeb" stroke="transparent" d="M192,-181C192,-181 276,-181 276,-181 282,-181 288,-187 288,-193 288,-193 288,-233 288,-233 288,-239 282,-245 276,-245 276,-245 192,-245 192,-245 186,-245 180,-239 180,-233 180,-233 180,-193 180,-193 180,-187 186,-181 192,-181"/>
<text text-anchor="start" x="181" y="-242.4" font-family="Arial" font-size="2.00"> </text>
<text text-anchor="start" x="181" y="-236.4" font-family="Arial" font-size="7.00"> &#160;4</text>
<text text-anchor="start" x="195" y="-219.8" font-family="Arial" font-weight="bold" font-size="14.00">Mean: 27.32</text>
<text text-anchor="start" x="214" y="-202.8" font-family="Arial" font-weight="bold" font-size="14.00">n = 42</text>
<text text-anchor="start" x="232.5" y="-184.8" font-family="Arial" font-size="9.00"> </text>
<path fill="none" stroke="#333333" d="M192,-181C192,-181 276,-181 276,-181 282,-181 288,-187 288,-193 288,-193 288,-233 288,-233 288,-239 282,-245 276,-245 276,-245 192,-245 192,-245 186,-245 180,-239 180,-233 180,-233 180,-193 180,-193 180,-187 186,-181 192,-181"/>
<text text-anchor="start" x="290" y="-209.3" font-family="Arial" font-size="14.00"> &#160;&#160;</text>
<text text-anchor="start" x="181" y="-166.8" font-family="Arial" font-weight="bold" font-size="14.00">prev_168_inflow</text>
</g>
<!-- 2&#45;&gt;4 -->
<g id="edge4" class="edge">
<title>2&#45;&gt;4</title>
<path fill="none" stroke="#888888" d="M234,-307.67C234,-299.39 234,-290.83 234,-282.38"/>
<polygon fill="#888888" stroke="#888888" points="237.5,-282.18 234,-272.18 230.5,-282.18 237.5,-282.18"/>
</g>
<!-- 8 -->
<g id="node8" class="node">
<title>8</title>
<text text-anchor="start" x="387" y="-253.8" font-family="Arial" font-weight="bold" font-size="14.00"> &lt; 11.5</text>
<text text-anchor="start" x="340" y="-209.3" font-family="Arial" font-size="14.00"> &#160;&#160;</text>
<path fill="#ebebeb" stroke="transparent" d="M366,-181C366,-181 450,-181 450,-181 456,-181 462,-187 462,-193 462,-193 462,-233 462,-233 462,-239 456,-245 450,-245 450,-245 366,-245 366,-245 360,-245 354,-239 354,-233 354,-233 354,-193 354,-193 354,-187 360,-181 366,-181"/>
<text text-anchor="start" x="355" y="-242.4" font-family="Arial" font-size="2.00"> </text>
<text text-anchor="start" x="355" y="-236.4" font-family="Arial" font-size="7.00"> &#160;8</text>
<text text-anchor="start" x="369" y="-219.8" font-family="Arial" font-weight="bold" font-size="14.00">Mean: 33.64</text>
<text text-anchor="start" x="388" y="-202.8" font-family="Arial" font-weight="bold" font-size="14.00">n = 34</text>
<text text-anchor="start" x="406.5" y="-184.8" font-family="Arial" font-size="9.00"> </text>
<path fill="none" stroke="#333333" d="M366,-181C366,-181 450,-181 450,-181 456,-181 462,-187 462,-193 462,-193 462,-233 462,-233 462,-239 456,-245 450,-245 450,-245 366,-245 366,-245 360,-245 354,-239 354,-233 354,-233 354,-193 354,-193 354,-187 360,-181 366,-181"/>
<text text-anchor="start" x="464" y="-209.3" font-family="Arial" font-size="14.00"> &#160;&#160;</text>
<text text-anchor="start" x="355" y="-166.8" font-family="Arial" font-weight="bold" font-size="14.00">prev_168_inflow</text>
</g>
<!-- 7&#45;&gt;8 -->
<g id="edge7" class="edge">
<title>7&#45;&gt;8</title>
<path fill="none" stroke="#888888" d="M408,-307.67C408,-299.39 408,-290.83 408,-282.38"/>
<polygon fill="#888888" stroke="#888888" points="411.5,-282.18 408,-272.18 404.5,-282.18 411.5,-282.18"/>
</g>
<!-- 11 -->
<g id="node9" class="node">
<title>11</title>
<text text-anchor="start" x="552.5" y="-253.8" font-family="Arial" font-weight="bold" font-size="14.00"> ≥ 11.5</text>
<path fill="#f8766d" fill-opacity="0.505882" stroke="transparent" d="M528,-181C528,-181 618,-181 618,-181 624,-181 630,-187 630,-193 630,-193 630,-233 630,-233 630,-239 624,-245 618,-245 618,-245 528,-245 528,-245 522,-245 516,-239 516,-233 516,-233 516,-193 516,-193 516,-187 522,-181 528,-181"/>
<text text-anchor="start" x="517" y="-242.4" font-family="Arial" font-size="2.00"> </text>
<text text-anchor="start" x="517" y="-236.4" font-family="Arial" font-size="7.00"> &#160;11</text>
<text text-anchor="start" x="531" y="-219.8" font-family="Arial" font-weight="bold" font-size="14.00">Predict 32.01</text>
<text text-anchor="start" x="553" y="-202.8" font-family="Arial" font-weight="bold" font-size="14.00">n = 47</text>
<text text-anchor="start" x="571.5" y="-184.8" font-family="Arial" font-size="9.00"> </text>
<path fill="none" stroke="#333333" d="M528,-181C528,-181 618,-181 618,-181 624,-181 630,-187 630,-193 630,-193 630,-233 630,-233 630,-239 624,-245 618,-245 618,-245 528,-245 528,-245 522,-245 516,-239 516,-233 516,-233 516,-193 516,-193 516,-187 522,-181 528,-181"/>
<text text-anchor="start" x="571" y="-166.8" font-family="Arial" font-weight="bold" font-size="14.00"> </text>
</g>
<!-- 7&#45;&gt;11 -->
<g id="edge8" class="edge">
<title>7&#45;&gt;11</title>
<path fill="none" stroke="#888888" d="M471.32,-307.67C481.49,-298.3 492.06,-288.56 502.39,-279.05"/>
<polygon fill="#888888" stroke="#888888" points="504.86,-281.53 509.85,-272.18 500.12,-276.38 504.86,-281.53"/>
</g>
<!-- 5 -->
<g id="node6" class="node">
<title>5</title>
<text text-anchor="start" x="62" y="-99.8" font-family="Arial" font-weight="bold" font-size="14.00"> &lt; 27.12</text>
<path fill="#f8766d" fill-opacity="0.752941" stroke="transparent" d="M46,-27C46,-27 128,-27 128,-27 134,-27 140,-33 140,-39 140,-39 140,-79 140,-79 140,-85 134,-91 128,-91 128,-91 46,-91 46,-91 40,-91 34,-85 34,-79 34,-79 34,-39 34,-39 34,-33 40,-27 46,-27"/>
<text text-anchor="start" x="35" y="-88.4" font-family="Arial" font-size="2.00"> </text>
<text text-anchor="start" x="35" y="-82.4" font-family="Arial" font-size="7.00"> &#160;5</text>
<text text-anchor="start" x="49" y="-65.8" font-family="Arial" font-weight="bold" font-size="14.00">Predict 26.4</text>
<text text-anchor="start" x="67" y="-48.8" font-family="Arial" font-weight="bold" font-size="14.00">n = 22</text>
<text text-anchor="start" x="85.5" y="-30.8" font-family="Arial" font-size="9.00"> </text>
<path fill="none" stroke="#333333" d="M46,-27C46,-27 128,-27 128,-27 134,-27 140,-33 140,-39 140,-39 140,-79 140,-79 140,-85 134,-91 128,-91 128,-91 46,-91 46,-91 40,-91 34,-85 34,-79 34,-79 34,-39 34,-39 34,-33 40,-27 46,-27"/>
<text text-anchor="start" x="85" y="-12.8" font-family="Arial" font-weight="bold" font-size="14.00"> </text>
</g>
<!-- 4&#45;&gt;5 -->
<g id="edge5" class="edge">
<title>4&#45;&gt;5</title>
<path fill="none" stroke="#888888" d="M177.59,-153.67C168.71,-144.49 159.47,-134.94 150.45,-125.6"/>
<polygon fill="#888888" stroke="#888888" points="152.73,-122.93 143.26,-118.18 147.7,-127.8 152.73,-122.93"/>
</g>
<!-- 6 -->
<g id="node7" class="node">
<title>6</title>
<text text-anchor="start" x="214.5" y="-99.8" font-family="Arial" font-weight="bold" font-size="14.00"> ≥ 27.12</text>
<path fill="#f8766d" fill-opacity="0.666667" stroke="transparent" d="M194,-27C194,-27 284,-27 284,-27 290,-27 296,-33 296,-39 296,-39 296,-79 296,-79 296,-85 290,-91 284,-91 284,-91 194,-91 194,-91 188,-91 182,-85 182,-79 182,-79 182,-39 182,-39 182,-33 188,-27 194,-27"/>
<text text-anchor="start" x="183" y="-88.4" font-family="Arial" font-size="2.00"> </text>
<text text-anchor="start" x="183" y="-82.4" font-family="Arial" font-size="7.00"> &#160;6</text>
<text text-anchor="start" x="197" y="-65.8" font-family="Arial" font-weight="bold" font-size="14.00">Predict 28.33</text>
<text text-anchor="start" x="219" y="-48.8" font-family="Arial" font-weight="bold" font-size="14.00">n = 20</text>
<text text-anchor="start" x="237.5" y="-30.8" font-family="Arial" font-size="9.00"> </text>
<path fill="none" stroke="#333333" d="M194,-27C194,-27 284,-27 284,-27 290,-27 296,-33 296,-39 296,-39 296,-79 296,-79 296,-85 290,-91 284,-91 284,-91 194,-91 194,-91 188,-91 182,-85 182,-79 182,-79 182,-39 182,-39 182,-33 188,-27 194,-27"/>
<text text-anchor="start" x="237" y="-12.8" font-family="Arial" font-weight="bold" font-size="14.00"> </text>
</g>
<!-- 4&#45;&gt;6 -->
<g id="edge6" class="edge">
<title>4&#45;&gt;6</title>
<path fill="none" stroke="#888888" d="M235.92,-153.67C236.19,-145.39 236.47,-136.83 236.75,-128.38"/>
<polygon fill="#888888" stroke="#888888" points="240.26,-128.29 237.09,-118.18 233.26,-128.06 240.26,-128.29"/>
</g>
<!-- 9 -->
<g id="node10" class="node">
<title>9</title>
<text text-anchor="start" x="377" y="-99.8" font-family="Arial" font-weight="bold" font-size="14.00"> &lt; 31.19</text>
<path fill="#f8766d" fill-opacity="0.596078" stroke="transparent" d="M361,-27C361,-27 443,-27 443,-27 449,-27 455,-33 455,-39 455,-39 455,-79 455,-79 455,-85 449,-91 443,-91 443,-91 361,-91 361,-91 355,-91 349,-85 349,-79 349,-79 349,-39 349,-39 349,-33 355,-27 361,-27"/>
<text text-anchor="start" x="350" y="-88.4" font-family="Arial" font-size="2.00"> </text>
<text text-anchor="start" x="350" y="-82.4" font-family="Arial" font-size="7.00"> &#160;9</text>
<text text-anchor="start" x="364" y="-65.8" font-family="Arial" font-weight="bold" font-size="14.00">Predict 29.9</text>
<text text-anchor="start" x="386" y="-48.8" font-family="Arial" font-weight="bold" font-size="14.00">n = 9</text>
<text text-anchor="start" x="400.5" y="-30.8" font-family="Arial" font-size="9.00"> </text>
<path fill="none" stroke="#333333" d="M361,-27C361,-27 443,-27 443,-27 449,-27 455,-33 455,-39 455,-39 455,-79 455,-79 455,-85 449,-91 443,-91 443,-91 361,-91 361,-91 355,-91 349,-85 349,-79 349,-79 349,-39 349,-39 349,-33 355,-27 361,-27"/>
<text text-anchor="start" x="400" y="-12.8" font-family="Arial" font-weight="bold" font-size="14.00"> </text>
</g>
<!-- 8&#45;&gt;9 -->
<g id="edge9" class="edge">
<title>8&#45;&gt;9</title>
<path fill="none" stroke="#888888" d="M405.7,-153.67C405.37,-145.39 405.03,-136.83 404.7,-128.38"/>
<polygon fill="#888888" stroke="#888888" points="408.19,-128.03 404.3,-118.18 401.19,-128.31 408.19,-128.03"/>
</g>
<!-- 10 -->
<g id="node11" class="node">
<title>10</title>
<text text-anchor="start" x="529.5" y="-99.8" font-family="Arial" font-weight="bold" font-size="14.00"> ≥ 31.19</text>
<path fill="#f8766d" fill-opacity="0.376471" stroke="transparent" d="M509,-27C509,-27 599,-27 599,-27 605,-27 611,-33 611,-39 611,-39 611,-79 611,-79 611,-85 605,-91 599,-91 599,-91 509,-91 509,-91 503,-91 497,-85 497,-79 497,-79 497,-39 497,-39 497,-33 503,-27 509,-27"/>
<text text-anchor="start" x="498" y="-88.4" font-family="Arial" font-size="2.00"> </text>
<text text-anchor="start" x="498" y="-82.4" font-family="Arial" font-size="7.00"> &#160;10</text>
<text text-anchor="start" x="512" y="-65.8" font-family="Arial" font-weight="bold" font-size="14.00">Predict 34.98</text>
<text text-anchor="start" x="534" y="-48.8" font-family="Arial" font-weight="bold" font-size="14.00">n = 25</text>
<text text-anchor="start" x="552.5" y="-30.8" font-family="Arial" font-size="9.00"> </text>
<path fill="none" stroke="#333333" d="M509,-27C509,-27 599,-27 599,-27 605,-27 611,-33 611,-39 611,-39 611,-79 611,-79 611,-85 605,-91 599,-91 599,-91 509,-91 509,-91 503,-91 497,-85 497,-79 497,-79 497,-39 497,-39 497,-33 503,-27 509,-27"/>
<text text-anchor="start" x="552" y="-12.8" font-family="Arial" font-weight="bold" font-size="14.00"> </text>
</g>
<!-- 8&#45;&gt;10 -->
<g id="edge10" class="edge">
<title>8&#45;&gt;10</title>
<path fill="none" stroke="#888888" d="M464.03,-153.67C472.85,-144.49 482.02,-134.94 490.98,-125.6"/>
<polygon fill="#888888" stroke="#888888" points="493.72,-127.81 498.12,-118.18 488.67,-122.96 493.72,-127.81"/>
</g>
</g>
</svg>
