<?xml version="1.0" encoding="UTF-8" standalone="no"?>
<!DOCTYPE svg PUBLIC "-//W3C//DTD SVG 1.1//EN"
 "http://www.w3.org/Graphics/SVG/1.1/DTD/svg11.dtd">
<!-- Generated by graphviz version 2.50.0 (20211204.2007)
 -->
<!-- Pages: 1 -->
<svg width="1496pt" height="742pt"
 viewBox="0.00 0.00 1496.00 742.00" xmlns="http://www.w3.org/2000/svg" xmlns:xlink="http://www.w3.org/1999/xlink">
<g id="graph0" class="graph" transform="scale(1 1) rotate(0) translate(4 738)">
<polygon fill="white" stroke="transparent" points="-4,4 -4,-738 1492,-738 1492,4 -4,4"/>
<!-- 1 -->
<g id="node1" class="node">
<title>1</title>
<text text-anchor="start" x="728" y="-715.8" font-family="Arial" font-weight="bold" font-size="14.00"> </text>
<text text-anchor="start" x="662" y="-671.3" font-family="Arial" font-size="14.00"> &#160;&#160;</text>
<path fill="#ebebeb" stroke="transparent" d="M688,-643C688,-643 772,-643 772,-643 778,-643 784,-649 784,-655 784,-655 784,-695 784,-695 784,-701 778,-707 772,-707 772,-707 688,-707 688,-707 682,-707 676,-701 676,-695 676,-695 676,-655 676,-655 676,-649 682,-643 688,-643"/>
<text text-anchor="start" x="677" y="-704.4" font-family="Arial" font-size="2.00"> </text>
<text text-anchor="start" x="677" y="-698.4" font-family="Arial" font-size="7.00"> &#160;1</text>
<text text-anchor="start" x="691" y="-681.8" font-family="Arial" font-weight="bold" font-size="14.00">Mean: 21.81</text>
<text text-anchor="start" x="706.5" y="-664.8" font-family="Arial" font-weight="bold" font-size="14.00">n = 672</text>
<text text-anchor="start" x="728.5" y="-646.8" font-family="Arial" font-size="9.00"> </text>
<path fill="none" stroke="#333333" d="M688,-643C688,-643 772,-643 772,-643 778,-643 784,-649 784,-655 784,-655 784,-695 784,-695 784,-701 778,-707 772,-707 772,-707 688,-707 688,-707 682,-707 676,-701 676,-695 676,-695 676,-655 676,-655 676,-649 682,-643 688,-643"/>
<text text-anchor="start" x="786" y="-671.3" font-family="Arial" font-size="14.00"> &#160;&#160;</text>
<text text-anchor="start" x="677" y="-628.8" font-family="Arial" font-weight="bold" font-size="14.00">prev_168_inflow</text>
</g>
<!-- 2 -->
<g id="node2" class="node">
<title>2</title>
<text text-anchor="start" x="624" y="-561.8" font-family="Arial" font-weight="bold" font-size="14.00"> &lt; 24.67</text>
<path fill="#ebebeb" stroke="transparent" d="M607,-489C607,-489 691,-489 691,-489 697,-489 703,-495 703,-501 703,-501 703,-541 703,-541 703,-547 697,-553 691,-553 691,-553 607,-553 607,-553 601,-553 595,-547 595,-541 595,-541 595,-501 595,-501 595,-495 601,-489 607,-489"/>
<text text-anchor="start" x="596" y="-550.4" font-family="Arial" font-size="2.00"> </text>
<text text-anchor="start" x="596" y="-544.4" font-family="Arial" font-size="7.00"> &#160;2</text>
<text text-anchor="start" x="610" y="-527.8" font-family="Arial" font-weight="bold" font-size="14.00">Mean: 20.87</text>
<text text-anchor="start" x="625.5" y="-510.8" font-family="Arial" font-weight="bold" font-size="14.00">n = 540</text>
<text text-anchor="start" x="647.5" y="-492.8" font-family="Arial" font-size="9.00"> </text>
<path fill="none" stroke="#333333" d="M607,-489C607,-489 691,-489 691,-489 697,-489 703,-495 703,-501 703,-501 703,-541 703,-541 703,-547 697,-553 691,-553 691,-553 607,-553 607,-553 601,-553 595,-547 595,-541 595,-541 595,-501 595,-501 595,-495 601,-489 607,-489"/>
<text text-anchor="start" x="606.5" y="-474.8" font-family="Arial" font-weight="bold" font-size="14.00">day_of_week</text>
</g>
<!-- 1&#45;&gt;2 -->
<g id="edge1" class="edge">
<title>1&#45;&gt;2</title>
<path fill="none" stroke="#888888" d="M698.91,-615.67C694.31,-607.03 689.54,-598.07 684.85,-589.27"/>
<polygon fill="#888888" stroke="#888888" points="687.79,-587.36 680,-580.18 681.62,-590.65 687.79,-587.36"/>
</g>
<!-- 13 -->
<g id="node3" class="node">
<title>13</title>
<text text-anchor="start" x="854.5" y="-561.8" font-family="Arial" font-weight="bold" font-size="14.00"> ≥ 24.67</text>
<path fill="#ebebeb" stroke="transparent" d="M837,-489C837,-489 921,-489 921,-489 927,-489 933,-495 933,-501 933,-501 933,-541 933,-541 933,-547 927,-553 921,-553 921,-553 837,-553 837,-553 831,-553 825,-547 825,-541 825,-541 825,-501 825,-501 825,-495 831,-489 837,-489"/>
<text text-anchor="start" x="826" y="-550.4" font-family="Arial" font-size="2.00"> </text>
<text text-anchor="start" x="826" y="-544.4" font-family="Arial" font-size="7.00"> &#160;13</text>
<text text-anchor="start" x="840" y="-527.8" font-family="Arial" font-weight="bold" font-size="14.00">Mean: 25.67</text>
<text text-anchor="start" x="855.5" y="-510.8" font-family="Arial" font-weight="bold" font-size="14.00">n = 132</text>
<text text-anchor="start" x="877.5" y="-492.8" font-family="Arial" font-size="9.00"> </text>
<path fill="none" stroke="#333333" d="M837,-489C837,-489 921,-489 921,-489 927,-489 933,-495 933,-501 933,-501 933,-541 933,-541 933,-547 927,-553 921,-553 921,-553 837,-553 837,-553 831,-553 825,-547 825,-541 825,-541 825,-501 825,-501 825,-495 831,-489 837,-489"/>
<text text-anchor="start" x="857.5" y="-474.8" font-family="Arial" font-weight="bold" font-size="14.00">month</text>
</g>
<!-- 1&#45;&gt;13 -->
<g id="edge2" class="edge">
<title>1&#45;&gt;13</title>
<path fill="none" stroke="#888888" d="M787.18,-615.67C796.27,-606.39 805.73,-596.75 814.96,-587.33"/>
<polygon fill="#888888" stroke="#888888" points="817.47,-589.77 821.97,-580.18 812.47,-584.87 817.47,-589.77"/>
</g>
<!-- 3 -->
<g id="node4" class="node">
<title>3</title>
<text text-anchor="start" x="367.5" y="-407.8" font-family="Arial" font-weight="bold" font-size="14.00"> &lt; 5.5</text>
<path fill="#ebebeb" stroke="transparent" d="M347,-335C347,-335 423,-335 423,-335 429,-335 435,-341 435,-347 435,-347 435,-387 435,-387 435,-393 429,-399 423,-399 423,-399 347,-399 347,-399 341,-399 335,-393 335,-387 335,-387 335,-347 335,-347 335,-341 341,-335 347,-335"/>
<text text-anchor="start" x="336" y="-396.4" font-family="Arial" font-size="2.00"> </text>
<text text-anchor="start" x="336" y="-390.4" font-family="Arial" font-size="7.00"> &#160;3</text>
<text text-anchor="start" x="350" y="-373.8" font-family="Arial" font-weight="bold" font-size="14.00">Mean: 21.8</text>
<text text-anchor="start" x="361.5" y="-356.8" font-family="Arial" font-weight="bold" font-size="14.00">n = 348</text>
<text text-anchor="start" x="383.5" y="-338.8" font-family="Arial" font-size="9.00"> </text>
<path fill="none" stroke="#333333" d="M347,-335C347,-335 423,-335 423,-335 429,-335 435,-341 435,-347 435,-347 435,-387 435,-387 435,-393 429,-399 423,-399 423,-399 347,-399 347,-399 341,-399 335,-393 335,-387 335,-387 335,-347 335,-347 335,-341 341,-335 347,-335"/>
<text text-anchor="start" x="370.5" y="-320.8" font-family="Arial" font-weight="bold" font-size="14.00">time</text>
</g>
<!-- 2&#45;&gt;3 -->
<g id="edge3" class="edge">
<title>2&#45;&gt;3</title>
<path fill="none" stroke="#888888" d="M582.72,-481.84C544.1,-459.6 495.4,-431.56 455.99,-408.87"/>
<polygon fill="#888888" stroke="#888888" points="457.63,-405.78 447.22,-403.82 454.14,-411.85 457.63,-405.78"/>
</g>
<!-- 10 -->
<g id="node5" class="node">
<title>10</title>
<text text-anchor="start" x="632" y="-407.8" font-family="Arial" font-weight="bold" font-size="14.00"> ≥ 5.5</text>
<text text-anchor="start" x="581" y="-363.3" font-family="Arial" font-size="14.00"> &#160;&#160;</text>
<path fill="#ebebeb" stroke="transparent" d="M607,-335C607,-335 691,-335 691,-335 697,-335 703,-341 703,-347 703,-347 703,-387 703,-387 703,-393 697,-399 691,-399 691,-399 607,-399 607,-399 601,-399 595,-393 595,-387 595,-387 595,-347 595,-347 595,-341 601,-335 607,-335"/>
<text text-anchor="start" x="596" y="-396.4" font-family="Arial" font-size="2.00"> </text>
<text text-anchor="start" x="596" y="-390.4" font-family="Arial" font-size="7.00"> &#160;10</text>
<text text-anchor="start" x="610" y="-373.8" font-family="Arial" font-weight="bold" font-size="14.00">Mean: 19.18</text>
<text text-anchor="start" x="625.5" y="-356.8" font-family="Arial" font-weight="bold" font-size="14.00">n = 192</text>
<text text-anchor="start" x="647.5" y="-338.8" font-family="Arial" font-size="9.00"> </text>
<path fill="none" stroke="#333333" d="M607,-335C607,-335 691,-335 691,-335 697,-335 703,-341 703,-347 703,-347 703,-387 703,-387 703,-393 697,-399 691,-399 691,-399 607,-399 607,-399 601,-399 595,-393 595,-387 595,-387 595,-347 595,-347 595,-341 601,-335 607,-335"/>
<text text-anchor="start" x="705" y="-363.3" font-family="Arial" font-size="14.00"> &#160;&#160;</text>
<text text-anchor="start" x="596" y="-320.8" font-family="Arial" font-weight="bold" font-size="14.00">prev_168_inflow</text>
</g>
<!-- 2&#45;&gt;10 -->
<g id="edge4" class="edge">
<title>2&#45;&gt;10</title>
<path fill="none" stroke="#888888" d="M649,-461.67C649,-453.39 649,-444.83 649,-436.38"/>
<polygon fill="#888888" stroke="#888888" points="652.5,-436.18 649,-426.18 645.5,-436.18 652.5,-436.18"/>
</g>
<!-- 14 -->
<g id="node14" class="node">
<title>14</title>
<text text-anchor="start" x="862" y="-407.8" font-family="Arial" font-weight="bold" font-size="14.00"> &lt; 6.5</text>
<path fill="#ebebeb" stroke="transparent" d="M838,-335C838,-335 921,-335 921,-335 927,-335 933,-341 933,-347 933,-347 933,-387 933,-387 933,-393 927,-399 921,-399 921,-399 838,-399 838,-399 832,-399 826,-393 826,-387 826,-387 826,-347 826,-347 826,-341 832,-335 838,-335"/>
<text text-anchor="start" x="827" y="-396.4" font-family="Arial" font-size="2.00"> </text>
<text text-anchor="start" x="827" y="-390.4" font-family="Arial" font-size="7.00"> &#160;14</text>
<text text-anchor="start" x="841" y="-373.8" font-family="Arial" font-weight="bold" font-size="14.00">Mean: 27.11</text>
<text text-anchor="start" x="859.5" y="-356.8" font-family="Arial" font-weight="bold" font-size="14.00">n = 28</text>
<text text-anchor="start" x="878" y="-338.8" font-family="Arial" font-size="9.00"> </text>
<path fill="none" stroke="#333333" d="M838,-335C838,-335 921,-335 921,-335 927,-335 933,-341 933,-347 933,-347 933,-387 933,-387 933,-393 927,-399 921,-399 921,-399 838,-399 838,-399 832,-399 826,-393 826,-387 826,-387 826,-347 826,-347 826,-341 832,-335 838,-335"/>
<text text-anchor="start" x="865" y="-320.8" font-family="Arial" font-weight="bold" font-size="14.00">time</text>
</g>
<!-- 13&#45;&gt;14 -->
<g id="edge13" class="edge">
<title>13&#45;&gt;14</title>
<path fill="none" stroke="#888888" d="M879,-461.67C879,-453.39 879,-444.83 879,-436.38"/>
<polygon fill="#888888" stroke="#888888" points="882.5,-436.18 879,-426.18 875.5,-436.18 882.5,-436.18"/>
</g>
<!-- 19 -->
<g id="node15" class="node">
<title>19</title>
<text text-anchor="start" x="1131" y="-407.8" font-family="Arial" font-weight="bold" font-size="14.00"> ≥ 6.5</text>
<path fill="#ebebeb" stroke="transparent" d="M1106,-335C1106,-335 1190,-335 1190,-335 1196,-335 1202,-341 1202,-347 1202,-347 1202,-387 1202,-387 1202,-393 1196,-399 1190,-399 1190,-399 1106,-399 1106,-399 1100,-399 1094,-393 1094,-387 1094,-387 1094,-347 1094,-347 1094,-341 1100,-335 1106,-335"/>
<text text-anchor="start" x="1095" y="-396.4" font-family="Arial" font-size="2.00"> </text>
<text text-anchor="start" x="1095" y="-390.4" font-family="Arial" font-size="7.00"> &#160;19</text>
<text text-anchor="start" x="1109" y="-373.8" font-family="Arial" font-weight="bold" font-size="14.00">Mean: 25.28</text>
<text text-anchor="start" x="1124.5" y="-356.8" font-family="Arial" font-weight="bold" font-size="14.00">n = 104</text>
<text text-anchor="start" x="1146.5" y="-338.8" font-family="Arial" font-size="9.00"> </text>
<path fill="none" stroke="#333333" d="M1106,-335C1106,-335 1190,-335 1190,-335 1196,-335 1202,-341 1202,-347 1202,-347 1202,-387 1202,-387 1202,-393 1196,-399 1190,-399 1190,-399 1106,-399 1106,-399 1100,-399 1094,-393 1094,-387 1094,-387 1094,-347 1094,-347 1094,-341 1100,-335 1106,-335"/>
<text text-anchor="start" x="1119" y="-320.8" font-family="Arial" font-weight="bold" font-size="14.00">air_temp</text>
</g>
<!-- 13&#45;&gt;19 -->
<g id="edge14" class="edge">
<title>13&#45;&gt;19</title>
<path fill="none" stroke="#888888" d="M945.15,-482.62C983.76,-460.8 1032.62,-433.2 1072.7,-410.55"/>
<polygon fill="#888888" stroke="#888888" points="1074.66,-413.46 1081.64,-405.5 1071.21,-407.37 1074.66,-413.46"/>
</g>
<!-- 4 -->
<g id="node6" class="node">
<title>4</title>
<text text-anchor="start" x="205.5" y="-253.8" font-family="Arial" font-weight="bold" font-size="14.00"> &lt; 6.5</text>
<text text-anchor="start" x="155" y="-209.3" font-family="Arial" font-size="14.00"> &#160;&#160;</text>
<path fill="#ebebeb" stroke="transparent" d="M181,-181C181,-181 265,-181 265,-181 271,-181 277,-187 277,-193 277,-193 277,-233 277,-233 277,-239 271,-245 265,-245 265,-245 181,-245 181,-245 175,-245 169,-239 169,-233 169,-233 169,-193 169,-193 169,-187 175,-181 181,-181"/>
<text text-anchor="start" x="170" y="-242.4" font-family="Arial" font-size="2.00"> </text>
<text text-anchor="start" x="170" y="-236.4" font-family="Arial" font-size="7.00"> &#160;4</text>
<text text-anchor="start" x="184" y="-219.8" font-family="Arial" font-weight="bold" font-size="14.00">Mean: 19.96</text>
<text text-anchor="start" x="199.5" y="-202.8" font-family="Arial" font-weight="bold" font-size="14.00">n = 140</text>
<text text-anchor="start" x="221.5" y="-184.8" font-family="Arial" font-size="9.00"> </text>
<path fill="none" stroke="#333333" d="M181,-181C181,-181 265,-181 265,-181 271,-181 277,-187 277,-193 277,-193 277,-233 277,-233 277,-239 271,-245 265,-245 265,-245 181,-245 181,-245 175,-245 169,-239 169,-233 169,-233 169,-193 169,-193 169,-187 175,-181 181,-181"/>
<text text-anchor="start" x="279" y="-209.3" font-family="Arial" font-size="14.00"> &#160;&#160;</text>
<text text-anchor="start" x="170" y="-166.8" font-family="Arial" font-weight="bold" font-size="14.00">prev_168_inflow</text>
</g>
<!-- 3&#45;&gt;4 -->
<g id="edge5" class="edge">
<title>3&#45;&gt;4</title>
<path fill="none" stroke="#888888" d="M322.83,-307.67C312.85,-298.3 302.47,-288.56 292.33,-279.05"/>
<polygon fill="#888888" stroke="#888888" points="294.69,-276.47 285,-272.18 289.9,-281.57 294.69,-276.47"/>
</g>
<!-- 7 -->
<g id="node7" class="node">
<title>7</title>
<text text-anchor="start" x="368" y="-253.8" font-family="Arial" font-weight="bold" font-size="14.00"> ≥ 6.5</text>
<path fill="#ebebeb" stroke="transparent" d="M343,-181C343,-181 427,-181 427,-181 433,-181 439,-187 439,-193 439,-193 439,-233 439,-233 439,-239 433,-245 427,-245 427,-245 343,-245 343,-245 337,-245 331,-239 331,-233 331,-233 331,-193 331,-193 331,-187 337,-181 343,-181"/>
<text text-anchor="start" x="332" y="-242.4" font-family="Arial" font-size="2.00"> </text>
<text text-anchor="start" x="332" y="-236.4" font-family="Arial" font-size="7.00"> &#160;7</text>
<text text-anchor="start" x="346" y="-219.8" font-family="Arial" font-weight="bold" font-size="14.00">Mean: 23.04</text>
<text text-anchor="start" x="361.5" y="-202.8" font-family="Arial" font-weight="bold" font-size="14.00">n = 208</text>
<text text-anchor="start" x="383.5" y="-184.8" font-family="Arial" font-size="9.00"> </text>
<path fill="none" stroke="#333333" d="M343,-181C343,-181 427,-181 427,-181 433,-181 439,-187 439,-193 439,-193 439,-233 439,-233 439,-239 433,-245 427,-245 427,-245 343,-245 343,-245 337,-245 331,-239 331,-233 331,-233 331,-193 331,-193 331,-187 337,-181 343,-181"/>
<text text-anchor="start" x="370.5" y="-166.8" font-family="Arial" font-weight="bold" font-size="14.00">time</text>
</g>
<!-- 3&#45;&gt;7 -->
<g id="edge6" class="edge">
<title>3&#45;&gt;7</title>
<path fill="none" stroke="#888888" d="M385,-307.67C385,-299.39 385,-290.83 385,-282.38"/>
<polygon fill="#888888" stroke="#888888" points="388.5,-282.18 385,-272.18 381.5,-282.18 388.5,-282.18"/>
</g>
<!-- 11 -->
<g id="node12" class="node">
<title>11</title>
<text text-anchor="start" x="509" y="-253.8" font-family="Arial" font-weight="bold" font-size="14.00"> &lt; 19.32</text>
<path fill="#f8766d" fill-opacity="0.874510" stroke="transparent" d="M493,-181C493,-181 575,-181 575,-181 581,-181 587,-187 587,-193 587,-193 587,-233 587,-233 587,-239 581,-245 575,-245 575,-245 493,-245 493,-245 487,-245 481,-239 481,-233 481,-233 481,-193 481,-193 481,-187 487,-181 493,-181"/>
<text text-anchor="start" x="482" y="-242.4" font-family="Arial" font-size="2.00"> </text>
<text text-anchor="start" x="482" y="-236.4" font-family="Arial" font-size="7.00"> &#160;11</text>
<text text-anchor="start" x="496" y="-219.8" font-family="Arial" font-weight="bold" font-size="14.00">Predict 18.6</text>
<text text-anchor="start" x="511" y="-202.8" font-family="Arial" font-weight="bold" font-size="14.00">n = 111</text>
<text text-anchor="start" x="532.5" y="-184.8" font-family="Arial" font-size="9.00"> </text>
<path fill="none" stroke="#333333" d="M493,-181C493,-181 575,-181 575,-181 581,-181 587,-187 587,-193 587,-193 587,-233 587,-233 587,-239 581,-245 575,-245 575,-245 493,-245 493,-245 487,-245 481,-239 481,-233 481,-233 481,-193 481,-193 481,-187 487,-181 493,-181"/>
<text text-anchor="start" x="532" y="-166.8" font-family="Arial" font-weight="bold" font-size="14.00"> </text>
</g>
<!-- 10&#45;&gt;11 -->
<g id="edge11" class="edge">
<title>10&#45;&gt;11</title>
<path fill="none" stroke="#888888" d="M604.87,-307.67C598.06,-298.67 590.98,-289.32 584.05,-280.16"/>
<polygon fill="#888888" stroke="#888888" points="586.84,-278.04 578.02,-272.18 581.26,-282.26 586.84,-278.04"/>
</g>
<!-- 12 -->
<g id="node13" class="node">
<title>12</title>
<text text-anchor="start" x="661.5" y="-253.8" font-family="Arial" font-weight="bold" font-size="14.00"> ≥ 19.32</text>
<path fill="#f8766d" fill-opacity="0.827451" stroke="transparent" d="M641,-181C641,-181 731,-181 731,-181 737,-181 743,-187 743,-193 743,-193 743,-233 743,-233 743,-239 737,-245 731,-245 731,-245 641,-245 641,-245 635,-245 629,-239 629,-233 629,-233 629,-193 629,-193 629,-187 635,-181 641,-181"/>
<text text-anchor="start" x="630" y="-242.4" font-family="Arial" font-size="2.00"> </text>
<text text-anchor="start" x="630" y="-236.4" font-family="Arial" font-size="7.00"> &#160;12</text>
<text text-anchor="start" x="644" y="-219.8" font-family="Arial" font-weight="bold" font-size="14.00">Predict 19.97</text>
<text text-anchor="start" x="666" y="-202.8" font-family="Arial" font-weight="bold" font-size="14.00">n = 81</text>
<text text-anchor="start" x="684.5" y="-184.8" font-family="Arial" font-size="9.00"> </text>
<path fill="none" stroke="#333333" d="M641,-181C641,-181 731,-181 731,-181 737,-181 743,-187 743,-193 743,-193 743,-233 743,-233 743,-239 737,-245 731,-245 731,-245 641,-245 641,-245 635,-245 629,-239 629,-233 629,-233 629,-193 629,-193 629,-187 635,-181 641,-181"/>
<text text-anchor="start" x="684" y="-166.8" font-family="Arial" font-weight="bold" font-size="14.00"> </text>
</g>
<!-- 10&#45;&gt;12 -->
<g id="edge12" class="edge">
<title>10&#45;&gt;12</title>
<path fill="none" stroke="#888888" d="M663.2,-307.67C665.24,-299.3 667.34,-290.64 669.42,-282.1"/>
<polygon fill="#888888" stroke="#888888" points="672.87,-282.72 671.84,-272.18 666.07,-281.06 672.87,-282.72"/>
</g>
<!-- 5 -->
<g id="node8" class="node">
<title>5</title>
<text text-anchor="start" x="47.5" y="-99.8" font-family="Arial" font-weight="bold" font-size="14.00"> &lt; 19.8</text>
<path fill="#f8766d" fill-opacity="0.847059" stroke="transparent" d="M24,-27C24,-27 114,-27 114,-27 120,-27 126,-33 126,-39 126,-39 126,-79 126,-79 126,-85 120,-91 114,-91 114,-91 24,-91 24,-91 18,-91 12,-85 12,-79 12,-79 12,-39 12,-39 12,-33 18,-27 24,-27"/>
<text text-anchor="start" x="13" y="-88.4" font-family="Arial" font-size="2.00"> </text>
<text text-anchor="start" x="13" y="-82.4" font-family="Arial" font-size="7.00"> &#160;5</text>
<text text-anchor="start" x="27" y="-65.8" font-family="Arial" font-weight="bold" font-size="14.00">Predict 19.43</text>
<text text-anchor="start" x="49" y="-48.8" font-family="Arial" font-weight="bold" font-size="14.00">n = 78</text>
<text text-anchor="start" x="67.5" y="-30.8" font-family="Arial" font-size="9.00"> </text>
<path fill="none" stroke="#333333" d="M24,-27C24,-27 114,-27 114,-27 120,-27 126,-33 126,-39 126,-39 126,-79 126,-79 126,-85 120,-91 114,-91 114,-91 24,-91 24,-91 18,-91 12,-85 12,-79 12,-79 12,-39 12,-39 12,-33 18,-27 24,-27"/>
<text text-anchor="start" x="67" y="-12.8" font-family="Arial" font-weight="bold" font-size="14.00"> </text>
</g>
<!-- 4&#45;&gt;5 -->
<g id="edge7" class="edge">
<title>4&#45;&gt;5</title>
<path fill="none" stroke="#888888" d="M163.9,-153.67C154.5,-144.39 144.73,-134.75 135.19,-125.33"/>
<polygon fill="#888888" stroke="#888888" points="137.52,-122.71 127.94,-118.18 132.6,-127.69 137.52,-122.71"/>
</g>
<!-- 6 -->
<g id="node9" class="node">
<title>6</title>
<text text-anchor="start" x="204" y="-99.8" font-family="Arial" font-weight="bold" font-size="14.00"> ≥ 19.8</text>
<path fill="#f8766d" fill-opacity="0.803922" stroke="transparent" d="M180,-27C180,-27 270,-27 270,-27 276,-27 282,-33 282,-39 282,-39 282,-79 282,-79 282,-85 276,-91 270,-91 270,-91 180,-91 180,-91 174,-91 168,-85 168,-79 168,-79 168,-39 168,-39 168,-33 174,-27 180,-27"/>
<text text-anchor="start" x="169" y="-88.4" font-family="Arial" font-size="2.00"> </text>
<text text-anchor="start" x="169" y="-82.4" font-family="Arial" font-size="7.00"> &#160;6</text>
<text text-anchor="start" x="183" y="-65.8" font-family="Arial" font-weight="bold" font-size="14.00">Predict 20.62</text>
<text text-anchor="start" x="205" y="-48.8" font-family="Arial" font-weight="bold" font-size="14.00">n = 62</text>
<text text-anchor="start" x="223.5" y="-30.8" font-family="Arial" font-size="9.00"> </text>
<path fill="none" stroke="#333333" d="M180,-27C180,-27 270,-27 270,-27 276,-27 282,-33 282,-39 282,-39 282,-79 282,-79 282,-85 276,-91 270,-91 270,-91 180,-91 180,-91 174,-91 168,-85 168,-79 168,-79 168,-39 168,-39 168,-33 174,-27 180,-27"/>
<text text-anchor="start" x="223" y="-12.8" font-family="Arial" font-weight="bold" font-size="14.00"> </text>
</g>
<!-- 4&#45;&gt;6 -->
<g id="edge8" class="edge">
<title>4&#45;&gt;6</title>
<path fill="none" stroke="#888888" d="M223.77,-153.67C223.88,-145.39 223.99,-136.83 224.1,-128.38"/>
<polygon fill="#888888" stroke="#888888" points="227.6,-128.22 224.23,-118.18 220.6,-128.13 227.6,-128.22"/>
</g>
<!-- 8 -->
<g id="node10" class="node">
<title>8</title>
<text text-anchor="start" x="362.5" y="-99.8" font-family="Arial" font-weight="bold" font-size="14.00"> &lt; 16.5</text>
<path fill="#f8766d" fill-opacity="0.666667" stroke="transparent" d="M339,-27C339,-27 429,-27 429,-27 435,-27 441,-33 441,-39 441,-39 441,-79 441,-79 441,-85 435,-91 429,-91 429,-91 339,-91 339,-91 333,-91 327,-85 327,-79 327,-79 327,-39 327,-39 327,-33 333,-27 339,-27"/>
<text text-anchor="start" x="328" y="-88.4" font-family="Arial" font-size="2.00"> </text>
<text text-anchor="start" x="328" y="-82.4" font-family="Arial" font-size="7.00"> &#160;8</text>
<text text-anchor="start" x="342" y="-65.8" font-family="Arial" font-weight="bold" font-size="14.00">Predict 24.51</text>
<text text-anchor="start" x="364" y="-48.8" font-family="Arial" font-weight="bold" font-size="14.00">n = 73</text>
<text text-anchor="start" x="382.5" y="-30.8" font-family="Arial" font-size="9.00"> </text>
<path fill="none" stroke="#333333" d="M339,-27C339,-27 429,-27 429,-27 435,-27 441,-33 441,-39 441,-39 441,-79 441,-79 441,-85 435,-91 429,-91 429,-91 339,-91 339,-91 333,-91 327,-85 327,-79 327,-79 327,-39 327,-39 327,-33 333,-27 339,-27"/>
<text text-anchor="start" x="382" y="-12.8" font-family="Arial" font-weight="bold" font-size="14.00"> </text>
</g>
<!-- 7&#45;&gt;8 -->
<g id="edge9" class="edge">
<title>7&#45;&gt;8</title>
<path fill="none" stroke="#888888" d="M384.62,-153.67C384.56,-145.39 384.51,-136.83 384.45,-128.38"/>
<polygon fill="#888888" stroke="#888888" points="387.95,-128.15 384.38,-118.18 380.95,-128.2 387.95,-128.15"/>
</g>
<!-- 9 -->
<g id="node11" class="node">
<title>9</title>
<text text-anchor="start" x="519" y="-99.8" font-family="Arial" font-weight="bold" font-size="14.00"> ≥ 16.5</text>
<path fill="#f8766d" fill-opacity="0.749020" stroke="transparent" d="M495,-27C495,-27 585,-27 585,-27 591,-27 597,-33 597,-39 597,-39 597,-79 597,-79 597,-85 591,-91 585,-91 585,-91 495,-91 495,-91 489,-91 483,-85 483,-79 483,-79 483,-39 483,-39 483,-33 489,-27 495,-27"/>
<text text-anchor="start" x="484" y="-88.4" font-family="Arial" font-size="2.00"> </text>
<text text-anchor="start" x="484" y="-82.4" font-family="Arial" font-size="7.00"> &#160;9</text>
<text text-anchor="start" x="498" y="-65.8" font-family="Arial" font-weight="bold" font-size="14.00">Predict 22.25</text>
<text text-anchor="start" x="516.5" y="-48.8" font-family="Arial" font-weight="bold" font-size="14.00">n = 135</text>
<text text-anchor="start" x="538.5" y="-30.8" font-family="Arial" font-size="9.00"> </text>
<path fill="none" stroke="#333333" d="M495,-27C495,-27 585,-27 585,-27 591,-27 597,-33 597,-39 597,-39 597,-79 597,-79 597,-85 591,-91 585,-91 585,-91 495,-91 495,-91 489,-91 483,-85 483,-79 483,-79 483,-39 483,-39 483,-33 489,-27 495,-27"/>
<text text-anchor="start" x="538" y="-12.8" font-family="Arial" font-weight="bold" font-size="14.00"> </text>
</g>
<!-- 7&#45;&gt;9 -->
<g id="edge10" class="edge">
<title>7&#45;&gt;9</title>
<path fill="none" stroke="#888888" d="M444.48,-153.67C453.94,-144.39 463.78,-134.75 473.38,-125.33"/>
<polygon fill="#888888" stroke="#888888" points="475.99,-127.68 480.68,-118.18 471.08,-122.68 475.99,-127.68"/>
</g>
<!-- 15 -->
<g id="node16" class="node">
<title>15</title>
<text text-anchor="start" x="824.5" y="-253.8" font-family="Arial" font-weight="bold" font-size="14.00"> &lt; 8.5</text>
<path fill="#f8766d" fill-opacity="0.662745" stroke="transparent" d="M797,-181C797,-181 887,-181 887,-181 893,-181 899,-187 899,-193 899,-193 899,-233 899,-233 899,-239 893,-245 887,-245 887,-245 797,-245 797,-245 791,-245 785,-239 785,-233 785,-233 785,-193 785,-193 785,-187 791,-181 797,-181"/>
<text text-anchor="start" x="786" y="-242.4" font-family="Arial" font-size="2.00"> </text>
<text text-anchor="start" x="786" y="-236.4" font-family="Arial" font-size="7.00"> &#160;15</text>
<text text-anchor="start" x="800" y="-219.8" font-family="Arial" font-weight="bold" font-size="14.00">Predict 24.64</text>
<text text-anchor="start" x="826" y="-202.8" font-family="Arial" font-weight="bold" font-size="14.00">n = 4</text>
<text text-anchor="start" x="840.5" y="-184.8" font-family="Arial" font-size="9.00"> </text>
<path fill="none" stroke="#333333" d="M797,-181C797,-181 887,-181 887,-181 893,-181 899,-187 899,-193 899,-193 899,-233 899,-233 899,-239 893,-245 887,-245 887,-245 797,-245 797,-245 791,-245 785,-239 785,-233 785,-233 785,-193 785,-193 785,-187 791,-181 797,-181"/>
<text text-anchor="start" x="840" y="-166.8" font-family="Arial" font-weight="bold" font-size="14.00"> </text>
</g>
<!-- 14&#45;&gt;15 -->
<g id="edge15" class="edge">
<title>14&#45;&gt;15</title>
<path fill="none" stroke="#888888" d="M864.8,-307.67C862.76,-299.3 860.66,-290.64 858.58,-282.1"/>
<polygon fill="#888888" stroke="#888888" points="861.93,-281.06 856.16,-272.18 855.13,-282.72 861.93,-281.06"/>
</g>
<!-- 16 -->
<g id="node17" class="node">
<title>16</title>
<text text-anchor="start" x="978" y="-253.8" font-family="Arial" font-weight="bold" font-size="14.00"> ≥ 8.5</text>
<path fill="#ebebeb" stroke="transparent" d="M953,-181C953,-181 1037,-181 1037,-181 1043,-181 1049,-187 1049,-193 1049,-193 1049,-233 1049,-233 1049,-239 1043,-245 1037,-245 1037,-245 953,-245 953,-245 947,-245 941,-239 941,-233 941,-233 941,-193 941,-193 941,-187 947,-181 953,-181"/>
<text text-anchor="start" x="942" y="-242.4" font-family="Arial" font-size="2.00"> </text>
<text text-anchor="start" x="942" y="-236.4" font-family="Arial" font-size="7.00"> &#160;16</text>
<text text-anchor="start" x="956" y="-219.8" font-family="Arial" font-weight="bold" font-size="14.00">Mean: 27.52</text>
<text text-anchor="start" x="975" y="-202.8" font-family="Arial" font-weight="bold" font-size="14.00">n = 24</text>
<text text-anchor="start" x="993.5" y="-184.8" font-family="Arial" font-size="9.00"> </text>
<path fill="none" stroke="#333333" d="M953,-181C953,-181 1037,-181 1037,-181 1043,-181 1049,-187 1049,-193 1049,-193 1049,-233 1049,-233 1049,-239 1043,-245 1037,-245 1037,-245 953,-245 953,-245 947,-245 941,-239 941,-233 941,-233 941,-193 941,-193 941,-187 947,-181 953,-181"/>
<text text-anchor="start" x="952.5" y="-166.8" font-family="Arial" font-weight="bold" font-size="14.00">day_of_week</text>
</g>
<!-- 14&#45;&gt;16 -->
<g id="edge16" class="edge">
<title>14&#45;&gt;16</title>
<path fill="none" stroke="#888888" d="M923.52,-307.67C930.39,-298.67 937.52,-289.32 944.51,-280.16"/>
<polygon fill="#888888" stroke="#888888" points="947.32,-282.25 950.6,-272.18 941.75,-278 947.32,-282.25"/>
</g>
<!-- 20 -->
<g id="node20" class="node">
<title>20</title>
<text text-anchor="start" x="1123" y="-253.8" font-family="Arial" font-weight="bold" font-size="14.00"> &lt; 20.85</text>
<path fill="#f8766d" fill-opacity="0.376471" stroke="transparent" d="M1103,-181C1103,-181 1193,-181 1193,-181 1199,-181 1205,-187 1205,-193 1205,-193 1205,-233 1205,-233 1205,-239 1199,-245 1193,-245 1193,-245 1103,-245 1103,-245 1097,-245 1091,-239 1091,-233 1091,-233 1091,-193 1091,-193 1091,-187 1097,-181 1103,-181"/>
<text text-anchor="start" x="1092" y="-242.4" font-family="Arial" font-size="2.00"> </text>
<text text-anchor="start" x="1092" y="-236.4" font-family="Arial" font-size="7.00"> &#160;20</text>
<text text-anchor="start" x="1106" y="-219.8" font-family="Arial" font-weight="bold" font-size="14.00">Predict 32.87</text>
<text text-anchor="start" x="1132" y="-202.8" font-family="Arial" font-weight="bold" font-size="14.00">n = 1</text>
<text text-anchor="start" x="1146.5" y="-184.8" font-family="Arial" font-size="9.00"> </text>
<path fill="none" stroke="#333333" d="M1103,-181C1103,-181 1193,-181 1193,-181 1199,-181 1205,-187 1205,-193 1205,-193 1205,-233 1205,-233 1205,-239 1199,-245 1193,-245 1193,-245 1103,-245 1103,-245 1097,-245 1091,-239 1091,-233 1091,-233 1091,-193 1091,-193 1091,-187 1097,-181 1103,-181"/>
<text text-anchor="start" x="1146" y="-166.8" font-family="Arial" font-weight="bold" font-size="14.00"> </text>
</g>
<!-- 19&#45;&gt;20 -->
<g id="edge19" class="edge">
<title>19&#45;&gt;20</title>
<path fill="none" stroke="#888888" d="M1148,-307.67C1148,-299.39 1148,-290.83 1148,-282.38"/>
<polygon fill="#888888" stroke="#888888" points="1151.5,-282.18 1148,-272.18 1144.5,-282.18 1151.5,-282.18"/>
</g>
<!-- 21 -->
<g id="node21" class="node">
<title>21</title>
<text text-anchor="start" x="1276.5" y="-253.8" font-family="Arial" font-weight="bold" font-size="14.00"> ≥ 20.85</text>
<path fill="#ebebeb" stroke="transparent" d="M1259,-181C1259,-181 1343,-181 1343,-181 1349,-181 1355,-187 1355,-193 1355,-193 1355,-233 1355,-233 1355,-239 1349,-245 1343,-245 1343,-245 1259,-245 1259,-245 1253,-245 1247,-239 1247,-233 1247,-233 1247,-193 1247,-193 1247,-187 1253,-181 1259,-181"/>
<text text-anchor="start" x="1248" y="-242.4" font-family="Arial" font-size="2.00"> </text>
<text text-anchor="start" x="1248" y="-236.4" font-family="Arial" font-size="7.00"> &#160;21</text>
<text text-anchor="start" x="1262" y="-219.8" font-family="Arial" font-weight="bold" font-size="14.00">Mean: 25.21</text>
<text text-anchor="start" x="1277.5" y="-202.8" font-family="Arial" font-weight="bold" font-size="14.00">n = 103</text>
<text text-anchor="start" x="1299.5" y="-184.8" font-family="Arial" font-size="9.00"> </text>
<path fill="none" stroke="#333333" d="M1259,-181C1259,-181 1343,-181 1343,-181 1349,-181 1355,-187 1355,-193 1355,-193 1355,-233 1355,-233 1355,-239 1349,-245 1343,-245 1343,-245 1259,-245 1259,-245 1253,-245 1247,-239 1247,-233 1247,-233 1247,-193 1247,-193 1247,-187 1253,-181 1259,-181"/>
<text text-anchor="start" x="1286.5" y="-166.8" font-family="Arial" font-weight="bold" font-size="14.00">time</text>
</g>
<!-- 19&#45;&gt;21 -->
<g id="edge20" class="edge">
<title>19&#45;&gt;21</title>
<path fill="none" stroke="#888888" d="M1206.72,-307.67C1216.05,-298.39 1225.76,-288.75 1235.24,-279.33"/>
<polygon fill="#888888" stroke="#888888" points="1237.81,-281.71 1242.44,-272.18 1232.88,-276.74 1237.81,-281.71"/>
</g>
<!-- 17 -->
<g id="node18" class="node">
<title>17</title>
<text text-anchor="start" x="896.5" y="-99.8" font-family="Arial" font-weight="bold" font-size="14.00"> &lt; 3.5</text>
<path fill="#f8766d" fill-opacity="0.603922" stroke="transparent" d="M869,-27C869,-27 959,-27 959,-27 965,-27 971,-33 971,-39 971,-39 971,-79 971,-79 971,-85 965,-91 959,-91 959,-91 869,-91 869,-91 863,-91 857,-85 857,-79 857,-79 857,-39 857,-39 857,-33 863,-27 869,-27"/>
<text text-anchor="start" x="858" y="-88.4" font-family="Arial" font-size="2.00"> </text>
<text text-anchor="start" x="858" y="-82.4" font-family="Arial" font-size="7.00"> &#160;17</text>
<text text-anchor="start" x="872" y="-65.8" font-family="Arial" font-weight="bold" font-size="14.00">Predict 26.39</text>
<text text-anchor="start" x="894" y="-48.8" font-family="Arial" font-weight="bold" font-size="14.00">n = 16</text>
<text text-anchor="start" x="912.5" y="-30.8" font-family="Arial" font-size="9.00"> </text>
<path fill="none" stroke="#333333" d="M869,-27C869,-27 959,-27 959,-27 965,-27 971,-33 971,-39 971,-39 971,-79 971,-79 971,-85 965,-91 959,-91 959,-91 869,-91 869,-91 863,-91 857,-85 857,-79 857,-79 857,-39 857,-39 857,-33 863,-27 869,-27"/>
<text text-anchor="start" x="912" y="-12.8" font-family="Arial" font-weight="bold" font-size="14.00"> </text>
</g>
<!-- 16&#45;&gt;17 -->
<g id="edge17" class="edge">
<title>16&#45;&gt;17</title>
<path fill="none" stroke="#888888" d="M963.91,-153.67C959.31,-145.03 954.54,-136.07 949.85,-127.27"/>
<polygon fill="#888888" stroke="#888888" points="952.79,-125.36 945,-118.18 946.62,-128.65 952.79,-125.36"/>
</g>
<!-- 18 -->
<g id="node19" class="node">
<title>18</title>
<text text-anchor="start" x="1053" y="-99.8" font-family="Arial" font-weight="bold" font-size="14.00"> ≥ 3.5</text>
<path fill="#f8766d" fill-opacity="0.482353" stroke="transparent" d="M1025,-27C1025,-27 1115,-27 1115,-27 1121,-27 1127,-33 1127,-39 1127,-39 1127,-79 1127,-79 1127,-85 1121,-91 1115,-91 1115,-91 1025,-91 1025,-91 1019,-91 1013,-85 1013,-79 1013,-79 1013,-39 1013,-39 1013,-33 1019,-27 1025,-27"/>
<text text-anchor="start" x="1014" y="-88.4" font-family="Arial" font-size="2.00"> </text>
<text text-anchor="start" x="1014" y="-82.4" font-family="Arial" font-size="7.00"> &#160;18</text>
<text text-anchor="start" x="1028" y="-65.8" font-family="Arial" font-weight="bold" font-size="14.00">Predict 29.77</text>
<text text-anchor="start" x="1054" y="-48.8" font-family="Arial" font-weight="bold" font-size="14.00">n = 8</text>
<text text-anchor="start" x="1068.5" y="-30.8" font-family="Arial" font-size="9.00"> </text>
<path fill="none" stroke="#333333" d="M1025,-27C1025,-27 1115,-27 1115,-27 1121,-27 1127,-33 1127,-39 1127,-39 1127,-79 1127,-79 1127,-85 1121,-91 1115,-91 1115,-91 1025,-91 1025,-91 1019,-91 1013,-85 1013,-79 1013,-79 1013,-39 1013,-39 1013,-33 1019,-27 1025,-27"/>
<text text-anchor="start" x="1068" y="-12.8" font-family="Arial" font-weight="bold" font-size="14.00"> </text>
</g>
<!-- 16&#45;&gt;18 -->
<g id="edge18" class="edge">
<title>16&#45;&gt;18</title>
<path fill="none" stroke="#888888" d="M1023.78,-153.67C1028.04,-145.03 1032.46,-136.07 1036.81,-127.27"/>
<polygon fill="#888888" stroke="#888888" points="1040.01,-128.69 1041.29,-118.18 1033.73,-125.6 1040.01,-128.69"/>
</g>
<!-- 22 -->
<g id="node22" class="node">
<title>22</title>
<text text-anchor="start" x="1241.5" y="-99.8" font-family="Arial" font-weight="bold" font-size="14.00"> &lt; 15.5</text>
<path fill="#f8766d" fill-opacity="0.635294" stroke="transparent" d="M1218,-27C1218,-27 1308,-27 1308,-27 1314,-27 1320,-33 1320,-39 1320,-39 1320,-79 1320,-79 1320,-85 1314,-91 1308,-91 1308,-91 1218,-91 1218,-91 1212,-91 1206,-85 1206,-79 1206,-79 1206,-39 1206,-39 1206,-33 1212,-27 1218,-27"/>
<text text-anchor="start" x="1207" y="-88.4" font-family="Arial" font-size="2.00"> </text>
<text text-anchor="start" x="1207" y="-82.4" font-family="Arial" font-size="7.00"> &#160;22</text>
<text text-anchor="start" x="1221" y="-65.8" font-family="Arial" font-weight="bold" font-size="14.00">Predict 25.39</text>
<text text-anchor="start" x="1243" y="-48.8" font-family="Arial" font-weight="bold" font-size="14.00">n = 95</text>
<text text-anchor="start" x="1261.5" y="-30.8" font-family="Arial" font-size="9.00"> </text>
<path fill="none" stroke="#333333" d="M1218,-27C1218,-27 1308,-27 1308,-27 1314,-27 1320,-33 1320,-39 1320,-39 1320,-79 1320,-79 1320,-85 1314,-91 1308,-91 1308,-91 1218,-91 1218,-91 1212,-91 1206,-85 1206,-79 1206,-79 1206,-39 1206,-39 1206,-33 1212,-27 1218,-27"/>
<text text-anchor="start" x="1261" y="-12.8" font-family="Arial" font-weight="bold" font-size="14.00"> </text>
</g>
<!-- 21&#45;&gt;22 -->
<g id="edge21" class="edge">
<title>21&#45;&gt;22</title>
<path fill="none" stroke="#888888" d="M1286.42,-153.67C1284.33,-145.3 1282.16,-136.64 1280.03,-128.1"/>
<polygon fill="#888888" stroke="#888888" points="1283.37,-127.03 1277.54,-118.18 1276.57,-128.73 1283.37,-127.03"/>
</g>
<!-- 23 -->
<g id="node23" class="node">
<title>23</title>
<text text-anchor="start" x="1398" y="-99.8" font-family="Arial" font-weight="bold" font-size="14.00"> ≥ 15.5</text>
<path fill="#f8766d" fill-opacity="0.721569" stroke="transparent" d="M1374,-27C1374,-27 1464,-27 1464,-27 1470,-27 1476,-33 1476,-39 1476,-39 1476,-79 1476,-79 1476,-85 1470,-91 1464,-91 1464,-91 1374,-91 1374,-91 1368,-91 1362,-85 1362,-79 1362,-79 1362,-39 1362,-39 1362,-33 1368,-27 1374,-27"/>
<text text-anchor="start" x="1363" y="-88.4" font-family="Arial" font-size="2.00"> </text>
<text text-anchor="start" x="1363" y="-82.4" font-family="Arial" font-size="7.00"> &#160;23</text>
<text text-anchor="start" x="1377" y="-65.8" font-family="Arial" font-weight="bold" font-size="14.00">Predict 23.03</text>
<text text-anchor="start" x="1403" y="-48.8" font-family="Arial" font-weight="bold" font-size="14.00">n = 8</text>
<text text-anchor="start" x="1417.5" y="-30.8" font-family="Arial" font-size="9.00"> </text>
<path fill="none" stroke="#333333" d="M1374,-27C1374,-27 1464,-27 1464,-27 1470,-27 1476,-33 1476,-39 1476,-39 1476,-79 1476,-79 1476,-85 1470,-91 1464,-91 1464,-91 1374,-91 1374,-91 1368,-91 1362,-85 1362,-79 1362,-79 1362,-39 1362,-39 1362,-33 1368,-27 1374,-27"/>
<text text-anchor="start" x="1417" y="-12.8" font-family="Arial" font-weight="bold" font-size="14.00"> </text>
</g>
<!-- 21&#45;&gt;23 -->
<g id="edge22" class="edge">
<title>21&#45;&gt;23</title>
<path fill="none" stroke="#888888" d="M1346.28,-153.67C1353.27,-144.67 1360.53,-135.32 1367.64,-126.16"/>
<polygon fill="#888888" stroke="#888888" points="1370.47,-128.22 1373.84,-118.18 1364.94,-123.93 1370.47,-128.22"/>
</g>
</g>
</svg>
