<?xml version="1.0" encoding="UTF-8" standalone="no"?>
<!DOCTYPE svg PUBLIC "-//W3C//DTD SVG 1.1//EN"
 "http://www.w3.org/Graphics/SVG/1.1/DTD/svg11.dtd">
<!-- Generated by graphviz version 2.50.0 (20211204.2007)
 -->
<!-- Pages: 1 -->
<svg width="1320pt" height="896pt"
 viewBox="0.00 0.00 1320.00 896.00" xmlns="http://www.w3.org/2000/svg" xmlns:xlink="http://www.w3.org/1999/xlink">
<g id="graph0" class="graph" transform="scale(1 1) rotate(0) translate(4 892)">
<polygon fill="white" stroke="transparent" points="-4,4 -4,-892 1316,-892 1316,4 -4,4"/>
<!-- 1 -->
<g id="node1" class="node">
<title>1</title>
<text text-anchor="start" x="361" y="-869.8" font-family="Arial" font-weight="bold" font-size="14.00"> </text>
<text text-anchor="start" x="291" y="-825.3" font-family="Arial" font-size="14.00"> &#160;&#160;&#160;</text>
<path fill="#ebebeb" stroke="transparent" d="M321,-797C321,-797 405,-797 405,-797 411,-797 417,-803 417,-809 417,-809 417,-849 417,-849 417,-855 411,-861 405,-861 405,-861 321,-861 321,-861 315,-861 309,-855 309,-849 309,-849 309,-809 309,-809 309,-803 315,-797 321,-797"/>
<text text-anchor="start" x="310" y="-858.4" font-family="Arial" font-size="2.00"> </text>
<text text-anchor="start" x="310" y="-852.4" font-family="Arial" font-size="7.00"> &#160;1</text>
<text text-anchor="start" x="324" y="-835.8" font-family="Arial" font-weight="bold" font-size="14.00">Mean: 31.37</text>
<text text-anchor="start" x="339.5" y="-818.8" font-family="Arial" font-weight="bold" font-size="14.00">n = 672</text>
<text text-anchor="start" x="361.5" y="-800.8" font-family="Arial" font-size="9.00"> </text>
<path fill="none" stroke="#333333" d="M321,-797C321,-797 405,-797 405,-797 411,-797 417,-803 417,-809 417,-809 417,-849 417,-849 417,-855 411,-861 405,-861 405,-861 321,-861 321,-861 315,-861 309,-855 309,-849 309,-849 309,-809 309,-809 309,-803 315,-797 321,-797"/>
<text text-anchor="start" x="419" y="-825.3" font-family="Arial" font-size="14.00"> &#160;&#160;&#160;</text>
<text text-anchor="start" x="305.5" y="-782.8" font-family="Arial" font-weight="bold" font-size="14.00">prev_168h_inflow</text>
</g>
<!-- 2 -->
<g id="node2" class="node">
<title>2</title>
<text text-anchor="start" x="254" y="-715.8" font-family="Arial" font-weight="bold" font-size="14.00"> &lt; 25.79</text>
<path fill="#ebebeb" stroke="transparent" d="M237,-643C237,-643 321,-643 321,-643 327,-643 333,-649 333,-655 333,-655 333,-695 333,-695 333,-701 327,-707 321,-707 321,-707 237,-707 237,-707 231,-707 225,-701 225,-695 225,-695 225,-655 225,-655 225,-649 231,-643 237,-643"/>
<text text-anchor="start" x="226" y="-704.4" font-family="Arial" font-size="2.00"> </text>
<text text-anchor="start" x="226" y="-698.4" font-family="Arial" font-size="7.00"> &#160;2</text>
<text text-anchor="start" x="240" y="-681.8" font-family="Arial" font-weight="bold" font-size="14.00">Mean: 21.65</text>
<text text-anchor="start" x="255.5" y="-664.8" font-family="Arial" font-weight="bold" font-size="14.00">n = 182</text>
<text text-anchor="start" x="277.5" y="-646.8" font-family="Arial" font-size="9.00"> </text>
<path fill="none" stroke="#333333" d="M237,-643C237,-643 321,-643 321,-643 327,-643 333,-649 333,-655 333,-655 333,-695 333,-695 333,-701 327,-707 321,-707 321,-707 237,-707 237,-707 231,-707 225,-701 225,-695 225,-695 225,-655 225,-655 225,-649 231,-643 237,-643"/>
<text text-anchor="start" x="264.5" y="-628.8" font-family="Arial" font-weight="bold" font-size="14.00">time</text>
</g>
<!-- 1&#45;&gt;2 -->
<g id="edge1" class="edge">
<title>1&#45;&gt;2</title>
<path fill="none" stroke="#888888" d="M330.76,-769.67C325.94,-760.94 320.94,-751.88 316.02,-742.99"/>
<polygon fill="#888888" stroke="#888888" points="319.05,-741.24 311.15,-734.18 312.92,-744.62 319.05,-741.24"/>
</g>
<!-- 5 -->
<g id="node3" class="node">
<title>5</title>
<text text-anchor="start" x="423.5" y="-715.8" font-family="Arial" font-weight="bold" font-size="14.00"> ≥ 25.79</text>
<path fill="#ebebeb" stroke="transparent" d="M406,-643C406,-643 490,-643 490,-643 496,-643 502,-649 502,-655 502,-655 502,-695 502,-695 502,-701 496,-707 490,-707 490,-707 406,-707 406,-707 400,-707 394,-701 394,-695 394,-695 394,-655 394,-655 394,-649 400,-643 406,-643"/>
<text text-anchor="start" x="395" y="-704.4" font-family="Arial" font-size="2.00"> </text>
<text text-anchor="start" x="395" y="-698.4" font-family="Arial" font-size="7.00"> &#160;5</text>
<text text-anchor="start" x="409" y="-681.8" font-family="Arial" font-weight="bold" font-size="14.00">Mean: 34.98</text>
<text text-anchor="start" x="424.5" y="-664.8" font-family="Arial" font-weight="bold" font-size="14.00">n = 490</text>
<text text-anchor="start" x="446.5" y="-646.8" font-family="Arial" font-size="9.00"> </text>
<path fill="none" stroke="#333333" d="M406,-643C406,-643 490,-643 490,-643 496,-643 502,-649 502,-655 502,-655 502,-695 502,-695 502,-701 496,-707 490,-707 490,-707 406,-707 406,-707 400,-707 394,-701 394,-695 394,-695 394,-655 394,-655 394,-649 400,-643 406,-643"/>
<text text-anchor="start" x="433.5" y="-628.8" font-family="Arial" font-weight="bold" font-size="14.00">time</text>
</g>
<!-- 1&#45;&gt;5 -->
<g id="edge2" class="edge">
<title>1&#45;&gt;5</title>
<path fill="none" stroke="#888888" d="M395.62,-769.67C400.5,-760.94 405.57,-751.88 410.54,-742.99"/>
<polygon fill="#888888" stroke="#888888" points="413.64,-744.61 415.47,-734.18 407.53,-741.2 413.64,-744.61"/>
</g>
<!-- 3 -->
<g id="node4" class="node">
<title>3</title>
<text text-anchor="start" x="105.5" y="-561.8" font-family="Arial" font-weight="bold" font-size="14.00"> &lt; 4.5</text>
<path fill="#f8766d" fill-opacity="0.874510" stroke="transparent" d="M78,-489C78,-489 168,-489 168,-489 174,-489 180,-495 180,-501 180,-501 180,-541 180,-541 180,-547 174,-553 168,-553 168,-553 78,-553 78,-553 72,-553 66,-547 66,-541 66,-541 66,-501 66,-501 66,-495 72,-489 78,-489"/>
<text text-anchor="start" x="67" y="-550.4" font-family="Arial" font-size="2.00"> </text>
<text text-anchor="start" x="67" y="-544.4" font-family="Arial" font-size="7.00"> &#160;3</text>
<text text-anchor="start" x="81" y="-527.8" font-family="Arial" font-weight="bold" font-size="14.00">Predict 20.55</text>
<text text-anchor="start" x="99.5" y="-510.8" font-family="Arial" font-weight="bold" font-size="14.00">n = 136</text>
<text text-anchor="start" x="121.5" y="-492.8" font-family="Arial" font-size="9.00"> </text>
<path fill="none" stroke="#333333" d="M78,-489C78,-489 168,-489 168,-489 174,-489 180,-495 180,-501 180,-501 180,-541 180,-541 180,-547 174,-553 168,-553 168,-553 78,-553 78,-553 72,-553 66,-547 66,-541 66,-541 66,-501 66,-501 66,-495 72,-489 78,-489"/>
<text text-anchor="start" x="121" y="-474.8" font-family="Arial" font-weight="bold" font-size="14.00"> </text>
</g>
<!-- 2&#45;&gt;3 -->
<g id="edge3" class="edge">
<title>2&#45;&gt;3</title>
<path fill="none" stroke="#888888" d="M219.13,-615.67C209.62,-606.39 199.72,-596.75 190.05,-587.33"/>
<polygon fill="#888888" stroke="#888888" points="192.31,-584.65 182.71,-580.18 187.43,-589.66 192.31,-584.65"/>
</g>
<!-- 4 -->
<g id="node5" class="node">
<title>4</title>
<text text-anchor="start" x="262" y="-561.8" font-family="Arial" font-weight="bold" font-size="14.00"> ≥ 4.5</text>
<path fill="#f8766d" fill-opacity="0.772549" stroke="transparent" d="M234,-489C234,-489 324,-489 324,-489 330,-489 336,-495 336,-501 336,-501 336,-541 336,-541 336,-547 330,-553 324,-553 324,-553 234,-553 234,-553 228,-553 222,-547 222,-541 222,-541 222,-501 222,-501 222,-495 228,-489 234,-489"/>
<text text-anchor="start" x="223" y="-550.4" font-family="Arial" font-size="2.00"> </text>
<text text-anchor="start" x="223" y="-544.4" font-family="Arial" font-size="7.00"> &#160;4</text>
<text text-anchor="start" x="237" y="-527.8" font-family="Arial" font-weight="bold" font-size="14.00">Predict 24.88</text>
<text text-anchor="start" x="259" y="-510.8" font-family="Arial" font-weight="bold" font-size="14.00">n = 46</text>
<text text-anchor="start" x="277.5" y="-492.8" font-family="Arial" font-size="9.00"> </text>
<path fill="none" stroke="#333333" d="M234,-489C234,-489 324,-489 324,-489 330,-489 336,-495 336,-501 336,-501 336,-541 336,-541 336,-547 330,-553 324,-553 324,-553 234,-553 234,-553 228,-553 222,-547 222,-541 222,-541 222,-501 222,-501 222,-495 228,-489 234,-489"/>
<text text-anchor="start" x="277" y="-474.8" font-family="Arial" font-weight="bold" font-size="14.00"> </text>
</g>
<!-- 2&#45;&gt;4 -->
<g id="edge4" class="edge">
<title>2&#45;&gt;4</title>
<path fill="none" stroke="#888888" d="M279,-615.67C279,-607.39 279,-598.83 279,-590.38"/>
<polygon fill="#888888" stroke="#888888" points="282.5,-590.18 279,-580.18 275.5,-590.18 282.5,-590.18"/>
</g>
<!-- 6 -->
<g id="node6" class="node">
<title>6</title>
<text text-anchor="start" x="426.5" y="-561.8" font-family="Arial" font-weight="bold" font-size="14.00"> &lt; 17.5</text>
<text text-anchor="start" x="376" y="-517.3" font-family="Arial" font-size="14.00"> &#160;&#160;&#160;</text>
<path fill="#ebebeb" stroke="transparent" d="M406,-489C406,-489 490,-489 490,-489 496,-489 502,-495 502,-501 502,-501 502,-541 502,-541 502,-547 496,-553 490,-553 490,-553 406,-553 406,-553 400,-553 394,-547 394,-541 394,-541 394,-501 394,-501 394,-495 400,-489 406,-489"/>
<text text-anchor="start" x="395" y="-550.4" font-family="Arial" font-size="2.00"> </text>
<text text-anchor="start" x="395" y="-544.4" font-family="Arial" font-size="7.00"> &#160;6</text>
<text text-anchor="start" x="409" y="-527.8" font-family="Arial" font-weight="bold" font-size="14.00">Mean: 34.16</text>
<text text-anchor="start" x="424.5" y="-510.8" font-family="Arial" font-weight="bold" font-size="14.00">n = 344</text>
<text text-anchor="start" x="446.5" y="-492.8" font-family="Arial" font-size="9.00"> </text>
<path fill="none" stroke="#333333" d="M406,-489C406,-489 490,-489 490,-489 496,-489 502,-495 502,-501 502,-501 502,-541 502,-541 502,-547 496,-553 490,-553 490,-553 406,-553 406,-553 400,-553 394,-547 394,-541 394,-541 394,-501 394,-501 394,-495 400,-489 406,-489"/>
<text text-anchor="start" x="504" y="-517.3" font-family="Arial" font-size="14.00"> &#160;&#160;&#160;</text>
<text text-anchor="start" x="390.5" y="-474.8" font-family="Arial" font-weight="bold" font-size="14.00">prev_168h_inflow</text>
</g>
<!-- 5&#45;&gt;6 -->
<g id="edge5" class="edge">
<title>5&#45;&gt;6</title>
<path fill="none" stroke="#888888" d="M448,-615.67C448,-607.39 448,-598.83 448,-590.38"/>
<polygon fill="#888888" stroke="#888888" points="451.5,-590.18 448,-580.18 444.5,-590.18 451.5,-590.18"/>
</g>
<!-- 17 -->
<g id="node7" class="node">
<title>17</title>
<text text-anchor="start" x="741" y="-561.8" font-family="Arial" font-weight="bold" font-size="14.00"> ≥ 17.5</text>
<path fill="#ebebeb" stroke="transparent" d="M720,-489C720,-489 804,-489 804,-489 810,-489 816,-495 816,-501 816,-501 816,-541 816,-541 816,-547 810,-553 804,-553 804,-553 720,-553 720,-553 714,-553 708,-547 708,-541 708,-541 708,-501 708,-501 708,-495 714,-489 720,-489"/>
<text text-anchor="start" x="709" y="-550.4" font-family="Arial" font-size="2.00"> </text>
<text text-anchor="start" x="709" y="-544.4" font-family="Arial" font-size="7.00"> &#160;17</text>
<text text-anchor="start" x="723" y="-527.8" font-family="Arial" font-weight="bold" font-size="14.00">Mean: 36.92</text>
<text text-anchor="start" x="738.5" y="-510.8" font-family="Arial" font-weight="bold" font-size="14.00">n = 146</text>
<text text-anchor="start" x="760.5" y="-492.8" font-family="Arial" font-size="9.00"> </text>
<path fill="none" stroke="#333333" d="M720,-489C720,-489 804,-489 804,-489 810,-489 816,-495 816,-501 816,-501 816,-541 816,-541 816,-547 810,-553 804,-553 804,-553 720,-553 720,-553 714,-553 708,-547 708,-541 708,-541 708,-501 708,-501 708,-495 714,-489 720,-489"/>
<text text-anchor="start" x="747.5" y="-474.8" font-family="Arial" font-weight="bold" font-size="14.00">time</text>
</g>
<!-- 5&#45;&gt;17 -->
<g id="edge6" class="edge">
<title>5&#45;&gt;17</title>
<path fill="none" stroke="#888888" d="M514.21,-641.95C564.62,-617.55 634.06,-583.93 686.61,-558.5"/>
<polygon fill="#888888" stroke="#888888" points="688.41,-561.51 695.88,-554.01 685.36,-555.21 688.41,-561.51"/>
</g>
<!-- 7 -->
<g id="node8" class="node">
<title>7</title>
<text text-anchor="start" x="200" y="-407.8" font-family="Arial" font-weight="bold" font-size="14.00"> &lt; 33.67</text>
<path fill="#ebebeb" stroke="transparent" d="M183,-335C183,-335 267,-335 267,-335 273,-335 279,-341 279,-347 279,-347 279,-387 279,-387 279,-393 273,-399 267,-399 267,-399 183,-399 183,-399 177,-399 171,-393 171,-387 171,-387 171,-347 171,-347 171,-341 177,-335 183,-335"/>
<text text-anchor="start" x="172" y="-396.4" font-family="Arial" font-size="2.00"> </text>
<text text-anchor="start" x="172" y="-390.4" font-family="Arial" font-size="7.00"> &#160;7</text>
<text text-anchor="start" x="186" y="-373.8" font-family="Arial" font-weight="bold" font-size="14.00">Mean: 31.15</text>
<text text-anchor="start" x="201.5" y="-356.8" font-family="Arial" font-weight="bold" font-size="14.00">n = 154</text>
<text text-anchor="start" x="223.5" y="-338.8" font-family="Arial" font-size="9.00"> </text>
<path fill="none" stroke="#333333" d="M183,-335C183,-335 267,-335 267,-335 273,-335 279,-341 279,-347 279,-347 279,-387 279,-387 279,-393 273,-399 267,-399 267,-399 183,-399 183,-399 177,-399 171,-393 171,-387 171,-387 171,-347 171,-347 171,-341 177,-335 183,-335"/>
<text text-anchor="start" x="210.5" y="-320.8" font-family="Arial" font-weight="bold" font-size="14.00">time</text>
</g>
<!-- 6&#45;&gt;7 -->
<g id="edge7" class="edge">
<title>6&#45;&gt;7</title>
<path fill="none" stroke="#888888" d="M365.91,-464.05C344.21,-449.25 320.9,-433.36 299.61,-418.85"/>
<polygon fill="#888888" stroke="#888888" points="301.48,-415.89 291.25,-413.15 297.54,-421.68 301.48,-415.89"/>
</g>
<!-- 10 -->
<g id="node9" class="node">
<title>10</title>
<text text-anchor="start" x="423.5" y="-407.8" font-family="Arial" font-weight="bold" font-size="14.00"> ≥ 33.67</text>
<path fill="#ebebeb" stroke="transparent" d="M406,-335C406,-335 490,-335 490,-335 496,-335 502,-341 502,-347 502,-347 502,-387 502,-387 502,-393 496,-399 490,-399 490,-399 406,-399 406,-399 400,-399 394,-393 394,-387 394,-387 394,-347 394,-347 394,-341 400,-335 406,-335"/>
<text text-anchor="start" x="395" y="-396.4" font-family="Arial" font-size="2.00"> </text>
<text text-anchor="start" x="395" y="-390.4" font-family="Arial" font-size="7.00"> &#160;10</text>
<text text-anchor="start" x="409" y="-373.8" font-family="Arial" font-weight="bold" font-size="14.00">Mean: 36.59</text>
<text text-anchor="start" x="424.5" y="-356.8" font-family="Arial" font-weight="bold" font-size="14.00">n = 190</text>
<text text-anchor="start" x="446.5" y="-338.8" font-family="Arial" font-size="9.00"> </text>
<path fill="none" stroke="#333333" d="M406,-335C406,-335 490,-335 490,-335 496,-335 502,-341 502,-347 502,-347 502,-387 502,-387 502,-393 496,-399 490,-399 490,-399 406,-399 406,-399 400,-399 394,-393 394,-387 394,-387 394,-347 394,-347 394,-341 400,-335 406,-335"/>
<text text-anchor="start" x="433.5" y="-320.8" font-family="Arial" font-weight="bold" font-size="14.00">time</text>
</g>
<!-- 6&#45;&gt;10 -->
<g id="edge8" class="edge">
<title>6&#45;&gt;10</title>
<path fill="none" stroke="#888888" d="M448,-461.67C448,-453.39 448,-444.83 448,-436.38"/>
<polygon fill="#888888" stroke="#888888" points="451.5,-436.18 448,-426.18 444.5,-436.18 451.5,-436.18"/>
</g>
<!-- 18 -->
<g id="node18" class="node">
<title>18</title>
<text text-anchor="start" x="740.5" y="-407.8" font-family="Arial" font-weight="bold" font-size="14.00"> &lt; 20.5</text>
<path fill="#ebebeb" stroke="transparent" d="M720,-335C720,-335 804,-335 804,-335 810,-335 816,-341 816,-347 816,-347 816,-387 816,-387 816,-393 810,-399 804,-399 804,-399 720,-399 720,-399 714,-399 708,-393 708,-387 708,-387 708,-347 708,-347 708,-341 714,-335 720,-335"/>
<text text-anchor="start" x="709" y="-396.4" font-family="Arial" font-size="2.00"> </text>
<text text-anchor="start" x="709" y="-390.4" font-family="Arial" font-size="7.00"> &#160;18</text>
<text text-anchor="start" x="723" y="-373.8" font-family="Arial" font-weight="bold" font-size="14.00">Mean: 40.34</text>
<text text-anchor="start" x="742" y="-356.8" font-family="Arial" font-weight="bold" font-size="14.00">n = 84</text>
<text text-anchor="start" x="760.5" y="-338.8" font-family="Arial" font-size="9.00"> </text>
<path fill="none" stroke="#333333" d="M720,-335C720,-335 804,-335 804,-335 810,-335 816,-341 816,-347 816,-347 816,-387 816,-387 816,-393 810,-399 804,-399 804,-399 720,-399 720,-399 714,-399 708,-393 708,-387 708,-387 708,-347 708,-347 708,-341 714,-335 720,-335"/>
<text text-anchor="start" x="747.5" y="-320.8" font-family="Arial" font-weight="bold" font-size="14.00">time</text>
</g>
<!-- 17&#45;&gt;18 -->
<g id="edge17" class="edge">
<title>17&#45;&gt;18</title>
<path fill="none" stroke="#888888" d="M762,-461.67C762,-453.39 762,-444.83 762,-436.38"/>
<polygon fill="#888888" stroke="#888888" points="765.5,-436.18 762,-426.18 758.5,-436.18 765.5,-436.18"/>
</g>
<!-- 21 -->
<g id="node19" class="node">
<title>21</title>
<text text-anchor="start" x="975" y="-407.8" font-family="Arial" font-weight="bold" font-size="14.00"> ≥ 20.5</text>
<path fill="#ebebeb" stroke="transparent" d="M958,-335C958,-335 1034,-335 1034,-335 1040,-335 1046,-341 1046,-347 1046,-347 1046,-387 1046,-387 1046,-393 1040,-399 1034,-399 1034,-399 958,-399 958,-399 952,-399 946,-393 946,-387 946,-387 946,-347 946,-347 946,-341 952,-335 958,-335"/>
<text text-anchor="start" x="947" y="-396.4" font-family="Arial" font-size="2.00"> </text>
<text text-anchor="start" x="947" y="-390.4" font-family="Arial" font-size="7.00"> &#160;21</text>
<text text-anchor="start" x="961" y="-373.8" font-family="Arial" font-weight="bold" font-size="14.00">Mean: 32.3</text>
<text text-anchor="start" x="976" y="-356.8" font-family="Arial" font-weight="bold" font-size="14.00">n = 62</text>
<text text-anchor="start" x="994.5" y="-338.8" font-family="Arial" font-size="9.00"> </text>
<path fill="none" stroke="#333333" d="M958,-335C958,-335 1034,-335 1034,-335 1040,-335 1046,-341 1046,-347 1046,-347 1046,-387 1046,-387 1046,-393 1040,-399 1034,-399 1034,-399 958,-399 958,-399 952,-399 946,-393 946,-387 946,-387 946,-347 946,-347 946,-341 952,-335 958,-335"/>
<text text-anchor="start" x="981.5" y="-320.8" font-family="Arial" font-weight="bold" font-size="14.00">time</text>
</g>
<!-- 17&#45;&gt;21 -->
<g id="edge18" class="edge">
<title>17&#45;&gt;21</title>
<path fill="none" stroke="#888888" d="M828.12,-477.05C858.38,-457.39 894.29,-434.07 925.11,-414.05"/>
<polygon fill="#888888" stroke="#888888" points="927.19,-416.87 933.67,-408.49 923.37,-411 927.19,-416.87"/>
</g>
<!-- 8 -->
<g id="node10" class="node">
<title>8</title>
<text text-anchor="start" x="51.5" y="-253.8" font-family="Arial" font-weight="bold" font-size="14.00"> &lt; 5.5</text>
<path fill="#f8766d" fill-opacity="0.839216" stroke="transparent" d="M24,-181C24,-181 114,-181 114,-181 120,-181 126,-187 126,-193 126,-193 126,-233 126,-233 126,-239 120,-245 114,-245 114,-245 24,-245 24,-245 18,-245 12,-239 12,-233 12,-233 12,-193 12,-193 12,-187 18,-181 24,-181"/>
<text text-anchor="start" x="13" y="-242.4" font-family="Arial" font-size="2.00"> </text>
<text text-anchor="start" x="13" y="-236.4" font-family="Arial" font-size="7.00"> &#160;8</text>
<text text-anchor="start" x="27" y="-219.8" font-family="Arial" font-weight="bold" font-size="14.00">Predict 22.09</text>
<text text-anchor="start" x="49" y="-202.8" font-family="Arial" font-weight="bold" font-size="14.00">n = 12</text>
<text text-anchor="start" x="67.5" y="-184.8" font-family="Arial" font-size="9.00"> </text>
<path fill="none" stroke="#333333" d="M24,-181C24,-181 114,-181 114,-181 120,-181 126,-187 126,-193 126,-193 126,-233 126,-233 126,-239 120,-245 114,-245 114,-245 24,-245 24,-245 18,-245 12,-239 12,-233 12,-233 12,-193 12,-193 12,-187 18,-181 24,-181"/>
<text text-anchor="start" x="67" y="-166.8" font-family="Arial" font-weight="bold" font-size="14.00"> </text>
</g>
<!-- 7&#45;&gt;8 -->
<g id="edge9" class="edge">
<title>7&#45;&gt;8</title>
<path fill="none" stroke="#888888" d="M165.13,-307.67C155.62,-298.39 145.72,-288.75 136.05,-279.33"/>
<polygon fill="#888888" stroke="#888888" points="138.31,-276.65 128.71,-272.18 133.43,-281.66 138.31,-276.65"/>
</g>
<!-- 9 -->
<g id="node11" class="node">
<title>9</title>
<text text-anchor="start" x="208" y="-253.8" font-family="Arial" font-weight="bold" font-size="14.00"> ≥ 5.5</text>
<path fill="#f8766d" fill-opacity="0.603922" stroke="transparent" d="M180,-181C180,-181 270,-181 270,-181 276,-181 282,-187 282,-193 282,-193 282,-233 282,-233 282,-239 276,-245 270,-245 270,-245 180,-245 180,-245 174,-245 168,-239 168,-233 168,-233 168,-193 168,-193 168,-187 174,-181 180,-181"/>
<text text-anchor="start" x="169" y="-242.4" font-family="Arial" font-size="2.00"> </text>
<text text-anchor="start" x="169" y="-236.4" font-family="Arial" font-size="7.00"> &#160;9</text>
<text text-anchor="start" x="183" y="-219.8" font-family="Arial" font-weight="bold" font-size="14.00">Predict 31.92</text>
<text text-anchor="start" x="201.5" y="-202.8" font-family="Arial" font-weight="bold" font-size="14.00">n = 142</text>
<text text-anchor="start" x="223.5" y="-184.8" font-family="Arial" font-size="9.00"> </text>
<path fill="none" stroke="#333333" d="M180,-181C180,-181 270,-181 270,-181 276,-181 282,-187 282,-193 282,-193 282,-233 282,-233 282,-239 276,-245 270,-245 270,-245 180,-245 180,-245 174,-245 168,-239 168,-233 168,-233 168,-193 168,-193 168,-187 174,-181 180,-181"/>
<text text-anchor="start" x="223" y="-166.8" font-family="Arial" font-weight="bold" font-size="14.00"> </text>
</g>
<!-- 7&#45;&gt;9 -->
<g id="edge10" class="edge">
<title>7&#45;&gt;9</title>
<path fill="none" stroke="#888888" d="M225,-307.67C225,-299.39 225,-290.83 225,-282.38"/>
<polygon fill="#888888" stroke="#888888" points="228.5,-282.18 225,-272.18 221.5,-282.18 228.5,-282.18"/>
</g>
<!-- 11 -->
<g id="node12" class="node">
<title>11</title>
<text text-anchor="start" x="360.5" y="-253.8" font-family="Arial" font-weight="bold" font-size="14.00"> &lt; 9.5</text>
<path fill="#ebebeb" stroke="transparent" d="M336,-181C336,-181 420,-181 420,-181 426,-181 432,-187 432,-193 432,-193 432,-233 432,-233 432,-239 426,-245 420,-245 420,-245 336,-245 336,-245 330,-245 324,-239 324,-233 324,-233 324,-193 324,-193 324,-187 330,-181 336,-181"/>
<text text-anchor="start" x="325" y="-242.4" font-family="Arial" font-size="2.00"> </text>
<text text-anchor="start" x="325" y="-236.4" font-family="Arial" font-size="7.00"> &#160;11</text>
<text text-anchor="start" x="339" y="-219.8" font-family="Arial" font-weight="bold" font-size="14.00">Mean: 39.07</text>
<text text-anchor="start" x="358" y="-202.8" font-family="Arial" font-weight="bold" font-size="14.00">n = 80</text>
<text text-anchor="start" x="376.5" y="-184.8" font-family="Arial" font-size="9.00"> </text>
<path fill="none" stroke="#333333" d="M336,-181C336,-181 420,-181 420,-181 426,-181 432,-187 432,-193 432,-193 432,-233 432,-233 432,-239 426,-245 420,-245 420,-245 336,-245 336,-245 330,-245 324,-239 324,-233 324,-233 324,-193 324,-193 324,-187 330,-181 336,-181"/>
<text text-anchor="start" x="349" y="-166.8" font-family="Arial" font-weight="bold" font-size="14.00">air_temp</text>
</g>
<!-- 10&#45;&gt;11 -->
<g id="edge11" class="edge">
<title>10&#45;&gt;11</title>
<path fill="none" stroke="#888888" d="M421.14,-307.67C417.16,-299.03 413.03,-290.07 408.98,-281.27"/>
<polygon fill="#888888" stroke="#888888" points="412.15,-279.8 404.79,-272.18 405.8,-282.72 412.15,-279.8"/>
</g>
<!-- 14 -->
<g id="node13" class="node">
<title>14</title>
<text text-anchor="start" x="514" y="-253.8" font-family="Arial" font-weight="bold" font-size="14.00"> ≥ 9.5</text>
<path fill="#ebebeb" stroke="transparent" d="M489,-181C489,-181 573,-181 573,-181 579,-181 585,-187 585,-193 585,-193 585,-233 585,-233 585,-239 579,-245 573,-245 573,-245 489,-245 489,-245 483,-245 477,-239 477,-233 477,-233 477,-193 477,-193 477,-187 483,-181 489,-181"/>
<text text-anchor="start" x="478" y="-242.4" font-family="Arial" font-size="2.00"> </text>
<text text-anchor="start" x="478" y="-236.4" font-family="Arial" font-size="7.00"> &#160;14</text>
<text text-anchor="start" x="492" y="-219.8" font-family="Arial" font-weight="bold" font-size="14.00">Mean: 34.79</text>
<text text-anchor="start" x="508" y="-202.8" font-family="Arial" font-weight="bold" font-size="14.00">n = 110</text>
<text text-anchor="start" x="529.5" y="-184.8" font-family="Arial" font-size="9.00"> </text>
<path fill="none" stroke="#333333" d="M489,-181C489,-181 573,-181 573,-181 579,-181 585,-187 585,-193 585,-193 585,-233 585,-233 585,-239 579,-245 573,-245 573,-245 489,-245 489,-245 483,-245 477,-239 477,-233 477,-233 477,-193 477,-193 477,-187 483,-181 489,-181"/>
<text text-anchor="start" x="488.5" y="-166.8" font-family="Arial" font-weight="bold" font-size="14.00">day_of_week</text>
</g>
<!-- 10&#45;&gt;14 -->
<g id="edge12" class="edge">
<title>10&#45;&gt;14</title>
<path fill="none" stroke="#888888" d="M479.85,-307.67C484.62,-298.94 489.56,-289.88 494.42,-280.99"/>
<polygon fill="#888888" stroke="#888888" points="497.51,-282.63 499.23,-272.18 491.37,-279.28 497.51,-282.63"/>
</g>
<!-- 12 -->
<g id="node14" class="node">
<title>12</title>
<text text-anchor="start" x="196" y="-99.8" font-family="Arial" font-weight="bold" font-size="14.00"> &lt; 24.05</text>
<path fill="#f8766d" fill-opacity="0.494118" stroke="transparent" d="M176,-27C176,-27 266,-27 266,-27 272,-27 278,-33 278,-39 278,-39 278,-79 278,-79 278,-85 272,-91 266,-91 266,-91 176,-91 176,-91 170,-91 164,-85 164,-79 164,-79 164,-39 164,-39 164,-33 170,-27 176,-27"/>
<text text-anchor="start" x="165" y="-88.4" font-family="Arial" font-size="2.00"> </text>
<text text-anchor="start" x="165" y="-82.4" font-family="Arial" font-size="7.00"> &#160;12</text>
<text text-anchor="start" x="179" y="-65.8" font-family="Arial" font-weight="bold" font-size="14.00">Predict 36.45</text>
<text text-anchor="start" x="201" y="-48.8" font-family="Arial" font-weight="bold" font-size="14.00">n = 19</text>
<text text-anchor="start" x="219.5" y="-30.8" font-family="Arial" font-size="9.00"> </text>
<path fill="none" stroke="#333333" d="M176,-27C176,-27 266,-27 266,-27 272,-27 278,-33 278,-39 278,-39 278,-79 278,-79 278,-85 272,-91 266,-91 266,-91 176,-91 176,-91 170,-91 164,-85 164,-79 164,-79 164,-39 164,-39 164,-33 170,-27 176,-27"/>
<text text-anchor="start" x="219" y="-12.8" font-family="Arial" font-weight="bold" font-size="14.00"> </text>
</g>
<!-- 11&#45;&gt;12 -->
<g id="edge13" class="edge">
<title>11&#45;&gt;12</title>
<path fill="none" stroke="#888888" d="M317.75,-153.67C308.17,-144.39 298.21,-134.75 288.48,-125.33"/>
<polygon fill="#888888" stroke="#888888" points="290.71,-122.62 281.09,-118.18 285.84,-127.65 290.71,-122.62"/>
</g>
<!-- 13 -->
<g id="node15" class="node">
<title>13</title>
<text text-anchor="start" x="352.5" y="-99.8" font-family="Arial" font-weight="bold" font-size="14.00"> ≥ 24.05</text>
<path fill="#f8766d" fill-opacity="0.411765" stroke="transparent" d="M332,-27C332,-27 422,-27 422,-27 428,-27 434,-33 434,-39 434,-39 434,-79 434,-79 434,-85 428,-91 422,-91 422,-91 332,-91 332,-91 326,-91 320,-85 320,-79 320,-79 320,-39 320,-39 320,-33 326,-27 332,-27"/>
<text text-anchor="start" x="321" y="-88.4" font-family="Arial" font-size="2.00"> </text>
<text text-anchor="start" x="321" y="-82.4" font-family="Arial" font-size="7.00"> &#160;13</text>
<text text-anchor="start" x="335" y="-65.8" font-family="Arial" font-weight="bold" font-size="14.00">Predict 39.89</text>
<text text-anchor="start" x="357" y="-48.8" font-family="Arial" font-weight="bold" font-size="14.00">n = 61</text>
<text text-anchor="start" x="375.5" y="-30.8" font-family="Arial" font-size="9.00"> </text>
<path fill="none" stroke="#333333" d="M332,-27C332,-27 422,-27 422,-27 428,-27 434,-33 434,-39 434,-39 434,-79 434,-79 434,-85 428,-91 422,-91 422,-91 332,-91 332,-91 326,-91 320,-85 320,-79 320,-79 320,-39 320,-39 320,-33 326,-27 332,-27"/>
<text text-anchor="start" x="375" y="-12.8" font-family="Arial" font-weight="bold" font-size="14.00"> </text>
</g>
<!-- 11&#45;&gt;13 -->
<g id="edge14" class="edge">
<title>11&#45;&gt;13</title>
<path fill="none" stroke="#888888" d="M377.62,-153.67C377.56,-145.39 377.51,-136.83 377.45,-128.38"/>
<polygon fill="#888888" stroke="#888888" points="380.95,-128.15 377.38,-118.18 373.95,-128.2 380.95,-128.15"/>
</g>
<!-- 15 -->
<g id="node16" class="node">
<title>15</title>
<text text-anchor="start" x="515.5" y="-99.8" font-family="Arial" font-weight="bold" font-size="14.00"> &lt; 5.5</text>
<path fill="#f8766d" fill-opacity="0.568627" stroke="transparent" d="M488,-27C488,-27 578,-27 578,-27 584,-27 590,-33 590,-39 590,-39 590,-79 590,-79 590,-85 584,-91 578,-91 578,-91 488,-91 488,-91 482,-91 476,-85 476,-79 476,-79 476,-39 476,-39 476,-33 482,-27 488,-27"/>
<text text-anchor="start" x="477" y="-88.4" font-family="Arial" font-size="2.00"> </text>
<text text-anchor="start" x="477" y="-82.4" font-family="Arial" font-size="7.00"> &#160;15</text>
<text text-anchor="start" x="491" y="-65.8" font-family="Arial" font-weight="bold" font-size="14.00">Predict 33.34</text>
<text text-anchor="start" x="513" y="-48.8" font-family="Arial" font-weight="bold" font-size="14.00">n = 73</text>
<text text-anchor="start" x="531.5" y="-30.8" font-family="Arial" font-size="9.00"> </text>
<path fill="none" stroke="#333333" d="M488,-27C488,-27 578,-27 578,-27 584,-27 590,-33 590,-39 590,-39 590,-79 590,-79 590,-85 584,-91 578,-91 578,-91 488,-91 488,-91 482,-91 476,-85 476,-79 476,-79 476,-39 476,-39 476,-33 482,-27 488,-27"/>
<text text-anchor="start" x="531" y="-12.8" font-family="Arial" font-weight="bold" font-size="14.00"> </text>
</g>
<!-- 14&#45;&gt;15 -->
<g id="edge15" class="edge">
<title>14&#45;&gt;15</title>
<path fill="none" stroke="#888888" d="M531.77,-153.67C531.88,-145.39 531.99,-136.83 532.1,-128.38"/>
<polygon fill="#888888" stroke="#888888" points="535.6,-128.22 532.23,-118.18 528.6,-128.13 535.6,-128.22"/>
</g>
<!-- 16 -->
<g id="node17" class="node">
<title>16</title>
<text text-anchor="start" x="672" y="-99.8" font-family="Arial" font-weight="bold" font-size="14.00"> ≥ 5.5</text>
<path fill="#f8766d" fill-opacity="0.466667" stroke="transparent" d="M644,-27C644,-27 734,-27 734,-27 740,-27 746,-33 746,-39 746,-39 746,-79 746,-79 746,-85 740,-91 734,-91 734,-91 644,-91 644,-91 638,-91 632,-85 632,-79 632,-79 632,-39 632,-39 632,-33 638,-27 644,-27"/>
<text text-anchor="start" x="633" y="-88.4" font-family="Arial" font-size="2.00"> </text>
<text text-anchor="start" x="633" y="-82.4" font-family="Arial" font-size="7.00"> &#160;16</text>
<text text-anchor="start" x="647" y="-65.8" font-family="Arial" font-weight="bold" font-size="14.00">Predict 37.63</text>
<text text-anchor="start" x="669" y="-48.8" font-family="Arial" font-weight="bold" font-size="14.00">n = 37</text>
<text text-anchor="start" x="687.5" y="-30.8" font-family="Arial" font-size="9.00"> </text>
<path fill="none" stroke="#333333" d="M644,-27C644,-27 734,-27 734,-27 740,-27 746,-33 746,-39 746,-39 746,-79 746,-79 746,-85 740,-91 734,-91 734,-91 644,-91 644,-91 638,-91 632,-85 632,-79 632,-79 632,-39 632,-39 632,-33 638,-27 644,-27"/>
<text text-anchor="start" x="687" y="-12.8" font-family="Arial" font-weight="bold" font-size="14.00"> </text>
</g>
<!-- 14&#45;&gt;16 -->
<g id="edge16" class="edge">
<title>14&#45;&gt;16</title>
<path fill="none" stroke="#888888" d="M591.64,-153.67C601.27,-144.39 611.3,-134.75 621.09,-125.33"/>
<polygon fill="#888888" stroke="#888888" points="623.75,-127.63 628.53,-118.18 618.89,-122.59 623.75,-127.63"/>
</g>
<!-- 19 -->
<g id="node20" class="node">
<title>19</title>
<text text-anchor="start" x="663" y="-253.8" font-family="Arial" font-weight="bold" font-size="14.00"> &lt; 18.5</text>
<path fill="#f8766d" fill-opacity="0.454902" stroke="transparent" d="M640,-181C640,-181 729,-181 729,-181 735,-181 741,-187 741,-193 741,-193 741,-233 741,-233 741,-239 735,-245 729,-245 729,-245 640,-245 640,-245 634,-245 628,-239 628,-233 628,-233 628,-193 628,-193 628,-187 634,-181 640,-181"/>
<text text-anchor="start" x="629" y="-242.4" font-family="Arial" font-size="2.00"> </text>
<text text-anchor="start" x="629" y="-236.4" font-family="Arial" font-size="7.00"> &#160;19</text>
<text text-anchor="start" x="643" y="-219.8" font-family="Arial" font-weight="bold" font-size="14.00">Predict 38.11</text>
<text text-anchor="start" x="664.5" y="-202.8" font-family="Arial" font-weight="bold" font-size="14.00">n = 28</text>
<text text-anchor="start" x="683" y="-184.8" font-family="Arial" font-size="9.00"> </text>
<path fill="none" stroke="#333333" d="M640,-181C640,-181 729,-181 729,-181 735,-181 741,-187 741,-193 741,-193 741,-233 741,-233 741,-239 735,-245 729,-245 729,-245 640,-245 640,-245 634,-245 628,-239 628,-233 628,-233 628,-193 628,-193 628,-187 634,-181 640,-181"/>
<text text-anchor="start" x="682.5" y="-166.8" font-family="Arial" font-weight="bold" font-size="14.00"> </text>
</g>
<!-- 18&#45;&gt;19 -->
<g id="edge19" class="edge">
<title>18&#45;&gt;19</title>
<path fill="none" stroke="#888888" d="M732.07,-307.67C727.63,-299.03 723.04,-290.07 718.52,-281.27"/>
<polygon fill="#888888" stroke="#888888" points="721.53,-279.48 713.85,-272.18 715.31,-282.67 721.53,-279.48"/>
</g>
<!-- 20 -->
<g id="node21" class="node">
<title>20</title>
<text text-anchor="start" x="819" y="-253.8" font-family="Arial" font-weight="bold" font-size="14.00"> ≥ 18.5</text>
<path fill="#f8766d" fill-opacity="0.376471" stroke="transparent" d="M795,-181C795,-181 885,-181 885,-181 891,-181 897,-187 897,-193 897,-193 897,-233 897,-233 897,-239 891,-245 885,-245 885,-245 795,-245 795,-245 789,-245 783,-239 783,-233 783,-233 783,-193 783,-193 783,-187 789,-181 795,-181"/>
<text text-anchor="start" x="784" y="-242.4" font-family="Arial" font-size="2.00"> </text>
<text text-anchor="start" x="784" y="-236.4" font-family="Arial" font-size="7.00"> &#160;20</text>
<text text-anchor="start" x="798" y="-219.8" font-family="Arial" font-weight="bold" font-size="14.00">Predict 41.45</text>
<text text-anchor="start" x="820" y="-202.8" font-family="Arial" font-weight="bold" font-size="14.00">n = 56</text>
<text text-anchor="start" x="838.5" y="-184.8" font-family="Arial" font-size="9.00"> </text>
<path fill="none" stroke="#333333" d="M795,-181C795,-181 885,-181 885,-181 891,-181 897,-187 897,-193 897,-193 897,-233 897,-233 897,-239 891,-245 885,-245 885,-245 795,-245 795,-245 789,-245 783,-239 783,-233 783,-233 783,-193 783,-193 783,-187 789,-181 795,-181"/>
<text text-anchor="start" x="838" y="-166.8" font-family="Arial" font-weight="bold" font-size="14.00"> </text>
</g>
<!-- 18&#45;&gt;20 -->
<g id="edge20" class="edge">
<title>18&#45;&gt;20</title>
<path fill="none" stroke="#888888" d="M791.93,-307.67C796.37,-299.03 800.96,-290.07 805.48,-281.27"/>
<polygon fill="#888888" stroke="#888888" points="808.69,-282.67 810.15,-272.18 802.47,-279.48 808.69,-282.67"/>
</g>
<!-- 22 -->
<g id="node22" class="node">
<title>22</title>
<text text-anchor="start" x="974.5" y="-253.8" font-family="Arial" font-weight="bold" font-size="14.00"> &lt; 21.5</text>
<path fill="#f8766d" fill-opacity="0.498039" stroke="transparent" d="M951,-181C951,-181 1041,-181 1041,-181 1047,-181 1053,-187 1053,-193 1053,-193 1053,-233 1053,-233 1053,-239 1047,-245 1041,-245 1041,-245 951,-245 951,-245 945,-245 939,-239 939,-233 939,-233 939,-193 939,-193 939,-187 945,-181 951,-181"/>
<text text-anchor="start" x="940" y="-242.4" font-family="Arial" font-size="2.00"> </text>
<text text-anchor="start" x="940" y="-236.4" font-family="Arial" font-size="7.00"> &#160;22</text>
<text text-anchor="start" x="954" y="-219.8" font-family="Arial" font-weight="bold" font-size="14.00">Predict 36.34</text>
<text text-anchor="start" x="976" y="-202.8" font-family="Arial" font-weight="bold" font-size="14.00">n = 28</text>
<text text-anchor="start" x="994.5" y="-184.8" font-family="Arial" font-size="9.00"> </text>
<path fill="none" stroke="#333333" d="M951,-181C951,-181 1041,-181 1041,-181 1047,-181 1053,-187 1053,-193 1053,-193 1053,-233 1053,-233 1053,-239 1047,-245 1041,-245 1041,-245 951,-245 951,-245 945,-245 939,-239 939,-233 939,-233 939,-193 939,-193 939,-187 945,-181 951,-181"/>
<text text-anchor="start" x="994" y="-166.8" font-family="Arial" font-weight="bold" font-size="14.00"> </text>
</g>
<!-- 21&#45;&gt;22 -->
<g id="edge21" class="edge">
<title>21&#45;&gt;22</title>
<path fill="none" stroke="#888888" d="M996,-307.67C996,-299.39 996,-290.83 996,-282.38"/>
<polygon fill="#888888" stroke="#888888" points="999.5,-282.18 996,-272.18 992.5,-282.18 999.5,-282.18"/>
</g>
<!-- 23 -->
<g id="node23" class="node">
<title>23</title>
<text text-anchor="start" x="1144" y="-253.8" font-family="Arial" font-weight="bold" font-size="14.00"> ≥ 21.5</text>
<text text-anchor="start" x="1093" y="-209.3" font-family="Arial" font-size="14.00"> &#160;&#160;&#160;</text>
<path fill="#ebebeb" stroke="transparent" d="M1123,-181C1123,-181 1207,-181 1207,-181 1213,-181 1219,-187 1219,-193 1219,-193 1219,-233 1219,-233 1219,-239 1213,-245 1207,-245 1207,-245 1123,-245 1123,-245 1117,-245 1111,-239 1111,-233 1111,-233 1111,-193 1111,-193 1111,-187 1117,-181 1123,-181"/>
<text text-anchor="start" x="1112" y="-242.4" font-family="Arial" font-size="2.00"> </text>
<text text-anchor="start" x="1112" y="-236.4" font-family="Arial" font-size="7.00"> &#160;23</text>
<text text-anchor="start" x="1126" y="-219.8" font-family="Arial" font-weight="bold" font-size="14.00">Mean: 28.96</text>
<text text-anchor="start" x="1145" y="-202.8" font-family="Arial" font-weight="bold" font-size="14.00">n = 34</text>
<text text-anchor="start" x="1163.5" y="-184.8" font-family="Arial" font-size="9.00"> </text>
<path fill="none" stroke="#333333" d="M1123,-181C1123,-181 1207,-181 1207,-181 1213,-181 1219,-187 1219,-193 1219,-193 1219,-233 1219,-233 1219,-239 1213,-245 1207,-245 1207,-245 1123,-245 1123,-245 1117,-245 1111,-239 1111,-233 1111,-233 1111,-193 1111,-193 1111,-187 1117,-181 1123,-181"/>
<text text-anchor="start" x="1221" y="-209.3" font-family="Arial" font-size="14.00"> &#160;&#160;&#160;</text>
<text text-anchor="start" x="1107.5" y="-166.8" font-family="Arial" font-weight="bold" font-size="14.00">prev_168h_inflow</text>
</g>
<!-- 21&#45;&gt;23 -->
<g id="edge22" class="edge">
<title>21&#45;&gt;23</title>
<path fill="none" stroke="#888888" d="M1058.45,-309.83C1069.63,-299.77 1081.37,-289.22 1092.8,-278.93"/>
<polygon fill="#888888" stroke="#888888" points="1095.17,-281.52 1100.26,-272.23 1090.49,-276.31 1095.17,-281.52"/>
</g>
<!-- 24 -->
<g id="node24" class="node">
<title>24</title>
<text text-anchor="start" x="1062" y="-99.8" font-family="Arial" font-weight="bold" font-size="14.00"> &lt; 27.51</text>
<path fill="#f8766d" fill-opacity="0.788235" stroke="transparent" d="M1042,-27C1042,-27 1132,-27 1132,-27 1138,-27 1144,-33 1144,-39 1144,-39 1144,-79 1144,-79 1144,-85 1138,-91 1132,-91 1132,-91 1042,-91 1042,-91 1036,-91 1030,-85 1030,-79 1030,-79 1030,-39 1030,-39 1030,-33 1036,-27 1042,-27"/>
<text text-anchor="start" x="1031" y="-88.4" font-family="Arial" font-size="2.00"> </text>
<text text-anchor="start" x="1031" y="-82.4" font-family="Arial" font-size="7.00"> &#160;24</text>
<text text-anchor="start" x="1045" y="-65.8" font-family="Arial" font-weight="bold" font-size="14.00">Predict 24.26</text>
<text text-anchor="start" x="1071" y="-48.8" font-family="Arial" font-weight="bold" font-size="14.00">n = 8</text>
<text text-anchor="start" x="1085.5" y="-30.8" font-family="Arial" font-size="9.00"> </text>
<path fill="none" stroke="#333333" d="M1042,-27C1042,-27 1132,-27 1132,-27 1138,-27 1144,-33 1144,-39 1144,-39 1144,-79 1144,-79 1144,-85 1138,-91 1132,-91 1132,-91 1042,-91 1042,-91 1036,-91 1030,-85 1030,-79 1030,-79 1030,-39 1030,-39 1030,-33 1036,-27 1042,-27"/>
<text text-anchor="start" x="1085" y="-12.8" font-family="Arial" font-weight="bold" font-size="14.00"> </text>
</g>
<!-- 23&#45;&gt;24 -->
<g id="edge23" class="edge">
<title>23&#45;&gt;24</title>
<path fill="none" stroke="#888888" d="M1135.07,-153.67C1130.63,-145.03 1126.04,-136.07 1121.52,-127.27"/>
<polygon fill="#888888" stroke="#888888" points="1124.53,-125.48 1116.85,-118.18 1118.31,-128.67 1124.53,-125.48"/>
</g>
<!-- 25 -->
<g id="node25" class="node">
<title>25</title>
<text text-anchor="start" x="1218.5" y="-99.8" font-family="Arial" font-weight="bold" font-size="14.00"> ≥ 27.51</text>
<path fill="#f8766d" fill-opacity="0.639216" stroke="transparent" d="M1198,-27C1198,-27 1288,-27 1288,-27 1294,-27 1300,-33 1300,-39 1300,-39 1300,-79 1300,-79 1300,-85 1294,-91 1288,-91 1288,-91 1198,-91 1198,-91 1192,-91 1186,-85 1186,-79 1186,-79 1186,-39 1186,-39 1186,-33 1192,-27 1198,-27"/>
<text text-anchor="start" x="1187" y="-88.4" font-family="Arial" font-size="2.00"> </text>
<text text-anchor="start" x="1187" y="-82.4" font-family="Arial" font-size="7.00"> &#160;25</text>
<text text-anchor="start" x="1201" y="-65.8" font-family="Arial" font-weight="bold" font-size="14.00">Predict 30.41</text>
<text text-anchor="start" x="1223" y="-48.8" font-family="Arial" font-weight="bold" font-size="14.00">n = 26</text>
<text text-anchor="start" x="1241.5" y="-30.8" font-family="Arial" font-size="9.00"> </text>
<path fill="none" stroke="#333333" d="M1198,-27C1198,-27 1288,-27 1288,-27 1294,-27 1300,-33 1300,-39 1300,-39 1300,-79 1300,-79 1300,-85 1294,-91 1288,-91 1288,-91 1198,-91 1198,-91 1192,-91 1186,-85 1186,-79 1186,-79 1186,-39 1186,-39 1186,-33 1192,-27 1198,-27"/>
<text text-anchor="start" x="1241" y="-12.8" font-family="Arial" font-weight="bold" font-size="14.00"> </text>
</g>
<!-- 23&#45;&gt;25 -->
<g id="edge24" class="edge">
<title>23&#45;&gt;25</title>
<path fill="none" stroke="#888888" d="M1194.93,-153.67C1199.37,-145.03 1203.96,-136.07 1208.48,-127.27"/>
<polygon fill="#888888" stroke="#888888" points="1211.69,-128.67 1213.15,-118.18 1205.47,-125.48 1211.69,-128.67"/>
</g>
</g>
</svg>
