<?xml version="1.0" encoding="UTF-8" standalone="no"?>
<!DOCTYPE svg PUBLIC "-//W3C//DTD SVG 1.1//EN"
 "http://www.w3.org/Graphics/SVG/1.1/DTD/svg11.dtd">
<!-- Generated by graphviz version 2.50.0 (20211204.2007)
 -->
<!-- Pages: 1 -->
<svg width="781pt" height="1050pt"
 viewBox="0.00 0.00 781.00 1050.00" xmlns="http://www.w3.org/2000/svg" xmlns:xlink="http://www.w3.org/1999/xlink">
<g id="graph0" class="graph" transform="scale(1 1) rotate(0) translate(4 1046)">
<polygon fill="white" stroke="transparent" points="-4,4 -4,-1046 777,-1046 777,4 -4,4"/>
<!-- 1 -->
<g id="node1" class="node">
<title>1</title>
<text text-anchor="start" x="461" y="-1023.8" font-family="Arial" font-weight="bold" font-size="14.00"> </text>
<path fill="#ebebeb" stroke="transparent" d="M421,-951C421,-951 505,-951 505,-951 511,-951 517,-957 517,-963 517,-963 517,-1003 517,-1003 517,-1009 511,-1015 505,-1015 505,-1015 421,-1015 421,-1015 415,-1015 409,-1009 409,-1003 409,-1003 409,-963 409,-963 409,-957 415,-951 421,-951"/>
<text text-anchor="start" x="410" y="-1012.4" font-family="Arial" font-size="2.00"> </text>
<text text-anchor="start" x="410" y="-1006.4" font-family="Arial" font-size="7.00"> &#160;1</text>
<text text-anchor="start" x="424" y="-989.8" font-family="Arial" font-weight="bold" font-size="14.00">Mean: 21.81</text>
<text text-anchor="start" x="439.5" y="-972.8" font-family="Arial" font-weight="bold" font-size="14.00">n = 672</text>
<text text-anchor="start" x="461.5" y="-954.8" font-family="Arial" font-size="9.00"> </text>
<path fill="none" stroke="#333333" d="M421,-951C421,-951 505,-951 505,-951 511,-951 517,-957 517,-963 517,-963 517,-1003 517,-1003 517,-1009 511,-1015 505,-1015 505,-1015 421,-1015 421,-1015 415,-1015 409,-1009 409,-1003 409,-1003 409,-963 409,-963 409,-957 415,-951 421,-951"/>
<text text-anchor="start" x="420.5" y="-936.8" font-family="Arial" font-weight="bold" font-size="14.00">day_of_week</text>
</g>
<!-- 2 -->
<g id="node2" class="node">
<title>2</title>
<text text-anchor="start" x="366.5" y="-869.8" font-family="Arial" font-weight="bold" font-size="14.00"> &lt; 5.5</text>
<path fill="#ebebeb" stroke="transparent" d="M342,-797C342,-797 426,-797 426,-797 432,-797 438,-803 438,-809 438,-809 438,-849 438,-849 438,-855 432,-861 426,-861 426,-861 342,-861 342,-861 336,-861 330,-855 330,-849 330,-849 330,-809 330,-809 330,-803 336,-797 342,-797"/>
<text text-anchor="start" x="331" y="-858.4" font-family="Arial" font-size="2.00"> </text>
<text text-anchor="start" x="331" y="-852.4" font-family="Arial" font-size="7.00"> &#160;2</text>
<text text-anchor="start" x="345" y="-835.8" font-family="Arial" font-weight="bold" font-size="14.00">Mean: 22.86</text>
<text text-anchor="start" x="360.5" y="-818.8" font-family="Arial" font-weight="bold" font-size="14.00">n = 480</text>
<text text-anchor="start" x="382.5" y="-800.8" font-family="Arial" font-size="9.00"> </text>
<path fill="none" stroke="#333333" d="M342,-797C342,-797 426,-797 426,-797 432,-797 438,-803 438,-809 438,-809 438,-849 438,-849 438,-855 432,-861 426,-861 426,-861 342,-861 342,-861 336,-861 330,-855 330,-849 330,-849 330,-809 330,-809 330,-803 336,-797 342,-797"/>
<text text-anchor="start" x="369.5" y="-782.8" font-family="Arial" font-weight="bold" font-size="14.00">time</text>
</g>
<!-- 1&#45;&gt;2 -->
<g id="edge1" class="edge">
<title>1&#45;&gt;2</title>
<path fill="none" stroke="#888888" d="M432.68,-923.67C428.19,-915.03 423.54,-906.07 418.96,-897.27"/>
<polygon fill="#888888" stroke="#888888" points="421.95,-895.44 414.24,-888.18 415.74,-898.66 421.95,-895.44"/>
</g>
<!-- 19 -->
<g id="node3" class="node">
<title>19</title>
<text text-anchor="start" x="525" y="-869.8" font-family="Arial" font-weight="bold" font-size="14.00"> ≥ 5.5</text>
<text text-anchor="start" x="478" y="-825.3" font-family="Arial" font-size="14.00"> &#160;</text>
<path fill="#ebebeb" stroke="transparent" d="M500,-797C500,-797 584,-797 584,-797 590,-797 596,-803 596,-809 596,-809 596,-849 596,-849 596,-855 590,-861 584,-861 584,-861 500,-861 500,-861 494,-861 488,-855 488,-849 488,-849 488,-809 488,-809 488,-803 494,-797 500,-797"/>
<text text-anchor="start" x="489" y="-858.4" font-family="Arial" font-size="2.00"> </text>
<text text-anchor="start" x="489" y="-852.4" font-family="Arial" font-size="7.00"> &#160;19</text>
<text text-anchor="start" x="503" y="-835.8" font-family="Arial" font-weight="bold" font-size="14.00">Mean: 19.18</text>
<text text-anchor="start" x="518.5" y="-818.8" font-family="Arial" font-weight="bold" font-size="14.00">n = 192</text>
<text text-anchor="start" x="540.5" y="-800.8" font-family="Arial" font-size="9.00"> </text>
<path fill="none" stroke="#333333" d="M500,-797C500,-797 584,-797 584,-797 590,-797 596,-803 596,-809 596,-809 596,-849 596,-849 596,-855 590,-861 584,-861 584,-861 500,-861 500,-861 494,-861 488,-855 488,-849 488,-849 488,-809 488,-809 488,-803 494,-797 500,-797"/>
<text text-anchor="start" x="598" y="-825.3" font-family="Arial" font-size="14.00"> &#160;</text>
<text text-anchor="start" x="496.5" y="-782.8" font-family="Arial" font-weight="bold" font-size="14.00">prev_1_inflow</text>
</g>
<!-- 1&#45;&gt;19 -->
<g id="edge2" class="edge">
<title>1&#45;&gt;19</title>
<path fill="none" stroke="#888888" d="M493.32,-923.67C497.81,-915.03 502.46,-906.07 507.04,-897.27"/>
<polygon fill="#888888" stroke="#888888" points="510.26,-898.66 511.76,-888.18 504.05,-895.44 510.26,-898.66"/>
</g>
<!-- 3 -->
<g id="node4" class="node">
<title>3</title>
<text text-anchor="start" x="207.5" y="-715.8" font-family="Arial" font-weight="bold" font-size="14.00"> &lt; 6.5</text>
<text text-anchor="start" x="161" y="-671.3" font-family="Arial" font-size="14.00"> &#160;</text>
<path fill="#ebebeb" stroke="transparent" d="M183,-643C183,-643 267,-643 267,-643 273,-643 279,-649 279,-655 279,-655 279,-695 279,-695 279,-701 273,-707 267,-707 267,-707 183,-707 183,-707 177,-707 171,-701 171,-695 171,-695 171,-655 171,-655 171,-649 177,-643 183,-643"/>
<text text-anchor="start" x="172" y="-704.4" font-family="Arial" font-size="2.00"> </text>
<text text-anchor="start" x="172" y="-698.4" font-family="Arial" font-size="7.00"> &#160;3</text>
<text text-anchor="start" x="186" y="-681.8" font-family="Arial" font-weight="bold" font-size="14.00">Mean: 19.96</text>
<text text-anchor="start" x="201.5" y="-664.8" font-family="Arial" font-weight="bold" font-size="14.00">n = 140</text>
<text text-anchor="start" x="223.5" y="-646.8" font-family="Arial" font-size="9.00"> </text>
<path fill="none" stroke="#333333" d="M183,-643C183,-643 267,-643 267,-643 273,-643 279,-649 279,-655 279,-655 279,-695 279,-695 279,-701 273,-707 267,-707 267,-707 183,-707 183,-707 177,-707 171,-701 171,-695 171,-695 171,-655 171,-655 171,-649 177,-643 183,-643"/>
<text text-anchor="start" x="281" y="-671.3" font-family="Arial" font-size="14.00"> &#160;</text>
<text text-anchor="start" x="175.5" y="-628.8" font-family="Arial" font-weight="bold" font-size="14.00">prev_24_inflow</text>
</g>
<!-- 2&#45;&gt;3 -->
<g id="edge3" class="edge">
<title>2&#45;&gt;3</title>
<path fill="none" stroke="#888888" d="M322.98,-769.67C313.28,-760.39 303.19,-750.75 293.34,-741.33"/>
<polygon fill="#888888" stroke="#888888" points="295.5,-738.56 285.86,-734.18 290.67,-743.62 295.5,-738.56"/>
</g>
<!-- 6 -->
<g id="node5" class="node">
<title>6</title>
<text text-anchor="start" x="369" y="-715.8" font-family="Arial" font-weight="bold" font-size="14.00"> ≥ 6.5</text>
<path fill="#ebebeb" stroke="transparent" d="M344,-643C344,-643 428,-643 428,-643 434,-643 440,-649 440,-655 440,-655 440,-695 440,-695 440,-701 434,-707 428,-707 428,-707 344,-707 344,-707 338,-707 332,-701 332,-695 332,-695 332,-655 332,-655 332,-649 338,-643 344,-643"/>
<text text-anchor="start" x="333" y="-704.4" font-family="Arial" font-size="2.00"> </text>
<text text-anchor="start" x="333" y="-698.4" font-family="Arial" font-size="7.00"> &#160;6</text>
<text text-anchor="start" x="347" y="-681.8" font-family="Arial" font-weight="bold" font-size="14.00">Mean: 24.06</text>
<text text-anchor="start" x="362.5" y="-664.8" font-family="Arial" font-weight="bold" font-size="14.00">n = 340</text>
<text text-anchor="start" x="384.5" y="-646.8" font-family="Arial" font-size="9.00"> </text>
<path fill="none" stroke="#333333" d="M344,-643C344,-643 428,-643 428,-643 434,-643 440,-649 440,-655 440,-655 440,-695 440,-695 440,-701 434,-707 428,-707 428,-707 344,-707 344,-707 338,-707 332,-701 332,-695 332,-695 332,-655 332,-655 332,-649 338,-643 344,-643"/>
<text text-anchor="start" x="371.5" y="-628.8" font-family="Arial" font-weight="bold" font-size="14.00">time</text>
</g>
<!-- 2&#45;&gt;6 -->
<g id="edge4" class="edge">
<title>2&#45;&gt;6</title>
<path fill="none" stroke="#888888" d="M384.77,-769.67C384.88,-761.39 384.99,-752.83 385.1,-744.38"/>
<polygon fill="#888888" stroke="#888888" points="388.6,-744.22 385.23,-734.18 381.6,-744.13 388.6,-744.22"/>
</g>
<!-- 20 -->
<g id="node20" class="node">
<title>20</title>
<text text-anchor="start" x="516" y="-715.8" font-family="Arial" font-weight="bold" font-size="14.00"> &lt; 18.88</text>
<path fill="#f8766d" fill-opacity="0.874510" stroke="transparent" d="M496,-643C496,-643 586,-643 586,-643 592,-643 598,-649 598,-655 598,-655 598,-695 598,-695 598,-701 592,-707 586,-707 586,-707 496,-707 496,-707 490,-707 484,-701 484,-695 484,-695 484,-655 484,-655 484,-649 490,-643 496,-643"/>
<text text-anchor="start" x="485" y="-704.4" font-family="Arial" font-size="2.00"> </text>
<text text-anchor="start" x="485" y="-698.4" font-family="Arial" font-size="7.00"> &#160;20</text>
<text text-anchor="start" x="499" y="-681.8" font-family="Arial" font-weight="bold" font-size="14.00">Predict 18.44</text>
<text text-anchor="start" x="521" y="-664.8" font-family="Arial" font-weight="bold" font-size="14.00">n = 90</text>
<text text-anchor="start" x="539.5" y="-646.8" font-family="Arial" font-size="9.00"> </text>
<path fill="none" stroke="#333333" d="M496,-643C496,-643 586,-643 586,-643 592,-643 598,-649 598,-655 598,-655 598,-695 598,-695 598,-701 592,-707 586,-707 586,-707 496,-707 496,-707 490,-707 484,-701 484,-695 484,-695 484,-655 484,-655 484,-649 490,-643 496,-643"/>
<text text-anchor="start" x="539" y="-628.8" font-family="Arial" font-weight="bold" font-size="14.00"> </text>
</g>
<!-- 19&#45;&gt;20 -->
<g id="edge19" class="edge">
<title>19&#45;&gt;20</title>
<path fill="none" stroke="#888888" d="M541.62,-769.67C541.56,-761.39 541.51,-752.83 541.45,-744.38"/>
<polygon fill="#888888" stroke="#888888" points="544.95,-744.15 541.38,-734.18 537.95,-744.2 544.95,-744.15"/>
</g>
<!-- 21 -->
<g id="node21" class="node">
<title>21</title>
<text text-anchor="start" x="672.5" y="-715.8" font-family="Arial" font-weight="bold" font-size="14.00"> ≥ 18.88</text>
<path fill="#f8766d" fill-opacity="0.835294" stroke="transparent" d="M652,-643C652,-643 742,-643 742,-643 748,-643 754,-649 754,-655 754,-655 754,-695 754,-695 754,-701 748,-707 742,-707 742,-707 652,-707 652,-707 646,-707 640,-701 640,-695 640,-695 640,-655 640,-655 640,-649 646,-643 652,-643"/>
<text text-anchor="start" x="641" y="-704.4" font-family="Arial" font-size="2.00"> </text>
<text text-anchor="start" x="641" y="-698.4" font-family="Arial" font-size="7.00"> &#160;21</text>
<text text-anchor="start" x="655" y="-681.8" font-family="Arial" font-weight="bold" font-size="14.00">Predict 19.83</text>
<text text-anchor="start" x="673.5" y="-664.8" font-family="Arial" font-weight="bold" font-size="14.00">n = 102</text>
<text text-anchor="start" x="695.5" y="-646.8" font-family="Arial" font-size="9.00"> </text>
<path fill="none" stroke="#333333" d="M652,-643C652,-643 742,-643 742,-643 748,-643 754,-649 754,-655 754,-655 754,-695 754,-695 754,-701 748,-707 742,-707 742,-707 652,-707 652,-707 646,-707 640,-701 640,-695 640,-695 640,-655 640,-655 640,-649 646,-643 652,-643"/>
<text text-anchor="start" x="695" y="-628.8" font-family="Arial" font-weight="bold" font-size="14.00"> </text>
</g>
<!-- 19&#45;&gt;21 -->
<g id="edge20" class="edge">
<title>19&#45;&gt;21</title>
<path fill="none" stroke="#888888" d="M601.48,-769.67C610.94,-760.39 620.78,-750.75 630.38,-741.33"/>
<polygon fill="#888888" stroke="#888888" points="632.99,-743.68 637.68,-734.18 628.08,-738.68 632.99,-743.68"/>
</g>
<!-- 4 -->
<g id="node6" class="node">
<title>4</title>
<text text-anchor="start" x="44" y="-561.8" font-family="Arial" font-weight="bold" font-size="14.00"> &lt; 20.99</text>
<path fill="#f8766d" fill-opacity="0.843137" stroke="transparent" d="M24,-489C24,-489 114,-489 114,-489 120,-489 126,-495 126,-501 126,-501 126,-541 126,-541 126,-547 120,-553 114,-553 114,-553 24,-553 24,-553 18,-553 12,-547 12,-541 12,-541 12,-501 12,-501 12,-495 18,-489 24,-489"/>
<text text-anchor="start" x="13" y="-550.4" font-family="Arial" font-size="2.00"> </text>
<text text-anchor="start" x="13" y="-544.4" font-family="Arial" font-size="7.00"> &#160;4</text>
<text text-anchor="start" x="27" y="-527.8" font-family="Arial" font-weight="bold" font-size="14.00">Predict 19.68</text>
<text text-anchor="start" x="45.5" y="-510.8" font-family="Arial" font-weight="bold" font-size="14.00">n = 120</text>
<text text-anchor="start" x="67.5" y="-492.8" font-family="Arial" font-size="9.00"> </text>
<path fill="none" stroke="#333333" d="M24,-489C24,-489 114,-489 114,-489 120,-489 126,-495 126,-501 126,-501 126,-541 126,-541 126,-547 120,-553 114,-553 114,-553 24,-553 24,-553 18,-553 12,-547 12,-541 12,-541 12,-501 12,-501 12,-495 18,-489 24,-489"/>
<text text-anchor="start" x="67" y="-474.8" font-family="Arial" font-weight="bold" font-size="14.00"> </text>
</g>
<!-- 3&#45;&gt;4 -->
<g id="edge5" class="edge">
<title>3&#45;&gt;4</title>
<path fill="none" stroke="#888888" d="M165.13,-615.67C155.62,-606.39 145.72,-596.75 136.05,-587.33"/>
<polygon fill="#888888" stroke="#888888" points="138.31,-584.65 128.71,-580.18 133.43,-589.66 138.31,-584.65"/>
</g>
<!-- 5 -->
<g id="node7" class="node">
<title>5</title>
<text text-anchor="start" x="200.5" y="-561.8" font-family="Arial" font-weight="bold" font-size="14.00"> ≥ 20.99</text>
<path fill="#f8766d" fill-opacity="0.788235" stroke="transparent" d="M180,-489C180,-489 270,-489 270,-489 276,-489 282,-495 282,-501 282,-501 282,-541 282,-541 282,-547 276,-553 270,-553 270,-553 180,-553 180,-553 174,-553 168,-547 168,-541 168,-541 168,-501 168,-501 168,-495 174,-489 180,-489"/>
<text text-anchor="start" x="169" y="-550.4" font-family="Arial" font-size="2.00"> </text>
<text text-anchor="start" x="169" y="-544.4" font-family="Arial" font-size="7.00"> &#160;5</text>
<text text-anchor="start" x="183" y="-527.8" font-family="Arial" font-weight="bold" font-size="14.00">Predict 21.65</text>
<text text-anchor="start" x="205" y="-510.8" font-family="Arial" font-weight="bold" font-size="14.00">n = 20</text>
<text text-anchor="start" x="223.5" y="-492.8" font-family="Arial" font-size="9.00"> </text>
<path fill="none" stroke="#333333" d="M180,-489C180,-489 270,-489 270,-489 276,-489 282,-495 282,-501 282,-501 282,-541 282,-541 282,-547 276,-553 270,-553 270,-553 180,-553 180,-553 174,-553 168,-547 168,-541 168,-541 168,-501 168,-501 168,-495 174,-489 180,-489"/>
<text text-anchor="start" x="223" y="-474.8" font-family="Arial" font-weight="bold" font-size="14.00"> </text>
</g>
<!-- 3&#45;&gt;5 -->
<g id="edge6" class="edge">
<title>3&#45;&gt;5</title>
<path fill="none" stroke="#888888" d="M225,-615.67C225,-607.39 225,-598.83 225,-590.38"/>
<polygon fill="#888888" stroke="#888888" points="228.5,-590.18 225,-580.18 221.5,-590.18 228.5,-590.18"/>
</g>
<!-- 7 -->
<g id="node8" class="node">
<title>7</title>
<text text-anchor="start" x="364.5" y="-561.8" font-family="Arial" font-weight="bold" font-size="14.00"> &lt; 16.5</text>
<text text-anchor="start" x="322" y="-517.3" font-family="Arial" font-size="14.00"> &#160;</text>
<path fill="#ebebeb" stroke="transparent" d="M344,-489C344,-489 428,-489 428,-489 434,-489 440,-495 440,-501 440,-501 440,-541 440,-541 440,-547 434,-553 428,-553 428,-553 344,-553 344,-553 338,-553 332,-547 332,-541 332,-541 332,-501 332,-501 332,-495 338,-489 344,-489"/>
<text text-anchor="start" x="333" y="-550.4" font-family="Arial" font-size="2.00"> </text>
<text text-anchor="start" x="333" y="-544.4" font-family="Arial" font-size="7.00"> &#160;7</text>
<text text-anchor="start" x="347" y="-527.8" font-family="Arial" font-weight="bold" font-size="14.00">Mean: 25.31</text>
<text text-anchor="start" x="362.5" y="-510.8" font-family="Arial" font-weight="bold" font-size="14.00">n = 200</text>
<text text-anchor="start" x="384.5" y="-492.8" font-family="Arial" font-size="9.00"> </text>
<path fill="none" stroke="#333333" d="M344,-489C344,-489 428,-489 428,-489 434,-489 440,-495 440,-501 440,-501 440,-541 440,-541 440,-547 434,-553 428,-553 428,-553 344,-553 344,-553 338,-553 332,-547 332,-541 332,-541 332,-501 332,-501 332,-495 338,-489 344,-489"/>
<text text-anchor="start" x="442" y="-517.3" font-family="Arial" font-size="14.00"> &#160;</text>
<text text-anchor="start" x="340.5" y="-474.8" font-family="Arial" font-weight="bold" font-size="14.00">prev_1_inflow</text>
</g>
<!-- 6&#45;&gt;7 -->
<g id="edge7" class="edge">
<title>6&#45;&gt;7</title>
<path fill="none" stroke="#888888" d="M386,-615.67C386,-607.39 386,-598.83 386,-590.38"/>
<polygon fill="#888888" stroke="#888888" points="389.5,-590.18 386,-580.18 382.5,-590.18 389.5,-590.18"/>
</g>
<!-- 16 -->
<g id="node9" class="node">
<title>16</title>
<text text-anchor="start" x="531" y="-561.8" font-family="Arial" font-weight="bold" font-size="14.00"> ≥ 16.5</text>
<text text-anchor="start" x="488" y="-517.3" font-family="Arial" font-size="14.00"> &#160;</text>
<path fill="#ebebeb" stroke="transparent" d="M510,-489C510,-489 594,-489 594,-489 600,-489 606,-495 606,-501 606,-501 606,-541 606,-541 606,-547 600,-553 594,-553 594,-553 510,-553 510,-553 504,-553 498,-547 498,-541 498,-541 498,-501 498,-501 498,-495 504,-489 510,-489"/>
<text text-anchor="start" x="499" y="-550.4" font-family="Arial" font-size="2.00"> </text>
<text text-anchor="start" x="499" y="-544.4" font-family="Arial" font-size="7.00"> &#160;16</text>
<text text-anchor="start" x="513" y="-527.8" font-family="Arial" font-weight="bold" font-size="14.00">Mean: 22.28</text>
<text text-anchor="start" x="528.5" y="-510.8" font-family="Arial" font-weight="bold" font-size="14.00">n = 140</text>
<text text-anchor="start" x="550.5" y="-492.8" font-family="Arial" font-size="9.00"> </text>
<path fill="none" stroke="#333333" d="M510,-489C510,-489 594,-489 594,-489 600,-489 606,-495 606,-501 606,-501 606,-541 606,-541 606,-547 600,-553 594,-553 594,-553 510,-553 510,-553 504,-553 498,-547 498,-541 498,-541 498,-501 498,-501 498,-495 504,-489 510,-489"/>
<text text-anchor="start" x="608" y="-517.3" font-family="Arial" font-size="14.00"> &#160;</text>
<text text-anchor="start" x="506.5" y="-474.8" font-family="Arial" font-weight="bold" font-size="14.00">prev_1_inflow</text>
</g>
<!-- 6&#45;&gt;16 -->
<g id="edge8" class="edge">
<title>6&#45;&gt;16</title>
<path fill="none" stroke="#888888" d="M449.71,-615.67C459.93,-606.3 470.57,-596.56 480.96,-587.05"/>
<polygon fill="#888888" stroke="#888888" points="483.45,-589.51 488.47,-580.18 478.73,-584.35 483.45,-589.51"/>
</g>
<!-- 8 -->
<g id="node10" class="node">
<title>8</title>
<text text-anchor="start" x="210" y="-407.8" font-family="Arial" font-weight="bold" font-size="14.00"> &lt; 29.98</text>
<text text-anchor="start" x="175" y="-363.3" font-family="Arial" font-size="14.00"> &#160;</text>
<path fill="#ebebeb" stroke="transparent" d="M197,-335C197,-335 273,-335 273,-335 279,-335 285,-341 285,-347 285,-347 285,-387 285,-387 285,-393 279,-399 273,-399 273,-399 197,-399 197,-399 191,-399 185,-393 185,-387 185,-387 185,-347 185,-347 185,-341 191,-335 197,-335"/>
<text text-anchor="start" x="186" y="-396.4" font-family="Arial" font-size="2.00"> </text>
<text text-anchor="start" x="186" y="-390.4" font-family="Arial" font-size="7.00"> &#160;8</text>
<text text-anchor="start" x="200" y="-373.8" font-family="Arial" font-weight="bold" font-size="14.00">Mean: 25.1</text>
<text text-anchor="start" x="211.5" y="-356.8" font-family="Arial" font-weight="bold" font-size="14.00">n = 192</text>
<text text-anchor="start" x="233.5" y="-338.8" font-family="Arial" font-size="9.00"> </text>
<path fill="none" stroke="#333333" d="M197,-335C197,-335 273,-335 273,-335 279,-335 285,-341 285,-347 285,-347 285,-387 285,-387 285,-393 279,-399 273,-399 273,-399 197,-399 197,-399 191,-399 185,-393 185,-387 185,-387 185,-347 185,-347 185,-341 191,-335 197,-335"/>
<text text-anchor="start" x="287" y="-363.3" font-family="Arial" font-size="14.00"> &#160;</text>
<text text-anchor="start" x="189.5" y="-320.8" font-family="Arial" font-weight="bold" font-size="14.00">prev_1_inflow</text>
</g>
<!-- 7&#45;&gt;8 -->
<g id="edge9" class="edge">
<title>7&#45;&gt;8</title>
<path fill="none" stroke="#888888" d="M328.05,-461.67C318.84,-452.39 309.26,-442.75 299.9,-433.33"/>
<polygon fill="#888888" stroke="#888888" points="302.32,-430.8 292.79,-426.18 297.36,-435.74 302.32,-430.8"/>
</g>
<!-- 13 -->
<g id="node11" class="node">
<title>13</title>
<text text-anchor="start" x="364.5" y="-407.8" font-family="Arial" font-weight="bold" font-size="14.00"> ≥ 29.98</text>
<path fill="#ebebeb" stroke="transparent" d="M347,-335C347,-335 431,-335 431,-335 437,-335 443,-341 443,-347 443,-347 443,-387 443,-387 443,-393 437,-399 431,-399 431,-399 347,-399 347,-399 341,-399 335,-393 335,-387 335,-387 335,-347 335,-347 335,-341 341,-335 347,-335"/>
<text text-anchor="start" x="336" y="-396.4" font-family="Arial" font-size="2.00"> </text>
<text text-anchor="start" x="336" y="-390.4" font-family="Arial" font-size="7.00"> &#160;13</text>
<text text-anchor="start" x="350" y="-373.8" font-family="Arial" font-weight="bold" font-size="14.00">Mean: 30.35</text>
<text text-anchor="start" x="373" y="-356.8" font-family="Arial" font-weight="bold" font-size="14.00">n = 8</text>
<text text-anchor="start" x="387.5" y="-338.8" font-family="Arial" font-size="9.00"> </text>
<path fill="none" stroke="#333333" d="M347,-335C347,-335 431,-335 431,-335 437,-335 443,-341 443,-347 443,-347 443,-387 443,-387 443,-393 437,-399 431,-399 431,-399 347,-399 347,-399 341,-399 335,-393 335,-387 335,-387 335,-347 335,-347 335,-341 341,-335 347,-335"/>
<text text-anchor="start" x="353.5" y="-320.8" font-family="Arial" font-weight="bold" font-size="14.00">windspeed</text>
</g>
<!-- 7&#45;&gt;13 -->
<g id="edge10" class="edge">
<title>7&#45;&gt;13</title>
<path fill="none" stroke="#888888" d="M387.15,-461.67C387.31,-453.39 387.48,-444.83 387.65,-436.38"/>
<polygon fill="#888888" stroke="#888888" points="391.15,-436.24 387.85,-426.18 384.16,-436.11 391.15,-436.24"/>
</g>
<!-- 17 -->
<g id="node18" class="node">
<title>17</title>
<text text-anchor="start" x="523" y="-407.8" font-family="Arial" font-weight="bold" font-size="14.00"> &lt; 22.61</text>
<path fill="#f8766d" fill-opacity="0.784314" stroke="transparent" d="M503,-335C503,-335 593,-335 593,-335 599,-335 605,-341 605,-347 605,-347 605,-387 605,-387 605,-393 599,-399 593,-399 593,-399 503,-399 503,-399 497,-399 491,-393 491,-387 491,-387 491,-347 491,-347 491,-341 497,-335 503,-335"/>
<text text-anchor="start" x="492" y="-396.4" font-family="Arial" font-size="2.00"> </text>
<text text-anchor="start" x="492" y="-390.4" font-family="Arial" font-size="7.00"> &#160;17</text>
<text text-anchor="start" x="506" y="-373.8" font-family="Arial" font-weight="bold" font-size="14.00">Predict 21.72</text>
<text text-anchor="start" x="528" y="-356.8" font-family="Arial" font-weight="bold" font-size="14.00">n = 77</text>
<text text-anchor="start" x="546.5" y="-338.8" font-family="Arial" font-size="9.00"> </text>
<path fill="none" stroke="#333333" d="M503,-335C503,-335 593,-335 593,-335 599,-335 605,-341 605,-347 605,-347 605,-387 605,-387 605,-393 599,-399 593,-399 593,-399 503,-399 503,-399 497,-399 491,-393 491,-387 491,-387 491,-347 491,-347 491,-341 497,-335 503,-335"/>
<text text-anchor="start" x="546" y="-320.8" font-family="Arial" font-weight="bold" font-size="14.00"> </text>
</g>
<!-- 16&#45;&gt;17 -->
<g id="edge17" class="edge">
<title>16&#45;&gt;17</title>
<path fill="none" stroke="#888888" d="M550.46,-461.67C550.25,-453.39 550.02,-444.83 549.8,-436.38"/>
<polygon fill="#888888" stroke="#888888" points="553.29,-436.08 549.53,-426.18 546.3,-436.27 553.29,-436.08"/>
</g>
<!-- 18 -->
<g id="node19" class="node">
<title>18</title>
<text text-anchor="start" x="679.5" y="-407.8" font-family="Arial" font-weight="bold" font-size="14.00"> ≥ 22.61</text>
<path fill="#f8766d" fill-opacity="0.752941" stroke="transparent" d="M659,-335C659,-335 749,-335 749,-335 755,-335 761,-341 761,-347 761,-347 761,-387 761,-387 761,-393 755,-399 749,-399 749,-399 659,-399 659,-399 653,-399 647,-393 647,-387 647,-387 647,-347 647,-347 647,-341 653,-335 659,-335"/>
<text text-anchor="start" x="648" y="-396.4" font-family="Arial" font-size="2.00"> </text>
<text text-anchor="start" x="648" y="-390.4" font-family="Arial" font-size="7.00"> &#160;18</text>
<text text-anchor="start" x="662" y="-373.8" font-family="Arial" font-weight="bold" font-size="14.00">Predict 22.96</text>
<text text-anchor="start" x="684" y="-356.8" font-family="Arial" font-weight="bold" font-size="14.00">n = 63</text>
<text text-anchor="start" x="702.5" y="-338.8" font-family="Arial" font-size="9.00"> </text>
<path fill="none" stroke="#333333" d="M659,-335C659,-335 749,-335 749,-335 755,-335 761,-341 761,-347 761,-347 761,-387 761,-387 761,-393 755,-399 749,-399 749,-399 659,-399 659,-399 653,-399 647,-393 647,-387 647,-387 647,-347 647,-347 647,-341 653,-335 659,-335"/>
<text text-anchor="start" x="702" y="-320.8" font-family="Arial" font-weight="bold" font-size="14.00"> </text>
</g>
<!-- 16&#45;&gt;18 -->
<g id="edge18" class="edge">
<title>16&#45;&gt;18</title>
<path fill="none" stroke="#888888" d="M610.33,-461.67C619.61,-452.39 629.25,-442.75 638.67,-433.33"/>
<polygon fill="#888888" stroke="#888888" points="641.23,-435.72 645.82,-426.18 636.28,-430.77 641.23,-435.72"/>
</g>
<!-- 9 -->
<g id="node12" class="node">
<title>9</title>
<text text-anchor="start" x="63" y="-253.8" font-family="Arial" font-weight="bold" font-size="14.00"> &lt; 25.17</text>
<path fill="#f8766d" fill-opacity="0.705882" stroke="transparent" d="M43,-181C43,-181 133,-181 133,-181 139,-181 145,-187 145,-193 145,-193 145,-233 145,-233 145,-239 139,-245 133,-245 133,-245 43,-245 43,-245 37,-245 31,-239 31,-233 31,-233 31,-193 31,-193 31,-187 37,-181 43,-181"/>
<text text-anchor="start" x="32" y="-242.4" font-family="Arial" font-size="2.00"> </text>
<text text-anchor="start" x="32" y="-236.4" font-family="Arial" font-size="7.00"> &#160;9</text>
<text text-anchor="start" x="46" y="-219.8" font-family="Arial" font-weight="bold" font-size="14.00">Predict 24.57</text>
<text text-anchor="start" x="65" y="-202.8" font-family="Arial" font-weight="bold" font-size="14.00">n = 115</text>
<text text-anchor="start" x="86.5" y="-184.8" font-family="Arial" font-size="9.00"> </text>
<path fill="none" stroke="#333333" d="M43,-181C43,-181 133,-181 133,-181 139,-181 145,-187 145,-193 145,-193 145,-233 145,-233 145,-239 139,-245 133,-245 133,-245 43,-245 43,-245 37,-245 31,-239 31,-233 31,-233 31,-193 31,-193 31,-187 37,-181 43,-181"/>
<text text-anchor="start" x="86" y="-166.8" font-family="Arial" font-weight="bold" font-size="14.00"> </text>
</g>
<!-- 8&#45;&gt;9 -->
<g id="edge11" class="edge">
<title>8&#45;&gt;9</title>
<path fill="none" stroke="#888888" d="M178.59,-307.67C169.71,-298.49 160.47,-288.94 151.45,-279.6"/>
<polygon fill="#888888" stroke="#888888" points="153.73,-276.93 144.26,-272.18 148.7,-281.8 153.73,-276.93"/>
</g>
<!-- 10 -->
<g id="node13" class="node">
<title>10</title>
<text text-anchor="start" x="212.5" y="-253.8" font-family="Arial" font-weight="bold" font-size="14.00"> ≥ 25.17</text>
<path fill="#ebebeb" stroke="transparent" d="M199,-181C199,-181 275,-181 275,-181 281,-181 287,-187 287,-193 287,-193 287,-233 287,-233 287,-239 281,-245 275,-245 275,-245 199,-245 199,-245 193,-245 187,-239 187,-233 187,-233 187,-193 187,-193 187,-187 193,-181 199,-181"/>
<text text-anchor="start" x="188" y="-242.4" font-family="Arial" font-size="2.00"> </text>
<text text-anchor="start" x="188" y="-236.4" font-family="Arial" font-size="7.00"> &#160;10</text>
<text text-anchor="start" x="202" y="-219.8" font-family="Arial" font-weight="bold" font-size="14.00">Mean: 25.9</text>
<text text-anchor="start" x="217" y="-202.8" font-family="Arial" font-weight="bold" font-size="14.00">n = 77</text>
<text text-anchor="start" x="235.5" y="-184.8" font-family="Arial" font-size="9.00"> </text>
<path fill="none" stroke="#333333" d="M199,-181C199,-181 275,-181 275,-181 281,-181 287,-187 287,-193 287,-193 287,-233 287,-233 287,-239 281,-245 275,-245 275,-245 199,-245 199,-245 193,-245 187,-239 187,-233 187,-233 187,-193 187,-193 187,-187 193,-181 199,-181"/>
<text text-anchor="start" x="208" y="-166.8" font-family="Arial" font-weight="bold" font-size="14.00">air_temp</text>
</g>
<!-- 8&#45;&gt;10 -->
<g id="edge12" class="edge">
<title>8&#45;&gt;10</title>
<path fill="none" stroke="#888888" d="M235.77,-307.67C235.88,-299.39 235.99,-290.83 236.1,-282.38"/>
<polygon fill="#888888" stroke="#888888" points="239.6,-282.22 236.23,-272.18 232.6,-282.13 239.6,-282.22"/>
</g>
<!-- 14 -->
<g id="node16" class="node">
<title>14</title>
<text text-anchor="start" x="372.5" y="-253.8" font-family="Arial" font-weight="bold" font-size="14.00"> &lt; 10</text>
<path fill="#f8766d" fill-opacity="0.376471" stroke="transparent" d="M343,-181C343,-181 433,-181 433,-181 439,-181 445,-187 445,-193 445,-193 445,-233 445,-233 445,-239 439,-245 433,-245 433,-245 343,-245 343,-245 337,-245 331,-239 331,-233 331,-233 331,-193 331,-193 331,-187 337,-181 343,-181"/>
<text text-anchor="start" x="332" y="-242.4" font-family="Arial" font-size="2.00"> </text>
<text text-anchor="start" x="332" y="-236.4" font-family="Arial" font-size="7.00"> &#160;14</text>
<text text-anchor="start" x="346" y="-219.8" font-family="Arial" font-weight="bold" font-size="14.00">Predict 36.75</text>
<text text-anchor="start" x="372" y="-202.8" font-family="Arial" font-weight="bold" font-size="14.00">n = 1</text>
<text text-anchor="start" x="386.5" y="-184.8" font-family="Arial" font-size="9.00"> </text>
<path fill="none" stroke="#333333" d="M343,-181C343,-181 433,-181 433,-181 439,-181 445,-187 445,-193 445,-193 445,-233 445,-233 445,-239 439,-245 433,-245 433,-245 343,-245 343,-245 337,-245 331,-239 331,-233 331,-233 331,-193 331,-193 331,-187 337,-181 343,-181"/>
<text text-anchor="start" x="386" y="-166.8" font-family="Arial" font-weight="bold" font-size="14.00"> </text>
</g>
<!-- 13&#45;&gt;14 -->
<g id="edge15" class="edge">
<title>13&#45;&gt;14</title>
<path fill="none" stroke="#888888" d="M388.62,-307.67C388.56,-299.39 388.51,-290.83 388.45,-282.38"/>
<polygon fill="#888888" stroke="#888888" points="391.95,-282.15 388.38,-272.18 384.95,-282.2 391.95,-282.15"/>
</g>
<!-- 15 -->
<g id="node17" class="node">
<title>15</title>
<text text-anchor="start" x="528.5" y="-253.8" font-family="Arial" font-weight="bold" font-size="14.00"> ≥ 10</text>
<path fill="#f8766d" fill-opacity="0.576471" stroke="transparent" d="M499,-181C499,-181 589,-181 589,-181 595,-181 601,-187 601,-193 601,-193 601,-233 601,-233 601,-239 595,-245 589,-245 589,-245 499,-245 499,-245 493,-245 487,-239 487,-233 487,-233 487,-193 487,-193 487,-187 493,-181 499,-181"/>
<text text-anchor="start" x="488" y="-242.4" font-family="Arial" font-size="2.00"> </text>
<text text-anchor="start" x="488" y="-236.4" font-family="Arial" font-size="7.00"> &#160;15</text>
<text text-anchor="start" x="502" y="-219.8" font-family="Arial" font-weight="bold" font-size="14.00">Predict 29.44</text>
<text text-anchor="start" x="528" y="-202.8" font-family="Arial" font-weight="bold" font-size="14.00">n = 7</text>
<text text-anchor="start" x="542.5" y="-184.8" font-family="Arial" font-size="9.00"> </text>
<path fill="none" stroke="#333333" d="M499,-181C499,-181 589,-181 589,-181 595,-181 601,-187 601,-193 601,-193 601,-233 601,-233 601,-239 595,-245 589,-245 589,-245 499,-245 499,-245 493,-245 487,-239 487,-233 487,-233 487,-193 487,-193 487,-187 493,-181 499,-181"/>
<text text-anchor="start" x="542" y="-166.8" font-family="Arial" font-weight="bold" font-size="14.00"> </text>
</g>
<!-- 13&#45;&gt;15 -->
<g id="edge16" class="edge">
<title>13&#45;&gt;15</title>
<path fill="none" stroke="#888888" d="M448.48,-307.67C457.94,-298.39 467.78,-288.75 477.38,-279.33"/>
<polygon fill="#888888" stroke="#888888" points="479.99,-281.68 484.68,-272.18 475.08,-276.68 479.99,-281.68"/>
</g>
<!-- 11 -->
<g id="node14" class="node">
<title>11</title>
<text text-anchor="start" x="134" y="-99.8" font-family="Arial" font-weight="bold" font-size="14.00"> &lt; 21.95</text>
<path fill="#f8766d" fill-opacity="0.482353" stroke="transparent" d="M114,-27C114,-27 204,-27 204,-27 210,-27 216,-33 216,-39 216,-39 216,-79 216,-79 216,-85 210,-91 204,-91 204,-91 114,-91 114,-91 108,-91 102,-85 102,-79 102,-79 102,-39 102,-39 102,-33 108,-27 114,-27"/>
<text text-anchor="start" x="103" y="-88.4" font-family="Arial" font-size="2.00"> </text>
<text text-anchor="start" x="103" y="-82.4" font-family="Arial" font-size="7.00"> &#160;11</text>
<text text-anchor="start" x="117" y="-65.8" font-family="Arial" font-weight="bold" font-size="14.00">Predict 32.87</text>
<text text-anchor="start" x="143" y="-48.8" font-family="Arial" font-weight="bold" font-size="14.00">n = 1</text>
<text text-anchor="start" x="157.5" y="-30.8" font-family="Arial" font-size="9.00"> </text>
<path fill="none" stroke="#333333" d="M114,-27C114,-27 204,-27 204,-27 210,-27 216,-33 216,-39 216,-39 216,-79 216,-79 216,-85 210,-91 204,-91 204,-91 114,-91 114,-91 108,-91 102,-85 102,-79 102,-79 102,-39 102,-39 102,-33 108,-27 114,-27"/>
<text text-anchor="start" x="157" y="-12.8" font-family="Arial" font-weight="bold" font-size="14.00"> </text>
</g>
<!-- 10&#45;&gt;11 -->
<g id="edge13" class="edge">
<title>10&#45;&gt;11</title>
<path fill="none" stroke="#888888" d="M207.07,-153.67C202.63,-145.03 198.04,-136.07 193.52,-127.27"/>
<polygon fill="#888888" stroke="#888888" points="196.53,-125.48 188.85,-118.18 190.31,-128.67 196.53,-125.48"/>
</g>
<!-- 12 -->
<g id="node15" class="node">
<title>12</title>
<text text-anchor="start" x="290.5" y="-99.8" font-family="Arial" font-weight="bold" font-size="14.00"> ≥ 21.95</text>
<path fill="#f8766d" fill-opacity="0.674510" stroke="transparent" d="M270,-27C270,-27 360,-27 360,-27 366,-27 372,-33 372,-39 372,-39 372,-79 372,-79 372,-85 366,-91 360,-91 360,-91 270,-91 270,-91 264,-91 258,-85 258,-79 258,-79 258,-39 258,-39 258,-33 264,-27 270,-27"/>
<text text-anchor="start" x="259" y="-88.4" font-family="Arial" font-size="2.00"> </text>
<text text-anchor="start" x="259" y="-82.4" font-family="Arial" font-size="7.00"> &#160;12</text>
<text text-anchor="start" x="273" y="-65.8" font-family="Arial" font-weight="bold" font-size="14.00">Predict 25.81</text>
<text text-anchor="start" x="295" y="-48.8" font-family="Arial" font-weight="bold" font-size="14.00">n = 76</text>
<text text-anchor="start" x="313.5" y="-30.8" font-family="Arial" font-size="9.00"> </text>
<path fill="none" stroke="#333333" d="M270,-27C270,-27 360,-27 360,-27 366,-27 372,-33 372,-39 372,-39 372,-79 372,-79 372,-85 366,-91 360,-91 360,-91 270,-91 270,-91 264,-91 258,-85 258,-79 258,-79 258,-39 258,-39 258,-33 264,-27 270,-27"/>
<text text-anchor="start" x="313" y="-12.8" font-family="Arial" font-weight="bold" font-size="14.00"> </text>
</g>
<!-- 10&#45;&gt;12 -->
<g id="edge14" class="edge">
<title>10&#45;&gt;12</title>
<path fill="none" stroke="#888888" d="M266.93,-153.67C271.37,-145.03 275.96,-136.07 280.48,-127.27"/>
<polygon fill="#888888" stroke="#888888" points="283.69,-128.67 285.15,-118.18 277.47,-125.48 283.69,-128.67"/>
</g>
</g>
</svg>
