<?xml version="1.0" encoding="UTF-8" standalone="no"?>
<!DOCTYPE svg PUBLIC "-//W3C//DTD SVG 1.1//EN"
 "http://www.w3.org/Graphics/SVG/1.1/DTD/svg11.dtd">
<!-- Generated by graphviz version 2.50.0 (20211204.2007)
 -->
<!-- Pages: 1 -->
<svg width="1238pt" height="588pt"
 viewBox="0.00 0.00 1238.00 588.00" xmlns="http://www.w3.org/2000/svg" xmlns:xlink="http://www.w3.org/1999/xlink">
<g id="graph0" class="graph" transform="scale(1 1) rotate(0) translate(4 584)">
<polygon fill="white" stroke="transparent" points="-4,4 -4,-584 1234,-584 1234,4 -4,4"/>
<!-- 1 -->
<g id="node1" class="node">
<title>1</title>
<text text-anchor="start" x="578" y="-561.8" font-family="Arial" font-weight="bold" font-size="14.00"> </text>
<path fill="#ebebeb" stroke="transparent" d="M538,-489C538,-489 622,-489 622,-489 628,-489 634,-495 634,-501 634,-501 634,-541 634,-541 634,-547 628,-553 622,-553 622,-553 538,-553 538,-553 532,-553 526,-547 526,-541 526,-541 526,-501 526,-501 526,-495 532,-489 538,-489"/>
<text text-anchor="start" x="527" y="-550.4" font-family="Arial" font-size="2.00"> </text>
<text text-anchor="start" x="527" y="-544.4" font-family="Arial" font-size="7.00"> &#160;1</text>
<text text-anchor="start" x="541" y="-527.8" font-family="Arial" font-weight="bold" font-size="14.00">Mean: 21.81</text>
<text text-anchor="start" x="556.5" y="-510.8" font-family="Arial" font-weight="bold" font-size="14.00">n = 672</text>
<text text-anchor="start" x="578.5" y="-492.8" font-family="Arial" font-size="9.00"> </text>
<path fill="none" stroke="#333333" d="M538,-489C538,-489 622,-489 622,-489 628,-489 634,-495 634,-501 634,-501 634,-541 634,-541 634,-547 628,-553 622,-553 622,-553 538,-553 538,-553 532,-553 526,-547 526,-541 526,-541 526,-501 526,-501 526,-495 532,-489 538,-489"/>
<text text-anchor="start" x="565.5" y="-474.8" font-family="Arial" font-weight="bold" font-size="14.00">time</text>
</g>
<!-- 2 -->
<g id="node2" class="node">
<title>2</title>
<text text-anchor="start" x="479.5" y="-407.8" font-family="Arial" font-weight="bold" font-size="14.00"> &lt; 6.5</text>
<text text-anchor="start" x="425" y="-363.3" font-family="Arial" font-size="14.00"> &#160;&#160;&#160;</text>
<path fill="#ebebeb" stroke="transparent" d="M455,-335C455,-335 539,-335 539,-335 545,-335 551,-341 551,-347 551,-347 551,-387 551,-387 551,-393 545,-399 539,-399 539,-399 455,-399 455,-399 449,-399 443,-393 443,-387 443,-387 443,-347 443,-347 443,-341 449,-335 455,-335"/>
<text text-anchor="start" x="444" y="-396.4" font-family="Arial" font-size="2.00"> </text>
<text text-anchor="start" x="444" y="-390.4" font-family="Arial" font-size="7.00"> &#160;2</text>
<text text-anchor="start" x="458" y="-373.8" font-family="Arial" font-weight="bold" font-size="14.00">Mean: 19.62</text>
<text text-anchor="start" x="473.5" y="-356.8" font-family="Arial" font-weight="bold" font-size="14.00">n = 196</text>
<text text-anchor="start" x="495.5" y="-338.8" font-family="Arial" font-size="9.00"> </text>
<path fill="none" stroke="#333333" d="M455,-335C455,-335 539,-335 539,-335 545,-335 551,-341 551,-347 551,-347 551,-387 551,-387 551,-393 545,-399 539,-399 539,-399 455,-399 455,-399 449,-399 443,-393 443,-387 443,-387 443,-347 443,-347 443,-341 449,-335 455,-335"/>
<text text-anchor="start" x="553" y="-363.3" font-family="Arial" font-size="14.00"> &#160;&#160;&#160;</text>
<text text-anchor="start" x="439.5" y="-320.8" font-family="Arial" font-weight="bold" font-size="14.00">prev_168h_inflow</text>
</g>
<!-- 1&#45;&gt;2 -->
<g id="edge1" class="edge">
<title>1&#45;&gt;2</title>
<path fill="none" stroke="#888888" d="M548.15,-461.67C543.38,-452.94 538.44,-443.88 533.58,-434.99"/>
<polygon fill="#888888" stroke="#888888" points="536.63,-433.28 528.77,-426.18 530.49,-436.63 536.63,-433.28"/>
</g>
<!-- 9 -->
<g id="node3" class="node">
<title>9</title>
<text text-anchor="start" x="716" y="-407.8" font-family="Arial" font-weight="bold" font-size="14.00"> ≥ 6.5</text>
<path fill="#ebebeb" stroke="transparent" d="M691,-335C691,-335 775,-335 775,-335 781,-335 787,-341 787,-347 787,-347 787,-387 787,-387 787,-393 781,-399 775,-399 775,-399 691,-399 691,-399 685,-399 679,-393 679,-387 679,-387 679,-347 679,-347 679,-341 685,-335 691,-335"/>
<text text-anchor="start" x="680" y="-396.4" font-family="Arial" font-size="2.00"> </text>
<text text-anchor="start" x="680" y="-390.4" font-family="Arial" font-size="7.00"> &#160;9</text>
<text text-anchor="start" x="694" y="-373.8" font-family="Arial" font-weight="bold" font-size="14.00">Mean: 22.71</text>
<text text-anchor="start" x="709.5" y="-356.8" font-family="Arial" font-weight="bold" font-size="14.00">n = 476</text>
<text text-anchor="start" x="731.5" y="-338.8" font-family="Arial" font-size="9.00"> </text>
<path fill="none" stroke="#333333" d="M691,-335C691,-335 775,-335 775,-335 781,-335 787,-341 787,-347 787,-347 787,-387 787,-387 787,-393 781,-399 775,-399 775,-399 691,-399 691,-399 685,-399 679,-393 679,-387 679,-387 679,-347 679,-347 679,-341 685,-335 691,-335"/>
<text text-anchor="start" x="703.5" y="-320.8" font-family="Arial" font-weight="bold" font-size="14.00">day_type</text>
</g>
<!-- 1&#45;&gt;9 -->
<g id="edge2" class="edge">
<title>1&#45;&gt;9</title>
<path fill="none" stroke="#888888" d="M638.72,-461.67C648.05,-452.39 657.76,-442.75 667.24,-433.33"/>
<polygon fill="#888888" stroke="#888888" points="669.81,-435.71 674.44,-426.18 664.88,-430.74 669.81,-435.71"/>
</g>
<!-- 3 -->
<g id="node4" class="node">
<title>3</title>
<text text-anchor="start" x="200" y="-253.8" font-family="Arial" font-weight="bold" font-size="14.00"> &lt; 19.71</text>
<path fill="#ebebeb" stroke="transparent" d="M183,-181C183,-181 267,-181 267,-181 273,-181 279,-187 279,-193 279,-193 279,-233 279,-233 279,-239 273,-245 267,-245 267,-245 183,-245 183,-245 177,-245 171,-239 171,-233 171,-233 171,-193 171,-193 171,-187 177,-181 183,-181"/>
<text text-anchor="start" x="172" y="-242.4" font-family="Arial" font-size="2.00"> </text>
<text text-anchor="start" x="172" y="-236.4" font-family="Arial" font-size="7.00"> &#160;3</text>
<text text-anchor="start" x="186" y="-219.8" font-family="Arial" font-weight="bold" font-size="14.00">Mean: 19.09</text>
<text text-anchor="start" x="201.5" y="-202.8" font-family="Arial" font-weight="bold" font-size="14.00">n = 121</text>
<text text-anchor="start" x="223.5" y="-184.8" font-family="Arial" font-size="9.00"> </text>
<path fill="none" stroke="#333333" d="M183,-181C183,-181 267,-181 267,-181 273,-181 279,-187 279,-193 279,-193 279,-233 279,-233 279,-239 273,-245 267,-245 267,-245 183,-245 183,-245 177,-245 171,-239 171,-233 171,-233 171,-193 171,-193 171,-187 177,-181 183,-181"/>
<text text-anchor="start" x="182.5" y="-166.8" font-family="Arial" font-weight="bold" font-size="14.00">day_of_week</text>
</g>
<!-- 2&#45;&gt;3 -->
<g id="edge3" class="edge">
<title>2&#45;&gt;3</title>
<path fill="none" stroke="#888888" d="M414.65,-319.98C378.18,-299.6 335.59,-275.8 300.01,-255.92"/>
<polygon fill="#888888" stroke="#888888" points="301.56,-252.77 291.12,-250.95 298.15,-258.89 301.56,-252.77"/>
</g>
<!-- 6 -->
<g id="node5" class="node">
<title>6</title>
<text text-anchor="start" x="472.5" y="-253.8" font-family="Arial" font-weight="bold" font-size="14.00"> ≥ 19.71</text>
<text text-anchor="start" x="429" y="-209.3" font-family="Arial" font-size="14.00"> &#160;&#160;</text>
<path fill="#ebebeb" stroke="transparent" d="M455,-181C455,-181 539,-181 539,-181 545,-181 551,-187 551,-193 551,-193 551,-233 551,-233 551,-239 545,-245 539,-245 539,-245 455,-245 455,-245 449,-245 443,-239 443,-233 443,-233 443,-193 443,-193 443,-187 449,-181 455,-181"/>
<text text-anchor="start" x="444" y="-242.4" font-family="Arial" font-size="2.00"> </text>
<text text-anchor="start" x="444" y="-236.4" font-family="Arial" font-size="7.00"> &#160;6</text>
<text text-anchor="start" x="458" y="-219.8" font-family="Arial" font-weight="bold" font-size="14.00">Mean: 20.48</text>
<text text-anchor="start" x="477" y="-202.8" font-family="Arial" font-weight="bold" font-size="14.00">n = 75</text>
<text text-anchor="start" x="495.5" y="-184.8" font-family="Arial" font-size="9.00"> </text>
<path fill="none" stroke="#333333" d="M455,-181C455,-181 539,-181 539,-181 545,-181 551,-187 551,-193 551,-193 551,-233 551,-233 551,-239 545,-245 539,-245 539,-245 455,-245 455,-245 449,-245 443,-239 443,-233 443,-233 443,-193 443,-193 443,-187 449,-181 455,-181"/>
<text text-anchor="start" x="553" y="-209.3" font-family="Arial" font-size="14.00"> &#160;&#160;</text>
<text text-anchor="start" x="443.5" y="-166.8" font-family="Arial" font-weight="bold" font-size="14.00">prev_24h_inflow</text>
</g>
<!-- 2&#45;&gt;6 -->
<g id="edge4" class="edge">
<title>2&#45;&gt;6</title>
<path fill="none" stroke="#888888" d="M497,-307.67C497,-299.39 497,-290.83 497,-282.38"/>
<polygon fill="#888888" stroke="#888888" points="500.5,-282.18 497,-272.18 493.5,-282.18 500.5,-282.18"/>
</g>
<!-- 10 -->
<g id="node10" class="node">
<title>10</title>
<text text-anchor="start" x="715.5" y="-253.8" font-family="Arial" font-weight="bold" font-size="14.00"> &lt; 0.5</text>
<path fill="#ebebeb" stroke="transparent" d="M691,-181C691,-181 775,-181 775,-181 781,-181 787,-187 787,-193 787,-193 787,-233 787,-233 787,-239 781,-245 775,-245 775,-245 691,-245 691,-245 685,-245 679,-239 679,-233 679,-233 679,-193 679,-193 679,-187 685,-181 691,-181"/>
<text text-anchor="start" x="680" y="-242.4" font-family="Arial" font-size="2.00"> </text>
<text text-anchor="start" x="680" y="-236.4" font-family="Arial" font-size="7.00"> &#160;10</text>
<text text-anchor="start" x="694" y="-219.8" font-family="Arial" font-weight="bold" font-size="14.00">Mean: 19.34</text>
<text text-anchor="start" x="709.5" y="-202.8" font-family="Arial" font-weight="bold" font-size="14.00">n = 136</text>
<text text-anchor="start" x="731.5" y="-184.8" font-family="Arial" font-size="9.00"> </text>
<path fill="none" stroke="#333333" d="M691,-181C691,-181 775,-181 775,-181 781,-181 787,-187 787,-193 787,-193 787,-233 787,-233 787,-239 781,-245 775,-245 775,-245 691,-245 691,-245 685,-245 679,-239 679,-233 679,-233 679,-193 679,-193 679,-187 685,-181 691,-181"/>
<text text-anchor="start" x="718.5" y="-166.8" font-family="Arial" font-weight="bold" font-size="14.00">time</text>
</g>
<!-- 9&#45;&gt;10 -->
<g id="edge9" class="edge">
<title>9&#45;&gt;10</title>
<path fill="none" stroke="#888888" d="M733,-307.67C733,-299.39 733,-290.83 733,-282.38"/>
<polygon fill="#888888" stroke="#888888" points="736.5,-282.18 733,-272.18 729.5,-282.18 736.5,-282.18"/>
</g>
<!-- 13 -->
<g id="node11" class="node">
<title>13</title>
<text text-anchor="start" x="988" y="-253.8" font-family="Arial" font-weight="bold" font-size="14.00"> ≥ 0.5</text>
<path fill="#ebebeb" stroke="transparent" d="M963,-181C963,-181 1047,-181 1047,-181 1053,-181 1059,-187 1059,-193 1059,-193 1059,-233 1059,-233 1059,-239 1053,-245 1047,-245 1047,-245 963,-245 963,-245 957,-245 951,-239 951,-233 951,-233 951,-193 951,-193 951,-187 957,-181 963,-181"/>
<text text-anchor="start" x="952" y="-242.4" font-family="Arial" font-size="2.00"> </text>
<text text-anchor="start" x="952" y="-236.4" font-family="Arial" font-size="7.00"> &#160;13</text>
<text text-anchor="start" x="966" y="-219.8" font-family="Arial" font-weight="bold" font-size="14.00">Mean: 24.06</text>
<text text-anchor="start" x="981.5" y="-202.8" font-family="Arial" font-weight="bold" font-size="14.00">n = 340</text>
<text text-anchor="start" x="1003.5" y="-184.8" font-family="Arial" font-size="9.00"> </text>
<path fill="none" stroke="#333333" d="M963,-181C963,-181 1047,-181 1047,-181 1053,-181 1059,-187 1059,-193 1059,-193 1059,-233 1059,-233 1059,-239 1053,-245 1047,-245 1047,-245 963,-245 963,-245 957,-245 951,-239 951,-233 951,-233 951,-193 951,-193 951,-187 957,-181 963,-181"/>
<text text-anchor="start" x="990.5" y="-166.8" font-family="Arial" font-weight="bold" font-size="14.00">time</text>
</g>
<!-- 9&#45;&gt;13 -->
<g id="edge10" class="edge">
<title>9&#45;&gt;13</title>
<path fill="none" stroke="#888888" d="M799.19,-329.01C838.75,-306.91 889.11,-278.76 930.12,-255.85"/>
<polygon fill="#888888" stroke="#888888" points="931.96,-258.82 938.98,-250.89 928.55,-252.71 931.96,-258.82"/>
</g>
<!-- 4 -->
<g id="node6" class="node">
<title>4</title>
<text text-anchor="start" x="51.5" y="-99.8" font-family="Arial" font-weight="bold" font-size="14.00"> &lt; 6.5</text>
<path fill="#f8766d" fill-opacity="0.776471" stroke="transparent" d="M24,-27C24,-27 114,-27 114,-27 120,-27 126,-33 126,-39 126,-39 126,-79 126,-79 126,-85 120,-91 114,-91 114,-91 24,-91 24,-91 18,-91 12,-85 12,-79 12,-79 12,-39 12,-39 12,-33 18,-27 24,-27"/>
<text text-anchor="start" x="13" y="-88.4" font-family="Arial" font-size="2.00"> </text>
<text text-anchor="start" x="13" y="-82.4" font-family="Arial" font-size="7.00"> &#160;4</text>
<text text-anchor="start" x="27" y="-65.8" font-family="Arial" font-weight="bold" font-size="14.00">Predict 19.41</text>
<text text-anchor="start" x="49" y="-48.8" font-family="Arial" font-weight="bold" font-size="14.00">n = 94</text>
<text text-anchor="start" x="67.5" y="-30.8" font-family="Arial" font-size="9.00"> </text>
<path fill="none" stroke="#333333" d="M24,-27C24,-27 114,-27 114,-27 120,-27 126,-33 126,-39 126,-39 126,-79 126,-79 126,-85 120,-91 114,-91 114,-91 24,-91 24,-91 18,-91 12,-85 12,-79 12,-79 12,-39 12,-39 12,-33 18,-27 24,-27"/>
<text text-anchor="start" x="67" y="-12.8" font-family="Arial" font-weight="bold" font-size="14.00"> </text>
</g>
<!-- 3&#45;&gt;4 -->
<g id="edge5" class="edge">
<title>3&#45;&gt;4</title>
<path fill="none" stroke="#888888" d="M165.13,-153.67C155.62,-144.39 145.72,-134.75 136.05,-125.33"/>
<polygon fill="#888888" stroke="#888888" points="138.31,-122.65 128.71,-118.18 133.43,-127.66 138.31,-122.65"/>
</g>
<!-- 5 -->
<g id="node7" class="node">
<title>5</title>
<text text-anchor="start" x="208" y="-99.8" font-family="Arial" font-weight="bold" font-size="14.00"> ≥ 6.5</text>
<path fill="#f8766d" fill-opacity="0.874510" stroke="transparent" d="M180,-27C180,-27 270,-27 270,-27 276,-27 282,-33 282,-39 282,-39 282,-79 282,-79 282,-85 276,-91 270,-91 270,-91 180,-91 180,-91 174,-91 168,-85 168,-79 168,-79 168,-39 168,-39 168,-33 174,-27 180,-27"/>
<text text-anchor="start" x="169" y="-88.4" font-family="Arial" font-size="2.00"> </text>
<text text-anchor="start" x="169" y="-82.4" font-family="Arial" font-size="7.00"> &#160;5</text>
<text text-anchor="start" x="183" y="-65.8" font-family="Arial" font-weight="bold" font-size="14.00">Predict 17.98</text>
<text text-anchor="start" x="205" y="-48.8" font-family="Arial" font-weight="bold" font-size="14.00">n = 27</text>
<text text-anchor="start" x="223.5" y="-30.8" font-family="Arial" font-size="9.00"> </text>
<path fill="none" stroke="#333333" d="M180,-27C180,-27 270,-27 270,-27 276,-27 282,-33 282,-39 282,-39 282,-79 282,-79 282,-85 276,-91 270,-91 270,-91 180,-91 180,-91 174,-91 168,-85 168,-79 168,-79 168,-39 168,-39 168,-33 174,-27 180,-27"/>
<text text-anchor="start" x="223" y="-12.8" font-family="Arial" font-weight="bold" font-size="14.00"> </text>
</g>
<!-- 3&#45;&gt;5 -->
<g id="edge6" class="edge">
<title>3&#45;&gt;5</title>
<path fill="none" stroke="#888888" d="M225,-153.67C225,-145.39 225,-136.83 225,-128.38"/>
<polygon fill="#888888" stroke="#888888" points="228.5,-128.18 225,-118.18 221.5,-128.18 228.5,-128.18"/>
</g>
<!-- 7 -->
<g id="node8" class="node">
<title>7</title>
<text text-anchor="start" x="356" y="-99.8" font-family="Arial" font-weight="bold" font-size="14.00"> &lt; 20.97</text>
<path fill="#f8766d" fill-opacity="0.733333" stroke="transparent" d="M336,-27C336,-27 426,-27 426,-27 432,-27 438,-33 438,-39 438,-39 438,-79 438,-79 438,-85 432,-91 426,-91 426,-91 336,-91 336,-91 330,-91 324,-85 324,-79 324,-79 324,-39 324,-39 324,-33 330,-27 336,-27"/>
<text text-anchor="start" x="325" y="-88.4" font-family="Arial" font-size="2.00"> </text>
<text text-anchor="start" x="325" y="-82.4" font-family="Arial" font-size="7.00"> &#160;7</text>
<text text-anchor="start" x="339" y="-65.8" font-family="Arial" font-weight="bold" font-size="14.00">Predict 20.04</text>
<text text-anchor="start" x="361" y="-48.8" font-family="Arial" font-weight="bold" font-size="14.00">n = 55</text>
<text text-anchor="start" x="379.5" y="-30.8" font-family="Arial" font-size="9.00"> </text>
<path fill="none" stroke="#333333" d="M336,-27C336,-27 426,-27 426,-27 432,-27 438,-33 438,-39 438,-39 438,-79 438,-79 438,-85 432,-91 426,-91 426,-91 336,-91 336,-91 330,-91 324,-85 324,-79 324,-79 324,-39 324,-39 324,-33 330,-27 336,-27"/>
<text text-anchor="start" x="379" y="-12.8" font-family="Arial" font-weight="bold" font-size="14.00"> </text>
</g>
<!-- 6&#45;&gt;7 -->
<g id="edge7" class="edge">
<title>6&#45;&gt;7</title>
<path fill="none" stroke="#888888" d="M452.48,-153.67C445.61,-144.67 438.48,-135.32 431.49,-126.16"/>
<polygon fill="#888888" stroke="#888888" points="434.25,-124 425.4,-118.18 428.68,-128.25 434.25,-124"/>
</g>
<!-- 8 -->
<g id="node9" class="node">
<title>8</title>
<text text-anchor="start" x="512.5" y="-99.8" font-family="Arial" font-weight="bold" font-size="14.00"> ≥ 20.97</text>
<path fill="#f8766d" fill-opacity="0.619608" stroke="transparent" d="M492,-27C492,-27 582,-27 582,-27 588,-27 594,-33 594,-39 594,-39 594,-79 594,-79 594,-85 588,-91 582,-91 582,-91 492,-91 492,-91 486,-91 480,-85 480,-79 480,-79 480,-39 480,-39 480,-33 486,-27 492,-27"/>
<text text-anchor="start" x="481" y="-88.4" font-family="Arial" font-size="2.00"> </text>
<text text-anchor="start" x="481" y="-82.4" font-family="Arial" font-size="7.00"> &#160;8</text>
<text text-anchor="start" x="495" y="-65.8" font-family="Arial" font-weight="bold" font-size="14.00">Predict 21.71</text>
<text text-anchor="start" x="517" y="-48.8" font-family="Arial" font-weight="bold" font-size="14.00">n = 20</text>
<text text-anchor="start" x="535.5" y="-30.8" font-family="Arial" font-size="9.00"> </text>
<path fill="none" stroke="#333333" d="M492,-27C492,-27 582,-27 582,-27 588,-27 594,-33 594,-39 594,-39 594,-79 594,-79 594,-85 588,-91 582,-91 582,-91 492,-91 492,-91 486,-91 480,-85 480,-79 480,-79 480,-39 480,-39 480,-33 486,-27 492,-27"/>
<text text-anchor="start" x="535" y="-12.8" font-family="Arial" font-weight="bold" font-size="14.00"> </text>
</g>
<!-- 6&#45;&gt;8 -->
<g id="edge8" class="edge">
<title>6&#45;&gt;8</title>
<path fill="none" stroke="#888888" d="M512.35,-153.67C514.55,-145.3 516.83,-136.64 519.08,-128.1"/>
<polygon fill="#888888" stroke="#888888" points="522.53,-128.74 521.69,-118.18 515.76,-126.96 522.53,-128.74"/>
</g>
<!-- 11 -->
<g id="node12" class="node">
<title>11</title>
<text text-anchor="start" x="671.5" y="-99.8" font-family="Arial" font-weight="bold" font-size="14.00"> &lt; 12.5</text>
<path fill="#f8766d" fill-opacity="0.709804" stroke="transparent" d="M648,-27C648,-27 738,-27 738,-27 744,-27 750,-33 750,-39 750,-39 750,-79 750,-79 750,-85 744,-91 738,-91 738,-91 648,-91 648,-91 642,-91 636,-85 636,-79 636,-79 636,-39 636,-39 636,-33 642,-27 648,-27"/>
<text text-anchor="start" x="637" y="-88.4" font-family="Arial" font-size="2.00"> </text>
<text text-anchor="start" x="637" y="-82.4" font-family="Arial" font-size="7.00"> &#160;11</text>
<text text-anchor="start" x="651" y="-65.8" font-family="Arial" font-weight="bold" font-size="14.00">Predict 20.38</text>
<text text-anchor="start" x="673" y="-48.8" font-family="Arial" font-weight="bold" font-size="14.00">n = 48</text>
<text text-anchor="start" x="691.5" y="-30.8" font-family="Arial" font-size="9.00"> </text>
<path fill="none" stroke="#333333" d="M648,-27C648,-27 738,-27 738,-27 744,-27 750,-33 750,-39 750,-39 750,-79 750,-79 750,-85 744,-91 738,-91 738,-91 648,-91 648,-91 642,-91 636,-85 636,-79 636,-79 636,-39 636,-39 636,-33 642,-27 648,-27"/>
<text text-anchor="start" x="691" y="-12.8" font-family="Arial" font-weight="bold" font-size="14.00"> </text>
</g>
<!-- 10&#45;&gt;11 -->
<g id="edge11" class="edge">
<title>10&#45;&gt;11</title>
<path fill="none" stroke="#888888" d="M717.65,-153.67C715.45,-145.3 713.17,-136.64 710.92,-128.1"/>
<polygon fill="#888888" stroke="#888888" points="714.24,-126.96 708.31,-118.18 707.47,-128.74 714.24,-126.96"/>
</g>
<!-- 12 -->
<g id="node13" class="node">
<title>12</title>
<text text-anchor="start" x="828" y="-99.8" font-family="Arial" font-weight="bold" font-size="14.00"> ≥ 12.5</text>
<path fill="#f8766d" fill-opacity="0.819608" stroke="transparent" d="M804,-27C804,-27 894,-27 894,-27 900,-27 906,-33 906,-39 906,-39 906,-79 906,-79 906,-85 900,-91 894,-91 894,-91 804,-91 804,-91 798,-91 792,-85 792,-79 792,-79 792,-39 792,-39 792,-33 798,-27 804,-27"/>
<text text-anchor="start" x="793" y="-88.4" font-family="Arial" font-size="2.00"> </text>
<text text-anchor="start" x="793" y="-82.4" font-family="Arial" font-size="7.00"> &#160;12</text>
<text text-anchor="start" x="807" y="-65.8" font-family="Arial" font-weight="bold" font-size="14.00">Predict 18.78</text>
<text text-anchor="start" x="829" y="-48.8" font-family="Arial" font-weight="bold" font-size="14.00">n = 88</text>
<text text-anchor="start" x="847.5" y="-30.8" font-family="Arial" font-size="9.00"> </text>
<path fill="none" stroke="#333333" d="M804,-27C804,-27 894,-27 894,-27 900,-27 906,-33 906,-39 906,-39 906,-79 906,-79 906,-85 900,-91 894,-91 894,-91 804,-91 804,-91 798,-91 792,-85 792,-79 792,-79 792,-39 792,-39 792,-33 798,-27 804,-27"/>
<text text-anchor="start" x="847" y="-12.8" font-family="Arial" font-weight="bold" font-size="14.00"> </text>
</g>
<!-- 10&#45;&gt;12 -->
<g id="edge12" class="edge">
<title>10&#45;&gt;12</title>
<path fill="none" stroke="#888888" d="M777.52,-153.67C784.39,-144.67 791.52,-135.32 798.51,-126.16"/>
<polygon fill="#888888" stroke="#888888" points="801.32,-128.25 804.6,-118.18 795.75,-124 801.32,-128.25"/>
</g>
<!-- 14 -->
<g id="node14" class="node">
<title>14</title>
<text text-anchor="start" x="983.5" y="-99.8" font-family="Arial" font-weight="bold" font-size="14.00"> &lt; 16.5</text>
<path fill="#f8766d" fill-opacity="0.376471" stroke="transparent" d="M960,-27C960,-27 1050,-27 1050,-27 1056,-27 1062,-33 1062,-39 1062,-39 1062,-79 1062,-79 1062,-85 1056,-91 1050,-91 1050,-91 960,-91 960,-91 954,-91 948,-85 948,-79 948,-79 948,-39 948,-39 948,-33 954,-27 960,-27"/>
<text text-anchor="start" x="949" y="-88.4" font-family="Arial" font-size="2.00"> </text>
<text text-anchor="start" x="949" y="-82.4" font-family="Arial" font-size="7.00"> &#160;14</text>
<text text-anchor="start" x="963" y="-65.8" font-family="Arial" font-weight="bold" font-size="14.00">Predict 25.31</text>
<text text-anchor="start" x="981.5" y="-48.8" font-family="Arial" font-weight="bold" font-size="14.00">n = 200</text>
<text text-anchor="start" x="1003.5" y="-30.8" font-family="Arial" font-size="9.00"> </text>
<path fill="none" stroke="#333333" d="M960,-27C960,-27 1050,-27 1050,-27 1056,-27 1062,-33 1062,-39 1062,-39 1062,-79 1062,-79 1062,-85 1056,-91 1050,-91 1050,-91 960,-91 960,-91 954,-91 948,-85 948,-79 948,-79 948,-39 948,-39 948,-33 954,-27 960,-27"/>
<text text-anchor="start" x="1003" y="-12.8" font-family="Arial" font-weight="bold" font-size="14.00"> </text>
</g>
<!-- 13&#45;&gt;14 -->
<g id="edge13" class="edge">
<title>13&#45;&gt;14</title>
<path fill="none" stroke="#888888" d="M1005,-153.67C1005,-145.39 1005,-136.83 1005,-128.38"/>
<polygon fill="#888888" stroke="#888888" points="1008.5,-128.18 1005,-118.18 1001.5,-128.18 1008.5,-128.18"/>
</g>
<!-- 15 -->
<g id="node15" class="node">
<title>15</title>
<text text-anchor="start" x="1140" y="-99.8" font-family="Arial" font-weight="bold" font-size="14.00"> ≥ 16.5</text>
<path fill="#f8766d" fill-opacity="0.580392" stroke="transparent" d="M1116,-27C1116,-27 1206,-27 1206,-27 1212,-27 1218,-33 1218,-39 1218,-39 1218,-79 1218,-79 1218,-85 1212,-91 1206,-91 1206,-91 1116,-91 1116,-91 1110,-91 1104,-85 1104,-79 1104,-79 1104,-39 1104,-39 1104,-33 1110,-27 1116,-27"/>
<text text-anchor="start" x="1105" y="-88.4" font-family="Arial" font-size="2.00"> </text>
<text text-anchor="start" x="1105" y="-82.4" font-family="Arial" font-size="7.00"> &#160;15</text>
<text text-anchor="start" x="1119" y="-65.8" font-family="Arial" font-weight="bold" font-size="14.00">Predict 22.28</text>
<text text-anchor="start" x="1137.5" y="-48.8" font-family="Arial" font-weight="bold" font-size="14.00">n = 140</text>
<text text-anchor="start" x="1159.5" y="-30.8" font-family="Arial" font-size="9.00"> </text>
<path fill="none" stroke="#333333" d="M1116,-27C1116,-27 1206,-27 1206,-27 1212,-27 1218,-33 1218,-39 1218,-39 1218,-79 1218,-79 1218,-85 1212,-91 1206,-91 1206,-91 1116,-91 1116,-91 1110,-91 1104,-85 1104,-79 1104,-79 1104,-39 1104,-39 1104,-33 1110,-27 1116,-27"/>
<text text-anchor="start" x="1159" y="-12.8" font-family="Arial" font-weight="bold" font-size="14.00"> </text>
</g>
<!-- 13&#45;&gt;15 -->
<g id="edge14" class="edge">
<title>13&#45;&gt;15</title>
<path fill="none" stroke="#888888" d="M1064.87,-153.67C1074.38,-144.39 1084.28,-134.75 1093.95,-125.33"/>
<polygon fill="#888888" stroke="#888888" points="1096.57,-127.66 1101.29,-118.18 1091.69,-122.65 1096.57,-127.66"/>
</g>
</g>
</svg>
