<?xml version="1.0" encoding="UTF-8" standalone="no"?>
<!DOCTYPE svg PUBLIC "-//W3C//DTD SVG 1.1//EN"
 "http://www.w3.org/Graphics/SVG/1.1/DTD/svg11.dtd">
<!-- Generated by graphviz version 2.50.0 (20211204.2007)
 -->
<!-- Pages: 1 -->
<svg width="802pt" height="588pt"
 viewBox="0.00 0.00 802.00 588.00" xmlns="http://www.w3.org/2000/svg" xmlns:xlink="http://www.w3.org/1999/xlink">
<g id="graph0" class="graph" transform="scale(1 1) rotate(0) translate(4 584)">
<polygon fill="white" stroke="transparent" points="-4,4 -4,-584 798,-584 798,4 -4,4"/>
<!-- 1 -->
<g id="node1" class="node">
<title>1</title>
<text text-anchor="start" x="307" y="-561.8" font-family="Arial" font-weight="bold" font-size="14.00"> </text>
<text text-anchor="start" x="241" y="-517.3" font-family="Arial" font-size="14.00"> &#160;&#160;&#160;</text>
<path fill="#ebebeb" stroke="transparent" d="M271,-489C271,-489 347,-489 347,-489 353,-489 359,-495 359,-501 359,-501 359,-541 359,-541 359,-547 353,-553 347,-553 347,-553 271,-553 271,-553 265,-553 259,-547 259,-541 259,-541 259,-501 259,-501 259,-495 265,-489 271,-489"/>
<text text-anchor="start" x="260" y="-550.4" font-family="Arial" font-size="2.00"> </text>
<text text-anchor="start" x="260" y="-544.4" font-family="Arial" font-size="7.00"> &#160;1</text>
<text text-anchor="start" x="274" y="-527.8" font-family="Arial" font-weight="bold" font-size="14.00">Mean: 6.12</text>
<text text-anchor="start" x="285.5" y="-510.8" font-family="Arial" font-weight="bold" font-size="14.00">n = 168</text>
<text text-anchor="start" x="307.5" y="-492.8" font-family="Arial" font-size="9.00"> </text>
<path fill="none" stroke="#333333" d="M271,-489C271,-489 347,-489 347,-489 353,-489 359,-495 359,-501 359,-501 359,-541 359,-541 359,-547 353,-553 347,-553 347,-553 271,-553 271,-553 265,-553 259,-547 259,-541 259,-541 259,-501 259,-501 259,-495 265,-489 271,-489"/>
<text text-anchor="start" x="361" y="-517.3" font-family="Arial" font-size="14.00"> &#160;&#160;&#160;</text>
<text text-anchor="start" x="251.5" y="-474.8" font-family="Arial" font-weight="bold" font-size="14.00">prev_168h_inflow</text>
</g>
<!-- 2 -->
<g id="node2" class="node">
<title>2</title>
<text text-anchor="start" x="200" y="-407.8" font-family="Arial" font-weight="bold" font-size="14.00"> &lt; 4.925</text>
<text text-anchor="start" x="153" y="-363.3" font-family="Arial" font-size="14.00"> &#160;&#160;&#160;</text>
<path fill="#ebebeb" stroke="transparent" d="M183,-335C183,-335 267,-335 267,-335 273,-335 279,-341 279,-347 279,-347 279,-387 279,-387 279,-393 273,-399 267,-399 267,-399 183,-399 183,-399 177,-399 171,-393 171,-387 171,-387 171,-347 171,-347 171,-341 177,-335 183,-335"/>
<text text-anchor="start" x="172" y="-396.4" font-family="Arial" font-size="2.00"> </text>
<text text-anchor="start" x="172" y="-390.4" font-family="Arial" font-size="7.00"> &#160;2</text>
<text text-anchor="start" x="186" y="-373.8" font-family="Arial" font-weight="bold" font-size="14.00">Mean: 4.476</text>
<text text-anchor="start" x="205" y="-356.8" font-family="Arial" font-weight="bold" font-size="14.00">n = 68</text>
<text text-anchor="start" x="223.5" y="-338.8" font-family="Arial" font-size="9.00"> </text>
<path fill="none" stroke="#333333" d="M183,-335C183,-335 267,-335 267,-335 273,-335 279,-341 279,-347 279,-347 279,-387 279,-387 279,-393 273,-399 267,-399 267,-399 183,-399 183,-399 177,-399 171,-393 171,-387 171,-387 171,-347 171,-347 171,-341 177,-335 183,-335"/>
<text text-anchor="start" x="281" y="-363.3" font-family="Arial" font-size="14.00"> &#160;&#160;&#160;</text>
<text text-anchor="start" x="167.5" y="-320.8" font-family="Arial" font-weight="bold" font-size="14.00">prev_168h_inflow</text>
</g>
<!-- 1&#45;&gt;2 -->
<g id="edge1" class="edge">
<title>1&#45;&gt;2</title>
<path fill="none" stroke="#888888" d="M276.76,-461.67C271.94,-452.94 266.94,-443.88 262.02,-434.99"/>
<polygon fill="#888888" stroke="#888888" points="265.05,-433.24 257.15,-426.18 258.92,-436.62 265.05,-433.24"/>
</g>
<!-- 5 -->
<g id="node3" class="node">
<title>5</title>
<text text-anchor="start" x="369.5" y="-407.8" font-family="Arial" font-weight="bold" font-size="14.00"> ≥ 4.925</text>
<path fill="#ebebeb" stroke="transparent" d="M352,-335C352,-335 436,-335 436,-335 442,-335 448,-341 448,-347 448,-347 448,-387 448,-387 448,-393 442,-399 436,-399 436,-399 352,-399 352,-399 346,-399 340,-393 340,-387 340,-387 340,-347 340,-347 340,-341 346,-335 352,-335"/>
<text text-anchor="start" x="341" y="-396.4" font-family="Arial" font-size="2.00"> </text>
<text text-anchor="start" x="341" y="-390.4" font-family="Arial" font-size="7.00"> &#160;5</text>
<text text-anchor="start" x="355" y="-373.8" font-family="Arial" font-weight="bold" font-size="14.00">Mean: 7.237</text>
<text text-anchor="start" x="370.5" y="-356.8" font-family="Arial" font-weight="bold" font-size="14.00">n = 100</text>
<text text-anchor="start" x="392.5" y="-338.8" font-family="Arial" font-size="9.00"> </text>
<path fill="none" stroke="#333333" d="M352,-335C352,-335 436,-335 436,-335 442,-335 448,-341 448,-347 448,-347 448,-387 448,-387 448,-393 442,-399 436,-399 436,-399 352,-399 352,-399 346,-399 340,-393 340,-387 340,-387 340,-347 340,-347 340,-341 346,-335 352,-335"/>
<text text-anchor="start" x="351.5" y="-320.8" font-family="Arial" font-weight="bold" font-size="14.00">day_of_week</text>
</g>
<!-- 1&#45;&gt;5 -->
<g id="edge2" class="edge">
<title>1&#45;&gt;5</title>
<path fill="none" stroke="#888888" d="M341.62,-461.67C346.5,-452.94 351.57,-443.88 356.54,-434.99"/>
<polygon fill="#888888" stroke="#888888" points="359.64,-436.61 361.47,-426.18 353.53,-433.2 359.64,-436.61"/>
</g>
<!-- 3 -->
<g id="node4" class="node">
<title>3</title>
<text text-anchor="start" x="47.5" y="-253.8" font-family="Arial" font-weight="bold" font-size="14.00"> &lt; 3.94</text>
<path fill="#f8766d" fill-opacity="0.874510" stroke="transparent" d="M24,-181C24,-181 114,-181 114,-181 120,-181 126,-187 126,-193 126,-193 126,-233 126,-233 126,-239 120,-245 114,-245 114,-245 24,-245 24,-245 18,-245 12,-239 12,-233 12,-233 12,-193 12,-193 12,-187 18,-181 24,-181"/>
<text text-anchor="start" x="13" y="-242.4" font-family="Arial" font-size="2.00"> </text>
<text text-anchor="start" x="13" y="-236.4" font-family="Arial" font-size="7.00"> &#160;3</text>
<text text-anchor="start" x="27" y="-219.8" font-family="Arial" font-weight="bold" font-size="14.00">Predict 3.643</text>
<text text-anchor="start" x="49" y="-202.8" font-family="Arial" font-weight="bold" font-size="14.00">n = 30</text>
<text text-anchor="start" x="67.5" y="-184.8" font-family="Arial" font-size="9.00"> </text>
<path fill="none" stroke="#333333" d="M24,-181C24,-181 114,-181 114,-181 120,-181 126,-187 126,-193 126,-193 126,-233 126,-233 126,-239 120,-245 114,-245 114,-245 24,-245 24,-245 18,-245 12,-239 12,-233 12,-233 12,-193 12,-193 12,-187 18,-181 24,-181"/>
<text text-anchor="start" x="67" y="-166.8" font-family="Arial" font-weight="bold" font-size="14.00"> </text>
</g>
<!-- 2&#45;&gt;3 -->
<g id="edge3" class="edge">
<title>2&#45;&gt;3</title>
<path fill="none" stroke="#888888" d="M165.13,-307.67C155.62,-298.39 145.72,-288.75 136.05,-279.33"/>
<polygon fill="#888888" stroke="#888888" points="138.31,-276.65 128.71,-272.18 133.43,-281.66 138.31,-276.65"/>
</g>
<!-- 4 -->
<g id="node5" class="node">
<title>4</title>
<text text-anchor="start" x="204" y="-253.8" font-family="Arial" font-weight="bold" font-size="14.00"> ≥ 3.94</text>
<path fill="#f8766d" fill-opacity="0.741176" stroke="transparent" d="M180,-181C180,-181 270,-181 270,-181 276,-181 282,-187 282,-193 282,-193 282,-233 282,-233 282,-239 276,-245 270,-245 270,-245 180,-245 180,-245 174,-245 168,-239 168,-233 168,-233 168,-193 168,-193 168,-187 174,-181 180,-181"/>
<text text-anchor="start" x="169" y="-242.4" font-family="Arial" font-size="2.00"> </text>
<text text-anchor="start" x="169" y="-236.4" font-family="Arial" font-size="7.00"> &#160;4</text>
<text text-anchor="start" x="183" y="-219.8" font-family="Arial" font-weight="bold" font-size="14.00">Predict 5.133</text>
<text text-anchor="start" x="205" y="-202.8" font-family="Arial" font-weight="bold" font-size="14.00">n = 38</text>
<text text-anchor="start" x="223.5" y="-184.8" font-family="Arial" font-size="9.00"> </text>
<path fill="none" stroke="#333333" d="M180,-181C180,-181 270,-181 270,-181 276,-181 282,-187 282,-193 282,-193 282,-233 282,-233 282,-239 276,-245 270,-245 270,-245 180,-245 180,-245 174,-245 168,-239 168,-233 168,-233 168,-193 168,-193 168,-187 174,-181 180,-181"/>
<text text-anchor="start" x="223" y="-166.8" font-family="Arial" font-weight="bold" font-size="14.00"> </text>
</g>
<!-- 2&#45;&gt;4 -->
<g id="edge4" class="edge">
<title>2&#45;&gt;4</title>
<path fill="none" stroke="#888888" d="M225,-307.67C225,-299.39 225,-290.83 225,-282.38"/>
<polygon fill="#888888" stroke="#888888" points="228.5,-282.18 225,-272.18 221.5,-282.18 228.5,-282.18"/>
</g>
<!-- 6 -->
<g id="node6" class="node">
<title>6</title>
<text text-anchor="start" x="377" y="-253.8" font-family="Arial" font-weight="bold" font-size="14.00"> &lt; 3.5</text>
<text text-anchor="start" x="323" y="-209.3" font-family="Arial" font-size="14.00"> &#160;&#160;&#160;</text>
<path fill="#ebebeb" stroke="transparent" d="M353,-181C353,-181 436,-181 436,-181 442,-181 448,-187 448,-193 448,-193 448,-233 448,-233 448,-239 442,-245 436,-245 436,-245 353,-245 353,-245 347,-245 341,-239 341,-233 341,-233 341,-193 341,-193 341,-187 347,-181 353,-181"/>
<text text-anchor="start" x="342" y="-242.4" font-family="Arial" font-size="2.00"> </text>
<text text-anchor="start" x="342" y="-236.4" font-family="Arial" font-size="7.00"> &#160;6</text>
<text text-anchor="start" x="356" y="-219.8" font-family="Arial" font-weight="bold" font-size="14.00">Mean: 7.711</text>
<text text-anchor="start" x="374.5" y="-202.8" font-family="Arial" font-weight="bold" font-size="14.00">n = 39</text>
<text text-anchor="start" x="393" y="-184.8" font-family="Arial" font-size="9.00"> </text>
<path fill="none" stroke="#333333" d="M353,-181C353,-181 436,-181 436,-181 442,-181 448,-187 448,-193 448,-193 448,-233 448,-233 448,-239 442,-245 436,-245 436,-245 353,-245 353,-245 347,-245 341,-239 341,-233 341,-233 341,-193 341,-193 341,-187 347,-181 353,-181"/>
<text text-anchor="start" x="450" y="-209.3" font-family="Arial" font-size="14.00"> &#160;&#160;&#160;</text>
<text text-anchor="start" x="337" y="-166.8" font-family="Arial" font-weight="bold" font-size="14.00">prev_168h_inflow</text>
</g>
<!-- 5&#45;&gt;6 -->
<g id="edge5" class="edge">
<title>5&#45;&gt;6</title>
<path fill="none" stroke="#888888" d="M394,-307.67C394,-299.39 394,-290.83 394,-282.38"/>
<polygon fill="#888888" stroke="#888888" points="397.5,-282.18 394,-272.18 390.5,-282.18 397.5,-282.18"/>
</g>
<!-- 9 -->
<g id="node7" class="node">
<title>9</title>
<text text-anchor="start" x="559" y="-253.8" font-family="Arial" font-weight="bold" font-size="14.00"> ≥ 3.5</text>
<text text-anchor="start" x="504" y="-209.3" font-family="Arial" font-size="14.00"> &#160;&#160;&#160;</text>
<path fill="#ebebeb" stroke="transparent" d="M534,-181C534,-181 618,-181 618,-181 624,-181 630,-187 630,-193 630,-193 630,-233 630,-233 630,-239 624,-245 618,-245 618,-245 534,-245 534,-245 528,-245 522,-239 522,-233 522,-233 522,-193 522,-193 522,-187 528,-181 534,-181"/>
<text text-anchor="start" x="523" y="-242.4" font-family="Arial" font-size="2.00"> </text>
<text text-anchor="start" x="523" y="-236.4" font-family="Arial" font-size="7.00"> &#160;9</text>
<text text-anchor="start" x="537" y="-219.8" font-family="Arial" font-weight="bold" font-size="14.00">Mean: 6.935</text>
<text text-anchor="start" x="556" y="-202.8" font-family="Arial" font-weight="bold" font-size="14.00">n = 61</text>
<text text-anchor="start" x="574.5" y="-184.8" font-family="Arial" font-size="9.00"> </text>
<path fill="none" stroke="#333333" d="M534,-181C534,-181 618,-181 618,-181 624,-181 630,-187 630,-193 630,-193 630,-233 630,-233 630,-239 624,-245 618,-245 618,-245 534,-245 534,-245 528,-245 522,-239 522,-233 522,-233 522,-193 522,-193 522,-187 528,-181 534,-181"/>
<text text-anchor="start" x="632" y="-209.3" font-family="Arial" font-size="14.00"> &#160;&#160;&#160;</text>
<text text-anchor="start" x="518.5" y="-166.8" font-family="Arial" font-weight="bold" font-size="14.00">prev_168h_inflow</text>
</g>
<!-- 5&#45;&gt;9 -->
<g id="edge6" class="edge">
<title>5&#45;&gt;9</title>
<path fill="none" stroke="#888888" d="M460.22,-310.69C472.68,-300.29 485.81,-289.33 498.57,-278.67"/>
<polygon fill="#888888" stroke="#888888" points="501.03,-281.17 506.46,-272.08 496.54,-275.8 501.03,-281.17"/>
</g>
<!-- 7 -->
<g id="node8" class="node">
<title>7</title>
<text text-anchor="start" x="219" y="-99.8" font-family="Arial" font-weight="bold" font-size="14.00"> &lt; 6.055</text>
<path fill="#f8766d" fill-opacity="0.600000" stroke="transparent" d="M199,-27C199,-27 289,-27 289,-27 295,-27 301,-33 301,-39 301,-39 301,-79 301,-79 301,-85 295,-91 289,-91 289,-91 199,-91 199,-91 193,-91 187,-85 187,-79 187,-79 187,-39 187,-39 187,-33 193,-27 199,-27"/>
<text text-anchor="start" x="188" y="-88.4" font-family="Arial" font-size="2.00"> </text>
<text text-anchor="start" x="188" y="-82.4" font-family="Arial" font-size="7.00"> &#160;7</text>
<text text-anchor="start" x="202" y="-65.8" font-family="Arial" font-weight="bold" font-size="14.00">Predict 6.732</text>
<text text-anchor="start" x="224" y="-48.8" font-family="Arial" font-weight="bold" font-size="14.00">n = 24</text>
<text text-anchor="start" x="242.5" y="-30.8" font-family="Arial" font-size="9.00"> </text>
<path fill="none" stroke="#333333" d="M199,-27C199,-27 289,-27 289,-27 295,-27 301,-33 301,-39 301,-39 301,-79 301,-79 301,-85 295,-91 289,-91 289,-91 199,-91 199,-91 193,-91 187,-85 187,-79 187,-79 187,-39 187,-39 187,-33 193,-27 199,-27"/>
<text text-anchor="start" x="242" y="-12.8" font-family="Arial" font-weight="bold" font-size="14.00"> </text>
</g>
<!-- 6&#45;&gt;7 -->
<g id="edge7" class="edge">
<title>6&#45;&gt;7</title>
<path fill="none" stroke="#888888" d="M336.44,-153.67C327.28,-144.39 317.77,-134.75 308.47,-125.33"/>
<polygon fill="#888888" stroke="#888888" points="310.93,-122.84 301.41,-118.18 305.94,-127.75 310.93,-122.84"/>
</g>
<!-- 8 -->
<g id="node9" class="node">
<title>8</title>
<text text-anchor="start" x="375.5" y="-99.8" font-family="Arial" font-weight="bold" font-size="14.00"> ≥ 6.055</text>
<path fill="#f8766d" fill-opacity="0.376471" stroke="transparent" d="M355,-27C355,-27 445,-27 445,-27 451,-27 457,-33 457,-39 457,-39 457,-79 457,-79 457,-85 451,-91 445,-91 445,-91 355,-91 355,-91 349,-91 343,-85 343,-79 343,-79 343,-39 343,-39 343,-33 349,-27 355,-27"/>
<text text-anchor="start" x="344" y="-88.4" font-family="Arial" font-size="2.00"> </text>
<text text-anchor="start" x="344" y="-82.4" font-family="Arial" font-size="7.00"> &#160;8</text>
<text text-anchor="start" x="358" y="-65.8" font-family="Arial" font-weight="bold" font-size="14.00">Predict 9.277</text>
<text text-anchor="start" x="380" y="-48.8" font-family="Arial" font-weight="bold" font-size="14.00">n = 15</text>
<text text-anchor="start" x="398.5" y="-30.8" font-family="Arial" font-size="9.00"> </text>
<path fill="none" stroke="#333333" d="M355,-27C355,-27 445,-27 445,-27 451,-27 457,-33 457,-39 457,-39 457,-79 457,-79 457,-85 451,-91 445,-91 445,-91 355,-91 355,-91 349,-91 343,-85 343,-79 343,-79 343,-39 343,-39 343,-33 349,-27 355,-27"/>
<text text-anchor="start" x="398" y="-12.8" font-family="Arial" font-weight="bold" font-size="14.00"> </text>
</g>
<!-- 6&#45;&gt;8 -->
<g id="edge8" class="edge">
<title>6&#45;&gt;8</title>
<path fill="none" stroke="#888888" d="M396.3,-153.67C396.63,-145.39 396.97,-136.83 397.3,-128.38"/>
<polygon fill="#888888" stroke="#888888" points="400.81,-128.31 397.7,-118.18 393.81,-128.03 400.81,-128.31"/>
</g>
<!-- 10 -->
<g id="node10" class="node">
<title>10</title>
<text text-anchor="start" x="544" y="-99.8" font-family="Arial" font-weight="bold" font-size="14.00"> &lt; 7.325</text>
<path fill="#f8766d" fill-opacity="0.658824" stroke="transparent" d="M524,-27C524,-27 614,-27 614,-27 620,-27 626,-33 626,-39 626,-39 626,-79 626,-79 626,-85 620,-91 614,-91 614,-91 524,-91 524,-91 518,-91 512,-85 512,-79 512,-79 512,-39 512,-39 512,-33 518,-27 524,-27"/>
<text text-anchor="start" x="513" y="-88.4" font-family="Arial" font-size="2.00"> </text>
<text text-anchor="start" x="513" y="-82.4" font-family="Arial" font-size="7.00"> &#160;10</text>
<text text-anchor="start" x="527" y="-65.8" font-family="Arial" font-weight="bold" font-size="14.00">Predict 6.079</text>
<text text-anchor="start" x="549" y="-48.8" font-family="Arial" font-weight="bold" font-size="14.00">n = 37</text>
<text text-anchor="start" x="567.5" y="-30.8" font-family="Arial" font-size="9.00"> </text>
<path fill="none" stroke="#333333" d="M524,-27C524,-27 614,-27 614,-27 620,-27 626,-33 626,-39 626,-39 626,-79 626,-79 626,-85 620,-91 614,-91 614,-91 524,-91 524,-91 518,-91 512,-85 512,-79 512,-79 512,-39 512,-39 512,-33 518,-27 524,-27"/>
<text text-anchor="start" x="567" y="-12.8" font-family="Arial" font-weight="bold" font-size="14.00"> </text>
</g>
<!-- 9&#45;&gt;10 -->
<g id="edge9" class="edge">
<title>9&#45;&gt;10</title>
<path fill="none" stroke="#888888" d="M573.31,-153.67C572.93,-145.39 572.54,-136.83 572.15,-128.38"/>
<polygon fill="#888888" stroke="#888888" points="575.64,-128 571.68,-118.18 568.64,-128.33 575.64,-128"/>
</g>
<!-- 11 -->
<g id="node11" class="node">
<title>11</title>
<text text-anchor="start" x="700.5" y="-99.8" font-family="Arial" font-weight="bold" font-size="14.00"> ≥ 7.325</text>
<path fill="#f8766d" fill-opacity="0.466667" stroke="transparent" d="M680,-27C680,-27 770,-27 770,-27 776,-27 782,-33 782,-39 782,-39 782,-79 782,-79 782,-85 776,-91 770,-91 770,-91 680,-91 680,-91 674,-91 668,-85 668,-79 668,-79 668,-39 668,-39 668,-33 674,-27 680,-27"/>
<text text-anchor="start" x="669" y="-88.4" font-family="Arial" font-size="2.00"> </text>
<text text-anchor="start" x="669" y="-82.4" font-family="Arial" font-size="7.00"> &#160;11</text>
<text text-anchor="start" x="683" y="-65.8" font-family="Arial" font-weight="bold" font-size="14.00">Predict 8.254</text>
<text text-anchor="start" x="705" y="-48.8" font-family="Arial" font-weight="bold" font-size="14.00">n = 24</text>
<text text-anchor="start" x="723.5" y="-30.8" font-family="Arial" font-size="9.00"> </text>
<path fill="none" stroke="#333333" d="M680,-27C680,-27 770,-27 770,-27 776,-27 782,-33 782,-39 782,-39 782,-79 782,-79 782,-85 776,-91 770,-91 770,-91 680,-91 680,-91 674,-91 668,-85 668,-79 668,-79 668,-39 668,-39 668,-33 674,-27 680,-27"/>
<text text-anchor="start" x="723" y="-12.8" font-family="Arial" font-weight="bold" font-size="14.00"> </text>
</g>
<!-- 9&#45;&gt;11 -->
<g id="edge10" class="edge">
<title>9&#45;&gt;11</title>
<path fill="none" stroke="#888888" d="M633.18,-153.67C642.27,-144.39 651.73,-134.75 660.96,-125.33"/>
<polygon fill="#888888" stroke="#888888" points="663.47,-127.77 667.97,-118.18 658.47,-122.87 663.47,-127.77"/>
</g>
</g>
</svg>
