<?xml version="1.0" encoding="UTF-8" standalone="no"?>
<!DOCTYPE svg PUBLIC "-//W3C//DTD SVG 1.1//EN"
 "http://www.w3.org/Graphics/SVG/1.1/DTD/svg11.dtd">
<!-- Generated by graphviz version 2.50.0 (20211204.2007)
 -->
<!-- Pages: 1 -->
<svg width="1418pt" height="742pt"
 viewBox="0.00 0.00 1418.00 742.00" xmlns="http://www.w3.org/2000/svg" xmlns:xlink="http://www.w3.org/1999/xlink">
<g id="graph0" class="graph" transform="scale(1 1) rotate(0) translate(4 738)">
<polygon fill="white" stroke="transparent" points="-4,4 -4,-738 1414,-738 1414,4 -4,4"/>
<!-- 1 -->
<g id="node1" class="node">
<title>1</title>
<text text-anchor="start" x="615" y="-715.8" font-family="Arial" font-weight="bold" font-size="14.00"> </text>
<text text-anchor="start" x="557" y="-671.3" font-family="Arial" font-size="14.00"> &#160;</text>
<path fill="#ebebeb" stroke="transparent" d="M579,-643C579,-643 655,-643 655,-643 661,-643 667,-649 667,-655 667,-655 667,-695 667,-695 667,-701 661,-707 655,-707 655,-707 579,-707 579,-707 573,-707 567,-701 567,-695 567,-695 567,-655 567,-655 567,-649 573,-643 579,-643"/>
<text text-anchor="start" x="568" y="-704.4" font-family="Arial" font-size="2.00"> </text>
<text text-anchor="start" x="568" y="-698.4" font-family="Arial" font-size="7.00"> &#160;1</text>
<text text-anchor="start" x="582" y="-681.8" font-family="Arial" font-weight="bold" font-size="14.00">Mean: 6.12</text>
<text text-anchor="start" x="593.5" y="-664.8" font-family="Arial" font-weight="bold" font-size="14.00">n = 168</text>
<text text-anchor="start" x="615.5" y="-646.8" font-family="Arial" font-size="9.00"> </text>
<path fill="none" stroke="#333333" d="M579,-643C579,-643 655,-643 655,-643 661,-643 667,-649 667,-655 667,-655 667,-695 667,-695 667,-701 661,-707 655,-707 655,-707 579,-707 579,-707 573,-707 567,-701 567,-695 567,-695 567,-655 567,-655 567,-649 573,-643 579,-643"/>
<text text-anchor="start" x="669" y="-671.3" font-family="Arial" font-size="14.00"> &#160;</text>
<text text-anchor="start" x="571.5" y="-628.8" font-family="Arial" font-weight="bold" font-size="14.00">prev_1_inflow</text>
</g>
<!-- 2 -->
<g id="node2" class="node">
<title>2</title>
<text text-anchor="start" x="444.5" y="-561.8" font-family="Arial" font-weight="bold" font-size="14.00"> &lt; 6.29</text>
<text text-anchor="start" x="398" y="-517.3" font-family="Arial" font-size="14.00"> &#160;&#160;</text>
<path fill="#ebebeb" stroke="transparent" d="M424,-489C424,-489 508,-489 508,-489 514,-489 520,-495 520,-501 520,-501 520,-541 520,-541 520,-547 514,-553 508,-553 508,-553 424,-553 424,-553 418,-553 412,-547 412,-541 412,-541 412,-501 412,-501 412,-495 418,-489 424,-489"/>
<text text-anchor="start" x="413" y="-550.4" font-family="Arial" font-size="2.00"> </text>
<text text-anchor="start" x="413" y="-544.4" font-family="Arial" font-size="7.00"> &#160;2</text>
<text text-anchor="start" x="427" y="-527.8" font-family="Arial" font-weight="bold" font-size="14.00">Mean: 5.073</text>
<text text-anchor="start" x="442.5" y="-510.8" font-family="Arial" font-weight="bold" font-size="14.00">n = 101</text>
<text text-anchor="start" x="464.5" y="-492.8" font-family="Arial" font-size="9.00"> </text>
<path fill="none" stroke="#333333" d="M424,-489C424,-489 508,-489 508,-489 514,-489 520,-495 520,-501 520,-501 520,-541 520,-541 520,-547 514,-553 508,-553 508,-553 424,-553 424,-553 418,-553 412,-547 412,-541 412,-541 412,-501 412,-501 412,-495 418,-489 424,-489"/>
<text text-anchor="start" x="522" y="-517.3" font-family="Arial" font-size="14.00"> &#160;&#160;</text>
<text text-anchor="start" x="413" y="-474.8" font-family="Arial" font-weight="bold" font-size="14.00">prev_168_inflow</text>
</g>
<!-- 1&#45;&gt;2 -->
<g id="edge1" class="edge">
<title>1&#45;&gt;2</title>
<path fill="none" stroke="#888888" d="M559.05,-615.67C549.84,-606.39 540.26,-596.75 530.9,-587.33"/>
<polygon fill="#888888" stroke="#888888" points="533.32,-584.8 523.79,-580.18 528.36,-589.74 533.32,-584.8"/>
</g>
<!-- 13 -->
<g id="node3" class="node">
<title>13</title>
<text text-anchor="start" x="755" y="-561.8" font-family="Arial" font-weight="bold" font-size="14.00"> ≥ 6.29</text>
<path fill="#ebebeb" stroke="transparent" d="M734,-489C734,-489 818,-489 818,-489 824,-489 830,-495 830,-501 830,-501 830,-541 830,-541 830,-547 824,-553 818,-553 818,-553 734,-553 734,-553 728,-553 722,-547 722,-541 722,-541 722,-501 722,-501 722,-495 728,-489 734,-489"/>
<text text-anchor="start" x="723" y="-550.4" font-family="Arial" font-size="2.00"> </text>
<text text-anchor="start" x="723" y="-544.4" font-family="Arial" font-size="7.00"> &#160;13</text>
<text text-anchor="start" x="737" y="-527.8" font-family="Arial" font-weight="bold" font-size="14.00">Mean: 7.697</text>
<text text-anchor="start" x="756" y="-510.8" font-family="Arial" font-weight="bold" font-size="14.00">n = 67</text>
<text text-anchor="start" x="774.5" y="-492.8" font-family="Arial" font-size="9.00"> </text>
<path fill="none" stroke="#333333" d="M734,-489C734,-489 818,-489 818,-489 824,-489 830,-495 830,-501 830,-501 830,-541 830,-541 830,-547 824,-553 818,-553 818,-553 734,-553 734,-553 728,-553 722,-547 722,-541 722,-541 722,-501 722,-501 722,-495 728,-489 734,-489"/>
<text text-anchor="start" x="761.5" y="-474.8" font-family="Arial" font-weight="bold" font-size="14.00">time</text>
</g>
<!-- 1&#45;&gt;13 -->
<g id="edge2" class="edge">
<title>1&#45;&gt;13</title>
<path fill="none" stroke="#888888" d="M678.02,-615.67C687.72,-606.39 697.81,-596.75 707.66,-587.33"/>
<polygon fill="#888888" stroke="#888888" points="710.33,-589.62 715.14,-580.18 705.5,-584.56 710.33,-589.62"/>
</g>
<!-- 3 -->
<g id="node4" class="node">
<title>3</title>
<text text-anchor="start" x="205" y="-407.8" font-family="Arial" font-weight="bold" font-size="14.00"> &lt; 4.925</text>
<text text-anchor="start" x="162" y="-363.3" font-family="Arial" font-size="14.00"> &#160;&#160;</text>
<path fill="#ebebeb" stroke="transparent" d="M188,-335C188,-335 272,-335 272,-335 278,-335 284,-341 284,-347 284,-347 284,-387 284,-387 284,-393 278,-399 272,-399 272,-399 188,-399 188,-399 182,-399 176,-393 176,-387 176,-387 176,-347 176,-347 176,-341 182,-335 188,-335"/>
<text text-anchor="start" x="177" y="-396.4" font-family="Arial" font-size="2.00"> </text>
<text text-anchor="start" x="177" y="-390.4" font-family="Arial" font-size="7.00"> &#160;3</text>
<text text-anchor="start" x="191" y="-373.8" font-family="Arial" font-weight="bold" font-size="14.00">Mean: 4.373</text>
<text text-anchor="start" x="210" y="-356.8" font-family="Arial" font-weight="bold" font-size="14.00">n = 62</text>
<text text-anchor="start" x="228.5" y="-338.8" font-family="Arial" font-size="9.00"> </text>
<path fill="none" stroke="#333333" d="M188,-335C188,-335 272,-335 272,-335 278,-335 284,-341 284,-347 284,-347 284,-387 284,-387 284,-393 278,-399 272,-399 272,-399 188,-399 188,-399 182,-399 176,-393 176,-387 176,-387 176,-347 176,-347 176,-341 182,-335 188,-335"/>
<text text-anchor="start" x="286" y="-363.3" font-family="Arial" font-size="14.00"> &#160;&#160;</text>
<text text-anchor="start" x="177" y="-320.8" font-family="Arial" font-weight="bold" font-size="14.00">prev_168_inflow</text>
</g>
<!-- 2&#45;&gt;3 -->
<g id="edge3" class="edge">
<title>2&#45;&gt;3</title>
<path fill="none" stroke="#888888" d="M387.74,-469.6C364.92,-454.9 339.85,-438.75 316.54,-423.74"/>
<polygon fill="#888888" stroke="#888888" points="318.35,-420.74 308.05,-418.27 314.56,-426.62 318.35,-420.74"/>
</g>
<!-- 8 -->
<g id="node5" class="node">
<title>8</title>
<text text-anchor="start" x="441.5" y="-407.8" font-family="Arial" font-weight="bold" font-size="14.00"> ≥ 4.925</text>
<path fill="#ebebeb" stroke="transparent" d="M424,-335C424,-335 508,-335 508,-335 514,-335 520,-341 520,-347 520,-347 520,-387 520,-387 520,-393 514,-399 508,-399 508,-399 424,-399 424,-399 418,-399 412,-393 412,-387 412,-387 412,-347 412,-347 412,-341 418,-335 424,-335"/>
<text text-anchor="start" x="413" y="-396.4" font-family="Arial" font-size="2.00"> </text>
<text text-anchor="start" x="413" y="-390.4" font-family="Arial" font-size="7.00"> &#160;8</text>
<text text-anchor="start" x="427" y="-373.8" font-family="Arial" font-weight="bold" font-size="14.00">Mean: 6.186</text>
<text text-anchor="start" x="446" y="-356.8" font-family="Arial" font-weight="bold" font-size="14.00">n = 39</text>
<text text-anchor="start" x="464.5" y="-338.8" font-family="Arial" font-size="9.00"> </text>
<path fill="none" stroke="#333333" d="M424,-335C424,-335 508,-335 508,-335 514,-335 520,-341 520,-347 520,-347 520,-387 520,-387 520,-393 514,-399 508,-399 508,-399 424,-399 424,-399 418,-399 412,-393 412,-387 412,-387 412,-347 412,-347 412,-341 418,-335 424,-335"/>
<text text-anchor="start" x="430.5" y="-320.8" font-family="Arial" font-weight="bold" font-size="14.00">windspeed</text>
</g>
<!-- 2&#45;&gt;8 -->
<g id="edge4" class="edge">
<title>2&#45;&gt;8</title>
<path fill="none" stroke="#888888" d="M466,-461.67C466,-453.39 466,-444.83 466,-436.38"/>
<polygon fill="#888888" stroke="#888888" points="469.5,-436.18 466,-426.18 462.5,-436.18 469.5,-436.18"/>
</g>
<!-- 14 -->
<g id="node14" class="node">
<title>14</title>
<text text-anchor="start" x="758.5" y="-407.8" font-family="Arial" font-weight="bold" font-size="14.00"> &lt; 8.5</text>
<path fill="#ebebeb" stroke="transparent" d="M738,-335C738,-335 814,-335 814,-335 820,-335 826,-341 826,-347 826,-347 826,-387 826,-387 826,-393 820,-399 814,-399 814,-399 738,-399 738,-399 732,-399 726,-393 726,-387 726,-387 726,-347 726,-347 726,-341 732,-335 738,-335"/>
<text text-anchor="start" x="727" y="-396.4" font-family="Arial" font-size="2.00"> </text>
<text text-anchor="start" x="727" y="-390.4" font-family="Arial" font-size="7.00"> &#160;14</text>
<text text-anchor="start" x="741" y="-373.8" font-family="Arial" font-weight="bold" font-size="14.00">Mean: 7.99</text>
<text text-anchor="start" x="756" y="-356.8" font-family="Arial" font-weight="bold" font-size="14.00">n = 16</text>
<text text-anchor="start" x="774.5" y="-338.8" font-family="Arial" font-size="9.00"> </text>
<path fill="none" stroke="#333333" d="M738,-335C738,-335 814,-335 814,-335 820,-335 826,-341 826,-347 826,-347 826,-387 826,-387 826,-393 820,-399 814,-399 814,-399 738,-399 738,-399 732,-399 726,-393 726,-387 726,-387 726,-347 726,-347 726,-341 732,-335 738,-335"/>
<text text-anchor="start" x="761.5" y="-320.8" font-family="Arial" font-weight="bold" font-size="14.00">time</text>
</g>
<!-- 13&#45;&gt;14 -->
<g id="edge13" class="edge">
<title>13&#45;&gt;14</title>
<path fill="none" stroke="#888888" d="M776,-461.67C776,-453.39 776,-444.83 776,-436.38"/>
<polygon fill="#888888" stroke="#888888" points="779.5,-436.18 776,-426.18 772.5,-436.18 779.5,-436.18"/>
</g>
<!-- 17 -->
<g id="node15" class="node">
<title>17</title>
<text text-anchor="start" x="1002" y="-407.8" font-family="Arial" font-weight="bold" font-size="14.00"> ≥ 8.5</text>
<text text-anchor="start" x="955" y="-363.3" font-family="Arial" font-size="14.00"> &#160;</text>
<path fill="#ebebeb" stroke="transparent" d="M977,-335C977,-335 1061,-335 1061,-335 1067,-335 1073,-341 1073,-347 1073,-347 1073,-387 1073,-387 1073,-393 1067,-399 1061,-399 1061,-399 977,-399 977,-399 971,-399 965,-393 965,-387 965,-387 965,-347 965,-347 965,-341 971,-335 977,-335"/>
<text text-anchor="start" x="966" y="-396.4" font-family="Arial" font-size="2.00"> </text>
<text text-anchor="start" x="966" y="-390.4" font-family="Arial" font-size="7.00"> &#160;17</text>
<text text-anchor="start" x="980" y="-373.8" font-family="Arial" font-weight="bold" font-size="14.00">Mean: 7.605</text>
<text text-anchor="start" x="999" y="-356.8" font-family="Arial" font-weight="bold" font-size="14.00">n = 51</text>
<text text-anchor="start" x="1017.5" y="-338.8" font-family="Arial" font-size="9.00"> </text>
<path fill="none" stroke="#333333" d="M977,-335C977,-335 1061,-335 1061,-335 1067,-335 1073,-341 1073,-347 1073,-347 1073,-387 1073,-387 1073,-393 1067,-399 1061,-399 1061,-399 977,-399 977,-399 971,-399 965,-393 965,-387 965,-387 965,-347 965,-347 965,-341 971,-335 977,-335"/>
<text text-anchor="start" x="1075" y="-363.3" font-family="Arial" font-size="14.00"> &#160;</text>
<text text-anchor="start" x="969.5" y="-320.8" font-family="Arial" font-weight="bold" font-size="14.00">prev_24_inflow</text>
</g>
<!-- 13&#45;&gt;17 -->
<g id="edge14" class="edge">
<title>13&#45;&gt;17</title>
<path fill="none" stroke="#888888" d="M842.08,-478.67C871.11,-460.51 905.52,-438.98 936.24,-419.77"/>
<polygon fill="#888888" stroke="#888888" points="938.17,-422.69 944.79,-414.42 934.46,-416.75 938.17,-422.69"/>
</g>
<!-- 4 -->
<g id="node6" class="node">
<title>4</title>
<text text-anchor="start" x="47.5" y="-253.8" font-family="Arial" font-weight="bold" font-size="14.00"> &lt; 3.94</text>
<path fill="#f8766d" fill-opacity="0.874510" stroke="transparent" d="M24,-181C24,-181 114,-181 114,-181 120,-181 126,-187 126,-193 126,-193 126,-233 126,-233 126,-239 120,-245 114,-245 114,-245 24,-245 24,-245 18,-245 12,-239 12,-233 12,-233 12,-193 12,-193 12,-187 18,-181 24,-181"/>
<text text-anchor="start" x="13" y="-242.4" font-family="Arial" font-size="2.00"> </text>
<text text-anchor="start" x="13" y="-236.4" font-family="Arial" font-size="7.00"> &#160;4</text>
<text text-anchor="start" x="27" y="-219.8" font-family="Arial" font-weight="bold" font-size="14.00">Predict 3.643</text>
<text text-anchor="start" x="49" y="-202.8" font-family="Arial" font-weight="bold" font-size="14.00">n = 30</text>
<text text-anchor="start" x="67.5" y="-184.8" font-family="Arial" font-size="9.00"> </text>
<path fill="none" stroke="#333333" d="M24,-181C24,-181 114,-181 114,-181 120,-181 126,-187 126,-193 126,-193 126,-233 126,-233 126,-239 120,-245 114,-245 114,-245 24,-245 24,-245 18,-245 12,-239 12,-233 12,-233 12,-193 12,-193 12,-187 18,-181 24,-181"/>
<text text-anchor="start" x="67" y="-166.8" font-family="Arial" font-weight="bold" font-size="14.00"> </text>
</g>
<!-- 3&#45;&gt;4 -->
<g id="edge5" class="edge">
<title>3&#45;&gt;4</title>
<path fill="none" stroke="#888888" d="M168.21,-307.67C158.29,-298.3 147.97,-288.56 137.9,-279.05"/>
<polygon fill="#888888" stroke="#888888" points="140.3,-276.5 130.62,-272.18 135.49,-281.59 140.3,-276.5"/>
</g>
<!-- 5 -->
<g id="node7" class="node">
<title>5</title>
<text text-anchor="start" x="209" y="-253.8" font-family="Arial" font-weight="bold" font-size="14.00"> ≥ 3.94</text>
<text text-anchor="start" x="166" y="-209.3" font-family="Arial" font-size="14.00"> &#160;</text>
<path fill="#ebebeb" stroke="transparent" d="M188,-181C188,-181 272,-181 272,-181 278,-181 284,-187 284,-193 284,-193 284,-233 284,-233 284,-239 278,-245 272,-245 272,-245 188,-245 188,-245 182,-245 176,-239 176,-233 176,-233 176,-193 176,-193 176,-187 182,-181 188,-181"/>
<text text-anchor="start" x="177" y="-242.4" font-family="Arial" font-size="2.00"> </text>
<text text-anchor="start" x="177" y="-236.4" font-family="Arial" font-size="7.00"> &#160;5</text>
<text text-anchor="start" x="191" y="-219.8" font-family="Arial" font-weight="bold" font-size="14.00">Mean: 5.057</text>
<text text-anchor="start" x="210" y="-202.8" font-family="Arial" font-weight="bold" font-size="14.00">n = 32</text>
<text text-anchor="start" x="228.5" y="-184.8" font-family="Arial" font-size="9.00"> </text>
<path fill="none" stroke="#333333" d="M188,-181C188,-181 272,-181 272,-181 278,-181 284,-187 284,-193 284,-193 284,-233 284,-233 284,-239 278,-245 272,-245 272,-245 188,-245 188,-245 182,-245 176,-239 176,-233 176,-233 176,-193 176,-193 176,-187 182,-181 188,-181"/>
<text text-anchor="start" x="286" y="-209.3" font-family="Arial" font-size="14.00"> &#160;</text>
<text text-anchor="start" x="180.5" y="-166.8" font-family="Arial" font-weight="bold" font-size="14.00">prev_24_inflow</text>
</g>
<!-- 3&#45;&gt;5 -->
<g id="edge6" class="edge">
<title>3&#45;&gt;5</title>
<path fill="none" stroke="#888888" d="M230,-307.67C230,-299.39 230,-290.83 230,-282.38"/>
<polygon fill="#888888" stroke="#888888" points="233.5,-282.18 230,-272.18 226.5,-282.18 233.5,-282.18"/>
</g>
<!-- 9 -->
<g id="node10" class="node">
<title>9</title>
<text text-anchor="start" x="381" y="-253.8" font-family="Arial" font-weight="bold" font-size="14.00"> &lt; 34</text>
<text text-anchor="start" x="333" y="-209.3" font-family="Arial" font-size="14.00"> &#160;</text>
<path fill="#ebebeb" stroke="transparent" d="M355,-181C355,-181 438,-181 438,-181 444,-181 450,-187 450,-193 450,-193 450,-233 450,-233 450,-239 444,-245 438,-245 438,-245 355,-245 355,-245 349,-245 343,-239 343,-233 343,-233 343,-193 343,-193 343,-187 349,-181 355,-181"/>
<text text-anchor="start" x="344" y="-242.4" font-family="Arial" font-size="2.00"> </text>
<text text-anchor="start" x="344" y="-236.4" font-family="Arial" font-size="7.00"> &#160;9</text>
<text text-anchor="start" x="358" y="-219.8" font-family="Arial" font-weight="bold" font-size="14.00">Mean: 6.114</text>
<text text-anchor="start" x="376.5" y="-202.8" font-family="Arial" font-weight="bold" font-size="14.00">n = 38</text>
<text text-anchor="start" x="395" y="-184.8" font-family="Arial" font-size="9.00"> </text>
<path fill="none" stroke="#333333" d="M355,-181C355,-181 438,-181 438,-181 444,-181 450,-187 450,-193 450,-193 450,-233 450,-233 450,-239 444,-245 438,-245 438,-245 355,-245 355,-245 349,-245 343,-239 343,-233 343,-233 343,-193 343,-193 343,-187 349,-181 355,-181"/>
<text text-anchor="start" x="452" y="-209.3" font-family="Arial" font-size="14.00"> &#160;</text>
<text text-anchor="start" x="347" y="-166.8" font-family="Arial" font-weight="bold" font-size="14.00">prev_24_inflow</text>
</g>
<!-- 8&#45;&gt;9 -->
<g id="edge9" class="edge">
<title>8&#45;&gt;9</title>
<path fill="none" stroke="#888888" d="M439.14,-307.67C435.16,-299.03 431.03,-290.07 426.98,-281.27"/>
<polygon fill="#888888" stroke="#888888" points="430.15,-279.8 422.79,-272.18 423.8,-282.72 430.15,-279.8"/>
</g>
<!-- 12 -->
<g id="node11" class="node">
<title>12</title>
<text text-anchor="start" x="534" y="-253.8" font-family="Arial" font-weight="bold" font-size="14.00"> ≥ 34</text>
<path fill="#f8766d" fill-opacity="0.447059" stroke="transparent" d="M512,-181C512,-181 587,-181 587,-181 593,-181 599,-187 599,-193 599,-193 599,-233 599,-233 599,-239 593,-245 587,-245 587,-245 512,-245 512,-245 506,-245 500,-239 500,-233 500,-233 500,-193 500,-193 500,-187 506,-181 512,-181"/>
<text text-anchor="start" x="501" y="-242.4" font-family="Arial" font-size="2.00"> </text>
<text text-anchor="start" x="501" y="-236.4" font-family="Arial" font-size="7.00"> &#160;12</text>
<text text-anchor="start" x="515" y="-219.8" font-family="Arial" font-weight="bold" font-size="14.00">Predict 8.9</text>
<text text-anchor="start" x="533.5" y="-202.8" font-family="Arial" font-weight="bold" font-size="14.00">n = 1</text>
<text text-anchor="start" x="548" y="-184.8" font-family="Arial" font-size="9.00"> </text>
<path fill="none" stroke="#333333" d="M512,-181C512,-181 587,-181 587,-181 593,-181 599,-187 599,-193 599,-193 599,-233 599,-233 599,-239 593,-245 587,-245 587,-245 512,-245 512,-245 506,-245 500,-239 500,-233 500,-233 500,-193 500,-193 500,-187 506,-181 512,-181"/>
<text text-anchor="start" x="547.5" y="-166.8" font-family="Arial" font-weight="bold" font-size="14.00"> </text>
</g>
<!-- 8&#45;&gt;12 -->
<g id="edge10" class="edge">
<title>8&#45;&gt;12</title>
<path fill="none" stroke="#888888" d="M497.85,-307.67C502.62,-298.94 507.56,-289.88 512.42,-280.99"/>
<polygon fill="#888888" stroke="#888888" points="515.51,-282.63 517.23,-272.18 509.37,-279.28 515.51,-282.63"/>
</g>
<!-- 6 -->
<g id="node8" class="node">
<title>6</title>
<text text-anchor="start" x="55.5" y="-99.8" font-family="Arial" font-weight="bold" font-size="14.00"> &lt; 4.45</text>
<path fill="#f8766d" fill-opacity="0.819608" stroke="transparent" d="M32,-27C32,-27 122,-27 122,-27 128,-27 134,-33 134,-39 134,-39 134,-79 134,-79 134,-85 128,-91 122,-91 122,-91 32,-91 32,-91 26,-91 20,-85 20,-79 20,-79 20,-39 20,-39 20,-33 26,-27 32,-27"/>
<text text-anchor="start" x="21" y="-88.4" font-family="Arial" font-size="2.00"> </text>
<text text-anchor="start" x="21" y="-82.4" font-family="Arial" font-size="7.00"> &#160;6</text>
<text text-anchor="start" x="35" y="-65.8" font-family="Arial" font-weight="bold" font-size="14.00">Predict 4.328</text>
<text text-anchor="start" x="61" y="-48.8" font-family="Arial" font-weight="bold" font-size="14.00">n = 6</text>
<text text-anchor="start" x="75.5" y="-30.8" font-family="Arial" font-size="9.00"> </text>
<path fill="none" stroke="#333333" d="M32,-27C32,-27 122,-27 122,-27 128,-27 134,-33 134,-39 134,-39 134,-79 134,-79 134,-85 128,-91 122,-91 122,-91 32,-91 32,-91 26,-91 20,-85 20,-79 20,-79 20,-39 20,-39 20,-33 26,-27 32,-27"/>
<text text-anchor="start" x="75" y="-12.8" font-family="Arial" font-weight="bold" font-size="14.00"> </text>
</g>
<!-- 5&#45;&gt;6 -->
<g id="edge7" class="edge">
<title>5&#45;&gt;6</title>
<path fill="none" stroke="#888888" d="M171.28,-153.67C161.95,-144.39 152.24,-134.75 142.76,-125.33"/>
<polygon fill="#888888" stroke="#888888" points="145.12,-122.74 135.56,-118.18 140.19,-127.71 145.12,-122.74"/>
</g>
<!-- 7 -->
<g id="node9" class="node">
<title>7</title>
<text text-anchor="start" x="212" y="-99.8" font-family="Arial" font-weight="bold" font-size="14.00"> ≥ 4.45</text>
<path fill="#f8766d" fill-opacity="0.745098" stroke="transparent" d="M188,-27C188,-27 278,-27 278,-27 284,-27 290,-33 290,-39 290,-39 290,-79 290,-79 290,-85 284,-91 278,-91 278,-91 188,-91 188,-91 182,-91 176,-85 176,-79 176,-79 176,-39 176,-39 176,-33 182,-27 188,-27"/>
<text text-anchor="start" x="177" y="-88.4" font-family="Arial" font-size="2.00"> </text>
<text text-anchor="start" x="177" y="-82.4" font-family="Arial" font-size="7.00"> &#160;7</text>
<text text-anchor="start" x="191" y="-65.8" font-family="Arial" font-weight="bold" font-size="14.00">Predict 5.226</text>
<text text-anchor="start" x="213" y="-48.8" font-family="Arial" font-weight="bold" font-size="14.00">n = 26</text>
<text text-anchor="start" x="231.5" y="-30.8" font-family="Arial" font-size="9.00"> </text>
<path fill="none" stroke="#333333" d="M188,-27C188,-27 278,-27 278,-27 284,-27 290,-33 290,-39 290,-39 290,-79 290,-79 290,-85 284,-91 278,-91 278,-91 188,-91 188,-91 182,-91 176,-85 176,-79 176,-79 176,-39 176,-39 176,-33 182,-27 188,-27"/>
<text text-anchor="start" x="231" y="-12.8" font-family="Arial" font-weight="bold" font-size="14.00"> </text>
</g>
<!-- 5&#45;&gt;7 -->
<g id="edge8" class="edge">
<title>5&#45;&gt;7</title>
<path fill="none" stroke="#888888" d="M231.15,-153.67C231.31,-145.39 231.48,-136.83 231.65,-128.38"/>
<polygon fill="#888888" stroke="#888888" points="235.15,-128.24 231.85,-118.18 228.16,-128.11 235.15,-128.24"/>
</g>
<!-- 10 -->
<g id="node12" class="node">
<title>10</title>
<text text-anchor="start" x="372.5" y="-99.8" font-family="Arial" font-weight="bold" font-size="14.00"> &lt; 6.69</text>
<path fill="#f8766d" fill-opacity="0.713725" stroke="transparent" d="M349,-27C349,-27 439,-27 439,-27 445,-27 451,-33 451,-39 451,-39 451,-79 451,-79 451,-85 445,-91 439,-91 439,-91 349,-91 349,-91 343,-91 337,-85 337,-79 337,-79 337,-39 337,-39 337,-33 343,-27 349,-27"/>
<text text-anchor="start" x="338" y="-88.4" font-family="Arial" font-size="2.00"> </text>
<text text-anchor="start" x="338" y="-82.4" font-family="Arial" font-size="7.00"> &#160;10</text>
<text text-anchor="start" x="352" y="-65.8" font-family="Arial" font-weight="bold" font-size="14.00">Predict 5.624</text>
<text text-anchor="start" x="374" y="-48.8" font-family="Arial" font-weight="bold" font-size="14.00">n = 25</text>
<text text-anchor="start" x="392.5" y="-30.8" font-family="Arial" font-size="9.00"> </text>
<path fill="none" stroke="#333333" d="M349,-27C349,-27 439,-27 439,-27 445,-27 451,-33 451,-39 451,-39 451,-79 451,-79 451,-85 445,-91 439,-91 439,-91 349,-91 349,-91 343,-91 337,-85 337,-79 337,-79 337,-39 337,-39 337,-33 343,-27 349,-27"/>
<text text-anchor="start" x="392" y="-12.8" font-family="Arial" font-weight="bold" font-size="14.00"> </text>
</g>
<!-- 9&#45;&gt;10 -->
<g id="edge11" class="edge">
<title>9&#45;&gt;10</title>
<path fill="none" stroke="#888888" d="M395.23,-153.67C395.12,-145.39 395.01,-136.83 394.9,-128.38"/>
<polygon fill="#888888" stroke="#888888" points="398.4,-128.13 394.77,-118.18 391.4,-128.22 398.4,-128.13"/>
</g>
<!-- 11 -->
<g id="node13" class="node">
<title>11</title>
<text text-anchor="start" x="529" y="-99.8" font-family="Arial" font-weight="bold" font-size="14.00"> ≥ 6.69</text>
<path fill="#f8766d" fill-opacity="0.600000" stroke="transparent" d="M505,-27C505,-27 595,-27 595,-27 601,-27 607,-33 607,-39 607,-39 607,-79 607,-79 607,-85 601,-91 595,-91 595,-91 505,-91 505,-91 499,-91 493,-85 493,-79 493,-79 493,-39 493,-39 493,-33 499,-27 505,-27"/>
<text text-anchor="start" x="494" y="-88.4" font-family="Arial" font-size="2.00"> </text>
<text text-anchor="start" x="494" y="-82.4" font-family="Arial" font-size="7.00"> &#160;11</text>
<text text-anchor="start" x="508" y="-65.8" font-family="Arial" font-weight="bold" font-size="14.00">Predict 7.057</text>
<text text-anchor="start" x="530" y="-48.8" font-family="Arial" font-weight="bold" font-size="14.00">n = 13</text>
<text text-anchor="start" x="548.5" y="-30.8" font-family="Arial" font-size="9.00"> </text>
<path fill="none" stroke="#333333" d="M505,-27C505,-27 595,-27 595,-27 601,-27 607,-33 607,-39 607,-39 607,-79 607,-79 607,-85 601,-91 595,-91 595,-91 505,-91 505,-91 499,-91 493,-85 493,-79 493,-79 493,-39 493,-39 493,-33 499,-27 505,-27"/>
<text text-anchor="start" x="548" y="-12.8" font-family="Arial" font-weight="bold" font-size="14.00"> </text>
</g>
<!-- 9&#45;&gt;11 -->
<g id="edge12" class="edge">
<title>9&#45;&gt;11</title>
<path fill="none" stroke="#888888" d="M455.1,-153.67C464.5,-144.39 474.27,-134.75 483.81,-125.33"/>
<polygon fill="#888888" stroke="#888888" points="486.4,-127.69 491.06,-118.18 481.48,-122.71 486.4,-127.69"/>
</g>
<!-- 15 -->
<g id="node16" class="node">
<title>15</title>
<text text-anchor="start" x="686" y="-253.8" font-family="Arial" font-weight="bold" font-size="14.00"> &lt; 5</text>
<path fill="#f8766d" fill-opacity="0.768627" stroke="transparent" d="M653,-181C653,-181 743,-181 743,-181 749,-181 755,-187 755,-193 755,-193 755,-233 755,-233 755,-239 749,-245 743,-245 743,-245 653,-245 653,-245 647,-245 641,-239 641,-233 641,-233 641,-193 641,-193 641,-187 647,-181 653,-181"/>
<text text-anchor="start" x="642" y="-242.4" font-family="Arial" font-size="2.00"> </text>
<text text-anchor="start" x="642" y="-236.4" font-family="Arial" font-size="7.00"> &#160;15</text>
<text text-anchor="start" x="656" y="-219.8" font-family="Arial" font-weight="bold" font-size="14.00">Predict 4.967</text>
<text text-anchor="start" x="682" y="-202.8" font-family="Arial" font-weight="bold" font-size="14.00">n = 3</text>
<text text-anchor="start" x="696.5" y="-184.8" font-family="Arial" font-size="9.00"> </text>
<path fill="none" stroke="#333333" d="M653,-181C653,-181 743,-181 743,-181 749,-181 755,-187 755,-193 755,-193 755,-233 755,-233 755,-239 749,-245 743,-245 743,-245 653,-245 653,-245 647,-245 641,-239 641,-233 641,-233 641,-193 641,-193 641,-187 647,-181 653,-181"/>
<text text-anchor="start" x="696" y="-166.8" font-family="Arial" font-weight="bold" font-size="14.00"> </text>
</g>
<!-- 14&#45;&gt;15 -->
<g id="edge15" class="edge">
<title>14&#45;&gt;15</title>
<path fill="none" stroke="#888888" d="M746.07,-307.67C741.63,-299.03 737.04,-290.07 732.52,-281.27"/>
<polygon fill="#888888" stroke="#888888" points="735.53,-279.48 727.85,-272.18 729.31,-282.67 735.53,-279.48"/>
</g>
<!-- 16 -->
<g id="node17" class="node">
<title>16</title>
<text text-anchor="start" x="842.5" y="-253.8" font-family="Arial" font-weight="bold" font-size="14.00"> ≥ 5</text>
<path fill="#f8766d" fill-opacity="0.466667" stroke="transparent" d="M809,-181C809,-181 899,-181 899,-181 905,-181 911,-187 911,-193 911,-193 911,-233 911,-233 911,-239 905,-245 899,-245 899,-245 809,-245 809,-245 803,-245 797,-239 797,-233 797,-233 797,-193 797,-193 797,-187 803,-181 809,-181"/>
<text text-anchor="start" x="798" y="-242.4" font-family="Arial" font-size="2.00"> </text>
<text text-anchor="start" x="798" y="-236.4" font-family="Arial" font-size="7.00"> &#160;16</text>
<text text-anchor="start" x="812" y="-219.8" font-family="Arial" font-weight="bold" font-size="14.00">Predict 8.688</text>
<text text-anchor="start" x="834" y="-202.8" font-family="Arial" font-weight="bold" font-size="14.00">n = 13</text>
<text text-anchor="start" x="852.5" y="-184.8" font-family="Arial" font-size="9.00"> </text>
<path fill="none" stroke="#333333" d="M809,-181C809,-181 899,-181 899,-181 905,-181 911,-187 911,-193 911,-193 911,-233 911,-233 911,-239 905,-245 899,-245 899,-245 809,-245 809,-245 803,-245 797,-239 797,-233 797,-233 797,-193 797,-193 797,-187 803,-181 809,-181"/>
<text text-anchor="start" x="852" y="-166.8" font-family="Arial" font-weight="bold" font-size="14.00"> </text>
</g>
<!-- 14&#45;&gt;16 -->
<g id="edge16" class="edge">
<title>14&#45;&gt;16</title>
<path fill="none" stroke="#888888" d="M805.93,-307.67C810.37,-299.03 814.96,-290.07 819.48,-281.27"/>
<polygon fill="#888888" stroke="#888888" points="822.69,-282.67 824.15,-272.18 816.47,-279.48 822.69,-282.67"/>
</g>
<!-- 18 -->
<g id="node18" class="node">
<title>18</title>
<text text-anchor="start" x="994" y="-253.8" font-family="Arial" font-weight="bold" font-size="14.00"> &lt; 7.725</text>
<text text-anchor="start" x="951" y="-209.3" font-family="Arial" font-size="14.00"> &#160;&#160;</text>
<path fill="#ebebeb" stroke="transparent" d="M977,-181C977,-181 1061,-181 1061,-181 1067,-181 1073,-187 1073,-193 1073,-193 1073,-233 1073,-233 1073,-239 1067,-245 1061,-245 1061,-245 977,-245 977,-245 971,-245 965,-239 965,-233 965,-233 965,-193 965,-193 965,-187 971,-181 977,-181"/>
<text text-anchor="start" x="966" y="-242.4" font-family="Arial" font-size="2.00"> </text>
<text text-anchor="start" x="966" y="-236.4" font-family="Arial" font-size="7.00"> &#160;18</text>
<text text-anchor="start" x="980" y="-219.8" font-family="Arial" font-weight="bold" font-size="14.00">Mean: 6.595</text>
<text text-anchor="start" x="999" y="-202.8" font-family="Arial" font-weight="bold" font-size="14.00">n = 31</text>
<text text-anchor="start" x="1017.5" y="-184.8" font-family="Arial" font-size="9.00"> </text>
<path fill="none" stroke="#333333" d="M977,-181C977,-181 1061,-181 1061,-181 1067,-181 1073,-187 1073,-193 1073,-193 1073,-233 1073,-233 1073,-239 1067,-245 1061,-245 1061,-245 977,-245 977,-245 971,-245 965,-239 965,-233 965,-233 965,-193 965,-193 965,-187 971,-181 977,-181"/>
<text text-anchor="start" x="1075" y="-209.3" font-family="Arial" font-size="14.00"> &#160;&#160;</text>
<text text-anchor="start" x="966" y="-166.8" font-family="Arial" font-weight="bold" font-size="14.00">prev_168_inflow</text>
</g>
<!-- 17&#45;&gt;18 -->
<g id="edge17" class="edge">
<title>17&#45;&gt;18</title>
<path fill="none" stroke="#888888" d="M1019,-307.67C1019,-299.39 1019,-290.83 1019,-282.38"/>
<polygon fill="#888888" stroke="#888888" points="1022.5,-282.18 1019,-272.18 1015.5,-282.18 1022.5,-282.18"/>
</g>
<!-- 21 -->
<g id="node19" class="node">
<title>21</title>
<text text-anchor="start" x="1164.5" y="-253.8" font-family="Arial" font-weight="bold" font-size="14.00"> ≥ 7.725</text>
<text text-anchor="start" x="1125" y="-209.3" font-family="Arial" font-size="14.00"> &#160;</text>
<path fill="#ebebeb" stroke="transparent" d="M1147,-181C1147,-181 1231,-181 1231,-181 1237,-181 1243,-187 1243,-193 1243,-193 1243,-233 1243,-233 1243,-239 1237,-245 1231,-245 1231,-245 1147,-245 1147,-245 1141,-245 1135,-239 1135,-233 1135,-233 1135,-193 1135,-193 1135,-187 1141,-181 1147,-181"/>
<text text-anchor="start" x="1136" y="-242.4" font-family="Arial" font-size="2.00"> </text>
<text text-anchor="start" x="1136" y="-236.4" font-family="Arial" font-size="7.00"> &#160;21</text>
<text text-anchor="start" x="1150" y="-219.8" font-family="Arial" font-weight="bold" font-size="14.00">Mean: 9.171</text>
<text text-anchor="start" x="1169" y="-202.8" font-family="Arial" font-weight="bold" font-size="14.00">n = 20</text>
<text text-anchor="start" x="1187.5" y="-184.8" font-family="Arial" font-size="9.00"> </text>
<path fill="none" stroke="#333333" d="M1147,-181C1147,-181 1231,-181 1231,-181 1237,-181 1243,-187 1243,-193 1243,-193 1243,-233 1243,-233 1243,-239 1237,-245 1231,-245 1231,-245 1147,-245 1147,-245 1141,-245 1135,-239 1135,-233 1135,-233 1135,-193 1135,-193 1135,-187 1141,-181 1147,-181"/>
<text text-anchor="start" x="1245" y="-209.3" font-family="Arial" font-size="14.00"> &#160;</text>
<text text-anchor="start" x="1139.5" y="-166.8" font-family="Arial" font-weight="bold" font-size="14.00">prev_24_inflow</text>
</g>
<!-- 17&#45;&gt;21 -->
<g id="edge18" class="edge">
<title>17&#45;&gt;21</title>
<path fill="none" stroke="#888888" d="M1084.24,-307.67C1094.71,-298.3 1105.61,-288.56 1116.25,-279.05"/>
<polygon fill="#888888" stroke="#888888" points="1118.81,-281.45 1123.93,-272.18 1114.15,-276.23 1118.81,-281.45"/>
</g>
<!-- 19 -->
<g id="node20" class="node">
<title>19</title>
<text text-anchor="start" x="841" y="-99.8" font-family="Arial" font-weight="bold" font-size="14.00"> &lt; 7.325</text>
<path fill="#f8766d" fill-opacity="0.650980" stroke="transparent" d="M821,-27C821,-27 911,-27 911,-27 917,-27 923,-33 923,-39 923,-39 923,-79 923,-79 923,-85 917,-91 911,-91 911,-91 821,-91 821,-91 815,-91 809,-85 809,-79 809,-79 809,-39 809,-39 809,-33 815,-27 821,-27"/>
<text text-anchor="start" x="810" y="-88.4" font-family="Arial" font-size="2.00"> </text>
<text text-anchor="start" x="810" y="-82.4" font-family="Arial" font-size="7.00"> &#160;19</text>
<text text-anchor="start" x="824" y="-65.8" font-family="Arial" font-weight="bold" font-size="14.00">Predict 6.391</text>
<text text-anchor="start" x="846" y="-48.8" font-family="Arial" font-weight="bold" font-size="14.00">n = 25</text>
<text text-anchor="start" x="864.5" y="-30.8" font-family="Arial" font-size="9.00"> </text>
<path fill="none" stroke="#333333" d="M821,-27C821,-27 911,-27 911,-27 917,-27 923,-33 923,-39 923,-39 923,-79 923,-79 923,-85 917,-91 911,-91 911,-91 821,-91 821,-91 815,-91 809,-85 809,-79 809,-79 809,-39 809,-39 809,-33 815,-27 821,-27"/>
<text text-anchor="start" x="864" y="-12.8" font-family="Arial" font-weight="bold" font-size="14.00"> </text>
</g>
<!-- 18&#45;&gt;19 -->
<g id="edge19" class="edge">
<title>18&#45;&gt;19</title>
<path fill="none" stroke="#888888" d="M960.28,-153.67C950.95,-144.39 941.24,-134.75 931.76,-125.33"/>
<polygon fill="#888888" stroke="#888888" points="934.12,-122.74 924.56,-118.18 929.19,-127.71 934.12,-122.74"/>
</g>
<!-- 20 -->
<g id="node21" class="node">
<title>20</title>
<text text-anchor="start" x="997.5" y="-99.8" font-family="Arial" font-weight="bold" font-size="14.00"> ≥ 7.325</text>
<path fill="#f8766d" fill-opacity="0.564706" stroke="transparent" d="M977,-27C977,-27 1067,-27 1067,-27 1073,-27 1079,-33 1079,-39 1079,-39 1079,-79 1079,-79 1079,-85 1073,-91 1067,-91 1067,-91 977,-91 977,-91 971,-91 965,-85 965,-79 965,-79 965,-39 965,-39 965,-33 971,-27 977,-27"/>
<text text-anchor="start" x="966" y="-88.4" font-family="Arial" font-size="2.00"> </text>
<text text-anchor="start" x="966" y="-82.4" font-family="Arial" font-size="7.00"> &#160;20</text>
<text text-anchor="start" x="980" y="-65.8" font-family="Arial" font-weight="bold" font-size="14.00">Predict 7.448</text>
<text text-anchor="start" x="1006" y="-48.8" font-family="Arial" font-weight="bold" font-size="14.00">n = 6</text>
<text text-anchor="start" x="1020.5" y="-30.8" font-family="Arial" font-size="9.00"> </text>
<path fill="none" stroke="#333333" d="M977,-27C977,-27 1067,-27 1067,-27 1073,-27 1079,-33 1079,-39 1079,-39 1079,-79 1079,-79 1079,-85 1073,-91 1067,-91 1067,-91 977,-91 977,-91 971,-91 965,-85 965,-79 965,-79 965,-39 965,-39 965,-33 971,-27 977,-27"/>
<text text-anchor="start" x="1020" y="-12.8" font-family="Arial" font-weight="bold" font-size="14.00"> </text>
</g>
<!-- 18&#45;&gt;20 -->
<g id="edge20" class="edge">
<title>18&#45;&gt;20</title>
<path fill="none" stroke="#888888" d="M1020.15,-153.67C1020.31,-145.39 1020.48,-136.83 1020.65,-128.38"/>
<polygon fill="#888888" stroke="#888888" points="1024.15,-128.24 1020.85,-118.18 1017.16,-128.11 1024.15,-128.24"/>
</g>
<!-- 22 -->
<g id="node22" class="node">
<title>22</title>
<text text-anchor="start" x="1160" y="-99.8" font-family="Arial" font-weight="bold" font-size="14.00"> &lt; 9.495</text>
<path fill="#f8766d" fill-opacity="0.462745" stroke="transparent" d="M1140,-27C1140,-27 1230,-27 1230,-27 1236,-27 1242,-33 1242,-39 1242,-39 1242,-79 1242,-79 1242,-85 1236,-91 1230,-91 1230,-91 1140,-91 1140,-91 1134,-91 1128,-85 1128,-79 1128,-79 1128,-39 1128,-39 1128,-33 1134,-27 1140,-27"/>
<text text-anchor="start" x="1129" y="-88.4" font-family="Arial" font-size="2.00"> </text>
<text text-anchor="start" x="1129" y="-82.4" font-family="Arial" font-size="7.00"> &#160;22</text>
<text text-anchor="start" x="1143" y="-65.8" font-family="Arial" font-weight="bold" font-size="14.00">Predict 8.743</text>
<text text-anchor="start" x="1165" y="-48.8" font-family="Arial" font-weight="bold" font-size="14.00">n = 12</text>
<text text-anchor="start" x="1183.5" y="-30.8" font-family="Arial" font-size="9.00"> </text>
<path fill="none" stroke="#333333" d="M1140,-27C1140,-27 1230,-27 1230,-27 1236,-27 1242,-33 1242,-39 1242,-39 1242,-79 1242,-79 1242,-85 1236,-91 1230,-91 1230,-91 1140,-91 1140,-91 1134,-91 1128,-85 1128,-79 1128,-79 1128,-39 1128,-39 1128,-33 1134,-27 1140,-27"/>
<text text-anchor="start" x="1183" y="-12.8" font-family="Arial" font-weight="bold" font-size="14.00"> </text>
</g>
<!-- 21&#45;&gt;22 -->
<g id="edge21" class="edge">
<title>21&#45;&gt;22</title>
<path fill="none" stroke="#888888" d="M1187.46,-153.67C1187.25,-145.39 1187.02,-136.83 1186.8,-128.38"/>
<polygon fill="#888888" stroke="#888888" points="1190.29,-128.08 1186.53,-118.18 1183.3,-128.27 1190.29,-128.08"/>
</g>
<!-- 23 -->
<g id="node23" class="node">
<title>23</title>
<text text-anchor="start" x="1316.5" y="-99.8" font-family="Arial" font-weight="bold" font-size="14.00"> ≥ 9.495</text>
<path fill="#f8766d" fill-opacity="0.376471" stroke="transparent" d="M1296,-27C1296,-27 1386,-27 1386,-27 1392,-27 1398,-33 1398,-39 1398,-39 1398,-79 1398,-79 1398,-85 1392,-91 1386,-91 1386,-91 1296,-91 1296,-91 1290,-91 1284,-85 1284,-79 1284,-79 1284,-39 1284,-39 1284,-33 1290,-27 1296,-27"/>
<text text-anchor="start" x="1285" y="-88.4" font-family="Arial" font-size="2.00"> </text>
<text text-anchor="start" x="1285" y="-82.4" font-family="Arial" font-size="7.00"> &#160;23</text>
<text text-anchor="start" x="1299" y="-65.8" font-family="Arial" font-weight="bold" font-size="14.00">Predict 9.813</text>
<text text-anchor="start" x="1325" y="-48.8" font-family="Arial" font-weight="bold" font-size="14.00">n = 8</text>
<text text-anchor="start" x="1339.5" y="-30.8" font-family="Arial" font-size="9.00"> </text>
<path fill="none" stroke="#333333" d="M1296,-27C1296,-27 1386,-27 1386,-27 1392,-27 1398,-33 1398,-39 1398,-39 1398,-79 1398,-79 1398,-85 1392,-91 1386,-91 1386,-91 1296,-91 1296,-91 1290,-91 1284,-85 1284,-79 1284,-79 1284,-39 1284,-39 1284,-33 1290,-27 1296,-27"/>
<text text-anchor="start" x="1339" y="-12.8" font-family="Arial" font-weight="bold" font-size="14.00"> </text>
</g>
<!-- 21&#45;&gt;23 -->
<g id="edge22" class="edge">
<title>21&#45;&gt;23</title>
<path fill="none" stroke="#888888" d="M1247.33,-153.67C1256.61,-144.39 1266.25,-134.75 1275.67,-125.33"/>
<polygon fill="#888888" stroke="#888888" points="1278.23,-127.72 1282.82,-118.18 1273.28,-122.77 1278.23,-127.72"/>
</g>
</g>
</svg>
