<?xml version="1.0" encoding="UTF-8" standalone="no"?>
<!DOCTYPE svg PUBLIC "-//W3C//DTD SVG 1.1//EN"
 "http://www.w3.org/Graphics/SVG/1.1/DTD/svg11.dtd">
<!-- Generated by graphviz version 2.50.0 (20211204.2007)
 -->
<!-- Pages: 1 -->
<svg width="1386pt" height="742pt"
 viewBox="0.00 0.00 1386.00 742.00" xmlns="http://www.w3.org/2000/svg" xmlns:xlink="http://www.w3.org/1999/xlink">
<g id="graph0" class="graph" transform="scale(1 1) rotate(0) translate(4 738)">
<polygon fill="white" stroke="transparent" points="-4,4 -4,-738 1382,-738 1382,4 -4,4"/>
<!-- 1 -->
<g id="node1" class="node">
<title>1</title>
<text text-anchor="start" x="311" y="-715.8" font-family="Arial" font-weight="bold" font-size="14.00"> </text>
<text text-anchor="start" x="245" y="-671.3" font-family="Arial" font-size="14.00"> &#160;&#160;&#160;</text>
<path fill="#ebebeb" stroke="transparent" d="M275,-643C275,-643 351,-643 351,-643 357,-643 363,-649 363,-655 363,-655 363,-695 363,-695 363,-701 357,-707 351,-707 351,-707 275,-707 275,-707 269,-707 263,-701 263,-695 263,-695 263,-655 263,-655 263,-649 269,-643 275,-643"/>
<text text-anchor="start" x="264" y="-704.4" font-family="Arial" font-size="2.00"> </text>
<text text-anchor="start" x="264" y="-698.4" font-family="Arial" font-size="7.00"> &#160;1</text>
<text text-anchor="start" x="278" y="-681.8" font-family="Arial" font-weight="bold" font-size="14.00">Mean: 6.12</text>
<text text-anchor="start" x="289.5" y="-664.8" font-family="Arial" font-weight="bold" font-size="14.00">n = 168</text>
<text text-anchor="start" x="311.5" y="-646.8" font-family="Arial" font-size="9.00"> </text>
<path fill="none" stroke="#333333" d="M275,-643C275,-643 351,-643 351,-643 357,-643 363,-649 363,-655 363,-655 363,-695 363,-695 363,-701 357,-707 351,-707 351,-707 275,-707 275,-707 269,-707 263,-701 263,-695 263,-695 263,-655 263,-655 263,-649 269,-643 275,-643"/>
<text text-anchor="start" x="365" y="-671.3" font-family="Arial" font-size="14.00"> &#160;&#160;&#160;</text>
<text text-anchor="start" x="260" y="-628.8" font-family="Arial" font-weight="bold" font-size="14.00">prev_168_inflow</text>
</g>
<!-- 2 -->
<g id="node2" class="node">
<title>2</title>
<text text-anchor="start" x="205" y="-561.8" font-family="Arial" font-weight="bold" font-size="14.00"> &lt; 4.925</text>
<text text-anchor="start" x="162" y="-517.3" font-family="Arial" font-size="14.00"> &#160;&#160;</text>
<path fill="#ebebeb" stroke="transparent" d="M188,-489C188,-489 272,-489 272,-489 278,-489 284,-495 284,-501 284,-501 284,-541 284,-541 284,-547 278,-553 272,-553 272,-553 188,-553 188,-553 182,-553 176,-547 176,-541 176,-541 176,-501 176,-501 176,-495 182,-489 188,-489"/>
<text text-anchor="start" x="177" y="-550.4" font-family="Arial" font-size="2.00"> </text>
<text text-anchor="start" x="177" y="-544.4" font-family="Arial" font-size="7.00"> &#160;2</text>
<text text-anchor="start" x="191" y="-527.8" font-family="Arial" font-weight="bold" font-size="14.00">Mean: 4.476</text>
<text text-anchor="start" x="210" y="-510.8" font-family="Arial" font-weight="bold" font-size="14.00">n = 68</text>
<text text-anchor="start" x="228.5" y="-492.8" font-family="Arial" font-size="9.00"> </text>
<path fill="none" stroke="#333333" d="M188,-489C188,-489 272,-489 272,-489 278,-489 284,-495 284,-501 284,-501 284,-541 284,-541 284,-547 278,-553 272,-553 272,-553 188,-553 188,-553 182,-553 176,-547 176,-541 176,-541 176,-501 176,-501 176,-495 182,-489 188,-489"/>
<text text-anchor="start" x="286" y="-517.3" font-family="Arial" font-size="14.00"> &#160;&#160;</text>
<text text-anchor="start" x="177" y="-474.8" font-family="Arial" font-weight="bold" font-size="14.00">prev_168_inflow</text>
</g>
<!-- 1&#45;&gt;2 -->
<g id="edge1" class="edge">
<title>1&#45;&gt;2</title>
<path fill="none" stroke="#888888" d="M281.15,-615.67C276.38,-606.94 271.44,-597.88 266.58,-588.99"/>
<polygon fill="#888888" stroke="#888888" points="269.63,-587.28 261.77,-580.18 263.49,-590.63 269.63,-587.28"/>
</g>
<!-- 7 -->
<g id="node3" class="node">
<title>7</title>
<text text-anchor="start" x="437.5" y="-561.8" font-family="Arial" font-weight="bold" font-size="14.00"> ≥ 4.925</text>
<path fill="#ebebeb" stroke="transparent" d="M420,-489C420,-489 504,-489 504,-489 510,-489 516,-495 516,-501 516,-501 516,-541 516,-541 516,-547 510,-553 504,-553 504,-553 420,-553 420,-553 414,-553 408,-547 408,-541 408,-541 408,-501 408,-501 408,-495 414,-489 420,-489"/>
<text text-anchor="start" x="409" y="-550.4" font-family="Arial" font-size="2.00"> </text>
<text text-anchor="start" x="409" y="-544.4" font-family="Arial" font-size="7.00"> &#160;7</text>
<text text-anchor="start" x="423" y="-527.8" font-family="Arial" font-weight="bold" font-size="14.00">Mean: 7.237</text>
<text text-anchor="start" x="438.5" y="-510.8" font-family="Arial" font-weight="bold" font-size="14.00">n = 100</text>
<text text-anchor="start" x="460.5" y="-492.8" font-family="Arial" font-size="9.00"> </text>
<path fill="none" stroke="#333333" d="M420,-489C420,-489 504,-489 504,-489 510,-489 516,-495 516,-501 516,-501 516,-541 516,-541 516,-547 510,-553 504,-553 504,-553 420,-553 420,-553 414,-553 408,-547 408,-541 408,-541 408,-501 408,-501 408,-495 414,-489 420,-489"/>
<text text-anchor="start" x="419.5" y="-474.8" font-family="Arial" font-weight="bold" font-size="14.00">day_of_week</text>
</g>
<!-- 1&#45;&gt;7 -->
<g id="edge2" class="edge">
<title>1&#45;&gt;7</title>
<path fill="none" stroke="#888888" d="M370.18,-615.67C379.27,-606.39 388.73,-596.75 397.96,-587.33"/>
<polygon fill="#888888" stroke="#888888" points="400.47,-589.77 404.97,-580.18 395.47,-584.87 400.47,-589.77"/>
</g>
<!-- 3 -->
<g id="node4" class="node">
<title>3</title>
<text text-anchor="start" x="44" y="-407.8" font-family="Arial" font-weight="bold" font-size="14.00"> &lt; 3.955</text>
<path fill="#f8766d" fill-opacity="0.874510" stroke="transparent" d="M24,-335C24,-335 114,-335 114,-335 120,-335 126,-341 126,-347 126,-347 126,-387 126,-387 126,-393 120,-399 114,-399 114,-399 24,-399 24,-399 18,-399 12,-393 12,-387 12,-387 12,-347 12,-347 12,-341 18,-335 24,-335"/>
<text text-anchor="start" x="13" y="-396.4" font-family="Arial" font-size="2.00"> </text>
<text text-anchor="start" x="13" y="-390.4" font-family="Arial" font-size="7.00"> &#160;3</text>
<text text-anchor="start" x="27" y="-373.8" font-family="Arial" font-weight="bold" font-size="14.00">Predict 3.643</text>
<text text-anchor="start" x="49" y="-356.8" font-family="Arial" font-weight="bold" font-size="14.00">n = 30</text>
<text text-anchor="start" x="67.5" y="-338.8" font-family="Arial" font-size="9.00"> </text>
<path fill="none" stroke="#333333" d="M24,-335C24,-335 114,-335 114,-335 120,-335 126,-341 126,-347 126,-347 126,-387 126,-387 126,-393 120,-399 114,-399 114,-399 24,-399 24,-399 18,-399 12,-393 12,-387 12,-387 12,-347 12,-347 12,-341 18,-335 24,-335"/>
<text text-anchor="start" x="67" y="-320.8" font-family="Arial" font-weight="bold" font-size="14.00"> </text>
</g>
<!-- 2&#45;&gt;3 -->
<g id="edge3" class="edge">
<title>2&#45;&gt;3</title>
<path fill="none" stroke="#888888" d="M168.21,-461.67C158.29,-452.3 147.97,-442.56 137.9,-433.05"/>
<polygon fill="#888888" stroke="#888888" points="140.3,-430.5 130.62,-426.18 135.49,-435.59 140.3,-430.5"/>
</g>
<!-- 4 -->
<g id="node5" class="node">
<title>4</title>
<text text-anchor="start" x="205.5" y="-407.8" font-family="Arial" font-weight="bold" font-size="14.00"> ≥ 3.955</text>
<text text-anchor="start" x="166" y="-363.3" font-family="Arial" font-size="14.00"> &#160;</text>
<path fill="#ebebeb" stroke="transparent" d="M188,-335C188,-335 272,-335 272,-335 278,-335 284,-341 284,-347 284,-347 284,-387 284,-387 284,-393 278,-399 272,-399 272,-399 188,-399 188,-399 182,-399 176,-393 176,-387 176,-387 176,-347 176,-347 176,-341 182,-335 188,-335"/>
<text text-anchor="start" x="177" y="-396.4" font-family="Arial" font-size="2.00"> </text>
<text text-anchor="start" x="177" y="-390.4" font-family="Arial" font-size="7.00"> &#160;4</text>
<text text-anchor="start" x="191" y="-373.8" font-family="Arial" font-weight="bold" font-size="14.00">Mean: 5.133</text>
<text text-anchor="start" x="210" y="-356.8" font-family="Arial" font-weight="bold" font-size="14.00">n = 38</text>
<text text-anchor="start" x="228.5" y="-338.8" font-family="Arial" font-size="9.00"> </text>
<path fill="none" stroke="#333333" d="M188,-335C188,-335 272,-335 272,-335 278,-335 284,-341 284,-347 284,-347 284,-387 284,-387 284,-393 278,-399 272,-399 272,-399 188,-399 188,-399 182,-399 176,-393 176,-387 176,-387 176,-347 176,-347 176,-341 182,-335 188,-335"/>
<text text-anchor="start" x="286" y="-363.3" font-family="Arial" font-size="14.00"> &#160;</text>
<text text-anchor="start" x="180.5" y="-320.8" font-family="Arial" font-weight="bold" font-size="14.00">prev_24_inflow</text>
</g>
<!-- 2&#45;&gt;4 -->
<g id="edge4" class="edge">
<title>2&#45;&gt;4</title>
<path fill="none" stroke="#888888" d="M230,-461.67C230,-453.39 230,-444.83 230,-436.38"/>
<polygon fill="#888888" stroke="#888888" points="233.5,-436.18 230,-426.18 226.5,-436.18 233.5,-436.18"/>
</g>
<!-- 8 -->
<g id="node8" class="node">
<title>8</title>
<text text-anchor="start" x="445" y="-407.8" font-family="Arial" font-weight="bold" font-size="14.00"> &lt; 3.5</text>
<text text-anchor="start" x="399" y="-363.3" font-family="Arial" font-size="14.00"> &#160;</text>
<path fill="#ebebeb" stroke="transparent" d="M421,-335C421,-335 504,-335 504,-335 510,-335 516,-341 516,-347 516,-347 516,-387 516,-387 516,-393 510,-399 504,-399 504,-399 421,-399 421,-399 415,-399 409,-393 409,-387 409,-387 409,-347 409,-347 409,-341 415,-335 421,-335"/>
<text text-anchor="start" x="410" y="-396.4" font-family="Arial" font-size="2.00"> </text>
<text text-anchor="start" x="410" y="-390.4" font-family="Arial" font-size="7.00"> &#160;8</text>
<text text-anchor="start" x="424" y="-373.8" font-family="Arial" font-weight="bold" font-size="14.00">Mean: 7.711</text>
<text text-anchor="start" x="442.5" y="-356.8" font-family="Arial" font-weight="bold" font-size="14.00">n = 39</text>
<text text-anchor="start" x="461" y="-338.8" font-family="Arial" font-size="9.00"> </text>
<path fill="none" stroke="#333333" d="M421,-335C421,-335 504,-335 504,-335 510,-335 516,-341 516,-347 516,-347 516,-387 516,-387 516,-393 510,-399 504,-399 504,-399 421,-399 421,-399 415,-399 409,-393 409,-387 409,-387 409,-347 409,-347 409,-341 415,-335 421,-335"/>
<text text-anchor="start" x="518" y="-363.3" font-family="Arial" font-size="14.00"> &#160;</text>
<text text-anchor="start" x="413" y="-320.8" font-family="Arial" font-weight="bold" font-size="14.00">prev_24_inflow</text>
</g>
<!-- 7&#45;&gt;8 -->
<g id="edge7" class="edge">
<title>7&#45;&gt;8</title>
<path fill="none" stroke="#888888" d="M462,-461.67C462,-453.39 462,-444.83 462,-436.38"/>
<polygon fill="#888888" stroke="#888888" points="465.5,-436.18 462,-426.18 458.5,-436.18 465.5,-436.18"/>
</g>
<!-- 15 -->
<g id="node9" class="node">
<title>15</title>
<text text-anchor="start" x="897" y="-407.8" font-family="Arial" font-weight="bold" font-size="14.00"> ≥ 3.5</text>
<text text-anchor="start" x="846" y="-363.3" font-family="Arial" font-size="14.00"> &#160;&#160;</text>
<path fill="#ebebeb" stroke="transparent" d="M872,-335C872,-335 956,-335 956,-335 962,-335 968,-341 968,-347 968,-347 968,-387 968,-387 968,-393 962,-399 956,-399 956,-399 872,-399 872,-399 866,-399 860,-393 860,-387 860,-387 860,-347 860,-347 860,-341 866,-335 872,-335"/>
<text text-anchor="start" x="861" y="-396.4" font-family="Arial" font-size="2.00"> </text>
<text text-anchor="start" x="861" y="-390.4" font-family="Arial" font-size="7.00"> &#160;15</text>
<text text-anchor="start" x="875" y="-373.8" font-family="Arial" font-weight="bold" font-size="14.00">Mean: 6.935</text>
<text text-anchor="start" x="894" y="-356.8" font-family="Arial" font-weight="bold" font-size="14.00">n = 61</text>
<text text-anchor="start" x="912.5" y="-338.8" font-family="Arial" font-size="9.00"> </text>
<path fill="none" stroke="#333333" d="M872,-335C872,-335 956,-335 956,-335 962,-335 968,-341 968,-347 968,-347 968,-387 968,-387 968,-393 962,-399 956,-399 956,-399 872,-399 872,-399 866,-399 860,-393 860,-387 860,-387 860,-347 860,-347 860,-341 866,-335 872,-335"/>
<text text-anchor="start" x="970" y="-363.3" font-family="Arial" font-size="14.00"> &#160;&#160;</text>
<text text-anchor="start" x="861" y="-320.8" font-family="Arial" font-weight="bold" font-size="14.00">prev_168_inflow</text>
</g>
<!-- 7&#45;&gt;15 -->
<g id="edge8" class="edge">
<title>7&#45;&gt;15</title>
<path fill="none" stroke="#888888" d="M528.21,-497.74C607.03,-471.23 738.95,-426.87 826.22,-397.52"/>
<polygon fill="#888888" stroke="#888888" points="827.48,-400.79 835.84,-394.28 825.25,-394.15 827.48,-400.79"/>
</g>
<!-- 5 -->
<g id="node6" class="node">
<title>5</title>
<text text-anchor="start" x="59.5" y="-253.8" font-family="Arial" font-weight="bold" font-size="14.00"> &lt; 4.45</text>
<path fill="#f8766d" fill-opacity="0.811765" stroke="transparent" d="M36,-181C36,-181 126,-181 126,-181 132,-181 138,-187 138,-193 138,-193 138,-233 138,-233 138,-239 132,-245 126,-245 126,-245 36,-245 36,-245 30,-245 24,-239 24,-233 24,-233 24,-193 24,-193 24,-187 30,-181 36,-181"/>
<text text-anchor="start" x="25" y="-242.4" font-family="Arial" font-size="2.00"> </text>
<text text-anchor="start" x="25" y="-236.4" font-family="Arial" font-size="7.00"> &#160;5</text>
<text text-anchor="start" x="39" y="-219.8" font-family="Arial" font-weight="bold" font-size="14.00">Predict 4.394</text>
<text text-anchor="start" x="65" y="-202.8" font-family="Arial" font-weight="bold" font-size="14.00">n = 7</text>
<text text-anchor="start" x="79.5" y="-184.8" font-family="Arial" font-size="9.00"> </text>
<path fill="none" stroke="#333333" d="M36,-181C36,-181 126,-181 126,-181 132,-181 138,-187 138,-193 138,-193 138,-233 138,-233 138,-239 132,-245 126,-245 126,-245 36,-245 36,-245 30,-245 24,-239 24,-233 24,-233 24,-193 24,-193 24,-187 30,-181 36,-181"/>
<text text-anchor="start" x="79" y="-166.8" font-family="Arial" font-weight="bold" font-size="14.00"> </text>
</g>
<!-- 4&#45;&gt;5 -->
<g id="edge5" class="edge">
<title>4&#45;&gt;5</title>
<path fill="none" stroke="#888888" d="M172.82,-307.67C163.73,-298.39 154.27,-288.75 145.04,-279.33"/>
<polygon fill="#888888" stroke="#888888" points="147.53,-276.87 138.03,-272.18 142.53,-281.77 147.53,-276.87"/>
</g>
<!-- 6 -->
<g id="node7" class="node">
<title>6</title>
<text text-anchor="start" x="209.5" y="-253.8" font-family="Arial" font-weight="bold" font-size="14.00"> ≥ 4.45</text>
<path fill="#f8766d" fill-opacity="0.737255" stroke="transparent" d="M193,-181C193,-181 268,-181 268,-181 274,-181 280,-187 280,-193 280,-193 280,-233 280,-233 280,-239 274,-245 268,-245 268,-245 193,-245 193,-245 187,-245 181,-239 181,-233 181,-233 181,-193 181,-193 181,-187 187,-181 193,-181"/>
<text text-anchor="start" x="182" y="-242.4" font-family="Arial" font-size="2.00"> </text>
<text text-anchor="start" x="182" y="-236.4" font-family="Arial" font-size="7.00"> &#160;6</text>
<text text-anchor="start" x="196" y="-219.8" font-family="Arial" font-weight="bold" font-size="14.00">Predict 5.3</text>
<text text-anchor="start" x="210.5" y="-202.8" font-family="Arial" font-weight="bold" font-size="14.00">n = 31</text>
<text text-anchor="start" x="229" y="-184.8" font-family="Arial" font-size="9.00"> </text>
<path fill="none" stroke="#333333" d="M193,-181C193,-181 268,-181 268,-181 274,-181 280,-187 280,-193 280,-193 280,-233 280,-233 280,-239 274,-245 268,-245 268,-245 193,-245 193,-245 187,-245 181,-239 181,-233 181,-233 181,-193 181,-193 181,-187 187,-181 193,-181"/>
<text text-anchor="start" x="228.5" y="-166.8" font-family="Arial" font-weight="bold" font-size="14.00"> </text>
</g>
<!-- 4&#45;&gt;6 -->
<g id="edge6" class="edge">
<title>4&#45;&gt;6</title>
<path fill="none" stroke="#888888" d="M230,-307.67C230,-299.39 230,-290.83 230,-282.38"/>
<polygon fill="#888888" stroke="#888888" points="233.5,-282.18 230,-272.18 226.5,-282.18 233.5,-282.18"/>
</g>
<!-- 9 -->
<g id="node10" class="node">
<title>9</title>
<text text-anchor="start" x="354.5" y="-253.8" font-family="Arial" font-weight="bold" font-size="14.00"> &lt; 7.63</text>
<path fill="#ebebeb" stroke="transparent" d="M334,-181C334,-181 418,-181 418,-181 424,-181 430,-187 430,-193 430,-193 430,-233 430,-233 430,-239 424,-245 418,-245 418,-245 334,-245 334,-245 328,-245 322,-239 322,-233 322,-233 322,-193 322,-193 322,-187 328,-181 334,-181"/>
<text text-anchor="start" x="323" y="-242.4" font-family="Arial" font-size="2.00"> </text>
<text text-anchor="start" x="323" y="-236.4" font-family="Arial" font-size="7.00"> &#160;9</text>
<text text-anchor="start" x="337" y="-219.8" font-family="Arial" font-weight="bold" font-size="14.00">Mean: 6.753</text>
<text text-anchor="start" x="356" y="-202.8" font-family="Arial" font-weight="bold" font-size="14.00">n = 23</text>
<text text-anchor="start" x="374.5" y="-184.8" font-family="Arial" font-size="9.00"> </text>
<path fill="none" stroke="#333333" d="M334,-181C334,-181 418,-181 418,-181 424,-181 430,-187 430,-193 430,-193 430,-233 430,-233 430,-239 424,-245 418,-245 418,-245 334,-245 334,-245 328,-245 322,-239 322,-233 322,-233 322,-193 322,-193 322,-187 328,-181 334,-181"/>
<text text-anchor="start" x="347" y="-166.8" font-family="Arial" font-weight="bold" font-size="14.00">air_temp</text>
</g>
<!-- 8&#45;&gt;9 -->
<g id="edge9" class="edge">
<title>8&#45;&gt;9</title>
<path fill="none" stroke="#888888" d="M429,-307.67C424.06,-298.94 418.93,-289.88 413.9,-280.99"/>
<polygon fill="#888888" stroke="#888888" points="416.89,-279.16 408.92,-272.18 410.79,-282.6 416.89,-279.16"/>
</g>
<!-- 12 -->
<g id="node11" class="node">
<title>12</title>
<text text-anchor="start" x="508" y="-253.8" font-family="Arial" font-weight="bold" font-size="14.00"> ≥ 7.63</text>
<path fill="#ebebeb" stroke="transparent" d="M487,-181C487,-181 571,-181 571,-181 577,-181 583,-187 583,-193 583,-193 583,-233 583,-233 583,-239 577,-245 571,-245 571,-245 487,-245 487,-245 481,-245 475,-239 475,-233 475,-233 475,-193 475,-193 475,-187 481,-181 487,-181"/>
<text text-anchor="start" x="476" y="-242.4" font-family="Arial" font-size="2.00"> </text>
<text text-anchor="start" x="476" y="-236.4" font-family="Arial" font-size="7.00"> &#160;12</text>
<text text-anchor="start" x="490" y="-219.8" font-family="Arial" font-weight="bold" font-size="14.00">Mean: 9.087</text>
<text text-anchor="start" x="509" y="-202.8" font-family="Arial" font-weight="bold" font-size="14.00">n = 16</text>
<text text-anchor="start" x="527.5" y="-184.8" font-family="Arial" font-size="9.00"> </text>
<path fill="none" stroke="#333333" d="M487,-181C487,-181 571,-181 571,-181 577,-181 583,-187 583,-193 583,-193 583,-233 583,-233 583,-239 577,-245 571,-245 571,-245 487,-245 487,-245 481,-245 475,-239 475,-233 475,-233 475,-193 475,-193 475,-187 481,-181 487,-181"/>
<text text-anchor="start" x="514.5" y="-166.8" font-family="Arial" font-weight="bold" font-size="14.00">time</text>
</g>
<!-- 8&#45;&gt;12 -->
<g id="edge10" class="edge">
<title>8&#45;&gt;12</title>
<path fill="none" stroke="#888888" d="M487.71,-307.67C491.48,-299.12 495.39,-290.26 499.23,-281.55"/>
<polygon fill="#888888" stroke="#888888" points="502.53,-282.74 503.36,-272.18 496.12,-279.92 502.53,-282.74"/>
</g>
<!-- 16 -->
<g id="node16" class="node">
<title>16</title>
<text text-anchor="start" x="889" y="-253.8" font-family="Arial" font-weight="bold" font-size="14.00"> &lt; 7.325</text>
<text text-anchor="start" x="850" y="-209.3" font-family="Arial" font-size="14.00"> &#160;</text>
<path fill="#ebebeb" stroke="transparent" d="M872,-181C872,-181 956,-181 956,-181 962,-181 968,-187 968,-193 968,-193 968,-233 968,-233 968,-239 962,-245 956,-245 956,-245 872,-245 872,-245 866,-245 860,-239 860,-233 860,-233 860,-193 860,-193 860,-187 866,-181 872,-181"/>
<text text-anchor="start" x="861" y="-242.4" font-family="Arial" font-size="2.00"> </text>
<text text-anchor="start" x="861" y="-236.4" font-family="Arial" font-size="7.00"> &#160;16</text>
<text text-anchor="start" x="875" y="-219.8" font-family="Arial" font-weight="bold" font-size="14.00">Mean: 6.079</text>
<text text-anchor="start" x="894" y="-202.8" font-family="Arial" font-weight="bold" font-size="14.00">n = 37</text>
<text text-anchor="start" x="912.5" y="-184.8" font-family="Arial" font-size="9.00"> </text>
<path fill="none" stroke="#333333" d="M872,-181C872,-181 956,-181 956,-181 962,-181 968,-187 968,-193 968,-193 968,-233 968,-233 968,-239 962,-245 956,-245 956,-245 872,-245 872,-245 866,-245 860,-239 860,-233 860,-233 860,-193 860,-193 860,-187 866,-181 872,-181"/>
<text text-anchor="start" x="970" y="-209.3" font-family="Arial" font-size="14.00"> &#160;</text>
<text text-anchor="start" x="864.5" y="-166.8" font-family="Arial" font-weight="bold" font-size="14.00">prev_24_inflow</text>
</g>
<!-- 15&#45;&gt;16 -->
<g id="edge15" class="edge">
<title>15&#45;&gt;16</title>
<path fill="none" stroke="#888888" d="M914,-307.67C914,-299.39 914,-290.83 914,-282.38"/>
<polygon fill="#888888" stroke="#888888" points="917.5,-282.18 914,-272.18 910.5,-282.18 917.5,-282.18"/>
</g>
<!-- 19 -->
<g id="node17" class="node">
<title>19</title>
<text text-anchor="start" x="1128.5" y="-253.8" font-family="Arial" font-weight="bold" font-size="14.00"> ≥ 7.325</text>
<text text-anchor="start" x="1089" y="-209.3" font-family="Arial" font-size="14.00"> &#160;</text>
<path fill="#ebebeb" stroke="transparent" d="M1111,-181C1111,-181 1195,-181 1195,-181 1201,-181 1207,-187 1207,-193 1207,-193 1207,-233 1207,-233 1207,-239 1201,-245 1195,-245 1195,-245 1111,-245 1111,-245 1105,-245 1099,-239 1099,-233 1099,-233 1099,-193 1099,-193 1099,-187 1105,-181 1111,-181"/>
<text text-anchor="start" x="1100" y="-242.4" font-family="Arial" font-size="2.00"> </text>
<text text-anchor="start" x="1100" y="-236.4" font-family="Arial" font-size="7.00"> &#160;19</text>
<text text-anchor="start" x="1114" y="-219.8" font-family="Arial" font-weight="bold" font-size="14.00">Mean: 8.254</text>
<text text-anchor="start" x="1133" y="-202.8" font-family="Arial" font-weight="bold" font-size="14.00">n = 24</text>
<text text-anchor="start" x="1151.5" y="-184.8" font-family="Arial" font-size="9.00"> </text>
<path fill="none" stroke="#333333" d="M1111,-181C1111,-181 1195,-181 1195,-181 1201,-181 1207,-187 1207,-193 1207,-193 1207,-233 1207,-233 1207,-239 1201,-245 1195,-245 1195,-245 1111,-245 1111,-245 1105,-245 1099,-239 1099,-233 1099,-233 1099,-193 1099,-193 1099,-187 1105,-181 1111,-181"/>
<text text-anchor="start" x="1209" y="-209.3" font-family="Arial" font-size="14.00"> &#160;</text>
<text text-anchor="start" x="1103.5" y="-166.8" font-family="Arial" font-weight="bold" font-size="14.00">prev_24_inflow</text>
</g>
<!-- 15&#45;&gt;19 -->
<g id="edge16" class="edge">
<title>15&#45;&gt;19</title>
<path fill="none" stroke="#888888" d="M992.26,-316.23C1017.21,-300.36 1044.89,-282.75 1070.16,-266.68"/>
<polygon fill="#888888" stroke="#888888" points="1072.07,-269.62 1078.63,-261.3 1068.31,-263.71 1072.07,-269.62"/>
</g>
<!-- 10 -->
<g id="node12" class="node">
<title>10</title>
<text text-anchor="start" x="196" y="-99.8" font-family="Arial" font-weight="bold" font-size="14.00"> &lt; 26.15</text>
<path fill="#f8766d" fill-opacity="0.415686" stroke="transparent" d="M180,-27C180,-27 262,-27 262,-27 268,-27 274,-33 274,-39 274,-39 274,-79 274,-79 274,-85 268,-91 262,-91 262,-91 180,-91 180,-91 174,-91 168,-85 168,-79 168,-79 168,-39 168,-39 168,-33 174,-27 180,-27"/>
<text text-anchor="start" x="169" y="-88.4" font-family="Arial" font-size="2.00"> </text>
<text text-anchor="start" x="169" y="-82.4" font-family="Arial" font-size="7.00"> &#160;10</text>
<text text-anchor="start" x="183" y="-65.8" font-family="Arial" font-weight="bold" font-size="14.00">Predict 9.23</text>
<text text-anchor="start" x="205" y="-48.8" font-family="Arial" font-weight="bold" font-size="14.00">n = 3</text>
<text text-anchor="start" x="219.5" y="-30.8" font-family="Arial" font-size="9.00"> </text>
<path fill="none" stroke="#333333" d="M180,-27C180,-27 262,-27 262,-27 268,-27 274,-33 274,-39 274,-39 274,-79 274,-79 274,-85 268,-91 262,-91 262,-91 180,-91 180,-91 174,-91 168,-85 168,-79 168,-79 168,-39 168,-39 168,-33 174,-27 180,-27"/>
<text text-anchor="start" x="219" y="-12.8" font-family="Arial" font-weight="bold" font-size="14.00"> </text>
</g>
<!-- 9&#45;&gt;10 -->
<g id="edge11" class="edge">
<title>9&#45;&gt;10</title>
<path fill="none" stroke="#888888" d="M316.52,-153.67C307.06,-144.39 297.22,-134.75 287.62,-125.33"/>
<polygon fill="#888888" stroke="#888888" points="289.92,-122.68 280.32,-118.18 285.01,-127.68 289.92,-122.68"/>
</g>
<!-- 11 -->
<g id="node13" class="node">
<title>11</title>
<text text-anchor="start" x="348.5" y="-99.8" font-family="Arial" font-weight="bold" font-size="14.00"> ≥ 26.15</text>
<path fill="#f8766d" fill-opacity="0.650980" stroke="transparent" d="M328,-27C328,-27 418,-27 418,-27 424,-27 430,-33 430,-39 430,-39 430,-79 430,-79 430,-85 424,-91 418,-91 418,-91 328,-91 328,-91 322,-91 316,-85 316,-79 316,-79 316,-39 316,-39 316,-33 322,-27 328,-27"/>
<text text-anchor="start" x="317" y="-88.4" font-family="Arial" font-size="2.00"> </text>
<text text-anchor="start" x="317" y="-82.4" font-family="Arial" font-size="7.00"> &#160;11</text>
<text text-anchor="start" x="331" y="-65.8" font-family="Arial" font-weight="bold" font-size="14.00">Predict 6.381</text>
<text text-anchor="start" x="353" y="-48.8" font-family="Arial" font-weight="bold" font-size="14.00">n = 20</text>
<text text-anchor="start" x="371.5" y="-30.8" font-family="Arial" font-size="9.00"> </text>
<path fill="none" stroke="#333333" d="M328,-27C328,-27 418,-27 418,-27 424,-27 430,-33 430,-39 430,-39 430,-79 430,-79 430,-85 424,-91 418,-91 418,-91 328,-91 328,-91 322,-91 316,-85 316,-79 316,-79 316,-39 316,-39 316,-33 322,-27 328,-27"/>
<text text-anchor="start" x="371" y="-12.8" font-family="Arial" font-weight="bold" font-size="14.00"> </text>
</g>
<!-- 9&#45;&gt;11 -->
<g id="edge12" class="edge">
<title>9&#45;&gt;11</title>
<path fill="none" stroke="#888888" d="M374.85,-153.67C374.69,-145.39 374.52,-136.83 374.35,-128.38"/>
<polygon fill="#888888" stroke="#888888" points="377.84,-128.11 374.15,-118.18 370.85,-128.24 377.84,-128.11"/>
</g>
<!-- 13 -->
<g id="node14" class="node">
<title>13</title>
<text text-anchor="start" x="507.5" y="-99.8" font-family="Arial" font-weight="bold" font-size="14.00"> &lt; 18.5</text>
<path fill="#f8766d" fill-opacity="0.494118" stroke="transparent" d="M484,-27C484,-27 574,-27 574,-27 580,-27 586,-33 586,-39 586,-39 586,-79 586,-79 586,-85 580,-91 574,-91 574,-91 484,-91 484,-91 478,-91 472,-85 472,-79 472,-79 472,-39 472,-39 472,-33 478,-27 484,-27"/>
<text text-anchor="start" x="473" y="-88.4" font-family="Arial" font-size="2.00"> </text>
<text text-anchor="start" x="473" y="-82.4" font-family="Arial" font-size="7.00"> &#160;13</text>
<text text-anchor="start" x="487" y="-65.8" font-family="Arial" font-weight="bold" font-size="14.00">Predict 8.271</text>
<text text-anchor="start" x="513" y="-48.8" font-family="Arial" font-weight="bold" font-size="14.00">n = 7</text>
<text text-anchor="start" x="527.5" y="-30.8" font-family="Arial" font-size="9.00"> </text>
<path fill="none" stroke="#333333" d="M484,-27C484,-27 574,-27 574,-27 580,-27 586,-33 586,-39 586,-39 586,-79 586,-79 586,-85 580,-91 574,-91 574,-91 484,-91 484,-91 478,-91 472,-85 472,-79 472,-79 472,-39 472,-39 472,-33 478,-27 484,-27"/>
<text text-anchor="start" x="527" y="-12.8" font-family="Arial" font-weight="bold" font-size="14.00"> </text>
</g>
<!-- 12&#45;&gt;13 -->
<g id="edge13" class="edge">
<title>12&#45;&gt;13</title>
<path fill="none" stroke="#888888" d="M529,-153.67C529,-145.39 529,-136.83 529,-128.38"/>
<polygon fill="#888888" stroke="#888888" points="532.5,-128.18 529,-118.18 525.5,-128.18 532.5,-128.18"/>
</g>
<!-- 14 -->
<g id="node15" class="node">
<title>14</title>
<text text-anchor="start" x="664" y="-99.8" font-family="Arial" font-weight="bold" font-size="14.00"> ≥ 18.5</text>
<path fill="#f8766d" fill-opacity="0.376471" stroke="transparent" d="M640,-27C640,-27 730,-27 730,-27 736,-27 742,-33 742,-39 742,-39 742,-79 742,-79 742,-85 736,-91 730,-91 730,-91 640,-91 640,-91 634,-91 628,-85 628,-79 628,-79 628,-39 628,-39 628,-33 634,-27 640,-27"/>
<text text-anchor="start" x="629" y="-88.4" font-family="Arial" font-size="2.00"> </text>
<text text-anchor="start" x="629" y="-82.4" font-family="Arial" font-size="7.00"> &#160;14</text>
<text text-anchor="start" x="643" y="-65.8" font-family="Arial" font-weight="bold" font-size="14.00">Predict 9.721</text>
<text text-anchor="start" x="669" y="-48.8" font-family="Arial" font-weight="bold" font-size="14.00">n = 9</text>
<text text-anchor="start" x="683.5" y="-30.8" font-family="Arial" font-size="9.00"> </text>
<path fill="none" stroke="#333333" d="M640,-27C640,-27 730,-27 730,-27 736,-27 742,-33 742,-39 742,-39 742,-79 742,-79 742,-85 736,-91 730,-91 730,-91 640,-91 640,-91 634,-91 628,-85 628,-79 628,-79 628,-39 628,-39 628,-33 634,-27 640,-27"/>
<text text-anchor="start" x="683" y="-12.8" font-family="Arial" font-weight="bold" font-size="14.00"> </text>
</g>
<!-- 12&#45;&gt;14 -->
<g id="edge14" class="edge">
<title>12&#45;&gt;14</title>
<path fill="none" stroke="#888888" d="M588.87,-153.67C598.38,-144.39 608.28,-134.75 617.95,-125.33"/>
<polygon fill="#888888" stroke="#888888" points="620.57,-127.66 625.29,-118.18 615.69,-122.65 620.57,-127.66"/>
</g>
<!-- 17 -->
<g id="node18" class="node">
<title>17</title>
<text text-anchor="start" x="819.5" y="-99.8" font-family="Arial" font-weight="bold" font-size="14.00"> &lt; 6.88</text>
<path fill="#f8766d" fill-opacity="0.698039" stroke="transparent" d="M796,-27C796,-27 886,-27 886,-27 892,-27 898,-33 898,-39 898,-39 898,-79 898,-79 898,-85 892,-91 886,-91 886,-91 796,-91 796,-91 790,-91 784,-85 784,-79 784,-79 784,-39 784,-39 784,-33 790,-27 796,-27"/>
<text text-anchor="start" x="785" y="-88.4" font-family="Arial" font-size="2.00"> </text>
<text text-anchor="start" x="785" y="-82.4" font-family="Arial" font-size="7.00"> &#160;17</text>
<text text-anchor="start" x="799" y="-65.8" font-family="Arial" font-weight="bold" font-size="14.00">Predict 5.818</text>
<text text-anchor="start" x="821" y="-48.8" font-family="Arial" font-weight="bold" font-size="14.00">n = 29</text>
<text text-anchor="start" x="839.5" y="-30.8" font-family="Arial" font-size="9.00"> </text>
<path fill="none" stroke="#333333" d="M796,-27C796,-27 886,-27 886,-27 892,-27 898,-33 898,-39 898,-39 898,-79 898,-79 898,-85 892,-91 886,-91 886,-91 796,-91 796,-91 790,-91 784,-85 784,-79 784,-79 784,-39 784,-39 784,-33 790,-27 796,-27"/>
<text text-anchor="start" x="839" y="-12.8" font-family="Arial" font-weight="bold" font-size="14.00"> </text>
</g>
<!-- 16&#45;&gt;17 -->
<g id="edge17" class="edge">
<title>16&#45;&gt;17</title>
<path fill="none" stroke="#888888" d="M885.99,-153.67C881.84,-145.03 877.53,-136.07 873.31,-127.27"/>
<polygon fill="#888888" stroke="#888888" points="876.42,-125.68 868.94,-118.18 870.11,-128.71 876.42,-125.68"/>
</g>
<!-- 18 -->
<g id="node19" class="node">
<title>18</title>
<text text-anchor="start" x="976" y="-99.8" font-family="Arial" font-weight="bold" font-size="14.00"> ≥ 6.88</text>
<path fill="#f8766d" fill-opacity="0.596078" stroke="transparent" d="M952,-27C952,-27 1042,-27 1042,-27 1048,-27 1054,-33 1054,-39 1054,-39 1054,-79 1054,-79 1054,-85 1048,-91 1042,-91 1042,-91 952,-91 952,-91 946,-91 940,-85 940,-79 940,-79 940,-39 940,-39 940,-33 946,-27 952,-27"/>
<text text-anchor="start" x="941" y="-88.4" font-family="Arial" font-size="2.00"> </text>
<text text-anchor="start" x="941" y="-82.4" font-family="Arial" font-size="7.00"> &#160;18</text>
<text text-anchor="start" x="955" y="-65.8" font-family="Arial" font-weight="bold" font-size="14.00">Predict 7.026</text>
<text text-anchor="start" x="981" y="-48.8" font-family="Arial" font-weight="bold" font-size="14.00">n = 8</text>
<text text-anchor="start" x="995.5" y="-30.8" font-family="Arial" font-size="9.00"> </text>
<path fill="none" stroke="#333333" d="M952,-27C952,-27 1042,-27 1042,-27 1048,-27 1054,-33 1054,-39 1054,-39 1054,-79 1054,-79 1054,-85 1048,-91 1042,-91 1042,-91 952,-91 952,-91 946,-91 940,-85 940,-79 940,-79 940,-39 940,-39 940,-33 946,-27 952,-27"/>
<text text-anchor="start" x="995" y="-12.8" font-family="Arial" font-weight="bold" font-size="14.00"> </text>
</g>
<!-- 16&#45;&gt;18 -->
<g id="edge18" class="edge">
<title>16&#45;&gt;18</title>
<path fill="none" stroke="#888888" d="M945.85,-153.67C950.62,-144.94 955.56,-135.88 960.42,-126.99"/>
<polygon fill="#888888" stroke="#888888" points="963.51,-128.63 965.23,-118.18 957.37,-125.28 963.51,-128.63"/>
</g>
<!-- 20 -->
<g id="node20" class="node">
<title>20</title>
<text text-anchor="start" x="1131.5" y="-99.8" font-family="Arial" font-weight="bold" font-size="14.00"> &lt; 7.22</text>
<path fill="#f8766d" fill-opacity="0.580392" stroke="transparent" d="M1108,-27C1108,-27 1198,-27 1198,-27 1204,-27 1210,-33 1210,-39 1210,-39 1210,-79 1210,-79 1210,-85 1204,-91 1198,-91 1198,-91 1108,-91 1108,-91 1102,-91 1096,-85 1096,-79 1096,-79 1096,-39 1096,-39 1096,-33 1102,-27 1108,-27"/>
<text text-anchor="start" x="1097" y="-88.4" font-family="Arial" font-size="2.00"> </text>
<text text-anchor="start" x="1097" y="-82.4" font-family="Arial" font-size="7.00"> &#160;20</text>
<text text-anchor="start" x="1111" y="-65.8" font-family="Arial" font-weight="bold" font-size="14.00">Predict 7.224</text>
<text text-anchor="start" x="1137" y="-48.8" font-family="Arial" font-weight="bold" font-size="14.00">n = 8</text>
<text text-anchor="start" x="1151.5" y="-30.8" font-family="Arial" font-size="9.00"> </text>
<path fill="none" stroke="#333333" d="M1108,-27C1108,-27 1198,-27 1198,-27 1204,-27 1210,-33 1210,-39 1210,-39 1210,-79 1210,-79 1210,-85 1204,-91 1198,-91 1198,-91 1108,-91 1108,-91 1102,-91 1096,-85 1096,-79 1096,-79 1096,-39 1096,-39 1096,-33 1102,-27 1108,-27"/>
<text text-anchor="start" x="1151" y="-12.8" font-family="Arial" font-weight="bold" font-size="14.00"> </text>
</g>
<!-- 19&#45;&gt;20 -->
<g id="edge19" class="edge">
<title>19&#45;&gt;20</title>
<path fill="none" stroke="#888888" d="M1153,-153.67C1153,-145.39 1153,-136.83 1153,-128.38"/>
<polygon fill="#888888" stroke="#888888" points="1156.5,-128.18 1153,-118.18 1149.5,-128.18 1156.5,-128.18"/>
</g>
<!-- 21 -->
<g id="node21" class="node">
<title>21</title>
<text text-anchor="start" x="1288" y="-99.8" font-family="Arial" font-weight="bold" font-size="14.00"> ≥ 7.22</text>
<path fill="#f8766d" fill-opacity="0.454902" stroke="transparent" d="M1264,-27C1264,-27 1354,-27 1354,-27 1360,-27 1366,-33 1366,-39 1366,-39 1366,-79 1366,-79 1366,-85 1360,-91 1354,-91 1354,-91 1264,-91 1264,-91 1258,-91 1252,-85 1252,-79 1252,-79 1252,-39 1252,-39 1252,-33 1258,-27 1264,-27"/>
<text text-anchor="start" x="1253" y="-88.4" font-family="Arial" font-size="2.00"> </text>
<text text-anchor="start" x="1253" y="-82.4" font-family="Arial" font-size="7.00"> &#160;21</text>
<text text-anchor="start" x="1267" y="-65.8" font-family="Arial" font-weight="bold" font-size="14.00">Predict 8.769</text>
<text text-anchor="start" x="1289" y="-48.8" font-family="Arial" font-weight="bold" font-size="14.00">n = 16</text>
<text text-anchor="start" x="1307.5" y="-30.8" font-family="Arial" font-size="9.00"> </text>
<path fill="none" stroke="#333333" d="M1264,-27C1264,-27 1354,-27 1354,-27 1360,-27 1366,-33 1366,-39 1366,-39 1366,-79 1366,-79 1366,-85 1360,-91 1354,-91 1354,-91 1264,-91 1264,-91 1258,-91 1252,-85 1252,-79 1252,-79 1252,-39 1252,-39 1252,-33 1258,-27 1264,-27"/>
<text text-anchor="start" x="1307" y="-12.8" font-family="Arial" font-weight="bold" font-size="14.00"> </text>
</g>
<!-- 19&#45;&gt;21 -->
<g id="edge20" class="edge">
<title>19&#45;&gt;21</title>
<path fill="none" stroke="#888888" d="M1212.87,-153.67C1222.38,-144.39 1232.28,-134.75 1241.95,-125.33"/>
<polygon fill="#888888" stroke="#888888" points="1244.57,-127.66 1249.29,-118.18 1239.69,-122.65 1244.57,-127.66"/>
</g>
</g>
</svg>
