<?xml version="1.0" encoding="utf-8"?>
<svg xmlns="http://www.w3.org/2000/svg" xmlns:xlink="http://www.w3.org/1999/xlink" width="1000" height="400" viewBox="0 0 4000 1600">
<defs>
  <clipPath id="clip040">
    <rect x="0" y="0" width="4000" height="1600"/>
  </clipPath>
</defs>
<path clip-path="url(#clip040)" d="M0 1600 L4000 1600 L4000 0 L0 0  Z" fill="#ffffff" fill-rule="evenodd" fill-opacity="1"/>
<defs>
  <clipPath id="clip041">
    <rect x="800" y="0" width="2801" height="1600"/>
  </clipPath>
</defs>
<path clip-path="url(#clip040)" d="M203.123 1497.68 L3180.15 1497.68 L3180.15 47.2441 L203.123 47.2441  Z" fill="#ffffff" fill-rule="evenodd" fill-opacity="1"/>
<defs>
  <clipPath id="clip042">
    <rect x="203" y="47" width="2978" height="1451"/>
  </clipPath>
</defs>
<polyline clip-path="url(#clip042)" style="stroke:#000000; stroke-linecap:round; stroke-linejoin:round; stroke-width:2; stroke-opacity:0.1; fill:none" points="287.379,1497.68 287.379,47.2441 "/>
<polyline clip-path="url(#clip042)" style="stroke:#000000; stroke-linecap:round; stroke-linejoin:round; stroke-width:2; stroke-opacity:0.1; fill:none" points="1094.62,1497.68 1094.62,47.2441 "/>
<polyline clip-path="url(#clip042)" style="stroke:#000000; stroke-linecap:round; stroke-linejoin:round; stroke-width:2; stroke-opacity:0.1; fill:none" points="1901.85,1497.68 1901.85,47.2441 "/>
<polyline clip-path="url(#clip042)" style="stroke:#000000; stroke-linecap:round; stroke-linejoin:round; stroke-width:2; stroke-opacity:0.1; fill:none" points="2709.09,1497.68 2709.09,47.2441 "/>
<polyline clip-path="url(#clip040)" style="stroke:#000000; stroke-linecap:round; stroke-linejoin:round; stroke-width:4; stroke-opacity:1; fill:none" points="203.123,1497.68 3180.15,1497.68 "/>
<polyline clip-path="url(#clip040)" style="stroke:#000000; stroke-linecap:round; stroke-linejoin:round; stroke-width:4; stroke-opacity:1; fill:none" points="287.379,1497.68 287.379,1478.78 "/>
<polyline clip-path="url(#clip040)" style="stroke:#000000; stroke-linecap:round; stroke-linejoin:round; stroke-width:4; stroke-opacity:1; fill:none" points="1094.62,1497.68 1094.62,1478.78 "/>
<polyline clip-path="url(#clip040)" style="stroke:#000000; stroke-linecap:round; stroke-linejoin:round; stroke-width:4; stroke-opacity:1; fill:none" points="1901.85,1497.68 1901.85,1478.78 "/>
<polyline clip-path="url(#clip040)" style="stroke:#000000; stroke-linecap:round; stroke-linejoin:round; stroke-width:4; stroke-opacity:1; fill:none" points="2709.09,1497.68 2709.09,1478.78 "/>
<path clip-path="url(#clip040)" d="M143.018 1573.85 L161.377 1573.85 L161.377 1578.28 L136.69 1578.28 L136.69 1573.85 Q139.684 1570.75 144.841 1565.55 Q150.023 1560.31 151.351 1558.8 Q153.877 1555.96 154.867 1554.01 Q155.882 1552.03 155.882 1550.13 Q155.882 1547.03 153.695 1545.08 Q151.533 1543.12 148.044 1543.12 Q145.57 1543.12 142.809 1543.98 Q140.075 1544.84 136.95 1546.59 L136.95 1541.27 Q140.127 1540 142.887 1539.35 Q145.648 1538.7 147.94 1538.7 Q153.981 1538.7 157.575 1541.72 Q161.169 1544.74 161.169 1549.79 Q161.169 1552.19 160.257 1554.35 Q159.372 1556.48 157.002 1559.4 Q156.351 1560.15 152.861 1563.77 Q149.372 1567.37 143.018 1573.85 Z" fill="#000000" fill-rule="nonzero" fill-opacity="1" /><path clip-path="url(#clip040)" d="M183.668 1542.86 Q179.606 1542.86 177.549 1546.87 Q175.517 1550.86 175.517 1558.88 Q175.517 1566.87 177.549 1570.88 Q179.606 1574.87 183.668 1574.87 Q187.757 1574.87 189.788 1570.88 Q191.846 1566.87 191.846 1558.88 Q191.846 1550.86 189.788 1546.87 Q187.757 1542.86 183.668 1542.86 M183.668 1538.7 Q190.205 1538.7 193.642 1543.88 Q197.106 1549.04 197.106 1558.88 Q197.106 1568.7 193.642 1573.88 Q190.205 1579.04 183.668 1579.04 Q177.132 1579.04 173.669 1573.88 Q170.231 1568.7 170.231 1558.88 Q170.231 1549.04 173.669 1543.88 Q177.132 1538.7 183.668 1538.7 Z" fill="#000000" fill-rule="nonzero" fill-opacity="1" /><path clip-path="url(#clip040)" d="M210.882 1573.85 L229.241 1573.85 L229.241 1578.28 L204.554 1578.28 L204.554 1573.85 Q207.549 1570.75 212.705 1565.55 Q217.887 1560.31 219.215 1558.8 Q221.741 1555.96 222.731 1554.01 Q223.746 1552.03 223.746 1550.13 Q223.746 1547.03 221.559 1545.08 Q219.397 1543.12 215.908 1543.12 Q213.434 1543.12 210.674 1543.98 Q207.939 1544.84 204.814 1546.59 L204.814 1541.27 Q207.991 1540 210.752 1539.35 Q213.512 1538.7 215.804 1538.7 Q221.845 1538.7 225.439 1541.72 Q229.033 1544.74 229.033 1549.79 Q229.033 1552.19 228.121 1554.35 Q227.236 1556.48 224.866 1559.4 Q224.215 1560.15 220.726 1563.77 Q217.236 1567.37 210.882 1573.85 Z" fill="#000000" fill-rule="nonzero" fill-opacity="1" /><path clip-path="url(#clip040)" d="M244.814 1573.85 L263.173 1573.85 L263.173 1578.28 L238.486 1578.28 L238.486 1573.85 Q241.481 1570.75 246.637 1565.55 Q251.819 1560.31 253.147 1558.8 Q255.673 1555.96 256.663 1554.01 Q257.678 1552.03 257.678 1550.13 Q257.678 1547.03 255.491 1545.08 Q253.33 1543.12 249.84 1543.12 Q247.366 1543.12 244.606 1543.98 Q241.871 1544.84 238.746 1546.59 L238.746 1541.27 Q241.923 1540 244.684 1539.35 Q247.444 1538.7 249.736 1538.7 Q255.777 1538.7 259.371 1541.72 Q262.965 1544.74 262.965 1549.79 Q262.965 1552.19 262.053 1554.35 Q261.168 1556.48 258.798 1559.4 Q258.147 1560.15 254.658 1563.77 Q251.168 1567.37 244.814 1573.85 Z" fill="#000000" fill-rule="nonzero" fill-opacity="1" /><path clip-path="url(#clip040)" d="M271.116 1561.54 L285.152 1561.54 L285.152 1565.81 L271.116 1565.81 L271.116 1561.54 Z" fill="#000000" fill-rule="nonzero" fill-opacity="1" /><path clip-path="url(#clip040)" d="M304.709 1542.86 Q300.647 1542.86 298.59 1546.87 Q296.558 1550.86 296.558 1558.88 Q296.558 1566.87 298.59 1570.88 Q300.647 1574.87 304.709 1574.87 Q308.798 1574.87 310.829 1570.88 Q312.887 1566.87 312.887 1558.88 Q312.887 1550.86 310.829 1546.87 Q308.798 1542.86 304.709 1542.86 M304.709 1538.7 Q311.246 1538.7 314.683 1543.88 Q318.147 1549.04 318.147 1558.88 Q318.147 1568.7 314.683 1573.88 Q311.246 1579.04 304.709 1579.04 Q298.173 1579.04 294.71 1573.88 Q291.272 1568.7 291.272 1558.88 Q291.272 1549.04 294.71 1543.88 Q298.173 1538.7 304.709 1538.7 Z" fill="#000000" fill-rule="nonzero" fill-opacity="1" /><path clip-path="url(#clip040)" d="M326.064 1539.4 L351.063 1539.4 L351.063 1541.64 L336.949 1578.28 L331.454 1578.28 L344.735 1543.83 L326.064 1543.83 L326.064 1539.4 Z" fill="#000000" fill-rule="nonzero" fill-opacity="1" /><path clip-path="url(#clip040)" d="M358.225 1561.54 L372.261 1561.54 L372.261 1565.81 L358.225 1565.81 L358.225 1561.54 Z" fill="#000000" fill-rule="nonzero" fill-opacity="1" /><path clip-path="url(#clip040)" d="M385.1 1573.85 L403.459 1573.85 L403.459 1578.28 L378.772 1578.28 L378.772 1573.85 Q381.766 1570.75 386.923 1565.55 Q392.105 1560.31 393.433 1558.8 Q395.959 1555.96 396.949 1554.01 Q397.964 1552.03 397.964 1550.13 Q397.964 1547.03 395.777 1545.08 Q393.615 1543.12 390.126 1543.12 Q387.652 1543.12 384.891 1543.98 Q382.157 1544.84 379.032 1546.59 L379.032 1541.27 Q382.209 1540 384.969 1539.35 Q387.73 1538.7 390.022 1538.7 Q396.063 1538.7 399.657 1541.72 Q403.251 1544.74 403.251 1549.79 Q403.251 1552.19 402.339 1554.35 Q401.454 1556.48 399.084 1559.4 Q398.433 1560.15 394.943 1563.77 Q391.454 1567.37 385.1 1573.85 Z" fill="#000000" fill-rule="nonzero" fill-opacity="1" /><path clip-path="url(#clip040)" d="M414.553 1539.4 L435.204 1539.4 L435.204 1543.83 L419.37 1543.83 L419.37 1553.36 Q420.516 1552.97 421.662 1552.79 Q422.808 1552.58 423.954 1552.58 Q430.464 1552.58 434.266 1556.14 Q438.068 1559.71 438.068 1565.81 Q438.068 1572.08 434.162 1575.57 Q430.256 1579.04 423.146 1579.04 Q420.698 1579.04 418.146 1578.62 Q415.62 1578.2 412.912 1577.37 L412.912 1572.08 Q415.256 1573.36 417.756 1573.98 Q420.256 1574.61 423.042 1574.61 Q427.547 1574.61 430.178 1572.24 Q432.808 1569.87 432.808 1565.81 Q432.808 1561.74 430.178 1559.37 Q427.547 1557 423.042 1557 Q420.933 1557 418.823 1557.47 Q416.74 1557.94 414.553 1558.93 L414.553 1539.4 Z" fill="#000000" fill-rule="nonzero" fill-opacity="1" /><path clip-path="url(#clip040)" d="M950.204 1573.85 L968.563 1573.85 L968.563 1578.28 L943.876 1578.28 L943.876 1573.85 Q946.87 1570.75 952.027 1565.55 Q957.209 1560.31 958.537 1558.8 Q961.063 1555.96 962.053 1554.01 Q963.068 1552.03 963.068 1550.13 Q963.068 1547.03 960.881 1545.08 Q958.719 1543.12 955.23 1543.12 Q952.756 1543.12 949.995 1543.98 Q947.261 1544.84 944.136 1546.59 L944.136 1541.27 Q947.313 1540 950.073 1539.35 Q952.834 1538.7 955.125 1538.7 Q961.167 1538.7 964.761 1541.72 Q968.355 1544.74 968.355 1549.79 Q968.355 1552.19 967.443 1554.35 Q966.558 1556.48 964.188 1559.4 Q963.537 1560.15 960.047 1563.77 Q956.558 1567.37 950.204 1573.85 Z" fill="#000000" fill-rule="nonzero" fill-opacity="1" /><path clip-path="url(#clip040)" d="M990.854 1542.86 Q986.792 1542.86 984.735 1546.87 Q982.703 1550.86 982.703 1558.88 Q982.703 1566.87 984.735 1570.88 Q986.792 1574.87 990.854 1574.87 Q994.943 1574.87 996.974 1570.88 Q999.032 1566.87 999.032 1558.88 Q999.032 1550.86 996.974 1546.87 Q994.943 1542.86 990.854 1542.86 M990.854 1538.7 Q997.391 1538.7 1000.83 1543.88 Q1004.29 1549.04 1004.29 1558.88 Q1004.29 1568.7 1000.83 1573.88 Q997.391 1579.04 990.854 1579.04 Q984.318 1579.04 980.855 1573.88 Q977.417 1568.7 977.417 1558.88 Q977.417 1549.04 980.855 1543.88 Q984.318 1538.7 990.854 1538.7 Z" fill="#000000" fill-rule="nonzero" fill-opacity="1" /><path clip-path="url(#clip040)" d="M1018.07 1573.85 L1036.43 1573.85 L1036.43 1578.28 L1011.74 1578.28 L1011.74 1573.85 Q1014.73 1570.75 1019.89 1565.55 Q1025.07 1560.31 1026.4 1558.8 Q1028.93 1555.96 1029.92 1554.01 Q1030.93 1552.03 1030.93 1550.13 Q1030.93 1547.03 1028.74 1545.08 Q1026.58 1543.12 1023.09 1543.12 Q1020.62 1543.12 1017.86 1543.98 Q1015.13 1544.84 1012 1546.59 L1012 1541.27 Q1015.18 1540 1017.94 1539.35 Q1020.7 1538.7 1022.99 1538.7 Q1029.03 1538.7 1032.63 1541.72 Q1036.22 1544.74 1036.22 1549.79 Q1036.22 1552.19 1035.31 1554.35 Q1034.42 1556.48 1032.05 1559.4 Q1031.4 1560.15 1027.91 1563.77 Q1024.42 1567.37 1018.07 1573.85 Z" fill="#000000" fill-rule="nonzero" fill-opacity="1" /><path clip-path="url(#clip040)" d="M1052 1573.85 L1070.36 1573.85 L1070.36 1578.28 L1045.67 1578.28 L1045.67 1573.85 Q1048.67 1570.75 1053.82 1565.55 Q1059.01 1560.31 1060.33 1558.8 Q1062.86 1555.96 1063.85 1554.01 Q1064.86 1552.03 1064.86 1550.13 Q1064.86 1547.03 1062.68 1545.08 Q1060.52 1543.12 1057.03 1543.12 Q1054.55 1543.12 1051.79 1543.98 Q1049.06 1544.84 1045.93 1546.59 L1045.93 1541.27 Q1049.11 1540 1051.87 1539.35 Q1054.63 1538.7 1056.92 1538.7 Q1062.96 1538.7 1066.56 1541.72 Q1070.15 1544.74 1070.15 1549.79 Q1070.15 1552.19 1069.24 1554.35 Q1068.35 1556.48 1065.98 1559.4 Q1065.33 1560.15 1061.84 1563.77 Q1058.35 1567.37 1052 1573.85 Z" fill="#000000" fill-rule="nonzero" fill-opacity="1" /><path clip-path="url(#clip040)" d="M1078.3 1561.54 L1092.34 1561.54 L1092.34 1565.81 L1078.3 1565.81 L1078.3 1561.54 Z" fill="#000000" fill-rule="nonzero" fill-opacity="1" /><path clip-path="url(#clip040)" d="M1111.9 1542.86 Q1107.83 1542.86 1105.78 1546.87 Q1103.74 1550.86 1103.74 1558.88 Q1103.74 1566.87 1105.78 1570.88 Q1107.83 1574.87 1111.9 1574.87 Q1115.98 1574.87 1118.02 1570.88 Q1120.07 1566.87 1120.07 1558.88 Q1120.07 1550.86 1118.02 1546.87 Q1115.98 1542.86 1111.9 1542.86 M1111.9 1538.7 Q1118.43 1538.7 1121.87 1543.88 Q1125.33 1549.04 1125.33 1558.88 Q1125.33 1568.7 1121.87 1573.88 Q1118.43 1579.04 1111.9 1579.04 Q1105.36 1579.04 1101.9 1573.88 Q1098.46 1568.7 1098.46 1558.88 Q1098.46 1549.04 1101.9 1543.88 Q1105.36 1538.7 1111.9 1538.7 Z" fill="#000000" fill-rule="nonzero" fill-opacity="1" /><path clip-path="url(#clip040)" d="M1133.25 1539.4 L1158.25 1539.4 L1158.25 1541.64 L1144.13 1578.28 L1138.64 1578.28 L1151.92 1543.83 L1133.25 1543.83 L1133.25 1539.4 Z" fill="#000000" fill-rule="nonzero" fill-opacity="1" /><path clip-path="url(#clip040)" d="M1165.41 1561.54 L1179.45 1561.54 L1179.45 1565.81 L1165.41 1565.81 L1165.41 1561.54 Z" fill="#000000" fill-rule="nonzero" fill-opacity="1" /><path clip-path="url(#clip040)" d="M1192.29 1573.85 L1210.64 1573.85 L1210.64 1578.28 L1185.96 1578.28 L1185.96 1573.85 Q1188.95 1570.75 1194.11 1565.55 Q1199.29 1560.31 1200.62 1558.8 Q1203.14 1555.96 1204.13 1554.01 Q1205.15 1552.03 1205.15 1550.13 Q1205.15 1547.03 1202.96 1545.08 Q1200.8 1543.12 1197.31 1543.12 Q1194.84 1543.12 1192.08 1543.98 Q1189.34 1544.84 1186.22 1546.59 L1186.22 1541.27 Q1189.4 1540 1192.16 1539.35 Q1194.92 1538.7 1197.21 1538.7 Q1203.25 1538.7 1206.84 1541.72 Q1210.44 1544.74 1210.44 1549.79 Q1210.44 1552.19 1209.53 1554.35 Q1208.64 1556.48 1206.27 1559.4 Q1205.62 1560.15 1202.13 1563.77 Q1198.64 1567.37 1192.29 1573.85 Z" fill="#000000" fill-rule="nonzero" fill-opacity="1" /><path clip-path="url(#clip040)" d="M1220.36 1539.4 L1245.36 1539.4 L1245.36 1541.64 L1231.24 1578.28 L1225.75 1578.28 L1239.03 1543.83 L1220.36 1543.83 L1220.36 1539.4 Z" fill="#000000" fill-rule="nonzero" fill-opacity="1" /><path clip-path="url(#clip040)" d="M1757.04 1573.85 L1775.4 1573.85 L1775.4 1578.28 L1750.71 1578.28 L1750.71 1573.85 Q1753.7 1570.75 1758.86 1565.55 Q1764.04 1560.31 1765.37 1558.8 Q1767.9 1555.96 1768.89 1554.01 Q1769.9 1552.03 1769.9 1550.13 Q1769.9 1547.03 1767.72 1545.08 Q1765.55 1543.12 1762.06 1543.12 Q1759.59 1543.12 1756.83 1543.98 Q1754.1 1544.84 1750.97 1546.59 L1750.97 1541.27 Q1754.15 1540 1756.91 1539.35 Q1759.67 1538.7 1761.96 1538.7 Q1768 1538.7 1771.6 1541.72 Q1775.19 1544.74 1775.19 1549.79 Q1775.19 1552.19 1774.28 1554.35 Q1773.39 1556.48 1771.02 1559.4 Q1770.37 1560.15 1766.88 1563.77 Q1763.39 1567.37 1757.04 1573.85 Z" fill="#000000" fill-rule="nonzero" fill-opacity="1" /><path clip-path="url(#clip040)" d="M1797.69 1542.86 Q1793.63 1542.86 1791.57 1546.87 Q1789.54 1550.86 1789.54 1558.88 Q1789.54 1566.87 1791.57 1570.88 Q1793.63 1574.87 1797.69 1574.87 Q1801.78 1574.87 1803.81 1570.88 Q1805.87 1566.87 1805.87 1558.88 Q1805.87 1550.86 1803.81 1546.87 Q1801.78 1542.86 1797.69 1542.86 M1797.69 1538.7 Q1804.23 1538.7 1807.66 1543.88 Q1811.13 1549.04 1811.13 1558.88 Q1811.13 1568.7 1807.66 1573.88 Q1804.23 1579.04 1797.69 1579.04 Q1791.15 1579.04 1787.69 1573.88 Q1784.25 1568.7 1784.25 1558.88 Q1784.25 1549.04 1787.69 1543.88 Q1791.15 1538.7 1797.69 1538.7 Z" fill="#000000" fill-rule="nonzero" fill-opacity="1" /><path clip-path="url(#clip040)" d="M1824.9 1573.85 L1843.26 1573.85 L1843.26 1578.28 L1818.57 1578.28 L1818.57 1573.85 Q1821.57 1570.75 1826.73 1565.55 Q1831.91 1560.31 1833.24 1558.8 Q1835.76 1555.96 1836.75 1554.01 Q1837.77 1552.03 1837.77 1550.13 Q1837.77 1547.03 1835.58 1545.08 Q1833.42 1543.12 1829.93 1543.12 Q1827.45 1543.12 1824.69 1543.98 Q1821.96 1544.84 1818.83 1546.59 L1818.83 1541.27 Q1822.01 1540 1824.77 1539.35 Q1827.53 1538.7 1829.82 1538.7 Q1835.87 1538.7 1839.46 1541.72 Q1843.05 1544.74 1843.05 1549.79 Q1843.05 1552.19 1842.14 1554.35 Q1841.26 1556.48 1838.89 1559.4 Q1838.24 1560.15 1834.75 1563.77 Q1831.26 1567.37 1824.9 1573.85 Z" fill="#000000" fill-rule="nonzero" fill-opacity="1" /><path clip-path="url(#clip040)" d="M1858.83 1573.85 L1877.19 1573.85 L1877.19 1578.28 L1852.51 1578.28 L1852.51 1573.85 Q1855.5 1570.75 1860.66 1565.55 Q1865.84 1560.31 1867.17 1558.8 Q1869.69 1555.96 1870.68 1554.01 Q1871.7 1552.03 1871.7 1550.13 Q1871.7 1547.03 1869.51 1545.08 Q1867.35 1543.12 1863.86 1543.12 Q1861.39 1543.12 1858.63 1543.98 Q1855.89 1544.84 1852.77 1546.59 L1852.77 1541.27 Q1855.94 1540 1858.7 1539.35 Q1861.46 1538.7 1863.76 1538.7 Q1869.8 1538.7 1873.39 1541.72 Q1876.99 1544.74 1876.99 1549.79 Q1876.99 1552.19 1876.07 1554.35 Q1875.19 1556.48 1872.82 1559.4 Q1872.17 1560.15 1868.68 1563.77 Q1865.19 1567.37 1858.83 1573.85 Z" fill="#000000" fill-rule="nonzero" fill-opacity="1" /><path clip-path="url(#clip040)" d="M1885.14 1561.54 L1899.17 1561.54 L1899.17 1565.81 L1885.14 1565.81 L1885.14 1561.54 Z" fill="#000000" fill-rule="nonzero" fill-opacity="1" /><path clip-path="url(#clip040)" d="M1918.73 1542.86 Q1914.67 1542.86 1912.61 1546.87 Q1910.58 1550.86 1910.58 1558.88 Q1910.58 1566.87 1912.61 1570.88 Q1914.67 1574.87 1918.73 1574.87 Q1922.82 1574.87 1924.85 1570.88 Q1926.91 1566.87 1926.91 1558.88 Q1926.91 1550.86 1924.85 1546.87 Q1922.82 1542.86 1918.73 1542.86 M1918.73 1538.7 Q1925.27 1538.7 1928.7 1543.88 Q1932.17 1549.04 1932.17 1558.88 Q1932.17 1568.7 1928.7 1573.88 Q1925.27 1579.04 1918.73 1579.04 Q1912.19 1579.04 1908.73 1573.88 Q1905.29 1568.7 1905.29 1558.88 Q1905.29 1549.04 1908.73 1543.88 Q1912.19 1538.7 1918.73 1538.7 Z" fill="#000000" fill-rule="nonzero" fill-opacity="1" /><path clip-path="url(#clip040)" d="M1940.08 1539.4 L1965.08 1539.4 L1965.08 1541.64 L1950.97 1578.28 L1945.47 1578.28 L1958.76 1543.83 L1940.08 1543.83 L1940.08 1539.4 Z" fill="#000000" fill-rule="nonzero" fill-opacity="1" /><path clip-path="url(#clip040)" d="M1972.25 1561.54 L1986.28 1561.54 L1986.28 1565.81 L1972.25 1565.81 L1972.25 1561.54 Z" fill="#000000" fill-rule="nonzero" fill-opacity="1" /><path clip-path="url(#clip040)" d="M1999.12 1573.85 L2017.48 1573.85 L2017.48 1578.28 L1992.79 1578.28 L1992.79 1573.85 Q1995.79 1570.75 2000.94 1565.55 Q2006.13 1560.31 2007.45 1558.8 Q2009.98 1555.96 2010.97 1554.01 Q2011.98 1552.03 2011.98 1550.13 Q2011.98 1547.03 2009.8 1545.08 Q2007.64 1543.12 2004.15 1543.12 Q2001.67 1543.12 1998.91 1543.98 Q1996.18 1544.84 1993.05 1546.59 L1993.05 1541.27 Q1996.23 1540 1998.99 1539.35 Q2001.75 1538.7 2004.04 1538.7 Q2010.08 1538.7 2013.68 1541.72 Q2017.27 1544.74 2017.27 1549.79 Q2017.27 1552.19 2016.36 1554.35 Q2015.47 1556.48 2013.1 1559.4 Q2012.45 1560.15 2008.96 1563.77 Q2005.47 1567.37 1999.12 1573.85 Z" fill="#000000" fill-rule="nonzero" fill-opacity="1" /><path clip-path="url(#clip040)" d="M2028.68 1577.47 L2028.68 1572.68 Q2030.66 1573.62 2032.69 1574.11 Q2034.72 1574.61 2036.67 1574.61 Q2041.88 1574.61 2044.61 1571.12 Q2047.38 1567.6 2047.77 1560.47 Q2046.26 1562.71 2043.94 1563.9 Q2041.62 1565.1 2038.81 1565.1 Q2032.97 1565.1 2029.56 1561.59 Q2026.18 1558.05 2026.18 1551.93 Q2026.18 1545.94 2029.72 1542.32 Q2033.26 1538.7 2039.15 1538.7 Q2045.89 1538.7 2049.43 1543.88 Q2053 1549.04 2053 1558.88 Q2053 1568.07 2048.63 1573.57 Q2044.28 1579.04 2036.91 1579.04 Q2034.93 1579.04 2032.9 1578.64 Q2030.86 1578.25 2028.68 1577.47 M2039.15 1560.99 Q2042.69 1560.99 2044.74 1558.57 Q2046.83 1556.14 2046.83 1551.93 Q2046.83 1547.73 2044.74 1545.31 Q2042.69 1542.86 2039.15 1542.86 Q2035.6 1542.86 2033.52 1545.31 Q2031.46 1547.73 2031.46 1551.93 Q2031.46 1556.14 2033.52 1558.57 Q2035.6 1560.99 2039.15 1560.99 Z" fill="#000000" fill-rule="nonzero" fill-opacity="1" /><path clip-path="url(#clip040)" d="M2564.86 1573.85 L2583.22 1573.85 L2583.22 1578.28 L2558.53 1578.28 L2558.53 1573.85 Q2561.53 1570.75 2566.68 1565.55 Q2571.87 1560.31 2573.2 1558.8 Q2575.72 1555.96 2576.71 1554.01 Q2577.73 1552.03 2577.73 1550.13 Q2577.73 1547.03 2575.54 1545.08 Q2573.38 1543.12 2569.89 1543.12 Q2567.41 1543.12 2564.65 1543.98 Q2561.92 1544.84 2558.79 1546.59 L2558.79 1541.27 Q2561.97 1540 2564.73 1539.35 Q2567.49 1538.7 2569.78 1538.7 Q2575.83 1538.7 2579.42 1541.72 Q2583.01 1544.74 2583.01 1549.79 Q2583.01 1552.19 2582.1 1554.35 Q2581.22 1556.48 2578.85 1559.4 Q2578.2 1560.15 2574.71 1563.77 Q2571.22 1567.37 2564.86 1573.85 Z" fill="#000000" fill-rule="nonzero" fill-opacity="1" /><path clip-path="url(#clip040)" d="M2605.51 1542.86 Q2601.45 1542.86 2599.39 1546.87 Q2597.36 1550.86 2597.36 1558.88 Q2597.36 1566.87 2599.39 1570.88 Q2601.45 1574.87 2605.51 1574.87 Q2609.6 1574.87 2611.63 1570.88 Q2613.69 1566.87 2613.69 1558.88 Q2613.69 1550.86 2611.63 1546.87 Q2609.6 1542.86 2605.51 1542.86 M2605.51 1538.7 Q2612.05 1538.7 2615.49 1543.88 Q2618.95 1549.04 2618.95 1558.88 Q2618.95 1568.7 2615.49 1573.88 Q2612.05 1579.04 2605.51 1579.04 Q2598.98 1579.04 2595.51 1573.88 Q2592.08 1568.7 2592.08 1558.88 Q2592.08 1549.04 2595.51 1543.88 Q2598.98 1538.7 2605.51 1538.7 Z" fill="#000000" fill-rule="nonzero" fill-opacity="1" /><path clip-path="url(#clip040)" d="M2632.73 1573.85 L2651.09 1573.85 L2651.09 1578.28 L2626.4 1578.28 L2626.4 1573.85 Q2629.39 1570.75 2634.55 1565.55 Q2639.73 1560.31 2641.06 1558.8 Q2643.59 1555.96 2644.58 1554.01 Q2645.59 1552.03 2645.59 1550.13 Q2645.59 1547.03 2643.4 1545.08 Q2641.24 1543.12 2637.75 1543.12 Q2635.28 1543.12 2632.52 1543.98 Q2629.78 1544.84 2626.66 1546.59 L2626.66 1541.27 Q2629.84 1540 2632.6 1539.35 Q2635.36 1538.7 2637.65 1538.7 Q2643.69 1538.7 2647.28 1541.72 Q2650.88 1544.74 2650.88 1549.79 Q2650.88 1552.19 2649.97 1554.35 Q2649.08 1556.48 2646.71 1559.4 Q2646.06 1560.15 2642.57 1563.77 Q2639.08 1567.37 2632.73 1573.85 Z" fill="#000000" fill-rule="nonzero" fill-opacity="1" /><path clip-path="url(#clip040)" d="M2666.66 1573.85 L2685.02 1573.85 L2685.02 1578.28 L2660.33 1578.28 L2660.33 1573.85 Q2663.33 1570.75 2668.48 1565.55 Q2673.66 1560.31 2674.99 1558.8 Q2677.52 1555.96 2678.51 1554.01 Q2679.52 1552.03 2679.52 1550.13 Q2679.52 1547.03 2677.34 1545.08 Q2675.17 1543.12 2671.68 1543.12 Q2669.21 1543.12 2666.45 1543.98 Q2663.72 1544.84 2660.59 1546.59 L2660.59 1541.27 Q2663.77 1540 2666.53 1539.35 Q2669.29 1538.7 2671.58 1538.7 Q2677.62 1538.7 2681.22 1541.72 Q2684.81 1544.74 2684.81 1549.79 Q2684.81 1552.19 2683.9 1554.35 Q2683.01 1556.48 2680.64 1559.4 Q2679.99 1560.15 2676.5 1563.77 Q2673.01 1567.37 2666.66 1573.85 Z" fill="#000000" fill-rule="nonzero" fill-opacity="1" /><path clip-path="url(#clip040)" d="M2692.96 1561.54 L2707 1561.54 L2707 1565.81 L2692.96 1565.81 L2692.96 1561.54 Z" fill="#000000" fill-rule="nonzero" fill-opacity="1" /><path clip-path="url(#clip040)" d="M2726.55 1542.86 Q2722.49 1542.86 2720.43 1546.87 Q2718.4 1550.86 2718.4 1558.88 Q2718.4 1566.87 2720.43 1570.88 Q2722.49 1574.87 2726.55 1574.87 Q2730.64 1574.87 2732.67 1570.88 Q2734.73 1566.87 2734.73 1558.88 Q2734.73 1550.86 2732.67 1546.87 Q2730.64 1542.86 2726.55 1542.86 M2726.55 1538.7 Q2733.09 1538.7 2736.53 1543.88 Q2739.99 1549.04 2739.99 1558.88 Q2739.99 1568.7 2736.53 1573.88 Q2733.09 1579.04 2726.55 1579.04 Q2720.02 1579.04 2716.55 1573.88 Q2713.12 1568.7 2713.12 1558.88 Q2713.12 1549.04 2716.55 1543.88 Q2720.02 1538.7 2726.55 1538.7 Z" fill="#000000" fill-rule="nonzero" fill-opacity="1" /><path clip-path="url(#clip040)" d="M2747.91 1539.4 L2772.91 1539.4 L2772.91 1541.64 L2758.79 1578.28 L2753.3 1578.28 L2766.58 1543.83 L2747.91 1543.83 L2747.91 1539.4 Z" fill="#000000" fill-rule="nonzero" fill-opacity="1" /><path clip-path="url(#clip040)" d="M2780.07 1561.54 L2794.11 1561.54 L2794.11 1565.81 L2780.07 1565.81 L2780.07 1561.54 Z" fill="#000000" fill-rule="nonzero" fill-opacity="1" /><path clip-path="url(#clip040)" d="M2818.35 1557.32 Q2822.13 1558.12 2824.24 1560.68 Q2826.37 1563.23 2826.37 1566.98 Q2826.37 1572.73 2822.41 1575.88 Q2818.45 1579.04 2811.16 1579.04 Q2808.71 1579.04 2806.11 1578.54 Q2803.53 1578.07 2800.77 1577.11 L2800.77 1572.03 Q2802.96 1573.31 2805.56 1573.96 Q2808.17 1574.61 2811.01 1574.61 Q2815.95 1574.61 2818.53 1572.65 Q2821.14 1570.7 2821.14 1566.98 Q2821.14 1563.54 2818.71 1561.61 Q2816.32 1559.66 2812.02 1559.66 L2807.49 1559.66 L2807.49 1555.34 L2812.23 1555.34 Q2816.11 1555.34 2818.17 1553.8 Q2820.23 1552.24 2820.23 1549.32 Q2820.23 1546.33 2818.09 1544.74 Q2815.98 1543.12 2812.02 1543.12 Q2809.86 1543.12 2807.39 1543.59 Q2804.91 1544.06 2801.94 1545.05 L2801.94 1540.36 Q2804.94 1539.53 2807.54 1539.11 Q2810.17 1538.7 2812.49 1538.7 Q2818.48 1538.7 2821.97 1541.43 Q2825.46 1544.14 2825.46 1548.77 Q2825.46 1552 2823.61 1554.24 Q2821.76 1556.46 2818.35 1557.32 Z" fill="#000000" fill-rule="nonzero" fill-opacity="1" /><path clip-path="url(#clip040)" d="M2837.26 1573.85 L2845.85 1573.85 L2845.85 1544.19 L2836.5 1546.07 L2836.5 1541.27 L2845.8 1539.4 L2851.06 1539.4 L2851.06 1573.85 L2859.65 1573.85 L2859.65 1578.28 L2837.26 1578.28 L2837.26 1573.85 Z" fill="#000000" fill-rule="nonzero" fill-opacity="1" /><polyline clip-path="url(#clip042)" style="stroke:#000000; stroke-linecap:round; stroke-linejoin:round; stroke-width:2; stroke-opacity:0.1; fill:none" points="203.123,1365.83 3180.15,1365.83 "/>
<polyline clip-path="url(#clip042)" style="stroke:#000000; stroke-linecap:round; stroke-linejoin:round; stroke-width:2; stroke-opacity:0.1; fill:none" points="203.123,1157.26 3180.15,1157.26 "/>
<polyline clip-path="url(#clip042)" style="stroke:#000000; stroke-linecap:round; stroke-linejoin:round; stroke-width:2; stroke-opacity:0.1; fill:none" points="203.123,948.701 3180.15,948.701 "/>
<polyline clip-path="url(#clip042)" style="stroke:#000000; stroke-linecap:round; stroke-linejoin:round; stroke-width:2; stroke-opacity:0.1; fill:none" points="203.123,740.137 3180.15,740.137 "/>
<polyline clip-path="url(#clip042)" style="stroke:#000000; stroke-linecap:round; stroke-linejoin:round; stroke-width:2; stroke-opacity:0.1; fill:none" points="203.123,531.574 3180.15,531.574 "/>
<polyline clip-path="url(#clip042)" style="stroke:#000000; stroke-linecap:round; stroke-linejoin:round; stroke-width:2; stroke-opacity:0.1; fill:none" points="203.123,323.01 3180.15,323.01 "/>
<polyline clip-path="url(#clip042)" style="stroke:#000000; stroke-linecap:round; stroke-linejoin:round; stroke-width:2; stroke-opacity:0.1; fill:none" points="203.123,114.447 3180.15,114.447 "/>
<polyline clip-path="url(#clip040)" style="stroke:#000000; stroke-linecap:round; stroke-linejoin:round; stroke-width:4; stroke-opacity:1; fill:none" points="203.123,1497.68 203.123,47.2441 "/>
<polyline clip-path="url(#clip040)" style="stroke:#000000; stroke-linecap:round; stroke-linejoin:round; stroke-width:4; stroke-opacity:1; fill:none" points="203.123,1365.83 218.127,1365.83 "/>
<polyline clip-path="url(#clip040)" style="stroke:#000000; stroke-linecap:round; stroke-linejoin:round; stroke-width:4; stroke-opacity:1; fill:none" points="203.123,1157.26 218.127,1157.26 "/>
<polyline clip-path="url(#clip040)" style="stroke:#000000; stroke-linecap:round; stroke-linejoin:round; stroke-width:4; stroke-opacity:1; fill:none" points="203.123,948.701 218.127,948.701 "/>
<polyline clip-path="url(#clip040)" style="stroke:#000000; stroke-linecap:round; stroke-linejoin:round; stroke-width:4; stroke-opacity:1; fill:none" points="203.123,740.137 218.127,740.137 "/>
<polyline clip-path="url(#clip040)" style="stroke:#000000; stroke-linecap:round; stroke-linejoin:round; stroke-width:4; stroke-opacity:1; fill:none" points="203.123,531.574 218.127,531.574 "/>
<polyline clip-path="url(#clip040)" style="stroke:#000000; stroke-linecap:round; stroke-linejoin:round; stroke-width:4; stroke-opacity:1; fill:none" points="203.123,323.01 218.127,323.01 "/>
<polyline clip-path="url(#clip040)" style="stroke:#000000; stroke-linecap:round; stroke-linejoin:round; stroke-width:4; stroke-opacity:1; fill:none" points="203.123,114.447 218.127,114.447 "/>
<path clip-path="url(#clip040)" d="M130.155 1363.73 Q126.613 1363.73 124.53 1366.15 Q122.472 1368.58 122.472 1372.79 Q122.472 1376.99 124.53 1379.43 Q126.613 1381.86 130.155 1381.86 Q133.696 1381.86 135.754 1379.43 Q137.837 1376.99 137.837 1372.79 Q137.837 1368.58 135.754 1366.15 Q133.696 1363.73 130.155 1363.73 M140.597 1347.25 L140.597 1352.04 Q138.618 1351.1 136.587 1350.61 Q134.582 1350.11 132.603 1350.11 Q127.394 1350.11 124.634 1353.63 Q121.9 1357.14 121.509 1364.25 Q123.045 1361.99 125.363 1360.79 Q127.681 1359.56 130.467 1359.56 Q136.327 1359.56 139.712 1363.13 Q143.123 1366.67 143.123 1372.79 Q143.123 1378.78 139.582 1382.4 Q136.04 1386.02 130.155 1386.02 Q123.41 1386.02 119.842 1380.87 Q116.275 1375.68 116.275 1365.87 Q116.275 1356.65 120.65 1351.18 Q125.025 1345.68 132.394 1345.68 Q134.373 1345.68 136.379 1346.08 Q138.41 1346.47 140.597 1347.25 Z" fill="#000000" fill-rule="nonzero" fill-opacity="1" /><path clip-path="url(#clip040)" d="M118.124 1137.82 L143.123 1137.82 L143.123 1140.06 L129.009 1176.7 L123.514 1176.7 L136.795 1142.25 L118.124 1142.25 L118.124 1137.82 Z" fill="#000000" fill-rule="nonzero" fill-opacity="1" /><path clip-path="url(#clip040)" d="M129.79 949.677 Q126.04 949.677 123.879 951.683 Q121.743 953.688 121.743 957.203 Q121.743 960.719 123.879 962.724 Q126.04 964.729 129.79 964.729 Q133.54 964.729 135.702 962.724 Q137.863 960.693 137.863 957.203 Q137.863 953.688 135.702 951.683 Q133.566 949.677 129.79 949.677 M124.53 947.438 Q121.144 946.604 119.243 944.287 Q117.368 941.969 117.368 938.636 Q117.368 933.974 120.676 931.266 Q124.009 928.558 129.79 928.558 Q135.597 928.558 138.905 931.266 Q142.212 933.974 142.212 938.636 Q142.212 941.969 140.311 944.287 Q138.436 946.604 135.077 947.438 Q138.879 948.323 140.988 950.901 Q143.123 953.479 143.123 957.203 Q143.123 962.854 139.66 965.875 Q136.222 968.896 129.79 968.896 Q123.358 968.896 119.894 965.875 Q116.457 962.854 116.457 957.203 Q116.457 953.479 118.592 950.901 Q120.728 948.323 124.53 947.438 M122.603 939.131 Q122.603 942.151 124.478 943.844 Q126.379 945.537 129.79 945.537 Q133.176 945.537 135.077 943.844 Q137.004 942.151 137.004 939.131 Q137.004 936.11 135.077 934.417 Q133.176 932.724 129.79 932.724 Q126.379 932.724 124.478 934.417 Q122.603 936.11 122.603 939.131 Z" fill="#000000" fill-rule="nonzero" fill-opacity="1" /><path clip-path="url(#clip040)" d="M118.801 758.77 L118.801 753.978 Q120.78 754.916 122.811 755.411 Q124.842 755.905 126.795 755.905 Q132.004 755.905 134.738 752.416 Q137.498 748.9 137.889 741.765 Q136.379 744.004 134.061 745.202 Q131.743 746.4 128.931 746.4 Q123.097 746.4 119.686 742.885 Q116.301 739.343 116.301 733.223 Q116.301 727.234 119.842 723.614 Q123.384 719.994 129.269 719.994 Q136.014 719.994 139.556 725.176 Q143.123 730.333 143.123 740.176 Q143.123 749.369 138.748 754.864 Q134.399 760.332 127.03 760.332 Q125.051 760.332 123.019 759.942 Q120.988 759.551 118.801 758.77 M129.269 742.286 Q132.811 742.286 134.868 739.864 Q136.952 737.442 136.952 733.223 Q136.952 729.031 134.868 726.609 Q132.811 724.161 129.269 724.161 Q125.728 724.161 123.644 726.609 Q121.587 729.031 121.587 733.223 Q121.587 737.442 123.644 739.864 Q125.728 742.286 129.269 742.286 Z" fill="#000000" fill-rule="nonzero" fill-opacity="1" /><path clip-path="url(#clip040)" d="M85.4154 546.587 L94.0091 546.587 L94.0091 516.925 L84.6602 518.8 L84.6602 514.009 L93.957 512.134 L99.2174 512.134 L99.2174 546.587 L107.811 546.587 L107.811 551.014 L85.4154 551.014 L85.4154 546.587 Z" fill="#000000" fill-rule="nonzero" fill-opacity="1" /><path clip-path="url(#clip040)" d="M129.686 515.597 Q125.623 515.597 123.566 519.608 Q121.535 523.592 121.535 531.613 Q121.535 539.608 123.566 543.618 Q125.623 547.602 129.686 547.602 Q133.774 547.602 135.806 543.618 Q137.863 539.608 137.863 531.613 Q137.863 523.592 135.806 519.608 Q133.774 515.597 129.686 515.597 M129.686 511.431 Q136.222 511.431 139.66 516.613 Q143.123 521.769 143.123 531.613 Q143.123 541.43 139.66 546.613 Q136.222 551.769 129.686 551.769 Q123.15 551.769 119.686 546.613 Q116.249 541.43 116.249 531.613 Q116.249 521.769 119.686 516.613 Q123.15 511.431 129.686 511.431 Z" fill="#000000" fill-rule="nonzero" fill-opacity="1" /><path clip-path="url(#clip040)" d="M86.7956 338.023 L95.3893 338.023 L95.3893 308.362 L86.0404 310.237 L86.0404 305.445 L95.3372 303.57 L100.598 303.57 L100.598 338.023 L109.191 338.023 L109.191 342.45 L86.7956 342.45 L86.7956 338.023 Z" fill="#000000" fill-rule="nonzero" fill-opacity="1" /><path clip-path="url(#clip040)" d="M120.728 338.023 L129.321 338.023 L129.321 308.362 L119.972 310.237 L119.972 305.445 L129.269 303.57 L134.53 303.57 L134.53 338.023 L143.123 338.023 L143.123 342.45 L120.728 342.45 L120.728 338.023 Z" fill="#000000" fill-rule="nonzero" fill-opacity="1" /><path clip-path="url(#clip040)" d="M87.2122 129.46 L95.8059 129.46 L95.8059 99.7983 L86.457 101.673 L86.457 96.8816 L95.7538 95.0066 L101.014 95.0066 L101.014 129.46 L109.608 129.46 L109.608 133.887 L87.2122 133.887 L87.2122 129.46 Z" fill="#000000" fill-rule="nonzero" fill-opacity="1" /><path clip-path="url(#clip040)" d="M124.764 129.46 L143.123 129.46 L143.123 133.887 L118.436 133.887 L118.436 129.46 Q121.431 126.361 126.587 121.152 Q131.769 115.918 133.097 114.408 Q135.623 111.569 136.613 109.616 Q137.629 107.637 137.629 105.736 Q137.629 102.637 135.441 100.684 Q133.28 98.7306 129.79 98.7306 Q127.316 98.7306 124.556 99.5899 Q121.821 100.449 118.696 102.194 L118.696 96.8816 Q121.873 95.6056 124.634 94.9545 Q127.394 94.3035 129.686 94.3035 Q135.728 94.3035 139.321 97.3243 Q142.915 100.345 142.915 105.397 Q142.915 107.793 142.004 109.954 Q141.118 112.09 138.748 115.007 Q138.097 115.762 134.608 119.381 Q131.118 122.975 124.764 129.46 Z" fill="#000000" fill-rule="nonzero" fill-opacity="1" /><path clip-path="url(#clip040)" d="M-31.4998 930.013 L-31.4998 924.168 L11.7002 924.168 L11.7002 930.013 L-31.4998 930.013 Z" fill="#000000" fill-rule="nonzero" fill-opacity="1" /><path clip-path="url(#clip040)" d="M-7.85992 885.829 L11.7002 885.829 L11.7002 891.153 L-7.68631 891.153 Q-12.287 891.153 -14.5728 892.947 Q-16.8587 894.741 -16.8587 898.329 Q-16.8587 902.641 -14.1099 905.129 Q-11.3611 907.618 -6.61572 907.618 L11.7002 907.618 L11.7002 912.97 L-20.7071 912.97 L-20.7071 907.618 L-15.6724 907.618 Q-18.5948 905.708 -20.0416 903.133 Q-21.4883 900.528 -21.4883 897.143 Q-21.4883 891.559 -18.0161 888.694 Q-14.5728 885.829 -7.85992 885.829 Z" fill="#000000" fill-rule="nonzero" fill-opacity="1" /><path clip-path="url(#clip040)" d="M-33.3227 858.804 L-28.8957 858.804 L-28.8957 863.897 Q-28.8957 866.761 -27.7383 867.89 Q-26.5809 868.989 -23.5716 868.989 L-20.7071 868.989 L-20.7071 860.222 L-16.5694 860.222 L-16.5694 868.989 L11.7002 868.989 L11.7002 874.342 L-16.5694 874.342 L-16.5694 879.435 L-20.7071 879.435 L-20.7071 874.342 L-22.964 874.342 Q-28.3749 874.342 -30.8343 871.825 Q-33.3227 869.308 -33.3227 863.839 L-33.3227 858.804 Z" fill="#000000" fill-rule="nonzero" fill-opacity="1" /><path clip-path="url(#clip040)" d="M-33.3227 854.348 L-33.3227 849.024 L11.7002 849.024 L11.7002 854.348 L-33.3227 854.348 Z" fill="#000000" fill-rule="nonzero" fill-opacity="1" /><path clip-path="url(#clip040)" d="M-16.9745 825.326 Q-16.9745 829.609 -13.618 832.097 Q-10.2905 834.585 -4.47452 834.585 Q1.34142 834.585 4.69788 832.126 Q8.02541 829.638 8.02541 825.326 Q8.02541 821.073 4.66895 818.584 Q1.31248 816.096 -4.47452 816.096 Q-10.2326 816.096 -13.5891 818.584 Q-16.9745 821.073 -16.9745 825.326 M-21.4883 825.326 Q-21.4883 818.382 -16.9745 814.418 Q-12.4606 810.454 -4.47452 810.454 Q3.48261 810.454 8.02541 814.418 Q12.5393 818.382 12.5393 825.326 Q12.5393 832.3 8.02541 836.264 Q3.48261 840.199 -4.47452 840.199 Q-12.4606 840.199 -16.9745 836.264 Q-21.4883 832.3 -21.4883 825.326 Z" fill="#000000" fill-rule="nonzero" fill-opacity="1" /><path clip-path="url(#clip040)" d="M-20.7071 804.725 L-20.7071 799.4 L4.58214 792.745 L-20.7071 786.119 L-20.7071 779.84 L4.58214 773.185 L-20.7071 766.559 L-20.7071 761.235 L11.7002 769.713 L11.7002 775.992 L-14.8622 782.965 L11.7002 789.968 L11.7002 796.247 L-20.7071 804.725 Z" fill="#000000" fill-rule="nonzero" fill-opacity="1" /><path clip-path="url(#clip040)" d="M-33.3227 734.818 L-33.3227 722.549 L-29.185 722.549 L-29.185 729.493 L15.3749 729.493 L15.3749 722.549 L19.5126 722.549 L19.5126 734.818 L-33.3227 734.818 Z" fill="#000000" fill-rule="nonzero" fill-opacity="1" /><path clip-path="url(#clip040)" d="M-31.4998 710.975 L-31.4998 705.13 L6.7812 705.13 L6.7812 684.094 L11.7002 684.094 L11.7002 710.975 L-31.4998 710.975 Z" fill="#000000" fill-rule="nonzero" fill-opacity="1" /><path clip-path="url(#clip040)" d="M-31.4998 668.73 L-31.4998 663.811 L17.1978 678.857 L17.1978 683.776 L-31.4998 668.73 Z" fill="#000000" fill-rule="nonzero" fill-opacity="1" /><path clip-path="url(#clip040)" d="M-19.7522 637.567 L-14.7175 637.567 Q-15.8749 639.824 -16.4536 642.254 Q-17.0323 644.685 -17.0323 647.289 Q-17.0323 651.253 -15.8171 653.25 Q-14.6018 655.217 -12.1712 655.217 Q-10.3194 655.217 -9.2488 653.799 Q-8.20714 652.382 -7.25229 648.099 L-6.8472 646.276 Q-5.63193 640.605 -3.40393 638.232 Q-1.20487 635.831 2.75923 635.831 Q7.2731 635.831 9.90619 639.419 Q12.5393 642.978 12.5393 649.228 Q12.5393 651.832 12.0184 654.667 Q11.5265 657.474 10.5138 660.599 L5.01617 660.599 Q6.54972 657.648 7.33097 654.783 Q8.08328 651.919 8.08328 649.112 Q8.08328 645.35 6.81014 643.325 Q5.50806 641.299 3.16432 641.299 Q0.994196 641.299 -0.163205 642.775 Q-1.32061 644.222 -2.3912 649.17 L-2.82523 651.022 Q-3.86689 655.97 -6.00808 658.169 Q-8.17821 660.368 -11.9398 660.368 Q-16.5115 660.368 -18.9999 657.127 Q-21.4883 653.886 -21.4883 647.926 Q-21.4883 644.974 -21.0543 642.37 Q-20.6203 639.766 -19.7522 637.567 Z" fill="#000000" fill-rule="nonzero" fill-opacity="1" /><path clip-path="url(#clip040)" d="M-33.3227 614.911 L19.5126 614.911 L19.5126 627.179 L15.3749 627.179 L15.3749 620.264 L-29.185 620.264 L-29.185 627.179 L-33.3227 627.179 L-33.3227 614.911 Z" fill="#000000" fill-rule="nonzero" fill-opacity="1" /><polyline clip-path="url(#clip042)" style="stroke:#023eff; stroke-linecap:round; stroke-linejoin:round; stroke-width:5; stroke-opacity:1; fill:none" points="287.379,1229.27 304.196,1456.63 321.014,1443.66 337.831,1443.66 354.649,1443.66 371.466,1443.66 388.284,1287.78 405.101,395.726 421.919,1197.96 438.736,395.726 455.553,395.726 472.371,395.726 489.188,841.97 506.006,841.97 522.823,841.97 539.641,1197.96 556.458,841.97 573.276,1197.96 590.093,841.97 606.911,841.97 623.728,841.97 640.546,841.97 657.363,841.97 674.18,1396.56 690.998,1418.61 707.815,1342.43 724.633,1342.43 741.45,1342.43 758.268,1342.43 775.085,1342.43 791.903,1046.92 808.72,859.254 825.538,570.905 842.355,1053.41 859.172,865.336 875.99,859.254 892.807,865.336 909.625,1016.01 926.442,865.336 943.26,865.336 960.077,865.336 976.895,570.905 993.712,570.905 1010.53,570.905 1027.35,570.905 1044.16,570.905 1060.98,570.905 1077.8,865.336 1094.62,1342.43 1111.43,1418.61 1128.25,1342.43 1145.07,1342.43 1161.89,1342.43 1178.7,1418.61 1195.52,1046.92 1212.34,570.905 1229.16,865.336 1245.97,865.336 1262.79,865.336 1279.61,1016.01 1296.43,865.336 1313.24,570.905 1330.06,865.336 1346.88,865.336 1363.7,865.336 1380.51,570.905 1397.33,570.905 1414.15,570.905 1430.97,570.905 1447.78,865.336 1464.6,1016.01 1481.42,1016.01 1498.24,1342.43 1515.05,1418.61 1531.87,1418.61 1548.69,1342.43 1565.51,1418.61 1582.32,1342.43 1599.14,865.336 1615.96,570.905 1632.78,865.336 1649.59,865.336 1666.41,865.336 1683.23,865.336 1700.05,1016.01 1716.86,865.336 1733.68,865.336 1750.5,865.336 1767.32,865.336 1784.13,865.336 1800.95,865.336 1817.77,1016.01 1834.59,859.254 1851.4,865.336 1868.22,1016.01 1885.04,1016.01 1901.85,1418.61 1918.67,1342.43 1935.49,1418.61 1952.31,1418.61 1969.12,1342.43 1985.94,1342.43 2002.76,865.336 2019.58,570.905 2036.39,570.905 2053.21,1046.92 2070.03,859.254 2086.85,1016.01 2103.66,859.254 2120.48,859.254 2137.3,1016.01 2154.12,865.336 2170.93,865.336 2187.75,570.905 2204.57,865.336 2221.39,865.336 2238.2,865.336 2255.02,865.336 2271.84,1016.01 2288.66,1016.01 2305.47,1342.43 2322.29,1418.61 2339.11,1418.61 2355.93,1418.61 2372.74,1418.61 2389.56,1418.61 2406.38,1053.41 2423.2,1053.41 2440.01,859.254 2456.83,859.254 2473.65,865.336 2490.47,859.254 2507.28,865.336 2524.1,1016.01 2540.92,865.336 2557.74,1016.01 2574.55,1016.01 2591.37,865.336 2608.19,570.905 2625.01,865.336 2641.82,865.336 2658.64,1016.01 2675.46,1016.01 2692.28,1016.01 2709.09,1418.61 2725.91,1418.61 2742.73,1418.61 2759.55,1418.61 2776.36,1418.61 2793.18,1418.61 2810,1079.23 2826.82,1046.92 2843.63,1046.92 2860.45,865.336 2877.27,865.336 2894.09,859.254 2910.9,865.336 2927.72,865.336 2944.54,865.336 2961.35,1016.01 2978.17,1016.01 2994.99,1016.01 3011.81,1016.01 3028.62,865.336 3045.44,859.254 3062.26,865.336 3079.08,570.905 3095.89,1016.01 "/>
<polyline clip-path="url(#clip042)" style="stroke:#ff7c00; stroke-linecap:round; stroke-linejoin:round; stroke-width:5; stroke-opacity:1; fill:none" points="287.379,1155.73 304.196,1296.03 321.014,1296.03 337.831,1296.03 354.649,1296.03 371.466,1296.03 388.284,763.432 405.101,88.2942 421.919,643.575 438.736,643.575 455.553,533.858 472.371,643.575 489.188,843.852 506.006,843.852 522.823,843.852 539.641,843.852 556.458,843.852 573.276,843.852 590.093,843.852 606.911,843.852 623.728,843.852 640.546,843.852 657.363,1056.69 674.18,1056.69 690.998,1326.17 707.815,1326.17 724.633,1326.17 741.45,1326.17 758.268,1326.17 775.085,1326.17 791.903,840.29 808.72,625.01 825.538,619.617 842.355,840.29 859.172,840.29 875.99,705.999 892.807,840.29 909.625,840.29 926.442,840.29 943.26,840.29 960.077,840.29 976.895,625.01 993.712,222.418 1010.53,222.418 1027.35,222.418 1044.16,222.418 1060.98,222.418 1077.8,1206.44 1094.62,1326.17 1111.43,1326.17 1128.25,1326.17 1145.07,1326.17 1161.89,1326.17 1178.7,1326.17 1195.52,840.29 1212.34,705.999 1229.16,840.29 1245.97,840.29 1262.79,840.29 1279.61,840.29 1296.43,840.29 1313.24,821.403 1330.06,840.29 1346.88,840.29 1363.7,840.29 1380.51,821.403 1397.33,821.403 1414.15,821.403 1430.97,625.01 1447.78,840.29 1464.6,1206.44 1481.42,1206.44 1498.24,1326.17 1515.05,1326.17 1531.87,1326.17 1548.69,1326.17 1565.51,1326.17 1582.32,1326.17 1599.14,840.29 1615.96,705.999 1632.78,840.29 1649.59,840.29 1666.41,840.29 1683.23,840.29 1700.05,840.29 1716.86,840.29 1733.68,840.29 1750.5,840.29 1767.32,840.29 1784.13,840.29 1800.95,840.29 1817.77,840.29 1834.59,821.403 1851.4,840.29 1868.22,991.903 1885.04,991.903 1901.85,1326.17 1918.67,1326.17 1935.49,1326.17 1952.31,1326.17 1969.12,1326.17 1985.94,1326.17 2002.76,840.29 2019.58,420.263 2036.39,619.617 2053.21,840.29 2070.03,705.999 2086.85,840.29 2103.66,821.403 2120.48,625.01 2137.3,840.29 2154.12,840.29 2170.93,840.29 2187.75,821.403 2204.57,840.29 2221.39,840.29 2238.2,840.29 2255.02,840.29 2271.84,991.903 2288.66,991.903 2305.47,1326.17 2322.29,1326.17 2339.11,1326.17 2355.93,1326.17 2372.74,1326.17 2389.56,1326.17 2406.38,840.29 2423.2,840.29 2440.01,705.999 2456.83,625.01 2473.65,840.29 2490.47,705.999 2507.28,840.29 2524.1,840.29 2540.92,840.29 2557.74,840.29 2574.55,840.29 2591.37,840.29 2608.19,821.403 2625.01,840.29 2641.82,840.29 2658.64,840.29 2675.46,991.903 2692.28,1206.44 2709.09,1326.17 2725.91,1326.17 2742.73,1326.17 2759.55,1326.17 2776.36,1326.17 2793.18,1326.17 2810,840.29 2826.82,840.29 2843.63,840.29 2860.45,840.29 2877.27,840.29 2894.09,705.999 2910.9,840.29 2927.72,840.29 2944.54,840.29 2961.35,840.29 2978.17,840.29 2994.99,840.29 3011.81,840.29 3028.62,840.29 3045.44,821.403 3062.26,840.29 3079.08,991.903 3095.89,991.903 "/>
<polyline clip-path="url(#clip042)" style="stroke:#1ac938; stroke-linecap:round; stroke-linejoin:round; stroke-width:5; stroke-opacity:1; fill:none" points="287.379,1312.69 304.196,1312.69 321.014,1312.69 337.831,1312.69 354.649,1312.69 371.466,1312.69 388.284,842.704 405.101,404.128 421.919,404.128 438.736,669.071 455.553,669.071 472.371,669.071 489.188,842.704 506.006,842.704 522.823,842.704 539.641,842.704 556.458,842.704 573.276,842.704 590.093,842.704 606.911,842.704 623.728,842.704 640.546,842.704 657.363,1098.83 674.18,1098.83 690.998,1312.69 707.815,1312.69 724.633,1312.69 741.45,1312.69 758.268,1312.69 775.085,1312.69 791.903,842.704 808.72,594.95 825.538,594.95 842.355,842.704 859.172,842.704 875.99,594.95 892.807,842.704 909.625,842.704 926.442,842.704 943.26,842.704 960.077,842.704 976.895,594.95 993.712,594.95 1010.53,594.95 1027.35,594.95 1044.16,594.95 1060.98,594.95 1077.8,1098.83 1094.62,1312.69 1111.43,1312.69 1128.25,1312.69 1145.07,1312.69 1161.89,1312.69 1178.7,1312.69 1195.52,842.704 1212.34,594.95 1229.16,842.704 1245.97,842.704 1262.79,842.704 1279.61,842.704 1296.43,842.704 1313.24,594.95 1330.06,842.704 1346.88,842.704 1363.7,842.704 1380.51,594.95 1397.33,594.95 1414.15,594.95 1430.97,594.95 1447.78,842.704 1464.6,1098.83 1481.42,1098.83 1498.24,1312.69 1515.05,1312.69 1531.87,1312.69 1548.69,1312.69 1565.51,1312.69 1582.32,1312.69 1599.14,842.704 1615.96,594.95 1632.78,842.704 1649.59,842.704 1666.41,842.704 1683.23,842.704 1700.05,842.704 1716.86,842.704 1733.68,842.704 1750.5,842.704 1767.32,842.704 1784.13,842.704 1800.95,842.704 1817.77,842.704 1834.59,594.95 1851.4,842.704 1868.22,1098.83 1885.04,1098.83 1901.85,1312.69 1918.67,1312.69 1935.49,1312.69 1952.31,1312.69 1969.12,1312.69 1985.94,1312.69 2002.76,842.704 2019.58,594.95 2036.39,594.95 2053.21,842.704 2070.03,594.95 2086.85,842.704 2103.66,594.95 2120.48,594.95 2137.3,842.704 2154.12,842.704 2170.93,842.704 2187.75,594.95 2204.57,842.704 2221.39,842.704 2238.2,842.704 2255.02,842.704 2271.84,1098.83 2288.66,1098.83 2305.47,1312.69 2322.29,1312.69 2339.11,1312.69 2355.93,1312.69 2372.74,1312.69 2389.56,1312.69 2406.38,842.704 2423.2,842.704 2440.01,594.95 2456.83,594.95 2473.65,842.704 2490.47,594.95 2507.28,842.704 2524.1,842.704 2540.92,842.704 2557.74,842.704 2574.55,842.704 2591.37,842.704 2608.19,594.95 2625.01,842.704 2641.82,842.704 2658.64,842.704 2675.46,1098.83 2692.28,1098.83 2709.09,1312.69 2725.91,1312.69 2742.73,1312.69 2759.55,1312.69 2776.36,1312.69 2793.18,1312.69 2810,842.704 2826.82,842.704 2843.63,842.704 2860.45,842.704 2877.27,842.704 2894.09,594.95 2910.9,842.704 2927.72,842.704 2944.54,842.704 2961.35,842.704 2978.17,842.704 2994.99,842.704 3011.81,842.704 3028.62,842.704 3045.44,594.95 3062.26,842.704 3079.08,594.95 3095.89,1098.83 "/>
<polyline clip-path="url(#clip042)" style="stroke:#e8000b; stroke-linecap:round; stroke-linejoin:round; stroke-width:5; stroke-opacity:1; fill:none" points="287.379,1335.88 304.196,1335.88 321.014,1335.88 337.831,1335.88 354.649,1335.88 371.466,1335.88 388.284,921.427 405.101,718.814 421.919,718.814 438.736,718.814 455.553,718.814 472.371,718.814 489.188,718.814 506.006,718.814 522.823,718.814 539.641,921.427 556.458,921.427 573.276,718.814 590.093,718.814 606.911,921.427 623.728,921.427 640.546,921.427 657.363,921.427 674.18,921.427 690.998,1335.88 707.815,1335.88 724.633,1335.88 741.45,1335.88 758.268,1335.88 775.085,1335.88 791.903,921.427 808.72,718.814 825.538,221.708 842.355,718.814 859.172,921.427 875.99,221.708 892.807,718.814 909.625,921.427 926.442,718.814 943.26,921.427 960.077,718.814 976.895,718.814 993.712,221.708 1010.53,221.708 1027.35,221.708 1044.16,221.708 1060.98,221.708 1077.8,921.427 1094.62,1335.88 1111.43,1335.88 1128.25,1335.88 1145.07,1335.88 1161.89,1335.88 1178.7,1335.88 1195.52,921.427 1212.34,718.814 1229.16,718.814 1245.97,718.814 1262.79,921.427 1279.61,921.427 1296.43,921.427 1313.24,718.814 1330.06,718.814 1346.88,718.814 1363.7,718.814 1380.51,718.814 1397.33,718.814 1414.15,221.708 1430.97,718.814 1447.78,718.814 1464.6,921.427 1481.42,921.427 1498.24,1335.88 1515.05,1335.88 1531.87,1335.88 1548.69,1335.88 1565.51,1335.88 1582.32,1335.88 1599.14,718.814 1615.96,718.814 1632.78,718.814 1649.59,921.427 1666.41,718.814 1683.23,718.814 1700.05,921.427 1716.86,718.814 1733.68,921.427 1750.5,718.814 1767.32,718.814 1784.13,921.427 1800.95,718.814 1817.77,921.427 1834.59,718.814 1851.4,921.427 1868.22,921.427 1885.04,921.427 1901.85,1335.88 1918.67,1335.88 1935.49,1335.88 1952.31,1335.88 1969.12,1335.88 1985.94,1335.88 2002.76,718.814 2019.58,718.814 2036.39,221.708 2053.21,921.427 2070.03,221.708 2086.85,921.427 2103.66,718.814 2120.48,718.814 2137.3,921.427 2154.12,718.814 2170.93,718.814 2187.75,718.814 2204.57,921.427 2221.39,718.814 2238.2,718.814 2255.02,921.427 2271.84,921.427 2288.66,921.427 2305.47,1335.88 2322.29,1335.88 2339.11,1335.88 2355.93,1335.88 2372.74,1335.88 2389.56,1335.88 2406.38,718.814 2423.2,718.814 2440.01,718.814 2456.83,718.814 2473.65,718.814 2490.47,718.814 2507.28,921.427 2524.1,921.427 2540.92,718.814 2557.74,921.427 2574.55,921.427 2591.37,921.427 2608.19,718.814 2625.01,921.427 2641.82,921.427 2658.64,921.427 2675.46,921.427 2692.28,921.427 2709.09,1335.88 2725.91,1335.88 2742.73,1335.88 2759.55,1335.88 2776.36,1335.88 2793.18,1335.88 2810,921.427 2826.82,921.427 2843.63,921.427 2860.45,921.427 2877.27,718.814 2894.09,718.814 2910.9,718.814 2927.72,718.814 2944.54,718.814 2961.35,921.427 2978.17,921.427 2994.99,921.427 3011.81,921.427 3028.62,921.427 3045.44,718.814 3062.26,921.427 3079.08,718.814 3095.89,921.427 "/>
<path clip-path="url(#clip040)" d="M3305.14 445.512 L3952.76 445.512 L3952.76 95.592 L3305.14 95.592  Z" fill="#ffffff" fill-rule="evenodd" fill-opacity="1"/>
<polyline clip-path="url(#clip040)" style="stroke:#000000; stroke-linecap:round; stroke-linejoin:round; stroke-width:4; stroke-opacity:1; fill:none" points="3305.14,445.512 3952.76,445.512 3952.76,95.592 3305.14,95.592 3305.14,445.512 "/>
<polyline clip-path="url(#clip040)" style="stroke:#023eff; stroke-linecap:round; stroke-linejoin:round; stroke-width:5.625; stroke-opacity:1; fill:none" points="3346.8,153.912 3596.78,153.912 "/>
<path clip-path="url(#clip040)" d="M3643.26 168.977 L3643.26 184.446 L3638.44 184.446 L3638.44 144.185 L3643.26 144.185 L3643.26 148.613 Q3644.77 146.008 3647.06 144.758 Q3649.38 143.482 3652.58 143.482 Q3657.89 143.482 3661.2 147.701 Q3664.53 151.92 3664.53 158.795 Q3664.53 165.67 3661.2 169.888 Q3657.89 174.107 3652.58 174.107 Q3649.38 174.107 3647.06 172.857 Q3644.77 171.581 3643.26 168.977 M3659.56 158.795 Q3659.56 153.508 3657.37 150.514 Q3655.21 147.493 3651.41 147.493 Q3647.61 147.493 3645.42 150.514 Q3643.26 153.508 3643.26 158.795 Q3643.26 164.081 3645.42 167.102 Q3647.61 170.097 3651.41 170.097 Q3655.21 170.097 3657.37 167.102 Q3659.56 164.081 3659.56 158.795 Z" fill="#000000" fill-rule="nonzero" fill-opacity="1" /><path clip-path="url(#clip040)" d="M3689.38 148.665 Q3688.57 148.196 3687.6 147.988 Q3686.67 147.753 3685.52 147.753 Q3681.46 147.753 3679.27 150.409 Q3677.11 153.04 3677.11 157.987 L3677.11 173.352 L3672.29 173.352 L3672.29 144.185 L3677.11 144.185 L3677.11 148.717 Q3678.62 146.06 3681.04 144.784 Q3683.46 143.482 3686.93 143.482 Q3687.42 143.482 3688.02 143.56 Q3688.62 143.613 3689.35 143.743 L3689.38 148.665 Z" fill="#000000" fill-rule="nonzero" fill-opacity="1" /><path clip-path="url(#clip040)" d="M3718.18 157.571 L3718.18 159.915 L3696.15 159.915 Q3696.46 164.862 3699.12 167.467 Q3701.8 170.045 3706.56 170.045 Q3709.32 170.045 3711.9 169.368 Q3714.51 168.691 3717.06 167.336 L3717.06 171.868 Q3714.48 172.961 3711.77 173.534 Q3709.06 174.107 3706.28 174.107 Q3699.3 174.107 3695.21 170.045 Q3691.15 165.982 3691.15 159.055 Q3691.15 151.894 3695 147.701 Q3698.88 143.482 3705.44 143.482 Q3711.33 143.482 3714.74 147.284 Q3718.18 151.06 3718.18 157.571 M3713.39 156.165 Q3713.33 152.232 3711.17 149.889 Q3709.04 147.545 3705.5 147.545 Q3701.49 147.545 3699.06 149.81 Q3696.67 152.076 3696.3 156.191 L3713.39 156.165 Z" fill="#000000" fill-rule="nonzero" fill-opacity="1" /><path clip-path="url(#clip040)" d="M3745.23 148.613 L3745.23 132.831 L3750.03 132.831 L3750.03 173.352 L3745.23 173.352 L3745.23 168.977 Q3743.72 171.581 3741.41 172.857 Q3739.12 174.107 3735.89 174.107 Q3730.6 174.107 3727.27 169.888 Q3723.96 165.67 3723.96 158.795 Q3723.96 151.92 3727.27 147.701 Q3730.6 143.482 3735.89 143.482 Q3739.12 143.482 3741.41 144.758 Q3743.72 146.008 3745.23 148.613 M3728.91 158.795 Q3728.91 164.081 3731.07 167.102 Q3733.26 170.097 3737.06 170.097 Q3740.86 170.097 3743.05 167.102 Q3745.23 164.081 3745.23 158.795 Q3745.23 153.508 3743.05 150.514 Q3740.86 147.493 3737.06 147.493 Q3733.26 147.493 3731.07 150.514 Q3728.91 153.508 3728.91 158.795 Z" fill="#000000" fill-rule="nonzero" fill-opacity="1" /><path clip-path="url(#clip040)" d="M3759.9 144.185 L3764.69 144.185 L3764.69 173.352 L3759.9 173.352 L3759.9 144.185 M3759.9 132.831 L3764.69 132.831 L3764.69 138.899 L3759.9 138.899 L3759.9 132.831 Z" fill="#000000" fill-rule="nonzero" fill-opacity="1" /><path clip-path="url(#clip040)" d="M3795.7 145.305 L3795.7 149.784 Q3793.67 148.665 3791.61 148.118 Q3789.58 147.545 3787.5 147.545 Q3782.84 147.545 3780.26 150.514 Q3777.68 153.456 3777.68 158.795 Q3777.68 164.133 3780.26 167.102 Q3782.84 170.045 3787.5 170.045 Q3789.58 170.045 3791.61 169.498 Q3793.67 168.925 3795.7 167.805 L3795.7 172.232 Q3793.7 173.17 3791.54 173.638 Q3789.4 174.107 3786.98 174.107 Q3780.39 174.107 3776.51 169.967 Q3772.63 165.826 3772.63 158.795 Q3772.63 151.659 3776.54 147.571 Q3780.47 143.482 3787.29 143.482 Q3789.51 143.482 3791.61 143.951 Q3793.72 144.394 3795.7 145.305 Z" fill="#000000" fill-rule="nonzero" fill-opacity="1" /><path clip-path="url(#clip040)" d="M3808.78 135.904 L3808.78 144.185 L3818.65 144.185 L3818.65 147.909 L3808.78 147.909 L3808.78 163.743 Q3808.78 167.31 3809.74 168.326 Q3810.73 169.342 3813.72 169.342 L3818.65 169.342 L3818.65 173.352 L3813.72 173.352 Q3808.18 173.352 3806.07 171.295 Q3803.96 169.211 3803.96 163.743 L3803.96 147.909 L3800.44 147.909 L3800.44 144.185 L3803.96 144.185 L3803.96 135.904 L3808.78 135.904 Z" fill="#000000" fill-rule="nonzero" fill-opacity="1" /><path clip-path="url(#clip040)" d="M3847.11 182.206 L3847.11 185.93 L3819.4 185.93 L3819.4 182.206 L3847.11 182.206 Z" fill="#000000" fill-rule="nonzero" fill-opacity="1" /><path clip-path="url(#clip040)" d="M3852.34 134.472 L3872.99 134.472 L3872.99 138.899 L3857.16 138.899 L3857.16 148.43 Q3858.31 148.04 3859.45 147.857 Q3860.6 147.649 3861.74 147.649 Q3868.26 147.649 3872.06 151.217 Q3875.86 154.784 3875.86 160.878 Q3875.86 167.154 3871.95 170.644 Q3868.05 174.107 3860.94 174.107 Q3858.49 174.107 3855.94 173.69 Q3853.41 173.274 3850.7 172.441 L3850.7 167.154 Q3853.05 168.43 3855.55 169.055 Q3858.05 169.68 3860.83 169.68 Q3865.34 169.68 3867.97 167.31 Q3870.6 164.941 3870.6 160.878 Q3870.6 156.816 3867.97 154.446 Q3865.34 152.076 3860.83 152.076 Q3858.72 152.076 3856.61 152.545 Q3854.53 153.014 3852.34 154.003 L3852.34 134.472 Z" fill="#000000" fill-rule="nonzero" fill-opacity="1" /><path clip-path="url(#clip040)" d="M3890.75 168.925 L3909.11 168.925 L3909.11 173.352 L3884.43 173.352 L3884.43 168.925 Q3887.42 165.826 3892.58 160.618 Q3897.76 155.383 3899.09 153.873 Q3901.61 151.034 3902.6 149.081 Q3903.62 147.102 3903.62 145.201 Q3903.62 142.102 3901.43 140.149 Q3899.27 138.196 3895.78 138.196 Q3893.31 138.196 3890.55 139.055 Q3887.81 139.915 3884.69 141.659 L3884.69 136.347 Q3887.86 135.071 3890.62 134.42 Q3893.39 133.769 3895.68 133.769 Q3901.72 133.769 3905.31 136.79 Q3908.91 139.81 3908.91 144.863 Q3908.91 147.258 3907.99 149.42 Q3907.11 151.555 3904.74 154.472 Q3904.09 155.227 3900.6 158.847 Q3897.11 162.441 3890.75 168.925 Z" fill="#000000" fill-rule="nonzero" fill-opacity="1" /><polyline clip-path="url(#clip040)" style="stroke:#ff7c00; stroke-linecap:round; stroke-linejoin:round; stroke-width:5.625; stroke-opacity:1; fill:none" points="3346.8,212.232 3596.78,212.232 "/>
<path clip-path="url(#clip040)" d="M3643.26 227.297 L3643.26 242.766 L3638.44 242.766 L3638.44 202.505 L3643.26 202.505 L3643.26 206.933 Q3644.77 204.328 3647.06 203.078 Q3649.38 201.802 3652.58 201.802 Q3657.89 201.802 3661.2 206.021 Q3664.53 210.24 3664.53 217.115 Q3664.53 223.99 3661.2 228.208 Q3657.89 232.427 3652.58 232.427 Q3649.38 232.427 3647.06 231.177 Q3644.77 229.901 3643.26 227.297 M3659.56 217.115 Q3659.56 211.828 3657.37 208.834 Q3655.21 205.813 3651.41 205.813 Q3647.61 205.813 3645.42 208.834 Q3643.26 211.828 3643.26 217.115 Q3643.26 222.401 3645.42 225.422 Q3647.61 228.417 3651.41 228.417 Q3655.21 228.417 3657.37 225.422 Q3659.56 222.401 3659.56 217.115 Z" fill="#000000" fill-rule="nonzero" fill-opacity="1" /><path clip-path="url(#clip040)" d="M3689.38 206.985 Q3688.57 206.516 3687.6 206.308 Q3686.67 206.073 3685.52 206.073 Q3681.46 206.073 3679.27 208.729 Q3677.11 211.36 3677.11 216.307 L3677.11 231.672 L3672.29 231.672 L3672.29 202.505 L3677.11 202.505 L3677.11 207.037 Q3678.62 204.38 3681.04 203.104 Q3683.46 201.802 3686.93 201.802 Q3687.42 201.802 3688.02 201.88 Q3688.62 201.933 3689.35 202.063 L3689.38 206.985 Z" fill="#000000" fill-rule="nonzero" fill-opacity="1" /><path clip-path="url(#clip040)" d="M3718.18 215.891 L3718.18 218.235 L3696.15 218.235 Q3696.46 223.182 3699.12 225.787 Q3701.8 228.365 3706.56 228.365 Q3709.32 228.365 3711.9 227.688 Q3714.51 227.011 3717.06 225.656 L3717.06 230.188 Q3714.48 231.281 3711.77 231.854 Q3709.06 232.427 3706.28 232.427 Q3699.3 232.427 3695.21 228.365 Q3691.15 224.302 3691.15 217.375 Q3691.15 210.214 3695 206.021 Q3698.88 201.802 3705.44 201.802 Q3711.33 201.802 3714.74 205.604 Q3718.18 209.38 3718.18 215.891 M3713.39 214.485 Q3713.33 210.552 3711.17 208.209 Q3709.04 205.865 3705.5 205.865 Q3701.49 205.865 3699.06 208.13 Q3696.67 210.396 3696.3 214.511 L3713.39 214.485 Z" fill="#000000" fill-rule="nonzero" fill-opacity="1" /><path clip-path="url(#clip040)" d="M3745.23 206.933 L3745.23 191.151 L3750.03 191.151 L3750.03 231.672 L3745.23 231.672 L3745.23 227.297 Q3743.72 229.901 3741.41 231.177 Q3739.12 232.427 3735.89 232.427 Q3730.6 232.427 3727.27 228.208 Q3723.96 223.99 3723.96 217.115 Q3723.96 210.24 3727.27 206.021 Q3730.6 201.802 3735.89 201.802 Q3739.12 201.802 3741.41 203.078 Q3743.72 204.328 3745.23 206.933 M3728.91 217.115 Q3728.91 222.401 3731.07 225.422 Q3733.26 228.417 3737.06 228.417 Q3740.86 228.417 3743.05 225.422 Q3745.23 222.401 3745.23 217.115 Q3745.23 211.828 3743.05 208.834 Q3740.86 205.813 3737.06 205.813 Q3733.26 205.813 3731.07 208.834 Q3728.91 211.828 3728.91 217.115 Z" fill="#000000" fill-rule="nonzero" fill-opacity="1" /><path clip-path="url(#clip040)" d="M3759.9 202.505 L3764.69 202.505 L3764.69 231.672 L3759.9 231.672 L3759.9 202.505 M3759.9 191.151 L3764.69 191.151 L3764.69 197.219 L3759.9 197.219 L3759.9 191.151 Z" fill="#000000" fill-rule="nonzero" fill-opacity="1" /><path clip-path="url(#clip040)" d="M3795.7 203.625 L3795.7 208.104 Q3793.67 206.985 3791.61 206.438 Q3789.58 205.865 3787.5 205.865 Q3782.84 205.865 3780.26 208.834 Q3777.68 211.776 3777.68 217.115 Q3777.68 222.453 3780.26 225.422 Q3782.84 228.365 3787.5 228.365 Q3789.58 228.365 3791.61 227.818 Q3793.67 227.245 3795.7 226.125 L3795.7 230.552 Q3793.7 231.49 3791.54 231.958 Q3789.4 232.427 3786.98 232.427 Q3780.39 232.427 3776.51 228.287 Q3772.63 224.146 3772.63 217.115 Q3772.63 209.979 3776.54 205.891 Q3780.47 201.802 3787.29 201.802 Q3789.51 201.802 3791.61 202.271 Q3793.72 202.714 3795.7 203.625 Z" fill="#000000" fill-rule="nonzero" fill-opacity="1" /><path clip-path="url(#clip040)" d="M3808.78 194.224 L3808.78 202.505 L3818.65 202.505 L3818.65 206.229 L3808.78 206.229 L3808.78 222.063 Q3808.78 225.63 3809.74 226.646 Q3810.73 227.662 3813.72 227.662 L3818.65 227.662 L3818.65 231.672 L3813.72 231.672 Q3808.18 231.672 3806.07 229.615 Q3803.96 227.531 3803.96 222.063 L3803.96 206.229 L3800.44 206.229 L3800.44 202.505 L3803.96 202.505 L3803.96 194.224 L3808.78 194.224 Z" fill="#000000" fill-rule="nonzero" fill-opacity="1" /><path clip-path="url(#clip040)" d="M3847.11 240.526 L3847.11 244.25 L3819.4 244.25 L3819.4 240.526 L3847.11 240.526 Z" fill="#000000" fill-rule="nonzero" fill-opacity="1" /><path clip-path="url(#clip040)" d="M3856.82 227.245 L3875.18 227.245 L3875.18 231.672 L3850.49 231.672 L3850.49 227.245 Q3853.49 224.146 3858.65 218.938 Q3863.83 213.703 3865.16 212.193 Q3867.68 209.354 3868.67 207.401 Q3869.69 205.422 3869.69 203.521 Q3869.69 200.422 3867.5 198.469 Q3865.34 196.516 3861.85 196.516 Q3859.37 196.516 3856.61 197.375 Q3853.88 198.235 3850.76 199.979 L3850.76 194.667 Q3853.93 193.391 3856.69 192.74 Q3859.45 192.089 3861.74 192.089 Q3867.79 192.089 3871.38 195.11 Q3874.97 198.13 3874.97 203.183 Q3874.97 205.578 3874.06 207.74 Q3873.18 209.875 3870.81 212.792 Q3870.16 213.547 3866.67 217.167 Q3863.18 220.761 3856.82 227.245 Z" fill="#000000" fill-rule="nonzero" fill-opacity="1" /><path clip-path="url(#clip040)" d="M3898.12 210.136 Q3894.58 210.136 3892.5 212.557 Q3890.44 214.979 3890.44 219.198 Q3890.44 223.391 3892.5 225.839 Q3894.58 228.261 3898.12 228.261 Q3901.67 228.261 3903.72 225.839 Q3905.81 223.391 3905.81 219.198 Q3905.81 214.979 3903.72 212.557 Q3901.67 210.136 3898.12 210.136 M3908.57 193.651 L3908.57 198.443 Q3906.59 197.505 3904.56 197.011 Q3902.55 196.516 3900.57 196.516 Q3895.36 196.516 3892.6 200.031 Q3889.87 203.547 3889.48 210.656 Q3891.02 208.391 3893.33 207.193 Q3895.65 205.969 3898.44 205.969 Q3904.3 205.969 3907.68 209.537 Q3911.09 213.078 3911.09 219.198 Q3911.09 225.188 3907.55 228.807 Q3904.01 232.427 3898.12 232.427 Q3891.38 232.427 3887.81 227.271 Q3884.24 222.089 3884.24 212.271 Q3884.24 203.052 3888.62 197.584 Q3892.99 192.089 3900.36 192.089 Q3902.34 192.089 3904.35 192.479 Q3906.38 192.87 3908.57 193.651 Z" fill="#000000" fill-rule="nonzero" fill-opacity="1" /><polyline clip-path="url(#clip040)" style="stroke:#1ac938; stroke-linecap:round; stroke-linejoin:round; stroke-width:5.625; stroke-opacity:1; fill:none" points="3346.8,270.552 3596.78,270.552 "/>
<path clip-path="url(#clip040)" d="M3643.26 285.617 L3643.26 301.086 L3638.44 301.086 L3638.44 260.825 L3643.26 260.825 L3643.26 265.253 Q3644.77 262.648 3647.06 261.398 Q3649.38 260.122 3652.58 260.122 Q3657.89 260.122 3661.2 264.341 Q3664.53 268.56 3664.53 275.435 Q3664.53 282.31 3661.2 286.528 Q3657.89 290.747 3652.58 290.747 Q3649.38 290.747 3647.06 289.497 Q3644.77 288.221 3643.26 285.617 M3659.56 275.435 Q3659.56 270.148 3657.37 267.154 Q3655.21 264.133 3651.41 264.133 Q3647.61 264.133 3645.42 267.154 Q3643.26 270.148 3643.26 275.435 Q3643.26 280.721 3645.42 283.742 Q3647.61 286.737 3651.41 286.737 Q3655.21 286.737 3657.37 283.742 Q3659.56 280.721 3659.56 275.435 Z" fill="#000000" fill-rule="nonzero" fill-opacity="1" /><path clip-path="url(#clip040)" d="M3689.38 265.305 Q3688.57 264.836 3687.6 264.628 Q3686.67 264.393 3685.52 264.393 Q3681.46 264.393 3679.27 267.049 Q3677.11 269.68 3677.11 274.627 L3677.11 289.992 L3672.29 289.992 L3672.29 260.825 L3677.11 260.825 L3677.11 265.357 Q3678.62 262.7 3681.04 261.424 Q3683.46 260.122 3686.93 260.122 Q3687.42 260.122 3688.02 260.2 Q3688.62 260.253 3689.35 260.383 L3689.38 265.305 Z" fill="#000000" fill-rule="nonzero" fill-opacity="1" /><path clip-path="url(#clip040)" d="M3718.18 274.211 L3718.18 276.555 L3696.15 276.555 Q3696.46 281.502 3699.12 284.107 Q3701.8 286.685 3706.56 286.685 Q3709.32 286.685 3711.9 286.008 Q3714.51 285.331 3717.06 283.976 L3717.06 288.508 Q3714.48 289.601 3711.77 290.174 Q3709.06 290.747 3706.28 290.747 Q3699.3 290.747 3695.21 286.685 Q3691.15 282.622 3691.15 275.695 Q3691.15 268.534 3695 264.341 Q3698.88 260.122 3705.44 260.122 Q3711.33 260.122 3714.74 263.924 Q3718.18 267.7 3718.18 274.211 M3713.39 272.805 Q3713.33 268.872 3711.17 266.529 Q3709.04 264.185 3705.5 264.185 Q3701.49 264.185 3699.06 266.45 Q3696.67 268.716 3696.3 272.831 L3713.39 272.805 Z" fill="#000000" fill-rule="nonzero" fill-opacity="1" /><path clip-path="url(#clip040)" d="M3745.23 265.253 L3745.23 249.471 L3750.03 249.471 L3750.03 289.992 L3745.23 289.992 L3745.23 285.617 Q3743.72 288.221 3741.41 289.497 Q3739.12 290.747 3735.89 290.747 Q3730.6 290.747 3727.27 286.528 Q3723.96 282.31 3723.96 275.435 Q3723.96 268.56 3727.27 264.341 Q3730.6 260.122 3735.89 260.122 Q3739.12 260.122 3741.41 261.398 Q3743.72 262.648 3745.23 265.253 M3728.91 275.435 Q3728.91 280.721 3731.07 283.742 Q3733.26 286.737 3737.06 286.737 Q3740.86 286.737 3743.05 283.742 Q3745.23 280.721 3745.23 275.435 Q3745.23 270.148 3743.05 267.154 Q3740.86 264.133 3737.06 264.133 Q3733.26 264.133 3731.07 267.154 Q3728.91 270.148 3728.91 275.435 Z" fill="#000000" fill-rule="nonzero" fill-opacity="1" /><path clip-path="url(#clip040)" d="M3759.9 260.825 L3764.69 260.825 L3764.69 289.992 L3759.9 289.992 L3759.9 260.825 M3759.9 249.471 L3764.69 249.471 L3764.69 255.539 L3759.9 255.539 L3759.9 249.471 Z" fill="#000000" fill-rule="nonzero" fill-opacity="1" /><path clip-path="url(#clip040)" d="M3795.7 261.945 L3795.7 266.424 Q3793.67 265.305 3791.61 264.758 Q3789.58 264.185 3787.5 264.185 Q3782.84 264.185 3780.26 267.154 Q3777.68 270.096 3777.68 275.435 Q3777.68 280.773 3780.26 283.742 Q3782.84 286.685 3787.5 286.685 Q3789.58 286.685 3791.61 286.138 Q3793.67 285.565 3795.7 284.445 L3795.7 288.872 Q3793.7 289.81 3791.54 290.278 Q3789.4 290.747 3786.98 290.747 Q3780.39 290.747 3776.51 286.607 Q3772.63 282.466 3772.63 275.435 Q3772.63 268.299 3776.54 264.211 Q3780.47 260.122 3787.29 260.122 Q3789.51 260.122 3791.61 260.591 Q3793.72 261.034 3795.7 261.945 Z" fill="#000000" fill-rule="nonzero" fill-opacity="1" /><path clip-path="url(#clip040)" d="M3808.78 252.544 L3808.78 260.825 L3818.65 260.825 L3818.65 264.549 L3808.78 264.549 L3808.78 280.383 Q3808.78 283.95 3809.74 284.966 Q3810.73 285.982 3813.72 285.982 L3818.65 285.982 L3818.65 289.992 L3813.72 289.992 Q3808.18 289.992 3806.07 287.935 Q3803.96 285.851 3803.96 280.383 L3803.96 264.549 L3800.44 264.549 L3800.44 260.825 L3803.96 260.825 L3803.96 252.544 L3808.78 252.544 Z" fill="#000000" fill-rule="nonzero" fill-opacity="1" /><path clip-path="url(#clip040)" d="M3847.11 298.846 L3847.11 302.57 L3819.4 302.57 L3819.4 298.846 L3847.11 298.846 Z" fill="#000000" fill-rule="nonzero" fill-opacity="1" /><path clip-path="url(#clip040)" d="M3866.74 255.695 L3853.46 276.45 L3866.74 276.45 L3866.74 255.695 M3865.36 251.112 L3871.98 251.112 L3871.98 276.45 L3877.53 276.45 L3877.53 280.825 L3871.98 280.825 L3871.98 289.992 L3866.74 289.992 L3866.74 280.825 L3849.19 280.825 L3849.19 275.747 L3865.36 251.112 Z" fill="#000000" fill-rule="nonzero" fill-opacity="1" /><polyline clip-path="url(#clip040)" style="stroke:#e8000b; stroke-linecap:round; stroke-linejoin:round; stroke-width:5.625; stroke-opacity:1; fill:none" points="3346.8,328.872 3596.78,328.872 "/>
<path clip-path="url(#clip040)" d="M3643.26 343.937 L3643.26 359.406 L3638.44 359.406 L3638.44 319.145 L3643.26 319.145 L3643.26 323.573 Q3644.77 320.968 3647.06 319.718 Q3649.38 318.442 3652.58 318.442 Q3657.89 318.442 3661.2 322.661 Q3664.53 326.88 3664.53 333.755 Q3664.53 340.63 3661.2 344.848 Q3657.89 349.067 3652.58 349.067 Q3649.38 349.067 3647.06 347.817 Q3644.77 346.541 3643.26 343.937 M3659.56 333.755 Q3659.56 328.468 3657.37 325.474 Q3655.21 322.453 3651.41 322.453 Q3647.61 322.453 3645.42 325.474 Q3643.26 328.468 3643.26 333.755 Q3643.26 339.041 3645.42 342.062 Q3647.61 345.057 3651.41 345.057 Q3655.21 345.057 3657.37 342.062 Q3659.56 339.041 3659.56 333.755 Z" fill="#000000" fill-rule="nonzero" fill-opacity="1" /><path clip-path="url(#clip040)" d="M3689.38 323.625 Q3688.57 323.156 3687.6 322.948 Q3686.67 322.713 3685.52 322.713 Q3681.46 322.713 3679.27 325.369 Q3677.11 328 3677.11 332.947 L3677.11 348.312 L3672.29 348.312 L3672.29 319.145 L3677.11 319.145 L3677.11 323.677 Q3678.62 321.02 3681.04 319.744 Q3683.46 318.442 3686.93 318.442 Q3687.42 318.442 3688.02 318.52 Q3688.62 318.573 3689.35 318.703 L3689.38 323.625 Z" fill="#000000" fill-rule="nonzero" fill-opacity="1" /><path clip-path="url(#clip040)" d="M3718.18 332.531 L3718.18 334.875 L3696.15 334.875 Q3696.46 339.822 3699.12 342.427 Q3701.8 345.005 3706.56 345.005 Q3709.32 345.005 3711.9 344.328 Q3714.51 343.651 3717.06 342.296 L3717.06 346.828 Q3714.48 347.921 3711.77 348.494 Q3709.06 349.067 3706.28 349.067 Q3699.3 349.067 3695.21 345.005 Q3691.15 340.942 3691.15 334.015 Q3691.15 326.854 3695 322.661 Q3698.88 318.442 3705.44 318.442 Q3711.33 318.442 3714.74 322.244 Q3718.18 326.02 3718.18 332.531 M3713.39 331.125 Q3713.33 327.192 3711.17 324.849 Q3709.04 322.505 3705.5 322.505 Q3701.49 322.505 3699.06 324.77 Q3696.67 327.036 3696.3 331.151 L3713.39 331.125 Z" fill="#000000" fill-rule="nonzero" fill-opacity="1" /><path clip-path="url(#clip040)" d="M3745.23 323.573 L3745.23 307.791 L3750.03 307.791 L3750.03 348.312 L3745.23 348.312 L3745.23 343.937 Q3743.72 346.541 3741.41 347.817 Q3739.12 349.067 3735.89 349.067 Q3730.6 349.067 3727.27 344.848 Q3723.96 340.63 3723.96 333.755 Q3723.96 326.88 3727.27 322.661 Q3730.6 318.442 3735.89 318.442 Q3739.12 318.442 3741.41 319.718 Q3743.72 320.968 3745.23 323.573 M3728.91 333.755 Q3728.91 339.041 3731.07 342.062 Q3733.26 345.057 3737.06 345.057 Q3740.86 345.057 3743.05 342.062 Q3745.23 339.041 3745.23 333.755 Q3745.23 328.468 3743.05 325.474 Q3740.86 322.453 3737.06 322.453 Q3733.26 322.453 3731.07 325.474 Q3728.91 328.468 3728.91 333.755 Z" fill="#000000" fill-rule="nonzero" fill-opacity="1" /><path clip-path="url(#clip040)" d="M3759.9 319.145 L3764.69 319.145 L3764.69 348.312 L3759.9 348.312 L3759.9 319.145 M3759.9 307.791 L3764.69 307.791 L3764.69 313.859 L3759.9 313.859 L3759.9 307.791 Z" fill="#000000" fill-rule="nonzero" fill-opacity="1" /><path clip-path="url(#clip040)" d="M3795.7 320.265 L3795.7 324.744 Q3793.67 323.625 3791.61 323.078 Q3789.58 322.505 3787.5 322.505 Q3782.84 322.505 3780.26 325.474 Q3777.68 328.416 3777.68 333.755 Q3777.68 339.093 3780.26 342.062 Q3782.84 345.005 3787.5 345.005 Q3789.58 345.005 3791.61 344.458 Q3793.67 343.885 3795.7 342.765 L3795.7 347.192 Q3793.7 348.13 3791.54 348.598 Q3789.4 349.067 3786.98 349.067 Q3780.39 349.067 3776.51 344.927 Q3772.63 340.786 3772.63 333.755 Q3772.63 326.619 3776.54 322.531 Q3780.47 318.442 3787.29 318.442 Q3789.51 318.442 3791.61 318.911 Q3793.72 319.354 3795.7 320.265 Z" fill="#000000" fill-rule="nonzero" fill-opacity="1" /><path clip-path="url(#clip040)" d="M3808.78 310.864 L3808.78 319.145 L3818.65 319.145 L3818.65 322.869 L3808.78 322.869 L3808.78 338.703 Q3808.78 342.27 3809.74 343.286 Q3810.73 344.302 3813.72 344.302 L3818.65 344.302 L3818.65 348.312 L3813.72 348.312 Q3808.18 348.312 3806.07 346.255 Q3803.96 344.171 3803.96 338.703 L3803.96 322.869 L3800.44 322.869 L3800.44 319.145 L3803.96 319.145 L3803.96 310.864 L3808.78 310.864 Z" fill="#000000" fill-rule="nonzero" fill-opacity="1" /><path clip-path="url(#clip040)" d="M3847.11 357.166 L3847.11 360.89 L3819.4 360.89 L3819.4 357.166 L3847.11 357.166 Z" fill="#000000" fill-rule="nonzero" fill-opacity="1" /><path clip-path="url(#clip040)" d="M3853.2 343.885 L3861.8 343.885 L3861.8 314.224 L3852.45 316.099 L3852.45 311.307 L3861.74 309.432 L3867.01 309.432 L3867.01 343.885 L3875.6 343.885 L3875.6 348.312 L3853.2 348.312 L3853.2 343.885 Z" fill="#000000" fill-rule="nonzero" fill-opacity="1" /><polyline clip-path="url(#clip040)" style="stroke:#000000; stroke-linecap:round; stroke-linejoin:round; stroke-width:6.75; stroke-opacity:1; fill:none" points="3346.8,387.192 3596.78,387.192 "/>
<path clip-path="url(#clip040)" d="M3653.52 391.971 Q3647.71 391.971 3645.47 393.299 Q3643.23 394.627 3643.23 397.83 Q3643.23 400.382 3644.9 401.892 Q3646.59 403.377 3649.48 403.377 Q3653.46 403.377 3655.86 400.564 Q3658.28 397.726 3658.28 393.038 L3658.28 391.971 L3653.52 391.971 M3663.07 389.991 L3663.07 406.632 L3658.28 406.632 L3658.28 402.205 Q3656.64 404.861 3654.19 406.137 Q3651.75 407.387 3648.2 407.387 Q3643.72 407.387 3641.07 404.887 Q3638.44 402.361 3638.44 398.142 Q3638.44 393.221 3641.72 390.721 Q3645.03 388.221 3651.56 388.221 L3658.28 388.221 L3658.28 387.752 Q3658.28 384.445 3656.09 382.648 Q3653.93 380.825 3650 380.825 Q3647.5 380.825 3645.13 381.424 Q3642.76 382.023 3640.57 383.221 L3640.57 378.794 Q3643.2 377.778 3645.68 377.283 Q3648.15 376.762 3650.5 376.762 Q3656.82 376.762 3659.95 380.044 Q3663.07 383.325 3663.07 389.991 Z" fill="#000000" fill-rule="nonzero" fill-opacity="1" /><path clip-path="url(#clip040)" d="M3693.93 378.585 L3693.93 383.064 Q3691.9 381.945 3689.84 381.398 Q3687.81 380.825 3685.73 380.825 Q3681.07 380.825 3678.49 383.794 Q3675.91 386.736 3675.91 392.075 Q3675.91 397.413 3678.49 400.382 Q3681.07 403.325 3685.73 403.325 Q3687.81 403.325 3689.84 402.778 Q3691.9 402.205 3693.93 401.085 L3693.93 405.512 Q3691.93 406.45 3689.77 406.918 Q3687.63 407.387 3685.21 407.387 Q3678.62 407.387 3674.74 403.247 Q3670.86 399.106 3670.86 392.075 Q3670.86 384.939 3674.77 380.851 Q3678.7 376.762 3685.52 376.762 Q3687.74 376.762 3689.84 377.231 Q3691.95 377.674 3693.93 378.585 Z" fill="#000000" fill-rule="nonzero" fill-opacity="1" /><path clip-path="url(#clip040)" d="M3707.01 369.184 L3707.01 377.465 L3716.88 377.465 L3716.88 381.189 L3707.01 381.189 L3707.01 397.023 Q3707.01 400.59 3707.97 401.606 Q3708.96 402.622 3711.95 402.622 L3716.88 402.622 L3716.88 406.632 L3711.95 406.632 Q3706.41 406.632 3704.3 404.575 Q3702.19 402.491 3702.19 397.023 L3702.19 381.189 L3698.67 381.189 L3698.67 377.465 L3702.19 377.465 L3702.19 369.184 L3707.01 369.184 Z" fill="#000000" fill-rule="nonzero" fill-opacity="1" /><path clip-path="url(#clip040)" d="M3722.68 395.122 L3722.68 377.465 L3727.47 377.465 L3727.47 394.939 Q3727.47 399.08 3729.09 401.163 Q3730.7 403.221 3733.93 403.221 Q3737.81 403.221 3740.05 400.747 Q3742.32 398.273 3742.32 394.002 L3742.32 377.465 L3747.11 377.465 L3747.11 406.632 L3742.32 406.632 L3742.32 402.153 Q3740.57 404.809 3738.26 406.111 Q3735.96 407.387 3732.92 407.387 Q3727.89 407.387 3725.29 404.262 Q3722.68 401.137 3722.68 395.122 M3734.74 376.762 L3734.74 376.762 Z" fill="#000000" fill-rule="nonzero" fill-opacity="1" /><path clip-path="url(#clip040)" d="M3770.23 391.971 Q3764.43 391.971 3762.19 393.299 Q3759.95 394.627 3759.95 397.83 Q3759.95 400.382 3761.61 401.892 Q3763.31 403.377 3766.2 403.377 Q3770.18 403.377 3772.58 400.564 Q3775 397.726 3775 393.038 L3775 391.971 L3770.23 391.971 M3779.79 389.991 L3779.79 406.632 L3775 406.632 L3775 402.205 Q3773.36 404.861 3770.91 406.137 Q3768.46 407.387 3764.92 407.387 Q3760.44 407.387 3757.79 404.887 Q3755.16 402.361 3755.16 398.142 Q3755.16 393.221 3758.44 390.721 Q3761.75 388.221 3768.28 388.221 L3775 388.221 L3775 387.752 Q3775 384.445 3772.81 382.648 Q3770.65 380.825 3766.72 380.825 Q3764.22 380.825 3761.85 381.424 Q3759.48 382.023 3757.29 383.221 L3757.29 378.794 Q3759.92 377.778 3762.4 377.283 Q3764.87 376.762 3767.21 376.762 Q3773.54 376.762 3776.67 380.044 Q3779.79 383.325 3779.79 389.991 Z" fill="#000000" fill-rule="nonzero" fill-opacity="1" /><path clip-path="url(#clip040)" d="M3789.66 366.111 L3794.45 366.111 L3794.45 406.632 L3789.66 406.632 L3789.66 366.111 Z" fill="#000000" fill-rule="nonzero" fill-opacity="1" /></svg>
