<?xml version="1.0" encoding="UTF-8" standalone="no"?>
<!DOCTYPE svg PUBLIC "-//W3C//DTD SVG 1.1//EN"
 "http://www.w3.org/Graphics/SVG/1.1/DTD/svg11.dtd">
<!-- Generated by graphviz version 2.50.0 (20211204.2007)
 -->
<!-- Pages: 1 -->
<svg width="1308pt" height="896pt"
 viewBox="0.00 0.00 1308.00 896.00" xmlns="http://www.w3.org/2000/svg" xmlns:xlink="http://www.w3.org/1999/xlink">
<g id="graph0" class="graph" transform="scale(1 1) rotate(0) translate(4 892)">
<polygon fill="white" stroke="transparent" points="-4,4 -4,-892 1304,-892 1304,4 -4,4"/>
<!-- 1 -->
<g id="node1" class="node">
<title>1</title>
<text text-anchor="start" x="641" y="-869.8" font-family="Arial" font-weight="bold" font-size="14.00"> </text>
<text text-anchor="start" x="571" y="-825.3" font-family="Arial" font-size="14.00"> &#160;&#160;&#160;</text>
<path fill="#ebebeb" stroke="transparent" d="M601,-797C601,-797 685,-797 685,-797 691,-797 697,-803 697,-809 697,-809 697,-849 697,-849 697,-855 691,-861 685,-861 685,-861 601,-861 601,-861 595,-861 589,-855 589,-849 589,-849 589,-809 589,-809 589,-803 595,-797 601,-797"/>
<text text-anchor="start" x="590" y="-858.4" font-family="Arial" font-size="2.00"> </text>
<text text-anchor="start" x="590" y="-852.4" font-family="Arial" font-size="7.00"> &#160;1</text>
<text text-anchor="start" x="604" y="-835.8" font-family="Arial" font-weight="bold" font-size="14.00">Mean: 31.37</text>
<text text-anchor="start" x="619.5" y="-818.8" font-family="Arial" font-weight="bold" font-size="14.00">n = 672</text>
<text text-anchor="start" x="641.5" y="-800.8" font-family="Arial" font-size="9.00"> </text>
<path fill="none" stroke="#333333" d="M601,-797C601,-797 685,-797 685,-797 691,-797 697,-803 697,-809 697,-809 697,-849 697,-849 697,-855 691,-861 685,-861 685,-861 601,-861 601,-861 595,-861 589,-855 589,-849 589,-849 589,-809 589,-809 589,-803 595,-797 601,-797"/>
<text text-anchor="start" x="699" y="-825.3" font-family="Arial" font-size="14.00"> &#160;&#160;&#160;</text>
<text text-anchor="start" x="585.5" y="-782.8" font-family="Arial" font-weight="bold" font-size="14.00">prev_168h_inflow</text>
</g>
<!-- 2 -->
<g id="node2" class="node">
<title>2</title>
<text text-anchor="start" x="449" y="-715.8" font-family="Arial" font-weight="bold" font-size="14.00"> &lt; 30.06</text>
<text text-anchor="start" x="406" y="-671.3" font-family="Arial" font-size="14.00"> &#160;&#160;</text>
<path fill="#ebebeb" stroke="transparent" d="M432,-643C432,-643 516,-643 516,-643 522,-643 528,-649 528,-655 528,-655 528,-695 528,-695 528,-701 522,-707 516,-707 516,-707 432,-707 432,-707 426,-707 420,-701 420,-695 420,-695 420,-655 420,-655 420,-649 426,-643 432,-643"/>
<text text-anchor="start" x="421" y="-704.4" font-family="Arial" font-size="2.00"> </text>
<text text-anchor="start" x="421" y="-698.4" font-family="Arial" font-size="7.00"> &#160;2</text>
<text text-anchor="start" x="435" y="-681.8" font-family="Arial" font-weight="bold" font-size="14.00">Mean: 23.94</text>
<text text-anchor="start" x="450.5" y="-664.8" font-family="Arial" font-weight="bold" font-size="14.00">n = 263</text>
<text text-anchor="start" x="472.5" y="-646.8" font-family="Arial" font-size="9.00"> </text>
<path fill="none" stroke="#333333" d="M432,-643C432,-643 516,-643 516,-643 522,-643 528,-649 528,-655 528,-655 528,-695 528,-695 528,-701 522,-707 516,-707 516,-707 432,-707 432,-707 426,-707 420,-701 420,-695 420,-695 420,-655 420,-655 420,-649 426,-643 432,-643"/>
<text text-anchor="start" x="530" y="-671.3" font-family="Arial" font-size="14.00"> &#160;&#160;</text>
<text text-anchor="start" x="420.5" y="-628.8" font-family="Arial" font-weight="bold" font-size="14.00">prev_24h_inflow</text>
</g>
<!-- 1&#45;&gt;2 -->
<g id="edge1" class="edge">
<title>1&#45;&gt;2</title>
<path fill="none" stroke="#888888" d="M578.14,-769.67C567.73,-760.3 556.9,-750.56 546.33,-741.05"/>
<polygon fill="#888888" stroke="#888888" points="548.46,-738.26 538.68,-734.18 543.78,-743.47 548.46,-738.26"/>
</g>
<!-- 11 -->
<g id="node3" class="node">
<title>11</title>
<text text-anchor="start" x="785.5" y="-715.8" font-family="Arial" font-weight="bold" font-size="14.00"> ≥ 30.06</text>
<text text-anchor="start" x="742" y="-671.3" font-family="Arial" font-size="14.00"> &#160;&#160;</text>
<path fill="#ebebeb" stroke="transparent" d="M768,-643C768,-643 852,-643 852,-643 858,-643 864,-649 864,-655 864,-655 864,-695 864,-695 864,-701 858,-707 852,-707 852,-707 768,-707 768,-707 762,-707 756,-701 756,-695 756,-695 756,-655 756,-655 756,-649 762,-643 768,-643"/>
<text text-anchor="start" x="757" y="-704.4" font-family="Arial" font-size="2.00"> </text>
<text text-anchor="start" x="757" y="-698.4" font-family="Arial" font-size="7.00"> &#160;11</text>
<text text-anchor="start" x="771" y="-681.8" font-family="Arial" font-weight="bold" font-size="14.00">Mean: 36.15</text>
<text text-anchor="start" x="786.5" y="-664.8" font-family="Arial" font-weight="bold" font-size="14.00">n = 409</text>
<text text-anchor="start" x="808.5" y="-646.8" font-family="Arial" font-size="9.00"> </text>
<path fill="none" stroke="#333333" d="M768,-643C768,-643 852,-643 852,-643 858,-643 864,-649 864,-655 864,-655 864,-695 864,-695 864,-701 858,-707 852,-707 852,-707 768,-707 768,-707 762,-707 756,-701 756,-695 756,-695 756,-655 756,-655 756,-649 762,-643 768,-643"/>
<text text-anchor="start" x="866" y="-671.3" font-family="Arial" font-size="14.00"> &#160;&#160;</text>
<text text-anchor="start" x="756.5" y="-628.8" font-family="Arial" font-weight="bold" font-size="14.00">prev_24h_inflow</text>
</g>
<!-- 1&#45;&gt;11 -->
<g id="edge2" class="edge">
<title>1&#45;&gt;11</title>
<path fill="none" stroke="#888888" d="M707.09,-769.67C717.38,-760.3 728.08,-750.56 738.53,-741.05"/>
<polygon fill="#888888" stroke="#888888" points="741.04,-743.5 746.08,-734.18 736.33,-738.32 741.04,-743.5"/>
</g>
<!-- 3 -->
<g id="node4" class="node">
<title>3</title>
<text text-anchor="start" x="200" y="-561.8" font-family="Arial" font-weight="bold" font-size="14.00"> &lt; 27.09</text>
<path fill="#ebebeb" stroke="transparent" d="M183,-489C183,-489 267,-489 267,-489 273,-489 279,-495 279,-501 279,-501 279,-541 279,-541 279,-547 273,-553 267,-553 267,-553 183,-553 183,-553 177,-553 171,-547 171,-541 171,-541 171,-501 171,-501 171,-495 177,-489 183,-489"/>
<text text-anchor="start" x="172" y="-550.4" font-family="Arial" font-size="2.00"> </text>
<text text-anchor="start" x="172" y="-544.4" font-family="Arial" font-size="7.00"> &#160;3</text>
<text text-anchor="start" x="186" y="-527.8" font-family="Arial" font-weight="bold" font-size="14.00">Mean: 21.52</text>
<text text-anchor="start" x="201.5" y="-510.8" font-family="Arial" font-weight="bold" font-size="14.00">n = 190</text>
<text text-anchor="start" x="223.5" y="-492.8" font-family="Arial" font-size="9.00"> </text>
<path fill="none" stroke="#333333" d="M183,-489C183,-489 267,-489 267,-489 273,-489 279,-495 279,-501 279,-501 279,-541 279,-541 279,-547 273,-553 267,-553 267,-553 183,-553 183,-553 177,-553 171,-547 171,-541 171,-541 171,-501 171,-501 171,-495 177,-489 183,-489"/>
<text text-anchor="start" x="210.5" y="-474.8" font-family="Arial" font-weight="bold" font-size="14.00">time</text>
</g>
<!-- 2&#45;&gt;3 -->
<g id="edge3" class="edge">
<title>2&#45;&gt;3</title>
<path fill="none" stroke="#888888" d="M395.9,-626.32C365.26,-607.62 330.25,-586.25 299.93,-567.74"/>
<polygon fill="#888888" stroke="#888888" points="301.46,-564.57 291.1,-562.35 297.81,-570.55 301.46,-564.57"/>
</g>
<!-- 6 -->
<g id="node5" class="node">
<title>6</title>
<text text-anchor="start" x="449.5" y="-561.8" font-family="Arial" font-weight="bold" font-size="14.00"> ≥ 27.09</text>
<text text-anchor="start" x="406" y="-517.3" font-family="Arial" font-size="14.00"> &#160;&#160;</text>
<path fill="#ebebeb" stroke="transparent" d="M432,-489C432,-489 516,-489 516,-489 522,-489 528,-495 528,-501 528,-501 528,-541 528,-541 528,-547 522,-553 516,-553 516,-553 432,-553 432,-553 426,-553 420,-547 420,-541 420,-541 420,-501 420,-501 420,-495 426,-489 432,-489"/>
<text text-anchor="start" x="421" y="-550.4" font-family="Arial" font-size="2.00"> </text>
<text text-anchor="start" x="421" y="-544.4" font-family="Arial" font-size="7.00"> &#160;6</text>
<text text-anchor="start" x="435" y="-527.8" font-family="Arial" font-weight="bold" font-size="14.00">Mean: 30.25</text>
<text text-anchor="start" x="454" y="-510.8" font-family="Arial" font-weight="bold" font-size="14.00">n = 73</text>
<text text-anchor="start" x="472.5" y="-492.8" font-family="Arial" font-size="9.00"> </text>
<path fill="none" stroke="#333333" d="M432,-489C432,-489 516,-489 516,-489 522,-489 528,-495 528,-501 528,-501 528,-541 528,-541 528,-547 522,-553 516,-553 516,-553 432,-553 432,-553 426,-553 420,-547 420,-541 420,-541 420,-501 420,-501 420,-495 426,-489 432,-489"/>
<text text-anchor="start" x="530" y="-517.3" font-family="Arial" font-size="14.00"> &#160;&#160;</text>
<text text-anchor="start" x="420.5" y="-474.8" font-family="Arial" font-weight="bold" font-size="14.00">prev_24h_inflow</text>
</g>
<!-- 2&#45;&gt;6 -->
<g id="edge4" class="edge">
<title>2&#45;&gt;6</title>
<path fill="none" stroke="#888888" d="M474,-615.67C474,-607.39 474,-598.83 474,-590.38"/>
<polygon fill="#888888" stroke="#888888" points="477.5,-590.18 474,-580.18 470.5,-590.18 477.5,-590.18"/>
</g>
<!-- 12 -->
<g id="node12" class="node">
<title>12</title>
<text text-anchor="start" x="785" y="-561.8" font-family="Arial" font-weight="bold" font-size="14.00"> &lt; 36.43</text>
<text text-anchor="start" x="738" y="-517.3" font-family="Arial" font-size="14.00"> &#160;&#160;&#160;</text>
<path fill="#ebebeb" stroke="transparent" d="M768,-489C768,-489 852,-489 852,-489 858,-489 864,-495 864,-501 864,-501 864,-541 864,-541 864,-547 858,-553 852,-553 852,-553 768,-553 768,-553 762,-553 756,-547 756,-541 756,-541 756,-501 756,-501 756,-495 762,-489 768,-489"/>
<text text-anchor="start" x="757" y="-550.4" font-family="Arial" font-size="2.00"> </text>
<text text-anchor="start" x="757" y="-544.4" font-family="Arial" font-size="7.00"> &#160;12</text>
<text text-anchor="start" x="771" y="-527.8" font-family="Arial" font-weight="bold" font-size="14.00">Mean: 33.73</text>
<text text-anchor="start" x="786.5" y="-510.8" font-family="Arial" font-weight="bold" font-size="14.00">n = 218</text>
<text text-anchor="start" x="808.5" y="-492.8" font-family="Arial" font-size="9.00"> </text>
<path fill="none" stroke="#333333" d="M768,-489C768,-489 852,-489 852,-489 858,-489 864,-495 864,-501 864,-501 864,-541 864,-541 864,-547 858,-553 852,-553 852,-553 768,-553 768,-553 762,-553 756,-547 756,-541 756,-541 756,-501 756,-501 756,-495 762,-489 768,-489"/>
<text text-anchor="start" x="866" y="-517.3" font-family="Arial" font-size="14.00"> &#160;&#160;&#160;</text>
<text text-anchor="start" x="752.5" y="-474.8" font-family="Arial" font-weight="bold" font-size="14.00">prev_168h_inflow</text>
</g>
<!-- 11&#45;&gt;12 -->
<g id="edge11" class="edge">
<title>11&#45;&gt;12</title>
<path fill="none" stroke="#888888" d="M810,-615.67C810,-607.39 810,-598.83 810,-590.38"/>
<polygon fill="#888888" stroke="#888888" points="813.5,-590.18 810,-580.18 806.5,-590.18 813.5,-590.18"/>
</g>
<!-- 19 -->
<g id="node13" class="node">
<title>19</title>
<text text-anchor="start" x="1041.5" y="-561.8" font-family="Arial" font-weight="bold" font-size="14.00"> ≥ 36.43</text>
<text text-anchor="start" x="998" y="-517.3" font-family="Arial" font-size="14.00"> &#160;&#160;&#160;</text>
<path fill="#ebebeb" stroke="transparent" d="M1028,-489C1028,-489 1104,-489 1104,-489 1110,-489 1116,-495 1116,-501 1116,-501 1116,-541 1116,-541 1116,-547 1110,-553 1104,-553 1104,-553 1028,-553 1028,-553 1022,-553 1016,-547 1016,-541 1016,-541 1016,-501 1016,-501 1016,-495 1022,-489 1028,-489"/>
<text text-anchor="start" x="1017" y="-550.4" font-family="Arial" font-size="2.00"> </text>
<text text-anchor="start" x="1017" y="-544.4" font-family="Arial" font-size="7.00"> &#160;19</text>
<text text-anchor="start" x="1031" y="-527.8" font-family="Arial" font-weight="bold" font-size="14.00">Mean: 38.9</text>
<text text-anchor="start" x="1042.5" y="-510.8" font-family="Arial" font-weight="bold" font-size="14.00">n = 191</text>
<text text-anchor="start" x="1064.5" y="-492.8" font-family="Arial" font-size="9.00"> </text>
<path fill="none" stroke="#333333" d="M1028,-489C1028,-489 1104,-489 1104,-489 1110,-489 1116,-495 1116,-501 1116,-501 1116,-541 1116,-541 1116,-547 1110,-553 1104,-553 1104,-553 1028,-553 1028,-553 1022,-553 1016,-547 1016,-541 1016,-541 1016,-501 1016,-501 1016,-495 1022,-489 1028,-489"/>
<text text-anchor="start" x="1118" y="-517.3" font-family="Arial" font-size="14.00"> &#160;&#160;&#160;</text>
<text text-anchor="start" x="1008.5" y="-474.8" font-family="Arial" font-weight="bold" font-size="14.00">prev_168h_inflow</text>
</g>
<!-- 11&#45;&gt;19 -->
<g id="edge12" class="edge">
<title>11&#45;&gt;19</title>
<path fill="none" stroke="#888888" d="M888.2,-627.57C916.97,-610.48 949.72,-591.04 979.21,-573.53"/>
<polygon fill="#888888" stroke="#888888" points="981.03,-576.52 987.84,-568.41 977.45,-570.5 981.03,-576.52"/>
</g>
<!-- 4 -->
<g id="node6" class="node">
<title>4</title>
<text text-anchor="start" x="51.5" y="-407.8" font-family="Arial" font-weight="bold" font-size="14.00"> &lt; 4.5</text>
<path fill="#f8766d" fill-opacity="0.874510" stroke="transparent" d="M24,-335C24,-335 114,-335 114,-335 120,-335 126,-341 126,-347 126,-347 126,-387 126,-387 126,-393 120,-399 114,-399 114,-399 24,-399 24,-399 18,-399 12,-393 12,-387 12,-387 12,-347 12,-347 12,-341 18,-335 24,-335"/>
<text text-anchor="start" x="13" y="-396.4" font-family="Arial" font-size="2.00"> </text>
<text text-anchor="start" x="13" y="-390.4" font-family="Arial" font-size="7.00"> &#160;4</text>
<text text-anchor="start" x="27" y="-373.8" font-family="Arial" font-weight="bold" font-size="14.00">Predict 20.62</text>
<text text-anchor="start" x="45.5" y="-356.8" font-family="Arial" font-weight="bold" font-size="14.00">n = 139</text>
<text text-anchor="start" x="67.5" y="-338.8" font-family="Arial" font-size="9.00"> </text>
<path fill="none" stroke="#333333" d="M24,-335C24,-335 114,-335 114,-335 120,-335 126,-341 126,-347 126,-347 126,-387 126,-387 126,-393 120,-399 114,-399 114,-399 24,-399 24,-399 18,-399 12,-393 12,-387 12,-387 12,-347 12,-347 12,-341 18,-335 24,-335"/>
<text text-anchor="start" x="67" y="-320.8" font-family="Arial" font-weight="bold" font-size="14.00"> </text>
</g>
<!-- 3&#45;&gt;4 -->
<g id="edge5" class="edge">
<title>3&#45;&gt;4</title>
<path fill="none" stroke="#888888" d="M165.13,-461.67C155.62,-452.39 145.72,-442.75 136.05,-433.33"/>
<polygon fill="#888888" stroke="#888888" points="138.31,-430.65 128.71,-426.18 133.43,-435.66 138.31,-430.65"/>
</g>
<!-- 5 -->
<g id="node7" class="node">
<title>5</title>
<text text-anchor="start" x="208" y="-407.8" font-family="Arial" font-weight="bold" font-size="14.00"> ≥ 4.5</text>
<path fill="#f8766d" fill-opacity="0.796078" stroke="transparent" d="M180,-335C180,-335 270,-335 270,-335 276,-335 282,-341 282,-347 282,-347 282,-387 282,-387 282,-393 276,-399 270,-399 270,-399 180,-399 180,-399 174,-399 168,-393 168,-387 168,-387 168,-347 168,-347 168,-341 174,-335 180,-335"/>
<text text-anchor="start" x="169" y="-396.4" font-family="Arial" font-size="2.00"> </text>
<text text-anchor="start" x="169" y="-390.4" font-family="Arial" font-size="7.00"> &#160;5</text>
<text text-anchor="start" x="183" y="-373.8" font-family="Arial" font-weight="bold" font-size="14.00">Predict 23.97</text>
<text text-anchor="start" x="205" y="-356.8" font-family="Arial" font-weight="bold" font-size="14.00">n = 51</text>
<text text-anchor="start" x="223.5" y="-338.8" font-family="Arial" font-size="9.00"> </text>
<path fill="none" stroke="#333333" d="M180,-335C180,-335 270,-335 270,-335 276,-335 282,-341 282,-347 282,-347 282,-387 282,-387 282,-393 276,-399 270,-399 270,-399 180,-399 180,-399 174,-399 168,-393 168,-387 168,-387 168,-347 168,-347 168,-341 174,-335 180,-335"/>
<text text-anchor="start" x="223" y="-320.8" font-family="Arial" font-weight="bold" font-size="14.00"> </text>
</g>
<!-- 3&#45;&gt;5 -->
<g id="edge6" class="edge">
<title>3&#45;&gt;5</title>
<path fill="none" stroke="#888888" d="M225,-461.67C225,-453.39 225,-444.83 225,-436.38"/>
<polygon fill="#888888" stroke="#888888" points="228.5,-436.18 225,-426.18 221.5,-436.18 228.5,-436.18"/>
</g>
<!-- 7 -->
<g id="node8" class="node">
<title>7</title>
<text text-anchor="start" x="372.5" y="-407.8" font-family="Arial" font-weight="bold" font-size="14.00"> &lt; 31.1</text>
<text text-anchor="start" x="322" y="-363.3" font-family="Arial" font-size="14.00"> &#160;&#160;&#160;</text>
<path fill="#ebebeb" stroke="transparent" d="M352,-335C352,-335 436,-335 436,-335 442,-335 448,-341 448,-347 448,-347 448,-387 448,-387 448,-393 442,-399 436,-399 436,-399 352,-399 352,-399 346,-399 340,-393 340,-387 340,-387 340,-347 340,-347 340,-341 346,-335 352,-335"/>
<text text-anchor="start" x="341" y="-396.4" font-family="Arial" font-size="2.00"> </text>
<text text-anchor="start" x="341" y="-390.4" font-family="Arial" font-size="7.00"> &#160;7</text>
<text text-anchor="start" x="355" y="-373.8" font-family="Arial" font-weight="bold" font-size="14.00">Mean: 28.37</text>
<text text-anchor="start" x="374" y="-356.8" font-family="Arial" font-weight="bold" font-size="14.00">n = 43</text>
<text text-anchor="start" x="392.5" y="-338.8" font-family="Arial" font-size="9.00"> </text>
<path fill="none" stroke="#333333" d="M352,-335C352,-335 436,-335 436,-335 442,-335 448,-341 448,-347 448,-347 448,-387 448,-387 448,-393 442,-399 436,-399 436,-399 352,-399 352,-399 346,-399 340,-393 340,-387 340,-387 340,-347 340,-347 340,-341 346,-335 352,-335"/>
<text text-anchor="start" x="450" y="-363.3" font-family="Arial" font-size="14.00"> &#160;&#160;&#160;</text>
<text text-anchor="start" x="336.5" y="-320.8" font-family="Arial" font-weight="bold" font-size="14.00">prev_168h_inflow</text>
</g>
<!-- 6&#45;&gt;7 -->
<g id="edge7" class="edge">
<title>6&#45;&gt;7</title>
<path fill="none" stroke="#888888" d="M443.3,-461.67C438.75,-453.03 434.04,-444.07 429.41,-435.27"/>
<polygon fill="#888888" stroke="#888888" points="432.37,-433.4 424.62,-426.18 426.18,-436.66 432.37,-433.4"/>
</g>
<!-- 10 -->
<g id="node9" class="node">
<title>10</title>
<text text-anchor="start" x="542" y="-407.8" font-family="Arial" font-weight="bold" font-size="14.00"> ≥ 31.1</text>
<path fill="#f8766d" fill-opacity="0.584314" stroke="transparent" d="M518,-335C518,-335 608,-335 608,-335 614,-335 620,-341 620,-347 620,-347 620,-387 620,-387 620,-393 614,-399 608,-399 608,-399 518,-399 518,-399 512,-399 506,-393 506,-387 506,-387 506,-347 506,-347 506,-341 512,-335 518,-335"/>
<text text-anchor="start" x="507" y="-396.4" font-family="Arial" font-size="2.00"> </text>
<text text-anchor="start" x="507" y="-390.4" font-family="Arial" font-size="7.00"> &#160;10</text>
<text text-anchor="start" x="521" y="-373.8" font-family="Arial" font-weight="bold" font-size="14.00">Predict 32.93</text>
<text text-anchor="start" x="543" y="-356.8" font-family="Arial" font-weight="bold" font-size="14.00">n = 30</text>
<text text-anchor="start" x="561.5" y="-338.8" font-family="Arial" font-size="9.00"> </text>
<path fill="none" stroke="#333333" d="M518,-335C518,-335 608,-335 608,-335 614,-335 620,-341 620,-347 620,-347 620,-387 620,-387 620,-393 614,-399 608,-399 608,-399 518,-399 518,-399 512,-399 506,-393 506,-387 506,-387 506,-347 506,-347 506,-341 512,-335 518,-335"/>
<text text-anchor="start" x="561" y="-320.8" font-family="Arial" font-weight="bold" font-size="14.00"> </text>
</g>
<!-- 6&#45;&gt;10 -->
<g id="edge8" class="edge">
<title>6&#45;&gt;10</title>
<path fill="none" stroke="#888888" d="M508.16,-461.67C513.27,-452.94 518.57,-443.88 523.77,-434.99"/>
<polygon fill="#888888" stroke="#888888" points="526.9,-436.57 528.94,-426.18 520.86,-433.04 526.9,-436.57"/>
</g>
<!-- 8 -->
<g id="node10" class="node">
<title>8</title>
<text text-anchor="start" x="231" y="-253.8" font-family="Arial" font-weight="bold" font-size="14.00"> &lt; 27.31</text>
<path fill="#f8766d" fill-opacity="0.756863" stroke="transparent" d="M211,-181C211,-181 301,-181 301,-181 307,-181 313,-187 313,-193 313,-193 313,-233 313,-233 313,-239 307,-245 301,-245 301,-245 211,-245 211,-245 205,-245 199,-239 199,-233 199,-233 199,-193 199,-193 199,-187 205,-181 211,-181"/>
<text text-anchor="start" x="200" y="-242.4" font-family="Arial" font-size="2.00"> </text>
<text text-anchor="start" x="200" y="-236.4" font-family="Arial" font-size="7.00"> &#160;8</text>
<text text-anchor="start" x="214" y="-219.8" font-family="Arial" font-weight="bold" font-size="14.00">Predict 25.61</text>
<text text-anchor="start" x="236" y="-202.8" font-family="Arial" font-weight="bold" font-size="14.00">n = 19</text>
<text text-anchor="start" x="254.5" y="-184.8" font-family="Arial" font-size="9.00"> </text>
<path fill="none" stroke="#333333" d="M211,-181C211,-181 301,-181 301,-181 307,-181 313,-187 313,-193 313,-193 313,-233 313,-233 313,-239 307,-245 301,-245 301,-245 211,-245 211,-245 205,-245 199,-239 199,-233 199,-233 199,-193 199,-193 199,-187 205,-181 211,-181"/>
<text text-anchor="start" x="254" y="-166.8" font-family="Arial" font-weight="bold" font-size="14.00"> </text>
</g>
<!-- 7&#45;&gt;8 -->
<g id="edge9" class="edge">
<title>7&#45;&gt;8</title>
<path fill="none" stroke="#888888" d="M341.04,-307.67C332.7,-298.49 324.04,-288.94 315.56,-279.6"/>
<polygon fill="#888888" stroke="#888888" points="318.13,-277.23 308.82,-272.18 312.95,-281.93 318.13,-277.23"/>
</g>
<!-- 9 -->
<g id="node11" class="node">
<title>9</title>
<text text-anchor="start" x="387.5" y="-253.8" font-family="Arial" font-weight="bold" font-size="14.00"> ≥ 27.31</text>
<path fill="#f8766d" fill-opacity="0.639216" stroke="transparent" d="M367,-181C367,-181 457,-181 457,-181 463,-181 469,-187 469,-193 469,-193 469,-233 469,-233 469,-239 463,-245 457,-245 457,-245 367,-245 367,-245 361,-245 355,-239 355,-233 355,-233 355,-193 355,-193 355,-187 361,-181 367,-181"/>
<text text-anchor="start" x="356" y="-242.4" font-family="Arial" font-size="2.00"> </text>
<text text-anchor="start" x="356" y="-236.4" font-family="Arial" font-size="7.00"> &#160;9</text>
<text text-anchor="start" x="370" y="-219.8" font-family="Arial" font-weight="bold" font-size="14.00">Predict 30.56</text>
<text text-anchor="start" x="392" y="-202.8" font-family="Arial" font-weight="bold" font-size="14.00">n = 24</text>
<text text-anchor="start" x="410.5" y="-184.8" font-family="Arial" font-size="9.00"> </text>
<path fill="none" stroke="#333333" d="M367,-181C367,-181 457,-181 457,-181 463,-181 469,-187 469,-193 469,-193 469,-233 469,-233 469,-239 463,-245 457,-245 457,-245 367,-245 367,-245 361,-245 355,-239 355,-233 355,-233 355,-193 355,-193 355,-187 361,-181 367,-181"/>
<text text-anchor="start" x="410" y="-166.8" font-family="Arial" font-weight="bold" font-size="14.00"> </text>
</g>
<!-- 7&#45;&gt;9 -->
<g id="edge10" class="edge">
<title>7&#45;&gt;9</title>
<path fill="none" stroke="#888888" d="M400.91,-307.67C401.89,-299.39 402.9,-290.83 403.9,-282.38"/>
<polygon fill="#888888" stroke="#888888" points="407.41,-282.52 405.11,-272.18 400.46,-281.7 407.41,-282.52"/>
</g>
<!-- 13 -->
<g id="node14" class="node">
<title>13</title>
<text text-anchor="start" x="707" y="-407.8" font-family="Arial" font-weight="bold" font-size="14.00"> &lt; 37.37</text>
<text text-anchor="start" x="660" y="-363.3" font-family="Arial" font-size="14.00"> &#160;&#160;&#160;</text>
<path fill="#ebebeb" stroke="transparent" d="M690,-335C690,-335 774,-335 774,-335 780,-335 786,-341 786,-347 786,-347 786,-387 786,-387 786,-393 780,-399 774,-399 774,-399 690,-399 690,-399 684,-399 678,-393 678,-387 678,-387 678,-347 678,-347 678,-341 684,-335 690,-335"/>
<text text-anchor="start" x="679" y="-396.4" font-family="Arial" font-size="2.00"> </text>
<text text-anchor="start" x="679" y="-390.4" font-family="Arial" font-size="7.00"> &#160;13</text>
<text text-anchor="start" x="693" y="-373.8" font-family="Arial" font-weight="bold" font-size="14.00">Mean: 32.73</text>
<text text-anchor="start" x="708.5" y="-356.8" font-family="Arial" font-weight="bold" font-size="14.00">n = 175</text>
<text text-anchor="start" x="730.5" y="-338.8" font-family="Arial" font-size="9.00"> </text>
<path fill="none" stroke="#333333" d="M690,-335C690,-335 774,-335 774,-335 780,-335 786,-341 786,-347 786,-347 786,-387 786,-387 786,-393 780,-399 774,-399 774,-399 690,-399 690,-399 684,-399 678,-393 678,-387 678,-387 678,-347 678,-347 678,-341 684,-335 690,-335"/>
<text text-anchor="start" x="788" y="-363.3" font-family="Arial" font-size="14.00"> &#160;&#160;&#160;</text>
<text text-anchor="start" x="674.5" y="-320.8" font-family="Arial" font-weight="bold" font-size="14.00">prev_168h_inflow</text>
</g>
<!-- 12&#45;&gt;13 -->
<g id="edge13" class="edge">
<title>12&#45;&gt;13</title>
<path fill="none" stroke="#888888" d="M780.07,-461.67C775.63,-453.03 771.04,-444.07 766.52,-435.27"/>
<polygon fill="#888888" stroke="#888888" points="769.53,-433.48 761.85,-426.18 763.31,-436.67 769.53,-433.48"/>
</g>
<!-- 18 -->
<g id="node15" class="node">
<title>18</title>
<text text-anchor="start" x="876.5" y="-407.8" font-family="Arial" font-weight="bold" font-size="14.00"> ≥ 37.37</text>
<path fill="#f8766d" fill-opacity="0.470588" stroke="transparent" d="M856,-335C856,-335 946,-335 946,-335 952,-335 958,-341 958,-347 958,-347 958,-387 958,-387 958,-393 952,-399 946,-399 946,-399 856,-399 856,-399 850,-399 844,-393 844,-387 844,-387 844,-347 844,-347 844,-341 850,-335 856,-335"/>
<text text-anchor="start" x="845" y="-396.4" font-family="Arial" font-size="2.00"> </text>
<text text-anchor="start" x="845" y="-390.4" font-family="Arial" font-size="7.00"> &#160;18</text>
<text text-anchor="start" x="859" y="-373.8" font-family="Arial" font-weight="bold" font-size="14.00">Predict 37.81</text>
<text text-anchor="start" x="881" y="-356.8" font-family="Arial" font-weight="bold" font-size="14.00">n = 43</text>
<text text-anchor="start" x="899.5" y="-338.8" font-family="Arial" font-size="9.00"> </text>
<path fill="none" stroke="#333333" d="M856,-335C856,-335 946,-335 946,-335 952,-335 958,-341 958,-347 958,-347 958,-387 958,-387 958,-393 952,-399 946,-399 946,-399 856,-399 856,-399 850,-399 844,-393 844,-387 844,-387 844,-347 844,-347 844,-341 850,-335 856,-335"/>
<text text-anchor="start" x="899" y="-320.8" font-family="Arial" font-weight="bold" font-size="14.00"> </text>
</g>
<!-- 12&#45;&gt;18 -->
<g id="edge14" class="edge">
<title>12&#45;&gt;18</title>
<path fill="none" stroke="#888888" d="M844.92,-461.67C850.15,-452.94 855.57,-443.88 860.89,-434.99"/>
<polygon fill="#888888" stroke="#888888" points="864.04,-436.55 866.17,-426.18 858.03,-432.96 864.04,-436.55"/>
</g>
<!-- 20 -->
<g id="node20" class="node">
<title>20</title>
<text text-anchor="start" x="1041" y="-407.8" font-family="Arial" font-weight="bold" font-size="14.00"> &lt; 41.21</text>
<text text-anchor="start" x="998" y="-363.3" font-family="Arial" font-size="14.00"> &#160;&#160;</text>
<path fill="#ebebeb" stroke="transparent" d="M1024,-335C1024,-335 1108,-335 1108,-335 1114,-335 1120,-341 1120,-347 1120,-347 1120,-387 1120,-387 1120,-393 1114,-399 1108,-399 1108,-399 1024,-399 1024,-399 1018,-399 1012,-393 1012,-387 1012,-387 1012,-347 1012,-347 1012,-341 1018,-335 1024,-335"/>
<text text-anchor="start" x="1013" y="-396.4" font-family="Arial" font-size="2.00"> </text>
<text text-anchor="start" x="1013" y="-390.4" font-family="Arial" font-size="7.00"> &#160;20</text>
<text text-anchor="start" x="1027" y="-373.8" font-family="Arial" font-weight="bold" font-size="14.00">Mean: 37.99</text>
<text text-anchor="start" x="1042.5" y="-356.8" font-family="Arial" font-weight="bold" font-size="14.00">n = 146</text>
<text text-anchor="start" x="1064.5" y="-338.8" font-family="Arial" font-size="9.00"> </text>
<path fill="none" stroke="#333333" d="M1024,-335C1024,-335 1108,-335 1108,-335 1114,-335 1120,-341 1120,-347 1120,-347 1120,-387 1120,-387 1120,-393 1114,-399 1108,-399 1108,-399 1024,-399 1024,-399 1018,-399 1012,-393 1012,-387 1012,-387 1012,-347 1012,-347 1012,-341 1018,-335 1024,-335"/>
<text text-anchor="start" x="1122" y="-363.3" font-family="Arial" font-size="14.00"> &#160;&#160;</text>
<text text-anchor="start" x="1012.5" y="-320.8" font-family="Arial" font-weight="bold" font-size="14.00">prev_24h_inflow</text>
</g>
<!-- 19&#45;&gt;20 -->
<g id="edge19" class="edge">
<title>19&#45;&gt;20</title>
<path fill="none" stroke="#888888" d="M1066,-461.67C1066,-453.39 1066,-444.83 1066,-436.38"/>
<polygon fill="#888888" stroke="#888888" points="1069.5,-436.18 1066,-426.18 1062.5,-436.18 1069.5,-436.18"/>
</g>
<!-- 25 -->
<g id="node21" class="node">
<title>25</title>
<text text-anchor="start" x="1206.5" y="-407.8" font-family="Arial" font-weight="bold" font-size="14.00"> ≥ 41.21</text>
<path fill="#f8766d" fill-opacity="0.376471" stroke="transparent" d="M1186,-335C1186,-335 1276,-335 1276,-335 1282,-335 1288,-341 1288,-347 1288,-347 1288,-387 1288,-387 1288,-393 1282,-399 1276,-399 1276,-399 1186,-399 1186,-399 1180,-399 1174,-393 1174,-387 1174,-387 1174,-347 1174,-347 1174,-341 1180,-335 1186,-335"/>
<text text-anchor="start" x="1175" y="-396.4" font-family="Arial" font-size="2.00"> </text>
<text text-anchor="start" x="1175" y="-390.4" font-family="Arial" font-size="7.00"> &#160;25</text>
<text text-anchor="start" x="1189" y="-373.8" font-family="Arial" font-weight="bold" font-size="14.00">Predict 41.85</text>
<text text-anchor="start" x="1211" y="-356.8" font-family="Arial" font-weight="bold" font-size="14.00">n = 45</text>
<text text-anchor="start" x="1229.5" y="-338.8" font-family="Arial" font-size="9.00"> </text>
<path fill="none" stroke="#333333" d="M1186,-335C1186,-335 1276,-335 1276,-335 1282,-335 1288,-341 1288,-347 1288,-347 1288,-387 1288,-387 1288,-393 1282,-399 1276,-399 1276,-399 1186,-399 1186,-399 1180,-399 1174,-393 1174,-387 1174,-387 1174,-347 1174,-347 1174,-341 1180,-335 1186,-335"/>
<text text-anchor="start" x="1229" y="-320.8" font-family="Arial" font-weight="bold" font-size="14.00"> </text>
</g>
<!-- 19&#45;&gt;25 -->
<g id="edge20" class="edge">
<title>19&#45;&gt;25</title>
<path fill="none" stroke="#888888" d="M1129.32,-461.67C1139.49,-452.3 1150.06,-442.56 1160.39,-433.05"/>
<polygon fill="#888888" stroke="#888888" points="1162.86,-435.53 1167.85,-426.18 1158.12,-430.38 1162.86,-435.53"/>
</g>
<!-- 14 -->
<g id="node16" class="node">
<title>14</title>
<text text-anchor="start" x="561" y="-253.8" font-family="Arial" font-weight="bold" font-size="14.00"> &lt; 33.16</text>
<path fill="#f8766d" fill-opacity="0.615686" stroke="transparent" d="M545,-181C545,-181 627,-181 627,-181 633,-181 639,-187 639,-193 639,-193 639,-233 639,-233 639,-239 633,-245 627,-245 627,-245 545,-245 545,-245 539,-245 533,-239 533,-233 533,-233 533,-193 533,-193 533,-187 539,-181 545,-181"/>
<text text-anchor="start" x="534" y="-242.4" font-family="Arial" font-size="2.00"> </text>
<text text-anchor="start" x="534" y="-236.4" font-family="Arial" font-size="7.00"> &#160;14</text>
<text text-anchor="start" x="548" y="-219.8" font-family="Arial" font-weight="bold" font-size="14.00">Predict 31.7</text>
<text text-anchor="start" x="566" y="-202.8" font-family="Arial" font-weight="bold" font-size="14.00">n = 93</text>
<text text-anchor="start" x="584.5" y="-184.8" font-family="Arial" font-size="9.00"> </text>
<path fill="none" stroke="#333333" d="M545,-181C545,-181 627,-181 627,-181 633,-181 639,-187 639,-193 639,-193 639,-233 639,-233 639,-239 633,-245 627,-245 627,-245 545,-245 545,-245 539,-245 533,-239 533,-233 533,-233 533,-193 533,-193 533,-187 539,-181 545,-181"/>
<text text-anchor="start" x="584" y="-166.8" font-family="Arial" font-weight="bold" font-size="14.00"> </text>
</g>
<!-- 13&#45;&gt;14 -->
<g id="edge15" class="edge">
<title>13&#45;&gt;14</title>
<path fill="none" stroke="#888888" d="M675.97,-307.67C667.15,-298.49 657.98,-288.94 649.02,-279.6"/>
<polygon fill="#888888" stroke="#888888" points="651.33,-276.96 641.88,-272.18 646.28,-281.81 651.33,-276.96"/>
</g>
<!-- 15 -->
<g id="node17" class="node">
<title>15</title>
<text text-anchor="start" x="710.5" y="-253.8" font-family="Arial" font-weight="bold" font-size="14.00"> ≥ 33.16</text>
<path fill="#ebebeb" stroke="transparent" d="M693,-181C693,-181 777,-181 777,-181 783,-181 789,-187 789,-193 789,-193 789,-233 789,-233 789,-239 783,-245 777,-245 777,-245 693,-245 693,-245 687,-245 681,-239 681,-233 681,-233 681,-193 681,-193 681,-187 687,-181 693,-181"/>
<text text-anchor="start" x="682" y="-242.4" font-family="Arial" font-size="2.00"> </text>
<text text-anchor="start" x="682" y="-236.4" font-family="Arial" font-size="7.00"> &#160;15</text>
<text text-anchor="start" x="696" y="-219.8" font-family="Arial" font-weight="bold" font-size="14.00">Mean: 33.89</text>
<text text-anchor="start" x="715" y="-202.8" font-family="Arial" font-weight="bold" font-size="14.00">n = 82</text>
<text text-anchor="start" x="733.5" y="-184.8" font-family="Arial" font-size="9.00"> </text>
<path fill="none" stroke="#333333" d="M693,-181C693,-181 777,-181 777,-181 783,-181 789,-187 789,-193 789,-193 789,-233 789,-233 789,-239 783,-245 777,-245 777,-245 693,-245 693,-245 687,-245 681,-239 681,-233 681,-233 681,-193 681,-193 681,-187 687,-181 693,-181"/>
<text text-anchor="start" x="706" y="-166.8" font-family="Arial" font-weight="bold" font-size="14.00">air_temp</text>
</g>
<!-- 13&#45;&gt;15 -->
<g id="edge16" class="edge">
<title>13&#45;&gt;15</title>
<path fill="none" stroke="#888888" d="M733.15,-307.67C733.31,-299.39 733.48,-290.83 733.65,-282.38"/>
<polygon fill="#888888" stroke="#888888" points="737.15,-282.24 733.85,-272.18 730.16,-282.11 737.15,-282.24"/>
</g>
<!-- 16 -->
<g id="node18" class="node">
<title>16</title>
<text text-anchor="start" x="570" y="-99.8" font-family="Arial" font-weight="bold" font-size="14.00"> &lt; 29</text>
<path fill="#f8766d" fill-opacity="0.580392" stroke="transparent" d="M541,-27C541,-27 630,-27 630,-27 636,-27 642,-33 642,-39 642,-39 642,-79 642,-79 642,-85 636,-91 630,-91 630,-91 541,-91 541,-91 535,-91 529,-85 529,-79 529,-79 529,-39 529,-39 529,-33 535,-27 541,-27"/>
<text text-anchor="start" x="530" y="-88.4" font-family="Arial" font-size="2.00"> </text>
<text text-anchor="start" x="530" y="-82.4" font-family="Arial" font-size="7.00"> &#160;16</text>
<text text-anchor="start" x="544" y="-65.8" font-family="Arial" font-weight="bold" font-size="14.00">Predict 33.11</text>
<text text-anchor="start" x="565.5" y="-48.8" font-family="Arial" font-weight="bold" font-size="14.00">n = 60</text>
<text text-anchor="start" x="584" y="-30.8" font-family="Arial" font-size="9.00"> </text>
<path fill="none" stroke="#333333" d="M541,-27C541,-27 630,-27 630,-27 636,-27 642,-33 642,-39 642,-39 642,-79 642,-79 642,-85 636,-91 630,-91 630,-91 541,-91 541,-91 535,-91 529,-85 529,-79 529,-79 529,-39 529,-39 529,-33 535,-27 541,-27"/>
<text text-anchor="start" x="583.5" y="-12.8" font-family="Arial" font-weight="bold" font-size="14.00"> </text>
</g>
<!-- 15&#45;&gt;16 -->
<g id="edge17" class="edge">
<title>15&#45;&gt;16</title>
<path fill="none" stroke="#888888" d="M677.44,-153.67C668.28,-144.39 658.77,-134.75 649.47,-125.33"/>
<polygon fill="#888888" stroke="#888888" points="651.93,-122.84 642.41,-118.18 646.94,-127.75 651.93,-122.84"/>
</g>
<!-- 17 -->
<g id="node19" class="node">
<title>17</title>
<text text-anchor="start" x="725.5" y="-99.8" font-family="Arial" font-weight="bold" font-size="14.00"> ≥ 29</text>
<path fill="#f8766d" fill-opacity="0.513725" stroke="transparent" d="M696,-27C696,-27 786,-27 786,-27 792,-27 798,-33 798,-39 798,-39 798,-79 798,-79 798,-85 792,-91 786,-91 786,-91 696,-91 696,-91 690,-91 684,-85 684,-79 684,-79 684,-39 684,-39 684,-33 690,-27 696,-27"/>
<text text-anchor="start" x="685" y="-88.4" font-family="Arial" font-size="2.00"> </text>
<text text-anchor="start" x="685" y="-82.4" font-family="Arial" font-size="7.00"> &#160;17</text>
<text text-anchor="start" x="699" y="-65.8" font-family="Arial" font-weight="bold" font-size="14.00">Predict 36.02</text>
<text text-anchor="start" x="721" y="-48.8" font-family="Arial" font-weight="bold" font-size="14.00">n = 22</text>
<text text-anchor="start" x="739.5" y="-30.8" font-family="Arial" font-size="9.00"> </text>
<path fill="none" stroke="#333333" d="M696,-27C696,-27 786,-27 786,-27 792,-27 798,-33 798,-39 798,-39 798,-79 798,-79 798,-85 792,-91 786,-91 786,-91 696,-91 696,-91 690,-91 684,-85 684,-79 684,-79 684,-39 684,-39 684,-33 690,-27 696,-27"/>
<text text-anchor="start" x="739" y="-12.8" font-family="Arial" font-weight="bold" font-size="14.00"> </text>
</g>
<!-- 15&#45;&gt;17 -->
<g id="edge18" class="edge">
<title>15&#45;&gt;17</title>
<path fill="none" stroke="#888888" d="M737.3,-153.67C737.63,-145.39 737.97,-136.83 738.3,-128.38"/>
<polygon fill="#888888" stroke="#888888" points="741.81,-128.31 738.7,-118.18 734.81,-128.03 741.81,-128.31"/>
</g>
<!-- 21 -->
<g id="node22" class="node">
<title>21</title>
<text text-anchor="start" x="964" y="-253.8" font-family="Arial" font-weight="bold" font-size="14.00"> &lt; 40.95</text>
<path fill="#ebebeb" stroke="transparent" d="M947,-181C947,-181 1031,-181 1031,-181 1037,-181 1043,-187 1043,-193 1043,-193 1043,-233 1043,-233 1043,-239 1037,-245 1031,-245 1031,-245 947,-245 947,-245 941,-245 935,-239 935,-233 935,-233 935,-193 935,-193 935,-187 941,-181 947,-181"/>
<text text-anchor="start" x="936" y="-242.4" font-family="Arial" font-size="2.00"> </text>
<text text-anchor="start" x="936" y="-236.4" font-family="Arial" font-size="7.00"> &#160;21</text>
<text text-anchor="start" x="950" y="-219.8" font-family="Arial" font-weight="bold" font-size="14.00">Mean: 37.09</text>
<text text-anchor="start" x="965.5" y="-202.8" font-family="Arial" font-weight="bold" font-size="14.00">n = 104</text>
<text text-anchor="start" x="987.5" y="-184.8" font-family="Arial" font-size="9.00"> </text>
<path fill="none" stroke="#333333" d="M947,-181C947,-181 1031,-181 1031,-181 1037,-181 1043,-187 1043,-193 1043,-193 1043,-233 1043,-233 1043,-239 1037,-245 1031,-245 1031,-245 947,-245 947,-245 941,-245 935,-239 935,-233 935,-233 935,-193 935,-193 935,-187 941,-181 947,-181"/>
<text text-anchor="start" x="953.5" y="-166.8" font-family="Arial" font-weight="bold" font-size="14.00">windspeed</text>
</g>
<!-- 20&#45;&gt;21 -->
<g id="edge21" class="edge">
<title>20&#45;&gt;21</title>
<path fill="none" stroke="#888888" d="M1036.45,-307.67C1032.07,-299.03 1027.54,-290.07 1023.08,-281.27"/>
<polygon fill="#888888" stroke="#888888" points="1026.11,-279.52 1018.47,-272.18 1019.87,-282.68 1026.11,-279.52"/>
</g>
<!-- 24 -->
<g id="node23" class="node">
<title>24</title>
<text text-anchor="start" x="1117.5" y="-253.8" font-family="Arial" font-weight="bold" font-size="14.00"> ≥ 40.95</text>
<path fill="#f8766d" fill-opacity="0.411765" stroke="transparent" d="M1097,-181C1097,-181 1187,-181 1187,-181 1193,-181 1199,-187 1199,-193 1199,-193 1199,-233 1199,-233 1199,-239 1193,-245 1187,-245 1187,-245 1097,-245 1097,-245 1091,-245 1085,-239 1085,-233 1085,-233 1085,-193 1085,-193 1085,-187 1091,-181 1097,-181"/>
<text text-anchor="start" x="1086" y="-242.4" font-family="Arial" font-size="2.00"> </text>
<text text-anchor="start" x="1086" y="-236.4" font-family="Arial" font-size="7.00"> &#160;24</text>
<text text-anchor="start" x="1100" y="-219.8" font-family="Arial" font-weight="bold" font-size="14.00">Predict 40.23</text>
<text text-anchor="start" x="1122" y="-202.8" font-family="Arial" font-weight="bold" font-size="14.00">n = 42</text>
<text text-anchor="start" x="1140.5" y="-184.8" font-family="Arial" font-size="9.00"> </text>
<path fill="none" stroke="#333333" d="M1097,-181C1097,-181 1187,-181 1187,-181 1193,-181 1199,-187 1199,-193 1199,-193 1199,-233 1199,-233 1199,-239 1193,-245 1187,-245 1187,-245 1097,-245 1097,-245 1091,-245 1085,-239 1085,-233 1085,-233 1085,-193 1085,-193 1085,-187 1091,-181 1097,-181"/>
<text text-anchor="start" x="1140" y="-166.8" font-family="Arial" font-weight="bold" font-size="14.00"> </text>
</g>
<!-- 20&#45;&gt;24 -->
<g id="edge22" class="edge">
<title>20&#45;&gt;24</title>
<path fill="none" stroke="#888888" d="M1095.17,-307.67C1099.48,-299.03 1103.96,-290.07 1108.36,-281.27"/>
<polygon fill="#888888" stroke="#888888" points="1111.57,-282.69 1112.91,-272.18 1105.31,-279.56 1111.57,-282.69"/>
</g>
<!-- 22 -->
<g id="node24" class="node">
<title>22</title>
<text text-anchor="start" x="891.5" y="-99.8" font-family="Arial" font-weight="bold" font-size="14.00"> &lt; 9.5</text>
<path fill="#f8766d" fill-opacity="0.450980" stroke="transparent" d="M864,-27C864,-27 954,-27 954,-27 960,-27 966,-33 966,-39 966,-39 966,-79 966,-79 966,-85 960,-91 954,-91 954,-91 864,-91 864,-91 858,-91 852,-85 852,-79 852,-79 852,-39 852,-39 852,-33 858,-27 864,-27"/>
<text text-anchor="start" x="853" y="-88.4" font-family="Arial" font-size="2.00"> </text>
<text text-anchor="start" x="853" y="-82.4" font-family="Arial" font-size="7.00"> &#160;22</text>
<text text-anchor="start" x="867" y="-65.8" font-family="Arial" font-weight="bold" font-size="14.00">Predict 38.55</text>
<text text-anchor="start" x="889" y="-48.8" font-family="Arial" font-weight="bold" font-size="14.00">n = 53</text>
<text text-anchor="start" x="907.5" y="-30.8" font-family="Arial" font-size="9.00"> </text>
<path fill="none" stroke="#333333" d="M864,-27C864,-27 954,-27 954,-27 960,-27 966,-33 966,-39 966,-39 966,-79 966,-79 966,-85 960,-91 954,-91 954,-91 864,-91 864,-91 858,-91 852,-85 852,-79 852,-79 852,-39 852,-39 852,-33 858,-27 864,-27"/>
<text text-anchor="start" x="907" y="-12.8" font-family="Arial" font-weight="bold" font-size="14.00"> </text>
</g>
<!-- 21&#45;&gt;22 -->
<g id="edge23" class="edge">
<title>21&#45;&gt;22</title>
<path fill="none" stroke="#888888" d="M958.3,-153.67C953.75,-145.03 949.04,-136.07 944.41,-127.27"/>
<polygon fill="#888888" stroke="#888888" points="947.37,-125.4 939.62,-118.18 941.18,-128.66 947.37,-125.4"/>
</g>
<!-- 23 -->
<g id="node25" class="node">
<title>23</title>
<text text-anchor="start" x="1048" y="-99.8" font-family="Arial" font-weight="bold" font-size="14.00"> ≥ 9.5</text>
<path fill="#f8766d" fill-opacity="0.521569" stroke="transparent" d="M1020,-27C1020,-27 1110,-27 1110,-27 1116,-27 1122,-33 1122,-39 1122,-39 1122,-79 1122,-79 1122,-85 1116,-91 1110,-91 1110,-91 1020,-91 1020,-91 1014,-91 1008,-85 1008,-79 1008,-79 1008,-39 1008,-39 1008,-33 1014,-27 1020,-27"/>
<text text-anchor="start" x="1009" y="-88.4" font-family="Arial" font-size="2.00"> </text>
<text text-anchor="start" x="1009" y="-82.4" font-family="Arial" font-size="7.00"> &#160;23</text>
<text text-anchor="start" x="1023" y="-65.8" font-family="Arial" font-weight="bold" font-size="14.00">Predict 35.57</text>
<text text-anchor="start" x="1045" y="-48.8" font-family="Arial" font-weight="bold" font-size="14.00">n = 51</text>
<text text-anchor="start" x="1063.5" y="-30.8" font-family="Arial" font-size="9.00"> </text>
<path fill="none" stroke="#333333" d="M1020,-27C1020,-27 1110,-27 1110,-27 1116,-27 1122,-33 1122,-39 1122,-39 1122,-79 1122,-79 1122,-85 1116,-91 1110,-91 1110,-91 1020,-91 1020,-91 1014,-91 1008,-85 1008,-79 1008,-79 1008,-39 1008,-39 1008,-33 1014,-27 1020,-27"/>
<text text-anchor="start" x="1063" y="-12.8" font-family="Arial" font-weight="bold" font-size="14.00"> </text>
</g>
<!-- 21&#45;&gt;23 -->
<g id="edge24" class="edge">
<title>21&#45;&gt;23</title>
<path fill="none" stroke="#888888" d="M1018.17,-153.67C1022.48,-145.03 1026.96,-136.07 1031.36,-127.27"/>
<polygon fill="#888888" stroke="#888888" points="1034.57,-128.69 1035.91,-118.18 1028.31,-125.56 1034.57,-128.69"/>
</g>
</g>
</svg>
