<?xml version="1.0" encoding="UTF-8" standalone="no"?>
<!DOCTYPE svg PUBLIC "-//W3C//DTD SVG 1.1//EN"
 "http://www.w3.org/Graphics/SVG/1.1/DTD/svg11.dtd">
<!-- Generated by graphviz version 2.50.0 (20211204.2007)
 -->
<!-- Pages: 1 -->
<svg width="1230pt" height="588pt"
 viewBox="0.00 0.00 1230.00 588.00" xmlns="http://www.w3.org/2000/svg" xmlns:xlink="http://www.w3.org/1999/xlink">
<g id="graph0" class="graph" transform="scale(1 1) rotate(0) translate(4 584)">
<polygon fill="white" stroke="transparent" points="-4,4 -4,-584 1226,-584 1226,4 -4,4"/>
<!-- 1 -->
<g id="node1" class="node">
<title>1</title>
<text text-anchor="start" x="606" y="-561.8" font-family="Arial" font-weight="bold" font-size="14.00"> </text>
<text text-anchor="start" x="540" y="-517.3" font-family="Arial" font-size="14.00"> &#160;&#160;</text>
<path fill="#ebebeb" stroke="transparent" d="M566,-489C566,-489 650,-489 650,-489 656,-489 662,-495 662,-501 662,-501 662,-541 662,-541 662,-547 656,-553 650,-553 650,-553 566,-553 566,-553 560,-553 554,-547 554,-541 554,-541 554,-501 554,-501 554,-495 560,-489 566,-489"/>
<text text-anchor="start" x="555" y="-550.4" font-family="Arial" font-size="2.00"> </text>
<text text-anchor="start" x="555" y="-544.4" font-family="Arial" font-size="7.00"> &#160;1</text>
<text text-anchor="start" x="569" y="-527.8" font-family="Arial" font-weight="bold" font-size="14.00">Mean: 10.87</text>
<text text-anchor="start" x="584.5" y="-510.8" font-family="Arial" font-weight="bold" font-size="14.00">n = 168</text>
<text text-anchor="start" x="606.5" y="-492.8" font-family="Arial" font-size="9.00"> </text>
<path fill="none" stroke="#333333" d="M566,-489C566,-489 650,-489 650,-489 656,-489 662,-495 662,-501 662,-501 662,-541 662,-541 662,-547 656,-553 650,-553 650,-553 566,-553 566,-553 560,-553 554,-547 554,-541 554,-541 554,-501 554,-501 554,-495 560,-489 566,-489"/>
<text text-anchor="start" x="664" y="-517.3" font-family="Arial" font-size="14.00"> &#160;&#160;</text>
<text text-anchor="start" x="555" y="-474.8" font-family="Arial" font-weight="bold" font-size="14.00">prev_168_inflow</text>
</g>
<!-- 2 -->
<g id="node2" class="node">
<title>2</title>
<text text-anchor="start" x="432" y="-407.8" font-family="Arial" font-weight="bold" font-size="14.00"> &lt; 9.585</text>
<text text-anchor="start" x="389" y="-363.3" font-family="Arial" font-size="14.00"> &#160;&#160;</text>
<path fill="#ebebeb" stroke="transparent" d="M415,-335C415,-335 499,-335 499,-335 505,-335 511,-341 511,-347 511,-347 511,-387 511,-387 511,-393 505,-399 499,-399 499,-399 415,-399 415,-399 409,-399 403,-393 403,-387 403,-387 403,-347 403,-347 403,-341 409,-335 415,-335"/>
<text text-anchor="start" x="404" y="-396.4" font-family="Arial" font-size="2.00"> </text>
<text text-anchor="start" x="404" y="-390.4" font-family="Arial" font-size="7.00"> &#160;2</text>
<text text-anchor="start" x="418" y="-373.8" font-family="Arial" font-weight="bold" font-size="14.00">Mean: 8.997</text>
<text text-anchor="start" x="437" y="-356.8" font-family="Arial" font-weight="bold" font-size="14.00">n = 71</text>
<text text-anchor="start" x="455.5" y="-338.8" font-family="Arial" font-size="9.00"> </text>
<path fill="none" stroke="#333333" d="M415,-335C415,-335 499,-335 499,-335 505,-335 511,-341 511,-347 511,-347 511,-387 511,-387 511,-393 505,-399 499,-399 499,-399 415,-399 415,-399 409,-399 403,-393 403,-387 403,-387 403,-347 403,-347 403,-341 409,-335 415,-335"/>
<text text-anchor="start" x="513" y="-363.3" font-family="Arial" font-size="14.00"> &#160;&#160;</text>
<text text-anchor="start" x="404" y="-320.8" font-family="Arial" font-weight="bold" font-size="14.00">prev_168_inflow</text>
</g>
<!-- 1&#45;&gt;2 -->
<g id="edge1" class="edge">
<title>1&#45;&gt;2</title>
<path fill="none" stroke="#888888" d="M550.05,-461.67C540.84,-452.39 531.26,-442.75 521.9,-433.33"/>
<polygon fill="#888888" stroke="#888888" points="524.32,-430.8 514.79,-426.18 519.36,-435.74 524.32,-430.8"/>
</g>
<!-- 9 -->
<g id="node3" class="node">
<title>9</title>
<text text-anchor="start" x="737.5" y="-407.8" font-family="Arial" font-weight="bold" font-size="14.00"> ≥ 9.585</text>
<text text-anchor="start" x="698" y="-363.3" font-family="Arial" font-size="14.00"> &#160;</text>
<path fill="#ebebeb" stroke="transparent" d="M720,-335C720,-335 804,-335 804,-335 810,-335 816,-341 816,-347 816,-347 816,-387 816,-387 816,-393 810,-399 804,-399 804,-399 720,-399 720,-399 714,-399 708,-393 708,-387 708,-387 708,-347 708,-347 708,-341 714,-335 720,-335"/>
<text text-anchor="start" x="709" y="-396.4" font-family="Arial" font-size="2.00"> </text>
<text text-anchor="start" x="709" y="-390.4" font-family="Arial" font-size="7.00"> &#160;9</text>
<text text-anchor="start" x="723" y="-373.8" font-family="Arial" font-weight="bold" font-size="14.00">Mean: 12.24</text>
<text text-anchor="start" x="742" y="-356.8" font-family="Arial" font-weight="bold" font-size="14.00">n = 97</text>
<text text-anchor="start" x="760.5" y="-338.8" font-family="Arial" font-size="9.00"> </text>
<path fill="none" stroke="#333333" d="M720,-335C720,-335 804,-335 804,-335 810,-335 816,-341 816,-347 816,-347 816,-387 816,-387 816,-393 810,-399 804,-399 804,-399 720,-399 720,-399 714,-399 708,-393 708,-387 708,-387 708,-347 708,-347 708,-341 714,-335 720,-335"/>
<text text-anchor="start" x="818" y="-363.3" font-family="Arial" font-size="14.00"> &#160;</text>
<text text-anchor="start" x="716.5" y="-320.8" font-family="Arial" font-weight="bold" font-size="14.00">prev_1_inflow</text>
</g>
<!-- 1&#45;&gt;9 -->
<g id="edge2" class="edge">
<title>1&#45;&gt;9</title>
<path fill="none" stroke="#888888" d="M667.1,-461.67C676.5,-452.39 686.27,-442.75 695.81,-433.33"/>
<polygon fill="#888888" stroke="#888888" points="698.4,-435.69 703.06,-426.18 693.48,-430.71 698.4,-435.69"/>
</g>
<!-- 3 -->
<g id="node4" class="node">
<title>3</title>
<text text-anchor="start" x="200" y="-253.8" font-family="Arial" font-weight="bold" font-size="14.00"> &lt; 8.175</text>
<text text-anchor="start" x="161" y="-209.3" font-family="Arial" font-size="14.00"> &#160;&#160;</text>
<path fill="#ebebeb" stroke="transparent" d="M187,-181C187,-181 263,-181 263,-181 269,-181 275,-187 275,-193 275,-193 275,-233 275,-233 275,-239 269,-245 263,-245 263,-245 187,-245 187,-245 181,-245 175,-239 175,-233 175,-233 175,-193 175,-193 175,-187 181,-181 187,-181"/>
<text text-anchor="start" x="176" y="-242.4" font-family="Arial" font-size="2.00"> </text>
<text text-anchor="start" x="176" y="-236.4" font-family="Arial" font-size="7.00"> &#160;3</text>
<text text-anchor="start" x="190" y="-219.8" font-family="Arial" font-weight="bold" font-size="14.00">Mean: 8.01</text>
<text text-anchor="start" x="205" y="-202.8" font-family="Arial" font-weight="bold" font-size="14.00">n = 41</text>
<text text-anchor="start" x="223.5" y="-184.8" font-family="Arial" font-size="9.00"> </text>
<path fill="none" stroke="#333333" d="M187,-181C187,-181 263,-181 263,-181 269,-181 275,-187 275,-193 275,-193 275,-233 275,-233 275,-239 269,-245 263,-245 263,-245 187,-245 187,-245 181,-245 175,-239 175,-233 175,-233 175,-193 175,-193 175,-187 181,-181 187,-181"/>
<text text-anchor="start" x="277" y="-209.3" font-family="Arial" font-size="14.00"> &#160;&#160;</text>
<text text-anchor="start" x="175.5" y="-166.8" font-family="Arial" font-weight="bold" font-size="14.00">prev_24_inflow</text>
</g>
<!-- 2&#45;&gt;3 -->
<g id="edge3" class="edge">
<title>2&#45;&gt;3</title>
<path fill="none" stroke="#888888" d="M378.78,-314.75C355.93,-299.78 330.89,-283.38 307.77,-268.23"/>
<polygon fill="#888888" stroke="#888888" points="309.63,-265.27 299.35,-262.71 305.8,-271.12 309.63,-265.27"/>
</g>
<!-- 6 -->
<g id="node5" class="node">
<title>6</title>
<text text-anchor="start" x="432.5" y="-253.8" font-family="Arial" font-weight="bold" font-size="14.00"> ≥ 8.175</text>
<text text-anchor="start" x="393" y="-209.3" font-family="Arial" font-size="14.00"> &#160;</text>
<path fill="#ebebeb" stroke="transparent" d="M415,-181C415,-181 499,-181 499,-181 505,-181 511,-187 511,-193 511,-193 511,-233 511,-233 511,-239 505,-245 499,-245 499,-245 415,-245 415,-245 409,-245 403,-239 403,-233 403,-233 403,-193 403,-193 403,-187 409,-181 415,-181"/>
<text text-anchor="start" x="404" y="-242.4" font-family="Arial" font-size="2.00"> </text>
<text text-anchor="start" x="404" y="-236.4" font-family="Arial" font-size="7.00"> &#160;6</text>
<text text-anchor="start" x="418" y="-219.8" font-family="Arial" font-weight="bold" font-size="14.00">Mean: 10.35</text>
<text text-anchor="start" x="437" y="-202.8" font-family="Arial" font-weight="bold" font-size="14.00">n = 30</text>
<text text-anchor="start" x="455.5" y="-184.8" font-family="Arial" font-size="9.00"> </text>
<path fill="none" stroke="#333333" d="M415,-181C415,-181 499,-181 499,-181 505,-181 511,-187 511,-193 511,-193 511,-233 511,-233 511,-239 505,-245 499,-245 499,-245 415,-245 415,-245 409,-245 403,-239 403,-233 403,-233 403,-193 403,-193 403,-187 409,-181 415,-181"/>
<text text-anchor="start" x="513" y="-209.3" font-family="Arial" font-size="14.00"> &#160;</text>
<text text-anchor="start" x="411.5" y="-166.8" font-family="Arial" font-weight="bold" font-size="14.00">prev_1_inflow</text>
</g>
<!-- 2&#45;&gt;6 -->
<g id="edge4" class="edge">
<title>2&#45;&gt;6</title>
<path fill="none" stroke="#888888" d="M457,-307.67C457,-299.39 457,-290.83 457,-282.38"/>
<polygon fill="#888888" stroke="#888888" points="460.5,-282.18 457,-272.18 453.5,-282.18 460.5,-282.18"/>
</g>
<!-- 10 -->
<g id="node10" class="node">
<title>10</title>
<text text-anchor="start" x="737.5" y="-253.8" font-family="Arial" font-weight="bold" font-size="14.00"> &lt; 10.51</text>
<text text-anchor="start" x="695" y="-209.3" font-family="Arial" font-size="14.00"> &#160;&#160;</text>
<path fill="#ebebeb" stroke="transparent" d="M721,-181C721,-181 804,-181 804,-181 810,-181 816,-187 816,-193 816,-193 816,-233 816,-233 816,-239 810,-245 804,-245 804,-245 721,-245 721,-245 715,-245 709,-239 709,-233 709,-233 709,-193 709,-193 709,-187 715,-181 721,-181"/>
<text text-anchor="start" x="710" y="-242.4" font-family="Arial" font-size="2.00"> </text>
<text text-anchor="start" x="710" y="-236.4" font-family="Arial" font-size="7.00"> &#160;10</text>
<text text-anchor="start" x="724" y="-219.8" font-family="Arial" font-weight="bold" font-size="14.00">Mean: 11.43</text>
<text text-anchor="start" x="742.5" y="-202.8" font-family="Arial" font-weight="bold" font-size="14.00">n = 20</text>
<text text-anchor="start" x="761" y="-184.8" font-family="Arial" font-size="9.00"> </text>
<path fill="none" stroke="#333333" d="M721,-181C721,-181 804,-181 804,-181 810,-181 816,-187 816,-193 816,-193 816,-233 816,-233 816,-239 810,-245 804,-245 804,-245 721,-245 721,-245 715,-245 709,-239 709,-233 709,-233 709,-193 709,-193 709,-187 715,-181 721,-181"/>
<text text-anchor="start" x="818" y="-209.3" font-family="Arial" font-size="14.00"> &#160;&#160;</text>
<text text-anchor="start" x="709.5" y="-166.8" font-family="Arial" font-weight="bold" font-size="14.00">prev_168_inflow</text>
</g>
<!-- 9&#45;&gt;10 -->
<g id="edge9" class="edge">
<title>9&#45;&gt;10</title>
<path fill="none" stroke="#888888" d="M762,-307.67C762,-299.39 762,-290.83 762,-282.38"/>
<polygon fill="#888888" stroke="#888888" points="765.5,-282.18 762,-272.18 758.5,-282.18 765.5,-282.18"/>
</g>
<!-- 13 -->
<g id="node11" class="node">
<title>13</title>
<text text-anchor="start" x="976.5" y="-253.8" font-family="Arial" font-weight="bold" font-size="14.00"> ≥ 10.51</text>
<text text-anchor="start" x="937" y="-209.3" font-family="Arial" font-size="14.00"> &#160;</text>
<path fill="#ebebeb" stroke="transparent" d="M959,-181C959,-181 1043,-181 1043,-181 1049,-181 1055,-187 1055,-193 1055,-193 1055,-233 1055,-233 1055,-239 1049,-245 1043,-245 1043,-245 959,-245 959,-245 953,-245 947,-239 947,-233 947,-233 947,-193 947,-193 947,-187 953,-181 959,-181"/>
<text text-anchor="start" x="948" y="-242.4" font-family="Arial" font-size="2.00"> </text>
<text text-anchor="start" x="948" y="-236.4" font-family="Arial" font-size="7.00"> &#160;13</text>
<text text-anchor="start" x="962" y="-219.8" font-family="Arial" font-weight="bold" font-size="14.00">Mean: 12.45</text>
<text text-anchor="start" x="981" y="-202.8" font-family="Arial" font-weight="bold" font-size="14.00">n = 77</text>
<text text-anchor="start" x="999.5" y="-184.8" font-family="Arial" font-size="9.00"> </text>
<path fill="none" stroke="#333333" d="M959,-181C959,-181 1043,-181 1043,-181 1049,-181 1055,-187 1055,-193 1055,-193 1055,-233 1055,-233 1055,-239 1049,-245 1043,-245 1043,-245 959,-245 959,-245 953,-245 947,-239 947,-233 947,-233 947,-193 947,-193 947,-187 953,-181 959,-181"/>
<text text-anchor="start" x="1057" y="-209.3" font-family="Arial" font-size="14.00"> &#160;</text>
<text text-anchor="start" x="951.5" y="-166.8" font-family="Arial" font-weight="bold" font-size="14.00">prev_24_inflow</text>
</g>
<!-- 9&#45;&gt;13 -->
<g id="edge10" class="edge">
<title>9&#45;&gt;13</title>
<path fill="none" stroke="#888888" d="M836.31,-318.74C862.28,-302.23 891.58,-283.59 918.2,-266.66"/>
<polygon fill="#888888" stroke="#888888" points="920.18,-269.55 926.73,-261.23 916.42,-263.64 920.18,-269.55"/>
</g>
<!-- 4 -->
<g id="node6" class="node">
<title>4</title>
<text text-anchor="start" x="47.5" y="-99.8" font-family="Arial" font-weight="bold" font-size="14.00"> &lt; 6.36</text>
<path fill="#f8766d" fill-opacity="0.874510" stroke="transparent" d="M24,-27C24,-27 114,-27 114,-27 120,-27 126,-33 126,-39 126,-39 126,-79 126,-79 126,-85 120,-91 114,-91 114,-91 24,-91 24,-91 18,-91 12,-85 12,-79 12,-79 12,-39 12,-39 12,-33 18,-27 24,-27"/>
<text text-anchor="start" x="13" y="-88.4" font-family="Arial" font-size="2.00"> </text>
<text text-anchor="start" x="13" y="-82.4" font-family="Arial" font-size="7.00"> &#160;4</text>
<text text-anchor="start" x="27" y="-65.8" font-family="Arial" font-weight="bold" font-size="14.00">Predict 6.298</text>
<text text-anchor="start" x="53" y="-48.8" font-family="Arial" font-weight="bold" font-size="14.00">n = 5</text>
<text text-anchor="start" x="67.5" y="-30.8" font-family="Arial" font-size="9.00"> </text>
<path fill="none" stroke="#333333" d="M24,-27C24,-27 114,-27 114,-27 120,-27 126,-33 126,-39 126,-39 126,-79 126,-79 126,-85 120,-91 114,-91 114,-91 24,-91 24,-91 18,-91 12,-85 12,-79 12,-79 12,-39 12,-39 12,-33 18,-27 24,-27"/>
<text text-anchor="start" x="67" y="-12.8" font-family="Arial" font-weight="bold" font-size="14.00"> </text>
</g>
<!-- 3&#45;&gt;4 -->
<g id="edge5" class="edge">
<title>3&#45;&gt;4</title>
<path fill="none" stroke="#888888" d="M165.13,-153.67C155.62,-144.39 145.72,-134.75 136.05,-125.33"/>
<polygon fill="#888888" stroke="#888888" points="138.31,-122.65 128.71,-118.18 133.43,-127.66 138.31,-122.65"/>
</g>
<!-- 5 -->
<g id="node7" class="node">
<title>5</title>
<text text-anchor="start" x="204" y="-99.8" font-family="Arial" font-weight="bold" font-size="14.00"> ≥ 6.36</text>
<path fill="#f8766d" fill-opacity="0.792157" stroke="transparent" d="M180,-27C180,-27 270,-27 270,-27 276,-27 282,-33 282,-39 282,-39 282,-79 282,-79 282,-85 276,-91 270,-91 270,-91 180,-91 180,-91 174,-91 168,-85 168,-79 168,-79 168,-39 168,-39 168,-33 174,-27 180,-27"/>
<text text-anchor="start" x="169" y="-88.4" font-family="Arial" font-size="2.00"> </text>
<text text-anchor="start" x="169" y="-82.4" font-family="Arial" font-size="7.00"> &#160;5</text>
<text text-anchor="start" x="183" y="-65.8" font-family="Arial" font-weight="bold" font-size="14.00">Predict 8.248</text>
<text text-anchor="start" x="205" y="-48.8" font-family="Arial" font-weight="bold" font-size="14.00">n = 36</text>
<text text-anchor="start" x="223.5" y="-30.8" font-family="Arial" font-size="9.00"> </text>
<path fill="none" stroke="#333333" d="M180,-27C180,-27 270,-27 270,-27 276,-27 282,-33 282,-39 282,-39 282,-79 282,-79 282,-85 276,-91 270,-91 270,-91 180,-91 180,-91 174,-91 168,-85 168,-79 168,-79 168,-39 168,-39 168,-33 174,-27 180,-27"/>
<text text-anchor="start" x="223" y="-12.8" font-family="Arial" font-weight="bold" font-size="14.00"> </text>
</g>
<!-- 3&#45;&gt;5 -->
<g id="edge6" class="edge">
<title>3&#45;&gt;5</title>
<path fill="none" stroke="#888888" d="M225,-153.67C225,-145.39 225,-136.83 225,-128.38"/>
<polygon fill="#888888" stroke="#888888" points="228.5,-128.18 225,-118.18 221.5,-128.18 228.5,-128.18"/>
</g>
<!-- 7 -->
<g id="node8" class="node">
<title>7</title>
<text text-anchor="start" x="356" y="-99.8" font-family="Arial" font-weight="bold" font-size="14.00"> &lt; 10.48</text>
<path fill="#f8766d" fill-opacity="0.741176" stroke="transparent" d="M336,-27C336,-27 426,-27 426,-27 432,-27 438,-33 438,-39 438,-39 438,-79 438,-79 438,-85 432,-91 426,-91 426,-91 336,-91 336,-91 330,-91 324,-85 324,-79 324,-79 324,-39 324,-39 324,-33 330,-27 336,-27"/>
<text text-anchor="start" x="325" y="-88.4" font-family="Arial" font-size="2.00"> </text>
<text text-anchor="start" x="325" y="-82.4" font-family="Arial" font-size="7.00"> &#160;7</text>
<text text-anchor="start" x="339" y="-65.8" font-family="Arial" font-weight="bold" font-size="14.00">Predict 9.441</text>
<text text-anchor="start" x="361" y="-48.8" font-family="Arial" font-weight="bold" font-size="14.00">n = 14</text>
<text text-anchor="start" x="379.5" y="-30.8" font-family="Arial" font-size="9.00"> </text>
<path fill="none" stroke="#333333" d="M336,-27C336,-27 426,-27 426,-27 432,-27 438,-33 438,-39 438,-39 438,-79 438,-79 438,-85 432,-91 426,-91 426,-91 336,-91 336,-91 330,-91 324,-85 324,-79 324,-79 324,-39 324,-39 324,-33 330,-27 336,-27"/>
<text text-anchor="start" x="379" y="-12.8" font-family="Arial" font-weight="bold" font-size="14.00"> </text>
</g>
<!-- 6&#45;&gt;7 -->
<g id="edge7" class="edge">
<title>6&#45;&gt;7</title>
<path fill="none" stroke="#888888" d="M427.83,-153.67C423.52,-145.03 419.04,-136.07 414.64,-127.27"/>
<polygon fill="#888888" stroke="#888888" points="417.69,-125.56 410.09,-118.18 411.43,-128.69 417.69,-125.56"/>
</g>
<!-- 8 -->
<g id="node9" class="node">
<title>8</title>
<text text-anchor="start" x="513" y="-99.8" font-family="Arial" font-weight="bold" font-size="14.00"> ≥ 10.48</text>
<path fill="#f8766d" fill-opacity="0.670588" stroke="transparent" d="M493,-27C493,-27 582,-27 582,-27 588,-27 594,-33 594,-39 594,-39 594,-79 594,-79 594,-85 588,-91 582,-91 582,-91 493,-91 493,-91 487,-91 481,-85 481,-79 481,-79 481,-39 481,-39 481,-33 487,-27 493,-27"/>
<text text-anchor="start" x="482" y="-88.4" font-family="Arial" font-size="2.00"> </text>
<text text-anchor="start" x="482" y="-82.4" font-family="Arial" font-size="7.00"> &#160;8</text>
<text text-anchor="start" x="496" y="-65.8" font-family="Arial" font-weight="bold" font-size="14.00">Predict 11.14</text>
<text text-anchor="start" x="517.5" y="-48.8" font-family="Arial" font-weight="bold" font-size="14.00">n = 16</text>
<text text-anchor="start" x="536" y="-30.8" font-family="Arial" font-size="9.00"> </text>
<path fill="none" stroke="#333333" d="M493,-27C493,-27 582,-27 582,-27 588,-27 594,-33 594,-39 594,-39 594,-79 594,-79 594,-85 588,-91 582,-91 582,-91 493,-91 493,-91 487,-91 481,-85 481,-79 481,-79 481,-39 481,-39 481,-33 487,-27 493,-27"/>
<text text-anchor="start" x="535.5" y="-12.8" font-family="Arial" font-weight="bold" font-size="14.00"> </text>
</g>
<!-- 6&#45;&gt;8 -->
<g id="edge8" class="edge">
<title>6&#45;&gt;8</title>
<path fill="none" stroke="#888888" d="M487.7,-153.67C492.25,-145.03 496.96,-136.07 501.59,-127.27"/>
<polygon fill="#888888" stroke="#888888" points="504.82,-128.66 506.38,-118.18 498.63,-125.4 504.82,-128.66"/>
</g>
<!-- 11 -->
<g id="node12" class="node">
<title>11</title>
<text text-anchor="start" x="668" y="-99.8" font-family="Arial" font-weight="bold" font-size="14.00"> &lt; 15.62</text>
<path fill="#f8766d" fill-opacity="0.686275" stroke="transparent" d="M648,-27C648,-27 738,-27 738,-27 744,-27 750,-33 750,-39 750,-39 750,-79 750,-79 750,-85 744,-91 738,-91 738,-91 648,-91 648,-91 642,-91 636,-85 636,-79 636,-79 636,-39 636,-39 636,-33 642,-27 648,-27"/>
<text text-anchor="start" x="637" y="-88.4" font-family="Arial" font-size="2.00"> </text>
<text text-anchor="start" x="637" y="-82.4" font-family="Arial" font-size="7.00"> &#160;11</text>
<text text-anchor="start" x="651" y="-65.8" font-family="Arial" font-weight="bold" font-size="14.00">Predict 10.69</text>
<text text-anchor="start" x="673" y="-48.8" font-family="Arial" font-weight="bold" font-size="14.00">n = 18</text>
<text text-anchor="start" x="691.5" y="-30.8" font-family="Arial" font-size="9.00"> </text>
<path fill="none" stroke="#333333" d="M648,-27C648,-27 738,-27 738,-27 744,-27 750,-33 750,-39 750,-39 750,-79 750,-79 750,-85 744,-91 738,-91 738,-91 648,-91 648,-91 642,-91 636,-85 636,-79 636,-79 636,-39 636,-39 636,-33 642,-27 648,-27"/>
<text text-anchor="start" x="691" y="-12.8" font-family="Arial" font-weight="bold" font-size="14.00"> </text>
</g>
<!-- 10&#45;&gt;11 -->
<g id="edge11" class="edge">
<title>10&#45;&gt;11</title>
<path fill="none" stroke="#888888" d="M735.52,-153.67C731.64,-145.12 727.62,-136.26 723.66,-127.55"/>
<polygon fill="#888888" stroke="#888888" points="726.73,-125.84 719.41,-118.18 720.36,-128.73 726.73,-125.84"/>
</g>
<!-- 12 -->
<g id="node13" class="node">
<title>12</title>
<text text-anchor="start" x="824.5" y="-99.8" font-family="Arial" font-weight="bold" font-size="14.00"> ≥ 15.62</text>
<path fill="#f8766d" fill-opacity="0.376471" stroke="transparent" d="M804,-27C804,-27 894,-27 894,-27 900,-27 906,-33 906,-39 906,-39 906,-79 906,-79 906,-85 900,-91 894,-91 894,-91 804,-91 804,-91 798,-91 792,-85 792,-79 792,-79 792,-39 792,-39 792,-33 798,-27 804,-27"/>
<text text-anchor="start" x="793" y="-88.4" font-family="Arial" font-size="2.00"> </text>
<text text-anchor="start" x="793" y="-82.4" font-family="Arial" font-size="7.00"> &#160;12</text>
<text text-anchor="start" x="807" y="-65.8" font-family="Arial" font-weight="bold" font-size="14.00">Predict 18.02</text>
<text text-anchor="start" x="833" y="-48.8" font-family="Arial" font-weight="bold" font-size="14.00">n = 2</text>
<text text-anchor="start" x="847.5" y="-30.8" font-family="Arial" font-size="9.00"> </text>
<path fill="none" stroke="#333333" d="M804,-27C804,-27 894,-27 894,-27 900,-27 906,-33 906,-39 906,-39 906,-79 906,-79 906,-85 900,-91 894,-91 894,-91 804,-91 804,-91 798,-91 792,-85 792,-79 792,-79 792,-39 792,-39 792,-33 798,-27 804,-27"/>
<text text-anchor="start" x="847" y="-12.8" font-family="Arial" font-weight="bold" font-size="14.00"> </text>
</g>
<!-- 10&#45;&gt;12 -->
<g id="edge12" class="edge">
<title>10&#45;&gt;12</title>
<path fill="none" stroke="#888888" d="M795.39,-153.67C800.38,-144.94 805.57,-135.88 810.66,-126.99"/>
<polygon fill="#888888" stroke="#888888" points="813.77,-128.59 815.7,-118.18 807.7,-125.12 813.77,-128.59"/>
</g>
<!-- 14 -->
<g id="node14" class="node">
<title>14</title>
<text text-anchor="start" x="979.5" y="-99.8" font-family="Arial" font-weight="bold" font-size="14.00"> &lt; 9.49</text>
<path fill="#f8766d" fill-opacity="0.733333" stroke="transparent" d="M960,-27C960,-27 1042,-27 1042,-27 1048,-27 1054,-33 1054,-39 1054,-39 1054,-79 1054,-79 1054,-85 1048,-91 1042,-91 1042,-91 960,-91 960,-91 954,-91 948,-85 948,-79 948,-79 948,-39 948,-39 948,-33 954,-27 960,-27"/>
<text text-anchor="start" x="949" y="-88.4" font-family="Arial" font-size="2.00"> </text>
<text text-anchor="start" x="949" y="-82.4" font-family="Arial" font-size="7.00"> &#160;14</text>
<text text-anchor="start" x="963" y="-65.8" font-family="Arial" font-weight="bold" font-size="14.00">Predict 9.62</text>
<text text-anchor="start" x="985" y="-48.8" font-family="Arial" font-weight="bold" font-size="14.00">n = 2</text>
<text text-anchor="start" x="999.5" y="-30.8" font-family="Arial" font-size="9.00"> </text>
<path fill="none" stroke="#333333" d="M960,-27C960,-27 1042,-27 1042,-27 1048,-27 1054,-33 1054,-39 1054,-39 1054,-79 1054,-79 1054,-85 1048,-91 1042,-91 1042,-91 960,-91 960,-91 954,-91 948,-85 948,-79 948,-79 948,-39 948,-39 948,-33 954,-27 960,-27"/>
<text text-anchor="start" x="999" y="-12.8" font-family="Arial" font-weight="bold" font-size="14.00"> </text>
</g>
<!-- 13&#45;&gt;14 -->
<g id="edge13" class="edge">
<title>13&#45;&gt;14</title>
<path fill="none" stroke="#888888" d="M1001,-153.67C1001,-145.39 1001,-136.83 1001,-128.38"/>
<polygon fill="#888888" stroke="#888888" points="1004.5,-128.18 1001,-118.18 997.5,-128.18 1004.5,-128.18"/>
</g>
<!-- 15 -->
<g id="node15" class="node">
<title>15</title>
<text text-anchor="start" x="1132" y="-99.8" font-family="Arial" font-weight="bold" font-size="14.00"> ≥ 9.49</text>
<path fill="#f8766d" fill-opacity="0.607843" stroke="transparent" d="M1108,-27C1108,-27 1198,-27 1198,-27 1204,-27 1210,-33 1210,-39 1210,-39 1210,-79 1210,-79 1210,-85 1204,-91 1198,-91 1198,-91 1108,-91 1108,-91 1102,-91 1096,-85 1096,-79 1096,-79 1096,-39 1096,-39 1096,-33 1102,-27 1108,-27"/>
<text text-anchor="start" x="1097" y="-88.4" font-family="Arial" font-size="2.00"> </text>
<text text-anchor="start" x="1097" y="-82.4" font-family="Arial" font-size="7.00"> &#160;15</text>
<text text-anchor="start" x="1111" y="-65.8" font-family="Arial" font-weight="bold" font-size="14.00">Predict 12.53</text>
<text text-anchor="start" x="1133" y="-48.8" font-family="Arial" font-weight="bold" font-size="14.00">n = 75</text>
<text text-anchor="start" x="1151.5" y="-30.8" font-family="Arial" font-size="9.00"> </text>
<path fill="none" stroke="#333333" d="M1108,-27C1108,-27 1198,-27 1198,-27 1204,-27 1210,-33 1210,-39 1210,-39 1210,-79 1210,-79 1210,-85 1204,-91 1198,-91 1198,-91 1108,-91 1108,-91 1102,-91 1096,-85 1096,-79 1096,-79 1096,-39 1096,-39 1096,-33 1102,-27 1108,-27"/>
<text text-anchor="start" x="1151" y="-12.8" font-family="Arial" font-weight="bold" font-size="14.00"> </text>
</g>
<!-- 13&#45;&gt;15 -->
<g id="edge14" class="edge">
<title>13&#45;&gt;15</title>
<path fill="none" stroke="#888888" d="M1059.33,-153.67C1068.61,-144.39 1078.25,-134.75 1087.67,-125.33"/>
<polygon fill="#888888" stroke="#888888" points="1090.23,-127.72 1094.82,-118.18 1085.28,-122.77 1090.23,-127.72"/>
</g>
</g>
</svg>
