<?xml version="1.0" encoding="utf-8"?>
<svg xmlns="http://www.w3.org/2000/svg" xmlns:xlink="http://www.w3.org/1999/xlink" width="1000" height="400" viewBox="0 0 4000 1600">
<defs>
  <clipPath id="clip940">
    <rect x="0" y="0" width="4000" height="1600"/>
  </clipPath>
</defs>
<path clip-path="url(#clip940)" d="M0 1600 L4000 1600 L4000 0 L0 0  Z" fill="#ffffff" fill-rule="evenodd" fill-opacity="1"/>
<defs>
  <clipPath id="clip941">
    <rect x="800" y="0" width="2801" height="1600"/>
  </clipPath>
</defs>
<path clip-path="url(#clip940)" d="M206.379 1497.68 L3180.58 1497.68 L3180.58 47.2441 L206.379 47.2441  Z" fill="#ffffff" fill-rule="evenodd" fill-opacity="1"/>
<defs>
  <clipPath id="clip942">
    <rect x="206" y="47" width="2975" height="1451"/>
  </clipPath>
</defs>
<polyline clip-path="url(#clip942)" style="stroke:#000000; stroke-linecap:round; stroke-linejoin:round; stroke-width:2; stroke-opacity:0.1; fill:none" points="290.554,1497.68 290.554,47.2441 "/>
<polyline clip-path="url(#clip942)" style="stroke:#000000; stroke-linecap:round; stroke-linejoin:round; stroke-width:2; stroke-opacity:0.1; fill:none" points="1097.03,1497.68 1097.03,47.2441 "/>
<polyline clip-path="url(#clip942)" style="stroke:#000000; stroke-linecap:round; stroke-linejoin:round; stroke-width:2; stroke-opacity:0.1; fill:none" points="1903.5,1497.68 1903.5,47.2441 "/>
<polyline clip-path="url(#clip942)" style="stroke:#000000; stroke-linecap:round; stroke-linejoin:round; stroke-width:2; stroke-opacity:0.1; fill:none" points="2709.97,1497.68 2709.97,47.2441 "/>
<polyline clip-path="url(#clip940)" style="stroke:#000000; stroke-linecap:round; stroke-linejoin:round; stroke-width:4; stroke-opacity:1; fill:none" points="206.379,1497.68 3180.58,1497.68 "/>
<polyline clip-path="url(#clip940)" style="stroke:#000000; stroke-linecap:round; stroke-linejoin:round; stroke-width:4; stroke-opacity:1; fill:none" points="290.554,1497.68 290.554,1478.78 "/>
<polyline clip-path="url(#clip940)" style="stroke:#000000; stroke-linecap:round; stroke-linejoin:round; stroke-width:4; stroke-opacity:1; fill:none" points="1097.03,1497.68 1097.03,1478.78 "/>
<polyline clip-path="url(#clip940)" style="stroke:#000000; stroke-linecap:round; stroke-linejoin:round; stroke-width:4; stroke-opacity:1; fill:none" points="1903.5,1497.68 1903.5,1478.78 "/>
<polyline clip-path="url(#clip940)" style="stroke:#000000; stroke-linecap:round; stroke-linejoin:round; stroke-width:4; stroke-opacity:1; fill:none" points="2709.97,1497.68 2709.97,1478.78 "/>
<path clip-path="url(#clip940)" d="M146.193 1573.85 L164.552 1573.85 L164.552 1578.28 L139.865 1578.28 L139.865 1573.85 Q142.86 1570.75 148.016 1565.55 Q153.198 1560.31 154.526 1558.8 Q157.052 1555.96 158.042 1554.01 Q159.058 1552.03 159.058 1550.13 Q159.058 1547.03 156.87 1545.08 Q154.709 1543.12 151.219 1543.12 Q148.745 1543.12 145.985 1543.98 Q143.25 1544.84 140.125 1546.59 L140.125 1541.27 Q143.302 1540 146.063 1539.35 Q148.823 1538.7 151.115 1538.7 Q157.156 1538.7 160.75 1541.72 Q164.344 1544.74 164.344 1549.79 Q164.344 1552.19 163.432 1554.35 Q162.547 1556.48 160.177 1559.4 Q159.526 1560.15 156.037 1563.77 Q152.547 1567.37 146.193 1573.85 Z" fill="#000000" fill-rule="nonzero" fill-opacity="1" /><path clip-path="url(#clip940)" d="M186.844 1542.86 Q182.781 1542.86 180.724 1546.87 Q178.693 1550.86 178.693 1558.88 Q178.693 1566.87 180.724 1570.88 Q182.781 1574.87 186.844 1574.87 Q190.932 1574.87 192.964 1570.88 Q195.021 1566.87 195.021 1558.88 Q195.021 1550.86 192.964 1546.87 Q190.932 1542.86 186.844 1542.86 M186.844 1538.7 Q193.38 1538.7 196.818 1543.88 Q200.281 1549.04 200.281 1558.88 Q200.281 1568.7 196.818 1573.88 Q193.38 1579.04 186.844 1579.04 Q180.307 1579.04 176.844 1573.88 Q173.406 1568.7 173.406 1558.88 Q173.406 1549.04 176.844 1543.88 Q180.307 1538.7 186.844 1538.7 Z" fill="#000000" fill-rule="nonzero" fill-opacity="1" /><path clip-path="url(#clip940)" d="M214.057 1573.85 L232.416 1573.85 L232.416 1578.28 L207.729 1578.28 L207.729 1573.85 Q210.724 1570.75 215.88 1565.55 Q221.062 1560.31 222.391 1558.8 Q224.917 1555.96 225.906 1554.01 Q226.922 1552.03 226.922 1550.13 Q226.922 1547.03 224.734 1545.08 Q222.573 1543.12 219.083 1543.12 Q216.609 1543.12 213.849 1543.98 Q211.115 1544.84 207.99 1546.59 L207.99 1541.27 Q211.167 1540 213.927 1539.35 Q216.687 1538.7 218.979 1538.7 Q225.021 1538.7 228.614 1541.72 Q232.208 1544.74 232.208 1549.79 Q232.208 1552.19 231.297 1554.35 Q230.411 1556.48 228.042 1559.4 Q227.39 1560.15 223.901 1563.77 Q220.411 1567.37 214.057 1573.85 Z" fill="#000000" fill-rule="nonzero" fill-opacity="1" /><path clip-path="url(#clip940)" d="M247.989 1573.85 L266.349 1573.85 L266.349 1578.28 L241.661 1578.28 L241.661 1573.85 Q244.656 1570.75 249.812 1565.55 Q254.995 1560.31 256.323 1558.8 Q258.849 1555.96 259.838 1554.01 Q260.854 1552.03 260.854 1550.13 Q260.854 1547.03 258.666 1545.08 Q256.505 1543.12 253.015 1543.12 Q250.541 1543.12 247.781 1543.98 Q245.047 1544.84 241.922 1546.59 L241.922 1541.27 Q245.099 1540 247.859 1539.35 Q250.62 1538.7 252.911 1538.7 Q258.953 1538.7 262.547 1541.72 Q266.14 1544.74 266.14 1549.79 Q266.14 1552.19 265.229 1554.35 Q264.343 1556.48 261.974 1559.4 Q261.323 1560.15 257.833 1563.77 Q254.343 1567.37 247.989 1573.85 Z" fill="#000000" fill-rule="nonzero" fill-opacity="1" /><path clip-path="url(#clip940)" d="M274.291 1561.54 L288.328 1561.54 L288.328 1565.81 L274.291 1565.81 L274.291 1561.54 Z" fill="#000000" fill-rule="nonzero" fill-opacity="1" /><path clip-path="url(#clip940)" d="M307.885 1542.86 Q303.822 1542.86 301.765 1546.87 Q299.734 1550.86 299.734 1558.88 Q299.734 1566.87 301.765 1570.88 Q303.822 1574.87 307.885 1574.87 Q311.973 1574.87 314.005 1570.88 Q316.062 1566.87 316.062 1558.88 Q316.062 1550.86 314.005 1546.87 Q311.973 1542.86 307.885 1542.86 M307.885 1538.7 Q314.421 1538.7 317.859 1543.88 Q321.322 1549.04 321.322 1558.88 Q321.322 1568.7 317.859 1573.88 Q314.421 1579.04 307.885 1579.04 Q301.348 1579.04 297.885 1573.88 Q294.447 1568.7 294.447 1558.88 Q294.447 1549.04 297.885 1543.88 Q301.348 1538.7 307.885 1538.7 Z" fill="#000000" fill-rule="nonzero" fill-opacity="1" /><path clip-path="url(#clip940)" d="M329.239 1539.4 L354.239 1539.4 L354.239 1541.64 L340.124 1578.28 L334.629 1578.28 L347.911 1543.83 L329.239 1543.83 L329.239 1539.4 Z" fill="#000000" fill-rule="nonzero" fill-opacity="1" /><path clip-path="url(#clip940)" d="M361.4 1561.54 L375.437 1561.54 L375.437 1565.81 L361.4 1565.81 L361.4 1561.54 Z" fill="#000000" fill-rule="nonzero" fill-opacity="1" /><path clip-path="url(#clip940)" d="M388.275 1573.85 L406.634 1573.85 L406.634 1578.28 L381.947 1578.28 L381.947 1573.85 Q384.942 1570.75 390.098 1565.55 Q395.28 1560.31 396.608 1558.8 Q399.134 1555.96 400.124 1554.01 Q401.14 1552.03 401.14 1550.13 Q401.14 1547.03 398.952 1545.08 Q396.791 1543.12 393.301 1543.12 Q390.827 1543.12 388.067 1543.98 Q385.332 1544.84 382.207 1546.59 L382.207 1541.27 Q385.384 1540 388.145 1539.35 Q390.905 1538.7 393.197 1538.7 Q399.239 1538.7 402.832 1541.72 Q406.426 1544.74 406.426 1549.79 Q406.426 1552.19 405.515 1554.35 Q404.629 1556.48 402.259 1559.4 Q401.608 1560.15 398.119 1563.77 Q394.629 1567.37 388.275 1573.85 Z" fill="#000000" fill-rule="nonzero" fill-opacity="1" /><path clip-path="url(#clip940)" d="M417.728 1539.4 L438.379 1539.4 L438.379 1543.83 L422.546 1543.83 L422.546 1553.36 Q423.692 1552.97 424.837 1552.79 Q425.983 1552.58 427.129 1552.58 Q433.639 1552.58 437.441 1556.14 Q441.244 1559.71 441.244 1565.81 Q441.244 1572.08 437.337 1575.57 Q433.431 1579.04 426.322 1579.04 Q423.874 1579.04 421.322 1578.62 Q418.796 1578.2 416.087 1577.37 L416.087 1572.08 Q418.431 1573.36 420.931 1573.98 Q423.431 1574.61 426.218 1574.61 Q430.723 1574.61 433.353 1572.24 Q435.983 1569.87 435.983 1565.81 Q435.983 1561.74 433.353 1559.37 Q430.723 1557 426.218 1557 Q424.108 1557 421.999 1557.47 Q419.915 1557.94 417.728 1558.93 L417.728 1539.4 Z" fill="#000000" fill-rule="nonzero" fill-opacity="1" /><path clip-path="url(#clip940)" d="M952.614 1573.85 L970.973 1573.85 L970.973 1578.28 L946.286 1578.28 L946.286 1573.85 Q949.281 1570.75 954.437 1565.55 Q959.619 1560.31 960.947 1558.8 Q963.473 1555.96 964.463 1554.01 Q965.479 1552.03 965.479 1550.13 Q965.479 1547.03 963.291 1545.08 Q961.13 1543.12 957.64 1543.12 Q955.166 1543.12 952.406 1543.98 Q949.671 1544.84 946.546 1546.59 L946.546 1541.27 Q949.723 1540 952.484 1539.35 Q955.244 1538.7 957.536 1538.7 Q963.577 1538.7 967.171 1541.72 Q970.765 1544.74 970.765 1549.79 Q970.765 1552.19 969.854 1554.35 Q968.968 1556.48 966.598 1559.4 Q965.947 1560.15 962.458 1563.77 Q958.968 1567.37 952.614 1573.85 Z" fill="#000000" fill-rule="nonzero" fill-opacity="1" /><path clip-path="url(#clip940)" d="M993.265 1542.86 Q989.202 1542.86 987.145 1546.87 Q985.114 1550.86 985.114 1558.88 Q985.114 1566.87 987.145 1570.88 Q989.202 1574.87 993.265 1574.87 Q997.353 1574.87 999.385 1570.88 Q1001.44 1566.87 1001.44 1558.88 Q1001.44 1550.86 999.385 1546.87 Q997.353 1542.86 993.265 1542.86 M993.265 1538.7 Q999.801 1538.7 1003.24 1543.88 Q1006.7 1549.04 1006.7 1558.88 Q1006.7 1568.7 1003.24 1573.88 Q999.801 1579.04 993.265 1579.04 Q986.728 1579.04 983.265 1573.88 Q979.827 1568.7 979.827 1558.88 Q979.827 1549.04 983.265 1543.88 Q986.728 1538.7 993.265 1538.7 Z" fill="#000000" fill-rule="nonzero" fill-opacity="1" /><path clip-path="url(#clip940)" d="M1020.48 1573.85 L1038.84 1573.85 L1038.84 1578.28 L1014.15 1578.28 L1014.15 1573.85 Q1017.14 1570.75 1022.3 1565.55 Q1027.48 1560.31 1028.81 1558.8 Q1031.34 1555.96 1032.33 1554.01 Q1033.34 1552.03 1033.34 1550.13 Q1033.34 1547.03 1031.16 1545.08 Q1028.99 1543.12 1025.5 1543.12 Q1023.03 1543.12 1020.27 1543.98 Q1017.54 1544.84 1014.41 1546.59 L1014.41 1541.27 Q1017.59 1540 1020.35 1539.35 Q1023.11 1538.7 1025.4 1538.7 Q1031.44 1538.7 1035.04 1541.72 Q1038.63 1544.74 1038.63 1549.79 Q1038.63 1552.19 1037.72 1554.35 Q1036.83 1556.48 1034.46 1559.4 Q1033.81 1560.15 1030.32 1563.77 Q1026.83 1567.37 1020.48 1573.85 Z" fill="#000000" fill-rule="nonzero" fill-opacity="1" /><path clip-path="url(#clip940)" d="M1054.41 1573.85 L1072.77 1573.85 L1072.77 1578.28 L1048.08 1578.28 L1048.08 1573.85 Q1051.08 1570.75 1056.23 1565.55 Q1061.42 1560.31 1062.74 1558.8 Q1065.27 1555.96 1066.26 1554.01 Q1067.27 1552.03 1067.27 1550.13 Q1067.27 1547.03 1065.09 1545.08 Q1062.93 1543.12 1059.44 1543.12 Q1056.96 1543.12 1054.2 1543.98 Q1051.47 1544.84 1048.34 1546.59 L1048.34 1541.27 Q1051.52 1540 1054.28 1539.35 Q1057.04 1538.7 1059.33 1538.7 Q1065.37 1538.7 1068.97 1541.72 Q1072.56 1544.74 1072.56 1549.79 Q1072.56 1552.19 1071.65 1554.35 Q1070.76 1556.48 1068.39 1559.4 Q1067.74 1560.15 1064.25 1563.77 Q1060.76 1567.37 1054.41 1573.85 Z" fill="#000000" fill-rule="nonzero" fill-opacity="1" /><path clip-path="url(#clip940)" d="M1080.71 1561.54 L1094.75 1561.54 L1094.75 1565.81 L1080.71 1565.81 L1080.71 1561.54 Z" fill="#000000" fill-rule="nonzero" fill-opacity="1" /><path clip-path="url(#clip940)" d="M1114.31 1542.86 Q1110.24 1542.86 1108.19 1546.87 Q1106.15 1550.86 1106.15 1558.88 Q1106.15 1566.87 1108.19 1570.88 Q1110.24 1574.87 1114.31 1574.87 Q1118.39 1574.87 1120.43 1570.88 Q1122.48 1566.87 1122.48 1558.88 Q1122.48 1550.86 1120.43 1546.87 Q1118.39 1542.86 1114.31 1542.86 M1114.31 1538.7 Q1120.84 1538.7 1124.28 1543.88 Q1127.74 1549.04 1127.74 1558.88 Q1127.74 1568.7 1124.28 1573.88 Q1120.84 1579.04 1114.31 1579.04 Q1107.77 1579.04 1104.31 1573.88 Q1100.87 1568.7 1100.87 1558.88 Q1100.87 1549.04 1104.31 1543.88 Q1107.77 1538.7 1114.31 1538.7 Z" fill="#000000" fill-rule="nonzero" fill-opacity="1" /><path clip-path="url(#clip940)" d="M1135.66 1539.4 L1160.66 1539.4 L1160.66 1541.64 L1146.55 1578.28 L1141.05 1578.28 L1154.33 1543.83 L1135.66 1543.83 L1135.66 1539.4 Z" fill="#000000" fill-rule="nonzero" fill-opacity="1" /><path clip-path="url(#clip940)" d="M1167.82 1561.54 L1181.86 1561.54 L1181.86 1565.81 L1167.82 1565.81 L1167.82 1561.54 Z" fill="#000000" fill-rule="nonzero" fill-opacity="1" /><path clip-path="url(#clip940)" d="M1194.7 1573.85 L1213.06 1573.85 L1213.06 1578.28 L1188.37 1578.28 L1188.37 1573.85 Q1191.36 1570.75 1196.52 1565.55 Q1201.7 1560.31 1203.03 1558.8 Q1205.56 1555.96 1206.54 1554.01 Q1207.56 1552.03 1207.56 1550.13 Q1207.56 1547.03 1205.37 1545.08 Q1203.21 1543.12 1199.72 1543.12 Q1197.25 1543.12 1194.49 1543.98 Q1191.75 1544.84 1188.63 1546.59 L1188.63 1541.27 Q1191.81 1540 1194.57 1539.35 Q1197.33 1538.7 1199.62 1538.7 Q1205.66 1538.7 1209.25 1541.72 Q1212.85 1544.74 1212.85 1549.79 Q1212.85 1552.19 1211.94 1554.35 Q1211.05 1556.48 1208.68 1559.4 Q1208.03 1560.15 1204.54 1563.77 Q1201.05 1567.37 1194.7 1573.85 Z" fill="#000000" fill-rule="nonzero" fill-opacity="1" /><path clip-path="url(#clip940)" d="M1222.77 1539.4 L1247.77 1539.4 L1247.77 1541.64 L1233.65 1578.28 L1228.16 1578.28 L1241.44 1543.83 L1222.77 1543.83 L1222.77 1539.4 Z" fill="#000000" fill-rule="nonzero" fill-opacity="1" /><path clip-path="url(#clip940)" d="M1758.68 1573.85 L1777.04 1573.85 L1777.04 1578.28 L1752.36 1578.28 L1752.36 1573.85 Q1755.35 1570.75 1760.51 1565.55 Q1765.69 1560.31 1767.02 1558.8 Q1769.54 1555.96 1770.53 1554.01 Q1771.55 1552.03 1771.55 1550.13 Q1771.55 1547.03 1769.36 1545.08 Q1767.2 1543.12 1763.71 1543.12 Q1761.24 1543.12 1758.48 1543.98 Q1755.74 1544.84 1752.62 1546.59 L1752.62 1541.27 Q1755.79 1540 1758.55 1539.35 Q1761.31 1538.7 1763.61 1538.7 Q1769.65 1538.7 1773.24 1541.72 Q1776.83 1544.74 1776.83 1549.79 Q1776.83 1552.19 1775.92 1554.35 Q1775.04 1556.48 1772.67 1559.4 Q1772.02 1560.15 1768.53 1563.77 Q1765.04 1567.37 1758.68 1573.85 Z" fill="#000000" fill-rule="nonzero" fill-opacity="1" /><path clip-path="url(#clip940)" d="M1799.33 1542.86 Q1795.27 1542.86 1793.21 1546.87 Q1791.18 1550.86 1791.18 1558.88 Q1791.18 1566.87 1793.21 1570.88 Q1795.27 1574.87 1799.33 1574.87 Q1803.42 1574.87 1805.45 1570.88 Q1807.51 1566.87 1807.51 1558.88 Q1807.51 1550.86 1805.45 1546.87 Q1803.42 1542.86 1799.33 1542.86 M1799.33 1538.7 Q1805.87 1538.7 1809.31 1543.88 Q1812.77 1549.04 1812.77 1558.88 Q1812.77 1568.7 1809.31 1573.88 Q1805.87 1579.04 1799.33 1579.04 Q1792.8 1579.04 1789.33 1573.88 Q1785.9 1568.7 1785.9 1558.88 Q1785.9 1549.04 1789.33 1543.88 Q1792.8 1538.7 1799.33 1538.7 Z" fill="#000000" fill-rule="nonzero" fill-opacity="1" /><path clip-path="url(#clip940)" d="M1826.55 1573.85 L1844.91 1573.85 L1844.91 1578.28 L1820.22 1578.28 L1820.22 1573.85 Q1823.21 1570.75 1828.37 1565.55 Q1833.55 1560.31 1834.88 1558.8 Q1837.41 1555.96 1838.4 1554.01 Q1839.41 1552.03 1839.41 1550.13 Q1839.41 1547.03 1837.22 1545.08 Q1835.06 1543.12 1831.57 1543.12 Q1829.1 1543.12 1826.34 1543.98 Q1823.6 1544.84 1820.48 1546.59 L1820.48 1541.27 Q1823.66 1540 1826.42 1539.35 Q1829.18 1538.7 1831.47 1538.7 Q1837.51 1538.7 1841.1 1541.72 Q1844.7 1544.74 1844.7 1549.79 Q1844.7 1552.19 1843.79 1554.35 Q1842.9 1556.48 1840.53 1559.4 Q1839.88 1560.15 1836.39 1563.77 Q1832.9 1567.37 1826.55 1573.85 Z" fill="#000000" fill-rule="nonzero" fill-opacity="1" /><path clip-path="url(#clip940)" d="M1860.48 1573.85 L1878.84 1573.85 L1878.84 1578.28 L1854.15 1578.28 L1854.15 1573.85 Q1857.15 1570.75 1862.3 1565.55 Q1867.48 1560.31 1868.81 1558.8 Q1871.34 1555.96 1872.33 1554.01 Q1873.34 1552.03 1873.34 1550.13 Q1873.34 1547.03 1871.16 1545.08 Q1869 1543.12 1865.51 1543.12 Q1863.03 1543.12 1860.27 1543.98 Q1857.54 1544.84 1854.41 1546.59 L1854.41 1541.27 Q1857.59 1540 1860.35 1539.35 Q1863.11 1538.7 1865.4 1538.7 Q1871.44 1538.7 1875.04 1541.72 Q1878.63 1544.74 1878.63 1549.79 Q1878.63 1552.19 1877.72 1554.35 Q1876.83 1556.48 1874.46 1559.4 Q1873.81 1560.15 1870.32 1563.77 Q1866.83 1567.37 1860.48 1573.85 Z" fill="#000000" fill-rule="nonzero" fill-opacity="1" /><path clip-path="url(#clip940)" d="M1886.78 1561.54 L1900.82 1561.54 L1900.82 1565.81 L1886.78 1565.81 L1886.78 1561.54 Z" fill="#000000" fill-rule="nonzero" fill-opacity="1" /><path clip-path="url(#clip940)" d="M1920.38 1542.86 Q1916.31 1542.86 1914.26 1546.87 Q1912.22 1550.86 1912.22 1558.88 Q1912.22 1566.87 1914.26 1570.88 Q1916.31 1574.87 1920.38 1574.87 Q1924.46 1574.87 1926.5 1570.88 Q1928.55 1566.87 1928.55 1558.88 Q1928.55 1550.86 1926.5 1546.87 Q1924.46 1542.86 1920.38 1542.86 M1920.38 1538.7 Q1926.91 1538.7 1930.35 1543.88 Q1933.81 1549.04 1933.81 1558.88 Q1933.81 1568.7 1930.35 1573.88 Q1926.91 1579.04 1920.38 1579.04 Q1913.84 1579.04 1910.38 1573.88 Q1906.94 1568.7 1906.94 1558.88 Q1906.94 1549.04 1910.38 1543.88 Q1913.84 1538.7 1920.38 1538.7 Z" fill="#000000" fill-rule="nonzero" fill-opacity="1" /><path clip-path="url(#clip940)" d="M1941.73 1539.4 L1966.73 1539.4 L1966.73 1541.64 L1952.61 1578.28 L1947.12 1578.28 L1960.4 1543.83 L1941.73 1543.83 L1941.73 1539.4 Z" fill="#000000" fill-rule="nonzero" fill-opacity="1" /><path clip-path="url(#clip940)" d="M1973.89 1561.54 L1987.93 1561.54 L1987.93 1565.81 L1973.89 1565.81 L1973.89 1561.54 Z" fill="#000000" fill-rule="nonzero" fill-opacity="1" /><path clip-path="url(#clip940)" d="M2000.77 1573.85 L2019.12 1573.85 L2019.12 1578.28 L1994.44 1578.28 L1994.44 1573.85 Q1997.43 1570.75 2002.59 1565.55 Q2007.77 1560.31 2009.1 1558.8 Q2011.62 1555.96 2012.61 1554.01 Q2013.63 1552.03 2013.63 1550.13 Q2013.63 1547.03 2011.44 1545.08 Q2009.28 1543.12 2005.79 1543.12 Q2003.32 1543.12 2000.56 1543.98 Q1997.82 1544.84 1994.7 1546.59 L1994.7 1541.27 Q1997.87 1540 2000.64 1539.35 Q2003.4 1538.7 2005.69 1538.7 Q2011.73 1538.7 2015.32 1541.72 Q2018.92 1544.74 2018.92 1549.79 Q2018.92 1552.19 2018 1554.35 Q2017.12 1556.48 2014.75 1559.4 Q2014.1 1560.15 2010.61 1563.77 Q2007.12 1567.37 2000.77 1573.85 Z" fill="#000000" fill-rule="nonzero" fill-opacity="1" /><path clip-path="url(#clip940)" d="M2030.32 1577.47 L2030.32 1572.68 Q2032.3 1573.62 2034.33 1574.11 Q2036.36 1574.61 2038.32 1574.61 Q2043.53 1574.61 2046.26 1571.12 Q2049.02 1567.6 2049.41 1560.47 Q2047.9 1562.71 2045.58 1563.9 Q2043.27 1565.1 2040.45 1565.1 Q2034.62 1565.1 2031.21 1561.59 Q2027.82 1558.05 2027.82 1551.93 Q2027.82 1545.94 2031.36 1542.32 Q2034.91 1538.7 2040.79 1538.7 Q2047.54 1538.7 2051.08 1543.88 Q2054.65 1549.04 2054.65 1558.88 Q2054.65 1568.07 2050.27 1573.57 Q2045.92 1579.04 2038.55 1579.04 Q2036.57 1579.04 2034.54 1578.64 Q2032.51 1578.25 2030.32 1577.47 M2040.79 1560.99 Q2044.33 1560.99 2046.39 1558.57 Q2048.47 1556.14 2048.47 1551.93 Q2048.47 1547.73 2046.39 1545.31 Q2044.33 1542.86 2040.79 1542.86 Q2037.25 1542.86 2035.17 1545.31 Q2033.11 1547.73 2033.11 1551.93 Q2033.11 1556.14 2035.17 1558.57 Q2037.25 1560.99 2040.79 1560.99 Z" fill="#000000" fill-rule="nonzero" fill-opacity="1" /><path clip-path="url(#clip940)" d="M2565.74 1573.85 L2584.1 1573.85 L2584.1 1578.28 L2559.41 1578.28 L2559.41 1573.85 Q2562.41 1570.75 2567.57 1565.55 Q2572.75 1560.31 2574.08 1558.8 Q2576.6 1555.96 2577.59 1554.01 Q2578.61 1552.03 2578.61 1550.13 Q2578.61 1547.03 2576.42 1545.08 Q2574.26 1543.12 2570.77 1543.12 Q2568.29 1543.12 2565.53 1543.98 Q2562.8 1544.84 2559.67 1546.59 L2559.67 1541.27 Q2562.85 1540 2565.61 1539.35 Q2568.37 1538.7 2570.66 1538.7 Q2576.71 1538.7 2580.3 1541.72 Q2583.89 1544.74 2583.89 1549.79 Q2583.89 1552.19 2582.98 1554.35 Q2582.1 1556.48 2579.73 1559.4 Q2579.08 1560.15 2575.59 1563.77 Q2572.1 1567.37 2565.74 1573.85 Z" fill="#000000" fill-rule="nonzero" fill-opacity="1" /><path clip-path="url(#clip940)" d="M2606.39 1542.86 Q2602.33 1542.86 2600.27 1546.87 Q2598.24 1550.86 2598.24 1558.88 Q2598.24 1566.87 2600.27 1570.88 Q2602.33 1574.87 2606.39 1574.87 Q2610.48 1574.87 2612.51 1570.88 Q2614.57 1566.87 2614.57 1558.88 Q2614.57 1550.86 2612.51 1546.87 Q2610.48 1542.86 2606.39 1542.86 M2606.39 1538.7 Q2612.93 1538.7 2616.37 1543.88 Q2619.83 1549.04 2619.83 1558.88 Q2619.83 1568.7 2616.37 1573.88 Q2612.93 1579.04 2606.39 1579.04 Q2599.86 1579.04 2596.39 1573.88 Q2592.96 1568.7 2592.96 1558.88 Q2592.96 1549.04 2596.39 1543.88 Q2599.86 1538.7 2606.39 1538.7 Z" fill="#000000" fill-rule="nonzero" fill-opacity="1" /><path clip-path="url(#clip940)" d="M2633.61 1573.85 L2651.97 1573.85 L2651.97 1578.28 L2627.28 1578.28 L2627.28 1573.85 Q2630.27 1570.75 2635.43 1565.55 Q2640.61 1560.31 2641.94 1558.8 Q2644.47 1555.96 2645.46 1554.01 Q2646.47 1552.03 2646.47 1550.13 Q2646.47 1547.03 2644.28 1545.08 Q2642.12 1543.12 2638.63 1543.12 Q2636.16 1543.12 2633.4 1543.98 Q2630.66 1544.84 2627.54 1546.59 L2627.54 1541.27 Q2630.72 1540 2633.48 1539.35 Q2636.24 1538.7 2638.53 1538.7 Q2644.57 1538.7 2648.16 1541.72 Q2651.76 1544.74 2651.76 1549.79 Q2651.76 1552.19 2650.85 1554.35 Q2649.96 1556.48 2647.59 1559.4 Q2646.94 1560.15 2643.45 1563.77 Q2639.96 1567.37 2633.61 1573.85 Z" fill="#000000" fill-rule="nonzero" fill-opacity="1" /><path clip-path="url(#clip940)" d="M2667.54 1573.85 L2685.9 1573.85 L2685.9 1578.28 L2661.21 1578.28 L2661.21 1573.85 Q2664.21 1570.75 2669.36 1565.55 Q2674.54 1560.31 2675.87 1558.8 Q2678.4 1555.96 2679.39 1554.01 Q2680.4 1552.03 2680.4 1550.13 Q2680.4 1547.03 2678.22 1545.08 Q2676.05 1543.12 2672.56 1543.12 Q2670.09 1543.12 2667.33 1543.98 Q2664.6 1544.84 2661.47 1546.59 L2661.47 1541.27 Q2664.65 1540 2667.41 1539.35 Q2670.17 1538.7 2672.46 1538.7 Q2678.5 1538.7 2682.1 1541.72 Q2685.69 1544.74 2685.69 1549.79 Q2685.69 1552.19 2684.78 1554.35 Q2683.89 1556.48 2681.52 1559.4 Q2680.87 1560.15 2677.38 1563.77 Q2673.89 1567.37 2667.54 1573.85 Z" fill="#000000" fill-rule="nonzero" fill-opacity="1" /><path clip-path="url(#clip940)" d="M2693.84 1561.54 L2707.88 1561.54 L2707.88 1565.81 L2693.84 1565.81 L2693.84 1561.54 Z" fill="#000000" fill-rule="nonzero" fill-opacity="1" /><path clip-path="url(#clip940)" d="M2727.43 1542.86 Q2723.37 1542.86 2721.31 1546.87 Q2719.28 1550.86 2719.28 1558.88 Q2719.28 1566.87 2721.31 1570.88 Q2723.37 1574.87 2727.43 1574.87 Q2731.52 1574.87 2733.55 1570.88 Q2735.61 1566.87 2735.61 1558.88 Q2735.61 1550.86 2733.55 1546.87 Q2731.52 1542.86 2727.43 1542.86 M2727.43 1538.7 Q2733.97 1538.7 2737.41 1543.88 Q2740.87 1549.04 2740.87 1558.88 Q2740.87 1568.7 2737.41 1573.88 Q2733.97 1579.04 2727.43 1579.04 Q2720.9 1579.04 2717.43 1573.88 Q2714 1568.7 2714 1558.88 Q2714 1549.04 2717.43 1543.88 Q2720.9 1538.7 2727.43 1538.7 Z" fill="#000000" fill-rule="nonzero" fill-opacity="1" /><path clip-path="url(#clip940)" d="M2748.79 1539.4 L2773.79 1539.4 L2773.79 1541.64 L2759.67 1578.28 L2754.18 1578.28 L2767.46 1543.83 L2748.79 1543.83 L2748.79 1539.4 Z" fill="#000000" fill-rule="nonzero" fill-opacity="1" /><path clip-path="url(#clip940)" d="M2780.95 1561.54 L2794.99 1561.54 L2794.99 1565.81 L2780.95 1565.81 L2780.95 1561.54 Z" fill="#000000" fill-rule="nonzero" fill-opacity="1" /><path clip-path="url(#clip940)" d="M2819.23 1557.32 Q2823.01 1558.12 2825.12 1560.68 Q2827.25 1563.23 2827.25 1566.98 Q2827.25 1572.73 2823.29 1575.88 Q2819.33 1579.04 2812.04 1579.04 Q2809.6 1579.04 2806.99 1578.54 Q2804.41 1578.07 2801.65 1577.11 L2801.65 1572.03 Q2803.84 1573.31 2806.44 1573.96 Q2809.05 1574.61 2811.89 1574.61 Q2816.83 1574.61 2819.41 1572.65 Q2822.02 1570.7 2822.02 1566.98 Q2822.02 1563.54 2819.6 1561.61 Q2817.2 1559.66 2812.9 1559.66 L2808.37 1559.66 L2808.37 1555.34 L2813.11 1555.34 Q2816.99 1555.34 2819.05 1553.8 Q2821.11 1552.24 2821.11 1549.32 Q2821.11 1546.33 2818.97 1544.74 Q2816.86 1543.12 2812.9 1543.12 Q2810.74 1543.12 2808.27 1543.59 Q2805.79 1544.06 2802.82 1545.05 L2802.82 1540.36 Q2805.82 1539.53 2808.42 1539.11 Q2811.05 1538.7 2813.37 1538.7 Q2819.36 1538.7 2822.85 1541.43 Q2826.34 1544.14 2826.34 1548.77 Q2826.34 1552 2824.49 1554.24 Q2822.64 1556.46 2819.23 1557.32 Z" fill="#000000" fill-rule="nonzero" fill-opacity="1" /><path clip-path="url(#clip940)" d="M2838.14 1573.85 L2846.73 1573.85 L2846.73 1544.19 L2837.38 1546.07 L2837.38 1541.27 L2846.68 1539.4 L2851.94 1539.4 L2851.94 1573.85 L2860.53 1573.85 L2860.53 1578.28 L2838.14 1578.28 L2838.14 1573.85 Z" fill="#000000" fill-rule="nonzero" fill-opacity="1" /><polyline clip-path="url(#clip942)" style="stroke:#000000; stroke-linecap:round; stroke-linejoin:round; stroke-width:2; stroke-opacity:0.1; fill:none" points="206.379,1486.73 3180.58,1486.73 "/>
<polyline clip-path="url(#clip942)" style="stroke:#000000; stroke-linecap:round; stroke-linejoin:round; stroke-width:2; stroke-opacity:0.1; fill:none" points="206.379,1213.93 3180.58,1213.93 "/>
<polyline clip-path="url(#clip942)" style="stroke:#000000; stroke-linecap:round; stroke-linejoin:round; stroke-width:2; stroke-opacity:0.1; fill:none" points="206.379,941.128 3180.58,941.128 "/>
<polyline clip-path="url(#clip942)" style="stroke:#000000; stroke-linecap:round; stroke-linejoin:round; stroke-width:2; stroke-opacity:0.1; fill:none" points="206.379,668.328 3180.58,668.328 "/>
<polyline clip-path="url(#clip942)" style="stroke:#000000; stroke-linecap:round; stroke-linejoin:round; stroke-width:2; stroke-opacity:0.1; fill:none" points="206.379,395.528 3180.58,395.528 "/>
<polyline clip-path="url(#clip942)" style="stroke:#000000; stroke-linecap:round; stroke-linejoin:round; stroke-width:2; stroke-opacity:0.1; fill:none" points="206.379,122.728 3180.58,122.728 "/>
<polyline clip-path="url(#clip940)" style="stroke:#000000; stroke-linecap:round; stroke-linejoin:round; stroke-width:4; stroke-opacity:1; fill:none" points="206.379,1497.68 206.379,47.2441 "/>
<polyline clip-path="url(#clip940)" style="stroke:#000000; stroke-linecap:round; stroke-linejoin:round; stroke-width:4; stroke-opacity:1; fill:none" points="206.379,1486.73 221.381,1486.73 "/>
<polyline clip-path="url(#clip940)" style="stroke:#000000; stroke-linecap:round; stroke-linejoin:round; stroke-width:4; stroke-opacity:1; fill:none" points="206.379,1213.93 221.381,1213.93 "/>
<polyline clip-path="url(#clip940)" style="stroke:#000000; stroke-linecap:round; stroke-linejoin:round; stroke-width:4; stroke-opacity:1; fill:none" points="206.379,941.128 221.381,941.128 "/>
<polyline clip-path="url(#clip940)" style="stroke:#000000; stroke-linecap:round; stroke-linejoin:round; stroke-width:4; stroke-opacity:1; fill:none" points="206.379,668.328 221.381,668.328 "/>
<polyline clip-path="url(#clip940)" style="stroke:#000000; stroke-linecap:round; stroke-linejoin:round; stroke-width:4; stroke-opacity:1; fill:none" points="206.379,395.528 221.381,395.528 "/>
<polyline clip-path="url(#clip940)" style="stroke:#000000; stroke-linecap:round; stroke-linejoin:round; stroke-width:4; stroke-opacity:1; fill:none" points="206.379,122.728 221.381,122.728 "/>
<path clip-path="url(#clip940)" d="M92.2903 1501.74 L110.65 1501.74 L110.65 1506.17 L85.9622 1506.17 L85.9622 1501.74 Q88.957 1498.64 94.1132 1493.43 Q99.2955 1488.2 100.624 1486.69 Q103.15 1483.85 104.139 1481.9 Q105.155 1479.92 105.155 1478.02 Q105.155 1474.92 102.967 1472.97 Q100.806 1471.01 97.3163 1471.01 Q94.8424 1471.01 92.082 1471.87 Q89.3476 1472.73 86.2226 1474.48 L86.2226 1469.16 Q89.3997 1467.89 92.1601 1467.24 Q94.9205 1466.59 97.2122 1466.59 Q103.254 1466.59 106.848 1469.61 Q110.441 1472.63 110.441 1477.68 Q110.441 1480.07 109.53 1482.24 Q108.644 1484.37 106.275 1487.29 Q105.624 1488.04 102.134 1491.66 Q98.6445 1495.26 92.2903 1501.74 Z" fill="#000000" fill-rule="nonzero" fill-opacity="1" /><path clip-path="url(#clip940)" d="M132.941 1470.75 Q128.879 1470.75 126.821 1474.76 Q124.79 1478.75 124.79 1486.77 Q124.79 1494.76 126.821 1498.77 Q128.879 1502.76 132.941 1502.76 Q137.03 1502.76 139.061 1498.77 Q141.118 1494.76 141.118 1486.77 Q141.118 1478.75 139.061 1474.76 Q137.03 1470.75 132.941 1470.75 M132.941 1466.59 Q139.478 1466.59 142.915 1471.77 Q146.379 1476.92 146.379 1486.77 Q146.379 1496.58 142.915 1501.77 Q139.478 1506.92 132.941 1506.92 Q126.405 1506.92 122.941 1501.77 Q119.504 1496.58 119.504 1486.77 Q119.504 1476.92 122.941 1471.77 Q126.405 1466.59 132.941 1466.59 Z" fill="#000000" fill-rule="nonzero" fill-opacity="1" /><path clip-path="url(#clip940)" d="M93.4101 1228.94 L111.769 1228.94 L111.769 1233.37 L87.082 1233.37 L87.082 1228.94 Q90.0768 1225.84 95.233 1220.63 Q100.415 1215.4 101.743 1213.89 Q104.269 1211.05 105.259 1209.1 Q106.275 1207.12 106.275 1205.22 Q106.275 1202.12 104.087 1200.17 Q101.926 1198.21 98.4361 1198.21 Q95.9622 1198.21 93.2018 1199.07 Q90.4674 1199.93 87.3424 1201.68 L87.3424 1196.36 Q90.5195 1195.09 93.2799 1194.44 Q96.0403 1193.79 98.332 1193.79 Q104.374 1193.79 107.967 1196.81 Q111.561 1199.83 111.561 1204.88 Q111.561 1207.27 110.65 1209.44 Q109.764 1211.57 107.394 1214.49 Q106.743 1215.24 103.254 1218.86 Q99.7642 1222.46 93.4101 1228.94 Z" fill="#000000" fill-rule="nonzero" fill-opacity="1" /><path clip-path="url(#clip940)" d="M122.863 1194.49 L143.514 1194.49 L143.514 1198.92 L127.681 1198.92 L127.681 1208.45 Q128.827 1208.06 129.972 1207.87 Q131.118 1207.67 132.264 1207.67 Q138.774 1207.67 142.577 1211.23 Q146.379 1214.8 146.379 1220.89 Q146.379 1227.17 142.472 1230.66 Q138.566 1234.12 131.457 1234.12 Q129.009 1234.12 126.457 1233.71 Q123.931 1233.29 121.222 1232.46 L121.222 1227.17 Q123.566 1228.45 126.066 1229.07 Q128.566 1229.7 131.353 1229.7 Q135.858 1229.7 138.488 1227.33 Q141.118 1224.96 141.118 1220.89 Q141.118 1216.83 138.488 1214.46 Q135.858 1212.09 131.353 1212.09 Q129.243 1212.09 127.134 1212.56 Q125.051 1213.03 122.863 1214.02 L122.863 1194.49 Z" fill="#000000" fill-rule="nonzero" fill-opacity="1" /><path clip-path="url(#clip940)" d="M103.697 939.605 Q107.473 940.412 109.582 942.964 Q111.717 945.516 111.717 949.266 Q111.717 955.021 107.759 958.172 Q103.801 961.323 96.5091 961.323 Q94.0611 961.323 91.457 960.828 Q88.8789 960.36 86.1185 959.396 L86.1185 954.318 Q88.306 955.594 90.9101 956.245 Q93.5143 956.896 96.3528 956.896 Q101.301 956.896 103.879 954.943 Q106.483 952.99 106.483 949.266 Q106.483 945.828 104.061 943.901 Q101.665 941.948 97.3684 941.948 L92.8372 941.948 L92.8372 937.625 L97.5768 937.625 Q101.457 937.625 103.514 936.089 Q105.572 934.526 105.572 931.61 Q105.572 928.615 103.436 927.027 Q101.327 925.412 97.3684 925.412 Q95.207 925.412 92.733 925.881 Q90.2591 926.349 87.2904 927.339 L87.2904 922.652 Q90.2851 921.818 92.8893 921.402 Q95.5195 920.985 97.8372 920.985 Q103.827 920.985 107.316 923.719 Q110.806 926.428 110.806 931.063 Q110.806 934.292 108.957 936.532 Q107.108 938.745 103.697 939.605 Z" fill="#000000" fill-rule="nonzero" fill-opacity="1" /><path clip-path="url(#clip940)" d="M132.941 925.152 Q128.879 925.152 126.821 929.162 Q124.79 933.146 124.79 941.167 Q124.79 949.162 126.821 953.172 Q128.879 957.157 132.941 957.157 Q137.03 957.157 139.061 953.172 Q141.118 949.162 141.118 941.167 Q141.118 933.146 139.061 929.162 Q137.03 925.152 132.941 925.152 M132.941 920.985 Q139.478 920.985 142.915 926.167 Q146.379 931.323 146.379 941.167 Q146.379 950.985 142.915 956.167 Q139.478 961.323 132.941 961.323 Q126.405 961.323 122.941 956.167 Q119.504 950.985 119.504 941.167 Q119.504 931.323 122.941 926.167 Q126.405 920.985 132.941 920.985 Z" fill="#000000" fill-rule="nonzero" fill-opacity="1" /><path clip-path="url(#clip940)" d="M104.816 666.804 Q108.592 667.612 110.702 670.164 Q112.837 672.716 112.837 676.466 Q112.837 682.221 108.879 685.372 Q104.92 688.523 97.6288 688.523 Q95.1809 688.523 92.5768 688.028 Q89.9987 687.56 87.2383 686.596 L87.2383 681.518 Q89.4258 682.794 92.0299 683.445 Q94.6341 684.096 97.4726 684.096 Q102.42 684.096 104.999 682.143 Q107.603 680.19 107.603 676.466 Q107.603 673.028 105.181 671.101 Q102.785 669.148 98.4882 669.148 L93.957 669.148 L93.957 664.825 L98.6965 664.825 Q102.577 664.825 104.634 663.289 Q106.691 661.726 106.691 658.81 Q106.691 655.815 104.556 654.226 Q102.447 652.612 98.4882 652.612 Q96.3268 652.612 93.8528 653.081 Q91.3789 653.549 88.4101 654.539 L88.4101 649.851 Q91.4049 649.018 94.0091 648.601 Q96.6393 648.185 98.957 648.185 Q104.947 648.185 108.436 650.919 Q111.926 653.627 111.926 658.263 Q111.926 661.492 110.077 663.732 Q108.228 665.945 104.816 666.804 Z" fill="#000000" fill-rule="nonzero" fill-opacity="1" /><path clip-path="url(#clip940)" d="M122.863 648.888 L143.514 648.888 L143.514 653.315 L127.681 653.315 L127.681 662.846 Q128.827 662.456 129.972 662.273 Q131.118 662.065 132.264 662.065 Q138.774 662.065 142.577 665.633 Q146.379 669.2 146.379 675.294 Q146.379 681.57 142.472 685.06 Q138.566 688.523 131.457 688.523 Q129.009 688.523 126.457 688.106 Q123.931 687.69 121.222 686.856 L121.222 681.57 Q123.566 682.846 126.066 683.471 Q128.566 684.096 131.353 684.096 Q135.858 684.096 138.488 681.726 Q141.118 679.356 141.118 675.294 Q141.118 671.231 138.488 668.862 Q135.858 666.492 131.353 666.492 Q129.243 666.492 127.134 666.961 Q125.051 667.429 122.863 668.419 L122.863 648.888 Z" fill="#000000" fill-rule="nonzero" fill-opacity="1" /><path clip-path="url(#clip940)" d="M102.212 380.671 L88.931 401.426 L102.212 401.426 L102.212 380.671 M100.832 376.088 L107.446 376.088 L107.446 401.426 L112.993 401.426 L112.993 405.801 L107.446 405.801 L107.446 414.968 L102.212 414.968 L102.212 405.801 L84.6602 405.801 L84.6602 400.723 L100.832 376.088 Z" fill="#000000" fill-rule="nonzero" fill-opacity="1" /><path clip-path="url(#clip940)" d="M132.941 379.551 Q128.879 379.551 126.821 383.562 Q124.79 387.546 124.79 395.567 Q124.79 403.562 126.821 407.572 Q128.879 411.556 132.941 411.556 Q137.03 411.556 139.061 407.572 Q141.118 403.562 141.118 395.567 Q141.118 387.546 139.061 383.562 Q137.03 379.551 132.941 379.551 M132.941 375.385 Q139.478 375.385 142.915 380.567 Q146.379 385.723 146.379 395.567 Q146.379 405.384 142.915 410.567 Q139.478 415.723 132.941 415.723 Q126.405 415.723 122.941 410.567 Q119.504 405.384 119.504 395.567 Q119.504 385.723 122.941 380.567 Q126.405 375.385 132.941 375.385 Z" fill="#000000" fill-rule="nonzero" fill-opacity="1" /><path clip-path="url(#clip940)" d="M103.332 107.871 L90.0508 128.626 L103.332 128.626 L103.332 107.871 M101.952 103.288 L108.566 103.288 L108.566 128.626 L114.113 128.626 L114.113 133.001 L108.566 133.001 L108.566 142.168 L103.332 142.168 L103.332 133.001 L85.7799 133.001 L85.7799 127.923 L101.952 103.288 Z" fill="#000000" fill-rule="nonzero" fill-opacity="1" /><path clip-path="url(#clip940)" d="M122.863 103.288 L143.514 103.288 L143.514 107.715 L127.681 107.715 L127.681 117.246 Q128.827 116.855 129.972 116.673 Q131.118 116.465 132.264 116.465 Q138.774 116.465 142.577 120.032 Q146.379 123.6 146.379 129.694 Q146.379 135.97 142.472 139.459 Q138.566 142.923 131.457 142.923 Q129.009 142.923 126.457 142.506 Q123.931 142.089 121.222 141.256 L121.222 135.97 Q123.566 137.246 126.066 137.871 Q128.566 138.496 131.353 138.496 Q135.858 138.496 138.488 136.126 Q141.118 133.756 141.118 129.694 Q141.118 125.631 138.488 123.261 Q135.858 120.892 131.353 120.892 Q129.243 120.892 127.134 121.36 Q125.051 121.829 122.863 122.819 L122.863 103.288 Z" fill="#000000" fill-rule="nonzero" fill-opacity="1" /><path clip-path="url(#clip940)" d="M-31.4998 930.013 L-31.4998 924.168 L11.7002 924.168 L11.7002 930.013 L-31.4998 930.013 Z" fill="#000000" fill-rule="nonzero" fill-opacity="1" /><path clip-path="url(#clip940)" d="M-7.85992 885.829 L11.7002 885.829 L11.7002 891.153 L-7.68631 891.153 Q-12.287 891.153 -14.5728 892.947 Q-16.8587 894.741 -16.8587 898.329 Q-16.8587 902.641 -14.1099 905.129 Q-11.3611 907.618 -6.61572 907.618 L11.7002 907.618 L11.7002 912.97 L-20.7071 912.97 L-20.7071 907.618 L-15.6724 907.618 Q-18.5948 905.708 -20.0416 903.133 Q-21.4883 900.528 -21.4883 897.143 Q-21.4883 891.559 -18.0161 888.694 Q-14.5728 885.829 -7.85992 885.829 Z" fill="#000000" fill-rule="nonzero" fill-opacity="1" /><path clip-path="url(#clip940)" d="M-33.3227 858.804 L-28.8957 858.804 L-28.8957 863.897 Q-28.8957 866.761 -27.7383 867.89 Q-26.5809 868.989 -23.5716 868.989 L-20.7071 868.989 L-20.7071 860.222 L-16.5694 860.222 L-16.5694 868.989 L11.7002 868.989 L11.7002 874.342 L-16.5694 874.342 L-16.5694 879.435 L-20.7071 879.435 L-20.7071 874.342 L-22.964 874.342 Q-28.3749 874.342 -30.8343 871.825 Q-33.3227 869.308 -33.3227 863.839 L-33.3227 858.804 Z" fill="#000000" fill-rule="nonzero" fill-opacity="1" /><path clip-path="url(#clip940)" d="M-33.3227 854.348 L-33.3227 849.024 L11.7002 849.024 L11.7002 854.348 L-33.3227 854.348 Z" fill="#000000" fill-rule="nonzero" fill-opacity="1" /><path clip-path="url(#clip940)" d="M-16.9745 825.326 Q-16.9745 829.609 -13.618 832.097 Q-10.2905 834.585 -4.47452 834.585 Q1.34142 834.585 4.69788 832.126 Q8.02541 829.638 8.02541 825.326 Q8.02541 821.073 4.66895 818.584 Q1.31248 816.096 -4.47452 816.096 Q-10.2326 816.096 -13.5891 818.584 Q-16.9745 821.073 -16.9745 825.326 M-21.4883 825.326 Q-21.4883 818.382 -16.9745 814.418 Q-12.4606 810.454 -4.47452 810.454 Q3.48261 810.454 8.02541 814.418 Q12.5393 818.382 12.5393 825.326 Q12.5393 832.3 8.02541 836.264 Q3.48261 840.199 -4.47452 840.199 Q-12.4606 840.199 -16.9745 836.264 Q-21.4883 832.3 -21.4883 825.326 Z" fill="#000000" fill-rule="nonzero" fill-opacity="1" /><path clip-path="url(#clip940)" d="M-20.7071 804.725 L-20.7071 799.4 L4.58214 792.745 L-20.7071 786.119 L-20.7071 779.84 L4.58214 773.185 L-20.7071 766.559 L-20.7071 761.235 L11.7002 769.713 L11.7002 775.992 L-14.8622 782.965 L11.7002 789.968 L11.7002 796.247 L-20.7071 804.725 Z" fill="#000000" fill-rule="nonzero" fill-opacity="1" /><path clip-path="url(#clip940)" d="M-33.3227 734.818 L-33.3227 722.549 L-29.185 722.549 L-29.185 729.493 L15.3749 729.493 L15.3749 722.549 L19.5126 722.549 L19.5126 734.818 L-33.3227 734.818 Z" fill="#000000" fill-rule="nonzero" fill-opacity="1" /><path clip-path="url(#clip940)" d="M-31.4998 710.975 L-31.4998 705.13 L6.7812 705.13 L6.7812 684.094 L11.7002 684.094 L11.7002 710.975 L-31.4998 710.975 Z" fill="#000000" fill-rule="nonzero" fill-opacity="1" /><path clip-path="url(#clip940)" d="M-31.4998 668.73 L-31.4998 663.811 L17.1978 678.857 L17.1978 683.776 L-31.4998 668.73 Z" fill="#000000" fill-rule="nonzero" fill-opacity="1" /><path clip-path="url(#clip940)" d="M-19.7522 637.567 L-14.7175 637.567 Q-15.8749 639.824 -16.4536 642.254 Q-17.0323 644.685 -17.0323 647.289 Q-17.0323 651.253 -15.8171 653.25 Q-14.6018 655.217 -12.1712 655.217 Q-10.3194 655.217 -9.2488 653.799 Q-8.20714 652.382 -7.25229 648.099 L-6.8472 646.276 Q-5.63193 640.605 -3.40393 638.232 Q-1.20487 635.831 2.75923 635.831 Q7.2731 635.831 9.90619 639.419 Q12.5393 642.978 12.5393 649.228 Q12.5393 651.832 12.0184 654.667 Q11.5265 657.474 10.5138 660.599 L5.01617 660.599 Q6.54972 657.648 7.33097 654.783 Q8.08328 651.919 8.08328 649.112 Q8.08328 645.35 6.81014 643.325 Q5.50806 641.299 3.16432 641.299 Q0.994196 641.299 -0.163205 642.775 Q-1.32061 644.222 -2.3912 649.17 L-2.82523 651.022 Q-3.86689 655.97 -6.00808 658.169 Q-8.17821 660.368 -11.9398 660.368 Q-16.5115 660.368 -18.9999 657.127 Q-21.4883 653.886 -21.4883 647.926 Q-21.4883 644.974 -21.0543 642.37 Q-20.6203 639.766 -19.7522 637.567 Z" fill="#000000" fill-rule="nonzero" fill-opacity="1" /><path clip-path="url(#clip940)" d="M-33.3227 614.911 L19.5126 614.911 L19.5126 627.179 L15.3749 627.179 L15.3749 620.264 L-29.185 620.264 L-29.185 627.179 L-33.3227 627.179 L-33.3227 614.911 Z" fill="#000000" fill-rule="nonzero" fill-opacity="1" /><polyline clip-path="url(#clip942)" style="stroke:#023eff; stroke-linecap:round; stroke-linejoin:round; stroke-width:5; stroke-opacity:1; fill:none" points="290.554,1306.44 307.356,1370.34 324.157,1370.34 340.959,1370.34 357.76,1217.22 374.562,1370.34 391.363,816.987 408.165,379.542 424.966,138.769 441.768,340.149 458.569,529.562 475.371,574.746 492.172,662.673 508.974,662.673 525.776,662.673 542.577,777.273 559.379,662.673 576.18,662.673 592.982,603.555 609.783,411.605 626.585,411.605 643.386,411.605 660.188,864.767 676.989,1139.87 693.791,1309.78 710.592,1430.25 727.394,1430.25 744.195,1430.25 760.997,1430.25 777.798,1265.52 794.6,783.254 811.401,341.498 828.203,341.498 845.004,429.31 861.806,699.837 878.608,699.837 895.409,699.837 912.211,699.837 929.012,724.763 945.814,724.763 962.615,724.763 979.417,724.763 996.218,461.13 1013.02,312.841 1029.82,312.841 1046.62,627.994 1063.42,936.994 1080.23,1082.18 1097.03,1309.78 1113.83,1430.25 1130.63,1430.25 1147.43,1430.25 1164.23,1430.25 1181.03,1265.52 1197.84,783.254 1214.64,341.498 1231.44,341.498 1248.24,429.31 1265.04,699.837 1281.84,699.837 1298.65,699.837 1315.45,699.837 1332.25,724.763 1349.05,724.763 1365.85,724.763 1382.65,724.763 1399.45,461.13 1416.26,312.841 1433.06,312.841 1449.86,627.994 1466.66,936.994 1483.46,1082.18 1500.26,1309.78 1517.07,1430.25 1533.87,1430.25 1550.67,1430.25 1567.47,1430.25 1584.27,1265.52 1601.07,783.254 1617.87,341.498 1634.68,341.498 1651.48,429.31 1668.28,699.837 1685.08,699.837 1701.88,699.837 1718.68,699.837 1735.49,724.763 1752.29,724.763 1769.09,724.763 1785.89,724.763 1802.69,461.13 1819.49,312.841 1836.29,312.841 1853.1,627.994 1869.9,936.994 1886.7,1082.18 1903.5,1309.78 1920.3,1430.25 1937.1,1430.25 1953.9,1430.25 1970.71,1430.25 1987.51,1265.52 2004.31,783.254 2021.11,341.498 2037.91,341.498 2054.71,429.31 2071.52,699.837 2088.32,699.837 2105.12,699.837 2121.92,699.837 2138.72,724.763 2155.52,724.763 2172.32,724.763 2189.13,724.763 2205.93,461.13 2222.73,312.841 2239.53,312.841 2256.33,718.424 2273.13,936.994 2289.94,1082.18 2306.74,1309.78 2323.54,1430.25 2340.34,1430.25 2357.14,1430.25 2373.94,1430.25 2390.74,1265.52 2407.55,1050.33 2424.35,717.249 2441.15,343.614 2457.95,187.892 2474.75,332.338 2491.55,332.338 2508.36,523.643 2525.16,523.643 2541.96,724.763 2558.76,724.763 2575.56,724.763 2592.36,724.763 2609.16,461.13 2625.97,312.841 2642.77,312.841 2659.57,718.424 2676.37,936.994 2693.17,1082.18 2709.97,1309.78 2726.78,1430.25 2743.58,1430.25 2760.38,1430.25 2777.18,1430.25 2793.98,1265.52 2810.78,1050.33 2827.58,717.249 2844.39,343.614 2861.19,187.892 2877.99,332.338 2894.79,195.525 2911.59,523.643 2928.39,523.643 2945.19,724.763 2962,724.763 2978.8,724.763 2995.6,724.763 3012.4,461.13 3029.2,312.841 3046,312.841 3062.81,718.424 3079.61,936.994 3096.41,1082.18 "/>
<polyline clip-path="url(#clip942)" style="stroke:#ff7c00; stroke-linecap:round; stroke-linejoin:round; stroke-width:5; stroke-opacity:1; fill:none" points="290.554,1394.62 307.356,1419.81 324.157,1419.81 340.959,1419.81 357.76,1164.35 374.562,1419.81 391.363,785.011 408.165,430.667 424.966,430.667 441.768,430.667 458.569,758.359 475.371,758.359 492.172,758.359 508.974,758.359 525.776,758.359 542.577,758.359 559.379,758.359 576.18,758.359 592.982,475.056 609.783,475.056 626.585,312.905 643.386,583.713 660.188,854.86 676.989,1119.91 693.791,1318.53 710.592,1439.43 727.394,1439.43 744.195,1439.43 760.997,1439.43 777.798,1271.62 794.6,762.322 811.401,429.758 828.203,429.758 845.004,429.758 861.806,701.354 878.608,701.354 895.409,701.354 912.211,701.354 929.012,812.052 945.814,812.052 962.615,750.934 979.417,750.934 996.218,528.03 1013.02,322.086 1029.82,322.086 1046.62,585.897 1063.42,975.824 1080.23,1179.43 1097.03,1318.53 1113.83,1439.43 1130.63,1439.43 1147.43,1439.43 1164.23,1439.43 1181.03,1271.62 1197.84,762.322 1214.64,429.758 1231.44,429.758 1248.24,429.758 1265.04,701.354 1281.84,701.354 1298.65,812.052 1315.45,701.354 1332.25,812.052 1349.05,750.934 1365.85,750.934 1382.65,750.934 1399.45,528.03 1416.26,322.086 1433.06,322.086 1449.86,585.897 1466.66,975.824 1483.46,1179.43 1500.26,1318.53 1517.07,1439.43 1533.87,1439.43 1550.67,1439.43 1567.47,1439.43 1584.27,1271.62 1601.07,816.943 1617.87,429.758 1634.68,429.758 1651.48,429.758 1668.28,701.354 1685.08,812.052 1701.88,812.052 1718.68,812.052 1735.49,812.052 1752.29,812.052 1769.09,750.934 1785.89,750.934 1802.69,528.03 1819.49,322.086 1836.29,88.2942 1853.1,585.897 1869.9,975.824 1886.7,1179.43 1903.5,1318.53 1920.3,1439.43 1937.1,1439.43 1953.9,1439.43 1970.71,1439.43 1987.51,1271.62 2004.31,816.943 2021.11,429.758 2037.91,429.758 2054.71,429.758 2071.52,701.354 2088.32,701.354 2105.12,701.354 2121.92,701.354 2138.72,812.052 2155.52,812.052 2172.32,750.934 2189.13,750.934 2205.93,528.03 2222.73,322.086 2239.53,322.086 2256.33,698.304 2273.13,843.56 2289.94,1179.43 2306.74,1318.53 2323.54,1439.43 2340.34,1439.43 2357.14,1439.43 2373.94,1439.43 2390.74,1271.62 2407.55,1073.68 2424.35,693.848 2441.15,316.95 2457.95,316.95 2474.75,316.95 2491.55,316.95 2508.36,475.811 2525.16,475.811 2541.96,750.934 2558.76,812.052 2575.56,750.934 2592.36,750.934 2609.16,528.03 2625.97,322.086 2642.77,322.086 2659.57,698.304 2676.37,843.56 2693.17,1179.43 2709.97,1318.53 2726.78,1439.43 2743.58,1439.43 2760.38,1439.43 2777.18,1439.43 2793.98,1271.62 2810.78,1073.68 2827.58,693.848 2844.39,316.95 2861.19,316.95 2877.99,316.95 2894.79,316.95 2911.59,475.811 2928.39,475.811 2945.19,750.934 2962,812.052 2978.8,750.934 2995.6,750.934 3012.4,528.03 3029.2,322.086 3046,322.086 3062.81,698.304 3079.61,843.56 3096.41,1179.43 "/>
<polyline clip-path="url(#clip942)" style="stroke:#1ac938; stroke-linecap:round; stroke-linejoin:round; stroke-width:5; stroke-opacity:1; fill:none" points="290.554,1402.89 307.356,1452.8 324.157,1452.8 340.959,1452.8 357.76,1452.8 374.562,1270.32 391.363,848.212 408.165,514.846 424.966,294.349 441.768,294.349 458.569,382.758 475.371,781.449 492.172,474.636 508.974,771.637 525.776,848.212 542.577,848.212 559.379,848.212 576.18,612.553 592.982,612.553 609.783,294.349 626.585,294.349 643.386,382.758 660.188,612.553 676.989,1270.32 693.791,1456.63 710.592,1456.63 727.394,1456.63 744.195,1456.63 760.997,1456.63 777.798,1372.7 794.6,401.637 811.401,401.637 828.203,401.637 845.004,589.101 861.806,836.484 878.608,758.782 895.409,836.484 912.211,836.484 929.012,836.484 945.814,836.484 962.615,836.484 979.417,758.782 996.218,498.471 1013.02,316.162 1029.82,316.162 1046.62,595.174 1063.42,918.653 1080.23,1254.3 1097.03,1456.63 1113.83,1456.63 1130.63,1456.63 1147.43,1456.63 1164.23,1456.63 1181.03,1220.31 1197.84,836.484 1214.64,401.637 1231.44,401.637 1248.24,401.637 1265.04,758.782 1281.84,758.782 1298.65,836.484 1315.45,836.484 1332.25,836.484 1349.05,758.782 1365.85,758.782 1382.65,758.782 1399.45,498.471 1416.26,316.162 1433.06,316.162 1449.86,595.174 1466.66,918.653 1483.46,1254.3 1500.26,1456.63 1517.07,1456.63 1533.87,1456.63 1550.67,1456.63 1567.47,1456.63 1584.27,1220.31 1601.07,836.484 1617.87,401.637 1634.68,401.637 1651.48,401.637 1668.28,836.484 1685.08,836.484 1701.88,836.484 1718.68,836.484 1735.49,836.484 1752.29,836.484 1769.09,758.782 1785.89,758.782 1802.69,498.471 1819.49,316.162 1836.29,316.162 1853.1,595.174 1869.9,918.653 1886.7,918.653 1903.5,1456.63 1920.3,1456.63 1937.1,1456.63 1953.9,1456.63 1970.71,1456.63 1987.51,1220.31 2004.31,836.484 2021.11,401.637 2037.91,401.637 2054.71,401.637 2071.52,758.782 2088.32,758.782 2105.12,758.782 2121.92,758.782 2138.72,836.484 2155.52,836.484 2172.32,836.484 2189.13,758.782 2205.93,498.471 2222.73,316.162 2239.53,316.162 2256.33,595.174 2273.13,918.653 2289.94,1220.31 2306.74,1456.63 2323.54,1456.63 2340.34,1456.63 2357.14,1456.63 2373.94,1456.63 2390.74,1220.31 2407.55,836.484 2424.35,589.101 2441.15,589.101 2457.95,589.101 2474.75,524.57 2491.55,524.57 2508.36,524.57 2525.16,524.57 2541.96,836.484 2558.76,836.484 2575.56,836.484 2592.36,836.484 2609.16,498.471 2625.97,316.162 2642.77,316.162 2659.57,595.174 2676.37,918.653 2693.17,1254.3 2709.97,1456.63 2726.78,1456.63 2743.58,1456.63 2760.38,1456.63 2777.18,1456.63 2793.98,1220.31 2810.78,1220.31 2827.58,836.484 2844.39,401.637 2861.19,401.637 2877.99,524.57 2894.79,524.57 2911.59,524.57 2928.39,524.57 2945.19,524.57 2962,836.484 2978.8,836.484 2995.6,524.57 3012.4,498.471 3029.2,316.162 3046,316.162 3062.81,595.174 3079.61,918.653 3096.41,1220.31 "/>
<polyline clip-path="url(#clip942)" style="stroke:#e8000b; stroke-linecap:round; stroke-linejoin:round; stroke-width:5; stroke-opacity:1; fill:none" points="290.554,1439.55 307.356,1439.55 324.157,1439.55 340.959,1439.55 357.76,1439.55 374.562,1439.55 391.363,816.424 408.165,376.46 424.966,376.46 441.768,247.215 458.569,601.155 475.371,816.424 492.172,601.155 508.974,601.155 525.776,816.424 542.577,816.424 559.379,816.424 576.18,601.155 592.982,601.155 609.783,376.46 626.585,376.46 643.386,247.215 660.188,601.155 676.989,1151.73 693.791,1439.55 710.592,1439.55 727.394,1439.55 744.195,1439.55 760.997,1439.55 777.798,1439.55 794.6,564.855 811.401,304.764 828.203,304.764 845.004,564.855 861.806,564.855 878.608,564.855 895.409,564.855 912.211,859.099 929.012,859.099 945.814,859.099 962.615,859.099 979.417,564.855 996.218,564.855 1013.02,304.764 1029.82,304.764 1046.62,564.855 1063.42,859.099 1080.23,859.099 1097.03,1439.55 1113.83,1439.55 1130.63,1439.55 1147.43,1439.55 1164.23,1439.55 1181.03,1439.55 1197.84,859.099 1214.64,304.764 1231.44,304.764 1248.24,304.764 1265.04,564.855 1281.84,564.855 1298.65,859.099 1315.45,859.099 1332.25,859.099 1349.05,564.855 1365.85,564.855 1382.65,564.855 1399.45,304.764 1416.26,304.764 1433.06,304.764 1449.86,564.855 1466.66,859.099 1483.46,859.099 1500.26,1439.55 1517.07,1439.55 1533.87,1439.55 1550.67,1439.55 1567.47,1439.55 1584.27,1439.55 1601.07,859.099 1617.87,304.764 1634.68,564.855 1651.48,304.764 1668.28,564.855 1685.08,859.099 1701.88,859.099 1718.68,859.099 1735.49,859.099 1752.29,859.099 1769.09,564.855 1785.89,564.855 1802.69,304.764 1819.49,304.764 1836.29,304.764 1853.1,564.855 1869.9,859.099 1886.7,859.099 1903.5,1439.55 1920.3,1439.55 1937.1,1439.55 1953.9,1439.55 1970.71,1439.55 1987.51,1439.55 2004.31,859.099 2021.11,304.764 2037.91,304.764 2054.71,304.764 2071.52,564.855 2088.32,564.855 2105.12,564.855 2121.92,564.855 2138.72,859.099 2155.52,859.099 2172.32,859.099 2189.13,564.855 2205.93,304.764 2222.73,304.764 2239.53,304.764 2256.33,304.764 2273.13,859.099 2289.94,859.099 2306.74,1439.55 2323.54,1439.55 2340.34,1439.55 2357.14,1439.55 2373.94,1439.55 2390.74,1439.55 2407.55,859.099 2424.35,304.764 2441.15,304.764 2457.95,304.764 2474.75,304.764 2491.55,564.855 2508.36,564.855 2525.16,304.764 2541.96,564.855 2558.76,859.099 2575.56,564.855 2592.36,564.855 2609.16,564.855 2625.97,304.764 2642.77,304.764 2659.57,564.855 2676.37,564.855 2693.17,859.099 2709.97,1439.55 2726.78,1439.55 2743.58,1439.55 2760.38,1439.55 2777.18,1439.55 2793.98,1439.55 2810.78,859.099 2827.58,859.099 2844.39,304.764 2861.19,304.764 2877.99,304.764 2894.79,304.764 2911.59,564.855 2928.39,564.855 2945.19,564.855 2962,859.099 2978.8,564.855 2995.6,564.855 3012.4,564.855 3029.2,304.764 3046,304.764 3062.81,304.764 3079.61,859.099 3096.41,859.099 "/>
<path clip-path="url(#clip940)" d="M3305.46 445.512 L3952.76 445.512 L3952.76 95.592 L3305.46 95.592  Z" fill="#ffffff" fill-rule="evenodd" fill-opacity="1"/>
<polyline clip-path="url(#clip940)" style="stroke:#000000; stroke-linecap:round; stroke-linejoin:round; stroke-width:4; stroke-opacity:1; fill:none" points="3305.46,445.512 3952.76,445.512 3952.76,95.592 3305.46,95.592 3305.46,445.512 "/>
<polyline clip-path="url(#clip940)" style="stroke:#023eff; stroke-linecap:round; stroke-linejoin:round; stroke-width:5.625; stroke-opacity:1; fill:none" points="3347.09,153.912 3596.85,153.912 "/>
<path clip-path="url(#clip940)" d="M3643.29 168.977 L3643.29 184.446 L3638.47 184.446 L3638.47 144.185 L3643.29 144.185 L3643.29 148.613 Q3644.8 146.008 3647.09 144.758 Q3649.41 143.482 3652.62 143.482 Q3657.93 143.482 3661.23 147.701 Q3664.57 151.92 3664.57 158.795 Q3664.57 165.67 3661.23 169.888 Q3657.93 174.107 3652.62 174.107 Q3649.41 174.107 3647.09 172.857 Q3644.8 171.581 3643.29 168.977 M3659.59 158.795 Q3659.59 153.508 3657.41 150.514 Q3655.25 147.493 3651.44 147.493 Q3647.64 147.493 3645.45 150.514 Q3643.29 153.508 3643.29 158.795 Q3643.29 164.081 3645.45 167.102 Q3647.64 170.097 3651.44 170.097 Q3655.25 170.097 3657.41 167.102 Q3659.59 164.081 3659.59 158.795 Z" fill="#000000" fill-rule="nonzero" fill-opacity="1" /><path clip-path="url(#clip940)" d="M3689.41 148.665 Q3688.6 148.196 3687.64 147.988 Q3686.7 147.753 3685.56 147.753 Q3681.5 147.753 3679.31 150.409 Q3677.15 153.04 3677.15 157.987 L3677.15 173.352 L3672.33 173.352 L3672.33 144.185 L3677.15 144.185 L3677.15 148.717 Q3678.66 146.06 3681.08 144.784 Q3683.5 143.482 3686.96 143.482 Q3687.46 143.482 3688.06 143.56 Q3688.66 143.613 3689.39 143.743 L3689.41 148.665 Z" fill="#000000" fill-rule="nonzero" fill-opacity="1" /><path clip-path="url(#clip940)" d="M3718.21 157.571 L3718.21 159.915 L3696.18 159.915 Q3696.5 164.862 3699.15 167.467 Q3701.83 170.045 3706.6 170.045 Q3709.36 170.045 3711.94 169.368 Q3714.54 168.691 3717.09 167.336 L3717.09 171.868 Q3714.52 172.961 3711.81 173.534 Q3709.1 174.107 3706.31 174.107 Q3699.33 174.107 3695.25 170.045 Q3691.18 165.982 3691.18 159.055 Q3691.18 151.894 3695.04 147.701 Q3698.92 143.482 3705.48 143.482 Q3711.36 143.482 3714.78 147.284 Q3718.21 151.06 3718.21 157.571 M3713.42 156.165 Q3713.37 152.232 3711.21 149.889 Q3709.07 147.545 3705.53 147.545 Q3701.52 147.545 3699.1 149.81 Q3696.7 152.076 3696.34 156.191 L3713.42 156.165 Z" fill="#000000" fill-rule="nonzero" fill-opacity="1" /><path clip-path="url(#clip940)" d="M3745.27 148.613 L3745.27 132.831 L3750.06 132.831 L3750.06 173.352 L3745.27 173.352 L3745.27 168.977 Q3743.76 171.581 3741.44 172.857 Q3739.15 174.107 3735.92 174.107 Q3730.64 174.107 3727.3 169.888 Q3724 165.67 3724 158.795 Q3724 151.92 3727.3 147.701 Q3730.64 143.482 3735.92 143.482 Q3739.15 143.482 3741.44 144.758 Q3743.76 146.008 3745.27 148.613 M3728.94 158.795 Q3728.94 164.081 3731.1 167.102 Q3733.29 170.097 3737.09 170.097 Q3740.9 170.097 3743.08 167.102 Q3745.27 164.081 3745.27 158.795 Q3745.27 153.508 3743.08 150.514 Q3740.9 147.493 3737.09 147.493 Q3733.29 147.493 3731.1 150.514 Q3728.94 153.508 3728.94 158.795 Z" fill="#000000" fill-rule="nonzero" fill-opacity="1" /><path clip-path="url(#clip940)" d="M3759.93 144.185 L3764.72 144.185 L3764.72 173.352 L3759.93 173.352 L3759.93 144.185 M3759.93 132.831 L3764.72 132.831 L3764.72 138.899 L3759.93 138.899 L3759.93 132.831 Z" fill="#000000" fill-rule="nonzero" fill-opacity="1" /><path clip-path="url(#clip940)" d="M3795.74 145.305 L3795.74 149.784 Q3793.71 148.665 3791.65 148.118 Q3789.62 147.545 3787.54 147.545 Q3782.87 147.545 3780.3 150.514 Q3777.72 153.456 3777.72 158.795 Q3777.72 164.133 3780.3 167.102 Q3782.87 170.045 3787.54 170.045 Q3789.62 170.045 3791.65 169.498 Q3793.71 168.925 3795.74 167.805 L3795.74 172.232 Q3793.73 173.17 3791.57 173.638 Q3789.44 174.107 3787.02 174.107 Q3780.43 174.107 3776.55 169.967 Q3772.67 165.826 3772.67 158.795 Q3772.67 151.659 3776.57 147.571 Q3780.51 143.482 3787.33 143.482 Q3789.54 143.482 3791.65 143.951 Q3793.76 144.394 3795.74 145.305 Z" fill="#000000" fill-rule="nonzero" fill-opacity="1" /><path clip-path="url(#clip940)" d="M3808.81 135.904 L3808.81 144.185 L3818.68 144.185 L3818.68 147.909 L3808.81 147.909 L3808.81 163.743 Q3808.81 167.31 3809.78 168.326 Q3810.77 169.342 3813.76 169.342 L3818.68 169.342 L3818.68 173.352 L3813.76 173.352 Q3808.21 173.352 3806.1 171.295 Q3803.99 169.211 3803.99 163.743 L3803.99 147.909 L3800.48 147.909 L3800.48 144.185 L3803.99 144.185 L3803.99 135.904 L3808.81 135.904 Z" fill="#000000" fill-rule="nonzero" fill-opacity="1" /><path clip-path="url(#clip940)" d="M3847.15 182.206 L3847.15 185.93 L3819.44 185.93 L3819.44 182.206 L3847.15 182.206 Z" fill="#000000" fill-rule="nonzero" fill-opacity="1" /><path clip-path="url(#clip940)" d="M3852.38 134.472 L3873.03 134.472 L3873.03 138.899 L3857.2 138.899 L3857.2 148.43 Q3858.34 148.04 3859.49 147.857 Q3860.63 147.649 3861.78 147.649 Q3868.29 147.649 3872.09 151.217 Q3875.9 154.784 3875.9 160.878 Q3875.9 167.154 3871.99 170.644 Q3868.08 174.107 3860.97 174.107 Q3858.53 174.107 3855.97 173.69 Q3853.45 173.274 3850.74 172.441 L3850.74 167.154 Q3853.08 168.43 3855.58 169.055 Q3858.08 169.68 3860.87 169.68 Q3865.37 169.68 3868 167.31 Q3870.63 164.941 3870.63 160.878 Q3870.63 156.816 3868 154.446 Q3865.37 152.076 3860.87 152.076 Q3858.76 152.076 3856.65 152.545 Q3854.57 153.014 3852.38 154.003 L3852.38 134.472 Z" fill="#000000" fill-rule="nonzero" fill-opacity="1" /><path clip-path="url(#clip940)" d="M3890.79 168.925 L3909.15 168.925 L3909.15 173.352 L3884.46 173.352 L3884.46 168.925 Q3887.46 165.826 3892.61 160.618 Q3897.8 155.383 3899.12 153.873 Q3901.65 151.034 3902.64 149.081 Q3903.66 147.102 3903.66 145.201 Q3903.66 142.102 3901.47 140.149 Q3899.31 138.196 3895.82 138.196 Q3893.34 138.196 3890.58 139.055 Q3887.85 139.915 3884.72 141.659 L3884.72 136.347 Q3887.9 135.071 3890.66 134.42 Q3893.42 133.769 3895.71 133.769 Q3901.75 133.769 3905.35 136.79 Q3908.94 139.81 3908.94 144.863 Q3908.94 147.258 3908.03 149.42 Q3907.15 151.555 3904.78 154.472 Q3904.12 155.227 3900.63 158.847 Q3897.15 162.441 3890.79 168.925 Z" fill="#000000" fill-rule="nonzero" fill-opacity="1" /><polyline clip-path="url(#clip940)" style="stroke:#ff7c00; stroke-linecap:round; stroke-linejoin:round; stroke-width:5.625; stroke-opacity:1; fill:none" points="3347.09,212.232 3596.85,212.232 "/>
<path clip-path="url(#clip940)" d="M3643.29 227.297 L3643.29 242.766 L3638.47 242.766 L3638.47 202.505 L3643.29 202.505 L3643.29 206.933 Q3644.8 204.328 3647.09 203.078 Q3649.41 201.802 3652.62 201.802 Q3657.93 201.802 3661.23 206.021 Q3664.57 210.24 3664.57 217.115 Q3664.57 223.99 3661.23 228.208 Q3657.93 232.427 3652.62 232.427 Q3649.41 232.427 3647.09 231.177 Q3644.8 229.901 3643.29 227.297 M3659.59 217.115 Q3659.59 211.828 3657.41 208.834 Q3655.25 205.813 3651.44 205.813 Q3647.64 205.813 3645.45 208.834 Q3643.29 211.828 3643.29 217.115 Q3643.29 222.401 3645.45 225.422 Q3647.64 228.417 3651.44 228.417 Q3655.25 228.417 3657.41 225.422 Q3659.59 222.401 3659.59 217.115 Z" fill="#000000" fill-rule="nonzero" fill-opacity="1" /><path clip-path="url(#clip940)" d="M3689.41 206.985 Q3688.6 206.516 3687.64 206.308 Q3686.7 206.073 3685.56 206.073 Q3681.5 206.073 3679.31 208.729 Q3677.15 211.36 3677.15 216.307 L3677.15 231.672 L3672.33 231.672 L3672.33 202.505 L3677.15 202.505 L3677.15 207.037 Q3678.66 204.38 3681.08 203.104 Q3683.5 201.802 3686.96 201.802 Q3687.46 201.802 3688.06 201.88 Q3688.66 201.933 3689.39 202.063 L3689.41 206.985 Z" fill="#000000" fill-rule="nonzero" fill-opacity="1" /><path clip-path="url(#clip940)" d="M3718.21 215.891 L3718.21 218.235 L3696.18 218.235 Q3696.5 223.182 3699.15 225.787 Q3701.83 228.365 3706.6 228.365 Q3709.36 228.365 3711.94 227.688 Q3714.54 227.011 3717.09 225.656 L3717.09 230.188 Q3714.52 231.281 3711.81 231.854 Q3709.1 232.427 3706.31 232.427 Q3699.33 232.427 3695.25 228.365 Q3691.18 224.302 3691.18 217.375 Q3691.18 210.214 3695.04 206.021 Q3698.92 201.802 3705.48 201.802 Q3711.36 201.802 3714.78 205.604 Q3718.21 209.38 3718.21 215.891 M3713.42 214.485 Q3713.37 210.552 3711.21 208.209 Q3709.07 205.865 3705.53 205.865 Q3701.52 205.865 3699.1 208.13 Q3696.7 210.396 3696.34 214.511 L3713.42 214.485 Z" fill="#000000" fill-rule="nonzero" fill-opacity="1" /><path clip-path="url(#clip940)" d="M3745.27 206.933 L3745.27 191.151 L3750.06 191.151 L3750.06 231.672 L3745.27 231.672 L3745.27 227.297 Q3743.76 229.901 3741.44 231.177 Q3739.15 232.427 3735.92 232.427 Q3730.64 232.427 3727.3 228.208 Q3724 223.99 3724 217.115 Q3724 210.24 3727.3 206.021 Q3730.64 201.802 3735.92 201.802 Q3739.15 201.802 3741.44 203.078 Q3743.76 204.328 3745.27 206.933 M3728.94 217.115 Q3728.94 222.401 3731.1 225.422 Q3733.29 228.417 3737.09 228.417 Q3740.9 228.417 3743.08 225.422 Q3745.27 222.401 3745.27 217.115 Q3745.27 211.828 3743.08 208.834 Q3740.9 205.813 3737.09 205.813 Q3733.29 205.813 3731.1 208.834 Q3728.94 211.828 3728.94 217.115 Z" fill="#000000" fill-rule="nonzero" fill-opacity="1" /><path clip-path="url(#clip940)" d="M3759.93 202.505 L3764.72 202.505 L3764.72 231.672 L3759.93 231.672 L3759.93 202.505 M3759.93 191.151 L3764.72 191.151 L3764.72 197.219 L3759.93 197.219 L3759.93 191.151 Z" fill="#000000" fill-rule="nonzero" fill-opacity="1" /><path clip-path="url(#clip940)" d="M3795.74 203.625 L3795.74 208.104 Q3793.71 206.985 3791.65 206.438 Q3789.62 205.865 3787.54 205.865 Q3782.87 205.865 3780.3 208.834 Q3777.72 211.776 3777.72 217.115 Q3777.72 222.453 3780.3 225.422 Q3782.87 228.365 3787.54 228.365 Q3789.62 228.365 3791.65 227.818 Q3793.71 227.245 3795.74 226.125 L3795.74 230.552 Q3793.73 231.49 3791.57 231.958 Q3789.44 232.427 3787.02 232.427 Q3780.43 232.427 3776.55 228.287 Q3772.67 224.146 3772.67 217.115 Q3772.67 209.979 3776.57 205.891 Q3780.51 201.802 3787.33 201.802 Q3789.54 201.802 3791.65 202.271 Q3793.76 202.714 3795.74 203.625 Z" fill="#000000" fill-rule="nonzero" fill-opacity="1" /><path clip-path="url(#clip940)" d="M3808.81 194.224 L3808.81 202.505 L3818.68 202.505 L3818.68 206.229 L3808.81 206.229 L3808.81 222.063 Q3808.81 225.63 3809.78 226.646 Q3810.77 227.662 3813.76 227.662 L3818.68 227.662 L3818.68 231.672 L3813.76 231.672 Q3808.21 231.672 3806.1 229.615 Q3803.99 227.531 3803.99 222.063 L3803.99 206.229 L3800.48 206.229 L3800.48 202.505 L3803.99 202.505 L3803.99 194.224 L3808.81 194.224 Z" fill="#000000" fill-rule="nonzero" fill-opacity="1" /><path clip-path="url(#clip940)" d="M3847.15 240.526 L3847.15 244.25 L3819.44 244.25 L3819.44 240.526 L3847.15 240.526 Z" fill="#000000" fill-rule="nonzero" fill-opacity="1" /><path clip-path="url(#clip940)" d="M3856.86 227.245 L3875.22 227.245 L3875.22 231.672 L3850.53 231.672 L3850.53 227.245 Q3853.53 224.146 3858.68 218.938 Q3863.86 213.703 3865.19 212.193 Q3867.72 209.354 3868.71 207.401 Q3869.72 205.422 3869.72 203.521 Q3869.72 200.422 3867.54 198.469 Q3865.37 196.516 3861.88 196.516 Q3859.41 196.516 3856.65 197.375 Q3853.92 198.235 3850.79 199.979 L3850.79 194.667 Q3853.97 193.391 3856.73 192.74 Q3859.49 192.089 3861.78 192.089 Q3867.82 192.089 3871.42 195.11 Q3875.01 198.13 3875.01 203.183 Q3875.01 205.578 3874.1 207.74 Q3873.21 209.875 3870.84 212.792 Q3870.19 213.547 3866.7 217.167 Q3863.21 220.761 3856.86 227.245 Z" fill="#000000" fill-rule="nonzero" fill-opacity="1" /><path clip-path="url(#clip940)" d="M3898.16 210.136 Q3894.62 210.136 3892.54 212.557 Q3890.48 214.979 3890.48 219.198 Q3890.48 223.391 3892.54 225.839 Q3894.62 228.261 3898.16 228.261 Q3901.7 228.261 3903.76 225.839 Q3905.84 223.391 3905.84 219.198 Q3905.84 214.979 3903.76 212.557 Q3901.7 210.136 3898.16 210.136 M3908.6 193.651 L3908.6 198.443 Q3906.62 197.505 3904.59 197.011 Q3902.59 196.516 3900.61 196.516 Q3895.4 196.516 3892.64 200.031 Q3889.91 203.547 3889.52 210.656 Q3891.05 208.391 3893.37 207.193 Q3895.69 205.969 3898.47 205.969 Q3904.33 205.969 3907.72 209.537 Q3911.13 213.078 3911.13 219.198 Q3911.13 225.188 3907.59 228.807 Q3904.05 232.427 3898.16 232.427 Q3891.42 232.427 3887.85 227.271 Q3884.28 222.089 3884.28 212.271 Q3884.28 203.052 3888.66 197.584 Q3893.03 192.089 3900.4 192.089 Q3902.38 192.089 3904.38 192.479 Q3906.42 192.87 3908.6 193.651 Z" fill="#000000" fill-rule="nonzero" fill-opacity="1" /><polyline clip-path="url(#clip940)" style="stroke:#1ac938; stroke-linecap:round; stroke-linejoin:round; stroke-width:5.625; stroke-opacity:1; fill:none" points="3347.09,270.552 3596.85,270.552 "/>
<path clip-path="url(#clip940)" d="M3643.29 285.617 L3643.29 301.086 L3638.47 301.086 L3638.47 260.825 L3643.29 260.825 L3643.29 265.253 Q3644.8 262.648 3647.09 261.398 Q3649.41 260.122 3652.62 260.122 Q3657.93 260.122 3661.23 264.341 Q3664.57 268.56 3664.57 275.435 Q3664.57 282.31 3661.23 286.528 Q3657.93 290.747 3652.62 290.747 Q3649.41 290.747 3647.09 289.497 Q3644.8 288.221 3643.29 285.617 M3659.59 275.435 Q3659.59 270.148 3657.41 267.154 Q3655.25 264.133 3651.44 264.133 Q3647.64 264.133 3645.45 267.154 Q3643.29 270.148 3643.29 275.435 Q3643.29 280.721 3645.45 283.742 Q3647.64 286.737 3651.44 286.737 Q3655.25 286.737 3657.41 283.742 Q3659.59 280.721 3659.59 275.435 Z" fill="#000000" fill-rule="nonzero" fill-opacity="1" /><path clip-path="url(#clip940)" d="M3689.41 265.305 Q3688.6 264.836 3687.64 264.628 Q3686.7 264.393 3685.56 264.393 Q3681.5 264.393 3679.31 267.049 Q3677.15 269.68 3677.15 274.627 L3677.15 289.992 L3672.33 289.992 L3672.33 260.825 L3677.15 260.825 L3677.15 265.357 Q3678.66 262.7 3681.08 261.424 Q3683.5 260.122 3686.96 260.122 Q3687.46 260.122 3688.06 260.2 Q3688.66 260.253 3689.39 260.383 L3689.41 265.305 Z" fill="#000000" fill-rule="nonzero" fill-opacity="1" /><path clip-path="url(#clip940)" d="M3718.21 274.211 L3718.21 276.555 L3696.18 276.555 Q3696.5 281.502 3699.15 284.107 Q3701.83 286.685 3706.6 286.685 Q3709.36 286.685 3711.94 286.008 Q3714.54 285.331 3717.09 283.976 L3717.09 288.508 Q3714.52 289.601 3711.81 290.174 Q3709.1 290.747 3706.31 290.747 Q3699.33 290.747 3695.25 286.685 Q3691.18 282.622 3691.18 275.695 Q3691.18 268.534 3695.04 264.341 Q3698.92 260.122 3705.48 260.122 Q3711.36 260.122 3714.78 263.924 Q3718.21 267.7 3718.21 274.211 M3713.42 272.805 Q3713.37 268.872 3711.21 266.529 Q3709.07 264.185 3705.53 264.185 Q3701.52 264.185 3699.1 266.45 Q3696.7 268.716 3696.34 272.831 L3713.42 272.805 Z" fill="#000000" fill-rule="nonzero" fill-opacity="1" /><path clip-path="url(#clip940)" d="M3745.27 265.253 L3745.27 249.471 L3750.06 249.471 L3750.06 289.992 L3745.27 289.992 L3745.27 285.617 Q3743.76 288.221 3741.44 289.497 Q3739.15 290.747 3735.92 290.747 Q3730.64 290.747 3727.3 286.528 Q3724 282.31 3724 275.435 Q3724 268.56 3727.3 264.341 Q3730.64 260.122 3735.92 260.122 Q3739.15 260.122 3741.44 261.398 Q3743.76 262.648 3745.27 265.253 M3728.94 275.435 Q3728.94 280.721 3731.1 283.742 Q3733.29 286.737 3737.09 286.737 Q3740.9 286.737 3743.08 283.742 Q3745.27 280.721 3745.27 275.435 Q3745.27 270.148 3743.08 267.154 Q3740.9 264.133 3737.09 264.133 Q3733.29 264.133 3731.1 267.154 Q3728.94 270.148 3728.94 275.435 Z" fill="#000000" fill-rule="nonzero" fill-opacity="1" /><path clip-path="url(#clip940)" d="M3759.93 260.825 L3764.72 260.825 L3764.72 289.992 L3759.93 289.992 L3759.93 260.825 M3759.93 249.471 L3764.72 249.471 L3764.72 255.539 L3759.93 255.539 L3759.93 249.471 Z" fill="#000000" fill-rule="nonzero" fill-opacity="1" /><path clip-path="url(#clip940)" d="M3795.74 261.945 L3795.74 266.424 Q3793.71 265.305 3791.65 264.758 Q3789.62 264.185 3787.54 264.185 Q3782.87 264.185 3780.3 267.154 Q3777.72 270.096 3777.72 275.435 Q3777.72 280.773 3780.3 283.742 Q3782.87 286.685 3787.54 286.685 Q3789.62 286.685 3791.65 286.138 Q3793.71 285.565 3795.74 284.445 L3795.74 288.872 Q3793.73 289.81 3791.57 290.278 Q3789.44 290.747 3787.02 290.747 Q3780.43 290.747 3776.55 286.607 Q3772.67 282.466 3772.67 275.435 Q3772.67 268.299 3776.57 264.211 Q3780.51 260.122 3787.33 260.122 Q3789.54 260.122 3791.65 260.591 Q3793.76 261.034 3795.74 261.945 Z" fill="#000000" fill-rule="nonzero" fill-opacity="1" /><path clip-path="url(#clip940)" d="M3808.81 252.544 L3808.81 260.825 L3818.68 260.825 L3818.68 264.549 L3808.81 264.549 L3808.81 280.383 Q3808.81 283.95 3809.78 284.966 Q3810.77 285.982 3813.76 285.982 L3818.68 285.982 L3818.68 289.992 L3813.76 289.992 Q3808.21 289.992 3806.1 287.935 Q3803.99 285.851 3803.99 280.383 L3803.99 264.549 L3800.48 264.549 L3800.48 260.825 L3803.99 260.825 L3803.99 252.544 L3808.81 252.544 Z" fill="#000000" fill-rule="nonzero" fill-opacity="1" /><path clip-path="url(#clip940)" d="M3847.15 298.846 L3847.15 302.57 L3819.44 302.57 L3819.44 298.846 L3847.15 298.846 Z" fill="#000000" fill-rule="nonzero" fill-opacity="1" /><path clip-path="url(#clip940)" d="M3866.78 255.695 L3853.5 276.45 L3866.78 276.45 L3866.78 255.695 M3865.4 251.112 L3872.02 251.112 L3872.02 276.45 L3877.56 276.45 L3877.56 280.825 L3872.02 280.825 L3872.02 289.992 L3866.78 289.992 L3866.78 280.825 L3849.23 280.825 L3849.23 275.747 L3865.4 251.112 Z" fill="#000000" fill-rule="nonzero" fill-opacity="1" /><polyline clip-path="url(#clip940)" style="stroke:#e8000b; stroke-linecap:round; stroke-linejoin:round; stroke-width:5.625; stroke-opacity:1; fill:none" points="3347.09,328.872 3596.85,328.872 "/>
<path clip-path="url(#clip940)" d="M3643.29 343.937 L3643.29 359.406 L3638.47 359.406 L3638.47 319.145 L3643.29 319.145 L3643.29 323.573 Q3644.8 320.968 3647.09 319.718 Q3649.41 318.442 3652.62 318.442 Q3657.93 318.442 3661.23 322.661 Q3664.57 326.88 3664.57 333.755 Q3664.57 340.63 3661.23 344.848 Q3657.93 349.067 3652.62 349.067 Q3649.41 349.067 3647.09 347.817 Q3644.8 346.541 3643.29 343.937 M3659.59 333.755 Q3659.59 328.468 3657.41 325.474 Q3655.25 322.453 3651.44 322.453 Q3647.64 322.453 3645.45 325.474 Q3643.29 328.468 3643.29 333.755 Q3643.29 339.041 3645.45 342.062 Q3647.64 345.057 3651.44 345.057 Q3655.25 345.057 3657.41 342.062 Q3659.59 339.041 3659.59 333.755 Z" fill="#000000" fill-rule="nonzero" fill-opacity="1" /><path clip-path="url(#clip940)" d="M3689.41 323.625 Q3688.6 323.156 3687.64 322.948 Q3686.7 322.713 3685.56 322.713 Q3681.5 322.713 3679.31 325.369 Q3677.15 328 3677.15 332.947 L3677.15 348.312 L3672.33 348.312 L3672.33 319.145 L3677.15 319.145 L3677.15 323.677 Q3678.66 321.02 3681.08 319.744 Q3683.5 318.442 3686.96 318.442 Q3687.46 318.442 3688.06 318.52 Q3688.66 318.573 3689.39 318.703 L3689.41 323.625 Z" fill="#000000" fill-rule="nonzero" fill-opacity="1" /><path clip-path="url(#clip940)" d="M3718.21 332.531 L3718.21 334.875 L3696.18 334.875 Q3696.5 339.822 3699.15 342.427 Q3701.83 345.005 3706.6 345.005 Q3709.36 345.005 3711.94 344.328 Q3714.54 343.651 3717.09 342.296 L3717.09 346.828 Q3714.52 347.921 3711.81 348.494 Q3709.1 349.067 3706.31 349.067 Q3699.33 349.067 3695.25 345.005 Q3691.18 340.942 3691.18 334.015 Q3691.18 326.854 3695.04 322.661 Q3698.92 318.442 3705.48 318.442 Q3711.36 318.442 3714.78 322.244 Q3718.21 326.02 3718.21 332.531 M3713.42 331.125 Q3713.37 327.192 3711.21 324.849 Q3709.07 322.505 3705.53 322.505 Q3701.52 322.505 3699.1 324.77 Q3696.7 327.036 3696.34 331.151 L3713.42 331.125 Z" fill="#000000" fill-rule="nonzero" fill-opacity="1" /><path clip-path="url(#clip940)" d="M3745.27 323.573 L3745.27 307.791 L3750.06 307.791 L3750.06 348.312 L3745.27 348.312 L3745.27 343.937 Q3743.76 346.541 3741.44 347.817 Q3739.15 349.067 3735.92 349.067 Q3730.64 349.067 3727.3 344.848 Q3724 340.63 3724 333.755 Q3724 326.88 3727.3 322.661 Q3730.64 318.442 3735.92 318.442 Q3739.15 318.442 3741.44 319.718 Q3743.76 320.968 3745.27 323.573 M3728.94 333.755 Q3728.94 339.041 3731.1 342.062 Q3733.29 345.057 3737.09 345.057 Q3740.9 345.057 3743.08 342.062 Q3745.27 339.041 3745.27 333.755 Q3745.27 328.468 3743.08 325.474 Q3740.9 322.453 3737.09 322.453 Q3733.29 322.453 3731.1 325.474 Q3728.94 328.468 3728.94 333.755 Z" fill="#000000" fill-rule="nonzero" fill-opacity="1" /><path clip-path="url(#clip940)" d="M3759.93 319.145 L3764.72 319.145 L3764.72 348.312 L3759.93 348.312 L3759.93 319.145 M3759.93 307.791 L3764.72 307.791 L3764.72 313.859 L3759.93 313.859 L3759.93 307.791 Z" fill="#000000" fill-rule="nonzero" fill-opacity="1" /><path clip-path="url(#clip940)" d="M3795.74 320.265 L3795.74 324.744 Q3793.71 323.625 3791.65 323.078 Q3789.62 322.505 3787.54 322.505 Q3782.87 322.505 3780.3 325.474 Q3777.72 328.416 3777.72 333.755 Q3777.72 339.093 3780.3 342.062 Q3782.87 345.005 3787.54 345.005 Q3789.62 345.005 3791.65 344.458 Q3793.71 343.885 3795.74 342.765 L3795.74 347.192 Q3793.73 348.13 3791.57 348.598 Q3789.44 349.067 3787.02 349.067 Q3780.43 349.067 3776.55 344.927 Q3772.67 340.786 3772.67 333.755 Q3772.67 326.619 3776.57 322.531 Q3780.51 318.442 3787.33 318.442 Q3789.54 318.442 3791.65 318.911 Q3793.76 319.354 3795.74 320.265 Z" fill="#000000" fill-rule="nonzero" fill-opacity="1" /><path clip-path="url(#clip940)" d="M3808.81 310.864 L3808.81 319.145 L3818.68 319.145 L3818.68 322.869 L3808.81 322.869 L3808.81 338.703 Q3808.81 342.27 3809.78 343.286 Q3810.77 344.302 3813.76 344.302 L3818.68 344.302 L3818.68 348.312 L3813.76 348.312 Q3808.21 348.312 3806.1 346.255 Q3803.99 344.171 3803.99 338.703 L3803.99 322.869 L3800.48 322.869 L3800.48 319.145 L3803.99 319.145 L3803.99 310.864 L3808.81 310.864 Z" fill="#000000" fill-rule="nonzero" fill-opacity="1" /><path clip-path="url(#clip940)" d="M3847.15 357.166 L3847.15 360.89 L3819.44 360.89 L3819.44 357.166 L3847.15 357.166 Z" fill="#000000" fill-rule="nonzero" fill-opacity="1" /><path clip-path="url(#clip940)" d="M3853.24 343.885 L3861.83 343.885 L3861.83 314.224 L3852.48 316.099 L3852.48 311.307 L3861.78 309.432 L3867.04 309.432 L3867.04 343.885 L3875.63 343.885 L3875.63 348.312 L3853.24 348.312 L3853.24 343.885 Z" fill="#000000" fill-rule="nonzero" fill-opacity="1" /><polyline clip-path="url(#clip940)" style="stroke:#000000; stroke-linecap:round; stroke-linejoin:round; stroke-width:6.75; stroke-opacity:1; fill:none" points="3347.09,387.192 3596.85,387.192 "/>
<path clip-path="url(#clip940)" d="M3653.55 391.971 Q3647.75 391.971 3645.51 393.299 Q3643.27 394.627 3643.27 397.83 Q3643.27 400.382 3644.93 401.892 Q3646.63 403.377 3649.52 403.377 Q3653.5 403.377 3655.9 400.564 Q3658.32 397.726 3658.32 393.038 L3658.32 391.971 L3653.55 391.971 M3663.11 389.991 L3663.11 406.632 L3658.32 406.632 L3658.32 402.205 Q3656.68 404.861 3654.23 406.137 Q3651.78 407.387 3648.24 407.387 Q3643.76 407.387 3641.1 404.887 Q3638.47 402.361 3638.47 398.142 Q3638.47 393.221 3641.76 390.721 Q3645.06 388.221 3651.6 388.221 L3658.32 388.221 L3658.32 387.752 Q3658.32 384.445 3656.13 382.648 Q3653.97 380.825 3650.04 380.825 Q3647.54 380.825 3645.17 381.424 Q3642.8 382.023 3640.61 383.221 L3640.61 378.794 Q3643.24 377.778 3645.71 377.283 Q3648.19 376.762 3650.53 376.762 Q3656.86 376.762 3659.99 380.044 Q3663.11 383.325 3663.11 389.991 Z" fill="#000000" fill-rule="nonzero" fill-opacity="1" /><path clip-path="url(#clip940)" d="M3693.97 378.585 L3693.97 383.064 Q3691.94 381.945 3689.88 381.398 Q3687.85 380.825 3685.77 380.825 Q3681.1 380.825 3678.53 383.794 Q3675.95 386.736 3675.95 392.075 Q3675.95 397.413 3678.53 400.382 Q3681.1 403.325 3685.77 403.325 Q3687.85 403.325 3689.88 402.778 Q3691.94 402.205 3693.97 401.085 L3693.97 405.512 Q3691.96 406.45 3689.8 406.918 Q3687.67 407.387 3685.25 407.387 Q3678.66 407.387 3674.78 403.247 Q3670.9 399.106 3670.9 392.075 Q3670.9 384.939 3674.8 380.851 Q3678.73 376.762 3685.56 376.762 Q3687.77 376.762 3689.88 377.231 Q3691.99 377.674 3693.97 378.585 Z" fill="#000000" fill-rule="nonzero" fill-opacity="1" /><path clip-path="url(#clip940)" d="M3707.04 369.184 L3707.04 377.465 L3716.91 377.465 L3716.91 381.189 L3707.04 381.189 L3707.04 397.023 Q3707.04 400.59 3708.01 401.606 Q3709 402.622 3711.99 402.622 L3716.91 402.622 L3716.91 406.632 L3711.99 406.632 Q3706.44 406.632 3704.33 404.575 Q3702.22 402.491 3702.22 397.023 L3702.22 381.189 L3698.71 381.189 L3698.71 377.465 L3702.22 377.465 L3702.22 369.184 L3707.04 369.184 Z" fill="#000000" fill-rule="nonzero" fill-opacity="1" /><path clip-path="url(#clip940)" d="M3722.72 395.122 L3722.72 377.465 L3727.51 377.465 L3727.51 394.939 Q3727.51 399.08 3729.13 401.163 Q3730.74 403.221 3733.97 403.221 Q3737.85 403.221 3740.09 400.747 Q3742.35 398.273 3742.35 394.002 L3742.35 377.465 L3747.15 377.465 L3747.15 406.632 L3742.35 406.632 L3742.35 402.153 Q3740.61 404.809 3738.29 406.111 Q3736 407.387 3732.95 407.387 Q3727.93 407.387 3725.32 404.262 Q3722.72 401.137 3722.72 395.122 M3734.78 376.762 L3734.78 376.762 Z" fill="#000000" fill-rule="nonzero" fill-opacity="1" /><path clip-path="url(#clip940)" d="M3770.27 391.971 Q3764.46 391.971 3762.22 393.299 Q3759.98 394.627 3759.98 397.83 Q3759.98 400.382 3761.65 401.892 Q3763.34 403.377 3766.23 403.377 Q3770.22 403.377 3772.61 400.564 Q3775.04 397.726 3775.04 393.038 L3775.04 391.971 L3770.27 391.971 M3779.83 389.991 L3779.83 406.632 L3775.04 406.632 L3775.04 402.205 Q3773.4 404.861 3770.95 406.137 Q3768.5 407.387 3764.96 407.387 Q3760.48 407.387 3757.82 404.887 Q3755.19 402.361 3755.19 398.142 Q3755.19 393.221 3758.47 390.721 Q3761.78 388.221 3768.32 388.221 L3775.04 388.221 L3775.04 387.752 Q3775.04 384.445 3772.85 382.648 Q3770.69 380.825 3766.76 380.825 Q3764.26 380.825 3761.89 381.424 Q3759.52 382.023 3757.33 383.221 L3757.33 378.794 Q3759.96 377.778 3762.43 377.283 Q3764.91 376.762 3767.25 376.762 Q3773.58 376.762 3776.7 380.044 Q3779.83 383.325 3779.83 389.991 Z" fill="#000000" fill-rule="nonzero" fill-opacity="1" /><path clip-path="url(#clip940)" d="M3789.7 366.111 L3794.49 366.111 L3794.49 406.632 L3789.7 406.632 L3789.7 366.111 Z" fill="#000000" fill-rule="nonzero" fill-opacity="1" /></svg>
