<?xml version="1.0" encoding="UTF-8" standalone="no"?>
<!DOCTYPE svg PUBLIC "-//W3C//DTD SVG 1.1//EN"
 "http://www.w3.org/Graphics/SVG/1.1/DTD/svg11.dtd">
<!-- Generated by graphviz version 2.50.0 (20211204.2007)
 -->
<!-- Pages: 1 -->
<svg width="792pt" height="588pt"
 viewBox="0.00 0.00 792.00 588.00" xmlns="http://www.w3.org/2000/svg" xmlns:xlink="http://www.w3.org/1999/xlink">
<g id="graph0" class="graph" transform="scale(1 1) rotate(0) translate(4 584)">
<polygon fill="white" stroke="transparent" points="-4,4 -4,-584 788,-584 788,4 -4,4"/>
<!-- 1 -->
<g id="node1" class="node">
<title>1</title>
<text text-anchor="start" x="305" y="-561.8" font-family="Arial" font-weight="bold" font-size="14.00"> </text>
<text text-anchor="start" x="239" y="-517.3" font-family="Arial" font-size="14.00"> &#160;&#160;&#160;</text>
<path fill="#ebebeb" stroke="transparent" d="M269,-489C269,-489 345,-489 345,-489 351,-489 357,-495 357,-501 357,-501 357,-541 357,-541 357,-547 351,-553 345,-553 345,-553 269,-553 269,-553 263,-553 257,-547 257,-541 257,-541 257,-501 257,-501 257,-495 263,-489 269,-489"/>
<text text-anchor="start" x="258" y="-550.4" font-family="Arial" font-size="2.00"> </text>
<text text-anchor="start" x="258" y="-544.4" font-family="Arial" font-size="7.00"> &#160;1</text>
<text text-anchor="start" x="272" y="-527.8" font-family="Arial" font-weight="bold" font-size="14.00">Mean: 6.12</text>
<text text-anchor="start" x="283.5" y="-510.8" font-family="Arial" font-weight="bold" font-size="14.00">n = 168</text>
<text text-anchor="start" x="305.5" y="-492.8" font-family="Arial" font-size="9.00"> </text>
<path fill="none" stroke="#333333" d="M269,-489C269,-489 345,-489 345,-489 351,-489 357,-495 357,-501 357,-501 357,-541 357,-541 357,-547 351,-553 345,-553 345,-553 269,-553 269,-553 263,-553 257,-547 257,-541 257,-541 257,-501 257,-501 257,-495 263,-489 269,-489"/>
<text text-anchor="start" x="359" y="-517.3" font-family="Arial" font-size="14.00"> &#160;&#160;&#160;</text>
<text text-anchor="start" x="254" y="-474.8" font-family="Arial" font-weight="bold" font-size="14.00">prev_168_inflow</text>
</g>
<!-- 2 -->
<g id="node2" class="node">
<title>2</title>
<text text-anchor="start" x="200" y="-407.8" font-family="Arial" font-weight="bold" font-size="14.00"> &lt; 4.925</text>
<text text-anchor="start" x="157" y="-363.3" font-family="Arial" font-size="14.00"> &#160;&#160;</text>
<path fill="#ebebeb" stroke="transparent" d="M183,-335C183,-335 267,-335 267,-335 273,-335 279,-341 279,-347 279,-347 279,-387 279,-387 279,-393 273,-399 267,-399 267,-399 183,-399 183,-399 177,-399 171,-393 171,-387 171,-387 171,-347 171,-347 171,-341 177,-335 183,-335"/>
<text text-anchor="start" x="172" y="-396.4" font-family="Arial" font-size="2.00"> </text>
<text text-anchor="start" x="172" y="-390.4" font-family="Arial" font-size="7.00"> &#160;2</text>
<text text-anchor="start" x="186" y="-373.8" font-family="Arial" font-weight="bold" font-size="14.00">Mean: 4.476</text>
<text text-anchor="start" x="205" y="-356.8" font-family="Arial" font-weight="bold" font-size="14.00">n = 68</text>
<text text-anchor="start" x="223.5" y="-338.8" font-family="Arial" font-size="9.00"> </text>
<path fill="none" stroke="#333333" d="M183,-335C183,-335 267,-335 267,-335 273,-335 279,-341 279,-347 279,-347 279,-387 279,-387 279,-393 273,-399 267,-399 267,-399 183,-399 183,-399 177,-399 171,-393 171,-387 171,-387 171,-347 171,-347 171,-341 177,-335 183,-335"/>
<text text-anchor="start" x="281" y="-363.3" font-family="Arial" font-size="14.00"> &#160;&#160;</text>
<text text-anchor="start" x="172" y="-320.8" font-family="Arial" font-weight="bold" font-size="14.00">prev_168_inflow</text>
</g>
<!-- 1&#45;&gt;2 -->
<g id="edge1" class="edge">
<title>1&#45;&gt;2</title>
<path fill="none" stroke="#888888" d="M275.53,-461.67C270.82,-452.94 265.94,-443.88 261.14,-434.99"/>
<polygon fill="#888888" stroke="#888888" points="264.21,-433.32 256.38,-426.18 258.05,-436.64 264.21,-433.32"/>
</g>
<!-- 5 -->
<g id="node3" class="node">
<title>5</title>
<text text-anchor="start" x="365.5" y="-407.8" font-family="Arial" font-weight="bold" font-size="14.00"> ≥ 4.925</text>
<path fill="#ebebeb" stroke="transparent" d="M348,-335C348,-335 432,-335 432,-335 438,-335 444,-341 444,-347 444,-347 444,-387 444,-387 444,-393 438,-399 432,-399 432,-399 348,-399 348,-399 342,-399 336,-393 336,-387 336,-387 336,-347 336,-347 336,-341 342,-335 348,-335"/>
<text text-anchor="start" x="337" y="-396.4" font-family="Arial" font-size="2.00"> </text>
<text text-anchor="start" x="337" y="-390.4" font-family="Arial" font-size="7.00"> &#160;5</text>
<text text-anchor="start" x="351" y="-373.8" font-family="Arial" font-weight="bold" font-size="14.00">Mean: 7.237</text>
<text text-anchor="start" x="366.5" y="-356.8" font-family="Arial" font-weight="bold" font-size="14.00">n = 100</text>
<text text-anchor="start" x="388.5" y="-338.8" font-family="Arial" font-size="9.00"> </text>
<path fill="none" stroke="#333333" d="M348,-335C348,-335 432,-335 432,-335 438,-335 444,-341 444,-347 444,-347 444,-387 444,-387 444,-393 438,-399 432,-399 432,-399 348,-399 348,-399 342,-399 336,-393 336,-387 336,-387 336,-347 336,-347 336,-341 342,-335 348,-335"/>
<text text-anchor="start" x="347.5" y="-320.8" font-family="Arial" font-weight="bold" font-size="14.00">day_of_week</text>
</g>
<!-- 1&#45;&gt;5 -->
<g id="edge2" class="edge">
<title>1&#45;&gt;5</title>
<path fill="none" stroke="#888888" d="M338.85,-461.67C343.62,-452.94 348.56,-443.88 353.42,-434.99"/>
<polygon fill="#888888" stroke="#888888" points="356.51,-436.63 358.23,-426.18 350.37,-433.28 356.51,-436.63"/>
</g>
<!-- 3 -->
<g id="node4" class="node">
<title>3</title>
<text text-anchor="start" x="47.5" y="-253.8" font-family="Arial" font-weight="bold" font-size="14.00"> &lt; 3.94</text>
<path fill="#f8766d" fill-opacity="0.874510" stroke="transparent" d="M24,-181C24,-181 114,-181 114,-181 120,-181 126,-187 126,-193 126,-193 126,-233 126,-233 126,-239 120,-245 114,-245 114,-245 24,-245 24,-245 18,-245 12,-239 12,-233 12,-233 12,-193 12,-193 12,-187 18,-181 24,-181"/>
<text text-anchor="start" x="13" y="-242.4" font-family="Arial" font-size="2.00"> </text>
<text text-anchor="start" x="13" y="-236.4" font-family="Arial" font-size="7.00"> &#160;3</text>
<text text-anchor="start" x="27" y="-219.8" font-family="Arial" font-weight="bold" font-size="14.00">Predict 3.643</text>
<text text-anchor="start" x="49" y="-202.8" font-family="Arial" font-weight="bold" font-size="14.00">n = 30</text>
<text text-anchor="start" x="67.5" y="-184.8" font-family="Arial" font-size="9.00"> </text>
<path fill="none" stroke="#333333" d="M24,-181C24,-181 114,-181 114,-181 120,-181 126,-187 126,-193 126,-193 126,-233 126,-233 126,-239 120,-245 114,-245 114,-245 24,-245 24,-245 18,-245 12,-239 12,-233 12,-233 12,-193 12,-193 12,-187 18,-181 24,-181"/>
<text text-anchor="start" x="67" y="-166.8" font-family="Arial" font-weight="bold" font-size="14.00"> </text>
</g>
<!-- 2&#45;&gt;3 -->
<g id="edge3" class="edge">
<title>2&#45;&gt;3</title>
<path fill="none" stroke="#888888" d="M165.13,-307.67C155.62,-298.39 145.72,-288.75 136.05,-279.33"/>
<polygon fill="#888888" stroke="#888888" points="138.31,-276.65 128.71,-272.18 133.43,-281.66 138.31,-276.65"/>
</g>
<!-- 4 -->
<g id="node5" class="node">
<title>4</title>
<text text-anchor="start" x="204" y="-253.8" font-family="Arial" font-weight="bold" font-size="14.00"> ≥ 3.94</text>
<path fill="#f8766d" fill-opacity="0.741176" stroke="transparent" d="M180,-181C180,-181 270,-181 270,-181 276,-181 282,-187 282,-193 282,-193 282,-233 282,-233 282,-239 276,-245 270,-245 270,-245 180,-245 180,-245 174,-245 168,-239 168,-233 168,-233 168,-193 168,-193 168,-187 174,-181 180,-181"/>
<text text-anchor="start" x="169" y="-242.4" font-family="Arial" font-size="2.00"> </text>
<text text-anchor="start" x="169" y="-236.4" font-family="Arial" font-size="7.00"> &#160;4</text>
<text text-anchor="start" x="183" y="-219.8" font-family="Arial" font-weight="bold" font-size="14.00">Predict 5.133</text>
<text text-anchor="start" x="205" y="-202.8" font-family="Arial" font-weight="bold" font-size="14.00">n = 38</text>
<text text-anchor="start" x="223.5" y="-184.8" font-family="Arial" font-size="9.00"> </text>
<path fill="none" stroke="#333333" d="M180,-181C180,-181 270,-181 270,-181 276,-181 282,-187 282,-193 282,-193 282,-233 282,-233 282,-239 276,-245 270,-245 270,-245 180,-245 180,-245 174,-245 168,-239 168,-233 168,-233 168,-193 168,-193 168,-187 174,-181 180,-181"/>
<text text-anchor="start" x="223" y="-166.8" font-family="Arial" font-weight="bold" font-size="14.00"> </text>
</g>
<!-- 2&#45;&gt;4 -->
<g id="edge4" class="edge">
<title>2&#45;&gt;4</title>
<path fill="none" stroke="#888888" d="M225,-307.67C225,-299.39 225,-290.83 225,-282.38"/>
<polygon fill="#888888" stroke="#888888" points="228.5,-282.18 225,-272.18 221.5,-282.18 228.5,-282.18"/>
</g>
<!-- 6 -->
<g id="node6" class="node">
<title>6</title>
<text text-anchor="start" x="373" y="-253.8" font-family="Arial" font-weight="bold" font-size="14.00"> &lt; 3.5</text>
<text text-anchor="start" x="323" y="-209.3" font-family="Arial" font-size="14.00"> &#160;&#160;</text>
<path fill="#ebebeb" stroke="transparent" d="M349,-181C349,-181 432,-181 432,-181 438,-181 444,-187 444,-193 444,-193 444,-233 444,-233 444,-239 438,-245 432,-245 432,-245 349,-245 349,-245 343,-245 337,-239 337,-233 337,-233 337,-193 337,-193 337,-187 343,-181 349,-181"/>
<text text-anchor="start" x="338" y="-242.4" font-family="Arial" font-size="2.00"> </text>
<text text-anchor="start" x="338" y="-236.4" font-family="Arial" font-size="7.00"> &#160;6</text>
<text text-anchor="start" x="352" y="-219.8" font-family="Arial" font-weight="bold" font-size="14.00">Mean: 7.711</text>
<text text-anchor="start" x="370.5" y="-202.8" font-family="Arial" font-weight="bold" font-size="14.00">n = 39</text>
<text text-anchor="start" x="389" y="-184.8" font-family="Arial" font-size="9.00"> </text>
<path fill="none" stroke="#333333" d="M349,-181C349,-181 432,-181 432,-181 438,-181 444,-187 444,-193 444,-193 444,-233 444,-233 444,-239 438,-245 432,-245 432,-245 349,-245 349,-245 343,-245 337,-239 337,-233 337,-233 337,-193 337,-193 337,-187 343,-181 349,-181"/>
<text text-anchor="start" x="446" y="-209.3" font-family="Arial" font-size="14.00"> &#160;&#160;</text>
<text text-anchor="start" x="337.5" y="-166.8" font-family="Arial" font-weight="bold" font-size="14.00">prev_168_inflow</text>
</g>
<!-- 5&#45;&gt;6 -->
<g id="edge5" class="edge">
<title>5&#45;&gt;6</title>
<path fill="none" stroke="#888888" d="M390,-307.67C390,-299.39 390,-290.83 390,-282.38"/>
<polygon fill="#888888" stroke="#888888" points="393.5,-282.18 390,-272.18 386.5,-282.18 393.5,-282.18"/>
</g>
<!-- 9 -->
<g id="node7" class="node">
<title>9</title>
<text text-anchor="start" x="547" y="-253.8" font-family="Arial" font-weight="bold" font-size="14.00"> ≥ 3.5</text>
<text text-anchor="start" x="496" y="-209.3" font-family="Arial" font-size="14.00"> &#160;&#160;</text>
<path fill="#ebebeb" stroke="transparent" d="M522,-181C522,-181 606,-181 606,-181 612,-181 618,-187 618,-193 618,-193 618,-233 618,-233 618,-239 612,-245 606,-245 606,-245 522,-245 522,-245 516,-245 510,-239 510,-233 510,-233 510,-193 510,-193 510,-187 516,-181 522,-181"/>
<text text-anchor="start" x="511" y="-242.4" font-family="Arial" font-size="2.00"> </text>
<text text-anchor="start" x="511" y="-236.4" font-family="Arial" font-size="7.00"> &#160;9</text>
<text text-anchor="start" x="525" y="-219.8" font-family="Arial" font-weight="bold" font-size="14.00">Mean: 6.935</text>
<text text-anchor="start" x="544" y="-202.8" font-family="Arial" font-weight="bold" font-size="14.00">n = 61</text>
<text text-anchor="start" x="562.5" y="-184.8" font-family="Arial" font-size="9.00"> </text>
<path fill="none" stroke="#333333" d="M522,-181C522,-181 606,-181 606,-181 612,-181 618,-187 618,-193 618,-193 618,-233 618,-233 618,-239 612,-245 606,-245 606,-245 522,-245 522,-245 516,-245 510,-239 510,-233 510,-233 510,-193 510,-193 510,-187 516,-181 522,-181"/>
<text text-anchor="start" x="620" y="-209.3" font-family="Arial" font-size="14.00"> &#160;&#160;</text>
<text text-anchor="start" x="511" y="-166.8" font-family="Arial" font-weight="bold" font-size="14.00">prev_168_inflow</text>
</g>
<!-- 5&#45;&gt;9 -->
<g id="edge6" class="edge">
<title>5&#45;&gt;9</title>
<path fill="none" stroke="#888888" d="M456.28,-308.1C467.2,-298.56 478.59,-288.61 489.7,-278.91"/>
<polygon fill="#888888" stroke="#888888" points="492.1,-281.46 497.33,-272.24 487.5,-276.18 492.1,-281.46"/>
</g>
<!-- 7 -->
<g id="node8" class="node">
<title>7</title>
<text text-anchor="start" x="213" y="-99.8" font-family="Arial" font-weight="bold" font-size="14.00"> &lt; 6.055</text>
<path fill="#f8766d" fill-opacity="0.600000" stroke="transparent" d="M193,-27C193,-27 283,-27 283,-27 289,-27 295,-33 295,-39 295,-39 295,-79 295,-79 295,-85 289,-91 283,-91 283,-91 193,-91 193,-91 187,-91 181,-85 181,-79 181,-79 181,-39 181,-39 181,-33 187,-27 193,-27"/>
<text text-anchor="start" x="182" y="-88.4" font-family="Arial" font-size="2.00"> </text>
<text text-anchor="start" x="182" y="-82.4" font-family="Arial" font-size="7.00"> &#160;7</text>
<text text-anchor="start" x="196" y="-65.8" font-family="Arial" font-weight="bold" font-size="14.00">Predict 6.732</text>
<text text-anchor="start" x="218" y="-48.8" font-family="Arial" font-weight="bold" font-size="14.00">n = 24</text>
<text text-anchor="start" x="236.5" y="-30.8" font-family="Arial" font-size="9.00"> </text>
<path fill="none" stroke="#333333" d="M193,-27C193,-27 283,-27 283,-27 289,-27 295,-33 295,-39 295,-39 295,-79 295,-79 295,-85 289,-91 283,-91 283,-91 193,-91 193,-91 187,-91 181,-85 181,-79 181,-79 181,-39 181,-39 181,-33 187,-27 193,-27"/>
<text text-anchor="start" x="236" y="-12.8" font-family="Arial" font-weight="bold" font-size="14.00"> </text>
</g>
<!-- 6&#45;&gt;7 -->
<g id="edge7" class="edge">
<title>6&#45;&gt;7</title>
<path fill="none" stroke="#888888" d="M331.67,-153.67C322.39,-144.39 312.75,-134.75 303.33,-125.33"/>
<polygon fill="#888888" stroke="#888888" points="305.72,-122.77 296.18,-118.18 300.77,-127.72 305.72,-122.77"/>
</g>
<!-- 8 -->
<g id="node9" class="node">
<title>8</title>
<text text-anchor="start" x="369.5" y="-99.8" font-family="Arial" font-weight="bold" font-size="14.00"> ≥ 6.055</text>
<path fill="#f8766d" fill-opacity="0.376471" stroke="transparent" d="M349,-27C349,-27 439,-27 439,-27 445,-27 451,-33 451,-39 451,-39 451,-79 451,-79 451,-85 445,-91 439,-91 439,-91 349,-91 349,-91 343,-91 337,-85 337,-79 337,-79 337,-39 337,-39 337,-33 343,-27 349,-27"/>
<text text-anchor="start" x="338" y="-88.4" font-family="Arial" font-size="2.00"> </text>
<text text-anchor="start" x="338" y="-82.4" font-family="Arial" font-size="7.00"> &#160;8</text>
<text text-anchor="start" x="352" y="-65.8" font-family="Arial" font-weight="bold" font-size="14.00">Predict 9.277</text>
<text text-anchor="start" x="374" y="-48.8" font-family="Arial" font-weight="bold" font-size="14.00">n = 15</text>
<text text-anchor="start" x="392.5" y="-30.8" font-family="Arial" font-size="9.00"> </text>
<path fill="none" stroke="#333333" d="M349,-27C349,-27 439,-27 439,-27 445,-27 451,-33 451,-39 451,-39 451,-79 451,-79 451,-85 445,-91 439,-91 439,-91 349,-91 349,-91 343,-91 337,-85 337,-79 337,-79 337,-39 337,-39 337,-33 343,-27 349,-27"/>
<text text-anchor="start" x="392" y="-12.8" font-family="Arial" font-weight="bold" font-size="14.00"> </text>
</g>
<!-- 6&#45;&gt;8 -->
<g id="edge8" class="edge">
<title>6&#45;&gt;8</title>
<path fill="none" stroke="#888888" d="M391.54,-153.67C391.75,-145.39 391.98,-136.83 392.2,-128.38"/>
<polygon fill="#888888" stroke="#888888" points="395.7,-128.27 392.47,-118.18 388.71,-128.08 395.7,-128.27"/>
</g>
<!-- 10 -->
<g id="node10" class="node">
<title>10</title>
<text text-anchor="start" x="534" y="-99.8" font-family="Arial" font-weight="bold" font-size="14.00"> &lt; 7.325</text>
<path fill="#f8766d" fill-opacity="0.658824" stroke="transparent" d="M514,-27C514,-27 604,-27 604,-27 610,-27 616,-33 616,-39 616,-39 616,-79 616,-79 616,-85 610,-91 604,-91 604,-91 514,-91 514,-91 508,-91 502,-85 502,-79 502,-79 502,-39 502,-39 502,-33 508,-27 514,-27"/>
<text text-anchor="start" x="503" y="-88.4" font-family="Arial" font-size="2.00"> </text>
<text text-anchor="start" x="503" y="-82.4" font-family="Arial" font-size="7.00"> &#160;10</text>
<text text-anchor="start" x="517" y="-65.8" font-family="Arial" font-weight="bold" font-size="14.00">Predict 6.079</text>
<text text-anchor="start" x="539" y="-48.8" font-family="Arial" font-weight="bold" font-size="14.00">n = 37</text>
<text text-anchor="start" x="557.5" y="-30.8" font-family="Arial" font-size="9.00"> </text>
<path fill="none" stroke="#333333" d="M514,-27C514,-27 604,-27 604,-27 610,-27 616,-33 616,-39 616,-39 616,-79 616,-79 616,-85 610,-91 604,-91 604,-91 514,-91 514,-91 508,-91 502,-85 502,-79 502,-79 502,-39 502,-39 502,-33 508,-27 514,-27"/>
<text text-anchor="start" x="557" y="-12.8" font-family="Arial" font-weight="bold" font-size="14.00"> </text>
</g>
<!-- 9&#45;&gt;10 -->
<g id="edge9" class="edge">
<title>9&#45;&gt;10</title>
<path fill="none" stroke="#888888" d="M562.08,-153.67C561.81,-145.39 561.53,-136.83 561.25,-128.38"/>
<polygon fill="#888888" stroke="#888888" points="564.74,-128.06 560.91,-118.18 557.74,-128.29 564.74,-128.06"/>
</g>
<!-- 11 -->
<g id="node11" class="node">
<title>11</title>
<text text-anchor="start" x="690.5" y="-99.8" font-family="Arial" font-weight="bold" font-size="14.00"> ≥ 7.325</text>
<path fill="#f8766d" fill-opacity="0.466667" stroke="transparent" d="M670,-27C670,-27 760,-27 760,-27 766,-27 772,-33 772,-39 772,-39 772,-79 772,-79 772,-85 766,-91 760,-91 760,-91 670,-91 670,-91 664,-91 658,-85 658,-79 658,-79 658,-39 658,-39 658,-33 664,-27 670,-27"/>
<text text-anchor="start" x="659" y="-88.4" font-family="Arial" font-size="2.00"> </text>
<text text-anchor="start" x="659" y="-82.4" font-family="Arial" font-size="7.00"> &#160;11</text>
<text text-anchor="start" x="673" y="-65.8" font-family="Arial" font-weight="bold" font-size="14.00">Predict 8.254</text>
<text text-anchor="start" x="695" y="-48.8" font-family="Arial" font-weight="bold" font-size="14.00">n = 24</text>
<text text-anchor="start" x="713.5" y="-30.8" font-family="Arial" font-size="9.00"> </text>
<path fill="none" stroke="#333333" d="M670,-27C670,-27 760,-27 760,-27 766,-27 772,-33 772,-39 772,-39 772,-79 772,-79 772,-85 766,-91 760,-91 760,-91 670,-91 670,-91 664,-91 658,-85 658,-79 658,-79 658,-39 658,-39 658,-33 664,-27 670,-27"/>
<text text-anchor="start" x="713" y="-12.8" font-family="Arial" font-weight="bold" font-size="14.00"> </text>
</g>
<!-- 9&#45;&gt;11 -->
<g id="edge10" class="edge">
<title>9&#45;&gt;11</title>
<path fill="none" stroke="#888888" d="M621.95,-153.67C631.16,-144.39 640.74,-134.75 650.1,-125.33"/>
<polygon fill="#888888" stroke="#888888" points="652.64,-127.74 657.21,-118.18 647.68,-122.8 652.64,-127.74"/>
</g>
</g>
</svg>
