<?xml version="1.0" encoding="UTF-8" standalone="no"?>
<!DOCTYPE svg PUBLIC "-//W3C//DTD SVG 1.1//EN"
 "http://www.w3.org/Graphics/SVG/1.1/DTD/svg11.dtd">
<!-- Generated by graphviz version 2.50.0 (20211204.2007)
 -->
<!-- Pages: 1 -->
<svg width="1694pt" height="742pt"
 viewBox="0.00 0.00 1694.00 742.00" xmlns="http://www.w3.org/2000/svg" xmlns:xlink="http://www.w3.org/1999/xlink">
<g id="graph0" class="graph" transform="scale(1 1) rotate(0) translate(4 738)">
<polygon fill="white" stroke="transparent" points="-4,4 -4,-738 1690,-738 1690,4 -4,4"/>
<!-- 1 -->
<g id="node1" class="node">
<title>1</title>
<text text-anchor="start" x="595" y="-715.8" font-family="Arial" font-weight="bold" font-size="14.00"> </text>
<text text-anchor="start" x="529" y="-671.3" font-family="Arial" font-size="14.00"> &#160;&#160;</text>
<path fill="#ebebeb" stroke="transparent" d="M555,-643C555,-643 639,-643 639,-643 645,-643 651,-649 651,-655 651,-655 651,-695 651,-695 651,-701 645,-707 639,-707 639,-707 555,-707 555,-707 549,-707 543,-701 543,-695 543,-695 543,-655 543,-655 543,-649 549,-643 555,-643"/>
<text text-anchor="start" x="544" y="-704.4" font-family="Arial" font-size="2.00"> </text>
<text text-anchor="start" x="544" y="-698.4" font-family="Arial" font-size="7.00"> &#160;1</text>
<text text-anchor="start" x="558" y="-681.8" font-family="Arial" font-weight="bold" font-size="14.00">Mean: 29.02</text>
<text text-anchor="start" x="573.5" y="-664.8" font-family="Arial" font-weight="bold" font-size="14.00">n = 672</text>
<text text-anchor="start" x="595.5" y="-646.8" font-family="Arial" font-size="9.00"> </text>
<path fill="none" stroke="#333333" d="M555,-643C555,-643 639,-643 639,-643 645,-643 651,-649 651,-655 651,-655 651,-695 651,-695 651,-701 645,-707 639,-707 639,-707 555,-707 555,-707 549,-707 543,-701 543,-695 543,-695 543,-655 543,-655 543,-649 549,-643 555,-643"/>
<text text-anchor="start" x="653" y="-671.3" font-family="Arial" font-size="14.00"> &#160;&#160;</text>
<text text-anchor="start" x="544" y="-628.8" font-family="Arial" font-weight="bold" font-size="14.00">prev_168_inflow</text>
</g>
<!-- 2 -->
<g id="node2" class="node">
<title>2</title>
<text text-anchor="start" x="425.5" y="-561.8" font-family="Arial" font-weight="bold" font-size="14.00"> &lt; 26.7</text>
<text text-anchor="start" x="379" y="-517.3" font-family="Arial" font-size="14.00"> &#160;&#160;</text>
<path fill="#ebebeb" stroke="transparent" d="M405,-489C405,-489 489,-489 489,-489 495,-489 501,-495 501,-501 501,-501 501,-541 501,-541 501,-547 495,-553 489,-553 489,-553 405,-553 405,-553 399,-553 393,-547 393,-541 393,-541 393,-501 393,-501 393,-495 399,-489 405,-489"/>
<text text-anchor="start" x="394" y="-550.4" font-family="Arial" font-size="2.00"> </text>
<text text-anchor="start" x="394" y="-544.4" font-family="Arial" font-size="7.00"> &#160;2</text>
<text text-anchor="start" x="408" y="-527.8" font-family="Arial" font-weight="bold" font-size="14.00">Mean: 23.56</text>
<text text-anchor="start" x="423.5" y="-510.8" font-family="Arial" font-weight="bold" font-size="14.00">n = 221</text>
<text text-anchor="start" x="445.5" y="-492.8" font-family="Arial" font-size="9.00"> </text>
<path fill="none" stroke="#333333" d="M405,-489C405,-489 489,-489 489,-489 495,-489 501,-495 501,-501 501,-501 501,-541 501,-541 501,-547 495,-553 489,-553 489,-553 405,-553 405,-553 399,-553 393,-547 393,-541 393,-541 393,-501 393,-501 393,-495 399,-489 405,-489"/>
<text text-anchor="start" x="503" y="-517.3" font-family="Arial" font-size="14.00"> &#160;&#160;</text>
<text text-anchor="start" x="394" y="-474.8" font-family="Arial" font-weight="bold" font-size="14.00">prev_168_inflow</text>
</g>
<!-- 1&#45;&gt;2 -->
<g id="edge1" class="edge">
<title>1&#45;&gt;2</title>
<path fill="none" stroke="#888888" d="M539.44,-615.67C530.28,-606.39 520.77,-596.75 511.47,-587.33"/>
<polygon fill="#888888" stroke="#888888" points="513.93,-584.84 504.41,-580.18 508.94,-589.75 513.93,-584.84"/>
</g>
<!-- 11 -->
<g id="node3" class="node">
<title>11</title>
<text text-anchor="start" x="739" y="-561.8" font-family="Arial" font-weight="bold" font-size="14.00"> ≥ 26.7</text>
<text text-anchor="start" x="692" y="-517.3" font-family="Arial" font-size="14.00"> &#160;&#160;&#160;</text>
<path fill="#ebebeb" stroke="transparent" d="M722,-489C722,-489 798,-489 798,-489 804,-489 810,-495 810,-501 810,-501 810,-541 810,-541 810,-547 804,-553 798,-553 798,-553 722,-553 722,-553 716,-553 710,-547 710,-541 710,-541 710,-501 710,-501 710,-495 716,-489 722,-489"/>
<text text-anchor="start" x="711" y="-550.4" font-family="Arial" font-size="2.00"> </text>
<text text-anchor="start" x="711" y="-544.4" font-family="Arial" font-size="7.00"> &#160;11</text>
<text text-anchor="start" x="725" y="-527.8" font-family="Arial" font-weight="bold" font-size="14.00">Mean: 31.7</text>
<text text-anchor="start" x="736.5" y="-510.8" font-family="Arial" font-weight="bold" font-size="14.00">n = 451</text>
<text text-anchor="start" x="758.5" y="-492.8" font-family="Arial" font-size="9.00"> </text>
<path fill="none" stroke="#333333" d="M722,-489C722,-489 798,-489 798,-489 804,-489 810,-495 810,-501 810,-501 810,-541 810,-541 810,-547 804,-553 798,-553 798,-553 722,-553 722,-553 716,-553 710,-547 710,-541 710,-541 710,-501 710,-501 710,-495 716,-489 722,-489"/>
<text text-anchor="start" x="812" y="-517.3" font-family="Arial" font-size="14.00"> &#160;&#160;&#160;</text>
<text text-anchor="start" x="707" y="-474.8" font-family="Arial" font-weight="bold" font-size="14.00">prev_168_inflow</text>
</g>
<!-- 1&#45;&gt;11 -->
<g id="edge2" class="edge">
<title>1&#45;&gt;11</title>
<path fill="none" stroke="#888888" d="M659.55,-615.67C669.6,-606.3 680.04,-596.56 690.24,-587.05"/>
<polygon fill="#888888" stroke="#888888" points="692.69,-589.56 697.61,-580.18 687.91,-584.44 692.69,-589.56"/>
</g>
<!-- 3 -->
<g id="node4" class="node">
<title>3</title>
<text text-anchor="start" x="197" y="-407.8" font-family="Arial" font-weight="bold" font-size="14.00"> &lt; 22.45</text>
<text text-anchor="start" x="154" y="-363.3" font-family="Arial" font-size="14.00"> &#160;&#160;</text>
<path fill="#ebebeb" stroke="transparent" d="M180,-335C180,-335 264,-335 264,-335 270,-335 276,-341 276,-347 276,-347 276,-387 276,-387 276,-393 270,-399 264,-399 264,-399 180,-399 180,-399 174,-399 168,-393 168,-387 168,-387 168,-347 168,-347 168,-341 174,-335 180,-335"/>
<text text-anchor="start" x="169" y="-396.4" font-family="Arial" font-size="2.00"> </text>
<text text-anchor="start" x="169" y="-390.4" font-family="Arial" font-size="7.00"> &#160;3</text>
<text text-anchor="start" x="183" y="-373.8" font-family="Arial" font-weight="bold" font-size="14.00">Mean: 20.87</text>
<text text-anchor="start" x="198.5" y="-356.8" font-family="Arial" font-weight="bold" font-size="14.00">n = 108</text>
<text text-anchor="start" x="220.5" y="-338.8" font-family="Arial" font-size="9.00"> </text>
<path fill="none" stroke="#333333" d="M180,-335C180,-335 264,-335 264,-335 270,-335 276,-341 276,-347 276,-347 276,-387 276,-387 276,-393 270,-399 264,-399 264,-399 180,-399 180,-399 174,-399 168,-393 168,-387 168,-387 168,-347 168,-347 168,-341 174,-335 180,-335"/>
<text text-anchor="start" x="278" y="-363.3" font-family="Arial" font-size="14.00"> &#160;&#160;</text>
<text text-anchor="start" x="169" y="-320.8" font-family="Arial" font-weight="bold" font-size="14.00">prev_168_inflow</text>
</g>
<!-- 2&#45;&gt;3 -->
<g id="edge3" class="edge">
<title>2&#45;&gt;3</title>
<path fill="none" stroke="#888888" d="M368.94,-467.26C349.5,-454.13 328.55,-439.98 308.72,-426.59"/>
<polygon fill="#888888" stroke="#888888" points="310.55,-423.6 300.31,-420.9 306.63,-429.4 310.55,-423.6"/>
</g>
<!-- 8 -->
<g id="node5" class="node">
<title>8</title>
<text text-anchor="start" x="422.5" y="-407.8" font-family="Arial" font-weight="bold" font-size="14.00"> ≥ 22.45</text>
<path fill="#ebebeb" stroke="transparent" d="M405,-335C405,-335 489,-335 489,-335 495,-335 501,-341 501,-347 501,-347 501,-387 501,-387 501,-393 495,-399 489,-399 489,-399 405,-399 405,-399 399,-399 393,-393 393,-387 393,-387 393,-347 393,-347 393,-341 399,-335 405,-335"/>
<text text-anchor="start" x="394" y="-396.4" font-family="Arial" font-size="2.00"> </text>
<text text-anchor="start" x="394" y="-390.4" font-family="Arial" font-size="7.00"> &#160;8</text>
<text text-anchor="start" x="408" y="-373.8" font-family="Arial" font-weight="bold" font-size="14.00">Mean: 26.13</text>
<text text-anchor="start" x="424" y="-356.8" font-family="Arial" font-weight="bold" font-size="14.00">n = 113</text>
<text text-anchor="start" x="445.5" y="-338.8" font-family="Arial" font-size="9.00"> </text>
<path fill="none" stroke="#333333" d="M405,-335C405,-335 489,-335 489,-335 495,-335 501,-341 501,-347 501,-347 501,-387 501,-387 501,-393 495,-399 489,-399 489,-399 405,-399 405,-399 399,-399 393,-393 393,-387 393,-387 393,-347 393,-347 393,-341 399,-335 405,-335"/>
<text text-anchor="start" x="432.5" y="-320.8" font-family="Arial" font-weight="bold" font-size="14.00">time</text>
</g>
<!-- 2&#45;&gt;8 -->
<g id="edge4" class="edge">
<title>2&#45;&gt;8</title>
<path fill="none" stroke="#888888" d="M447,-461.67C447,-453.39 447,-444.83 447,-436.38"/>
<polygon fill="#888888" stroke="#888888" points="450.5,-436.18 447,-426.18 443.5,-436.18 450.5,-436.18"/>
</g>
<!-- 12 -->
<g id="node12" class="node">
<title>12</title>
<text text-anchor="start" x="735" y="-407.8" font-family="Arial" font-weight="bold" font-size="14.00"> &lt; 31.67</text>
<path fill="#ebebeb" stroke="transparent" d="M718,-335C718,-335 802,-335 802,-335 808,-335 814,-341 814,-347 814,-347 814,-387 814,-387 814,-393 808,-399 802,-399 802,-399 718,-399 718,-399 712,-399 706,-393 706,-387 706,-387 706,-347 706,-347 706,-341 712,-335 718,-335"/>
<text text-anchor="start" x="707" y="-396.4" font-family="Arial" font-size="2.00"> </text>
<text text-anchor="start" x="707" y="-390.4" font-family="Arial" font-size="7.00"> &#160;12</text>
<text text-anchor="start" x="721" y="-373.8" font-family="Arial" font-weight="bold" font-size="14.00">Mean: 29.74</text>
<text text-anchor="start" x="736.5" y="-356.8" font-family="Arial" font-weight="bold" font-size="14.00">n = 283</text>
<text text-anchor="start" x="758.5" y="-338.8" font-family="Arial" font-size="9.00"> </text>
<path fill="none" stroke="#333333" d="M718,-335C718,-335 802,-335 802,-335 808,-335 814,-341 814,-347 814,-347 814,-387 814,-387 814,-393 808,-399 802,-399 802,-399 718,-399 718,-399 712,-399 706,-393 706,-387 706,-387 706,-347 706,-347 706,-341 712,-335 718,-335"/>
<text text-anchor="start" x="745.5" y="-320.8" font-family="Arial" font-weight="bold" font-size="14.00">time</text>
</g>
<!-- 11&#45;&gt;12 -->
<g id="edge11" class="edge">
<title>11&#45;&gt;12</title>
<path fill="none" stroke="#888888" d="M760,-461.67C760,-453.39 760,-444.83 760,-436.38"/>
<polygon fill="#888888" stroke="#888888" points="763.5,-436.18 760,-426.18 756.5,-436.18 763.5,-436.18"/>
</g>
<!-- 19 -->
<g id="node13" class="node">
<title>19</title>
<text text-anchor="start" x="1200" y="-407.8" font-family="Arial" font-weight="bold" font-size="14.00"> ≥ 31.67</text>
<path fill="#ebebeb" stroke="transparent" d="M1192,-335C1192,-335 1257,-335 1257,-335 1263,-335 1269,-341 1269,-347 1269,-347 1269,-387 1269,-387 1269,-393 1263,-399 1257,-399 1257,-399 1192,-399 1192,-399 1186,-399 1180,-393 1180,-387 1180,-387 1180,-347 1180,-347 1180,-341 1186,-335 1192,-335"/>
<text text-anchor="start" x="1181" y="-396.4" font-family="Arial" font-size="2.00"> </text>
<text text-anchor="start" x="1181" y="-390.4" font-family="Arial" font-size="7.00"> &#160;19</text>
<text text-anchor="start" x="1195" y="-373.8" font-family="Arial" font-weight="bold" font-size="14.00">Mean: 35</text>
<text text-anchor="start" x="1201" y="-356.8" font-family="Arial" font-weight="bold" font-size="14.00">n = 168</text>
<text text-anchor="start" x="1223" y="-338.8" font-family="Arial" font-size="9.00"> </text>
<path fill="none" stroke="#333333" d="M1192,-335C1192,-335 1257,-335 1257,-335 1263,-335 1269,-341 1269,-347 1269,-347 1269,-387 1269,-387 1269,-393 1263,-399 1257,-399 1257,-399 1192,-399 1192,-399 1186,-399 1180,-393 1180,-387 1180,-387 1180,-347 1180,-347 1180,-341 1186,-335 1192,-335"/>
<text text-anchor="start" x="1195.5" y="-320.8" font-family="Arial" font-weight="bold" font-size="14.00">air_temp</text>
</g>
<!-- 11&#45;&gt;19 -->
<g id="edge12" class="edge">
<title>11&#45;&gt;19</title>
<path fill="none" stroke="#888888" d="M838.19,-494.39C927.87,-465.01 1073.37,-417.34 1157.73,-389.71"/>
<polygon fill="#888888" stroke="#888888" points="1159.04,-392.96 1167.45,-386.53 1156.86,-386.31 1159.04,-392.96"/>
</g>
<!-- 4 -->
<g id="node6" class="node">
<title>4</title>
<text text-anchor="start" x="44" y="-253.8" font-family="Arial" font-weight="bold" font-size="14.00"> &lt; 20.06</text>
<path fill="#f8766d" fill-opacity="0.874510" stroke="transparent" d="M24,-181C24,-181 114,-181 114,-181 120,-181 126,-187 126,-193 126,-193 126,-233 126,-233 126,-239 120,-245 114,-245 114,-245 24,-245 24,-245 18,-245 12,-239 12,-233 12,-233 12,-193 12,-193 12,-187 18,-181 24,-181"/>
<text text-anchor="start" x="13" y="-242.4" font-family="Arial" font-size="2.00"> </text>
<text text-anchor="start" x="13" y="-236.4" font-family="Arial" font-size="7.00"> &#160;4</text>
<text text-anchor="start" x="27" y="-219.8" font-family="Arial" font-weight="bold" font-size="14.00">Predict 20.09</text>
<text text-anchor="start" x="49" y="-202.8" font-family="Arial" font-weight="bold" font-size="14.00">n = 49</text>
<text text-anchor="start" x="67.5" y="-184.8" font-family="Arial" font-size="9.00"> </text>
<path fill="none" stroke="#333333" d="M24,-181C24,-181 114,-181 114,-181 120,-181 126,-187 126,-193 126,-193 126,-233 126,-233 126,-239 120,-245 114,-245 114,-245 24,-245 24,-245 18,-245 12,-239 12,-233 12,-233 12,-193 12,-193 12,-187 18,-181 24,-181"/>
<text text-anchor="start" x="67" y="-166.8" font-family="Arial" font-weight="bold" font-size="14.00"> </text>
</g>
<!-- 3&#45;&gt;4 -->
<g id="edge5" class="edge">
<title>3&#45;&gt;4</title>
<path fill="none" stroke="#888888" d="M163.28,-307.67C153.95,-298.39 144.24,-288.75 134.76,-279.33"/>
<polygon fill="#888888" stroke="#888888" points="137.12,-276.74 127.56,-272.18 132.19,-281.71 137.12,-276.74"/>
</g>
<!-- 5 -->
<g id="node7" class="node">
<title>5</title>
<text text-anchor="start" x="197.5" y="-253.8" font-family="Arial" font-weight="bold" font-size="14.00"> ≥ 20.06</text>
<path fill="#ebebeb" stroke="transparent" d="M180,-181C180,-181 264,-181 264,-181 270,-181 276,-187 276,-193 276,-193 276,-233 276,-233 276,-239 270,-245 264,-245 264,-245 180,-245 180,-245 174,-245 168,-239 168,-233 168,-233 168,-193 168,-193 168,-187 174,-181 180,-181"/>
<text text-anchor="start" x="169" y="-242.4" font-family="Arial" font-size="2.00"> </text>
<text text-anchor="start" x="169" y="-236.4" font-family="Arial" font-size="7.00"> &#160;5</text>
<text text-anchor="start" x="183" y="-219.8" font-family="Arial" font-weight="bold" font-size="14.00">Mean: 21.51</text>
<text text-anchor="start" x="202" y="-202.8" font-family="Arial" font-weight="bold" font-size="14.00">n = 59</text>
<text text-anchor="start" x="220.5" y="-184.8" font-family="Arial" font-size="9.00"> </text>
<path fill="none" stroke="#333333" d="M180,-181C180,-181 264,-181 264,-181 270,-181 276,-187 276,-193 276,-193 276,-233 276,-233 276,-239 270,-245 264,-245 264,-245 180,-245 180,-245 174,-245 168,-239 168,-233 168,-233 168,-193 168,-193 168,-187 174,-181 180,-181"/>
<text text-anchor="start" x="189" y="-166.8" font-family="Arial" font-weight="bold" font-size="14.00">air_humid</text>
</g>
<!-- 3&#45;&gt;5 -->
<g id="edge6" class="edge">
<title>3&#45;&gt;5</title>
<path fill="none" stroke="#888888" d="M222,-307.67C222,-299.39 222,-290.83 222,-282.38"/>
<polygon fill="#888888" stroke="#888888" points="225.5,-282.18 222,-272.18 218.5,-282.18 225.5,-282.18"/>
</g>
<!-- 9 -->
<g id="node10" class="node">
<title>9</title>
<text text-anchor="start" x="359.5" y="-253.8" font-family="Arial" font-weight="bold" font-size="14.00"> &lt; 10</text>
<path fill="#f8766d" fill-opacity="0.737255" stroke="transparent" d="M330,-181C330,-181 420,-181 420,-181 426,-181 432,-187 432,-193 432,-193 432,-233 432,-233 432,-239 426,-245 420,-245 420,-245 330,-245 330,-245 324,-245 318,-239 318,-233 318,-233 318,-193 318,-193 318,-187 324,-181 330,-181"/>
<text text-anchor="start" x="319" y="-242.4" font-family="Arial" font-size="2.00"> </text>
<text text-anchor="start" x="319" y="-236.4" font-family="Arial" font-size="7.00"> &#160;9</text>
<text text-anchor="start" x="333" y="-219.8" font-family="Arial" font-weight="bold" font-size="14.00">Predict 24.74</text>
<text text-anchor="start" x="355" y="-202.8" font-family="Arial" font-weight="bold" font-size="14.00">n = 60</text>
<text text-anchor="start" x="373.5" y="-184.8" font-family="Arial" font-size="9.00"> </text>
<path fill="none" stroke="#333333" d="M330,-181C330,-181 420,-181 420,-181 426,-181 432,-187 432,-193 432,-193 432,-233 432,-233 432,-239 426,-245 420,-245 420,-245 330,-245 330,-245 324,-245 318,-239 318,-233 318,-233 318,-193 318,-193 318,-187 324,-181 330,-181"/>
<text text-anchor="start" x="373" y="-166.8" font-family="Arial" font-weight="bold" font-size="14.00"> </text>
</g>
<!-- 8&#45;&gt;9 -->
<g id="edge9" class="edge">
<title>8&#45;&gt;9</title>
<path fill="none" stroke="#888888" d="M419.37,-307.67C415.28,-299.03 411.03,-290.07 406.86,-281.27"/>
<polygon fill="#888888" stroke="#888888" points="410,-279.72 402.56,-272.18 403.68,-282.71 410,-279.72"/>
</g>
<!-- 10 -->
<g id="node11" class="node">
<title>10</title>
<text text-anchor="start" x="515.5" y="-253.8" font-family="Arial" font-weight="bold" font-size="14.00"> ≥ 10</text>
<path fill="#f8766d" fill-opacity="0.647059" stroke="transparent" d="M486,-181C486,-181 576,-181 576,-181 582,-181 588,-187 588,-193 588,-193 588,-233 588,-233 588,-239 582,-245 576,-245 576,-245 486,-245 486,-245 480,-245 474,-239 474,-233 474,-233 474,-193 474,-193 474,-187 480,-181 486,-181"/>
<text text-anchor="start" x="475" y="-242.4" font-family="Arial" font-size="2.00"> </text>
<text text-anchor="start" x="475" y="-236.4" font-family="Arial" font-size="7.00"> &#160;10</text>
<text text-anchor="start" x="489" y="-219.8" font-family="Arial" font-weight="bold" font-size="14.00">Predict 27.71</text>
<text text-anchor="start" x="511" y="-202.8" font-family="Arial" font-weight="bold" font-size="14.00">n = 53</text>
<text text-anchor="start" x="529.5" y="-184.8" font-family="Arial" font-size="9.00"> </text>
<path fill="none" stroke="#333333" d="M486,-181C486,-181 576,-181 576,-181 582,-181 588,-187 588,-193 588,-193 588,-233 588,-233 588,-239 582,-245 576,-245 576,-245 486,-245 486,-245 480,-245 474,-239 474,-233 474,-233 474,-193 474,-193 474,-187 480,-181 486,-181"/>
<text text-anchor="start" x="529" y="-166.8" font-family="Arial" font-weight="bold" font-size="14.00"> </text>
</g>
<!-- 8&#45;&gt;10 -->
<g id="edge10" class="edge">
<title>8&#45;&gt;10</title>
<path fill="none" stroke="#888888" d="M479.24,-307.67C484.06,-298.94 489.06,-289.88 493.98,-280.99"/>
<polygon fill="#888888" stroke="#888888" points="497.08,-282.62 498.85,-272.18 490.95,-279.24 497.08,-282.62"/>
</g>
<!-- 6 -->
<g id="node8" class="node">
<title>6</title>
<text text-anchor="start" x="127.5" y="-99.8" font-family="Arial" font-weight="bold" font-size="14.00"> &lt; 48.5</text>
<path fill="#f8766d" fill-opacity="0.811765" stroke="transparent" d="M104,-27C104,-27 194,-27 194,-27 200,-27 206,-33 206,-39 206,-39 206,-79 206,-79 206,-85 200,-91 194,-91 194,-91 104,-91 104,-91 98,-91 92,-85 92,-79 92,-79 92,-39 92,-39 92,-33 98,-27 104,-27"/>
<text text-anchor="start" x="93" y="-88.4" font-family="Arial" font-size="2.00"> </text>
<text text-anchor="start" x="93" y="-82.4" font-family="Arial" font-size="7.00"> &#160;6</text>
<text text-anchor="start" x="107" y="-65.8" font-family="Arial" font-weight="bold" font-size="14.00">Predict 22.27</text>
<text text-anchor="start" x="129" y="-48.8" font-family="Arial" font-weight="bold" font-size="14.00">n = 24</text>
<text text-anchor="start" x="147.5" y="-30.8" font-family="Arial" font-size="9.00"> </text>
<path fill="none" stroke="#333333" d="M104,-27C104,-27 194,-27 194,-27 200,-27 206,-33 206,-39 206,-39 206,-79 206,-79 206,-85 200,-91 194,-91 194,-91 104,-91 104,-91 98,-91 92,-85 92,-79 92,-79 92,-39 92,-39 92,-33 98,-27 104,-27"/>
<text text-anchor="start" x="147" y="-12.8" font-family="Arial" font-weight="bold" font-size="14.00"> </text>
</g>
<!-- 5&#45;&gt;6 -->
<g id="edge7" class="edge">
<title>5&#45;&gt;6</title>
<path fill="none" stroke="#888888" d="M193.99,-153.67C189.84,-145.03 185.53,-136.07 181.31,-127.27"/>
<polygon fill="#888888" stroke="#888888" points="184.42,-125.68 176.94,-118.18 178.11,-128.71 184.42,-125.68"/>
</g>
<!-- 7 -->
<g id="node9" class="node">
<title>7</title>
<text text-anchor="start" x="275.5" y="-99.8" font-family="Arial" font-weight="bold" font-size="14.00"> ≥ 48.5</text>
<path fill="#f8766d" fill-opacity="0.847059" stroke="transparent" d="M261,-27C261,-27 332,-27 332,-27 338,-27 344,-33 344,-39 344,-39 344,-79 344,-79 344,-85 338,-91 332,-91 332,-91 261,-91 261,-91 255,-91 249,-85 249,-79 249,-79 249,-39 249,-39 249,-33 255,-27 261,-27"/>
<text text-anchor="start" x="250" y="-88.4" font-family="Arial" font-size="2.00"> </text>
<text text-anchor="start" x="250" y="-82.4" font-family="Arial" font-size="7.00"> &#160;7</text>
<text text-anchor="start" x="264" y="-65.8" font-family="Arial" font-weight="bold" font-size="14.00">Predict 21</text>
<text text-anchor="start" x="276.5" y="-48.8" font-family="Arial" font-weight="bold" font-size="14.00">n = 35</text>
<text text-anchor="start" x="295" y="-30.8" font-family="Arial" font-size="9.00"> </text>
<path fill="none" stroke="#333333" d="M261,-27C261,-27 332,-27 332,-27 338,-27 344,-33 344,-39 344,-39 344,-79 344,-79 344,-85 338,-91 332,-91 332,-91 261,-91 261,-91 255,-91 249,-85 249,-79 249,-79 249,-39 249,-39 249,-33 255,-27 261,-27"/>
<text text-anchor="start" x="294.5" y="-12.8" font-family="Arial" font-weight="bold" font-size="14.00"> </text>
</g>
<!-- 5&#45;&gt;7 -->
<g id="edge8" class="edge">
<title>5&#45;&gt;7</title>
<path fill="none" stroke="#888888" d="M250.4,-153.67C254.6,-145.03 258.97,-136.07 263.25,-127.27"/>
<polygon fill="#888888" stroke="#888888" points="266.45,-128.7 267.68,-118.18 260.15,-125.64 266.45,-128.7"/>
</g>
<!-- 13 -->
<g id="node14" class="node">
<title>13</title>
<text text-anchor="start" x="662.5" y="-253.8" font-family="Arial" font-weight="bold" font-size="14.00"> &lt; 17.5</text>
<path fill="#ebebeb" stroke="transparent" d="M642,-181C642,-181 726,-181 726,-181 732,-181 738,-187 738,-193 738,-193 738,-233 738,-233 738,-239 732,-245 726,-245 726,-245 642,-245 642,-245 636,-245 630,-239 630,-233 630,-233 630,-193 630,-193 630,-187 636,-181 642,-181"/>
<text text-anchor="start" x="631" y="-242.4" font-family="Arial" font-size="2.00"> </text>
<text text-anchor="start" x="631" y="-236.4" font-family="Arial" font-size="7.00"> &#160;13</text>
<text text-anchor="start" x="645" y="-219.8" font-family="Arial" font-weight="bold" font-size="14.00">Mean: 29.38</text>
<text text-anchor="start" x="660.5" y="-202.8" font-family="Arial" font-weight="bold" font-size="14.00">n = 209</text>
<text text-anchor="start" x="682.5" y="-184.8" font-family="Arial" font-size="9.00"> </text>
<path fill="none" stroke="#333333" d="M642,-181C642,-181 726,-181 726,-181 732,-181 738,-187 738,-193 738,-193 738,-233 738,-233 738,-239 732,-245 726,-245 726,-245 642,-245 642,-245 636,-245 630,-239 630,-233 630,-233 630,-193 630,-193 630,-187 636,-181 642,-181"/>
<text text-anchor="start" x="669.5" y="-166.8" font-family="Arial" font-weight="bold" font-size="14.00">time</text>
</g>
<!-- 12&#45;&gt;13 -->
<g id="edge13" class="edge">
<title>12&#45;&gt;13</title>
<path fill="none" stroke="#888888" d="M730.83,-307.67C726.52,-299.03 722.04,-290.07 717.64,-281.27"/>
<polygon fill="#888888" stroke="#888888" points="720.69,-279.56 713.09,-272.18 714.43,-282.69 720.69,-279.56"/>
</g>
<!-- 16 -->
<g id="node15" class="node">
<title>16</title>
<text text-anchor="start" x="816" y="-253.8" font-family="Arial" font-weight="bold" font-size="14.00"> ≥ 17.5</text>
<path fill="#ebebeb" stroke="transparent" d="M795,-181C795,-181 879,-181 879,-181 885,-181 891,-187 891,-193 891,-193 891,-233 891,-233 891,-239 885,-245 879,-245 879,-245 795,-245 795,-245 789,-245 783,-239 783,-233 783,-233 783,-193 783,-193 783,-187 789,-181 795,-181"/>
<text text-anchor="start" x="784" y="-242.4" font-family="Arial" font-size="2.00"> </text>
<text text-anchor="start" x="784" y="-236.4" font-family="Arial" font-size="7.00"> &#160;16</text>
<text text-anchor="start" x="798" y="-219.8" font-family="Arial" font-weight="bold" font-size="14.00">Mean: 30.74</text>
<text text-anchor="start" x="817" y="-202.8" font-family="Arial" font-weight="bold" font-size="14.00">n = 74</text>
<text text-anchor="start" x="835.5" y="-184.8" font-family="Arial" font-size="9.00"> </text>
<path fill="none" stroke="#333333" d="M795,-181C795,-181 879,-181 879,-181 885,-181 891,-187 891,-193 891,-193 891,-233 891,-233 891,-239 885,-245 879,-245 879,-245 795,-245 795,-245 789,-245 783,-239 783,-233 783,-233 783,-193 783,-193 783,-187 789,-181 795,-181"/>
<text text-anchor="start" x="822.5" y="-166.8" font-family="Arial" font-weight="bold" font-size="14.00">time</text>
</g>
<!-- 12&#45;&gt;16 -->
<g id="edge14" class="edge">
<title>12&#45;&gt;16</title>
<path fill="none" stroke="#888888" d="M789.55,-307.67C793.93,-299.03 798.46,-290.07 802.92,-281.27"/>
<polygon fill="#888888" stroke="#888888" points="806.13,-282.68 807.53,-272.18 799.89,-279.52 806.13,-282.68"/>
</g>
<!-- 20 -->
<g id="node20" class="node">
<title>20</title>
<text text-anchor="start" x="1199" y="-253.8" font-family="Arial" font-weight="bold" font-size="14.00"> &lt; 24.35</text>
<path fill="#ebebeb" stroke="transparent" d="M1182,-181C1182,-181 1266,-181 1266,-181 1272,-181 1278,-187 1278,-193 1278,-193 1278,-233 1278,-233 1278,-239 1272,-245 1266,-245 1266,-245 1182,-245 1182,-245 1176,-245 1170,-239 1170,-233 1170,-233 1170,-193 1170,-193 1170,-187 1176,-181 1182,-181"/>
<text text-anchor="start" x="1171" y="-242.4" font-family="Arial" font-size="2.00"> </text>
<text text-anchor="start" x="1171" y="-236.4" font-family="Arial" font-size="7.00"> &#160;20</text>
<text text-anchor="start" x="1185" y="-219.8" font-family="Arial" font-weight="bold" font-size="14.00">Mean: 33.79</text>
<text text-anchor="start" x="1204" y="-202.8" font-family="Arial" font-weight="bold" font-size="14.00">n = 28</text>
<text text-anchor="start" x="1222.5" y="-184.8" font-family="Arial" font-size="9.00"> </text>
<path fill="none" stroke="#333333" d="M1182,-181C1182,-181 1266,-181 1266,-181 1272,-181 1278,-187 1278,-193 1278,-193 1278,-233 1278,-233 1278,-239 1272,-245 1266,-245 1266,-245 1182,-245 1182,-245 1176,-245 1170,-239 1170,-233 1170,-233 1170,-193 1170,-193 1170,-187 1176,-181 1182,-181"/>
<text text-anchor="start" x="1209.5" y="-166.8" font-family="Arial" font-weight="bold" font-size="14.00">time</text>
</g>
<!-- 19&#45;&gt;20 -->
<g id="edge19" class="edge">
<title>19&#45;&gt;20</title>
<path fill="none" stroke="#888888" d="M1224,-307.67C1224,-299.39 1224,-290.83 1224,-282.38"/>
<polygon fill="#888888" stroke="#888888" points="1227.5,-282.18 1224,-272.18 1220.5,-282.18 1227.5,-282.18"/>
</g>
<!-- 23 -->
<g id="node21" class="node">
<title>23</title>
<text text-anchor="start" x="1436.5" y="-253.8" font-family="Arial" font-weight="bold" font-size="14.00"> ≥ 24.35</text>
<text text-anchor="start" x="1393" y="-209.3" font-family="Arial" font-size="14.00"> &#160;&#160;</text>
<path fill="#ebebeb" stroke="transparent" d="M1419,-181C1419,-181 1503,-181 1503,-181 1509,-181 1515,-187 1515,-193 1515,-193 1515,-233 1515,-233 1515,-239 1509,-245 1503,-245 1503,-245 1419,-245 1419,-245 1413,-245 1407,-239 1407,-233 1407,-233 1407,-193 1407,-193 1407,-187 1413,-181 1419,-181"/>
<text text-anchor="start" x="1408" y="-242.4" font-family="Arial" font-size="2.00"> </text>
<text text-anchor="start" x="1408" y="-236.4" font-family="Arial" font-size="7.00"> &#160;23</text>
<text text-anchor="start" x="1422" y="-219.8" font-family="Arial" font-weight="bold" font-size="14.00">Mean: 35.24</text>
<text text-anchor="start" x="1437.5" y="-202.8" font-family="Arial" font-weight="bold" font-size="14.00">n = 140</text>
<text text-anchor="start" x="1459.5" y="-184.8" font-family="Arial" font-size="9.00"> </text>
<path fill="none" stroke="#333333" d="M1419,-181C1419,-181 1503,-181 1503,-181 1509,-181 1515,-187 1515,-193 1515,-193 1515,-233 1515,-233 1515,-239 1509,-245 1503,-245 1503,-245 1419,-245 1419,-245 1413,-245 1407,-239 1407,-233 1407,-233 1407,-193 1407,-193 1407,-187 1413,-181 1419,-181"/>
<text text-anchor="start" x="1517" y="-209.3" font-family="Arial" font-size="14.00"> &#160;&#160;</text>
<text text-anchor="start" x="1408" y="-166.8" font-family="Arial" font-weight="bold" font-size="14.00">prev_168_inflow</text>
</g>
<!-- 19&#45;&gt;23 -->
<g id="edge20" class="edge">
<title>19&#45;&gt;23</title>
<path fill="none" stroke="#888888" d="M1280.77,-329.59C1308.68,-311.69 1342.94,-289.72 1374.06,-269.76"/>
<polygon fill="#888888" stroke="#888888" points="1376.22,-272.53 1382.74,-264.19 1372.44,-266.64 1376.22,-272.53"/>
</g>
<!-- 14 -->
<g id="node16" class="node">
<title>14</title>
<text text-anchor="start" x="503.5" y="-99.8" font-family="Arial" font-weight="bold" font-size="14.00"> &lt; 13.5</text>
<path fill="#f8766d" fill-opacity="0.576471" stroke="transparent" d="M480,-27C480,-27 570,-27 570,-27 576,-27 582,-33 582,-39 582,-39 582,-79 582,-79 582,-85 576,-91 570,-91 570,-91 480,-91 480,-91 474,-91 468,-85 468,-79 468,-79 468,-39 468,-39 468,-33 474,-27 480,-27"/>
<text text-anchor="start" x="469" y="-88.4" font-family="Arial" font-size="2.00"> </text>
<text text-anchor="start" x="469" y="-82.4" font-family="Arial" font-size="7.00"> &#160;14</text>
<text text-anchor="start" x="483" y="-65.8" font-family="Arial" font-weight="bold" font-size="14.00">Predict 30.06</text>
<text text-anchor="start" x="501.5" y="-48.8" font-family="Arial" font-weight="bold" font-size="14.00">n = 131</text>
<text text-anchor="start" x="523.5" y="-30.8" font-family="Arial" font-size="9.00"> </text>
<path fill="none" stroke="#333333" d="M480,-27C480,-27 570,-27 570,-27 576,-27 582,-33 582,-39 582,-39 582,-79 582,-79 582,-85 576,-91 570,-91 570,-91 480,-91 480,-91 474,-91 468,-85 468,-79 468,-79 468,-39 468,-39 468,-33 474,-27 480,-27"/>
<text text-anchor="start" x="523" y="-12.8" font-family="Arial" font-weight="bold" font-size="14.00"> </text>
</g>
<!-- 13&#45;&gt;14 -->
<g id="edge15" class="edge">
<title>13&#45;&gt;14</title>
<path fill="none" stroke="#888888" d="M622.98,-153.67C613.28,-144.39 603.19,-134.75 593.34,-125.33"/>
<polygon fill="#888888" stroke="#888888" points="595.5,-122.56 585.86,-118.18 590.67,-127.62 595.5,-122.56"/>
</g>
<!-- 15 -->
<g id="node17" class="node">
<title>15</title>
<text text-anchor="start" x="660" y="-99.8" font-family="Arial" font-weight="bold" font-size="14.00"> ≥ 13.5</text>
<path fill="#f8766d" fill-opacity="0.631373" stroke="transparent" d="M636,-27C636,-27 726,-27 726,-27 732,-27 738,-33 738,-39 738,-39 738,-79 738,-79 738,-85 732,-91 726,-91 726,-91 636,-91 636,-91 630,-91 624,-85 624,-79 624,-79 624,-39 624,-39 624,-33 630,-27 636,-27"/>
<text text-anchor="start" x="625" y="-88.4" font-family="Arial" font-size="2.00"> </text>
<text text-anchor="start" x="625" y="-82.4" font-family="Arial" font-size="7.00"> &#160;15</text>
<text text-anchor="start" x="639" y="-65.8" font-family="Arial" font-weight="bold" font-size="14.00">Predict 28.25</text>
<text text-anchor="start" x="661" y="-48.8" font-family="Arial" font-weight="bold" font-size="14.00">n = 78</text>
<text text-anchor="start" x="679.5" y="-30.8" font-family="Arial" font-size="9.00"> </text>
<path fill="none" stroke="#333333" d="M636,-27C636,-27 726,-27 726,-27 732,-27 738,-33 738,-39 738,-39 738,-79 738,-79 738,-85 732,-91 726,-91 726,-91 636,-91 636,-91 630,-91 624,-85 624,-79 624,-79 624,-39 624,-39 624,-33 630,-27 636,-27"/>
<text text-anchor="start" x="679" y="-12.8" font-family="Arial" font-weight="bold" font-size="14.00"> </text>
</g>
<!-- 13&#45;&gt;15 -->
<g id="edge16" class="edge">
<title>13&#45;&gt;15</title>
<path fill="none" stroke="#888888" d="M682.85,-153.67C682.69,-145.39 682.52,-136.83 682.35,-128.38"/>
<polygon fill="#888888" stroke="#888888" points="685.84,-128.11 682.15,-118.18 678.85,-128.24 685.84,-128.11"/>
</g>
<!-- 17 -->
<g id="node18" class="node">
<title>17</title>
<text text-anchor="start" x="815.5" y="-99.8" font-family="Arial" font-weight="bold" font-size="14.00"> &lt; 21.5</text>
<path fill="#f8766d" fill-opacity="0.505882" stroke="transparent" d="M792,-27C792,-27 882,-27 882,-27 888,-27 894,-33 894,-39 894,-39 894,-79 894,-79 894,-85 888,-91 882,-91 882,-91 792,-91 792,-91 786,-91 780,-85 780,-79 780,-79 780,-39 780,-39 780,-33 786,-27 792,-27"/>
<text text-anchor="start" x="781" y="-88.4" font-family="Arial" font-size="2.00"> </text>
<text text-anchor="start" x="781" y="-82.4" font-family="Arial" font-size="7.00"> &#160;17</text>
<text text-anchor="start" x="795" y="-65.8" font-family="Arial" font-weight="bold" font-size="14.00">Predict 32.48</text>
<text text-anchor="start" x="817" y="-48.8" font-family="Arial" font-weight="bold" font-size="14.00">n = 36</text>
<text text-anchor="start" x="835.5" y="-30.8" font-family="Arial" font-size="9.00"> </text>
<path fill="none" stroke="#333333" d="M792,-27C792,-27 882,-27 882,-27 888,-27 894,-33 894,-39 894,-39 894,-79 894,-79 894,-85 888,-91 882,-91 882,-91 792,-91 792,-91 786,-91 780,-85 780,-79 780,-79 780,-39 780,-39 780,-33 786,-27 792,-27"/>
<text text-anchor="start" x="835" y="-12.8" font-family="Arial" font-weight="bold" font-size="14.00"> </text>
</g>
<!-- 16&#45;&gt;17 -->
<g id="edge17" class="edge">
<title>16&#45;&gt;17</title>
<path fill="none" stroke="#888888" d="M837,-153.67C837,-145.39 837,-136.83 837,-128.38"/>
<polygon fill="#888888" stroke="#888888" points="840.5,-128.18 837,-118.18 833.5,-128.18 840.5,-128.18"/>
</g>
<!-- 18 -->
<g id="node19" class="node">
<title>18</title>
<text text-anchor="start" x="972" y="-99.8" font-family="Arial" font-weight="bold" font-size="14.00"> ≥ 21.5</text>
<path fill="#f8766d" fill-opacity="0.607843" stroke="transparent" d="M948,-27C948,-27 1038,-27 1038,-27 1044,-27 1050,-33 1050,-39 1050,-39 1050,-79 1050,-79 1050,-85 1044,-91 1038,-91 1038,-91 948,-91 948,-91 942,-91 936,-85 936,-79 936,-79 936,-39 936,-39 936,-33 942,-27 948,-27"/>
<text text-anchor="start" x="937" y="-88.4" font-family="Arial" font-size="2.00"> </text>
<text text-anchor="start" x="937" y="-82.4" font-family="Arial" font-size="7.00"> &#160;18</text>
<text text-anchor="start" x="951" y="-65.8" font-family="Arial" font-weight="bold" font-size="14.00">Predict 29.08</text>
<text text-anchor="start" x="973" y="-48.8" font-family="Arial" font-weight="bold" font-size="14.00">n = 38</text>
<text text-anchor="start" x="991.5" y="-30.8" font-family="Arial" font-size="9.00"> </text>
<path fill="none" stroke="#333333" d="M948,-27C948,-27 1038,-27 1038,-27 1044,-27 1050,-33 1050,-39 1050,-39 1050,-79 1050,-79 1050,-85 1044,-91 1038,-91 1038,-91 948,-91 948,-91 942,-91 936,-85 936,-79 936,-79 936,-39 936,-39 936,-33 942,-27 948,-27"/>
<text text-anchor="start" x="991" y="-12.8" font-family="Arial" font-weight="bold" font-size="14.00"> </text>
</g>
<!-- 16&#45;&gt;18 -->
<g id="edge18" class="edge">
<title>16&#45;&gt;18</title>
<path fill="none" stroke="#888888" d="M896.87,-153.67C906.38,-144.39 916.28,-134.75 925.95,-125.33"/>
<polygon fill="#888888" stroke="#888888" points="928.57,-127.66 933.29,-118.18 923.69,-122.65 928.57,-127.66"/>
</g>
<!-- 21 -->
<g id="node22" class="node">
<title>21</title>
<text text-anchor="start" x="1131.5" y="-99.8" font-family="Arial" font-weight="bold" font-size="14.00"> &lt; 8.5</text>
<path fill="#f8766d" fill-opacity="0.411765" stroke="transparent" d="M1104,-27C1104,-27 1194,-27 1194,-27 1200,-27 1206,-33 1206,-39 1206,-39 1206,-79 1206,-79 1206,-85 1200,-91 1194,-91 1194,-91 1104,-91 1104,-91 1098,-91 1092,-85 1092,-79 1092,-79 1092,-39 1092,-39 1092,-33 1098,-27 1104,-27"/>
<text text-anchor="start" x="1093" y="-88.4" font-family="Arial" font-size="2.00"> </text>
<text text-anchor="start" x="1093" y="-82.4" font-family="Arial" font-size="7.00"> &#160;21</text>
<text text-anchor="start" x="1107" y="-65.8" font-family="Arial" font-weight="bold" font-size="14.00">Predict 35.63</text>
<text text-anchor="start" x="1129" y="-48.8" font-family="Arial" font-weight="bold" font-size="14.00">n = 16</text>
<text text-anchor="start" x="1147.5" y="-30.8" font-family="Arial" font-size="9.00"> </text>
<path fill="none" stroke="#333333" d="M1104,-27C1104,-27 1194,-27 1194,-27 1200,-27 1206,-33 1206,-39 1206,-39 1206,-79 1206,-79 1206,-85 1200,-91 1194,-91 1194,-91 1104,-91 1104,-91 1098,-91 1092,-85 1092,-79 1092,-79 1092,-39 1092,-39 1092,-33 1098,-27 1104,-27"/>
<text text-anchor="start" x="1147" y="-12.8" font-family="Arial" font-weight="bold" font-size="14.00"> </text>
</g>
<!-- 20&#45;&gt;21 -->
<g id="edge21" class="edge">
<title>20&#45;&gt;21</title>
<path fill="none" stroke="#888888" d="M1195.22,-153.67C1190.96,-145.03 1186.54,-136.07 1182.19,-127.27"/>
<polygon fill="#888888" stroke="#888888" points="1185.27,-125.6 1177.71,-118.18 1178.99,-128.69 1185.27,-125.6"/>
</g>
<!-- 22 -->
<g id="node23" class="node">
<title>22</title>
<text text-anchor="start" x="1288" y="-99.8" font-family="Arial" font-weight="bold" font-size="14.00"> ≥ 8.5</text>
<path fill="#f8766d" fill-opacity="0.537255" stroke="transparent" d="M1260,-27C1260,-27 1350,-27 1350,-27 1356,-27 1362,-33 1362,-39 1362,-39 1362,-79 1362,-79 1362,-85 1356,-91 1350,-91 1350,-91 1260,-91 1260,-91 1254,-91 1248,-85 1248,-79 1248,-79 1248,-39 1248,-39 1248,-33 1254,-27 1260,-27"/>
<text text-anchor="start" x="1249" y="-88.4" font-family="Arial" font-size="2.00"> </text>
<text text-anchor="start" x="1249" y="-82.4" font-family="Arial" font-size="7.00"> &#160;22</text>
<text text-anchor="start" x="1263" y="-65.8" font-family="Arial" font-weight="bold" font-size="14.00">Predict 31.34</text>
<text text-anchor="start" x="1285" y="-48.8" font-family="Arial" font-weight="bold" font-size="14.00">n = 12</text>
<text text-anchor="start" x="1303.5" y="-30.8" font-family="Arial" font-size="9.00"> </text>
<path fill="none" stroke="#333333" d="M1260,-27C1260,-27 1350,-27 1350,-27 1356,-27 1362,-33 1362,-39 1362,-39 1362,-79 1362,-79 1362,-85 1356,-91 1350,-91 1350,-91 1260,-91 1260,-91 1254,-91 1248,-85 1248,-79 1248,-79 1248,-39 1248,-39 1248,-33 1254,-27 1260,-27"/>
<text text-anchor="start" x="1303" y="-12.8" font-family="Arial" font-weight="bold" font-size="14.00"> </text>
</g>
<!-- 20&#45;&gt;22 -->
<g id="edge22" class="edge">
<title>20&#45;&gt;22</title>
<path fill="none" stroke="#888888" d="M1255.09,-153.67C1259.69,-145.03 1264.46,-136.07 1269.15,-127.27"/>
<polygon fill="#888888" stroke="#888888" points="1272.38,-128.65 1274,-118.18 1266.21,-125.36 1272.38,-128.65"/>
</g>
<!-- 24 -->
<g id="node24" class="node">
<title>24</title>
<text text-anchor="start" x="1439.5" y="-99.8" font-family="Arial" font-weight="bold" font-size="14.00"> &lt; 34.6</text>
<path fill="#f8766d" fill-opacity="0.462745" stroke="transparent" d="M1416,-27C1416,-27 1506,-27 1506,-27 1512,-27 1518,-33 1518,-39 1518,-39 1518,-79 1518,-79 1518,-85 1512,-91 1506,-91 1506,-91 1416,-91 1416,-91 1410,-91 1404,-85 1404,-79 1404,-79 1404,-39 1404,-39 1404,-33 1410,-27 1416,-27"/>
<text text-anchor="start" x="1405" y="-88.4" font-family="Arial" font-size="2.00"> </text>
<text text-anchor="start" x="1405" y="-82.4" font-family="Arial" font-size="7.00"> &#160;24</text>
<text text-anchor="start" x="1419" y="-65.8" font-family="Arial" font-weight="bold" font-size="14.00">Predict 33.92</text>
<text text-anchor="start" x="1441" y="-48.8" font-family="Arial" font-weight="bold" font-size="14.00">n = 76</text>
<text text-anchor="start" x="1459.5" y="-30.8" font-family="Arial" font-size="9.00"> </text>
<path fill="none" stroke="#333333" d="M1416,-27C1416,-27 1506,-27 1506,-27 1512,-27 1518,-33 1518,-39 1518,-39 1518,-79 1518,-79 1518,-85 1512,-91 1506,-91 1506,-91 1416,-91 1416,-91 1410,-91 1404,-85 1404,-79 1404,-79 1404,-39 1404,-39 1404,-33 1410,-27 1416,-27"/>
<text text-anchor="start" x="1459" y="-12.8" font-family="Arial" font-weight="bold" font-size="14.00"> </text>
</g>
<!-- 23&#45;&gt;24 -->
<g id="edge23" class="edge">
<title>23&#45;&gt;24</title>
<path fill="none" stroke="#888888" d="M1461,-153.67C1461,-145.39 1461,-136.83 1461,-128.38"/>
<polygon fill="#888888" stroke="#888888" points="1464.5,-128.18 1461,-118.18 1457.5,-128.18 1464.5,-128.18"/>
</g>
<!-- 25 -->
<g id="node25" class="node">
<title>25</title>
<text text-anchor="start" x="1596" y="-99.8" font-family="Arial" font-weight="bold" font-size="14.00"> ≥ 34.6</text>
<path fill="#f8766d" fill-opacity="0.376471" stroke="transparent" d="M1572,-27C1572,-27 1662,-27 1662,-27 1668,-27 1674,-33 1674,-39 1674,-39 1674,-79 1674,-79 1674,-85 1668,-91 1662,-91 1662,-91 1572,-91 1572,-91 1566,-91 1560,-85 1560,-79 1560,-79 1560,-39 1560,-39 1560,-33 1566,-27 1572,-27"/>
<text text-anchor="start" x="1561" y="-88.4" font-family="Arial" font-size="2.00"> </text>
<text text-anchor="start" x="1561" y="-82.4" font-family="Arial" font-size="7.00"> &#160;25</text>
<text text-anchor="start" x="1575" y="-65.8" font-family="Arial" font-weight="bold" font-size="14.00">Predict 36.81</text>
<text text-anchor="start" x="1597" y="-48.8" font-family="Arial" font-weight="bold" font-size="14.00">n = 64</text>
<text text-anchor="start" x="1615.5" y="-30.8" font-family="Arial" font-size="9.00"> </text>
<path fill="none" stroke="#333333" d="M1572,-27C1572,-27 1662,-27 1662,-27 1668,-27 1674,-33 1674,-39 1674,-39 1674,-79 1674,-79 1674,-85 1668,-91 1662,-91 1662,-91 1572,-91 1572,-91 1566,-91 1560,-85 1560,-79 1560,-79 1560,-39 1560,-39 1560,-33 1566,-27 1572,-27"/>
<text text-anchor="start" x="1615" y="-12.8" font-family="Arial" font-weight="bold" font-size="14.00"> </text>
</g>
<!-- 23&#45;&gt;25 -->
<g id="edge24" class="edge">
<title>23&#45;&gt;25</title>
<path fill="none" stroke="#888888" d="M1520.87,-153.67C1530.38,-144.39 1540.28,-134.75 1549.95,-125.33"/>
<polygon fill="#888888" stroke="#888888" points="1552.57,-127.66 1557.29,-118.18 1547.69,-122.65 1552.57,-127.66"/>
</g>
</g>
</svg>
