<?xml version="1.0" encoding="UTF-8" standalone="no"?>
<!DOCTYPE svg PUBLIC "-//W3C//DTD SVG 1.1//EN"
 "http://www.w3.org/Graphics/SVG/1.1/DTD/svg11.dtd">
<!-- Generated by graphviz version 2.50.0 (20211204.2007)
 -->
<!-- Pages: 1 -->
<svg width="1622pt" height="742pt"
 viewBox="0.00 0.00 1622.00 742.00" xmlns="http://www.w3.org/2000/svg" xmlns:xlink="http://www.w3.org/1999/xlink">
<g id="graph0" class="graph" transform="scale(1 1) rotate(0) translate(4 738)">
<polygon fill="white" stroke="transparent" points="-4,4 -4,-738 1618,-738 1618,4 -4,4"/>
<!-- 1 -->
<g id="node1" class="node">
<title>1</title>
<text text-anchor="start" x="842" y="-715.8" font-family="Arial" font-weight="bold" font-size="14.00"> </text>
<path fill="#ebebeb" stroke="transparent" d="M806,-643C806,-643 882,-643 882,-643 888,-643 894,-649 894,-655 894,-655 894,-695 894,-695 894,-701 888,-707 882,-707 882,-707 806,-707 806,-707 800,-707 794,-701 794,-695 794,-695 794,-655 794,-655 794,-649 800,-643 806,-643"/>
<text text-anchor="start" x="795" y="-704.4" font-family="Arial" font-size="2.00"> </text>
<text text-anchor="start" x="795" y="-698.4" font-family="Arial" font-size="7.00"> &#160;1</text>
<text text-anchor="start" x="809" y="-681.8" font-family="Arial" font-weight="bold" font-size="14.00">Mean: 5.59</text>
<text text-anchor="start" x="820.5" y="-664.8" font-family="Arial" font-weight="bold" font-size="14.00">n = 672</text>
<text text-anchor="start" x="842.5" y="-646.8" font-family="Arial" font-size="9.00"> </text>
<path fill="none" stroke="#333333" d="M806,-643C806,-643 882,-643 882,-643 888,-643 894,-649 894,-655 894,-655 894,-695 894,-695 894,-701 888,-707 882,-707 882,-707 806,-707 806,-707 800,-707 794,-701 794,-695 794,-695 794,-655 794,-655 794,-649 800,-643 806,-643"/>
<text text-anchor="start" x="829.5" y="-628.8" font-family="Arial" font-weight="bold" font-size="14.00">time</text>
</g>
<!-- 2 -->
<g id="node2" class="node">
<title>2</title>
<text text-anchor="start" x="670.5" y="-561.8" font-family="Arial" font-weight="bold" font-size="14.00"> &lt; 9.5</text>
<path fill="#ebebeb" stroke="transparent" d="M646,-489C646,-489 730,-489 730,-489 736,-489 742,-495 742,-501 742,-501 742,-541 742,-541 742,-547 736,-553 730,-553 730,-553 646,-553 646,-553 640,-553 634,-547 634,-541 634,-541 634,-501 634,-501 634,-495 640,-489 646,-489"/>
<text text-anchor="start" x="635" y="-550.4" font-family="Arial" font-size="2.00"> </text>
<text text-anchor="start" x="635" y="-544.4" font-family="Arial" font-size="7.00"> &#160;2</text>
<text text-anchor="start" x="649" y="-527.8" font-family="Arial" font-weight="bold" font-size="14.00">Mean: 4.973</text>
<text text-anchor="start" x="664.5" y="-510.8" font-family="Arial" font-weight="bold" font-size="14.00">n = 280</text>
<text text-anchor="start" x="686.5" y="-492.8" font-family="Arial" font-size="9.00"> </text>
<path fill="none" stroke="#333333" d="M646,-489C646,-489 730,-489 730,-489 736,-489 742,-495 742,-501 742,-501 742,-541 742,-541 742,-547 736,-553 730,-553 730,-553 646,-553 646,-553 640,-553 634,-547 634,-541 634,-541 634,-501 634,-501 634,-495 640,-489 646,-489"/>
<text text-anchor="start" x="673.5" y="-474.8" font-family="Arial" font-weight="bold" font-size="14.00">time</text>
</g>
<!-- 1&#45;&gt;2 -->
<g id="edge1" class="edge">
<title>1&#45;&gt;2</title>
<path fill="none" stroke="#888888" d="M784.13,-615.67C774.62,-606.39 764.72,-596.75 755.05,-587.33"/>
<polygon fill="#888888" stroke="#888888" points="757.31,-584.65 747.71,-580.18 752.43,-589.66 757.31,-584.65"/>
</g>
<!-- 15 -->
<g id="node3" class="node">
<title>15</title>
<text text-anchor="start" x="1062" y="-561.8" font-family="Arial" font-weight="bold" font-size="14.00"> ≥ 9.5</text>
<path fill="#ebebeb" stroke="transparent" d="M1041,-489C1041,-489 1117,-489 1117,-489 1123,-489 1129,-495 1129,-501 1129,-501 1129,-541 1129,-541 1129,-547 1123,-553 1117,-553 1117,-553 1041,-553 1041,-553 1035,-553 1029,-547 1029,-541 1029,-541 1029,-501 1029,-501 1029,-495 1035,-489 1041,-489"/>
<text text-anchor="start" x="1030" y="-550.4" font-family="Arial" font-size="2.00"> </text>
<text text-anchor="start" x="1030" y="-544.4" font-family="Arial" font-size="7.00"> &#160;15</text>
<text text-anchor="start" x="1044" y="-527.8" font-family="Arial" font-weight="bold" font-size="14.00">Mean: 6.03</text>
<text text-anchor="start" x="1055.5" y="-510.8" font-family="Arial" font-weight="bold" font-size="14.00">n = 392</text>
<text text-anchor="start" x="1077.5" y="-492.8" font-family="Arial" font-size="9.00"> </text>
<path fill="none" stroke="#333333" d="M1041,-489C1041,-489 1117,-489 1117,-489 1123,-489 1129,-495 1129,-501 1129,-501 1129,-541 1129,-541 1129,-547 1123,-553 1117,-553 1117,-553 1041,-553 1041,-553 1035,-553 1029,-547 1029,-541 1029,-541 1029,-501 1029,-501 1029,-495 1035,-489 1041,-489"/>
<text text-anchor="start" x="1064.5" y="-474.8" font-family="Arial" font-weight="bold" font-size="14.00">time</text>
</g>
<!-- 1&#45;&gt;15 -->
<g id="edge2" class="edge">
<title>1&#45;&gt;15</title>
<path fill="none" stroke="#888888" d="M906.05,-633.86C937.38,-613.6 975.54,-588.92 1008.03,-567.9"/>
<polygon fill="#888888" stroke="#888888" points="1010.11,-570.73 1016.6,-562.36 1006.3,-564.85 1010.11,-570.73"/>
</g>
<!-- 3 -->
<g id="node4" class="node">
<title>3</title>
<text text-anchor="start" x="431.5" y="-407.8" font-family="Arial" font-weight="bold" font-size="14.00"> &lt; 5.5</text>
<text text-anchor="start" x="377" y="-363.3" font-family="Arial" font-size="14.00"> &#160;&#160;&#160;</text>
<path fill="#ebebeb" stroke="transparent" d="M407,-335C407,-335 491,-335 491,-335 497,-335 503,-341 503,-347 503,-347 503,-387 503,-387 503,-393 497,-399 491,-399 491,-399 407,-399 407,-399 401,-399 395,-393 395,-387 395,-387 395,-347 395,-347 395,-341 401,-335 407,-335"/>
<text text-anchor="start" x="396" y="-396.4" font-family="Arial" font-size="2.00"> </text>
<text text-anchor="start" x="396" y="-390.4" font-family="Arial" font-size="7.00"> &#160;3</text>
<text text-anchor="start" x="410" y="-373.8" font-family="Arial" font-weight="bold" font-size="14.00">Mean: 3.543</text>
<text text-anchor="start" x="425.5" y="-356.8" font-family="Arial" font-weight="bold" font-size="14.00">n = 168</text>
<text text-anchor="start" x="447.5" y="-338.8" font-family="Arial" font-size="9.00"> </text>
<path fill="none" stroke="#333333" d="M407,-335C407,-335 491,-335 491,-335 497,-335 503,-341 503,-347 503,-347 503,-387 503,-387 503,-393 497,-399 491,-399 491,-399 407,-399 407,-399 401,-399 395,-393 395,-387 395,-387 395,-347 395,-347 395,-341 401,-335 407,-335"/>
<text text-anchor="start" x="505" y="-363.3" font-family="Arial" font-size="14.00"> &#160;&#160;&#160;</text>
<text text-anchor="start" x="391.5" y="-320.8" font-family="Arial" font-weight="bold" font-size="14.00">prev_168h_inflow</text>
</g>
<!-- 2&#45;&gt;3 -->
<g id="edge3" class="edge">
<title>2&#45;&gt;3</title>
<path fill="none" stroke="#888888" d="M621.74,-477.86C596.44,-461.77 567.13,-443.13 539.92,-425.82"/>
<polygon fill="#888888" stroke="#888888" points="541.48,-422.67 531.17,-420.26 537.73,-428.58 541.48,-422.67"/>
</g>
<!-- 10 -->
<g id="node5" class="node">
<title>10</title>
<text text-anchor="start" x="671.5" y="-407.8" font-family="Arial" font-weight="bold" font-size="14.00"> ≥ 5.5</text>
<path fill="#ebebeb" stroke="transparent" d="M647,-335C647,-335 730,-335 730,-335 736,-335 742,-341 742,-347 742,-347 742,-387 742,-387 742,-393 736,-399 730,-399 730,-399 647,-399 647,-399 641,-399 635,-393 635,-387 635,-387 635,-347 635,-347 635,-341 641,-335 647,-335"/>
<text text-anchor="start" x="636" y="-396.4" font-family="Arial" font-size="2.00"> </text>
<text text-anchor="start" x="636" y="-390.4" font-family="Arial" font-size="7.00"> &#160;10</text>
<text text-anchor="start" x="650" y="-373.8" font-family="Arial" font-weight="bold" font-size="14.00">Mean: 7.119</text>
<text text-anchor="start" x="665.5" y="-356.8" font-family="Arial" font-weight="bold" font-size="14.00">n = 112</text>
<text text-anchor="start" x="687" y="-338.8" font-family="Arial" font-size="9.00"> </text>
<path fill="none" stroke="#333333" d="M647,-335C647,-335 730,-335 730,-335 736,-335 742,-341 742,-347 742,-347 742,-387 742,-387 742,-393 736,-399 730,-399 730,-399 647,-399 647,-399 641,-399 635,-393 635,-387 635,-387 635,-347 635,-347 635,-341 641,-335 647,-335"/>
<text text-anchor="start" x="659.5" y="-320.8" font-family="Arial" font-weight="bold" font-size="14.00">air_temp</text>
</g>
<!-- 2&#45;&gt;10 -->
<g id="edge4" class="edge">
<title>2&#45;&gt;10</title>
<path fill="none" stroke="#888888" d="M688,-461.67C688,-453.39 688,-444.83 688,-436.38"/>
<polygon fill="#888888" stroke="#888888" points="691.5,-436.18 688,-426.18 684.5,-436.18 691.5,-436.18"/>
</g>
<!-- 16 -->
<g id="node16" class="node">
<title>16</title>
<text text-anchor="start" x="1057.5" y="-407.8" font-family="Arial" font-weight="bold" font-size="14.00"> &lt; 18.5</text>
<path fill="#ebebeb" stroke="transparent" d="M1037,-335C1037,-335 1121,-335 1121,-335 1127,-335 1133,-341 1133,-347 1133,-347 1133,-387 1133,-387 1133,-393 1127,-399 1121,-399 1121,-399 1037,-399 1037,-399 1031,-399 1025,-393 1025,-387 1025,-387 1025,-347 1025,-347 1025,-341 1031,-335 1037,-335"/>
<text text-anchor="start" x="1026" y="-396.4" font-family="Arial" font-size="2.00"> </text>
<text text-anchor="start" x="1026" y="-390.4" font-family="Arial" font-size="7.00"> &#160;16</text>
<text text-anchor="start" x="1040" y="-373.8" font-family="Arial" font-weight="bold" font-size="14.00">Mean: 5.362</text>
<text text-anchor="start" x="1055.5" y="-356.8" font-family="Arial" font-weight="bold" font-size="14.00">n = 252</text>
<text text-anchor="start" x="1077.5" y="-338.8" font-family="Arial" font-size="9.00"> </text>
<path fill="none" stroke="#333333" d="M1037,-335C1037,-335 1121,-335 1121,-335 1127,-335 1133,-341 1133,-347 1133,-347 1133,-387 1133,-387 1133,-393 1127,-399 1121,-399 1121,-399 1037,-399 1037,-399 1031,-399 1025,-393 1025,-387 1025,-387 1025,-347 1025,-347 1025,-341 1031,-335 1037,-335"/>
<text text-anchor="start" x="1064.5" y="-320.8" font-family="Arial" font-weight="bold" font-size="14.00">time</text>
</g>
<!-- 15&#45;&gt;16 -->
<g id="edge15" class="edge">
<title>15&#45;&gt;16</title>
<path fill="none" stroke="#888888" d="M1079,-461.67C1079,-453.39 1079,-444.83 1079,-436.38"/>
<polygon fill="#888888" stroke="#888888" points="1082.5,-436.18 1079,-426.18 1075.5,-436.18 1082.5,-436.18"/>
</g>
<!-- 21 -->
<g id="node17" class="node">
<title>21</title>
<text text-anchor="start" x="1293" y="-407.8" font-family="Arial" font-weight="bold" font-size="14.00"> ≥ 18.5</text>
<path fill="#ebebeb" stroke="transparent" d="M1272,-335C1272,-335 1356,-335 1356,-335 1362,-335 1368,-341 1368,-347 1368,-347 1368,-387 1368,-387 1368,-393 1362,-399 1356,-399 1356,-399 1272,-399 1272,-399 1266,-399 1260,-393 1260,-387 1260,-387 1260,-347 1260,-347 1260,-341 1266,-335 1272,-335"/>
<text text-anchor="start" x="1261" y="-396.4" font-family="Arial" font-size="2.00"> </text>
<text text-anchor="start" x="1261" y="-390.4" font-family="Arial" font-size="7.00"> &#160;21</text>
<text text-anchor="start" x="1275" y="-373.8" font-family="Arial" font-weight="bold" font-size="14.00">Mean: 7.233</text>
<text text-anchor="start" x="1290.5" y="-356.8" font-family="Arial" font-weight="bold" font-size="14.00">n = 140</text>
<text text-anchor="start" x="1312.5" y="-338.8" font-family="Arial" font-size="9.00"> </text>
<path fill="none" stroke="#333333" d="M1272,-335C1272,-335 1356,-335 1356,-335 1362,-335 1368,-341 1368,-347 1368,-347 1368,-387 1368,-387 1368,-393 1362,-399 1356,-399 1356,-399 1272,-399 1272,-399 1266,-399 1260,-393 1260,-387 1260,-387 1260,-347 1260,-347 1260,-341 1266,-335 1272,-335"/>
<text text-anchor="start" x="1285" y="-320.8" font-family="Arial" font-weight="bold" font-size="14.00">air_temp</text>
</g>
<!-- 15&#45;&gt;21 -->
<g id="edge16" class="edge">
<title>15&#45;&gt;21</title>
<path fill="none" stroke="#888888" d="M1141.05,-479.86C1171.13,-460.41 1207.5,-436.88 1239.11,-416.44"/>
<polygon fill="#888888" stroke="#888888" points="1241.4,-419.13 1247.89,-410.76 1237.6,-413.25 1241.4,-419.13"/>
</g>
<!-- 4 -->
<g id="node6" class="node">
<title>4</title>
<text text-anchor="start" x="196" y="-253.8" font-family="Arial" font-weight="bold" font-size="14.00"> &lt; 3.435</text>
<path fill="#ebebeb" stroke="transparent" d="M179,-181C179,-181 263,-181 263,-181 269,-181 275,-187 275,-193 275,-193 275,-233 275,-233 275,-239 269,-245 263,-245 263,-245 179,-245 179,-245 173,-245 167,-239 167,-233 167,-233 167,-193 167,-193 167,-187 173,-181 179,-181"/>
<text text-anchor="start" x="168" y="-242.4" font-family="Arial" font-size="2.00"> </text>
<text text-anchor="start" x="168" y="-236.4" font-family="Arial" font-size="7.00"> &#160;4</text>
<text text-anchor="start" x="182" y="-219.8" font-family="Arial" font-weight="bold" font-size="14.00">Mean: 3.179</text>
<text text-anchor="start" x="201" y="-202.8" font-family="Arial" font-weight="bold" font-size="14.00">n = 93</text>
<text text-anchor="start" x="219.5" y="-184.8" font-family="Arial" font-size="9.00"> </text>
<path fill="none" stroke="#333333" d="M179,-181C179,-181 263,-181 263,-181 269,-181 275,-187 275,-193 275,-193 275,-233 275,-233 275,-239 269,-245 263,-245 263,-245 179,-245 179,-245 173,-245 167,-239 167,-233 167,-233 167,-193 167,-193 167,-187 173,-181 179,-181"/>
<text text-anchor="start" x="192" y="-166.8" font-family="Arial" font-weight="bold" font-size="14.00">air_temp</text>
</g>
<!-- 3&#45;&gt;4 -->
<g id="edge5" class="edge">
<title>3&#45;&gt;4</title>
<path fill="none" stroke="#888888" d="M366.69,-311.12C343.5,-295.67 318.41,-278.94 295.7,-263.8"/>
<polygon fill="#888888" stroke="#888888" points="297.38,-260.71 287.12,-258.08 293.5,-266.54 297.38,-260.71"/>
</g>
<!-- 7 -->
<g id="node7" class="node">
<title>7</title>
<text text-anchor="start" x="424.5" y="-253.8" font-family="Arial" font-weight="bold" font-size="14.00"> ≥ 3.435</text>
<path fill="#ebebeb" stroke="transparent" d="M407,-181C407,-181 491,-181 491,-181 497,-181 503,-187 503,-193 503,-193 503,-233 503,-233 503,-239 497,-245 491,-245 491,-245 407,-245 407,-245 401,-245 395,-239 395,-233 395,-233 395,-193 395,-193 395,-187 401,-181 407,-181"/>
<text text-anchor="start" x="396" y="-242.4" font-family="Arial" font-size="2.00"> </text>
<text text-anchor="start" x="396" y="-236.4" font-family="Arial" font-size="7.00"> &#160;7</text>
<text text-anchor="start" x="410" y="-219.8" font-family="Arial" font-weight="bold" font-size="14.00">Mean: 3.993</text>
<text text-anchor="start" x="429" y="-202.8" font-family="Arial" font-weight="bold" font-size="14.00">n = 75</text>
<text text-anchor="start" x="447.5" y="-184.8" font-family="Arial" font-size="9.00"> </text>
<path fill="none" stroke="#333333" d="M407,-181C407,-181 491,-181 491,-181 497,-181 503,-187 503,-193 503,-193 503,-233 503,-233 503,-239 497,-245 491,-245 491,-245 407,-245 407,-245 401,-245 395,-239 395,-233 395,-233 395,-193 395,-193 395,-187 401,-181 407,-181"/>
<text text-anchor="start" x="406.5" y="-166.8" font-family="Arial" font-weight="bold" font-size="14.00">day_of_week</text>
</g>
<!-- 3&#45;&gt;7 -->
<g id="edge6" class="edge">
<title>3&#45;&gt;7</title>
<path fill="none" stroke="#888888" d="M449,-307.67C449,-299.39 449,-290.83 449,-282.38"/>
<polygon fill="#888888" stroke="#888888" points="452.5,-282.18 449,-272.18 445.5,-282.18 452.5,-282.18"/>
</g>
<!-- 11 -->
<g id="node12" class="node">
<title>11</title>
<text text-anchor="start" x="580" y="-253.8" font-family="Arial" font-weight="bold" font-size="14.00"> &lt; 23.35</text>
<path fill="#f8766d" fill-opacity="0.619608" stroke="transparent" d="M560,-181C560,-181 650,-181 650,-181 656,-181 662,-187 662,-193 662,-193 662,-233 662,-233 662,-239 656,-245 650,-245 650,-245 560,-245 560,-245 554,-245 548,-239 548,-233 548,-233 548,-193 548,-193 548,-187 554,-181 560,-181"/>
<text text-anchor="start" x="549" y="-242.4" font-family="Arial" font-size="2.00"> </text>
<text text-anchor="start" x="549" y="-236.4" font-family="Arial" font-size="7.00"> &#160;11</text>
<text text-anchor="start" x="563" y="-219.8" font-family="Arial" font-weight="bold" font-size="14.00">Predict 5.473</text>
<text text-anchor="start" x="585" y="-202.8" font-family="Arial" font-weight="bold" font-size="14.00">n = 23</text>
<text text-anchor="start" x="603.5" y="-184.8" font-family="Arial" font-size="9.00"> </text>
<path fill="none" stroke="#333333" d="M560,-181C560,-181 650,-181 650,-181 656,-181 662,-187 662,-193 662,-193 662,-233 662,-233 662,-239 656,-245 650,-245 650,-245 560,-245 560,-245 554,-245 548,-239 548,-233 548,-233 548,-193 548,-193 548,-187 554,-181 560,-181"/>
<text text-anchor="start" x="603" y="-166.8" font-family="Arial" font-weight="bold" font-size="14.00"> </text>
</g>
<!-- 10&#45;&gt;11 -->
<g id="edge11" class="edge">
<title>10&#45;&gt;11</title>
<path fill="none" stroke="#888888" d="M656.15,-307.67C651.38,-298.94 646.44,-289.88 641.58,-280.99"/>
<polygon fill="#888888" stroke="#888888" points="644.63,-279.28 636.77,-272.18 638.49,-282.63 644.63,-279.28"/>
</g>
<!-- 12 -->
<g id="node13" class="node">
<title>12</title>
<text text-anchor="start" x="733.5" y="-253.8" font-family="Arial" font-weight="bold" font-size="14.00"> ≥ 23.35</text>
<path fill="#ebebeb" stroke="transparent" d="M716,-181C716,-181 800,-181 800,-181 806,-181 812,-187 812,-193 812,-193 812,-233 812,-233 812,-239 806,-245 800,-245 800,-245 716,-245 716,-245 710,-245 704,-239 704,-233 704,-233 704,-193 704,-193 704,-187 710,-181 716,-181"/>
<text text-anchor="start" x="705" y="-242.4" font-family="Arial" font-size="2.00"> </text>
<text text-anchor="start" x="705" y="-236.4" font-family="Arial" font-size="7.00"> &#160;12</text>
<text text-anchor="start" x="719" y="-219.8" font-family="Arial" font-weight="bold" font-size="14.00">Mean: 7.545</text>
<text text-anchor="start" x="738" y="-202.8" font-family="Arial" font-weight="bold" font-size="14.00">n = 89</text>
<text text-anchor="start" x="756.5" y="-184.8" font-family="Arial" font-size="9.00"> </text>
<path fill="none" stroke="#333333" d="M716,-181C716,-181 800,-181 800,-181 806,-181 812,-187 812,-193 812,-193 812,-233 812,-233 812,-239 806,-245 800,-245 800,-245 716,-245 716,-245 710,-245 704,-239 704,-233 704,-233 704,-193 704,-193 704,-187 710,-181 716,-181"/>
<text text-anchor="start" x="743.5" y="-166.8" font-family="Arial" font-weight="bold" font-size="14.00">time</text>
</g>
<!-- 10&#45;&gt;12 -->
<g id="edge12" class="edge">
<title>10&#45;&gt;12</title>
<path fill="none" stroke="#888888" d="M714.86,-307.67C718.84,-299.03 722.97,-290.07 727.02,-281.27"/>
<polygon fill="#888888" stroke="#888888" points="730.2,-282.72 731.21,-272.18 723.85,-279.8 730.2,-282.72"/>
</g>
<!-- 5 -->
<g id="node8" class="node">
<title>5</title>
<text text-anchor="start" x="44" y="-99.8" font-family="Arial" font-weight="bold" font-size="14.00"> &lt; 23.45</text>
<path fill="#f8766d" fill-opacity="0.874510" stroke="transparent" d="M24,-27C24,-27 114,-27 114,-27 120,-27 126,-33 126,-39 126,-39 126,-79 126,-79 126,-85 120,-91 114,-91 114,-91 24,-91 24,-91 18,-91 12,-85 12,-79 12,-79 12,-39 12,-39 12,-33 18,-27 24,-27"/>
<text text-anchor="start" x="13" y="-88.4" font-family="Arial" font-size="2.00"> </text>
<text text-anchor="start" x="13" y="-82.4" font-family="Arial" font-size="7.00"> &#160;5</text>
<text text-anchor="start" x="27" y="-65.8" font-family="Arial" font-weight="bold" font-size="14.00">Predict 2.633</text>
<text text-anchor="start" x="49" y="-48.8" font-family="Arial" font-weight="bold" font-size="14.00">n = 25</text>
<text text-anchor="start" x="67.5" y="-30.8" font-family="Arial" font-size="9.00"> </text>
<path fill="none" stroke="#333333" d="M24,-27C24,-27 114,-27 114,-27 120,-27 126,-33 126,-39 126,-39 126,-79 126,-79 126,-85 120,-91 114,-91 114,-91 24,-91 24,-91 18,-91 12,-85 12,-79 12,-79 12,-39 12,-39 12,-33 18,-27 24,-27"/>
<text text-anchor="start" x="67" y="-12.8" font-family="Arial" font-weight="bold" font-size="14.00"> </text>
</g>
<!-- 4&#45;&gt;5 -->
<g id="edge7" class="edge">
<title>4&#45;&gt;5</title>
<path fill="none" stroke="#888888" d="M162.67,-153.67C153.39,-144.39 143.75,-134.75 134.33,-125.33"/>
<polygon fill="#888888" stroke="#888888" points="136.72,-122.77 127.18,-118.18 131.77,-127.72 136.72,-122.77"/>
</g>
<!-- 6 -->
<g id="node9" class="node">
<title>6</title>
<text text-anchor="start" x="196.5" y="-99.8" font-family="Arial" font-weight="bold" font-size="14.00"> ≥ 23.45</text>
<path fill="#f8766d" fill-opacity="0.807843" stroke="transparent" d="M180,-27C180,-27 262,-27 262,-27 268,-27 274,-33 274,-39 274,-39 274,-79 274,-79 274,-85 268,-91 262,-91 262,-91 180,-91 180,-91 174,-91 168,-85 168,-79 168,-79 168,-39 168,-39 168,-33 174,-27 180,-27"/>
<text text-anchor="start" x="169" y="-88.4" font-family="Arial" font-size="2.00"> </text>
<text text-anchor="start" x="169" y="-82.4" font-family="Arial" font-size="7.00"> &#160;6</text>
<text text-anchor="start" x="183" y="-65.8" font-family="Arial" font-weight="bold" font-size="14.00">Predict 3.38</text>
<text text-anchor="start" x="201" y="-48.8" font-family="Arial" font-weight="bold" font-size="14.00">n = 68</text>
<text text-anchor="start" x="219.5" y="-30.8" font-family="Arial" font-size="9.00"> </text>
<path fill="none" stroke="#333333" d="M180,-27C180,-27 262,-27 262,-27 268,-27 274,-33 274,-39 274,-39 274,-79 274,-79 274,-85 268,-91 262,-91 262,-91 180,-91 180,-91 174,-91 168,-85 168,-79 168,-79 168,-39 168,-39 168,-33 174,-27 180,-27"/>
<text text-anchor="start" x="219" y="-12.8" font-family="Arial" font-weight="bold" font-size="14.00"> </text>
</g>
<!-- 4&#45;&gt;6 -->
<g id="edge8" class="edge">
<title>4&#45;&gt;6</title>
<path fill="none" stroke="#888888" d="M221,-153.67C221,-145.39 221,-136.83 221,-128.38"/>
<polygon fill="#888888" stroke="#888888" points="224.5,-128.18 221,-118.18 217.5,-128.18 224.5,-128.18"/>
</g>
<!-- 8 -->
<g id="node10" class="node">
<title>8</title>
<text text-anchor="start" x="355.5" y="-99.8" font-family="Arial" font-weight="bold" font-size="14.00"> &lt; 2.5</text>
<path fill="#f8766d" fill-opacity="0.717647" stroke="transparent" d="M328,-27C328,-27 418,-27 418,-27 424,-27 430,-33 430,-39 430,-39 430,-79 430,-79 430,-85 424,-91 418,-91 418,-91 328,-91 328,-91 322,-91 316,-85 316,-79 316,-79 316,-39 316,-39 316,-33 322,-27 328,-27"/>
<text text-anchor="start" x="317" y="-88.4" font-family="Arial" font-size="2.00"> </text>
<text text-anchor="start" x="317" y="-82.4" font-family="Arial" font-size="7.00"> &#160;8</text>
<text text-anchor="start" x="331" y="-65.8" font-family="Arial" font-weight="bold" font-size="14.00">Predict 4.403</text>
<text text-anchor="start" x="353" y="-48.8" font-family="Arial" font-weight="bold" font-size="14.00">n = 29</text>
<text text-anchor="start" x="371.5" y="-30.8" font-family="Arial" font-size="9.00"> </text>
<path fill="none" stroke="#333333" d="M328,-27C328,-27 418,-27 418,-27 424,-27 430,-33 430,-39 430,-39 430,-79 430,-79 430,-85 424,-91 418,-91 418,-91 328,-91 328,-91 322,-91 316,-85 316,-79 316,-79 316,-39 316,-39 316,-33 322,-27 328,-27"/>
<text text-anchor="start" x="371" y="-12.8" font-family="Arial" font-weight="bold" font-size="14.00"> </text>
</g>
<!-- 7&#45;&gt;8 -->
<g id="edge9" class="edge">
<title>7&#45;&gt;8</title>
<path fill="none" stroke="#888888" d="M419.83,-153.67C415.52,-145.03 411.04,-136.07 406.64,-127.27"/>
<polygon fill="#888888" stroke="#888888" points="409.69,-125.56 402.09,-118.18 403.43,-128.69 409.69,-125.56"/>
</g>
<!-- 9 -->
<g id="node11" class="node">
<title>9</title>
<text text-anchor="start" x="512" y="-99.8" font-family="Arial" font-weight="bold" font-size="14.00"> ≥ 2.5</text>
<path fill="#f8766d" fill-opacity="0.776471" stroke="transparent" d="M484,-27C484,-27 574,-27 574,-27 580,-27 586,-33 586,-39 586,-39 586,-79 586,-79 586,-85 580,-91 574,-91 574,-91 484,-91 484,-91 478,-91 472,-85 472,-79 472,-79 472,-39 472,-39 472,-33 478,-27 484,-27"/>
<text text-anchor="start" x="473" y="-88.4" font-family="Arial" font-size="2.00"> </text>
<text text-anchor="start" x="473" y="-82.4" font-family="Arial" font-size="7.00"> &#160;9</text>
<text text-anchor="start" x="487" y="-65.8" font-family="Arial" font-weight="bold" font-size="14.00">Predict 3.735</text>
<text text-anchor="start" x="509" y="-48.8" font-family="Arial" font-weight="bold" font-size="14.00">n = 46</text>
<text text-anchor="start" x="527.5" y="-30.8" font-family="Arial" font-size="9.00"> </text>
<path fill="none" stroke="#333333" d="M484,-27C484,-27 574,-27 574,-27 580,-27 586,-33 586,-39 586,-39 586,-79 586,-79 586,-85 580,-91 574,-91 574,-91 484,-91 484,-91 478,-91 472,-85 472,-79 472,-79 472,-39 472,-39 472,-33 478,-27 484,-27"/>
<text text-anchor="start" x="527" y="-12.8" font-family="Arial" font-weight="bold" font-size="14.00"> </text>
</g>
<!-- 7&#45;&gt;9 -->
<g id="edge10" class="edge">
<title>7&#45;&gt;9</title>
<path fill="none" stroke="#888888" d="M479.7,-153.67C484.25,-145.03 488.96,-136.07 493.59,-127.27"/>
<polygon fill="#888888" stroke="#888888" points="496.82,-128.66 498.38,-118.18 490.63,-125.4 496.82,-128.66"/>
</g>
<!-- 13 -->
<g id="node14" class="node">
<title>13</title>
<text text-anchor="start" x="667.5" y="-99.8" font-family="Arial" font-weight="bold" font-size="14.00"> &lt; 8.5</text>
<path fill="#f8766d" fill-opacity="0.415686" stroke="transparent" d="M640,-27C640,-27 730,-27 730,-27 736,-27 742,-33 742,-39 742,-39 742,-79 742,-79 742,-85 736,-91 730,-91 730,-91 640,-91 640,-91 634,-91 628,-85 628,-79 628,-79 628,-39 628,-39 628,-33 634,-27 640,-27"/>
<text text-anchor="start" x="629" y="-88.4" font-family="Arial" font-size="2.00"> </text>
<text text-anchor="start" x="629" y="-82.4" font-family="Arial" font-size="7.00"> &#160;13</text>
<text text-anchor="start" x="643" y="-65.8" font-family="Arial" font-weight="bold" font-size="14.00">Predict 7.788</text>
<text text-anchor="start" x="665" y="-48.8" font-family="Arial" font-weight="bold" font-size="14.00">n = 65</text>
<text text-anchor="start" x="683.5" y="-30.8" font-family="Arial" font-size="9.00"> </text>
<path fill="none" stroke="#333333" d="M640,-27C640,-27 730,-27 730,-27 736,-27 742,-33 742,-39 742,-39 742,-79 742,-79 742,-85 736,-91 730,-91 730,-91 640,-91 640,-91 634,-91 628,-85 628,-79 628,-79 628,-39 628,-39 628,-33 634,-27 640,-27"/>
<text text-anchor="start" x="683" y="-12.8" font-family="Arial" font-weight="bold" font-size="14.00"> </text>
</g>
<!-- 12&#45;&gt;13 -->
<g id="edge13" class="edge">
<title>12&#45;&gt;13</title>
<path fill="none" stroke="#888888" d="M729.99,-153.67C725.84,-145.03 721.53,-136.07 717.31,-127.27"/>
<polygon fill="#888888" stroke="#888888" points="720.42,-125.68 712.94,-118.18 714.11,-128.71 720.42,-125.68"/>
</g>
<!-- 14 -->
<g id="node15" class="node">
<title>14</title>
<text text-anchor="start" x="824" y="-99.8" font-family="Arial" font-weight="bold" font-size="14.00"> ≥ 8.5</text>
<path fill="#f8766d" fill-opacity="0.494118" stroke="transparent" d="M796,-27C796,-27 886,-27 886,-27 892,-27 898,-33 898,-39 898,-39 898,-79 898,-79 898,-85 892,-91 886,-91 886,-91 796,-91 796,-91 790,-91 784,-85 784,-79 784,-79 784,-39 784,-39 784,-33 790,-27 796,-27"/>
<text text-anchor="start" x="785" y="-88.4" font-family="Arial" font-size="2.00"> </text>
<text text-anchor="start" x="785" y="-82.4" font-family="Arial" font-size="7.00"> &#160;14</text>
<text text-anchor="start" x="799" y="-65.8" font-family="Arial" font-weight="bold" font-size="14.00">Predict 6.886</text>
<text text-anchor="start" x="821" y="-48.8" font-family="Arial" font-weight="bold" font-size="14.00">n = 24</text>
<text text-anchor="start" x="839.5" y="-30.8" font-family="Arial" font-size="9.00"> </text>
<path fill="none" stroke="#333333" d="M796,-27C796,-27 886,-27 886,-27 892,-27 898,-33 898,-39 898,-39 898,-79 898,-79 898,-85 892,-91 886,-91 886,-91 796,-91 796,-91 790,-91 784,-85 784,-79 784,-79 784,-39 784,-39 784,-33 790,-27 796,-27"/>
<text text-anchor="start" x="839" y="-12.8" font-family="Arial" font-weight="bold" font-size="14.00"> </text>
</g>
<!-- 12&#45;&gt;14 -->
<g id="edge14" class="edge">
<title>12&#45;&gt;14</title>
<path fill="none" stroke="#888888" d="M789.85,-153.67C794.62,-144.94 799.56,-135.88 804.42,-126.99"/>
<polygon fill="#888888" stroke="#888888" points="807.51,-128.63 809.23,-118.18 801.37,-125.28 807.51,-128.63"/>
</g>
<!-- 17 -->
<g id="node18" class="node">
<title>17</title>
<text text-anchor="start" x="975.5" y="-253.8" font-family="Arial" font-weight="bold" font-size="14.00"> &lt; 17.5</text>
<text text-anchor="start" x="925" y="-209.3" font-family="Arial" font-size="14.00"> &#160;&#160;&#160;</text>
<path fill="#ebebeb" stroke="transparent" d="M955,-181C955,-181 1039,-181 1039,-181 1045,-181 1051,-187 1051,-193 1051,-193 1051,-233 1051,-233 1051,-239 1045,-245 1039,-245 1039,-245 955,-245 955,-245 949,-245 943,-239 943,-233 943,-233 943,-193 943,-193 943,-187 949,-181 955,-181"/>
<text text-anchor="start" x="944" y="-242.4" font-family="Arial" font-size="2.00"> </text>
<text text-anchor="start" x="944" y="-236.4" font-family="Arial" font-size="7.00"> &#160;17</text>
<text text-anchor="start" x="958" y="-219.8" font-family="Arial" font-weight="bold" font-size="14.00">Mean: 5.205</text>
<text text-anchor="start" x="973.5" y="-202.8" font-family="Arial" font-weight="bold" font-size="14.00">n = 224</text>
<text text-anchor="start" x="995.5" y="-184.8" font-family="Arial" font-size="9.00"> </text>
<path fill="none" stroke="#333333" d="M955,-181C955,-181 1039,-181 1039,-181 1045,-181 1051,-187 1051,-193 1051,-193 1051,-233 1051,-233 1051,-239 1045,-245 1039,-245 1039,-245 955,-245 955,-245 949,-245 943,-239 943,-233 943,-233 943,-193 943,-193 943,-187 949,-181 955,-181"/>
<text text-anchor="start" x="1053" y="-209.3" font-family="Arial" font-size="14.00"> &#160;&#160;&#160;</text>
<text text-anchor="start" x="939.5" y="-166.8" font-family="Arial" font-weight="bold" font-size="14.00">prev_168h_inflow</text>
</g>
<!-- 16&#45;&gt;17 -->
<g id="edge17" class="edge">
<title>16&#45;&gt;17</title>
<path fill="none" stroke="#888888" d="M1047.53,-307.67C1042.82,-298.94 1037.94,-289.88 1033.14,-280.99"/>
<polygon fill="#888888" stroke="#888888" points="1036.21,-279.32 1028.38,-272.18 1030.05,-282.64 1036.21,-279.32"/>
</g>
<!-- 20 -->
<g id="node19" class="node">
<title>20</title>
<text text-anchor="start" x="1141" y="-253.8" font-family="Arial" font-weight="bold" font-size="14.00"> ≥ 17.5</text>
<path fill="#f8766d" fill-opacity="0.517647" stroke="transparent" d="M1121,-181C1121,-181 1203,-181 1203,-181 1209,-181 1215,-187 1215,-193 1215,-193 1215,-233 1215,-233 1215,-239 1209,-245 1203,-245 1203,-245 1121,-245 1121,-245 1115,-245 1109,-239 1109,-233 1109,-233 1109,-193 1109,-193 1109,-187 1115,-181 1121,-181"/>
<text text-anchor="start" x="1110" y="-242.4" font-family="Arial" font-size="2.00"> </text>
<text text-anchor="start" x="1110" y="-236.4" font-family="Arial" font-size="7.00"> &#160;20</text>
<text text-anchor="start" x="1124" y="-219.8" font-family="Arial" font-weight="bold" font-size="14.00">Predict 6.62</text>
<text text-anchor="start" x="1142" y="-202.8" font-family="Arial" font-weight="bold" font-size="14.00">n = 28</text>
<text text-anchor="start" x="1160.5" y="-184.8" font-family="Arial" font-size="9.00"> </text>
<path fill="none" stroke="#333333" d="M1121,-181C1121,-181 1203,-181 1203,-181 1209,-181 1215,-187 1215,-193 1215,-193 1215,-233 1215,-233 1215,-239 1209,-245 1203,-245 1203,-245 1121,-245 1121,-245 1115,-245 1109,-239 1109,-233 1109,-233 1109,-193 1109,-193 1109,-187 1115,-181 1121,-181"/>
<text text-anchor="start" x="1160" y="-166.8" font-family="Arial" font-weight="bold" font-size="14.00"> </text>
</g>
<!-- 16&#45;&gt;20 -->
<g id="edge18" class="edge">
<title>16&#45;&gt;20</title>
<path fill="none" stroke="#888888" d="M1110.85,-307.67C1115.62,-298.94 1120.56,-289.88 1125.42,-280.99"/>
<polygon fill="#888888" stroke="#888888" points="1128.51,-282.63 1130.23,-272.18 1122.37,-279.28 1128.51,-282.63"/>
</g>
<!-- 22 -->
<g id="node22" class="node">
<title>22</title>
<text text-anchor="start" x="1292.5" y="-253.8" font-family="Arial" font-weight="bold" font-size="14.00"> &lt; 23.4</text>
<path fill="#f8766d" fill-opacity="0.694118" stroke="transparent" d="M1269,-181C1269,-181 1359,-181 1359,-181 1365,-181 1371,-187 1371,-193 1371,-193 1371,-233 1371,-233 1371,-239 1365,-245 1359,-245 1359,-245 1269,-245 1269,-245 1263,-245 1257,-239 1257,-233 1257,-233 1257,-193 1257,-193 1257,-187 1263,-181 1269,-181"/>
<text text-anchor="start" x="1258" y="-242.4" font-family="Arial" font-size="2.00"> </text>
<text text-anchor="start" x="1258" y="-236.4" font-family="Arial" font-size="7.00"> &#160;22</text>
<text text-anchor="start" x="1272" y="-219.8" font-family="Arial" font-weight="bold" font-size="14.00">Predict 4.636</text>
<text text-anchor="start" x="1298" y="-202.8" font-family="Arial" font-weight="bold" font-size="14.00">n = 8</text>
<text text-anchor="start" x="1312.5" y="-184.8" font-family="Arial" font-size="9.00"> </text>
<path fill="none" stroke="#333333" d="M1269,-181C1269,-181 1359,-181 1359,-181 1365,-181 1371,-187 1371,-193 1371,-193 1371,-233 1371,-233 1371,-239 1365,-245 1359,-245 1359,-245 1269,-245 1269,-245 1263,-245 1257,-239 1257,-233 1257,-233 1257,-193 1257,-193 1257,-187 1263,-181 1269,-181"/>
<text text-anchor="start" x="1312" y="-166.8" font-family="Arial" font-weight="bold" font-size="14.00"> </text>
</g>
<!-- 21&#45;&gt;22 -->
<g id="edge21" class="edge">
<title>21&#45;&gt;22</title>
<path fill="none" stroke="#888888" d="M1314,-307.67C1314,-299.39 1314,-290.83 1314,-282.38"/>
<polygon fill="#888888" stroke="#888888" points="1317.5,-282.18 1314,-272.18 1310.5,-282.18 1317.5,-282.18"/>
</g>
<!-- 23 -->
<g id="node23" class="node">
<title>23</title>
<text text-anchor="start" x="1446" y="-253.8" font-family="Arial" font-weight="bold" font-size="14.00"> ≥ 23.4</text>
<path fill="#ebebeb" stroke="transparent" d="M1425,-181C1425,-181 1509,-181 1509,-181 1515,-181 1521,-187 1521,-193 1521,-193 1521,-233 1521,-233 1521,-239 1515,-245 1509,-245 1509,-245 1425,-245 1425,-245 1419,-245 1413,-239 1413,-233 1413,-233 1413,-193 1413,-193 1413,-187 1419,-181 1425,-181"/>
<text text-anchor="start" x="1414" y="-242.4" font-family="Arial" font-size="2.00"> </text>
<text text-anchor="start" x="1414" y="-236.4" font-family="Arial" font-size="7.00"> &#160;23</text>
<text text-anchor="start" x="1428" y="-219.8" font-family="Arial" font-weight="bold" font-size="14.00">Mean: 7.391</text>
<text text-anchor="start" x="1443.5" y="-202.8" font-family="Arial" font-weight="bold" font-size="14.00">n = 132</text>
<text text-anchor="start" x="1465.5" y="-184.8" font-family="Arial" font-size="9.00"> </text>
<path fill="none" stroke="#333333" d="M1425,-181C1425,-181 1509,-181 1509,-181 1515,-181 1521,-187 1521,-193 1521,-193 1521,-233 1521,-233 1521,-239 1515,-245 1509,-245 1509,-245 1425,-245 1425,-245 1419,-245 1413,-239 1413,-233 1413,-233 1413,-193 1413,-193 1413,-187 1419,-181 1425,-181"/>
<text text-anchor="start" x="1452.5" y="-166.8" font-family="Arial" font-weight="bold" font-size="14.00">time</text>
</g>
<!-- 21&#45;&gt;23 -->
<g id="edge22" class="edge">
<title>21&#45;&gt;23</title>
<path fill="none" stroke="#888888" d="M1372.72,-307.67C1382.05,-298.39 1391.76,-288.75 1401.24,-279.33"/>
<polygon fill="#888888" stroke="#888888" points="1403.81,-281.71 1408.44,-272.18 1398.88,-276.74 1403.81,-281.71"/>
</g>
<!-- 18 -->
<g id="node20" class="node">
<title>18</title>
<text text-anchor="start" x="972" y="-99.8" font-family="Arial" font-weight="bold" font-size="14.00"> &lt; 6.145</text>
<path fill="#f8766d" fill-opacity="0.654902" stroke="transparent" d="M952,-27C952,-27 1042,-27 1042,-27 1048,-27 1054,-33 1054,-39 1054,-39 1054,-79 1054,-79 1054,-85 1048,-91 1042,-91 1042,-91 952,-91 952,-91 946,-91 940,-85 940,-79 940,-79 940,-39 940,-39 940,-33 946,-27 952,-27"/>
<text text-anchor="start" x="941" y="-88.4" font-family="Arial" font-size="2.00"> </text>
<text text-anchor="start" x="941" y="-82.4" font-family="Arial" font-size="7.00"> &#160;18</text>
<text text-anchor="start" x="955" y="-65.8" font-family="Arial" font-weight="bold" font-size="14.00">Predict 5.078</text>
<text text-anchor="start" x="973.5" y="-48.8" font-family="Arial" font-weight="bold" font-size="14.00">n = 199</text>
<text text-anchor="start" x="995.5" y="-30.8" font-family="Arial" font-size="9.00"> </text>
<path fill="none" stroke="#333333" d="M952,-27C952,-27 1042,-27 1042,-27 1048,-27 1054,-33 1054,-39 1054,-39 1054,-79 1054,-79 1054,-85 1048,-91 1042,-91 1042,-91 952,-91 952,-91 946,-91 940,-85 940,-79 940,-79 940,-39 940,-39 940,-33 946,-27 952,-27"/>
<text text-anchor="start" x="995" y="-12.8" font-family="Arial" font-weight="bold" font-size="14.00"> </text>
</g>
<!-- 17&#45;&gt;18 -->
<g id="edge19" class="edge">
<title>17&#45;&gt;18</title>
<path fill="none" stroke="#888888" d="M997,-153.67C997,-145.39 997,-136.83 997,-128.38"/>
<polygon fill="#888888" stroke="#888888" points="1000.5,-128.18 997,-118.18 993.5,-128.18 1000.5,-128.18"/>
</g>
<!-- 19 -->
<g id="node21" class="node">
<title>19</title>
<text text-anchor="start" x="1128.5" y="-99.8" font-family="Arial" font-weight="bold" font-size="14.00"> ≥ 6.145</text>
<path fill="#f8766d" fill-opacity="0.552941" stroke="transparent" d="M1108,-27C1108,-27 1198,-27 1198,-27 1204,-27 1210,-33 1210,-39 1210,-39 1210,-79 1210,-79 1210,-85 1204,-91 1198,-91 1198,-91 1108,-91 1108,-91 1102,-91 1096,-85 1096,-79 1096,-79 1096,-39 1096,-39 1096,-33 1102,-27 1108,-27"/>
<text text-anchor="start" x="1097" y="-88.4" font-family="Arial" font-size="2.00"> </text>
<text text-anchor="start" x="1097" y="-82.4" font-family="Arial" font-size="7.00"> &#160;19</text>
<text text-anchor="start" x="1111" y="-65.8" font-family="Arial" font-weight="bold" font-size="14.00">Predict 6.218</text>
<text text-anchor="start" x="1133" y="-48.8" font-family="Arial" font-weight="bold" font-size="14.00">n = 25</text>
<text text-anchor="start" x="1151.5" y="-30.8" font-family="Arial" font-size="9.00"> </text>
<path fill="none" stroke="#333333" d="M1108,-27C1108,-27 1198,-27 1198,-27 1204,-27 1210,-33 1210,-39 1210,-39 1210,-79 1210,-79 1210,-85 1204,-91 1198,-91 1198,-91 1108,-91 1108,-91 1102,-91 1096,-85 1096,-79 1096,-79 1096,-39 1096,-39 1096,-33 1102,-27 1108,-27"/>
<text text-anchor="start" x="1151" y="-12.8" font-family="Arial" font-weight="bold" font-size="14.00"> </text>
</g>
<!-- 17&#45;&gt;19 -->
<g id="edge20" class="edge">
<title>17&#45;&gt;19</title>
<path fill="none" stroke="#888888" d="M1056.87,-153.67C1066.38,-144.39 1076.28,-134.75 1085.95,-125.33"/>
<polygon fill="#888888" stroke="#888888" points="1088.57,-127.66 1093.29,-118.18 1083.69,-122.65 1088.57,-127.66"/>
</g>
<!-- 24 -->
<g id="node24" class="node">
<title>24</title>
<text text-anchor="start" x="1367.5" y="-99.8" font-family="Arial" font-weight="bold" font-size="14.00"> &lt; 21.5</text>
<path fill="#f8766d" fill-opacity="0.376471" stroke="transparent" d="M1344,-27C1344,-27 1434,-27 1434,-27 1440,-27 1446,-33 1446,-39 1446,-39 1446,-79 1446,-79 1446,-85 1440,-91 1434,-91 1434,-91 1344,-91 1344,-91 1338,-91 1332,-85 1332,-79 1332,-79 1332,-39 1332,-39 1332,-33 1338,-27 1344,-27"/>
<text text-anchor="start" x="1333" y="-88.4" font-family="Arial" font-size="2.00"> </text>
<text text-anchor="start" x="1333" y="-82.4" font-family="Arial" font-size="7.00"> &#160;24</text>
<text text-anchor="start" x="1347" y="-65.8" font-family="Arial" font-weight="bold" font-size="14.00">Predict 8.229</text>
<text text-anchor="start" x="1369" y="-48.8" font-family="Arial" font-weight="bold" font-size="14.00">n = 80</text>
<text text-anchor="start" x="1387.5" y="-30.8" font-family="Arial" font-size="9.00"> </text>
<path fill="none" stroke="#333333" d="M1344,-27C1344,-27 1434,-27 1434,-27 1440,-27 1446,-33 1446,-39 1446,-39 1446,-79 1446,-79 1446,-85 1440,-91 1434,-91 1434,-91 1344,-91 1344,-91 1338,-91 1332,-85 1332,-79 1332,-79 1332,-39 1332,-39 1332,-33 1338,-27 1344,-27"/>
<text text-anchor="start" x="1387" y="-12.8" font-family="Arial" font-weight="bold" font-size="14.00"> </text>
</g>
<!-- 23&#45;&gt;24 -->
<g id="edge23" class="edge">
<title>23&#45;&gt;24</title>
<path fill="none" stroke="#888888" d="M1437.07,-153.67C1432.63,-145.03 1428.04,-136.07 1423.52,-127.27"/>
<polygon fill="#888888" stroke="#888888" points="1426.53,-125.48 1418.85,-118.18 1420.31,-128.67 1426.53,-125.48"/>
</g>
<!-- 25 -->
<g id="node25" class="node">
<title>25</title>
<text text-anchor="start" x="1524" y="-99.8" font-family="Arial" font-weight="bold" font-size="14.00"> ≥ 21.5</text>
<path fill="#f8766d" fill-opacity="0.564706" stroke="transparent" d="M1500,-27C1500,-27 1590,-27 1590,-27 1596,-27 1602,-33 1602,-39 1602,-39 1602,-79 1602,-79 1602,-85 1596,-91 1590,-91 1590,-91 1500,-91 1500,-91 1494,-91 1488,-85 1488,-79 1488,-79 1488,-39 1488,-39 1488,-33 1494,-27 1500,-27"/>
<text text-anchor="start" x="1489" y="-88.4" font-family="Arial" font-size="2.00"> </text>
<text text-anchor="start" x="1489" y="-82.4" font-family="Arial" font-size="7.00"> &#160;25</text>
<text text-anchor="start" x="1503" y="-65.8" font-family="Arial" font-weight="bold" font-size="14.00">Predict 6.101</text>
<text text-anchor="start" x="1525" y="-48.8" font-family="Arial" font-weight="bold" font-size="14.00">n = 52</text>
<text text-anchor="start" x="1543.5" y="-30.8" font-family="Arial" font-size="9.00"> </text>
<path fill="none" stroke="#333333" d="M1500,-27C1500,-27 1590,-27 1590,-27 1596,-27 1602,-33 1602,-39 1602,-39 1602,-79 1602,-79 1602,-85 1596,-91 1590,-91 1590,-91 1500,-91 1500,-91 1494,-91 1488,-85 1488,-79 1488,-79 1488,-39 1488,-39 1488,-33 1494,-27 1500,-27"/>
<text text-anchor="start" x="1543" y="-12.8" font-family="Arial" font-weight="bold" font-size="14.00"> </text>
</g>
<!-- 23&#45;&gt;25 -->
<g id="edge24" class="edge">
<title>23&#45;&gt;25</title>
<path fill="none" stroke="#888888" d="M1496.93,-153.67C1501.37,-145.03 1505.96,-136.07 1510.48,-127.27"/>
<polygon fill="#888888" stroke="#888888" points="1513.69,-128.67 1515.15,-118.18 1507.47,-125.48 1513.69,-128.67"/>
</g>
</g>
</svg>
