<?xml version="1.0" encoding="utf-8"?>
<svg xmlns="http://www.w3.org/2000/svg" xmlns:xlink="http://www.w3.org/1999/xlink" width="1000" height="400" viewBox="0 0 4000 1600">
<defs>
  <clipPath id="clip720">
    <rect x="0" y="0" width="4000" height="1600"/>
  </clipPath>
</defs>
<path clip-path="url(#clip720)" d="M0 1600 L4000 1600 L4000 0 L0 0  Z" fill="#ffffff" fill-rule="evenodd" fill-opacity="1"/>
<defs>
  <clipPath id="clip721">
    <rect x="800" y="0" width="2801" height="1600"/>
  </clipPath>
</defs>
<path clip-path="url(#clip720)" d="M203.67 1497.68 L3180.22 1497.68 L3180.22 47.2441 L203.67 47.2441  Z" fill="#ffffff" fill-rule="evenodd" fill-opacity="1"/>
<defs>
  <clipPath id="clip722">
    <rect x="203" y="47" width="2978" height="1451"/>
  </clipPath>
</defs>
<polyline clip-path="url(#clip722)" style="stroke:#000000; stroke-linecap:round; stroke-linejoin:round; stroke-width:2; stroke-opacity:0.1; fill:none" points="287.912,1497.68 287.912,47.2441 "/>
<polyline clip-path="url(#clip722)" style="stroke:#000000; stroke-linecap:round; stroke-linejoin:round; stroke-width:2; stroke-opacity:0.1; fill:none" points="1095.02,1497.68 1095.02,47.2441 "/>
<polyline clip-path="url(#clip722)" style="stroke:#000000; stroke-linecap:round; stroke-linejoin:round; stroke-width:2; stroke-opacity:0.1; fill:none" points="1902.13,1497.68 1902.13,47.2441 "/>
<polyline clip-path="url(#clip722)" style="stroke:#000000; stroke-linecap:round; stroke-linejoin:round; stroke-width:2; stroke-opacity:0.1; fill:none" points="2709.24,1497.68 2709.24,47.2441 "/>
<polyline clip-path="url(#clip720)" style="stroke:#000000; stroke-linecap:round; stroke-linejoin:round; stroke-width:4; stroke-opacity:1; fill:none" points="203.67,1497.68 3180.22,1497.68 "/>
<polyline clip-path="url(#clip720)" style="stroke:#000000; stroke-linecap:round; stroke-linejoin:round; stroke-width:4; stroke-opacity:1; fill:none" points="287.912,1497.68 287.912,1478.78 "/>
<polyline clip-path="url(#clip720)" style="stroke:#000000; stroke-linecap:round; stroke-linejoin:round; stroke-width:4; stroke-opacity:1; fill:none" points="1095.02,1497.68 1095.02,1478.78 "/>
<polyline clip-path="url(#clip720)" style="stroke:#000000; stroke-linecap:round; stroke-linejoin:round; stroke-width:4; stroke-opacity:1; fill:none" points="1902.13,1497.68 1902.13,1478.78 "/>
<polyline clip-path="url(#clip720)" style="stroke:#000000; stroke-linecap:round; stroke-linejoin:round; stroke-width:4; stroke-opacity:1; fill:none" points="2709.24,1497.68 2709.24,1478.78 "/>
<path clip-path="url(#clip720)" d="M143.551 1573.85 L161.91 1573.85 L161.91 1578.28 L137.223 1578.28 L137.223 1573.85 Q140.218 1570.75 145.374 1565.55 Q150.556 1560.31 151.884 1558.8 Q154.41 1555.96 155.4 1554.01 Q156.416 1552.03 156.416 1550.13 Q156.416 1547.03 154.228 1545.08 Q152.067 1543.12 148.577 1543.12 Q146.103 1543.12 143.343 1543.98 Q140.608 1544.84 137.483 1546.59 L137.483 1541.27 Q140.661 1540 143.421 1539.35 Q146.181 1538.7 148.473 1538.7 Q154.515 1538.7 158.108 1541.72 Q161.702 1544.74 161.702 1549.79 Q161.702 1552.19 160.791 1554.35 Q159.905 1556.48 157.535 1559.4 Q156.884 1560.15 153.395 1563.77 Q149.905 1567.37 143.551 1573.85 Z" fill="#000000" fill-rule="nonzero" fill-opacity="1" /><path clip-path="url(#clip720)" d="M184.202 1542.86 Q180.139 1542.86 178.082 1546.87 Q176.051 1550.86 176.051 1558.88 Q176.051 1566.87 178.082 1570.88 Q180.139 1574.87 184.202 1574.87 Q188.29 1574.87 190.322 1570.88 Q192.379 1566.87 192.379 1558.88 Q192.379 1550.86 190.322 1546.87 Q188.29 1542.86 184.202 1542.86 M184.202 1538.7 Q190.738 1538.7 194.176 1543.88 Q197.639 1549.04 197.639 1558.88 Q197.639 1568.7 194.176 1573.88 Q190.738 1579.04 184.202 1579.04 Q177.666 1579.04 174.202 1573.88 Q170.765 1568.7 170.765 1558.88 Q170.765 1549.04 174.202 1543.88 Q177.666 1538.7 184.202 1538.7 Z" fill="#000000" fill-rule="nonzero" fill-opacity="1" /><path clip-path="url(#clip720)" d="M211.415 1573.85 L229.775 1573.85 L229.775 1578.28 L205.087 1578.28 L205.087 1573.85 Q208.082 1570.75 213.238 1565.55 Q218.421 1560.31 219.749 1558.8 Q222.275 1555.96 223.264 1554.01 Q224.28 1552.03 224.28 1550.13 Q224.28 1547.03 222.092 1545.08 Q219.931 1543.12 216.441 1543.12 Q213.967 1543.12 211.207 1543.98 Q208.473 1544.84 205.348 1546.59 L205.348 1541.27 Q208.525 1540 211.285 1539.35 Q214.046 1538.7 216.337 1538.7 Q222.379 1538.7 225.973 1541.72 Q229.566 1544.74 229.566 1549.79 Q229.566 1552.19 228.655 1554.35 Q227.769 1556.48 225.4 1559.4 Q224.749 1560.15 221.259 1563.77 Q217.769 1567.37 211.415 1573.85 Z" fill="#000000" fill-rule="nonzero" fill-opacity="1" /><path clip-path="url(#clip720)" d="M245.347 1573.85 L263.707 1573.85 L263.707 1578.28 L239.019 1578.28 L239.019 1573.85 Q242.014 1570.75 247.17 1565.55 Q252.353 1560.31 253.681 1558.8 Q256.207 1555.96 257.196 1554.01 Q258.212 1552.03 258.212 1550.13 Q258.212 1547.03 256.024 1545.08 Q253.863 1543.12 250.373 1543.12 Q247.9 1543.12 245.139 1543.98 Q242.405 1544.84 239.28 1546.59 L239.28 1541.27 Q242.457 1540 245.217 1539.35 Q247.978 1538.7 250.269 1538.7 Q256.311 1538.7 259.905 1541.72 Q263.498 1544.74 263.498 1549.79 Q263.498 1552.19 262.587 1554.35 Q261.702 1556.48 259.332 1559.4 Q258.681 1560.15 255.191 1563.77 Q251.702 1567.37 245.347 1573.85 Z" fill="#000000" fill-rule="nonzero" fill-opacity="1" /><path clip-path="url(#clip720)" d="M271.649 1561.54 L285.686 1561.54 L285.686 1565.81 L271.649 1565.81 L271.649 1561.54 Z" fill="#000000" fill-rule="nonzero" fill-opacity="1" /><path clip-path="url(#clip720)" d="M305.243 1542.86 Q301.18 1542.86 299.123 1546.87 Q297.092 1550.86 297.092 1558.88 Q297.092 1566.87 299.123 1570.88 Q301.18 1574.87 305.243 1574.87 Q309.331 1574.87 311.363 1570.88 Q313.42 1566.87 313.42 1558.88 Q313.42 1550.86 311.363 1546.87 Q309.331 1542.86 305.243 1542.86 M305.243 1538.7 Q311.779 1538.7 315.217 1543.88 Q318.68 1549.04 318.68 1558.88 Q318.68 1568.7 315.217 1573.88 Q311.779 1579.04 305.243 1579.04 Q298.707 1579.04 295.243 1573.88 Q291.806 1568.7 291.806 1558.88 Q291.806 1549.04 295.243 1543.88 Q298.707 1538.7 305.243 1538.7 Z" fill="#000000" fill-rule="nonzero" fill-opacity="1" /><path clip-path="url(#clip720)" d="M326.597 1539.4 L351.597 1539.4 L351.597 1541.64 L337.482 1578.28 L331.988 1578.28 L345.269 1543.83 L326.597 1543.83 L326.597 1539.4 Z" fill="#000000" fill-rule="nonzero" fill-opacity="1" /><path clip-path="url(#clip720)" d="M358.758 1561.54 L372.795 1561.54 L372.795 1565.81 L358.758 1565.81 L358.758 1561.54 Z" fill="#000000" fill-rule="nonzero" fill-opacity="1" /><path clip-path="url(#clip720)" d="M385.633 1573.85 L403.992 1573.85 L403.992 1578.28 L379.305 1578.28 L379.305 1573.85 Q382.3 1570.75 387.456 1565.55 Q392.638 1560.31 393.966 1558.8 Q396.492 1555.96 397.482 1554.01 Q398.498 1552.03 398.498 1550.13 Q398.498 1547.03 396.31 1545.08 Q394.149 1543.12 390.659 1543.12 Q388.185 1543.12 385.425 1543.98 Q382.69 1544.84 379.565 1546.59 L379.565 1541.27 Q382.743 1540 385.503 1539.35 Q388.263 1538.7 390.555 1538.7 Q396.597 1538.7 400.19 1541.72 Q403.784 1544.74 403.784 1549.79 Q403.784 1552.19 402.873 1554.35 Q401.987 1556.48 399.617 1559.4 Q398.966 1560.15 395.477 1563.77 Q391.987 1567.37 385.633 1573.85 Z" fill="#000000" fill-rule="nonzero" fill-opacity="1" /><path clip-path="url(#clip720)" d="M415.086 1539.4 L435.737 1539.4 L435.737 1543.83 L419.904 1543.83 L419.904 1553.36 Q421.05 1552.97 422.195 1552.79 Q423.341 1552.58 424.487 1552.58 Q430.997 1552.58 434.8 1556.14 Q438.602 1559.71 438.602 1565.81 Q438.602 1572.08 434.695 1575.57 Q430.789 1579.04 423.68 1579.04 Q421.232 1579.04 418.68 1578.62 Q416.154 1578.2 413.445 1577.37 L413.445 1572.08 Q415.789 1573.36 418.289 1573.98 Q420.789 1574.61 423.576 1574.61 Q428.081 1574.61 430.711 1572.24 Q433.341 1569.87 433.341 1565.81 Q433.341 1561.74 430.711 1559.37 Q428.081 1557 423.576 1557 Q421.466 1557 419.357 1557.47 Q417.274 1557.94 415.086 1558.93 L415.086 1539.4 Z" fill="#000000" fill-rule="nonzero" fill-opacity="1" /><path clip-path="url(#clip720)" d="M950.609 1573.85 L968.968 1573.85 L968.968 1578.28 L944.28 1578.28 L944.28 1573.85 Q947.275 1570.75 952.431 1565.55 Q957.614 1560.31 958.942 1558.8 Q961.468 1555.96 962.457 1554.01 Q963.473 1552.03 963.473 1550.13 Q963.473 1547.03 961.286 1545.08 Q959.124 1543.12 955.635 1543.12 Q953.161 1543.12 950.4 1543.98 Q947.666 1544.84 944.541 1546.59 L944.541 1541.27 Q947.718 1540 950.478 1539.35 Q953.239 1538.7 955.53 1538.7 Q961.572 1538.7 965.166 1541.72 Q968.76 1544.74 968.76 1549.79 Q968.76 1552.19 967.848 1554.35 Q966.963 1556.48 964.593 1559.4 Q963.942 1560.15 960.452 1563.77 Q956.963 1567.37 950.609 1573.85 Z" fill="#000000" fill-rule="nonzero" fill-opacity="1" /><path clip-path="url(#clip720)" d="M991.259 1542.86 Q987.197 1542.86 985.14 1546.87 Q983.108 1550.86 983.108 1558.88 Q983.108 1566.87 985.14 1570.88 Q987.197 1574.87 991.259 1574.87 Q995.348 1574.87 997.379 1570.88 Q999.436 1566.87 999.436 1558.88 Q999.436 1550.86 997.379 1546.87 Q995.348 1542.86 991.259 1542.86 M991.259 1538.7 Q997.796 1538.7 1001.23 1543.88 Q1004.7 1549.04 1004.7 1558.88 Q1004.7 1568.7 1001.23 1573.88 Q997.796 1579.04 991.259 1579.04 Q984.723 1579.04 981.259 1573.88 Q977.822 1568.7 977.822 1558.88 Q977.822 1549.04 981.259 1543.88 Q984.723 1538.7 991.259 1538.7 Z" fill="#000000" fill-rule="nonzero" fill-opacity="1" /><path clip-path="url(#clip720)" d="M1018.47 1573.85 L1036.83 1573.85 L1036.83 1578.28 L1012.14 1578.28 L1012.14 1573.85 Q1015.14 1570.75 1020.3 1565.55 Q1025.48 1560.31 1026.81 1558.8 Q1029.33 1555.96 1030.32 1554.01 Q1031.34 1552.03 1031.34 1550.13 Q1031.34 1547.03 1029.15 1545.08 Q1026.99 1543.12 1023.5 1543.12 Q1021.02 1543.12 1018.26 1543.98 Q1015.53 1544.84 1012.41 1546.59 L1012.41 1541.27 Q1015.58 1540 1018.34 1539.35 Q1021.1 1538.7 1023.39 1538.7 Q1029.44 1538.7 1033.03 1541.72 Q1036.62 1544.74 1036.62 1549.79 Q1036.62 1552.19 1035.71 1554.35 Q1034.83 1556.48 1032.46 1559.4 Q1031.81 1560.15 1028.32 1563.77 Q1024.83 1567.37 1018.47 1573.85 Z" fill="#000000" fill-rule="nonzero" fill-opacity="1" /><path clip-path="url(#clip720)" d="M1052.4 1573.85 L1070.76 1573.85 L1070.76 1578.28 L1046.08 1578.28 L1046.08 1573.85 Q1049.07 1570.75 1054.23 1565.55 Q1059.41 1560.31 1060.74 1558.8 Q1063.26 1555.96 1064.25 1554.01 Q1065.27 1552.03 1065.27 1550.13 Q1065.27 1547.03 1063.08 1545.08 Q1060.92 1543.12 1057.43 1543.12 Q1054.96 1543.12 1052.2 1543.98 Q1049.46 1544.84 1046.34 1546.59 L1046.34 1541.27 Q1049.51 1540 1052.27 1539.35 Q1055.04 1538.7 1057.33 1538.7 Q1063.37 1538.7 1066.96 1541.72 Q1070.56 1544.74 1070.56 1549.79 Q1070.56 1552.19 1069.64 1554.35 Q1068.76 1556.48 1066.39 1559.4 Q1065.74 1560.15 1062.25 1563.77 Q1058.76 1567.37 1052.4 1573.85 Z" fill="#000000" fill-rule="nonzero" fill-opacity="1" /><path clip-path="url(#clip720)" d="M1078.71 1561.54 L1092.74 1561.54 L1092.74 1565.81 L1078.71 1565.81 L1078.71 1561.54 Z" fill="#000000" fill-rule="nonzero" fill-opacity="1" /><path clip-path="url(#clip720)" d="M1112.3 1542.86 Q1108.24 1542.86 1106.18 1546.87 Q1104.15 1550.86 1104.15 1558.88 Q1104.15 1566.87 1106.18 1570.88 Q1108.24 1574.87 1112.3 1574.87 Q1116.39 1574.87 1118.42 1570.88 Q1120.48 1566.87 1120.48 1558.88 Q1120.48 1550.86 1118.42 1546.87 Q1116.39 1542.86 1112.3 1542.86 M1112.3 1538.7 Q1118.84 1538.7 1122.27 1543.88 Q1125.74 1549.04 1125.74 1558.88 Q1125.74 1568.7 1122.27 1573.88 Q1118.84 1579.04 1112.3 1579.04 Q1105.76 1579.04 1102.3 1573.88 Q1098.86 1568.7 1098.86 1558.88 Q1098.86 1549.04 1102.3 1543.88 Q1105.76 1538.7 1112.3 1538.7 Z" fill="#000000" fill-rule="nonzero" fill-opacity="1" /><path clip-path="url(#clip720)" d="M1133.65 1539.4 L1158.65 1539.4 L1158.65 1541.64 L1144.54 1578.28 L1139.05 1578.28 L1152.33 1543.83 L1133.65 1543.83 L1133.65 1539.4 Z" fill="#000000" fill-rule="nonzero" fill-opacity="1" /><path clip-path="url(#clip720)" d="M1165.82 1561.54 L1179.85 1561.54 L1179.85 1565.81 L1165.82 1565.81 L1165.82 1561.54 Z" fill="#000000" fill-rule="nonzero" fill-opacity="1" /><path clip-path="url(#clip720)" d="M1192.69 1573.85 L1211.05 1573.85 L1211.05 1578.28 L1186.36 1578.28 L1186.36 1573.85 Q1189.36 1570.75 1194.51 1565.55 Q1199.7 1560.31 1201.02 1558.8 Q1203.55 1555.96 1204.54 1554.01 Q1205.56 1552.03 1205.56 1550.13 Q1205.56 1547.03 1203.37 1545.08 Q1201.21 1543.12 1197.72 1543.12 Q1195.24 1543.12 1192.48 1543.98 Q1189.75 1544.84 1186.62 1546.59 L1186.62 1541.27 Q1189.8 1540 1192.56 1539.35 Q1195.32 1538.7 1197.61 1538.7 Q1203.65 1538.7 1207.25 1541.72 Q1210.84 1544.74 1210.84 1549.79 Q1210.84 1552.19 1209.93 1554.35 Q1209.04 1556.48 1206.67 1559.4 Q1206.02 1560.15 1202.53 1563.77 Q1199.04 1567.37 1192.69 1573.85 Z" fill="#000000" fill-rule="nonzero" fill-opacity="1" /><path clip-path="url(#clip720)" d="M1220.76 1539.4 L1245.76 1539.4 L1245.76 1541.64 L1231.65 1578.28 L1226.15 1578.28 L1239.44 1543.83 L1220.76 1543.83 L1220.76 1539.4 Z" fill="#000000" fill-rule="nonzero" fill-opacity="1" /><path clip-path="url(#clip720)" d="M1757.31 1573.85 L1775.67 1573.85 L1775.67 1578.28 L1750.99 1578.28 L1750.99 1573.85 Q1753.98 1570.75 1759.14 1565.55 Q1764.32 1560.31 1765.65 1558.8 Q1768.17 1555.96 1769.16 1554.01 Q1770.18 1552.03 1770.18 1550.13 Q1770.18 1547.03 1767.99 1545.08 Q1765.83 1543.12 1762.34 1543.12 Q1759.87 1543.12 1757.11 1543.98 Q1754.37 1544.84 1751.25 1546.59 L1751.25 1541.27 Q1754.42 1540 1757.18 1539.35 Q1759.94 1538.7 1762.24 1538.7 Q1768.28 1538.7 1771.87 1541.72 Q1775.47 1544.74 1775.47 1549.79 Q1775.47 1552.19 1774.55 1554.35 Q1773.67 1556.48 1771.3 1559.4 Q1770.65 1560.15 1767.16 1563.77 Q1763.67 1567.37 1757.31 1573.85 Z" fill="#000000" fill-rule="nonzero" fill-opacity="1" /><path clip-path="url(#clip720)" d="M1797.97 1542.86 Q1793.9 1542.86 1791.85 1546.87 Q1789.81 1550.86 1789.81 1558.88 Q1789.81 1566.87 1791.85 1570.88 Q1793.9 1574.87 1797.97 1574.87 Q1802.05 1574.87 1804.09 1570.88 Q1806.14 1566.87 1806.14 1558.88 Q1806.14 1550.86 1804.09 1546.87 Q1802.05 1542.86 1797.97 1542.86 M1797.97 1538.7 Q1804.5 1538.7 1807.94 1543.88 Q1811.4 1549.04 1811.4 1558.88 Q1811.4 1568.7 1807.94 1573.88 Q1804.5 1579.04 1797.97 1579.04 Q1791.43 1579.04 1787.97 1573.88 Q1784.53 1568.7 1784.53 1558.88 Q1784.53 1549.04 1787.97 1543.88 Q1791.43 1538.7 1797.97 1538.7 Z" fill="#000000" fill-rule="nonzero" fill-opacity="1" /><path clip-path="url(#clip720)" d="M1825.18 1573.85 L1843.54 1573.85 L1843.54 1578.28 L1818.85 1578.28 L1818.85 1573.85 Q1821.85 1570.75 1827 1565.55 Q1832.18 1560.31 1833.51 1558.8 Q1836.04 1555.96 1837.03 1554.01 Q1838.04 1552.03 1838.04 1550.13 Q1838.04 1547.03 1835.86 1545.08 Q1833.69 1543.12 1830.2 1543.12 Q1827.73 1543.12 1824.97 1543.98 Q1822.24 1544.84 1819.11 1546.59 L1819.11 1541.27 Q1822.29 1540 1825.05 1539.35 Q1827.81 1538.7 1830.1 1538.7 Q1836.14 1538.7 1839.74 1541.72 Q1843.33 1544.74 1843.33 1549.79 Q1843.33 1552.19 1842.42 1554.35 Q1841.53 1556.48 1839.16 1559.4 Q1838.51 1560.15 1835.02 1563.77 Q1831.53 1567.37 1825.18 1573.85 Z" fill="#000000" fill-rule="nonzero" fill-opacity="1" /><path clip-path="url(#clip720)" d="M1859.11 1573.85 L1877.47 1573.85 L1877.47 1578.28 L1852.78 1578.28 L1852.78 1573.85 Q1855.78 1570.75 1860.93 1565.55 Q1866.12 1560.31 1867.44 1558.8 Q1869.97 1555.96 1870.96 1554.01 Q1871.98 1552.03 1871.98 1550.13 Q1871.98 1547.03 1869.79 1545.08 Q1867.63 1543.12 1864.14 1543.12 Q1861.66 1543.12 1858.9 1543.98 Q1856.17 1544.84 1853.04 1546.59 L1853.04 1541.27 Q1856.22 1540 1858.98 1539.35 Q1861.74 1538.7 1864.03 1538.7 Q1870.07 1538.7 1873.67 1541.72 Q1877.26 1544.74 1877.26 1549.79 Q1877.26 1552.19 1876.35 1554.35 Q1875.46 1556.48 1873.1 1559.4 Q1872.44 1560.15 1868.95 1563.77 Q1865.46 1567.37 1859.11 1573.85 Z" fill="#000000" fill-rule="nonzero" fill-opacity="1" /><path clip-path="url(#clip720)" d="M1885.41 1561.54 L1899.45 1561.54 L1899.45 1565.81 L1885.41 1565.81 L1885.41 1561.54 Z" fill="#000000" fill-rule="nonzero" fill-opacity="1" /><path clip-path="url(#clip720)" d="M1919.01 1542.86 Q1914.94 1542.86 1912.89 1546.87 Q1910.86 1550.86 1910.86 1558.88 Q1910.86 1566.87 1912.89 1570.88 Q1914.94 1574.87 1919.01 1574.87 Q1923.09 1574.87 1925.13 1570.88 Q1927.18 1566.87 1927.18 1558.88 Q1927.18 1550.86 1925.13 1546.87 Q1923.09 1542.86 1919.01 1542.86 M1919.01 1538.7 Q1925.54 1538.7 1928.98 1543.88 Q1932.44 1549.04 1932.44 1558.88 Q1932.44 1568.7 1928.98 1573.88 Q1925.54 1579.04 1919.01 1579.04 Q1912.47 1579.04 1909.01 1573.88 Q1905.57 1568.7 1905.57 1558.88 Q1905.57 1549.04 1909.01 1543.88 Q1912.47 1538.7 1919.01 1538.7 Z" fill="#000000" fill-rule="nonzero" fill-opacity="1" /><path clip-path="url(#clip720)" d="M1940.36 1539.4 L1965.36 1539.4 L1965.36 1541.64 L1951.25 1578.28 L1945.75 1578.28 L1959.03 1543.83 L1940.36 1543.83 L1940.36 1539.4 Z" fill="#000000" fill-rule="nonzero" fill-opacity="1" /><path clip-path="url(#clip720)" d="M1972.52 1561.54 L1986.56 1561.54 L1986.56 1565.81 L1972.52 1565.81 L1972.52 1561.54 Z" fill="#000000" fill-rule="nonzero" fill-opacity="1" /><path clip-path="url(#clip720)" d="M1999.4 1573.85 L2017.76 1573.85 L2017.76 1578.28 L1993.07 1578.28 L1993.07 1573.85 Q1996.06 1570.75 2001.22 1565.55 Q2006.4 1560.31 2007.73 1558.8 Q2010.26 1555.96 2011.25 1554.01 Q2012.26 1552.03 2012.26 1550.13 Q2012.26 1547.03 2010.07 1545.08 Q2007.91 1543.12 2004.42 1543.12 Q2001.95 1543.12 1999.19 1543.98 Q1996.45 1544.84 1993.33 1546.59 L1993.33 1541.27 Q1996.51 1540 1999.27 1539.35 Q2002.03 1538.7 2004.32 1538.7 Q2010.36 1538.7 2013.95 1541.72 Q2017.55 1544.74 2017.55 1549.79 Q2017.55 1552.19 2016.64 1554.35 Q2015.75 1556.48 2013.38 1559.4 Q2012.73 1560.15 2009.24 1563.77 Q2005.75 1567.37 1999.4 1573.85 Z" fill="#000000" fill-rule="nonzero" fill-opacity="1" /><path clip-path="url(#clip720)" d="M2028.95 1577.47 L2028.95 1572.68 Q2030.93 1573.62 2032.96 1574.11 Q2035 1574.61 2036.95 1574.61 Q2042.16 1574.61 2044.89 1571.12 Q2047.65 1567.6 2048.04 1560.47 Q2046.53 1562.71 2044.21 1563.9 Q2041.9 1565.1 2039.08 1565.1 Q2033.25 1565.1 2029.84 1561.59 Q2026.45 1558.05 2026.45 1551.93 Q2026.45 1545.94 2030 1542.32 Q2033.54 1538.7 2039.42 1538.7 Q2046.17 1538.7 2049.71 1543.88 Q2053.28 1549.04 2053.28 1558.88 Q2053.28 1568.07 2048.9 1573.57 Q2044.55 1579.04 2037.18 1579.04 Q2035.2 1579.04 2033.17 1578.64 Q2031.14 1578.25 2028.95 1577.47 M2039.42 1560.99 Q2042.96 1560.99 2045.02 1558.57 Q2047.1 1556.14 2047.1 1551.93 Q2047.1 1547.73 2045.02 1545.31 Q2042.96 1542.86 2039.42 1542.86 Q2035.88 1542.86 2033.8 1545.31 Q2031.74 1547.73 2031.74 1551.93 Q2031.74 1556.14 2033.8 1558.57 Q2035.88 1560.99 2039.42 1560.99 Z" fill="#000000" fill-rule="nonzero" fill-opacity="1" /><path clip-path="url(#clip720)" d="M2565.01 1573.85 L2583.37 1573.85 L2583.37 1578.28 L2558.68 1578.28 L2558.68 1573.85 Q2561.68 1570.75 2566.83 1565.55 Q2572.02 1560.31 2573.34 1558.8 Q2575.87 1555.96 2576.86 1554.01 Q2577.87 1552.03 2577.87 1550.13 Q2577.87 1547.03 2575.69 1545.08 Q2573.53 1543.12 2570.04 1543.12 Q2567.56 1543.12 2564.8 1543.98 Q2562.07 1544.84 2558.94 1546.59 L2558.94 1541.27 Q2562.12 1540 2564.88 1539.35 Q2567.64 1538.7 2569.93 1538.7 Q2575.97 1538.7 2579.57 1541.72 Q2583.16 1544.74 2583.16 1549.79 Q2583.16 1552.19 2582.25 1554.35 Q2581.36 1556.48 2578.99 1559.4 Q2578.34 1560.15 2574.85 1563.77 Q2571.36 1567.37 2565.01 1573.85 Z" fill="#000000" fill-rule="nonzero" fill-opacity="1" /><path clip-path="url(#clip720)" d="M2605.66 1542.86 Q2601.6 1542.86 2599.54 1546.87 Q2597.51 1550.86 2597.51 1558.88 Q2597.51 1566.87 2599.54 1570.88 Q2601.6 1574.87 2605.66 1574.87 Q2609.75 1574.87 2611.78 1570.88 Q2613.84 1566.87 2613.84 1558.88 Q2613.84 1550.86 2611.78 1546.87 Q2609.75 1542.86 2605.66 1542.86 M2605.66 1538.7 Q2612.2 1538.7 2615.63 1543.88 Q2619.1 1549.04 2619.1 1558.88 Q2619.1 1568.7 2615.63 1573.88 Q2612.2 1579.04 2605.66 1579.04 Q2599.12 1579.04 2595.66 1573.88 Q2592.22 1568.7 2592.22 1558.88 Q2592.22 1549.04 2595.66 1543.88 Q2599.12 1538.7 2605.66 1538.7 Z" fill="#000000" fill-rule="nonzero" fill-opacity="1" /><path clip-path="url(#clip720)" d="M2632.87 1573.85 L2651.23 1573.85 L2651.23 1578.28 L2626.55 1578.28 L2626.55 1573.85 Q2629.54 1570.75 2634.7 1565.55 Q2639.88 1560.31 2641.21 1558.8 Q2643.73 1555.96 2644.72 1554.01 Q2645.74 1552.03 2645.74 1550.13 Q2645.74 1547.03 2643.55 1545.08 Q2641.39 1543.12 2637.9 1543.12 Q2635.43 1543.12 2632.67 1543.98 Q2629.93 1544.84 2626.81 1546.59 L2626.81 1541.27 Q2629.98 1540 2632.74 1539.35 Q2635.5 1538.7 2637.8 1538.7 Q2643.84 1538.7 2647.43 1541.72 Q2651.03 1544.74 2651.03 1549.79 Q2651.03 1552.19 2650.11 1554.35 Q2649.23 1556.48 2646.86 1559.4 Q2646.21 1560.15 2642.72 1563.77 Q2639.23 1567.37 2632.87 1573.85 Z" fill="#000000" fill-rule="nonzero" fill-opacity="1" /><path clip-path="url(#clip720)" d="M2666.81 1573.85 L2685.17 1573.85 L2685.17 1578.28 L2660.48 1578.28 L2660.48 1573.85 Q2663.47 1570.75 2668.63 1565.55 Q2673.81 1560.31 2675.14 1558.8 Q2677.67 1555.96 2678.66 1554.01 Q2679.67 1552.03 2679.67 1550.13 Q2679.67 1547.03 2677.48 1545.08 Q2675.32 1543.12 2671.83 1543.12 Q2669.36 1543.12 2666.6 1543.98 Q2663.86 1544.84 2660.74 1546.59 L2660.74 1541.27 Q2663.92 1540 2666.68 1539.35 Q2669.44 1538.7 2671.73 1538.7 Q2677.77 1538.7 2681.36 1541.72 Q2684.96 1544.74 2684.96 1549.79 Q2684.96 1552.19 2684.05 1554.35 Q2683.16 1556.48 2680.79 1559.4 Q2680.14 1560.15 2676.65 1563.77 Q2673.16 1567.37 2666.81 1573.85 Z" fill="#000000" fill-rule="nonzero" fill-opacity="1" /><path clip-path="url(#clip720)" d="M2693.11 1561.54 L2707.14 1561.54 L2707.14 1565.81 L2693.11 1565.81 L2693.11 1561.54 Z" fill="#000000" fill-rule="nonzero" fill-opacity="1" /><path clip-path="url(#clip720)" d="M2726.7 1542.86 Q2722.64 1542.86 2720.58 1546.87 Q2718.55 1550.86 2718.55 1558.88 Q2718.55 1566.87 2720.58 1570.88 Q2722.64 1574.87 2726.7 1574.87 Q2730.79 1574.87 2732.82 1570.88 Q2734.88 1566.87 2734.88 1558.88 Q2734.88 1550.86 2732.82 1546.87 Q2730.79 1542.86 2726.7 1542.86 M2726.7 1538.7 Q2733.24 1538.7 2736.68 1543.88 Q2740.14 1549.04 2740.14 1558.88 Q2740.14 1568.7 2736.68 1573.88 Q2733.24 1579.04 2726.7 1579.04 Q2720.17 1579.04 2716.7 1573.88 Q2713.26 1568.7 2713.26 1558.88 Q2713.26 1549.04 2716.7 1543.88 Q2720.17 1538.7 2726.7 1538.7 Z" fill="#000000" fill-rule="nonzero" fill-opacity="1" /><path clip-path="url(#clip720)" d="M2748.06 1539.4 L2773.06 1539.4 L2773.06 1541.64 L2758.94 1578.28 L2753.45 1578.28 L2766.73 1543.83 L2748.06 1543.83 L2748.06 1539.4 Z" fill="#000000" fill-rule="nonzero" fill-opacity="1" /><path clip-path="url(#clip720)" d="M2780.22 1561.54 L2794.25 1561.54 L2794.25 1565.81 L2780.22 1565.81 L2780.22 1561.54 Z" fill="#000000" fill-rule="nonzero" fill-opacity="1" /><path clip-path="url(#clip720)" d="M2818.5 1557.32 Q2822.27 1558.12 2824.38 1560.68 Q2826.52 1563.23 2826.52 1566.98 Q2826.52 1572.73 2822.56 1575.88 Q2818.6 1579.04 2811.31 1579.04 Q2808.86 1579.04 2806.26 1578.54 Q2803.68 1578.07 2800.92 1577.11 L2800.92 1572.03 Q2803.11 1573.31 2805.71 1573.96 Q2808.32 1574.61 2811.15 1574.61 Q2816.1 1574.61 2818.68 1572.65 Q2821.28 1570.7 2821.28 1566.98 Q2821.28 1563.54 2818.86 1561.61 Q2816.47 1559.66 2812.17 1559.66 L2807.64 1559.66 L2807.64 1555.34 L2812.38 1555.34 Q2816.26 1555.34 2818.32 1553.8 Q2820.37 1552.24 2820.37 1549.32 Q2820.37 1546.33 2818.24 1544.74 Q2816.13 1543.12 2812.17 1543.12 Q2810.01 1543.12 2807.53 1543.59 Q2805.06 1544.06 2802.09 1545.05 L2802.09 1540.36 Q2805.09 1539.53 2807.69 1539.11 Q2810.32 1538.7 2812.64 1538.7 Q2818.63 1538.7 2822.12 1541.43 Q2825.61 1544.14 2825.61 1548.77 Q2825.61 1552 2823.76 1554.24 Q2821.91 1556.46 2818.5 1557.32 Z" fill="#000000" fill-rule="nonzero" fill-opacity="1" /><path clip-path="url(#clip720)" d="M2837.4 1573.85 L2846 1573.85 L2846 1544.19 L2836.65 1546.07 L2836.65 1541.27 L2845.95 1539.4 L2851.21 1539.4 L2851.21 1573.85 L2859.8 1573.85 L2859.8 1578.28 L2837.4 1578.28 L2837.4 1573.85 Z" fill="#000000" fill-rule="nonzero" fill-opacity="1" /><polyline clip-path="url(#clip722)" style="stroke:#000000; stroke-linecap:round; stroke-linejoin:round; stroke-width:2; stroke-opacity:0.1; fill:none" points="203.67,1391.33 3180.22,1391.33 "/>
<polyline clip-path="url(#clip722)" style="stroke:#000000; stroke-linecap:round; stroke-linejoin:round; stroke-width:2; stroke-opacity:0.1; fill:none" points="203.67,1117.69 3180.22,1117.69 "/>
<polyline clip-path="url(#clip722)" style="stroke:#000000; stroke-linecap:round; stroke-linejoin:round; stroke-width:2; stroke-opacity:0.1; fill:none" points="203.67,844.043 3180.22,844.043 "/>
<polyline clip-path="url(#clip722)" style="stroke:#000000; stroke-linecap:round; stroke-linejoin:round; stroke-width:2; stroke-opacity:0.1; fill:none" points="203.67,570.398 3180.22,570.398 "/>
<polyline clip-path="url(#clip722)" style="stroke:#000000; stroke-linecap:round; stroke-linejoin:round; stroke-width:2; stroke-opacity:0.1; fill:none" points="203.67,296.753 3180.22,296.753 "/>
<polyline clip-path="url(#clip720)" style="stroke:#000000; stroke-linecap:round; stroke-linejoin:round; stroke-width:4; stroke-opacity:1; fill:none" points="203.67,1497.68 203.67,47.2441 "/>
<polyline clip-path="url(#clip720)" style="stroke:#000000; stroke-linecap:round; stroke-linejoin:round; stroke-width:4; stroke-opacity:1; fill:none" points="203.67,1391.33 218.674,1391.33 "/>
<polyline clip-path="url(#clip720)" style="stroke:#000000; stroke-linecap:round; stroke-linejoin:round; stroke-width:4; stroke-opacity:1; fill:none" points="203.67,1117.69 218.674,1117.69 "/>
<polyline clip-path="url(#clip720)" style="stroke:#000000; stroke-linecap:round; stroke-linejoin:round; stroke-width:4; stroke-opacity:1; fill:none" points="203.67,844.043 218.674,844.043 "/>
<polyline clip-path="url(#clip720)" style="stroke:#000000; stroke-linecap:round; stroke-linejoin:round; stroke-width:4; stroke-opacity:1; fill:none" points="203.67,570.398 218.674,570.398 "/>
<polyline clip-path="url(#clip720)" style="stroke:#000000; stroke-linecap:round; stroke-linejoin:round; stroke-width:4; stroke-opacity:1; fill:none" points="203.67,296.753 218.674,296.753 "/>
<path clip-path="url(#clip720)" d="M130.337 1392.31 Q126.587 1392.31 124.426 1394.31 Q122.29 1396.32 122.29 1399.84 Q122.29 1403.35 124.426 1405.36 Q126.587 1407.36 130.337 1407.36 Q134.087 1407.36 136.248 1405.36 Q138.41 1403.32 138.41 1399.84 Q138.41 1396.32 136.248 1394.31 Q134.113 1392.31 130.337 1392.31 M125.077 1390.07 Q121.691 1389.24 119.79 1386.92 Q117.915 1384.6 117.915 1381.27 Q117.915 1376.61 121.222 1373.9 Q124.556 1371.19 130.337 1371.19 Q136.144 1371.19 139.452 1373.9 Q142.759 1376.61 142.759 1381.27 Q142.759 1384.6 140.858 1386.92 Q138.983 1389.24 135.623 1390.07 Q139.425 1390.95 141.535 1393.53 Q143.67 1396.11 143.67 1399.84 Q143.67 1405.49 140.207 1408.51 Q136.769 1411.53 130.337 1411.53 Q123.905 1411.53 120.441 1408.51 Q117.004 1405.49 117.004 1399.84 Q117.004 1396.11 119.139 1393.53 Q121.275 1390.95 125.077 1390.07 M123.15 1381.76 Q123.15 1384.78 125.025 1386.48 Q126.926 1388.17 130.337 1388.17 Q133.722 1388.17 135.623 1386.48 Q137.55 1384.78 137.55 1381.76 Q137.55 1378.74 135.623 1377.05 Q133.722 1375.36 130.337 1375.36 Q126.926 1375.36 125.025 1377.05 Q123.15 1378.74 123.15 1381.76 Z" fill="#000000" fill-rule="nonzero" fill-opacity="1" /><path clip-path="url(#clip720)" d="M85.9622 1132.7 L94.5559 1132.7 L94.5559 1103.04 L85.207 1104.91 L85.207 1100.12 L94.5039 1098.25 L99.7642 1098.25 L99.7642 1132.7 L108.358 1132.7 L108.358 1137.13 L85.9622 1137.13 L85.9622 1132.7 Z" fill="#000000" fill-rule="nonzero" fill-opacity="1" /><path clip-path="url(#clip720)" d="M130.233 1101.71 Q126.17 1101.71 124.113 1105.72 Q122.082 1109.71 122.082 1117.73 Q122.082 1125.72 124.113 1129.73 Q126.17 1133.72 130.233 1133.72 Q134.321 1133.72 136.353 1129.73 Q138.41 1125.72 138.41 1117.73 Q138.41 1109.71 136.353 1105.72 Q134.321 1101.71 130.233 1101.71 M130.233 1097.54 Q136.769 1097.54 140.207 1102.73 Q143.67 1107.88 143.67 1117.73 Q143.67 1127.54 140.207 1132.73 Q136.769 1137.88 130.233 1137.88 Q123.696 1137.88 120.233 1132.73 Q116.795 1127.54 116.795 1117.73 Q116.795 1107.88 120.233 1102.73 Q123.696 1097.54 130.233 1097.54 Z" fill="#000000" fill-rule="nonzero" fill-opacity="1" /><path clip-path="url(#clip720)" d="M87.7591 859.056 L96.3528 859.056 L96.3528 829.394 L87.0039 831.269 L87.0039 826.478 L96.3007 824.603 L101.561 824.603 L101.561 859.056 L110.155 859.056 L110.155 863.483 L87.7591 863.483 L87.7591 859.056 Z" fill="#000000" fill-rule="nonzero" fill-opacity="1" /><path clip-path="url(#clip720)" d="M125.311 859.056 L143.67 859.056 L143.67 863.483 L118.983 863.483 L118.983 859.056 Q121.978 855.957 127.134 850.748 Q132.316 845.514 133.644 844.004 Q136.17 841.165 137.16 839.212 Q138.175 837.233 138.175 835.332 Q138.175 832.233 135.988 830.28 Q133.827 828.327 130.337 828.327 Q127.863 828.327 125.103 829.186 Q122.368 830.045 119.243 831.79 L119.243 826.478 Q122.42 825.202 125.181 824.551 Q127.941 823.9 130.233 823.9 Q136.274 823.9 139.868 826.92 Q143.462 829.941 143.462 834.993 Q143.462 837.389 142.55 839.551 Q141.665 841.686 139.295 844.603 Q138.644 845.358 135.155 848.978 Q131.665 852.571 125.311 859.056 Z" fill="#000000" fill-rule="nonzero" fill-opacity="1" /><path clip-path="url(#clip720)" d="M85.4154 585.411 L94.0091 585.411 L94.0091 555.749 L84.6602 557.624 L84.6602 552.833 L93.957 550.958 L99.2174 550.958 L99.2174 585.411 L107.811 585.411 L107.811 589.838 L85.4154 589.838 L85.4154 585.411 Z" fill="#000000" fill-rule="nonzero" fill-opacity="1" /><path clip-path="url(#clip720)" d="M132.889 555.541 L119.608 576.296 L132.889 576.296 L132.889 555.541 M131.509 550.958 L138.123 550.958 L138.123 576.296 L143.67 576.296 L143.67 580.671 L138.123 580.671 L138.123 589.838 L132.889 589.838 L132.889 580.671 L115.337 580.671 L115.337 575.593 L131.509 550.958 Z" fill="#000000" fill-rule="nonzero" fill-opacity="1" /><path clip-path="url(#clip720)" d="M85.7799 311.766 L94.3736 311.766 L94.3736 282.105 L85.0247 283.98 L85.0247 279.188 L94.3216 277.313 L99.582 277.313 L99.582 311.766 L108.176 311.766 L108.176 316.193 L85.7799 316.193 L85.7799 311.766 Z" fill="#000000" fill-rule="nonzero" fill-opacity="1" /><path clip-path="url(#clip720)" d="M130.702 294.657 Q127.16 294.657 125.077 297.078 Q123.019 299.5 123.019 303.719 Q123.019 307.912 125.077 310.36 Q127.16 312.781 130.702 312.781 Q134.243 312.781 136.301 310.36 Q138.384 307.912 138.384 303.719 Q138.384 299.5 136.301 297.078 Q134.243 294.657 130.702 294.657 M141.144 278.172 L141.144 282.964 Q139.165 282.026 137.134 281.532 Q135.129 281.037 133.149 281.037 Q127.941 281.037 125.181 284.552 Q122.446 288.068 122.056 295.177 Q123.592 292.912 125.91 291.714 Q128.228 290.49 131.014 290.49 Q136.873 290.49 140.259 294.058 Q143.67 297.599 143.67 303.719 Q143.67 309.709 140.129 313.328 Q136.587 316.948 130.702 316.948 Q123.957 316.948 120.389 311.792 Q116.821 306.61 116.821 296.792 Q116.821 287.573 121.196 282.105 Q125.571 276.61 132.941 276.61 Q134.92 276.61 136.926 277 Q138.957 277.391 141.144 278.172 Z" fill="#000000" fill-rule="nonzero" fill-opacity="1" /><path clip-path="url(#clip720)" d="M-31.4998 930.013 L-31.4998 924.168 L11.7002 924.168 L11.7002 930.013 L-31.4998 930.013 Z" fill="#000000" fill-rule="nonzero" fill-opacity="1" /><path clip-path="url(#clip720)" d="M-7.85992 885.829 L11.7002 885.829 L11.7002 891.153 L-7.68631 891.153 Q-12.287 891.153 -14.5728 892.947 Q-16.8587 894.741 -16.8587 898.329 Q-16.8587 902.641 -14.1099 905.129 Q-11.3611 907.618 -6.61572 907.618 L11.7002 907.618 L11.7002 912.97 L-20.7071 912.97 L-20.7071 907.618 L-15.6724 907.618 Q-18.5948 905.708 -20.0416 903.133 Q-21.4883 900.528 -21.4883 897.143 Q-21.4883 891.559 -18.0161 888.694 Q-14.5728 885.829 -7.85992 885.829 Z" fill="#000000" fill-rule="nonzero" fill-opacity="1" /><path clip-path="url(#clip720)" d="M-33.3227 858.804 L-28.8957 858.804 L-28.8957 863.897 Q-28.8957 866.761 -27.7383 867.89 Q-26.5809 868.989 -23.5716 868.989 L-20.7071 868.989 L-20.7071 860.222 L-16.5694 860.222 L-16.5694 868.989 L11.7002 868.989 L11.7002 874.342 L-16.5694 874.342 L-16.5694 879.435 L-20.7071 879.435 L-20.7071 874.342 L-22.964 874.342 Q-28.3749 874.342 -30.8343 871.825 Q-33.3227 869.308 -33.3227 863.839 L-33.3227 858.804 Z" fill="#000000" fill-rule="nonzero" fill-opacity="1" /><path clip-path="url(#clip720)" d="M-33.3227 854.348 L-33.3227 849.024 L11.7002 849.024 L11.7002 854.348 L-33.3227 854.348 Z" fill="#000000" fill-rule="nonzero" fill-opacity="1" /><path clip-path="url(#clip720)" d="M-16.9745 825.326 Q-16.9745 829.609 -13.618 832.097 Q-10.2905 834.585 -4.47452 834.585 Q1.34142 834.585 4.69788 832.126 Q8.02541 829.638 8.02541 825.326 Q8.02541 821.073 4.66895 818.584 Q1.31248 816.096 -4.47452 816.096 Q-10.2326 816.096 -13.5891 818.584 Q-16.9745 821.073 -16.9745 825.326 M-21.4883 825.326 Q-21.4883 818.382 -16.9745 814.418 Q-12.4606 810.454 -4.47452 810.454 Q3.48261 810.454 8.02541 814.418 Q12.5393 818.382 12.5393 825.326 Q12.5393 832.3 8.02541 836.264 Q3.48261 840.199 -4.47452 840.199 Q-12.4606 840.199 -16.9745 836.264 Q-21.4883 832.3 -21.4883 825.326 Z" fill="#000000" fill-rule="nonzero" fill-opacity="1" /><path clip-path="url(#clip720)" d="M-20.7071 804.725 L-20.7071 799.4 L4.58214 792.745 L-20.7071 786.119 L-20.7071 779.84 L4.58214 773.185 L-20.7071 766.559 L-20.7071 761.235 L11.7002 769.713 L11.7002 775.992 L-14.8622 782.965 L11.7002 789.968 L11.7002 796.247 L-20.7071 804.725 Z" fill="#000000" fill-rule="nonzero" fill-opacity="1" /><path clip-path="url(#clip720)" d="M-33.3227 734.818 L-33.3227 722.549 L-29.185 722.549 L-29.185 729.493 L15.3749 729.493 L15.3749 722.549 L19.5126 722.549 L19.5126 734.818 L-33.3227 734.818 Z" fill="#000000" fill-rule="nonzero" fill-opacity="1" /><path clip-path="url(#clip720)" d="M-31.4998 710.975 L-31.4998 705.13 L6.7812 705.13 L6.7812 684.094 L11.7002 684.094 L11.7002 710.975 L-31.4998 710.975 Z" fill="#000000" fill-rule="nonzero" fill-opacity="1" /><path clip-path="url(#clip720)" d="M-31.4998 668.73 L-31.4998 663.811 L17.1978 678.857 L17.1978 683.776 L-31.4998 668.73 Z" fill="#000000" fill-rule="nonzero" fill-opacity="1" /><path clip-path="url(#clip720)" d="M-19.7522 637.567 L-14.7175 637.567 Q-15.8749 639.824 -16.4536 642.254 Q-17.0323 644.685 -17.0323 647.289 Q-17.0323 651.253 -15.8171 653.25 Q-14.6018 655.217 -12.1712 655.217 Q-10.3194 655.217 -9.2488 653.799 Q-8.20714 652.382 -7.25229 648.099 L-6.8472 646.276 Q-5.63193 640.605 -3.40393 638.232 Q-1.20487 635.831 2.75923 635.831 Q7.2731 635.831 9.90619 639.419 Q12.5393 642.978 12.5393 649.228 Q12.5393 651.832 12.0184 654.667 Q11.5265 657.474 10.5138 660.599 L5.01617 660.599 Q6.54972 657.648 7.33097 654.783 Q8.08328 651.919 8.08328 649.112 Q8.08328 645.35 6.81014 643.325 Q5.50806 641.299 3.16432 641.299 Q0.994196 641.299 -0.163205 642.775 Q-1.32061 644.222 -2.3912 649.17 L-2.82523 651.022 Q-3.86689 655.97 -6.00808 658.169 Q-8.17821 660.368 -11.9398 660.368 Q-16.5115 660.368 -18.9999 657.127 Q-21.4883 653.886 -21.4883 647.926 Q-21.4883 644.974 -21.0543 642.37 Q-20.6203 639.766 -19.7522 637.567 Z" fill="#000000" fill-rule="nonzero" fill-opacity="1" /><path clip-path="url(#clip720)" d="M-33.3227 614.911 L19.5126 614.911 L19.5126 627.179 L15.3749 627.179 L15.3749 620.264 L-29.185 620.264 L-29.185 627.179 L-33.3227 627.179 L-33.3227 614.911 Z" fill="#000000" fill-rule="nonzero" fill-opacity="1" /><polyline clip-path="url(#clip722)" style="stroke:#023eff; stroke-linecap:round; stroke-linejoin:round; stroke-width:5; stroke-opacity:1; fill:none" points="287.912,1168.7 304.727,1393.9 321.542,1306.66 338.357,1393.9 355.171,1427.17 371.986,1119.54 388.801,930.575 405.616,738.096 422.431,738.096 439.245,738.096 456.06,738.096 472.875,907.187 489.69,962.922 506.504,962.922 523.319,962.922 540.134,1017.08 556.949,1017.08 573.764,930.575 590.578,502.83 607.393,179.656 624.208,179.656 641.023,502.83 657.838,1015.52 674.652,1195.13 691.467,1324.11 708.282,1436.26 725.097,1324.11 741.911,1436.26 758.726,1436.26 775.541,1258.53 792.356,972.884 809.171,684.973 825.985,684.973 842.8,1088.47 859.615,857.252 876.43,943.443 893.244,1057.51 910.059,1057.51 926.874,952.397 943.689,952.397 960.504,949.846 977.318,857.576 994.133,1074.47 1010.95,265.417 1027.76,265.417 1044.58,625.61 1061.39,948.285 1078.21,1258.53 1095.02,1436.26 1111.84,1324.11 1128.65,1324.11 1145.47,1436.26 1162.28,1324.11 1179.1,1232.94 1195.91,963.076 1212.73,684.973 1229.54,684.973 1246.35,857.252 1263.17,857.252 1279.98,949.846 1296.8,949.846 1313.61,949.846 1330.43,949.846 1347.24,949.846 1364.06,949.846 1380.87,857.576 1397.69,641.647 1414.5,265.417 1431.32,265.417 1448.13,625.61 1464.95,948.285 1481.76,1258.53 1498.58,1258.53 1515.39,1436.26 1532.21,1324.11 1549.02,1436.26 1565.84,1436.26 1582.65,1232.94 1599.47,972.884 1616.28,684.973 1633.09,684.973 1649.91,857.252 1666.72,857.252 1683.54,949.846 1700.35,949.846 1717.17,949.846 1733.98,949.846 1750.8,949.846 1767.61,949.846 1784.43,857.576 1801.24,641.647 1818.06,265.417 1834.87,531.13 1851.69,625.61 1868.5,948.285 1885.32,1158.61 1902.13,1232.94 1918.95,1436.26 1935.76,1324.11 1952.58,1436.26 1969.39,1436.26 1986.21,1258.53 2003.02,963.076 2019.83,684.973 2036.65,684.973 2053.46,857.252 2070.28,857.252 2087.09,952.397 2103.91,949.846 2120.72,952.397 2137.54,948.586 2154.35,949.846 2171.17,949.846 2187.98,857.576 2204.8,641.647 2221.61,265.417 2238.43,265.417 2255.24,625.61 2272.06,948.285 2288.87,1158.61 2305.69,1232.94 2322.5,1258.53 2339.32,1232.94 2356.13,1258.53 2372.95,1232.94 2389.76,1232.94 2406.57,1088.47 2423.39,919.487 2440.2,919.487 2457.02,919.487 2473.83,678.769 2490.65,802.928 2507.46,802.928 2524.28,802.928 2541.09,967.975 2557.91,952.397 2574.72,802.928 2591.54,802.928 2608.35,641.647 2625.17,927.231 2641.98,927.231 2658.8,625.61 2675.61,1105.78 2692.43,1158.61 2709.24,1232.94 2726.06,1324.11 2742.87,1258.53 2759.69,1324.11 2776.5,1436.26 2793.31,1232.94 2810.13,1088.47 2826.94,678.769 2843.76,475.47 2860.57,475.47 2877.39,678.769 2894.2,802.928 2911.02,802.928 2927.83,802.928 2944.65,802.928 2961.46,952.397 2978.28,952.397 2995.09,802.928 3011.91,641.647 3028.72,531.13 3045.54,531.13 3062.35,625.61 3079.17,948.285 3095.98,1158.61 "/>
<polyline clip-path="url(#clip722)" style="stroke:#ff7c00; stroke-linecap:round; stroke-linejoin:round; stroke-width:5; stroke-opacity:1; fill:none" points="287.912,1194.07 304.727,1403.33 321.542,1309.92 338.357,1403.33 355.171,1440.65 371.986,1309.92 388.801,907.71 405.616,653.86 422.431,691.88 439.245,783.026 456.06,783.026 472.875,783.026 489.69,1045.95 506.504,1045.95 523.319,1045.95 540.134,1045.95 556.949,1045.95 573.764,783.026 590.578,691.88 607.393,108.212 624.208,108.212 641.023,495.431 657.838,694.968 674.652,1173.37 691.467,1304.2 708.282,1417.53 725.097,1417.53 741.911,1417.53 758.726,1417.53 775.541,1304.2 792.356,920.499 809.171,730.517 825.985,730.517 842.8,934.713 859.615,1085.42 876.43,1085.42 893.244,1085.42 910.059,1085.42 926.874,1085.42 943.689,1037.11 960.504,845.66 977.318,845.66 994.133,660.197 1010.95,282.387 1027.76,282.387 1044.58,589.918 1061.39,1026.78 1078.21,1256.26 1095.02,1370.47 1111.84,1417.53 1128.65,1456.63 1145.47,1417.53 1162.28,1417.53 1179.1,920.499 1195.91,730.517 1212.73,730.517 1229.54,730.517 1246.35,730.517 1263.17,1085.42 1279.98,845.66 1296.8,1037.11 1313.61,845.66 1330.43,1037.11 1347.24,845.66 1364.06,845.66 1380.87,845.66 1397.69,660.197 1414.5,282.387 1431.32,282.387 1448.13,589.918 1464.95,1026.78 1481.76,1256.26 1498.58,1378.28 1515.39,1417.53 1532.21,1456.63 1549.02,1417.53 1565.84,1417.53 1582.65,1114.73 1599.47,1114.73 1616.28,934.713 1633.09,730.517 1649.91,730.517 1666.72,1085.42 1683.54,845.66 1700.35,1037.11 1717.17,845.66 1733.98,845.66 1750.8,845.66 1767.61,845.66 1784.43,845.66 1801.24,606.858 1818.06,282.387 1834.87,606.858 1851.69,589.918 1868.5,1026.78 1885.32,1026.78 1902.13,1378.28 1918.95,1417.53 1935.76,1417.53 1952.58,1417.53 1969.39,1417.53 1986.21,1257.33 2003.02,920.499 2019.83,730.517 2036.65,730.517 2053.46,730.517 2070.28,1085.42 2087.09,1085.42 2103.91,1085.42 2120.72,1085.42 2137.54,1037.11 2154.35,845.66 2171.17,845.66 2187.98,845.66 2204.8,660.197 2221.61,282.387 2238.43,282.387 2255.24,589.918 2272.06,1026.78 2288.87,1026.78 2305.69,920.499 2322.5,1456.63 2339.32,1114.73 2356.13,1456.63 2372.95,1456.63 2389.76,1114.73 2406.57,1114.73 2423.39,934.713 2440.2,934.713 2457.02,934.713 2473.83,1085.42 2490.65,1085.42 2507.46,1085.42 2524.28,1085.42 2541.09,1085.42 2557.91,1085.42 2574.72,845.66 2591.54,845.66 2608.35,606.858 2625.17,1051.33 2641.98,606.858 2658.8,1054.75 2675.61,1254.66 2692.43,1254.66 2709.24,1256.79 2726.06,1456.63 2742.87,1456.63 2759.69,1456.63 2776.5,1417.53 2793.31,1351.87 2810.13,956.379 2826.94,821.847 2843.76,821.847 2860.57,639.025 2877.39,639.025 2894.2,639.025 2911.02,956.379 2927.83,956.379 2944.65,956.379 2961.46,956.379 2978.28,956.379 2995.09,956.379 3011.91,606.858 3028.72,606.858 3045.54,606.858 3062.35,589.918 3079.17,1026.78 3095.98,1026.78 "/>
<polyline clip-path="url(#clip722)" style="stroke:#1ac938; stroke-linecap:round; stroke-linejoin:round; stroke-width:5; stroke-opacity:1; fill:none" points="287.912,1338.03 304.727,1406.82 321.542,1406.82 338.357,1406.82 355.171,1406.82 371.986,1140.45 388.801,901.486 405.616,693.952 422.431,693.952 439.245,693.952 456.06,693.952 472.875,693.952 489.69,901.486 506.504,1027.94 523.319,1027.94 540.134,1027.94 556.949,901.486 573.764,693.952 590.578,579.089 607.393,140.775 624.208,140.775 641.023,579.089 657.838,579.089 674.652,1140.45 691.467,1413.25 708.282,1413.25 725.097,1413.25 741.911,1413.25 758.726,1413.25 775.541,1286.19 792.356,1059.31 809.171,666.952 825.985,666.952 842.8,1037.24 859.615,1037.24 876.43,1059.31 893.244,1059.31 910.059,1059.31 926.874,1059.31 943.689,1059.31 960.504,875.484 977.318,875.484 994.133,666.952 1010.95,139.479 1027.76,139.479 1044.58,139.479 1061.39,500 1078.21,1262.5 1095.02,1413.25 1111.84,1413.25 1128.65,1413.25 1145.47,1413.25 1162.28,1413.25 1179.1,1286.19 1195.91,666.952 1212.73,666.952 1229.54,666.952 1246.35,875.484 1263.17,875.484 1279.98,875.484 1296.8,1059.31 1313.61,875.484 1330.43,1059.31 1347.24,666.952 1364.06,666.952 1380.87,666.952 1397.69,666.952 1414.5,139.479 1431.32,139.479 1448.13,500 1464.95,500 1481.76,1262.5 1498.58,1413.25 1515.39,1413.25 1532.21,1413.25 1549.02,1413.25 1565.84,1413.25 1582.65,1286.19 1599.47,1037.24 1616.28,1037.24 1633.09,666.952 1649.91,875.484 1666.72,875.484 1683.54,875.484 1700.35,1059.31 1717.17,875.484 1733.98,875.484 1750.8,875.484 1767.61,666.952 1784.43,666.952 1801.24,666.952 1818.06,139.479 1834.87,139.479 1851.69,500 1868.5,1055.68 1885.32,1262.5 1902.13,1286.19 1918.95,1413.25 1935.76,1413.25 1952.58,1413.25 1969.39,1413.25 1986.21,1286.19 2003.02,1059.31 2019.83,666.952 2036.65,666.952 2053.46,666.952 2070.28,1059.31 2087.09,1059.31 2103.91,1059.31 2120.72,1059.31 2137.54,1059.31 2154.35,875.484 2171.17,875.484 2187.98,875.484 2204.8,666.952 2221.61,139.479 2238.43,139.479 2255.24,139.479 2272.06,500 2288.87,1262.5 2305.69,1286.19 2322.5,1286.19 2339.32,1286.19 2356.13,1286.19 2372.95,1286.19 2389.76,1286.19 2406.57,909.923 2423.39,909.923 2440.2,909.923 2457.02,909.923 2473.83,909.923 2490.65,666.952 2507.46,909.923 2524.28,909.923 2541.09,1059.31 2557.91,1059.31 2574.72,875.484 2591.54,666.952 2608.35,666.952 2625.17,563.709 2641.98,139.479 2658.8,1024.19 2675.61,1055.68 2692.43,1262.5 2709.24,1286.19 2726.06,1413.25 2742.87,1413.25 2759.69,1413.25 2776.5,1413.25 2793.31,1286.19 2810.13,909.923 2826.94,909.923 2843.76,909.923 2860.57,666.952 2877.39,666.952 2894.2,666.952 2911.02,875.484 2927.83,875.484 2944.65,875.484 2961.46,1059.31 2978.28,962.107 2995.09,875.484 3011.91,666.952 3028.72,139.479 3045.54,139.479 3062.35,139.479 3079.17,500 3095.98,1262.5 "/>
<polyline clip-path="url(#clip722)" style="stroke:#e8000b; stroke-linecap:round; stroke-linejoin:round; stroke-width:5; stroke-opacity:1; fill:none" points="287.912,1323.2 304.727,1323.2 321.542,1323.2 338.357,1323.2 355.171,1323.2 371.986,1323.2 388.801,736.252 405.616,528.439 422.431,528.439 439.245,736.252 456.06,736.252 472.875,736.252 489.69,954.232 506.504,954.232 523.319,954.232 540.134,954.232 556.949,736.252 573.764,736.252 590.578,528.439 607.393,88.2942 624.208,88.2942 641.023,528.439 657.838,736.252 674.652,954.232 691.467,1327.4 708.282,1327.4 725.097,1327.4 741.911,1327.4 758.726,1327.4 775.541,1327.4 792.356,963.238 809.171,683.14 825.985,683.14 842.8,683.14 859.615,683.14 876.43,963.238 893.244,963.238 910.059,963.238 926.874,963.238 943.689,963.238 960.504,683.14 977.318,683.14 994.133,683.14 1010.95,88.2942 1027.76,88.2942 1044.58,594.439 1061.39,594.439 1078.21,1327.4 1095.02,1327.4 1111.84,1327.4 1128.65,1327.4 1145.47,1327.4 1162.28,1327.4 1179.1,1327.4 1195.91,683.14 1212.73,683.14 1229.54,683.14 1246.35,683.14 1263.17,683.14 1279.98,683.14 1296.8,963.238 1313.61,963.238 1330.43,963.238 1347.24,683.14 1364.06,683.14 1380.87,683.14 1397.69,683.14 1414.5,88.2942 1431.32,88.2942 1448.13,594.439 1464.95,594.439 1481.76,1327.4 1498.58,1327.4 1515.39,1327.4 1532.21,1327.4 1549.02,1327.4 1565.84,1327.4 1582.65,963.238 1599.47,683.14 1616.28,683.14 1633.09,683.14 1649.91,683.14 1666.72,683.14 1683.54,683.14 1700.35,963.238 1717.17,683.14 1733.98,683.14 1750.8,683.14 1767.61,683.14 1784.43,683.14 1801.24,683.14 1818.06,88.2942 1834.87,88.2942 1851.69,594.439 1868.5,963.238 1885.32,1327.4 1902.13,1327.4 1918.95,1327.4 1935.76,1327.4 1952.58,1327.4 1969.39,1327.4 1986.21,1327.4 2003.02,963.238 2019.83,683.14 2036.65,683.14 2053.46,683.14 2070.28,963.238 2087.09,963.238 2103.91,963.238 2120.72,963.238 2137.54,963.238 2154.35,683.14 2171.17,683.14 2187.98,683.14 2204.8,683.14 2221.61,88.2942 2238.43,88.2942 2255.24,594.439 2272.06,594.439 2288.87,963.238 2305.69,963.238 2322.5,1327.4 2339.32,1327.4 2356.13,1327.4 2372.95,1327.4 2389.76,963.238 2406.57,683.14 2423.39,683.14 2440.2,683.14 2457.02,683.14 2473.83,683.14 2490.65,683.14 2507.46,683.14 2524.28,683.14 2541.09,963.238 2557.91,963.238 2574.72,683.14 2591.54,683.14 2608.35,683.14 2625.17,88.2942 2641.98,88.2942 2658.8,594.439 2675.61,963.238 2692.43,963.238 2709.24,1327.4 2726.06,1327.4 2742.87,1327.4 2759.69,1327.4 2776.5,1327.4 2793.31,1327.4 2810.13,683.14 2826.94,683.14 2843.76,683.14 2860.57,683.14 2877.39,683.14 2894.2,683.14 2911.02,683.14 2927.83,683.14 2944.65,683.14 2961.46,963.238 2978.28,963.238 2995.09,683.14 3011.91,683.14 3028.72,88.2942 3045.54,88.2942 3062.35,594.439 3079.17,594.439 3095.98,963.238 "/>
<path clip-path="url(#clip720)" d="M3305.19 445.512 L3952.76 445.512 L3952.76 95.592 L3305.19 95.592  Z" fill="#ffffff" fill-rule="evenodd" fill-opacity="1"/>
<polyline clip-path="url(#clip720)" style="stroke:#000000; stroke-linecap:round; stroke-linejoin:round; stroke-width:4; stroke-opacity:1; fill:none" points="3305.19,445.512 3952.76,445.512 3952.76,95.592 3305.19,95.592 3305.19,445.512 "/>
<polyline clip-path="url(#clip720)" style="stroke:#023eff; stroke-linecap:round; stroke-linejoin:round; stroke-width:5.625; stroke-opacity:1; fill:none" points="3346.85,153.912 3596.79,153.912 "/>
<path clip-path="url(#clip720)" d="M3643.26 168.977 L3643.26 184.446 L3638.44 184.446 L3638.44 144.185 L3643.26 144.185 L3643.26 148.613 Q3644.77 146.008 3647.06 144.758 Q3649.38 143.482 3652.59 143.482 Q3657.9 143.482 3661.2 147.701 Q3664.54 151.92 3664.54 158.795 Q3664.54 165.67 3661.2 169.888 Q3657.9 174.107 3652.59 174.107 Q3649.38 174.107 3647.06 172.857 Q3644.77 171.581 3643.26 168.977 M3659.56 158.795 Q3659.56 153.508 3657.38 150.514 Q3655.22 147.493 3651.41 147.493 Q3647.61 147.493 3645.42 150.514 Q3643.26 153.508 3643.26 158.795 Q3643.26 164.081 3645.42 167.102 Q3647.61 170.097 3651.41 170.097 Q3655.22 170.097 3657.38 167.102 Q3659.56 164.081 3659.56 158.795 Z" fill="#000000" fill-rule="nonzero" fill-opacity="1" /><path clip-path="url(#clip720)" d="M3689.38 148.665 Q3688.57 148.196 3687.61 147.988 Q3686.67 147.753 3685.53 147.753 Q3681.47 147.753 3679.28 150.409 Q3677.12 153.04 3677.12 157.987 L3677.12 173.352 L3672.3 173.352 L3672.3 144.185 L3677.12 144.185 L3677.12 148.717 Q3678.63 146.06 3681.05 144.784 Q3683.47 143.482 3686.93 143.482 Q3687.43 143.482 3688.03 143.56 Q3688.63 143.613 3689.36 143.743 L3689.38 148.665 Z" fill="#000000" fill-rule="nonzero" fill-opacity="1" /><path clip-path="url(#clip720)" d="M3718.18 157.571 L3718.18 159.915 L3696.15 159.915 Q3696.47 164.862 3699.12 167.467 Q3701.8 170.045 3706.57 170.045 Q3709.33 170.045 3711.91 169.368 Q3714.51 168.691 3717.06 167.336 L3717.06 171.868 Q3714.49 172.961 3711.78 173.534 Q3709.07 174.107 3706.28 174.107 Q3699.3 174.107 3695.22 170.045 Q3691.15 165.982 3691.15 159.055 Q3691.15 151.894 3695.01 147.701 Q3698.89 143.482 3705.45 143.482 Q3711.33 143.482 3714.75 147.284 Q3718.18 151.06 3718.18 157.571 M3713.39 156.165 Q3713.34 152.232 3711.18 149.889 Q3709.04 147.545 3705.5 147.545 Q3701.49 147.545 3699.07 149.81 Q3696.67 152.076 3696.31 156.191 L3713.39 156.165 Z" fill="#000000" fill-rule="nonzero" fill-opacity="1" /><path clip-path="url(#clip720)" d="M3745.24 148.613 L3745.24 132.831 L3750.03 132.831 L3750.03 173.352 L3745.24 173.352 L3745.24 168.977 Q3743.73 171.581 3741.41 172.857 Q3739.12 174.107 3735.89 174.107 Q3730.61 174.107 3727.27 169.888 Q3723.96 165.67 3723.96 158.795 Q3723.96 151.92 3727.27 147.701 Q3730.61 143.482 3735.89 143.482 Q3739.12 143.482 3741.41 144.758 Q3743.73 146.008 3745.24 148.613 M3728.91 158.795 Q3728.91 164.081 3731.07 167.102 Q3733.26 170.097 3737.06 170.097 Q3740.87 170.097 3743.05 167.102 Q3745.24 164.081 3745.24 158.795 Q3745.24 153.508 3743.05 150.514 Q3740.87 147.493 3737.06 147.493 Q3733.26 147.493 3731.07 150.514 Q3728.91 153.508 3728.91 158.795 Z" fill="#000000" fill-rule="nonzero" fill-opacity="1" /><path clip-path="url(#clip720)" d="M3759.9 144.185 L3764.69 144.185 L3764.69 173.352 L3759.9 173.352 L3759.9 144.185 M3759.9 132.831 L3764.69 132.831 L3764.69 138.899 L3759.9 138.899 L3759.9 132.831 Z" fill="#000000" fill-rule="nonzero" fill-opacity="1" /><path clip-path="url(#clip720)" d="M3795.71 145.305 L3795.71 149.784 Q3793.68 148.665 3791.62 148.118 Q3789.59 147.545 3787.51 147.545 Q3782.84 147.545 3780.27 150.514 Q3777.69 153.456 3777.69 158.795 Q3777.69 164.133 3780.27 167.102 Q3782.84 170.045 3787.51 170.045 Q3789.59 170.045 3791.62 169.498 Q3793.68 168.925 3795.71 167.805 L3795.71 172.232 Q3793.7 173.17 3791.54 173.638 Q3789.41 174.107 3786.99 174.107 Q3780.4 174.107 3776.52 169.967 Q3772.64 165.826 3772.64 158.795 Q3772.64 151.659 3776.54 147.571 Q3780.48 143.482 3787.3 143.482 Q3789.51 143.482 3791.62 143.951 Q3793.73 144.394 3795.71 145.305 Z" fill="#000000" fill-rule="nonzero" fill-opacity="1" /><path clip-path="url(#clip720)" d="M3808.78 135.904 L3808.78 144.185 L3818.65 144.185 L3818.65 147.909 L3808.78 147.909 L3808.78 163.743 Q3808.78 167.31 3809.75 168.326 Q3810.74 169.342 3813.73 169.342 L3818.65 169.342 L3818.65 173.352 L3813.73 173.352 Q3808.18 173.352 3806.07 171.295 Q3803.96 169.211 3803.96 163.743 L3803.96 147.909 L3800.45 147.909 L3800.45 144.185 L3803.96 144.185 L3803.96 135.904 L3808.78 135.904 Z" fill="#000000" fill-rule="nonzero" fill-opacity="1" /><path clip-path="url(#clip720)" d="M3847.12 182.206 L3847.12 185.93 L3819.41 185.93 L3819.41 182.206 L3847.12 182.206 Z" fill="#000000" fill-rule="nonzero" fill-opacity="1" /><path clip-path="url(#clip720)" d="M3852.35 134.472 L3873 134.472 L3873 138.899 L3857.17 138.899 L3857.17 148.43 Q3858.31 148.04 3859.46 147.857 Q3860.6 147.649 3861.75 147.649 Q3868.26 147.649 3872.06 151.217 Q3875.87 154.784 3875.87 160.878 Q3875.87 167.154 3871.96 170.644 Q3868.05 174.107 3860.94 174.107 Q3858.5 174.107 3855.94 173.69 Q3853.42 173.274 3850.71 172.441 L3850.71 167.154 Q3853.05 168.43 3855.55 169.055 Q3858.05 169.68 3860.84 169.68 Q3865.34 169.68 3867.97 167.31 Q3870.6 164.941 3870.6 160.878 Q3870.6 156.816 3867.97 154.446 Q3865.34 152.076 3860.84 152.076 Q3858.73 152.076 3856.62 152.545 Q3854.54 153.014 3852.35 154.003 L3852.35 134.472 Z" fill="#000000" fill-rule="nonzero" fill-opacity="1" /><path clip-path="url(#clip720)" d="M3890.76 168.925 L3909.12 168.925 L3909.12 173.352 L3884.43 173.352 L3884.43 168.925 Q3887.43 165.826 3892.58 160.618 Q3897.77 155.383 3899.09 153.873 Q3901.62 151.034 3902.61 149.081 Q3903.63 147.102 3903.63 145.201 Q3903.63 142.102 3901.44 140.149 Q3899.28 138.196 3895.79 138.196 Q3893.31 138.196 3890.55 139.055 Q3887.82 139.915 3884.69 141.659 L3884.69 136.347 Q3887.87 135.071 3890.63 134.42 Q3893.39 133.769 3895.68 133.769 Q3901.72 133.769 3905.32 136.79 Q3908.91 139.81 3908.91 144.863 Q3908.91 147.258 3908 149.42 Q3907.12 151.555 3904.75 154.472 Q3904.09 155.227 3900.6 158.847 Q3897.12 162.441 3890.76 168.925 Z" fill="#000000" fill-rule="nonzero" fill-opacity="1" /><polyline clip-path="url(#clip720)" style="stroke:#ff7c00; stroke-linecap:round; stroke-linejoin:round; stroke-width:5.625; stroke-opacity:1; fill:none" points="3346.85,212.232 3596.79,212.232 "/>
<path clip-path="url(#clip720)" d="M3643.26 227.297 L3643.26 242.766 L3638.44 242.766 L3638.44 202.505 L3643.26 202.505 L3643.26 206.933 Q3644.77 204.328 3647.06 203.078 Q3649.38 201.802 3652.59 201.802 Q3657.9 201.802 3661.2 206.021 Q3664.54 210.24 3664.54 217.115 Q3664.54 223.99 3661.2 228.208 Q3657.9 232.427 3652.59 232.427 Q3649.38 232.427 3647.06 231.177 Q3644.77 229.901 3643.26 227.297 M3659.56 217.115 Q3659.56 211.828 3657.38 208.834 Q3655.22 205.813 3651.41 205.813 Q3647.61 205.813 3645.42 208.834 Q3643.26 211.828 3643.26 217.115 Q3643.26 222.401 3645.42 225.422 Q3647.61 228.417 3651.41 228.417 Q3655.22 228.417 3657.38 225.422 Q3659.56 222.401 3659.56 217.115 Z" fill="#000000" fill-rule="nonzero" fill-opacity="1" /><path clip-path="url(#clip720)" d="M3689.38 206.985 Q3688.57 206.516 3687.61 206.308 Q3686.67 206.073 3685.53 206.073 Q3681.47 206.073 3679.28 208.729 Q3677.12 211.36 3677.12 216.307 L3677.12 231.672 L3672.3 231.672 L3672.3 202.505 L3677.12 202.505 L3677.12 207.037 Q3678.63 204.38 3681.05 203.104 Q3683.47 201.802 3686.93 201.802 Q3687.43 201.802 3688.03 201.88 Q3688.63 201.933 3689.36 202.063 L3689.38 206.985 Z" fill="#000000" fill-rule="nonzero" fill-opacity="1" /><path clip-path="url(#clip720)" d="M3718.18 215.891 L3718.18 218.235 L3696.15 218.235 Q3696.47 223.182 3699.12 225.787 Q3701.8 228.365 3706.57 228.365 Q3709.33 228.365 3711.91 227.688 Q3714.51 227.011 3717.06 225.656 L3717.06 230.188 Q3714.49 231.281 3711.78 231.854 Q3709.07 232.427 3706.28 232.427 Q3699.3 232.427 3695.22 228.365 Q3691.15 224.302 3691.15 217.375 Q3691.15 210.214 3695.01 206.021 Q3698.89 201.802 3705.45 201.802 Q3711.33 201.802 3714.75 205.604 Q3718.18 209.38 3718.18 215.891 M3713.39 214.485 Q3713.34 210.552 3711.18 208.209 Q3709.04 205.865 3705.5 205.865 Q3701.49 205.865 3699.07 208.13 Q3696.67 210.396 3696.31 214.511 L3713.39 214.485 Z" fill="#000000" fill-rule="nonzero" fill-opacity="1" /><path clip-path="url(#clip720)" d="M3745.24 206.933 L3745.24 191.151 L3750.03 191.151 L3750.03 231.672 L3745.24 231.672 L3745.24 227.297 Q3743.73 229.901 3741.41 231.177 Q3739.12 232.427 3735.89 232.427 Q3730.61 232.427 3727.27 228.208 Q3723.96 223.99 3723.96 217.115 Q3723.96 210.24 3727.27 206.021 Q3730.61 201.802 3735.89 201.802 Q3739.12 201.802 3741.41 203.078 Q3743.73 204.328 3745.24 206.933 M3728.91 217.115 Q3728.91 222.401 3731.07 225.422 Q3733.26 228.417 3737.06 228.417 Q3740.87 228.417 3743.05 225.422 Q3745.24 222.401 3745.24 217.115 Q3745.24 211.828 3743.05 208.834 Q3740.87 205.813 3737.06 205.813 Q3733.26 205.813 3731.07 208.834 Q3728.91 211.828 3728.91 217.115 Z" fill="#000000" fill-rule="nonzero" fill-opacity="1" /><path clip-path="url(#clip720)" d="M3759.9 202.505 L3764.69 202.505 L3764.69 231.672 L3759.9 231.672 L3759.9 202.505 M3759.9 191.151 L3764.69 191.151 L3764.69 197.219 L3759.9 197.219 L3759.9 191.151 Z" fill="#000000" fill-rule="nonzero" fill-opacity="1" /><path clip-path="url(#clip720)" d="M3795.71 203.625 L3795.71 208.104 Q3793.68 206.985 3791.62 206.438 Q3789.59 205.865 3787.51 205.865 Q3782.84 205.865 3780.27 208.834 Q3777.69 211.776 3777.69 217.115 Q3777.69 222.453 3780.27 225.422 Q3782.84 228.365 3787.51 228.365 Q3789.59 228.365 3791.62 227.818 Q3793.68 227.245 3795.71 226.125 L3795.71 230.552 Q3793.7 231.49 3791.54 231.958 Q3789.41 232.427 3786.99 232.427 Q3780.4 232.427 3776.52 228.287 Q3772.64 224.146 3772.64 217.115 Q3772.64 209.979 3776.54 205.891 Q3780.48 201.802 3787.3 201.802 Q3789.51 201.802 3791.62 202.271 Q3793.73 202.714 3795.71 203.625 Z" fill="#000000" fill-rule="nonzero" fill-opacity="1" /><path clip-path="url(#clip720)" d="M3808.78 194.224 L3808.78 202.505 L3818.65 202.505 L3818.65 206.229 L3808.78 206.229 L3808.78 222.063 Q3808.78 225.63 3809.75 226.646 Q3810.74 227.662 3813.73 227.662 L3818.65 227.662 L3818.65 231.672 L3813.73 231.672 Q3808.18 231.672 3806.07 229.615 Q3803.96 227.531 3803.96 222.063 L3803.96 206.229 L3800.45 206.229 L3800.45 202.505 L3803.96 202.505 L3803.96 194.224 L3808.78 194.224 Z" fill="#000000" fill-rule="nonzero" fill-opacity="1" /><path clip-path="url(#clip720)" d="M3847.12 240.526 L3847.12 244.25 L3819.41 244.25 L3819.41 240.526 L3847.12 240.526 Z" fill="#000000" fill-rule="nonzero" fill-opacity="1" /><path clip-path="url(#clip720)" d="M3856.83 227.245 L3875.19 227.245 L3875.19 231.672 L3850.5 231.672 L3850.5 227.245 Q3853.5 224.146 3858.65 218.938 Q3863.83 213.703 3865.16 212.193 Q3867.69 209.354 3868.68 207.401 Q3869.69 205.422 3869.69 203.521 Q3869.69 200.422 3867.51 198.469 Q3865.34 196.516 3861.85 196.516 Q3859.38 196.516 3856.62 197.375 Q3853.89 198.235 3850.76 199.979 L3850.76 194.667 Q3853.94 193.391 3856.7 192.74 Q3859.46 192.089 3861.75 192.089 Q3867.79 192.089 3871.39 195.11 Q3874.98 198.13 3874.98 203.183 Q3874.98 205.578 3874.07 207.74 Q3873.18 209.875 3870.81 212.792 Q3870.16 213.547 3866.67 217.167 Q3863.18 220.761 3856.83 227.245 Z" fill="#000000" fill-rule="nonzero" fill-opacity="1" /><path clip-path="url(#clip720)" d="M3898.13 210.136 Q3894.59 210.136 3892.51 212.557 Q3890.45 214.979 3890.45 219.198 Q3890.45 223.391 3892.51 225.839 Q3894.59 228.261 3898.13 228.261 Q3901.67 228.261 3903.73 225.839 Q3905.81 223.391 3905.81 219.198 Q3905.81 214.979 3903.73 212.557 Q3901.67 210.136 3898.13 210.136 M3908.57 193.651 L3908.57 198.443 Q3906.59 197.505 3904.56 197.011 Q3902.56 196.516 3900.58 196.516 Q3895.37 196.516 3892.61 200.031 Q3889.88 203.547 3889.48 210.656 Q3891.02 208.391 3893.34 207.193 Q3895.66 205.969 3898.44 205.969 Q3904.3 205.969 3907.69 209.537 Q3911.1 213.078 3911.1 219.198 Q3911.1 225.188 3907.56 228.807 Q3904.02 232.427 3898.13 232.427 Q3891.39 232.427 3887.82 227.271 Q3884.25 222.089 3884.25 212.271 Q3884.25 203.052 3888.63 197.584 Q3893 192.089 3900.37 192.089 Q3902.35 192.089 3904.35 192.479 Q3906.39 192.87 3908.57 193.651 Z" fill="#000000" fill-rule="nonzero" fill-opacity="1" /><polyline clip-path="url(#clip720)" style="stroke:#1ac938; stroke-linecap:round; stroke-linejoin:round; stroke-width:5.625; stroke-opacity:1; fill:none" points="3346.85,270.552 3596.79,270.552 "/>
<path clip-path="url(#clip720)" d="M3643.26 285.617 L3643.26 301.086 L3638.44 301.086 L3638.44 260.825 L3643.26 260.825 L3643.26 265.253 Q3644.77 262.648 3647.06 261.398 Q3649.38 260.122 3652.59 260.122 Q3657.9 260.122 3661.2 264.341 Q3664.54 268.56 3664.54 275.435 Q3664.54 282.31 3661.2 286.528 Q3657.9 290.747 3652.59 290.747 Q3649.38 290.747 3647.06 289.497 Q3644.77 288.221 3643.26 285.617 M3659.56 275.435 Q3659.56 270.148 3657.38 267.154 Q3655.22 264.133 3651.41 264.133 Q3647.61 264.133 3645.42 267.154 Q3643.26 270.148 3643.26 275.435 Q3643.26 280.721 3645.42 283.742 Q3647.61 286.737 3651.41 286.737 Q3655.22 286.737 3657.38 283.742 Q3659.56 280.721 3659.56 275.435 Z" fill="#000000" fill-rule="nonzero" fill-opacity="1" /><path clip-path="url(#clip720)" d="M3689.38 265.305 Q3688.57 264.836 3687.61 264.628 Q3686.67 264.393 3685.53 264.393 Q3681.47 264.393 3679.28 267.049 Q3677.12 269.68 3677.12 274.627 L3677.12 289.992 L3672.3 289.992 L3672.3 260.825 L3677.12 260.825 L3677.12 265.357 Q3678.63 262.7 3681.05 261.424 Q3683.47 260.122 3686.93 260.122 Q3687.43 260.122 3688.03 260.2 Q3688.63 260.253 3689.36 260.383 L3689.38 265.305 Z" fill="#000000" fill-rule="nonzero" fill-opacity="1" /><path clip-path="url(#clip720)" d="M3718.18 274.211 L3718.18 276.555 L3696.15 276.555 Q3696.47 281.502 3699.12 284.107 Q3701.8 286.685 3706.57 286.685 Q3709.33 286.685 3711.91 286.008 Q3714.51 285.331 3717.06 283.976 L3717.06 288.508 Q3714.49 289.601 3711.78 290.174 Q3709.07 290.747 3706.28 290.747 Q3699.3 290.747 3695.22 286.685 Q3691.15 282.622 3691.15 275.695 Q3691.15 268.534 3695.01 264.341 Q3698.89 260.122 3705.45 260.122 Q3711.33 260.122 3714.75 263.924 Q3718.18 267.7 3718.18 274.211 M3713.39 272.805 Q3713.34 268.872 3711.18 266.529 Q3709.04 264.185 3705.5 264.185 Q3701.49 264.185 3699.07 266.45 Q3696.67 268.716 3696.31 272.831 L3713.39 272.805 Z" fill="#000000" fill-rule="nonzero" fill-opacity="1" /><path clip-path="url(#clip720)" d="M3745.24 265.253 L3745.24 249.471 L3750.03 249.471 L3750.03 289.992 L3745.24 289.992 L3745.24 285.617 Q3743.73 288.221 3741.41 289.497 Q3739.12 290.747 3735.89 290.747 Q3730.61 290.747 3727.27 286.528 Q3723.96 282.31 3723.96 275.435 Q3723.96 268.56 3727.27 264.341 Q3730.61 260.122 3735.89 260.122 Q3739.12 260.122 3741.41 261.398 Q3743.73 262.648 3745.24 265.253 M3728.91 275.435 Q3728.91 280.721 3731.07 283.742 Q3733.26 286.737 3737.06 286.737 Q3740.87 286.737 3743.05 283.742 Q3745.24 280.721 3745.24 275.435 Q3745.24 270.148 3743.05 267.154 Q3740.87 264.133 3737.06 264.133 Q3733.26 264.133 3731.07 267.154 Q3728.91 270.148 3728.91 275.435 Z" fill="#000000" fill-rule="nonzero" fill-opacity="1" /><path clip-path="url(#clip720)" d="M3759.9 260.825 L3764.69 260.825 L3764.69 289.992 L3759.9 289.992 L3759.9 260.825 M3759.9 249.471 L3764.69 249.471 L3764.69 255.539 L3759.9 255.539 L3759.9 249.471 Z" fill="#000000" fill-rule="nonzero" fill-opacity="1" /><path clip-path="url(#clip720)" d="M3795.71 261.945 L3795.71 266.424 Q3793.68 265.305 3791.62 264.758 Q3789.59 264.185 3787.51 264.185 Q3782.84 264.185 3780.27 267.154 Q3777.69 270.096 3777.69 275.435 Q3777.69 280.773 3780.27 283.742 Q3782.84 286.685 3787.51 286.685 Q3789.59 286.685 3791.62 286.138 Q3793.68 285.565 3795.71 284.445 L3795.71 288.872 Q3793.7 289.81 3791.54 290.278 Q3789.41 290.747 3786.99 290.747 Q3780.4 290.747 3776.52 286.607 Q3772.64 282.466 3772.64 275.435 Q3772.64 268.299 3776.54 264.211 Q3780.48 260.122 3787.3 260.122 Q3789.51 260.122 3791.62 260.591 Q3793.73 261.034 3795.71 261.945 Z" fill="#000000" fill-rule="nonzero" fill-opacity="1" /><path clip-path="url(#clip720)" d="M3808.78 252.544 L3808.78 260.825 L3818.65 260.825 L3818.65 264.549 L3808.78 264.549 L3808.78 280.383 Q3808.78 283.95 3809.75 284.966 Q3810.74 285.982 3813.73 285.982 L3818.65 285.982 L3818.65 289.992 L3813.73 289.992 Q3808.18 289.992 3806.07 287.935 Q3803.96 285.851 3803.96 280.383 L3803.96 264.549 L3800.45 264.549 L3800.45 260.825 L3803.96 260.825 L3803.96 252.544 L3808.78 252.544 Z" fill="#000000" fill-rule="nonzero" fill-opacity="1" /><path clip-path="url(#clip720)" d="M3847.12 298.846 L3847.12 302.57 L3819.41 302.57 L3819.41 298.846 L3847.12 298.846 Z" fill="#000000" fill-rule="nonzero" fill-opacity="1" /><path clip-path="url(#clip720)" d="M3866.75 255.695 L3853.47 276.45 L3866.75 276.45 L3866.75 255.695 M3865.37 251.112 L3871.99 251.112 L3871.99 276.45 L3877.53 276.45 L3877.53 280.825 L3871.99 280.825 L3871.99 289.992 L3866.75 289.992 L3866.75 280.825 L3849.2 280.825 L3849.2 275.747 L3865.37 251.112 Z" fill="#000000" fill-rule="nonzero" fill-opacity="1" /><polyline clip-path="url(#clip720)" style="stroke:#e8000b; stroke-linecap:round; stroke-linejoin:round; stroke-width:5.625; stroke-opacity:1; fill:none" points="3346.85,328.872 3596.79,328.872 "/>
<path clip-path="url(#clip720)" d="M3643.26 343.937 L3643.26 359.406 L3638.44 359.406 L3638.44 319.145 L3643.26 319.145 L3643.26 323.573 Q3644.77 320.968 3647.06 319.718 Q3649.38 318.442 3652.59 318.442 Q3657.9 318.442 3661.2 322.661 Q3664.54 326.88 3664.54 333.755 Q3664.54 340.63 3661.2 344.848 Q3657.9 349.067 3652.59 349.067 Q3649.38 349.067 3647.06 347.817 Q3644.77 346.541 3643.26 343.937 M3659.56 333.755 Q3659.56 328.468 3657.38 325.474 Q3655.22 322.453 3651.41 322.453 Q3647.61 322.453 3645.42 325.474 Q3643.26 328.468 3643.26 333.755 Q3643.26 339.041 3645.42 342.062 Q3647.61 345.057 3651.41 345.057 Q3655.22 345.057 3657.38 342.062 Q3659.56 339.041 3659.56 333.755 Z" fill="#000000" fill-rule="nonzero" fill-opacity="1" /><path clip-path="url(#clip720)" d="M3689.38 323.625 Q3688.57 323.156 3687.61 322.948 Q3686.67 322.713 3685.53 322.713 Q3681.47 322.713 3679.28 325.369 Q3677.12 328 3677.12 332.947 L3677.12 348.312 L3672.3 348.312 L3672.3 319.145 L3677.12 319.145 L3677.12 323.677 Q3678.63 321.02 3681.05 319.744 Q3683.47 318.442 3686.93 318.442 Q3687.43 318.442 3688.03 318.52 Q3688.63 318.573 3689.36 318.703 L3689.38 323.625 Z" fill="#000000" fill-rule="nonzero" fill-opacity="1" /><path clip-path="url(#clip720)" d="M3718.18 332.531 L3718.18 334.875 L3696.15 334.875 Q3696.47 339.822 3699.12 342.427 Q3701.8 345.005 3706.57 345.005 Q3709.33 345.005 3711.91 344.328 Q3714.51 343.651 3717.06 342.296 L3717.06 346.828 Q3714.49 347.921 3711.78 348.494 Q3709.07 349.067 3706.28 349.067 Q3699.3 349.067 3695.22 345.005 Q3691.15 340.942 3691.15 334.015 Q3691.15 326.854 3695.01 322.661 Q3698.89 318.442 3705.45 318.442 Q3711.33 318.442 3714.75 322.244 Q3718.18 326.02 3718.18 332.531 M3713.39 331.125 Q3713.34 327.192 3711.18 324.849 Q3709.04 322.505 3705.5 322.505 Q3701.49 322.505 3699.07 324.77 Q3696.67 327.036 3696.31 331.151 L3713.39 331.125 Z" fill="#000000" fill-rule="nonzero" fill-opacity="1" /><path clip-path="url(#clip720)" d="M3745.24 323.573 L3745.24 307.791 L3750.03 307.791 L3750.03 348.312 L3745.24 348.312 L3745.24 343.937 Q3743.73 346.541 3741.41 347.817 Q3739.12 349.067 3735.89 349.067 Q3730.61 349.067 3727.27 344.848 Q3723.96 340.63 3723.96 333.755 Q3723.96 326.88 3727.27 322.661 Q3730.61 318.442 3735.89 318.442 Q3739.12 318.442 3741.41 319.718 Q3743.73 320.968 3745.24 323.573 M3728.91 333.755 Q3728.91 339.041 3731.07 342.062 Q3733.26 345.057 3737.06 345.057 Q3740.87 345.057 3743.05 342.062 Q3745.24 339.041 3745.24 333.755 Q3745.24 328.468 3743.05 325.474 Q3740.87 322.453 3737.06 322.453 Q3733.26 322.453 3731.07 325.474 Q3728.91 328.468 3728.91 333.755 Z" fill="#000000" fill-rule="nonzero" fill-opacity="1" /><path clip-path="url(#clip720)" d="M3759.9 319.145 L3764.69 319.145 L3764.69 348.312 L3759.9 348.312 L3759.9 319.145 M3759.9 307.791 L3764.69 307.791 L3764.69 313.859 L3759.9 313.859 L3759.9 307.791 Z" fill="#000000" fill-rule="nonzero" fill-opacity="1" /><path clip-path="url(#clip720)" d="M3795.71 320.265 L3795.71 324.744 Q3793.68 323.625 3791.62 323.078 Q3789.59 322.505 3787.51 322.505 Q3782.84 322.505 3780.27 325.474 Q3777.69 328.416 3777.69 333.755 Q3777.69 339.093 3780.27 342.062 Q3782.84 345.005 3787.51 345.005 Q3789.59 345.005 3791.62 344.458 Q3793.68 343.885 3795.71 342.765 L3795.71 347.192 Q3793.7 348.13 3791.54 348.598 Q3789.41 349.067 3786.99 349.067 Q3780.4 349.067 3776.52 344.927 Q3772.64 340.786 3772.64 333.755 Q3772.64 326.619 3776.54 322.531 Q3780.48 318.442 3787.3 318.442 Q3789.51 318.442 3791.62 318.911 Q3793.73 319.354 3795.71 320.265 Z" fill="#000000" fill-rule="nonzero" fill-opacity="1" /><path clip-path="url(#clip720)" d="M3808.78 310.864 L3808.78 319.145 L3818.65 319.145 L3818.65 322.869 L3808.78 322.869 L3808.78 338.703 Q3808.78 342.27 3809.75 343.286 Q3810.74 344.302 3813.73 344.302 L3818.65 344.302 L3818.65 348.312 L3813.73 348.312 Q3808.18 348.312 3806.07 346.255 Q3803.96 344.171 3803.96 338.703 L3803.96 322.869 L3800.45 322.869 L3800.45 319.145 L3803.96 319.145 L3803.96 310.864 L3808.78 310.864 Z" fill="#000000" fill-rule="nonzero" fill-opacity="1" /><path clip-path="url(#clip720)" d="M3847.12 357.166 L3847.12 360.89 L3819.41 360.89 L3819.41 357.166 L3847.12 357.166 Z" fill="#000000" fill-rule="nonzero" fill-opacity="1" /><path clip-path="url(#clip720)" d="M3853.21 343.885 L3861.8 343.885 L3861.8 314.224 L3852.45 316.099 L3852.45 311.307 L3861.75 309.432 L3867.01 309.432 L3867.01 343.885 L3875.6 343.885 L3875.6 348.312 L3853.21 348.312 L3853.21 343.885 Z" fill="#000000" fill-rule="nonzero" fill-opacity="1" /><polyline clip-path="url(#clip720)" style="stroke:#000000; stroke-linecap:round; stroke-linejoin:round; stroke-width:6.75; stroke-opacity:1; fill:none" points="3346.85,387.192 3596.79,387.192 "/>
<path clip-path="url(#clip720)" d="M3653.52 391.971 Q3647.72 391.971 3645.48 393.299 Q3643.24 394.627 3643.24 397.83 Q3643.24 400.382 3644.9 401.892 Q3646.6 403.377 3649.49 403.377 Q3653.47 403.377 3655.87 400.564 Q3658.29 397.726 3658.29 393.038 L3658.29 391.971 L3653.52 391.971 M3663.08 389.991 L3663.08 406.632 L3658.29 406.632 L3658.29 402.205 Q3656.65 404.861 3654.2 406.137 Q3651.75 407.387 3648.21 407.387 Q3643.73 407.387 3641.07 404.887 Q3638.44 402.361 3638.44 398.142 Q3638.44 393.221 3641.73 390.721 Q3645.03 388.221 3651.57 388.221 L3658.29 388.221 L3658.29 387.752 Q3658.29 384.445 3656.1 382.648 Q3653.94 380.825 3650.01 380.825 Q3647.51 380.825 3645.14 381.424 Q3642.77 382.023 3640.58 383.221 L3640.58 378.794 Q3643.21 377.778 3645.68 377.283 Q3648.16 376.762 3650.5 376.762 Q3656.83 376.762 3659.95 380.044 Q3663.08 383.325 3663.08 389.991 Z" fill="#000000" fill-rule="nonzero" fill-opacity="1" /><path clip-path="url(#clip720)" d="M3693.94 378.585 L3693.94 383.064 Q3691.91 381.945 3689.85 381.398 Q3687.82 380.825 3685.74 380.825 Q3681.07 380.825 3678.5 383.794 Q3675.92 386.736 3675.92 392.075 Q3675.92 397.413 3678.5 400.382 Q3681.07 403.325 3685.74 403.325 Q3687.82 403.325 3689.85 402.778 Q3691.91 402.205 3693.94 401.085 L3693.94 405.512 Q3691.93 406.45 3689.77 406.918 Q3687.64 407.387 3685.22 407.387 Q3678.63 407.387 3674.75 403.247 Q3670.87 399.106 3670.87 392.075 Q3670.87 384.939 3674.77 380.851 Q3678.7 376.762 3685.53 376.762 Q3687.74 376.762 3689.85 377.231 Q3691.96 377.674 3693.94 378.585 Z" fill="#000000" fill-rule="nonzero" fill-opacity="1" /><path clip-path="url(#clip720)" d="M3707.01 369.184 L3707.01 377.465 L3716.88 377.465 L3716.88 381.189 L3707.01 381.189 L3707.01 397.023 Q3707.01 400.59 3707.98 401.606 Q3708.97 402.622 3711.96 402.622 L3716.88 402.622 L3716.88 406.632 L3711.96 406.632 Q3706.41 406.632 3704.3 404.575 Q3702.19 402.491 3702.19 397.023 L3702.19 381.189 L3698.68 381.189 L3698.68 377.465 L3702.19 377.465 L3702.19 369.184 L3707.01 369.184 Z" fill="#000000" fill-rule="nonzero" fill-opacity="1" /><path clip-path="url(#clip720)" d="M3722.69 395.122 L3722.69 377.465 L3727.48 377.465 L3727.48 394.939 Q3727.48 399.08 3729.1 401.163 Q3730.71 403.221 3733.94 403.221 Q3737.82 403.221 3740.06 400.747 Q3742.32 398.273 3742.32 394.002 L3742.32 377.465 L3747.12 377.465 L3747.12 406.632 L3742.32 406.632 L3742.32 402.153 Q3740.58 404.809 3738.26 406.111 Q3735.97 407.387 3732.92 407.387 Q3727.9 407.387 3725.29 404.262 Q3722.69 401.137 3722.69 395.122 M3734.75 376.762 L3734.75 376.762 Z" fill="#000000" fill-rule="nonzero" fill-opacity="1" /><path clip-path="url(#clip720)" d="M3770.24 391.971 Q3764.43 391.971 3762.19 393.299 Q3759.95 394.627 3759.95 397.83 Q3759.95 400.382 3761.62 401.892 Q3763.31 403.377 3766.2 403.377 Q3770.19 403.377 3772.58 400.564 Q3775.01 397.726 3775.01 393.038 L3775.01 391.971 L3770.24 391.971 M3779.8 389.991 L3779.8 406.632 L3775.01 406.632 L3775.01 402.205 Q3773.37 404.861 3770.92 406.137 Q3768.47 407.387 3764.93 407.387 Q3760.45 407.387 3757.79 404.887 Q3755.16 402.361 3755.16 398.142 Q3755.16 393.221 3758.44 390.721 Q3761.75 388.221 3768.29 388.221 L3775.01 388.221 L3775.01 387.752 Q3775.01 384.445 3772.82 382.648 Q3770.66 380.825 3766.73 380.825 Q3764.23 380.825 3761.86 381.424 Q3759.49 382.023 3757.3 383.221 L3757.3 378.794 Q3759.93 377.778 3762.4 377.283 Q3764.88 376.762 3767.22 376.762 Q3773.55 376.762 3776.67 380.044 Q3779.8 383.325 3779.8 389.991 Z" fill="#000000" fill-rule="nonzero" fill-opacity="1" /><path clip-path="url(#clip720)" d="M3789.67 366.111 L3794.46 366.111 L3794.46 406.632 L3789.67 406.632 L3789.67 366.111 Z" fill="#000000" fill-rule="nonzero" fill-opacity="1" /></svg>
