<?xml version="1.0" encoding="UTF-8" standalone="no"?>
<!DOCTYPE svg PUBLIC "-//W3C//DTD SVG 1.1//EN"
 "http://www.w3.org/Graphics/SVG/1.1/DTD/svg11.dtd">
<!-- Generated by graphviz version 2.50.0 (20211204.2007)
 -->
<!-- Pages: 1 -->
<svg width="1374pt" height="588pt"
 viewBox="0.00 0.00 1374.00 588.00" xmlns="http://www.w3.org/2000/svg" xmlns:xlink="http://www.w3.org/1999/xlink">
<g id="graph0" class="graph" transform="scale(1 1) rotate(0) translate(4 584)">
<polygon fill="white" stroke="transparent" points="-4,4 -4,-584 1370,-584 1370,4 -4,4"/>
<!-- 1 -->
<g id="node1" class="node">
<title>1</title>
<text text-anchor="start" x="641.5" y="-561.8" font-family="Arial" font-weight="bold" font-size="14.00"> </text>
<path fill="#ebebeb" stroke="transparent" d="M597,-489C597,-489 691,-489 691,-489 697,-489 703,-495 703,-501 703,-501 703,-541 703,-541 703,-547 697,-553 691,-553 691,-553 597,-553 597,-553 591,-553 585,-547 585,-541 585,-541 585,-501 585,-501 585,-495 591,-489 597,-489"/>
<text text-anchor="start" x="586" y="-550.4" font-family="Arial" font-size="2.00"> </text>
<text text-anchor="start" x="586" y="-544.4" font-family="Arial" font-size="7.00"> &#160;1</text>
<text text-anchor="start" x="600" y="-527.8" font-family="Arial" font-weight="bold" font-size="14.00">Mean: 11.1</text>
<text text-anchor="start" x="613.5" y="-510.8" font-family="Arial" font-weight="bold" font-size="14.00">n = 337</text>
<text text-anchor="start" x="642" y="-492.8" font-family="Arial" font-size="9.00"> </text>
<path fill="none" stroke="#333333" d="M597,-489C597,-489 691,-489 691,-489 697,-489 703,-495 703,-501 703,-501 703,-541 703,-541 703,-547 697,-553 691,-553 691,-553 597,-553 597,-553 591,-553 585,-547 585,-541 585,-541 585,-501 585,-501 585,-495 591,-489 597,-489"/>
<text text-anchor="start" x="626" y="-474.8" font-family="Arial" font-weight="bold" font-size="14.00">time</text>
</g>
<!-- 2 -->
<g id="node2" class="node">
<title>2</title>
<text text-anchor="start" x="524" y="-407.8" font-family="Arial" font-weight="bold" font-size="14.00"> &lt; 17.5</text>
<text text-anchor="start" x="472" y="-363.3" font-family="Arial" font-size="14.00"> &#160;&#160;</text>
<path fill="#ebebeb" stroke="transparent" d="M500,-335C500,-335 604,-335 604,-335 610,-335 616,-341 616,-347 616,-347 616,-387 616,-387 616,-393 610,-399 604,-399 604,-399 500,-399 500,-399 494,-399 488,-393 488,-387 488,-387 488,-347 488,-347 488,-341 494,-335 500,-335"/>
<text text-anchor="start" x="489" y="-396.4" font-family="Arial" font-size="2.00"> </text>
<text text-anchor="start" x="489" y="-390.4" font-family="Arial" font-size="7.00"> &#160;2</text>
<text text-anchor="start" x="503" y="-373.8" font-family="Arial" font-weight="bold" font-size="14.00">Mean: 10.38</text>
<text text-anchor="start" x="521.5" y="-356.8" font-family="Arial" font-weight="bold" font-size="14.00">n = 252</text>
<text text-anchor="start" x="550" y="-338.8" font-family="Arial" font-size="9.00"> </text>
<path fill="none" stroke="#333333" d="M500,-335C500,-335 604,-335 604,-335 610,-335 616,-341 616,-347 616,-347 616,-387 616,-387 616,-393 610,-399 604,-399 604,-399 500,-399 500,-399 494,-399 488,-393 488,-387 488,-387 488,-347 488,-347 488,-341 494,-335 500,-335"/>
<text text-anchor="start" x="618" y="-363.3" font-family="Arial" font-size="14.00"> &#160;&#160;</text>
<text text-anchor="start" x="489" y="-320.8" font-family="Arial" font-weight="bold" font-size="14.00">prev_168_inflow</text>
</g>
<!-- 1&#45;&gt;2 -->
<g id="edge1" class="edge">
<title>1&#45;&gt;2</title>
<path fill="none" stroke="#888888" d="M608.69,-461.67C603.41,-452.94 597.93,-443.88 592.55,-434.99"/>
<polygon fill="#888888" stroke="#888888" points="595.38,-432.92 587.21,-426.18 589.4,-436.54 595.38,-432.92"/>
</g>
<!-- 9 -->
<g id="node3" class="node">
<title>9</title>
<text text-anchor="start" x="785" y="-407.8" font-family="Arial" font-weight="bold" font-size="14.00"> ≥ 17.5</text>
<path fill="#ebebeb" stroke="transparent" d="M761,-335C761,-335 865,-335 865,-335 871,-335 877,-341 877,-347 877,-347 877,-387 877,-387 877,-393 871,-399 865,-399 865,-399 761,-399 761,-399 755,-399 749,-393 749,-387 749,-387 749,-347 749,-347 749,-341 755,-335 761,-335"/>
<text text-anchor="start" x="750" y="-396.4" font-family="Arial" font-size="2.00"> </text>
<text text-anchor="start" x="750" y="-390.4" font-family="Arial" font-size="7.00"> &#160;9</text>
<text text-anchor="start" x="764" y="-373.8" font-family="Arial" font-weight="bold" font-size="14.00">Mean: 13.26</text>
<text text-anchor="start" x="787.5" y="-356.8" font-family="Arial" font-weight="bold" font-size="14.00">n = 85</text>
<text text-anchor="start" x="811" y="-338.8" font-family="Arial" font-size="9.00"> </text>
<path fill="none" stroke="#333333" d="M761,-335C761,-335 865,-335 865,-335 871,-335 877,-341 877,-347 877,-347 877,-387 877,-387 877,-393 871,-399 865,-399 865,-399 761,-399 761,-399 755,-399 749,-393 749,-387 749,-387 749,-347 749,-347 749,-341 755,-335 761,-335"/>
<text text-anchor="start" x="795" y="-320.8" font-family="Arial" font-weight="bold" font-size="14.00">time</text>
</g>
<!-- 1&#45;&gt;9 -->
<g id="edge2" class="edge">
<title>1&#45;&gt;9</title>
<path fill="none" stroke="#888888" d="M708.86,-461.67C719.27,-452.3 730.1,-442.56 740.67,-433.05"/>
<polygon fill="#888888" stroke="#888888" points="743.22,-435.47 748.32,-426.18 738.54,-430.26 743.22,-435.47"/>
</g>
<!-- 3 -->
<g id="node4" class="node">
<title>3</title>
<text text-anchor="start" x="215" y="-253.8" font-family="Arial" font-weight="bold" font-size="14.00"> &lt; 11.11</text>
<path fill="#ebebeb" stroke="transparent" d="M196,-181C196,-181 300,-181 300,-181 306,-181 312,-187 312,-193 312,-193 312,-233 312,-233 312,-239 306,-245 300,-245 300,-245 196,-245 196,-245 190,-245 184,-239 184,-233 184,-233 184,-193 184,-193 184,-187 190,-181 196,-181"/>
<text text-anchor="start" x="185" y="-242.4" font-family="Arial" font-size="2.00"> </text>
<text text-anchor="start" x="185" y="-236.4" font-family="Arial" font-size="7.00"> &#160;3</text>
<text text-anchor="start" x="199" y="-219.8" font-family="Arial" font-weight="bold" font-size="14.00">Mean: 9.755</text>
<text text-anchor="start" x="217.5" y="-202.8" font-family="Arial" font-weight="bold" font-size="14.00">n = 189</text>
<text text-anchor="start" x="246" y="-184.8" font-family="Arial" font-size="9.00"> </text>
<path fill="none" stroke="#333333" d="M196,-181C196,-181 300,-181 300,-181 306,-181 312,-187 312,-193 312,-193 312,-233 312,-233 312,-239 306,-245 300,-245 300,-245 196,-245 196,-245 190,-245 184,-239 184,-233 184,-233 184,-193 184,-193 184,-187 190,-181 196,-181"/>
<text text-anchor="start" x="230" y="-166.8" font-family="Arial" font-weight="bold" font-size="14.00">time</text>
</g>
<!-- 2&#45;&gt;3 -->
<g id="edge3" class="edge">
<title>2&#45;&gt;3</title>
<path fill="none" stroke="#888888" d="M461.61,-320.81C420.93,-300.47 373.17,-276.58 333.13,-256.57"/>
<polygon fill="#888888" stroke="#888888" points="334.7,-253.44 324.19,-252.09 331.57,-259.7 334.7,-253.44"/>
</g>
<!-- 6 -->
<g id="node5" class="node">
<title>6</title>
<text text-anchor="start" x="519" y="-253.8" font-family="Arial" font-weight="bold" font-size="14.00"> ≥ 11.11</text>
<text text-anchor="start" x="476" y="-209.3" font-family="Arial" font-size="14.00"> &#160;</text>
<path fill="#ebebeb" stroke="transparent" d="M500,-181C500,-181 604,-181 604,-181 610,-181 616,-187 616,-193 616,-193 616,-233 616,-233 616,-239 610,-245 604,-245 604,-245 500,-245 500,-245 494,-245 488,-239 488,-233 488,-233 488,-193 488,-193 488,-187 494,-181 500,-181"/>
<text text-anchor="start" x="489" y="-242.4" font-family="Arial" font-size="2.00"> </text>
<text text-anchor="start" x="489" y="-236.4" font-family="Arial" font-size="7.00"> &#160;6</text>
<text text-anchor="start" x="503" y="-219.8" font-family="Arial" font-weight="bold" font-size="14.00">Mean: 12.24</text>
<text text-anchor="start" x="526.5" y="-202.8" font-family="Arial" font-weight="bold" font-size="14.00">n = 63</text>
<text text-anchor="start" x="550" y="-184.8" font-family="Arial" font-size="9.00"> </text>
<path fill="none" stroke="#333333" d="M500,-181C500,-181 604,-181 604,-181 610,-181 616,-187 616,-193 616,-193 616,-233 616,-233 616,-239 610,-245 604,-245 604,-245 500,-245 500,-245 494,-245 488,-239 488,-233 488,-233 488,-193 488,-193 488,-187 494,-181 500,-181"/>
<text text-anchor="start" x="618" y="-209.3" font-family="Arial" font-size="14.00"> &#160;</text>
<text text-anchor="start" x="491.5" y="-166.8" font-family="Arial" font-weight="bold" font-size="14.00">week_of_month</text>
</g>
<!-- 2&#45;&gt;6 -->
<g id="edge4" class="edge">
<title>2&#45;&gt;6</title>
<path fill="none" stroke="#888888" d="M552,-307.67C552,-299.39 552,-290.83 552,-282.38"/>
<polygon fill="#888888" stroke="#888888" points="555.5,-282.18 552,-272.18 548.5,-282.18 555.5,-282.18"/>
</g>
<!-- 10 -->
<g id="node10" class="node">
<title>10</title>
<text text-anchor="start" x="785" y="-253.8" font-family="Arial" font-weight="bold" font-size="14.00"> &lt; 20.5</text>
<path fill="#ebebeb" stroke="transparent" d="M761,-181C761,-181 865,-181 865,-181 871,-181 877,-187 877,-193 877,-193 877,-233 877,-233 877,-239 871,-245 865,-245 865,-245 761,-245 761,-245 755,-245 749,-239 749,-233 749,-233 749,-193 749,-193 749,-187 755,-181 761,-181"/>
<text text-anchor="start" x="750" y="-242.4" font-family="Arial" font-size="2.00"> </text>
<text text-anchor="start" x="750" y="-236.4" font-family="Arial" font-size="7.00"> &#160;10</text>
<text text-anchor="start" x="764" y="-219.8" font-family="Arial" font-weight="bold" font-size="14.00">Mean: 15.49</text>
<text text-anchor="start" x="787.5" y="-202.8" font-family="Arial" font-weight="bold" font-size="14.00">n = 42</text>
<text text-anchor="start" x="811" y="-184.8" font-family="Arial" font-size="9.00"> </text>
<path fill="none" stroke="#333333" d="M761,-181C761,-181 865,-181 865,-181 871,-181 877,-187 877,-193 877,-193 877,-233 877,-233 877,-239 871,-245 865,-245 865,-245 761,-245 761,-245 755,-245 749,-239 749,-233 749,-233 749,-193 749,-193 749,-187 755,-181 761,-181"/>
<text text-anchor="start" x="795" y="-166.8" font-family="Arial" font-weight="bold" font-size="14.00">time</text>
</g>
<!-- 9&#45;&gt;10 -->
<g id="edge9" class="edge">
<title>9&#45;&gt;10</title>
<path fill="none" stroke="#888888" d="M813,-307.67C813,-299.39 813,-290.83 813,-282.38"/>
<polygon fill="#888888" stroke="#888888" points="816.5,-282.18 813,-272.18 809.5,-282.18 816.5,-282.18"/>
</g>
<!-- 13 -->
<g id="node11" class="node">
<title>13</title>
<text text-anchor="start" x="1090" y="-253.8" font-family="Arial" font-weight="bold" font-size="14.00"> ≥ 20.5</text>
<path fill="#ebebeb" stroke="transparent" d="M1066,-181C1066,-181 1170,-181 1170,-181 1176,-181 1182,-187 1182,-193 1182,-193 1182,-233 1182,-233 1182,-239 1176,-245 1170,-245 1170,-245 1066,-245 1066,-245 1060,-245 1054,-239 1054,-233 1054,-233 1054,-193 1054,-193 1054,-187 1060,-181 1066,-181"/>
<text text-anchor="start" x="1055" y="-242.4" font-family="Arial" font-size="2.00"> </text>
<text text-anchor="start" x="1055" y="-236.4" font-family="Arial" font-size="7.00"> &#160;13</text>
<text text-anchor="start" x="1069" y="-219.8" font-family="Arial" font-weight="bold" font-size="14.00">Mean: 11.08</text>
<text text-anchor="start" x="1092.5" y="-202.8" font-family="Arial" font-weight="bold" font-size="14.00">n = 43</text>
<text text-anchor="start" x="1116" y="-184.8" font-family="Arial" font-size="9.00"> </text>
<path fill="none" stroke="#333333" d="M1066,-181C1066,-181 1170,-181 1170,-181 1176,-181 1182,-187 1182,-193 1182,-193 1182,-233 1182,-233 1182,-239 1176,-245 1170,-245 1170,-245 1066,-245 1066,-245 1060,-245 1054,-239 1054,-233 1054,-233 1054,-193 1054,-193 1054,-187 1060,-181 1066,-181"/>
<text text-anchor="start" x="1100" y="-166.8" font-family="Arial" font-weight="bold" font-size="14.00">time</text>
</g>
<!-- 9&#45;&gt;13 -->
<g id="edge10" class="edge">
<title>9&#45;&gt;13</title>
<path fill="none" stroke="#888888" d="M889.18,-328.04C932.76,-306.32 987.54,-279.02 1032.57,-256.57"/>
<polygon fill="#888888" stroke="#888888" points="1034.35,-259.6 1041.74,-252.01 1031.23,-253.33 1034.35,-259.6"/>
</g>
<!-- 4 -->
<g id="node6" class="node">
<title>4</title>
<text text-anchor="start" x="52" y="-99.8" font-family="Arial" font-weight="bold" font-size="14.00"> &lt; 5.5</text>
<path fill="#f8766d" fill-opacity="0.874510" stroke="transparent" d="M24,-27C24,-27 126,-27 126,-27 132,-27 138,-33 138,-39 138,-39 138,-79 138,-79 138,-85 132,-91 126,-91 126,-91 24,-91 24,-91 18,-91 12,-85 12,-79 12,-79 12,-39 12,-39 12,-33 18,-27 24,-27"/>
<text text-anchor="start" x="13" y="-88.4" font-family="Arial" font-size="2.00"> </text>
<text text-anchor="start" x="13" y="-82.4" font-family="Arial" font-size="7.00"> &#160;4</text>
<text text-anchor="start" x="27" y="-65.8" font-family="Arial" font-weight="bold" font-size="14.00">Predict 8.25</text>
<text text-anchor="start" x="49.5" y="-48.8" font-family="Arial" font-weight="bold" font-size="14.00">n = 84</text>
<text text-anchor="start" x="73" y="-30.8" font-family="Arial" font-size="9.00"> </text>
<path fill="none" stroke="#333333" d="M24,-27C24,-27 126,-27 126,-27 132,-27 138,-33 138,-39 138,-39 138,-79 138,-79 138,-85 132,-91 126,-91 126,-91 24,-91 24,-91 18,-91 12,-85 12,-79 12,-79 12,-39 12,-39 12,-33 18,-27 24,-27"/>
<text text-anchor="start" x="72.5" y="-12.8" font-family="Arial" font-weight="bold" font-size="14.00"> </text>
</g>
<!-- 3&#45;&gt;4 -->
<g id="edge5" class="edge">
<title>3&#45;&gt;4</title>
<path fill="none" stroke="#888888" d="M181.61,-153.67C170.95,-144.3 159.86,-134.56 149.04,-125.05"/>
<polygon fill="#888888" stroke="#888888" points="151.04,-122.15 141.21,-118.18 146.42,-127.41 151.04,-122.15"/>
</g>
<!-- 5 -->
<g id="node7" class="node">
<title>5</title>
<text text-anchor="start" x="225" y="-99.8" font-family="Arial" font-weight="bold" font-size="14.00"> ≥ 5.5</text>
<path fill="#f8766d" fill-opacity="0.705882" stroke="transparent" d="M192,-27C192,-27 304,-27 304,-27 310,-27 316,-33 316,-39 316,-39 316,-79 316,-79 316,-85 310,-91 304,-91 304,-91 192,-91 192,-91 186,-91 180,-85 180,-79 180,-79 180,-39 180,-39 180,-33 186,-27 192,-27"/>
<text text-anchor="start" x="181" y="-88.4" font-family="Arial" font-size="2.00"> </text>
<text text-anchor="start" x="181" y="-82.4" font-family="Arial" font-size="7.00"> &#160;5</text>
<text text-anchor="start" x="195" y="-65.8" font-family="Arial" font-weight="bold" font-size="14.00">Predict 10.96</text>
<text text-anchor="start" x="217.5" y="-48.8" font-family="Arial" font-weight="bold" font-size="14.00">n = 105</text>
<text text-anchor="start" x="246" y="-30.8" font-family="Arial" font-size="9.00"> </text>
<path fill="none" stroke="#333333" d="M192,-27C192,-27 304,-27 304,-27 310,-27 316,-33 316,-39 316,-39 316,-79 316,-79 316,-85 310,-91 304,-91 304,-91 192,-91 192,-91 186,-91 180,-85 180,-79 180,-79 180,-39 180,-39 180,-33 186,-27 192,-27"/>
<text text-anchor="start" x="245.5" y="-12.8" font-family="Arial" font-weight="bold" font-size="14.00"> </text>
</g>
<!-- 3&#45;&gt;5 -->
<g id="edge6" class="edge">
<title>3&#45;&gt;5</title>
<path fill="none" stroke="#888888" d="M248,-153.67C248,-145.39 248,-136.83 248,-128.38"/>
<polygon fill="#888888" stroke="#888888" points="251.5,-128.18 248,-118.18 244.5,-128.18 251.5,-128.18"/>
</g>
<!-- 7 -->
<g id="node8" class="node">
<title>7</title>
<text text-anchor="start" x="403" y="-99.8" font-family="Arial" font-weight="bold" font-size="14.00"> &lt; 2.5</text>
<path fill="#f8766d" fill-opacity="0.701961" stroke="transparent" d="M370,-27C370,-27 482,-27 482,-27 488,-27 494,-33 494,-39 494,-39 494,-79 494,-79 494,-85 488,-91 482,-91 482,-91 370,-91 370,-91 364,-91 358,-85 358,-79 358,-79 358,-39 358,-39 358,-33 364,-27 370,-27"/>
<text text-anchor="start" x="359" y="-88.4" font-family="Arial" font-size="2.00"> </text>
<text text-anchor="start" x="359" y="-82.4" font-family="Arial" font-size="7.00"> &#160;7</text>
<text text-anchor="start" x="373" y="-65.8" font-family="Arial" font-weight="bold" font-size="14.00">Predict 11.04</text>
<text text-anchor="start" x="400.5" y="-48.8" font-family="Arial" font-weight="bold" font-size="14.00">n = 20</text>
<text text-anchor="start" x="424" y="-30.8" font-family="Arial" font-size="9.00"> </text>
<path fill="none" stroke="#333333" d="M370,-27C370,-27 482,-27 482,-27 488,-27 494,-33 494,-39 494,-39 494,-79 494,-79 494,-85 488,-91 482,-91 482,-91 370,-91 370,-91 364,-91 358,-85 358,-79 358,-79 358,-39 358,-39 358,-33 364,-27 370,-27"/>
<text text-anchor="start" x="423.5" y="-12.8" font-family="Arial" font-weight="bold" font-size="14.00"> </text>
</g>
<!-- 6&#45;&gt;7 -->
<g id="edge7" class="edge">
<title>6&#45;&gt;7</title>
<path fill="none" stroke="#888888" d="M503.65,-153.67C496.11,-144.58 488.28,-135.13 480.61,-125.88"/>
<polygon fill="#888888" stroke="#888888" points="483.3,-123.64 474.23,-118.18 477.91,-128.11 483.3,-123.64"/>
</g>
<!-- 8 -->
<g id="node9" class="node">
<title>8</title>
<text text-anchor="start" x="576" y="-99.8" font-family="Arial" font-weight="bold" font-size="14.00"> ≥ 2.5</text>
<path fill="#f8766d" fill-opacity="0.592157" stroke="transparent" d="M548,-27C548,-27 650,-27 650,-27 656,-27 662,-33 662,-39 662,-39 662,-79 662,-79 662,-85 656,-91 650,-91 650,-91 548,-91 548,-91 542,-91 536,-85 536,-79 536,-79 536,-39 536,-39 536,-33 542,-27 548,-27"/>
<text text-anchor="start" x="537" y="-88.4" font-family="Arial" font-size="2.00"> </text>
<text text-anchor="start" x="537" y="-82.4" font-family="Arial" font-size="7.00"> &#160;8</text>
<text text-anchor="start" x="551" y="-65.8" font-family="Arial" font-weight="bold" font-size="14.00">Predict 12.8</text>
<text text-anchor="start" x="573.5" y="-48.8" font-family="Arial" font-weight="bold" font-size="14.00">n = 43</text>
<text text-anchor="start" x="597" y="-30.8" font-family="Arial" font-size="9.00"> </text>
<path fill="none" stroke="#333333" d="M548,-27C548,-27 650,-27 650,-27 656,-27 662,-33 662,-39 662,-39 662,-79 662,-79 662,-85 656,-91 650,-91 650,-91 548,-91 548,-91 542,-91 536,-85 536,-79 536,-79 536,-39 536,-39 536,-33 542,-27 548,-27"/>
<text text-anchor="start" x="596.5" y="-12.8" font-family="Arial" font-weight="bold" font-size="14.00"> </text>
</g>
<!-- 6&#45;&gt;8 -->
<g id="edge8" class="edge">
<title>6&#45;&gt;8</title>
<path fill="none" stroke="#888888" d="M570.04,-153.67C572.65,-145.21 575.36,-136.45 578.03,-127.83"/>
<polygon fill="#888888" stroke="#888888" points="581.4,-128.76 581.01,-118.18 574.71,-126.7 581.4,-128.76"/>
</g>
<!-- 11 -->
<g id="node12" class="node">
<title>11</title>
<text text-anchor="start" x="739" y="-99.8" font-family="Arial" font-weight="bold" font-size="14.00"> &lt; 18.5</text>
<path fill="#f8766d" fill-opacity="0.521569" stroke="transparent" d="M716,-27C716,-27 818,-27 818,-27 824,-27 830,-33 830,-39 830,-39 830,-79 830,-79 830,-85 824,-91 818,-91 818,-91 716,-91 716,-91 710,-91 704,-85 704,-79 704,-79 704,-39 704,-39 704,-33 710,-27 716,-27"/>
<text text-anchor="start" x="705" y="-88.4" font-family="Arial" font-size="2.00"> </text>
<text text-anchor="start" x="705" y="-82.4" font-family="Arial" font-size="7.00"> &#160;11</text>
<text text-anchor="start" x="719" y="-65.8" font-family="Arial" font-weight="bold" font-size="14.00">Predict 13.9</text>
<text text-anchor="start" x="741.5" y="-48.8" font-family="Arial" font-weight="bold" font-size="14.00">n = 14</text>
<text text-anchor="start" x="765" y="-30.8" font-family="Arial" font-size="9.00"> </text>
<path fill="none" stroke="#333333" d="M716,-27C716,-27 818,-27 818,-27 824,-27 830,-33 830,-39 830,-39 830,-79 830,-79 830,-85 824,-91 818,-91 818,-91 716,-91 716,-91 710,-91 704,-85 704,-79 704,-79 704,-39 704,-39 704,-33 710,-27 716,-27"/>
<text text-anchor="start" x="764.5" y="-12.8" font-family="Arial" font-weight="bold" font-size="14.00"> </text>
</g>
<!-- 10&#45;&gt;11 -->
<g id="edge11" class="edge">
<title>10&#45;&gt;11</title>
<path fill="none" stroke="#888888" d="M795.35,-153.67C792.79,-145.21 790.14,-136.45 787.53,-127.83"/>
<polygon fill="#888888" stroke="#888888" points="790.85,-126.73 784.61,-118.18 784.15,-128.76 790.85,-126.73"/>
</g>
<!-- 12 -->
<g id="node13" class="node">
<title>12</title>
<text text-anchor="start" x="912" y="-99.8" font-family="Arial" font-weight="bold" font-size="14.00"> ≥ 18.5</text>
<path fill="#f8766d" fill-opacity="0.376471" stroke="transparent" d="M884,-27C884,-27 996,-27 996,-27 1002,-27 1008,-33 1008,-39 1008,-39 1008,-79 1008,-79 1008,-85 1002,-91 996,-91 996,-91 884,-91 884,-91 878,-91 872,-85 872,-79 872,-79 872,-39 872,-39 872,-33 878,-27 884,-27"/>
<text text-anchor="start" x="873" y="-88.4" font-family="Arial" font-size="2.00"> </text>
<text text-anchor="start" x="873" y="-82.4" font-family="Arial" font-size="7.00"> &#160;12</text>
<text text-anchor="start" x="887" y="-65.8" font-family="Arial" font-weight="bold" font-size="14.00">Predict 16.28</text>
<text text-anchor="start" x="914.5" y="-48.8" font-family="Arial" font-weight="bold" font-size="14.00">n = 28</text>
<text text-anchor="start" x="938" y="-30.8" font-family="Arial" font-size="9.00"> </text>
<path fill="none" stroke="#333333" d="M884,-27C884,-27 996,-27 996,-27 1002,-27 1008,-33 1008,-39 1008,-39 1008,-79 1008,-79 1008,-85 1002,-91 996,-91 996,-91 884,-91 884,-91 878,-91 872,-85 872,-79 872,-79 872,-39 872,-39 872,-33 878,-27 884,-27"/>
<text text-anchor="start" x="937.5" y="-12.8" font-family="Arial" font-weight="bold" font-size="14.00"> </text>
</g>
<!-- 10&#45;&gt;12 -->
<g id="edge12" class="edge">
<title>10&#45;&gt;12</title>
<path fill="none" stroke="#888888" d="M861.74,-153.67C869.33,-144.58 877.23,-135.13 884.95,-125.88"/>
<polygon fill="#888888" stroke="#888888" points="887.67,-128.09 891.39,-118.18 882.29,-123.61 887.67,-128.09"/>
</g>
<!-- 14 -->
<g id="node14" class="node">
<title>14</title>
<text text-anchor="start" x="1090" y="-99.8" font-family="Arial" font-weight="bold" font-size="14.00"> &lt; 21.5</text>
<path fill="#f8766d" fill-opacity="0.552941" stroke="transparent" d="M1062,-27C1062,-27 1174,-27 1174,-27 1180,-27 1186,-33 1186,-39 1186,-39 1186,-79 1186,-79 1186,-85 1180,-91 1174,-91 1174,-91 1062,-91 1062,-91 1056,-91 1050,-85 1050,-79 1050,-79 1050,-39 1050,-39 1050,-33 1056,-27 1062,-27"/>
<text text-anchor="start" x="1051" y="-88.4" font-family="Arial" font-size="2.00"> </text>
<text text-anchor="start" x="1051" y="-82.4" font-family="Arial" font-size="7.00"> &#160;14</text>
<text text-anchor="start" x="1065" y="-65.8" font-family="Arial" font-weight="bold" font-size="14.00">Predict 13.45</text>
<text text-anchor="start" x="1092.5" y="-48.8" font-family="Arial" font-weight="bold" font-size="14.00">n = 14</text>
<text text-anchor="start" x="1116" y="-30.8" font-family="Arial" font-size="9.00"> </text>
<path fill="none" stroke="#333333" d="M1062,-27C1062,-27 1174,-27 1174,-27 1180,-27 1186,-33 1186,-39 1186,-39 1186,-79 1186,-79 1186,-85 1180,-91 1174,-91 1174,-91 1062,-91 1062,-91 1056,-91 1050,-85 1050,-79 1050,-79 1050,-39 1050,-39 1050,-33 1056,-27 1062,-27"/>
<text text-anchor="start" x="1115.5" y="-12.8" font-family="Arial" font-weight="bold" font-size="14.00"> </text>
</g>
<!-- 13&#45;&gt;14 -->
<g id="edge13" class="edge">
<title>13&#45;&gt;14</title>
<path fill="none" stroke="#888888" d="M1118,-153.67C1118,-145.39 1118,-136.83 1118,-128.38"/>
<polygon fill="#888888" stroke="#888888" points="1121.5,-128.18 1118,-118.18 1114.5,-128.18 1121.5,-128.18"/>
</g>
<!-- 15 -->
<g id="node15" class="node">
<title>15</title>
<text text-anchor="start" x="1263" y="-99.8" font-family="Arial" font-weight="bold" font-size="14.00"> ≥ 21.5</text>
<path fill="#f8766d" fill-opacity="0.768627" stroke="transparent" d="M1240,-27C1240,-27 1342,-27 1342,-27 1348,-27 1354,-33 1354,-39 1354,-39 1354,-79 1354,-79 1354,-85 1348,-91 1342,-91 1342,-91 1240,-91 1240,-91 1234,-91 1228,-85 1228,-79 1228,-79 1228,-39 1228,-39 1228,-33 1234,-27 1240,-27"/>
<text text-anchor="start" x="1229" y="-88.4" font-family="Arial" font-size="2.00"> </text>
<text text-anchor="start" x="1229" y="-82.4" font-family="Arial" font-size="7.00"> &#160;15</text>
<text text-anchor="start" x="1243" y="-65.8" font-family="Arial" font-weight="bold" font-size="14.00">Predict 9.93</text>
<text text-anchor="start" x="1265.5" y="-48.8" font-family="Arial" font-weight="bold" font-size="14.00">n = 29</text>
<text text-anchor="start" x="1289" y="-30.8" font-family="Arial" font-size="9.00"> </text>
<path fill="none" stroke="#333333" d="M1240,-27C1240,-27 1342,-27 1342,-27 1348,-27 1354,-33 1354,-39 1354,-39 1354,-79 1354,-79 1354,-85 1348,-91 1342,-91 1342,-91 1240,-91 1240,-91 1234,-91 1228,-85 1228,-79 1228,-79 1228,-39 1228,-39 1228,-33 1234,-27 1240,-27"/>
<text text-anchor="start" x="1288.5" y="-12.8" font-family="Arial" font-weight="bold" font-size="14.00"> </text>
</g>
<!-- 13&#45;&gt;15 -->
<g id="edge14" class="edge">
<title>13&#45;&gt;15</title>
<path fill="none" stroke="#888888" d="M1184.39,-153.67C1195.05,-144.3 1206.14,-134.56 1216.96,-125.05"/>
<polygon fill="#888888" stroke="#888888" points="1219.58,-127.41 1224.79,-118.18 1214.96,-122.15 1219.58,-127.41"/>
</g>
</g>
</svg>
