<?xml version="1.0" encoding="UTF-8" standalone="no"?>
<!DOCTYPE svg PUBLIC "-//W3C//DTD SVG 1.1//EN"
 "http://www.w3.org/Graphics/SVG/1.1/DTD/svg11.dtd">
<!-- Generated by graphviz version 2.50.0 (20211204.2007)
 -->
<!-- Pages: 1 -->
<svg width="1248pt" height="896pt"
 viewBox="0.00 0.00 1248.00 896.00" xmlns="http://www.w3.org/2000/svg" xmlns:xlink="http://www.w3.org/1999/xlink">
<g id="graph0" class="graph" transform="scale(1 1) rotate(0) translate(4 892)">
<polygon fill="white" stroke="transparent" points="-4,4 -4,-892 1244,-892 1244,4 -4,4"/>
<!-- 1 -->
<g id="node1" class="node">
<title>1</title>
<text text-anchor="start" x="588" y="-869.8" font-family="Arial" font-weight="bold" font-size="14.00"> </text>
<path fill="#ebebeb" stroke="transparent" d="M548,-797C548,-797 632,-797 632,-797 638,-797 644,-803 644,-809 644,-809 644,-849 644,-849 644,-855 638,-861 632,-861 632,-861 548,-861 548,-861 542,-861 536,-855 536,-849 536,-849 536,-809 536,-809 536,-803 542,-797 548,-797"/>
<text text-anchor="start" x="537" y="-858.4" font-family="Arial" font-size="2.00"> </text>
<text text-anchor="start" x="537" y="-852.4" font-family="Arial" font-size="7.00"> &#160;1</text>
<text text-anchor="start" x="551" y="-835.8" font-family="Arial" font-weight="bold" font-size="14.00">Mean: 24.51</text>
<text text-anchor="start" x="566.5" y="-818.8" font-family="Arial" font-weight="bold" font-size="14.00">n = 672</text>
<text text-anchor="start" x="588.5" y="-800.8" font-family="Arial" font-size="9.00"> </text>
<path fill="none" stroke="#333333" d="M548,-797C548,-797 632,-797 632,-797 638,-797 644,-803 644,-809 644,-809 644,-849 644,-849 644,-855 638,-861 632,-861 632,-861 548,-861 548,-861 542,-861 536,-855 536,-849 536,-849 536,-809 536,-809 536,-803 542,-797 548,-797"/>
<text text-anchor="start" x="575.5" y="-782.8" font-family="Arial" font-weight="bold" font-size="14.00">time</text>
</g>
<!-- 2 -->
<g id="node2" class="node">
<title>2</title>
<text text-anchor="start" x="496.5" y="-715.8" font-family="Arial" font-weight="bold" font-size="14.00"> &lt; 6.5</text>
<path fill="#ebebeb" stroke="transparent" d="M472,-643C472,-643 556,-643 556,-643 562,-643 568,-649 568,-655 568,-655 568,-695 568,-695 568,-701 562,-707 556,-707 556,-707 472,-707 472,-707 466,-707 460,-701 460,-695 460,-695 460,-655 460,-655 460,-649 466,-643 472,-643"/>
<text text-anchor="start" x="461" y="-704.4" font-family="Arial" font-size="2.00"> </text>
<text text-anchor="start" x="461" y="-698.4" font-family="Arial" font-size="7.00"> &#160;2</text>
<text text-anchor="start" x="475" y="-681.8" font-family="Arial" font-weight="bold" font-size="14.00">Mean: 21.72</text>
<text text-anchor="start" x="490.5" y="-664.8" font-family="Arial" font-weight="bold" font-size="14.00">n = 196</text>
<text text-anchor="start" x="512.5" y="-646.8" font-family="Arial" font-size="9.00"> </text>
<path fill="none" stroke="#333333" d="M472,-643C472,-643 556,-643 556,-643 562,-643 568,-649 568,-655 568,-655 568,-695 568,-695 568,-701 562,-707 556,-707 556,-707 472,-707 472,-707 466,-707 460,-701 460,-695 460,-695 460,-655 460,-655 460,-649 466,-643 472,-643"/>
<text text-anchor="start" x="471.5" y="-628.8" font-family="Arial" font-weight="bold" font-size="14.00">day_of_week</text>
</g>
<!-- 1&#45;&gt;2 -->
<g id="edge1" class="edge">
<title>1&#45;&gt;2</title>
<path fill="none" stroke="#888888" d="M560.83,-769.67C556.52,-761.03 552.04,-752.07 547.64,-743.27"/>
<polygon fill="#888888" stroke="#888888" points="550.69,-741.56 543.09,-734.18 544.43,-744.69 550.69,-741.56"/>
</g>
<!-- 7 -->
<g id="node3" class="node">
<title>7</title>
<text text-anchor="start" x="656" y="-715.8" font-family="Arial" font-weight="bold" font-size="14.00"> ≥ 6.5</text>
<path fill="#ebebeb" stroke="transparent" d="M631,-643C631,-643 715,-643 715,-643 721,-643 727,-649 727,-655 727,-655 727,-695 727,-695 727,-701 721,-707 715,-707 715,-707 631,-707 631,-707 625,-707 619,-701 619,-695 619,-695 619,-655 619,-655 619,-649 625,-643 631,-643"/>
<text text-anchor="start" x="620" y="-704.4" font-family="Arial" font-size="2.00"> </text>
<text text-anchor="start" x="620" y="-698.4" font-family="Arial" font-size="7.00"> &#160;7</text>
<text text-anchor="start" x="634" y="-681.8" font-family="Arial" font-weight="bold" font-size="14.00">Mean: 25.65</text>
<text text-anchor="start" x="649.5" y="-664.8" font-family="Arial" font-weight="bold" font-size="14.00">n = 476</text>
<text text-anchor="start" x="671.5" y="-646.8" font-family="Arial" font-size="9.00"> </text>
<path fill="none" stroke="#333333" d="M631,-643C631,-643 715,-643 715,-643 721,-643 727,-649 727,-655 727,-655 727,-695 727,-695 727,-701 721,-707 715,-707 715,-707 631,-707 631,-707 625,-707 619,-701 619,-695 619,-695 619,-655 619,-655 619,-649 625,-643 631,-643"/>
<text text-anchor="start" x="630.5" y="-628.8" font-family="Arial" font-weight="bold" font-size="14.00">day_of_week</text>
</g>
<!-- 1&#45;&gt;7 -->
<g id="edge2" class="edge">
<title>1&#45;&gt;7</title>
<path fill="none" stroke="#888888" d="M621.85,-769.67C626.62,-760.94 631.56,-751.88 636.42,-742.99"/>
<polygon fill="#888888" stroke="#888888" points="639.51,-744.63 641.23,-734.18 633.37,-741.28 639.51,-744.63"/>
</g>
<!-- 3 -->
<g id="node4" class="node">
<title>3</title>
<text text-anchor="start" x="336.5" y="-561.8" font-family="Arial" font-weight="bold" font-size="14.00"> &lt; 6.5</text>
<path fill="#ebebeb" stroke="transparent" d="M312,-489C312,-489 396,-489 396,-489 402,-489 408,-495 408,-501 408,-501 408,-541 408,-541 408,-547 402,-553 396,-553 396,-553 312,-553 312,-553 306,-553 300,-547 300,-541 300,-541 300,-501 300,-501 300,-495 306,-489 312,-489"/>
<text text-anchor="start" x="301" y="-550.4" font-family="Arial" font-size="2.00"> </text>
<text text-anchor="start" x="301" y="-544.4" font-family="Arial" font-size="7.00"> &#160;3</text>
<text text-anchor="start" x="315" y="-527.8" font-family="Arial" font-weight="bold" font-size="14.00">Mean: 21.87</text>
<text text-anchor="start" x="330.5" y="-510.8" font-family="Arial" font-weight="bold" font-size="14.00">n = 168</text>
<text text-anchor="start" x="352.5" y="-492.8" font-family="Arial" font-size="9.00"> </text>
<path fill="none" stroke="#333333" d="M312,-489C312,-489 396,-489 396,-489 402,-489 408,-495 408,-501 408,-501 408,-541 408,-541 408,-547 402,-553 396,-553 396,-553 312,-553 312,-553 306,-553 300,-547 300,-541 300,-541 300,-501 300,-501 300,-495 306,-489 312,-489"/>
<text text-anchor="start" x="339.5" y="-474.8" font-family="Arial" font-weight="bold" font-size="14.00">time</text>
</g>
<!-- 2&#45;&gt;3 -->
<g id="edge3" class="edge">
<title>2&#45;&gt;3</title>
<path fill="none" stroke="#888888" d="M452.6,-615.67C442.84,-606.39 432.68,-596.75 422.77,-587.33"/>
<polygon fill="#888888" stroke="#888888" points="424.9,-584.53 415.24,-580.18 420.08,-589.6 424.9,-584.53"/>
</g>
<!-- 6 -->
<g id="node5" class="node">
<title>6</title>
<text text-anchor="start" x="497" y="-561.8" font-family="Arial" font-weight="bold" font-size="14.00"> ≥ 6.5</text>
<path fill="#f8766d" fill-opacity="0.874510" stroke="transparent" d="M469,-489C469,-489 559,-489 559,-489 565,-489 571,-495 571,-501 571,-501 571,-541 571,-541 571,-547 565,-553 559,-553 559,-553 469,-553 469,-553 463,-553 457,-547 457,-541 457,-541 457,-501 457,-501 457,-495 463,-489 469,-489"/>
<text text-anchor="start" x="458" y="-550.4" font-family="Arial" font-size="2.00"> </text>
<text text-anchor="start" x="458" y="-544.4" font-family="Arial" font-size="7.00"> &#160;6</text>
<text text-anchor="start" x="472" y="-527.8" font-family="Arial" font-weight="bold" font-size="14.00">Predict 20.79</text>
<text text-anchor="start" x="494" y="-510.8" font-family="Arial" font-weight="bold" font-size="14.00">n = 28</text>
<text text-anchor="start" x="512.5" y="-492.8" font-family="Arial" font-size="9.00"> </text>
<path fill="none" stroke="#333333" d="M469,-489C469,-489 559,-489 559,-489 565,-489 571,-495 571,-501 571,-501 571,-541 571,-541 571,-547 565,-553 559,-553 559,-553 469,-553 469,-553 463,-553 457,-547 457,-541 457,-541 457,-501 457,-501 457,-495 463,-489 469,-489"/>
<text text-anchor="start" x="512" y="-474.8" font-family="Arial" font-weight="bold" font-size="14.00"> </text>
</g>
<!-- 2&#45;&gt;6 -->
<g id="edge4" class="edge">
<title>2&#45;&gt;6</title>
<path fill="none" stroke="#888888" d="M514,-615.67C514,-607.39 514,-598.83 514,-590.38"/>
<polygon fill="#888888" stroke="#888888" points="517.5,-590.18 514,-580.18 510.5,-590.18 517.5,-590.18"/>
</g>
<!-- 8 -->
<g id="node8" class="node">
<title>8</title>
<text text-anchor="start" x="655.5" y="-561.8" font-family="Arial" font-weight="bold" font-size="14.00"> &lt; 5.5</text>
<path fill="#ebebeb" stroke="transparent" d="M631,-489C631,-489 715,-489 715,-489 721,-489 727,-495 727,-501 727,-501 727,-541 727,-541 727,-547 721,-553 715,-553 715,-553 631,-553 631,-553 625,-553 619,-547 619,-541 619,-541 619,-501 619,-501 619,-495 625,-489 631,-489"/>
<text text-anchor="start" x="620" y="-550.4" font-family="Arial" font-size="2.00"> </text>
<text text-anchor="start" x="620" y="-544.4" font-family="Arial" font-size="7.00"> &#160;8</text>
<text text-anchor="start" x="634" y="-527.8" font-family="Arial" font-weight="bold" font-size="14.00">Mean: 26.53</text>
<text text-anchor="start" x="649.5" y="-510.8" font-family="Arial" font-weight="bold" font-size="14.00">n = 340</text>
<text text-anchor="start" x="671.5" y="-492.8" font-family="Arial" font-size="9.00"> </text>
<path fill="none" stroke="#333333" d="M631,-489C631,-489 715,-489 715,-489 721,-489 727,-495 727,-501 727,-501 727,-541 727,-541 727,-547 721,-553 715,-553 715,-553 631,-553 631,-553 625,-553 619,-547 619,-541 619,-541 619,-501 619,-501 619,-495 625,-489 631,-489"/>
<text text-anchor="start" x="658.5" y="-474.8" font-family="Arial" font-weight="bold" font-size="14.00">time</text>
</g>
<!-- 7&#45;&gt;8 -->
<g id="edge7" class="edge">
<title>7&#45;&gt;8</title>
<path fill="none" stroke="#888888" d="M673,-615.67C673,-607.39 673,-598.83 673,-590.38"/>
<polygon fill="#888888" stroke="#888888" points="676.5,-590.18 673,-580.18 669.5,-590.18 676.5,-590.18"/>
</g>
<!-- 21 -->
<g id="node9" class="node">
<title>21</title>
<text text-anchor="start" x="989" y="-561.8" font-family="Arial" font-weight="bold" font-size="14.00"> ≥ 5.5</text>
<path fill="#ebebeb" stroke="transparent" d="M964,-489C964,-489 1048,-489 1048,-489 1054,-489 1060,-495 1060,-501 1060,-501 1060,-541 1060,-541 1060,-547 1054,-553 1048,-553 1048,-553 964,-553 964,-553 958,-553 952,-547 952,-541 952,-541 952,-501 952,-501 952,-495 958,-489 964,-489"/>
<text text-anchor="start" x="953" y="-550.4" font-family="Arial" font-size="2.00"> </text>
<text text-anchor="start" x="953" y="-544.4" font-family="Arial" font-size="7.00"> &#160;21</text>
<text text-anchor="start" x="967" y="-527.8" font-family="Arial" font-weight="bold" font-size="14.00">Mean: 23.45</text>
<text text-anchor="start" x="982.5" y="-510.8" font-family="Arial" font-weight="bold" font-size="14.00">n = 136</text>
<text text-anchor="start" x="1004.5" y="-492.8" font-family="Arial" font-size="9.00"> </text>
<path fill="none" stroke="#333333" d="M964,-489C964,-489 1048,-489 1048,-489 1054,-489 1060,-495 1060,-501 1060,-501 1060,-541 1060,-541 1060,-547 1054,-553 1048,-553 1048,-553 964,-553 964,-553 958,-553 952,-547 952,-541 952,-541 952,-501 952,-501 952,-495 958,-489 964,-489"/>
<text text-anchor="start" x="991.5" y="-474.8" font-family="Arial" font-weight="bold" font-size="14.00">time</text>
</g>
<!-- 7&#45;&gt;21 -->
<g id="edge8" class="edge">
<title>7&#45;&gt;21</title>
<path fill="none" stroke="#888888" d="M739.19,-643.79C794.35,-618.61 872.92,-582.74 930.52,-556.45"/>
<polygon fill="#888888" stroke="#888888" points="932.29,-559.49 939.94,-552.15 929.39,-553.12 932.29,-559.49"/>
</g>
<!-- 4 -->
<g id="node6" class="node">
<title>4</title>
<text text-anchor="start" x="180.5" y="-407.8" font-family="Arial" font-weight="bold" font-size="14.00"> &lt; 5.5</text>
<path fill="#f8766d" fill-opacity="0.827451" stroke="transparent" d="M153,-335C153,-335 243,-335 243,-335 249,-335 255,-341 255,-347 255,-347 255,-387 255,-387 255,-393 249,-399 243,-399 243,-399 153,-399 153,-399 147,-399 141,-393 141,-387 141,-387 141,-347 141,-347 141,-341 147,-335 153,-335"/>
<text text-anchor="start" x="142" y="-396.4" font-family="Arial" font-size="2.00"> </text>
<text text-anchor="start" x="142" y="-390.4" font-family="Arial" font-size="7.00"> &#160;4</text>
<text text-anchor="start" x="156" y="-373.8" font-family="Arial" font-weight="bold" font-size="14.00">Predict 21.58</text>
<text text-anchor="start" x="174.5" y="-356.8" font-family="Arial" font-weight="bold" font-size="14.00">n = 144</text>
<text text-anchor="start" x="196.5" y="-338.8" font-family="Arial" font-size="9.00"> </text>
<path fill="none" stroke="#333333" d="M153,-335C153,-335 243,-335 243,-335 249,-335 255,-341 255,-347 255,-347 255,-387 255,-387 255,-393 249,-399 243,-399 243,-399 153,-399 153,-399 147,-399 141,-393 141,-387 141,-387 141,-347 141,-347 141,-341 147,-335 153,-335"/>
<text text-anchor="start" x="196" y="-320.8" font-family="Arial" font-weight="bold" font-size="14.00"> </text>
</g>
<!-- 3&#45;&gt;4 -->
<g id="edge5" class="edge">
<title>3&#45;&gt;4</title>
<path fill="none" stroke="#888888" d="M294.13,-461.67C284.62,-452.39 274.72,-442.75 265.05,-433.33"/>
<polygon fill="#888888" stroke="#888888" points="267.31,-430.65 257.71,-426.18 262.43,-435.66 267.31,-430.65"/>
</g>
<!-- 5 -->
<g id="node7" class="node">
<title>5</title>
<text text-anchor="start" x="337" y="-407.8" font-family="Arial" font-weight="bold" font-size="14.00"> ≥ 5.5</text>
<path fill="#f8766d" fill-opacity="0.701961" stroke="transparent" d="M309,-335C309,-335 399,-335 399,-335 405,-335 411,-341 411,-347 411,-347 411,-387 411,-387 411,-393 405,-399 399,-399 399,-399 309,-399 309,-399 303,-399 297,-393 297,-387 297,-387 297,-347 297,-347 297,-341 303,-335 309,-335"/>
<text text-anchor="start" x="298" y="-396.4" font-family="Arial" font-size="2.00"> </text>
<text text-anchor="start" x="298" y="-390.4" font-family="Arial" font-size="7.00"> &#160;5</text>
<text text-anchor="start" x="312" y="-373.8" font-family="Arial" font-weight="bold" font-size="14.00">Predict 23.61</text>
<text text-anchor="start" x="334" y="-356.8" font-family="Arial" font-weight="bold" font-size="14.00">n = 24</text>
<text text-anchor="start" x="352.5" y="-338.8" font-family="Arial" font-size="9.00"> </text>
<path fill="none" stroke="#333333" d="M309,-335C309,-335 399,-335 399,-335 405,-335 411,-341 411,-347 411,-347 411,-387 411,-387 411,-393 405,-399 399,-399 399,-399 309,-399 309,-399 303,-399 297,-393 297,-387 297,-387 297,-347 297,-347 297,-341 303,-335 309,-335"/>
<text text-anchor="start" x="352" y="-320.8" font-family="Arial" font-weight="bold" font-size="14.00"> </text>
</g>
<!-- 3&#45;&gt;5 -->
<g id="edge6" class="edge">
<title>3&#45;&gt;5</title>
<path fill="none" stroke="#888888" d="M354,-461.67C354,-453.39 354,-444.83 354,-436.38"/>
<polygon fill="#888888" stroke="#888888" points="357.5,-436.18 354,-426.18 350.5,-436.18 357.5,-436.18"/>
</g>
<!-- 9 -->
<g id="node10" class="node">
<title>9</title>
<text text-anchor="start" x="493.5" y="-407.8" font-family="Arial" font-weight="bold" font-size="14.00"> &lt; 16.5</text>
<text text-anchor="start" x="451" y="-363.3" font-family="Arial" font-size="14.00"> &#160;</text>
<path fill="#ebebeb" stroke="transparent" d="M473,-335C473,-335 557,-335 557,-335 563,-335 569,-341 569,-347 569,-347 569,-387 569,-387 569,-393 563,-399 557,-399 557,-399 473,-399 473,-399 467,-399 461,-393 461,-387 461,-387 461,-347 461,-347 461,-341 467,-335 473,-335"/>
<text text-anchor="start" x="462" y="-396.4" font-family="Arial" font-size="2.00"> </text>
<text text-anchor="start" x="462" y="-390.4" font-family="Arial" font-size="7.00"> &#160;9</text>
<text text-anchor="start" x="476" y="-373.8" font-family="Arial" font-weight="bold" font-size="14.00">Mean: 28.21</text>
<text text-anchor="start" x="491.5" y="-356.8" font-family="Arial" font-weight="bold" font-size="14.00">n = 200</text>
<text text-anchor="start" x="513.5" y="-338.8" font-family="Arial" font-size="9.00"> </text>
<path fill="none" stroke="#333333" d="M473,-335C473,-335 557,-335 557,-335 563,-335 569,-341 569,-347 569,-347 569,-387 569,-387 569,-393 563,-399 557,-399 557,-399 473,-399 473,-399 467,-399 461,-393 461,-387 461,-387 461,-347 461,-347 461,-341 467,-335 473,-335"/>
<text text-anchor="start" x="571" y="-363.3" font-family="Arial" font-size="14.00"> &#160;</text>
<text text-anchor="start" x="465" y="-320.8" font-family="Arial" font-weight="bold" font-size="14.00">prev_1h_inflow</text>
</g>
<!-- 8&#45;&gt;9 -->
<g id="edge9" class="edge">
<title>8&#45;&gt;9</title>
<path fill="none" stroke="#888888" d="M612.36,-461.67C602.73,-452.39 592.7,-442.75 582.91,-433.33"/>
<polygon fill="#888888" stroke="#888888" points="585.11,-430.59 575.47,-426.18 580.25,-435.63 585.11,-430.59"/>
</g>
<!-- 16 -->
<g id="node11" class="node">
<title>16</title>
<text text-anchor="start" x="664" y="-407.8" font-family="Arial" font-weight="bold" font-size="14.00"> ≥ 16.5</text>
<path fill="#ebebeb" stroke="transparent" d="M643,-335C643,-335 727,-335 727,-335 733,-335 739,-341 739,-347 739,-347 739,-387 739,-387 739,-393 733,-399 727,-399 727,-399 643,-399 643,-399 637,-399 631,-393 631,-387 631,-387 631,-347 631,-347 631,-341 637,-335 643,-335"/>
<text text-anchor="start" x="632" y="-396.4" font-family="Arial" font-size="2.00"> </text>
<text text-anchor="start" x="632" y="-390.4" font-family="Arial" font-size="7.00"> &#160;16</text>
<text text-anchor="start" x="646" y="-373.8" font-family="Arial" font-weight="bold" font-size="14.00">Mean: 24.14</text>
<text text-anchor="start" x="661.5" y="-356.8" font-family="Arial" font-weight="bold" font-size="14.00">n = 140</text>
<text text-anchor="start" x="683.5" y="-338.8" font-family="Arial" font-size="9.00"> </text>
<path fill="none" stroke="#333333" d="M643,-335C643,-335 727,-335 727,-335 733,-335 739,-341 739,-347 739,-347 739,-387 739,-387 739,-393 733,-399 727,-399 727,-399 643,-399 643,-399 637,-399 631,-393 631,-387 631,-387 631,-347 631,-347 631,-341 637,-335 643,-335"/>
<text text-anchor="start" x="670.5" y="-320.8" font-family="Arial" font-weight="bold" font-size="14.00">time</text>
</g>
<!-- 8&#45;&gt;16 -->
<g id="edge10" class="edge">
<title>8&#45;&gt;16</title>
<path fill="none" stroke="#888888" d="M677.61,-461.67C678.26,-453.39 678.93,-444.83 679.6,-436.38"/>
<polygon fill="#888888" stroke="#888888" points="683.11,-436.42 680.41,-426.18 676.13,-435.87 683.11,-436.42"/>
</g>
<!-- 22 -->
<g id="node22" class="node">
<title>22</title>
<text text-anchor="start" x="984.5" y="-407.8" font-family="Arial" font-weight="bold" font-size="14.00"> &lt; 15.5</text>
<text text-anchor="start" x="938" y="-363.3" font-family="Arial" font-size="14.00"> &#160;&#160;</text>
<path fill="#ebebeb" stroke="transparent" d="M964,-335C964,-335 1048,-335 1048,-335 1054,-335 1060,-341 1060,-347 1060,-347 1060,-387 1060,-387 1060,-393 1054,-399 1048,-399 1048,-399 964,-399 964,-399 958,-399 952,-393 952,-387 952,-387 952,-347 952,-347 952,-341 958,-335 964,-335"/>
<text text-anchor="start" x="953" y="-396.4" font-family="Arial" font-size="2.00"> </text>
<text text-anchor="start" x="953" y="-390.4" font-family="Arial" font-size="7.00"> &#160;22</text>
<text text-anchor="start" x="967" y="-373.8" font-family="Arial" font-weight="bold" font-size="14.00">Mean: 24.42</text>
<text text-anchor="start" x="986" y="-356.8" font-family="Arial" font-weight="bold" font-size="14.00">n = 72</text>
<text text-anchor="start" x="1004.5" y="-338.8" font-family="Arial" font-size="9.00"> </text>
<path fill="none" stroke="#333333" d="M964,-335C964,-335 1048,-335 1048,-335 1054,-335 1060,-341 1060,-347 1060,-347 1060,-387 1060,-387 1060,-393 1054,-399 1048,-399 1048,-399 964,-399 964,-399 958,-399 952,-393 952,-387 952,-387 952,-347 952,-347 952,-341 958,-335 964,-335"/>
<text text-anchor="start" x="1062" y="-363.3" font-family="Arial" font-size="14.00"> &#160;&#160;</text>
<text text-anchor="start" x="952.5" y="-320.8" font-family="Arial" font-weight="bold" font-size="14.00">prev_24h_inflow</text>
</g>
<!-- 21&#45;&gt;22 -->
<g id="edge21" class="edge">
<title>21&#45;&gt;22</title>
<path fill="none" stroke="#888888" d="M1006,-461.67C1006,-453.39 1006,-444.83 1006,-436.38"/>
<polygon fill="#888888" stroke="#888888" points="1009.5,-436.18 1006,-426.18 1002.5,-436.18 1009.5,-436.18"/>
</g>
<!-- 25 -->
<g id="node23" class="node">
<title>25</title>
<text text-anchor="start" x="1150" y="-407.8" font-family="Arial" font-weight="bold" font-size="14.00"> ≥ 15.5</text>
<path fill="#f8766d" fill-opacity="0.780392" stroke="transparent" d="M1126,-335C1126,-335 1216,-335 1216,-335 1222,-335 1228,-341 1228,-347 1228,-347 1228,-387 1228,-387 1228,-393 1222,-399 1216,-399 1216,-399 1126,-399 1126,-399 1120,-399 1114,-393 1114,-387 1114,-387 1114,-347 1114,-347 1114,-341 1120,-335 1126,-335"/>
<text text-anchor="start" x="1115" y="-396.4" font-family="Arial" font-size="2.00"> </text>
<text text-anchor="start" x="1115" y="-390.4" font-family="Arial" font-size="7.00"> &#160;25</text>
<text text-anchor="start" x="1129" y="-373.8" font-family="Arial" font-weight="bold" font-size="14.00">Predict 22.35</text>
<text text-anchor="start" x="1151" y="-356.8" font-family="Arial" font-weight="bold" font-size="14.00">n = 64</text>
<text text-anchor="start" x="1169.5" y="-338.8" font-family="Arial" font-size="9.00"> </text>
<path fill="none" stroke="#333333" d="M1126,-335C1126,-335 1216,-335 1216,-335 1222,-335 1228,-341 1228,-347 1228,-347 1228,-387 1228,-387 1228,-393 1222,-399 1216,-399 1216,-399 1126,-399 1126,-399 1120,-399 1114,-393 1114,-387 1114,-387 1114,-347 1114,-347 1114,-341 1120,-335 1126,-335"/>
<text text-anchor="start" x="1169" y="-320.8" font-family="Arial" font-weight="bold" font-size="14.00"> </text>
</g>
<!-- 21&#45;&gt;25 -->
<g id="edge22" class="edge">
<title>21&#45;&gt;25</title>
<path fill="none" stroke="#888888" d="M1069.32,-461.67C1079.49,-452.3 1090.06,-442.56 1100.39,-433.05"/>
<polygon fill="#888888" stroke="#888888" points="1102.86,-435.53 1107.85,-426.18 1098.12,-430.38 1102.86,-435.53"/>
</g>
<!-- 10 -->
<g id="node12" class="node">
<title>10</title>
<text text-anchor="start" x="200" y="-253.8" font-family="Arial" font-weight="bold" font-size="14.00"> &lt; 27.06</text>
<path fill="#ebebeb" stroke="transparent" d="M183,-181C183,-181 267,-181 267,-181 273,-181 279,-187 279,-193 279,-193 279,-233 279,-233 279,-239 273,-245 267,-245 267,-245 183,-245 183,-245 177,-245 171,-239 171,-233 171,-233 171,-193 171,-193 171,-187 177,-181 183,-181"/>
<text text-anchor="start" x="172" y="-242.4" font-family="Arial" font-size="2.00"> </text>
<text text-anchor="start" x="172" y="-236.4" font-family="Arial" font-size="7.00"> &#160;10</text>
<text text-anchor="start" x="186" y="-219.8" font-family="Arial" font-weight="bold" font-size="14.00">Mean: 26.99</text>
<text text-anchor="start" x="205" y="-202.8" font-family="Arial" font-weight="bold" font-size="14.00">n = 64</text>
<text text-anchor="start" x="223.5" y="-184.8" font-family="Arial" font-size="9.00"> </text>
<path fill="none" stroke="#333333" d="M183,-181C183,-181 267,-181 267,-181 273,-181 279,-187 279,-193 279,-193 279,-233 279,-233 279,-239 273,-245 267,-245 267,-245 183,-245 183,-245 177,-245 171,-239 171,-233 171,-233 171,-193 171,-193 171,-187 177,-181 183,-181"/>
<text text-anchor="start" x="210.5" y="-166.8" font-family="Arial" font-weight="bold" font-size="14.00">time</text>
</g>
<!-- 9&#45;&gt;10 -->
<g id="edge11" class="edge">
<title>9&#45;&gt;10</title>
<path fill="none" stroke="#888888" d="M440.69,-327.05C397.61,-304.47 343.5,-276.11 300.25,-253.44"/>
<polygon fill="#888888" stroke="#888888" points="301.68,-250.24 291.2,-248.7 298.43,-256.44 301.68,-250.24"/>
</g>
<!-- 13 -->
<g id="node13" class="node">
<title>13</title>
<text text-anchor="start" x="478.5" y="-253.8" font-family="Arial" font-weight="bold" font-size="14.00"> ≥ 27.06</text>
<text text-anchor="start" x="431" y="-209.3" font-family="Arial" font-size="14.00"> &#160;&#160;&#160;</text>
<path fill="#ebebeb" stroke="transparent" d="M461,-181C461,-181 545,-181 545,-181 551,-181 557,-187 557,-193 557,-193 557,-233 557,-233 557,-239 551,-245 545,-245 545,-245 461,-245 461,-245 455,-245 449,-239 449,-233 449,-233 449,-193 449,-193 449,-187 455,-181 461,-181"/>
<text text-anchor="start" x="450" y="-242.4" font-family="Arial" font-size="2.00"> </text>
<text text-anchor="start" x="450" y="-236.4" font-family="Arial" font-size="7.00"> &#160;13</text>
<text text-anchor="start" x="464" y="-219.8" font-family="Arial" font-weight="bold" font-size="14.00">Mean: 28.78</text>
<text text-anchor="start" x="479.5" y="-202.8" font-family="Arial" font-weight="bold" font-size="14.00">n = 136</text>
<text text-anchor="start" x="501.5" y="-184.8" font-family="Arial" font-size="9.00"> </text>
<path fill="none" stroke="#333333" d="M461,-181C461,-181 545,-181 545,-181 551,-181 557,-187 557,-193 557,-193 557,-233 557,-233 557,-239 551,-245 545,-245 545,-245 461,-245 461,-245 455,-245 449,-239 449,-233 449,-233 449,-193 449,-193 449,-187 455,-181 461,-181"/>
<text text-anchor="start" x="559" y="-209.3" font-family="Arial" font-size="14.00"> &#160;&#160;&#160;</text>
<text text-anchor="start" x="445.5" y="-166.8" font-family="Arial" font-weight="bold" font-size="14.00">prev_168h_inflow</text>
</g>
<!-- 9&#45;&gt;13 -->
<g id="edge12" class="edge">
<title>9&#45;&gt;13</title>
<path fill="none" stroke="#888888" d="M510.39,-307.67C509.74,-299.39 509.07,-290.83 508.4,-282.38"/>
<polygon fill="#888888" stroke="#888888" points="511.87,-281.87 507.59,-272.18 504.89,-282.42 511.87,-281.87"/>
</g>
<!-- 17 -->
<g id="node18" class="node">
<title>17</title>
<text text-anchor="start" x="663.5" y="-253.8" font-family="Arial" font-weight="bold" font-size="14.00"> &lt; 20.5</text>
<text text-anchor="start" x="613" y="-209.3" font-family="Arial" font-size="14.00"> &#160;&#160;&#160;</text>
<path fill="#ebebeb" stroke="transparent" d="M643,-181C643,-181 727,-181 727,-181 733,-181 739,-187 739,-193 739,-193 739,-233 739,-233 739,-239 733,-245 727,-245 727,-245 643,-245 643,-245 637,-245 631,-239 631,-233 631,-233 631,-193 631,-193 631,-187 637,-181 643,-181"/>
<text text-anchor="start" x="632" y="-242.4" font-family="Arial" font-size="2.00"> </text>
<text text-anchor="start" x="632" y="-236.4" font-family="Arial" font-size="7.00"> &#160;17</text>
<text text-anchor="start" x="646" y="-219.8" font-family="Arial" font-weight="bold" font-size="14.00">Mean: 24.97</text>
<text text-anchor="start" x="665" y="-202.8" font-family="Arial" font-weight="bold" font-size="14.00">n = 80</text>
<text text-anchor="start" x="683.5" y="-184.8" font-family="Arial" font-size="9.00"> </text>
<path fill="none" stroke="#333333" d="M643,-181C643,-181 727,-181 727,-181 733,-181 739,-187 739,-193 739,-193 739,-233 739,-233 739,-239 733,-245 727,-245 727,-245 643,-245 643,-245 637,-245 631,-239 631,-233 631,-233 631,-193 631,-193 631,-187 637,-181 643,-181"/>
<text text-anchor="start" x="741" y="-209.3" font-family="Arial" font-size="14.00"> &#160;&#160;&#160;</text>
<text text-anchor="start" x="627.5" y="-166.8" font-family="Arial" font-weight="bold" font-size="14.00">prev_168h_inflow</text>
</g>
<!-- 16&#45;&gt;17 -->
<g id="edge17" class="edge">
<title>16&#45;&gt;17</title>
<path fill="none" stroke="#888888" d="M685,-307.67C685,-299.39 685,-290.83 685,-282.38"/>
<polygon fill="#888888" stroke="#888888" points="688.5,-282.18 685,-272.18 681.5,-282.18 688.5,-282.18"/>
</g>
<!-- 20 -->
<g id="node19" class="node">
<title>20</title>
<text text-anchor="start" x="833" y="-253.8" font-family="Arial" font-weight="bold" font-size="14.00"> ≥ 20.5</text>
<path fill="#f8766d" fill-opacity="0.737255" stroke="transparent" d="M809,-181C809,-181 899,-181 899,-181 905,-181 911,-187 911,-193 911,-193 911,-233 911,-233 911,-239 905,-245 899,-245 899,-245 809,-245 809,-245 803,-245 797,-239 797,-233 797,-233 797,-193 797,-193 797,-187 803,-181 809,-181"/>
<text text-anchor="start" x="798" y="-242.4" font-family="Arial" font-size="2.00"> </text>
<text text-anchor="start" x="798" y="-236.4" font-family="Arial" font-size="7.00"> &#160;20</text>
<text text-anchor="start" x="812" y="-219.8" font-family="Arial" font-weight="bold" font-size="14.00">Predict 23.04</text>
<text text-anchor="start" x="834" y="-202.8" font-family="Arial" font-weight="bold" font-size="14.00">n = 60</text>
<text text-anchor="start" x="852.5" y="-184.8" font-family="Arial" font-size="9.00"> </text>
<path fill="none" stroke="#333333" d="M809,-181C809,-181 899,-181 899,-181 905,-181 911,-187 911,-193 911,-193 911,-233 911,-233 911,-239 905,-245 899,-245 899,-245 809,-245 809,-245 803,-245 797,-239 797,-233 797,-233 797,-193 797,-193 797,-187 803,-181 809,-181"/>
<text text-anchor="start" x="852" y="-166.8" font-family="Arial" font-weight="bold" font-size="14.00"> </text>
</g>
<!-- 16&#45;&gt;20 -->
<g id="edge18" class="edge">
<title>16&#45;&gt;20</title>
<path fill="none" stroke="#888888" d="M749.86,-307.67C760.27,-298.3 771.1,-288.56 781.67,-279.05"/>
<polygon fill="#888888" stroke="#888888" points="784.22,-281.47 789.32,-272.18 779.54,-276.26 784.22,-281.47"/>
</g>
<!-- 11 -->
<g id="node14" class="node">
<title>11</title>
<text text-anchor="start" x="51.5" y="-99.8" font-family="Arial" font-weight="bold" font-size="14.00"> &lt; 7.5</text>
<path fill="#f8766d" fill-opacity="0.572549" stroke="transparent" d="M24,-27C24,-27 114,-27 114,-27 120,-27 126,-33 126,-39 126,-39 126,-79 126,-79 126,-85 120,-91 114,-91 114,-91 24,-91 24,-91 18,-91 12,-85 12,-79 12,-79 12,-39 12,-39 12,-33 18,-27 24,-27"/>
<text text-anchor="start" x="13" y="-88.4" font-family="Arial" font-size="2.00"> </text>
<text text-anchor="start" x="13" y="-82.4" font-family="Arial" font-size="7.00"> &#160;11</text>
<text text-anchor="start" x="27" y="-65.8" font-family="Arial" font-weight="bold" font-size="14.00">Predict 25.79</text>
<text text-anchor="start" x="49" y="-48.8" font-family="Arial" font-weight="bold" font-size="14.00">n = 20</text>
<text text-anchor="start" x="67.5" y="-30.8" font-family="Arial" font-size="9.00"> </text>
<path fill="none" stroke="#333333" d="M24,-27C24,-27 114,-27 114,-27 120,-27 126,-33 126,-39 126,-39 126,-79 126,-79 126,-85 120,-91 114,-91 114,-91 24,-91 24,-91 18,-91 12,-85 12,-79 12,-79 12,-39 12,-39 12,-33 18,-27 24,-27"/>
<text text-anchor="start" x="67" y="-12.8" font-family="Arial" font-weight="bold" font-size="14.00"> </text>
</g>
<!-- 10&#45;&gt;11 -->
<g id="edge13" class="edge">
<title>10&#45;&gt;11</title>
<path fill="none" stroke="#888888" d="M165.13,-153.67C155.62,-144.39 145.72,-134.75 136.05,-125.33"/>
<polygon fill="#888888" stroke="#888888" points="138.31,-122.65 128.71,-118.18 133.43,-127.66 138.31,-122.65"/>
</g>
<!-- 12 -->
<g id="node15" class="node">
<title>12</title>
<text text-anchor="start" x="208" y="-99.8" font-family="Arial" font-weight="bold" font-size="14.00"> ≥ 7.5</text>
<path fill="#f8766d" fill-opacity="0.466667" stroke="transparent" d="M180,-27C180,-27 270,-27 270,-27 276,-27 282,-33 282,-39 282,-39 282,-79 282,-79 282,-85 276,-91 270,-91 270,-91 180,-91 180,-91 174,-91 168,-85 168,-79 168,-79 168,-39 168,-39 168,-33 174,-27 180,-27"/>
<text text-anchor="start" x="169" y="-88.4" font-family="Arial" font-size="2.00"> </text>
<text text-anchor="start" x="169" y="-82.4" font-family="Arial" font-size="7.00"> &#160;12</text>
<text text-anchor="start" x="183" y="-65.8" font-family="Arial" font-weight="bold" font-size="14.00">Predict 27.53</text>
<text text-anchor="start" x="205" y="-48.8" font-family="Arial" font-weight="bold" font-size="14.00">n = 44</text>
<text text-anchor="start" x="223.5" y="-30.8" font-family="Arial" font-size="9.00"> </text>
<path fill="none" stroke="#333333" d="M180,-27C180,-27 270,-27 270,-27 276,-27 282,-33 282,-39 282,-39 282,-79 282,-79 282,-85 276,-91 270,-91 270,-91 180,-91 180,-91 174,-91 168,-85 168,-79 168,-79 168,-39 168,-39 168,-33 174,-27 180,-27"/>
<text text-anchor="start" x="223" y="-12.8" font-family="Arial" font-weight="bold" font-size="14.00"> </text>
</g>
<!-- 10&#45;&gt;12 -->
<g id="edge14" class="edge">
<title>10&#45;&gt;12</title>
<path fill="none" stroke="#888888" d="M225,-153.67C225,-145.39 225,-136.83 225,-128.38"/>
<polygon fill="#888888" stroke="#888888" points="228.5,-128.18 225,-118.18 221.5,-128.18 228.5,-128.18"/>
</g>
<!-- 14 -->
<g id="node16" class="node">
<title>14</title>
<text text-anchor="start" x="352" y="-99.8" font-family="Arial" font-weight="bold" font-size="14.00"> &lt; 27.32</text>
<path fill="#f8766d" fill-opacity="0.447059" stroke="transparent" d="M336,-27C336,-27 418,-27 418,-27 424,-27 430,-33 430,-39 430,-39 430,-79 430,-79 430,-85 424,-91 418,-91 418,-91 336,-91 336,-91 330,-91 324,-85 324,-79 324,-79 324,-39 324,-39 324,-33 330,-27 336,-27"/>
<text text-anchor="start" x="325" y="-88.4" font-family="Arial" font-size="2.00"> </text>
<text text-anchor="start" x="325" y="-82.4" font-family="Arial" font-size="7.00"> &#160;14</text>
<text text-anchor="start" x="339" y="-65.8" font-family="Arial" font-weight="bold" font-size="14.00">Predict 27.8</text>
<text text-anchor="start" x="357" y="-48.8" font-family="Arial" font-weight="bold" font-size="14.00">n = 26</text>
<text text-anchor="start" x="375.5" y="-30.8" font-family="Arial" font-size="9.00"> </text>
<path fill="none" stroke="#333333" d="M336,-27C336,-27 418,-27 418,-27 424,-27 430,-33 430,-39 430,-39 430,-79 430,-79 430,-85 424,-91 418,-91 418,-91 336,-91 336,-91 330,-91 324,-85 324,-79 324,-79 324,-39 324,-39 324,-33 330,-27 336,-27"/>
<text text-anchor="start" x="375" y="-12.8" font-family="Arial" font-weight="bold" font-size="14.00"> </text>
</g>
<!-- 13&#45;&gt;14 -->
<g id="edge15" class="edge">
<title>13&#45;&gt;14</title>
<path fill="none" stroke="#888888" d="M454.65,-153.67C447.11,-144.58 439.28,-135.13 431.61,-125.88"/>
<polygon fill="#888888" stroke="#888888" points="434.3,-123.64 425.23,-118.18 428.91,-128.11 434.3,-123.64"/>
</g>
<!-- 15 -->
<g id="node17" class="node">
<title>15</title>
<text text-anchor="start" x="504.5" y="-99.8" font-family="Arial" font-weight="bold" font-size="14.00"> ≥ 27.32</text>
<path fill="#f8766d" fill-opacity="0.376471" stroke="transparent" d="M484,-27C484,-27 574,-27 574,-27 580,-27 586,-33 586,-39 586,-39 586,-79 586,-79 586,-85 580,-91 574,-91 574,-91 484,-91 484,-91 478,-91 472,-85 472,-79 472,-79 472,-39 472,-39 472,-33 478,-27 484,-27"/>
<text text-anchor="start" x="473" y="-88.4" font-family="Arial" font-size="2.00"> </text>
<text text-anchor="start" x="473" y="-82.4" font-family="Arial" font-size="7.00"> &#160;15</text>
<text text-anchor="start" x="487" y="-65.8" font-family="Arial" font-weight="bold" font-size="14.00">Predict 29.02</text>
<text text-anchor="start" x="506" y="-48.8" font-family="Arial" font-weight="bold" font-size="14.00">n = 110</text>
<text text-anchor="start" x="527.5" y="-30.8" font-family="Arial" font-size="9.00"> </text>
<path fill="none" stroke="#333333" d="M484,-27C484,-27 574,-27 574,-27 580,-27 586,-33 586,-39 586,-39 586,-79 586,-79 586,-85 580,-91 574,-91 574,-91 484,-91 484,-91 478,-91 472,-85 472,-79 472,-79 472,-39 472,-39 472,-33 478,-27 484,-27"/>
<text text-anchor="start" x="527" y="-12.8" font-family="Arial" font-weight="bold" font-size="14.00"> </text>
</g>
<!-- 13&#45;&gt;15 -->
<g id="edge16" class="edge">
<title>13&#45;&gt;15</title>
<path fill="none" stroke="#888888" d="M512.98,-153.67C514.41,-145.3 515.89,-136.64 517.35,-128.1"/>
<polygon fill="#888888" stroke="#888888" points="520.81,-128.62 519.05,-118.18 513.91,-127.44 520.81,-128.62"/>
</g>
<!-- 18 -->
<g id="node20" class="node">
<title>18</title>
<text text-anchor="start" x="660" y="-99.8" font-family="Arial" font-weight="bold" font-size="14.00"> &lt; 26.61</text>
<path fill="#f8766d" fill-opacity="0.650980" stroke="transparent" d="M640,-27C640,-27 730,-27 730,-27 736,-27 742,-33 742,-39 742,-39 742,-79 742,-79 742,-85 736,-91 730,-91 730,-91 640,-91 640,-91 634,-91 628,-85 628,-79 628,-79 628,-39 628,-39 628,-33 634,-27 640,-27"/>
<text text-anchor="start" x="629" y="-88.4" font-family="Arial" font-size="2.00"> </text>
<text text-anchor="start" x="629" y="-82.4" font-family="Arial" font-size="7.00"> &#160;18</text>
<text text-anchor="start" x="643" y="-65.8" font-family="Arial" font-weight="bold" font-size="14.00">Predict 24.49</text>
<text text-anchor="start" x="665" y="-48.8" font-family="Arial" font-weight="bold" font-size="14.00">n = 61</text>
<text text-anchor="start" x="683.5" y="-30.8" font-family="Arial" font-size="9.00"> </text>
<path fill="none" stroke="#333333" d="M640,-27C640,-27 730,-27 730,-27 736,-27 742,-33 742,-39 742,-39 742,-79 742,-79 742,-85 736,-91 730,-91 730,-91 640,-91 640,-91 634,-91 628,-85 628,-79 628,-79 628,-39 628,-39 628,-33 634,-27 640,-27"/>
<text text-anchor="start" x="683" y="-12.8" font-family="Arial" font-weight="bold" font-size="14.00"> </text>
</g>
<!-- 17&#45;&gt;18 -->
<g id="edge19" class="edge">
<title>17&#45;&gt;18</title>
<path fill="none" stroke="#888888" d="M685,-153.67C685,-145.39 685,-136.83 685,-128.38"/>
<polygon fill="#888888" stroke="#888888" points="688.5,-128.18 685,-118.18 681.5,-128.18 688.5,-128.18"/>
</g>
<!-- 19 -->
<g id="node21" class="node">
<title>19</title>
<text text-anchor="start" x="816.5" y="-99.8" font-family="Arial" font-weight="bold" font-size="14.00"> ≥ 26.61</text>
<path fill="#f8766d" fill-opacity="0.529412" stroke="transparent" d="M796,-27C796,-27 886,-27 886,-27 892,-27 898,-33 898,-39 898,-39 898,-79 898,-79 898,-85 892,-91 886,-91 886,-91 796,-91 796,-91 790,-91 784,-85 784,-79 784,-79 784,-39 784,-39 784,-33 790,-27 796,-27"/>
<text text-anchor="start" x="785" y="-88.4" font-family="Arial" font-size="2.00"> </text>
<text text-anchor="start" x="785" y="-82.4" font-family="Arial" font-size="7.00"> &#160;19</text>
<text text-anchor="start" x="799" y="-65.8" font-family="Arial" font-weight="bold" font-size="14.00">Predict 26.49</text>
<text text-anchor="start" x="821" y="-48.8" font-family="Arial" font-weight="bold" font-size="14.00">n = 19</text>
<text text-anchor="start" x="839.5" y="-30.8" font-family="Arial" font-size="9.00"> </text>
<path fill="none" stroke="#333333" d="M796,-27C796,-27 886,-27 886,-27 892,-27 898,-33 898,-39 898,-39 898,-79 898,-79 898,-85 892,-91 886,-91 886,-91 796,-91 796,-91 790,-91 784,-85 784,-79 784,-79 784,-39 784,-39 784,-33 790,-27 796,-27"/>
<text text-anchor="start" x="839" y="-12.8" font-family="Arial" font-weight="bold" font-size="14.00"> </text>
</g>
<!-- 17&#45;&gt;19 -->
<g id="edge20" class="edge">
<title>17&#45;&gt;19</title>
<path fill="none" stroke="#888888" d="M744.87,-153.67C754.38,-144.39 764.28,-134.75 773.95,-125.33"/>
<polygon fill="#888888" stroke="#888888" points="776.57,-127.66 781.29,-118.18 771.69,-122.65 776.57,-127.66"/>
</g>
<!-- 23 -->
<g id="node24" class="node">
<title>23</title>
<text text-anchor="start" x="981" y="-253.8" font-family="Arial" font-weight="bold" font-size="14.00"> &lt; 26.55</text>
<path fill="#f8766d" fill-opacity="0.705882" stroke="transparent" d="M965,-181C965,-181 1047,-181 1047,-181 1053,-181 1059,-187 1059,-193 1059,-193 1059,-233 1059,-233 1059,-239 1053,-245 1047,-245 1047,-245 965,-245 965,-245 959,-245 953,-239 953,-233 953,-233 953,-193 953,-193 953,-187 959,-181 965,-181"/>
<text text-anchor="start" x="954" y="-242.4" font-family="Arial" font-size="2.00"> </text>
<text text-anchor="start" x="954" y="-236.4" font-family="Arial" font-size="7.00"> &#160;23</text>
<text text-anchor="start" x="968" y="-219.8" font-family="Arial" font-weight="bold" font-size="14.00">Predict 23.6</text>
<text text-anchor="start" x="986" y="-202.8" font-family="Arial" font-weight="bold" font-size="14.00">n = 32</text>
<text text-anchor="start" x="1004.5" y="-184.8" font-family="Arial" font-size="9.00"> </text>
<path fill="none" stroke="#333333" d="M965,-181C965,-181 1047,-181 1047,-181 1053,-181 1059,-187 1059,-193 1059,-193 1059,-233 1059,-233 1059,-239 1053,-245 1047,-245 1047,-245 965,-245 965,-245 959,-245 953,-239 953,-233 953,-233 953,-193 953,-193 953,-187 959,-181 965,-181"/>
<text text-anchor="start" x="1004" y="-166.8" font-family="Arial" font-weight="bold" font-size="14.00"> </text>
</g>
<!-- 22&#45;&gt;23 -->
<g id="edge23" class="edge">
<title>22&#45;&gt;23</title>
<path fill="none" stroke="#888888" d="M1006,-307.67C1006,-299.39 1006,-290.83 1006,-282.38"/>
<polygon fill="#888888" stroke="#888888" points="1009.5,-282.18 1006,-272.18 1002.5,-282.18 1009.5,-282.18"/>
</g>
<!-- 24 -->
<g id="node25" class="node">
<title>24</title>
<text text-anchor="start" x="1133.5" y="-253.8" font-family="Arial" font-weight="bold" font-size="14.00"> ≥ 26.55</text>
<path fill="#f8766d" fill-opacity="0.615686" stroke="transparent" d="M1113,-181C1113,-181 1203,-181 1203,-181 1209,-181 1215,-187 1215,-193 1215,-193 1215,-233 1215,-233 1215,-239 1209,-245 1203,-245 1203,-245 1113,-245 1113,-245 1107,-245 1101,-239 1101,-233 1101,-233 1101,-193 1101,-193 1101,-187 1107,-181 1113,-181"/>
<text text-anchor="start" x="1102" y="-242.4" font-family="Arial" font-size="2.00"> </text>
<text text-anchor="start" x="1102" y="-236.4" font-family="Arial" font-size="7.00"> &#160;24</text>
<text text-anchor="start" x="1116" y="-219.8" font-family="Arial" font-weight="bold" font-size="14.00">Predict 25.08</text>
<text text-anchor="start" x="1138" y="-202.8" font-family="Arial" font-weight="bold" font-size="14.00">n = 40</text>
<text text-anchor="start" x="1156.5" y="-184.8" font-family="Arial" font-size="9.00"> </text>
<path fill="none" stroke="#333333" d="M1113,-181C1113,-181 1203,-181 1203,-181 1209,-181 1215,-187 1215,-193 1215,-193 1215,-233 1215,-233 1215,-239 1209,-245 1203,-245 1203,-245 1113,-245 1113,-245 1107,-245 1101,-239 1101,-233 1101,-233 1101,-193 1101,-193 1101,-187 1107,-181 1113,-181"/>
<text text-anchor="start" x="1156" y="-166.8" font-family="Arial" font-weight="bold" font-size="14.00"> </text>
</g>
<!-- 22&#45;&gt;24 -->
<g id="edge24" class="edge">
<title>22&#45;&gt;24</title>
<path fill="none" stroke="#888888" d="M1064.33,-307.67C1073.61,-298.39 1083.25,-288.75 1092.67,-279.33"/>
<polygon fill="#888888" stroke="#888888" points="1095.23,-281.72 1099.82,-272.18 1090.28,-276.77 1095.23,-281.72"/>
</g>
</g>
</svg>
