<?xml version="1.0" encoding="UTF-8" standalone="no"?>
<!DOCTYPE svg PUBLIC "-//W3C//DTD SVG 1.1//EN"
 "http://www.w3.org/Graphics/SVG/1.1/DTD/svg11.dtd">
<!-- Generated by graphviz version 2.50.0 (20211204.2007)
 -->
<!-- Pages: 1 -->
<svg width="2172pt" height="742pt"
 viewBox="0.00 0.00 2171.50 742.00" xmlns="http://www.w3.org/2000/svg" xmlns:xlink="http://www.w3.org/1999/xlink">
<g id="graph0" class="graph" transform="scale(1 1) rotate(0) translate(4 738)">
<polygon fill="white" stroke="transparent" points="-4,4 -4,-738 2167.5,-738 2167.5,4 -4,4"/>
<!-- 1 -->
<g id="node1" class="node">
<title>1</title>
<text text-anchor="start" x="1001.5" y="-715.8" font-family="Arial" font-weight="bold" font-size="14.00"> </text>
<text text-anchor="start" x="932" y="-671.3" font-family="Arial" font-size="14.00"> &#160;&#160;&#160;</text>
<path fill="#ebebeb" stroke="transparent" d="M962,-643C962,-643 1045,-643 1045,-643 1051,-643 1057,-649 1057,-655 1057,-655 1057,-695 1057,-695 1057,-701 1051,-707 1045,-707 1045,-707 962,-707 962,-707 956,-707 950,-701 950,-695 950,-695 950,-655 950,-655 950,-649 956,-643 962,-643"/>
<text text-anchor="start" x="951" y="-704.4" font-family="Arial" font-size="2.00"> </text>
<text text-anchor="start" x="951" y="-698.4" font-family="Arial" font-size="7.00"> &#160;1</text>
<text text-anchor="start" x="965" y="-681.8" font-family="Arial" font-weight="bold" font-size="14.00">Mean: 11.17</text>
<text text-anchor="start" x="980" y="-664.8" font-family="Arial" font-weight="bold" font-size="14.00">n = 672</text>
<text text-anchor="start" x="1002" y="-646.8" font-family="Arial" font-size="9.00"> </text>
<path fill="none" stroke="#333333" d="M962,-643C962,-643 1045,-643 1045,-643 1051,-643 1057,-649 1057,-655 1057,-655 1057,-695 1057,-695 1057,-701 1051,-707 1045,-707 1045,-707 962,-707 962,-707 956,-707 950,-701 950,-695 950,-695 950,-655 950,-655 950,-649 956,-643 962,-643"/>
<text text-anchor="start" x="1059" y="-671.3" font-family="Arial" font-size="14.00"> &#160;&#160;&#160;</text>
<text text-anchor="start" x="946" y="-628.8" font-family="Arial" font-weight="bold" font-size="14.00">prev_168h_inflow</text>
</g>
<!-- 2 -->
<g id="node2" class="node">
<title>2</title>
<text text-anchor="start" x="748.5" y="-561.8" font-family="Arial" font-weight="bold" font-size="14.00"> &lt; 11.39</text>
<text text-anchor="start" x="701" y="-517.3" font-family="Arial" font-size="14.00"> &#160;&#160;&#160;</text>
<path fill="#ebebeb" stroke="transparent" d="M731,-489C731,-489 815,-489 815,-489 821,-489 827,-495 827,-501 827,-501 827,-541 827,-541 827,-547 821,-553 815,-553 815,-553 731,-553 731,-553 725,-553 719,-547 719,-541 719,-541 719,-501 719,-501 719,-495 725,-489 731,-489"/>
<text text-anchor="start" x="720" y="-550.4" font-family="Arial" font-size="2.00"> </text>
<text text-anchor="start" x="720" y="-544.4" font-family="Arial" font-size="7.00"> &#160;2</text>
<text text-anchor="start" x="734" y="-527.8" font-family="Arial" font-weight="bold" font-size="14.00">Mean: 10.32</text>
<text text-anchor="start" x="749.5" y="-510.8" font-family="Arial" font-weight="bold" font-size="14.00">n = 363</text>
<text text-anchor="start" x="771.5" y="-492.8" font-family="Arial" font-size="9.00"> </text>
<path fill="none" stroke="#333333" d="M731,-489C731,-489 815,-489 815,-489 821,-489 827,-495 827,-501 827,-501 827,-541 827,-541 827,-547 821,-553 815,-553 815,-553 731,-553 731,-553 725,-553 719,-547 719,-541 719,-541 719,-501 719,-501 719,-495 725,-489 731,-489"/>
<text text-anchor="start" x="829" y="-517.3" font-family="Arial" font-size="14.00"> &#160;&#160;&#160;</text>
<text text-anchor="start" x="715.5" y="-474.8" font-family="Arial" font-weight="bold" font-size="14.00">prev_168h_inflow</text>
</g>
<!-- 1&#45;&gt;2 -->
<g id="edge1" class="edge">
<title>1&#45;&gt;2</title>
<path fill="none" stroke="#888888" d="M921.26,-619.98C902.59,-607.64 882.64,-594.46 863.62,-581.89"/>
<polygon fill="#888888" stroke="#888888" points="865.52,-578.95 855.25,-576.36 861.66,-584.79 865.52,-578.95"/>
</g>
<!-- 15 -->
<g id="node3" class="node">
<title>15</title>
<text text-anchor="start" x="1214.5" y="-561.8" font-family="Arial" font-weight="bold" font-size="14.00"> ≥ 11.39</text>
<path fill="#ebebeb" stroke="transparent" d="M1197,-489C1197,-489 1281,-489 1281,-489 1287,-489 1293,-495 1293,-501 1293,-501 1293,-541 1293,-541 1293,-547 1287,-553 1281,-553 1281,-553 1197,-553 1197,-553 1191,-553 1185,-547 1185,-541 1185,-541 1185,-501 1185,-501 1185,-495 1191,-489 1197,-489"/>
<text text-anchor="start" x="1186" y="-550.4" font-family="Arial" font-size="2.00"> </text>
<text text-anchor="start" x="1186" y="-544.4" font-family="Arial" font-size="7.00"> &#160;15</text>
<text text-anchor="start" x="1200" y="-527.8" font-family="Arial" font-weight="bold" font-size="14.00">Mean: 12.18</text>
<text text-anchor="start" x="1215.5" y="-510.8" font-family="Arial" font-weight="bold" font-size="14.00">n = 309</text>
<text text-anchor="start" x="1237.5" y="-492.8" font-family="Arial" font-size="9.00"> </text>
<path fill="none" stroke="#333333" d="M1197,-489C1197,-489 1281,-489 1281,-489 1287,-489 1293,-495 1293,-501 1293,-501 1293,-541 1293,-541 1293,-547 1287,-553 1281,-553 1281,-553 1197,-553 1197,-553 1191,-553 1185,-547 1185,-541 1185,-541 1185,-501 1185,-501 1185,-495 1191,-489 1197,-489"/>
<text text-anchor="start" x="1224.5" y="-474.8" font-family="Arial" font-weight="bold" font-size="14.00">time</text>
</g>
<!-- 1&#45;&gt;15 -->
<g id="edge2" class="edge">
<title>1&#45;&gt;15</title>
<path fill="none" stroke="#888888" d="M1084.55,-621.48C1110.4,-604.82 1138.85,-586.5 1164.2,-570.17"/>
<polygon fill="#888888" stroke="#888888" points="1166.17,-573.07 1172.68,-564.72 1162.37,-567.19 1166.17,-573.07"/>
</g>
<!-- 3 -->
<g id="node4" class="node">
<title>3</title>
<text text-anchor="start" x="437" y="-407.8" font-family="Arial" font-weight="bold" font-size="14.00"> &lt; 10.14</text>
<path fill="#ebebeb" stroke="transparent" d="M420,-335C420,-335 504,-335 504,-335 510,-335 516,-341 516,-347 516,-347 516,-387 516,-387 516,-393 510,-399 504,-399 504,-399 420,-399 420,-399 414,-399 408,-393 408,-387 408,-387 408,-347 408,-347 408,-341 414,-335 420,-335"/>
<text text-anchor="start" x="409" y="-396.4" font-family="Arial" font-size="2.00"> </text>
<text text-anchor="start" x="409" y="-390.4" font-family="Arial" font-size="7.00"> &#160;3</text>
<text text-anchor="start" x="423" y="-373.8" font-family="Arial" font-weight="bold" font-size="14.00">Mean: 9.692</text>
<text text-anchor="start" x="438.5" y="-356.8" font-family="Arial" font-weight="bold" font-size="14.00">n = 194</text>
<text text-anchor="start" x="460.5" y="-338.8" font-family="Arial" font-size="9.00"> </text>
<path fill="none" stroke="#333333" d="M420,-335C420,-335 504,-335 504,-335 510,-335 516,-341 516,-347 516,-347 516,-387 516,-387 516,-393 510,-399 504,-399 504,-399 420,-399 420,-399 414,-399 408,-393 408,-387 408,-387 408,-347 408,-347 408,-341 414,-335 420,-335"/>
<text text-anchor="start" x="419.5" y="-320.8" font-family="Arial" font-weight="bold" font-size="14.00">day_of_week</text>
</g>
<!-- 2&#45;&gt;3 -->
<g id="edge3" class="edge">
<title>2&#45;&gt;3</title>
<path fill="none" stroke="#888888" d="M690.88,-479.86C643.22,-456.57 583.62,-427.44 537.19,-404.75"/>
<polygon fill="#888888" stroke="#888888" points="538.61,-401.55 528.09,-400.3 535.54,-407.84 538.61,-401.55"/>
</g>
<!-- 10 -->
<g id="node5" class="node">
<title>10</title>
<text text-anchor="start" x="749" y="-407.8" font-family="Arial" font-weight="bold" font-size="14.00"> ≥ 10.14</text>
<path fill="#ebebeb" stroke="transparent" d="M732,-335C732,-335 815,-335 815,-335 821,-335 827,-341 827,-347 827,-347 827,-387 827,-387 827,-393 821,-399 815,-399 815,-399 732,-399 732,-399 726,-399 720,-393 720,-387 720,-387 720,-347 720,-347 720,-341 726,-335 732,-335"/>
<text text-anchor="start" x="721" y="-396.4" font-family="Arial" font-size="2.00"> </text>
<text text-anchor="start" x="721" y="-390.4" font-family="Arial" font-size="7.00"> &#160;10</text>
<text text-anchor="start" x="735" y="-373.8" font-family="Arial" font-weight="bold" font-size="14.00">Mean: 11.04</text>
<text text-anchor="start" x="750" y="-356.8" font-family="Arial" font-weight="bold" font-size="14.00">n = 169</text>
<text text-anchor="start" x="772" y="-338.8" font-family="Arial" font-size="9.00"> </text>
<path fill="none" stroke="#333333" d="M732,-335C732,-335 815,-335 815,-335 821,-335 827,-341 827,-347 827,-347 827,-387 827,-387 827,-393 821,-399 815,-399 815,-399 732,-399 732,-399 726,-399 720,-393 720,-387 720,-387 720,-347 720,-347 720,-341 726,-335 732,-335"/>
<text text-anchor="start" x="759" y="-320.8" font-family="Arial" font-weight="bold" font-size="14.00">time</text>
</g>
<!-- 2&#45;&gt;10 -->
<g id="edge4" class="edge">
<title>2&#45;&gt;10</title>
<path fill="none" stroke="#888888" d="M773,-461.67C773,-453.39 773,-444.83 773,-436.38"/>
<polygon fill="#888888" stroke="#888888" points="776.5,-436.18 773,-426.18 769.5,-436.18 776.5,-436.18"/>
</g>
<!-- 16 -->
<g id="node16" class="node">
<title>16</title>
<text text-anchor="start" x="1218" y="-407.8" font-family="Arial" font-weight="bold" font-size="14.00"> &lt; 11.5</text>
<text text-anchor="start" x="1167" y="-363.3" font-family="Arial" font-size="14.00"> &#160;&#160;&#160;</text>
<path fill="#ebebeb" stroke="transparent" d="M1197,-335C1197,-335 1281,-335 1281,-335 1287,-335 1293,-341 1293,-347 1293,-347 1293,-387 1293,-387 1293,-393 1287,-399 1281,-399 1281,-399 1197,-399 1197,-399 1191,-399 1185,-393 1185,-387 1185,-387 1185,-347 1185,-347 1185,-341 1191,-335 1197,-335"/>
<text text-anchor="start" x="1186" y="-396.4" font-family="Arial" font-size="2.00"> </text>
<text text-anchor="start" x="1186" y="-390.4" font-family="Arial" font-size="7.00"> &#160;16</text>
<text text-anchor="start" x="1200" y="-373.8" font-family="Arial" font-weight="bold" font-size="14.00">Mean: 12.68</text>
<text text-anchor="start" x="1216" y="-356.8" font-family="Arial" font-weight="bold" font-size="14.00">n = 118</text>
<text text-anchor="start" x="1237.5" y="-338.8" font-family="Arial" font-size="9.00"> </text>
<path fill="none" stroke="#333333" d="M1197,-335C1197,-335 1281,-335 1281,-335 1287,-335 1293,-341 1293,-347 1293,-347 1293,-387 1293,-387 1293,-393 1287,-399 1281,-399 1281,-399 1197,-399 1197,-399 1191,-399 1185,-393 1185,-387 1185,-387 1185,-347 1185,-347 1185,-341 1191,-335 1197,-335"/>
<text text-anchor="start" x="1295" y="-363.3" font-family="Arial" font-size="14.00"> &#160;&#160;&#160;</text>
<text text-anchor="start" x="1181.5" y="-320.8" font-family="Arial" font-weight="bold" font-size="14.00">prev_168h_inflow</text>
</g>
<!-- 15&#45;&gt;16 -->
<g id="edge15" class="edge">
<title>15&#45;&gt;16</title>
<path fill="none" stroke="#888888" d="M1239,-461.67C1239,-453.39 1239,-444.83 1239,-436.38"/>
<polygon fill="#888888" stroke="#888888" points="1242.5,-436.18 1239,-426.18 1235.5,-436.18 1242.5,-436.18"/>
</g>
<!-- 23 -->
<g id="node17" class="node">
<title>23</title>
<text text-anchor="start" x="1685" y="-407.8" font-family="Arial" font-weight="bold" font-size="14.00"> ≥ 11.5</text>
<path fill="#ebebeb" stroke="transparent" d="M1664,-335C1664,-335 1747,-335 1747,-335 1753,-335 1759,-341 1759,-347 1759,-347 1759,-387 1759,-387 1759,-393 1753,-399 1747,-399 1747,-399 1664,-399 1664,-399 1658,-399 1652,-393 1652,-387 1652,-387 1652,-347 1652,-347 1652,-341 1658,-335 1664,-335"/>
<text text-anchor="start" x="1653" y="-396.4" font-family="Arial" font-size="2.00"> </text>
<text text-anchor="start" x="1653" y="-390.4" font-family="Arial" font-size="7.00"> &#160;23</text>
<text text-anchor="start" x="1667" y="-373.8" font-family="Arial" font-weight="bold" font-size="14.00">Mean: 11.87</text>
<text text-anchor="start" x="1682" y="-356.8" font-family="Arial" font-weight="bold" font-size="14.00">n = 191</text>
<text text-anchor="start" x="1704" y="-338.8" font-family="Arial" font-size="9.00"> </text>
<path fill="none" stroke="#333333" d="M1664,-335C1664,-335 1747,-335 1747,-335 1753,-335 1759,-341 1759,-347 1759,-347 1759,-387 1759,-387 1759,-393 1753,-399 1747,-399 1747,-399 1664,-399 1664,-399 1658,-399 1652,-393 1652,-387 1652,-387 1652,-347 1652,-347 1652,-341 1658,-335 1664,-335"/>
<text text-anchor="start" x="1663" y="-320.8" font-family="Arial" font-weight="bold" font-size="14.00">day_of_week</text>
</g>
<!-- 15&#45;&gt;23 -->
<g id="edge16" class="edge">
<title>15&#45;&gt;23</title>
<path fill="none" stroke="#888888" d="M1305.27,-498.38C1390.98,-470.43 1539.88,-421.86 1629.75,-392.54"/>
<polygon fill="#888888" stroke="#888888" points="1630.91,-395.85 1639.33,-389.42 1628.74,-389.19 1630.91,-395.85"/>
</g>
<!-- 4 -->
<g id="node6" class="node">
<title>4</title>
<text text-anchor="start" x="207.5" y="-253.8" font-family="Arial" font-weight="bold" font-size="14.00"> &lt; 5.5</text>
<path fill="#ebebeb" stroke="transparent" d="M183,-181C183,-181 267,-181 267,-181 273,-181 279,-187 279,-193 279,-193 279,-233 279,-233 279,-239 273,-245 267,-245 267,-245 183,-245 183,-245 177,-245 171,-239 171,-233 171,-233 171,-193 171,-193 171,-187 177,-181 183,-181"/>
<text text-anchor="start" x="172" y="-242.4" font-family="Arial" font-size="2.00"> </text>
<text text-anchor="start" x="172" y="-236.4" font-family="Arial" font-size="7.00"> &#160;4</text>
<text text-anchor="start" x="186" y="-219.8" font-family="Arial" font-weight="bold" font-size="14.00">Mean: 9.638</text>
<text text-anchor="start" x="201.5" y="-202.8" font-family="Arial" font-weight="bold" font-size="14.00">n = 137</text>
<text text-anchor="start" x="223.5" y="-184.8" font-family="Arial" font-size="9.00"> </text>
<path fill="none" stroke="#333333" d="M183,-181C183,-181 267,-181 267,-181 273,-181 279,-187 279,-193 279,-193 279,-233 279,-233 279,-239 273,-245 267,-245 267,-245 183,-245 183,-245 177,-245 171,-239 171,-233 171,-233 171,-193 171,-193 171,-187 177,-181 183,-181"/>
<text text-anchor="start" x="210.5" y="-166.8" font-family="Arial" font-weight="bold" font-size="14.00">time</text>
</g>
<!-- 3&#45;&gt;4 -->
<g id="edge5" class="edge">
<title>3&#45;&gt;4</title>
<path fill="none" stroke="#888888" d="M395.98,-323.66C366.06,-304.47 330.54,-281.69 299.66,-261.88"/>
<polygon fill="#888888" stroke="#888888" points="301.38,-258.83 291.07,-256.38 297.6,-264.72 301.38,-258.83"/>
</g>
<!-- 7 -->
<g id="node7" class="node">
<title>7</title>
<text text-anchor="start" x="445" y="-253.8" font-family="Arial" font-weight="bold" font-size="14.00"> ≥ 5.5</text>
<text text-anchor="start" x="394" y="-209.3" font-family="Arial" font-size="14.00"> &#160;&#160;</text>
<path fill="#ebebeb" stroke="transparent" d="M420,-181C420,-181 504,-181 504,-181 510,-181 516,-187 516,-193 516,-193 516,-233 516,-233 516,-239 510,-245 504,-245 504,-245 420,-245 420,-245 414,-245 408,-239 408,-233 408,-233 408,-193 408,-193 408,-187 414,-181 420,-181"/>
<text text-anchor="start" x="409" y="-242.4" font-family="Arial" font-size="2.00"> </text>
<text text-anchor="start" x="409" y="-236.4" font-family="Arial" font-size="7.00"> &#160;7</text>
<text text-anchor="start" x="423" y="-219.8" font-family="Arial" font-weight="bold" font-size="14.00">Mean: 9.823</text>
<text text-anchor="start" x="442" y="-202.8" font-family="Arial" font-weight="bold" font-size="14.00">n = 57</text>
<text text-anchor="start" x="460.5" y="-184.8" font-family="Arial" font-size="9.00"> </text>
<path fill="none" stroke="#333333" d="M420,-181C420,-181 504,-181 504,-181 510,-181 516,-187 516,-193 516,-193 516,-233 516,-233 516,-239 510,-245 504,-245 504,-245 420,-245 420,-245 414,-245 408,-239 408,-233 408,-233 408,-193 408,-193 408,-187 414,-181 420,-181"/>
<text text-anchor="start" x="518" y="-209.3" font-family="Arial" font-size="14.00"> &#160;&#160;</text>
<text text-anchor="start" x="408.5" y="-166.8" font-family="Arial" font-weight="bold" font-size="14.00">prev_24h_inflow</text>
</g>
<!-- 3&#45;&gt;7 -->
<g id="edge6" class="edge">
<title>3&#45;&gt;7</title>
<path fill="none" stroke="#888888" d="M462,-307.67C462,-299.39 462,-290.83 462,-282.38"/>
<polygon fill="#888888" stroke="#888888" points="465.5,-282.18 462,-272.18 458.5,-282.18 465.5,-282.18"/>
</g>
<!-- 11 -->
<g id="node12" class="node">
<title>11</title>
<text text-anchor="start" x="681.5" y="-253.8" font-family="Arial" font-weight="bold" font-size="14.00"> &lt; 6.5</text>
<path fill="#f8766d" fill-opacity="0.800000" stroke="transparent" d="M658,-181C658,-181 740,-181 740,-181 746,-181 752,-187 752,-193 752,-193 752,-233 752,-233 752,-239 746,-245 740,-245 740,-245 658,-245 658,-245 652,-245 646,-239 646,-233 646,-233 646,-193 646,-193 646,-187 652,-181 658,-181"/>
<text text-anchor="start" x="647" y="-242.4" font-family="Arial" font-size="2.00"> </text>
<text text-anchor="start" x="647" y="-236.4" font-family="Arial" font-size="7.00"> &#160;11</text>
<text text-anchor="start" x="661" y="-219.8" font-family="Arial" font-weight="bold" font-size="14.00">Predict 9.97</text>
<text text-anchor="start" x="679" y="-202.8" font-family="Arial" font-weight="bold" font-size="14.00">n = 29</text>
<text text-anchor="start" x="697.5" y="-184.8" font-family="Arial" font-size="9.00"> </text>
<path fill="none" stroke="#333333" d="M658,-181C658,-181 740,-181 740,-181 746,-181 752,-187 752,-193 752,-193 752,-233 752,-233 752,-239 746,-245 740,-245 740,-245 658,-245 658,-245 652,-245 646,-239 646,-233 646,-233 646,-193 646,-193 646,-187 652,-181 658,-181"/>
<text text-anchor="start" x="697" y="-166.8" font-family="Arial" font-weight="bold" font-size="14.00"> </text>
</g>
<!-- 10&#45;&gt;11 -->
<g id="edge11" class="edge">
<title>10&#45;&gt;11</title>
<path fill="none" stroke="#888888" d="M744.6,-307.67C740.4,-299.03 736.03,-290.07 731.75,-281.27"/>
<polygon fill="#888888" stroke="#888888" points="734.85,-279.64 727.32,-272.18 728.55,-282.7 734.85,-279.64"/>
</g>
<!-- 12 -->
<g id="node13" class="node">
<title>12</title>
<text text-anchor="start" x="831.5" y="-253.8" font-family="Arial" font-weight="bold" font-size="14.00"> ≥ 6.5</text>
<path fill="#ebebeb" stroke="transparent" d="M807,-181C807,-181 890,-181 890,-181 896,-181 902,-187 902,-193 902,-193 902,-233 902,-233 902,-239 896,-245 890,-245 890,-245 807,-245 807,-245 801,-245 795,-239 795,-233 795,-233 795,-193 795,-193 795,-187 801,-181 807,-181"/>
<text text-anchor="start" x="796" y="-242.4" font-family="Arial" font-size="2.00"> </text>
<text text-anchor="start" x="796" y="-236.4" font-family="Arial" font-size="7.00"> &#160;12</text>
<text text-anchor="start" x="810" y="-219.8" font-family="Arial" font-weight="bold" font-size="14.00">Mean: 11.26</text>
<text text-anchor="start" x="825" y="-202.8" font-family="Arial" font-weight="bold" font-size="14.00">n = 140</text>
<text text-anchor="start" x="847" y="-184.8" font-family="Arial" font-size="9.00"> </text>
<path fill="none" stroke="#333333" d="M807,-181C807,-181 890,-181 890,-181 896,-181 902,-187 902,-193 902,-193 902,-233 902,-233 902,-239 896,-245 890,-245 890,-245 807,-245 807,-245 801,-245 795,-239 795,-233 795,-233 795,-193 795,-193 795,-187 801,-181 807,-181"/>
<text text-anchor="start" x="834" y="-166.8" font-family="Arial" font-weight="bold" font-size="14.00">time</text>
</g>
<!-- 10&#45;&gt;12 -->
<g id="edge12" class="edge">
<title>10&#45;&gt;12</title>
<path fill="none" stroke="#888888" d="M801.78,-307.67C806.04,-299.03 810.46,-290.07 814.81,-281.27"/>
<polygon fill="#888888" stroke="#888888" points="818.01,-282.69 819.29,-272.18 811.73,-279.6 818.01,-282.69"/>
</g>
<!-- 5 -->
<g id="node8" class="node">
<title>5</title>
<text text-anchor="start" x="51.5" y="-99.8" font-family="Arial" font-weight="bold" font-size="14.00"> &lt; 5.5</text>
<path fill="#f8766d" fill-opacity="0.874510" stroke="transparent" d="M24,-27C24,-27 114,-27 114,-27 120,-27 126,-33 126,-39 126,-39 126,-79 126,-79 126,-85 120,-91 114,-91 114,-91 24,-91 24,-91 18,-91 12,-85 12,-79 12,-79 12,-39 12,-39 12,-33 18,-27 24,-27"/>
<text text-anchor="start" x="13" y="-88.4" font-family="Arial" font-size="2.00"> </text>
<text text-anchor="start" x="13" y="-82.4" font-family="Arial" font-size="7.00"> &#160;5</text>
<text text-anchor="start" x="27" y="-65.8" font-family="Arial" font-weight="bold" font-size="14.00">Predict 9.302</text>
<text text-anchor="start" x="45.5" y="-48.8" font-family="Arial" font-weight="bold" font-size="14.00">n = 108</text>
<text text-anchor="start" x="67.5" y="-30.8" font-family="Arial" font-size="9.00"> </text>
<path fill="none" stroke="#333333" d="M24,-27C24,-27 114,-27 114,-27 120,-27 126,-33 126,-39 126,-39 126,-79 126,-79 126,-85 120,-91 114,-91 114,-91 24,-91 24,-91 18,-91 12,-85 12,-79 12,-79 12,-39 12,-39 12,-33 18,-27 24,-27"/>
<text text-anchor="start" x="67" y="-12.8" font-family="Arial" font-weight="bold" font-size="14.00"> </text>
</g>
<!-- 4&#45;&gt;5 -->
<g id="edge7" class="edge">
<title>4&#45;&gt;5</title>
<path fill="none" stroke="#888888" d="M165.13,-153.67C155.62,-144.39 145.72,-134.75 136.05,-125.33"/>
<polygon fill="#888888" stroke="#888888" points="138.31,-122.65 128.71,-118.18 133.43,-127.66 138.31,-122.65"/>
</g>
<!-- 6 -->
<g id="node9" class="node">
<title>6</title>
<text text-anchor="start" x="208" y="-99.8" font-family="Arial" font-weight="bold" font-size="14.00"> ≥ 5.5</text>
<path fill="#f8766d" fill-opacity="0.698039" stroke="transparent" d="M180,-27C180,-27 270,-27 270,-27 276,-27 282,-33 282,-39 282,-39 282,-79 282,-79 282,-85 276,-91 270,-91 270,-91 180,-91 180,-91 174,-91 168,-85 168,-79 168,-79 168,-39 168,-39 168,-33 174,-27 180,-27"/>
<text text-anchor="start" x="169" y="-88.4" font-family="Arial" font-size="2.00"> </text>
<text text-anchor="start" x="169" y="-82.4" font-family="Arial" font-size="7.00"> &#160;6</text>
<text text-anchor="start" x="183" y="-65.8" font-family="Arial" font-weight="bold" font-size="14.00">Predict 10.89</text>
<text text-anchor="start" x="205" y="-48.8" font-family="Arial" font-weight="bold" font-size="14.00">n = 29</text>
<text text-anchor="start" x="223.5" y="-30.8" font-family="Arial" font-size="9.00"> </text>
<path fill="none" stroke="#333333" d="M180,-27C180,-27 270,-27 270,-27 276,-27 282,-33 282,-39 282,-39 282,-79 282,-79 282,-85 276,-91 270,-91 270,-91 180,-91 180,-91 174,-91 168,-85 168,-79 168,-79 168,-39 168,-39 168,-33 174,-27 180,-27"/>
<text text-anchor="start" x="223" y="-12.8" font-family="Arial" font-weight="bold" font-size="14.00"> </text>
</g>
<!-- 4&#45;&gt;6 -->
<g id="edge8" class="edge">
<title>4&#45;&gt;6</title>
<path fill="none" stroke="#888888" d="M225,-153.67C225,-145.39 225,-136.83 225,-128.38"/>
<polygon fill="#888888" stroke="#888888" points="228.5,-128.18 225,-118.18 221.5,-128.18 228.5,-128.18"/>
</g>
<!-- 8 -->
<g id="node10" class="node">
<title>8</title>
<text text-anchor="start" x="360" y="-99.8" font-family="Arial" font-weight="bold" font-size="14.00"> &lt; 11.8</text>
<path fill="#f8766d" fill-opacity="0.835294" stroke="transparent" d="M336,-27C336,-27 426,-27 426,-27 432,-27 438,-33 438,-39 438,-39 438,-79 438,-79 438,-85 432,-91 426,-91 426,-91 336,-91 336,-91 330,-91 324,-85 324,-79 324,-79 324,-39 324,-39 324,-33 330,-27 336,-27"/>
<text text-anchor="start" x="325" y="-88.4" font-family="Arial" font-size="2.00"> </text>
<text text-anchor="start" x="325" y="-82.4" font-family="Arial" font-size="7.00"> &#160;8</text>
<text text-anchor="start" x="339" y="-65.8" font-family="Arial" font-weight="bold" font-size="14.00">Predict 9.655</text>
<text text-anchor="start" x="361" y="-48.8" font-family="Arial" font-weight="bold" font-size="14.00">n = 54</text>
<text text-anchor="start" x="379.5" y="-30.8" font-family="Arial" font-size="9.00"> </text>
<path fill="none" stroke="#333333" d="M336,-27C336,-27 426,-27 426,-27 432,-27 438,-33 438,-39 438,-39 438,-79 438,-79 438,-85 432,-91 426,-91 426,-91 336,-91 336,-91 330,-91 324,-85 324,-79 324,-79 324,-39 324,-39 324,-33 330,-27 336,-27"/>
<text text-anchor="start" x="379" y="-12.8" font-family="Arial" font-weight="bold" font-size="14.00"> </text>
</g>
<!-- 7&#45;&gt;8 -->
<g id="edge9" class="edge">
<title>7&#45;&gt;8</title>
<path fill="none" stroke="#888888" d="M430.91,-153.67C426.31,-145.03 421.54,-136.07 416.85,-127.27"/>
<polygon fill="#888888" stroke="#888888" points="419.79,-125.36 412,-118.18 413.62,-128.65 419.79,-125.36"/>
</g>
<!-- 9 -->
<g id="node11" class="node">
<title>9</title>
<text text-anchor="start" x="516.5" y="-99.8" font-family="Arial" font-weight="bold" font-size="14.00"> ≥ 11.8</text>
<path fill="#f8766d" fill-opacity="0.482353" stroke="transparent" d="M492,-27C492,-27 582,-27 582,-27 588,-27 594,-33 594,-39 594,-39 594,-79 594,-79 594,-85 588,-91 582,-91 582,-91 492,-91 492,-91 486,-91 480,-85 480,-79 480,-79 480,-39 480,-39 480,-33 486,-27 492,-27"/>
<text text-anchor="start" x="481" y="-88.4" font-family="Arial" font-size="2.00"> </text>
<text text-anchor="start" x="481" y="-82.4" font-family="Arial" font-size="7.00"> &#160;9</text>
<text text-anchor="start" x="495" y="-65.8" font-family="Arial" font-weight="bold" font-size="14.00">Predict 12.84</text>
<text text-anchor="start" x="521" y="-48.8" font-family="Arial" font-weight="bold" font-size="14.00">n = 3</text>
<text text-anchor="start" x="535.5" y="-30.8" font-family="Arial" font-size="9.00"> </text>
<path fill="none" stroke="#333333" d="M492,-27C492,-27 582,-27 582,-27 588,-27 594,-33 594,-39 594,-39 594,-79 594,-79 594,-85 588,-91 582,-91 582,-91 492,-91 492,-91 486,-91 480,-85 480,-79 480,-79 480,-39 480,-39 480,-33 486,-27 492,-27"/>
<text text-anchor="start" x="535" y="-12.8" font-family="Arial" font-weight="bold" font-size="14.00"> </text>
</g>
<!-- 7&#45;&gt;9 -->
<g id="edge10" class="edge">
<title>7&#45;&gt;9</title>
<path fill="none" stroke="#888888" d="M490.78,-153.67C495.04,-145.03 499.46,-136.07 503.81,-127.27"/>
<polygon fill="#888888" stroke="#888888" points="507.01,-128.69 508.29,-118.18 500.73,-125.6 507.01,-128.69"/>
</g>
<!-- 13 -->
<g id="node14" class="node">
<title>13</title>
<text text-anchor="start" x="672" y="-99.8" font-family="Arial" font-weight="bold" font-size="14.00"> &lt; 21.5</text>
<path fill="#f8766d" fill-opacity="0.619608" stroke="transparent" d="M649,-27C649,-27 738,-27 738,-27 744,-27 750,-33 750,-39 750,-39 750,-79 750,-79 750,-85 744,-91 738,-91 738,-91 649,-91 649,-91 643,-91 637,-85 637,-79 637,-79 637,-39 637,-39 637,-33 643,-27 649,-27"/>
<text text-anchor="start" x="638" y="-88.4" font-family="Arial" font-size="2.00"> </text>
<text text-anchor="start" x="638" y="-82.4" font-family="Arial" font-size="7.00"> &#160;13</text>
<text text-anchor="start" x="652" y="-65.8" font-family="Arial" font-weight="bold" font-size="14.00">Predict 11.58</text>
<text text-anchor="start" x="670" y="-48.8" font-family="Arial" font-weight="bold" font-size="14.00">n = 102</text>
<text text-anchor="start" x="692" y="-30.8" font-family="Arial" font-size="9.00"> </text>
<path fill="none" stroke="#333333" d="M649,-27C649,-27 738,-27 738,-27 744,-27 750,-33 750,-39 750,-39 750,-79 750,-79 750,-85 744,-91 738,-91 738,-91 649,-91 649,-91 643,-91 637,-85 637,-79 637,-79 637,-39 637,-39 637,-33 643,-27 649,-27"/>
<text text-anchor="start" x="691.5" y="-12.8" font-family="Arial" font-weight="bold" font-size="14.00"> </text>
</g>
<!-- 12&#45;&gt;13 -->
<g id="edge13" class="edge">
<title>12&#45;&gt;13</title>
<path fill="none" stroke="#888888" d="M788.52,-153.67C779.06,-144.39 769.22,-134.75 759.62,-125.33"/>
<polygon fill="#888888" stroke="#888888" points="761.92,-122.68 752.32,-118.18 757.01,-127.68 761.92,-122.68"/>
</g>
<!-- 14 -->
<g id="node15" class="node">
<title>14</title>
<text text-anchor="start" x="828" y="-99.8" font-family="Arial" font-weight="bold" font-size="14.00"> ≥ 21.5</text>
<path fill="#f8766d" fill-opacity="0.752941" stroke="transparent" d="M804,-27C804,-27 894,-27 894,-27 900,-27 906,-33 906,-39 906,-39 906,-79 906,-79 906,-85 900,-91 894,-91 894,-91 804,-91 804,-91 798,-91 792,-85 792,-79 792,-79 792,-39 792,-39 792,-33 798,-27 804,-27"/>
<text text-anchor="start" x="793" y="-88.4" font-family="Arial" font-size="2.00"> </text>
<text text-anchor="start" x="793" y="-82.4" font-family="Arial" font-size="7.00"> &#160;14</text>
<text text-anchor="start" x="807" y="-65.8" font-family="Arial" font-weight="bold" font-size="14.00">Predict 10.41</text>
<text text-anchor="start" x="829" y="-48.8" font-family="Arial" font-weight="bold" font-size="14.00">n = 38</text>
<text text-anchor="start" x="847.5" y="-30.8" font-family="Arial" font-size="9.00"> </text>
<path fill="none" stroke="#333333" d="M804,-27C804,-27 894,-27 894,-27 900,-27 906,-33 906,-39 906,-39 906,-79 906,-79 906,-85 900,-91 894,-91 894,-91 804,-91 804,-91 798,-91 792,-85 792,-79 792,-79 792,-39 792,-39 792,-33 798,-27 804,-27"/>
<text text-anchor="start" x="847" y="-12.8" font-family="Arial" font-weight="bold" font-size="14.00"> </text>
</g>
<!-- 12&#45;&gt;14 -->
<g id="edge14" class="edge">
<title>12&#45;&gt;14</title>
<path fill="none" stroke="#888888" d="M848.38,-153.67C848.44,-145.39 848.49,-136.83 848.55,-128.38"/>
<polygon fill="#888888" stroke="#888888" points="852.05,-128.2 848.62,-118.18 845.05,-128.15 852.05,-128.2"/>
</g>
<!-- 17 -->
<g id="node18" class="node">
<title>17</title>
<text text-anchor="start" x="1133" y="-253.8" font-family="Arial" font-weight="bold" font-size="14.00"> &lt; 12.15</text>
<text text-anchor="start" x="1090" y="-209.3" font-family="Arial" font-size="14.00"> &#160;&#160;</text>
<path fill="#ebebeb" stroke="transparent" d="M1116,-181C1116,-181 1200,-181 1200,-181 1206,-181 1212,-187 1212,-193 1212,-193 1212,-233 1212,-233 1212,-239 1206,-245 1200,-245 1200,-245 1116,-245 1116,-245 1110,-245 1104,-239 1104,-233 1104,-233 1104,-193 1104,-193 1104,-187 1110,-181 1116,-181"/>
<text text-anchor="start" x="1105" y="-242.4" font-family="Arial" font-size="2.00"> </text>
<text text-anchor="start" x="1105" y="-236.4" font-family="Arial" font-size="7.00"> &#160;17</text>
<text text-anchor="start" x="1119" y="-219.8" font-family="Arial" font-weight="bold" font-size="14.00">Mean: 12.29</text>
<text text-anchor="start" x="1138" y="-202.8" font-family="Arial" font-weight="bold" font-size="14.00">n = 35</text>
<text text-anchor="start" x="1156.5" y="-184.8" font-family="Arial" font-size="9.00"> </text>
<path fill="none" stroke="#333333" d="M1116,-181C1116,-181 1200,-181 1200,-181 1206,-181 1212,-187 1212,-193 1212,-193 1212,-233 1212,-233 1212,-239 1206,-245 1200,-245 1200,-245 1116,-245 1116,-245 1110,-245 1104,-239 1104,-233 1104,-233 1104,-193 1104,-193 1104,-187 1110,-181 1116,-181"/>
<text text-anchor="start" x="1214" y="-209.3" font-family="Arial" font-size="14.00"> &#160;&#160;</text>
<text text-anchor="start" x="1104.5" y="-166.8" font-family="Arial" font-weight="bold" font-size="14.00">prev_24h_inflow</text>
</g>
<!-- 16&#45;&gt;17 -->
<g id="edge17" class="edge">
<title>16&#45;&gt;17</title>
<path fill="none" stroke="#888888" d="M1207.91,-307.67C1203.31,-299.03 1198.54,-290.07 1193.85,-281.27"/>
<polygon fill="#888888" stroke="#888888" points="1196.79,-279.36 1189,-272.18 1190.62,-282.65 1196.79,-279.36"/>
</g>
<!-- 20 -->
<g id="node19" class="node">
<title>20</title>
<text text-anchor="start" x="1295.5" y="-253.8" font-family="Arial" font-weight="bold" font-size="14.00"> ≥ 12.15</text>
<path fill="#ebebeb" stroke="transparent" d="M1278,-181C1278,-181 1362,-181 1362,-181 1368,-181 1374,-187 1374,-193 1374,-193 1374,-233 1374,-233 1374,-239 1368,-245 1362,-245 1362,-245 1278,-245 1278,-245 1272,-245 1266,-239 1266,-233 1266,-233 1266,-193 1266,-193 1266,-187 1272,-181 1278,-181"/>
<text text-anchor="start" x="1267" y="-242.4" font-family="Arial" font-size="2.00"> </text>
<text text-anchor="start" x="1267" y="-236.4" font-family="Arial" font-size="7.00"> &#160;20</text>
<text text-anchor="start" x="1281" y="-219.8" font-family="Arial" font-weight="bold" font-size="14.00">Mean: 12.85</text>
<text text-anchor="start" x="1300" y="-202.8" font-family="Arial" font-weight="bold" font-size="14.00">n = 83</text>
<text text-anchor="start" x="1318.5" y="-184.8" font-family="Arial" font-size="9.00"> </text>
<path fill="none" stroke="#333333" d="M1278,-181C1278,-181 1362,-181 1362,-181 1368,-181 1374,-187 1374,-193 1374,-193 1374,-233 1374,-233 1374,-239 1368,-245 1362,-245 1362,-245 1278,-245 1278,-245 1272,-245 1266,-239 1266,-233 1266,-233 1266,-193 1266,-193 1266,-187 1272,-181 1278,-181"/>
<text text-anchor="start" x="1287" y="-166.8" font-family="Arial" font-weight="bold" font-size="14.00">air_humid</text>
</g>
<!-- 16&#45;&gt;20 -->
<g id="edge18" class="edge">
<title>16&#45;&gt;20</title>
<path fill="none" stroke="#888888" d="M1270.09,-307.67C1274.69,-299.03 1279.46,-290.07 1284.15,-281.27"/>
<polygon fill="#888888" stroke="#888888" points="1287.38,-282.65 1289,-272.18 1281.21,-279.36 1287.38,-282.65"/>
</g>
<!-- 24 -->
<g id="node24" class="node">
<title>24</title>
<text text-anchor="start" x="1688" y="-253.8" font-family="Arial" font-weight="bold" font-size="14.00"> &lt; 5.5</text>
<path fill="#ebebeb" stroke="transparent" d="M1664,-181C1664,-181 1747,-181 1747,-181 1753,-181 1759,-187 1759,-193 1759,-193 1759,-233 1759,-233 1759,-239 1753,-245 1747,-245 1747,-245 1664,-245 1664,-245 1658,-245 1652,-239 1652,-233 1652,-233 1652,-193 1652,-193 1652,-187 1658,-181 1664,-181"/>
<text text-anchor="start" x="1653" y="-242.4" font-family="Arial" font-size="2.00"> </text>
<text text-anchor="start" x="1653" y="-236.4" font-family="Arial" font-size="7.00"> &#160;24</text>
<text text-anchor="start" x="1667" y="-219.8" font-family="Arial" font-weight="bold" font-size="14.00">Mean: 11.72</text>
<text text-anchor="start" x="1682" y="-202.8" font-family="Arial" font-weight="bold" font-size="14.00">n = 129</text>
<text text-anchor="start" x="1704" y="-184.8" font-family="Arial" font-size="9.00"> </text>
<path fill="none" stroke="#333333" d="M1664,-181C1664,-181 1747,-181 1747,-181 1753,-181 1759,-187 1759,-193 1759,-193 1759,-233 1759,-233 1759,-239 1753,-245 1747,-245 1747,-245 1664,-245 1664,-245 1658,-245 1652,-239 1652,-233 1652,-233 1652,-193 1652,-193 1652,-187 1658,-181 1664,-181"/>
<text text-anchor="start" x="1691" y="-166.8" font-family="Arial" font-weight="bold" font-size="14.00">time</text>
</g>
<!-- 23&#45;&gt;24 -->
<g id="edge23" class="edge">
<title>23&#45;&gt;24</title>
<path fill="none" stroke="#888888" d="M1705,-307.67C1705,-299.39 1705,-290.83 1705,-282.38"/>
<polygon fill="#888888" stroke="#888888" points="1708.5,-282.18 1705,-272.18 1701.5,-282.18 1708.5,-282.18"/>
</g>
<!-- 27 -->
<g id="node25" class="node">
<title>27</title>
<text text-anchor="start" x="1922" y="-253.8" font-family="Arial" font-weight="bold" font-size="14.00"> ≥ 5.5</text>
<path fill="#ebebeb" stroke="transparent" d="M1897,-181C1897,-181 1981,-181 1981,-181 1987,-181 1993,-187 1993,-193 1993,-193 1993,-233 1993,-233 1993,-239 1987,-245 1981,-245 1981,-245 1897,-245 1897,-245 1891,-245 1885,-239 1885,-233 1885,-233 1885,-193 1885,-193 1885,-187 1891,-181 1897,-181"/>
<text text-anchor="start" x="1886" y="-242.4" font-family="Arial" font-size="2.00"> </text>
<text text-anchor="start" x="1886" y="-236.4" font-family="Arial" font-size="7.00"> &#160;27</text>
<text text-anchor="start" x="1900" y="-219.8" font-family="Arial" font-weight="bold" font-size="14.00">Mean: 12.17</text>
<text text-anchor="start" x="1919" y="-202.8" font-family="Arial" font-weight="bold" font-size="14.00">n = 62</text>
<text text-anchor="start" x="1937.5" y="-184.8" font-family="Arial" font-size="9.00"> </text>
<path fill="none" stroke="#333333" d="M1897,-181C1897,-181 1981,-181 1981,-181 1987,-181 1993,-187 1993,-193 1993,-193 1993,-233 1993,-233 1993,-239 1987,-245 1981,-245 1981,-245 1897,-245 1897,-245 1891,-245 1885,-239 1885,-233 1885,-233 1885,-193 1885,-193 1885,-187 1891,-181 1897,-181"/>
<text text-anchor="start" x="1906" y="-166.8" font-family="Arial" font-weight="bold" font-size="14.00">air_humid</text>
</g>
<!-- 23&#45;&gt;27 -->
<g id="edge24" class="edge">
<title>23&#45;&gt;27</title>
<path fill="none" stroke="#888888" d="M1770.8,-323.26C1799.84,-304.39 1834.12,-282.13 1864.13,-262.64"/>
<polygon fill="#888888" stroke="#888888" points="1866.4,-265.33 1872.88,-256.95 1862.59,-259.46 1866.4,-265.33"/>
</g>
<!-- 18 -->
<g id="node20" class="node">
<title>18</title>
<text text-anchor="start" x="980.5" y="-99.8" font-family="Arial" font-weight="bold" font-size="14.00"> &lt; 12.74</text>
<path fill="#f8766d" fill-opacity="0.603922" stroke="transparent" d="M961,-27C961,-27 1050,-27 1050,-27 1056,-27 1062,-33 1062,-39 1062,-39 1062,-79 1062,-79 1062,-85 1056,-91 1050,-91 1050,-91 961,-91 961,-91 955,-91 949,-85 949,-79 949,-79 949,-39 949,-39 949,-33 955,-27 961,-27"/>
<text text-anchor="start" x="950" y="-88.4" font-family="Arial" font-size="2.00"> </text>
<text text-anchor="start" x="950" y="-82.4" font-family="Arial" font-size="7.00"> &#160;18</text>
<text text-anchor="start" x="964" y="-65.8" font-family="Arial" font-weight="bold" font-size="14.00">Predict 11.73</text>
<text text-anchor="start" x="985.5" y="-48.8" font-family="Arial" font-weight="bold" font-size="14.00">n = 25</text>
<text text-anchor="start" x="1004" y="-30.8" font-family="Arial" font-size="9.00"> </text>
<path fill="none" stroke="#333333" d="M961,-27C961,-27 1050,-27 1050,-27 1056,-27 1062,-33 1062,-39 1062,-39 1062,-79 1062,-79 1062,-85 1056,-91 1050,-91 1050,-91 961,-91 961,-91 955,-91 949,-85 949,-79 949,-79 949,-39 949,-39 949,-33 955,-27 961,-27"/>
<text text-anchor="start" x="1003.5" y="-12.8" font-family="Arial" font-weight="bold" font-size="14.00"> </text>
</g>
<!-- 17&#45;&gt;18 -->
<g id="edge19" class="edge">
<title>17&#45;&gt;18</title>
<path fill="none" stroke="#888888" d="M1099.28,-153.67C1089.95,-144.39 1080.24,-134.75 1070.76,-125.33"/>
<polygon fill="#888888" stroke="#888888" points="1073.12,-122.74 1063.56,-118.18 1068.19,-127.71 1073.12,-122.74"/>
</g>
<!-- 19 -->
<g id="node21" class="node">
<title>19</title>
<text text-anchor="start" x="1136.5" y="-99.8" font-family="Arial" font-weight="bold" font-size="14.00"> ≥ 12.74</text>
<path fill="#f8766d" fill-opacity="0.388235" stroke="transparent" d="M1116,-27C1116,-27 1206,-27 1206,-27 1212,-27 1218,-33 1218,-39 1218,-39 1218,-79 1218,-79 1218,-85 1212,-91 1206,-91 1206,-91 1116,-91 1116,-91 1110,-91 1104,-85 1104,-79 1104,-79 1104,-39 1104,-39 1104,-33 1110,-27 1116,-27"/>
<text text-anchor="start" x="1105" y="-88.4" font-family="Arial" font-size="2.00"> </text>
<text text-anchor="start" x="1105" y="-82.4" font-family="Arial" font-size="7.00"> &#160;19</text>
<text text-anchor="start" x="1119" y="-65.8" font-family="Arial" font-weight="bold" font-size="14.00">Predict 13.68</text>
<text text-anchor="start" x="1141" y="-48.8" font-family="Arial" font-weight="bold" font-size="14.00">n = 10</text>
<text text-anchor="start" x="1159.5" y="-30.8" font-family="Arial" font-size="9.00"> </text>
<path fill="none" stroke="#333333" d="M1116,-27C1116,-27 1206,-27 1206,-27 1212,-27 1218,-33 1218,-39 1218,-39 1218,-79 1218,-79 1218,-85 1212,-91 1206,-91 1206,-91 1116,-91 1116,-91 1110,-91 1104,-85 1104,-79 1104,-79 1104,-39 1104,-39 1104,-33 1110,-27 1116,-27"/>
<text text-anchor="start" x="1159" y="-12.8" font-family="Arial" font-weight="bold" font-size="14.00"> </text>
</g>
<!-- 17&#45;&gt;19 -->
<g id="edge20" class="edge">
<title>17&#45;&gt;19</title>
<path fill="none" stroke="#888888" d="M1159.15,-153.67C1159.31,-145.39 1159.48,-136.83 1159.65,-128.38"/>
<polygon fill="#888888" stroke="#888888" points="1163.15,-128.24 1159.85,-118.18 1156.16,-128.11 1163.15,-128.24"/>
</g>
<!-- 21 -->
<g id="node22" class="node">
<title>21</title>
<text text-anchor="start" x="1295.5" y="-99.8" font-family="Arial" font-weight="bold" font-size="14.00"> &lt; 59.5</text>
<path fill="#f8766d" fill-opacity="0.376471" stroke="transparent" d="M1272,-27C1272,-27 1362,-27 1362,-27 1368,-27 1374,-33 1374,-39 1374,-39 1374,-79 1374,-79 1374,-85 1368,-91 1362,-91 1362,-91 1272,-91 1272,-91 1266,-91 1260,-85 1260,-79 1260,-79 1260,-39 1260,-39 1260,-33 1266,-27 1272,-27"/>
<text text-anchor="start" x="1261" y="-88.4" font-family="Arial" font-size="2.00"> </text>
<text text-anchor="start" x="1261" y="-82.4" font-family="Arial" font-size="7.00"> &#160;21</text>
<text text-anchor="start" x="1275" y="-65.8" font-family="Arial" font-weight="bold" font-size="14.00">Predict 13.79</text>
<text text-anchor="start" x="1297" y="-48.8" font-family="Arial" font-weight="bold" font-size="14.00">n = 25</text>
<text text-anchor="start" x="1315.5" y="-30.8" font-family="Arial" font-size="9.00"> </text>
<path fill="none" stroke="#333333" d="M1272,-27C1272,-27 1362,-27 1362,-27 1368,-27 1374,-33 1374,-39 1374,-39 1374,-79 1374,-79 1374,-85 1368,-91 1362,-91 1362,-91 1272,-91 1272,-91 1266,-91 1260,-85 1260,-79 1260,-79 1260,-39 1260,-39 1260,-33 1266,-27 1272,-27"/>
<text text-anchor="start" x="1315" y="-12.8" font-family="Arial" font-weight="bold" font-size="14.00"> </text>
</g>
<!-- 20&#45;&gt;21 -->
<g id="edge21" class="edge">
<title>20&#45;&gt;21</title>
<path fill="none" stroke="#888888" d="M1318.85,-153.67C1318.69,-145.39 1318.52,-136.83 1318.35,-128.38"/>
<polygon fill="#888888" stroke="#888888" points="1321.84,-128.11 1318.15,-118.18 1314.85,-128.24 1321.84,-128.11"/>
</g>
<!-- 22 -->
<g id="node23" class="node">
<title>22</title>
<text text-anchor="start" x="1452" y="-99.8" font-family="Arial" font-weight="bold" font-size="14.00"> ≥ 59.5</text>
<path fill="#f8766d" fill-opacity="0.525490" stroke="transparent" d="M1428,-27C1428,-27 1518,-27 1518,-27 1524,-27 1530,-33 1530,-39 1530,-39 1530,-79 1530,-79 1530,-85 1524,-91 1518,-91 1518,-91 1428,-91 1428,-91 1422,-91 1416,-85 1416,-79 1416,-79 1416,-39 1416,-39 1416,-33 1422,-27 1428,-27"/>
<text text-anchor="start" x="1417" y="-88.4" font-family="Arial" font-size="2.00"> </text>
<text text-anchor="start" x="1417" y="-82.4" font-family="Arial" font-size="7.00"> &#160;22</text>
<text text-anchor="start" x="1431" y="-65.8" font-family="Arial" font-weight="bold" font-size="14.00">Predict 12.45</text>
<text text-anchor="start" x="1453" y="-48.8" font-family="Arial" font-weight="bold" font-size="14.00">n = 58</text>
<text text-anchor="start" x="1471.5" y="-30.8" font-family="Arial" font-size="9.00"> </text>
<path fill="none" stroke="#333333" d="M1428,-27C1428,-27 1518,-27 1518,-27 1524,-27 1530,-33 1530,-39 1530,-39 1530,-79 1530,-79 1530,-85 1524,-91 1518,-91 1518,-91 1428,-91 1428,-91 1422,-91 1416,-85 1416,-79 1416,-79 1416,-39 1416,-39 1416,-33 1422,-27 1428,-27"/>
<text text-anchor="start" x="1471" y="-12.8" font-family="Arial" font-weight="bold" font-size="14.00"> </text>
</g>
<!-- 20&#45;&gt;22 -->
<g id="edge22" class="edge">
<title>20&#45;&gt;22</title>
<path fill="none" stroke="#888888" d="M1378.72,-153.67C1388.05,-144.39 1397.76,-134.75 1407.24,-125.33"/>
<polygon fill="#888888" stroke="#888888" points="1409.81,-127.71 1414.44,-118.18 1404.88,-122.74 1409.81,-127.71"/>
</g>
<!-- 25 -->
<g id="node26" class="node">
<title>25</title>
<text text-anchor="start" x="1606.5" y="-99.8" font-family="Arial" font-weight="bold" font-size="14.00"> &lt; 17.5</text>
<path fill="#f8766d" fill-opacity="0.674510" stroke="transparent" d="M1584,-27C1584,-27 1672,-27 1672,-27 1678,-27 1684,-33 1684,-39 1684,-39 1684,-79 1684,-79 1684,-85 1678,-91 1672,-91 1672,-91 1584,-91 1584,-91 1578,-91 1572,-85 1572,-79 1572,-79 1572,-39 1572,-39 1572,-33 1578,-27 1584,-27"/>
<text text-anchor="start" x="1573" y="-88.4" font-family="Arial" font-size="2.00"> </text>
<text text-anchor="start" x="1573" y="-82.4" font-family="Arial" font-size="7.00"> &#160;25</text>
<text text-anchor="start" x="1587" y="-65.8" font-family="Arial" font-weight="bold" font-size="14.00">Predict 11.11</text>
<text text-anchor="start" x="1608" y="-48.8" font-family="Arial" font-weight="bold" font-size="14.00">n = 56</text>
<text text-anchor="start" x="1626.5" y="-30.8" font-family="Arial" font-size="9.00"> </text>
<path fill="none" stroke="#333333" d="M1584,-27C1584,-27 1672,-27 1672,-27 1678,-27 1684,-33 1684,-39 1684,-39 1684,-79 1684,-79 1684,-85 1678,-91 1672,-91 1672,-91 1584,-91 1584,-91 1578,-91 1572,-85 1572,-79 1572,-79 1572,-39 1572,-39 1572,-33 1578,-27 1584,-27"/>
<text text-anchor="start" x="1626" y="-12.8" font-family="Arial" font-weight="bold" font-size="14.00"> </text>
</g>
<!-- 24&#45;&gt;25 -->
<g id="edge25" class="edge">
<title>24&#45;&gt;25</title>
<path fill="none" stroke="#888888" d="M1675.45,-153.67C1671.07,-145.03 1666.54,-136.07 1662.08,-127.27"/>
<polygon fill="#888888" stroke="#888888" points="1665.11,-125.52 1657.47,-118.18 1658.87,-128.68 1665.11,-125.52"/>
</g>
<!-- 26 -->
<g id="node27" class="node">
<title>26</title>
<text text-anchor="start" x="1762" y="-99.8" font-family="Arial" font-weight="bold" font-size="14.00"> ≥ 17.5</text>
<path fill="#f8766d" fill-opacity="0.552941" stroke="transparent" d="M1738,-27C1738,-27 1828,-27 1828,-27 1834,-27 1840,-33 1840,-39 1840,-39 1840,-79 1840,-79 1840,-85 1834,-91 1828,-91 1828,-91 1738,-91 1738,-91 1732,-91 1726,-85 1726,-79 1726,-79 1726,-39 1726,-39 1726,-33 1732,-27 1738,-27"/>
<text text-anchor="start" x="1727" y="-88.4" font-family="Arial" font-size="2.00"> </text>
<text text-anchor="start" x="1727" y="-82.4" font-family="Arial" font-size="7.00"> &#160;26</text>
<text text-anchor="start" x="1741" y="-65.8" font-family="Arial" font-weight="bold" font-size="14.00">Predict 12.18</text>
<text text-anchor="start" x="1763" y="-48.8" font-family="Arial" font-weight="bold" font-size="14.00">n = 73</text>
<text text-anchor="start" x="1781.5" y="-30.8" font-family="Arial" font-size="9.00"> </text>
<path fill="none" stroke="#333333" d="M1738,-27C1738,-27 1828,-27 1828,-27 1834,-27 1840,-33 1840,-39 1840,-39 1840,-79 1840,-79 1840,-85 1834,-91 1828,-91 1828,-91 1738,-91 1738,-91 1732,-91 1726,-85 1726,-79 1726,-79 1726,-39 1726,-39 1726,-33 1732,-27 1738,-27"/>
<text text-anchor="start" x="1781" y="-12.8" font-family="Arial" font-weight="bold" font-size="14.00"> </text>
</g>
<!-- 24&#45;&gt;26 -->
<g id="edge26" class="edge">
<title>24&#45;&gt;26</title>
<path fill="none" stroke="#888888" d="M1734.93,-153.67C1739.37,-145.03 1743.96,-136.07 1748.48,-127.27"/>
<polygon fill="#888888" stroke="#888888" points="1751.69,-128.67 1753.15,-118.18 1745.47,-125.48 1751.69,-128.67"/>
</g>
<!-- 28 -->
<g id="node28" class="node">
<title>28</title>
<text text-anchor="start" x="1917.5" y="-99.8" font-family="Arial" font-weight="bold" font-size="14.00"> &lt; 90.5</text>
<path fill="#f8766d" fill-opacity="0.525490" stroke="transparent" d="M1894,-27C1894,-27 1984,-27 1984,-27 1990,-27 1996,-33 1996,-39 1996,-39 1996,-79 1996,-79 1996,-85 1990,-91 1984,-91 1984,-91 1894,-91 1894,-91 1888,-91 1882,-85 1882,-79 1882,-79 1882,-39 1882,-39 1882,-33 1888,-27 1894,-27"/>
<text text-anchor="start" x="1883" y="-88.4" font-family="Arial" font-size="2.00"> </text>
<text text-anchor="start" x="1883" y="-82.4" font-family="Arial" font-size="7.00"> &#160;28</text>
<text text-anchor="start" x="1897" y="-65.8" font-family="Arial" font-weight="bold" font-size="14.00">Predict 12.43</text>
<text text-anchor="start" x="1919" y="-48.8" font-family="Arial" font-weight="bold" font-size="14.00">n = 47</text>
<text text-anchor="start" x="1937.5" y="-30.8" font-family="Arial" font-size="9.00"> </text>
<path fill="none" stroke="#333333" d="M1894,-27C1894,-27 1984,-27 1984,-27 1990,-27 1996,-33 1996,-39 1996,-39 1996,-79 1996,-79 1996,-85 1990,-91 1984,-91 1984,-91 1894,-91 1894,-91 1888,-91 1882,-85 1882,-79 1882,-79 1882,-39 1882,-39 1882,-33 1888,-27 1894,-27"/>
<text text-anchor="start" x="1937" y="-12.8" font-family="Arial" font-weight="bold" font-size="14.00"> </text>
</g>
<!-- 27&#45;&gt;28 -->
<g id="edge27" class="edge">
<title>27&#45;&gt;28</title>
<path fill="none" stroke="#888888" d="M1939,-153.67C1939,-145.39 1939,-136.83 1939,-128.38"/>
<polygon fill="#888888" stroke="#888888" points="1942.5,-128.18 1939,-118.18 1935.5,-128.18 1942.5,-128.18"/>
</g>
<!-- 29 -->
<g id="node29" class="node">
<title>29</title>
<text text-anchor="start" x="2074.5" y="-99.8" font-family="Arial" font-weight="bold" font-size="14.00"> ≥ 90.5</text>
<path fill="#f8766d" fill-opacity="0.647059" stroke="transparent" d="M2051,-27C2051,-27 2140,-27 2140,-27 2146,-27 2152,-33 2152,-39 2152,-39 2152,-79 2152,-79 2152,-85 2146,-91 2140,-91 2140,-91 2051,-91 2051,-91 2045,-91 2039,-85 2039,-79 2039,-79 2039,-39 2039,-39 2039,-33 2045,-27 2051,-27"/>
<text text-anchor="start" x="2040" y="-88.4" font-family="Arial" font-size="2.00"> </text>
<text text-anchor="start" x="2040" y="-82.4" font-family="Arial" font-size="7.00"> &#160;29</text>
<text text-anchor="start" x="2054" y="-65.8" font-family="Arial" font-weight="bold" font-size="14.00">Predict 11.34</text>
<text text-anchor="start" x="2075.5" y="-48.8" font-family="Arial" font-weight="bold" font-size="14.00">n = 15</text>
<text text-anchor="start" x="2094" y="-30.8" font-family="Arial" font-size="9.00"> </text>
<path fill="none" stroke="#333333" d="M2051,-27C2051,-27 2140,-27 2140,-27 2146,-27 2152,-33 2152,-39 2152,-39 2152,-79 2152,-79 2152,-85 2146,-91 2140,-91 2140,-91 2051,-91 2051,-91 2045,-91 2039,-85 2039,-79 2039,-79 2039,-39 2039,-39 2039,-33 2045,-27 2051,-27"/>
<text text-anchor="start" x="2093.5" y="-12.8" font-family="Arial" font-weight="bold" font-size="14.00"> </text>
</g>
<!-- 27&#45;&gt;29 -->
<g id="edge28" class="edge">
<title>27&#45;&gt;29</title>
<path fill="none" stroke="#888888" d="M1998.87,-153.67C2008.38,-144.39 2018.28,-134.75 2027.95,-125.33"/>
<polygon fill="#888888" stroke="#888888" points="2030.57,-127.66 2035.29,-118.18 2025.69,-122.65 2030.57,-127.66"/>
</g>
</g>
</svg>
