<?xml version="1.0" encoding="UTF-8" standalone="no"?>
<!DOCTYPE svg PUBLIC "-//W3C//DTD SVG 1.1//EN"
 "http://www.w3.org/Graphics/SVG/1.1/DTD/svg11.dtd">
<!-- Generated by graphviz version 2.50.0 (20211204.2007)
 -->
<!-- Pages: 1 -->
<svg width="1563pt" height="742pt"
 viewBox="0.00 0.00 1563.00 742.00" xmlns="http://www.w3.org/2000/svg" xmlns:xlink="http://www.w3.org/1999/xlink">
<g id="graph0" class="graph" transform="scale(1 1) rotate(0) translate(4 738)">
<polygon fill="white" stroke="transparent" points="-4,4 -4,-738 1559,-738 1559,4 -4,4"/>
<!-- 1 -->
<g id="node1" class="node">
<title>1</title>
<text text-anchor="start" x="431" y="-715.8" font-family="Arial" font-weight="bold" font-size="14.00"> </text>
<text text-anchor="start" x="361" y="-671.3" font-family="Arial" font-size="14.00"> &#160;&#160;&#160;</text>
<path fill="#ebebeb" stroke="transparent" d="M391,-643C391,-643 475,-643 475,-643 481,-643 487,-649 487,-655 487,-655 487,-695 487,-695 487,-701 481,-707 475,-707 475,-707 391,-707 391,-707 385,-707 379,-701 379,-695 379,-695 379,-655 379,-655 379,-649 385,-643 391,-643"/>
<text text-anchor="start" x="380" y="-704.4" font-family="Arial" font-size="2.00"> </text>
<text text-anchor="start" x="380" y="-698.4" font-family="Arial" font-size="7.00"> &#160;1</text>
<text text-anchor="start" x="394" y="-681.8" font-family="Arial" font-weight="bold" font-size="14.00">Mean: 25.86</text>
<text text-anchor="start" x="409.5" y="-664.8" font-family="Arial" font-weight="bold" font-size="14.00">n = 168</text>
<text text-anchor="start" x="431.5" y="-646.8" font-family="Arial" font-size="9.00"> </text>
<path fill="none" stroke="#333333" d="M391,-643C391,-643 475,-643 475,-643 481,-643 487,-649 487,-655 487,-655 487,-695 487,-695 487,-701 481,-707 475,-707 475,-707 391,-707 391,-707 385,-707 379,-701 379,-695 379,-695 379,-655 379,-655 379,-649 385,-643 391,-643"/>
<text text-anchor="start" x="489" y="-671.3" font-family="Arial" font-size="14.00"> &#160;&#160;&#160;</text>
<text text-anchor="start" x="375.5" y="-628.8" font-family="Arial" font-weight="bold" font-size="14.00">prev_168h_inflow</text>
</g>
<!-- 2 -->
<g id="node2" class="node">
<title>2</title>
<text text-anchor="start" x="213" y="-561.8" font-family="Arial" font-weight="bold" font-size="14.00"> &lt; 26.77</text>
<text text-anchor="start" x="166" y="-517.3" font-family="Arial" font-size="14.00"> &#160;&#160;&#160;</text>
<path fill="#ebebeb" stroke="transparent" d="M196,-489C196,-489 280,-489 280,-489 286,-489 292,-495 292,-501 292,-501 292,-541 292,-541 292,-547 286,-553 280,-553 280,-553 196,-553 196,-553 190,-553 184,-547 184,-541 184,-541 184,-501 184,-501 184,-495 190,-489 196,-489"/>
<text text-anchor="start" x="185" y="-550.4" font-family="Arial" font-size="2.00"> </text>
<text text-anchor="start" x="185" y="-544.4" font-family="Arial" font-size="7.00"> &#160;2</text>
<text text-anchor="start" x="199" y="-527.8" font-family="Arial" font-weight="bold" font-size="14.00">Mean: 22.51</text>
<text text-anchor="start" x="218" y="-510.8" font-family="Arial" font-weight="bold" font-size="14.00">n = 87</text>
<text text-anchor="start" x="236.5" y="-492.8" font-family="Arial" font-size="9.00"> </text>
<path fill="none" stroke="#333333" d="M196,-489C196,-489 280,-489 280,-489 286,-489 292,-495 292,-501 292,-501 292,-541 292,-541 292,-547 286,-553 280,-553 280,-553 196,-553 196,-553 190,-553 184,-547 184,-541 184,-541 184,-501 184,-501 184,-495 190,-489 196,-489"/>
<text text-anchor="start" x="294" y="-517.3" font-family="Arial" font-size="14.00"> &#160;&#160;&#160;</text>
<text text-anchor="start" x="180.5" y="-474.8" font-family="Arial" font-weight="bold" font-size="14.00">prev_168h_inflow</text>
</g>
<!-- 1&#45;&gt;2 -->
<g id="edge1" class="edge">
<title>1&#45;&gt;2</title>
<path fill="none" stroke="#888888" d="M358.44,-615.88C346.1,-606.26 333.23,-596.23 320.69,-586.46"/>
<polygon fill="#888888" stroke="#888888" points="322.55,-583.47 312.51,-580.08 318.25,-588.99 322.55,-583.47"/>
</g>
<!-- 9 -->
<g id="node3" class="node">
<title>9</title>
<text text-anchor="start" x="603.5" y="-561.8" font-family="Arial" font-weight="bold" font-size="14.00"> ≥ 26.77</text>
<path fill="#ebebeb" stroke="transparent" d="M586,-489C586,-489 670,-489 670,-489 676,-489 682,-495 682,-501 682,-501 682,-541 682,-541 682,-547 676,-553 670,-553 670,-553 586,-553 586,-553 580,-553 574,-547 574,-541 574,-541 574,-501 574,-501 574,-495 580,-489 586,-489"/>
<text text-anchor="start" x="575" y="-550.4" font-family="Arial" font-size="2.00"> </text>
<text text-anchor="start" x="575" y="-544.4" font-family="Arial" font-size="7.00"> &#160;9</text>
<text text-anchor="start" x="589" y="-527.8" font-family="Arial" font-weight="bold" font-size="14.00">Mean: 29.45</text>
<text text-anchor="start" x="608" y="-510.8" font-family="Arial" font-weight="bold" font-size="14.00">n = 81</text>
<text text-anchor="start" x="626.5" y="-492.8" font-family="Arial" font-size="9.00"> </text>
<path fill="none" stroke="#333333" d="M586,-489C586,-489 670,-489 670,-489 676,-489 682,-495 682,-501 682,-501 682,-541 682,-541 682,-547 676,-553 670,-553 670,-553 586,-553 586,-553 580,-553 574,-547 574,-541 574,-541 574,-501 574,-501 574,-495 580,-489 586,-489"/>
<text text-anchor="start" x="595" y="-474.8" font-family="Arial" font-weight="bold" font-size="14.00">air_humid</text>
</g>
<!-- 1&#45;&gt;9 -->
<g id="edge2" class="edge">
<title>1&#45;&gt;9</title>
<path fill="none" stroke="#888888" d="M507.56,-615.88C522.62,-604.15 538.45,-591.8 553.51,-580.07"/>
<polygon fill="#888888" stroke="#888888" points="556.05,-582.53 561.78,-573.62 551.74,-577 556.05,-582.53"/>
</g>
<!-- 3 -->
<g id="node4" class="node">
<title>3</title>
<text text-anchor="start" x="44" y="-407.8" font-family="Arial" font-weight="bold" font-size="14.00"> &lt; 20.71</text>
<path fill="#f8766d" fill-opacity="0.874510" stroke="transparent" d="M24,-335C24,-335 114,-335 114,-335 120,-335 126,-341 126,-347 126,-347 126,-387 126,-387 126,-393 120,-399 114,-399 114,-399 24,-399 24,-399 18,-399 12,-393 12,-387 12,-387 12,-347 12,-347 12,-341 18,-335 24,-335"/>
<text text-anchor="start" x="13" y="-396.4" font-family="Arial" font-size="2.00"> </text>
<text text-anchor="start" x="13" y="-390.4" font-family="Arial" font-size="7.00"> &#160;3</text>
<text text-anchor="start" x="27" y="-373.8" font-family="Arial" font-weight="bold" font-size="14.00">Predict 19.33</text>
<text text-anchor="start" x="49" y="-356.8" font-family="Arial" font-weight="bold" font-size="14.00">n = 33</text>
<text text-anchor="start" x="67.5" y="-338.8" font-family="Arial" font-size="9.00"> </text>
<path fill="none" stroke="#333333" d="M24,-335C24,-335 114,-335 114,-335 120,-335 126,-341 126,-347 126,-347 126,-387 126,-387 126,-393 120,-399 114,-399 114,-399 24,-399 24,-399 18,-399 12,-393 12,-387 12,-387 12,-347 12,-347 12,-341 18,-335 24,-335"/>
<text text-anchor="start" x="67" y="-320.8" font-family="Arial" font-weight="bold" font-size="14.00"> </text>
</g>
<!-- 2&#45;&gt;3 -->
<g id="edge3" class="edge">
<title>2&#45;&gt;3</title>
<path fill="none" stroke="#888888" d="M173.14,-461.67C162.73,-452.3 151.9,-442.56 141.33,-433.05"/>
<polygon fill="#888888" stroke="#888888" points="143.46,-430.26 133.68,-426.18 138.78,-435.47 143.46,-430.26"/>
</g>
<!-- 4 -->
<g id="node5" class="node">
<title>4</title>
<text text-anchor="start" x="213.5" y="-407.8" font-family="Arial" font-weight="bold" font-size="14.00"> ≥ 20.71</text>
<text text-anchor="start" x="166" y="-363.3" font-family="Arial" font-size="14.00"> &#160;&#160;&#160;</text>
<path fill="#ebebeb" stroke="transparent" d="M196,-335C196,-335 280,-335 280,-335 286,-335 292,-341 292,-347 292,-347 292,-387 292,-387 292,-393 286,-399 280,-399 280,-399 196,-399 196,-399 190,-399 184,-393 184,-387 184,-387 184,-347 184,-347 184,-341 190,-335 196,-335"/>
<text text-anchor="start" x="185" y="-396.4" font-family="Arial" font-size="2.00"> </text>
<text text-anchor="start" x="185" y="-390.4" font-family="Arial" font-size="7.00"> &#160;4</text>
<text text-anchor="start" x="199" y="-373.8" font-family="Arial" font-weight="bold" font-size="14.00">Mean: 24.46</text>
<text text-anchor="start" x="218" y="-356.8" font-family="Arial" font-weight="bold" font-size="14.00">n = 54</text>
<text text-anchor="start" x="236.5" y="-338.8" font-family="Arial" font-size="9.00"> </text>
<path fill="none" stroke="#333333" d="M196,-335C196,-335 280,-335 280,-335 286,-335 292,-341 292,-347 292,-347 292,-387 292,-387 292,-393 286,-399 280,-399 280,-399 196,-399 196,-399 190,-399 184,-393 184,-387 184,-387 184,-347 184,-347 184,-341 190,-335 196,-335"/>
<text text-anchor="start" x="294" y="-363.3" font-family="Arial" font-size="14.00"> &#160;&#160;&#160;</text>
<text text-anchor="start" x="180.5" y="-320.8" font-family="Arial" font-weight="bold" font-size="14.00">prev_168h_inflow</text>
</g>
<!-- 2&#45;&gt;4 -->
<g id="edge4" class="edge">
<title>2&#45;&gt;4</title>
<path fill="none" stroke="#888888" d="M238,-461.67C238,-453.39 238,-444.83 238,-436.38"/>
<polygon fill="#888888" stroke="#888888" points="241.5,-436.18 238,-426.18 234.5,-436.18 241.5,-436.18"/>
</g>
<!-- 10 -->
<g id="node10" class="node">
<title>10</title>
<text text-anchor="start" x="612.5" y="-407.8" font-family="Arial" font-weight="bold" font-size="14.00"> &lt; 53</text>
<text text-anchor="start" x="556" y="-363.3" font-family="Arial" font-size="14.00"> &#160;&#160;&#160;</text>
<path fill="#ebebeb" stroke="transparent" d="M586,-335C586,-335 670,-335 670,-335 676,-335 682,-341 682,-347 682,-347 682,-387 682,-387 682,-393 676,-399 670,-399 670,-399 586,-399 586,-399 580,-399 574,-393 574,-387 574,-387 574,-347 574,-347 574,-341 580,-335 586,-335"/>
<text text-anchor="start" x="575" y="-396.4" font-family="Arial" font-size="2.00"> </text>
<text text-anchor="start" x="575" y="-390.4" font-family="Arial" font-size="7.00"> &#160;10</text>
<text text-anchor="start" x="589" y="-373.8" font-family="Arial" font-weight="bold" font-size="14.00">Mean: 30.91</text>
<text text-anchor="start" x="608" y="-356.8" font-family="Arial" font-weight="bold" font-size="14.00">n = 17</text>
<text text-anchor="start" x="626.5" y="-338.8" font-family="Arial" font-size="9.00"> </text>
<path fill="none" stroke="#333333" d="M586,-335C586,-335 670,-335 670,-335 676,-335 682,-341 682,-347 682,-347 682,-387 682,-387 682,-393 676,-399 670,-399 670,-399 586,-399 586,-399 580,-399 574,-393 574,-387 574,-387 574,-347 574,-347 574,-341 580,-335 586,-335"/>
<text text-anchor="start" x="684" y="-363.3" font-family="Arial" font-size="14.00"> &#160;&#160;&#160;</text>
<text text-anchor="start" x="570.5" y="-320.8" font-family="Arial" font-weight="bold" font-size="14.00">prev_168h_inflow</text>
</g>
<!-- 9&#45;&gt;10 -->
<g id="edge9" class="edge">
<title>9&#45;&gt;10</title>
<path fill="none" stroke="#888888" d="M628,-461.67C628,-453.39 628,-444.83 628,-436.38"/>
<polygon fill="#888888" stroke="#888888" points="631.5,-436.18 628,-426.18 624.5,-436.18 631.5,-436.18"/>
</g>
<!-- 17 -->
<g id="node11" class="node">
<title>17</title>
<text text-anchor="start" x="1080.5" y="-407.8" font-family="Arial" font-weight="bold" font-size="14.00"> ≥ 53</text>
<text text-anchor="start" x="1024" y="-363.3" font-family="Arial" font-size="14.00"> &#160;&#160;&#160;</text>
<path fill="#ebebeb" stroke="transparent" d="M1054,-335C1054,-335 1138,-335 1138,-335 1144,-335 1150,-341 1150,-347 1150,-347 1150,-387 1150,-387 1150,-393 1144,-399 1138,-399 1138,-399 1054,-399 1054,-399 1048,-399 1042,-393 1042,-387 1042,-387 1042,-347 1042,-347 1042,-341 1048,-335 1054,-335"/>
<text text-anchor="start" x="1043" y="-396.4" font-family="Arial" font-size="2.00"> </text>
<text text-anchor="start" x="1043" y="-390.4" font-family="Arial" font-size="7.00"> &#160;17</text>
<text text-anchor="start" x="1057" y="-373.8" font-family="Arial" font-weight="bold" font-size="14.00">Mean: 29.06</text>
<text text-anchor="start" x="1076" y="-356.8" font-family="Arial" font-weight="bold" font-size="14.00">n = 64</text>
<text text-anchor="start" x="1094.5" y="-338.8" font-family="Arial" font-size="9.00"> </text>
<path fill="none" stroke="#333333" d="M1054,-335C1054,-335 1138,-335 1138,-335 1144,-335 1150,-341 1150,-347 1150,-347 1150,-387 1150,-387 1150,-393 1144,-399 1138,-399 1138,-399 1054,-399 1054,-399 1048,-399 1042,-393 1042,-387 1042,-387 1042,-347 1042,-347 1042,-341 1048,-335 1054,-335"/>
<text text-anchor="start" x="1152" y="-363.3" font-family="Arial" font-size="14.00"> &#160;&#160;&#160;</text>
<text text-anchor="start" x="1038.5" y="-320.8" font-family="Arial" font-weight="bold" font-size="14.00">prev_168h_inflow</text>
</g>
<!-- 9&#45;&gt;17 -->
<g id="edge10" class="edge">
<title>9&#45;&gt;17</title>
<path fill="none" stroke="#888888" d="M694.06,-498.54C775.1,-472.23 912.92,-427.46 1004.22,-397.81"/>
<polygon fill="#888888" stroke="#888888" points="1005.3,-401.14 1013.73,-394.72 1003.14,-394.48 1005.3,-401.14"/>
</g>
<!-- 5 -->
<g id="node6" class="node">
<title>5</title>
<text text-anchor="start" x="44" y="-253.8" font-family="Arial" font-weight="bold" font-size="14.00"> &lt; 22.59</text>
<path fill="#f8766d" fill-opacity="0.811765" stroke="transparent" d="M24,-181C24,-181 114,-181 114,-181 120,-181 126,-187 126,-193 126,-193 126,-233 126,-233 126,-239 120,-245 114,-245 114,-245 24,-245 24,-245 18,-245 12,-239 12,-233 12,-233 12,-193 12,-193 12,-187 18,-181 24,-181"/>
<text text-anchor="start" x="13" y="-242.4" font-family="Arial" font-size="2.00"> </text>
<text text-anchor="start" x="13" y="-236.4" font-family="Arial" font-size="7.00"> &#160;5</text>
<text text-anchor="start" x="27" y="-219.8" font-family="Arial" font-weight="bold" font-size="14.00">Predict 21.24</text>
<text text-anchor="start" x="49" y="-202.8" font-family="Arial" font-weight="bold" font-size="14.00">n = 10</text>
<text text-anchor="start" x="67.5" y="-184.8" font-family="Arial" font-size="9.00"> </text>
<path fill="none" stroke="#333333" d="M24,-181C24,-181 114,-181 114,-181 120,-181 126,-187 126,-193 126,-193 126,-233 126,-233 126,-239 120,-245 114,-245 114,-245 24,-245 24,-245 18,-245 12,-239 12,-233 12,-233 12,-193 12,-193 12,-187 18,-181 24,-181"/>
<text text-anchor="start" x="67" y="-166.8" font-family="Arial" font-weight="bold" font-size="14.00"> </text>
</g>
<!-- 4&#45;&gt;5 -->
<g id="edge5" class="edge">
<title>4&#45;&gt;5</title>
<path fill="none" stroke="#888888" d="M173.14,-307.67C162.73,-298.3 151.9,-288.56 141.33,-279.05"/>
<polygon fill="#888888" stroke="#888888" points="143.46,-276.26 133.68,-272.18 138.78,-281.47 143.46,-276.26"/>
</g>
<!-- 6 -->
<g id="node7" class="node">
<title>6</title>
<text text-anchor="start" x="213.5" y="-253.8" font-family="Arial" font-weight="bold" font-size="14.00"> ≥ 22.59</text>
<text text-anchor="start" x="166" y="-209.3" font-family="Arial" font-size="14.00"> &#160;&#160;&#160;</text>
<path fill="#ebebeb" stroke="transparent" d="M196,-181C196,-181 280,-181 280,-181 286,-181 292,-187 292,-193 292,-193 292,-233 292,-233 292,-239 286,-245 280,-245 280,-245 196,-245 196,-245 190,-245 184,-239 184,-233 184,-233 184,-193 184,-193 184,-187 190,-181 196,-181"/>
<text text-anchor="start" x="185" y="-242.4" font-family="Arial" font-size="2.00"> </text>
<text text-anchor="start" x="185" y="-236.4" font-family="Arial" font-size="7.00"> &#160;6</text>
<text text-anchor="start" x="199" y="-219.8" font-family="Arial" font-weight="bold" font-size="14.00">Mean: 25.19</text>
<text text-anchor="start" x="218" y="-202.8" font-family="Arial" font-weight="bold" font-size="14.00">n = 44</text>
<text text-anchor="start" x="236.5" y="-184.8" font-family="Arial" font-size="9.00"> </text>
<path fill="none" stroke="#333333" d="M196,-181C196,-181 280,-181 280,-181 286,-181 292,-187 292,-193 292,-193 292,-233 292,-233 292,-239 286,-245 280,-245 280,-245 196,-245 196,-245 190,-245 184,-239 184,-233 184,-233 184,-193 184,-193 184,-187 190,-181 196,-181"/>
<text text-anchor="start" x="294" y="-209.3" font-family="Arial" font-size="14.00"> &#160;&#160;&#160;</text>
<text text-anchor="start" x="180.5" y="-166.8" font-family="Arial" font-weight="bold" font-size="14.00">prev_168h_inflow</text>
</g>
<!-- 4&#45;&gt;6 -->
<g id="edge6" class="edge">
<title>4&#45;&gt;6</title>
<path fill="none" stroke="#888888" d="M238,-307.67C238,-299.39 238,-290.83 238,-282.38"/>
<polygon fill="#888888" stroke="#888888" points="241.5,-282.18 238,-272.18 234.5,-282.18 241.5,-282.18"/>
</g>
<!-- 7 -->
<g id="node8" class="node">
<title>7</title>
<text text-anchor="start" x="61" y="-99.8" font-family="Arial" font-weight="bold" font-size="14.00"> &lt; 24.97</text>
<path fill="#f8766d" fill-opacity="0.713725" stroke="transparent" d="M45,-27C45,-27 127,-27 127,-27 133,-27 139,-33 139,-39 139,-39 139,-79 139,-79 139,-85 133,-91 127,-91 127,-91 45,-91 45,-91 39,-91 33,-85 33,-79 33,-79 33,-39 33,-39 33,-33 39,-27 45,-27"/>
<text text-anchor="start" x="34" y="-88.4" font-family="Arial" font-size="2.00"> </text>
<text text-anchor="start" x="34" y="-82.4" font-family="Arial" font-size="7.00"> &#160;7</text>
<text text-anchor="start" x="48" y="-65.8" font-family="Arial" font-weight="bold" font-size="14.00">Predict 24.2</text>
<text text-anchor="start" x="66" y="-48.8" font-family="Arial" font-weight="bold" font-size="14.00">n = 16</text>
<text text-anchor="start" x="84.5" y="-30.8" font-family="Arial" font-size="9.00"> </text>
<path fill="none" stroke="#333333" d="M45,-27C45,-27 127,-27 127,-27 133,-27 139,-33 139,-39 139,-39 139,-79 139,-79 139,-85 133,-91 127,-91 127,-91 45,-91 45,-91 39,-91 33,-85 33,-79 33,-79 33,-39 33,-39 33,-33 39,-27 45,-27"/>
<text text-anchor="start" x="84" y="-12.8" font-family="Arial" font-weight="bold" font-size="14.00"> </text>
</g>
<!-- 6&#45;&gt;7 -->
<g id="edge7" class="edge">
<title>6&#45;&gt;7</title>
<path fill="none" stroke="#888888" d="M179.67,-153.67C170.39,-144.39 160.75,-134.75 151.33,-125.33"/>
<polygon fill="#888888" stroke="#888888" points="153.72,-122.77 144.18,-118.18 148.77,-127.72 153.72,-122.77"/>
</g>
<!-- 8 -->
<g id="node9" class="node">
<title>8</title>
<text text-anchor="start" x="213.5" y="-99.8" font-family="Arial" font-weight="bold" font-size="14.00"> ≥ 24.97</text>
<path fill="#f8766d" fill-opacity="0.662745" stroke="transparent" d="M193,-27C193,-27 283,-27 283,-27 289,-27 295,-33 295,-39 295,-39 295,-79 295,-79 295,-85 289,-91 283,-91 283,-91 193,-91 193,-91 187,-91 181,-85 181,-79 181,-79 181,-39 181,-39 181,-33 187,-27 193,-27"/>
<text text-anchor="start" x="182" y="-88.4" font-family="Arial" font-size="2.00"> </text>
<text text-anchor="start" x="182" y="-82.4" font-family="Arial" font-size="7.00"> &#160;8</text>
<text text-anchor="start" x="196" y="-65.8" font-family="Arial" font-weight="bold" font-size="14.00">Predict 25.75</text>
<text text-anchor="start" x="218" y="-48.8" font-family="Arial" font-weight="bold" font-size="14.00">n = 28</text>
<text text-anchor="start" x="236.5" y="-30.8" font-family="Arial" font-size="9.00"> </text>
<path fill="none" stroke="#333333" d="M193,-27C193,-27 283,-27 283,-27 289,-27 295,-33 295,-39 295,-39 295,-79 295,-79 295,-85 289,-91 283,-91 283,-91 193,-91 193,-91 187,-91 181,-85 181,-79 181,-79 181,-39 181,-39 181,-33 187,-27 193,-27"/>
<text text-anchor="start" x="236" y="-12.8" font-family="Arial" font-weight="bold" font-size="14.00"> </text>
</g>
<!-- 6&#45;&gt;8 -->
<g id="edge8" class="edge">
<title>6&#45;&gt;8</title>
<path fill="none" stroke="#888888" d="M238,-153.67C238,-145.39 238,-136.83 238,-128.38"/>
<polygon fill="#888888" stroke="#888888" points="241.5,-128.18 238,-118.18 234.5,-128.18 241.5,-128.18"/>
</g>
<!-- 11 -->
<g id="node12" class="node">
<title>11</title>
<text text-anchor="start" x="525" y="-253.8" font-family="Arial" font-weight="bold" font-size="14.00"> &lt; 28.73</text>
<path fill="#ebebeb" stroke="transparent" d="M508,-181C508,-181 592,-181 592,-181 598,-181 604,-187 604,-193 604,-193 604,-233 604,-233 604,-239 598,-245 592,-245 592,-245 508,-245 508,-245 502,-245 496,-239 496,-233 496,-233 496,-193 496,-193 496,-187 502,-181 508,-181"/>
<text text-anchor="start" x="497" y="-242.4" font-family="Arial" font-size="2.00"> </text>
<text text-anchor="start" x="497" y="-236.4" font-family="Arial" font-size="7.00"> &#160;11</text>
<text text-anchor="start" x="511" y="-219.8" font-family="Arial" font-weight="bold" font-size="14.00">Mean: 28.25</text>
<text text-anchor="start" x="534" y="-202.8" font-family="Arial" font-weight="bold" font-size="14.00">n = 6</text>
<text text-anchor="start" x="548.5" y="-184.8" font-family="Arial" font-size="9.00"> </text>
<path fill="none" stroke="#333333" d="M508,-181C508,-181 592,-181 592,-181 598,-181 604,-187 604,-193 604,-193 604,-233 604,-233 604,-239 598,-245 592,-245 592,-245 508,-245 508,-245 502,-245 496,-239 496,-233 496,-233 496,-193 496,-193 496,-187 502,-181 508,-181"/>
<text text-anchor="start" x="535.5" y="-166.8" font-family="Arial" font-weight="bold" font-size="14.00">time</text>
</g>
<!-- 10&#45;&gt;11 -->
<g id="edge11" class="edge">
<title>10&#45;&gt;11</title>
<path fill="none" stroke="#888888" d="M598.07,-307.67C593.63,-299.03 589.04,-290.07 584.52,-281.27"/>
<polygon fill="#888888" stroke="#888888" points="587.53,-279.48 579.85,-272.18 581.31,-282.67 587.53,-279.48"/>
</g>
<!-- 14 -->
<g id="node13" class="node">
<title>14</title>
<text text-anchor="start" x="681.5" y="-253.8" font-family="Arial" font-weight="bold" font-size="14.00"> ≥ 28.73</text>
<path fill="#ebebeb" stroke="transparent" d="M664,-181C664,-181 748,-181 748,-181 754,-181 760,-187 760,-193 760,-193 760,-233 760,-233 760,-239 754,-245 748,-245 748,-245 664,-245 664,-245 658,-245 652,-239 652,-233 652,-233 652,-193 652,-193 652,-187 658,-181 664,-181"/>
<text text-anchor="start" x="653" y="-242.4" font-family="Arial" font-size="2.00"> </text>
<text text-anchor="start" x="653" y="-236.4" font-family="Arial" font-size="7.00"> &#160;14</text>
<text text-anchor="start" x="667" y="-219.8" font-family="Arial" font-weight="bold" font-size="14.00">Mean: 32.36</text>
<text text-anchor="start" x="686.5" y="-202.8" font-family="Arial" font-weight="bold" font-size="14.00">n = 11</text>
<text text-anchor="start" x="704.5" y="-184.8" font-family="Arial" font-size="9.00"> </text>
<path fill="none" stroke="#333333" d="M664,-181C664,-181 748,-181 748,-181 754,-181 760,-187 760,-193 760,-193 760,-233 760,-233 760,-239 754,-245 748,-245 748,-245 664,-245 664,-245 658,-245 652,-239 652,-233 652,-233 652,-193 652,-193 652,-187 658,-181 664,-181"/>
<text text-anchor="start" x="691.5" y="-166.8" font-family="Arial" font-weight="bold" font-size="14.00">time</text>
</g>
<!-- 10&#45;&gt;14 -->
<g id="edge12" class="edge">
<title>10&#45;&gt;14</title>
<path fill="none" stroke="#888888" d="M657.93,-307.67C662.37,-299.03 666.96,-290.07 671.48,-281.27"/>
<polygon fill="#888888" stroke="#888888" points="674.69,-282.67 676.15,-272.18 668.47,-279.48 674.69,-282.67"/>
</g>
<!-- 18 -->
<g id="node18" class="node">
<title>18</title>
<text text-anchor="start" x="1071" y="-253.8" font-family="Arial" font-weight="bold" font-size="14.00"> &lt; 29.13</text>
<path fill="#ebebeb" stroke="transparent" d="M1054,-181C1054,-181 1138,-181 1138,-181 1144,-181 1150,-187 1150,-193 1150,-193 1150,-233 1150,-233 1150,-239 1144,-245 1138,-245 1138,-245 1054,-245 1054,-245 1048,-245 1042,-239 1042,-233 1042,-233 1042,-193 1042,-193 1042,-187 1048,-181 1054,-181"/>
<text text-anchor="start" x="1043" y="-242.4" font-family="Arial" font-size="2.00"> </text>
<text text-anchor="start" x="1043" y="-236.4" font-family="Arial" font-size="7.00"> &#160;18</text>
<text text-anchor="start" x="1057" y="-219.8" font-family="Arial" font-weight="bold" font-size="14.00">Mean: 27.54</text>
<text text-anchor="start" x="1076" y="-202.8" font-family="Arial" font-weight="bold" font-size="14.00">n = 35</text>
<text text-anchor="start" x="1094.5" y="-184.8" font-family="Arial" font-size="9.00"> </text>
<path fill="none" stroke="#333333" d="M1054,-181C1054,-181 1138,-181 1138,-181 1144,-181 1150,-187 1150,-193 1150,-193 1150,-233 1150,-233 1150,-239 1144,-245 1138,-245 1138,-245 1054,-245 1054,-245 1048,-245 1042,-239 1042,-233 1042,-233 1042,-193 1042,-193 1042,-187 1048,-181 1054,-181"/>
<text text-anchor="start" x="1081.5" y="-166.8" font-family="Arial" font-weight="bold" font-size="14.00">time</text>
</g>
<!-- 17&#45;&gt;18 -->
<g id="edge17" class="edge">
<title>17&#45;&gt;18</title>
<path fill="none" stroke="#888888" d="M1096,-307.67C1096,-299.39 1096,-290.83 1096,-282.38"/>
<polygon fill="#888888" stroke="#888888" points="1099.5,-282.18 1096,-272.18 1092.5,-282.18 1099.5,-282.18"/>
</g>
<!-- 21 -->
<g id="node19" class="node">
<title>21</title>
<text text-anchor="start" x="1305.5" y="-253.8" font-family="Arial" font-weight="bold" font-size="14.00"> ≥ 29.13</text>
<path fill="#ebebeb" stroke="transparent" d="M1292,-181C1292,-181 1368,-181 1368,-181 1374,-181 1380,-187 1380,-193 1380,-193 1380,-233 1380,-233 1380,-239 1374,-245 1368,-245 1368,-245 1292,-245 1292,-245 1286,-245 1280,-239 1280,-233 1280,-233 1280,-193 1280,-193 1280,-187 1286,-181 1292,-181"/>
<text text-anchor="start" x="1281" y="-242.4" font-family="Arial" font-size="2.00"> </text>
<text text-anchor="start" x="1281" y="-236.4" font-family="Arial" font-size="7.00"> &#160;21</text>
<text text-anchor="start" x="1295" y="-219.8" font-family="Arial" font-weight="bold" font-size="14.00">Mean: 30.9</text>
<text text-anchor="start" x="1310" y="-202.8" font-family="Arial" font-weight="bold" font-size="14.00">n = 29</text>
<text text-anchor="start" x="1328.5" y="-184.8" font-family="Arial" font-size="9.00"> </text>
<path fill="none" stroke="#333333" d="M1292,-181C1292,-181 1368,-181 1368,-181 1374,-181 1380,-187 1380,-193 1380,-193 1380,-233 1380,-233 1380,-239 1374,-245 1368,-245 1368,-245 1292,-245 1292,-245 1286,-245 1280,-239 1280,-233 1280,-233 1280,-193 1280,-193 1280,-187 1286,-181 1292,-181"/>
<text text-anchor="start" x="1315.5" y="-166.8" font-family="Arial" font-weight="bold" font-size="14.00">time</text>
</g>
<!-- 17&#45;&gt;21 -->
<g id="edge18" class="edge">
<title>17&#45;&gt;21</title>
<path fill="none" stroke="#888888" d="M1178.17,-312.62C1204.67,-295.41 1233.8,-276.49 1259.39,-259.87"/>
<polygon fill="#888888" stroke="#888888" points="1261.45,-262.7 1267.93,-254.32 1257.63,-256.83 1261.45,-262.7"/>
</g>
<!-- 12 -->
<g id="node14" class="node">
<title>12</title>
<text text-anchor="start" x="372.5" y="-99.8" font-family="Arial" font-weight="bold" font-size="14.00"> &lt; 20.5</text>
<path fill="#f8766d" fill-opacity="0.560784" stroke="transparent" d="M349,-27C349,-27 439,-27 439,-27 445,-27 451,-33 451,-39 451,-39 451,-79 451,-79 451,-85 445,-91 439,-91 439,-91 349,-91 349,-91 343,-91 337,-85 337,-79 337,-79 337,-39 337,-39 337,-33 343,-27 349,-27"/>
<text text-anchor="start" x="338" y="-88.4" font-family="Arial" font-size="2.00"> </text>
<text text-anchor="start" x="338" y="-82.4" font-family="Arial" font-size="7.00"> &#160;12</text>
<text text-anchor="start" x="352" y="-65.8" font-family="Arial" font-weight="bold" font-size="14.00">Predict 28.81</text>
<text text-anchor="start" x="378" y="-48.8" font-family="Arial" font-weight="bold" font-size="14.00">n = 5</text>
<text text-anchor="start" x="392.5" y="-30.8" font-family="Arial" font-size="9.00"> </text>
<path fill="none" stroke="#333333" d="M349,-27C349,-27 439,-27 439,-27 445,-27 451,-33 451,-39 451,-39 451,-79 451,-79 451,-85 445,-91 439,-91 439,-91 349,-91 349,-91 343,-91 337,-85 337,-79 337,-79 337,-39 337,-39 337,-33 343,-27 349,-27"/>
<text text-anchor="start" x="392" y="-12.8" font-family="Arial" font-weight="bold" font-size="14.00"> </text>
</g>
<!-- 11&#45;&gt;12 -->
<g id="edge13" class="edge">
<title>11&#45;&gt;12</title>
<path fill="none" stroke="#888888" d="M490.13,-153.67C480.62,-144.39 470.72,-134.75 461.05,-125.33"/>
<polygon fill="#888888" stroke="#888888" points="463.31,-122.65 453.71,-118.18 458.43,-127.66 463.31,-122.65"/>
</g>
<!-- 13 -->
<g id="node15" class="node">
<title>13</title>
<text text-anchor="start" x="529" y="-99.8" font-family="Arial" font-weight="bold" font-size="14.00"> ≥ 20.5</text>
<path fill="#f8766d" fill-opacity="0.670588" stroke="transparent" d="M505,-27C505,-27 595,-27 595,-27 601,-27 607,-33 607,-39 607,-39 607,-79 607,-79 607,-85 601,-91 595,-91 595,-91 505,-91 505,-91 499,-91 493,-85 493,-79 493,-79 493,-39 493,-39 493,-33 499,-27 505,-27"/>
<text text-anchor="start" x="494" y="-88.4" font-family="Arial" font-size="2.00"> </text>
<text text-anchor="start" x="494" y="-82.4" font-family="Arial" font-size="7.00"> &#160;13</text>
<text text-anchor="start" x="508" y="-65.8" font-family="Arial" font-weight="bold" font-size="14.00">Predict 25.48</text>
<text text-anchor="start" x="534" y="-48.8" font-family="Arial" font-weight="bold" font-size="14.00">n = 1</text>
<text text-anchor="start" x="548.5" y="-30.8" font-family="Arial" font-size="9.00"> </text>
<path fill="none" stroke="#333333" d="M505,-27C505,-27 595,-27 595,-27 601,-27 607,-33 607,-39 607,-39 607,-79 607,-79 607,-85 601,-91 595,-91 595,-91 505,-91 505,-91 499,-91 493,-85 493,-79 493,-79 493,-39 493,-39 493,-33 499,-27 505,-27"/>
<text text-anchor="start" x="548" y="-12.8" font-family="Arial" font-weight="bold" font-size="14.00"> </text>
</g>
<!-- 11&#45;&gt;13 -->
<g id="edge14" class="edge">
<title>11&#45;&gt;13</title>
<path fill="none" stroke="#888888" d="M550,-153.67C550,-145.39 550,-136.83 550,-128.38"/>
<polygon fill="#888888" stroke="#888888" points="553.5,-128.18 550,-118.18 546.5,-128.18 553.5,-128.18"/>
</g>
<!-- 15 -->
<g id="node16" class="node">
<title>15</title>
<text text-anchor="start" x="684.5" y="-99.8" font-family="Arial" font-weight="bold" font-size="14.00"> &lt; 10.5</text>
<path fill="#f8766d" fill-opacity="0.376471" stroke="transparent" d="M661,-27C661,-27 751,-27 751,-27 757,-27 763,-33 763,-39 763,-39 763,-79 763,-79 763,-85 757,-91 751,-91 751,-91 661,-91 661,-91 655,-91 649,-85 649,-79 649,-79 649,-39 649,-39 649,-33 655,-27 661,-27"/>
<text text-anchor="start" x="650" y="-88.4" font-family="Arial" font-size="2.00"> </text>
<text text-anchor="start" x="650" y="-82.4" font-family="Arial" font-size="7.00"> &#160;15</text>
<text text-anchor="start" x="664" y="-65.8" font-family="Arial" font-weight="bold" font-size="14.00">Predict 34.46</text>
<text text-anchor="start" x="690" y="-48.8" font-family="Arial" font-weight="bold" font-size="14.00">n = 4</text>
<text text-anchor="start" x="704.5" y="-30.8" font-family="Arial" font-size="9.00"> </text>
<path fill="none" stroke="#333333" d="M661,-27C661,-27 751,-27 751,-27 757,-27 763,-33 763,-39 763,-39 763,-79 763,-79 763,-85 757,-91 751,-91 751,-91 661,-91 661,-91 655,-91 649,-85 649,-79 649,-79 649,-39 649,-39 649,-33 655,-27 661,-27"/>
<text text-anchor="start" x="704" y="-12.8" font-family="Arial" font-weight="bold" font-size="14.00"> </text>
</g>
<!-- 14&#45;&gt;15 -->
<g id="edge15" class="edge">
<title>14&#45;&gt;15</title>
<path fill="none" stroke="#888888" d="M706,-153.67C706,-145.39 706,-136.83 706,-128.38"/>
<polygon fill="#888888" stroke="#888888" points="709.5,-128.18 706,-118.18 702.5,-128.18 709.5,-128.18"/>
</g>
<!-- 16 -->
<g id="node17" class="node">
<title>16</title>
<text text-anchor="start" x="841" y="-99.8" font-family="Arial" font-weight="bold" font-size="14.00"> ≥ 10.5</text>
<path fill="#f8766d" fill-opacity="0.482353" stroke="transparent" d="M817,-27C817,-27 907,-27 907,-27 913,-27 919,-33 919,-39 919,-39 919,-79 919,-79 919,-85 913,-91 907,-91 907,-91 817,-91 817,-91 811,-91 805,-85 805,-79 805,-79 805,-39 805,-39 805,-33 811,-27 817,-27"/>
<text text-anchor="start" x="806" y="-88.4" font-family="Arial" font-size="2.00"> </text>
<text text-anchor="start" x="806" y="-82.4" font-family="Arial" font-size="7.00"> &#160;16</text>
<text text-anchor="start" x="820" y="-65.8" font-family="Arial" font-weight="bold" font-size="14.00">Predict 31.17</text>
<text text-anchor="start" x="846" y="-48.8" font-family="Arial" font-weight="bold" font-size="14.00">n = 7</text>
<text text-anchor="start" x="860.5" y="-30.8" font-family="Arial" font-size="9.00"> </text>
<path fill="none" stroke="#333333" d="M817,-27C817,-27 907,-27 907,-27 913,-27 919,-33 919,-39 919,-39 919,-79 919,-79 919,-85 913,-91 907,-91 907,-91 817,-91 817,-91 811,-91 805,-85 805,-79 805,-79 805,-39 805,-39 805,-33 811,-27 817,-27"/>
<text text-anchor="start" x="860" y="-12.8" font-family="Arial" font-weight="bold" font-size="14.00"> </text>
</g>
<!-- 14&#45;&gt;16 -->
<g id="edge16" class="edge">
<title>14&#45;&gt;16</title>
<path fill="none" stroke="#888888" d="M765.87,-153.67C775.38,-144.39 785.28,-134.75 794.95,-125.33"/>
<polygon fill="#888888" stroke="#888888" points="797.57,-127.66 802.29,-118.18 792.69,-122.65 797.57,-127.66"/>
</g>
<!-- 19 -->
<g id="node20" class="node">
<title>19</title>
<text text-anchor="start" x="996.5" y="-99.8" font-family="Arial" font-weight="bold" font-size="14.00"> &lt; 18.5</text>
<path fill="#f8766d" fill-opacity="0.615686" stroke="transparent" d="M973,-27C973,-27 1063,-27 1063,-27 1069,-27 1075,-33 1075,-39 1075,-39 1075,-79 1075,-79 1075,-85 1069,-91 1063,-91 1063,-91 973,-91 973,-91 967,-91 961,-85 961,-79 961,-79 961,-39 961,-39 961,-33 967,-27 973,-27"/>
<text text-anchor="start" x="962" y="-88.4" font-family="Arial" font-size="2.00"> </text>
<text text-anchor="start" x="962" y="-82.4" font-family="Arial" font-size="7.00"> &#160;19</text>
<text text-anchor="start" x="976" y="-65.8" font-family="Arial" font-weight="bold" font-size="14.00">Predict 27.22</text>
<text text-anchor="start" x="998" y="-48.8" font-family="Arial" font-weight="bold" font-size="14.00">n = 28</text>
<text text-anchor="start" x="1016.5" y="-30.8" font-family="Arial" font-size="9.00"> </text>
<path fill="none" stroke="#333333" d="M973,-27C973,-27 1063,-27 1063,-27 1069,-27 1075,-33 1075,-39 1075,-39 1075,-79 1075,-79 1075,-85 1069,-91 1063,-91 1063,-91 973,-91 973,-91 967,-91 961,-85 961,-79 961,-79 961,-39 961,-39 961,-33 967,-27 973,-27"/>
<text text-anchor="start" x="1016" y="-12.8" font-family="Arial" font-weight="bold" font-size="14.00"> </text>
</g>
<!-- 18&#45;&gt;19 -->
<g id="edge19" class="edge">
<title>18&#45;&gt;19</title>
<path fill="none" stroke="#888888" d="M1066.07,-153.67C1061.63,-145.03 1057.04,-136.07 1052.52,-127.27"/>
<polygon fill="#888888" stroke="#888888" points="1055.53,-125.48 1047.85,-118.18 1049.31,-128.67 1055.53,-125.48"/>
</g>
<!-- 20 -->
<g id="node21" class="node">
<title>20</title>
<text text-anchor="start" x="1153" y="-99.8" font-family="Arial" font-weight="bold" font-size="14.00"> ≥ 18.5</text>
<path fill="#f8766d" fill-opacity="0.560784" stroke="transparent" d="M1129,-27C1129,-27 1219,-27 1219,-27 1225,-27 1231,-33 1231,-39 1231,-39 1231,-79 1231,-79 1231,-85 1225,-91 1219,-91 1219,-91 1129,-91 1129,-91 1123,-91 1117,-85 1117,-79 1117,-79 1117,-39 1117,-39 1117,-33 1123,-27 1129,-27"/>
<text text-anchor="start" x="1118" y="-88.4" font-family="Arial" font-size="2.00"> </text>
<text text-anchor="start" x="1118" y="-82.4" font-family="Arial" font-size="7.00"> &#160;20</text>
<text text-anchor="start" x="1132" y="-65.8" font-family="Arial" font-weight="bold" font-size="14.00">Predict 28.79</text>
<text text-anchor="start" x="1158" y="-48.8" font-family="Arial" font-weight="bold" font-size="14.00">n = 7</text>
<text text-anchor="start" x="1172.5" y="-30.8" font-family="Arial" font-size="9.00"> </text>
<path fill="none" stroke="#333333" d="M1129,-27C1129,-27 1219,-27 1219,-27 1225,-27 1231,-33 1231,-39 1231,-39 1231,-79 1231,-79 1231,-85 1225,-91 1219,-91 1219,-91 1129,-91 1129,-91 1123,-91 1117,-85 1117,-79 1117,-79 1117,-39 1117,-39 1117,-33 1123,-27 1129,-27"/>
<text text-anchor="start" x="1172" y="-12.8" font-family="Arial" font-weight="bold" font-size="14.00"> </text>
</g>
<!-- 18&#45;&gt;20 -->
<g id="edge20" class="edge">
<title>18&#45;&gt;20</title>
<path fill="none" stroke="#888888" d="M1125.93,-153.67C1130.37,-145.03 1134.96,-136.07 1139.48,-127.27"/>
<polygon fill="#888888" stroke="#888888" points="1142.69,-128.67 1144.15,-118.18 1136.47,-125.48 1142.69,-128.67"/>
</g>
<!-- 22 -->
<g id="node22" class="node">
<title>22</title>
<text text-anchor="start" x="1312.5" y="-99.8" font-family="Arial" font-weight="bold" font-size="14.00"> &lt; 8.5</text>
<path fill="#f8766d" fill-opacity="0.439216" stroke="transparent" d="M1285,-27C1285,-27 1375,-27 1375,-27 1381,-27 1387,-33 1387,-39 1387,-39 1387,-79 1387,-79 1387,-85 1381,-91 1375,-91 1375,-91 1285,-91 1285,-91 1279,-91 1273,-85 1273,-79 1273,-79 1273,-39 1273,-39 1273,-33 1279,-27 1285,-27"/>
<text text-anchor="start" x="1274" y="-88.4" font-family="Arial" font-size="2.00"> </text>
<text text-anchor="start" x="1274" y="-82.4" font-family="Arial" font-size="7.00"> &#160;22</text>
<text text-anchor="start" x="1288" y="-65.8" font-family="Arial" font-weight="bold" font-size="14.00">Predict 32.52</text>
<text text-anchor="start" x="1310.5" y="-48.8" font-family="Arial" font-weight="bold" font-size="14.00">n = 11</text>
<text text-anchor="start" x="1328.5" y="-30.8" font-family="Arial" font-size="9.00"> </text>
<path fill="none" stroke="#333333" d="M1285,-27C1285,-27 1375,-27 1375,-27 1381,-27 1387,-33 1387,-39 1387,-39 1387,-79 1387,-79 1387,-85 1381,-91 1375,-91 1375,-91 1285,-91 1285,-91 1279,-91 1273,-85 1273,-79 1273,-79 1273,-39 1273,-39 1273,-33 1279,-27 1285,-27"/>
<text text-anchor="start" x="1328" y="-12.8" font-family="Arial" font-weight="bold" font-size="14.00"> </text>
</g>
<!-- 21&#45;&gt;22 -->
<g id="edge21" class="edge">
<title>21&#45;&gt;22</title>
<path fill="none" stroke="#888888" d="M1330,-153.67C1330,-145.39 1330,-136.83 1330,-128.38"/>
<polygon fill="#888888" stroke="#888888" points="1333.5,-128.18 1330,-118.18 1326.5,-128.18 1333.5,-128.18"/>
</g>
<!-- 23 -->
<g id="node23" class="node">
<title>23</title>
<text text-anchor="start" x="1469" y="-99.8" font-family="Arial" font-weight="bold" font-size="14.00"> ≥ 8.5</text>
<path fill="#f8766d" fill-opacity="0.525490" stroke="transparent" d="M1441,-27C1441,-27 1531,-27 1531,-27 1537,-27 1543,-33 1543,-39 1543,-39 1543,-79 1543,-79 1543,-85 1537,-91 1531,-91 1531,-91 1441,-91 1441,-91 1435,-91 1429,-85 1429,-79 1429,-79 1429,-39 1429,-39 1429,-33 1435,-27 1441,-27"/>
<text text-anchor="start" x="1430" y="-88.4" font-family="Arial" font-size="2.00"> </text>
<text text-anchor="start" x="1430" y="-82.4" font-family="Arial" font-size="7.00"> &#160;23</text>
<text text-anchor="start" x="1444" y="-65.8" font-family="Arial" font-weight="bold" font-size="14.00">Predict 29.91</text>
<text text-anchor="start" x="1466" y="-48.8" font-family="Arial" font-weight="bold" font-size="14.00">n = 18</text>
<text text-anchor="start" x="1484.5" y="-30.8" font-family="Arial" font-size="9.00"> </text>
<path fill="none" stroke="#333333" d="M1441,-27C1441,-27 1531,-27 1531,-27 1537,-27 1543,-33 1543,-39 1543,-39 1543,-79 1543,-79 1543,-85 1537,-91 1531,-91 1531,-91 1441,-91 1441,-91 1435,-91 1429,-85 1429,-79 1429,-79 1429,-39 1429,-39 1429,-33 1435,-27 1441,-27"/>
<text text-anchor="start" x="1484" y="-12.8" font-family="Arial" font-weight="bold" font-size="14.00"> </text>
</g>
<!-- 21&#45;&gt;23 -->
<g id="edge22" class="edge">
<title>21&#45;&gt;23</title>
<path fill="none" stroke="#888888" d="M1389.87,-153.67C1399.38,-144.39 1409.28,-134.75 1418.95,-125.33"/>
<polygon fill="#888888" stroke="#888888" points="1421.57,-127.66 1426.29,-118.18 1416.69,-122.65 1421.57,-127.66"/>
</g>
</g>
</svg>
