<?xml version="1.0" encoding="UTF-8" standalone="no"?>
<!DOCTYPE svg PUBLIC "-//W3C//DTD SVG 1.1//EN"
 "http://www.w3.org/Graphics/SVG/1.1/DTD/svg11.dtd">
<!-- Generated by graphviz version 2.50.0 (20211204.2007)
 -->
<!-- Pages: 1 -->
<svg width="1855pt" height="742pt"
 viewBox="0.00 0.00 1855.00 742.00" xmlns="http://www.w3.org/2000/svg" xmlns:xlink="http://www.w3.org/1999/xlink">
<g id="graph0" class="graph" transform="scale(1 1) rotate(0) translate(4 738)">
<polygon fill="white" stroke="transparent" points="-4,4 -4,-738 1851,-738 1851,4 -4,4"/>
<!-- 1 -->
<g id="node1" class="node">
<title>1</title>
<text text-anchor="start" x="854" y="-715.8" font-family="Arial" font-weight="bold" font-size="14.00"> </text>
<text text-anchor="start" x="792" y="-671.3" font-family="Arial" font-size="14.00"> &#160;</text>
<path fill="#ebebeb" stroke="transparent" d="M814,-643C814,-643 898,-643 898,-643 904,-643 910,-649 910,-655 910,-655 910,-695 910,-695 910,-701 904,-707 898,-707 898,-707 814,-707 814,-707 808,-707 802,-701 802,-695 802,-695 802,-655 802,-655 802,-649 808,-643 814,-643"/>
<text text-anchor="start" x="803" y="-704.4" font-family="Arial" font-size="2.00"> </text>
<text text-anchor="start" x="803" y="-698.4" font-family="Arial" font-size="7.00"> &#160;1</text>
<text text-anchor="start" x="817" y="-681.8" font-family="Arial" font-weight="bold" font-size="14.00">Mean: 25.86</text>
<text text-anchor="start" x="832.5" y="-664.8" font-family="Arial" font-weight="bold" font-size="14.00">n = 168</text>
<text text-anchor="start" x="854.5" y="-646.8" font-family="Arial" font-size="9.00"> </text>
<path fill="none" stroke="#333333" d="M814,-643C814,-643 898,-643 898,-643 904,-643 910,-649 910,-655 910,-655 910,-695 910,-695 910,-701 904,-707 898,-707 898,-707 814,-707 814,-707 808,-707 802,-701 802,-695 802,-695 802,-655 802,-655 802,-649 808,-643 814,-643"/>
<text text-anchor="start" x="912" y="-671.3" font-family="Arial" font-size="14.00"> &#160;</text>
<text text-anchor="start" x="806" y="-628.8" font-family="Arial" font-weight="bold" font-size="14.00">prev_1h_inflow</text>
</g>
<!-- 2 -->
<g id="node2" class="node">
<title>2</title>
<text text-anchor="start" x="615.5" y="-561.8" font-family="Arial" font-weight="bold" font-size="14.00"> &lt; 28.9</text>
<text text-anchor="start" x="565" y="-517.3" font-family="Arial" font-size="14.00"> &#160;&#160;&#160;</text>
<path fill="#ebebeb" stroke="transparent" d="M595,-489C595,-489 679,-489 679,-489 685,-489 691,-495 691,-501 691,-501 691,-541 691,-541 691,-547 685,-553 679,-553 679,-553 595,-553 595,-553 589,-553 583,-547 583,-541 583,-541 583,-501 583,-501 583,-495 589,-489 595,-489"/>
<text text-anchor="start" x="584" y="-550.4" font-family="Arial" font-size="2.00"> </text>
<text text-anchor="start" x="584" y="-544.4" font-family="Arial" font-size="7.00"> &#160;2</text>
<text text-anchor="start" x="598" y="-527.8" font-family="Arial" font-weight="bold" font-size="14.00">Mean: 24.34</text>
<text text-anchor="start" x="613.5" y="-510.8" font-family="Arial" font-weight="bold" font-size="14.00">n = 124</text>
<text text-anchor="start" x="635.5" y="-492.8" font-family="Arial" font-size="9.00"> </text>
<path fill="none" stroke="#333333" d="M595,-489C595,-489 679,-489 679,-489 685,-489 691,-495 691,-501 691,-501 691,-541 691,-541 691,-547 685,-553 679,-553 679,-553 595,-553 595,-553 589,-553 583,-547 583,-541 583,-541 583,-501 583,-501 583,-495 589,-489 595,-489"/>
<text text-anchor="start" x="693" y="-517.3" font-family="Arial" font-size="14.00"> &#160;&#160;&#160;</text>
<text text-anchor="start" x="579.5" y="-474.8" font-family="Arial" font-weight="bold" font-size="14.00">prev_168h_inflow</text>
</g>
<!-- 1&#45;&gt;2 -->
<g id="edge1" class="edge">
<title>1&#45;&gt;2</title>
<path fill="none" stroke="#888888" d="M781.86,-622.54C764.42,-610.44 745.65,-597.41 727.59,-584.87"/>
<polygon fill="#888888" stroke="#888888" points="729.56,-581.98 719.35,-579.15 725.57,-587.73 729.56,-581.98"/>
</g>
<!-- 15 -->
<g id="node3" class="node">
<title>15</title>
<text text-anchor="start" x="1088" y="-561.8" font-family="Arial" font-weight="bold" font-size="14.00"> ≥ 28.9</text>
<path fill="#ebebeb" stroke="transparent" d="M1067,-489C1067,-489 1151,-489 1151,-489 1157,-489 1163,-495 1163,-501 1163,-501 1163,-541 1163,-541 1163,-547 1157,-553 1151,-553 1151,-553 1067,-553 1067,-553 1061,-553 1055,-547 1055,-541 1055,-541 1055,-501 1055,-501 1055,-495 1061,-489 1067,-489"/>
<text text-anchor="start" x="1056" y="-550.4" font-family="Arial" font-size="2.00"> </text>
<text text-anchor="start" x="1056" y="-544.4" font-family="Arial" font-size="7.00"> &#160;15</text>
<text text-anchor="start" x="1070" y="-527.8" font-family="Arial" font-weight="bold" font-size="14.00">Mean: 30.14</text>
<text text-anchor="start" x="1089" y="-510.8" font-family="Arial" font-weight="bold" font-size="14.00">n = 44</text>
<text text-anchor="start" x="1107.5" y="-492.8" font-family="Arial" font-size="9.00"> </text>
<path fill="none" stroke="#333333" d="M1067,-489C1067,-489 1151,-489 1151,-489 1157,-489 1163,-495 1163,-501 1163,-501 1163,-541 1163,-541 1163,-547 1157,-553 1151,-553 1151,-553 1067,-553 1067,-553 1061,-553 1055,-547 1055,-541 1055,-541 1055,-501 1055,-501 1055,-495 1061,-489 1067,-489"/>
<text text-anchor="start" x="1094.5" y="-474.8" font-family="Arial" font-weight="bold" font-size="14.00">time</text>
</g>
<!-- 1&#45;&gt;15 -->
<g id="edge2" class="edge">
<title>1&#45;&gt;15</title>
<path fill="none" stroke="#888888" d="M930.2,-629.42C962.99,-609.72 1001.47,-586.6 1034.32,-566.87"/>
<polygon fill="#888888" stroke="#888888" points="1036.22,-569.81 1042.98,-561.66 1032.61,-563.81 1036.22,-569.81"/>
</g>
<!-- 3 -->
<g id="node4" class="node">
<title>3</title>
<text text-anchor="start" x="365.5" y="-407.8" font-family="Arial" font-weight="bold" font-size="14.00"> &lt; 25</text>
<text text-anchor="start" x="309" y="-363.3" font-family="Arial" font-size="14.00"> &#160;&#160;&#160;</text>
<path fill="#ebebeb" stroke="transparent" d="M339,-335C339,-335 423,-335 423,-335 429,-335 435,-341 435,-347 435,-347 435,-387 435,-387 435,-393 429,-399 423,-399 423,-399 339,-399 339,-399 333,-399 327,-393 327,-387 327,-387 327,-347 327,-347 327,-341 333,-335 339,-335"/>
<text text-anchor="start" x="328" y="-396.4" font-family="Arial" font-size="2.00"> </text>
<text text-anchor="start" x="328" y="-390.4" font-family="Arial" font-size="7.00"> &#160;3</text>
<text text-anchor="start" x="342" y="-373.8" font-family="Arial" font-weight="bold" font-size="14.00">Mean: 20.97</text>
<text text-anchor="start" x="361" y="-356.8" font-family="Arial" font-weight="bold" font-size="14.00">n = 59</text>
<text text-anchor="start" x="379.5" y="-338.8" font-family="Arial" font-size="9.00"> </text>
<path fill="none" stroke="#333333" d="M339,-335C339,-335 423,-335 423,-335 429,-335 435,-341 435,-347 435,-347 435,-387 435,-387 435,-393 429,-399 423,-399 423,-399 339,-399 339,-399 333,-399 327,-393 327,-387 327,-387 327,-347 327,-347 327,-341 333,-335 339,-335"/>
<text text-anchor="start" x="437" y="-363.3" font-family="Arial" font-size="14.00"> &#160;&#160;&#160;</text>
<text text-anchor="start" x="323.5" y="-320.8" font-family="Arial" font-weight="bold" font-size="14.00">prev_168h_inflow</text>
</g>
<!-- 2&#45;&gt;3 -->
<g id="edge3" class="edge">
<title>2&#45;&gt;3</title>
<path fill="none" stroke="#888888" d="M554.94,-471.28C528.42,-455.53 498.86,-437.98 471.74,-421.88"/>
<polygon fill="#888888" stroke="#888888" points="473.42,-418.8 463.03,-416.71 469.84,-424.82 473.42,-418.8"/>
</g>
<!-- 8 -->
<g id="node5" class="node">
<title>8</title>
<text text-anchor="start" x="621.5" y="-407.8" font-family="Arial" font-weight="bold" font-size="14.00"> ≥ 25</text>
<text text-anchor="start" x="565" y="-363.3" font-family="Arial" font-size="14.00"> &#160;&#160;&#160;</text>
<path fill="#ebebeb" stroke="transparent" d="M595,-335C595,-335 679,-335 679,-335 685,-335 691,-341 691,-347 691,-347 691,-387 691,-387 691,-393 685,-399 679,-399 679,-399 595,-399 595,-399 589,-399 583,-393 583,-387 583,-387 583,-347 583,-347 583,-341 589,-335 595,-335"/>
<text text-anchor="start" x="584" y="-396.4" font-family="Arial" font-size="2.00"> </text>
<text text-anchor="start" x="584" y="-390.4" font-family="Arial" font-size="7.00"> &#160;8</text>
<text text-anchor="start" x="598" y="-373.8" font-family="Arial" font-weight="bold" font-size="14.00">Mean: 27.39</text>
<text text-anchor="start" x="617" y="-356.8" font-family="Arial" font-weight="bold" font-size="14.00">n = 65</text>
<text text-anchor="start" x="635.5" y="-338.8" font-family="Arial" font-size="9.00"> </text>
<path fill="none" stroke="#333333" d="M595,-335C595,-335 679,-335 679,-335 685,-335 691,-341 691,-347 691,-347 691,-387 691,-387 691,-393 685,-399 679,-399 679,-399 595,-399 595,-399 589,-399 583,-393 583,-387 583,-387 583,-347 583,-347 583,-341 589,-335 595,-335"/>
<text text-anchor="start" x="693" y="-363.3" font-family="Arial" font-size="14.00"> &#160;&#160;&#160;</text>
<text text-anchor="start" x="579.5" y="-320.8" font-family="Arial" font-weight="bold" font-size="14.00">prev_168h_inflow</text>
</g>
<!-- 2&#45;&gt;8 -->
<g id="edge4" class="edge">
<title>2&#45;&gt;8</title>
<path fill="none" stroke="#888888" d="M637,-461.67C637,-453.39 637,-444.83 637,-436.38"/>
<polygon fill="#888888" stroke="#888888" points="640.5,-436.18 637,-426.18 633.5,-436.18 640.5,-436.18"/>
</g>
<!-- 16 -->
<g id="node16" class="node">
<title>16</title>
<text text-anchor="start" x="1088" y="-407.8" font-family="Arial" font-weight="bold" font-size="14.00"> &lt; 10.5</text>
<path fill="#ebebeb" stroke="transparent" d="M1068,-335C1068,-335 1151,-335 1151,-335 1157,-335 1163,-341 1163,-347 1163,-347 1163,-387 1163,-387 1163,-393 1157,-399 1151,-399 1151,-399 1068,-399 1068,-399 1062,-399 1056,-393 1056,-387 1056,-387 1056,-347 1056,-347 1056,-341 1062,-335 1068,-335"/>
<text text-anchor="start" x="1057" y="-396.4" font-family="Arial" font-size="2.00"> </text>
<text text-anchor="start" x="1057" y="-390.4" font-family="Arial" font-size="7.00"> &#160;16</text>
<text text-anchor="start" x="1071" y="-373.8" font-family="Arial" font-weight="bold" font-size="14.00">Mean: 31.11</text>
<text text-anchor="start" x="1089.5" y="-356.8" font-family="Arial" font-weight="bold" font-size="14.00">n = 16</text>
<text text-anchor="start" x="1108" y="-338.8" font-family="Arial" font-size="9.00"> </text>
<path fill="none" stroke="#333333" d="M1068,-335C1068,-335 1151,-335 1151,-335 1157,-335 1163,-341 1163,-347 1163,-347 1163,-387 1163,-387 1163,-393 1157,-399 1151,-399 1151,-399 1068,-399 1068,-399 1062,-399 1056,-393 1056,-387 1056,-387 1056,-347 1056,-347 1056,-341 1062,-335 1068,-335"/>
<text text-anchor="start" x="1067" y="-320.8" font-family="Arial" font-weight="bold" font-size="14.00">day_of_week</text>
</g>
<!-- 15&#45;&gt;16 -->
<g id="edge15" class="edge">
<title>15&#45;&gt;16</title>
<path fill="none" stroke="#888888" d="M1109,-461.67C1109,-453.39 1109,-444.83 1109,-436.38"/>
<polygon fill="#888888" stroke="#888888" points="1112.5,-436.18 1109,-426.18 1105.5,-436.18 1112.5,-436.18"/>
</g>
<!-- 21 -->
<g id="node17" class="node">
<title>21</title>
<text text-anchor="start" x="1365" y="-407.8" font-family="Arial" font-weight="bold" font-size="14.00"> ≥ 10.5</text>
<text text-anchor="start" x="1314" y="-363.3" font-family="Arial" font-size="14.00"> &#160;&#160;&#160;</text>
<path fill="#ebebeb" stroke="transparent" d="M1344,-335C1344,-335 1428,-335 1428,-335 1434,-335 1440,-341 1440,-347 1440,-347 1440,-387 1440,-387 1440,-393 1434,-399 1428,-399 1428,-399 1344,-399 1344,-399 1338,-399 1332,-393 1332,-387 1332,-387 1332,-347 1332,-347 1332,-341 1338,-335 1344,-335"/>
<text text-anchor="start" x="1333" y="-396.4" font-family="Arial" font-size="2.00"> </text>
<text text-anchor="start" x="1333" y="-390.4" font-family="Arial" font-size="7.00"> &#160;21</text>
<text text-anchor="start" x="1347" y="-373.8" font-family="Arial" font-weight="bold" font-size="14.00">Mean: 29.58</text>
<text text-anchor="start" x="1366" y="-356.8" font-family="Arial" font-weight="bold" font-size="14.00">n = 28</text>
<text text-anchor="start" x="1384.5" y="-338.8" font-family="Arial" font-size="9.00"> </text>
<path fill="none" stroke="#333333" d="M1344,-335C1344,-335 1428,-335 1428,-335 1434,-335 1440,-341 1440,-347 1440,-347 1440,-387 1440,-387 1440,-393 1434,-399 1428,-399 1428,-399 1344,-399 1344,-399 1338,-399 1332,-393 1332,-387 1332,-387 1332,-347 1332,-347 1332,-341 1338,-335 1344,-335"/>
<text text-anchor="start" x="1442" y="-363.3" font-family="Arial" font-size="14.00"> &#160;&#160;&#160;</text>
<text text-anchor="start" x="1328.5" y="-320.8" font-family="Arial" font-weight="bold" font-size="14.00">prev_168h_inflow</text>
</g>
<!-- 15&#45;&gt;21 -->
<g id="edge16" class="edge">
<title>15&#45;&gt;21</title>
<path fill="none" stroke="#888888" d="M1175.35,-483.59C1211.06,-464 1255.65,-439.53 1294.6,-418.16"/>
<polygon fill="#888888" stroke="#888888" points="1296.76,-420.96 1303.85,-413.08 1293.4,-414.82 1296.76,-420.96"/>
</g>
<!-- 4 -->
<g id="node6" class="node">
<title>4</title>
<text text-anchor="start" x="191" y="-253.8" font-family="Arial" font-weight="bold" font-size="14.00"> &lt; 22.59</text>
<text text-anchor="start" x="144" y="-209.3" font-family="Arial" font-size="14.00"> &#160;&#160;&#160;</text>
<path fill="#ebebeb" stroke="transparent" d="M174,-181C174,-181 258,-181 258,-181 264,-181 270,-187 270,-193 270,-193 270,-233 270,-233 270,-239 264,-245 258,-245 258,-245 174,-245 174,-245 168,-245 162,-239 162,-233 162,-233 162,-193 162,-193 162,-187 168,-181 174,-181"/>
<text text-anchor="start" x="163" y="-242.4" font-family="Arial" font-size="2.00"> </text>
<text text-anchor="start" x="163" y="-236.4" font-family="Arial" font-size="7.00"> &#160;4</text>
<text text-anchor="start" x="177" y="-219.8" font-family="Arial" font-weight="bold" font-size="14.00">Mean: 19.77</text>
<text text-anchor="start" x="196" y="-202.8" font-family="Arial" font-weight="bold" font-size="14.00">n = 43</text>
<text text-anchor="start" x="214.5" y="-184.8" font-family="Arial" font-size="9.00"> </text>
<path fill="none" stroke="#333333" d="M174,-181C174,-181 258,-181 258,-181 264,-181 270,-187 270,-193 270,-193 270,-233 270,-233 270,-239 264,-245 258,-245 258,-245 174,-245 174,-245 168,-245 162,-239 162,-233 162,-233 162,-193 162,-193 162,-187 168,-181 174,-181"/>
<text text-anchor="start" x="272" y="-209.3" font-family="Arial" font-size="14.00"> &#160;&#160;&#160;</text>
<text text-anchor="start" x="158.5" y="-166.8" font-family="Arial" font-weight="bold" font-size="14.00">prev_168h_inflow</text>
</g>
<!-- 3&#45;&gt;4 -->
<g id="edge5" class="edge">
<title>3&#45;&gt;4</title>
<path fill="none" stroke="#888888" d="M317.68,-307.67C307.51,-298.3 296.94,-288.56 286.61,-279.05"/>
<polygon fill="#888888" stroke="#888888" points="288.88,-276.38 279.15,-272.18 284.14,-281.53 288.88,-276.38"/>
</g>
<!-- 7 -->
<g id="node7" class="node">
<title>7</title>
<text text-anchor="start" x="356.5" y="-253.8" font-family="Arial" font-weight="bold" font-size="14.00"> ≥ 22.59</text>
<path fill="#f8766d" fill-opacity="0.713725" stroke="transparent" d="M340,-181C340,-181 422,-181 422,-181 428,-181 434,-187 434,-193 434,-193 434,-233 434,-233 434,-239 428,-245 422,-245 422,-245 340,-245 340,-245 334,-245 328,-239 328,-233 328,-233 328,-193 328,-193 328,-187 334,-181 340,-181"/>
<text text-anchor="start" x="329" y="-242.4" font-family="Arial" font-size="2.00"> </text>
<text text-anchor="start" x="329" y="-236.4" font-family="Arial" font-size="7.00"> &#160;7</text>
<text text-anchor="start" x="343" y="-219.8" font-family="Arial" font-weight="bold" font-size="14.00">Predict 24.2</text>
<text text-anchor="start" x="361" y="-202.8" font-family="Arial" font-weight="bold" font-size="14.00">n = 16</text>
<text text-anchor="start" x="379.5" y="-184.8" font-family="Arial" font-size="9.00"> </text>
<path fill="none" stroke="#333333" d="M340,-181C340,-181 422,-181 422,-181 428,-181 434,-187 434,-193 434,-193 434,-233 434,-233 434,-239 428,-245 422,-245 422,-245 340,-245 340,-245 334,-245 328,-239 328,-233 328,-233 328,-193 328,-193 328,-187 334,-181 340,-181"/>
<text text-anchor="start" x="379" y="-166.8" font-family="Arial" font-weight="bold" font-size="14.00"> </text>
</g>
<!-- 3&#45;&gt;7 -->
<g id="edge6" class="edge">
<title>3&#45;&gt;7</title>
<path fill="none" stroke="#888888" d="M381,-307.67C381,-299.39 381,-290.83 381,-282.38"/>
<polygon fill="#888888" stroke="#888888" points="384.5,-282.18 381,-272.18 377.5,-282.18 384.5,-282.18"/>
</g>
<!-- 9 -->
<g id="node10" class="node">
<title>9</title>
<text text-anchor="start" x="521" y="-253.8" font-family="Arial" font-weight="bold" font-size="14.00"> &lt; 28.91</text>
<text text-anchor="start" x="474" y="-209.3" font-family="Arial" font-size="14.00"> &#160;&#160;&#160;</text>
<path fill="#ebebeb" stroke="transparent" d="M504,-181C504,-181 588,-181 588,-181 594,-181 600,-187 600,-193 600,-193 600,-233 600,-233 600,-239 594,-245 588,-245 588,-245 504,-245 504,-245 498,-245 492,-239 492,-233 492,-233 492,-193 492,-193 492,-187 498,-181 504,-181"/>
<text text-anchor="start" x="493" y="-242.4" font-family="Arial" font-size="2.00"> </text>
<text text-anchor="start" x="493" y="-236.4" font-family="Arial" font-size="7.00"> &#160;9</text>
<text text-anchor="start" x="507" y="-219.8" font-family="Arial" font-weight="bold" font-size="14.00">Mean: 26.53</text>
<text text-anchor="start" x="526" y="-202.8" font-family="Arial" font-weight="bold" font-size="14.00">n = 54</text>
<text text-anchor="start" x="544.5" y="-184.8" font-family="Arial" font-size="9.00"> </text>
<path fill="none" stroke="#333333" d="M504,-181C504,-181 588,-181 588,-181 594,-181 600,-187 600,-193 600,-193 600,-233 600,-233 600,-239 594,-245 588,-245 588,-245 504,-245 504,-245 498,-245 492,-239 492,-233 492,-233 492,-193 492,-193 492,-187 498,-181 504,-181"/>
<text text-anchor="start" x="602" y="-209.3" font-family="Arial" font-size="14.00"> &#160;&#160;&#160;</text>
<text text-anchor="start" x="488.5" y="-166.8" font-family="Arial" font-weight="bold" font-size="14.00">prev_168h_inflow</text>
</g>
<!-- 8&#45;&gt;9 -->
<g id="edge9" class="edge">
<title>8&#45;&gt;9</title>
<path fill="none" stroke="#888888" d="M602.08,-307.67C596.85,-298.94 591.43,-289.88 586.11,-280.99"/>
<polygon fill="#888888" stroke="#888888" points="588.97,-278.96 580.83,-272.18 582.96,-282.55 588.97,-278.96"/>
</g>
<!-- 12 -->
<g id="node11" class="node">
<title>12</title>
<text text-anchor="start" x="687.5" y="-253.8" font-family="Arial" font-weight="bold" font-size="14.00"> ≥ 28.91</text>
<path fill="#ebebeb" stroke="transparent" d="M670,-181C670,-181 754,-181 754,-181 760,-181 766,-187 766,-193 766,-193 766,-233 766,-233 766,-239 760,-245 754,-245 754,-245 670,-245 670,-245 664,-245 658,-239 658,-233 658,-233 658,-193 658,-193 658,-187 664,-181 670,-181"/>
<text text-anchor="start" x="659" y="-242.4" font-family="Arial" font-size="2.00"> </text>
<text text-anchor="start" x="659" y="-236.4" font-family="Arial" font-size="7.00"> &#160;12</text>
<text text-anchor="start" x="673" y="-219.8" font-family="Arial" font-weight="bold" font-size="14.00">Mean: 31.61</text>
<text text-anchor="start" x="692.5" y="-202.8" font-family="Arial" font-weight="bold" font-size="14.00">n = 11</text>
<text text-anchor="start" x="710.5" y="-184.8" font-family="Arial" font-size="9.00"> </text>
<path fill="none" stroke="#333333" d="M670,-181C670,-181 754,-181 754,-181 760,-181 766,-187 766,-193 766,-193 766,-233 766,-233 766,-239 760,-245 754,-245 754,-245 670,-245 670,-245 664,-245 658,-239 658,-233 658,-233 658,-193 658,-193 658,-187 664,-181 670,-181"/>
<text text-anchor="start" x="697.5" y="-166.8" font-family="Arial" font-weight="bold" font-size="14.00">time</text>
</g>
<!-- 8&#45;&gt;12 -->
<g id="edge10" class="edge">
<title>8&#45;&gt;12</title>
<path fill="none" stroke="#888888" d="M665.78,-307.67C670.04,-299.03 674.46,-290.07 678.81,-281.27"/>
<polygon fill="#888888" stroke="#888888" points="682.01,-282.69 683.29,-272.18 675.73,-279.6 682.01,-282.69"/>
</g>
<!-- 5 -->
<g id="node8" class="node">
<title>5</title>
<text text-anchor="start" x="44" y="-99.8" font-family="Arial" font-weight="bold" font-size="14.00"> &lt; 20.71</text>
<path fill="#f8766d" fill-opacity="0.874510" stroke="transparent" d="M24,-27C24,-27 114,-27 114,-27 120,-27 126,-33 126,-39 126,-39 126,-79 126,-79 126,-85 120,-91 114,-91 114,-91 24,-91 24,-91 18,-91 12,-85 12,-79 12,-79 12,-39 12,-39 12,-33 18,-27 24,-27"/>
<text text-anchor="start" x="13" y="-88.4" font-family="Arial" font-size="2.00"> </text>
<text text-anchor="start" x="13" y="-82.4" font-family="Arial" font-size="7.00"> &#160;5</text>
<text text-anchor="start" x="27" y="-65.8" font-family="Arial" font-weight="bold" font-size="14.00">Predict 19.33</text>
<text text-anchor="start" x="49" y="-48.8" font-family="Arial" font-weight="bold" font-size="14.00">n = 33</text>
<text text-anchor="start" x="67.5" y="-30.8" font-family="Arial" font-size="9.00"> </text>
<path fill="none" stroke="#333333" d="M24,-27C24,-27 114,-27 114,-27 120,-27 126,-33 126,-39 126,-39 126,-79 126,-79 126,-85 120,-91 114,-91 114,-91 24,-91 24,-91 18,-91 12,-85 12,-79 12,-79 12,-39 12,-39 12,-33 18,-27 24,-27"/>
<text text-anchor="start" x="67" y="-12.8" font-family="Arial" font-weight="bold" font-size="14.00"> </text>
</g>
<!-- 4&#45;&gt;5 -->
<g id="edge7" class="edge">
<title>4&#45;&gt;5</title>
<path fill="none" stroke="#888888" d="M159.59,-153.67C150.71,-144.49 141.47,-134.94 132.45,-125.6"/>
<polygon fill="#888888" stroke="#888888" points="134.73,-122.93 125.26,-118.18 129.7,-127.8 134.73,-122.93"/>
</g>
<!-- 6 -->
<g id="node9" class="node">
<title>6</title>
<text text-anchor="start" x="200.5" y="-99.8" font-family="Arial" font-weight="bold" font-size="14.00"> ≥ 20.71</text>
<path fill="#f8766d" fill-opacity="0.811765" stroke="transparent" d="M180,-27C180,-27 270,-27 270,-27 276,-27 282,-33 282,-39 282,-39 282,-79 282,-79 282,-85 276,-91 270,-91 270,-91 180,-91 180,-91 174,-91 168,-85 168,-79 168,-79 168,-39 168,-39 168,-33 174,-27 180,-27"/>
<text text-anchor="start" x="169" y="-88.4" font-family="Arial" font-size="2.00"> </text>
<text text-anchor="start" x="169" y="-82.4" font-family="Arial" font-size="7.00"> &#160;6</text>
<text text-anchor="start" x="183" y="-65.8" font-family="Arial" font-weight="bold" font-size="14.00">Predict 21.24</text>
<text text-anchor="start" x="205" y="-48.8" font-family="Arial" font-weight="bold" font-size="14.00">n = 10</text>
<text text-anchor="start" x="223.5" y="-30.8" font-family="Arial" font-size="9.00"> </text>
<path fill="none" stroke="#333333" d="M180,-27C180,-27 270,-27 270,-27 276,-27 282,-33 282,-39 282,-39 282,-79 282,-79 282,-85 276,-91 270,-91 270,-91 180,-91 180,-91 174,-91 168,-85 168,-79 168,-79 168,-39 168,-39 168,-33 174,-27 180,-27"/>
<text text-anchor="start" x="223" y="-12.8" font-family="Arial" font-weight="bold" font-size="14.00"> </text>
</g>
<!-- 4&#45;&gt;6 -->
<g id="edge8" class="edge">
<title>4&#45;&gt;6</title>
<path fill="none" stroke="#888888" d="M219.45,-153.67C219.94,-145.39 220.45,-136.83 220.95,-128.38"/>
<polygon fill="#888888" stroke="#888888" points="224.46,-128.37 221.56,-118.18 217.47,-127.95 224.46,-128.37"/>
</g>
<!-- 10 -->
<g id="node12" class="node">
<title>10</title>
<text text-anchor="start" x="365" y="-99.8" font-family="Arial" font-weight="bold" font-size="14.00"> &lt; 26.77</text>
<path fill="#f8766d" fill-opacity="0.666667" stroke="transparent" d="M345,-27C345,-27 435,-27 435,-27 441,-27 447,-33 447,-39 447,-39 447,-79 447,-79 447,-85 441,-91 435,-91 435,-91 345,-91 345,-91 339,-91 333,-85 333,-79 333,-79 333,-39 333,-39 333,-33 339,-27 345,-27"/>
<text text-anchor="start" x="334" y="-88.4" font-family="Arial" font-size="2.00"> </text>
<text text-anchor="start" x="334" y="-82.4" font-family="Arial" font-size="7.00"> &#160;10</text>
<text text-anchor="start" x="348" y="-65.8" font-family="Arial" font-weight="bold" font-size="14.00">Predict 25.66</text>
<text text-anchor="start" x="370" y="-48.8" font-family="Arial" font-weight="bold" font-size="14.00">n = 25</text>
<text text-anchor="start" x="388.5" y="-30.8" font-family="Arial" font-size="9.00"> </text>
<path fill="none" stroke="#333333" d="M345,-27C345,-27 435,-27 435,-27 441,-27 447,-33 447,-39 447,-39 447,-79 447,-79 447,-85 441,-91 435,-91 435,-91 345,-91 345,-91 339,-91 333,-85 333,-79 333,-79 333,-39 333,-39 333,-33 339,-27 345,-27"/>
<text text-anchor="start" x="388" y="-12.8" font-family="Arial" font-weight="bold" font-size="14.00"> </text>
</g>
<!-- 9&#45;&gt;10 -->
<g id="edge11" class="edge">
<title>9&#45;&gt;10</title>
<path fill="none" stroke="#888888" d="M486.13,-153.67C476.62,-144.39 466.72,-134.75 457.05,-125.33"/>
<polygon fill="#888888" stroke="#888888" points="459.31,-122.65 449.71,-118.18 454.43,-127.66 459.31,-122.65"/>
</g>
<!-- 11 -->
<g id="node13" class="node">
<title>11</title>
<text text-anchor="start" x="521.5" y="-99.8" font-family="Arial" font-weight="bold" font-size="14.00"> ≥ 26.77</text>
<path fill="#f8766d" fill-opacity="0.611765" stroke="transparent" d="M501,-27C501,-27 591,-27 591,-27 597,-27 603,-33 603,-39 603,-39 603,-79 603,-79 603,-85 597,-91 591,-91 591,-91 501,-91 501,-91 495,-91 489,-85 489,-79 489,-79 489,-39 489,-39 489,-33 495,-27 501,-27"/>
<text text-anchor="start" x="490" y="-88.4" font-family="Arial" font-size="2.00"> </text>
<text text-anchor="start" x="490" y="-82.4" font-family="Arial" font-size="7.00"> &#160;11</text>
<text text-anchor="start" x="504" y="-65.8" font-family="Arial" font-weight="bold" font-size="14.00">Predict 27.28</text>
<text text-anchor="start" x="526" y="-48.8" font-family="Arial" font-weight="bold" font-size="14.00">n = 29</text>
<text text-anchor="start" x="544.5" y="-30.8" font-family="Arial" font-size="9.00"> </text>
<path fill="none" stroke="#333333" d="M501,-27C501,-27 591,-27 591,-27 597,-27 603,-33 603,-39 603,-39 603,-79 603,-79 603,-85 597,-91 591,-91 591,-91 501,-91 501,-91 495,-91 489,-85 489,-79 489,-79 489,-39 489,-39 489,-33 495,-27 501,-27"/>
<text text-anchor="start" x="544" y="-12.8" font-family="Arial" font-weight="bold" font-size="14.00"> </text>
</g>
<!-- 9&#45;&gt;11 -->
<g id="edge12" class="edge">
<title>9&#45;&gt;11</title>
<path fill="none" stroke="#888888" d="M546,-153.67C546,-145.39 546,-136.83 546,-128.38"/>
<polygon fill="#888888" stroke="#888888" points="549.5,-128.18 546,-118.18 542.5,-128.18 549.5,-128.18"/>
</g>
<!-- 13 -->
<g id="node14" class="node">
<title>13</title>
<text text-anchor="start" x="680.5" y="-99.8" font-family="Arial" font-weight="bold" font-size="14.00"> &lt; 8.5</text>
<path fill="#f8766d" fill-opacity="0.415686" stroke="transparent" d="M657,-27C657,-27 739,-27 739,-27 745,-27 751,-33 751,-39 751,-39 751,-79 751,-79 751,-85 745,-91 739,-91 739,-91 657,-91 657,-91 651,-91 645,-85 645,-79 645,-79 645,-39 645,-39 645,-33 651,-27 657,-27"/>
<text text-anchor="start" x="646" y="-88.4" font-family="Arial" font-size="2.00"> </text>
<text text-anchor="start" x="646" y="-82.4" font-family="Arial" font-size="7.00"> &#160;13</text>
<text text-anchor="start" x="660" y="-65.8" font-family="Arial" font-weight="bold" font-size="14.00">Predict 33.2</text>
<text text-anchor="start" x="682" y="-48.8" font-family="Arial" font-weight="bold" font-size="14.00">n = 6</text>
<text text-anchor="start" x="696.5" y="-30.8" font-family="Arial" font-size="9.00"> </text>
<path fill="none" stroke="#333333" d="M657,-27C657,-27 739,-27 739,-27 745,-27 751,-33 751,-39 751,-39 751,-79 751,-79 751,-85 745,-91 739,-91 739,-91 657,-91 657,-91 651,-91 645,-85 645,-79 645,-79 645,-39 645,-39 645,-33 651,-27 657,-27"/>
<text text-anchor="start" x="696" y="-12.8" font-family="Arial" font-weight="bold" font-size="14.00"> </text>
</g>
<!-- 12&#45;&gt;13 -->
<g id="edge13" class="edge">
<title>12&#45;&gt;13</title>
<path fill="none" stroke="#888888" d="M706.63,-153.67C705.87,-145.39 705.08,-136.83 704.3,-128.38"/>
<polygon fill="#888888" stroke="#888888" points="707.76,-127.81 703.36,-118.18 700.79,-128.46 707.76,-127.81"/>
</g>
<!-- 14 -->
<g id="node15" class="node">
<title>14</title>
<text text-anchor="start" x="833" y="-99.8" font-family="Arial" font-weight="bold" font-size="14.00"> ≥ 8.5</text>
<path fill="#f8766d" fill-opacity="0.533333" stroke="transparent" d="M805,-27C805,-27 895,-27 895,-27 901,-27 907,-33 907,-39 907,-39 907,-79 907,-79 907,-85 901,-91 895,-91 895,-91 805,-91 805,-91 799,-91 793,-85 793,-79 793,-79 793,-39 793,-39 793,-33 799,-27 805,-27"/>
<text text-anchor="start" x="794" y="-88.4" font-family="Arial" font-size="2.00"> </text>
<text text-anchor="start" x="794" y="-82.4" font-family="Arial" font-size="7.00"> &#160;14</text>
<text text-anchor="start" x="808" y="-65.8" font-family="Arial" font-weight="bold" font-size="14.00">Predict 29.69</text>
<text text-anchor="start" x="834" y="-48.8" font-family="Arial" font-weight="bold" font-size="14.00">n = 5</text>
<text text-anchor="start" x="848.5" y="-30.8" font-family="Arial" font-size="9.00"> </text>
<path fill="none" stroke="#333333" d="M805,-27C805,-27 895,-27 895,-27 901,-27 907,-33 907,-39 907,-39 907,-79 907,-79 907,-85 901,-91 895,-91 895,-91 805,-91 805,-91 799,-91 793,-85 793,-79 793,-79 793,-39 793,-39 793,-33 799,-27 805,-27"/>
<text text-anchor="start" x="848" y="-12.8" font-family="Arial" font-weight="bold" font-size="14.00"> </text>
</g>
<!-- 12&#45;&gt;14 -->
<g id="edge14" class="edge">
<title>12&#45;&gt;14</title>
<path fill="none" stroke="#888888" d="M764.96,-153.67C773.3,-144.49 781.96,-134.94 790.44,-125.6"/>
<polygon fill="#888888" stroke="#888888" points="793.05,-127.93 797.18,-118.18 787.87,-123.23 793.05,-127.93"/>
</g>
<!-- 17 -->
<g id="node18" class="node">
<title>17</title>
<text text-anchor="start" x="1020" y="-253.8" font-family="Arial" font-weight="bold" font-size="14.00"> &lt; 5.5</text>
<path fill="#ebebeb" stroke="transparent" d="M1005,-181C1005,-181 1070,-181 1070,-181 1076,-181 1082,-187 1082,-193 1082,-193 1082,-233 1082,-233 1082,-239 1076,-245 1070,-245 1070,-245 1005,-245 1005,-245 999,-245 993,-239 993,-233 993,-233 993,-193 993,-193 993,-187 999,-181 1005,-181"/>
<text text-anchor="start" x="994" y="-242.4" font-family="Arial" font-size="2.00"> </text>
<text text-anchor="start" x="994" y="-236.4" font-family="Arial" font-size="7.00"> &#160;17</text>
<text text-anchor="start" x="1008" y="-219.8" font-family="Arial" font-weight="bold" font-size="14.00">Mean: 30</text>
<text text-anchor="start" x="1017.5" y="-202.8" font-family="Arial" font-weight="bold" font-size="14.00">n = 12</text>
<text text-anchor="start" x="1036" y="-184.8" font-family="Arial" font-size="9.00"> </text>
<path fill="none" stroke="#333333" d="M1005,-181C1005,-181 1070,-181 1070,-181 1076,-181 1082,-187 1082,-193 1082,-193 1082,-233 1082,-233 1082,-239 1076,-245 1070,-245 1070,-245 1005,-245 1005,-245 999,-245 993,-239 993,-233 993,-233 993,-193 993,-193 993,-187 999,-181 1005,-181"/>
<text text-anchor="start" x="1023" y="-166.8" font-family="Arial" font-weight="bold" font-size="14.00">time</text>
</g>
<!-- 16&#45;&gt;17 -->
<g id="edge17" class="edge">
<title>16&#45;&gt;17</title>
<path fill="none" stroke="#888888" d="M1081.37,-307.67C1077.28,-299.03 1073.03,-290.07 1068.86,-281.27"/>
<polygon fill="#888888" stroke="#888888" points="1072,-279.72 1064.56,-272.18 1065.68,-282.71 1072,-279.72"/>
</g>
<!-- 20 -->
<g id="node19" class="node">
<title>20</title>
<text text-anchor="start" x="1164" y="-253.8" font-family="Arial" font-weight="bold" font-size="14.00"> ≥ 5.5</text>
<path fill="#f8766d" fill-opacity="0.376471" stroke="transparent" d="M1136,-181C1136,-181 1226,-181 1226,-181 1232,-181 1238,-187 1238,-193 1238,-193 1238,-233 1238,-233 1238,-239 1232,-245 1226,-245 1226,-245 1136,-245 1136,-245 1130,-245 1124,-239 1124,-233 1124,-233 1124,-193 1124,-193 1124,-187 1130,-181 1136,-181"/>
<text text-anchor="start" x="1125" y="-242.4" font-family="Arial" font-size="2.00"> </text>
<text text-anchor="start" x="1125" y="-236.4" font-family="Arial" font-size="7.00"> &#160;20</text>
<text text-anchor="start" x="1139" y="-219.8" font-family="Arial" font-weight="bold" font-size="14.00">Predict 34.46</text>
<text text-anchor="start" x="1165" y="-202.8" font-family="Arial" font-weight="bold" font-size="14.00">n = 4</text>
<text text-anchor="start" x="1179.5" y="-184.8" font-family="Arial" font-size="9.00"> </text>
<path fill="none" stroke="#333333" d="M1136,-181C1136,-181 1226,-181 1226,-181 1232,-181 1238,-187 1238,-193 1238,-193 1238,-233 1238,-233 1238,-239 1232,-245 1226,-245 1226,-245 1136,-245 1136,-245 1130,-245 1124,-239 1124,-233 1124,-233 1124,-193 1124,-193 1124,-187 1130,-181 1136,-181"/>
<text text-anchor="start" x="1179" y="-166.8" font-family="Arial" font-weight="bold" font-size="14.00"> </text>
</g>
<!-- 16&#45;&gt;20 -->
<g id="edge18" class="edge">
<title>16&#45;&gt;20</title>
<path fill="none" stroke="#888888" d="M1136.63,-307.67C1140.72,-299.03 1144.97,-290.07 1149.14,-281.27"/>
<polygon fill="#888888" stroke="#888888" points="1152.32,-282.71 1153.44,-272.18 1146,-279.72 1152.32,-282.71"/>
</g>
<!-- 22 -->
<g id="node22" class="node">
<title>22</title>
<text text-anchor="start" x="1361.5" y="-253.8" font-family="Arial" font-weight="bold" font-size="14.00"> &lt; 28.99</text>
<text text-anchor="start" x="1315" y="-209.3" font-family="Arial" font-size="14.00"> &#160;&#160;&#160;</text>
<path fill="#ebebeb" stroke="transparent" d="M1345,-181C1345,-181 1428,-181 1428,-181 1434,-181 1440,-187 1440,-193 1440,-193 1440,-233 1440,-233 1440,-239 1434,-245 1428,-245 1428,-245 1345,-245 1345,-245 1339,-245 1333,-239 1333,-233 1333,-233 1333,-193 1333,-193 1333,-187 1339,-181 1345,-181"/>
<text text-anchor="start" x="1334" y="-242.4" font-family="Arial" font-size="2.00"> </text>
<text text-anchor="start" x="1334" y="-236.4" font-family="Arial" font-size="7.00"> &#160;22</text>
<text text-anchor="start" x="1348" y="-219.8" font-family="Arial" font-weight="bold" font-size="14.00">Mean: 28.11</text>
<text text-anchor="start" x="1366.5" y="-202.8" font-family="Arial" font-weight="bold" font-size="14.00">n = 14</text>
<text text-anchor="start" x="1385" y="-184.8" font-family="Arial" font-size="9.00"> </text>
<path fill="none" stroke="#333333" d="M1345,-181C1345,-181 1428,-181 1428,-181 1434,-181 1440,-187 1440,-193 1440,-193 1440,-233 1440,-233 1440,-239 1434,-245 1428,-245 1428,-245 1345,-245 1345,-245 1339,-245 1333,-239 1333,-233 1333,-233 1333,-193 1333,-193 1333,-187 1339,-181 1345,-181"/>
<text text-anchor="start" x="1442" y="-209.3" font-family="Arial" font-size="14.00"> &#160;&#160;&#160;</text>
<text text-anchor="start" x="1329" y="-166.8" font-family="Arial" font-weight="bold" font-size="14.00">prev_168h_inflow</text>
</g>
<!-- 21&#45;&gt;22 -->
<g id="edge21" class="edge">
<title>21&#45;&gt;22</title>
<path fill="none" stroke="#888888" d="M1386,-307.67C1386,-299.39 1386,-290.83 1386,-282.38"/>
<polygon fill="#888888" stroke="#888888" points="1389.5,-282.18 1386,-272.18 1382.5,-282.18 1389.5,-282.18"/>
</g>
<!-- 25 -->
<g id="node23" class="node">
<title>25</title>
<text text-anchor="start" x="1597.5" y="-253.8" font-family="Arial" font-weight="bold" font-size="14.00"> ≥ 28.99</text>
<path fill="#ebebeb" stroke="transparent" d="M1580,-181C1580,-181 1664,-181 1664,-181 1670,-181 1676,-187 1676,-193 1676,-193 1676,-233 1676,-233 1676,-239 1670,-245 1664,-245 1664,-245 1580,-245 1580,-245 1574,-245 1568,-239 1568,-233 1568,-233 1568,-193 1568,-193 1568,-187 1574,-181 1580,-181"/>
<text text-anchor="start" x="1569" y="-242.4" font-family="Arial" font-size="2.00"> </text>
<text text-anchor="start" x="1569" y="-236.4" font-family="Arial" font-size="7.00"> &#160;25</text>
<text text-anchor="start" x="1583" y="-219.8" font-family="Arial" font-weight="bold" font-size="14.00">Mean: 31.05</text>
<text text-anchor="start" x="1602" y="-202.8" font-family="Arial" font-weight="bold" font-size="14.00">n = 14</text>
<text text-anchor="start" x="1620.5" y="-184.8" font-family="Arial" font-size="9.00"> </text>
<path fill="none" stroke="#333333" d="M1580,-181C1580,-181 1664,-181 1664,-181 1670,-181 1676,-187 1676,-193 1676,-193 1676,-233 1676,-233 1676,-239 1670,-245 1664,-245 1664,-245 1580,-245 1580,-245 1574,-245 1568,-239 1568,-233 1568,-233 1568,-193 1568,-193 1568,-187 1574,-181 1580,-181"/>
<text text-anchor="start" x="1586.5" y="-166.8" font-family="Arial" font-weight="bold" font-size="14.00">windspeed</text>
</g>
<!-- 21&#45;&gt;25 -->
<g id="edge22" class="edge">
<title>21&#45;&gt;25</title>
<path fill="none" stroke="#888888" d="M1468.21,-313.05C1493.79,-296.57 1521.86,-278.5 1546.93,-262.35"/>
<polygon fill="#888888" stroke="#888888" points="1549.15,-265.08 1555.66,-256.73 1545.36,-259.2 1549.15,-265.08"/>
</g>
<!-- 18 -->
<g id="node20" class="node">
<title>18</title>
<text text-anchor="start" x="984.5" y="-99.8" font-family="Arial" font-weight="bold" font-size="14.00"> &lt; 8.5</text>
<path fill="#f8766d" fill-opacity="0.466667" stroke="transparent" d="M961,-27C961,-27 1043,-27 1043,-27 1049,-27 1055,-33 1055,-39 1055,-39 1055,-79 1055,-79 1055,-85 1049,-91 1043,-91 1043,-91 961,-91 961,-91 955,-91 949,-85 949,-79 949,-79 949,-39 949,-39 949,-33 955,-27 961,-27"/>
<text text-anchor="start" x="950" y="-88.4" font-family="Arial" font-size="2.00"> </text>
<text text-anchor="start" x="950" y="-82.4" font-family="Arial" font-size="7.00"> &#160;18</text>
<text text-anchor="start" x="964" y="-65.8" font-family="Arial" font-weight="bold" font-size="14.00">Predict 31.7</text>
<text text-anchor="start" x="986" y="-48.8" font-family="Arial" font-weight="bold" font-size="14.00">n = 5</text>
<text text-anchor="start" x="1000.5" y="-30.8" font-family="Arial" font-size="9.00"> </text>
<path fill="none" stroke="#333333" d="M961,-27C961,-27 1043,-27 1043,-27 1049,-27 1055,-33 1055,-39 1055,-39 1055,-79 1055,-79 1055,-85 1049,-91 1043,-91 1043,-91 961,-91 961,-91 955,-91 949,-85 949,-79 949,-79 949,-39 949,-39 949,-33 955,-27 961,-27"/>
<text text-anchor="start" x="1000" y="-12.8" font-family="Arial" font-weight="bold" font-size="14.00"> </text>
</g>
<!-- 17&#45;&gt;18 -->
<g id="edge19" class="edge">
<title>17&#45;&gt;18</title>
<path fill="none" stroke="#888888" d="M1023.57,-153.67C1021.64,-145.3 1019.65,-136.64 1017.68,-128.1"/>
<polygon fill="#888888" stroke="#888888" points="1021.05,-127.14 1015.4,-118.18 1014.23,-128.71 1021.05,-127.14"/>
</g>
<!-- 19 -->
<g id="node21" class="node">
<title>19</title>
<text text-anchor="start" x="1137" y="-99.8" font-family="Arial" font-weight="bold" font-size="14.00"> ≥ 8.5</text>
<path fill="#f8766d" fill-opacity="0.560784" stroke="transparent" d="M1109,-27C1109,-27 1199,-27 1199,-27 1205,-27 1211,-33 1211,-39 1211,-39 1211,-79 1211,-79 1211,-85 1205,-91 1199,-91 1199,-91 1109,-91 1109,-91 1103,-91 1097,-85 1097,-79 1097,-79 1097,-39 1097,-39 1097,-33 1103,-27 1109,-27"/>
<text text-anchor="start" x="1098" y="-88.4" font-family="Arial" font-size="2.00"> </text>
<text text-anchor="start" x="1098" y="-82.4" font-family="Arial" font-size="7.00"> &#160;19</text>
<text text-anchor="start" x="1112" y="-65.8" font-family="Arial" font-weight="bold" font-size="14.00">Predict 28.78</text>
<text text-anchor="start" x="1138" y="-48.8" font-family="Arial" font-weight="bold" font-size="14.00">n = 7</text>
<text text-anchor="start" x="1152.5" y="-30.8" font-family="Arial" font-size="9.00"> </text>
<path fill="none" stroke="#333333" d="M1109,-27C1109,-27 1199,-27 1199,-27 1205,-27 1211,-33 1211,-39 1211,-39 1211,-79 1211,-79 1211,-85 1205,-91 1199,-91 1199,-91 1109,-91 1109,-91 1103,-91 1097,-85 1097,-79 1097,-79 1097,-39 1097,-39 1097,-33 1103,-27 1109,-27"/>
<text text-anchor="start" x="1152" y="-12.8" font-family="Arial" font-weight="bold" font-size="14.00"> </text>
</g>
<!-- 17&#45;&gt;19 -->
<g id="edge20" class="edge">
<title>17&#45;&gt;19</title>
<path fill="none" stroke="#888888" d="M1081.9,-153.67C1088.83,-144.67 1096.03,-135.32 1103.07,-126.16"/>
<polygon fill="#888888" stroke="#888888" points="1105.89,-128.24 1109.22,-118.18 1100.35,-123.97 1105.89,-128.24"/>
</g>
<!-- 23 -->
<g id="node24" class="node">
<title>23</title>
<text text-anchor="start" x="1285" y="-99.8" font-family="Arial" font-weight="bold" font-size="14.00"> &lt; 26.55</text>
<path fill="#f8766d" fill-opacity="0.635294" stroke="transparent" d="M1265,-27C1265,-27 1355,-27 1355,-27 1361,-27 1367,-33 1367,-39 1367,-39 1367,-79 1367,-79 1367,-85 1361,-91 1355,-91 1355,-91 1265,-91 1265,-91 1259,-91 1253,-85 1253,-79 1253,-79 1253,-39 1253,-39 1253,-33 1259,-27 1265,-27"/>
<text text-anchor="start" x="1254" y="-88.4" font-family="Arial" font-size="2.00"> </text>
<text text-anchor="start" x="1254" y="-82.4" font-family="Arial" font-size="7.00"> &#160;23</text>
<text text-anchor="start" x="1268" y="-65.8" font-family="Arial" font-weight="bold" font-size="14.00">Predict 26.52</text>
<text text-anchor="start" x="1294" y="-48.8" font-family="Arial" font-weight="bold" font-size="14.00">n = 3</text>
<text text-anchor="start" x="1308.5" y="-30.8" font-family="Arial" font-size="9.00"> </text>
<path fill="none" stroke="#333333" d="M1265,-27C1265,-27 1355,-27 1355,-27 1361,-27 1367,-33 1367,-39 1367,-39 1367,-79 1367,-79 1367,-85 1361,-91 1355,-91 1355,-91 1265,-91 1265,-91 1259,-91 1253,-85 1253,-79 1253,-79 1253,-39 1253,-39 1253,-33 1259,-27 1265,-27"/>
<text text-anchor="start" x="1308" y="-12.8" font-family="Arial" font-weight="bold" font-size="14.00"> </text>
</g>
<!-- 22&#45;&gt;23 -->
<g id="edge23" class="edge">
<title>22&#45;&gt;23</title>
<path fill="none" stroke="#888888" d="M1356.83,-153.67C1352.52,-145.03 1348.04,-136.07 1343.64,-127.27"/>
<polygon fill="#888888" stroke="#888888" points="1346.69,-125.56 1339.09,-118.18 1340.43,-128.69 1346.69,-125.56"/>
</g>
<!-- 24 -->
<g id="node25" class="node">
<title>24</title>
<text text-anchor="start" x="1441.5" y="-99.8" font-family="Arial" font-weight="bold" font-size="14.00"> ≥ 26.55</text>
<path fill="#f8766d" fill-opacity="0.572549" stroke="transparent" d="M1421,-27C1421,-27 1511,-27 1511,-27 1517,-27 1523,-33 1523,-39 1523,-39 1523,-79 1523,-79 1523,-85 1517,-91 1511,-91 1511,-91 1421,-91 1421,-91 1415,-91 1409,-85 1409,-79 1409,-79 1409,-39 1409,-39 1409,-33 1415,-27 1421,-27"/>
<text text-anchor="start" x="1410" y="-88.4" font-family="Arial" font-size="2.00"> </text>
<text text-anchor="start" x="1410" y="-82.4" font-family="Arial" font-size="7.00"> &#160;24</text>
<text text-anchor="start" x="1424" y="-65.8" font-family="Arial" font-weight="bold" font-size="14.00">Predict 28.54</text>
<text text-anchor="start" x="1446.5" y="-48.8" font-family="Arial" font-weight="bold" font-size="14.00">n = 11</text>
<text text-anchor="start" x="1464.5" y="-30.8" font-family="Arial" font-size="9.00"> </text>
<path fill="none" stroke="#333333" d="M1421,-27C1421,-27 1511,-27 1511,-27 1517,-27 1523,-33 1523,-39 1523,-39 1523,-79 1523,-79 1523,-85 1517,-91 1511,-91 1511,-91 1421,-91 1421,-91 1415,-91 1409,-85 1409,-79 1409,-79 1409,-39 1409,-39 1409,-33 1415,-27 1421,-27"/>
<text text-anchor="start" x="1464" y="-12.8" font-family="Arial" font-weight="bold" font-size="14.00"> </text>
</g>
<!-- 22&#45;&gt;24 -->
<g id="edge24" class="edge">
<title>22&#45;&gt;24</title>
<path fill="none" stroke="#888888" d="M1416.7,-153.67C1421.25,-145.03 1425.96,-136.07 1430.59,-127.27"/>
<polygon fill="#888888" stroke="#888888" points="1433.82,-128.66 1435.38,-118.18 1427.63,-125.4 1433.82,-128.66"/>
</g>
<!-- 26 -->
<g id="node26" class="node">
<title>26</title>
<text text-anchor="start" x="1606.5" y="-99.8" font-family="Arial" font-weight="bold" font-size="14.00"> &lt; 21</text>
<path fill="#f8766d" fill-opacity="0.513725" stroke="transparent" d="M1577,-27C1577,-27 1667,-27 1667,-27 1673,-27 1679,-33 1679,-39 1679,-39 1679,-79 1679,-79 1679,-85 1673,-91 1667,-91 1667,-91 1577,-91 1577,-91 1571,-91 1565,-85 1565,-79 1565,-79 1565,-39 1565,-39 1565,-33 1571,-27 1577,-27"/>
<text text-anchor="start" x="1566" y="-88.4" font-family="Arial" font-size="2.00"> </text>
<text text-anchor="start" x="1566" y="-82.4" font-family="Arial" font-size="7.00"> &#160;26</text>
<text text-anchor="start" x="1580" y="-65.8" font-family="Arial" font-weight="bold" font-size="14.00">Predict 30.23</text>
<text text-anchor="start" x="1606" y="-48.8" font-family="Arial" font-weight="bold" font-size="14.00">n = 7</text>
<text text-anchor="start" x="1620.5" y="-30.8" font-family="Arial" font-size="9.00"> </text>
<path fill="none" stroke="#333333" d="M1577,-27C1577,-27 1667,-27 1667,-27 1673,-27 1679,-33 1679,-39 1679,-39 1679,-79 1679,-79 1679,-85 1673,-91 1667,-91 1667,-91 1577,-91 1577,-91 1571,-91 1565,-85 1565,-79 1565,-79 1565,-39 1565,-39 1565,-33 1571,-27 1577,-27"/>
<text text-anchor="start" x="1620" y="-12.8" font-family="Arial" font-weight="bold" font-size="14.00"> </text>
</g>
<!-- 25&#45;&gt;26 -->
<g id="edge25" class="edge">
<title>25&#45;&gt;26</title>
<path fill="none" stroke="#888888" d="M1622,-153.67C1622,-145.39 1622,-136.83 1622,-128.38"/>
<polygon fill="#888888" stroke="#888888" points="1625.5,-128.18 1622,-118.18 1618.5,-128.18 1625.5,-128.18"/>
</g>
<!-- 27 -->
<g id="node27" class="node">
<title>27</title>
<text text-anchor="start" x="1762.5" y="-99.8" font-family="Arial" font-weight="bold" font-size="14.00"> ≥ 21</text>
<path fill="#f8766d" fill-opacity="0.458824" stroke="transparent" d="M1733,-27C1733,-27 1823,-27 1823,-27 1829,-27 1835,-33 1835,-39 1835,-39 1835,-79 1835,-79 1835,-85 1829,-91 1823,-91 1823,-91 1733,-91 1733,-91 1727,-91 1721,-85 1721,-79 1721,-79 1721,-39 1721,-39 1721,-33 1727,-27 1733,-27"/>
<text text-anchor="start" x="1722" y="-88.4" font-family="Arial" font-size="2.00"> </text>
<text text-anchor="start" x="1722" y="-82.4" font-family="Arial" font-size="7.00"> &#160;27</text>
<text text-anchor="start" x="1736" y="-65.8" font-family="Arial" font-weight="bold" font-size="14.00">Predict 31.88</text>
<text text-anchor="start" x="1762" y="-48.8" font-family="Arial" font-weight="bold" font-size="14.00">n = 7</text>
<text text-anchor="start" x="1776.5" y="-30.8" font-family="Arial" font-size="9.00"> </text>
<path fill="none" stroke="#333333" d="M1733,-27C1733,-27 1823,-27 1823,-27 1829,-27 1835,-33 1835,-39 1835,-39 1835,-79 1835,-79 1835,-85 1829,-91 1823,-91 1823,-91 1733,-91 1733,-91 1727,-91 1721,-85 1721,-79 1721,-79 1721,-39 1721,-39 1721,-33 1727,-27 1733,-27"/>
<text text-anchor="start" x="1776" y="-12.8" font-family="Arial" font-weight="bold" font-size="14.00"> </text>
</g>
<!-- 25&#45;&gt;27 -->
<g id="edge26" class="edge">
<title>25&#45;&gt;27</title>
<path fill="none" stroke="#888888" d="M1681.87,-153.67C1691.38,-144.39 1701.28,-134.75 1710.95,-125.33"/>
<polygon fill="#888888" stroke="#888888" points="1713.57,-127.66 1718.29,-118.18 1708.69,-122.65 1713.57,-127.66"/>
</g>
</g>
</svg>
