<?xml version="1.0" encoding="UTF-8" standalone="no"?>
<!DOCTYPE svg PUBLIC "-//W3C//DTD SVG 1.1//EN"
 "http://www.w3.org/Graphics/SVG/1.1/DTD/svg11.dtd">
<!-- Generated by graphviz version 2.50.0 (20211204.2007)
 -->
<!-- Pages: 1 -->
<svg width="1109pt" height="742pt"
 viewBox="0.00 0.00 1109.00 742.00" xmlns="http://www.w3.org/2000/svg" xmlns:xlink="http://www.w3.org/1999/xlink">
<g id="graph0" class="graph" transform="scale(1 1) rotate(0) translate(4 738)">
<polygon fill="white" stroke="transparent" points="-4,4 -4,-738 1105,-738 1105,4 -4,4"/>
<!-- 1 -->
<g id="node1" class="node">
<title>1</title>
<text text-anchor="start" x="638" y="-715.8" font-family="Arial" font-weight="bold" font-size="14.00"> </text>
<text text-anchor="start" x="568" y="-671.3" font-family="Arial" font-size="14.00"> &#160;&#160;&#160;</text>
<path fill="#ebebeb" stroke="transparent" d="M598,-643C598,-643 682,-643 682,-643 688,-643 694,-649 694,-655 694,-655 694,-695 694,-695 694,-701 688,-707 682,-707 682,-707 598,-707 598,-707 592,-707 586,-701 586,-695 586,-695 586,-655 586,-655 586,-649 592,-643 598,-643"/>
<text text-anchor="start" x="587" y="-704.4" font-family="Arial" font-size="2.00"> </text>
<text text-anchor="start" x="587" y="-698.4" font-family="Arial" font-size="7.00"> &#160;1</text>
<text text-anchor="start" x="601" y="-681.8" font-family="Arial" font-weight="bold" font-size="14.00">Mean: 80.52</text>
<text text-anchor="start" x="616.5" y="-664.8" font-family="Arial" font-weight="bold" font-size="14.00">n = 168</text>
<text text-anchor="start" x="638.5" y="-646.8" font-family="Arial" font-size="9.00"> </text>
<path fill="none" stroke="#333333" d="M598,-643C598,-643 682,-643 682,-643 688,-643 694,-649 694,-655 694,-655 694,-695 694,-695 694,-701 688,-707 682,-707 682,-707 598,-707 598,-707 592,-707 586,-701 586,-695 586,-695 586,-655 586,-655 586,-649 592,-643 598,-643"/>
<text text-anchor="start" x="696" y="-671.3" font-family="Arial" font-size="14.00"> &#160;&#160;&#160;</text>
<text text-anchor="start" x="582.5" y="-628.8" font-family="Arial" font-weight="bold" font-size="14.00">prev_168h_inflow</text>
</g>
<!-- 2 -->
<g id="node2" class="node">
<title>2</title>
<text text-anchor="start" x="532" y="-561.8" font-family="Arial" font-weight="bold" font-size="14.00"> &lt; 91.45</text>
<text text-anchor="start" x="485" y="-517.3" font-family="Arial" font-size="14.00"> &#160;&#160;&#160;</text>
<path fill="#ebebeb" stroke="transparent" d="M515,-489C515,-489 599,-489 599,-489 605,-489 611,-495 611,-501 611,-501 611,-541 611,-541 611,-547 605,-553 599,-553 599,-553 515,-553 515,-553 509,-553 503,-547 503,-541 503,-541 503,-501 503,-501 503,-495 509,-489 515,-489"/>
<text text-anchor="start" x="504" y="-550.4" font-family="Arial" font-size="2.00"> </text>
<text text-anchor="start" x="504" y="-544.4" font-family="Arial" font-size="7.00"> &#160;2</text>
<text text-anchor="start" x="518" y="-527.8" font-family="Arial" font-weight="bold" font-size="14.00">Mean: 75.61</text>
<text text-anchor="start" x="533.5" y="-510.8" font-family="Arial" font-weight="bold" font-size="14.00">n = 131</text>
<text text-anchor="start" x="555.5" y="-492.8" font-family="Arial" font-size="9.00"> </text>
<path fill="none" stroke="#333333" d="M515,-489C515,-489 599,-489 599,-489 605,-489 611,-495 611,-501 611,-501 611,-541 611,-541 611,-547 605,-553 599,-553 599,-553 515,-553 515,-553 509,-553 503,-547 503,-541 503,-541 503,-501 503,-501 503,-495 509,-489 515,-489"/>
<text text-anchor="start" x="613" y="-517.3" font-family="Arial" font-size="14.00"> &#160;&#160;&#160;</text>
<text text-anchor="start" x="499.5" y="-474.8" font-family="Arial" font-weight="bold" font-size="14.00">prev_168h_inflow</text>
</g>
<!-- 1&#45;&gt;2 -->
<g id="edge1" class="edge">
<title>1&#45;&gt;2</title>
<path fill="none" stroke="#888888" d="M608.15,-615.67C603.38,-606.94 598.44,-597.88 593.58,-588.99"/>
<polygon fill="#888888" stroke="#888888" points="596.63,-587.28 588.77,-580.18 590.49,-590.63 596.63,-587.28"/>
</g>
<!-- 13 -->
<g id="node3" class="node">
<title>13</title>
<text text-anchor="start" x="698.5" y="-561.8" font-family="Arial" font-weight="bold" font-size="14.00"> ≥ 91.45</text>
<path fill="#ebebeb" stroke="transparent" d="M681,-489C681,-489 765,-489 765,-489 771,-489 777,-495 777,-501 777,-501 777,-541 777,-541 777,-547 771,-553 765,-553 765,-553 681,-553 681,-553 675,-553 669,-547 669,-541 669,-541 669,-501 669,-501 669,-495 675,-489 681,-489"/>
<text text-anchor="start" x="670" y="-550.4" font-family="Arial" font-size="2.00"> </text>
<text text-anchor="start" x="670" y="-544.4" font-family="Arial" font-size="7.00"> &#160;13</text>
<text text-anchor="start" x="684" y="-527.8" font-family="Arial" font-weight="bold" font-size="14.00">Mean: 97.88</text>
<text text-anchor="start" x="703" y="-510.8" font-family="Arial" font-weight="bold" font-size="14.00">n = 37</text>
<text text-anchor="start" x="721.5" y="-492.8" font-family="Arial" font-size="9.00"> </text>
<path fill="none" stroke="#333333" d="M681,-489C681,-489 765,-489 765,-489 771,-489 777,-495 777,-501 777,-501 777,-541 777,-541 777,-547 771,-553 765,-553 765,-553 681,-553 681,-553 675,-553 669,-547 669,-541 669,-541 669,-501 669,-501 669,-495 675,-489 681,-489"/>
<text text-anchor="start" x="708.5" y="-474.8" font-family="Arial" font-weight="bold" font-size="14.00">time</text>
</g>
<!-- 1&#45;&gt;13 -->
<g id="edge2" class="edge">
<title>1&#45;&gt;13</title>
<path fill="none" stroke="#888888" d="M671.85,-615.67C676.62,-606.94 681.56,-597.88 686.42,-588.99"/>
<polygon fill="#888888" stroke="#888888" points="689.51,-590.63 691.23,-580.18 683.37,-587.28 689.51,-590.63"/>
</g>
<!-- 3 -->
<g id="node4" class="node">
<title>3</title>
<text text-anchor="start" x="356" y="-407.8" font-family="Arial" font-weight="bold" font-size="14.00"> &lt; 79.12</text>
<text text-anchor="start" x="309" y="-363.3" font-family="Arial" font-size="14.00"> &#160;&#160;&#160;</text>
<path fill="#ebebeb" stroke="transparent" d="M339,-335C339,-335 423,-335 423,-335 429,-335 435,-341 435,-347 435,-347 435,-387 435,-387 435,-393 429,-399 423,-399 423,-399 339,-399 339,-399 333,-399 327,-393 327,-387 327,-387 327,-347 327,-347 327,-341 333,-335 339,-335"/>
<text text-anchor="start" x="328" y="-396.4" font-family="Arial" font-size="2.00"> </text>
<text text-anchor="start" x="328" y="-390.4" font-family="Arial" font-size="7.00"> &#160;3</text>
<text text-anchor="start" x="342" y="-373.8" font-family="Arial" font-weight="bold" font-size="14.00">Mean: 64.64</text>
<text text-anchor="start" x="361" y="-356.8" font-family="Arial" font-weight="bold" font-size="14.00">n = 64</text>
<text text-anchor="start" x="379.5" y="-338.8" font-family="Arial" font-size="9.00"> </text>
<path fill="none" stroke="#333333" d="M339,-335C339,-335 423,-335 423,-335 429,-335 435,-341 435,-347 435,-347 435,-387 435,-387 435,-393 429,-399 423,-399 423,-399 339,-399 339,-399 333,-399 327,-393 327,-387 327,-387 327,-347 327,-347 327,-341 333,-335 339,-335"/>
<text text-anchor="start" x="437" y="-363.3" font-family="Arial" font-size="14.00"> &#160;&#160;&#160;</text>
<text text-anchor="start" x="323.5" y="-320.8" font-family="Arial" font-weight="bold" font-size="14.00">prev_168h_inflow</text>
</g>
<!-- 2&#45;&gt;3 -->
<g id="edge3" class="edge">
<title>2&#45;&gt;3</title>
<path fill="none" stroke="#888888" d="M489.71,-461.88C478.67,-452.35 467.17,-442.42 455.96,-432.74"/>
<polygon fill="#888888" stroke="#888888" points="458.11,-429.97 448.25,-426.08 453.53,-435.27 458.11,-429.97"/>
</g>
<!-- 10 -->
<g id="node5" class="node">
<title>10</title>
<text text-anchor="start" x="534.5" y="-407.8" font-family="Arial" font-weight="bold" font-size="14.00"> ≥ 79.12</text>
<text text-anchor="start" x="491" y="-363.3" font-family="Arial" font-size="14.00"> &#160;&#160;&#160;</text>
<path fill="#ebebeb" stroke="transparent" d="M521,-335C521,-335 597,-335 597,-335 603,-335 609,-341 609,-347 609,-347 609,-387 609,-387 609,-393 603,-399 597,-399 597,-399 521,-399 521,-399 515,-399 509,-393 509,-387 509,-387 509,-347 509,-347 509,-341 515,-335 521,-335"/>
<text text-anchor="start" x="510" y="-396.4" font-family="Arial" font-size="2.00"> </text>
<text text-anchor="start" x="510" y="-390.4" font-family="Arial" font-size="7.00"> &#160;10</text>
<text text-anchor="start" x="524" y="-373.8" font-family="Arial" font-weight="bold" font-size="14.00">Mean: 86.1</text>
<text text-anchor="start" x="539" y="-356.8" font-family="Arial" font-weight="bold" font-size="14.00">n = 67</text>
<text text-anchor="start" x="557.5" y="-338.8" font-family="Arial" font-size="9.00"> </text>
<path fill="none" stroke="#333333" d="M521,-335C521,-335 597,-335 597,-335 603,-335 609,-341 609,-347 609,-347 609,-387 609,-387 609,-393 603,-399 597,-399 597,-399 521,-399 521,-399 515,-399 509,-393 509,-387 509,-387 509,-347 509,-347 509,-341 515,-335 521,-335"/>
<text text-anchor="start" x="611" y="-363.3" font-family="Arial" font-size="14.00"> &#160;&#160;&#160;</text>
<text text-anchor="start" x="501.5" y="-320.8" font-family="Arial" font-weight="bold" font-size="14.00">prev_168h_inflow</text>
</g>
<!-- 2&#45;&gt;10 -->
<g id="edge4" class="edge">
<title>2&#45;&gt;10</title>
<path fill="none" stroke="#888888" d="M557.77,-461.67C557.88,-453.39 557.99,-444.83 558.1,-436.38"/>
<polygon fill="#888888" stroke="#888888" points="561.6,-436.22 558.23,-426.18 554.6,-436.13 561.6,-436.22"/>
</g>
<!-- 14 -->
<g id="node14" class="node">
<title>14</title>
<text text-anchor="start" x="705" y="-407.8" font-family="Arial" font-weight="bold" font-size="14.00"> &lt; 8.5</text>
<path fill="#f8766d" fill-opacity="0.411765" stroke="transparent" d="M683,-335C683,-335 762,-335 762,-335 768,-335 774,-341 774,-347 774,-347 774,-387 774,-387 774,-393 768,-399 762,-399 762,-399 683,-399 683,-399 677,-399 671,-393 671,-387 671,-387 671,-347 671,-347 671,-341 677,-335 683,-335"/>
<text text-anchor="start" x="672" y="-396.4" font-family="Arial" font-size="2.00"> </text>
<text text-anchor="start" x="672" y="-390.4" font-family="Arial" font-size="7.00"> &#160;14</text>
<text text-anchor="start" x="686" y="-373.8" font-family="Arial" font-weight="bold" font-size="14.00">Predict 102</text>
<text text-anchor="start" x="703" y="-356.8" font-family="Arial" font-weight="bold" font-size="14.00">n = 11</text>
<text text-anchor="start" x="721" y="-338.8" font-family="Arial" font-size="9.00"> </text>
<path fill="none" stroke="#333333" d="M683,-335C683,-335 762,-335 762,-335 768,-335 774,-341 774,-347 774,-347 774,-387 774,-387 774,-393 768,-399 762,-399 762,-399 683,-399 683,-399 677,-399 671,-393 671,-387 671,-387 671,-347 671,-347 671,-341 677,-335 683,-335"/>
<text text-anchor="start" x="720.5" y="-320.8" font-family="Arial" font-weight="bold" font-size="14.00"> </text>
</g>
<!-- 13&#45;&gt;14 -->
<g id="edge13" class="edge">
<title>13&#45;&gt;14</title>
<path fill="none" stroke="#888888" d="M722.62,-461.67C722.56,-453.39 722.51,-444.83 722.45,-436.38"/>
<polygon fill="#888888" stroke="#888888" points="725.95,-436.15 722.38,-426.18 718.95,-436.2 725.95,-436.15"/>
</g>
<!-- 15 -->
<g id="node15" class="node">
<title>15</title>
<text text-anchor="start" x="869" y="-407.8" font-family="Arial" font-weight="bold" font-size="14.00"> ≥ 8.5</text>
<text text-anchor="start" x="814" y="-363.3" font-family="Arial" font-size="14.00"> &#160;&#160;&#160;</text>
<path fill="#ebebeb" stroke="transparent" d="M844,-335C844,-335 928,-335 928,-335 934,-335 940,-341 940,-347 940,-347 940,-387 940,-387 940,-393 934,-399 928,-399 928,-399 844,-399 844,-399 838,-399 832,-393 832,-387 832,-387 832,-347 832,-347 832,-341 838,-335 844,-335"/>
<text text-anchor="start" x="833" y="-396.4" font-family="Arial" font-size="2.00"> </text>
<text text-anchor="start" x="833" y="-390.4" font-family="Arial" font-size="7.00"> &#160;15</text>
<text text-anchor="start" x="847" y="-373.8" font-family="Arial" font-weight="bold" font-size="14.00">Mean: 96.15</text>
<text text-anchor="start" x="866" y="-356.8" font-family="Arial" font-weight="bold" font-size="14.00">n = 26</text>
<text text-anchor="start" x="884.5" y="-338.8" font-family="Arial" font-size="9.00"> </text>
<path fill="none" stroke="#333333" d="M844,-335C844,-335 928,-335 928,-335 934,-335 940,-341 940,-347 940,-347 940,-387 940,-387 940,-393 934,-399 928,-399 928,-399 844,-399 844,-399 838,-399 832,-393 832,-387 832,-387 832,-347 832,-347 832,-341 838,-335 844,-335"/>
<text text-anchor="start" x="942" y="-363.3" font-family="Arial" font-size="14.00"> &#160;&#160;&#160;</text>
<text text-anchor="start" x="828.5" y="-320.8" font-family="Arial" font-weight="bold" font-size="14.00">prev_168h_inflow</text>
</g>
<!-- 13&#45;&gt;15 -->
<g id="edge14" class="edge">
<title>13&#45;&gt;15</title>
<path fill="none" stroke="#888888" d="M785.55,-461.67C795.6,-452.3 806.04,-442.56 816.24,-433.05"/>
<polygon fill="#888888" stroke="#888888" points="818.69,-435.56 823.61,-426.18 813.91,-430.44 818.69,-435.56"/>
</g>
<!-- 4 -->
<g id="node6" class="node">
<title>4</title>
<text text-anchor="start" x="197" y="-253.8" font-family="Arial" font-weight="bold" font-size="14.00"> &lt; 68.53</text>
<text text-anchor="start" x="150" y="-209.3" font-family="Arial" font-size="14.00"> &#160;&#160;&#160;</text>
<path fill="#ebebeb" stroke="transparent" d="M180,-181C180,-181 264,-181 264,-181 270,-181 276,-187 276,-193 276,-193 276,-233 276,-233 276,-239 270,-245 264,-245 264,-245 180,-245 180,-245 174,-245 168,-239 168,-233 168,-233 168,-193 168,-193 168,-187 174,-181 180,-181"/>
<text text-anchor="start" x="169" y="-242.4" font-family="Arial" font-size="2.00"> </text>
<text text-anchor="start" x="169" y="-236.4" font-family="Arial" font-size="7.00"> &#160;4</text>
<text text-anchor="start" x="183" y="-219.8" font-family="Arial" font-weight="bold" font-size="14.00">Mean: 59.77</text>
<text text-anchor="start" x="202" y="-202.8" font-family="Arial" font-weight="bold" font-size="14.00">n = 44</text>
<text text-anchor="start" x="220.5" y="-184.8" font-family="Arial" font-size="9.00"> </text>
<path fill="none" stroke="#333333" d="M180,-181C180,-181 264,-181 264,-181 270,-181 276,-187 276,-193 276,-193 276,-233 276,-233 276,-239 270,-245 264,-245 264,-245 180,-245 180,-245 174,-245 168,-239 168,-233 168,-233 168,-193 168,-193 168,-187 174,-181 180,-181"/>
<text text-anchor="start" x="278" y="-209.3" font-family="Arial" font-size="14.00"> &#160;&#160;&#160;</text>
<text text-anchor="start" x="164.5" y="-166.8" font-family="Arial" font-weight="bold" font-size="14.00">prev_168h_inflow</text>
</g>
<!-- 3&#45;&gt;4 -->
<g id="edge5" class="edge">
<title>3&#45;&gt;4</title>
<path fill="none" stroke="#888888" d="M319.98,-307.67C310.28,-298.39 300.19,-288.75 290.34,-279.33"/>
<polygon fill="#888888" stroke="#888888" points="292.5,-276.56 282.86,-272.18 287.67,-281.62 292.5,-276.56"/>
</g>
<!-- 7 -->
<g id="node7" class="node">
<title>7</title>
<text text-anchor="start" x="363.5" y="-253.8" font-family="Arial" font-weight="bold" font-size="14.00"> ≥ 68.53</text>
<path fill="#ebebeb" stroke="transparent" d="M346,-181C346,-181 430,-181 430,-181 436,-181 442,-187 442,-193 442,-193 442,-233 442,-233 442,-239 436,-245 430,-245 430,-245 346,-245 346,-245 340,-245 334,-239 334,-233 334,-233 334,-193 334,-193 334,-187 340,-181 346,-181"/>
<text text-anchor="start" x="335" y="-242.4" font-family="Arial" font-size="2.00"> </text>
<text text-anchor="start" x="335" y="-236.4" font-family="Arial" font-size="7.00"> &#160;7</text>
<text text-anchor="start" x="349" y="-219.8" font-family="Arial" font-weight="bold" font-size="14.00">Mean: 75.34</text>
<text text-anchor="start" x="368" y="-202.8" font-family="Arial" font-weight="bold" font-size="14.00">n = 20</text>
<text text-anchor="start" x="386.5" y="-184.8" font-family="Arial" font-size="9.00"> </text>
<path fill="none" stroke="#333333" d="M346,-181C346,-181 430,-181 430,-181 436,-181 442,-187 442,-193 442,-193 442,-233 442,-233 442,-239 436,-245 430,-245 430,-245 346,-245 346,-245 340,-245 334,-239 334,-233 334,-233 334,-193 334,-193 334,-187 340,-181 346,-181"/>
<text text-anchor="start" x="373.5" y="-166.8" font-family="Arial" font-weight="bold" font-size="14.00">time</text>
</g>
<!-- 3&#45;&gt;7 -->
<g id="edge6" class="edge">
<title>3&#45;&gt;7</title>
<path fill="none" stroke="#888888" d="M383.69,-307.67C384.07,-299.39 384.46,-290.83 384.85,-282.38"/>
<polygon fill="#888888" stroke="#888888" points="388.36,-282.33 385.32,-272.18 381.36,-282 388.36,-282.33"/>
</g>
<!-- 11 -->
<g id="node12" class="node">
<title>11</title>
<text text-anchor="start" x="528" y="-253.8" font-family="Arial" font-weight="bold" font-size="14.00"> &lt; 86.85</text>
<path fill="#f8766d" fill-opacity="0.607843" stroke="transparent" d="M508,-181C508,-181 598,-181 598,-181 604,-181 610,-187 610,-193 610,-193 610,-233 610,-233 610,-239 604,-245 598,-245 598,-245 508,-245 508,-245 502,-245 496,-239 496,-233 496,-233 496,-193 496,-193 496,-187 502,-181 508,-181"/>
<text text-anchor="start" x="497" y="-242.4" font-family="Arial" font-size="2.00"> </text>
<text text-anchor="start" x="497" y="-236.4" font-family="Arial" font-size="7.00"> &#160;11</text>
<text text-anchor="start" x="511" y="-219.8" font-family="Arial" font-weight="bold" font-size="14.00">Predict 83.64</text>
<text text-anchor="start" x="533" y="-202.8" font-family="Arial" font-weight="bold" font-size="14.00">n = 36</text>
<text text-anchor="start" x="551.5" y="-184.8" font-family="Arial" font-size="9.00"> </text>
<path fill="none" stroke="#333333" d="M508,-181C508,-181 598,-181 598,-181 604,-181 610,-187 610,-193 610,-193 610,-233 610,-233 610,-239 604,-245 598,-245 598,-245 508,-245 508,-245 502,-245 496,-239 496,-233 496,-233 496,-193 496,-193 496,-187 502,-181 508,-181"/>
<text text-anchor="start" x="551" y="-166.8" font-family="Arial" font-weight="bold" font-size="14.00"> </text>
</g>
<!-- 10&#45;&gt;11 -->
<g id="edge11" class="edge">
<title>10&#45;&gt;11</title>
<path fill="none" stroke="#888888" d="M556.7,-307.67C556.37,-299.39 556.03,-290.83 555.7,-282.38"/>
<polygon fill="#888888" stroke="#888888" points="559.19,-282.03 555.3,-272.18 552.19,-282.31 559.19,-282.03"/>
</g>
<!-- 12 -->
<g id="node13" class="node">
<title>12</title>
<text text-anchor="start" x="684.5" y="-253.8" font-family="Arial" font-weight="bold" font-size="14.00"> ≥ 86.85</text>
<path fill="#f8766d" fill-opacity="0.552941" stroke="transparent" d="M664,-181C664,-181 754,-181 754,-181 760,-181 766,-187 766,-193 766,-193 766,-233 766,-233 766,-239 760,-245 754,-245 754,-245 664,-245 664,-245 658,-245 652,-239 652,-233 652,-233 652,-193 652,-193 652,-187 658,-181 664,-181"/>
<text text-anchor="start" x="653" y="-242.4" font-family="Arial" font-size="2.00"> </text>
<text text-anchor="start" x="653" y="-236.4" font-family="Arial" font-size="7.00"> &#160;12</text>
<text text-anchor="start" x="667" y="-219.8" font-family="Arial" font-weight="bold" font-size="14.00">Predict 88.96</text>
<text text-anchor="start" x="689" y="-202.8" font-family="Arial" font-weight="bold" font-size="14.00">n = 31</text>
<text text-anchor="start" x="707.5" y="-184.8" font-family="Arial" font-size="9.00"> </text>
<path fill="none" stroke="#333333" d="M664,-181C664,-181 754,-181 754,-181 760,-181 766,-187 766,-193 766,-193 766,-233 766,-233 766,-239 760,-245 754,-245 754,-245 664,-245 664,-245 658,-245 652,-239 652,-233 652,-233 652,-193 652,-193 652,-187 658,-181 664,-181"/>
<text text-anchor="start" x="707" y="-166.8" font-family="Arial" font-weight="bold" font-size="14.00"> </text>
</g>
<!-- 10&#45;&gt;12 -->
<g id="edge12" class="edge">
<title>10&#45;&gt;12</title>
<path fill="none" stroke="#888888" d="M616.56,-307.67C625.72,-298.39 635.23,-288.75 644.53,-279.33"/>
<polygon fill="#888888" stroke="#888888" points="647.06,-281.75 651.59,-272.18 642.07,-276.84 647.06,-281.75"/>
</g>
<!-- 5 -->
<g id="node8" class="node">
<title>5</title>
<text text-anchor="start" x="44" y="-99.8" font-family="Arial" font-weight="bold" font-size="14.00"> &lt; 61.84</text>
<path fill="#f8766d" fill-opacity="0.874510" stroke="transparent" d="M24,-27C24,-27 114,-27 114,-27 120,-27 126,-33 126,-39 126,-39 126,-79 126,-79 126,-85 120,-91 114,-91 114,-91 24,-91 24,-91 18,-91 12,-85 12,-79 12,-79 12,-39 12,-39 12,-33 18,-27 24,-27"/>
<text text-anchor="start" x="13" y="-88.4" font-family="Arial" font-size="2.00"> </text>
<text text-anchor="start" x="13" y="-82.4" font-family="Arial" font-size="7.00"> &#160;5</text>
<text text-anchor="start" x="27" y="-65.8" font-family="Arial" font-weight="bold" font-size="14.00">Predict 58.51</text>
<text text-anchor="start" x="49" y="-48.8" font-family="Arial" font-weight="bold" font-size="14.00">n = 35</text>
<text text-anchor="start" x="67.5" y="-30.8" font-family="Arial" font-size="9.00"> </text>
<path fill="none" stroke="#333333" d="M24,-27C24,-27 114,-27 114,-27 120,-27 126,-33 126,-39 126,-39 126,-79 126,-79 126,-85 120,-91 114,-91 114,-91 24,-91 24,-91 18,-91 12,-85 12,-79 12,-79 12,-39 12,-39 12,-33 18,-27 24,-27"/>
<text text-anchor="start" x="67" y="-12.8" font-family="Arial" font-weight="bold" font-size="14.00"> </text>
</g>
<!-- 4&#45;&gt;5 -->
<g id="edge7" class="edge">
<title>4&#45;&gt;5</title>
<path fill="none" stroke="#888888" d="M163.28,-153.67C153.95,-144.39 144.24,-134.75 134.76,-125.33"/>
<polygon fill="#888888" stroke="#888888" points="137.12,-122.74 127.56,-118.18 132.19,-127.71 137.12,-122.74"/>
</g>
<!-- 6 -->
<g id="node9" class="node">
<title>6</title>
<text text-anchor="start" x="200.5" y="-99.8" font-family="Arial" font-weight="bold" font-size="14.00"> ≥ 61.84</text>
<path fill="#f8766d" fill-opacity="0.811765" stroke="transparent" d="M180,-27C180,-27 270,-27 270,-27 276,-27 282,-33 282,-39 282,-39 282,-79 282,-79 282,-85 276,-91 270,-91 270,-91 180,-91 180,-91 174,-91 168,-85 168,-79 168,-79 168,-39 168,-39 168,-33 174,-27 180,-27"/>
<text text-anchor="start" x="169" y="-88.4" font-family="Arial" font-size="2.00"> </text>
<text text-anchor="start" x="169" y="-82.4" font-family="Arial" font-size="7.00"> &#160;6</text>
<text text-anchor="start" x="183" y="-65.8" font-family="Arial" font-weight="bold" font-size="14.00">Predict 64.65</text>
<text text-anchor="start" x="209" y="-48.8" font-family="Arial" font-weight="bold" font-size="14.00">n = 9</text>
<text text-anchor="start" x="223.5" y="-30.8" font-family="Arial" font-size="9.00"> </text>
<path fill="none" stroke="#333333" d="M180,-27C180,-27 270,-27 270,-27 276,-27 282,-33 282,-39 282,-39 282,-79 282,-79 282,-85 276,-91 270,-91 270,-91 180,-91 180,-91 174,-91 168,-85 168,-79 168,-79 168,-39 168,-39 168,-33 174,-27 180,-27"/>
<text text-anchor="start" x="223" y="-12.8" font-family="Arial" font-weight="bold" font-size="14.00"> </text>
</g>
<!-- 4&#45;&gt;6 -->
<g id="edge8" class="edge">
<title>4&#45;&gt;6</title>
<path fill="none" stroke="#888888" d="M223.15,-153.67C223.31,-145.39 223.48,-136.83 223.65,-128.38"/>
<polygon fill="#888888" stroke="#888888" points="227.15,-128.24 223.85,-118.18 220.16,-128.11 227.15,-128.24"/>
</g>
<!-- 8 -->
<g id="node10" class="node">
<title>8</title>
<text text-anchor="start" x="364.5" y="-99.8" font-family="Arial" font-weight="bold" font-size="14.00"> &lt; 22.5</text>
<path fill="#f8766d" fill-opacity="0.674510" stroke="transparent" d="M341,-27C341,-27 431,-27 431,-27 437,-27 443,-33 443,-39 443,-39 443,-79 443,-79 443,-85 437,-91 431,-91 431,-91 341,-91 341,-91 335,-91 329,-85 329,-79 329,-79 329,-39 329,-39 329,-33 335,-27 341,-27"/>
<text text-anchor="start" x="330" y="-88.4" font-family="Arial" font-size="2.00"> </text>
<text text-anchor="start" x="330" y="-82.4" font-family="Arial" font-size="7.00"> &#160;8</text>
<text text-anchor="start" x="344" y="-65.8" font-family="Arial" font-weight="bold" font-size="14.00">Predict 77.24</text>
<text text-anchor="start" x="366" y="-48.8" font-family="Arial" font-weight="bold" font-size="14.00">n = 13</text>
<text text-anchor="start" x="384.5" y="-30.8" font-family="Arial" font-size="9.00"> </text>
<path fill="none" stroke="#333333" d="M341,-27C341,-27 431,-27 431,-27 437,-27 443,-33 443,-39 443,-39 443,-79 443,-79 443,-85 437,-91 431,-91 431,-91 341,-91 341,-91 335,-91 329,-85 329,-79 329,-79 329,-39 329,-39 329,-33 335,-27 341,-27"/>
<text text-anchor="start" x="384" y="-12.8" font-family="Arial" font-weight="bold" font-size="14.00"> </text>
</g>
<!-- 7&#45;&gt;8 -->
<g id="edge9" class="edge">
<title>7&#45;&gt;8</title>
<path fill="none" stroke="#888888" d="M387.23,-153.67C387.12,-145.39 387.01,-136.83 386.9,-128.38"/>
<polygon fill="#888888" stroke="#888888" points="390.4,-128.13 386.77,-118.18 383.4,-128.22 390.4,-128.13"/>
</g>
<!-- 9 -->
<g id="node11" class="node">
<title>9</title>
<text text-anchor="start" x="521" y="-99.8" font-family="Arial" font-weight="bold" font-size="14.00"> ≥ 22.5</text>
<path fill="#f8766d" fill-opacity="0.733333" stroke="transparent" d="M497,-27C497,-27 587,-27 587,-27 593,-27 599,-33 599,-39 599,-39 599,-79 599,-79 599,-85 593,-91 587,-91 587,-91 497,-91 497,-91 491,-91 485,-85 485,-79 485,-79 485,-39 485,-39 485,-33 491,-27 497,-27"/>
<text text-anchor="start" x="486" y="-88.4" font-family="Arial" font-size="2.00"> </text>
<text text-anchor="start" x="486" y="-82.4" font-family="Arial" font-size="7.00"> &#160;9</text>
<text text-anchor="start" x="500" y="-65.8" font-family="Arial" font-weight="bold" font-size="14.00">Predict 71.81</text>
<text text-anchor="start" x="526" y="-48.8" font-family="Arial" font-weight="bold" font-size="14.00">n = 7</text>
<text text-anchor="start" x="540.5" y="-30.8" font-family="Arial" font-size="9.00"> </text>
<path fill="none" stroke="#333333" d="M497,-27C497,-27 587,-27 587,-27 593,-27 599,-33 599,-39 599,-39 599,-79 599,-79 599,-85 593,-91 587,-91 587,-91 497,-91 497,-91 491,-91 485,-85 485,-79 485,-79 485,-39 485,-39 485,-33 491,-27 497,-27"/>
<text text-anchor="start" x="540" y="-12.8" font-family="Arial" font-weight="bold" font-size="14.00"> </text>
</g>
<!-- 7&#45;&gt;9 -->
<g id="edge10" class="edge">
<title>7&#45;&gt;9</title>
<path fill="none" stroke="#888888" d="M447.1,-153.67C456.5,-144.39 466.27,-134.75 475.81,-125.33"/>
<polygon fill="#888888" stroke="#888888" points="478.4,-127.69 483.06,-118.18 473.48,-122.71 478.4,-127.69"/>
</g>
<!-- 16 -->
<g id="node16" class="node">
<title>16</title>
<text text-anchor="start" x="851" y="-253.8" font-family="Arial" font-weight="bold" font-size="14.00"> &lt; 99.92</text>
<path fill="#f8766d" fill-opacity="0.498039" stroke="transparent" d="M831,-181C831,-181 921,-181 921,-181 927,-181 933,-187 933,-193 933,-193 933,-233 933,-233 933,-239 927,-245 921,-245 921,-245 831,-245 831,-245 825,-245 819,-239 819,-233 819,-233 819,-193 819,-193 819,-187 825,-181 831,-181"/>
<text text-anchor="start" x="820" y="-242.4" font-family="Arial" font-size="2.00"> </text>
<text text-anchor="start" x="820" y="-236.4" font-family="Arial" font-size="7.00"> &#160;16</text>
<text text-anchor="start" x="834" y="-219.8" font-family="Arial" font-weight="bold" font-size="14.00">Predict 93.89</text>
<text text-anchor="start" x="856" y="-202.8" font-family="Arial" font-weight="bold" font-size="14.00">n = 21</text>
<text text-anchor="start" x="874.5" y="-184.8" font-family="Arial" font-size="9.00"> </text>
<path fill="none" stroke="#333333" d="M831,-181C831,-181 921,-181 921,-181 927,-181 933,-187 933,-193 933,-193 933,-233 933,-233 933,-239 927,-245 921,-245 921,-245 831,-245 831,-245 825,-245 819,-239 819,-233 819,-233 819,-193 819,-193 819,-187 825,-181 831,-181"/>
<text text-anchor="start" x="874" y="-166.8" font-family="Arial" font-weight="bold" font-size="14.00"> </text>
</g>
<!-- 15&#45;&gt;16 -->
<g id="edge15" class="edge">
<title>15&#45;&gt;16</title>
<path fill="none" stroke="#888888" d="M882.16,-307.67C881.62,-299.39 881.05,-290.83 880.5,-282.38"/>
<polygon fill="#888888" stroke="#888888" points="883.98,-281.92 879.83,-272.18 876.99,-282.38 883.98,-281.92"/>
</g>
<!-- 17 -->
<g id="node17" class="node">
<title>17</title>
<text text-anchor="start" x="1007.5" y="-253.8" font-family="Arial" font-weight="bold" font-size="14.00"> ≥ 99.92</text>
<path fill="#f8766d" fill-opacity="0.376471" stroke="transparent" d="M987,-181C987,-181 1077,-181 1077,-181 1083,-181 1089,-187 1089,-193 1089,-193 1089,-233 1089,-233 1089,-239 1083,-245 1077,-245 1077,-245 987,-245 987,-245 981,-245 975,-239 975,-233 975,-233 975,-193 975,-193 975,-187 981,-181 987,-181"/>
<text text-anchor="start" x="976" y="-242.4" font-family="Arial" font-size="2.00"> </text>
<text text-anchor="start" x="976" y="-236.4" font-family="Arial" font-size="7.00"> &#160;17</text>
<text text-anchor="start" x="990" y="-219.8" font-family="Arial" font-weight="bold" font-size="14.00">Predict 105.6</text>
<text text-anchor="start" x="1016" y="-202.8" font-family="Arial" font-weight="bold" font-size="14.00">n = 5</text>
<text text-anchor="start" x="1030.5" y="-184.8" font-family="Arial" font-size="9.00"> </text>
<path fill="none" stroke="#333333" d="M987,-181C987,-181 1077,-181 1077,-181 1083,-181 1089,-187 1089,-193 1089,-193 1089,-233 1089,-233 1089,-239 1083,-245 1077,-245 1077,-245 987,-245 987,-245 981,-245 975,-239 975,-233 975,-233 975,-193 975,-193 975,-187 981,-181 987,-181"/>
<text text-anchor="start" x="1030" y="-166.8" font-family="Arial" font-weight="bold" font-size="14.00"> </text>
</g>
<!-- 15&#45;&gt;17 -->
<g id="edge16" class="edge">
<title>15&#45;&gt;17</title>
<path fill="none" stroke="#888888" d="M942.03,-307.67C950.85,-298.49 960.02,-288.94 968.98,-279.6"/>
<polygon fill="#888888" stroke="#888888" points="971.72,-281.81 976.12,-272.18 966.67,-276.96 971.72,-281.81"/>
</g>
</g>
</svg>
