<?xml version="1.0" encoding="UTF-8" standalone="no"?>
<!DOCTYPE svg PUBLIC "-//W3C//DTD SVG 1.1//EN"
 "http://www.w3.org/Graphics/SVG/1.1/DTD/svg11.dtd">
<!-- Generated by graphviz version 2.50.0 (20211204.2007)
 -->
<!-- Pages: 1 -->
<svg width="1863pt" height="742pt"
 viewBox="0.00 0.00 1863.00 742.00" xmlns="http://www.w3.org/2000/svg" xmlns:xlink="http://www.w3.org/1999/xlink">
<g id="graph0" class="graph" transform="scale(1 1) rotate(0) translate(4 738)">
<polygon fill="white" stroke="transparent" points="-4,4 -4,-738 1859,-738 1859,4 -4,4"/>
<!-- 1 -->
<g id="node1" class="node">
<title>1</title>
<text text-anchor="start" x="773" y="-715.8" font-family="Arial" font-weight="bold" font-size="14.00"> </text>
<text text-anchor="start" x="703" y="-671.3" font-family="Arial" font-size="14.00"> &#160;&#160;&#160;</text>
<path fill="#ebebeb" stroke="transparent" d="M733,-643C733,-643 817,-643 817,-643 823,-643 829,-649 829,-655 829,-655 829,-695 829,-695 829,-701 823,-707 817,-707 817,-707 733,-707 733,-707 727,-707 721,-701 721,-695 721,-695 721,-655 721,-655 721,-649 727,-643 733,-643"/>
<text text-anchor="start" x="722" y="-704.4" font-family="Arial" font-size="2.00"> </text>
<text text-anchor="start" x="722" y="-698.4" font-family="Arial" font-size="7.00"> &#160;1</text>
<text text-anchor="start" x="736" y="-681.8" font-family="Arial" font-weight="bold" font-size="14.00">Mean: 80.89</text>
<text text-anchor="start" x="751.5" y="-664.8" font-family="Arial" font-weight="bold" font-size="14.00">n = 672</text>
<text text-anchor="start" x="773.5" y="-646.8" font-family="Arial" font-size="9.00"> </text>
<path fill="none" stroke="#333333" d="M733,-643C733,-643 817,-643 817,-643 823,-643 829,-649 829,-655 829,-655 829,-695 829,-695 829,-701 823,-707 817,-707 817,-707 733,-707 733,-707 727,-707 721,-701 721,-695 721,-695 721,-655 721,-655 721,-649 727,-643 733,-643"/>
<text text-anchor="start" x="831" y="-671.3" font-family="Arial" font-size="14.00"> &#160;&#160;&#160;</text>
<text text-anchor="start" x="717.5" y="-628.8" font-family="Arial" font-weight="bold" font-size="14.00">prev_168h_inflow</text>
</g>
<!-- 2 -->
<g id="node2" class="node">
<title>2</title>
<text text-anchor="start" x="614.5" y="-561.8" font-family="Arial" font-weight="bold" font-size="14.00"> &lt; 83.5</text>
<text text-anchor="start" x="564" y="-517.3" font-family="Arial" font-size="14.00"> &#160;&#160;&#160;</text>
<path fill="#ebebeb" stroke="transparent" d="M594,-489C594,-489 678,-489 678,-489 684,-489 690,-495 690,-501 690,-501 690,-541 690,-541 690,-547 684,-553 678,-553 678,-553 594,-553 594,-553 588,-553 582,-547 582,-541 582,-541 582,-501 582,-501 582,-495 588,-489 594,-489"/>
<text text-anchor="start" x="583" y="-550.4" font-family="Arial" font-size="2.00"> </text>
<text text-anchor="start" x="583" y="-544.4" font-family="Arial" font-size="7.00"> &#160;2</text>
<text text-anchor="start" x="597" y="-527.8" font-family="Arial" font-weight="bold" font-size="14.00">Mean: 67.85</text>
<text text-anchor="start" x="612.5" y="-510.8" font-family="Arial" font-weight="bold" font-size="14.00">n = 306</text>
<text text-anchor="start" x="634.5" y="-492.8" font-family="Arial" font-size="9.00"> </text>
<path fill="none" stroke="#333333" d="M594,-489C594,-489 678,-489 678,-489 684,-489 690,-495 690,-501 690,-501 690,-541 690,-541 690,-547 684,-553 678,-553 678,-553 594,-553 594,-553 588,-553 582,-547 582,-541 582,-541 582,-501 582,-501 582,-495 588,-489 594,-489"/>
<text text-anchor="start" x="692" y="-517.3" font-family="Arial" font-size="14.00"> &#160;&#160;&#160;</text>
<text text-anchor="start" x="578.5" y="-474.8" font-family="Arial" font-weight="bold" font-size="14.00">prev_168h_inflow</text>
</g>
<!-- 1&#45;&gt;2 -->
<g id="edge1" class="edge">
<title>1&#45;&gt;2</title>
<path fill="none" stroke="#888888" d="M721.66,-615.67C713.26,-606.49 704.53,-596.94 695.99,-587.6"/>
<polygon fill="#888888" stroke="#888888" points="698.53,-585.19 689.2,-580.18 693.37,-589.92 698.53,-585.19"/>
</g>
<!-- 15 -->
<g id="node3" class="node">
<title>15</title>
<text text-anchor="start" x="1023" y="-561.8" font-family="Arial" font-weight="bold" font-size="14.00"> ≥ 83.5</text>
<text text-anchor="start" x="976" y="-517.3" font-family="Arial" font-size="14.00"> &#160;&#160;&#160;</text>
<path fill="#ebebeb" stroke="transparent" d="M1006,-489C1006,-489 1082,-489 1082,-489 1088,-489 1094,-495 1094,-501 1094,-501 1094,-541 1094,-541 1094,-547 1088,-553 1082,-553 1082,-553 1006,-553 1006,-553 1000,-553 994,-547 994,-541 994,-541 994,-501 994,-501 994,-495 1000,-489 1006,-489"/>
<text text-anchor="start" x="995" y="-550.4" font-family="Arial" font-size="2.00"> </text>
<text text-anchor="start" x="995" y="-544.4" font-family="Arial" font-size="7.00"> &#160;15</text>
<text text-anchor="start" x="1009" y="-527.8" font-family="Arial" font-weight="bold" font-size="14.00">Mean: 91.8</text>
<text text-anchor="start" x="1020.5" y="-510.8" font-family="Arial" font-weight="bold" font-size="14.00">n = 366</text>
<text text-anchor="start" x="1042.5" y="-492.8" font-family="Arial" font-size="9.00"> </text>
<path fill="none" stroke="#333333" d="M1006,-489C1006,-489 1082,-489 1082,-489 1088,-489 1094,-495 1094,-501 1094,-501 1094,-541 1094,-541 1094,-547 1088,-553 1082,-553 1082,-553 1006,-553 1006,-553 1000,-553 994,-547 994,-541 994,-541 994,-501 994,-501 994,-495 1000,-489 1006,-489"/>
<text text-anchor="start" x="1096" y="-517.3" font-family="Arial" font-size="14.00"> &#160;&#160;&#160;</text>
<text text-anchor="start" x="986.5" y="-474.8" font-family="Arial" font-weight="bold" font-size="14.00">prev_168h_inflow</text>
</g>
<!-- 1&#45;&gt;15 -->
<g id="edge2" class="edge">
<title>1&#45;&gt;15</title>
<path fill="none" stroke="#888888" d="M857.17,-627.57C888.66,-609.77 924.69,-589.41 956.66,-571.35"/>
<polygon fill="#888888" stroke="#888888" points="958.57,-574.29 965.56,-566.33 955.13,-568.2 958.57,-574.29"/>
</g>
<!-- 3 -->
<g id="node4" class="node">
<title>3</title>
<text text-anchor="start" x="360" y="-407.8" font-family="Arial" font-weight="bold" font-size="14.00"> &lt; 69.41</text>
<text text-anchor="start" x="313" y="-363.3" font-family="Arial" font-size="14.00"> &#160;&#160;&#160;</text>
<path fill="#ebebeb" stroke="transparent" d="M343,-335C343,-335 427,-335 427,-335 433,-335 439,-341 439,-347 439,-347 439,-387 439,-387 439,-393 433,-399 427,-399 427,-399 343,-399 343,-399 337,-399 331,-393 331,-387 331,-387 331,-347 331,-347 331,-341 337,-335 343,-335"/>
<text text-anchor="start" x="332" y="-396.4" font-family="Arial" font-size="2.00"> </text>
<text text-anchor="start" x="332" y="-390.4" font-family="Arial" font-size="7.00"> &#160;3</text>
<text text-anchor="start" x="346" y="-373.8" font-family="Arial" font-weight="bold" font-size="14.00">Mean: 60.38</text>
<text text-anchor="start" x="361.5" y="-356.8" font-family="Arial" font-weight="bold" font-size="14.00">n = 176</text>
<text text-anchor="start" x="383.5" y="-338.8" font-family="Arial" font-size="9.00"> </text>
<path fill="none" stroke="#333333" d="M343,-335C343,-335 427,-335 427,-335 433,-335 439,-341 439,-347 439,-347 439,-387 439,-387 439,-393 433,-399 427,-399 427,-399 343,-399 343,-399 337,-399 331,-393 331,-387 331,-387 331,-347 331,-347 331,-341 337,-335 343,-335"/>
<text text-anchor="start" x="441" y="-363.3" font-family="Arial" font-size="14.00"> &#160;&#160;&#160;</text>
<text text-anchor="start" x="327.5" y="-320.8" font-family="Arial" font-weight="bold" font-size="14.00">prev_168h_inflow</text>
</g>
<!-- 2&#45;&gt;3 -->
<g id="edge3" class="edge">
<title>2&#45;&gt;3</title>
<path fill="none" stroke="#888888" d="M553.81,-470.23C529,-455.2 501.62,-438.62 476.25,-423.26"/>
<polygon fill="#888888" stroke="#888888" points="477.74,-420.07 467.37,-417.88 474.11,-426.06 477.74,-420.07"/>
</g>
<!-- 8 -->
<g id="node5" class="node">
<title>8</title>
<text text-anchor="start" x="611.5" y="-407.8" font-family="Arial" font-weight="bold" font-size="14.00"> ≥ 69.41</text>
<text text-anchor="start" x="564" y="-363.3" font-family="Arial" font-size="14.00"> &#160;&#160;&#160;</text>
<path fill="#ebebeb" stroke="transparent" d="M594,-335C594,-335 678,-335 678,-335 684,-335 690,-341 690,-347 690,-347 690,-387 690,-387 690,-393 684,-399 678,-399 678,-399 594,-399 594,-399 588,-399 582,-393 582,-387 582,-387 582,-347 582,-347 582,-341 588,-335 594,-335"/>
<text text-anchor="start" x="583" y="-396.4" font-family="Arial" font-size="2.00"> </text>
<text text-anchor="start" x="583" y="-390.4" font-family="Arial" font-size="7.00"> &#160;8</text>
<text text-anchor="start" x="597" y="-373.8" font-family="Arial" font-weight="bold" font-size="14.00">Mean: 77.95</text>
<text text-anchor="start" x="612.5" y="-356.8" font-family="Arial" font-weight="bold" font-size="14.00">n = 130</text>
<text text-anchor="start" x="634.5" y="-338.8" font-family="Arial" font-size="9.00"> </text>
<path fill="none" stroke="#333333" d="M594,-335C594,-335 678,-335 678,-335 684,-335 690,-341 690,-347 690,-347 690,-387 690,-387 690,-393 684,-399 678,-399 678,-399 594,-399 594,-399 588,-399 582,-393 582,-387 582,-387 582,-347 582,-347 582,-341 588,-335 594,-335"/>
<text text-anchor="start" x="692" y="-363.3" font-family="Arial" font-size="14.00"> &#160;&#160;&#160;</text>
<text text-anchor="start" x="578.5" y="-320.8" font-family="Arial" font-weight="bold" font-size="14.00">prev_168h_inflow</text>
</g>
<!-- 2&#45;&gt;8 -->
<g id="edge4" class="edge">
<title>2&#45;&gt;8</title>
<path fill="none" stroke="#888888" d="M636,-461.67C636,-453.39 636,-444.83 636,-436.38"/>
<polygon fill="#888888" stroke="#888888" points="639.5,-436.18 636,-426.18 632.5,-436.18 639.5,-436.18"/>
</g>
<!-- 16 -->
<g id="node16" class="node">
<title>16</title>
<text text-anchor="start" x="1022.5" y="-407.8" font-family="Arial" font-weight="bold" font-size="14.00"> &lt; 91.9</text>
<text text-anchor="start" x="972" y="-363.3" font-family="Arial" font-size="14.00"> &#160;&#160;&#160;</text>
<path fill="#ebebeb" stroke="transparent" d="M1002,-335C1002,-335 1086,-335 1086,-335 1092,-335 1098,-341 1098,-347 1098,-347 1098,-387 1098,-387 1098,-393 1092,-399 1086,-399 1086,-399 1002,-399 1002,-399 996,-399 990,-393 990,-387 990,-387 990,-347 990,-347 990,-341 996,-335 1002,-335"/>
<text text-anchor="start" x="991" y="-396.4" font-family="Arial" font-size="2.00"> </text>
<text text-anchor="start" x="991" y="-390.4" font-family="Arial" font-size="7.00"> &#160;16</text>
<text text-anchor="start" x="1005" y="-373.8" font-family="Arial" font-weight="bold" font-size="14.00">Mean: 87.34</text>
<text text-anchor="start" x="1020.5" y="-356.8" font-family="Arial" font-weight="bold" font-size="14.00">n = 209</text>
<text text-anchor="start" x="1042.5" y="-338.8" font-family="Arial" font-size="9.00"> </text>
<path fill="none" stroke="#333333" d="M1002,-335C1002,-335 1086,-335 1086,-335 1092,-335 1098,-341 1098,-347 1098,-347 1098,-387 1098,-387 1098,-393 1092,-399 1086,-399 1086,-399 1002,-399 1002,-399 996,-399 990,-393 990,-387 990,-387 990,-347 990,-347 990,-341 996,-335 1002,-335"/>
<text text-anchor="start" x="1100" y="-363.3" font-family="Arial" font-size="14.00"> &#160;&#160;&#160;</text>
<text text-anchor="start" x="986.5" y="-320.8" font-family="Arial" font-weight="bold" font-size="14.00">prev_168h_inflow</text>
</g>
<!-- 15&#45;&gt;16 -->
<g id="edge15" class="edge">
<title>15&#45;&gt;16</title>
<path fill="none" stroke="#888888" d="M1044,-461.67C1044,-453.39 1044,-444.83 1044,-436.38"/>
<polygon fill="#888888" stroke="#888888" points="1047.5,-436.18 1044,-426.18 1040.5,-436.18 1047.5,-436.18"/>
</g>
<!-- 21 -->
<g id="node17" class="node">
<title>21</title>
<text text-anchor="start" x="1329" y="-407.8" font-family="Arial" font-weight="bold" font-size="14.00"> ≥ 91.9</text>
<text text-anchor="start" x="1278" y="-363.3" font-family="Arial" font-size="14.00"> &#160;&#160;&#160;</text>
<path fill="#ebebeb" stroke="transparent" d="M1308,-335C1308,-335 1392,-335 1392,-335 1398,-335 1404,-341 1404,-347 1404,-347 1404,-387 1404,-387 1404,-393 1398,-399 1392,-399 1392,-399 1308,-399 1308,-399 1302,-399 1296,-393 1296,-387 1296,-387 1296,-347 1296,-347 1296,-341 1302,-335 1308,-335"/>
<text text-anchor="start" x="1297" y="-396.4" font-family="Arial" font-size="2.00"> </text>
<text text-anchor="start" x="1297" y="-390.4" font-family="Arial" font-size="7.00"> &#160;21</text>
<text text-anchor="start" x="1311" y="-373.8" font-family="Arial" font-weight="bold" font-size="14.00">Mean: 97.72</text>
<text text-anchor="start" x="1326.5" y="-356.8" font-family="Arial" font-weight="bold" font-size="14.00">n = 157</text>
<text text-anchor="start" x="1348.5" y="-338.8" font-family="Arial" font-size="9.00"> </text>
<path fill="none" stroke="#333333" d="M1308,-335C1308,-335 1392,-335 1392,-335 1398,-335 1404,-341 1404,-347 1404,-347 1404,-387 1404,-387 1404,-393 1398,-399 1392,-399 1392,-399 1308,-399 1308,-399 1302,-399 1296,-393 1296,-387 1296,-387 1296,-347 1296,-347 1296,-341 1302,-335 1308,-335"/>
<text text-anchor="start" x="1406" y="-363.3" font-family="Arial" font-size="14.00"> &#160;&#160;&#160;</text>
<text text-anchor="start" x="1292.5" y="-320.8" font-family="Arial" font-weight="bold" font-size="14.00">prev_168h_inflow</text>
</g>
<!-- 15&#45;&gt;21 -->
<g id="edge16" class="edge">
<title>15&#45;&gt;21</title>
<path fill="none" stroke="#888888" d="M1122.01,-481.25C1163.67,-460.56 1215.18,-434.97 1258.7,-413.35"/>
<polygon fill="#888888" stroke="#888888" points="1260.45,-416.39 1267.85,-408.81 1257.34,-410.12 1260.45,-416.39"/>
</g>
<!-- 4 -->
<g id="node6" class="node">
<title>4</title>
<text text-anchor="start" x="191" y="-253.8" font-family="Arial" font-weight="bold" font-size="14.00"> &lt; 63.42</text>
<text text-anchor="start" x="144" y="-209.3" font-family="Arial" font-size="14.00"> &#160;&#160;&#160;</text>
<path fill="#ebebeb" stroke="transparent" d="M174,-181C174,-181 258,-181 258,-181 264,-181 270,-187 270,-193 270,-193 270,-233 270,-233 270,-239 264,-245 258,-245 258,-245 174,-245 174,-245 168,-245 162,-239 162,-233 162,-233 162,-193 162,-193 162,-187 168,-181 174,-181"/>
<text text-anchor="start" x="163" y="-242.4" font-family="Arial" font-size="2.00"> </text>
<text text-anchor="start" x="163" y="-236.4" font-family="Arial" font-size="7.00"> &#160;4</text>
<text text-anchor="start" x="177" y="-219.8" font-family="Arial" font-weight="bold" font-size="14.00">Mean: 59.17</text>
<text text-anchor="start" x="192.5" y="-202.8" font-family="Arial" font-weight="bold" font-size="14.00">n = 141</text>
<text text-anchor="start" x="214.5" y="-184.8" font-family="Arial" font-size="9.00"> </text>
<path fill="none" stroke="#333333" d="M174,-181C174,-181 258,-181 258,-181 264,-181 270,-187 270,-193 270,-193 270,-233 270,-233 270,-239 264,-245 258,-245 258,-245 174,-245 174,-245 168,-245 162,-239 162,-233 162,-233 162,-193 162,-193 162,-187 168,-181 174,-181"/>
<text text-anchor="start" x="272" y="-209.3" font-family="Arial" font-size="14.00"> &#160;&#160;&#160;</text>
<text text-anchor="start" x="158.5" y="-166.8" font-family="Arial" font-weight="bold" font-size="14.00">prev_168h_inflow</text>
</g>
<!-- 3&#45;&gt;4 -->
<g id="edge5" class="edge">
<title>3&#45;&gt;4</title>
<path fill="none" stroke="#888888" d="M320.14,-307.67C309.73,-298.3 298.9,-288.56 288.33,-279.05"/>
<polygon fill="#888888" stroke="#888888" points="290.46,-276.26 280.68,-272.18 285.78,-281.47 290.46,-276.26"/>
</g>
<!-- 7 -->
<g id="node7" class="node">
<title>7</title>
<text text-anchor="start" x="360.5" y="-253.8" font-family="Arial" font-weight="bold" font-size="14.00"> ≥ 63.42</text>
<path fill="#f8766d" fill-opacity="0.796078" stroke="transparent" d="M340,-181C340,-181 430,-181 430,-181 436,-181 442,-187 442,-193 442,-193 442,-233 442,-233 442,-239 436,-245 430,-245 430,-245 340,-245 340,-245 334,-245 328,-239 328,-233 328,-233 328,-193 328,-193 328,-187 334,-181 340,-181"/>
<text text-anchor="start" x="329" y="-242.4" font-family="Arial" font-size="2.00"> </text>
<text text-anchor="start" x="329" y="-236.4" font-family="Arial" font-size="7.00"> &#160;7</text>
<text text-anchor="start" x="343" y="-219.8" font-family="Arial" font-weight="bold" font-size="14.00">Predict 65.27</text>
<text text-anchor="start" x="365" y="-202.8" font-family="Arial" font-weight="bold" font-size="14.00">n = 35</text>
<text text-anchor="start" x="383.5" y="-184.8" font-family="Arial" font-size="9.00"> </text>
<path fill="none" stroke="#333333" d="M340,-181C340,-181 430,-181 430,-181 436,-181 442,-187 442,-193 442,-193 442,-233 442,-233 442,-239 436,-245 430,-245 430,-245 340,-245 340,-245 334,-245 328,-239 328,-233 328,-233 328,-193 328,-193 328,-187 334,-181 340,-181"/>
<text text-anchor="start" x="383" y="-166.8" font-family="Arial" font-weight="bold" font-size="14.00"> </text>
</g>
<!-- 3&#45;&gt;7 -->
<g id="edge6" class="edge">
<title>3&#45;&gt;7</title>
<path fill="none" stroke="#888888" d="M385,-307.67C385,-299.39 385,-290.83 385,-282.38"/>
<polygon fill="#888888" stroke="#888888" points="388.5,-282.18 385,-272.18 381.5,-282.18 388.5,-282.18"/>
</g>
<!-- 9 -->
<g id="node10" class="node">
<title>9</title>
<text text-anchor="start" x="513" y="-253.8" font-family="Arial" font-weight="bold" font-size="14.00"> &lt; 78.46</text>
<path fill="#ebebeb" stroke="transparent" d="M496,-181C496,-181 580,-181 580,-181 586,-181 592,-187 592,-193 592,-193 592,-233 592,-233 592,-239 586,-245 580,-245 580,-245 496,-245 496,-245 490,-245 484,-239 484,-233 484,-233 484,-193 484,-193 484,-187 490,-181 496,-181"/>
<text text-anchor="start" x="485" y="-242.4" font-family="Arial" font-size="2.00"> </text>
<text text-anchor="start" x="485" y="-236.4" font-family="Arial" font-size="7.00"> &#160;9</text>
<text text-anchor="start" x="499" y="-219.8" font-family="Arial" font-weight="bold" font-size="14.00">Mean: 74.48</text>
<text text-anchor="start" x="518" y="-202.8" font-family="Arial" font-weight="bold" font-size="14.00">n = 63</text>
<text text-anchor="start" x="536.5" y="-184.8" font-family="Arial" font-size="9.00"> </text>
<path fill="none" stroke="#333333" d="M496,-181C496,-181 580,-181 580,-181 586,-181 592,-187 592,-193 592,-193 592,-233 592,-233 592,-239 586,-245 580,-245 580,-245 496,-245 496,-245 490,-245 484,-239 484,-233 484,-233 484,-193 484,-193 484,-187 490,-181 496,-181"/>
<text text-anchor="start" x="523.5" y="-166.8" font-family="Arial" font-weight="bold" font-size="14.00">time</text>
</g>
<!-- 8&#45;&gt;9 -->
<g id="edge9" class="edge">
<title>8&#45;&gt;9</title>
<path fill="none" stroke="#888888" d="M598.39,-307.67C592.71,-298.85 586.8,-289.69 581.01,-280.71"/>
<polygon fill="#888888" stroke="#888888" points="583.87,-278.68 575.51,-272.18 577.99,-282.48 583.87,-278.68"/>
</g>
<!-- 12 -->
<g id="node11" class="node">
<title>12</title>
<text text-anchor="start" x="679.5" y="-253.8" font-family="Arial" font-weight="bold" font-size="14.00"> ≥ 78.46</text>
<text text-anchor="start" x="632" y="-209.3" font-family="Arial" font-size="14.00"> &#160;&#160;&#160;</text>
<path fill="#ebebeb" stroke="transparent" d="M662,-181C662,-181 746,-181 746,-181 752,-181 758,-187 758,-193 758,-193 758,-233 758,-233 758,-239 752,-245 746,-245 746,-245 662,-245 662,-245 656,-245 650,-239 650,-233 650,-233 650,-193 650,-193 650,-187 656,-181 662,-181"/>
<text text-anchor="start" x="651" y="-242.4" font-family="Arial" font-size="2.00"> </text>
<text text-anchor="start" x="651" y="-236.4" font-family="Arial" font-size="7.00"> &#160;12</text>
<text text-anchor="start" x="665" y="-219.8" font-family="Arial" font-weight="bold" font-size="14.00">Mean: 81.22</text>
<text text-anchor="start" x="684" y="-202.8" font-family="Arial" font-weight="bold" font-size="14.00">n = 67</text>
<text text-anchor="start" x="702.5" y="-184.8" font-family="Arial" font-size="9.00"> </text>
<path fill="none" stroke="#333333" d="M662,-181C662,-181 746,-181 746,-181 752,-181 758,-187 758,-193 758,-193 758,-233 758,-233 758,-239 752,-245 746,-245 746,-245 662,-245 662,-245 656,-245 650,-239 650,-233 650,-233 650,-193 650,-193 650,-187 656,-181 662,-181"/>
<text text-anchor="start" x="760" y="-209.3" font-family="Arial" font-size="14.00"> &#160;&#160;&#160;</text>
<text text-anchor="start" x="646.5" y="-166.8" font-family="Arial" font-weight="bold" font-size="14.00">prev_168h_inflow</text>
</g>
<!-- 8&#45;&gt;12 -->
<g id="edge10" class="edge">
<title>8&#45;&gt;12</title>
<path fill="none" stroke="#888888" d="M662.1,-307.67C665.92,-299.12 669.88,-290.26 673.78,-281.55"/>
<polygon fill="#888888" stroke="#888888" points="677.08,-282.73 677.97,-272.18 670.7,-279.88 677.08,-282.73"/>
</g>
<!-- 5 -->
<g id="node8" class="node">
<title>5</title>
<text text-anchor="start" x="44" y="-99.8" font-family="Arial" font-weight="bold" font-size="14.00"> &lt; 60.18</text>
<path fill="#f8766d" fill-opacity="0.874510" stroke="transparent" d="M24,-27C24,-27 114,-27 114,-27 120,-27 126,-33 126,-39 126,-39 126,-79 126,-79 126,-85 120,-91 114,-91 114,-91 24,-91 24,-91 18,-91 12,-85 12,-79 12,-79 12,-39 12,-39 12,-33 18,-27 24,-27"/>
<text text-anchor="start" x="13" y="-88.4" font-family="Arial" font-size="2.00"> </text>
<text text-anchor="start" x="13" y="-82.4" font-family="Arial" font-size="7.00"> &#160;5</text>
<text text-anchor="start" x="27" y="-65.8" font-family="Arial" font-weight="bold" font-size="14.00">Predict 58.33</text>
<text text-anchor="start" x="49" y="-48.8" font-family="Arial" font-weight="bold" font-size="14.00">n = 92</text>
<text text-anchor="start" x="67.5" y="-30.8" font-family="Arial" font-size="9.00"> </text>
<path fill="none" stroke="#333333" d="M24,-27C24,-27 114,-27 114,-27 120,-27 126,-33 126,-39 126,-39 126,-79 126,-79 126,-85 120,-91 114,-91 114,-91 24,-91 24,-91 18,-91 12,-85 12,-79 12,-79 12,-39 12,-39 12,-33 18,-27 24,-27"/>
<text text-anchor="start" x="67" y="-12.8" font-family="Arial" font-weight="bold" font-size="14.00"> </text>
</g>
<!-- 4&#45;&gt;5 -->
<g id="edge7" class="edge">
<title>4&#45;&gt;5</title>
<path fill="none" stroke="#888888" d="M159.59,-153.67C150.71,-144.49 141.47,-134.94 132.45,-125.6"/>
<polygon fill="#888888" stroke="#888888" points="134.73,-122.93 125.26,-118.18 129.7,-127.8 134.73,-122.93"/>
</g>
<!-- 6 -->
<g id="node9" class="node">
<title>6</title>
<text text-anchor="start" x="200.5" y="-99.8" font-family="Arial" font-weight="bold" font-size="14.00"> ≥ 60.18</text>
<path fill="#f8766d" fill-opacity="0.847059" stroke="transparent" d="M180,-27C180,-27 270,-27 270,-27 276,-27 282,-33 282,-39 282,-39 282,-79 282,-79 282,-85 276,-91 270,-91 270,-91 180,-91 180,-91 174,-91 168,-85 168,-79 168,-79 168,-39 168,-39 168,-33 174,-27 180,-27"/>
<text text-anchor="start" x="169" y="-88.4" font-family="Arial" font-size="2.00"> </text>
<text text-anchor="start" x="169" y="-82.4" font-family="Arial" font-size="7.00"> &#160;6</text>
<text text-anchor="start" x="183" y="-65.8" font-family="Arial" font-weight="bold" font-size="14.00">Predict 60.75</text>
<text text-anchor="start" x="205" y="-48.8" font-family="Arial" font-weight="bold" font-size="14.00">n = 49</text>
<text text-anchor="start" x="223.5" y="-30.8" font-family="Arial" font-size="9.00"> </text>
<path fill="none" stroke="#333333" d="M180,-27C180,-27 270,-27 270,-27 276,-27 282,-33 282,-39 282,-39 282,-79 282,-79 282,-85 276,-91 270,-91 270,-91 180,-91 180,-91 174,-91 168,-85 168,-79 168,-79 168,-39 168,-39 168,-33 174,-27 180,-27"/>
<text text-anchor="start" x="223" y="-12.8" font-family="Arial" font-weight="bold" font-size="14.00"> </text>
</g>
<!-- 4&#45;&gt;6 -->
<g id="edge8" class="edge">
<title>4&#45;&gt;6</title>
<path fill="none" stroke="#888888" d="M219.45,-153.67C219.94,-145.39 220.45,-136.83 220.95,-128.38"/>
<polygon fill="#888888" stroke="#888888" points="224.46,-128.37 221.56,-118.18 217.47,-127.95 224.46,-128.37"/>
</g>
<!-- 10 -->
<g id="node12" class="node">
<title>10</title>
<text text-anchor="start" x="364.5" y="-99.8" font-family="Arial" font-weight="bold" font-size="14.00"> &lt; 22.5</text>
<path fill="#f8766d" fill-opacity="0.670588" stroke="transparent" d="M345,-27C345,-27 427,-27 427,-27 433,-27 439,-33 439,-39 439,-39 439,-79 439,-79 439,-85 433,-91 427,-91 427,-91 345,-91 345,-91 339,-91 333,-85 333,-79 333,-79 333,-39 333,-39 333,-33 339,-27 345,-27"/>
<text text-anchor="start" x="334" y="-88.4" font-family="Arial" font-size="2.00"> </text>
<text text-anchor="start" x="334" y="-82.4" font-family="Arial" font-size="7.00"> &#160;10</text>
<text text-anchor="start" x="348" y="-65.8" font-family="Arial" font-weight="bold" font-size="14.00">Predict 76.3</text>
<text text-anchor="start" x="366" y="-48.8" font-family="Arial" font-weight="bold" font-size="14.00">n = 35</text>
<text text-anchor="start" x="384.5" y="-30.8" font-family="Arial" font-size="9.00"> </text>
<path fill="none" stroke="#333333" d="M345,-27C345,-27 427,-27 427,-27 433,-27 439,-33 439,-39 439,-39 439,-79 439,-79 439,-85 433,-91 427,-91 427,-91 345,-91 345,-91 339,-91 333,-85 333,-79 333,-79 333,-39 333,-39 333,-33 339,-27 345,-27"/>
<text text-anchor="start" x="384" y="-12.8" font-family="Arial" font-weight="bold" font-size="14.00"> </text>
</g>
<!-- 9&#45;&gt;10 -->
<g id="edge11" class="edge">
<title>9&#45;&gt;10</title>
<path fill="none" stroke="#888888" d="M479.67,-153.67C470.39,-144.39 460.75,-134.75 451.33,-125.33"/>
<polygon fill="#888888" stroke="#888888" points="453.72,-122.77 444.18,-118.18 448.77,-127.72 453.72,-122.77"/>
</g>
<!-- 11 -->
<g id="node13" class="node">
<title>11</title>
<text text-anchor="start" x="517" y="-99.8" font-family="Arial" font-weight="bold" font-size="14.00"> ≥ 22.5</text>
<path fill="#f8766d" fill-opacity="0.717647" stroke="transparent" d="M493,-27C493,-27 583,-27 583,-27 589,-27 595,-33 595,-39 595,-39 595,-79 595,-79 595,-85 589,-91 583,-91 583,-91 493,-91 493,-91 487,-91 481,-85 481,-79 481,-79 481,-39 481,-39 481,-33 487,-27 493,-27"/>
<text text-anchor="start" x="482" y="-88.4" font-family="Arial" font-size="2.00"> </text>
<text text-anchor="start" x="482" y="-82.4" font-family="Arial" font-size="7.00"> &#160;11</text>
<text text-anchor="start" x="496" y="-65.8" font-family="Arial" font-weight="bold" font-size="14.00">Predict 72.19</text>
<text text-anchor="start" x="518" y="-48.8" font-family="Arial" font-weight="bold" font-size="14.00">n = 28</text>
<text text-anchor="start" x="536.5" y="-30.8" font-family="Arial" font-size="9.00"> </text>
<path fill="none" stroke="#333333" d="M493,-27C493,-27 583,-27 583,-27 589,-27 595,-33 595,-39 595,-39 595,-79 595,-79 595,-85 589,-91 583,-91 583,-91 493,-91 493,-91 487,-91 481,-85 481,-79 481,-79 481,-39 481,-39 481,-33 487,-27 493,-27"/>
<text text-anchor="start" x="536" y="-12.8" font-family="Arial" font-weight="bold" font-size="14.00"> </text>
</g>
<!-- 9&#45;&gt;11 -->
<g id="edge12" class="edge">
<title>9&#45;&gt;11</title>
<path fill="none" stroke="#888888" d="M538,-153.67C538,-145.39 538,-136.83 538,-128.38"/>
<polygon fill="#888888" stroke="#888888" points="541.5,-128.18 538,-118.18 534.5,-128.18 541.5,-128.18"/>
</g>
<!-- 13 -->
<g id="node14" class="node">
<title>13</title>
<text text-anchor="start" x="672.5" y="-99.8" font-family="Arial" font-weight="bold" font-size="14.00"> &lt; 80.5</text>
<path fill="#f8766d" fill-opacity="0.643137" stroke="transparent" d="M649,-27C649,-27 739,-27 739,-27 745,-27 751,-33 751,-39 751,-39 751,-79 751,-79 751,-85 745,-91 739,-91 739,-91 649,-91 649,-91 643,-91 637,-85 637,-79 637,-79 637,-39 637,-39 637,-33 643,-27 649,-27"/>
<text text-anchor="start" x="638" y="-88.4" font-family="Arial" font-size="2.00"> </text>
<text text-anchor="start" x="638" y="-82.4" font-family="Arial" font-size="7.00"> &#160;13</text>
<text text-anchor="start" x="652" y="-65.8" font-family="Arial" font-weight="bold" font-size="14.00">Predict 78.94</text>
<text text-anchor="start" x="674" y="-48.8" font-family="Arial" font-weight="bold" font-size="14.00">n = 21</text>
<text text-anchor="start" x="692.5" y="-30.8" font-family="Arial" font-size="9.00"> </text>
<path fill="none" stroke="#333333" d="M649,-27C649,-27 739,-27 739,-27 745,-27 751,-33 751,-39 751,-39 751,-79 751,-79 751,-85 745,-91 739,-91 739,-91 649,-91 649,-91 643,-91 637,-85 637,-79 637,-79 637,-39 637,-39 637,-33 643,-27 649,-27"/>
<text text-anchor="start" x="692" y="-12.8" font-family="Arial" font-weight="bold" font-size="14.00"> </text>
</g>
<!-- 12&#45;&gt;13 -->
<g id="edge13" class="edge">
<title>12&#45;&gt;13</title>
<path fill="none" stroke="#888888" d="M700.16,-153.67C699.62,-145.39 699.05,-136.83 698.5,-128.38"/>
<polygon fill="#888888" stroke="#888888" points="701.98,-127.92 697.83,-118.18 694.99,-128.38 701.98,-127.92"/>
</g>
<!-- 14 -->
<g id="node15" class="node">
<title>14</title>
<text text-anchor="start" x="829" y="-99.8" font-family="Arial" font-weight="bold" font-size="14.00"> ≥ 80.5</text>
<path fill="#f8766d" fill-opacity="0.603922" stroke="transparent" d="M805,-27C805,-27 895,-27 895,-27 901,-27 907,-33 907,-39 907,-39 907,-79 907,-79 907,-85 901,-91 895,-91 895,-91 805,-91 805,-91 799,-91 793,-85 793,-79 793,-79 793,-39 793,-39 793,-33 799,-27 805,-27"/>
<text text-anchor="start" x="794" y="-88.4" font-family="Arial" font-size="2.00"> </text>
<text text-anchor="start" x="794" y="-82.4" font-family="Arial" font-size="7.00"> &#160;14</text>
<text text-anchor="start" x="808" y="-65.8" font-family="Arial" font-weight="bold" font-size="14.00">Predict 82.26</text>
<text text-anchor="start" x="830" y="-48.8" font-family="Arial" font-weight="bold" font-size="14.00">n = 46</text>
<text text-anchor="start" x="848.5" y="-30.8" font-family="Arial" font-size="9.00"> </text>
<path fill="none" stroke="#333333" d="M805,-27C805,-27 895,-27 895,-27 901,-27 907,-33 907,-39 907,-39 907,-79 907,-79 907,-85 901,-91 895,-91 895,-91 805,-91 805,-91 799,-91 793,-85 793,-79 793,-79 793,-39 793,-39 793,-33 799,-27 805,-27"/>
<text text-anchor="start" x="848" y="-12.8" font-family="Arial" font-weight="bold" font-size="14.00"> </text>
</g>
<!-- 12&#45;&gt;14 -->
<g id="edge14" class="edge">
<title>12&#45;&gt;14</title>
<path fill="none" stroke="#888888" d="M760.03,-153.67C768.85,-144.49 778.02,-134.94 786.98,-125.6"/>
<polygon fill="#888888" stroke="#888888" points="789.72,-127.81 794.12,-118.18 784.67,-122.96 789.72,-127.81"/>
</g>
<!-- 17 -->
<g id="node18" class="node">
<title>17</title>
<text text-anchor="start" x="935" y="-253.8" font-family="Arial" font-weight="bold" font-size="14.00"> &lt; 86.59</text>
<path fill="#f8766d" fill-opacity="0.576471" stroke="transparent" d="M915,-181C915,-181 1005,-181 1005,-181 1011,-181 1017,-187 1017,-193 1017,-193 1017,-233 1017,-233 1017,-239 1011,-245 1005,-245 1005,-245 915,-245 915,-245 909,-245 903,-239 903,-233 903,-233 903,-193 903,-193 903,-187 909,-181 915,-181"/>
<text text-anchor="start" x="904" y="-242.4" font-family="Arial" font-size="2.00"> </text>
<text text-anchor="start" x="904" y="-236.4" font-family="Arial" font-size="7.00"> &#160;17</text>
<text text-anchor="start" x="918" y="-219.8" font-family="Arial" font-weight="bold" font-size="14.00">Predict 84.78</text>
<text text-anchor="start" x="940" y="-202.8" font-family="Arial" font-weight="bold" font-size="14.00">n = 69</text>
<text text-anchor="start" x="958.5" y="-184.8" font-family="Arial" font-size="9.00"> </text>
<path fill="none" stroke="#333333" d="M915,-181C915,-181 1005,-181 1005,-181 1011,-181 1017,-187 1017,-193 1017,-193 1017,-233 1017,-233 1017,-239 1011,-245 1005,-245 1005,-245 915,-245 915,-245 909,-245 903,-239 903,-233 903,-233 903,-193 903,-193 903,-187 909,-181 915,-181"/>
<text text-anchor="start" x="958" y="-166.8" font-family="Arial" font-weight="bold" font-size="14.00"> </text>
</g>
<!-- 16&#45;&gt;17 -->
<g id="edge17" class="edge">
<title>16&#45;&gt;17</title>
<path fill="none" stroke="#888888" d="M1011.76,-307.67C1006.94,-298.94 1001.94,-289.88 997.02,-280.99"/>
<polygon fill="#888888" stroke="#888888" points="1000.05,-279.24 992.15,-272.18 993.92,-282.62 1000.05,-279.24"/>
</g>
<!-- 18 -->
<g id="node19" class="node">
<title>18</title>
<text text-anchor="start" x="1104.5" y="-253.8" font-family="Arial" font-weight="bold" font-size="14.00"> ≥ 86.59</text>
<text text-anchor="start" x="1057" y="-209.3" font-family="Arial" font-size="14.00"> &#160;&#160;&#160;</text>
<path fill="#ebebeb" stroke="transparent" d="M1087,-181C1087,-181 1171,-181 1171,-181 1177,-181 1183,-187 1183,-193 1183,-193 1183,-233 1183,-233 1183,-239 1177,-245 1171,-245 1171,-245 1087,-245 1087,-245 1081,-245 1075,-239 1075,-233 1075,-233 1075,-193 1075,-193 1075,-187 1081,-181 1087,-181"/>
<text text-anchor="start" x="1076" y="-242.4" font-family="Arial" font-size="2.00"> </text>
<text text-anchor="start" x="1076" y="-236.4" font-family="Arial" font-size="7.00"> &#160;18</text>
<text text-anchor="start" x="1090" y="-219.8" font-family="Arial" font-weight="bold" font-size="14.00">Mean: 88.61</text>
<text text-anchor="start" x="1105.5" y="-202.8" font-family="Arial" font-weight="bold" font-size="14.00">n = 140</text>
<text text-anchor="start" x="1127.5" y="-184.8" font-family="Arial" font-size="9.00"> </text>
<path fill="none" stroke="#333333" d="M1087,-181C1087,-181 1171,-181 1171,-181 1177,-181 1183,-187 1183,-193 1183,-193 1183,-233 1183,-233 1183,-239 1177,-245 1171,-245 1171,-245 1087,-245 1087,-245 1081,-245 1075,-239 1075,-233 1075,-233 1075,-193 1075,-193 1075,-187 1081,-181 1087,-181"/>
<text text-anchor="start" x="1185" y="-209.3" font-family="Arial" font-size="14.00"> &#160;&#160;&#160;</text>
<text text-anchor="start" x="1071.5" y="-166.8" font-family="Arial" font-weight="bold" font-size="14.00">prev_168h_inflow</text>
</g>
<!-- 16&#45;&gt;18 -->
<g id="edge18" class="edge">
<title>16&#45;&gt;18</title>
<path fill="none" stroke="#888888" d="M1076.62,-307.67C1081.5,-298.94 1086.57,-289.88 1091.54,-280.99"/>
<polygon fill="#888888" stroke="#888888" points="1094.64,-282.61 1096.47,-272.18 1088.53,-279.2 1094.64,-282.61"/>
</g>
<!-- 22 -->
<g id="node22" class="node">
<title>22</title>
<text text-anchor="start" x="1325" y="-253.8" font-family="Arial" font-weight="bold" font-size="14.00"> &lt; 95.23</text>
<path fill="#ebebeb" stroke="transparent" d="M1308,-181C1308,-181 1392,-181 1392,-181 1398,-181 1404,-187 1404,-193 1404,-193 1404,-233 1404,-233 1404,-239 1398,-245 1392,-245 1392,-245 1308,-245 1308,-245 1302,-245 1296,-239 1296,-233 1296,-233 1296,-193 1296,-193 1296,-187 1302,-181 1308,-181"/>
<text text-anchor="start" x="1297" y="-242.4" font-family="Arial" font-size="2.00"> </text>
<text text-anchor="start" x="1297" y="-236.4" font-family="Arial" font-size="7.00"> &#160;22</text>
<text text-anchor="start" x="1311" y="-219.8" font-family="Arial" font-weight="bold" font-size="14.00">Mean: 93.59</text>
<text text-anchor="start" x="1330" y="-202.8" font-family="Arial" font-weight="bold" font-size="14.00">n = 53</text>
<text text-anchor="start" x="1348.5" y="-184.8" font-family="Arial" font-size="9.00"> </text>
<path fill="none" stroke="#333333" d="M1308,-181C1308,-181 1392,-181 1392,-181 1398,-181 1404,-187 1404,-193 1404,-193 1404,-233 1404,-233 1404,-239 1398,-245 1392,-245 1392,-245 1308,-245 1308,-245 1302,-245 1296,-239 1296,-233 1296,-233 1296,-193 1296,-193 1296,-187 1302,-181 1308,-181"/>
<text text-anchor="start" x="1335.5" y="-166.8" font-family="Arial" font-weight="bold" font-size="14.00">time</text>
</g>
<!-- 21&#45;&gt;22 -->
<g id="edge21" class="edge">
<title>21&#45;&gt;22</title>
<path fill="none" stroke="#888888" d="M1350,-307.67C1350,-299.39 1350,-290.83 1350,-282.38"/>
<polygon fill="#888888" stroke="#888888" points="1353.5,-282.18 1350,-272.18 1346.5,-282.18 1353.5,-282.18"/>
</g>
<!-- 25 -->
<g id="node23" class="node">
<title>25</title>
<text text-anchor="start" x="1605.5" y="-253.8" font-family="Arial" font-weight="bold" font-size="14.00"> ≥ 95.23</text>
<text text-anchor="start" x="1558" y="-209.3" font-family="Arial" font-size="14.00"> &#160;&#160;&#160;</text>
<path fill="#ebebeb" stroke="transparent" d="M1588,-181C1588,-181 1672,-181 1672,-181 1678,-181 1684,-187 1684,-193 1684,-193 1684,-233 1684,-233 1684,-239 1678,-245 1672,-245 1672,-245 1588,-245 1588,-245 1582,-245 1576,-239 1576,-233 1576,-233 1576,-193 1576,-193 1576,-187 1582,-181 1588,-181"/>
<text text-anchor="start" x="1577" y="-242.4" font-family="Arial" font-size="2.00"> </text>
<text text-anchor="start" x="1577" y="-236.4" font-family="Arial" font-size="7.00"> &#160;25</text>
<text text-anchor="start" x="1591" y="-219.8" font-family="Arial" font-weight="bold" font-size="14.00">Mean: 99.83</text>
<text text-anchor="start" x="1606.5" y="-202.8" font-family="Arial" font-weight="bold" font-size="14.00">n = 104</text>
<text text-anchor="start" x="1628.5" y="-184.8" font-family="Arial" font-size="9.00"> </text>
<path fill="none" stroke="#333333" d="M1588,-181C1588,-181 1672,-181 1672,-181 1678,-181 1684,-187 1684,-193 1684,-193 1684,-233 1684,-233 1684,-239 1678,-245 1672,-245 1672,-245 1588,-245 1588,-245 1582,-245 1576,-239 1576,-233 1576,-233 1576,-193 1576,-193 1576,-187 1582,-181 1588,-181"/>
<text text-anchor="start" x="1686" y="-209.3" font-family="Arial" font-size="14.00"> &#160;&#160;&#160;</text>
<text text-anchor="start" x="1572.5" y="-166.8" font-family="Arial" font-weight="bold" font-size="14.00">prev_168h_inflow</text>
</g>
<!-- 21&#45;&gt;25 -->
<g id="edge22" class="edge">
<title>21&#45;&gt;25</title>
<path fill="none" stroke="#888888" d="M1432.12,-321.42C1465.59,-303.25 1504.43,-282.17 1538.79,-263.52"/>
<polygon fill="#888888" stroke="#888888" points="1540.77,-266.42 1547.88,-258.58 1537.43,-260.27 1540.77,-266.42"/>
</g>
<!-- 19 -->
<g id="node20" class="node">
<title>19</title>
<text text-anchor="start" x="981" y="-99.8" font-family="Arial" font-weight="bold" font-size="14.00"> &lt; 89.07</text>
<path fill="#f8766d" fill-opacity="0.541176" stroke="transparent" d="M961,-27C961,-27 1051,-27 1051,-27 1057,-27 1063,-33 1063,-39 1063,-39 1063,-79 1063,-79 1063,-85 1057,-91 1051,-91 1051,-91 961,-91 961,-91 955,-91 949,-85 949,-79 949,-79 949,-39 949,-39 949,-33 955,-27 961,-27"/>
<text text-anchor="start" x="950" y="-88.4" font-family="Arial" font-size="2.00"> </text>
<text text-anchor="start" x="950" y="-82.4" font-family="Arial" font-size="7.00"> &#160;19</text>
<text text-anchor="start" x="964" y="-65.8" font-family="Arial" font-weight="bold" font-size="14.00">Predict 87.76</text>
<text text-anchor="start" x="986" y="-48.8" font-family="Arial" font-weight="bold" font-size="14.00">n = 67</text>
<text text-anchor="start" x="1004.5" y="-30.8" font-family="Arial" font-size="9.00"> </text>
<path fill="none" stroke="#333333" d="M961,-27C961,-27 1051,-27 1051,-27 1057,-27 1063,-33 1063,-39 1063,-39 1063,-79 1063,-79 1063,-85 1057,-91 1051,-91 1051,-91 961,-91 961,-91 955,-91 949,-85 949,-79 949,-79 949,-39 949,-39 949,-33 955,-27 961,-27"/>
<text text-anchor="start" x="1004" y="-12.8" font-family="Arial" font-weight="bold" font-size="14.00"> </text>
</g>
<!-- 18&#45;&gt;19 -->
<g id="edge19" class="edge">
<title>18&#45;&gt;19</title>
<path fill="none" stroke="#888888" d="M1081.8,-153.67C1074.51,-144.67 1066.95,-135.32 1059.54,-126.16"/>
<polygon fill="#888888" stroke="#888888" points="1062.09,-123.75 1053.08,-118.18 1056.65,-128.15 1062.09,-123.75"/>
</g>
<!-- 20 -->
<g id="node21" class="node">
<title>20</title>
<text text-anchor="start" x="1137.5" y="-99.8" font-family="Arial" font-weight="bold" font-size="14.00"> ≥ 89.07</text>
<path fill="#f8766d" fill-opacity="0.525490" stroke="transparent" d="M1117,-27C1117,-27 1207,-27 1207,-27 1213,-27 1219,-33 1219,-39 1219,-39 1219,-79 1219,-79 1219,-85 1213,-91 1207,-91 1207,-91 1117,-91 1117,-91 1111,-91 1105,-85 1105,-79 1105,-79 1105,-39 1105,-39 1105,-33 1111,-27 1117,-27"/>
<text text-anchor="start" x="1106" y="-88.4" font-family="Arial" font-size="2.00"> </text>
<text text-anchor="start" x="1106" y="-82.4" font-family="Arial" font-size="7.00"> &#160;20</text>
<text text-anchor="start" x="1120" y="-65.8" font-family="Arial" font-weight="bold" font-size="14.00">Predict 89.38</text>
<text text-anchor="start" x="1142" y="-48.8" font-family="Arial" font-weight="bold" font-size="14.00">n = 73</text>
<text text-anchor="start" x="1160.5" y="-30.8" font-family="Arial" font-size="9.00"> </text>
<path fill="none" stroke="#333333" d="M1117,-27C1117,-27 1207,-27 1207,-27 1213,-27 1219,-33 1219,-39 1219,-39 1219,-79 1219,-79 1219,-85 1213,-91 1207,-91 1207,-91 1117,-91 1117,-91 1111,-91 1105,-85 1105,-79 1105,-79 1105,-39 1105,-39 1105,-33 1111,-27 1117,-27"/>
<text text-anchor="start" x="1160" y="-12.8" font-family="Arial" font-weight="bold" font-size="14.00"> </text>
</g>
<!-- 18&#45;&gt;20 -->
<g id="edge20" class="edge">
<title>18&#45;&gt;20</title>
<path fill="none" stroke="#888888" d="M1141.66,-153.67C1143.48,-145.3 1145.36,-136.64 1147.21,-128.1"/>
<polygon fill="#888888" stroke="#888888" points="1150.67,-128.69 1149.37,-118.18 1143.83,-127.21 1150.67,-128.69"/>
</g>
<!-- 23 -->
<g id="node24" class="node">
<title>23</title>
<text text-anchor="start" x="1300.5" y="-99.8" font-family="Arial" font-weight="bold" font-size="14.00"> &lt; 8.5</text>
<path fill="#f8766d" fill-opacity="0.384314" stroke="transparent" d="M1273,-27C1273,-27 1363,-27 1363,-27 1369,-27 1375,-33 1375,-39 1375,-39 1375,-79 1375,-79 1375,-85 1369,-91 1363,-91 1363,-91 1273,-91 1273,-91 1267,-91 1261,-85 1261,-79 1261,-79 1261,-39 1261,-39 1261,-33 1267,-27 1273,-27"/>
<text text-anchor="start" x="1262" y="-88.4" font-family="Arial" font-size="2.00"> </text>
<text text-anchor="start" x="1262" y="-82.4" font-family="Arial" font-size="7.00"> &#160;23</text>
<text text-anchor="start" x="1276" y="-65.8" font-family="Arial" font-weight="bold" font-size="14.00">Predict 101.6</text>
<text text-anchor="start" x="1302" y="-48.8" font-family="Arial" font-weight="bold" font-size="14.00">n = 4</text>
<text text-anchor="start" x="1316.5" y="-30.8" font-family="Arial" font-size="9.00"> </text>
<path fill="none" stroke="#333333" d="M1273,-27C1273,-27 1363,-27 1363,-27 1369,-27 1375,-33 1375,-39 1375,-39 1375,-79 1375,-79 1375,-85 1369,-91 1363,-91 1363,-91 1273,-91 1273,-91 1267,-91 1261,-85 1261,-79 1261,-79 1261,-39 1261,-39 1261,-33 1267,-27 1273,-27"/>
<text text-anchor="start" x="1316" y="-12.8" font-family="Arial" font-weight="bold" font-size="14.00"> </text>
</g>
<!-- 22&#45;&gt;23 -->
<g id="edge23" class="edge">
<title>22&#45;&gt;23</title>
<path fill="none" stroke="#888888" d="M1337.72,-153.67C1335.96,-145.3 1334.13,-136.64 1332.34,-128.1"/>
<polygon fill="#888888" stroke="#888888" points="1335.73,-127.24 1330.25,-118.18 1328.88,-128.68 1335.73,-127.24"/>
</g>
<!-- 24 -->
<g id="node25" class="node">
<title>24</title>
<text text-anchor="start" x="1457" y="-99.8" font-family="Arial" font-weight="bold" font-size="14.00"> ≥ 8.5</text>
<path fill="#f8766d" fill-opacity="0.482353" stroke="transparent" d="M1429,-27C1429,-27 1519,-27 1519,-27 1525,-27 1531,-33 1531,-39 1531,-39 1531,-79 1531,-79 1531,-85 1525,-91 1519,-91 1519,-91 1429,-91 1429,-91 1423,-91 1417,-85 1417,-79 1417,-79 1417,-39 1417,-39 1417,-33 1423,-27 1429,-27"/>
<text text-anchor="start" x="1418" y="-88.4" font-family="Arial" font-size="2.00"> </text>
<text text-anchor="start" x="1418" y="-82.4" font-family="Arial" font-size="7.00"> &#160;24</text>
<text text-anchor="start" x="1432" y="-65.8" font-family="Arial" font-weight="bold" font-size="14.00">Predict 92.94</text>
<text text-anchor="start" x="1454" y="-48.8" font-family="Arial" font-weight="bold" font-size="14.00">n = 49</text>
<text text-anchor="start" x="1472.5" y="-30.8" font-family="Arial" font-size="9.00"> </text>
<path fill="none" stroke="#333333" d="M1429,-27C1429,-27 1519,-27 1519,-27 1525,-27 1531,-33 1531,-39 1531,-39 1531,-79 1531,-79 1531,-85 1525,-91 1519,-91 1519,-91 1429,-91 1429,-91 1423,-91 1417,-85 1417,-79 1417,-79 1417,-39 1417,-39 1417,-33 1423,-27 1429,-27"/>
<text text-anchor="start" x="1472" y="-12.8" font-family="Arial" font-weight="bold" font-size="14.00"> </text>
</g>
<!-- 22&#45;&gt;24 -->
<g id="edge24" class="edge">
<title>22&#45;&gt;24</title>
<path fill="none" stroke="#888888" d="M1397.59,-153.67C1404.93,-144.67 1412.56,-135.32 1420.03,-126.16"/>
<polygon fill="#888888" stroke="#888888" points="1422.93,-128.14 1426.54,-118.18 1417.51,-123.71 1422.93,-128.14"/>
</g>
<!-- 26 -->
<g id="node26" class="node">
<title>26</title>
<text text-anchor="start" x="1605.5" y="-99.8" font-family="Arial" font-weight="bold" font-size="14.00"> &lt; 99.81</text>
<path fill="#f8766d" fill-opacity="0.447059" stroke="transparent" d="M1586,-27C1586,-27 1675,-27 1675,-27 1681,-27 1687,-33 1687,-39 1687,-39 1687,-79 1687,-79 1687,-85 1681,-91 1675,-91 1675,-91 1586,-91 1586,-91 1580,-91 1574,-85 1574,-79 1574,-79 1574,-39 1574,-39 1574,-33 1580,-27 1586,-27"/>
<text text-anchor="start" x="1575" y="-88.4" font-family="Arial" font-size="2.00"> </text>
<text text-anchor="start" x="1575" y="-82.4" font-family="Arial" font-size="7.00"> &#160;26</text>
<text text-anchor="start" x="1589" y="-65.8" font-family="Arial" font-weight="bold" font-size="14.00">Predict 96.11</text>
<text text-anchor="start" x="1610.5" y="-48.8" font-family="Arial" font-weight="bold" font-size="14.00">n = 44</text>
<text text-anchor="start" x="1629" y="-30.8" font-family="Arial" font-size="9.00"> </text>
<path fill="none" stroke="#333333" d="M1586,-27C1586,-27 1675,-27 1675,-27 1681,-27 1687,-33 1687,-39 1687,-39 1687,-79 1687,-79 1687,-85 1681,-91 1675,-91 1675,-91 1586,-91 1586,-91 1580,-91 1574,-85 1574,-79 1574,-79 1574,-39 1574,-39 1574,-33 1580,-27 1586,-27"/>
<text text-anchor="start" x="1628.5" y="-12.8" font-family="Arial" font-weight="bold" font-size="14.00"> </text>
</g>
<!-- 25&#45;&gt;26 -->
<g id="edge25" class="edge">
<title>25&#45;&gt;26</title>
<path fill="none" stroke="#888888" d="M1630,-153.67C1630,-145.39 1630,-136.83 1630,-128.38"/>
<polygon fill="#888888" stroke="#888888" points="1633.5,-128.18 1630,-118.18 1626.5,-128.18 1633.5,-128.18"/>
</g>
<!-- 27 -->
<g id="node27" class="node">
<title>27</title>
<text text-anchor="start" x="1761.5" y="-99.8" font-family="Arial" font-weight="bold" font-size="14.00"> ≥ 99.81</text>
<path fill="#f8766d" fill-opacity="0.376471" stroke="transparent" d="M1741,-27C1741,-27 1831,-27 1831,-27 1837,-27 1843,-33 1843,-39 1843,-39 1843,-79 1843,-79 1843,-85 1837,-91 1831,-91 1831,-91 1741,-91 1741,-91 1735,-91 1729,-85 1729,-79 1729,-79 1729,-39 1729,-39 1729,-33 1735,-27 1741,-27"/>
<text text-anchor="start" x="1730" y="-88.4" font-family="Arial" font-size="2.00"> </text>
<text text-anchor="start" x="1730" y="-82.4" font-family="Arial" font-size="7.00"> &#160;27</text>
<text text-anchor="start" x="1744" y="-65.8" font-family="Arial" font-weight="bold" font-size="14.00">Predict 102.6</text>
<text text-anchor="start" x="1766" y="-48.8" font-family="Arial" font-weight="bold" font-size="14.00">n = 60</text>
<text text-anchor="start" x="1784.5" y="-30.8" font-family="Arial" font-size="9.00"> </text>
<path fill="none" stroke="#333333" d="M1741,-27C1741,-27 1831,-27 1831,-27 1837,-27 1843,-33 1843,-39 1843,-39 1843,-79 1843,-79 1843,-85 1837,-91 1831,-91 1831,-91 1741,-91 1741,-91 1735,-91 1729,-85 1729,-79 1729,-79 1729,-39 1729,-39 1729,-33 1735,-27 1741,-27"/>
<text text-anchor="start" x="1784" y="-12.8" font-family="Arial" font-weight="bold" font-size="14.00"> </text>
</g>
<!-- 25&#45;&gt;27 -->
<g id="edge26" class="edge">
<title>25&#45;&gt;27</title>
<path fill="none" stroke="#888888" d="M1689.87,-153.67C1699.38,-144.39 1709.28,-134.75 1718.95,-125.33"/>
<polygon fill="#888888" stroke="#888888" points="1721.57,-127.66 1726.29,-118.18 1716.69,-122.65 1721.57,-127.66"/>
</g>
</g>
</svg>
