<?xml version="1.0" encoding="UTF-8" standalone="no"?>
<!DOCTYPE svg PUBLIC "-//W3C//DTD SVG 1.1//EN"
 "http://www.w3.org/Graphics/SVG/1.1/DTD/svg11.dtd">
<!-- Generated by graphviz version 2.50.0 (20211204.2007)
 -->
<!-- Pages: 1 -->
<svg width="2923pt" height="1204pt"
 viewBox="0.00 0.00 2923.00 1204.00" xmlns="http://www.w3.org/2000/svg" xmlns:xlink="http://www.w3.org/1999/xlink">
<g id="graph0" class="graph" transform="scale(1 1) rotate(0) translate(4 1200)">
<polygon fill="white" stroke="transparent" points="-4,4 -4,-1200 2919,-1200 2919,4 -4,4"/>
<!-- 1 -->
<g id="node1" class="node">
<title>1</title>
<text text-anchor="start" x="1347" y="-1177.8" font-family="Arial" font-weight="bold" font-size="14.00"> </text>
<text text-anchor="start" x="1277" y="-1133.3" font-family="Arial" font-size="14.00"> &#160;&#160;&#160;</text>
<path fill="#ebebeb" stroke="transparent" d="M1307,-1105C1307,-1105 1391,-1105 1391,-1105 1397,-1105 1403,-1111 1403,-1117 1403,-1117 1403,-1157 1403,-1157 1403,-1163 1397,-1169 1391,-1169 1391,-1169 1307,-1169 1307,-1169 1301,-1169 1295,-1163 1295,-1157 1295,-1157 1295,-1117 1295,-1117 1295,-1111 1301,-1105 1307,-1105"/>
<text text-anchor="start" x="1296" y="-1166.4" font-family="Arial" font-size="2.00"> </text>
<text text-anchor="start" x="1296" y="-1160.4" font-family="Arial" font-size="7.00"> &#160;1</text>
<text text-anchor="start" x="1310" y="-1143.8" font-family="Arial" font-weight="bold" font-size="14.00">Mean: 7.372</text>
<text text-anchor="start" x="1325.5" y="-1126.8" font-family="Arial" font-weight="bold" font-size="14.00">n = 672</text>
<text text-anchor="start" x="1347.5" y="-1108.8" font-family="Arial" font-size="9.00"> </text>
<path fill="none" stroke="#333333" d="M1307,-1105C1307,-1105 1391,-1105 1391,-1105 1397,-1105 1403,-1111 1403,-1117 1403,-1117 1403,-1157 1403,-1157 1403,-1163 1397,-1169 1391,-1169 1391,-1169 1307,-1169 1307,-1169 1301,-1169 1295,-1163 1295,-1157 1295,-1157 1295,-1117 1295,-1117 1295,-1111 1301,-1105 1307,-1105"/>
<text text-anchor="start" x="1405" y="-1133.3" font-family="Arial" font-size="14.00"> &#160;&#160;&#160;</text>
<text text-anchor="start" x="1291.5" y="-1090.8" font-family="Arial" font-weight="bold" font-size="14.00">prev_168h_inflow</text>
</g>
<!-- 2 -->
<g id="node2" class="node">
<title>2</title>
<text text-anchor="start" x="1248" y="-1023.8" font-family="Arial" font-weight="bold" font-size="14.00"> &lt; 6.935</text>
<path fill="#ebebeb" stroke="transparent" d="M1231,-951C1231,-951 1315,-951 1315,-951 1321,-951 1327,-957 1327,-963 1327,-963 1327,-1003 1327,-1003 1327,-1009 1321,-1015 1315,-1015 1315,-1015 1231,-1015 1231,-1015 1225,-1015 1219,-1009 1219,-1003 1219,-1003 1219,-963 1219,-963 1219,-957 1225,-951 1231,-951"/>
<text text-anchor="start" x="1220" y="-1012.4" font-family="Arial" font-size="2.00"> </text>
<text text-anchor="start" x="1220" y="-1006.4" font-family="Arial" font-size="7.00"> &#160;2</text>
<text text-anchor="start" x="1234" y="-989.8" font-family="Arial" font-weight="bold" font-size="14.00">Mean: 5.245</text>
<text text-anchor="start" x="1249.5" y="-972.8" font-family="Arial" font-weight="bold" font-size="14.00">n = 263</text>
<text text-anchor="start" x="1271.5" y="-954.8" font-family="Arial" font-size="9.00"> </text>
<path fill="none" stroke="#333333" d="M1231,-951C1231,-951 1315,-951 1315,-951 1321,-951 1327,-957 1327,-963 1327,-963 1327,-1003 1327,-1003 1327,-1009 1321,-1015 1315,-1015 1315,-1015 1231,-1015 1231,-1015 1225,-1015 1219,-1009 1219,-1003 1219,-1003 1219,-963 1219,-963 1219,-957 1225,-951 1231,-951"/>
<text text-anchor="start" x="1258.5" y="-936.8" font-family="Arial" font-weight="bold" font-size="14.00">time</text>
</g>
<!-- 1&#45;&gt;2 -->
<g id="edge1" class="edge">
<title>1&#45;&gt;2</title>
<path fill="none" stroke="#888888" d="M1319.83,-1077.67C1315.52,-1069.03 1311.04,-1060.07 1306.64,-1051.27"/>
<polygon fill="#888888" stroke="#888888" points="1309.69,-1049.56 1302.09,-1042.18 1303.43,-1052.69 1309.69,-1049.56"/>
</g>
<!-- 27 -->
<g id="node3" class="node">
<title>27</title>
<text text-anchor="start" x="1562.5" y="-1023.8" font-family="Arial" font-weight="bold" font-size="14.00"> ≥ 6.935</text>
<path fill="#ebebeb" stroke="transparent" d="M1545,-951C1545,-951 1629,-951 1629,-951 1635,-951 1641,-957 1641,-963 1641,-963 1641,-1003 1641,-1003 1641,-1009 1635,-1015 1629,-1015 1629,-1015 1545,-1015 1545,-1015 1539,-1015 1533,-1009 1533,-1003 1533,-1003 1533,-963 1533,-963 1533,-957 1539,-951 1545,-951"/>
<text text-anchor="start" x="1534" y="-1012.4" font-family="Arial" font-size="2.00"> </text>
<text text-anchor="start" x="1534" y="-1006.4" font-family="Arial" font-size="7.00"> &#160;27</text>
<text text-anchor="start" x="1548" y="-989.8" font-family="Arial" font-weight="bold" font-size="14.00">Mean: 8.739</text>
<text text-anchor="start" x="1563.5" y="-972.8" font-family="Arial" font-weight="bold" font-size="14.00">n = 409</text>
<text text-anchor="start" x="1585.5" y="-954.8" font-family="Arial" font-size="9.00"> </text>
<path fill="none" stroke="#333333" d="M1545,-951C1545,-951 1629,-951 1629,-951 1635,-951 1641,-957 1641,-963 1641,-963 1641,-1003 1641,-1003 1641,-1009 1635,-1015 1629,-1015 1629,-1015 1545,-1015 1545,-1015 1539,-1015 1533,-1009 1533,-1003 1533,-1003 1533,-963 1533,-963 1533,-957 1539,-951 1545,-951"/>
<text text-anchor="start" x="1572.5" y="-936.8" font-family="Arial" font-weight="bold" font-size="14.00">time</text>
</g>
<!-- 1&#45;&gt;27 -->
<g id="edge2" class="edge">
<title>1&#45;&gt;27</title>
<path fill="none" stroke="#888888" d="M1431.24,-1083.48C1457.56,-1066.67 1486.53,-1048.17 1512.28,-1031.72"/>
<polygon fill="#888888" stroke="#888888" points="1514.34,-1034.56 1520.88,-1026.23 1510.57,-1028.66 1514.34,-1034.56"/>
</g>
<!-- 3 -->
<g id="node4" class="node">
<title>3</title>
<text text-anchor="start" x="824.5" y="-869.8" font-family="Arial" font-weight="bold" font-size="14.00"> &lt; 5.5</text>
<path fill="#ebebeb" stroke="transparent" d="M800,-797C800,-797 884,-797 884,-797 890,-797 896,-803 896,-809 896,-809 896,-849 896,-849 896,-855 890,-861 884,-861 884,-861 800,-861 800,-861 794,-861 788,-855 788,-849 788,-849 788,-809 788,-809 788,-803 794,-797 800,-797"/>
<text text-anchor="start" x="789" y="-858.4" font-family="Arial" font-size="2.00"> </text>
<text text-anchor="start" x="789" y="-852.4" font-family="Arial" font-size="7.00"> &#160;3</text>
<text text-anchor="start" x="803" y="-835.8" font-family="Arial" font-weight="bold" font-size="14.00">Mean: 4.676</text>
<text text-anchor="start" x="818.5" y="-818.8" font-family="Arial" font-weight="bold" font-size="14.00">n = 163</text>
<text text-anchor="start" x="840.5" y="-800.8" font-family="Arial" font-size="9.00"> </text>
<path fill="none" stroke="#333333" d="M800,-797C800,-797 884,-797 884,-797 890,-797 896,-803 896,-809 896,-809 896,-849 896,-849 896,-855 890,-861 884,-861 884,-861 800,-861 800,-861 794,-861 788,-855 788,-849 788,-849 788,-809 788,-809 788,-803 794,-797 800,-797"/>
<text text-anchor="start" x="827.5" y="-782.8" font-family="Arial" font-weight="bold" font-size="14.00">time</text>
</g>
<!-- 2&#45;&gt;3 -->
<g id="edge3" class="edge">
<title>2&#45;&gt;3</title>
<path fill="none" stroke="#888888" d="M1206.6,-958.58C1128.66,-931.1 999.68,-885.61 917.86,-856.75"/>
<polygon fill="#888888" stroke="#888888" points="918.72,-853.34 908.12,-853.32 916.39,-859.95 918.72,-853.34"/>
</g>
<!-- 18 -->
<g id="node5" class="node">
<title>18</title>
<text text-anchor="start" x="1256" y="-869.8" font-family="Arial" font-weight="bold" font-size="14.00"> ≥ 5.5</text>
<path fill="#ebebeb" stroke="transparent" d="M1231,-797C1231,-797 1315,-797 1315,-797 1321,-797 1327,-803 1327,-809 1327,-809 1327,-849 1327,-849 1327,-855 1321,-861 1315,-861 1315,-861 1231,-861 1231,-861 1225,-861 1219,-855 1219,-849 1219,-849 1219,-809 1219,-809 1219,-803 1225,-797 1231,-797"/>
<text text-anchor="start" x="1220" y="-858.4" font-family="Arial" font-size="2.00"> </text>
<text text-anchor="start" x="1220" y="-852.4" font-family="Arial" font-size="7.00"> &#160;18</text>
<text text-anchor="start" x="1234" y="-835.8" font-family="Arial" font-weight="bold" font-size="14.00">Mean: 6.173</text>
<text text-anchor="start" x="1249.5" y="-818.8" font-family="Arial" font-weight="bold" font-size="14.00">n = 100</text>
<text text-anchor="start" x="1271.5" y="-800.8" font-family="Arial" font-size="9.00"> </text>
<path fill="none" stroke="#333333" d="M1231,-797C1231,-797 1315,-797 1315,-797 1321,-797 1327,-803 1327,-809 1327,-809 1327,-849 1327,-849 1327,-855 1321,-861 1315,-861 1315,-861 1231,-861 1231,-861 1225,-861 1219,-855 1219,-849 1219,-849 1219,-809 1219,-809 1219,-803 1225,-797 1231,-797"/>
<text text-anchor="start" x="1237.5" y="-782.8" font-family="Arial" font-weight="bold" font-size="14.00">windspeed</text>
</g>
<!-- 2&#45;&gt;18 -->
<g id="edge4" class="edge">
<title>2&#45;&gt;18</title>
<path fill="none" stroke="#888888" d="M1273,-923.67C1273,-915.39 1273,-906.83 1273,-898.38"/>
<polygon fill="#888888" stroke="#888888" points="1276.5,-898.18 1273,-888.18 1269.5,-898.18 1276.5,-898.18"/>
</g>
<!-- 28 -->
<g id="node28" class="node">
<title>28</title>
<text text-anchor="start" x="1569.5" y="-869.8" font-family="Arial" font-weight="bold" font-size="14.00"> &lt; 1.5</text>
<path fill="#f8766d" fill-opacity="0.376471" stroke="transparent" d="M1542,-797C1542,-797 1632,-797 1632,-797 1638,-797 1644,-803 1644,-809 1644,-809 1644,-849 1644,-849 1644,-855 1638,-861 1632,-861 1632,-861 1542,-861 1542,-861 1536,-861 1530,-855 1530,-849 1530,-849 1530,-809 1530,-809 1530,-803 1536,-797 1542,-797"/>
<text text-anchor="start" x="1531" y="-858.4" font-family="Arial" font-size="2.00"> </text>
<text text-anchor="start" x="1531" y="-852.4" font-family="Arial" font-size="7.00"> &#160;28</text>
<text text-anchor="start" x="1545" y="-835.8" font-family="Arial" font-weight="bold" font-size="14.00">Predict 18.03</text>
<text text-anchor="start" x="1571" y="-818.8" font-family="Arial" font-weight="bold" font-size="14.00">n = 4</text>
<text text-anchor="start" x="1585.5" y="-800.8" font-family="Arial" font-size="9.00"> </text>
<path fill="none" stroke="#333333" d="M1542,-797C1542,-797 1632,-797 1632,-797 1638,-797 1644,-803 1644,-809 1644,-809 1644,-849 1644,-849 1644,-855 1638,-861 1632,-861 1632,-861 1542,-861 1542,-861 1536,-861 1530,-855 1530,-849 1530,-849 1530,-809 1530,-809 1530,-803 1536,-797 1542,-797"/>
<text text-anchor="start" x="1585" y="-782.8" font-family="Arial" font-weight="bold" font-size="14.00"> </text>
</g>
<!-- 27&#45;&gt;28 -->
<g id="edge27" class="edge">
<title>27&#45;&gt;28</title>
<path fill="none" stroke="#888888" d="M1587,-923.67C1587,-915.39 1587,-906.83 1587,-898.38"/>
<polygon fill="#888888" stroke="#888888" points="1590.5,-898.18 1587,-888.18 1583.5,-898.18 1590.5,-898.18"/>
</g>
<!-- 29 -->
<g id="node29" class="node">
<title>29</title>
<text text-anchor="start" x="1821" y="-869.8" font-family="Arial" font-weight="bold" font-size="14.00"> ≥ 1.5</text>
<path fill="#ebebeb" stroke="transparent" d="M1796,-797C1796,-797 1880,-797 1880,-797 1886,-797 1892,-803 1892,-809 1892,-809 1892,-849 1892,-849 1892,-855 1886,-861 1880,-861 1880,-861 1796,-861 1796,-861 1790,-861 1784,-855 1784,-849 1784,-849 1784,-809 1784,-809 1784,-803 1790,-797 1796,-797"/>
<text text-anchor="start" x="1785" y="-858.4" font-family="Arial" font-size="2.00"> </text>
<text text-anchor="start" x="1785" y="-852.4" font-family="Arial" font-size="7.00"> &#160;29</text>
<text text-anchor="start" x="1799" y="-835.8" font-family="Arial" font-weight="bold" font-size="14.00">Mean: 8.648</text>
<text text-anchor="start" x="1814.5" y="-818.8" font-family="Arial" font-weight="bold" font-size="14.00">n = 405</text>
<text text-anchor="start" x="1836.5" y="-800.8" font-family="Arial" font-size="9.00"> </text>
<path fill="none" stroke="#333333" d="M1796,-797C1796,-797 1880,-797 1880,-797 1886,-797 1892,-803 1892,-809 1892,-809 1892,-849 1892,-849 1892,-855 1886,-861 1880,-861 1880,-861 1796,-861 1796,-861 1790,-861 1784,-855 1784,-849 1784,-849 1784,-809 1784,-809 1784,-803 1790,-797 1796,-797"/>
<text text-anchor="start" x="1808.5" y="-782.8" font-family="Arial" font-weight="bold" font-size="14.00">day_type</text>
</g>
<!-- 27&#45;&gt;29 -->
<g id="edge28" class="edge">
<title>27&#45;&gt;29</title>
<path fill="none" stroke="#888888" d="M1653.28,-941.86C1687.02,-921.43 1728.17,-896.51 1763.06,-875.38"/>
<polygon fill="#888888" stroke="#888888" points="1765.05,-878.27 1771.79,-870.1 1761.42,-872.28 1765.05,-878.27"/>
</g>
<!-- 4 -->
<g id="node6" class="node">
<title>4</title>
<text text-anchor="start" x="439.5" y="-715.8" font-family="Arial" font-weight="bold" font-size="14.00"> &lt; 3.5</text>
<text text-anchor="start" x="385" y="-671.3" font-family="Arial" font-size="14.00"> &#160;&#160;&#160;</text>
<path fill="#ebebeb" stroke="transparent" d="M415,-643C415,-643 499,-643 499,-643 505,-643 511,-649 511,-655 511,-655 511,-695 511,-695 511,-701 505,-707 499,-707 499,-707 415,-707 415,-707 409,-707 403,-701 403,-695 403,-695 403,-655 403,-655 403,-649 409,-643 415,-643"/>
<text text-anchor="start" x="404" y="-704.4" font-family="Arial" font-size="2.00"> </text>
<text text-anchor="start" x="404" y="-698.4" font-family="Arial" font-size="7.00"> &#160;4</text>
<text text-anchor="start" x="418" y="-681.8" font-family="Arial" font-weight="bold" font-size="14.00">Mean: 4.575</text>
<text text-anchor="start" x="433.5" y="-664.8" font-family="Arial" font-weight="bold" font-size="14.00">n = 107</text>
<text text-anchor="start" x="455.5" y="-646.8" font-family="Arial" font-size="9.00"> </text>
<path fill="none" stroke="#333333" d="M415,-643C415,-643 499,-643 499,-643 505,-643 511,-649 511,-655 511,-655 511,-695 511,-695 511,-701 505,-707 499,-707 499,-707 415,-707 415,-707 409,-707 403,-701 403,-695 403,-695 403,-655 403,-655 403,-649 409,-643 415,-643"/>
<text text-anchor="start" x="513" y="-671.3" font-family="Arial" font-size="14.00"> &#160;&#160;&#160;</text>
<text text-anchor="start" x="399.5" y="-628.8" font-family="Arial" font-weight="bold" font-size="14.00">prev_168h_inflow</text>
</g>
<!-- 3&#45;&gt;4 -->
<g id="edge5" class="edge">
<title>3&#45;&gt;4</title>
<path fill="none" stroke="#888888" d="M775.82,-801.87C713.19,-777.14 618.62,-739.81 548.74,-712.22"/>
<polygon fill="#888888" stroke="#888888" points="549.63,-708.81 539.04,-708.39 547.06,-715.32 549.63,-708.81"/>
</g>
<!-- 13 -->
<g id="node7" class="node">
<title>13</title>
<text text-anchor="start" x="825" y="-715.8" font-family="Arial" font-weight="bold" font-size="14.00"> ≥ 3.5</text>
<path fill="#ebebeb" stroke="transparent" d="M800,-643C800,-643 884,-643 884,-643 890,-643 896,-649 896,-655 896,-655 896,-695 896,-695 896,-701 890,-707 884,-707 884,-707 800,-707 800,-707 794,-707 788,-701 788,-695 788,-695 788,-655 788,-655 788,-649 794,-643 800,-643"/>
<text text-anchor="start" x="789" y="-704.4" font-family="Arial" font-size="2.00"> </text>
<text text-anchor="start" x="789" y="-698.4" font-family="Arial" font-size="7.00"> &#160;13</text>
<text text-anchor="start" x="803" y="-681.8" font-family="Arial" font-weight="bold" font-size="14.00">Mean: 4.871</text>
<text text-anchor="start" x="822" y="-664.8" font-family="Arial" font-weight="bold" font-size="14.00">n = 56</text>
<text text-anchor="start" x="840.5" y="-646.8" font-family="Arial" font-size="9.00"> </text>
<path fill="none" stroke="#333333" d="M800,-643C800,-643 884,-643 884,-643 890,-643 896,-649 896,-655 896,-655 896,-695 896,-695 896,-701 890,-707 884,-707 884,-707 800,-707 800,-707 794,-707 788,-701 788,-695 788,-695 788,-655 788,-655 788,-649 794,-643 800,-643"/>
<text text-anchor="start" x="820.5" y="-628.8" font-family="Arial" font-weight="bold" font-size="14.00">month</text>
</g>
<!-- 3&#45;&gt;13 -->
<g id="edge6" class="edge">
<title>3&#45;&gt;13</title>
<path fill="none" stroke="#888888" d="M842,-769.67C842,-761.39 842,-752.83 842,-744.38"/>
<polygon fill="#888888" stroke="#888888" points="845.5,-744.18 842,-734.18 838.5,-744.18 845.5,-744.18"/>
</g>
<!-- 19 -->
<g id="node20" class="node">
<title>19</title>
<text text-anchor="start" x="1183.5" y="-715.8" font-family="Arial" font-weight="bold" font-size="14.00"> &lt; 61</text>
<path fill="#ebebeb" stroke="transparent" d="M1157,-643C1157,-643 1241,-643 1241,-643 1247,-643 1253,-649 1253,-655 1253,-655 1253,-695 1253,-695 1253,-701 1247,-707 1241,-707 1241,-707 1157,-707 1157,-707 1151,-707 1145,-701 1145,-695 1145,-695 1145,-655 1145,-655 1145,-649 1151,-643 1157,-643"/>
<text text-anchor="start" x="1146" y="-704.4" font-family="Arial" font-size="2.00"> </text>
<text text-anchor="start" x="1146" y="-698.4" font-family="Arial" font-size="7.00"> &#160;19</text>
<text text-anchor="start" x="1160" y="-681.8" font-family="Arial" font-weight="bold" font-size="14.00">Mean: 6.199</text>
<text text-anchor="start" x="1179" y="-664.8" font-family="Arial" font-weight="bold" font-size="14.00">n = 93</text>
<text text-anchor="start" x="1197.5" y="-646.8" font-family="Arial" font-size="9.00"> </text>
<path fill="none" stroke="#333333" d="M1157,-643C1157,-643 1241,-643 1241,-643 1247,-643 1253,-649 1253,-655 1253,-655 1253,-695 1253,-695 1253,-701 1247,-707 1241,-707 1241,-707 1157,-707 1157,-707 1151,-707 1145,-701 1145,-695 1145,-695 1145,-655 1145,-655 1145,-649 1151,-643 1157,-643"/>
<text text-anchor="start" x="1184.5" y="-628.8" font-family="Arial" font-weight="bold" font-size="14.00">time</text>
</g>
<!-- 18&#45;&gt;19 -->
<g id="edge19" class="edge">
<title>18&#45;&gt;19</title>
<path fill="none" stroke="#888888" d="M1244.6,-769.67C1240.4,-761.03 1236.03,-752.07 1231.75,-743.27"/>
<polygon fill="#888888" stroke="#888888" points="1234.85,-741.64 1227.32,-734.18 1228.55,-744.7 1234.85,-741.64"/>
</g>
<!-- 26 -->
<g id="node21" class="node">
<title>26</title>
<text text-anchor="start" x="1332.5" y="-715.8" font-family="Arial" font-weight="bold" font-size="14.00"> ≥ 61</text>
<path fill="#f8766d" fill-opacity="0.803922" stroke="transparent" d="M1307,-643C1307,-643 1389,-643 1389,-643 1395,-643 1401,-649 1401,-655 1401,-655 1401,-695 1401,-695 1401,-701 1395,-707 1389,-707 1389,-707 1307,-707 1307,-707 1301,-707 1295,-701 1295,-695 1295,-695 1295,-655 1295,-655 1295,-649 1301,-643 1307,-643"/>
<text text-anchor="start" x="1296" y="-704.4" font-family="Arial" font-size="2.00"> </text>
<text text-anchor="start" x="1296" y="-698.4" font-family="Arial" font-size="7.00"> &#160;26</text>
<text text-anchor="start" x="1310" y="-681.8" font-family="Arial" font-weight="bold" font-size="14.00">Predict 5.83</text>
<text text-anchor="start" x="1332" y="-664.8" font-family="Arial" font-weight="bold" font-size="14.00">n = 7</text>
<text text-anchor="start" x="1346.5" y="-646.8" font-family="Arial" font-size="9.00"> </text>
<path fill="none" stroke="#333333" d="M1307,-643C1307,-643 1389,-643 1389,-643 1395,-643 1401,-649 1401,-655 1401,-655 1401,-695 1401,-695 1401,-701 1395,-707 1389,-707 1389,-707 1307,-707 1307,-707 1301,-707 1295,-701 1295,-695 1295,-695 1295,-655 1295,-655 1295,-649 1301,-643 1307,-643"/>
<text text-anchor="start" x="1346" y="-628.8" font-family="Arial" font-weight="bold" font-size="14.00"> </text>
</g>
<!-- 18&#45;&gt;26 -->
<g id="edge20" class="edge">
<title>18&#45;&gt;26</title>
<path fill="none" stroke="#888888" d="M1301.78,-769.67C1306.04,-761.03 1310.46,-752.07 1314.81,-743.27"/>
<polygon fill="#888888" stroke="#888888" points="1318.01,-744.69 1319.29,-734.18 1311.73,-741.6 1318.01,-744.69"/>
</g>
<!-- 5 -->
<g id="node8" class="node">
<title>5</title>
<text text-anchor="start" x="203.5" y="-561.8" font-family="Arial" font-weight="bold" font-size="14.00"> &lt; 4.83</text>
<path fill="#ebebeb" stroke="transparent" d="M187,-489C187,-489 263,-489 263,-489 269,-489 275,-495 275,-501 275,-501 275,-541 275,-541 275,-547 269,-553 263,-553 263,-553 187,-553 187,-553 181,-553 175,-547 175,-541 175,-541 175,-501 175,-501 175,-495 181,-489 187,-489"/>
<text text-anchor="start" x="176" y="-550.4" font-family="Arial" font-size="2.00"> </text>
<text text-anchor="start" x="176" y="-544.4" font-family="Arial" font-size="7.00"> &#160;5</text>
<text text-anchor="start" x="190" y="-527.8" font-family="Arial" font-weight="bold" font-size="14.00">Mean: 4.21</text>
<text text-anchor="start" x="205" y="-510.8" font-family="Arial" font-weight="bold" font-size="14.00">n = 60</text>
<text text-anchor="start" x="223.5" y="-492.8" font-family="Arial" font-size="9.00"> </text>
<path fill="none" stroke="#333333" d="M187,-489C187,-489 263,-489 263,-489 269,-489 275,-495 275,-501 275,-501 275,-541 275,-541 275,-547 269,-553 263,-553 263,-553 187,-553 187,-553 181,-553 175,-547 175,-541 175,-541 175,-501 175,-501 175,-495 181,-489 187,-489"/>
<text text-anchor="start" x="192" y="-474.8" font-family="Arial" font-weight="bold" font-size="14.00">air_humid</text>
</g>
<!-- 4&#45;&gt;5 -->
<g id="edge7" class="edge">
<title>4&#45;&gt;5</title>
<path fill="none" stroke="#888888" d="M374.88,-620.2C349.11,-603.31 320.9,-584.83 295.97,-568.5"/>
<polygon fill="#888888" stroke="#888888" points="297.58,-565.37 287.3,-562.81 293.74,-571.22 297.58,-565.37"/>
</g>
<!-- 8 -->
<g id="node9" class="node">
<title>8</title>
<text text-anchor="start" x="436" y="-561.8" font-family="Arial" font-weight="bold" font-size="14.00"> ≥ 4.83</text>
<path fill="#ebebeb" stroke="transparent" d="M419,-489C419,-489 495,-489 495,-489 501,-489 507,-495 507,-501 507,-501 507,-541 507,-541 507,-547 501,-553 495,-553 495,-553 419,-553 419,-553 413,-553 407,-547 407,-541 407,-541 407,-501 407,-501 407,-495 413,-489 419,-489"/>
<text text-anchor="start" x="408" y="-550.4" font-family="Arial" font-size="2.00"> </text>
<text text-anchor="start" x="408" y="-544.4" font-family="Arial" font-size="7.00"> &#160;8</text>
<text text-anchor="start" x="422" y="-527.8" font-family="Arial" font-weight="bold" font-size="14.00">Mean: 5.04</text>
<text text-anchor="start" x="437" y="-510.8" font-family="Arial" font-weight="bold" font-size="14.00">n = 47</text>
<text text-anchor="start" x="455.5" y="-492.8" font-family="Arial" font-size="9.00"> </text>
<path fill="none" stroke="#333333" d="M419,-489C419,-489 495,-489 495,-489 501,-489 507,-495 507,-501 507,-501 507,-541 507,-541 507,-547 501,-553 495,-553 495,-553 419,-553 419,-553 413,-553 407,-547 407,-541 407,-541 407,-501 407,-501 407,-495 413,-489 419,-489"/>
<text text-anchor="start" x="428" y="-474.8" font-family="Arial" font-weight="bold" font-size="14.00">air_temp</text>
</g>
<!-- 4&#45;&gt;8 -->
<g id="edge8" class="edge">
<title>4&#45;&gt;8</title>
<path fill="none" stroke="#888888" d="M457,-615.67C457,-607.39 457,-598.83 457,-590.38"/>
<polygon fill="#888888" stroke="#888888" points="460.5,-590.18 457,-580.18 453.5,-590.18 460.5,-590.18"/>
</g>
<!-- 14 -->
<g id="node16" class="node">
<title>14</title>
<text text-anchor="start" x="747.5" y="-561.8" font-family="Arial" font-weight="bold" font-size="14.00"> &lt; 2.5</text>
<path fill="#ebebeb" stroke="transparent" d="M723,-489C723,-489 807,-489 807,-489 813,-489 819,-495 819,-501 819,-501 819,-541 819,-541 819,-547 813,-553 807,-553 807,-553 723,-553 723,-553 717,-553 711,-547 711,-541 711,-541 711,-501 711,-501 711,-495 717,-489 723,-489"/>
<text text-anchor="start" x="712" y="-550.4" font-family="Arial" font-size="2.00"> </text>
<text text-anchor="start" x="712" y="-544.4" font-family="Arial" font-size="7.00"> &#160;14</text>
<text text-anchor="start" x="726" y="-527.8" font-family="Arial" font-weight="bold" font-size="14.00">Mean: 5.106</text>
<text text-anchor="start" x="745" y="-510.8" font-family="Arial" font-weight="bold" font-size="14.00">n = 46</text>
<text text-anchor="start" x="763.5" y="-492.8" font-family="Arial" font-size="9.00"> </text>
<path fill="none" stroke="#333333" d="M723,-489C723,-489 807,-489 807,-489 813,-489 819,-495 819,-501 819,-501 819,-541 819,-541 819,-547 813,-553 807,-553 807,-553 723,-553 723,-553 717,-553 711,-547 711,-541 711,-541 711,-501 711,-501 711,-495 717,-489 723,-489"/>
<text text-anchor="start" x="750.5" y="-474.8" font-family="Arial" font-weight="bold" font-size="14.00">time</text>
</g>
<!-- 13&#45;&gt;14 -->
<g id="edge15" class="edge">
<title>13&#45;&gt;14</title>
<path fill="none" stroke="#888888" d="M812.45,-615.67C808.07,-607.03 803.54,-598.07 799.08,-589.27"/>
<polygon fill="#888888" stroke="#888888" points="802.11,-587.52 794.47,-580.18 795.87,-590.68 802.11,-587.52"/>
</g>
<!-- 17 -->
<g id="node17" class="node">
<title>17</title>
<text text-anchor="start" x="901" y="-561.8" font-family="Arial" font-weight="bold" font-size="14.00"> ≥ 2.5</text>
<path fill="#f8766d" fill-opacity="0.874510" stroke="transparent" d="M873,-489C873,-489 963,-489 963,-489 969,-489 975,-495 975,-501 975,-501 975,-541 975,-541 975,-547 969,-553 963,-553 963,-553 873,-553 873,-553 867,-553 861,-547 861,-541 861,-541 861,-501 861,-501 861,-495 867,-489 873,-489"/>
<text text-anchor="start" x="862" y="-550.4" font-family="Arial" font-size="2.00"> </text>
<text text-anchor="start" x="862" y="-544.4" font-family="Arial" font-size="7.00"> &#160;17</text>
<text text-anchor="start" x="876" y="-527.8" font-family="Arial" font-weight="bold" font-size="14.00">Predict 3.786</text>
<text text-anchor="start" x="898" y="-510.8" font-family="Arial" font-weight="bold" font-size="14.00">n = 10</text>
<text text-anchor="start" x="916.5" y="-492.8" font-family="Arial" font-size="9.00"> </text>
<path fill="none" stroke="#333333" d="M873,-489C873,-489 963,-489 963,-489 969,-489 975,-495 975,-501 975,-501 975,-541 975,-541 975,-547 969,-553 963,-553 963,-553 873,-553 873,-553 867,-553 861,-547 861,-541 861,-541 861,-501 861,-501 861,-495 867,-489 873,-489"/>
<text text-anchor="start" x="916" y="-474.8" font-family="Arial" font-weight="bold" font-size="14.00"> </text>
</g>
<!-- 13&#45;&gt;17 -->
<g id="edge16" class="edge">
<title>13&#45;&gt;17</title>
<path fill="none" stroke="#888888" d="M871.17,-615.67C875.48,-607.03 879.96,-598.07 884.36,-589.27"/>
<polygon fill="#888888" stroke="#888888" points="887.57,-590.69 888.91,-580.18 881.31,-587.56 887.57,-590.69"/>
</g>
<!-- 6 -->
<g id="node10" class="node">
<title>6</title>
<text text-anchor="start" x="53.5" y="-407.8" font-family="Arial" font-weight="bold" font-size="14.00"> &lt; 39</text>
<path fill="#f8766d" fill-opacity="0.796078" stroke="transparent" d="M24,-335C24,-335 114,-335 114,-335 120,-335 126,-341 126,-347 126,-347 126,-387 126,-387 126,-393 120,-399 114,-399 114,-399 24,-399 24,-399 18,-399 12,-393 12,-387 12,-387 12,-347 12,-347 12,-341 18,-335 24,-335"/>
<text text-anchor="start" x="13" y="-396.4" font-family="Arial" font-size="2.00"> </text>
<text text-anchor="start" x="13" y="-390.4" font-family="Arial" font-size="7.00"> &#160;6</text>
<text text-anchor="start" x="27" y="-373.8" font-family="Arial" font-weight="bold" font-size="14.00">Predict 6.025</text>
<text text-anchor="start" x="53" y="-356.8" font-family="Arial" font-weight="bold" font-size="14.00">n = 2</text>
<text text-anchor="start" x="67.5" y="-338.8" font-family="Arial" font-size="9.00"> </text>
<path fill="none" stroke="#333333" d="M24,-335C24,-335 114,-335 114,-335 120,-335 126,-341 126,-347 126,-347 126,-387 126,-387 126,-393 120,-399 114,-399 114,-399 24,-399 24,-399 18,-399 12,-393 12,-387 12,-387 12,-347 12,-347 12,-341 18,-335 24,-335"/>
<text text-anchor="start" x="67" y="-320.8" font-family="Arial" font-weight="bold" font-size="14.00"> </text>
</g>
<!-- 5&#45;&gt;6 -->
<g id="edge9" class="edge">
<title>5&#45;&gt;6</title>
<path fill="none" stroke="#888888" d="M165.13,-461.67C155.62,-452.39 145.72,-442.75 136.05,-433.33"/>
<polygon fill="#888888" stroke="#888888" points="138.31,-430.65 128.71,-426.18 133.43,-435.66 138.31,-430.65"/>
</g>
<!-- 7 -->
<g id="node11" class="node">
<title>7</title>
<text text-anchor="start" x="209.5" y="-407.8" font-family="Arial" font-weight="bold" font-size="14.00"> ≥ 39</text>
<path fill="#f8766d" fill-opacity="0.862745" stroke="transparent" d="M180,-335C180,-335 270,-335 270,-335 276,-335 282,-341 282,-347 282,-347 282,-387 282,-387 282,-393 276,-399 270,-399 270,-399 180,-399 180,-399 174,-399 168,-393 168,-387 168,-387 168,-347 168,-347 168,-341 174,-335 180,-335"/>
<text text-anchor="start" x="169" y="-396.4" font-family="Arial" font-size="2.00"> </text>
<text text-anchor="start" x="169" y="-390.4" font-family="Arial" font-size="7.00"> &#160;7</text>
<text text-anchor="start" x="183" y="-373.8" font-family="Arial" font-weight="bold" font-size="14.00">Predict 4.147</text>
<text text-anchor="start" x="205" y="-356.8" font-family="Arial" font-weight="bold" font-size="14.00">n = 58</text>
<text text-anchor="start" x="223.5" y="-338.8" font-family="Arial" font-size="9.00"> </text>
<path fill="none" stroke="#333333" d="M180,-335C180,-335 270,-335 270,-335 276,-335 282,-341 282,-347 282,-347 282,-387 282,-387 282,-393 276,-399 270,-399 270,-399 180,-399 180,-399 174,-399 168,-393 168,-387 168,-387 168,-347 168,-347 168,-341 174,-335 180,-335"/>
<text text-anchor="start" x="223" y="-320.8" font-family="Arial" font-weight="bold" font-size="14.00"> </text>
</g>
<!-- 5&#45;&gt;7 -->
<g id="edge10" class="edge">
<title>5&#45;&gt;7</title>
<path fill="none" stroke="#888888" d="M225,-461.67C225,-453.39 225,-444.83 225,-436.38"/>
<polygon fill="#888888" stroke="#888888" points="228.5,-436.18 225,-426.18 221.5,-436.18 228.5,-436.18"/>
</g>
<!-- 9 -->
<g id="node12" class="node">
<title>9</title>
<text text-anchor="start" x="369" y="-407.8" font-family="Arial" font-weight="bold" font-size="14.00"> &lt; 3</text>
<path fill="#f8766d" fill-opacity="0.796078" stroke="transparent" d="M336,-335C336,-335 426,-335 426,-335 432,-335 438,-341 438,-347 438,-347 438,-387 438,-387 438,-393 432,-399 426,-399 426,-399 336,-399 336,-399 330,-399 324,-393 324,-387 324,-387 324,-347 324,-347 324,-341 330,-335 336,-335"/>
<text text-anchor="start" x="325" y="-396.4" font-family="Arial" font-size="2.00"> </text>
<text text-anchor="start" x="325" y="-390.4" font-family="Arial" font-size="7.00"> &#160;9</text>
<text text-anchor="start" x="339" y="-373.8" font-family="Arial" font-weight="bold" font-size="14.00">Predict 6.005</text>
<text text-anchor="start" x="361.5" y="-356.8" font-family="Arial" font-weight="bold" font-size="14.00">n = 11</text>
<text text-anchor="start" x="379.5" y="-338.8" font-family="Arial" font-size="9.00"> </text>
<path fill="none" stroke="#333333" d="M336,-335C336,-335 426,-335 426,-335 432,-335 438,-341 438,-347 438,-347 438,-387 438,-387 438,-393 432,-399 426,-399 426,-399 336,-399 336,-399 330,-399 324,-393 324,-387 324,-387 324,-347 324,-347 324,-341 330,-335 336,-335"/>
<text text-anchor="start" x="379" y="-320.8" font-family="Arial" font-weight="bold" font-size="14.00"> </text>
</g>
<!-- 8&#45;&gt;9 -->
<g id="edge11" class="edge">
<title>8&#45;&gt;9</title>
<path fill="none" stroke="#888888" d="M427.83,-461.67C423.52,-453.03 419.04,-444.07 414.64,-435.27"/>
<polygon fill="#888888" stroke="#888888" points="417.69,-433.56 410.09,-426.18 411.43,-436.69 417.69,-433.56"/>
</g>
<!-- 10 -->
<g id="node13" class="node">
<title>10</title>
<text text-anchor="start" x="522.5" y="-407.8" font-family="Arial" font-weight="bold" font-size="14.00"> ≥ 3</text>
<path fill="#ebebeb" stroke="transparent" d="M492,-335C492,-335 576,-335 576,-335 582,-335 588,-341 588,-347 588,-347 588,-387 588,-387 588,-393 582,-399 576,-399 576,-399 492,-399 492,-399 486,-399 480,-393 480,-387 480,-387 480,-347 480,-347 480,-341 486,-335 492,-335"/>
<text text-anchor="start" x="481" y="-396.4" font-family="Arial" font-size="2.00"> </text>
<text text-anchor="start" x="481" y="-390.4" font-family="Arial" font-size="7.00"> &#160;10</text>
<text text-anchor="start" x="495" y="-373.8" font-family="Arial" font-weight="bold" font-size="14.00">Mean: 4.746</text>
<text text-anchor="start" x="514" y="-356.8" font-family="Arial" font-weight="bold" font-size="14.00">n = 36</text>
<text text-anchor="start" x="532.5" y="-338.8" font-family="Arial" font-size="9.00"> </text>
<path fill="none" stroke="#333333" d="M492,-335C492,-335 576,-335 576,-335 582,-335 588,-341 588,-347 588,-347 588,-387 588,-387 588,-393 582,-399 576,-399 576,-399 492,-399 492,-399 486,-399 480,-393 480,-387 480,-387 480,-347 480,-347 480,-341 486,-335 492,-335"/>
<text text-anchor="start" x="519.5" y="-320.8" font-family="Arial" font-weight="bold" font-size="14.00">time</text>
</g>
<!-- 8&#45;&gt;10 -->
<g id="edge12" class="edge">
<title>8&#45;&gt;10</title>
<path fill="none" stroke="#888888" d="M486.55,-461.67C490.93,-453.03 495.46,-444.07 499.92,-435.27"/>
<polygon fill="#888888" stroke="#888888" points="503.13,-436.68 504.53,-426.18 496.89,-433.52 503.13,-436.68"/>
</g>
<!-- 11 -->
<g id="node14" class="node">
<title>11</title>
<text text-anchor="start" x="438.5" y="-253.8" font-family="Arial" font-weight="bold" font-size="14.00"> &lt; 1.5</text>
<path fill="#f8766d" fill-opacity="0.854902" stroke="transparent" d="M411,-181C411,-181 501,-181 501,-181 507,-181 513,-187 513,-193 513,-193 513,-233 513,-233 513,-239 507,-245 501,-245 501,-245 411,-245 411,-245 405,-245 399,-239 399,-233 399,-233 399,-193 399,-193 399,-187 405,-181 411,-181"/>
<text text-anchor="start" x="400" y="-242.4" font-family="Arial" font-size="2.00"> </text>
<text text-anchor="start" x="400" y="-236.4" font-family="Arial" font-size="7.00"> &#160;11</text>
<text text-anchor="start" x="414" y="-219.8" font-family="Arial" font-weight="bold" font-size="14.00">Predict 4.344</text>
<text text-anchor="start" x="436" y="-202.8" font-family="Arial" font-weight="bold" font-size="14.00">n = 14</text>
<text text-anchor="start" x="454.5" y="-184.8" font-family="Arial" font-size="9.00"> </text>
<path fill="none" stroke="#333333" d="M411,-181C411,-181 501,-181 501,-181 507,-181 513,-187 513,-193 513,-193 513,-233 513,-233 513,-239 507,-245 501,-245 501,-245 411,-245 411,-245 405,-245 399,-239 399,-233 399,-233 399,-193 399,-193 399,-187 405,-181 411,-181"/>
<text text-anchor="start" x="454" y="-166.8" font-family="Arial" font-weight="bold" font-size="14.00"> </text>
</g>
<!-- 10&#45;&gt;11 -->
<g id="edge13" class="edge">
<title>10&#45;&gt;11</title>
<path fill="none" stroke="#888888" d="M504.07,-307.67C499.63,-299.03 495.04,-290.07 490.52,-281.27"/>
<polygon fill="#888888" stroke="#888888" points="493.53,-279.48 485.85,-272.18 487.31,-282.67 493.53,-279.48"/>
</g>
<!-- 12 -->
<g id="node15" class="node">
<title>12</title>
<text text-anchor="start" x="595" y="-253.8" font-family="Arial" font-weight="bold" font-size="14.00"> ≥ 1.5</text>
<path fill="#f8766d" fill-opacity="0.831373" stroke="transparent" d="M567,-181C567,-181 657,-181 657,-181 663,-181 669,-187 669,-193 669,-193 669,-233 669,-233 669,-239 663,-245 657,-245 657,-245 567,-245 567,-245 561,-245 555,-239 555,-233 555,-233 555,-193 555,-193 555,-187 561,-181 567,-181"/>
<text text-anchor="start" x="556" y="-242.4" font-family="Arial" font-size="2.00"> </text>
<text text-anchor="start" x="556" y="-236.4" font-family="Arial" font-size="7.00"> &#160;12</text>
<text text-anchor="start" x="570" y="-219.8" font-family="Arial" font-weight="bold" font-size="14.00">Predict 5.002</text>
<text text-anchor="start" x="592" y="-202.8" font-family="Arial" font-weight="bold" font-size="14.00">n = 22</text>
<text text-anchor="start" x="610.5" y="-184.8" font-family="Arial" font-size="9.00"> </text>
<path fill="none" stroke="#333333" d="M567,-181C567,-181 657,-181 657,-181 663,-181 669,-187 669,-193 669,-193 669,-233 669,-233 669,-239 663,-245 657,-245 657,-245 567,-245 567,-245 561,-245 555,-239 555,-233 555,-233 555,-193 555,-193 555,-187 561,-181 567,-181"/>
<text text-anchor="start" x="610" y="-166.8" font-family="Arial" font-weight="bold" font-size="14.00"> </text>
</g>
<!-- 10&#45;&gt;12 -->
<g id="edge14" class="edge">
<title>10&#45;&gt;12</title>
<path fill="none" stroke="#888888" d="M563.93,-307.67C568.37,-299.03 572.96,-290.07 577.48,-281.27"/>
<polygon fill="#888888" stroke="#888888" points="580.69,-282.67 582.15,-272.18 574.47,-279.48 580.69,-282.67"/>
</g>
<!-- 15 -->
<g id="node18" class="node">
<title>15</title>
<text text-anchor="start" x="669.5" y="-407.8" font-family="Arial" font-weight="bold" font-size="14.00"> &lt; 4.5</text>
<path fill="#f8766d" fill-opacity="0.839216" stroke="transparent" d="M642,-335C642,-335 732,-335 732,-335 738,-335 744,-341 744,-347 744,-347 744,-387 744,-387 744,-393 738,-399 732,-399 732,-399 642,-399 642,-399 636,-399 630,-393 630,-387 630,-387 630,-347 630,-347 630,-341 636,-335 642,-335"/>
<text text-anchor="start" x="631" y="-396.4" font-family="Arial" font-size="2.00"> </text>
<text text-anchor="start" x="631" y="-390.4" font-family="Arial" font-size="7.00"> &#160;15</text>
<text text-anchor="start" x="645" y="-373.8" font-family="Arial" font-weight="bold" font-size="14.00">Predict 4.792</text>
<text text-anchor="start" x="667" y="-356.8" font-family="Arial" font-weight="bold" font-size="14.00">n = 23</text>
<text text-anchor="start" x="685.5" y="-338.8" font-family="Arial" font-size="9.00"> </text>
<path fill="none" stroke="#333333" d="M642,-335C642,-335 732,-335 732,-335 738,-335 744,-341 744,-347 744,-347 744,-387 744,-387 744,-393 738,-399 732,-399 732,-399 642,-399 642,-399 636,-399 630,-393 630,-387 630,-387 630,-347 630,-347 630,-341 636,-335 642,-335"/>
<text text-anchor="start" x="685" y="-320.8" font-family="Arial" font-weight="bold" font-size="14.00"> </text>
</g>
<!-- 14&#45;&gt;15 -->
<g id="edge17" class="edge">
<title>14&#45;&gt;15</title>
<path fill="none" stroke="#888888" d="M735.07,-461.67C730.63,-453.03 726.04,-444.07 721.52,-435.27"/>
<polygon fill="#888888" stroke="#888888" points="724.53,-433.48 716.85,-426.18 718.31,-436.67 724.53,-433.48"/>
</g>
<!-- 16 -->
<g id="node19" class="node">
<title>16</title>
<text text-anchor="start" x="826" y="-407.8" font-family="Arial" font-weight="bold" font-size="14.00"> ≥ 4.5</text>
<path fill="#f8766d" fill-opacity="0.815686" stroke="transparent" d="M798,-335C798,-335 888,-335 888,-335 894,-335 900,-341 900,-347 900,-347 900,-387 900,-387 900,-393 894,-399 888,-399 888,-399 798,-399 798,-399 792,-399 786,-393 786,-387 786,-387 786,-347 786,-347 786,-341 792,-335 798,-335"/>
<text text-anchor="start" x="787" y="-396.4" font-family="Arial" font-size="2.00"> </text>
<text text-anchor="start" x="787" y="-390.4" font-family="Arial" font-size="7.00"> &#160;16</text>
<text text-anchor="start" x="801" y="-373.8" font-family="Arial" font-weight="bold" font-size="14.00">Predict 5.421</text>
<text text-anchor="start" x="823" y="-356.8" font-family="Arial" font-weight="bold" font-size="14.00">n = 23</text>
<text text-anchor="start" x="841.5" y="-338.8" font-family="Arial" font-size="9.00"> </text>
<path fill="none" stroke="#333333" d="M798,-335C798,-335 888,-335 888,-335 894,-335 900,-341 900,-347 900,-347 900,-387 900,-387 900,-393 894,-399 888,-399 888,-399 798,-399 798,-399 792,-399 786,-393 786,-387 786,-387 786,-347 786,-347 786,-341 792,-335 798,-335"/>
<text text-anchor="start" x="841" y="-320.8" font-family="Arial" font-weight="bold" font-size="14.00"> </text>
</g>
<!-- 14&#45;&gt;16 -->
<g id="edge18" class="edge">
<title>14&#45;&gt;16</title>
<path fill="none" stroke="#888888" d="M794.93,-461.67C799.37,-453.03 803.96,-444.07 808.48,-435.27"/>
<polygon fill="#888888" stroke="#888888" points="811.69,-436.67 813.15,-426.18 805.47,-433.48 811.69,-436.67"/>
</g>
<!-- 20 -->
<g id="node22" class="node">
<title>20</title>
<text text-anchor="start" x="1133.5" y="-561.8" font-family="Arial" font-weight="bold" font-size="14.00"> &lt; 21.5</text>
<path fill="#ebebeb" stroke="transparent" d="M1113,-489C1113,-489 1197,-489 1197,-489 1203,-489 1209,-495 1209,-501 1209,-501 1209,-541 1209,-541 1209,-547 1203,-553 1197,-553 1197,-553 1113,-553 1113,-553 1107,-553 1101,-547 1101,-541 1101,-541 1101,-501 1101,-501 1101,-495 1107,-489 1113,-489"/>
<text text-anchor="start" x="1102" y="-550.4" font-family="Arial" font-size="2.00"> </text>
<text text-anchor="start" x="1102" y="-544.4" font-family="Arial" font-size="7.00"> &#160;20</text>
<text text-anchor="start" x="1116" y="-527.8" font-family="Arial" font-weight="bold" font-size="14.00">Mean: 6.995</text>
<text text-anchor="start" x="1135" y="-510.8" font-family="Arial" font-weight="bold" font-size="14.00">n = 45</text>
<text text-anchor="start" x="1153.5" y="-492.8" font-family="Arial" font-size="9.00"> </text>
<path fill="none" stroke="#333333" d="M1113,-489C1113,-489 1197,-489 1197,-489 1203,-489 1209,-495 1209,-501 1209,-501 1209,-541 1209,-541 1209,-547 1203,-553 1197,-553 1197,-553 1113,-553 1113,-553 1107,-553 1101,-547 1101,-541 1101,-541 1101,-501 1101,-501 1101,-495 1107,-489 1113,-489"/>
<text text-anchor="start" x="1122" y="-474.8" font-family="Arial" font-weight="bold" font-size="14.00">air_humid</text>
</g>
<!-- 19&#45;&gt;20 -->
<g id="edge21" class="edge">
<title>19&#45;&gt;20</title>
<path fill="none" stroke="#888888" d="M1182.11,-615.67C1179.67,-607.21 1177.13,-598.45 1174.63,-589.83"/>
<polygon fill="#888888" stroke="#888888" points="1177.98,-588.81 1171.84,-580.18 1171.26,-590.76 1177.98,-588.81"/>
</g>
<!-- 23 -->
<g id="node23" class="node">
<title>23</title>
<text text-anchor="start" x="1286" y="-561.8" font-family="Arial" font-weight="bold" font-size="14.00"> ≥ 21.5</text>
<path fill="#ebebeb" stroke="transparent" d="M1265,-489C1265,-489 1349,-489 1349,-489 1355,-489 1361,-495 1361,-501 1361,-501 1361,-541 1361,-541 1361,-547 1355,-553 1349,-553 1349,-553 1265,-553 1265,-553 1259,-553 1253,-547 1253,-541 1253,-541 1253,-501 1253,-501 1253,-495 1259,-489 1265,-489"/>
<text text-anchor="start" x="1254" y="-550.4" font-family="Arial" font-size="2.00"> </text>
<text text-anchor="start" x="1254" y="-544.4" font-family="Arial" font-size="7.00"> &#160;23</text>
<text text-anchor="start" x="1268" y="-527.8" font-family="Arial" font-weight="bold" font-size="14.00">Mean: 5.452</text>
<text text-anchor="start" x="1287" y="-510.8" font-family="Arial" font-weight="bold" font-size="14.00">n = 48</text>
<text text-anchor="start" x="1305.5" y="-492.8" font-family="Arial" font-size="9.00"> </text>
<path fill="none" stroke="#333333" d="M1265,-489C1265,-489 1349,-489 1349,-489 1355,-489 1361,-495 1361,-501 1361,-501 1361,-541 1361,-541 1361,-547 1355,-553 1349,-553 1349,-553 1265,-553 1265,-553 1259,-553 1253,-547 1253,-541 1253,-541 1253,-501 1253,-501 1253,-495 1259,-489 1265,-489"/>
<text text-anchor="start" x="1278" y="-474.8" font-family="Arial" font-weight="bold" font-size="14.00">air_temp</text>
</g>
<!-- 19&#45;&gt;23 -->
<g id="edge22" class="edge">
<title>19&#45;&gt;23</title>
<path fill="none" stroke="#888888" d="M1240.45,-615.67C1246.78,-606.76 1253.35,-597.51 1259.79,-588.44"/>
<polygon fill="#888888" stroke="#888888" points="1262.73,-590.36 1265.66,-580.18 1257.02,-586.3 1262.73,-590.36"/>
</g>
<!-- 21 -->
<g id="node24" class="node">
<title>21</title>
<text text-anchor="start" x="978" y="-407.8" font-family="Arial" font-weight="bold" font-size="14.00"> &lt; 92.5</text>
<path fill="#f8766d" fill-opacity="0.756863" stroke="transparent" d="M955,-335C955,-335 1044,-335 1044,-335 1050,-335 1056,-341 1056,-347 1056,-347 1056,-387 1056,-387 1056,-393 1050,-399 1044,-399 1044,-399 955,-399 955,-399 949,-399 943,-393 943,-387 943,-387 943,-347 943,-347 943,-341 949,-335 955,-335"/>
<text text-anchor="start" x="944" y="-396.4" font-family="Arial" font-size="2.00"> </text>
<text text-anchor="start" x="944" y="-390.4" font-family="Arial" font-size="7.00"> &#160;21</text>
<text text-anchor="start" x="958" y="-373.8" font-family="Arial" font-weight="bold" font-size="14.00">Predict 7.118</text>
<text text-anchor="start" x="979.5" y="-356.8" font-family="Arial" font-weight="bold" font-size="14.00">n = 38</text>
<text text-anchor="start" x="998" y="-338.8" font-family="Arial" font-size="9.00"> </text>
<path fill="none" stroke="#333333" d="M955,-335C955,-335 1044,-335 1044,-335 1050,-335 1056,-341 1056,-347 1056,-347 1056,-387 1056,-387 1056,-393 1050,-399 1044,-399 1044,-399 955,-399 955,-399 949,-399 943,-393 943,-387 943,-387 943,-347 943,-347 943,-341 949,-335 955,-335"/>
<text text-anchor="start" x="997.5" y="-320.8" font-family="Arial" font-weight="bold" font-size="14.00"> </text>
</g>
<!-- 20&#45;&gt;21 -->
<g id="edge23" class="edge">
<title>20&#45;&gt;21</title>
<path fill="none" stroke="#888888" d="M1095.13,-461.67C1085.62,-452.39 1075.72,-442.75 1066.05,-433.33"/>
<polygon fill="#888888" stroke="#888888" points="1068.31,-430.65 1058.71,-426.18 1063.43,-435.66 1068.31,-430.65"/>
</g>
<!-- 22 -->
<g id="node25" class="node">
<title>22</title>
<text text-anchor="start" x="1134" y="-407.8" font-family="Arial" font-weight="bold" font-size="14.00"> ≥ 92.5</text>
<path fill="#f8766d" fill-opacity="0.784314" stroke="transparent" d="M1110,-335C1110,-335 1200,-335 1200,-335 1206,-335 1212,-341 1212,-347 1212,-347 1212,-387 1212,-387 1212,-393 1206,-399 1200,-399 1200,-399 1110,-399 1110,-399 1104,-399 1098,-393 1098,-387 1098,-387 1098,-347 1098,-347 1098,-341 1104,-335 1110,-335"/>
<text text-anchor="start" x="1099" y="-396.4" font-family="Arial" font-size="2.00"> </text>
<text text-anchor="start" x="1099" y="-390.4" font-family="Arial" font-size="7.00"> &#160;22</text>
<text text-anchor="start" x="1113" y="-373.8" font-family="Arial" font-weight="bold" font-size="14.00">Predict 6.326</text>
<text text-anchor="start" x="1139" y="-356.8" font-family="Arial" font-weight="bold" font-size="14.00">n = 7</text>
<text text-anchor="start" x="1153.5" y="-338.8" font-family="Arial" font-size="9.00"> </text>
<path fill="none" stroke="#333333" d="M1110,-335C1110,-335 1200,-335 1200,-335 1206,-335 1212,-341 1212,-347 1212,-347 1212,-387 1212,-387 1212,-393 1206,-399 1200,-399 1200,-399 1110,-399 1110,-399 1104,-399 1098,-393 1098,-387 1098,-387 1098,-347 1098,-347 1098,-341 1104,-335 1110,-335"/>
<text text-anchor="start" x="1153" y="-320.8" font-family="Arial" font-weight="bold" font-size="14.00"> </text>
</g>
<!-- 20&#45;&gt;22 -->
<g id="edge24" class="edge">
<title>20&#45;&gt;22</title>
<path fill="none" stroke="#888888" d="M1155,-461.67C1155,-453.39 1155,-444.83 1155,-436.38"/>
<polygon fill="#888888" stroke="#888888" points="1158.5,-436.18 1155,-426.18 1151.5,-436.18 1158.5,-436.18"/>
</g>
<!-- 24 -->
<g id="node26" class="node">
<title>24</title>
<text text-anchor="start" x="1289.5" y="-407.8" font-family="Arial" font-weight="bold" font-size="14.00"> &lt; 3.5</text>
<path fill="#f8766d" fill-opacity="0.788235" stroke="transparent" d="M1266,-335C1266,-335 1348,-335 1348,-335 1354,-335 1360,-341 1360,-347 1360,-347 1360,-387 1360,-387 1360,-393 1354,-399 1348,-399 1348,-399 1266,-399 1266,-399 1260,-399 1254,-393 1254,-387 1254,-387 1254,-347 1254,-347 1254,-341 1260,-335 1266,-335"/>
<text text-anchor="start" x="1255" y="-396.4" font-family="Arial" font-size="2.00"> </text>
<text text-anchor="start" x="1255" y="-390.4" font-family="Arial" font-size="7.00"> &#160;24</text>
<text text-anchor="start" x="1269" y="-373.8" font-family="Arial" font-weight="bold" font-size="14.00">Predict 6.22</text>
<text text-anchor="start" x="1291" y="-356.8" font-family="Arial" font-weight="bold" font-size="14.00">n = 8</text>
<text text-anchor="start" x="1305.5" y="-338.8" font-family="Arial" font-size="9.00"> </text>
<path fill="none" stroke="#333333" d="M1266,-335C1266,-335 1348,-335 1348,-335 1354,-335 1360,-341 1360,-347 1360,-347 1360,-387 1360,-387 1360,-393 1354,-399 1348,-399 1348,-399 1266,-399 1266,-399 1260,-399 1254,-393 1254,-387 1254,-387 1254,-347 1254,-347 1254,-341 1260,-335 1266,-335"/>
<text text-anchor="start" x="1305" y="-320.8" font-family="Arial" font-weight="bold" font-size="14.00"> </text>
</g>
<!-- 23&#45;&gt;24 -->
<g id="edge25" class="edge">
<title>23&#45;&gt;24</title>
<path fill="none" stroke="#888888" d="M1307,-461.67C1307,-453.39 1307,-444.83 1307,-436.38"/>
<polygon fill="#888888" stroke="#888888" points="1310.5,-436.18 1307,-426.18 1303.5,-436.18 1310.5,-436.18"/>
</g>
<!-- 25 -->
<g id="node27" class="node">
<title>25</title>
<text text-anchor="start" x="1442" y="-407.8" font-family="Arial" font-weight="bold" font-size="14.00"> ≥ 3.5</text>
<path fill="#f8766d" fill-opacity="0.823529" stroke="transparent" d="M1414,-335C1414,-335 1504,-335 1504,-335 1510,-335 1516,-341 1516,-347 1516,-347 1516,-387 1516,-387 1516,-393 1510,-399 1504,-399 1504,-399 1414,-399 1414,-399 1408,-399 1402,-393 1402,-387 1402,-387 1402,-347 1402,-347 1402,-341 1408,-335 1414,-335"/>
<text text-anchor="start" x="1403" y="-396.4" font-family="Arial" font-size="2.00"> </text>
<text text-anchor="start" x="1403" y="-390.4" font-family="Arial" font-size="7.00"> &#160;25</text>
<text text-anchor="start" x="1417" y="-373.8" font-family="Arial" font-weight="bold" font-size="14.00">Predict 5.299</text>
<text text-anchor="start" x="1439" y="-356.8" font-family="Arial" font-weight="bold" font-size="14.00">n = 40</text>
<text text-anchor="start" x="1457.5" y="-338.8" font-family="Arial" font-size="9.00"> </text>
<path fill="none" stroke="#333333" d="M1414,-335C1414,-335 1504,-335 1504,-335 1510,-335 1516,-341 1516,-347 1516,-347 1516,-387 1516,-387 1516,-393 1510,-399 1504,-399 1504,-399 1414,-399 1414,-399 1408,-399 1402,-393 1402,-387 1402,-387 1402,-347 1402,-347 1402,-341 1408,-335 1414,-335"/>
<text text-anchor="start" x="1457" y="-320.8" font-family="Arial" font-weight="bold" font-size="14.00"> </text>
</g>
<!-- 23&#45;&gt;25 -->
<g id="edge26" class="edge">
<title>23&#45;&gt;25</title>
<path fill="none" stroke="#888888" d="M1365.33,-461.67C1374.61,-452.39 1384.25,-442.75 1393.67,-433.33"/>
<polygon fill="#888888" stroke="#888888" points="1396.23,-435.72 1400.82,-426.18 1391.28,-430.77 1396.23,-435.72"/>
</g>
<!-- 30 -->
<g id="node30" class="node">
<title>30</title>
<text text-anchor="start" x="1820.5" y="-715.8" font-family="Arial" font-weight="bold" font-size="14.00"> &lt; 0.5</text>
<path fill="#ebebeb" stroke="transparent" d="M1796,-643C1796,-643 1880,-643 1880,-643 1886,-643 1892,-649 1892,-655 1892,-655 1892,-695 1892,-695 1892,-701 1886,-707 1880,-707 1880,-707 1796,-707 1796,-707 1790,-707 1784,-701 1784,-695 1784,-695 1784,-655 1784,-655 1784,-649 1790,-643 1796,-643"/>
<text text-anchor="start" x="1785" y="-704.4" font-family="Arial" font-size="2.00"> </text>
<text text-anchor="start" x="1785" y="-698.4" font-family="Arial" font-size="7.00"> &#160;30</text>
<text text-anchor="start" x="1799" y="-681.8" font-family="Arial" font-weight="bold" font-size="14.00">Mean: 8.136</text>
<text text-anchor="start" x="1814.5" y="-664.8" font-family="Arial" font-weight="bold" font-size="14.00">n = 100</text>
<text text-anchor="start" x="1836.5" y="-646.8" font-family="Arial" font-size="9.00"> </text>
<path fill="none" stroke="#333333" d="M1796,-643C1796,-643 1880,-643 1880,-643 1886,-643 1892,-649 1892,-655 1892,-655 1892,-695 1892,-695 1892,-701 1886,-707 1880,-707 1880,-707 1796,-707 1796,-707 1790,-707 1784,-701 1784,-695 1784,-695 1784,-655 1784,-655 1784,-649 1790,-643 1796,-643"/>
<text text-anchor="start" x="1823.5" y="-628.8" font-family="Arial" font-weight="bold" font-size="14.00">time</text>
</g>
<!-- 29&#45;&gt;30 -->
<g id="edge29" class="edge">
<title>29&#45;&gt;30</title>
<path fill="none" stroke="#888888" d="M1838,-769.67C1838,-761.39 1838,-752.83 1838,-744.38"/>
<polygon fill="#888888" stroke="#888888" points="1841.5,-744.18 1838,-734.18 1834.5,-744.18 1841.5,-744.18"/>
</g>
<!-- 37 -->
<g id="node31" class="node">
<title>37</title>
<text text-anchor="start" x="2134" y="-715.8" font-family="Arial" font-weight="bold" font-size="14.00"> ≥ 0.5</text>
<path fill="#ebebeb" stroke="transparent" d="M2109,-643C2109,-643 2193,-643 2193,-643 2199,-643 2205,-649 2205,-655 2205,-655 2205,-695 2205,-695 2205,-701 2199,-707 2193,-707 2193,-707 2109,-707 2109,-707 2103,-707 2097,-701 2097,-695 2097,-695 2097,-655 2097,-655 2097,-649 2103,-643 2109,-643"/>
<text text-anchor="start" x="2098" y="-704.4" font-family="Arial" font-size="2.00"> </text>
<text text-anchor="start" x="2098" y="-698.4" font-family="Arial" font-size="7.00"> &#160;37</text>
<text text-anchor="start" x="2112" y="-681.8" font-family="Arial" font-weight="bold" font-size="14.00">Mean: 8.815</text>
<text text-anchor="start" x="2127.5" y="-664.8" font-family="Arial" font-weight="bold" font-size="14.00">n = 305</text>
<text text-anchor="start" x="2149.5" y="-646.8" font-family="Arial" font-size="9.00"> </text>
<path fill="none" stroke="#333333" d="M2109,-643C2109,-643 2193,-643 2193,-643 2199,-643 2205,-649 2205,-655 2205,-655 2205,-695 2205,-695 2205,-701 2199,-707 2193,-707 2193,-707 2109,-707 2109,-707 2103,-707 2097,-701 2097,-695 2097,-695 2097,-655 2097,-655 2097,-649 2103,-643 2109,-643"/>
<text text-anchor="start" x="2136.5" y="-628.8" font-family="Arial" font-weight="bold" font-size="14.00">time</text>
</g>
<!-- 29&#45;&gt;37 -->
<g id="edge30" class="edge">
<title>29&#45;&gt;37</title>
<path fill="none" stroke="#888888" d="M1904.38,-795.76C1954.57,-771.39 2023.53,-737.9 2075.76,-712.54"/>
<polygon fill="#888888" stroke="#888888" points="2077.52,-715.58 2084.99,-708.06 2074.46,-709.28 2077.52,-715.58"/>
</g>
<!-- 31 -->
<g id="node32" class="node">
<title>31</title>
<text text-anchor="start" x="1669.5" y="-561.8" font-family="Arial" font-weight="bold" font-size="14.00"> &lt; 22.5</text>
<text text-anchor="start" x="1619" y="-517.3" font-family="Arial" font-size="14.00"> &#160;&#160;&#160;</text>
<path fill="#ebebeb" stroke="transparent" d="M1649,-489C1649,-489 1733,-489 1733,-489 1739,-489 1745,-495 1745,-501 1745,-501 1745,-541 1745,-541 1745,-547 1739,-553 1733,-553 1733,-553 1649,-553 1649,-553 1643,-553 1637,-547 1637,-541 1637,-541 1637,-501 1637,-501 1637,-495 1643,-489 1649,-489"/>
<text text-anchor="start" x="1638" y="-550.4" font-family="Arial" font-size="2.00"> </text>
<text text-anchor="start" x="1638" y="-544.4" font-family="Arial" font-size="7.00"> &#160;31</text>
<text text-anchor="start" x="1652" y="-527.8" font-family="Arial" font-weight="bold" font-size="14.00">Mean: 7.792</text>
<text text-anchor="start" x="1671" y="-510.8" font-family="Arial" font-weight="bold" font-size="14.00">n = 96</text>
<text text-anchor="start" x="1689.5" y="-492.8" font-family="Arial" font-size="9.00"> </text>
<path fill="none" stroke="#333333" d="M1649,-489C1649,-489 1733,-489 1733,-489 1739,-489 1745,-495 1745,-501 1745,-501 1745,-541 1745,-541 1745,-547 1739,-553 1733,-553 1733,-553 1649,-553 1649,-553 1643,-553 1637,-547 1637,-541 1637,-541 1637,-501 1637,-501 1637,-495 1643,-489 1649,-489"/>
<text text-anchor="start" x="1747" y="-517.3" font-family="Arial" font-size="14.00"> &#160;&#160;&#160;</text>
<text text-anchor="start" x="1633.5" y="-474.8" font-family="Arial" font-weight="bold" font-size="14.00">prev_168h_inflow</text>
</g>
<!-- 30&#45;&gt;31 -->
<g id="edge31" class="edge">
<title>30&#45;&gt;31</title>
<path fill="none" stroke="#888888" d="M1781.59,-615.67C1772.71,-606.49 1763.47,-596.94 1754.45,-587.6"/>
<polygon fill="#888888" stroke="#888888" points="1756.73,-584.93 1747.26,-580.18 1751.7,-589.8 1756.73,-584.93"/>
</g>
<!-- 36 -->
<g id="node33" class="node">
<title>36</title>
<text text-anchor="start" x="1839" y="-561.8" font-family="Arial" font-weight="bold" font-size="14.00"> ≥ 22.5</text>
<path fill="#f8766d" fill-opacity="0.431373" stroke="transparent" d="M1815,-489C1815,-489 1905,-489 1905,-489 1911,-489 1917,-495 1917,-501 1917,-501 1917,-541 1917,-541 1917,-547 1911,-553 1905,-553 1905,-553 1815,-553 1815,-553 1809,-553 1803,-547 1803,-541 1803,-541 1803,-501 1803,-501 1803,-495 1809,-489 1815,-489"/>
<text text-anchor="start" x="1804" y="-550.4" font-family="Arial" font-size="2.00"> </text>
<text text-anchor="start" x="1804" y="-544.4" font-family="Arial" font-size="7.00"> &#160;36</text>
<text text-anchor="start" x="1818" y="-527.8" font-family="Arial" font-weight="bold" font-size="14.00">Predict 16.38</text>
<text text-anchor="start" x="1844" y="-510.8" font-family="Arial" font-weight="bold" font-size="14.00">n = 4</text>
<text text-anchor="start" x="1858.5" y="-492.8" font-family="Arial" font-size="9.00"> </text>
<path fill="none" stroke="#333333" d="M1815,-489C1815,-489 1905,-489 1905,-489 1911,-489 1917,-495 1917,-501 1917,-501 1917,-541 1917,-541 1917,-547 1911,-553 1905,-553 1905,-553 1815,-553 1815,-553 1809,-553 1803,-547 1803,-541 1803,-541 1803,-501 1803,-501 1803,-495 1809,-489 1815,-489"/>
<text text-anchor="start" x="1858" y="-474.8" font-family="Arial" font-weight="bold" font-size="14.00"> </text>
</g>
<!-- 30&#45;&gt;36 -->
<g id="edge32" class="edge">
<title>30&#45;&gt;36</title>
<path fill="none" stroke="#888888" d="M1846.44,-615.67C1847.65,-607.3 1848.91,-598.64 1850.14,-590.1"/>
<polygon fill="#888888" stroke="#888888" points="1853.61,-590.57 1851.58,-580.18 1846.68,-589.57 1853.61,-590.57"/>
</g>
<!-- 38 -->
<g id="node38" class="node">
<title>38</title>
<text text-anchor="start" x="2129.5" y="-561.8" font-family="Arial" font-weight="bold" font-size="14.00"> &lt; 15.5</text>
<path fill="#ebebeb" stroke="transparent" d="M2109,-489C2109,-489 2193,-489 2193,-489 2199,-489 2205,-495 2205,-501 2205,-501 2205,-541 2205,-541 2205,-547 2199,-553 2193,-553 2193,-553 2109,-553 2109,-553 2103,-553 2097,-547 2097,-541 2097,-541 2097,-501 2097,-501 2097,-495 2103,-489 2109,-489"/>
<text text-anchor="start" x="2098" y="-550.4" font-family="Arial" font-size="2.00"> </text>
<text text-anchor="start" x="2098" y="-544.4" font-family="Arial" font-size="7.00"> &#160;38</text>
<text text-anchor="start" x="2112" y="-527.8" font-family="Arial" font-weight="bold" font-size="14.00">Mean: 9.358</text>
<text text-anchor="start" x="2127.5" y="-510.8" font-family="Arial" font-weight="bold" font-size="14.00">n = 197</text>
<text text-anchor="start" x="2149.5" y="-492.8" font-family="Arial" font-size="9.00"> </text>
<path fill="none" stroke="#333333" d="M2109,-489C2109,-489 2193,-489 2193,-489 2199,-489 2205,-495 2205,-501 2205,-501 2205,-541 2205,-541 2205,-547 2199,-553 2193,-553 2193,-553 2109,-553 2109,-553 2103,-553 2097,-547 2097,-541 2097,-541 2097,-501 2097,-501 2097,-495 2103,-489 2109,-489"/>
<text text-anchor="start" x="2136.5" y="-474.8" font-family="Arial" font-weight="bold" font-size="14.00">time</text>
</g>
<!-- 37&#45;&gt;38 -->
<g id="edge37" class="edge">
<title>37&#45;&gt;38</title>
<path fill="none" stroke="#888888" d="M2151,-615.67C2151,-607.39 2151,-598.83 2151,-590.38"/>
<polygon fill="#888888" stroke="#888888" points="2154.5,-590.18 2151,-580.18 2147.5,-590.18 2154.5,-590.18"/>
</g>
<!-- 49 -->
<g id="node39" class="node">
<title>49</title>
<text text-anchor="start" x="2669" y="-561.8" font-family="Arial" font-weight="bold" font-size="14.00"> ≥ 15.5</text>
<path fill="#ebebeb" stroke="transparent" d="M2648,-489C2648,-489 2732,-489 2732,-489 2738,-489 2744,-495 2744,-501 2744,-501 2744,-541 2744,-541 2744,-547 2738,-553 2732,-553 2732,-553 2648,-553 2648,-553 2642,-553 2636,-547 2636,-541 2636,-541 2636,-501 2636,-501 2636,-495 2642,-489 2648,-489"/>
<text text-anchor="start" x="2637" y="-550.4" font-family="Arial" font-size="2.00"> </text>
<text text-anchor="start" x="2637" y="-544.4" font-family="Arial" font-size="7.00"> &#160;49</text>
<text text-anchor="start" x="2651" y="-527.8" font-family="Arial" font-weight="bold" font-size="14.00">Mean: 7.826</text>
<text text-anchor="start" x="2666.5" y="-510.8" font-family="Arial" font-weight="bold" font-size="14.00">n = 108</text>
<text text-anchor="start" x="2688.5" y="-492.8" font-family="Arial" font-size="9.00"> </text>
<path fill="none" stroke="#333333" d="M2648,-489C2648,-489 2732,-489 2732,-489 2738,-489 2744,-495 2744,-501 2744,-501 2744,-541 2744,-541 2744,-547 2738,-553 2732,-553 2732,-553 2648,-553 2648,-553 2642,-553 2636,-547 2636,-541 2636,-541 2636,-501 2636,-501 2636,-495 2642,-489 2648,-489"/>
<text text-anchor="start" x="2675.5" y="-474.8" font-family="Arial" font-weight="bold" font-size="14.00">time</text>
</g>
<!-- 37&#45;&gt;49 -->
<g id="edge38" class="edge">
<title>37&#45;&gt;49</title>
<path fill="none" stroke="#888888" d="M2217.09,-655.36C2317.55,-627.03 2508.14,-573.29 2614.12,-543.4"/>
<polygon fill="#888888" stroke="#888888" points="2615.12,-546.75 2623.79,-540.67 2613.22,-540.02 2615.12,-546.75"/>
</g>
<!-- 32 -->
<g id="node34" class="node">
<title>32</title>
<text text-anchor="start" x="1590" y="-407.8" font-family="Arial" font-weight="bold" font-size="14.00"> &lt; 7.995</text>
<path fill="#f8766d" fill-opacity="0.749020" stroke="transparent" d="M1570,-335C1570,-335 1660,-335 1660,-335 1666,-335 1672,-341 1672,-347 1672,-347 1672,-387 1672,-387 1672,-393 1666,-399 1660,-399 1660,-399 1570,-399 1570,-399 1564,-399 1558,-393 1558,-387 1558,-387 1558,-347 1558,-347 1558,-341 1564,-335 1570,-335"/>
<text text-anchor="start" x="1559" y="-396.4" font-family="Arial" font-size="2.00"> </text>
<text text-anchor="start" x="1559" y="-390.4" font-family="Arial" font-size="7.00"> &#160;32</text>
<text text-anchor="start" x="1573" y="-373.8" font-family="Arial" font-weight="bold" font-size="14.00">Predict 7.344</text>
<text text-anchor="start" x="1595" y="-356.8" font-family="Arial" font-weight="bold" font-size="14.00">n = 57</text>
<text text-anchor="start" x="1613.5" y="-338.8" font-family="Arial" font-size="9.00"> </text>
<path fill="none" stroke="#333333" d="M1570,-335C1570,-335 1660,-335 1660,-335 1666,-335 1672,-341 1672,-347 1672,-347 1672,-387 1672,-387 1672,-393 1666,-399 1660,-399 1660,-399 1570,-399 1570,-399 1564,-399 1558,-393 1558,-387 1558,-387 1558,-347 1558,-347 1558,-341 1564,-335 1570,-335"/>
<text text-anchor="start" x="1613" y="-320.8" font-family="Arial" font-weight="bold" font-size="14.00"> </text>
</g>
<!-- 31&#45;&gt;32 -->
<g id="edge33" class="edge">
<title>31&#45;&gt;32</title>
<path fill="none" stroke="#888888" d="M1661.83,-461.67C1657.52,-453.03 1653.04,-444.07 1648.64,-435.27"/>
<polygon fill="#888888" stroke="#888888" points="1651.69,-433.56 1644.09,-426.18 1645.43,-436.69 1651.69,-433.56"/>
</g>
<!-- 33 -->
<g id="node35" class="node">
<title>33</title>
<text text-anchor="start" x="1743.5" y="-407.8" font-family="Arial" font-weight="bold" font-size="14.00"> ≥ 7.995</text>
<path fill="#ebebeb" stroke="transparent" d="M1726,-335C1726,-335 1810,-335 1810,-335 1816,-335 1822,-341 1822,-347 1822,-347 1822,-387 1822,-387 1822,-393 1816,-399 1810,-399 1810,-399 1726,-399 1726,-399 1720,-399 1714,-393 1714,-387 1714,-387 1714,-347 1714,-347 1714,-341 1720,-335 1726,-335"/>
<text text-anchor="start" x="1715" y="-396.4" font-family="Arial" font-size="2.00"> </text>
<text text-anchor="start" x="1715" y="-390.4" font-family="Arial" font-size="7.00"> &#160;33</text>
<text text-anchor="start" x="1729" y="-373.8" font-family="Arial" font-weight="bold" font-size="14.00">Mean: 8.447</text>
<text text-anchor="start" x="1748" y="-356.8" font-family="Arial" font-weight="bold" font-size="14.00">n = 39</text>
<text text-anchor="start" x="1766.5" y="-338.8" font-family="Arial" font-size="9.00"> </text>
<path fill="none" stroke="#333333" d="M1726,-335C1726,-335 1810,-335 1810,-335 1816,-335 1822,-341 1822,-347 1822,-347 1822,-387 1822,-387 1822,-393 1816,-399 1810,-399 1810,-399 1726,-399 1726,-399 1720,-399 1714,-393 1714,-387 1714,-387 1714,-347 1714,-347 1714,-341 1720,-335 1726,-335"/>
<text text-anchor="start" x="1732.5" y="-320.8" font-family="Arial" font-weight="bold" font-size="14.00">windspeed</text>
</g>
<!-- 31&#45;&gt;33 -->
<g id="edge34" class="edge">
<title>31&#45;&gt;33</title>
<path fill="none" stroke="#888888" d="M1720.55,-461.67C1724.93,-453.03 1729.46,-444.07 1733.92,-435.27"/>
<polygon fill="#888888" stroke="#888888" points="1737.13,-436.68 1738.53,-426.18 1730.89,-433.52 1737.13,-436.68"/>
</g>
<!-- 34 -->
<g id="node36" class="node">
<title>34</title>
<text text-anchor="start" x="1594.5" y="-253.8" font-family="Arial" font-weight="bold" font-size="14.00"> &lt; 4.5</text>
<path fill="#f8766d" fill-opacity="0.698039" stroke="transparent" d="M1567,-181C1567,-181 1657,-181 1657,-181 1663,-181 1669,-187 1669,-193 1669,-193 1669,-233 1669,-233 1669,-239 1663,-245 1657,-245 1657,-245 1567,-245 1567,-245 1561,-245 1555,-239 1555,-233 1555,-233 1555,-193 1555,-193 1555,-187 1561,-181 1567,-181"/>
<text text-anchor="start" x="1556" y="-242.4" font-family="Arial" font-size="2.00"> </text>
<text text-anchor="start" x="1556" y="-236.4" font-family="Arial" font-size="7.00"> &#160;34</text>
<text text-anchor="start" x="1570" y="-219.8" font-family="Arial" font-weight="bold" font-size="14.00">Predict 8.849</text>
<text text-anchor="start" x="1592" y="-202.8" font-family="Arial" font-weight="bold" font-size="14.00">n = 15</text>
<text text-anchor="start" x="1610.5" y="-184.8" font-family="Arial" font-size="9.00"> </text>
<path fill="none" stroke="#333333" d="M1567,-181C1567,-181 1657,-181 1657,-181 1663,-181 1669,-187 1669,-193 1669,-193 1669,-233 1669,-233 1669,-239 1663,-245 1657,-245 1657,-245 1567,-245 1567,-245 1561,-245 1555,-239 1555,-233 1555,-233 1555,-193 1555,-193 1555,-187 1561,-181 1567,-181"/>
<text text-anchor="start" x="1610" y="-166.8" font-family="Arial" font-weight="bold" font-size="14.00"> </text>
</g>
<!-- 33&#45;&gt;34 -->
<g id="edge35" class="edge">
<title>33&#45;&gt;34</title>
<path fill="none" stroke="#888888" d="M1708.13,-307.67C1698.62,-298.39 1688.72,-288.75 1679.05,-279.33"/>
<polygon fill="#888888" stroke="#888888" points="1681.31,-276.65 1671.71,-272.18 1676.43,-281.66 1681.31,-276.65"/>
</g>
<!-- 35 -->
<g id="node37" class="node">
<title>35</title>
<text text-anchor="start" x="1751" y="-253.8" font-family="Arial" font-weight="bold" font-size="14.00"> ≥ 4.5</text>
<path fill="#f8766d" fill-opacity="0.721569" stroke="transparent" d="M1723,-181C1723,-181 1813,-181 1813,-181 1819,-181 1825,-187 1825,-193 1825,-193 1825,-233 1825,-233 1825,-239 1819,-245 1813,-245 1813,-245 1723,-245 1723,-245 1717,-245 1711,-239 1711,-233 1711,-233 1711,-193 1711,-193 1711,-187 1717,-181 1723,-181"/>
<text text-anchor="start" x="1712" y="-242.4" font-family="Arial" font-size="2.00"> </text>
<text text-anchor="start" x="1712" y="-236.4" font-family="Arial" font-size="7.00"> &#160;35</text>
<text text-anchor="start" x="1726" y="-219.8" font-family="Arial" font-weight="bold" font-size="14.00">Predict 8.196</text>
<text text-anchor="start" x="1748" y="-202.8" font-family="Arial" font-weight="bold" font-size="14.00">n = 24</text>
<text text-anchor="start" x="1766.5" y="-184.8" font-family="Arial" font-size="9.00"> </text>
<path fill="none" stroke="#333333" d="M1723,-181C1723,-181 1813,-181 1813,-181 1819,-181 1825,-187 1825,-193 1825,-193 1825,-233 1825,-233 1825,-239 1819,-245 1813,-245 1813,-245 1723,-245 1723,-245 1717,-245 1711,-239 1711,-233 1711,-233 1711,-193 1711,-193 1711,-187 1717,-181 1723,-181"/>
<text text-anchor="start" x="1766" y="-166.8" font-family="Arial" font-weight="bold" font-size="14.00"> </text>
</g>
<!-- 33&#45;&gt;35 -->
<g id="edge36" class="edge">
<title>33&#45;&gt;35</title>
<path fill="none" stroke="#888888" d="M1768,-307.67C1768,-299.39 1768,-290.83 1768,-282.38"/>
<polygon fill="#888888" stroke="#888888" points="1771.5,-282.18 1768,-272.18 1764.5,-282.18 1771.5,-282.18"/>
</g>
<!-- 39 -->
<g id="node40" class="node">
<title>39</title>
<text text-anchor="start" x="2058.5" y="-407.8" font-family="Arial" font-weight="bold" font-size="14.00"> &lt; 6.5</text>
<path fill="#ebebeb" stroke="transparent" d="M2034,-335C2034,-335 2118,-335 2118,-335 2124,-335 2130,-341 2130,-347 2130,-347 2130,-387 2130,-387 2130,-393 2124,-399 2118,-399 2118,-399 2034,-399 2034,-399 2028,-399 2022,-393 2022,-387 2022,-387 2022,-347 2022,-347 2022,-341 2028,-335 2034,-335"/>
<text text-anchor="start" x="2023" y="-396.4" font-family="Arial" font-size="2.00"> </text>
<text text-anchor="start" x="2023" y="-390.4" font-family="Arial" font-size="7.00"> &#160;39</text>
<text text-anchor="start" x="2037" y="-373.8" font-family="Arial" font-weight="bold" font-size="14.00">Mean: 7.381</text>
<text text-anchor="start" x="2056" y="-356.8" font-family="Arial" font-weight="bold" font-size="14.00">n = 17</text>
<text text-anchor="start" x="2074.5" y="-338.8" font-family="Arial" font-size="9.00"> </text>
<path fill="none" stroke="#333333" d="M2034,-335C2034,-335 2118,-335 2118,-335 2124,-335 2130,-341 2130,-347 2130,-347 2130,-387 2130,-387 2130,-393 2124,-399 2118,-399 2118,-399 2034,-399 2034,-399 2028,-399 2022,-393 2022,-387 2022,-387 2022,-347 2022,-347 2022,-341 2028,-335 2034,-335"/>
<text text-anchor="start" x="2047" y="-320.8" font-family="Arial" font-weight="bold" font-size="14.00">air_temp</text>
</g>
<!-- 38&#45;&gt;39 -->
<g id="edge39" class="edge">
<title>38&#45;&gt;39</title>
<path fill="none" stroke="#888888" d="M2122.22,-461.67C2117.96,-453.03 2113.54,-444.07 2109.19,-435.27"/>
<polygon fill="#888888" stroke="#888888" points="2112.27,-433.6 2104.71,-426.18 2105.99,-436.69 2112.27,-433.6"/>
</g>
<!-- 42 -->
<g id="node41" class="node">
<title>42</title>
<text text-anchor="start" x="2209" y="-407.8" font-family="Arial" font-weight="bold" font-size="14.00"> ≥ 6.5</text>
<path fill="#ebebeb" stroke="transparent" d="M2184,-335C2184,-335 2268,-335 2268,-335 2274,-335 2280,-341 2280,-347 2280,-347 2280,-387 2280,-387 2280,-393 2274,-399 2268,-399 2268,-399 2184,-399 2184,-399 2178,-399 2172,-393 2172,-387 2172,-387 2172,-347 2172,-347 2172,-341 2178,-335 2184,-335"/>
<text text-anchor="start" x="2173" y="-396.4" font-family="Arial" font-size="2.00"> </text>
<text text-anchor="start" x="2173" y="-390.4" font-family="Arial" font-size="7.00"> &#160;42</text>
<text text-anchor="start" x="2187" y="-373.8" font-family="Arial" font-weight="bold" font-size="14.00">Mean: 9.545</text>
<text text-anchor="start" x="2202.5" y="-356.8" font-family="Arial" font-weight="bold" font-size="14.00">n = 180</text>
<text text-anchor="start" x="2224.5" y="-338.8" font-family="Arial" font-size="9.00"> </text>
<path fill="none" stroke="#333333" d="M2184,-335C2184,-335 2268,-335 2268,-335 2274,-335 2280,-341 2280,-347 2280,-347 2280,-387 2280,-387 2280,-393 2274,-399 2268,-399 2268,-399 2184,-399 2184,-399 2178,-399 2172,-393 2172,-387 2172,-387 2172,-347 2172,-347 2172,-341 2178,-335 2184,-335"/>
<text text-anchor="start" x="2197" y="-320.8" font-family="Arial" font-weight="bold" font-size="14.00">air_temp</text>
</g>
<!-- 38&#45;&gt;42 -->
<g id="edge40" class="edge">
<title>38&#45;&gt;42</title>
<path fill="none" stroke="#888888" d="M2179.78,-461.67C2184.04,-453.03 2188.46,-444.07 2192.81,-435.27"/>
<polygon fill="#888888" stroke="#888888" points="2196.01,-436.69 2197.29,-426.18 2189.73,-433.6 2196.01,-436.69"/>
</g>
<!-- 50 -->
<g id="node50" class="node">
<title>50</title>
<text text-anchor="start" x="2668.5" y="-407.8" font-family="Arial" font-weight="bold" font-size="14.00"> &lt; 20.5</text>
<path fill="#ebebeb" stroke="transparent" d="M2648,-335C2648,-335 2732,-335 2732,-335 2738,-335 2744,-341 2744,-347 2744,-347 2744,-387 2744,-387 2744,-393 2738,-399 2732,-399 2732,-399 2648,-399 2648,-399 2642,-399 2636,-393 2636,-387 2636,-387 2636,-347 2636,-347 2636,-341 2642,-335 2648,-335"/>
<text text-anchor="start" x="2637" y="-396.4" font-family="Arial" font-size="2.00"> </text>
<text text-anchor="start" x="2637" y="-390.4" font-family="Arial" font-size="7.00"> &#160;50</text>
<text text-anchor="start" x="2651" y="-373.8" font-family="Arial" font-weight="bold" font-size="14.00">Mean: 7.921</text>
<text text-anchor="start" x="2670" y="-356.8" font-family="Arial" font-weight="bold" font-size="14.00">n = 97</text>
<text text-anchor="start" x="2688.5" y="-338.8" font-family="Arial" font-size="9.00"> </text>
<path fill="none" stroke="#333333" d="M2648,-335C2648,-335 2732,-335 2732,-335 2738,-335 2744,-341 2744,-347 2744,-347 2744,-387 2744,-387 2744,-393 2738,-399 2732,-399 2732,-399 2648,-399 2648,-399 2642,-399 2636,-393 2636,-387 2636,-387 2636,-347 2636,-347 2636,-341 2642,-335 2648,-335"/>
<text text-anchor="start" x="2668.5" y="-320.8" font-family="Arial" font-weight="bold" font-size="14.00">month</text>
</g>
<!-- 49&#45;&gt;50 -->
<g id="edge49" class="edge">
<title>49&#45;&gt;50</title>
<path fill="none" stroke="#888888" d="M2690,-461.67C2690,-453.39 2690,-444.83 2690,-436.38"/>
<polygon fill="#888888" stroke="#888888" points="2693.5,-436.18 2690,-426.18 2686.5,-436.18 2693.5,-436.18"/>
</g>
<!-- 55 -->
<g id="node51" class="node">
<title>55</title>
<text text-anchor="start" x="2822" y="-407.8" font-family="Arial" font-weight="bold" font-size="14.00"> ≥ 20.5</text>
<path fill="#f8766d" fill-opacity="0.760784" stroke="transparent" d="M2798,-335C2798,-335 2888,-335 2888,-335 2894,-335 2900,-341 2900,-347 2900,-347 2900,-387 2900,-387 2900,-393 2894,-399 2888,-399 2888,-399 2798,-399 2798,-399 2792,-399 2786,-393 2786,-387 2786,-387 2786,-347 2786,-347 2786,-341 2792,-335 2798,-335"/>
<text text-anchor="start" x="2787" y="-396.4" font-family="Arial" font-size="2.00"> </text>
<text text-anchor="start" x="2787" y="-390.4" font-family="Arial" font-size="7.00"> &#160;55</text>
<text text-anchor="start" x="2801" y="-373.8" font-family="Arial" font-weight="bold" font-size="14.00">Predict 6.985</text>
<text text-anchor="start" x="2823.5" y="-356.8" font-family="Arial" font-weight="bold" font-size="14.00">n = 11</text>
<text text-anchor="start" x="2841.5" y="-338.8" font-family="Arial" font-size="9.00"> </text>
<path fill="none" stroke="#333333" d="M2798,-335C2798,-335 2888,-335 2888,-335 2894,-335 2900,-341 2900,-347 2900,-347 2900,-387 2900,-387 2900,-393 2894,-399 2888,-399 2888,-399 2798,-399 2798,-399 2792,-399 2786,-393 2786,-387 2786,-387 2786,-347 2786,-347 2786,-341 2792,-335 2798,-335"/>
<text text-anchor="start" x="2841" y="-320.8" font-family="Arial" font-weight="bold" font-size="14.00"> </text>
</g>
<!-- 49&#45;&gt;55 -->
<g id="edge50" class="edge">
<title>49&#45;&gt;55</title>
<path fill="none" stroke="#888888" d="M2748.72,-461.67C2758.05,-452.39 2767.76,-442.75 2777.24,-433.33"/>
<polygon fill="#888888" stroke="#888888" points="2779.81,-435.71 2784.44,-426.18 2774.88,-430.74 2779.81,-435.71"/>
</g>
<!-- 40 -->
<g id="node42" class="node">
<title>40</title>
<text text-anchor="start" x="1903" y="-253.8" font-family="Arial" font-weight="bold" font-size="14.00"> &lt; 9.55</text>
<path fill="#f8766d" fill-opacity="0.745098" stroke="transparent" d="M1880,-181C1880,-181 1969,-181 1969,-181 1975,-181 1981,-187 1981,-193 1981,-193 1981,-233 1981,-233 1981,-239 1975,-245 1969,-245 1969,-245 1880,-245 1880,-245 1874,-245 1868,-239 1868,-233 1868,-233 1868,-193 1868,-193 1868,-187 1874,-181 1880,-181"/>
<text text-anchor="start" x="1869" y="-242.4" font-family="Arial" font-size="2.00"> </text>
<text text-anchor="start" x="1869" y="-236.4" font-family="Arial" font-size="7.00"> &#160;40</text>
<text text-anchor="start" x="1883" y="-219.8" font-family="Arial" font-weight="bold" font-size="14.00">Predict 7.511</text>
<text text-anchor="start" x="1904.5" y="-202.8" font-family="Arial" font-weight="bold" font-size="14.00">n = 16</text>
<text text-anchor="start" x="1923" y="-184.8" font-family="Arial" font-size="9.00"> </text>
<path fill="none" stroke="#333333" d="M1880,-181C1880,-181 1969,-181 1969,-181 1975,-181 1981,-187 1981,-193 1981,-193 1981,-233 1981,-233 1981,-239 1975,-245 1969,-245 1969,-245 1880,-245 1880,-245 1874,-245 1868,-239 1868,-233 1868,-233 1868,-193 1868,-193 1868,-187 1874,-181 1880,-181"/>
<text text-anchor="start" x="1922.5" y="-166.8" font-family="Arial" font-weight="bold" font-size="14.00"> </text>
</g>
<!-- 39&#45;&gt;40 -->
<g id="edge41" class="edge">
<title>39&#45;&gt;40</title>
<path fill="none" stroke="#888888" d="M2017.67,-307.67C2008.39,-298.39 1998.75,-288.75 1989.33,-279.33"/>
<polygon fill="#888888" stroke="#888888" points="1991.72,-276.77 1982.18,-272.18 1986.77,-281.72 1991.72,-276.77"/>
</g>
<!-- 41 -->
<g id="node43" class="node">
<title>41</title>
<text text-anchor="start" x="2055" y="-253.8" font-family="Arial" font-weight="bold" font-size="14.00"> ≥ 9.55</text>
<path fill="#f8766d" fill-opacity="0.819608" stroke="transparent" d="M2035,-181C2035,-181 2117,-181 2117,-181 2123,-181 2129,-187 2129,-193 2129,-193 2129,-233 2129,-233 2129,-239 2123,-245 2117,-245 2117,-245 2035,-245 2035,-245 2029,-245 2023,-239 2023,-233 2023,-233 2023,-193 2023,-193 2023,-187 2029,-181 2035,-181"/>
<text text-anchor="start" x="2024" y="-242.4" font-family="Arial" font-size="2.00"> </text>
<text text-anchor="start" x="2024" y="-236.4" font-family="Arial" font-size="7.00"> &#160;41</text>
<text text-anchor="start" x="2038" y="-219.8" font-family="Arial" font-weight="bold" font-size="14.00">Predict 5.31</text>
<text text-anchor="start" x="2060" y="-202.8" font-family="Arial" font-weight="bold" font-size="14.00">n = 1</text>
<text text-anchor="start" x="2074.5" y="-184.8" font-family="Arial" font-size="9.00"> </text>
<path fill="none" stroke="#333333" d="M2035,-181C2035,-181 2117,-181 2117,-181 2123,-181 2129,-187 2129,-193 2129,-193 2129,-233 2129,-233 2129,-239 2123,-245 2117,-245 2117,-245 2035,-245 2035,-245 2029,-245 2023,-239 2023,-233 2023,-233 2023,-193 2023,-193 2023,-187 2029,-181 2035,-181"/>
<text text-anchor="start" x="2074" y="-166.8" font-family="Arial" font-weight="bold" font-size="14.00"> </text>
</g>
<!-- 39&#45;&gt;41 -->
<g id="edge42" class="edge">
<title>39&#45;&gt;41</title>
<path fill="none" stroke="#888888" d="M2076,-307.67C2076,-299.39 2076,-290.83 2076,-282.38"/>
<polygon fill="#888888" stroke="#888888" points="2079.5,-282.18 2076,-272.18 2072.5,-282.18 2079.5,-282.18"/>
</g>
<!-- 43 -->
<g id="node44" class="node">
<title>43</title>
<text text-anchor="start" x="2203.5" y="-253.8" font-family="Arial" font-weight="bold" font-size="14.00"> &lt; 4.15</text>
<path fill="#ebebeb" stroke="transparent" d="M2183,-181C2183,-181 2267,-181 2267,-181 2273,-181 2279,-187 2279,-193 2279,-193 2279,-233 2279,-233 2279,-239 2273,-245 2267,-245 2267,-245 2183,-245 2183,-245 2177,-245 2171,-239 2171,-233 2171,-233 2171,-193 2171,-193 2171,-187 2177,-181 2183,-181"/>
<text text-anchor="start" x="2172" y="-242.4" font-family="Arial" font-size="2.00"> </text>
<text text-anchor="start" x="2172" y="-236.4" font-family="Arial" font-size="7.00"> &#160;43</text>
<text text-anchor="start" x="2186" y="-219.8" font-family="Arial" font-weight="bold" font-size="14.00">Mean: 10.18</text>
<text text-anchor="start" x="2205" y="-202.8" font-family="Arial" font-weight="bold" font-size="14.00">n = 31</text>
<text text-anchor="start" x="2223.5" y="-184.8" font-family="Arial" font-size="9.00"> </text>
<path fill="none" stroke="#333333" d="M2183,-181C2183,-181 2267,-181 2267,-181 2273,-181 2279,-187 2279,-193 2279,-193 2279,-233 2279,-233 2279,-239 2273,-245 2267,-245 2267,-245 2183,-245 2183,-245 2177,-245 2171,-239 2171,-233 2171,-233 2171,-193 2171,-193 2171,-187 2177,-181 2183,-181"/>
<text text-anchor="start" x="2189.5" y="-166.8" font-family="Arial" font-weight="bold" font-size="14.00">windspeed</text>
</g>
<!-- 42&#45;&gt;43 -->
<g id="edge43" class="edge">
<title>42&#45;&gt;43</title>
<path fill="none" stroke="#888888" d="M2225.62,-307.67C2225.56,-299.39 2225.51,-290.83 2225.45,-282.38"/>
<polygon fill="#888888" stroke="#888888" points="2228.95,-282.15 2225.38,-272.18 2221.95,-282.2 2228.95,-282.15"/>
</g>
<!-- 46 -->
<g id="node45" class="node">
<title>46</title>
<text text-anchor="start" x="2357" y="-253.8" font-family="Arial" font-weight="bold" font-size="14.00"> ≥ 4.15</text>
<path fill="#ebebeb" stroke="transparent" d="M2336,-181C2336,-181 2420,-181 2420,-181 2426,-181 2432,-187 2432,-193 2432,-193 2432,-233 2432,-233 2432,-239 2426,-245 2420,-245 2420,-245 2336,-245 2336,-245 2330,-245 2324,-239 2324,-233 2324,-233 2324,-193 2324,-193 2324,-187 2330,-181 2336,-181"/>
<text text-anchor="start" x="2325" y="-242.4" font-family="Arial" font-size="2.00"> </text>
<text text-anchor="start" x="2325" y="-236.4" font-family="Arial" font-size="7.00"> &#160;46</text>
<text text-anchor="start" x="2339" y="-219.8" font-family="Arial" font-weight="bold" font-size="14.00">Mean: 9.414</text>
<text text-anchor="start" x="2354.5" y="-202.8" font-family="Arial" font-weight="bold" font-size="14.00">n = 149</text>
<text text-anchor="start" x="2376.5" y="-184.8" font-family="Arial" font-size="9.00"> </text>
<path fill="none" stroke="#333333" d="M2336,-181C2336,-181 2420,-181 2420,-181 2426,-181 2432,-187 2432,-193 2432,-193 2432,-233 2432,-233 2432,-239 2426,-245 2420,-245 2420,-245 2336,-245 2336,-245 2330,-245 2324,-239 2324,-233 2324,-233 2324,-193 2324,-193 2324,-187 2330,-181 2336,-181"/>
<text text-anchor="start" x="2363.5" y="-166.8" font-family="Arial" font-weight="bold" font-size="14.00">time</text>
</g>
<!-- 42&#45;&gt;46 -->
<g id="edge44" class="edge">
<title>42&#45;&gt;46</title>
<path fill="none" stroke="#888888" d="M2284.33,-307.67C2293.61,-298.39 2303.25,-288.75 2312.67,-279.33"/>
<polygon fill="#888888" stroke="#888888" points="2315.23,-281.72 2319.82,-272.18 2310.28,-276.77 2315.23,-281.72"/>
</g>
<!-- 44 -->
<g id="node46" class="node">
<title>44</title>
<text text-anchor="start" x="2044.5" y="-99.8" font-family="Arial" font-weight="bold" font-size="14.00"> &lt; 61.5</text>
<path fill="#f8766d" fill-opacity="0.658824" stroke="transparent" d="M2021,-27C2021,-27 2111,-27 2111,-27 2117,-27 2123,-33 2123,-39 2123,-39 2123,-79 2123,-79 2123,-85 2117,-91 2111,-91 2111,-91 2021,-91 2021,-91 2015,-91 2009,-85 2009,-79 2009,-79 2009,-39 2009,-39 2009,-33 2015,-27 2021,-27"/>
<text text-anchor="start" x="2010" y="-88.4" font-family="Arial" font-size="2.00"> </text>
<text text-anchor="start" x="2010" y="-82.4" font-family="Arial" font-size="7.00"> &#160;44</text>
<text text-anchor="start" x="2024" y="-65.8" font-family="Arial" font-weight="bold" font-size="14.00">Predict 9.954</text>
<text text-anchor="start" x="2046" y="-48.8" font-family="Arial" font-weight="bold" font-size="14.00">n = 29</text>
<text text-anchor="start" x="2064.5" y="-30.8" font-family="Arial" font-size="9.00"> </text>
<path fill="none" stroke="#333333" d="M2021,-27C2021,-27 2111,-27 2111,-27 2117,-27 2123,-33 2123,-39 2123,-39 2123,-79 2123,-79 2123,-85 2117,-91 2111,-91 2111,-91 2021,-91 2021,-91 2015,-91 2009,-85 2009,-79 2009,-79 2009,-39 2009,-39 2009,-33 2015,-27 2021,-27"/>
<text text-anchor="start" x="2064" y="-12.8" font-family="Arial" font-weight="bold" font-size="14.00"> </text>
</g>
<!-- 43&#45;&gt;44 -->
<g id="edge45" class="edge">
<title>43&#45;&gt;44</title>
<path fill="none" stroke="#888888" d="M2163.98,-153.67C2154.28,-144.39 2144.19,-134.75 2134.34,-125.33"/>
<polygon fill="#888888" stroke="#888888" points="2136.5,-122.56 2126.86,-118.18 2131.67,-127.62 2136.5,-122.56"/>
</g>
<!-- 45 -->
<g id="node47" class="node">
<title>45</title>
<text text-anchor="start" x="2201" y="-99.8" font-family="Arial" font-weight="bold" font-size="14.00"> ≥ 61.5</text>
<path fill="#f8766d" fill-opacity="0.537255" stroke="transparent" d="M2177,-27C2177,-27 2267,-27 2267,-27 2273,-27 2279,-33 2279,-39 2279,-39 2279,-79 2279,-79 2279,-85 2273,-91 2267,-91 2267,-91 2177,-91 2177,-91 2171,-91 2165,-85 2165,-79 2165,-79 2165,-39 2165,-39 2165,-33 2171,-27 2177,-27"/>
<text text-anchor="start" x="2166" y="-88.4" font-family="Arial" font-size="2.00"> </text>
<text text-anchor="start" x="2166" y="-82.4" font-family="Arial" font-size="7.00"> &#160;45</text>
<text text-anchor="start" x="2180" y="-65.8" font-family="Arial" font-weight="bold" font-size="14.00">Predict 13.38</text>
<text text-anchor="start" x="2206" y="-48.8" font-family="Arial" font-weight="bold" font-size="14.00">n = 2</text>
<text text-anchor="start" x="2220.5" y="-30.8" font-family="Arial" font-size="9.00"> </text>
<path fill="none" stroke="#333333" d="M2177,-27C2177,-27 2267,-27 2267,-27 2273,-27 2279,-33 2279,-39 2279,-39 2279,-79 2279,-79 2279,-85 2273,-91 2267,-91 2267,-91 2177,-91 2177,-91 2171,-91 2165,-85 2165,-79 2165,-79 2165,-39 2165,-39 2165,-33 2171,-27 2177,-27"/>
<text text-anchor="start" x="2220" y="-12.8" font-family="Arial" font-weight="bold" font-size="14.00"> </text>
</g>
<!-- 43&#45;&gt;45 -->
<g id="edge46" class="edge">
<title>43&#45;&gt;45</title>
<path fill="none" stroke="#888888" d="M2223.85,-153.67C2223.69,-145.39 2223.52,-136.83 2223.35,-128.38"/>
<polygon fill="#888888" stroke="#888888" points="2226.84,-128.11 2223.15,-118.18 2219.85,-128.24 2226.84,-128.11"/>
</g>
<!-- 47 -->
<g id="node48" class="node">
<title>47</title>
<text text-anchor="start" x="2356.5" y="-99.8" font-family="Arial" font-weight="bold" font-size="14.00"> &lt; 14.5</text>
<path fill="#f8766d" fill-opacity="0.674510" stroke="transparent" d="M2333,-27C2333,-27 2423,-27 2423,-27 2429,-27 2435,-33 2435,-39 2435,-39 2435,-79 2435,-79 2435,-85 2429,-91 2423,-91 2423,-91 2333,-91 2333,-91 2327,-91 2321,-85 2321,-79 2321,-79 2321,-39 2321,-39 2321,-33 2327,-27 2333,-27"/>
<text text-anchor="start" x="2322" y="-88.4" font-family="Arial" font-size="2.00"> </text>
<text text-anchor="start" x="2322" y="-82.4" font-family="Arial" font-size="7.00"> &#160;47</text>
<text text-anchor="start" x="2336" y="-65.8" font-family="Arial" font-weight="bold" font-size="14.00">Predict 9.515</text>
<text text-anchor="start" x="2354.5" y="-48.8" font-family="Arial" font-weight="bold" font-size="14.00">n = 130</text>
<text text-anchor="start" x="2376.5" y="-30.8" font-family="Arial" font-size="9.00"> </text>
<path fill="none" stroke="#333333" d="M2333,-27C2333,-27 2423,-27 2423,-27 2429,-27 2435,-33 2435,-39 2435,-39 2435,-79 2435,-79 2435,-85 2429,-91 2423,-91 2423,-91 2333,-91 2333,-91 2327,-91 2321,-85 2321,-79 2321,-79 2321,-39 2321,-39 2321,-33 2327,-27 2333,-27"/>
<text text-anchor="start" x="2376" y="-12.8" font-family="Arial" font-weight="bold" font-size="14.00"> </text>
</g>
<!-- 46&#45;&gt;47 -->
<g id="edge47" class="edge">
<title>46&#45;&gt;47</title>
<path fill="none" stroke="#888888" d="M2378,-153.67C2378,-145.39 2378,-136.83 2378,-128.38"/>
<polygon fill="#888888" stroke="#888888" points="2381.5,-128.18 2378,-118.18 2374.5,-128.18 2381.5,-128.18"/>
</g>
<!-- 48 -->
<g id="node49" class="node">
<title>48</title>
<text text-anchor="start" x="2513" y="-99.8" font-family="Arial" font-weight="bold" font-size="14.00"> ≥ 14.5</text>
<path fill="#f8766d" fill-opacity="0.701961" stroke="transparent" d="M2489,-27C2489,-27 2579,-27 2579,-27 2585,-27 2591,-33 2591,-39 2591,-39 2591,-79 2591,-79 2591,-85 2585,-91 2579,-91 2579,-91 2489,-91 2489,-91 2483,-91 2477,-85 2477,-79 2477,-79 2477,-39 2477,-39 2477,-33 2483,-27 2489,-27"/>
<text text-anchor="start" x="2478" y="-88.4" font-family="Arial" font-size="2.00"> </text>
<text text-anchor="start" x="2478" y="-82.4" font-family="Arial" font-size="7.00"> &#160;48</text>
<text text-anchor="start" x="2492" y="-65.8" font-family="Arial" font-weight="bold" font-size="14.00">Predict 8.722</text>
<text text-anchor="start" x="2514" y="-48.8" font-family="Arial" font-weight="bold" font-size="14.00">n = 19</text>
<text text-anchor="start" x="2532.5" y="-30.8" font-family="Arial" font-size="9.00"> </text>
<path fill="none" stroke="#333333" d="M2489,-27C2489,-27 2579,-27 2579,-27 2585,-27 2591,-33 2591,-39 2591,-39 2591,-79 2591,-79 2591,-85 2585,-91 2579,-91 2579,-91 2489,-91 2489,-91 2483,-91 2477,-85 2477,-79 2477,-79 2477,-39 2477,-39 2477,-33 2483,-27 2489,-27"/>
<text text-anchor="start" x="2532" y="-12.8" font-family="Arial" font-weight="bold" font-size="14.00"> </text>
</g>
<!-- 46&#45;&gt;48 -->
<g id="edge48" class="edge">
<title>46&#45;&gt;48</title>
<path fill="none" stroke="#888888" d="M2437.87,-153.67C2447.38,-144.39 2457.28,-134.75 2466.95,-125.33"/>
<polygon fill="#888888" stroke="#888888" points="2469.57,-127.66 2474.29,-118.18 2464.69,-122.65 2469.57,-127.66"/>
</g>
<!-- 51 -->
<g id="node52" class="node">
<title>51</title>
<text text-anchor="start" x="2672.5" y="-253.8" font-family="Arial" font-weight="bold" font-size="14.00"> &lt; 2.5</text>
<path fill="#ebebeb" stroke="transparent" d="M2648,-181C2648,-181 2732,-181 2732,-181 2738,-181 2744,-187 2744,-193 2744,-193 2744,-233 2744,-233 2744,-239 2738,-245 2732,-245 2732,-245 2648,-245 2648,-245 2642,-245 2636,-239 2636,-233 2636,-233 2636,-193 2636,-193 2636,-187 2642,-181 2648,-181"/>
<text text-anchor="start" x="2637" y="-242.4" font-family="Arial" font-size="2.00"> </text>
<text text-anchor="start" x="2637" y="-236.4" font-family="Arial" font-size="7.00"> &#160;51</text>
<text text-anchor="start" x="2651" y="-219.8" font-family="Arial" font-weight="bold" font-size="14.00">Mean: 8.022</text>
<text text-anchor="start" x="2670" y="-202.8" font-family="Arial" font-weight="bold" font-size="14.00">n = 83</text>
<text text-anchor="start" x="2688.5" y="-184.8" font-family="Arial" font-size="9.00"> </text>
<path fill="none" stroke="#333333" d="M2648,-181C2648,-181 2732,-181 2732,-181 2738,-181 2744,-187 2744,-193 2744,-193 2744,-233 2744,-233 2744,-239 2738,-245 2732,-245 2732,-245 2648,-245 2648,-245 2642,-245 2636,-239 2636,-233 2636,-233 2636,-193 2636,-193 2636,-187 2642,-181 2648,-181"/>
<text text-anchor="start" x="2661" y="-166.8" font-family="Arial" font-weight="bold" font-size="14.00">air_temp</text>
</g>
<!-- 50&#45;&gt;51 -->
<g id="edge51" class="edge">
<title>50&#45;&gt;51</title>
<path fill="none" stroke="#888888" d="M2690,-307.67C2690,-299.39 2690,-290.83 2690,-282.38"/>
<polygon fill="#888888" stroke="#888888" points="2693.5,-282.18 2690,-272.18 2686.5,-282.18 2693.5,-282.18"/>
</g>
<!-- 54 -->
<g id="node53" class="node">
<title>54</title>
<text text-anchor="start" x="2826" y="-253.8" font-family="Arial" font-weight="bold" font-size="14.00"> ≥ 2.5</text>
<path fill="#f8766d" fill-opacity="0.749020" stroke="transparent" d="M2798,-181C2798,-181 2888,-181 2888,-181 2894,-181 2900,-187 2900,-193 2900,-193 2900,-233 2900,-233 2900,-239 2894,-245 2888,-245 2888,-245 2798,-245 2798,-245 2792,-245 2786,-239 2786,-233 2786,-233 2786,-193 2786,-193 2786,-187 2792,-181 2798,-181"/>
<text text-anchor="start" x="2787" y="-242.4" font-family="Arial" font-size="2.00"> </text>
<text text-anchor="start" x="2787" y="-236.4" font-family="Arial" font-size="7.00"> &#160;54</text>
<text text-anchor="start" x="2801" y="-219.8" font-family="Arial" font-weight="bold" font-size="14.00">Predict 7.324</text>
<text text-anchor="start" x="2823" y="-202.8" font-family="Arial" font-weight="bold" font-size="14.00">n = 14</text>
<text text-anchor="start" x="2841.5" y="-184.8" font-family="Arial" font-size="9.00"> </text>
<path fill="none" stroke="#333333" d="M2798,-181C2798,-181 2888,-181 2888,-181 2894,-181 2900,-187 2900,-193 2900,-193 2900,-233 2900,-233 2900,-239 2894,-245 2888,-245 2888,-245 2798,-245 2798,-245 2792,-245 2786,-239 2786,-233 2786,-233 2786,-193 2786,-193 2786,-187 2792,-181 2798,-181"/>
<text text-anchor="start" x="2841" y="-166.8" font-family="Arial" font-weight="bold" font-size="14.00"> </text>
</g>
<!-- 50&#45;&gt;54 -->
<g id="edge52" class="edge">
<title>50&#45;&gt;54</title>
<path fill="none" stroke="#888888" d="M2748.72,-307.67C2758.05,-298.39 2767.76,-288.75 2777.24,-279.33"/>
<polygon fill="#888888" stroke="#888888" points="2779.81,-281.71 2784.44,-272.18 2774.88,-276.74 2779.81,-281.71"/>
</g>
<!-- 52 -->
<g id="node54" class="node">
<title>52</title>
<text text-anchor="start" x="2672.5" y="-99.8" font-family="Arial" font-weight="bold" font-size="14.00"> &lt; 2.7</text>
<path fill="#f8766d" fill-opacity="0.686275" stroke="transparent" d="M2645,-27C2645,-27 2735,-27 2735,-27 2741,-27 2747,-33 2747,-39 2747,-39 2747,-79 2747,-79 2747,-85 2741,-91 2735,-91 2735,-91 2645,-91 2645,-91 2639,-91 2633,-85 2633,-79 2633,-79 2633,-39 2633,-39 2633,-33 2639,-27 2645,-27"/>
<text text-anchor="start" x="2634" y="-88.4" font-family="Arial" font-size="2.00"> </text>
<text text-anchor="start" x="2634" y="-82.4" font-family="Arial" font-size="7.00"> &#160;52</text>
<text text-anchor="start" x="2648" y="-65.8" font-family="Arial" font-weight="bold" font-size="14.00">Predict 9.217</text>
<text text-anchor="start" x="2674" y="-48.8" font-family="Arial" font-weight="bold" font-size="14.00">n = 3</text>
<text text-anchor="start" x="2688.5" y="-30.8" font-family="Arial" font-size="9.00"> </text>
<path fill="none" stroke="#333333" d="M2645,-27C2645,-27 2735,-27 2735,-27 2741,-27 2747,-33 2747,-39 2747,-39 2747,-79 2747,-79 2747,-85 2741,-91 2735,-91 2735,-91 2645,-91 2645,-91 2639,-91 2633,-85 2633,-79 2633,-79 2633,-39 2633,-39 2633,-33 2639,-27 2645,-27"/>
<text text-anchor="start" x="2688" y="-12.8" font-family="Arial" font-weight="bold" font-size="14.00"> </text>
</g>
<!-- 51&#45;&gt;52 -->
<g id="edge53" class="edge">
<title>51&#45;&gt;52</title>
<path fill="none" stroke="#888888" d="M2690,-153.67C2690,-145.39 2690,-136.83 2690,-128.38"/>
<polygon fill="#888888" stroke="#888888" points="2693.5,-128.18 2690,-118.18 2686.5,-128.18 2693.5,-128.18"/>
</g>
<!-- 53 -->
<g id="node55" class="node">
<title>53</title>
<text text-anchor="start" x="2829" y="-99.8" font-family="Arial" font-weight="bold" font-size="14.00"> ≥ 2.7</text>
<path fill="#f8766d" fill-opacity="0.729412" stroke="transparent" d="M2801,-27C2801,-27 2891,-27 2891,-27 2897,-27 2903,-33 2903,-39 2903,-39 2903,-79 2903,-79 2903,-85 2897,-91 2891,-91 2891,-91 2801,-91 2801,-91 2795,-91 2789,-85 2789,-79 2789,-79 2789,-39 2789,-39 2789,-33 2795,-27 2801,-27"/>
<text text-anchor="start" x="2790" y="-88.4" font-family="Arial" font-size="2.00"> </text>
<text text-anchor="start" x="2790" y="-82.4" font-family="Arial" font-size="7.00"> &#160;53</text>
<text text-anchor="start" x="2804" y="-65.8" font-family="Arial" font-weight="bold" font-size="14.00">Predict 7.977</text>
<text text-anchor="start" x="2826" y="-48.8" font-family="Arial" font-weight="bold" font-size="14.00">n = 80</text>
<text text-anchor="start" x="2844.5" y="-30.8" font-family="Arial" font-size="9.00"> </text>
<path fill="none" stroke="#333333" d="M2801,-27C2801,-27 2891,-27 2891,-27 2897,-27 2903,-33 2903,-39 2903,-39 2903,-79 2903,-79 2903,-85 2897,-91 2891,-91 2891,-91 2801,-91 2801,-91 2795,-91 2789,-85 2789,-79 2789,-79 2789,-39 2789,-39 2789,-33 2795,-27 2801,-27"/>
<text text-anchor="start" x="2844" y="-12.8" font-family="Arial" font-weight="bold" font-size="14.00"> </text>
</g>
<!-- 51&#45;&gt;53 -->
<g id="edge54" class="edge">
<title>51&#45;&gt;53</title>
<path fill="none" stroke="#888888" d="M2749.87,-153.67C2759.38,-144.39 2769.28,-134.75 2778.95,-125.33"/>
<polygon fill="#888888" stroke="#888888" points="2781.57,-127.66 2786.29,-118.18 2776.69,-122.65 2781.57,-127.66"/>
</g>
</g>
</svg>
