<?xml version="1.0" encoding="utf-8"?>
<svg xmlns="http://www.w3.org/2000/svg" xmlns:xlink="http://www.w3.org/1999/xlink" width="1000" height="400" viewBox="0 0 4000 1600">
<defs>
  <clipPath id="clip270">
    <rect x="0" y="0" width="4000" height="1600"/>
  </clipPath>
</defs>
<path clip-path="url(#clip270)" d="M0 1600 L4000 1600 L4000 0 L0 0  Z" fill="#ffffff" fill-rule="evenodd" fill-opacity="1"/>
<defs>
  <clipPath id="clip271">
    <rect x="800" y="0" width="2801" height="1600"/>
  </clipPath>
</defs>
<path clip-path="url(#clip270)" d="M205.077 1497.68 L3180.41 1497.68 L3180.41 47.2441 L205.077 47.2441  Z" fill="#ffffff" fill-rule="evenodd" fill-opacity="1"/>
<defs>
  <clipPath id="clip272">
    <rect x="205" y="47" width="2976" height="1451"/>
  </clipPath>
</defs>
<polyline clip-path="url(#clip272)" style="stroke:#000000; stroke-linecap:round; stroke-linejoin:round; stroke-width:2; stroke-opacity:0.1; fill:none" points="289.284,1497.68 289.284,47.2441 "/>
<polyline clip-path="url(#clip272)" style="stroke:#000000; stroke-linecap:round; stroke-linejoin:round; stroke-width:2; stroke-opacity:0.1; fill:none" points="1096.06,1497.68 1096.06,47.2441 "/>
<polyline clip-path="url(#clip272)" style="stroke:#000000; stroke-linecap:round; stroke-linejoin:round; stroke-width:2; stroke-opacity:0.1; fill:none" points="1902.84,1497.68 1902.84,47.2441 "/>
<polyline clip-path="url(#clip272)" style="stroke:#000000; stroke-linecap:round; stroke-linejoin:round; stroke-width:2; stroke-opacity:0.1; fill:none" points="2709.62,1497.68 2709.62,47.2441 "/>
<polyline clip-path="url(#clip270)" style="stroke:#000000; stroke-linecap:round; stroke-linejoin:round; stroke-width:4; stroke-opacity:1; fill:none" points="205.077,1497.68 3180.41,1497.68 "/>
<polyline clip-path="url(#clip270)" style="stroke:#000000; stroke-linecap:round; stroke-linejoin:round; stroke-width:4; stroke-opacity:1; fill:none" points="289.284,1497.68 289.284,1478.78 "/>
<polyline clip-path="url(#clip270)" style="stroke:#000000; stroke-linecap:round; stroke-linejoin:round; stroke-width:4; stroke-opacity:1; fill:none" points="1096.06,1497.68 1096.06,1478.78 "/>
<polyline clip-path="url(#clip270)" style="stroke:#000000; stroke-linecap:round; stroke-linejoin:round; stroke-width:4; stroke-opacity:1; fill:none" points="1902.84,1497.68 1902.84,1478.78 "/>
<polyline clip-path="url(#clip270)" style="stroke:#000000; stroke-linecap:round; stroke-linejoin:round; stroke-width:4; stroke-opacity:1; fill:none" points="2709.62,1497.68 2709.62,1478.78 "/>
<path clip-path="url(#clip270)" d="M144.272 1573.85 L162.631 1573.85 L162.631 1578.28 L137.944 1578.28 L137.944 1573.85 Q140.939 1570.75 146.095 1565.55 Q151.277 1560.31 152.605 1558.8 Q155.131 1555.96 156.121 1554.01 Q157.136 1552.03 157.136 1550.13 Q157.136 1547.03 154.949 1545.08 Q152.787 1543.12 149.298 1543.12 Q146.824 1543.12 144.063 1543.98 Q141.329 1544.84 138.204 1546.59 L138.204 1541.27 Q141.381 1540 144.142 1539.35 Q146.902 1538.7 149.194 1538.7 Q155.235 1538.7 158.829 1541.72 Q162.423 1544.74 162.423 1549.79 Q162.423 1552.19 161.511 1554.35 Q160.626 1556.48 158.256 1559.4 Q157.605 1560.15 154.116 1563.77 Q150.626 1567.37 144.272 1573.85 Z" fill="#000000" fill-rule="nonzero" fill-opacity="1" /><path clip-path="url(#clip270)" d="M184.923 1542.86 Q180.86 1542.86 178.803 1546.87 Q176.772 1550.86 176.772 1558.88 Q176.772 1566.87 178.803 1570.88 Q180.86 1574.87 184.923 1574.87 Q189.011 1574.87 191.042 1570.88 Q193.1 1566.87 193.1 1558.88 Q193.1 1550.86 191.042 1546.87 Q189.011 1542.86 184.923 1542.86 M184.923 1538.7 Q191.459 1538.7 194.897 1543.88 Q198.36 1549.04 198.36 1558.88 Q198.36 1568.7 194.897 1573.88 Q191.459 1579.04 184.923 1579.04 Q178.386 1579.04 174.923 1573.88 Q171.485 1568.7 171.485 1558.88 Q171.485 1549.04 174.923 1543.88 Q178.386 1538.7 184.923 1538.7 Z" fill="#000000" fill-rule="nonzero" fill-opacity="1" /><path clip-path="url(#clip270)" d="M212.136 1573.85 L230.495 1573.85 L230.495 1578.28 L205.808 1578.28 L205.808 1573.85 Q208.803 1570.75 213.959 1565.55 Q219.141 1560.31 220.469 1558.8 Q222.995 1555.96 223.985 1554.01 Q225.001 1552.03 225.001 1550.13 Q225.001 1547.03 222.813 1545.08 Q220.652 1543.12 217.162 1543.12 Q214.688 1543.12 211.928 1543.98 Q209.193 1544.84 206.068 1546.59 L206.068 1541.27 Q209.245 1540 212.006 1539.35 Q214.766 1538.7 217.058 1538.7 Q223.1 1538.7 226.693 1541.72 Q230.287 1544.74 230.287 1549.79 Q230.287 1552.19 229.376 1554.35 Q228.49 1556.48 226.12 1559.4 Q225.469 1560.15 221.98 1563.77 Q218.49 1567.37 212.136 1573.85 Z" fill="#000000" fill-rule="nonzero" fill-opacity="1" /><path clip-path="url(#clip270)" d="M257.474 1557.32 Q261.25 1558.12 263.36 1560.68 Q265.495 1563.23 265.495 1566.98 Q265.495 1572.73 261.537 1575.88 Q257.579 1579.04 250.287 1579.04 Q247.839 1579.04 245.235 1578.54 Q242.657 1578.07 239.896 1577.11 L239.896 1572.03 Q242.084 1573.31 244.688 1573.96 Q247.292 1574.61 250.131 1574.61 Q255.079 1574.61 257.657 1572.65 Q260.261 1570.7 260.261 1566.98 Q260.261 1563.54 257.839 1561.61 Q255.443 1559.66 251.146 1559.66 L246.615 1559.66 L246.615 1555.34 L251.355 1555.34 Q255.235 1555.34 257.292 1553.8 Q259.349 1552.24 259.349 1549.32 Q259.349 1546.33 257.214 1544.74 Q255.105 1543.12 251.146 1543.12 Q248.985 1543.12 246.511 1543.59 Q244.037 1544.06 241.068 1545.05 L241.068 1540.36 Q244.063 1539.53 246.667 1539.11 Q249.297 1538.7 251.615 1538.7 Q257.605 1538.7 261.094 1541.43 Q264.584 1544.14 264.584 1548.77 Q264.584 1552 262.735 1554.24 Q260.886 1556.46 257.474 1557.32 Z" fill="#000000" fill-rule="nonzero" fill-opacity="1" /><path clip-path="url(#clip270)" d="M272.37 1561.54 L286.406 1561.54 L286.406 1565.81 L272.37 1565.81 L272.37 1561.54 Z" fill="#000000" fill-rule="nonzero" fill-opacity="1" /><path clip-path="url(#clip270)" d="M305.964 1542.86 Q301.901 1542.86 299.844 1546.87 Q297.813 1550.86 297.813 1558.88 Q297.813 1566.87 299.844 1570.88 Q301.901 1574.87 305.964 1574.87 Q310.052 1574.87 312.083 1570.88 Q314.141 1566.87 314.141 1558.88 Q314.141 1550.86 312.083 1546.87 Q310.052 1542.86 305.964 1542.86 M305.964 1538.7 Q312.5 1538.7 315.938 1543.88 Q319.401 1549.04 319.401 1558.88 Q319.401 1568.7 315.938 1573.88 Q312.5 1579.04 305.964 1579.04 Q299.427 1579.04 295.964 1573.88 Q292.526 1568.7 292.526 1558.88 Q292.526 1549.04 295.964 1543.88 Q299.427 1538.7 305.964 1538.7 Z" fill="#000000" fill-rule="nonzero" fill-opacity="1" /><path clip-path="url(#clip270)" d="M344.583 1557.32 Q348.359 1558.12 350.469 1560.68 Q352.604 1563.23 352.604 1566.98 Q352.604 1572.73 348.646 1575.88 Q344.687 1579.04 337.396 1579.04 Q334.948 1579.04 332.344 1578.54 Q329.766 1578.07 327.005 1577.11 L327.005 1572.03 Q329.193 1573.31 331.797 1573.96 Q334.401 1574.61 337.24 1574.61 Q342.187 1574.61 344.766 1572.65 Q347.37 1570.7 347.37 1566.98 Q347.37 1563.54 344.948 1561.61 Q342.552 1559.66 338.255 1559.66 L333.724 1559.66 L333.724 1555.34 L338.463 1555.34 Q342.344 1555.34 344.401 1553.8 Q346.458 1552.24 346.458 1549.32 Q346.458 1546.33 344.323 1544.74 Q342.213 1543.12 338.255 1543.12 Q336.094 1543.12 333.62 1543.59 Q331.146 1544.06 328.177 1545.05 L328.177 1540.36 Q331.172 1539.53 333.776 1539.11 Q336.406 1538.7 338.724 1538.7 Q344.713 1538.7 348.203 1541.43 Q351.693 1544.14 351.693 1548.77 Q351.693 1552 349.844 1554.24 Q347.995 1556.46 344.583 1557.32 Z" fill="#000000" fill-rule="nonzero" fill-opacity="1" /><path clip-path="url(#clip270)" d="M359.479 1561.54 L373.515 1561.54 L373.515 1565.81 L359.479 1565.81 L359.479 1561.54 Z" fill="#000000" fill-rule="nonzero" fill-opacity="1" /><path clip-path="url(#clip270)" d="M393.073 1542.86 Q389.01 1542.86 386.953 1546.87 Q384.922 1550.86 384.922 1558.88 Q384.922 1566.87 386.953 1570.88 Q389.01 1574.87 393.073 1574.87 Q397.161 1574.87 399.192 1570.88 Q401.25 1566.87 401.25 1558.88 Q401.25 1550.86 399.192 1546.87 Q397.161 1542.86 393.073 1542.86 M393.073 1538.7 Q399.609 1538.7 403.046 1543.88 Q406.51 1549.04 406.51 1558.88 Q406.51 1568.7 403.046 1573.88 Q399.609 1579.04 393.073 1579.04 Q386.536 1579.04 383.073 1573.88 Q379.635 1568.7 379.635 1558.88 Q379.635 1549.04 383.073 1543.88 Q386.536 1538.7 393.073 1538.7 Z" fill="#000000" fill-rule="nonzero" fill-opacity="1" /><path clip-path="url(#clip270)" d="M427.656 1556.74 Q424.114 1556.74 422.031 1559.17 Q419.973 1561.59 419.973 1565.81 Q419.973 1570 422.031 1572.45 Q424.114 1574.87 427.656 1574.87 Q431.197 1574.87 433.255 1572.45 Q435.338 1570 435.338 1565.81 Q435.338 1561.59 433.255 1559.17 Q431.197 1556.74 427.656 1556.74 M438.098 1540.26 L438.098 1545.05 Q436.119 1544.11 434.088 1543.62 Q432.083 1543.12 430.104 1543.12 Q424.895 1543.12 422.135 1546.64 Q419.401 1550.16 419.01 1557.26 Q420.546 1555 422.864 1553.8 Q425.182 1552.58 427.968 1552.58 Q433.828 1552.58 437.213 1556.14 Q440.624 1559.69 440.624 1565.81 Q440.624 1571.8 437.083 1575.42 Q433.541 1579.04 427.656 1579.04 Q420.911 1579.04 417.343 1573.88 Q413.776 1568.7 413.776 1558.88 Q413.776 1549.66 418.151 1544.19 Q422.526 1538.7 429.895 1538.7 Q431.874 1538.7 433.88 1539.09 Q435.911 1539.48 438.098 1540.26 Z" fill="#000000" fill-rule="nonzero" fill-opacity="1" /><path clip-path="url(#clip270)" d="M951.194 1573.85 L969.553 1573.85 L969.553 1578.28 L944.866 1578.28 L944.866 1573.85 Q947.861 1570.75 953.017 1565.55 Q958.199 1560.31 959.527 1558.8 Q962.053 1555.96 963.043 1554.01 Q964.059 1552.03 964.059 1550.13 Q964.059 1547.03 961.871 1545.08 Q959.71 1543.12 956.22 1543.12 Q953.746 1543.12 950.986 1543.98 Q948.251 1544.84 945.126 1546.59 L945.126 1541.27 Q948.304 1540 951.064 1539.35 Q953.824 1538.7 956.116 1538.7 Q962.158 1538.7 965.751 1541.72 Q969.345 1544.74 969.345 1549.79 Q969.345 1552.19 968.434 1554.35 Q967.548 1556.48 965.178 1559.4 Q964.527 1560.15 961.038 1563.77 Q957.548 1567.37 951.194 1573.85 Z" fill="#000000" fill-rule="nonzero" fill-opacity="1" /><path clip-path="url(#clip270)" d="M991.845 1542.86 Q987.782 1542.86 985.725 1546.87 Q983.694 1550.86 983.694 1558.88 Q983.694 1566.87 985.725 1570.88 Q987.782 1574.87 991.845 1574.87 Q995.933 1574.87 997.965 1570.88 Q1000.02 1566.87 1000.02 1558.88 Q1000.02 1550.86 997.965 1546.87 Q995.933 1542.86 991.845 1542.86 M991.845 1538.7 Q998.381 1538.7 1001.82 1543.88 Q1005.28 1549.04 1005.28 1558.88 Q1005.28 1568.7 1001.82 1573.88 Q998.381 1579.04 991.845 1579.04 Q985.309 1579.04 981.845 1573.88 Q978.408 1568.7 978.408 1558.88 Q978.408 1549.04 981.845 1543.88 Q985.309 1538.7 991.845 1538.7 Z" fill="#000000" fill-rule="nonzero" fill-opacity="1" /><path clip-path="url(#clip270)" d="M1019.06 1573.85 L1037.42 1573.85 L1037.42 1578.28 L1012.73 1578.28 L1012.73 1573.85 Q1015.73 1570.75 1020.88 1565.55 Q1026.06 1560.31 1027.39 1558.8 Q1029.92 1555.96 1030.91 1554.01 Q1031.92 1552.03 1031.92 1550.13 Q1031.92 1547.03 1029.74 1545.08 Q1027.57 1543.12 1024.08 1543.12 Q1021.61 1543.12 1018.85 1543.98 Q1016.12 1544.84 1012.99 1546.59 L1012.99 1541.27 Q1016.17 1540 1018.93 1539.35 Q1021.69 1538.7 1023.98 1538.7 Q1030.02 1538.7 1033.62 1541.72 Q1037.21 1544.74 1037.21 1549.79 Q1037.21 1552.19 1036.3 1554.35 Q1035.41 1556.48 1033.04 1559.4 Q1032.39 1560.15 1028.9 1563.77 Q1025.41 1567.37 1019.06 1573.85 Z" fill="#000000" fill-rule="nonzero" fill-opacity="1" /><path clip-path="url(#clip270)" d="M1064.4 1557.32 Q1068.17 1558.12 1070.28 1560.68 Q1072.42 1563.23 1072.42 1566.98 Q1072.42 1572.73 1068.46 1575.88 Q1064.5 1579.04 1057.21 1579.04 Q1054.76 1579.04 1052.16 1578.54 Q1049.58 1578.07 1046.82 1577.11 L1046.82 1572.03 Q1049.01 1573.31 1051.61 1573.96 Q1054.21 1574.61 1057.05 1574.61 Q1062 1574.61 1064.58 1572.65 Q1067.18 1570.7 1067.18 1566.98 Q1067.18 1563.54 1064.76 1561.61 Q1062.37 1559.66 1058.07 1559.66 L1053.54 1559.66 L1053.54 1555.34 L1058.28 1555.34 Q1062.16 1555.34 1064.21 1553.8 Q1066.27 1552.24 1066.27 1549.32 Q1066.27 1546.33 1064.14 1544.74 Q1062.03 1543.12 1058.07 1543.12 Q1055.91 1543.12 1053.43 1543.59 Q1050.96 1544.06 1047.99 1545.05 L1047.99 1540.36 Q1050.99 1539.53 1053.59 1539.11 Q1056.22 1538.7 1058.54 1538.7 Q1064.53 1538.7 1068.02 1541.43 Q1071.51 1544.14 1071.51 1548.77 Q1071.51 1552 1069.66 1554.24 Q1067.81 1556.46 1064.4 1557.32 Z" fill="#000000" fill-rule="nonzero" fill-opacity="1" /><path clip-path="url(#clip270)" d="M1079.29 1561.54 L1093.33 1561.54 L1093.33 1565.81 L1079.29 1565.81 L1079.29 1561.54 Z" fill="#000000" fill-rule="nonzero" fill-opacity="1" /><path clip-path="url(#clip270)" d="M1112.89 1542.86 Q1108.82 1542.86 1106.77 1546.87 Q1104.73 1550.86 1104.73 1558.88 Q1104.73 1566.87 1106.77 1570.88 Q1108.82 1574.87 1112.89 1574.87 Q1116.97 1574.87 1119.01 1570.88 Q1121.06 1566.87 1121.06 1558.88 Q1121.06 1550.86 1119.01 1546.87 Q1116.97 1542.86 1112.89 1542.86 M1112.89 1538.7 Q1119.42 1538.7 1122.86 1543.88 Q1126.32 1549.04 1126.32 1558.88 Q1126.32 1568.7 1122.86 1573.88 Q1119.42 1579.04 1112.89 1579.04 Q1106.35 1579.04 1102.89 1573.88 Q1099.45 1568.7 1099.45 1558.88 Q1099.45 1549.04 1102.89 1543.88 Q1106.35 1538.7 1112.89 1538.7 Z" fill="#000000" fill-rule="nonzero" fill-opacity="1" /><path clip-path="url(#clip270)" d="M1151.51 1557.32 Q1155.28 1558.12 1157.39 1560.68 Q1159.53 1563.23 1159.53 1566.98 Q1159.53 1572.73 1155.57 1575.88 Q1151.61 1579.04 1144.32 1579.04 Q1141.87 1579.04 1139.27 1578.54 Q1136.69 1578.07 1133.93 1577.11 L1133.93 1572.03 Q1136.12 1573.31 1138.72 1573.96 Q1141.32 1574.61 1144.16 1574.61 Q1149.11 1574.61 1151.69 1572.65 Q1154.29 1570.7 1154.29 1566.98 Q1154.29 1563.54 1151.87 1561.61 Q1149.47 1559.66 1145.18 1559.66 L1140.65 1559.66 L1140.65 1555.34 L1145.39 1555.34 Q1149.27 1555.34 1151.32 1553.8 Q1153.38 1552.24 1153.38 1549.32 Q1153.38 1546.33 1151.25 1544.74 Q1149.14 1543.12 1145.18 1543.12 Q1143.02 1543.12 1140.54 1543.59 Q1138.07 1544.06 1135.1 1545.05 L1135.1 1540.36 Q1138.09 1539.53 1140.7 1539.11 Q1143.33 1538.7 1145.65 1538.7 Q1151.64 1538.7 1155.13 1541.43 Q1158.61 1544.14 1158.61 1548.77 Q1158.61 1552 1156.77 1554.24 Q1154.92 1556.46 1151.51 1557.32 Z" fill="#000000" fill-rule="nonzero" fill-opacity="1" /><path clip-path="url(#clip270)" d="M1166.4 1561.54 L1180.44 1561.54 L1180.44 1565.81 L1166.4 1565.81 L1166.4 1561.54 Z" fill="#000000" fill-rule="nonzero" fill-opacity="1" /><path clip-path="url(#clip270)" d="M1199.99 1542.86 Q1195.93 1542.86 1193.88 1546.87 Q1191.84 1550.86 1191.84 1558.88 Q1191.84 1566.87 1193.88 1570.88 Q1195.93 1574.87 1199.99 1574.87 Q1204.08 1574.87 1206.11 1570.88 Q1208.17 1566.87 1208.17 1558.88 Q1208.17 1550.86 1206.11 1546.87 Q1204.08 1542.86 1199.99 1542.86 M1199.99 1538.7 Q1206.53 1538.7 1209.97 1543.88 Q1213.43 1549.04 1213.43 1558.88 Q1213.43 1568.7 1209.97 1573.88 Q1206.53 1579.04 1199.99 1579.04 Q1193.46 1579.04 1189.99 1573.88 Q1186.56 1568.7 1186.56 1558.88 Q1186.56 1549.04 1189.99 1543.88 Q1193.46 1538.7 1199.99 1538.7 Z" fill="#000000" fill-rule="nonzero" fill-opacity="1" /><path clip-path="url(#clip270)" d="M1233.93 1559.82 Q1230.18 1559.82 1228.02 1561.82 Q1225.88 1563.83 1225.88 1567.34 Q1225.88 1570.86 1228.02 1572.86 Q1230.18 1574.87 1233.93 1574.87 Q1237.68 1574.87 1239.84 1572.86 Q1242 1570.83 1242 1567.34 Q1242 1563.83 1239.84 1561.82 Q1237.7 1559.82 1233.93 1559.82 M1228.67 1557.58 Q1225.28 1556.74 1223.38 1554.43 Q1221.51 1552.11 1221.51 1548.77 Q1221.51 1544.11 1224.81 1541.41 Q1228.15 1538.7 1233.93 1538.7 Q1239.73 1538.7 1243.04 1541.41 Q1246.35 1544.11 1246.35 1548.77 Q1246.35 1552.11 1244.45 1554.43 Q1242.57 1556.74 1239.21 1557.58 Q1243.02 1558.46 1245.12 1561.04 Q1247.26 1563.62 1247.26 1567.34 Q1247.26 1572.99 1243.8 1576.01 Q1240.36 1579.04 1233.93 1579.04 Q1227.49 1579.04 1224.03 1576.01 Q1220.59 1572.99 1220.59 1567.34 Q1220.59 1563.62 1222.73 1561.04 Q1224.86 1558.46 1228.67 1557.58 M1226.74 1549.27 Q1226.74 1552.29 1228.61 1553.98 Q1230.52 1555.68 1233.93 1555.68 Q1237.31 1555.68 1239.21 1553.98 Q1241.14 1552.29 1241.14 1549.27 Q1241.14 1546.25 1239.21 1544.56 Q1237.31 1542.86 1233.93 1542.86 Q1230.52 1542.86 1228.61 1544.56 Q1226.74 1546.25 1226.74 1549.27 Z" fill="#000000" fill-rule="nonzero" fill-opacity="1" /><path clip-path="url(#clip270)" d="M1757.92 1573.85 L1776.28 1573.85 L1776.28 1578.28 L1751.59 1578.28 L1751.59 1573.85 Q1754.59 1570.75 1759.74 1565.55 Q1764.93 1560.31 1766.25 1558.8 Q1768.78 1555.96 1769.77 1554.01 Q1770.79 1552.03 1770.79 1550.13 Q1770.79 1547.03 1768.6 1545.08 Q1766.44 1543.12 1762.95 1543.12 Q1760.47 1543.12 1757.71 1543.98 Q1754.98 1544.84 1751.85 1546.59 L1751.85 1541.27 Q1755.03 1540 1757.79 1539.35 Q1760.55 1538.7 1762.84 1538.7 Q1768.88 1538.7 1772.48 1541.72 Q1776.07 1544.74 1776.07 1549.79 Q1776.07 1552.19 1775.16 1554.35 Q1774.28 1556.48 1771.91 1559.4 Q1771.25 1560.15 1767.76 1563.77 Q1764.28 1567.37 1757.92 1573.85 Z" fill="#000000" fill-rule="nonzero" fill-opacity="1" /><path clip-path="url(#clip270)" d="M1798.57 1542.86 Q1794.51 1542.86 1792.45 1546.87 Q1790.42 1550.86 1790.42 1558.88 Q1790.42 1566.87 1792.45 1570.88 Q1794.51 1574.87 1798.57 1574.87 Q1802.66 1574.87 1804.69 1570.88 Q1806.75 1566.87 1806.75 1558.88 Q1806.75 1550.86 1804.69 1546.87 Q1802.66 1542.86 1798.57 1542.86 M1798.57 1538.7 Q1805.11 1538.7 1808.55 1543.88 Q1812.01 1549.04 1812.01 1558.88 Q1812.01 1568.7 1808.55 1573.88 Q1805.11 1579.04 1798.57 1579.04 Q1792.04 1579.04 1788.57 1573.88 Q1785.13 1568.7 1785.13 1558.88 Q1785.13 1549.04 1788.57 1543.88 Q1792.04 1538.7 1798.57 1538.7 Z" fill="#000000" fill-rule="nonzero" fill-opacity="1" /><path clip-path="url(#clip270)" d="M1825.79 1573.85 L1844.14 1573.85 L1844.14 1578.28 L1819.46 1578.28 L1819.46 1573.85 Q1822.45 1570.75 1827.61 1565.55 Q1832.79 1560.31 1834.12 1558.8 Q1836.64 1555.96 1837.63 1554.01 Q1838.65 1552.03 1838.65 1550.13 Q1838.65 1547.03 1836.46 1545.08 Q1834.3 1543.12 1830.81 1543.12 Q1828.34 1543.12 1825.58 1543.98 Q1822.84 1544.84 1819.72 1546.59 L1819.72 1541.27 Q1822.89 1540 1825.66 1539.35 Q1828.42 1538.7 1830.71 1538.7 Q1836.75 1538.7 1840.34 1541.72 Q1843.94 1544.74 1843.94 1549.79 Q1843.94 1552.19 1843.02 1554.35 Q1842.14 1556.48 1839.77 1559.4 Q1839.12 1560.15 1835.63 1563.77 Q1832.14 1567.37 1825.79 1573.85 Z" fill="#000000" fill-rule="nonzero" fill-opacity="1" /><path clip-path="url(#clip270)" d="M1871.12 1557.32 Q1874.9 1558.12 1877.01 1560.68 Q1879.14 1563.23 1879.14 1566.98 Q1879.14 1572.73 1875.19 1575.88 Q1871.23 1579.04 1863.94 1579.04 Q1861.49 1579.04 1858.88 1578.54 Q1856.31 1578.07 1853.55 1577.11 L1853.55 1572.03 Q1855.73 1573.31 1858.34 1573.96 Q1860.94 1574.61 1863.78 1574.61 Q1868.73 1574.61 1871.31 1572.65 Q1873.91 1570.7 1873.91 1566.98 Q1873.91 1563.54 1871.49 1561.61 Q1869.09 1559.66 1864.8 1559.66 L1860.26 1559.66 L1860.26 1555.34 L1865 1555.34 Q1868.88 1555.34 1870.94 1553.8 Q1873 1552.24 1873 1549.32 Q1873 1546.33 1870.86 1544.74 Q1868.75 1543.12 1864.8 1543.12 Q1862.63 1543.12 1860.16 1543.59 Q1857.69 1544.06 1854.72 1545.05 L1854.72 1540.36 Q1857.71 1539.53 1860.32 1539.11 Q1862.95 1538.7 1865.26 1538.7 Q1871.25 1538.7 1874.74 1541.43 Q1878.23 1544.14 1878.23 1548.77 Q1878.23 1552 1876.38 1554.24 Q1874.54 1556.46 1871.12 1557.32 Z" fill="#000000" fill-rule="nonzero" fill-opacity="1" /><path clip-path="url(#clip270)" d="M1886.02 1561.54 L1900.06 1561.54 L1900.06 1565.81 L1886.02 1565.81 L1886.02 1561.54 Z" fill="#000000" fill-rule="nonzero" fill-opacity="1" /><path clip-path="url(#clip270)" d="M1919.61 1542.86 Q1915.55 1542.86 1913.49 1546.87 Q1911.46 1550.86 1911.46 1558.88 Q1911.46 1566.87 1913.49 1570.88 Q1915.55 1574.87 1919.61 1574.87 Q1923.7 1574.87 1925.73 1570.88 Q1927.79 1566.87 1927.79 1558.88 Q1927.79 1550.86 1925.73 1546.87 Q1923.7 1542.86 1919.61 1542.86 M1919.61 1538.7 Q1926.15 1538.7 1929.59 1543.88 Q1933.05 1549.04 1933.05 1558.88 Q1933.05 1568.7 1929.59 1573.88 Q1926.15 1579.04 1919.61 1579.04 Q1913.08 1579.04 1909.61 1573.88 Q1906.18 1568.7 1906.18 1558.88 Q1906.18 1549.04 1909.61 1543.88 Q1913.08 1538.7 1919.61 1538.7 Z" fill="#000000" fill-rule="nonzero" fill-opacity="1" /><path clip-path="url(#clip270)" d="M1958.23 1557.32 Q1962.01 1558.12 1964.12 1560.68 Q1966.25 1563.23 1966.25 1566.98 Q1966.25 1572.73 1962.3 1575.88 Q1958.34 1579.04 1951.05 1579.04 Q1948.6 1579.04 1945.99 1578.54 Q1943.41 1578.07 1940.65 1577.11 L1940.65 1572.03 Q1942.84 1573.31 1945.45 1573.96 Q1948.05 1574.61 1950.89 1574.61 Q1955.84 1574.61 1958.41 1572.65 Q1961.02 1570.7 1961.02 1566.98 Q1961.02 1563.54 1958.6 1561.61 Q1956.2 1559.66 1951.9 1559.66 L1947.37 1559.66 L1947.37 1555.34 L1952.11 1555.34 Q1955.99 1555.34 1958.05 1553.8 Q1960.11 1552.24 1960.11 1549.32 Q1960.11 1546.33 1957.97 1544.74 Q1955.86 1543.12 1951.9 1543.12 Q1949.74 1543.12 1947.27 1543.59 Q1944.8 1544.06 1941.83 1545.05 L1941.83 1540.36 Q1944.82 1539.53 1947.43 1539.11 Q1950.06 1538.7 1952.37 1538.7 Q1958.36 1538.7 1961.85 1541.43 Q1965.34 1544.14 1965.34 1548.77 Q1965.34 1552 1963.49 1554.24 Q1961.64 1556.46 1958.23 1557.32 Z" fill="#000000" fill-rule="nonzero" fill-opacity="1" /><path clip-path="url(#clip270)" d="M1973.13 1561.54 L1987.16 1561.54 L1987.16 1565.81 L1973.13 1565.81 L1973.13 1561.54 Z" fill="#000000" fill-rule="nonzero" fill-opacity="1" /><path clip-path="url(#clip270)" d="M1996.38 1573.85 L2004.98 1573.85 L2004.98 1544.19 L1995.63 1546.07 L1995.63 1541.27 L2004.93 1539.4 L2010.19 1539.4 L2010.19 1573.85 L2018.78 1573.85 L2018.78 1578.28 L1996.38 1578.28 L1996.38 1573.85 Z" fill="#000000" fill-rule="nonzero" fill-opacity="1" /><path clip-path="url(#clip270)" d="M2040.65 1542.86 Q2036.59 1542.86 2034.53 1546.87 Q2032.5 1550.86 2032.5 1558.88 Q2032.5 1566.87 2034.53 1570.88 Q2036.59 1574.87 2040.65 1574.87 Q2044.74 1574.87 2046.77 1570.88 Q2048.83 1566.87 2048.83 1558.88 Q2048.83 1550.86 2046.77 1546.87 Q2044.74 1542.86 2040.65 1542.86 M2040.65 1538.7 Q2047.19 1538.7 2050.63 1543.88 Q2054.09 1549.04 2054.09 1558.88 Q2054.09 1568.7 2050.63 1573.88 Q2047.19 1579.04 2040.65 1579.04 Q2034.12 1579.04 2030.65 1573.88 Q2027.22 1568.7 2027.22 1558.88 Q2027.22 1549.04 2030.65 1543.88 Q2034.12 1538.7 2040.65 1538.7 Z" fill="#000000" fill-rule="nonzero" fill-opacity="1" /><path clip-path="url(#clip270)" d="M2565.6 1573.85 L2583.96 1573.85 L2583.96 1578.28 L2559.27 1578.28 L2559.27 1573.85 Q2562.27 1570.75 2567.42 1565.55 Q2572.6 1560.31 2573.93 1558.8 Q2576.46 1555.96 2577.45 1554.01 Q2578.46 1552.03 2578.46 1550.13 Q2578.46 1547.03 2576.28 1545.08 Q2574.11 1543.12 2570.62 1543.12 Q2568.15 1543.12 2565.39 1543.98 Q2562.66 1544.84 2559.53 1546.59 L2559.53 1541.27 Q2562.71 1540 2565.47 1539.35 Q2568.23 1538.7 2570.52 1538.7 Q2576.56 1538.7 2580.16 1541.72 Q2583.75 1544.74 2583.75 1549.79 Q2583.75 1552.19 2582.84 1554.35 Q2581.95 1556.48 2579.58 1559.4 Q2578.93 1560.15 2575.44 1563.77 Q2571.95 1567.37 2565.6 1573.85 Z" fill="#000000" fill-rule="nonzero" fill-opacity="1" /><path clip-path="url(#clip270)" d="M2606.25 1542.86 Q2602.19 1542.86 2600.13 1546.87 Q2598.1 1550.86 2598.1 1558.88 Q2598.1 1566.87 2600.13 1570.88 Q2602.19 1574.87 2606.25 1574.87 Q2610.34 1574.87 2612.37 1570.88 Q2614.43 1566.87 2614.43 1558.88 Q2614.43 1550.86 2612.37 1546.87 Q2610.34 1542.86 2606.25 1542.86 M2606.25 1538.7 Q2612.79 1538.7 2616.22 1543.88 Q2619.69 1549.04 2619.69 1558.88 Q2619.69 1568.7 2616.22 1573.88 Q2612.79 1579.04 2606.25 1579.04 Q2599.71 1579.04 2596.25 1573.88 Q2592.81 1568.7 2592.81 1558.88 Q2592.81 1549.04 2596.25 1543.88 Q2599.71 1538.7 2606.25 1538.7 Z" fill="#000000" fill-rule="nonzero" fill-opacity="1" /><path clip-path="url(#clip270)" d="M2633.46 1573.85 L2651.82 1573.85 L2651.82 1578.28 L2627.13 1578.28 L2627.13 1573.85 Q2630.13 1570.75 2635.29 1565.55 Q2640.47 1560.31 2641.8 1558.8 Q2644.32 1555.96 2645.31 1554.01 Q2646.33 1552.03 2646.33 1550.13 Q2646.33 1547.03 2644.14 1545.08 Q2641.98 1543.12 2638.49 1543.12 Q2636.01 1543.12 2633.25 1543.98 Q2630.52 1544.84 2627.4 1546.59 L2627.4 1541.27 Q2630.57 1540 2633.33 1539.35 Q2636.09 1538.7 2638.38 1538.7 Q2644.43 1538.7 2648.02 1541.72 Q2651.61 1544.74 2651.61 1549.79 Q2651.61 1552.19 2650.7 1554.35 Q2649.82 1556.48 2647.45 1559.4 Q2646.8 1560.15 2643.31 1563.77 Q2639.82 1567.37 2633.46 1573.85 Z" fill="#000000" fill-rule="nonzero" fill-opacity="1" /><path clip-path="url(#clip270)" d="M2678.8 1557.32 Q2682.58 1558.12 2684.69 1560.68 Q2686.82 1563.23 2686.82 1566.98 Q2686.82 1572.73 2682.86 1575.88 Q2678.91 1579.04 2671.61 1579.04 Q2669.17 1579.04 2666.56 1578.54 Q2663.98 1578.07 2661.22 1577.11 L2661.22 1572.03 Q2663.41 1573.31 2666.01 1573.96 Q2668.62 1574.61 2671.46 1574.61 Q2676.41 1574.61 2678.98 1572.65 Q2681.59 1570.7 2681.59 1566.98 Q2681.59 1563.54 2679.17 1561.61 Q2676.77 1559.66 2672.47 1559.66 L2667.94 1559.66 L2667.94 1555.34 L2672.68 1555.34 Q2676.56 1555.34 2678.62 1553.8 Q2680.68 1552.24 2680.68 1549.32 Q2680.68 1546.33 2678.54 1544.74 Q2676.43 1543.12 2672.47 1543.12 Q2670.31 1543.12 2667.84 1543.59 Q2665.36 1544.06 2662.4 1545.05 L2662.4 1540.36 Q2665.39 1539.53 2667.99 1539.11 Q2670.62 1538.7 2672.94 1538.7 Q2678.93 1538.7 2682.42 1541.43 Q2685.91 1544.14 2685.91 1548.77 Q2685.91 1552 2684.06 1554.24 Q2682.21 1556.46 2678.8 1557.32 Z" fill="#000000" fill-rule="nonzero" fill-opacity="1" /><path clip-path="url(#clip270)" d="M2693.7 1561.54 L2707.73 1561.54 L2707.73 1565.81 L2693.7 1565.81 L2693.7 1561.54 Z" fill="#000000" fill-rule="nonzero" fill-opacity="1" /><path clip-path="url(#clip270)" d="M2727.29 1542.86 Q2723.23 1542.86 2721.17 1546.87 Q2719.14 1550.86 2719.14 1558.88 Q2719.14 1566.87 2721.17 1570.88 Q2723.23 1574.87 2727.29 1574.87 Q2731.38 1574.87 2733.41 1570.88 Q2735.47 1566.87 2735.47 1558.88 Q2735.47 1550.86 2733.41 1546.87 Q2731.38 1542.86 2727.29 1542.86 M2727.29 1538.7 Q2733.83 1538.7 2737.26 1543.88 Q2740.73 1549.04 2740.73 1558.88 Q2740.73 1568.7 2737.26 1573.88 Q2733.83 1579.04 2727.29 1579.04 Q2720.75 1579.04 2717.29 1573.88 Q2713.85 1568.7 2713.85 1558.88 Q2713.85 1549.04 2717.29 1543.88 Q2720.75 1538.7 2727.29 1538.7 Z" fill="#000000" fill-rule="nonzero" fill-opacity="1" /><path clip-path="url(#clip270)" d="M2765.91 1557.32 Q2769.69 1558.12 2771.8 1560.68 Q2773.93 1563.23 2773.93 1566.98 Q2773.93 1572.73 2769.97 1575.88 Q2766.01 1579.04 2758.72 1579.04 Q2756.27 1579.04 2753.67 1578.54 Q2751.09 1578.07 2748.33 1577.11 L2748.33 1572.03 Q2750.52 1573.31 2753.12 1573.96 Q2755.73 1574.61 2758.57 1574.61 Q2763.51 1574.61 2766.09 1572.65 Q2768.7 1570.7 2768.7 1566.98 Q2768.7 1563.54 2766.27 1561.61 Q2763.88 1559.66 2759.58 1559.66 L2755.05 1559.66 L2755.05 1555.34 L2759.79 1555.34 Q2763.67 1555.34 2765.73 1553.8 Q2767.79 1552.24 2767.79 1549.32 Q2767.79 1546.33 2765.65 1544.74 Q2763.54 1543.12 2759.58 1543.12 Q2757.42 1543.12 2754.95 1543.59 Q2752.47 1544.06 2749.5 1545.05 L2749.5 1540.36 Q2752.5 1539.53 2755.1 1539.11 Q2757.73 1538.7 2760.05 1538.7 Q2766.04 1538.7 2769.53 1541.43 Q2773.02 1544.14 2773.02 1548.77 Q2773.02 1552 2771.17 1554.24 Q2769.32 1556.46 2765.91 1557.32 Z" fill="#000000" fill-rule="nonzero" fill-opacity="1" /><path clip-path="url(#clip270)" d="M2780.81 1561.54 L2794.84 1561.54 L2794.84 1565.81 L2780.81 1565.81 L2780.81 1561.54 Z" fill="#000000" fill-rule="nonzero" fill-opacity="1" /><path clip-path="url(#clip270)" d="M2804.06 1573.85 L2812.65 1573.85 L2812.65 1544.19 L2803.31 1546.07 L2803.31 1541.27 L2812.6 1539.4 L2817.86 1539.4 L2817.86 1573.85 L2826.46 1573.85 L2826.46 1578.28 L2804.06 1578.28 L2804.06 1573.85 Z" fill="#000000" fill-rule="nonzero" fill-opacity="1" /><path clip-path="url(#clip270)" d="M2841.61 1573.85 L2859.97 1573.85 L2859.97 1578.28 L2835.28 1578.28 L2835.28 1573.85 Q2838.28 1570.75 2843.44 1565.55 Q2848.62 1560.31 2849.95 1558.8 Q2852.47 1555.96 2853.46 1554.01 Q2854.48 1552.03 2854.48 1550.13 Q2854.48 1547.03 2852.29 1545.08 Q2850.13 1543.12 2846.64 1543.12 Q2844.16 1543.12 2841.4 1543.98 Q2838.67 1544.84 2835.55 1546.59 L2835.55 1541.27 Q2838.72 1540 2841.48 1539.35 Q2844.24 1538.7 2846.53 1538.7 Q2852.58 1538.7 2856.17 1541.72 Q2859.76 1544.74 2859.76 1549.79 Q2859.76 1552.19 2858.85 1554.35 Q2857.97 1556.48 2855.6 1559.4 Q2854.95 1560.15 2851.46 1563.77 Q2847.97 1567.37 2841.61 1573.85 Z" fill="#000000" fill-rule="nonzero" fill-opacity="1" /><polyline clip-path="url(#clip272)" style="stroke:#000000; stroke-linecap:round; stroke-linejoin:round; stroke-width:2; stroke-opacity:0.1; fill:none" points="205.077,1384.99 3180.41,1384.99 "/>
<polyline clip-path="url(#clip272)" style="stroke:#000000; stroke-linecap:round; stroke-linejoin:round; stroke-width:2; stroke-opacity:0.1; fill:none" points="205.077,1046.98 3180.41,1046.98 "/>
<polyline clip-path="url(#clip272)" style="stroke:#000000; stroke-linecap:round; stroke-linejoin:round; stroke-width:2; stroke-opacity:0.1; fill:none" points="205.077,708.961 3180.41,708.961 "/>
<polyline clip-path="url(#clip272)" style="stroke:#000000; stroke-linecap:round; stroke-linejoin:round; stroke-width:2; stroke-opacity:0.1; fill:none" points="205.077,370.946 3180.41,370.946 "/>
<polyline clip-path="url(#clip270)" style="stroke:#000000; stroke-linecap:round; stroke-linejoin:round; stroke-width:4; stroke-opacity:1; fill:none" points="205.077,1497.68 205.077,47.2441 "/>
<polyline clip-path="url(#clip270)" style="stroke:#000000; stroke-linecap:round; stroke-linejoin:round; stroke-width:4; stroke-opacity:1; fill:none" points="205.077,1384.99 220.08,1384.99 "/>
<polyline clip-path="url(#clip270)" style="stroke:#000000; stroke-linecap:round; stroke-linejoin:round; stroke-width:4; stroke-opacity:1; fill:none" points="205.077,1046.98 220.08,1046.98 "/>
<polyline clip-path="url(#clip270)" style="stroke:#000000; stroke-linecap:round; stroke-linejoin:round; stroke-width:4; stroke-opacity:1; fill:none" points="205.077,708.961 220.08,708.961 "/>
<polyline clip-path="url(#clip270)" style="stroke:#000000; stroke-linecap:round; stroke-linejoin:round; stroke-width:4; stroke-opacity:1; fill:none" points="205.077,370.946 220.08,370.946 "/>
<path clip-path="url(#clip270)" d="M88.4883 1400 L97.082 1400 L97.082 1370.34 L87.7331 1372.22 L87.7331 1367.43 L97.0299 1365.55 L102.29 1365.55 L102.29 1400 L110.884 1400 L110.884 1404.43 L88.4883 1404.43 L88.4883 1400 Z" fill="#000000" fill-rule="nonzero" fill-opacity="1" /><path clip-path="url(#clip270)" d="M121.561 1365.55 L142.212 1365.55 L142.212 1369.98 L126.379 1369.98 L126.379 1379.51 Q127.525 1379.12 128.67 1378.94 Q129.816 1378.73 130.962 1378.73 Q137.472 1378.73 141.274 1382.3 Q145.077 1385.86 145.077 1391.96 Q145.077 1398.23 141.17 1401.72 Q137.264 1405.19 130.155 1405.19 Q127.707 1405.19 125.155 1404.77 Q122.629 1404.35 119.92 1403.52 L119.92 1398.23 Q122.264 1399.51 124.764 1400.13 Q127.264 1400.76 130.051 1400.76 Q134.556 1400.76 137.186 1398.39 Q139.816 1396.02 139.816 1391.96 Q139.816 1387.89 137.186 1385.52 Q134.556 1383.15 130.051 1383.15 Q127.941 1383.15 125.832 1383.62 Q123.748 1384.09 121.561 1385.08 L121.561 1365.55 Z" fill="#000000" fill-rule="nonzero" fill-opacity="1" /><path clip-path="url(#clip270)" d="M90.9882 1061.99 L109.348 1061.99 L109.348 1066.42 L84.6602 1066.42 L84.6602 1061.99 Q87.6549 1058.89 92.8112 1053.68 Q97.9934 1048.45 99.3215 1046.94 Q101.848 1044.1 102.837 1042.15 Q103.853 1040.17 103.853 1038.26 Q103.853 1035.17 101.665 1033.21 Q99.5038 1031.26 96.0143 1031.26 Q93.5403 1031.26 90.7799 1032.12 Q88.0456 1032.98 84.9206 1034.72 L84.9206 1029.41 Q88.0976 1028.13 90.858 1027.48 Q93.6184 1026.83 95.9101 1026.83 Q101.952 1026.83 105.545 1029.85 Q109.139 1032.87 109.139 1037.93 Q109.139 1040.32 108.228 1042.48 Q107.342 1044.62 104.973 1047.54 Q104.322 1048.29 100.832 1051.91 Q97.3424 1055.5 90.9882 1061.99 Z" fill="#000000" fill-rule="nonzero" fill-opacity="1" /><path clip-path="url(#clip270)" d="M131.639 1031 Q127.577 1031 125.519 1035.01 Q123.488 1038.99 123.488 1047.01 Q123.488 1055.01 125.519 1059.02 Q127.577 1063 131.639 1063 Q135.728 1063 137.759 1059.02 Q139.816 1055.01 139.816 1047.01 Q139.816 1038.99 137.759 1035.01 Q135.728 1031 131.639 1031 M131.639 1026.83 Q138.175 1026.83 141.613 1032.01 Q145.077 1037.17 145.077 1047.01 Q145.077 1056.83 141.613 1062.01 Q138.175 1067.17 131.639 1067.17 Q125.103 1067.17 121.639 1062.01 Q118.202 1056.83 118.202 1047.01 Q118.202 1037.17 121.639 1032.01 Q125.103 1026.83 131.639 1026.83 Z" fill="#000000" fill-rule="nonzero" fill-opacity="1" /><path clip-path="url(#clip270)" d="M92.108 723.974 L110.467 723.974 L110.467 728.401 L85.7799 728.401 L85.7799 723.974 Q88.7747 720.875 93.9309 715.667 Q99.1132 710.432 100.441 708.922 Q102.967 706.083 103.957 704.13 Q104.973 702.151 104.973 700.25 Q104.973 697.151 102.785 695.198 Q100.624 693.245 97.134 693.245 Q94.6601 693.245 91.8997 694.104 Q89.1653 694.963 86.0404 696.708 L86.0404 691.396 Q89.2174 690.12 91.9778 689.469 Q94.7382 688.818 97.0299 688.818 Q103.072 688.818 106.665 691.839 Q110.259 694.859 110.259 699.911 Q110.259 702.307 109.348 704.469 Q108.462 706.604 106.092 709.521 Q105.441 710.276 101.952 713.896 Q98.4622 717.489 92.108 723.974 Z" fill="#000000" fill-rule="nonzero" fill-opacity="1" /><path clip-path="url(#clip270)" d="M121.561 689.521 L142.212 689.521 L142.212 693.948 L126.379 693.948 L126.379 703.479 Q127.525 703.088 128.67 702.906 Q129.816 702.698 130.962 702.698 Q137.472 702.698 141.274 706.266 Q145.077 709.833 145.077 715.927 Q145.077 722.203 141.17 725.692 Q137.264 729.156 130.155 729.156 Q127.707 729.156 125.155 728.739 Q122.629 728.323 119.92 727.489 L119.92 722.203 Q122.264 723.479 124.764 724.104 Q127.264 724.729 130.051 724.729 Q134.556 724.729 137.186 722.359 Q139.816 719.989 139.816 715.927 Q139.816 711.864 137.186 709.495 Q134.556 707.125 130.051 707.125 Q127.941 707.125 125.832 707.594 Q123.748 708.062 121.561 709.052 L121.561 689.521 Z" fill="#000000" fill-rule="nonzero" fill-opacity="1" /><path clip-path="url(#clip270)" d="M102.394 369.422 Q106.17 370.23 108.28 372.782 Q110.415 375.334 110.415 379.084 Q110.415 384.839 106.457 387.99 Q102.499 391.141 95.207 391.141 Q92.7591 391.141 90.1549 390.646 Q87.5768 390.178 84.8164 389.214 L84.8164 384.136 Q87.0039 385.412 89.608 386.063 Q92.2122 386.714 95.0507 386.714 Q99.9986 386.714 102.577 384.761 Q105.181 382.808 105.181 379.084 Q105.181 375.646 102.759 373.719 Q100.363 371.766 96.0663 371.766 L91.5351 371.766 L91.5351 367.443 L96.2747 367.443 Q100.155 367.443 102.212 365.907 Q104.269 364.344 104.269 361.428 Q104.269 358.433 102.134 356.844 Q100.025 355.23 96.0663 355.23 Q93.9049 355.23 91.431 355.699 Q88.957 356.167 85.9883 357.157 L85.9883 352.469 Q88.9831 351.636 91.5872 351.219 Q94.2174 350.803 96.5351 350.803 Q102.525 350.803 106.014 353.537 Q109.504 356.245 109.504 360.881 Q109.504 364.11 107.655 366.35 Q105.806 368.563 102.394 369.422 Z" fill="#000000" fill-rule="nonzero" fill-opacity="1" /><path clip-path="url(#clip270)" d="M131.639 354.969 Q127.577 354.969 125.519 358.98 Q123.488 362.964 123.488 370.985 Q123.488 378.98 125.519 382.99 Q127.577 386.974 131.639 386.974 Q135.728 386.974 137.759 382.99 Q139.816 378.98 139.816 370.985 Q139.816 362.964 137.759 358.98 Q135.728 354.969 131.639 354.969 M131.639 350.803 Q138.175 350.803 141.613 355.985 Q145.077 361.141 145.077 370.985 Q145.077 380.803 141.613 385.985 Q138.175 391.141 131.639 391.141 Q125.103 391.141 121.639 385.985 Q118.202 380.803 118.202 370.985 Q118.202 361.141 121.639 355.985 Q125.103 350.803 131.639 350.803 Z" fill="#000000" fill-rule="nonzero" fill-opacity="1" /><path clip-path="url(#clip270)" d="M-31.4998 930.013 L-31.4998 924.168 L11.7002 924.168 L11.7002 930.013 L-31.4998 930.013 Z" fill="#000000" fill-rule="nonzero" fill-opacity="1" /><path clip-path="url(#clip270)" d="M-7.85992 885.829 L11.7002 885.829 L11.7002 891.153 L-7.68631 891.153 Q-12.287 891.153 -14.5728 892.947 Q-16.8587 894.741 -16.8587 898.329 Q-16.8587 902.641 -14.1099 905.129 Q-11.3611 907.618 -6.61572 907.618 L11.7002 907.618 L11.7002 912.97 L-20.7071 912.97 L-20.7071 907.618 L-15.6724 907.618 Q-18.5948 905.708 -20.0416 903.133 Q-21.4883 900.528 -21.4883 897.143 Q-21.4883 891.559 -18.0161 888.694 Q-14.5728 885.829 -7.85992 885.829 Z" fill="#000000" fill-rule="nonzero" fill-opacity="1" /><path clip-path="url(#clip270)" d="M-33.3227 858.804 L-28.8957 858.804 L-28.8957 863.897 Q-28.8957 866.761 -27.7383 867.89 Q-26.5809 868.989 -23.5716 868.989 L-20.7071 868.989 L-20.7071 860.222 L-16.5694 860.222 L-16.5694 868.989 L11.7002 868.989 L11.7002 874.342 L-16.5694 874.342 L-16.5694 879.435 L-20.7071 879.435 L-20.7071 874.342 L-22.964 874.342 Q-28.3749 874.342 -30.8343 871.825 Q-33.3227 869.308 -33.3227 863.839 L-33.3227 858.804 Z" fill="#000000" fill-rule="nonzero" fill-opacity="1" /><path clip-path="url(#clip270)" d="M-33.3227 854.348 L-33.3227 849.024 L11.7002 849.024 L11.7002 854.348 L-33.3227 854.348 Z" fill="#000000" fill-rule="nonzero" fill-opacity="1" /><path clip-path="url(#clip270)" d="M-16.9745 825.326 Q-16.9745 829.609 -13.618 832.097 Q-10.2905 834.585 -4.47452 834.585 Q1.34142 834.585 4.69788 832.126 Q8.02541 829.638 8.02541 825.326 Q8.02541 821.073 4.66895 818.584 Q1.31248 816.096 -4.47452 816.096 Q-10.2326 816.096 -13.5891 818.584 Q-16.9745 821.073 -16.9745 825.326 M-21.4883 825.326 Q-21.4883 818.382 -16.9745 814.418 Q-12.4606 810.454 -4.47452 810.454 Q3.48261 810.454 8.02541 814.418 Q12.5393 818.382 12.5393 825.326 Q12.5393 832.3 8.02541 836.264 Q3.48261 840.199 -4.47452 840.199 Q-12.4606 840.199 -16.9745 836.264 Q-21.4883 832.3 -21.4883 825.326 Z" fill="#000000" fill-rule="nonzero" fill-opacity="1" /><path clip-path="url(#clip270)" d="M-20.7071 804.725 L-20.7071 799.4 L4.58214 792.745 L-20.7071 786.119 L-20.7071 779.84 L4.58214 773.185 L-20.7071 766.559 L-20.7071 761.235 L11.7002 769.713 L11.7002 775.992 L-14.8622 782.965 L11.7002 789.968 L11.7002 796.247 L-20.7071 804.725 Z" fill="#000000" fill-rule="nonzero" fill-opacity="1" /><path clip-path="url(#clip270)" d="M-33.3227 734.818 L-33.3227 722.549 L-29.185 722.549 L-29.185 729.493 L15.3749 729.493 L15.3749 722.549 L19.5126 722.549 L19.5126 734.818 L-33.3227 734.818 Z" fill="#000000" fill-rule="nonzero" fill-opacity="1" /><path clip-path="url(#clip270)" d="M-31.4998 710.975 L-31.4998 705.13 L6.7812 705.13 L6.7812 684.094 L11.7002 684.094 L11.7002 710.975 L-31.4998 710.975 Z" fill="#000000" fill-rule="nonzero" fill-opacity="1" /><path clip-path="url(#clip270)" d="M-31.4998 668.73 L-31.4998 663.811 L17.1978 678.857 L17.1978 683.776 L-31.4998 668.73 Z" fill="#000000" fill-rule="nonzero" fill-opacity="1" /><path clip-path="url(#clip270)" d="M-19.7522 637.567 L-14.7175 637.567 Q-15.8749 639.824 -16.4536 642.254 Q-17.0323 644.685 -17.0323 647.289 Q-17.0323 651.253 -15.8171 653.25 Q-14.6018 655.217 -12.1712 655.217 Q-10.3194 655.217 -9.2488 653.799 Q-8.20714 652.382 -7.25229 648.099 L-6.8472 646.276 Q-5.63193 640.605 -3.40393 638.232 Q-1.20487 635.831 2.75923 635.831 Q7.2731 635.831 9.90619 639.419 Q12.5393 642.978 12.5393 649.228 Q12.5393 651.832 12.0184 654.667 Q11.5265 657.474 10.5138 660.599 L5.01617 660.599 Q6.54972 657.648 7.33097 654.783 Q8.08328 651.919 8.08328 649.112 Q8.08328 645.35 6.81014 643.325 Q5.50806 641.299 3.16432 641.299 Q0.994196 641.299 -0.163205 642.775 Q-1.32061 644.222 -2.3912 649.17 L-2.82523 651.022 Q-3.86689 655.97 -6.00808 658.169 Q-8.17821 660.368 -11.9398 660.368 Q-16.5115 660.368 -18.9999 657.127 Q-21.4883 653.886 -21.4883 647.926 Q-21.4883 644.974 -21.0543 642.37 Q-20.6203 639.766 -19.7522 637.567 Z" fill="#000000" fill-rule="nonzero" fill-opacity="1" /><path clip-path="url(#clip270)" d="M-33.3227 614.911 L19.5126 614.911 L19.5126 627.179 L15.3749 627.179 L15.3749 620.264 L-29.185 620.264 L-29.185 627.179 L-33.3227 627.179 L-33.3227 614.911 Z" fill="#000000" fill-rule="nonzero" fill-opacity="1" /><polyline clip-path="url(#clip272)" style="stroke:#023eff; stroke-linecap:round; stroke-linejoin:round; stroke-width:5; stroke-opacity:1; fill:none" points="289.284,1179.34 306.092,1339.69 322.9,1440.01 339.708,1440.01 356.516,1440.01 373.324,1440.01 390.131,1197.6 406.939,545.549 423.747,246.296 440.555,120.336 457.363,284.414 474.171,325.013 490.979,325.013 507.787,434.547 524.595,511.172 541.403,611.293 558.21,511.172 575.018,611.293 591.826,521.877 608.634,462.68 625.442,481.957 642.25,511.172 659.058,611.293 675.866,852.429 692.674,1176.66 709.482,1356.36 726.289,1443.42 743.097,1443.42 759.905,1443.42 776.713,1443.42 793.521,1162.96 810.329,523.184 827.137,122.505 843.945,122.505 860.753,122.505 877.56,275.04 894.368,275.04 911.176,275.04 927.984,378.983 944.792,501 961.6,709.81 978.408,501 995.216,501 1012.02,347.912 1028.83,347.912 1045.64,483.099 1062.45,811.427 1079.26,890.992 1096.06,1176.66 1112.87,1284.88 1129.68,1443.42 1146.49,1443.42 1163.29,1443.42 1180.1,1443.42 1196.91,1162.96 1213.72,523.184 1230.53,122.505 1247.33,122.505 1264.14,122.505 1280.95,275.04 1297.76,275.04 1314.57,275.04 1331.37,378.983 1348.18,501 1364.99,709.81 1381.8,501 1398.61,501 1415.41,347.912 1432.22,347.912 1449.03,483.099 1465.84,811.427 1482.64,890.992 1499.45,1176.66 1516.26,1356.36 1533.07,1443.42 1549.88,1443.42 1566.68,1443.42 1583.49,1443.42 1600.3,1162.96 1617.11,523.184 1633.92,122.505 1650.72,122.505 1667.53,122.505 1684.34,275.04 1701.15,275.04 1717.96,275.04 1734.76,378.983 1751.57,501 1768.38,709.81 1785.19,501 1801.99,501 1818.8,347.912 1835.61,347.912 1852.42,483.099 1869.23,709.81 1886.03,890.992 1902.84,1284.88 1919.65,1356.36 1936.46,1443.42 1953.27,1443.42 1970.07,1443.42 1986.88,1443.42 2003.69,1162.96 2020.5,523.184 2037.31,122.505 2054.11,122.505 2070.92,122.505 2087.73,275.04 2104.54,275.04 2121.34,275.04 2138.15,378.983 2154.96,501 2171.77,501 2188.58,501 2205.38,501 2222.19,347.912 2239,347.912 2255.81,483.099 2272.62,709.81 2289.42,890.992 2306.23,1176.66 2323.04,1356.36 2339.85,1443.42 2356.66,1443.42 2373.46,1443.42 2390.27,1443.42 2407.08,1331.61 2423.89,908.723 2440.69,469.44 2457.5,122.505 2474.31,122.505 2491.12,275.04 2507.93,275.04 2524.73,469.44 2541.54,554.028 2558.35,554.028 2575.16,554.028 2591.97,685.976 2608.77,685.976 2625.58,554.028 2642.39,554.028 2659.2,685.976 2676.01,842.952 2692.81,975.072 2709.62,1176.66 2726.43,1356.36 2743.24,1443.42 2760.05,1443.42 2776.85,1443.42 2793.66,1443.42 2810.47,1331.61 2827.28,1226.9 2844.08,590.03 2860.89,122.505 2877.7,122.505 2894.51,275.04 2911.32,469.44 2928.12,469.44 2944.93,685.976 2961.74,554.028 2978.55,681.244 2995.36,681.244 3012.16,554.028 3028.97,554.028 3045.78,554.028 3062.59,685.976 3079.4,842.952 3096.2,975.072 "/>
<polyline clip-path="url(#clip272)" style="stroke:#ff7c00; stroke-linecap:round; stroke-linejoin:round; stroke-width:5; stroke-opacity:1; fill:none" points="289.284,1174.8 306.092,1350.98 322.9,1454.53 339.708,1454.53 356.516,1454.53 373.324,1454.53 390.131,1275.07 406.939,544.163 423.747,245.129 440.555,132.622 457.363,132.622 474.171,371.212 490.979,371.212 507.787,371.212 524.595,510.909 541.403,650.514 558.21,510.909 575.018,650.514 591.826,510.909 608.634,371.212 625.442,510.909 642.25,510.909 659.058,719.425 675.866,964.433 692.674,1173.8 709.482,1343.17 726.289,1456.63 743.097,1456.63 759.905,1420.1 776.713,1420.1 793.521,1173.8 810.329,502.772 827.137,132.798 843.945,132.798 860.753,132.798 877.56,283.902 894.368,276.987 911.176,283.902 927.984,363.97 944.792,515.131 961.6,564.29 978.408,515.131 995.216,515.131 1012.02,373.674 1028.83,373.674 1045.64,373.674 1062.45,763.719 1079.26,909.615 1096.06,1173.8 1112.87,1270.02 1129.68,1270.02 1146.49,1420.1 1163.29,1456.63 1180.1,1420.1 1196.91,1173.8 1213.72,502.772 1230.53,132.798 1247.33,132.798 1264.14,132.798 1280.95,283.902 1297.76,283.902 1314.57,283.902 1331.37,345.414 1348.18,515.131 1364.99,564.29 1381.8,515.131 1398.61,515.131 1415.41,373.674 1432.22,373.674 1449.03,373.674 1465.84,763.719 1482.64,909.615 1499.45,1173.8 1516.26,1343.17 1533.07,1420.1 1549.88,1456.63 1566.68,1420.1 1583.49,1420.1 1600.3,1173.8 1617.11,502.772 1633.92,132.798 1650.72,132.798 1667.53,132.798 1684.34,276.987 1701.15,276.987 1717.96,363.97 1734.76,283.902 1751.57,515.131 1768.38,564.29 1785.19,515.131 1801.99,515.131 1818.8,373.674 1835.61,373.674 1852.42,373.674 1869.23,763.719 1886.03,909.615 1902.84,1270.02 1919.65,1343.17 1936.46,1456.63 1953.27,1456.63 1970.07,1456.63 1986.88,1420.1 2003.69,1173.8 2020.5,502.772 2037.31,132.798 2054.11,132.798 2070.92,132.798 2087.73,276.987 2104.54,283.902 2121.34,363.97 2138.15,452.223 2154.96,564.29 2171.77,515.131 2188.58,515.131 2205.38,515.131 2222.19,373.674 2239,373.674 2255.81,373.674 2272.62,763.719 2289.42,909.615 2306.23,1173.8 2323.04,1343.17 2339.85,1420.1 2356.66,1420.1 2373.46,1456.63 2390.27,1420.1 2407.08,1311.27 2423.89,825.463 2440.69,502.772 2457.5,132.798 2474.31,132.798 2491.12,283.902 2507.93,283.902 2524.73,452.223 2541.54,363.97 2558.35,515.131 2575.16,564.29 2591.97,660.346 2608.77,660.346 2625.58,527.978 2642.39,434.718 2659.2,660.346 2676.01,763.719 2692.81,977.105 2709.62,1173.8 2726.43,1343.17 2743.24,1456.63 2760.05,1456.63 2776.85,1456.63 2793.66,1456.63 2810.47,1311.27 2827.28,1245.32 2844.08,465.691 2860.89,132.798 2877.7,132.798 2894.51,276.987 2911.32,276.987 2928.12,452.223 2944.93,452.223 2961.74,564.29 2978.55,660.346 2995.36,660.346 3012.16,515.131 3028.97,527.978 3045.78,527.978 3062.59,660.346 3079.4,763.719 3096.2,977.105 "/>
<polyline clip-path="url(#clip272)" style="stroke:#1ac938; stroke-linecap:round; stroke-linejoin:round; stroke-width:5; stroke-opacity:1; fill:none" points="289.284,1160.12 306.092,1342.27 322.9,1440.06 339.708,1440.06 356.516,1440.06 373.324,1388.88 390.131,1213.28 406.939,659.611 423.747,185.883 440.555,93.5567 457.363,183.122 474.171,312.765 490.979,312.765 507.787,488.667 524.595,529.052 541.403,590.534 558.21,590.534 575.018,590.534 591.826,488.667 608.634,312.765 625.442,488.667 642.25,659.611 659.058,751.266 675.866,945.687 692.674,1163.7 709.482,1351.71 726.289,1430.58 743.097,1430.58 759.905,1430.58 776.713,1351.71 793.521,1163.7 810.329,446.492 827.137,98.3454 843.945,98.3454 860.753,98.3454 877.56,287.389 894.368,341.933 911.176,287.389 927.984,436.154 944.792,436.154 961.6,620.063 978.408,530.667 995.216,530.667 1012.02,341.25 1028.83,341.25 1045.64,341.25 1062.45,744.211 1079.26,957.74 1096.06,1163.7 1112.87,1351.71 1129.68,1351.71 1146.49,1351.71 1163.29,1430.58 1180.1,1351.71 1196.91,1163.7 1213.72,446.492 1230.53,98.3454 1247.33,98.3454 1264.14,98.3454 1280.95,230.608 1297.76,341.933 1314.57,287.389 1331.37,436.154 1348.18,436.154 1364.99,537.683 1381.8,530.667 1398.61,530.667 1415.41,341.25 1432.22,341.25 1449.03,341.25 1465.84,744.211 1482.64,957.74 1499.45,1163.7 1516.26,1351.71 1533.07,1430.58 1549.88,1430.58 1566.68,1430.58 1583.49,1351.71 1600.3,1163.7 1617.11,446.492 1633.92,98.3454 1650.72,98.3454 1667.53,98.3454 1684.34,230.608 1701.15,341.933 1717.96,341.933 1734.76,436.154 1751.57,436.154 1768.38,620.063 1785.19,620.063 1801.99,530.667 1818.8,341.25 1835.61,341.25 1852.42,341.25 1869.23,699.444 1886.03,957.74 1902.84,1163.7 1919.65,1351.71 1936.46,1430.58 1953.27,1430.58 1970.07,1430.58 1986.88,1430.58 2003.69,1163.7 2020.5,446.492 2037.31,98.3454 2054.11,98.3454 2070.92,98.3454 2087.73,230.608 2104.54,341.933 2121.34,341.933 2138.15,436.154 2154.96,620.063 2171.77,530.667 2188.58,530.667 2205.38,530.667 2222.19,341.25 2239,341.25 2255.81,487.629 2272.62,699.444 2289.42,957.74 2306.23,1163.7 2323.04,1351.71 2339.85,1430.58 2356.66,1430.58 2373.46,1430.58 2390.27,1351.71 2407.08,1351.71 2423.89,1007.77 2440.69,446.492 2457.5,98.3454 2474.31,98.3454 2491.12,230.608 2507.93,341.933 2524.73,341.933 2541.54,436.154 2558.35,436.154 2575.16,537.683 2591.97,537.683 2608.77,537.683 2625.58,487.629 2642.39,537.475 2659.2,537.475 2676.01,744.211 2692.81,957.74 2709.62,1163.7 2726.43,1351.71 2743.24,1430.58 2760.05,1430.58 2776.85,1430.58 2793.66,1430.58 2810.47,1351.71 2827.28,1163.7 2844.08,446.492 2860.89,98.3454 2877.7,98.3454 2894.51,230.608 2911.32,341.933 2928.12,341.933 2944.93,537.683 2961.74,537.683 2978.55,744.211 2995.36,744.211 3012.16,530.667 3028.97,341.25 3045.78,487.629 3062.59,699.444 3079.4,744.211 3096.2,957.74 "/>
<polyline clip-path="url(#clip272)" style="stroke:#e8000b; stroke-linecap:round; stroke-linejoin:round; stroke-width:5; stroke-opacity:1; fill:none" points="289.284,1166.49 306.092,1401.84 322.9,1401.84 339.708,1401.84 356.516,1401.84 373.324,1401.84 390.131,1166.49 406.939,438.645 423.747,88.2942 440.555,88.2942 457.363,88.2942 474.171,314.391 490.979,314.391 507.787,470.593 524.595,470.593 541.403,666.675 558.21,666.675 575.018,666.675 591.826,470.593 608.634,314.391 625.442,470.593 642.25,470.593 659.058,666.675 675.866,912.897 692.674,1166.49 709.482,1401.84 726.289,1401.84 743.097,1401.84 759.905,1401.84 776.713,1401.84 793.521,1166.49 810.329,88.2942 827.137,88.2942 843.945,88.2942 860.753,88.2942 877.56,317.621 894.368,317.621 911.176,317.621 927.984,317.621 944.792,469.879 961.6,469.879 978.408,317.621 995.216,469.879 1012.02,317.621 1028.83,317.621 1045.64,317.621 1062.45,651.498 1079.26,651.498 1096.06,1166.49 1112.87,1401.84 1129.68,1401.84 1146.49,1401.84 1163.29,1401.84 1180.1,1401.84 1196.91,1166.49 1213.72,88.2942 1230.53,88.2942 1247.33,88.2942 1264.14,88.2942 1280.95,317.621 1297.76,317.621 1314.57,317.621 1331.37,469.879 1348.18,317.621 1364.99,469.879 1381.8,469.879 1398.61,469.879 1415.41,317.621 1432.22,317.621 1449.03,469.879 1465.84,651.498 1482.64,912.897 1499.45,1166.49 1516.26,1401.84 1533.07,1401.84 1549.88,1401.84 1566.68,1401.84 1583.49,1401.84 1600.3,1166.49 1617.11,88.2942 1633.92,88.2942 1650.72,88.2942 1667.53,88.2942 1684.34,317.621 1701.15,317.621 1717.96,317.621 1734.76,317.621 1751.57,469.879 1768.38,651.498 1785.19,469.879 1801.99,469.879 1818.8,317.621 1835.61,317.621 1852.42,469.879 1869.23,651.498 1886.03,912.897 1902.84,1166.49 1919.65,1401.84 1936.46,1401.84 1953.27,1401.84 1970.07,1401.84 1986.88,1401.84 2003.69,1166.49 2020.5,88.2942 2037.31,88.2942 2054.11,88.2942 2070.92,88.2942 2087.73,317.621 2104.54,317.621 2121.34,317.621 2138.15,469.879 2154.96,469.879 2171.77,469.879 2188.58,469.879 2205.38,469.879 2222.19,317.621 2239,317.621 2255.81,469.879 2272.62,651.498 2289.42,651.498 2306.23,1166.49 2323.04,1401.84 2339.85,1401.84 2356.66,1401.84 2373.46,1401.84 2390.27,1401.84 2407.08,1401.84 2423.89,912.897 2440.69,88.2942 2457.5,88.2942 2474.31,88.2942 2491.12,317.621 2507.93,317.621 2524.73,469.879 2541.54,317.621 2558.35,469.879 2575.16,469.879 2591.97,651.498 2608.77,651.498 2625.58,469.879 2642.39,651.498 2659.2,651.498 2676.01,651.498 2692.81,912.897 2709.62,1166.49 2726.43,1401.84 2743.24,1401.84 2760.05,1401.84 2776.85,1401.84 2793.66,1401.84 2810.47,1401.84 2827.28,1166.49 2844.08,651.498 2860.89,88.2942 2877.7,88.2942 2894.51,317.621 2911.32,317.621 2928.12,469.879 2944.93,651.498 2961.74,651.498 2978.55,651.498 2995.36,651.498 3012.16,469.879 3028.97,317.621 3045.78,469.879 3062.59,651.498 3079.4,651.498 3096.2,912.897 "/>
<path clip-path="url(#clip270)" d="M3305.33 445.512 L3952.76 445.512 L3952.76 95.592 L3305.33 95.592  Z" fill="#ffffff" fill-rule="evenodd" fill-opacity="1"/>
<polyline clip-path="url(#clip270)" style="stroke:#000000; stroke-linecap:round; stroke-linejoin:round; stroke-width:4; stroke-opacity:1; fill:none" points="3305.33,445.512 3952.76,445.512 3952.76,95.592 3305.33,95.592 3305.33,445.512 "/>
<polyline clip-path="url(#clip270)" style="stroke:#023eff; stroke-linecap:round; stroke-linejoin:round; stroke-width:5.625; stroke-opacity:1; fill:none" points="3346.97,153.912 3596.82,153.912 "/>
<path clip-path="url(#clip270)" d="M3643.28 168.977 L3643.28 184.446 L3638.46 184.446 L3638.46 144.185 L3643.28 144.185 L3643.28 148.613 Q3644.79 146.008 3647.08 144.758 Q3649.4 143.482 3652.6 143.482 Q3657.91 143.482 3661.22 147.701 Q3664.55 151.92 3664.55 158.795 Q3664.55 165.67 3661.22 169.888 Q3657.91 174.107 3652.6 174.107 Q3649.4 174.107 3647.08 172.857 Q3644.79 171.581 3643.28 168.977 M3659.58 158.795 Q3659.58 153.508 3657.39 150.514 Q3655.23 147.493 3651.43 147.493 Q3647.63 147.493 3645.44 150.514 Q3643.28 153.508 3643.28 158.795 Q3643.28 164.081 3645.44 167.102 Q3647.63 170.097 3651.43 170.097 Q3655.23 170.097 3657.39 167.102 Q3659.58 164.081 3659.58 158.795 Z" fill="#000000" fill-rule="nonzero" fill-opacity="1" /><path clip-path="url(#clip270)" d="M3689.4 148.665 Q3688.59 148.196 3687.63 147.988 Q3686.69 147.753 3685.54 147.753 Q3681.48 147.753 3679.29 150.409 Q3677.13 153.04 3677.13 157.987 L3677.13 173.352 L3672.31 173.352 L3672.31 144.185 L3677.13 144.185 L3677.13 148.717 Q3678.64 146.06 3681.06 144.784 Q3683.49 143.482 3686.95 143.482 Q3687.44 143.482 3688.04 143.56 Q3688.64 143.613 3689.37 143.743 L3689.4 148.665 Z" fill="#000000" fill-rule="nonzero" fill-opacity="1" /><path clip-path="url(#clip270)" d="M3718.2 157.571 L3718.2 159.915 L3696.17 159.915 Q3696.48 164.862 3699.14 167.467 Q3701.82 170.045 3706.58 170.045 Q3709.35 170.045 3711.92 169.368 Q3714.53 168.691 3717.08 167.336 L3717.08 171.868 Q3714.5 172.961 3711.79 173.534 Q3709.08 174.107 3706.3 174.107 Q3699.32 174.107 3695.23 170.045 Q3691.17 165.982 3691.17 159.055 Q3691.17 151.894 3695.02 147.701 Q3698.9 143.482 3705.47 143.482 Q3711.35 143.482 3714.76 147.284 Q3718.2 151.06 3718.2 157.571 M3713.41 156.165 Q3713.36 152.232 3711.19 149.889 Q3709.06 147.545 3705.52 147.545 Q3701.51 147.545 3699.08 149.81 Q3696.69 152.076 3696.32 156.191 L3713.41 156.165 Z" fill="#000000" fill-rule="nonzero" fill-opacity="1" /><path clip-path="url(#clip270)" d="M3745.26 148.613 L3745.26 132.831 L3750.05 132.831 L3750.05 173.352 L3745.26 173.352 L3745.26 168.977 Q3743.75 171.581 3741.43 172.857 Q3739.14 174.107 3735.91 174.107 Q3730.62 174.107 3727.29 169.888 Q3723.98 165.67 3723.98 158.795 Q3723.98 151.92 3727.29 147.701 Q3730.62 143.482 3735.91 143.482 Q3739.14 143.482 3741.43 144.758 Q3743.75 146.008 3745.26 148.613 M3728.93 158.795 Q3728.93 164.081 3731.09 167.102 Q3733.28 170.097 3737.08 170.097 Q3740.88 170.097 3743.07 167.102 Q3745.26 164.081 3745.26 158.795 Q3745.26 153.508 3743.07 150.514 Q3740.88 147.493 3737.08 147.493 Q3733.28 147.493 3731.09 150.514 Q3728.93 153.508 3728.93 158.795 Z" fill="#000000" fill-rule="nonzero" fill-opacity="1" /><path clip-path="url(#clip270)" d="M3759.92 144.185 L3764.71 144.185 L3764.71 173.352 L3759.92 173.352 L3759.92 144.185 M3759.92 132.831 L3764.71 132.831 L3764.71 138.899 L3759.92 138.899 L3759.92 132.831 Z" fill="#000000" fill-rule="nonzero" fill-opacity="1" /><path clip-path="url(#clip270)" d="M3795.73 145.305 L3795.73 149.784 Q3793.69 148.665 3791.64 148.118 Q3789.61 147.545 3787.52 147.545 Q3782.86 147.545 3780.28 150.514 Q3777.7 153.456 3777.7 158.795 Q3777.7 164.133 3780.28 167.102 Q3782.86 170.045 3787.52 170.045 Q3789.61 170.045 3791.64 169.498 Q3793.69 168.925 3795.73 167.805 L3795.73 172.232 Q3793.72 173.17 3791.56 173.638 Q3789.42 174.107 3787 174.107 Q3780.41 174.107 3776.53 169.967 Q3772.65 165.826 3772.65 158.795 Q3772.65 151.659 3776.56 147.571 Q3780.49 143.482 3787.31 143.482 Q3789.53 143.482 3791.64 143.951 Q3793.75 144.394 3795.73 145.305 Z" fill="#000000" fill-rule="nonzero" fill-opacity="1" /><path clip-path="url(#clip270)" d="M3808.8 135.904 L3808.8 144.185 L3818.67 144.185 L3818.67 147.909 L3808.8 147.909 L3808.8 163.743 Q3808.8 167.31 3809.76 168.326 Q3810.75 169.342 3813.75 169.342 L3818.67 169.342 L3818.67 173.352 L3813.75 173.352 Q3808.2 173.352 3806.09 171.295 Q3803.98 169.211 3803.98 163.743 L3803.98 147.909 L3800.46 147.909 L3800.46 144.185 L3803.98 144.185 L3803.98 135.904 L3808.8 135.904 Z" fill="#000000" fill-rule="nonzero" fill-opacity="1" /><path clip-path="url(#clip270)" d="M3847.13 182.206 L3847.13 185.93 L3819.42 185.93 L3819.42 182.206 L3847.13 182.206 Z" fill="#000000" fill-rule="nonzero" fill-opacity="1" /><path clip-path="url(#clip270)" d="M3852.37 134.472 L3873.02 134.472 L3873.02 138.899 L3857.18 138.899 L3857.18 148.43 Q3858.33 148.04 3859.47 147.857 Q3860.62 147.649 3861.77 147.649 Q3868.28 147.649 3872.08 151.217 Q3875.88 154.784 3875.88 160.878 Q3875.88 167.154 3871.97 170.644 Q3868.07 174.107 3860.96 174.107 Q3858.51 174.107 3855.96 173.69 Q3853.43 173.274 3850.72 172.441 L3850.72 167.154 Q3853.07 168.43 3855.57 169.055 Q3858.07 169.68 3860.85 169.68 Q3865.36 169.68 3867.99 167.31 Q3870.62 164.941 3870.62 160.878 Q3870.62 156.816 3867.99 154.446 Q3865.36 152.076 3860.85 152.076 Q3858.75 152.076 3856.64 152.545 Q3854.55 153.014 3852.37 154.003 L3852.37 134.472 Z" fill="#000000" fill-rule="nonzero" fill-opacity="1" /><path clip-path="url(#clip270)" d="M3890.78 168.925 L3909.14 168.925 L3909.14 173.352 L3884.45 173.352 L3884.45 168.925 Q3887.44 165.826 3892.6 160.618 Q3897.78 155.383 3899.11 153.873 Q3901.64 151.034 3902.63 149.081 Q3903.64 147.102 3903.64 145.201 Q3903.64 142.102 3901.45 140.149 Q3899.29 138.196 3895.8 138.196 Q3893.33 138.196 3890.57 139.055 Q3887.83 139.915 3884.71 141.659 L3884.71 136.347 Q3887.89 135.071 3890.65 134.42 Q3893.41 133.769 3895.7 133.769 Q3901.74 133.769 3905.33 136.79 Q3908.93 139.81 3908.93 144.863 Q3908.93 147.258 3908.02 149.42 Q3907.13 151.555 3904.76 154.472 Q3904.11 155.227 3900.62 158.847 Q3897.13 162.441 3890.78 168.925 Z" fill="#000000" fill-rule="nonzero" fill-opacity="1" /><polyline clip-path="url(#clip270)" style="stroke:#ff7c00; stroke-linecap:round; stroke-linejoin:round; stroke-width:5.625; stroke-opacity:1; fill:none" points="3346.97,212.232 3596.82,212.232 "/>
<path clip-path="url(#clip270)" d="M3643.28 227.297 L3643.28 242.766 L3638.46 242.766 L3638.46 202.505 L3643.28 202.505 L3643.28 206.933 Q3644.79 204.328 3647.08 203.078 Q3649.4 201.802 3652.6 201.802 Q3657.91 201.802 3661.22 206.021 Q3664.55 210.24 3664.55 217.115 Q3664.55 223.99 3661.22 228.208 Q3657.91 232.427 3652.6 232.427 Q3649.4 232.427 3647.08 231.177 Q3644.79 229.901 3643.28 227.297 M3659.58 217.115 Q3659.58 211.828 3657.39 208.834 Q3655.23 205.813 3651.43 205.813 Q3647.63 205.813 3645.44 208.834 Q3643.28 211.828 3643.28 217.115 Q3643.28 222.401 3645.44 225.422 Q3647.63 228.417 3651.43 228.417 Q3655.23 228.417 3657.39 225.422 Q3659.58 222.401 3659.58 217.115 Z" fill="#000000" fill-rule="nonzero" fill-opacity="1" /><path clip-path="url(#clip270)" d="M3689.4 206.985 Q3688.59 206.516 3687.63 206.308 Q3686.69 206.073 3685.54 206.073 Q3681.48 206.073 3679.29 208.729 Q3677.13 211.36 3677.13 216.307 L3677.13 231.672 L3672.31 231.672 L3672.31 202.505 L3677.13 202.505 L3677.13 207.037 Q3678.64 204.38 3681.06 203.104 Q3683.49 201.802 3686.95 201.802 Q3687.44 201.802 3688.04 201.88 Q3688.64 201.933 3689.37 202.063 L3689.4 206.985 Z" fill="#000000" fill-rule="nonzero" fill-opacity="1" /><path clip-path="url(#clip270)" d="M3718.2 215.891 L3718.2 218.235 L3696.17 218.235 Q3696.48 223.182 3699.14 225.787 Q3701.82 228.365 3706.58 228.365 Q3709.35 228.365 3711.92 227.688 Q3714.53 227.011 3717.08 225.656 L3717.08 230.188 Q3714.5 231.281 3711.79 231.854 Q3709.08 232.427 3706.3 232.427 Q3699.32 232.427 3695.23 228.365 Q3691.17 224.302 3691.17 217.375 Q3691.17 210.214 3695.02 206.021 Q3698.9 201.802 3705.47 201.802 Q3711.35 201.802 3714.76 205.604 Q3718.2 209.38 3718.2 215.891 M3713.41 214.485 Q3713.36 210.552 3711.19 208.209 Q3709.06 205.865 3705.52 205.865 Q3701.51 205.865 3699.08 208.13 Q3696.69 210.396 3696.32 214.511 L3713.41 214.485 Z" fill="#000000" fill-rule="nonzero" fill-opacity="1" /><path clip-path="url(#clip270)" d="M3745.26 206.933 L3745.26 191.151 L3750.05 191.151 L3750.05 231.672 L3745.26 231.672 L3745.26 227.297 Q3743.75 229.901 3741.43 231.177 Q3739.14 232.427 3735.91 232.427 Q3730.62 232.427 3727.29 228.208 Q3723.98 223.99 3723.98 217.115 Q3723.98 210.24 3727.29 206.021 Q3730.62 201.802 3735.91 201.802 Q3739.14 201.802 3741.43 203.078 Q3743.75 204.328 3745.26 206.933 M3728.93 217.115 Q3728.93 222.401 3731.09 225.422 Q3733.28 228.417 3737.08 228.417 Q3740.88 228.417 3743.07 225.422 Q3745.26 222.401 3745.26 217.115 Q3745.26 211.828 3743.07 208.834 Q3740.88 205.813 3737.08 205.813 Q3733.28 205.813 3731.09 208.834 Q3728.93 211.828 3728.93 217.115 Z" fill="#000000" fill-rule="nonzero" fill-opacity="1" /><path clip-path="url(#clip270)" d="M3759.92 202.505 L3764.71 202.505 L3764.71 231.672 L3759.92 231.672 L3759.92 202.505 M3759.92 191.151 L3764.71 191.151 L3764.71 197.219 L3759.92 197.219 L3759.92 191.151 Z" fill="#000000" fill-rule="nonzero" fill-opacity="1" /><path clip-path="url(#clip270)" d="M3795.73 203.625 L3795.73 208.104 Q3793.69 206.985 3791.64 206.438 Q3789.61 205.865 3787.52 205.865 Q3782.86 205.865 3780.28 208.834 Q3777.7 211.776 3777.7 217.115 Q3777.7 222.453 3780.28 225.422 Q3782.86 228.365 3787.52 228.365 Q3789.61 228.365 3791.64 227.818 Q3793.69 227.245 3795.73 226.125 L3795.73 230.552 Q3793.72 231.49 3791.56 231.958 Q3789.42 232.427 3787 232.427 Q3780.41 232.427 3776.53 228.287 Q3772.65 224.146 3772.65 217.115 Q3772.65 209.979 3776.56 205.891 Q3780.49 201.802 3787.31 201.802 Q3789.53 201.802 3791.64 202.271 Q3793.75 202.714 3795.73 203.625 Z" fill="#000000" fill-rule="nonzero" fill-opacity="1" /><path clip-path="url(#clip270)" d="M3808.8 194.224 L3808.8 202.505 L3818.67 202.505 L3818.67 206.229 L3808.8 206.229 L3808.8 222.063 Q3808.8 225.63 3809.76 226.646 Q3810.75 227.662 3813.75 227.662 L3818.67 227.662 L3818.67 231.672 L3813.75 231.672 Q3808.2 231.672 3806.09 229.615 Q3803.98 227.531 3803.98 222.063 L3803.98 206.229 L3800.46 206.229 L3800.46 202.505 L3803.98 202.505 L3803.98 194.224 L3808.8 194.224 Z" fill="#000000" fill-rule="nonzero" fill-opacity="1" /><path clip-path="url(#clip270)" d="M3847.13 240.526 L3847.13 244.25 L3819.42 244.25 L3819.42 240.526 L3847.13 240.526 Z" fill="#000000" fill-rule="nonzero" fill-opacity="1" /><path clip-path="url(#clip270)" d="M3856.84 227.245 L3875.2 227.245 L3875.2 231.672 L3850.52 231.672 L3850.52 227.245 Q3853.51 224.146 3858.67 218.938 Q3863.85 213.703 3865.18 212.193 Q3867.7 209.354 3868.69 207.401 Q3869.71 205.422 3869.71 203.521 Q3869.71 200.422 3867.52 198.469 Q3865.36 196.516 3861.87 196.516 Q3859.4 196.516 3856.64 197.375 Q3853.9 198.235 3850.78 199.979 L3850.78 194.667 Q3853.95 193.391 3856.71 192.74 Q3859.47 192.089 3861.77 192.089 Q3867.81 192.089 3871.4 195.11 Q3875 198.13 3875 203.183 Q3875 205.578 3874.08 207.74 Q3873.2 209.875 3870.83 212.792 Q3870.18 213.547 3866.69 217.167 Q3863.2 220.761 3856.84 227.245 Z" fill="#000000" fill-rule="nonzero" fill-opacity="1" /><path clip-path="url(#clip270)" d="M3898.15 210.136 Q3894.6 210.136 3892.52 212.557 Q3890.46 214.979 3890.46 219.198 Q3890.46 223.391 3892.52 225.839 Q3894.6 228.261 3898.15 228.261 Q3901.69 228.261 3903.75 225.839 Q3905.83 223.391 3905.83 219.198 Q3905.83 214.979 3903.75 212.557 Q3901.69 210.136 3898.15 210.136 M3908.59 193.651 L3908.59 198.443 Q3906.61 197.505 3904.58 197.011 Q3902.57 196.516 3900.59 196.516 Q3895.39 196.516 3892.63 200.031 Q3889.89 203.547 3889.5 210.656 Q3891.04 208.391 3893.35 207.193 Q3895.67 205.969 3898.46 205.969 Q3904.32 205.969 3907.7 209.537 Q3911.12 213.078 3911.12 219.198 Q3911.12 225.188 3907.57 228.807 Q3904.03 232.427 3898.15 232.427 Q3891.4 232.427 3887.83 227.271 Q3884.27 222.089 3884.27 212.271 Q3884.27 203.052 3888.64 197.584 Q3893.02 192.089 3900.39 192.089 Q3902.37 192.089 3904.37 192.479 Q3906.4 192.87 3908.59 193.651 Z" fill="#000000" fill-rule="nonzero" fill-opacity="1" /><polyline clip-path="url(#clip270)" style="stroke:#1ac938; stroke-linecap:round; stroke-linejoin:round; stroke-width:5.625; stroke-opacity:1; fill:none" points="3346.97,270.552 3596.82,270.552 "/>
<path clip-path="url(#clip270)" d="M3643.28 285.617 L3643.28 301.086 L3638.46 301.086 L3638.46 260.825 L3643.28 260.825 L3643.28 265.253 Q3644.79 262.648 3647.08 261.398 Q3649.4 260.122 3652.6 260.122 Q3657.91 260.122 3661.22 264.341 Q3664.55 268.56 3664.55 275.435 Q3664.55 282.31 3661.22 286.528 Q3657.91 290.747 3652.6 290.747 Q3649.4 290.747 3647.08 289.497 Q3644.79 288.221 3643.28 285.617 M3659.58 275.435 Q3659.58 270.148 3657.39 267.154 Q3655.23 264.133 3651.43 264.133 Q3647.63 264.133 3645.44 267.154 Q3643.28 270.148 3643.28 275.435 Q3643.28 280.721 3645.44 283.742 Q3647.63 286.737 3651.43 286.737 Q3655.23 286.737 3657.39 283.742 Q3659.58 280.721 3659.58 275.435 Z" fill="#000000" fill-rule="nonzero" fill-opacity="1" /><path clip-path="url(#clip270)" d="M3689.4 265.305 Q3688.59 264.836 3687.63 264.628 Q3686.69 264.393 3685.54 264.393 Q3681.48 264.393 3679.29 267.049 Q3677.13 269.68 3677.13 274.627 L3677.13 289.992 L3672.31 289.992 L3672.31 260.825 L3677.13 260.825 L3677.13 265.357 Q3678.64 262.7 3681.06 261.424 Q3683.49 260.122 3686.95 260.122 Q3687.44 260.122 3688.04 260.2 Q3688.64 260.253 3689.37 260.383 L3689.4 265.305 Z" fill="#000000" fill-rule="nonzero" fill-opacity="1" /><path clip-path="url(#clip270)" d="M3718.2 274.211 L3718.2 276.555 L3696.17 276.555 Q3696.48 281.502 3699.14 284.107 Q3701.82 286.685 3706.58 286.685 Q3709.35 286.685 3711.92 286.008 Q3714.53 285.331 3717.08 283.976 L3717.08 288.508 Q3714.5 289.601 3711.79 290.174 Q3709.08 290.747 3706.3 290.747 Q3699.32 290.747 3695.23 286.685 Q3691.17 282.622 3691.17 275.695 Q3691.17 268.534 3695.02 264.341 Q3698.9 260.122 3705.47 260.122 Q3711.35 260.122 3714.76 263.924 Q3718.2 267.7 3718.2 274.211 M3713.41 272.805 Q3713.36 268.872 3711.19 266.529 Q3709.06 264.185 3705.52 264.185 Q3701.51 264.185 3699.08 266.45 Q3696.69 268.716 3696.32 272.831 L3713.41 272.805 Z" fill="#000000" fill-rule="nonzero" fill-opacity="1" /><path clip-path="url(#clip270)" d="M3745.26 265.253 L3745.26 249.471 L3750.05 249.471 L3750.05 289.992 L3745.26 289.992 L3745.26 285.617 Q3743.75 288.221 3741.43 289.497 Q3739.14 290.747 3735.91 290.747 Q3730.62 290.747 3727.29 286.528 Q3723.98 282.31 3723.98 275.435 Q3723.98 268.56 3727.29 264.341 Q3730.62 260.122 3735.91 260.122 Q3739.14 260.122 3741.43 261.398 Q3743.75 262.648 3745.26 265.253 M3728.93 275.435 Q3728.93 280.721 3731.09 283.742 Q3733.28 286.737 3737.08 286.737 Q3740.88 286.737 3743.07 283.742 Q3745.26 280.721 3745.26 275.435 Q3745.26 270.148 3743.07 267.154 Q3740.88 264.133 3737.08 264.133 Q3733.28 264.133 3731.09 267.154 Q3728.93 270.148 3728.93 275.435 Z" fill="#000000" fill-rule="nonzero" fill-opacity="1" /><path clip-path="url(#clip270)" d="M3759.92 260.825 L3764.71 260.825 L3764.71 289.992 L3759.92 289.992 L3759.92 260.825 M3759.92 249.471 L3764.71 249.471 L3764.71 255.539 L3759.92 255.539 L3759.92 249.471 Z" fill="#000000" fill-rule="nonzero" fill-opacity="1" /><path clip-path="url(#clip270)" d="M3795.73 261.945 L3795.73 266.424 Q3793.69 265.305 3791.64 264.758 Q3789.61 264.185 3787.52 264.185 Q3782.86 264.185 3780.28 267.154 Q3777.7 270.096 3777.7 275.435 Q3777.7 280.773 3780.28 283.742 Q3782.86 286.685 3787.52 286.685 Q3789.61 286.685 3791.64 286.138 Q3793.69 285.565 3795.73 284.445 L3795.73 288.872 Q3793.72 289.81 3791.56 290.278 Q3789.42 290.747 3787 290.747 Q3780.41 290.747 3776.53 286.607 Q3772.65 282.466 3772.65 275.435 Q3772.65 268.299 3776.56 264.211 Q3780.49 260.122 3787.31 260.122 Q3789.53 260.122 3791.64 260.591 Q3793.75 261.034 3795.73 261.945 Z" fill="#000000" fill-rule="nonzero" fill-opacity="1" /><path clip-path="url(#clip270)" d="M3808.8 252.544 L3808.8 260.825 L3818.67 260.825 L3818.67 264.549 L3808.8 264.549 L3808.8 280.383 Q3808.8 283.95 3809.76 284.966 Q3810.75 285.982 3813.75 285.982 L3818.67 285.982 L3818.67 289.992 L3813.75 289.992 Q3808.2 289.992 3806.09 287.935 Q3803.98 285.851 3803.98 280.383 L3803.98 264.549 L3800.46 264.549 L3800.46 260.825 L3803.98 260.825 L3803.98 252.544 L3808.8 252.544 Z" fill="#000000" fill-rule="nonzero" fill-opacity="1" /><path clip-path="url(#clip270)" d="M3847.13 298.846 L3847.13 302.57 L3819.42 302.57 L3819.42 298.846 L3847.13 298.846 Z" fill="#000000" fill-rule="nonzero" fill-opacity="1" /><path clip-path="url(#clip270)" d="M3866.77 255.695 L3853.49 276.45 L3866.77 276.45 L3866.77 255.695 M3865.39 251.112 L3872 251.112 L3872 276.45 L3877.55 276.45 L3877.55 280.825 L3872 280.825 L3872 289.992 L3866.77 289.992 L3866.77 280.825 L3849.21 280.825 L3849.21 275.747 L3865.39 251.112 Z" fill="#000000" fill-rule="nonzero" fill-opacity="1" /><polyline clip-path="url(#clip270)" style="stroke:#e8000b; stroke-linecap:round; stroke-linejoin:round; stroke-width:5.625; stroke-opacity:1; fill:none" points="3346.97,328.872 3596.82,328.872 "/>
<path clip-path="url(#clip270)" d="M3643.28 343.937 L3643.28 359.406 L3638.46 359.406 L3638.46 319.145 L3643.28 319.145 L3643.28 323.573 Q3644.79 320.968 3647.08 319.718 Q3649.4 318.442 3652.6 318.442 Q3657.91 318.442 3661.22 322.661 Q3664.55 326.88 3664.55 333.755 Q3664.55 340.63 3661.22 344.848 Q3657.91 349.067 3652.6 349.067 Q3649.4 349.067 3647.08 347.817 Q3644.79 346.541 3643.28 343.937 M3659.58 333.755 Q3659.58 328.468 3657.39 325.474 Q3655.23 322.453 3651.43 322.453 Q3647.63 322.453 3645.44 325.474 Q3643.28 328.468 3643.28 333.755 Q3643.28 339.041 3645.44 342.062 Q3647.63 345.057 3651.43 345.057 Q3655.23 345.057 3657.39 342.062 Q3659.58 339.041 3659.58 333.755 Z" fill="#000000" fill-rule="nonzero" fill-opacity="1" /><path clip-path="url(#clip270)" d="M3689.4 323.625 Q3688.59 323.156 3687.63 322.948 Q3686.69 322.713 3685.54 322.713 Q3681.48 322.713 3679.29 325.369 Q3677.13 328 3677.13 332.947 L3677.13 348.312 L3672.31 348.312 L3672.31 319.145 L3677.13 319.145 L3677.13 323.677 Q3678.64 321.02 3681.06 319.744 Q3683.49 318.442 3686.95 318.442 Q3687.44 318.442 3688.04 318.52 Q3688.64 318.573 3689.37 318.703 L3689.4 323.625 Z" fill="#000000" fill-rule="nonzero" fill-opacity="1" /><path clip-path="url(#clip270)" d="M3718.2 332.531 L3718.2 334.875 L3696.17 334.875 Q3696.48 339.822 3699.14 342.427 Q3701.82 345.005 3706.58 345.005 Q3709.35 345.005 3711.92 344.328 Q3714.53 343.651 3717.08 342.296 L3717.08 346.828 Q3714.5 347.921 3711.79 348.494 Q3709.08 349.067 3706.3 349.067 Q3699.32 349.067 3695.23 345.005 Q3691.17 340.942 3691.17 334.015 Q3691.17 326.854 3695.02 322.661 Q3698.9 318.442 3705.47 318.442 Q3711.35 318.442 3714.76 322.244 Q3718.2 326.02 3718.2 332.531 M3713.41 331.125 Q3713.36 327.192 3711.19 324.849 Q3709.06 322.505 3705.52 322.505 Q3701.51 322.505 3699.08 324.77 Q3696.69 327.036 3696.32 331.151 L3713.41 331.125 Z" fill="#000000" fill-rule="nonzero" fill-opacity="1" /><path clip-path="url(#clip270)" d="M3745.26 323.573 L3745.26 307.791 L3750.05 307.791 L3750.05 348.312 L3745.26 348.312 L3745.26 343.937 Q3743.75 346.541 3741.43 347.817 Q3739.14 349.067 3735.91 349.067 Q3730.62 349.067 3727.29 344.848 Q3723.98 340.63 3723.98 333.755 Q3723.98 326.88 3727.29 322.661 Q3730.62 318.442 3735.91 318.442 Q3739.14 318.442 3741.43 319.718 Q3743.75 320.968 3745.26 323.573 M3728.93 333.755 Q3728.93 339.041 3731.09 342.062 Q3733.28 345.057 3737.08 345.057 Q3740.88 345.057 3743.07 342.062 Q3745.26 339.041 3745.26 333.755 Q3745.26 328.468 3743.07 325.474 Q3740.88 322.453 3737.08 322.453 Q3733.28 322.453 3731.09 325.474 Q3728.93 328.468 3728.93 333.755 Z" fill="#000000" fill-rule="nonzero" fill-opacity="1" /><path clip-path="url(#clip270)" d="M3759.92 319.145 L3764.71 319.145 L3764.71 348.312 L3759.92 348.312 L3759.92 319.145 M3759.92 307.791 L3764.71 307.791 L3764.71 313.859 L3759.92 313.859 L3759.92 307.791 Z" fill="#000000" fill-rule="nonzero" fill-opacity="1" /><path clip-path="url(#clip270)" d="M3795.73 320.265 L3795.73 324.744 Q3793.69 323.625 3791.64 323.078 Q3789.61 322.505 3787.52 322.505 Q3782.86 322.505 3780.28 325.474 Q3777.7 328.416 3777.7 333.755 Q3777.7 339.093 3780.28 342.062 Q3782.86 345.005 3787.52 345.005 Q3789.61 345.005 3791.64 344.458 Q3793.69 343.885 3795.73 342.765 L3795.73 347.192 Q3793.72 348.13 3791.56 348.598 Q3789.42 349.067 3787 349.067 Q3780.41 349.067 3776.53 344.927 Q3772.65 340.786 3772.65 333.755 Q3772.65 326.619 3776.56 322.531 Q3780.49 318.442 3787.31 318.442 Q3789.53 318.442 3791.64 318.911 Q3793.75 319.354 3795.73 320.265 Z" fill="#000000" fill-rule="nonzero" fill-opacity="1" /><path clip-path="url(#clip270)" d="M3808.8 310.864 L3808.8 319.145 L3818.67 319.145 L3818.67 322.869 L3808.8 322.869 L3808.8 338.703 Q3808.8 342.27 3809.76 343.286 Q3810.75 344.302 3813.75 344.302 L3818.67 344.302 L3818.67 348.312 L3813.75 348.312 Q3808.2 348.312 3806.09 346.255 Q3803.98 344.171 3803.98 338.703 L3803.98 322.869 L3800.46 322.869 L3800.46 319.145 L3803.98 319.145 L3803.98 310.864 L3808.8 310.864 Z" fill="#000000" fill-rule="nonzero" fill-opacity="1" /><path clip-path="url(#clip270)" d="M3847.13 357.166 L3847.13 360.89 L3819.42 360.89 L3819.42 357.166 L3847.13 357.166 Z" fill="#000000" fill-rule="nonzero" fill-opacity="1" /><path clip-path="url(#clip270)" d="M3853.22 343.885 L3861.82 343.885 L3861.82 314.224 L3852.47 316.099 L3852.47 311.307 L3861.77 309.432 L3867.03 309.432 L3867.03 343.885 L3875.62 343.885 L3875.62 348.312 L3853.22 348.312 L3853.22 343.885 Z" fill="#000000" fill-rule="nonzero" fill-opacity="1" /><polyline clip-path="url(#clip270)" style="stroke:#000000; stroke-linecap:round; stroke-linejoin:round; stroke-width:6.75; stroke-opacity:1; fill:none" points="3346.97,387.192 3596.82,387.192 "/>
<path clip-path="url(#clip270)" d="M3653.54 391.971 Q3647.73 391.971 3645.49 393.299 Q3643.25 394.627 3643.25 397.83 Q3643.25 400.382 3644.92 401.892 Q3646.61 403.377 3649.5 403.377 Q3653.49 403.377 3655.88 400.564 Q3658.3 397.726 3658.3 393.038 L3658.3 391.971 L3653.54 391.971 M3663.1 389.991 L3663.1 406.632 L3658.3 406.632 L3658.3 402.205 Q3656.66 404.861 3654.22 406.137 Q3651.77 407.387 3648.23 407.387 Q3643.75 407.387 3641.09 404.887 Q3638.46 402.361 3638.46 398.142 Q3638.46 393.221 3641.74 390.721 Q3645.05 388.221 3651.59 388.221 L3658.3 388.221 L3658.3 387.752 Q3658.3 384.445 3656.12 382.648 Q3653.95 380.825 3650.02 380.825 Q3647.52 380.825 3645.15 381.424 Q3642.78 382.023 3640.6 383.221 L3640.6 378.794 Q3643.23 377.778 3645.7 377.283 Q3648.17 376.762 3650.52 376.762 Q3656.85 376.762 3659.97 380.044 Q3663.1 383.325 3663.1 389.991 Z" fill="#000000" fill-rule="nonzero" fill-opacity="1" /><path clip-path="url(#clip270)" d="M3693.95 378.585 L3693.95 383.064 Q3691.92 381.945 3689.87 381.398 Q3687.83 380.825 3685.75 380.825 Q3681.09 380.825 3678.51 383.794 Q3675.93 386.736 3675.93 392.075 Q3675.93 397.413 3678.51 400.382 Q3681.09 403.325 3685.75 403.325 Q3687.83 403.325 3689.87 402.778 Q3691.92 402.205 3693.95 401.085 L3693.95 405.512 Q3691.95 406.45 3689.79 406.918 Q3687.65 407.387 3685.23 407.387 Q3678.64 407.387 3674.76 403.247 Q3670.88 399.106 3670.88 392.075 Q3670.88 384.939 3674.79 380.851 Q3678.72 376.762 3685.54 376.762 Q3687.76 376.762 3689.87 377.231 Q3691.98 377.674 3693.95 378.585 Z" fill="#000000" fill-rule="nonzero" fill-opacity="1" /><path clip-path="url(#clip270)" d="M3707.03 369.184 L3707.03 377.465 L3716.9 377.465 L3716.9 381.189 L3707.03 381.189 L3707.03 397.023 Q3707.03 400.59 3707.99 401.606 Q3708.98 402.622 3711.98 402.622 L3716.9 402.622 L3716.9 406.632 L3711.98 406.632 Q3706.43 406.632 3704.32 404.575 Q3702.21 402.491 3702.21 397.023 L3702.21 381.189 L3698.69 381.189 L3698.69 377.465 L3702.21 377.465 L3702.21 369.184 L3707.03 369.184 Z" fill="#000000" fill-rule="nonzero" fill-opacity="1" /><path clip-path="url(#clip270)" d="M3722.7 395.122 L3722.7 377.465 L3727.5 377.465 L3727.5 394.939 Q3727.5 399.08 3729.11 401.163 Q3730.73 403.221 3733.95 403.221 Q3737.83 403.221 3740.07 400.747 Q3742.34 398.273 3742.34 394.002 L3742.34 377.465 L3747.13 377.465 L3747.13 406.632 L3742.34 406.632 L3742.34 402.153 Q3740.6 404.809 3738.28 406.111 Q3735.99 407.387 3732.94 407.387 Q3727.91 407.387 3725.31 404.262 Q3722.7 401.137 3722.7 395.122 M3734.76 376.762 L3734.76 376.762 Z" fill="#000000" fill-rule="nonzero" fill-opacity="1" /><path clip-path="url(#clip270)" d="M3770.26 391.971 Q3764.45 391.971 3762.21 393.299 Q3759.97 394.627 3759.97 397.83 Q3759.97 400.382 3761.64 401.892 Q3763.33 403.377 3766.22 403.377 Q3770.2 403.377 3772.6 400.564 Q3775.02 397.726 3775.02 393.038 L3775.02 391.971 L3770.26 391.971 M3779.81 389.991 L3779.81 406.632 L3775.02 406.632 L3775.02 402.205 Q3773.38 404.861 3770.93 406.137 Q3768.49 407.387 3764.94 407.387 Q3760.46 407.387 3757.81 404.887 Q3755.18 402.361 3755.18 398.142 Q3755.18 393.221 3758.46 390.721 Q3761.77 388.221 3768.3 388.221 L3775.02 388.221 L3775.02 387.752 Q3775.02 384.445 3772.83 382.648 Q3770.67 380.825 3766.74 380.825 Q3764.24 380.825 3761.87 381.424 Q3759.5 382.023 3757.31 383.221 L3757.31 378.794 Q3759.94 377.778 3762.42 377.283 Q3764.89 376.762 3767.24 376.762 Q3773.56 376.762 3776.69 380.044 Q3779.81 383.325 3779.81 389.991 Z" fill="#000000" fill-rule="nonzero" fill-opacity="1" /><path clip-path="url(#clip270)" d="M3789.68 366.111 L3794.48 366.111 L3794.48 406.632 L3789.68 406.632 L3789.68 366.111 Z" fill="#000000" fill-rule="nonzero" fill-opacity="1" /></svg>
