<?xml version="1.0" encoding="UTF-8" standalone="no"?>
<!DOCTYPE svg PUBLIC "-//W3C//DTD SVG 1.1//EN"
 "http://www.w3.org/Graphics/SVG/1.1/DTD/svg11.dtd">
<!-- Generated by graphviz version 2.50.0 (20211204.2007)
 -->
<!-- Pages: 1 -->
<svg width="920pt" height="742pt"
 viewBox="0.00 0.00 920.00 742.00" xmlns="http://www.w3.org/2000/svg" xmlns:xlink="http://www.w3.org/1999/xlink">
<g id="graph0" class="graph" transform="scale(1 1) rotate(0) translate(4 738)">
<polygon fill="white" stroke="transparent" points="-4,4 -4,-738 916,-738 916,4 -4,4"/>
<!-- 1 -->
<g id="node1" class="node">
<title>1</title>
<text text-anchor="start" x="299" y="-715.8" font-family="Arial" font-weight="bold" font-size="14.00"> </text>
<path fill="#ebebeb" stroke="transparent" d="M259,-643C259,-643 343,-643 343,-643 349,-643 355,-649 355,-655 355,-655 355,-695 355,-695 355,-701 349,-707 343,-707 343,-707 259,-707 259,-707 253,-707 247,-701 247,-695 247,-695 247,-655 247,-655 247,-649 253,-643 259,-643"/>
<text text-anchor="start" x="248" y="-704.4" font-family="Arial" font-size="2.00"> </text>
<text text-anchor="start" x="248" y="-698.4" font-family="Arial" font-size="7.00"> &#160;1</text>
<text text-anchor="start" x="262" y="-681.8" font-family="Arial" font-weight="bold" font-size="14.00">Mean: 24.51</text>
<text text-anchor="start" x="277.5" y="-664.8" font-family="Arial" font-weight="bold" font-size="14.00">n = 672</text>
<text text-anchor="start" x="299.5" y="-646.8" font-family="Arial" font-size="9.00"> </text>
<path fill="none" stroke="#333333" d="M259,-643C259,-643 343,-643 343,-643 349,-643 355,-649 355,-655 355,-655 355,-695 355,-695 355,-701 349,-707 343,-707 343,-707 259,-707 259,-707 253,-707 247,-701 247,-695 247,-695 247,-655 247,-655 247,-649 253,-643 259,-643"/>
<text text-anchor="start" x="286.5" y="-628.8" font-family="Arial" font-weight="bold" font-size="14.00">time</text>
</g>
<!-- 2 -->
<g id="node2" class="node">
<title>2</title>
<text text-anchor="start" x="207.5" y="-561.8" font-family="Arial" font-weight="bold" font-size="14.00"> &lt; 6.5</text>
<path fill="#ebebeb" stroke="transparent" d="M183,-489C183,-489 267,-489 267,-489 273,-489 279,-495 279,-501 279,-501 279,-541 279,-541 279,-547 273,-553 267,-553 267,-553 183,-553 183,-553 177,-553 171,-547 171,-541 171,-541 171,-501 171,-501 171,-495 177,-489 183,-489"/>
<text text-anchor="start" x="172" y="-550.4" font-family="Arial" font-size="2.00"> </text>
<text text-anchor="start" x="172" y="-544.4" font-family="Arial" font-size="7.00"> &#160;2</text>
<text text-anchor="start" x="186" y="-527.8" font-family="Arial" font-weight="bold" font-size="14.00">Mean: 21.72</text>
<text text-anchor="start" x="201.5" y="-510.8" font-family="Arial" font-weight="bold" font-size="14.00">n = 196</text>
<text text-anchor="start" x="223.5" y="-492.8" font-family="Arial" font-size="9.00"> </text>
<path fill="none" stroke="#333333" d="M183,-489C183,-489 267,-489 267,-489 273,-489 279,-495 279,-501 279,-501 279,-541 279,-541 279,-547 273,-553 267,-553 267,-553 183,-553 183,-553 177,-553 171,-547 171,-541 171,-541 171,-501 171,-501 171,-495 177,-489 183,-489"/>
<text text-anchor="start" x="210.5" y="-474.8" font-family="Arial" font-weight="bold" font-size="14.00">time</text>
</g>
<!-- 1&#45;&gt;2 -->
<g id="edge1" class="edge">
<title>1&#45;&gt;2</title>
<path fill="none" stroke="#888888" d="M271.83,-615.67C267.52,-607.03 263.04,-598.07 258.64,-589.27"/>
<polygon fill="#888888" stroke="#888888" points="261.69,-587.56 254.09,-580.18 255.43,-590.69 261.69,-587.56"/>
</g>
<!-- 5 -->
<g id="node3" class="node">
<title>5</title>
<text text-anchor="start" x="361" y="-561.8" font-family="Arial" font-weight="bold" font-size="14.00"> ≥ 6.5</text>
<path fill="#ebebeb" stroke="transparent" d="M336,-489C336,-489 420,-489 420,-489 426,-489 432,-495 432,-501 432,-501 432,-541 432,-541 432,-547 426,-553 420,-553 420,-553 336,-553 336,-553 330,-553 324,-547 324,-541 324,-541 324,-501 324,-501 324,-495 330,-489 336,-489"/>
<text text-anchor="start" x="325" y="-550.4" font-family="Arial" font-size="2.00"> </text>
<text text-anchor="start" x="325" y="-544.4" font-family="Arial" font-size="7.00"> &#160;5</text>
<text text-anchor="start" x="339" y="-527.8" font-family="Arial" font-weight="bold" font-size="14.00">Mean: 25.65</text>
<text text-anchor="start" x="354.5" y="-510.8" font-family="Arial" font-weight="bold" font-size="14.00">n = 476</text>
<text text-anchor="start" x="376.5" y="-492.8" font-family="Arial" font-size="9.00"> </text>
<path fill="none" stroke="#333333" d="M336,-489C336,-489 420,-489 420,-489 426,-489 432,-495 432,-501 432,-501 432,-541 432,-541 432,-547 426,-553 420,-553 420,-553 336,-553 336,-553 330,-553 324,-547 324,-541 324,-541 324,-501 324,-501 324,-495 330,-489 336,-489"/>
<text text-anchor="start" x="348.5" y="-474.8" font-family="Arial" font-weight="bold" font-size="14.00">day_type</text>
</g>
<!-- 1&#45;&gt;5 -->
<g id="edge2" class="edge">
<title>1&#45;&gt;5</title>
<path fill="none" stroke="#888888" d="M330.55,-615.67C334.93,-607.03 339.46,-598.07 343.92,-589.27"/>
<polygon fill="#888888" stroke="#888888" points="347.13,-590.68 348.53,-580.18 340.89,-587.52 347.13,-590.68"/>
</g>
<!-- 3 -->
<g id="node4" class="node">
<title>3</title>
<text text-anchor="start" x="51.5" y="-407.8" font-family="Arial" font-weight="bold" font-size="14.00"> &lt; 5.5</text>
<path fill="#f8766d" fill-opacity="0.874510" stroke="transparent" d="M24,-335C24,-335 114,-335 114,-335 120,-335 126,-341 126,-347 126,-347 126,-387 126,-387 126,-393 120,-399 114,-399 114,-399 24,-399 24,-399 18,-399 12,-393 12,-387 12,-387 12,-347 12,-347 12,-341 18,-335 24,-335"/>
<text text-anchor="start" x="13" y="-396.4" font-family="Arial" font-size="2.00"> </text>
<text text-anchor="start" x="13" y="-390.4" font-family="Arial" font-size="7.00"> &#160;3</text>
<text text-anchor="start" x="27" y="-373.8" font-family="Arial" font-weight="bold" font-size="14.00">Predict 21.48</text>
<text text-anchor="start" x="45.5" y="-356.8" font-family="Arial" font-weight="bold" font-size="14.00">n = 168</text>
<text text-anchor="start" x="67.5" y="-338.8" font-family="Arial" font-size="9.00"> </text>
<path fill="none" stroke="#333333" d="M24,-335C24,-335 114,-335 114,-335 120,-335 126,-341 126,-347 126,-347 126,-387 126,-387 126,-393 120,-399 114,-399 114,-399 24,-399 24,-399 18,-399 12,-393 12,-387 12,-387 12,-347 12,-347 12,-341 18,-335 24,-335"/>
<text text-anchor="start" x="67" y="-320.8" font-family="Arial" font-weight="bold" font-size="14.00"> </text>
</g>
<!-- 2&#45;&gt;3 -->
<g id="edge3" class="edge">
<title>2&#45;&gt;3</title>
<path fill="none" stroke="#888888" d="M165.13,-461.67C155.62,-452.39 145.72,-442.75 136.05,-433.33"/>
<polygon fill="#888888" stroke="#888888" points="138.31,-430.65 128.71,-426.18 133.43,-435.66 138.31,-430.65"/>
</g>
<!-- 4 -->
<g id="node5" class="node">
<title>4</title>
<text text-anchor="start" x="208" y="-407.8" font-family="Arial" font-weight="bold" font-size="14.00"> ≥ 5.5</text>
<path fill="#f8766d" fill-opacity="0.756863" stroke="transparent" d="M180,-335C180,-335 270,-335 270,-335 276,-335 282,-341 282,-347 282,-347 282,-387 282,-387 282,-393 276,-399 270,-399 270,-399 180,-399 180,-399 174,-399 168,-393 168,-387 168,-387 168,-347 168,-347 168,-341 174,-335 180,-335"/>
<text text-anchor="start" x="169" y="-396.4" font-family="Arial" font-size="2.00"> </text>
<text text-anchor="start" x="169" y="-390.4" font-family="Arial" font-size="7.00"> &#160;4</text>
<text text-anchor="start" x="183" y="-373.8" font-family="Arial" font-weight="bold" font-size="14.00">Predict 23.16</text>
<text text-anchor="start" x="205" y="-356.8" font-family="Arial" font-weight="bold" font-size="14.00">n = 28</text>
<text text-anchor="start" x="223.5" y="-338.8" font-family="Arial" font-size="9.00"> </text>
<path fill="none" stroke="#333333" d="M180,-335C180,-335 270,-335 270,-335 276,-335 282,-341 282,-347 282,-347 282,-387 282,-387 282,-393 276,-399 270,-399 270,-399 180,-399 180,-399 174,-399 168,-393 168,-387 168,-387 168,-347 168,-347 168,-341 174,-335 180,-335"/>
<text text-anchor="start" x="223" y="-320.8" font-family="Arial" font-weight="bold" font-size="14.00"> </text>
</g>
<!-- 2&#45;&gt;4 -->
<g id="edge4" class="edge">
<title>2&#45;&gt;4</title>
<path fill="none" stroke="#888888" d="M225,-461.67C225,-453.39 225,-444.83 225,-436.38"/>
<polygon fill="#888888" stroke="#888888" points="228.5,-436.18 225,-426.18 221.5,-436.18 228.5,-436.18"/>
</g>
<!-- 6 -->
<g id="node6" class="node">
<title>6</title>
<text text-anchor="start" x="360.5" y="-407.8" font-family="Arial" font-weight="bold" font-size="14.00"> &lt; 0.5</text>
<path fill="#ebebeb" stroke="transparent" d="M336,-335C336,-335 420,-335 420,-335 426,-335 432,-341 432,-347 432,-347 432,-387 432,-387 432,-393 426,-399 420,-399 420,-399 336,-399 336,-399 330,-399 324,-393 324,-387 324,-387 324,-347 324,-347 324,-341 330,-335 336,-335"/>
<text text-anchor="start" x="325" y="-396.4" font-family="Arial" font-size="2.00"> </text>
<text text-anchor="start" x="325" y="-390.4" font-family="Arial" font-size="7.00"> &#160;6</text>
<text text-anchor="start" x="339" y="-373.8" font-family="Arial" font-weight="bold" font-size="14.00">Mean: 23.45</text>
<text text-anchor="start" x="354.5" y="-356.8" font-family="Arial" font-weight="bold" font-size="14.00">n = 136</text>
<text text-anchor="start" x="376.5" y="-338.8" font-family="Arial" font-size="9.00"> </text>
<path fill="none" stroke="#333333" d="M336,-335C336,-335 420,-335 420,-335 426,-335 432,-341 432,-347 432,-347 432,-387 432,-387 432,-393 426,-399 420,-399 420,-399 336,-399 336,-399 330,-399 324,-393 324,-387 324,-387 324,-347 324,-347 324,-341 330,-335 336,-335"/>
<text text-anchor="start" x="363.5" y="-320.8" font-family="Arial" font-weight="bold" font-size="14.00">time</text>
</g>
<!-- 5&#45;&gt;6 -->
<g id="edge5" class="edge">
<title>5&#45;&gt;6</title>
<path fill="none" stroke="#888888" d="M378,-461.67C378,-453.39 378,-444.83 378,-436.38"/>
<polygon fill="#888888" stroke="#888888" points="381.5,-436.18 378,-426.18 374.5,-436.18 381.5,-436.18"/>
</g>
<!-- 9 -->
<g id="node7" class="node">
<title>9</title>
<text text-anchor="start" x="514" y="-407.8" font-family="Arial" font-weight="bold" font-size="14.00"> ≥ 0.5</text>
<path fill="#ebebeb" stroke="transparent" d="M489,-335C489,-335 573,-335 573,-335 579,-335 585,-341 585,-347 585,-347 585,-387 585,-387 585,-393 579,-399 573,-399 573,-399 489,-399 489,-399 483,-399 477,-393 477,-387 477,-387 477,-347 477,-347 477,-341 483,-335 489,-335"/>
<text text-anchor="start" x="478" y="-396.4" font-family="Arial" font-size="2.00"> </text>
<text text-anchor="start" x="478" y="-390.4" font-family="Arial" font-size="7.00"> &#160;9</text>
<text text-anchor="start" x="492" y="-373.8" font-family="Arial" font-weight="bold" font-size="14.00">Mean: 26.53</text>
<text text-anchor="start" x="507.5" y="-356.8" font-family="Arial" font-weight="bold" font-size="14.00">n = 340</text>
<text text-anchor="start" x="529.5" y="-338.8" font-family="Arial" font-size="9.00"> </text>
<path fill="none" stroke="#333333" d="M489,-335C489,-335 573,-335 573,-335 579,-335 585,-341 585,-347 585,-347 585,-387 585,-387 585,-393 579,-399 573,-399 573,-399 489,-399 489,-399 483,-399 477,-393 477,-387 477,-387 477,-347 477,-347 477,-341 483,-335 489,-335"/>
<text text-anchor="start" x="516.5" y="-320.8" font-family="Arial" font-weight="bold" font-size="14.00">time</text>
</g>
<!-- 5&#45;&gt;9 -->
<g id="edge6" class="edge">
<title>5&#45;&gt;9</title>
<path fill="none" stroke="#888888" d="M436.72,-461.67C446.05,-452.39 455.76,-442.75 465.24,-433.33"/>
<polygon fill="#888888" stroke="#888888" points="467.81,-435.71 472.44,-426.18 462.88,-430.74 467.81,-435.71"/>
</g>
<!-- 7 -->
<g id="node8" class="node">
<title>7</title>
<text text-anchor="start" x="200.5" y="-253.8" font-family="Arial" font-weight="bold" font-size="14.00"> &lt; 15.5</text>
<path fill="#f8766d" fill-opacity="0.670588" stroke="transparent" d="M177,-181C177,-181 267,-181 267,-181 273,-181 279,-187 279,-193 279,-193 279,-233 279,-233 279,-239 273,-245 267,-245 267,-245 177,-245 177,-245 171,-245 165,-239 165,-233 165,-233 165,-193 165,-193 165,-187 171,-181 177,-181"/>
<text text-anchor="start" x="166" y="-242.4" font-family="Arial" font-size="2.00"> </text>
<text text-anchor="start" x="166" y="-236.4" font-family="Arial" font-size="7.00"> &#160;7</text>
<text text-anchor="start" x="180" y="-219.8" font-family="Arial" font-weight="bold" font-size="14.00">Predict 24.42</text>
<text text-anchor="start" x="202" y="-202.8" font-family="Arial" font-weight="bold" font-size="14.00">n = 72</text>
<text text-anchor="start" x="220.5" y="-184.8" font-family="Arial" font-size="9.00"> </text>
<path fill="none" stroke="#333333" d="M177,-181C177,-181 267,-181 267,-181 273,-181 279,-187 279,-193 279,-193 279,-233 279,-233 279,-239 273,-245 267,-245 267,-245 177,-245 177,-245 171,-245 165,-239 165,-233 165,-233 165,-193 165,-193 165,-187 171,-181 177,-181"/>
<text text-anchor="start" x="220" y="-166.8" font-family="Arial" font-weight="bold" font-size="14.00"> </text>
</g>
<!-- 6&#45;&gt;7 -->
<g id="edge7" class="edge">
<title>6&#45;&gt;7</title>
<path fill="none" stroke="#888888" d="M318.13,-307.67C308.62,-298.39 298.72,-288.75 289.05,-279.33"/>
<polygon fill="#888888" stroke="#888888" points="291.31,-276.65 281.71,-272.18 286.43,-281.66 291.31,-276.65"/>
</g>
<!-- 8 -->
<g id="node9" class="node">
<title>8</title>
<text text-anchor="start" x="357" y="-253.8" font-family="Arial" font-weight="bold" font-size="14.00"> ≥ 15.5</text>
<path fill="#f8766d" fill-opacity="0.811765" stroke="transparent" d="M333,-181C333,-181 423,-181 423,-181 429,-181 435,-187 435,-193 435,-193 435,-233 435,-233 435,-239 429,-245 423,-245 423,-245 333,-245 333,-245 327,-245 321,-239 321,-233 321,-233 321,-193 321,-193 321,-187 327,-181 333,-181"/>
<text text-anchor="start" x="322" y="-242.4" font-family="Arial" font-size="2.00"> </text>
<text text-anchor="start" x="322" y="-236.4" font-family="Arial" font-size="7.00"> &#160;8</text>
<text text-anchor="start" x="336" y="-219.8" font-family="Arial" font-weight="bold" font-size="14.00">Predict 22.35</text>
<text text-anchor="start" x="358" y="-202.8" font-family="Arial" font-weight="bold" font-size="14.00">n = 64</text>
<text text-anchor="start" x="376.5" y="-184.8" font-family="Arial" font-size="9.00"> </text>
<path fill="none" stroke="#333333" d="M333,-181C333,-181 423,-181 423,-181 429,-181 435,-187 435,-193 435,-193 435,-233 435,-233 435,-239 429,-245 423,-245 423,-245 333,-245 333,-245 327,-245 321,-239 321,-233 321,-233 321,-193 321,-193 321,-187 327,-181 333,-181"/>
<text text-anchor="start" x="376" y="-166.8" font-family="Arial" font-weight="bold" font-size="14.00"> </text>
</g>
<!-- 6&#45;&gt;8 -->
<g id="edge8" class="edge">
<title>6&#45;&gt;8</title>
<path fill="none" stroke="#888888" d="M378,-307.67C378,-299.39 378,-290.83 378,-282.38"/>
<polygon fill="#888888" stroke="#888888" points="381.5,-282.18 378,-272.18 374.5,-282.18 381.5,-282.18"/>
</g>
<!-- 10 -->
<g id="node10" class="node">
<title>10</title>
<text text-anchor="start" x="509.5" y="-253.8" font-family="Arial" font-weight="bold" font-size="14.00"> &lt; 16.5</text>
<path fill="#ebebeb" stroke="transparent" d="M489,-181C489,-181 573,-181 573,-181 579,-181 585,-187 585,-193 585,-193 585,-233 585,-233 585,-239 579,-245 573,-245 573,-245 489,-245 489,-245 483,-245 477,-239 477,-233 477,-233 477,-193 477,-193 477,-187 483,-181 489,-181"/>
<text text-anchor="start" x="478" y="-242.4" font-family="Arial" font-size="2.00"> </text>
<text text-anchor="start" x="478" y="-236.4" font-family="Arial" font-size="7.00"> &#160;10</text>
<text text-anchor="start" x="492" y="-219.8" font-family="Arial" font-weight="bold" font-size="14.00">Mean: 28.21</text>
<text text-anchor="start" x="507.5" y="-202.8" font-family="Arial" font-weight="bold" font-size="14.00">n = 200</text>
<text text-anchor="start" x="529.5" y="-184.8" font-family="Arial" font-size="9.00"> </text>
<path fill="none" stroke="#333333" d="M489,-181C489,-181 573,-181 573,-181 579,-181 585,-187 585,-193 585,-193 585,-233 585,-233 585,-239 579,-245 573,-245 573,-245 489,-245 489,-245 483,-245 477,-239 477,-233 477,-233 477,-193 477,-193 477,-187 483,-181 489,-181"/>
<text text-anchor="start" x="516.5" y="-166.8" font-family="Arial" font-weight="bold" font-size="14.00">time</text>
</g>
<!-- 9&#45;&gt;10 -->
<g id="edge9" class="edge">
<title>9&#45;&gt;10</title>
<path fill="none" stroke="#888888" d="M531,-307.67C531,-299.39 531,-290.83 531,-282.38"/>
<polygon fill="#888888" stroke="#888888" points="534.5,-282.18 531,-272.18 527.5,-282.18 534.5,-282.18"/>
</g>
<!-- 13 -->
<g id="node11" class="node">
<title>13</title>
<text text-anchor="start" x="666" y="-253.8" font-family="Arial" font-weight="bold" font-size="14.00"> ≥ 16.5</text>
<path fill="#ebebeb" stroke="transparent" d="M645,-181C645,-181 729,-181 729,-181 735,-181 741,-187 741,-193 741,-193 741,-233 741,-233 741,-239 735,-245 729,-245 729,-245 645,-245 645,-245 639,-245 633,-239 633,-233 633,-233 633,-193 633,-193 633,-187 639,-181 645,-181"/>
<text text-anchor="start" x="634" y="-242.4" font-family="Arial" font-size="2.00"> </text>
<text text-anchor="start" x="634" y="-236.4" font-family="Arial" font-size="7.00"> &#160;13</text>
<text text-anchor="start" x="648" y="-219.8" font-family="Arial" font-weight="bold" font-size="14.00">Mean: 24.14</text>
<text text-anchor="start" x="663.5" y="-202.8" font-family="Arial" font-weight="bold" font-size="14.00">n = 140</text>
<text text-anchor="start" x="685.5" y="-184.8" font-family="Arial" font-size="9.00"> </text>
<path fill="none" stroke="#333333" d="M645,-181C645,-181 729,-181 729,-181 735,-181 741,-187 741,-193 741,-193 741,-233 741,-233 741,-239 735,-245 729,-245 729,-245 645,-245 645,-245 639,-245 633,-239 633,-233 633,-233 633,-193 633,-193 633,-187 639,-181 645,-181"/>
<text text-anchor="start" x="672.5" y="-166.8" font-family="Arial" font-weight="bold" font-size="14.00">time</text>
</g>
<!-- 9&#45;&gt;13 -->
<g id="edge10" class="edge">
<title>9&#45;&gt;13</title>
<path fill="none" stroke="#888888" d="M590.87,-307.67C600.38,-298.39 610.28,-288.75 619.95,-279.33"/>
<polygon fill="#888888" stroke="#888888" points="622.57,-281.66 627.29,-272.18 617.69,-276.65 622.57,-281.66"/>
</g>
<!-- 11 -->
<g id="node12" class="node">
<title>11</title>
<text text-anchor="start" x="357.5" y="-99.8" font-family="Arial" font-weight="bold" font-size="14.00"> &lt; 8.5</text>
<path fill="#f8766d" fill-opacity="0.517647" stroke="transparent" d="M330,-27C330,-27 420,-27 420,-27 426,-27 432,-33 432,-39 432,-39 432,-79 432,-79 432,-85 426,-91 420,-91 420,-91 330,-91 330,-91 324,-91 318,-85 318,-79 318,-79 318,-39 318,-39 318,-33 324,-27 330,-27"/>
<text text-anchor="start" x="319" y="-88.4" font-family="Arial" font-size="2.00"> </text>
<text text-anchor="start" x="319" y="-82.4" font-family="Arial" font-size="7.00"> &#160;11</text>
<text text-anchor="start" x="333" y="-65.8" font-family="Arial" font-weight="bold" font-size="14.00">Predict 26.59</text>
<text text-anchor="start" x="355" y="-48.8" font-family="Arial" font-weight="bold" font-size="14.00">n = 40</text>
<text text-anchor="start" x="373.5" y="-30.8" font-family="Arial" font-size="9.00"> </text>
<path fill="none" stroke="#333333" d="M330,-27C330,-27 420,-27 420,-27 426,-27 432,-33 432,-39 432,-39 432,-79 432,-79 432,-85 426,-91 420,-91 420,-91 330,-91 330,-91 324,-91 318,-85 318,-79 318,-79 318,-39 318,-39 318,-33 324,-27 330,-27"/>
<text text-anchor="start" x="373" y="-12.8" font-family="Arial" font-weight="bold" font-size="14.00"> </text>
</g>
<!-- 10&#45;&gt;11 -->
<g id="edge11" class="edge">
<title>10&#45;&gt;11</title>
<path fill="none" stroke="#888888" d="M471.13,-153.67C461.62,-144.39 451.72,-134.75 442.05,-125.33"/>
<polygon fill="#888888" stroke="#888888" points="444.31,-122.65 434.71,-118.18 439.43,-127.66 444.31,-122.65"/>
</g>
<!-- 12 -->
<g id="node13" class="node">
<title>12</title>
<text text-anchor="start" x="514" y="-99.8" font-family="Arial" font-weight="bold" font-size="14.00"> ≥ 8.5</text>
<path fill="#f8766d" fill-opacity="0.376471" stroke="transparent" d="M486,-27C486,-27 576,-27 576,-27 582,-27 588,-33 588,-39 588,-39 588,-79 588,-79 588,-85 582,-91 576,-91 576,-91 486,-91 486,-91 480,-91 474,-85 474,-79 474,-79 474,-39 474,-39 474,-33 480,-27 486,-27"/>
<text text-anchor="start" x="475" y="-88.4" font-family="Arial" font-size="2.00"> </text>
<text text-anchor="start" x="475" y="-82.4" font-family="Arial" font-size="7.00"> &#160;12</text>
<text text-anchor="start" x="489" y="-65.8" font-family="Arial" font-weight="bold" font-size="14.00">Predict 28.61</text>
<text text-anchor="start" x="507.5" y="-48.8" font-family="Arial" font-weight="bold" font-size="14.00">n = 160</text>
<text text-anchor="start" x="529.5" y="-30.8" font-family="Arial" font-size="9.00"> </text>
<path fill="none" stroke="#333333" d="M486,-27C486,-27 576,-27 576,-27 582,-27 588,-33 588,-39 588,-39 588,-79 588,-79 588,-85 582,-91 576,-91 576,-91 486,-91 486,-91 480,-91 474,-85 474,-79 474,-79 474,-39 474,-39 474,-33 480,-27 486,-27"/>
<text text-anchor="start" x="529" y="-12.8" font-family="Arial" font-weight="bold" font-size="14.00"> </text>
</g>
<!-- 10&#45;&gt;12 -->
<g id="edge12" class="edge">
<title>10&#45;&gt;12</title>
<path fill="none" stroke="#888888" d="M531,-153.67C531,-145.39 531,-136.83 531,-128.38"/>
<polygon fill="#888888" stroke="#888888" points="534.5,-128.18 531,-118.18 527.5,-128.18 534.5,-128.18"/>
</g>
<!-- 14 -->
<g id="node14" class="node">
<title>14</title>
<text text-anchor="start" x="665.5" y="-99.8" font-family="Arial" font-weight="bold" font-size="14.00"> &lt; 19.5</text>
<path fill="#f8766d" fill-opacity="0.611765" stroke="transparent" d="M642,-27C642,-27 732,-27 732,-27 738,-27 744,-33 744,-39 744,-39 744,-79 744,-79 744,-85 738,-91 732,-91 732,-91 642,-91 642,-91 636,-91 630,-85 630,-79 630,-79 630,-39 630,-39 630,-33 636,-27 642,-27"/>
<text text-anchor="start" x="631" y="-88.4" font-family="Arial" font-size="2.00"> </text>
<text text-anchor="start" x="631" y="-82.4" font-family="Arial" font-size="7.00"> &#160;14</text>
<text text-anchor="start" x="645" y="-65.8" font-family="Arial" font-weight="bold" font-size="14.00">Predict 25.25</text>
<text text-anchor="start" x="667" y="-48.8" font-family="Arial" font-weight="bold" font-size="14.00">n = 60</text>
<text text-anchor="start" x="685.5" y="-30.8" font-family="Arial" font-size="9.00"> </text>
<path fill="none" stroke="#333333" d="M642,-27C642,-27 732,-27 732,-27 738,-27 744,-33 744,-39 744,-39 744,-79 744,-79 744,-85 738,-91 732,-91 732,-91 642,-91 642,-91 636,-91 630,-85 630,-79 630,-79 630,-39 630,-39 630,-33 636,-27 642,-27"/>
<text text-anchor="start" x="685" y="-12.8" font-family="Arial" font-weight="bold" font-size="14.00"> </text>
</g>
<!-- 13&#45;&gt;14 -->
<g id="edge13" class="edge">
<title>13&#45;&gt;14</title>
<path fill="none" stroke="#888888" d="M687,-153.67C687,-145.39 687,-136.83 687,-128.38"/>
<polygon fill="#888888" stroke="#888888" points="690.5,-128.18 687,-118.18 683.5,-128.18 690.5,-128.18"/>
</g>
<!-- 15 -->
<g id="node15" class="node">
<title>15</title>
<text text-anchor="start" x="822" y="-99.8" font-family="Arial" font-weight="bold" font-size="14.00"> ≥ 19.5</text>
<path fill="#f8766d" fill-opacity="0.745098" stroke="transparent" d="M798,-27C798,-27 888,-27 888,-27 894,-27 900,-33 900,-39 900,-39 900,-79 900,-79 900,-85 894,-91 888,-91 888,-91 798,-91 798,-91 792,-91 786,-85 786,-79 786,-79 786,-39 786,-39 786,-33 792,-27 798,-27"/>
<text text-anchor="start" x="787" y="-88.4" font-family="Arial" font-size="2.00"> </text>
<text text-anchor="start" x="787" y="-82.4" font-family="Arial" font-size="7.00"> &#160;15</text>
<text text-anchor="start" x="801" y="-65.8" font-family="Arial" font-weight="bold" font-size="14.00">Predict 23.31</text>
<text text-anchor="start" x="823" y="-48.8" font-family="Arial" font-weight="bold" font-size="14.00">n = 80</text>
<text text-anchor="start" x="841.5" y="-30.8" font-family="Arial" font-size="9.00"> </text>
<path fill="none" stroke="#333333" d="M798,-27C798,-27 888,-27 888,-27 894,-27 900,-33 900,-39 900,-39 900,-79 900,-79 900,-85 894,-91 888,-91 888,-91 798,-91 798,-91 792,-91 786,-85 786,-79 786,-79 786,-39 786,-39 786,-33 792,-27 798,-27"/>
<text text-anchor="start" x="841" y="-12.8" font-family="Arial" font-weight="bold" font-size="14.00"> </text>
</g>
<!-- 13&#45;&gt;15 -->
<g id="edge14" class="edge">
<title>13&#45;&gt;15</title>
<path fill="none" stroke="#888888" d="M746.87,-153.67C756.38,-144.39 766.28,-134.75 775.95,-125.33"/>
<polygon fill="#888888" stroke="#888888" points="778.57,-127.66 783.29,-118.18 773.69,-122.65 778.57,-127.66"/>
</g>
</g>
</svg>
