<?xml version="1.0" encoding="utf-8"?>
<svg xmlns="http://www.w3.org/2000/svg" xmlns:xlink="http://www.w3.org/1999/xlink" width="1000" height="400" viewBox="0 0 4000 1600">
<defs>
  <clipPath id="clip950">
    <rect x="0" y="0" width="4000" height="1600"/>
  </clipPath>
</defs>
<path clip-path="url(#clip950)" d="M0 1600 L4000 1600 L4000 0 L0 0  Z" fill="#ffffff" fill-rule="evenodd" fill-opacity="1"/>
<defs>
  <clipPath id="clip951">
    <rect x="800" y="0" width="2801" height="1600"/>
  </clipPath>
</defs>
<path clip-path="url(#clip950)" d="M237.055 1497.68 L3184.67 1497.68 L3184.67 47.2441 L237.055 47.2441  Z" fill="#ffffff" fill-rule="evenodd" fill-opacity="1"/>
<defs>
  <clipPath id="clip952">
    <rect x="237" y="47" width="2949" height="1451"/>
  </clipPath>
</defs>
<polyline clip-path="url(#clip952)" style="stroke:#000000; stroke-linecap:round; stroke-linejoin:round; stroke-width:2; stroke-opacity:0.1; fill:none" points="320.479,1497.68 320.479,47.2441 "/>
<polyline clip-path="url(#clip952)" style="stroke:#000000; stroke-linecap:round; stroke-linejoin:round; stroke-width:2; stroke-opacity:0.1; fill:none" points="1119.74,1497.68 1119.74,47.2441 "/>
<polyline clip-path="url(#clip952)" style="stroke:#000000; stroke-linecap:round; stroke-linejoin:round; stroke-width:2; stroke-opacity:0.1; fill:none" points="1919.01,1497.68 1919.01,47.2441 "/>
<polyline clip-path="url(#clip952)" style="stroke:#000000; stroke-linecap:round; stroke-linejoin:round; stroke-width:2; stroke-opacity:0.1; fill:none" points="2718.27,1497.68 2718.27,47.2441 "/>
<polyline clip-path="url(#clip950)" style="stroke:#000000; stroke-linecap:round; stroke-linejoin:round; stroke-width:4; stroke-opacity:1; fill:none" points="237.055,1497.68 3184.67,1497.68 "/>
<polyline clip-path="url(#clip950)" style="stroke:#000000; stroke-linecap:round; stroke-linejoin:round; stroke-width:4; stroke-opacity:1; fill:none" points="320.479,1497.68 320.479,1478.78 "/>
<polyline clip-path="url(#clip950)" style="stroke:#000000; stroke-linecap:round; stroke-linejoin:round; stroke-width:4; stroke-opacity:1; fill:none" points="1119.74,1497.68 1119.74,1478.78 "/>
<polyline clip-path="url(#clip950)" style="stroke:#000000; stroke-linecap:round; stroke-linejoin:round; stroke-width:4; stroke-opacity:1; fill:none" points="1919.01,1497.68 1919.01,1478.78 "/>
<polyline clip-path="url(#clip950)" style="stroke:#000000; stroke-linecap:round; stroke-linejoin:round; stroke-width:4; stroke-opacity:1; fill:none" points="2718.27,1497.68 2718.27,1478.78 "/>
<path clip-path="url(#clip950)" d="M175.466 1573.85 L193.826 1573.85 L193.826 1578.28 L169.138 1578.28 L169.138 1573.85 Q172.133 1570.75 177.289 1565.55 Q182.472 1560.31 183.8 1558.8 Q186.326 1555.96 187.315 1554.01 Q188.331 1552.03 188.331 1550.13 Q188.331 1547.03 186.143 1545.08 Q183.982 1543.12 180.492 1543.12 Q178.018 1543.12 175.258 1543.98 Q172.524 1544.84 169.399 1546.59 L169.399 1541.27 Q172.576 1540 175.336 1539.35 Q178.097 1538.7 180.388 1538.7 Q186.43 1538.7 190.024 1541.72 Q193.617 1544.74 193.617 1549.79 Q193.617 1552.19 192.706 1554.35 Q191.821 1556.48 189.451 1559.4 Q188.8 1560.15 185.31 1563.77 Q181.821 1567.37 175.466 1573.85 Z" fill="#000000" fill-rule="nonzero" fill-opacity="1" /><path clip-path="url(#clip950)" d="M216.117 1542.86 Q212.055 1542.86 209.997 1546.87 Q207.966 1550.86 207.966 1558.88 Q207.966 1566.87 209.997 1570.88 Q212.055 1574.87 216.117 1574.87 Q220.206 1574.87 222.237 1570.88 Q224.294 1566.87 224.294 1558.88 Q224.294 1550.86 222.237 1546.87 Q220.206 1542.86 216.117 1542.86 M216.117 1538.7 Q222.654 1538.7 226.091 1543.88 Q229.555 1549.04 229.555 1558.88 Q229.555 1568.7 226.091 1573.88 Q222.654 1579.04 216.117 1579.04 Q209.581 1579.04 206.117 1573.88 Q202.68 1568.7 202.68 1558.88 Q202.68 1549.04 206.117 1543.88 Q209.581 1538.7 216.117 1538.7 Z" fill="#000000" fill-rule="nonzero" fill-opacity="1" /><path clip-path="url(#clip950)" d="M243.331 1573.85 L261.69 1573.85 L261.69 1578.28 L237.003 1578.28 L237.003 1573.85 Q239.997 1570.75 245.154 1565.55 Q250.336 1560.31 251.664 1558.8 Q254.19 1555.96 255.18 1554.01 Q256.195 1552.03 256.195 1550.13 Q256.195 1547.03 254.008 1545.08 Q251.846 1543.12 248.357 1543.12 Q245.883 1543.12 243.122 1543.98 Q240.388 1544.84 237.263 1546.59 L237.263 1541.27 Q240.44 1540 243.2 1539.35 Q245.961 1538.7 248.252 1538.7 Q254.294 1538.7 257.888 1541.72 Q261.482 1544.74 261.482 1549.79 Q261.482 1552.19 260.57 1554.35 Q259.685 1556.48 257.315 1559.4 Q256.664 1560.15 253.174 1563.77 Q249.685 1567.37 243.331 1573.85 Z" fill="#000000" fill-rule="nonzero" fill-opacity="1" /><path clip-path="url(#clip950)" d="M288.669 1557.32 Q292.445 1558.12 294.554 1560.68 Q296.69 1563.23 296.69 1566.98 Q296.69 1572.73 292.731 1575.88 Q288.773 1579.04 281.481 1579.04 Q279.034 1579.04 276.429 1578.54 Q273.851 1578.07 271.091 1577.11 L271.091 1572.03 Q273.278 1573.31 275.883 1573.96 Q278.487 1574.61 281.325 1574.61 Q286.273 1574.61 288.851 1572.65 Q291.455 1570.7 291.455 1566.98 Q291.455 1563.54 289.034 1561.61 Q286.638 1559.66 282.341 1559.66 L277.81 1559.66 L277.81 1555.34 L282.549 1555.34 Q286.429 1555.34 288.487 1553.8 Q290.544 1552.24 290.544 1549.32 Q290.544 1546.33 288.409 1544.74 Q286.299 1543.12 282.341 1543.12 Q280.179 1543.12 277.705 1543.59 Q275.232 1544.06 272.263 1545.05 L272.263 1540.36 Q275.258 1539.53 277.862 1539.11 Q280.492 1538.7 282.81 1538.7 Q288.799 1538.7 292.289 1541.43 Q295.778 1544.14 295.778 1548.77 Q295.778 1552 293.929 1554.24 Q292.08 1556.46 288.669 1557.32 Z" fill="#000000" fill-rule="nonzero" fill-opacity="1" /><path clip-path="url(#clip950)" d="M303.565 1561.54 L317.601 1561.54 L317.601 1565.81 L303.565 1565.81 L303.565 1561.54 Z" fill="#000000" fill-rule="nonzero" fill-opacity="1" /><path clip-path="url(#clip950)" d="M337.158 1542.86 Q333.096 1542.86 331.039 1546.87 Q329.007 1550.86 329.007 1558.88 Q329.007 1566.87 331.039 1570.88 Q333.096 1574.87 337.158 1574.87 Q341.247 1574.87 343.278 1570.88 Q345.335 1566.87 345.335 1558.88 Q345.335 1550.86 343.278 1546.87 Q341.247 1542.86 337.158 1542.86 M337.158 1538.7 Q343.695 1538.7 347.132 1543.88 Q350.596 1549.04 350.596 1558.88 Q350.596 1568.7 347.132 1573.88 Q343.695 1579.04 337.158 1579.04 Q330.622 1579.04 327.158 1573.88 Q323.721 1568.7 323.721 1558.88 Q323.721 1549.04 327.158 1543.88 Q330.622 1538.7 337.158 1538.7 Z" fill="#000000" fill-rule="nonzero" fill-opacity="1" /><path clip-path="url(#clip950)" d="M375.778 1557.32 Q379.554 1558.12 381.663 1560.68 Q383.799 1563.23 383.799 1566.98 Q383.799 1572.73 379.84 1575.88 Q375.882 1579.04 368.59 1579.04 Q366.142 1579.04 363.538 1578.54 Q360.96 1578.07 358.2 1577.11 L358.2 1572.03 Q360.387 1573.31 362.991 1573.96 Q365.596 1574.61 368.434 1574.61 Q373.382 1574.61 375.96 1572.65 Q378.564 1570.7 378.564 1566.98 Q378.564 1563.54 376.142 1561.61 Q373.747 1559.66 369.45 1559.66 L364.919 1559.66 L364.919 1555.34 L369.658 1555.34 Q373.538 1555.34 375.596 1553.8 Q377.653 1552.24 377.653 1549.32 Q377.653 1546.33 375.517 1544.74 Q373.408 1543.12 369.45 1543.12 Q367.288 1543.12 364.814 1543.59 Q362.34 1544.06 359.372 1545.05 L359.372 1540.36 Q362.366 1539.53 364.971 1539.11 Q367.601 1538.7 369.919 1538.7 Q375.908 1538.7 379.398 1541.43 Q382.887 1544.14 382.887 1548.77 Q382.887 1552 381.038 1554.24 Q379.189 1556.46 375.778 1557.32 Z" fill="#000000" fill-rule="nonzero" fill-opacity="1" /><path clip-path="url(#clip950)" d="M390.674 1561.54 L404.71 1561.54 L404.71 1565.81 L390.674 1565.81 L390.674 1561.54 Z" fill="#000000" fill-rule="nonzero" fill-opacity="1" /><path clip-path="url(#clip950)" d="M424.267 1542.86 Q420.205 1542.86 418.147 1546.87 Q416.116 1550.86 416.116 1558.88 Q416.116 1566.87 418.147 1570.88 Q420.205 1574.87 424.267 1574.87 Q428.356 1574.87 430.387 1570.88 Q432.444 1566.87 432.444 1558.88 Q432.444 1550.86 430.387 1546.87 Q428.356 1542.86 424.267 1542.86 M424.267 1538.7 Q430.804 1538.7 434.241 1543.88 Q437.705 1549.04 437.705 1558.88 Q437.705 1568.7 434.241 1573.88 Q430.804 1579.04 424.267 1579.04 Q417.731 1579.04 414.267 1573.88 Q410.83 1568.7 410.83 1558.88 Q410.83 1549.04 414.267 1543.88 Q417.731 1538.7 424.267 1538.7 Z" fill="#000000" fill-rule="nonzero" fill-opacity="1" /><path clip-path="url(#clip950)" d="M458.85 1556.74 Q455.309 1556.74 453.225 1559.17 Q451.168 1561.59 451.168 1565.81 Q451.168 1570 453.225 1572.45 Q455.309 1574.87 458.85 1574.87 Q462.392 1574.87 464.449 1572.45 Q466.533 1570 466.533 1565.81 Q466.533 1561.59 464.449 1559.17 Q462.392 1556.74 458.85 1556.74 M469.293 1540.26 L469.293 1545.05 Q467.314 1544.11 465.283 1543.62 Q463.277 1543.12 461.298 1543.12 Q456.09 1543.12 453.33 1546.64 Q450.595 1550.16 450.205 1557.26 Q451.741 1555 454.059 1553.8 Q456.376 1552.58 459.163 1552.58 Q465.022 1552.58 468.408 1556.14 Q471.819 1559.69 471.819 1565.81 Q471.819 1571.8 468.277 1575.42 Q464.736 1579.04 458.85 1579.04 Q452.106 1579.04 448.538 1573.88 Q444.97 1568.7 444.97 1558.88 Q444.97 1549.66 449.345 1544.19 Q453.72 1538.7 461.09 1538.7 Q463.069 1538.7 465.074 1539.09 Q467.105 1539.48 469.293 1540.26 Z" fill="#000000" fill-rule="nonzero" fill-opacity="1" /><path clip-path="url(#clip950)" d="M974.874 1573.85 L993.233 1573.85 L993.233 1578.28 L968.546 1578.28 L968.546 1573.85 Q971.54 1570.75 976.697 1565.55 Q981.879 1560.31 983.207 1558.8 Q985.733 1555.96 986.723 1554.01 Q987.738 1552.03 987.738 1550.13 Q987.738 1547.03 985.551 1545.08 Q983.389 1543.12 979.9 1543.12 Q977.426 1543.12 974.665 1543.98 Q971.931 1544.84 968.806 1546.59 L968.806 1541.27 Q971.983 1540 974.743 1539.35 Q977.504 1538.7 979.795 1538.7 Q985.837 1538.7 989.431 1541.72 Q993.025 1544.74 993.025 1549.79 Q993.025 1552.19 992.113 1554.35 Q991.228 1556.48 988.858 1559.4 Q988.207 1560.15 984.717 1563.77 Q981.228 1567.37 974.874 1573.85 Z" fill="#000000" fill-rule="nonzero" fill-opacity="1" /><path clip-path="url(#clip950)" d="M1015.52 1542.86 Q1011.46 1542.86 1009.4 1546.87 Q1007.37 1550.86 1007.37 1558.88 Q1007.37 1566.87 1009.4 1570.88 Q1011.46 1574.87 1015.52 1574.87 Q1019.61 1574.87 1021.64 1570.88 Q1023.7 1566.87 1023.7 1558.88 Q1023.7 1550.86 1021.64 1546.87 Q1019.61 1542.86 1015.52 1542.86 M1015.52 1538.7 Q1022.06 1538.7 1025.5 1543.88 Q1028.96 1549.04 1028.96 1558.88 Q1028.96 1568.7 1025.5 1573.88 Q1022.06 1579.04 1015.52 1579.04 Q1008.99 1579.04 1005.52 1573.88 Q1002.09 1568.7 1002.09 1558.88 Q1002.09 1549.04 1005.52 1543.88 Q1008.99 1538.7 1015.52 1538.7 Z" fill="#000000" fill-rule="nonzero" fill-opacity="1" /><path clip-path="url(#clip950)" d="M1042.74 1573.85 L1061.1 1573.85 L1061.1 1578.28 L1036.41 1578.28 L1036.41 1573.85 Q1039.4 1570.75 1044.56 1565.55 Q1049.74 1560.31 1051.07 1558.8 Q1053.6 1555.96 1054.59 1554.01 Q1055.6 1552.03 1055.6 1550.13 Q1055.6 1547.03 1053.41 1545.08 Q1051.25 1543.12 1047.76 1543.12 Q1045.29 1543.12 1042.53 1543.98 Q1039.8 1544.84 1036.67 1546.59 L1036.67 1541.27 Q1039.85 1540 1042.61 1539.35 Q1045.37 1538.7 1047.66 1538.7 Q1053.7 1538.7 1057.3 1541.72 Q1060.89 1544.74 1060.89 1549.79 Q1060.89 1552.19 1059.98 1554.35 Q1059.09 1556.48 1056.72 1559.4 Q1056.07 1560.15 1052.58 1563.77 Q1049.09 1567.37 1042.74 1573.85 Z" fill="#000000" fill-rule="nonzero" fill-opacity="1" /><path clip-path="url(#clip950)" d="M1088.08 1557.32 Q1091.85 1558.12 1093.96 1560.68 Q1096.1 1563.23 1096.1 1566.98 Q1096.1 1572.73 1092.14 1575.88 Q1088.18 1579.04 1080.89 1579.04 Q1078.44 1579.04 1075.84 1578.54 Q1073.26 1578.07 1070.5 1577.11 L1070.5 1572.03 Q1072.69 1573.31 1075.29 1573.96 Q1077.89 1574.61 1080.73 1574.61 Q1085.68 1574.61 1088.26 1572.65 Q1090.86 1570.7 1090.86 1566.98 Q1090.86 1563.54 1088.44 1561.61 Q1086.04 1559.66 1081.75 1559.66 L1077.22 1559.66 L1077.22 1555.34 L1081.96 1555.34 Q1085.84 1555.34 1087.89 1553.8 Q1089.95 1552.24 1089.95 1549.32 Q1089.95 1546.33 1087.82 1544.74 Q1085.71 1543.12 1081.75 1543.12 Q1079.59 1543.12 1077.11 1543.59 Q1074.64 1544.06 1071.67 1545.05 L1071.67 1540.36 Q1074.66 1539.53 1077.27 1539.11 Q1079.9 1538.7 1082.22 1538.7 Q1088.21 1538.7 1091.7 1541.43 Q1095.19 1544.14 1095.19 1548.77 Q1095.19 1552 1093.34 1554.24 Q1091.49 1556.46 1088.08 1557.32 Z" fill="#000000" fill-rule="nonzero" fill-opacity="1" /><path clip-path="url(#clip950)" d="M1102.97 1561.54 L1117.01 1561.54 L1117.01 1565.81 L1102.97 1565.81 L1102.97 1561.54 Z" fill="#000000" fill-rule="nonzero" fill-opacity="1" /><path clip-path="url(#clip950)" d="M1136.57 1542.86 Q1132.5 1542.86 1130.45 1546.87 Q1128.41 1550.86 1128.41 1558.88 Q1128.41 1566.87 1130.45 1570.88 Q1132.5 1574.87 1136.57 1574.87 Q1140.65 1574.87 1142.69 1570.88 Q1144.74 1566.87 1144.74 1558.88 Q1144.74 1550.86 1142.69 1546.87 Q1140.65 1542.86 1136.57 1542.86 M1136.57 1538.7 Q1143.1 1538.7 1146.54 1543.88 Q1150 1549.04 1150 1558.88 Q1150 1568.7 1146.54 1573.88 Q1143.1 1579.04 1136.57 1579.04 Q1130.03 1579.04 1126.57 1573.88 Q1123.13 1568.7 1123.13 1558.88 Q1123.13 1549.04 1126.57 1543.88 Q1130.03 1538.7 1136.57 1538.7 Z" fill="#000000" fill-rule="nonzero" fill-opacity="1" /><path clip-path="url(#clip950)" d="M1175.19 1557.32 Q1178.96 1558.12 1181.07 1560.68 Q1183.21 1563.23 1183.21 1566.98 Q1183.21 1572.73 1179.25 1575.88 Q1175.29 1579.04 1168 1579.04 Q1165.55 1579.04 1162.95 1578.54 Q1160.37 1578.07 1157.61 1577.11 L1157.61 1572.03 Q1159.79 1573.31 1162.4 1573.96 Q1165 1574.61 1167.84 1574.61 Q1172.79 1574.61 1175.37 1572.65 Q1177.97 1570.7 1177.97 1566.98 Q1177.97 1563.54 1175.55 1561.61 Q1173.15 1559.66 1168.86 1559.66 L1164.33 1559.66 L1164.33 1555.34 L1169.07 1555.34 Q1172.95 1555.34 1175 1553.8 Q1177.06 1552.24 1177.06 1549.32 Q1177.06 1546.33 1174.92 1544.74 Q1172.82 1543.12 1168.86 1543.12 Q1166.7 1543.12 1164.22 1543.59 Q1161.75 1544.06 1158.78 1545.05 L1158.78 1540.36 Q1161.77 1539.53 1164.38 1539.11 Q1167.01 1538.7 1169.33 1538.7 Q1175.32 1538.7 1178.8 1541.43 Q1182.29 1544.14 1182.29 1548.77 Q1182.29 1552 1180.45 1554.24 Q1178.6 1556.46 1175.19 1557.32 Z" fill="#000000" fill-rule="nonzero" fill-opacity="1" /><path clip-path="url(#clip950)" d="M1190.08 1561.54 L1204.12 1561.54 L1204.12 1565.81 L1190.08 1565.81 L1190.08 1561.54 Z" fill="#000000" fill-rule="nonzero" fill-opacity="1" /><path clip-path="url(#clip950)" d="M1223.67 1542.86 Q1219.61 1542.86 1217.55 1546.87 Q1215.52 1550.86 1215.52 1558.88 Q1215.52 1566.87 1217.55 1570.88 Q1219.61 1574.87 1223.67 1574.87 Q1227.76 1574.87 1229.79 1570.88 Q1231.85 1566.87 1231.85 1558.88 Q1231.85 1550.86 1229.79 1546.87 Q1227.76 1542.86 1223.67 1542.86 M1223.67 1538.7 Q1230.21 1538.7 1233.65 1543.88 Q1237.11 1549.04 1237.11 1558.88 Q1237.11 1568.7 1233.65 1573.88 Q1230.21 1579.04 1223.67 1579.04 Q1217.14 1579.04 1213.67 1573.88 Q1210.24 1568.7 1210.24 1558.88 Q1210.24 1549.04 1213.67 1543.88 Q1217.14 1538.7 1223.67 1538.7 Z" fill="#000000" fill-rule="nonzero" fill-opacity="1" /><path clip-path="url(#clip950)" d="M1257.61 1559.82 Q1253.86 1559.82 1251.7 1561.82 Q1249.56 1563.83 1249.56 1567.34 Q1249.56 1570.86 1251.7 1572.86 Q1253.86 1574.87 1257.61 1574.87 Q1261.36 1574.87 1263.52 1572.86 Q1265.68 1570.83 1265.68 1567.34 Q1265.68 1563.83 1263.52 1561.82 Q1261.38 1559.82 1257.61 1559.82 M1252.35 1557.58 Q1248.96 1556.74 1247.06 1554.43 Q1245.18 1552.11 1245.18 1548.77 Q1245.18 1544.11 1248.49 1541.41 Q1251.83 1538.7 1257.61 1538.7 Q1263.41 1538.7 1266.72 1541.41 Q1270.03 1544.11 1270.03 1548.77 Q1270.03 1552.11 1268.13 1554.43 Q1266.25 1556.74 1262.89 1557.58 Q1266.69 1558.46 1268.8 1561.04 Q1270.94 1563.62 1270.94 1567.34 Q1270.94 1572.99 1267.48 1576.01 Q1264.04 1579.04 1257.61 1579.04 Q1251.17 1579.04 1247.71 1576.01 Q1244.27 1572.99 1244.27 1567.34 Q1244.27 1563.62 1246.41 1561.04 Q1248.54 1558.46 1252.35 1557.58 M1250.42 1549.27 Q1250.42 1552.29 1252.29 1553.98 Q1254.2 1555.68 1257.61 1555.68 Q1260.99 1555.68 1262.89 1553.98 Q1264.82 1552.29 1264.82 1549.27 Q1264.82 1546.25 1262.89 1544.56 Q1260.99 1542.86 1257.61 1542.86 Q1254.2 1542.86 1252.29 1544.56 Q1250.42 1546.25 1250.42 1549.27 Z" fill="#000000" fill-rule="nonzero" fill-opacity="1" /><path clip-path="url(#clip950)" d="M1774.09 1573.85 L1792.44 1573.85 L1792.44 1578.28 L1767.76 1578.28 L1767.76 1573.85 Q1770.75 1570.75 1775.91 1565.55 Q1781.09 1560.31 1782.42 1558.8 Q1784.94 1555.96 1785.93 1554.01 Q1786.95 1552.03 1786.95 1550.13 Q1786.95 1547.03 1784.76 1545.08 Q1782.6 1543.12 1779.11 1543.12 Q1776.64 1543.12 1773.88 1543.98 Q1771.14 1544.84 1768.02 1546.59 L1768.02 1541.27 Q1771.19 1540 1773.96 1539.35 Q1776.72 1538.7 1779.01 1538.7 Q1785.05 1538.7 1788.64 1541.72 Q1792.24 1544.74 1792.24 1549.79 Q1792.24 1552.19 1791.32 1554.35 Q1790.44 1556.48 1788.07 1559.4 Q1787.42 1560.15 1783.93 1563.77 Q1780.44 1567.37 1774.09 1573.85 Z" fill="#000000" fill-rule="nonzero" fill-opacity="1" /><path clip-path="url(#clip950)" d="M1814.74 1542.86 Q1810.67 1542.86 1808.62 1546.87 Q1806.59 1550.86 1806.59 1558.88 Q1806.59 1566.87 1808.62 1570.88 Q1810.67 1574.87 1814.74 1574.87 Q1818.82 1574.87 1820.86 1570.88 Q1822.91 1566.87 1822.91 1558.88 Q1822.91 1550.86 1820.86 1546.87 Q1818.82 1542.86 1814.74 1542.86 M1814.74 1538.7 Q1821.27 1538.7 1824.71 1543.88 Q1828.17 1549.04 1828.17 1558.88 Q1828.17 1568.7 1824.71 1573.88 Q1821.27 1579.04 1814.74 1579.04 Q1808.2 1579.04 1804.74 1573.88 Q1801.3 1568.7 1801.3 1558.88 Q1801.3 1549.04 1804.74 1543.88 Q1808.2 1538.7 1814.74 1538.7 Z" fill="#000000" fill-rule="nonzero" fill-opacity="1" /><path clip-path="url(#clip950)" d="M1841.95 1573.85 L1860.31 1573.85 L1860.31 1578.28 L1835.62 1578.28 L1835.62 1573.85 Q1838.62 1570.75 1843.77 1565.55 Q1848.95 1560.31 1850.28 1558.8 Q1852.81 1555.96 1853.8 1554.01 Q1854.81 1552.03 1854.81 1550.13 Q1854.81 1547.03 1852.63 1545.08 Q1850.47 1543.12 1846.98 1543.12 Q1844.5 1543.12 1841.74 1543.98 Q1839.01 1544.84 1835.88 1546.59 L1835.88 1541.27 Q1839.06 1540 1841.82 1539.35 Q1844.58 1538.7 1846.87 1538.7 Q1852.91 1538.7 1856.51 1541.72 Q1860.1 1544.74 1860.1 1549.79 Q1860.1 1552.19 1859.19 1554.35 Q1858.3 1556.48 1855.93 1559.4 Q1855.28 1560.15 1851.79 1563.77 Q1848.3 1567.37 1841.95 1573.85 Z" fill="#000000" fill-rule="nonzero" fill-opacity="1" /><path clip-path="url(#clip950)" d="M1887.29 1557.32 Q1891.06 1558.12 1893.17 1560.68 Q1895.31 1563.23 1895.31 1566.98 Q1895.31 1572.73 1891.35 1575.88 Q1887.39 1579.04 1880.1 1579.04 Q1877.65 1579.04 1875.05 1578.54 Q1872.47 1578.07 1869.71 1577.11 L1869.71 1572.03 Q1871.9 1573.31 1874.5 1573.96 Q1877.11 1574.61 1879.94 1574.61 Q1884.89 1574.61 1887.47 1572.65 Q1890.07 1570.7 1890.07 1566.98 Q1890.07 1563.54 1887.65 1561.61 Q1885.26 1559.66 1880.96 1559.66 L1876.43 1559.66 L1876.43 1555.34 L1881.17 1555.34 Q1885.05 1555.34 1887.11 1553.8 Q1889.16 1552.24 1889.16 1549.32 Q1889.16 1546.33 1887.03 1544.74 Q1884.92 1543.12 1880.96 1543.12 Q1878.8 1543.12 1876.32 1543.59 Q1873.85 1544.06 1870.88 1545.05 L1870.88 1540.36 Q1873.88 1539.53 1876.48 1539.11 Q1879.11 1538.7 1881.43 1538.7 Q1887.42 1538.7 1890.91 1541.43 Q1894.4 1544.14 1894.4 1548.77 Q1894.4 1552 1892.55 1554.24 Q1890.7 1556.46 1887.29 1557.32 Z" fill="#000000" fill-rule="nonzero" fill-opacity="1" /><path clip-path="url(#clip950)" d="M1902.18 1561.54 L1916.22 1561.54 L1916.22 1565.81 L1902.18 1565.81 L1902.18 1561.54 Z" fill="#000000" fill-rule="nonzero" fill-opacity="1" /><path clip-path="url(#clip950)" d="M1935.78 1542.86 Q1931.71 1542.86 1929.66 1546.87 Q1927.63 1550.86 1927.63 1558.88 Q1927.63 1566.87 1929.66 1570.88 Q1931.71 1574.87 1935.78 1574.87 Q1939.87 1574.87 1941.9 1570.88 Q1943.95 1566.87 1943.95 1558.88 Q1943.95 1550.86 1941.9 1546.87 Q1939.87 1542.86 1935.78 1542.86 M1935.78 1538.7 Q1942.31 1538.7 1945.75 1543.88 Q1949.21 1549.04 1949.21 1558.88 Q1949.21 1568.7 1945.75 1573.88 Q1942.31 1579.04 1935.78 1579.04 Q1929.24 1579.04 1925.78 1573.88 Q1922.34 1568.7 1922.34 1558.88 Q1922.34 1549.04 1925.78 1543.88 Q1929.24 1538.7 1935.78 1538.7 Z" fill="#000000" fill-rule="nonzero" fill-opacity="1" /><path clip-path="url(#clip950)" d="M1974.4 1557.32 Q1978.17 1558.12 1980.28 1560.68 Q1982.42 1563.23 1982.42 1566.98 Q1982.42 1572.73 1978.46 1575.88 Q1974.5 1579.04 1967.21 1579.04 Q1964.76 1579.04 1962.16 1578.54 Q1959.58 1578.07 1956.82 1577.11 L1956.82 1572.03 Q1959.01 1573.31 1961.61 1573.96 Q1964.21 1574.61 1967.05 1574.61 Q1972 1574.61 1974.58 1572.65 Q1977.18 1570.7 1977.18 1566.98 Q1977.18 1563.54 1974.76 1561.61 Q1972.37 1559.66 1968.07 1559.66 L1963.54 1559.66 L1963.54 1555.34 L1968.28 1555.34 Q1972.16 1555.34 1974.21 1553.8 Q1976.27 1552.24 1976.27 1549.32 Q1976.27 1546.33 1974.14 1544.74 Q1972.03 1543.12 1968.07 1543.12 Q1965.91 1543.12 1963.43 1543.59 Q1960.96 1544.06 1957.99 1545.05 L1957.99 1540.36 Q1960.99 1539.53 1963.59 1539.11 Q1966.22 1538.7 1968.54 1538.7 Q1974.53 1538.7 1978.02 1541.43 Q1981.51 1544.14 1981.51 1548.77 Q1981.51 1552 1979.66 1554.24 Q1977.81 1556.46 1974.4 1557.32 Z" fill="#000000" fill-rule="nonzero" fill-opacity="1" /><path clip-path="url(#clip950)" d="M1989.29 1561.54 L2003.33 1561.54 L2003.33 1565.81 L1989.29 1565.81 L1989.29 1561.54 Z" fill="#000000" fill-rule="nonzero" fill-opacity="1" /><path clip-path="url(#clip950)" d="M2012.55 1573.85 L2021.14 1573.85 L2021.14 1544.19 L2011.79 1546.07 L2011.79 1541.27 L2021.09 1539.4 L2026.35 1539.4 L2026.35 1573.85 L2034.94 1573.85 L2034.94 1578.28 L2012.55 1578.28 L2012.55 1573.85 Z" fill="#000000" fill-rule="nonzero" fill-opacity="1" /><path clip-path="url(#clip950)" d="M2056.82 1542.86 Q2052.76 1542.86 2050.7 1546.87 Q2048.67 1550.86 2048.67 1558.88 Q2048.67 1566.87 2050.7 1570.88 Q2052.76 1574.87 2056.82 1574.87 Q2060.91 1574.87 2062.94 1570.88 Q2065 1566.87 2065 1558.88 Q2065 1550.86 2062.94 1546.87 Q2060.91 1542.86 2056.82 1542.86 M2056.82 1538.7 Q2063.35 1538.7 2066.79 1543.88 Q2070.26 1549.04 2070.26 1558.88 Q2070.26 1568.7 2066.79 1573.88 Q2063.35 1579.04 2056.82 1579.04 Q2050.28 1579.04 2046.82 1573.88 Q2043.38 1568.7 2043.38 1558.88 Q2043.38 1549.04 2046.82 1543.88 Q2050.28 1538.7 2056.82 1538.7 Z" fill="#000000" fill-rule="nonzero" fill-opacity="1" /><path clip-path="url(#clip950)" d="M2574.25 1573.85 L2592.61 1573.85 L2592.61 1578.28 L2567.92 1578.28 L2567.92 1573.85 Q2570.91 1570.75 2576.07 1565.55 Q2581.25 1560.31 2582.58 1558.8 Q2585.11 1555.96 2586.1 1554.01 Q2587.11 1552.03 2587.11 1550.13 Q2587.11 1547.03 2584.92 1545.08 Q2582.76 1543.12 2579.27 1543.12 Q2576.8 1543.12 2574.04 1543.98 Q2571.31 1544.84 2568.18 1546.59 L2568.18 1541.27 Q2571.36 1540 2574.12 1539.35 Q2576.88 1538.7 2579.17 1538.7 Q2585.21 1538.7 2588.81 1541.72 Q2592.4 1544.74 2592.4 1549.79 Q2592.4 1552.19 2591.49 1554.35 Q2590.6 1556.48 2588.23 1559.4 Q2587.58 1560.15 2584.09 1563.77 Q2580.6 1567.37 2574.25 1573.85 Z" fill="#000000" fill-rule="nonzero" fill-opacity="1" /><path clip-path="url(#clip950)" d="M2614.9 1542.86 Q2610.84 1542.86 2608.78 1546.87 Q2606.75 1550.86 2606.75 1558.88 Q2606.75 1566.87 2608.78 1570.88 Q2610.84 1574.87 2614.9 1574.87 Q2618.99 1574.87 2621.02 1570.88 Q2623.08 1566.87 2623.08 1558.88 Q2623.08 1550.86 2621.02 1546.87 Q2618.99 1542.86 2614.9 1542.86 M2614.9 1538.7 Q2621.44 1538.7 2624.87 1543.88 Q2628.34 1549.04 2628.34 1558.88 Q2628.34 1568.7 2624.87 1573.88 Q2621.44 1579.04 2614.9 1579.04 Q2608.36 1579.04 2604.9 1573.88 Q2601.46 1568.7 2601.46 1558.88 Q2601.46 1549.04 2604.9 1543.88 Q2608.36 1538.7 2614.9 1538.7 Z" fill="#000000" fill-rule="nonzero" fill-opacity="1" /><path clip-path="url(#clip950)" d="M2642.11 1573.85 L2660.47 1573.85 L2660.47 1578.28 L2635.78 1578.28 L2635.78 1573.85 Q2638.78 1570.75 2643.94 1565.55 Q2649.12 1560.31 2650.45 1558.8 Q2652.97 1555.96 2653.96 1554.01 Q2654.98 1552.03 2654.98 1550.13 Q2654.98 1547.03 2652.79 1545.08 Q2650.63 1543.12 2647.14 1543.12 Q2644.66 1543.12 2641.9 1543.98 Q2639.17 1544.84 2636.04 1546.59 L2636.04 1541.27 Q2639.22 1540 2641.98 1539.35 Q2644.74 1538.7 2647.03 1538.7 Q2653.08 1538.7 2656.67 1541.72 Q2660.26 1544.74 2660.26 1549.79 Q2660.26 1552.19 2659.35 1554.35 Q2658.47 1556.48 2656.1 1559.4 Q2655.45 1560.15 2651.96 1563.77 Q2648.47 1567.37 2642.11 1573.85 Z" fill="#000000" fill-rule="nonzero" fill-opacity="1" /><path clip-path="url(#clip950)" d="M2687.45 1557.32 Q2691.23 1558.12 2693.34 1560.68 Q2695.47 1563.23 2695.47 1566.98 Q2695.47 1572.73 2691.51 1575.88 Q2687.55 1579.04 2680.26 1579.04 Q2677.82 1579.04 2675.21 1578.54 Q2672.63 1578.07 2669.87 1577.11 L2669.87 1572.03 Q2672.06 1573.31 2674.66 1573.96 Q2677.27 1574.61 2680.11 1574.61 Q2685.05 1574.61 2687.63 1572.65 Q2690.24 1570.7 2690.24 1566.98 Q2690.24 1563.54 2687.82 1561.61 Q2685.42 1559.66 2681.12 1559.66 L2676.59 1559.66 L2676.59 1555.34 L2681.33 1555.34 Q2685.21 1555.34 2687.27 1553.8 Q2689.33 1552.24 2689.33 1549.32 Q2689.33 1546.33 2687.19 1544.74 Q2685.08 1543.12 2681.12 1543.12 Q2678.96 1543.12 2676.49 1543.59 Q2674.01 1544.06 2671.04 1545.05 L2671.04 1540.36 Q2674.04 1539.53 2676.64 1539.11 Q2679.27 1538.7 2681.59 1538.7 Q2687.58 1538.7 2691.07 1541.43 Q2694.56 1544.14 2694.56 1548.77 Q2694.56 1552 2692.71 1554.24 Q2690.86 1556.46 2687.45 1557.32 Z" fill="#000000" fill-rule="nonzero" fill-opacity="1" /><path clip-path="url(#clip950)" d="M2702.35 1561.54 L2716.38 1561.54 L2716.38 1565.81 L2702.35 1565.81 L2702.35 1561.54 Z" fill="#000000" fill-rule="nonzero" fill-opacity="1" /><path clip-path="url(#clip950)" d="M2735.94 1542.86 Q2731.88 1542.86 2729.82 1546.87 Q2727.79 1550.86 2727.79 1558.88 Q2727.79 1566.87 2729.82 1570.88 Q2731.88 1574.87 2735.94 1574.87 Q2740.03 1574.87 2742.06 1570.88 Q2744.12 1566.87 2744.12 1558.88 Q2744.12 1550.86 2742.06 1546.87 Q2740.03 1542.86 2735.94 1542.86 M2735.94 1538.7 Q2742.48 1538.7 2745.91 1543.88 Q2749.38 1549.04 2749.38 1558.88 Q2749.38 1568.7 2745.91 1573.88 Q2742.48 1579.04 2735.94 1579.04 Q2729.4 1579.04 2725.94 1573.88 Q2722.5 1568.7 2722.5 1558.88 Q2722.5 1549.04 2725.94 1543.88 Q2729.4 1538.7 2735.94 1538.7 Z" fill="#000000" fill-rule="nonzero" fill-opacity="1" /><path clip-path="url(#clip950)" d="M2774.56 1557.32 Q2778.34 1558.12 2780.44 1560.68 Q2782.58 1563.23 2782.58 1566.98 Q2782.58 1572.73 2778.62 1575.88 Q2774.66 1579.04 2767.37 1579.04 Q2764.92 1579.04 2762.32 1578.54 Q2759.74 1578.07 2756.98 1577.11 L2756.98 1572.03 Q2759.17 1573.31 2761.77 1573.96 Q2764.38 1574.61 2767.22 1574.61 Q2772.16 1574.61 2774.74 1572.65 Q2777.35 1570.7 2777.35 1566.98 Q2777.35 1563.54 2774.92 1561.61 Q2772.53 1559.66 2768.23 1559.66 L2763.7 1559.66 L2763.7 1555.34 L2768.44 1555.34 Q2772.32 1555.34 2774.38 1553.8 Q2776.43 1552.24 2776.43 1549.32 Q2776.43 1546.33 2774.3 1544.74 Q2772.19 1543.12 2768.23 1543.12 Q2766.07 1543.12 2763.6 1543.59 Q2761.12 1544.06 2758.15 1545.05 L2758.15 1540.36 Q2761.15 1539.53 2763.75 1539.11 Q2766.38 1538.7 2768.7 1538.7 Q2774.69 1538.7 2778.18 1541.43 Q2781.67 1544.14 2781.67 1548.77 Q2781.67 1552 2779.82 1554.24 Q2777.97 1556.46 2774.56 1557.32 Z" fill="#000000" fill-rule="nonzero" fill-opacity="1" /><path clip-path="url(#clip950)" d="M2789.46 1561.54 L2803.49 1561.54 L2803.49 1565.81 L2789.46 1565.81 L2789.46 1561.54 Z" fill="#000000" fill-rule="nonzero" fill-opacity="1" /><path clip-path="url(#clip950)" d="M2812.71 1573.85 L2821.3 1573.85 L2821.3 1544.19 L2811.95 1546.07 L2811.95 1541.27 L2821.25 1539.4 L2826.51 1539.4 L2826.51 1573.85 L2835.11 1573.85 L2835.11 1578.28 L2812.71 1578.28 L2812.71 1573.85 Z" fill="#000000" fill-rule="nonzero" fill-opacity="1" /><path clip-path="url(#clip950)" d="M2850.26 1573.85 L2868.62 1573.85 L2868.62 1578.28 L2843.93 1578.28 L2843.93 1573.85 Q2846.93 1570.75 2852.08 1565.55 Q2857.27 1560.31 2858.6 1558.8 Q2861.12 1555.96 2862.11 1554.01 Q2863.13 1552.03 2863.13 1550.13 Q2863.13 1547.03 2860.94 1545.08 Q2858.78 1543.12 2855.29 1543.12 Q2852.81 1543.12 2850.05 1543.98 Q2847.32 1544.84 2844.19 1546.59 L2844.19 1541.27 Q2847.37 1540 2850.13 1539.35 Q2852.89 1538.7 2855.18 1538.7 Q2861.23 1538.7 2864.82 1541.72 Q2868.41 1544.74 2868.41 1549.79 Q2868.41 1552.19 2867.5 1554.35 Q2866.62 1556.48 2864.25 1559.4 Q2863.6 1560.15 2860.11 1563.77 Q2856.62 1567.37 2850.26 1573.85 Z" fill="#000000" fill-rule="nonzero" fill-opacity="1" /><polyline clip-path="url(#clip952)" style="stroke:#000000; stroke-linecap:round; stroke-linejoin:round; stroke-width:2; stroke-opacity:0.1; fill:none" points="237.055,1358.08 3184.67,1358.08 "/>
<polyline clip-path="url(#clip952)" style="stroke:#000000; stroke-linecap:round; stroke-linejoin:round; stroke-width:2; stroke-opacity:0.1; fill:none" points="237.055,1084.71 3184.67,1084.71 "/>
<polyline clip-path="url(#clip952)" style="stroke:#000000; stroke-linecap:round; stroke-linejoin:round; stroke-width:2; stroke-opacity:0.1; fill:none" points="237.055,811.349 3184.67,811.349 "/>
<polyline clip-path="url(#clip952)" style="stroke:#000000; stroke-linecap:round; stroke-linejoin:round; stroke-width:2; stroke-opacity:0.1; fill:none" points="237.055,537.986 3184.67,537.986 "/>
<polyline clip-path="url(#clip952)" style="stroke:#000000; stroke-linecap:round; stroke-linejoin:round; stroke-width:2; stroke-opacity:0.1; fill:none" points="237.055,264.622 3184.67,264.622 "/>
<polyline clip-path="url(#clip950)" style="stroke:#000000; stroke-linecap:round; stroke-linejoin:round; stroke-width:4; stroke-opacity:1; fill:none" points="237.055,1497.68 237.055,47.2441 "/>
<polyline clip-path="url(#clip950)" style="stroke:#000000; stroke-linecap:round; stroke-linejoin:round; stroke-width:4; stroke-opacity:1; fill:none" points="237.055,1358.08 252.047,1358.08 "/>
<polyline clip-path="url(#clip950)" style="stroke:#000000; stroke-linecap:round; stroke-linejoin:round; stroke-width:4; stroke-opacity:1; fill:none" points="237.055,1084.71 252.047,1084.71 "/>
<polyline clip-path="url(#clip950)" style="stroke:#000000; stroke-linecap:round; stroke-linejoin:round; stroke-width:4; stroke-opacity:1; fill:none" points="237.055,811.349 252.047,811.349 "/>
<polyline clip-path="url(#clip950)" style="stroke:#000000; stroke-linecap:round; stroke-linejoin:round; stroke-width:4; stroke-opacity:1; fill:none" points="237.055,537.986 252.047,537.986 "/>
<polyline clip-path="url(#clip950)" style="stroke:#000000; stroke-linecap:round; stroke-linejoin:round; stroke-width:4; stroke-opacity:1; fill:none" points="237.055,264.622 252.047,264.622 "/>
<path clip-path="url(#clip950)" d="M130.337 1355.98 Q126.795 1355.98 124.712 1358.4 Q122.655 1360.82 122.655 1365.04 Q122.655 1369.23 124.712 1371.68 Q126.795 1374.1 130.337 1374.1 Q133.879 1374.1 135.936 1371.68 Q138.019 1369.23 138.019 1365.04 Q138.019 1360.82 135.936 1358.4 Q133.879 1355.98 130.337 1355.98 M140.78 1339.49 L140.78 1344.29 Q138.8 1343.35 136.769 1342.85 Q134.764 1342.36 132.785 1342.36 Q127.577 1342.36 124.816 1345.87 Q122.082 1349.39 121.691 1356.5 Q123.228 1354.23 125.545 1353.04 Q127.863 1351.81 130.649 1351.81 Q136.509 1351.81 139.894 1355.38 Q143.306 1358.92 143.306 1365.04 Q143.306 1371.03 139.764 1374.65 Q136.222 1378.27 130.337 1378.27 Q123.592 1378.27 120.025 1373.11 Q116.457 1367.93 116.457 1358.11 Q116.457 1348.9 120.832 1343.43 Q125.207 1337.93 132.577 1337.93 Q134.556 1337.93 136.561 1338.32 Q138.592 1338.71 140.78 1339.49 Z" fill="#000000" fill-rule="nonzero" fill-opacity="1" /><path clip-path="url(#clip950)" d="M163.618 1342.1 Q159.556 1342.1 157.498 1346.11 Q155.467 1350.09 155.467 1358.11 Q155.467 1366.11 157.498 1370.12 Q159.556 1374.1 163.618 1374.1 Q167.707 1374.1 169.738 1370.12 Q171.795 1366.11 171.795 1358.11 Q171.795 1350.09 169.738 1346.11 Q167.707 1342.1 163.618 1342.1 M163.618 1337.93 Q170.154 1337.93 173.592 1343.11 Q177.055 1348.27 177.055 1358.11 Q177.055 1367.93 173.592 1373.11 Q170.154 1378.27 163.618 1378.27 Q157.082 1378.27 153.618 1373.11 Q150.181 1367.93 150.181 1358.11 Q150.181 1348.27 153.618 1343.11 Q157.082 1337.93 163.618 1337.93 Z" fill="#000000" fill-rule="nonzero" fill-opacity="1" /><path clip-path="url(#clip950)" d="M117.108 1065.27 L142.108 1065.27 L142.108 1067.51 L127.993 1104.15 L122.498 1104.15 L135.78 1069.7 L117.108 1069.7 L117.108 1065.27 Z" fill="#000000" fill-rule="nonzero" fill-opacity="1" /><path clip-path="url(#clip950)" d="M163.618 1068.74 Q159.556 1068.74 157.498 1072.75 Q155.467 1076.73 155.467 1084.75 Q155.467 1092.75 157.498 1096.76 Q159.556 1100.74 163.618 1100.74 Q167.707 1100.74 169.738 1096.76 Q171.795 1092.75 171.795 1084.75 Q171.795 1076.73 169.738 1072.75 Q167.707 1068.74 163.618 1068.74 M163.618 1064.57 Q170.154 1064.57 173.592 1069.75 Q177.055 1074.91 177.055 1084.75 Q177.055 1094.57 173.592 1099.75 Q170.154 1104.91 163.618 1104.91 Q157.082 1104.91 153.618 1099.75 Q150.181 1094.57 150.181 1084.75 Q150.181 1074.91 153.618 1069.75 Q157.082 1064.57 163.618 1064.57 Z" fill="#000000" fill-rule="nonzero" fill-opacity="1" /><path clip-path="url(#clip950)" d="M129.686 812.325 Q125.936 812.325 123.775 814.33 Q121.639 816.336 121.639 819.851 Q121.639 823.367 123.775 825.372 Q125.936 827.377 129.686 827.377 Q133.436 827.377 135.597 825.372 Q137.759 823.341 137.759 819.851 Q137.759 816.336 135.597 814.33 Q133.462 812.325 129.686 812.325 M124.426 810.086 Q121.04 809.252 119.139 806.935 Q117.264 804.617 117.264 801.284 Q117.264 796.622 120.571 793.914 Q123.905 791.206 129.686 791.206 Q135.493 791.206 138.8 793.914 Q142.108 796.622 142.108 801.284 Q142.108 804.617 140.207 806.935 Q138.332 809.252 134.972 810.086 Q138.774 810.971 140.884 813.549 Q143.019 816.127 143.019 819.851 Q143.019 825.502 139.556 828.523 Q136.118 831.544 129.686 831.544 Q123.254 831.544 119.79 828.523 Q116.353 825.502 116.353 819.851 Q116.353 816.127 118.488 813.549 Q120.624 810.971 124.426 810.086 M122.498 801.778 Q122.498 804.799 124.373 806.492 Q126.275 808.185 129.686 808.185 Q133.071 808.185 134.972 806.492 Q136.899 804.799 136.899 801.778 Q136.899 798.758 134.972 797.065 Q133.071 795.372 129.686 795.372 Q126.275 795.372 124.373 797.065 Q122.498 798.758 122.498 801.778 Z" fill="#000000" fill-rule="nonzero" fill-opacity="1" /><path clip-path="url(#clip950)" d="M163.618 795.372 Q159.556 795.372 157.498 799.383 Q155.467 803.367 155.467 811.388 Q155.467 819.383 157.498 823.393 Q159.556 827.377 163.618 827.377 Q167.707 827.377 169.738 823.393 Q171.795 819.383 171.795 811.388 Q171.795 803.367 169.738 799.383 Q167.707 795.372 163.618 795.372 M163.618 791.206 Q170.154 791.206 173.592 796.388 Q177.055 801.544 177.055 811.388 Q177.055 821.205 173.592 826.388 Q170.154 831.544 163.618 831.544 Q157.082 831.544 153.618 826.388 Q150.181 821.205 150.181 811.388 Q150.181 801.544 153.618 796.388 Q157.082 791.206 163.618 791.206 Z" fill="#000000" fill-rule="nonzero" fill-opacity="1" /><path clip-path="url(#clip950)" d="M118.592 556.618 L118.592 551.827 Q120.571 552.764 122.603 553.259 Q124.634 553.754 126.587 553.754 Q131.795 553.754 134.53 550.264 Q137.29 546.749 137.681 539.613 Q136.17 541.853 133.853 543.051 Q131.535 544.249 128.722 544.249 Q122.889 544.249 119.478 540.733 Q116.092 537.191 116.092 531.072 Q116.092 525.082 119.634 521.462 Q123.176 517.842 129.061 517.842 Q135.806 517.842 139.347 523.025 Q142.915 528.181 142.915 538.025 Q142.915 547.217 138.54 552.712 Q134.191 558.181 126.821 558.181 Q124.842 558.181 122.811 557.79 Q120.78 557.399 118.592 556.618 M129.061 540.134 Q132.603 540.134 134.66 537.712 Q136.743 535.29 136.743 531.072 Q136.743 526.879 134.66 524.457 Q132.603 522.009 129.061 522.009 Q125.519 522.009 123.436 524.457 Q121.379 526.879 121.379 531.072 Q121.379 535.29 123.436 537.712 Q125.519 540.134 129.061 540.134 Z" fill="#000000" fill-rule="nonzero" fill-opacity="1" /><path clip-path="url(#clip950)" d="M163.618 522.009 Q159.556 522.009 157.498 526.019 Q155.467 530.004 155.467 538.025 Q155.467 546.019 157.498 550.03 Q159.556 554.014 163.618 554.014 Q167.707 554.014 169.738 550.03 Q171.795 546.019 171.795 538.025 Q171.795 530.004 169.738 526.019 Q167.707 522.009 163.618 522.009 M163.618 517.842 Q170.154 517.842 173.592 523.025 Q177.055 528.181 177.055 538.025 Q177.055 547.842 173.592 553.025 Q170.154 558.181 163.618 558.181 Q157.082 558.181 153.618 553.025 Q150.181 547.842 150.181 538.025 Q150.181 528.181 153.618 523.025 Q157.082 517.842 163.618 517.842 Z" fill="#000000" fill-rule="nonzero" fill-opacity="1" /><path clip-path="url(#clip950)" d="M85.4154 279.635 L94.0091 279.635 L94.0091 249.974 L84.6602 251.849 L84.6602 247.057 L93.957 245.182 L99.2174 245.182 L99.2174 279.635 L107.811 279.635 L107.811 284.062 L85.4154 284.062 L85.4154 279.635 Z" fill="#000000" fill-rule="nonzero" fill-opacity="1" /><path clip-path="url(#clip950)" d="M129.686 248.646 Q125.623 248.646 123.566 252.656 Q121.535 256.641 121.535 264.661 Q121.535 272.656 123.566 276.667 Q125.623 280.651 129.686 280.651 Q133.774 280.651 135.806 276.667 Q137.863 272.656 137.863 264.661 Q137.863 256.641 135.806 252.656 Q133.774 248.646 129.686 248.646 M129.686 244.479 Q136.222 244.479 139.66 249.662 Q143.123 254.818 143.123 264.661 Q143.123 274.479 139.66 279.661 Q136.222 284.818 129.686 284.818 Q123.15 284.818 119.686 279.661 Q116.249 274.479 116.249 264.661 Q116.249 254.818 119.686 249.662 Q123.15 244.479 129.686 244.479 Z" fill="#000000" fill-rule="nonzero" fill-opacity="1" /><path clip-path="url(#clip950)" d="M163.618 248.646 Q159.556 248.646 157.498 252.656 Q155.467 256.641 155.467 264.661 Q155.467 272.656 157.498 276.667 Q159.556 280.651 163.618 280.651 Q167.707 280.651 169.738 276.667 Q171.795 272.656 171.795 264.661 Q171.795 256.641 169.738 252.656 Q167.707 248.646 163.618 248.646 M163.618 244.479 Q170.154 244.479 173.592 249.662 Q177.055 254.818 177.055 264.661 Q177.055 274.479 173.592 279.661 Q170.154 284.818 163.618 284.818 Q157.082 284.818 153.618 279.661 Q150.181 274.479 150.181 264.661 Q150.181 254.818 153.618 249.662 Q157.082 244.479 163.618 244.479 Z" fill="#000000" fill-rule="nonzero" fill-opacity="1" /><path clip-path="url(#clip950)" d="M-31.4998 930.013 L-31.4998 924.168 L11.7002 924.168 L11.7002 930.013 L-31.4998 930.013 Z" fill="#000000" fill-rule="nonzero" fill-opacity="1" /><path clip-path="url(#clip950)" d="M-7.85992 885.829 L11.7002 885.829 L11.7002 891.153 L-7.68631 891.153 Q-12.287 891.153 -14.5728 892.947 Q-16.8587 894.741 -16.8587 898.329 Q-16.8587 902.641 -14.1099 905.129 Q-11.3611 907.618 -6.61572 907.618 L11.7002 907.618 L11.7002 912.97 L-20.7071 912.97 L-20.7071 907.618 L-15.6724 907.618 Q-18.5948 905.708 -20.0416 903.133 Q-21.4883 900.528 -21.4883 897.143 Q-21.4883 891.559 -18.0161 888.694 Q-14.5728 885.829 -7.85992 885.829 Z" fill="#000000" fill-rule="nonzero" fill-opacity="1" /><path clip-path="url(#clip950)" d="M-33.3227 858.804 L-28.8957 858.804 L-28.8957 863.897 Q-28.8957 866.761 -27.7383 867.89 Q-26.5809 868.989 -23.5716 868.989 L-20.7071 868.989 L-20.7071 860.222 L-16.5694 860.222 L-16.5694 868.989 L11.7002 868.989 L11.7002 874.342 L-16.5694 874.342 L-16.5694 879.435 L-20.7071 879.435 L-20.7071 874.342 L-22.964 874.342 Q-28.3749 874.342 -30.8343 871.825 Q-33.3227 869.308 -33.3227 863.839 L-33.3227 858.804 Z" fill="#000000" fill-rule="nonzero" fill-opacity="1" /><path clip-path="url(#clip950)" d="M-33.3227 854.348 L-33.3227 849.024 L11.7002 849.024 L11.7002 854.348 L-33.3227 854.348 Z" fill="#000000" fill-rule="nonzero" fill-opacity="1" /><path clip-path="url(#clip950)" d="M-16.9745 825.326 Q-16.9745 829.609 -13.618 832.097 Q-10.2905 834.585 -4.47452 834.585 Q1.34142 834.585 4.69788 832.126 Q8.02541 829.638 8.02541 825.326 Q8.02541 821.073 4.66895 818.584 Q1.31248 816.096 -4.47452 816.096 Q-10.2326 816.096 -13.5891 818.584 Q-16.9745 821.073 -16.9745 825.326 M-21.4883 825.326 Q-21.4883 818.382 -16.9745 814.418 Q-12.4606 810.454 -4.47452 810.454 Q3.48261 810.454 8.02541 814.418 Q12.5393 818.382 12.5393 825.326 Q12.5393 832.3 8.02541 836.264 Q3.48261 840.199 -4.47452 840.199 Q-12.4606 840.199 -16.9745 836.264 Q-21.4883 832.3 -21.4883 825.326 Z" fill="#000000" fill-rule="nonzero" fill-opacity="1" /><path clip-path="url(#clip950)" d="M-20.7071 804.725 L-20.7071 799.4 L4.58214 792.745 L-20.7071 786.119 L-20.7071 779.84 L4.58214 773.185 L-20.7071 766.559 L-20.7071 761.235 L11.7002 769.713 L11.7002 775.992 L-14.8622 782.965 L11.7002 789.968 L11.7002 796.247 L-20.7071 804.725 Z" fill="#000000" fill-rule="nonzero" fill-opacity="1" /><path clip-path="url(#clip950)" d="M-33.3227 734.818 L-33.3227 722.549 L-29.185 722.549 L-29.185 729.493 L15.3749 729.493 L15.3749 722.549 L19.5126 722.549 L19.5126 734.818 L-33.3227 734.818 Z" fill="#000000" fill-rule="nonzero" fill-opacity="1" /><path clip-path="url(#clip950)" d="M-31.4998 710.975 L-31.4998 705.13 L6.7812 705.13 L6.7812 684.094 L11.7002 684.094 L11.7002 710.975 L-31.4998 710.975 Z" fill="#000000" fill-rule="nonzero" fill-opacity="1" /><path clip-path="url(#clip950)" d="M-31.4998 668.73 L-31.4998 663.811 L17.1978 678.857 L17.1978 683.776 L-31.4998 668.73 Z" fill="#000000" fill-rule="nonzero" fill-opacity="1" /><path clip-path="url(#clip950)" d="M-19.7522 637.567 L-14.7175 637.567 Q-15.8749 639.824 -16.4536 642.254 Q-17.0323 644.685 -17.0323 647.289 Q-17.0323 651.253 -15.8171 653.25 Q-14.6018 655.217 -12.1712 655.217 Q-10.3194 655.217 -9.2488 653.799 Q-8.20714 652.382 -7.25229 648.099 L-6.8472 646.276 Q-5.63193 640.605 -3.40393 638.232 Q-1.20487 635.831 2.75923 635.831 Q7.2731 635.831 9.90619 639.419 Q12.5393 642.978 12.5393 649.228 Q12.5393 651.832 12.0184 654.667 Q11.5265 657.474 10.5138 660.599 L5.01617 660.599 Q6.54972 657.648 7.33097 654.783 Q8.08328 651.919 8.08328 649.112 Q8.08328 645.35 6.81014 643.325 Q5.50806 641.299 3.16432 641.299 Q0.994196 641.299 -0.163205 642.775 Q-1.32061 644.222 -2.3912 649.17 L-2.82523 651.022 Q-3.86689 655.97 -6.00808 658.169 Q-8.17821 660.368 -11.9398 660.368 Q-16.5115 660.368 -18.9999 657.127 Q-21.4883 653.886 -21.4883 647.926 Q-21.4883 644.974 -21.0543 642.37 Q-20.6203 639.766 -19.7522 637.567 Z" fill="#000000" fill-rule="nonzero" fill-opacity="1" /><path clip-path="url(#clip950)" d="M-33.3227 614.911 L19.5126 614.911 L19.5126 627.179 L15.3749 627.179 L15.3749 620.264 L-29.185 620.264 L-29.185 627.179 L-33.3227 627.179 L-33.3227 614.911 Z" fill="#000000" fill-rule="nonzero" fill-opacity="1" /><polyline clip-path="url(#clip952)" style="stroke:#023eff; stroke-linecap:round; stroke-linejoin:round; stroke-width:5; stroke-opacity:1; fill:none" points="320.479,1255.26 337.13,1342.16 353.781,1424.85 370.433,1424.85 387.084,1424.85 403.735,1423.98 420.387,857.884 437.038,257.473 453.689,250.095 470.341,402.105 486.992,497.197 503.643,194.095 520.295,577.929 536.946,583.48 553.597,657.675 570.249,795.762 586.9,760.045 603.551,679.435 620.203,562.728 636.854,402.105 653.505,507.645 670.157,652.503 686.808,891.798 703.459,997.782 720.111,1187.81 736.762,1400.42 753.413,1400.42 770.065,1456.63 786.716,1400.42 803.367,1341.8 820.019,910.704 836.67,235.925 853.321,235.925 869.973,417.946 886.624,536.259 903.275,584.482 919.927,536.259 936.578,584.482 953.229,653.458 969.881,784.952 986.532,784.952 1003.18,704.962 1019.83,584.482 1036.49,417.946 1053.14,417.946 1069.79,584.482 1086.44,796.969 1103.09,969.106 1119.74,1187.81 1136.39,1341.8 1153.05,1400.42 1169.7,1400.42 1186.35,1400.42 1203,1341.8 1219.65,1049.98 1236.3,235.925 1252.95,235.925 1269.6,311.44 1286.26,485.292 1302.91,584.482 1319.56,584.482 1336.21,653.458 1352.86,704.962 1369.51,784.952 1386.16,784.952 1402.82,704.962 1419.47,584.482 1436.12,417.946 1452.77,417.946 1469.42,584.482 1486.07,883.392 1502.72,969.106 1519.37,1187.81 1536.03,1400.42 1552.68,1400.42 1569.33,1400.42 1585.98,1400.42 1602.63,1341.8 1619.28,840.407 1635.93,148.578 1652.59,235.925 1669.24,311.44 1685.89,536.259 1702.54,584.482 1719.19,584.482 1735.84,584.482 1752.49,653.458 1769.14,704.962 1785.8,704.962 1802.45,704.962 1819.1,584.482 1835.75,417.946 1852.4,417.946 1869.05,653.458 1885.7,883.392 1902.36,1079.29 1919.01,1187.81 1935.66,1341.8 1952.31,1400.42 1968.96,1456.63 1985.61,1400.42 2002.26,1341.8 2018.91,840.407 2035.57,235.925 2052.22,235.925 2068.87,417.946 2085.52,536.259 2102.17,584.482 2118.82,584.482 2135.47,584.482 2152.13,653.458 2168.78,704.962 2185.43,704.962 2202.08,704.962 2218.73,653.458 2235.38,485.292 2252.03,536.259 2268.68,653.458 2285.34,969.106 2301.99,969.106 2318.64,1187.81 2335.29,1341.8 2351.94,1400.42 2368.59,1400.42 2385.24,1400.42 2401.9,1341.8 2418.55,1150.13 2435.2,704.962 2451.85,235.925 2468.5,148.578 2485.15,148.578 2501.8,311.44 2518.45,417.946 2535.11,485.292 2551.76,584.482 2568.41,704.962 2585.06,704.962 2601.71,704.962 2618.36,653.458 2635.01,536.259 2651.67,584.482 2668.32,784.952 2684.97,969.106 2701.62,969.106 2718.27,1187.81 2734.92,1341.8 2751.57,1400.42 2768.22,1456.63 2784.88,1456.63 2801.53,1400.42 2818.18,1264.8 2834.83,846.218 2851.48,417.946 2868.13,148.578 2884.78,148.578 2901.44,235.925 2918.09,417.946 2934.74,536.259 2951.39,653.458 2968.04,784.952 2984.69,784.952 3001.34,653.458 3017.99,584.482 3034.65,417.946 3051.3,485.292 3067.95,653.458 3084.6,883.392 3101.25,1079.29 "/>
<polyline clip-path="url(#clip952)" style="stroke:#ff7c00; stroke-linecap:round; stroke-linejoin:round; stroke-width:5; stroke-opacity:1; fill:none" points="320.479,1275.23 337.13,1343.35 353.781,1404.83 370.433,1404.83 387.084,1404.83 403.735,1404.83 420.387,955.535 437.038,177.805 453.689,217.125 470.341,417.465 486.992,509.581 503.643,478.538 520.295,478.538 536.946,547.104 553.597,639.26 570.249,793.074 586.9,736.923 603.551,678.248 620.203,547.104 636.854,434.357 653.505,508.376 670.157,648.493 686.808,865.017 703.459,1033.8 720.111,1223.71 736.762,1400.41 753.413,1400.41 770.065,1400.41 786.716,1400.41 803.367,1344.09 820.019,877.644 836.67,183.685 853.321,183.685 869.973,403.775 886.624,527.367 903.275,582.639 919.927,527.367 936.578,582.639 953.229,647.214 969.881,748.841 986.532,748.841 1003.18,706.998 1019.83,582.639 1036.49,403.775 1053.14,403.775 1069.79,582.639 1086.44,809.787 1103.09,1028.56 1119.74,1223.71 1136.39,1400.41 1153.05,1400.41 1169.7,1400.41 1186.35,1400.41 1203,1344.09 1219.65,877.644 1236.3,183.685 1252.95,229.959 1269.6,304.616 1286.26,527.367 1302.91,582.639 1319.56,582.639 1336.21,647.214 1352.86,706.998 1369.51,748.841 1386.16,748.841 1402.82,706.998 1419.47,582.639 1436.12,453.406 1452.77,403.775 1469.42,582.639 1486.07,856.085 1502.72,1028.56 1519.37,1223.71 1536.03,1400.41 1552.68,1400.41 1569.33,1400.41 1585.98,1400.41 1602.63,1344.09 1619.28,877.644 1635.93,229.959 1652.59,229.959 1669.24,304.616 1685.89,527.367 1702.54,582.639 1719.19,582.639 1735.84,582.639 1752.49,647.214 1769.14,706.998 1785.8,706.998 1802.45,706.998 1819.1,582.639 1835.75,453.406 1852.4,453.406 1869.05,647.214 1885.7,809.787 1902.36,1028.56 1919.01,1223.71 1935.66,1344.09 1952.31,1400.41 1968.96,1400.41 1985.61,1400.41 2002.26,1344.09 2018.91,877.644 2035.57,229.959 2052.22,229.959 2068.87,403.775 2085.52,527.367 2102.17,582.639 2118.82,582.639 2135.47,582.639 2152.13,647.214 2168.78,706.998 2185.43,706.998 2202.08,706.998 2218.73,647.214 2235.38,527.367 2252.03,527.367 2268.68,647.214 2285.34,877.644 2301.99,1028.56 2318.64,1223.71 2335.29,1344.09 2351.94,1400.41 2368.59,1400.41 2385.24,1400.41 2401.9,1344.09 2418.55,1138.3 2435.2,706.998 2451.85,214.551 2468.5,88.2942 2485.15,88.2942 2501.8,289.217 2518.45,373.938 2535.11,421.128 2551.76,582.639 2568.41,706.998 2585.06,706.998 2601.71,706.998 2618.36,647.214 2635.01,527.367 2651.67,582.639 2668.32,809.787 2684.97,877.644 2701.62,1028.56 2718.27,1141.26 2734.92,1344.09 2751.57,1400.41 2768.22,1400.41 2784.88,1400.41 2801.53,1400.41 2818.18,1241.31 2834.83,877.644 2851.48,373.938 2868.13,88.2942 2884.78,88.2942 2901.44,289.217 2918.09,373.938 2934.74,527.367 2951.39,647.214 2968.04,748.841 2984.69,748.841 3001.34,706.998 3017.99,582.639 3034.65,421.128 3051.3,527.367 3067.95,706.998 3084.6,877.644 3101.25,1028.56 "/>
<polyline clip-path="url(#clip952)" style="stroke:#1ac938; stroke-linecap:round; stroke-linejoin:round; stroke-width:5; stroke-opacity:1; fill:none" points="320.479,1213.88 337.13,1403.82 353.781,1403.82 370.433,1403.82 387.084,1403.82 403.735,1337.46 420.387,900.916 437.038,173.661 453.689,173.661 470.341,326.551 486.992,546.74 503.643,546.74 520.295,595.619 536.946,595.619 553.597,595.619 570.249,731.047 586.9,731.047 603.551,731.047 620.203,546.74 636.854,431.438 653.505,431.438 670.157,663.228 686.808,844.335 703.459,1024.71 720.111,1213.88 736.762,1403.82 753.413,1403.82 770.065,1403.82 786.716,1403.82 803.367,1337.46 820.019,912.36 836.67,194.591 853.321,194.591 869.973,371.079 886.624,554.867 903.275,599.141 919.927,554.867 936.578,599.141 953.229,680.792 969.881,749.687 986.532,749.687 1003.18,680.792 1019.83,599.141 1036.49,457.745 1053.14,457.745 1069.79,599.141 1086.44,749.687 1103.09,1024.71 1119.74,1213.88 1136.39,1403.82 1153.05,1403.82 1169.7,1403.82 1186.35,1403.82 1203,1403.82 1219.65,912.36 1236.3,194.591 1252.95,194.591 1269.6,371.079 1286.26,554.867 1302.91,599.141 1319.56,599.141 1336.21,680.792 1352.86,680.792 1369.51,749.687 1386.16,749.687 1402.82,749.687 1419.47,599.141 1436.12,457.745 1452.77,457.745 1469.42,599.141 1486.07,912.36 1502.72,1024.71 1519.37,1213.88 1536.03,1403.82 1552.68,1403.82 1569.33,1403.82 1585.98,1403.82 1602.63,1337.46 1619.28,912.36 1635.93,194.591 1652.59,194.591 1669.24,371.079 1685.89,554.867 1702.54,599.141 1719.19,599.141 1735.84,599.141 1752.49,680.792 1769.14,749.687 1785.8,749.687 1802.45,749.687 1819.1,599.141 1835.75,457.745 1852.4,457.745 1869.05,680.792 1885.7,840.234 1902.36,1024.71 1919.01,1213.88 1935.66,1403.82 1952.31,1403.82 1968.96,1403.82 1985.61,1403.82 2002.26,1337.46 2018.91,912.36 2035.57,194.591 2052.22,194.591 2068.87,371.079 2085.52,554.867 2102.17,599.141 2118.82,599.141 2135.47,599.141 2152.13,680.792 2168.78,749.687 2185.43,749.687 2202.08,680.792 2218.73,599.141 2235.38,457.745 2252.03,554.867 2268.68,680.792 2285.34,912.36 2301.99,1024.71 2318.64,1213.88 2335.29,1337.46 2351.94,1403.82 2368.59,1403.82 2385.24,1403.82 2401.9,1403.82 2418.55,1213.88 2435.2,749.687 2451.85,194.591 2468.5,194.591 2485.15,194.591 2501.8,371.079 2518.45,457.745 2535.11,457.745 2551.76,599.141 2568.41,680.792 2585.06,749.687 2601.71,680.792 2618.36,599.141 2635.01,554.867 2651.67,599.141 2668.32,840.234 2684.97,912.36 2701.62,1024.71 2718.27,1213.88 2734.92,1337.46 2751.57,1403.82 2768.22,1403.82 2784.88,1403.82 2801.53,1403.82 2818.18,1337.46 2834.83,912.36 2851.48,371.079 2868.13,194.591 2884.78,194.591 2901.44,194.591 2918.09,457.745 2934.74,554.867 2951.39,599.141 2968.04,749.687 2984.69,840.234 3001.34,680.792 3017.99,599.141 3034.65,457.745 3051.3,554.867 3067.95,680.792 3084.6,912.36 3101.25,1024.71 "/>
<polyline clip-path="url(#clip952)" style="stroke:#e8000b; stroke-linecap:round; stroke-linejoin:round; stroke-width:5; stroke-opacity:1; fill:none" points="320.479,1231.05 337.13,1398.68 353.781,1398.68 370.433,1398.68 387.084,1398.68 403.735,1398.68 420.387,886.713 437.038,165.597 453.689,165.597 470.341,382.442 486.992,556.457 503.643,556.457 520.295,556.457 536.946,556.457 553.597,711.814 570.249,711.814 586.9,711.814 603.551,711.814 620.203,556.457 636.854,382.442 653.505,382.442 670.157,711.814 686.808,886.713 703.459,1035.31 720.111,1231.05 736.762,1398.68 753.413,1398.68 770.065,1398.68 786.716,1398.68 803.367,1398.68 820.019,886.713 836.67,210.695 853.321,210.695 869.973,431.608 886.624,566.371 903.275,566.371 919.927,566.371 936.578,566.371 953.229,711.814 969.881,711.814 986.532,711.814 1003.18,711.814 1019.83,566.371 1036.49,431.608 1053.14,431.608 1069.79,566.371 1086.44,711.814 1103.09,1035.31 1119.74,1231.05 1136.39,1398.68 1153.05,1398.68 1169.7,1398.68 1186.35,1398.68 1203,1398.68 1219.65,886.713 1236.3,210.695 1252.95,210.695 1269.6,431.608 1286.26,431.608 1302.91,566.371 1319.56,566.371 1336.21,711.814 1352.86,711.814 1369.51,711.814 1386.16,711.814 1402.82,711.814 1419.47,566.371 1436.12,431.608 1452.77,431.608 1469.42,566.371 1486.07,886.713 1502.72,1035.31 1519.37,1231.05 1536.03,1398.68 1552.68,1398.68 1569.33,1398.68 1585.98,1398.68 1602.63,1398.68 1619.28,886.713 1635.93,210.695 1652.59,210.695 1669.24,431.608 1685.89,566.371 1702.54,566.371 1719.19,566.371 1735.84,566.371 1752.49,711.814 1769.14,711.814 1785.8,711.814 1802.45,711.814 1819.1,566.371 1835.75,431.608 1852.4,431.608 1869.05,711.814 1885.7,886.713 1902.36,1035.31 1919.01,1231.05 1935.66,1398.68 1952.31,1398.68 1968.96,1398.68 1985.61,1398.68 2002.26,1398.68 2018.91,886.713 2035.57,210.695 2052.22,210.695 2068.87,431.608 2085.52,566.371 2102.17,566.371 2118.82,566.371 2135.47,566.371 2152.13,711.814 2168.78,711.814 2185.43,711.814 2202.08,711.814 2218.73,711.814 2235.38,431.608 2252.03,566.371 2268.68,711.814 2285.34,886.713 2301.99,1035.31 2318.64,1231.05 2335.29,1398.68 2351.94,1398.68 2368.59,1398.68 2385.24,1398.68 2401.9,1398.68 2418.55,1231.05 2435.2,711.814 2451.85,210.695 2468.5,111.102 2485.15,111.102 2501.8,431.608 2518.45,431.608 2535.11,431.608 2551.76,566.371 2568.41,711.814 2585.06,711.814 2601.71,711.814 2618.36,711.814 2635.01,566.371 2651.67,566.371 2668.32,711.814 2684.97,886.713 2701.62,1035.31 2718.27,1231.05 2734.92,1398.68 2751.57,1398.68 2768.22,1398.68 2784.88,1398.68 2801.53,1398.68 2818.18,1231.05 2834.83,886.713 2851.48,210.695 2868.13,111.102 2884.78,111.102 2901.44,111.102 2918.09,431.608 2934.74,566.371 2951.39,711.814 2968.04,711.814 2984.69,711.814 3001.34,711.814 3017.99,566.371 3034.65,431.608 3051.3,431.608 3067.95,711.814 3084.6,886.713 3101.25,1035.31 "/>
<path clip-path="url(#clip950)" d="M3308.53 445.512 L3952.76 445.512 L3952.76 95.592 L3308.53 95.592  Z" fill="#ffffff" fill-rule="evenodd" fill-opacity="1"/>
<polyline clip-path="url(#clip950)" style="stroke:#000000; stroke-linecap:round; stroke-linejoin:round; stroke-width:4; stroke-opacity:1; fill:none" points="3308.53,445.512 3952.76,445.512 3952.76,95.592 3308.53,95.592 3308.53,445.512 "/>
<polyline clip-path="url(#clip950)" style="stroke:#023eff; stroke-linecap:round; stroke-linejoin:round; stroke-width:5.625; stroke-opacity:1; fill:none" points="3349.82,153.912 3597.53,153.912 "/>
<path clip-path="url(#clip950)" d="M3643.63 168.977 L3643.63 184.446 L3638.82 184.446 L3638.82 144.185 L3643.63 144.185 L3643.63 148.613 Q3645.14 146.008 3647.44 144.758 Q3649.75 143.482 3652.96 143.482 Q3658.27 143.482 3661.58 147.701 Q3664.91 151.92 3664.91 158.795 Q3664.91 165.67 3661.58 169.888 Q3658.27 174.107 3652.96 174.107 Q3649.75 174.107 3647.44 172.857 Q3645.14 171.581 3643.63 168.977 M3659.94 158.795 Q3659.94 153.508 3657.75 150.514 Q3655.59 147.493 3651.78 147.493 Q3647.98 147.493 3645.79 150.514 Q3643.63 153.508 3643.63 158.795 Q3643.63 164.081 3645.79 167.102 Q3647.98 170.097 3651.78 170.097 Q3655.59 170.097 3657.75 167.102 Q3659.94 164.081 3659.94 158.795 Z" fill="#000000" fill-rule="nonzero" fill-opacity="1" /><path clip-path="url(#clip950)" d="M3689.75 148.665 Q3688.95 148.196 3687.98 147.988 Q3687.04 147.753 3685.9 147.753 Q3681.84 147.753 3679.65 150.409 Q3677.49 153.04 3677.49 157.987 L3677.49 173.352 L3672.67 173.352 L3672.67 144.185 L3677.49 144.185 L3677.49 148.717 Q3679 146.06 3681.42 144.784 Q3683.84 143.482 3687.3 143.482 Q3687.8 143.482 3688.4 143.56 Q3689 143.613 3689.73 143.743 L3689.75 148.665 Z" fill="#000000" fill-rule="nonzero" fill-opacity="1" /><path clip-path="url(#clip950)" d="M3718.55 157.571 L3718.55 159.915 L3696.52 159.915 Q3696.84 164.862 3699.49 167.467 Q3702.17 170.045 3706.94 170.045 Q3709.7 170.045 3712.28 169.368 Q3714.88 168.691 3717.43 167.336 L3717.43 171.868 Q3714.86 172.961 3712.15 173.534 Q3709.44 174.107 3706.65 174.107 Q3699.67 174.107 3695.59 170.045 Q3691.52 165.982 3691.52 159.055 Q3691.52 151.894 3695.38 147.701 Q3699.26 143.482 3705.82 143.482 Q3711.71 143.482 3715.12 147.284 Q3718.55 151.06 3718.55 157.571 M3713.76 156.165 Q3713.71 152.232 3711.55 149.889 Q3709.41 147.545 3705.87 147.545 Q3701.86 147.545 3699.44 149.81 Q3697.04 152.076 3696.68 156.191 L3713.76 156.165 Z" fill="#000000" fill-rule="nonzero" fill-opacity="1" /><path clip-path="url(#clip950)" d="M3745.61 148.613 L3745.61 132.831 L3750.4 132.831 L3750.4 173.352 L3745.61 173.352 L3745.61 168.977 Q3744.1 171.581 3741.78 172.857 Q3739.49 174.107 3736.26 174.107 Q3730.98 174.107 3727.64 169.888 Q3724.34 165.67 3724.34 158.795 Q3724.34 151.92 3727.64 147.701 Q3730.98 143.482 3736.26 143.482 Q3739.49 143.482 3741.78 144.758 Q3744.1 146.008 3745.61 148.613 M3729.28 158.795 Q3729.28 164.081 3731.45 167.102 Q3733.63 170.097 3737.43 170.097 Q3741.24 170.097 3743.42 167.102 Q3745.61 164.081 3745.61 158.795 Q3745.61 153.508 3743.42 150.514 Q3741.24 147.493 3737.43 147.493 Q3733.63 147.493 3731.45 150.514 Q3729.28 153.508 3729.28 158.795 Z" fill="#000000" fill-rule="nonzero" fill-opacity="1" /><path clip-path="url(#clip950)" d="M3760.27 144.185 L3765.06 144.185 L3765.06 173.352 L3760.27 173.352 L3760.27 144.185 M3760.27 132.831 L3765.06 132.831 L3765.06 138.899 L3760.27 138.899 L3760.27 132.831 Z" fill="#000000" fill-rule="nonzero" fill-opacity="1" /><path clip-path="url(#clip950)" d="M3796.08 145.305 L3796.08 149.784 Q3794.05 148.665 3791.99 148.118 Q3789.96 147.545 3787.88 147.545 Q3783.22 147.545 3780.64 150.514 Q3778.06 153.456 3778.06 158.795 Q3778.06 164.133 3780.64 167.102 Q3783.22 170.045 3787.88 170.045 Q3789.96 170.045 3791.99 169.498 Q3794.05 168.925 3796.08 167.805 L3796.08 172.232 Q3794.08 173.17 3791.91 173.638 Q3789.78 174.107 3787.36 174.107 Q3780.77 174.107 3776.89 169.967 Q3773.01 165.826 3773.01 158.795 Q3773.01 151.659 3776.91 147.571 Q3780.85 143.482 3787.67 143.482 Q3789.88 143.482 3791.99 143.951 Q3794.1 144.394 3796.08 145.305 Z" fill="#000000" fill-rule="nonzero" fill-opacity="1" /><path clip-path="url(#clip950)" d="M3809.15 135.904 L3809.15 144.185 L3819.02 144.185 L3819.02 147.909 L3809.15 147.909 L3809.15 163.743 Q3809.15 167.31 3810.12 168.326 Q3811.11 169.342 3814.1 169.342 L3819.02 169.342 L3819.02 173.352 L3814.1 173.352 Q3808.55 173.352 3806.44 171.295 Q3804.34 169.211 3804.34 163.743 L3804.34 147.909 L3800.82 147.909 L3800.82 144.185 L3804.34 144.185 L3804.34 135.904 L3809.15 135.904 Z" fill="#000000" fill-rule="nonzero" fill-opacity="1" /><path clip-path="url(#clip950)" d="M3847.49 182.206 L3847.49 185.93 L3819.78 185.93 L3819.78 182.206 L3847.49 182.206 Z" fill="#000000" fill-rule="nonzero" fill-opacity="1" /><path clip-path="url(#clip950)" d="M3852.72 134.472 L3873.37 134.472 L3873.37 138.899 L3857.54 138.899 L3857.54 148.43 Q3858.68 148.04 3859.83 147.857 Q3860.98 147.649 3862.12 147.649 Q3868.63 147.649 3872.43 151.217 Q3876.24 154.784 3876.24 160.878 Q3876.24 167.154 3872.33 170.644 Q3868.42 174.107 3861.31 174.107 Q3858.87 174.107 3856.31 173.69 Q3853.79 173.274 3851.08 172.441 L3851.08 167.154 Q3853.42 168.43 3855.92 169.055 Q3858.42 169.68 3861.21 169.68 Q3865.72 169.68 3868.35 167.31 Q3870.98 164.941 3870.98 160.878 Q3870.98 156.816 3868.35 154.446 Q3865.72 152.076 3861.21 152.076 Q3859.1 152.076 3856.99 152.545 Q3854.91 153.014 3852.72 154.003 L3852.72 134.472 Z" fill="#000000" fill-rule="nonzero" fill-opacity="1" /><path clip-path="url(#clip950)" d="M3891.13 168.925 L3909.49 168.925 L3909.49 173.352 L3884.8 173.352 L3884.8 168.925 Q3887.8 165.826 3892.95 160.618 Q3898.14 155.383 3899.47 153.873 Q3901.99 151.034 3902.98 149.081 Q3904 147.102 3904 145.201 Q3904 142.102 3901.81 140.149 Q3899.65 138.196 3896.16 138.196 Q3893.68 138.196 3890.92 139.055 Q3888.19 139.915 3885.06 141.659 L3885.06 136.347 Q3888.24 135.071 3891 134.42 Q3893.76 133.769 3896.05 133.769 Q3902.1 133.769 3905.69 136.79 Q3909.28 139.81 3909.28 144.863 Q3909.28 147.258 3908.37 149.42 Q3907.49 151.555 3905.12 154.472 Q3904.47 155.227 3900.98 158.847 Q3897.49 162.441 3891.13 168.925 Z" fill="#000000" fill-rule="nonzero" fill-opacity="1" /><polyline clip-path="url(#clip950)" style="stroke:#ff7c00; stroke-linecap:round; stroke-linejoin:round; stroke-width:5.625; stroke-opacity:1; fill:none" points="3349.82,212.232 3597.53,212.232 "/>
<path clip-path="url(#clip950)" d="M3643.63 227.297 L3643.63 242.766 L3638.82 242.766 L3638.82 202.505 L3643.63 202.505 L3643.63 206.933 Q3645.14 204.328 3647.44 203.078 Q3649.75 201.802 3652.96 201.802 Q3658.27 201.802 3661.58 206.021 Q3664.91 210.24 3664.91 217.115 Q3664.91 223.99 3661.58 228.208 Q3658.27 232.427 3652.96 232.427 Q3649.75 232.427 3647.44 231.177 Q3645.14 229.901 3643.63 227.297 M3659.94 217.115 Q3659.94 211.828 3657.75 208.834 Q3655.59 205.813 3651.78 205.813 Q3647.98 205.813 3645.79 208.834 Q3643.63 211.828 3643.63 217.115 Q3643.63 222.401 3645.79 225.422 Q3647.98 228.417 3651.78 228.417 Q3655.59 228.417 3657.75 225.422 Q3659.94 222.401 3659.94 217.115 Z" fill="#000000" fill-rule="nonzero" fill-opacity="1" /><path clip-path="url(#clip950)" d="M3689.75 206.985 Q3688.95 206.516 3687.98 206.308 Q3687.04 206.073 3685.9 206.073 Q3681.84 206.073 3679.65 208.729 Q3677.49 211.36 3677.49 216.307 L3677.49 231.672 L3672.67 231.672 L3672.67 202.505 L3677.49 202.505 L3677.49 207.037 Q3679 204.38 3681.42 203.104 Q3683.84 201.802 3687.3 201.802 Q3687.8 201.802 3688.4 201.88 Q3689 201.933 3689.73 202.063 L3689.75 206.985 Z" fill="#000000" fill-rule="nonzero" fill-opacity="1" /><path clip-path="url(#clip950)" d="M3718.55 215.891 L3718.55 218.235 L3696.52 218.235 Q3696.84 223.182 3699.49 225.787 Q3702.17 228.365 3706.94 228.365 Q3709.7 228.365 3712.28 227.688 Q3714.88 227.011 3717.43 225.656 L3717.43 230.188 Q3714.86 231.281 3712.15 231.854 Q3709.44 232.427 3706.65 232.427 Q3699.67 232.427 3695.59 228.365 Q3691.52 224.302 3691.52 217.375 Q3691.52 210.214 3695.38 206.021 Q3699.26 201.802 3705.82 201.802 Q3711.71 201.802 3715.12 205.604 Q3718.55 209.38 3718.55 215.891 M3713.76 214.485 Q3713.71 210.552 3711.55 208.209 Q3709.41 205.865 3705.87 205.865 Q3701.86 205.865 3699.44 208.13 Q3697.04 210.396 3696.68 214.511 L3713.76 214.485 Z" fill="#000000" fill-rule="nonzero" fill-opacity="1" /><path clip-path="url(#clip950)" d="M3745.61 206.933 L3745.61 191.151 L3750.4 191.151 L3750.4 231.672 L3745.61 231.672 L3745.61 227.297 Q3744.1 229.901 3741.78 231.177 Q3739.49 232.427 3736.26 232.427 Q3730.98 232.427 3727.64 228.208 Q3724.34 223.99 3724.34 217.115 Q3724.34 210.24 3727.64 206.021 Q3730.98 201.802 3736.26 201.802 Q3739.49 201.802 3741.78 203.078 Q3744.1 204.328 3745.61 206.933 M3729.28 217.115 Q3729.28 222.401 3731.45 225.422 Q3733.63 228.417 3737.43 228.417 Q3741.24 228.417 3743.42 225.422 Q3745.61 222.401 3745.61 217.115 Q3745.61 211.828 3743.42 208.834 Q3741.24 205.813 3737.43 205.813 Q3733.63 205.813 3731.45 208.834 Q3729.28 211.828 3729.28 217.115 Z" fill="#000000" fill-rule="nonzero" fill-opacity="1" /><path clip-path="url(#clip950)" d="M3760.27 202.505 L3765.06 202.505 L3765.06 231.672 L3760.27 231.672 L3760.27 202.505 M3760.27 191.151 L3765.06 191.151 L3765.06 197.219 L3760.27 197.219 L3760.27 191.151 Z" fill="#000000" fill-rule="nonzero" fill-opacity="1" /><path clip-path="url(#clip950)" d="M3796.08 203.625 L3796.08 208.104 Q3794.05 206.985 3791.99 206.438 Q3789.96 205.865 3787.88 205.865 Q3783.22 205.865 3780.64 208.834 Q3778.06 211.776 3778.06 217.115 Q3778.06 222.453 3780.64 225.422 Q3783.22 228.365 3787.88 228.365 Q3789.96 228.365 3791.99 227.818 Q3794.05 227.245 3796.08 226.125 L3796.08 230.552 Q3794.08 231.49 3791.91 231.958 Q3789.78 232.427 3787.36 232.427 Q3780.77 232.427 3776.89 228.287 Q3773.01 224.146 3773.01 217.115 Q3773.01 209.979 3776.91 205.891 Q3780.85 201.802 3787.67 201.802 Q3789.88 201.802 3791.99 202.271 Q3794.1 202.714 3796.08 203.625 Z" fill="#000000" fill-rule="nonzero" fill-opacity="1" /><path clip-path="url(#clip950)" d="M3809.15 194.224 L3809.15 202.505 L3819.02 202.505 L3819.02 206.229 L3809.15 206.229 L3809.15 222.063 Q3809.15 225.63 3810.12 226.646 Q3811.11 227.662 3814.1 227.662 L3819.02 227.662 L3819.02 231.672 L3814.1 231.672 Q3808.55 231.672 3806.44 229.615 Q3804.34 227.531 3804.34 222.063 L3804.34 206.229 L3800.82 206.229 L3800.82 202.505 L3804.34 202.505 L3804.34 194.224 L3809.15 194.224 Z" fill="#000000" fill-rule="nonzero" fill-opacity="1" /><path clip-path="url(#clip950)" d="M3847.49 240.526 L3847.49 244.25 L3819.78 244.25 L3819.78 240.526 L3847.49 240.526 Z" fill="#000000" fill-rule="nonzero" fill-opacity="1" /><path clip-path="url(#clip950)" d="M3857.2 227.245 L3875.56 227.245 L3875.56 231.672 L3850.87 231.672 L3850.87 227.245 Q3853.87 224.146 3859.02 218.938 Q3864.2 213.703 3865.53 212.193 Q3868.06 209.354 3869.05 207.401 Q3870.06 205.422 3870.06 203.521 Q3870.06 200.422 3867.88 198.469 Q3865.72 196.516 3862.23 196.516 Q3859.75 196.516 3856.99 197.375 Q3854.26 198.235 3851.13 199.979 L3851.13 194.667 Q3854.31 193.391 3857.07 192.74 Q3859.83 192.089 3862.12 192.089 Q3868.16 192.089 3871.76 195.11 Q3875.35 198.13 3875.35 203.183 Q3875.35 205.578 3874.44 207.74 Q3873.55 209.875 3871.18 212.792 Q3870.53 213.547 3867.04 217.167 Q3863.55 220.761 3857.2 227.245 Z" fill="#000000" fill-rule="nonzero" fill-opacity="1" /><path clip-path="url(#clip950)" d="M3898.5 210.136 Q3894.96 210.136 3892.88 212.557 Q3890.82 214.979 3890.82 219.198 Q3890.82 223.391 3892.88 225.839 Q3894.96 228.261 3898.5 228.261 Q3902.04 228.261 3904.1 225.839 Q3906.18 223.391 3906.18 219.198 Q3906.18 214.979 3904.1 212.557 Q3902.04 210.136 3898.5 210.136 M3908.94 193.651 L3908.94 198.443 Q3906.97 197.505 3904.93 197.011 Q3902.93 196.516 3900.95 196.516 Q3895.74 196.516 3892.98 200.031 Q3890.25 203.547 3889.86 210.656 Q3891.39 208.391 3893.71 207.193 Q3896.03 205.969 3898.81 205.969 Q3904.67 205.969 3908.06 209.537 Q3911.47 213.078 3911.47 219.198 Q3911.47 225.188 3907.93 228.807 Q3904.39 232.427 3898.5 232.427 Q3891.76 232.427 3888.19 227.271 Q3884.62 222.089 3884.62 212.271 Q3884.62 203.052 3889 197.584 Q3893.37 192.089 3900.74 192.089 Q3902.72 192.089 3904.73 192.479 Q3906.76 192.87 3908.94 193.651 Z" fill="#000000" fill-rule="nonzero" fill-opacity="1" /><polyline clip-path="url(#clip950)" style="stroke:#1ac938; stroke-linecap:round; stroke-linejoin:round; stroke-width:5.625; stroke-opacity:1; fill:none" points="3349.82,270.552 3597.53,270.552 "/>
<path clip-path="url(#clip950)" d="M3643.63 285.617 L3643.63 301.086 L3638.82 301.086 L3638.82 260.825 L3643.63 260.825 L3643.63 265.253 Q3645.14 262.648 3647.44 261.398 Q3649.75 260.122 3652.96 260.122 Q3658.27 260.122 3661.58 264.341 Q3664.91 268.56 3664.91 275.435 Q3664.91 282.31 3661.58 286.528 Q3658.27 290.747 3652.96 290.747 Q3649.75 290.747 3647.44 289.497 Q3645.14 288.221 3643.63 285.617 M3659.94 275.435 Q3659.94 270.148 3657.75 267.154 Q3655.59 264.133 3651.78 264.133 Q3647.98 264.133 3645.79 267.154 Q3643.63 270.148 3643.63 275.435 Q3643.63 280.721 3645.79 283.742 Q3647.98 286.737 3651.78 286.737 Q3655.59 286.737 3657.75 283.742 Q3659.94 280.721 3659.94 275.435 Z" fill="#000000" fill-rule="nonzero" fill-opacity="1" /><path clip-path="url(#clip950)" d="M3689.75 265.305 Q3688.95 264.836 3687.98 264.628 Q3687.04 264.393 3685.9 264.393 Q3681.84 264.393 3679.65 267.049 Q3677.49 269.68 3677.49 274.627 L3677.49 289.992 L3672.67 289.992 L3672.67 260.825 L3677.49 260.825 L3677.49 265.357 Q3679 262.7 3681.42 261.424 Q3683.84 260.122 3687.3 260.122 Q3687.8 260.122 3688.4 260.2 Q3689 260.253 3689.73 260.383 L3689.75 265.305 Z" fill="#000000" fill-rule="nonzero" fill-opacity="1" /><path clip-path="url(#clip950)" d="M3718.55 274.211 L3718.55 276.555 L3696.52 276.555 Q3696.84 281.502 3699.49 284.107 Q3702.17 286.685 3706.94 286.685 Q3709.7 286.685 3712.28 286.008 Q3714.88 285.331 3717.43 283.976 L3717.43 288.508 Q3714.86 289.601 3712.15 290.174 Q3709.44 290.747 3706.65 290.747 Q3699.67 290.747 3695.59 286.685 Q3691.52 282.622 3691.52 275.695 Q3691.52 268.534 3695.38 264.341 Q3699.26 260.122 3705.82 260.122 Q3711.71 260.122 3715.12 263.924 Q3718.55 267.7 3718.55 274.211 M3713.76 272.805 Q3713.71 268.872 3711.55 266.529 Q3709.41 264.185 3705.87 264.185 Q3701.86 264.185 3699.44 266.45 Q3697.04 268.716 3696.68 272.831 L3713.76 272.805 Z" fill="#000000" fill-rule="nonzero" fill-opacity="1" /><path clip-path="url(#clip950)" d="M3745.61 265.253 L3745.61 249.471 L3750.4 249.471 L3750.4 289.992 L3745.61 289.992 L3745.61 285.617 Q3744.1 288.221 3741.78 289.497 Q3739.49 290.747 3736.26 290.747 Q3730.98 290.747 3727.64 286.528 Q3724.34 282.31 3724.34 275.435 Q3724.34 268.56 3727.64 264.341 Q3730.98 260.122 3736.26 260.122 Q3739.49 260.122 3741.78 261.398 Q3744.1 262.648 3745.61 265.253 M3729.28 275.435 Q3729.28 280.721 3731.45 283.742 Q3733.63 286.737 3737.43 286.737 Q3741.24 286.737 3743.42 283.742 Q3745.61 280.721 3745.61 275.435 Q3745.61 270.148 3743.42 267.154 Q3741.24 264.133 3737.43 264.133 Q3733.63 264.133 3731.45 267.154 Q3729.28 270.148 3729.28 275.435 Z" fill="#000000" fill-rule="nonzero" fill-opacity="1" /><path clip-path="url(#clip950)" d="M3760.27 260.825 L3765.06 260.825 L3765.06 289.992 L3760.27 289.992 L3760.27 260.825 M3760.27 249.471 L3765.06 249.471 L3765.06 255.539 L3760.27 255.539 L3760.27 249.471 Z" fill="#000000" fill-rule="nonzero" fill-opacity="1" /><path clip-path="url(#clip950)" d="M3796.08 261.945 L3796.08 266.424 Q3794.05 265.305 3791.99 264.758 Q3789.96 264.185 3787.88 264.185 Q3783.22 264.185 3780.64 267.154 Q3778.06 270.096 3778.06 275.435 Q3778.06 280.773 3780.64 283.742 Q3783.22 286.685 3787.88 286.685 Q3789.96 286.685 3791.99 286.138 Q3794.05 285.565 3796.08 284.445 L3796.08 288.872 Q3794.08 289.81 3791.91 290.278 Q3789.78 290.747 3787.36 290.747 Q3780.77 290.747 3776.89 286.607 Q3773.01 282.466 3773.01 275.435 Q3773.01 268.299 3776.91 264.211 Q3780.85 260.122 3787.67 260.122 Q3789.88 260.122 3791.99 260.591 Q3794.1 261.034 3796.08 261.945 Z" fill="#000000" fill-rule="nonzero" fill-opacity="1" /><path clip-path="url(#clip950)" d="M3809.15 252.544 L3809.15 260.825 L3819.02 260.825 L3819.02 264.549 L3809.15 264.549 L3809.15 280.383 Q3809.15 283.95 3810.12 284.966 Q3811.11 285.982 3814.1 285.982 L3819.02 285.982 L3819.02 289.992 L3814.1 289.992 Q3808.55 289.992 3806.44 287.935 Q3804.34 285.851 3804.34 280.383 L3804.34 264.549 L3800.82 264.549 L3800.82 260.825 L3804.34 260.825 L3804.34 252.544 L3809.15 252.544 Z" fill="#000000" fill-rule="nonzero" fill-opacity="1" /><path clip-path="url(#clip950)" d="M3847.49 298.846 L3847.49 302.57 L3819.78 302.57 L3819.78 298.846 L3847.49 298.846 Z" fill="#000000" fill-rule="nonzero" fill-opacity="1" /><path clip-path="url(#clip950)" d="M3867.12 255.695 L3853.84 276.45 L3867.12 276.45 L3867.12 255.695 M3865.74 251.112 L3872.36 251.112 L3872.36 276.45 L3877.9 276.45 L3877.9 280.825 L3872.36 280.825 L3872.36 289.992 L3867.12 289.992 L3867.12 280.825 L3849.57 280.825 L3849.57 275.747 L3865.74 251.112 Z" fill="#000000" fill-rule="nonzero" fill-opacity="1" /><polyline clip-path="url(#clip950)" style="stroke:#e8000b; stroke-linecap:round; stroke-linejoin:round; stroke-width:5.625; stroke-opacity:1; fill:none" points="3349.82,328.872 3597.53,328.872 "/>
<path clip-path="url(#clip950)" d="M3643.63 343.937 L3643.63 359.406 L3638.82 359.406 L3638.82 319.145 L3643.63 319.145 L3643.63 323.573 Q3645.14 320.968 3647.44 319.718 Q3649.75 318.442 3652.96 318.442 Q3658.27 318.442 3661.58 322.661 Q3664.91 326.88 3664.91 333.755 Q3664.91 340.63 3661.58 344.848 Q3658.27 349.067 3652.96 349.067 Q3649.75 349.067 3647.44 347.817 Q3645.14 346.541 3643.63 343.937 M3659.94 333.755 Q3659.94 328.468 3657.75 325.474 Q3655.59 322.453 3651.78 322.453 Q3647.98 322.453 3645.79 325.474 Q3643.63 328.468 3643.63 333.755 Q3643.63 339.041 3645.79 342.062 Q3647.98 345.057 3651.78 345.057 Q3655.59 345.057 3657.75 342.062 Q3659.94 339.041 3659.94 333.755 Z" fill="#000000" fill-rule="nonzero" fill-opacity="1" /><path clip-path="url(#clip950)" d="M3689.75 323.625 Q3688.95 323.156 3687.98 322.948 Q3687.04 322.713 3685.9 322.713 Q3681.84 322.713 3679.65 325.369 Q3677.49 328 3677.49 332.947 L3677.49 348.312 L3672.67 348.312 L3672.67 319.145 L3677.49 319.145 L3677.49 323.677 Q3679 321.02 3681.42 319.744 Q3683.84 318.442 3687.3 318.442 Q3687.8 318.442 3688.4 318.52 Q3689 318.573 3689.73 318.703 L3689.75 323.625 Z" fill="#000000" fill-rule="nonzero" fill-opacity="1" /><path clip-path="url(#clip950)" d="M3718.55 332.531 L3718.55 334.875 L3696.52 334.875 Q3696.84 339.822 3699.49 342.427 Q3702.17 345.005 3706.94 345.005 Q3709.7 345.005 3712.28 344.328 Q3714.88 343.651 3717.43 342.296 L3717.43 346.828 Q3714.86 347.921 3712.15 348.494 Q3709.44 349.067 3706.65 349.067 Q3699.67 349.067 3695.59 345.005 Q3691.52 340.942 3691.52 334.015 Q3691.52 326.854 3695.38 322.661 Q3699.26 318.442 3705.82 318.442 Q3711.71 318.442 3715.12 322.244 Q3718.55 326.02 3718.55 332.531 M3713.76 331.125 Q3713.71 327.192 3711.55 324.849 Q3709.41 322.505 3705.87 322.505 Q3701.86 322.505 3699.44 324.77 Q3697.04 327.036 3696.68 331.151 L3713.76 331.125 Z" fill="#000000" fill-rule="nonzero" fill-opacity="1" /><path clip-path="url(#clip950)" d="M3745.61 323.573 L3745.61 307.791 L3750.4 307.791 L3750.4 348.312 L3745.61 348.312 L3745.61 343.937 Q3744.1 346.541 3741.78 347.817 Q3739.49 349.067 3736.26 349.067 Q3730.98 349.067 3727.64 344.848 Q3724.34 340.63 3724.34 333.755 Q3724.34 326.88 3727.64 322.661 Q3730.98 318.442 3736.26 318.442 Q3739.49 318.442 3741.78 319.718 Q3744.1 320.968 3745.61 323.573 M3729.28 333.755 Q3729.28 339.041 3731.45 342.062 Q3733.63 345.057 3737.43 345.057 Q3741.24 345.057 3743.42 342.062 Q3745.61 339.041 3745.61 333.755 Q3745.61 328.468 3743.42 325.474 Q3741.24 322.453 3737.43 322.453 Q3733.63 322.453 3731.45 325.474 Q3729.28 328.468 3729.28 333.755 Z" fill="#000000" fill-rule="nonzero" fill-opacity="1" /><path clip-path="url(#clip950)" d="M3760.27 319.145 L3765.06 319.145 L3765.06 348.312 L3760.27 348.312 L3760.27 319.145 M3760.27 307.791 L3765.06 307.791 L3765.06 313.859 L3760.27 313.859 L3760.27 307.791 Z" fill="#000000" fill-rule="nonzero" fill-opacity="1" /><path clip-path="url(#clip950)" d="M3796.08 320.265 L3796.08 324.744 Q3794.05 323.625 3791.99 323.078 Q3789.96 322.505 3787.88 322.505 Q3783.22 322.505 3780.64 325.474 Q3778.06 328.416 3778.06 333.755 Q3778.06 339.093 3780.64 342.062 Q3783.22 345.005 3787.88 345.005 Q3789.96 345.005 3791.99 344.458 Q3794.05 343.885 3796.08 342.765 L3796.08 347.192 Q3794.08 348.13 3791.91 348.598 Q3789.78 349.067 3787.36 349.067 Q3780.77 349.067 3776.89 344.927 Q3773.01 340.786 3773.01 333.755 Q3773.01 326.619 3776.91 322.531 Q3780.85 318.442 3787.67 318.442 Q3789.88 318.442 3791.99 318.911 Q3794.1 319.354 3796.08 320.265 Z" fill="#000000" fill-rule="nonzero" fill-opacity="1" /><path clip-path="url(#clip950)" d="M3809.15 310.864 L3809.15 319.145 L3819.02 319.145 L3819.02 322.869 L3809.15 322.869 L3809.15 338.703 Q3809.15 342.27 3810.12 343.286 Q3811.11 344.302 3814.1 344.302 L3819.02 344.302 L3819.02 348.312 L3814.1 348.312 Q3808.55 348.312 3806.44 346.255 Q3804.34 344.171 3804.34 338.703 L3804.34 322.869 L3800.82 322.869 L3800.82 319.145 L3804.34 319.145 L3804.34 310.864 L3809.15 310.864 Z" fill="#000000" fill-rule="nonzero" fill-opacity="1" /><path clip-path="url(#clip950)" d="M3847.49 357.166 L3847.49 360.89 L3819.78 360.89 L3819.78 357.166 L3847.49 357.166 Z" fill="#000000" fill-rule="nonzero" fill-opacity="1" /><path clip-path="url(#clip950)" d="M3853.58 343.885 L3862.17 343.885 L3862.17 314.224 L3852.82 316.099 L3852.82 311.307 L3862.12 309.432 L3867.38 309.432 L3867.38 343.885 L3875.98 343.885 L3875.98 348.312 L3853.58 348.312 L3853.58 343.885 Z" fill="#000000" fill-rule="nonzero" fill-opacity="1" /><polyline clip-path="url(#clip950)" style="stroke:#000000; stroke-linecap:round; stroke-linejoin:round; stroke-width:6.75; stroke-opacity:1; fill:none" points="3349.82,387.192 3597.53,387.192 "/>
<path clip-path="url(#clip950)" d="M3653.89 391.971 Q3648.09 391.971 3645.85 393.299 Q3643.61 394.627 3643.61 397.83 Q3643.61 400.382 3645.27 401.892 Q3646.97 403.377 3649.86 403.377 Q3653.84 403.377 3656.24 400.564 Q3658.66 397.726 3658.66 393.038 L3658.66 391.971 L3653.89 391.971 M3663.45 389.991 L3663.45 406.632 L3658.66 406.632 L3658.66 402.205 Q3657.02 404.861 3654.57 406.137 Q3652.12 407.387 3648.58 407.387 Q3644.1 407.387 3641.45 404.887 Q3638.82 402.361 3638.82 398.142 Q3638.82 393.221 3642.1 390.721 Q3645.4 388.221 3651.94 388.221 L3658.66 388.221 L3658.66 387.752 Q3658.66 384.445 3656.47 382.648 Q3654.31 380.825 3650.38 380.825 Q3647.88 380.825 3645.51 381.424 Q3643.14 382.023 3640.95 383.221 L3640.95 378.794 Q3643.58 377.778 3646.06 377.283 Q3648.53 376.762 3650.87 376.762 Q3657.2 376.762 3660.33 380.044 Q3663.45 383.325 3663.45 389.991 Z" fill="#000000" fill-rule="nonzero" fill-opacity="1" /><path clip-path="url(#clip950)" d="M3694.31 378.585 L3694.31 383.064 Q3692.28 381.945 3690.22 381.398 Q3688.19 380.825 3686.11 380.825 Q3681.45 380.825 3678.87 383.794 Q3676.29 386.736 3676.29 392.075 Q3676.29 397.413 3678.87 400.382 Q3681.45 403.325 3686.11 403.325 Q3688.19 403.325 3690.22 402.778 Q3692.28 402.205 3694.31 401.085 L3694.31 405.512 Q3692.3 406.45 3690.14 406.918 Q3688.01 407.387 3685.59 407.387 Q3679 407.387 3675.12 403.247 Q3671.24 399.106 3671.24 392.075 Q3671.24 384.939 3675.14 380.851 Q3679.08 376.762 3685.9 376.762 Q3688.11 376.762 3690.22 377.231 Q3692.33 377.674 3694.31 378.585 Z" fill="#000000" fill-rule="nonzero" fill-opacity="1" /><path clip-path="url(#clip950)" d="M3707.38 369.184 L3707.38 377.465 L3717.25 377.465 L3717.25 381.189 L3707.38 381.189 L3707.38 397.023 Q3707.38 400.59 3708.35 401.606 Q3709.34 402.622 3712.33 402.622 L3717.25 402.622 L3717.25 406.632 L3712.33 406.632 Q3706.78 406.632 3704.67 404.575 Q3702.57 402.491 3702.57 397.023 L3702.57 381.189 L3699.05 381.189 L3699.05 377.465 L3702.57 377.465 L3702.57 369.184 L3707.38 369.184 Z" fill="#000000" fill-rule="nonzero" fill-opacity="1" /><path clip-path="url(#clip950)" d="M3723.06 395.122 L3723.06 377.465 L3727.85 377.465 L3727.85 394.939 Q3727.85 399.08 3729.47 401.163 Q3731.08 403.221 3734.31 403.221 Q3738.19 403.221 3740.43 400.747 Q3742.7 398.273 3742.7 394.002 L3742.7 377.465 L3747.49 377.465 L3747.49 406.632 L3742.7 406.632 L3742.7 402.153 Q3740.95 404.809 3738.63 406.111 Q3736.34 407.387 3733.29 407.387 Q3728.27 407.387 3725.66 404.262 Q3723.06 401.137 3723.06 395.122 M3735.12 376.762 L3735.12 376.762 Z" fill="#000000" fill-rule="nonzero" fill-opacity="1" /><path clip-path="url(#clip950)" d="M3770.61 391.971 Q3764.8 391.971 3762.56 393.299 Q3760.33 394.627 3760.33 397.83 Q3760.33 400.382 3761.99 401.892 Q3763.68 403.377 3766.58 403.377 Q3770.56 403.377 3772.96 400.564 Q3775.38 397.726 3775.38 393.038 L3775.38 391.971 L3770.61 391.971 M3780.17 389.991 L3780.17 406.632 L3775.38 406.632 L3775.38 402.205 Q3773.74 404.861 3771.29 406.137 Q3768.84 407.387 3765.3 407.387 Q3760.82 407.387 3758.16 404.887 Q3755.53 402.361 3755.53 398.142 Q3755.53 393.221 3758.81 390.721 Q3762.12 388.221 3768.66 388.221 L3775.38 388.221 L3775.38 387.752 Q3775.38 384.445 3773.19 382.648 Q3771.03 380.825 3767.1 380.825 Q3764.6 380.825 3762.23 381.424 Q3759.86 382.023 3757.67 383.221 L3757.67 378.794 Q3760.3 377.778 3762.77 377.283 Q3765.25 376.762 3767.59 376.762 Q3773.92 376.762 3777.04 380.044 Q3780.17 383.325 3780.17 389.991 Z" fill="#000000" fill-rule="nonzero" fill-opacity="1" /><path clip-path="url(#clip950)" d="M3790.04 366.111 L3794.83 366.111 L3794.83 406.632 L3790.04 406.632 L3790.04 366.111 Z" fill="#000000" fill-rule="nonzero" fill-opacity="1" /></svg>
