<?xml version="1.0" encoding="UTF-8" standalone="no"?>
<!DOCTYPE svg PUBLIC "-//W3C//DTD SVG 1.1//EN"
 "http://www.w3.org/Graphics/SVG/1.1/DTD/svg11.dtd">
<!-- Generated by graphviz version 2.50.0 (20211204.2007)
 -->
<!-- Pages: 1 -->
<svg width="924pt" height="896pt"
 viewBox="0.00 0.00 924.00 896.00" xmlns="http://www.w3.org/2000/svg" xmlns:xlink="http://www.w3.org/1999/xlink">
<g id="graph0" class="graph" transform="scale(1 1) rotate(0) translate(4 892)">
<polygon fill="white" stroke="transparent" points="-4,4 -4,-892 920,-892 920,4 -4,4"/>
<!-- 1 -->
<g id="node1" class="node">
<title>1</title>
<text text-anchor="start" x="306" y="-869.8" font-family="Arial" font-weight="bold" font-size="14.00"> </text>
<path fill="#ebebeb" stroke="transparent" d="M266,-797C266,-797 350,-797 350,-797 356,-797 362,-803 362,-809 362,-809 362,-849 362,-849 362,-855 356,-861 350,-861 350,-861 266,-861 266,-861 260,-861 254,-855 254,-849 254,-849 254,-809 254,-809 254,-803 260,-797 266,-797"/>
<text text-anchor="start" x="255" y="-858.4" font-family="Arial" font-size="2.00"> </text>
<text text-anchor="start" x="255" y="-852.4" font-family="Arial" font-size="7.00"> &#160;1</text>
<text text-anchor="start" x="269" y="-835.8" font-family="Arial" font-weight="bold" font-size="14.00">Mean: 33.17</text>
<text text-anchor="start" x="284.5" y="-818.8" font-family="Arial" font-weight="bold" font-size="14.00">n = 168</text>
<text text-anchor="start" x="306.5" y="-800.8" font-family="Arial" font-size="9.00"> </text>
<path fill="none" stroke="#333333" d="M266,-797C266,-797 350,-797 350,-797 356,-797 362,-803 362,-809 362,-809 362,-849 362,-849 362,-855 356,-861 350,-861 350,-861 266,-861 266,-861 260,-861 254,-855 254,-849 254,-849 254,-809 254,-809 254,-803 260,-797 266,-797"/>
<text text-anchor="start" x="293.5" y="-782.8" font-family="Arial" font-weight="bold" font-size="14.00">time</text>
</g>
<!-- 2 -->
<g id="node2" class="node">
<title>2</title>
<text text-anchor="start" x="199.5" y="-715.8" font-family="Arial" font-weight="bold" font-size="14.00"> &lt; 6.5</text>
<text text-anchor="start" x="145" y="-671.3" font-family="Arial" font-size="14.00"> &#160;&#160;&#160;</text>
<path fill="#ebebeb" stroke="transparent" d="M175,-643C175,-643 259,-643 259,-643 265,-643 271,-649 271,-655 271,-655 271,-695 271,-695 271,-701 265,-707 259,-707 259,-707 175,-707 175,-707 169,-707 163,-701 163,-695 163,-695 163,-655 163,-655 163,-649 169,-643 175,-643"/>
<text text-anchor="start" x="164" y="-704.4" font-family="Arial" font-size="2.00"> </text>
<text text-anchor="start" x="164" y="-698.4" font-family="Arial" font-size="7.00"> &#160;2</text>
<text text-anchor="start" x="178" y="-681.8" font-family="Arial" font-weight="bold" font-size="14.00">Mean: 25.16</text>
<text text-anchor="start" x="197" y="-664.8" font-family="Arial" font-weight="bold" font-size="14.00">n = 49</text>
<text text-anchor="start" x="215.5" y="-646.8" font-family="Arial" font-size="9.00"> </text>
<path fill="none" stroke="#333333" d="M175,-643C175,-643 259,-643 259,-643 265,-643 271,-649 271,-655 271,-655 271,-695 271,-695 271,-701 265,-707 259,-707 259,-707 175,-707 175,-707 169,-707 163,-701 163,-695 163,-695 163,-655 163,-655 163,-649 169,-643 175,-643"/>
<text text-anchor="start" x="273" y="-671.3" font-family="Arial" font-size="14.00"> &#160;&#160;&#160;</text>
<text text-anchor="start" x="159.5" y="-628.8" font-family="Arial" font-weight="bold" font-size="14.00">prev_168h_inflow</text>
</g>
<!-- 1&#45;&gt;2 -->
<g id="edge1" class="edge">
<title>1&#45;&gt;2</title>
<path fill="none" stroke="#888888" d="M273.08,-769.67C267.85,-760.94 262.43,-751.88 257.11,-742.99"/>
<polygon fill="#888888" stroke="#888888" points="259.97,-740.96 251.83,-734.18 253.96,-744.55 259.97,-740.96"/>
</g>
<!-- 5 -->
<g id="node3" class="node">
<title>5</title>
<text text-anchor="start" x="382" y="-715.8" font-family="Arial" font-weight="bold" font-size="14.00"> ≥ 6.5</text>
<text text-anchor="start" x="327" y="-671.3" font-family="Arial" font-size="14.00"> &#160;&#160;&#160;</text>
<path fill="#ebebeb" stroke="transparent" d="M357,-643C357,-643 441,-643 441,-643 447,-643 453,-649 453,-655 453,-655 453,-695 453,-695 453,-701 447,-707 441,-707 441,-707 357,-707 357,-707 351,-707 345,-701 345,-695 345,-695 345,-655 345,-655 345,-649 351,-643 357,-643"/>
<text text-anchor="start" x="346" y="-704.4" font-family="Arial" font-size="2.00"> </text>
<text text-anchor="start" x="346" y="-698.4" font-family="Arial" font-size="7.00"> &#160;5</text>
<text text-anchor="start" x="360" y="-681.8" font-family="Arial" font-weight="bold" font-size="14.00">Mean: 36.48</text>
<text text-anchor="start" x="376" y="-664.8" font-family="Arial" font-weight="bold" font-size="14.00">n = 119</text>
<text text-anchor="start" x="397.5" y="-646.8" font-family="Arial" font-size="9.00"> </text>
<path fill="none" stroke="#333333" d="M357,-643C357,-643 441,-643 441,-643 447,-643 453,-649 453,-655 453,-655 453,-695 453,-695 453,-701 447,-707 441,-707 441,-707 357,-707 357,-707 351,-707 345,-701 345,-695 345,-695 345,-655 345,-655 345,-649 351,-643 357,-643"/>
<text text-anchor="start" x="455" y="-671.3" font-family="Arial" font-size="14.00"> &#160;&#160;&#160;</text>
<text text-anchor="start" x="341.5" y="-628.8" font-family="Arial" font-weight="bold" font-size="14.00">prev_168h_inflow</text>
</g>
<!-- 1&#45;&gt;5 -->
<g id="edge2" class="edge">
<title>1&#45;&gt;5</title>
<path fill="none" stroke="#888888" d="M342.92,-769.67C348.15,-760.94 353.57,-751.88 358.89,-742.99"/>
<polygon fill="#888888" stroke="#888888" points="362.04,-744.55 364.17,-734.18 356.03,-740.96 362.04,-744.55"/>
</g>
<!-- 3 -->
<g id="node4" class="node">
<title>3</title>
<text text-anchor="start" x="44" y="-561.8" font-family="Arial" font-weight="bold" font-size="14.00"> &lt; 28.15</text>
<path fill="#f8766d" fill-opacity="0.874510" stroke="transparent" d="M24,-489C24,-489 114,-489 114,-489 120,-489 126,-495 126,-501 126,-501 126,-541 126,-541 126,-547 120,-553 114,-553 114,-553 24,-553 24,-553 18,-553 12,-547 12,-541 12,-541 12,-501 12,-501 12,-495 18,-489 24,-489"/>
<text text-anchor="start" x="13" y="-550.4" font-family="Arial" font-size="2.00"> </text>
<text text-anchor="start" x="13" y="-544.4" font-family="Arial" font-size="7.00"> &#160;3</text>
<text text-anchor="start" x="27" y="-527.8" font-family="Arial" font-weight="bold" font-size="14.00">Predict 24.31</text>
<text text-anchor="start" x="49" y="-510.8" font-family="Arial" font-weight="bold" font-size="14.00">n = 44</text>
<text text-anchor="start" x="67.5" y="-492.8" font-family="Arial" font-size="9.00"> </text>
<path fill="none" stroke="#333333" d="M24,-489C24,-489 114,-489 114,-489 120,-489 126,-495 126,-501 126,-501 126,-541 126,-541 126,-547 120,-553 114,-553 114,-553 24,-553 24,-553 18,-553 12,-547 12,-541 12,-541 12,-501 12,-501 12,-495 18,-489 24,-489"/>
<text text-anchor="start" x="67" y="-474.8" font-family="Arial" font-weight="bold" font-size="14.00"> </text>
</g>
<!-- 2&#45;&gt;3 -->
<g id="edge3" class="edge">
<title>2&#45;&gt;3</title>
<path fill="none" stroke="#888888" d="M160.2,-615.67C151.26,-606.49 141.97,-596.94 132.88,-587.6"/>
<polygon fill="#888888" stroke="#888888" points="135.13,-584.9 125.65,-580.18 130.11,-589.78 135.13,-584.9"/>
</g>
<!-- 4 -->
<g id="node5" class="node">
<title>4</title>
<text text-anchor="start" x="200.5" y="-561.8" font-family="Arial" font-weight="bold" font-size="14.00"> ≥ 28.15</text>
<path fill="#f8766d" fill-opacity="0.662745" stroke="transparent" d="M180,-489C180,-489 270,-489 270,-489 276,-489 282,-495 282,-501 282,-501 282,-541 282,-541 282,-547 276,-553 270,-553 270,-553 180,-553 180,-553 174,-553 168,-547 168,-541 168,-541 168,-501 168,-501 168,-495 174,-489 180,-489"/>
<text text-anchor="start" x="169" y="-550.4" font-family="Arial" font-size="2.00"> </text>
<text text-anchor="start" x="169" y="-544.4" font-family="Arial" font-size="7.00"> &#160;4</text>
<text text-anchor="start" x="183" y="-527.8" font-family="Arial" font-weight="bold" font-size="14.00">Predict 32.59</text>
<text text-anchor="start" x="209" y="-510.8" font-family="Arial" font-weight="bold" font-size="14.00">n = 5</text>
<text text-anchor="start" x="223.5" y="-492.8" font-family="Arial" font-size="9.00"> </text>
<path fill="none" stroke="#333333" d="M180,-489C180,-489 270,-489 270,-489 276,-489 282,-495 282,-501 282,-501 282,-541 282,-541 282,-547 276,-553 270,-553 270,-553 180,-553 180,-553 174,-553 168,-547 168,-541 168,-541 168,-501 168,-501 168,-495 174,-489 180,-489"/>
<text text-anchor="start" x="223" y="-474.8" font-family="Arial" font-weight="bold" font-size="14.00"> </text>
</g>
<!-- 2&#45;&gt;4 -->
<g id="edge4" class="edge">
<title>2&#45;&gt;4</title>
<path fill="none" stroke="#888888" d="M220.07,-615.67C220.51,-607.39 220.96,-598.83 221.4,-590.38"/>
<polygon fill="#888888" stroke="#888888" points="224.91,-590.35 221.94,-580.18 217.92,-589.98 224.91,-590.35"/>
</g>
<!-- 6 -->
<g id="node6" class="node">
<title>6</title>
<text text-anchor="start" x="367" y="-561.8" font-family="Arial" font-weight="bold" font-size="14.00"> &lt; 32.95</text>
<path fill="#ebebeb" stroke="transparent" d="M350,-489C350,-489 434,-489 434,-489 440,-489 446,-495 446,-501 446,-501 446,-541 446,-541 446,-547 440,-553 434,-553 434,-553 350,-553 350,-553 344,-553 338,-547 338,-541 338,-541 338,-501 338,-501 338,-495 344,-489 350,-489"/>
<text text-anchor="start" x="339" y="-550.4" font-family="Arial" font-size="2.00"> </text>
<text text-anchor="start" x="339" y="-544.4" font-family="Arial" font-size="7.00"> &#160;6</text>
<text text-anchor="start" x="353" y="-527.8" font-family="Arial" font-weight="bold" font-size="14.00">Mean: 32.04</text>
<text text-anchor="start" x="372" y="-510.8" font-family="Arial" font-weight="bold" font-size="14.00">n = 35</text>
<text text-anchor="start" x="390.5" y="-492.8" font-family="Arial" font-size="9.00"> </text>
<path fill="none" stroke="#333333" d="M350,-489C350,-489 434,-489 434,-489 440,-489 446,-495 446,-501 446,-501 446,-541 446,-541 446,-547 440,-553 434,-553 434,-553 350,-553 350,-553 344,-553 338,-547 338,-541 338,-541 338,-501 338,-501 338,-495 344,-489 350,-489"/>
<text text-anchor="start" x="377.5" y="-474.8" font-family="Arial" font-weight="bold" font-size="14.00">time</text>
</g>
<!-- 5&#45;&gt;6 -->
<g id="edge5" class="edge">
<title>5&#45;&gt;6</title>
<path fill="none" stroke="#888888" d="M396.31,-615.67C395.93,-607.39 395.54,-598.83 395.15,-590.38"/>
<polygon fill="#888888" stroke="#888888" points="398.64,-590 394.68,-580.18 391.64,-590.33 398.64,-590"/>
</g>
<!-- 9 -->
<g id="node7" class="node">
<title>9</title>
<text text-anchor="start" x="520.5" y="-561.8" font-family="Arial" font-weight="bold" font-size="14.00"> ≥ 32.95</text>
<path fill="#ebebeb" stroke="transparent" d="M503,-489C503,-489 587,-489 587,-489 593,-489 599,-495 599,-501 599,-501 599,-541 599,-541 599,-547 593,-553 587,-553 587,-553 503,-553 503,-553 497,-553 491,-547 491,-541 491,-541 491,-501 491,-501 491,-495 497,-489 503,-489"/>
<text text-anchor="start" x="492" y="-550.4" font-family="Arial" font-size="2.00"> </text>
<text text-anchor="start" x="492" y="-544.4" font-family="Arial" font-size="7.00"> &#160;9</text>
<text text-anchor="start" x="506" y="-527.8" font-family="Arial" font-weight="bold" font-size="14.00">Mean: 38.32</text>
<text text-anchor="start" x="525" y="-510.8" font-family="Arial" font-weight="bold" font-size="14.00">n = 84</text>
<text text-anchor="start" x="543.5" y="-492.8" font-family="Arial" font-size="9.00"> </text>
<path fill="none" stroke="#333333" d="M503,-489C503,-489 587,-489 587,-489 593,-489 599,-495 599,-501 599,-501 599,-541 599,-541 599,-547 593,-553 587,-553 587,-553 503,-553 503,-553 497,-553 491,-547 491,-541 491,-541 491,-501 491,-501 491,-495 497,-489 503,-489"/>
<text text-anchor="start" x="515.5" y="-474.8" font-family="Arial" font-weight="bold" font-size="14.00">day_type</text>
</g>
<!-- 5&#45;&gt;9 -->
<g id="edge6" class="edge">
<title>5&#45;&gt;9</title>
<path fill="none" stroke="#888888" d="M455.03,-615.67C463.85,-606.49 473.02,-596.94 481.98,-587.6"/>
<polygon fill="#888888" stroke="#888888" points="484.72,-589.81 489.12,-580.18 479.67,-584.96 484.72,-589.81"/>
</g>
<!-- 7 -->
<g id="node8" class="node">
<title>7</title>
<text text-anchor="start" x="218.5" y="-407.8" font-family="Arial" font-weight="bold" font-size="14.00"> &lt; 22.5</text>
<path fill="#f8766d" fill-opacity="0.647059" stroke="transparent" d="M199,-335C199,-335 281,-335 281,-335 287,-335 293,-341 293,-347 293,-347 293,-387 293,-387 293,-393 287,-399 281,-399 281,-399 199,-399 199,-399 193,-399 187,-393 187,-387 187,-387 187,-347 187,-347 187,-341 193,-335 199,-335"/>
<text text-anchor="start" x="188" y="-396.4" font-family="Arial" font-size="2.00"> </text>
<text text-anchor="start" x="188" y="-390.4" font-family="Arial" font-size="7.00"> &#160;7</text>
<text text-anchor="start" x="202" y="-373.8" font-family="Arial" font-weight="bold" font-size="14.00">Predict 33.1</text>
<text text-anchor="start" x="220" y="-356.8" font-family="Arial" font-weight="bold" font-size="14.00">n = 28</text>
<text text-anchor="start" x="238.5" y="-338.8" font-family="Arial" font-size="9.00"> </text>
<path fill="none" stroke="#333333" d="M199,-335C199,-335 281,-335 281,-335 287,-335 293,-341 293,-347 293,-347 293,-387 293,-387 293,-393 287,-399 281,-399 281,-399 199,-399 199,-399 193,-399 187,-393 187,-387 187,-387 187,-347 187,-347 187,-341 193,-335 199,-335"/>
<text text-anchor="start" x="238" y="-320.8" font-family="Arial" font-weight="bold" font-size="14.00"> </text>
</g>
<!-- 6&#45;&gt;7 -->
<g id="edge7" class="edge">
<title>6&#45;&gt;7</title>
<path fill="none" stroke="#888888" d="M333.67,-461.67C324.39,-452.39 314.75,-442.75 305.33,-433.33"/>
<polygon fill="#888888" stroke="#888888" points="307.72,-430.77 298.18,-426.18 302.77,-435.72 307.72,-430.77"/>
</g>
<!-- 8 -->
<g id="node9" class="node">
<title>8</title>
<text text-anchor="start" x="371" y="-407.8" font-family="Arial" font-weight="bold" font-size="14.00"> ≥ 22.5</text>
<path fill="#f8766d" fill-opacity="0.784314" stroke="transparent" d="M347,-335C347,-335 437,-335 437,-335 443,-335 449,-341 449,-347 449,-347 449,-387 449,-387 449,-393 443,-399 437,-399 437,-399 347,-399 347,-399 341,-399 335,-393 335,-387 335,-387 335,-347 335,-347 335,-341 341,-335 347,-335"/>
<text text-anchor="start" x="336" y="-396.4" font-family="Arial" font-size="2.00"> </text>
<text text-anchor="start" x="336" y="-390.4" font-family="Arial" font-size="7.00"> &#160;8</text>
<text text-anchor="start" x="350" y="-373.8" font-family="Arial" font-weight="bold" font-size="14.00">Predict 27.82</text>
<text text-anchor="start" x="376" y="-356.8" font-family="Arial" font-weight="bold" font-size="14.00">n = 7</text>
<text text-anchor="start" x="390.5" y="-338.8" font-family="Arial" font-size="9.00"> </text>
<path fill="none" stroke="#333333" d="M347,-335C347,-335 437,-335 437,-335 443,-335 449,-341 449,-347 449,-347 449,-387 449,-387 449,-393 443,-399 437,-399 437,-399 347,-399 347,-399 341,-399 335,-393 335,-387 335,-387 335,-347 335,-347 335,-341 341,-335 347,-335"/>
<text text-anchor="start" x="390" y="-320.8" font-family="Arial" font-weight="bold" font-size="14.00"> </text>
</g>
<!-- 6&#45;&gt;8 -->
<g id="edge8" class="edge">
<title>6&#45;&gt;8</title>
<path fill="none" stroke="#888888" d="M392,-461.67C392,-453.39 392,-444.83 392,-436.38"/>
<polygon fill="#888888" stroke="#888888" points="395.5,-436.18 392,-426.18 388.5,-436.18 395.5,-436.18"/>
</g>
<!-- 10 -->
<g id="node10" class="node">
<title>10</title>
<text text-anchor="start" x="527.5" y="-407.8" font-family="Arial" font-weight="bold" font-size="14.00"> &lt; 0.5</text>
<path fill="#ebebeb" stroke="transparent" d="M503,-335C503,-335 587,-335 587,-335 593,-335 599,-341 599,-347 599,-347 599,-387 599,-387 599,-393 593,-399 587,-399 587,-399 503,-399 503,-399 497,-399 491,-393 491,-387 491,-387 491,-347 491,-347 491,-341 497,-335 503,-335"/>
<text text-anchor="start" x="492" y="-396.4" font-family="Arial" font-size="2.00"> </text>
<text text-anchor="start" x="492" y="-390.4" font-family="Arial" font-size="7.00"> &#160;10</text>
<text text-anchor="start" x="506" y="-373.8" font-family="Arial" font-weight="bold" font-size="14.00">Mean: 39.72</text>
<text text-anchor="start" x="525" y="-356.8" font-family="Arial" font-weight="bold" font-size="14.00">n = 23</text>
<text text-anchor="start" x="543.5" y="-338.8" font-family="Arial" font-size="9.00"> </text>
<path fill="none" stroke="#333333" d="M503,-335C503,-335 587,-335 587,-335 593,-335 599,-341 599,-347 599,-347 599,-387 599,-387 599,-393 593,-399 587,-399 587,-399 503,-399 503,-399 497,-399 491,-393 491,-387 491,-387 491,-347 491,-347 491,-341 497,-335 503,-335"/>
<text text-anchor="start" x="530.5" y="-320.8" font-family="Arial" font-weight="bold" font-size="14.00">time</text>
</g>
<!-- 9&#45;&gt;10 -->
<g id="edge9" class="edge">
<title>9&#45;&gt;10</title>
<path fill="none" stroke="#888888" d="M545,-461.67C545,-453.39 545,-444.83 545,-436.38"/>
<polygon fill="#888888" stroke="#888888" points="548.5,-436.18 545,-426.18 541.5,-436.18 548.5,-436.18"/>
</g>
<!-- 13 -->
<g id="node11" class="node">
<title>13</title>
<text text-anchor="start" x="677" y="-407.8" font-family="Arial" font-weight="bold" font-size="14.00"> ≥ 0.5</text>
<path fill="#ebebeb" stroke="transparent" d="M656,-335C656,-335 732,-335 732,-335 738,-335 744,-341 744,-347 744,-347 744,-387 744,-387 744,-393 738,-399 732,-399 732,-399 656,-399 656,-399 650,-399 644,-393 644,-387 644,-387 644,-347 644,-347 644,-341 650,-335 656,-335"/>
<text text-anchor="start" x="645" y="-396.4" font-family="Arial" font-size="2.00"> </text>
<text text-anchor="start" x="645" y="-390.4" font-family="Arial" font-size="7.00"> &#160;13</text>
<text text-anchor="start" x="659" y="-373.8" font-family="Arial" font-weight="bold" font-size="14.00">Mean: 37.8</text>
<text text-anchor="start" x="674" y="-356.8" font-family="Arial" font-weight="bold" font-size="14.00">n = 61</text>
<text text-anchor="start" x="692.5" y="-338.8" font-family="Arial" font-size="9.00"> </text>
<path fill="none" stroke="#333333" d="M656,-335C656,-335 732,-335 732,-335 738,-335 744,-341 744,-347 744,-347 744,-387 744,-387 744,-393 738,-399 732,-399 732,-399 656,-399 656,-399 650,-399 644,-393 644,-387 644,-387 644,-347 644,-347 644,-341 650,-335 656,-335"/>
<text text-anchor="start" x="679.5" y="-320.8" font-family="Arial" font-weight="bold" font-size="14.00">time</text>
</g>
<!-- 9&#45;&gt;13 -->
<g id="edge10" class="edge">
<title>9&#45;&gt;13</title>
<path fill="none" stroke="#888888" d="M602.18,-461.67C611.27,-452.39 620.73,-442.75 629.96,-433.33"/>
<polygon fill="#888888" stroke="#888888" points="632.47,-435.77 636.97,-426.18 627.47,-430.87 632.47,-435.77"/>
</g>
<!-- 11 -->
<g id="node12" class="node">
<title>11</title>
<text text-anchor="start" x="371.5" y="-253.8" font-family="Arial" font-weight="bold" font-size="14.00"> &lt; 12.5</text>
<path fill="#f8766d" fill-opacity="0.376471" stroke="transparent" d="M348,-181C348,-181 438,-181 438,-181 444,-181 450,-187 450,-193 450,-193 450,-233 450,-233 450,-239 444,-245 438,-245 438,-245 348,-245 348,-245 342,-245 336,-239 336,-233 336,-233 336,-193 336,-193 336,-187 342,-181 348,-181"/>
<text text-anchor="start" x="337" y="-242.4" font-family="Arial" font-size="2.00"> </text>
<text text-anchor="start" x="337" y="-236.4" font-family="Arial" font-size="7.00"> &#160;11</text>
<text text-anchor="start" x="351" y="-219.8" font-family="Arial" font-weight="bold" font-size="14.00">Predict 43.64</text>
<text text-anchor="start" x="373" y="-202.8" font-family="Arial" font-weight="bold" font-size="14.00">n = 10</text>
<text text-anchor="start" x="391.5" y="-184.8" font-family="Arial" font-size="9.00"> </text>
<path fill="none" stroke="#333333" d="M348,-181C348,-181 438,-181 438,-181 444,-181 450,-187 450,-193 450,-193 450,-233 450,-233 450,-239 444,-245 438,-245 438,-245 348,-245 348,-245 342,-245 336,-239 336,-233 336,-233 336,-193 336,-193 336,-187 342,-181 348,-181"/>
<text text-anchor="start" x="391" y="-166.8" font-family="Arial" font-weight="bold" font-size="14.00"> </text>
</g>
<!-- 10&#45;&gt;11 -->
<g id="edge11" class="edge">
<title>10&#45;&gt;11</title>
<path fill="none" stroke="#888888" d="M486.67,-307.67C477.39,-298.39 467.75,-288.75 458.33,-279.33"/>
<polygon fill="#888888" stroke="#888888" points="460.72,-276.77 451.18,-272.18 455.77,-281.72 460.72,-276.77"/>
</g>
<!-- 12 -->
<g id="node13" class="node">
<title>12</title>
<text text-anchor="start" x="524" y="-253.8" font-family="Arial" font-weight="bold" font-size="14.00"> ≥ 12.5</text>
<path fill="#f8766d" fill-opacity="0.552941" stroke="transparent" d="M504,-181C504,-181 586,-181 586,-181 592,-181 598,-187 598,-193 598,-193 598,-233 598,-233 598,-239 592,-245 586,-245 586,-245 504,-245 504,-245 498,-245 492,-239 492,-233 492,-233 492,-193 492,-193 492,-187 498,-181 504,-181"/>
<text text-anchor="start" x="493" y="-242.4" font-family="Arial" font-size="2.00"> </text>
<text text-anchor="start" x="493" y="-236.4" font-family="Arial" font-size="7.00"> &#160;12</text>
<text text-anchor="start" x="507" y="-219.8" font-family="Arial" font-weight="bold" font-size="14.00">Predict 36.7</text>
<text text-anchor="start" x="525" y="-202.8" font-family="Arial" font-weight="bold" font-size="14.00">n = 13</text>
<text text-anchor="start" x="543.5" y="-184.8" font-family="Arial" font-size="9.00"> </text>
<path fill="none" stroke="#333333" d="M504,-181C504,-181 586,-181 586,-181 592,-181 598,-187 598,-193 598,-193 598,-233 598,-233 598,-239 592,-245 586,-245 586,-245 504,-245 504,-245 498,-245 492,-239 492,-233 492,-233 492,-193 492,-193 492,-187 498,-181 504,-181"/>
<text text-anchor="start" x="543" y="-166.8" font-family="Arial" font-weight="bold" font-size="14.00"> </text>
</g>
<!-- 10&#45;&gt;12 -->
<g id="edge12" class="edge">
<title>10&#45;&gt;12</title>
<path fill="none" stroke="#888888" d="M545,-307.67C545,-299.39 545,-290.83 545,-282.38"/>
<polygon fill="#888888" stroke="#888888" points="548.5,-282.18 545,-272.18 541.5,-282.18 548.5,-282.18"/>
</g>
<!-- 14 -->
<g id="node14" class="node">
<title>14</title>
<text text-anchor="start" x="672.5" y="-253.8" font-family="Arial" font-weight="bold" font-size="14.00"> &lt; 18.5</text>
<path fill="#ebebeb" stroke="transparent" d="M652,-181C652,-181 736,-181 736,-181 742,-181 748,-187 748,-193 748,-193 748,-233 748,-233 748,-239 742,-245 736,-245 736,-245 652,-245 652,-245 646,-245 640,-239 640,-233 640,-233 640,-193 640,-193 640,-187 646,-181 652,-181"/>
<text text-anchor="start" x="641" y="-242.4" font-family="Arial" font-size="2.00"> </text>
<text text-anchor="start" x="641" y="-236.4" font-family="Arial" font-size="7.00"> &#160;14</text>
<text text-anchor="start" x="655" y="-219.8" font-family="Arial" font-weight="bold" font-size="14.00">Mean: 37.35</text>
<text text-anchor="start" x="674" y="-202.8" font-family="Arial" font-weight="bold" font-size="14.00">n = 48</text>
<text text-anchor="start" x="692.5" y="-184.8" font-family="Arial" font-size="9.00"> </text>
<path fill="none" stroke="#333333" d="M652,-181C652,-181 736,-181 736,-181 742,-181 748,-187 748,-193 748,-193 748,-233 748,-233 748,-239 742,-245 736,-245 736,-245 652,-245 652,-245 646,-245 640,-239 640,-233 640,-233 640,-193 640,-193 640,-187 646,-181 652,-181"/>
<text text-anchor="start" x="679.5" y="-166.8" font-family="Arial" font-weight="bold" font-size="14.00">time</text>
</g>
<!-- 13&#45;&gt;14 -->
<g id="edge13" class="edge">
<title>13&#45;&gt;14</title>
<path fill="none" stroke="#888888" d="M694,-307.67C694,-299.39 694,-290.83 694,-282.38"/>
<polygon fill="#888888" stroke="#888888" points="697.5,-282.18 694,-272.18 690.5,-282.18 697.5,-282.18"/>
</g>
<!-- 17 -->
<g id="node15" class="node">
<title>17</title>
<text text-anchor="start" x="826" y="-253.8" font-family="Arial" font-weight="bold" font-size="14.00"> ≥ 18.5</text>
<path fill="#f8766d" fill-opacity="0.482353" stroke="transparent" d="M802,-181C802,-181 892,-181 892,-181 898,-181 904,-187 904,-193 904,-193 904,-233 904,-233 904,-239 898,-245 892,-245 892,-245 802,-245 802,-245 796,-245 790,-239 790,-233 790,-233 790,-193 790,-193 790,-187 796,-181 802,-181"/>
<text text-anchor="start" x="791" y="-242.4" font-family="Arial" font-size="2.00"> </text>
<text text-anchor="start" x="791" y="-236.4" font-family="Arial" font-size="7.00"> &#160;17</text>
<text text-anchor="start" x="805" y="-219.8" font-family="Arial" font-weight="bold" font-size="14.00">Predict 39.43</text>
<text text-anchor="start" x="827" y="-202.8" font-family="Arial" font-weight="bold" font-size="14.00">n = 13</text>
<text text-anchor="start" x="845.5" y="-184.8" font-family="Arial" font-size="9.00"> </text>
<path fill="none" stroke="#333333" d="M802,-181C802,-181 892,-181 892,-181 898,-181 904,-187 904,-193 904,-193 904,-233 904,-233 904,-239 898,-245 892,-245 892,-245 802,-245 802,-245 796,-245 790,-239 790,-233 790,-233 790,-193 790,-193 790,-187 796,-181 802,-181"/>
<text text-anchor="start" x="845" y="-166.8" font-family="Arial" font-weight="bold" font-size="14.00"> </text>
</g>
<!-- 13&#45;&gt;17 -->
<g id="edge14" class="edge">
<title>13&#45;&gt;17</title>
<path fill="none" stroke="#888888" d="M752.72,-307.67C762.05,-298.39 771.76,-288.75 781.24,-279.33"/>
<polygon fill="#888888" stroke="#888888" points="783.81,-281.71 788.44,-272.18 778.88,-276.74 783.81,-281.71"/>
</g>
<!-- 15 -->
<g id="node16" class="node">
<title>15</title>
<text text-anchor="start" x="599" y="-99.8" font-family="Arial" font-weight="bold" font-size="14.00"> &lt; 11.5</text>
<path fill="#f8766d" fill-opacity="0.482353" stroke="transparent" d="M579,-27C579,-27 661,-27 661,-27 667,-27 673,-33 673,-39 673,-39 673,-79 673,-79 673,-85 667,-91 661,-91 661,-91 579,-91 579,-91 573,-91 567,-85 567,-79 567,-79 567,-39 567,-39 567,-33 573,-27 579,-27"/>
<text text-anchor="start" x="568" y="-88.4" font-family="Arial" font-size="2.00"> </text>
<text text-anchor="start" x="568" y="-82.4" font-family="Arial" font-size="7.00"> &#160;15</text>
<text text-anchor="start" x="582" y="-65.8" font-family="Arial" font-weight="bold" font-size="14.00">Predict 39.5</text>
<text text-anchor="start" x="600" y="-48.8" font-family="Arial" font-weight="bold" font-size="14.00">n = 24</text>
<text text-anchor="start" x="618.5" y="-30.8" font-family="Arial" font-size="9.00"> </text>
<path fill="none" stroke="#333333" d="M579,-27C579,-27 661,-27 661,-27 667,-27 673,-33 673,-39 673,-39 673,-79 673,-79 673,-85 667,-91 661,-91 661,-91 579,-91 579,-91 573,-91 567,-85 567,-79 567,-79 567,-39 567,-39 567,-33 573,-27 579,-27"/>
<text text-anchor="start" x="618" y="-12.8" font-family="Arial" font-weight="bold" font-size="14.00"> </text>
</g>
<!-- 14&#45;&gt;15 -->
<g id="edge15" class="edge">
<title>14&#45;&gt;15</title>
<path fill="none" stroke="#888888" d="M665.6,-153.67C661.4,-145.03 657.03,-136.07 652.75,-127.27"/>
<polygon fill="#888888" stroke="#888888" points="655.85,-125.64 648.32,-118.18 649.55,-128.7 655.85,-125.64"/>
</g>
<!-- 16 -->
<g id="node17" class="node">
<title>16</title>
<text text-anchor="start" x="747.5" y="-99.8" font-family="Arial" font-weight="bold" font-size="14.00"> ≥ 11.5</text>
<path fill="#f8766d" fill-opacity="0.592157" stroke="transparent" d="M727,-27C727,-27 809,-27 809,-27 815,-27 821,-33 821,-39 821,-39 821,-79 821,-79 821,-85 815,-91 809,-91 809,-91 727,-91 727,-91 721,-91 715,-85 715,-79 715,-79 715,-39 715,-39 715,-33 721,-27 727,-27"/>
<text text-anchor="start" x="716" y="-88.4" font-family="Arial" font-size="2.00"> </text>
<text text-anchor="start" x="716" y="-82.4" font-family="Arial" font-size="7.00"> &#160;16</text>
<text text-anchor="start" x="730" y="-65.8" font-family="Arial" font-weight="bold" font-size="14.00">Predict 35.2</text>
<text text-anchor="start" x="748" y="-48.8" font-family="Arial" font-weight="bold" font-size="14.00">n = 24</text>
<text text-anchor="start" x="766.5" y="-30.8" font-family="Arial" font-size="9.00"> </text>
<path fill="none" stroke="#333333" d="M727,-27C727,-27 809,-27 809,-27 815,-27 821,-33 821,-39 821,-39 821,-79 821,-79 821,-85 815,-91 809,-91 809,-91 727,-91 727,-91 721,-91 715,-85 715,-79 715,-79 715,-39 715,-39 715,-33 721,-27 727,-27"/>
<text text-anchor="start" x="766" y="-12.8" font-family="Arial" font-weight="bold" font-size="14.00"> </text>
</g>
<!-- 14&#45;&gt;16 -->
<g id="edge16" class="edge">
<title>14&#45;&gt;16</title>
<path fill="none" stroke="#888888" d="M722.4,-153.67C726.6,-145.03 730.97,-136.07 735.25,-127.27"/>
<polygon fill="#888888" stroke="#888888" points="738.45,-128.7 739.68,-118.18 732.15,-125.64 738.45,-128.7"/>
</g>
</g>
</svg>
