<?xml version="1.0" encoding="UTF-8" standalone="no"?>
<!DOCTYPE svg PUBLIC "-//W3C//DTD SVG 1.1//EN"
 "http://www.w3.org/Graphics/SVG/1.1/DTD/svg11.dtd">
<!-- Generated by graphviz version 2.50.0 (20211204.2007)
 -->
<!-- Pages: 1 -->
<svg width="1408pt" height="742pt"
 viewBox="0.00 0.00 1408.00 742.00" xmlns="http://www.w3.org/2000/svg" xmlns:xlink="http://www.w3.org/1999/xlink">
<g id="graph0" class="graph" transform="scale(1 1) rotate(0) translate(4 738)">
<polygon fill="white" stroke="transparent" points="-4,4 -4,-738 1404,-738 1404,4 -4,4"/>
<!-- 1 -->
<g id="node1" class="node">
<title>1</title>
<text text-anchor="start" x="604" y="-715.8" font-family="Arial" font-weight="bold" font-size="14.00"> </text>
<text text-anchor="start" x="534" y="-671.3" font-family="Arial" font-size="14.00"> &#160;&#160;&#160;</text>
<path fill="#ebebeb" stroke="transparent" d="M564,-643C564,-643 648,-643 648,-643 654,-643 660,-649 660,-655 660,-655 660,-695 660,-695 660,-701 654,-707 648,-707 648,-707 564,-707 564,-707 558,-707 552,-701 552,-695 552,-695 552,-655 552,-655 552,-649 558,-643 564,-643"/>
<text text-anchor="start" x="553" y="-704.4" font-family="Arial" font-size="2.00"> </text>
<text text-anchor="start" x="553" y="-698.4" font-family="Arial" font-size="7.00"> &#160;1</text>
<text text-anchor="start" x="567" y="-681.8" font-family="Arial" font-weight="bold" font-size="14.00">Mean: 9.084</text>
<text text-anchor="start" x="582.5" y="-664.8" font-family="Arial" font-weight="bold" font-size="14.00">n = 168</text>
<text text-anchor="start" x="604.5" y="-646.8" font-family="Arial" font-size="9.00"> </text>
<path fill="none" stroke="#333333" d="M564,-643C564,-643 648,-643 648,-643 654,-643 660,-649 660,-655 660,-655 660,-695 660,-695 660,-701 654,-707 648,-707 648,-707 564,-707 564,-707 558,-707 552,-701 552,-695 552,-695 552,-655 552,-655 552,-649 558,-643 564,-643"/>
<text text-anchor="start" x="662" y="-671.3" font-family="Arial" font-size="14.00"> &#160;&#160;&#160;</text>
<text text-anchor="start" x="548.5" y="-628.8" font-family="Arial" font-weight="bold" font-size="14.00">prev_168h_inflow</text>
</g>
<!-- 2 -->
<g id="node2" class="node">
<title>2</title>
<text text-anchor="start" x="427" y="-561.8" font-family="Arial" font-weight="bold" font-size="14.00"> &lt; 9.225</text>
<text text-anchor="start" x="380" y="-517.3" font-family="Arial" font-size="14.00"> &#160;&#160;&#160;</text>
<path fill="#ebebeb" stroke="transparent" d="M410,-489C410,-489 494,-489 494,-489 500,-489 506,-495 506,-501 506,-501 506,-541 506,-541 506,-547 500,-553 494,-553 494,-553 410,-553 410,-553 404,-553 398,-547 398,-541 398,-541 398,-501 398,-501 398,-495 404,-489 410,-489"/>
<text text-anchor="start" x="399" y="-550.4" font-family="Arial" font-size="2.00"> </text>
<text text-anchor="start" x="399" y="-544.4" font-family="Arial" font-size="7.00"> &#160;2</text>
<text text-anchor="start" x="413" y="-527.8" font-family="Arial" font-weight="bold" font-size="14.00">Mean: 8.259</text>
<text text-anchor="start" x="432" y="-510.8" font-family="Arial" font-weight="bold" font-size="14.00">n = 76</text>
<text text-anchor="start" x="450.5" y="-492.8" font-family="Arial" font-size="9.00"> </text>
<path fill="none" stroke="#333333" d="M410,-489C410,-489 494,-489 494,-489 500,-489 506,-495 506,-501 506,-501 506,-541 506,-541 506,-547 500,-553 494,-553 494,-553 410,-553 410,-553 404,-553 398,-547 398,-541 398,-541 398,-501 398,-501 398,-495 404,-489 410,-489"/>
<text text-anchor="start" x="508" y="-517.3" font-family="Arial" font-size="14.00"> &#160;&#160;&#160;</text>
<text text-anchor="start" x="394.5" y="-474.8" font-family="Arial" font-weight="bold" font-size="14.00">prev_168h_inflow</text>
</g>
<!-- 1&#45;&gt;2 -->
<g id="edge1" class="edge">
<title>1&#45;&gt;2</title>
<path fill="none" stroke="#888888" d="M546.9,-615.67C537.5,-606.39 527.73,-596.75 518.19,-587.33"/>
<polygon fill="#888888" stroke="#888888" points="520.52,-584.71 510.94,-580.18 515.6,-589.69 520.52,-584.71"/>
</g>
<!-- 9 -->
<g id="node3" class="node">
<title>9</title>
<text text-anchor="start" x="741.5" y="-561.8" font-family="Arial" font-weight="bold" font-size="14.00"> ≥ 9.225</text>
<path fill="#ebebeb" stroke="transparent" d="M724,-489C724,-489 808,-489 808,-489 814,-489 820,-495 820,-501 820,-501 820,-541 820,-541 820,-547 814,-553 808,-553 808,-553 724,-553 724,-553 718,-553 712,-547 712,-541 712,-541 712,-501 712,-501 712,-495 718,-489 724,-489"/>
<text text-anchor="start" x="713" y="-550.4" font-family="Arial" font-size="2.00"> </text>
<text text-anchor="start" x="713" y="-544.4" font-family="Arial" font-size="7.00"> &#160;9</text>
<text text-anchor="start" x="727" y="-527.8" font-family="Arial" font-weight="bold" font-size="14.00">Mean: 9.766</text>
<text text-anchor="start" x="746" y="-510.8" font-family="Arial" font-weight="bold" font-size="14.00">n = 92</text>
<text text-anchor="start" x="764.5" y="-492.8" font-family="Arial" font-size="9.00"> </text>
<path fill="none" stroke="#333333" d="M724,-489C724,-489 808,-489 808,-489 814,-489 820,-495 820,-501 820,-501 820,-541 820,-541 820,-547 814,-553 808,-553 808,-553 724,-553 724,-553 718,-553 712,-547 712,-541 712,-541 712,-501 712,-501 712,-495 718,-489 724,-489"/>
<text text-anchor="start" x="736.5" y="-474.8" font-family="Arial" font-weight="bold" font-size="14.00">day_type</text>
</g>
<!-- 1&#45;&gt;9 -->
<g id="edge2" class="edge">
<title>1&#45;&gt;9</title>
<path fill="none" stroke="#888888" d="M667.4,-615.67C677.16,-606.39 687.32,-596.75 697.23,-587.33"/>
<polygon fill="#888888" stroke="#888888" points="699.92,-589.6 704.76,-580.18 695.1,-584.53 699.92,-589.6"/>
</g>
<!-- 3 -->
<g id="node4" class="node">
<title>3</title>
<text text-anchor="start" x="203.5" y="-407.8" font-family="Arial" font-weight="bold" font-size="14.00"> &lt; 8.62</text>
<path fill="#ebebeb" stroke="transparent" d="M183,-335C183,-335 267,-335 267,-335 273,-335 279,-341 279,-347 279,-347 279,-387 279,-387 279,-393 273,-399 267,-399 267,-399 183,-399 183,-399 177,-399 171,-393 171,-387 171,-387 171,-347 171,-347 171,-341 177,-335 183,-335"/>
<text text-anchor="start" x="172" y="-396.4" font-family="Arial" font-size="2.00"> </text>
<text text-anchor="start" x="172" y="-390.4" font-family="Arial" font-size="7.00"> &#160;3</text>
<text text-anchor="start" x="186" y="-373.8" font-family="Arial" font-weight="bold" font-size="14.00">Mean: 7.891</text>
<text text-anchor="start" x="205" y="-356.8" font-family="Arial" font-weight="bold" font-size="14.00">n = 53</text>
<text text-anchor="start" x="223.5" y="-338.8" font-family="Arial" font-size="9.00"> </text>
<path fill="none" stroke="#333333" d="M183,-335C183,-335 267,-335 267,-335 273,-335 279,-341 279,-347 279,-347 279,-387 279,-387 279,-393 273,-399 267,-399 267,-399 183,-399 183,-399 177,-399 171,-393 171,-387 171,-387 171,-347 171,-347 171,-341 177,-335 183,-335"/>
<text text-anchor="start" x="210.5" y="-320.8" font-family="Arial" font-weight="bold" font-size="14.00">time</text>
</g>
<!-- 2&#45;&gt;3 -->
<g id="edge3" class="edge">
<title>2&#45;&gt;3</title>
<path fill="none" stroke="#888888" d="M369.73,-464.91C346.78,-449.54 321.98,-432.94 299.5,-417.89"/>
<polygon fill="#888888" stroke="#888888" points="301.26,-414.85 291.01,-412.2 297.37,-420.67 301.26,-414.85"/>
</g>
<!-- 6 -->
<g id="node5" class="node">
<title>6</title>
<text text-anchor="start" x="431" y="-407.8" font-family="Arial" font-weight="bold" font-size="14.00"> ≥ 8.62</text>
<path fill="#ebebeb" stroke="transparent" d="M410,-335C410,-335 494,-335 494,-335 500,-335 506,-341 506,-347 506,-347 506,-387 506,-387 506,-393 500,-399 494,-399 494,-399 410,-399 410,-399 404,-399 398,-393 398,-387 398,-387 398,-347 398,-347 398,-341 404,-335 410,-335"/>
<text text-anchor="start" x="399" y="-396.4" font-family="Arial" font-size="2.00"> </text>
<text text-anchor="start" x="399" y="-390.4" font-family="Arial" font-size="7.00"> &#160;6</text>
<text text-anchor="start" x="413" y="-373.8" font-family="Arial" font-weight="bold" font-size="14.00">Mean: 9.109</text>
<text text-anchor="start" x="432" y="-356.8" font-family="Arial" font-weight="bold" font-size="14.00">n = 23</text>
<text text-anchor="start" x="450.5" y="-338.8" font-family="Arial" font-size="9.00"> </text>
<path fill="none" stroke="#333333" d="M410,-335C410,-335 494,-335 494,-335 500,-335 506,-341 506,-347 506,-347 506,-387 506,-387 506,-393 500,-399 494,-399 494,-399 410,-399 410,-399 404,-399 398,-393 398,-387 398,-387 398,-347 398,-347 398,-341 404,-335 410,-335"/>
<text text-anchor="start" x="437.5" y="-320.8" font-family="Arial" font-weight="bold" font-size="14.00">time</text>
</g>
<!-- 2&#45;&gt;6 -->
<g id="edge4" class="edge">
<title>2&#45;&gt;6</title>
<path fill="none" stroke="#888888" d="M452,-461.67C452,-453.39 452,-444.83 452,-436.38"/>
<polygon fill="#888888" stroke="#888888" points="455.5,-436.18 452,-426.18 448.5,-436.18 455.5,-436.18"/>
</g>
<!-- 10 -->
<g id="node10" class="node">
<title>10</title>
<text text-anchor="start" x="748.5" y="-407.8" font-family="Arial" font-weight="bold" font-size="14.00"> &lt; 0.5</text>
<path fill="#ebebeb" stroke="transparent" d="M728,-335C728,-335 804,-335 804,-335 810,-335 816,-341 816,-347 816,-347 816,-387 816,-387 816,-393 810,-399 804,-399 804,-399 728,-399 728,-399 722,-399 716,-393 716,-387 716,-387 716,-347 716,-347 716,-341 722,-335 728,-335"/>
<text text-anchor="start" x="717" y="-396.4" font-family="Arial" font-size="2.00"> </text>
<text text-anchor="start" x="717" y="-390.4" font-family="Arial" font-size="7.00"> &#160;10</text>
<text text-anchor="start" x="731" y="-373.8" font-family="Arial" font-weight="bold" font-size="14.00">Mean: 10.3</text>
<text text-anchor="start" x="746" y="-356.8" font-family="Arial" font-weight="bold" font-size="14.00">n = 26</text>
<text text-anchor="start" x="764.5" y="-338.8" font-family="Arial" font-size="9.00"> </text>
<path fill="none" stroke="#333333" d="M728,-335C728,-335 804,-335 804,-335 810,-335 816,-341 816,-347 816,-347 816,-387 816,-387 816,-393 810,-399 804,-399 804,-399 728,-399 728,-399 722,-399 716,-393 716,-387 716,-387 716,-347 716,-347 716,-341 722,-335 728,-335"/>
<text text-anchor="start" x="751.5" y="-320.8" font-family="Arial" font-weight="bold" font-size="14.00">time</text>
</g>
<!-- 9&#45;&gt;10 -->
<g id="edge9" class="edge">
<title>9&#45;&gt;10</title>
<path fill="none" stroke="#888888" d="M766,-461.67C766,-453.39 766,-444.83 766,-436.38"/>
<polygon fill="#888888" stroke="#888888" points="769.5,-436.18 766,-426.18 762.5,-436.18 769.5,-436.18"/>
</g>
<!-- 15 -->
<g id="node11" class="node">
<title>15</title>
<text text-anchor="start" x="995" y="-407.8" font-family="Arial" font-weight="bold" font-size="14.00"> ≥ 0.5</text>
<text text-anchor="start" x="940" y="-363.3" font-family="Arial" font-size="14.00"> &#160;&#160;&#160;</text>
<path fill="#ebebeb" stroke="transparent" d="M970,-335C970,-335 1054,-335 1054,-335 1060,-335 1066,-341 1066,-347 1066,-347 1066,-387 1066,-387 1066,-393 1060,-399 1054,-399 1054,-399 970,-399 970,-399 964,-399 958,-393 958,-387 958,-387 958,-347 958,-347 958,-341 964,-335 970,-335"/>
<text text-anchor="start" x="959" y="-396.4" font-family="Arial" font-size="2.00"> </text>
<text text-anchor="start" x="959" y="-390.4" font-family="Arial" font-size="7.00"> &#160;15</text>
<text text-anchor="start" x="973" y="-373.8" font-family="Arial" font-weight="bold" font-size="14.00">Mean: 9.555</text>
<text text-anchor="start" x="992" y="-356.8" font-family="Arial" font-weight="bold" font-size="14.00">n = 66</text>
<text text-anchor="start" x="1010.5" y="-338.8" font-family="Arial" font-size="9.00"> </text>
<path fill="none" stroke="#333333" d="M970,-335C970,-335 1054,-335 1054,-335 1060,-335 1066,-341 1066,-347 1066,-347 1066,-387 1066,-387 1066,-393 1060,-399 1054,-399 1054,-399 970,-399 970,-399 964,-399 958,-393 958,-387 958,-387 958,-347 958,-347 958,-341 964,-335 970,-335"/>
<text text-anchor="start" x="1068" y="-363.3" font-family="Arial" font-size="14.00"> &#160;&#160;&#160;</text>
<text text-anchor="start" x="954.5" y="-320.8" font-family="Arial" font-weight="bold" font-size="14.00">prev_168h_inflow</text>
</g>
<!-- 9&#45;&gt;15 -->
<g id="edge10" class="edge">
<title>9&#45;&gt;15</title>
<path fill="none" stroke="#888888" d="M832.25,-479.07C859.58,-462.18 891.69,-442.34 921.16,-424.13"/>
<polygon fill="#888888" stroke="#888888" points="923.14,-427.02 929.8,-418.79 919.46,-421.07 923.14,-427.02"/>
</g>
<!-- 4 -->
<g id="node6" class="node">
<title>4</title>
<text text-anchor="start" x="51.5" y="-253.8" font-family="Arial" font-weight="bold" font-size="14.00"> &lt; 5.5</text>
<path fill="#f8766d" fill-opacity="0.874510" stroke="transparent" d="M24,-181C24,-181 114,-181 114,-181 120,-181 126,-187 126,-193 126,-193 126,-233 126,-233 126,-239 120,-245 114,-245 114,-245 24,-245 24,-245 18,-245 12,-239 12,-233 12,-233 12,-193 12,-193 12,-187 18,-181 24,-181"/>
<text text-anchor="start" x="13" y="-242.4" font-family="Arial" font-size="2.00"> </text>
<text text-anchor="start" x="13" y="-236.4" font-family="Arial" font-size="7.00"> &#160;4</text>
<text text-anchor="start" x="27" y="-219.8" font-family="Arial" font-weight="bold" font-size="14.00">Predict 7.763</text>
<text text-anchor="start" x="49" y="-202.8" font-family="Arial" font-weight="bold" font-size="14.00">n = 42</text>
<text text-anchor="start" x="67.5" y="-184.8" font-family="Arial" font-size="9.00"> </text>
<path fill="none" stroke="#333333" d="M24,-181C24,-181 114,-181 114,-181 120,-181 126,-187 126,-193 126,-193 126,-233 126,-233 126,-239 120,-245 114,-245 114,-245 24,-245 24,-245 18,-245 12,-239 12,-233 12,-233 12,-193 12,-193 12,-187 18,-181 24,-181"/>
<text text-anchor="start" x="67" y="-166.8" font-family="Arial" font-weight="bold" font-size="14.00"> </text>
</g>
<!-- 3&#45;&gt;4 -->
<g id="edge5" class="edge">
<title>3&#45;&gt;4</title>
<path fill="none" stroke="#888888" d="M165.13,-307.67C155.62,-298.39 145.72,-288.75 136.05,-279.33"/>
<polygon fill="#888888" stroke="#888888" points="138.31,-276.65 128.71,-272.18 133.43,-281.66 138.31,-276.65"/>
</g>
<!-- 5 -->
<g id="node7" class="node">
<title>5</title>
<text text-anchor="start" x="208" y="-253.8" font-family="Arial" font-weight="bold" font-size="14.00"> ≥ 5.5</text>
<path fill="#f8766d" fill-opacity="0.784314" stroke="transparent" d="M180,-181C180,-181 270,-181 270,-181 276,-181 282,-187 282,-193 282,-193 282,-233 282,-233 282,-239 276,-245 270,-245 270,-245 180,-245 180,-245 174,-245 168,-239 168,-233 168,-233 168,-193 168,-193 168,-187 174,-181 180,-181"/>
<text text-anchor="start" x="169" y="-242.4" font-family="Arial" font-size="2.00"> </text>
<text text-anchor="start" x="169" y="-236.4" font-family="Arial" font-size="7.00"> &#160;5</text>
<text text-anchor="start" x="183" y="-219.8" font-family="Arial" font-weight="bold" font-size="14.00">Predict 8.378</text>
<text text-anchor="start" x="205.5" y="-202.8" font-family="Arial" font-weight="bold" font-size="14.00">n = 11</text>
<text text-anchor="start" x="223.5" y="-184.8" font-family="Arial" font-size="9.00"> </text>
<path fill="none" stroke="#333333" d="M180,-181C180,-181 270,-181 270,-181 276,-181 282,-187 282,-193 282,-193 282,-233 282,-233 282,-239 276,-245 270,-245 270,-245 180,-245 180,-245 174,-245 168,-239 168,-233 168,-233 168,-193 168,-193 168,-187 174,-181 180,-181"/>
<text text-anchor="start" x="223" y="-166.8" font-family="Arial" font-weight="bold" font-size="14.00"> </text>
</g>
<!-- 3&#45;&gt;5 -->
<g id="edge6" class="edge">
<title>3&#45;&gt;5</title>
<path fill="none" stroke="#888888" d="M225,-307.67C225,-299.39 225,-290.83 225,-282.38"/>
<polygon fill="#888888" stroke="#888888" points="228.5,-282.18 225,-272.18 221.5,-282.18 228.5,-282.18"/>
</g>
<!-- 7 -->
<g id="node8" class="node">
<title>7</title>
<text text-anchor="start" x="359.5" y="-253.8" font-family="Arial" font-weight="bold" font-size="14.00"> &lt; 21.5</text>
<path fill="#f8766d" fill-opacity="0.658824" stroke="transparent" d="M336,-181C336,-181 426,-181 426,-181 432,-181 438,-187 438,-193 438,-193 438,-233 438,-233 438,-239 432,-245 426,-245 426,-245 336,-245 336,-245 330,-245 324,-239 324,-233 324,-233 324,-193 324,-193 324,-187 330,-181 336,-181"/>
<text text-anchor="start" x="325" y="-242.4" font-family="Arial" font-size="2.00"> </text>
<text text-anchor="start" x="325" y="-236.4" font-family="Arial" font-size="7.00"> &#160;7</text>
<text text-anchor="start" x="339" y="-219.8" font-family="Arial" font-weight="bold" font-size="14.00">Predict 9.234</text>
<text text-anchor="start" x="361" y="-202.8" font-family="Arial" font-weight="bold" font-size="14.00">n = 18</text>
<text text-anchor="start" x="379.5" y="-184.8" font-family="Arial" font-size="9.00"> </text>
<path fill="none" stroke="#333333" d="M336,-181C336,-181 426,-181 426,-181 432,-181 438,-187 438,-193 438,-193 438,-233 438,-233 438,-239 432,-245 426,-245 426,-245 336,-245 336,-245 330,-245 324,-239 324,-233 324,-233 324,-193 324,-193 324,-187 330,-181 336,-181"/>
<text text-anchor="start" x="379" y="-166.8" font-family="Arial" font-weight="bold" font-size="14.00"> </text>
</g>
<!-- 6&#45;&gt;7 -->
<g id="edge7" class="edge">
<title>6&#45;&gt;7</title>
<path fill="none" stroke="#888888" d="M424.75,-307.67C420.72,-299.03 416.53,-290.07 412.42,-281.27"/>
<polygon fill="#888888" stroke="#888888" points="415.58,-279.76 408.17,-272.18 409.24,-282.72 415.58,-279.76"/>
</g>
<!-- 8 -->
<g id="node9" class="node">
<title>8</title>
<text text-anchor="start" x="516" y="-253.8" font-family="Arial" font-weight="bold" font-size="14.00"> ≥ 21.5</text>
<path fill="#f8766d" fill-opacity="0.741176" stroke="transparent" d="M492,-181C492,-181 582,-181 582,-181 588,-181 594,-187 594,-193 594,-193 594,-233 594,-233 594,-239 588,-245 582,-245 582,-245 492,-245 492,-245 486,-245 480,-239 480,-233 480,-233 480,-193 480,-193 480,-187 486,-181 492,-181"/>
<text text-anchor="start" x="481" y="-242.4" font-family="Arial" font-size="2.00"> </text>
<text text-anchor="start" x="481" y="-236.4" font-family="Arial" font-size="7.00"> &#160;8</text>
<text text-anchor="start" x="495" y="-219.8" font-family="Arial" font-weight="bold" font-size="14.00">Predict 8.656</text>
<text text-anchor="start" x="521" y="-202.8" font-family="Arial" font-weight="bold" font-size="14.00">n = 5</text>
<text text-anchor="start" x="535.5" y="-184.8" font-family="Arial" font-size="9.00"> </text>
<path fill="none" stroke="#333333" d="M492,-181C492,-181 582,-181 582,-181 588,-181 594,-187 594,-193 594,-193 594,-233 594,-233 594,-239 588,-245 582,-245 582,-245 492,-245 492,-245 486,-245 480,-239 480,-233 480,-233 480,-193 480,-193 480,-187 486,-181 492,-181"/>
<text text-anchor="start" x="535" y="-166.8" font-family="Arial" font-weight="bold" font-size="14.00"> </text>
</g>
<!-- 6&#45;&gt;8 -->
<g id="edge8" class="edge">
<title>6&#45;&gt;8</title>
<path fill="none" stroke="#888888" d="M484.62,-307.67C489.5,-298.94 494.57,-289.88 499.54,-280.99"/>
<polygon fill="#888888" stroke="#888888" points="502.64,-282.61 504.47,-272.18 496.53,-279.2 502.64,-282.61"/>
</g>
<!-- 11 -->
<g id="node12" class="node">
<title>11</title>
<text text-anchor="start" x="668.5" y="-253.8" font-family="Arial" font-weight="bold" font-size="14.00"> &lt; 13.5</text>
<path fill="#ebebeb" stroke="transparent" d="M648,-181C648,-181 732,-181 732,-181 738,-181 744,-187 744,-193 744,-193 744,-233 744,-233 744,-239 738,-245 732,-245 732,-245 648,-245 648,-245 642,-245 636,-239 636,-233 636,-233 636,-193 636,-193 636,-187 642,-181 648,-181"/>
<text text-anchor="start" x="637" y="-242.4" font-family="Arial" font-size="2.00"> </text>
<text text-anchor="start" x="637" y="-236.4" font-family="Arial" font-size="7.00"> &#160;11</text>
<text text-anchor="start" x="651" y="-219.8" font-family="Arial" font-weight="bold" font-size="14.00">Mean: 10.87</text>
<text text-anchor="start" x="670" y="-202.8" font-family="Arial" font-weight="bold" font-size="14.00">n = 12</text>
<text text-anchor="start" x="688.5" y="-184.8" font-family="Arial" font-size="9.00"> </text>
<path fill="none" stroke="#333333" d="M648,-181C648,-181 732,-181 732,-181 738,-181 744,-187 744,-193 744,-193 744,-233 744,-233 744,-239 738,-245 732,-245 732,-245 648,-245 648,-245 642,-245 636,-239 636,-233 636,-233 636,-193 636,-193 636,-187 642,-181 648,-181"/>
<text text-anchor="start" x="657" y="-166.8" font-family="Arial" font-weight="bold" font-size="14.00">air_humid</text>
</g>
<!-- 10&#45;&gt;11 -->
<g id="edge11" class="edge">
<title>10&#45;&gt;11</title>
<path fill="none" stroke="#888888" d="M736.83,-307.67C732.52,-299.03 728.04,-290.07 723.64,-281.27"/>
<polygon fill="#888888" stroke="#888888" points="726.69,-279.56 719.09,-272.18 720.43,-282.69 726.69,-279.56"/>
</g>
<!-- 14 -->
<g id="node13" class="node">
<title>14</title>
<text text-anchor="start" x="822" y="-253.8" font-family="Arial" font-weight="bold" font-size="14.00"> ≥ 13.5</text>
<path fill="#f8766d" fill-opacity="0.572549" stroke="transparent" d="M798,-181C798,-181 888,-181 888,-181 894,-181 900,-187 900,-193 900,-193 900,-233 900,-233 900,-239 894,-245 888,-245 888,-245 798,-245 798,-245 792,-245 786,-239 786,-233 786,-233 786,-193 786,-193 786,-187 792,-181 798,-181"/>
<text text-anchor="start" x="787" y="-242.4" font-family="Arial" font-size="2.00"> </text>
<text text-anchor="start" x="787" y="-236.4" font-family="Arial" font-size="7.00"> &#160;14</text>
<text text-anchor="start" x="801" y="-219.8" font-family="Arial" font-weight="bold" font-size="14.00">Predict 9.815</text>
<text text-anchor="start" x="823" y="-202.8" font-family="Arial" font-weight="bold" font-size="14.00">n = 14</text>
<text text-anchor="start" x="841.5" y="-184.8" font-family="Arial" font-size="9.00"> </text>
<path fill="none" stroke="#333333" d="M798,-181C798,-181 888,-181 888,-181 894,-181 900,-187 900,-193 900,-193 900,-233 900,-233 900,-239 894,-245 888,-245 888,-245 798,-245 798,-245 792,-245 786,-239 786,-233 786,-233 786,-193 786,-193 786,-187 792,-181 798,-181"/>
<text text-anchor="start" x="841" y="-166.8" font-family="Arial" font-weight="bold" font-size="14.00"> </text>
</g>
<!-- 10&#45;&gt;14 -->
<g id="edge12" class="edge">
<title>10&#45;&gt;14</title>
<path fill="none" stroke="#888888" d="M795.55,-307.67C799.93,-299.03 804.46,-290.07 808.92,-281.27"/>
<polygon fill="#888888" stroke="#888888" points="812.13,-282.68 813.53,-272.18 805.89,-279.52 812.13,-282.68"/>
</g>
<!-- 16 -->
<g id="node16" class="node">
<title>16</title>
<text text-anchor="start" x="987" y="-253.8" font-family="Arial" font-weight="bold" font-size="14.00"> &lt; 9.805</text>
<text text-anchor="start" x="940" y="-209.3" font-family="Arial" font-size="14.00"> &#160;&#160;&#160;</text>
<path fill="#ebebeb" stroke="transparent" d="M970,-181C970,-181 1054,-181 1054,-181 1060,-181 1066,-187 1066,-193 1066,-193 1066,-233 1066,-233 1066,-239 1060,-245 1054,-245 1054,-245 970,-245 970,-245 964,-245 958,-239 958,-233 958,-233 958,-193 958,-193 958,-187 964,-181 970,-181"/>
<text text-anchor="start" x="959" y="-242.4" font-family="Arial" font-size="2.00"> </text>
<text text-anchor="start" x="959" y="-236.4" font-family="Arial" font-size="7.00"> &#160;16</text>
<text text-anchor="start" x="973" y="-219.8" font-family="Arial" font-weight="bold" font-size="14.00">Mean: 9.262</text>
<text text-anchor="start" x="992" y="-202.8" font-family="Arial" font-weight="bold" font-size="14.00">n = 36</text>
<text text-anchor="start" x="1010.5" y="-184.8" font-family="Arial" font-size="9.00"> </text>
<path fill="none" stroke="#333333" d="M970,-181C970,-181 1054,-181 1054,-181 1060,-181 1066,-187 1066,-193 1066,-193 1066,-233 1066,-233 1066,-239 1060,-245 1054,-245 1054,-245 970,-245 970,-245 964,-245 958,-239 958,-233 958,-233 958,-193 958,-193 958,-187 964,-181 970,-181"/>
<text text-anchor="start" x="1068" y="-209.3" font-family="Arial" font-size="14.00"> &#160;&#160;&#160;</text>
<text text-anchor="start" x="954.5" y="-166.8" font-family="Arial" font-weight="bold" font-size="14.00">prev_168h_inflow</text>
</g>
<!-- 15&#45;&gt;16 -->
<g id="edge15" class="edge">
<title>15&#45;&gt;16</title>
<path fill="none" stroke="#888888" d="M1012,-307.67C1012,-299.39 1012,-290.83 1012,-282.38"/>
<polygon fill="#888888" stroke="#888888" points="1015.5,-282.18 1012,-272.18 1008.5,-282.18 1015.5,-282.18"/>
</g>
<!-- 19 -->
<g id="node17" class="node">
<title>19</title>
<text text-anchor="start" x="1153.5" y="-253.8" font-family="Arial" font-weight="bold" font-size="14.00"> ≥ 9.805</text>
<path fill="#ebebeb" stroke="transparent" d="M1136,-181C1136,-181 1220,-181 1220,-181 1226,-181 1232,-187 1232,-193 1232,-193 1232,-233 1232,-233 1232,-239 1226,-245 1220,-245 1220,-245 1136,-245 1136,-245 1130,-245 1124,-239 1124,-233 1124,-233 1124,-193 1124,-193 1124,-187 1130,-181 1136,-181"/>
<text text-anchor="start" x="1125" y="-242.4" font-family="Arial" font-size="2.00"> </text>
<text text-anchor="start" x="1125" y="-236.4" font-family="Arial" font-size="7.00"> &#160;19</text>
<text text-anchor="start" x="1139" y="-219.8" font-family="Arial" font-weight="bold" font-size="14.00">Mean: 9.906</text>
<text text-anchor="start" x="1158" y="-202.8" font-family="Arial" font-weight="bold" font-size="14.00">n = 30</text>
<text text-anchor="start" x="1176.5" y="-184.8" font-family="Arial" font-size="9.00"> </text>
<path fill="none" stroke="#333333" d="M1136,-181C1136,-181 1220,-181 1220,-181 1226,-181 1232,-187 1232,-193 1232,-193 1232,-233 1232,-233 1232,-239 1226,-245 1220,-245 1220,-245 1136,-245 1136,-245 1130,-245 1124,-239 1124,-233 1124,-233 1124,-193 1124,-193 1124,-187 1130,-181 1136,-181"/>
<text text-anchor="start" x="1163.5" y="-166.8" font-family="Arial" font-weight="bold" font-size="14.00">time</text>
</g>
<!-- 15&#45;&gt;19 -->
<g id="edge16" class="edge">
<title>15&#45;&gt;19</title>
<path fill="none" stroke="#888888" d="M1075.71,-307.67C1085.93,-298.3 1096.57,-288.56 1106.96,-279.05"/>
<polygon fill="#888888" stroke="#888888" points="1109.45,-281.51 1114.47,-272.18 1104.73,-276.35 1109.45,-281.51"/>
</g>
<!-- 12 -->
<g id="node14" class="node">
<title>12</title>
<text text-anchor="start" x="521.5" y="-99.8" font-family="Arial" font-weight="bold" font-size="14.00"> &lt; 48.5</text>
<path fill="#f8766d" fill-opacity="0.474510" stroke="transparent" d="M498,-27C498,-27 588,-27 588,-27 594,-27 600,-33 600,-39 600,-39 600,-79 600,-79 600,-85 594,-91 588,-91 588,-91 498,-91 498,-91 492,-91 486,-85 486,-79 486,-79 486,-39 486,-39 486,-33 492,-27 498,-27"/>
<text text-anchor="start" x="487" y="-88.4" font-family="Arial" font-size="2.00"> </text>
<text text-anchor="start" x="487" y="-82.4" font-family="Arial" font-size="7.00"> &#160;12</text>
<text text-anchor="start" x="501" y="-65.8" font-family="Arial" font-weight="bold" font-size="14.00">Predict 10.47</text>
<text text-anchor="start" x="527" y="-48.8" font-family="Arial" font-weight="bold" font-size="14.00">n = 5</text>
<text text-anchor="start" x="541.5" y="-30.8" font-family="Arial" font-size="9.00"> </text>
<path fill="none" stroke="#333333" d="M498,-27C498,-27 588,-27 588,-27 594,-27 600,-33 600,-39 600,-39 600,-79 600,-79 600,-85 594,-91 588,-91 588,-91 498,-91 498,-91 492,-91 486,-85 486,-79 486,-79 486,-39 486,-39 486,-33 492,-27 498,-27"/>
<text text-anchor="start" x="541" y="-12.8" font-family="Arial" font-weight="bold" font-size="14.00"> </text>
</g>
<!-- 11&#45;&gt;12 -->
<g id="edge13" class="edge">
<title>11&#45;&gt;12</title>
<path fill="none" stroke="#888888" d="M633.59,-153.67C624.71,-144.49 615.47,-134.94 606.45,-125.6"/>
<polygon fill="#888888" stroke="#888888" points="608.73,-122.93 599.26,-118.18 603.7,-127.8 608.73,-122.93"/>
</g>
<!-- 13 -->
<g id="node15" class="node">
<title>13</title>
<text text-anchor="start" x="678.5" y="-99.8" font-family="Arial" font-weight="bold" font-size="14.00"> ≥ 48.5</text>
<path fill="#f8766d" fill-opacity="0.376471" stroke="transparent" d="M655,-27C655,-27 744,-27 744,-27 750,-27 756,-33 756,-39 756,-39 756,-79 756,-79 756,-85 750,-91 744,-91 744,-91 655,-91 655,-91 649,-91 643,-85 643,-79 643,-79 643,-39 643,-39 643,-33 649,-27 655,-27"/>
<text text-anchor="start" x="644" y="-88.4" font-family="Arial" font-size="2.00"> </text>
<text text-anchor="start" x="644" y="-82.4" font-family="Arial" font-size="7.00"> &#160;13</text>
<text text-anchor="start" x="658" y="-65.8" font-family="Arial" font-weight="bold" font-size="14.00">Predict 11.15</text>
<text text-anchor="start" x="683.5" y="-48.8" font-family="Arial" font-weight="bold" font-size="14.00">n = 7</text>
<text text-anchor="start" x="698" y="-30.8" font-family="Arial" font-size="9.00"> </text>
<path fill="none" stroke="#333333" d="M655,-27C655,-27 744,-27 744,-27 750,-27 756,-33 756,-39 756,-39 756,-79 756,-79 756,-85 750,-91 744,-91 744,-91 655,-91 655,-91 649,-91 643,-85 643,-79 643,-79 643,-39 643,-39 643,-33 649,-27 655,-27"/>
<text text-anchor="start" x="697.5" y="-12.8" font-family="Arial" font-weight="bold" font-size="14.00"> </text>
</g>
<!-- 11&#45;&gt;13 -->
<g id="edge14" class="edge">
<title>11&#45;&gt;13</title>
<path fill="none" stroke="#888888" d="M693.45,-153.67C693.94,-145.39 694.45,-136.83 694.95,-128.38"/>
<polygon fill="#888888" stroke="#888888" points="698.46,-128.37 695.56,-118.18 691.47,-127.95 698.46,-128.37"/>
</g>
<!-- 17 -->
<g id="node18" class="node">
<title>17</title>
<text text-anchor="start" x="837" y="-99.8" font-family="Arial" font-weight="bold" font-size="14.00"> &lt; 9.255</text>
<path fill="#f8766d" fill-opacity="0.843137" stroke="transparent" d="M821,-27C821,-27 903,-27 903,-27 909,-27 915,-33 915,-39 915,-39 915,-79 915,-79 915,-85 909,-91 903,-91 903,-91 821,-91 821,-91 815,-91 809,-85 809,-79 809,-79 809,-39 809,-39 809,-33 815,-27 821,-27"/>
<text text-anchor="start" x="810" y="-88.4" font-family="Arial" font-size="2.00"> </text>
<text text-anchor="start" x="810" y="-82.4" font-family="Arial" font-size="7.00"> &#160;17</text>
<text text-anchor="start" x="824" y="-65.8" font-family="Arial" font-weight="bold" font-size="14.00">Predict 7.98</text>
<text text-anchor="start" x="846" y="-48.8" font-family="Arial" font-weight="bold" font-size="14.00">n = 1</text>
<text text-anchor="start" x="860.5" y="-30.8" font-family="Arial" font-size="9.00"> </text>
<path fill="none" stroke="#333333" d="M821,-27C821,-27 903,-27 903,-27 909,-27 915,-33 915,-39 915,-39 915,-79 915,-79 915,-85 909,-91 903,-91 903,-91 821,-91 821,-91 815,-91 809,-85 809,-79 809,-79 809,-39 809,-39 809,-33 815,-27 821,-27"/>
<text text-anchor="start" x="860" y="-12.8" font-family="Arial" font-weight="bold" font-size="14.00"> </text>
</g>
<!-- 16&#45;&gt;17 -->
<g id="edge17" class="edge">
<title>16&#45;&gt;17</title>
<path fill="none" stroke="#888888" d="M954.44,-153.67C945.28,-144.39 935.77,-134.75 926.47,-125.33"/>
<polygon fill="#888888" stroke="#888888" points="928.93,-122.84 919.41,-118.18 923.94,-127.75 928.93,-122.84"/>
</g>
<!-- 18 -->
<g id="node19" class="node">
<title>18</title>
<text text-anchor="start" x="989.5" y="-99.8" font-family="Arial" font-weight="bold" font-size="14.00"> ≥ 9.255</text>
<path fill="#f8766d" fill-opacity="0.647059" stroke="transparent" d="M969,-27C969,-27 1059,-27 1059,-27 1065,-27 1071,-33 1071,-39 1071,-39 1071,-79 1071,-79 1071,-85 1065,-91 1059,-91 1059,-91 969,-91 969,-91 963,-91 957,-85 957,-79 957,-79 957,-39 957,-39 957,-33 963,-27 969,-27"/>
<text text-anchor="start" x="958" y="-88.4" font-family="Arial" font-size="2.00"> </text>
<text text-anchor="start" x="958" y="-82.4" font-family="Arial" font-size="7.00"> &#160;18</text>
<text text-anchor="start" x="972" y="-65.8" font-family="Arial" font-weight="bold" font-size="14.00">Predict 9.299</text>
<text text-anchor="start" x="994" y="-48.8" font-family="Arial" font-weight="bold" font-size="14.00">n = 35</text>
<text text-anchor="start" x="1012.5" y="-30.8" font-family="Arial" font-size="9.00"> </text>
<path fill="none" stroke="#333333" d="M969,-27C969,-27 1059,-27 1059,-27 1065,-27 1071,-33 1071,-39 1071,-39 1071,-79 1071,-79 1071,-85 1065,-91 1059,-91 1059,-91 969,-91 969,-91 963,-91 957,-85 957,-79 957,-79 957,-39 957,-39 957,-33 963,-27 969,-27"/>
<text text-anchor="start" x="1012" y="-12.8" font-family="Arial" font-weight="bold" font-size="14.00"> </text>
</g>
<!-- 16&#45;&gt;18 -->
<g id="edge18" class="edge">
<title>16&#45;&gt;18</title>
<path fill="none" stroke="#888888" d="M1012.77,-153.67C1012.88,-145.39 1012.99,-136.83 1013.1,-128.38"/>
<polygon fill="#888888" stroke="#888888" points="1016.6,-128.22 1013.23,-118.18 1009.6,-128.13 1016.6,-128.22"/>
</g>
<!-- 20 -->
<g id="node20" class="node">
<title>20</title>
<text text-anchor="start" x="1157.5" y="-99.8" font-family="Arial" font-weight="bold" font-size="14.00"> &lt; 8.5</text>
<path fill="#f8766d" fill-opacity="0.498039" stroke="transparent" d="M1130,-27C1130,-27 1220,-27 1220,-27 1226,-27 1232,-33 1232,-39 1232,-39 1232,-79 1232,-79 1232,-85 1226,-91 1220,-91 1220,-91 1130,-91 1130,-91 1124,-91 1118,-85 1118,-79 1118,-79 1118,-39 1118,-39 1118,-33 1124,-27 1130,-27"/>
<text text-anchor="start" x="1119" y="-88.4" font-family="Arial" font-size="2.00"> </text>
<text text-anchor="start" x="1119" y="-82.4" font-family="Arial" font-size="7.00"> &#160;20</text>
<text text-anchor="start" x="1133" y="-65.8" font-family="Arial" font-weight="bold" font-size="14.00">Predict 10.31</text>
<text text-anchor="start" x="1155" y="-48.8" font-family="Arial" font-weight="bold" font-size="14.00">n = 10</text>
<text text-anchor="start" x="1173.5" y="-30.8" font-family="Arial" font-size="9.00"> </text>
<path fill="none" stroke="#333333" d="M1130,-27C1130,-27 1220,-27 1220,-27 1226,-27 1232,-33 1232,-39 1232,-39 1232,-79 1232,-79 1232,-85 1226,-91 1220,-91 1220,-91 1130,-91 1130,-91 1124,-91 1118,-85 1118,-79 1118,-79 1118,-39 1118,-39 1118,-33 1124,-27 1130,-27"/>
<text text-anchor="start" x="1173" y="-12.8" font-family="Arial" font-weight="bold" font-size="14.00"> </text>
</g>
<!-- 19&#45;&gt;20 -->
<g id="edge19" class="edge">
<title>19&#45;&gt;20</title>
<path fill="none" stroke="#888888" d="M1176.85,-153.67C1176.69,-145.39 1176.52,-136.83 1176.35,-128.38"/>
<polygon fill="#888888" stroke="#888888" points="1179.84,-128.11 1176.15,-118.18 1172.85,-128.24 1179.84,-128.11"/>
</g>
<!-- 21 -->
<g id="node21" class="node">
<title>21</title>
<text text-anchor="start" x="1314" y="-99.8" font-family="Arial" font-weight="bold" font-size="14.00"> ≥ 8.5</text>
<path fill="#f8766d" fill-opacity="0.588235" stroke="transparent" d="M1286,-27C1286,-27 1376,-27 1376,-27 1382,-27 1388,-33 1388,-39 1388,-39 1388,-79 1388,-79 1388,-85 1382,-91 1376,-91 1376,-91 1286,-91 1286,-91 1280,-91 1274,-85 1274,-79 1274,-79 1274,-39 1274,-39 1274,-33 1280,-27 1286,-27"/>
<text text-anchor="start" x="1275" y="-88.4" font-family="Arial" font-size="2.00"> </text>
<text text-anchor="start" x="1275" y="-82.4" font-family="Arial" font-size="7.00"> &#160;21</text>
<text text-anchor="start" x="1289" y="-65.8" font-family="Arial" font-weight="bold" font-size="14.00">Predict 9.706</text>
<text text-anchor="start" x="1311" y="-48.8" font-family="Arial" font-weight="bold" font-size="14.00">n = 20</text>
<text text-anchor="start" x="1329.5" y="-30.8" font-family="Arial" font-size="9.00"> </text>
<path fill="none" stroke="#333333" d="M1286,-27C1286,-27 1376,-27 1376,-27 1382,-27 1388,-33 1388,-39 1388,-39 1388,-79 1388,-79 1388,-85 1382,-91 1376,-91 1376,-91 1286,-91 1286,-91 1280,-91 1274,-85 1274,-79 1274,-79 1274,-39 1274,-39 1274,-33 1280,-27 1286,-27"/>
<text text-anchor="start" x="1329" y="-12.8" font-family="Arial" font-weight="bold" font-size="14.00"> </text>
</g>
<!-- 19&#45;&gt;21 -->
<g id="edge20" class="edge">
<title>19&#45;&gt;21</title>
<path fill="none" stroke="#888888" d="M1236.72,-153.67C1246.05,-144.39 1255.76,-134.75 1265.24,-125.33"/>
<polygon fill="#888888" stroke="#888888" points="1267.81,-127.71 1272.44,-118.18 1262.88,-122.74 1267.81,-127.71"/>
</g>
</g>
</svg>
