<?xml version="1.0" encoding="UTF-8" standalone="no"?>
<!DOCTYPE svg PUBLIC "-//W3C//DTD SVG 1.1//EN"
 "http://www.w3.org/Graphics/SVG/1.1/DTD/svg11.dtd">
<!-- Generated by graphviz version 2.50.0 (20211204.2007)
 -->
<!-- Pages: 1 -->
<svg width="959pt" height="588pt"
 viewBox="0.00 0.00 959.00 588.00" xmlns="http://www.w3.org/2000/svg" xmlns:xlink="http://www.w3.org/1999/xlink">
<g id="graph0" class="graph" transform="scale(1 1) rotate(0) translate(4 584)">
<polygon fill="white" stroke="transparent" points="-4,4 -4,-584 955,-584 955,4 -4,4"/>
<!-- 1 -->
<g id="node1" class="node">
<title>1</title>
<text text-anchor="start" x="465" y="-561.8" font-family="Arial" font-weight="bold" font-size="14.00"> </text>
<text text-anchor="start" x="395" y="-517.3" font-family="Arial" font-size="14.00"> &#160;&#160;&#160;</text>
<path fill="#ebebeb" stroke="transparent" d="M425,-489C425,-489 509,-489 509,-489 515,-489 521,-495 521,-501 521,-501 521,-541 521,-541 521,-547 515,-553 509,-553 509,-553 425,-553 425,-553 419,-553 413,-547 413,-541 413,-541 413,-501 413,-501 413,-495 419,-489 425,-489"/>
<text text-anchor="start" x="414" y="-550.4" font-family="Arial" font-size="2.00"> </text>
<text text-anchor="start" x="414" y="-544.4" font-family="Arial" font-size="7.00"> &#160;1</text>
<text text-anchor="start" x="428" y="-527.8" font-family="Arial" font-weight="bold" font-size="14.00">Mean: 22.78</text>
<text text-anchor="start" x="443.5" y="-510.8" font-family="Arial" font-weight="bold" font-size="14.00">n = 168</text>
<text text-anchor="start" x="465.5" y="-492.8" font-family="Arial" font-size="9.00"> </text>
<path fill="none" stroke="#333333" d="M425,-489C425,-489 509,-489 509,-489 515,-489 521,-495 521,-501 521,-501 521,-541 521,-541 521,-547 515,-553 509,-553 509,-553 425,-553 425,-553 419,-553 413,-547 413,-541 413,-541 413,-501 413,-501 413,-495 419,-489 425,-489"/>
<text text-anchor="start" x="523" y="-517.3" font-family="Arial" font-size="14.00"> &#160;&#160;&#160;</text>
<text text-anchor="start" x="409.5" y="-474.8" font-family="Arial" font-weight="bold" font-size="14.00">prev_168h_inflow</text>
</g>
<!-- 2 -->
<g id="node2" class="node">
<title>2</title>
<text text-anchor="start" x="351" y="-407.8" font-family="Arial" font-weight="bold" font-size="14.00"> &lt; 22.57</text>
<text text-anchor="start" x="304" y="-363.3" font-family="Arial" font-size="14.00"> &#160;&#160;&#160;</text>
<path fill="#ebebeb" stroke="transparent" d="M334,-335C334,-335 418,-335 418,-335 424,-335 430,-341 430,-347 430,-347 430,-387 430,-387 430,-393 424,-399 418,-399 418,-399 334,-399 334,-399 328,-399 322,-393 322,-387 322,-387 322,-347 322,-347 322,-341 328,-335 334,-335"/>
<text text-anchor="start" x="323" y="-396.4" font-family="Arial" font-size="2.00"> </text>
<text text-anchor="start" x="323" y="-390.4" font-family="Arial" font-size="7.00"> &#160;2</text>
<text text-anchor="start" x="337" y="-373.8" font-family="Arial" font-weight="bold" font-size="14.00">Mean: 15.13</text>
<text text-anchor="start" x="356" y="-356.8" font-family="Arial" font-weight="bold" font-size="14.00">n = 67</text>
<text text-anchor="start" x="374.5" y="-338.8" font-family="Arial" font-size="9.00"> </text>
<path fill="none" stroke="#333333" d="M334,-335C334,-335 418,-335 418,-335 424,-335 430,-341 430,-347 430,-347 430,-387 430,-387 430,-393 424,-399 418,-399 418,-399 334,-399 334,-399 328,-399 322,-393 322,-387 322,-387 322,-347 322,-347 322,-341 328,-335 334,-335"/>
<text text-anchor="start" x="432" y="-363.3" font-family="Arial" font-size="14.00"> &#160;&#160;&#160;</text>
<text text-anchor="start" x="318.5" y="-320.8" font-family="Arial" font-weight="bold" font-size="14.00">prev_168h_inflow</text>
</g>
<!-- 1&#45;&gt;2 -->
<g id="edge1" class="edge">
<title>1&#45;&gt;2</title>
<path fill="none" stroke="#888888" d="M432.08,-461.67C426.85,-452.94 421.43,-443.88 416.11,-434.99"/>
<polygon fill="#888888" stroke="#888888" points="418.97,-432.96 410.83,-426.18 412.96,-436.55 418.97,-432.96"/>
</g>
<!-- 7 -->
<g id="node3" class="node">
<title>7</title>
<text text-anchor="start" x="533.5" y="-407.8" font-family="Arial" font-weight="bold" font-size="14.00"> ≥ 22.57</text>
<text text-anchor="start" x="486" y="-363.3" font-family="Arial" font-size="14.00"> &#160;&#160;&#160;</text>
<path fill="#ebebeb" stroke="transparent" d="M516,-335C516,-335 600,-335 600,-335 606,-335 612,-341 612,-347 612,-347 612,-387 612,-387 612,-393 606,-399 600,-399 600,-399 516,-399 516,-399 510,-399 504,-393 504,-387 504,-387 504,-347 504,-347 504,-341 510,-335 516,-335"/>
<text text-anchor="start" x="505" y="-396.4" font-family="Arial" font-size="2.00"> </text>
<text text-anchor="start" x="505" y="-390.4" font-family="Arial" font-size="7.00"> &#160;7</text>
<text text-anchor="start" x="519" y="-373.8" font-family="Arial" font-weight="bold" font-size="14.00">Mean: 27.85</text>
<text text-anchor="start" x="534.5" y="-356.8" font-family="Arial" font-weight="bold" font-size="14.00">n = 101</text>
<text text-anchor="start" x="556.5" y="-338.8" font-family="Arial" font-size="9.00"> </text>
<path fill="none" stroke="#333333" d="M516,-335C516,-335 600,-335 600,-335 606,-335 612,-341 612,-347 612,-347 612,-387 612,-387 612,-393 606,-399 600,-399 600,-399 516,-399 516,-399 510,-399 504,-393 504,-387 504,-387 504,-347 504,-347 504,-341 510,-335 516,-335"/>
<text text-anchor="start" x="614" y="-363.3" font-family="Arial" font-size="14.00"> &#160;&#160;&#160;</text>
<text text-anchor="start" x="500.5" y="-320.8" font-family="Arial" font-weight="bold" font-size="14.00">prev_168h_inflow</text>
</g>
<!-- 1&#45;&gt;7 -->
<g id="edge2" class="edge">
<title>1&#45;&gt;7</title>
<path fill="none" stroke="#888888" d="M501.92,-461.67C507.15,-452.94 512.57,-443.88 517.89,-434.99"/>
<polygon fill="#888888" stroke="#888888" points="521.04,-436.55 523.17,-426.18 515.03,-432.96 521.04,-436.55"/>
</g>
<!-- 3 -->
<g id="node4" class="node">
<title>3</title>
<text text-anchor="start" x="190" y="-253.8" font-family="Arial" font-weight="bold" font-size="14.00"> &lt; 17.46</text>
<text text-anchor="start" x="143" y="-209.3" font-family="Arial" font-size="14.00"> &#160;&#160;&#160;</text>
<path fill="#ebebeb" stroke="transparent" d="M173,-181C173,-181 257,-181 257,-181 263,-181 269,-187 269,-193 269,-193 269,-233 269,-233 269,-239 263,-245 257,-245 257,-245 173,-245 173,-245 167,-245 161,-239 161,-233 161,-233 161,-193 161,-193 161,-187 167,-181 173,-181"/>
<text text-anchor="start" x="162" y="-242.4" font-family="Arial" font-size="2.00"> </text>
<text text-anchor="start" x="162" y="-236.4" font-family="Arial" font-size="7.00"> &#160;3</text>
<text text-anchor="start" x="176" y="-219.8" font-family="Arial" font-weight="bold" font-size="14.00">Mean: 13.32</text>
<text text-anchor="start" x="195" y="-202.8" font-family="Arial" font-weight="bold" font-size="14.00">n = 50</text>
<text text-anchor="start" x="213.5" y="-184.8" font-family="Arial" font-size="9.00"> </text>
<path fill="none" stroke="#333333" d="M173,-181C173,-181 257,-181 257,-181 263,-181 269,-187 269,-193 269,-193 269,-233 269,-233 269,-239 263,-245 257,-245 257,-245 173,-245 173,-245 167,-245 161,-239 161,-233 161,-233 161,-193 161,-193 161,-187 167,-181 173,-181"/>
<text text-anchor="start" x="271" y="-209.3" font-family="Arial" font-size="14.00"> &#160;&#160;&#160;</text>
<text text-anchor="start" x="157.5" y="-166.8" font-family="Arial" font-weight="bold" font-size="14.00">prev_168h_inflow</text>
</g>
<!-- 2&#45;&gt;3 -->
<g id="edge3" class="edge">
<title>2&#45;&gt;3</title>
<path fill="none" stroke="#888888" d="M314.21,-307.67C304.29,-298.3 293.97,-288.56 283.9,-279.05"/>
<polygon fill="#888888" stroke="#888888" points="286.3,-276.5 276.62,-272.18 281.49,-281.59 286.3,-276.5"/>
</g>
<!-- 6 -->
<g id="node5" class="node">
<title>6</title>
<text text-anchor="start" x="359.5" y="-253.8" font-family="Arial" font-weight="bold" font-size="14.00"> ≥ 17.46</text>
<path fill="#f8766d" fill-opacity="0.666667" stroke="transparent" d="M339,-181C339,-181 429,-181 429,-181 435,-181 441,-187 441,-193 441,-193 441,-233 441,-233 441,-239 435,-245 429,-245 429,-245 339,-245 339,-245 333,-245 327,-239 327,-233 327,-233 327,-193 327,-193 327,-187 333,-181 339,-181"/>
<text text-anchor="start" x="328" y="-242.4" font-family="Arial" font-size="2.00"> </text>
<text text-anchor="start" x="328" y="-236.4" font-family="Arial" font-size="7.00"> &#160;6</text>
<text text-anchor="start" x="342" y="-219.8" font-family="Arial" font-weight="bold" font-size="14.00">Predict 20.47</text>
<text text-anchor="start" x="364" y="-202.8" font-family="Arial" font-weight="bold" font-size="14.00">n = 17</text>
<text text-anchor="start" x="382.5" y="-184.8" font-family="Arial" font-size="9.00"> </text>
<path fill="none" stroke="#333333" d="M339,-181C339,-181 429,-181 429,-181 435,-181 441,-187 441,-193 441,-193 441,-233 441,-233 441,-239 435,-245 429,-245 429,-245 339,-245 339,-245 333,-245 327,-239 327,-233 327,-233 327,-193 327,-193 327,-187 333,-181 339,-181"/>
<text text-anchor="start" x="382" y="-166.8" font-family="Arial" font-weight="bold" font-size="14.00"> </text>
</g>
<!-- 2&#45;&gt;6 -->
<g id="edge4" class="edge">
<title>2&#45;&gt;6</title>
<path fill="none" stroke="#888888" d="M379.07,-307.67C379.51,-299.39 379.96,-290.83 380.4,-282.38"/>
<polygon fill="#888888" stroke="#888888" points="383.91,-282.35 380.94,-272.18 376.92,-281.98 383.91,-282.35"/>
</g>
<!-- 8 -->
<g id="node8" class="node">
<title>8</title>
<text text-anchor="start" x="529" y="-253.8" font-family="Arial" font-weight="bold" font-size="14.00"> &lt; 27.35</text>
<text text-anchor="start" x="486" y="-209.3" font-family="Arial" font-size="14.00"> &#160;&#160;&#160;</text>
<path fill="#ebebeb" stroke="transparent" d="M516,-181C516,-181 592,-181 592,-181 598,-181 604,-187 604,-193 604,-193 604,-233 604,-233 604,-239 598,-245 592,-245 592,-245 516,-245 516,-245 510,-245 504,-239 504,-233 504,-233 504,-193 504,-193 504,-187 510,-181 516,-181"/>
<text text-anchor="start" x="505" y="-242.4" font-family="Arial" font-size="2.00"> </text>
<text text-anchor="start" x="505" y="-236.4" font-family="Arial" font-size="7.00"> &#160;8</text>
<text text-anchor="start" x="519" y="-219.8" font-family="Arial" font-weight="bold" font-size="14.00">Mean: 25.6</text>
<text text-anchor="start" x="534" y="-202.8" font-family="Arial" font-weight="bold" font-size="14.00">n = 52</text>
<text text-anchor="start" x="552.5" y="-184.8" font-family="Arial" font-size="9.00"> </text>
<path fill="none" stroke="#333333" d="M516,-181C516,-181 592,-181 592,-181 598,-181 604,-187 604,-193 604,-193 604,-233 604,-233 604,-239 598,-245 592,-245 592,-245 516,-245 516,-245 510,-245 504,-239 504,-233 504,-233 504,-193 504,-193 504,-187 510,-181 516,-181"/>
<text text-anchor="start" x="606" y="-209.3" font-family="Arial" font-size="14.00"> &#160;&#160;&#160;</text>
<text text-anchor="start" x="496.5" y="-166.8" font-family="Arial" font-weight="bold" font-size="14.00">prev_168h_inflow</text>
</g>
<!-- 7&#45;&gt;8 -->
<g id="edge7" class="edge">
<title>7&#45;&gt;8</title>
<path fill="none" stroke="#888888" d="M556.46,-307.67C556.25,-299.39 556.02,-290.83 555.8,-282.38"/>
<polygon fill="#888888" stroke="#888888" points="559.29,-282.08 555.53,-272.18 552.3,-282.27 559.29,-282.08"/>
</g>
<!-- 11 -->
<g id="node9" class="node">
<title>11</title>
<text text-anchor="start" x="707.5" y="-253.8" font-family="Arial" font-weight="bold" font-size="14.00"> ≥ 27.35</text>
<text text-anchor="start" x="660" y="-209.3" font-family="Arial" font-size="14.00"> &#160;&#160;&#160;</text>
<path fill="#ebebeb" stroke="transparent" d="M690,-181C690,-181 774,-181 774,-181 780,-181 786,-187 786,-193 786,-193 786,-233 786,-233 786,-239 780,-245 774,-245 774,-245 690,-245 690,-245 684,-245 678,-239 678,-233 678,-233 678,-193 678,-193 678,-187 684,-181 690,-181"/>
<text text-anchor="start" x="679" y="-242.4" font-family="Arial" font-size="2.00"> </text>
<text text-anchor="start" x="679" y="-236.4" font-family="Arial" font-size="7.00"> &#160;11</text>
<text text-anchor="start" x="693" y="-219.8" font-family="Arial" font-weight="bold" font-size="14.00">Mean: 30.23</text>
<text text-anchor="start" x="712" y="-202.8" font-family="Arial" font-weight="bold" font-size="14.00">n = 49</text>
<text text-anchor="start" x="730.5" y="-184.8" font-family="Arial" font-size="9.00"> </text>
<path fill="none" stroke="#333333" d="M690,-181C690,-181 774,-181 774,-181 780,-181 786,-187 786,-193 786,-193 786,-233 786,-233 786,-239 780,-245 774,-245 774,-245 690,-245 690,-245 684,-245 678,-239 678,-233 678,-233 678,-193 678,-193 678,-187 684,-181 690,-181"/>
<text text-anchor="start" x="788" y="-209.3" font-family="Arial" font-size="14.00"> &#160;&#160;&#160;</text>
<text text-anchor="start" x="674.5" y="-166.8" font-family="Arial" font-weight="bold" font-size="14.00">prev_168h_inflow</text>
</g>
<!-- 7&#45;&gt;11 -->
<g id="edge8" class="edge">
<title>7&#45;&gt;11</title>
<path fill="none" stroke="#888888" d="M624.78,-307.67C635.6,-298.21 646.86,-288.37 657.85,-278.77"/>
<polygon fill="#888888" stroke="#888888" points="660.17,-281.39 665.4,-272.18 655.57,-276.12 660.17,-281.39"/>
</g>
<!-- 4 -->
<g id="node6" class="node">
<title>4</title>
<text text-anchor="start" x="44" y="-99.8" font-family="Arial" font-weight="bold" font-size="14.00"> &lt; 14.69</text>
<path fill="#f8766d" fill-opacity="0.874510" stroke="transparent" d="M24,-27C24,-27 114,-27 114,-27 120,-27 126,-33 126,-39 126,-39 126,-79 126,-79 126,-85 120,-91 114,-91 114,-91 24,-91 24,-91 18,-91 12,-85 12,-79 12,-79 12,-39 12,-39 12,-33 18,-27 24,-27"/>
<text text-anchor="start" x="13" y="-88.4" font-family="Arial" font-size="2.00"> </text>
<text text-anchor="start" x="13" y="-82.4" font-family="Arial" font-size="7.00"> &#160;4</text>
<text text-anchor="start" x="27" y="-65.8" font-family="Arial" font-weight="bold" font-size="14.00">Predict 12.37</text>
<text text-anchor="start" x="49" y="-48.8" font-family="Arial" font-weight="bold" font-size="14.00">n = 37</text>
<text text-anchor="start" x="67.5" y="-30.8" font-family="Arial" font-size="9.00"> </text>
<path fill="none" stroke="#333333" d="M24,-27C24,-27 114,-27 114,-27 120,-27 126,-33 126,-39 126,-39 126,-79 126,-79 126,-85 120,-91 114,-91 114,-91 24,-91 24,-91 18,-91 12,-85 12,-79 12,-79 12,-39 12,-39 12,-33 18,-27 24,-27"/>
<text text-anchor="start" x="67" y="-12.8" font-family="Arial" font-weight="bold" font-size="14.00"> </text>
</g>
<!-- 3&#45;&gt;4 -->
<g id="edge5" class="edge">
<title>3&#45;&gt;4</title>
<path fill="none" stroke="#888888" d="M158.97,-153.67C150.15,-144.49 140.98,-134.94 132.02,-125.6"/>
<polygon fill="#888888" stroke="#888888" points="134.33,-122.96 124.88,-118.18 129.28,-127.81 134.33,-122.96"/>
</g>
<!-- 5 -->
<g id="node7" class="node">
<title>5</title>
<text text-anchor="start" x="200.5" y="-99.8" font-family="Arial" font-weight="bold" font-size="14.00"> ≥ 14.69</text>
<path fill="#f8766d" fill-opacity="0.780392" stroke="transparent" d="M180,-27C180,-27 270,-27 270,-27 276,-27 282,-33 282,-39 282,-39 282,-79 282,-79 282,-85 276,-91 270,-91 270,-91 180,-91 180,-91 174,-91 168,-85 168,-79 168,-79 168,-39 168,-39 168,-33 174,-27 180,-27"/>
<text text-anchor="start" x="169" y="-88.4" font-family="Arial" font-size="2.00"> </text>
<text text-anchor="start" x="169" y="-82.4" font-family="Arial" font-size="7.00"> &#160;5</text>
<text text-anchor="start" x="183" y="-65.8" font-family="Arial" font-weight="bold" font-size="14.00">Predict 16.01</text>
<text text-anchor="start" x="205" y="-48.8" font-family="Arial" font-weight="bold" font-size="14.00">n = 13</text>
<text text-anchor="start" x="223.5" y="-30.8" font-family="Arial" font-size="9.00"> </text>
<path fill="none" stroke="#333333" d="M180,-27C180,-27 270,-27 270,-27 276,-27 282,-33 282,-39 282,-39 282,-79 282,-79 282,-85 276,-91 270,-91 270,-91 180,-91 180,-91 174,-91 168,-85 168,-79 168,-79 168,-39 168,-39 168,-33 174,-27 180,-27"/>
<text text-anchor="start" x="223" y="-12.8" font-family="Arial" font-weight="bold" font-size="14.00"> </text>
</g>
<!-- 3&#45;&gt;5 -->
<g id="edge6" class="edge">
<title>3&#45;&gt;5</title>
<path fill="none" stroke="#888888" d="M218.84,-153.67C219.38,-145.39 219.95,-136.83 220.5,-128.38"/>
<polygon fill="#888888" stroke="#888888" points="224.01,-128.38 221.17,-118.18 217.02,-127.92 224.01,-128.38"/>
</g>
<!-- 9 -->
<g id="node10" class="node">
<title>9</title>
<text text-anchor="start" x="384" y="-99.8" font-family="Arial" font-weight="bold" font-size="14.00"> &lt; 25.41</text>
<path fill="#f8766d" fill-opacity="0.556863" stroke="transparent" d="M364,-27C364,-27 454,-27 454,-27 460,-27 466,-33 466,-39 466,-39 466,-79 466,-79 466,-85 460,-91 454,-91 454,-91 364,-91 364,-91 358,-91 352,-85 352,-79 352,-79 352,-39 352,-39 352,-33 358,-27 364,-27"/>
<text text-anchor="start" x="353" y="-88.4" font-family="Arial" font-size="2.00"> </text>
<text text-anchor="start" x="353" y="-82.4" font-family="Arial" font-size="7.00"> &#160;9</text>
<text text-anchor="start" x="367" y="-65.8" font-family="Arial" font-weight="bold" font-size="14.00">Predict 24.88</text>
<text text-anchor="start" x="389" y="-48.8" font-family="Arial" font-weight="bold" font-size="14.00">n = 30</text>
<text text-anchor="start" x="407.5" y="-30.8" font-family="Arial" font-size="9.00"> </text>
<path fill="none" stroke="#333333" d="M364,-27C364,-27 454,-27 454,-27 460,-27 466,-33 466,-39 466,-39 466,-79 466,-79 466,-85 460,-91 454,-91 454,-91 364,-91 364,-91 358,-91 352,-85 352,-79 352,-79 352,-39 352,-39 352,-33 358,-27 364,-27"/>
<text text-anchor="start" x="407" y="-12.8" font-family="Arial" font-weight="bold" font-size="14.00"> </text>
</g>
<!-- 8&#45;&gt;9 -->
<g id="edge9" class="edge">
<title>8&#45;&gt;9</title>
<path fill="none" stroke="#888888" d="M498.35,-153.67C489.59,-144.49 480.49,-134.94 471.58,-125.6"/>
<polygon fill="#888888" stroke="#888888" points="473.93,-123 464.5,-118.18 468.87,-127.83 473.93,-123"/>
</g>
<!-- 10 -->
<g id="node11" class="node">
<title>10</title>
<text text-anchor="start" x="536.5" y="-99.8" font-family="Arial" font-weight="bold" font-size="14.00"> ≥ 25.41</text>
<path fill="#f8766d" fill-opacity="0.509804" stroke="transparent" d="M520,-27C520,-27 602,-27 602,-27 608,-27 614,-33 614,-39 614,-39 614,-79 614,-79 614,-85 608,-91 602,-91 602,-91 520,-91 520,-91 514,-91 508,-85 508,-79 508,-79 508,-39 508,-39 508,-33 514,-27 520,-27"/>
<text text-anchor="start" x="509" y="-88.4" font-family="Arial" font-size="2.00"> </text>
<text text-anchor="start" x="509" y="-82.4" font-family="Arial" font-size="7.00"> &#160;10</text>
<text text-anchor="start" x="523" y="-65.8" font-family="Arial" font-weight="bold" font-size="14.00">Predict 26.6</text>
<text text-anchor="start" x="541" y="-48.8" font-family="Arial" font-weight="bold" font-size="14.00">n = 22</text>
<text text-anchor="start" x="559.5" y="-30.8" font-family="Arial" font-size="9.00"> </text>
<path fill="none" stroke="#333333" d="M520,-27C520,-27 602,-27 602,-27 608,-27 614,-33 614,-39 614,-39 614,-79 614,-79 614,-85 608,-91 602,-91 602,-91 520,-91 520,-91 514,-91 508,-85 508,-79 508,-79 508,-39 508,-39 508,-33 514,-27 520,-27"/>
<text text-anchor="start" x="559" y="-12.8" font-family="Arial" font-weight="bold" font-size="14.00"> </text>
</g>
<!-- 8&#45;&gt;10 -->
<g id="edge10" class="edge">
<title>8&#45;&gt;10</title>
<path fill="none" stroke="#888888" d="M556.69,-153.67C557.07,-145.39 557.46,-136.83 557.85,-128.38"/>
<polygon fill="#888888" stroke="#888888" points="561.36,-128.33 558.32,-118.18 554.36,-128 561.36,-128.33"/>
</g>
<!-- 12 -->
<g id="node12" class="node">
<title>12</title>
<text text-anchor="start" x="701" y="-99.8" font-family="Arial" font-weight="bold" font-size="14.00"> &lt; 30.17</text>
<path fill="#f8766d" fill-opacity="0.447059" stroke="transparent" d="M681,-27C681,-27 771,-27 771,-27 777,-27 783,-33 783,-39 783,-39 783,-79 783,-79 783,-85 777,-91 771,-91 771,-91 681,-91 681,-91 675,-91 669,-85 669,-79 669,-79 669,-39 669,-39 669,-33 675,-27 681,-27"/>
<text text-anchor="start" x="670" y="-88.4" font-family="Arial" font-size="2.00"> </text>
<text text-anchor="start" x="670" y="-82.4" font-family="Arial" font-size="7.00"> &#160;12</text>
<text text-anchor="start" x="684" y="-65.8" font-family="Arial" font-weight="bold" font-size="14.00">Predict 29.07</text>
<text text-anchor="start" x="706" y="-48.8" font-family="Arial" font-weight="bold" font-size="14.00">n = 29</text>
<text text-anchor="start" x="724.5" y="-30.8" font-family="Arial" font-size="9.00"> </text>
<path fill="none" stroke="#333333" d="M681,-27C681,-27 771,-27 771,-27 777,-27 783,-33 783,-39 783,-39 783,-79 783,-79 783,-85 777,-91 771,-91 771,-91 681,-91 681,-91 675,-91 669,-85 669,-79 669,-79 669,-39 669,-39 669,-33 675,-27 681,-27"/>
<text text-anchor="start" x="724" y="-12.8" font-family="Arial" font-weight="bold" font-size="14.00"> </text>
</g>
<!-- 11&#45;&gt;12 -->
<g id="edge11" class="edge">
<title>11&#45;&gt;12</title>
<path fill="none" stroke="#888888" d="M729.7,-153.67C729.37,-145.39 729.03,-136.83 728.7,-128.38"/>
<polygon fill="#888888" stroke="#888888" points="732.19,-128.03 728.3,-118.18 725.19,-128.31 732.19,-128.03"/>
</g>
<!-- 13 -->
<g id="node13" class="node">
<title>13</title>
<text text-anchor="start" x="857.5" y="-99.8" font-family="Arial" font-weight="bold" font-size="14.00"> ≥ 30.17</text>
<path fill="#f8766d" fill-opacity="0.376471" stroke="transparent" d="M837,-27C837,-27 927,-27 927,-27 933,-27 939,-33 939,-39 939,-39 939,-79 939,-79 939,-85 933,-91 927,-91 927,-91 837,-91 837,-91 831,-91 825,-85 825,-79 825,-79 825,-39 825,-39 825,-33 831,-27 837,-27"/>
<text text-anchor="start" x="826" y="-88.4" font-family="Arial" font-size="2.00"> </text>
<text text-anchor="start" x="826" y="-82.4" font-family="Arial" font-size="7.00"> &#160;13</text>
<text text-anchor="start" x="840" y="-65.8" font-family="Arial" font-weight="bold" font-size="14.00">Predict 31.93</text>
<text text-anchor="start" x="862" y="-48.8" font-family="Arial" font-weight="bold" font-size="14.00">n = 20</text>
<text text-anchor="start" x="880.5" y="-30.8" font-family="Arial" font-size="9.00"> </text>
<path fill="none" stroke="#333333" d="M837,-27C837,-27 927,-27 927,-27 933,-27 939,-33 939,-39 939,-39 939,-79 939,-79 939,-85 933,-91 927,-91 927,-91 837,-91 837,-91 831,-91 825,-85 825,-79 825,-79 825,-39 825,-39 825,-33 831,-27 837,-27"/>
<text text-anchor="start" x="880" y="-12.8" font-family="Arial" font-weight="bold" font-size="14.00"> </text>
</g>
<!-- 11&#45;&gt;13 -->
<g id="edge12" class="edge">
<title>11&#45;&gt;13</title>
<path fill="none" stroke="#888888" d="M789.56,-153.67C798.72,-144.39 808.23,-134.75 817.53,-125.33"/>
<polygon fill="#888888" stroke="#888888" points="820.06,-127.75 824.59,-118.18 815.07,-122.84 820.06,-127.75"/>
</g>
</g>
</svg>
