<?xml version="1.0" encoding="utf-8"?>
<svg xmlns="http://www.w3.org/2000/svg" xmlns:xlink="http://www.w3.org/1999/xlink" width="1000" height="400" viewBox="0 0 4000 1600">
<defs>
  <clipPath id="clip590">
    <rect x="0" y="0" width="4000" height="1600"/>
  </clipPath>
</defs>
<path clip-path="url(#clip590)" d="M0 1600 L4000 1600 L4000 0 L0 0  Z" fill="#ffffff" fill-rule="evenodd" fill-opacity="1"/>
<defs>
  <clipPath id="clip591">
    <rect x="800" y="0" width="2801" height="1600"/>
  </clipPath>
</defs>
<path clip-path="url(#clip590)" d="M206.379 1497.68 L3180.58 1497.68 L3180.58 47.2441 L206.379 47.2441  Z" fill="#ffffff" fill-rule="evenodd" fill-opacity="1"/>
<defs>
  <clipPath id="clip592">
    <rect x="206" y="47" width="2975" height="1451"/>
  </clipPath>
</defs>
<polyline clip-path="url(#clip592)" style="stroke:#000000; stroke-linecap:round; stroke-linejoin:round; stroke-width:2; stroke-opacity:0.1; fill:none" points="290.554,1497.68 290.554,47.2441 "/>
<polyline clip-path="url(#clip592)" style="stroke:#000000; stroke-linecap:round; stroke-linejoin:round; stroke-width:2; stroke-opacity:0.1; fill:none" points="1097.03,1497.68 1097.03,47.2441 "/>
<polyline clip-path="url(#clip592)" style="stroke:#000000; stroke-linecap:round; stroke-linejoin:round; stroke-width:2; stroke-opacity:0.1; fill:none" points="1903.5,1497.68 1903.5,47.2441 "/>
<polyline clip-path="url(#clip592)" style="stroke:#000000; stroke-linecap:round; stroke-linejoin:round; stroke-width:2; stroke-opacity:0.1; fill:none" points="2709.97,1497.68 2709.97,47.2441 "/>
<polyline clip-path="url(#clip590)" style="stroke:#000000; stroke-linecap:round; stroke-linejoin:round; stroke-width:4; stroke-opacity:1; fill:none" points="206.379,1497.68 3180.58,1497.68 "/>
<polyline clip-path="url(#clip590)" style="stroke:#000000; stroke-linecap:round; stroke-linejoin:round; stroke-width:4; stroke-opacity:1; fill:none" points="290.554,1497.68 290.554,1478.78 "/>
<polyline clip-path="url(#clip590)" style="stroke:#000000; stroke-linecap:round; stroke-linejoin:round; stroke-width:4; stroke-opacity:1; fill:none" points="1097.03,1497.68 1097.03,1478.78 "/>
<polyline clip-path="url(#clip590)" style="stroke:#000000; stroke-linecap:round; stroke-linejoin:round; stroke-width:4; stroke-opacity:1; fill:none" points="1903.5,1497.68 1903.5,1478.78 "/>
<polyline clip-path="url(#clip590)" style="stroke:#000000; stroke-linecap:round; stroke-linejoin:round; stroke-width:4; stroke-opacity:1; fill:none" points="2709.97,1497.68 2709.97,1478.78 "/>
<path clip-path="url(#clip590)" d="M145.36 1573.85 L163.719 1573.85 L163.719 1578.28 L139.032 1578.28 L139.032 1573.85 Q142.026 1570.75 147.183 1565.55 Q152.365 1560.31 153.693 1558.8 Q156.219 1555.96 157.209 1554.01 Q158.224 1552.03 158.224 1550.13 Q158.224 1547.03 156.037 1545.08 Q153.875 1543.12 150.386 1543.12 Q147.912 1543.12 145.151 1543.98 Q142.417 1544.84 139.292 1546.59 L139.292 1541.27 Q142.469 1540 145.229 1539.35 Q147.99 1538.7 150.282 1538.7 Q156.323 1538.7 159.917 1541.72 Q163.511 1544.74 163.511 1549.79 Q163.511 1552.19 162.599 1554.35 Q161.714 1556.48 159.344 1559.4 Q158.693 1560.15 155.203 1563.77 Q151.714 1567.37 145.36 1573.85 Z" fill="#000000" fill-rule="nonzero" fill-opacity="1" /><path clip-path="url(#clip590)" d="M186.01 1542.86 Q181.948 1542.86 179.891 1546.87 Q177.859 1550.86 177.859 1558.88 Q177.859 1566.87 179.891 1570.88 Q181.948 1574.87 186.01 1574.87 Q190.099 1574.87 192.13 1570.88 Q194.188 1566.87 194.188 1558.88 Q194.188 1550.86 192.13 1546.87 Q190.099 1542.86 186.01 1542.86 M186.01 1538.7 Q192.547 1538.7 195.984 1543.88 Q199.448 1549.04 199.448 1558.88 Q199.448 1568.7 195.984 1573.88 Q192.547 1579.04 186.01 1579.04 Q179.474 1579.04 176.011 1573.88 Q172.573 1568.7 172.573 1558.88 Q172.573 1549.04 176.011 1543.88 Q179.474 1538.7 186.01 1538.7 Z" fill="#000000" fill-rule="nonzero" fill-opacity="1" /><path clip-path="url(#clip590)" d="M213.224 1573.85 L231.583 1573.85 L231.583 1578.28 L206.896 1578.28 L206.896 1573.85 Q209.891 1570.75 215.047 1565.55 Q220.229 1560.31 221.557 1558.8 Q224.083 1555.96 225.073 1554.01 Q226.088 1552.03 226.088 1550.13 Q226.088 1547.03 223.901 1545.08 Q221.739 1543.12 218.25 1543.12 Q215.776 1543.12 213.016 1543.98 Q210.281 1544.84 207.156 1546.59 L207.156 1541.27 Q210.333 1540 213.094 1539.35 Q215.854 1538.7 218.146 1538.7 Q224.187 1538.7 227.781 1541.72 Q231.375 1544.74 231.375 1549.79 Q231.375 1552.19 230.463 1554.35 Q229.578 1556.48 227.208 1559.4 Q226.557 1560.15 223.068 1563.77 Q219.578 1567.37 213.224 1573.85 Z" fill="#000000" fill-rule="nonzero" fill-opacity="1" /><path clip-path="url(#clip590)" d="M247.156 1573.85 L265.515 1573.85 L265.515 1578.28 L240.828 1578.28 L240.828 1573.85 Q243.823 1570.75 248.979 1565.55 Q254.161 1560.31 255.489 1558.8 Q258.015 1555.96 259.005 1554.01 Q260.021 1552.03 260.021 1550.13 Q260.021 1547.03 257.833 1545.08 Q255.672 1543.12 252.182 1543.12 Q249.708 1543.12 246.948 1543.98 Q244.213 1544.84 241.088 1546.59 L241.088 1541.27 Q244.265 1540 247.026 1539.35 Q249.786 1538.7 252.078 1538.7 Q258.119 1538.7 261.713 1541.72 Q265.307 1544.74 265.307 1549.79 Q265.307 1552.19 264.395 1554.35 Q263.51 1556.48 261.14 1559.4 Q260.489 1560.15 257 1563.77 Q253.51 1567.37 247.156 1573.85 Z" fill="#000000" fill-rule="nonzero" fill-opacity="1" /><path clip-path="url(#clip590)" d="M273.458 1561.54 L287.494 1561.54 L287.494 1565.81 L273.458 1565.81 L273.458 1561.54 Z" fill="#000000" fill-rule="nonzero" fill-opacity="1" /><path clip-path="url(#clip590)" d="M296.713 1573.85 L305.307 1573.85 L305.307 1544.19 L295.958 1546.07 L295.958 1541.27 L305.255 1539.4 L310.515 1539.4 L310.515 1573.85 L319.109 1573.85 L319.109 1578.28 L296.713 1578.28 L296.713 1573.85 Z" fill="#000000" fill-rule="nonzero" fill-opacity="1" /><path clip-path="url(#clip590)" d="M340.984 1542.86 Q336.921 1542.86 334.864 1546.87 Q332.833 1550.86 332.833 1558.88 Q332.833 1566.87 334.864 1570.88 Q336.921 1574.87 340.984 1574.87 Q345.072 1574.87 347.103 1570.88 Q349.161 1566.87 349.161 1558.88 Q349.161 1550.86 347.103 1546.87 Q345.072 1542.86 340.984 1542.86 M340.984 1538.7 Q347.52 1538.7 350.958 1543.88 Q354.421 1549.04 354.421 1558.88 Q354.421 1568.7 350.958 1573.88 Q347.52 1579.04 340.984 1579.04 Q334.447 1579.04 330.984 1573.88 Q327.546 1568.7 327.546 1558.88 Q327.546 1549.04 330.984 1543.88 Q334.447 1538.7 340.984 1538.7 Z" fill="#000000" fill-rule="nonzero" fill-opacity="1" /><path clip-path="url(#clip590)" d="M360.567 1561.54 L374.603 1561.54 L374.603 1565.81 L360.567 1565.81 L360.567 1561.54 Z" fill="#000000" fill-rule="nonzero" fill-opacity="1" /><path clip-path="url(#clip590)" d="M387.442 1573.85 L405.801 1573.85 L405.801 1578.28 L381.114 1578.28 L381.114 1573.85 Q384.108 1570.75 389.265 1565.55 Q394.447 1560.31 395.775 1558.8 Q398.301 1555.96 399.291 1554.01 Q400.306 1552.03 400.306 1550.13 Q400.306 1547.03 398.119 1545.08 Q395.957 1543.12 392.468 1543.12 Q389.994 1543.12 387.233 1543.98 Q384.499 1544.84 381.374 1546.59 L381.374 1541.27 Q384.551 1540 387.311 1539.35 Q390.072 1538.7 392.364 1538.7 Q398.405 1538.7 401.999 1541.72 Q405.593 1544.74 405.593 1549.79 Q405.593 1552.19 404.681 1554.35 Q403.796 1556.48 401.426 1559.4 Q400.775 1560.15 397.285 1563.77 Q393.796 1567.37 387.442 1573.85 Z" fill="#000000" fill-rule="nonzero" fill-opacity="1" /><path clip-path="url(#clip590)" d="M431.296 1543.98 L418.014 1564.74 L431.296 1564.74 L431.296 1543.98 M429.915 1539.4 L436.53 1539.4 L436.53 1564.74 L442.077 1564.74 L442.077 1569.11 L436.53 1569.11 L436.53 1578.28 L431.296 1578.28 L431.296 1569.11 L413.744 1569.11 L413.744 1564.04 L429.915 1539.4 Z" fill="#000000" fill-rule="nonzero" fill-opacity="1" /><path clip-path="url(#clip590)" d="M952.015 1573.85 L970.374 1573.85 L970.374 1578.28 L945.687 1578.28 L945.687 1573.85 Q948.682 1570.75 953.838 1565.55 Q959.02 1560.31 960.348 1558.8 Q962.874 1555.96 963.864 1554.01 Q964.88 1552.03 964.88 1550.13 Q964.88 1547.03 962.692 1545.08 Q960.531 1543.12 957.041 1543.12 Q954.567 1543.12 951.807 1543.98 Q949.072 1544.84 945.947 1546.59 L945.947 1541.27 Q949.124 1540 951.885 1539.35 Q954.645 1538.7 956.937 1538.7 Q962.979 1538.7 966.572 1541.72 Q970.166 1544.74 970.166 1549.79 Q970.166 1552.19 969.255 1554.35 Q968.369 1556.48 965.999 1559.4 Q965.348 1560.15 961.859 1563.77 Q958.369 1567.37 952.015 1573.85 Z" fill="#000000" fill-rule="nonzero" fill-opacity="1" /><path clip-path="url(#clip590)" d="M992.666 1542.86 Q988.603 1542.86 986.546 1546.87 Q984.515 1550.86 984.515 1558.88 Q984.515 1566.87 986.546 1570.88 Q988.603 1574.87 992.666 1574.87 Q996.754 1574.87 998.786 1570.88 Q1000.84 1566.87 1000.84 1558.88 Q1000.84 1550.86 998.786 1546.87 Q996.754 1542.86 992.666 1542.86 M992.666 1538.7 Q999.202 1538.7 1002.64 1543.88 Q1006.1 1549.04 1006.1 1558.88 Q1006.1 1568.7 1002.64 1573.88 Q999.202 1579.04 992.666 1579.04 Q986.129 1579.04 982.666 1573.88 Q979.228 1568.7 979.228 1558.88 Q979.228 1549.04 982.666 1543.88 Q986.129 1538.7 992.666 1538.7 Z" fill="#000000" fill-rule="nonzero" fill-opacity="1" /><path clip-path="url(#clip590)" d="M1019.88 1573.85 L1038.24 1573.85 L1038.24 1578.28 L1013.55 1578.28 L1013.55 1573.85 Q1016.55 1570.75 1021.7 1565.55 Q1026.88 1560.31 1028.21 1558.8 Q1030.74 1555.96 1031.73 1554.01 Q1032.74 1552.03 1032.74 1550.13 Q1032.74 1547.03 1030.56 1545.08 Q1028.39 1543.12 1024.91 1543.12 Q1022.43 1543.12 1019.67 1543.98 Q1016.94 1544.84 1013.81 1546.59 L1013.81 1541.27 Q1016.99 1540 1019.75 1539.35 Q1022.51 1538.7 1024.8 1538.7 Q1030.84 1538.7 1034.44 1541.72 Q1038.03 1544.74 1038.03 1549.79 Q1038.03 1552.19 1037.12 1554.35 Q1036.23 1556.48 1033.86 1559.4 Q1033.21 1560.15 1029.72 1563.77 Q1026.23 1567.37 1019.88 1573.85 Z" fill="#000000" fill-rule="nonzero" fill-opacity="1" /><path clip-path="url(#clip590)" d="M1053.81 1573.85 L1072.17 1573.85 L1072.17 1578.28 L1047.48 1578.28 L1047.48 1573.85 Q1050.48 1570.75 1055.63 1565.55 Q1060.82 1560.31 1062.14 1558.8 Q1064.67 1555.96 1065.66 1554.01 Q1066.68 1552.03 1066.68 1550.13 Q1066.68 1547.03 1064.49 1545.08 Q1062.33 1543.12 1058.84 1543.12 Q1056.36 1543.12 1053.6 1543.98 Q1050.87 1544.84 1047.74 1546.59 L1047.74 1541.27 Q1050.92 1540 1053.68 1539.35 Q1056.44 1538.7 1058.73 1538.7 Q1064.77 1538.7 1068.37 1541.72 Q1071.96 1544.74 1071.96 1549.79 Q1071.96 1552.19 1071.05 1554.35 Q1070.17 1556.48 1067.8 1559.4 Q1067.14 1560.15 1063.66 1563.77 Q1060.17 1567.37 1053.81 1573.85 Z" fill="#000000" fill-rule="nonzero" fill-opacity="1" /><path clip-path="url(#clip590)" d="M1080.11 1561.54 L1094.15 1561.54 L1094.15 1565.81 L1080.11 1565.81 L1080.11 1561.54 Z" fill="#000000" fill-rule="nonzero" fill-opacity="1" /><path clip-path="url(#clip590)" d="M1103.37 1573.85 L1111.96 1573.85 L1111.96 1544.19 L1102.61 1546.07 L1102.61 1541.27 L1111.91 1539.4 L1117.17 1539.4 L1117.17 1573.85 L1125.76 1573.85 L1125.76 1578.28 L1103.37 1578.28 L1103.37 1573.85 Z" fill="#000000" fill-rule="nonzero" fill-opacity="1" /><path clip-path="url(#clip590)" d="M1147.64 1542.86 Q1143.58 1542.86 1141.52 1546.87 Q1139.49 1550.86 1139.49 1558.88 Q1139.49 1566.87 1141.52 1570.88 Q1143.58 1574.87 1147.64 1574.87 Q1151.73 1574.87 1153.76 1570.88 Q1155.82 1566.87 1155.82 1558.88 Q1155.82 1550.86 1153.76 1546.87 Q1151.73 1542.86 1147.64 1542.86 M1147.64 1538.7 Q1154.18 1538.7 1157.61 1543.88 Q1161.08 1549.04 1161.08 1558.88 Q1161.08 1568.7 1157.61 1573.88 Q1154.18 1579.04 1147.64 1579.04 Q1141.1 1579.04 1137.64 1573.88 Q1134.2 1568.7 1134.2 1558.88 Q1134.2 1549.04 1137.64 1543.88 Q1141.1 1538.7 1147.64 1538.7 Z" fill="#000000" fill-rule="nonzero" fill-opacity="1" /><path clip-path="url(#clip590)" d="M1167.22 1561.54 L1181.26 1561.54 L1181.26 1565.81 L1167.22 1565.81 L1167.22 1561.54 Z" fill="#000000" fill-rule="nonzero" fill-opacity="1" /><path clip-path="url(#clip590)" d="M1194.1 1573.85 L1212.46 1573.85 L1212.46 1578.28 L1187.77 1578.28 L1187.77 1573.85 Q1190.76 1570.75 1195.92 1565.55 Q1201.1 1560.31 1202.43 1558.8 Q1204.96 1555.96 1205.95 1554.01 Q1206.96 1552.03 1206.96 1550.13 Q1206.96 1547.03 1204.77 1545.08 Q1202.61 1543.12 1199.12 1543.12 Q1196.65 1543.12 1193.89 1543.98 Q1191.15 1544.84 1188.03 1546.59 L1188.03 1541.27 Q1191.21 1540 1193.97 1539.35 Q1196.73 1538.7 1199.02 1538.7 Q1205.06 1538.7 1208.65 1541.72 Q1212.25 1544.74 1212.25 1549.79 Q1212.25 1552.19 1211.34 1554.35 Q1210.45 1556.48 1208.08 1559.4 Q1207.43 1560.15 1203.94 1563.77 Q1200.45 1567.37 1194.1 1573.85 Z" fill="#000000" fill-rule="nonzero" fill-opacity="1" /><path clip-path="url(#clip590)" d="M1235.4 1556.74 Q1231.86 1556.74 1229.77 1559.17 Q1227.72 1561.59 1227.72 1565.81 Q1227.72 1570 1229.77 1572.45 Q1231.86 1574.87 1235.4 1574.87 Q1238.94 1574.87 1241 1572.45 Q1243.08 1570 1243.08 1565.81 Q1243.08 1561.59 1241 1559.17 Q1238.94 1556.74 1235.4 1556.74 M1245.84 1540.26 L1245.84 1545.05 Q1243.86 1544.11 1241.83 1543.62 Q1239.83 1543.12 1237.85 1543.12 Q1232.64 1543.12 1229.88 1546.64 Q1227.14 1550.16 1226.75 1557.26 Q1228.29 1555 1230.61 1553.8 Q1232.93 1552.58 1235.71 1552.58 Q1241.57 1552.58 1244.96 1556.14 Q1248.37 1559.69 1248.37 1565.81 Q1248.37 1571.8 1244.83 1575.42 Q1241.28 1579.04 1235.4 1579.04 Q1228.65 1579.04 1225.09 1573.88 Q1221.52 1568.7 1221.52 1558.88 Q1221.52 1549.66 1225.89 1544.19 Q1230.27 1538.7 1237.64 1538.7 Q1239.62 1538.7 1241.62 1539.09 Q1243.65 1539.48 1245.84 1540.26 Z" fill="#000000" fill-rule="nonzero" fill-opacity="1" /><path clip-path="url(#clip590)" d="M1758.63 1573.85 L1776.99 1573.85 L1776.99 1578.28 L1752.3 1578.28 L1752.3 1573.85 Q1755.3 1570.75 1760.45 1565.55 Q1765.64 1560.31 1766.96 1558.8 Q1769.49 1555.96 1770.48 1554.01 Q1771.5 1552.03 1771.5 1550.13 Q1771.5 1547.03 1769.31 1545.08 Q1767.15 1543.12 1763.66 1543.12 Q1761.18 1543.12 1758.42 1543.98 Q1755.69 1544.84 1752.56 1546.59 L1752.56 1541.27 Q1755.74 1540 1758.5 1539.35 Q1761.26 1538.7 1763.55 1538.7 Q1769.59 1538.7 1773.19 1541.72 Q1776.78 1544.74 1776.78 1549.79 Q1776.78 1552.19 1775.87 1554.35 Q1774.99 1556.48 1772.62 1559.4 Q1771.96 1560.15 1768.48 1563.77 Q1764.99 1567.37 1758.63 1573.85 Z" fill="#000000" fill-rule="nonzero" fill-opacity="1" /><path clip-path="url(#clip590)" d="M1799.28 1542.86 Q1795.22 1542.86 1793.16 1546.87 Q1791.13 1550.86 1791.13 1558.88 Q1791.13 1566.87 1793.16 1570.88 Q1795.22 1574.87 1799.28 1574.87 Q1803.37 1574.87 1805.4 1570.88 Q1807.46 1566.87 1807.46 1558.88 Q1807.46 1550.86 1805.4 1546.87 Q1803.37 1542.86 1799.28 1542.86 M1799.28 1538.7 Q1805.82 1538.7 1809.26 1543.88 Q1812.72 1549.04 1812.72 1558.88 Q1812.72 1568.7 1809.26 1573.88 Q1805.82 1579.04 1799.28 1579.04 Q1792.75 1579.04 1789.28 1573.88 Q1785.84 1568.7 1785.84 1558.88 Q1785.84 1549.04 1789.28 1543.88 Q1792.75 1538.7 1799.28 1538.7 Z" fill="#000000" fill-rule="nonzero" fill-opacity="1" /><path clip-path="url(#clip590)" d="M1826.5 1573.85 L1844.85 1573.85 L1844.85 1578.28 L1820.17 1578.28 L1820.17 1573.85 Q1823.16 1570.75 1828.32 1565.55 Q1833.5 1560.31 1834.83 1558.8 Q1837.35 1555.96 1838.34 1554.01 Q1839.36 1552.03 1839.36 1550.13 Q1839.36 1547.03 1837.17 1545.08 Q1835.01 1543.12 1831.52 1543.12 Q1829.05 1543.12 1826.29 1543.98 Q1823.55 1544.84 1820.43 1546.59 L1820.43 1541.27 Q1823.6 1540 1826.37 1539.35 Q1829.13 1538.7 1831.42 1538.7 Q1837.46 1538.7 1841.05 1541.72 Q1844.65 1544.74 1844.65 1549.79 Q1844.65 1552.19 1843.74 1554.35 Q1842.85 1556.48 1840.48 1559.4 Q1839.83 1560.15 1836.34 1563.77 Q1832.85 1567.37 1826.5 1573.85 Z" fill="#000000" fill-rule="nonzero" fill-opacity="1" /><path clip-path="url(#clip590)" d="M1860.43 1573.85 L1878.79 1573.85 L1878.79 1578.28 L1854.1 1578.28 L1854.1 1573.85 Q1857.09 1570.75 1862.25 1565.55 Q1867.43 1560.31 1868.76 1558.8 Q1871.29 1555.96 1872.28 1554.01 Q1873.29 1552.03 1873.29 1550.13 Q1873.29 1547.03 1871.1 1545.08 Q1868.94 1543.12 1865.45 1543.12 Q1862.98 1543.12 1860.22 1543.98 Q1857.49 1544.84 1854.36 1546.59 L1854.36 1541.27 Q1857.54 1540 1860.3 1539.35 Q1863.06 1538.7 1865.35 1538.7 Q1871.39 1538.7 1874.98 1541.72 Q1878.58 1544.74 1878.58 1549.79 Q1878.58 1552.19 1877.67 1554.35 Q1876.78 1556.48 1874.41 1559.4 Q1873.76 1560.15 1870.27 1563.77 Q1866.78 1567.37 1860.43 1573.85 Z" fill="#000000" fill-rule="nonzero" fill-opacity="1" /><path clip-path="url(#clip590)" d="M1886.73 1561.54 L1900.77 1561.54 L1900.77 1565.81 L1886.73 1565.81 L1886.73 1561.54 Z" fill="#000000" fill-rule="nonzero" fill-opacity="1" /><path clip-path="url(#clip590)" d="M1909.98 1573.85 L1918.58 1573.85 L1918.58 1544.19 L1909.23 1546.07 L1909.23 1541.27 L1918.53 1539.4 L1923.79 1539.4 L1923.79 1573.85 L1932.38 1573.85 L1932.38 1578.28 L1909.98 1578.28 L1909.98 1573.85 Z" fill="#000000" fill-rule="nonzero" fill-opacity="1" /><path clip-path="url(#clip590)" d="M1954.26 1542.86 Q1950.19 1542.86 1948.14 1546.87 Q1946.1 1550.86 1946.1 1558.88 Q1946.1 1566.87 1948.14 1570.88 Q1950.19 1574.87 1954.26 1574.87 Q1958.34 1574.87 1960.38 1570.88 Q1962.43 1566.87 1962.43 1558.88 Q1962.43 1550.86 1960.38 1546.87 Q1958.34 1542.86 1954.26 1542.86 M1954.26 1538.7 Q1960.79 1538.7 1964.23 1543.88 Q1967.69 1549.04 1967.69 1558.88 Q1967.69 1568.7 1964.23 1573.88 Q1960.79 1579.04 1954.26 1579.04 Q1947.72 1579.04 1944.26 1573.88 Q1940.82 1568.7 1940.82 1558.88 Q1940.82 1549.04 1944.26 1543.88 Q1947.72 1538.7 1954.26 1538.7 Z" fill="#000000" fill-rule="nonzero" fill-opacity="1" /><path clip-path="url(#clip590)" d="M1973.84 1561.54 L1987.87 1561.54 L1987.87 1565.81 L1973.84 1565.81 L1973.84 1561.54 Z" fill="#000000" fill-rule="nonzero" fill-opacity="1" /><path clip-path="url(#clip590)" d="M2000.71 1573.85 L2019.07 1573.85 L2019.07 1578.28 L1994.39 1578.28 L1994.39 1573.85 Q1997.38 1570.75 2002.54 1565.55 Q2007.72 1560.31 2009.05 1558.8 Q2011.57 1555.96 2012.56 1554.01 Q2013.58 1552.03 2013.58 1550.13 Q2013.58 1547.03 2011.39 1545.08 Q2009.23 1543.12 2005.74 1543.12 Q2003.27 1543.12 2000.51 1543.98 Q1997.77 1544.84 1994.65 1546.59 L1994.65 1541.27 Q1997.82 1540 2000.58 1539.35 Q2003.34 1538.7 2005.64 1538.7 Q2011.68 1538.7 2015.27 1541.72 Q2018.86 1544.74 2018.86 1549.79 Q2018.86 1552.19 2017.95 1554.35 Q2017.07 1556.48 2014.7 1559.4 Q2014.05 1560.15 2010.56 1563.77 Q2007.07 1567.37 2000.71 1573.85 Z" fill="#000000" fill-rule="nonzero" fill-opacity="1" /><path clip-path="url(#clip590)" d="M2041.36 1559.82 Q2037.61 1559.82 2035.45 1561.82 Q2033.32 1563.83 2033.32 1567.34 Q2033.32 1570.86 2035.45 1572.86 Q2037.61 1574.87 2041.36 1574.87 Q2045.11 1574.87 2047.28 1572.86 Q2049.44 1570.83 2049.44 1567.34 Q2049.44 1563.83 2047.28 1561.82 Q2045.14 1559.82 2041.36 1559.82 M2036.1 1557.58 Q2032.72 1556.74 2030.82 1554.43 Q2028.94 1552.11 2028.94 1548.77 Q2028.94 1544.11 2032.25 1541.41 Q2035.58 1538.7 2041.36 1538.7 Q2047.17 1538.7 2050.48 1541.41 Q2053.79 1544.11 2053.79 1548.77 Q2053.79 1552.11 2051.89 1554.43 Q2050.01 1556.74 2046.65 1557.58 Q2050.45 1558.46 2052.56 1561.04 Q2054.7 1563.62 2054.7 1567.34 Q2054.7 1572.99 2051.23 1576.01 Q2047.8 1579.04 2041.36 1579.04 Q2034.93 1579.04 2031.47 1576.01 Q2028.03 1572.99 2028.03 1567.34 Q2028.03 1563.62 2030.17 1561.04 Q2032.3 1558.46 2036.1 1557.58 M2034.18 1549.27 Q2034.18 1552.29 2036.05 1553.98 Q2037.95 1555.68 2041.36 1555.68 Q2044.75 1555.68 2046.65 1553.98 Q2048.58 1552.29 2048.58 1549.27 Q2048.58 1546.25 2046.65 1544.56 Q2044.75 1542.86 2041.36 1542.86 Q2037.95 1542.86 2036.05 1544.56 Q2034.18 1546.25 2034.18 1549.27 Z" fill="#000000" fill-rule="nonzero" fill-opacity="1" /><path clip-path="url(#clip590)" d="M2565.05 1573.85 L2583.41 1573.85 L2583.41 1578.28 L2558.72 1578.28 L2558.72 1573.85 Q2561.72 1570.75 2566.88 1565.55 Q2572.06 1560.31 2573.39 1558.8 Q2575.91 1555.96 2576.9 1554.01 Q2577.92 1552.03 2577.92 1550.13 Q2577.92 1547.03 2575.73 1545.08 Q2573.57 1543.12 2570.08 1543.12 Q2567.6 1543.12 2564.84 1543.98 Q2562.11 1544.84 2558.98 1546.59 L2558.98 1541.27 Q2562.16 1540 2564.92 1539.35 Q2567.68 1538.7 2569.97 1538.7 Q2576.02 1538.7 2579.61 1541.72 Q2583.2 1544.74 2583.2 1549.79 Q2583.2 1552.19 2582.29 1554.35 Q2581.41 1556.48 2579.04 1559.4 Q2578.39 1560.15 2574.9 1563.77 Q2571.41 1567.37 2565.05 1573.85 Z" fill="#000000" fill-rule="nonzero" fill-opacity="1" /><path clip-path="url(#clip590)" d="M2605.7 1542.86 Q2601.64 1542.86 2599.58 1546.87 Q2597.55 1550.86 2597.55 1558.88 Q2597.55 1566.87 2599.58 1570.88 Q2601.64 1574.87 2605.7 1574.87 Q2609.79 1574.87 2611.82 1570.88 Q2613.88 1566.87 2613.88 1558.88 Q2613.88 1550.86 2611.82 1546.87 Q2609.79 1542.86 2605.7 1542.86 M2605.7 1538.7 Q2612.24 1538.7 2615.68 1543.88 Q2619.14 1549.04 2619.14 1558.88 Q2619.14 1568.7 2615.68 1573.88 Q2612.24 1579.04 2605.7 1579.04 Q2599.17 1579.04 2595.7 1573.88 Q2592.27 1568.7 2592.27 1558.88 Q2592.27 1549.04 2595.7 1543.88 Q2599.17 1538.7 2605.7 1538.7 Z" fill="#000000" fill-rule="nonzero" fill-opacity="1" /><path clip-path="url(#clip590)" d="M2632.92 1573.85 L2651.28 1573.85 L2651.28 1578.28 L2626.59 1578.28 L2626.59 1573.85 Q2629.58 1570.75 2634.74 1565.55 Q2639.92 1560.31 2641.25 1558.8 Q2643.78 1555.96 2644.77 1554.01 Q2645.78 1552.03 2645.78 1550.13 Q2645.78 1547.03 2643.59 1545.08 Q2641.43 1543.12 2637.94 1543.12 Q2635.47 1543.12 2632.71 1543.98 Q2629.97 1544.84 2626.85 1546.59 L2626.85 1541.27 Q2630.03 1540 2632.79 1539.35 Q2635.55 1538.7 2637.84 1538.7 Q2643.88 1538.7 2647.47 1541.72 Q2651.07 1544.74 2651.07 1549.79 Q2651.07 1552.19 2650.16 1554.35 Q2649.27 1556.48 2646.9 1559.4 Q2646.25 1560.15 2642.76 1563.77 Q2639.27 1567.37 2632.92 1573.85 Z" fill="#000000" fill-rule="nonzero" fill-opacity="1" /><path clip-path="url(#clip590)" d="M2666.85 1573.85 L2685.21 1573.85 L2685.21 1578.28 L2660.52 1578.28 L2660.52 1573.85 Q2663.52 1570.75 2668.67 1565.55 Q2673.85 1560.31 2675.18 1558.8 Q2677.71 1555.96 2678.7 1554.01 Q2679.71 1552.03 2679.71 1550.13 Q2679.71 1547.03 2677.53 1545.08 Q2675.36 1543.12 2671.87 1543.12 Q2669.4 1543.12 2666.64 1543.98 Q2663.91 1544.84 2660.78 1546.59 L2660.78 1541.27 Q2663.96 1540 2666.72 1539.35 Q2669.48 1538.7 2671.77 1538.7 Q2677.81 1538.7 2681.41 1541.72 Q2685 1544.74 2685 1549.79 Q2685 1552.19 2684.09 1554.35 Q2683.2 1556.48 2680.83 1559.4 Q2680.18 1560.15 2676.69 1563.77 Q2673.2 1567.37 2666.85 1573.85 Z" fill="#000000" fill-rule="nonzero" fill-opacity="1" /><path clip-path="url(#clip590)" d="M2693.15 1561.54 L2707.19 1561.54 L2707.19 1565.81 L2693.15 1565.81 L2693.15 1561.54 Z" fill="#000000" fill-rule="nonzero" fill-opacity="1" /><path clip-path="url(#clip590)" d="M2716.41 1573.85 L2725 1573.85 L2725 1544.19 L2715.65 1546.07 L2715.65 1541.27 L2724.95 1539.4 L2730.21 1539.4 L2730.21 1573.85 L2738.8 1573.85 L2738.8 1578.28 L2716.41 1578.28 L2716.41 1573.85 Z" fill="#000000" fill-rule="nonzero" fill-opacity="1" /><path clip-path="url(#clip590)" d="M2760.68 1542.86 Q2756.61 1542.86 2754.56 1546.87 Q2752.53 1550.86 2752.53 1558.88 Q2752.53 1566.87 2754.56 1570.88 Q2756.61 1574.87 2760.68 1574.87 Q2764.76 1574.87 2766.8 1570.88 Q2768.85 1566.87 2768.85 1558.88 Q2768.85 1550.86 2766.8 1546.87 Q2764.76 1542.86 2760.68 1542.86 M2760.68 1538.7 Q2767.21 1538.7 2770.65 1543.88 Q2774.11 1549.04 2774.11 1558.88 Q2774.11 1568.7 2770.65 1573.88 Q2767.21 1579.04 2760.68 1579.04 Q2754.14 1579.04 2750.68 1573.88 Q2747.24 1568.7 2747.24 1558.88 Q2747.24 1549.04 2750.68 1543.88 Q2754.14 1538.7 2760.68 1538.7 Z" fill="#000000" fill-rule="nonzero" fill-opacity="1" /><path clip-path="url(#clip590)" d="M2780.26 1561.54 L2794.3 1561.54 L2794.3 1565.81 L2780.26 1565.81 L2780.26 1561.54 Z" fill="#000000" fill-rule="nonzero" fill-opacity="1" /><path clip-path="url(#clip590)" d="M2818.54 1557.32 Q2822.32 1558.12 2824.43 1560.68 Q2826.56 1563.23 2826.56 1566.98 Q2826.56 1572.73 2822.6 1575.88 Q2818.64 1579.04 2811.35 1579.04 Q2808.91 1579.04 2806.3 1578.54 Q2803.72 1578.07 2800.96 1577.11 L2800.96 1572.03 Q2803.15 1573.31 2805.75 1573.96 Q2808.36 1574.61 2811.2 1574.61 Q2816.14 1574.61 2818.72 1572.65 Q2821.33 1570.7 2821.33 1566.98 Q2821.33 1563.54 2818.91 1561.61 Q2816.51 1559.66 2812.21 1559.66 L2807.68 1559.66 L2807.68 1555.34 L2812.42 1555.34 Q2816.3 1555.34 2818.36 1553.8 Q2820.42 1552.24 2820.42 1549.32 Q2820.42 1546.33 2818.28 1544.74 Q2816.17 1543.12 2812.21 1543.12 Q2810.05 1543.12 2807.58 1543.59 Q2805.1 1544.06 2802.13 1545.05 L2802.13 1540.36 Q2805.13 1539.53 2807.73 1539.11 Q2810.36 1538.7 2812.68 1538.7 Q2818.67 1538.7 2822.16 1541.43 Q2825.65 1544.14 2825.65 1548.77 Q2825.65 1552 2823.8 1554.24 Q2821.95 1556.46 2818.54 1557.32 Z" fill="#000000" fill-rule="nonzero" fill-opacity="1" /><path clip-path="url(#clip590)" d="M2847.79 1542.86 Q2843.72 1542.86 2841.67 1546.87 Q2839.63 1550.86 2839.63 1558.88 Q2839.63 1566.87 2841.67 1570.88 Q2843.72 1574.87 2847.79 1574.87 Q2851.87 1574.87 2853.91 1570.88 Q2855.96 1566.87 2855.96 1558.88 Q2855.96 1550.86 2853.91 1546.87 Q2851.87 1542.86 2847.79 1542.86 M2847.79 1538.7 Q2854.32 1538.7 2857.76 1543.88 Q2861.22 1549.04 2861.22 1558.88 Q2861.22 1568.7 2857.76 1573.88 Q2854.32 1579.04 2847.79 1579.04 Q2841.25 1579.04 2837.79 1573.88 Q2834.35 1568.7 2834.35 1558.88 Q2834.35 1549.04 2837.79 1543.88 Q2841.25 1538.7 2847.79 1538.7 Z" fill="#000000" fill-rule="nonzero" fill-opacity="1" /><polyline clip-path="url(#clip592)" style="stroke:#000000; stroke-linecap:round; stroke-linejoin:round; stroke-width:2; stroke-opacity:0.1; fill:none" points="206.379,1445.6 3180.58,1445.6 "/>
<polyline clip-path="url(#clip592)" style="stroke:#000000; stroke-linecap:round; stroke-linejoin:round; stroke-width:2; stroke-opacity:0.1; fill:none" points="206.379,1155.33 3180.58,1155.33 "/>
<polyline clip-path="url(#clip592)" style="stroke:#000000; stroke-linecap:round; stroke-linejoin:round; stroke-width:2; stroke-opacity:0.1; fill:none" points="206.379,865.058 3180.58,865.058 "/>
<polyline clip-path="url(#clip592)" style="stroke:#000000; stroke-linecap:round; stroke-linejoin:round; stroke-width:2; stroke-opacity:0.1; fill:none" points="206.379,574.788 3180.58,574.788 "/>
<polyline clip-path="url(#clip592)" style="stroke:#000000; stroke-linecap:round; stroke-linejoin:round; stroke-width:2; stroke-opacity:0.1; fill:none" points="206.379,284.517 3180.58,284.517 "/>
<polyline clip-path="url(#clip590)" style="stroke:#000000; stroke-linecap:round; stroke-linejoin:round; stroke-width:4; stroke-opacity:1; fill:none" points="206.379,1497.68 206.379,47.2441 "/>
<polyline clip-path="url(#clip590)" style="stroke:#000000; stroke-linecap:round; stroke-linejoin:round; stroke-width:4; stroke-opacity:1; fill:none" points="206.379,1445.6 221.381,1445.6 "/>
<polyline clip-path="url(#clip590)" style="stroke:#000000; stroke-linecap:round; stroke-linejoin:round; stroke-width:4; stroke-opacity:1; fill:none" points="206.379,1155.33 221.381,1155.33 "/>
<polyline clip-path="url(#clip590)" style="stroke:#000000; stroke-linecap:round; stroke-linejoin:round; stroke-width:4; stroke-opacity:1; fill:none" points="206.379,865.058 221.381,865.058 "/>
<polyline clip-path="url(#clip590)" style="stroke:#000000; stroke-linecap:round; stroke-linejoin:round; stroke-width:4; stroke-opacity:1; fill:none" points="206.379,574.788 221.381,574.788 "/>
<polyline clip-path="url(#clip590)" style="stroke:#000000; stroke-linecap:round; stroke-linejoin:round; stroke-width:4; stroke-opacity:1; fill:none" points="206.379,284.517 221.381,284.517 "/>
<path clip-path="url(#clip590)" d="M92.2903 1460.61 L110.65 1460.61 L110.65 1465.04 L85.9622 1465.04 L85.9622 1460.61 Q88.957 1457.51 94.1132 1452.31 Q99.2955 1447.07 100.624 1445.56 Q103.15 1442.72 104.139 1440.77 Q105.155 1438.79 105.155 1436.89 Q105.155 1433.79 102.967 1431.84 Q100.806 1429.88 97.3163 1429.88 Q94.8424 1429.88 92.082 1430.74 Q89.3476 1431.6 86.2226 1433.35 L86.2226 1428.03 Q89.3997 1426.76 92.1601 1426.11 Q94.9205 1425.46 97.2122 1425.46 Q103.254 1425.46 106.848 1428.48 Q110.441 1431.5 110.441 1436.55 Q110.441 1438.95 109.53 1441.11 Q108.644 1443.24 106.275 1446.16 Q105.624 1446.91 102.134 1450.53 Q98.6445 1454.13 92.2903 1460.61 Z" fill="#000000" fill-rule="nonzero" fill-opacity="1" /><path clip-path="url(#clip590)" d="M132.941 1429.62 Q128.879 1429.62 126.821 1433.63 Q124.79 1437.62 124.79 1445.64 Q124.79 1453.63 126.821 1457.64 Q128.879 1461.63 132.941 1461.63 Q137.03 1461.63 139.061 1457.64 Q141.118 1453.63 141.118 1445.64 Q141.118 1437.62 139.061 1433.63 Q137.03 1429.62 132.941 1429.62 M132.941 1425.46 Q139.478 1425.46 142.915 1430.64 Q146.379 1435.79 146.379 1445.64 Q146.379 1455.46 142.915 1460.64 Q139.478 1465.79 132.941 1465.79 Q126.405 1465.79 122.941 1460.64 Q119.504 1455.46 119.504 1445.64 Q119.504 1435.79 122.941 1430.64 Q126.405 1425.46 132.941 1425.46 Z" fill="#000000" fill-rule="nonzero" fill-opacity="1" /><path clip-path="url(#clip590)" d="M93.4101 1170.34 L111.769 1170.34 L111.769 1174.77 L87.082 1174.77 L87.082 1170.34 Q90.0768 1167.24 95.233 1162.03 Q100.415 1156.8 101.743 1155.29 Q104.269 1152.45 105.259 1150.5 Q106.275 1148.52 106.275 1146.62 Q106.275 1143.52 104.087 1141.57 Q101.926 1139.61 98.4361 1139.61 Q95.9622 1139.61 93.2018 1140.47 Q90.4674 1141.33 87.3424 1143.08 L87.3424 1137.76 Q90.5195 1136.49 93.2799 1135.84 Q96.0403 1135.19 98.332 1135.19 Q104.374 1135.19 107.967 1138.21 Q111.561 1141.23 111.561 1146.28 Q111.561 1148.68 110.65 1150.84 Q109.764 1152.97 107.394 1155.89 Q106.743 1156.64 103.254 1160.26 Q99.7642 1163.86 93.4101 1170.34 Z" fill="#000000" fill-rule="nonzero" fill-opacity="1" /><path clip-path="url(#clip590)" d="M122.863 1135.89 L143.514 1135.89 L143.514 1140.32 L127.681 1140.32 L127.681 1149.85 Q128.827 1149.46 129.972 1149.27 Q131.118 1149.07 132.264 1149.07 Q138.774 1149.07 142.577 1152.63 Q146.379 1156.2 146.379 1162.3 Q146.379 1168.57 142.472 1172.06 Q138.566 1175.52 131.457 1175.52 Q129.009 1175.52 126.457 1175.11 Q123.931 1174.69 121.222 1173.86 L121.222 1168.57 Q123.566 1169.85 126.066 1170.47 Q128.566 1171.1 131.353 1171.1 Q135.858 1171.1 138.488 1168.73 Q141.118 1166.36 141.118 1162.3 Q141.118 1158.23 138.488 1155.86 Q135.858 1153.49 131.353 1153.49 Q129.243 1153.49 127.134 1153.96 Q125.051 1154.43 122.863 1155.42 L122.863 1135.89 Z" fill="#000000" fill-rule="nonzero" fill-opacity="1" /><path clip-path="url(#clip590)" d="M103.697 863.535 Q107.473 864.342 109.582 866.894 Q111.717 869.446 111.717 873.196 Q111.717 878.951 107.759 882.102 Q103.801 885.254 96.5091 885.254 Q94.0611 885.254 91.457 884.759 Q88.8789 884.29 86.1185 883.326 L86.1185 878.248 Q88.306 879.524 90.9101 880.175 Q93.5143 880.826 96.3528 880.826 Q101.301 880.826 103.879 878.873 Q106.483 876.92 106.483 873.196 Q106.483 869.759 104.061 867.832 Q101.665 865.879 97.3684 865.879 L92.8372 865.879 L92.8372 861.556 L97.5768 861.556 Q101.457 861.556 103.514 860.019 Q105.572 858.457 105.572 855.54 Q105.572 852.545 103.436 850.957 Q101.327 849.342 97.3684 849.342 Q95.207 849.342 92.733 849.811 Q90.2591 850.28 87.2904 851.269 L87.2904 846.582 Q90.2851 845.749 92.8893 845.332 Q95.5195 844.915 97.8372 844.915 Q103.827 844.915 107.316 847.65 Q110.806 850.358 110.806 854.993 Q110.806 858.222 108.957 860.462 Q107.108 862.676 103.697 863.535 Z" fill="#000000" fill-rule="nonzero" fill-opacity="1" /><path clip-path="url(#clip590)" d="M132.941 849.082 Q128.879 849.082 126.821 853.092 Q124.79 857.077 124.79 865.097 Q124.79 873.092 126.821 877.103 Q128.879 881.087 132.941 881.087 Q137.03 881.087 139.061 877.103 Q141.118 873.092 141.118 865.097 Q141.118 857.077 139.061 853.092 Q137.03 849.082 132.941 849.082 M132.941 844.915 Q139.478 844.915 142.915 850.097 Q146.379 855.254 146.379 865.097 Q146.379 874.915 142.915 880.097 Q139.478 885.254 132.941 885.254 Q126.405 885.254 122.941 880.097 Q119.504 874.915 119.504 865.097 Q119.504 855.254 122.941 850.097 Q126.405 844.915 132.941 844.915 Z" fill="#000000" fill-rule="nonzero" fill-opacity="1" /><path clip-path="url(#clip590)" d="M104.816 573.264 Q108.592 574.072 110.702 576.624 Q112.837 579.176 112.837 582.926 Q112.837 588.681 108.879 591.832 Q104.92 594.983 97.6288 594.983 Q95.1809 594.983 92.5768 594.488 Q89.9987 594.019 87.2383 593.056 L87.2383 587.978 Q89.4258 589.254 92.0299 589.905 Q94.6341 590.556 97.4726 590.556 Q102.42 590.556 104.999 588.603 Q107.603 586.65 107.603 582.926 Q107.603 579.488 105.181 577.561 Q102.785 575.608 98.4882 575.608 L93.957 575.608 L93.957 571.285 L98.6965 571.285 Q102.577 571.285 104.634 569.749 Q106.691 568.186 106.691 565.27 Q106.691 562.275 104.556 560.686 Q102.447 559.072 98.4882 559.072 Q96.3268 559.072 93.8528 559.54 Q91.3789 560.009 88.4101 560.999 L88.4101 556.311 Q91.4049 555.478 94.0091 555.061 Q96.6393 554.645 98.957 554.645 Q104.947 554.645 108.436 557.379 Q111.926 560.087 111.926 564.723 Q111.926 567.952 110.077 570.191 Q108.228 572.405 104.816 573.264 Z" fill="#000000" fill-rule="nonzero" fill-opacity="1" /><path clip-path="url(#clip590)" d="M122.863 555.348 L143.514 555.348 L143.514 559.775 L127.681 559.775 L127.681 569.306 Q128.827 568.915 129.972 568.733 Q131.118 568.525 132.264 568.525 Q138.774 568.525 142.577 572.092 Q146.379 575.66 146.379 581.754 Q146.379 588.03 142.472 591.519 Q138.566 594.983 131.457 594.983 Q129.009 594.983 126.457 594.566 Q123.931 594.15 121.222 593.316 L121.222 588.03 Q123.566 589.306 126.066 589.931 Q128.566 590.556 131.353 590.556 Q135.858 590.556 138.488 588.186 Q141.118 585.816 141.118 581.754 Q141.118 577.691 138.488 575.322 Q135.858 572.952 131.353 572.952 Q129.243 572.952 127.134 573.421 Q125.051 573.889 122.863 574.879 L122.863 555.348 Z" fill="#000000" fill-rule="nonzero" fill-opacity="1" /><path clip-path="url(#clip590)" d="M102.212 269.66 L88.931 290.415 L102.212 290.415 L102.212 269.66 M100.832 265.077 L107.446 265.077 L107.446 290.415 L112.993 290.415 L112.993 294.79 L107.446 294.79 L107.446 303.957 L102.212 303.957 L102.212 294.79 L84.6602 294.79 L84.6602 289.712 L100.832 265.077 Z" fill="#000000" fill-rule="nonzero" fill-opacity="1" /><path clip-path="url(#clip590)" d="M132.941 268.541 Q128.879 268.541 126.821 272.551 Q124.79 276.535 124.79 284.556 Q124.79 292.551 126.821 296.561 Q128.879 300.546 132.941 300.546 Q137.03 300.546 139.061 296.561 Q141.118 292.551 141.118 284.556 Q141.118 276.535 139.061 272.551 Q137.03 268.541 132.941 268.541 M132.941 264.374 Q139.478 264.374 142.915 269.556 Q146.379 274.712 146.379 284.556 Q146.379 294.374 142.915 299.556 Q139.478 304.712 132.941 304.712 Q126.405 304.712 122.941 299.556 Q119.504 294.374 119.504 284.556 Q119.504 274.712 122.941 269.556 Q126.405 264.374 132.941 264.374 Z" fill="#000000" fill-rule="nonzero" fill-opacity="1" /><path clip-path="url(#clip590)" d="M-31.4998 930.013 L-31.4998 924.168 L11.7002 924.168 L11.7002 930.013 L-31.4998 930.013 Z" fill="#000000" fill-rule="nonzero" fill-opacity="1" /><path clip-path="url(#clip590)" d="M-7.85992 885.829 L11.7002 885.829 L11.7002 891.153 L-7.68631 891.153 Q-12.287 891.153 -14.5728 892.947 Q-16.8587 894.741 -16.8587 898.329 Q-16.8587 902.641 -14.1099 905.129 Q-11.3611 907.618 -6.61572 907.618 L11.7002 907.618 L11.7002 912.97 L-20.7071 912.97 L-20.7071 907.618 L-15.6724 907.618 Q-18.5948 905.708 -20.0416 903.133 Q-21.4883 900.528 -21.4883 897.143 Q-21.4883 891.559 -18.0161 888.694 Q-14.5728 885.829 -7.85992 885.829 Z" fill="#000000" fill-rule="nonzero" fill-opacity="1" /><path clip-path="url(#clip590)" d="M-33.3227 858.804 L-28.8957 858.804 L-28.8957 863.897 Q-28.8957 866.761 -27.7383 867.89 Q-26.5809 868.989 -23.5716 868.989 L-20.7071 868.989 L-20.7071 860.222 L-16.5694 860.222 L-16.5694 868.989 L11.7002 868.989 L11.7002 874.342 L-16.5694 874.342 L-16.5694 879.435 L-20.7071 879.435 L-20.7071 874.342 L-22.964 874.342 Q-28.3749 874.342 -30.8343 871.825 Q-33.3227 869.308 -33.3227 863.839 L-33.3227 858.804 Z" fill="#000000" fill-rule="nonzero" fill-opacity="1" /><path clip-path="url(#clip590)" d="M-33.3227 854.348 L-33.3227 849.024 L11.7002 849.024 L11.7002 854.348 L-33.3227 854.348 Z" fill="#000000" fill-rule="nonzero" fill-opacity="1" /><path clip-path="url(#clip590)" d="M-16.9745 825.326 Q-16.9745 829.609 -13.618 832.097 Q-10.2905 834.585 -4.47452 834.585 Q1.34142 834.585 4.69788 832.126 Q8.02541 829.638 8.02541 825.326 Q8.02541 821.073 4.66895 818.584 Q1.31248 816.096 -4.47452 816.096 Q-10.2326 816.096 -13.5891 818.584 Q-16.9745 821.073 -16.9745 825.326 M-21.4883 825.326 Q-21.4883 818.382 -16.9745 814.418 Q-12.4606 810.454 -4.47452 810.454 Q3.48261 810.454 8.02541 814.418 Q12.5393 818.382 12.5393 825.326 Q12.5393 832.3 8.02541 836.264 Q3.48261 840.199 -4.47452 840.199 Q-12.4606 840.199 -16.9745 836.264 Q-21.4883 832.3 -21.4883 825.326 Z" fill="#000000" fill-rule="nonzero" fill-opacity="1" /><path clip-path="url(#clip590)" d="M-20.7071 804.725 L-20.7071 799.4 L4.58214 792.745 L-20.7071 786.119 L-20.7071 779.84 L4.58214 773.185 L-20.7071 766.559 L-20.7071 761.235 L11.7002 769.713 L11.7002 775.992 L-14.8622 782.965 L11.7002 789.968 L11.7002 796.247 L-20.7071 804.725 Z" fill="#000000" fill-rule="nonzero" fill-opacity="1" /><path clip-path="url(#clip590)" d="M-33.3227 734.818 L-33.3227 722.549 L-29.185 722.549 L-29.185 729.493 L15.3749 729.493 L15.3749 722.549 L19.5126 722.549 L19.5126 734.818 L-33.3227 734.818 Z" fill="#000000" fill-rule="nonzero" fill-opacity="1" /><path clip-path="url(#clip590)" d="M-31.4998 710.975 L-31.4998 705.13 L6.7812 705.13 L6.7812 684.094 L11.7002 684.094 L11.7002 710.975 L-31.4998 710.975 Z" fill="#000000" fill-rule="nonzero" fill-opacity="1" /><path clip-path="url(#clip590)" d="M-31.4998 668.73 L-31.4998 663.811 L17.1978 678.857 L17.1978 683.776 L-31.4998 668.73 Z" fill="#000000" fill-rule="nonzero" fill-opacity="1" /><path clip-path="url(#clip590)" d="M-19.7522 637.567 L-14.7175 637.567 Q-15.8749 639.824 -16.4536 642.254 Q-17.0323 644.685 -17.0323 647.289 Q-17.0323 651.253 -15.8171 653.25 Q-14.6018 655.217 -12.1712 655.217 Q-10.3194 655.217 -9.2488 653.799 Q-8.20714 652.382 -7.25229 648.099 L-6.8472 646.276 Q-5.63193 640.605 -3.40393 638.232 Q-1.20487 635.831 2.75923 635.831 Q7.2731 635.831 9.90619 639.419 Q12.5393 642.978 12.5393 649.228 Q12.5393 651.832 12.0184 654.667 Q11.5265 657.474 10.5138 660.599 L5.01617 660.599 Q6.54972 657.648 7.33097 654.783 Q8.08328 651.919 8.08328 649.112 Q8.08328 645.35 6.81014 643.325 Q5.50806 641.299 3.16432 641.299 Q0.994196 641.299 -0.163205 642.775 Q-1.32061 644.222 -2.3912 649.17 L-2.82523 651.022 Q-3.86689 655.97 -6.00808 658.169 Q-8.17821 660.368 -11.9398 660.368 Q-16.5115 660.368 -18.9999 657.127 Q-21.4883 653.886 -21.4883 647.926 Q-21.4883 644.974 -21.0543 642.37 Q-20.6203 639.766 -19.7522 637.567 Z" fill="#000000" fill-rule="nonzero" fill-opacity="1" /><path clip-path="url(#clip590)" d="M-33.3227 614.911 L19.5126 614.911 L19.5126 627.179 L15.3749 627.179 L15.3749 620.264 L-29.185 620.264 L-29.185 627.179 L-33.3227 627.179 L-33.3227 614.911 Z" fill="#000000" fill-rule="nonzero" fill-opacity="1" /><polyline clip-path="url(#clip592)" style="stroke:#023eff; stroke-linecap:round; stroke-linejoin:round; stroke-width:5; stroke-opacity:1; fill:none" points="290.554,1303.3 307.356,1347.47 324.157,1249.59 340.959,1249.59 357.76,1347.47 374.562,1347.47 391.363,1025.27 408.165,878.608 424.966,753.182 441.768,753.182 458.569,753.182 475.371,753.182 492.172,753.182 508.974,753.182 525.776,833.582 542.577,833.582 559.379,833.582 576.18,964.371 592.982,878.608 609.783,1025.27 626.585,1156.24 643.386,1156.24 660.188,1268.97 676.989,1268.97 693.791,1323.38 710.592,1323.38 727.394,1323.38 744.195,1323.38 760.997,1323.38 777.798,1323.38 794.6,1029.21 811.401,800.544 828.203,761.521 845.004,761.521 861.806,761.521 878.608,730.291 895.409,815.092 912.211,815.092 929.012,800.544 945.814,815.092 962.615,815.092 979.417,948.682 996.218,948.682 1013.02,948.682 1029.82,948.682 1046.62,1098.04 1063.42,1230.21 1080.23,1230.21 1097.03,1332.76 1113.83,1332.76 1130.63,1332.76 1147.43,1332.76 1164.23,1332.76 1181.03,1332.76 1197.84,1059.32 1214.64,761.521 1231.44,761.521 1248.24,761.521 1265.04,761.521 1281.84,800.544 1298.65,815.092 1315.45,815.092 1332.25,815.092 1349.05,800.544 1365.85,815.092 1382.65,948.682 1399.45,948.682 1416.26,948.682 1433.06,948.682 1449.86,1098.04 1466.66,1215.62 1483.46,1296.56 1500.26,1332.76 1517.07,1332.76 1533.87,1332.76 1550.67,1332.76 1567.47,1343.87 1584.27,1343.87 1601.07,1059.32 1617.87,876.828 1634.68,761.521 1651.48,761.521 1668.28,800.544 1685.08,780.648 1701.88,815.092 1718.68,815.092 1735.49,815.092 1752.29,800.544 1769.09,815.092 1785.89,948.682 1802.69,948.682 1819.49,948.682 1836.29,948.682 1853.1,1098.04 1869.9,1215.62 1886.7,1296.56 1903.5,1332.76 1920.3,1332.76 1937.1,1332.76 1953.9,1332.76 1970.71,1332.76 1987.51,1332.76 2004.31,1059.32 2021.11,761.521 2037.91,761.521 2054.71,1165.34 2071.52,876.828 2088.32,761.521 2105.12,800.544 2121.92,815.092 2138.72,800.544 2155.52,800.544 2172.32,800.544 2189.13,948.682 2205.93,948.682 2222.73,948.682 2239.53,948.682 2256.33,1122.06 2273.13,1215.62 2289.94,1296.56 2306.74,1387.06 2323.54,1387.06 2340.34,1446.02 2357.14,1409.99 2373.94,1342.69 2390.74,1446.02 2407.55,1269.34 2424.35,1135.44 2441.15,1026.71 2457.95,1026.71 2474.75,1070.21 2491.55,1026.71 2508.36,88.2942 2525.16,1070.21 2541.96,1070.21 2558.76,1070.21 2575.56,1070.21 2592.36,1070.21 2609.16,1070.21 2625.97,1070.21 2642.77,1070.21 2659.57,1208.39 2676.37,1269.34 2693.17,1269.34 2709.97,1446.02 2726.78,1387.06 2743.58,1342.69 2760.38,1342.69 2777.18,1387.06 2793.98,1380.83 2810.78,1269.34 2827.58,1269.34 2844.39,1065.79 2861.19,956.01 2877.99,1070.21 2894.79,1070.21 2911.59,1135.44 2928.39,1070.21 2945.19,1070.21 2962,1070.21 2978.8,1146.76 2995.6,1070.21 3012.4,1070.21 3029.2,1070.21 3046,1269.34 3062.81,1269.34 3079.61,1367.62 3096.41,1269.34 "/>
<polyline clip-path="url(#clip592)" style="stroke:#ff7c00; stroke-linecap:round; stroke-linejoin:round; stroke-width:5; stroke-opacity:1; fill:none" points="290.554,1354.59 307.356,1343.26 324.157,1304.98 340.959,1304.98 357.76,1343.26 374.562,1343.26 391.363,1094.3 408.165,756.134 424.966,756.134 441.768,756.134 458.569,756.134 475.371,756.134 492.172,756.134 508.974,756.134 525.776,756.134 542.577,872.064 559.379,872.064 576.18,896.712 592.982,979.135 609.783,979.135 626.585,1094.3 643.386,1094.3 660.188,1237.08 676.989,1237.08 693.791,1348.8 710.592,1348.8 727.394,1348.8 744.195,1348.8 760.997,1348.8 777.798,1348.8 794.6,1024.85 811.401,765.577 828.203,801.794 845.004,765.577 861.806,801.794 878.608,765.577 895.409,801.794 912.211,801.794 929.012,765.577 945.814,874.811 962.615,874.811 979.417,917.817 996.218,917.817 1013.02,1024.85 1029.82,996.037 1046.62,1075.14 1063.42,1137.37 1080.23,1252.21 1097.03,1348.8 1113.83,1348.8 1130.63,1348.8 1147.43,1348.8 1164.23,1348.8 1181.03,1348.8 1197.84,1001.59 1214.64,801.794 1231.44,765.577 1248.24,801.794 1265.04,801.794 1281.84,765.577 1298.65,801.794 1315.45,801.794 1332.25,801.794 1349.05,874.811 1365.85,874.811 1382.65,917.817 1399.45,1024.85 1416.26,917.817 1433.06,1024.85 1449.86,1137.37 1466.66,1252.21 1483.46,1252.21 1500.26,1348.8 1517.07,1348.8 1533.87,1348.8 1550.67,1348.8 1567.47,1348.8 1584.27,1348.8 1601.07,1085.28 1617.87,765.577 1634.68,765.577 1651.48,765.577 1668.28,765.577 1685.08,765.577 1701.88,801.794 1718.68,801.794 1735.49,801.794 1752.29,874.811 1769.09,801.794 1785.89,917.817 1802.69,917.817 1819.49,1024.85 1836.29,1024.85 1853.1,1075.14 1869.9,1137.37 1886.7,1137.37 1903.5,1348.8 1920.3,1348.8 1937.1,1348.8 1953.9,1348.8 1970.71,1348.8 1987.51,1348.8 2004.31,1085.28 2021.11,765.577 2037.91,765.577 2054.71,1024.85 2071.52,1024.85 2088.32,801.794 2105.12,765.577 2121.92,801.794 2138.72,765.577 2155.52,874.811 2172.32,874.811 2189.13,917.817 2205.93,1024.85 2222.73,1024.85 2239.53,1024.85 2256.33,1137.37 2273.13,1137.37 2289.94,1252.21 2306.74,1350.15 2323.54,1350.15 2340.34,1350.15 2357.14,1372.26 2373.94,1372.26 2390.74,1372.26 2407.55,1372.26 2424.35,1132.11 2441.15,1132.11 2457.95,1132.11 2474.75,719.757 2491.55,719.757 2508.36,719.757 2525.16,363.222 2541.96,719.757 2558.76,363.222 2575.56,363.222 2592.36,363.222 2609.16,1132.11 2625.97,1132.11 2642.77,1132.11 2659.57,1350.15 2676.37,1350.15 2693.17,1277.63 2709.97,1350.15 2726.78,1372.26 2743.58,1350.15 2760.38,1350.15 2777.18,1372.26 2793.98,1350.15 2810.78,1372.26 2827.58,1132.11 2844.39,1132.11 2861.19,719.757 2877.99,719.757 2894.79,1132.11 2911.59,1132.11 2928.39,719.757 2945.19,1146.74 2962,1146.74 2978.8,1146.74 2995.6,1132.11 3012.4,1350.15 3029.2,1132.11 3046,1132.11 3062.81,1350.15 3079.61,1277.63 3096.41,1277.63 "/>
<polyline clip-path="url(#clip592)" style="stroke:#1ac938; stroke-linecap:round; stroke-linejoin:round; stroke-width:5; stroke-opacity:1; fill:none" points="290.554,1352.09 307.356,1318.8 324.157,1318.8 340.959,1318.8 357.76,1318.8 374.562,1318.8 391.363,1106.22 408.165,834.345 424.966,834.345 441.768,834.345 458.569,834.345 475.371,834.345 492.172,834.345 508.974,834.345 525.776,834.345 542.577,834.345 559.379,834.345 576.18,834.345 592.982,834.345 609.783,834.345 626.585,1148.61 643.386,1148.61 660.188,1148.61 676.989,1148.61 693.791,1303.52 710.592,1090.18 727.394,1090.18 744.195,1090.18 760.997,1090.18 777.798,1090.18 794.6,850.009 811.401,850.009 828.203,850.009 845.004,850.009 861.806,850.009 878.608,850.009 895.409,850.009 912.211,850.009 929.012,850.009 945.814,850.009 962.615,850.009 979.417,850.009 996.218,850.009 1013.02,850.009 1029.82,1148.61 1046.62,1148.61 1063.42,1148.61 1080.23,1148.61 1097.03,1368.21 1113.83,1368.21 1130.63,1368.21 1147.43,1368.21 1164.23,1368.21 1181.03,1368.21 1197.84,850.009 1214.64,850.009 1231.44,850.009 1248.24,850.009 1265.04,850.009 1281.84,850.009 1298.65,850.009 1315.45,850.009 1332.25,850.009 1349.05,850.009 1365.85,850.009 1382.65,850.009 1399.45,850.009 1416.26,850.009 1433.06,1148.61 1449.86,1148.61 1466.66,1148.61 1483.46,1148.61 1500.26,1368.21 1517.07,1368.21 1533.87,1368.21 1550.67,1368.21 1567.47,1368.21 1584.27,1368.21 1601.07,850.009 1617.87,850.009 1634.68,850.009 1651.48,850.009 1668.28,850.009 1685.08,850.009 1701.88,850.009 1718.68,850.009 1735.49,850.009 1752.29,850.009 1769.09,850.009 1785.89,850.009 1802.69,850.009 1819.49,850.009 1836.29,1148.61 1853.1,1148.61 1869.9,1148.61 1886.7,1148.61 1903.5,1368.21 1920.3,1368.21 1937.1,1368.21 1953.9,1368.21 1970.71,1368.21 1987.51,1368.21 2004.31,850.009 2021.11,850.009 2037.91,850.009 2054.71,850.009 2071.52,850.009 2088.32,850.009 2105.12,850.009 2121.92,850.009 2138.72,850.009 2155.52,850.009 2172.32,850.009 2189.13,850.009 2205.93,850.009 2222.73,850.009 2239.53,1148.61 2256.33,1148.61 2273.13,1148.61 2289.94,1148.61 2306.74,1368.21 2323.54,1368.21 2340.34,1368.21 2357.14,1368.21 2373.94,1368.21 2390.74,1368.21 2407.55,850.009 2424.35,850.009 2441.15,850.009 2457.95,850.009 2474.75,850.009 2491.55,850.009 2508.36,850.009 2525.16,850.009 2541.96,850.009 2558.76,850.009 2575.56,850.009 2592.36,850.009 2609.16,850.009 2625.97,850.009 2642.77,1148.61 2659.57,1148.61 2676.37,1148.61 2693.17,1148.61 2709.97,1368.21 2726.78,1368.21 2743.58,1368.21 2760.38,1368.21 2777.18,1368.21 2793.98,1368.21 2810.78,1163.59 2827.58,1163.59 2844.39,1163.59 2861.19,1163.59 2877.99,1163.59 2894.79,1163.59 2911.59,1163.59 2928.39,1163.59 2945.19,1163.59 2962,1163.59 2978.8,1163.59 2995.6,1163.59 3012.4,1163.59 3029.2,1163.59 3046,1163.59 3062.81,1163.59 3079.61,1163.59 3096.41,1163.59 "/>
<polyline clip-path="url(#clip592)" style="stroke:#e8000b; stroke-linecap:round; stroke-linejoin:round; stroke-width:5; stroke-opacity:1; fill:none" points="290.554,1313.86 307.356,1313.86 324.157,1313.86 340.959,1313.86 357.76,1313.86 374.562,1313.86 391.363,1313.86 408.165,1313.86 424.966,802.888 441.768,802.888 458.569,802.888 475.371,802.888 492.172,802.888 508.974,802.888 525.776,802.888 542.577,1089.28 559.379,1089.28 576.18,802.888 592.982,1089.28 609.783,1089.28 626.585,1313.86 643.386,1313.86 660.188,1313.86 676.989,1313.86 693.791,1331.58 710.592,1331.58 727.394,1331.58 744.195,1331.58 760.997,1331.58 777.798,1331.58 794.6,834.134 811.401,834.134 828.203,834.134 845.004,834.134 861.806,834.134 878.608,834.134 895.409,834.134 912.211,834.134 929.012,834.134 945.814,834.134 962.615,834.134 979.417,834.134 996.218,834.134 1013.02,1145.12 1029.82,834.134 1046.62,1145.12 1063.42,1145.12 1080.23,1145.12 1097.03,1331.58 1113.83,1331.58 1130.63,1331.58 1147.43,1331.58 1164.23,1331.58 1181.03,1331.58 1197.84,834.134 1214.64,834.134 1231.44,834.134 1248.24,834.134 1265.04,834.134 1281.84,834.134 1298.65,834.134 1315.45,834.134 1332.25,834.134 1349.05,834.134 1365.85,834.134 1382.65,834.134 1399.45,1145.12 1416.26,834.134 1433.06,1145.12 1449.86,1145.12 1466.66,1145.12 1483.46,1145.12 1500.26,1331.58 1517.07,1331.58 1533.87,1331.58 1550.67,1331.58 1567.47,1331.58 1584.27,1331.58 1601.07,1145.12 1617.87,834.134 1634.68,834.134 1651.48,834.134 1668.28,834.134 1685.08,834.134 1701.88,834.134 1718.68,834.134 1735.49,834.134 1752.29,834.134 1769.09,834.134 1785.89,834.134 1802.69,834.134 1819.49,1145.12 1836.29,1145.12 1853.1,1145.12 1869.9,1145.12 1886.7,1145.12 1903.5,1331.58 1920.3,1331.58 1937.1,1331.58 1953.9,1331.58 1970.71,1331.58 1987.51,1331.58 2004.31,834.134 2021.11,834.134 2037.91,834.134 2054.71,1145.12 2071.52,1145.12 2088.32,834.134 2105.12,834.134 2121.92,834.134 2138.72,834.134 2155.52,834.134 2172.32,834.134 2189.13,834.134 2205.93,1145.12 2222.73,1145.12 2239.53,1145.12 2256.33,1145.12 2273.13,1145.12 2289.94,1145.12 2306.74,1331.58 2323.54,1331.58 2340.34,1331.58 2357.14,1331.58 2373.94,1331.58 2390.74,1331.58 2407.55,1145.12 2424.35,1145.12 2441.15,834.134 2457.95,834.134 2474.75,1145.12 2491.55,1145.12 2508.36,1145.12 2525.16,1145.12 2541.96,1145.12 2558.76,1145.12 2575.56,1145.12 2592.36,1145.12 2609.16,1145.12 2625.97,1145.12 2642.77,1145.12 2659.57,1145.12 2676.37,1145.12 2693.17,1145.12 2709.97,1331.58 2726.78,1331.58 2743.58,1331.58 2760.38,1331.58 2777.18,1331.58 2793.98,1331.58 2810.78,1145.12 2827.58,1145.12 2844.39,1145.12 2861.19,1145.12 2877.99,834.134 2894.79,1145.12 2911.59,1145.12 2928.39,1145.12 2945.19,1145.12 2962,1145.12 2978.8,1145.12 2995.6,1145.12 3012.4,1145.12 3029.2,1145.12 3046,1145.12 3062.81,1145.12 3079.61,1145.12 3096.41,1145.12 "/>
<polyline clip-path="url(#clip592)" style="stroke:#000000; stroke-linecap:round; stroke-linejoin:round; stroke-width:6; stroke-opacity:1; fill:none" points="290.554,1321.36 307.356,1350.39 324.157,1275.5 340.959,1287.11 357.76,1397.41 374.562,1341.68 391.363,1017.74 408.165,774.494 424.966,725.728 441.768,818.034 458.569,807.585 475.371,607.879 492.172,731.534 508.974,712.957 525.776,829.645 542.577,849.384 559.379,841.837 576.18,799.457 592.982,882.475 609.783,1019.48 626.585,1083.92 643.386,1042.12 660.188,1170.42 676.989,1345.17 693.791,1312.66 710.592,1379.42 727.394,1456.63 744.195,1409.03 760.997,1407.28 777.798,1224.99 794.6,1188.42 811.401,904.535 828.203,823.259 845.004,838.353 861.806,783.783 878.608,836.612 895.409,779.138 912.211,804.101 929.012,821.518 945.814,898.149 962.615,851.125 979.417,909.179 996.218,927.757 1013.02,984.069 1029.82,951.559 1046.62,1133.27 1063.42,1223.83 1080.23,1223.83 1097.03,1378.84 1113.83,1354.45 1130.63,1371.29 1147.43,1365.48 1164.23,1373.03 1181.03,1321.94 1197.84,1143.14 1214.64,832.548 1231.44,837.773 1248.24,790.168 1265.04,731.534 1281.84,792.491 1298.65,902.793 1315.45,926.015 1332.25,768.108 1349.05,930.079 1365.85,850.545 1382.65,860.414 1399.45,871.444 1416.26,901.052 1433.06,1099.02 1449.86,1138.49 1466.66,1300.46 1483.46,1239.51 1500.26,1353.29 1517.07,1335.88 1533.87,1443.28 1550.67,1366.65 1567.47,1381.16 1584.27,1317.88 1601.07,1085.66 1617.87,858.672 1634.68,937.626 1651.48,834.87 1668.28,821.518 1685.08,822.679 1701.88,845.32 1718.68,872.605 1735.49,789.588 1752.29,882.475 1769.09,687.413 1785.89,856.35 1802.69,946.915 1819.49,1053.15 1836.29,981.747 1853.1,1090.89 1869.9,1146.62 1886.7,1191.9 1903.5,1302.21 1920.3,1339.36 1937.1,1370.71 1953.9,1273.18 1970.71,1342.84 1987.51,1258.08 2004.31,1093.79 2021.11,851.706 2037.91,867.38 2054.71,768.108 2071.52,651.419 2088.32,729.212 2105.12,755.336 2121.92,745.467 2138.72,934.723 2155.52,929.498 2172.32,892.924 2189.13,900.471 2205.93,997.422 2222.73,921.371 2239.53,1099.6 2256.33,1143.72 2273.13,1182.61 2289.94,1216.29 2306.74,1284.79 2323.54,1312.08 2340.34,1274.92 2357.14,1282.47 2373.94,1315.56 2390.74,1279.56 2407.55,1144.3 2424.35,1011.35 2441.15,766.947 2457.95,791.91 2474.75,859.833 2491.55,881.894 2508.36,891.183 2525.16,940.529 2541.96,1054.31 2558.76,1047.93 2575.56,1088.57 2592.36,1040.38 2609.16,1024.71 2625.97,1085.66 2642.77,1237.19 2659.57,1290.01 2676.37,1326.59 2693.17,1240.67 2709.97,1240.67 2726.78,1429.34 2743.58,1413.09 2760.38,1309.17 2777.18,1379.42 2793.98,1381.74 2810.78,1348.65 2827.58,1091.47 2844.39,909.179 2861.19,935.304 2877.99,956.203 2894.79,1043.28 2911.59,1019.48 2928.39,1096.69 2945.19,1078.7 2962,1208.16 2978.8,1082.18 2995.6,1219.19 3012.4,1200.03 3029.2,1188.42 3046,1204.09 3062.81,1232.54 3079.61,1231.38 3096.41,1318.46 "/>
<path clip-path="url(#clip590)" d="M3305.46 445.512 L3952.76 445.512 L3952.76 95.592 L3305.46 95.592  Z" fill="#ffffff" fill-rule="evenodd" fill-opacity="1"/>
<polyline clip-path="url(#clip590)" style="stroke:#000000; stroke-linecap:round; stroke-linejoin:round; stroke-width:4; stroke-opacity:1; fill:none" points="3305.46,445.512 3952.76,445.512 3952.76,95.592 3305.46,95.592 3305.46,445.512 "/>
<polyline clip-path="url(#clip590)" style="stroke:#023eff; stroke-linecap:round; stroke-linejoin:round; stroke-width:5.625; stroke-opacity:1; fill:none" points="3347.09,153.912 3596.85,153.912 "/>
<path clip-path="url(#clip590)" d="M3643.29 168.977 L3643.29 184.446 L3638.47 184.446 L3638.47 144.185 L3643.29 144.185 L3643.29 148.613 Q3644.8 146.008 3647.09 144.758 Q3649.41 143.482 3652.62 143.482 Q3657.93 143.482 3661.23 147.701 Q3664.57 151.92 3664.57 158.795 Q3664.57 165.67 3661.23 169.888 Q3657.93 174.107 3652.62 174.107 Q3649.41 174.107 3647.09 172.857 Q3644.8 171.581 3643.29 168.977 M3659.59 158.795 Q3659.59 153.508 3657.41 150.514 Q3655.25 147.493 3651.44 147.493 Q3647.64 147.493 3645.45 150.514 Q3643.29 153.508 3643.29 158.795 Q3643.29 164.081 3645.45 167.102 Q3647.64 170.097 3651.44 170.097 Q3655.25 170.097 3657.41 167.102 Q3659.59 164.081 3659.59 158.795 Z" fill="#000000" fill-rule="nonzero" fill-opacity="1" /><path clip-path="url(#clip590)" d="M3689.41 148.665 Q3688.6 148.196 3687.64 147.988 Q3686.7 147.753 3685.56 147.753 Q3681.5 147.753 3679.31 150.409 Q3677.15 153.04 3677.15 157.987 L3677.15 173.352 L3672.33 173.352 L3672.33 144.185 L3677.15 144.185 L3677.15 148.717 Q3678.66 146.06 3681.08 144.784 Q3683.5 143.482 3686.96 143.482 Q3687.46 143.482 3688.06 143.56 Q3688.66 143.613 3689.39 143.743 L3689.41 148.665 Z" fill="#000000" fill-rule="nonzero" fill-opacity="1" /><path clip-path="url(#clip590)" d="M3718.21 157.571 L3718.21 159.915 L3696.18 159.915 Q3696.5 164.862 3699.15 167.467 Q3701.83 170.045 3706.6 170.045 Q3709.36 170.045 3711.94 169.368 Q3714.54 168.691 3717.09 167.336 L3717.09 171.868 Q3714.52 172.961 3711.81 173.534 Q3709.1 174.107 3706.31 174.107 Q3699.33 174.107 3695.25 170.045 Q3691.18 165.982 3691.18 159.055 Q3691.18 151.894 3695.04 147.701 Q3698.92 143.482 3705.48 143.482 Q3711.36 143.482 3714.78 147.284 Q3718.21 151.06 3718.21 157.571 M3713.42 156.165 Q3713.37 152.232 3711.21 149.889 Q3709.07 147.545 3705.53 147.545 Q3701.52 147.545 3699.1 149.81 Q3696.7 152.076 3696.34 156.191 L3713.42 156.165 Z" fill="#000000" fill-rule="nonzero" fill-opacity="1" /><path clip-path="url(#clip590)" d="M3745.27 148.613 L3745.27 132.831 L3750.06 132.831 L3750.06 173.352 L3745.27 173.352 L3745.27 168.977 Q3743.76 171.581 3741.44 172.857 Q3739.15 174.107 3735.92 174.107 Q3730.64 174.107 3727.3 169.888 Q3724 165.67 3724 158.795 Q3724 151.92 3727.3 147.701 Q3730.64 143.482 3735.92 143.482 Q3739.15 143.482 3741.44 144.758 Q3743.76 146.008 3745.27 148.613 M3728.94 158.795 Q3728.94 164.081 3731.1 167.102 Q3733.29 170.097 3737.09 170.097 Q3740.9 170.097 3743.08 167.102 Q3745.27 164.081 3745.27 158.795 Q3745.27 153.508 3743.08 150.514 Q3740.9 147.493 3737.09 147.493 Q3733.29 147.493 3731.1 150.514 Q3728.94 153.508 3728.94 158.795 Z" fill="#000000" fill-rule="nonzero" fill-opacity="1" /><path clip-path="url(#clip590)" d="M3759.93 144.185 L3764.72 144.185 L3764.72 173.352 L3759.93 173.352 L3759.93 144.185 M3759.93 132.831 L3764.72 132.831 L3764.72 138.899 L3759.93 138.899 L3759.93 132.831 Z" fill="#000000" fill-rule="nonzero" fill-opacity="1" /><path clip-path="url(#clip590)" d="M3795.74 145.305 L3795.74 149.784 Q3793.71 148.665 3791.65 148.118 Q3789.62 147.545 3787.54 147.545 Q3782.87 147.545 3780.3 150.514 Q3777.72 153.456 3777.72 158.795 Q3777.72 164.133 3780.3 167.102 Q3782.87 170.045 3787.54 170.045 Q3789.62 170.045 3791.65 169.498 Q3793.71 168.925 3795.74 167.805 L3795.74 172.232 Q3793.73 173.17 3791.57 173.638 Q3789.44 174.107 3787.02 174.107 Q3780.43 174.107 3776.55 169.967 Q3772.67 165.826 3772.67 158.795 Q3772.67 151.659 3776.57 147.571 Q3780.51 143.482 3787.33 143.482 Q3789.54 143.482 3791.65 143.951 Q3793.76 144.394 3795.74 145.305 Z" fill="#000000" fill-rule="nonzero" fill-opacity="1" /><path clip-path="url(#clip590)" d="M3808.81 135.904 L3808.81 144.185 L3818.68 144.185 L3818.68 147.909 L3808.81 147.909 L3808.81 163.743 Q3808.81 167.31 3809.78 168.326 Q3810.77 169.342 3813.76 169.342 L3818.68 169.342 L3818.68 173.352 L3813.76 173.352 Q3808.21 173.352 3806.1 171.295 Q3803.99 169.211 3803.99 163.743 L3803.99 147.909 L3800.48 147.909 L3800.48 144.185 L3803.99 144.185 L3803.99 135.904 L3808.81 135.904 Z" fill="#000000" fill-rule="nonzero" fill-opacity="1" /><path clip-path="url(#clip590)" d="M3847.15 182.206 L3847.15 185.93 L3819.44 185.93 L3819.44 182.206 L3847.15 182.206 Z" fill="#000000" fill-rule="nonzero" fill-opacity="1" /><path clip-path="url(#clip590)" d="M3852.38 134.472 L3873.03 134.472 L3873.03 138.899 L3857.2 138.899 L3857.2 148.43 Q3858.34 148.04 3859.49 147.857 Q3860.63 147.649 3861.78 147.649 Q3868.29 147.649 3872.09 151.217 Q3875.9 154.784 3875.9 160.878 Q3875.9 167.154 3871.99 170.644 Q3868.08 174.107 3860.97 174.107 Q3858.53 174.107 3855.97 173.69 Q3853.45 173.274 3850.74 172.441 L3850.74 167.154 Q3853.08 168.43 3855.58 169.055 Q3858.08 169.68 3860.87 169.68 Q3865.37 169.68 3868 167.31 Q3870.63 164.941 3870.63 160.878 Q3870.63 156.816 3868 154.446 Q3865.37 152.076 3860.87 152.076 Q3858.76 152.076 3856.65 152.545 Q3854.57 153.014 3852.38 154.003 L3852.38 134.472 Z" fill="#000000" fill-rule="nonzero" fill-opacity="1" /><path clip-path="url(#clip590)" d="M3890.79 168.925 L3909.15 168.925 L3909.15 173.352 L3884.46 173.352 L3884.46 168.925 Q3887.46 165.826 3892.61 160.618 Q3897.8 155.383 3899.12 153.873 Q3901.65 151.034 3902.64 149.081 Q3903.66 147.102 3903.66 145.201 Q3903.66 142.102 3901.47 140.149 Q3899.31 138.196 3895.82 138.196 Q3893.34 138.196 3890.58 139.055 Q3887.85 139.915 3884.72 141.659 L3884.72 136.347 Q3887.9 135.071 3890.66 134.42 Q3893.42 133.769 3895.71 133.769 Q3901.75 133.769 3905.35 136.79 Q3908.94 139.81 3908.94 144.863 Q3908.94 147.258 3908.03 149.42 Q3907.15 151.555 3904.78 154.472 Q3904.12 155.227 3900.63 158.847 Q3897.15 162.441 3890.79 168.925 Z" fill="#000000" fill-rule="nonzero" fill-opacity="1" /><polyline clip-path="url(#clip590)" style="stroke:#ff7c00; stroke-linecap:round; stroke-linejoin:round; stroke-width:5.625; stroke-opacity:1; fill:none" points="3347.09,212.232 3596.85,212.232 "/>
<path clip-path="url(#clip590)" d="M3643.29 227.297 L3643.29 242.766 L3638.47 242.766 L3638.47 202.505 L3643.29 202.505 L3643.29 206.933 Q3644.8 204.328 3647.09 203.078 Q3649.41 201.802 3652.62 201.802 Q3657.93 201.802 3661.23 206.021 Q3664.57 210.24 3664.57 217.115 Q3664.57 223.99 3661.23 228.208 Q3657.93 232.427 3652.62 232.427 Q3649.41 232.427 3647.09 231.177 Q3644.8 229.901 3643.29 227.297 M3659.59 217.115 Q3659.59 211.828 3657.41 208.834 Q3655.25 205.813 3651.44 205.813 Q3647.64 205.813 3645.45 208.834 Q3643.29 211.828 3643.29 217.115 Q3643.29 222.401 3645.45 225.422 Q3647.64 228.417 3651.44 228.417 Q3655.25 228.417 3657.41 225.422 Q3659.59 222.401 3659.59 217.115 Z" fill="#000000" fill-rule="nonzero" fill-opacity="1" /><path clip-path="url(#clip590)" d="M3689.41 206.985 Q3688.6 206.516 3687.64 206.308 Q3686.7 206.073 3685.56 206.073 Q3681.5 206.073 3679.31 208.729 Q3677.15 211.36 3677.15 216.307 L3677.15 231.672 L3672.33 231.672 L3672.33 202.505 L3677.15 202.505 L3677.15 207.037 Q3678.66 204.38 3681.08 203.104 Q3683.5 201.802 3686.96 201.802 Q3687.46 201.802 3688.06 201.88 Q3688.66 201.933 3689.39 202.063 L3689.41 206.985 Z" fill="#000000" fill-rule="nonzero" fill-opacity="1" /><path clip-path="url(#clip590)" d="M3718.21 215.891 L3718.21 218.235 L3696.18 218.235 Q3696.5 223.182 3699.15 225.787 Q3701.83 228.365 3706.6 228.365 Q3709.36 228.365 3711.94 227.688 Q3714.54 227.011 3717.09 225.656 L3717.09 230.188 Q3714.52 231.281 3711.81 231.854 Q3709.1 232.427 3706.31 232.427 Q3699.33 232.427 3695.25 228.365 Q3691.18 224.302 3691.18 217.375 Q3691.18 210.214 3695.04 206.021 Q3698.92 201.802 3705.48 201.802 Q3711.36 201.802 3714.78 205.604 Q3718.21 209.38 3718.21 215.891 M3713.42 214.485 Q3713.37 210.552 3711.21 208.209 Q3709.07 205.865 3705.53 205.865 Q3701.52 205.865 3699.1 208.13 Q3696.7 210.396 3696.34 214.511 L3713.42 214.485 Z" fill="#000000" fill-rule="nonzero" fill-opacity="1" /><path clip-path="url(#clip590)" d="M3745.27 206.933 L3745.27 191.151 L3750.06 191.151 L3750.06 231.672 L3745.27 231.672 L3745.27 227.297 Q3743.76 229.901 3741.44 231.177 Q3739.15 232.427 3735.92 232.427 Q3730.64 232.427 3727.3 228.208 Q3724 223.99 3724 217.115 Q3724 210.24 3727.3 206.021 Q3730.64 201.802 3735.92 201.802 Q3739.15 201.802 3741.44 203.078 Q3743.76 204.328 3745.27 206.933 M3728.94 217.115 Q3728.94 222.401 3731.1 225.422 Q3733.29 228.417 3737.09 228.417 Q3740.9 228.417 3743.08 225.422 Q3745.27 222.401 3745.27 217.115 Q3745.27 211.828 3743.08 208.834 Q3740.9 205.813 3737.09 205.813 Q3733.29 205.813 3731.1 208.834 Q3728.94 211.828 3728.94 217.115 Z" fill="#000000" fill-rule="nonzero" fill-opacity="1" /><path clip-path="url(#clip590)" d="M3759.93 202.505 L3764.72 202.505 L3764.72 231.672 L3759.93 231.672 L3759.93 202.505 M3759.93 191.151 L3764.72 191.151 L3764.72 197.219 L3759.93 197.219 L3759.93 191.151 Z" fill="#000000" fill-rule="nonzero" fill-opacity="1" /><path clip-path="url(#clip590)" d="M3795.74 203.625 L3795.74 208.104 Q3793.71 206.985 3791.65 206.438 Q3789.62 205.865 3787.54 205.865 Q3782.87 205.865 3780.3 208.834 Q3777.72 211.776 3777.72 217.115 Q3777.72 222.453 3780.3 225.422 Q3782.87 228.365 3787.54 228.365 Q3789.62 228.365 3791.65 227.818 Q3793.71 227.245 3795.74 226.125 L3795.74 230.552 Q3793.73 231.49 3791.57 231.958 Q3789.44 232.427 3787.02 232.427 Q3780.43 232.427 3776.55 228.287 Q3772.67 224.146 3772.67 217.115 Q3772.67 209.979 3776.57 205.891 Q3780.51 201.802 3787.33 201.802 Q3789.54 201.802 3791.65 202.271 Q3793.76 202.714 3795.74 203.625 Z" fill="#000000" fill-rule="nonzero" fill-opacity="1" /><path clip-path="url(#clip590)" d="M3808.81 194.224 L3808.81 202.505 L3818.68 202.505 L3818.68 206.229 L3808.81 206.229 L3808.81 222.063 Q3808.81 225.63 3809.78 226.646 Q3810.77 227.662 3813.76 227.662 L3818.68 227.662 L3818.68 231.672 L3813.76 231.672 Q3808.21 231.672 3806.1 229.615 Q3803.99 227.531 3803.99 222.063 L3803.99 206.229 L3800.48 206.229 L3800.48 202.505 L3803.99 202.505 L3803.99 194.224 L3808.81 194.224 Z" fill="#000000" fill-rule="nonzero" fill-opacity="1" /><path clip-path="url(#clip590)" d="M3847.15 240.526 L3847.15 244.25 L3819.44 244.25 L3819.44 240.526 L3847.15 240.526 Z" fill="#000000" fill-rule="nonzero" fill-opacity="1" /><path clip-path="url(#clip590)" d="M3856.86 227.245 L3875.22 227.245 L3875.22 231.672 L3850.53 231.672 L3850.53 227.245 Q3853.53 224.146 3858.68 218.938 Q3863.86 213.703 3865.19 212.193 Q3867.72 209.354 3868.71 207.401 Q3869.72 205.422 3869.72 203.521 Q3869.72 200.422 3867.54 198.469 Q3865.37 196.516 3861.88 196.516 Q3859.41 196.516 3856.65 197.375 Q3853.92 198.235 3850.79 199.979 L3850.79 194.667 Q3853.97 193.391 3856.73 192.74 Q3859.49 192.089 3861.78 192.089 Q3867.82 192.089 3871.42 195.11 Q3875.01 198.13 3875.01 203.183 Q3875.01 205.578 3874.1 207.74 Q3873.21 209.875 3870.84 212.792 Q3870.19 213.547 3866.7 217.167 Q3863.21 220.761 3856.86 227.245 Z" fill="#000000" fill-rule="nonzero" fill-opacity="1" /><path clip-path="url(#clip590)" d="M3898.16 210.136 Q3894.62 210.136 3892.54 212.557 Q3890.48 214.979 3890.48 219.198 Q3890.48 223.391 3892.54 225.839 Q3894.62 228.261 3898.16 228.261 Q3901.7 228.261 3903.76 225.839 Q3905.84 223.391 3905.84 219.198 Q3905.84 214.979 3903.76 212.557 Q3901.7 210.136 3898.16 210.136 M3908.6 193.651 L3908.6 198.443 Q3906.62 197.505 3904.59 197.011 Q3902.59 196.516 3900.61 196.516 Q3895.4 196.516 3892.64 200.031 Q3889.91 203.547 3889.52 210.656 Q3891.05 208.391 3893.37 207.193 Q3895.69 205.969 3898.47 205.969 Q3904.33 205.969 3907.72 209.537 Q3911.13 213.078 3911.13 219.198 Q3911.13 225.188 3907.59 228.807 Q3904.05 232.427 3898.16 232.427 Q3891.42 232.427 3887.85 227.271 Q3884.28 222.089 3884.28 212.271 Q3884.28 203.052 3888.66 197.584 Q3893.03 192.089 3900.4 192.089 Q3902.38 192.089 3904.38 192.479 Q3906.42 192.87 3908.6 193.651 Z" fill="#000000" fill-rule="nonzero" fill-opacity="1" /><polyline clip-path="url(#clip590)" style="stroke:#1ac938; stroke-linecap:round; stroke-linejoin:round; stroke-width:5.625; stroke-opacity:1; fill:none" points="3347.09,270.552 3596.85,270.552 "/>
<path clip-path="url(#clip590)" d="M3643.29 285.617 L3643.29 301.086 L3638.47 301.086 L3638.47 260.825 L3643.29 260.825 L3643.29 265.253 Q3644.8 262.648 3647.09 261.398 Q3649.41 260.122 3652.62 260.122 Q3657.93 260.122 3661.23 264.341 Q3664.57 268.56 3664.57 275.435 Q3664.57 282.31 3661.23 286.528 Q3657.93 290.747 3652.62 290.747 Q3649.41 290.747 3647.09 289.497 Q3644.8 288.221 3643.29 285.617 M3659.59 275.435 Q3659.59 270.148 3657.41 267.154 Q3655.25 264.133 3651.44 264.133 Q3647.64 264.133 3645.45 267.154 Q3643.29 270.148 3643.29 275.435 Q3643.29 280.721 3645.45 283.742 Q3647.64 286.737 3651.44 286.737 Q3655.25 286.737 3657.41 283.742 Q3659.59 280.721 3659.59 275.435 Z" fill="#000000" fill-rule="nonzero" fill-opacity="1" /><path clip-path="url(#clip590)" d="M3689.41 265.305 Q3688.6 264.836 3687.64 264.628 Q3686.7 264.393 3685.56 264.393 Q3681.5 264.393 3679.31 267.049 Q3677.15 269.68 3677.15 274.627 L3677.15 289.992 L3672.33 289.992 L3672.33 260.825 L3677.15 260.825 L3677.15 265.357 Q3678.66 262.7 3681.08 261.424 Q3683.5 260.122 3686.96 260.122 Q3687.46 260.122 3688.06 260.2 Q3688.66 260.253 3689.39 260.383 L3689.41 265.305 Z" fill="#000000" fill-rule="nonzero" fill-opacity="1" /><path clip-path="url(#clip590)" d="M3718.21 274.211 L3718.21 276.555 L3696.18 276.555 Q3696.5 281.502 3699.15 284.107 Q3701.83 286.685 3706.6 286.685 Q3709.36 286.685 3711.94 286.008 Q3714.54 285.331 3717.09 283.976 L3717.09 288.508 Q3714.52 289.601 3711.81 290.174 Q3709.1 290.747 3706.31 290.747 Q3699.33 290.747 3695.25 286.685 Q3691.18 282.622 3691.18 275.695 Q3691.18 268.534 3695.04 264.341 Q3698.92 260.122 3705.48 260.122 Q3711.36 260.122 3714.78 263.924 Q3718.21 267.7 3718.21 274.211 M3713.42 272.805 Q3713.37 268.872 3711.21 266.529 Q3709.07 264.185 3705.53 264.185 Q3701.52 264.185 3699.1 266.45 Q3696.7 268.716 3696.34 272.831 L3713.42 272.805 Z" fill="#000000" fill-rule="nonzero" fill-opacity="1" /><path clip-path="url(#clip590)" d="M3745.27 265.253 L3745.27 249.471 L3750.06 249.471 L3750.06 289.992 L3745.27 289.992 L3745.27 285.617 Q3743.76 288.221 3741.44 289.497 Q3739.15 290.747 3735.92 290.747 Q3730.64 290.747 3727.3 286.528 Q3724 282.31 3724 275.435 Q3724 268.56 3727.3 264.341 Q3730.64 260.122 3735.92 260.122 Q3739.15 260.122 3741.44 261.398 Q3743.76 262.648 3745.27 265.253 M3728.94 275.435 Q3728.94 280.721 3731.1 283.742 Q3733.29 286.737 3737.09 286.737 Q3740.9 286.737 3743.08 283.742 Q3745.27 280.721 3745.27 275.435 Q3745.27 270.148 3743.08 267.154 Q3740.9 264.133 3737.09 264.133 Q3733.29 264.133 3731.1 267.154 Q3728.94 270.148 3728.94 275.435 Z" fill="#000000" fill-rule="nonzero" fill-opacity="1" /><path clip-path="url(#clip590)" d="M3759.93 260.825 L3764.72 260.825 L3764.72 289.992 L3759.93 289.992 L3759.93 260.825 M3759.93 249.471 L3764.72 249.471 L3764.72 255.539 L3759.93 255.539 L3759.93 249.471 Z" fill="#000000" fill-rule="nonzero" fill-opacity="1" /><path clip-path="url(#clip590)" d="M3795.74 261.945 L3795.74 266.424 Q3793.71 265.305 3791.65 264.758 Q3789.62 264.185 3787.54 264.185 Q3782.87 264.185 3780.3 267.154 Q3777.72 270.096 3777.72 275.435 Q3777.72 280.773 3780.3 283.742 Q3782.87 286.685 3787.54 286.685 Q3789.62 286.685 3791.65 286.138 Q3793.71 285.565 3795.74 284.445 L3795.74 288.872 Q3793.73 289.81 3791.57 290.278 Q3789.44 290.747 3787.02 290.747 Q3780.43 290.747 3776.55 286.607 Q3772.67 282.466 3772.67 275.435 Q3772.67 268.299 3776.57 264.211 Q3780.51 260.122 3787.33 260.122 Q3789.54 260.122 3791.65 260.591 Q3793.76 261.034 3795.74 261.945 Z" fill="#000000" fill-rule="nonzero" fill-opacity="1" /><path clip-path="url(#clip590)" d="M3808.81 252.544 L3808.81 260.825 L3818.68 260.825 L3818.68 264.549 L3808.81 264.549 L3808.81 280.383 Q3808.81 283.95 3809.78 284.966 Q3810.77 285.982 3813.76 285.982 L3818.68 285.982 L3818.68 289.992 L3813.76 289.992 Q3808.21 289.992 3806.1 287.935 Q3803.99 285.851 3803.99 280.383 L3803.99 264.549 L3800.48 264.549 L3800.48 260.825 L3803.99 260.825 L3803.99 252.544 L3808.81 252.544 Z" fill="#000000" fill-rule="nonzero" fill-opacity="1" /><path clip-path="url(#clip590)" d="M3847.15 298.846 L3847.15 302.57 L3819.44 302.57 L3819.44 298.846 L3847.15 298.846 Z" fill="#000000" fill-rule="nonzero" fill-opacity="1" /><path clip-path="url(#clip590)" d="M3866.78 255.695 L3853.5 276.45 L3866.78 276.45 L3866.78 255.695 M3865.4 251.112 L3872.02 251.112 L3872.02 276.45 L3877.56 276.45 L3877.56 280.825 L3872.02 280.825 L3872.02 289.992 L3866.78 289.992 L3866.78 280.825 L3849.23 280.825 L3849.23 275.747 L3865.4 251.112 Z" fill="#000000" fill-rule="nonzero" fill-opacity="1" /><polyline clip-path="url(#clip590)" style="stroke:#e8000b; stroke-linecap:round; stroke-linejoin:round; stroke-width:5.625; stroke-opacity:1; fill:none" points="3347.09,328.872 3596.85,328.872 "/>
<path clip-path="url(#clip590)" d="M3643.29 343.937 L3643.29 359.406 L3638.47 359.406 L3638.47 319.145 L3643.29 319.145 L3643.29 323.573 Q3644.8 320.968 3647.09 319.718 Q3649.41 318.442 3652.62 318.442 Q3657.93 318.442 3661.23 322.661 Q3664.57 326.88 3664.57 333.755 Q3664.57 340.63 3661.23 344.848 Q3657.93 349.067 3652.62 349.067 Q3649.41 349.067 3647.09 347.817 Q3644.8 346.541 3643.29 343.937 M3659.59 333.755 Q3659.59 328.468 3657.41 325.474 Q3655.25 322.453 3651.44 322.453 Q3647.64 322.453 3645.45 325.474 Q3643.29 328.468 3643.29 333.755 Q3643.29 339.041 3645.45 342.062 Q3647.64 345.057 3651.44 345.057 Q3655.25 345.057 3657.41 342.062 Q3659.59 339.041 3659.59 333.755 Z" fill="#000000" fill-rule="nonzero" fill-opacity="1" /><path clip-path="url(#clip590)" d="M3689.41 323.625 Q3688.6 323.156 3687.64 322.948 Q3686.7 322.713 3685.56 322.713 Q3681.5 322.713 3679.31 325.369 Q3677.15 328 3677.15 332.947 L3677.15 348.312 L3672.33 348.312 L3672.33 319.145 L3677.15 319.145 L3677.15 323.677 Q3678.66 321.02 3681.08 319.744 Q3683.5 318.442 3686.96 318.442 Q3687.46 318.442 3688.06 318.52 Q3688.66 318.573 3689.39 318.703 L3689.41 323.625 Z" fill="#000000" fill-rule="nonzero" fill-opacity="1" /><path clip-path="url(#clip590)" d="M3718.21 332.531 L3718.21 334.875 L3696.18 334.875 Q3696.5 339.822 3699.15 342.427 Q3701.83 345.005 3706.6 345.005 Q3709.36 345.005 3711.94 344.328 Q3714.54 343.651 3717.09 342.296 L3717.09 346.828 Q3714.52 347.921 3711.81 348.494 Q3709.1 349.067 3706.31 349.067 Q3699.33 349.067 3695.25 345.005 Q3691.18 340.942 3691.18 334.015 Q3691.18 326.854 3695.04 322.661 Q3698.92 318.442 3705.48 318.442 Q3711.36 318.442 3714.78 322.244 Q3718.21 326.02 3718.21 332.531 M3713.42 331.125 Q3713.37 327.192 3711.21 324.849 Q3709.07 322.505 3705.53 322.505 Q3701.52 322.505 3699.1 324.77 Q3696.7 327.036 3696.34 331.151 L3713.42 331.125 Z" fill="#000000" fill-rule="nonzero" fill-opacity="1" /><path clip-path="url(#clip590)" d="M3745.27 323.573 L3745.27 307.791 L3750.06 307.791 L3750.06 348.312 L3745.27 348.312 L3745.27 343.937 Q3743.76 346.541 3741.44 347.817 Q3739.15 349.067 3735.92 349.067 Q3730.64 349.067 3727.3 344.848 Q3724 340.63 3724 333.755 Q3724 326.88 3727.3 322.661 Q3730.64 318.442 3735.92 318.442 Q3739.15 318.442 3741.44 319.718 Q3743.76 320.968 3745.27 323.573 M3728.94 333.755 Q3728.94 339.041 3731.1 342.062 Q3733.29 345.057 3737.09 345.057 Q3740.9 345.057 3743.08 342.062 Q3745.27 339.041 3745.27 333.755 Q3745.27 328.468 3743.08 325.474 Q3740.9 322.453 3737.09 322.453 Q3733.29 322.453 3731.1 325.474 Q3728.94 328.468 3728.94 333.755 Z" fill="#000000" fill-rule="nonzero" fill-opacity="1" /><path clip-path="url(#clip590)" d="M3759.93 319.145 L3764.72 319.145 L3764.72 348.312 L3759.93 348.312 L3759.93 319.145 M3759.93 307.791 L3764.72 307.791 L3764.72 313.859 L3759.93 313.859 L3759.93 307.791 Z" fill="#000000" fill-rule="nonzero" fill-opacity="1" /><path clip-path="url(#clip590)" d="M3795.74 320.265 L3795.74 324.744 Q3793.71 323.625 3791.65 323.078 Q3789.62 322.505 3787.54 322.505 Q3782.87 322.505 3780.3 325.474 Q3777.72 328.416 3777.72 333.755 Q3777.72 339.093 3780.3 342.062 Q3782.87 345.005 3787.54 345.005 Q3789.62 345.005 3791.65 344.458 Q3793.71 343.885 3795.74 342.765 L3795.74 347.192 Q3793.73 348.13 3791.57 348.598 Q3789.44 349.067 3787.02 349.067 Q3780.43 349.067 3776.55 344.927 Q3772.67 340.786 3772.67 333.755 Q3772.67 326.619 3776.57 322.531 Q3780.51 318.442 3787.33 318.442 Q3789.54 318.442 3791.65 318.911 Q3793.76 319.354 3795.74 320.265 Z" fill="#000000" fill-rule="nonzero" fill-opacity="1" /><path clip-path="url(#clip590)" d="M3808.81 310.864 L3808.81 319.145 L3818.68 319.145 L3818.68 322.869 L3808.81 322.869 L3808.81 338.703 Q3808.81 342.27 3809.78 343.286 Q3810.77 344.302 3813.76 344.302 L3818.68 344.302 L3818.68 348.312 L3813.76 348.312 Q3808.21 348.312 3806.1 346.255 Q3803.99 344.171 3803.99 338.703 L3803.99 322.869 L3800.48 322.869 L3800.48 319.145 L3803.99 319.145 L3803.99 310.864 L3808.81 310.864 Z" fill="#000000" fill-rule="nonzero" fill-opacity="1" /><path clip-path="url(#clip590)" d="M3847.15 357.166 L3847.15 360.89 L3819.44 360.89 L3819.44 357.166 L3847.15 357.166 Z" fill="#000000" fill-rule="nonzero" fill-opacity="1" /><path clip-path="url(#clip590)" d="M3853.24 343.885 L3861.83 343.885 L3861.83 314.224 L3852.48 316.099 L3852.48 311.307 L3861.78 309.432 L3867.04 309.432 L3867.04 343.885 L3875.63 343.885 L3875.63 348.312 L3853.24 348.312 L3853.24 343.885 Z" fill="#000000" fill-rule="nonzero" fill-opacity="1" /><polyline clip-path="url(#clip590)" style="stroke:#000000; stroke-linecap:round; stroke-linejoin:round; stroke-width:6.75; stroke-opacity:1; fill:none" points="3347.09,387.192 3596.85,387.192 "/>
<path clip-path="url(#clip590)" d="M3653.55 391.971 Q3647.75 391.971 3645.51 393.299 Q3643.27 394.627 3643.27 397.83 Q3643.27 400.382 3644.93 401.892 Q3646.63 403.377 3649.52 403.377 Q3653.5 403.377 3655.9 400.564 Q3658.32 397.726 3658.32 393.038 L3658.32 391.971 L3653.55 391.971 M3663.11 389.991 L3663.11 406.632 L3658.32 406.632 L3658.32 402.205 Q3656.68 404.861 3654.23 406.137 Q3651.78 407.387 3648.24 407.387 Q3643.76 407.387 3641.1 404.887 Q3638.47 402.361 3638.47 398.142 Q3638.47 393.221 3641.76 390.721 Q3645.06 388.221 3651.6 388.221 L3658.32 388.221 L3658.32 387.752 Q3658.32 384.445 3656.13 382.648 Q3653.97 380.825 3650.04 380.825 Q3647.54 380.825 3645.17 381.424 Q3642.8 382.023 3640.61 383.221 L3640.61 378.794 Q3643.24 377.778 3645.71 377.283 Q3648.19 376.762 3650.53 376.762 Q3656.86 376.762 3659.99 380.044 Q3663.11 383.325 3663.11 389.991 Z" fill="#000000" fill-rule="nonzero" fill-opacity="1" /><path clip-path="url(#clip590)" d="M3693.97 378.585 L3693.97 383.064 Q3691.94 381.945 3689.88 381.398 Q3687.85 380.825 3685.77 380.825 Q3681.1 380.825 3678.53 383.794 Q3675.95 386.736 3675.95 392.075 Q3675.95 397.413 3678.53 400.382 Q3681.1 403.325 3685.77 403.325 Q3687.85 403.325 3689.88 402.778 Q3691.94 402.205 3693.97 401.085 L3693.97 405.512 Q3691.96 406.45 3689.8 406.918 Q3687.67 407.387 3685.25 407.387 Q3678.66 407.387 3674.78 403.247 Q3670.9 399.106 3670.9 392.075 Q3670.9 384.939 3674.8 380.851 Q3678.73 376.762 3685.56 376.762 Q3687.77 376.762 3689.88 377.231 Q3691.99 377.674 3693.97 378.585 Z" fill="#000000" fill-rule="nonzero" fill-opacity="1" /><path clip-path="url(#clip590)" d="M3707.04 369.184 L3707.04 377.465 L3716.91 377.465 L3716.91 381.189 L3707.04 381.189 L3707.04 397.023 Q3707.04 400.59 3708.01 401.606 Q3709 402.622 3711.99 402.622 L3716.91 402.622 L3716.91 406.632 L3711.99 406.632 Q3706.44 406.632 3704.33 404.575 Q3702.22 402.491 3702.22 397.023 L3702.22 381.189 L3698.71 381.189 L3698.71 377.465 L3702.22 377.465 L3702.22 369.184 L3707.04 369.184 Z" fill="#000000" fill-rule="nonzero" fill-opacity="1" /><path clip-path="url(#clip590)" d="M3722.72 395.122 L3722.72 377.465 L3727.51 377.465 L3727.51 394.939 Q3727.51 399.08 3729.13 401.163 Q3730.74 403.221 3733.97 403.221 Q3737.85 403.221 3740.09 400.747 Q3742.35 398.273 3742.35 394.002 L3742.35 377.465 L3747.15 377.465 L3747.15 406.632 L3742.35 406.632 L3742.35 402.153 Q3740.61 404.809 3738.29 406.111 Q3736 407.387 3732.95 407.387 Q3727.93 407.387 3725.32 404.262 Q3722.72 401.137 3722.72 395.122 M3734.78 376.762 L3734.78 376.762 Z" fill="#000000" fill-rule="nonzero" fill-opacity="1" /><path clip-path="url(#clip590)" d="M3770.27 391.971 Q3764.46 391.971 3762.22 393.299 Q3759.98 394.627 3759.98 397.83 Q3759.98 400.382 3761.65 401.892 Q3763.34 403.377 3766.23 403.377 Q3770.22 403.377 3772.61 400.564 Q3775.04 397.726 3775.04 393.038 L3775.04 391.971 L3770.27 391.971 M3779.83 389.991 L3779.83 406.632 L3775.04 406.632 L3775.04 402.205 Q3773.4 404.861 3770.95 406.137 Q3768.5 407.387 3764.96 407.387 Q3760.48 407.387 3757.82 404.887 Q3755.19 402.361 3755.19 398.142 Q3755.19 393.221 3758.47 390.721 Q3761.78 388.221 3768.32 388.221 L3775.04 388.221 L3775.04 387.752 Q3775.04 384.445 3772.85 382.648 Q3770.69 380.825 3766.76 380.825 Q3764.26 380.825 3761.89 381.424 Q3759.52 382.023 3757.33 383.221 L3757.33 378.794 Q3759.96 377.778 3762.43 377.283 Q3764.91 376.762 3767.25 376.762 Q3773.58 376.762 3776.7 380.044 Q3779.83 383.325 3779.83 389.991 Z" fill="#000000" fill-rule="nonzero" fill-opacity="1" /><path clip-path="url(#clip590)" d="M3789.7 366.111 L3794.49 366.111 L3794.49 406.632 L3789.7 406.632 L3789.7 366.111 Z" fill="#000000" fill-rule="nonzero" fill-opacity="1" /></svg>
