<?xml version="1.0" encoding="UTF-8" standalone="no"?>
<!DOCTYPE svg PUBLIC "-//W3C//DTD SVG 1.1//EN"
 "http://www.w3.org/Graphics/SVG/1.1/DTD/svg11.dtd">
<!-- Generated by graphviz version 2.50.0 (20211204.2007)
 -->
<!-- Pages: 1 -->
<svg width="1487pt" height="742pt"
 viewBox="0.00 0.00 1487.00 742.00" xmlns="http://www.w3.org/2000/svg" xmlns:xlink="http://www.w3.org/1999/xlink">
<g id="graph0" class="graph" transform="scale(1 1) rotate(0) translate(4 738)">
<polygon fill="white" stroke="transparent" points="-4,4 -4,-738 1483,-738 1483,4 -4,4"/>
<!-- 1 -->
<g id="node1" class="node">
<title>1</title>
<text text-anchor="start" x="752" y="-715.8" font-family="Arial" font-weight="bold" font-size="14.00"> </text>
<text text-anchor="start" x="682" y="-671.3" font-family="Arial" font-size="14.00"> &#160;&#160;&#160;</text>
<path fill="#ebebeb" stroke="transparent" d="M712,-643C712,-643 796,-643 796,-643 802,-643 808,-649 808,-655 808,-655 808,-695 808,-695 808,-701 802,-707 796,-707 796,-707 712,-707 712,-707 706,-707 700,-701 700,-695 700,-695 700,-655 700,-655 700,-649 706,-643 712,-643"/>
<text text-anchor="start" x="701" y="-704.4" font-family="Arial" font-size="2.00"> </text>
<text text-anchor="start" x="701" y="-698.4" font-family="Arial" font-size="7.00"> &#160;1</text>
<text text-anchor="start" x="715" y="-681.8" font-family="Arial" font-weight="bold" font-size="14.00">Mean: 82.33</text>
<text text-anchor="start" x="730.5" y="-664.8" font-family="Arial" font-weight="bold" font-size="14.00">n = 672</text>
<text text-anchor="start" x="752.5" y="-646.8" font-family="Arial" font-size="9.00"> </text>
<path fill="none" stroke="#333333" d="M712,-643C712,-643 796,-643 796,-643 802,-643 808,-649 808,-655 808,-655 808,-695 808,-695 808,-701 802,-707 796,-707 796,-707 712,-707 712,-707 706,-707 700,-701 700,-695 700,-695 700,-655 700,-655 700,-649 706,-643 712,-643"/>
<text text-anchor="start" x="810" y="-671.3" font-family="Arial" font-size="14.00"> &#160;&#160;&#160;</text>
<text text-anchor="start" x="696.5" y="-628.8" font-family="Arial" font-weight="bold" font-size="14.00">prev_168h_inflow</text>
</g>
<!-- 2 -->
<g id="node2" class="node">
<title>2</title>
<text text-anchor="start" x="524" y="-561.8" font-family="Arial" font-weight="bold" font-size="14.00"> &lt; 81.35</text>
<text text-anchor="start" x="477" y="-517.3" font-family="Arial" font-size="14.00"> &#160;&#160;&#160;</text>
<path fill="#ebebeb" stroke="transparent" d="M507,-489C507,-489 591,-489 591,-489 597,-489 603,-495 603,-501 603,-501 603,-541 603,-541 603,-547 597,-553 591,-553 591,-553 507,-553 507,-553 501,-553 495,-547 495,-541 495,-541 495,-501 495,-501 495,-495 501,-489 507,-489"/>
<text text-anchor="start" x="496" y="-550.4" font-family="Arial" font-size="2.00"> </text>
<text text-anchor="start" x="496" y="-544.4" font-family="Arial" font-size="7.00"> &#160;2</text>
<text text-anchor="start" x="510" y="-527.8" font-family="Arial" font-weight="bold" font-size="14.00">Mean: 67.81</text>
<text text-anchor="start" x="525.5" y="-510.8" font-family="Arial" font-weight="bold" font-size="14.00">n = 272</text>
<text text-anchor="start" x="547.5" y="-492.8" font-family="Arial" font-size="9.00"> </text>
<path fill="none" stroke="#333333" d="M507,-489C507,-489 591,-489 591,-489 597,-489 603,-495 603,-501 603,-501 603,-541 603,-541 603,-547 597,-553 591,-553 591,-553 507,-553 507,-553 501,-553 495,-547 495,-541 495,-541 495,-501 495,-501 495,-495 501,-489 507,-489"/>
<text text-anchor="start" x="605" y="-517.3" font-family="Arial" font-size="14.00"> &#160;&#160;&#160;</text>
<text text-anchor="start" x="491.5" y="-474.8" font-family="Arial" font-weight="bold" font-size="14.00">prev_168h_inflow</text>
</g>
<!-- 1&#45;&gt;2 -->
<g id="edge1" class="edge">
<title>1&#45;&gt;2</title>
<path fill="none" stroke="#888888" d="M675.62,-615.88C662.52,-606.17 648.85,-596.04 635.56,-586.18"/>
<polygon fill="#888888" stroke="#888888" points="637.45,-583.23 627.34,-580.08 633.28,-588.85 637.45,-583.23"/>
</g>
<!-- 11 -->
<g id="node3" class="node">
<title>11</title>
<text text-anchor="start" x="859.5" y="-561.8" font-family="Arial" font-weight="bold" font-size="14.00"> ≥ 81.35</text>
<text text-anchor="start" x="816" y="-517.3" font-family="Arial" font-size="14.00"> &#160;&#160;&#160;</text>
<path fill="#ebebeb" stroke="transparent" d="M846,-489C846,-489 922,-489 922,-489 928,-489 934,-495 934,-501 934,-501 934,-541 934,-541 934,-547 928,-553 922,-553 922,-553 846,-553 846,-553 840,-553 834,-547 834,-541 834,-541 834,-501 834,-501 834,-495 840,-489 846,-489"/>
<text text-anchor="start" x="835" y="-550.4" font-family="Arial" font-size="2.00"> </text>
<text text-anchor="start" x="835" y="-544.4" font-family="Arial" font-size="7.00"> &#160;11</text>
<text text-anchor="start" x="849" y="-527.8" font-family="Arial" font-weight="bold" font-size="14.00">Mean: 92.2</text>
<text text-anchor="start" x="860.5" y="-510.8" font-family="Arial" font-weight="bold" font-size="14.00">n = 400</text>
<text text-anchor="start" x="882.5" y="-492.8" font-family="Arial" font-size="9.00"> </text>
<path fill="none" stroke="#333333" d="M846,-489C846,-489 922,-489 922,-489 928,-489 934,-495 934,-501 934,-501 934,-541 934,-541 934,-547 928,-553 922,-553 922,-553 846,-553 846,-553 840,-553 834,-547 834,-541 834,-541 834,-501 834,-501 834,-495 840,-489 846,-489"/>
<text text-anchor="start" x="936" y="-517.3" font-family="Arial" font-size="14.00"> &#160;&#160;&#160;</text>
<text text-anchor="start" x="826.5" y="-474.8" font-family="Arial" font-weight="bold" font-size="14.00">prev_168h_inflow</text>
</g>
<!-- 1&#45;&gt;11 -->
<g id="edge2" class="edge">
<title>1&#45;&gt;11</title>
<path fill="none" stroke="#888888" d="M803.89,-615.67C811.67,-606.58 819.75,-597.13 827.65,-587.88"/>
<polygon fill="#888888" stroke="#888888" points="830.4,-590.05 834.24,-580.18 825.08,-585.5 830.4,-590.05"/>
</g>
<!-- 3 -->
<g id="node4" class="node">
<title>3</title>
<text text-anchor="start" x="287" y="-407.8" font-family="Arial" font-weight="bold" font-size="14.00"> &lt; 69.88</text>
<text text-anchor="start" x="244" y="-363.3" font-family="Arial" font-size="14.00"> &#160;&#160;</text>
<path fill="#ebebeb" stroke="transparent" d="M270,-335C270,-335 354,-335 354,-335 360,-335 366,-341 366,-347 366,-347 366,-387 366,-387 366,-393 360,-399 354,-399 354,-399 270,-399 270,-399 264,-399 258,-393 258,-387 258,-387 258,-347 258,-347 258,-341 264,-335 270,-335"/>
<text text-anchor="start" x="259" y="-396.4" font-family="Arial" font-size="2.00"> </text>
<text text-anchor="start" x="259" y="-390.4" font-family="Arial" font-size="7.00"> &#160;3</text>
<text text-anchor="start" x="273" y="-373.8" font-family="Arial" font-weight="bold" font-size="14.00">Mean: 62.38</text>
<text text-anchor="start" x="288.5" y="-356.8" font-family="Arial" font-weight="bold" font-size="14.00">n = 177</text>
<text text-anchor="start" x="310.5" y="-338.8" font-family="Arial" font-size="9.00"> </text>
<path fill="none" stroke="#333333" d="M270,-335C270,-335 354,-335 354,-335 360,-335 366,-341 366,-347 366,-347 366,-387 366,-387 366,-393 360,-399 354,-399 354,-399 270,-399 270,-399 264,-399 258,-393 258,-387 258,-387 258,-347 258,-347 258,-341 264,-335 270,-335"/>
<text text-anchor="start" x="368" y="-363.3" font-family="Arial" font-size="14.00"> &#160;&#160;</text>
<text text-anchor="start" x="258.5" y="-320.8" font-family="Arial" font-weight="bold" font-size="14.00">prev_24h_inflow</text>
</g>
<!-- 2&#45;&gt;3 -->
<g id="edge3" class="edge">
<title>2&#45;&gt;3</title>
<path fill="none" stroke="#888888" d="M466.77,-467.26C444.72,-453.12 420.82,-437.79 398.54,-423.5"/>
<polygon fill="#888888" stroke="#888888" points="400.4,-420.54 390.09,-418.08 396.62,-426.43 400.4,-420.54"/>
</g>
<!-- 8 -->
<g id="node5" class="node">
<title>8</title>
<text text-anchor="start" x="524.5" y="-407.8" font-family="Arial" font-weight="bold" font-size="14.00"> ≥ 69.88</text>
<path fill="#ebebeb" stroke="transparent" d="M507,-335C507,-335 591,-335 591,-335 597,-335 603,-341 603,-347 603,-347 603,-387 603,-387 603,-393 597,-399 591,-399 591,-399 507,-399 507,-399 501,-399 495,-393 495,-387 495,-387 495,-347 495,-347 495,-341 501,-335 507,-335"/>
<text text-anchor="start" x="496" y="-396.4" font-family="Arial" font-size="2.00"> </text>
<text text-anchor="start" x="496" y="-390.4" font-family="Arial" font-size="7.00"> &#160;8</text>
<text text-anchor="start" x="510" y="-373.8" font-family="Arial" font-weight="bold" font-size="14.00">Mean: 77.93</text>
<text text-anchor="start" x="529" y="-356.8" font-family="Arial" font-weight="bold" font-size="14.00">n = 95</text>
<text text-anchor="start" x="547.5" y="-338.8" font-family="Arial" font-size="9.00"> </text>
<path fill="none" stroke="#333333" d="M507,-335C507,-335 591,-335 591,-335 597,-335 603,-341 603,-347 603,-347 603,-387 603,-387 603,-393 597,-399 591,-399 591,-399 507,-399 507,-399 501,-399 495,-393 495,-387 495,-387 495,-347 495,-347 495,-341 501,-335 507,-335"/>
<text text-anchor="start" x="534.5" y="-320.8" font-family="Arial" font-weight="bold" font-size="14.00">time</text>
</g>
<!-- 2&#45;&gt;8 -->
<g id="edge4" class="edge">
<title>2&#45;&gt;8</title>
<path fill="none" stroke="#888888" d="M549,-461.67C549,-453.39 549,-444.83 549,-436.38"/>
<polygon fill="#888888" stroke="#888888" points="552.5,-436.18 549,-426.18 545.5,-436.18 552.5,-436.18"/>
</g>
<!-- 12 -->
<g id="node12" class="node">
<title>12</title>
<text text-anchor="start" x="862.5" y="-407.8" font-family="Arial" font-weight="bold" font-size="14.00"> &lt; 96.1</text>
<text text-anchor="start" x="812" y="-363.3" font-family="Arial" font-size="14.00"> &#160;&#160;&#160;</text>
<path fill="#ebebeb" stroke="transparent" d="M842,-335C842,-335 926,-335 926,-335 932,-335 938,-341 938,-347 938,-347 938,-387 938,-387 938,-393 932,-399 926,-399 926,-399 842,-399 842,-399 836,-399 830,-393 830,-387 830,-387 830,-347 830,-347 830,-341 836,-335 842,-335"/>
<text text-anchor="start" x="831" y="-396.4" font-family="Arial" font-size="2.00"> </text>
<text text-anchor="start" x="831" y="-390.4" font-family="Arial" font-size="7.00"> &#160;12</text>
<text text-anchor="start" x="845" y="-373.8" font-family="Arial" font-weight="bold" font-size="14.00">Mean: 89.28</text>
<text text-anchor="start" x="861" y="-356.8" font-family="Arial" font-weight="bold" font-size="14.00">n = 311</text>
<text text-anchor="start" x="882.5" y="-338.8" font-family="Arial" font-size="9.00"> </text>
<path fill="none" stroke="#333333" d="M842,-335C842,-335 926,-335 926,-335 932,-335 938,-341 938,-347 938,-347 938,-387 938,-387 938,-393 932,-399 926,-399 926,-399 842,-399 842,-399 836,-399 830,-393 830,-387 830,-387 830,-347 830,-347 830,-341 836,-335 842,-335"/>
<text text-anchor="start" x="940" y="-363.3" font-family="Arial" font-size="14.00"> &#160;&#160;&#160;</text>
<text text-anchor="start" x="826.5" y="-320.8" font-family="Arial" font-weight="bold" font-size="14.00">prev_168h_inflow</text>
</g>
<!-- 11&#45;&gt;12 -->
<g id="edge11" class="edge">
<title>11&#45;&gt;12</title>
<path fill="none" stroke="#888888" d="M884,-461.67C884,-453.39 884,-444.83 884,-436.38"/>
<polygon fill="#888888" stroke="#888888" points="887.5,-436.18 884,-426.18 880.5,-436.18 887.5,-436.18"/>
</g>
<!-- 19 -->
<g id="node13" class="node">
<title>19</title>
<text text-anchor="start" x="1228" y="-407.8" font-family="Arial" font-weight="bold" font-size="14.00"> ≥ 96.1</text>
<text text-anchor="start" x="1177" y="-363.3" font-family="Arial" font-size="14.00"> &#160;&#160;&#160;</text>
<path fill="#ebebeb" stroke="transparent" d="M1207,-335C1207,-335 1291,-335 1291,-335 1297,-335 1303,-341 1303,-347 1303,-347 1303,-387 1303,-387 1303,-393 1297,-399 1291,-399 1291,-399 1207,-399 1207,-399 1201,-399 1195,-393 1195,-387 1195,-387 1195,-347 1195,-347 1195,-341 1201,-335 1207,-335"/>
<text text-anchor="start" x="1196" y="-396.4" font-family="Arial" font-size="2.00"> </text>
<text text-anchor="start" x="1196" y="-390.4" font-family="Arial" font-size="7.00"> &#160;19</text>
<text text-anchor="start" x="1210" y="-373.8" font-family="Arial" font-weight="bold" font-size="14.00">Mean: 102.4</text>
<text text-anchor="start" x="1229" y="-356.8" font-family="Arial" font-weight="bold" font-size="14.00">n = 89</text>
<text text-anchor="start" x="1247.5" y="-338.8" font-family="Arial" font-size="9.00"> </text>
<path fill="none" stroke="#333333" d="M1207,-335C1207,-335 1291,-335 1291,-335 1297,-335 1303,-341 1303,-347 1303,-347 1303,-387 1303,-387 1303,-393 1297,-399 1291,-399 1291,-399 1207,-399 1207,-399 1201,-399 1195,-393 1195,-387 1195,-387 1195,-347 1195,-347 1195,-341 1201,-335 1207,-335"/>
<text text-anchor="start" x="1305" y="-363.3" font-family="Arial" font-size="14.00"> &#160;&#160;&#160;</text>
<text text-anchor="start" x="1191.5" y="-320.8" font-family="Arial" font-weight="bold" font-size="14.00">prev_168h_inflow</text>
</g>
<!-- 11&#45;&gt;19 -->
<g id="edge12" class="edge">
<title>11&#45;&gt;19</title>
<path fill="none" stroke="#888888" d="M962.3,-487.39C1019.47,-463.59 1097.14,-431.24 1157.23,-406.22"/>
<polygon fill="#888888" stroke="#888888" points="1158.82,-409.34 1166.71,-402.27 1156.13,-402.88 1158.82,-409.34"/>
</g>
<!-- 4 -->
<g id="node6" class="node">
<title>4</title>
<text text-anchor="start" x="122" y="-253.8" font-family="Arial" font-weight="bold" font-size="14.00"> &lt; 65.36</text>
<text text-anchor="start" x="79" y="-209.3" font-family="Arial" font-size="14.00"> &#160;&#160;</text>
<path fill="#ebebeb" stroke="transparent" d="M105,-181C105,-181 189,-181 189,-181 195,-181 201,-187 201,-193 201,-193 201,-233 201,-233 201,-239 195,-245 189,-245 189,-245 105,-245 105,-245 99,-245 93,-239 93,-233 93,-233 93,-193 93,-193 93,-187 99,-181 105,-181"/>
<text text-anchor="start" x="94" y="-242.4" font-family="Arial" font-size="2.00"> </text>
<text text-anchor="start" x="94" y="-236.4" font-family="Arial" font-size="7.00"> &#160;4</text>
<text text-anchor="start" x="108" y="-219.8" font-family="Arial" font-weight="bold" font-size="14.00">Mean: 61.25</text>
<text text-anchor="start" x="123.5" y="-202.8" font-family="Arial" font-weight="bold" font-size="14.00">n = 144</text>
<text text-anchor="start" x="145.5" y="-184.8" font-family="Arial" font-size="9.00"> </text>
<path fill="none" stroke="#333333" d="M105,-181C105,-181 189,-181 189,-181 195,-181 201,-187 201,-193 201,-193 201,-233 201,-233 201,-239 195,-245 189,-245 189,-245 105,-245 105,-245 99,-245 93,-239 93,-233 93,-233 93,-193 93,-193 93,-187 99,-181 105,-181"/>
<text text-anchor="start" x="203" y="-209.3" font-family="Arial" font-size="14.00"> &#160;&#160;</text>
<text text-anchor="start" x="93.5" y="-166.8" font-family="Arial" font-weight="bold" font-size="14.00">prev_24h_inflow</text>
</g>
<!-- 3&#45;&gt;4 -->
<g id="edge5" class="edge">
<title>3&#45;&gt;4</title>
<path fill="none" stroke="#888888" d="M248.68,-307.67C238.51,-298.3 227.94,-288.56 217.61,-279.05"/>
<polygon fill="#888888" stroke="#888888" points="219.88,-276.38 210.15,-272.18 215.14,-281.53 219.88,-276.38"/>
</g>
<!-- 7 -->
<g id="node7" class="node">
<title>7</title>
<text text-anchor="start" x="287.5" y="-253.8" font-family="Arial" font-weight="bold" font-size="14.00"> ≥ 65.36</text>
<path fill="#f8766d" fill-opacity="0.796078" stroke="transparent" d="M267,-181C267,-181 357,-181 357,-181 363,-181 369,-187 369,-193 369,-193 369,-233 369,-233 369,-239 363,-245 357,-245 357,-245 267,-245 267,-245 261,-245 255,-239 255,-233 255,-233 255,-193 255,-193 255,-187 261,-181 267,-181"/>
<text text-anchor="start" x="256" y="-242.4" font-family="Arial" font-size="2.00"> </text>
<text text-anchor="start" x="256" y="-236.4" font-family="Arial" font-size="7.00"> &#160;7</text>
<text text-anchor="start" x="270" y="-219.8" font-family="Arial" font-weight="bold" font-size="14.00">Predict 67.34</text>
<text text-anchor="start" x="292" y="-202.8" font-family="Arial" font-weight="bold" font-size="14.00">n = 33</text>
<text text-anchor="start" x="310.5" y="-184.8" font-family="Arial" font-size="9.00"> </text>
<path fill="none" stroke="#333333" d="M267,-181C267,-181 357,-181 357,-181 363,-181 369,-187 369,-193 369,-193 369,-233 369,-233 369,-239 363,-245 357,-245 357,-245 267,-245 267,-245 261,-245 255,-239 255,-233 255,-233 255,-193 255,-193 255,-187 261,-181 267,-181"/>
<text text-anchor="start" x="310" y="-166.8" font-family="Arial" font-weight="bold" font-size="14.00"> </text>
</g>
<!-- 3&#45;&gt;7 -->
<g id="edge6" class="edge">
<title>3&#45;&gt;7</title>
<path fill="none" stroke="#888888" d="M312,-307.67C312,-299.39 312,-290.83 312,-282.38"/>
<polygon fill="#888888" stroke="#888888" points="315.5,-282.18 312,-272.18 308.5,-282.18 315.5,-282.18"/>
</g>
<!-- 9 -->
<g id="node10" class="node">
<title>9</title>
<text text-anchor="start" x="446.5" y="-253.8" font-family="Arial" font-weight="bold" font-size="14.00"> &lt; 22.5</text>
<path fill="#f8766d" fill-opacity="0.658824" stroke="transparent" d="M423,-181C423,-181 513,-181 513,-181 519,-181 525,-187 525,-193 525,-193 525,-233 525,-233 525,-239 519,-245 513,-245 513,-245 423,-245 423,-245 417,-245 411,-239 411,-233 411,-233 411,-193 411,-193 411,-187 417,-181 423,-181"/>
<text text-anchor="start" x="412" y="-242.4" font-family="Arial" font-size="2.00"> </text>
<text text-anchor="start" x="412" y="-236.4" font-family="Arial" font-size="7.00"> &#160;9</text>
<text text-anchor="start" x="426" y="-219.8" font-family="Arial" font-weight="bold" font-size="14.00">Predict 79.67</text>
<text text-anchor="start" x="448" y="-202.8" font-family="Arial" font-weight="bold" font-size="14.00">n = 68</text>
<text text-anchor="start" x="466.5" y="-184.8" font-family="Arial" font-size="9.00"> </text>
<path fill="none" stroke="#333333" d="M423,-181C423,-181 513,-181 513,-181 519,-181 525,-187 525,-193 525,-193 525,-233 525,-233 525,-239 519,-245 513,-245 513,-245 423,-245 423,-245 417,-245 411,-239 411,-233 411,-233 411,-193 411,-193 411,-187 417,-181 423,-181"/>
<text text-anchor="start" x="466" y="-166.8" font-family="Arial" font-weight="bold" font-size="14.00"> </text>
</g>
<!-- 8&#45;&gt;9 -->
<g id="edge9" class="edge">
<title>8&#45;&gt;9</title>
<path fill="none" stroke="#888888" d="M517.91,-307.67C513.31,-299.03 508.54,-290.07 503.85,-281.27"/>
<polygon fill="#888888" stroke="#888888" points="506.79,-279.36 499,-272.18 500.62,-282.65 506.79,-279.36"/>
</g>
<!-- 10 -->
<g id="node11" class="node">
<title>10</title>
<text text-anchor="start" x="603" y="-253.8" font-family="Arial" font-weight="bold" font-size="14.00"> ≥ 22.5</text>
<path fill="#f8766d" fill-opacity="0.725490" stroke="transparent" d="M579,-181C579,-181 669,-181 669,-181 675,-181 681,-187 681,-193 681,-193 681,-233 681,-233 681,-239 675,-245 669,-245 669,-245 579,-245 579,-245 573,-245 567,-239 567,-233 567,-233 567,-193 567,-193 567,-187 573,-181 579,-181"/>
<text text-anchor="start" x="568" y="-242.4" font-family="Arial" font-size="2.00"> </text>
<text text-anchor="start" x="568" y="-236.4" font-family="Arial" font-size="7.00"> &#160;10</text>
<text text-anchor="start" x="582" y="-219.8" font-family="Arial" font-weight="bold" font-size="14.00">Predict 73.57</text>
<text text-anchor="start" x="604" y="-202.8" font-family="Arial" font-weight="bold" font-size="14.00">n = 27</text>
<text text-anchor="start" x="622.5" y="-184.8" font-family="Arial" font-size="9.00"> </text>
<path fill="none" stroke="#333333" d="M579,-181C579,-181 669,-181 669,-181 675,-181 681,-187 681,-193 681,-193 681,-233 681,-233 681,-239 675,-245 669,-245 669,-245 579,-245 579,-245 573,-245 567,-239 567,-233 567,-233 567,-193 567,-193 567,-187 573,-181 579,-181"/>
<text text-anchor="start" x="622" y="-166.8" font-family="Arial" font-weight="bold" font-size="14.00"> </text>
</g>
<!-- 8&#45;&gt;10 -->
<g id="edge10" class="edge">
<title>8&#45;&gt;10</title>
<path fill="none" stroke="#888888" d="M577.78,-307.67C582.04,-299.03 586.46,-290.07 590.81,-281.27"/>
<polygon fill="#888888" stroke="#888888" points="594.01,-282.69 595.29,-272.18 587.73,-279.6 594.01,-282.69"/>
</g>
<!-- 5 -->
<g id="node8" class="node">
<title>5</title>
<text text-anchor="start" x="44" y="-99.8" font-family="Arial" font-weight="bold" font-size="14.00"> &lt; 61.43</text>
<path fill="#f8766d" fill-opacity="0.874510" stroke="transparent" d="M24,-27C24,-27 114,-27 114,-27 120,-27 126,-33 126,-39 126,-39 126,-79 126,-79 126,-85 120,-91 114,-91 114,-91 24,-91 24,-91 18,-91 12,-85 12,-79 12,-79 12,-39 12,-39 12,-33 18,-27 24,-27"/>
<text text-anchor="start" x="13" y="-88.4" font-family="Arial" font-size="2.00"> </text>
<text text-anchor="start" x="13" y="-82.4" font-family="Arial" font-size="7.00"> &#160;5</text>
<text text-anchor="start" x="27" y="-65.8" font-family="Arial" font-weight="bold" font-size="14.00">Predict 60.19</text>
<text text-anchor="start" x="49" y="-48.8" font-family="Arial" font-weight="bold" font-size="14.00">n = 86</text>
<text text-anchor="start" x="67.5" y="-30.8" font-family="Arial" font-size="9.00"> </text>
<path fill="none" stroke="#333333" d="M24,-27C24,-27 114,-27 114,-27 120,-27 126,-33 126,-39 126,-39 126,-79 126,-79 126,-85 120,-91 114,-91 114,-91 24,-91 24,-91 18,-91 12,-85 12,-79 12,-79 12,-39 12,-39 12,-33 18,-27 24,-27"/>
<text text-anchor="start" x="67" y="-12.8" font-family="Arial" font-weight="bold" font-size="14.00"> </text>
</g>
<!-- 4&#45;&gt;5 -->
<g id="edge7" class="edge">
<title>4&#45;&gt;5</title>
<path fill="none" stroke="#888888" d="M117.07,-153.67C112.63,-145.03 108.04,-136.07 103.52,-127.27"/>
<polygon fill="#888888" stroke="#888888" points="106.53,-125.48 98.85,-118.18 100.31,-128.67 106.53,-125.48"/>
</g>
<!-- 6 -->
<g id="node9" class="node">
<title>6</title>
<text text-anchor="start" x="200.5" y="-99.8" font-family="Arial" font-weight="bold" font-size="14.00"> ≥ 61.43</text>
<path fill="#f8766d" fill-opacity="0.847059" stroke="transparent" d="M180,-27C180,-27 270,-27 270,-27 276,-27 282,-33 282,-39 282,-39 282,-79 282,-79 282,-85 276,-91 270,-91 270,-91 180,-91 180,-91 174,-91 168,-85 168,-79 168,-79 168,-39 168,-39 168,-33 174,-27 180,-27"/>
<text text-anchor="start" x="169" y="-88.4" font-family="Arial" font-size="2.00"> </text>
<text text-anchor="start" x="169" y="-82.4" font-family="Arial" font-size="7.00"> &#160;6</text>
<text text-anchor="start" x="183" y="-65.8" font-family="Arial" font-weight="bold" font-size="14.00">Predict 62.81</text>
<text text-anchor="start" x="205" y="-48.8" font-family="Arial" font-weight="bold" font-size="14.00">n = 58</text>
<text text-anchor="start" x="223.5" y="-30.8" font-family="Arial" font-size="9.00"> </text>
<path fill="none" stroke="#333333" d="M180,-27C180,-27 270,-27 270,-27 276,-27 282,-33 282,-39 282,-39 282,-79 282,-79 282,-85 276,-91 270,-91 270,-91 180,-91 180,-91 174,-91 168,-85 168,-79 168,-79 168,-39 168,-39 168,-33 174,-27 180,-27"/>
<text text-anchor="start" x="223" y="-12.8" font-family="Arial" font-weight="bold" font-size="14.00"> </text>
</g>
<!-- 4&#45;&gt;6 -->
<g id="edge8" class="edge">
<title>4&#45;&gt;6</title>
<path fill="none" stroke="#888888" d="M176.93,-153.67C181.37,-145.03 185.96,-136.07 190.48,-127.27"/>
<polygon fill="#888888" stroke="#888888" points="193.69,-128.67 195.15,-118.18 187.47,-125.48 193.69,-128.67"/>
</g>
<!-- 13 -->
<g id="node14" class="node">
<title>13</title>
<text text-anchor="start" x="768" y="-253.8" font-family="Arial" font-weight="bold" font-size="14.00"> &lt; 87.66</text>
<text text-anchor="start" x="721" y="-209.3" font-family="Arial" font-size="14.00"> &#160;&#160;&#160;</text>
<path fill="#ebebeb" stroke="transparent" d="M751,-181C751,-181 835,-181 835,-181 841,-181 847,-187 847,-193 847,-193 847,-233 847,-233 847,-239 841,-245 835,-245 835,-245 751,-245 751,-245 745,-245 739,-239 739,-233 739,-233 739,-193 739,-193 739,-187 745,-181 751,-181"/>
<text text-anchor="start" x="740" y="-242.4" font-family="Arial" font-size="2.00"> </text>
<text text-anchor="start" x="740" y="-236.4" font-family="Arial" font-size="7.00"> &#160;13</text>
<text text-anchor="start" x="754" y="-219.8" font-family="Arial" font-weight="bold" font-size="14.00">Mean: 86.44</text>
<text text-anchor="start" x="769.5" y="-202.8" font-family="Arial" font-weight="bold" font-size="14.00">n = 151</text>
<text text-anchor="start" x="791.5" y="-184.8" font-family="Arial" font-size="9.00"> </text>
<path fill="none" stroke="#333333" d="M751,-181C751,-181 835,-181 835,-181 841,-181 847,-187 847,-193 847,-193 847,-233 847,-233 847,-239 841,-245 835,-245 835,-245 751,-245 751,-245 745,-245 739,-239 739,-233 739,-233 739,-193 739,-193 739,-187 745,-181 751,-181"/>
<text text-anchor="start" x="849" y="-209.3" font-family="Arial" font-size="14.00"> &#160;&#160;&#160;</text>
<text text-anchor="start" x="735.5" y="-166.8" font-family="Arial" font-weight="bold" font-size="14.00">prev_168h_inflow</text>
</g>
<!-- 12&#45;&gt;13 -->
<g id="edge13" class="edge">
<title>12&#45;&gt;13</title>
<path fill="none" stroke="#888888" d="M849.08,-307.67C843.85,-298.94 838.43,-289.88 833.11,-280.99"/>
<polygon fill="#888888" stroke="#888888" points="835.97,-278.96 827.83,-272.18 829.96,-282.55 835.97,-278.96"/>
</g>
<!-- 16 -->
<g id="node15" class="node">
<title>16</title>
<text text-anchor="start" x="950.5" y="-253.8" font-family="Arial" font-weight="bold" font-size="14.00"> ≥ 87.66</text>
<text text-anchor="start" x="903" y="-209.3" font-family="Arial" font-size="14.00"> &#160;&#160;&#160;</text>
<path fill="#ebebeb" stroke="transparent" d="M933,-181C933,-181 1017,-181 1017,-181 1023,-181 1029,-187 1029,-193 1029,-193 1029,-233 1029,-233 1029,-239 1023,-245 1017,-245 1017,-245 933,-245 933,-245 927,-245 921,-239 921,-233 921,-233 921,-193 921,-193 921,-187 927,-181 933,-181"/>
<text text-anchor="start" x="922" y="-242.4" font-family="Arial" font-size="2.00"> </text>
<text text-anchor="start" x="922" y="-236.4" font-family="Arial" font-size="7.00"> &#160;16</text>
<text text-anchor="start" x="936" y="-219.8" font-family="Arial" font-weight="bold" font-size="14.00">Mean: 91.96</text>
<text text-anchor="start" x="951.5" y="-202.8" font-family="Arial" font-weight="bold" font-size="14.00">n = 160</text>
<text text-anchor="start" x="973.5" y="-184.8" font-family="Arial" font-size="9.00"> </text>
<path fill="none" stroke="#333333" d="M933,-181C933,-181 1017,-181 1017,-181 1023,-181 1029,-187 1029,-193 1029,-193 1029,-233 1029,-233 1029,-239 1023,-245 1017,-245 1017,-245 933,-245 933,-245 927,-245 921,-239 921,-233 921,-233 921,-193 921,-193 921,-187 927,-181 933,-181"/>
<text text-anchor="start" x="1031" y="-209.3" font-family="Arial" font-size="14.00"> &#160;&#160;&#160;</text>
<text text-anchor="start" x="917.5" y="-166.8" font-family="Arial" font-weight="bold" font-size="14.00">prev_168h_inflow</text>
</g>
<!-- 12&#45;&gt;16 -->
<g id="edge14" class="edge">
<title>12&#45;&gt;16</title>
<path fill="none" stroke="#888888" d="M918.92,-307.67C924.15,-298.94 929.57,-289.88 934.89,-280.99"/>
<polygon fill="#888888" stroke="#888888" points="938.04,-282.55 940.17,-272.18 932.03,-278.96 938.04,-282.55"/>
</g>
<!-- 20 -->
<g id="node20" class="node">
<title>20</title>
<text text-anchor="start" x="1224" y="-253.8" font-family="Arial" font-weight="bold" font-size="14.00"> &lt; 101.6</text>
<text text-anchor="start" x="1185" y="-209.3" font-family="Arial" font-size="14.00"> &#160;</text>
<path fill="#ebebeb" stroke="transparent" d="M1207,-181C1207,-181 1291,-181 1291,-181 1297,-181 1303,-187 1303,-193 1303,-193 1303,-233 1303,-233 1303,-239 1297,-245 1291,-245 1291,-245 1207,-245 1207,-245 1201,-245 1195,-239 1195,-233 1195,-233 1195,-193 1195,-193 1195,-187 1201,-181 1207,-181"/>
<text text-anchor="start" x="1196" y="-242.4" font-family="Arial" font-size="2.00"> </text>
<text text-anchor="start" x="1196" y="-236.4" font-family="Arial" font-size="7.00"> &#160;20</text>
<text text-anchor="start" x="1210" y="-219.8" font-family="Arial" font-weight="bold" font-size="14.00">Mean: 99.71</text>
<text text-anchor="start" x="1229" y="-202.8" font-family="Arial" font-weight="bold" font-size="14.00">n = 46</text>
<text text-anchor="start" x="1247.5" y="-184.8" font-family="Arial" font-size="9.00"> </text>
<path fill="none" stroke="#333333" d="M1207,-181C1207,-181 1291,-181 1291,-181 1297,-181 1303,-187 1303,-193 1303,-193 1303,-233 1303,-233 1303,-239 1297,-245 1291,-245 1291,-245 1207,-245 1207,-245 1201,-245 1195,-239 1195,-233 1195,-233 1195,-193 1195,-193 1195,-187 1201,-181 1207,-181"/>
<text text-anchor="start" x="1305" y="-209.3" font-family="Arial" font-size="14.00"> &#160;</text>
<text text-anchor="start" x="1199" y="-166.8" font-family="Arial" font-weight="bold" font-size="14.00">prev_1h_inflow</text>
</g>
<!-- 19&#45;&gt;20 -->
<g id="edge19" class="edge">
<title>19&#45;&gt;20</title>
<path fill="none" stroke="#888888" d="M1249,-307.67C1249,-299.39 1249,-290.83 1249,-282.38"/>
<polygon fill="#888888" stroke="#888888" points="1252.5,-282.18 1249,-272.18 1245.5,-282.18 1252.5,-282.18"/>
</g>
<!-- 23 -->
<g id="node21" class="node">
<title>23</title>
<text text-anchor="start" x="1385.5" y="-253.8" font-family="Arial" font-weight="bold" font-size="14.00"> ≥ 101.6</text>
<path fill="#f8766d" fill-opacity="0.376471" stroke="transparent" d="M1365,-181C1365,-181 1455,-181 1455,-181 1461,-181 1467,-187 1467,-193 1467,-193 1467,-233 1467,-233 1467,-239 1461,-245 1455,-245 1455,-245 1365,-245 1365,-245 1359,-245 1353,-239 1353,-233 1353,-233 1353,-193 1353,-193 1353,-187 1359,-181 1365,-181"/>
<text text-anchor="start" x="1354" y="-242.4" font-family="Arial" font-size="2.00"> </text>
<text text-anchor="start" x="1354" y="-236.4" font-family="Arial" font-size="7.00"> &#160;23</text>
<text text-anchor="start" x="1368" y="-219.8" font-family="Arial" font-weight="bold" font-size="14.00">Predict 105.3</text>
<text text-anchor="start" x="1390" y="-202.8" font-family="Arial" font-weight="bold" font-size="14.00">n = 43</text>
<text text-anchor="start" x="1408.5" y="-184.8" font-family="Arial" font-size="9.00"> </text>
<path fill="none" stroke="#333333" d="M1365,-181C1365,-181 1455,-181 1455,-181 1461,-181 1467,-187 1467,-193 1467,-193 1467,-233 1467,-233 1467,-239 1461,-245 1455,-245 1455,-245 1365,-245 1365,-245 1359,-245 1353,-239 1353,-233 1353,-233 1353,-193 1353,-193 1353,-187 1359,-181 1365,-181"/>
<text text-anchor="start" x="1408" y="-166.8" font-family="Arial" font-weight="bold" font-size="14.00"> </text>
</g>
<!-- 19&#45;&gt;23 -->
<g id="edge20" class="edge">
<title>19&#45;&gt;23</title>
<path fill="none" stroke="#888888" d="M1310.79,-307.67C1320.71,-298.3 1331.03,-288.56 1341.1,-279.05"/>
<polygon fill="#888888" stroke="#888888" points="1343.51,-281.59 1348.38,-272.18 1338.7,-276.5 1343.51,-281.59"/>
</g>
<!-- 14 -->
<g id="node16" class="node">
<title>14</title>
<text text-anchor="start" x="616" y="-99.8" font-family="Arial" font-weight="bold" font-size="14.00"> &lt; 85.14</text>
<path fill="#f8766d" fill-opacity="0.600000" stroke="transparent" d="M596,-27C596,-27 686,-27 686,-27 692,-27 698,-33 698,-39 698,-39 698,-79 698,-79 698,-85 692,-91 686,-91 686,-91 596,-91 596,-91 590,-91 584,-85 584,-79 584,-79 584,-39 584,-39 584,-33 590,-27 596,-27"/>
<text text-anchor="start" x="585" y="-88.4" font-family="Arial" font-size="2.00"> </text>
<text text-anchor="start" x="585" y="-82.4" font-family="Arial" font-size="7.00"> &#160;14</text>
<text text-anchor="start" x="599" y="-65.8" font-family="Arial" font-weight="bold" font-size="14.00">Predict 85.02</text>
<text text-anchor="start" x="621" y="-48.8" font-family="Arial" font-weight="bold" font-size="14.00">n = 71</text>
<text text-anchor="start" x="639.5" y="-30.8" font-family="Arial" font-size="9.00"> </text>
<path fill="none" stroke="#333333" d="M596,-27C596,-27 686,-27 686,-27 692,-27 698,-33 698,-39 698,-39 698,-79 698,-79 698,-85 692,-91 686,-91 686,-91 596,-91 596,-91 590,-91 584,-85 584,-79 584,-79 584,-39 584,-39 584,-33 590,-27 596,-27"/>
<text text-anchor="start" x="639" y="-12.8" font-family="Arial" font-weight="bold" font-size="14.00"> </text>
</g>
<!-- 13&#45;&gt;14 -->
<g id="edge15" class="edge">
<title>13&#45;&gt;14</title>
<path fill="none" stroke="#888888" d="M734.67,-153.67C725.39,-144.39 715.75,-134.75 706.33,-125.33"/>
<polygon fill="#888888" stroke="#888888" points="708.72,-122.77 699.18,-118.18 703.77,-127.72 708.72,-122.77"/>
</g>
<!-- 15 -->
<g id="node17" class="node">
<title>15</title>
<text text-anchor="start" x="768.5" y="-99.8" font-family="Arial" font-weight="bold" font-size="14.00"> ≥ 85.14</text>
<path fill="#f8766d" fill-opacity="0.568627" stroke="transparent" d="M752,-27C752,-27 834,-27 834,-27 840,-27 846,-33 846,-39 846,-39 846,-79 846,-79 846,-85 840,-91 834,-91 834,-91 752,-91 752,-91 746,-91 740,-85 740,-79 740,-79 740,-39 740,-39 740,-33 746,-27 752,-27"/>
<text text-anchor="start" x="741" y="-88.4" font-family="Arial" font-size="2.00"> </text>
<text text-anchor="start" x="741" y="-82.4" font-family="Arial" font-size="7.00"> &#160;15</text>
<text text-anchor="start" x="755" y="-65.8" font-family="Arial" font-weight="bold" font-size="14.00">Predict 87.7</text>
<text text-anchor="start" x="773" y="-48.8" font-family="Arial" font-weight="bold" font-size="14.00">n = 80</text>
<text text-anchor="start" x="791.5" y="-30.8" font-family="Arial" font-size="9.00"> </text>
<path fill="none" stroke="#333333" d="M752,-27C752,-27 834,-27 834,-27 840,-27 846,-33 846,-39 846,-39 846,-79 846,-79 846,-85 840,-91 834,-91 834,-91 752,-91 752,-91 746,-91 740,-85 740,-79 740,-79 740,-39 740,-39 740,-33 746,-27 752,-27"/>
<text text-anchor="start" x="791" y="-12.8" font-family="Arial" font-weight="bold" font-size="14.00"> </text>
</g>
<!-- 13&#45;&gt;15 -->
<g id="edge16" class="edge">
<title>13&#45;&gt;15</title>
<path fill="none" stroke="#888888" d="M793,-153.67C793,-145.39 793,-136.83 793,-128.38"/>
<polygon fill="#888888" stroke="#888888" points="796.5,-128.18 793,-118.18 789.5,-128.18 796.5,-128.18"/>
</g>
<!-- 17 -->
<g id="node18" class="node">
<title>17</title>
<text text-anchor="start" x="923.5" y="-99.8" font-family="Arial" font-weight="bold" font-size="14.00"> &lt; 91.5</text>
<path fill="#f8766d" fill-opacity="0.541176" stroke="transparent" d="M900,-27C900,-27 990,-27 990,-27 996,-27 1002,-33 1002,-39 1002,-39 1002,-79 1002,-79 1002,-85 996,-91 990,-91 990,-91 900,-91 900,-91 894,-91 888,-85 888,-79 888,-79 888,-39 888,-39 888,-33 894,-27 900,-27"/>
<text text-anchor="start" x="889" y="-88.4" font-family="Arial" font-size="2.00"> </text>
<text text-anchor="start" x="889" y="-82.4" font-family="Arial" font-size="7.00"> &#160;17</text>
<text text-anchor="start" x="903" y="-65.8" font-family="Arial" font-weight="bold" font-size="14.00">Predict 90.26</text>
<text text-anchor="start" x="925" y="-48.8" font-family="Arial" font-weight="bold" font-size="14.00">n = 99</text>
<text text-anchor="start" x="943.5" y="-30.8" font-family="Arial" font-size="9.00"> </text>
<path fill="none" stroke="#333333" d="M900,-27C900,-27 990,-27 990,-27 996,-27 1002,-33 1002,-39 1002,-39 1002,-79 1002,-79 1002,-85 996,-91 990,-91 990,-91 900,-91 900,-91 894,-91 888,-85 888,-79 888,-79 888,-39 888,-39 888,-33 894,-27 900,-27"/>
<text text-anchor="start" x="943" y="-12.8" font-family="Arial" font-weight="bold" font-size="14.00"> </text>
</g>
<!-- 16&#45;&gt;17 -->
<g id="edge17" class="edge">
<title>16&#45;&gt;17</title>
<path fill="none" stroke="#888888" d="M963.49,-153.67C961.84,-145.3 960.13,-136.64 958.44,-128.1"/>
<polygon fill="#888888" stroke="#888888" points="961.85,-127.31 956.48,-118.18 954.98,-128.66 961.85,-127.31"/>
</g>
<!-- 18 -->
<g id="node19" class="node">
<title>18</title>
<text text-anchor="start" x="1076" y="-99.8" font-family="Arial" font-weight="bold" font-size="14.00"> ≥ 91.5</text>
<path fill="#f8766d" fill-opacity="0.494118" stroke="transparent" d="M1056,-27C1056,-27 1138,-27 1138,-27 1144,-27 1150,-33 1150,-39 1150,-39 1150,-79 1150,-79 1150,-85 1144,-91 1138,-91 1138,-91 1056,-91 1056,-91 1050,-91 1044,-85 1044,-79 1044,-79 1044,-39 1044,-39 1044,-33 1050,-27 1056,-27"/>
<text text-anchor="start" x="1045" y="-88.4" font-family="Arial" font-size="2.00"> </text>
<text text-anchor="start" x="1045" y="-82.4" font-family="Arial" font-size="7.00"> &#160;18</text>
<text text-anchor="start" x="1059" y="-65.8" font-family="Arial" font-weight="bold" font-size="14.00">Predict 94.7</text>
<text text-anchor="start" x="1077" y="-48.8" font-family="Arial" font-weight="bold" font-size="14.00">n = 61</text>
<text text-anchor="start" x="1095.5" y="-30.8" font-family="Arial" font-size="9.00"> </text>
<path fill="none" stroke="#333333" d="M1056,-27C1056,-27 1138,-27 1138,-27 1144,-27 1150,-33 1150,-39 1150,-39 1150,-79 1150,-79 1150,-85 1144,-91 1138,-91 1138,-91 1056,-91 1056,-91 1050,-91 1044,-85 1044,-79 1044,-79 1044,-39 1044,-39 1044,-33 1050,-27 1056,-27"/>
<text text-anchor="start" x="1095" y="-12.8" font-family="Arial" font-weight="bold" font-size="14.00"> </text>
</g>
<!-- 16&#45;&gt;18 -->
<g id="edge18" class="edge">
<title>16&#45;&gt;18</title>
<path fill="none" stroke="#888888" d="M1021.82,-153.67C1029.04,-144.67 1036.55,-135.32 1043.9,-126.16"/>
<polygon fill="#888888" stroke="#888888" points="1046.78,-128.17 1050.31,-118.18 1041.32,-123.78 1046.78,-128.17"/>
</g>
<!-- 21 -->
<g id="node22" class="node">
<title>21</title>
<text text-anchor="start" x="1224" y="-99.8" font-family="Arial" font-weight="bold" font-size="14.00"> &lt; 105.7</text>
<path fill="#f8766d" fill-opacity="0.447059" stroke="transparent" d="M1204,-27C1204,-27 1294,-27 1294,-27 1300,-27 1306,-33 1306,-39 1306,-39 1306,-79 1306,-79 1306,-85 1300,-91 1294,-91 1294,-91 1204,-91 1204,-91 1198,-91 1192,-85 1192,-79 1192,-79 1192,-39 1192,-39 1192,-33 1198,-27 1204,-27"/>
<text text-anchor="start" x="1193" y="-88.4" font-family="Arial" font-size="2.00"> </text>
<text text-anchor="start" x="1193" y="-82.4" font-family="Arial" font-size="7.00"> &#160;21</text>
<text text-anchor="start" x="1207" y="-65.8" font-family="Arial" font-weight="bold" font-size="14.00">Predict 98.63</text>
<text text-anchor="start" x="1229" y="-48.8" font-family="Arial" font-weight="bold" font-size="14.00">n = 36</text>
<text text-anchor="start" x="1247.5" y="-30.8" font-family="Arial" font-size="9.00"> </text>
<path fill="none" stroke="#333333" d="M1204,-27C1204,-27 1294,-27 1294,-27 1300,-27 1306,-33 1306,-39 1306,-39 1306,-79 1306,-79 1306,-85 1300,-91 1294,-91 1294,-91 1204,-91 1204,-91 1198,-91 1192,-85 1192,-79 1192,-79 1192,-39 1192,-39 1192,-33 1198,-27 1204,-27"/>
<text text-anchor="start" x="1247" y="-12.8" font-family="Arial" font-weight="bold" font-size="14.00"> </text>
</g>
<!-- 20&#45;&gt;21 -->
<g id="edge21" class="edge">
<title>20&#45;&gt;21</title>
<path fill="none" stroke="#888888" d="M1249,-153.67C1249,-145.39 1249,-136.83 1249,-128.38"/>
<polygon fill="#888888" stroke="#888888" points="1252.5,-128.18 1249,-118.18 1245.5,-128.18 1252.5,-128.18"/>
</g>
<!-- 22 -->
<g id="node23" class="node">
<title>22</title>
<text text-anchor="start" x="1380.5" y="-99.8" font-family="Arial" font-weight="bold" font-size="14.00"> ≥ 105.7</text>
<path fill="#f8766d" fill-opacity="0.392157" stroke="transparent" d="M1360,-27C1360,-27 1450,-27 1450,-27 1456,-27 1462,-33 1462,-39 1462,-39 1462,-79 1462,-79 1462,-85 1456,-91 1450,-91 1450,-91 1360,-91 1360,-91 1354,-91 1348,-85 1348,-79 1348,-79 1348,-39 1348,-39 1348,-33 1354,-27 1360,-27"/>
<text text-anchor="start" x="1349" y="-88.4" font-family="Arial" font-size="2.00"> </text>
<text text-anchor="start" x="1349" y="-82.4" font-family="Arial" font-size="7.00"> &#160;22</text>
<text text-anchor="start" x="1363" y="-65.8" font-family="Arial" font-weight="bold" font-size="14.00">Predict 103.6</text>
<text text-anchor="start" x="1385" y="-48.8" font-family="Arial" font-weight="bold" font-size="14.00">n = 10</text>
<text text-anchor="start" x="1403.5" y="-30.8" font-family="Arial" font-size="9.00"> </text>
<path fill="none" stroke="#333333" d="M1360,-27C1360,-27 1450,-27 1450,-27 1456,-27 1462,-33 1462,-39 1462,-39 1462,-79 1462,-79 1462,-85 1456,-91 1450,-91 1450,-91 1360,-91 1360,-91 1354,-91 1348,-85 1348,-79 1348,-79 1348,-39 1348,-39 1348,-33 1354,-27 1360,-27"/>
<text text-anchor="start" x="1403" y="-12.8" font-family="Arial" font-weight="bold" font-size="14.00"> </text>
</g>
<!-- 20&#45;&gt;22 -->
<g id="edge22" class="edge">
<title>20&#45;&gt;22</title>
<path fill="none" stroke="#888888" d="M1308.87,-153.67C1318.38,-144.39 1328.28,-134.75 1337.95,-125.33"/>
<polygon fill="#888888" stroke="#888888" points="1340.57,-127.66 1345.29,-118.18 1335.69,-122.65 1340.57,-127.66"/>
</g>
</g>
</svg>
