<?xml version="1.0" encoding="UTF-8" standalone="no"?>
<!DOCTYPE svg PUBLIC "-//W3C//DTD SVG 1.1//EN"
 "http://www.w3.org/Graphics/SVG/1.1/DTD/svg11.dtd">
<!-- Generated by graphviz version 2.50.0 (20211204.2007)
 -->
<!-- Pages: 1 -->
<svg width="1230pt" height="588pt"
 viewBox="0.00 0.00 1230.00 588.00" xmlns="http://www.w3.org/2000/svg" xmlns:xlink="http://www.w3.org/1999/xlink">
<g id="graph0" class="graph" transform="scale(1 1) rotate(0) translate(4 584)">
<polygon fill="white" stroke="transparent" points="-4,4 -4,-584 1226,-584 1226,4 -4,4"/>
<!-- 1 -->
<g id="node1" class="node">
<title>1</title>
<text text-anchor="start" x="585" y="-561.8" font-family="Arial" font-weight="bold" font-size="14.00"> </text>
<text text-anchor="start" x="515" y="-517.3" font-family="Arial" font-size="14.00"> &#160;&#160;&#160;</text>
<path fill="#ebebeb" stroke="transparent" d="M545,-489C545,-489 629,-489 629,-489 635,-489 641,-495 641,-501 641,-501 641,-541 641,-541 641,-547 635,-553 629,-553 629,-553 545,-553 545,-553 539,-553 533,-547 533,-541 533,-541 533,-501 533,-501 533,-495 539,-489 545,-489"/>
<text text-anchor="start" x="534" y="-550.4" font-family="Arial" font-size="2.00"> </text>
<text text-anchor="start" x="534" y="-544.4" font-family="Arial" font-size="7.00"> &#160;1</text>
<text text-anchor="start" x="548" y="-527.8" font-family="Arial" font-weight="bold" font-size="14.00">Mean: 22.78</text>
<text text-anchor="start" x="563.5" y="-510.8" font-family="Arial" font-weight="bold" font-size="14.00">n = 168</text>
<text text-anchor="start" x="585.5" y="-492.8" font-family="Arial" font-size="9.00"> </text>
<path fill="none" stroke="#333333" d="M545,-489C545,-489 629,-489 629,-489 635,-489 641,-495 641,-501 641,-501 641,-541 641,-541 641,-547 635,-553 629,-553 629,-553 545,-553 545,-553 539,-553 533,-547 533,-541 533,-541 533,-501 533,-501 533,-495 539,-489 545,-489"/>
<text text-anchor="start" x="643" y="-517.3" font-family="Arial" font-size="14.00"> &#160;&#160;&#160;</text>
<text text-anchor="start" x="529.5" y="-474.8" font-family="Arial" font-weight="bold" font-size="14.00">prev_168h_inflow</text>
</g>
<!-- 2 -->
<g id="node2" class="node">
<title>2</title>
<text text-anchor="start" x="471" y="-407.8" font-family="Arial" font-weight="bold" font-size="14.00"> &lt; 22.57</text>
<text text-anchor="start" x="424" y="-363.3" font-family="Arial" font-size="14.00"> &#160;&#160;&#160;</text>
<path fill="#ebebeb" stroke="transparent" d="M454,-335C454,-335 538,-335 538,-335 544,-335 550,-341 550,-347 550,-347 550,-387 550,-387 550,-393 544,-399 538,-399 538,-399 454,-399 454,-399 448,-399 442,-393 442,-387 442,-387 442,-347 442,-347 442,-341 448,-335 454,-335"/>
<text text-anchor="start" x="443" y="-396.4" font-family="Arial" font-size="2.00"> </text>
<text text-anchor="start" x="443" y="-390.4" font-family="Arial" font-size="7.00"> &#160;2</text>
<text text-anchor="start" x="457" y="-373.8" font-family="Arial" font-weight="bold" font-size="14.00">Mean: 15.13</text>
<text text-anchor="start" x="476" y="-356.8" font-family="Arial" font-weight="bold" font-size="14.00">n = 67</text>
<text text-anchor="start" x="494.5" y="-338.8" font-family="Arial" font-size="9.00"> </text>
<path fill="none" stroke="#333333" d="M454,-335C454,-335 538,-335 538,-335 544,-335 550,-341 550,-347 550,-347 550,-387 550,-387 550,-393 544,-399 538,-399 538,-399 454,-399 454,-399 448,-399 442,-393 442,-387 442,-387 442,-347 442,-347 442,-341 448,-335 454,-335"/>
<text text-anchor="start" x="552" y="-363.3" font-family="Arial" font-size="14.00"> &#160;&#160;&#160;</text>
<text text-anchor="start" x="438.5" y="-320.8" font-family="Arial" font-weight="bold" font-size="14.00">prev_168h_inflow</text>
</g>
<!-- 1&#45;&gt;2 -->
<g id="edge1" class="edge">
<title>1&#45;&gt;2</title>
<path fill="none" stroke="#888888" d="M552.08,-461.67C546.85,-452.94 541.43,-443.88 536.11,-434.99"/>
<polygon fill="#888888" stroke="#888888" points="538.97,-432.96 530.83,-426.18 532.96,-436.55 538.97,-432.96"/>
</g>
<!-- 9 -->
<g id="node3" class="node">
<title>9</title>
<text text-anchor="start" x="709.5" y="-407.8" font-family="Arial" font-weight="bold" font-size="14.00"> ≥ 22.57</text>
<text text-anchor="start" x="662" y="-363.3" font-family="Arial" font-size="14.00"> &#160;&#160;&#160;</text>
<path fill="#ebebeb" stroke="transparent" d="M692,-335C692,-335 776,-335 776,-335 782,-335 788,-341 788,-347 788,-347 788,-387 788,-387 788,-393 782,-399 776,-399 776,-399 692,-399 692,-399 686,-399 680,-393 680,-387 680,-387 680,-347 680,-347 680,-341 686,-335 692,-335"/>
<text text-anchor="start" x="681" y="-396.4" font-family="Arial" font-size="2.00"> </text>
<text text-anchor="start" x="681" y="-390.4" font-family="Arial" font-size="7.00"> &#160;9</text>
<text text-anchor="start" x="695" y="-373.8" font-family="Arial" font-weight="bold" font-size="14.00">Mean: 27.85</text>
<text text-anchor="start" x="710.5" y="-356.8" font-family="Arial" font-weight="bold" font-size="14.00">n = 101</text>
<text text-anchor="start" x="732.5" y="-338.8" font-family="Arial" font-size="9.00"> </text>
<path fill="none" stroke="#333333" d="M692,-335C692,-335 776,-335 776,-335 782,-335 788,-341 788,-347 788,-347 788,-387 788,-387 788,-393 782,-399 776,-399 776,-399 692,-399 692,-399 686,-399 680,-393 680,-387 680,-387 680,-347 680,-347 680,-341 686,-335 692,-335"/>
<text text-anchor="start" x="790" y="-363.3" font-family="Arial" font-size="14.00"> &#160;&#160;&#160;</text>
<text text-anchor="start" x="676.5" y="-320.8" font-family="Arial" font-weight="bold" font-size="14.00">prev_168h_inflow</text>
</g>
<!-- 1&#45;&gt;9 -->
<g id="edge2" class="edge">
<title>1&#45;&gt;9</title>
<path fill="none" stroke="#888888" d="M643.41,-461.67C652.29,-452.49 661.53,-442.94 670.55,-433.6"/>
<polygon fill="#888888" stroke="#888888" points="673.3,-435.8 677.74,-426.18 668.27,-430.93 673.3,-435.8"/>
</g>
<!-- 3 -->
<g id="node4" class="node">
<title>3</title>
<text text-anchor="start" x="200" y="-253.8" font-family="Arial" font-weight="bold" font-size="14.00"> &lt; 17.51</text>
<text text-anchor="start" x="153" y="-209.3" font-family="Arial" font-size="14.00"> &#160;&#160;&#160;</text>
<path fill="#ebebeb" stroke="transparent" d="M183,-181C183,-181 267,-181 267,-181 273,-181 279,-187 279,-193 279,-193 279,-233 279,-233 279,-239 273,-245 267,-245 267,-245 183,-245 183,-245 177,-245 171,-239 171,-233 171,-233 171,-193 171,-193 171,-187 177,-181 183,-181"/>
<text text-anchor="start" x="172" y="-242.4" font-family="Arial" font-size="2.00"> </text>
<text text-anchor="start" x="172" y="-236.4" font-family="Arial" font-size="7.00"> &#160;3</text>
<text text-anchor="start" x="186" y="-219.8" font-family="Arial" font-weight="bold" font-size="14.00">Mean: 13.32</text>
<text text-anchor="start" x="205" y="-202.8" font-family="Arial" font-weight="bold" font-size="14.00">n = 50</text>
<text text-anchor="start" x="223.5" y="-184.8" font-family="Arial" font-size="9.00"> </text>
<path fill="none" stroke="#333333" d="M183,-181C183,-181 267,-181 267,-181 273,-181 279,-187 279,-193 279,-193 279,-233 279,-233 279,-239 273,-245 267,-245 267,-245 183,-245 183,-245 177,-245 171,-239 171,-233 171,-233 171,-193 171,-193 171,-187 177,-181 183,-181"/>
<text text-anchor="start" x="281" y="-209.3" font-family="Arial" font-size="14.00"> &#160;&#160;&#160;</text>
<text text-anchor="start" x="167.5" y="-166.8" font-family="Arial" font-weight="bold" font-size="14.00">prev_168h_inflow</text>
</g>
<!-- 2&#45;&gt;3 -->
<g id="edge3" class="edge">
<title>2&#45;&gt;3</title>
<path fill="none" stroke="#888888" d="M413.96,-319.98C383.06,-302.65 347.74,-282.84 316.06,-265.08"/>
<polygon fill="#888888" stroke="#888888" points="317.67,-261.96 307.23,-260.12 314.24,-268.07 317.67,-261.96"/>
</g>
<!-- 6 -->
<g id="node5" class="node">
<title>6</title>
<text text-anchor="start" x="471.5" y="-253.8" font-family="Arial" font-weight="bold" font-size="14.00"> ≥ 17.51</text>
<text text-anchor="start" x="432" y="-209.3" font-family="Arial" font-size="14.00"> &#160;</text>
<path fill="#ebebeb" stroke="transparent" d="M454,-181C454,-181 538,-181 538,-181 544,-181 550,-187 550,-193 550,-193 550,-233 550,-233 550,-239 544,-245 538,-245 538,-245 454,-245 454,-245 448,-245 442,-239 442,-233 442,-233 442,-193 442,-193 442,-187 448,-181 454,-181"/>
<text text-anchor="start" x="443" y="-242.4" font-family="Arial" font-size="2.00"> </text>
<text text-anchor="start" x="443" y="-236.4" font-family="Arial" font-size="7.00"> &#160;6</text>
<text text-anchor="start" x="457" y="-219.8" font-family="Arial" font-weight="bold" font-size="14.00">Mean: 20.47</text>
<text text-anchor="start" x="476" y="-202.8" font-family="Arial" font-weight="bold" font-size="14.00">n = 17</text>
<text text-anchor="start" x="494.5" y="-184.8" font-family="Arial" font-size="9.00"> </text>
<path fill="none" stroke="#333333" d="M454,-181C454,-181 538,-181 538,-181 544,-181 550,-187 550,-193 550,-193 550,-233 550,-233 550,-239 544,-245 538,-245 538,-245 454,-245 454,-245 448,-245 442,-239 442,-233 442,-233 442,-193 442,-193 442,-187 448,-181 454,-181"/>
<text text-anchor="start" x="552" y="-209.3" font-family="Arial" font-size="14.00"> &#160;</text>
<text text-anchor="start" x="446" y="-166.8" font-family="Arial" font-weight="bold" font-size="14.00">prev_1h_inflow</text>
</g>
<!-- 2&#45;&gt;6 -->
<g id="edge4" class="edge">
<title>2&#45;&gt;6</title>
<path fill="none" stroke="#888888" d="M496,-307.67C496,-299.39 496,-290.83 496,-282.38"/>
<polygon fill="#888888" stroke="#888888" points="499.5,-282.18 496,-272.18 492.5,-282.18 499.5,-282.18"/>
</g>
<!-- 10 -->
<g id="node10" class="node">
<title>10</title>
<text text-anchor="start" x="709" y="-253.8" font-family="Arial" font-weight="bold" font-size="14.00"> &lt; 27.35</text>
<text text-anchor="start" x="666" y="-209.3" font-family="Arial" font-size="14.00"> &#160;&#160;&#160;</text>
<path fill="#ebebeb" stroke="transparent" d="M696,-181C696,-181 772,-181 772,-181 778,-181 784,-187 784,-193 784,-193 784,-233 784,-233 784,-239 778,-245 772,-245 772,-245 696,-245 696,-245 690,-245 684,-239 684,-233 684,-233 684,-193 684,-193 684,-187 690,-181 696,-181"/>
<text text-anchor="start" x="685" y="-242.4" font-family="Arial" font-size="2.00"> </text>
<text text-anchor="start" x="685" y="-236.4" font-family="Arial" font-size="7.00"> &#160;10</text>
<text text-anchor="start" x="699" y="-219.8" font-family="Arial" font-weight="bold" font-size="14.00">Mean: 25.6</text>
<text text-anchor="start" x="714" y="-202.8" font-family="Arial" font-weight="bold" font-size="14.00">n = 52</text>
<text text-anchor="start" x="732.5" y="-184.8" font-family="Arial" font-size="9.00"> </text>
<path fill="none" stroke="#333333" d="M696,-181C696,-181 772,-181 772,-181 778,-181 784,-187 784,-193 784,-193 784,-233 784,-233 784,-239 778,-245 772,-245 772,-245 696,-245 696,-245 690,-245 684,-239 684,-233 684,-233 684,-193 684,-193 684,-187 690,-181 696,-181"/>
<text text-anchor="start" x="786" y="-209.3" font-family="Arial" font-size="14.00"> &#160;&#160;&#160;</text>
<text text-anchor="start" x="676.5" y="-166.8" font-family="Arial" font-weight="bold" font-size="14.00">prev_168h_inflow</text>
</g>
<!-- 9&#45;&gt;10 -->
<g id="edge9" class="edge">
<title>9&#45;&gt;10</title>
<path fill="none" stroke="#888888" d="M734,-307.67C734,-299.39 734,-290.83 734,-282.38"/>
<polygon fill="#888888" stroke="#888888" points="737.5,-282.18 734,-272.18 730.5,-282.18 737.5,-282.18"/>
</g>
<!-- 13 -->
<g id="node11" class="node">
<title>13</title>
<text text-anchor="start" x="972.5" y="-253.8" font-family="Arial" font-weight="bold" font-size="14.00"> ≥ 27.35</text>
<text text-anchor="start" x="925" y="-209.3" font-family="Arial" font-size="14.00"> &#160;&#160;&#160;</text>
<path fill="#ebebeb" stroke="transparent" d="M955,-181C955,-181 1039,-181 1039,-181 1045,-181 1051,-187 1051,-193 1051,-193 1051,-233 1051,-233 1051,-239 1045,-245 1039,-245 1039,-245 955,-245 955,-245 949,-245 943,-239 943,-233 943,-233 943,-193 943,-193 943,-187 949,-181 955,-181"/>
<text text-anchor="start" x="944" y="-242.4" font-family="Arial" font-size="2.00"> </text>
<text text-anchor="start" x="944" y="-236.4" font-family="Arial" font-size="7.00"> &#160;13</text>
<text text-anchor="start" x="958" y="-219.8" font-family="Arial" font-weight="bold" font-size="14.00">Mean: 30.23</text>
<text text-anchor="start" x="977" y="-202.8" font-family="Arial" font-weight="bold" font-size="14.00">n = 49</text>
<text text-anchor="start" x="995.5" y="-184.8" font-family="Arial" font-size="9.00"> </text>
<path fill="none" stroke="#333333" d="M955,-181C955,-181 1039,-181 1039,-181 1045,-181 1051,-187 1051,-193 1051,-193 1051,-233 1051,-233 1051,-239 1045,-245 1039,-245 1039,-245 955,-245 955,-245 949,-245 943,-239 943,-233 943,-233 943,-193 943,-193 943,-187 949,-181 955,-181"/>
<text text-anchor="start" x="1053" y="-209.3" font-family="Arial" font-size="14.00"> &#160;&#160;&#160;</text>
<text text-anchor="start" x="939.5" y="-166.8" font-family="Arial" font-weight="bold" font-size="14.00">prev_168h_inflow</text>
</g>
<!-- 9&#45;&gt;13 -->
<g id="edge10" class="edge">
<title>9&#45;&gt;13</title>
<path fill="none" stroke="#888888" d="M816.13,-318.53C844.54,-302.11 876.55,-283.61 905.65,-266.79"/>
<polygon fill="#888888" stroke="#888888" points="907.68,-269.67 914.59,-261.63 904.18,-263.6 907.68,-269.67"/>
</g>
<!-- 4 -->
<g id="node6" class="node">
<title>4</title>
<text text-anchor="start" x="44" y="-99.8" font-family="Arial" font-weight="bold" font-size="14.00"> &lt; 14.81</text>
<path fill="#f8766d" fill-opacity="0.874510" stroke="transparent" d="M24,-27C24,-27 114,-27 114,-27 120,-27 126,-33 126,-39 126,-39 126,-79 126,-79 126,-85 120,-91 114,-91 114,-91 24,-91 24,-91 18,-91 12,-85 12,-79 12,-79 12,-39 12,-39 12,-33 18,-27 24,-27"/>
<text text-anchor="start" x="13" y="-88.4" font-family="Arial" font-size="2.00"> </text>
<text text-anchor="start" x="13" y="-82.4" font-family="Arial" font-size="7.00"> &#160;4</text>
<text text-anchor="start" x="27" y="-65.8" font-family="Arial" font-weight="bold" font-size="14.00">Predict 12.37</text>
<text text-anchor="start" x="49" y="-48.8" font-family="Arial" font-weight="bold" font-size="14.00">n = 37</text>
<text text-anchor="start" x="67.5" y="-30.8" font-family="Arial" font-size="9.00"> </text>
<path fill="none" stroke="#333333" d="M24,-27C24,-27 114,-27 114,-27 120,-27 126,-33 126,-39 126,-39 126,-79 126,-79 126,-85 120,-91 114,-91 114,-91 24,-91 24,-91 18,-91 12,-85 12,-79 12,-79 12,-39 12,-39 12,-33 18,-27 24,-27"/>
<text text-anchor="start" x="67" y="-12.8" font-family="Arial" font-weight="bold" font-size="14.00"> </text>
</g>
<!-- 3&#45;&gt;4 -->
<g id="edge5" class="edge">
<title>3&#45;&gt;4</title>
<path fill="none" stroke="#888888" d="M165.13,-153.67C155.62,-144.39 145.72,-134.75 136.05,-125.33"/>
<polygon fill="#888888" stroke="#888888" points="138.31,-122.65 128.71,-118.18 133.43,-127.66 138.31,-122.65"/>
</g>
<!-- 5 -->
<g id="node7" class="node">
<title>5</title>
<text text-anchor="start" x="200.5" y="-99.8" font-family="Arial" font-weight="bold" font-size="14.00"> ≥ 14.81</text>
<path fill="#f8766d" fill-opacity="0.780392" stroke="transparent" d="M180,-27C180,-27 270,-27 270,-27 276,-27 282,-33 282,-39 282,-39 282,-79 282,-79 282,-85 276,-91 270,-91 270,-91 180,-91 180,-91 174,-91 168,-85 168,-79 168,-79 168,-39 168,-39 168,-33 174,-27 180,-27"/>
<text text-anchor="start" x="169" y="-88.4" font-family="Arial" font-size="2.00"> </text>
<text text-anchor="start" x="169" y="-82.4" font-family="Arial" font-size="7.00"> &#160;5</text>
<text text-anchor="start" x="183" y="-65.8" font-family="Arial" font-weight="bold" font-size="14.00">Predict 16.01</text>
<text text-anchor="start" x="205" y="-48.8" font-family="Arial" font-weight="bold" font-size="14.00">n = 13</text>
<text text-anchor="start" x="223.5" y="-30.8" font-family="Arial" font-size="9.00"> </text>
<path fill="none" stroke="#333333" d="M180,-27C180,-27 270,-27 270,-27 276,-27 282,-33 282,-39 282,-39 282,-79 282,-79 282,-85 276,-91 270,-91 270,-91 180,-91 180,-91 174,-91 168,-85 168,-79 168,-79 168,-39 168,-39 168,-33 174,-27 180,-27"/>
<text text-anchor="start" x="223" y="-12.8" font-family="Arial" font-weight="bold" font-size="14.00"> </text>
</g>
<!-- 3&#45;&gt;5 -->
<g id="edge6" class="edge">
<title>3&#45;&gt;5</title>
<path fill="none" stroke="#888888" d="M225,-153.67C225,-145.39 225,-136.83 225,-128.38"/>
<polygon fill="#888888" stroke="#888888" points="228.5,-128.18 225,-118.18 221.5,-128.18 228.5,-128.18"/>
</g>
<!-- 7 -->
<g id="node8" class="node">
<title>7</title>
<text text-anchor="start" x="356" y="-99.8" font-family="Arial" font-weight="bold" font-size="14.00"> &lt; 24.09</text>
<path fill="#f8766d" fill-opacity="0.690196" stroke="transparent" d="M336,-27C336,-27 426,-27 426,-27 432,-27 438,-33 438,-39 438,-39 438,-79 438,-79 438,-85 432,-91 426,-91 426,-91 336,-91 336,-91 330,-91 324,-85 324,-79 324,-79 324,-39 324,-39 324,-33 330,-27 336,-27"/>
<text text-anchor="start" x="325" y="-88.4" font-family="Arial" font-size="2.00"> </text>
<text text-anchor="start" x="325" y="-82.4" font-family="Arial" font-size="7.00"> &#160;7</text>
<text text-anchor="start" x="339" y="-65.8" font-family="Arial" font-weight="bold" font-size="14.00">Predict 19.58</text>
<text text-anchor="start" x="361" y="-48.8" font-family="Arial" font-weight="bold" font-size="14.00">n = 12</text>
<text text-anchor="start" x="379.5" y="-30.8" font-family="Arial" font-size="9.00"> </text>
<path fill="none" stroke="#333333" d="M336,-27C336,-27 426,-27 426,-27 432,-27 438,-33 438,-39 438,-39 438,-79 438,-79 438,-85 432,-91 426,-91 426,-91 336,-91 336,-91 330,-91 324,-85 324,-79 324,-79 324,-39 324,-39 324,-33 330,-27 336,-27"/>
<text text-anchor="start" x="379" y="-12.8" font-family="Arial" font-weight="bold" font-size="14.00"> </text>
</g>
<!-- 6&#45;&gt;7 -->
<g id="edge7" class="edge">
<title>6&#45;&gt;7</title>
<path fill="none" stroke="#888888" d="M451.87,-153.67C445.06,-144.67 437.98,-135.32 431.05,-126.16"/>
<polygon fill="#888888" stroke="#888888" points="433.84,-124.04 425.02,-118.18 428.26,-128.26 433.84,-124.04"/>
</g>
<!-- 8 -->
<g id="node9" class="node">
<title>8</title>
<text text-anchor="start" x="512.5" y="-99.8" font-family="Arial" font-weight="bold" font-size="14.00"> ≥ 24.09</text>
<path fill="#f8766d" fill-opacity="0.615686" stroke="transparent" d="M492,-27C492,-27 582,-27 582,-27 588,-27 594,-33 594,-39 594,-39 594,-79 594,-79 594,-85 588,-91 582,-91 582,-91 492,-91 492,-91 486,-91 480,-85 480,-79 480,-79 480,-39 480,-39 480,-33 486,-27 492,-27"/>
<text text-anchor="start" x="481" y="-88.4" font-family="Arial" font-size="2.00"> </text>
<text text-anchor="start" x="481" y="-82.4" font-family="Arial" font-size="7.00"> &#160;8</text>
<text text-anchor="start" x="495" y="-65.8" font-family="Arial" font-weight="bold" font-size="14.00">Predict 22.59</text>
<text text-anchor="start" x="521" y="-48.8" font-family="Arial" font-weight="bold" font-size="14.00">n = 5</text>
<text text-anchor="start" x="535.5" y="-30.8" font-family="Arial" font-size="9.00"> </text>
<path fill="none" stroke="#333333" d="M492,-27C492,-27 582,-27 582,-27 588,-27 594,-33 594,-39 594,-39 594,-79 594,-79 594,-85 588,-91 582,-91 582,-91 492,-91 492,-91 486,-91 480,-85 480,-79 480,-79 480,-39 480,-39 480,-33 486,-27 492,-27"/>
<text text-anchor="start" x="535" y="-12.8" font-family="Arial" font-weight="bold" font-size="14.00"> </text>
</g>
<!-- 6&#45;&gt;8 -->
<g id="edge8" class="edge">
<title>6&#45;&gt;8</title>
<path fill="none" stroke="#888888" d="M511.73,-153.67C513.99,-145.3 516.33,-136.64 518.63,-128.1"/>
<polygon fill="#888888" stroke="#888888" points="522.08,-128.74 521.31,-118.18 515.32,-126.92 522.08,-128.74"/>
</g>
<!-- 11 -->
<g id="node12" class="node">
<title>11</title>
<text text-anchor="start" x="668" y="-99.8" font-family="Arial" font-weight="bold" font-size="14.00"> &lt; 25.41</text>
<path fill="#f8766d" fill-opacity="0.556863" stroke="transparent" d="M648,-27C648,-27 738,-27 738,-27 744,-27 750,-33 750,-39 750,-39 750,-79 750,-79 750,-85 744,-91 738,-91 738,-91 648,-91 648,-91 642,-91 636,-85 636,-79 636,-79 636,-39 636,-39 636,-33 642,-27 648,-27"/>
<text text-anchor="start" x="637" y="-88.4" font-family="Arial" font-size="2.00"> </text>
<text text-anchor="start" x="637" y="-82.4" font-family="Arial" font-size="7.00"> &#160;11</text>
<text text-anchor="start" x="651" y="-65.8" font-family="Arial" font-weight="bold" font-size="14.00">Predict 24.88</text>
<text text-anchor="start" x="673" y="-48.8" font-family="Arial" font-weight="bold" font-size="14.00">n = 30</text>
<text text-anchor="start" x="691.5" y="-30.8" font-family="Arial" font-size="9.00"> </text>
<path fill="none" stroke="#333333" d="M648,-27C648,-27 738,-27 738,-27 744,-27 750,-33 750,-39 750,-39 750,-79 750,-79 750,-85 744,-91 738,-91 738,-91 648,-91 648,-91 642,-91 636,-85 636,-79 636,-79 636,-39 636,-39 636,-33 642,-27 648,-27"/>
<text text-anchor="start" x="691" y="-12.8" font-family="Arial" font-weight="bold" font-size="14.00"> </text>
</g>
<!-- 10&#45;&gt;11 -->
<g id="edge11" class="edge">
<title>10&#45;&gt;11</title>
<path fill="none" stroke="#888888" d="M718.27,-153.67C716.01,-145.3 713.67,-136.64 711.37,-128.1"/>
<polygon fill="#888888" stroke="#888888" points="714.68,-126.92 708.69,-118.18 707.92,-128.74 714.68,-126.92"/>
</g>
<!-- 12 -->
<g id="node13" class="node">
<title>12</title>
<text text-anchor="start" x="820.5" y="-99.8" font-family="Arial" font-weight="bold" font-size="14.00"> ≥ 25.41</text>
<path fill="#f8766d" fill-opacity="0.509804" stroke="transparent" d="M804,-27C804,-27 886,-27 886,-27 892,-27 898,-33 898,-39 898,-39 898,-79 898,-79 898,-85 892,-91 886,-91 886,-91 804,-91 804,-91 798,-91 792,-85 792,-79 792,-79 792,-39 792,-39 792,-33 798,-27 804,-27"/>
<text text-anchor="start" x="793" y="-88.4" font-family="Arial" font-size="2.00"> </text>
<text text-anchor="start" x="793" y="-82.4" font-family="Arial" font-size="7.00"> &#160;12</text>
<text text-anchor="start" x="807" y="-65.8" font-family="Arial" font-weight="bold" font-size="14.00">Predict 26.6</text>
<text text-anchor="start" x="825" y="-48.8" font-family="Arial" font-weight="bold" font-size="14.00">n = 22</text>
<text text-anchor="start" x="843.5" y="-30.8" font-family="Arial" font-size="9.00"> </text>
<path fill="none" stroke="#333333" d="M804,-27C804,-27 886,-27 886,-27 892,-27 898,-33 898,-39 898,-39 898,-79 898,-79 898,-85 892,-91 886,-91 886,-91 804,-91 804,-91 798,-91 792,-85 792,-79 792,-79 792,-39 792,-39 792,-33 798,-27 804,-27"/>
<text text-anchor="start" x="843" y="-12.8" font-family="Arial" font-weight="bold" font-size="14.00"> </text>
</g>
<!-- 10&#45;&gt;12 -->
<g id="edge12" class="edge">
<title>10&#45;&gt;12</title>
<path fill="none" stroke="#888888" d="M776.6,-153.67C783.1,-144.76 789.86,-135.51 796.48,-126.44"/>
<polygon fill="#888888" stroke="#888888" points="799.44,-128.32 802.52,-118.18 793.79,-124.19 799.44,-128.32"/>
</g>
<!-- 14 -->
<g id="node14" class="node">
<title>14</title>
<text text-anchor="start" x="972" y="-99.8" font-family="Arial" font-weight="bold" font-size="14.00"> &lt; 30.17</text>
<path fill="#f8766d" fill-opacity="0.447059" stroke="transparent" d="M952,-27C952,-27 1042,-27 1042,-27 1048,-27 1054,-33 1054,-39 1054,-39 1054,-79 1054,-79 1054,-85 1048,-91 1042,-91 1042,-91 952,-91 952,-91 946,-91 940,-85 940,-79 940,-79 940,-39 940,-39 940,-33 946,-27 952,-27"/>
<text text-anchor="start" x="941" y="-88.4" font-family="Arial" font-size="2.00"> </text>
<text text-anchor="start" x="941" y="-82.4" font-family="Arial" font-size="7.00"> &#160;14</text>
<text text-anchor="start" x="955" y="-65.8" font-family="Arial" font-weight="bold" font-size="14.00">Predict 29.07</text>
<text text-anchor="start" x="977" y="-48.8" font-family="Arial" font-weight="bold" font-size="14.00">n = 29</text>
<text text-anchor="start" x="995.5" y="-30.8" font-family="Arial" font-size="9.00"> </text>
<path fill="none" stroke="#333333" d="M952,-27C952,-27 1042,-27 1042,-27 1048,-27 1054,-33 1054,-39 1054,-39 1054,-79 1054,-79 1054,-85 1048,-91 1042,-91 1042,-91 952,-91 952,-91 946,-91 940,-85 940,-79 940,-79 940,-39 940,-39 940,-33 946,-27 952,-27"/>
<text text-anchor="start" x="995" y="-12.8" font-family="Arial" font-weight="bold" font-size="14.00"> </text>
</g>
<!-- 13&#45;&gt;14 -->
<g id="edge13" class="edge">
<title>13&#45;&gt;14</title>
<path fill="none" stroke="#888888" d="M997,-153.67C997,-145.39 997,-136.83 997,-128.38"/>
<polygon fill="#888888" stroke="#888888" points="1000.5,-128.18 997,-118.18 993.5,-128.18 1000.5,-128.18"/>
</g>
<!-- 15 -->
<g id="node15" class="node">
<title>15</title>
<text text-anchor="start" x="1128.5" y="-99.8" font-family="Arial" font-weight="bold" font-size="14.00"> ≥ 30.17</text>
<path fill="#f8766d" fill-opacity="0.376471" stroke="transparent" d="M1108,-27C1108,-27 1198,-27 1198,-27 1204,-27 1210,-33 1210,-39 1210,-39 1210,-79 1210,-79 1210,-85 1204,-91 1198,-91 1198,-91 1108,-91 1108,-91 1102,-91 1096,-85 1096,-79 1096,-79 1096,-39 1096,-39 1096,-33 1102,-27 1108,-27"/>
<text text-anchor="start" x="1097" y="-88.4" font-family="Arial" font-size="2.00"> </text>
<text text-anchor="start" x="1097" y="-82.4" font-family="Arial" font-size="7.00"> &#160;15</text>
<text text-anchor="start" x="1111" y="-65.8" font-family="Arial" font-weight="bold" font-size="14.00">Predict 31.93</text>
<text text-anchor="start" x="1133" y="-48.8" font-family="Arial" font-weight="bold" font-size="14.00">n = 20</text>
<text text-anchor="start" x="1151.5" y="-30.8" font-family="Arial" font-size="9.00"> </text>
<path fill="none" stroke="#333333" d="M1108,-27C1108,-27 1198,-27 1198,-27 1204,-27 1210,-33 1210,-39 1210,-39 1210,-79 1210,-79 1210,-85 1204,-91 1198,-91 1198,-91 1108,-91 1108,-91 1102,-91 1096,-85 1096,-79 1096,-79 1096,-39 1096,-39 1096,-33 1102,-27 1108,-27"/>
<text text-anchor="start" x="1151" y="-12.8" font-family="Arial" font-weight="bold" font-size="14.00"> </text>
</g>
<!-- 13&#45;&gt;15 -->
<g id="edge14" class="edge">
<title>13&#45;&gt;15</title>
<path fill="none" stroke="#888888" d="M1056.87,-153.67C1066.38,-144.39 1076.28,-134.75 1085.95,-125.33"/>
<polygon fill="#888888" stroke="#888888" points="1088.57,-127.66 1093.29,-118.18 1083.69,-122.65 1088.57,-127.66"/>
</g>
</g>
</svg>
