<?xml version="1.0" encoding="UTF-8" standalone="no"?>
<!DOCTYPE svg PUBLIC "-//W3C//DTD SVG 1.1//EN"
 "http://www.w3.org/Graphics/SVG/1.1/DTD/svg11.dtd">
<!-- Generated by graphviz version 2.50.0 (20211204.2007)
 -->
<!-- Pages: 1 -->
<svg width="955pt" height="588pt"
 viewBox="0.00 0.00 955.00 588.00" xmlns="http://www.w3.org/2000/svg" xmlns:xlink="http://www.w3.org/1999/xlink">
<g id="graph0" class="graph" transform="scale(1 1) rotate(0) translate(4 584)">
<polygon fill="white" stroke="transparent" points="-4,4 -4,-584 951,-584 951,4 -4,4"/>
<!-- 1 -->
<g id="node1" class="node">
<title>1</title>
<text text-anchor="start" x="484" y="-561.8" font-family="Arial" font-weight="bold" font-size="14.00"> </text>
<text text-anchor="start" x="414" y="-517.3" font-family="Arial" font-size="14.00"> &#160;&#160;&#160;</text>
<path fill="#ebebeb" stroke="transparent" d="M444,-489C444,-489 528,-489 528,-489 534,-489 540,-495 540,-501 540,-501 540,-541 540,-541 540,-547 534,-553 528,-553 528,-553 444,-553 444,-553 438,-553 432,-547 432,-541 432,-541 432,-501 432,-501 432,-495 438,-489 444,-489"/>
<text text-anchor="start" x="433" y="-550.4" font-family="Arial" font-size="2.00"> </text>
<text text-anchor="start" x="433" y="-544.4" font-family="Arial" font-size="7.00"> &#160;1</text>
<text text-anchor="start" x="447" y="-527.8" font-family="Arial" font-weight="bold" font-size="14.00">Mean: 22.78</text>
<text text-anchor="start" x="462.5" y="-510.8" font-family="Arial" font-weight="bold" font-size="14.00">n = 168</text>
<text text-anchor="start" x="484.5" y="-492.8" font-family="Arial" font-size="9.00"> </text>
<path fill="none" stroke="#333333" d="M444,-489C444,-489 528,-489 528,-489 534,-489 540,-495 540,-501 540,-501 540,-541 540,-541 540,-547 534,-553 528,-553 528,-553 444,-553 444,-553 438,-553 432,-547 432,-541 432,-541 432,-501 432,-501 432,-495 438,-489 444,-489"/>
<text text-anchor="start" x="542" y="-517.3" font-family="Arial" font-size="14.00"> &#160;&#160;&#160;</text>
<text text-anchor="start" x="428.5" y="-474.8" font-family="Arial" font-weight="bold" font-size="14.00">prev_168h_inflow</text>
</g>
<!-- 2 -->
<g id="node2" class="node">
<title>2</title>
<text text-anchor="start" x="370" y="-407.8" font-family="Arial" font-weight="bold" font-size="14.00"> &lt; 25.41</text>
<text text-anchor="start" x="323" y="-363.3" font-family="Arial" font-size="14.00"> &#160;&#160;&#160;</text>
<path fill="#ebebeb" stroke="transparent" d="M353,-335C353,-335 437,-335 437,-335 443,-335 449,-341 449,-347 449,-347 449,-387 449,-387 449,-393 443,-399 437,-399 437,-399 353,-399 353,-399 347,-399 341,-393 341,-387 341,-387 341,-347 341,-347 341,-341 347,-335 353,-335"/>
<text text-anchor="start" x="342" y="-396.4" font-family="Arial" font-size="2.00"> </text>
<text text-anchor="start" x="342" y="-390.4" font-family="Arial" font-size="7.00"> &#160;2</text>
<text text-anchor="start" x="356" y="-373.8" font-family="Arial" font-weight="bold" font-size="14.00">Mean: 18.15</text>
<text text-anchor="start" x="375" y="-356.8" font-family="Arial" font-weight="bold" font-size="14.00">n = 97</text>
<text text-anchor="start" x="393.5" y="-338.8" font-family="Arial" font-size="9.00"> </text>
<path fill="none" stroke="#333333" d="M353,-335C353,-335 437,-335 437,-335 443,-335 449,-341 449,-347 449,-347 449,-387 449,-387 449,-393 443,-399 437,-399 437,-399 353,-399 353,-399 347,-399 341,-393 341,-387 341,-387 341,-347 341,-347 341,-341 347,-335 353,-335"/>
<text text-anchor="start" x="451" y="-363.3" font-family="Arial" font-size="14.00"> &#160;&#160;&#160;</text>
<text text-anchor="start" x="337.5" y="-320.8" font-family="Arial" font-weight="bold" font-size="14.00">prev_168h_inflow</text>
</g>
<!-- 1&#45;&gt;2 -->
<g id="edge1" class="edge">
<title>1&#45;&gt;2</title>
<path fill="none" stroke="#888888" d="M451.08,-461.67C445.85,-452.94 440.43,-443.88 435.11,-434.99"/>
<polygon fill="#888888" stroke="#888888" points="437.97,-432.96 429.83,-426.18 431.96,-436.55 437.97,-432.96"/>
</g>
<!-- 9 -->
<g id="node3" class="node">
<title>9</title>
<text text-anchor="start" x="553" y="-407.8" font-family="Arial" font-weight="bold" font-size="14.00"> ≥ 25.41</text>
<text text-anchor="start" x="506" y="-363.3" font-family="Arial" font-size="14.00"> &#160;&#160;&#160;</text>
<path fill="#ebebeb" stroke="transparent" d="M536,-335C536,-335 619,-335 619,-335 625,-335 631,-341 631,-347 631,-347 631,-387 631,-387 631,-393 625,-399 619,-399 619,-399 536,-399 536,-399 530,-399 524,-393 524,-387 524,-387 524,-347 524,-347 524,-341 530,-335 536,-335"/>
<text text-anchor="start" x="525" y="-396.4" font-family="Arial" font-size="2.00"> </text>
<text text-anchor="start" x="525" y="-390.4" font-family="Arial" font-size="7.00"> &#160;9</text>
<text text-anchor="start" x="539" y="-373.8" font-family="Arial" font-weight="bold" font-size="14.00">Mean: 29.11</text>
<text text-anchor="start" x="557.5" y="-356.8" font-family="Arial" font-weight="bold" font-size="14.00">n = 71</text>
<text text-anchor="start" x="576" y="-338.8" font-family="Arial" font-size="9.00"> </text>
<path fill="none" stroke="#333333" d="M536,-335C536,-335 619,-335 619,-335 625,-335 631,-341 631,-347 631,-347 631,-387 631,-387 631,-393 625,-399 619,-399 619,-399 536,-399 536,-399 530,-399 524,-393 524,-387 524,-387 524,-347 524,-347 524,-341 530,-335 536,-335"/>
<text text-anchor="start" x="633" y="-363.3" font-family="Arial" font-size="14.00"> &#160;&#160;&#160;</text>
<text text-anchor="start" x="520" y="-320.8" font-family="Arial" font-weight="bold" font-size="14.00">prev_168h_inflow</text>
</g>
<!-- 1&#45;&gt;9 -->
<g id="edge2" class="edge">
<title>1&#45;&gt;9</title>
<path fill="none" stroke="#888888" d="M520.92,-461.67C526.15,-452.94 531.57,-443.88 536.89,-434.99"/>
<polygon fill="#888888" stroke="#888888" points="540.04,-436.55 542.17,-426.18 534.03,-432.96 540.04,-436.55"/>
</g>
<!-- 3 -->
<g id="node4" class="node">
<title>3</title>
<text text-anchor="start" x="193" y="-253.8" font-family="Arial" font-weight="bold" font-size="14.00"> &lt; 17.51</text>
<text text-anchor="start" x="146" y="-209.3" font-family="Arial" font-size="14.00"> &#160;&#160;&#160;</text>
<path fill="#ebebeb" stroke="transparent" d="M176,-181C176,-181 260,-181 260,-181 266,-181 272,-187 272,-193 272,-193 272,-233 272,-233 272,-239 266,-245 260,-245 260,-245 176,-245 176,-245 170,-245 164,-239 164,-233 164,-233 164,-193 164,-193 164,-187 170,-181 176,-181"/>
<text text-anchor="start" x="165" y="-242.4" font-family="Arial" font-size="2.00"> </text>
<text text-anchor="start" x="165" y="-236.4" font-family="Arial" font-size="7.00"> &#160;3</text>
<text text-anchor="start" x="179" y="-219.8" font-family="Arial" font-weight="bold" font-size="14.00">Mean: 13.32</text>
<text text-anchor="start" x="198" y="-202.8" font-family="Arial" font-weight="bold" font-size="14.00">n = 50</text>
<text text-anchor="start" x="216.5" y="-184.8" font-family="Arial" font-size="9.00"> </text>
<path fill="none" stroke="#333333" d="M176,-181C176,-181 260,-181 260,-181 266,-181 272,-187 272,-193 272,-193 272,-233 272,-233 272,-239 266,-245 260,-245 260,-245 176,-245 176,-245 170,-245 164,-239 164,-233 164,-233 164,-193 164,-193 164,-187 170,-181 176,-181"/>
<text text-anchor="start" x="274" y="-209.3" font-family="Arial" font-size="14.00"> &#160;&#160;&#160;</text>
<text text-anchor="start" x="160.5" y="-166.8" font-family="Arial" font-weight="bold" font-size="14.00">prev_168h_inflow</text>
</g>
<!-- 2&#45;&gt;3 -->
<g id="edge3" class="edge">
<title>2&#45;&gt;3</title>
<path fill="none" stroke="#888888" d="M327.33,-307.88C316.23,-298.35 304.66,-288.42 293.39,-278.74"/>
<polygon fill="#888888" stroke="#888888" points="295.5,-275.94 285.64,-272.08 290.94,-281.25 295.5,-275.94"/>
</g>
<!-- 6 -->
<g id="node5" class="node">
<title>6</title>
<text text-anchor="start" x="375.5" y="-253.8" font-family="Arial" font-weight="bold" font-size="14.00"> ≥ 17.51</text>
<text text-anchor="start" x="328" y="-209.3" font-family="Arial" font-size="14.00"> &#160;&#160;&#160;</text>
<path fill="#ebebeb" stroke="transparent" d="M358,-181C358,-181 442,-181 442,-181 448,-181 454,-187 454,-193 454,-193 454,-233 454,-233 454,-239 448,-245 442,-245 442,-245 358,-245 358,-245 352,-245 346,-239 346,-233 346,-233 346,-193 346,-193 346,-187 352,-181 358,-181"/>
<text text-anchor="start" x="347" y="-242.4" font-family="Arial" font-size="2.00"> </text>
<text text-anchor="start" x="347" y="-236.4" font-family="Arial" font-size="7.00"> &#160;6</text>
<text text-anchor="start" x="361" y="-219.8" font-family="Arial" font-weight="bold" font-size="14.00">Mean: 23.28</text>
<text text-anchor="start" x="380" y="-202.8" font-family="Arial" font-weight="bold" font-size="14.00">n = 47</text>
<text text-anchor="start" x="398.5" y="-184.8" font-family="Arial" font-size="9.00"> </text>
<path fill="none" stroke="#333333" d="M358,-181C358,-181 442,-181 442,-181 448,-181 454,-187 454,-193 454,-193 454,-233 454,-233 454,-239 448,-245 442,-245 442,-245 358,-245 358,-245 352,-245 346,-239 346,-233 346,-233 346,-193 346,-193 346,-187 352,-181 358,-181"/>
<text text-anchor="start" x="456" y="-209.3" font-family="Arial" font-size="14.00"> &#160;&#160;&#160;</text>
<text text-anchor="start" x="342.5" y="-166.8" font-family="Arial" font-weight="bold" font-size="14.00">prev_168h_inflow</text>
</g>
<!-- 2&#45;&gt;6 -->
<g id="edge4" class="edge">
<title>2&#45;&gt;6</title>
<path fill="none" stroke="#888888" d="M396.92,-307.67C397.19,-299.39 397.47,-290.83 397.75,-282.38"/>
<polygon fill="#888888" stroke="#888888" points="401.26,-282.29 398.09,-272.18 394.26,-282.06 401.26,-282.29"/>
</g>
<!-- 10 -->
<g id="node10" class="node">
<title>10</title>
<text text-anchor="start" x="548" y="-253.8" font-family="Arial" font-weight="bold" font-size="14.00"> &lt; 27.35</text>
<path fill="#f8766d" fill-opacity="0.509804" stroke="transparent" d="M532,-181C532,-181 614,-181 614,-181 620,-181 626,-187 626,-193 626,-193 626,-233 626,-233 626,-239 620,-245 614,-245 614,-245 532,-245 532,-245 526,-245 520,-239 520,-233 520,-233 520,-193 520,-193 520,-187 526,-181 532,-181"/>
<text text-anchor="start" x="521" y="-242.4" font-family="Arial" font-size="2.00"> </text>
<text text-anchor="start" x="521" y="-236.4" font-family="Arial" font-size="7.00"> &#160;10</text>
<text text-anchor="start" x="535" y="-219.8" font-family="Arial" font-weight="bold" font-size="14.00">Predict 26.6</text>
<text text-anchor="start" x="553" y="-202.8" font-family="Arial" font-weight="bold" font-size="14.00">n = 22</text>
<text text-anchor="start" x="571.5" y="-184.8" font-family="Arial" font-size="9.00"> </text>
<path fill="none" stroke="#333333" d="M532,-181C532,-181 614,-181 614,-181 620,-181 626,-187 626,-193 626,-193 626,-233 626,-233 626,-239 620,-245 614,-245 614,-245 532,-245 532,-245 526,-245 520,-239 520,-233 520,-233 520,-193 520,-193 520,-187 526,-181 532,-181"/>
<text text-anchor="start" x="571" y="-166.8" font-family="Arial" font-weight="bold" font-size="14.00"> </text>
</g>
<!-- 9&#45;&gt;10 -->
<g id="edge9" class="edge">
<title>9&#45;&gt;10</title>
<path fill="none" stroke="#888888" d="M575.46,-307.67C575.25,-299.39 575.02,-290.83 574.8,-282.38"/>
<polygon fill="#888888" stroke="#888888" points="578.29,-282.08 574.53,-272.18 571.3,-282.27 578.29,-282.08"/>
</g>
<!-- 11 -->
<g id="node11" class="node">
<title>11</title>
<text text-anchor="start" x="713.5" y="-253.8" font-family="Arial" font-weight="bold" font-size="14.00"> ≥ 27.35</text>
<text text-anchor="start" x="666" y="-209.3" font-family="Arial" font-size="14.00"> &#160;&#160;&#160;</text>
<path fill="#ebebeb" stroke="transparent" d="M696,-181C696,-181 780,-181 780,-181 786,-181 792,-187 792,-193 792,-193 792,-233 792,-233 792,-239 786,-245 780,-245 780,-245 696,-245 696,-245 690,-245 684,-239 684,-233 684,-233 684,-193 684,-193 684,-187 690,-181 696,-181"/>
<text text-anchor="start" x="685" y="-242.4" font-family="Arial" font-size="2.00"> </text>
<text text-anchor="start" x="685" y="-236.4" font-family="Arial" font-size="7.00"> &#160;11</text>
<text text-anchor="start" x="699" y="-219.8" font-family="Arial" font-weight="bold" font-size="14.00">Mean: 30.23</text>
<text text-anchor="start" x="718" y="-202.8" font-family="Arial" font-weight="bold" font-size="14.00">n = 49</text>
<text text-anchor="start" x="736.5" y="-184.8" font-family="Arial" font-size="9.00"> </text>
<path fill="none" stroke="#333333" d="M696,-181C696,-181 780,-181 780,-181 786,-181 792,-187 792,-193 792,-193 792,-233 792,-233 792,-239 786,-245 780,-245 780,-245 696,-245 696,-245 690,-245 684,-239 684,-233 684,-233 684,-193 684,-193 684,-187 690,-181 696,-181"/>
<text text-anchor="start" x="794" y="-209.3" font-family="Arial" font-size="14.00"> &#160;&#160;&#160;</text>
<text text-anchor="start" x="680.5" y="-166.8" font-family="Arial" font-weight="bold" font-size="14.00">prev_168h_inflow</text>
</g>
<!-- 9&#45;&gt;11 -->
<g id="edge10" class="edge">
<title>9&#45;&gt;11</title>
<path fill="none" stroke="#888888" d="M638.79,-307.67C648.71,-298.3 659.03,-288.56 669.1,-279.05"/>
<polygon fill="#888888" stroke="#888888" points="671.51,-281.59 676.38,-272.18 666.7,-276.5 671.51,-281.59"/>
</g>
<!-- 4 -->
<g id="node6" class="node">
<title>4</title>
<text text-anchor="start" x="44" y="-99.8" font-family="Arial" font-weight="bold" font-size="14.00"> &lt; 14.69</text>
<path fill="#f8766d" fill-opacity="0.874510" stroke="transparent" d="M24,-27C24,-27 114,-27 114,-27 120,-27 126,-33 126,-39 126,-39 126,-79 126,-79 126,-85 120,-91 114,-91 114,-91 24,-91 24,-91 18,-91 12,-85 12,-79 12,-79 12,-39 12,-39 12,-33 18,-27 24,-27"/>
<text text-anchor="start" x="13" y="-88.4" font-family="Arial" font-size="2.00"> </text>
<text text-anchor="start" x="13" y="-82.4" font-family="Arial" font-size="7.00"> &#160;4</text>
<text text-anchor="start" x="27" y="-65.8" font-family="Arial" font-weight="bold" font-size="14.00">Predict 12.37</text>
<text text-anchor="start" x="49" y="-48.8" font-family="Arial" font-weight="bold" font-size="14.00">n = 37</text>
<text text-anchor="start" x="67.5" y="-30.8" font-family="Arial" font-size="9.00"> </text>
<path fill="none" stroke="#333333" d="M24,-27C24,-27 114,-27 114,-27 120,-27 126,-33 126,-39 126,-39 126,-79 126,-79 126,-85 120,-91 114,-91 114,-91 24,-91 24,-91 18,-91 12,-85 12,-79 12,-79 12,-39 12,-39 12,-33 18,-27 24,-27"/>
<text text-anchor="start" x="67" y="-12.8" font-family="Arial" font-weight="bold" font-size="14.00"> </text>
</g>
<!-- 3&#45;&gt;4 -->
<g id="edge5" class="edge">
<title>3&#45;&gt;4</title>
<path fill="none" stroke="#888888" d="M160.82,-153.67C151.73,-144.39 142.27,-134.75 133.04,-125.33"/>
<polygon fill="#888888" stroke="#888888" points="135.53,-122.87 126.03,-118.18 130.53,-127.77 135.53,-122.87"/>
</g>
<!-- 5 -->
<g id="node7" class="node">
<title>5</title>
<text text-anchor="start" x="200.5" y="-99.8" font-family="Arial" font-weight="bold" font-size="14.00"> ≥ 14.69</text>
<path fill="#f8766d" fill-opacity="0.780392" stroke="transparent" d="M180,-27C180,-27 270,-27 270,-27 276,-27 282,-33 282,-39 282,-39 282,-79 282,-79 282,-85 276,-91 270,-91 270,-91 180,-91 180,-91 174,-91 168,-85 168,-79 168,-79 168,-39 168,-39 168,-33 174,-27 180,-27"/>
<text text-anchor="start" x="169" y="-88.4" font-family="Arial" font-size="2.00"> </text>
<text text-anchor="start" x="169" y="-82.4" font-family="Arial" font-size="7.00"> &#160;5</text>
<text text-anchor="start" x="183" y="-65.8" font-family="Arial" font-weight="bold" font-size="14.00">Predict 16.01</text>
<text text-anchor="start" x="205" y="-48.8" font-family="Arial" font-weight="bold" font-size="14.00">n = 13</text>
<text text-anchor="start" x="223.5" y="-30.8" font-family="Arial" font-size="9.00"> </text>
<path fill="none" stroke="#333333" d="M180,-27C180,-27 270,-27 270,-27 276,-27 282,-33 282,-39 282,-39 282,-79 282,-79 282,-85 276,-91 270,-91 270,-91 180,-91 180,-91 174,-91 168,-85 168,-79 168,-79 168,-39 168,-39 168,-33 174,-27 180,-27"/>
<text text-anchor="start" x="223" y="-12.8" font-family="Arial" font-weight="bold" font-size="14.00"> </text>
</g>
<!-- 3&#45;&gt;5 -->
<g id="edge6" class="edge">
<title>3&#45;&gt;5</title>
<path fill="none" stroke="#888888" d="M220.69,-153.67C221.07,-145.39 221.46,-136.83 221.85,-128.38"/>
<polygon fill="#888888" stroke="#888888" points="225.36,-128.33 222.32,-118.18 218.36,-128 225.36,-128.33"/>
</g>
<!-- 7 -->
<g id="node8" class="node">
<title>7</title>
<text text-anchor="start" x="369" y="-99.8" font-family="Arial" font-weight="bold" font-size="14.00"> &lt; 22.57</text>
<path fill="#f8766d" fill-opacity="0.666667" stroke="transparent" d="M349,-27C349,-27 439,-27 439,-27 445,-27 451,-33 451,-39 451,-39 451,-79 451,-79 451,-85 445,-91 439,-91 439,-91 349,-91 349,-91 343,-91 337,-85 337,-79 337,-79 337,-39 337,-39 337,-33 343,-27 349,-27"/>
<text text-anchor="start" x="338" y="-88.4" font-family="Arial" font-size="2.00"> </text>
<text text-anchor="start" x="338" y="-82.4" font-family="Arial" font-size="7.00"> &#160;7</text>
<text text-anchor="start" x="352" y="-65.8" font-family="Arial" font-weight="bold" font-size="14.00">Predict 20.47</text>
<text text-anchor="start" x="374" y="-48.8" font-family="Arial" font-weight="bold" font-size="14.00">n = 17</text>
<text text-anchor="start" x="392.5" y="-30.8" font-family="Arial" font-size="9.00"> </text>
<path fill="none" stroke="#333333" d="M349,-27C349,-27 439,-27 439,-27 445,-27 451,-33 451,-39 451,-39 451,-79 451,-79 451,-85 445,-91 439,-91 439,-91 349,-91 349,-91 343,-91 337,-85 337,-79 337,-79 337,-39 337,-39 337,-33 343,-27 349,-27"/>
<text text-anchor="start" x="392" y="-12.8" font-family="Arial" font-weight="bold" font-size="14.00"> </text>
</g>
<!-- 6&#45;&gt;7 -->
<g id="edge7" class="edge">
<title>6&#45;&gt;7</title>
<path fill="none" stroke="#888888" d="M397.7,-153.67C397.37,-145.39 397.03,-136.83 396.7,-128.38"/>
<polygon fill="#888888" stroke="#888888" points="400.19,-128.03 396.3,-118.18 393.19,-128.31 400.19,-128.03"/>
</g>
<!-- 8 -->
<g id="node9" class="node">
<title>8</title>
<text text-anchor="start" x="525.5" y="-99.8" font-family="Arial" font-weight="bold" font-size="14.00"> ≥ 22.57</text>
<path fill="#f8766d" fill-opacity="0.556863" stroke="transparent" d="M505,-27C505,-27 595,-27 595,-27 601,-27 607,-33 607,-39 607,-39 607,-79 607,-79 607,-85 601,-91 595,-91 595,-91 505,-91 505,-91 499,-91 493,-85 493,-79 493,-79 493,-39 493,-39 493,-33 499,-27 505,-27"/>
<text text-anchor="start" x="494" y="-88.4" font-family="Arial" font-size="2.00"> </text>
<text text-anchor="start" x="494" y="-82.4" font-family="Arial" font-size="7.00"> &#160;8</text>
<text text-anchor="start" x="508" y="-65.8" font-family="Arial" font-weight="bold" font-size="14.00">Predict 24.88</text>
<text text-anchor="start" x="530" y="-48.8" font-family="Arial" font-weight="bold" font-size="14.00">n = 30</text>
<text text-anchor="start" x="548.5" y="-30.8" font-family="Arial" font-size="9.00"> </text>
<path fill="none" stroke="#333333" d="M505,-27C505,-27 595,-27 595,-27 601,-27 607,-33 607,-39 607,-39 607,-79 607,-79 607,-85 601,-91 595,-91 595,-91 505,-91 505,-91 499,-91 493,-85 493,-79 493,-79 493,-39 493,-39 493,-33 499,-27 505,-27"/>
<text text-anchor="start" x="548" y="-12.8" font-family="Arial" font-weight="bold" font-size="14.00"> </text>
</g>
<!-- 6&#45;&gt;8 -->
<g id="edge8" class="edge">
<title>6&#45;&gt;8</title>
<path fill="none" stroke="#888888" d="M457.56,-153.67C466.72,-144.39 476.23,-134.75 485.53,-125.33"/>
<polygon fill="#888888" stroke="#888888" points="488.06,-127.75 492.59,-118.18 483.07,-122.84 488.06,-127.75"/>
</g>
<!-- 12 -->
<g id="node12" class="node">
<title>12</title>
<text text-anchor="start" x="697" y="-99.8" font-family="Arial" font-weight="bold" font-size="14.00"> &lt; 30.17</text>
<path fill="#f8766d" fill-opacity="0.447059" stroke="transparent" d="M677,-27C677,-27 767,-27 767,-27 773,-27 779,-33 779,-39 779,-39 779,-79 779,-79 779,-85 773,-91 767,-91 767,-91 677,-91 677,-91 671,-91 665,-85 665,-79 665,-79 665,-39 665,-39 665,-33 671,-27 677,-27"/>
<text text-anchor="start" x="666" y="-88.4" font-family="Arial" font-size="2.00"> </text>
<text text-anchor="start" x="666" y="-82.4" font-family="Arial" font-size="7.00"> &#160;12</text>
<text text-anchor="start" x="680" y="-65.8" font-family="Arial" font-weight="bold" font-size="14.00">Predict 29.07</text>
<text text-anchor="start" x="702" y="-48.8" font-family="Arial" font-weight="bold" font-size="14.00">n = 29</text>
<text text-anchor="start" x="720.5" y="-30.8" font-family="Arial" font-size="9.00"> </text>
<path fill="none" stroke="#333333" d="M677,-27C677,-27 767,-27 767,-27 773,-27 779,-33 779,-39 779,-39 779,-79 779,-79 779,-85 773,-91 767,-91 767,-91 677,-91 677,-91 671,-91 665,-85 665,-79 665,-79 665,-39 665,-39 665,-33 671,-27 677,-27"/>
<text text-anchor="start" x="720" y="-12.8" font-family="Arial" font-weight="bold" font-size="14.00"> </text>
</g>
<!-- 11&#45;&gt;12 -->
<g id="edge11" class="edge">
<title>11&#45;&gt;12</title>
<path fill="none" stroke="#888888" d="M731.86,-153.67C730.99,-145.39 730.09,-136.83 729.2,-128.38"/>
<polygon fill="#888888" stroke="#888888" points="732.65,-127.75 728.12,-118.18 725.69,-128.49 732.65,-127.75"/>
</g>
<!-- 13 -->
<g id="node13" class="node">
<title>13</title>
<text text-anchor="start" x="853.5" y="-99.8" font-family="Arial" font-weight="bold" font-size="14.00"> ≥ 30.17</text>
<path fill="#f8766d" fill-opacity="0.376471" stroke="transparent" d="M833,-27C833,-27 923,-27 923,-27 929,-27 935,-33 935,-39 935,-39 935,-79 935,-79 935,-85 929,-91 923,-91 923,-91 833,-91 833,-91 827,-91 821,-85 821,-79 821,-79 821,-39 821,-39 821,-33 827,-27 833,-27"/>
<text text-anchor="start" x="822" y="-88.4" font-family="Arial" font-size="2.00"> </text>
<text text-anchor="start" x="822" y="-82.4" font-family="Arial" font-size="7.00"> &#160;13</text>
<text text-anchor="start" x="836" y="-65.8" font-family="Arial" font-weight="bold" font-size="14.00">Predict 31.93</text>
<text text-anchor="start" x="858" y="-48.8" font-family="Arial" font-weight="bold" font-size="14.00">n = 20</text>
<text text-anchor="start" x="876.5" y="-30.8" font-family="Arial" font-size="9.00"> </text>
<path fill="none" stroke="#333333" d="M833,-27C833,-27 923,-27 923,-27 929,-27 935,-33 935,-39 935,-39 935,-79 935,-79 935,-85 929,-91 923,-91 923,-91 833,-91 833,-91 827,-91 821,-85 821,-79 821,-79 821,-39 821,-39 821,-33 827,-27 833,-27"/>
<text text-anchor="start" x="876" y="-12.8" font-family="Arial" font-weight="bold" font-size="14.00"> </text>
</g>
<!-- 11&#45;&gt;13 -->
<g id="edge12" class="edge">
<title>11&#45;&gt;13</title>
<path fill="none" stroke="#888888" d="M791.73,-153.67C800.18,-144.49 808.98,-134.94 817.57,-125.6"/>
<polygon fill="#888888" stroke="#888888" points="820.22,-127.9 824.42,-118.18 815.07,-123.16 820.22,-127.9"/>
</g>
</g>
</svg>
