<?xml version="1.0" encoding="UTF-8" standalone="no"?>
<!DOCTYPE svg PUBLIC "-//W3C//DTD SVG 1.1//EN"
 "http://www.w3.org/Graphics/SVG/1.1/DTD/svg11.dtd">
<!-- Generated by graphviz version 2.50.0 (20211204.2007)
 -->
<!-- Pages: 1 -->
<svg width="1048pt" height="742pt"
 viewBox="0.00 0.00 1048.00 742.00" xmlns="http://www.w3.org/2000/svg" xmlns:xlink="http://www.w3.org/1999/xlink">
<g id="graph0" class="graph" transform="scale(1 1) rotate(0) translate(4 738)">
<polygon fill="white" stroke="transparent" points="-4,4 -4,-738 1044,-738 1044,4 -4,4"/>
<!-- 1 -->
<g id="node1" class="node">
<title>1</title>
<text text-anchor="start" x="325" y="-715.8" font-family="Arial" font-weight="bold" font-size="14.00"> </text>
<path fill="#ebebeb" stroke="transparent" d="M285,-643C285,-643 369,-643 369,-643 375,-643 381,-649 381,-655 381,-655 381,-695 381,-695 381,-701 375,-707 369,-707 369,-707 285,-707 285,-707 279,-707 273,-701 273,-695 273,-695 273,-655 273,-655 273,-649 279,-643 285,-643"/>
<text text-anchor="start" x="274" y="-704.4" font-family="Arial" font-size="2.00"> </text>
<text text-anchor="start" x="274" y="-698.4" font-family="Arial" font-size="7.00"> &#160;1</text>
<text text-anchor="start" x="288" y="-681.8" font-family="Arial" font-weight="bold" font-size="14.00">Mean: 8.288</text>
<text text-anchor="start" x="303.5" y="-664.8" font-family="Arial" font-weight="bold" font-size="14.00">n = 672</text>
<text text-anchor="start" x="325.5" y="-646.8" font-family="Arial" font-size="9.00"> </text>
<path fill="none" stroke="#333333" d="M285,-643C285,-643 369,-643 369,-643 375,-643 381,-649 381,-655 381,-655 381,-695 381,-695 381,-701 375,-707 369,-707 369,-707 285,-707 285,-707 279,-707 273,-701 273,-695 273,-695 273,-655 273,-655 273,-649 279,-643 285,-643"/>
<text text-anchor="start" x="305.5" y="-628.8" font-family="Arial" font-weight="bold" font-size="14.00">month</text>
</g>
<!-- 2 -->
<g id="node2" class="node">
<title>2</title>
<text text-anchor="start" x="220.5" y="-561.8" font-family="Arial" font-weight="bold" font-size="14.00"> &lt; 9.5</text>
<text text-anchor="start" x="166" y="-517.3" font-family="Arial" font-size="14.00"> &#160;&#160;&#160;</text>
<path fill="#ebebeb" stroke="transparent" d="M196,-489C196,-489 280,-489 280,-489 286,-489 292,-495 292,-501 292,-501 292,-541 292,-541 292,-547 286,-553 280,-553 280,-553 196,-553 196,-553 190,-553 184,-547 184,-541 184,-541 184,-501 184,-501 184,-495 190,-489 196,-489"/>
<text text-anchor="start" x="185" y="-550.4" font-family="Arial" font-size="2.00"> </text>
<text text-anchor="start" x="185" y="-544.4" font-family="Arial" font-size="7.00"> &#160;2</text>
<text text-anchor="start" x="199" y="-527.8" font-family="Arial" font-weight="bold" font-size="14.00">Mean: 6.853</text>
<text text-anchor="start" x="214.5" y="-510.8" font-family="Arial" font-weight="bold" font-size="14.00">n = 120</text>
<text text-anchor="start" x="236.5" y="-492.8" font-family="Arial" font-size="9.00"> </text>
<path fill="none" stroke="#333333" d="M196,-489C196,-489 280,-489 280,-489 286,-489 292,-495 292,-501 292,-501 292,-541 292,-541 292,-547 286,-553 280,-553 280,-553 196,-553 196,-553 190,-553 184,-547 184,-541 184,-541 184,-501 184,-501 184,-495 190,-489 196,-489"/>
<text text-anchor="start" x="294" y="-517.3" font-family="Arial" font-size="14.00"> &#160;&#160;&#160;</text>
<text text-anchor="start" x="180.5" y="-474.8" font-family="Arial" font-weight="bold" font-size="14.00">prev_168h_inflow</text>
</g>
<!-- 1&#45;&gt;2 -->
<g id="edge1" class="edge">
<title>1&#45;&gt;2</title>
<path fill="none" stroke="#888888" d="M292.84,-615.67C287.73,-606.94 282.43,-597.88 277.23,-588.99"/>
<polygon fill="#888888" stroke="#888888" points="280.14,-587.04 272.06,-580.18 274.1,-590.57 280.14,-587.04"/>
</g>
<!-- 7 -->
<g id="node3" class="node">
<title>7</title>
<text text-anchor="start" x="470.5" y="-561.8" font-family="Arial" font-weight="bold" font-size="14.00"> ≥ 9.5</text>
<text text-anchor="start" x="420" y="-517.3" font-family="Arial" font-size="14.00"> &#160;&#160;&#160;&#160;</text>
<path fill="#ebebeb" stroke="transparent" d="M453,-489C453,-489 522,-489 522,-489 528,-489 534,-495 534,-501 534,-501 534,-541 534,-541 534,-547 528,-553 522,-553 522,-553 453,-553 453,-553 447,-553 441,-547 441,-541 441,-541 441,-501 441,-501 441,-495 447,-489 453,-489"/>
<text text-anchor="start" x="442" y="-550.4" font-family="Arial" font-size="2.00"> </text>
<text text-anchor="start" x="442" y="-544.4" font-family="Arial" font-size="7.00"> &#160;7</text>
<text text-anchor="start" x="456" y="-527.8" font-family="Arial" font-weight="bold" font-size="14.00">Mean: 8.6</text>
<text text-anchor="start" x="464" y="-510.8" font-family="Arial" font-weight="bold" font-size="14.00">n = 552</text>
<text text-anchor="start" x="486" y="-492.8" font-family="Arial" font-size="9.00"> </text>
<path fill="none" stroke="#333333" d="M453,-489C453,-489 522,-489 522,-489 528,-489 534,-495 534,-501 534,-501 534,-541 534,-541 534,-547 528,-553 522,-553 522,-553 453,-553 453,-553 447,-553 441,-547 441,-541 441,-541 441,-501 441,-501 441,-495 447,-489 453,-489"/>
<text text-anchor="start" x="536" y="-517.3" font-family="Arial" font-size="14.00"> &#160;&#160;&#160;&#160;</text>
<text text-anchor="start" x="430" y="-474.8" font-family="Arial" font-weight="bold" font-size="14.00">prev_168h_inflow</text>
</g>
<!-- 1&#45;&gt;7 -->
<g id="edge2" class="edge">
<title>1&#45;&gt;7</title>
<path fill="none" stroke="#888888" d="M388.4,-615.67C398.16,-606.39 408.32,-596.75 418.23,-587.33"/>
<polygon fill="#888888" stroke="#888888" points="420.92,-589.6 425.76,-580.18 416.1,-584.53 420.92,-589.6"/>
</g>
<!-- 3 -->
<g id="node4" class="node">
<title>3</title>
<text text-anchor="start" x="47.5" y="-407.8" font-family="Arial" font-weight="bold" font-size="14.00"> &lt; 7.36</text>
<path fill="#f8766d" fill-opacity="0.874510" stroke="transparent" d="M24,-335C24,-335 114,-335 114,-335 120,-335 126,-341 126,-347 126,-347 126,-387 126,-387 126,-393 120,-399 114,-399 114,-399 24,-399 24,-399 18,-399 12,-393 12,-387 12,-387 12,-347 12,-347 12,-341 18,-335 24,-335"/>
<text text-anchor="start" x="13" y="-396.4" font-family="Arial" font-size="2.00"> </text>
<text text-anchor="start" x="13" y="-390.4" font-family="Arial" font-size="7.00"> &#160;3</text>
<text text-anchor="start" x="27" y="-373.8" font-family="Arial" font-weight="bold" font-size="14.00">Predict 4.383</text>
<text text-anchor="start" x="49" y="-356.8" font-family="Arial" font-weight="bold" font-size="14.00">n = 43</text>
<text text-anchor="start" x="67.5" y="-338.8" font-family="Arial" font-size="9.00"> </text>
<path fill="none" stroke="#333333" d="M24,-335C24,-335 114,-335 114,-335 120,-335 126,-341 126,-347 126,-347 126,-387 126,-387 126,-393 120,-399 114,-399 114,-399 24,-399 24,-399 18,-399 12,-393 12,-387 12,-387 12,-347 12,-347 12,-341 18,-335 24,-335"/>
<text text-anchor="start" x="67" y="-320.8" font-family="Arial" font-weight="bold" font-size="14.00"> </text>
</g>
<!-- 2&#45;&gt;3 -->
<g id="edge3" class="edge">
<title>2&#45;&gt;3</title>
<path fill="none" stroke="#888888" d="M173.14,-461.67C162.73,-452.3 151.9,-442.56 141.33,-433.05"/>
<polygon fill="#888888" stroke="#888888" points="143.46,-430.26 133.68,-426.18 138.78,-435.47 143.46,-430.26"/>
</g>
<!-- 4 -->
<g id="node5" class="node">
<title>4</title>
<text text-anchor="start" x="217" y="-407.8" font-family="Arial" font-weight="bold" font-size="14.00"> ≥ 7.36</text>
<text text-anchor="start" x="166" y="-363.3" font-family="Arial" font-size="14.00"> &#160;&#160;&#160;</text>
<path fill="#ebebeb" stroke="transparent" d="M196,-335C196,-335 280,-335 280,-335 286,-335 292,-341 292,-347 292,-347 292,-387 292,-387 292,-393 286,-399 280,-399 280,-399 196,-399 196,-399 190,-399 184,-393 184,-387 184,-387 184,-347 184,-347 184,-341 190,-335 196,-335"/>
<text text-anchor="start" x="185" y="-396.4" font-family="Arial" font-size="2.00"> </text>
<text text-anchor="start" x="185" y="-390.4" font-family="Arial" font-size="7.00"> &#160;4</text>
<text text-anchor="start" x="199" y="-373.8" font-family="Arial" font-weight="bold" font-size="14.00">Mean: 8.233</text>
<text text-anchor="start" x="218" y="-356.8" font-family="Arial" font-weight="bold" font-size="14.00">n = 77</text>
<text text-anchor="start" x="236.5" y="-338.8" font-family="Arial" font-size="9.00"> </text>
<path fill="none" stroke="#333333" d="M196,-335C196,-335 280,-335 280,-335 286,-335 292,-341 292,-347 292,-347 292,-387 292,-387 292,-393 286,-399 280,-399 280,-399 196,-399 196,-399 190,-399 184,-393 184,-387 184,-387 184,-347 184,-347 184,-341 190,-335 196,-335"/>
<text text-anchor="start" x="294" y="-363.3" font-family="Arial" font-size="14.00"> &#160;&#160;&#160;</text>
<text text-anchor="start" x="180.5" y="-320.8" font-family="Arial" font-weight="bold" font-size="14.00">prev_168h_inflow</text>
</g>
<!-- 2&#45;&gt;4 -->
<g id="edge4" class="edge">
<title>2&#45;&gt;4</title>
<path fill="none" stroke="#888888" d="M238,-461.67C238,-453.39 238,-444.83 238,-436.38"/>
<polygon fill="#888888" stroke="#888888" points="241.5,-436.18 238,-426.18 234.5,-436.18 241.5,-436.18"/>
</g>
<!-- 8 -->
<g id="node8" class="node">
<title>8</title>
<text text-anchor="start" x="462" y="-407.8" font-family="Arial" font-weight="bold" font-size="14.00"> &lt; 6.725</text>
<path fill="#ebebeb" stroke="transparent" d="M445,-335C445,-335 529,-335 529,-335 535,-335 541,-341 541,-347 541,-347 541,-387 541,-387 541,-393 535,-399 529,-399 529,-399 445,-399 445,-399 439,-399 433,-393 433,-387 433,-387 433,-347 433,-347 433,-341 439,-335 445,-335"/>
<text text-anchor="start" x="434" y="-396.4" font-family="Arial" font-size="2.00"> </text>
<text text-anchor="start" x="434" y="-390.4" font-family="Arial" font-size="7.00"> &#160;8</text>
<text text-anchor="start" x="448" y="-373.8" font-family="Arial" font-weight="bold" font-size="14.00">Mean: 6.305</text>
<text text-anchor="start" x="463.5" y="-356.8" font-family="Arial" font-weight="bold" font-size="14.00">n = 244</text>
<text text-anchor="start" x="485.5" y="-338.8" font-family="Arial" font-size="9.00"> </text>
<path fill="none" stroke="#333333" d="M445,-335C445,-335 529,-335 529,-335 535,-335 541,-341 541,-347 541,-347 541,-387 541,-387 541,-393 535,-399 529,-399 529,-399 445,-399 445,-399 439,-399 433,-393 433,-387 433,-387 433,-347 433,-347 433,-341 439,-335 445,-335"/>
<text text-anchor="start" x="454" y="-320.8" font-family="Arial" font-weight="bold" font-size="14.00">air_humid</text>
</g>
<!-- 7&#45;&gt;8 -->
<g id="edge7" class="edge">
<title>7&#45;&gt;8</title>
<path fill="none" stroke="#888888" d="M487,-461.67C487,-453.39 487,-444.83 487,-436.38"/>
<polygon fill="#888888" stroke="#888888" points="490.5,-436.18 487,-426.18 483.5,-436.18 490.5,-436.18"/>
</g>
<!-- 13 -->
<g id="node9" class="node">
<title>13</title>
<text text-anchor="start" x="699.5" y="-407.8" font-family="Arial" font-weight="bold" font-size="14.00"> ≥ 6.725</text>
<text text-anchor="start" x="652" y="-363.3" font-family="Arial" font-size="14.00"> &#160;&#160;&#160;</text>
<path fill="#ebebeb" stroke="transparent" d="M682,-335C682,-335 766,-335 766,-335 772,-335 778,-341 778,-347 778,-347 778,-387 778,-387 778,-393 772,-399 766,-399 766,-399 682,-399 682,-399 676,-399 670,-393 670,-387 670,-387 670,-347 670,-347 670,-341 676,-335 682,-335"/>
<text text-anchor="start" x="671" y="-396.4" font-family="Arial" font-size="2.00"> </text>
<text text-anchor="start" x="671" y="-390.4" font-family="Arial" font-size="7.00"> &#160;13</text>
<text text-anchor="start" x="685" y="-373.8" font-family="Arial" font-weight="bold" font-size="14.00">Mean: 10.42</text>
<text text-anchor="start" x="700.5" y="-356.8" font-family="Arial" font-weight="bold" font-size="14.00">n = 308</text>
<text text-anchor="start" x="722.5" y="-338.8" font-family="Arial" font-size="9.00"> </text>
<path fill="none" stroke="#333333" d="M682,-335C682,-335 766,-335 766,-335 772,-335 778,-341 778,-347 778,-347 778,-387 778,-387 778,-393 772,-399 766,-399 766,-399 682,-399 682,-399 676,-399 670,-393 670,-387 670,-387 670,-347 670,-347 670,-341 676,-335 682,-335"/>
<text text-anchor="start" x="780" y="-363.3" font-family="Arial" font-size="14.00"> &#160;&#160;&#160;</text>
<text text-anchor="start" x="666.5" y="-320.8" font-family="Arial" font-weight="bold" font-size="14.00">prev_168h_inflow</text>
</g>
<!-- 7&#45;&gt;13 -->
<g id="edge8" class="edge">
<title>7&#45;&gt;13</title>
<path fill="none" stroke="#888888" d="M564.6,-470.23C586.51,-456.18 610.54,-440.77 633.15,-426.27"/>
<polygon fill="#888888" stroke="#888888" points="635.21,-429.1 641.74,-420.76 631.43,-423.21 635.21,-429.1"/>
</g>
<!-- 5 -->
<g id="node6" class="node">
<title>5</title>
<text text-anchor="start" x="57" y="-253.8" font-family="Arial" font-weight="bold" font-size="14.00"> &lt; 13.56</text>
<path fill="#f8766d" fill-opacity="0.725490" stroke="transparent" d="M37,-181C37,-181 127,-181 127,-181 133,-181 139,-187 139,-193 139,-193 139,-233 139,-233 139,-239 133,-245 127,-245 127,-245 37,-245 37,-245 31,-245 25,-239 25,-233 25,-233 25,-193 25,-193 25,-187 31,-181 37,-181"/>
<text text-anchor="start" x="26" y="-242.4" font-family="Arial" font-size="2.00"> </text>
<text text-anchor="start" x="26" y="-236.4" font-family="Arial" font-size="7.00"> &#160;5</text>
<text text-anchor="start" x="40" y="-219.8" font-family="Arial" font-weight="bold" font-size="14.00">Predict 8.054</text>
<text text-anchor="start" x="62" y="-202.8" font-family="Arial" font-weight="bold" font-size="14.00">n = 75</text>
<text text-anchor="start" x="80.5" y="-184.8" font-family="Arial" font-size="9.00"> </text>
<path fill="none" stroke="#333333" d="M37,-181C37,-181 127,-181 127,-181 133,-181 139,-187 139,-193 139,-193 139,-233 139,-233 139,-239 133,-245 127,-245 127,-245 37,-245 37,-245 31,-245 25,-239 25,-233 25,-233 25,-193 25,-193 25,-187 31,-181 37,-181"/>
<text text-anchor="start" x="80" y="-166.8" font-family="Arial" font-weight="bold" font-size="14.00"> </text>
</g>
<!-- 4&#45;&gt;5 -->
<g id="edge5" class="edge">
<title>4&#45;&gt;5</title>
<path fill="none" stroke="#888888" d="M178.13,-307.67C168.62,-298.39 158.72,-288.75 149.05,-279.33"/>
<polygon fill="#888888" stroke="#888888" points="151.31,-276.65 141.71,-272.18 146.43,-281.66 151.31,-276.65"/>
</g>
<!-- 6 -->
<g id="node7" class="node">
<title>6</title>
<text text-anchor="start" x="213.5" y="-253.8" font-family="Arial" font-weight="bold" font-size="14.00"> ≥ 13.56</text>
<path fill="#f8766d" fill-opacity="0.443137" stroke="transparent" d="M193,-181C193,-181 283,-181 283,-181 289,-181 295,-187 295,-193 295,-193 295,-233 295,-233 295,-239 289,-245 283,-245 283,-245 193,-245 193,-245 187,-245 181,-239 181,-233 181,-233 181,-193 181,-193 181,-187 187,-181 193,-181"/>
<text text-anchor="start" x="182" y="-242.4" font-family="Arial" font-size="2.00"> </text>
<text text-anchor="start" x="182" y="-236.4" font-family="Arial" font-size="7.00"> &#160;6</text>
<text text-anchor="start" x="196" y="-219.8" font-family="Arial" font-weight="bold" font-size="14.00">Predict 14.95</text>
<text text-anchor="start" x="222" y="-202.8" font-family="Arial" font-weight="bold" font-size="14.00">n = 2</text>
<text text-anchor="start" x="236.5" y="-184.8" font-family="Arial" font-size="9.00"> </text>
<path fill="none" stroke="#333333" d="M193,-181C193,-181 283,-181 283,-181 289,-181 295,-187 295,-193 295,-193 295,-233 295,-233 295,-239 289,-245 283,-245 283,-245 193,-245 193,-245 187,-245 181,-239 181,-233 181,-233 181,-193 181,-193 181,-187 187,-181 193,-181"/>
<text text-anchor="start" x="236" y="-166.8" font-family="Arial" font-weight="bold" font-size="14.00"> </text>
</g>
<!-- 4&#45;&gt;6 -->
<g id="edge6" class="edge">
<title>4&#45;&gt;6</title>
<path fill="none" stroke="#888888" d="M238,-307.67C238,-299.39 238,-290.83 238,-282.38"/>
<polygon fill="#888888" stroke="#888888" points="241.5,-282.18 238,-272.18 234.5,-282.18 241.5,-282.18"/>
</g>
<!-- 9 -->
<g id="node10" class="node">
<title>9</title>
<text text-anchor="start" x="381.5" y="-253.8" font-family="Arial" font-weight="bold" font-size="14.00"> &lt; 87.5</text>
<text text-anchor="start" x="335" y="-209.3" font-family="Arial" font-size="14.00"> &#160;&#160;&#160;</text>
<path fill="#ebebeb" stroke="transparent" d="M365,-181C365,-181 441,-181 441,-181 447,-181 453,-187 453,-193 453,-193 453,-233 453,-233 453,-239 447,-245 441,-245 441,-245 365,-245 365,-245 359,-245 353,-239 353,-233 353,-233 353,-193 353,-193 353,-187 359,-181 365,-181"/>
<text text-anchor="start" x="354" y="-242.4" font-family="Arial" font-size="2.00"> </text>
<text text-anchor="start" x="354" y="-236.4" font-family="Arial" font-size="7.00"> &#160;9</text>
<text text-anchor="start" x="368" y="-219.8" font-family="Arial" font-weight="bold" font-size="14.00">Mean: 6.18</text>
<text text-anchor="start" x="379.5" y="-202.8" font-family="Arial" font-weight="bold" font-size="14.00">n = 237</text>
<text text-anchor="start" x="401.5" y="-184.8" font-family="Arial" font-size="9.00"> </text>
<path fill="none" stroke="#333333" d="M365,-181C365,-181 441,-181 441,-181 447,-181 453,-187 453,-193 453,-193 453,-233 453,-233 453,-239 447,-245 441,-245 441,-245 365,-245 365,-245 359,-245 353,-239 353,-233 353,-233 353,-193 353,-193 353,-187 359,-181 365,-181"/>
<text text-anchor="start" x="455" y="-209.3" font-family="Arial" font-size="14.00"> &#160;&#160;&#160;</text>
<text text-anchor="start" x="345.5" y="-166.8" font-family="Arial" font-weight="bold" font-size="14.00">prev_168h_inflow</text>
</g>
<!-- 8&#45;&gt;9 -->
<g id="edge9" class="edge">
<title>8&#45;&gt;9</title>
<path fill="none" stroke="#888888" d="M454.76,-307.67C449.94,-298.94 444.94,-289.88 440.02,-280.99"/>
<polygon fill="#888888" stroke="#888888" points="443.05,-279.24 435.15,-272.18 436.92,-282.62 443.05,-279.24"/>
</g>
<!-- 12 -->
<g id="node11" class="node">
<title>12</title>
<text text-anchor="start" x="547" y="-253.8" font-family="Arial" font-weight="bold" font-size="14.00"> ≥ 87.5</text>
<path fill="#f8766d" fill-opacity="0.623529" stroke="transparent" d="M523,-181C523,-181 613,-181 613,-181 619,-181 625,-187 625,-193 625,-193 625,-233 625,-233 625,-239 619,-245 613,-245 613,-245 523,-245 523,-245 517,-245 511,-239 511,-233 511,-233 511,-193 511,-193 511,-187 517,-181 523,-181"/>
<text text-anchor="start" x="512" y="-242.4" font-family="Arial" font-size="2.00"> </text>
<text text-anchor="start" x="512" y="-236.4" font-family="Arial" font-size="7.00"> &#160;12</text>
<text text-anchor="start" x="526" y="-219.8" font-family="Arial" font-weight="bold" font-size="14.00">Predict 10.54</text>
<text text-anchor="start" x="552" y="-202.8" font-family="Arial" font-weight="bold" font-size="14.00">n = 7</text>
<text text-anchor="start" x="566.5" y="-184.8" font-family="Arial" font-size="9.00"> </text>
<path fill="none" stroke="#333333" d="M523,-181C523,-181 613,-181 613,-181 619,-181 625,-187 625,-193 625,-193 625,-233 625,-233 625,-239 619,-245 613,-245 613,-245 523,-245 523,-245 517,-245 511,-239 511,-233 511,-233 511,-193 511,-193 511,-187 517,-181 523,-181"/>
<text text-anchor="start" x="566" y="-166.8" font-family="Arial" font-weight="bold" font-size="14.00"> </text>
</g>
<!-- 8&#45;&gt;12 -->
<g id="edge10" class="edge">
<title>8&#45;&gt;12</title>
<path fill="none" stroke="#888888" d="M518.09,-307.67C522.69,-299.03 527.46,-290.07 532.15,-281.27"/>
<polygon fill="#888888" stroke="#888888" points="535.38,-282.65 537,-272.18 529.21,-279.36 535.38,-282.65"/>
</g>
<!-- 14 -->
<g id="node14" class="node">
<title>14</title>
<text text-anchor="start" x="699" y="-253.8" font-family="Arial" font-weight="bold" font-size="14.00"> &lt; 8.575</text>
<path fill="#f8766d" fill-opacity="0.674510" stroke="transparent" d="M679,-181C679,-181 769,-181 769,-181 775,-181 781,-187 781,-193 781,-193 781,-233 781,-233 781,-239 775,-245 769,-245 769,-245 679,-245 679,-245 673,-245 667,-239 667,-233 667,-233 667,-193 667,-193 667,-187 673,-181 679,-181"/>
<text text-anchor="start" x="668" y="-242.4" font-family="Arial" font-size="2.00"> </text>
<text text-anchor="start" x="668" y="-236.4" font-family="Arial" font-size="7.00"> &#160;14</text>
<text text-anchor="start" x="682" y="-219.8" font-family="Arial" font-weight="bold" font-size="14.00">Predict 9.253</text>
<text text-anchor="start" x="700.5" y="-202.8" font-family="Arial" font-weight="bold" font-size="14.00">n = 163</text>
<text text-anchor="start" x="722.5" y="-184.8" font-family="Arial" font-size="9.00"> </text>
<path fill="none" stroke="#333333" d="M679,-181C679,-181 769,-181 769,-181 775,-181 781,-187 781,-193 781,-193 781,-233 781,-233 781,-239 775,-245 769,-245 769,-245 679,-245 679,-245 673,-245 667,-239 667,-233 667,-233 667,-193 667,-193 667,-187 673,-181 679,-181"/>
<text text-anchor="start" x="722" y="-166.8" font-family="Arial" font-weight="bold" font-size="14.00"> </text>
</g>
<!-- 13&#45;&gt;14 -->
<g id="edge13" class="edge">
<title>13&#45;&gt;14</title>
<path fill="none" stroke="#888888" d="M724,-307.67C724,-299.39 724,-290.83 724,-282.38"/>
<polygon fill="#888888" stroke="#888888" points="727.5,-282.18 724,-272.18 720.5,-282.18 727.5,-282.18"/>
</g>
<!-- 15 -->
<g id="node15" class="node">
<title>15</title>
<text text-anchor="start" x="869" y="-253.8" font-family="Arial" font-weight="bold" font-size="14.00"> ≥ 8.575</text>
<text text-anchor="start" x="822" y="-209.3" font-family="Arial" font-size="14.00"> &#160;&#160;&#160;</text>
<path fill="#ebebeb" stroke="transparent" d="M852,-181C852,-181 935,-181 935,-181 941,-181 947,-187 947,-193 947,-193 947,-233 947,-233 947,-239 941,-245 935,-245 935,-245 852,-245 852,-245 846,-245 840,-239 840,-233 840,-233 840,-193 840,-193 840,-187 846,-181 852,-181"/>
<text text-anchor="start" x="841" y="-242.4" font-family="Arial" font-size="2.00"> </text>
<text text-anchor="start" x="841" y="-236.4" font-family="Arial" font-size="7.00"> &#160;15</text>
<text text-anchor="start" x="855" y="-219.8" font-family="Arial" font-weight="bold" font-size="14.00">Mean: 11.73</text>
<text text-anchor="start" x="870" y="-202.8" font-family="Arial" font-weight="bold" font-size="14.00">n = 145</text>
<text text-anchor="start" x="892" y="-184.8" font-family="Arial" font-size="9.00"> </text>
<path fill="none" stroke="#333333" d="M852,-181C852,-181 935,-181 935,-181 941,-181 947,-187 947,-193 947,-193 947,-233 947,-233 947,-239 941,-245 935,-245 935,-245 852,-245 852,-245 846,-245 840,-239 840,-233 840,-233 840,-193 840,-193 840,-187 846,-181 852,-181"/>
<text text-anchor="start" x="949" y="-209.3" font-family="Arial" font-size="14.00"> &#160;&#160;&#160;</text>
<text text-anchor="start" x="836" y="-166.8" font-family="Arial" font-weight="bold" font-size="14.00">prev_168h_inflow</text>
</g>
<!-- 13&#45;&gt;15 -->
<g id="edge14" class="edge">
<title>13&#45;&gt;15</title>
<path fill="none" stroke="#888888" d="M788.86,-307.67C799.27,-298.3 810.1,-288.56 820.67,-279.05"/>
<polygon fill="#888888" stroke="#888888" points="823.22,-281.47 828.32,-272.18 818.54,-276.26 823.22,-281.47"/>
</g>
<!-- 10 -->
<g id="node12" class="node">
<title>10</title>
<text text-anchor="start" x="303.5" y="-99.8" font-family="Arial" font-weight="bold" font-size="14.00"> &lt; 4.45</text>
<path fill="#f8766d" fill-opacity="0.874510" stroke="transparent" d="M280,-27C280,-27 370,-27 370,-27 376,-27 382,-33 382,-39 382,-39 382,-79 382,-79 382,-85 376,-91 370,-91 370,-91 280,-91 280,-91 274,-91 268,-85 268,-79 268,-79 268,-39 268,-39 268,-33 274,-27 280,-27"/>
<text text-anchor="start" x="269" y="-88.4" font-family="Arial" font-size="2.00"> </text>
<text text-anchor="start" x="269" y="-82.4" font-family="Arial" font-size="7.00"> &#160;10</text>
<text text-anchor="start" x="283" y="-65.8" font-family="Arial" font-weight="bold" font-size="14.00">Predict 4.391</text>
<text text-anchor="start" x="305" y="-48.8" font-family="Arial" font-weight="bold" font-size="14.00">n = 75</text>
<text text-anchor="start" x="323.5" y="-30.8" font-family="Arial" font-size="9.00"> </text>
<path fill="none" stroke="#333333" d="M280,-27C280,-27 370,-27 370,-27 376,-27 382,-33 382,-39 382,-39 382,-79 382,-79 382,-85 376,-91 370,-91 370,-91 280,-91 280,-91 274,-91 268,-85 268,-79 268,-79 268,-39 268,-39 268,-33 274,-27 280,-27"/>
<text text-anchor="start" x="323" y="-12.8" font-family="Arial" font-weight="bold" font-size="14.00"> </text>
</g>
<!-- 9&#45;&gt;10 -->
<g id="edge11" class="edge">
<title>9&#45;&gt;10</title>
<path fill="none" stroke="#888888" d="M373.07,-153.67C368.63,-145.03 364.04,-136.07 359.52,-127.27"/>
<polygon fill="#888888" stroke="#888888" points="362.53,-125.48 354.85,-118.18 356.31,-128.67 362.53,-125.48"/>
</g>
<!-- 11 -->
<g id="node13" class="node">
<title>11</title>
<text text-anchor="start" x="460" y="-99.8" font-family="Arial" font-weight="bold" font-size="14.00"> ≥ 4.45</text>
<path fill="#f8766d" fill-opacity="0.768627" stroke="transparent" d="M436,-27C436,-27 526,-27 526,-27 532,-27 538,-33 538,-39 538,-39 538,-79 538,-79 538,-85 532,-91 526,-91 526,-91 436,-91 436,-91 430,-91 424,-85 424,-79 424,-79 424,-39 424,-39 424,-33 430,-27 436,-27"/>
<text text-anchor="start" x="425" y="-88.4" font-family="Arial" font-size="2.00"> </text>
<text text-anchor="start" x="425" y="-82.4" font-family="Arial" font-size="7.00"> &#160;11</text>
<text text-anchor="start" x="439" y="-65.8" font-family="Arial" font-weight="bold" font-size="14.00">Predict 7.008</text>
<text text-anchor="start" x="457.5" y="-48.8" font-family="Arial" font-weight="bold" font-size="14.00">n = 162</text>
<text text-anchor="start" x="479.5" y="-30.8" font-family="Arial" font-size="9.00"> </text>
<path fill="none" stroke="#333333" d="M436,-27C436,-27 526,-27 526,-27 532,-27 538,-33 538,-39 538,-39 538,-79 538,-79 538,-85 532,-91 526,-91 526,-91 436,-91 436,-91 430,-91 424,-85 424,-79 424,-79 424,-39 424,-39 424,-33 430,-27 436,-27"/>
<text text-anchor="start" x="479" y="-12.8" font-family="Arial" font-weight="bold" font-size="14.00"> </text>
</g>
<!-- 9&#45;&gt;11 -->
<g id="edge12" class="edge">
<title>9&#45;&gt;11</title>
<path fill="none" stroke="#888888" d="M432.93,-153.67C437.37,-145.03 441.96,-136.07 446.48,-127.27"/>
<polygon fill="#888888" stroke="#888888" points="449.69,-128.67 451.15,-118.18 443.47,-125.48 449.69,-128.67"/>
</g>
<!-- 16 -->
<g id="node16" class="node">
<title>16</title>
<text text-anchor="start" x="790.5" y="-99.8" font-family="Arial" font-weight="bold" font-size="14.00"> &lt; 12.55</text>
<path fill="#f8766d" fill-opacity="0.588235" stroke="transparent" d="M771,-27C771,-27 860,-27 860,-27 866,-27 872,-33 872,-39 872,-39 872,-79 872,-79 872,-85 866,-91 860,-91 860,-91 771,-91 771,-91 765,-91 759,-85 759,-79 759,-79 759,-39 759,-39 759,-33 765,-27 771,-27"/>
<text text-anchor="start" x="760" y="-88.4" font-family="Arial" font-size="2.00"> </text>
<text text-anchor="start" x="760" y="-82.4" font-family="Arial" font-size="7.00"> &#160;16</text>
<text text-anchor="start" x="774" y="-65.8" font-family="Arial" font-weight="bold" font-size="14.00">Predict 11.41</text>
<text text-anchor="start" x="792" y="-48.8" font-family="Arial" font-weight="bold" font-size="14.00">n = 136</text>
<text text-anchor="start" x="814" y="-30.8" font-family="Arial" font-size="9.00"> </text>
<path fill="none" stroke="#333333" d="M771,-27C771,-27 860,-27 860,-27 866,-27 872,-33 872,-39 872,-39 872,-79 872,-79 872,-85 866,-91 860,-91 860,-91 771,-91 771,-91 765,-91 759,-85 759,-79 759,-79 759,-39 759,-39 759,-33 765,-27 771,-27"/>
<text text-anchor="start" x="813.5" y="-12.8" font-family="Arial" font-weight="bold" font-size="14.00"> </text>
</g>
<!-- 15&#45;&gt;16 -->
<g id="edge15" class="edge">
<title>15&#45;&gt;16</title>
<path fill="none" stroke="#888888" d="M863.07,-153.67C858.63,-145.03 854.04,-136.07 849.52,-127.27"/>
<polygon fill="#888888" stroke="#888888" points="852.53,-125.48 844.85,-118.18 846.31,-128.67 852.53,-125.48"/>
</g>
<!-- 17 -->
<g id="node17" class="node">
<title>17</title>
<text text-anchor="start" x="946.5" y="-99.8" font-family="Arial" font-weight="bold" font-size="14.00"> ≥ 12.55</text>
<path fill="#f8766d" fill-opacity="0.376471" stroke="transparent" d="M926,-27C926,-27 1016,-27 1016,-27 1022,-27 1028,-33 1028,-39 1028,-39 1028,-79 1028,-79 1028,-85 1022,-91 1016,-91 1016,-91 926,-91 926,-91 920,-91 914,-85 914,-79 914,-79 914,-39 914,-39 914,-33 920,-27 926,-27"/>
<text text-anchor="start" x="915" y="-88.4" font-family="Arial" font-size="2.00"> </text>
<text text-anchor="start" x="915" y="-82.4" font-family="Arial" font-size="7.00"> &#160;17</text>
<text text-anchor="start" x="929" y="-65.8" font-family="Arial" font-weight="bold" font-size="14.00">Predict 16.63</text>
<text text-anchor="start" x="955" y="-48.8" font-family="Arial" font-weight="bold" font-size="14.00">n = 9</text>
<text text-anchor="start" x="969.5" y="-30.8" font-family="Arial" font-size="9.00"> </text>
<path fill="none" stroke="#333333" d="M926,-27C926,-27 1016,-27 1016,-27 1022,-27 1028,-33 1028,-39 1028,-39 1028,-79 1028,-79 1028,-85 1022,-91 1016,-91 1016,-91 926,-91 926,-91 920,-91 914,-85 914,-79 914,-79 914,-39 914,-39 914,-33 920,-27 926,-27"/>
<text text-anchor="start" x="969" y="-12.8" font-family="Arial" font-weight="bold" font-size="14.00"> </text>
</g>
<!-- 15&#45;&gt;17 -->
<g id="edge16" class="edge">
<title>15&#45;&gt;17</title>
<path fill="none" stroke="#888888" d="M922.93,-153.67C927.37,-145.03 931.96,-136.07 936.48,-127.27"/>
<polygon fill="#888888" stroke="#888888" points="939.69,-128.67 941.15,-118.18 933.47,-125.48 939.69,-128.67"/>
</g>
</g>
</svg>
