<?xml version="1.0" encoding="UTF-8" standalone="no"?>
<!DOCTYPE svg PUBLIC "-//W3C//DTD SVG 1.1//EN"
 "http://www.w3.org/Graphics/SVG/1.1/DTD/svg11.dtd">
<!-- Generated by graphviz version 2.50.0 (20211204.2007)
 -->
<!-- Pages: 1 -->
<svg width="638pt" height="588pt"
 viewBox="0.00 0.00 638.00 588.00" xmlns="http://www.w3.org/2000/svg" xmlns:xlink="http://www.w3.org/1999/xlink">
<g id="graph0" class="graph" transform="scale(1 1) rotate(0) translate(4 584)">
<polygon fill="white" stroke="transparent" points="-4,4 -4,-584 634,-584 634,4 -4,4"/>
<!-- 1 -->
<g id="node1" class="node">
<title>1</title>
<text text-anchor="start" x="308" y="-561.8" font-family="Arial" font-weight="bold" font-size="14.00"> </text>
<text text-anchor="start" x="242" y="-517.3" font-family="Arial" font-size="14.00"> &#160;&#160;&#160;</text>
<path fill="#ebebeb" stroke="transparent" d="M272,-489C272,-489 348,-489 348,-489 354,-489 360,-495 360,-501 360,-501 360,-541 360,-541 360,-547 354,-553 348,-553 348,-553 272,-553 272,-553 266,-553 260,-547 260,-541 260,-541 260,-501 260,-501 260,-495 266,-489 272,-489"/>
<text text-anchor="start" x="261" y="-550.4" font-family="Arial" font-size="2.00"> </text>
<text text-anchor="start" x="261" y="-544.4" font-family="Arial" font-size="7.00"> &#160;1</text>
<text text-anchor="start" x="275" y="-527.8" font-family="Arial" font-weight="bold" font-size="14.00">Mean: 31.2</text>
<text text-anchor="start" x="286.5" y="-510.8" font-family="Arial" font-weight="bold" font-size="14.00">n = 168</text>
<text text-anchor="start" x="308.5" y="-492.8" font-family="Arial" font-size="9.00"> </text>
<path fill="none" stroke="#333333" d="M272,-489C272,-489 348,-489 348,-489 354,-489 360,-495 360,-501 360,-501 360,-541 360,-541 360,-547 354,-553 348,-553 348,-553 272,-553 272,-553 266,-553 260,-547 260,-541 260,-541 260,-501 260,-501 260,-495 266,-489 272,-489"/>
<text text-anchor="start" x="362" y="-517.3" font-family="Arial" font-size="14.00"> &#160;&#160;&#160;</text>
<text text-anchor="start" x="252.5" y="-474.8" font-family="Arial" font-weight="bold" font-size="14.00">prev_168h_inflow</text>
</g>
<!-- 2 -->
<g id="node2" class="node">
<title>2</title>
<text text-anchor="start" x="196" y="-407.8" font-family="Arial" font-weight="bold" font-size="14.00"> &lt; 27.63</text>
<text text-anchor="start" x="153" y="-363.3" font-family="Arial" font-size="14.00"> &#160;&#160;</text>
<path fill="#ebebeb" stroke="transparent" d="M179,-335C179,-335 263,-335 263,-335 269,-335 275,-341 275,-347 275,-347 275,-387 275,-387 275,-393 269,-399 263,-399 263,-399 179,-399 179,-399 173,-399 167,-393 167,-387 167,-387 167,-347 167,-347 167,-341 173,-335 179,-335"/>
<text text-anchor="start" x="168" y="-396.4" font-family="Arial" font-size="2.00"> </text>
<text text-anchor="start" x="168" y="-390.4" font-family="Arial" font-size="7.00"> &#160;2</text>
<text text-anchor="start" x="182" y="-373.8" font-family="Arial" font-weight="bold" font-size="14.00">Mean: 23.27</text>
<text text-anchor="start" x="201" y="-356.8" font-family="Arial" font-weight="bold" font-size="14.00">n = 50</text>
<text text-anchor="start" x="219.5" y="-338.8" font-family="Arial" font-size="9.00"> </text>
<path fill="none" stroke="#333333" d="M179,-335C179,-335 263,-335 263,-335 269,-335 275,-341 275,-347 275,-347 275,-387 275,-387 275,-393 269,-399 263,-399 263,-399 179,-399 179,-399 173,-399 167,-393 167,-387 167,-387 167,-347 167,-347 167,-341 173,-335 179,-335"/>
<text text-anchor="start" x="277" y="-363.3" font-family="Arial" font-size="14.00"> &#160;&#160;</text>
<text text-anchor="start" x="167.5" y="-320.8" font-family="Arial" font-weight="bold" font-size="14.00">prev_24h_inflow</text>
</g>
<!-- 1&#45;&gt;2 -->
<g id="edge1" class="edge">
<title>1&#45;&gt;2</title>
<path fill="none" stroke="#888888" d="M275.84,-461.67C270.73,-452.94 265.43,-443.88 260.23,-434.99"/>
<polygon fill="#888888" stroke="#888888" points="263.14,-433.04 255.06,-426.18 257.1,-436.57 263.14,-433.04"/>
</g>
<!-- 5 -->
<g id="node3" class="node">
<title>5</title>
<text text-anchor="start" x="374.5" y="-407.8" font-family="Arial" font-weight="bold" font-size="14.00"> ≥ 27.63</text>
<text text-anchor="start" x="327" y="-363.3" font-family="Arial" font-size="14.00"> &#160;&#160;&#160;</text>
<path fill="#ebebeb" stroke="transparent" d="M357,-335C357,-335 441,-335 441,-335 447,-335 453,-341 453,-347 453,-347 453,-387 453,-387 453,-393 447,-399 441,-399 441,-399 357,-399 357,-399 351,-399 345,-393 345,-387 345,-387 345,-347 345,-347 345,-341 351,-335 357,-335"/>
<text text-anchor="start" x="346" y="-396.4" font-family="Arial" font-size="2.00"> </text>
<text text-anchor="start" x="346" y="-390.4" font-family="Arial" font-size="7.00"> &#160;5</text>
<text text-anchor="start" x="360" y="-373.8" font-family="Arial" font-weight="bold" font-size="14.00">Mean: 34.57</text>
<text text-anchor="start" x="376" y="-356.8" font-family="Arial" font-weight="bold" font-size="14.00">n = 118</text>
<text text-anchor="start" x="397.5" y="-338.8" font-family="Arial" font-size="9.00"> </text>
<path fill="none" stroke="#333333" d="M357,-335C357,-335 441,-335 441,-335 447,-335 453,-341 453,-347 453,-347 453,-387 453,-387 453,-393 447,-399 441,-399 441,-399 357,-399 357,-399 351,-399 345,-393 345,-387 345,-387 345,-347 345,-347 345,-341 351,-335 357,-335"/>
<text text-anchor="start" x="455" y="-363.3" font-family="Arial" font-size="14.00"> &#160;&#160;&#160;</text>
<text text-anchor="start" x="341.5" y="-320.8" font-family="Arial" font-weight="bold" font-size="14.00">prev_168h_inflow</text>
</g>
<!-- 1&#45;&gt;5 -->
<g id="edge2" class="edge">
<title>1&#45;&gt;5</title>
<path fill="none" stroke="#888888" d="M344.16,-461.67C349.27,-452.94 354.57,-443.88 359.77,-434.99"/>
<polygon fill="#888888" stroke="#888888" points="362.9,-436.57 364.94,-426.18 356.86,-433.04 362.9,-436.57"/>
</g>
<!-- 3 -->
<g id="node4" class="node">
<title>3</title>
<text text-anchor="start" x="44" y="-253.8" font-family="Arial" font-weight="bold" font-size="14.00"> &lt; 25.84</text>
<path fill="#f8766d" fill-opacity="0.874510" stroke="transparent" d="M24,-181C24,-181 114,-181 114,-181 120,-181 126,-187 126,-193 126,-193 126,-233 126,-233 126,-239 120,-245 114,-245 114,-245 24,-245 24,-245 18,-245 12,-239 12,-233 12,-233 12,-193 12,-193 12,-187 18,-181 24,-181"/>
<text text-anchor="start" x="13" y="-242.4" font-family="Arial" font-size="2.00"> </text>
<text text-anchor="start" x="13" y="-236.4" font-family="Arial" font-size="7.00"> &#160;3</text>
<text text-anchor="start" x="27" y="-219.8" font-family="Arial" font-weight="bold" font-size="14.00">Predict 22.46</text>
<text text-anchor="start" x="49" y="-202.8" font-family="Arial" font-weight="bold" font-size="14.00">n = 41</text>
<text text-anchor="start" x="67.5" y="-184.8" font-family="Arial" font-size="9.00"> </text>
<path fill="none" stroke="#333333" d="M24,-181C24,-181 114,-181 114,-181 120,-181 126,-187 126,-193 126,-193 126,-233 126,-233 126,-239 120,-245 114,-245 114,-245 24,-245 24,-245 18,-245 12,-239 12,-233 12,-233 12,-193 12,-193 12,-187 18,-181 24,-181"/>
<text text-anchor="start" x="67" y="-166.8" font-family="Arial" font-weight="bold" font-size="14.00"> </text>
</g>
<!-- 2&#45;&gt;3 -->
<g id="edge3" class="edge">
<title>2&#45;&gt;3</title>
<path fill="none" stroke="#888888" d="M162.67,-307.67C153.39,-298.39 143.75,-288.75 134.33,-279.33"/>
<polygon fill="#888888" stroke="#888888" points="136.72,-276.77 127.18,-272.18 131.77,-281.72 136.72,-276.77"/>
</g>
<!-- 4 -->
<g id="node5" class="node">
<title>4</title>
<text text-anchor="start" x="200.5" y="-253.8" font-family="Arial" font-weight="bold" font-size="14.00"> ≥ 25.84</text>
<path fill="#f8766d" fill-opacity="0.737255" stroke="transparent" d="M180,-181C180,-181 270,-181 270,-181 276,-181 282,-187 282,-193 282,-193 282,-233 282,-233 282,-239 276,-245 270,-245 270,-245 180,-245 180,-245 174,-245 168,-239 168,-233 168,-233 168,-193 168,-193 168,-187 174,-181 180,-181"/>
<text text-anchor="start" x="169" y="-242.4" font-family="Arial" font-size="2.00"> </text>
<text text-anchor="start" x="169" y="-236.4" font-family="Arial" font-size="7.00"> &#160;4</text>
<text text-anchor="start" x="183" y="-219.8" font-family="Arial" font-weight="bold" font-size="14.00">Predict 26.95</text>
<text text-anchor="start" x="209" y="-202.8" font-family="Arial" font-weight="bold" font-size="14.00">n = 9</text>
<text text-anchor="start" x="223.5" y="-184.8" font-family="Arial" font-size="9.00"> </text>
<path fill="none" stroke="#333333" d="M180,-181C180,-181 270,-181 270,-181 276,-181 282,-187 282,-193 282,-193 282,-233 282,-233 282,-239 276,-245 270,-245 270,-245 180,-245 180,-245 174,-245 168,-239 168,-233 168,-233 168,-193 168,-193 168,-187 174,-181 180,-181"/>
<text text-anchor="start" x="223" y="-166.8" font-family="Arial" font-weight="bold" font-size="14.00"> </text>
</g>
<!-- 2&#45;&gt;4 -->
<g id="edge4" class="edge">
<title>2&#45;&gt;4</title>
<path fill="none" stroke="#888888" d="M222.54,-307.67C222.75,-299.39 222.98,-290.83 223.2,-282.38"/>
<polygon fill="#888888" stroke="#888888" points="226.7,-282.27 223.47,-272.18 219.71,-282.08 226.7,-282.27"/>
</g>
<!-- 6 -->
<g id="node6" class="node">
<title>6</title>
<text text-anchor="start" x="371" y="-253.8" font-family="Arial" font-weight="bold" font-size="14.00"> &lt; 36.37</text>
<text text-anchor="start" x="328" y="-209.3" font-family="Arial" font-size="14.00"> &#160;&#160;</text>
<path fill="#ebebeb" stroke="transparent" d="M354,-181C354,-181 438,-181 438,-181 444,-181 450,-187 450,-193 450,-193 450,-233 450,-233 450,-239 444,-245 438,-245 438,-245 354,-245 354,-245 348,-245 342,-239 342,-233 342,-233 342,-193 342,-193 342,-187 348,-181 354,-181"/>
<text text-anchor="start" x="343" y="-242.4" font-family="Arial" font-size="2.00"> </text>
<text text-anchor="start" x="343" y="-236.4" font-family="Arial" font-size="7.00"> &#160;6</text>
<text text-anchor="start" x="357" y="-219.8" font-family="Arial" font-weight="bold" font-size="14.00">Mean: 32.88</text>
<text text-anchor="start" x="376" y="-202.8" font-family="Arial" font-weight="bold" font-size="14.00">n = 83</text>
<text text-anchor="start" x="394.5" y="-184.8" font-family="Arial" font-size="9.00"> </text>
<path fill="none" stroke="#333333" d="M354,-181C354,-181 438,-181 438,-181 444,-181 450,-187 450,-193 450,-193 450,-233 450,-233 450,-239 444,-245 438,-245 438,-245 354,-245 354,-245 348,-245 342,-239 342,-233 342,-233 342,-193 342,-193 342,-187 348,-181 354,-181"/>
<text text-anchor="start" x="452" y="-209.3" font-family="Arial" font-size="14.00"> &#160;&#160;</text>
<text text-anchor="start" x="342.5" y="-166.8" font-family="Arial" font-weight="bold" font-size="14.00">prev_24h_inflow</text>
</g>
<!-- 5&#45;&gt;6 -->
<g id="edge5" class="edge">
<title>5&#45;&gt;6</title>
<path fill="none" stroke="#888888" d="M397.85,-307.67C397.69,-299.39 397.52,-290.83 397.35,-282.38"/>
<polygon fill="#888888" stroke="#888888" points="400.84,-282.11 397.15,-272.18 393.85,-282.24 400.84,-282.11"/>
</g>
<!-- 9 -->
<g id="node7" class="node">
<title>9</title>
<text text-anchor="start" x="536.5" y="-253.8" font-family="Arial" font-weight="bold" font-size="14.00"> ≥ 36.37</text>
<path fill="#f8766d" fill-opacity="0.376471" stroke="transparent" d="M516,-181C516,-181 606,-181 606,-181 612,-181 618,-187 618,-193 618,-193 618,-233 618,-233 618,-239 612,-245 606,-245 606,-245 516,-245 516,-245 510,-245 504,-239 504,-233 504,-233 504,-193 504,-193 504,-187 510,-181 516,-181"/>
<text text-anchor="start" x="505" y="-242.4" font-family="Arial" font-size="2.00"> </text>
<text text-anchor="start" x="505" y="-236.4" font-family="Arial" font-size="7.00"> &#160;9</text>
<text text-anchor="start" x="519" y="-219.8" font-family="Arial" font-weight="bold" font-size="14.00">Predict 38.58</text>
<text text-anchor="start" x="541" y="-202.8" font-family="Arial" font-weight="bold" font-size="14.00">n = 35</text>
<text text-anchor="start" x="559.5" y="-184.8" font-family="Arial" font-size="9.00"> </text>
<path fill="none" stroke="#333333" d="M516,-181C516,-181 606,-181 606,-181 612,-181 618,-187 618,-193 618,-193 618,-233 618,-233 618,-239 612,-245 606,-245 606,-245 516,-245 516,-245 510,-245 504,-239 504,-233 504,-233 504,-193 504,-193 504,-187 510,-181 516,-181"/>
<text text-anchor="start" x="559" y="-166.8" font-family="Arial" font-weight="bold" font-size="14.00"> </text>
</g>
<!-- 5&#45;&gt;9 -->
<g id="edge6" class="edge">
<title>5&#45;&gt;9</title>
<path fill="none" stroke="#888888" d="M461.17,-307.67C471.15,-298.3 481.53,-288.56 491.67,-279.05"/>
<polygon fill="#888888" stroke="#888888" points="494.1,-281.57 499,-272.18 489.31,-276.47 494.1,-281.57"/>
</g>
<!-- 7 -->
<g id="node8" class="node">
<title>7</title>
<text text-anchor="start" x="293" y="-99.8" font-family="Arial" font-weight="bold" font-size="14.00"> &lt; 30.05</text>
<path fill="#f8766d" fill-opacity="0.654902" stroke="transparent" d="M273,-27C273,-27 363,-27 363,-27 369,-27 375,-33 375,-39 375,-39 375,-79 375,-79 375,-85 369,-91 363,-91 363,-91 273,-91 273,-91 267,-91 261,-85 261,-79 261,-79 261,-39 261,-39 261,-33 267,-27 273,-27"/>
<text text-anchor="start" x="262" y="-88.4" font-family="Arial" font-size="2.00"> </text>
<text text-anchor="start" x="262" y="-82.4" font-family="Arial" font-size="7.00"> &#160;7</text>
<text text-anchor="start" x="276" y="-65.8" font-family="Arial" font-weight="bold" font-size="14.00">Predict 29.53</text>
<text text-anchor="start" x="298" y="-48.8" font-family="Arial" font-weight="bold" font-size="14.00">n = 12</text>
<text text-anchor="start" x="316.5" y="-30.8" font-family="Arial" font-size="9.00"> </text>
<path fill="none" stroke="#333333" d="M273,-27C273,-27 363,-27 363,-27 369,-27 375,-33 375,-39 375,-39 375,-79 375,-79 375,-85 369,-91 363,-91 363,-91 273,-91 273,-91 267,-91 261,-85 261,-79 261,-79 261,-39 261,-39 261,-33 267,-27 273,-27"/>
<text text-anchor="start" x="316" y="-12.8" font-family="Arial" font-weight="bold" font-size="14.00"> </text>
</g>
<!-- 6&#45;&gt;7 -->
<g id="edge7" class="edge">
<title>6&#45;&gt;7</title>
<path fill="none" stroke="#888888" d="M366.07,-153.67C361.63,-145.03 357.04,-136.07 352.52,-127.27"/>
<polygon fill="#888888" stroke="#888888" points="355.53,-125.48 347.85,-118.18 349.31,-128.67 355.53,-125.48"/>
</g>
<!-- 8 -->
<g id="node9" class="node">
<title>8</title>
<text text-anchor="start" x="449.5" y="-99.8" font-family="Arial" font-weight="bold" font-size="14.00"> ≥ 30.05</text>
<path fill="#f8766d" fill-opacity="0.533333" stroke="transparent" d="M429,-27C429,-27 519,-27 519,-27 525,-27 531,-33 531,-39 531,-39 531,-79 531,-79 531,-85 525,-91 519,-91 519,-91 429,-91 429,-91 423,-91 417,-85 417,-79 417,-79 417,-39 417,-39 417,-33 423,-27 429,-27"/>
<text text-anchor="start" x="418" y="-88.4" font-family="Arial" font-size="2.00"> </text>
<text text-anchor="start" x="418" y="-82.4" font-family="Arial" font-size="7.00"> &#160;8</text>
<text text-anchor="start" x="432" y="-65.8" font-family="Arial" font-weight="bold" font-size="14.00">Predict 33.44</text>
<text text-anchor="start" x="454" y="-48.8" font-family="Arial" font-weight="bold" font-size="14.00">n = 71</text>
<text text-anchor="start" x="472.5" y="-30.8" font-family="Arial" font-size="9.00"> </text>
<path fill="none" stroke="#333333" d="M429,-27C429,-27 519,-27 519,-27 525,-27 531,-33 531,-39 531,-39 531,-79 531,-79 531,-85 525,-91 519,-91 519,-91 429,-91 429,-91 423,-91 417,-85 417,-79 417,-79 417,-39 417,-39 417,-33 423,-27 429,-27"/>
<text text-anchor="start" x="472" y="-12.8" font-family="Arial" font-weight="bold" font-size="14.00"> </text>
</g>
<!-- 6&#45;&gt;8 -->
<g id="edge8" class="edge">
<title>6&#45;&gt;8</title>
<path fill="none" stroke="#888888" d="M425.93,-153.67C430.37,-145.03 434.96,-136.07 439.48,-127.27"/>
<polygon fill="#888888" stroke="#888888" points="442.69,-128.67 444.15,-118.18 436.47,-125.48 442.69,-128.67"/>
</g>
</g>
</svg>
