<?xml version="1.0" encoding="UTF-8" standalone="no"?>
<!DOCTYPE svg PUBLIC "-//W3C//DTD SVG 1.1//EN"
 "http://www.w3.org/Graphics/SVG/1.1/DTD/svg11.dtd">
<!-- Generated by graphviz version 2.50.0 (20211204.2007)
 -->
<!-- Pages: 1 -->
<svg width="395pt" height="588pt"
 viewBox="0.00 0.00 395.00 588.00" xmlns="http://www.w3.org/2000/svg" xmlns:xlink="http://www.w3.org/1999/xlink">
<g id="graph0" class="graph" transform="scale(1 1) rotate(0) translate(4 584)">
<polygon fill="white" stroke="transparent" points="-4,4 -4,-584 391,-584 391,4 -4,4"/>
<!-- 1 -->
<g id="node1" class="node">
<title>1</title>
<text text-anchor="start" x="151" y="-561.8" font-family="Arial" font-weight="bold" font-size="14.00"> </text>
<text text-anchor="start" x="85" y="-517.3" font-family="Arial" font-size="14.00"> &#160;&#160;&#160;</text>
<path fill="#ebebeb" stroke="transparent" d="M115,-489C115,-489 191,-489 191,-489 197,-489 203,-495 203,-501 203,-501 203,-541 203,-541 203,-547 197,-553 191,-553 191,-553 115,-553 115,-553 109,-553 103,-547 103,-541 103,-541 103,-501 103,-501 103,-495 109,-489 115,-489"/>
<text text-anchor="start" x="104" y="-550.4" font-family="Arial" font-size="2.00"> </text>
<text text-anchor="start" x="104" y="-544.4" font-family="Arial" font-size="7.00"> &#160;1</text>
<text text-anchor="start" x="118" y="-527.8" font-family="Arial" font-weight="bold" font-size="14.00">Mean: 31.2</text>
<text text-anchor="start" x="129.5" y="-510.8" font-family="Arial" font-weight="bold" font-size="14.00">n = 168</text>
<text text-anchor="start" x="151.5" y="-492.8" font-family="Arial" font-size="9.00"> </text>
<path fill="none" stroke="#333333" d="M115,-489C115,-489 191,-489 191,-489 197,-489 203,-495 203,-501 203,-501 203,-541 203,-541 203,-547 197,-553 191,-553 191,-553 115,-553 115,-553 109,-553 103,-547 103,-541 103,-541 103,-501 103,-501 103,-495 109,-489 115,-489"/>
<text text-anchor="start" x="205" y="-517.3" font-family="Arial" font-size="14.00"> &#160;&#160;&#160;</text>
<text text-anchor="start" x="95.5" y="-474.8" font-family="Arial" font-weight="bold" font-size="14.00">prev_168h_inflow</text>
</g>
<!-- 2 -->
<g id="node2" class="node">
<title>2</title>
<text text-anchor="start" x="44" y="-407.8" font-family="Arial" font-weight="bold" font-size="14.00"> &lt; 26.38</text>
<path fill="#f8766d" fill-opacity="0.874510" stroke="transparent" d="M24,-335C24,-335 114,-335 114,-335 120,-335 126,-341 126,-347 126,-347 126,-387 126,-387 126,-393 120,-399 114,-399 114,-399 24,-399 24,-399 18,-399 12,-393 12,-387 12,-387 12,-347 12,-347 12,-341 18,-335 24,-335"/>
<text text-anchor="start" x="13" y="-396.4" font-family="Arial" font-size="2.00"> </text>
<text text-anchor="start" x="13" y="-390.4" font-family="Arial" font-size="7.00"> &#160;2</text>
<text text-anchor="start" x="27" y="-373.8" font-family="Arial" font-weight="bold" font-size="14.00">Predict 22.88</text>
<text text-anchor="start" x="49" y="-356.8" font-family="Arial" font-weight="bold" font-size="14.00">n = 46</text>
<text text-anchor="start" x="67.5" y="-338.8" font-family="Arial" font-size="9.00"> </text>
<path fill="none" stroke="#333333" d="M24,-335C24,-335 114,-335 114,-335 120,-335 126,-341 126,-347 126,-347 126,-387 126,-387 126,-393 120,-399 114,-399 114,-399 24,-399 24,-399 18,-399 12,-393 12,-387 12,-387 12,-347 12,-347 12,-341 18,-335 24,-335"/>
<text text-anchor="start" x="67" y="-320.8" font-family="Arial" font-weight="bold" font-size="14.00"> </text>
</g>
<!-- 1&#45;&gt;2 -->
<g id="edge1" class="edge">
<title>1&#45;&gt;2</title>
<path fill="none" stroke="#888888" d="M120.76,-461.67C115.94,-452.94 110.94,-443.88 106.02,-434.99"/>
<polygon fill="#888888" stroke="#888888" points="109.05,-433.24 101.15,-426.18 102.92,-436.62 109.05,-433.24"/>
</g>
<!-- 3 -->
<g id="node3" class="node">
<title>3</title>
<text text-anchor="start" x="213.5" y="-407.8" font-family="Arial" font-weight="bold" font-size="14.00"> ≥ 26.38</text>
<text text-anchor="start" x="166" y="-363.3" font-family="Arial" font-size="14.00"> &#160;&#160;&#160;</text>
<path fill="#ebebeb" stroke="transparent" d="M196,-335C196,-335 280,-335 280,-335 286,-335 292,-341 292,-347 292,-347 292,-387 292,-387 292,-393 286,-399 280,-399 280,-399 196,-399 196,-399 190,-399 184,-393 184,-387 184,-387 184,-347 184,-347 184,-341 190,-335 196,-335"/>
<text text-anchor="start" x="185" y="-396.4" font-family="Arial" font-size="2.00"> </text>
<text text-anchor="start" x="185" y="-390.4" font-family="Arial" font-size="7.00"> &#160;3</text>
<text text-anchor="start" x="199" y="-373.8" font-family="Arial" font-weight="bold" font-size="14.00">Mean: 34.34</text>
<text text-anchor="start" x="214.5" y="-356.8" font-family="Arial" font-weight="bold" font-size="14.00">n = 122</text>
<text text-anchor="start" x="236.5" y="-338.8" font-family="Arial" font-size="9.00"> </text>
<path fill="none" stroke="#333333" d="M196,-335C196,-335 280,-335 280,-335 286,-335 292,-341 292,-347 292,-347 292,-387 292,-387 292,-393 286,-399 280,-399 280,-399 196,-399 196,-399 190,-399 184,-393 184,-387 184,-387 184,-347 184,-347 184,-341 190,-335 196,-335"/>
<text text-anchor="start" x="294" y="-363.3" font-family="Arial" font-size="14.00"> &#160;&#160;&#160;</text>
<text text-anchor="start" x="180.5" y="-320.8" font-family="Arial" font-weight="bold" font-size="14.00">prev_168h_inflow</text>
</g>
<!-- 1&#45;&gt;3 -->
<g id="edge2" class="edge">
<title>1&#45;&gt;3</title>
<path fill="none" stroke="#888888" d="M185.62,-461.67C190.5,-452.94 195.57,-443.88 200.54,-434.99"/>
<polygon fill="#888888" stroke="#888888" points="203.64,-436.61 205.47,-426.18 197.53,-433.2 203.64,-436.61"/>
</g>
<!-- 4 -->
<g id="node4" class="node">
<title>4</title>
<text text-anchor="start" x="132" y="-253.8" font-family="Arial" font-weight="bold" font-size="14.00"> &lt; 36.37</text>
<text text-anchor="start" x="93" y="-209.3" font-family="Arial" font-size="14.00"> &#160;</text>
<path fill="#ebebeb" stroke="transparent" d="M115,-181C115,-181 199,-181 199,-181 205,-181 211,-187 211,-193 211,-193 211,-233 211,-233 211,-239 205,-245 199,-245 199,-245 115,-245 115,-245 109,-245 103,-239 103,-233 103,-233 103,-193 103,-193 103,-187 109,-181 115,-181"/>
<text text-anchor="start" x="104" y="-242.4" font-family="Arial" font-size="2.00"> </text>
<text text-anchor="start" x="104" y="-236.4" font-family="Arial" font-size="7.00"> &#160;4</text>
<text text-anchor="start" x="118" y="-219.8" font-family="Arial" font-weight="bold" font-size="14.00">Mean: 32.64</text>
<text text-anchor="start" x="137" y="-202.8" font-family="Arial" font-weight="bold" font-size="14.00">n = 87</text>
<text text-anchor="start" x="155.5" y="-184.8" font-family="Arial" font-size="9.00"> </text>
<path fill="none" stroke="#333333" d="M115,-181C115,-181 199,-181 199,-181 205,-181 211,-187 211,-193 211,-193 211,-233 211,-233 211,-239 205,-245 199,-245 199,-245 115,-245 115,-245 109,-245 103,-239 103,-233 103,-233 103,-193 103,-193 103,-187 109,-181 115,-181"/>
<text text-anchor="start" x="213" y="-209.3" font-family="Arial" font-size="14.00"> &#160;</text>
<text text-anchor="start" x="107" y="-166.8" font-family="Arial" font-weight="bold" font-size="14.00">prev_1h_inflow</text>
</g>
<!-- 3&#45;&gt;4 -->
<g id="edge3" class="edge">
<title>3&#45;&gt;4</title>
<path fill="none" stroke="#888888" d="M206.91,-307.67C202.31,-299.03 197.54,-290.07 192.85,-281.27"/>
<polygon fill="#888888" stroke="#888888" points="195.79,-279.36 188,-272.18 189.62,-282.65 195.79,-279.36"/>
</g>
<!-- 7 -->
<g id="node5" class="node">
<title>7</title>
<text text-anchor="start" x="293.5" y="-253.8" font-family="Arial" font-weight="bold" font-size="14.00"> ≥ 36.37</text>
<path fill="#f8766d" fill-opacity="0.376471" stroke="transparent" d="M273,-181C273,-181 363,-181 363,-181 369,-181 375,-187 375,-193 375,-193 375,-233 375,-233 375,-239 369,-245 363,-245 363,-245 273,-245 273,-245 267,-245 261,-239 261,-233 261,-233 261,-193 261,-193 261,-187 267,-181 273,-181"/>
<text text-anchor="start" x="262" y="-242.4" font-family="Arial" font-size="2.00"> </text>
<text text-anchor="start" x="262" y="-236.4" font-family="Arial" font-size="7.00"> &#160;7</text>
<text text-anchor="start" x="276" y="-219.8" font-family="Arial" font-weight="bold" font-size="14.00">Predict 38.58</text>
<text text-anchor="start" x="298" y="-202.8" font-family="Arial" font-weight="bold" font-size="14.00">n = 35</text>
<text text-anchor="start" x="316.5" y="-184.8" font-family="Arial" font-size="9.00"> </text>
<path fill="none" stroke="#333333" d="M273,-181C273,-181 363,-181 363,-181 369,-181 375,-187 375,-193 375,-193 375,-233 375,-233 375,-239 369,-245 363,-245 363,-245 273,-245 273,-245 267,-245 261,-239 261,-233 261,-233 261,-193 261,-193 261,-187 267,-181 273,-181"/>
<text text-anchor="start" x="316" y="-166.8" font-family="Arial" font-weight="bold" font-size="14.00"> </text>
</g>
<!-- 3&#45;&gt;7 -->
<g id="edge4" class="edge">
<title>3&#45;&gt;7</title>
<path fill="none" stroke="#888888" d="M268.7,-307.67C273.25,-299.03 277.96,-290.07 282.59,-281.27"/>
<polygon fill="#888888" stroke="#888888" points="285.82,-282.66 287.38,-272.18 279.63,-279.4 285.82,-282.66"/>
</g>
<!-- 5 -->
<g id="node6" class="node">
<title>5</title>
<text text-anchor="start" x="54" y="-99.8" font-family="Arial" font-weight="bold" font-size="14.00"> &lt; 30.01</text>
<path fill="#f8766d" fill-opacity="0.670588" stroke="transparent" d="M34,-27C34,-27 124,-27 124,-27 130,-27 136,-33 136,-39 136,-39 136,-79 136,-79 136,-85 130,-91 124,-91 124,-91 34,-91 34,-91 28,-91 22,-85 22,-79 22,-79 22,-39 22,-39 22,-33 28,-27 34,-27"/>
<text text-anchor="start" x="23" y="-88.4" font-family="Arial" font-size="2.00"> </text>
<text text-anchor="start" x="23" y="-82.4" font-family="Arial" font-size="7.00"> &#160;5</text>
<text text-anchor="start" x="37" y="-65.8" font-family="Arial" font-weight="bold" font-size="14.00">Predict 29.26</text>
<text text-anchor="start" x="59" y="-48.8" font-family="Arial" font-weight="bold" font-size="14.00">n = 17</text>
<text text-anchor="start" x="77.5" y="-30.8" font-family="Arial" font-size="9.00"> </text>
<path fill="none" stroke="#333333" d="M34,-27C34,-27 124,-27 124,-27 130,-27 136,-33 136,-39 136,-39 136,-79 136,-79 136,-85 130,-91 124,-91 124,-91 34,-91 34,-91 28,-91 22,-85 22,-79 22,-79 22,-39 22,-39 22,-33 28,-27 34,-27"/>
<text text-anchor="start" x="77" y="-12.8" font-family="Arial" font-weight="bold" font-size="14.00"> </text>
</g>
<!-- 4&#45;&gt;5 -->
<g id="edge5" class="edge">
<title>4&#45;&gt;5</title>
<path fill="none" stroke="#888888" d="M127.07,-153.67C122.63,-145.03 118.04,-136.07 113.52,-127.27"/>
<polygon fill="#888888" stroke="#888888" points="116.53,-125.48 108.85,-118.18 110.31,-128.67 116.53,-125.48"/>
</g>
<!-- 6 -->
<g id="node7" class="node">
<title>6</title>
<text text-anchor="start" x="210.5" y="-99.8" font-family="Arial" font-weight="bold" font-size="14.00"> ≥ 30.01</text>
<path fill="#f8766d" fill-opacity="0.537255" stroke="transparent" d="M190,-27C190,-27 280,-27 280,-27 286,-27 292,-33 292,-39 292,-39 292,-79 292,-79 292,-85 286,-91 280,-91 280,-91 190,-91 190,-91 184,-91 178,-85 178,-79 178,-79 178,-39 178,-39 178,-33 184,-27 190,-27"/>
<text text-anchor="start" x="179" y="-88.4" font-family="Arial" font-size="2.00"> </text>
<text text-anchor="start" x="179" y="-82.4" font-family="Arial" font-size="7.00"> &#160;6</text>
<text text-anchor="start" x="193" y="-65.8" font-family="Arial" font-weight="bold" font-size="14.00">Predict 33.46</text>
<text text-anchor="start" x="215" y="-48.8" font-family="Arial" font-weight="bold" font-size="14.00">n = 70</text>
<text text-anchor="start" x="233.5" y="-30.8" font-family="Arial" font-size="9.00"> </text>
<path fill="none" stroke="#333333" d="M190,-27C190,-27 280,-27 280,-27 286,-27 292,-33 292,-39 292,-39 292,-79 292,-79 292,-85 286,-91 280,-91 280,-91 190,-91 190,-91 184,-91 178,-85 178,-79 178,-79 178,-39 178,-39 178,-33 184,-27 190,-27"/>
<text text-anchor="start" x="233" y="-12.8" font-family="Arial" font-weight="bold" font-size="14.00"> </text>
</g>
<!-- 4&#45;&gt;6 -->
<g id="edge6" class="edge">
<title>4&#45;&gt;6</title>
<path fill="none" stroke="#888888" d="M186.93,-153.67C191.37,-145.03 195.96,-136.07 200.48,-127.27"/>
<polygon fill="#888888" stroke="#888888" points="203.69,-128.67 205.15,-118.18 197.47,-125.48 203.69,-128.67"/>
</g>
</g>
</svg>
