<?xml version="1.0" encoding="UTF-8" standalone="no"?>
<!DOCTYPE svg PUBLIC "-//W3C//DTD SVG 1.1//EN"
 "http://www.w3.org/Graphics/SVG/1.1/DTD/svg11.dtd">
<!-- Generated by graphviz version 2.50.0 (20211204.2007)
 -->
<!-- Pages: 1 -->
<svg width="1230pt" height="742pt"
 viewBox="0.00 0.00 1230.00 742.00" xmlns="http://www.w3.org/2000/svg" xmlns:xlink="http://www.w3.org/1999/xlink">
<g id="graph0" class="graph" transform="scale(1 1) rotate(0) translate(4 738)">
<polygon fill="white" stroke="transparent" points="-4,4 -4,-738 1226,-738 1226,4 -4,4"/>
<!-- 1 -->
<g id="node1" class="node">
<title>1</title>
<text text-anchor="start" x="568" y="-715.8" font-family="Arial" font-weight="bold" font-size="14.00"> </text>
<text text-anchor="start" x="498" y="-671.3" font-family="Arial" font-size="14.00"> &#160;&#160;&#160;</text>
<path fill="#ebebeb" stroke="transparent" d="M528,-643C528,-643 612,-643 612,-643 618,-643 624,-649 624,-655 624,-655 624,-695 624,-695 624,-701 618,-707 612,-707 612,-707 528,-707 528,-707 522,-707 516,-701 516,-695 516,-695 516,-655 516,-655 516,-649 522,-643 528,-643"/>
<text text-anchor="start" x="517" y="-704.4" font-family="Arial" font-size="2.00"> </text>
<text text-anchor="start" x="517" y="-698.4" font-family="Arial" font-size="7.00"> &#160;1</text>
<text text-anchor="start" x="531" y="-681.8" font-family="Arial" font-weight="bold" font-size="14.00">Mean: 8.288</text>
<text text-anchor="start" x="546.5" y="-664.8" font-family="Arial" font-weight="bold" font-size="14.00">n = 672</text>
<text text-anchor="start" x="568.5" y="-646.8" font-family="Arial" font-size="9.00"> </text>
<path fill="none" stroke="#333333" d="M528,-643C528,-643 612,-643 612,-643 618,-643 624,-649 624,-655 624,-655 624,-695 624,-695 624,-701 618,-707 612,-707 612,-707 528,-707 528,-707 522,-707 516,-701 516,-695 516,-695 516,-655 516,-655 516,-649 522,-643 528,-643"/>
<text text-anchor="start" x="626" y="-671.3" font-family="Arial" font-size="14.00"> &#160;&#160;&#160;</text>
<text text-anchor="start" x="512.5" y="-628.8" font-family="Arial" font-weight="bold" font-size="14.00">prev_168h_inflow</text>
</g>
<!-- 2 -->
<g id="node2" class="node">
<title>2</title>
<text text-anchor="start" x="460" y="-561.8" font-family="Arial" font-weight="bold" font-size="14.00"> &lt; 7.11</text>
<path fill="#ebebeb" stroke="transparent" d="M439,-489C439,-489 523,-489 523,-489 529,-489 535,-495 535,-501 535,-501 535,-541 535,-541 535,-547 529,-553 523,-553 523,-553 439,-553 439,-553 433,-553 427,-547 427,-541 427,-541 427,-501 427,-501 427,-495 433,-489 439,-489"/>
<text text-anchor="start" x="428" y="-550.4" font-family="Arial" font-size="2.00"> </text>
<text text-anchor="start" x="428" y="-544.4" font-family="Arial" font-size="7.00"> &#160;2</text>
<text text-anchor="start" x="442" y="-527.8" font-family="Arial" font-weight="bold" font-size="14.00">Mean: 6.246</text>
<text text-anchor="start" x="457.5" y="-510.8" font-family="Arial" font-weight="bold" font-size="14.00">n = 313</text>
<text text-anchor="start" x="479.5" y="-492.8" font-family="Arial" font-size="9.00"> </text>
<path fill="none" stroke="#333333" d="M439,-489C439,-489 523,-489 523,-489 529,-489 535,-495 535,-501 535,-501 535,-541 535,-541 535,-547 529,-553 523,-553 523,-553 439,-553 439,-553 433,-553 427,-547 427,-541 427,-541 427,-501 427,-501 427,-495 433,-489 439,-489"/>
<text text-anchor="start" x="459.5" y="-474.8" font-family="Arial" font-weight="bold" font-size="14.00">month</text>
</g>
<!-- 1&#45;&gt;2 -->
<g id="edge1" class="edge">
<title>1&#45;&gt;2</title>
<path fill="none" stroke="#888888" d="M535.84,-615.67C530.73,-606.94 525.43,-597.88 520.23,-588.99"/>
<polygon fill="#888888" stroke="#888888" points="523.14,-587.04 515.06,-580.18 517.1,-590.57 523.14,-587.04"/>
</g>
<!-- 11 -->
<g id="node3" class="node">
<title>11</title>
<text text-anchor="start" x="692.5" y="-561.8" font-family="Arial" font-weight="bold" font-size="14.00"> ≥ 7.11</text>
<text text-anchor="start" x="645" y="-517.3" font-family="Arial" font-size="14.00"> &#160;&#160;</text>
<path fill="#ebebeb" stroke="transparent" d="M671,-489C671,-489 755,-489 755,-489 761,-489 767,-495 767,-501 767,-501 767,-541 767,-541 767,-547 761,-553 755,-553 755,-553 671,-553 671,-553 665,-553 659,-547 659,-541 659,-541 659,-501 659,-501 659,-495 665,-489 671,-489"/>
<text text-anchor="start" x="660" y="-550.4" font-family="Arial" font-size="2.00"> </text>
<text text-anchor="start" x="660" y="-544.4" font-family="Arial" font-size="7.00"> &#160;11</text>
<text text-anchor="start" x="674" y="-527.8" font-family="Arial" font-weight="bold" font-size="14.00">Mean: 10.07</text>
<text text-anchor="start" x="689.5" y="-510.8" font-family="Arial" font-weight="bold" font-size="14.00">n = 359</text>
<text text-anchor="start" x="711.5" y="-492.8" font-family="Arial" font-size="9.00"> </text>
<path fill="none" stroke="#333333" d="M671,-489C671,-489 755,-489 755,-489 761,-489 767,-495 767,-501 767,-501 767,-541 767,-541 767,-547 761,-553 755,-553 755,-553 671,-553 671,-553 665,-553 659,-547 659,-541 659,-541 659,-501 659,-501 659,-495 665,-489 671,-489"/>
<text text-anchor="start" x="769" y="-517.3" font-family="Arial" font-size="14.00"> &#160;&#160;</text>
<text text-anchor="start" x="659.5" y="-474.8" font-family="Arial" font-weight="bold" font-size="14.00">prev_24h_inflow</text>
</g>
<!-- 1&#45;&gt;11 -->
<g id="edge2" class="edge">
<title>1&#45;&gt;11</title>
<path fill="none" stroke="#888888" d="M624.88,-615.67C633.52,-606.49 642.5,-596.94 651.28,-587.6"/>
<polygon fill="#888888" stroke="#888888" points="653.97,-589.86 658.27,-580.18 648.87,-585.06 653.97,-589.86"/>
</g>
<!-- 3 -->
<g id="node4" class="node">
<title>3</title>
<text text-anchor="start" x="298.5" y="-407.8" font-family="Arial" font-weight="bold" font-size="14.00"> &lt; 9.5</text>
<path fill="#f8766d" fill-opacity="0.866667" stroke="transparent" d="M271,-335C271,-335 361,-335 361,-335 367,-335 373,-341 373,-347 373,-347 373,-387 373,-387 373,-393 367,-399 361,-399 361,-399 271,-399 271,-399 265,-399 259,-393 259,-387 259,-387 259,-347 259,-347 259,-341 265,-335 271,-335"/>
<text text-anchor="start" x="260" y="-396.4" font-family="Arial" font-size="2.00"> </text>
<text text-anchor="start" x="260" y="-390.4" font-family="Arial" font-size="7.00"> &#160;3</text>
<text text-anchor="start" x="274" y="-373.8" font-family="Arial" font-weight="bold" font-size="14.00">Predict 4.306</text>
<text text-anchor="start" x="296" y="-356.8" font-family="Arial" font-weight="bold" font-size="14.00">n = 40</text>
<text text-anchor="start" x="314.5" y="-338.8" font-family="Arial" font-size="9.00"> </text>
<path fill="none" stroke="#333333" d="M271,-335C271,-335 361,-335 361,-335 367,-335 373,-341 373,-347 373,-347 373,-387 373,-387 373,-393 367,-399 361,-399 361,-399 271,-399 271,-399 265,-399 259,-393 259,-387 259,-387 259,-347 259,-347 259,-341 265,-335 271,-335"/>
<text text-anchor="start" x="314" y="-320.8" font-family="Arial" font-weight="bold" font-size="14.00"> </text>
</g>
<!-- 2&#45;&gt;3 -->
<g id="edge3" class="edge">
<title>2&#45;&gt;3</title>
<path fill="none" stroke="#888888" d="M417.68,-461.67C407.51,-452.3 396.94,-442.56 386.61,-433.05"/>
<polygon fill="#888888" stroke="#888888" points="388.88,-430.38 379.15,-426.18 384.14,-435.53 388.88,-430.38"/>
</g>
<!-- 4 -->
<g id="node5" class="node">
<title>4</title>
<text text-anchor="start" x="464" y="-407.8" font-family="Arial" font-weight="bold" font-size="14.00"> ≥ 9.5</text>
<text text-anchor="start" x="413" y="-363.3" font-family="Arial" font-size="14.00"> &#160;&#160;&#160;</text>
<path fill="#ebebeb" stroke="transparent" d="M443,-335C443,-335 519,-335 519,-335 525,-335 531,-341 531,-347 531,-347 531,-387 531,-387 531,-393 525,-399 519,-399 519,-399 443,-399 443,-399 437,-399 431,-393 431,-387 431,-387 431,-347 431,-347 431,-341 437,-335 443,-335"/>
<text text-anchor="start" x="432" y="-396.4" font-family="Arial" font-size="2.00"> </text>
<text text-anchor="start" x="432" y="-390.4" font-family="Arial" font-size="7.00"> &#160;4</text>
<text text-anchor="start" x="446" y="-373.8" font-family="Arial" font-weight="bold" font-size="14.00">Mean: 6.53</text>
<text text-anchor="start" x="457.5" y="-356.8" font-family="Arial" font-weight="bold" font-size="14.00">n = 273</text>
<text text-anchor="start" x="479.5" y="-338.8" font-family="Arial" font-size="9.00"> </text>
<path fill="none" stroke="#333333" d="M443,-335C443,-335 519,-335 519,-335 525,-335 531,-341 531,-347 531,-347 531,-387 531,-387 531,-393 525,-399 519,-399 519,-399 443,-399 443,-399 437,-399 431,-393 431,-387 431,-387 431,-347 431,-347 431,-341 437,-335 443,-335"/>
<text text-anchor="start" x="533" y="-363.3" font-family="Arial" font-size="14.00"> &#160;&#160;&#160;</text>
<text text-anchor="start" x="427.5" y="-320.8" font-family="Arial" font-weight="bold" font-size="14.00">prev_24h_inflow</text>
</g>
<!-- 2&#45;&gt;4 -->
<g id="edge4" class="edge">
<title>2&#45;&gt;4</title>
<path fill="none" stroke="#888888" d="M481,-461.67C481,-453.39 481,-444.83 481,-436.38"/>
<polygon fill="#888888" stroke="#888888" points="484.5,-436.18 481,-426.18 477.5,-436.18 484.5,-436.18"/>
</g>
<!-- 12 -->
<g id="node12" class="node">
<title>12</title>
<text text-anchor="start" x="688" y="-407.8" font-family="Arial" font-weight="bold" font-size="14.00"> &lt; 8.585</text>
<text text-anchor="start" x="641" y="-363.3" font-family="Arial" font-size="14.00"> &#160;&#160;&#160;</text>
<path fill="#ebebeb" stroke="transparent" d="M671,-335C671,-335 755,-335 755,-335 761,-335 767,-341 767,-347 767,-347 767,-387 767,-387 767,-393 761,-399 755,-399 755,-399 671,-399 671,-399 665,-399 659,-393 659,-387 659,-387 659,-347 659,-347 659,-341 665,-335 671,-335"/>
<text text-anchor="start" x="660" y="-396.4" font-family="Arial" font-size="2.00"> </text>
<text text-anchor="start" x="660" y="-390.4" font-family="Arial" font-size="7.00"> &#160;12</text>
<text text-anchor="start" x="674" y="-373.8" font-family="Arial" font-weight="bold" font-size="14.00">Mean: 8.825</text>
<text text-anchor="start" x="689.5" y="-356.8" font-family="Arial" font-weight="bold" font-size="14.00">n = 156</text>
<text text-anchor="start" x="711.5" y="-338.8" font-family="Arial" font-size="9.00"> </text>
<path fill="none" stroke="#333333" d="M671,-335C671,-335 755,-335 755,-335 761,-335 767,-341 767,-347 767,-347 767,-387 767,-387 767,-393 761,-399 755,-399 755,-399 671,-399 671,-399 665,-399 659,-393 659,-387 659,-387 659,-347 659,-347 659,-341 665,-335 671,-335"/>
<text text-anchor="start" x="769" y="-363.3" font-family="Arial" font-size="14.00"> &#160;&#160;&#160;</text>
<text text-anchor="start" x="655.5" y="-320.8" font-family="Arial" font-weight="bold" font-size="14.00">prev_168h_inflow</text>
</g>
<!-- 11&#45;&gt;12 -->
<g id="edge11" class="edge">
<title>11&#45;&gt;12</title>
<path fill="none" stroke="#888888" d="M713,-461.67C713,-453.39 713,-444.83 713,-436.38"/>
<polygon fill="#888888" stroke="#888888" points="716.5,-436.18 713,-426.18 709.5,-436.18 716.5,-436.18"/>
</g>
<!-- 17 -->
<g id="node13" class="node">
<title>17</title>
<text text-anchor="start" x="976" y="-407.8" font-family="Arial" font-weight="bold" font-size="14.00"> ≥ 8.585</text>
<text text-anchor="start" x="933" y="-363.3" font-family="Arial" font-size="14.00"> &#160;&#160;</text>
<path fill="#ebebeb" stroke="transparent" d="M959,-335C959,-335 1042,-335 1042,-335 1048,-335 1054,-341 1054,-347 1054,-347 1054,-387 1054,-387 1054,-393 1048,-399 1042,-399 1042,-399 959,-399 959,-399 953,-399 947,-393 947,-387 947,-387 947,-347 947,-347 947,-341 953,-335 959,-335"/>
<text text-anchor="start" x="948" y="-396.4" font-family="Arial" font-size="2.00"> </text>
<text text-anchor="start" x="948" y="-390.4" font-family="Arial" font-size="7.00"> &#160;17</text>
<text text-anchor="start" x="962" y="-373.8" font-family="Arial" font-weight="bold" font-size="14.00">Mean: 11.02</text>
<text text-anchor="start" x="977" y="-356.8" font-family="Arial" font-weight="bold" font-size="14.00">n = 203</text>
<text text-anchor="start" x="999" y="-338.8" font-family="Arial" font-size="9.00"> </text>
<path fill="none" stroke="#333333" d="M959,-335C959,-335 1042,-335 1042,-335 1048,-335 1054,-341 1054,-347 1054,-347 1054,-387 1054,-387 1054,-393 1048,-399 1042,-399 1042,-399 959,-399 959,-399 953,-399 947,-393 947,-387 947,-387 947,-347 947,-347 947,-341 953,-335 959,-335"/>
<text text-anchor="start" x="1056" y="-363.3" font-family="Arial" font-size="14.00"> &#160;&#160;</text>
<text text-anchor="start" x="947" y="-320.8" font-family="Arial" font-weight="bold" font-size="14.00">prev_24h_inflow</text>
</g>
<!-- 11&#45;&gt;17 -->
<g id="edge12" class="edge">
<title>11&#45;&gt;17</title>
<path fill="none" stroke="#888888" d="M791.04,-478.67C828.85,-458.65 874.36,-434.54 913.25,-413.94"/>
<polygon fill="#888888" stroke="#888888" points="915.27,-416.84 922.47,-409.06 911.99,-410.65 915.27,-416.84"/>
</g>
<!-- 5 -->
<g id="node6" class="node">
<title>5</title>
<text text-anchor="start" x="192" y="-253.8" font-family="Arial" font-weight="bold" font-size="14.00"> &lt; 7.695</text>
<text text-anchor="start" x="145" y="-209.3" font-family="Arial" font-size="14.00"> &#160;&#160;&#160;</text>
<path fill="#ebebeb" stroke="transparent" d="M175,-181C175,-181 259,-181 259,-181 265,-181 271,-187 271,-193 271,-193 271,-233 271,-233 271,-239 265,-245 259,-245 259,-245 175,-245 175,-245 169,-245 163,-239 163,-233 163,-233 163,-193 163,-193 163,-187 169,-181 175,-181"/>
<text text-anchor="start" x="164" y="-242.4" font-family="Arial" font-size="2.00"> </text>
<text text-anchor="start" x="164" y="-236.4" font-family="Arial" font-size="7.00"> &#160;5</text>
<text text-anchor="start" x="178" y="-219.8" font-family="Arial" font-weight="bold" font-size="14.00">Mean: 5.771</text>
<text text-anchor="start" x="193.5" y="-202.8" font-family="Arial" font-weight="bold" font-size="14.00">n = 191</text>
<text text-anchor="start" x="215.5" y="-184.8" font-family="Arial" font-size="9.00"> </text>
<path fill="none" stroke="#333333" d="M175,-181C175,-181 259,-181 259,-181 265,-181 271,-187 271,-193 271,-193 271,-233 271,-233 271,-239 265,-245 259,-245 259,-245 175,-245 175,-245 169,-245 163,-239 163,-233 163,-233 163,-193 163,-193 163,-187 169,-181 175,-181"/>
<text text-anchor="start" x="273" y="-209.3" font-family="Arial" font-size="14.00"> &#160;&#160;&#160;</text>
<text text-anchor="start" x="159.5" y="-166.8" font-family="Arial" font-weight="bold" font-size="14.00">prev_168h_inflow</text>
</g>
<!-- 4&#45;&gt;5 -->
<g id="edge5" class="edge">
<title>4&#45;&gt;5</title>
<path fill="none" stroke="#888888" d="M402.86,-321.01C373.11,-303.88 338.95,-284.21 308.1,-266.45"/>
<polygon fill="#888888" stroke="#888888" points="309.48,-263.21 299.07,-261.25 305.99,-269.27 309.48,-263.21"/>
</g>
<!-- 8 -->
<g id="node7" class="node">
<title>8</title>
<text text-anchor="start" x="456.5" y="-253.8" font-family="Arial" font-weight="bold" font-size="14.00"> ≥ 7.695</text>
<text text-anchor="start" x="409" y="-209.3" font-family="Arial" font-size="14.00"> &#160;&#160;&#160;</text>
<path fill="#ebebeb" stroke="transparent" d="M439,-181C439,-181 523,-181 523,-181 529,-181 535,-187 535,-193 535,-193 535,-233 535,-233 535,-239 529,-245 523,-245 523,-245 439,-245 439,-245 433,-245 427,-239 427,-233 427,-233 427,-193 427,-193 427,-187 433,-181 439,-181"/>
<text text-anchor="start" x="428" y="-242.4" font-family="Arial" font-size="2.00"> </text>
<text text-anchor="start" x="428" y="-236.4" font-family="Arial" font-size="7.00"> &#160;8</text>
<text text-anchor="start" x="442" y="-219.8" font-family="Arial" font-weight="bold" font-size="14.00">Mean: 8.299</text>
<text text-anchor="start" x="461" y="-202.8" font-family="Arial" font-weight="bold" font-size="14.00">n = 82</text>
<text text-anchor="start" x="479.5" y="-184.8" font-family="Arial" font-size="9.00"> </text>
<path fill="none" stroke="#333333" d="M439,-181C439,-181 523,-181 523,-181 529,-181 535,-187 535,-193 535,-193 535,-233 535,-233 535,-239 529,-245 523,-245 523,-245 439,-245 439,-245 433,-245 427,-239 427,-233 427,-233 427,-193 427,-193 427,-187 433,-181 439,-181"/>
<text text-anchor="start" x="537" y="-209.3" font-family="Arial" font-size="14.00"> &#160;&#160;&#160;</text>
<text text-anchor="start" x="423.5" y="-166.8" font-family="Arial" font-weight="bold" font-size="14.00">prev_168h_inflow</text>
</g>
<!-- 4&#45;&gt;8 -->
<g id="edge6" class="edge">
<title>4&#45;&gt;8</title>
<path fill="none" stroke="#888888" d="M481,-307.67C481,-299.39 481,-290.83 481,-282.38"/>
<polygon fill="#888888" stroke="#888888" points="484.5,-282.18 481,-272.18 477.5,-282.18 484.5,-282.18"/>
</g>
<!-- 6 -->
<g id="node8" class="node">
<title>6</title>
<text text-anchor="start" x="40" y="-99.8" font-family="Arial" font-weight="bold" font-size="14.00"> &lt; 5.235</text>
<path fill="#f8766d" fill-opacity="0.839216" stroke="transparent" d="M24,-27C24,-27 106,-27 106,-27 112,-27 118,-33 118,-39 118,-39 118,-79 118,-79 118,-85 112,-91 106,-91 106,-91 24,-91 24,-91 18,-91 12,-85 12,-79 12,-79 12,-39 12,-39 12,-33 18,-27 24,-27"/>
<text text-anchor="start" x="13" y="-88.4" font-family="Arial" font-size="2.00"> </text>
<text text-anchor="start" x="13" y="-82.4" font-family="Arial" font-size="7.00"> &#160;6</text>
<text text-anchor="start" x="27" y="-65.8" font-family="Arial" font-weight="bold" font-size="14.00">Predict 4.99</text>
<text text-anchor="start" x="42" y="-48.8" font-family="Arial" font-weight="bold" font-size="14.00">n = 117</text>
<text text-anchor="start" x="63.5" y="-30.8" font-family="Arial" font-size="9.00"> </text>
<path fill="none" stroke="#333333" d="M24,-27C24,-27 106,-27 106,-27 112,-27 118,-33 118,-39 118,-39 118,-79 118,-79 118,-85 112,-91 106,-91 106,-91 24,-91 24,-91 18,-91 12,-85 12,-79 12,-79 12,-39 12,-39 12,-33 18,-27 24,-27"/>
<text text-anchor="start" x="63" y="-12.8" font-family="Arial" font-weight="bold" font-size="14.00"> </text>
</g>
<!-- 5&#45;&gt;6 -->
<g id="edge7" class="edge">
<title>5&#45;&gt;6</title>
<path fill="none" stroke="#888888" d="M158.67,-153.67C149.39,-144.39 139.75,-134.75 130.33,-125.33"/>
<polygon fill="#888888" stroke="#888888" points="132.72,-122.77 123.18,-118.18 127.77,-127.72 132.72,-122.77"/>
</g>
<!-- 7 -->
<g id="node9" class="node">
<title>7</title>
<text text-anchor="start" x="192.5" y="-99.8" font-family="Arial" font-weight="bold" font-size="14.00"> ≥ 5.235</text>
<path fill="#f8766d" fill-opacity="0.756863" stroke="transparent" d="M172,-27C172,-27 262,-27 262,-27 268,-27 274,-33 274,-39 274,-39 274,-79 274,-79 274,-85 268,-91 262,-91 262,-91 172,-91 172,-91 166,-91 160,-85 160,-79 160,-79 160,-39 160,-39 160,-33 166,-27 172,-27"/>
<text text-anchor="start" x="161" y="-88.4" font-family="Arial" font-size="2.00"> </text>
<text text-anchor="start" x="161" y="-82.4" font-family="Arial" font-size="7.00"> &#160;7</text>
<text text-anchor="start" x="175" y="-65.8" font-family="Arial" font-weight="bold" font-size="14.00">Predict 7.006</text>
<text text-anchor="start" x="197" y="-48.8" font-family="Arial" font-weight="bold" font-size="14.00">n = 74</text>
<text text-anchor="start" x="215.5" y="-30.8" font-family="Arial" font-size="9.00"> </text>
<path fill="none" stroke="#333333" d="M172,-27C172,-27 262,-27 262,-27 268,-27 274,-33 274,-39 274,-39 274,-79 274,-79 274,-85 268,-91 262,-91 262,-91 172,-91 172,-91 166,-91 160,-85 160,-79 160,-79 160,-39 160,-39 160,-33 166,-27 172,-27"/>
<text text-anchor="start" x="215" y="-12.8" font-family="Arial" font-weight="bold" font-size="14.00"> </text>
</g>
<!-- 5&#45;&gt;7 -->
<g id="edge8" class="edge">
<title>5&#45;&gt;7</title>
<path fill="none" stroke="#888888" d="M217,-153.67C217,-145.39 217,-136.83 217,-128.38"/>
<polygon fill="#888888" stroke="#888888" points="220.5,-128.18 217,-118.18 213.5,-128.18 220.5,-128.18"/>
</g>
<!-- 9 -->
<g id="node10" class="node">
<title>9</title>
<text text-anchor="start" x="351.5" y="-99.8" font-family="Arial" font-weight="bold" font-size="14.00"> &lt; 4.34</text>
<path fill="#f8766d" fill-opacity="0.874510" stroke="transparent" d="M328,-27C328,-27 418,-27 418,-27 424,-27 430,-33 430,-39 430,-39 430,-79 430,-79 430,-85 424,-91 418,-91 418,-91 328,-91 328,-91 322,-91 316,-85 316,-79 316,-79 316,-39 316,-39 316,-33 322,-27 328,-27"/>
<text text-anchor="start" x="317" y="-88.4" font-family="Arial" font-size="2.00"> </text>
<text text-anchor="start" x="317" y="-82.4" font-family="Arial" font-size="7.00"> &#160;9</text>
<text text-anchor="start" x="331" y="-65.8" font-family="Arial" font-weight="bold" font-size="14.00">Predict 4.076</text>
<text text-anchor="start" x="357" y="-48.8" font-family="Arial" font-weight="bold" font-size="14.00">n = 5</text>
<text text-anchor="start" x="371.5" y="-30.8" font-family="Arial" font-size="9.00"> </text>
<path fill="none" stroke="#333333" d="M328,-27C328,-27 418,-27 418,-27 424,-27 430,-33 430,-39 430,-39 430,-79 430,-79 430,-85 424,-91 418,-91 418,-91 328,-91 328,-91 322,-91 316,-85 316,-79 316,-79 316,-39 316,-39 316,-33 322,-27 328,-27"/>
<text text-anchor="start" x="371" y="-12.8" font-family="Arial" font-weight="bold" font-size="14.00"> </text>
</g>
<!-- 8&#45;&gt;9 -->
<g id="edge9" class="edge">
<title>8&#45;&gt;9</title>
<path fill="none" stroke="#888888" d="M439.55,-153.67C433.22,-144.76 426.65,-135.51 420.21,-126.44"/>
<polygon fill="#888888" stroke="#888888" points="422.98,-124.3 414.34,-118.18 417.27,-128.36 422.98,-124.3"/>
</g>
<!-- 10 -->
<g id="node11" class="node">
<title>10</title>
<text text-anchor="start" x="508" y="-99.8" font-family="Arial" font-weight="bold" font-size="14.00"> ≥ 4.34</text>
<path fill="#f8766d" fill-opacity="0.698039" stroke="transparent" d="M484,-27C484,-27 574,-27 574,-27 580,-27 586,-33 586,-39 586,-39 586,-79 586,-79 586,-85 580,-91 574,-91 574,-91 484,-91 484,-91 478,-91 472,-85 472,-79 472,-79 472,-39 472,-39 472,-33 478,-27 484,-27"/>
<text text-anchor="start" x="473" y="-88.4" font-family="Arial" font-size="2.00"> </text>
<text text-anchor="start" x="473" y="-82.4" font-family="Arial" font-size="7.00"> &#160;10</text>
<text text-anchor="start" x="487" y="-65.8" font-family="Arial" font-weight="bold" font-size="14.00">Predict 8.574</text>
<text text-anchor="start" x="509" y="-48.8" font-family="Arial" font-weight="bold" font-size="14.00">n = 77</text>
<text text-anchor="start" x="527.5" y="-30.8" font-family="Arial" font-size="9.00"> </text>
<path fill="none" stroke="#333333" d="M484,-27C484,-27 574,-27 574,-27 580,-27 586,-33 586,-39 586,-39 586,-79 586,-79 586,-85 580,-91 574,-91 574,-91 484,-91 484,-91 478,-91 472,-85 472,-79 472,-79 472,-39 472,-39 472,-33 478,-27 484,-27"/>
<text text-anchor="start" x="527" y="-12.8" font-family="Arial" font-weight="bold" font-size="14.00"> </text>
</g>
<!-- 8&#45;&gt;10 -->
<g id="edge10" class="edge">
<title>8&#45;&gt;10</title>
<path fill="none" stroke="#888888" d="M499.42,-153.67C502.09,-145.21 504.86,-136.45 507.58,-127.83"/>
<polygon fill="#888888" stroke="#888888" points="510.95,-128.77 510.63,-118.18 504.28,-126.66 510.95,-128.77"/>
</g>
<!-- 13 -->
<g id="node14" class="node">
<title>13</title>
<text text-anchor="start" x="660.5" y="-253.8" font-family="Arial" font-weight="bold" font-size="14.00"> &lt; 12.55</text>
<text text-anchor="start" x="621" y="-209.3" font-family="Arial" font-size="14.00"> &#160;&#160;&#160;</text>
<path fill="#ebebeb" stroke="transparent" d="M651,-181C651,-181 720,-181 720,-181 726,-181 732,-187 732,-193 732,-193 732,-233 732,-233 732,-239 726,-245 720,-245 720,-245 651,-245 651,-245 645,-245 639,-239 639,-233 639,-233 639,-193 639,-193 639,-187 645,-181 651,-181"/>
<text text-anchor="start" x="640" y="-242.4" font-family="Arial" font-size="2.00"> </text>
<text text-anchor="start" x="640" y="-236.4" font-family="Arial" font-size="7.00"> &#160;13</text>
<text text-anchor="start" x="654" y="-219.8" font-family="Arial" font-weight="bold" font-size="14.00">Mean: 8.4</text>
<text text-anchor="start" x="662" y="-202.8" font-family="Arial" font-weight="bold" font-size="14.00">n = 148</text>
<text text-anchor="start" x="684" y="-184.8" font-family="Arial" font-size="9.00"> </text>
<path fill="none" stroke="#333333" d="M651,-181C651,-181 720,-181 720,-181 726,-181 732,-187 732,-193 732,-193 732,-233 732,-233 732,-239 726,-245 720,-245 720,-245 651,-245 651,-245 645,-245 639,-239 639,-233 639,-233 639,-193 639,-193 639,-187 645,-181 651,-181"/>
<text text-anchor="start" x="734" y="-209.3" font-family="Arial" font-size="14.00"> &#160;&#160;&#160;</text>
<text text-anchor="start" x="632" y="-166.8" font-family="Arial" font-weight="bold" font-size="14.00">prev_24h_inflow</text>
</g>
<!-- 12&#45;&gt;13 -->
<g id="edge13" class="edge">
<title>12&#45;&gt;13</title>
<path fill="none" stroke="#888888" d="M702.25,-307.67C700.71,-299.3 699.12,-290.64 697.55,-282.1"/>
<polygon fill="#888888" stroke="#888888" points="700.97,-281.38 695.72,-272.18 694.09,-282.64 700.97,-281.38"/>
</g>
<!-- 16 -->
<g id="node15" class="node">
<title>16</title>
<text text-anchor="start" x="822.5" y="-253.8" font-family="Arial" font-weight="bold" font-size="14.00"> ≥ 12.55</text>
<path fill="#f8766d" fill-opacity="0.376471" stroke="transparent" d="M802,-181C802,-181 892,-181 892,-181 898,-181 904,-187 904,-193 904,-193 904,-233 904,-233 904,-239 898,-245 892,-245 892,-245 802,-245 802,-245 796,-245 790,-239 790,-233 790,-233 790,-193 790,-193 790,-187 796,-181 802,-181"/>
<text text-anchor="start" x="791" y="-242.4" font-family="Arial" font-size="2.00"> </text>
<text text-anchor="start" x="791" y="-236.4" font-family="Arial" font-size="7.00"> &#160;16</text>
<text text-anchor="start" x="805" y="-219.8" font-family="Arial" font-weight="bold" font-size="14.00">Predict 16.67</text>
<text text-anchor="start" x="831" y="-202.8" font-family="Arial" font-weight="bold" font-size="14.00">n = 8</text>
<text text-anchor="start" x="845.5" y="-184.8" font-family="Arial" font-size="9.00"> </text>
<path fill="none" stroke="#333333" d="M802,-181C802,-181 892,-181 892,-181 898,-181 904,-187 904,-193 904,-193 904,-233 904,-233 904,-239 898,-245 892,-245 892,-245 802,-245 802,-245 796,-245 790,-239 790,-233 790,-233 790,-193 790,-193 790,-187 796,-181 802,-181"/>
<text text-anchor="start" x="845" y="-166.8" font-family="Arial" font-weight="bold" font-size="14.00"> </text>
</g>
<!-- 12&#45;&gt;16 -->
<g id="edge14" class="edge">
<title>12&#45;&gt;16</title>
<path fill="none" stroke="#888888" d="M764.42,-307.67C772.44,-298.58 780.77,-289.13 788.92,-279.88"/>
<polygon fill="#888888" stroke="#888888" points="791.73,-281.99 795.71,-272.18 786.47,-277.36 791.73,-281.99"/>
</g>
<!-- 18 -->
<g id="node18" class="node">
<title>18</title>
<text text-anchor="start" x="975" y="-253.8" font-family="Arial" font-weight="bold" font-size="14.00"> &lt; 13.21</text>
<path fill="#ebebeb" stroke="transparent" d="M958,-181C958,-181 1042,-181 1042,-181 1048,-181 1054,-187 1054,-193 1054,-193 1054,-233 1054,-233 1054,-239 1048,-245 1042,-245 1042,-245 958,-245 958,-245 952,-245 946,-239 946,-233 946,-233 946,-193 946,-193 946,-187 952,-181 958,-181"/>
<text text-anchor="start" x="947" y="-242.4" font-family="Arial" font-size="2.00"> </text>
<text text-anchor="start" x="947" y="-236.4" font-family="Arial" font-size="7.00"> &#160;18</text>
<text text-anchor="start" x="961" y="-219.8" font-family="Arial" font-weight="bold" font-size="14.00">Mean: 10.31</text>
<text text-anchor="start" x="976.5" y="-202.8" font-family="Arial" font-weight="bold" font-size="14.00">n = 161</text>
<text text-anchor="start" x="998.5" y="-184.8" font-family="Arial" font-size="9.00"> </text>
<path fill="none" stroke="#333333" d="M958,-181C958,-181 1042,-181 1042,-181 1048,-181 1054,-187 1054,-193 1054,-193 1054,-233 1054,-233 1054,-239 1048,-245 1042,-245 1042,-245 958,-245 958,-245 952,-245 946,-239 946,-233 946,-233 946,-193 946,-193 946,-187 952,-181 958,-181"/>
<text text-anchor="start" x="967" y="-166.8" font-family="Arial" font-weight="bold" font-size="14.00">air_humid</text>
</g>
<!-- 17&#45;&gt;18 -->
<g id="edge17" class="edge">
<title>17&#45;&gt;18</title>
<path fill="none" stroke="#888888" d="M1000,-307.67C1000,-299.39 1000,-290.83 1000,-282.38"/>
<polygon fill="#888888" stroke="#888888" points="1003.5,-282.18 1000,-272.18 996.5,-282.18 1003.5,-282.18"/>
</g>
<!-- 21 -->
<g id="node19" class="node">
<title>21</title>
<text text-anchor="start" x="1128.5" y="-253.8" font-family="Arial" font-weight="bold" font-size="14.00"> ≥ 13.21</text>
<path fill="#f8766d" fill-opacity="0.490196" stroke="transparent" d="M1108,-181C1108,-181 1198,-181 1198,-181 1204,-181 1210,-187 1210,-193 1210,-193 1210,-233 1210,-233 1210,-239 1204,-245 1198,-245 1198,-245 1108,-245 1108,-245 1102,-245 1096,-239 1096,-233 1096,-233 1096,-193 1096,-193 1096,-187 1102,-181 1108,-181"/>
<text text-anchor="start" x="1097" y="-242.4" font-family="Arial" font-size="2.00"> </text>
<text text-anchor="start" x="1097" y="-236.4" font-family="Arial" font-size="7.00"> &#160;21</text>
<text text-anchor="start" x="1111" y="-219.8" font-family="Arial" font-weight="bold" font-size="14.00">Predict 13.77</text>
<text text-anchor="start" x="1133" y="-202.8" font-family="Arial" font-weight="bold" font-size="14.00">n = 42</text>
<text text-anchor="start" x="1151.5" y="-184.8" font-family="Arial" font-size="9.00"> </text>
<path fill="none" stroke="#333333" d="M1108,-181C1108,-181 1198,-181 1198,-181 1204,-181 1210,-187 1210,-193 1210,-193 1210,-233 1210,-233 1210,-239 1204,-245 1198,-245 1198,-245 1108,-245 1108,-245 1102,-245 1096,-239 1096,-233 1096,-233 1096,-193 1096,-193 1096,-187 1102,-181 1108,-181"/>
<text text-anchor="start" x="1151" y="-166.8" font-family="Arial" font-weight="bold" font-size="14.00"> </text>
</g>
<!-- 17&#45;&gt;21 -->
<g id="edge18" class="edge">
<title>17&#45;&gt;21</title>
<path fill="none" stroke="#888888" d="M1058.72,-307.67C1068.05,-298.39 1077.76,-288.75 1087.24,-279.33"/>
<polygon fill="#888888" stroke="#888888" points="1089.81,-281.71 1094.44,-272.18 1084.88,-276.74 1089.81,-281.71"/>
</g>
<!-- 14 -->
<g id="node16" class="node">
<title>14</title>
<text text-anchor="start" x="660" y="-99.8" font-family="Arial" font-weight="bold" font-size="14.00"> &lt; 6.655</text>
<path fill="#f8766d" fill-opacity="0.749020" stroke="transparent" d="M640,-27C640,-27 730,-27 730,-27 736,-27 742,-33 742,-39 742,-39 742,-79 742,-79 742,-85 736,-91 730,-91 730,-91 640,-91 640,-91 634,-91 628,-85 628,-79 628,-79 628,-39 628,-39 628,-33 634,-27 640,-27"/>
<text text-anchor="start" x="629" y="-88.4" font-family="Arial" font-size="2.00"> </text>
<text text-anchor="start" x="629" y="-82.4" font-family="Arial" font-size="7.00"> &#160;14</text>
<text text-anchor="start" x="643" y="-65.8" font-family="Arial" font-weight="bold" font-size="14.00">Predict 7.293</text>
<text text-anchor="start" x="665" y="-48.8" font-family="Arial" font-weight="bold" font-size="14.00">n = 37</text>
<text text-anchor="start" x="683.5" y="-30.8" font-family="Arial" font-size="9.00"> </text>
<path fill="none" stroke="#333333" d="M640,-27C640,-27 730,-27 730,-27 736,-27 742,-33 742,-39 742,-39 742,-79 742,-79 742,-85 736,-91 730,-91 730,-91 640,-91 640,-91 634,-91 628,-85 628,-79 628,-79 628,-39 628,-39 628,-33 634,-27 640,-27"/>
<text text-anchor="start" x="683" y="-12.8" font-family="Arial" font-weight="bold" font-size="14.00"> </text>
</g>
<!-- 13&#45;&gt;14 -->
<g id="edge15" class="edge">
<title>13&#45;&gt;14</title>
<path fill="none" stroke="#888888" d="M685,-153.67C685,-145.39 685,-136.83 685,-128.38"/>
<polygon fill="#888888" stroke="#888888" points="688.5,-128.18 685,-118.18 681.5,-128.18 688.5,-128.18"/>
</g>
<!-- 15 -->
<g id="node17" class="node">
<title>15</title>
<text text-anchor="start" x="812.5" y="-99.8" font-family="Arial" font-weight="bold" font-size="14.00"> ≥ 6.655</text>
<path fill="#f8766d" fill-opacity="0.690196" stroke="transparent" d="M796,-27C796,-27 878,-27 878,-27 884,-27 890,-33 890,-39 890,-39 890,-79 890,-79 890,-85 884,-91 878,-91 878,-91 796,-91 796,-91 790,-91 784,-85 784,-79 784,-79 784,-39 784,-39 784,-33 790,-27 796,-27"/>
<text text-anchor="start" x="785" y="-88.4" font-family="Arial" font-size="2.00"> </text>
<text text-anchor="start" x="785" y="-82.4" font-family="Arial" font-size="7.00"> &#160;15</text>
<text text-anchor="start" x="799" y="-65.8" font-family="Arial" font-weight="bold" font-size="14.00">Predict 8.77</text>
<text text-anchor="start" x="814" y="-48.8" font-family="Arial" font-weight="bold" font-size="14.00">n = 111</text>
<text text-anchor="start" x="835.5" y="-30.8" font-family="Arial" font-size="9.00"> </text>
<path fill="none" stroke="#333333" d="M796,-27C796,-27 878,-27 878,-27 884,-27 890,-33 890,-39 890,-39 890,-79 890,-79 890,-85 884,-91 878,-91 878,-91 796,-91 796,-91 790,-91 784,-85 784,-79 784,-79 784,-39 784,-39 784,-33 790,-27 796,-27"/>
<text text-anchor="start" x="835" y="-12.8" font-family="Arial" font-weight="bold" font-size="14.00"> </text>
</g>
<!-- 13&#45;&gt;15 -->
<g id="edge16" class="edge">
<title>13&#45;&gt;15</title>
<path fill="none" stroke="#888888" d="M743.33,-153.67C752.61,-144.39 762.25,-134.75 771.67,-125.33"/>
<polygon fill="#888888" stroke="#888888" points="774.23,-127.72 778.82,-118.18 769.28,-122.77 774.23,-127.72"/>
</g>
<!-- 19 -->
<g id="node20" class="node">
<title>19</title>
<text text-anchor="start" x="973.5" y="-99.8" font-family="Arial" font-weight="bold" font-size="14.00"> &lt; 80.5</text>
<path fill="#f8766d" fill-opacity="0.647059" stroke="transparent" d="M950,-27C950,-27 1040,-27 1040,-27 1046,-27 1052,-33 1052,-39 1052,-39 1052,-79 1052,-79 1052,-85 1046,-91 1040,-91 1040,-91 950,-91 950,-91 944,-91 938,-85 938,-79 938,-79 938,-39 938,-39 938,-33 944,-27 950,-27"/>
<text text-anchor="start" x="939" y="-88.4" font-family="Arial" font-size="2.00"> </text>
<text text-anchor="start" x="939" y="-82.4" font-family="Arial" font-size="7.00"> &#160;19</text>
<text text-anchor="start" x="953" y="-65.8" font-family="Arial" font-weight="bold" font-size="14.00">Predict 9.855</text>
<text text-anchor="start" x="971.5" y="-48.8" font-family="Arial" font-weight="bold" font-size="14.00">n = 129</text>
<text text-anchor="start" x="993.5" y="-30.8" font-family="Arial" font-size="9.00"> </text>
<path fill="none" stroke="#333333" d="M950,-27C950,-27 1040,-27 1040,-27 1046,-27 1052,-33 1052,-39 1052,-39 1052,-79 1052,-79 1052,-85 1046,-91 1040,-91 1040,-91 950,-91 950,-91 944,-91 938,-85 938,-79 938,-79 938,-39 938,-39 938,-33 944,-27 950,-27"/>
<text text-anchor="start" x="993" y="-12.8" font-family="Arial" font-weight="bold" font-size="14.00"> </text>
</g>
<!-- 18&#45;&gt;19 -->
<g id="edge19" class="edge">
<title>18&#45;&gt;19</title>
<path fill="none" stroke="#888888" d="M998.08,-153.67C997.81,-145.39 997.53,-136.83 997.25,-128.38"/>
<polygon fill="#888888" stroke="#888888" points="1000.74,-128.06 996.91,-118.18 993.74,-128.29 1000.74,-128.06"/>
</g>
<!-- 20 -->
<g id="node21" class="node">
<title>20</title>
<text text-anchor="start" x="1130" y="-99.8" font-family="Arial" font-weight="bold" font-size="14.00"> ≥ 80.5</text>
<path fill="#f8766d" fill-opacity="0.556863" stroke="transparent" d="M1106,-27C1106,-27 1196,-27 1196,-27 1202,-27 1208,-33 1208,-39 1208,-39 1208,-79 1208,-79 1208,-85 1202,-91 1196,-91 1196,-91 1106,-91 1106,-91 1100,-91 1094,-85 1094,-79 1094,-79 1094,-39 1094,-39 1094,-33 1100,-27 1106,-27"/>
<text text-anchor="start" x="1095" y="-88.4" font-family="Arial" font-size="2.00"> </text>
<text text-anchor="start" x="1095" y="-82.4" font-family="Arial" font-size="7.00"> &#160;20</text>
<text text-anchor="start" x="1109" y="-65.8" font-family="Arial" font-weight="bold" font-size="14.00">Predict 12.13</text>
<text text-anchor="start" x="1131" y="-48.8" font-family="Arial" font-weight="bold" font-size="14.00">n = 32</text>
<text text-anchor="start" x="1149.5" y="-30.8" font-family="Arial" font-size="9.00"> </text>
<path fill="none" stroke="#333333" d="M1106,-27C1106,-27 1196,-27 1196,-27 1202,-27 1208,-33 1208,-39 1208,-39 1208,-79 1208,-79 1208,-85 1202,-91 1196,-91 1196,-91 1106,-91 1106,-91 1100,-91 1094,-85 1094,-79 1094,-79 1094,-39 1094,-39 1094,-33 1100,-27 1106,-27"/>
<text text-anchor="start" x="1149" y="-12.8" font-family="Arial" font-weight="bold" font-size="14.00"> </text>
</g>
<!-- 18&#45;&gt;20 -->
<g id="edge20" class="edge">
<title>18&#45;&gt;20</title>
<path fill="none" stroke="#888888" d="M1057.95,-153.67C1067.16,-144.39 1076.74,-134.75 1086.1,-125.33"/>
<polygon fill="#888888" stroke="#888888" points="1088.64,-127.74 1093.21,-118.18 1083.68,-122.8 1088.64,-127.74"/>
</g>
</g>
</svg>
