<?xml version="1.0" encoding="UTF-8" standalone="no"?>
<!DOCTYPE svg PUBLIC "-//W3C//DTD SVG 1.1//EN"
 "http://www.w3.org/Graphics/SVG/1.1/DTD/svg11.dtd">
<!-- Generated by graphviz version 2.50.0 (20211204.2007)
 -->
<!-- Pages: 1 -->
<svg width="1412pt" height="742pt"
 viewBox="0.00 0.00 1412.00 742.00" xmlns="http://www.w3.org/2000/svg" xmlns:xlink="http://www.w3.org/1999/xlink">
<g id="graph0" class="graph" transform="scale(1 1) rotate(0) translate(4 738)">
<polygon fill="white" stroke="transparent" points="-4,4 -4,-738 1408,-738 1408,4 -4,4"/>
<!-- 1 -->
<g id="node1" class="node">
<title>1</title>
<text text-anchor="start" x="619" y="-715.8" font-family="Arial" font-weight="bold" font-size="14.00"> </text>
<text text-anchor="start" x="549" y="-671.3" font-family="Arial" font-size="14.00"> &#160;&#160;&#160;</text>
<path fill="#ebebeb" stroke="transparent" d="M579,-643C579,-643 663,-643 663,-643 669,-643 675,-649 675,-655 675,-655 675,-695 675,-695 675,-701 669,-707 663,-707 663,-707 579,-707 579,-707 573,-707 567,-701 567,-695 567,-695 567,-655 567,-655 567,-649 573,-643 579,-643"/>
<text text-anchor="start" x="568" y="-704.4" font-family="Arial" font-size="2.00"> </text>
<text text-anchor="start" x="568" y="-698.4" font-family="Arial" font-size="7.00"> &#160;1</text>
<text text-anchor="start" x="582" y="-681.8" font-family="Arial" font-weight="bold" font-size="14.00">Mean: 82.97</text>
<text text-anchor="start" x="597.5" y="-664.8" font-family="Arial" font-weight="bold" font-size="14.00">n = 168</text>
<text text-anchor="start" x="619.5" y="-646.8" font-family="Arial" font-size="9.00"> </text>
<path fill="none" stroke="#333333" d="M579,-643C579,-643 663,-643 663,-643 669,-643 675,-649 675,-655 675,-655 675,-695 675,-695 675,-701 669,-707 663,-707 663,-707 579,-707 579,-707 573,-707 567,-701 567,-695 567,-695 567,-655 567,-655 567,-649 573,-643 579,-643"/>
<text text-anchor="start" x="677" y="-671.3" font-family="Arial" font-size="14.00"> &#160;&#160;&#160;</text>
<text text-anchor="start" x="563.5" y="-628.8" font-family="Arial" font-weight="bold" font-size="14.00">prev_168h_inflow</text>
</g>
<!-- 2 -->
<g id="node2" class="node">
<title>2</title>
<text text-anchor="start" x="476" y="-561.8" font-family="Arial" font-weight="bold" font-size="14.00"> &lt; 78.16</text>
<text text-anchor="start" x="433" y="-517.3" font-family="Arial" font-size="14.00"> &#160;&#160;</text>
<path fill="#ebebeb" stroke="transparent" d="M459,-489C459,-489 543,-489 543,-489 549,-489 555,-495 555,-501 555,-501 555,-541 555,-541 555,-547 549,-553 543,-553 543,-553 459,-553 459,-553 453,-553 447,-547 447,-541 447,-541 447,-501 447,-501 447,-495 453,-489 459,-489"/>
<text text-anchor="start" x="448" y="-550.4" font-family="Arial" font-size="2.00"> </text>
<text text-anchor="start" x="448" y="-544.4" font-family="Arial" font-size="7.00"> &#160;2</text>
<text text-anchor="start" x="462" y="-527.8" font-family="Arial" font-weight="bold" font-size="14.00">Mean: 65.18</text>
<text text-anchor="start" x="481" y="-510.8" font-family="Arial" font-weight="bold" font-size="14.00">n = 54</text>
<text text-anchor="start" x="499.5" y="-492.8" font-family="Arial" font-size="9.00"> </text>
<path fill="none" stroke="#333333" d="M459,-489C459,-489 543,-489 543,-489 549,-489 555,-495 555,-501 555,-501 555,-541 555,-541 555,-547 549,-553 543,-553 543,-553 459,-553 459,-553 453,-553 447,-547 447,-541 447,-541 447,-501 447,-501 447,-495 453,-489 459,-489"/>
<text text-anchor="start" x="557" y="-517.3" font-family="Arial" font-size="14.00"> &#160;&#160;</text>
<text text-anchor="start" x="447.5" y="-474.8" font-family="Arial" font-weight="bold" font-size="14.00">prev_24h_inflow</text>
</g>
<!-- 1&#45;&gt;2 -->
<g id="edge1" class="edge">
<title>1&#45;&gt;2</title>
<path fill="none" stroke="#888888" d="M574.95,-615.67C567.84,-606.67 560.46,-597.32 553.23,-588.16"/>
<polygon fill="#888888" stroke="#888888" points="555.87,-585.86 546.93,-580.18 550.38,-590.19 555.87,-585.86"/>
</g>
<!-- 9 -->
<g id="node3" class="node">
<title>9</title>
<text text-anchor="start" x="716.5" y="-561.8" font-family="Arial" font-weight="bold" font-size="14.00"> ≥ 78.16</text>
<text text-anchor="start" x="673" y="-517.3" font-family="Arial" font-size="14.00"> &#160;&#160;&#160;</text>
<path fill="#ebebeb" stroke="transparent" d="M703,-489C703,-489 779,-489 779,-489 785,-489 791,-495 791,-501 791,-501 791,-541 791,-541 791,-547 785,-553 779,-553 779,-553 703,-553 703,-553 697,-553 691,-547 691,-541 691,-541 691,-501 691,-501 691,-495 697,-489 703,-489"/>
<text text-anchor="start" x="692" y="-550.4" font-family="Arial" font-size="2.00"> </text>
<text text-anchor="start" x="692" y="-544.4" font-family="Arial" font-size="7.00"> &#160;9</text>
<text text-anchor="start" x="706" y="-527.8" font-family="Arial" font-weight="bold" font-size="14.00">Mean: 91.4</text>
<text text-anchor="start" x="718" y="-510.8" font-family="Arial" font-weight="bold" font-size="14.00">n = 114</text>
<text text-anchor="start" x="739.5" y="-492.8" font-family="Arial" font-size="9.00"> </text>
<path fill="none" stroke="#333333" d="M703,-489C703,-489 779,-489 779,-489 785,-489 791,-495 791,-501 791,-501 791,-541 791,-541 791,-547 785,-553 779,-553 779,-553 703,-553 703,-553 697,-553 691,-547 691,-541 691,-541 691,-501 691,-501 691,-495 697,-489 703,-489"/>
<text text-anchor="start" x="793" y="-517.3" font-family="Arial" font-size="14.00"> &#160;&#160;&#160;</text>
<text text-anchor="start" x="683.5" y="-474.8" font-family="Arial" font-weight="bold" font-size="14.00">prev_168h_inflow</text>
</g>
<!-- 1&#45;&gt;9 -->
<g id="edge2" class="edge">
<title>1&#45;&gt;9</title>
<path fill="none" stroke="#888888" d="M667.05,-615.67C674.16,-606.67 681.54,-597.32 688.77,-588.16"/>
<polygon fill="#888888" stroke="#888888" points="691.62,-590.19 695.07,-580.18 686.13,-585.86 691.62,-590.19"/>
</g>
<!-- 3 -->
<g id="node4" class="node">
<title>3</title>
<text text-anchor="start" x="200" y="-407.8" font-family="Arial" font-weight="bold" font-size="14.00"> &lt; 65.43</text>
<text text-anchor="start" x="153" y="-363.3" font-family="Arial" font-size="14.00"> &#160;&#160;&#160;</text>
<path fill="#ebebeb" stroke="transparent" d="M183,-335C183,-335 267,-335 267,-335 273,-335 279,-341 279,-347 279,-347 279,-387 279,-387 279,-393 273,-399 267,-399 267,-399 183,-399 183,-399 177,-399 171,-393 171,-387 171,-387 171,-347 171,-347 171,-341 177,-335 183,-335"/>
<text text-anchor="start" x="172" y="-396.4" font-family="Arial" font-size="2.00"> </text>
<text text-anchor="start" x="172" y="-390.4" font-family="Arial" font-size="7.00"> &#160;3</text>
<text text-anchor="start" x="186" y="-373.8" font-family="Arial" font-weight="bold" font-size="14.00">Mean: 61.84</text>
<text text-anchor="start" x="205" y="-356.8" font-family="Arial" font-weight="bold" font-size="14.00">n = 35</text>
<text text-anchor="start" x="223.5" y="-338.8" font-family="Arial" font-size="9.00"> </text>
<path fill="none" stroke="#333333" d="M183,-335C183,-335 267,-335 267,-335 273,-335 279,-341 279,-347 279,-347 279,-387 279,-387 279,-393 273,-399 267,-399 267,-399 183,-399 183,-399 177,-399 171,-393 171,-387 171,-387 171,-347 171,-347 171,-341 177,-335 183,-335"/>
<text text-anchor="start" x="281" y="-363.3" font-family="Arial" font-size="14.00"> &#160;&#160;&#160;</text>
<text text-anchor="start" x="167.5" y="-320.8" font-family="Arial" font-weight="bold" font-size="14.00">prev_168h_inflow</text>
</g>
<!-- 2&#45;&gt;3 -->
<g id="edge3" class="edge">
<title>2&#45;&gt;3</title>
<path fill="none" stroke="#888888" d="M422.65,-476.85C389.58,-458.64 350.86,-437.32 316.5,-418.39"/>
<polygon fill="#888888" stroke="#888888" points="317.85,-415.14 307.4,-413.38 314.47,-421.27 317.85,-415.14"/>
</g>
<!-- 6 -->
<g id="node5" class="node">
<title>6</title>
<text text-anchor="start" x="476.5" y="-407.8" font-family="Arial" font-weight="bold" font-size="14.00"> ≥ 65.43</text>
<text text-anchor="start" x="429" y="-363.3" font-family="Arial" font-size="14.00"> &#160;&#160;&#160;</text>
<path fill="#ebebeb" stroke="transparent" d="M459,-335C459,-335 543,-335 543,-335 549,-335 555,-341 555,-347 555,-347 555,-387 555,-387 555,-393 549,-399 543,-399 543,-399 459,-399 459,-399 453,-399 447,-393 447,-387 447,-387 447,-347 447,-347 447,-341 453,-335 459,-335"/>
<text text-anchor="start" x="448" y="-396.4" font-family="Arial" font-size="2.00"> </text>
<text text-anchor="start" x="448" y="-390.4" font-family="Arial" font-size="7.00"> &#160;6</text>
<text text-anchor="start" x="462" y="-373.8" font-family="Arial" font-weight="bold" font-size="14.00">Mean: 71.33</text>
<text text-anchor="start" x="481" y="-356.8" font-family="Arial" font-weight="bold" font-size="14.00">n = 19</text>
<text text-anchor="start" x="499.5" y="-338.8" font-family="Arial" font-size="9.00"> </text>
<path fill="none" stroke="#333333" d="M459,-335C459,-335 543,-335 543,-335 549,-335 555,-341 555,-347 555,-347 555,-387 555,-387 555,-393 549,-399 543,-399 543,-399 459,-399 459,-399 453,-399 447,-393 447,-387 447,-387 447,-347 447,-347 447,-341 453,-335 459,-335"/>
<text text-anchor="start" x="557" y="-363.3" font-family="Arial" font-size="14.00"> &#160;&#160;&#160;</text>
<text text-anchor="start" x="443.5" y="-320.8" font-family="Arial" font-weight="bold" font-size="14.00">prev_168h_inflow</text>
</g>
<!-- 2&#45;&gt;6 -->
<g id="edge4" class="edge">
<title>2&#45;&gt;6</title>
<path fill="none" stroke="#888888" d="M501,-461.67C501,-453.39 501,-444.83 501,-436.38"/>
<polygon fill="#888888" stroke="#888888" points="504.5,-436.18 501,-426.18 497.5,-436.18 504.5,-436.18"/>
</g>
<!-- 10 -->
<g id="node10" class="node">
<title>10</title>
<text text-anchor="start" x="716" y="-407.8" font-family="Arial" font-weight="bold" font-size="14.00"> &lt; 92.12</text>
<text text-anchor="start" x="669" y="-363.3" font-family="Arial" font-size="14.00"> &#160;&#160;&#160;</text>
<path fill="#ebebeb" stroke="transparent" d="M699,-335C699,-335 783,-335 783,-335 789,-335 795,-341 795,-347 795,-347 795,-387 795,-387 795,-393 789,-399 783,-399 783,-399 699,-399 699,-399 693,-399 687,-393 687,-387 687,-387 687,-347 687,-347 687,-341 693,-335 699,-335"/>
<text text-anchor="start" x="688" y="-396.4" font-family="Arial" font-size="2.00"> </text>
<text text-anchor="start" x="688" y="-390.4" font-family="Arial" font-size="7.00"> &#160;10</text>
<text text-anchor="start" x="702" y="-373.8" font-family="Arial" font-weight="bold" font-size="14.00">Mean: 86.88</text>
<text text-anchor="start" x="721" y="-356.8" font-family="Arial" font-weight="bold" font-size="14.00">n = 73</text>
<text text-anchor="start" x="739.5" y="-338.8" font-family="Arial" font-size="9.00"> </text>
<path fill="none" stroke="#333333" d="M699,-335C699,-335 783,-335 783,-335 789,-335 795,-341 795,-347 795,-347 795,-387 795,-387 795,-393 789,-399 783,-399 783,-399 699,-399 699,-399 693,-399 687,-393 687,-387 687,-387 687,-347 687,-347 687,-341 693,-335 699,-335"/>
<text text-anchor="start" x="797" y="-363.3" font-family="Arial" font-size="14.00"> &#160;&#160;&#160;</text>
<text text-anchor="start" x="683.5" y="-320.8" font-family="Arial" font-weight="bold" font-size="14.00">prev_168h_inflow</text>
</g>
<!-- 9&#45;&gt;10 -->
<g id="edge9" class="edge">
<title>9&#45;&gt;10</title>
<path fill="none" stroke="#888888" d="M741,-461.67C741,-453.39 741,-444.83 741,-436.38"/>
<polygon fill="#888888" stroke="#888888" points="744.5,-436.18 741,-426.18 737.5,-436.18 744.5,-436.18"/>
</g>
<!-- 17 -->
<g id="node11" class="node">
<title>17</title>
<text text-anchor="start" x="1149.5" y="-407.8" font-family="Arial" font-weight="bold" font-size="14.00"> ≥ 92.12</text>
<text text-anchor="start" x="1102" y="-363.3" font-family="Arial" font-size="14.00"> &#160;&#160;&#160;</text>
<path fill="#ebebeb" stroke="transparent" d="M1132,-335C1132,-335 1216,-335 1216,-335 1222,-335 1228,-341 1228,-347 1228,-347 1228,-387 1228,-387 1228,-393 1222,-399 1216,-399 1216,-399 1132,-399 1132,-399 1126,-399 1120,-393 1120,-387 1120,-387 1120,-347 1120,-347 1120,-341 1126,-335 1132,-335"/>
<text text-anchor="start" x="1121" y="-396.4" font-family="Arial" font-size="2.00"> </text>
<text text-anchor="start" x="1121" y="-390.4" font-family="Arial" font-size="7.00"> &#160;17</text>
<text text-anchor="start" x="1135" y="-373.8" font-family="Arial" font-weight="bold" font-size="14.00">Mean: 99.44</text>
<text text-anchor="start" x="1154" y="-356.8" font-family="Arial" font-weight="bold" font-size="14.00">n = 41</text>
<text text-anchor="start" x="1172.5" y="-338.8" font-family="Arial" font-size="9.00"> </text>
<path fill="none" stroke="#333333" d="M1132,-335C1132,-335 1216,-335 1216,-335 1222,-335 1228,-341 1228,-347 1228,-347 1228,-387 1228,-387 1228,-393 1222,-399 1216,-399 1216,-399 1132,-399 1132,-399 1126,-399 1120,-393 1120,-387 1120,-387 1120,-347 1120,-347 1120,-341 1126,-335 1132,-335"/>
<text text-anchor="start" x="1230" y="-363.3" font-family="Arial" font-size="14.00"> &#160;&#160;&#160;</text>
<text text-anchor="start" x="1116.5" y="-320.8" font-family="Arial" font-weight="bold" font-size="14.00">prev_168h_inflow</text>
</g>
<!-- 9&#45;&gt;17 -->
<g id="edge10" class="edge">
<title>9&#45;&gt;17</title>
<path fill="none" stroke="#888888" d="M819.16,-492.56C892.98,-466.65 1003.72,-427.77 1081.82,-400.36"/>
<polygon fill="#888888" stroke="#888888" points="1083.38,-403.52 1091.65,-396.91 1081.06,-396.92 1083.38,-403.52"/>
</g>
<!-- 4 -->
<g id="node6" class="node">
<title>4</title>
<text text-anchor="start" x="44" y="-253.8" font-family="Arial" font-weight="bold" font-size="14.00"> &lt; 61.82</text>
<path fill="#f8766d" fill-opacity="0.874510" stroke="transparent" d="M24,-181C24,-181 114,-181 114,-181 120,-181 126,-187 126,-193 126,-193 126,-233 126,-233 126,-239 120,-245 114,-245 114,-245 24,-245 24,-245 18,-245 12,-239 12,-233 12,-233 12,-193 12,-193 12,-187 18,-181 24,-181"/>
<text text-anchor="start" x="13" y="-242.4" font-family="Arial" font-size="2.00"> </text>
<text text-anchor="start" x="13" y="-236.4" font-family="Arial" font-size="7.00"> &#160;4</text>
<text text-anchor="start" x="27" y="-219.8" font-family="Arial" font-weight="bold" font-size="14.00">Predict 60.97</text>
<text text-anchor="start" x="49" y="-202.8" font-family="Arial" font-weight="bold" font-size="14.00">n = 22</text>
<text text-anchor="start" x="67.5" y="-184.8" font-family="Arial" font-size="9.00"> </text>
<path fill="none" stroke="#333333" d="M24,-181C24,-181 114,-181 114,-181 120,-181 126,-187 126,-193 126,-193 126,-233 126,-233 126,-239 120,-245 114,-245 114,-245 24,-245 24,-245 18,-245 12,-239 12,-233 12,-233 12,-193 12,-193 12,-187 18,-181 24,-181"/>
<text text-anchor="start" x="67" y="-166.8" font-family="Arial" font-weight="bold" font-size="14.00"> </text>
</g>
<!-- 3&#45;&gt;4 -->
<g id="edge5" class="edge">
<title>3&#45;&gt;4</title>
<path fill="none" stroke="#888888" d="M165.13,-307.67C155.62,-298.39 145.72,-288.75 136.05,-279.33"/>
<polygon fill="#888888" stroke="#888888" points="138.31,-276.65 128.71,-272.18 133.43,-281.66 138.31,-276.65"/>
</g>
<!-- 5 -->
<g id="node7" class="node">
<title>5</title>
<text text-anchor="start" x="200.5" y="-253.8" font-family="Arial" font-weight="bold" font-size="14.00"> ≥ 61.82</text>
<path fill="#f8766d" fill-opacity="0.847059" stroke="transparent" d="M180,-181C180,-181 270,-181 270,-181 276,-181 282,-187 282,-193 282,-193 282,-233 282,-233 282,-239 276,-245 270,-245 270,-245 180,-245 180,-245 174,-245 168,-239 168,-233 168,-233 168,-193 168,-193 168,-187 174,-181 180,-181"/>
<text text-anchor="start" x="169" y="-242.4" font-family="Arial" font-size="2.00"> </text>
<text text-anchor="start" x="169" y="-236.4" font-family="Arial" font-size="7.00"> &#160;5</text>
<text text-anchor="start" x="183" y="-219.8" font-family="Arial" font-weight="bold" font-size="14.00">Predict 63.32</text>
<text text-anchor="start" x="205" y="-202.8" font-family="Arial" font-weight="bold" font-size="14.00">n = 13</text>
<text text-anchor="start" x="223.5" y="-184.8" font-family="Arial" font-size="9.00"> </text>
<path fill="none" stroke="#333333" d="M180,-181C180,-181 270,-181 270,-181 276,-181 282,-187 282,-193 282,-193 282,-233 282,-233 282,-239 276,-245 270,-245 270,-245 180,-245 180,-245 174,-245 168,-239 168,-233 168,-233 168,-193 168,-193 168,-187 174,-181 180,-181"/>
<text text-anchor="start" x="223" y="-166.8" font-family="Arial" font-weight="bold" font-size="14.00"> </text>
</g>
<!-- 3&#45;&gt;5 -->
<g id="edge6" class="edge">
<title>3&#45;&gt;5</title>
<path fill="none" stroke="#888888" d="M225,-307.67C225,-299.39 225,-290.83 225,-282.38"/>
<polygon fill="#888888" stroke="#888888" points="228.5,-282.18 225,-272.18 221.5,-282.18 228.5,-282.18"/>
</g>
<!-- 7 -->
<g id="node8" class="node">
<title>7</title>
<text text-anchor="start" x="356" y="-253.8" font-family="Arial" font-weight="bold" font-size="14.00"> &lt; 71.24</text>
<path fill="#f8766d" fill-opacity="0.803922" stroke="transparent" d="M336,-181C336,-181 426,-181 426,-181 432,-181 438,-187 438,-193 438,-193 438,-233 438,-233 438,-239 432,-245 426,-245 426,-245 336,-245 336,-245 330,-245 324,-239 324,-233 324,-233 324,-193 324,-193 324,-187 330,-181 336,-181"/>
<text text-anchor="start" x="325" y="-242.4" font-family="Arial" font-size="2.00"> </text>
<text text-anchor="start" x="325" y="-236.4" font-family="Arial" font-size="7.00"> &#160;7</text>
<text text-anchor="start" x="339" y="-219.8" font-family="Arial" font-weight="bold" font-size="14.00">Predict 67.23</text>
<text text-anchor="start" x="365" y="-202.8" font-family="Arial" font-weight="bold" font-size="14.00">n = 9</text>
<text text-anchor="start" x="379.5" y="-184.8" font-family="Arial" font-size="9.00"> </text>
<path fill="none" stroke="#333333" d="M336,-181C336,-181 426,-181 426,-181 432,-181 438,-187 438,-193 438,-193 438,-233 438,-233 438,-239 432,-245 426,-245 426,-245 336,-245 336,-245 330,-245 324,-239 324,-233 324,-233 324,-193 324,-193 324,-187 330,-181 336,-181"/>
<text text-anchor="start" x="379" y="-166.8" font-family="Arial" font-weight="bold" font-size="14.00"> </text>
</g>
<!-- 6&#45;&gt;7 -->
<g id="edge7" class="edge">
<title>6&#45;&gt;7</title>
<path fill="none" stroke="#888888" d="M454.95,-307.67C447.84,-298.67 440.46,-289.32 433.23,-280.16"/>
<polygon fill="#888888" stroke="#888888" points="435.87,-277.86 426.93,-272.18 430.38,-282.19 435.87,-277.86"/>
</g>
<!-- 8 -->
<g id="node9" class="node">
<title>8</title>
<text text-anchor="start" x="512.5" y="-253.8" font-family="Arial" font-weight="bold" font-size="14.00"> ≥ 71.24</text>
<path fill="#f8766d" fill-opacity="0.717647" stroke="transparent" d="M492,-181C492,-181 582,-181 582,-181 588,-181 594,-187 594,-193 594,-193 594,-233 594,-233 594,-239 588,-245 582,-245 582,-245 492,-245 492,-245 486,-245 480,-239 480,-233 480,-233 480,-193 480,-193 480,-187 486,-181 492,-181"/>
<text text-anchor="start" x="481" y="-242.4" font-family="Arial" font-size="2.00"> </text>
<text text-anchor="start" x="481" y="-236.4" font-family="Arial" font-size="7.00"> &#160;8</text>
<text text-anchor="start" x="495" y="-219.8" font-family="Arial" font-weight="bold" font-size="14.00">Predict 75.01</text>
<text text-anchor="start" x="517" y="-202.8" font-family="Arial" font-weight="bold" font-size="14.00">n = 10</text>
<text text-anchor="start" x="535.5" y="-184.8" font-family="Arial" font-size="9.00"> </text>
<path fill="none" stroke="#333333" d="M492,-181C492,-181 582,-181 582,-181 588,-181 594,-187 594,-193 594,-193 594,-233 594,-233 594,-239 588,-245 582,-245 582,-245 492,-245 492,-245 486,-245 480,-239 480,-233 480,-233 480,-193 480,-193 480,-187 486,-181 492,-181"/>
<text text-anchor="start" x="535" y="-166.8" font-family="Arial" font-weight="bold" font-size="14.00"> </text>
</g>
<!-- 6&#45;&gt;8 -->
<g id="edge8" class="edge">
<title>6&#45;&gt;8</title>
<path fill="none" stroke="#888888" d="M514.82,-307.67C516.8,-299.3 518.85,-290.64 520.87,-282.1"/>
<polygon fill="#888888" stroke="#888888" points="524.32,-282.71 523.22,-272.18 517.51,-281.1 524.32,-282.71"/>
</g>
<!-- 11 -->
<g id="node12" class="node">
<title>11</title>
<text text-anchor="start" x="681" y="-253.8" font-family="Arial" font-weight="bold" font-size="14.00"> &lt; 85.98</text>
<text text-anchor="start" x="634" y="-209.3" font-family="Arial" font-size="14.00"> &#160;&#160;&#160;</text>
<path fill="#ebebeb" stroke="transparent" d="M664,-181C664,-181 748,-181 748,-181 754,-181 760,-187 760,-193 760,-193 760,-233 760,-233 760,-239 754,-245 748,-245 748,-245 664,-245 664,-245 658,-245 652,-239 652,-233 652,-233 652,-193 652,-193 652,-187 658,-181 664,-181"/>
<text text-anchor="start" x="653" y="-242.4" font-family="Arial" font-size="2.00"> </text>
<text text-anchor="start" x="653" y="-236.4" font-family="Arial" font-size="7.00"> &#160;11</text>
<text text-anchor="start" x="667" y="-219.8" font-family="Arial" font-weight="bold" font-size="14.00">Mean: 83.15</text>
<text text-anchor="start" x="686" y="-202.8" font-family="Arial" font-weight="bold" font-size="14.00">n = 31</text>
<text text-anchor="start" x="704.5" y="-184.8" font-family="Arial" font-size="9.00"> </text>
<path fill="none" stroke="#333333" d="M664,-181C664,-181 748,-181 748,-181 754,-181 760,-187 760,-193 760,-193 760,-233 760,-233 760,-239 754,-245 748,-245 748,-245 664,-245 664,-245 658,-245 652,-239 652,-233 652,-233 652,-193 652,-193 652,-187 658,-181 664,-181"/>
<text text-anchor="start" x="762" y="-209.3" font-family="Arial" font-size="14.00"> &#160;&#160;&#160;</text>
<text text-anchor="start" x="648.5" y="-166.8" font-family="Arial" font-weight="bold" font-size="14.00">prev_168h_inflow</text>
</g>
<!-- 10&#45;&gt;11 -->
<g id="edge11" class="edge">
<title>10&#45;&gt;11</title>
<path fill="none" stroke="#888888" d="M727.57,-307.67C725.64,-299.3 723.65,-290.64 721.68,-282.1"/>
<polygon fill="#888888" stroke="#888888" points="725.05,-281.14 719.4,-272.18 718.23,-282.71 725.05,-281.14"/>
</g>
<!-- 14 -->
<g id="node13" class="node">
<title>14</title>
<text text-anchor="start" x="863.5" y="-253.8" font-family="Arial" font-weight="bold" font-size="14.00"> ≥ 85.98</text>
<text text-anchor="start" x="816" y="-209.3" font-family="Arial" font-size="14.00"> &#160;&#160;&#160;</text>
<path fill="#ebebeb" stroke="transparent" d="M846,-181C846,-181 930,-181 930,-181 936,-181 942,-187 942,-193 942,-193 942,-233 942,-233 942,-239 936,-245 930,-245 930,-245 846,-245 846,-245 840,-245 834,-239 834,-233 834,-233 834,-193 834,-193 834,-187 840,-181 846,-181"/>
<text text-anchor="start" x="835" y="-242.4" font-family="Arial" font-size="2.00"> </text>
<text text-anchor="start" x="835" y="-236.4" font-family="Arial" font-size="7.00"> &#160;14</text>
<text text-anchor="start" x="849" y="-219.8" font-family="Arial" font-weight="bold" font-size="14.00">Mean: 89.63</text>
<text text-anchor="start" x="868" y="-202.8" font-family="Arial" font-weight="bold" font-size="14.00">n = 42</text>
<text text-anchor="start" x="886.5" y="-184.8" font-family="Arial" font-size="9.00"> </text>
<path fill="none" stroke="#333333" d="M846,-181C846,-181 930,-181 930,-181 936,-181 942,-187 942,-193 942,-193 942,-233 942,-233 942,-239 936,-245 930,-245 930,-245 846,-245 846,-245 840,-245 834,-239 834,-233 834,-233 834,-193 834,-193 834,-187 840,-181 846,-181"/>
<text text-anchor="start" x="944" y="-209.3" font-family="Arial" font-size="14.00"> &#160;&#160;&#160;</text>
<text text-anchor="start" x="830.5" y="-166.8" font-family="Arial" font-weight="bold" font-size="14.00">prev_168h_inflow</text>
</g>
<!-- 10&#45;&gt;14 -->
<g id="edge12" class="edge">
<title>10&#45;&gt;14</title>
<path fill="none" stroke="#888888" d="M797.41,-307.67C806.29,-298.49 815.53,-288.94 824.55,-279.6"/>
<polygon fill="#888888" stroke="#888888" points="827.3,-281.8 831.74,-272.18 822.27,-276.93 827.3,-281.8"/>
</g>
<!-- 18 -->
<g id="node18" class="node">
<title>18</title>
<text text-anchor="start" x="1149" y="-253.8" font-family="Arial" font-weight="bold" font-size="14.00"> &lt; 101.7</text>
<text text-anchor="start" x="1110" y="-209.3" font-family="Arial" font-size="14.00"> &#160;</text>
<path fill="#ebebeb" stroke="transparent" d="M1132,-181C1132,-181 1216,-181 1216,-181 1222,-181 1228,-187 1228,-193 1228,-193 1228,-233 1228,-233 1228,-239 1222,-245 1216,-245 1216,-245 1132,-245 1132,-245 1126,-245 1120,-239 1120,-233 1120,-233 1120,-193 1120,-193 1120,-187 1126,-181 1132,-181"/>
<text text-anchor="start" x="1121" y="-242.4" font-family="Arial" font-size="2.00"> </text>
<text text-anchor="start" x="1121" y="-236.4" font-family="Arial" font-size="7.00"> &#160;18</text>
<text text-anchor="start" x="1135" y="-219.8" font-family="Arial" font-weight="bold" font-size="14.00">Mean: 96.24</text>
<text text-anchor="start" x="1154" y="-202.8" font-family="Arial" font-weight="bold" font-size="14.00">n = 27</text>
<text text-anchor="start" x="1172.5" y="-184.8" font-family="Arial" font-size="9.00"> </text>
<path fill="none" stroke="#333333" d="M1132,-181C1132,-181 1216,-181 1216,-181 1222,-181 1228,-187 1228,-193 1228,-193 1228,-233 1228,-233 1228,-239 1222,-245 1216,-245 1216,-245 1132,-245 1132,-245 1126,-245 1120,-239 1120,-233 1120,-233 1120,-193 1120,-193 1120,-187 1126,-181 1132,-181"/>
<text text-anchor="start" x="1230" y="-209.3" font-family="Arial" font-size="14.00"> &#160;</text>
<text text-anchor="start" x="1124" y="-166.8" font-family="Arial" font-weight="bold" font-size="14.00">prev_1h_inflow</text>
</g>
<!-- 17&#45;&gt;18 -->
<g id="edge17" class="edge">
<title>17&#45;&gt;18</title>
<path fill="none" stroke="#888888" d="M1174,-307.67C1174,-299.39 1174,-290.83 1174,-282.38"/>
<polygon fill="#888888" stroke="#888888" points="1177.5,-282.18 1174,-272.18 1170.5,-282.18 1177.5,-282.18"/>
</g>
<!-- 21 -->
<g id="node19" class="node">
<title>21</title>
<text text-anchor="start" x="1310.5" y="-253.8" font-family="Arial" font-weight="bold" font-size="14.00"> ≥ 101.7</text>
<path fill="#f8766d" fill-opacity="0.376471" stroke="transparent" d="M1290,-181C1290,-181 1380,-181 1380,-181 1386,-181 1392,-187 1392,-193 1392,-193 1392,-233 1392,-233 1392,-239 1386,-245 1380,-245 1380,-245 1290,-245 1290,-245 1284,-245 1278,-239 1278,-233 1278,-233 1278,-193 1278,-193 1278,-187 1284,-181 1290,-181"/>
<text text-anchor="start" x="1279" y="-242.4" font-family="Arial" font-size="2.00"> </text>
<text text-anchor="start" x="1279" y="-236.4" font-family="Arial" font-size="7.00"> &#160;21</text>
<text text-anchor="start" x="1293" y="-219.8" font-family="Arial" font-weight="bold" font-size="14.00">Predict 105.6</text>
<text text-anchor="start" x="1315" y="-202.8" font-family="Arial" font-weight="bold" font-size="14.00">n = 14</text>
<text text-anchor="start" x="1333.5" y="-184.8" font-family="Arial" font-size="9.00"> </text>
<path fill="none" stroke="#333333" d="M1290,-181C1290,-181 1380,-181 1380,-181 1386,-181 1392,-187 1392,-193 1392,-193 1392,-233 1392,-233 1392,-239 1386,-245 1380,-245 1380,-245 1290,-245 1290,-245 1284,-245 1278,-239 1278,-233 1278,-233 1278,-193 1278,-193 1278,-187 1284,-181 1290,-181"/>
<text text-anchor="start" x="1333" y="-166.8" font-family="Arial" font-weight="bold" font-size="14.00"> </text>
</g>
<!-- 17&#45;&gt;21 -->
<g id="edge18" class="edge">
<title>17&#45;&gt;21</title>
<path fill="none" stroke="#888888" d="M1235.79,-307.67C1245.71,-298.3 1256.03,-288.56 1266.1,-279.05"/>
<polygon fill="#888888" stroke="#888888" points="1268.51,-281.59 1273.38,-272.18 1263.7,-276.5 1268.51,-281.59"/>
</g>
<!-- 12 -->
<g id="node14" class="node">
<title>12</title>
<text text-anchor="start" x="525" y="-99.8" font-family="Arial" font-weight="bold" font-size="14.00"> &lt; 82.33</text>
<path fill="#f8766d" fill-opacity="0.658824" stroke="transparent" d="M505,-27C505,-27 595,-27 595,-27 601,-27 607,-33 607,-39 607,-39 607,-79 607,-79 607,-85 601,-91 595,-91 595,-91 505,-91 505,-91 499,-91 493,-85 493,-79 493,-79 493,-39 493,-39 493,-33 499,-27 505,-27"/>
<text text-anchor="start" x="494" y="-88.4" font-family="Arial" font-size="2.00"> </text>
<text text-anchor="start" x="494" y="-82.4" font-family="Arial" font-size="7.00"> &#160;12</text>
<text text-anchor="start" x="508" y="-65.8" font-family="Arial" font-weight="bold" font-size="14.00">Predict 80.27</text>
<text text-anchor="start" x="530.5" y="-48.8" font-family="Arial" font-weight="bold" font-size="14.00">n = 11</text>
<text text-anchor="start" x="548.5" y="-30.8" font-family="Arial" font-size="9.00"> </text>
<path fill="none" stroke="#333333" d="M505,-27C505,-27 595,-27 595,-27 601,-27 607,-33 607,-39 607,-39 607,-79 607,-79 607,-85 601,-91 595,-91 595,-91 505,-91 505,-91 499,-91 493,-85 493,-79 493,-79 493,-39 493,-39 493,-33 499,-27 505,-27"/>
<text text-anchor="start" x="548" y="-12.8" font-family="Arial" font-weight="bold" font-size="14.00"> </text>
</g>
<!-- 11&#45;&gt;12 -->
<g id="edge13" class="edge">
<title>11&#45;&gt;12</title>
<path fill="none" stroke="#888888" d="M646.13,-153.67C636.62,-144.39 626.72,-134.75 617.05,-125.33"/>
<polygon fill="#888888" stroke="#888888" points="619.31,-122.65 609.71,-118.18 614.43,-127.66 619.31,-122.65"/>
</g>
<!-- 13 -->
<g id="node15" class="node">
<title>13</title>
<text text-anchor="start" x="681.5" y="-99.8" font-family="Arial" font-weight="bold" font-size="14.00"> ≥ 82.33</text>
<path fill="#f8766d" fill-opacity="0.607843" stroke="transparent" d="M661,-27C661,-27 751,-27 751,-27 757,-27 763,-33 763,-39 763,-39 763,-79 763,-79 763,-85 757,-91 751,-91 751,-91 661,-91 661,-91 655,-91 649,-85 649,-79 649,-79 649,-39 649,-39 649,-33 655,-27 661,-27"/>
<text text-anchor="start" x="650" y="-88.4" font-family="Arial" font-size="2.00"> </text>
<text text-anchor="start" x="650" y="-82.4" font-family="Arial" font-size="7.00"> &#160;13</text>
<text text-anchor="start" x="664" y="-65.8" font-family="Arial" font-weight="bold" font-size="14.00">Predict 84.74</text>
<text text-anchor="start" x="686" y="-48.8" font-family="Arial" font-weight="bold" font-size="14.00">n = 20</text>
<text text-anchor="start" x="704.5" y="-30.8" font-family="Arial" font-size="9.00"> </text>
<path fill="none" stroke="#333333" d="M661,-27C661,-27 751,-27 751,-27 757,-27 763,-33 763,-39 763,-39 763,-79 763,-79 763,-85 757,-91 751,-91 751,-91 661,-91 661,-91 655,-91 649,-85 649,-79 649,-79 649,-39 649,-39 649,-33 655,-27 661,-27"/>
<text text-anchor="start" x="704" y="-12.8" font-family="Arial" font-weight="bold" font-size="14.00"> </text>
</g>
<!-- 11&#45;&gt;13 -->
<g id="edge14" class="edge">
<title>11&#45;&gt;13</title>
<path fill="none" stroke="#888888" d="M706,-153.67C706,-145.39 706,-136.83 706,-128.38"/>
<polygon fill="#888888" stroke="#888888" points="709.5,-128.18 706,-118.18 702.5,-128.18 709.5,-128.18"/>
</g>
<!-- 15 -->
<g id="node16" class="node">
<title>15</title>
<text text-anchor="start" x="837" y="-99.8" font-family="Arial" font-weight="bold" font-size="14.00"> &lt; 88.19</text>
<path fill="#f8766d" fill-opacity="0.576471" stroke="transparent" d="M817,-27C817,-27 907,-27 907,-27 913,-27 919,-33 919,-39 919,-39 919,-79 919,-79 919,-85 913,-91 907,-91 907,-91 817,-91 817,-91 811,-91 805,-85 805,-79 805,-79 805,-39 805,-39 805,-33 811,-27 817,-27"/>
<text text-anchor="start" x="806" y="-88.4" font-family="Arial" font-size="2.00"> </text>
<text text-anchor="start" x="806" y="-82.4" font-family="Arial" font-size="7.00"> &#160;15</text>
<text text-anchor="start" x="820" y="-65.8" font-family="Arial" font-weight="bold" font-size="14.00">Predict 87.68</text>
<text text-anchor="start" x="842" y="-48.8" font-family="Arial" font-weight="bold" font-size="14.00">n = 12</text>
<text text-anchor="start" x="860.5" y="-30.8" font-family="Arial" font-size="9.00"> </text>
<path fill="none" stroke="#333333" d="M817,-27C817,-27 907,-27 907,-27 913,-27 919,-33 919,-39 919,-39 919,-79 919,-79 919,-85 913,-91 907,-91 907,-91 817,-91 817,-91 811,-91 805,-85 805,-79 805,-79 805,-39 805,-39 805,-33 811,-27 817,-27"/>
<text text-anchor="start" x="860" y="-12.8" font-family="Arial" font-weight="bold" font-size="14.00"> </text>
</g>
<!-- 14&#45;&gt;15 -->
<g id="edge15" class="edge">
<title>14&#45;&gt;15</title>
<path fill="none" stroke="#888888" d="M878.02,-153.67C876.59,-145.3 875.11,-136.64 873.65,-128.1"/>
<polygon fill="#888888" stroke="#888888" points="877.09,-127.44 871.95,-118.18 870.19,-128.62 877.09,-127.44"/>
</g>
<!-- 16 -->
<g id="node17" class="node">
<title>16</title>
<text text-anchor="start" x="993.5" y="-99.8" font-family="Arial" font-weight="bold" font-size="14.00"> ≥ 88.19</text>
<path fill="#f8766d" fill-opacity="0.545098" stroke="transparent" d="M973,-27C973,-27 1063,-27 1063,-27 1069,-27 1075,-33 1075,-39 1075,-39 1075,-79 1075,-79 1075,-85 1069,-91 1063,-91 1063,-91 973,-91 973,-91 967,-91 961,-85 961,-79 961,-79 961,-39 961,-39 961,-33 967,-27 973,-27"/>
<text text-anchor="start" x="962" y="-88.4" font-family="Arial" font-size="2.00"> </text>
<text text-anchor="start" x="962" y="-82.4" font-family="Arial" font-size="7.00"> &#160;16</text>
<text text-anchor="start" x="976" y="-65.8" font-family="Arial" font-weight="bold" font-size="14.00">Predict 90.41</text>
<text text-anchor="start" x="998" y="-48.8" font-family="Arial" font-weight="bold" font-size="14.00">n = 30</text>
<text text-anchor="start" x="1016.5" y="-30.8" font-family="Arial" font-size="9.00"> </text>
<path fill="none" stroke="#333333" d="M973,-27C973,-27 1063,-27 1063,-27 1069,-27 1075,-33 1075,-39 1075,-39 1075,-79 1075,-79 1075,-85 1069,-91 1063,-91 1063,-91 973,-91 973,-91 967,-91 961,-85 961,-79 961,-79 961,-39 961,-39 961,-33 967,-27 973,-27"/>
<text text-anchor="start" x="1016" y="-12.8" font-family="Arial" font-weight="bold" font-size="14.00"> </text>
</g>
<!-- 14&#45;&gt;16 -->
<g id="edge16" class="edge">
<title>14&#45;&gt;16</title>
<path fill="none" stroke="#888888" d="M937.89,-153.67C945.67,-144.58 953.75,-135.13 961.65,-125.88"/>
<polygon fill="#888888" stroke="#888888" points="964.4,-128.05 968.24,-118.18 959.08,-123.5 964.4,-128.05"/>
</g>
<!-- 19 -->
<g id="node20" class="node">
<title>19</title>
<text text-anchor="start" x="1149" y="-99.8" font-family="Arial" font-weight="bold" font-size="14.00"> &lt; 101.6</text>
<path fill="#f8766d" fill-opacity="0.494118" stroke="transparent" d="M1129,-27C1129,-27 1219,-27 1219,-27 1225,-27 1231,-33 1231,-39 1231,-39 1231,-79 1231,-79 1231,-85 1225,-91 1219,-91 1219,-91 1129,-91 1129,-91 1123,-91 1117,-85 1117,-79 1117,-79 1117,-39 1117,-39 1117,-33 1123,-27 1129,-27"/>
<text text-anchor="start" x="1118" y="-88.4" font-family="Arial" font-size="2.00"> </text>
<text text-anchor="start" x="1118" y="-82.4" font-family="Arial" font-size="7.00"> &#160;19</text>
<text text-anchor="start" x="1132" y="-65.8" font-family="Arial" font-weight="bold" font-size="14.00">Predict 94.83</text>
<text text-anchor="start" x="1154" y="-48.8" font-family="Arial" font-weight="bold" font-size="14.00">n = 19</text>
<text text-anchor="start" x="1172.5" y="-30.8" font-family="Arial" font-size="9.00"> </text>
<path fill="none" stroke="#333333" d="M1129,-27C1129,-27 1219,-27 1219,-27 1225,-27 1231,-33 1231,-39 1231,-39 1231,-79 1231,-79 1231,-85 1225,-91 1219,-91 1219,-91 1129,-91 1129,-91 1123,-91 1117,-85 1117,-79 1117,-79 1117,-39 1117,-39 1117,-33 1123,-27 1129,-27"/>
<text text-anchor="start" x="1172" y="-12.8" font-family="Arial" font-weight="bold" font-size="14.00"> </text>
</g>
<!-- 18&#45;&gt;19 -->
<g id="edge19" class="edge">
<title>18&#45;&gt;19</title>
<path fill="none" stroke="#888888" d="M1174,-153.67C1174,-145.39 1174,-136.83 1174,-128.38"/>
<polygon fill="#888888" stroke="#888888" points="1177.5,-128.18 1174,-118.18 1170.5,-128.18 1177.5,-128.18"/>
</g>
<!-- 20 -->
<g id="node21" class="node">
<title>20</title>
<text text-anchor="start" x="1301.5" y="-99.8" font-family="Arial" font-weight="bold" font-size="14.00"> ≥ 101.6</text>
<path fill="#f8766d" fill-opacity="0.443137" stroke="transparent" d="M1285,-27C1285,-27 1367,-27 1367,-27 1373,-27 1379,-33 1379,-39 1379,-39 1379,-79 1379,-79 1379,-85 1373,-91 1367,-91 1367,-91 1285,-91 1285,-91 1279,-91 1273,-85 1273,-79 1273,-79 1273,-39 1273,-39 1273,-33 1279,-27 1285,-27"/>
<text text-anchor="start" x="1274" y="-88.4" font-family="Arial" font-size="2.00"> </text>
<text text-anchor="start" x="1274" y="-82.4" font-family="Arial" font-size="7.00"> &#160;20</text>
<text text-anchor="start" x="1288" y="-65.8" font-family="Arial" font-weight="bold" font-size="14.00">Predict 99.6</text>
<text text-anchor="start" x="1310" y="-48.8" font-family="Arial" font-weight="bold" font-size="14.00">n = 8</text>
<text text-anchor="start" x="1324.5" y="-30.8" font-family="Arial" font-size="9.00"> </text>
<path fill="none" stroke="#333333" d="M1285,-27C1285,-27 1367,-27 1367,-27 1373,-27 1379,-33 1379,-39 1379,-39 1379,-79 1379,-79 1379,-85 1373,-91 1367,-91 1367,-91 1285,-91 1285,-91 1279,-91 1273,-85 1273,-79 1273,-79 1273,-39 1273,-39 1273,-33 1279,-27 1285,-27"/>
<text text-anchor="start" x="1324" y="-12.8" font-family="Arial" font-weight="bold" font-size="14.00"> </text>
</g>
<!-- 18&#45;&gt;20 -->
<g id="edge20" class="edge">
<title>18&#45;&gt;20</title>
<path fill="none" stroke="#888888" d="M1232.33,-153.67C1241.61,-144.39 1251.25,-134.75 1260.67,-125.33"/>
<polygon fill="#888888" stroke="#888888" points="1263.23,-127.72 1267.82,-118.18 1258.28,-122.77 1263.23,-127.72"/>
</g>
</g>
</svg>
