<?xml version="1.0" encoding="UTF-8" standalone="no"?>
<!DOCTYPE svg PUBLIC "-//W3C//DTD SVG 1.1//EN"
 "http://www.w3.org/Graphics/SVG/1.1/DTD/svg11.dtd">
<!-- Generated by graphviz version 2.50.0 (20211204.2007)
 -->
<!-- Pages: 1 -->
<svg width="1578pt" height="742pt"
 viewBox="0.00 0.00 1578.00 742.00" xmlns="http://www.w3.org/2000/svg" xmlns:xlink="http://www.w3.org/1999/xlink">
<g id="graph0" class="graph" transform="scale(1 1) rotate(0) translate(4 738)">
<polygon fill="white" stroke="transparent" points="-4,4 -4,-738 1574,-738 1574,4 -4,4"/>
<!-- 1 -->
<g id="node1" class="node">
<title>1</title>
<text text-anchor="start" x="868" y="-715.8" font-family="Arial" font-weight="bold" font-size="14.00"> </text>
<text text-anchor="start" x="798" y="-671.3" font-family="Arial" font-size="14.00"> &#160;&#160;&#160;</text>
<path fill="#ebebeb" stroke="transparent" d="M828,-643C828,-643 912,-643 912,-643 918,-643 924,-649 924,-655 924,-655 924,-695 924,-695 924,-701 918,-707 912,-707 912,-707 828,-707 828,-707 822,-707 816,-701 816,-695 816,-695 816,-655 816,-655 816,-649 822,-643 828,-643"/>
<text text-anchor="start" x="817" y="-704.4" font-family="Arial" font-size="2.00"> </text>
<text text-anchor="start" x="817" y="-698.4" font-family="Arial" font-size="7.00"> &#160;1</text>
<text text-anchor="start" x="831" y="-681.8" font-family="Arial" font-weight="bold" font-size="14.00">Mean: 82.97</text>
<text text-anchor="start" x="846.5" y="-664.8" font-family="Arial" font-weight="bold" font-size="14.00">n = 168</text>
<text text-anchor="start" x="868.5" y="-646.8" font-family="Arial" font-size="9.00"> </text>
<path fill="none" stroke="#333333" d="M828,-643C828,-643 912,-643 912,-643 918,-643 924,-649 924,-655 924,-655 924,-695 924,-695 924,-701 918,-707 912,-707 912,-707 828,-707 828,-707 822,-707 816,-701 816,-695 816,-695 816,-655 816,-655 816,-649 822,-643 828,-643"/>
<text text-anchor="start" x="926" y="-671.3" font-family="Arial" font-size="14.00"> &#160;&#160;&#160;</text>
<text text-anchor="start" x="812.5" y="-628.8" font-family="Arial" font-weight="bold" font-size="14.00">prev_168h_inflow</text>
</g>
<!-- 2 -->
<g id="node2" class="node">
<title>2</title>
<text text-anchor="start" x="608" y="-561.8" font-family="Arial" font-weight="bold" font-size="14.00"> &lt; 82.33</text>
<text text-anchor="start" x="561" y="-517.3" font-family="Arial" font-size="14.00"> &#160;&#160;&#160;</text>
<path fill="#ebebeb" stroke="transparent" d="M591,-489C591,-489 675,-489 675,-489 681,-489 687,-495 687,-501 687,-501 687,-541 687,-541 687,-547 681,-553 675,-553 675,-553 591,-553 591,-553 585,-553 579,-547 579,-541 579,-541 579,-501 579,-501 579,-495 585,-489 591,-489"/>
<text text-anchor="start" x="580" y="-550.4" font-family="Arial" font-size="2.00"> </text>
<text text-anchor="start" x="580" y="-544.4" font-family="Arial" font-size="7.00"> &#160;2</text>
<text text-anchor="start" x="594" y="-527.8" font-family="Arial" font-weight="bold" font-size="14.00">Mean: 67.73</text>
<text text-anchor="start" x="613" y="-510.8" font-family="Arial" font-weight="bold" font-size="14.00">n = 65</text>
<text text-anchor="start" x="631.5" y="-492.8" font-family="Arial" font-size="9.00"> </text>
<path fill="none" stroke="#333333" d="M591,-489C591,-489 675,-489 675,-489 681,-489 687,-495 687,-501 687,-501 687,-541 687,-541 687,-547 681,-553 675,-553 675,-553 591,-553 591,-553 585,-553 579,-547 579,-541 579,-541 579,-501 579,-501 579,-495 585,-489 591,-489"/>
<text text-anchor="start" x="689" y="-517.3" font-family="Arial" font-size="14.00"> &#160;&#160;&#160;</text>
<text text-anchor="start" x="575.5" y="-474.8" font-family="Arial" font-weight="bold" font-size="14.00">prev_168h_inflow</text>
</g>
<!-- 1&#45;&gt;2 -->
<g id="edge1" class="edge">
<title>1&#45;&gt;2</title>
<path fill="none" stroke="#888888" d="M787.77,-621.26C767.09,-608 744.78,-593.69 723.71,-580.18"/>
<polygon fill="#888888" stroke="#888888" points="725.39,-577.09 715.08,-574.64 721.61,-582.99 725.39,-577.09"/>
</g>
<!-- 13 -->
<g id="node3" class="node">
<title>13</title>
<text text-anchor="start" x="933.5" y="-561.8" font-family="Arial" font-weight="bold" font-size="14.00"> ≥ 82.33</text>
<text text-anchor="start" x="886" y="-517.3" font-family="Arial" font-size="14.00"> &#160;&#160;&#160;</text>
<path fill="#ebebeb" stroke="transparent" d="M916,-489C916,-489 1000,-489 1000,-489 1006,-489 1012,-495 1012,-501 1012,-501 1012,-541 1012,-541 1012,-547 1006,-553 1000,-553 1000,-553 916,-553 916,-553 910,-553 904,-547 904,-541 904,-541 904,-501 904,-501 904,-495 910,-489 916,-489"/>
<text text-anchor="start" x="905" y="-550.4" font-family="Arial" font-size="2.00"> </text>
<text text-anchor="start" x="905" y="-544.4" font-family="Arial" font-size="7.00"> &#160;13</text>
<text text-anchor="start" x="919" y="-527.8" font-family="Arial" font-weight="bold" font-size="14.00">Mean: 92.58</text>
<text text-anchor="start" x="934.5" y="-510.8" font-family="Arial" font-weight="bold" font-size="14.00">n = 103</text>
<text text-anchor="start" x="956.5" y="-492.8" font-family="Arial" font-size="9.00"> </text>
<path fill="none" stroke="#333333" d="M916,-489C916,-489 1000,-489 1000,-489 1006,-489 1012,-495 1012,-501 1012,-501 1012,-541 1012,-541 1012,-547 1006,-553 1000,-553 1000,-553 916,-553 916,-553 910,-553 904,-547 904,-541 904,-541 904,-501 904,-501 904,-495 910,-489 916,-489"/>
<text text-anchor="start" x="1014" y="-517.3" font-family="Arial" font-size="14.00"> &#160;&#160;&#160;</text>
<text text-anchor="start" x="900.5" y="-474.8" font-family="Arial" font-weight="bold" font-size="14.00">prev_168h_inflow</text>
</g>
<!-- 1&#45;&gt;13 -->
<g id="edge2" class="edge">
<title>1&#45;&gt;13</title>
<path fill="none" stroke="#888888" d="M903.77,-615.67C908.82,-606.94 914.07,-597.88 919.21,-588.99"/>
<polygon fill="#888888" stroke="#888888" points="922.34,-590.58 924.32,-580.18 916.28,-587.08 922.34,-590.58"/>
</g>
<!-- 3 -->
<g id="node4" class="node">
<title>3</title>
<text text-anchor="start" x="364" y="-407.8" font-family="Arial" font-weight="bold" font-size="14.00"> &lt; 71.23</text>
<text text-anchor="start" x="317" y="-363.3" font-family="Arial" font-size="14.00"> &#160;&#160;&#160;</text>
<path fill="#ebebeb" stroke="transparent" d="M347,-335C347,-335 431,-335 431,-335 437,-335 443,-341 443,-347 443,-347 443,-387 443,-387 443,-393 437,-399 431,-399 431,-399 347,-399 347,-399 341,-399 335,-393 335,-387 335,-387 335,-347 335,-347 335,-341 341,-335 347,-335"/>
<text text-anchor="start" x="336" y="-396.4" font-family="Arial" font-size="2.00"> </text>
<text text-anchor="start" x="336" y="-390.4" font-family="Arial" font-size="7.00"> &#160;3</text>
<text text-anchor="start" x="350" y="-373.8" font-family="Arial" font-weight="bold" font-size="14.00">Mean: 62.95</text>
<text text-anchor="start" x="369" y="-356.8" font-family="Arial" font-weight="bold" font-size="14.00">n = 44</text>
<text text-anchor="start" x="387.5" y="-338.8" font-family="Arial" font-size="9.00"> </text>
<path fill="none" stroke="#333333" d="M347,-335C347,-335 431,-335 431,-335 437,-335 443,-341 443,-347 443,-347 443,-387 443,-387 443,-393 437,-399 431,-399 431,-399 347,-399 347,-399 341,-399 335,-393 335,-387 335,-387 335,-347 335,-347 335,-341 341,-335 347,-335"/>
<text text-anchor="start" x="445" y="-363.3" font-family="Arial" font-size="14.00"> &#160;&#160;&#160;</text>
<text text-anchor="start" x="331.5" y="-320.8" font-family="Arial" font-weight="bold" font-size="14.00">prev_168h_inflow</text>
</g>
<!-- 2&#45;&gt;3 -->
<g id="edge3" class="edge">
<title>2&#45;&gt;3</title>
<path fill="none" stroke="#888888" d="M550.73,-468.75C528.04,-454.61 503.28,-439.19 480.12,-424.76"/>
<polygon fill="#888888" stroke="#888888" points="481.66,-421.6 471.32,-419.28 477.96,-427.54 481.66,-421.6"/>
</g>
<!-- 8 -->
<g id="node5" class="node">
<title>8</title>
<text text-anchor="start" x="608.5" y="-407.8" font-family="Arial" font-weight="bold" font-size="14.00"> ≥ 71.23</text>
<text text-anchor="start" x="561" y="-363.3" font-family="Arial" font-size="14.00"> &#160;&#160;&#160;</text>
<path fill="#ebebeb" stroke="transparent" d="M591,-335C591,-335 675,-335 675,-335 681,-335 687,-341 687,-347 687,-347 687,-387 687,-387 687,-393 681,-399 675,-399 675,-399 591,-399 591,-399 585,-399 579,-393 579,-387 579,-387 579,-347 579,-347 579,-341 585,-335 591,-335"/>
<text text-anchor="start" x="580" y="-396.4" font-family="Arial" font-size="2.00"> </text>
<text text-anchor="start" x="580" y="-390.4" font-family="Arial" font-size="7.00"> &#160;8</text>
<text text-anchor="start" x="594" y="-373.8" font-family="Arial" font-weight="bold" font-size="14.00">Mean: 77.77</text>
<text text-anchor="start" x="613" y="-356.8" font-family="Arial" font-weight="bold" font-size="14.00">n = 21</text>
<text text-anchor="start" x="631.5" y="-338.8" font-family="Arial" font-size="9.00"> </text>
<path fill="none" stroke="#333333" d="M591,-335C591,-335 675,-335 675,-335 681,-335 687,-341 687,-347 687,-347 687,-387 687,-387 687,-393 681,-399 675,-399 675,-399 591,-399 591,-399 585,-399 579,-393 579,-387 579,-387 579,-347 579,-347 579,-341 585,-335 591,-335"/>
<text text-anchor="start" x="689" y="-363.3" font-family="Arial" font-size="14.00"> &#160;&#160;&#160;</text>
<text text-anchor="start" x="575.5" y="-320.8" font-family="Arial" font-weight="bold" font-size="14.00">prev_168h_inflow</text>
</g>
<!-- 2&#45;&gt;8 -->
<g id="edge4" class="edge">
<title>2&#45;&gt;8</title>
<path fill="none" stroke="#888888" d="M633,-461.67C633,-453.39 633,-444.83 633,-436.38"/>
<polygon fill="#888888" stroke="#888888" points="636.5,-436.18 633,-426.18 629.5,-436.18 636.5,-436.18"/>
</g>
<!-- 14 -->
<g id="node14" class="node">
<title>14</title>
<text text-anchor="start" x="933" y="-407.8" font-family="Arial" font-weight="bold" font-size="14.00"> &lt; 94.66</text>
<text text-anchor="start" x="886" y="-363.3" font-family="Arial" font-size="14.00"> &#160;&#160;&#160;</text>
<path fill="#ebebeb" stroke="transparent" d="M916,-335C916,-335 1000,-335 1000,-335 1006,-335 1012,-341 1012,-347 1012,-347 1012,-387 1012,-387 1012,-393 1006,-399 1000,-399 1000,-399 916,-399 916,-399 910,-399 904,-393 904,-387 904,-387 904,-347 904,-347 904,-341 910,-335 916,-335"/>
<text text-anchor="start" x="905" y="-396.4" font-family="Arial" font-size="2.00"> </text>
<text text-anchor="start" x="905" y="-390.4" font-family="Arial" font-size="7.00"> &#160;14</text>
<text text-anchor="start" x="919" y="-373.8" font-family="Arial" font-weight="bold" font-size="14.00">Mean: 88.86</text>
<text text-anchor="start" x="938" y="-356.8" font-family="Arial" font-weight="bold" font-size="14.00">n = 72</text>
<text text-anchor="start" x="956.5" y="-338.8" font-family="Arial" font-size="9.00"> </text>
<path fill="none" stroke="#333333" d="M916,-335C916,-335 1000,-335 1000,-335 1006,-335 1012,-341 1012,-347 1012,-347 1012,-387 1012,-387 1012,-393 1006,-399 1000,-399 1000,-399 916,-399 916,-399 910,-399 904,-393 904,-387 904,-387 904,-347 904,-347 904,-341 910,-335 916,-335"/>
<text text-anchor="start" x="1014" y="-363.3" font-family="Arial" font-size="14.00"> &#160;&#160;&#160;</text>
<text text-anchor="start" x="900.5" y="-320.8" font-family="Arial" font-weight="bold" font-size="14.00">prev_168h_inflow</text>
</g>
<!-- 13&#45;&gt;14 -->
<g id="edge13" class="edge">
<title>13&#45;&gt;14</title>
<path fill="none" stroke="#888888" d="M958,-461.67C958,-453.39 958,-444.83 958,-436.38"/>
<polygon fill="#888888" stroke="#888888" points="961.5,-436.18 958,-426.18 954.5,-436.18 961.5,-436.18"/>
</g>
<!-- 21 -->
<g id="node15" class="node">
<title>21</title>
<text text-anchor="start" x="1307.5" y="-407.8" font-family="Arial" font-weight="bold" font-size="14.00"> ≥ 94.66</text>
<path fill="#ebebeb" stroke="transparent" d="M1290,-335C1290,-335 1374,-335 1374,-335 1380,-335 1386,-341 1386,-347 1386,-347 1386,-387 1386,-387 1386,-393 1380,-399 1374,-399 1374,-399 1290,-399 1290,-399 1284,-399 1278,-393 1278,-387 1278,-387 1278,-347 1278,-347 1278,-341 1284,-335 1290,-335"/>
<text text-anchor="start" x="1279" y="-396.4" font-family="Arial" font-size="2.00"> </text>
<text text-anchor="start" x="1279" y="-390.4" font-family="Arial" font-size="7.00"> &#160;21</text>
<text text-anchor="start" x="1293" y="-373.8" font-family="Arial" font-weight="bold" font-size="14.00">Mean: 101.2</text>
<text text-anchor="start" x="1312" y="-356.8" font-family="Arial" font-weight="bold" font-size="14.00">n = 31</text>
<text text-anchor="start" x="1330.5" y="-338.8" font-family="Arial" font-size="9.00"> </text>
<path fill="none" stroke="#333333" d="M1290,-335C1290,-335 1374,-335 1374,-335 1380,-335 1386,-341 1386,-347 1386,-347 1386,-387 1386,-387 1386,-393 1380,-399 1374,-399 1374,-399 1290,-399 1290,-399 1284,-399 1278,-393 1278,-387 1278,-387 1278,-347 1278,-347 1278,-341 1284,-335 1290,-335"/>
<text text-anchor="start" x="1317.5" y="-320.8" font-family="Arial" font-weight="bold" font-size="14.00">time</text>
</g>
<!-- 13&#45;&gt;21 -->
<g id="edge14" class="edge">
<title>13&#45;&gt;21</title>
<path fill="none" stroke="#888888" d="M1040.08,-486.64C1104.6,-460.42 1193.78,-424.18 1256.54,-398.67"/>
<polygon fill="#888888" stroke="#888888" points="1258.04,-401.84 1265.99,-394.83 1255.4,-395.35 1258.04,-401.84"/>
</g>
<!-- 4 -->
<g id="node6" class="node">
<title>4</title>
<text text-anchor="start" x="195" y="-253.8" font-family="Arial" font-weight="bold" font-size="14.00"> &lt; 65.62</text>
<text text-anchor="start" x="148" y="-209.3" font-family="Arial" font-size="14.00"> &#160;&#160;&#160;</text>
<path fill="#ebebeb" stroke="transparent" d="M178,-181C178,-181 262,-181 262,-181 268,-181 274,-187 274,-193 274,-193 274,-233 274,-233 274,-239 268,-245 262,-245 262,-245 178,-245 178,-245 172,-245 166,-239 166,-233 166,-233 166,-193 166,-193 166,-187 172,-181 178,-181"/>
<text text-anchor="start" x="167" y="-242.4" font-family="Arial" font-size="2.00"> </text>
<text text-anchor="start" x="167" y="-236.4" font-family="Arial" font-size="7.00"> &#160;4</text>
<text text-anchor="start" x="181" y="-219.8" font-family="Arial" font-weight="bold" font-size="14.00">Mean: 61.84</text>
<text text-anchor="start" x="200" y="-202.8" font-family="Arial" font-weight="bold" font-size="14.00">n = 35</text>
<text text-anchor="start" x="218.5" y="-184.8" font-family="Arial" font-size="9.00"> </text>
<path fill="none" stroke="#333333" d="M178,-181C178,-181 262,-181 262,-181 268,-181 274,-187 274,-193 274,-193 274,-233 274,-233 274,-239 268,-245 262,-245 262,-245 178,-245 178,-245 172,-245 166,-239 166,-233 166,-233 166,-193 166,-193 166,-187 172,-181 178,-181"/>
<text text-anchor="start" x="276" y="-209.3" font-family="Arial" font-size="14.00"> &#160;&#160;&#160;</text>
<text text-anchor="start" x="162.5" y="-166.8" font-family="Arial" font-weight="bold" font-size="14.00">prev_168h_inflow</text>
</g>
<!-- 3&#45;&gt;4 -->
<g id="edge5" class="edge">
<title>3&#45;&gt;4</title>
<path fill="none" stroke="#888888" d="M324.14,-307.67C313.73,-298.3 302.9,-288.56 292.33,-279.05"/>
<polygon fill="#888888" stroke="#888888" points="294.46,-276.26 284.68,-272.18 289.78,-281.47 294.46,-276.26"/>
</g>
<!-- 7 -->
<g id="node7" class="node">
<title>7</title>
<text text-anchor="start" x="364.5" y="-253.8" font-family="Arial" font-weight="bold" font-size="14.00"> ≥ 65.62</text>
<path fill="#f8766d" fill-opacity="0.803922" stroke="transparent" d="M344,-181C344,-181 434,-181 434,-181 440,-181 446,-187 446,-193 446,-193 446,-233 446,-233 446,-239 440,-245 434,-245 434,-245 344,-245 344,-245 338,-245 332,-239 332,-233 332,-233 332,-193 332,-193 332,-187 338,-181 344,-181"/>
<text text-anchor="start" x="333" y="-242.4" font-family="Arial" font-size="2.00"> </text>
<text text-anchor="start" x="333" y="-236.4" font-family="Arial" font-size="7.00"> &#160;7</text>
<text text-anchor="start" x="347" y="-219.8" font-family="Arial" font-weight="bold" font-size="14.00">Predict 67.23</text>
<text text-anchor="start" x="373" y="-202.8" font-family="Arial" font-weight="bold" font-size="14.00">n = 9</text>
<text text-anchor="start" x="387.5" y="-184.8" font-family="Arial" font-size="9.00"> </text>
<path fill="none" stroke="#333333" d="M344,-181C344,-181 434,-181 434,-181 440,-181 446,-187 446,-193 446,-193 446,-233 446,-233 446,-239 440,-245 434,-245 434,-245 344,-245 344,-245 338,-245 332,-239 332,-233 332,-233 332,-193 332,-193 332,-187 338,-181 344,-181"/>
<text text-anchor="start" x="387" y="-166.8" font-family="Arial" font-weight="bold" font-size="14.00"> </text>
</g>
<!-- 3&#45;&gt;7 -->
<g id="edge6" class="edge">
<title>3&#45;&gt;7</title>
<path fill="none" stroke="#888888" d="M389,-307.67C389,-299.39 389,-290.83 389,-282.38"/>
<polygon fill="#888888" stroke="#888888" points="392.5,-282.18 389,-272.18 385.5,-282.18 392.5,-282.18"/>
</g>
<!-- 9 -->
<g id="node10" class="node">
<title>9</title>
<text text-anchor="start" x="517" y="-253.8" font-family="Arial" font-weight="bold" font-size="14.00"> &lt; 78.16</text>
<path fill="#ebebeb" stroke="transparent" d="M500,-181C500,-181 584,-181 584,-181 590,-181 596,-187 596,-193 596,-193 596,-233 596,-233 596,-239 590,-245 584,-245 584,-245 500,-245 500,-245 494,-245 488,-239 488,-233 488,-233 488,-193 488,-193 488,-187 494,-181 500,-181"/>
<text text-anchor="start" x="489" y="-242.4" font-family="Arial" font-size="2.00"> </text>
<text text-anchor="start" x="489" y="-236.4" font-family="Arial" font-size="7.00"> &#160;9</text>
<text text-anchor="start" x="503" y="-219.8" font-family="Arial" font-weight="bold" font-size="14.00">Mean: 75.01</text>
<text text-anchor="start" x="522" y="-202.8" font-family="Arial" font-weight="bold" font-size="14.00">n = 10</text>
<text text-anchor="start" x="540.5" y="-184.8" font-family="Arial" font-size="9.00"> </text>
<path fill="none" stroke="#333333" d="M500,-181C500,-181 584,-181 584,-181 590,-181 596,-187 596,-193 596,-193 596,-233 596,-233 596,-239 590,-245 584,-245 584,-245 500,-245 500,-245 494,-245 488,-239 488,-233 488,-233 488,-193 488,-193 488,-187 494,-181 500,-181"/>
<text text-anchor="start" x="527.5" y="-166.8" font-family="Arial" font-weight="bold" font-size="14.00">time</text>
</g>
<!-- 8&#45;&gt;9 -->
<g id="edge9" class="edge">
<title>8&#45;&gt;9</title>
<path fill="none" stroke="#888888" d="M598.08,-307.67C592.85,-298.94 587.43,-289.88 582.11,-280.99"/>
<polygon fill="#888888" stroke="#888888" points="584.97,-278.96 576.83,-272.18 578.96,-282.55 584.97,-278.96"/>
</g>
<!-- 12 -->
<g id="node11" class="node">
<title>12</title>
<text text-anchor="start" x="670.5" y="-253.8" font-family="Arial" font-weight="bold" font-size="14.00"> ≥ 78.16</text>
<path fill="#f8766d" fill-opacity="0.658824" stroke="transparent" d="M650,-181C650,-181 740,-181 740,-181 746,-181 752,-187 752,-193 752,-193 752,-233 752,-233 752,-239 746,-245 740,-245 740,-245 650,-245 650,-245 644,-245 638,-239 638,-233 638,-233 638,-193 638,-193 638,-187 644,-181 650,-181"/>
<text text-anchor="start" x="639" y="-242.4" font-family="Arial" font-size="2.00"> </text>
<text text-anchor="start" x="639" y="-236.4" font-family="Arial" font-size="7.00"> &#160;12</text>
<text text-anchor="start" x="653" y="-219.8" font-family="Arial" font-weight="bold" font-size="14.00">Predict 80.27</text>
<text text-anchor="start" x="675.5" y="-202.8" font-family="Arial" font-weight="bold" font-size="14.00">n = 11</text>
<text text-anchor="start" x="693.5" y="-184.8" font-family="Arial" font-size="9.00"> </text>
<path fill="none" stroke="#333333" d="M650,-181C650,-181 740,-181 740,-181 746,-181 752,-187 752,-193 752,-193 752,-233 752,-233 752,-239 746,-245 740,-245 740,-245 650,-245 650,-245 644,-245 638,-239 638,-233 638,-233 638,-193 638,-193 638,-187 644,-181 650,-181"/>
<text text-anchor="start" x="693" y="-166.8" font-family="Arial" font-weight="bold" font-size="14.00"> </text>
</g>
<!-- 8&#45;&gt;12 -->
<g id="edge10" class="edge">
<title>8&#45;&gt;12</title>
<path fill="none" stroke="#888888" d="M656.79,-307.67C660.28,-299.12 663.89,-290.26 667.45,-281.55"/>
<polygon fill="#888888" stroke="#888888" points="670.73,-282.76 671.27,-272.18 664.25,-280.11 670.73,-282.76"/>
</g>
<!-- 5 -->
<g id="node8" class="node">
<title>5</title>
<text text-anchor="start" x="44" y="-99.8" font-family="Arial" font-weight="bold" font-size="14.00"> &lt; 61.82</text>
<path fill="#f8766d" fill-opacity="0.874510" stroke="transparent" d="M24,-27C24,-27 114,-27 114,-27 120,-27 126,-33 126,-39 126,-39 126,-79 126,-79 126,-85 120,-91 114,-91 114,-91 24,-91 24,-91 18,-91 12,-85 12,-79 12,-79 12,-39 12,-39 12,-33 18,-27 24,-27"/>
<text text-anchor="start" x="13" y="-88.4" font-family="Arial" font-size="2.00"> </text>
<text text-anchor="start" x="13" y="-82.4" font-family="Arial" font-size="7.00"> &#160;5</text>
<text text-anchor="start" x="27" y="-65.8" font-family="Arial" font-weight="bold" font-size="14.00">Predict 60.97</text>
<text text-anchor="start" x="49" y="-48.8" font-family="Arial" font-weight="bold" font-size="14.00">n = 22</text>
<text text-anchor="start" x="67.5" y="-30.8" font-family="Arial" font-size="9.00"> </text>
<path fill="none" stroke="#333333" d="M24,-27C24,-27 114,-27 114,-27 120,-27 126,-33 126,-39 126,-39 126,-79 126,-79 126,-85 120,-91 114,-91 114,-91 24,-91 24,-91 18,-91 12,-85 12,-79 12,-79 12,-39 12,-39 12,-33 18,-27 24,-27"/>
<text text-anchor="start" x="67" y="-12.8" font-family="Arial" font-weight="bold" font-size="14.00"> </text>
</g>
<!-- 4&#45;&gt;5 -->
<g id="edge7" class="edge">
<title>4&#45;&gt;5</title>
<path fill="none" stroke="#888888" d="M162.05,-153.67C152.84,-144.39 143.26,-134.75 133.9,-125.33"/>
<polygon fill="#888888" stroke="#888888" points="136.32,-122.8 126.79,-118.18 131.36,-127.74 136.32,-122.8"/>
</g>
<!-- 6 -->
<g id="node9" class="node">
<title>6</title>
<text text-anchor="start" x="200.5" y="-99.8" font-family="Arial" font-weight="bold" font-size="14.00"> ≥ 61.82</text>
<path fill="#f8766d" fill-opacity="0.847059" stroke="transparent" d="M180,-27C180,-27 270,-27 270,-27 276,-27 282,-33 282,-39 282,-39 282,-79 282,-79 282,-85 276,-91 270,-91 270,-91 180,-91 180,-91 174,-91 168,-85 168,-79 168,-79 168,-39 168,-39 168,-33 174,-27 180,-27"/>
<text text-anchor="start" x="169" y="-88.4" font-family="Arial" font-size="2.00"> </text>
<text text-anchor="start" x="169" y="-82.4" font-family="Arial" font-size="7.00"> &#160;6</text>
<text text-anchor="start" x="183" y="-65.8" font-family="Arial" font-weight="bold" font-size="14.00">Predict 63.32</text>
<text text-anchor="start" x="205" y="-48.8" font-family="Arial" font-weight="bold" font-size="14.00">n = 13</text>
<text text-anchor="start" x="223.5" y="-30.8" font-family="Arial" font-size="9.00"> </text>
<path fill="none" stroke="#333333" d="M180,-27C180,-27 270,-27 270,-27 276,-27 282,-33 282,-39 282,-39 282,-79 282,-79 282,-85 276,-91 270,-91 270,-91 180,-91 180,-91 174,-91 168,-85 168,-79 168,-79 168,-39 168,-39 168,-33 174,-27 180,-27"/>
<text text-anchor="start" x="223" y="-12.8" font-family="Arial" font-weight="bold" font-size="14.00"> </text>
</g>
<!-- 4&#45;&gt;6 -->
<g id="edge8" class="edge">
<title>4&#45;&gt;6</title>
<path fill="none" stroke="#888888" d="M221.92,-153.67C222.19,-145.39 222.47,-136.83 222.75,-128.38"/>
<polygon fill="#888888" stroke="#888888" points="226.26,-128.29 223.09,-118.18 219.26,-128.06 226.26,-128.29"/>
</g>
<!-- 10 -->
<g id="node12" class="node">
<title>10</title>
<text text-anchor="start" x="369.5" y="-99.8" font-family="Arial" font-weight="bold" font-size="14.00"> &lt; 22.5</text>
<path fill="#f8766d" fill-opacity="0.694118" stroke="transparent" d="M346,-27C346,-27 436,-27 436,-27 442,-27 448,-33 448,-39 448,-39 448,-79 448,-79 448,-85 442,-91 436,-91 436,-91 346,-91 346,-91 340,-91 334,-85 334,-79 334,-79 334,-39 334,-39 334,-33 340,-27 346,-27"/>
<text text-anchor="start" x="335" y="-88.4" font-family="Arial" font-size="2.00"> </text>
<text text-anchor="start" x="335" y="-82.4" font-family="Arial" font-size="7.00"> &#160;10</text>
<text text-anchor="start" x="349" y="-65.8" font-family="Arial" font-weight="bold" font-size="14.00">Predict 77.18</text>
<text text-anchor="start" x="375" y="-48.8" font-family="Arial" font-weight="bold" font-size="14.00">n = 3</text>
<text text-anchor="start" x="389.5" y="-30.8" font-family="Arial" font-size="9.00"> </text>
<path fill="none" stroke="#333333" d="M346,-27C346,-27 436,-27 436,-27 442,-27 448,-33 448,-39 448,-39 448,-79 448,-79 448,-85 442,-91 436,-91 436,-91 346,-91 346,-91 340,-91 334,-85 334,-79 334,-79 334,-39 334,-39 334,-33 340,-27 346,-27"/>
<text text-anchor="start" x="389" y="-12.8" font-family="Arial" font-weight="bold" font-size="14.00"> </text>
</g>
<!-- 9&#45;&gt;10 -->
<g id="edge11" class="edge">
<title>9&#45;&gt;10</title>
<path fill="none" stroke="#888888" d="M484.05,-153.67C474.84,-144.39 465.26,-134.75 455.9,-125.33"/>
<polygon fill="#888888" stroke="#888888" points="458.32,-122.8 448.79,-118.18 453.36,-127.74 458.32,-122.8"/>
</g>
<!-- 11 -->
<g id="node13" class="node">
<title>11</title>
<text text-anchor="start" x="526" y="-99.8" font-family="Arial" font-weight="bold" font-size="14.00"> ≥ 22.5</text>
<path fill="#f8766d" fill-opacity="0.729412" stroke="transparent" d="M502,-27C502,-27 592,-27 592,-27 598,-27 604,-33 604,-39 604,-39 604,-79 604,-79 604,-85 598,-91 592,-91 592,-91 502,-91 502,-91 496,-91 490,-85 490,-79 490,-79 490,-39 490,-39 490,-33 496,-27 502,-27"/>
<text text-anchor="start" x="491" y="-88.4" font-family="Arial" font-size="2.00"> </text>
<text text-anchor="start" x="491" y="-82.4" font-family="Arial" font-size="7.00"> &#160;11</text>
<text text-anchor="start" x="505" y="-65.8" font-family="Arial" font-weight="bold" font-size="14.00">Predict 74.08</text>
<text text-anchor="start" x="531" y="-48.8" font-family="Arial" font-weight="bold" font-size="14.00">n = 7</text>
<text text-anchor="start" x="545.5" y="-30.8" font-family="Arial" font-size="9.00"> </text>
<path fill="none" stroke="#333333" d="M502,-27C502,-27 592,-27 592,-27 598,-27 604,-33 604,-39 604,-39 604,-79 604,-79 604,-85 598,-91 592,-91 592,-91 502,-91 502,-91 496,-91 490,-85 490,-79 490,-79 490,-39 490,-39 490,-33 496,-27 502,-27"/>
<text text-anchor="start" x="545" y="-12.8" font-family="Arial" font-weight="bold" font-size="14.00"> </text>
</g>
<!-- 9&#45;&gt;11 -->
<g id="edge12" class="edge">
<title>9&#45;&gt;11</title>
<path fill="none" stroke="#888888" d="M543.92,-153.67C544.19,-145.39 544.47,-136.83 544.75,-128.38"/>
<polygon fill="#888888" stroke="#888888" points="548.26,-128.29 545.09,-118.18 541.26,-128.06 548.26,-128.29"/>
</g>
<!-- 15 -->
<g id="node16" class="node">
<title>15</title>
<text text-anchor="start" x="839" y="-253.8" font-family="Arial" font-weight="bold" font-size="14.00"> &lt; 88.19</text>
<text text-anchor="start" x="792" y="-209.3" font-family="Arial" font-size="14.00"> &#160;&#160;&#160;</text>
<path fill="#ebebeb" stroke="transparent" d="M822,-181C822,-181 906,-181 906,-181 912,-181 918,-187 918,-193 918,-193 918,-233 918,-233 918,-239 912,-245 906,-245 906,-245 822,-245 822,-245 816,-245 810,-239 810,-233 810,-233 810,-193 810,-193 810,-187 816,-181 822,-181"/>
<text text-anchor="start" x="811" y="-242.4" font-family="Arial" font-size="2.00"> </text>
<text text-anchor="start" x="811" y="-236.4" font-family="Arial" font-size="7.00"> &#160;15</text>
<text text-anchor="start" x="825" y="-219.8" font-family="Arial" font-weight="bold" font-size="14.00">Mean: 85.84</text>
<text text-anchor="start" x="844" y="-202.8" font-family="Arial" font-weight="bold" font-size="14.00">n = 32</text>
<text text-anchor="start" x="862.5" y="-184.8" font-family="Arial" font-size="9.00"> </text>
<path fill="none" stroke="#333333" d="M822,-181C822,-181 906,-181 906,-181 912,-181 918,-187 918,-193 918,-193 918,-233 918,-233 918,-239 912,-245 906,-245 906,-245 822,-245 822,-245 816,-245 810,-239 810,-233 810,-233 810,-193 810,-193 810,-187 816,-181 822,-181"/>
<text text-anchor="start" x="920" y="-209.3" font-family="Arial" font-size="14.00"> &#160;&#160;&#160;</text>
<text text-anchor="start" x="806.5" y="-166.8" font-family="Arial" font-weight="bold" font-size="14.00">prev_168h_inflow</text>
</g>
<!-- 14&#45;&gt;15 -->
<g id="edge15" class="edge">
<title>14&#45;&gt;15</title>
<path fill="none" stroke="#888888" d="M921.93,-307.67C916.47,-298.85 910.81,-289.69 905.26,-280.71"/>
<polygon fill="#888888" stroke="#888888" points="908.21,-278.84 899.98,-272.18 902.26,-282.52 908.21,-278.84"/>
</g>
<!-- 18 -->
<g id="node17" class="node">
<title>18</title>
<text text-anchor="start" x="1021.5" y="-253.8" font-family="Arial" font-weight="bold" font-size="14.00"> ≥ 88.19</text>
<text text-anchor="start" x="974" y="-209.3" font-family="Arial" font-size="14.00"> &#160;&#160;&#160;</text>
<path fill="#ebebeb" stroke="transparent" d="M1004,-181C1004,-181 1088,-181 1088,-181 1094,-181 1100,-187 1100,-193 1100,-193 1100,-233 1100,-233 1100,-239 1094,-245 1088,-245 1088,-245 1004,-245 1004,-245 998,-245 992,-239 992,-233 992,-233 992,-193 992,-193 992,-187 998,-181 1004,-181"/>
<text text-anchor="start" x="993" y="-242.4" font-family="Arial" font-size="2.00"> </text>
<text text-anchor="start" x="993" y="-236.4" font-family="Arial" font-size="7.00"> &#160;18</text>
<text text-anchor="start" x="1007" y="-219.8" font-family="Arial" font-weight="bold" font-size="14.00">Mean: 91.27</text>
<text text-anchor="start" x="1026" y="-202.8" font-family="Arial" font-weight="bold" font-size="14.00">n = 40</text>
<text text-anchor="start" x="1044.5" y="-184.8" font-family="Arial" font-size="9.00"> </text>
<path fill="none" stroke="#333333" d="M1004,-181C1004,-181 1088,-181 1088,-181 1094,-181 1100,-187 1100,-193 1100,-193 1100,-233 1100,-233 1100,-239 1094,-245 1088,-245 1088,-245 1004,-245 1004,-245 998,-245 992,-239 992,-233 992,-233 992,-193 992,-193 992,-187 998,-181 1004,-181"/>
<text text-anchor="start" x="1102" y="-209.3" font-family="Arial" font-size="14.00"> &#160;&#160;&#160;</text>
<text text-anchor="start" x="988.5" y="-166.8" font-family="Arial" font-weight="bold" font-size="14.00">prev_168h_inflow</text>
</g>
<!-- 14&#45;&gt;18 -->
<g id="edge16" class="edge">
<title>14&#45;&gt;18</title>
<path fill="none" stroke="#888888" d="M991.77,-307.67C996.82,-298.94 1002.07,-289.88 1007.21,-280.99"/>
<polygon fill="#888888" stroke="#888888" points="1010.34,-282.58 1012.32,-272.18 1004.28,-279.08 1010.34,-282.58"/>
</g>
<!-- 22 -->
<g id="node22" class="node">
<title>22</title>
<text text-anchor="start" x="1310.5" y="-253.8" font-family="Arial" font-weight="bold" font-size="14.00"> &lt; 12.5</text>
<text text-anchor="start" x="1260" y="-209.3" font-family="Arial" font-size="14.00"> &#160;&#160;&#160;</text>
<path fill="#ebebeb" stroke="transparent" d="M1290,-181C1290,-181 1374,-181 1374,-181 1380,-181 1386,-187 1386,-193 1386,-193 1386,-233 1386,-233 1386,-239 1380,-245 1374,-245 1374,-245 1290,-245 1290,-245 1284,-245 1278,-239 1278,-233 1278,-233 1278,-193 1278,-193 1278,-187 1284,-181 1290,-181"/>
<text text-anchor="start" x="1279" y="-242.4" font-family="Arial" font-size="2.00"> </text>
<text text-anchor="start" x="1279" y="-236.4" font-family="Arial" font-size="7.00"> &#160;22</text>
<text text-anchor="start" x="1293" y="-219.8" font-family="Arial" font-weight="bold" font-size="14.00">Mean: 103.2</text>
<text text-anchor="start" x="1312" y="-202.8" font-family="Arial" font-weight="bold" font-size="14.00">n = 23</text>
<text text-anchor="start" x="1330.5" y="-184.8" font-family="Arial" font-size="9.00"> </text>
<path fill="none" stroke="#333333" d="M1290,-181C1290,-181 1374,-181 1374,-181 1380,-181 1386,-187 1386,-193 1386,-193 1386,-233 1386,-233 1386,-239 1380,-245 1374,-245 1374,-245 1290,-245 1290,-245 1284,-245 1278,-239 1278,-233 1278,-233 1278,-193 1278,-193 1278,-187 1284,-181 1290,-181"/>
<text text-anchor="start" x="1388" y="-209.3" font-family="Arial" font-size="14.00"> &#160;&#160;&#160;</text>
<text text-anchor="start" x="1274.5" y="-166.8" font-family="Arial" font-weight="bold" font-size="14.00">prev_168h_inflow</text>
</g>
<!-- 21&#45;&gt;22 -->
<g id="edge21" class="edge">
<title>21&#45;&gt;22</title>
<path fill="none" stroke="#888888" d="M1332,-307.67C1332,-299.39 1332,-290.83 1332,-282.38"/>
<polygon fill="#888888" stroke="#888888" points="1335.5,-282.18 1332,-272.18 1328.5,-282.18 1335.5,-282.18"/>
</g>
<!-- 25 -->
<g id="node23" class="node">
<title>25</title>
<text text-anchor="start" x="1480" y="-253.8" font-family="Arial" font-weight="bold" font-size="14.00"> ≥ 12.5</text>
<path fill="#f8766d" fill-opacity="0.486275" stroke="transparent" d="M1456,-181C1456,-181 1546,-181 1546,-181 1552,-181 1558,-187 1558,-193 1558,-193 1558,-233 1558,-233 1558,-239 1552,-245 1546,-245 1546,-245 1456,-245 1456,-245 1450,-245 1444,-239 1444,-233 1444,-233 1444,-193 1444,-193 1444,-187 1450,-181 1456,-181"/>
<text text-anchor="start" x="1445" y="-242.4" font-family="Arial" font-size="2.00"> </text>
<text text-anchor="start" x="1445" y="-236.4" font-family="Arial" font-size="7.00"> &#160;25</text>
<text text-anchor="start" x="1459" y="-219.8" font-family="Arial" font-weight="bold" font-size="14.00">Predict 95.71</text>
<text text-anchor="start" x="1485" y="-202.8" font-family="Arial" font-weight="bold" font-size="14.00">n = 8</text>
<text text-anchor="start" x="1499.5" y="-184.8" font-family="Arial" font-size="9.00"> </text>
<path fill="none" stroke="#333333" d="M1456,-181C1456,-181 1546,-181 1546,-181 1552,-181 1558,-187 1558,-193 1558,-193 1558,-233 1558,-233 1558,-239 1552,-245 1546,-245 1546,-245 1456,-245 1456,-245 1450,-245 1444,-239 1444,-233 1444,-233 1444,-193 1444,-193 1444,-187 1450,-181 1456,-181"/>
<text text-anchor="start" x="1499" y="-166.8" font-family="Arial" font-weight="bold" font-size="14.00"> </text>
</g>
<!-- 21&#45;&gt;25 -->
<g id="edge22" class="edge">
<title>21&#45;&gt;25</title>
<path fill="none" stroke="#888888" d="M1396.86,-307.67C1407.27,-298.3 1418.1,-288.56 1428.67,-279.05"/>
<polygon fill="#888888" stroke="#888888" points="1431.22,-281.47 1436.32,-272.18 1426.54,-276.26 1431.22,-281.47"/>
</g>
<!-- 16 -->
<g id="node18" class="node">
<title>16</title>
<text text-anchor="start" x="683" y="-99.8" font-family="Arial" font-weight="bold" font-size="14.00"> &lt; 85.98</text>
<path fill="#f8766d" fill-opacity="0.607843" stroke="transparent" d="M663,-27C663,-27 753,-27 753,-27 759,-27 765,-33 765,-39 765,-39 765,-79 765,-79 765,-85 759,-91 753,-91 753,-91 663,-91 663,-91 657,-91 651,-85 651,-79 651,-79 651,-39 651,-39 651,-33 657,-27 663,-27"/>
<text text-anchor="start" x="652" y="-88.4" font-family="Arial" font-size="2.00"> </text>
<text text-anchor="start" x="652" y="-82.4" font-family="Arial" font-size="7.00"> &#160;16</text>
<text text-anchor="start" x="666" y="-65.8" font-family="Arial" font-weight="bold" font-size="14.00">Predict 84.74</text>
<text text-anchor="start" x="688" y="-48.8" font-family="Arial" font-weight="bold" font-size="14.00">n = 20</text>
<text text-anchor="start" x="706.5" y="-30.8" font-family="Arial" font-size="9.00"> </text>
<path fill="none" stroke="#333333" d="M663,-27C663,-27 753,-27 753,-27 759,-27 765,-33 765,-39 765,-39 765,-79 765,-79 765,-85 759,-91 753,-91 753,-91 663,-91 663,-91 657,-91 651,-85 651,-79 651,-79 651,-39 651,-39 651,-33 657,-27 663,-27"/>
<text text-anchor="start" x="706" y="-12.8" font-family="Arial" font-weight="bold" font-size="14.00"> </text>
</g>
<!-- 15&#45;&gt;16 -->
<g id="edge17" class="edge">
<title>15&#45;&gt;16</title>
<path fill="none" stroke="#888888" d="M804.13,-153.67C794.62,-144.39 784.72,-134.75 775.05,-125.33"/>
<polygon fill="#888888" stroke="#888888" points="777.31,-122.65 767.71,-118.18 772.43,-127.66 777.31,-122.65"/>
</g>
<!-- 17 -->
<g id="node19" class="node">
<title>17</title>
<text text-anchor="start" x="839.5" y="-99.8" font-family="Arial" font-weight="bold" font-size="14.00"> ≥ 85.98</text>
<path fill="#f8766d" fill-opacity="0.576471" stroke="transparent" d="M819,-27C819,-27 909,-27 909,-27 915,-27 921,-33 921,-39 921,-39 921,-79 921,-79 921,-85 915,-91 909,-91 909,-91 819,-91 819,-91 813,-91 807,-85 807,-79 807,-79 807,-39 807,-39 807,-33 813,-27 819,-27"/>
<text text-anchor="start" x="808" y="-88.4" font-family="Arial" font-size="2.00"> </text>
<text text-anchor="start" x="808" y="-82.4" font-family="Arial" font-size="7.00"> &#160;17</text>
<text text-anchor="start" x="822" y="-65.8" font-family="Arial" font-weight="bold" font-size="14.00">Predict 87.68</text>
<text text-anchor="start" x="844" y="-48.8" font-family="Arial" font-weight="bold" font-size="14.00">n = 12</text>
<text text-anchor="start" x="862.5" y="-30.8" font-family="Arial" font-size="9.00"> </text>
<path fill="none" stroke="#333333" d="M819,-27C819,-27 909,-27 909,-27 915,-27 921,-33 921,-39 921,-39 921,-79 921,-79 921,-85 915,-91 909,-91 909,-91 819,-91 819,-91 813,-91 807,-85 807,-79 807,-79 807,-39 807,-39 807,-33 813,-27 819,-27"/>
<text text-anchor="start" x="862" y="-12.8" font-family="Arial" font-weight="bold" font-size="14.00"> </text>
</g>
<!-- 15&#45;&gt;17 -->
<g id="edge18" class="edge">
<title>15&#45;&gt;17</title>
<path fill="none" stroke="#888888" d="M864,-153.67C864,-145.39 864,-136.83 864,-128.38"/>
<polygon fill="#888888" stroke="#888888" points="867.5,-128.18 864,-118.18 860.5,-128.18 867.5,-128.18"/>
</g>
<!-- 19 -->
<g id="node20" class="node">
<title>19</title>
<text text-anchor="start" x="995" y="-99.8" font-family="Arial" font-weight="bold" font-size="14.00"> &lt; 91.45</text>
<path fill="#f8766d" fill-opacity="0.549020" stroke="transparent" d="M975,-27C975,-27 1065,-27 1065,-27 1071,-27 1077,-33 1077,-39 1077,-39 1077,-79 1077,-79 1077,-85 1071,-91 1065,-91 1065,-91 975,-91 975,-91 969,-91 963,-85 963,-79 963,-79 963,-39 963,-39 963,-33 969,-27 975,-27"/>
<text text-anchor="start" x="964" y="-88.4" font-family="Arial" font-size="2.00"> </text>
<text text-anchor="start" x="964" y="-82.4" font-family="Arial" font-size="7.00"> &#160;19</text>
<text text-anchor="start" x="978" y="-65.8" font-family="Arial" font-weight="bold" font-size="14.00">Predict 90.21</text>
<text text-anchor="start" x="1000" y="-48.8" font-family="Arial" font-weight="bold" font-size="14.00">n = 27</text>
<text text-anchor="start" x="1018.5" y="-30.8" font-family="Arial" font-size="9.00"> </text>
<path fill="none" stroke="#333333" d="M975,-27C975,-27 1065,-27 1065,-27 1071,-27 1077,-33 1077,-39 1077,-39 1077,-79 1077,-79 1077,-85 1071,-91 1065,-91 1065,-91 975,-91 975,-91 969,-91 963,-85 963,-79 963,-79 963,-39 963,-39 963,-33 969,-27 975,-27"/>
<text text-anchor="start" x="1018" y="-12.8" font-family="Arial" font-weight="bold" font-size="14.00"> </text>
</g>
<!-- 18&#45;&gt;19 -->
<g id="edge19" class="edge">
<title>18&#45;&gt;19</title>
<path fill="none" stroke="#888888" d="M1036.02,-153.67C1034.59,-145.3 1033.11,-136.64 1031.65,-128.1"/>
<polygon fill="#888888" stroke="#888888" points="1035.09,-127.44 1029.95,-118.18 1028.19,-128.62 1035.09,-127.44"/>
</g>
<!-- 20 -->
<g id="node21" class="node">
<title>20</title>
<text text-anchor="start" x="1151.5" y="-99.8" font-family="Arial" font-weight="bold" font-size="14.00"> ≥ 91.45</text>
<path fill="#f8766d" fill-opacity="0.509804" stroke="transparent" d="M1131,-27C1131,-27 1221,-27 1221,-27 1227,-27 1233,-33 1233,-39 1233,-39 1233,-79 1233,-79 1233,-85 1227,-91 1221,-91 1221,-91 1131,-91 1131,-91 1125,-91 1119,-85 1119,-79 1119,-79 1119,-39 1119,-39 1119,-33 1125,-27 1131,-27"/>
<text text-anchor="start" x="1120" y="-88.4" font-family="Arial" font-size="2.00"> </text>
<text text-anchor="start" x="1120" y="-82.4" font-family="Arial" font-size="7.00"> &#160;20</text>
<text text-anchor="start" x="1134" y="-65.8" font-family="Arial" font-weight="bold" font-size="14.00">Predict 93.47</text>
<text text-anchor="start" x="1156" y="-48.8" font-family="Arial" font-weight="bold" font-size="14.00">n = 13</text>
<text text-anchor="start" x="1174.5" y="-30.8" font-family="Arial" font-size="9.00"> </text>
<path fill="none" stroke="#333333" d="M1131,-27C1131,-27 1221,-27 1221,-27 1227,-27 1233,-33 1233,-39 1233,-39 1233,-79 1233,-79 1233,-85 1227,-91 1221,-91 1221,-91 1131,-91 1131,-91 1125,-91 1119,-85 1119,-79 1119,-79 1119,-39 1119,-39 1119,-33 1125,-27 1131,-27"/>
<text text-anchor="start" x="1174" y="-12.8" font-family="Arial" font-weight="bold" font-size="14.00"> </text>
</g>
<!-- 18&#45;&gt;20 -->
<g id="edge20" class="edge">
<title>18&#45;&gt;20</title>
<path fill="none" stroke="#888888" d="M1095.89,-153.67C1103.67,-144.58 1111.75,-135.13 1119.65,-125.88"/>
<polygon fill="#888888" stroke="#888888" points="1122.4,-128.05 1126.24,-118.18 1117.08,-123.5 1122.4,-128.05"/>
</g>
<!-- 23 -->
<g id="node24" class="node">
<title>23</title>
<text text-anchor="start" x="1312.5" y="-99.8" font-family="Arial" font-weight="bold" font-size="14.00"> &lt; 102</text>
<path fill="#f8766d" fill-opacity="0.443137" stroke="transparent" d="M1287,-27C1287,-27 1377,-27 1377,-27 1383,-27 1389,-33 1389,-39 1389,-39 1389,-79 1389,-79 1389,-85 1383,-91 1377,-91 1377,-91 1287,-91 1287,-91 1281,-91 1275,-85 1275,-79 1275,-79 1275,-39 1275,-39 1275,-33 1281,-27 1287,-27"/>
<text text-anchor="start" x="1276" y="-88.4" font-family="Arial" font-size="2.00"> </text>
<text text-anchor="start" x="1276" y="-82.4" font-family="Arial" font-size="7.00"> &#160;23</text>
<text text-anchor="start" x="1290" y="-65.8" font-family="Arial" font-weight="bold" font-size="14.00">Predict 99.38</text>
<text text-anchor="start" x="1316" y="-48.8" font-family="Arial" font-weight="bold" font-size="14.00">n = 9</text>
<text text-anchor="start" x="1330.5" y="-30.8" font-family="Arial" font-size="9.00"> </text>
<path fill="none" stroke="#333333" d="M1287,-27C1287,-27 1377,-27 1377,-27 1383,-27 1389,-33 1389,-39 1389,-39 1389,-79 1389,-79 1389,-85 1383,-91 1377,-91 1377,-91 1287,-91 1287,-91 1281,-91 1275,-85 1275,-79 1275,-79 1275,-39 1275,-39 1275,-33 1281,-27 1287,-27"/>
<text text-anchor="start" x="1330" y="-12.8" font-family="Arial" font-weight="bold" font-size="14.00"> </text>
</g>
<!-- 22&#45;&gt;23 -->
<g id="edge23" class="edge">
<title>22&#45;&gt;23</title>
<path fill="none" stroke="#888888" d="M1332,-153.67C1332,-145.39 1332,-136.83 1332,-128.38"/>
<polygon fill="#888888" stroke="#888888" points="1335.5,-128.18 1332,-118.18 1328.5,-128.18 1335.5,-128.18"/>
</g>
<!-- 24 -->
<g id="node25" class="node">
<title>24</title>
<text text-anchor="start" x="1469" y="-99.8" font-family="Arial" font-weight="bold" font-size="14.00"> ≥ 102</text>
<path fill="#f8766d" fill-opacity="0.376471" stroke="transparent" d="M1443,-27C1443,-27 1533,-27 1533,-27 1539,-27 1545,-33 1545,-39 1545,-39 1545,-79 1545,-79 1545,-85 1539,-91 1533,-91 1533,-91 1443,-91 1443,-91 1437,-91 1431,-85 1431,-79 1431,-79 1431,-39 1431,-39 1431,-33 1437,-27 1443,-27"/>
<text text-anchor="start" x="1432" y="-88.4" font-family="Arial" font-size="2.00"> </text>
<text text-anchor="start" x="1432" y="-82.4" font-family="Arial" font-size="7.00"> &#160;24</text>
<text text-anchor="start" x="1446" y="-65.8" font-family="Arial" font-weight="bold" font-size="14.00">Predict 105.6</text>
<text text-anchor="start" x="1468" y="-48.8" font-family="Arial" font-weight="bold" font-size="14.00">n = 14</text>
<text text-anchor="start" x="1486.5" y="-30.8" font-family="Arial" font-size="9.00"> </text>
<path fill="none" stroke="#333333" d="M1443,-27C1443,-27 1533,-27 1533,-27 1539,-27 1545,-33 1545,-39 1545,-39 1545,-79 1545,-79 1545,-85 1539,-91 1533,-91 1533,-91 1443,-91 1443,-91 1437,-91 1431,-85 1431,-79 1431,-79 1431,-39 1431,-39 1431,-33 1437,-27 1443,-27"/>
<text text-anchor="start" x="1486" y="-12.8" font-family="Arial" font-weight="bold" font-size="14.00"> </text>
</g>
<!-- 22&#45;&gt;24 -->
<g id="edge24" class="edge">
<title>22&#45;&gt;24</title>
<path fill="none" stroke="#888888" d="M1391.87,-153.67C1401.38,-144.39 1411.28,-134.75 1420.95,-125.33"/>
<polygon fill="#888888" stroke="#888888" points="1423.57,-127.66 1428.29,-118.18 1418.69,-122.65 1423.57,-127.66"/>
</g>
</g>
</svg>
