<?xml version="1.0" encoding="UTF-8" standalone="no"?>
<!DOCTYPE svg PUBLIC "-//W3C//DTD SVG 1.1//EN"
 "http://www.w3.org/Graphics/SVG/1.1/DTD/svg11.dtd">
<!-- Generated by graphviz version 2.50.0 (20211204.2007)
 -->
<!-- Pages: 1 -->
<svg width="1875pt" height="742pt"
 viewBox="0.00 0.00 1875.00 742.00" xmlns="http://www.w3.org/2000/svg" xmlns:xlink="http://www.w3.org/1999/xlink">
<g id="graph0" class="graph" transform="scale(1 1) rotate(0) translate(4 738)">
<polygon fill="white" stroke="transparent" points="-4,4 -4,-738 1871,-738 1871,4 -4,4"/>
<!-- 1 -->
<g id="node1" class="node">
<title>1</title>
<text text-anchor="start" x="970" y="-715.8" font-family="Arial" font-weight="bold" font-size="14.00"> </text>
<text text-anchor="start" x="900" y="-671.3" font-family="Arial" font-size="14.00"> &#160;&#160;&#160;</text>
<path fill="#ebebeb" stroke="transparent" d="M930,-643C930,-643 1014,-643 1014,-643 1020,-643 1026,-649 1026,-655 1026,-655 1026,-695 1026,-695 1026,-701 1020,-707 1014,-707 1014,-707 930,-707 930,-707 924,-707 918,-701 918,-695 918,-695 918,-655 918,-655 918,-649 924,-643 930,-643"/>
<text text-anchor="start" x="919" y="-704.4" font-family="Arial" font-size="2.00"> </text>
<text text-anchor="start" x="919" y="-698.4" font-family="Arial" font-size="7.00"> &#160;1</text>
<text text-anchor="start" x="933" y="-681.8" font-family="Arial" font-weight="bold" font-size="14.00">Mean: 82.97</text>
<text text-anchor="start" x="948.5" y="-664.8" font-family="Arial" font-weight="bold" font-size="14.00">n = 168</text>
<text text-anchor="start" x="970.5" y="-646.8" font-family="Arial" font-size="9.00"> </text>
<path fill="none" stroke="#333333" d="M930,-643C930,-643 1014,-643 1014,-643 1020,-643 1026,-649 1026,-655 1026,-655 1026,-695 1026,-695 1026,-701 1020,-707 1014,-707 1014,-707 930,-707 930,-707 924,-707 918,-701 918,-695 918,-695 918,-655 918,-655 918,-649 924,-643 930,-643"/>
<text text-anchor="start" x="1028" y="-671.3" font-family="Arial" font-size="14.00"> &#160;&#160;&#160;</text>
<text text-anchor="start" x="914.5" y="-628.8" font-family="Arial" font-weight="bold" font-size="14.00">prev_168h_inflow</text>
</g>
<!-- 2 -->
<g id="node2" class="node">
<title>2</title>
<text text-anchor="start" x="603" y="-561.8" font-family="Arial" font-weight="bold" font-size="14.00"> &lt; 82.33</text>
<text text-anchor="start" x="556" y="-517.3" font-family="Arial" font-size="14.00"> &#160;&#160;&#160;</text>
<path fill="#ebebeb" stroke="transparent" d="M586,-489C586,-489 670,-489 670,-489 676,-489 682,-495 682,-501 682,-501 682,-541 682,-541 682,-547 676,-553 670,-553 670,-553 586,-553 586,-553 580,-553 574,-547 574,-541 574,-541 574,-501 574,-501 574,-495 580,-489 586,-489"/>
<text text-anchor="start" x="575" y="-550.4" font-family="Arial" font-size="2.00"> </text>
<text text-anchor="start" x="575" y="-544.4" font-family="Arial" font-size="7.00"> &#160;2</text>
<text text-anchor="start" x="589" y="-527.8" font-family="Arial" font-weight="bold" font-size="14.00">Mean: 67.73</text>
<text text-anchor="start" x="608" y="-510.8" font-family="Arial" font-weight="bold" font-size="14.00">n = 65</text>
<text text-anchor="start" x="626.5" y="-492.8" font-family="Arial" font-size="9.00"> </text>
<path fill="none" stroke="#333333" d="M586,-489C586,-489 670,-489 670,-489 676,-489 682,-495 682,-501 682,-501 682,-541 682,-541 682,-547 676,-553 670,-553 670,-553 586,-553 586,-553 580,-553 574,-547 574,-541 574,-541 574,-501 574,-501 574,-495 580,-489 586,-489"/>
<text text-anchor="start" x="684" y="-517.3" font-family="Arial" font-size="14.00"> &#160;&#160;&#160;</text>
<text text-anchor="start" x="570.5" y="-474.8" font-family="Arial" font-weight="bold" font-size="14.00">prev_168h_inflow</text>
</g>
<!-- 1&#45;&gt;2 -->
<g id="edge1" class="edge">
<title>1&#45;&gt;2</title>
<path fill="none" stroke="#888888" d="M889.6,-637.59C838.32,-614.93 772.29,-585.76 719.4,-562.39"/>
<polygon fill="#888888" stroke="#888888" points="720.58,-559.08 710.02,-558.24 717.75,-565.49 720.58,-559.08"/>
</g>
<!-- 15 -->
<g id="node3" class="node">
<title>15</title>
<text text-anchor="start" x="1227.5" y="-561.8" font-family="Arial" font-weight="bold" font-size="14.00"> ≥ 82.33</text>
<text text-anchor="start" x="1180" y="-517.3" font-family="Arial" font-size="14.00"> &#160;&#160;&#160;</text>
<path fill="#ebebeb" stroke="transparent" d="M1210,-489C1210,-489 1294,-489 1294,-489 1300,-489 1306,-495 1306,-501 1306,-501 1306,-541 1306,-541 1306,-547 1300,-553 1294,-553 1294,-553 1210,-553 1210,-553 1204,-553 1198,-547 1198,-541 1198,-541 1198,-501 1198,-501 1198,-495 1204,-489 1210,-489"/>
<text text-anchor="start" x="1199" y="-550.4" font-family="Arial" font-size="2.00"> </text>
<text text-anchor="start" x="1199" y="-544.4" font-family="Arial" font-size="7.00"> &#160;15</text>
<text text-anchor="start" x="1213" y="-527.8" font-family="Arial" font-weight="bold" font-size="14.00">Mean: 92.58</text>
<text text-anchor="start" x="1228.5" y="-510.8" font-family="Arial" font-weight="bold" font-size="14.00">n = 103</text>
<text text-anchor="start" x="1250.5" y="-492.8" font-family="Arial" font-size="9.00"> </text>
<path fill="none" stroke="#333333" d="M1210,-489C1210,-489 1294,-489 1294,-489 1300,-489 1306,-495 1306,-501 1306,-501 1306,-541 1306,-541 1306,-547 1300,-553 1294,-553 1294,-553 1210,-553 1210,-553 1204,-553 1198,-547 1198,-541 1198,-541 1198,-501 1198,-501 1198,-495 1204,-489 1210,-489"/>
<text text-anchor="start" x="1308" y="-517.3" font-family="Arial" font-size="14.00"> &#160;&#160;&#160;</text>
<text text-anchor="start" x="1194.5" y="-474.8" font-family="Arial" font-weight="bold" font-size="14.00">prev_168h_inflow</text>
</g>
<!-- 1&#45;&gt;15 -->
<g id="edge2" class="edge">
<title>1&#45;&gt;15</title>
<path fill="none" stroke="#888888" d="M1054.12,-629.42C1087.59,-611.25 1126.43,-590.17 1160.79,-571.52"/>
<polygon fill="#888888" stroke="#888888" points="1162.77,-574.42 1169.88,-566.58 1159.43,-568.27 1162.77,-574.42"/>
</g>
<!-- 3 -->
<g id="node4" class="node">
<title>3</title>
<text text-anchor="start" x="213" y="-407.8" font-family="Arial" font-weight="bold" font-size="14.00"> &lt; 67.53</text>
<text text-anchor="start" x="166" y="-363.3" font-family="Arial" font-size="14.00"> &#160;&#160;&#160;</text>
<path fill="#ebebeb" stroke="transparent" d="M196,-335C196,-335 280,-335 280,-335 286,-335 292,-341 292,-347 292,-347 292,-387 292,-387 292,-393 286,-399 280,-399 280,-399 196,-399 196,-399 190,-399 184,-393 184,-387 184,-387 184,-347 184,-347 184,-341 190,-335 196,-335"/>
<text text-anchor="start" x="185" y="-396.4" font-family="Arial" font-size="2.00"> </text>
<text text-anchor="start" x="185" y="-390.4" font-family="Arial" font-size="7.00"> &#160;3</text>
<text text-anchor="start" x="199" y="-373.8" font-family="Arial" font-weight="bold" font-size="14.00">Mean: 62.51</text>
<text text-anchor="start" x="218" y="-356.8" font-family="Arial" font-weight="bold" font-size="14.00">n = 41</text>
<text text-anchor="start" x="236.5" y="-338.8" font-family="Arial" font-size="9.00"> </text>
<path fill="none" stroke="#333333" d="M196,-335C196,-335 280,-335 280,-335 286,-335 292,-341 292,-347 292,-347 292,-387 292,-387 292,-393 286,-399 280,-399 280,-399 196,-399 196,-399 190,-399 184,-393 184,-387 184,-387 184,-347 184,-347 184,-341 190,-335 196,-335"/>
<text text-anchor="start" x="294" y="-363.3" font-family="Arial" font-size="14.00"> &#160;&#160;&#160;</text>
<text text-anchor="start" x="180.5" y="-320.8" font-family="Arial" font-weight="bold" font-size="14.00">prev_168h_inflow</text>
</g>
<!-- 2&#45;&gt;3 -->
<g id="edge3" class="edge">
<title>2&#45;&gt;3</title>
<path fill="none" stroke="#888888" d="M545.77,-487.95C482.51,-463.29 395.12,-429.24 329.62,-403.71"/>
<polygon fill="#888888" stroke="#888888" points="330.71,-400.38 320.12,-400.01 328.17,-406.9 330.71,-400.38"/>
</g>
<!-- 8 -->
<g id="node5" class="node">
<title>8</title>
<text text-anchor="start" x="603.5" y="-407.8" font-family="Arial" font-weight="bold" font-size="14.00"> ≥ 67.53</text>
<text text-anchor="start" x="556" y="-363.3" font-family="Arial" font-size="14.00"> &#160;&#160;&#160;</text>
<path fill="#ebebeb" stroke="transparent" d="M586,-335C586,-335 670,-335 670,-335 676,-335 682,-341 682,-347 682,-347 682,-387 682,-387 682,-393 676,-399 670,-399 670,-399 586,-399 586,-399 580,-399 574,-393 574,-387 574,-387 574,-347 574,-347 574,-341 580,-335 586,-335"/>
<text text-anchor="start" x="575" y="-396.4" font-family="Arial" font-size="2.00"> </text>
<text text-anchor="start" x="575" y="-390.4" font-family="Arial" font-size="7.00"> &#160;8</text>
<text text-anchor="start" x="589" y="-373.8" font-family="Arial" font-weight="bold" font-size="14.00">Mean: 76.67</text>
<text text-anchor="start" x="608" y="-356.8" font-family="Arial" font-weight="bold" font-size="14.00">n = 24</text>
<text text-anchor="start" x="626.5" y="-338.8" font-family="Arial" font-size="9.00"> </text>
<path fill="none" stroke="#333333" d="M586,-335C586,-335 670,-335 670,-335 676,-335 682,-341 682,-347 682,-347 682,-387 682,-387 682,-393 676,-399 670,-399 670,-399 586,-399 586,-399 580,-399 574,-393 574,-387 574,-387 574,-347 574,-347 574,-341 580,-335 586,-335"/>
<text text-anchor="start" x="684" y="-363.3" font-family="Arial" font-size="14.00"> &#160;&#160;&#160;</text>
<text text-anchor="start" x="570.5" y="-320.8" font-family="Arial" font-weight="bold" font-size="14.00">prev_168h_inflow</text>
</g>
<!-- 2&#45;&gt;8 -->
<g id="edge4" class="edge">
<title>2&#45;&gt;8</title>
<path fill="none" stroke="#888888" d="M628,-461.67C628,-453.39 628,-444.83 628,-436.38"/>
<polygon fill="#888888" stroke="#888888" points="631.5,-436.18 628,-426.18 624.5,-436.18 631.5,-436.18"/>
</g>
<!-- 16 -->
<g id="node16" class="node">
<title>16</title>
<text text-anchor="start" x="1227" y="-407.8" font-family="Arial" font-weight="bold" font-size="14.00"> &lt; 94.66</text>
<text text-anchor="start" x="1180" y="-363.3" font-family="Arial" font-size="14.00"> &#160;&#160;&#160;</text>
<path fill="#ebebeb" stroke="transparent" d="M1210,-335C1210,-335 1294,-335 1294,-335 1300,-335 1306,-341 1306,-347 1306,-347 1306,-387 1306,-387 1306,-393 1300,-399 1294,-399 1294,-399 1210,-399 1210,-399 1204,-399 1198,-393 1198,-387 1198,-387 1198,-347 1198,-347 1198,-341 1204,-335 1210,-335"/>
<text text-anchor="start" x="1199" y="-396.4" font-family="Arial" font-size="2.00"> </text>
<text text-anchor="start" x="1199" y="-390.4" font-family="Arial" font-size="7.00"> &#160;16</text>
<text text-anchor="start" x="1213" y="-373.8" font-family="Arial" font-weight="bold" font-size="14.00">Mean: 88.86</text>
<text text-anchor="start" x="1232" y="-356.8" font-family="Arial" font-weight="bold" font-size="14.00">n = 72</text>
<text text-anchor="start" x="1250.5" y="-338.8" font-family="Arial" font-size="9.00"> </text>
<path fill="none" stroke="#333333" d="M1210,-335C1210,-335 1294,-335 1294,-335 1300,-335 1306,-341 1306,-347 1306,-347 1306,-387 1306,-387 1306,-393 1300,-399 1294,-399 1294,-399 1210,-399 1210,-399 1204,-399 1198,-393 1198,-387 1198,-387 1198,-347 1198,-347 1198,-341 1204,-335 1210,-335"/>
<text text-anchor="start" x="1308" y="-363.3" font-family="Arial" font-size="14.00"> &#160;&#160;&#160;</text>
<text text-anchor="start" x="1194.5" y="-320.8" font-family="Arial" font-weight="bold" font-size="14.00">prev_168h_inflow</text>
</g>
<!-- 15&#45;&gt;16 -->
<g id="edge15" class="edge">
<title>15&#45;&gt;16</title>
<path fill="none" stroke="#888888" d="M1252,-461.67C1252,-453.39 1252,-444.83 1252,-436.38"/>
<polygon fill="#888888" stroke="#888888" points="1255.5,-436.18 1252,-426.18 1248.5,-436.18 1255.5,-436.18"/>
</g>
<!-- 23 -->
<g id="node17" class="node">
<title>23</title>
<text text-anchor="start" x="1617.5" y="-407.8" font-family="Arial" font-weight="bold" font-size="14.00"> ≥ 94.66</text>
<text text-anchor="start" x="1570" y="-363.3" font-family="Arial" font-size="14.00"> &#160;&#160;&#160;</text>
<path fill="#ebebeb" stroke="transparent" d="M1600,-335C1600,-335 1684,-335 1684,-335 1690,-335 1696,-341 1696,-347 1696,-347 1696,-387 1696,-387 1696,-393 1690,-399 1684,-399 1684,-399 1600,-399 1600,-399 1594,-399 1588,-393 1588,-387 1588,-387 1588,-347 1588,-347 1588,-341 1594,-335 1600,-335"/>
<text text-anchor="start" x="1589" y="-396.4" font-family="Arial" font-size="2.00"> </text>
<text text-anchor="start" x="1589" y="-390.4" font-family="Arial" font-size="7.00"> &#160;23</text>
<text text-anchor="start" x="1603" y="-373.8" font-family="Arial" font-weight="bold" font-size="14.00">Mean: 101.2</text>
<text text-anchor="start" x="1622" y="-356.8" font-family="Arial" font-weight="bold" font-size="14.00">n = 31</text>
<text text-anchor="start" x="1640.5" y="-338.8" font-family="Arial" font-size="9.00"> </text>
<path fill="none" stroke="#333333" d="M1600,-335C1600,-335 1684,-335 1684,-335 1690,-335 1696,-341 1696,-347 1696,-347 1696,-387 1696,-387 1696,-393 1690,-399 1684,-399 1684,-399 1600,-399 1600,-399 1594,-399 1588,-393 1588,-387 1588,-387 1588,-347 1588,-347 1588,-341 1594,-335 1600,-335"/>
<text text-anchor="start" x="1698" y="-363.3" font-family="Arial" font-size="14.00"> &#160;&#160;&#160;</text>
<text text-anchor="start" x="1584.5" y="-320.8" font-family="Arial" font-weight="bold" font-size="14.00">prev_168h_inflow</text>
</g>
<!-- 15&#45;&gt;23 -->
<g id="edge16" class="edge">
<title>15&#45;&gt;23</title>
<path fill="none" stroke="#888888" d="M1334.23,-487.95C1397.49,-463.29 1484.88,-429.24 1550.38,-403.71"/>
<polygon fill="#888888" stroke="#888888" points="1551.83,-406.9 1559.88,-400.01 1549.29,-400.38 1551.83,-406.9"/>
</g>
<!-- 4 -->
<g id="node6" class="node">
<title>4</title>
<text text-anchor="start" x="44" y="-253.8" font-family="Arial" font-weight="bold" font-size="14.00"> &lt; 61.82</text>
<path fill="#f8766d" fill-opacity="0.874510" stroke="transparent" d="M24,-181C24,-181 114,-181 114,-181 120,-181 126,-187 126,-193 126,-193 126,-233 126,-233 126,-239 120,-245 114,-245 114,-245 24,-245 24,-245 18,-245 12,-239 12,-233 12,-233 12,-193 12,-193 12,-187 18,-181 24,-181"/>
<text text-anchor="start" x="13" y="-242.4" font-family="Arial" font-size="2.00"> </text>
<text text-anchor="start" x="13" y="-236.4" font-family="Arial" font-size="7.00"> &#160;4</text>
<text text-anchor="start" x="27" y="-219.8" font-family="Arial" font-weight="bold" font-size="14.00">Predict 60.97</text>
<text text-anchor="start" x="49" y="-202.8" font-family="Arial" font-weight="bold" font-size="14.00">n = 22</text>
<text text-anchor="start" x="67.5" y="-184.8" font-family="Arial" font-size="9.00"> </text>
<path fill="none" stroke="#333333" d="M24,-181C24,-181 114,-181 114,-181 120,-181 126,-187 126,-193 126,-193 126,-233 126,-233 126,-239 120,-245 114,-245 114,-245 24,-245 24,-245 18,-245 12,-239 12,-233 12,-233 12,-193 12,-193 12,-187 18,-181 24,-181"/>
<text text-anchor="start" x="67" y="-166.8" font-family="Arial" font-weight="bold" font-size="14.00"> </text>
</g>
<!-- 3&#45;&gt;4 -->
<g id="edge5" class="edge">
<title>3&#45;&gt;4</title>
<path fill="none" stroke="#888888" d="M173.14,-307.67C162.73,-298.3 151.9,-288.56 141.33,-279.05"/>
<polygon fill="#888888" stroke="#888888" points="143.46,-276.26 133.68,-272.18 138.78,-281.47 143.46,-276.26"/>
</g>
<!-- 5 -->
<g id="node7" class="node">
<title>5</title>
<text text-anchor="start" x="213.5" y="-253.8" font-family="Arial" font-weight="bold" font-size="14.00"> ≥ 61.82</text>
<text text-anchor="start" x="166" y="-209.3" font-family="Arial" font-size="14.00"> &#160;&#160;&#160;</text>
<path fill="#ebebeb" stroke="transparent" d="M196,-181C196,-181 280,-181 280,-181 286,-181 292,-187 292,-193 292,-193 292,-233 292,-233 292,-239 286,-245 280,-245 280,-245 196,-245 196,-245 190,-245 184,-239 184,-233 184,-233 184,-193 184,-193 184,-187 190,-181 196,-181"/>
<text text-anchor="start" x="185" y="-242.4" font-family="Arial" font-size="2.00"> </text>
<text text-anchor="start" x="185" y="-236.4" font-family="Arial" font-size="7.00"> &#160;5</text>
<text text-anchor="start" x="199" y="-219.8" font-family="Arial" font-weight="bold" font-size="14.00">Mean: 64.29</text>
<text text-anchor="start" x="218" y="-202.8" font-family="Arial" font-weight="bold" font-size="14.00">n = 19</text>
<text text-anchor="start" x="236.5" y="-184.8" font-family="Arial" font-size="9.00"> </text>
<path fill="none" stroke="#333333" d="M196,-181C196,-181 280,-181 280,-181 286,-181 292,-187 292,-193 292,-193 292,-233 292,-233 292,-239 286,-245 280,-245 280,-245 196,-245 196,-245 190,-245 184,-239 184,-233 184,-233 184,-193 184,-193 184,-187 190,-181 196,-181"/>
<text text-anchor="start" x="294" y="-209.3" font-family="Arial" font-size="14.00"> &#160;&#160;&#160;</text>
<text text-anchor="start" x="180.5" y="-166.8" font-family="Arial" font-weight="bold" font-size="14.00">prev_168h_inflow</text>
</g>
<!-- 3&#45;&gt;5 -->
<g id="edge6" class="edge">
<title>3&#45;&gt;5</title>
<path fill="none" stroke="#888888" d="M238,-307.67C238,-299.39 238,-290.83 238,-282.38"/>
<polygon fill="#888888" stroke="#888888" points="241.5,-282.18 238,-272.18 234.5,-282.18 241.5,-282.18"/>
</g>
<!-- 9 -->
<g id="node10" class="node">
<title>9</title>
<text text-anchor="start" x="520" y="-253.8" font-family="Arial" font-weight="bold" font-size="14.00"> &lt; 75.32</text>
<path fill="#ebebeb" stroke="transparent" d="M503,-181C503,-181 587,-181 587,-181 593,-181 599,-187 599,-193 599,-193 599,-233 599,-233 599,-239 593,-245 587,-245 587,-245 503,-245 503,-245 497,-245 491,-239 491,-233 491,-233 491,-193 491,-193 491,-187 497,-181 503,-181"/>
<text text-anchor="start" x="492" y="-242.4" font-family="Arial" font-size="2.00"> </text>
<text text-anchor="start" x="492" y="-236.4" font-family="Arial" font-size="7.00"> &#160;9</text>
<text text-anchor="start" x="506" y="-219.8" font-family="Arial" font-weight="bold" font-size="14.00">Mean: 72.54</text>
<text text-anchor="start" x="525" y="-202.8" font-family="Arial" font-weight="bold" font-size="14.00">n = 10</text>
<text text-anchor="start" x="543.5" y="-184.8" font-family="Arial" font-size="9.00"> </text>
<path fill="none" stroke="#333333" d="M503,-181C503,-181 587,-181 587,-181 593,-181 599,-187 599,-193 599,-193 599,-233 599,-233 599,-239 593,-245 587,-245 587,-245 503,-245 503,-245 497,-245 491,-239 491,-233 491,-233 491,-193 491,-193 491,-187 497,-181 503,-181"/>
<text text-anchor="start" x="530.5" y="-166.8" font-family="Arial" font-weight="bold" font-size="14.00">time</text>
</g>
<!-- 8&#45;&gt;9 -->
<g id="edge9" class="edge">
<title>8&#45;&gt;9</title>
<path fill="none" stroke="#888888" d="M596.15,-307.67C591.38,-298.94 586.44,-289.88 581.58,-280.99"/>
<polygon fill="#888888" stroke="#888888" points="584.63,-279.28 576.77,-272.18 578.49,-282.63 584.63,-279.28"/>
</g>
<!-- 12 -->
<g id="node11" class="node">
<title>12</title>
<text text-anchor="start" x="686.5" y="-253.8" font-family="Arial" font-weight="bold" font-size="14.00"> ≥ 75.32</text>
<text text-anchor="start" x="639" y="-209.3" font-family="Arial" font-size="14.00"> &#160;&#160;&#160;</text>
<path fill="#ebebeb" stroke="transparent" d="M669,-181C669,-181 753,-181 753,-181 759,-181 765,-187 765,-193 765,-193 765,-233 765,-233 765,-239 759,-245 753,-245 753,-245 669,-245 669,-245 663,-245 657,-239 657,-233 657,-233 657,-193 657,-193 657,-187 663,-181 669,-181"/>
<text text-anchor="start" x="658" y="-242.4" font-family="Arial" font-size="2.00"> </text>
<text text-anchor="start" x="658" y="-236.4" font-family="Arial" font-size="7.00"> &#160;12</text>
<text text-anchor="start" x="672" y="-219.8" font-family="Arial" font-weight="bold" font-size="14.00">Mean: 79.61</text>
<text text-anchor="start" x="691" y="-202.8" font-family="Arial" font-weight="bold" font-size="14.00">n = 14</text>
<text text-anchor="start" x="709.5" y="-184.8" font-family="Arial" font-size="9.00"> </text>
<path fill="none" stroke="#333333" d="M669,-181C669,-181 753,-181 753,-181 759,-181 765,-187 765,-193 765,-193 765,-233 765,-233 765,-239 759,-245 753,-245 753,-245 669,-245 669,-245 663,-245 657,-239 657,-233 657,-233 657,-193 657,-193 657,-187 663,-181 669,-181"/>
<text text-anchor="start" x="767" y="-209.3" font-family="Arial" font-size="14.00"> &#160;&#160;&#160;</text>
<text text-anchor="start" x="653.5" y="-166.8" font-family="Arial" font-weight="bold" font-size="14.00">prev_168h_inflow</text>
</g>
<!-- 8&#45;&gt;12 -->
<g id="edge10" class="edge">
<title>8&#45;&gt;12</title>
<path fill="none" stroke="#888888" d="M659.85,-307.67C664.62,-298.94 669.56,-289.88 674.42,-280.99"/>
<polygon fill="#888888" stroke="#888888" points="677.51,-282.63 679.23,-272.18 671.37,-279.28 677.51,-282.63"/>
</g>
<!-- 6 -->
<g id="node8" class="node">
<title>6</title>
<text text-anchor="start" x="57" y="-99.8" font-family="Arial" font-weight="bold" font-size="14.00"> &lt; 64.98</text>
<path fill="#f8766d" fill-opacity="0.850980" stroke="transparent" d="M37,-27C37,-27 127,-27 127,-27 133,-27 139,-33 139,-39 139,-39 139,-79 139,-79 139,-85 133,-91 127,-91 127,-91 37,-91 37,-91 31,-91 25,-85 25,-79 25,-79 25,-39 25,-39 25,-33 31,-27 37,-27"/>
<text text-anchor="start" x="26" y="-88.4" font-family="Arial" font-size="2.00"> </text>
<text text-anchor="start" x="26" y="-82.4" font-family="Arial" font-size="7.00"> &#160;6</text>
<text text-anchor="start" x="40" y="-65.8" font-family="Arial" font-weight="bold" font-size="14.00">Predict 63.19</text>
<text text-anchor="start" x="62" y="-48.8" font-family="Arial" font-weight="bold" font-size="14.00">n = 12</text>
<text text-anchor="start" x="80.5" y="-30.8" font-family="Arial" font-size="9.00"> </text>
<path fill="none" stroke="#333333" d="M37,-27C37,-27 127,-27 127,-27 133,-27 139,-33 139,-39 139,-39 139,-79 139,-79 139,-85 133,-91 127,-91 127,-91 37,-91 37,-91 31,-91 25,-85 25,-79 25,-79 25,-39 25,-39 25,-33 31,-27 37,-27"/>
<text text-anchor="start" x="80" y="-12.8" font-family="Arial" font-weight="bold" font-size="14.00"> </text>
</g>
<!-- 5&#45;&gt;6 -->
<g id="edge7" class="edge">
<title>5&#45;&gt;6</title>
<path fill="none" stroke="#888888" d="M178.13,-153.67C168.62,-144.39 158.72,-134.75 149.05,-125.33"/>
<polygon fill="#888888" stroke="#888888" points="151.31,-122.65 141.71,-118.18 146.43,-127.66 151.31,-122.65"/>
</g>
<!-- 7 -->
<g id="node9" class="node">
<title>7</title>
<text text-anchor="start" x="213.5" y="-99.8" font-family="Arial" font-weight="bold" font-size="14.00"> ≥ 64.98</text>
<path fill="#f8766d" fill-opacity="0.815686" stroke="transparent" d="M193,-27C193,-27 283,-27 283,-27 289,-27 295,-33 295,-39 295,-39 295,-79 295,-79 295,-85 289,-91 283,-91 283,-91 193,-91 193,-91 187,-91 181,-85 181,-79 181,-79 181,-39 181,-39 181,-33 187,-27 193,-27"/>
<text text-anchor="start" x="182" y="-88.4" font-family="Arial" font-size="2.00"> </text>
<text text-anchor="start" x="182" y="-82.4" font-family="Arial" font-size="7.00"> &#160;7</text>
<text text-anchor="start" x="196" y="-65.8" font-family="Arial" font-weight="bold" font-size="14.00">Predict 66.17</text>
<text text-anchor="start" x="222" y="-48.8" font-family="Arial" font-weight="bold" font-size="14.00">n = 7</text>
<text text-anchor="start" x="236.5" y="-30.8" font-family="Arial" font-size="9.00"> </text>
<path fill="none" stroke="#333333" d="M193,-27C193,-27 283,-27 283,-27 289,-27 295,-33 295,-39 295,-39 295,-79 295,-79 295,-85 289,-91 283,-91 283,-91 193,-91 193,-91 187,-91 181,-85 181,-79 181,-79 181,-39 181,-39 181,-33 187,-27 193,-27"/>
<text text-anchor="start" x="236" y="-12.8" font-family="Arial" font-weight="bold" font-size="14.00"> </text>
</g>
<!-- 5&#45;&gt;7 -->
<g id="edge8" class="edge">
<title>5&#45;&gt;7</title>
<path fill="none" stroke="#888888" d="M238,-153.67C238,-145.39 238,-136.83 238,-128.38"/>
<polygon fill="#888888" stroke="#888888" points="241.5,-128.18 238,-118.18 234.5,-128.18 241.5,-128.18"/>
</g>
<!-- 10 -->
<g id="node12" class="node">
<title>10</title>
<text text-anchor="start" x="372.5" y="-99.8" font-family="Arial" font-weight="bold" font-size="14.00"> &lt; 14.5</text>
<path fill="#f8766d" fill-opacity="0.784314" stroke="transparent" d="M349,-27C349,-27 439,-27 439,-27 445,-27 451,-33 451,-39 451,-39 451,-79 451,-79 451,-85 445,-91 439,-91 439,-91 349,-91 349,-91 343,-91 337,-85 337,-79 337,-79 337,-39 337,-39 337,-33 343,-27 349,-27"/>
<text text-anchor="start" x="338" y="-88.4" font-family="Arial" font-size="2.00"> </text>
<text text-anchor="start" x="338" y="-82.4" font-family="Arial" font-size="7.00"> &#160;10</text>
<text text-anchor="start" x="352" y="-65.8" font-family="Arial" font-weight="bold" font-size="14.00">Predict 68.95</text>
<text text-anchor="start" x="378" y="-48.8" font-family="Arial" font-weight="bold" font-size="14.00">n = 3</text>
<text text-anchor="start" x="392.5" y="-30.8" font-family="Arial" font-size="9.00"> </text>
<path fill="none" stroke="#333333" d="M349,-27C349,-27 439,-27 439,-27 445,-27 451,-33 451,-39 451,-39 451,-79 451,-79 451,-85 445,-91 439,-91 439,-91 349,-91 349,-91 343,-91 337,-85 337,-79 337,-79 337,-39 337,-39 337,-33 343,-27 349,-27"/>
<text text-anchor="start" x="392" y="-12.8" font-family="Arial" font-weight="bold" font-size="14.00"> </text>
</g>
<!-- 9&#45;&gt;10 -->
<g id="edge11" class="edge">
<title>9&#45;&gt;10</title>
<path fill="none" stroke="#888888" d="M487.05,-153.67C477.84,-144.39 468.26,-134.75 458.9,-125.33"/>
<polygon fill="#888888" stroke="#888888" points="461.32,-122.8 451.79,-118.18 456.36,-127.74 461.32,-122.8"/>
</g>
<!-- 11 -->
<g id="node13" class="node">
<title>11</title>
<text text-anchor="start" x="529" y="-99.8" font-family="Arial" font-weight="bold" font-size="14.00"> ≥ 14.5</text>
<path fill="#f8766d" fill-opacity="0.729412" stroke="transparent" d="M505,-27C505,-27 595,-27 595,-27 601,-27 607,-33 607,-39 607,-39 607,-79 607,-79 607,-85 601,-91 595,-91 595,-91 505,-91 505,-91 499,-91 493,-85 493,-79 493,-79 493,-39 493,-39 493,-33 499,-27 505,-27"/>
<text text-anchor="start" x="494" y="-88.4" font-family="Arial" font-size="2.00"> </text>
<text text-anchor="start" x="494" y="-82.4" font-family="Arial" font-size="7.00"> &#160;11</text>
<text text-anchor="start" x="508" y="-65.8" font-family="Arial" font-weight="bold" font-size="14.00">Predict 74.08</text>
<text text-anchor="start" x="534" y="-48.8" font-family="Arial" font-weight="bold" font-size="14.00">n = 7</text>
<text text-anchor="start" x="548.5" y="-30.8" font-family="Arial" font-size="9.00"> </text>
<path fill="none" stroke="#333333" d="M505,-27C505,-27 595,-27 595,-27 601,-27 607,-33 607,-39 607,-39 607,-79 607,-79 607,-85 601,-91 595,-91 595,-91 505,-91 505,-91 499,-91 493,-85 493,-79 493,-79 493,-39 493,-39 493,-33 499,-27 505,-27"/>
<text text-anchor="start" x="548" y="-12.8" font-family="Arial" font-weight="bold" font-size="14.00"> </text>
</g>
<!-- 9&#45;&gt;11 -->
<g id="edge12" class="edge">
<title>9&#45;&gt;11</title>
<path fill="none" stroke="#888888" d="M546.92,-153.67C547.19,-145.39 547.47,-136.83 547.75,-128.38"/>
<polygon fill="#888888" stroke="#888888" points="551.26,-128.29 548.09,-118.18 544.26,-128.06 551.26,-128.29"/>
</g>
<!-- 13 -->
<g id="node14" class="node">
<title>13</title>
<text text-anchor="start" x="681" y="-99.8" font-family="Arial" font-weight="bold" font-size="14.00"> &lt; 78.16</text>
<path fill="#f8766d" fill-opacity="0.694118" stroke="transparent" d="M661,-27C661,-27 751,-27 751,-27 757,-27 763,-33 763,-39 763,-39 763,-79 763,-79 763,-85 757,-91 751,-91 751,-91 661,-91 661,-91 655,-91 649,-85 649,-79 649,-79 649,-39 649,-39 649,-33 655,-27 661,-27"/>
<text text-anchor="start" x="650" y="-88.4" font-family="Arial" font-size="2.00"> </text>
<text text-anchor="start" x="650" y="-82.4" font-family="Arial" font-size="7.00"> &#160;13</text>
<text text-anchor="start" x="664" y="-65.8" font-family="Arial" font-weight="bold" font-size="14.00">Predict 77.18</text>
<text text-anchor="start" x="690" y="-48.8" font-family="Arial" font-weight="bold" font-size="14.00">n = 3</text>
<text text-anchor="start" x="704.5" y="-30.8" font-family="Arial" font-size="9.00"> </text>
<path fill="none" stroke="#333333" d="M661,-27C661,-27 751,-27 751,-27 757,-27 763,-33 763,-39 763,-39 763,-79 763,-79 763,-85 757,-91 751,-91 751,-91 661,-91 661,-91 655,-91 649,-85 649,-79 649,-79 649,-39 649,-39 649,-33 655,-27 661,-27"/>
<text text-anchor="start" x="704" y="-12.8" font-family="Arial" font-weight="bold" font-size="14.00"> </text>
</g>
<!-- 12&#45;&gt;13 -->
<g id="edge13" class="edge">
<title>12&#45;&gt;13</title>
<path fill="none" stroke="#888888" d="M709.08,-153.67C708.81,-145.39 708.53,-136.83 708.25,-128.38"/>
<polygon fill="#888888" stroke="#888888" points="711.74,-128.06 707.91,-118.18 704.74,-128.29 711.74,-128.06"/>
</g>
<!-- 14 -->
<g id="node15" class="node">
<title>14</title>
<text text-anchor="start" x="837.5" y="-99.8" font-family="Arial" font-weight="bold" font-size="14.00"> ≥ 78.16</text>
<path fill="#f8766d" fill-opacity="0.658824" stroke="transparent" d="M817,-27C817,-27 907,-27 907,-27 913,-27 919,-33 919,-39 919,-39 919,-79 919,-79 919,-85 913,-91 907,-91 907,-91 817,-91 817,-91 811,-91 805,-85 805,-79 805,-79 805,-39 805,-39 805,-33 811,-27 817,-27"/>
<text text-anchor="start" x="806" y="-88.4" font-family="Arial" font-size="2.00"> </text>
<text text-anchor="start" x="806" y="-82.4" font-family="Arial" font-size="7.00"> &#160;14</text>
<text text-anchor="start" x="820" y="-65.8" font-family="Arial" font-weight="bold" font-size="14.00">Predict 80.27</text>
<text text-anchor="start" x="842.5" y="-48.8" font-family="Arial" font-weight="bold" font-size="14.00">n = 11</text>
<text text-anchor="start" x="860.5" y="-30.8" font-family="Arial" font-size="9.00"> </text>
<path fill="none" stroke="#333333" d="M817,-27C817,-27 907,-27 907,-27 913,-27 919,-33 919,-39 919,-39 919,-79 919,-79 919,-85 913,-91 907,-91 907,-91 817,-91 817,-91 811,-91 805,-85 805,-79 805,-79 805,-39 805,-39 805,-33 811,-27 817,-27"/>
<text text-anchor="start" x="860" y="-12.8" font-family="Arial" font-weight="bold" font-size="14.00"> </text>
</g>
<!-- 12&#45;&gt;14 -->
<g id="edge14" class="edge">
<title>12&#45;&gt;14</title>
<path fill="none" stroke="#888888" d="M768.95,-153.67C778.16,-144.39 787.74,-134.75 797.1,-125.33"/>
<polygon fill="#888888" stroke="#888888" points="799.64,-127.74 804.21,-118.18 794.68,-122.8 799.64,-127.74"/>
</g>
<!-- 17 -->
<g id="node18" class="node">
<title>17</title>
<text text-anchor="start" x="1136" y="-253.8" font-family="Arial" font-weight="bold" font-size="14.00"> &lt; 88.19</text>
<text text-anchor="start" x="1089" y="-209.3" font-family="Arial" font-size="14.00"> &#160;&#160;&#160;</text>
<path fill="#ebebeb" stroke="transparent" d="M1119,-181C1119,-181 1203,-181 1203,-181 1209,-181 1215,-187 1215,-193 1215,-193 1215,-233 1215,-233 1215,-239 1209,-245 1203,-245 1203,-245 1119,-245 1119,-245 1113,-245 1107,-239 1107,-233 1107,-233 1107,-193 1107,-193 1107,-187 1113,-181 1119,-181"/>
<text text-anchor="start" x="1108" y="-242.4" font-family="Arial" font-size="2.00"> </text>
<text text-anchor="start" x="1108" y="-236.4" font-family="Arial" font-size="7.00"> &#160;17</text>
<text text-anchor="start" x="1122" y="-219.8" font-family="Arial" font-weight="bold" font-size="14.00">Mean: 85.84</text>
<text text-anchor="start" x="1141" y="-202.8" font-family="Arial" font-weight="bold" font-size="14.00">n = 32</text>
<text text-anchor="start" x="1159.5" y="-184.8" font-family="Arial" font-size="9.00"> </text>
<path fill="none" stroke="#333333" d="M1119,-181C1119,-181 1203,-181 1203,-181 1209,-181 1215,-187 1215,-193 1215,-193 1215,-233 1215,-233 1215,-239 1209,-245 1203,-245 1203,-245 1119,-245 1119,-245 1113,-245 1107,-239 1107,-233 1107,-233 1107,-193 1107,-193 1107,-187 1113,-181 1119,-181"/>
<text text-anchor="start" x="1217" y="-209.3" font-family="Arial" font-size="14.00"> &#160;&#160;&#160;</text>
<text text-anchor="start" x="1103.5" y="-166.8" font-family="Arial" font-weight="bold" font-size="14.00">prev_168h_inflow</text>
</g>
<!-- 16&#45;&gt;17 -->
<g id="edge17" class="edge">
<title>16&#45;&gt;17</title>
<path fill="none" stroke="#888888" d="M1217.08,-307.67C1211.85,-298.94 1206.43,-289.88 1201.11,-280.99"/>
<polygon fill="#888888" stroke="#888888" points="1203.97,-278.96 1195.83,-272.18 1197.96,-282.55 1203.97,-278.96"/>
</g>
<!-- 20 -->
<g id="node19" class="node">
<title>20</title>
<text text-anchor="start" x="1318.5" y="-253.8" font-family="Arial" font-weight="bold" font-size="14.00"> ≥ 88.19</text>
<text text-anchor="start" x="1271" y="-209.3" font-family="Arial" font-size="14.00"> &#160;&#160;&#160;</text>
<path fill="#ebebeb" stroke="transparent" d="M1301,-181C1301,-181 1385,-181 1385,-181 1391,-181 1397,-187 1397,-193 1397,-193 1397,-233 1397,-233 1397,-239 1391,-245 1385,-245 1385,-245 1301,-245 1301,-245 1295,-245 1289,-239 1289,-233 1289,-233 1289,-193 1289,-193 1289,-187 1295,-181 1301,-181"/>
<text text-anchor="start" x="1290" y="-242.4" font-family="Arial" font-size="2.00"> </text>
<text text-anchor="start" x="1290" y="-236.4" font-family="Arial" font-size="7.00"> &#160;20</text>
<text text-anchor="start" x="1304" y="-219.8" font-family="Arial" font-weight="bold" font-size="14.00">Mean: 91.27</text>
<text text-anchor="start" x="1323" y="-202.8" font-family="Arial" font-weight="bold" font-size="14.00">n = 40</text>
<text text-anchor="start" x="1341.5" y="-184.8" font-family="Arial" font-size="9.00"> </text>
<path fill="none" stroke="#333333" d="M1301,-181C1301,-181 1385,-181 1385,-181 1391,-181 1397,-187 1397,-193 1397,-193 1397,-233 1397,-233 1397,-239 1391,-245 1385,-245 1385,-245 1301,-245 1301,-245 1295,-245 1289,-239 1289,-233 1289,-233 1289,-193 1289,-193 1289,-187 1295,-181 1301,-181"/>
<text text-anchor="start" x="1399" y="-209.3" font-family="Arial" font-size="14.00"> &#160;&#160;&#160;</text>
<text text-anchor="start" x="1285.5" y="-166.8" font-family="Arial" font-weight="bold" font-size="14.00">prev_168h_inflow</text>
</g>
<!-- 16&#45;&gt;20 -->
<g id="edge18" class="edge">
<title>16&#45;&gt;20</title>
<path fill="none" stroke="#888888" d="M1286.92,-307.67C1292.15,-298.94 1297.57,-289.88 1302.89,-280.99"/>
<polygon fill="#888888" stroke="#888888" points="1306.04,-282.55 1308.17,-272.18 1300.03,-278.96 1306.04,-282.55"/>
</g>
<!-- 24 -->
<g id="node24" class="node">
<title>24</title>
<text text-anchor="start" x="1617" y="-253.8" font-family="Arial" font-weight="bold" font-size="14.00"> &lt; 101.7</text>
<path fill="#ebebeb" stroke="transparent" d="M1600,-181C1600,-181 1684,-181 1684,-181 1690,-181 1696,-187 1696,-193 1696,-193 1696,-233 1696,-233 1696,-239 1690,-245 1684,-245 1684,-245 1600,-245 1600,-245 1594,-245 1588,-239 1588,-233 1588,-233 1588,-193 1588,-193 1588,-187 1594,-181 1600,-181"/>
<text text-anchor="start" x="1589" y="-242.4" font-family="Arial" font-size="2.00"> </text>
<text text-anchor="start" x="1589" y="-236.4" font-family="Arial" font-size="7.00"> &#160;24</text>
<text text-anchor="start" x="1603" y="-219.8" font-family="Arial" font-weight="bold" font-size="14.00">Mean: 97.65</text>
<text text-anchor="start" x="1622" y="-202.8" font-family="Arial" font-weight="bold" font-size="14.00">n = 17</text>
<text text-anchor="start" x="1640.5" y="-184.8" font-family="Arial" font-size="9.00"> </text>
<path fill="none" stroke="#333333" d="M1600,-181C1600,-181 1684,-181 1684,-181 1690,-181 1696,-187 1696,-193 1696,-193 1696,-233 1696,-233 1696,-239 1690,-245 1684,-245 1684,-245 1600,-245 1600,-245 1594,-245 1588,-239 1588,-233 1588,-233 1588,-193 1588,-193 1588,-187 1594,-181 1600,-181"/>
<text text-anchor="start" x="1627.5" y="-166.8" font-family="Arial" font-weight="bold" font-size="14.00">time</text>
</g>
<!-- 23&#45;&gt;24 -->
<g id="edge23" class="edge">
<title>23&#45;&gt;24</title>
<path fill="none" stroke="#888888" d="M1642,-307.67C1642,-299.39 1642,-290.83 1642,-282.38"/>
<polygon fill="#888888" stroke="#888888" points="1645.5,-282.18 1642,-272.18 1638.5,-282.18 1645.5,-282.18"/>
</g>
<!-- 27 -->
<g id="node25" class="node">
<title>27</title>
<text text-anchor="start" x="1770.5" y="-253.8" font-family="Arial" font-weight="bold" font-size="14.00"> ≥ 101.7</text>
<path fill="#f8766d" fill-opacity="0.376471" stroke="transparent" d="M1750,-181C1750,-181 1840,-181 1840,-181 1846,-181 1852,-187 1852,-193 1852,-193 1852,-233 1852,-233 1852,-239 1846,-245 1840,-245 1840,-245 1750,-245 1750,-245 1744,-245 1738,-239 1738,-233 1738,-233 1738,-193 1738,-193 1738,-187 1744,-181 1750,-181"/>
<text text-anchor="start" x="1739" y="-242.4" font-family="Arial" font-size="2.00"> </text>
<text text-anchor="start" x="1739" y="-236.4" font-family="Arial" font-size="7.00"> &#160;27</text>
<text text-anchor="start" x="1753" y="-219.8" font-family="Arial" font-weight="bold" font-size="14.00">Predict 105.6</text>
<text text-anchor="start" x="1775" y="-202.8" font-family="Arial" font-weight="bold" font-size="14.00">n = 14</text>
<text text-anchor="start" x="1793.5" y="-184.8" font-family="Arial" font-size="9.00"> </text>
<path fill="none" stroke="#333333" d="M1750,-181C1750,-181 1840,-181 1840,-181 1846,-181 1852,-187 1852,-193 1852,-193 1852,-233 1852,-233 1852,-239 1846,-245 1840,-245 1840,-245 1750,-245 1750,-245 1744,-245 1738,-239 1738,-233 1738,-233 1738,-193 1738,-193 1738,-187 1744,-181 1750,-181"/>
<text text-anchor="start" x="1793" y="-166.8" font-family="Arial" font-weight="bold" font-size="14.00"> </text>
</g>
<!-- 23&#45;&gt;27 -->
<g id="edge24" class="edge">
<title>23&#45;&gt;27</title>
<path fill="none" stroke="#888888" d="M1700.72,-307.67C1710.05,-298.39 1719.76,-288.75 1729.24,-279.33"/>
<polygon fill="#888888" stroke="#888888" points="1731.81,-281.71 1736.44,-272.18 1726.88,-276.74 1731.81,-281.71"/>
</g>
<!-- 18 -->
<g id="node20" class="node">
<title>18</title>
<text text-anchor="start" x="993" y="-99.8" font-family="Arial" font-weight="bold" font-size="14.00"> &lt; 85.98</text>
<path fill="#f8766d" fill-opacity="0.607843" stroke="transparent" d="M973,-27C973,-27 1063,-27 1063,-27 1069,-27 1075,-33 1075,-39 1075,-39 1075,-79 1075,-79 1075,-85 1069,-91 1063,-91 1063,-91 973,-91 973,-91 967,-91 961,-85 961,-79 961,-79 961,-39 961,-39 961,-33 967,-27 973,-27"/>
<text text-anchor="start" x="962" y="-88.4" font-family="Arial" font-size="2.00"> </text>
<text text-anchor="start" x="962" y="-82.4" font-family="Arial" font-size="7.00"> &#160;18</text>
<text text-anchor="start" x="976" y="-65.8" font-family="Arial" font-weight="bold" font-size="14.00">Predict 84.74</text>
<text text-anchor="start" x="998" y="-48.8" font-family="Arial" font-weight="bold" font-size="14.00">n = 20</text>
<text text-anchor="start" x="1016.5" y="-30.8" font-family="Arial" font-size="9.00"> </text>
<path fill="none" stroke="#333333" d="M973,-27C973,-27 1063,-27 1063,-27 1069,-27 1075,-33 1075,-39 1075,-39 1075,-79 1075,-79 1075,-85 1069,-91 1063,-91 1063,-91 973,-91 973,-91 967,-91 961,-85 961,-79 961,-79 961,-39 961,-39 961,-33 967,-27 973,-27"/>
<text text-anchor="start" x="1016" y="-12.8" font-family="Arial" font-weight="bold" font-size="14.00"> </text>
</g>
<!-- 17&#45;&gt;18 -->
<g id="edge19" class="edge">
<title>17&#45;&gt;18</title>
<path fill="none" stroke="#888888" d="M1106.12,-153.67C1097.48,-144.49 1088.5,-134.94 1079.72,-125.6"/>
<polygon fill="#888888" stroke="#888888" points="1082.13,-123.06 1072.73,-118.18 1077.03,-127.86 1082.13,-123.06"/>
</g>
<!-- 19 -->
<g id="node21" class="node">
<title>19</title>
<text text-anchor="start" x="1149.5" y="-99.8" font-family="Arial" font-weight="bold" font-size="14.00"> ≥ 85.98</text>
<path fill="#f8766d" fill-opacity="0.576471" stroke="transparent" d="M1129,-27C1129,-27 1219,-27 1219,-27 1225,-27 1231,-33 1231,-39 1231,-39 1231,-79 1231,-79 1231,-85 1225,-91 1219,-91 1219,-91 1129,-91 1129,-91 1123,-91 1117,-85 1117,-79 1117,-79 1117,-39 1117,-39 1117,-33 1123,-27 1129,-27"/>
<text text-anchor="start" x="1118" y="-88.4" font-family="Arial" font-size="2.00"> </text>
<text text-anchor="start" x="1118" y="-82.4" font-family="Arial" font-size="7.00"> &#160;19</text>
<text text-anchor="start" x="1132" y="-65.8" font-family="Arial" font-weight="bold" font-size="14.00">Predict 87.68</text>
<text text-anchor="start" x="1154" y="-48.8" font-family="Arial" font-weight="bold" font-size="14.00">n = 12</text>
<text text-anchor="start" x="1172.5" y="-30.8" font-family="Arial" font-size="9.00"> </text>
<path fill="none" stroke="#333333" d="M1129,-27C1129,-27 1219,-27 1219,-27 1225,-27 1231,-33 1231,-39 1231,-39 1231,-79 1231,-79 1231,-85 1225,-91 1219,-91 1219,-91 1129,-91 1129,-91 1123,-91 1117,-85 1117,-79 1117,-79 1117,-39 1117,-39 1117,-33 1123,-27 1129,-27"/>
<text text-anchor="start" x="1172" y="-12.8" font-family="Arial" font-weight="bold" font-size="14.00"> </text>
</g>
<!-- 17&#45;&gt;19 -->
<g id="edge20" class="edge">
<title>17&#45;&gt;19</title>
<path fill="none" stroke="#888888" d="M1165.99,-153.67C1166.7,-145.39 1167.43,-136.83 1168.15,-128.38"/>
<polygon fill="#888888" stroke="#888888" points="1171.66,-128.44 1169.02,-118.18 1164.68,-127.84 1171.66,-128.44"/>
</g>
<!-- 21 -->
<g id="node22" class="node">
<title>21</title>
<text text-anchor="start" x="1305" y="-99.8" font-family="Arial" font-weight="bold" font-size="14.00"> &lt; 91.45</text>
<path fill="#f8766d" fill-opacity="0.549020" stroke="transparent" d="M1285,-27C1285,-27 1375,-27 1375,-27 1381,-27 1387,-33 1387,-39 1387,-39 1387,-79 1387,-79 1387,-85 1381,-91 1375,-91 1375,-91 1285,-91 1285,-91 1279,-91 1273,-85 1273,-79 1273,-79 1273,-39 1273,-39 1273,-33 1279,-27 1285,-27"/>
<text text-anchor="start" x="1274" y="-88.4" font-family="Arial" font-size="2.00"> </text>
<text text-anchor="start" x="1274" y="-82.4" font-family="Arial" font-size="7.00"> &#160;21</text>
<text text-anchor="start" x="1288" y="-65.8" font-family="Arial" font-weight="bold" font-size="14.00">Predict 90.21</text>
<text text-anchor="start" x="1310" y="-48.8" font-family="Arial" font-weight="bold" font-size="14.00">n = 27</text>
<text text-anchor="start" x="1328.5" y="-30.8" font-family="Arial" font-size="9.00"> </text>
<path fill="none" stroke="#333333" d="M1285,-27C1285,-27 1375,-27 1375,-27 1381,-27 1387,-33 1387,-39 1387,-39 1387,-79 1387,-79 1387,-85 1381,-91 1375,-91 1375,-91 1285,-91 1285,-91 1279,-91 1273,-85 1273,-79 1273,-79 1273,-39 1273,-39 1273,-33 1279,-27 1285,-27"/>
<text text-anchor="start" x="1328" y="-12.8" font-family="Arial" font-weight="bold" font-size="14.00"> </text>
</g>
<!-- 20&#45;&gt;21 -->
<g id="edge21" class="edge">
<title>20&#45;&gt;21</title>
<path fill="none" stroke="#888888" d="M1338.01,-153.67C1337.3,-145.39 1336.57,-136.83 1335.85,-128.38"/>
<polygon fill="#888888" stroke="#888888" points="1339.32,-127.84 1334.98,-118.18 1332.34,-128.44 1339.32,-127.84"/>
</g>
<!-- 22 -->
<g id="node23" class="node">
<title>22</title>
<text text-anchor="start" x="1461.5" y="-99.8" font-family="Arial" font-weight="bold" font-size="14.00"> ≥ 91.45</text>
<path fill="#f8766d" fill-opacity="0.509804" stroke="transparent" d="M1441,-27C1441,-27 1531,-27 1531,-27 1537,-27 1543,-33 1543,-39 1543,-39 1543,-79 1543,-79 1543,-85 1537,-91 1531,-91 1531,-91 1441,-91 1441,-91 1435,-91 1429,-85 1429,-79 1429,-79 1429,-39 1429,-39 1429,-33 1435,-27 1441,-27"/>
<text text-anchor="start" x="1430" y="-88.4" font-family="Arial" font-size="2.00"> </text>
<text text-anchor="start" x="1430" y="-82.4" font-family="Arial" font-size="7.00"> &#160;22</text>
<text text-anchor="start" x="1444" y="-65.8" font-family="Arial" font-weight="bold" font-size="14.00">Predict 93.47</text>
<text text-anchor="start" x="1466" y="-48.8" font-family="Arial" font-weight="bold" font-size="14.00">n = 13</text>
<text text-anchor="start" x="1484.5" y="-30.8" font-family="Arial" font-size="9.00"> </text>
<path fill="none" stroke="#333333" d="M1441,-27C1441,-27 1531,-27 1531,-27 1537,-27 1543,-33 1543,-39 1543,-39 1543,-79 1543,-79 1543,-85 1537,-91 1531,-91 1531,-91 1441,-91 1441,-91 1435,-91 1429,-85 1429,-79 1429,-79 1429,-39 1429,-39 1429,-33 1435,-27 1441,-27"/>
<text text-anchor="start" x="1484" y="-12.8" font-family="Arial" font-weight="bold" font-size="14.00"> </text>
</g>
<!-- 20&#45;&gt;22 -->
<g id="edge22" class="edge">
<title>20&#45;&gt;22</title>
<path fill="none" stroke="#888888" d="M1397.88,-153.67C1406.52,-144.49 1415.5,-134.94 1424.28,-125.6"/>
<polygon fill="#888888" stroke="#888888" points="1426.97,-127.86 1431.27,-118.18 1421.87,-123.06 1426.97,-127.86"/>
</g>
<!-- 25 -->
<g id="node26" class="node">
<title>25</title>
<text text-anchor="start" x="1620.5" y="-99.8" font-family="Arial" font-weight="bold" font-size="14.00"> &lt; 12.5</text>
<path fill="#f8766d" fill-opacity="0.443137" stroke="transparent" d="M1597,-27C1597,-27 1687,-27 1687,-27 1693,-27 1699,-33 1699,-39 1699,-39 1699,-79 1699,-79 1699,-85 1693,-91 1687,-91 1687,-91 1597,-91 1597,-91 1591,-91 1585,-85 1585,-79 1585,-79 1585,-39 1585,-39 1585,-33 1591,-27 1597,-27"/>
<text text-anchor="start" x="1586" y="-88.4" font-family="Arial" font-size="2.00"> </text>
<text text-anchor="start" x="1586" y="-82.4" font-family="Arial" font-size="7.00"> &#160;25</text>
<text text-anchor="start" x="1600" y="-65.8" font-family="Arial" font-weight="bold" font-size="14.00">Predict 99.38</text>
<text text-anchor="start" x="1626" y="-48.8" font-family="Arial" font-weight="bold" font-size="14.00">n = 9</text>
<text text-anchor="start" x="1640.5" y="-30.8" font-family="Arial" font-size="9.00"> </text>
<path fill="none" stroke="#333333" d="M1597,-27C1597,-27 1687,-27 1687,-27 1693,-27 1699,-33 1699,-39 1699,-39 1699,-79 1699,-79 1699,-85 1693,-91 1687,-91 1687,-91 1597,-91 1597,-91 1591,-91 1585,-85 1585,-79 1585,-79 1585,-39 1585,-39 1585,-33 1591,-27 1597,-27"/>
<text text-anchor="start" x="1640" y="-12.8" font-family="Arial" font-weight="bold" font-size="14.00"> </text>
</g>
<!-- 24&#45;&gt;25 -->
<g id="edge25" class="edge">
<title>24&#45;&gt;25</title>
<path fill="none" stroke="#888888" d="M1642,-153.67C1642,-145.39 1642,-136.83 1642,-128.38"/>
<polygon fill="#888888" stroke="#888888" points="1645.5,-128.18 1642,-118.18 1638.5,-128.18 1645.5,-128.18"/>
</g>
<!-- 26 -->
<g id="node27" class="node">
<title>26</title>
<text text-anchor="start" x="1777" y="-99.8" font-family="Arial" font-weight="bold" font-size="14.00"> ≥ 12.5</text>
<path fill="#f8766d" fill-opacity="0.486275" stroke="transparent" d="M1753,-27C1753,-27 1843,-27 1843,-27 1849,-27 1855,-33 1855,-39 1855,-39 1855,-79 1855,-79 1855,-85 1849,-91 1843,-91 1843,-91 1753,-91 1753,-91 1747,-91 1741,-85 1741,-79 1741,-79 1741,-39 1741,-39 1741,-33 1747,-27 1753,-27"/>
<text text-anchor="start" x="1742" y="-88.4" font-family="Arial" font-size="2.00"> </text>
<text text-anchor="start" x="1742" y="-82.4" font-family="Arial" font-size="7.00"> &#160;26</text>
<text text-anchor="start" x="1756" y="-65.8" font-family="Arial" font-weight="bold" font-size="14.00">Predict 95.71</text>
<text text-anchor="start" x="1782" y="-48.8" font-family="Arial" font-weight="bold" font-size="14.00">n = 8</text>
<text text-anchor="start" x="1796.5" y="-30.8" font-family="Arial" font-size="9.00"> </text>
<path fill="none" stroke="#333333" d="M1753,-27C1753,-27 1843,-27 1843,-27 1849,-27 1855,-33 1855,-39 1855,-39 1855,-79 1855,-79 1855,-85 1849,-91 1843,-91 1843,-91 1753,-91 1753,-91 1747,-91 1741,-85 1741,-79 1741,-79 1741,-39 1741,-39 1741,-33 1747,-27 1753,-27"/>
<text text-anchor="start" x="1796" y="-12.8" font-family="Arial" font-weight="bold" font-size="14.00"> </text>
</g>
<!-- 24&#45;&gt;26 -->
<g id="edge26" class="edge">
<title>24&#45;&gt;26</title>
<path fill="none" stroke="#888888" d="M1701.87,-153.67C1711.38,-144.39 1721.28,-134.75 1730.95,-125.33"/>
<polygon fill="#888888" stroke="#888888" points="1733.57,-127.66 1738.29,-118.18 1728.69,-122.65 1733.57,-127.66"/>
</g>
</g>
</svg>
