<?xml version="1.0" encoding="utf-8"?>
<svg xmlns="http://www.w3.org/2000/svg" xmlns:xlink="http://www.w3.org/1999/xlink" width="1000" height="400" viewBox="0 0 4000 1600">
<defs>
  <clipPath id="clip350">
    <rect x="0" y="0" width="4000" height="1600"/>
  </clipPath>
</defs>
<path clip-path="url(#clip350)" d="M0 1600 L4000 1600 L4000 0 L0 0  Z" fill="#ffffff" fill-rule="evenodd" fill-opacity="1"/>
<defs>
  <clipPath id="clip351">
    <rect x="800" y="0" width="2801" height="1600"/>
  </clipPath>
</defs>
<path clip-path="url(#clip350)" d="M205.077 1497.68 L3180.41 1497.68 L3180.41 47.2441 L205.077 47.2441  Z" fill="#ffffff" fill-rule="evenodd" fill-opacity="1"/>
<defs>
  <clipPath id="clip352">
    <rect x="205" y="47" width="2976" height="1451"/>
  </clipPath>
</defs>
<polyline clip-path="url(#clip352)" style="stroke:#000000; stroke-linecap:round; stroke-linejoin:round; stroke-width:2; stroke-opacity:0.1; fill:none" points="289.284,1497.68 289.284,47.2441 "/>
<polyline clip-path="url(#clip352)" style="stroke:#000000; stroke-linecap:round; stroke-linejoin:round; stroke-width:2; stroke-opacity:0.1; fill:none" points="1096.06,1497.68 1096.06,47.2441 "/>
<polyline clip-path="url(#clip352)" style="stroke:#000000; stroke-linecap:round; stroke-linejoin:round; stroke-width:2; stroke-opacity:0.1; fill:none" points="1902.84,1497.68 1902.84,47.2441 "/>
<polyline clip-path="url(#clip352)" style="stroke:#000000; stroke-linecap:round; stroke-linejoin:round; stroke-width:2; stroke-opacity:0.1; fill:none" points="2709.62,1497.68 2709.62,47.2441 "/>
<polyline clip-path="url(#clip350)" style="stroke:#000000; stroke-linecap:round; stroke-linejoin:round; stroke-width:4; stroke-opacity:1; fill:none" points="205.077,1497.68 3180.41,1497.68 "/>
<polyline clip-path="url(#clip350)" style="stroke:#000000; stroke-linecap:round; stroke-linejoin:round; stroke-width:4; stroke-opacity:1; fill:none" points="289.284,1497.68 289.284,1478.78 "/>
<polyline clip-path="url(#clip350)" style="stroke:#000000; stroke-linecap:round; stroke-linejoin:round; stroke-width:4; stroke-opacity:1; fill:none" points="1096.06,1497.68 1096.06,1478.78 "/>
<polyline clip-path="url(#clip350)" style="stroke:#000000; stroke-linecap:round; stroke-linejoin:round; stroke-width:4; stroke-opacity:1; fill:none" points="1902.84,1497.68 1902.84,1478.78 "/>
<polyline clip-path="url(#clip350)" style="stroke:#000000; stroke-linecap:round; stroke-linejoin:round; stroke-width:4; stroke-opacity:1; fill:none" points="2709.62,1497.68 2709.62,1478.78 "/>
<path clip-path="url(#clip350)" d="M144.09 1573.85 L162.449 1573.85 L162.449 1578.28 L137.761 1578.28 L137.761 1573.85 Q140.756 1570.75 145.912 1565.55 Q151.095 1560.31 152.423 1558.8 Q154.949 1555.96 155.938 1554.01 Q156.954 1552.03 156.954 1550.13 Q156.954 1547.03 154.767 1545.08 Q152.605 1543.12 149.116 1543.12 Q146.642 1543.12 143.881 1543.98 Q141.147 1544.84 138.022 1546.59 L138.022 1541.27 Q141.199 1540 143.959 1539.35 Q146.72 1538.7 149.011 1538.7 Q155.053 1538.7 158.647 1541.72 Q162.24 1544.74 162.24 1549.79 Q162.24 1552.19 161.329 1554.35 Q160.444 1556.48 158.074 1559.4 Q157.423 1560.15 153.933 1563.77 Q150.444 1567.37 144.09 1573.85 Z" fill="#000000" fill-rule="nonzero" fill-opacity="1" /><path clip-path="url(#clip350)" d="M184.74 1542.86 Q180.678 1542.86 178.621 1546.87 Q176.589 1550.86 176.589 1558.88 Q176.589 1566.87 178.621 1570.88 Q180.678 1574.87 184.74 1574.87 Q188.829 1574.87 190.86 1570.88 Q192.917 1566.87 192.917 1558.88 Q192.917 1550.86 190.86 1546.87 Q188.829 1542.86 184.74 1542.86 M184.74 1538.7 Q191.277 1538.7 194.714 1543.88 Q198.178 1549.04 198.178 1558.88 Q198.178 1568.7 194.714 1573.88 Q191.277 1579.04 184.74 1579.04 Q178.204 1579.04 174.74 1573.88 Q171.303 1568.7 171.303 1558.88 Q171.303 1549.04 174.74 1543.88 Q178.204 1538.7 184.74 1538.7 Z" fill="#000000" fill-rule="nonzero" fill-opacity="1" /><path clip-path="url(#clip350)" d="M211.954 1573.85 L230.313 1573.85 L230.313 1578.28 L205.626 1578.28 L205.626 1573.85 Q208.62 1570.75 213.777 1565.55 Q218.959 1560.31 220.287 1558.8 Q222.813 1555.96 223.803 1554.01 Q224.818 1552.03 224.818 1550.13 Q224.818 1547.03 222.631 1545.08 Q220.469 1543.12 216.98 1543.12 Q214.506 1543.12 211.745 1543.98 Q209.011 1544.84 205.886 1546.59 L205.886 1541.27 Q209.063 1540 211.824 1539.35 Q214.584 1538.7 216.876 1538.7 Q222.917 1538.7 226.511 1541.72 Q230.105 1544.74 230.105 1549.79 Q230.105 1552.19 229.193 1554.35 Q228.308 1556.48 225.938 1559.4 Q225.287 1560.15 221.797 1563.77 Q218.308 1567.37 211.954 1573.85 Z" fill="#000000" fill-rule="nonzero" fill-opacity="1" /><path clip-path="url(#clip350)" d="M245.886 1573.85 L264.245 1573.85 L264.245 1578.28 L239.558 1578.28 L239.558 1573.85 Q242.553 1570.75 247.709 1565.55 Q252.891 1560.31 254.219 1558.8 Q256.745 1555.96 257.735 1554.01 Q258.75 1552.03 258.75 1550.13 Q258.75 1547.03 256.563 1545.08 Q254.401 1543.12 250.912 1543.12 Q248.438 1543.12 245.678 1543.98 Q242.943 1544.84 239.818 1546.59 L239.818 1541.27 Q242.995 1540 245.756 1539.35 Q248.516 1538.7 250.808 1538.7 Q256.849 1538.7 260.443 1541.72 Q264.037 1544.74 264.037 1549.79 Q264.037 1552.19 263.125 1554.35 Q262.24 1556.48 259.87 1559.4 Q259.219 1560.15 255.73 1563.77 Q252.24 1567.37 245.886 1573.85 Z" fill="#000000" fill-rule="nonzero" fill-opacity="1" /><path clip-path="url(#clip350)" d="M272.188 1561.54 L286.224 1561.54 L286.224 1565.81 L272.188 1565.81 L272.188 1561.54 Z" fill="#000000" fill-rule="nonzero" fill-opacity="1" /><path clip-path="url(#clip350)" d="M295.443 1573.85 L304.037 1573.85 L304.037 1544.19 L294.688 1546.07 L294.688 1541.27 L303.985 1539.4 L309.245 1539.4 L309.245 1573.85 L317.839 1573.85 L317.839 1578.28 L295.443 1578.28 L295.443 1573.85 Z" fill="#000000" fill-rule="nonzero" fill-opacity="1" /><path clip-path="url(#clip350)" d="M339.713 1542.86 Q335.651 1542.86 333.594 1546.87 Q331.562 1550.86 331.562 1558.88 Q331.562 1566.87 333.594 1570.88 Q335.651 1574.87 339.713 1574.87 Q343.802 1574.87 345.833 1570.88 Q347.891 1566.87 347.891 1558.88 Q347.891 1550.86 345.833 1546.87 Q343.802 1542.86 339.713 1542.86 M339.713 1538.7 Q346.25 1538.7 349.687 1543.88 Q353.151 1549.04 353.151 1558.88 Q353.151 1568.7 349.687 1573.88 Q346.25 1579.04 339.713 1579.04 Q333.177 1579.04 329.714 1573.88 Q326.276 1568.7 326.276 1558.88 Q326.276 1549.04 329.714 1543.88 Q333.177 1538.7 339.713 1538.7 Z" fill="#000000" fill-rule="nonzero" fill-opacity="1" /><path clip-path="url(#clip350)" d="M359.297 1561.54 L373.333 1561.54 L373.333 1565.81 L359.297 1565.81 L359.297 1561.54 Z" fill="#000000" fill-rule="nonzero" fill-opacity="1" /><path clip-path="url(#clip350)" d="M386.172 1573.85 L404.531 1573.85 L404.531 1578.28 L379.843 1578.28 L379.843 1573.85 Q382.838 1570.75 387.994 1565.55 Q393.177 1560.31 394.505 1558.8 Q397.031 1555.96 398.02 1554.01 Q399.036 1552.03 399.036 1550.13 Q399.036 1547.03 396.849 1545.08 Q394.687 1543.12 391.198 1543.12 Q388.724 1543.12 385.963 1543.98 Q383.229 1544.84 380.104 1546.59 L380.104 1541.27 Q383.281 1540 386.041 1539.35 Q388.802 1538.7 391.093 1538.7 Q397.135 1538.7 400.729 1541.72 Q404.323 1544.74 404.323 1549.79 Q404.323 1552.19 403.411 1554.35 Q402.526 1556.48 400.156 1559.4 Q399.505 1560.15 396.015 1563.77 Q392.526 1567.37 386.172 1573.85 Z" fill="#000000" fill-rule="nonzero" fill-opacity="1" /><path clip-path="url(#clip350)" d="M430.026 1543.98 L416.744 1564.74 L430.026 1564.74 L430.026 1543.98 M428.645 1539.4 L435.26 1539.4 L435.26 1564.74 L440.807 1564.74 L440.807 1569.11 L435.26 1569.11 L435.26 1578.28 L430.026 1578.28 L430.026 1569.11 L412.474 1569.11 L412.474 1564.04 L428.645 1539.4 Z" fill="#000000" fill-rule="nonzero" fill-opacity="1" /><path clip-path="url(#clip350)" d="M951.051 1573.85 L969.41 1573.85 L969.41 1578.28 L944.723 1578.28 L944.723 1573.85 Q947.718 1570.75 952.874 1565.55 Q958.056 1560.31 959.384 1558.8 Q961.91 1555.96 962.9 1554.01 Q963.915 1552.03 963.915 1550.13 Q963.915 1547.03 961.728 1545.08 Q959.566 1543.12 956.077 1543.12 Q953.603 1543.12 950.843 1543.98 Q948.108 1544.84 944.983 1546.59 L944.983 1541.27 Q948.16 1540 950.921 1539.35 Q953.681 1538.7 955.973 1538.7 Q962.014 1538.7 965.608 1541.72 Q969.202 1544.74 969.202 1549.79 Q969.202 1552.19 968.29 1554.35 Q967.405 1556.48 965.035 1559.4 Q964.384 1560.15 960.895 1563.77 Q957.405 1567.37 951.051 1573.85 Z" fill="#000000" fill-rule="nonzero" fill-opacity="1" /><path clip-path="url(#clip350)" d="M991.702 1542.86 Q987.639 1542.86 985.582 1546.87 Q983.551 1550.86 983.551 1558.88 Q983.551 1566.87 985.582 1570.88 Q987.639 1574.87 991.702 1574.87 Q995.79 1574.87 997.821 1570.88 Q999.879 1566.87 999.879 1558.88 Q999.879 1550.86 997.821 1546.87 Q995.79 1542.86 991.702 1542.86 M991.702 1538.7 Q998.238 1538.7 1001.68 1543.88 Q1005.14 1549.04 1005.14 1558.88 Q1005.14 1568.7 1001.68 1573.88 Q998.238 1579.04 991.702 1579.04 Q985.165 1579.04 981.702 1573.88 Q978.264 1568.7 978.264 1558.88 Q978.264 1549.04 981.702 1543.88 Q985.165 1538.7 991.702 1538.7 Z" fill="#000000" fill-rule="nonzero" fill-opacity="1" /><path clip-path="url(#clip350)" d="M1018.92 1573.85 L1037.27 1573.85 L1037.27 1578.28 L1012.59 1578.28 L1012.59 1573.85 Q1015.58 1570.75 1020.74 1565.55 Q1025.92 1560.31 1027.25 1558.8 Q1029.77 1555.96 1030.76 1554.01 Q1031.78 1552.03 1031.78 1550.13 Q1031.78 1547.03 1029.59 1545.08 Q1027.43 1543.12 1023.94 1543.12 Q1021.47 1543.12 1018.71 1543.98 Q1015.97 1544.84 1012.85 1546.59 L1012.85 1541.27 Q1016.02 1540 1018.78 1539.35 Q1021.55 1538.7 1023.84 1538.7 Q1029.88 1538.7 1033.47 1541.72 Q1037.07 1544.74 1037.07 1549.79 Q1037.07 1552.19 1036.15 1554.35 Q1035.27 1556.48 1032.9 1559.4 Q1032.25 1560.15 1028.76 1563.77 Q1025.27 1567.37 1018.92 1573.85 Z" fill="#000000" fill-rule="nonzero" fill-opacity="1" /><path clip-path="url(#clip350)" d="M1052.85 1573.85 L1071.21 1573.85 L1071.21 1578.28 L1046.52 1578.28 L1046.52 1573.85 Q1049.51 1570.75 1054.67 1565.55 Q1059.85 1560.31 1061.18 1558.8 Q1063.71 1555.96 1064.7 1554.01 Q1065.71 1552.03 1065.71 1550.13 Q1065.71 1547.03 1063.52 1545.08 Q1061.36 1543.12 1057.87 1543.12 Q1055.4 1543.12 1052.64 1543.98 Q1049.9 1544.84 1046.78 1546.59 L1046.78 1541.27 Q1049.96 1540 1052.72 1539.35 Q1055.48 1538.7 1057.77 1538.7 Q1063.81 1538.7 1067.4 1541.72 Q1071 1544.74 1071 1549.79 Q1071 1552.19 1070.09 1554.35 Q1069.2 1556.48 1066.83 1559.4 Q1066.18 1560.15 1062.69 1563.77 Q1059.2 1567.37 1052.85 1573.85 Z" fill="#000000" fill-rule="nonzero" fill-opacity="1" /><path clip-path="url(#clip350)" d="M1079.15 1561.54 L1093.19 1561.54 L1093.19 1565.81 L1079.15 1565.81 L1079.15 1561.54 Z" fill="#000000" fill-rule="nonzero" fill-opacity="1" /><path clip-path="url(#clip350)" d="M1102.4 1573.85 L1111 1573.85 L1111 1544.19 L1101.65 1546.07 L1101.65 1541.27 L1110.95 1539.4 L1116.21 1539.4 L1116.21 1573.85 L1124.8 1573.85 L1124.8 1578.28 L1102.4 1578.28 L1102.4 1573.85 Z" fill="#000000" fill-rule="nonzero" fill-opacity="1" /><path clip-path="url(#clip350)" d="M1146.67 1542.86 Q1142.61 1542.86 1140.56 1546.87 Q1138.52 1550.86 1138.52 1558.88 Q1138.52 1566.87 1140.56 1570.88 Q1142.61 1574.87 1146.67 1574.87 Q1150.76 1574.87 1152.79 1570.88 Q1154.85 1566.87 1154.85 1558.88 Q1154.85 1550.86 1152.79 1546.87 Q1150.76 1542.86 1146.67 1542.86 M1146.67 1538.7 Q1153.21 1538.7 1156.65 1543.88 Q1160.11 1549.04 1160.11 1558.88 Q1160.11 1568.7 1156.65 1573.88 Q1153.21 1579.04 1146.67 1579.04 Q1140.14 1579.04 1136.67 1573.88 Q1133.24 1568.7 1133.24 1558.88 Q1133.24 1549.04 1136.67 1543.88 Q1140.14 1538.7 1146.67 1538.7 Z" fill="#000000" fill-rule="nonzero" fill-opacity="1" /><path clip-path="url(#clip350)" d="M1166.26 1561.54 L1180.29 1561.54 L1180.29 1565.81 L1166.26 1565.81 L1166.26 1561.54 Z" fill="#000000" fill-rule="nonzero" fill-opacity="1" /><path clip-path="url(#clip350)" d="M1193.13 1573.85 L1211.49 1573.85 L1211.49 1578.28 L1186.8 1578.28 L1186.8 1573.85 Q1189.8 1570.75 1194.96 1565.55 Q1200.14 1560.31 1201.47 1558.8 Q1203.99 1555.96 1204.98 1554.01 Q1206 1552.03 1206 1550.13 Q1206 1547.03 1203.81 1545.08 Q1201.65 1543.12 1198.16 1543.12 Q1195.69 1543.12 1192.92 1543.98 Q1190.19 1544.84 1187.07 1546.59 L1187.07 1541.27 Q1190.24 1540 1193 1539.35 Q1195.76 1538.7 1198.05 1538.7 Q1204.1 1538.7 1207.69 1541.72 Q1211.28 1544.74 1211.28 1549.79 Q1211.28 1552.19 1210.37 1554.35 Q1209.49 1556.48 1207.12 1559.4 Q1206.47 1560.15 1202.98 1563.77 Q1199.49 1567.37 1193.13 1573.85 Z" fill="#000000" fill-rule="nonzero" fill-opacity="1" /><path clip-path="url(#clip350)" d="M1234.43 1556.74 Q1230.89 1556.74 1228.81 1559.17 Q1226.75 1561.59 1226.75 1565.81 Q1226.75 1570 1228.81 1572.45 Q1230.89 1574.87 1234.43 1574.87 Q1237.98 1574.87 1240.03 1572.45 Q1242.12 1570 1242.12 1565.81 Q1242.12 1561.59 1240.03 1559.17 Q1237.98 1556.74 1234.43 1556.74 M1244.88 1540.26 L1244.88 1545.05 Q1242.9 1544.11 1240.87 1543.62 Q1238.86 1543.12 1236.88 1543.12 Q1231.67 1543.12 1228.91 1546.64 Q1226.18 1550.16 1225.79 1557.26 Q1227.33 1555 1229.64 1553.8 Q1231.96 1552.58 1234.75 1552.58 Q1240.61 1552.58 1243.99 1556.14 Q1247.4 1559.69 1247.4 1565.81 Q1247.4 1571.8 1243.86 1575.42 Q1240.32 1579.04 1234.43 1579.04 Q1227.69 1579.04 1224.12 1573.88 Q1220.55 1568.7 1220.55 1558.88 Q1220.55 1549.66 1224.93 1544.19 Q1229.3 1538.7 1236.67 1538.7 Q1238.65 1538.7 1240.66 1539.09 Q1242.69 1539.48 1244.88 1540.26 Z" fill="#000000" fill-rule="nonzero" fill-opacity="1" /><path clip-path="url(#clip350)" d="M1757.97 1573.85 L1776.33 1573.85 L1776.33 1578.28 L1751.65 1578.28 L1751.65 1573.85 Q1754.64 1570.75 1759.8 1565.55 Q1764.98 1560.31 1766.31 1558.8 Q1768.83 1555.96 1769.82 1554.01 Q1770.84 1552.03 1770.84 1550.13 Q1770.84 1547.03 1768.65 1545.08 Q1766.49 1543.12 1763 1543.12 Q1760.53 1543.12 1757.76 1543.98 Q1755.03 1544.84 1751.91 1546.59 L1751.91 1541.27 Q1755.08 1540 1757.84 1539.35 Q1760.6 1538.7 1762.9 1538.7 Q1768.94 1538.7 1772.53 1541.72 Q1776.12 1544.74 1776.12 1549.79 Q1776.12 1552.19 1775.21 1554.35 Q1774.33 1556.48 1771.96 1559.4 Q1771.31 1560.15 1767.82 1563.77 Q1764.33 1567.37 1757.97 1573.85 Z" fill="#000000" fill-rule="nonzero" fill-opacity="1" /><path clip-path="url(#clip350)" d="M1798.62 1542.86 Q1794.56 1542.86 1792.5 1546.87 Q1790.47 1550.86 1790.47 1558.88 Q1790.47 1566.87 1792.5 1570.88 Q1794.56 1574.87 1798.62 1574.87 Q1802.71 1574.87 1804.74 1570.88 Q1806.8 1566.87 1806.8 1558.88 Q1806.8 1550.86 1804.74 1546.87 Q1802.71 1542.86 1798.62 1542.86 M1798.62 1538.7 Q1805.16 1538.7 1808.6 1543.88 Q1812.06 1549.04 1812.06 1558.88 Q1812.06 1568.7 1808.6 1573.88 Q1805.16 1579.04 1798.62 1579.04 Q1792.09 1579.04 1788.62 1573.88 Q1785.19 1568.7 1785.19 1558.88 Q1785.19 1549.04 1788.62 1543.88 Q1792.09 1538.7 1798.62 1538.7 Z" fill="#000000" fill-rule="nonzero" fill-opacity="1" /><path clip-path="url(#clip350)" d="M1825.84 1573.85 L1844.2 1573.85 L1844.2 1578.28 L1819.51 1578.28 L1819.51 1573.85 Q1822.5 1570.75 1827.66 1565.55 Q1832.84 1560.31 1834.17 1558.8 Q1836.7 1555.96 1837.69 1554.01 Q1838.7 1552.03 1838.7 1550.13 Q1838.7 1547.03 1836.51 1545.08 Q1834.35 1543.12 1830.86 1543.12 Q1828.39 1543.12 1825.63 1543.98 Q1822.89 1544.84 1819.77 1546.59 L1819.77 1541.27 Q1822.95 1540 1825.71 1539.35 Q1828.47 1538.7 1830.76 1538.7 Q1836.8 1538.7 1840.39 1541.72 Q1843.99 1544.74 1843.99 1549.79 Q1843.99 1552.19 1843.08 1554.35 Q1842.19 1556.48 1839.82 1559.4 Q1839.17 1560.15 1835.68 1563.77 Q1832.19 1567.37 1825.84 1573.85 Z" fill="#000000" fill-rule="nonzero" fill-opacity="1" /><path clip-path="url(#clip350)" d="M1859.77 1573.85 L1878.13 1573.85 L1878.13 1578.28 L1853.44 1578.28 L1853.44 1573.85 Q1856.44 1570.75 1861.59 1565.55 Q1866.77 1560.31 1868.1 1558.8 Q1870.63 1555.96 1871.62 1554.01 Q1872.63 1552.03 1872.63 1550.13 Q1872.63 1547.03 1870.45 1545.08 Q1868.29 1543.12 1864.8 1543.12 Q1862.32 1543.12 1859.56 1543.98 Q1856.83 1544.84 1853.7 1546.59 L1853.7 1541.27 Q1856.88 1540 1859.64 1539.35 Q1862.4 1538.7 1864.69 1538.7 Q1870.73 1538.7 1874.33 1541.72 Q1877.92 1544.74 1877.92 1549.79 Q1877.92 1552.19 1877.01 1554.35 Q1876.12 1556.48 1873.75 1559.4 Q1873.1 1560.15 1869.61 1563.77 Q1866.12 1567.37 1859.77 1573.85 Z" fill="#000000" fill-rule="nonzero" fill-opacity="1" /><path clip-path="url(#clip350)" d="M1886.07 1561.54 L1900.11 1561.54 L1900.11 1565.81 L1886.07 1565.81 L1886.07 1561.54 Z" fill="#000000" fill-rule="nonzero" fill-opacity="1" /><path clip-path="url(#clip350)" d="M1909.33 1573.85 L1917.92 1573.85 L1917.92 1544.19 L1908.57 1546.07 L1908.57 1541.27 L1917.87 1539.4 L1923.13 1539.4 L1923.13 1573.85 L1931.72 1573.85 L1931.72 1578.28 L1909.33 1578.28 L1909.33 1573.85 Z" fill="#000000" fill-rule="nonzero" fill-opacity="1" /><path clip-path="url(#clip350)" d="M1953.6 1542.86 Q1949.53 1542.86 1947.48 1546.87 Q1945.45 1550.86 1945.45 1558.88 Q1945.45 1566.87 1947.48 1570.88 Q1949.53 1574.87 1953.6 1574.87 Q1957.69 1574.87 1959.72 1570.88 Q1961.77 1566.87 1961.77 1558.88 Q1961.77 1550.86 1959.72 1546.87 Q1957.69 1542.86 1953.6 1542.86 M1953.6 1538.7 Q1960.13 1538.7 1963.57 1543.88 Q1967.03 1549.04 1967.03 1558.88 Q1967.03 1568.7 1963.57 1573.88 Q1960.13 1579.04 1953.6 1579.04 Q1947.06 1579.04 1943.6 1573.88 Q1940.16 1568.7 1940.16 1558.88 Q1940.16 1549.04 1943.6 1543.88 Q1947.06 1538.7 1953.6 1538.7 Z" fill="#000000" fill-rule="nonzero" fill-opacity="1" /><path clip-path="url(#clip350)" d="M1973.18 1561.54 L1987.22 1561.54 L1987.22 1565.81 L1973.18 1565.81 L1973.18 1561.54 Z" fill="#000000" fill-rule="nonzero" fill-opacity="1" /><path clip-path="url(#clip350)" d="M2000.06 1573.85 L2018.41 1573.85 L2018.41 1578.28 L1993.73 1578.28 L1993.73 1573.85 Q1996.72 1570.75 2001.88 1565.55 Q2007.06 1560.31 2008.39 1558.8 Q2010.91 1555.96 2011.9 1554.01 Q2012.92 1552.03 2012.92 1550.13 Q2012.92 1547.03 2010.73 1545.08 Q2008.57 1543.12 2005.08 1543.12 Q2002.61 1543.12 1999.85 1543.98 Q1997.11 1544.84 1993.99 1546.59 L1993.99 1541.27 Q1997.16 1540 1999.93 1539.35 Q2002.69 1538.7 2004.98 1538.7 Q2011.02 1538.7 2014.61 1541.72 Q2018.21 1544.74 2018.21 1549.79 Q2018.21 1552.19 2017.29 1554.35 Q2016.41 1556.48 2014.04 1559.4 Q2013.39 1560.15 2009.9 1563.77 Q2006.41 1567.37 2000.06 1573.85 Z" fill="#000000" fill-rule="nonzero" fill-opacity="1" /><path clip-path="url(#clip350)" d="M2040.71 1559.82 Q2036.96 1559.82 2034.79 1561.82 Q2032.66 1563.83 2032.66 1567.34 Q2032.66 1570.86 2034.79 1572.86 Q2036.96 1574.87 2040.71 1574.87 Q2044.46 1574.87 2046.62 1572.86 Q2048.78 1570.83 2048.78 1567.34 Q2048.78 1563.83 2046.62 1561.82 Q2044.48 1559.82 2040.71 1559.82 M2035.45 1557.58 Q2032.06 1556.74 2030.16 1554.43 Q2028.28 1552.11 2028.28 1548.77 Q2028.28 1544.11 2031.59 1541.41 Q2034.92 1538.7 2040.71 1538.7 Q2046.51 1538.7 2049.82 1541.41 Q2053.13 1544.11 2053.13 1548.77 Q2053.13 1552.11 2051.23 1554.43 Q2049.35 1556.74 2045.99 1557.58 Q2049.79 1558.46 2051.9 1561.04 Q2054.04 1563.62 2054.04 1567.34 Q2054.04 1572.99 2050.58 1576.01 Q2047.14 1579.04 2040.71 1579.04 Q2034.27 1579.04 2030.81 1576.01 Q2027.37 1572.99 2027.37 1567.34 Q2027.37 1563.62 2029.51 1561.04 Q2031.64 1558.46 2035.45 1557.58 M2033.52 1549.27 Q2033.52 1552.29 2035.39 1553.98 Q2037.29 1555.68 2040.71 1555.68 Q2044.09 1555.68 2045.99 1553.98 Q2047.92 1552.29 2047.92 1549.27 Q2047.92 1546.25 2045.99 1544.56 Q2044.09 1542.86 2040.71 1542.86 Q2037.29 1542.86 2035.39 1544.56 Q2033.52 1546.25 2033.52 1549.27 Z" fill="#000000" fill-rule="nonzero" fill-opacity="1" /><path clip-path="url(#clip350)" d="M2564.7 1573.85 L2583.06 1573.85 L2583.06 1578.28 L2558.37 1578.28 L2558.37 1573.85 Q2561.37 1570.75 2566.52 1565.55 Q2571.71 1560.31 2573.03 1558.8 Q2575.56 1555.96 2576.55 1554.01 Q2577.56 1552.03 2577.56 1550.13 Q2577.56 1547.03 2575.38 1545.08 Q2573.22 1543.12 2569.73 1543.12 Q2567.25 1543.12 2564.49 1543.98 Q2561.76 1544.84 2558.63 1546.59 L2558.63 1541.27 Q2561.81 1540 2564.57 1539.35 Q2567.33 1538.7 2569.62 1538.7 Q2575.66 1538.7 2579.26 1541.72 Q2582.85 1544.74 2582.85 1549.79 Q2582.85 1552.19 2581.94 1554.35 Q2581.05 1556.48 2578.68 1559.4 Q2578.03 1560.15 2574.54 1563.77 Q2571.05 1567.37 2564.7 1573.85 Z" fill="#000000" fill-rule="nonzero" fill-opacity="1" /><path clip-path="url(#clip350)" d="M2605.35 1542.86 Q2601.29 1542.86 2599.23 1546.87 Q2597.2 1550.86 2597.2 1558.88 Q2597.2 1566.87 2599.23 1570.88 Q2601.29 1574.87 2605.35 1574.87 Q2609.44 1574.87 2611.47 1570.88 Q2613.53 1566.87 2613.53 1558.88 Q2613.53 1550.86 2611.47 1546.87 Q2609.44 1542.86 2605.35 1542.86 M2605.35 1538.7 Q2611.89 1538.7 2615.32 1543.88 Q2618.79 1549.04 2618.79 1558.88 Q2618.79 1568.7 2615.32 1573.88 Q2611.89 1579.04 2605.35 1579.04 Q2598.81 1579.04 2595.35 1573.88 Q2591.91 1568.7 2591.91 1558.88 Q2591.91 1549.04 2595.35 1543.88 Q2598.81 1538.7 2605.35 1538.7 Z" fill="#000000" fill-rule="nonzero" fill-opacity="1" /><path clip-path="url(#clip350)" d="M2632.56 1573.85 L2650.92 1573.85 L2650.92 1578.28 L2626.24 1578.28 L2626.24 1573.85 Q2629.23 1570.75 2634.39 1565.55 Q2639.57 1560.31 2640.9 1558.8 Q2643.42 1555.96 2644.41 1554.01 Q2645.43 1552.03 2645.43 1550.13 Q2645.43 1547.03 2643.24 1545.08 Q2641.08 1543.12 2637.59 1543.12 Q2635.12 1543.12 2632.36 1543.98 Q2629.62 1544.84 2626.5 1546.59 L2626.5 1541.27 Q2629.67 1540 2632.43 1539.35 Q2635.19 1538.7 2637.49 1538.7 Q2643.53 1538.7 2647.12 1541.72 Q2650.72 1544.74 2650.72 1549.79 Q2650.72 1552.19 2649.8 1554.35 Q2648.92 1556.48 2646.55 1559.4 Q2645.9 1560.15 2642.41 1563.77 Q2638.92 1567.37 2632.56 1573.85 Z" fill="#000000" fill-rule="nonzero" fill-opacity="1" /><path clip-path="url(#clip350)" d="M2666.5 1573.85 L2684.86 1573.85 L2684.86 1578.28 L2660.17 1578.28 L2660.17 1573.85 Q2663.16 1570.75 2668.32 1565.55 Q2673.5 1560.31 2674.83 1558.8 Q2677.36 1555.96 2678.35 1554.01 Q2679.36 1552.03 2679.36 1550.13 Q2679.36 1547.03 2677.17 1545.08 Q2675.01 1543.12 2671.52 1543.12 Q2669.05 1543.12 2666.29 1543.98 Q2663.55 1544.84 2660.43 1546.59 L2660.43 1541.27 Q2663.61 1540 2666.37 1539.35 Q2669.13 1538.7 2671.42 1538.7 Q2677.46 1538.7 2681.05 1541.72 Q2684.65 1544.74 2684.65 1549.79 Q2684.65 1552.19 2683.74 1554.35 Q2682.85 1556.48 2680.48 1559.4 Q2679.83 1560.15 2676.34 1563.77 Q2672.85 1567.37 2666.5 1573.85 Z" fill="#000000" fill-rule="nonzero" fill-opacity="1" /><path clip-path="url(#clip350)" d="M2692.8 1561.54 L2706.83 1561.54 L2706.83 1565.81 L2692.8 1565.81 L2692.8 1561.54 Z" fill="#000000" fill-rule="nonzero" fill-opacity="1" /><path clip-path="url(#clip350)" d="M2716.05 1573.85 L2724.65 1573.85 L2724.65 1544.19 L2715.3 1546.07 L2715.3 1541.27 L2724.6 1539.4 L2729.86 1539.4 L2729.86 1573.85 L2738.45 1573.85 L2738.45 1578.28 L2716.05 1578.28 L2716.05 1573.85 Z" fill="#000000" fill-rule="nonzero" fill-opacity="1" /><path clip-path="url(#clip350)" d="M2760.32 1542.86 Q2756.26 1542.86 2754.2 1546.87 Q2752.17 1550.86 2752.17 1558.88 Q2752.17 1566.87 2754.2 1570.88 Q2756.26 1574.87 2760.32 1574.87 Q2764.41 1574.87 2766.44 1570.88 Q2768.5 1566.87 2768.5 1558.88 Q2768.5 1550.86 2766.44 1546.87 Q2764.41 1542.86 2760.32 1542.86 M2760.32 1538.7 Q2766.86 1538.7 2770.3 1543.88 Q2773.76 1549.04 2773.76 1558.88 Q2773.76 1568.7 2770.3 1573.88 Q2766.86 1579.04 2760.32 1579.04 Q2753.79 1579.04 2750.32 1573.88 Q2746.89 1568.7 2746.89 1558.88 Q2746.89 1549.04 2750.32 1543.88 Q2753.79 1538.7 2760.32 1538.7 Z" fill="#000000" fill-rule="nonzero" fill-opacity="1" /><path clip-path="url(#clip350)" d="M2779.91 1561.54 L2793.94 1561.54 L2793.94 1565.81 L2779.91 1565.81 L2779.91 1561.54 Z" fill="#000000" fill-rule="nonzero" fill-opacity="1" /><path clip-path="url(#clip350)" d="M2818.19 1557.32 Q2821.96 1558.12 2824.07 1560.68 Q2826.21 1563.23 2826.21 1566.98 Q2826.21 1572.73 2822.25 1575.88 Q2818.29 1579.04 2811 1579.04 Q2808.55 1579.04 2805.95 1578.54 Q2803.37 1578.07 2800.61 1577.11 L2800.61 1572.03 Q2802.8 1573.31 2805.4 1573.96 Q2808.01 1574.61 2810.84 1574.61 Q2815.79 1574.61 2818.37 1572.65 Q2820.97 1570.7 2820.97 1566.98 Q2820.97 1563.54 2818.55 1561.61 Q2816.16 1559.66 2811.86 1559.66 L2807.33 1559.66 L2807.33 1555.34 L2812.07 1555.34 Q2815.95 1555.34 2818.01 1553.8 Q2820.06 1552.24 2820.06 1549.32 Q2820.06 1546.33 2817.93 1544.74 Q2815.82 1543.12 2811.86 1543.12 Q2809.7 1543.12 2807.22 1543.59 Q2804.75 1544.06 2801.78 1545.05 L2801.78 1540.36 Q2804.78 1539.53 2807.38 1539.11 Q2810.01 1538.7 2812.33 1538.7 Q2818.32 1538.7 2821.81 1541.43 Q2825.3 1544.14 2825.3 1548.77 Q2825.3 1552 2823.45 1554.24 Q2821.6 1556.46 2818.19 1557.32 Z" fill="#000000" fill-rule="nonzero" fill-opacity="1" /><path clip-path="url(#clip350)" d="M2847.43 1542.86 Q2843.37 1542.86 2841.31 1546.87 Q2839.28 1550.86 2839.28 1558.88 Q2839.28 1566.87 2841.31 1570.88 Q2843.37 1574.87 2847.43 1574.87 Q2851.52 1574.87 2853.55 1570.88 Q2855.61 1566.87 2855.61 1558.88 Q2855.61 1550.86 2853.55 1546.87 Q2851.52 1542.86 2847.43 1542.86 M2847.43 1538.7 Q2853.97 1538.7 2857.41 1543.88 Q2860.87 1549.04 2860.87 1558.88 Q2860.87 1568.7 2857.41 1573.88 Q2853.97 1579.04 2847.43 1579.04 Q2840.9 1579.04 2837.43 1573.88 Q2834 1568.7 2834 1558.88 Q2834 1549.04 2837.43 1543.88 Q2840.9 1538.7 2847.43 1538.7 Z" fill="#000000" fill-rule="nonzero" fill-opacity="1" /><polyline clip-path="url(#clip352)" style="stroke:#000000; stroke-linecap:round; stroke-linejoin:round; stroke-width:2; stroke-opacity:0.1; fill:none" points="205.077,1439.58 3180.41,1439.58 "/>
<polyline clip-path="url(#clip352)" style="stroke:#000000; stroke-linecap:round; stroke-linejoin:round; stroke-width:2; stroke-opacity:0.1; fill:none" points="205.077,1033.69 3180.41,1033.69 "/>
<polyline clip-path="url(#clip352)" style="stroke:#000000; stroke-linecap:round; stroke-linejoin:round; stroke-width:2; stroke-opacity:0.1; fill:none" points="205.077,627.799 3180.41,627.799 "/>
<polyline clip-path="url(#clip352)" style="stroke:#000000; stroke-linecap:round; stroke-linejoin:round; stroke-width:2; stroke-opacity:0.1; fill:none" points="205.077,221.907 3180.41,221.907 "/>
<polyline clip-path="url(#clip350)" style="stroke:#000000; stroke-linecap:round; stroke-linejoin:round; stroke-width:4; stroke-opacity:1; fill:none" points="205.077,1497.68 205.077,47.2441 "/>
<polyline clip-path="url(#clip350)" style="stroke:#000000; stroke-linecap:round; stroke-linejoin:round; stroke-width:4; stroke-opacity:1; fill:none" points="205.077,1439.58 220.08,1439.58 "/>
<polyline clip-path="url(#clip350)" style="stroke:#000000; stroke-linecap:round; stroke-linejoin:round; stroke-width:4; stroke-opacity:1; fill:none" points="205.077,1033.69 220.08,1033.69 "/>
<polyline clip-path="url(#clip350)" style="stroke:#000000; stroke-linecap:round; stroke-linejoin:round; stroke-width:4; stroke-opacity:1; fill:none" points="205.077,627.799 220.08,627.799 "/>
<polyline clip-path="url(#clip350)" style="stroke:#000000; stroke-linecap:round; stroke-linejoin:round; stroke-width:4; stroke-opacity:1; fill:none" points="205.077,221.907 220.08,221.907 "/>
<path clip-path="url(#clip350)" d="M90.9882 1454.6 L109.348 1454.6 L109.348 1459.02 L84.6602 1459.02 L84.6602 1454.6 Q87.6549 1451.5 92.8112 1446.29 Q97.9934 1441.05 99.3215 1439.54 Q101.848 1436.7 102.837 1434.75 Q103.853 1432.77 103.853 1430.87 Q103.853 1427.77 101.665 1425.82 Q99.5038 1423.87 96.0143 1423.87 Q93.5403 1423.87 90.7799 1424.73 Q88.0456 1425.59 84.9206 1427.33 L84.9206 1422.02 Q88.0976 1420.74 90.858 1420.09 Q93.6184 1419.44 95.9101 1419.44 Q101.952 1419.44 105.545 1422.46 Q109.139 1425.48 109.139 1430.53 Q109.139 1432.93 108.228 1435.09 Q107.342 1437.23 104.973 1440.14 Q104.322 1440.9 100.832 1444.52 Q97.3424 1448.11 90.9882 1454.6 Z" fill="#000000" fill-rule="nonzero" fill-opacity="1" /><path clip-path="url(#clip350)" d="M131.639 1423.61 Q127.577 1423.61 125.519 1427.62 Q123.488 1431.6 123.488 1439.62 Q123.488 1447.62 125.519 1451.63 Q127.577 1455.61 131.639 1455.61 Q135.728 1455.61 137.759 1451.63 Q139.816 1447.62 139.816 1439.62 Q139.816 1431.6 137.759 1427.62 Q135.728 1423.61 131.639 1423.61 M131.639 1419.44 Q138.175 1419.44 141.613 1424.62 Q145.077 1429.78 145.077 1439.62 Q145.077 1449.44 141.613 1454.62 Q138.175 1459.78 131.639 1459.78 Q125.103 1459.78 121.639 1454.62 Q118.202 1449.44 118.202 1439.62 Q118.202 1429.78 121.639 1424.62 Q125.103 1419.44 131.639 1419.44 Z" fill="#000000" fill-rule="nonzero" fill-opacity="1" /><path clip-path="url(#clip350)" d="M92.108 1048.7 L110.467 1048.7 L110.467 1053.13 L85.7799 1053.13 L85.7799 1048.7 Q88.7747 1045.6 93.9309 1040.4 Q99.1132 1035.16 100.441 1033.65 Q102.967 1030.81 103.957 1028.86 Q104.973 1026.88 104.973 1024.98 Q104.973 1021.88 102.785 1019.93 Q100.624 1017.97 97.134 1017.97 Q94.6601 1017.97 91.8997 1018.83 Q89.1653 1019.69 86.0404 1021.44 L86.0404 1016.13 Q89.2174 1014.85 91.9778 1014.2 Q94.7382 1013.55 97.0299 1013.55 Q103.072 1013.55 106.665 1016.57 Q110.259 1019.59 110.259 1024.64 Q110.259 1027.04 109.348 1029.2 Q108.462 1031.33 106.092 1034.25 Q105.441 1035.01 101.952 1038.63 Q98.4622 1042.22 92.108 1048.7 Z" fill="#000000" fill-rule="nonzero" fill-opacity="1" /><path clip-path="url(#clip350)" d="M121.561 1014.25 L142.212 1014.25 L142.212 1018.68 L126.379 1018.68 L126.379 1028.21 Q127.525 1027.82 128.67 1027.64 Q129.816 1027.43 130.962 1027.43 Q137.472 1027.43 141.274 1031 Q145.077 1034.56 145.077 1040.66 Q145.077 1046.93 141.17 1050.42 Q137.264 1053.89 130.155 1053.89 Q127.707 1053.89 125.155 1053.47 Q122.629 1053.05 119.92 1052.22 L119.92 1046.93 Q122.264 1048.21 124.764 1048.83 Q127.264 1049.46 130.051 1049.46 Q134.556 1049.46 137.186 1047.09 Q139.816 1044.72 139.816 1040.66 Q139.816 1036.59 137.186 1034.22 Q134.556 1031.85 130.051 1031.85 Q127.941 1031.85 125.832 1032.32 Q123.748 1032.79 121.561 1033.78 L121.561 1014.25 Z" fill="#000000" fill-rule="nonzero" fill-opacity="1" /><path clip-path="url(#clip350)" d="M102.394 626.275 Q106.17 627.083 108.28 629.635 Q110.415 632.187 110.415 635.937 Q110.415 641.692 106.457 644.843 Q102.499 647.994 95.207 647.994 Q92.7591 647.994 90.1549 647.499 Q87.5768 647.031 84.8164 646.067 L84.8164 640.989 Q87.0039 642.265 89.608 642.916 Q92.2122 643.567 95.0507 643.567 Q99.9986 643.567 102.577 641.614 Q105.181 639.661 105.181 635.937 Q105.181 632.499 102.759 630.572 Q100.363 628.619 96.0663 628.619 L91.5351 628.619 L91.5351 624.296 L96.2747 624.296 Q100.155 624.296 102.212 622.76 Q104.269 621.197 104.269 618.281 Q104.269 615.286 102.134 613.697 Q100.025 612.083 96.0663 612.083 Q93.9049 612.083 91.431 612.552 Q88.957 613.02 85.9883 614.01 L85.9883 609.322 Q88.9831 608.489 91.5872 608.072 Q94.2174 607.656 96.5351 607.656 Q102.525 607.656 106.014 610.39 Q109.504 613.098 109.504 617.734 Q109.504 620.963 107.655 623.203 Q105.806 625.416 102.394 626.275 Z" fill="#000000" fill-rule="nonzero" fill-opacity="1" /><path clip-path="url(#clip350)" d="M131.639 611.822 Q127.577 611.822 125.519 615.833 Q123.488 619.817 123.488 627.838 Q123.488 635.833 125.519 639.843 Q127.577 643.827 131.639 643.827 Q135.728 643.827 137.759 639.843 Q139.816 635.833 139.816 627.838 Q139.816 619.817 137.759 615.833 Q135.728 611.822 131.639 611.822 M131.639 607.656 Q138.175 607.656 141.613 612.838 Q145.077 617.994 145.077 627.838 Q145.077 637.656 141.613 642.838 Q138.175 647.994 131.639 647.994 Q125.103 647.994 121.639 642.838 Q118.202 637.656 118.202 627.838 Q118.202 617.994 121.639 612.838 Q125.103 607.656 131.639 607.656 Z" fill="#000000" fill-rule="nonzero" fill-opacity="1" /><path clip-path="url(#clip350)" d="M103.514 220.384 Q107.29 221.191 109.4 223.743 Q111.535 226.295 111.535 230.045 Q111.535 235.8 107.577 238.951 Q103.618 242.102 96.3268 242.102 Q93.8789 242.102 91.2747 241.608 Q88.6966 241.139 85.9362 240.175 L85.9362 235.097 Q88.1237 236.373 90.7278 237.024 Q93.332 237.675 96.1705 237.675 Q101.118 237.675 103.697 235.722 Q106.301 233.769 106.301 230.045 Q106.301 226.608 103.879 224.681 Q101.483 222.727 97.1861 222.727 L92.6549 222.727 L92.6549 218.405 L97.3945 218.405 Q101.275 218.405 103.332 216.868 Q105.389 215.306 105.389 212.389 Q105.389 209.394 103.254 207.806 Q101.144 206.191 97.1861 206.191 Q95.0247 206.191 92.5507 206.66 Q90.0768 207.129 87.1081 208.118 L87.1081 203.431 Q90.1028 202.597 92.707 202.181 Q95.3372 201.764 97.6549 201.764 Q103.644 201.764 107.134 204.498 Q110.624 207.207 110.624 211.842 Q110.624 215.071 108.775 217.311 Q106.926 219.524 103.514 220.384 Z" fill="#000000" fill-rule="nonzero" fill-opacity="1" /><path clip-path="url(#clip350)" d="M121.561 202.467 L142.212 202.467 L142.212 206.894 L126.379 206.894 L126.379 216.425 Q127.525 216.035 128.67 215.852 Q129.816 215.644 130.962 215.644 Q137.472 215.644 141.274 219.212 Q145.077 222.779 145.077 228.873 Q145.077 235.149 141.17 238.639 Q137.264 242.102 130.155 242.102 Q127.707 242.102 125.155 241.686 Q122.629 241.269 119.92 240.436 L119.92 235.149 Q122.264 236.425 124.764 237.05 Q127.264 237.675 130.051 237.675 Q134.556 237.675 137.186 235.305 Q139.816 232.936 139.816 228.873 Q139.816 224.811 137.186 222.441 Q134.556 220.071 130.051 220.071 Q127.941 220.071 125.832 220.54 Q123.748 221.009 121.561 221.998 L121.561 202.467 Z" fill="#000000" fill-rule="nonzero" fill-opacity="1" /><path clip-path="url(#clip350)" d="M-31.4998 930.013 L-31.4998 924.168 L11.7002 924.168 L11.7002 930.013 L-31.4998 930.013 Z" fill="#000000" fill-rule="nonzero" fill-opacity="1" /><path clip-path="url(#clip350)" d="M-7.85992 885.829 L11.7002 885.829 L11.7002 891.153 L-7.68631 891.153 Q-12.287 891.153 -14.5728 892.947 Q-16.8587 894.741 -16.8587 898.329 Q-16.8587 902.641 -14.1099 905.129 Q-11.3611 907.618 -6.61572 907.618 L11.7002 907.618 L11.7002 912.97 L-20.7071 912.97 L-20.7071 907.618 L-15.6724 907.618 Q-18.5948 905.708 -20.0416 903.133 Q-21.4883 900.528 -21.4883 897.143 Q-21.4883 891.559 -18.0161 888.694 Q-14.5728 885.829 -7.85992 885.829 Z" fill="#000000" fill-rule="nonzero" fill-opacity="1" /><path clip-path="url(#clip350)" d="M-33.3227 858.804 L-28.8957 858.804 L-28.8957 863.897 Q-28.8957 866.761 -27.7383 867.89 Q-26.5809 868.989 -23.5716 868.989 L-20.7071 868.989 L-20.7071 860.222 L-16.5694 860.222 L-16.5694 868.989 L11.7002 868.989 L11.7002 874.342 L-16.5694 874.342 L-16.5694 879.435 L-20.7071 879.435 L-20.7071 874.342 L-22.964 874.342 Q-28.3749 874.342 -30.8343 871.825 Q-33.3227 869.308 -33.3227 863.839 L-33.3227 858.804 Z" fill="#000000" fill-rule="nonzero" fill-opacity="1" /><path clip-path="url(#clip350)" d="M-33.3227 854.348 L-33.3227 849.024 L11.7002 849.024 L11.7002 854.348 L-33.3227 854.348 Z" fill="#000000" fill-rule="nonzero" fill-opacity="1" /><path clip-path="url(#clip350)" d="M-16.9745 825.326 Q-16.9745 829.609 -13.618 832.097 Q-10.2905 834.585 -4.47452 834.585 Q1.34142 834.585 4.69788 832.126 Q8.02541 829.638 8.02541 825.326 Q8.02541 821.073 4.66895 818.584 Q1.31248 816.096 -4.47452 816.096 Q-10.2326 816.096 -13.5891 818.584 Q-16.9745 821.073 -16.9745 825.326 M-21.4883 825.326 Q-21.4883 818.382 -16.9745 814.418 Q-12.4606 810.454 -4.47452 810.454 Q3.48261 810.454 8.02541 814.418 Q12.5393 818.382 12.5393 825.326 Q12.5393 832.3 8.02541 836.264 Q3.48261 840.199 -4.47452 840.199 Q-12.4606 840.199 -16.9745 836.264 Q-21.4883 832.3 -21.4883 825.326 Z" fill="#000000" fill-rule="nonzero" fill-opacity="1" /><path clip-path="url(#clip350)" d="M-20.7071 804.725 L-20.7071 799.4 L4.58214 792.745 L-20.7071 786.119 L-20.7071 779.84 L4.58214 773.185 L-20.7071 766.559 L-20.7071 761.235 L11.7002 769.713 L11.7002 775.992 L-14.8622 782.965 L11.7002 789.968 L11.7002 796.247 L-20.7071 804.725 Z" fill="#000000" fill-rule="nonzero" fill-opacity="1" /><path clip-path="url(#clip350)" d="M-33.3227 734.818 L-33.3227 722.549 L-29.185 722.549 L-29.185 729.493 L15.3749 729.493 L15.3749 722.549 L19.5126 722.549 L19.5126 734.818 L-33.3227 734.818 Z" fill="#000000" fill-rule="nonzero" fill-opacity="1" /><path clip-path="url(#clip350)" d="M-31.4998 710.975 L-31.4998 705.13 L6.7812 705.13 L6.7812 684.094 L11.7002 684.094 L11.7002 710.975 L-31.4998 710.975 Z" fill="#000000" fill-rule="nonzero" fill-opacity="1" /><path clip-path="url(#clip350)" d="M-31.4998 668.73 L-31.4998 663.811 L17.1978 678.857 L17.1978 683.776 L-31.4998 668.73 Z" fill="#000000" fill-rule="nonzero" fill-opacity="1" /><path clip-path="url(#clip350)" d="M-19.7522 637.567 L-14.7175 637.567 Q-15.8749 639.824 -16.4536 642.254 Q-17.0323 644.685 -17.0323 647.289 Q-17.0323 651.253 -15.8171 653.25 Q-14.6018 655.217 -12.1712 655.217 Q-10.3194 655.217 -9.2488 653.799 Q-8.20714 652.382 -7.25229 648.099 L-6.8472 646.276 Q-5.63193 640.605 -3.40393 638.232 Q-1.20487 635.831 2.75923 635.831 Q7.2731 635.831 9.90619 639.419 Q12.5393 642.978 12.5393 649.228 Q12.5393 651.832 12.0184 654.667 Q11.5265 657.474 10.5138 660.599 L5.01617 660.599 Q6.54972 657.648 7.33097 654.783 Q8.08328 651.919 8.08328 649.112 Q8.08328 645.35 6.81014 643.325 Q5.50806 641.299 3.16432 641.299 Q0.994196 641.299 -0.163205 642.775 Q-1.32061 644.222 -2.3912 649.17 L-2.82523 651.022 Q-3.86689 655.97 -6.00808 658.169 Q-8.17821 660.368 -11.9398 660.368 Q-16.5115 660.368 -18.9999 657.127 Q-21.4883 653.886 -21.4883 647.926 Q-21.4883 644.974 -21.0543 642.37 Q-20.6203 639.766 -19.7522 637.567 Z" fill="#000000" fill-rule="nonzero" fill-opacity="1" /><path clip-path="url(#clip350)" d="M-33.3227 614.911 L19.5126 614.911 L19.5126 627.179 L15.3749 627.179 L15.3749 620.264 L-29.185 620.264 L-29.185 627.179 L-33.3227 627.179 L-33.3227 614.911 Z" fill="#000000" fill-rule="nonzero" fill-opacity="1" /><polyline clip-path="url(#clip352)" style="stroke:#023eff; stroke-linecap:round; stroke-linejoin:round; stroke-width:5; stroke-opacity:1; fill:none" points="289.284,1130.69 306.092,1341.48 322.9,1341.48 339.708,1425.01 356.516,1425.01 373.324,1425.01 390.131,909.34 406.939,147.319 423.747,271.198 440.555,370.591 457.363,370.591 474.171,723.757 490.979,723.757 507.787,656.269 524.595,715.429 541.403,817.923 558.21,817.923 575.018,817.923 591.826,656.269 608.634,542.086 625.442,457.8 642.25,759.751 659.058,901.452 675.866,962.339 692.674,1143.73 709.482,1295.17 726.289,1389.13 743.097,1389.13 759.905,1389.13 776.713,1235.27 793.521,756.61 810.329,88.2942 827.137,1000.41 843.945,1000.41 860.753,750.149 877.56,917.051 894.368,756.61 911.176,683.202 927.984,820.04 944.792,820.04 961.6,820.04 978.408,749.514 995.216,721.194 1012.02,519.812 1028.83,519.812 1045.64,625.975 1062.45,818.303 1079.26,1092.3 1096.06,1212.81 1112.87,1302.41 1129.68,1407.19 1146.49,1407.19 1163.29,1407.19 1180.1,1302.41 1196.91,900.326 1213.72,285.884 1230.53,285.884 1247.33,601.297 1264.14,795.806 1280.95,683.202 1297.76,683.202 1314.57,756.61 1331.37,820.04 1348.18,820.04 1364.99,820.04 1381.8,749.514 1398.61,721.194 1415.41,519.812 1432.22,582.871 1449.03,677.094 1465.84,894.267 1482.64,1092.3 1499.45,1212.81 1516.26,1407.19 1533.07,1407.19 1549.88,1407.19 1566.68,1407.19 1583.49,1302.41 1600.3,900.326 1617.11,285.884 1633.92,285.884 1650.72,453.298 1667.53,750.149 1684.34,683.202 1701.15,756.61 1717.96,756.61 1734.76,820.04 1751.57,820.04 1768.38,786.707 1785.19,749.514 1801.99,721.194 1818.8,435.294 1835.61,435.294 1852.42,677.094 1869.23,894.267 1886.03,1092.3 1902.84,1212.81 1919.65,1302.41 1936.46,1407.19 1953.27,1407.19 1970.07,1407.19 1986.88,1302.41 2003.69,900.326 2020.5,285.884 2037.31,285.884 2054.11,453.298 2070.92,750.149 2087.73,917.051 2104.54,756.61 2121.34,683.202 2138.15,820.04 2154.96,820.04 2171.77,820.04 2188.58,749.514 2205.38,721.194 2222.19,625.975 2239,625.975 2255.81,894.267 2272.62,894.267 2289.42,1092.3 2306.23,1212.81 2323.04,1302.41 2339.85,1407.19 2356.66,1407.19 2373.46,1407.19 2390.27,1302.41 2407.08,1222.16 2423.89,1254.09 2440.69,453.298 2457.5,285.884 2474.31,435.294 2491.12,548.945 2507.93,607.379 2524.73,608.268 2541.54,716.489 2558.35,716.489 2575.16,716.489 2591.97,716.489 2608.77,721.194 2625.58,625.975 2642.39,782.941 2659.2,894.267 2676.01,1092.3 2692.81,1092.3 2709.62,1212.81 2726.43,1407.19 2743.24,1407.19 2760.05,1407.19 2776.85,1407.19 2793.66,1407.19 2810.47,1222.16 2827.28,1254.09 2844.08,453.298 2860.89,285.884 2877.7,364.022 2894.51,548.945 2911.32,548.945 2928.12,582.871 2944.93,582.871 2961.74,820.04 2978.55,820.04 2995.36,716.489 3012.16,721.194 3028.97,548.945 3045.78,548.945 3062.59,894.267 3079.4,894.267 3096.2,1092.3 "/>
<polyline clip-path="url(#clip352)" style="stroke:#ff7c00; stroke-linecap:round; stroke-linejoin:round; stroke-width:5; stroke-opacity:1; fill:none" points="289.284,1104.16 306.092,1345.59 322.9,1345.59 339.708,1408.07 356.516,1408.07 373.324,1408.07 390.131,952.512 406.939,495.429 423.747,300.317 440.555,378.67 457.363,378.67 474.171,608.45 490.979,608.45 507.787,608.45 524.595,712.503 541.403,798.355 558.21,798.355 575.018,798.355 591.826,726.608 608.634,495.429 625.442,495.429 642.25,726.608 659.058,857.774 675.866,907.514 692.674,1189.55 709.482,1388.99 726.289,1388.99 743.097,1388.99 759.905,1388.99 776.713,1311.37 793.521,746.423 810.329,245.724 827.137,245.724 843.945,456.072 860.753,638.972 877.56,770.356 894.368,770.356 911.176,770.356 927.984,781.843 944.792,781.843 961.6,841.764 978.408,781.843 995.216,602.016 1012.02,416.342 1028.83,416.342 1045.64,720.35 1062.45,820.041 1079.26,1009.94 1096.06,1189.55 1112.87,1311.37 1129.68,1388.99 1146.49,1388.99 1163.29,1388.99 1180.1,1311.37 1196.91,906.878 1213.72,245.724 1230.53,245.724 1247.33,456.072 1264.14,638.972 1280.95,770.356 1297.76,770.356 1314.57,770.356 1331.37,781.843 1348.18,781.843 1364.99,927.923 1381.8,781.843 1398.61,720.35 1415.41,602.016 1432.22,602.016 1449.03,602.016 1465.84,820.041 1482.64,1000.81 1499.45,1189.55 1516.26,1388.99 1533.07,1388.99 1549.88,1388.99 1566.68,1388.99 1583.49,1311.37 1600.3,906.878 1617.11,245.724 1633.92,245.724 1650.72,456.072 1667.53,638.972 1684.34,770.356 1701.15,770.356 1717.96,770.356 1734.76,781.843 1751.57,927.923 1768.38,781.843 1785.19,781.843 1801.99,720.35 1818.8,602.016 1835.61,416.342 1852.42,720.35 1869.23,820.041 1886.03,1136.67 1902.84,1189.55 1919.65,1388.99 1936.46,1388.99 1953.27,1388.99 1970.07,1388.99 1986.88,1311.37 2003.69,906.878 2020.5,245.724 2037.31,245.724 2054.11,456.072 2070.92,638.972 2087.73,770.356 2104.54,770.356 2121.34,770.356 2138.15,781.843 2154.96,927.923 2171.77,927.923 2188.58,781.843 2205.38,720.35 2222.19,720.35 2239,602.016 2255.81,720.35 2272.62,1000.81 2289.42,1000.81 2306.23,1212.5 2323.04,1311.37 2339.85,1388.99 2356.66,1388.99 2373.46,1388.99 2390.27,1311.37 2407.08,1196.24 2423.89,777.298 2440.69,395.707 2457.5,189.857 2474.31,298.183 2491.12,454.29 2507.93,579.455 2524.73,579.455 2541.54,781.843 2558.35,781.843 2575.16,781.843 2591.97,781.843 2608.77,720.35 2625.58,720.35 2642.39,720.35 2659.2,720.35 2676.01,1000.81 2692.81,1000.81 2709.62,1212.5 2726.43,1388.99 2743.24,1388.99 2760.05,1388.99 2776.85,1388.99 2793.66,1278.89 2810.47,1196.24 2827.28,889.825 2844.08,395.707 2860.89,189.857 2877.7,298.183 2894.51,454.29 2911.32,579.455 2928.12,579.455 2944.93,781.843 2961.74,781.843 2978.55,781.843 2995.36,781.843 3012.16,602.016 3028.97,602.016 3045.78,602.016 3062.59,720.35 3079.4,1000.81 3096.2,1000.81 "/>
<polyline clip-path="url(#clip352)" style="stroke:#1ac938; stroke-linecap:round; stroke-linejoin:round; stroke-width:5; stroke-opacity:1; fill:none" points="289.284,1167.92 306.092,1349.4 322.9,1349.4 339.708,1410.99 356.516,1410.99 373.324,1410.99 390.131,874.003 406.939,277.877 423.747,277.877 440.555,404.613 457.363,404.613 474.171,550.42 490.979,550.42 507.787,663.531 524.595,768.741 541.403,768.741 558.21,768.741 575.018,768.741 591.826,663.531 608.634,430.157 625.442,430.157 642.25,788.381 659.058,874.003 675.866,1000.99 692.674,1220 709.482,1337.09 726.289,1400.85 743.097,1400.85 759.905,1400.85 776.713,1220 793.521,785.797 810.329,237.552 827.137,335.733 843.945,404.613 860.753,637.551 877.56,896.968 894.368,785.797 911.176,736.314 927.984,785.797 944.792,785.797 961.6,785.797 978.408,785.797 995.216,637.551 1012.02,430.157 1028.83,430.157 1045.64,736.314 1062.45,785.797 1079.26,1003.09 1096.06,1220 1112.87,1337.09 1129.68,1400.85 1146.49,1337.09 1163.29,1400.85 1180.1,1337.09 1196.91,896.968 1213.72,335.733 1230.53,335.733 1247.33,637.551 1264.14,896.968 1280.95,736.314 1297.76,736.314 1314.57,736.314 1331.37,736.314 1348.18,785.797 1364.99,785.797 1381.8,785.797 1398.61,736.314 1415.41,569.91 1432.22,569.91 1449.03,637.551 1465.84,896.968 1482.64,896.968 1499.45,1220 1516.26,1337.09 1533.07,1400.85 1549.88,1337.09 1566.68,1400.85 1583.49,1220 1600.3,896.968 1617.11,335.733 1633.92,335.733 1650.72,404.613 1667.53,637.551 1684.34,637.551 1701.15,896.968 1717.96,736.314 1734.76,736.314 1751.57,785.797 1768.38,736.314 1785.19,736.314 1801.99,785.797 1818.8,569.91 1835.61,569.91 1852.42,736.314 1869.23,896.968 1886.03,1220 1902.84,1220 1919.65,1337.09 1936.46,1337.09 1953.27,1337.09 1970.07,1400.85 1986.88,1220 2003.69,896.968 2020.5,335.733 2037.31,335.733 2054.11,404.613 2070.92,736.314 2087.73,736.314 2104.54,896.968 2121.34,736.314 2138.15,785.797 2154.96,785.797 2171.77,785.797 2188.58,785.797 2205.38,785.797 2222.19,736.314 2239,637.551 2255.81,896.968 2272.62,896.968 2289.42,1003.09 2306.23,1220 2323.04,1337.09 2339.85,1337.09 2356.66,1400.85 2373.46,1337.09 2390.27,1337.09 2407.08,1220 2423.89,896.968 2440.69,404.613 2457.5,335.733 2474.31,404.613 2491.12,404.613 2507.93,637.551 2524.73,637.551 2541.54,637.551 2558.35,736.314 2575.16,736.314 2591.97,637.551 2608.77,736.314 2625.58,736.314 2642.39,896.968 2659.2,896.968 2676.01,896.968 2692.81,1003.09 2709.62,1220 2726.43,1337.09 2743.24,1337.09 2760.05,1400.85 2776.85,1400.85 2793.66,1400.85 2810.47,1220 2827.28,896.968 2844.08,404.613 2860.89,237.552 2877.7,237.552 2894.51,335.733 2911.32,569.91 2928.12,569.91 2944.93,637.551 2961.74,736.314 2978.55,785.797 2995.36,736.314 3012.16,637.551 3028.97,637.551 3045.78,569.91 3062.59,896.968 3079.4,896.968 3096.2,896.968 "/>
<polyline clip-path="url(#clip352)" style="stroke:#e8000b; stroke-linecap:round; stroke-linejoin:round; stroke-width:5; stroke-opacity:1; fill:none" points="289.284,1362.41 306.092,1362.41 322.9,1362.41 339.708,1362.41 356.516,1362.41 373.324,1362.41 390.131,976.541 406.939,436.28 423.747,253.277 440.555,436.28 457.363,436.28 474.171,803.94 490.979,803.94 507.787,687.746 524.595,803.94 541.403,803.94 558.21,803.94 575.018,803.94 591.826,687.746 608.634,436.28 625.442,436.28 642.25,803.94 659.058,803.94 675.866,976.541 692.674,1362.41 709.482,1362.41 726.289,1362.41 743.097,1362.41 759.905,1362.41 776.713,1362.41 793.521,818.536 810.329,253.277 827.137,253.277 843.945,677.666 860.753,677.666 877.56,818.536 894.368,818.536 911.176,818.536 927.984,818.536 944.792,818.536 961.6,818.536 978.408,818.536 995.216,677.666 1012.02,473.831 1028.83,473.831 1045.64,818.536 1062.45,818.536 1079.26,1007.95 1096.06,1216.21 1112.87,1362.41 1129.68,1362.41 1146.49,1362.41 1163.29,1362.41 1180.1,1362.41 1196.91,818.536 1213.72,253.277 1230.53,253.277 1247.33,677.666 1264.14,818.536 1280.95,818.536 1297.76,818.536 1314.57,818.536 1331.37,818.536 1348.18,818.536 1364.99,818.536 1381.8,818.536 1398.61,818.536 1415.41,473.831 1432.22,677.666 1449.03,677.666 1465.84,818.536 1482.64,1007.95 1499.45,1362.41 1516.26,1362.41 1533.07,1362.41 1549.88,1362.41 1566.68,1362.41 1583.49,1362.41 1600.3,818.536 1617.11,253.277 1633.92,253.277 1650.72,473.831 1667.53,677.666 1684.34,677.666 1701.15,818.536 1717.96,818.536 1734.76,818.536 1751.57,818.536 1768.38,818.536 1785.19,818.536 1801.99,818.536 1818.8,677.666 1835.61,473.831 1852.42,818.536 1869.23,818.536 1886.03,1216.21 1902.84,1216.21 1919.65,1362.41 1936.46,1362.41 1953.27,1362.41 1970.07,1362.41 1986.88,1362.41 2003.69,818.536 2020.5,253.277 2037.31,253.277 2054.11,473.831 2070.92,818.536 2087.73,818.536 2104.54,818.536 2121.34,818.536 2138.15,818.536 2154.96,818.536 2171.77,818.536 2188.58,818.536 2205.38,818.536 2222.19,818.536 2239,677.666 2255.81,818.536 2272.62,818.536 2289.42,1007.95 2306.23,1216.21 2323.04,1362.41 2339.85,1362.41 2356.66,1362.41 2373.46,1362.41 2390.27,1362.41 2407.08,1216.21 2423.89,818.536 2440.69,473.831 2457.5,253.277 2474.31,473.831 2491.12,473.831 2507.93,677.666 2524.73,677.666 2541.54,677.666 2558.35,818.536 2575.16,818.536 2591.97,677.666 2608.77,818.536 2625.58,818.536 2642.39,818.536 2659.2,818.536 2676.01,818.536 2692.81,1007.95 2709.62,1216.21 2726.43,1362.41 2743.24,1362.41 2760.05,1362.41 2776.85,1362.41 2793.66,1362.41 2810.47,1362.41 2827.28,818.536 2844.08,473.831 2860.89,253.277 2877.7,253.277 2894.51,473.831 2911.32,473.831 2928.12,677.666 2944.93,677.666 2961.74,818.536 2978.55,818.536 2995.36,818.536 3012.16,677.666 3028.97,677.666 3045.78,473.831 3062.59,818.536 3079.4,818.536 3096.2,1007.95 "/>
<polyline clip-path="url(#clip352)" style="stroke:#000000; stroke-linecap:round; stroke-linejoin:round; stroke-width:6; stroke-opacity:1; fill:none" points="289.284,1204.17 306.092,1409.55 322.9,1456.63 339.708,1371.39 356.516,1368.15 373.324,1275.6 390.131,965.501 406.939,271.426 423.747,400.499 440.555,475.184 457.363,478.431 474.171,763.367 490.979,880.264 507.787,777.979 524.595,859.157 541.403,907.052 558.21,863.216 575.018,842.921 591.826,791.779 608.634,583.151 625.442,418.359 642.25,680.565 659.058,785.285 675.866,985.795 692.674,1183.06 709.482,1364.9 726.289,1394.12 743.097,1355.97 759.905,1321.06 776.713,1248.81 793.521,894.876 810.329,329.874 827.137,453.265 843.945,657.023 860.753,672.447 877.56,878.64 894.368,871.334 911.176,732.519 927.984,786.097 944.792,840.486 961.6,876.205 978.408,746.319 995.216,661.894 1012.02,471.936 1028.83,357.475 1045.64,621.305 1062.45,751.19 1079.26,878.64 1096.06,1212.28 1112.87,1338.11 1129.68,1310.51 1146.49,1355.97 1163.29,1311.32 1180.1,1205.79 1196.91,1036.13 1213.72,184.565 1230.53,313.639 1247.33,469.501 1264.14,734.954 1280.95,855.098 1297.76,790.967 1314.57,759.308 1331.37,795.026 1348.18,944.394 1364.99,877.016 1381.8,926.535 1398.61,754.437 1415.41,404.558 1432.22,559.609 1449.03,621.305 1465.84,818.568 1482.64,1066.97 1499.45,1162.76 1516.26,1325.93 1533.07,1394.93 1549.88,1370.58 1566.68,1361.65 1583.49,1265.86 1600.3,831.557 1617.11,230.025 1633.92,329.874 1650.72,478.431 1667.53,539.314 1684.34,734.142 1701.15,746.319 1717.96,720.342 1734.76,782.038 1751.57,911.111 1768.38,922.476 1785.19,788.532 1801.99,687.059 1818.8,509.278 1835.61,392.382 1852.42,634.293 1869.23,809.638 1886.03,893.252 1902.84,1110.81 1919.65,1331.62 1936.46,1351.91 1953.27,1390.06 1970.07,1275.6 1986.88,1235.82 2003.69,816.944 2020.5,155.341 2037.31,260.873 2054.11,352.604 2070.92,432.971 2087.73,648.093 2104.54,766.614 2121.34,670.823 2138.15,802.332 2154.96,907.052 2171.77,950.077 2188.58,842.11 2205.38,736.578 2222.19,679.753 2239,603.445 2255.81,689.494 2272.62,923.288 2289.42,1012.58 2306.23,1173.32 2323.04,1370.58 2339.85,1386.82 2356.66,1424.97 2373.46,1321.06 2390.27,1390.88 2407.08,1188.74 2423.89,852.663 2440.69,417.547 2457.5,88.7746 2474.31,352.604 2491.12,461.383 2507.93,650.529 2524.73,617.246 2541.54,773.92 2558.35,864.028 2575.16,826.686 2591.97,811.262 2608.77,822.627 2625.58,777.167 2642.39,696.8 2659.2,855.098 2676.01,976.866 2692.81,1118.12 2709.62,1152.21 2726.43,1309.7 2743.24,1344.6 2760.05,1444.45 2776.85,1401.43 2793.66,1368.96 2810.47,1173.32 2827.28,760.12 2844.08,328.251 2860.89,106.634 2877.7,325.815 2894.51,409.429 2911.32,721.966 2928.12,683 2944.93,878.64 2961.74,928.159 2978.55,881.075 2995.36,781.226 3012.16,750.378 3028.97,719.53 3045.78,664.329 3062.59,836.427 3079.4,993.101 3096.2,1110.81 "/>
<path clip-path="url(#clip350)" d="M3305.33 445.512 L3952.76 445.512 L3952.76 95.592 L3305.33 95.592  Z" fill="#ffffff" fill-rule="evenodd" fill-opacity="1"/>
<polyline clip-path="url(#clip350)" style="stroke:#000000; stroke-linecap:round; stroke-linejoin:round; stroke-width:4; stroke-opacity:1; fill:none" points="3305.33,445.512 3952.76,445.512 3952.76,95.592 3305.33,95.592 3305.33,445.512 "/>
<polyline clip-path="url(#clip350)" style="stroke:#023eff; stroke-linecap:round; stroke-linejoin:round; stroke-width:5.625; stroke-opacity:1; fill:none" points="3346.97,153.912 3596.82,153.912 "/>
<path clip-path="url(#clip350)" d="M3643.28 168.977 L3643.28 184.446 L3638.46 184.446 L3638.46 144.185 L3643.28 144.185 L3643.28 148.613 Q3644.79 146.008 3647.08 144.758 Q3649.4 143.482 3652.6 143.482 Q3657.91 143.482 3661.22 147.701 Q3664.55 151.92 3664.55 158.795 Q3664.55 165.67 3661.22 169.888 Q3657.91 174.107 3652.6 174.107 Q3649.4 174.107 3647.08 172.857 Q3644.79 171.581 3643.28 168.977 M3659.58 158.795 Q3659.58 153.508 3657.39 150.514 Q3655.23 147.493 3651.43 147.493 Q3647.63 147.493 3645.44 150.514 Q3643.28 153.508 3643.28 158.795 Q3643.28 164.081 3645.44 167.102 Q3647.63 170.097 3651.43 170.097 Q3655.23 170.097 3657.39 167.102 Q3659.58 164.081 3659.58 158.795 Z" fill="#000000" fill-rule="nonzero" fill-opacity="1" /><path clip-path="url(#clip350)" d="M3689.4 148.665 Q3688.59 148.196 3687.63 147.988 Q3686.69 147.753 3685.54 147.753 Q3681.48 147.753 3679.29 150.409 Q3677.13 153.04 3677.13 157.987 L3677.13 173.352 L3672.31 173.352 L3672.31 144.185 L3677.13 144.185 L3677.13 148.717 Q3678.64 146.06 3681.06 144.784 Q3683.49 143.482 3686.95 143.482 Q3687.44 143.482 3688.04 143.56 Q3688.64 143.613 3689.37 143.743 L3689.4 148.665 Z" fill="#000000" fill-rule="nonzero" fill-opacity="1" /><path clip-path="url(#clip350)" d="M3718.2 157.571 L3718.2 159.915 L3696.17 159.915 Q3696.48 164.862 3699.14 167.467 Q3701.82 170.045 3706.58 170.045 Q3709.35 170.045 3711.92 169.368 Q3714.53 168.691 3717.08 167.336 L3717.08 171.868 Q3714.5 172.961 3711.79 173.534 Q3709.08 174.107 3706.3 174.107 Q3699.32 174.107 3695.23 170.045 Q3691.17 165.982 3691.17 159.055 Q3691.17 151.894 3695.02 147.701 Q3698.9 143.482 3705.47 143.482 Q3711.35 143.482 3714.76 147.284 Q3718.2 151.06 3718.2 157.571 M3713.41 156.165 Q3713.36 152.232 3711.19 149.889 Q3709.06 147.545 3705.52 147.545 Q3701.51 147.545 3699.08 149.81 Q3696.69 152.076 3696.32 156.191 L3713.41 156.165 Z" fill="#000000" fill-rule="nonzero" fill-opacity="1" /><path clip-path="url(#clip350)" d="M3745.26 148.613 L3745.26 132.831 L3750.05 132.831 L3750.05 173.352 L3745.26 173.352 L3745.26 168.977 Q3743.75 171.581 3741.43 172.857 Q3739.14 174.107 3735.91 174.107 Q3730.62 174.107 3727.29 169.888 Q3723.98 165.67 3723.98 158.795 Q3723.98 151.92 3727.29 147.701 Q3730.62 143.482 3735.91 143.482 Q3739.14 143.482 3741.43 144.758 Q3743.75 146.008 3745.26 148.613 M3728.93 158.795 Q3728.93 164.081 3731.09 167.102 Q3733.28 170.097 3737.08 170.097 Q3740.88 170.097 3743.07 167.102 Q3745.26 164.081 3745.26 158.795 Q3745.26 153.508 3743.07 150.514 Q3740.88 147.493 3737.08 147.493 Q3733.28 147.493 3731.09 150.514 Q3728.93 153.508 3728.93 158.795 Z" fill="#000000" fill-rule="nonzero" fill-opacity="1" /><path clip-path="url(#clip350)" d="M3759.92 144.185 L3764.71 144.185 L3764.71 173.352 L3759.92 173.352 L3759.92 144.185 M3759.92 132.831 L3764.71 132.831 L3764.71 138.899 L3759.92 138.899 L3759.92 132.831 Z" fill="#000000" fill-rule="nonzero" fill-opacity="1" /><path clip-path="url(#clip350)" d="M3795.73 145.305 L3795.73 149.784 Q3793.69 148.665 3791.64 148.118 Q3789.61 147.545 3787.52 147.545 Q3782.86 147.545 3780.28 150.514 Q3777.7 153.456 3777.7 158.795 Q3777.7 164.133 3780.28 167.102 Q3782.86 170.045 3787.52 170.045 Q3789.61 170.045 3791.64 169.498 Q3793.69 168.925 3795.73 167.805 L3795.73 172.232 Q3793.72 173.17 3791.56 173.638 Q3789.42 174.107 3787 174.107 Q3780.41 174.107 3776.53 169.967 Q3772.65 165.826 3772.65 158.795 Q3772.65 151.659 3776.56 147.571 Q3780.49 143.482 3787.31 143.482 Q3789.53 143.482 3791.64 143.951 Q3793.75 144.394 3795.73 145.305 Z" fill="#000000" fill-rule="nonzero" fill-opacity="1" /><path clip-path="url(#clip350)" d="M3808.8 135.904 L3808.8 144.185 L3818.67 144.185 L3818.67 147.909 L3808.8 147.909 L3808.8 163.743 Q3808.8 167.31 3809.76 168.326 Q3810.75 169.342 3813.75 169.342 L3818.67 169.342 L3818.67 173.352 L3813.75 173.352 Q3808.2 173.352 3806.09 171.295 Q3803.98 169.211 3803.98 163.743 L3803.98 147.909 L3800.46 147.909 L3800.46 144.185 L3803.98 144.185 L3803.98 135.904 L3808.8 135.904 Z" fill="#000000" fill-rule="nonzero" fill-opacity="1" /><path clip-path="url(#clip350)" d="M3847.13 182.206 L3847.13 185.93 L3819.42 185.93 L3819.42 182.206 L3847.13 182.206 Z" fill="#000000" fill-rule="nonzero" fill-opacity="1" /><path clip-path="url(#clip350)" d="M3852.37 134.472 L3873.02 134.472 L3873.02 138.899 L3857.18 138.899 L3857.18 148.43 Q3858.33 148.04 3859.47 147.857 Q3860.62 147.649 3861.77 147.649 Q3868.28 147.649 3872.08 151.217 Q3875.88 154.784 3875.88 160.878 Q3875.88 167.154 3871.97 170.644 Q3868.07 174.107 3860.96 174.107 Q3858.51 174.107 3855.96 173.69 Q3853.43 173.274 3850.72 172.441 L3850.72 167.154 Q3853.07 168.43 3855.57 169.055 Q3858.07 169.68 3860.85 169.68 Q3865.36 169.68 3867.99 167.31 Q3870.62 164.941 3870.62 160.878 Q3870.62 156.816 3867.99 154.446 Q3865.36 152.076 3860.85 152.076 Q3858.75 152.076 3856.64 152.545 Q3854.55 153.014 3852.37 154.003 L3852.37 134.472 Z" fill="#000000" fill-rule="nonzero" fill-opacity="1" /><path clip-path="url(#clip350)" d="M3890.78 168.925 L3909.14 168.925 L3909.14 173.352 L3884.45 173.352 L3884.45 168.925 Q3887.44 165.826 3892.6 160.618 Q3897.78 155.383 3899.11 153.873 Q3901.64 151.034 3902.63 149.081 Q3903.64 147.102 3903.64 145.201 Q3903.64 142.102 3901.45 140.149 Q3899.29 138.196 3895.8 138.196 Q3893.33 138.196 3890.57 139.055 Q3887.83 139.915 3884.71 141.659 L3884.71 136.347 Q3887.89 135.071 3890.65 134.42 Q3893.41 133.769 3895.7 133.769 Q3901.74 133.769 3905.33 136.79 Q3908.93 139.81 3908.93 144.863 Q3908.93 147.258 3908.02 149.42 Q3907.13 151.555 3904.76 154.472 Q3904.11 155.227 3900.62 158.847 Q3897.13 162.441 3890.78 168.925 Z" fill="#000000" fill-rule="nonzero" fill-opacity="1" /><polyline clip-path="url(#clip350)" style="stroke:#ff7c00; stroke-linecap:round; stroke-linejoin:round; stroke-width:5.625; stroke-opacity:1; fill:none" points="3346.97,212.232 3596.82,212.232 "/>
<path clip-path="url(#clip350)" d="M3643.28 227.297 L3643.28 242.766 L3638.46 242.766 L3638.46 202.505 L3643.28 202.505 L3643.28 206.933 Q3644.79 204.328 3647.08 203.078 Q3649.4 201.802 3652.6 201.802 Q3657.91 201.802 3661.22 206.021 Q3664.55 210.24 3664.55 217.115 Q3664.55 223.99 3661.22 228.208 Q3657.91 232.427 3652.6 232.427 Q3649.4 232.427 3647.08 231.177 Q3644.79 229.901 3643.28 227.297 M3659.58 217.115 Q3659.58 211.828 3657.39 208.834 Q3655.23 205.813 3651.43 205.813 Q3647.63 205.813 3645.44 208.834 Q3643.28 211.828 3643.28 217.115 Q3643.28 222.401 3645.44 225.422 Q3647.63 228.417 3651.43 228.417 Q3655.23 228.417 3657.39 225.422 Q3659.58 222.401 3659.58 217.115 Z" fill="#000000" fill-rule="nonzero" fill-opacity="1" /><path clip-path="url(#clip350)" d="M3689.4 206.985 Q3688.59 206.516 3687.63 206.308 Q3686.69 206.073 3685.54 206.073 Q3681.48 206.073 3679.29 208.729 Q3677.13 211.36 3677.13 216.307 L3677.13 231.672 L3672.31 231.672 L3672.31 202.505 L3677.13 202.505 L3677.13 207.037 Q3678.64 204.38 3681.06 203.104 Q3683.49 201.802 3686.95 201.802 Q3687.44 201.802 3688.04 201.88 Q3688.64 201.933 3689.37 202.063 L3689.4 206.985 Z" fill="#000000" fill-rule="nonzero" fill-opacity="1" /><path clip-path="url(#clip350)" d="M3718.2 215.891 L3718.2 218.235 L3696.17 218.235 Q3696.48 223.182 3699.14 225.787 Q3701.82 228.365 3706.58 228.365 Q3709.35 228.365 3711.92 227.688 Q3714.53 227.011 3717.08 225.656 L3717.08 230.188 Q3714.5 231.281 3711.79 231.854 Q3709.08 232.427 3706.3 232.427 Q3699.32 232.427 3695.23 228.365 Q3691.17 224.302 3691.17 217.375 Q3691.17 210.214 3695.02 206.021 Q3698.9 201.802 3705.47 201.802 Q3711.35 201.802 3714.76 205.604 Q3718.2 209.38 3718.2 215.891 M3713.41 214.485 Q3713.36 210.552 3711.19 208.209 Q3709.06 205.865 3705.52 205.865 Q3701.51 205.865 3699.08 208.13 Q3696.69 210.396 3696.32 214.511 L3713.41 214.485 Z" fill="#000000" fill-rule="nonzero" fill-opacity="1" /><path clip-path="url(#clip350)" d="M3745.26 206.933 L3745.26 191.151 L3750.05 191.151 L3750.05 231.672 L3745.26 231.672 L3745.26 227.297 Q3743.75 229.901 3741.43 231.177 Q3739.14 232.427 3735.91 232.427 Q3730.62 232.427 3727.29 228.208 Q3723.98 223.99 3723.98 217.115 Q3723.98 210.24 3727.29 206.021 Q3730.62 201.802 3735.91 201.802 Q3739.14 201.802 3741.43 203.078 Q3743.75 204.328 3745.26 206.933 M3728.93 217.115 Q3728.93 222.401 3731.09 225.422 Q3733.28 228.417 3737.08 228.417 Q3740.88 228.417 3743.07 225.422 Q3745.26 222.401 3745.26 217.115 Q3745.26 211.828 3743.07 208.834 Q3740.88 205.813 3737.08 205.813 Q3733.28 205.813 3731.09 208.834 Q3728.93 211.828 3728.93 217.115 Z" fill="#000000" fill-rule="nonzero" fill-opacity="1" /><path clip-path="url(#clip350)" d="M3759.92 202.505 L3764.71 202.505 L3764.71 231.672 L3759.92 231.672 L3759.92 202.505 M3759.92 191.151 L3764.71 191.151 L3764.71 197.219 L3759.92 197.219 L3759.92 191.151 Z" fill="#000000" fill-rule="nonzero" fill-opacity="1" /><path clip-path="url(#clip350)" d="M3795.73 203.625 L3795.73 208.104 Q3793.69 206.985 3791.64 206.438 Q3789.61 205.865 3787.52 205.865 Q3782.86 205.865 3780.28 208.834 Q3777.7 211.776 3777.7 217.115 Q3777.7 222.453 3780.28 225.422 Q3782.86 228.365 3787.52 228.365 Q3789.61 228.365 3791.64 227.818 Q3793.69 227.245 3795.73 226.125 L3795.73 230.552 Q3793.72 231.49 3791.56 231.958 Q3789.42 232.427 3787 232.427 Q3780.41 232.427 3776.53 228.287 Q3772.65 224.146 3772.65 217.115 Q3772.65 209.979 3776.56 205.891 Q3780.49 201.802 3787.31 201.802 Q3789.53 201.802 3791.64 202.271 Q3793.75 202.714 3795.73 203.625 Z" fill="#000000" fill-rule="nonzero" fill-opacity="1" /><path clip-path="url(#clip350)" d="M3808.8 194.224 L3808.8 202.505 L3818.67 202.505 L3818.67 206.229 L3808.8 206.229 L3808.8 222.063 Q3808.8 225.63 3809.76 226.646 Q3810.75 227.662 3813.75 227.662 L3818.67 227.662 L3818.67 231.672 L3813.75 231.672 Q3808.2 231.672 3806.09 229.615 Q3803.98 227.531 3803.98 222.063 L3803.98 206.229 L3800.46 206.229 L3800.46 202.505 L3803.98 202.505 L3803.98 194.224 L3808.8 194.224 Z" fill="#000000" fill-rule="nonzero" fill-opacity="1" /><path clip-path="url(#clip350)" d="M3847.13 240.526 L3847.13 244.25 L3819.42 244.25 L3819.42 240.526 L3847.13 240.526 Z" fill="#000000" fill-rule="nonzero" fill-opacity="1" /><path clip-path="url(#clip350)" d="M3856.84 227.245 L3875.2 227.245 L3875.2 231.672 L3850.52 231.672 L3850.52 227.245 Q3853.51 224.146 3858.67 218.938 Q3863.85 213.703 3865.18 212.193 Q3867.7 209.354 3868.69 207.401 Q3869.71 205.422 3869.71 203.521 Q3869.71 200.422 3867.52 198.469 Q3865.36 196.516 3861.87 196.516 Q3859.4 196.516 3856.64 197.375 Q3853.9 198.235 3850.78 199.979 L3850.78 194.667 Q3853.95 193.391 3856.71 192.74 Q3859.47 192.089 3861.77 192.089 Q3867.81 192.089 3871.4 195.11 Q3875 198.13 3875 203.183 Q3875 205.578 3874.08 207.74 Q3873.2 209.875 3870.83 212.792 Q3870.18 213.547 3866.69 217.167 Q3863.2 220.761 3856.84 227.245 Z" fill="#000000" fill-rule="nonzero" fill-opacity="1" /><path clip-path="url(#clip350)" d="M3898.15 210.136 Q3894.6 210.136 3892.52 212.557 Q3890.46 214.979 3890.46 219.198 Q3890.46 223.391 3892.52 225.839 Q3894.6 228.261 3898.15 228.261 Q3901.69 228.261 3903.75 225.839 Q3905.83 223.391 3905.83 219.198 Q3905.83 214.979 3903.75 212.557 Q3901.69 210.136 3898.15 210.136 M3908.59 193.651 L3908.59 198.443 Q3906.61 197.505 3904.58 197.011 Q3902.57 196.516 3900.59 196.516 Q3895.39 196.516 3892.63 200.031 Q3889.89 203.547 3889.5 210.656 Q3891.04 208.391 3893.35 207.193 Q3895.67 205.969 3898.46 205.969 Q3904.32 205.969 3907.7 209.537 Q3911.12 213.078 3911.12 219.198 Q3911.12 225.188 3907.57 228.807 Q3904.03 232.427 3898.15 232.427 Q3891.4 232.427 3887.83 227.271 Q3884.27 222.089 3884.27 212.271 Q3884.27 203.052 3888.64 197.584 Q3893.02 192.089 3900.39 192.089 Q3902.37 192.089 3904.37 192.479 Q3906.4 192.87 3908.59 193.651 Z" fill="#000000" fill-rule="nonzero" fill-opacity="1" /><polyline clip-path="url(#clip350)" style="stroke:#1ac938; stroke-linecap:round; stroke-linejoin:round; stroke-width:5.625; stroke-opacity:1; fill:none" points="3346.97,270.552 3596.82,270.552 "/>
<path clip-path="url(#clip350)" d="M3643.28 285.617 L3643.28 301.086 L3638.46 301.086 L3638.46 260.825 L3643.28 260.825 L3643.28 265.253 Q3644.79 262.648 3647.08 261.398 Q3649.4 260.122 3652.6 260.122 Q3657.91 260.122 3661.22 264.341 Q3664.55 268.56 3664.55 275.435 Q3664.55 282.31 3661.22 286.528 Q3657.91 290.747 3652.6 290.747 Q3649.4 290.747 3647.08 289.497 Q3644.79 288.221 3643.28 285.617 M3659.58 275.435 Q3659.58 270.148 3657.39 267.154 Q3655.23 264.133 3651.43 264.133 Q3647.63 264.133 3645.44 267.154 Q3643.28 270.148 3643.28 275.435 Q3643.28 280.721 3645.44 283.742 Q3647.63 286.737 3651.43 286.737 Q3655.23 286.737 3657.39 283.742 Q3659.58 280.721 3659.58 275.435 Z" fill="#000000" fill-rule="nonzero" fill-opacity="1" /><path clip-path="url(#clip350)" d="M3689.4 265.305 Q3688.59 264.836 3687.63 264.628 Q3686.69 264.393 3685.54 264.393 Q3681.48 264.393 3679.29 267.049 Q3677.13 269.68 3677.13 274.627 L3677.13 289.992 L3672.31 289.992 L3672.31 260.825 L3677.13 260.825 L3677.13 265.357 Q3678.64 262.7 3681.06 261.424 Q3683.49 260.122 3686.95 260.122 Q3687.44 260.122 3688.04 260.2 Q3688.64 260.253 3689.37 260.383 L3689.4 265.305 Z" fill="#000000" fill-rule="nonzero" fill-opacity="1" /><path clip-path="url(#clip350)" d="M3718.2 274.211 L3718.2 276.555 L3696.17 276.555 Q3696.48 281.502 3699.14 284.107 Q3701.82 286.685 3706.58 286.685 Q3709.35 286.685 3711.92 286.008 Q3714.53 285.331 3717.08 283.976 L3717.08 288.508 Q3714.5 289.601 3711.79 290.174 Q3709.08 290.747 3706.3 290.747 Q3699.32 290.747 3695.23 286.685 Q3691.17 282.622 3691.17 275.695 Q3691.17 268.534 3695.02 264.341 Q3698.9 260.122 3705.47 260.122 Q3711.35 260.122 3714.76 263.924 Q3718.2 267.7 3718.2 274.211 M3713.41 272.805 Q3713.36 268.872 3711.19 266.529 Q3709.06 264.185 3705.52 264.185 Q3701.51 264.185 3699.08 266.45 Q3696.69 268.716 3696.32 272.831 L3713.41 272.805 Z" fill="#000000" fill-rule="nonzero" fill-opacity="1" /><path clip-path="url(#clip350)" d="M3745.26 265.253 L3745.26 249.471 L3750.05 249.471 L3750.05 289.992 L3745.26 289.992 L3745.26 285.617 Q3743.75 288.221 3741.43 289.497 Q3739.14 290.747 3735.91 290.747 Q3730.62 290.747 3727.29 286.528 Q3723.98 282.31 3723.98 275.435 Q3723.98 268.56 3727.29 264.341 Q3730.62 260.122 3735.91 260.122 Q3739.14 260.122 3741.43 261.398 Q3743.75 262.648 3745.26 265.253 M3728.93 275.435 Q3728.93 280.721 3731.09 283.742 Q3733.28 286.737 3737.08 286.737 Q3740.88 286.737 3743.07 283.742 Q3745.26 280.721 3745.26 275.435 Q3745.26 270.148 3743.07 267.154 Q3740.88 264.133 3737.08 264.133 Q3733.28 264.133 3731.09 267.154 Q3728.93 270.148 3728.93 275.435 Z" fill="#000000" fill-rule="nonzero" fill-opacity="1" /><path clip-path="url(#clip350)" d="M3759.92 260.825 L3764.71 260.825 L3764.71 289.992 L3759.92 289.992 L3759.92 260.825 M3759.92 249.471 L3764.71 249.471 L3764.71 255.539 L3759.92 255.539 L3759.92 249.471 Z" fill="#000000" fill-rule="nonzero" fill-opacity="1" /><path clip-path="url(#clip350)" d="M3795.73 261.945 L3795.73 266.424 Q3793.69 265.305 3791.64 264.758 Q3789.61 264.185 3787.52 264.185 Q3782.86 264.185 3780.28 267.154 Q3777.7 270.096 3777.7 275.435 Q3777.7 280.773 3780.28 283.742 Q3782.86 286.685 3787.52 286.685 Q3789.61 286.685 3791.64 286.138 Q3793.69 285.565 3795.73 284.445 L3795.73 288.872 Q3793.72 289.81 3791.56 290.278 Q3789.42 290.747 3787 290.747 Q3780.41 290.747 3776.53 286.607 Q3772.65 282.466 3772.65 275.435 Q3772.65 268.299 3776.56 264.211 Q3780.49 260.122 3787.31 260.122 Q3789.53 260.122 3791.64 260.591 Q3793.75 261.034 3795.73 261.945 Z" fill="#000000" fill-rule="nonzero" fill-opacity="1" /><path clip-path="url(#clip350)" d="M3808.8 252.544 L3808.8 260.825 L3818.67 260.825 L3818.67 264.549 L3808.8 264.549 L3808.8 280.383 Q3808.8 283.95 3809.76 284.966 Q3810.75 285.982 3813.75 285.982 L3818.67 285.982 L3818.67 289.992 L3813.75 289.992 Q3808.2 289.992 3806.09 287.935 Q3803.98 285.851 3803.98 280.383 L3803.98 264.549 L3800.46 264.549 L3800.46 260.825 L3803.98 260.825 L3803.98 252.544 L3808.8 252.544 Z" fill="#000000" fill-rule="nonzero" fill-opacity="1" /><path clip-path="url(#clip350)" d="M3847.13 298.846 L3847.13 302.57 L3819.42 302.57 L3819.42 298.846 L3847.13 298.846 Z" fill="#000000" fill-rule="nonzero" fill-opacity="1" /><path clip-path="url(#clip350)" d="M3866.77 255.695 L3853.49 276.45 L3866.77 276.45 L3866.77 255.695 M3865.39 251.112 L3872 251.112 L3872 276.45 L3877.55 276.45 L3877.55 280.825 L3872 280.825 L3872 289.992 L3866.77 289.992 L3866.77 280.825 L3849.21 280.825 L3849.21 275.747 L3865.39 251.112 Z" fill="#000000" fill-rule="nonzero" fill-opacity="1" /><polyline clip-path="url(#clip350)" style="stroke:#e8000b; stroke-linecap:round; stroke-linejoin:round; stroke-width:5.625; stroke-opacity:1; fill:none" points="3346.97,328.872 3596.82,328.872 "/>
<path clip-path="url(#clip350)" d="M3643.28 343.937 L3643.28 359.406 L3638.46 359.406 L3638.46 319.145 L3643.28 319.145 L3643.28 323.573 Q3644.79 320.968 3647.08 319.718 Q3649.4 318.442 3652.6 318.442 Q3657.91 318.442 3661.22 322.661 Q3664.55 326.88 3664.55 333.755 Q3664.55 340.63 3661.22 344.848 Q3657.91 349.067 3652.6 349.067 Q3649.4 349.067 3647.08 347.817 Q3644.79 346.541 3643.28 343.937 M3659.58 333.755 Q3659.58 328.468 3657.39 325.474 Q3655.23 322.453 3651.43 322.453 Q3647.63 322.453 3645.44 325.474 Q3643.28 328.468 3643.28 333.755 Q3643.28 339.041 3645.44 342.062 Q3647.63 345.057 3651.43 345.057 Q3655.23 345.057 3657.39 342.062 Q3659.58 339.041 3659.58 333.755 Z" fill="#000000" fill-rule="nonzero" fill-opacity="1" /><path clip-path="url(#clip350)" d="M3689.4 323.625 Q3688.59 323.156 3687.63 322.948 Q3686.69 322.713 3685.54 322.713 Q3681.48 322.713 3679.29 325.369 Q3677.13 328 3677.13 332.947 L3677.13 348.312 L3672.31 348.312 L3672.31 319.145 L3677.13 319.145 L3677.13 323.677 Q3678.64 321.02 3681.06 319.744 Q3683.49 318.442 3686.95 318.442 Q3687.44 318.442 3688.04 318.52 Q3688.64 318.573 3689.37 318.703 L3689.4 323.625 Z" fill="#000000" fill-rule="nonzero" fill-opacity="1" /><path clip-path="url(#clip350)" d="M3718.2 332.531 L3718.2 334.875 L3696.17 334.875 Q3696.48 339.822 3699.14 342.427 Q3701.82 345.005 3706.58 345.005 Q3709.35 345.005 3711.92 344.328 Q3714.53 343.651 3717.08 342.296 L3717.08 346.828 Q3714.5 347.921 3711.79 348.494 Q3709.08 349.067 3706.3 349.067 Q3699.32 349.067 3695.23 345.005 Q3691.17 340.942 3691.17 334.015 Q3691.17 326.854 3695.02 322.661 Q3698.9 318.442 3705.47 318.442 Q3711.35 318.442 3714.76 322.244 Q3718.2 326.02 3718.2 332.531 M3713.41 331.125 Q3713.36 327.192 3711.19 324.849 Q3709.06 322.505 3705.52 322.505 Q3701.51 322.505 3699.08 324.77 Q3696.69 327.036 3696.32 331.151 L3713.41 331.125 Z" fill="#000000" fill-rule="nonzero" fill-opacity="1" /><path clip-path="url(#clip350)" d="M3745.26 323.573 L3745.26 307.791 L3750.05 307.791 L3750.05 348.312 L3745.26 348.312 L3745.26 343.937 Q3743.75 346.541 3741.43 347.817 Q3739.14 349.067 3735.91 349.067 Q3730.62 349.067 3727.29 344.848 Q3723.98 340.63 3723.98 333.755 Q3723.98 326.88 3727.29 322.661 Q3730.62 318.442 3735.91 318.442 Q3739.14 318.442 3741.43 319.718 Q3743.75 320.968 3745.26 323.573 M3728.93 333.755 Q3728.93 339.041 3731.09 342.062 Q3733.28 345.057 3737.08 345.057 Q3740.88 345.057 3743.07 342.062 Q3745.26 339.041 3745.26 333.755 Q3745.26 328.468 3743.07 325.474 Q3740.88 322.453 3737.08 322.453 Q3733.28 322.453 3731.09 325.474 Q3728.93 328.468 3728.93 333.755 Z" fill="#000000" fill-rule="nonzero" fill-opacity="1" /><path clip-path="url(#clip350)" d="M3759.92 319.145 L3764.71 319.145 L3764.71 348.312 L3759.92 348.312 L3759.92 319.145 M3759.92 307.791 L3764.71 307.791 L3764.71 313.859 L3759.92 313.859 L3759.92 307.791 Z" fill="#000000" fill-rule="nonzero" fill-opacity="1" /><path clip-path="url(#clip350)" d="M3795.73 320.265 L3795.73 324.744 Q3793.69 323.625 3791.64 323.078 Q3789.61 322.505 3787.52 322.505 Q3782.86 322.505 3780.28 325.474 Q3777.7 328.416 3777.7 333.755 Q3777.7 339.093 3780.28 342.062 Q3782.86 345.005 3787.52 345.005 Q3789.61 345.005 3791.64 344.458 Q3793.69 343.885 3795.73 342.765 L3795.73 347.192 Q3793.72 348.13 3791.56 348.598 Q3789.42 349.067 3787 349.067 Q3780.41 349.067 3776.53 344.927 Q3772.65 340.786 3772.65 333.755 Q3772.65 326.619 3776.56 322.531 Q3780.49 318.442 3787.31 318.442 Q3789.53 318.442 3791.64 318.911 Q3793.75 319.354 3795.73 320.265 Z" fill="#000000" fill-rule="nonzero" fill-opacity="1" /><path clip-path="url(#clip350)" d="M3808.8 310.864 L3808.8 319.145 L3818.67 319.145 L3818.67 322.869 L3808.8 322.869 L3808.8 338.703 Q3808.8 342.27 3809.76 343.286 Q3810.75 344.302 3813.75 344.302 L3818.67 344.302 L3818.67 348.312 L3813.75 348.312 Q3808.2 348.312 3806.09 346.255 Q3803.98 344.171 3803.98 338.703 L3803.98 322.869 L3800.46 322.869 L3800.46 319.145 L3803.98 319.145 L3803.98 310.864 L3808.8 310.864 Z" fill="#000000" fill-rule="nonzero" fill-opacity="1" /><path clip-path="url(#clip350)" d="M3847.13 357.166 L3847.13 360.89 L3819.42 360.89 L3819.42 357.166 L3847.13 357.166 Z" fill="#000000" fill-rule="nonzero" fill-opacity="1" /><path clip-path="url(#clip350)" d="M3853.22 343.885 L3861.82 343.885 L3861.82 314.224 L3852.47 316.099 L3852.47 311.307 L3861.77 309.432 L3867.03 309.432 L3867.03 343.885 L3875.62 343.885 L3875.62 348.312 L3853.22 348.312 L3853.22 343.885 Z" fill="#000000" fill-rule="nonzero" fill-opacity="1" /><polyline clip-path="url(#clip350)" style="stroke:#000000; stroke-linecap:round; stroke-linejoin:round; stroke-width:6.75; stroke-opacity:1; fill:none" points="3346.97,387.192 3596.82,387.192 "/>
<path clip-path="url(#clip350)" d="M3653.54 391.971 Q3647.73 391.971 3645.49 393.299 Q3643.25 394.627 3643.25 397.83 Q3643.25 400.382 3644.92 401.892 Q3646.61 403.377 3649.5 403.377 Q3653.49 403.377 3655.88 400.564 Q3658.3 397.726 3658.3 393.038 L3658.3 391.971 L3653.54 391.971 M3663.1 389.991 L3663.1 406.632 L3658.3 406.632 L3658.3 402.205 Q3656.66 404.861 3654.22 406.137 Q3651.77 407.387 3648.23 407.387 Q3643.75 407.387 3641.09 404.887 Q3638.46 402.361 3638.46 398.142 Q3638.46 393.221 3641.74 390.721 Q3645.05 388.221 3651.59 388.221 L3658.3 388.221 L3658.3 387.752 Q3658.3 384.445 3656.12 382.648 Q3653.95 380.825 3650.02 380.825 Q3647.52 380.825 3645.15 381.424 Q3642.78 382.023 3640.6 383.221 L3640.6 378.794 Q3643.23 377.778 3645.7 377.283 Q3648.17 376.762 3650.52 376.762 Q3656.85 376.762 3659.97 380.044 Q3663.1 383.325 3663.1 389.991 Z" fill="#000000" fill-rule="nonzero" fill-opacity="1" /><path clip-path="url(#clip350)" d="M3693.95 378.585 L3693.95 383.064 Q3691.92 381.945 3689.87 381.398 Q3687.83 380.825 3685.75 380.825 Q3681.09 380.825 3678.51 383.794 Q3675.93 386.736 3675.93 392.075 Q3675.93 397.413 3678.51 400.382 Q3681.09 403.325 3685.75 403.325 Q3687.83 403.325 3689.87 402.778 Q3691.92 402.205 3693.95 401.085 L3693.95 405.512 Q3691.95 406.45 3689.79 406.918 Q3687.65 407.387 3685.23 407.387 Q3678.64 407.387 3674.76 403.247 Q3670.88 399.106 3670.88 392.075 Q3670.88 384.939 3674.79 380.851 Q3678.72 376.762 3685.54 376.762 Q3687.76 376.762 3689.87 377.231 Q3691.98 377.674 3693.95 378.585 Z" fill="#000000" fill-rule="nonzero" fill-opacity="1" /><path clip-path="url(#clip350)" d="M3707.03 369.184 L3707.03 377.465 L3716.9 377.465 L3716.9 381.189 L3707.03 381.189 L3707.03 397.023 Q3707.03 400.59 3707.99 401.606 Q3708.98 402.622 3711.98 402.622 L3716.9 402.622 L3716.9 406.632 L3711.98 406.632 Q3706.43 406.632 3704.32 404.575 Q3702.21 402.491 3702.21 397.023 L3702.21 381.189 L3698.69 381.189 L3698.69 377.465 L3702.21 377.465 L3702.21 369.184 L3707.03 369.184 Z" fill="#000000" fill-rule="nonzero" fill-opacity="1" /><path clip-path="url(#clip350)" d="M3722.7 395.122 L3722.7 377.465 L3727.5 377.465 L3727.5 394.939 Q3727.5 399.08 3729.11 401.163 Q3730.73 403.221 3733.95 403.221 Q3737.83 403.221 3740.07 400.747 Q3742.34 398.273 3742.34 394.002 L3742.34 377.465 L3747.13 377.465 L3747.13 406.632 L3742.34 406.632 L3742.34 402.153 Q3740.6 404.809 3738.28 406.111 Q3735.99 407.387 3732.94 407.387 Q3727.91 407.387 3725.31 404.262 Q3722.7 401.137 3722.7 395.122 M3734.76 376.762 L3734.76 376.762 Z" fill="#000000" fill-rule="nonzero" fill-opacity="1" /><path clip-path="url(#clip350)" d="M3770.26 391.971 Q3764.45 391.971 3762.21 393.299 Q3759.97 394.627 3759.97 397.83 Q3759.97 400.382 3761.64 401.892 Q3763.33 403.377 3766.22 403.377 Q3770.2 403.377 3772.6 400.564 Q3775.02 397.726 3775.02 393.038 L3775.02 391.971 L3770.26 391.971 M3779.81 389.991 L3779.81 406.632 L3775.02 406.632 L3775.02 402.205 Q3773.38 404.861 3770.93 406.137 Q3768.49 407.387 3764.94 407.387 Q3760.46 407.387 3757.81 404.887 Q3755.18 402.361 3755.18 398.142 Q3755.18 393.221 3758.46 390.721 Q3761.77 388.221 3768.3 388.221 L3775.02 388.221 L3775.02 387.752 Q3775.02 384.445 3772.83 382.648 Q3770.67 380.825 3766.74 380.825 Q3764.24 380.825 3761.87 381.424 Q3759.5 382.023 3757.31 383.221 L3757.31 378.794 Q3759.94 377.778 3762.42 377.283 Q3764.89 376.762 3767.24 376.762 Q3773.56 376.762 3776.69 380.044 Q3779.81 383.325 3779.81 389.991 Z" fill="#000000" fill-rule="nonzero" fill-opacity="1" /><path clip-path="url(#clip350)" d="M3789.68 366.111 L3794.48 366.111 L3794.48 406.632 L3789.68 406.632 L3789.68 366.111 Z" fill="#000000" fill-rule="nonzero" fill-opacity="1" /></svg>
