<?xml version="1.0" encoding="utf-8"?>
<svg xmlns="http://www.w3.org/2000/svg" xmlns:xlink="http://www.w3.org/1999/xlink" width="1000" height="400" viewBox="0 0 4000 1600">
<defs>
  <clipPath id="clip510">
    <rect x="0" y="0" width="4000" height="1600"/>
  </clipPath>
</defs>
<path clip-path="url(#clip510)" d="M0 1600 L4000 1600 L4000 0 L0 0  Z" fill="#ffffff" fill-rule="evenodd" fill-opacity="1"/>
<defs>
  <clipPath id="clip511">
    <rect x="800" y="0" width="2801" height="1600"/>
  </clipPath>
</defs>
<path clip-path="url(#clip510)" d="M205.623 1497.68 L3180.48 1497.68 L3180.48 47.2441 L205.623 47.2441  Z" fill="#ffffff" fill-rule="evenodd" fill-opacity="1"/>
<defs>
  <clipPath id="clip512">
    <rect x="205" y="47" width="2976" height="1451"/>
  </clipPath>
</defs>
<polyline clip-path="url(#clip512)" style="stroke:#000000; stroke-linecap:round; stroke-linejoin:round; stroke-width:2; stroke-opacity:0.1; fill:none" points="289.818,1497.68 289.818,47.2441 "/>
<polyline clip-path="url(#clip512)" style="stroke:#000000; stroke-linecap:round; stroke-linejoin:round; stroke-width:2; stroke-opacity:0.1; fill:none" points="1096.47,1497.68 1096.47,47.2441 "/>
<polyline clip-path="url(#clip512)" style="stroke:#000000; stroke-linecap:round; stroke-linejoin:round; stroke-width:2; stroke-opacity:0.1; fill:none" points="1903.12,1497.68 1903.12,47.2441 "/>
<polyline clip-path="url(#clip512)" style="stroke:#000000; stroke-linecap:round; stroke-linejoin:round; stroke-width:2; stroke-opacity:0.1; fill:none" points="2709.77,1497.68 2709.77,47.2441 "/>
<polyline clip-path="url(#clip510)" style="stroke:#000000; stroke-linecap:round; stroke-linejoin:round; stroke-width:4; stroke-opacity:1; fill:none" points="205.623,1497.68 3180.48,1497.68 "/>
<polyline clip-path="url(#clip510)" style="stroke:#000000; stroke-linecap:round; stroke-linejoin:round; stroke-width:4; stroke-opacity:1; fill:none" points="289.818,1497.68 289.818,1478.78 "/>
<polyline clip-path="url(#clip510)" style="stroke:#000000; stroke-linecap:round; stroke-linejoin:round; stroke-width:4; stroke-opacity:1; fill:none" points="1096.47,1497.68 1096.47,1478.78 "/>
<polyline clip-path="url(#clip510)" style="stroke:#000000; stroke-linecap:round; stroke-linejoin:round; stroke-width:4; stroke-opacity:1; fill:none" points="1903.12,1497.68 1903.12,1478.78 "/>
<polyline clip-path="url(#clip510)" style="stroke:#000000; stroke-linecap:round; stroke-linejoin:round; stroke-width:4; stroke-opacity:1; fill:none" points="2709.77,1497.68 2709.77,1478.78 "/>
<path clip-path="url(#clip510)" d="M144.623 1573.85 L162.982 1573.85 L162.982 1578.28 L138.295 1578.28 L138.295 1573.85 Q141.29 1570.75 146.446 1565.55 Q151.628 1560.31 152.956 1558.8 Q155.482 1555.96 156.472 1554.01 Q157.488 1552.03 157.488 1550.13 Q157.488 1547.03 155.3 1545.08 Q153.139 1543.12 149.649 1543.12 Q147.175 1543.12 144.415 1543.98 Q141.68 1544.84 138.555 1546.59 L138.555 1541.27 Q141.732 1540 144.493 1539.35 Q147.253 1538.7 149.545 1538.7 Q155.586 1538.7 159.18 1541.72 Q162.774 1544.74 162.774 1549.79 Q162.774 1552.19 161.862 1554.35 Q160.977 1556.48 158.607 1559.4 Q157.956 1560.15 154.467 1563.77 Q150.977 1567.37 144.623 1573.85 Z" fill="#000000" fill-rule="nonzero" fill-opacity="1" /><path clip-path="url(#clip510)" d="M185.274 1542.86 Q181.211 1542.86 179.154 1546.87 Q177.123 1550.86 177.123 1558.88 Q177.123 1566.87 179.154 1570.88 Q181.211 1574.87 185.274 1574.87 Q189.362 1574.87 191.394 1570.88 Q193.451 1566.87 193.451 1558.88 Q193.451 1550.86 191.394 1546.87 Q189.362 1542.86 185.274 1542.86 M185.274 1538.7 Q191.81 1538.7 195.248 1543.88 Q198.711 1549.04 198.711 1558.88 Q198.711 1568.7 195.248 1573.88 Q191.81 1579.04 185.274 1579.04 Q178.737 1579.04 175.274 1573.88 Q171.836 1568.7 171.836 1558.88 Q171.836 1549.04 175.274 1543.88 Q178.737 1538.7 185.274 1538.7 Z" fill="#000000" fill-rule="nonzero" fill-opacity="1" /><path clip-path="url(#clip510)" d="M212.487 1573.85 L230.846 1573.85 L230.846 1578.28 L206.159 1578.28 L206.159 1573.85 Q209.154 1570.75 214.31 1565.55 Q219.492 1560.31 220.82 1558.8 Q223.347 1555.96 224.336 1554.01 Q225.352 1552.03 225.352 1550.13 Q225.352 1547.03 223.164 1545.08 Q221.003 1543.12 217.513 1543.12 Q215.039 1543.12 212.279 1543.98 Q209.545 1544.84 206.42 1546.59 L206.42 1541.27 Q209.597 1540 212.357 1539.35 Q215.117 1538.7 217.409 1538.7 Q223.451 1538.7 227.044 1541.72 Q230.638 1544.74 230.638 1549.79 Q230.638 1552.19 229.727 1554.35 Q228.841 1556.48 226.472 1559.4 Q225.82 1560.15 222.331 1563.77 Q218.841 1567.37 212.487 1573.85 Z" fill="#000000" fill-rule="nonzero" fill-opacity="1" /><path clip-path="url(#clip510)" d="M246.419 1573.85 L264.779 1573.85 L264.779 1578.28 L240.091 1578.28 L240.091 1573.85 Q243.086 1570.75 248.242 1565.55 Q253.424 1560.31 254.753 1558.8 Q257.279 1555.96 258.268 1554.01 Q259.284 1552.03 259.284 1550.13 Q259.284 1547.03 257.096 1545.08 Q254.935 1543.12 251.445 1543.12 Q248.971 1543.12 246.211 1543.98 Q243.477 1544.84 240.352 1546.59 L240.352 1541.27 Q243.529 1540 246.289 1539.35 Q249.05 1538.7 251.341 1538.7 Q257.383 1538.7 260.977 1541.72 Q264.57 1544.74 264.57 1549.79 Q264.57 1552.19 263.659 1554.35 Q262.773 1556.48 260.404 1559.4 Q259.753 1560.15 256.263 1563.77 Q252.773 1567.37 246.419 1573.85 Z" fill="#000000" fill-rule="nonzero" fill-opacity="1" /><path clip-path="url(#clip510)" d="M272.721 1561.54 L286.758 1561.54 L286.758 1565.81 L272.721 1565.81 L272.721 1561.54 Z" fill="#000000" fill-rule="nonzero" fill-opacity="1" /><path clip-path="url(#clip510)" d="M295.976 1573.85 L304.57 1573.85 L304.57 1544.19 L295.221 1546.07 L295.221 1541.27 L304.518 1539.4 L309.778 1539.4 L309.778 1573.85 L318.372 1573.85 L318.372 1578.28 L295.976 1578.28 L295.976 1573.85 Z" fill="#000000" fill-rule="nonzero" fill-opacity="1" /><path clip-path="url(#clip510)" d="M340.247 1542.86 Q336.184 1542.86 334.127 1546.87 Q332.096 1550.86 332.096 1558.88 Q332.096 1566.87 334.127 1570.88 Q336.184 1574.87 340.247 1574.87 Q344.335 1574.87 346.367 1570.88 Q348.424 1566.87 348.424 1558.88 Q348.424 1550.86 346.367 1546.87 Q344.335 1542.86 340.247 1542.86 M340.247 1538.7 Q346.783 1538.7 350.221 1543.88 Q353.684 1549.04 353.684 1558.88 Q353.684 1568.7 350.221 1573.88 Q346.783 1579.04 340.247 1579.04 Q333.711 1579.04 330.247 1573.88 Q326.81 1568.7 326.81 1558.88 Q326.81 1549.04 330.247 1543.88 Q333.711 1538.7 340.247 1538.7 Z" fill="#000000" fill-rule="nonzero" fill-opacity="1" /><path clip-path="url(#clip510)" d="M359.83 1561.54 L373.867 1561.54 L373.867 1565.81 L359.83 1565.81 L359.83 1561.54 Z" fill="#000000" fill-rule="nonzero" fill-opacity="1" /><path clip-path="url(#clip510)" d="M386.705 1573.85 L405.064 1573.85 L405.064 1578.28 L380.377 1578.28 L380.377 1573.85 Q383.372 1570.75 388.528 1565.55 Q393.71 1560.31 395.038 1558.8 Q397.564 1555.96 398.554 1554.01 Q399.57 1552.03 399.57 1550.13 Q399.57 1547.03 397.382 1545.08 Q395.221 1543.12 391.731 1543.12 Q389.257 1543.12 386.497 1543.98 Q383.762 1544.84 380.637 1546.59 L380.637 1541.27 Q383.814 1540 386.575 1539.35 Q389.335 1538.7 391.627 1538.7 Q397.669 1538.7 401.262 1541.72 Q404.856 1544.74 404.856 1549.79 Q404.856 1552.19 403.945 1554.35 Q403.059 1556.48 400.689 1559.4 Q400.038 1560.15 396.549 1563.77 Q393.059 1567.37 386.705 1573.85 Z" fill="#000000" fill-rule="nonzero" fill-opacity="1" /><path clip-path="url(#clip510)" d="M430.559 1543.98 L417.278 1564.74 L430.559 1564.74 L430.559 1543.98 M429.179 1539.4 L435.793 1539.4 L435.793 1564.74 L441.34 1564.74 L441.34 1569.11 L435.793 1569.11 L435.793 1578.28 L430.559 1578.28 L430.559 1569.11 L413.007 1569.11 L413.007 1564.04 L429.179 1539.4 Z" fill="#000000" fill-rule="nonzero" fill-opacity="1" /><path clip-path="url(#clip510)" d="M951.456 1573.85 L969.815 1573.85 L969.815 1578.28 L945.128 1578.28 L945.128 1573.85 Q948.123 1570.75 953.279 1565.55 Q958.461 1560.31 959.789 1558.8 Q962.315 1555.96 963.305 1554.01 Q964.32 1552.03 964.32 1550.13 Q964.32 1547.03 962.133 1545.08 Q959.971 1543.12 956.482 1543.12 Q954.008 1543.12 951.248 1543.98 Q948.513 1544.84 945.388 1546.59 L945.388 1541.27 Q948.565 1540 951.326 1539.35 Q954.086 1538.7 956.378 1538.7 Q962.419 1538.7 966.013 1541.72 Q969.607 1544.74 969.607 1549.79 Q969.607 1552.19 968.695 1554.35 Q967.81 1556.48 965.44 1559.4 Q964.789 1560.15 961.3 1563.77 Q957.81 1567.37 951.456 1573.85 Z" fill="#000000" fill-rule="nonzero" fill-opacity="1" /><path clip-path="url(#clip510)" d="M992.107 1542.86 Q988.044 1542.86 985.987 1546.87 Q983.956 1550.86 983.956 1558.88 Q983.956 1566.87 985.987 1570.88 Q988.044 1574.87 992.107 1574.87 Q996.195 1574.87 998.226 1570.88 Q1000.28 1566.87 1000.28 1558.88 Q1000.28 1550.86 998.226 1546.87 Q996.195 1542.86 992.107 1542.86 M992.107 1538.7 Q998.643 1538.7 1002.08 1543.88 Q1005.54 1549.04 1005.54 1558.88 Q1005.54 1568.7 1002.08 1573.88 Q998.643 1579.04 992.107 1579.04 Q985.57 1579.04 982.107 1573.88 Q978.669 1568.7 978.669 1558.88 Q978.669 1549.04 982.107 1543.88 Q985.57 1538.7 992.107 1538.7 Z" fill="#000000" fill-rule="nonzero" fill-opacity="1" /><path clip-path="url(#clip510)" d="M1019.32 1573.85 L1037.68 1573.85 L1037.68 1578.28 L1012.99 1578.28 L1012.99 1573.85 Q1015.99 1570.75 1021.14 1565.55 Q1026.33 1560.31 1027.65 1558.8 Q1030.18 1555.96 1031.17 1554.01 Q1032.18 1552.03 1032.18 1550.13 Q1032.18 1547.03 1030 1545.08 Q1027.84 1543.12 1024.35 1543.12 Q1021.87 1543.12 1019.11 1543.98 Q1016.38 1544.84 1013.25 1546.59 L1013.25 1541.27 Q1016.43 1540 1019.19 1539.35 Q1021.95 1538.7 1024.24 1538.7 Q1030.28 1538.7 1033.88 1541.72 Q1037.47 1544.74 1037.47 1549.79 Q1037.47 1552.19 1036.56 1554.35 Q1035.67 1556.48 1033.3 1559.4 Q1032.65 1560.15 1029.16 1563.77 Q1025.67 1567.37 1019.32 1573.85 Z" fill="#000000" fill-rule="nonzero" fill-opacity="1" /><path clip-path="url(#clip510)" d="M1053.25 1573.85 L1071.61 1573.85 L1071.61 1578.28 L1046.92 1578.28 L1046.92 1573.85 Q1049.92 1570.75 1055.08 1565.55 Q1060.26 1560.31 1061.59 1558.8 Q1064.11 1555.96 1065.1 1554.01 Q1066.12 1552.03 1066.12 1550.13 Q1066.12 1547.03 1063.93 1545.08 Q1061.77 1543.12 1058.28 1543.12 Q1055.8 1543.12 1053.04 1543.98 Q1050.31 1544.84 1047.18 1546.59 L1047.18 1541.27 Q1050.36 1540 1053.12 1539.35 Q1055.88 1538.7 1058.17 1538.7 Q1064.22 1538.7 1067.81 1541.72 Q1071.4 1544.74 1071.4 1549.79 Q1071.4 1552.19 1070.49 1554.35 Q1069.61 1556.48 1067.24 1559.4 Q1066.59 1560.15 1063.1 1563.77 Q1059.61 1567.37 1053.25 1573.85 Z" fill="#000000" fill-rule="nonzero" fill-opacity="1" /><path clip-path="url(#clip510)" d="M1079.55 1561.54 L1093.59 1561.54 L1093.59 1565.81 L1079.55 1565.81 L1079.55 1561.54 Z" fill="#000000" fill-rule="nonzero" fill-opacity="1" /><path clip-path="url(#clip510)" d="M1102.81 1573.85 L1111.4 1573.85 L1111.4 1544.19 L1102.05 1546.07 L1102.05 1541.27 L1111.35 1539.4 L1116.61 1539.4 L1116.61 1573.85 L1125.2 1573.85 L1125.2 1578.28 L1102.81 1578.28 L1102.81 1573.85 Z" fill="#000000" fill-rule="nonzero" fill-opacity="1" /><path clip-path="url(#clip510)" d="M1147.08 1542.86 Q1143.02 1542.86 1140.96 1546.87 Q1138.93 1550.86 1138.93 1558.88 Q1138.93 1566.87 1140.96 1570.88 Q1143.02 1574.87 1147.08 1574.87 Q1151.17 1574.87 1153.2 1570.88 Q1155.26 1566.87 1155.26 1558.88 Q1155.26 1550.86 1153.2 1546.87 Q1151.17 1542.86 1147.08 1542.86 M1147.08 1538.7 Q1153.62 1538.7 1157.05 1543.88 Q1160.52 1549.04 1160.52 1558.88 Q1160.52 1568.7 1157.05 1573.88 Q1153.62 1579.04 1147.08 1579.04 Q1140.54 1579.04 1137.08 1573.88 Q1133.64 1568.7 1133.64 1558.88 Q1133.64 1549.04 1137.08 1543.88 Q1140.54 1538.7 1147.08 1538.7 Z" fill="#000000" fill-rule="nonzero" fill-opacity="1" /><path clip-path="url(#clip510)" d="M1166.66 1561.54 L1180.7 1561.54 L1180.7 1565.81 L1166.66 1565.81 L1166.66 1561.54 Z" fill="#000000" fill-rule="nonzero" fill-opacity="1" /><path clip-path="url(#clip510)" d="M1193.54 1573.85 L1211.9 1573.85 L1211.9 1578.28 L1187.21 1578.28 L1187.21 1573.85 Q1190.2 1570.75 1195.36 1565.55 Q1200.54 1560.31 1201.87 1558.8 Q1204.4 1555.96 1205.39 1554.01 Q1206.4 1552.03 1206.4 1550.13 Q1206.4 1547.03 1204.21 1545.08 Q1202.05 1543.12 1198.56 1543.12 Q1196.09 1543.12 1193.33 1543.98 Q1190.6 1544.84 1187.47 1546.59 L1187.47 1541.27 Q1190.65 1540 1193.41 1539.35 Q1196.17 1538.7 1198.46 1538.7 Q1204.5 1538.7 1208.1 1541.72 Q1211.69 1544.74 1211.69 1549.79 Q1211.69 1552.19 1210.78 1554.35 Q1209.89 1556.48 1207.52 1559.4 Q1206.87 1560.15 1203.38 1563.77 Q1199.89 1567.37 1193.54 1573.85 Z" fill="#000000" fill-rule="nonzero" fill-opacity="1" /><path clip-path="url(#clip510)" d="M1234.84 1556.74 Q1231.3 1556.74 1229.21 1559.17 Q1227.16 1561.59 1227.16 1565.81 Q1227.16 1570 1229.21 1572.45 Q1231.3 1574.87 1234.84 1574.87 Q1238.38 1574.87 1240.44 1572.45 Q1242.52 1570 1242.52 1565.81 Q1242.52 1561.59 1240.44 1559.17 Q1238.38 1556.74 1234.84 1556.74 M1245.28 1540.26 L1245.28 1545.05 Q1243.3 1544.11 1241.27 1543.62 Q1239.27 1543.12 1237.29 1543.12 Q1232.08 1543.12 1229.32 1546.64 Q1226.58 1550.16 1226.19 1557.26 Q1227.73 1555 1230.05 1553.8 Q1232.37 1552.58 1235.15 1552.58 Q1241.01 1552.58 1244.4 1556.14 Q1247.81 1559.69 1247.81 1565.81 Q1247.81 1571.8 1244.27 1575.42 Q1240.73 1579.04 1234.84 1579.04 Q1228.09 1579.04 1224.53 1573.88 Q1220.96 1568.7 1220.96 1558.88 Q1220.96 1549.66 1225.33 1544.19 Q1229.71 1538.7 1237.08 1538.7 Q1239.06 1538.7 1241.06 1539.09 Q1243.09 1539.48 1245.28 1540.26 Z" fill="#000000" fill-rule="nonzero" fill-opacity="1" /><path clip-path="url(#clip510)" d="M1758.25 1573.85 L1776.61 1573.85 L1776.61 1578.28 L1751.92 1578.28 L1751.92 1573.85 Q1754.92 1570.75 1760.07 1565.55 Q1765.25 1560.31 1766.58 1558.8 Q1769.11 1555.96 1770.1 1554.01 Q1771.11 1552.03 1771.11 1550.13 Q1771.11 1547.03 1768.93 1545.08 Q1766.77 1543.12 1763.28 1543.12 Q1760.8 1543.12 1758.04 1543.98 Q1755.31 1544.84 1752.18 1546.59 L1752.18 1541.27 Q1755.36 1540 1758.12 1539.35 Q1760.88 1538.7 1763.17 1538.7 Q1769.21 1538.7 1772.81 1541.72 Q1776.4 1544.74 1776.4 1549.79 Q1776.4 1552.19 1775.49 1554.35 Q1774.6 1556.48 1772.23 1559.4 Q1771.58 1560.15 1768.09 1563.77 Q1764.6 1567.37 1758.25 1573.85 Z" fill="#000000" fill-rule="nonzero" fill-opacity="1" /><path clip-path="url(#clip510)" d="M1798.9 1542.86 Q1794.84 1542.86 1792.78 1546.87 Q1790.75 1550.86 1790.75 1558.88 Q1790.75 1566.87 1792.78 1570.88 Q1794.84 1574.87 1798.9 1574.87 Q1802.99 1574.87 1805.02 1570.88 Q1807.08 1566.87 1807.08 1558.88 Q1807.08 1550.86 1805.02 1546.87 Q1802.99 1542.86 1798.9 1542.86 M1798.9 1538.7 Q1805.44 1538.7 1808.87 1543.88 Q1812.34 1549.04 1812.34 1558.88 Q1812.34 1568.7 1808.87 1573.88 Q1805.44 1579.04 1798.9 1579.04 Q1792.36 1579.04 1788.9 1573.88 Q1785.46 1568.7 1785.46 1558.88 Q1785.46 1549.04 1788.9 1543.88 Q1792.36 1538.7 1798.9 1538.7 Z" fill="#000000" fill-rule="nonzero" fill-opacity="1" /><path clip-path="url(#clip510)" d="M1826.11 1573.85 L1844.47 1573.85 L1844.47 1578.28 L1819.79 1578.28 L1819.79 1573.85 Q1822.78 1570.75 1827.94 1565.55 Q1833.12 1560.31 1834.45 1558.8 Q1836.97 1555.96 1837.96 1554.01 Q1838.98 1552.03 1838.98 1550.13 Q1838.98 1547.03 1836.79 1545.08 Q1834.63 1543.12 1831.14 1543.12 Q1828.67 1543.12 1825.91 1543.98 Q1823.17 1544.84 1820.05 1546.59 L1820.05 1541.27 Q1823.22 1540 1825.98 1539.35 Q1828.74 1538.7 1831.04 1538.7 Q1837.08 1538.7 1840.67 1541.72 Q1844.26 1544.74 1844.26 1549.79 Q1844.26 1552.19 1843.35 1554.35 Q1842.47 1556.48 1840.1 1559.4 Q1839.45 1560.15 1835.96 1563.77 Q1832.47 1567.37 1826.11 1573.85 Z" fill="#000000" fill-rule="nonzero" fill-opacity="1" /><path clip-path="url(#clip510)" d="M1860.05 1573.85 L1878.41 1573.85 L1878.41 1578.28 L1853.72 1578.28 L1853.72 1573.85 Q1856.71 1570.75 1861.87 1565.55 Q1867.05 1560.31 1868.38 1558.8 Q1870.91 1555.96 1871.89 1554.01 Q1872.91 1552.03 1872.91 1550.13 Q1872.91 1547.03 1870.72 1545.08 Q1868.56 1543.12 1865.07 1543.12 Q1862.6 1543.12 1859.84 1543.98 Q1857.1 1544.84 1853.98 1546.59 L1853.98 1541.27 Q1857.16 1540 1859.92 1539.35 Q1862.68 1538.7 1864.97 1538.7 Q1871.01 1538.7 1874.6 1541.72 Q1878.2 1544.74 1878.2 1549.79 Q1878.2 1552.19 1877.29 1554.35 Q1876.4 1556.48 1874.03 1559.4 Q1873.38 1560.15 1869.89 1563.77 Q1866.4 1567.37 1860.05 1573.85 Z" fill="#000000" fill-rule="nonzero" fill-opacity="1" /><path clip-path="url(#clip510)" d="M1886.35 1561.54 L1900.38 1561.54 L1900.38 1565.81 L1886.35 1565.81 L1886.35 1561.54 Z" fill="#000000" fill-rule="nonzero" fill-opacity="1" /><path clip-path="url(#clip510)" d="M1909.6 1573.85 L1918.2 1573.85 L1918.2 1544.19 L1908.85 1546.07 L1908.85 1541.27 L1918.14 1539.4 L1923.41 1539.4 L1923.41 1573.85 L1932 1573.85 L1932 1578.28 L1909.6 1578.28 L1909.6 1573.85 Z" fill="#000000" fill-rule="nonzero" fill-opacity="1" /><path clip-path="url(#clip510)" d="M1953.87 1542.86 Q1949.81 1542.86 1947.75 1546.87 Q1945.72 1550.86 1945.72 1558.88 Q1945.72 1566.87 1947.75 1570.88 Q1949.81 1574.87 1953.87 1574.87 Q1957.96 1574.87 1959.99 1570.88 Q1962.05 1566.87 1962.05 1558.88 Q1962.05 1550.86 1959.99 1546.87 Q1957.96 1542.86 1953.87 1542.86 M1953.87 1538.7 Q1960.41 1538.7 1963.85 1543.88 Q1967.31 1549.04 1967.31 1558.88 Q1967.31 1568.7 1963.85 1573.88 Q1960.41 1579.04 1953.87 1579.04 Q1947.34 1579.04 1943.87 1573.88 Q1940.44 1568.7 1940.44 1558.88 Q1940.44 1549.04 1943.87 1543.88 Q1947.34 1538.7 1953.87 1538.7 Z" fill="#000000" fill-rule="nonzero" fill-opacity="1" /><path clip-path="url(#clip510)" d="M1973.46 1561.54 L1987.49 1561.54 L1987.49 1565.81 L1973.46 1565.81 L1973.46 1561.54 Z" fill="#000000" fill-rule="nonzero" fill-opacity="1" /><path clip-path="url(#clip510)" d="M2000.33 1573.85 L2018.69 1573.85 L2018.69 1578.28 L1994 1578.28 L1994 1573.85 Q1997 1570.75 2002.15 1565.55 Q2007.34 1560.31 2008.66 1558.8 Q2011.19 1555.96 2012.18 1554.01 Q2013.2 1552.03 2013.2 1550.13 Q2013.2 1547.03 2011.01 1545.08 Q2008.85 1543.12 2005.36 1543.12 Q2002.88 1543.12 2000.12 1543.98 Q1997.39 1544.84 1994.26 1546.59 L1994.26 1541.27 Q1997.44 1540 2000.2 1539.35 Q2002.96 1538.7 2005.25 1538.7 Q2011.3 1538.7 2014.89 1541.72 Q2018.48 1544.74 2018.48 1549.79 Q2018.48 1552.19 2017.57 1554.35 Q2016.69 1556.48 2014.32 1559.4 Q2013.66 1560.15 2010.18 1563.77 Q2006.69 1567.37 2000.33 1573.85 Z" fill="#000000" fill-rule="nonzero" fill-opacity="1" /><path clip-path="url(#clip510)" d="M2040.98 1559.82 Q2037.23 1559.82 2035.07 1561.82 Q2032.94 1563.83 2032.94 1567.34 Q2032.94 1570.86 2035.07 1572.86 Q2037.23 1574.87 2040.98 1574.87 Q2044.73 1574.87 2046.89 1572.86 Q2049.06 1570.83 2049.06 1567.34 Q2049.06 1563.83 2046.89 1561.82 Q2044.76 1559.82 2040.98 1559.82 M2035.72 1557.58 Q2032.34 1556.74 2030.44 1554.43 Q2028.56 1552.11 2028.56 1548.77 Q2028.56 1544.11 2031.87 1541.41 Q2035.2 1538.7 2040.98 1538.7 Q2046.79 1538.7 2050.1 1541.41 Q2053.4 1544.11 2053.4 1548.77 Q2053.4 1552.11 2051.5 1554.43 Q2049.63 1556.74 2046.27 1557.58 Q2050.07 1558.46 2052.18 1561.04 Q2054.32 1563.62 2054.32 1567.34 Q2054.32 1572.99 2050.85 1576.01 Q2047.41 1579.04 2040.98 1579.04 Q2034.55 1579.04 2031.09 1576.01 Q2027.65 1572.99 2027.65 1567.34 Q2027.65 1563.62 2029.78 1561.04 Q2031.92 1558.46 2035.72 1557.58 M2033.8 1549.27 Q2033.8 1552.29 2035.67 1553.98 Q2037.57 1555.68 2040.98 1555.68 Q2044.37 1555.68 2046.27 1553.98 Q2048.2 1552.29 2048.2 1549.27 Q2048.2 1546.25 2046.27 1544.56 Q2044.37 1542.86 2040.98 1542.86 Q2037.57 1542.86 2035.67 1544.56 Q2033.8 1546.25 2033.8 1549.27 Z" fill="#000000" fill-rule="nonzero" fill-opacity="1" /><path clip-path="url(#clip510)" d="M2564.85 1573.85 L2583.21 1573.85 L2583.21 1578.28 L2558.52 1578.28 L2558.52 1573.85 Q2561.51 1570.75 2566.67 1565.55 Q2571.85 1560.31 2573.18 1558.8 Q2575.71 1555.96 2576.7 1554.01 Q2577.71 1552.03 2577.71 1550.13 Q2577.71 1547.03 2575.53 1545.08 Q2573.36 1543.12 2569.87 1543.12 Q2567.4 1543.12 2564.64 1543.98 Q2561.91 1544.84 2558.78 1546.59 L2558.78 1541.27 Q2561.96 1540 2564.72 1539.35 Q2567.48 1538.7 2569.77 1538.7 Q2575.81 1538.7 2579.41 1541.72 Q2583 1544.74 2583 1549.79 Q2583 1552.19 2582.09 1554.35 Q2581.2 1556.48 2578.83 1559.4 Q2578.18 1560.15 2574.69 1563.77 Q2571.2 1567.37 2564.85 1573.85 Z" fill="#000000" fill-rule="nonzero" fill-opacity="1" /><path clip-path="url(#clip510)" d="M2605.5 1542.86 Q2601.44 1542.86 2599.38 1546.87 Q2597.35 1550.86 2597.35 1558.88 Q2597.35 1566.87 2599.38 1570.88 Q2601.44 1574.87 2605.5 1574.87 Q2609.59 1574.87 2611.62 1570.88 Q2613.68 1566.87 2613.68 1558.88 Q2613.68 1550.86 2611.62 1546.87 Q2609.59 1542.86 2605.5 1542.86 M2605.5 1538.7 Q2612.04 1538.7 2615.47 1543.88 Q2618.94 1549.04 2618.94 1558.88 Q2618.94 1568.7 2615.47 1573.88 Q2612.04 1579.04 2605.5 1579.04 Q2598.96 1579.04 2595.5 1573.88 Q2592.06 1568.7 2592.06 1558.88 Q2592.06 1549.04 2595.5 1543.88 Q2598.96 1538.7 2605.5 1538.7 Z" fill="#000000" fill-rule="nonzero" fill-opacity="1" /><path clip-path="url(#clip510)" d="M2632.71 1573.85 L2651.07 1573.85 L2651.07 1578.28 L2626.38 1578.28 L2626.38 1573.85 Q2629.38 1570.75 2634.54 1565.55 Q2639.72 1560.31 2641.05 1558.8 Q2643.57 1555.96 2644.56 1554.01 Q2645.58 1552.03 2645.58 1550.13 Q2645.58 1547.03 2643.39 1545.08 Q2641.23 1543.12 2637.74 1543.12 Q2635.26 1543.12 2632.5 1543.98 Q2629.77 1544.84 2626.64 1546.59 L2626.64 1541.27 Q2629.82 1540 2632.58 1539.35 Q2635.34 1538.7 2637.63 1538.7 Q2643.68 1538.7 2647.27 1541.72 Q2650.86 1544.74 2650.86 1549.79 Q2650.86 1552.19 2649.95 1554.35 Q2649.07 1556.48 2646.7 1559.4 Q2646.05 1560.15 2642.56 1563.77 Q2639.07 1567.37 2632.71 1573.85 Z" fill="#000000" fill-rule="nonzero" fill-opacity="1" /><path clip-path="url(#clip510)" d="M2666.64 1573.85 L2685 1573.85 L2685 1578.28 L2660.32 1578.28 L2660.32 1573.85 Q2663.31 1570.75 2668.47 1565.55 Q2673.65 1560.31 2674.98 1558.8 Q2677.5 1555.96 2678.49 1554.01 Q2679.51 1552.03 2679.51 1550.13 Q2679.51 1547.03 2677.32 1545.08 Q2675.16 1543.12 2671.67 1543.12 Q2669.2 1543.12 2666.44 1543.98 Q2663.7 1544.84 2660.58 1546.59 L2660.58 1541.27 Q2663.75 1540 2666.51 1539.35 Q2669.27 1538.7 2671.57 1538.7 Q2677.61 1538.7 2681.2 1541.72 Q2684.8 1544.74 2684.8 1549.79 Q2684.8 1552.19 2683.88 1554.35 Q2683 1556.48 2680.63 1559.4 Q2679.98 1560.15 2676.49 1563.77 Q2673 1567.37 2666.64 1573.85 Z" fill="#000000" fill-rule="nonzero" fill-opacity="1" /><path clip-path="url(#clip510)" d="M2692.95 1561.54 L2706.98 1561.54 L2706.98 1565.81 L2692.95 1565.81 L2692.95 1561.54 Z" fill="#000000" fill-rule="nonzero" fill-opacity="1" /><path clip-path="url(#clip510)" d="M2716.2 1573.85 L2724.8 1573.85 L2724.8 1544.19 L2715.45 1546.07 L2715.45 1541.27 L2724.74 1539.4 L2730 1539.4 L2730 1573.85 L2738.6 1573.85 L2738.6 1578.28 L2716.2 1578.28 L2716.2 1573.85 Z" fill="#000000" fill-rule="nonzero" fill-opacity="1" /><path clip-path="url(#clip510)" d="M2760.47 1542.86 Q2756.41 1542.86 2754.35 1546.87 Q2752.32 1550.86 2752.32 1558.88 Q2752.32 1566.87 2754.35 1570.88 Q2756.41 1574.87 2760.47 1574.87 Q2764.56 1574.87 2766.59 1570.88 Q2768.65 1566.87 2768.65 1558.88 Q2768.65 1550.86 2766.59 1546.87 Q2764.56 1542.86 2760.47 1542.86 M2760.47 1538.7 Q2767.01 1538.7 2770.45 1543.88 Q2773.91 1549.04 2773.91 1558.88 Q2773.91 1568.7 2770.45 1573.88 Q2767.01 1579.04 2760.47 1579.04 Q2753.94 1579.04 2750.47 1573.88 Q2747.03 1568.7 2747.03 1558.88 Q2747.03 1549.04 2750.47 1543.88 Q2753.94 1538.7 2760.47 1538.7 Z" fill="#000000" fill-rule="nonzero" fill-opacity="1" /><path clip-path="url(#clip510)" d="M2780.06 1561.54 L2794.09 1561.54 L2794.09 1565.81 L2780.06 1565.81 L2780.06 1561.54 Z" fill="#000000" fill-rule="nonzero" fill-opacity="1" /><path clip-path="url(#clip510)" d="M2818.34 1557.32 Q2822.11 1558.12 2824.22 1560.68 Q2826.36 1563.23 2826.36 1566.98 Q2826.36 1572.73 2822.4 1575.88 Q2818.44 1579.04 2811.15 1579.04 Q2808.7 1579.04 2806.1 1578.54 Q2803.52 1578.07 2800.76 1577.11 L2800.76 1572.03 Q2802.95 1573.31 2805.55 1573.96 Q2808.15 1574.61 2810.99 1574.61 Q2815.94 1574.61 2818.52 1572.65 Q2821.12 1570.7 2821.12 1566.98 Q2821.12 1563.54 2818.7 1561.61 Q2816.31 1559.66 2812.01 1559.66 L2807.48 1559.66 L2807.48 1555.34 L2812.22 1555.34 Q2816.1 1555.34 2818.15 1553.8 Q2820.21 1552.24 2820.21 1549.32 Q2820.21 1546.33 2818.08 1544.74 Q2815.97 1543.12 2812.01 1543.12 Q2809.85 1543.12 2807.37 1543.59 Q2804.9 1544.06 2801.93 1545.05 L2801.93 1540.36 Q2804.92 1539.53 2807.53 1539.11 Q2810.16 1538.7 2812.48 1538.7 Q2818.47 1538.7 2821.96 1541.43 Q2825.45 1544.14 2825.45 1548.77 Q2825.45 1552 2823.6 1554.24 Q2821.75 1556.46 2818.34 1557.32 Z" fill="#000000" fill-rule="nonzero" fill-opacity="1" /><path clip-path="url(#clip510)" d="M2847.58 1542.86 Q2843.52 1542.86 2841.46 1546.87 Q2839.43 1550.86 2839.43 1558.88 Q2839.43 1566.87 2841.46 1570.88 Q2843.52 1574.87 2847.58 1574.87 Q2851.67 1574.87 2853.7 1570.88 Q2855.76 1566.87 2855.76 1558.88 Q2855.76 1550.86 2853.7 1546.87 Q2851.67 1542.86 2847.58 1542.86 M2847.58 1538.7 Q2854.12 1538.7 2857.55 1543.88 Q2861.02 1549.04 2861.02 1558.88 Q2861.02 1568.7 2857.55 1573.88 Q2854.12 1579.04 2847.58 1579.04 Q2841.04 1579.04 2837.58 1573.88 Q2834.14 1568.7 2834.14 1558.88 Q2834.14 1549.04 2837.58 1543.88 Q2841.04 1538.7 2847.58 1538.7 Z" fill="#000000" fill-rule="nonzero" fill-opacity="1" /><polyline clip-path="url(#clip512)" style="stroke:#000000; stroke-linecap:round; stroke-linejoin:round; stroke-width:2; stroke-opacity:0.1; fill:none" points="205.623,1372.6 3180.48,1372.6 "/>
<polyline clip-path="url(#clip512)" style="stroke:#000000; stroke-linecap:round; stroke-linejoin:round; stroke-width:2; stroke-opacity:0.1; fill:none" points="205.623,1090.74 3180.48,1090.74 "/>
<polyline clip-path="url(#clip512)" style="stroke:#000000; stroke-linecap:round; stroke-linejoin:round; stroke-width:2; stroke-opacity:0.1; fill:none" points="205.623,808.893 3180.48,808.893 "/>
<polyline clip-path="url(#clip512)" style="stroke:#000000; stroke-linecap:round; stroke-linejoin:round; stroke-width:2; stroke-opacity:0.1; fill:none" points="205.623,527.042 3180.48,527.042 "/>
<polyline clip-path="url(#clip512)" style="stroke:#000000; stroke-linecap:round; stroke-linejoin:round; stroke-width:2; stroke-opacity:0.1; fill:none" points="205.623,245.191 3180.48,245.191 "/>
<polyline clip-path="url(#clip510)" style="stroke:#000000; stroke-linecap:round; stroke-linejoin:round; stroke-width:4; stroke-opacity:1; fill:none" points="205.623,1497.68 205.623,47.2441 "/>
<polyline clip-path="url(#clip510)" style="stroke:#000000; stroke-linecap:round; stroke-linejoin:round; stroke-width:4; stroke-opacity:1; fill:none" points="205.623,1372.6 220.626,1372.6 "/>
<polyline clip-path="url(#clip510)" style="stroke:#000000; stroke-linecap:round; stroke-linejoin:round; stroke-width:4; stroke-opacity:1; fill:none" points="205.623,1090.74 220.626,1090.74 "/>
<polyline clip-path="url(#clip510)" style="stroke:#000000; stroke-linecap:round; stroke-linejoin:round; stroke-width:4; stroke-opacity:1; fill:none" points="205.623,808.893 220.626,808.893 "/>
<polyline clip-path="url(#clip510)" style="stroke:#000000; stroke-linecap:round; stroke-linejoin:round; stroke-width:4; stroke-opacity:1; fill:none" points="205.623,527.042 220.626,527.042 "/>
<polyline clip-path="url(#clip510)" style="stroke:#000000; stroke-linecap:round; stroke-linejoin:round; stroke-width:4; stroke-opacity:1; fill:none" points="205.623,245.191 220.626,245.191 "/>
<path clip-path="url(#clip510)" d="M88.0195 1387.61 L96.6132 1387.61 L96.6132 1357.95 L87.2643 1359.82 L87.2643 1355.03 L96.5611 1353.16 L101.822 1353.16 L101.822 1387.61 L110.415 1387.61 L110.415 1392.04 L88.0195 1392.04 L88.0195 1387.61 Z" fill="#000000" fill-rule="nonzero" fill-opacity="1" /><path clip-path="url(#clip510)" d="M132.29 1373.57 Q128.54 1373.57 126.379 1375.58 Q124.243 1377.58 124.243 1381.1 Q124.243 1384.61 126.379 1386.62 Q128.54 1388.62 132.29 1388.62 Q136.04 1388.62 138.202 1386.62 Q140.363 1384.59 140.363 1381.1 Q140.363 1377.58 138.202 1375.58 Q136.066 1373.57 132.29 1373.57 M127.03 1371.33 Q123.644 1370.5 121.743 1368.18 Q119.868 1365.86 119.868 1362.53 Q119.868 1357.87 123.176 1355.16 Q126.509 1352.45 132.29 1352.45 Q138.097 1352.45 141.405 1355.16 Q144.712 1357.87 144.712 1362.53 Q144.712 1365.86 142.811 1368.18 Q140.936 1370.5 137.577 1371.33 Q141.379 1372.22 143.488 1374.8 Q145.623 1377.37 145.623 1381.1 Q145.623 1386.75 142.16 1389.77 Q138.722 1392.79 132.29 1392.79 Q125.858 1392.79 122.394 1389.77 Q118.957 1386.75 118.957 1381.1 Q118.957 1377.37 121.092 1374.8 Q123.228 1372.22 127.03 1371.33 M125.103 1363.02 Q125.103 1366.05 126.978 1367.74 Q128.879 1369.43 132.29 1369.43 Q135.676 1369.43 137.577 1367.74 Q139.504 1366.05 139.504 1363.02 Q139.504 1360 137.577 1358.31 Q135.676 1356.62 132.29 1356.62 Q128.879 1356.62 126.978 1358.31 Q125.103 1360 125.103 1363.02 Z" fill="#000000" fill-rule="nonzero" fill-opacity="1" /><path clip-path="url(#clip510)" d="M92.9153 1105.76 L111.275 1105.76 L111.275 1110.18 L86.5872 1110.18 L86.5872 1105.76 Q89.582 1102.66 94.7382 1097.45 Q99.9205 1092.22 101.249 1090.71 Q103.775 1087.87 104.764 1085.91 Q105.78 1083.93 105.78 1082.03 Q105.78 1078.93 103.592 1076.98 Q101.431 1075.03 97.9413 1075.03 Q95.4674 1075.03 92.707 1075.89 Q89.9726 1076.75 86.8476 1078.49 L86.8476 1073.18 Q90.0247 1071.9 92.7851 1071.25 Q95.5455 1070.6 97.8372 1070.6 Q103.879 1070.6 107.473 1073.62 Q111.066 1076.64 111.066 1081.69 Q111.066 1084.09 110.155 1086.25 Q109.269 1088.39 106.9 1091.3 Q106.249 1092.06 102.759 1095.68 Q99.2695 1099.27 92.9153 1105.76 Z" fill="#000000" fill-rule="nonzero" fill-opacity="1" /><path clip-path="url(#clip510)" d="M123.228 1105.76 L131.821 1105.76 L131.821 1076.1 L122.472 1077.97 L122.472 1073.18 L131.769 1071.3 L137.03 1071.3 L137.03 1105.76 L145.623 1105.76 L145.623 1110.18 L123.228 1110.18 L123.228 1105.76 Z" fill="#000000" fill-rule="nonzero" fill-opacity="1" /><path clip-path="url(#clip510)" d="M90.9882 823.906 L109.348 823.906 L109.348 828.333 L84.6602 828.333 L84.6602 823.906 Q87.6549 820.807 92.8112 815.599 Q97.9934 810.365 99.3215 808.854 Q101.848 806.016 102.837 804.063 Q103.853 802.083 103.853 800.182 Q103.853 797.083 101.665 795.13 Q99.5038 793.177 96.0143 793.177 Q93.5403 793.177 90.7799 794.037 Q88.0456 794.896 84.9206 796.641 L84.9206 791.328 Q88.0976 790.052 90.858 789.401 Q93.6184 788.75 95.9101 788.75 Q101.952 788.75 105.545 791.771 Q109.139 794.792 109.139 799.844 Q109.139 802.24 108.228 804.401 Q107.342 806.536 104.973 809.453 Q104.322 810.208 100.832 813.828 Q97.3424 817.422 90.9882 823.906 Z" fill="#000000" fill-rule="nonzero" fill-opacity="1" /><path clip-path="url(#clip510)" d="M134.842 794.037 L121.561 814.792 L134.842 814.792 L134.842 794.037 M133.462 789.453 L140.077 789.453 L140.077 814.792 L145.623 814.792 L145.623 819.167 L140.077 819.167 L140.077 828.333 L134.842 828.333 L134.842 819.167 L117.29 819.167 L117.29 814.088 L133.462 789.453 Z" fill="#000000" fill-rule="nonzero" fill-opacity="1" /><path clip-path="url(#clip510)" d="M92.5507 542.055 L110.91 542.055 L110.91 546.482 L86.2226 546.482 L86.2226 542.055 Q89.2174 538.956 94.3736 533.748 Q99.5559 528.514 100.884 527.003 Q103.41 524.165 104.4 522.212 Q105.415 520.232 105.415 518.331 Q105.415 515.232 103.228 513.279 Q101.066 511.326 97.5768 511.326 Q95.1028 511.326 92.3424 512.186 Q89.608 513.045 86.4831 514.79 L86.4831 509.477 Q89.6601 508.201 92.4205 507.55 Q95.1809 506.899 97.4726 506.899 Q103.514 506.899 107.108 509.92 Q110.702 512.941 110.702 517.993 Q110.702 520.389 109.79 522.55 Q108.905 524.685 106.535 527.602 Q105.884 528.357 102.394 531.977 Q98.9049 535.571 92.5507 542.055 Z" fill="#000000" fill-rule="nonzero" fill-opacity="1" /><path clip-path="url(#clip510)" d="M120.624 507.602 L145.623 507.602 L145.623 509.842 L131.509 546.482 L126.014 546.482 L139.295 512.029 L120.624 512.029 L120.624 507.602 Z" fill="#000000" fill-rule="nonzero" fill-opacity="1" /><path clip-path="url(#clip510)" d="M102.941 243.668 Q106.717 244.475 108.827 247.027 Q110.962 249.579 110.962 253.329 Q110.962 259.084 107.004 262.235 Q103.045 265.386 95.7538 265.386 Q93.3059 265.386 90.7018 264.892 Q88.1237 264.423 85.3633 263.459 L85.3633 258.381 Q87.5508 259.657 90.1549 260.308 Q92.7591 260.959 95.5976 260.959 Q100.545 260.959 103.124 259.006 Q105.728 257.053 105.728 253.329 Q105.728 249.892 103.306 247.965 Q100.91 246.012 96.6132 246.012 L92.082 246.012 L92.082 241.689 L96.8216 241.689 Q100.702 241.689 102.759 240.152 Q104.816 238.59 104.816 235.673 Q104.816 232.678 102.681 231.09 Q100.572 229.475 96.6132 229.475 Q94.4518 229.475 91.9778 229.944 Q89.5039 230.413 86.5351 231.402 L86.5351 226.715 Q89.5299 225.881 92.1341 225.465 Q94.7643 225.048 97.082 225.048 Q103.072 225.048 106.561 227.782 Q110.051 230.491 110.051 235.126 Q110.051 238.355 108.202 240.595 Q106.353 242.808 102.941 243.668 Z" fill="#000000" fill-rule="nonzero" fill-opacity="1" /><path clip-path="url(#clip510)" d="M132.186 229.215 Q128.123 229.215 126.066 233.225 Q124.035 237.209 124.035 245.23 Q124.035 253.225 126.066 257.235 Q128.123 261.22 132.186 261.22 Q136.274 261.22 138.306 257.235 Q140.363 253.225 140.363 245.23 Q140.363 237.209 138.306 233.225 Q136.274 229.215 132.186 229.215 M132.186 225.048 Q138.722 225.048 142.16 230.23 Q145.623 235.387 145.623 245.23 Q145.623 255.048 142.16 260.23 Q138.722 265.386 132.186 265.386 Q125.65 265.386 122.186 260.23 Q118.749 255.048 118.749 245.23 Q118.749 235.387 122.186 230.23 Q125.65 225.048 132.186 225.048 Z" fill="#000000" fill-rule="nonzero" fill-opacity="1" /><path clip-path="url(#clip510)" d="M-31.4998 930.013 L-31.4998 924.168 L11.7002 924.168 L11.7002 930.013 L-31.4998 930.013 Z" fill="#000000" fill-rule="nonzero" fill-opacity="1" /><path clip-path="url(#clip510)" d="M-7.85992 885.829 L11.7002 885.829 L11.7002 891.153 L-7.68631 891.153 Q-12.287 891.153 -14.5728 892.947 Q-16.8587 894.741 -16.8587 898.329 Q-16.8587 902.641 -14.1099 905.129 Q-11.3611 907.618 -6.61572 907.618 L11.7002 907.618 L11.7002 912.97 L-20.7071 912.97 L-20.7071 907.618 L-15.6724 907.618 Q-18.5948 905.708 -20.0416 903.133 Q-21.4883 900.528 -21.4883 897.143 Q-21.4883 891.559 -18.0161 888.694 Q-14.5728 885.829 -7.85992 885.829 Z" fill="#000000" fill-rule="nonzero" fill-opacity="1" /><path clip-path="url(#clip510)" d="M-33.3227 858.804 L-28.8957 858.804 L-28.8957 863.897 Q-28.8957 866.761 -27.7383 867.89 Q-26.5809 868.989 -23.5716 868.989 L-20.7071 868.989 L-20.7071 860.222 L-16.5694 860.222 L-16.5694 868.989 L11.7002 868.989 L11.7002 874.342 L-16.5694 874.342 L-16.5694 879.435 L-20.7071 879.435 L-20.7071 874.342 L-22.964 874.342 Q-28.3749 874.342 -30.8343 871.825 Q-33.3227 869.308 -33.3227 863.839 L-33.3227 858.804 Z" fill="#000000" fill-rule="nonzero" fill-opacity="1" /><path clip-path="url(#clip510)" d="M-33.3227 854.348 L-33.3227 849.024 L11.7002 849.024 L11.7002 854.348 L-33.3227 854.348 Z" fill="#000000" fill-rule="nonzero" fill-opacity="1" /><path clip-path="url(#clip510)" d="M-16.9745 825.326 Q-16.9745 829.609 -13.618 832.097 Q-10.2905 834.585 -4.47452 834.585 Q1.34142 834.585 4.69788 832.126 Q8.02541 829.638 8.02541 825.326 Q8.02541 821.073 4.66895 818.584 Q1.31248 816.096 -4.47452 816.096 Q-10.2326 816.096 -13.5891 818.584 Q-16.9745 821.073 -16.9745 825.326 M-21.4883 825.326 Q-21.4883 818.382 -16.9745 814.418 Q-12.4606 810.454 -4.47452 810.454 Q3.48261 810.454 8.02541 814.418 Q12.5393 818.382 12.5393 825.326 Q12.5393 832.3 8.02541 836.264 Q3.48261 840.199 -4.47452 840.199 Q-12.4606 840.199 -16.9745 836.264 Q-21.4883 832.3 -21.4883 825.326 Z" fill="#000000" fill-rule="nonzero" fill-opacity="1" /><path clip-path="url(#clip510)" d="M-20.7071 804.725 L-20.7071 799.4 L4.58214 792.745 L-20.7071 786.119 L-20.7071 779.84 L4.58214 773.185 L-20.7071 766.559 L-20.7071 761.235 L11.7002 769.713 L11.7002 775.992 L-14.8622 782.965 L11.7002 789.968 L11.7002 796.247 L-20.7071 804.725 Z" fill="#000000" fill-rule="nonzero" fill-opacity="1" /><path clip-path="url(#clip510)" d="M-33.3227 734.818 L-33.3227 722.549 L-29.185 722.549 L-29.185 729.493 L15.3749 729.493 L15.3749 722.549 L19.5126 722.549 L19.5126 734.818 L-33.3227 734.818 Z" fill="#000000" fill-rule="nonzero" fill-opacity="1" /><path clip-path="url(#clip510)" d="M-31.4998 710.975 L-31.4998 705.13 L6.7812 705.13 L6.7812 684.094 L11.7002 684.094 L11.7002 710.975 L-31.4998 710.975 Z" fill="#000000" fill-rule="nonzero" fill-opacity="1" /><path clip-path="url(#clip510)" d="M-31.4998 668.73 L-31.4998 663.811 L17.1978 678.857 L17.1978 683.776 L-31.4998 668.73 Z" fill="#000000" fill-rule="nonzero" fill-opacity="1" /><path clip-path="url(#clip510)" d="M-19.7522 637.567 L-14.7175 637.567 Q-15.8749 639.824 -16.4536 642.254 Q-17.0323 644.685 -17.0323 647.289 Q-17.0323 651.253 -15.8171 653.25 Q-14.6018 655.217 -12.1712 655.217 Q-10.3194 655.217 -9.2488 653.799 Q-8.20714 652.382 -7.25229 648.099 L-6.8472 646.276 Q-5.63193 640.605 -3.40393 638.232 Q-1.20487 635.831 2.75923 635.831 Q7.2731 635.831 9.90619 639.419 Q12.5393 642.978 12.5393 649.228 Q12.5393 651.832 12.0184 654.667 Q11.5265 657.474 10.5138 660.599 L5.01617 660.599 Q6.54972 657.648 7.33097 654.783 Q8.08328 651.919 8.08328 649.112 Q8.08328 645.35 6.81014 643.325 Q5.50806 641.299 3.16432 641.299 Q0.994196 641.299 -0.163205 642.775 Q-1.32061 644.222 -2.3912 649.17 L-2.82523 651.022 Q-3.86689 655.97 -6.00808 658.169 Q-8.17821 660.368 -11.9398 660.368 Q-16.5115 660.368 -18.9999 657.127 Q-21.4883 653.886 -21.4883 647.926 Q-21.4883 644.974 -21.0543 642.37 Q-20.6203 639.766 -19.7522 637.567 Z" fill="#000000" fill-rule="nonzero" fill-opacity="1" /><path clip-path="url(#clip510)" d="M-33.3227 614.911 L19.5126 614.911 L19.5126 627.179 L15.3749 627.179 L15.3749 620.264 L-29.185 620.264 L-29.185 627.179 L-33.3227 627.179 L-33.3227 614.911 Z" fill="#000000" fill-rule="nonzero" fill-opacity="1" /><polyline clip-path="url(#clip512)" style="stroke:#023eff; stroke-linecap:round; stroke-linejoin:round; stroke-width:5; stroke-opacity:1; fill:none" points="289.818,1123.2 306.623,935.017 323.428,1023.37 340.233,1023.37 357.038,935.017 373.844,935.017 390.649,935.017 407.454,479.298 424.259,479.298 441.065,479.298 457.87,479.298 474.675,479.298 491.48,479.298 508.285,479.298 525.091,479.298 541.896,479.298 558.701,479.298 575.506,479.298 592.311,807.382 609.117,807.382 625.922,807.382 642.727,1164.86 659.532,1164.86 676.338,935.017 693.143,1017.53 709.948,1017.53 726.753,1017.53 743.558,1017.53 760.364,1017.53 777.169,1017.53 793.974,1038.79 810.779,555.822 827.585,417.239 844.39,417.239 861.195,417.239 878,417.239 894.805,417.239 911.611,417.239 928.416,417.239 945.221,417.239 962.026,417.239 978.832,666.826 995.637,666.826 1012.44,823.744 1029.25,666.826 1046.05,980.813 1062.86,980.813 1079.66,980.813 1096.47,1017.53 1113.27,1017.53 1130.08,1017.53 1146.88,1017.53 1163.69,1017.53 1180.49,1017.53 1197.3,1038.79 1214.1,555.822 1230.91,417.239 1247.72,417.239 1264.52,417.239 1281.33,417.239 1298.13,417.239 1314.94,417.239 1331.74,417.239 1348.55,417.239 1365.35,417.239 1382.16,666.826 1398.96,666.826 1415.77,666.826 1432.57,666.826 1449.38,980.813 1466.18,980.813 1482.99,980.813 1499.79,1017.53 1516.6,1017.53 1533.4,1017.53 1550.21,1017.53 1567.01,1017.53 1583.82,1017.53 1600.62,1017.53 1617.43,555.822 1634.24,417.239 1651.04,417.239 1667.85,417.239 1684.65,417.239 1701.46,417.239 1718.26,417.239 1735.07,417.239 1751.87,417.239 1768.68,417.239 1785.48,666.826 1802.29,666.826 1819.09,823.744 1835.9,823.744 1852.7,980.813 1869.51,666.826 1886.31,980.813 1903.12,1017.53 1919.92,1017.53 1936.73,1017.53 1953.53,1017.53 1970.34,1017.53 1987.14,1017.53 2003.95,1017.53 2020.76,555.822 2037.56,417.239 2054.37,417.239 2071.17,417.239 2087.98,417.239 2104.78,417.239 2121.59,417.239 2138.39,417.239 2155.2,417.239 2172,417.239 2188.81,666.826 2205.61,666.826 2222.42,823.744 2239.22,823.744 2256.03,980.813 2272.83,980.813 2289.64,980.813 2306.44,1131.41 2323.25,1131.41 2340.05,1131.41 2356.86,1131.41 2373.66,1131.41 2390.47,1131.41 2407.28,1456.63 2424.08,978.286 2440.89,816.851 2457.69,816.851 2474.5,816.851 2491.3,816.851 2508.11,816.851 2524.91,1039.56 2541.72,1039.56 2558.52,1039.56 2575.33,1039.56 2592.13,1039.56 2608.94,1039.56 2625.74,1039.56 2642.55,1039.56 2659.35,1039.56 2676.16,1039.56 2692.96,1039.56 2709.77,1131.41 2726.57,1131.41 2743.38,1131.41 2760.18,1131.41 2776.99,1131.41 2793.8,1456.63 2810.6,1456.63 2827.41,830.972 2844.21,816.851 2861.02,816.851 2877.82,816.851 2894.63,816.851 2911.43,816.851 2928.24,1039.56 2945.04,1039.56 2961.85,1016.2 2978.65,1016.2 2995.46,1039.56 3012.26,1039.56 3029.07,1039.56 3045.87,1039.56 3062.68,1039.56 3079.48,1039.56 3096.29,1039.56 "/>
<polyline clip-path="url(#clip512)" style="stroke:#ff7c00; stroke-linecap:round; stroke-linejoin:round; stroke-width:5; stroke-opacity:1; fill:none" points="289.818,1083.34 306.623,1049.43 323.428,1049.43 340.233,1049.43 357.038,1049.43 373.844,1049.43 390.649,1049.43 407.454,424.976 424.259,424.976 441.065,424.976 457.87,424.976 474.675,424.976 491.48,424.976 508.285,424.976 525.091,424.976 541.896,424.976 558.701,424.976 575.506,703.548 592.311,703.548 609.117,703.548 625.922,703.548 642.727,977.234 659.532,977.234 676.338,977.234 693.143,1060.82 709.948,1060.82 726.753,1060.82 743.558,1060.82 760.364,1060.82 777.169,1060.82 793.974,831.754 810.779,572.367 827.585,413.972 844.39,413.972 861.195,413.972 878,413.972 894.805,413.972 911.611,413.972 928.416,413.972 945.221,413.972 962.026,413.972 978.832,690.679 995.637,690.679 1012.44,690.679 1029.25,690.679 1046.05,690.679 1062.86,998.041 1079.66,998.041 1096.47,1060.82 1113.27,1060.82 1130.08,1060.82 1146.88,1060.82 1163.69,1060.82 1180.49,1060.82 1197.3,831.754 1214.1,572.367 1230.91,413.972 1247.72,413.972 1264.52,413.972 1281.33,413.972 1298.13,413.972 1314.94,413.972 1331.74,413.972 1348.55,413.972 1365.35,413.972 1382.16,690.679 1398.96,690.679 1415.77,690.679 1432.57,690.679 1449.38,998.041 1466.18,998.041 1482.99,998.041 1499.79,1060.82 1516.6,1060.82 1533.4,1060.82 1550.21,1060.82 1567.01,1060.82 1583.82,1060.82 1600.62,831.754 1617.43,572.367 1634.24,413.972 1651.04,413.972 1667.85,413.972 1684.65,413.972 1701.46,413.972 1718.26,413.972 1735.07,413.972 1751.87,413.972 1768.68,413.972 1785.48,690.679 1802.29,690.679 1819.09,690.679 1835.9,998.041 1852.7,998.041 1869.51,690.679 1886.31,998.041 1903.12,1060.82 1919.92,1060.82 1936.73,1060.82 1953.53,1060.82 1970.34,1060.82 1987.14,1060.82 2003.95,831.754 2020.76,572.367 2037.56,413.972 2054.37,413.972 2071.17,413.972 2087.98,413.972 2104.78,413.972 2121.59,413.972 2138.39,413.972 2155.2,413.972 2172,413.972 2188.81,690.679 2205.61,690.679 2222.42,998.041 2239.22,998.041 2256.03,998.041 2272.83,998.041 2289.64,998.041 2306.44,1131.68 2323.25,1131.68 2340.05,1131.68 2356.86,984.43 2373.66,984.43 2390.47,1131.68 2407.28,1131.68 2424.08,984.43 2440.89,984.43 2457.69,984.43 2474.5,874.424 2491.3,217.382 2508.11,217.382 2524.91,874.424 2541.72,874.424 2558.52,874.424 2575.33,984.43 2592.13,984.43 2608.94,1131.68 2625.74,1131.68 2642.55,984.43 2659.35,1131.68 2676.16,1131.68 2692.96,1131.68 2709.77,1131.68 2726.57,1131.68 2743.38,984.43 2760.18,984.43 2776.99,1131.68 2793.8,1131.68 2810.6,1131.68 2827.41,984.43 2844.21,984.43 2861.02,1006.55 2877.82,1006.55 2894.63,1131.68 2911.43,984.43 2928.24,1006.55 2945.04,984.43 2961.85,1006.55 2978.65,1021.29 2995.46,1131.68 3012.26,1131.68 3029.07,1131.68 3045.87,1131.68 3062.68,1131.68 3079.48,1131.68 3096.29,1131.68 "/>
<polyline clip-path="url(#clip512)" style="stroke:#1ac938; stroke-linecap:round; stroke-linejoin:round; stroke-width:5; stroke-opacity:1; fill:none" points="289.818,1083.55 306.623,1075.64 323.428,1075.64 340.233,1075.64 357.038,1075.64 373.844,1075.64 390.649,798.028 407.454,591.441 424.259,410.272 441.065,410.272 457.87,410.272 474.675,410.272 491.48,410.272 508.285,410.272 525.091,410.272 541.896,410.272 558.701,410.272 575.506,647.181 592.311,647.181 609.117,647.181 625.922,647.181 642.727,987.533 659.532,987.533 676.338,987.533 693.143,1081.36 709.948,1081.36 726.753,1081.36 743.558,1081.36 760.364,1081.36 777.169,1081.36 793.974,828.015 810.779,509.304 827.585,387.17 844.39,509.304 861.195,387.17 878,387.17 894.805,387.17 911.611,387.17 928.416,387.17 945.221,387.17 962.026,387.17 978.832,387.17 995.637,387.17 1012.44,746.756 1029.25,746.756 1046.05,980.118 1062.86,980.118 1079.66,980.118 1096.47,1081.36 1113.27,1081.36 1130.08,1081.36 1146.88,1081.36 1163.69,1081.36 1180.49,1081.36 1197.3,828.015 1214.1,387.17 1230.91,387.17 1247.72,387.17 1264.52,387.17 1281.33,509.304 1298.13,387.17 1314.94,387.17 1331.74,387.17 1348.55,387.17 1365.35,387.17 1382.16,509.304 1398.96,746.756 1415.77,746.756 1432.57,746.756 1449.38,980.118 1466.18,980.118 1482.99,980.118 1499.79,1081.36 1516.6,1081.36 1533.4,1081.36 1550.21,1081.36 1567.01,1081.36 1583.82,1081.36 1600.62,828.015 1617.43,509.304 1634.24,509.304 1651.04,509.304 1667.85,509.304 1684.65,387.17 1701.46,387.17 1718.26,387.17 1735.07,387.17 1751.87,387.17 1768.68,387.17 1785.48,387.17 1802.29,746.756 1819.09,746.756 1835.9,746.756 1852.7,980.118 1869.51,980.118 1886.31,980.118 1903.12,1081.36 1919.92,1081.36 1936.73,1081.36 1953.53,1081.36 1970.34,1081.36 1987.14,1081.36 2003.95,828.015 2020.76,509.304 2037.56,387.17 2054.37,387.17 2071.17,387.17 2087.98,387.17 2104.78,387.17 2121.59,387.17 2138.39,509.304 2155.2,387.17 2172,387.17 2188.81,387.17 2205.61,746.756 2222.42,746.756 2239.22,746.756 2256.03,980.118 2272.83,980.118 2289.64,980.118 2306.44,1075.77 2323.25,1075.77 2340.05,1075.77 2356.86,1075.77 2373.66,1075.77 2390.47,793.509 2407.28,793.509 2424.08,793.509 2440.89,793.509 2457.69,793.509 2474.5,793.509 2491.3,793.509 2508.11,793.509 2524.91,192.767 2541.72,793.509 2558.52,192.767 2575.33,192.767 2592.13,192.767 2608.94,793.509 2625.74,793.509 2642.55,793.509 2659.35,793.509 2676.16,793.509 2692.96,793.509 2709.77,1130.73 2726.57,1130.73 2743.38,1016.8 2760.18,1016.8 2776.99,1130.73 2793.8,1130.73 2810.6,1130.73 2827.41,1016.8 2844.21,1016.8 2861.02,1016.8 2877.82,1016.8 2894.63,1016.8 2911.43,1016.8 2928.24,329.183 2945.04,1016.8 2961.85,1016.8 2978.65,1016.8 2995.46,1016.8 3012.26,1130.73 3029.07,1016.8 3045.87,1130.73 3062.68,1130.73 3079.48,1130.73 3096.29,1130.73 "/>
<polyline clip-path="url(#clip512)" style="stroke:#e8000b; stroke-linecap:round; stroke-linejoin:round; stroke-width:5; stroke-opacity:1; fill:none" points="289.818,956.395 306.623,1034.31 323.428,1034.31 340.233,1034.31 357.038,1034.31 373.844,1034.31 390.649,930.347 407.454,452.234 424.259,452.234 441.065,452.234 457.87,452.234 474.675,452.234 491.48,452.234 508.285,452.234 525.091,452.234 541.896,452.234 558.701,452.234 575.506,452.234 592.311,452.234 609.117,452.234 625.922,452.234 642.727,930.347 659.532,930.347 676.338,930.347 693.143,882.527 709.948,956.395 726.753,956.395 743.558,956.395 760.364,956.395 777.169,956.395 793.974,633.617 810.779,633.617 827.585,525.525 844.39,525.525 861.195,525.525 878,352.764 894.805,352.764 911.611,352.764 928.416,352.764 945.221,352.764 962.026,352.764 978.832,633.617 995.637,633.617 1012.44,882.527 1029.25,633.617 1046.05,882.527 1062.86,956.395 1079.66,956.395 1096.47,956.395 1113.27,882.527 1130.08,629.448 1146.88,956.395 1163.69,956.395 1180.49,882.527 1197.3,525.525 1214.1,525.525 1230.91,525.525 1247.72,525.525 1264.52,352.764 1281.33,633.617 1298.13,352.764 1314.94,352.764 1331.74,352.764 1348.55,352.764 1365.35,352.764 1382.16,633.617 1398.96,633.617 1415.77,633.617 1432.57,633.617 1449.38,882.527 1466.18,956.395 1482.99,956.395 1499.79,956.395 1516.6,956.395 1533.4,956.395 1550.21,882.527 1567.01,956.395 1583.82,956.395 1600.62,882.527 1617.43,525.525 1634.24,525.525 1651.04,525.525 1667.85,633.617 1684.65,352.764 1701.46,352.764 1718.26,352.764 1735.07,352.764 1751.87,352.764 1768.68,352.764 1785.48,352.764 1802.29,633.617 1819.09,629.448 1835.9,629.448 1852.7,882.527 1869.51,633.617 1886.31,629.448 1903.12,956.395 1919.92,956.395 1936.73,629.448 1953.53,629.448 1970.34,882.527 1987.14,629.448 2003.95,882.527 2020.76,525.525 2037.56,525.525 2054.37,352.764 2071.17,352.764 2087.98,352.764 2104.78,352.764 2121.59,352.764 2138.39,633.617 2155.2,633.617 2172,633.617 2188.81,352.764 2205.61,633.617 2222.42,956.395 2239.22,629.448 2256.03,629.448 2272.83,629.448 2289.64,956.395 2306.44,1060.28 2323.25,1060.28 2340.05,1060.28 2356.86,629.448 2373.66,1060.28 2390.47,1060.28 2407.28,1060.28 2424.08,629.448 2440.89,882.527 2457.69,882.527 2474.5,629.448 2491.3,629.448 2508.11,882.527 2524.91,882.527 2541.72,882.527 2558.52,882.527 2575.33,882.527 2592.13,1060.28 2608.94,1060.28 2625.74,1060.28 2642.55,1060.28 2659.35,1060.28 2676.16,1060.28 2692.96,1060.28 2709.77,1060.28 2726.57,1060.28 2743.38,1060.28 2760.18,1060.28 2776.99,1060.28 2793.8,1060.28 2810.6,1060.28 2827.41,1060.28 2844.21,1060.28 2861.02,1060.28 2877.82,629.448 2894.63,1060.28 2911.43,882.527 2928.24,1060.28 2945.04,882.527 2961.85,882.527 2978.65,1060.28 2995.46,1060.28 3012.26,1060.28 3029.07,1060.28 3045.87,1060.28 3062.68,1060.28 3079.48,1060.28 3096.29,1060.28 "/>
<polyline clip-path="url(#clip512)" style="stroke:#000000; stroke-linecap:round; stroke-linejoin:round; stroke-width:6; stroke-opacity:1; fill:none" points="289.818,1077.59 306.623,1136.78 323.428,941.363 340.233,1033.43 357.038,1195.97 373.844,1125.51 390.649,821.107 407.454,465.974 424.259,439.668 441.065,518.587 457.87,564.622 474.675,88.2942 491.48,205.732 508.285,271.497 525.091,486.644 541.896,279.953 558.701,392.693 575.506,441.547 592.311,575.896 609.117,703.669 625.922,890.63 642.727,788.224 659.532,882.174 676.338,1057.86 693.143,1013.7 709.948,1050.35 726.753,1180.94 743.558,1111.41 760.364,1141.48 777.169,864.324 793.974,979.883 810.779,735.612 827.585,483.825 844.39,495.099 861.195,427.455 878,454.7 894.805,439.668 911.611,275.255 928.416,307.198 945.221,439.668 962.026,370.145 978.832,572.138 995.637,631.327 1012.44,790.103 1029.25,758.16 1046.05,930.089 1062.86,960.153 1079.66,906.602 1096.47,1085.11 1113.27,1102.96 1130.08,1041.89 1146.88,1022.16 1163.69,1046.59 1180.49,1052.22 1197.3,957.335 1214.1,660.452 1230.91,470.672 1247.72,365.448 1264.52,281.832 1281.33,427.455 1298.13,623.811 1314.94,654.815 1331.74,268.679 1348.55,628.509 1365.35,496.039 1382.16,409.604 1398.96,577.775 1415.77,713.064 1432.57,727.156 1449.38,933.847 1466.18,1106.72 1482.99,933.847 1499.79,1105.78 1516.6,955.456 1533.4,1167.78 1550.21,914.118 1567.01,1093.56 1583.82,960.153 1600.62,846.473 1617.43,646.359 1634.24,731.854 1651.04,644.48 1667.85,514.829 1684.65,572.138 1701.46,556.167 1718.26,396.451 1735.07,368.266 1751.87,513.889 1768.68,97.6892 1785.48,478.188 1802.29,576.836 1819.09,876.537 1835.9,824.865 1852.7,913.178 1869.51,873.719 1886.31,805.135 1903.12,983.641 1919.92,1000.55 1936.73,1064.44 1953.53,908.481 1970.34,1015.58 1987.14,1005.25 2003.95,841.776 2020.76,608.779 2037.56,709.306 2054.37,314.714 2071.17,221.704 2087.98,91.1127 2104.78,398.33 2121.59,268.679 2138.39,673.605 2155.2,555.227 2172,578.715 2188.81,502.615 2205.61,750.644 2222.42,648.238 2239.22,967.669 2256.03,904.723 2272.83,917.876 2289.64,896.267 2306.44,993.975 2323.25,1003.37 2340.05,907.541 2356.86,913.178 2373.66,977.064 2390.47,940.424 2407.28,845.534 2424.08,783.527 2440.89,500.736 2457.69,640.722 2474.5,677.363 2491.3,693.334 2508.11,645.42 2524.91,514.829 2541.72,903.783 2558.52,799.498 2575.33,761.918 2592.13,829.562 2608.94,725.277 2625.74,740.309 2642.55,1136.78 2659.35,1145.24 2676.16,1173.42 2692.96,978.943 2709.77,1020.28 2726.57,1160.27 2743.38,1162.15 2760.18,882.174 2776.99,1090.74 2793.8,1197.85 2810.6,1188.45 2827.41,941.363 2844.21,849.292 2861.02,813.591 2877.82,884.053 2894.63,893.449 2911.43,628.509 2928.24,940.424 2945.04,804.196 2961.85,994.915 2978.65,721.519 2995.46,1045.65 3012.26,1074.77 3029.07,969.548 3045.87,1106.72 3062.68,1049.41 3079.48,926.331 3096.29,1102.96 "/>
<path clip-path="url(#clip510)" d="M3305.39 445.512 L3952.76 445.512 L3952.76 95.592 L3305.39 95.592  Z" fill="#ffffff" fill-rule="evenodd" fill-opacity="1"/>
<polyline clip-path="url(#clip510)" style="stroke:#000000; stroke-linecap:round; stroke-linejoin:round; stroke-width:4; stroke-opacity:1; fill:none" points="3305.39,445.512 3952.76,445.512 3952.76,95.592 3305.39,95.592 3305.39,445.512 "/>
<polyline clip-path="url(#clip510)" style="stroke:#023eff; stroke-linecap:round; stroke-linejoin:round; stroke-width:5.625; stroke-opacity:1; fill:none" points="3347.02,153.912 3596.83,153.912 "/>
<path clip-path="url(#clip510)" d="M3643.28 168.977 L3643.28 184.446 L3638.47 184.446 L3638.47 144.185 L3643.28 144.185 L3643.28 148.613 Q3644.79 146.008 3647.09 144.758 Q3649.4 143.482 3652.61 143.482 Q3657.92 143.482 3661.23 147.701 Q3664.56 151.92 3664.56 158.795 Q3664.56 165.67 3661.23 169.888 Q3657.92 174.107 3652.61 174.107 Q3649.4 174.107 3647.09 172.857 Q3644.79 171.581 3643.28 168.977 M3659.59 158.795 Q3659.59 153.508 3657.4 150.514 Q3655.24 147.493 3651.43 147.493 Q3647.63 147.493 3645.45 150.514 Q3643.28 153.508 3643.28 158.795 Q3643.28 164.081 3645.45 167.102 Q3647.63 170.097 3651.43 170.097 Q3655.24 170.097 3657.4 167.102 Q3659.59 164.081 3659.59 158.795 Z" fill="#000000" fill-rule="nonzero" fill-opacity="1" /><path clip-path="url(#clip510)" d="M3689.4 148.665 Q3688.6 148.196 3687.63 147.988 Q3686.7 147.753 3685.55 147.753 Q3681.49 147.753 3679.3 150.409 Q3677.14 153.04 3677.14 157.987 L3677.14 173.352 L3672.32 173.352 L3672.32 144.185 L3677.14 144.185 L3677.14 148.717 Q3678.65 146.06 3681.07 144.784 Q3683.49 143.482 3686.96 143.482 Q3687.45 143.482 3688.05 143.56 Q3688.65 143.613 3689.38 143.743 L3689.4 148.665 Z" fill="#000000" fill-rule="nonzero" fill-opacity="1" /><path clip-path="url(#clip510)" d="M3718.21 157.571 L3718.21 159.915 L3696.17 159.915 Q3696.49 164.862 3699.14 167.467 Q3701.83 170.045 3706.59 170.045 Q3709.35 170.045 3711.93 169.368 Q3714.53 168.691 3717.09 167.336 L3717.09 171.868 Q3714.51 172.961 3711.8 173.534 Q3709.09 174.107 3706.3 174.107 Q3699.33 174.107 3695.24 170.045 Q3691.17 165.982 3691.17 159.055 Q3691.17 151.894 3695.03 147.701 Q3698.91 143.482 3705.47 143.482 Q3711.36 143.482 3714.77 147.284 Q3718.21 151.06 3718.21 157.571 M3713.41 156.165 Q3713.36 152.232 3711.2 149.889 Q3709.06 147.545 3705.52 147.545 Q3701.51 147.545 3699.09 149.81 Q3696.7 152.076 3696.33 156.191 L3713.41 156.165 Z" fill="#000000" fill-rule="nonzero" fill-opacity="1" /><path clip-path="url(#clip510)" d="M3745.26 148.613 L3745.26 132.831 L3750.05 132.831 L3750.05 173.352 L3745.26 173.352 L3745.26 168.977 Q3743.75 171.581 3741.43 172.857 Q3739.14 174.107 3735.91 174.107 Q3730.63 174.107 3727.29 169.888 Q3723.99 165.67 3723.99 158.795 Q3723.99 151.92 3727.29 147.701 Q3730.63 143.482 3735.91 143.482 Q3739.14 143.482 3741.43 144.758 Q3743.75 146.008 3745.26 148.613 M3728.93 158.795 Q3728.93 164.081 3731.1 167.102 Q3733.28 170.097 3737.09 170.097 Q3740.89 170.097 3743.08 167.102 Q3745.26 164.081 3745.26 158.795 Q3745.26 153.508 3743.08 150.514 Q3740.89 147.493 3737.09 147.493 Q3733.28 147.493 3731.1 150.514 Q3728.93 153.508 3728.93 158.795 Z" fill="#000000" fill-rule="nonzero" fill-opacity="1" /><path clip-path="url(#clip510)" d="M3759.92 144.185 L3764.72 144.185 L3764.72 173.352 L3759.92 173.352 L3759.92 144.185 M3759.92 132.831 L3764.72 132.831 L3764.72 138.899 L3759.92 138.899 L3759.92 132.831 Z" fill="#000000" fill-rule="nonzero" fill-opacity="1" /><path clip-path="url(#clip510)" d="M3795.73 145.305 L3795.73 149.784 Q3793.7 148.665 3791.64 148.118 Q3789.61 147.545 3787.53 147.545 Q3782.87 147.545 3780.29 150.514 Q3777.71 153.456 3777.71 158.795 Q3777.71 164.133 3780.29 167.102 Q3782.87 170.045 3787.53 170.045 Q3789.61 170.045 3791.64 169.498 Q3793.7 168.925 3795.73 167.805 L3795.73 172.232 Q3793.73 173.17 3791.56 173.638 Q3789.43 174.107 3787.01 174.107 Q3780.42 174.107 3776.54 169.967 Q3772.66 165.826 3772.66 158.795 Q3772.66 151.659 3776.56 147.571 Q3780.5 143.482 3787.32 143.482 Q3789.53 143.482 3791.64 143.951 Q3793.75 144.394 3795.73 145.305 Z" fill="#000000" fill-rule="nonzero" fill-opacity="1" /><path clip-path="url(#clip510)" d="M3808.8 135.904 L3808.8 144.185 L3818.67 144.185 L3818.67 147.909 L3808.8 147.909 L3808.8 163.743 Q3808.8 167.31 3809.77 168.326 Q3810.76 169.342 3813.75 169.342 L3818.67 169.342 L3818.67 173.352 L3813.75 173.352 Q3808.2 173.352 3806.1 171.295 Q3803.99 169.211 3803.99 163.743 L3803.99 147.909 L3800.47 147.909 L3800.47 144.185 L3803.99 144.185 L3803.99 135.904 L3808.8 135.904 Z" fill="#000000" fill-rule="nonzero" fill-opacity="1" /><path clip-path="url(#clip510)" d="M3847.14 182.206 L3847.14 185.93 L3819.43 185.93 L3819.43 182.206 L3847.14 182.206 Z" fill="#000000" fill-rule="nonzero" fill-opacity="1" /><path clip-path="url(#clip510)" d="M3852.37 134.472 L3873.02 134.472 L3873.02 138.899 L3857.19 138.899 L3857.19 148.43 Q3858.33 148.04 3859.48 147.857 Q3860.63 147.649 3861.77 147.649 Q3868.28 147.649 3872.08 151.217 Q3875.89 154.784 3875.89 160.878 Q3875.89 167.154 3871.98 170.644 Q3868.07 174.107 3860.97 174.107 Q3858.52 174.107 3855.97 173.69 Q3853.44 173.274 3850.73 172.441 L3850.73 167.154 Q3853.07 168.43 3855.57 169.055 Q3858.07 169.68 3860.86 169.68 Q3865.37 169.68 3868 167.31 Q3870.63 164.941 3870.63 160.878 Q3870.63 156.816 3868 154.446 Q3865.37 152.076 3860.86 152.076 Q3858.75 152.076 3856.64 152.545 Q3854.56 153.014 3852.37 154.003 L3852.37 134.472 Z" fill="#000000" fill-rule="nonzero" fill-opacity="1" /><path clip-path="url(#clip510)" d="M3890.78 168.925 L3909.14 168.925 L3909.14 173.352 L3884.45 173.352 L3884.45 168.925 Q3887.45 165.826 3892.61 160.618 Q3897.79 155.383 3899.12 153.873 Q3901.64 151.034 3902.63 149.081 Q3903.65 147.102 3903.65 145.201 Q3903.65 142.102 3901.46 140.149 Q3899.3 138.196 3895.81 138.196 Q3893.33 138.196 3890.57 139.055 Q3887.84 139.915 3884.71 141.659 L3884.71 136.347 Q3887.89 135.071 3890.65 134.42 Q3893.41 133.769 3895.7 133.769 Q3901.75 133.769 3905.34 136.79 Q3908.93 139.81 3908.93 144.863 Q3908.93 147.258 3908.02 149.42 Q3907.14 151.555 3904.77 154.472 Q3904.12 155.227 3900.63 158.847 Q3897.14 162.441 3890.78 168.925 Z" fill="#000000" fill-rule="nonzero" fill-opacity="1" /><polyline clip-path="url(#clip510)" style="stroke:#ff7c00; stroke-linecap:round; stroke-linejoin:round; stroke-width:5.625; stroke-opacity:1; fill:none" points="3347.02,212.232 3596.83,212.232 "/>
<path clip-path="url(#clip510)" d="M3643.28 227.297 L3643.28 242.766 L3638.47 242.766 L3638.47 202.505 L3643.28 202.505 L3643.28 206.933 Q3644.79 204.328 3647.09 203.078 Q3649.4 201.802 3652.61 201.802 Q3657.92 201.802 3661.23 206.021 Q3664.56 210.24 3664.56 217.115 Q3664.56 223.99 3661.23 228.208 Q3657.92 232.427 3652.61 232.427 Q3649.4 232.427 3647.09 231.177 Q3644.79 229.901 3643.28 227.297 M3659.59 217.115 Q3659.59 211.828 3657.4 208.834 Q3655.24 205.813 3651.43 205.813 Q3647.63 205.813 3645.45 208.834 Q3643.28 211.828 3643.28 217.115 Q3643.28 222.401 3645.45 225.422 Q3647.63 228.417 3651.43 228.417 Q3655.24 228.417 3657.4 225.422 Q3659.59 222.401 3659.59 217.115 Z" fill="#000000" fill-rule="nonzero" fill-opacity="1" /><path clip-path="url(#clip510)" d="M3689.4 206.985 Q3688.6 206.516 3687.63 206.308 Q3686.7 206.073 3685.55 206.073 Q3681.49 206.073 3679.3 208.729 Q3677.14 211.36 3677.14 216.307 L3677.14 231.672 L3672.32 231.672 L3672.32 202.505 L3677.14 202.505 L3677.14 207.037 Q3678.65 204.38 3681.07 203.104 Q3683.49 201.802 3686.96 201.802 Q3687.45 201.802 3688.05 201.88 Q3688.65 201.933 3689.38 202.063 L3689.4 206.985 Z" fill="#000000" fill-rule="nonzero" fill-opacity="1" /><path clip-path="url(#clip510)" d="M3718.21 215.891 L3718.21 218.235 L3696.17 218.235 Q3696.49 223.182 3699.14 225.787 Q3701.83 228.365 3706.59 228.365 Q3709.35 228.365 3711.93 227.688 Q3714.53 227.011 3717.09 225.656 L3717.09 230.188 Q3714.51 231.281 3711.8 231.854 Q3709.09 232.427 3706.3 232.427 Q3699.33 232.427 3695.24 228.365 Q3691.17 224.302 3691.17 217.375 Q3691.17 210.214 3695.03 206.021 Q3698.91 201.802 3705.47 201.802 Q3711.36 201.802 3714.77 205.604 Q3718.21 209.38 3718.21 215.891 M3713.41 214.485 Q3713.36 210.552 3711.2 208.209 Q3709.06 205.865 3705.52 205.865 Q3701.51 205.865 3699.09 208.13 Q3696.7 210.396 3696.33 214.511 L3713.41 214.485 Z" fill="#000000" fill-rule="nonzero" fill-opacity="1" /><path clip-path="url(#clip510)" d="M3745.26 206.933 L3745.26 191.151 L3750.05 191.151 L3750.05 231.672 L3745.26 231.672 L3745.26 227.297 Q3743.75 229.901 3741.43 231.177 Q3739.14 232.427 3735.91 232.427 Q3730.63 232.427 3727.29 228.208 Q3723.99 223.99 3723.99 217.115 Q3723.99 210.24 3727.29 206.021 Q3730.63 201.802 3735.91 201.802 Q3739.14 201.802 3741.43 203.078 Q3743.75 204.328 3745.26 206.933 M3728.93 217.115 Q3728.93 222.401 3731.1 225.422 Q3733.28 228.417 3737.09 228.417 Q3740.89 228.417 3743.08 225.422 Q3745.26 222.401 3745.26 217.115 Q3745.26 211.828 3743.08 208.834 Q3740.89 205.813 3737.09 205.813 Q3733.28 205.813 3731.1 208.834 Q3728.93 211.828 3728.93 217.115 Z" fill="#000000" fill-rule="nonzero" fill-opacity="1" /><path clip-path="url(#clip510)" d="M3759.92 202.505 L3764.72 202.505 L3764.72 231.672 L3759.92 231.672 L3759.92 202.505 M3759.92 191.151 L3764.72 191.151 L3764.72 197.219 L3759.92 197.219 L3759.92 191.151 Z" fill="#000000" fill-rule="nonzero" fill-opacity="1" /><path clip-path="url(#clip510)" d="M3795.73 203.625 L3795.73 208.104 Q3793.7 206.985 3791.64 206.438 Q3789.61 205.865 3787.53 205.865 Q3782.87 205.865 3780.29 208.834 Q3777.71 211.776 3777.71 217.115 Q3777.71 222.453 3780.29 225.422 Q3782.87 228.365 3787.53 228.365 Q3789.61 228.365 3791.64 227.818 Q3793.7 227.245 3795.73 226.125 L3795.73 230.552 Q3793.73 231.49 3791.56 231.958 Q3789.43 232.427 3787.01 232.427 Q3780.42 232.427 3776.54 228.287 Q3772.66 224.146 3772.66 217.115 Q3772.66 209.979 3776.56 205.891 Q3780.5 201.802 3787.32 201.802 Q3789.53 201.802 3791.64 202.271 Q3793.75 202.714 3795.73 203.625 Z" fill="#000000" fill-rule="nonzero" fill-opacity="1" /><path clip-path="url(#clip510)" d="M3808.8 194.224 L3808.8 202.505 L3818.67 202.505 L3818.67 206.229 L3808.8 206.229 L3808.8 222.063 Q3808.8 225.63 3809.77 226.646 Q3810.76 227.662 3813.75 227.662 L3818.67 227.662 L3818.67 231.672 L3813.75 231.672 Q3808.2 231.672 3806.1 229.615 Q3803.99 227.531 3803.99 222.063 L3803.99 206.229 L3800.47 206.229 L3800.47 202.505 L3803.99 202.505 L3803.99 194.224 L3808.8 194.224 Z" fill="#000000" fill-rule="nonzero" fill-opacity="1" /><path clip-path="url(#clip510)" d="M3847.14 240.526 L3847.14 244.25 L3819.43 244.25 L3819.43 240.526 L3847.14 240.526 Z" fill="#000000" fill-rule="nonzero" fill-opacity="1" /><path clip-path="url(#clip510)" d="M3856.85 227.245 L3875.21 227.245 L3875.21 231.672 L3850.52 231.672 L3850.52 227.245 Q3853.52 224.146 3858.67 218.938 Q3863.86 213.703 3865.18 212.193 Q3867.71 209.354 3868.7 207.401 Q3869.72 205.422 3869.72 203.521 Q3869.72 200.422 3867.53 198.469 Q3865.37 196.516 3861.88 196.516 Q3859.4 196.516 3856.64 197.375 Q3853.91 198.235 3850.78 199.979 L3850.78 194.667 Q3853.96 193.391 3856.72 192.74 Q3859.48 192.089 3861.77 192.089 Q3867.81 192.089 3871.41 195.11 Q3875 198.13 3875 203.183 Q3875 205.578 3874.09 207.74 Q3873.2 209.875 3870.83 212.792 Q3870.18 213.547 3866.69 217.167 Q3863.2 220.761 3856.85 227.245 Z" fill="#000000" fill-rule="nonzero" fill-opacity="1" /><path clip-path="url(#clip510)" d="M3898.15 210.136 Q3894.61 210.136 3892.53 212.557 Q3890.47 214.979 3890.47 219.198 Q3890.47 223.391 3892.53 225.839 Q3894.61 228.261 3898.15 228.261 Q3901.69 228.261 3903.75 225.839 Q3905.83 223.391 3905.83 219.198 Q3905.83 214.979 3903.75 212.557 Q3901.69 210.136 3898.15 210.136 M3908.6 193.651 L3908.6 198.443 Q3906.62 197.505 3904.58 197.011 Q3902.58 196.516 3900.6 196.516 Q3895.39 196.516 3892.63 200.031 Q3889.9 203.547 3889.51 210.656 Q3891.04 208.391 3893.36 207.193 Q3895.68 205.969 3898.46 205.969 Q3904.32 205.969 3907.71 209.537 Q3911.12 213.078 3911.12 219.198 Q3911.12 225.188 3907.58 228.807 Q3904.04 232.427 3898.15 232.427 Q3891.41 232.427 3887.84 227.271 Q3884.27 222.089 3884.27 212.271 Q3884.27 203.052 3888.65 197.584 Q3893.02 192.089 3900.39 192.089 Q3902.37 192.089 3904.38 192.479 Q3906.41 192.87 3908.6 193.651 Z" fill="#000000" fill-rule="nonzero" fill-opacity="1" /><polyline clip-path="url(#clip510)" style="stroke:#1ac938; stroke-linecap:round; stroke-linejoin:round; stroke-width:5.625; stroke-opacity:1; fill:none" points="3347.02,270.552 3596.83,270.552 "/>
<path clip-path="url(#clip510)" d="M3643.28 285.617 L3643.28 301.086 L3638.47 301.086 L3638.47 260.825 L3643.28 260.825 L3643.28 265.253 Q3644.79 262.648 3647.09 261.398 Q3649.4 260.122 3652.61 260.122 Q3657.92 260.122 3661.23 264.341 Q3664.56 268.56 3664.56 275.435 Q3664.56 282.31 3661.23 286.528 Q3657.92 290.747 3652.61 290.747 Q3649.4 290.747 3647.09 289.497 Q3644.79 288.221 3643.28 285.617 M3659.59 275.435 Q3659.59 270.148 3657.4 267.154 Q3655.24 264.133 3651.43 264.133 Q3647.63 264.133 3645.45 267.154 Q3643.28 270.148 3643.28 275.435 Q3643.28 280.721 3645.45 283.742 Q3647.63 286.737 3651.43 286.737 Q3655.24 286.737 3657.4 283.742 Q3659.59 280.721 3659.59 275.435 Z" fill="#000000" fill-rule="nonzero" fill-opacity="1" /><path clip-path="url(#clip510)" d="M3689.4 265.305 Q3688.6 264.836 3687.63 264.628 Q3686.7 264.393 3685.55 264.393 Q3681.49 264.393 3679.3 267.049 Q3677.14 269.68 3677.14 274.627 L3677.14 289.992 L3672.32 289.992 L3672.32 260.825 L3677.14 260.825 L3677.14 265.357 Q3678.65 262.7 3681.07 261.424 Q3683.49 260.122 3686.96 260.122 Q3687.45 260.122 3688.05 260.2 Q3688.65 260.253 3689.38 260.383 L3689.4 265.305 Z" fill="#000000" fill-rule="nonzero" fill-opacity="1" /><path clip-path="url(#clip510)" d="M3718.21 274.211 L3718.21 276.555 L3696.17 276.555 Q3696.49 281.502 3699.14 284.107 Q3701.83 286.685 3706.59 286.685 Q3709.35 286.685 3711.93 286.008 Q3714.53 285.331 3717.09 283.976 L3717.09 288.508 Q3714.51 289.601 3711.8 290.174 Q3709.09 290.747 3706.3 290.747 Q3699.33 290.747 3695.24 286.685 Q3691.17 282.622 3691.17 275.695 Q3691.17 268.534 3695.03 264.341 Q3698.91 260.122 3705.47 260.122 Q3711.36 260.122 3714.77 263.924 Q3718.21 267.7 3718.21 274.211 M3713.41 272.805 Q3713.36 268.872 3711.2 266.529 Q3709.06 264.185 3705.52 264.185 Q3701.51 264.185 3699.09 266.45 Q3696.7 268.716 3696.33 272.831 L3713.41 272.805 Z" fill="#000000" fill-rule="nonzero" fill-opacity="1" /><path clip-path="url(#clip510)" d="M3745.26 265.253 L3745.26 249.471 L3750.05 249.471 L3750.05 289.992 L3745.26 289.992 L3745.26 285.617 Q3743.75 288.221 3741.43 289.497 Q3739.14 290.747 3735.91 290.747 Q3730.63 290.747 3727.29 286.528 Q3723.99 282.31 3723.99 275.435 Q3723.99 268.56 3727.29 264.341 Q3730.63 260.122 3735.91 260.122 Q3739.14 260.122 3741.43 261.398 Q3743.75 262.648 3745.26 265.253 M3728.93 275.435 Q3728.93 280.721 3731.1 283.742 Q3733.28 286.737 3737.09 286.737 Q3740.89 286.737 3743.08 283.742 Q3745.26 280.721 3745.26 275.435 Q3745.26 270.148 3743.08 267.154 Q3740.89 264.133 3737.09 264.133 Q3733.28 264.133 3731.1 267.154 Q3728.93 270.148 3728.93 275.435 Z" fill="#000000" fill-rule="nonzero" fill-opacity="1" /><path clip-path="url(#clip510)" d="M3759.92 260.825 L3764.72 260.825 L3764.72 289.992 L3759.92 289.992 L3759.92 260.825 M3759.92 249.471 L3764.72 249.471 L3764.72 255.539 L3759.92 255.539 L3759.92 249.471 Z" fill="#000000" fill-rule="nonzero" fill-opacity="1" /><path clip-path="url(#clip510)" d="M3795.73 261.945 L3795.73 266.424 Q3793.7 265.305 3791.64 264.758 Q3789.61 264.185 3787.53 264.185 Q3782.87 264.185 3780.29 267.154 Q3777.71 270.096 3777.71 275.435 Q3777.71 280.773 3780.29 283.742 Q3782.87 286.685 3787.53 286.685 Q3789.61 286.685 3791.64 286.138 Q3793.7 285.565 3795.73 284.445 L3795.73 288.872 Q3793.73 289.81 3791.56 290.278 Q3789.43 290.747 3787.01 290.747 Q3780.42 290.747 3776.54 286.607 Q3772.66 282.466 3772.66 275.435 Q3772.66 268.299 3776.56 264.211 Q3780.5 260.122 3787.32 260.122 Q3789.53 260.122 3791.64 260.591 Q3793.75 261.034 3795.73 261.945 Z" fill="#000000" fill-rule="nonzero" fill-opacity="1" /><path clip-path="url(#clip510)" d="M3808.8 252.544 L3808.8 260.825 L3818.67 260.825 L3818.67 264.549 L3808.8 264.549 L3808.8 280.383 Q3808.8 283.95 3809.77 284.966 Q3810.76 285.982 3813.75 285.982 L3818.67 285.982 L3818.67 289.992 L3813.75 289.992 Q3808.2 289.992 3806.1 287.935 Q3803.99 285.851 3803.99 280.383 L3803.99 264.549 L3800.47 264.549 L3800.47 260.825 L3803.99 260.825 L3803.99 252.544 L3808.8 252.544 Z" fill="#000000" fill-rule="nonzero" fill-opacity="1" /><path clip-path="url(#clip510)" d="M3847.14 298.846 L3847.14 302.57 L3819.43 302.57 L3819.43 298.846 L3847.14 298.846 Z" fill="#000000" fill-rule="nonzero" fill-opacity="1" /><path clip-path="url(#clip510)" d="M3866.77 255.695 L3853.49 276.45 L3866.77 276.45 L3866.77 255.695 M3865.39 251.112 L3872.01 251.112 L3872.01 276.45 L3877.55 276.45 L3877.55 280.825 L3872.01 280.825 L3872.01 289.992 L3866.77 289.992 L3866.77 280.825 L3849.22 280.825 L3849.22 275.747 L3865.39 251.112 Z" fill="#000000" fill-rule="nonzero" fill-opacity="1" /><polyline clip-path="url(#clip510)" style="stroke:#e8000b; stroke-linecap:round; stroke-linejoin:round; stroke-width:5.625; stroke-opacity:1; fill:none" points="3347.02,328.872 3596.83,328.872 "/>
<path clip-path="url(#clip510)" d="M3643.28 343.937 L3643.28 359.406 L3638.47 359.406 L3638.47 319.145 L3643.28 319.145 L3643.28 323.573 Q3644.79 320.968 3647.09 319.718 Q3649.4 318.442 3652.61 318.442 Q3657.92 318.442 3661.23 322.661 Q3664.56 326.88 3664.56 333.755 Q3664.56 340.63 3661.23 344.848 Q3657.92 349.067 3652.61 349.067 Q3649.4 349.067 3647.09 347.817 Q3644.79 346.541 3643.28 343.937 M3659.59 333.755 Q3659.59 328.468 3657.4 325.474 Q3655.24 322.453 3651.43 322.453 Q3647.63 322.453 3645.45 325.474 Q3643.28 328.468 3643.28 333.755 Q3643.28 339.041 3645.45 342.062 Q3647.63 345.057 3651.43 345.057 Q3655.24 345.057 3657.4 342.062 Q3659.59 339.041 3659.59 333.755 Z" fill="#000000" fill-rule="nonzero" fill-opacity="1" /><path clip-path="url(#clip510)" d="M3689.4 323.625 Q3688.6 323.156 3687.63 322.948 Q3686.7 322.713 3685.55 322.713 Q3681.49 322.713 3679.3 325.369 Q3677.14 328 3677.14 332.947 L3677.14 348.312 L3672.32 348.312 L3672.32 319.145 L3677.14 319.145 L3677.14 323.677 Q3678.65 321.02 3681.07 319.744 Q3683.49 318.442 3686.96 318.442 Q3687.45 318.442 3688.05 318.52 Q3688.65 318.573 3689.38 318.703 L3689.4 323.625 Z" fill="#000000" fill-rule="nonzero" fill-opacity="1" /><path clip-path="url(#clip510)" d="M3718.21 332.531 L3718.21 334.875 L3696.17 334.875 Q3696.49 339.822 3699.14 342.427 Q3701.83 345.005 3706.59 345.005 Q3709.35 345.005 3711.93 344.328 Q3714.53 343.651 3717.09 342.296 L3717.09 346.828 Q3714.51 347.921 3711.8 348.494 Q3709.09 349.067 3706.3 349.067 Q3699.33 349.067 3695.24 345.005 Q3691.17 340.942 3691.17 334.015 Q3691.17 326.854 3695.03 322.661 Q3698.91 318.442 3705.47 318.442 Q3711.36 318.442 3714.77 322.244 Q3718.21 326.02 3718.21 332.531 M3713.41 331.125 Q3713.36 327.192 3711.2 324.849 Q3709.06 322.505 3705.52 322.505 Q3701.51 322.505 3699.09 324.77 Q3696.7 327.036 3696.33 331.151 L3713.41 331.125 Z" fill="#000000" fill-rule="nonzero" fill-opacity="1" /><path clip-path="url(#clip510)" d="M3745.26 323.573 L3745.26 307.791 L3750.05 307.791 L3750.05 348.312 L3745.26 348.312 L3745.26 343.937 Q3743.75 346.541 3741.43 347.817 Q3739.14 349.067 3735.91 349.067 Q3730.63 349.067 3727.29 344.848 Q3723.99 340.63 3723.99 333.755 Q3723.99 326.88 3727.29 322.661 Q3730.63 318.442 3735.91 318.442 Q3739.14 318.442 3741.43 319.718 Q3743.75 320.968 3745.26 323.573 M3728.93 333.755 Q3728.93 339.041 3731.1 342.062 Q3733.28 345.057 3737.09 345.057 Q3740.89 345.057 3743.08 342.062 Q3745.26 339.041 3745.26 333.755 Q3745.26 328.468 3743.08 325.474 Q3740.89 322.453 3737.09 322.453 Q3733.28 322.453 3731.1 325.474 Q3728.93 328.468 3728.93 333.755 Z" fill="#000000" fill-rule="nonzero" fill-opacity="1" /><path clip-path="url(#clip510)" d="M3759.92 319.145 L3764.72 319.145 L3764.72 348.312 L3759.92 348.312 L3759.92 319.145 M3759.92 307.791 L3764.72 307.791 L3764.72 313.859 L3759.92 313.859 L3759.92 307.791 Z" fill="#000000" fill-rule="nonzero" fill-opacity="1" /><path clip-path="url(#clip510)" d="M3795.73 320.265 L3795.73 324.744 Q3793.7 323.625 3791.64 323.078 Q3789.61 322.505 3787.53 322.505 Q3782.87 322.505 3780.29 325.474 Q3777.71 328.416 3777.71 333.755 Q3777.71 339.093 3780.29 342.062 Q3782.87 345.005 3787.53 345.005 Q3789.61 345.005 3791.64 344.458 Q3793.7 343.885 3795.73 342.765 L3795.73 347.192 Q3793.73 348.13 3791.56 348.598 Q3789.43 349.067 3787.01 349.067 Q3780.42 349.067 3776.54 344.927 Q3772.66 340.786 3772.66 333.755 Q3772.66 326.619 3776.56 322.531 Q3780.5 318.442 3787.32 318.442 Q3789.53 318.442 3791.64 318.911 Q3793.75 319.354 3795.73 320.265 Z" fill="#000000" fill-rule="nonzero" fill-opacity="1" /><path clip-path="url(#clip510)" d="M3808.8 310.864 L3808.8 319.145 L3818.67 319.145 L3818.67 322.869 L3808.8 322.869 L3808.8 338.703 Q3808.8 342.27 3809.77 343.286 Q3810.76 344.302 3813.75 344.302 L3818.67 344.302 L3818.67 348.312 L3813.75 348.312 Q3808.2 348.312 3806.1 346.255 Q3803.99 344.171 3803.99 338.703 L3803.99 322.869 L3800.47 322.869 L3800.47 319.145 L3803.99 319.145 L3803.99 310.864 L3808.8 310.864 Z" fill="#000000" fill-rule="nonzero" fill-opacity="1" /><path clip-path="url(#clip510)" d="M3847.14 357.166 L3847.14 360.89 L3819.43 360.89 L3819.43 357.166 L3847.14 357.166 Z" fill="#000000" fill-rule="nonzero" fill-opacity="1" /><path clip-path="url(#clip510)" d="M3853.23 343.885 L3861.82 343.885 L3861.82 314.224 L3852.48 316.099 L3852.48 311.307 L3861.77 309.432 L3867.03 309.432 L3867.03 343.885 L3875.63 343.885 L3875.63 348.312 L3853.23 348.312 L3853.23 343.885 Z" fill="#000000" fill-rule="nonzero" fill-opacity="1" /><polyline clip-path="url(#clip510)" style="stroke:#000000; stroke-linecap:round; stroke-linejoin:round; stroke-width:6.75; stroke-opacity:1; fill:none" points="3347.02,387.192 3596.83,387.192 "/>
<path clip-path="url(#clip510)" d="M3653.54 391.971 Q3647.74 391.971 3645.5 393.299 Q3643.26 394.627 3643.26 397.83 Q3643.26 400.382 3644.92 401.892 Q3646.62 403.377 3649.51 403.377 Q3653.49 403.377 3655.89 400.564 Q3658.31 397.726 3658.31 393.038 L3658.31 391.971 L3653.54 391.971 M3663.1 389.991 L3663.1 406.632 L3658.31 406.632 L3658.31 402.205 Q3656.67 404.861 3654.22 406.137 Q3651.77 407.387 3648.23 407.387 Q3643.75 407.387 3641.1 404.887 Q3638.47 402.361 3638.47 398.142 Q3638.47 393.221 3641.75 390.721 Q3645.05 388.221 3651.59 388.221 L3658.31 388.221 L3658.31 387.752 Q3658.31 384.445 3656.12 382.648 Q3653.96 380.825 3650.03 380.825 Q3647.53 380.825 3645.16 381.424 Q3642.79 382.023 3640.6 383.221 L3640.6 378.794 Q3643.23 377.778 3645.71 377.283 Q3648.18 376.762 3650.52 376.762 Q3656.85 376.762 3659.98 380.044 Q3663.1 383.325 3663.1 389.991 Z" fill="#000000" fill-rule="nonzero" fill-opacity="1" /><path clip-path="url(#clip510)" d="M3693.96 378.585 L3693.96 383.064 Q3691.93 381.945 3689.87 381.398 Q3687.84 380.825 3685.76 380.825 Q3681.1 380.825 3678.52 383.794 Q3675.94 386.736 3675.94 392.075 Q3675.94 397.413 3678.52 400.382 Q3681.1 403.325 3685.76 403.325 Q3687.84 403.325 3689.87 402.778 Q3691.93 402.205 3693.96 401.085 L3693.96 405.512 Q3691.96 406.45 3689.79 406.918 Q3687.66 407.387 3685.24 407.387 Q3678.65 407.387 3674.77 403.247 Q3670.89 399.106 3670.89 392.075 Q3670.89 384.939 3674.79 380.851 Q3678.73 376.762 3685.55 376.762 Q3687.76 376.762 3689.87 377.231 Q3691.98 377.674 3693.96 378.585 Z" fill="#000000" fill-rule="nonzero" fill-opacity="1" /><path clip-path="url(#clip510)" d="M3707.03 369.184 L3707.03 377.465 L3716.9 377.465 L3716.9 381.189 L3707.03 381.189 L3707.03 397.023 Q3707.03 400.59 3708 401.606 Q3708.99 402.622 3711.98 402.622 L3716.9 402.622 L3716.9 406.632 L3711.98 406.632 Q3706.43 406.632 3704.33 404.575 Q3702.22 402.491 3702.22 397.023 L3702.22 381.189 L3698.7 381.189 L3698.7 377.465 L3702.22 377.465 L3702.22 369.184 L3707.03 369.184 Z" fill="#000000" fill-rule="nonzero" fill-opacity="1" /><path clip-path="url(#clip510)" d="M3722.71 395.122 L3722.71 377.465 L3727.5 377.465 L3727.5 394.939 Q3727.5 399.08 3729.12 401.163 Q3730.73 403.221 3733.96 403.221 Q3737.84 403.221 3740.08 400.747 Q3742.35 398.273 3742.35 394.002 L3742.35 377.465 L3747.14 377.465 L3747.14 406.632 L3742.35 406.632 L3742.35 402.153 Q3740.6 404.809 3738.28 406.111 Q3735.99 407.387 3732.94 407.387 Q3727.92 407.387 3725.31 404.262 Q3722.71 401.137 3722.71 395.122 M3734.77 376.762 L3734.77 376.762 Z" fill="#000000" fill-rule="nonzero" fill-opacity="1" /><path clip-path="url(#clip510)" d="M3770.26 391.971 Q3764.46 391.971 3762.22 393.299 Q3759.98 394.627 3759.98 397.83 Q3759.98 400.382 3761.64 401.892 Q3763.34 403.377 3766.23 403.377 Q3770.21 403.377 3772.61 400.564 Q3775.03 397.726 3775.03 393.038 L3775.03 391.971 L3770.26 391.971 M3779.82 389.991 L3779.82 406.632 L3775.03 406.632 L3775.03 402.205 Q3773.39 404.861 3770.94 406.137 Q3768.49 407.387 3764.95 407.387 Q3760.47 407.387 3757.81 404.887 Q3755.18 402.361 3755.18 398.142 Q3755.18 393.221 3758.47 390.721 Q3761.77 388.221 3768.31 388.221 L3775.03 388.221 L3775.03 387.752 Q3775.03 384.445 3772.84 382.648 Q3770.68 380.825 3766.75 380.825 Q3764.25 380.825 3761.88 381.424 Q3759.51 382.023 3757.32 383.221 L3757.32 378.794 Q3759.95 377.778 3762.42 377.283 Q3764.9 376.762 3767.24 376.762 Q3773.57 376.762 3776.69 380.044 Q3779.82 383.325 3779.82 389.991 Z" fill="#000000" fill-rule="nonzero" fill-opacity="1" /><path clip-path="url(#clip510)" d="M3789.69 366.111 L3794.48 366.111 L3794.48 406.632 L3789.69 406.632 L3789.69 366.111 Z" fill="#000000" fill-rule="nonzero" fill-opacity="1" /></svg>
