<?xml version="1.0" encoding="UTF-8" standalone="no"?>
<!DOCTYPE svg PUBLIC "-//W3C//DTD SVG 1.1//EN"
 "http://www.w3.org/Graphics/SVG/1.1/DTD/svg11.dtd">
<!-- Generated by graphviz version 2.50.0 (20211204.2007)
 -->
<!-- Pages: 1 -->
<svg width="379pt" height="434pt"
 viewBox="0.00 0.00 379.00 434.00" xmlns="http://www.w3.org/2000/svg" xmlns:xlink="http://www.w3.org/1999/xlink">
<g id="graph0" class="graph" transform="scale(1 1) rotate(0) translate(4 430)">
<polygon fill="white" stroke="transparent" points="-4,4 -4,-430 375,-430 375,4 -4,4"/>
<!-- 1 -->
<g id="node1" class="node">
<title>1</title>
<text text-anchor="start" x="145" y="-407.8" font-family="Arial" font-weight="bold" font-size="14.00"> </text>
<path fill="#ebebeb" stroke="transparent" d="M105,-335C105,-335 189,-335 189,-335 195,-335 201,-341 201,-347 201,-347 201,-387 201,-387 201,-393 195,-399 189,-399 189,-399 105,-399 105,-399 99,-399 93,-393 93,-387 93,-387 93,-347 93,-347 93,-341 99,-335 105,-335"/>
<text text-anchor="start" x="94" y="-396.4" font-family="Arial" font-size="2.00"> </text>
<text text-anchor="start" x="94" y="-390.4" font-family="Arial" font-size="7.00"> &#160;1</text>
<text text-anchor="start" x="108" y="-373.8" font-family="Arial" font-weight="bold" font-size="14.00">Mean: 24.37</text>
<text text-anchor="start" x="123.5" y="-356.8" font-family="Arial" font-weight="bold" font-size="14.00">n = 168</text>
<text text-anchor="start" x="145.5" y="-338.8" font-family="Arial" font-size="9.00"> </text>
<path fill="none" stroke="#333333" d="M105,-335C105,-335 189,-335 189,-335 195,-335 201,-341 201,-347 201,-347 201,-387 201,-387 201,-393 195,-399 189,-399 189,-399 105,-399 105,-399 99,-399 93,-393 93,-387 93,-387 93,-347 93,-347 93,-341 99,-335 105,-335"/>
<text text-anchor="start" x="132.5" y="-320.8" font-family="Arial" font-weight="bold" font-size="14.00">time</text>
</g>
<!-- 2 -->
<g id="node2" class="node">
<title>2</title>
<text text-anchor="start" x="47.5" y="-253.8" font-family="Arial" font-weight="bold" font-size="14.00"> &lt; 5.5</text>
<path fill="#f8766d" fill-opacity="0.874510" stroke="transparent" d="M24,-181C24,-181 106,-181 106,-181 112,-181 118,-187 118,-193 118,-193 118,-233 118,-233 118,-239 112,-245 106,-245 106,-245 24,-245 24,-245 18,-245 12,-239 12,-233 12,-233 12,-193 12,-193 12,-187 18,-181 24,-181"/>
<text text-anchor="start" x="13" y="-242.4" font-family="Arial" font-size="2.00"> </text>
<text text-anchor="start" x="13" y="-236.4" font-family="Arial" font-size="7.00"> &#160;2</text>
<text text-anchor="start" x="27" y="-219.8" font-family="Arial" font-weight="bold" font-size="14.00">Predict 21.6</text>
<text text-anchor="start" x="45" y="-202.8" font-family="Arial" font-weight="bold" font-size="14.00">n = 42</text>
<text text-anchor="start" x="63.5" y="-184.8" font-family="Arial" font-size="9.00"> </text>
<path fill="none" stroke="#333333" d="M24,-181C24,-181 106,-181 106,-181 112,-181 118,-187 118,-193 118,-193 118,-233 118,-233 118,-239 112,-245 106,-245 106,-245 24,-245 24,-245 18,-245 12,-239 12,-233 12,-233 12,-193 12,-193 12,-187 18,-181 24,-181"/>
<text text-anchor="start" x="63" y="-166.8" font-family="Arial" font-weight="bold" font-size="14.00"> </text>
</g>
<!-- 1&#45;&gt;2 -->
<g id="edge1" class="edge">
<title>1&#45;&gt;2</title>
<path fill="none" stroke="#888888" d="M115.53,-307.67C110.82,-298.94 105.94,-289.88 101.14,-280.99"/>
<polygon fill="#888888" stroke="#888888" points="104.21,-279.32 96.38,-272.18 98.05,-282.64 104.21,-279.32"/>
</g>
<!-- 3 -->
<g id="node3" class="node">
<title>3</title>
<text text-anchor="start" x="213" y="-253.8" font-family="Arial" font-weight="bold" font-size="14.00"> ≥ 5.5</text>
<text text-anchor="start" x="158" y="-209.3" font-family="Arial" font-size="14.00"> &#160;&#160;&#160;</text>
<path fill="#ebebeb" stroke="transparent" d="M188,-181C188,-181 272,-181 272,-181 278,-181 284,-187 284,-193 284,-193 284,-233 284,-233 284,-239 278,-245 272,-245 272,-245 188,-245 188,-245 182,-245 176,-239 176,-233 176,-233 176,-193 176,-193 176,-187 182,-181 188,-181"/>
<text text-anchor="start" x="177" y="-242.4" font-family="Arial" font-size="2.00"> </text>
<text text-anchor="start" x="177" y="-236.4" font-family="Arial" font-size="7.00"> &#160;3</text>
<text text-anchor="start" x="191" y="-219.8" font-family="Arial" font-weight="bold" font-size="14.00">Mean: 25.29</text>
<text text-anchor="start" x="206.5" y="-202.8" font-family="Arial" font-weight="bold" font-size="14.00">n = 126</text>
<text text-anchor="start" x="228.5" y="-184.8" font-family="Arial" font-size="9.00"> </text>
<path fill="none" stroke="#333333" d="M188,-181C188,-181 272,-181 272,-181 278,-181 284,-187 284,-193 284,-193 284,-233 284,-233 284,-239 278,-245 272,-245 272,-245 188,-245 188,-245 182,-245 176,-239 176,-233 176,-233 176,-193 176,-193 176,-187 182,-181 188,-181"/>
<text text-anchor="start" x="286" y="-209.3" font-family="Arial" font-size="14.00"> &#160;&#160;&#160;</text>
<text text-anchor="start" x="172.5" y="-166.8" font-family="Arial" font-weight="bold" font-size="14.00">prev_168h_inflow</text>
</g>
<!-- 1&#45;&gt;3 -->
<g id="edge2" class="edge">
<title>1&#45;&gt;3</title>
<path fill="none" stroke="#888888" d="M178.85,-307.67C183.62,-298.94 188.56,-289.88 193.42,-280.99"/>
<polygon fill="#888888" stroke="#888888" points="196.51,-282.63 198.23,-272.18 190.37,-279.28 196.51,-282.63"/>
</g>
<!-- 4 -->
<g id="node4" class="node">
<title>4</title>
<text text-anchor="start" x="129" y="-99.8" font-family="Arial" font-weight="bold" font-size="14.00"> &lt; 24.79</text>
<path fill="#f8766d" fill-opacity="0.784314" stroke="transparent" d="M109,-27C109,-27 199,-27 199,-27 205,-27 211,-33 211,-39 211,-39 211,-79 211,-79 211,-85 205,-91 199,-91 199,-91 109,-91 109,-91 103,-91 97,-85 97,-79 97,-79 97,-39 97,-39 97,-33 103,-27 109,-27"/>
<text text-anchor="start" x="98" y="-88.4" font-family="Arial" font-size="2.00"> </text>
<text text-anchor="start" x="98" y="-82.4" font-family="Arial" font-size="7.00"> &#160;4</text>
<text text-anchor="start" x="112" y="-65.8" font-family="Arial" font-weight="bold" font-size="14.00">Predict 22.71</text>
<text text-anchor="start" x="134" y="-48.8" font-family="Arial" font-weight="bold" font-size="14.00">n = 62</text>
<text text-anchor="start" x="152.5" y="-30.8" font-family="Arial" font-size="9.00"> </text>
<path fill="none" stroke="#333333" d="M109,-27C109,-27 199,-27 199,-27 205,-27 211,-33 211,-39 211,-39 211,-79 211,-79 211,-85 205,-91 199,-91 199,-91 109,-91 109,-91 103,-91 97,-85 97,-79 97,-79 97,-39 97,-39 97,-33 103,-27 109,-27"/>
<text text-anchor="start" x="152" y="-12.8" font-family="Arial" font-weight="bold" font-size="14.00"> </text>
</g>
<!-- 3&#45;&gt;4 -->
<g id="edge3" class="edge">
<title>3&#45;&gt;4</title>
<path fill="none" stroke="#888888" d="M200.83,-153.67C196.52,-145.03 192.04,-136.07 187.64,-127.27"/>
<polygon fill="#888888" stroke="#888888" points="190.69,-125.56 183.09,-118.18 184.43,-128.69 190.69,-125.56"/>
</g>
<!-- 5 -->
<g id="node5" class="node">
<title>5</title>
<text text-anchor="start" x="281.5" y="-99.8" font-family="Arial" font-weight="bold" font-size="14.00"> ≥ 24.79</text>
<path fill="#f8766d" fill-opacity="0.376471" stroke="transparent" d="M265,-27C265,-27 347,-27 347,-27 353,-27 359,-33 359,-39 359,-39 359,-79 359,-79 359,-85 353,-91 347,-91 347,-91 265,-91 265,-91 259,-91 253,-85 253,-79 253,-79 253,-39 253,-39 253,-33 259,-27 265,-27"/>
<text text-anchor="start" x="254" y="-88.4" font-family="Arial" font-size="2.00"> </text>
<text text-anchor="start" x="254" y="-82.4" font-family="Arial" font-size="7.00"> &#160;5</text>
<text text-anchor="start" x="268" y="-65.8" font-family="Arial" font-weight="bold" font-size="14.00">Predict 27.8</text>
<text text-anchor="start" x="286" y="-48.8" font-family="Arial" font-weight="bold" font-size="14.00">n = 64</text>
<text text-anchor="start" x="304.5" y="-30.8" font-family="Arial" font-size="9.00"> </text>
<path fill="none" stroke="#333333" d="M265,-27C265,-27 347,-27 347,-27 353,-27 359,-33 359,-39 359,-39 359,-79 359,-79 359,-85 353,-91 347,-91 347,-91 265,-91 265,-91 259,-91 253,-85 253,-79 253,-79 253,-39 253,-39 253,-33 259,-27 265,-27"/>
<text text-anchor="start" x="304" y="-12.8" font-family="Arial" font-weight="bold" font-size="14.00"> </text>
</g>
<!-- 3&#45;&gt;5 -->
<g id="edge4" class="edge">
<title>3&#45;&gt;5</title>
<path fill="none" stroke="#888888" d="M259.17,-153.67C263.48,-145.03 267.96,-136.07 272.36,-127.27"/>
<polygon fill="#888888" stroke="#888888" points="275.57,-128.69 276.91,-118.18 269.31,-125.56 275.57,-128.69"/>
</g>
</g>
</svg>
