<?xml version="1.0" encoding="UTF-8" standalone="no"?>
<!DOCTYPE svg PUBLIC "-//W3C//DTD SVG 1.1//EN"
 "http://www.w3.org/Graphics/SVG/1.1/DTD/svg11.dtd">
<!-- Generated by graphviz version 2.50.0 (20211204.2007)
 -->
<!-- Pages: 1 -->
<svg width="2019pt" height="742pt"
 viewBox="0.00 0.00 2019.00 742.00" xmlns="http://www.w3.org/2000/svg" xmlns:xlink="http://www.w3.org/1999/xlink">
<g id="graph0" class="graph" transform="scale(1 1) rotate(0) translate(4 738)">
<polygon fill="white" stroke="transparent" points="-4,4 -4,-738 2015,-738 2015,4 -4,4"/>
<!-- 1 -->
<g id="node1" class="node">
<title>1</title>
<text text-anchor="start" x="1222" y="-715.8" font-family="Arial" font-weight="bold" font-size="14.00"> </text>
<path fill="#ebebeb" stroke="transparent" d="M1182,-643C1182,-643 1266,-643 1266,-643 1272,-643 1278,-649 1278,-655 1278,-655 1278,-695 1278,-695 1278,-701 1272,-707 1266,-707 1266,-707 1182,-707 1182,-707 1176,-707 1170,-701 1170,-695 1170,-695 1170,-655 1170,-655 1170,-649 1176,-643 1182,-643"/>
<text text-anchor="start" x="1171" y="-704.4" font-family="Arial" font-size="2.00"> </text>
<text text-anchor="start" x="1171" y="-698.4" font-family="Arial" font-size="7.00"> &#160;1</text>
<text text-anchor="start" x="1185" y="-681.8" font-family="Arial" font-weight="bold" font-size="14.00">Mean: 30.88</text>
<text text-anchor="start" x="1200.5" y="-664.8" font-family="Arial" font-weight="bold" font-size="14.00">n = 672</text>
<text text-anchor="start" x="1222.5" y="-646.8" font-family="Arial" font-size="9.00"> </text>
<path fill="none" stroke="#333333" d="M1182,-643C1182,-643 1266,-643 1266,-643 1272,-643 1278,-649 1278,-655 1278,-655 1278,-695 1278,-695 1278,-701 1272,-707 1266,-707 1266,-707 1182,-707 1182,-707 1176,-707 1170,-701 1170,-695 1170,-695 1170,-655 1170,-655 1170,-649 1176,-643 1182,-643"/>
<text text-anchor="start" x="1209.5" y="-628.8" font-family="Arial" font-weight="bold" font-size="14.00">time</text>
</g>
<!-- 2 -->
<g id="node2" class="node">
<title>2</title>
<text text-anchor="start" x="903.5" y="-561.8" font-family="Arial" font-weight="bold" font-size="14.00"> &lt; 10.5</text>
<path fill="#ebebeb" stroke="transparent" d="M883,-489C883,-489 967,-489 967,-489 973,-489 979,-495 979,-501 979,-501 979,-541 979,-541 979,-547 973,-553 967,-553 967,-553 883,-553 883,-553 877,-553 871,-547 871,-541 871,-541 871,-501 871,-501 871,-495 877,-489 883,-489"/>
<text text-anchor="start" x="872" y="-550.4" font-family="Arial" font-size="2.00"> </text>
<text text-anchor="start" x="872" y="-544.4" font-family="Arial" font-size="7.00"> &#160;2</text>
<text text-anchor="start" x="886" y="-527.8" font-family="Arial" font-weight="bold" font-size="14.00">Mean: 28.49</text>
<text text-anchor="start" x="901.5" y="-510.8" font-family="Arial" font-weight="bold" font-size="14.00">n = 308</text>
<text text-anchor="start" x="923.5" y="-492.8" font-family="Arial" font-size="9.00"> </text>
<path fill="none" stroke="#333333" d="M883,-489C883,-489 967,-489 967,-489 973,-489 979,-495 979,-501 979,-501 979,-541 979,-541 979,-547 973,-553 967,-553 967,-553 883,-553 883,-553 877,-553 871,-547 871,-541 871,-541 871,-501 871,-501 871,-495 877,-489 883,-489"/>
<text text-anchor="start" x="910.5" y="-474.8" font-family="Arial" font-weight="bold" font-size="14.00">time</text>
</g>
<!-- 1&#45;&gt;2 -->
<g id="edge1" class="edge">
<title>1&#45;&gt;2</title>
<path fill="none" stroke="#888888" d="M1157.64,-640.27C1111.09,-616.6 1048.78,-584.92 1000.35,-560.31"/>
<polygon fill="#888888" stroke="#888888" points="1001.67,-557.05 991.17,-555.64 998.5,-563.29 1001.67,-557.05"/>
</g>
<!-- 17 -->
<g id="node3" class="node">
<title>17</title>
<text text-anchor="start" x="1508" y="-561.8" font-family="Arial" font-weight="bold" font-size="14.00"> ≥ 10.5</text>
<path fill="#ebebeb" stroke="transparent" d="M1491,-489C1491,-489 1567,-489 1567,-489 1573,-489 1579,-495 1579,-501 1579,-501 1579,-541 1579,-541 1579,-547 1573,-553 1567,-553 1567,-553 1491,-553 1491,-553 1485,-553 1479,-547 1479,-541 1479,-541 1479,-501 1479,-501 1479,-495 1485,-489 1491,-489"/>
<text text-anchor="start" x="1480" y="-550.4" font-family="Arial" font-size="2.00"> </text>
<text text-anchor="start" x="1480" y="-544.4" font-family="Arial" font-size="7.00"> &#160;17</text>
<text text-anchor="start" x="1494" y="-527.8" font-family="Arial" font-weight="bold" font-size="14.00">Mean: 32.9</text>
<text text-anchor="start" x="1505.5" y="-510.8" font-family="Arial" font-weight="bold" font-size="14.00">n = 364</text>
<text text-anchor="start" x="1527.5" y="-492.8" font-family="Arial" font-size="9.00"> </text>
<path fill="none" stroke="#333333" d="M1491,-489C1491,-489 1567,-489 1567,-489 1573,-489 1579,-495 1579,-501 1579,-501 1579,-541 1579,-541 1579,-547 1573,-553 1567,-553 1567,-553 1491,-553 1491,-553 1485,-553 1479,-547 1479,-541 1479,-541 1479,-501 1479,-501 1479,-495 1485,-489 1491,-489"/>
<text text-anchor="start" x="1514.5" y="-474.8" font-family="Arial" font-weight="bold" font-size="14.00">time</text>
</g>
<!-- 1&#45;&gt;17 -->
<g id="edge2" class="edge">
<title>1&#45;&gt;17</title>
<path fill="none" stroke="#888888" d="M1290.18,-641.02C1339.58,-616.4 1406.99,-582.8 1457.6,-557.58"/>
<polygon fill="#888888" stroke="#888888" points="1459.46,-560.57 1466.85,-552.97 1456.34,-554.3 1459.46,-560.57"/>
</g>
<!-- 3 -->
<g id="node4" class="node">
<title>3</title>
<text text-anchor="start" x="444.5" y="-407.8" font-family="Arial" font-weight="bold" font-size="14.00"> &lt; 6.5</text>
<path fill="#ebebeb" stroke="transparent" d="M420,-335C420,-335 504,-335 504,-335 510,-335 516,-341 516,-347 516,-347 516,-387 516,-387 516,-393 510,-399 504,-399 504,-399 420,-399 420,-399 414,-399 408,-393 408,-387 408,-387 408,-347 408,-347 408,-341 414,-335 420,-335"/>
<text text-anchor="start" x="409" y="-396.4" font-family="Arial" font-size="2.00"> </text>
<text text-anchor="start" x="409" y="-390.4" font-family="Arial" font-size="7.00"> &#160;3</text>
<text text-anchor="start" x="423" y="-373.8" font-family="Arial" font-weight="bold" font-size="14.00">Mean: 23.16</text>
<text text-anchor="start" x="438.5" y="-356.8" font-family="Arial" font-weight="bold" font-size="14.00">n = 196</text>
<text text-anchor="start" x="460.5" y="-338.8" font-family="Arial" font-size="9.00"> </text>
<path fill="none" stroke="#333333" d="M420,-335C420,-335 504,-335 504,-335 510,-335 516,-341 516,-347 516,-347 516,-387 516,-387 516,-393 510,-399 504,-399 504,-399 420,-399 420,-399 414,-399 408,-393 408,-387 408,-387 408,-347 408,-347 408,-341 414,-335 420,-335"/>
<text text-anchor="start" x="447.5" y="-320.8" font-family="Arial" font-weight="bold" font-size="14.00">time</text>
</g>
<!-- 2&#45;&gt;3 -->
<g id="edge3" class="edge">
<title>2&#45;&gt;3</title>
<path fill="none" stroke="#888888" d="M858.66,-498.22C773.74,-470.34 626.95,-422.15 537.73,-392.86"/>
<polygon fill="#888888" stroke="#888888" points="538.81,-389.53 528.21,-389.74 536.62,-396.18 538.81,-389.53"/>
</g>
<!-- 10 -->
<g id="node5" class="node">
<title>10</title>
<text text-anchor="start" x="908" y="-407.8" font-family="Arial" font-weight="bold" font-size="14.00"> ≥ 6.5</text>
<path fill="#ebebeb" stroke="transparent" d="M883,-335C883,-335 967,-335 967,-335 973,-335 979,-341 979,-347 979,-347 979,-387 979,-387 979,-393 973,-399 967,-399 967,-399 883,-399 883,-399 877,-399 871,-393 871,-387 871,-387 871,-347 871,-347 871,-341 877,-335 883,-335"/>
<text text-anchor="start" x="872" y="-396.4" font-family="Arial" font-size="2.00"> </text>
<text text-anchor="start" x="872" y="-390.4" font-family="Arial" font-size="7.00"> &#160;10</text>
<text text-anchor="start" x="886" y="-373.8" font-family="Arial" font-weight="bold" font-size="14.00">Mean: 37.83</text>
<text text-anchor="start" x="902" y="-356.8" font-family="Arial" font-weight="bold" font-size="14.00">n = 112</text>
<text text-anchor="start" x="923.5" y="-338.8" font-family="Arial" font-size="9.00"> </text>
<path fill="none" stroke="#333333" d="M883,-335C883,-335 967,-335 967,-335 973,-335 979,-341 979,-347 979,-347 979,-387 979,-387 979,-393 973,-399 967,-399 967,-399 883,-399 883,-399 877,-399 871,-393 871,-387 871,-387 871,-347 871,-347 871,-341 877,-335 883,-335"/>
<text text-anchor="start" x="910.5" y="-320.8" font-family="Arial" font-weight="bold" font-size="14.00">time</text>
</g>
<!-- 2&#45;&gt;10 -->
<g id="edge4" class="edge">
<title>2&#45;&gt;10</title>
<path fill="none" stroke="#888888" d="M925,-461.67C925,-453.39 925,-444.83 925,-436.38"/>
<polygon fill="#888888" stroke="#888888" points="928.5,-436.18 925,-426.18 921.5,-436.18 928.5,-436.18"/>
</g>
<!-- 18 -->
<g id="node18" class="node">
<title>18</title>
<text text-anchor="start" x="1507.5" y="-407.8" font-family="Arial" font-weight="bold" font-size="14.00"> &lt; 21.5</text>
<text text-anchor="start" x="1461" y="-363.3" font-family="Arial" font-size="14.00"> &#160;&#160;&#160;</text>
<path fill="#ebebeb" stroke="transparent" d="M1491,-335C1491,-335 1567,-335 1567,-335 1573,-335 1579,-341 1579,-347 1579,-347 1579,-387 1579,-387 1579,-393 1573,-399 1567,-399 1567,-399 1491,-399 1491,-399 1485,-399 1479,-393 1479,-387 1479,-387 1479,-347 1479,-347 1479,-341 1485,-335 1491,-335"/>
<text text-anchor="start" x="1480" y="-396.4" font-family="Arial" font-size="2.00"> </text>
<text text-anchor="start" x="1480" y="-390.4" font-family="Arial" font-size="7.00"> &#160;18</text>
<text text-anchor="start" x="1494" y="-373.8" font-family="Arial" font-weight="bold" font-size="14.00">Mean: 33.9</text>
<text text-anchor="start" x="1505.5" y="-356.8" font-family="Arial" font-weight="bold" font-size="14.00">n = 308</text>
<text text-anchor="start" x="1527.5" y="-338.8" font-family="Arial" font-size="9.00"> </text>
<path fill="none" stroke="#333333" d="M1491,-335C1491,-335 1567,-335 1567,-335 1573,-335 1579,-341 1579,-347 1579,-347 1579,-387 1579,-387 1579,-393 1573,-399 1567,-399 1567,-399 1491,-399 1491,-399 1485,-399 1479,-393 1479,-387 1479,-387 1479,-347 1479,-347 1479,-341 1485,-335 1491,-335"/>
<text text-anchor="start" x="1581" y="-363.3" font-family="Arial" font-size="14.00"> &#160;&#160;&#160;</text>
<text text-anchor="start" x="1471.5" y="-320.8" font-family="Arial" font-weight="bold" font-size="14.00">prev_168h_inflow</text>
</g>
<!-- 17&#45;&gt;18 -->
<g id="edge17" class="edge">
<title>17&#45;&gt;18</title>
<path fill="none" stroke="#888888" d="M1529,-461.67C1529,-453.39 1529,-444.83 1529,-436.38"/>
<polygon fill="#888888" stroke="#888888" points="1532.5,-436.18 1529,-426.18 1525.5,-436.18 1532.5,-436.18"/>
</g>
<!-- 25 -->
<g id="node19" class="node">
<title>25</title>
<text text-anchor="start" x="1765" y="-407.8" font-family="Arial" font-weight="bold" font-size="14.00"> ≥ 21.5</text>
<text text-anchor="start" x="1718" y="-363.3" font-family="Arial" font-size="14.00"> &#160;&#160;</text>
<path fill="#ebebeb" stroke="transparent" d="M1744,-335C1744,-335 1828,-335 1828,-335 1834,-335 1840,-341 1840,-347 1840,-347 1840,-387 1840,-387 1840,-393 1834,-399 1828,-399 1828,-399 1744,-399 1744,-399 1738,-399 1732,-393 1732,-387 1732,-387 1732,-347 1732,-347 1732,-341 1738,-335 1744,-335"/>
<text text-anchor="start" x="1733" y="-396.4" font-family="Arial" font-size="2.00"> </text>
<text text-anchor="start" x="1733" y="-390.4" font-family="Arial" font-size="7.00"> &#160;25</text>
<text text-anchor="start" x="1747" y="-373.8" font-family="Arial" font-weight="bold" font-size="14.00">Mean: 27.38</text>
<text text-anchor="start" x="1766" y="-356.8" font-family="Arial" font-weight="bold" font-size="14.00">n = 56</text>
<text text-anchor="start" x="1784.5" y="-338.8" font-family="Arial" font-size="9.00"> </text>
<path fill="none" stroke="#333333" d="M1744,-335C1744,-335 1828,-335 1828,-335 1834,-335 1840,-341 1840,-347 1840,-347 1840,-387 1840,-387 1840,-393 1834,-399 1828,-399 1828,-399 1744,-399 1744,-399 1738,-399 1732,-393 1732,-387 1732,-387 1732,-347 1732,-347 1732,-341 1738,-335 1744,-335"/>
<text text-anchor="start" x="1842" y="-363.3" font-family="Arial" font-size="14.00"> &#160;&#160;</text>
<text text-anchor="start" x="1732.5" y="-320.8" font-family="Arial" font-weight="bold" font-size="14.00">prev_24h_inflow</text>
</g>
<!-- 17&#45;&gt;25 -->
<g id="edge18" class="edge">
<title>17&#45;&gt;25</title>
<path fill="none" stroke="#888888" d="M1591.21,-483.21C1623.53,-464.09 1663.56,-440.42 1698.9,-419.51"/>
<polygon fill="#888888" stroke="#888888" points="1700.95,-422.37 1707.78,-414.26 1697.39,-416.34 1700.95,-422.37"/>
</g>
<!-- 4 -->
<g id="node6" class="node">
<title>4</title>
<text text-anchor="start" x="207.5" y="-253.8" font-family="Arial" font-weight="bold" font-size="14.00"> &lt; 5.5</text>
<text text-anchor="start" x="157" y="-209.3" font-family="Arial" font-size="14.00"> &#160;&#160;&#160;</text>
<path fill="#ebebeb" stroke="transparent" d="M187,-181C187,-181 263,-181 263,-181 269,-181 275,-187 275,-193 275,-193 275,-233 275,-233 275,-239 269,-245 263,-245 263,-245 187,-245 187,-245 181,-245 175,-239 175,-233 175,-233 175,-193 175,-193 175,-187 181,-181 187,-181"/>
<text text-anchor="start" x="176" y="-242.4" font-family="Arial" font-size="2.00"> </text>
<text text-anchor="start" x="176" y="-236.4" font-family="Arial" font-size="7.00"> &#160;4</text>
<text text-anchor="start" x="190" y="-219.8" font-family="Arial" font-weight="bold" font-size="14.00">Mean: 22.2</text>
<text text-anchor="start" x="201.5" y="-202.8" font-family="Arial" font-weight="bold" font-size="14.00">n = 168</text>
<text text-anchor="start" x="223.5" y="-184.8" font-family="Arial" font-size="9.00"> </text>
<path fill="none" stroke="#333333" d="M187,-181C187,-181 263,-181 263,-181 269,-181 275,-187 275,-193 275,-193 275,-233 275,-233 275,-239 269,-245 263,-245 263,-245 187,-245 187,-245 181,-245 175,-239 175,-233 175,-233 175,-193 175,-193 175,-187 181,-181 187,-181"/>
<text text-anchor="start" x="277" y="-209.3" font-family="Arial" font-size="14.00"> &#160;&#160;&#160;</text>
<text text-anchor="start" x="171.5" y="-166.8" font-family="Arial" font-weight="bold" font-size="14.00">prev_24h_inflow</text>
</g>
<!-- 3&#45;&gt;4 -->
<g id="edge5" class="edge">
<title>3&#45;&gt;4</title>
<path fill="none" stroke="#888888" d="M395.98,-323.66C369.92,-306.94 339.6,-287.5 311.8,-269.67"/>
<polygon fill="#888888" stroke="#888888" points="313.57,-266.65 303.26,-264.2 309.79,-272.54 313.57,-266.65"/>
</g>
<!-- 7 -->
<g id="node7" class="node">
<title>7</title>
<text text-anchor="start" x="445" y="-253.8" font-family="Arial" font-weight="bold" font-size="14.00"> ≥ 5.5</text>
<path fill="#ebebeb" stroke="transparent" d="M420,-181C420,-181 504,-181 504,-181 510,-181 516,-187 516,-193 516,-193 516,-233 516,-233 516,-239 510,-245 504,-245 504,-245 420,-245 420,-245 414,-245 408,-239 408,-233 408,-233 408,-193 408,-193 408,-187 414,-181 420,-181"/>
<text text-anchor="start" x="409" y="-242.4" font-family="Arial" font-size="2.00"> </text>
<text text-anchor="start" x="409" y="-236.4" font-family="Arial" font-size="7.00"> &#160;7</text>
<text text-anchor="start" x="423" y="-219.8" font-family="Arial" font-weight="bold" font-size="14.00">Mean: 28.89</text>
<text text-anchor="start" x="442" y="-202.8" font-family="Arial" font-weight="bold" font-size="14.00">n = 28</text>
<text text-anchor="start" x="460.5" y="-184.8" font-family="Arial" font-size="9.00"> </text>
<path fill="none" stroke="#333333" d="M420,-181C420,-181 504,-181 504,-181 510,-181 516,-187 516,-193 516,-193 516,-233 516,-233 516,-239 510,-245 504,-245 504,-245 420,-245 420,-245 414,-245 408,-239 408,-233 408,-233 408,-193 408,-193 408,-187 414,-181 420,-181"/>
<text text-anchor="start" x="419.5" y="-166.8" font-family="Arial" font-weight="bold" font-size="14.00">day_of_week</text>
</g>
<!-- 3&#45;&gt;7 -->
<g id="edge6" class="edge">
<title>3&#45;&gt;7</title>
<path fill="none" stroke="#888888" d="M462,-307.67C462,-299.39 462,-290.83 462,-282.38"/>
<polygon fill="#888888" stroke="#888888" points="465.5,-282.18 462,-272.18 458.5,-282.18 465.5,-282.18"/>
</g>
<!-- 11 -->
<g id="node12" class="node">
<title>11</title>
<text text-anchor="start" x="824.5" y="-253.8" font-family="Arial" font-weight="bold" font-size="14.00"> &lt; 8.5</text>
<text text-anchor="start" x="770" y="-209.3" font-family="Arial" font-size="14.00"> &#160;&#160;&#160;</text>
<path fill="#ebebeb" stroke="transparent" d="M800,-181C800,-181 884,-181 884,-181 890,-181 896,-187 896,-193 896,-193 896,-233 896,-233 896,-239 890,-245 884,-245 884,-245 800,-245 800,-245 794,-245 788,-239 788,-233 788,-233 788,-193 788,-193 788,-187 794,-181 800,-181"/>
<text text-anchor="start" x="789" y="-242.4" font-family="Arial" font-size="2.00"> </text>
<text text-anchor="start" x="789" y="-236.4" font-family="Arial" font-size="7.00"> &#160;11</text>
<text text-anchor="start" x="803" y="-219.8" font-family="Arial" font-weight="bold" font-size="14.00">Mean: 37.79</text>
<text text-anchor="start" x="822" y="-202.8" font-family="Arial" font-weight="bold" font-size="14.00">n = 56</text>
<text text-anchor="start" x="840.5" y="-184.8" font-family="Arial" font-size="9.00"> </text>
<path fill="none" stroke="#333333" d="M800,-181C800,-181 884,-181 884,-181 890,-181 896,-187 896,-193 896,-193 896,-233 896,-233 896,-239 890,-245 884,-245 884,-245 800,-245 800,-245 794,-245 788,-239 788,-233 788,-233 788,-193 788,-193 788,-187 794,-181 800,-181"/>
<text text-anchor="start" x="898" y="-209.3" font-family="Arial" font-size="14.00"> &#160;&#160;&#160;</text>
<text text-anchor="start" x="784.5" y="-166.8" font-family="Arial" font-weight="bold" font-size="14.00">prev_168h_inflow</text>
</g>
<!-- 10&#45;&gt;11 -->
<g id="edge11" class="edge">
<title>10&#45;&gt;11</title>
<path fill="none" stroke="#888888" d="M893.15,-307.67C888.38,-298.94 883.44,-289.88 878.58,-280.99"/>
<polygon fill="#888888" stroke="#888888" points="881.63,-279.28 873.77,-272.18 875.49,-282.63 881.63,-279.28"/>
</g>
<!-- 14 -->
<g id="node13" class="node">
<title>14</title>
<text text-anchor="start" x="991" y="-253.8" font-family="Arial" font-weight="bold" font-size="14.00"> ≥ 8.5</text>
<path fill="#ebebeb" stroke="transparent" d="M966,-181C966,-181 1050,-181 1050,-181 1056,-181 1062,-187 1062,-193 1062,-193 1062,-233 1062,-233 1062,-239 1056,-245 1050,-245 1050,-245 966,-245 966,-245 960,-245 954,-239 954,-233 954,-233 954,-193 954,-193 954,-187 960,-181 966,-181"/>
<text text-anchor="start" x="955" y="-242.4" font-family="Arial" font-size="2.00"> </text>
<text text-anchor="start" x="955" y="-236.4" font-family="Arial" font-size="7.00"> &#160;14</text>
<text text-anchor="start" x="969" y="-219.8" font-family="Arial" font-weight="bold" font-size="14.00">Mean: 37.88</text>
<text text-anchor="start" x="988" y="-202.8" font-family="Arial" font-weight="bold" font-size="14.00">n = 56</text>
<text text-anchor="start" x="1006.5" y="-184.8" font-family="Arial" font-size="9.00"> </text>
<path fill="none" stroke="#333333" d="M966,-181C966,-181 1050,-181 1050,-181 1056,-181 1062,-187 1062,-193 1062,-193 1062,-233 1062,-233 1062,-239 1056,-245 1050,-245 1050,-245 966,-245 966,-245 960,-245 954,-239 954,-233 954,-233 954,-193 954,-193 954,-187 960,-181 966,-181"/>
<text text-anchor="start" x="965.5" y="-166.8" font-family="Arial" font-weight="bold" font-size="14.00">day_of_week</text>
</g>
<!-- 10&#45;&gt;14 -->
<g id="edge12" class="edge">
<title>10&#45;&gt;14</title>
<path fill="none" stroke="#888888" d="M956.85,-307.67C961.62,-298.94 966.56,-289.88 971.42,-280.99"/>
<polygon fill="#888888" stroke="#888888" points="974.51,-282.63 976.23,-272.18 968.37,-279.28 974.51,-282.63"/>
</g>
<!-- 5 -->
<g id="node8" class="node">
<title>5</title>
<text text-anchor="start" x="44" y="-99.8" font-family="Arial" font-weight="bold" font-size="14.00"> &lt; 20.59</text>
<path fill="#f8766d" fill-opacity="0.874510" stroke="transparent" d="M24,-27C24,-27 114,-27 114,-27 120,-27 126,-33 126,-39 126,-39 126,-79 126,-79 126,-85 120,-91 114,-91 114,-91 24,-91 24,-91 18,-91 12,-85 12,-79 12,-79 12,-39 12,-39 12,-33 18,-27 24,-27"/>
<text text-anchor="start" x="13" y="-88.4" font-family="Arial" font-size="2.00"> </text>
<text text-anchor="start" x="13" y="-82.4" font-family="Arial" font-size="7.00"> &#160;5</text>
<text text-anchor="start" x="27" y="-65.8" font-family="Arial" font-weight="bold" font-size="14.00">Predict 20.54</text>
<text text-anchor="start" x="49" y="-48.8" font-family="Arial" font-weight="bold" font-size="14.00">n = 36</text>
<text text-anchor="start" x="67.5" y="-30.8" font-family="Arial" font-size="9.00"> </text>
<path fill="none" stroke="#333333" d="M24,-27C24,-27 114,-27 114,-27 120,-27 126,-33 126,-39 126,-39 126,-79 126,-79 126,-85 120,-91 114,-91 114,-91 24,-91 24,-91 18,-91 12,-85 12,-79 12,-79 12,-39 12,-39 12,-33 18,-27 24,-27"/>
<text text-anchor="start" x="67" y="-12.8" font-family="Arial" font-weight="bold" font-size="14.00"> </text>
</g>
<!-- 4&#45;&gt;5 -->
<g id="edge7" class="edge">
<title>4&#45;&gt;5</title>
<path fill="none" stroke="#888888" d="M165.13,-153.67C155.62,-144.39 145.72,-134.75 136.05,-125.33"/>
<polygon fill="#888888" stroke="#888888" points="138.31,-122.65 128.71,-118.18 133.43,-127.66 138.31,-122.65"/>
</g>
<!-- 6 -->
<g id="node9" class="node">
<title>6</title>
<text text-anchor="start" x="200.5" y="-99.8" font-family="Arial" font-weight="bold" font-size="14.00"> ≥ 20.59</text>
<path fill="#f8766d" fill-opacity="0.827451" stroke="transparent" d="M180,-27C180,-27 270,-27 270,-27 276,-27 282,-33 282,-39 282,-39 282,-79 282,-79 282,-85 276,-91 270,-91 270,-91 180,-91 180,-91 174,-91 168,-85 168,-79 168,-79 168,-39 168,-39 168,-33 174,-27 180,-27"/>
<text text-anchor="start" x="169" y="-88.4" font-family="Arial" font-size="2.00"> </text>
<text text-anchor="start" x="169" y="-82.4" font-family="Arial" font-size="7.00"> &#160;6</text>
<text text-anchor="start" x="183" y="-65.8" font-family="Arial" font-weight="bold" font-size="14.00">Predict 22.65</text>
<text text-anchor="start" x="201.5" y="-48.8" font-family="Arial" font-weight="bold" font-size="14.00">n = 132</text>
<text text-anchor="start" x="223.5" y="-30.8" font-family="Arial" font-size="9.00"> </text>
<path fill="none" stroke="#333333" d="M180,-27C180,-27 270,-27 270,-27 276,-27 282,-33 282,-39 282,-39 282,-79 282,-79 282,-85 276,-91 270,-91 270,-91 180,-91 180,-91 174,-91 168,-85 168,-79 168,-79 168,-39 168,-39 168,-33 174,-27 180,-27"/>
<text text-anchor="start" x="223" y="-12.8" font-family="Arial" font-weight="bold" font-size="14.00"> </text>
</g>
<!-- 4&#45;&gt;6 -->
<g id="edge8" class="edge">
<title>4&#45;&gt;6</title>
<path fill="none" stroke="#888888" d="M225,-153.67C225,-145.39 225,-136.83 225,-128.38"/>
<polygon fill="#888888" stroke="#888888" points="228.5,-128.18 225,-118.18 221.5,-128.18 228.5,-128.18"/>
</g>
<!-- 8 -->
<g id="node10" class="node">
<title>8</title>
<text text-anchor="start" x="369" y="-99.8" font-family="Arial" font-weight="bold" font-size="14.00"> &lt; 6</text>
<path fill="#f8766d" fill-opacity="0.650980" stroke="transparent" d="M336,-27C336,-27 426,-27 426,-27 432,-27 438,-33 438,-39 438,-39 438,-79 438,-79 438,-85 432,-91 426,-91 426,-91 336,-91 336,-91 330,-91 324,-85 324,-79 324,-79 324,-39 324,-39 324,-33 330,-27 336,-27"/>
<text text-anchor="start" x="325" y="-88.4" font-family="Arial" font-size="2.00"> </text>
<text text-anchor="start" x="325" y="-82.4" font-family="Arial" font-size="7.00"> &#160;8</text>
<text text-anchor="start" x="339" y="-65.8" font-family="Arial" font-weight="bold" font-size="14.00">Predict 30.52</text>
<text text-anchor="start" x="361" y="-48.8" font-family="Arial" font-weight="bold" font-size="14.00">n = 20</text>
<text text-anchor="start" x="379.5" y="-30.8" font-family="Arial" font-size="9.00"> </text>
<path fill="none" stroke="#333333" d="M336,-27C336,-27 426,-27 426,-27 432,-27 438,-33 438,-39 438,-39 438,-79 438,-79 438,-85 432,-91 426,-91 426,-91 336,-91 336,-91 330,-91 324,-85 324,-79 324,-79 324,-39 324,-39 324,-33 330,-27 336,-27"/>
<text text-anchor="start" x="379" y="-12.8" font-family="Arial" font-weight="bold" font-size="14.00"> </text>
</g>
<!-- 7&#45;&gt;8 -->
<g id="edge9" class="edge">
<title>7&#45;&gt;8</title>
<path fill="none" stroke="#888888" d="M430.91,-153.67C426.31,-145.03 421.54,-136.07 416.85,-127.27"/>
<polygon fill="#888888" stroke="#888888" points="419.79,-125.36 412,-118.18 413.62,-128.65 419.79,-125.36"/>
</g>
<!-- 9 -->
<g id="node11" class="node">
<title>9</title>
<text text-anchor="start" x="525.5" y="-99.8" font-family="Arial" font-weight="bold" font-size="14.00"> ≥ 6</text>
<path fill="#f8766d" fill-opacity="0.780392" stroke="transparent" d="M492,-27C492,-27 582,-27 582,-27 588,-27 594,-33 594,-39 594,-39 594,-79 594,-79 594,-85 588,-91 582,-91 582,-91 492,-91 492,-91 486,-91 480,-85 480,-79 480,-79 480,-39 480,-39 480,-33 486,-27 492,-27"/>
<text text-anchor="start" x="481" y="-88.4" font-family="Arial" font-size="2.00"> </text>
<text text-anchor="start" x="481" y="-82.4" font-family="Arial" font-size="7.00"> &#160;9</text>
<text text-anchor="start" x="495" y="-65.8" font-family="Arial" font-weight="bold" font-size="14.00">Predict 24.81</text>
<text text-anchor="start" x="521" y="-48.8" font-family="Arial" font-weight="bold" font-size="14.00">n = 8</text>
<text text-anchor="start" x="535.5" y="-30.8" font-family="Arial" font-size="9.00"> </text>
<path fill="none" stroke="#333333" d="M492,-27C492,-27 582,-27 582,-27 588,-27 594,-33 594,-39 594,-39 594,-79 594,-79 594,-85 588,-91 582,-91 582,-91 492,-91 492,-91 486,-91 480,-85 480,-79 480,-79 480,-39 480,-39 480,-33 486,-27 492,-27"/>
<text text-anchor="start" x="535" y="-12.8" font-family="Arial" font-weight="bold" font-size="14.00"> </text>
</g>
<!-- 7&#45;&gt;9 -->
<g id="edge10" class="edge">
<title>7&#45;&gt;9</title>
<path fill="none" stroke="#888888" d="M490.78,-153.67C495.04,-145.03 499.46,-136.07 503.81,-127.27"/>
<polygon fill="#888888" stroke="#888888" points="507.01,-128.69 508.29,-118.18 500.73,-125.6 507.01,-128.69"/>
</g>
<!-- 12 -->
<g id="node14" class="node">
<title>12</title>
<text text-anchor="start" x="668" y="-99.8" font-family="Arial" font-weight="bold" font-size="14.00"> &lt; 32.73</text>
<path fill="#f8766d" fill-opacity="0.635294" stroke="transparent" d="M648,-27C648,-27 738,-27 738,-27 744,-27 750,-33 750,-39 750,-39 750,-79 750,-79 750,-85 744,-91 738,-91 738,-91 648,-91 648,-91 642,-91 636,-85 636,-79 636,-79 636,-39 636,-39 636,-33 642,-27 648,-27"/>
<text text-anchor="start" x="637" y="-88.4" font-family="Arial" font-size="2.00"> </text>
<text text-anchor="start" x="637" y="-82.4" font-family="Arial" font-size="7.00"> &#160;12</text>
<text text-anchor="start" x="651" y="-65.8" font-family="Arial" font-weight="bold" font-size="14.00">Predict 31.29</text>
<text text-anchor="start" x="677" y="-48.8" font-family="Arial" font-weight="bold" font-size="14.00">n = 6</text>
<text text-anchor="start" x="691.5" y="-30.8" font-family="Arial" font-size="9.00"> </text>
<path fill="none" stroke="#333333" d="M648,-27C648,-27 738,-27 738,-27 744,-27 750,-33 750,-39 750,-39 750,-79 750,-79 750,-85 744,-91 738,-91 738,-91 648,-91 648,-91 642,-91 636,-85 636,-79 636,-79 636,-39 636,-39 636,-33 642,-27 648,-27"/>
<text text-anchor="start" x="691" y="-12.8" font-family="Arial" font-weight="bold" font-size="14.00"> </text>
</g>
<!-- 11&#45;&gt;12 -->
<g id="edge13" class="edge">
<title>11&#45;&gt;12</title>
<path fill="none" stroke="#888888" d="M784.82,-153.67C775.73,-144.39 766.27,-134.75 757.04,-125.33"/>
<polygon fill="#888888" stroke="#888888" points="759.53,-122.87 750.03,-118.18 754.53,-127.77 759.53,-122.87"/>
</g>
<!-- 13 -->
<g id="node15" class="node">
<title>13</title>
<text text-anchor="start" x="824.5" y="-99.8" font-family="Arial" font-weight="bold" font-size="14.00"> ≥ 32.73</text>
<path fill="#f8766d" fill-opacity="0.470588" stroke="transparent" d="M804,-27C804,-27 894,-27 894,-27 900,-27 906,-33 906,-39 906,-39 906,-79 906,-79 906,-85 900,-91 894,-91 894,-91 804,-91 804,-91 798,-91 792,-85 792,-79 792,-79 792,-39 792,-39 792,-33 798,-27 804,-27"/>
<text text-anchor="start" x="793" y="-88.4" font-family="Arial" font-size="2.00"> </text>
<text text-anchor="start" x="793" y="-82.4" font-family="Arial" font-size="7.00"> &#160;13</text>
<text text-anchor="start" x="807" y="-65.8" font-family="Arial" font-weight="bold" font-size="14.00">Predict 38.56</text>
<text text-anchor="start" x="829" y="-48.8" font-family="Arial" font-weight="bold" font-size="14.00">n = 50</text>
<text text-anchor="start" x="847.5" y="-30.8" font-family="Arial" font-size="9.00"> </text>
<path fill="none" stroke="#333333" d="M804,-27C804,-27 894,-27 894,-27 900,-27 906,-33 906,-39 906,-39 906,-79 906,-79 906,-85 900,-91 894,-91 894,-91 804,-91 804,-91 798,-91 792,-85 792,-79 792,-79 792,-39 792,-39 792,-33 798,-27 804,-27"/>
<text text-anchor="start" x="847" y="-12.8" font-family="Arial" font-weight="bold" font-size="14.00"> </text>
</g>
<!-- 11&#45;&gt;13 -->
<g id="edge14" class="edge">
<title>11&#45;&gt;13</title>
<path fill="none" stroke="#888888" d="M844.69,-153.67C845.07,-145.39 845.46,-136.83 845.85,-128.38"/>
<polygon fill="#888888" stroke="#888888" points="849.36,-128.33 846.32,-118.18 842.36,-128 849.36,-128.33"/>
</g>
<!-- 15 -->
<g id="node16" class="node">
<title>15</title>
<text text-anchor="start" x="983.5" y="-99.8" font-family="Arial" font-weight="bold" font-size="14.00"> &lt; 5.5</text>
<path fill="#f8766d" fill-opacity="0.529412" stroke="transparent" d="M960,-27C960,-27 1042,-27 1042,-27 1048,-27 1054,-33 1054,-39 1054,-39 1054,-79 1054,-79 1054,-85 1048,-91 1042,-91 1042,-91 960,-91 960,-91 954,-91 948,-85 948,-79 948,-79 948,-39 948,-39 948,-33 954,-27 960,-27"/>
<text text-anchor="start" x="949" y="-88.4" font-family="Arial" font-size="2.00"> </text>
<text text-anchor="start" x="949" y="-82.4" font-family="Arial" font-size="7.00"> &#160;15</text>
<text text-anchor="start" x="963" y="-65.8" font-family="Arial" font-weight="bold" font-size="14.00">Predict 35.9</text>
<text text-anchor="start" x="981" y="-48.8" font-family="Arial" font-weight="bold" font-size="14.00">n = 40</text>
<text text-anchor="start" x="999.5" y="-30.8" font-family="Arial" font-size="9.00"> </text>
<path fill="none" stroke="#333333" d="M960,-27C960,-27 1042,-27 1042,-27 1048,-27 1054,-33 1054,-39 1054,-39 1054,-79 1054,-79 1054,-85 1048,-91 1042,-91 1042,-91 960,-91 960,-91 954,-91 948,-85 948,-79 948,-79 948,-39 948,-39 948,-33 954,-27 960,-27"/>
<text text-anchor="start" x="999" y="-12.8" font-family="Arial" font-weight="bold" font-size="14.00"> </text>
</g>
<!-- 14&#45;&gt;15 -->
<g id="edge15" class="edge">
<title>14&#45;&gt;15</title>
<path fill="none" stroke="#888888" d="M1005.31,-153.67C1004.93,-145.39 1004.54,-136.83 1004.15,-128.38"/>
<polygon fill="#888888" stroke="#888888" points="1007.64,-128 1003.68,-118.18 1000.64,-128.33 1007.64,-128"/>
</g>
<!-- 16 -->
<g id="node17" class="node">
<title>16</title>
<text text-anchor="start" x="1136" y="-99.8" font-family="Arial" font-weight="bold" font-size="14.00"> ≥ 5.5</text>
<path fill="#f8766d" fill-opacity="0.376471" stroke="transparent" d="M1108,-27C1108,-27 1198,-27 1198,-27 1204,-27 1210,-33 1210,-39 1210,-39 1210,-79 1210,-79 1210,-85 1204,-91 1198,-91 1198,-91 1108,-91 1108,-91 1102,-91 1096,-85 1096,-79 1096,-79 1096,-39 1096,-39 1096,-33 1102,-27 1108,-27"/>
<text text-anchor="start" x="1097" y="-88.4" font-family="Arial" font-size="2.00"> </text>
<text text-anchor="start" x="1097" y="-82.4" font-family="Arial" font-size="7.00"> &#160;16</text>
<text text-anchor="start" x="1111" y="-65.8" font-family="Arial" font-weight="bold" font-size="14.00">Predict 42.84</text>
<text text-anchor="start" x="1133" y="-48.8" font-family="Arial" font-weight="bold" font-size="14.00">n = 16</text>
<text text-anchor="start" x="1151.5" y="-30.8" font-family="Arial" font-size="9.00"> </text>
<path fill="none" stroke="#333333" d="M1108,-27C1108,-27 1198,-27 1198,-27 1204,-27 1210,-33 1210,-39 1210,-39 1210,-79 1210,-79 1210,-85 1204,-91 1198,-91 1198,-91 1108,-91 1108,-91 1102,-91 1096,-85 1096,-79 1096,-79 1096,-39 1096,-39 1096,-33 1102,-27 1108,-27"/>
<text text-anchor="start" x="1151" y="-12.8" font-family="Arial" font-weight="bold" font-size="14.00"> </text>
</g>
<!-- 14&#45;&gt;16 -->
<g id="edge16" class="edge">
<title>14&#45;&gt;16</title>
<path fill="none" stroke="#888888" d="M1063.65,-153.67C1072.41,-144.49 1081.51,-134.94 1090.42,-125.6"/>
<polygon fill="#888888" stroke="#888888" points="1093.13,-127.83 1097.5,-118.18 1088.07,-123 1093.13,-127.83"/>
</g>
<!-- 19 -->
<g id="node20" class="node">
<title>19</title>
<text text-anchor="start" x="1422" y="-253.8" font-family="Arial" font-weight="bold" font-size="14.00"> &lt; 35.59</text>
<text text-anchor="start" x="1379" y="-209.3" font-family="Arial" font-size="14.00"> &#160;&#160;</text>
<path fill="#ebebeb" stroke="transparent" d="M1405,-181C1405,-181 1489,-181 1489,-181 1495,-181 1501,-187 1501,-193 1501,-193 1501,-233 1501,-233 1501,-239 1495,-245 1489,-245 1489,-245 1405,-245 1405,-245 1399,-245 1393,-239 1393,-233 1393,-233 1393,-193 1393,-193 1393,-187 1399,-181 1405,-181"/>
<text text-anchor="start" x="1394" y="-242.4" font-family="Arial" font-size="2.00"> </text>
<text text-anchor="start" x="1394" y="-236.4" font-family="Arial" font-size="7.00"> &#160;19</text>
<text text-anchor="start" x="1408" y="-219.8" font-family="Arial" font-weight="bold" font-size="14.00">Mean: 32.96</text>
<text text-anchor="start" x="1423.5" y="-202.8" font-family="Arial" font-weight="bold" font-size="14.00">n = 223</text>
<text text-anchor="start" x="1445.5" y="-184.8" font-family="Arial" font-size="9.00"> </text>
<path fill="none" stroke="#333333" d="M1405,-181C1405,-181 1489,-181 1489,-181 1495,-181 1501,-187 1501,-193 1501,-193 1501,-233 1501,-233 1501,-239 1495,-245 1489,-245 1489,-245 1405,-245 1405,-245 1399,-245 1393,-239 1393,-233 1393,-233 1393,-193 1393,-193 1393,-187 1399,-181 1405,-181"/>
<text text-anchor="start" x="1503" y="-209.3" font-family="Arial" font-size="14.00"> &#160;&#160;</text>
<text text-anchor="start" x="1393.5" y="-166.8" font-family="Arial" font-weight="bold" font-size="14.00">prev_24h_inflow</text>
</g>
<!-- 18&#45;&gt;19 -->
<g id="edge19" class="edge">
<title>18&#45;&gt;19</title>
<path fill="none" stroke="#888888" d="M1497.53,-307.67C1492.82,-298.94 1487.94,-289.88 1483.14,-280.99"/>
<polygon fill="#888888" stroke="#888888" points="1486.21,-279.32 1478.38,-272.18 1480.05,-282.64 1486.21,-279.32"/>
</g>
<!-- 22 -->
<g id="node21" class="node">
<title>22</title>
<text text-anchor="start" x="1596.5" y="-253.8" font-family="Arial" font-weight="bold" font-size="14.00"> ≥ 35.59</text>
<text text-anchor="start" x="1553" y="-209.3" font-family="Arial" font-size="14.00"> &#160;&#160;</text>
<path fill="#ebebeb" stroke="transparent" d="M1579,-181C1579,-181 1663,-181 1663,-181 1669,-181 1675,-187 1675,-193 1675,-193 1675,-233 1675,-233 1675,-239 1669,-245 1663,-245 1663,-245 1579,-245 1579,-245 1573,-245 1567,-239 1567,-233 1567,-233 1567,-193 1567,-193 1567,-187 1573,-181 1579,-181"/>
<text text-anchor="start" x="1568" y="-242.4" font-family="Arial" font-size="2.00"> </text>
<text text-anchor="start" x="1568" y="-236.4" font-family="Arial" font-size="7.00"> &#160;22</text>
<text text-anchor="start" x="1582" y="-219.8" font-family="Arial" font-weight="bold" font-size="14.00">Mean: 36.38</text>
<text text-anchor="start" x="1601" y="-202.8" font-family="Arial" font-weight="bold" font-size="14.00">n = 85</text>
<text text-anchor="start" x="1619.5" y="-184.8" font-family="Arial" font-size="9.00"> </text>
<path fill="none" stroke="#333333" d="M1579,-181C1579,-181 1663,-181 1663,-181 1669,-181 1675,-187 1675,-193 1675,-193 1675,-233 1675,-233 1675,-239 1669,-245 1663,-245 1663,-245 1579,-245 1579,-245 1573,-245 1567,-239 1567,-233 1567,-233 1567,-193 1567,-193 1567,-187 1573,-181 1579,-181"/>
<text text-anchor="start" x="1677" y="-209.3" font-family="Arial" font-size="14.00"> &#160;&#160;</text>
<text text-anchor="start" x="1567.5" y="-166.8" font-family="Arial" font-weight="bold" font-size="14.00">prev_24h_inflow</text>
</g>
<!-- 18&#45;&gt;22 -->
<g id="edge20" class="edge">
<title>18&#45;&gt;22</title>
<path fill="none" stroke="#888888" d="M1564.31,-307.67C1569.59,-298.94 1575.07,-289.88 1580.45,-280.99"/>
<polygon fill="#888888" stroke="#888888" points="1583.6,-282.54 1585.79,-272.18 1577.62,-278.92 1583.6,-282.54"/>
</g>
<!-- 26 -->
<g id="node26" class="node">
<title>26</title>
<text text-anchor="start" x="1761" y="-253.8" font-family="Arial" font-weight="bold" font-size="14.00"> &lt; 23.69</text>
<path fill="#f8766d" fill-opacity="0.827451" stroke="transparent" d="M1741,-181C1741,-181 1831,-181 1831,-181 1837,-181 1843,-187 1843,-193 1843,-193 1843,-233 1843,-233 1843,-239 1837,-245 1831,-245 1831,-245 1741,-245 1741,-245 1735,-245 1729,-239 1729,-233 1729,-233 1729,-193 1729,-193 1729,-187 1735,-181 1741,-181"/>
<text text-anchor="start" x="1730" y="-242.4" font-family="Arial" font-size="2.00"> </text>
<text text-anchor="start" x="1730" y="-236.4" font-family="Arial" font-size="7.00"> &#160;26</text>
<text text-anchor="start" x="1744" y="-219.8" font-family="Arial" font-weight="bold" font-size="14.00">Predict 22.72</text>
<text text-anchor="start" x="1770" y="-202.8" font-family="Arial" font-weight="bold" font-size="14.00">n = 5</text>
<text text-anchor="start" x="1784.5" y="-184.8" font-family="Arial" font-size="9.00"> </text>
<path fill="none" stroke="#333333" d="M1741,-181C1741,-181 1831,-181 1831,-181 1837,-181 1843,-187 1843,-193 1843,-193 1843,-233 1843,-233 1843,-239 1837,-245 1831,-245 1831,-245 1741,-245 1741,-245 1735,-245 1729,-239 1729,-233 1729,-233 1729,-193 1729,-193 1729,-187 1735,-181 1741,-181"/>
<text text-anchor="start" x="1784" y="-166.8" font-family="Arial" font-weight="bold" font-size="14.00"> </text>
</g>
<!-- 25&#45;&gt;26 -->
<g id="edge25" class="edge">
<title>25&#45;&gt;26</title>
<path fill="none" stroke="#888888" d="M1786,-307.67C1786,-299.39 1786,-290.83 1786,-282.38"/>
<polygon fill="#888888" stroke="#888888" points="1789.5,-282.18 1786,-272.18 1782.5,-282.18 1789.5,-282.18"/>
</g>
<!-- 27 -->
<g id="node27" class="node">
<title>27</title>
<text text-anchor="start" x="1917.5" y="-253.8" font-family="Arial" font-weight="bold" font-size="14.00"> ≥ 23.69</text>
<path fill="#f8766d" fill-opacity="0.709804" stroke="transparent" d="M1897,-181C1897,-181 1987,-181 1987,-181 1993,-181 1999,-187 1999,-193 1999,-193 1999,-233 1999,-233 1999,-239 1993,-245 1987,-245 1987,-245 1897,-245 1897,-245 1891,-245 1885,-239 1885,-233 1885,-233 1885,-193 1885,-193 1885,-187 1891,-181 1897,-181"/>
<text text-anchor="start" x="1886" y="-242.4" font-family="Arial" font-size="2.00"> </text>
<text text-anchor="start" x="1886" y="-236.4" font-family="Arial" font-size="7.00"> &#160;27</text>
<text text-anchor="start" x="1900" y="-219.8" font-family="Arial" font-weight="bold" font-size="14.00">Predict 27.84</text>
<text text-anchor="start" x="1922" y="-202.8" font-family="Arial" font-weight="bold" font-size="14.00">n = 51</text>
<text text-anchor="start" x="1940.5" y="-184.8" font-family="Arial" font-size="9.00"> </text>
<path fill="none" stroke="#333333" d="M1897,-181C1897,-181 1987,-181 1987,-181 1993,-181 1999,-187 1999,-193 1999,-193 1999,-233 1999,-233 1999,-239 1993,-245 1987,-245 1987,-245 1897,-245 1897,-245 1891,-245 1885,-239 1885,-233 1885,-233 1885,-193 1885,-193 1885,-187 1891,-181 1897,-181"/>
<text text-anchor="start" x="1940" y="-166.8" font-family="Arial" font-weight="bold" font-size="14.00"> </text>
</g>
<!-- 25&#45;&gt;27 -->
<g id="edge26" class="edge">
<title>25&#45;&gt;27</title>
<path fill="none" stroke="#888888" d="M1845.87,-307.67C1855.38,-298.39 1865.28,-288.75 1874.95,-279.33"/>
<polygon fill="#888888" stroke="#888888" points="1877.57,-281.66 1882.29,-272.18 1872.69,-276.65 1877.57,-281.66"/>
</g>
<!-- 20 -->
<g id="node22" class="node">
<title>20</title>
<text text-anchor="start" x="1287.5" y="-99.8" font-family="Arial" font-weight="bold" font-size="14.00"> &lt; 31.8</text>
<path fill="#f8766d" fill-opacity="0.627451" stroke="transparent" d="M1264,-27C1264,-27 1354,-27 1354,-27 1360,-27 1366,-33 1366,-39 1366,-39 1366,-79 1366,-79 1366,-85 1360,-91 1354,-91 1354,-91 1264,-91 1264,-91 1258,-91 1252,-85 1252,-79 1252,-79 1252,-39 1252,-39 1252,-33 1258,-27 1264,-27"/>
<text text-anchor="start" x="1253" y="-88.4" font-family="Arial" font-size="2.00"> </text>
<text text-anchor="start" x="1253" y="-82.4" font-family="Arial" font-size="7.00"> &#160;20</text>
<text text-anchor="start" x="1267" y="-65.8" font-family="Arial" font-weight="bold" font-size="14.00">Predict 31.52</text>
<text text-anchor="start" x="1289" y="-48.8" font-family="Arial" font-weight="bold" font-size="14.00">n = 66</text>
<text text-anchor="start" x="1307.5" y="-30.8" font-family="Arial" font-size="9.00"> </text>
<path fill="none" stroke="#333333" d="M1264,-27C1264,-27 1354,-27 1354,-27 1360,-27 1366,-33 1366,-39 1366,-39 1366,-79 1366,-79 1366,-85 1360,-91 1354,-91 1354,-91 1264,-91 1264,-91 1258,-91 1252,-85 1252,-79 1252,-79 1252,-39 1252,-39 1252,-33 1258,-27 1264,-27"/>
<text text-anchor="start" x="1307" y="-12.8" font-family="Arial" font-weight="bold" font-size="14.00"> </text>
</g>
<!-- 19&#45;&gt;20 -->
<g id="edge21" class="edge">
<title>19&#45;&gt;20</title>
<path fill="none" stroke="#888888" d="M1394.04,-153.67C1385.7,-144.49 1377.04,-134.94 1368.56,-125.6"/>
<polygon fill="#888888" stroke="#888888" points="1371.13,-123.23 1361.82,-118.18 1365.95,-127.93 1371.13,-123.23"/>
</g>
<!-- 21 -->
<g id="node23" class="node">
<title>21</title>
<text text-anchor="start" x="1444" y="-99.8" font-family="Arial" font-weight="bold" font-size="14.00"> ≥ 31.8</text>
<path fill="#f8766d" fill-opacity="0.584314" stroke="transparent" d="M1420,-27C1420,-27 1510,-27 1510,-27 1516,-27 1522,-33 1522,-39 1522,-39 1522,-79 1522,-79 1522,-85 1516,-91 1510,-91 1510,-91 1420,-91 1420,-91 1414,-91 1408,-85 1408,-79 1408,-79 1408,-39 1408,-39 1408,-33 1414,-27 1420,-27"/>
<text text-anchor="start" x="1409" y="-88.4" font-family="Arial" font-size="2.00"> </text>
<text text-anchor="start" x="1409" y="-82.4" font-family="Arial" font-size="7.00"> &#160;21</text>
<text text-anchor="start" x="1423" y="-65.8" font-family="Arial" font-weight="bold" font-size="14.00">Predict 33.56</text>
<text text-anchor="start" x="1441.5" y="-48.8" font-family="Arial" font-weight="bold" font-size="14.00">n = 157</text>
<text text-anchor="start" x="1463.5" y="-30.8" font-family="Arial" font-size="9.00"> </text>
<path fill="none" stroke="#333333" d="M1420,-27C1420,-27 1510,-27 1510,-27 1516,-27 1522,-33 1522,-39 1522,-39 1522,-79 1522,-79 1522,-85 1516,-91 1510,-91 1510,-91 1420,-91 1420,-91 1414,-91 1408,-85 1408,-79 1408,-79 1408,-39 1408,-39 1408,-33 1414,-27 1420,-27"/>
<text text-anchor="start" x="1463" y="-12.8" font-family="Arial" font-weight="bold" font-size="14.00"> </text>
</g>
<!-- 19&#45;&gt;21 -->
<g id="edge22" class="edge">
<title>19&#45;&gt;21</title>
<path fill="none" stroke="#888888" d="M1453.91,-153.67C1454.89,-145.39 1455.9,-136.83 1456.9,-128.38"/>
<polygon fill="#888888" stroke="#888888" points="1460.41,-128.52 1458.11,-118.18 1453.46,-127.7 1460.41,-128.52"/>
</g>
<!-- 23 -->
<g id="node24" class="node">
<title>23</title>
<text text-anchor="start" x="1596" y="-99.8" font-family="Arial" font-weight="bold" font-size="14.00"> &lt; 34.95</text>
<path fill="#f8766d" fill-opacity="0.560784" stroke="transparent" d="M1576,-27C1576,-27 1666,-27 1666,-27 1672,-27 1678,-33 1678,-39 1678,-39 1678,-79 1678,-79 1678,-85 1672,-91 1666,-91 1666,-91 1576,-91 1576,-91 1570,-91 1564,-85 1564,-79 1564,-79 1564,-39 1564,-39 1564,-33 1570,-27 1576,-27"/>
<text text-anchor="start" x="1565" y="-88.4" font-family="Arial" font-size="2.00"> </text>
<text text-anchor="start" x="1565" y="-82.4" font-family="Arial" font-size="7.00"> &#160;23</text>
<text text-anchor="start" x="1579" y="-65.8" font-family="Arial" font-weight="bold" font-size="14.00">Predict 34.62</text>
<text text-anchor="start" x="1601" y="-48.8" font-family="Arial" font-weight="bold" font-size="14.00">n = 35</text>
<text text-anchor="start" x="1619.5" y="-30.8" font-family="Arial" font-size="9.00"> </text>
<path fill="none" stroke="#333333" d="M1576,-27C1576,-27 1666,-27 1666,-27 1672,-27 1678,-33 1678,-39 1678,-39 1678,-79 1678,-79 1678,-85 1672,-91 1666,-91 1666,-91 1576,-91 1576,-91 1570,-91 1564,-85 1564,-79 1564,-79 1564,-39 1564,-39 1564,-33 1570,-27 1576,-27"/>
<text text-anchor="start" x="1619" y="-12.8" font-family="Arial" font-weight="bold" font-size="14.00"> </text>
</g>
<!-- 22&#45;&gt;23 -->
<g id="edge23" class="edge">
<title>22&#45;&gt;23</title>
<path fill="none" stroke="#888888" d="M1621,-153.67C1621,-145.39 1621,-136.83 1621,-128.38"/>
<polygon fill="#888888" stroke="#888888" points="1624.5,-128.18 1621,-118.18 1617.5,-128.18 1624.5,-128.18"/>
</g>
<!-- 24 -->
<g id="node25" class="node">
<title>24</title>
<text text-anchor="start" x="1752.5" y="-99.8" font-family="Arial" font-weight="bold" font-size="14.00"> ≥ 34.95</text>
<path fill="#f8766d" fill-opacity="0.494118" stroke="transparent" d="M1732,-27C1732,-27 1822,-27 1822,-27 1828,-27 1834,-33 1834,-39 1834,-39 1834,-79 1834,-79 1834,-85 1828,-91 1822,-91 1822,-91 1732,-91 1732,-91 1726,-91 1720,-85 1720,-79 1720,-79 1720,-39 1720,-39 1720,-33 1726,-27 1732,-27"/>
<text text-anchor="start" x="1721" y="-88.4" font-family="Arial" font-size="2.00"> </text>
<text text-anchor="start" x="1721" y="-82.4" font-family="Arial" font-size="7.00"> &#160;24</text>
<text text-anchor="start" x="1735" y="-65.8" font-family="Arial" font-weight="bold" font-size="14.00">Predict 37.61</text>
<text text-anchor="start" x="1757" y="-48.8" font-family="Arial" font-weight="bold" font-size="14.00">n = 50</text>
<text text-anchor="start" x="1775.5" y="-30.8" font-family="Arial" font-size="9.00"> </text>
<path fill="none" stroke="#333333" d="M1732,-27C1732,-27 1822,-27 1822,-27 1828,-27 1834,-33 1834,-39 1834,-39 1834,-79 1834,-79 1834,-85 1828,-91 1822,-91 1822,-91 1732,-91 1732,-91 1726,-91 1720,-85 1720,-79 1720,-79 1720,-39 1720,-39 1720,-33 1726,-27 1732,-27"/>
<text text-anchor="start" x="1775" y="-12.8" font-family="Arial" font-weight="bold" font-size="14.00"> </text>
</g>
<!-- 22&#45;&gt;24 -->
<g id="edge24" class="edge">
<title>22&#45;&gt;24</title>
<path fill="none" stroke="#888888" d="M1680.87,-153.67C1690.38,-144.39 1700.28,-134.75 1709.95,-125.33"/>
<polygon fill="#888888" stroke="#888888" points="1712.57,-127.66 1717.29,-118.18 1707.69,-122.65 1712.57,-127.66"/>
</g>
</g>
</svg>
