<?xml version="1.0" encoding="UTF-8" standalone="no"?>
<!DOCTYPE svg PUBLIC "-//W3C//DTD SVG 1.1//EN"
 "http://www.w3.org/Graphics/SVG/1.1/DTD/svg11.dtd">
<!-- Generated by graphviz version 2.50.0 (20211204.2007)
 -->
<!-- Pages: 1 -->
<svg width="393pt" height="434pt"
 viewBox="0.00 0.00 393.00 434.00" xmlns="http://www.w3.org/2000/svg" xmlns:xlink="http://www.w3.org/1999/xlink">
<g id="graph0" class="graph" transform="scale(1 1) rotate(0) translate(4 430)">
<polygon fill="white" stroke="transparent" points="-4,4 -4,-430 389,-430 389,4 -4,4"/>
<!-- 1 -->
<g id="node1" class="node">
<title>1</title>
<text text-anchor="start" x="151" y="-407.8" font-family="Arial" font-weight="bold" font-size="14.00"> </text>
<text text-anchor="start" x="85" y="-363.3" font-family="Arial" font-size="14.00"> &#160;&#160;</text>
<path fill="#ebebeb" stroke="transparent" d="M111,-335C111,-335 195,-335 195,-335 201,-335 207,-341 207,-347 207,-347 207,-387 207,-387 207,-393 201,-399 195,-399 195,-399 111,-399 111,-399 105,-399 99,-393 99,-387 99,-387 99,-347 99,-347 99,-341 105,-335 111,-335"/>
<text text-anchor="start" x="100" y="-396.4" font-family="Arial" font-size="2.00"> </text>
<text text-anchor="start" x="100" y="-390.4" font-family="Arial" font-size="7.00"> &#160;1</text>
<text text-anchor="start" x="114" y="-373.8" font-family="Arial" font-weight="bold" font-size="14.00">Mean: 26.51</text>
<text text-anchor="start" x="129.5" y="-356.8" font-family="Arial" font-weight="bold" font-size="14.00">n = 168</text>
<text text-anchor="start" x="151.5" y="-338.8" font-family="Arial" font-size="9.00"> </text>
<path fill="none" stroke="#333333" d="M111,-335C111,-335 195,-335 195,-335 201,-335 207,-341 207,-347 207,-347 207,-387 207,-387 207,-393 201,-399 195,-399 195,-399 111,-399 111,-399 105,-399 99,-393 99,-387 99,-387 99,-347 99,-347 99,-341 105,-335 111,-335"/>
<text text-anchor="start" x="209" y="-363.3" font-family="Arial" font-size="14.00"> &#160;&#160;</text>
<text text-anchor="start" x="99.5" y="-320.8" font-family="Arial" font-weight="bold" font-size="14.00">prev_24h_inflow</text>
</g>
<!-- 2 -->
<g id="node2" class="node">
<title>2</title>
<text text-anchor="start" x="44" y="-253.8" font-family="Arial" font-weight="bold" font-size="14.00"> &lt; 23.76</text>
<path fill="#f8766d" fill-opacity="0.874510" stroke="transparent" d="M24,-181C24,-181 114,-181 114,-181 120,-181 126,-187 126,-193 126,-193 126,-233 126,-233 126,-239 120,-245 114,-245 114,-245 24,-245 24,-245 18,-245 12,-239 12,-233 12,-233 12,-193 12,-193 12,-187 18,-181 24,-181"/>
<text text-anchor="start" x="13" y="-242.4" font-family="Arial" font-size="2.00"> </text>
<text text-anchor="start" x="13" y="-236.4" font-family="Arial" font-size="7.00"> &#160;2</text>
<text text-anchor="start" x="27" y="-219.8" font-family="Arial" font-weight="bold" font-size="14.00">Predict 22.27</text>
<text text-anchor="start" x="49" y="-202.8" font-family="Arial" font-weight="bold" font-size="14.00">n = 54</text>
<text text-anchor="start" x="67.5" y="-184.8" font-family="Arial" font-size="9.00"> </text>
<path fill="none" stroke="#333333" d="M24,-181C24,-181 114,-181 114,-181 120,-181 126,-187 126,-193 126,-193 126,-233 126,-233 126,-239 120,-245 114,-245 114,-245 24,-245 24,-245 18,-245 12,-239 12,-233 12,-233 12,-193 12,-193 12,-187 18,-181 24,-181"/>
<text text-anchor="start" x="67" y="-166.8" font-family="Arial" font-weight="bold" font-size="14.00"> </text>
</g>
<!-- 1&#45;&gt;2 -->
<g id="edge1" class="edge">
<title>1&#45;&gt;2</title>
<path fill="none" stroke="#888888" d="M120.76,-307.67C115.94,-298.94 110.94,-289.88 106.02,-280.99"/>
<polygon fill="#888888" stroke="#888888" points="109.05,-279.24 101.15,-272.18 102.92,-282.62 109.05,-279.24"/>
</g>
<!-- 3 -->
<g id="node3" class="node">
<title>3</title>
<text text-anchor="start" x="213.5" y="-253.8" font-family="Arial" font-weight="bold" font-size="14.00"> ≥ 23.76</text>
<text text-anchor="start" x="166" y="-209.3" font-family="Arial" font-size="14.00"> &#160;&#160;&#160;</text>
<path fill="#ebebeb" stroke="transparent" d="M196,-181C196,-181 280,-181 280,-181 286,-181 292,-187 292,-193 292,-193 292,-233 292,-233 292,-239 286,-245 280,-245 280,-245 196,-245 196,-245 190,-245 184,-239 184,-233 184,-233 184,-193 184,-193 184,-187 190,-181 196,-181"/>
<text text-anchor="start" x="185" y="-242.4" font-family="Arial" font-size="2.00"> </text>
<text text-anchor="start" x="185" y="-236.4" font-family="Arial" font-size="7.00"> &#160;3</text>
<text text-anchor="start" x="199" y="-219.8" font-family="Arial" font-weight="bold" font-size="14.00">Mean: 28.52</text>
<text text-anchor="start" x="215" y="-202.8" font-family="Arial" font-weight="bold" font-size="14.00">n = 114</text>
<text text-anchor="start" x="236.5" y="-184.8" font-family="Arial" font-size="9.00"> </text>
<path fill="none" stroke="#333333" d="M196,-181C196,-181 280,-181 280,-181 286,-181 292,-187 292,-193 292,-193 292,-233 292,-233 292,-239 286,-245 280,-245 280,-245 196,-245 196,-245 190,-245 184,-239 184,-233 184,-233 184,-193 184,-193 184,-187 190,-181 196,-181"/>
<text text-anchor="start" x="294" y="-209.3" font-family="Arial" font-size="14.00"> &#160;&#160;&#160;</text>
<text text-anchor="start" x="180.5" y="-166.8" font-family="Arial" font-weight="bold" font-size="14.00">prev_168h_inflow</text>
</g>
<!-- 1&#45;&gt;3 -->
<g id="edge2" class="edge">
<title>1&#45;&gt;3</title>
<path fill="none" stroke="#888888" d="M185.62,-307.67C190.5,-298.94 195.57,-289.88 200.54,-280.99"/>
<polygon fill="#888888" stroke="#888888" points="203.64,-282.61 205.47,-272.18 197.53,-279.2 203.64,-282.61"/>
</g>
<!-- 4 -->
<g id="node4" class="node">
<title>4</title>
<text text-anchor="start" x="135" y="-99.8" font-family="Arial" font-weight="bold" font-size="14.00"> &lt; 29.24</text>
<path fill="#f8766d" fill-opacity="0.654902" stroke="transparent" d="M115,-27C115,-27 205,-27 205,-27 211,-27 217,-33 217,-39 217,-39 217,-79 217,-79 217,-85 211,-91 205,-91 205,-91 115,-91 115,-91 109,-91 103,-85 103,-79 103,-79 103,-39 103,-39 103,-33 109,-27 115,-27"/>
<text text-anchor="start" x="104" y="-88.4" font-family="Arial" font-size="2.00"> </text>
<text text-anchor="start" x="104" y="-82.4" font-family="Arial" font-size="7.00"> &#160;4</text>
<text text-anchor="start" x="118" y="-65.8" font-family="Arial" font-weight="bold" font-size="14.00">Predict 26.14</text>
<text text-anchor="start" x="140" y="-48.8" font-family="Arial" font-weight="bold" font-size="14.00">n = 59</text>
<text text-anchor="start" x="158.5" y="-30.8" font-family="Arial" font-size="9.00"> </text>
<path fill="none" stroke="#333333" d="M115,-27C115,-27 205,-27 205,-27 211,-27 217,-33 217,-39 217,-39 217,-79 217,-79 217,-85 211,-91 205,-91 205,-91 115,-91 115,-91 109,-91 103,-85 103,-79 103,-79 103,-39 103,-39 103,-33 109,-27 115,-27"/>
<text text-anchor="start" x="158" y="-12.8" font-family="Arial" font-weight="bold" font-size="14.00"> </text>
</g>
<!-- 3&#45;&gt;4 -->
<g id="edge3" class="edge">
<title>3&#45;&gt;4</title>
<path fill="none" stroke="#888888" d="M208.07,-153.67C203.63,-145.03 199.04,-136.07 194.52,-127.27"/>
<polygon fill="#888888" stroke="#888888" points="197.53,-125.48 189.85,-118.18 191.31,-128.67 197.53,-125.48"/>
</g>
<!-- 5 -->
<g id="node5" class="node">
<title>5</title>
<text text-anchor="start" x="291.5" y="-99.8" font-family="Arial" font-weight="bold" font-size="14.00"> ≥ 29.24</text>
<path fill="#f8766d" fill-opacity="0.376471" stroke="transparent" d="M271,-27C271,-27 361,-27 361,-27 367,-27 373,-33 373,-39 373,-39 373,-79 373,-79 373,-85 367,-91 361,-91 361,-91 271,-91 271,-91 265,-91 259,-85 259,-79 259,-79 259,-39 259,-39 259,-33 265,-27 271,-27"/>
<text text-anchor="start" x="260" y="-88.4" font-family="Arial" font-size="2.00"> </text>
<text text-anchor="start" x="260" y="-82.4" font-family="Arial" font-size="7.00"> &#160;5</text>
<text text-anchor="start" x="274" y="-65.8" font-family="Arial" font-weight="bold" font-size="14.00">Predict 31.07</text>
<text text-anchor="start" x="296" y="-48.8" font-family="Arial" font-weight="bold" font-size="14.00">n = 55</text>
<text text-anchor="start" x="314.5" y="-30.8" font-family="Arial" font-size="9.00"> </text>
<path fill="none" stroke="#333333" d="M271,-27C271,-27 361,-27 361,-27 367,-27 373,-33 373,-39 373,-39 373,-79 373,-79 373,-85 367,-91 361,-91 361,-91 271,-91 271,-91 265,-91 259,-85 259,-79 259,-79 259,-39 259,-39 259,-33 265,-27 271,-27"/>
<text text-anchor="start" x="314" y="-12.8" font-family="Arial" font-weight="bold" font-size="14.00"> </text>
</g>
<!-- 3&#45;&gt;5 -->
<g id="edge4" class="edge">
<title>3&#45;&gt;5</title>
<path fill="none" stroke="#888888" d="M267.93,-153.67C272.37,-145.03 276.96,-136.07 281.48,-127.27"/>
<polygon fill="#888888" stroke="#888888" points="284.69,-128.67 286.15,-118.18 278.47,-125.48 284.69,-128.67"/>
</g>
</g>
</svg>
