<?xml version="1.0" encoding="UTF-8" standalone="no"?>
<!DOCTYPE svg PUBLIC "-//W3C//DTD SVG 1.1//EN"
 "http://www.w3.org/Graphics/SVG/1.1/DTD/svg11.dtd">
<!-- Generated by graphviz version 2.50.0 (20211204.2007)
 -->
<!-- Pages: 1 -->
<svg width="1222pt" height="588pt"
 viewBox="0.00 0.00 1222.00 588.00" xmlns="http://www.w3.org/2000/svg" xmlns:xlink="http://www.w3.org/1999/xlink">
<g id="graph0" class="graph" transform="scale(1 1) rotate(0) translate(4 584)">
<polygon fill="white" stroke="transparent" points="-4,4 -4,-584 1218,-584 1218,4 -4,4"/>
<!-- 1 -->
<g id="node1" class="node">
<title>1</title>
<text text-anchor="start" x="572" y="-561.8" font-family="Arial" font-weight="bold" font-size="14.00"> </text>
<text text-anchor="start" x="502" y="-517.3" font-family="Arial" font-size="14.00"> &#160;&#160;&#160;</text>
<path fill="#ebebeb" stroke="transparent" d="M532,-489C532,-489 616,-489 616,-489 622,-489 628,-495 628,-501 628,-501 628,-541 628,-541 628,-547 622,-553 616,-553 616,-553 532,-553 532,-553 526,-553 520,-547 520,-541 520,-541 520,-501 520,-501 520,-495 526,-489 532,-489"/>
<text text-anchor="start" x="521" y="-550.4" font-family="Arial" font-size="2.00"> </text>
<text text-anchor="start" x="521" y="-544.4" font-family="Arial" font-size="7.00"> &#160;1</text>
<text text-anchor="start" x="535" y="-527.8" font-family="Arial" font-weight="bold" font-size="14.00">Mean: 2.909</text>
<text text-anchor="start" x="550.5" y="-510.8" font-family="Arial" font-weight="bold" font-size="14.00">n = 168</text>
<text text-anchor="start" x="572.5" y="-492.8" font-family="Arial" font-size="9.00"> </text>
<path fill="none" stroke="#333333" d="M532,-489C532,-489 616,-489 616,-489 622,-489 628,-495 628,-501 628,-501 628,-541 628,-541 628,-547 622,-553 616,-553 616,-553 532,-553 532,-553 526,-553 520,-547 520,-541 520,-541 520,-501 520,-501 520,-495 526,-489 532,-489"/>
<text text-anchor="start" x="630" y="-517.3" font-family="Arial" font-size="14.00"> &#160;&#160;&#160;</text>
<text text-anchor="start" x="516.5" y="-474.8" font-family="Arial" font-weight="bold" font-size="14.00">prev_168h_inflow</text>
</g>
<!-- 2 -->
<g id="node2" class="node">
<title>2</title>
<text text-anchor="start" x="464" y="-407.8" font-family="Arial" font-weight="bold" font-size="14.00"> &lt; 2.615</text>
<text text-anchor="start" x="421" y="-363.3" font-family="Arial" font-size="14.00"> &#160;&#160;&#160;</text>
<path fill="#ebebeb" stroke="transparent" d="M451,-335C451,-335 527,-335 527,-335 533,-335 539,-341 539,-347 539,-347 539,-387 539,-387 539,-393 533,-399 527,-399 527,-399 451,-399 451,-399 445,-399 439,-393 439,-387 439,-387 439,-347 439,-347 439,-341 445,-335 451,-335"/>
<text text-anchor="start" x="440" y="-396.4" font-family="Arial" font-size="2.00"> </text>
<text text-anchor="start" x="440" y="-390.4" font-family="Arial" font-size="7.00"> &#160;2</text>
<text text-anchor="start" x="454" y="-373.8" font-family="Arial" font-weight="bold" font-size="14.00">Mean: 2.05</text>
<text text-anchor="start" x="469" y="-356.8" font-family="Arial" font-weight="bold" font-size="14.00">n = 65</text>
<text text-anchor="start" x="487.5" y="-338.8" font-family="Arial" font-size="9.00"> </text>
<path fill="none" stroke="#333333" d="M451,-335C451,-335 527,-335 527,-335 533,-335 539,-341 539,-347 539,-347 539,-387 539,-387 539,-393 533,-399 527,-399 527,-399 451,-399 451,-399 445,-399 439,-393 439,-387 439,-387 439,-347 439,-347 439,-341 445,-335 451,-335"/>
<text text-anchor="start" x="541" y="-363.3" font-family="Arial" font-size="14.00"> &#160;&#160;&#160;</text>
<text text-anchor="start" x="435.5" y="-320.8" font-family="Arial" font-weight="bold" font-size="14.00">prev_24h_inflow</text>
</g>
<!-- 1&#45;&gt;2 -->
<g id="edge1" class="edge">
<title>1&#45;&gt;2</title>
<path fill="none" stroke="#888888" d="M541.38,-461.67C536.5,-452.94 531.43,-443.88 526.46,-434.99"/>
<polygon fill="#888888" stroke="#888888" points="529.47,-433.2 521.53,-426.18 523.36,-436.61 529.47,-433.2"/>
</g>
<!-- 9 -->
<g id="node3" class="node">
<title>9</title>
<text text-anchor="start" x="700.5" y="-407.8" font-family="Arial" font-weight="bold" font-size="14.00"> ≥ 2.615</text>
<text text-anchor="start" x="661" y="-363.3" font-family="Arial" font-size="14.00"> &#160;</text>
<path fill="#ebebeb" stroke="transparent" d="M683,-335C683,-335 767,-335 767,-335 773,-335 779,-341 779,-347 779,-347 779,-387 779,-387 779,-393 773,-399 767,-399 767,-399 683,-399 683,-399 677,-399 671,-393 671,-387 671,-387 671,-347 671,-347 671,-341 677,-335 683,-335"/>
<text text-anchor="start" x="672" y="-396.4" font-family="Arial" font-size="2.00"> </text>
<text text-anchor="start" x="672" y="-390.4" font-family="Arial" font-size="7.00"> &#160;9</text>
<text text-anchor="start" x="686" y="-373.8" font-family="Arial" font-weight="bold" font-size="14.00">Mean: 3.451</text>
<text text-anchor="start" x="701.5" y="-356.8" font-family="Arial" font-weight="bold" font-size="14.00">n = 103</text>
<text text-anchor="start" x="723.5" y="-338.8" font-family="Arial" font-size="9.00"> </text>
<path fill="none" stroke="#333333" d="M683,-335C683,-335 767,-335 767,-335 773,-335 779,-341 779,-347 779,-347 779,-387 779,-387 779,-393 773,-399 767,-399 767,-399 683,-399 683,-399 677,-399 671,-393 671,-387 671,-387 671,-347 671,-347 671,-341 677,-335 683,-335"/>
<text text-anchor="start" x="781" y="-363.3" font-family="Arial" font-size="14.00"> &#160;</text>
<text text-anchor="start" x="675" y="-320.8" font-family="Arial" font-weight="bold" font-size="14.00">prev_1h_inflow</text>
</g>
<!-- 1&#45;&gt;9 -->
<g id="edge2" class="edge">
<title>1&#45;&gt;9</title>
<path fill="none" stroke="#888888" d="M631.95,-461.67C641.16,-452.39 650.74,-442.75 660.1,-433.33"/>
<polygon fill="#888888" stroke="#888888" points="662.64,-435.74 667.21,-426.18 657.68,-430.8 662.64,-435.74"/>
</g>
<!-- 3 -->
<g id="node4" class="node">
<title>3</title>
<text text-anchor="start" x="196" y="-253.8" font-family="Arial" font-weight="bold" font-size="14.00"> &lt; 1.905</text>
<path fill="#ebebeb" stroke="transparent" d="M179,-181C179,-181 263,-181 263,-181 269,-181 275,-187 275,-193 275,-193 275,-233 275,-233 275,-239 269,-245 263,-245 263,-245 179,-245 179,-245 173,-245 167,-239 167,-233 167,-233 167,-193 167,-193 167,-187 173,-181 179,-181"/>
<text text-anchor="start" x="168" y="-242.4" font-family="Arial" font-size="2.00"> </text>
<text text-anchor="start" x="168" y="-236.4" font-family="Arial" font-size="7.00"> &#160;3</text>
<text text-anchor="start" x="182" y="-219.8" font-family="Arial" font-weight="bold" font-size="14.00">Mean: 1.728</text>
<text text-anchor="start" x="201" y="-202.8" font-family="Arial" font-weight="bold" font-size="14.00">n = 33</text>
<text text-anchor="start" x="219.5" y="-184.8" font-family="Arial" font-size="9.00"> </text>
<path fill="none" stroke="#333333" d="M179,-181C179,-181 263,-181 263,-181 269,-181 275,-187 275,-193 275,-193 275,-233 275,-233 275,-239 269,-245 263,-245 263,-245 179,-245 179,-245 173,-245 167,-239 167,-233 167,-233 167,-193 167,-193 167,-187 173,-181 179,-181"/>
<text text-anchor="start" x="206.5" y="-166.8" font-family="Arial" font-weight="bold" font-size="14.00">time</text>
</g>
<!-- 2&#45;&gt;3 -->
<g id="edge3" class="edge">
<title>2&#45;&gt;3</title>
<path fill="none" stroke="#888888" d="M410.76,-321.63C374.59,-301.11 331.81,-276.85 296.04,-256.56"/>
<polygon fill="#888888" stroke="#888888" points="297.52,-253.38 287.1,-251.49 294.07,-259.47 297.52,-253.38"/>
</g>
<!-- 6 -->
<g id="node5" class="node">
<title>6</title>
<text text-anchor="start" x="464.5" y="-253.8" font-family="Arial" font-weight="bold" font-size="14.00"> ≥ 1.905</text>
<text text-anchor="start" x="421" y="-209.3" font-family="Arial" font-size="14.00"> &#160;&#160;</text>
<path fill="#ebebeb" stroke="transparent" d="M447,-181C447,-181 531,-181 531,-181 537,-181 543,-187 543,-193 543,-193 543,-233 543,-233 543,-239 537,-245 531,-245 531,-245 447,-245 447,-245 441,-245 435,-239 435,-233 435,-233 435,-193 435,-193 435,-187 441,-181 447,-181"/>
<text text-anchor="start" x="436" y="-242.4" font-family="Arial" font-size="2.00"> </text>
<text text-anchor="start" x="436" y="-236.4" font-family="Arial" font-size="7.00"> &#160;6</text>
<text text-anchor="start" x="450" y="-219.8" font-family="Arial" font-weight="bold" font-size="14.00">Mean: 2.382</text>
<text text-anchor="start" x="469" y="-202.8" font-family="Arial" font-weight="bold" font-size="14.00">n = 32</text>
<text text-anchor="start" x="487.5" y="-184.8" font-family="Arial" font-size="9.00"> </text>
<path fill="none" stroke="#333333" d="M447,-181C447,-181 531,-181 531,-181 537,-181 543,-187 543,-193 543,-193 543,-233 543,-233 543,-239 537,-245 531,-245 531,-245 447,-245 447,-245 441,-245 435,-239 435,-233 435,-233 435,-193 435,-193 435,-187 441,-181 447,-181"/>
<text text-anchor="start" x="545" y="-209.3" font-family="Arial" font-size="14.00"> &#160;&#160;</text>
<text text-anchor="start" x="435.5" y="-166.8" font-family="Arial" font-weight="bold" font-size="14.00">prev_24h_inflow</text>
</g>
<!-- 2&#45;&gt;6 -->
<g id="edge4" class="edge">
<title>2&#45;&gt;6</title>
<path fill="none" stroke="#888888" d="M489,-307.67C489,-299.39 489,-290.83 489,-282.38"/>
<polygon fill="#888888" stroke="#888888" points="492.5,-282.18 489,-272.18 485.5,-282.18 492.5,-282.18"/>
</g>
<!-- 10 -->
<g id="node10" class="node">
<title>10</title>
<text text-anchor="start" x="703.5" y="-253.8" font-family="Arial" font-weight="bold" font-size="14.00"> &lt; 3.32</text>
<path fill="#ebebeb" stroke="transparent" d="M683,-181C683,-181 767,-181 767,-181 773,-181 779,-187 779,-193 779,-193 779,-233 779,-233 779,-239 773,-245 767,-245 767,-245 683,-245 683,-245 677,-245 671,-239 671,-233 671,-233 671,-193 671,-193 671,-187 677,-181 683,-181"/>
<text text-anchor="start" x="672" y="-242.4" font-family="Arial" font-size="2.00"> </text>
<text text-anchor="start" x="672" y="-236.4" font-family="Arial" font-size="7.00"> &#160;10</text>
<text text-anchor="start" x="686" y="-219.8" font-family="Arial" font-weight="bold" font-size="14.00">Mean: 3.219</text>
<text text-anchor="start" x="705" y="-202.8" font-family="Arial" font-weight="bold" font-size="14.00">n = 45</text>
<text text-anchor="start" x="723.5" y="-184.8" font-family="Arial" font-size="9.00"> </text>
<path fill="none" stroke="#333333" d="M683,-181C683,-181 767,-181 767,-181 773,-181 779,-187 779,-193 779,-193 779,-233 779,-233 779,-239 773,-245 767,-245 767,-245 683,-245 683,-245 677,-245 671,-239 671,-233 671,-233 671,-193 671,-193 671,-187 677,-181 683,-181"/>
<text text-anchor="start" x="710.5" y="-166.8" font-family="Arial" font-weight="bold" font-size="14.00">time</text>
</g>
<!-- 9&#45;&gt;10 -->
<g id="edge9" class="edge">
<title>9&#45;&gt;10</title>
<path fill="none" stroke="#888888" d="M725,-307.67C725,-299.39 725,-290.83 725,-282.38"/>
<polygon fill="#888888" stroke="#888888" points="728.5,-282.18 725,-272.18 721.5,-282.18 728.5,-282.18"/>
</g>
<!-- 13 -->
<g id="node11" class="node">
<title>13</title>
<text text-anchor="start" x="968" y="-253.8" font-family="Arial" font-weight="bold" font-size="14.00"> ≥ 3.32</text>
<text text-anchor="start" x="925" y="-209.3" font-family="Arial" font-size="14.00"> &#160;&#160;</text>
<path fill="#ebebeb" stroke="transparent" d="M951,-181C951,-181 1027,-181 1027,-181 1033,-181 1039,-187 1039,-193 1039,-193 1039,-233 1039,-233 1039,-239 1033,-245 1027,-245 1027,-245 951,-245 951,-245 945,-245 939,-239 939,-233 939,-233 939,-193 939,-193 939,-187 945,-181 951,-181"/>
<text text-anchor="start" x="940" y="-242.4" font-family="Arial" font-size="2.00"> </text>
<text text-anchor="start" x="940" y="-236.4" font-family="Arial" font-size="7.00"> &#160;13</text>
<text text-anchor="start" x="954" y="-219.8" font-family="Arial" font-weight="bold" font-size="14.00">Mean: 3.63</text>
<text text-anchor="start" x="969" y="-202.8" font-family="Arial" font-weight="bold" font-size="14.00">n = 58</text>
<text text-anchor="start" x="987.5" y="-184.8" font-family="Arial" font-size="9.00"> </text>
<path fill="none" stroke="#333333" d="M951,-181C951,-181 1027,-181 1027,-181 1033,-181 1039,-187 1039,-193 1039,-193 1039,-233 1039,-233 1039,-239 1033,-245 1027,-245 1027,-245 951,-245 951,-245 945,-245 939,-239 939,-233 939,-233 939,-193 939,-193 939,-187 945,-181 951,-181"/>
<text text-anchor="start" x="1041" y="-209.3" font-family="Arial" font-size="14.00"> &#160;&#160;</text>
<text text-anchor="start" x="939" y="-166.8" font-family="Arial" font-weight="bold" font-size="14.00">prev_1h_inflow</text>
</g>
<!-- 9&#45;&gt;13 -->
<g id="edge10" class="edge">
<title>9&#45;&gt;13</title>
<path fill="none" stroke="#888888" d="M799.24,-323.26C832.42,-304.15 871.67,-281.56 905.83,-261.89"/>
<polygon fill="#888888" stroke="#888888" points="907.94,-264.71 914.86,-256.69 904.45,-258.64 907.94,-264.71"/>
</g>
<!-- 4 -->
<g id="node6" class="node">
<title>4</title>
<text text-anchor="start" x="51.5" y="-99.8" font-family="Arial" font-weight="bold" font-size="14.00"> &lt; 5.5</text>
<path fill="#f8766d" fill-opacity="0.874510" stroke="transparent" d="M24,-27C24,-27 114,-27 114,-27 120,-27 126,-33 126,-39 126,-39 126,-79 126,-79 126,-85 120,-91 114,-91 114,-91 24,-91 24,-91 18,-91 12,-85 12,-79 12,-79 12,-39 12,-39 12,-33 18,-27 24,-27"/>
<text text-anchor="start" x="13" y="-88.4" font-family="Arial" font-size="2.00"> </text>
<text text-anchor="start" x="13" y="-82.4" font-family="Arial" font-size="7.00"> &#160;4</text>
<text text-anchor="start" x="27" y="-65.8" font-family="Arial" font-weight="bold" font-size="14.00">Predict 1.686</text>
<text text-anchor="start" x="49" y="-48.8" font-family="Arial" font-weight="bold" font-size="14.00">n = 32</text>
<text text-anchor="start" x="67.5" y="-30.8" font-family="Arial" font-size="9.00"> </text>
<path fill="none" stroke="#333333" d="M24,-27C24,-27 114,-27 114,-27 120,-27 126,-33 126,-39 126,-39 126,-79 126,-79 126,-85 120,-91 114,-91 114,-91 24,-91 24,-91 18,-91 12,-85 12,-79 12,-79 12,-39 12,-39 12,-33 18,-27 24,-27"/>
<text text-anchor="start" x="67" y="-12.8" font-family="Arial" font-weight="bold" font-size="14.00"> </text>
</g>
<!-- 3&#45;&gt;4 -->
<g id="edge5" class="edge">
<title>3&#45;&gt;4</title>
<path fill="none" stroke="#888888" d="M162.67,-153.67C153.39,-144.39 143.75,-134.75 134.33,-125.33"/>
<polygon fill="#888888" stroke="#888888" points="136.72,-122.77 127.18,-118.18 131.77,-127.72 136.72,-122.77"/>
</g>
<!-- 5 -->
<g id="node7" class="node">
<title>5</title>
<text text-anchor="start" x="204" y="-99.8" font-family="Arial" font-weight="bold" font-size="14.00"> ≥ 5.5</text>
<path fill="#f8766d" fill-opacity="0.576471" stroke="transparent" d="M180,-27C180,-27 262,-27 262,-27 268,-27 274,-33 274,-39 274,-39 274,-79 274,-79 274,-85 268,-91 262,-91 262,-91 180,-91 180,-91 174,-91 168,-85 168,-79 168,-79 168,-39 168,-39 168,-33 174,-27 180,-27"/>
<text text-anchor="start" x="169" y="-88.4" font-family="Arial" font-size="2.00"> </text>
<text text-anchor="start" x="169" y="-82.4" font-family="Arial" font-size="7.00"> &#160;5</text>
<text text-anchor="start" x="183" y="-65.8" font-family="Arial" font-weight="bold" font-size="14.00">Predict 3.08</text>
<text text-anchor="start" x="205" y="-48.8" font-family="Arial" font-weight="bold" font-size="14.00">n = 1</text>
<text text-anchor="start" x="219.5" y="-30.8" font-family="Arial" font-size="9.00"> </text>
<path fill="none" stroke="#333333" d="M180,-27C180,-27 262,-27 262,-27 268,-27 274,-33 274,-39 274,-39 274,-79 274,-79 274,-85 268,-91 262,-91 262,-91 180,-91 180,-91 174,-91 168,-85 168,-79 168,-79 168,-39 168,-39 168,-33 174,-27 180,-27"/>
<text text-anchor="start" x="219" y="-12.8" font-family="Arial" font-weight="bold" font-size="14.00"> </text>
</g>
<!-- 3&#45;&gt;5 -->
<g id="edge6" class="edge">
<title>3&#45;&gt;5</title>
<path fill="none" stroke="#888888" d="M221,-153.67C221,-145.39 221,-136.83 221,-128.38"/>
<polygon fill="#888888" stroke="#888888" points="224.5,-128.18 221,-118.18 217.5,-128.18 224.5,-128.18"/>
</g>
<!-- 7 -->
<g id="node8" class="node">
<title>7</title>
<text text-anchor="start" x="348" y="-99.8" font-family="Arial" font-weight="bold" font-size="14.00"> &lt; 2.445</text>
<path fill="#f8766d" fill-opacity="0.788235" stroke="transparent" d="M328,-27C328,-27 418,-27 418,-27 424,-27 430,-33 430,-39 430,-39 430,-79 430,-79 430,-85 424,-91 418,-91 418,-91 328,-91 328,-91 322,-91 316,-85 316,-79 316,-79 316,-39 316,-39 316,-33 322,-27 328,-27"/>
<text text-anchor="start" x="317" y="-88.4" font-family="Arial" font-size="2.00"> </text>
<text text-anchor="start" x="317" y="-82.4" font-family="Arial" font-size="7.00"> &#160;7</text>
<text text-anchor="start" x="331" y="-65.8" font-family="Arial" font-weight="bold" font-size="14.00">Predict 2.083</text>
<text text-anchor="start" x="353" y="-48.8" font-family="Arial" font-weight="bold" font-size="14.00">n = 18</text>
<text text-anchor="start" x="371.5" y="-30.8" font-family="Arial" font-size="9.00"> </text>
<path fill="none" stroke="#333333" d="M328,-27C328,-27 418,-27 418,-27 424,-27 430,-33 430,-39 430,-39 430,-79 430,-79 430,-85 424,-91 418,-91 418,-91 328,-91 328,-91 322,-91 316,-85 316,-79 316,-79 316,-39 316,-39 316,-33 322,-27 328,-27"/>
<text text-anchor="start" x="371" y="-12.8" font-family="Arial" font-weight="bold" font-size="14.00"> </text>
</g>
<!-- 6&#45;&gt;7 -->
<g id="edge7" class="edge">
<title>6&#45;&gt;7</title>
<path fill="none" stroke="#888888" d="M444.48,-153.67C437.61,-144.67 430.48,-135.32 423.49,-126.16"/>
<polygon fill="#888888" stroke="#888888" points="426.25,-124 417.4,-118.18 420.68,-128.25 426.25,-124"/>
</g>
<!-- 8 -->
<g id="node9" class="node">
<title>8</title>
<text text-anchor="start" x="504.5" y="-99.8" font-family="Arial" font-weight="bold" font-size="14.00"> ≥ 2.445</text>
<path fill="#f8766d" fill-opacity="0.643137" stroke="transparent" d="M484,-27C484,-27 574,-27 574,-27 580,-27 586,-33 586,-39 586,-39 586,-79 586,-79 586,-85 580,-91 574,-91 574,-91 484,-91 484,-91 478,-91 472,-85 472,-79 472,-79 472,-39 472,-39 472,-33 478,-27 484,-27"/>
<text text-anchor="start" x="473" y="-88.4" font-family="Arial" font-size="2.00"> </text>
<text text-anchor="start" x="473" y="-82.4" font-family="Arial" font-size="7.00"> &#160;8</text>
<text text-anchor="start" x="487" y="-65.8" font-family="Arial" font-weight="bold" font-size="14.00">Predict 2.767</text>
<text text-anchor="start" x="509" y="-48.8" font-family="Arial" font-weight="bold" font-size="14.00">n = 14</text>
<text text-anchor="start" x="527.5" y="-30.8" font-family="Arial" font-size="9.00"> </text>
<path fill="none" stroke="#333333" d="M484,-27C484,-27 574,-27 574,-27 580,-27 586,-33 586,-39 586,-39 586,-79 586,-79 586,-85 580,-91 574,-91 574,-91 484,-91 484,-91 478,-91 472,-85 472,-79 472,-79 472,-39 472,-39 472,-33 478,-27 484,-27"/>
<text text-anchor="start" x="527" y="-12.8" font-family="Arial" font-weight="bold" font-size="14.00"> </text>
</g>
<!-- 6&#45;&gt;8 -->
<g id="edge8" class="edge">
<title>6&#45;&gt;8</title>
<path fill="none" stroke="#888888" d="M504.35,-153.67C506.55,-145.3 508.83,-136.64 511.08,-128.1"/>
<polygon fill="#888888" stroke="#888888" points="514.53,-128.74 513.69,-118.18 507.76,-126.96 514.53,-128.74"/>
</g>
<!-- 11 -->
<g id="node12" class="node">
<title>11</title>
<text text-anchor="start" x="673" y="-99.8" font-family="Arial" font-weight="bold" font-size="14.00"> &lt; 9</text>
<path fill="#f8766d" fill-opacity="0.376471" stroke="transparent" d="M640,-27C640,-27 730,-27 730,-27 736,-27 742,-33 742,-39 742,-39 742,-79 742,-79 742,-85 736,-91 730,-91 730,-91 640,-91 640,-91 634,-91 628,-85 628,-79 628,-79 628,-39 628,-39 628,-33 634,-27 640,-27"/>
<text text-anchor="start" x="629" y="-88.4" font-family="Arial" font-size="2.00"> </text>
<text text-anchor="start" x="629" y="-82.4" font-family="Arial" font-size="7.00"> &#160;11</text>
<text text-anchor="start" x="643" y="-65.8" font-family="Arial" font-weight="bold" font-size="14.00">Predict 4.027</text>
<text text-anchor="start" x="669" y="-48.8" font-family="Arial" font-weight="bold" font-size="14.00">n = 7</text>
<text text-anchor="start" x="683.5" y="-30.8" font-family="Arial" font-size="9.00"> </text>
<path fill="none" stroke="#333333" d="M640,-27C640,-27 730,-27 730,-27 736,-27 742,-33 742,-39 742,-39 742,-79 742,-79 742,-85 736,-91 730,-91 730,-91 640,-91 640,-91 634,-91 628,-85 628,-79 628,-79 628,-39 628,-39 628,-33 634,-27 640,-27"/>
<text text-anchor="start" x="683" y="-12.8" font-family="Arial" font-weight="bold" font-size="14.00"> </text>
</g>
<!-- 10&#45;&gt;11 -->
<g id="edge11" class="edge">
<title>10&#45;&gt;11</title>
<path fill="none" stroke="#888888" d="M709.65,-153.67C707.45,-145.3 705.17,-136.64 702.92,-128.1"/>
<polygon fill="#888888" stroke="#888888" points="706.24,-126.96 700.31,-118.18 699.47,-128.74 706.24,-126.96"/>
</g>
<!-- 12 -->
<g id="node13" class="node">
<title>12</title>
<text text-anchor="start" x="825.5" y="-99.8" font-family="Arial" font-weight="bold" font-size="14.00"> ≥ 9</text>
<path fill="#f8766d" fill-opacity="0.580392" stroke="transparent" d="M796,-27C796,-27 878,-27 878,-27 884,-27 890,-33 890,-39 890,-39 890,-79 890,-79 890,-85 884,-91 878,-91 878,-91 796,-91 796,-91 790,-91 784,-85 784,-79 784,-79 784,-39 784,-39 784,-33 790,-27 796,-27"/>
<text text-anchor="start" x="785" y="-88.4" font-family="Arial" font-size="2.00"> </text>
<text text-anchor="start" x="785" y="-82.4" font-family="Arial" font-size="7.00"> &#160;12</text>
<text text-anchor="start" x="799" y="-65.8" font-family="Arial" font-weight="bold" font-size="14.00">Predict 3.07</text>
<text text-anchor="start" x="817" y="-48.8" font-family="Arial" font-weight="bold" font-size="14.00">n = 38</text>
<text text-anchor="start" x="835.5" y="-30.8" font-family="Arial" font-size="9.00"> </text>
<path fill="none" stroke="#333333" d="M796,-27C796,-27 878,-27 878,-27 884,-27 890,-33 890,-39 890,-39 890,-79 890,-79 890,-85 884,-91 878,-91 878,-91 796,-91 796,-91 790,-91 784,-85 784,-79 784,-79 784,-39 784,-39 784,-33 790,-27 796,-27"/>
<text text-anchor="start" x="835" y="-12.8" font-family="Arial" font-weight="bold" font-size="14.00"> </text>
</g>
<!-- 10&#45;&gt;12 -->
<g id="edge12" class="edge">
<title>10&#45;&gt;12</title>
<path fill="none" stroke="#888888" d="M767.98,-153.67C774.55,-144.76 781.36,-135.51 788.05,-126.44"/>
<polygon fill="#888888" stroke="#888888" points="791.02,-128.3 794.13,-118.18 785.38,-124.15 791.02,-128.3"/>
</g>
<!-- 14 -->
<g id="node14" class="node">
<title>14</title>
<text text-anchor="start" x="967.5" y="-99.8" font-family="Arial" font-weight="bold" font-size="14.00"> &lt; 3.88</text>
<path fill="#f8766d" fill-opacity="0.498039" stroke="transparent" d="M944,-27C944,-27 1034,-27 1034,-27 1040,-27 1046,-33 1046,-39 1046,-39 1046,-79 1046,-79 1046,-85 1040,-91 1034,-91 1034,-91 944,-91 944,-91 938,-91 932,-85 932,-79 932,-79 932,-39 932,-39 932,-33 938,-27 944,-27"/>
<text text-anchor="start" x="933" y="-88.4" font-family="Arial" font-size="2.00"> </text>
<text text-anchor="start" x="933" y="-82.4" font-family="Arial" font-size="7.00"> &#160;14</text>
<text text-anchor="start" x="947" y="-65.8" font-family="Arial" font-weight="bold" font-size="14.00">Predict 3.453</text>
<text text-anchor="start" x="969" y="-48.8" font-family="Arial" font-weight="bold" font-size="14.00">n = 40</text>
<text text-anchor="start" x="987.5" y="-30.8" font-family="Arial" font-size="9.00"> </text>
<path fill="none" stroke="#333333" d="M944,-27C944,-27 1034,-27 1034,-27 1040,-27 1046,-33 1046,-39 1046,-39 1046,-79 1046,-79 1046,-85 1040,-91 1034,-91 1034,-91 944,-91 944,-91 938,-91 932,-85 932,-79 932,-79 932,-39 932,-39 932,-33 938,-27 944,-27"/>
<text text-anchor="start" x="987" y="-12.8" font-family="Arial" font-weight="bold" font-size="14.00"> </text>
</g>
<!-- 13&#45;&gt;14 -->
<g id="edge13" class="edge">
<title>13&#45;&gt;14</title>
<path fill="none" stroke="#888888" d="M989,-153.67C989,-145.39 989,-136.83 989,-128.38"/>
<polygon fill="#888888" stroke="#888888" points="992.5,-128.18 989,-118.18 985.5,-128.18 992.5,-128.18"/>
</g>
<!-- 15 -->
<g id="node15" class="node">
<title>15</title>
<text text-anchor="start" x="1124" y="-99.8" font-family="Arial" font-weight="bold" font-size="14.00"> ≥ 3.88</text>
<path fill="#f8766d" fill-opacity="0.376471" stroke="transparent" d="M1100,-27C1100,-27 1190,-27 1190,-27 1196,-27 1202,-33 1202,-39 1202,-39 1202,-79 1202,-79 1202,-85 1196,-91 1190,-91 1190,-91 1100,-91 1100,-91 1094,-91 1088,-85 1088,-79 1088,-79 1088,-39 1088,-39 1088,-33 1094,-27 1100,-27"/>
<text text-anchor="start" x="1089" y="-88.4" font-family="Arial" font-size="2.00"> </text>
<text text-anchor="start" x="1089" y="-82.4" font-family="Arial" font-size="7.00"> &#160;15</text>
<text text-anchor="start" x="1103" y="-65.8" font-family="Arial" font-weight="bold" font-size="14.00">Predict 4.025</text>
<text text-anchor="start" x="1125" y="-48.8" font-family="Arial" font-weight="bold" font-size="14.00">n = 18</text>
<text text-anchor="start" x="1143.5" y="-30.8" font-family="Arial" font-size="9.00"> </text>
<path fill="none" stroke="#333333" d="M1100,-27C1100,-27 1190,-27 1190,-27 1196,-27 1202,-33 1202,-39 1202,-39 1202,-79 1202,-79 1202,-85 1196,-91 1190,-91 1190,-91 1100,-91 1100,-91 1094,-91 1088,-85 1088,-79 1088,-79 1088,-39 1088,-39 1088,-33 1094,-27 1100,-27"/>
<text text-anchor="start" x="1143" y="-12.8" font-family="Arial" font-weight="bold" font-size="14.00"> </text>
</g>
<!-- 13&#45;&gt;15 -->
<g id="edge14" class="edge">
<title>13&#45;&gt;15</title>
<path fill="none" stroke="#888888" d="M1048.87,-153.67C1058.38,-144.39 1068.28,-134.75 1077.95,-125.33"/>
<polygon fill="#888888" stroke="#888888" points="1080.57,-127.66 1085.29,-118.18 1075.69,-122.65 1080.57,-127.66"/>
</g>
</g>
</svg>
