<?xml version="1.0" encoding="UTF-8" standalone="no"?>
<!DOCTYPE svg PUBLIC "-//W3C//DTD SVG 1.1//EN"
 "http://www.w3.org/Graphics/SVG/1.1/DTD/svg11.dtd">
<!-- Generated by graphviz version 2.50.0 (20211204.2007)
 -->
<!-- Pages: 1 -->
<svg width="1238pt" height="588pt"
 viewBox="0.00 0.00 1238.00 588.00" xmlns="http://www.w3.org/2000/svg" xmlns:xlink="http://www.w3.org/1999/xlink">
<g id="graph0" class="graph" transform="scale(1 1) rotate(0) translate(4 584)">
<polygon fill="white" stroke="transparent" points="-4,4 -4,-584 1234,-584 1234,4 -4,4"/>
<!-- 1 -->
<g id="node1" class="node">
<title>1</title>
<text text-anchor="start" x="610" y="-561.8" font-family="Arial" font-weight="bold" font-size="14.00"> </text>
<text text-anchor="start" x="540" y="-517.3" font-family="Arial" font-size="14.00"> &#160;&#160;&#160;</text>
<path fill="#ebebeb" stroke="transparent" d="M570,-489C570,-489 654,-489 654,-489 660,-489 666,-495 666,-501 666,-501 666,-541 666,-541 666,-547 660,-553 654,-553 654,-553 570,-553 570,-553 564,-553 558,-547 558,-541 558,-541 558,-501 558,-501 558,-495 564,-489 570,-489"/>
<text text-anchor="start" x="559" y="-550.4" font-family="Arial" font-size="2.00"> </text>
<text text-anchor="start" x="559" y="-544.4" font-family="Arial" font-size="7.00"> &#160;1</text>
<text text-anchor="start" x="573" y="-527.8" font-family="Arial" font-weight="bold" font-size="14.00">Mean: 2.909</text>
<text text-anchor="start" x="588.5" y="-510.8" font-family="Arial" font-weight="bold" font-size="14.00">n = 168</text>
<text text-anchor="start" x="610.5" y="-492.8" font-family="Arial" font-size="9.00"> </text>
<path fill="none" stroke="#333333" d="M570,-489C570,-489 654,-489 654,-489 660,-489 666,-495 666,-501 666,-501 666,-541 666,-541 666,-547 660,-553 654,-553 654,-553 570,-553 570,-553 564,-553 558,-547 558,-541 558,-541 558,-501 558,-501 558,-495 564,-489 570,-489"/>
<text text-anchor="start" x="668" y="-517.3" font-family="Arial" font-size="14.00"> &#160;&#160;&#160;</text>
<text text-anchor="start" x="554.5" y="-474.8" font-family="Arial" font-weight="bold" font-size="14.00">prev_168h_inflow</text>
</g>
<!-- 2 -->
<g id="node2" class="node">
<title>2</title>
<text text-anchor="start" x="434" y="-407.8" font-family="Arial" font-weight="bold" font-size="14.00"> &lt; 2.615</text>
<text text-anchor="start" x="391" y="-363.3" font-family="Arial" font-size="14.00"> &#160;&#160;&#160;</text>
<path fill="#ebebeb" stroke="transparent" d="M421,-335C421,-335 497,-335 497,-335 503,-335 509,-341 509,-347 509,-347 509,-387 509,-387 509,-393 503,-399 497,-399 497,-399 421,-399 421,-399 415,-399 409,-393 409,-387 409,-387 409,-347 409,-347 409,-341 415,-335 421,-335"/>
<text text-anchor="start" x="410" y="-396.4" font-family="Arial" font-size="2.00"> </text>
<text text-anchor="start" x="410" y="-390.4" font-family="Arial" font-size="7.00"> &#160;2</text>
<text text-anchor="start" x="424" y="-373.8" font-family="Arial" font-weight="bold" font-size="14.00">Mean: 2.05</text>
<text text-anchor="start" x="439" y="-356.8" font-family="Arial" font-weight="bold" font-size="14.00">n = 65</text>
<text text-anchor="start" x="457.5" y="-338.8" font-family="Arial" font-size="9.00"> </text>
<path fill="none" stroke="#333333" d="M421,-335C421,-335 497,-335 497,-335 503,-335 509,-341 509,-347 509,-347 509,-387 509,-387 509,-393 503,-399 497,-399 497,-399 421,-399 421,-399 415,-399 409,-393 409,-387 409,-387 409,-347 409,-347 409,-341 415,-335 421,-335"/>
<text text-anchor="start" x="511" y="-363.3" font-family="Arial" font-size="14.00"> &#160;&#160;&#160;</text>
<text text-anchor="start" x="401.5" y="-320.8" font-family="Arial" font-weight="bold" font-size="14.00">prev_168h_inflow</text>
</g>
<!-- 1&#45;&gt;2 -->
<g id="edge1" class="edge">
<title>1&#45;&gt;2</title>
<path fill="none" stroke="#888888" d="M553.28,-461.67C543.95,-452.39 534.24,-442.75 524.76,-433.33"/>
<polygon fill="#888888" stroke="#888888" points="527.12,-430.74 517.56,-426.18 522.19,-435.71 527.12,-430.74"/>
</g>
<!-- 9 -->
<g id="node3" class="node">
<title>9</title>
<text text-anchor="start" x="740.5" y="-407.8" font-family="Arial" font-weight="bold" font-size="14.00"> ≥ 2.615</text>
<path fill="#ebebeb" stroke="transparent" d="M723,-335C723,-335 807,-335 807,-335 813,-335 819,-341 819,-347 819,-347 819,-387 819,-387 819,-393 813,-399 807,-399 807,-399 723,-399 723,-399 717,-399 711,-393 711,-387 711,-387 711,-347 711,-347 711,-341 717,-335 723,-335"/>
<text text-anchor="start" x="712" y="-396.4" font-family="Arial" font-size="2.00"> </text>
<text text-anchor="start" x="712" y="-390.4" font-family="Arial" font-size="7.00"> &#160;9</text>
<text text-anchor="start" x="726" y="-373.8" font-family="Arial" font-weight="bold" font-size="14.00">Mean: 3.451</text>
<text text-anchor="start" x="741.5" y="-356.8" font-family="Arial" font-weight="bold" font-size="14.00">n = 103</text>
<text text-anchor="start" x="763.5" y="-338.8" font-family="Arial" font-size="9.00"> </text>
<path fill="none" stroke="#333333" d="M723,-335C723,-335 807,-335 807,-335 813,-335 819,-341 819,-347 819,-347 819,-387 819,-387 819,-393 813,-399 807,-399 807,-399 723,-399 723,-399 717,-399 711,-393 711,-387 711,-387 711,-347 711,-347 711,-341 717,-335 723,-335"/>
<text text-anchor="start" x="750.5" y="-320.8" font-family="Arial" font-weight="bold" font-size="14.00">time</text>
</g>
<!-- 1&#45;&gt;9 -->
<g id="edge2" class="edge">
<title>1&#45;&gt;9</title>
<path fill="none" stroke="#888888" d="M670.72,-461.67C680.05,-452.39 689.76,-442.75 699.24,-433.33"/>
<polygon fill="#888888" stroke="#888888" points="701.81,-435.71 706.44,-426.18 696.88,-430.74 701.81,-435.71"/>
</g>
<!-- 3 -->
<g id="node4" class="node">
<title>3</title>
<text text-anchor="start" x="203.5" y="-253.8" font-family="Arial" font-weight="bold" font-size="14.00"> &lt; 2.19</text>
<text text-anchor="start" x="153" y="-209.3" font-family="Arial" font-size="14.00"> &#160;&#160;&#160;</text>
<path fill="#ebebeb" stroke="transparent" d="M183,-181C183,-181 267,-181 267,-181 273,-181 279,-187 279,-193 279,-193 279,-233 279,-233 279,-239 273,-245 267,-245 267,-245 183,-245 183,-245 177,-245 171,-239 171,-233 171,-233 171,-193 171,-193 171,-187 177,-181 183,-181"/>
<text text-anchor="start" x="172" y="-242.4" font-family="Arial" font-size="2.00"> </text>
<text text-anchor="start" x="172" y="-236.4" font-family="Arial" font-size="7.00"> &#160;3</text>
<text text-anchor="start" x="186" y="-219.8" font-family="Arial" font-weight="bold" font-size="14.00">Mean: 1.796</text>
<text text-anchor="start" x="205" y="-202.8" font-family="Arial" font-weight="bold" font-size="14.00">n = 45</text>
<text text-anchor="start" x="223.5" y="-184.8" font-family="Arial" font-size="9.00"> </text>
<path fill="none" stroke="#333333" d="M183,-181C183,-181 267,-181 267,-181 273,-181 279,-187 279,-193 279,-193 279,-233 279,-233 279,-239 273,-245 267,-245 267,-245 183,-245 183,-245 177,-245 171,-239 171,-233 171,-233 171,-193 171,-193 171,-187 177,-181 183,-181"/>
<text text-anchor="start" x="281" y="-209.3" font-family="Arial" font-size="14.00"> &#160;&#160;&#160;</text>
<text text-anchor="start" x="167.5" y="-166.8" font-family="Arial" font-weight="bold" font-size="14.00">prev_168h_inflow</text>
</g>
<!-- 2&#45;&gt;3 -->
<g id="edge3" class="edge">
<title>2&#45;&gt;3</title>
<path fill="none" stroke="#888888" d="M380.76,-315.17C359.88,-301.61 337.14,-286.85 315.66,-272.89"/>
<polygon fill="#888888" stroke="#888888" points="317.47,-269.89 307.18,-267.38 313.66,-275.76 317.47,-269.89"/>
</g>
<!-- 6 -->
<g id="node5" class="node">
<title>6</title>
<text text-anchor="start" x="438" y="-253.8" font-family="Arial" font-weight="bold" font-size="14.00"> ≥ 2.19</text>
<path fill="#ebebeb" stroke="transparent" d="M421,-181C421,-181 497,-181 497,-181 503,-181 509,-187 509,-193 509,-193 509,-233 509,-233 509,-239 503,-245 497,-245 497,-245 421,-245 421,-245 415,-245 409,-239 409,-233 409,-233 409,-193 409,-193 409,-187 415,-181 421,-181"/>
<text text-anchor="start" x="410" y="-242.4" font-family="Arial" font-size="2.00"> </text>
<text text-anchor="start" x="410" y="-236.4" font-family="Arial" font-size="7.00"> &#160;6</text>
<text text-anchor="start" x="424" y="-219.8" font-family="Arial" font-weight="bold" font-size="14.00">Mean: 2.62</text>
<text text-anchor="start" x="439" y="-202.8" font-family="Arial" font-weight="bold" font-size="14.00">n = 20</text>
<text text-anchor="start" x="457.5" y="-184.8" font-family="Arial" font-size="9.00"> </text>
<path fill="none" stroke="#333333" d="M421,-181C421,-181 497,-181 497,-181 503,-181 509,-187 509,-193 509,-193 509,-233 509,-233 509,-239 503,-245 497,-245 497,-245 421,-245 421,-245 415,-245 409,-239 409,-233 409,-233 409,-193 409,-193 409,-187 415,-181 421,-181"/>
<text text-anchor="start" x="444.5" y="-166.8" font-family="Arial" font-weight="bold" font-size="14.00">time</text>
</g>
<!-- 2&#45;&gt;6 -->
<g id="edge4" class="edge">
<title>2&#45;&gt;6</title>
<path fill="none" stroke="#888888" d="M459,-307.67C459,-299.39 459,-290.83 459,-282.38"/>
<polygon fill="#888888" stroke="#888888" points="462.5,-282.18 459,-272.18 455.5,-282.18 462.5,-282.18"/>
</g>
<!-- 10 -->
<g id="node10" class="node">
<title>10</title>
<text text-anchor="start" x="744.5" y="-253.8" font-family="Arial" font-weight="bold" font-size="14.00"> &lt; 11.5</text>
<text text-anchor="start" x="709" y="-209.3" font-family="Arial" font-size="14.00"> &#160;</text>
<path fill="#ebebeb" stroke="transparent" d="M731,-181C731,-181 800,-181 800,-181 806,-181 812,-187 812,-193 812,-193 812,-233 812,-233 812,-239 806,-245 800,-245 800,-245 731,-245 731,-245 725,-245 719,-239 719,-233 719,-233 719,-193 719,-193 719,-187 725,-181 731,-181"/>
<text text-anchor="start" x="720" y="-242.4" font-family="Arial" font-size="2.00"> </text>
<text text-anchor="start" x="720" y="-236.4" font-family="Arial" font-size="7.00"> &#160;10</text>
<text text-anchor="start" x="734" y="-219.8" font-family="Arial" font-weight="bold" font-size="14.00">Mean: 3.8</text>
<text text-anchor="start" x="745.5" y="-202.8" font-family="Arial" font-weight="bold" font-size="14.00">n = 33</text>
<text text-anchor="start" x="764" y="-184.8" font-family="Arial" font-size="9.00"> </text>
<path fill="none" stroke="#333333" d="M731,-181C731,-181 800,-181 800,-181 806,-181 812,-187 812,-193 812,-193 812,-233 812,-233 812,-239 806,-245 800,-245 800,-245 731,-245 731,-245 725,-245 719,-239 719,-233 719,-233 719,-193 719,-193 719,-187 725,-181 731,-181"/>
<text text-anchor="start" x="814" y="-209.3" font-family="Arial" font-size="14.00"> &#160;</text>
<text text-anchor="start" x="723" y="-166.8" font-family="Arial" font-weight="bold" font-size="14.00">day_of_week</text>
</g>
<!-- 9&#45;&gt;10 -->
<g id="edge9" class="edge">
<title>9&#45;&gt;10</title>
<path fill="none" stroke="#888888" d="M765,-307.67C765,-299.39 765,-290.83 765,-282.38"/>
<polygon fill="#888888" stroke="#888888" points="768.5,-282.18 765,-272.18 761.5,-282.18 768.5,-282.18"/>
</g>
<!-- 13 -->
<g id="node11" class="node">
<title>13</title>
<text text-anchor="start" x="984.5" y="-253.8" font-family="Arial" font-weight="bold" font-size="14.00"> ≥ 11.5</text>
<text text-anchor="start" x="933" y="-209.3" font-family="Arial" font-size="14.00"> &#160;&#160;&#160;</text>
<path fill="#ebebeb" stroke="transparent" d="M963,-181C963,-181 1047,-181 1047,-181 1053,-181 1059,-187 1059,-193 1059,-193 1059,-233 1059,-233 1059,-239 1053,-245 1047,-245 1047,-245 963,-245 963,-245 957,-245 951,-239 951,-233 951,-233 951,-193 951,-193 951,-187 957,-181 963,-181"/>
<text text-anchor="start" x="952" y="-242.4" font-family="Arial" font-size="2.00"> </text>
<text text-anchor="start" x="952" y="-236.4" font-family="Arial" font-size="7.00"> &#160;13</text>
<text text-anchor="start" x="966" y="-219.8" font-family="Arial" font-weight="bold" font-size="14.00">Mean: 3.286</text>
<text text-anchor="start" x="985" y="-202.8" font-family="Arial" font-weight="bold" font-size="14.00">n = 70</text>
<text text-anchor="start" x="1003.5" y="-184.8" font-family="Arial" font-size="9.00"> </text>
<path fill="none" stroke="#333333" d="M963,-181C963,-181 1047,-181 1047,-181 1053,-181 1059,-187 1059,-193 1059,-193 1059,-233 1059,-233 1059,-239 1053,-245 1047,-245 1047,-245 963,-245 963,-245 957,-245 951,-239 951,-233 951,-233 951,-193 951,-193 951,-187 957,-181 963,-181"/>
<text text-anchor="start" x="1061" y="-209.3" font-family="Arial" font-size="14.00"> &#160;&#160;&#160;</text>
<text text-anchor="start" x="947.5" y="-166.8" font-family="Arial" font-weight="bold" font-size="14.00">prev_168h_inflow</text>
</g>
<!-- 9&#45;&gt;13 -->
<g id="edge10" class="edge">
<title>9&#45;&gt;13</title>
<path fill="none" stroke="#888888" d="M831.22,-324.06C856.87,-307.82 886.65,-288.95 914.24,-271.48"/>
<polygon fill="#888888" stroke="#888888" points="916.15,-274.41 922.73,-266.11 912.4,-268.5 916.15,-274.41"/>
</g>
<!-- 4 -->
<g id="node6" class="node">
<title>4</title>
<text text-anchor="start" x="47.5" y="-99.8" font-family="Arial" font-weight="bold" font-size="14.00"> &lt; 1.88</text>
<path fill="#f8766d" fill-opacity="0.874510" stroke="transparent" d="M24,-27C24,-27 114,-27 114,-27 120,-27 126,-33 126,-39 126,-39 126,-79 126,-79 126,-85 120,-91 114,-91 114,-91 24,-91 24,-91 18,-91 12,-85 12,-79 12,-79 12,-39 12,-39 12,-33 18,-27 24,-27"/>
<text text-anchor="start" x="13" y="-88.4" font-family="Arial" font-size="2.00"> </text>
<text text-anchor="start" x="13" y="-82.4" font-family="Arial" font-size="7.00"> &#160;4</text>
<text text-anchor="start" x="27" y="-65.8" font-family="Arial" font-weight="bold" font-size="14.00">Predict 1.703</text>
<text text-anchor="start" x="49" y="-48.8" font-family="Arial" font-weight="bold" font-size="14.00">n = 35</text>
<text text-anchor="start" x="67.5" y="-30.8" font-family="Arial" font-size="9.00"> </text>
<path fill="none" stroke="#333333" d="M24,-27C24,-27 114,-27 114,-27 120,-27 126,-33 126,-39 126,-39 126,-79 126,-79 126,-85 120,-91 114,-91 114,-91 24,-91 24,-91 18,-91 12,-85 12,-79 12,-79 12,-39 12,-39 12,-33 18,-27 24,-27"/>
<text text-anchor="start" x="67" y="-12.8" font-family="Arial" font-weight="bold" font-size="14.00"> </text>
</g>
<!-- 3&#45;&gt;4 -->
<g id="edge5" class="edge">
<title>3&#45;&gt;4</title>
<path fill="none" stroke="#888888" d="M165.13,-153.67C155.62,-144.39 145.72,-134.75 136.05,-125.33"/>
<polygon fill="#888888" stroke="#888888" points="138.31,-122.65 128.71,-118.18 133.43,-127.66 138.31,-122.65"/>
</g>
<!-- 5 -->
<g id="node7" class="node">
<title>5</title>
<text text-anchor="start" x="204" y="-99.8" font-family="Arial" font-weight="bold" font-size="14.00"> ≥ 1.88</text>
<path fill="#f8766d" fill-opacity="0.796078" stroke="transparent" d="M180,-27C180,-27 270,-27 270,-27 276,-27 282,-33 282,-39 282,-39 282,-79 282,-79 282,-85 276,-91 270,-91 270,-91 180,-91 180,-91 174,-91 168,-85 168,-79 168,-79 168,-39 168,-39 168,-33 174,-27 180,-27"/>
<text text-anchor="start" x="169" y="-88.4" font-family="Arial" font-size="2.00"> </text>
<text text-anchor="start" x="169" y="-82.4" font-family="Arial" font-size="7.00"> &#160;5</text>
<text text-anchor="start" x="183" y="-65.8" font-family="Arial" font-weight="bold" font-size="14.00">Predict 2.123</text>
<text text-anchor="start" x="205" y="-48.8" font-family="Arial" font-weight="bold" font-size="14.00">n = 10</text>
<text text-anchor="start" x="223.5" y="-30.8" font-family="Arial" font-size="9.00"> </text>
<path fill="none" stroke="#333333" d="M180,-27C180,-27 270,-27 270,-27 276,-27 282,-33 282,-39 282,-39 282,-79 282,-79 282,-85 276,-91 270,-91 270,-91 180,-91 180,-91 174,-91 168,-85 168,-79 168,-79 168,-39 168,-39 168,-33 174,-27 180,-27"/>
<text text-anchor="start" x="223" y="-12.8" font-family="Arial" font-weight="bold" font-size="14.00"> </text>
</g>
<!-- 3&#45;&gt;5 -->
<g id="edge6" class="edge">
<title>3&#45;&gt;5</title>
<path fill="none" stroke="#888888" d="M225,-153.67C225,-145.39 225,-136.83 225,-128.38"/>
<polygon fill="#888888" stroke="#888888" points="228.5,-128.18 225,-118.18 221.5,-128.18 228.5,-128.18"/>
</g>
<!-- 7 -->
<g id="node8" class="node">
<title>7</title>
<text text-anchor="start" x="359.5" y="-99.8" font-family="Arial" font-weight="bold" font-size="14.00"> &lt; 22.5</text>
<path fill="#f8766d" fill-opacity="0.662745" stroke="transparent" d="M336,-27C336,-27 426,-27 426,-27 432,-27 438,-33 438,-39 438,-39 438,-79 438,-79 438,-85 432,-91 426,-91 426,-91 336,-91 336,-91 330,-91 324,-85 324,-79 324,-79 324,-39 324,-39 324,-33 330,-27 336,-27"/>
<text text-anchor="start" x="325" y="-88.4" font-family="Arial" font-size="2.00"> </text>
<text text-anchor="start" x="325" y="-82.4" font-family="Arial" font-size="7.00"> &#160;7</text>
<text text-anchor="start" x="339" y="-65.8" font-family="Arial" font-weight="bold" font-size="14.00">Predict 2.818</text>
<text text-anchor="start" x="361" y="-48.8" font-family="Arial" font-weight="bold" font-size="14.00">n = 13</text>
<text text-anchor="start" x="379.5" y="-30.8" font-family="Arial" font-size="9.00"> </text>
<path fill="none" stroke="#333333" d="M336,-27C336,-27 426,-27 426,-27 432,-27 438,-33 438,-39 438,-39 438,-79 438,-79 438,-85 432,-91 426,-91 426,-91 336,-91 336,-91 330,-91 324,-85 324,-79 324,-79 324,-39 324,-39 324,-33 330,-27 336,-27"/>
<text text-anchor="start" x="379" y="-12.8" font-family="Arial" font-weight="bold" font-size="14.00"> </text>
</g>
<!-- 6&#45;&gt;7 -->
<g id="edge7" class="edge">
<title>6&#45;&gt;7</title>
<path fill="none" stroke="#888888" d="M429.07,-153.67C424.63,-145.03 420.04,-136.07 415.52,-127.27"/>
<polygon fill="#888888" stroke="#888888" points="418.53,-125.48 410.85,-118.18 412.31,-128.67 418.53,-125.48"/>
</g>
<!-- 8 -->
<g id="node9" class="node">
<title>8</title>
<text text-anchor="start" x="516" y="-99.8" font-family="Arial" font-weight="bold" font-size="14.00"> ≥ 22.5</text>
<path fill="#f8766d" fill-opacity="0.768627" stroke="transparent" d="M492,-27C492,-27 582,-27 582,-27 588,-27 594,-33 594,-39 594,-39 594,-79 594,-79 594,-85 588,-91 582,-91 582,-91 492,-91 492,-91 486,-91 480,-85 480,-79 480,-79 480,-39 480,-39 480,-33 486,-27 492,-27"/>
<text text-anchor="start" x="481" y="-88.4" font-family="Arial" font-size="2.00"> </text>
<text text-anchor="start" x="481" y="-82.4" font-family="Arial" font-size="7.00"> &#160;8</text>
<text text-anchor="start" x="495" y="-65.8" font-family="Arial" font-weight="bold" font-size="14.00">Predict 2.253</text>
<text text-anchor="start" x="521" y="-48.8" font-family="Arial" font-weight="bold" font-size="14.00">n = 7</text>
<text text-anchor="start" x="535.5" y="-30.8" font-family="Arial" font-size="9.00"> </text>
<path fill="none" stroke="#333333" d="M492,-27C492,-27 582,-27 582,-27 588,-27 594,-33 594,-39 594,-39 594,-79 594,-79 594,-85 588,-91 582,-91 582,-91 492,-91 492,-91 486,-91 480,-85 480,-79 480,-79 480,-39 480,-39 480,-33 486,-27 492,-27"/>
<text text-anchor="start" x="535" y="-12.8" font-family="Arial" font-weight="bold" font-size="14.00"> </text>
</g>
<!-- 6&#45;&gt;8 -->
<g id="edge8" class="edge">
<title>6&#45;&gt;8</title>
<path fill="none" stroke="#888888" d="M488.93,-153.67C493.37,-145.03 497.96,-136.07 502.48,-127.27"/>
<polygon fill="#888888" stroke="#888888" points="505.69,-128.67 507.15,-118.18 499.47,-125.48 505.69,-128.67"/>
</g>
<!-- 11 -->
<g id="node12" class="node">
<title>11</title>
<text text-anchor="start" x="675.5" y="-99.8" font-family="Arial" font-weight="bold" font-size="14.00"> &lt; 5.5</text>
<path fill="#f8766d" fill-opacity="0.505882" stroke="transparent" d="M648,-27C648,-27 738,-27 738,-27 744,-27 750,-33 750,-39 750,-39 750,-79 750,-79 750,-85 744,-91 738,-91 738,-91 648,-91 648,-91 642,-91 636,-85 636,-79 636,-79 636,-39 636,-39 636,-33 642,-27 648,-27"/>
<text text-anchor="start" x="637" y="-88.4" font-family="Arial" font-size="2.00"> </text>
<text text-anchor="start" x="637" y="-82.4" font-family="Arial" font-size="7.00"> &#160;11</text>
<text text-anchor="start" x="651" y="-65.8" font-family="Arial" font-weight="bold" font-size="14.00">Predict 3.636</text>
<text text-anchor="start" x="673" y="-48.8" font-family="Arial" font-weight="bold" font-size="14.00">n = 25</text>
<text text-anchor="start" x="691.5" y="-30.8" font-family="Arial" font-size="9.00"> </text>
<path fill="none" stroke="#333333" d="M648,-27C648,-27 738,-27 738,-27 744,-27 750,-33 750,-39 750,-39 750,-79 750,-79 750,-85 744,-91 738,-91 738,-91 648,-91 648,-91 642,-91 636,-85 636,-79 636,-79 636,-39 636,-39 636,-33 642,-27 648,-27"/>
<text text-anchor="start" x="691" y="-12.8" font-family="Arial" font-weight="bold" font-size="14.00"> </text>
</g>
<!-- 10&#45;&gt;11 -->
<g id="edge11" class="edge">
<title>10&#45;&gt;11</title>
<path fill="none" stroke="#888888" d="M737.37,-153.67C733.28,-145.03 729.03,-136.07 724.86,-127.27"/>
<polygon fill="#888888" stroke="#888888" points="728,-125.72 720.56,-118.18 721.68,-128.71 728,-125.72"/>
</g>
<!-- 12 -->
<g id="node13" class="node">
<title>12</title>
<text text-anchor="start" x="832" y="-99.8" font-family="Arial" font-weight="bold" font-size="14.00"> ≥ 5.5</text>
<path fill="#f8766d" fill-opacity="0.376471" stroke="transparent" d="M804,-27C804,-27 894,-27 894,-27 900,-27 906,-33 906,-39 906,-39 906,-79 906,-79 906,-85 900,-91 894,-91 894,-91 804,-91 804,-91 798,-91 792,-85 792,-79 792,-79 792,-39 792,-39 792,-33 798,-27 804,-27"/>
<text text-anchor="start" x="793" y="-88.4" font-family="Arial" font-size="2.00"> </text>
<text text-anchor="start" x="793" y="-82.4" font-family="Arial" font-size="7.00"> &#160;12</text>
<text text-anchor="start" x="807" y="-65.8" font-family="Arial" font-weight="bold" font-size="14.00">Predict 4.314</text>
<text text-anchor="start" x="833" y="-48.8" font-family="Arial" font-weight="bold" font-size="14.00">n = 8</text>
<text text-anchor="start" x="847.5" y="-30.8" font-family="Arial" font-size="9.00"> </text>
<path fill="none" stroke="#333333" d="M804,-27C804,-27 894,-27 894,-27 900,-27 906,-33 906,-39 906,-39 906,-79 906,-79 906,-85 900,-91 894,-91 894,-91 804,-91 804,-91 798,-91 792,-85 792,-79 792,-79 792,-39 792,-39 792,-33 798,-27 804,-27"/>
<text text-anchor="start" x="847" y="-12.8" font-family="Arial" font-weight="bold" font-size="14.00"> </text>
</g>
<!-- 10&#45;&gt;12 -->
<g id="edge12" class="edge">
<title>10&#45;&gt;12</title>
<path fill="none" stroke="#888888" d="M797.24,-153.67C802.06,-144.94 807.06,-135.88 811.98,-126.99"/>
<polygon fill="#888888" stroke="#888888" points="815.08,-128.62 816.85,-118.18 808.95,-125.24 815.08,-128.62"/>
</g>
<!-- 14 -->
<g id="node14" class="node">
<title>14</title>
<text text-anchor="start" x="980" y="-99.8" font-family="Arial" font-weight="bold" font-size="14.00"> &lt; 3.235</text>
<path fill="#f8766d" fill-opacity="0.615686" stroke="transparent" d="M960,-27C960,-27 1050,-27 1050,-27 1056,-27 1062,-33 1062,-39 1062,-39 1062,-79 1062,-79 1062,-85 1056,-91 1050,-91 1050,-91 960,-91 960,-91 954,-91 948,-85 948,-79 948,-79 948,-39 948,-39 948,-33 954,-27 960,-27"/>
<text text-anchor="start" x="949" y="-88.4" font-family="Arial" font-size="2.00"> </text>
<text text-anchor="start" x="949" y="-82.4" font-family="Arial" font-size="7.00"> &#160;14</text>
<text text-anchor="start" x="963" y="-65.8" font-family="Arial" font-weight="bold" font-size="14.00">Predict 3.059</text>
<text text-anchor="start" x="985" y="-48.8" font-family="Arial" font-weight="bold" font-size="14.00">n = 28</text>
<text text-anchor="start" x="1003.5" y="-30.8" font-family="Arial" font-size="9.00"> </text>
<path fill="none" stroke="#333333" d="M960,-27C960,-27 1050,-27 1050,-27 1056,-27 1062,-33 1062,-39 1062,-39 1062,-79 1062,-79 1062,-85 1056,-91 1050,-91 1050,-91 960,-91 960,-91 954,-91 948,-85 948,-79 948,-79 948,-39 948,-39 948,-33 954,-27 960,-27"/>
<text text-anchor="start" x="1003" y="-12.8" font-family="Arial" font-weight="bold" font-size="14.00"> </text>
</g>
<!-- 13&#45;&gt;14 -->
<g id="edge13" class="edge">
<title>13&#45;&gt;14</title>
<path fill="none" stroke="#888888" d="M1005,-153.67C1005,-145.39 1005,-136.83 1005,-128.38"/>
<polygon fill="#888888" stroke="#888888" points="1008.5,-128.18 1005,-118.18 1001.5,-128.18 1008.5,-128.18"/>
</g>
<!-- 15 -->
<g id="node15" class="node">
<title>15</title>
<text text-anchor="start" x="1136.5" y="-99.8" font-family="Arial" font-weight="bold" font-size="14.00"> ≥ 3.235</text>
<path fill="#f8766d" fill-opacity="0.541176" stroke="transparent" d="M1116,-27C1116,-27 1206,-27 1206,-27 1212,-27 1218,-33 1218,-39 1218,-39 1218,-79 1218,-79 1218,-85 1212,-91 1206,-91 1206,-91 1116,-91 1116,-91 1110,-91 1104,-85 1104,-79 1104,-79 1104,-39 1104,-39 1104,-33 1110,-27 1116,-27"/>
<text text-anchor="start" x="1105" y="-88.4" font-family="Arial" font-size="2.00"> </text>
<text text-anchor="start" x="1105" y="-82.4" font-family="Arial" font-size="7.00"> &#160;15</text>
<text text-anchor="start" x="1119" y="-65.8" font-family="Arial" font-weight="bold" font-size="14.00">Predict 3.437</text>
<text text-anchor="start" x="1141" y="-48.8" font-family="Arial" font-weight="bold" font-size="14.00">n = 42</text>
<text text-anchor="start" x="1159.5" y="-30.8" font-family="Arial" font-size="9.00"> </text>
<path fill="none" stroke="#333333" d="M1116,-27C1116,-27 1206,-27 1206,-27 1212,-27 1218,-33 1218,-39 1218,-39 1218,-79 1218,-79 1218,-85 1212,-91 1206,-91 1206,-91 1116,-91 1116,-91 1110,-91 1104,-85 1104,-79 1104,-79 1104,-39 1104,-39 1104,-33 1110,-27 1116,-27"/>
<text text-anchor="start" x="1159" y="-12.8" font-family="Arial" font-weight="bold" font-size="14.00"> </text>
</g>
<!-- 13&#45;&gt;15 -->
<g id="edge14" class="edge">
<title>13&#45;&gt;15</title>
<path fill="none" stroke="#888888" d="M1064.87,-153.67C1074.38,-144.39 1084.28,-134.75 1093.95,-125.33"/>
<polygon fill="#888888" stroke="#888888" points="1096.57,-127.66 1101.29,-118.18 1091.69,-122.65 1096.57,-127.66"/>
</g>
</g>
</svg>
