<?xml version="1.0" encoding="UTF-8" standalone="no"?>
<!DOCTYPE svg PUBLIC "-//W3C//DTD SVG 1.1//EN"
 "http://www.w3.org/Graphics/SVG/1.1/DTD/svg11.dtd">
<!-- Generated by graphviz version 2.50.0 (20211204.2007)
 -->
<!-- Pages: 1 -->
<svg width="776pt" height="742pt"
 viewBox="0.00 0.00 776.00 742.00" xmlns="http://www.w3.org/2000/svg" xmlns:xlink="http://www.w3.org/1999/xlink">
<g id="graph0" class="graph" transform="scale(1 1) rotate(0) translate(4 738)">
<polygon fill="white" stroke="transparent" points="-4,4 -4,-738 772,-738 772,4 -4,4"/>
<!-- 1 -->
<g id="node1" class="node">
<title>1</title>
<text text-anchor="start" x="299" y="-715.8" font-family="Arial" font-weight="bold" font-size="14.00"> </text>
<text text-anchor="start" x="229" y="-671.3" font-family="Arial" font-size="14.00"> &#160;&#160;&#160;</text>
<path fill="#ebebeb" stroke="transparent" d="M259,-643C259,-643 343,-643 343,-643 349,-643 355,-649 355,-655 355,-655 355,-695 355,-695 355,-701 349,-707 343,-707 343,-707 259,-707 259,-707 253,-707 247,-701 247,-695 247,-695 247,-655 247,-655 247,-649 253,-643 259,-643"/>
<text text-anchor="start" x="248" y="-704.4" font-family="Arial" font-size="2.00"> </text>
<text text-anchor="start" x="248" y="-698.4" font-family="Arial" font-size="7.00"> &#160;1</text>
<text text-anchor="start" x="262" y="-681.8" font-family="Arial" font-weight="bold" font-size="14.00">Mean: 2.909</text>
<text text-anchor="start" x="277.5" y="-664.8" font-family="Arial" font-weight="bold" font-size="14.00">n = 168</text>
<text text-anchor="start" x="299.5" y="-646.8" font-family="Arial" font-size="9.00"> </text>
<path fill="none" stroke="#333333" d="M259,-643C259,-643 343,-643 343,-643 349,-643 355,-649 355,-655 355,-655 355,-695 355,-695 355,-701 349,-707 343,-707 343,-707 259,-707 259,-707 253,-707 247,-701 247,-695 247,-695 247,-655 247,-655 247,-649 253,-643 259,-643"/>
<text text-anchor="start" x="357" y="-671.3" font-family="Arial" font-size="14.00"> &#160;&#160;&#160;</text>
<text text-anchor="start" x="243.5" y="-628.8" font-family="Arial" font-weight="bold" font-size="14.00">prev_168h_inflow</text>
</g>
<!-- 2 -->
<g id="node2" class="node">
<title>2</title>
<text text-anchor="start" x="200" y="-561.8" font-family="Arial" font-weight="bold" font-size="14.00"> &lt; 2.605</text>
<path fill="#ebebeb" stroke="transparent" d="M183,-489C183,-489 267,-489 267,-489 273,-489 279,-495 279,-501 279,-501 279,-541 279,-541 279,-547 273,-553 267,-553 267,-553 183,-553 183,-553 177,-553 171,-547 171,-541 171,-541 171,-501 171,-501 171,-495 177,-489 183,-489"/>
<text text-anchor="start" x="172" y="-550.4" font-family="Arial" font-size="2.00"> </text>
<text text-anchor="start" x="172" y="-544.4" font-family="Arial" font-size="7.00"> &#160;2</text>
<text text-anchor="start" x="186" y="-527.8" font-family="Arial" font-weight="bold" font-size="14.00">Mean: 2.037</text>
<text text-anchor="start" x="205" y="-510.8" font-family="Arial" font-weight="bold" font-size="14.00">n = 64</text>
<text text-anchor="start" x="223.5" y="-492.8" font-family="Arial" font-size="9.00"> </text>
<path fill="none" stroke="#333333" d="M183,-489C183,-489 267,-489 267,-489 273,-489 279,-495 279,-501 279,-501 279,-541 279,-541 279,-547 273,-553 267,-553 267,-553 183,-553 183,-553 177,-553 171,-547 171,-541 171,-541 171,-501 171,-501 171,-495 177,-489 183,-489"/>
<text text-anchor="start" x="210.5" y="-474.8" font-family="Arial" font-weight="bold" font-size="14.00">time</text>
</g>
<!-- 1&#45;&gt;2 -->
<g id="edge1" class="edge">
<title>1&#45;&gt;2</title>
<path fill="none" stroke="#888888" d="M271.83,-615.67C267.52,-607.03 263.04,-598.07 258.64,-589.27"/>
<polygon fill="#888888" stroke="#888888" points="261.69,-587.56 254.09,-580.18 255.43,-590.69 261.69,-587.56"/>
</g>
<!-- 5 -->
<g id="node3" class="node">
<title>5</title>
<text text-anchor="start" x="353.5" y="-561.8" font-family="Arial" font-weight="bold" font-size="14.00"> ≥ 2.605</text>
<path fill="#ebebeb" stroke="transparent" d="M336,-489C336,-489 420,-489 420,-489 426,-489 432,-495 432,-501 432,-501 432,-541 432,-541 432,-547 426,-553 420,-553 420,-553 336,-553 336,-553 330,-553 324,-547 324,-541 324,-541 324,-501 324,-501 324,-495 330,-489 336,-489"/>
<text text-anchor="start" x="325" y="-550.4" font-family="Arial" font-size="2.00"> </text>
<text text-anchor="start" x="325" y="-544.4" font-family="Arial" font-size="7.00"> &#160;5</text>
<text text-anchor="start" x="339" y="-527.8" font-family="Arial" font-weight="bold" font-size="14.00">Mean: 3.445</text>
<text text-anchor="start" x="354.5" y="-510.8" font-family="Arial" font-weight="bold" font-size="14.00">n = 104</text>
<text text-anchor="start" x="376.5" y="-492.8" font-family="Arial" font-size="9.00"> </text>
<path fill="none" stroke="#333333" d="M336,-489C336,-489 420,-489 420,-489 426,-489 432,-495 432,-501 432,-501 432,-541 432,-541 432,-547 426,-553 420,-553 420,-553 336,-553 336,-553 330,-553 324,-547 324,-541 324,-541 324,-501 324,-501 324,-495 330,-489 336,-489"/>
<text text-anchor="start" x="335.5" y="-474.8" font-family="Arial" font-weight="bold" font-size="14.00">day_of_week</text>
</g>
<!-- 1&#45;&gt;5 -->
<g id="edge2" class="edge">
<title>1&#45;&gt;5</title>
<path fill="none" stroke="#888888" d="M330.55,-615.67C334.93,-607.03 339.46,-598.07 343.92,-589.27"/>
<polygon fill="#888888" stroke="#888888" points="347.13,-590.68 348.53,-580.18 340.89,-587.52 347.13,-590.68"/>
</g>
<!-- 3 -->
<g id="node4" class="node">
<title>3</title>
<text text-anchor="start" x="51.5" y="-407.8" font-family="Arial" font-weight="bold" font-size="14.00"> &lt; 5.5</text>
<path fill="#f8766d" fill-opacity="0.874510" stroke="transparent" d="M24,-335C24,-335 114,-335 114,-335 120,-335 126,-341 126,-347 126,-347 126,-387 126,-387 126,-393 120,-399 114,-399 114,-399 24,-399 24,-399 18,-399 12,-393 12,-387 12,-387 12,-347 12,-347 12,-341 18,-335 24,-335"/>
<text text-anchor="start" x="13" y="-396.4" font-family="Arial" font-size="2.00"> </text>
<text text-anchor="start" x="13" y="-390.4" font-family="Arial" font-size="7.00"> &#160;3</text>
<text text-anchor="start" x="27" y="-373.8" font-family="Arial" font-weight="bold" font-size="14.00">Predict 1.754</text>
<text text-anchor="start" x="49" y="-356.8" font-family="Arial" font-weight="bold" font-size="14.00">n = 42</text>
<text text-anchor="start" x="67.5" y="-338.8" font-family="Arial" font-size="9.00"> </text>
<path fill="none" stroke="#333333" d="M24,-335C24,-335 114,-335 114,-335 120,-335 126,-341 126,-347 126,-347 126,-387 126,-387 126,-393 120,-399 114,-399 114,-399 24,-399 24,-399 18,-399 12,-393 12,-387 12,-387 12,-347 12,-347 12,-341 18,-335 24,-335"/>
<text text-anchor="start" x="67" y="-320.8" font-family="Arial" font-weight="bold" font-size="14.00"> </text>
</g>
<!-- 2&#45;&gt;3 -->
<g id="edge3" class="edge">
<title>2&#45;&gt;3</title>
<path fill="none" stroke="#888888" d="M165.13,-461.67C155.62,-452.39 145.72,-442.75 136.05,-433.33"/>
<polygon fill="#888888" stroke="#888888" points="138.31,-430.65 128.71,-426.18 133.43,-435.66 138.31,-430.65"/>
</g>
<!-- 4 -->
<g id="node5" class="node">
<title>4</title>
<text text-anchor="start" x="208" y="-407.8" font-family="Arial" font-weight="bold" font-size="14.00"> ≥ 5.5</text>
<path fill="#f8766d" fill-opacity="0.705882" stroke="transparent" d="M180,-335C180,-335 270,-335 270,-335 276,-335 282,-341 282,-347 282,-347 282,-387 282,-387 282,-393 276,-399 270,-399 270,-399 180,-399 180,-399 174,-399 168,-393 168,-387 168,-387 168,-347 168,-347 168,-341 174,-335 180,-335"/>
<text text-anchor="start" x="169" y="-396.4" font-family="Arial" font-size="2.00"> </text>
<text text-anchor="start" x="169" y="-390.4" font-family="Arial" font-size="7.00"> &#160;4</text>
<text text-anchor="start" x="183" y="-373.8" font-family="Arial" font-weight="bold" font-size="14.00">Predict 2.575</text>
<text text-anchor="start" x="205" y="-356.8" font-family="Arial" font-weight="bold" font-size="14.00">n = 22</text>
<text text-anchor="start" x="223.5" y="-338.8" font-family="Arial" font-size="9.00"> </text>
<path fill="none" stroke="#333333" d="M180,-335C180,-335 270,-335 270,-335 276,-335 282,-341 282,-347 282,-347 282,-387 282,-387 282,-393 276,-399 270,-399 270,-399 180,-399 180,-399 174,-399 168,-393 168,-387 168,-387 168,-347 168,-347 168,-341 174,-335 180,-335"/>
<text text-anchor="start" x="223" y="-320.8" font-family="Arial" font-weight="bold" font-size="14.00"> </text>
</g>
<!-- 2&#45;&gt;4 -->
<g id="edge4" class="edge">
<title>2&#45;&gt;4</title>
<path fill="none" stroke="#888888" d="M225,-461.67C225,-453.39 225,-444.83 225,-436.38"/>
<polygon fill="#888888" stroke="#888888" points="228.5,-436.18 225,-426.18 221.5,-436.18 228.5,-436.18"/>
</g>
<!-- 6 -->
<g id="node6" class="node">
<title>6</title>
<text text-anchor="start" x="360.5" y="-407.8" font-family="Arial" font-weight="bold" font-size="14.00"> &lt; 5.5</text>
<path fill="#ebebeb" stroke="transparent" d="M336,-335C336,-335 420,-335 420,-335 426,-335 432,-341 432,-347 432,-347 432,-387 432,-387 432,-393 426,-399 420,-399 420,-399 336,-399 336,-399 330,-399 324,-393 324,-387 324,-387 324,-347 324,-347 324,-341 330,-335 336,-335"/>
<text text-anchor="start" x="325" y="-396.4" font-family="Arial" font-size="2.00"> </text>
<text text-anchor="start" x="325" y="-390.4" font-family="Arial" font-size="7.00"> &#160;6</text>
<text text-anchor="start" x="339" y="-373.8" font-family="Arial" font-weight="bold" font-size="14.00">Mean: 3.349</text>
<text text-anchor="start" x="358" y="-356.8" font-family="Arial" font-weight="bold" font-size="14.00">n = 76</text>
<text text-anchor="start" x="376.5" y="-338.8" font-family="Arial" font-size="9.00"> </text>
<path fill="none" stroke="#333333" d="M336,-335C336,-335 420,-335 420,-335 426,-335 432,-341 432,-347 432,-347 432,-387 432,-387 432,-393 426,-399 420,-399 420,-399 336,-399 336,-399 330,-399 324,-393 324,-387 324,-387 324,-347 324,-347 324,-341 330,-335 336,-335"/>
<text text-anchor="start" x="363.5" y="-320.8" font-family="Arial" font-weight="bold" font-size="14.00">time</text>
</g>
<!-- 5&#45;&gt;6 -->
<g id="edge5" class="edge">
<title>5&#45;&gt;6</title>
<path fill="none" stroke="#888888" d="M378,-461.67C378,-453.39 378,-444.83 378,-436.38"/>
<polygon fill="#888888" stroke="#888888" points="381.5,-436.18 378,-426.18 374.5,-436.18 381.5,-436.18"/>
</g>
<!-- 11 -->
<g id="node7" class="node">
<title>11</title>
<text text-anchor="start" x="526" y="-407.8" font-family="Arial" font-weight="bold" font-size="14.00"> ≥ 5.5</text>
<path fill="#ebebeb" stroke="transparent" d="M501,-335C501,-335 585,-335 585,-335 591,-335 597,-341 597,-347 597,-347 597,-387 597,-387 597,-393 591,-399 585,-399 585,-399 501,-399 501,-399 495,-399 489,-393 489,-387 489,-387 489,-347 489,-347 489,-341 495,-335 501,-335"/>
<text text-anchor="start" x="490" y="-396.4" font-family="Arial" font-size="2.00"> </text>
<text text-anchor="start" x="490" y="-390.4" font-family="Arial" font-size="7.00"> &#160;11</text>
<text text-anchor="start" x="504" y="-373.8" font-family="Arial" font-weight="bold" font-size="14.00">Mean: 3.707</text>
<text text-anchor="start" x="523" y="-356.8" font-family="Arial" font-weight="bold" font-size="14.00">n = 28</text>
<text text-anchor="start" x="541.5" y="-338.8" font-family="Arial" font-size="9.00"> </text>
<path fill="none" stroke="#333333" d="M501,-335C501,-335 585,-335 585,-335 591,-335 597,-341 597,-347 597,-347 597,-387 597,-387 597,-393 591,-399 585,-399 585,-399 501,-399 501,-399 495,-399 489,-393 489,-387 489,-387 489,-347 489,-347 489,-341 495,-335 501,-335"/>
<text text-anchor="start" x="528.5" y="-320.8" font-family="Arial" font-weight="bold" font-size="14.00">time</text>
</g>
<!-- 5&#45;&gt;11 -->
<g id="edge6" class="edge">
<title>5&#45;&gt;11</title>
<path fill="none" stroke="#888888" d="M441.32,-461.67C451.49,-452.3 462.06,-442.56 472.39,-433.05"/>
<polygon fill="#888888" stroke="#888888" points="474.86,-435.53 479.85,-426.18 470.12,-430.38 474.86,-435.53"/>
</g>
<!-- 7 -->
<g id="node8" class="node">
<title>7</title>
<text text-anchor="start" x="195.5" y="-253.8" font-family="Arial" font-weight="bold" font-size="14.00"> &lt; 9.5</text>
<path fill="#f8766d" fill-opacity="0.454902" stroke="transparent" d="M168,-181C168,-181 258,-181 258,-181 264,-181 270,-187 270,-193 270,-193 270,-233 270,-233 270,-239 264,-245 258,-245 258,-245 168,-245 168,-245 162,-245 156,-239 156,-233 156,-233 156,-193 156,-193 156,-187 162,-181 168,-181"/>
<text text-anchor="start" x="157" y="-242.4" font-family="Arial" font-size="2.00"> </text>
<text text-anchor="start" x="157" y="-236.4" font-family="Arial" font-size="7.00"> &#160;7</text>
<text text-anchor="start" x="171" y="-219.8" font-family="Arial" font-weight="bold" font-size="14.00">Predict 3.794</text>
<text text-anchor="start" x="193" y="-202.8" font-family="Arial" font-weight="bold" font-size="14.00">n = 15</text>
<text text-anchor="start" x="211.5" y="-184.8" font-family="Arial" font-size="9.00"> </text>
<path fill="none" stroke="#333333" d="M168,-181C168,-181 258,-181 258,-181 264,-181 270,-187 270,-193 270,-193 270,-233 270,-233 270,-239 264,-245 258,-245 258,-245 168,-245 168,-245 162,-245 156,-239 156,-233 156,-233 156,-193 156,-193 156,-187 162,-181 168,-181"/>
<text text-anchor="start" x="211" y="-166.8" font-family="Arial" font-weight="bold" font-size="14.00"> </text>
</g>
<!-- 6&#45;&gt;7 -->
<g id="edge7" class="edge">
<title>6&#45;&gt;7</title>
<path fill="none" stroke="#888888" d="M314.68,-307.67C304.51,-298.3 293.94,-288.56 283.61,-279.05"/>
<polygon fill="#888888" stroke="#888888" points="285.88,-276.38 276.15,-272.18 281.14,-281.53 285.88,-276.38"/>
</g>
<!-- 8 -->
<g id="node9" class="node">
<title>8</title>
<text text-anchor="start" x="361" y="-253.8" font-family="Arial" font-weight="bold" font-size="14.00"> ≥ 9.5</text>
<text text-anchor="start" x="310" y="-209.3" font-family="Arial" font-size="14.00"> &#160;&#160;&#160;</text>
<path fill="#ebebeb" stroke="transparent" d="M340,-181C340,-181 416,-181 416,-181 422,-181 428,-187 428,-193 428,-193 428,-233 428,-233 428,-239 422,-245 416,-245 416,-245 340,-245 340,-245 334,-245 328,-239 328,-233 328,-233 328,-193 328,-193 328,-187 334,-181 340,-181"/>
<text text-anchor="start" x="329" y="-242.4" font-family="Arial" font-size="2.00"> </text>
<text text-anchor="start" x="329" y="-236.4" font-family="Arial" font-size="7.00"> &#160;8</text>
<text text-anchor="start" x="343" y="-219.8" font-family="Arial" font-weight="bold" font-size="14.00">Mean: 3.24</text>
<text text-anchor="start" x="358" y="-202.8" font-family="Arial" font-weight="bold" font-size="14.00">n = 61</text>
<text text-anchor="start" x="376.5" y="-184.8" font-family="Arial" font-size="9.00"> </text>
<path fill="none" stroke="#333333" d="M340,-181C340,-181 416,-181 416,-181 422,-181 428,-187 428,-193 428,-193 428,-233 428,-233 428,-239 422,-245 416,-245 416,-245 340,-245 340,-245 334,-245 328,-239 328,-233 328,-233 328,-193 328,-193 328,-187 334,-181 340,-181"/>
<text text-anchor="start" x="430" y="-209.3" font-family="Arial" font-size="14.00"> &#160;&#160;&#160;</text>
<text text-anchor="start" x="324.5" y="-166.8" font-family="Arial" font-weight="bold" font-size="14.00">prev_24h_inflow</text>
</g>
<!-- 6&#45;&gt;8 -->
<g id="edge8" class="edge">
<title>6&#45;&gt;8</title>
<path fill="none" stroke="#888888" d="M378,-307.67C378,-299.39 378,-290.83 378,-282.38"/>
<polygon fill="#888888" stroke="#888888" points="381.5,-282.18 378,-272.18 374.5,-282.18 381.5,-282.18"/>
</g>
<!-- 12 -->
<g id="node12" class="node">
<title>12</title>
<text text-anchor="start" x="521.5" y="-253.8" font-family="Arial" font-weight="bold" font-size="14.00"> &lt; 13.5</text>
<path fill="#f8766d" fill-opacity="0.376471" stroke="transparent" d="M498,-181C498,-181 588,-181 588,-181 594,-181 600,-187 600,-193 600,-193 600,-233 600,-233 600,-239 594,-245 588,-245 588,-245 498,-245 498,-245 492,-245 486,-239 486,-233 486,-233 486,-193 486,-193 486,-187 492,-181 498,-181"/>
<text text-anchor="start" x="487" y="-242.4" font-family="Arial" font-size="2.00"> </text>
<text text-anchor="start" x="487" y="-236.4" font-family="Arial" font-size="7.00"> &#160;12</text>
<text text-anchor="start" x="501" y="-219.8" font-family="Arial" font-weight="bold" font-size="14.00">Predict 4.177</text>
<text text-anchor="start" x="523" y="-202.8" font-family="Arial" font-weight="bold" font-size="14.00">n = 12</text>
<text text-anchor="start" x="541.5" y="-184.8" font-family="Arial" font-size="9.00"> </text>
<path fill="none" stroke="#333333" d="M498,-181C498,-181 588,-181 588,-181 594,-181 600,-187 600,-193 600,-193 600,-233 600,-233 600,-239 594,-245 588,-245 588,-245 498,-245 498,-245 492,-245 486,-239 486,-233 486,-233 486,-193 486,-193 486,-187 492,-181 498,-181"/>
<text text-anchor="start" x="541" y="-166.8" font-family="Arial" font-weight="bold" font-size="14.00"> </text>
</g>
<!-- 11&#45;&gt;12 -->
<g id="edge11" class="edge">
<title>11&#45;&gt;12</title>
<path fill="none" stroke="#888888" d="M543,-307.67C543,-299.39 543,-290.83 543,-282.38"/>
<polygon fill="#888888" stroke="#888888" points="546.5,-282.18 543,-272.18 539.5,-282.18 546.5,-282.18"/>
</g>
<!-- 13 -->
<g id="node13" class="node">
<title>13</title>
<text text-anchor="start" x="678" y="-253.8" font-family="Arial" font-weight="bold" font-size="14.00"> ≥ 13.5</text>
<path fill="#f8766d" fill-opacity="0.545098" stroke="transparent" d="M654,-181C654,-181 744,-181 744,-181 750,-181 756,-187 756,-193 756,-193 756,-233 756,-233 756,-239 750,-245 744,-245 744,-245 654,-245 654,-245 648,-245 642,-239 642,-233 642,-233 642,-193 642,-193 642,-187 648,-181 654,-181"/>
<text text-anchor="start" x="643" y="-242.4" font-family="Arial" font-size="2.00"> </text>
<text text-anchor="start" x="643" y="-236.4" font-family="Arial" font-size="7.00"> &#160;13</text>
<text text-anchor="start" x="657" y="-219.8" font-family="Arial" font-weight="bold" font-size="14.00">Predict 3.354</text>
<text text-anchor="start" x="679" y="-202.8" font-family="Arial" font-weight="bold" font-size="14.00">n = 16</text>
<text text-anchor="start" x="697.5" y="-184.8" font-family="Arial" font-size="9.00"> </text>
<path fill="none" stroke="#333333" d="M654,-181C654,-181 744,-181 744,-181 750,-181 756,-187 756,-193 756,-193 756,-233 756,-233 756,-239 750,-245 744,-245 744,-245 654,-245 654,-245 648,-245 642,-239 642,-233 642,-233 642,-193 642,-193 642,-187 648,-181 654,-181"/>
<text text-anchor="start" x="697" y="-166.8" font-family="Arial" font-weight="bold" font-size="14.00"> </text>
</g>
<!-- 11&#45;&gt;13 -->
<g id="edge12" class="edge">
<title>11&#45;&gt;13</title>
<path fill="none" stroke="#888888" d="M602.87,-307.67C612.38,-298.39 622.28,-288.75 631.95,-279.33"/>
<polygon fill="#888888" stroke="#888888" points="634.57,-281.66 639.29,-272.18 629.69,-276.65 634.57,-281.66"/>
</g>
<!-- 9 -->
<g id="node10" class="node">
<title>9</title>
<text text-anchor="start" x="277" y="-99.8" font-family="Arial" font-weight="bold" font-size="14.00"> &lt; 3.435</text>
<path fill="#f8766d" fill-opacity="0.607843" stroke="transparent" d="M257,-27C257,-27 347,-27 347,-27 353,-27 359,-33 359,-39 359,-39 359,-79 359,-79 359,-85 353,-91 347,-91 347,-91 257,-91 257,-91 251,-91 245,-85 245,-79 245,-79 245,-39 245,-39 245,-33 251,-27 257,-27"/>
<text text-anchor="start" x="246" y="-88.4" font-family="Arial" font-size="2.00"> </text>
<text text-anchor="start" x="246" y="-82.4" font-family="Arial" font-size="7.00"> &#160;9</text>
<text text-anchor="start" x="260" y="-65.8" font-family="Arial" font-weight="bold" font-size="14.00">Predict 3.057</text>
<text text-anchor="start" x="282" y="-48.8" font-family="Arial" font-weight="bold" font-size="14.00">n = 34</text>
<text text-anchor="start" x="300.5" y="-30.8" font-family="Arial" font-size="9.00"> </text>
<path fill="none" stroke="#333333" d="M257,-27C257,-27 347,-27 347,-27 353,-27 359,-33 359,-39 359,-39 359,-79 359,-79 359,-85 353,-91 347,-91 347,-91 257,-91 257,-91 251,-91 245,-85 245,-79 245,-79 245,-39 245,-39 245,-33 251,-27 257,-27"/>
<text text-anchor="start" x="300" y="-12.8" font-family="Arial" font-weight="bold" font-size="14.00"> </text>
</g>
<!-- 8&#45;&gt;9 -->
<g id="edge9" class="edge">
<title>8&#45;&gt;9</title>
<path fill="none" stroke="#888888" d="M348.83,-153.67C344.52,-145.03 340.04,-136.07 335.64,-127.27"/>
<polygon fill="#888888" stroke="#888888" points="338.69,-125.56 331.09,-118.18 332.43,-128.69 338.69,-125.56"/>
</g>
<!-- 10 -->
<g id="node11" class="node">
<title>10</title>
<text text-anchor="start" x="429.5" y="-99.8" font-family="Arial" font-weight="bold" font-size="14.00"> ≥ 3.435</text>
<path fill="#f8766d" fill-opacity="0.521569" stroke="transparent" d="M413,-27C413,-27 495,-27 495,-27 501,-27 507,-33 507,-39 507,-39 507,-79 507,-79 507,-85 501,-91 495,-91 495,-91 413,-91 413,-91 407,-91 401,-85 401,-79 401,-79 401,-39 401,-39 401,-33 407,-27 413,-27"/>
<text text-anchor="start" x="402" y="-88.4" font-family="Arial" font-size="2.00"> </text>
<text text-anchor="start" x="402" y="-82.4" font-family="Arial" font-size="7.00"> &#160;10</text>
<text text-anchor="start" x="416" y="-65.8" font-family="Arial" font-weight="bold" font-size="14.00">Predict 3.47</text>
<text text-anchor="start" x="434" y="-48.8" font-family="Arial" font-weight="bold" font-size="14.00">n = 27</text>
<text text-anchor="start" x="452.5" y="-30.8" font-family="Arial" font-size="9.00"> </text>
<path fill="none" stroke="#333333" d="M413,-27C413,-27 495,-27 495,-27 501,-27 507,-33 507,-39 507,-39 507,-79 507,-79 507,-85 501,-91 495,-91 495,-91 413,-91 413,-91 407,-91 401,-85 401,-79 401,-79 401,-39 401,-39 401,-33 407,-27 413,-27"/>
<text text-anchor="start" x="452" y="-12.8" font-family="Arial" font-weight="bold" font-size="14.00"> </text>
</g>
<!-- 8&#45;&gt;10 -->
<g id="edge10" class="edge">
<title>8&#45;&gt;10</title>
<path fill="none" stroke="#888888" d="M407.17,-153.67C411.48,-145.03 415.96,-136.07 420.36,-127.27"/>
<polygon fill="#888888" stroke="#888888" points="423.57,-128.69 424.91,-118.18 417.31,-125.56 423.57,-128.69"/>
</g>
</g>
</svg>
