<?xml version="1.0" encoding="UTF-8" standalone="no"?>
<!DOCTYPE svg PUBLIC "-//W3C//DTD SVG 1.1//EN"
 "http://www.w3.org/Graphics/SVG/1.1/DTD/svg11.dtd">
<!-- Generated by graphviz version 2.50.0 (20211204.2007)
 -->
<!-- Pages: 1 -->
<svg width="1893pt" height="742pt"
 viewBox="0.00 0.00 1893.00 742.00" xmlns="http://www.w3.org/2000/svg" xmlns:xlink="http://www.w3.org/1999/xlink">
<g id="graph0" class="graph" transform="scale(1 1) rotate(0) translate(4 738)">
<polygon fill="white" stroke="transparent" points="-4,4 -4,-738 1889,-738 1889,4 -4,4"/>
<!-- 1 -->
<g id="node1" class="node">
<title>1</title>
<text text-anchor="start" x="724.5" y="-715.8" font-family="Arial" font-weight="bold" font-size="14.00"> </text>
<text text-anchor="start" x="663" y="-671.3" font-family="Arial" font-size="14.00"> &#160;</text>
<path fill="#ebebeb" stroke="transparent" d="M685,-643C685,-643 768,-643 768,-643 774,-643 780,-649 780,-655 780,-655 780,-695 780,-695 780,-701 774,-707 768,-707 768,-707 685,-707 685,-707 679,-707 673,-701 673,-695 673,-695 673,-655 673,-655 673,-649 679,-643 685,-643"/>
<text text-anchor="start" x="674" y="-704.4" font-family="Arial" font-size="2.00"> </text>
<text text-anchor="start" x="674" y="-698.4" font-family="Arial" font-size="7.00"> &#160;1</text>
<text text-anchor="start" x="688" y="-681.8" font-family="Arial" font-weight="bold" font-size="14.00">Mean: 23.11</text>
<text text-anchor="start" x="703" y="-664.8" font-family="Arial" font-weight="bold" font-size="14.00">n = 672</text>
<text text-anchor="start" x="725" y="-646.8" font-family="Arial" font-size="9.00"> </text>
<path fill="none" stroke="#333333" d="M685,-643C685,-643 768,-643 768,-643 774,-643 780,-649 780,-655 780,-655 780,-695 780,-695 780,-701 774,-707 768,-707 768,-707 685,-707 685,-707 679,-707 673,-701 673,-695 673,-695 673,-655 673,-655 673,-649 679,-643 685,-643"/>
<text text-anchor="start" x="782" y="-671.3" font-family="Arial" font-size="14.00"> &#160;</text>
<text text-anchor="start" x="676.5" y="-628.8" font-family="Arial" font-weight="bold" font-size="14.00">prev_1h_inflow</text>
</g>
<!-- 2 -->
<g id="node2" class="node">
<title>2</title>
<text text-anchor="start" x="467" y="-561.8" font-family="Arial" font-weight="bold" font-size="14.00"> &lt; 24.12</text>
<text text-anchor="start" x="428" y="-517.3" font-family="Arial" font-size="14.00"> &#160;</text>
<path fill="#ebebeb" stroke="transparent" d="M450,-489C450,-489 534,-489 534,-489 540,-489 546,-495 546,-501 546,-501 546,-541 546,-541 546,-547 540,-553 534,-553 534,-553 450,-553 450,-553 444,-553 438,-547 438,-541 438,-541 438,-501 438,-501 438,-495 444,-489 450,-489"/>
<text text-anchor="start" x="439" y="-550.4" font-family="Arial" font-size="2.00"> </text>
<text text-anchor="start" x="439" y="-544.4" font-family="Arial" font-size="7.00"> &#160;2</text>
<text text-anchor="start" x="453" y="-527.8" font-family="Arial" font-weight="bold" font-size="14.00">Mean: 21.62</text>
<text text-anchor="start" x="468.5" y="-510.8" font-family="Arial" font-weight="bold" font-size="14.00">n = 470</text>
<text text-anchor="start" x="490.5" y="-492.8" font-family="Arial" font-size="9.00"> </text>
<path fill="none" stroke="#333333" d="M450,-489C450,-489 534,-489 534,-489 540,-489 546,-495 546,-501 546,-501 546,-541 546,-541 546,-547 540,-553 534,-553 534,-553 450,-553 450,-553 444,-553 438,-547 438,-541 438,-541 438,-501 438,-501 438,-495 444,-489 450,-489"/>
<text text-anchor="start" x="548" y="-517.3" font-family="Arial" font-size="14.00"> &#160;</text>
<text text-anchor="start" x="442" y="-474.8" font-family="Arial" font-weight="bold" font-size="14.00">prev_1h_inflow</text>
</g>
<!-- 1&#45;&gt;2 -->
<g id="edge1" class="edge">
<title>1&#45;&gt;2</title>
<path fill="none" stroke="#888888" d="M652.28,-626.11C627.61,-610.09 599.95,-592.12 574.64,-575.68"/>
<polygon fill="#888888" stroke="#888888" points="576.44,-572.68 566.15,-570.17 572.63,-578.55 576.44,-572.68"/>
</g>
<!-- 13 -->
<g id="node3" class="node">
<title>13</title>
<text text-anchor="start" x="941.5" y="-561.8" font-family="Arial" font-weight="bold" font-size="14.00"> ≥ 24.12</text>
<text text-anchor="start" x="902" y="-517.3" font-family="Arial" font-size="14.00"> &#160;</text>
<path fill="#ebebeb" stroke="transparent" d="M924,-489C924,-489 1008,-489 1008,-489 1014,-489 1020,-495 1020,-501 1020,-501 1020,-541 1020,-541 1020,-547 1014,-553 1008,-553 1008,-553 924,-553 924,-553 918,-553 912,-547 912,-541 912,-541 912,-501 912,-501 912,-495 918,-489 924,-489"/>
<text text-anchor="start" x="913" y="-550.4" font-family="Arial" font-size="2.00"> </text>
<text text-anchor="start" x="913" y="-544.4" font-family="Arial" font-size="7.00"> &#160;13</text>
<text text-anchor="start" x="927" y="-527.8" font-family="Arial" font-weight="bold" font-size="14.00">Mean: 26.56</text>
<text text-anchor="start" x="942.5" y="-510.8" font-family="Arial" font-weight="bold" font-size="14.00">n = 202</text>
<text text-anchor="start" x="964.5" y="-492.8" font-family="Arial" font-size="9.00"> </text>
<path fill="none" stroke="#333333" d="M924,-489C924,-489 1008,-489 1008,-489 1014,-489 1020,-495 1020,-501 1020,-501 1020,-541 1020,-541 1020,-547 1014,-553 1008,-553 1008,-553 924,-553 924,-553 918,-553 912,-547 912,-541 912,-541 912,-501 912,-501 912,-495 918,-489 924,-489"/>
<text text-anchor="start" x="1022" y="-517.3" font-family="Arial" font-size="14.00"> &#160;</text>
<text text-anchor="start" x="916" y="-474.8" font-family="Arial" font-weight="bold" font-size="14.00">prev_1h_inflow</text>
</g>
<!-- 1&#45;&gt;13 -->
<g id="edge2" class="edge">
<title>1&#45;&gt;13</title>
<path fill="none" stroke="#888888" d="M799.64,-627.36C826,-610.67 855.88,-591.74 882.98,-574.58"/>
<polygon fill="#888888" stroke="#888888" points="885.1,-577.38 891.67,-569.07 881.35,-571.47 885.1,-577.38"/>
</g>
<!-- 3 -->
<g id="node4" class="node">
<title>3</title>
<text text-anchor="start" x="213" y="-407.8" font-family="Arial" font-weight="bold" font-size="14.00"> &lt; 21.64</text>
<text text-anchor="start" x="174" y="-363.3" font-family="Arial" font-size="14.00"> &#160;</text>
<path fill="#ebebeb" stroke="transparent" d="M196,-335C196,-335 280,-335 280,-335 286,-335 292,-341 292,-347 292,-347 292,-387 292,-387 292,-393 286,-399 280,-399 280,-399 196,-399 196,-399 190,-399 184,-393 184,-387 184,-387 184,-347 184,-347 184,-341 190,-335 196,-335"/>
<text text-anchor="start" x="185" y="-396.4" font-family="Arial" font-size="2.00"> </text>
<text text-anchor="start" x="185" y="-390.4" font-family="Arial" font-size="7.00"> &#160;3</text>
<text text-anchor="start" x="199" y="-373.8" font-family="Arial" font-weight="bold" font-size="14.00">Mean: 20.78</text>
<text text-anchor="start" x="214.5" y="-356.8" font-family="Arial" font-weight="bold" font-size="14.00">n = 265</text>
<text text-anchor="start" x="236.5" y="-338.8" font-family="Arial" font-size="9.00"> </text>
<path fill="none" stroke="#333333" d="M196,-335C196,-335 280,-335 280,-335 286,-335 292,-341 292,-347 292,-347 292,-387 292,-387 292,-393 286,-399 280,-399 280,-399 196,-399 196,-399 190,-399 184,-393 184,-387 184,-387 184,-347 184,-347 184,-341 190,-335 196,-335"/>
<text text-anchor="start" x="294" y="-363.3" font-family="Arial" font-size="14.00"> &#160;</text>
<text text-anchor="start" x="188" y="-320.8" font-family="Arial" font-weight="bold" font-size="14.00">prev_1h_inflow</text>
</g>
<!-- 2&#45;&gt;3 -->
<g id="edge3" class="edge">
<title>2&#45;&gt;3</title>
<path fill="none" stroke="#888888" d="M417.85,-475.63C387.47,-457.44 352.17,-436.32 320.94,-417.63"/>
<polygon fill="#888888" stroke="#888888" points="322.62,-414.56 312.24,-412.43 319.03,-420.57 322.62,-414.56"/>
</g>
<!-- 8 -->
<g id="node5" class="node">
<title>8</title>
<text text-anchor="start" x="467.5" y="-407.8" font-family="Arial" font-weight="bold" font-size="14.00"> ≥ 21.64</text>
<text text-anchor="start" x="424" y="-363.3" font-family="Arial" font-size="14.00"> &#160;&#160;</text>
<path fill="#ebebeb" stroke="transparent" d="M450,-335C450,-335 534,-335 534,-335 540,-335 546,-341 546,-347 546,-347 546,-387 546,-387 546,-393 540,-399 534,-399 534,-399 450,-399 450,-399 444,-399 438,-393 438,-387 438,-387 438,-347 438,-347 438,-341 444,-335 450,-335"/>
<text text-anchor="start" x="439" y="-396.4" font-family="Arial" font-size="2.00"> </text>
<text text-anchor="start" x="439" y="-390.4" font-family="Arial" font-size="7.00"> &#160;8</text>
<text text-anchor="start" x="453" y="-373.8" font-family="Arial" font-weight="bold" font-size="14.00">Mean: 22.72</text>
<text text-anchor="start" x="468.5" y="-356.8" font-family="Arial" font-weight="bold" font-size="14.00">n = 205</text>
<text text-anchor="start" x="490.5" y="-338.8" font-family="Arial" font-size="9.00"> </text>
<path fill="none" stroke="#333333" d="M450,-335C450,-335 534,-335 534,-335 540,-335 546,-341 546,-347 546,-347 546,-387 546,-387 546,-393 540,-399 534,-399 534,-399 450,-399 450,-399 444,-399 438,-393 438,-387 438,-387 438,-347 438,-347 438,-341 444,-335 450,-335"/>
<text text-anchor="start" x="548" y="-363.3" font-family="Arial" font-size="14.00"> &#160;&#160;</text>
<text text-anchor="start" x="438.5" y="-320.8" font-family="Arial" font-weight="bold" font-size="14.00">prev_24h_inflow</text>
</g>
<!-- 2&#45;&gt;8 -->
<g id="edge4" class="edge">
<title>2&#45;&gt;8</title>
<path fill="none" stroke="#888888" d="M492,-461.67C492,-453.39 492,-444.83 492,-436.38"/>
<polygon fill="#888888" stroke="#888888" points="495.5,-436.18 492,-426.18 488.5,-436.18 495.5,-436.18"/>
</g>
<!-- 14 -->
<g id="node14" class="node">
<title>14</title>
<text text-anchor="start" x="941" y="-407.8" font-family="Arial" font-weight="bold" font-size="14.00"> &lt; 27.98</text>
<text text-anchor="start" x="902" y="-363.3" font-family="Arial" font-size="14.00"> &#160;&#160;</text>
<path fill="#ebebeb" stroke="transparent" d="M928,-335C928,-335 1004,-335 1004,-335 1010,-335 1016,-341 1016,-347 1016,-347 1016,-387 1016,-387 1016,-393 1010,-399 1004,-399 1004,-399 928,-399 928,-399 922,-399 916,-393 916,-387 916,-387 916,-347 916,-347 916,-341 922,-335 928,-335"/>
<text text-anchor="start" x="917" y="-396.4" font-family="Arial" font-size="2.00"> </text>
<text text-anchor="start" x="917" y="-390.4" font-family="Arial" font-size="7.00"> &#160;14</text>
<text text-anchor="start" x="931" y="-373.8" font-family="Arial" font-weight="bold" font-size="14.00">Mean: 25.9</text>
<text text-anchor="start" x="942.5" y="-356.8" font-family="Arial" font-weight="bold" font-size="14.00">n = 155</text>
<text text-anchor="start" x="964.5" y="-338.8" font-family="Arial" font-size="9.00"> </text>
<path fill="none" stroke="#333333" d="M928,-335C928,-335 1004,-335 1004,-335 1010,-335 1016,-341 1016,-347 1016,-347 1016,-387 1016,-387 1016,-393 1010,-399 1004,-399 1004,-399 928,-399 928,-399 922,-399 916,-393 916,-387 916,-387 916,-347 916,-347 916,-341 922,-335 928,-335"/>
<text text-anchor="start" x="1018" y="-363.3" font-family="Arial" font-size="14.00"> &#160;&#160;</text>
<text text-anchor="start" x="916" y="-320.8" font-family="Arial" font-weight="bold" font-size="14.00">prev_1h_inflow</text>
</g>
<!-- 13&#45;&gt;14 -->
<g id="edge13" class="edge">
<title>13&#45;&gt;14</title>
<path fill="none" stroke="#888888" d="M966,-461.67C966,-453.39 966,-444.83 966,-436.38"/>
<polygon fill="#888888" stroke="#888888" points="969.5,-436.18 966,-426.18 962.5,-436.18 969.5,-436.18"/>
</g>
<!-- 21 -->
<g id="node15" class="node">
<title>21</title>
<text text-anchor="start" x="1403.5" y="-407.8" font-family="Arial" font-weight="bold" font-size="14.00"> ≥ 27.98</text>
<text text-anchor="start" x="1364" y="-363.3" font-family="Arial" font-size="14.00"> &#160;</text>
<path fill="#ebebeb" stroke="transparent" d="M1386,-335C1386,-335 1470,-335 1470,-335 1476,-335 1482,-341 1482,-347 1482,-347 1482,-387 1482,-387 1482,-393 1476,-399 1470,-399 1470,-399 1386,-399 1386,-399 1380,-399 1374,-393 1374,-387 1374,-387 1374,-347 1374,-347 1374,-341 1380,-335 1386,-335"/>
<text text-anchor="start" x="1375" y="-396.4" font-family="Arial" font-size="2.00"> </text>
<text text-anchor="start" x="1375" y="-390.4" font-family="Arial" font-size="7.00"> &#160;21</text>
<text text-anchor="start" x="1389" y="-373.8" font-family="Arial" font-weight="bold" font-size="14.00">Mean: 28.77</text>
<text text-anchor="start" x="1408" y="-356.8" font-family="Arial" font-weight="bold" font-size="14.00">n = 47</text>
<text text-anchor="start" x="1426.5" y="-338.8" font-family="Arial" font-size="9.00"> </text>
<path fill="none" stroke="#333333" d="M1386,-335C1386,-335 1470,-335 1470,-335 1476,-335 1482,-341 1482,-347 1482,-347 1482,-387 1482,-387 1482,-393 1476,-399 1470,-399 1470,-399 1386,-399 1386,-399 1380,-399 1374,-393 1374,-387 1374,-387 1374,-347 1374,-347 1374,-341 1380,-335 1386,-335"/>
<text text-anchor="start" x="1484" y="-363.3" font-family="Arial" font-size="14.00"> &#160;</text>
<text text-anchor="start" x="1378" y="-320.8" font-family="Arial" font-weight="bold" font-size="14.00">prev_1h_inflow</text>
</g>
<!-- 13&#45;&gt;21 -->
<g id="edge14" class="edge">
<title>13&#45;&gt;21</title>
<path fill="none" stroke="#888888" d="M1040.23,-495.58C1123.33,-468.24 1257.68,-424.04 1344.41,-395.5"/>
<polygon fill="#888888" stroke="#888888" points="1345.55,-398.81 1353.96,-392.36 1343.36,-392.16 1345.55,-398.81"/>
</g>
<!-- 4 -->
<g id="node6" class="node">
<title>4</title>
<text text-anchor="start" x="44" y="-253.8" font-family="Arial" font-weight="bold" font-size="14.00"> &lt; 20.23</text>
<path fill="#f8766d" fill-opacity="0.874510" stroke="transparent" d="M24,-181C24,-181 114,-181 114,-181 120,-181 126,-187 126,-193 126,-193 126,-233 126,-233 126,-239 120,-245 114,-245 114,-245 24,-245 24,-245 18,-245 12,-239 12,-233 12,-233 12,-193 12,-193 12,-187 18,-181 24,-181"/>
<text text-anchor="start" x="13" y="-242.4" font-family="Arial" font-size="2.00"> </text>
<text text-anchor="start" x="13" y="-236.4" font-family="Arial" font-size="7.00"> &#160;4</text>
<text text-anchor="start" x="27" y="-219.8" font-family="Arial" font-weight="bold" font-size="14.00">Predict 20.13</text>
<text text-anchor="start" x="49" y="-202.8" font-family="Arial" font-weight="bold" font-size="14.00">n = 99</text>
<text text-anchor="start" x="67.5" y="-184.8" font-family="Arial" font-size="9.00"> </text>
<path fill="none" stroke="#333333" d="M24,-181C24,-181 114,-181 114,-181 120,-181 126,-187 126,-193 126,-193 126,-233 126,-233 126,-239 120,-245 114,-245 114,-245 24,-245 24,-245 18,-245 12,-239 12,-233 12,-233 12,-193 12,-193 12,-187 18,-181 24,-181"/>
<text text-anchor="start" x="67" y="-166.8" font-family="Arial" font-weight="bold" font-size="14.00"> </text>
</g>
<!-- 3&#45;&gt;4 -->
<g id="edge5" class="edge">
<title>3&#45;&gt;4</title>
<path fill="none" stroke="#888888" d="M173.14,-307.67C162.73,-298.3 151.9,-288.56 141.33,-279.05"/>
<polygon fill="#888888" stroke="#888888" points="143.46,-276.26 133.68,-272.18 138.78,-281.47 143.46,-276.26"/>
</g>
<!-- 5 -->
<g id="node7" class="node">
<title>5</title>
<text text-anchor="start" x="213.5" y="-253.8" font-family="Arial" font-weight="bold" font-size="14.00"> ≥ 20.23</text>
<text text-anchor="start" x="166" y="-209.3" font-family="Arial" font-size="14.00"> &#160;&#160;&#160;</text>
<path fill="#ebebeb" stroke="transparent" d="M196,-181C196,-181 280,-181 280,-181 286,-181 292,-187 292,-193 292,-193 292,-233 292,-233 292,-239 286,-245 280,-245 280,-245 196,-245 196,-245 190,-245 184,-239 184,-233 184,-233 184,-193 184,-193 184,-187 190,-181 196,-181"/>
<text text-anchor="start" x="185" y="-242.4" font-family="Arial" font-size="2.00"> </text>
<text text-anchor="start" x="185" y="-236.4" font-family="Arial" font-size="7.00"> &#160;5</text>
<text text-anchor="start" x="199" y="-219.8" font-family="Arial" font-weight="bold" font-size="14.00">Mean: 21.16</text>
<text text-anchor="start" x="214.5" y="-202.8" font-family="Arial" font-weight="bold" font-size="14.00">n = 166</text>
<text text-anchor="start" x="236.5" y="-184.8" font-family="Arial" font-size="9.00"> </text>
<path fill="none" stroke="#333333" d="M196,-181C196,-181 280,-181 280,-181 286,-181 292,-187 292,-193 292,-193 292,-233 292,-233 292,-239 286,-245 280,-245 280,-245 196,-245 196,-245 190,-245 184,-239 184,-233 184,-233 184,-193 184,-193 184,-187 190,-181 196,-181"/>
<text text-anchor="start" x="294" y="-209.3" font-family="Arial" font-size="14.00"> &#160;&#160;&#160;</text>
<text text-anchor="start" x="180.5" y="-166.8" font-family="Arial" font-weight="bold" font-size="14.00">prev_168h_inflow</text>
</g>
<!-- 3&#45;&gt;5 -->
<g id="edge6" class="edge">
<title>3&#45;&gt;5</title>
<path fill="none" stroke="#888888" d="M238,-307.67C238,-299.39 238,-290.83 238,-282.38"/>
<polygon fill="#888888" stroke="#888888" points="241.5,-282.18 238,-272.18 234.5,-282.18 241.5,-282.18"/>
</g>
<!-- 9 -->
<g id="node10" class="node">
<title>9</title>
<text text-anchor="start" x="382" y="-253.8" font-family="Arial" font-weight="bold" font-size="14.00"> &lt; 21.63</text>
<path fill="#f8766d" fill-opacity="0.815686" stroke="transparent" d="M362,-181C362,-181 452,-181 452,-181 458,-181 464,-187 464,-193 464,-193 464,-233 464,-233 464,-239 458,-245 452,-245 452,-245 362,-245 362,-245 356,-245 350,-239 350,-233 350,-233 350,-193 350,-193 350,-187 356,-181 362,-181"/>
<text text-anchor="start" x="351" y="-242.4" font-family="Arial" font-size="2.00"> </text>
<text text-anchor="start" x="351" y="-236.4" font-family="Arial" font-size="7.00"> &#160;9</text>
<text text-anchor="start" x="365" y="-219.8" font-family="Arial" font-weight="bold" font-size="14.00">Predict 21.94</text>
<text text-anchor="start" x="387" y="-202.8" font-family="Arial" font-weight="bold" font-size="14.00">n = 51</text>
<text text-anchor="start" x="405.5" y="-184.8" font-family="Arial" font-size="9.00"> </text>
<path fill="none" stroke="#333333" d="M362,-181C362,-181 452,-181 452,-181 458,-181 464,-187 464,-193 464,-193 464,-233 464,-233 464,-239 458,-245 452,-245 452,-245 362,-245 362,-245 356,-245 350,-239 350,-233 350,-233 350,-193 350,-193 350,-187 356,-181 362,-181"/>
<text text-anchor="start" x="405" y="-166.8" font-family="Arial" font-weight="bold" font-size="14.00"> </text>
</g>
<!-- 8&#45;&gt;9 -->
<g id="edge9" class="edge">
<title>8&#45;&gt;9</title>
<path fill="none" stroke="#888888" d="M459.38,-307.67C454.5,-298.94 449.43,-289.88 444.46,-280.99"/>
<polygon fill="#888888" stroke="#888888" points="447.47,-279.2 439.53,-272.18 441.36,-282.61 447.47,-279.2"/>
</g>
<!-- 10 -->
<g id="node11" class="node">
<title>10</title>
<text text-anchor="start" x="551.5" y="-253.8" font-family="Arial" font-weight="bold" font-size="14.00"> ≥ 21.63</text>
<text text-anchor="start" x="504" y="-209.3" font-family="Arial" font-size="14.00"> &#160;&#160;&#160;</text>
<path fill="#ebebeb" stroke="transparent" d="M534,-181C534,-181 618,-181 618,-181 624,-181 630,-187 630,-193 630,-193 630,-233 630,-233 630,-239 624,-245 618,-245 618,-245 534,-245 534,-245 528,-245 522,-239 522,-233 522,-233 522,-193 522,-193 522,-187 528,-181 534,-181"/>
<text text-anchor="start" x="523" y="-242.4" font-family="Arial" font-size="2.00"> </text>
<text text-anchor="start" x="523" y="-236.4" font-family="Arial" font-size="7.00"> &#160;10</text>
<text text-anchor="start" x="537" y="-219.8" font-family="Arial" font-weight="bold" font-size="14.00">Mean: 22.98</text>
<text text-anchor="start" x="552.5" y="-202.8" font-family="Arial" font-weight="bold" font-size="14.00">n = 154</text>
<text text-anchor="start" x="574.5" y="-184.8" font-family="Arial" font-size="9.00"> </text>
<path fill="none" stroke="#333333" d="M534,-181C534,-181 618,-181 618,-181 624,-181 630,-187 630,-193 630,-193 630,-233 630,-233 630,-239 624,-245 618,-245 618,-245 534,-245 534,-245 528,-245 522,-239 522,-233 522,-233 522,-193 522,-193 522,-187 528,-181 534,-181"/>
<text text-anchor="start" x="632" y="-209.3" font-family="Arial" font-size="14.00"> &#160;&#160;&#160;</text>
<text text-anchor="start" x="518.5" y="-166.8" font-family="Arial" font-weight="bold" font-size="14.00">prev_168h_inflow</text>
</g>
<!-- 8&#45;&gt;10 -->
<g id="edge10" class="edge">
<title>8&#45;&gt;10</title>
<path fill="none" stroke="#888888" d="M524.24,-307.67C529.06,-298.94 534.06,-289.88 538.98,-280.99"/>
<polygon fill="#888888" stroke="#888888" points="542.08,-282.62 543.85,-272.18 535.95,-279.24 542.08,-282.62"/>
</g>
<!-- 6 -->
<g id="node8" class="node">
<title>6</title>
<text text-anchor="start" x="70" y="-99.8" font-family="Arial" font-weight="bold" font-size="14.00"> &lt; 20.89</text>
<path fill="#f8766d" fill-opacity="0.854902" stroke="transparent" d="M50,-27C50,-27 140,-27 140,-27 146,-27 152,-33 152,-39 152,-39 152,-79 152,-79 152,-85 146,-91 140,-91 140,-91 50,-91 50,-91 44,-91 38,-85 38,-79 38,-79 38,-39 38,-39 38,-33 44,-27 50,-27"/>
<text text-anchor="start" x="39" y="-88.4" font-family="Arial" font-size="2.00"> </text>
<text text-anchor="start" x="39" y="-82.4" font-family="Arial" font-size="7.00"> &#160;6</text>
<text text-anchor="start" x="53" y="-65.8" font-family="Arial" font-weight="bold" font-size="14.00">Predict 20.77</text>
<text text-anchor="start" x="75" y="-48.8" font-family="Arial" font-weight="bold" font-size="14.00">n = 81</text>
<text text-anchor="start" x="93.5" y="-30.8" font-family="Arial" font-size="9.00"> </text>
<path fill="none" stroke="#333333" d="M50,-27C50,-27 140,-27 140,-27 146,-27 152,-33 152,-39 152,-39 152,-79 152,-79 152,-85 146,-91 140,-91 140,-91 50,-91 50,-91 44,-91 38,-85 38,-79 38,-79 38,-39 38,-39 38,-33 44,-27 50,-27"/>
<text text-anchor="start" x="93" y="-12.8" font-family="Arial" font-weight="bold" font-size="14.00"> </text>
</g>
<!-- 5&#45;&gt;6 -->
<g id="edge7" class="edge">
<title>5&#45;&gt;6</title>
<path fill="none" stroke="#888888" d="M183.12,-153.67C174.48,-144.49 165.5,-134.94 156.72,-125.6"/>
<polygon fill="#888888" stroke="#888888" points="159.13,-123.06 149.73,-118.18 154.03,-127.86 159.13,-123.06"/>
</g>
<!-- 7 -->
<g id="node9" class="node">
<title>7</title>
<text text-anchor="start" x="226.5" y="-99.8" font-family="Arial" font-weight="bold" font-size="14.00"> ≥ 20.89</text>
<path fill="#f8766d" fill-opacity="0.827451" stroke="transparent" d="M206,-27C206,-27 296,-27 296,-27 302,-27 308,-33 308,-39 308,-39 308,-79 308,-79 308,-85 302,-91 296,-91 296,-91 206,-91 206,-91 200,-91 194,-85 194,-79 194,-79 194,-39 194,-39 194,-33 200,-27 206,-27"/>
<text text-anchor="start" x="195" y="-88.4" font-family="Arial" font-size="2.00"> </text>
<text text-anchor="start" x="195" y="-82.4" font-family="Arial" font-size="7.00"> &#160;7</text>
<text text-anchor="start" x="209" y="-65.8" font-family="Arial" font-weight="bold" font-size="14.00">Predict 21.54</text>
<text text-anchor="start" x="231" y="-48.8" font-family="Arial" font-weight="bold" font-size="14.00">n = 85</text>
<text text-anchor="start" x="249.5" y="-30.8" font-family="Arial" font-size="9.00"> </text>
<path fill="none" stroke="#333333" d="M206,-27C206,-27 296,-27 296,-27 302,-27 308,-33 308,-39 308,-39 308,-79 308,-79 308,-85 302,-91 296,-91 296,-91 206,-91 206,-91 200,-91 194,-85 194,-79 194,-79 194,-39 194,-39 194,-33 200,-27 206,-27"/>
<text text-anchor="start" x="249" y="-12.8" font-family="Arial" font-weight="bold" font-size="14.00"> </text>
</g>
<!-- 5&#45;&gt;7 -->
<g id="edge8" class="edge">
<title>5&#45;&gt;7</title>
<path fill="none" stroke="#888888" d="M242.99,-153.67C243.7,-145.39 244.43,-136.83 245.15,-128.38"/>
<polygon fill="#888888" stroke="#888888" points="248.66,-128.44 246.02,-118.18 241.68,-127.84 248.66,-128.44"/>
</g>
<!-- 11 -->
<g id="node12" class="node">
<title>11</title>
<text text-anchor="start" x="395" y="-99.8" font-family="Arial" font-weight="bold" font-size="14.00"> &lt; 26.41</text>
<path fill="#f8766d" fill-opacity="0.788235" stroke="transparent" d="M375,-27C375,-27 465,-27 465,-27 471,-27 477,-33 477,-39 477,-39 477,-79 477,-79 477,-85 471,-91 465,-91 465,-91 375,-91 375,-91 369,-91 363,-85 363,-79 363,-79 363,-39 363,-39 363,-33 369,-27 375,-27"/>
<text text-anchor="start" x="364" y="-88.4" font-family="Arial" font-size="2.00"> </text>
<text text-anchor="start" x="364" y="-82.4" font-family="Arial" font-size="7.00"> &#160;11</text>
<text text-anchor="start" x="378" y="-65.8" font-family="Arial" font-weight="bold" font-size="14.00">Predict 22.77</text>
<text text-anchor="start" x="396.5" y="-48.8" font-family="Arial" font-weight="bold" font-size="14.00">n = 141</text>
<text text-anchor="start" x="418.5" y="-30.8" font-family="Arial" font-size="9.00"> </text>
<path fill="none" stroke="#333333" d="M375,-27C375,-27 465,-27 465,-27 471,-27 477,-33 477,-39 477,-39 477,-79 477,-79 477,-85 471,-91 465,-91 465,-91 375,-91 375,-91 369,-91 363,-85 363,-79 363,-79 363,-39 363,-39 363,-33 369,-27 375,-27"/>
<text text-anchor="start" x="418" y="-12.8" font-family="Arial" font-weight="bold" font-size="14.00"> </text>
</g>
<!-- 10&#45;&gt;11 -->
<g id="edge11" class="edge">
<title>10&#45;&gt;11</title>
<path fill="none" stroke="#888888" d="M516.13,-153.67C506.62,-144.39 496.72,-134.75 487.05,-125.33"/>
<polygon fill="#888888" stroke="#888888" points="489.31,-122.65 479.71,-118.18 484.43,-127.66 489.31,-122.65"/>
</g>
<!-- 12 -->
<g id="node13" class="node">
<title>12</title>
<text text-anchor="start" x="551.5" y="-99.8" font-family="Arial" font-weight="bold" font-size="14.00"> ≥ 26.41</text>
<path fill="#f8766d" fill-opacity="0.701961" stroke="transparent" d="M531,-27C531,-27 621,-27 621,-27 627,-27 633,-33 633,-39 633,-39 633,-79 633,-79 633,-85 627,-91 621,-91 621,-91 531,-91 531,-91 525,-91 519,-85 519,-79 519,-79 519,-39 519,-39 519,-33 525,-27 531,-27"/>
<text text-anchor="start" x="520" y="-88.4" font-family="Arial" font-size="2.00"> </text>
<text text-anchor="start" x="520" y="-82.4" font-family="Arial" font-size="7.00"> &#160;12</text>
<text text-anchor="start" x="534" y="-65.8" font-family="Arial" font-weight="bold" font-size="14.00">Predict 25.27</text>
<text text-anchor="start" x="556" y="-48.8" font-family="Arial" font-weight="bold" font-size="14.00">n = 13</text>
<text text-anchor="start" x="574.5" y="-30.8" font-family="Arial" font-size="9.00"> </text>
<path fill="none" stroke="#333333" d="M531,-27C531,-27 621,-27 621,-27 627,-27 633,-33 633,-39 633,-39 633,-79 633,-79 633,-85 627,-91 621,-91 621,-91 531,-91 531,-91 525,-91 519,-85 519,-79 519,-79 519,-39 519,-39 519,-33 525,-27 531,-27"/>
<text text-anchor="start" x="574" y="-12.8" font-family="Arial" font-weight="bold" font-size="14.00"> </text>
</g>
<!-- 10&#45;&gt;12 -->
<g id="edge12" class="edge">
<title>10&#45;&gt;12</title>
<path fill="none" stroke="#888888" d="M576,-153.67C576,-145.39 576,-136.83 576,-128.38"/>
<polygon fill="#888888" stroke="#888888" points="579.5,-128.18 576,-118.18 572.5,-128.18 579.5,-128.18"/>
</g>
<!-- 15 -->
<g id="node16" class="node">
<title>15</title>
<text text-anchor="start" x="860" y="-253.8" font-family="Arial" font-weight="bold" font-size="14.00"> &lt; 25.14</text>
<text text-anchor="start" x="817" y="-209.3" font-family="Arial" font-size="14.00"> &#160;&#160;</text>
<path fill="#ebebeb" stroke="transparent" d="M843,-181C843,-181 927,-181 927,-181 933,-181 939,-187 939,-193 939,-193 939,-233 939,-233 939,-239 933,-245 927,-245 927,-245 843,-245 843,-245 837,-245 831,-239 831,-233 831,-233 831,-193 831,-193 831,-187 837,-181 843,-181"/>
<text text-anchor="start" x="832" y="-242.4" font-family="Arial" font-size="2.00"> </text>
<text text-anchor="start" x="832" y="-236.4" font-family="Arial" font-size="7.00"> &#160;15</text>
<text text-anchor="start" x="846" y="-219.8" font-family="Arial" font-weight="bold" font-size="14.00">Mean: 24.53</text>
<text text-anchor="start" x="865" y="-202.8" font-family="Arial" font-weight="bold" font-size="14.00">n = 50</text>
<text text-anchor="start" x="883.5" y="-184.8" font-family="Arial" font-size="9.00"> </text>
<path fill="none" stroke="#333333" d="M843,-181C843,-181 927,-181 927,-181 933,-181 939,-187 939,-193 939,-193 939,-233 939,-233 939,-239 933,-245 927,-245 927,-245 843,-245 843,-245 837,-245 831,-239 831,-233 831,-233 831,-193 831,-193 831,-187 837,-181 843,-181"/>
<text text-anchor="start" x="941" y="-209.3" font-family="Arial" font-size="14.00"> &#160;&#160;</text>
<text text-anchor="start" x="831.5" y="-166.8" font-family="Arial" font-weight="bold" font-size="14.00">prev_24h_inflow</text>
</g>
<!-- 14&#45;&gt;15 -->
<g id="edge15" class="edge">
<title>14&#45;&gt;15</title>
<path fill="none" stroke="#888888" d="M934.91,-307.67C930.31,-299.03 925.54,-290.07 920.85,-281.27"/>
<polygon fill="#888888" stroke="#888888" points="923.79,-279.36 916,-272.18 917.62,-282.65 923.79,-279.36"/>
</g>
<!-- 18 -->
<g id="node17" class="node">
<title>18</title>
<text text-anchor="start" x="1022.5" y="-253.8" font-family="Arial" font-weight="bold" font-size="14.00"> ≥ 25.14</text>
<path fill="#ebebeb" stroke="transparent" d="M1005,-181C1005,-181 1089,-181 1089,-181 1095,-181 1101,-187 1101,-193 1101,-193 1101,-233 1101,-233 1101,-239 1095,-245 1089,-245 1089,-245 1005,-245 1005,-245 999,-245 993,-239 993,-233 993,-233 993,-193 993,-193 993,-187 999,-181 1005,-181"/>
<text text-anchor="start" x="994" y="-242.4" font-family="Arial" font-size="2.00"> </text>
<text text-anchor="start" x="994" y="-236.4" font-family="Arial" font-size="7.00"> &#160;18</text>
<text text-anchor="start" x="1008" y="-219.8" font-family="Arial" font-weight="bold" font-size="14.00">Mean: 26.55</text>
<text text-anchor="start" x="1023.5" y="-202.8" font-family="Arial" font-weight="bold" font-size="14.00">n = 105</text>
<text text-anchor="start" x="1045.5" y="-184.8" font-family="Arial" font-size="9.00"> </text>
<path fill="none" stroke="#333333" d="M1005,-181C1005,-181 1089,-181 1089,-181 1095,-181 1101,-187 1101,-193 1101,-193 1101,-233 1101,-233 1101,-239 1095,-245 1089,-245 1089,-245 1005,-245 1005,-245 999,-245 993,-239 993,-233 993,-233 993,-193 993,-193 993,-187 999,-181 1005,-181"/>
<text text-anchor="start" x="1032.5" y="-166.8" font-family="Arial" font-weight="bold" font-size="14.00">time</text>
</g>
<!-- 14&#45;&gt;18 -->
<g id="edge16" class="edge">
<title>14&#45;&gt;18</title>
<path fill="none" stroke="#888888" d="M997.09,-307.67C1001.69,-299.03 1006.46,-290.07 1011.15,-281.27"/>
<polygon fill="#888888" stroke="#888888" points="1014.38,-282.65 1016,-272.18 1008.21,-279.36 1014.38,-282.65"/>
</g>
<!-- 22 -->
<g id="node22" class="node">
<title>22</title>
<text text-anchor="start" x="1403" y="-253.8" font-family="Arial" font-weight="bold" font-size="14.00"> &lt; 29.43</text>
<path fill="#ebebeb" stroke="transparent" d="M1386,-181C1386,-181 1470,-181 1470,-181 1476,-181 1482,-187 1482,-193 1482,-193 1482,-233 1482,-233 1482,-239 1476,-245 1470,-245 1470,-245 1386,-245 1386,-245 1380,-245 1374,-239 1374,-233 1374,-233 1374,-193 1374,-193 1374,-187 1380,-181 1386,-181"/>
<text text-anchor="start" x="1375" y="-242.4" font-family="Arial" font-size="2.00"> </text>
<text text-anchor="start" x="1375" y="-236.4" font-family="Arial" font-size="7.00"> &#160;22</text>
<text text-anchor="start" x="1389" y="-219.8" font-family="Arial" font-weight="bold" font-size="14.00">Mean: 27.94</text>
<text text-anchor="start" x="1408" y="-202.8" font-family="Arial" font-weight="bold" font-size="14.00">n = 27</text>
<text text-anchor="start" x="1426.5" y="-184.8" font-family="Arial" font-size="9.00"> </text>
<path fill="none" stroke="#333333" d="M1386,-181C1386,-181 1470,-181 1470,-181 1476,-181 1482,-187 1482,-193 1482,-193 1482,-233 1482,-233 1482,-239 1476,-245 1470,-245 1470,-245 1386,-245 1386,-245 1380,-245 1374,-239 1374,-233 1374,-233 1374,-193 1374,-193 1374,-187 1380,-181 1386,-181"/>
<text text-anchor="start" x="1413.5" y="-166.8" font-family="Arial" font-weight="bold" font-size="14.00">time</text>
</g>
<!-- 21&#45;&gt;22 -->
<g id="edge21" class="edge">
<title>21&#45;&gt;22</title>
<path fill="none" stroke="#888888" d="M1428,-307.67C1428,-299.39 1428,-290.83 1428,-282.38"/>
<polygon fill="#888888" stroke="#888888" points="1431.5,-282.18 1428,-272.18 1424.5,-282.18 1431.5,-282.18"/>
</g>
<!-- 25 -->
<g id="node23" class="node">
<title>25</title>
<text text-anchor="start" x="1635.5" y="-253.8" font-family="Arial" font-weight="bold" font-size="14.00"> ≥ 29.43</text>
<path fill="#ebebeb" stroke="transparent" d="M1618,-181C1618,-181 1702,-181 1702,-181 1708,-181 1714,-187 1714,-193 1714,-193 1714,-233 1714,-233 1714,-239 1708,-245 1702,-245 1702,-245 1618,-245 1618,-245 1612,-245 1606,-239 1606,-233 1606,-233 1606,-193 1606,-193 1606,-187 1612,-181 1618,-181"/>
<text text-anchor="start" x="1607" y="-242.4" font-family="Arial" font-size="2.00"> </text>
<text text-anchor="start" x="1607" y="-236.4" font-family="Arial" font-size="7.00"> &#160;25</text>
<text text-anchor="start" x="1621" y="-219.8" font-family="Arial" font-weight="bold" font-size="14.00">Mean: 29.89</text>
<text text-anchor="start" x="1640" y="-202.8" font-family="Arial" font-weight="bold" font-size="14.00">n = 20</text>
<text text-anchor="start" x="1658.5" y="-184.8" font-family="Arial" font-size="9.00"> </text>
<path fill="none" stroke="#333333" d="M1618,-181C1618,-181 1702,-181 1702,-181 1708,-181 1714,-187 1714,-193 1714,-193 1714,-233 1714,-233 1714,-239 1708,-245 1702,-245 1702,-245 1618,-245 1618,-245 1612,-245 1606,-239 1606,-233 1606,-233 1606,-193 1606,-193 1606,-187 1612,-181 1618,-181"/>
<text text-anchor="start" x="1624.5" y="-166.8" font-family="Arial" font-weight="bold" font-size="14.00">windspeed</text>
</g>
<!-- 21&#45;&gt;25 -->
<g id="edge22" class="edge">
<title>21&#45;&gt;25</title>
<path fill="none" stroke="#888888" d="M1502.04,-317.49C1528.61,-300.08 1558.57,-280.46 1585.19,-263.01"/>
<polygon fill="#888888" stroke="#888888" points="1587.27,-265.84 1593.71,-257.43 1583.43,-259.98 1587.27,-265.84"/>
</g>
<!-- 16 -->
<g id="node18" class="node">
<title>16</title>
<text text-anchor="start" x="707" y="-99.8" font-family="Arial" font-weight="bold" font-size="14.00"> &lt; 25.58</text>
<path fill="#f8766d" fill-opacity="0.749020" stroke="transparent" d="M687,-27C687,-27 777,-27 777,-27 783,-27 789,-33 789,-39 789,-39 789,-79 789,-79 789,-85 783,-91 777,-91 777,-91 687,-91 687,-91 681,-91 675,-85 675,-79 675,-79 675,-39 675,-39 675,-33 681,-27 687,-27"/>
<text text-anchor="start" x="676" y="-88.4" font-family="Arial" font-size="2.00"> </text>
<text text-anchor="start" x="676" y="-82.4" font-family="Arial" font-size="7.00"> &#160;16</text>
<text text-anchor="start" x="690" y="-65.8" font-family="Arial" font-weight="bold" font-size="14.00">Predict 23.93</text>
<text text-anchor="start" x="712" y="-48.8" font-family="Arial" font-weight="bold" font-size="14.00">n = 35</text>
<text text-anchor="start" x="730.5" y="-30.8" font-family="Arial" font-size="9.00"> </text>
<path fill="none" stroke="#333333" d="M687,-27C687,-27 777,-27 777,-27 783,-27 789,-33 789,-39 789,-39 789,-79 789,-79 789,-85 783,-91 777,-91 777,-91 687,-91 687,-91 681,-91 675,-85 675,-79 675,-79 675,-39 675,-39 675,-33 681,-27 687,-27"/>
<text text-anchor="start" x="730" y="-12.8" font-family="Arial" font-weight="bold" font-size="14.00"> </text>
</g>
<!-- 15&#45;&gt;16 -->
<g id="edge17" class="edge">
<title>15&#45;&gt;16</title>
<path fill="none" stroke="#888888" d="M826.28,-153.67C816.95,-144.39 807.24,-134.75 797.76,-125.33"/>
<polygon fill="#888888" stroke="#888888" points="800.12,-122.74 790.56,-118.18 795.19,-127.71 800.12,-122.74"/>
</g>
<!-- 17 -->
<g id="node19" class="node">
<title>17</title>
<text text-anchor="start" x="863.5" y="-99.8" font-family="Arial" font-weight="bold" font-size="14.00"> ≥ 25.58</text>
<path fill="#f8766d" fill-opacity="0.682353" stroke="transparent" d="M843,-27C843,-27 933,-27 933,-27 939,-27 945,-33 945,-39 945,-39 945,-79 945,-79 945,-85 939,-91 933,-91 933,-91 843,-91 843,-91 837,-91 831,-85 831,-79 831,-79 831,-39 831,-39 831,-33 837,-27 843,-27"/>
<text text-anchor="start" x="832" y="-88.4" font-family="Arial" font-size="2.00"> </text>
<text text-anchor="start" x="832" y="-82.4" font-family="Arial" font-size="7.00"> &#160;17</text>
<text text-anchor="start" x="846" y="-65.8" font-family="Arial" font-weight="bold" font-size="14.00">Predict 25.92</text>
<text text-anchor="start" x="868" y="-48.8" font-family="Arial" font-weight="bold" font-size="14.00">n = 15</text>
<text text-anchor="start" x="886.5" y="-30.8" font-family="Arial" font-size="9.00"> </text>
<path fill="none" stroke="#333333" d="M843,-27C843,-27 933,-27 933,-27 939,-27 945,-33 945,-39 945,-39 945,-79 945,-79 945,-85 939,-91 933,-91 933,-91 843,-91 843,-91 837,-91 831,-85 831,-79 831,-79 831,-39 831,-39 831,-33 837,-27 843,-27"/>
<text text-anchor="start" x="886" y="-12.8" font-family="Arial" font-weight="bold" font-size="14.00"> </text>
</g>
<!-- 15&#45;&gt;17 -->
<g id="edge18" class="edge">
<title>15&#45;&gt;17</title>
<path fill="none" stroke="#888888" d="M886.15,-153.67C886.31,-145.39 886.48,-136.83 886.65,-128.38"/>
<polygon fill="#888888" stroke="#888888" points="890.15,-128.24 886.85,-118.18 883.16,-128.11 890.15,-128.24"/>
</g>
<!-- 19 -->
<g id="node20" class="node">
<title>19</title>
<text text-anchor="start" x="1022.5" y="-99.8" font-family="Arial" font-weight="bold" font-size="14.00"> &lt; 16.5</text>
<path fill="#f8766d" fill-opacity="0.639216" stroke="transparent" d="M999,-27C999,-27 1089,-27 1089,-27 1095,-27 1101,-33 1101,-39 1101,-39 1101,-79 1101,-79 1101,-85 1095,-91 1089,-91 1089,-91 999,-91 999,-91 993,-91 987,-85 987,-79 987,-79 987,-39 987,-39 987,-33 993,-27 999,-27"/>
<text text-anchor="start" x="988" y="-88.4" font-family="Arial" font-size="2.00"> </text>
<text text-anchor="start" x="988" y="-82.4" font-family="Arial" font-size="7.00"> &#160;19</text>
<text text-anchor="start" x="1002" y="-65.8" font-family="Arial" font-weight="bold" font-size="14.00">Predict 27.15</text>
<text text-anchor="start" x="1024" y="-48.8" font-family="Arial" font-weight="bold" font-size="14.00">n = 81</text>
<text text-anchor="start" x="1042.5" y="-30.8" font-family="Arial" font-size="9.00"> </text>
<path fill="none" stroke="#333333" d="M999,-27C999,-27 1089,-27 1089,-27 1095,-27 1101,-33 1101,-39 1101,-39 1101,-79 1101,-79 1101,-85 1095,-91 1089,-91 1089,-91 999,-91 999,-91 993,-91 987,-85 987,-79 987,-79 987,-39 987,-39 987,-33 993,-27 999,-27"/>
<text text-anchor="start" x="1042" y="-12.8" font-family="Arial" font-weight="bold" font-size="14.00"> </text>
</g>
<!-- 18&#45;&gt;19 -->
<g id="edge19" class="edge">
<title>18&#45;&gt;19</title>
<path fill="none" stroke="#888888" d="M1045.85,-153.67C1045.69,-145.39 1045.52,-136.83 1045.35,-128.38"/>
<polygon fill="#888888" stroke="#888888" points="1048.84,-128.11 1045.15,-118.18 1041.85,-128.24 1048.84,-128.11"/>
</g>
<!-- 20 -->
<g id="node21" class="node">
<title>20</title>
<text text-anchor="start" x="1179" y="-99.8" font-family="Arial" font-weight="bold" font-size="14.00"> ≥ 16.5</text>
<path fill="#f8766d" fill-opacity="0.729412" stroke="transparent" d="M1155,-27C1155,-27 1245,-27 1245,-27 1251,-27 1257,-33 1257,-39 1257,-39 1257,-79 1257,-79 1257,-85 1251,-91 1245,-91 1245,-91 1155,-91 1155,-91 1149,-91 1143,-85 1143,-79 1143,-79 1143,-39 1143,-39 1143,-33 1149,-27 1155,-27"/>
<text text-anchor="start" x="1144" y="-88.4" font-family="Arial" font-size="2.00"> </text>
<text text-anchor="start" x="1144" y="-82.4" font-family="Arial" font-size="7.00"> &#160;20</text>
<text text-anchor="start" x="1158" y="-65.8" font-family="Arial" font-weight="bold" font-size="14.00">Predict 24.52</text>
<text text-anchor="start" x="1180" y="-48.8" font-family="Arial" font-weight="bold" font-size="14.00">n = 24</text>
<text text-anchor="start" x="1198.5" y="-30.8" font-family="Arial" font-size="9.00"> </text>
<path fill="none" stroke="#333333" d="M1155,-27C1155,-27 1245,-27 1245,-27 1251,-27 1257,-33 1257,-39 1257,-39 1257,-79 1257,-79 1257,-85 1251,-91 1245,-91 1245,-91 1155,-91 1155,-91 1149,-91 1143,-85 1143,-79 1143,-79 1143,-39 1143,-39 1143,-33 1149,-27 1155,-27"/>
<text text-anchor="start" x="1198" y="-12.8" font-family="Arial" font-weight="bold" font-size="14.00"> </text>
</g>
<!-- 18&#45;&gt;20 -->
<g id="edge20" class="edge">
<title>18&#45;&gt;20</title>
<path fill="none" stroke="#888888" d="M1105.72,-153.67C1115.05,-144.39 1124.76,-134.75 1134.24,-125.33"/>
<polygon fill="#888888" stroke="#888888" points="1136.81,-127.71 1141.44,-118.18 1131.88,-122.74 1136.81,-127.71"/>
</g>
<!-- 23 -->
<g id="node24" class="node">
<title>23</title>
<text text-anchor="start" x="1334.5" y="-99.8" font-family="Arial" font-weight="bold" font-size="14.00"> &lt; 9.5</text>
<path fill="#f8766d" fill-opacity="0.482353" stroke="transparent" d="M1311,-27C1311,-27 1393,-27 1393,-27 1399,-27 1405,-33 1405,-39 1405,-39 1405,-79 1405,-79 1405,-85 1399,-91 1393,-91 1393,-91 1311,-91 1311,-91 1305,-91 1299,-85 1299,-79 1299,-79 1299,-39 1299,-39 1299,-33 1305,-27 1311,-27"/>
<text text-anchor="start" x="1300" y="-88.4" font-family="Arial" font-size="2.00"> </text>
<text text-anchor="start" x="1300" y="-82.4" font-family="Arial" font-size="7.00"> &#160;23</text>
<text text-anchor="start" x="1314" y="-65.8" font-family="Arial" font-weight="bold" font-size="14.00">Predict 31.8</text>
<text text-anchor="start" x="1336" y="-48.8" font-family="Arial" font-weight="bold" font-size="14.00">n = 3</text>
<text text-anchor="start" x="1350.5" y="-30.8" font-family="Arial" font-size="9.00"> </text>
<path fill="none" stroke="#333333" d="M1311,-27C1311,-27 1393,-27 1393,-27 1399,-27 1405,-33 1405,-39 1405,-39 1405,-79 1405,-79 1405,-85 1399,-91 1393,-91 1393,-91 1311,-91 1311,-91 1305,-91 1299,-85 1299,-79 1299,-79 1299,-39 1299,-39 1299,-33 1305,-27 1311,-27"/>
<text text-anchor="start" x="1350" y="-12.8" font-family="Arial" font-weight="bold" font-size="14.00"> </text>
</g>
<!-- 22&#45;&gt;23 -->
<g id="edge23" class="edge">
<title>22&#45;&gt;23</title>
<path fill="none" stroke="#888888" d="M1398.83,-153.67C1394.52,-145.03 1390.04,-136.07 1385.64,-127.27"/>
<polygon fill="#888888" stroke="#888888" points="1388.69,-125.56 1381.09,-118.18 1382.43,-128.69 1388.69,-125.56"/>
</g>
<!-- 24 -->
<g id="node25" class="node">
<title>24</title>
<text text-anchor="start" x="1487" y="-99.8" font-family="Arial" font-weight="bold" font-size="14.00"> ≥ 9.5</text>
<path fill="#f8766d" fill-opacity="0.627451" stroke="transparent" d="M1459,-27C1459,-27 1549,-27 1549,-27 1555,-27 1561,-33 1561,-39 1561,-39 1561,-79 1561,-79 1561,-85 1555,-91 1549,-91 1549,-91 1459,-91 1459,-91 1453,-91 1447,-85 1447,-79 1447,-79 1447,-39 1447,-39 1447,-33 1453,-27 1459,-27"/>
<text text-anchor="start" x="1448" y="-88.4" font-family="Arial" font-size="2.00"> </text>
<text text-anchor="start" x="1448" y="-82.4" font-family="Arial" font-size="7.00"> &#160;24</text>
<text text-anchor="start" x="1462" y="-65.8" font-family="Arial" font-weight="bold" font-size="14.00">Predict 27.46</text>
<text text-anchor="start" x="1484" y="-48.8" font-family="Arial" font-weight="bold" font-size="14.00">n = 24</text>
<text text-anchor="start" x="1502.5" y="-30.8" font-family="Arial" font-size="9.00"> </text>
<path fill="none" stroke="#333333" d="M1459,-27C1459,-27 1549,-27 1549,-27 1555,-27 1561,-33 1561,-39 1561,-39 1561,-79 1561,-79 1561,-85 1555,-91 1549,-91 1549,-91 1459,-91 1459,-91 1453,-91 1447,-85 1447,-79 1447,-79 1447,-39 1447,-39 1447,-33 1453,-27 1459,-27"/>
<text text-anchor="start" x="1502" y="-12.8" font-family="Arial" font-weight="bold" font-size="14.00"> </text>
</g>
<!-- 22&#45;&gt;24 -->
<g id="edge24" class="edge">
<title>22&#45;&gt;24</title>
<path fill="none" stroke="#888888" d="M1457.17,-153.67C1461.48,-145.03 1465.96,-136.07 1470.36,-127.27"/>
<polygon fill="#888888" stroke="#888888" points="1473.57,-128.69 1474.91,-118.18 1467.31,-125.56 1473.57,-128.69"/>
</g>
<!-- 26 -->
<g id="node26" class="node">
<title>26</title>
<text text-anchor="start" x="1648" y="-99.8" font-family="Arial" font-weight="bold" font-size="14.00"> &lt; 7</text>
<path fill="#f8766d" fill-opacity="0.576471" stroke="transparent" d="M1615,-27C1615,-27 1705,-27 1705,-27 1711,-27 1717,-33 1717,-39 1717,-39 1717,-79 1717,-79 1717,-85 1711,-91 1705,-91 1705,-91 1615,-91 1615,-91 1609,-91 1603,-85 1603,-79 1603,-79 1603,-39 1603,-39 1603,-33 1609,-27 1615,-27"/>
<text text-anchor="start" x="1604" y="-88.4" font-family="Arial" font-size="2.00"> </text>
<text text-anchor="start" x="1604" y="-82.4" font-family="Arial" font-size="7.00"> &#160;26</text>
<text text-anchor="start" x="1618" y="-65.8" font-family="Arial" font-weight="bold" font-size="14.00">Predict 28.98</text>
<text text-anchor="start" x="1640" y="-48.8" font-family="Arial" font-weight="bold" font-size="14.00">n = 17</text>
<text text-anchor="start" x="1658.5" y="-30.8" font-family="Arial" font-size="9.00"> </text>
<path fill="none" stroke="#333333" d="M1615,-27C1615,-27 1705,-27 1705,-27 1711,-27 1717,-33 1717,-39 1717,-39 1717,-79 1717,-79 1717,-85 1711,-91 1705,-91 1705,-91 1615,-91 1615,-91 1609,-91 1603,-85 1603,-79 1603,-79 1603,-39 1603,-39 1603,-33 1609,-27 1615,-27"/>
<text text-anchor="start" x="1658" y="-12.8" font-family="Arial" font-weight="bold" font-size="14.00"> </text>
</g>
<!-- 25&#45;&gt;26 -->
<g id="edge25" class="edge">
<title>25&#45;&gt;26</title>
<path fill="none" stroke="#888888" d="M1660,-153.67C1660,-145.39 1660,-136.83 1660,-128.38"/>
<polygon fill="#888888" stroke="#888888" points="1663.5,-128.18 1660,-118.18 1656.5,-128.18 1663.5,-128.18"/>
</g>
<!-- 27 -->
<g id="node27" class="node">
<title>27</title>
<text text-anchor="start" x="1804.5" y="-99.8" font-family="Arial" font-weight="bold" font-size="14.00"> ≥ 7</text>
<path fill="#f8766d" fill-opacity="0.376471" stroke="transparent" d="M1771,-27C1771,-27 1861,-27 1861,-27 1867,-27 1873,-33 1873,-39 1873,-39 1873,-79 1873,-79 1873,-85 1867,-91 1861,-91 1861,-91 1771,-91 1771,-91 1765,-91 1759,-85 1759,-79 1759,-79 1759,-39 1759,-39 1759,-33 1765,-27 1771,-27"/>
<text text-anchor="start" x="1760" y="-88.4" font-family="Arial" font-size="2.00"> </text>
<text text-anchor="start" x="1760" y="-82.4" font-family="Arial" font-size="7.00"> &#160;27</text>
<text text-anchor="start" x="1774" y="-65.8" font-family="Arial" font-weight="bold" font-size="14.00">Predict 35.04</text>
<text text-anchor="start" x="1800" y="-48.8" font-family="Arial" font-weight="bold" font-size="14.00">n = 3</text>
<text text-anchor="start" x="1814.5" y="-30.8" font-family="Arial" font-size="9.00"> </text>
<path fill="none" stroke="#333333" d="M1771,-27C1771,-27 1861,-27 1861,-27 1867,-27 1873,-33 1873,-39 1873,-39 1873,-79 1873,-79 1873,-85 1867,-91 1861,-91 1861,-91 1771,-91 1771,-91 1765,-91 1759,-85 1759,-79 1759,-79 1759,-39 1759,-39 1759,-33 1765,-27 1771,-27"/>
<text text-anchor="start" x="1814" y="-12.8" font-family="Arial" font-weight="bold" font-size="14.00"> </text>
</g>
<!-- 25&#45;&gt;27 -->
<g id="edge26" class="edge">
<title>25&#45;&gt;27</title>
<path fill="none" stroke="#888888" d="M1719.87,-153.67C1729.38,-144.39 1739.28,-134.75 1748.95,-125.33"/>
<polygon fill="#888888" stroke="#888888" points="1751.57,-127.66 1756.29,-118.18 1746.69,-122.65 1751.57,-127.66"/>
</g>
</g>
</svg>
