<?xml version="1.0" encoding="UTF-8" standalone="no"?>
<!DOCTYPE svg PUBLIC "-//W3C//DTD SVG 1.1//EN"
 "http://www.w3.org/Graphics/SVG/1.1/DTD/svg11.dtd">
<!-- Generated by graphviz version 2.50.0 (20211204.2007)
 -->
<!-- Pages: 1 -->
<svg width="606pt" height="742pt"
 viewBox="0.00 0.00 606.00 742.00" xmlns="http://www.w3.org/2000/svg" xmlns:xlink="http://www.w3.org/1999/xlink">
<g id="graph0" class="graph" transform="scale(1 1) rotate(0) translate(4 738)">
<polygon fill="white" stroke="transparent" points="-4,4 -4,-738 602,-738 602,4 -4,4"/>
<!-- 1 -->
<g id="node1" class="node">
<title>1</title>
<text text-anchor="start" x="221" y="-715.8" font-family="Arial" font-weight="bold" font-size="14.00"> </text>
<path fill="#ebebeb" stroke="transparent" d="M181,-643C181,-643 265,-643 265,-643 271,-643 277,-649 277,-655 277,-655 277,-695 277,-695 277,-701 271,-707 265,-707 265,-707 181,-707 181,-707 175,-707 169,-701 169,-695 169,-695 169,-655 169,-655 169,-649 175,-643 181,-643"/>
<text text-anchor="start" x="170" y="-704.4" font-family="Arial" font-size="2.00"> </text>
<text text-anchor="start" x="170" y="-698.4" font-family="Arial" font-size="7.00"> &#160;1</text>
<text text-anchor="start" x="184" y="-681.8" font-family="Arial" font-weight="bold" font-size="14.00">Mean: 9.992</text>
<text text-anchor="start" x="199.5" y="-664.8" font-family="Arial" font-weight="bold" font-size="14.00">n = 168</text>
<text text-anchor="start" x="221.5" y="-646.8" font-family="Arial" font-size="9.00"> </text>
<path fill="none" stroke="#333333" d="M181,-643C181,-643 265,-643 265,-643 271,-643 277,-649 277,-655 277,-655 277,-695 277,-695 277,-701 271,-707 265,-707 265,-707 181,-707 181,-707 175,-707 169,-701 169,-695 169,-695 169,-655 169,-655 169,-649 175,-643 181,-643"/>
<text text-anchor="start" x="208.5" y="-628.8" font-family="Arial" font-weight="bold" font-size="14.00">time</text>
</g>
<!-- 2 -->
<g id="node2" class="node">
<title>2</title>
<text text-anchor="start" x="129.5" y="-561.8" font-family="Arial" font-weight="bold" font-size="14.00"> &lt; 5.5</text>
<path fill="#f8766d" fill-opacity="0.847059" stroke="transparent" d="M102,-489C102,-489 192,-489 192,-489 198,-489 204,-495 204,-501 204,-501 204,-541 204,-541 204,-547 198,-553 192,-553 192,-553 102,-553 102,-553 96,-553 90,-547 90,-541 90,-541 90,-501 90,-501 90,-495 96,-489 102,-489"/>
<text text-anchor="start" x="91" y="-550.4" font-family="Arial" font-size="2.00"> </text>
<text text-anchor="start" x="91" y="-544.4" font-family="Arial" font-size="7.00"> &#160;2</text>
<text text-anchor="start" x="105" y="-527.8" font-family="Arial" font-weight="bold" font-size="14.00">Predict 8.435</text>
<text text-anchor="start" x="127" y="-510.8" font-family="Arial" font-weight="bold" font-size="14.00">n = 42</text>
<text text-anchor="start" x="145.5" y="-492.8" font-family="Arial" font-size="9.00"> </text>
<path fill="none" stroke="#333333" d="M102,-489C102,-489 192,-489 192,-489 198,-489 204,-495 204,-501 204,-501 204,-541 204,-541 204,-547 198,-553 192,-553 192,-553 102,-553 102,-553 96,-553 90,-547 90,-541 90,-541 90,-501 90,-501 90,-495 96,-489 102,-489"/>
<text text-anchor="start" x="145" y="-474.8" font-family="Arial" font-weight="bold" font-size="14.00"> </text>
</g>
<!-- 1&#45;&gt;2 -->
<g id="edge1" class="edge">
<title>1&#45;&gt;2</title>
<path fill="none" stroke="#888888" d="M193.83,-615.67C189.52,-607.03 185.04,-598.07 180.64,-589.27"/>
<polygon fill="#888888" stroke="#888888" points="183.69,-587.56 176.09,-580.18 177.43,-590.69 183.69,-587.56"/>
</g>
<!-- 3 -->
<g id="node3" class="node">
<title>3</title>
<text text-anchor="start" x="283" y="-561.8" font-family="Arial" font-weight="bold" font-size="14.00"> ≥ 5.5</text>
<path fill="#ebebeb" stroke="transparent" d="M258,-489C258,-489 342,-489 342,-489 348,-489 354,-495 354,-501 354,-501 354,-541 354,-541 354,-547 348,-553 342,-553 342,-553 258,-553 258,-553 252,-553 246,-547 246,-541 246,-541 246,-501 246,-501 246,-495 252,-489 258,-489"/>
<text text-anchor="start" x="247" y="-550.4" font-family="Arial" font-size="2.00"> </text>
<text text-anchor="start" x="247" y="-544.4" font-family="Arial" font-size="7.00"> &#160;3</text>
<text text-anchor="start" x="261" y="-527.8" font-family="Arial" font-weight="bold" font-size="14.00">Mean: 10.51</text>
<text text-anchor="start" x="276.5" y="-510.8" font-family="Arial" font-weight="bold" font-size="14.00">n = 126</text>
<text text-anchor="start" x="298.5" y="-492.8" font-family="Arial" font-size="9.00"> </text>
<path fill="none" stroke="#333333" d="M258,-489C258,-489 342,-489 342,-489 348,-489 354,-495 354,-501 354,-501 354,-541 354,-541 354,-547 348,-553 342,-553 342,-553 258,-553 258,-553 252,-553 246,-547 246,-541 246,-541 246,-501 246,-501 246,-495 252,-489 258,-489"/>
<text text-anchor="start" x="285.5" y="-474.8" font-family="Arial" font-weight="bold" font-size="14.00">time</text>
</g>
<!-- 1&#45;&gt;3 -->
<g id="edge2" class="edge">
<title>1&#45;&gt;3</title>
<path fill="none" stroke="#888888" d="M252.55,-615.67C256.93,-607.03 261.46,-598.07 265.92,-589.27"/>
<polygon fill="#888888" stroke="#888888" points="269.13,-590.68 270.53,-580.18 262.89,-587.52 269.13,-590.68"/>
</g>
<!-- 4 -->
<g id="node4" class="node">
<title>4</title>
<text text-anchor="start" x="199.5" y="-407.8" font-family="Arial" font-weight="bold" font-size="14.00"> &lt; 14.5</text>
<text text-anchor="start" x="157" y="-363.3" font-family="Arial" font-size="14.00"> &#160;</text>
<path fill="#ebebeb" stroke="transparent" d="M179,-335C179,-335 263,-335 263,-335 269,-335 275,-341 275,-347 275,-347 275,-387 275,-387 275,-393 269,-399 263,-399 263,-399 179,-399 179,-399 173,-399 167,-393 167,-387 167,-387 167,-347 167,-347 167,-341 173,-335 179,-335"/>
<text text-anchor="start" x="168" y="-396.4" font-family="Arial" font-size="2.00"> </text>
<text text-anchor="start" x="168" y="-390.4" font-family="Arial" font-size="7.00"> &#160;4</text>
<text text-anchor="start" x="182" y="-373.8" font-family="Arial" font-weight="bold" font-size="14.00">Mean: 10.68</text>
<text text-anchor="start" x="201" y="-356.8" font-family="Arial" font-weight="bold" font-size="14.00">n = 63</text>
<text text-anchor="start" x="219.5" y="-338.8" font-family="Arial" font-size="9.00"> </text>
<path fill="none" stroke="#333333" d="M179,-335C179,-335 263,-335 263,-335 269,-335 275,-341 275,-347 275,-347 275,-387 275,-387 275,-393 269,-399 263,-399 263,-399 179,-399 179,-399 173,-399 167,-393 167,-387 167,-387 167,-347 167,-347 167,-341 173,-335 179,-335"/>
<text text-anchor="start" x="277" y="-363.3" font-family="Arial" font-size="14.00"> &#160;</text>
<text text-anchor="start" x="171" y="-320.8" font-family="Arial" font-weight="bold" font-size="14.00">prev_1h_inflow</text>
</g>
<!-- 3&#45;&gt;4 -->
<g id="edge3" class="edge">
<title>3&#45;&gt;4</title>
<path fill="none" stroke="#888888" d="M269.68,-461.67C265.19,-453.03 260.54,-444.07 255.96,-435.27"/>
<polygon fill="#888888" stroke="#888888" points="258.95,-433.44 251.24,-426.18 252.74,-436.66 258.95,-433.44"/>
</g>
<!-- 9 -->
<g id="node5" class="node">
<title>9</title>
<text text-anchor="start" x="358" y="-407.8" font-family="Arial" font-weight="bold" font-size="14.00"> ≥ 14.5</text>
<path fill="#ebebeb" stroke="transparent" d="M337,-335C337,-335 421,-335 421,-335 427,-335 433,-341 433,-347 433,-347 433,-387 433,-387 433,-393 427,-399 421,-399 421,-399 337,-399 337,-399 331,-399 325,-393 325,-387 325,-387 325,-347 325,-347 325,-341 331,-335 337,-335"/>
<text text-anchor="start" x="326" y="-396.4" font-family="Arial" font-size="2.00"> </text>
<text text-anchor="start" x="326" y="-390.4" font-family="Arial" font-size="7.00"> &#160;9</text>
<text text-anchor="start" x="340" y="-373.8" font-family="Arial" font-weight="bold" font-size="14.00">Mean: 10.35</text>
<text text-anchor="start" x="359" y="-356.8" font-family="Arial" font-weight="bold" font-size="14.00">n = 63</text>
<text text-anchor="start" x="377.5" y="-338.8" font-family="Arial" font-size="9.00"> </text>
<path fill="none" stroke="#333333" d="M337,-335C337,-335 421,-335 421,-335 427,-335 433,-341 433,-347 433,-347 433,-387 433,-387 433,-393 427,-399 421,-399 421,-399 337,-399 337,-399 331,-399 325,-393 325,-387 325,-387 325,-347 325,-347 325,-341 331,-335 337,-335"/>
<text text-anchor="start" x="364.5" y="-320.8" font-family="Arial" font-weight="bold" font-size="14.00">time</text>
</g>
<!-- 3&#45;&gt;9 -->
<g id="edge4" class="edge">
<title>3&#45;&gt;9</title>
<path fill="none" stroke="#888888" d="M330.32,-461.67C334.81,-453.03 339.46,-444.07 344.04,-435.27"/>
<polygon fill="#888888" stroke="#888888" points="347.26,-436.66 348.76,-426.18 341.05,-433.44 347.26,-436.66"/>
</g>
<!-- 5 -->
<g id="node6" class="node">
<title>5</title>
<text text-anchor="start" x="47.5" y="-253.8" font-family="Arial" font-weight="bold" font-size="14.00"> &lt; 9.12</text>
<path fill="#f8766d" fill-opacity="0.737255" stroke="transparent" d="M24,-181C24,-181 114,-181 114,-181 120,-181 126,-187 126,-193 126,-193 126,-233 126,-233 126,-239 120,-245 114,-245 114,-245 24,-245 24,-245 18,-245 12,-239 12,-233 12,-233 12,-193 12,-193 12,-187 18,-181 24,-181"/>
<text text-anchor="start" x="13" y="-242.4" font-family="Arial" font-size="2.00"> </text>
<text text-anchor="start" x="13" y="-236.4" font-family="Arial" font-size="7.00"> &#160;5</text>
<text text-anchor="start" x="27" y="-219.8" font-family="Arial" font-weight="bold" font-size="14.00">Predict 9.297</text>
<text text-anchor="start" x="49" y="-202.8" font-family="Arial" font-weight="bold" font-size="14.00">n = 10</text>
<text text-anchor="start" x="67.5" y="-184.8" font-family="Arial" font-size="9.00"> </text>
<path fill="none" stroke="#333333" d="M24,-181C24,-181 114,-181 114,-181 120,-181 126,-187 126,-193 126,-193 126,-233 126,-233 126,-239 120,-245 114,-245 114,-245 24,-245 24,-245 18,-245 12,-239 12,-233 12,-233 12,-193 12,-193 12,-187 18,-181 24,-181"/>
<text text-anchor="start" x="67" y="-166.8" font-family="Arial" font-weight="bold" font-size="14.00"> </text>
</g>
<!-- 4&#45;&gt;5 -->
<g id="edge5" class="edge">
<title>4&#45;&gt;5</title>
<path fill="none" stroke="#888888" d="M162.67,-307.67C153.39,-298.39 143.75,-288.75 134.33,-279.33"/>
<polygon fill="#888888" stroke="#888888" points="136.72,-276.77 127.18,-272.18 131.77,-281.72 136.72,-276.77"/>
</g>
<!-- 6 -->
<g id="node7" class="node">
<title>6</title>
<text text-anchor="start" x="201" y="-253.8" font-family="Arial" font-weight="bold" font-size="14.00"> ≥ 9.12</text>
<path fill="#ebebeb" stroke="transparent" d="M180,-181C180,-181 264,-181 264,-181 270,-181 276,-187 276,-193 276,-193 276,-233 276,-233 276,-239 270,-245 264,-245 264,-245 180,-245 180,-245 174,-245 168,-239 168,-233 168,-233 168,-193 168,-193 168,-187 174,-181 180,-181"/>
<text text-anchor="start" x="169" y="-242.4" font-family="Arial" font-size="2.00"> </text>
<text text-anchor="start" x="169" y="-236.4" font-family="Arial" font-size="7.00"> &#160;6</text>
<text text-anchor="start" x="183" y="-219.8" font-family="Arial" font-weight="bold" font-size="14.00">Mean: 10.94</text>
<text text-anchor="start" x="202" y="-202.8" font-family="Arial" font-weight="bold" font-size="14.00">n = 53</text>
<text text-anchor="start" x="220.5" y="-184.8" font-family="Arial" font-size="9.00"> </text>
<path fill="none" stroke="#333333" d="M180,-181C180,-181 264,-181 264,-181 270,-181 276,-187 276,-193 276,-193 276,-233 276,-233 276,-239 270,-245 264,-245 264,-245 180,-245 180,-245 174,-245 168,-239 168,-233 168,-233 168,-193 168,-193 168,-187 174,-181 180,-181"/>
<text text-anchor="start" x="179.5" y="-166.8" font-family="Arial" font-weight="bold" font-size="14.00">day_of_week</text>
</g>
<!-- 4&#45;&gt;6 -->
<g id="edge6" class="edge">
<title>4&#45;&gt;6</title>
<path fill="none" stroke="#888888" d="M221.38,-307.67C221.44,-299.39 221.49,-290.83 221.55,-282.38"/>
<polygon fill="#888888" stroke="#888888" points="225.05,-282.2 221.62,-272.18 218.05,-282.15 225.05,-282.2"/>
</g>
<!-- 10 -->
<g id="node10" class="node">
<title>10</title>
<text text-anchor="start" x="354.5" y="-253.8" font-family="Arial" font-weight="bold" font-size="14.00"> &lt; 21.5</text>
<path fill="#ebebeb" stroke="transparent" d="M334,-181C334,-181 418,-181 418,-181 424,-181 430,-187 430,-193 430,-193 430,-233 430,-233 430,-239 424,-245 418,-245 418,-245 334,-245 334,-245 328,-245 322,-239 322,-233 322,-233 322,-193 322,-193 322,-187 328,-181 334,-181"/>
<text text-anchor="start" x="323" y="-242.4" font-family="Arial" font-size="2.00"> </text>
<text text-anchor="start" x="323" y="-236.4" font-family="Arial" font-size="7.00"> &#160;10</text>
<text text-anchor="start" x="337" y="-219.8" font-family="Arial" font-weight="bold" font-size="14.00">Mean: 10.74</text>
<text text-anchor="start" x="356" y="-202.8" font-family="Arial" font-weight="bold" font-size="14.00">n = 49</text>
<text text-anchor="start" x="374.5" y="-184.8" font-family="Arial" font-size="9.00"> </text>
<path fill="none" stroke="#333333" d="M334,-181C334,-181 418,-181 418,-181 424,-181 430,-187 430,-193 430,-193 430,-233 430,-233 430,-239 424,-245 418,-245 418,-245 334,-245 334,-245 328,-245 322,-239 322,-233 322,-233 322,-193 322,-193 322,-187 328,-181 334,-181"/>
<text text-anchor="start" x="343" y="-166.8" font-family="Arial" font-weight="bold" font-size="14.00">air_humid</text>
</g>
<!-- 9&#45;&gt;10 -->
<g id="edge9" class="edge">
<title>9&#45;&gt;10</title>
<path fill="none" stroke="#888888" d="M377.85,-307.67C377.69,-299.39 377.52,-290.83 377.35,-282.38"/>
<polygon fill="#888888" stroke="#888888" points="380.84,-282.11 377.15,-272.18 373.85,-282.24 380.84,-282.11"/>
</g>
<!-- 13 -->
<g id="node11" class="node">
<title>13</title>
<text text-anchor="start" x="508" y="-253.8" font-family="Arial" font-weight="bold" font-size="14.00"> ≥ 21.5</text>
<path fill="#f8766d" fill-opacity="0.784314" stroke="transparent" d="M484,-181C484,-181 574,-181 574,-181 580,-181 586,-187 586,-193 586,-193 586,-233 586,-233 586,-239 580,-245 574,-245 574,-245 484,-245 484,-245 478,-245 472,-239 472,-233 472,-233 472,-193 472,-193 472,-187 478,-181 484,-181"/>
<text text-anchor="start" x="473" y="-242.4" font-family="Arial" font-size="2.00"> </text>
<text text-anchor="start" x="473" y="-236.4" font-family="Arial" font-size="7.00"> &#160;13</text>
<text text-anchor="start" x="487" y="-219.8" font-family="Arial" font-weight="bold" font-size="14.00">Predict 8.956</text>
<text text-anchor="start" x="509" y="-202.8" font-family="Arial" font-weight="bold" font-size="14.00">n = 14</text>
<text text-anchor="start" x="527.5" y="-184.8" font-family="Arial" font-size="9.00"> </text>
<path fill="none" stroke="#333333" d="M484,-181C484,-181 574,-181 574,-181 580,-181 586,-187 586,-193 586,-193 586,-233 586,-233 586,-239 580,-245 574,-245 574,-245 484,-245 484,-245 478,-245 472,-239 472,-233 472,-233 472,-193 472,-193 472,-187 478,-181 484,-181"/>
<text text-anchor="start" x="527" y="-166.8" font-family="Arial" font-weight="bold" font-size="14.00"> </text>
</g>
<!-- 9&#45;&gt;13 -->
<g id="edge10" class="edge">
<title>9&#45;&gt;13</title>
<path fill="none" stroke="#888888" d="M436.56,-307.67C445.72,-298.39 455.23,-288.75 464.53,-279.33"/>
<polygon fill="#888888" stroke="#888888" points="467.06,-281.75 471.59,-272.18 462.07,-276.84 467.06,-281.75"/>
</g>
<!-- 7 -->
<g id="node8" class="node">
<title>7</title>
<text text-anchor="start" x="53.5" y="-99.8" font-family="Arial" font-weight="bold" font-size="14.00"> &lt; 5.5</text>
<path fill="#f8766d" fill-opacity="0.588235" stroke="transparent" d="M30,-27C30,-27 112,-27 112,-27 118,-27 124,-33 124,-39 124,-39 124,-79 124,-79 124,-85 118,-91 112,-91 112,-91 30,-91 30,-91 24,-91 18,-85 18,-79 18,-79 18,-39 18,-39 18,-33 24,-27 30,-27"/>
<text text-anchor="start" x="19" y="-88.4" font-family="Arial" font-size="2.00"> </text>
<text text-anchor="start" x="19" y="-82.4" font-family="Arial" font-size="7.00"> &#160;7</text>
<text text-anchor="start" x="33" y="-65.8" font-family="Arial" font-weight="bold" font-size="14.00">Predict 10.5</text>
<text text-anchor="start" x="51" y="-48.8" font-family="Arial" font-weight="bold" font-size="14.00">n = 39</text>
<text text-anchor="start" x="69.5" y="-30.8" font-family="Arial" font-size="9.00"> </text>
<path fill="none" stroke="#333333" d="M30,-27C30,-27 112,-27 112,-27 118,-27 124,-33 124,-39 124,-39 124,-79 124,-79 124,-85 118,-91 112,-91 112,-91 30,-91 30,-91 24,-91 18,-85 18,-79 18,-79 18,-39 18,-39 18,-33 24,-27 30,-27"/>
<text text-anchor="start" x="69" y="-12.8" font-family="Arial" font-weight="bold" font-size="14.00"> </text>
</g>
<!-- 6&#45;&gt;7 -->
<g id="edge7" class="edge">
<title>6&#45;&gt;7</title>
<path fill="none" stroke="#888888" d="M164.05,-153.67C154.84,-144.39 145.26,-134.75 135.9,-125.33"/>
<polygon fill="#888888" stroke="#888888" points="138.32,-122.8 128.79,-118.18 133.36,-127.74 138.32,-122.8"/>
</g>
<!-- 8 -->
<g id="node9" class="node">
<title>8</title>
<text text-anchor="start" x="206" y="-99.8" font-family="Arial" font-weight="bold" font-size="14.00"> ≥ 5.5</text>
<path fill="#f8766d" fill-opacity="0.376471" stroke="transparent" d="M178,-27C178,-27 268,-27 268,-27 274,-27 280,-33 280,-39 280,-39 280,-79 280,-79 280,-85 274,-91 268,-91 268,-91 178,-91 178,-91 172,-91 166,-85 166,-79 166,-79 166,-39 166,-39 166,-33 172,-27 178,-27"/>
<text text-anchor="start" x="167" y="-88.4" font-family="Arial" font-size="2.00"> </text>
<text text-anchor="start" x="167" y="-82.4" font-family="Arial" font-size="7.00"> &#160;8</text>
<text text-anchor="start" x="181" y="-65.8" font-family="Arial" font-weight="bold" font-size="14.00">Predict 12.16</text>
<text text-anchor="start" x="203" y="-48.8" font-family="Arial" font-weight="bold" font-size="14.00">n = 14</text>
<text text-anchor="start" x="221.5" y="-30.8" font-family="Arial" font-size="9.00"> </text>
<path fill="none" stroke="#333333" d="M178,-27C178,-27 268,-27 268,-27 274,-27 280,-33 280,-39 280,-39 280,-79 280,-79 280,-85 274,-91 268,-91 268,-91 178,-91 178,-91 172,-91 166,-85 166,-79 166,-79 166,-39 166,-39 166,-33 172,-27 178,-27"/>
<text text-anchor="start" x="221" y="-12.8" font-family="Arial" font-weight="bold" font-size="14.00"> </text>
</g>
<!-- 6&#45;&gt;8 -->
<g id="edge8" class="edge">
<title>6&#45;&gt;8</title>
<path fill="none" stroke="#888888" d="M222.38,-153.67C222.44,-145.39 222.49,-136.83 222.55,-128.38"/>
<polygon fill="#888888" stroke="#888888" points="226.05,-128.2 222.62,-118.18 219.05,-128.15 226.05,-128.2"/>
</g>
<!-- 11 -->
<g id="node12" class="node">
<title>11</title>
<text text-anchor="start" x="359.5" y="-99.8" font-family="Arial" font-weight="bold" font-size="14.00"> &lt; 51</text>
<path fill="#f8766d" fill-opacity="0.874510" stroke="transparent" d="M334,-27C334,-27 416,-27 416,-27 422,-27 428,-33 428,-39 428,-39 428,-79 428,-79 428,-85 422,-91 416,-91 416,-91 334,-91 334,-91 328,-91 322,-85 322,-79 322,-79 322,-39 322,-39 322,-33 328,-27 334,-27"/>
<text text-anchor="start" x="323" y="-88.4" font-family="Arial" font-size="2.00"> </text>
<text text-anchor="start" x="323" y="-82.4" font-family="Arial" font-size="7.00"> &#160;11</text>
<text text-anchor="start" x="337" y="-65.8" font-family="Arial" font-weight="bold" font-size="14.00">Predict 8.23</text>
<text text-anchor="start" x="359" y="-48.8" font-family="Arial" font-weight="bold" font-size="14.00">n = 2</text>
<text text-anchor="start" x="373.5" y="-30.8" font-family="Arial" font-size="9.00"> </text>
<path fill="none" stroke="#333333" d="M334,-27C334,-27 416,-27 416,-27 422,-27 428,-33 428,-39 428,-39 428,-79 428,-79 428,-85 422,-91 416,-91 416,-91 334,-91 334,-91 328,-91 322,-85 322,-79 322,-79 322,-39 322,-39 322,-33 328,-27 334,-27"/>
<text text-anchor="start" x="373" y="-12.8" font-family="Arial" font-weight="bold" font-size="14.00"> </text>
</g>
<!-- 10&#45;&gt;11 -->
<g id="edge11" class="edge">
<title>10&#45;&gt;11</title>
<path fill="none" stroke="#888888" d="M375.62,-153.67C375.56,-145.39 375.51,-136.83 375.45,-128.38"/>
<polygon fill="#888888" stroke="#888888" points="378.95,-128.15 375.38,-118.18 371.95,-128.2 378.95,-128.15"/>
</g>
<!-- 12 -->
<g id="node13" class="node">
<title>12</title>
<text text-anchor="start" x="511.5" y="-99.8" font-family="Arial" font-weight="bold" font-size="14.00"> ≥ 51</text>
<path fill="#f8766d" fill-opacity="0.541176" stroke="transparent" d="M482,-27C482,-27 572,-27 572,-27 578,-27 584,-33 584,-39 584,-39 584,-79 584,-79 584,-85 578,-91 572,-91 572,-91 482,-91 482,-91 476,-91 470,-85 470,-79 470,-79 470,-39 470,-39 470,-33 476,-27 482,-27"/>
<text text-anchor="start" x="471" y="-88.4" font-family="Arial" font-size="2.00"> </text>
<text text-anchor="start" x="471" y="-82.4" font-family="Arial" font-size="7.00"> &#160;12</text>
<text text-anchor="start" x="485" y="-65.8" font-family="Arial" font-weight="bold" font-size="14.00">Predict 10.85</text>
<text text-anchor="start" x="507" y="-48.8" font-family="Arial" font-weight="bold" font-size="14.00">n = 47</text>
<text text-anchor="start" x="525.5" y="-30.8" font-family="Arial" font-size="9.00"> </text>
<path fill="none" stroke="#333333" d="M482,-27C482,-27 572,-27 572,-27 578,-27 584,-33 584,-39 584,-39 584,-79 584,-79 584,-85 578,-91 572,-91 572,-91 482,-91 482,-91 476,-91 470,-85 470,-79 470,-79 470,-39 470,-39 470,-33 476,-27 482,-27"/>
<text text-anchor="start" x="525" y="-12.8" font-family="Arial" font-weight="bold" font-size="14.00"> </text>
</g>
<!-- 10&#45;&gt;12 -->
<g id="edge12" class="edge">
<title>10&#45;&gt;12</title>
<path fill="none" stroke="#888888" d="M433.95,-153.67C443.16,-144.39 452.74,-134.75 462.1,-125.33"/>
<polygon fill="#888888" stroke="#888888" points="464.64,-127.74 469.21,-118.18 459.68,-122.8 464.64,-127.74"/>
</g>
</g>
</svg>
