<?xml version="1.0" encoding="utf-8"?>
<svg xmlns="http://www.w3.org/2000/svg" xmlns:xlink="http://www.w3.org/1999/xlink" width="1000" height="400" viewBox="0 0 4000 1600">
<defs>
  <clipPath id="clip520">
    <rect x="0" y="0" width="4000" height="1600"/>
  </clipPath>
</defs>
<path clip-path="url(#clip520)" d="M0 1600 L4000 1600 L4000 0 L0 0  Z" fill="#ffffff" fill-rule="evenodd" fill-opacity="1"/>
<defs>
  <clipPath id="clip521">
    <rect x="800" y="0" width="2801" height="1600"/>
  </clipPath>
</defs>
<path clip-path="url(#clip520)" d="M203.123 1497.68 L3180.15 1497.68 L3180.15 47.2441 L203.123 47.2441  Z" fill="#ffffff" fill-rule="evenodd" fill-opacity="1"/>
<defs>
  <clipPath id="clip522">
    <rect x="203" y="47" width="2978" height="1451"/>
  </clipPath>
</defs>
<polyline clip-path="url(#clip522)" style="stroke:#000000; stroke-linecap:round; stroke-linejoin:round; stroke-width:2; stroke-opacity:0.1; fill:none" points="287.379,1497.68 287.379,47.2441 "/>
<polyline clip-path="url(#clip522)" style="stroke:#000000; stroke-linecap:round; stroke-linejoin:round; stroke-width:2; stroke-opacity:0.1; fill:none" points="1094.62,1497.68 1094.62,47.2441 "/>
<polyline clip-path="url(#clip522)" style="stroke:#000000; stroke-linecap:round; stroke-linejoin:round; stroke-width:2; stroke-opacity:0.1; fill:none" points="1901.85,1497.68 1901.85,47.2441 "/>
<polyline clip-path="url(#clip522)" style="stroke:#000000; stroke-linecap:round; stroke-linejoin:round; stroke-width:2; stroke-opacity:0.1; fill:none" points="2709.09,1497.68 2709.09,47.2441 "/>
<polyline clip-path="url(#clip520)" style="stroke:#000000; stroke-linecap:round; stroke-linejoin:round; stroke-width:4; stroke-opacity:1; fill:none" points="203.123,1497.68 3180.15,1497.68 "/>
<polyline clip-path="url(#clip520)" style="stroke:#000000; stroke-linecap:round; stroke-linejoin:round; stroke-width:4; stroke-opacity:1; fill:none" points="287.379,1497.68 287.379,1478.78 "/>
<polyline clip-path="url(#clip520)" style="stroke:#000000; stroke-linecap:round; stroke-linejoin:round; stroke-width:4; stroke-opacity:1; fill:none" points="1094.62,1497.68 1094.62,1478.78 "/>
<polyline clip-path="url(#clip520)" style="stroke:#000000; stroke-linecap:round; stroke-linejoin:round; stroke-width:4; stroke-opacity:1; fill:none" points="1901.85,1497.68 1901.85,1478.78 "/>
<polyline clip-path="url(#clip520)" style="stroke:#000000; stroke-linecap:round; stroke-linejoin:round; stroke-width:4; stroke-opacity:1; fill:none" points="2709.09,1497.68 2709.09,1478.78 "/>
<path clip-path="url(#clip520)" d="M142.367 1573.85 L160.726 1573.85 L160.726 1578.28 L136.039 1578.28 L136.039 1573.85 Q139.033 1570.75 144.19 1565.55 Q149.372 1560.31 150.7 1558.8 Q153.226 1555.96 154.216 1554.01 Q155.231 1552.03 155.231 1550.13 Q155.231 1547.03 153.044 1545.08 Q150.882 1543.12 147.393 1543.12 Q144.919 1543.12 142.158 1543.98 Q139.424 1544.84 136.299 1546.59 L136.299 1541.27 Q139.476 1540 142.236 1539.35 Q144.997 1538.7 147.288 1538.7 Q153.33 1538.7 156.924 1541.72 Q160.518 1544.74 160.518 1549.79 Q160.518 1552.19 159.606 1554.35 Q158.721 1556.48 156.351 1559.4 Q155.7 1560.15 152.21 1563.77 Q148.721 1567.37 142.367 1573.85 Z" fill="#000000" fill-rule="nonzero" fill-opacity="1" /><path clip-path="url(#clip520)" d="M183.017 1542.86 Q178.955 1542.86 176.898 1546.87 Q174.866 1550.86 174.866 1558.88 Q174.866 1566.87 176.898 1570.88 Q178.955 1574.87 183.017 1574.87 Q187.106 1574.87 189.137 1570.88 Q191.194 1566.87 191.194 1558.88 Q191.194 1550.86 189.137 1546.87 Q187.106 1542.86 183.017 1542.86 M183.017 1538.7 Q189.554 1538.7 192.991 1543.88 Q196.455 1549.04 196.455 1558.88 Q196.455 1568.7 192.991 1573.88 Q189.554 1579.04 183.017 1579.04 Q176.481 1579.04 173.017 1573.88 Q169.58 1568.7 169.58 1558.88 Q169.58 1549.04 173.017 1543.88 Q176.481 1538.7 183.017 1538.7 Z" fill="#000000" fill-rule="nonzero" fill-opacity="1" /><path clip-path="url(#clip520)" d="M210.231 1573.85 L228.59 1573.85 L228.59 1578.28 L203.903 1578.28 L203.903 1573.85 Q206.898 1570.75 212.054 1565.55 Q217.236 1560.31 218.564 1558.8 Q221.09 1555.96 222.08 1554.01 Q223.095 1552.03 223.095 1550.13 Q223.095 1547.03 220.908 1545.08 Q218.746 1543.12 215.257 1543.12 Q212.783 1543.12 210.023 1543.98 Q207.288 1544.84 204.163 1546.59 L204.163 1541.27 Q207.34 1540 210.101 1539.35 Q212.861 1538.7 215.153 1538.7 Q221.194 1538.7 224.788 1541.72 Q228.382 1544.74 228.382 1549.79 Q228.382 1552.19 227.47 1554.35 Q226.585 1556.48 224.215 1559.4 Q223.564 1560.15 220.075 1563.77 Q216.585 1567.37 210.231 1573.85 Z" fill="#000000" fill-rule="nonzero" fill-opacity="1" /><path clip-path="url(#clip520)" d="M255.569 1557.32 Q259.345 1558.12 261.455 1560.68 Q263.59 1563.23 263.59 1566.98 Q263.59 1572.73 259.632 1575.88 Q255.673 1579.04 248.382 1579.04 Q245.934 1579.04 243.33 1578.54 Q240.752 1578.07 237.991 1577.11 L237.991 1572.03 Q240.179 1573.31 242.783 1573.96 Q245.387 1574.61 248.225 1574.61 Q253.173 1574.61 255.751 1572.65 Q258.356 1570.7 258.356 1566.98 Q258.356 1563.54 255.934 1561.61 Q253.538 1559.66 249.241 1559.66 L244.71 1559.66 L244.71 1555.34 L249.449 1555.34 Q253.33 1555.34 255.387 1553.8 Q257.444 1552.24 257.444 1549.32 Q257.444 1546.33 255.309 1544.74 Q253.199 1543.12 249.241 1543.12 Q247.08 1543.12 244.606 1543.59 Q242.132 1544.06 239.163 1545.05 L239.163 1540.36 Q242.158 1539.53 244.762 1539.11 Q247.392 1538.7 249.71 1538.7 Q255.699 1538.7 259.189 1541.43 Q262.678 1544.14 262.678 1548.77 Q262.678 1552 260.83 1554.24 Q258.981 1556.46 255.569 1557.32 Z" fill="#000000" fill-rule="nonzero" fill-opacity="1" /><path clip-path="url(#clip520)" d="M270.465 1561.54 L284.501 1561.54 L284.501 1565.81 L270.465 1565.81 L270.465 1561.54 Z" fill="#000000" fill-rule="nonzero" fill-opacity="1" /><path clip-path="url(#clip520)" d="M304.058 1542.86 Q299.996 1542.86 297.939 1546.87 Q295.907 1550.86 295.907 1558.88 Q295.907 1566.87 297.939 1570.88 Q299.996 1574.87 304.058 1574.87 Q308.147 1574.87 310.178 1570.88 Q312.235 1566.87 312.235 1558.88 Q312.235 1550.86 310.178 1546.87 Q308.147 1542.86 304.058 1542.86 M304.058 1538.7 Q310.595 1538.7 314.032 1543.88 Q317.496 1549.04 317.496 1558.88 Q317.496 1568.7 314.032 1573.88 Q310.595 1579.04 304.058 1579.04 Q297.522 1579.04 294.059 1573.88 Q290.621 1568.7 290.621 1558.88 Q290.621 1549.04 294.059 1543.88 Q297.522 1538.7 304.058 1538.7 Z" fill="#000000" fill-rule="nonzero" fill-opacity="1" /><path clip-path="url(#clip520)" d="M327.652 1573.85 L336.246 1573.85 L336.246 1544.19 L326.897 1546.07 L326.897 1541.27 L336.194 1539.4 L341.454 1539.4 L341.454 1573.85 L350.048 1573.85 L350.048 1578.28 L327.652 1578.28 L327.652 1573.85 Z" fill="#000000" fill-rule="nonzero" fill-opacity="1" /><path clip-path="url(#clip520)" d="M357.574 1561.54 L371.61 1561.54 L371.61 1565.81 L357.574 1565.81 L357.574 1561.54 Z" fill="#000000" fill-rule="nonzero" fill-opacity="1" /><path clip-path="url(#clip520)" d="M380.829 1573.85 L389.423 1573.85 L389.423 1544.19 L380.074 1546.07 L380.074 1541.27 L389.371 1539.4 L394.631 1539.4 L394.631 1573.85 L403.225 1573.85 L403.225 1578.28 L380.829 1578.28 L380.829 1573.85 Z" fill="#000000" fill-rule="nonzero" fill-opacity="1" /><path clip-path="url(#clip520)" d="M425.751 1556.74 Q422.209 1556.74 420.126 1559.17 Q418.068 1561.59 418.068 1565.81 Q418.068 1570 420.126 1572.45 Q422.209 1574.87 425.751 1574.87 Q429.292 1574.87 431.349 1572.45 Q433.433 1570 433.433 1565.81 Q433.433 1561.59 431.349 1559.17 Q429.292 1556.74 425.751 1556.74 M436.193 1540.26 L436.193 1545.05 Q434.214 1544.11 432.183 1543.62 Q430.178 1543.12 428.198 1543.12 Q422.99 1543.12 420.23 1546.64 Q417.495 1550.16 417.105 1557.26 Q418.641 1555 420.959 1553.8 Q423.277 1552.58 426.063 1552.58 Q431.922 1552.58 435.308 1556.14 Q438.719 1559.69 438.719 1565.81 Q438.719 1571.8 435.178 1575.42 Q431.636 1579.04 425.751 1579.04 Q419.006 1579.04 415.438 1573.88 Q411.87 1568.7 411.87 1558.88 Q411.87 1549.66 416.245 1544.19 Q420.62 1538.7 427.99 1538.7 Q429.969 1538.7 431.974 1539.09 Q434.006 1539.48 436.193 1540.26 Z" fill="#000000" fill-rule="nonzero" fill-opacity="1" /><path clip-path="url(#clip520)" d="M949.748 1573.85 L968.107 1573.85 L968.107 1578.28 L943.42 1578.28 L943.42 1573.85 Q946.415 1570.75 951.571 1565.55 Q956.753 1560.31 958.081 1558.8 Q960.607 1555.96 961.597 1554.01 Q962.612 1552.03 962.612 1550.13 Q962.612 1547.03 960.425 1545.08 Q958.263 1543.12 954.774 1543.12 Q952.3 1543.12 949.54 1543.98 Q946.805 1544.84 943.68 1546.59 L943.68 1541.27 Q946.857 1540 949.618 1539.35 Q952.378 1538.7 954.67 1538.7 Q960.711 1538.7 964.305 1541.72 Q967.899 1544.74 967.899 1549.79 Q967.899 1552.19 966.987 1554.35 Q966.102 1556.48 963.732 1559.4 Q963.081 1560.15 959.592 1563.77 Q956.102 1567.37 949.748 1573.85 Z" fill="#000000" fill-rule="nonzero" fill-opacity="1" /><path clip-path="url(#clip520)" d="M990.399 1542.86 Q986.336 1542.86 984.279 1546.87 Q982.248 1550.86 982.248 1558.88 Q982.248 1566.87 984.279 1570.88 Q986.336 1574.87 990.399 1574.87 Q994.487 1574.87 996.518 1570.88 Q998.576 1566.87 998.576 1558.88 Q998.576 1550.86 996.518 1546.87 Q994.487 1542.86 990.399 1542.86 M990.399 1538.7 Q996.935 1538.7 1000.37 1543.88 Q1003.84 1549.04 1003.84 1558.88 Q1003.84 1568.7 1000.37 1573.88 Q996.935 1579.04 990.399 1579.04 Q983.862 1579.04 980.399 1573.88 Q976.961 1568.7 976.961 1558.88 Q976.961 1549.04 980.399 1543.88 Q983.862 1538.7 990.399 1538.7 Z" fill="#000000" fill-rule="nonzero" fill-opacity="1" /><path clip-path="url(#clip520)" d="M1017.61 1573.85 L1035.97 1573.85 L1035.97 1578.28 L1011.28 1578.28 L1011.28 1573.85 Q1014.28 1570.75 1019.44 1565.55 Q1024.62 1560.31 1025.95 1558.8 Q1028.47 1555.96 1029.46 1554.01 Q1030.48 1552.03 1030.48 1550.13 Q1030.48 1547.03 1028.29 1545.08 Q1026.13 1543.12 1022.64 1543.12 Q1020.16 1543.12 1017.4 1543.98 Q1014.67 1544.84 1011.54 1546.59 L1011.54 1541.27 Q1014.72 1540 1017.48 1539.35 Q1020.24 1538.7 1022.53 1538.7 Q1028.58 1538.7 1032.17 1541.72 Q1035.76 1544.74 1035.76 1549.79 Q1035.76 1552.19 1034.85 1554.35 Q1033.97 1556.48 1031.6 1559.4 Q1030.95 1560.15 1027.46 1563.77 Q1023.97 1567.37 1017.61 1573.85 Z" fill="#000000" fill-rule="nonzero" fill-opacity="1" /><path clip-path="url(#clip520)" d="M1062.95 1557.32 Q1066.73 1558.12 1068.84 1560.68 Q1070.97 1563.23 1070.97 1566.98 Q1070.97 1572.73 1067.01 1575.88 Q1063.05 1579.04 1055.76 1579.04 Q1053.32 1579.04 1050.71 1578.54 Q1048.13 1578.07 1045.37 1577.11 L1045.37 1572.03 Q1047.56 1573.31 1050.16 1573.96 Q1052.77 1574.61 1055.61 1574.61 Q1060.55 1574.61 1063.13 1572.65 Q1065.74 1570.7 1065.74 1566.98 Q1065.74 1563.54 1063.32 1561.61 Q1060.92 1559.66 1056.62 1559.66 L1052.09 1559.66 L1052.09 1555.34 L1056.83 1555.34 Q1060.71 1555.34 1062.77 1553.8 Q1064.83 1552.24 1064.83 1549.32 Q1064.83 1546.33 1062.69 1544.74 Q1060.58 1543.12 1056.62 1543.12 Q1054.46 1543.12 1051.99 1543.59 Q1049.51 1544.06 1046.54 1545.05 L1046.54 1540.36 Q1049.54 1539.53 1052.14 1539.11 Q1054.77 1538.7 1057.09 1538.7 Q1063.08 1538.7 1066.57 1541.43 Q1070.06 1544.14 1070.06 1548.77 Q1070.06 1552 1068.21 1554.24 Q1066.36 1556.46 1062.95 1557.32 Z" fill="#000000" fill-rule="nonzero" fill-opacity="1" /><path clip-path="url(#clip520)" d="M1077.85 1561.54 L1091.88 1561.54 L1091.88 1565.81 L1077.85 1565.81 L1077.85 1561.54 Z" fill="#000000" fill-rule="nonzero" fill-opacity="1" /><path clip-path="url(#clip520)" d="M1111.44 1542.86 Q1107.38 1542.86 1105.32 1546.87 Q1103.29 1550.86 1103.29 1558.88 Q1103.29 1566.87 1105.32 1570.88 Q1107.38 1574.87 1111.44 1574.87 Q1115.53 1574.87 1117.56 1570.88 Q1119.62 1566.87 1119.62 1558.88 Q1119.62 1550.86 1117.56 1546.87 Q1115.53 1542.86 1111.44 1542.86 M1111.44 1538.7 Q1117.98 1538.7 1121.41 1543.88 Q1124.88 1549.04 1124.88 1558.88 Q1124.88 1568.7 1121.41 1573.88 Q1117.98 1579.04 1111.44 1579.04 Q1104.9 1579.04 1101.44 1573.88 Q1098 1568.7 1098 1558.88 Q1098 1549.04 1101.44 1543.88 Q1104.9 1538.7 1111.44 1538.7 Z" fill="#000000" fill-rule="nonzero" fill-opacity="1" /><path clip-path="url(#clip520)" d="M1135.03 1573.85 L1143.63 1573.85 L1143.63 1544.19 L1134.28 1546.07 L1134.28 1541.27 L1143.57 1539.4 L1148.84 1539.4 L1148.84 1573.85 L1157.43 1573.85 L1157.43 1578.28 L1135.03 1578.28 L1135.03 1573.85 Z" fill="#000000" fill-rule="nonzero" fill-opacity="1" /><path clip-path="url(#clip520)" d="M1164.96 1561.54 L1178.99 1561.54 L1178.99 1565.81 L1164.96 1565.81 L1164.96 1561.54 Z" fill="#000000" fill-rule="nonzero" fill-opacity="1" /><path clip-path="url(#clip520)" d="M1188.21 1573.85 L1196.8 1573.85 L1196.8 1544.19 L1187.45 1546.07 L1187.45 1541.27 L1196.75 1539.4 L1202.01 1539.4 L1202.01 1573.85 L1210.61 1573.85 L1210.61 1578.28 L1188.21 1578.28 L1188.21 1573.85 Z" fill="#000000" fill-rule="nonzero" fill-opacity="1" /><path clip-path="url(#clip520)" d="M1232.48 1559.82 Q1228.73 1559.82 1226.57 1561.82 Q1224.43 1563.83 1224.43 1567.34 Q1224.43 1570.86 1226.57 1572.86 Q1228.73 1574.87 1232.48 1574.87 Q1236.23 1574.87 1238.39 1572.86 Q1240.55 1570.83 1240.55 1567.34 Q1240.55 1563.83 1238.39 1561.82 Q1236.26 1559.82 1232.48 1559.82 M1227.22 1557.58 Q1223.83 1556.74 1221.93 1554.43 Q1220.06 1552.11 1220.06 1548.77 Q1220.06 1544.11 1223.37 1541.41 Q1226.7 1538.7 1232.48 1538.7 Q1238.29 1538.7 1241.6 1541.41 Q1244.9 1544.11 1244.9 1548.77 Q1244.9 1552.11 1243 1554.43 Q1241.13 1556.74 1237.77 1557.58 Q1241.57 1558.46 1243.68 1561.04 Q1245.81 1563.62 1245.81 1567.34 Q1245.81 1572.99 1242.35 1576.01 Q1238.91 1579.04 1232.48 1579.04 Q1226.05 1579.04 1222.58 1576.01 Q1219.15 1572.99 1219.15 1567.34 Q1219.15 1563.62 1221.28 1561.04 Q1223.42 1558.46 1227.22 1557.58 M1225.29 1549.27 Q1225.29 1552.29 1227.17 1553.98 Q1229.07 1555.68 1232.48 1555.68 Q1235.87 1555.68 1237.77 1553.98 Q1239.69 1552.29 1239.69 1549.27 Q1239.69 1546.25 1237.77 1544.56 Q1235.87 1542.86 1232.48 1542.86 Q1229.07 1542.86 1227.17 1544.56 Q1225.29 1546.25 1225.29 1549.27 Z" fill="#000000" fill-rule="nonzero" fill-opacity="1" /><path clip-path="url(#clip520)" d="M1756.93 1573.85 L1775.29 1573.85 L1775.29 1578.28 L1750.61 1578.28 L1750.61 1573.85 Q1753.6 1570.75 1758.76 1565.55 Q1763.94 1560.31 1765.27 1558.8 Q1767.79 1555.96 1768.78 1554.01 Q1769.8 1552.03 1769.8 1550.13 Q1769.8 1547.03 1767.61 1545.08 Q1765.45 1543.12 1761.96 1543.12 Q1759.49 1543.12 1756.73 1543.98 Q1753.99 1544.84 1750.87 1546.59 L1750.87 1541.27 Q1754.04 1540 1756.8 1539.35 Q1759.56 1538.7 1761.86 1538.7 Q1767.9 1538.7 1771.49 1541.72 Q1775.08 1544.74 1775.08 1549.79 Q1775.08 1552.19 1774.17 1554.35 Q1773.29 1556.48 1770.92 1559.4 Q1770.27 1560.15 1766.78 1563.77 Q1763.29 1567.37 1756.93 1573.85 Z" fill="#000000" fill-rule="nonzero" fill-opacity="1" /><path clip-path="url(#clip520)" d="M1797.58 1542.86 Q1793.52 1542.86 1791.46 1546.87 Q1789.43 1550.86 1789.43 1558.88 Q1789.43 1566.87 1791.46 1570.88 Q1793.52 1574.87 1797.58 1574.87 Q1801.67 1574.87 1803.7 1570.88 Q1805.76 1566.87 1805.76 1558.88 Q1805.76 1550.86 1803.7 1546.87 Q1801.67 1542.86 1797.58 1542.86 M1797.58 1538.7 Q1804.12 1538.7 1807.56 1543.88 Q1811.02 1549.04 1811.02 1558.88 Q1811.02 1568.7 1807.56 1573.88 Q1804.12 1579.04 1797.58 1579.04 Q1791.05 1579.04 1787.58 1573.88 Q1784.15 1568.7 1784.15 1558.88 Q1784.15 1549.04 1787.58 1543.88 Q1791.05 1538.7 1797.58 1538.7 Z" fill="#000000" fill-rule="nonzero" fill-opacity="1" /><path clip-path="url(#clip520)" d="M1824.8 1573.85 L1843.16 1573.85 L1843.16 1578.28 L1818.47 1578.28 L1818.47 1573.85 Q1821.46 1570.75 1826.62 1565.55 Q1831.8 1560.31 1833.13 1558.8 Q1835.66 1555.96 1836.65 1554.01 Q1837.66 1552.03 1837.66 1550.13 Q1837.66 1547.03 1835.48 1545.08 Q1833.31 1543.12 1829.82 1543.12 Q1827.35 1543.12 1824.59 1543.98 Q1821.86 1544.84 1818.73 1546.59 L1818.73 1541.27 Q1821.91 1540 1824.67 1539.35 Q1827.43 1538.7 1829.72 1538.7 Q1835.76 1538.7 1839.36 1541.72 Q1842.95 1544.74 1842.95 1549.79 Q1842.95 1552.19 1842.04 1554.35 Q1841.15 1556.48 1838.78 1559.4 Q1838.13 1560.15 1834.64 1563.77 Q1831.15 1567.37 1824.8 1573.85 Z" fill="#000000" fill-rule="nonzero" fill-opacity="1" /><path clip-path="url(#clip520)" d="M1870.14 1557.32 Q1873.91 1558.12 1876.02 1560.68 Q1878.16 1563.23 1878.16 1566.98 Q1878.16 1572.73 1874.2 1575.88 Q1870.24 1579.04 1862.95 1579.04 Q1860.5 1579.04 1857.9 1578.54 Q1855.32 1578.07 1852.56 1577.11 L1852.56 1572.03 Q1854.75 1573.31 1857.35 1573.96 Q1859.95 1574.61 1862.79 1574.61 Q1867.74 1574.61 1870.32 1572.65 Q1872.92 1570.7 1872.92 1566.98 Q1872.92 1563.54 1870.5 1561.61 Q1868.11 1559.66 1863.81 1559.66 L1859.28 1559.66 L1859.28 1555.34 L1864.02 1555.34 Q1867.9 1555.34 1869.95 1553.8 Q1872.01 1552.24 1872.01 1549.32 Q1872.01 1546.33 1869.88 1544.74 Q1867.77 1543.12 1863.81 1543.12 Q1861.65 1543.12 1859.17 1543.59 Q1856.7 1544.06 1853.73 1545.05 L1853.73 1540.36 Q1856.73 1539.53 1859.33 1539.11 Q1861.96 1538.7 1864.28 1538.7 Q1870.27 1538.7 1873.76 1541.43 Q1877.25 1544.14 1877.25 1548.77 Q1877.25 1552 1875.4 1554.24 Q1873.55 1556.46 1870.14 1557.32 Z" fill="#000000" fill-rule="nonzero" fill-opacity="1" /><path clip-path="url(#clip520)" d="M1885.03 1561.54 L1899.07 1561.54 L1899.07 1565.81 L1885.03 1565.81 L1885.03 1561.54 Z" fill="#000000" fill-rule="nonzero" fill-opacity="1" /><path clip-path="url(#clip520)" d="M1918.63 1542.86 Q1914.56 1542.86 1912.51 1546.87 Q1910.47 1550.86 1910.47 1558.88 Q1910.47 1566.87 1912.51 1570.88 Q1914.56 1574.87 1918.63 1574.87 Q1922.71 1574.87 1924.75 1570.88 Q1926.8 1566.87 1926.8 1558.88 Q1926.8 1550.86 1924.75 1546.87 Q1922.71 1542.86 1918.63 1542.86 M1918.63 1538.7 Q1925.16 1538.7 1928.6 1543.88 Q1932.06 1549.04 1932.06 1558.88 Q1932.06 1568.7 1928.6 1573.88 Q1925.16 1579.04 1918.63 1579.04 Q1912.09 1579.04 1908.63 1573.88 Q1905.19 1568.7 1905.19 1558.88 Q1905.19 1549.04 1908.63 1543.88 Q1912.09 1538.7 1918.63 1538.7 Z" fill="#000000" fill-rule="nonzero" fill-opacity="1" /><path clip-path="url(#clip520)" d="M1942.22 1573.85 L1950.81 1573.85 L1950.81 1544.19 L1941.46 1546.07 L1941.46 1541.27 L1950.76 1539.4 L1956.02 1539.4 L1956.02 1573.85 L1964.62 1573.85 L1964.62 1578.28 L1942.22 1578.28 L1942.22 1573.85 Z" fill="#000000" fill-rule="nonzero" fill-opacity="1" /><path clip-path="url(#clip520)" d="M1972.14 1561.54 L1986.18 1561.54 L1986.18 1565.81 L1972.14 1565.81 L1972.14 1561.54 Z" fill="#000000" fill-rule="nonzero" fill-opacity="1" /><path clip-path="url(#clip520)" d="M1999.02 1573.85 L2017.38 1573.85 L2017.38 1578.28 L1992.69 1578.28 L1992.69 1573.85 Q1995.68 1570.75 2000.84 1565.55 Q2006.02 1560.31 2007.35 1558.8 Q2009.88 1555.96 2010.86 1554.01 Q2011.88 1552.03 2011.88 1550.13 Q2011.88 1547.03 2009.69 1545.08 Q2007.53 1543.12 2004.04 1543.12 Q2001.57 1543.12 1998.81 1543.98 Q1996.07 1544.84 1992.95 1546.59 L1992.95 1541.27 Q1996.13 1540 1998.89 1539.35 Q2001.65 1538.7 2003.94 1538.7 Q2009.98 1538.7 2013.57 1541.72 Q2017.17 1544.74 2017.17 1549.79 Q2017.17 1552.19 2016.26 1554.35 Q2015.37 1556.48 2013 1559.4 Q2012.35 1560.15 2008.86 1563.77 Q2005.37 1567.37 1999.02 1573.85 Z" fill="#000000" fill-rule="nonzero" fill-opacity="1" /><path clip-path="url(#clip520)" d="M2039.67 1542.86 Q2035.6 1542.86 2033.55 1546.87 Q2031.52 1550.86 2031.52 1558.88 Q2031.52 1566.87 2033.55 1570.88 Q2035.6 1574.87 2039.67 1574.87 Q2043.76 1574.87 2045.79 1570.88 Q2047.84 1566.87 2047.84 1558.88 Q2047.84 1550.86 2045.79 1546.87 Q2043.76 1542.86 2039.67 1542.86 M2039.67 1538.7 Q2046.2 1538.7 2049.64 1543.88 Q2053.1 1549.04 2053.1 1558.88 Q2053.1 1568.7 2049.64 1573.88 Q2046.2 1579.04 2039.67 1579.04 Q2033.13 1579.04 2029.67 1573.88 Q2026.23 1568.7 2026.23 1558.88 Q2026.23 1549.04 2029.67 1543.88 Q2033.13 1538.7 2039.67 1538.7 Z" fill="#000000" fill-rule="nonzero" fill-opacity="1" /><path clip-path="url(#clip520)" d="M2565.07 1573.85 L2583.43 1573.85 L2583.43 1578.28 L2558.74 1578.28 L2558.74 1573.85 Q2561.74 1570.75 2566.89 1565.55 Q2572.08 1560.31 2573.4 1558.8 Q2575.93 1555.96 2576.92 1554.01 Q2577.93 1552.03 2577.93 1550.13 Q2577.93 1547.03 2575.75 1545.08 Q2573.59 1543.12 2570.1 1543.12 Q2567.62 1543.12 2564.86 1543.98 Q2562.13 1544.84 2559 1546.59 L2559 1541.27 Q2562.18 1540 2564.94 1539.35 Q2567.7 1538.7 2569.99 1538.7 Q2576.03 1538.7 2579.63 1541.72 Q2583.22 1544.74 2583.22 1549.79 Q2583.22 1552.19 2582.31 1554.35 Q2581.42 1556.48 2579.05 1559.4 Q2578.4 1560.15 2574.91 1563.77 Q2571.42 1567.37 2565.07 1573.85 Z" fill="#000000" fill-rule="nonzero" fill-opacity="1" /><path clip-path="url(#clip520)" d="M2605.72 1542.86 Q2601.66 1542.86 2599.6 1546.87 Q2597.57 1550.86 2597.57 1558.88 Q2597.57 1566.87 2599.6 1570.88 Q2601.66 1574.87 2605.72 1574.87 Q2609.81 1574.87 2611.84 1570.88 Q2613.9 1566.87 2613.9 1558.88 Q2613.9 1550.86 2611.84 1546.87 Q2609.81 1542.86 2605.72 1542.86 M2605.72 1538.7 Q2612.26 1538.7 2615.7 1543.88 Q2619.16 1549.04 2619.16 1558.88 Q2619.16 1568.7 2615.7 1573.88 Q2612.26 1579.04 2605.72 1579.04 Q2599.18 1579.04 2595.72 1573.88 Q2592.28 1568.7 2592.28 1558.88 Q2592.28 1549.04 2595.72 1543.88 Q2599.18 1538.7 2605.72 1538.7 Z" fill="#000000" fill-rule="nonzero" fill-opacity="1" /><path clip-path="url(#clip520)" d="M2632.93 1573.85 L2651.29 1573.85 L2651.29 1578.28 L2626.61 1578.28 L2626.61 1573.85 Q2629.6 1570.75 2634.76 1565.55 Q2639.94 1560.31 2641.27 1558.8 Q2643.79 1555.96 2644.78 1554.01 Q2645.8 1552.03 2645.8 1550.13 Q2645.8 1547.03 2643.61 1545.08 Q2641.45 1543.12 2637.96 1543.12 Q2635.49 1543.12 2632.73 1543.98 Q2629.99 1544.84 2626.87 1546.59 L2626.87 1541.27 Q2630.04 1540 2632.8 1539.35 Q2635.56 1538.7 2637.86 1538.7 Q2643.9 1538.7 2647.49 1541.72 Q2651.09 1544.74 2651.09 1549.79 Q2651.09 1552.19 2650.17 1554.35 Q2649.29 1556.48 2646.92 1559.4 Q2646.27 1560.15 2642.78 1563.77 Q2639.29 1567.37 2632.93 1573.85 Z" fill="#000000" fill-rule="nonzero" fill-opacity="1" /><path clip-path="url(#clip520)" d="M2678.27 1557.32 Q2682.05 1558.12 2684.16 1560.68 Q2686.29 1563.23 2686.29 1566.98 Q2686.29 1572.73 2682.34 1575.88 Q2678.38 1579.04 2671.09 1579.04 Q2668.64 1579.04 2666.03 1578.54 Q2663.46 1578.07 2660.69 1577.11 L2660.69 1572.03 Q2662.88 1573.31 2665.49 1573.96 Q2668.09 1574.61 2670.93 1574.61 Q2675.88 1574.61 2678.46 1572.65 Q2681.06 1570.7 2681.06 1566.98 Q2681.06 1563.54 2678.64 1561.61 Q2676.24 1559.66 2671.94 1559.66 L2667.41 1559.66 L2667.41 1555.34 L2672.15 1555.34 Q2676.03 1555.34 2678.09 1553.8 Q2680.15 1552.24 2680.15 1549.32 Q2680.15 1546.33 2678.01 1544.74 Q2675.9 1543.12 2671.94 1543.12 Q2669.78 1543.12 2667.31 1543.59 Q2664.84 1544.06 2661.87 1545.05 L2661.87 1540.36 Q2664.86 1539.53 2667.47 1539.11 Q2670.1 1538.7 2672.41 1538.7 Q2678.4 1538.7 2681.89 1541.43 Q2685.38 1544.14 2685.38 1548.77 Q2685.38 1552 2683.53 1554.24 Q2681.68 1556.46 2678.27 1557.32 Z" fill="#000000" fill-rule="nonzero" fill-opacity="1" /><path clip-path="url(#clip520)" d="M2693.17 1561.54 L2707.21 1561.54 L2707.21 1565.81 L2693.17 1565.81 L2693.17 1561.54 Z" fill="#000000" fill-rule="nonzero" fill-opacity="1" /><path clip-path="url(#clip520)" d="M2726.76 1542.86 Q2722.7 1542.86 2720.64 1546.87 Q2718.61 1550.86 2718.61 1558.88 Q2718.61 1566.87 2720.64 1570.88 Q2722.7 1574.87 2726.76 1574.87 Q2730.85 1574.87 2732.88 1570.88 Q2734.94 1566.87 2734.94 1558.88 Q2734.94 1550.86 2732.88 1546.87 Q2730.85 1542.86 2726.76 1542.86 M2726.76 1538.7 Q2733.3 1538.7 2736.74 1543.88 Q2740.2 1549.04 2740.2 1558.88 Q2740.2 1568.7 2736.74 1573.88 Q2733.3 1579.04 2726.76 1579.04 Q2720.23 1579.04 2716.76 1573.88 Q2713.32 1568.7 2713.32 1558.88 Q2713.32 1549.04 2716.76 1543.88 Q2720.23 1538.7 2726.76 1538.7 Z" fill="#000000" fill-rule="nonzero" fill-opacity="1" /><path clip-path="url(#clip520)" d="M2750.36 1573.85 L2758.95 1573.85 L2758.95 1544.19 L2749.6 1546.07 L2749.6 1541.27 L2758.9 1539.4 L2764.16 1539.4 L2764.16 1573.85 L2772.75 1573.85 L2772.75 1578.28 L2750.36 1578.28 L2750.36 1573.85 Z" fill="#000000" fill-rule="nonzero" fill-opacity="1" /><path clip-path="url(#clip520)" d="M2780.28 1561.54 L2794.31 1561.54 L2794.31 1565.81 L2780.28 1565.81 L2780.28 1561.54 Z" fill="#000000" fill-rule="nonzero" fill-opacity="1" /><path clip-path="url(#clip520)" d="M2807.15 1573.85 L2825.51 1573.85 L2825.51 1578.28 L2800.82 1578.28 L2800.82 1573.85 Q2803.82 1570.75 2808.98 1565.55 Q2814.16 1560.31 2815.49 1558.8 Q2818.01 1555.96 2819 1554.01 Q2820.02 1552.03 2820.02 1550.13 Q2820.02 1547.03 2817.83 1545.08 Q2815.67 1543.12 2812.18 1543.12 Q2809.7 1543.12 2806.94 1543.98 Q2804.21 1544.84 2801.08 1546.59 L2801.08 1541.27 Q2804.26 1540 2807.02 1539.35 Q2809.78 1538.7 2812.07 1538.7 Q2818.12 1538.7 2821.71 1541.72 Q2825.3 1544.74 2825.3 1549.79 Q2825.3 1552.19 2824.39 1554.35 Q2823.51 1556.48 2821.14 1559.4 Q2820.49 1560.15 2817 1563.77 Q2813.51 1567.37 2807.15 1573.85 Z" fill="#000000" fill-rule="nonzero" fill-opacity="1" /><path clip-path="url(#clip520)" d="M2841.08 1573.85 L2859.44 1573.85 L2859.44 1578.28 L2834.76 1578.28 L2834.76 1573.85 Q2837.75 1570.75 2842.91 1565.55 Q2848.09 1560.31 2849.42 1558.8 Q2851.94 1555.96 2852.93 1554.01 Q2853.95 1552.03 2853.95 1550.13 Q2853.95 1547.03 2851.76 1545.08 Q2849.6 1543.12 2846.11 1543.12 Q2843.64 1543.12 2840.88 1543.98 Q2838.14 1544.84 2835.02 1546.59 L2835.02 1541.27 Q2838.19 1540 2840.95 1539.35 Q2843.71 1538.7 2846.01 1538.7 Q2852.05 1538.7 2855.64 1541.72 Q2859.24 1544.74 2859.24 1549.79 Q2859.24 1552.19 2858.32 1554.35 Q2857.44 1556.48 2855.07 1559.4 Q2854.42 1560.15 2850.93 1563.77 Q2847.44 1567.37 2841.08 1573.85 Z" fill="#000000" fill-rule="nonzero" fill-opacity="1" /><polyline clip-path="url(#clip522)" style="stroke:#000000; stroke-linecap:round; stroke-linejoin:round; stroke-width:2; stroke-opacity:0.1; fill:none" points="203.123,1421.35 3180.15,1421.35 "/>
<polyline clip-path="url(#clip522)" style="stroke:#000000; stroke-linecap:round; stroke-linejoin:round; stroke-width:2; stroke-opacity:0.1; fill:none" points="203.123,1119.32 3180.15,1119.32 "/>
<polyline clip-path="url(#clip522)" style="stroke:#000000; stroke-linecap:round; stroke-linejoin:round; stroke-width:2; stroke-opacity:0.1; fill:none" points="203.123,817.297 3180.15,817.297 "/>
<polyline clip-path="url(#clip522)" style="stroke:#000000; stroke-linecap:round; stroke-linejoin:round; stroke-width:2; stroke-opacity:0.1; fill:none" points="203.123,515.272 3180.15,515.272 "/>
<polyline clip-path="url(#clip522)" style="stroke:#000000; stroke-linecap:round; stroke-linejoin:round; stroke-width:2; stroke-opacity:0.1; fill:none" points="203.123,213.246 3180.15,213.246 "/>
<polyline clip-path="url(#clip520)" style="stroke:#000000; stroke-linecap:round; stroke-linejoin:round; stroke-width:4; stroke-opacity:1; fill:none" points="203.123,1497.68 203.123,47.2441 "/>
<polyline clip-path="url(#clip520)" style="stroke:#000000; stroke-linecap:round; stroke-linejoin:round; stroke-width:4; stroke-opacity:1; fill:none" points="203.123,1421.35 218.127,1421.35 "/>
<polyline clip-path="url(#clip520)" style="stroke:#000000; stroke-linecap:round; stroke-linejoin:round; stroke-width:4; stroke-opacity:1; fill:none" points="203.123,1119.32 218.127,1119.32 "/>
<polyline clip-path="url(#clip520)" style="stroke:#000000; stroke-linecap:round; stroke-linejoin:round; stroke-width:4; stroke-opacity:1; fill:none" points="203.123,817.297 218.127,817.297 "/>
<polyline clip-path="url(#clip520)" style="stroke:#000000; stroke-linecap:round; stroke-linejoin:round; stroke-width:4; stroke-opacity:1; fill:none" points="203.123,515.272 218.127,515.272 "/>
<polyline clip-path="url(#clip520)" style="stroke:#000000; stroke-linecap:round; stroke-linejoin:round; stroke-width:4; stroke-opacity:1; fill:none" points="203.123,213.246 218.127,213.246 "/>
<path clip-path="url(#clip520)" d="M129.79 1422.32 Q126.04 1422.32 123.879 1424.33 Q121.743 1426.33 121.743 1429.85 Q121.743 1433.37 123.879 1435.37 Q126.04 1437.38 129.79 1437.38 Q133.54 1437.38 135.702 1435.37 Q137.863 1433.34 137.863 1429.85 Q137.863 1426.33 135.702 1424.33 Q133.566 1422.32 129.79 1422.32 M124.53 1420.08 Q121.144 1419.25 119.243 1416.93 Q117.368 1414.62 117.368 1411.28 Q117.368 1406.62 120.676 1403.91 Q124.009 1401.2 129.79 1401.2 Q135.597 1401.2 138.905 1403.91 Q142.212 1406.62 142.212 1411.28 Q142.212 1414.62 140.311 1416.93 Q138.436 1419.25 135.077 1420.08 Q138.879 1420.97 140.988 1423.55 Q143.123 1426.13 143.123 1429.85 Q143.123 1435.5 139.66 1438.52 Q136.222 1441.54 129.79 1441.54 Q123.358 1441.54 119.894 1438.52 Q116.457 1435.5 116.457 1429.85 Q116.457 1426.13 118.592 1423.55 Q120.728 1420.97 124.53 1420.08 M122.603 1411.78 Q122.603 1414.8 124.478 1416.49 Q126.379 1418.18 129.79 1418.18 Q133.176 1418.18 135.077 1416.49 Q137.004 1414.8 137.004 1411.78 Q137.004 1408.76 135.077 1407.06 Q133.176 1405.37 129.79 1405.37 Q126.379 1405.37 124.478 1407.06 Q122.603 1408.76 122.603 1411.78 Z" fill="#000000" fill-rule="nonzero" fill-opacity="1" /><path clip-path="url(#clip520)" d="M118.801 1137.96 L118.801 1133.16 Q120.78 1134.1 122.811 1134.6 Q124.842 1135.09 126.795 1135.09 Q132.004 1135.09 134.738 1131.6 Q137.498 1128.09 137.889 1120.95 Q136.379 1123.19 134.061 1124.39 Q131.743 1125.59 128.931 1125.59 Q123.097 1125.59 119.686 1122.07 Q116.301 1118.53 116.301 1112.41 Q116.301 1106.42 119.842 1102.8 Q123.384 1099.18 129.269 1099.18 Q136.014 1099.18 139.556 1104.36 Q143.123 1109.52 143.123 1119.36 Q143.123 1128.55 138.748 1134.05 Q134.399 1139.52 127.03 1139.52 Q125.051 1139.52 123.019 1139.13 Q120.988 1138.74 118.801 1137.96 M129.269 1121.47 Q132.811 1121.47 134.868 1119.05 Q136.952 1116.63 136.952 1112.41 Q136.952 1108.22 134.868 1105.79 Q132.811 1103.35 129.269 1103.35 Q125.728 1103.35 123.644 1105.79 Q121.587 1108.22 121.587 1112.41 Q121.587 1116.63 123.644 1119.05 Q125.728 1121.47 129.269 1121.47 Z" fill="#000000" fill-rule="nonzero" fill-opacity="1" /><path clip-path="url(#clip520)" d="M85.4154 832.31 L94.0091 832.31 L94.0091 802.649 L84.6602 804.524 L84.6602 799.732 L93.957 797.857 L99.2174 797.857 L99.2174 832.31 L107.811 832.31 L107.811 836.737 L85.4154 836.737 L85.4154 832.31 Z" fill="#000000" fill-rule="nonzero" fill-opacity="1" /><path clip-path="url(#clip520)" d="M129.686 801.321 Q125.623 801.321 123.566 805.331 Q121.535 809.315 121.535 817.336 Q121.535 825.331 123.566 829.341 Q125.623 833.326 129.686 833.326 Q133.774 833.326 135.806 829.341 Q137.863 825.331 137.863 817.336 Q137.863 809.315 135.806 805.331 Q133.774 801.321 129.686 801.321 M129.686 797.154 Q136.222 797.154 139.66 802.336 Q143.123 807.492 143.123 817.336 Q143.123 827.154 139.66 832.336 Q136.222 837.492 129.686 837.492 Q123.15 837.492 119.686 832.336 Q116.249 827.154 116.249 817.336 Q116.249 807.492 119.686 802.336 Q123.15 797.154 129.686 797.154 Z" fill="#000000" fill-rule="nonzero" fill-opacity="1" /><path clip-path="url(#clip520)" d="M86.7956 530.285 L95.3893 530.285 L95.3893 500.623 L86.0404 502.498 L86.0404 497.707 L95.3372 495.832 L100.598 495.832 L100.598 530.285 L109.191 530.285 L109.191 534.712 L86.7956 534.712 L86.7956 530.285 Z" fill="#000000" fill-rule="nonzero" fill-opacity="1" /><path clip-path="url(#clip520)" d="M120.728 530.285 L129.321 530.285 L129.321 500.623 L119.972 502.498 L119.972 497.707 L129.269 495.832 L134.53 495.832 L134.53 530.285 L143.123 530.285 L143.123 534.712 L120.728 534.712 L120.728 530.285 Z" fill="#000000" fill-rule="nonzero" fill-opacity="1" /><path clip-path="url(#clip520)" d="M87.2122 228.259 L95.8059 228.259 L95.8059 198.598 L86.457 200.473 L86.457 195.681 L95.7538 193.806 L101.014 193.806 L101.014 228.259 L109.608 228.259 L109.608 232.686 L87.2122 232.686 L87.2122 228.259 Z" fill="#000000" fill-rule="nonzero" fill-opacity="1" /><path clip-path="url(#clip520)" d="M124.764 228.259 L143.123 228.259 L143.123 232.686 L118.436 232.686 L118.436 228.259 Q121.431 225.16 126.587 219.952 Q131.769 214.718 133.097 213.207 Q135.623 210.369 136.613 208.416 Q137.629 206.437 137.629 204.535 Q137.629 201.437 135.441 199.483 Q133.28 197.53 129.79 197.53 Q127.316 197.53 124.556 198.39 Q121.821 199.249 118.696 200.994 L118.696 195.681 Q121.873 194.405 124.634 193.754 Q127.394 193.103 129.686 193.103 Q135.728 193.103 139.321 196.124 Q142.915 199.145 142.915 204.197 Q142.915 206.593 142.004 208.754 Q141.118 210.89 138.748 213.806 Q138.097 214.561 134.608 218.181 Q131.118 221.775 124.764 228.259 Z" fill="#000000" fill-rule="nonzero" fill-opacity="1" /><path clip-path="url(#clip520)" d="M-31.4998 930.013 L-31.4998 924.168 L11.7002 924.168 L11.7002 930.013 L-31.4998 930.013 Z" fill="#000000" fill-rule="nonzero" fill-opacity="1" /><path clip-path="url(#clip520)" d="M-7.85992 885.829 L11.7002 885.829 L11.7002 891.153 L-7.68631 891.153 Q-12.287 891.153 -14.5728 892.947 Q-16.8587 894.741 -16.8587 898.329 Q-16.8587 902.641 -14.1099 905.129 Q-11.3611 907.618 -6.61572 907.618 L11.7002 907.618 L11.7002 912.97 L-20.7071 912.97 L-20.7071 907.618 L-15.6724 907.618 Q-18.5948 905.708 -20.0416 903.133 Q-21.4883 900.528 -21.4883 897.143 Q-21.4883 891.559 -18.0161 888.694 Q-14.5728 885.829 -7.85992 885.829 Z" fill="#000000" fill-rule="nonzero" fill-opacity="1" /><path clip-path="url(#clip520)" d="M-33.3227 858.804 L-28.8957 858.804 L-28.8957 863.897 Q-28.8957 866.761 -27.7383 867.89 Q-26.5809 868.989 -23.5716 868.989 L-20.7071 868.989 L-20.7071 860.222 L-16.5694 860.222 L-16.5694 868.989 L11.7002 868.989 L11.7002 874.342 L-16.5694 874.342 L-16.5694 879.435 L-20.7071 879.435 L-20.7071 874.342 L-22.964 874.342 Q-28.3749 874.342 -30.8343 871.825 Q-33.3227 869.308 -33.3227 863.839 L-33.3227 858.804 Z" fill="#000000" fill-rule="nonzero" fill-opacity="1" /><path clip-path="url(#clip520)" d="M-33.3227 854.348 L-33.3227 849.024 L11.7002 849.024 L11.7002 854.348 L-33.3227 854.348 Z" fill="#000000" fill-rule="nonzero" fill-opacity="1" /><path clip-path="url(#clip520)" d="M-16.9745 825.326 Q-16.9745 829.609 -13.618 832.097 Q-10.2905 834.585 -4.47452 834.585 Q1.34142 834.585 4.69788 832.126 Q8.02541 829.638 8.02541 825.326 Q8.02541 821.073 4.66895 818.584 Q1.31248 816.096 -4.47452 816.096 Q-10.2326 816.096 -13.5891 818.584 Q-16.9745 821.073 -16.9745 825.326 M-21.4883 825.326 Q-21.4883 818.382 -16.9745 814.418 Q-12.4606 810.454 -4.47452 810.454 Q3.48261 810.454 8.02541 814.418 Q12.5393 818.382 12.5393 825.326 Q12.5393 832.3 8.02541 836.264 Q3.48261 840.199 -4.47452 840.199 Q-12.4606 840.199 -16.9745 836.264 Q-21.4883 832.3 -21.4883 825.326 Z" fill="#000000" fill-rule="nonzero" fill-opacity="1" /><path clip-path="url(#clip520)" d="M-20.7071 804.725 L-20.7071 799.4 L4.58214 792.745 L-20.7071 786.119 L-20.7071 779.84 L4.58214 773.185 L-20.7071 766.559 L-20.7071 761.235 L11.7002 769.713 L11.7002 775.992 L-14.8622 782.965 L11.7002 789.968 L11.7002 796.247 L-20.7071 804.725 Z" fill="#000000" fill-rule="nonzero" fill-opacity="1" /><path clip-path="url(#clip520)" d="M-33.3227 734.818 L-33.3227 722.549 L-29.185 722.549 L-29.185 729.493 L15.3749 729.493 L15.3749 722.549 L19.5126 722.549 L19.5126 734.818 L-33.3227 734.818 Z" fill="#000000" fill-rule="nonzero" fill-opacity="1" /><path clip-path="url(#clip520)" d="M-31.4998 710.975 L-31.4998 705.13 L6.7812 705.13 L6.7812 684.094 L11.7002 684.094 L11.7002 710.975 L-31.4998 710.975 Z" fill="#000000" fill-rule="nonzero" fill-opacity="1" /><path clip-path="url(#clip520)" d="M-31.4998 668.73 L-31.4998 663.811 L17.1978 678.857 L17.1978 683.776 L-31.4998 668.73 Z" fill="#000000" fill-rule="nonzero" fill-opacity="1" /><path clip-path="url(#clip520)" d="M-19.7522 637.567 L-14.7175 637.567 Q-15.8749 639.824 -16.4536 642.254 Q-17.0323 644.685 -17.0323 647.289 Q-17.0323 651.253 -15.8171 653.25 Q-14.6018 655.217 -12.1712 655.217 Q-10.3194 655.217 -9.2488 653.799 Q-8.20714 652.382 -7.25229 648.099 L-6.8472 646.276 Q-5.63193 640.605 -3.40393 638.232 Q-1.20487 635.831 2.75923 635.831 Q7.2731 635.831 9.90619 639.419 Q12.5393 642.978 12.5393 649.228 Q12.5393 651.832 12.0184 654.667 Q11.5265 657.474 10.5138 660.599 L5.01617 660.599 Q6.54972 657.648 7.33097 654.783 Q8.08328 651.919 8.08328 649.112 Q8.08328 645.35 6.81014 643.325 Q5.50806 641.299 3.16432 641.299 Q0.994196 641.299 -0.163205 642.775 Q-1.32061 644.222 -2.3912 649.17 L-2.82523 651.022 Q-3.86689 655.97 -6.00808 658.169 Q-8.17821 660.368 -11.9398 660.368 Q-16.5115 660.368 -18.9999 657.127 Q-21.4883 653.886 -21.4883 647.926 Q-21.4883 644.974 -21.0543 642.37 Q-20.6203 639.766 -19.7522 637.567 Z" fill="#000000" fill-rule="nonzero" fill-opacity="1" /><path clip-path="url(#clip520)" d="M-33.3227 614.911 L19.5126 614.911 L19.5126 627.179 L15.3749 627.179 L15.3749 620.264 L-29.185 620.264 L-29.185 627.179 L-33.3227 627.179 L-33.3227 614.911 Z" fill="#000000" fill-rule="nonzero" fill-opacity="1" /><polyline clip-path="url(#clip522)" style="stroke:#023eff; stroke-linecap:round; stroke-linejoin:round; stroke-width:5; stroke-opacity:1; fill:none" points="287.379,1301.88 304.196,1372.51 321.014,1372.51 337.831,1372.51 354.649,1372.51 371.466,1372.51 388.284,1372.51 405.101,813.002 421.919,716.437 438.736,699.472 455.553,886.862 472.371,793.02 489.188,793.02 506.006,498.047 522.823,886.862 539.641,539.499 556.458,886.862 573.276,886.862 590.093,886.862 606.911,498.047 623.728,269.427 640.546,920.403 657.363,1241 674.18,1241 690.998,1112.02 707.815,1112.02 724.633,1112.02 741.45,1112.02 758.268,1112.02 775.085,1112.02 791.903,1126.68 808.72,514.159 825.538,638.402 842.355,353.015 859.172,638.402 875.99,638.402 892.807,638.402 909.625,638.402 926.442,638.402 943.26,638.402 960.077,638.402 976.895,353.015 993.712,638.402 1010.53,638.402 1027.35,638.402 1044.16,353.015 1060.98,1299.76 1077.8,1299.76 1094.62,1389.82 1111.43,1112.02 1128.25,1112.02 1145.07,1112.02 1161.89,1112.02 1178.7,1112.02 1195.52,1039.86 1212.34,514.159 1229.16,638.402 1245.97,638.402 1262.79,638.402 1279.61,900.892 1296.43,638.402 1313.24,900.892 1330.06,638.402 1346.88,900.892 1363.7,900.892 1380.51,638.402 1397.33,638.402 1414.15,353.015 1430.97,638.402 1447.78,638.402 1464.6,1299.76 1481.42,1299.76 1498.24,1112.02 1515.05,1112.02 1531.87,1112.02 1548.69,1112.02 1565.51,1112.02 1582.32,1112.02 1599.14,1126.68 1615.96,514.159 1632.78,353.015 1649.59,638.402 1666.41,900.892 1683.23,638.402 1700.05,638.402 1716.86,638.402 1733.68,638.402 1750.5,638.402 1767.32,638.402 1784.13,638.402 1800.95,638.402 1817.77,353.015 1834.59,638.402 1851.4,638.402 1868.22,1299.76 1885.04,1299.76 1901.85,1112.02 1918.67,1112.02 1935.49,1112.02 1952.31,1112.02 1969.12,1112.02 1985.94,1112.02 2002.76,1039.86 2019.58,94.5007 2036.39,638.402 2053.21,638.402 2070.03,638.402 2086.85,638.402 2103.66,638.402 2120.48,638.402 2137.3,638.402 2154.12,638.402 2170.93,638.402 2187.75,638.402 2204.57,353.015 2221.39,638.402 2238.2,638.402 2255.02,638.402 2271.84,638.402 2288.66,1299.76 2305.47,1112.02 2322.29,1112.02 2339.11,1112.02 2355.93,1112.02 2372.74,1112.02 2389.56,1112.02 2406.38,1456.63 2423.2,900.892 2440.01,470.883 2456.83,470.883 2473.65,470.883 2490.47,470.883 2507.28,470.883 2524.1,786.737 2540.92,540.029 2557.74,786.737 2574.55,786.737 2591.37,786.737 2608.19,786.737 2625.01,786.737 2641.82,786.737 2658.64,786.737 2675.46,1299.76 2692.28,1299.76 2709.09,1112.02 2725.91,1112.02 2742.73,1112.02 2759.55,1112.02 2776.36,1112.02 2793.18,1112.02 2810,1456.63 2826.82,900.892 2843.63,470.883 2860.45,88.2942 2877.27,470.883 2894.09,88.2942 2910.9,88.2942 2927.72,540.029 2944.54,540.029 2961.35,786.737 2978.17,786.737 2994.99,786.737 3011.81,786.737 3028.62,540.029 3045.44,540.029 3062.26,786.737 3079.08,1299.76 3095.89,1299.76 "/>
<polyline clip-path="url(#clip522)" style="stroke:#ff7c00; stroke-linecap:round; stroke-linejoin:round; stroke-width:5; stroke-opacity:1; fill:none" points="287.379,1265.81 304.196,1334.94 321.014,1334.94 337.831,1145.71 354.649,1334.94 371.466,1145.71 388.284,1145.71 405.101,643.77 421.919,489.24 438.736,559.34 455.553,559.34 472.371,643.77 489.188,643.77 506.006,643.77 522.823,559.34 539.641,489.24 556.458,559.34 573.276,559.34 590.093,559.34 606.911,643.77 623.728,489.24 640.546,643.77 657.363,1207.46 674.18,1207.46 690.998,1374.13 707.815,1374.13 724.633,1374.13 741.45,1374.13 758.268,1374.13 775.085,1374.13 791.903,1177.06 808.72,656.926 825.538,656.926 842.355,656.926 859.172,656.926 875.99,656.926 892.807,656.926 909.625,656.926 926.442,656.926 943.26,656.926 960.077,656.926 976.895,656.926 993.712,656.926 1010.53,656.926 1027.35,656.926 1044.16,656.926 1060.98,1091.36 1077.8,1384.65 1094.62,1374.13 1111.43,1374.13 1128.25,1374.13 1145.07,1374.13 1161.89,1374.13 1178.7,1374.13 1195.52,1177.06 1212.34,656.926 1229.16,656.926 1245.97,656.926 1262.79,656.926 1279.61,859.706 1296.43,656.926 1313.24,859.706 1330.06,656.926 1346.88,859.706 1363.7,859.706 1380.51,656.926 1397.33,656.926 1414.15,656.926 1430.97,656.926 1447.78,656.926 1464.6,1091.36 1481.42,1091.36 1498.24,1374.13 1515.05,1374.13 1531.87,1374.13 1548.69,1374.13 1565.51,1374.13 1582.32,1374.13 1599.14,1177.06 1615.96,656.926 1632.78,656.926 1649.59,656.926 1666.41,859.706 1683.23,859.706 1700.05,656.926 1716.86,656.926 1733.68,656.926 1750.5,656.926 1767.32,656.926 1784.13,656.926 1800.95,656.926 1817.77,656.926 1834.59,656.926 1851.4,656.926 1868.22,1091.36 1885.04,1091.36 1901.85,1374.13 1918.67,1374.13 1935.49,1374.13 1952.31,1374.13 1969.12,1374.13 1985.94,1374.13 2002.76,1177.06 2019.58,656.926 2036.39,656.926 2053.21,656.926 2070.03,656.926 2086.85,656.926 2103.66,656.926 2120.48,656.926 2137.3,656.926 2154.12,656.926 2170.93,656.926 2187.75,656.926 2204.57,656.926 2221.39,656.926 2238.2,656.926 2255.02,859.706 2271.84,1091.36 2288.66,1091.36 2305.47,1374.13 2322.29,1374.13 2339.11,1374.13 2355.93,1374.13 2372.74,1374.13 2389.56,1374.13 2406.38,1177.06 2423.2,859.706 2440.01,656.926 2456.83,656.926 2473.65,656.926 2490.47,656.926 2507.28,656.926 2524.1,656.926 2540.92,656.926 2557.74,656.926 2574.55,656.926 2591.37,656.926 2608.19,656.926 2625.01,656.926 2641.82,656.926 2658.64,656.926 2675.46,1091.36 2692.28,1091.36 2709.09,1374.13 2725.91,1374.13 2742.73,1374.13 2759.55,1374.13 2776.36,1374.13 2793.18,1374.13 2810,1177.06 2826.82,859.706 2843.63,656.926 2860.45,656.926 2877.27,656.926 2894.09,656.926 2910.9,656.926 2927.72,656.926 2944.54,656.926 2961.35,656.926 2978.17,656.926 2994.99,656.926 3011.81,656.926 3028.62,656.926 3045.44,656.926 3062.26,656.926 3079.08,1091.36 3095.89,1091.36 "/>
<polyline clip-path="url(#clip522)" style="stroke:#1ac938; stroke-linecap:round; stroke-linejoin:round; stroke-width:5; stroke-opacity:1; fill:none" points="287.379,1242.08 304.196,1344.55 321.014,1344.55 337.831,1344.55 354.649,1344.55 371.466,1344.55 388.284,1019.06 405.101,1019.06 421.919,642.6 438.736,642.6 455.553,642.6 472.371,642.6 489.188,642.6 506.006,642.6 522.823,642.6 539.641,642.6 556.458,642.6 573.276,642.6 590.093,642.6 606.911,642.6 623.728,642.6 640.546,642.6 657.363,1087.61 674.18,1087.61 690.998,1344.55 707.815,1344.55 724.633,1344.55 741.45,1344.55 758.268,1344.55 775.085,1344.55 791.903,1019.06 808.72,1019.06 825.538,642.6 842.355,642.6 859.172,642.6 875.99,642.6 892.807,642.6 909.625,642.6 926.442,642.6 943.26,642.6 960.077,642.6 976.895,642.6 993.712,642.6 1010.53,642.6 1027.35,642.6 1044.16,642.6 1060.98,1087.61 1077.8,1087.61 1094.62,1344.55 1111.43,1344.55 1128.25,1344.55 1145.07,1344.55 1161.89,1344.55 1178.7,1344.55 1195.52,1019.06 1212.34,1019.06 1229.16,642.6 1245.97,642.6 1262.79,642.6 1279.61,642.6 1296.43,642.6 1313.24,642.6 1330.06,642.6 1346.88,642.6 1363.7,642.6 1380.51,642.6 1397.33,642.6 1414.15,642.6 1430.97,642.6 1447.78,642.6 1464.6,1087.61 1481.42,1087.61 1498.24,1344.55 1515.05,1344.55 1531.87,1344.55 1548.69,1344.55 1565.51,1344.55 1582.32,1344.55 1599.14,1019.06 1615.96,1019.06 1632.78,642.6 1649.59,642.6 1666.41,642.6 1683.23,642.6 1700.05,642.6 1716.86,642.6 1733.68,642.6 1750.5,642.6 1767.32,642.6 1784.13,642.6 1800.95,642.6 1817.77,642.6 1834.59,642.6 1851.4,642.6 1868.22,1087.61 1885.04,1087.61 1901.85,1344.55 1918.67,1344.55 1935.49,1344.55 1952.31,1344.55 1969.12,1344.55 1985.94,1344.55 2002.76,1019.06 2019.58,1019.06 2036.39,642.6 2053.21,642.6 2070.03,642.6 2086.85,642.6 2103.66,642.6 2120.48,642.6 2137.3,642.6 2154.12,642.6 2170.93,642.6 2187.75,642.6 2204.57,642.6 2221.39,642.6 2238.2,642.6 2255.02,642.6 2271.84,1087.61 2288.66,1087.61 2305.47,1344.55 2322.29,1344.55 2339.11,1344.55 2355.93,1344.55 2372.74,1344.55 2389.56,1344.55 2406.38,1019.06 2423.2,1019.06 2440.01,642.6 2456.83,642.6 2473.65,642.6 2490.47,642.6 2507.28,642.6 2524.1,642.6 2540.92,642.6 2557.74,642.6 2574.55,642.6 2591.37,642.6 2608.19,642.6 2625.01,642.6 2641.82,642.6 2658.64,642.6 2675.46,1087.61 2692.28,1087.61 2709.09,1344.55 2725.91,1344.55 2742.73,1344.55 2759.55,1344.55 2776.36,1344.55 2793.18,1344.55 2810,1019.06 2826.82,1019.06 2843.63,642.6 2860.45,642.6 2877.27,642.6 2894.09,642.6 2910.9,642.6 2927.72,642.6 2944.54,642.6 2961.35,642.6 2978.17,642.6 2994.99,642.6 3011.81,642.6 3028.62,642.6 3045.44,642.6 3062.26,642.6 3079.08,1087.61 3095.89,1087.61 "/>
<polyline clip-path="url(#clip522)" style="stroke:#e8000b; stroke-linecap:round; stroke-linejoin:round; stroke-width:5; stroke-opacity:1; fill:none" points="287.379,1290.11 304.196,1243.65 321.014,1243.65 337.831,1243.65 354.649,1243.65 371.466,1243.65 388.284,1243.65 405.101,580.25 421.919,580.25 438.736,580.25 455.553,580.25 472.371,580.25 489.188,580.25 506.006,580.25 522.823,580.25 539.641,580.25 556.458,580.25 573.276,580.25 590.093,580.25 606.911,580.25 623.728,580.25 640.546,580.25 657.363,1132.7 674.18,1132.7 690.998,1243.65 707.815,1243.65 724.633,1243.65 741.45,1243.65 758.268,1243.65 775.085,1243.65 791.903,1243.65 808.72,580.25 825.538,580.25 842.355,580.25 859.172,580.25 875.99,580.25 892.807,580.25 909.625,580.25 926.442,580.25 943.26,580.25 960.077,580.25 976.895,580.25 993.712,580.25 1010.53,580.25 1027.35,580.25 1044.16,580.25 1060.98,1132.7 1077.8,1132.7 1094.62,1243.65 1111.43,1243.65 1128.25,1243.65 1145.07,1243.65 1161.89,1243.65 1178.7,1243.65 1195.52,1243.65 1212.34,580.25 1229.16,580.25 1245.97,580.25 1262.79,580.25 1279.61,580.25 1296.43,580.25 1313.24,580.25 1330.06,580.25 1346.88,580.25 1363.7,580.25 1380.51,580.25 1397.33,580.25 1414.15,580.25 1430.97,580.25 1447.78,580.25 1464.6,1132.7 1481.42,1132.7 1498.24,1243.65 1515.05,1243.65 1531.87,1243.65 1548.69,1243.65 1565.51,1243.65 1582.32,1243.65 1599.14,1243.65 1615.96,580.25 1632.78,580.25 1649.59,580.25 1666.41,580.25 1683.23,580.25 1700.05,580.25 1716.86,580.25 1733.68,580.25 1750.5,580.25 1767.32,580.25 1784.13,580.25 1800.95,580.25 1817.77,580.25 1834.59,580.25 1851.4,580.25 1868.22,1132.7 1885.04,1132.7 1901.85,1243.65 1918.67,1243.65 1935.49,1243.65 1952.31,1243.65 1969.12,1243.65 1985.94,1243.65 2002.76,1243.65 2019.58,580.25 2036.39,580.25 2053.21,580.25 2070.03,580.25 2086.85,580.25 2103.66,580.25 2120.48,580.25 2137.3,580.25 2154.12,580.25 2170.93,580.25 2187.75,580.25 2204.57,580.25 2221.39,580.25 2238.2,580.25 2255.02,580.25 2271.84,1132.7 2288.66,1132.7 2305.47,1243.65 2322.29,1243.65 2339.11,1243.65 2355.93,1243.65 2372.74,1243.65 2389.56,1243.65 2406.38,1243.65 2423.2,580.25 2440.01,580.25 2456.83,580.25 2473.65,580.25 2490.47,580.25 2507.28,580.25 2524.1,580.25 2540.92,580.25 2557.74,580.25 2574.55,580.25 2591.37,580.25 2608.19,580.25 2625.01,580.25 2641.82,580.25 2658.64,580.25 2675.46,1132.7 2692.28,1132.7 2709.09,1243.65 2725.91,1243.65 2742.73,1243.65 2759.55,1243.65 2776.36,1243.65 2793.18,1243.65 2810,1243.65 2826.82,580.25 2843.63,580.25 2860.45,580.25 2877.27,580.25 2894.09,580.25 2910.9,580.25 2927.72,580.25 2944.54,580.25 2961.35,580.25 2978.17,580.25 2994.99,580.25 3011.81,580.25 3028.62,580.25 3045.44,580.25 3062.26,580.25 3079.08,1132.7 3095.89,1132.7 "/>
<path clip-path="url(#clip520)" d="M3305.14 445.512 L3952.76 445.512 L3952.76 95.592 L3305.14 95.592  Z" fill="#ffffff" fill-rule="evenodd" fill-opacity="1"/>
<polyline clip-path="url(#clip520)" style="stroke:#000000; stroke-linecap:round; stroke-linejoin:round; stroke-width:4; stroke-opacity:1; fill:none" points="3305.14,445.512 3952.76,445.512 3952.76,95.592 3305.14,95.592 3305.14,445.512 "/>
<polyline clip-path="url(#clip520)" style="stroke:#023eff; stroke-linecap:round; stroke-linejoin:round; stroke-width:5.625; stroke-opacity:1; fill:none" points="3346.8,153.912 3596.78,153.912 "/>
<path clip-path="url(#clip520)" d="M3643.26 168.977 L3643.26 184.446 L3638.44 184.446 L3638.44 144.185 L3643.26 144.185 L3643.26 148.613 Q3644.77 146.008 3647.06 144.758 Q3649.38 143.482 3652.58 143.482 Q3657.89 143.482 3661.2 147.701 Q3664.53 151.92 3664.53 158.795 Q3664.53 165.67 3661.2 169.888 Q3657.89 174.107 3652.58 174.107 Q3649.38 174.107 3647.06 172.857 Q3644.77 171.581 3643.26 168.977 M3659.56 158.795 Q3659.56 153.508 3657.37 150.514 Q3655.21 147.493 3651.41 147.493 Q3647.61 147.493 3645.42 150.514 Q3643.26 153.508 3643.26 158.795 Q3643.26 164.081 3645.42 167.102 Q3647.61 170.097 3651.41 170.097 Q3655.21 170.097 3657.37 167.102 Q3659.56 164.081 3659.56 158.795 Z" fill="#000000" fill-rule="nonzero" fill-opacity="1" /><path clip-path="url(#clip520)" d="M3689.38 148.665 Q3688.57 148.196 3687.6 147.988 Q3686.67 147.753 3685.52 147.753 Q3681.46 147.753 3679.27 150.409 Q3677.11 153.04 3677.11 157.987 L3677.11 173.352 L3672.29 173.352 L3672.29 144.185 L3677.11 144.185 L3677.11 148.717 Q3678.62 146.06 3681.04 144.784 Q3683.46 143.482 3686.93 143.482 Q3687.42 143.482 3688.02 143.56 Q3688.62 143.613 3689.35 143.743 L3689.38 148.665 Z" fill="#000000" fill-rule="nonzero" fill-opacity="1" /><path clip-path="url(#clip520)" d="M3718.18 157.571 L3718.18 159.915 L3696.15 159.915 Q3696.46 164.862 3699.12 167.467 Q3701.8 170.045 3706.56 170.045 Q3709.32 170.045 3711.9 169.368 Q3714.51 168.691 3717.06 167.336 L3717.06 171.868 Q3714.48 172.961 3711.77 173.534 Q3709.06 174.107 3706.28 174.107 Q3699.3 174.107 3695.21 170.045 Q3691.15 165.982 3691.15 159.055 Q3691.15 151.894 3695 147.701 Q3698.88 143.482 3705.44 143.482 Q3711.33 143.482 3714.74 147.284 Q3718.18 151.06 3718.18 157.571 M3713.39 156.165 Q3713.33 152.232 3711.17 149.889 Q3709.04 147.545 3705.5 147.545 Q3701.49 147.545 3699.06 149.81 Q3696.67 152.076 3696.3 156.191 L3713.39 156.165 Z" fill="#000000" fill-rule="nonzero" fill-opacity="1" /><path clip-path="url(#clip520)" d="M3745.23 148.613 L3745.23 132.831 L3750.03 132.831 L3750.03 173.352 L3745.23 173.352 L3745.23 168.977 Q3743.72 171.581 3741.41 172.857 Q3739.12 174.107 3735.89 174.107 Q3730.6 174.107 3727.27 169.888 Q3723.96 165.67 3723.96 158.795 Q3723.96 151.92 3727.27 147.701 Q3730.6 143.482 3735.89 143.482 Q3739.12 143.482 3741.41 144.758 Q3743.72 146.008 3745.23 148.613 M3728.91 158.795 Q3728.91 164.081 3731.07 167.102 Q3733.26 170.097 3737.06 170.097 Q3740.86 170.097 3743.05 167.102 Q3745.23 164.081 3745.23 158.795 Q3745.23 153.508 3743.05 150.514 Q3740.86 147.493 3737.06 147.493 Q3733.26 147.493 3731.07 150.514 Q3728.91 153.508 3728.91 158.795 Z" fill="#000000" fill-rule="nonzero" fill-opacity="1" /><path clip-path="url(#clip520)" d="M3759.9 144.185 L3764.69 144.185 L3764.69 173.352 L3759.9 173.352 L3759.9 144.185 M3759.9 132.831 L3764.69 132.831 L3764.69 138.899 L3759.9 138.899 L3759.9 132.831 Z" fill="#000000" fill-rule="nonzero" fill-opacity="1" /><path clip-path="url(#clip520)" d="M3795.7 145.305 L3795.7 149.784 Q3793.67 148.665 3791.61 148.118 Q3789.58 147.545 3787.5 147.545 Q3782.84 147.545 3780.26 150.514 Q3777.68 153.456 3777.68 158.795 Q3777.68 164.133 3780.26 167.102 Q3782.84 170.045 3787.5 170.045 Q3789.58 170.045 3791.61 169.498 Q3793.67 168.925 3795.7 167.805 L3795.7 172.232 Q3793.7 173.17 3791.54 173.638 Q3789.4 174.107 3786.98 174.107 Q3780.39 174.107 3776.51 169.967 Q3772.63 165.826 3772.63 158.795 Q3772.63 151.659 3776.54 147.571 Q3780.47 143.482 3787.29 143.482 Q3789.51 143.482 3791.61 143.951 Q3793.72 144.394 3795.7 145.305 Z" fill="#000000" fill-rule="nonzero" fill-opacity="1" /><path clip-path="url(#clip520)" d="M3808.78 135.904 L3808.78 144.185 L3818.65 144.185 L3818.65 147.909 L3808.78 147.909 L3808.78 163.743 Q3808.78 167.31 3809.74 168.326 Q3810.73 169.342 3813.72 169.342 L3818.65 169.342 L3818.65 173.352 L3813.72 173.352 Q3808.18 173.352 3806.07 171.295 Q3803.96 169.211 3803.96 163.743 L3803.96 147.909 L3800.44 147.909 L3800.44 144.185 L3803.96 144.185 L3803.96 135.904 L3808.78 135.904 Z" fill="#000000" fill-rule="nonzero" fill-opacity="1" /><path clip-path="url(#clip520)" d="M3847.11 182.206 L3847.11 185.93 L3819.4 185.93 L3819.4 182.206 L3847.11 182.206 Z" fill="#000000" fill-rule="nonzero" fill-opacity="1" /><path clip-path="url(#clip520)" d="M3852.34 134.472 L3872.99 134.472 L3872.99 138.899 L3857.16 138.899 L3857.16 148.43 Q3858.31 148.04 3859.45 147.857 Q3860.6 147.649 3861.74 147.649 Q3868.26 147.649 3872.06 151.217 Q3875.86 154.784 3875.86 160.878 Q3875.86 167.154 3871.95 170.644 Q3868.05 174.107 3860.94 174.107 Q3858.49 174.107 3855.94 173.69 Q3853.41 173.274 3850.7 172.441 L3850.7 167.154 Q3853.05 168.43 3855.55 169.055 Q3858.05 169.68 3860.83 169.68 Q3865.34 169.68 3867.97 167.31 Q3870.6 164.941 3870.6 160.878 Q3870.6 156.816 3867.97 154.446 Q3865.34 152.076 3860.83 152.076 Q3858.72 152.076 3856.61 152.545 Q3854.53 153.014 3852.34 154.003 L3852.34 134.472 Z" fill="#000000" fill-rule="nonzero" fill-opacity="1" /><path clip-path="url(#clip520)" d="M3890.75 168.925 L3909.11 168.925 L3909.11 173.352 L3884.43 173.352 L3884.43 168.925 Q3887.42 165.826 3892.58 160.618 Q3897.76 155.383 3899.09 153.873 Q3901.61 151.034 3902.6 149.081 Q3903.62 147.102 3903.62 145.201 Q3903.62 142.102 3901.43 140.149 Q3899.27 138.196 3895.78 138.196 Q3893.31 138.196 3890.55 139.055 Q3887.81 139.915 3884.69 141.659 L3884.69 136.347 Q3887.86 135.071 3890.62 134.42 Q3893.39 133.769 3895.68 133.769 Q3901.72 133.769 3905.31 136.79 Q3908.91 139.81 3908.91 144.863 Q3908.91 147.258 3907.99 149.42 Q3907.11 151.555 3904.74 154.472 Q3904.09 155.227 3900.6 158.847 Q3897.11 162.441 3890.75 168.925 Z" fill="#000000" fill-rule="nonzero" fill-opacity="1" /><polyline clip-path="url(#clip520)" style="stroke:#ff7c00; stroke-linecap:round; stroke-linejoin:round; stroke-width:5.625; stroke-opacity:1; fill:none" points="3346.8,212.232 3596.78,212.232 "/>
<path clip-path="url(#clip520)" d="M3643.26 227.297 L3643.26 242.766 L3638.44 242.766 L3638.44 202.505 L3643.26 202.505 L3643.26 206.933 Q3644.77 204.328 3647.06 203.078 Q3649.38 201.802 3652.58 201.802 Q3657.89 201.802 3661.2 206.021 Q3664.53 210.24 3664.53 217.115 Q3664.53 223.99 3661.2 228.208 Q3657.89 232.427 3652.58 232.427 Q3649.38 232.427 3647.06 231.177 Q3644.77 229.901 3643.26 227.297 M3659.56 217.115 Q3659.56 211.828 3657.37 208.834 Q3655.21 205.813 3651.41 205.813 Q3647.61 205.813 3645.42 208.834 Q3643.26 211.828 3643.26 217.115 Q3643.26 222.401 3645.42 225.422 Q3647.61 228.417 3651.41 228.417 Q3655.21 228.417 3657.37 225.422 Q3659.56 222.401 3659.56 217.115 Z" fill="#000000" fill-rule="nonzero" fill-opacity="1" /><path clip-path="url(#clip520)" d="M3689.38 206.985 Q3688.57 206.516 3687.6 206.308 Q3686.67 206.073 3685.52 206.073 Q3681.46 206.073 3679.27 208.729 Q3677.11 211.36 3677.11 216.307 L3677.11 231.672 L3672.29 231.672 L3672.29 202.505 L3677.11 202.505 L3677.11 207.037 Q3678.62 204.38 3681.04 203.104 Q3683.46 201.802 3686.93 201.802 Q3687.42 201.802 3688.02 201.88 Q3688.62 201.933 3689.35 202.063 L3689.38 206.985 Z" fill="#000000" fill-rule="nonzero" fill-opacity="1" /><path clip-path="url(#clip520)" d="M3718.18 215.891 L3718.18 218.235 L3696.15 218.235 Q3696.46 223.182 3699.12 225.787 Q3701.8 228.365 3706.56 228.365 Q3709.32 228.365 3711.9 227.688 Q3714.51 227.011 3717.06 225.656 L3717.06 230.188 Q3714.48 231.281 3711.77 231.854 Q3709.06 232.427 3706.28 232.427 Q3699.3 232.427 3695.21 228.365 Q3691.15 224.302 3691.15 217.375 Q3691.15 210.214 3695 206.021 Q3698.88 201.802 3705.44 201.802 Q3711.33 201.802 3714.74 205.604 Q3718.18 209.38 3718.18 215.891 M3713.39 214.485 Q3713.33 210.552 3711.17 208.209 Q3709.04 205.865 3705.5 205.865 Q3701.49 205.865 3699.06 208.13 Q3696.67 210.396 3696.3 214.511 L3713.39 214.485 Z" fill="#000000" fill-rule="nonzero" fill-opacity="1" /><path clip-path="url(#clip520)" d="M3745.23 206.933 L3745.23 191.151 L3750.03 191.151 L3750.03 231.672 L3745.23 231.672 L3745.23 227.297 Q3743.72 229.901 3741.41 231.177 Q3739.12 232.427 3735.89 232.427 Q3730.6 232.427 3727.27 228.208 Q3723.96 223.99 3723.96 217.115 Q3723.96 210.24 3727.27 206.021 Q3730.6 201.802 3735.89 201.802 Q3739.12 201.802 3741.41 203.078 Q3743.72 204.328 3745.23 206.933 M3728.91 217.115 Q3728.91 222.401 3731.07 225.422 Q3733.26 228.417 3737.06 228.417 Q3740.86 228.417 3743.05 225.422 Q3745.23 222.401 3745.23 217.115 Q3745.23 211.828 3743.05 208.834 Q3740.86 205.813 3737.06 205.813 Q3733.26 205.813 3731.07 208.834 Q3728.91 211.828 3728.91 217.115 Z" fill="#000000" fill-rule="nonzero" fill-opacity="1" /><path clip-path="url(#clip520)" d="M3759.9 202.505 L3764.69 202.505 L3764.69 231.672 L3759.9 231.672 L3759.9 202.505 M3759.9 191.151 L3764.69 191.151 L3764.69 197.219 L3759.9 197.219 L3759.9 191.151 Z" fill="#000000" fill-rule="nonzero" fill-opacity="1" /><path clip-path="url(#clip520)" d="M3795.7 203.625 L3795.7 208.104 Q3793.67 206.985 3791.61 206.438 Q3789.58 205.865 3787.5 205.865 Q3782.84 205.865 3780.26 208.834 Q3777.68 211.776 3777.68 217.115 Q3777.68 222.453 3780.26 225.422 Q3782.84 228.365 3787.5 228.365 Q3789.58 228.365 3791.61 227.818 Q3793.67 227.245 3795.7 226.125 L3795.7 230.552 Q3793.7 231.49 3791.54 231.958 Q3789.4 232.427 3786.98 232.427 Q3780.39 232.427 3776.51 228.287 Q3772.63 224.146 3772.63 217.115 Q3772.63 209.979 3776.54 205.891 Q3780.47 201.802 3787.29 201.802 Q3789.51 201.802 3791.61 202.271 Q3793.72 202.714 3795.7 203.625 Z" fill="#000000" fill-rule="nonzero" fill-opacity="1" /><path clip-path="url(#clip520)" d="M3808.78 194.224 L3808.78 202.505 L3818.65 202.505 L3818.65 206.229 L3808.78 206.229 L3808.78 222.063 Q3808.78 225.63 3809.74 226.646 Q3810.73 227.662 3813.72 227.662 L3818.65 227.662 L3818.65 231.672 L3813.72 231.672 Q3808.18 231.672 3806.07 229.615 Q3803.96 227.531 3803.96 222.063 L3803.96 206.229 L3800.44 206.229 L3800.44 202.505 L3803.96 202.505 L3803.96 194.224 L3808.78 194.224 Z" fill="#000000" fill-rule="nonzero" fill-opacity="1" /><path clip-path="url(#clip520)" d="M3847.11 240.526 L3847.11 244.25 L3819.4 244.25 L3819.4 240.526 L3847.11 240.526 Z" fill="#000000" fill-rule="nonzero" fill-opacity="1" /><path clip-path="url(#clip520)" d="M3856.82 227.245 L3875.18 227.245 L3875.18 231.672 L3850.49 231.672 L3850.49 227.245 Q3853.49 224.146 3858.65 218.938 Q3863.83 213.703 3865.16 212.193 Q3867.68 209.354 3868.67 207.401 Q3869.69 205.422 3869.69 203.521 Q3869.69 200.422 3867.5 198.469 Q3865.34 196.516 3861.85 196.516 Q3859.37 196.516 3856.61 197.375 Q3853.88 198.235 3850.76 199.979 L3850.76 194.667 Q3853.93 193.391 3856.69 192.74 Q3859.45 192.089 3861.74 192.089 Q3867.79 192.089 3871.38 195.11 Q3874.97 198.13 3874.97 203.183 Q3874.97 205.578 3874.06 207.74 Q3873.18 209.875 3870.81 212.792 Q3870.16 213.547 3866.67 217.167 Q3863.18 220.761 3856.82 227.245 Z" fill="#000000" fill-rule="nonzero" fill-opacity="1" /><path clip-path="url(#clip520)" d="M3898.12 210.136 Q3894.58 210.136 3892.5 212.557 Q3890.44 214.979 3890.44 219.198 Q3890.44 223.391 3892.5 225.839 Q3894.58 228.261 3898.12 228.261 Q3901.67 228.261 3903.72 225.839 Q3905.81 223.391 3905.81 219.198 Q3905.81 214.979 3903.72 212.557 Q3901.67 210.136 3898.12 210.136 M3908.57 193.651 L3908.57 198.443 Q3906.59 197.505 3904.56 197.011 Q3902.55 196.516 3900.57 196.516 Q3895.36 196.516 3892.6 200.031 Q3889.87 203.547 3889.48 210.656 Q3891.02 208.391 3893.33 207.193 Q3895.65 205.969 3898.44 205.969 Q3904.3 205.969 3907.68 209.537 Q3911.09 213.078 3911.09 219.198 Q3911.09 225.188 3907.55 228.807 Q3904.01 232.427 3898.12 232.427 Q3891.38 232.427 3887.81 227.271 Q3884.24 222.089 3884.24 212.271 Q3884.24 203.052 3888.62 197.584 Q3892.99 192.089 3900.36 192.089 Q3902.34 192.089 3904.35 192.479 Q3906.38 192.87 3908.57 193.651 Z" fill="#000000" fill-rule="nonzero" fill-opacity="1" /><polyline clip-path="url(#clip520)" style="stroke:#1ac938; stroke-linecap:round; stroke-linejoin:round; stroke-width:5.625; stroke-opacity:1; fill:none" points="3346.8,270.552 3596.78,270.552 "/>
<path clip-path="url(#clip520)" d="M3643.26 285.617 L3643.26 301.086 L3638.44 301.086 L3638.44 260.825 L3643.26 260.825 L3643.26 265.253 Q3644.77 262.648 3647.06 261.398 Q3649.38 260.122 3652.58 260.122 Q3657.89 260.122 3661.2 264.341 Q3664.53 268.56 3664.53 275.435 Q3664.53 282.31 3661.2 286.528 Q3657.89 290.747 3652.58 290.747 Q3649.38 290.747 3647.06 289.497 Q3644.77 288.221 3643.26 285.617 M3659.56 275.435 Q3659.56 270.148 3657.37 267.154 Q3655.21 264.133 3651.41 264.133 Q3647.61 264.133 3645.42 267.154 Q3643.26 270.148 3643.26 275.435 Q3643.26 280.721 3645.42 283.742 Q3647.61 286.737 3651.41 286.737 Q3655.21 286.737 3657.37 283.742 Q3659.56 280.721 3659.56 275.435 Z" fill="#000000" fill-rule="nonzero" fill-opacity="1" /><path clip-path="url(#clip520)" d="M3689.38 265.305 Q3688.57 264.836 3687.6 264.628 Q3686.67 264.393 3685.52 264.393 Q3681.46 264.393 3679.27 267.049 Q3677.11 269.68 3677.11 274.627 L3677.11 289.992 L3672.29 289.992 L3672.29 260.825 L3677.11 260.825 L3677.11 265.357 Q3678.62 262.7 3681.04 261.424 Q3683.46 260.122 3686.93 260.122 Q3687.42 260.122 3688.02 260.2 Q3688.62 260.253 3689.35 260.383 L3689.38 265.305 Z" fill="#000000" fill-rule="nonzero" fill-opacity="1" /><path clip-path="url(#clip520)" d="M3718.18 274.211 L3718.18 276.555 L3696.15 276.555 Q3696.46 281.502 3699.12 284.107 Q3701.8 286.685 3706.56 286.685 Q3709.32 286.685 3711.9 286.008 Q3714.51 285.331 3717.06 283.976 L3717.06 288.508 Q3714.48 289.601 3711.77 290.174 Q3709.06 290.747 3706.28 290.747 Q3699.3 290.747 3695.21 286.685 Q3691.15 282.622 3691.15 275.695 Q3691.15 268.534 3695 264.341 Q3698.88 260.122 3705.44 260.122 Q3711.33 260.122 3714.74 263.924 Q3718.18 267.7 3718.18 274.211 M3713.39 272.805 Q3713.33 268.872 3711.17 266.529 Q3709.04 264.185 3705.5 264.185 Q3701.49 264.185 3699.06 266.45 Q3696.67 268.716 3696.3 272.831 L3713.39 272.805 Z" fill="#000000" fill-rule="nonzero" fill-opacity="1" /><path clip-path="url(#clip520)" d="M3745.23 265.253 L3745.23 249.471 L3750.03 249.471 L3750.03 289.992 L3745.23 289.992 L3745.23 285.617 Q3743.72 288.221 3741.41 289.497 Q3739.12 290.747 3735.89 290.747 Q3730.6 290.747 3727.27 286.528 Q3723.96 282.31 3723.96 275.435 Q3723.96 268.56 3727.27 264.341 Q3730.6 260.122 3735.89 260.122 Q3739.12 260.122 3741.41 261.398 Q3743.72 262.648 3745.23 265.253 M3728.91 275.435 Q3728.91 280.721 3731.07 283.742 Q3733.26 286.737 3737.06 286.737 Q3740.86 286.737 3743.05 283.742 Q3745.23 280.721 3745.23 275.435 Q3745.23 270.148 3743.05 267.154 Q3740.86 264.133 3737.06 264.133 Q3733.26 264.133 3731.07 267.154 Q3728.91 270.148 3728.91 275.435 Z" fill="#000000" fill-rule="nonzero" fill-opacity="1" /><path clip-path="url(#clip520)" d="M3759.9 260.825 L3764.69 260.825 L3764.69 289.992 L3759.9 289.992 L3759.9 260.825 M3759.9 249.471 L3764.69 249.471 L3764.69 255.539 L3759.9 255.539 L3759.9 249.471 Z" fill="#000000" fill-rule="nonzero" fill-opacity="1" /><path clip-path="url(#clip520)" d="M3795.7 261.945 L3795.7 266.424 Q3793.67 265.305 3791.61 264.758 Q3789.58 264.185 3787.5 264.185 Q3782.84 264.185 3780.26 267.154 Q3777.68 270.096 3777.68 275.435 Q3777.68 280.773 3780.26 283.742 Q3782.84 286.685 3787.5 286.685 Q3789.58 286.685 3791.61 286.138 Q3793.67 285.565 3795.7 284.445 L3795.7 288.872 Q3793.7 289.81 3791.54 290.278 Q3789.4 290.747 3786.98 290.747 Q3780.39 290.747 3776.51 286.607 Q3772.63 282.466 3772.63 275.435 Q3772.63 268.299 3776.54 264.211 Q3780.47 260.122 3787.29 260.122 Q3789.51 260.122 3791.61 260.591 Q3793.72 261.034 3795.7 261.945 Z" fill="#000000" fill-rule="nonzero" fill-opacity="1" /><path clip-path="url(#clip520)" d="M3808.78 252.544 L3808.78 260.825 L3818.65 260.825 L3818.65 264.549 L3808.78 264.549 L3808.78 280.383 Q3808.78 283.95 3809.74 284.966 Q3810.73 285.982 3813.72 285.982 L3818.65 285.982 L3818.65 289.992 L3813.72 289.992 Q3808.18 289.992 3806.07 287.935 Q3803.96 285.851 3803.96 280.383 L3803.96 264.549 L3800.44 264.549 L3800.44 260.825 L3803.96 260.825 L3803.96 252.544 L3808.78 252.544 Z" fill="#000000" fill-rule="nonzero" fill-opacity="1" /><path clip-path="url(#clip520)" d="M3847.11 298.846 L3847.11 302.57 L3819.4 302.57 L3819.4 298.846 L3847.11 298.846 Z" fill="#000000" fill-rule="nonzero" fill-opacity="1" /><path clip-path="url(#clip520)" d="M3866.74 255.695 L3853.46 276.45 L3866.74 276.45 L3866.74 255.695 M3865.36 251.112 L3871.98 251.112 L3871.98 276.45 L3877.53 276.45 L3877.53 280.825 L3871.98 280.825 L3871.98 289.992 L3866.74 289.992 L3866.74 280.825 L3849.19 280.825 L3849.19 275.747 L3865.36 251.112 Z" fill="#000000" fill-rule="nonzero" fill-opacity="1" /><polyline clip-path="url(#clip520)" style="stroke:#e8000b; stroke-linecap:round; stroke-linejoin:round; stroke-width:5.625; stroke-opacity:1; fill:none" points="3346.8,328.872 3596.78,328.872 "/>
<path clip-path="url(#clip520)" d="M3643.26 343.937 L3643.26 359.406 L3638.44 359.406 L3638.44 319.145 L3643.26 319.145 L3643.26 323.573 Q3644.77 320.968 3647.06 319.718 Q3649.38 318.442 3652.58 318.442 Q3657.89 318.442 3661.2 322.661 Q3664.53 326.88 3664.53 333.755 Q3664.53 340.63 3661.2 344.848 Q3657.89 349.067 3652.58 349.067 Q3649.38 349.067 3647.06 347.817 Q3644.77 346.541 3643.26 343.937 M3659.56 333.755 Q3659.56 328.468 3657.37 325.474 Q3655.21 322.453 3651.41 322.453 Q3647.61 322.453 3645.42 325.474 Q3643.26 328.468 3643.26 333.755 Q3643.26 339.041 3645.42 342.062 Q3647.61 345.057 3651.41 345.057 Q3655.21 345.057 3657.37 342.062 Q3659.56 339.041 3659.56 333.755 Z" fill="#000000" fill-rule="nonzero" fill-opacity="1" /><path clip-path="url(#clip520)" d="M3689.38 323.625 Q3688.57 323.156 3687.6 322.948 Q3686.67 322.713 3685.52 322.713 Q3681.46 322.713 3679.27 325.369 Q3677.11 328 3677.11 332.947 L3677.11 348.312 L3672.29 348.312 L3672.29 319.145 L3677.11 319.145 L3677.11 323.677 Q3678.62 321.02 3681.04 319.744 Q3683.46 318.442 3686.93 318.442 Q3687.42 318.442 3688.02 318.52 Q3688.62 318.573 3689.35 318.703 L3689.38 323.625 Z" fill="#000000" fill-rule="nonzero" fill-opacity="1" /><path clip-path="url(#clip520)" d="M3718.18 332.531 L3718.18 334.875 L3696.15 334.875 Q3696.46 339.822 3699.12 342.427 Q3701.8 345.005 3706.56 345.005 Q3709.32 345.005 3711.9 344.328 Q3714.51 343.651 3717.06 342.296 L3717.06 346.828 Q3714.48 347.921 3711.77 348.494 Q3709.06 349.067 3706.28 349.067 Q3699.3 349.067 3695.21 345.005 Q3691.15 340.942 3691.15 334.015 Q3691.15 326.854 3695 322.661 Q3698.88 318.442 3705.44 318.442 Q3711.33 318.442 3714.74 322.244 Q3718.18 326.02 3718.18 332.531 M3713.39 331.125 Q3713.33 327.192 3711.17 324.849 Q3709.04 322.505 3705.5 322.505 Q3701.49 322.505 3699.06 324.77 Q3696.67 327.036 3696.3 331.151 L3713.39 331.125 Z" fill="#000000" fill-rule="nonzero" fill-opacity="1" /><path clip-path="url(#clip520)" d="M3745.23 323.573 L3745.23 307.791 L3750.03 307.791 L3750.03 348.312 L3745.23 348.312 L3745.23 343.937 Q3743.72 346.541 3741.41 347.817 Q3739.12 349.067 3735.89 349.067 Q3730.6 349.067 3727.27 344.848 Q3723.96 340.63 3723.96 333.755 Q3723.96 326.88 3727.27 322.661 Q3730.6 318.442 3735.89 318.442 Q3739.12 318.442 3741.41 319.718 Q3743.72 320.968 3745.23 323.573 M3728.91 333.755 Q3728.91 339.041 3731.07 342.062 Q3733.26 345.057 3737.06 345.057 Q3740.86 345.057 3743.05 342.062 Q3745.23 339.041 3745.23 333.755 Q3745.23 328.468 3743.05 325.474 Q3740.86 322.453 3737.06 322.453 Q3733.26 322.453 3731.07 325.474 Q3728.91 328.468 3728.91 333.755 Z" fill="#000000" fill-rule="nonzero" fill-opacity="1" /><path clip-path="url(#clip520)" d="M3759.9 319.145 L3764.69 319.145 L3764.69 348.312 L3759.9 348.312 L3759.9 319.145 M3759.9 307.791 L3764.69 307.791 L3764.69 313.859 L3759.9 313.859 L3759.9 307.791 Z" fill="#000000" fill-rule="nonzero" fill-opacity="1" /><path clip-path="url(#clip520)" d="M3795.7 320.265 L3795.7 324.744 Q3793.67 323.625 3791.61 323.078 Q3789.58 322.505 3787.5 322.505 Q3782.84 322.505 3780.26 325.474 Q3777.68 328.416 3777.68 333.755 Q3777.68 339.093 3780.26 342.062 Q3782.84 345.005 3787.5 345.005 Q3789.58 345.005 3791.61 344.458 Q3793.67 343.885 3795.7 342.765 L3795.7 347.192 Q3793.7 348.13 3791.54 348.598 Q3789.4 349.067 3786.98 349.067 Q3780.39 349.067 3776.51 344.927 Q3772.63 340.786 3772.63 333.755 Q3772.63 326.619 3776.54 322.531 Q3780.47 318.442 3787.29 318.442 Q3789.51 318.442 3791.61 318.911 Q3793.72 319.354 3795.7 320.265 Z" fill="#000000" fill-rule="nonzero" fill-opacity="1" /><path clip-path="url(#clip520)" d="M3808.78 310.864 L3808.78 319.145 L3818.65 319.145 L3818.65 322.869 L3808.78 322.869 L3808.78 338.703 Q3808.78 342.27 3809.74 343.286 Q3810.73 344.302 3813.72 344.302 L3818.65 344.302 L3818.65 348.312 L3813.72 348.312 Q3808.18 348.312 3806.07 346.255 Q3803.96 344.171 3803.96 338.703 L3803.96 322.869 L3800.44 322.869 L3800.44 319.145 L3803.96 319.145 L3803.96 310.864 L3808.78 310.864 Z" fill="#000000" fill-rule="nonzero" fill-opacity="1" /><path clip-path="url(#clip520)" d="M3847.11 357.166 L3847.11 360.89 L3819.4 360.89 L3819.4 357.166 L3847.11 357.166 Z" fill="#000000" fill-rule="nonzero" fill-opacity="1" /><path clip-path="url(#clip520)" d="M3853.2 343.885 L3861.8 343.885 L3861.8 314.224 L3852.45 316.099 L3852.45 311.307 L3861.74 309.432 L3867.01 309.432 L3867.01 343.885 L3875.6 343.885 L3875.6 348.312 L3853.2 348.312 L3853.2 343.885 Z" fill="#000000" fill-rule="nonzero" fill-opacity="1" /><polyline clip-path="url(#clip520)" style="stroke:#000000; stroke-linecap:round; stroke-linejoin:round; stroke-width:6.75; stroke-opacity:1; fill:none" points="3346.8,387.192 3596.78,387.192 "/>
<path clip-path="url(#clip520)" d="M3653.52 391.971 Q3647.71 391.971 3645.47 393.299 Q3643.23 394.627 3643.23 397.83 Q3643.23 400.382 3644.9 401.892 Q3646.59 403.377 3649.48 403.377 Q3653.46 403.377 3655.86 400.564 Q3658.28 397.726 3658.28 393.038 L3658.28 391.971 L3653.52 391.971 M3663.07 389.991 L3663.07 406.632 L3658.28 406.632 L3658.28 402.205 Q3656.64 404.861 3654.19 406.137 Q3651.75 407.387 3648.2 407.387 Q3643.72 407.387 3641.07 404.887 Q3638.44 402.361 3638.44 398.142 Q3638.44 393.221 3641.72 390.721 Q3645.03 388.221 3651.56 388.221 L3658.28 388.221 L3658.28 387.752 Q3658.28 384.445 3656.09 382.648 Q3653.93 380.825 3650 380.825 Q3647.5 380.825 3645.13 381.424 Q3642.76 382.023 3640.57 383.221 L3640.57 378.794 Q3643.2 377.778 3645.68 377.283 Q3648.15 376.762 3650.5 376.762 Q3656.82 376.762 3659.95 380.044 Q3663.07 383.325 3663.07 389.991 Z" fill="#000000" fill-rule="nonzero" fill-opacity="1" /><path clip-path="url(#clip520)" d="M3693.93 378.585 L3693.93 383.064 Q3691.9 381.945 3689.84 381.398 Q3687.81 380.825 3685.73 380.825 Q3681.07 380.825 3678.49 383.794 Q3675.91 386.736 3675.91 392.075 Q3675.91 397.413 3678.49 400.382 Q3681.07 403.325 3685.73 403.325 Q3687.81 403.325 3689.84 402.778 Q3691.9 402.205 3693.93 401.085 L3693.93 405.512 Q3691.93 406.45 3689.77 406.918 Q3687.63 407.387 3685.21 407.387 Q3678.62 407.387 3674.74 403.247 Q3670.86 399.106 3670.86 392.075 Q3670.86 384.939 3674.77 380.851 Q3678.7 376.762 3685.52 376.762 Q3687.74 376.762 3689.84 377.231 Q3691.95 377.674 3693.93 378.585 Z" fill="#000000" fill-rule="nonzero" fill-opacity="1" /><path clip-path="url(#clip520)" d="M3707.01 369.184 L3707.01 377.465 L3716.88 377.465 L3716.88 381.189 L3707.01 381.189 L3707.01 397.023 Q3707.01 400.59 3707.97 401.606 Q3708.96 402.622 3711.95 402.622 L3716.88 402.622 L3716.88 406.632 L3711.95 406.632 Q3706.41 406.632 3704.3 404.575 Q3702.19 402.491 3702.19 397.023 L3702.19 381.189 L3698.67 381.189 L3698.67 377.465 L3702.19 377.465 L3702.19 369.184 L3707.01 369.184 Z" fill="#000000" fill-rule="nonzero" fill-opacity="1" /><path clip-path="url(#clip520)" d="M3722.68 395.122 L3722.68 377.465 L3727.47 377.465 L3727.47 394.939 Q3727.47 399.08 3729.09 401.163 Q3730.7 403.221 3733.93 403.221 Q3737.81 403.221 3740.05 400.747 Q3742.32 398.273 3742.32 394.002 L3742.32 377.465 L3747.11 377.465 L3747.11 406.632 L3742.32 406.632 L3742.32 402.153 Q3740.57 404.809 3738.26 406.111 Q3735.96 407.387 3732.92 407.387 Q3727.89 407.387 3725.29 404.262 Q3722.68 401.137 3722.68 395.122 M3734.74 376.762 L3734.74 376.762 Z" fill="#000000" fill-rule="nonzero" fill-opacity="1" /><path clip-path="url(#clip520)" d="M3770.23 391.971 Q3764.43 391.971 3762.19 393.299 Q3759.95 394.627 3759.95 397.83 Q3759.95 400.382 3761.61 401.892 Q3763.31 403.377 3766.2 403.377 Q3770.18 403.377 3772.58 400.564 Q3775 397.726 3775 393.038 L3775 391.971 L3770.23 391.971 M3779.79 389.991 L3779.79 406.632 L3775 406.632 L3775 402.205 Q3773.36 404.861 3770.91 406.137 Q3768.46 407.387 3764.92 407.387 Q3760.44 407.387 3757.79 404.887 Q3755.16 402.361 3755.16 398.142 Q3755.16 393.221 3758.44 390.721 Q3761.75 388.221 3768.28 388.221 L3775 388.221 L3775 387.752 Q3775 384.445 3772.81 382.648 Q3770.65 380.825 3766.72 380.825 Q3764.22 380.825 3761.85 381.424 Q3759.48 382.023 3757.29 383.221 L3757.29 378.794 Q3759.92 377.778 3762.4 377.283 Q3764.87 376.762 3767.21 376.762 Q3773.54 376.762 3776.67 380.044 Q3779.79 383.325 3779.79 389.991 Z" fill="#000000" fill-rule="nonzero" fill-opacity="1" /><path clip-path="url(#clip520)" d="M3789.66 366.111 L3794.45 366.111 L3794.45 406.632 L3789.66 406.632 L3789.66 366.111 Z" fill="#000000" fill-rule="nonzero" fill-opacity="1" /></svg>
