<?xml version="1.0" encoding="utf-8"?>
<svg xmlns="http://www.w3.org/2000/svg" xmlns:xlink="http://www.w3.org/1999/xlink" width="1000" height="400" viewBox="0 0 4000 1600">
<defs>
  <clipPath id="clip120">
    <rect x="0" y="0" width="4000" height="1600"/>
  </clipPath>
</defs>
<path clip-path="url(#clip120)" d="M0 1600 L4000 1600 L4000 0 L0 0  Z" fill="#ffffff" fill-rule="evenodd" fill-opacity="1"/>
<defs>
  <clipPath id="clip121">
    <rect x="800" y="0" width="2801" height="1600"/>
  </clipPath>
</defs>
<path clip-path="url(#clip120)" d="M254.009 1497.68 L3186.93 1497.68 L3186.93 47.2441 L254.009 47.2441  Z" fill="#ffffff" fill-rule="evenodd" fill-opacity="1"/>
<defs>
  <clipPath id="clip122">
    <rect x="254" y="47" width="2934" height="1451"/>
  </clipPath>
</defs>
<polyline clip-path="url(#clip122)" style="stroke:#000000; stroke-linecap:round; stroke-linejoin:round; stroke-width:2; stroke-opacity:0.1; fill:none" points="337.016,1497.68 337.016,47.2441 "/>
<polyline clip-path="url(#clip122)" style="stroke:#000000; stroke-linecap:round; stroke-linejoin:round; stroke-width:2; stroke-opacity:0.1; fill:none" points="1132.3,1497.68 1132.3,47.2441 "/>
<polyline clip-path="url(#clip122)" style="stroke:#000000; stroke-linecap:round; stroke-linejoin:round; stroke-width:2; stroke-opacity:0.1; fill:none" points="1927.58,1497.68 1927.58,47.2441 "/>
<polyline clip-path="url(#clip122)" style="stroke:#000000; stroke-linecap:round; stroke-linejoin:round; stroke-width:2; stroke-opacity:0.1; fill:none" points="2722.86,1497.68 2722.86,47.2441 "/>
<polyline clip-path="url(#clip120)" style="stroke:#000000; stroke-linecap:round; stroke-linejoin:round; stroke-width:4; stroke-opacity:1; fill:none" points="254.009,1497.68 3186.93,1497.68 "/>
<polyline clip-path="url(#clip120)" style="stroke:#000000; stroke-linecap:round; stroke-linejoin:round; stroke-width:4; stroke-opacity:1; fill:none" points="337.016,1497.68 337.016,1478.78 "/>
<polyline clip-path="url(#clip120)" style="stroke:#000000; stroke-linecap:round; stroke-linejoin:round; stroke-width:4; stroke-opacity:1; fill:none" points="1132.3,1497.68 1132.3,1478.78 "/>
<polyline clip-path="url(#clip120)" style="stroke:#000000; stroke-linecap:round; stroke-linejoin:round; stroke-width:4; stroke-opacity:1; fill:none" points="1927.58,1497.68 1927.58,1478.78 "/>
<polyline clip-path="url(#clip120)" style="stroke:#000000; stroke-linecap:round; stroke-linejoin:round; stroke-width:4; stroke-opacity:1; fill:none" points="2722.86,1497.68 2722.86,1478.78 "/>
<path clip-path="url(#clip120)" d="M192.004 1573.85 L210.363 1573.85 L210.363 1578.28 L185.676 1578.28 L185.676 1573.85 Q188.67 1570.75 193.827 1565.55 Q199.009 1560.31 200.337 1558.8 Q202.863 1555.96 203.853 1554.01 Q204.868 1552.03 204.868 1550.13 Q204.868 1547.03 202.681 1545.08 Q200.519 1543.12 197.03 1543.12 Q194.556 1543.12 191.795 1543.98 Q189.061 1544.84 185.936 1546.59 L185.936 1541.27 Q189.113 1540 191.873 1539.35 Q194.634 1538.7 196.925 1538.7 Q202.967 1538.7 206.561 1541.72 Q210.155 1544.74 210.155 1549.79 Q210.155 1552.19 209.243 1554.35 Q208.358 1556.48 205.988 1559.4 Q205.337 1560.15 201.847 1563.77 Q198.358 1567.37 192.004 1573.85 Z" fill="#000000" fill-rule="nonzero" fill-opacity="1" /><path clip-path="url(#clip120)" d="M232.654 1542.86 Q228.592 1542.86 226.535 1546.87 Q224.503 1550.86 224.503 1558.88 Q224.503 1566.87 226.535 1570.88 Q228.592 1574.87 232.654 1574.87 Q236.743 1574.87 238.774 1570.88 Q240.831 1566.87 240.831 1558.88 Q240.831 1550.86 238.774 1546.87 Q236.743 1542.86 232.654 1542.86 M232.654 1538.7 Q239.191 1538.7 242.628 1543.88 Q246.092 1549.04 246.092 1558.88 Q246.092 1568.7 242.628 1573.88 Q239.191 1579.04 232.654 1579.04 Q226.118 1579.04 222.655 1573.88 Q219.217 1568.7 219.217 1558.88 Q219.217 1549.04 222.655 1543.88 Q226.118 1538.7 232.654 1538.7 Z" fill="#000000" fill-rule="nonzero" fill-opacity="1" /><path clip-path="url(#clip120)" d="M259.868 1573.85 L278.227 1573.85 L278.227 1578.28 L253.54 1578.28 L253.54 1573.85 Q256.535 1570.75 261.691 1565.55 Q266.873 1560.31 268.201 1558.8 Q270.727 1555.96 271.717 1554.01 Q272.732 1552.03 272.732 1550.13 Q272.732 1547.03 270.545 1545.08 Q268.383 1543.12 264.894 1543.12 Q262.42 1543.12 259.66 1543.98 Q256.925 1544.84 253.8 1546.59 L253.8 1541.27 Q256.977 1540 259.738 1539.35 Q262.498 1538.7 264.79 1538.7 Q270.831 1538.7 274.425 1541.72 Q278.019 1544.74 278.019 1549.79 Q278.019 1552.19 277.107 1554.35 Q276.222 1556.48 273.852 1559.4 Q273.201 1560.15 269.712 1563.77 Q266.222 1567.37 259.868 1573.85 Z" fill="#000000" fill-rule="nonzero" fill-opacity="1" /><path clip-path="url(#clip120)" d="M305.206 1557.32 Q308.982 1558.12 311.092 1560.68 Q313.227 1563.23 313.227 1566.98 Q313.227 1572.73 309.269 1575.88 Q305.31 1579.04 298.019 1579.04 Q295.571 1579.04 292.967 1578.54 Q290.389 1578.07 287.628 1577.11 L287.628 1572.03 Q289.816 1573.31 292.42 1573.96 Q295.024 1574.61 297.862 1574.61 Q302.81 1574.61 305.388 1572.65 Q307.993 1570.7 307.993 1566.98 Q307.993 1563.54 305.571 1561.61 Q303.175 1559.66 298.878 1559.66 L294.347 1559.66 L294.347 1555.34 L299.086 1555.34 Q302.967 1555.34 305.024 1553.8 Q307.081 1552.24 307.081 1549.32 Q307.081 1546.33 304.946 1544.74 Q302.836 1543.12 298.878 1543.12 Q296.717 1543.12 294.243 1543.59 Q291.769 1544.06 288.8 1545.05 L288.8 1540.36 Q291.795 1539.53 294.399 1539.11 Q297.029 1538.7 299.347 1538.7 Q305.336 1538.7 308.826 1541.43 Q312.315 1544.14 312.315 1548.77 Q312.315 1552 310.467 1554.24 Q308.618 1556.46 305.206 1557.32 Z" fill="#000000" fill-rule="nonzero" fill-opacity="1" /><path clip-path="url(#clip120)" d="M320.102 1561.54 L334.138 1561.54 L334.138 1565.81 L320.102 1565.81 L320.102 1561.54 Z" fill="#000000" fill-rule="nonzero" fill-opacity="1" /><path clip-path="url(#clip120)" d="M353.695 1542.86 Q349.633 1542.86 347.576 1546.87 Q345.544 1550.86 345.544 1558.88 Q345.544 1566.87 347.576 1570.88 Q349.633 1574.87 353.695 1574.87 Q357.784 1574.87 359.815 1570.88 Q361.873 1566.87 361.873 1558.88 Q361.873 1550.86 359.815 1546.87 Q357.784 1542.86 353.695 1542.86 M353.695 1538.7 Q360.232 1538.7 363.669 1543.88 Q367.133 1549.04 367.133 1558.88 Q367.133 1568.7 363.669 1573.88 Q360.232 1579.04 353.695 1579.04 Q347.159 1579.04 343.696 1573.88 Q340.258 1568.7 340.258 1558.88 Q340.258 1549.04 343.696 1543.88 Q347.159 1538.7 353.695 1538.7 Z" fill="#000000" fill-rule="nonzero" fill-opacity="1" /><path clip-path="url(#clip120)" d="M377.289 1573.85 L385.883 1573.85 L385.883 1544.19 L376.534 1546.07 L376.534 1541.27 L385.831 1539.4 L391.091 1539.4 L391.091 1573.85 L399.685 1573.85 L399.685 1578.28 L377.289 1578.28 L377.289 1573.85 Z" fill="#000000" fill-rule="nonzero" fill-opacity="1" /><path clip-path="url(#clip120)" d="M407.211 1561.54 L421.247 1561.54 L421.247 1565.81 L407.211 1565.81 L407.211 1561.54 Z" fill="#000000" fill-rule="nonzero" fill-opacity="1" /><path clip-path="url(#clip120)" d="M430.466 1573.85 L439.06 1573.85 L439.06 1544.19 L429.711 1546.07 L429.711 1541.27 L439.008 1539.4 L444.268 1539.4 L444.268 1573.85 L452.862 1573.85 L452.862 1578.28 L430.466 1578.28 L430.466 1573.85 Z" fill="#000000" fill-rule="nonzero" fill-opacity="1" /><path clip-path="url(#clip120)" d="M475.388 1556.74 Q471.846 1556.74 469.763 1559.17 Q467.705 1561.59 467.705 1565.81 Q467.705 1570 469.763 1572.45 Q471.846 1574.87 475.388 1574.87 Q478.929 1574.87 480.986 1572.45 Q483.07 1570 483.07 1565.81 Q483.07 1561.59 480.986 1559.17 Q478.929 1556.74 475.388 1556.74 M485.83 1540.26 L485.83 1545.05 Q483.851 1544.11 481.82 1543.62 Q479.815 1543.12 477.835 1543.12 Q472.627 1543.12 469.867 1546.64 Q467.132 1550.16 466.742 1557.26 Q468.278 1555 470.596 1553.8 Q472.914 1552.58 475.7 1552.58 Q481.559 1552.58 484.945 1556.14 Q488.356 1559.69 488.356 1565.81 Q488.356 1571.8 484.815 1575.42 Q481.273 1579.04 475.388 1579.04 Q468.643 1579.04 465.075 1573.88 Q461.507 1568.7 461.507 1558.88 Q461.507 1549.66 465.882 1544.19 Q470.257 1538.7 477.627 1538.7 Q479.606 1538.7 481.611 1539.09 Q483.643 1539.48 485.83 1540.26 Z" fill="#000000" fill-rule="nonzero" fill-opacity="1" /><path clip-path="url(#clip120)" d="M987.427 1573.85 L1005.79 1573.85 L1005.79 1578.28 L981.099 1578.28 L981.099 1573.85 Q984.094 1570.75 989.25 1565.55 Q994.432 1560.31 995.76 1558.8 Q998.286 1555.96 999.276 1554.01 Q1000.29 1552.03 1000.29 1550.13 Q1000.29 1547.03 998.104 1545.08 Q995.942 1543.12 992.453 1543.12 Q989.979 1543.12 987.219 1543.98 Q984.484 1544.84 981.359 1546.59 L981.359 1541.27 Q984.536 1540 987.297 1539.35 Q990.057 1538.7 992.349 1538.7 Q998.39 1538.7 1001.98 1541.72 Q1005.58 1544.74 1005.58 1549.79 Q1005.58 1552.19 1004.67 1554.35 Q1003.78 1556.48 1001.41 1559.4 Q1000.76 1560.15 997.271 1563.77 Q993.781 1567.37 987.427 1573.85 Z" fill="#000000" fill-rule="nonzero" fill-opacity="1" /><path clip-path="url(#clip120)" d="M1028.08 1542.86 Q1024.02 1542.86 1021.96 1546.87 Q1019.93 1550.86 1019.93 1558.88 Q1019.93 1566.87 1021.96 1570.88 Q1024.02 1574.87 1028.08 1574.87 Q1032.17 1574.87 1034.2 1570.88 Q1036.25 1566.87 1036.25 1558.88 Q1036.25 1550.86 1034.2 1546.87 Q1032.17 1542.86 1028.08 1542.86 M1028.08 1538.7 Q1034.61 1538.7 1038.05 1543.88 Q1041.52 1549.04 1041.52 1558.88 Q1041.52 1568.7 1038.05 1573.88 Q1034.61 1579.04 1028.08 1579.04 Q1021.54 1579.04 1018.08 1573.88 Q1014.64 1568.7 1014.64 1558.88 Q1014.64 1549.04 1018.08 1543.88 Q1021.54 1538.7 1028.08 1538.7 Z" fill="#000000" fill-rule="nonzero" fill-opacity="1" /><path clip-path="url(#clip120)" d="M1055.29 1573.85 L1073.65 1573.85 L1073.65 1578.28 L1048.96 1578.28 L1048.96 1573.85 Q1051.96 1570.75 1057.11 1565.55 Q1062.3 1560.31 1063.62 1558.8 Q1066.15 1555.96 1067.14 1554.01 Q1068.16 1552.03 1068.16 1550.13 Q1068.16 1547.03 1065.97 1545.08 Q1063.81 1543.12 1060.32 1543.12 Q1057.84 1543.12 1055.08 1543.98 Q1052.35 1544.84 1049.22 1546.59 L1049.22 1541.27 Q1052.4 1540 1055.16 1539.35 Q1057.92 1538.7 1060.21 1538.7 Q1066.25 1538.7 1069.85 1541.72 Q1073.44 1544.74 1073.44 1549.79 Q1073.44 1552.19 1072.53 1554.35 Q1071.65 1556.48 1069.28 1559.4 Q1068.62 1560.15 1065.13 1563.77 Q1061.65 1567.37 1055.29 1573.85 Z" fill="#000000" fill-rule="nonzero" fill-opacity="1" /><path clip-path="url(#clip120)" d="M1100.63 1557.32 Q1104.41 1558.12 1106.51 1560.68 Q1108.65 1563.23 1108.65 1566.98 Q1108.65 1572.73 1104.69 1575.88 Q1100.73 1579.04 1093.44 1579.04 Q1090.99 1579.04 1088.39 1578.54 Q1085.81 1578.07 1083.05 1577.11 L1083.05 1572.03 Q1085.24 1573.31 1087.84 1573.96 Q1090.45 1574.61 1093.29 1574.61 Q1098.23 1574.61 1100.81 1572.65 Q1103.42 1570.7 1103.42 1566.98 Q1103.42 1563.54 1100.99 1561.61 Q1098.6 1559.66 1094.3 1559.66 L1089.77 1559.66 L1089.77 1555.34 L1094.51 1555.34 Q1098.39 1555.34 1100.45 1553.8 Q1102.5 1552.24 1102.5 1549.32 Q1102.5 1546.33 1100.37 1544.74 Q1098.26 1543.12 1094.3 1543.12 Q1092.14 1543.12 1089.67 1543.59 Q1087.19 1544.06 1084.22 1545.05 L1084.22 1540.36 Q1087.22 1539.53 1089.82 1539.11 Q1092.45 1538.7 1094.77 1538.7 Q1100.76 1538.7 1104.25 1541.43 Q1107.74 1544.14 1107.74 1548.77 Q1107.74 1552 1105.89 1554.24 Q1104.04 1556.46 1100.63 1557.32 Z" fill="#000000" fill-rule="nonzero" fill-opacity="1" /><path clip-path="url(#clip120)" d="M1115.53 1561.54 L1129.56 1561.54 L1129.56 1565.81 L1115.53 1565.81 L1115.53 1561.54 Z" fill="#000000" fill-rule="nonzero" fill-opacity="1" /><path clip-path="url(#clip120)" d="M1149.12 1542.86 Q1145.06 1542.86 1143 1546.87 Q1140.97 1550.86 1140.97 1558.88 Q1140.97 1566.87 1143 1570.88 Q1145.06 1574.87 1149.12 1574.87 Q1153.21 1574.87 1155.24 1570.88 Q1157.3 1566.87 1157.3 1558.88 Q1157.3 1550.86 1155.24 1546.87 Q1153.21 1542.86 1149.12 1542.86 M1149.12 1538.7 Q1155.66 1538.7 1159.09 1543.88 Q1162.56 1549.04 1162.56 1558.88 Q1162.56 1568.7 1159.09 1573.88 Q1155.66 1579.04 1149.12 1579.04 Q1142.58 1579.04 1139.12 1573.88 Q1135.68 1568.7 1135.68 1558.88 Q1135.68 1549.04 1139.12 1543.88 Q1142.58 1538.7 1149.12 1538.7 Z" fill="#000000" fill-rule="nonzero" fill-opacity="1" /><path clip-path="url(#clip120)" d="M1172.71 1573.85 L1181.31 1573.85 L1181.31 1544.19 L1171.96 1546.07 L1171.96 1541.27 L1181.25 1539.4 L1186.51 1539.4 L1186.51 1573.85 L1195.11 1573.85 L1195.11 1578.28 L1172.71 1578.28 L1172.71 1573.85 Z" fill="#000000" fill-rule="nonzero" fill-opacity="1" /><path clip-path="url(#clip120)" d="M1202.63 1561.54 L1216.67 1561.54 L1216.67 1565.81 L1202.63 1565.81 L1202.63 1561.54 Z" fill="#000000" fill-rule="nonzero" fill-opacity="1" /><path clip-path="url(#clip120)" d="M1225.89 1573.85 L1234.48 1573.85 L1234.48 1544.19 L1225.13 1546.07 L1225.13 1541.27 L1234.43 1539.4 L1239.69 1539.4 L1239.69 1573.85 L1248.28 1573.85 L1248.28 1578.28 L1225.89 1578.28 L1225.89 1573.85 Z" fill="#000000" fill-rule="nonzero" fill-opacity="1" /><path clip-path="url(#clip120)" d="M1270.16 1559.82 Q1266.41 1559.82 1264.25 1561.82 Q1262.11 1563.83 1262.11 1567.34 Q1262.11 1570.86 1264.25 1572.86 Q1266.41 1574.87 1270.16 1574.87 Q1273.91 1574.87 1276.07 1572.86 Q1278.23 1570.83 1278.23 1567.34 Q1278.23 1563.83 1276.07 1561.82 Q1273.94 1559.82 1270.16 1559.82 M1264.9 1557.58 Q1261.51 1556.74 1259.61 1554.43 Q1257.74 1552.11 1257.74 1548.77 Q1257.74 1544.11 1261.05 1541.41 Q1264.38 1538.7 1270.16 1538.7 Q1275.97 1538.7 1279.27 1541.41 Q1282.58 1544.11 1282.58 1548.77 Q1282.58 1552.11 1280.68 1554.43 Q1278.81 1556.74 1275.45 1557.58 Q1279.25 1558.46 1281.36 1561.04 Q1283.49 1563.62 1283.49 1567.34 Q1283.49 1572.99 1280.03 1576.01 Q1276.59 1579.04 1270.16 1579.04 Q1263.73 1579.04 1260.26 1576.01 Q1256.83 1572.99 1256.83 1567.34 Q1256.83 1563.62 1258.96 1561.04 Q1261.1 1558.46 1264.9 1557.58 M1262.97 1549.27 Q1262.97 1552.29 1264.85 1553.98 Q1266.75 1555.68 1270.16 1555.68 Q1273.55 1555.68 1275.45 1553.98 Q1277.37 1552.29 1277.37 1549.27 Q1277.37 1546.25 1275.45 1544.56 Q1273.55 1542.86 1270.16 1542.86 Q1266.75 1542.86 1264.85 1544.56 Q1262.97 1546.25 1262.97 1549.27 Z" fill="#000000" fill-rule="nonzero" fill-opacity="1" /><path clip-path="url(#clip120)" d="M1782.65 1573.85 L1801.01 1573.85 L1801.01 1578.28 L1776.33 1578.28 L1776.33 1573.85 Q1779.32 1570.75 1784.48 1565.55 Q1789.66 1560.31 1790.99 1558.8 Q1793.51 1555.96 1794.5 1554.01 Q1795.52 1552.03 1795.52 1550.13 Q1795.52 1547.03 1793.33 1545.08 Q1791.17 1543.12 1787.68 1543.12 Q1785.21 1543.12 1782.45 1543.98 Q1779.71 1544.84 1776.59 1546.59 L1776.59 1541.27 Q1779.76 1540 1782.52 1539.35 Q1785.28 1538.7 1787.58 1538.7 Q1793.62 1538.7 1797.21 1541.72 Q1800.81 1544.74 1800.81 1549.79 Q1800.81 1552.19 1799.89 1554.35 Q1799.01 1556.48 1796.64 1559.4 Q1795.99 1560.15 1792.5 1563.77 Q1789.01 1567.37 1782.65 1573.85 Z" fill="#000000" fill-rule="nonzero" fill-opacity="1" /><path clip-path="url(#clip120)" d="M1823.31 1542.86 Q1819.24 1542.86 1817.19 1546.87 Q1815.15 1550.86 1815.15 1558.88 Q1815.15 1566.87 1817.19 1570.88 Q1819.24 1574.87 1823.31 1574.87 Q1827.39 1574.87 1829.43 1570.88 Q1831.48 1566.87 1831.48 1558.88 Q1831.48 1550.86 1829.43 1546.87 Q1827.39 1542.86 1823.31 1542.86 M1823.31 1538.7 Q1829.84 1538.7 1833.28 1543.88 Q1836.74 1549.04 1836.74 1558.88 Q1836.74 1568.7 1833.28 1573.88 Q1829.84 1579.04 1823.31 1579.04 Q1816.77 1579.04 1813.31 1573.88 Q1809.87 1568.7 1809.87 1558.88 Q1809.87 1549.04 1813.31 1543.88 Q1816.77 1538.7 1823.31 1538.7 Z" fill="#000000" fill-rule="nonzero" fill-opacity="1" /><path clip-path="url(#clip120)" d="M1850.52 1573.85 L1868.88 1573.85 L1868.88 1578.28 L1844.19 1578.28 L1844.19 1573.85 Q1847.19 1570.75 1852.34 1565.55 Q1857.52 1560.31 1858.85 1558.8 Q1861.38 1555.96 1862.37 1554.01 Q1863.38 1552.03 1863.38 1550.13 Q1863.38 1547.03 1861.2 1545.08 Q1859.03 1543.12 1855.54 1543.12 Q1853.07 1543.12 1850.31 1543.98 Q1847.58 1544.84 1844.45 1546.59 L1844.45 1541.27 Q1847.63 1540 1850.39 1539.35 Q1853.15 1538.7 1855.44 1538.7 Q1861.48 1538.7 1865.08 1541.72 Q1868.67 1544.74 1868.67 1549.79 Q1868.67 1552.19 1867.76 1554.35 Q1866.87 1556.48 1864.5 1559.4 Q1863.85 1560.15 1860.36 1563.77 Q1856.87 1567.37 1850.52 1573.85 Z" fill="#000000" fill-rule="nonzero" fill-opacity="1" /><path clip-path="url(#clip120)" d="M1895.86 1557.32 Q1899.63 1558.12 1901.74 1560.68 Q1903.88 1563.23 1903.88 1566.98 Q1903.88 1572.73 1899.92 1575.88 Q1895.96 1579.04 1888.67 1579.04 Q1886.22 1579.04 1883.62 1578.54 Q1881.04 1578.07 1878.28 1577.11 L1878.28 1572.03 Q1880.47 1573.31 1883.07 1573.96 Q1885.68 1574.61 1888.51 1574.61 Q1893.46 1574.61 1896.04 1572.65 Q1898.64 1570.7 1898.64 1566.98 Q1898.64 1563.54 1896.22 1561.61 Q1893.83 1559.66 1889.53 1559.66 L1885 1559.66 L1885 1555.34 L1889.74 1555.34 Q1893.62 1555.34 1895.67 1553.8 Q1897.73 1552.24 1897.73 1549.32 Q1897.73 1546.33 1895.6 1544.74 Q1893.49 1543.12 1889.53 1543.12 Q1887.37 1543.12 1884.89 1543.59 Q1882.42 1544.06 1879.45 1545.05 L1879.45 1540.36 Q1882.45 1539.53 1885.05 1539.11 Q1887.68 1538.7 1890 1538.7 Q1895.99 1538.7 1899.48 1541.43 Q1902.97 1544.14 1902.97 1548.77 Q1902.97 1552 1901.12 1554.24 Q1899.27 1556.46 1895.86 1557.32 Z" fill="#000000" fill-rule="nonzero" fill-opacity="1" /><path clip-path="url(#clip120)" d="M1910.75 1561.54 L1924.79 1561.54 L1924.79 1565.81 L1910.75 1565.81 L1910.75 1561.54 Z" fill="#000000" fill-rule="nonzero" fill-opacity="1" /><path clip-path="url(#clip120)" d="M1944.35 1542.86 Q1940.28 1542.86 1938.23 1546.87 Q1936.2 1550.86 1936.2 1558.88 Q1936.2 1566.87 1938.23 1570.88 Q1940.28 1574.87 1944.35 1574.87 Q1948.44 1574.87 1950.47 1570.88 Q1952.52 1566.87 1952.52 1558.88 Q1952.52 1550.86 1950.47 1546.87 Q1948.44 1542.86 1944.35 1542.86 M1944.35 1538.7 Q1950.88 1538.7 1954.32 1543.88 Q1957.78 1549.04 1957.78 1558.88 Q1957.78 1568.7 1954.32 1573.88 Q1950.88 1579.04 1944.35 1579.04 Q1937.81 1579.04 1934.35 1573.88 Q1930.91 1568.7 1930.91 1558.88 Q1930.91 1549.04 1934.35 1543.88 Q1937.81 1538.7 1944.35 1538.7 Z" fill="#000000" fill-rule="nonzero" fill-opacity="1" /><path clip-path="url(#clip120)" d="M1967.94 1573.85 L1976.53 1573.85 L1976.53 1544.19 L1967.18 1546.07 L1967.18 1541.27 L1976.48 1539.4 L1981.74 1539.4 L1981.74 1573.85 L1990.34 1573.85 L1990.34 1578.28 L1967.94 1578.28 L1967.94 1573.85 Z" fill="#000000" fill-rule="nonzero" fill-opacity="1" /><path clip-path="url(#clip120)" d="M1997.86 1561.54 L2011.9 1561.54 L2011.9 1565.81 L1997.86 1565.81 L1997.86 1561.54 Z" fill="#000000" fill-rule="nonzero" fill-opacity="1" /><path clip-path="url(#clip120)" d="M2024.74 1573.85 L2043.1 1573.85 L2043.1 1578.28 L2018.41 1578.28 L2018.41 1573.85 Q2021.4 1570.75 2026.56 1565.55 Q2031.74 1560.31 2033.07 1558.8 Q2035.6 1555.96 2036.59 1554.01 Q2037.6 1552.03 2037.6 1550.13 Q2037.6 1547.03 2035.41 1545.08 Q2033.25 1543.12 2029.76 1543.12 Q2027.29 1543.12 2024.53 1543.98 Q2021.79 1544.84 2018.67 1546.59 L2018.67 1541.27 Q2021.85 1540 2024.61 1539.35 Q2027.37 1538.7 2029.66 1538.7 Q2035.7 1538.7 2039.29 1541.72 Q2042.89 1544.74 2042.89 1549.79 Q2042.89 1552.19 2041.98 1554.35 Q2041.09 1556.48 2038.72 1559.4 Q2038.07 1560.15 2034.58 1563.77 Q2031.09 1567.37 2024.74 1573.85 Z" fill="#000000" fill-rule="nonzero" fill-opacity="1" /><path clip-path="url(#clip120)" d="M2065.39 1542.86 Q2061.33 1542.86 2059.27 1546.87 Q2057.24 1550.86 2057.24 1558.88 Q2057.24 1566.87 2059.27 1570.88 Q2061.33 1574.87 2065.39 1574.87 Q2069.48 1574.87 2071.51 1570.88 Q2073.56 1566.87 2073.56 1558.88 Q2073.56 1550.86 2071.51 1546.87 Q2069.48 1542.86 2065.39 1542.86 M2065.39 1538.7 Q2071.92 1538.7 2075.36 1543.88 Q2078.83 1549.04 2078.83 1558.88 Q2078.83 1568.7 2075.36 1573.88 Q2071.92 1579.04 2065.39 1579.04 Q2058.85 1579.04 2055.39 1573.88 Q2051.95 1568.7 2051.95 1558.88 Q2051.95 1549.04 2055.39 1543.88 Q2058.85 1538.7 2065.39 1538.7 Z" fill="#000000" fill-rule="nonzero" fill-opacity="1" /><path clip-path="url(#clip120)" d="M2578.83 1573.85 L2597.19 1573.85 L2597.19 1578.28 L2572.51 1578.28 L2572.51 1573.85 Q2575.5 1570.75 2580.66 1565.55 Q2585.84 1560.31 2587.17 1558.8 Q2589.69 1555.96 2590.68 1554.01 Q2591.7 1552.03 2591.7 1550.13 Q2591.7 1547.03 2589.51 1545.08 Q2587.35 1543.12 2583.86 1543.12 Q2581.39 1543.12 2578.62 1543.98 Q2575.89 1544.84 2572.77 1546.59 L2572.77 1541.27 Q2575.94 1540 2578.7 1539.35 Q2581.46 1538.7 2583.75 1538.7 Q2589.8 1538.7 2593.39 1541.72 Q2596.98 1544.74 2596.98 1549.79 Q2596.98 1552.19 2596.07 1554.35 Q2595.19 1556.48 2592.82 1559.4 Q2592.17 1560.15 2588.68 1563.77 Q2585.19 1567.37 2578.83 1573.85 Z" fill="#000000" fill-rule="nonzero" fill-opacity="1" /><path clip-path="url(#clip120)" d="M2619.48 1542.86 Q2615.42 1542.86 2613.36 1546.87 Q2611.33 1550.86 2611.33 1558.88 Q2611.33 1566.87 2613.36 1570.88 Q2615.42 1574.87 2619.48 1574.87 Q2623.57 1574.87 2625.6 1570.88 Q2627.66 1566.87 2627.66 1558.88 Q2627.66 1550.86 2625.6 1546.87 Q2623.57 1542.86 2619.48 1542.86 M2619.48 1538.7 Q2626.02 1538.7 2629.46 1543.88 Q2632.92 1549.04 2632.92 1558.88 Q2632.92 1568.7 2629.46 1573.88 Q2626.02 1579.04 2619.48 1579.04 Q2612.95 1579.04 2609.48 1573.88 Q2606.05 1568.7 2606.05 1558.88 Q2606.05 1549.04 2609.48 1543.88 Q2612.95 1538.7 2619.48 1538.7 Z" fill="#000000" fill-rule="nonzero" fill-opacity="1" /><path clip-path="url(#clip120)" d="M2646.7 1573.85 L2665.06 1573.85 L2665.06 1578.28 L2640.37 1578.28 L2640.37 1573.85 Q2643.36 1570.75 2648.52 1565.55 Q2653.7 1560.31 2655.03 1558.8 Q2657.56 1555.96 2658.55 1554.01 Q2659.56 1552.03 2659.56 1550.13 Q2659.56 1547.03 2657.37 1545.08 Q2655.21 1543.12 2651.72 1543.12 Q2649.25 1543.12 2646.49 1543.98 Q2643.75 1544.84 2640.63 1546.59 L2640.63 1541.27 Q2643.81 1540 2646.57 1539.35 Q2649.33 1538.7 2651.62 1538.7 Q2657.66 1538.7 2661.25 1541.72 Q2664.85 1544.74 2664.85 1549.79 Q2664.85 1552.19 2663.94 1554.35 Q2663.05 1556.48 2660.68 1559.4 Q2660.03 1560.15 2656.54 1563.77 Q2653.05 1567.37 2646.7 1573.85 Z" fill="#000000" fill-rule="nonzero" fill-opacity="1" /><path clip-path="url(#clip120)" d="M2692.04 1557.32 Q2695.81 1558.12 2697.92 1560.68 Q2700.06 1563.23 2700.06 1566.98 Q2700.06 1572.73 2696.1 1575.88 Q2692.14 1579.04 2684.85 1579.04 Q2682.4 1579.04 2679.8 1578.54 Q2677.22 1578.07 2674.46 1577.11 L2674.46 1572.03 Q2676.65 1573.31 2679.25 1573.96 Q2681.85 1574.61 2684.69 1574.61 Q2689.64 1574.61 2692.22 1572.65 Q2694.82 1570.7 2694.82 1566.98 Q2694.82 1563.54 2692.4 1561.61 Q2690 1559.66 2685.71 1559.66 L2681.18 1559.66 L2681.18 1555.34 L2685.92 1555.34 Q2689.8 1555.34 2691.85 1553.8 Q2693.91 1552.24 2693.91 1549.32 Q2693.91 1546.33 2691.78 1544.74 Q2689.67 1543.12 2685.71 1543.12 Q2683.55 1543.12 2681.07 1543.59 Q2678.6 1544.06 2675.63 1545.05 L2675.63 1540.36 Q2678.62 1539.53 2681.23 1539.11 Q2683.86 1538.7 2686.18 1538.7 Q2692.17 1538.7 2695.66 1541.43 Q2699.14 1544.14 2699.14 1548.77 Q2699.14 1552 2697.3 1554.24 Q2695.45 1556.46 2692.04 1557.32 Z" fill="#000000" fill-rule="nonzero" fill-opacity="1" /><path clip-path="url(#clip120)" d="M2706.93 1561.54 L2720.97 1561.54 L2720.97 1565.81 L2706.93 1565.81 L2706.93 1561.54 Z" fill="#000000" fill-rule="nonzero" fill-opacity="1" /><path clip-path="url(#clip120)" d="M2740.52 1542.86 Q2736.46 1542.86 2734.41 1546.87 Q2732.37 1550.86 2732.37 1558.88 Q2732.37 1566.87 2734.41 1570.88 Q2736.46 1574.87 2740.52 1574.87 Q2744.61 1574.87 2746.64 1570.88 Q2748.7 1566.87 2748.7 1558.88 Q2748.7 1550.86 2746.64 1546.87 Q2744.61 1542.86 2740.52 1542.86 M2740.52 1538.7 Q2747.06 1538.7 2750.5 1543.88 Q2753.96 1549.04 2753.96 1558.88 Q2753.96 1568.7 2750.5 1573.88 Q2747.06 1579.04 2740.52 1579.04 Q2733.99 1579.04 2730.53 1573.88 Q2727.09 1568.7 2727.09 1558.88 Q2727.09 1549.04 2730.53 1543.88 Q2733.99 1538.7 2740.52 1538.7 Z" fill="#000000" fill-rule="nonzero" fill-opacity="1" /><path clip-path="url(#clip120)" d="M2764.12 1573.85 L2772.71 1573.85 L2772.71 1544.19 L2763.36 1546.07 L2763.36 1541.27 L2772.66 1539.4 L2777.92 1539.4 L2777.92 1573.85 L2786.51 1573.85 L2786.51 1578.28 L2764.12 1578.28 L2764.12 1573.85 Z" fill="#000000" fill-rule="nonzero" fill-opacity="1" /><path clip-path="url(#clip120)" d="M2794.04 1561.54 L2808.08 1561.54 L2808.08 1565.81 L2794.04 1565.81 L2794.04 1561.54 Z" fill="#000000" fill-rule="nonzero" fill-opacity="1" /><path clip-path="url(#clip120)" d="M2820.92 1573.85 L2839.27 1573.85 L2839.27 1578.28 L2814.59 1578.28 L2814.59 1573.85 Q2817.58 1570.75 2822.74 1565.55 Q2827.92 1560.31 2829.25 1558.8 Q2831.77 1555.96 2832.76 1554.01 Q2833.78 1552.03 2833.78 1550.13 Q2833.78 1547.03 2831.59 1545.08 Q2829.43 1543.12 2825.94 1543.12 Q2823.47 1543.12 2820.71 1543.98 Q2817.97 1544.84 2814.85 1546.59 L2814.85 1541.27 Q2818.02 1540 2820.78 1539.35 Q2823.55 1538.7 2825.84 1538.7 Q2831.88 1538.7 2835.47 1541.72 Q2839.07 1544.74 2839.07 1549.79 Q2839.07 1552.19 2838.15 1554.35 Q2837.27 1556.48 2834.9 1559.4 Q2834.25 1560.15 2830.76 1563.77 Q2827.27 1567.37 2820.92 1573.85 Z" fill="#000000" fill-rule="nonzero" fill-opacity="1" /><path clip-path="url(#clip120)" d="M2854.85 1573.85 L2873.21 1573.85 L2873.21 1578.28 L2848.52 1578.28 L2848.52 1573.85 Q2851.51 1570.75 2856.67 1565.55 Q2861.85 1560.31 2863.18 1558.8 Q2865.71 1555.96 2866.7 1554.01 Q2867.71 1552.03 2867.71 1550.13 Q2867.71 1547.03 2865.52 1545.08 Q2863.36 1543.12 2859.87 1543.12 Q2857.4 1543.12 2854.64 1543.98 Q2851.9 1544.84 2848.78 1546.59 L2848.78 1541.27 Q2851.96 1540 2854.72 1539.35 Q2857.48 1538.7 2859.77 1538.7 Q2865.81 1538.7 2869.4 1541.72 Q2873 1544.74 2873 1549.79 Q2873 1552.19 2872.09 1554.35 Q2871.2 1556.48 2868.83 1559.4 Q2868.18 1560.15 2864.69 1563.77 Q2861.2 1567.37 2854.85 1573.85 Z" fill="#000000" fill-rule="nonzero" fill-opacity="1" /><polyline clip-path="url(#clip122)" style="stroke:#000000; stroke-linecap:round; stroke-linejoin:round; stroke-width:2; stroke-opacity:0.1; fill:none" points="254.009,1343.64 3186.93,1343.64 "/>
<polyline clip-path="url(#clip122)" style="stroke:#000000; stroke-linecap:round; stroke-linejoin:round; stroke-width:2; stroke-opacity:0.1; fill:none" points="254.009,1082.05 3186.93,1082.05 "/>
<polyline clip-path="url(#clip122)" style="stroke:#000000; stroke-linecap:round; stroke-linejoin:round; stroke-width:2; stroke-opacity:0.1; fill:none" points="254.009,820.469 3186.93,820.469 "/>
<polyline clip-path="url(#clip122)" style="stroke:#000000; stroke-linecap:round; stroke-linejoin:round; stroke-width:2; stroke-opacity:0.1; fill:none" points="254.009,558.885 3186.93,558.885 "/>
<polyline clip-path="url(#clip122)" style="stroke:#000000; stroke-linecap:round; stroke-linejoin:round; stroke-width:2; stroke-opacity:0.1; fill:none" points="254.009,297.3 3186.93,297.3 "/>
<polyline clip-path="url(#clip120)" style="stroke:#000000; stroke-linecap:round; stroke-linejoin:round; stroke-width:4; stroke-opacity:1; fill:none" points="254.009,1497.68 254.009,47.2441 "/>
<polyline clip-path="url(#clip120)" style="stroke:#000000; stroke-linecap:round; stroke-linejoin:round; stroke-width:4; stroke-opacity:1; fill:none" points="254.009,1343.64 268.993,1343.64 "/>
<polyline clip-path="url(#clip120)" style="stroke:#000000; stroke-linecap:round; stroke-linejoin:round; stroke-width:4; stroke-opacity:1; fill:none" points="254.009,1082.05 268.993,1082.05 "/>
<polyline clip-path="url(#clip120)" style="stroke:#000000; stroke-linecap:round; stroke-linejoin:round; stroke-width:4; stroke-opacity:1; fill:none" points="254.009,820.469 268.993,820.469 "/>
<polyline clip-path="url(#clip120)" style="stroke:#000000; stroke-linecap:round; stroke-linejoin:round; stroke-width:4; stroke-opacity:1; fill:none" points="254.009,558.885 268.993,558.885 "/>
<polyline clip-path="url(#clip120)" style="stroke:#000000; stroke-linecap:round; stroke-linejoin:round; stroke-width:4; stroke-opacity:1; fill:none" points="254.009,297.3 268.993,297.3 "/>
<path clip-path="url(#clip120)" d="M118.488 1324.2 L139.139 1324.2 L139.139 1328.63 L123.306 1328.63 L123.306 1338.16 Q124.452 1337.77 125.597 1337.58 Q126.743 1337.38 127.889 1337.38 Q134.399 1337.38 138.202 1340.94 Q142.004 1344.51 142.004 1350.6 Q142.004 1356.88 138.097 1360.37 Q134.191 1363.83 127.082 1363.83 Q124.634 1363.83 122.082 1363.42 Q119.556 1363 116.847 1362.17 L116.847 1356.88 Q119.191 1358.16 121.691 1358.78 Q124.191 1359.41 126.978 1359.41 Q131.483 1359.41 134.113 1357.04 Q136.743 1354.67 136.743 1350.6 Q136.743 1346.54 134.113 1344.17 Q131.483 1341.8 126.978 1341.8 Q124.868 1341.8 122.759 1342.27 Q120.676 1342.74 118.488 1343.73 L118.488 1324.2 Z" fill="#000000" fill-rule="nonzero" fill-opacity="1" /><path clip-path="url(#clip120)" d="M152.368 1356.46 L157.863 1356.46 L157.863 1363.08 L152.368 1363.08 L152.368 1356.46 Z" fill="#000000" fill-rule="nonzero" fill-opacity="1" /><path clip-path="url(#clip120)" d="M180.571 1327.66 Q176.509 1327.66 174.451 1331.67 Q172.42 1335.66 172.42 1343.68 Q172.42 1351.67 174.451 1355.68 Q176.509 1359.67 180.571 1359.67 Q184.66 1359.67 186.691 1355.68 Q188.748 1351.67 188.748 1343.68 Q188.748 1335.66 186.691 1331.67 Q184.66 1327.66 180.571 1327.66 M180.571 1323.49 Q187.108 1323.49 190.545 1328.68 Q194.009 1333.83 194.009 1343.68 Q194.009 1353.49 190.545 1358.68 Q187.108 1363.83 180.571 1363.83 Q174.035 1363.83 170.571 1358.68 Q167.134 1353.49 167.134 1343.68 Q167.134 1333.83 170.571 1328.68 Q174.035 1323.49 180.571 1323.49 Z" fill="#000000" fill-rule="nonzero" fill-opacity="1" /><path clip-path="url(#clip120)" d="M118.228 1062.61 L143.228 1062.61 L143.228 1064.85 L129.113 1101.49 L123.618 1101.49 L136.899 1067.04 L118.228 1067.04 L118.228 1062.61 Z" fill="#000000" fill-rule="nonzero" fill-opacity="1" /><path clip-path="url(#clip120)" d="M153.488 1094.88 L158.983 1094.88 L158.983 1101.49 L153.488 1101.49 L153.488 1094.88 Z" fill="#000000" fill-rule="nonzero" fill-opacity="1" /><path clip-path="url(#clip120)" d="M170.493 1062.61 L191.144 1062.61 L191.144 1067.04 L175.311 1067.04 L175.311 1076.57 Q176.457 1076.18 177.602 1076 Q178.748 1075.79 179.894 1075.79 Q186.404 1075.79 190.206 1079.36 Q194.009 1082.93 194.009 1089.02 Q194.009 1095.3 190.102 1098.79 Q186.196 1102.25 179.087 1102.25 Q176.639 1102.25 174.087 1101.83 Q171.561 1101.42 168.852 1100.58 L168.852 1095.3 Q171.196 1096.57 173.696 1097.2 Q176.196 1097.82 178.983 1097.82 Q183.488 1097.82 186.118 1095.45 Q188.748 1093.08 188.748 1089.02 Q188.748 1084.96 186.118 1082.59 Q183.488 1080.22 178.983 1080.22 Q176.873 1080.22 174.764 1080.69 Q172.681 1081.16 170.493 1082.14 L170.493 1062.61 Z" fill="#000000" fill-rule="nonzero" fill-opacity="1" /><path clip-path="url(#clip120)" d="M85.4154 835.482 L94.0091 835.482 L94.0091 805.821 L84.6602 807.696 L84.6602 802.904 L93.957 801.029 L99.2174 801.029 L99.2174 835.482 L107.811 835.482 L107.811 839.909 L85.4154 839.909 L85.4154 835.482 Z" fill="#000000" fill-rule="nonzero" fill-opacity="1" /><path clip-path="url(#clip120)" d="M129.686 804.493 Q125.623 804.493 123.566 808.503 Q121.535 812.487 121.535 820.508 Q121.535 828.503 123.566 832.513 Q125.623 836.498 129.686 836.498 Q133.774 836.498 135.806 832.513 Q137.863 828.503 137.863 820.508 Q137.863 812.487 135.806 808.503 Q133.774 804.493 129.686 804.493 M129.686 800.326 Q136.222 800.326 139.66 805.508 Q143.123 810.664 143.123 820.508 Q143.123 830.326 139.66 835.508 Q136.222 840.664 129.686 840.664 Q123.15 840.664 119.686 835.508 Q116.249 830.326 116.249 820.508 Q116.249 810.664 119.686 805.508 Q123.15 800.326 129.686 800.326 Z" fill="#000000" fill-rule="nonzero" fill-opacity="1" /><path clip-path="url(#clip120)" d="M152.368 833.295 L157.863 833.295 L157.863 839.909 L152.368 839.909 L152.368 833.295 Z" fill="#000000" fill-rule="nonzero" fill-opacity="1" /><path clip-path="url(#clip120)" d="M180.571 804.493 Q176.509 804.493 174.451 808.503 Q172.42 812.487 172.42 820.508 Q172.42 828.503 174.451 832.513 Q176.509 836.498 180.571 836.498 Q184.66 836.498 186.691 832.513 Q188.748 828.503 188.748 820.508 Q188.748 812.487 186.691 808.503 Q184.66 804.493 180.571 804.493 M180.571 800.326 Q187.108 800.326 190.545 805.508 Q194.009 810.664 194.009 820.508 Q194.009 830.326 190.545 835.508 Q187.108 840.664 180.571 840.664 Q174.035 840.664 170.571 835.508 Q167.134 830.326 167.134 820.508 Q167.134 810.664 170.571 805.508 Q174.035 800.326 180.571 800.326 Z" fill="#000000" fill-rule="nonzero" fill-opacity="1" /><path clip-path="url(#clip120)" d="M86.5351 573.898 L95.1289 573.898 L95.1289 544.236 L85.7799 546.111 L85.7799 541.32 L95.0768 539.445 L100.337 539.445 L100.337 573.898 L108.931 573.898 L108.931 578.325 L86.5351 578.325 L86.5351 573.898 Z" fill="#000000" fill-rule="nonzero" fill-opacity="1" /><path clip-path="url(#clip120)" d="M124.087 573.898 L142.446 573.898 L142.446 578.325 L117.759 578.325 L117.759 573.898 Q120.754 570.799 125.91 565.59 Q131.092 560.356 132.42 558.846 Q134.946 556.007 135.936 554.054 Q136.952 552.075 136.952 550.174 Q136.952 547.075 134.764 545.122 Q132.603 543.169 129.113 543.169 Q126.639 543.169 123.879 544.028 Q121.144 544.887 118.019 546.632 L118.019 541.32 Q121.196 540.044 123.957 539.393 Q126.717 538.742 129.009 538.742 Q135.051 538.742 138.644 541.762 Q142.238 544.783 142.238 549.835 Q142.238 552.231 141.327 554.392 Q140.441 556.528 138.071 559.445 Q137.42 560.2 133.931 563.82 Q130.441 567.413 124.087 573.898 Z" fill="#000000" fill-rule="nonzero" fill-opacity="1" /><path clip-path="url(#clip120)" d="M153.488 571.71 L158.983 571.71 L158.983 578.325 L153.488 578.325 L153.488 571.71 Z" fill="#000000" fill-rule="nonzero" fill-opacity="1" /><path clip-path="url(#clip120)" d="M170.493 539.445 L191.144 539.445 L191.144 543.872 L175.311 543.872 L175.311 553.403 Q176.457 553.012 177.602 552.83 Q178.748 552.622 179.894 552.622 Q186.404 552.622 190.206 556.189 Q194.009 559.757 194.009 565.851 Q194.009 572.127 190.102 575.616 Q186.196 579.08 179.087 579.08 Q176.639 579.08 174.087 578.663 Q171.561 578.247 168.852 577.413 L168.852 572.127 Q171.196 573.403 173.696 574.028 Q176.196 574.653 178.983 574.653 Q183.488 574.653 186.118 572.283 Q188.748 569.913 188.748 565.851 Q188.748 561.788 186.118 559.418 Q183.488 557.049 178.983 557.049 Q176.873 557.049 174.764 557.517 Q172.681 557.986 170.493 558.976 L170.493 539.445 Z" fill="#000000" fill-rule="nonzero" fill-opacity="1" /><path clip-path="url(#clip120)" d="M85.4154 312.313 L94.0091 312.313 L94.0091 282.652 L84.6602 284.527 L84.6602 279.735 L93.957 277.86 L99.2174 277.86 L99.2174 312.313 L107.811 312.313 L107.811 316.74 L85.4154 316.74 L85.4154 312.313 Z" fill="#000000" fill-rule="nonzero" fill-opacity="1" /><path clip-path="url(#clip120)" d="M118.488 277.86 L139.139 277.86 L139.139 282.287 L123.306 282.287 L123.306 291.818 Q124.452 291.428 125.597 291.246 Q126.743 291.037 127.889 291.037 Q134.399 291.037 138.202 294.605 Q142.004 298.173 142.004 304.266 Q142.004 310.542 138.097 314.032 Q134.191 317.495 127.082 317.495 Q124.634 317.495 122.082 317.079 Q119.556 316.662 116.847 315.829 L116.847 310.542 Q119.191 311.818 121.691 312.443 Q124.191 313.068 126.978 313.068 Q131.483 313.068 134.113 310.699 Q136.743 308.329 136.743 304.266 Q136.743 300.204 134.113 297.834 Q131.483 295.464 126.978 295.464 Q124.868 295.464 122.759 295.933 Q120.676 296.402 118.488 297.391 L118.488 277.86 Z" fill="#000000" fill-rule="nonzero" fill-opacity="1" /><path clip-path="url(#clip120)" d="M152.368 310.126 L157.863 310.126 L157.863 316.74 L152.368 316.74 L152.368 310.126 Z" fill="#000000" fill-rule="nonzero" fill-opacity="1" /><path clip-path="url(#clip120)" d="M180.571 281.324 Q176.509 281.324 174.451 285.334 Q172.42 289.318 172.42 297.339 Q172.42 305.334 174.451 309.344 Q176.509 313.329 180.571 313.329 Q184.66 313.329 186.691 309.344 Q188.748 305.334 188.748 297.339 Q188.748 289.318 186.691 285.334 Q184.66 281.324 180.571 281.324 M180.571 277.157 Q187.108 277.157 190.545 282.339 Q194.009 287.496 194.009 297.339 Q194.009 307.157 190.545 312.339 Q187.108 317.495 180.571 317.495 Q174.035 317.495 170.571 312.339 Q167.134 307.157 167.134 297.339 Q167.134 287.496 170.571 282.339 Q174.035 277.157 180.571 277.157 Z" fill="#000000" fill-rule="nonzero" fill-opacity="1" /><path clip-path="url(#clip120)" d="M-31.4998 930.013 L-31.4998 924.168 L11.7002 924.168 L11.7002 930.013 L-31.4998 930.013 Z" fill="#000000" fill-rule="nonzero" fill-opacity="1" /><path clip-path="url(#clip120)" d="M-7.85992 885.829 L11.7002 885.829 L11.7002 891.153 L-7.68631 891.153 Q-12.287 891.153 -14.5728 892.947 Q-16.8587 894.741 -16.8587 898.329 Q-16.8587 902.641 -14.1099 905.129 Q-11.3611 907.618 -6.61572 907.618 L11.7002 907.618 L11.7002 912.97 L-20.7071 912.97 L-20.7071 907.618 L-15.6724 907.618 Q-18.5948 905.708 -20.0416 903.133 Q-21.4883 900.528 -21.4883 897.143 Q-21.4883 891.559 -18.0161 888.694 Q-14.5728 885.829 -7.85992 885.829 Z" fill="#000000" fill-rule="nonzero" fill-opacity="1" /><path clip-path="url(#clip120)" d="M-33.3227 858.804 L-28.8957 858.804 L-28.8957 863.897 Q-28.8957 866.761 -27.7383 867.89 Q-26.5809 868.989 -23.5716 868.989 L-20.7071 868.989 L-20.7071 860.222 L-16.5694 860.222 L-16.5694 868.989 L11.7002 868.989 L11.7002 874.342 L-16.5694 874.342 L-16.5694 879.435 L-20.7071 879.435 L-20.7071 874.342 L-22.964 874.342 Q-28.3749 874.342 -30.8343 871.825 Q-33.3227 869.308 -33.3227 863.839 L-33.3227 858.804 Z" fill="#000000" fill-rule="nonzero" fill-opacity="1" /><path clip-path="url(#clip120)" d="M-33.3227 854.348 L-33.3227 849.024 L11.7002 849.024 L11.7002 854.348 L-33.3227 854.348 Z" fill="#000000" fill-rule="nonzero" fill-opacity="1" /><path clip-path="url(#clip120)" d="M-16.9745 825.326 Q-16.9745 829.609 -13.618 832.097 Q-10.2905 834.585 -4.47452 834.585 Q1.34142 834.585 4.69788 832.126 Q8.02541 829.638 8.02541 825.326 Q8.02541 821.073 4.66895 818.584 Q1.31248 816.096 -4.47452 816.096 Q-10.2326 816.096 -13.5891 818.584 Q-16.9745 821.073 -16.9745 825.326 M-21.4883 825.326 Q-21.4883 818.382 -16.9745 814.418 Q-12.4606 810.454 -4.47452 810.454 Q3.48261 810.454 8.02541 814.418 Q12.5393 818.382 12.5393 825.326 Q12.5393 832.3 8.02541 836.264 Q3.48261 840.199 -4.47452 840.199 Q-12.4606 840.199 -16.9745 836.264 Q-21.4883 832.3 -21.4883 825.326 Z" fill="#000000" fill-rule="nonzero" fill-opacity="1" /><path clip-path="url(#clip120)" d="M-20.7071 804.725 L-20.7071 799.4 L4.58214 792.745 L-20.7071 786.119 L-20.7071 779.84 L4.58214 773.185 L-20.7071 766.559 L-20.7071 761.235 L11.7002 769.713 L11.7002 775.992 L-14.8622 782.965 L11.7002 789.968 L11.7002 796.247 L-20.7071 804.725 Z" fill="#000000" fill-rule="nonzero" fill-opacity="1" /><path clip-path="url(#clip120)" d="M-33.3227 734.818 L-33.3227 722.549 L-29.185 722.549 L-29.185 729.493 L15.3749 729.493 L15.3749 722.549 L19.5126 722.549 L19.5126 734.818 L-33.3227 734.818 Z" fill="#000000" fill-rule="nonzero" fill-opacity="1" /><path clip-path="url(#clip120)" d="M-31.4998 710.975 L-31.4998 705.13 L6.7812 705.13 L6.7812 684.094 L11.7002 684.094 L11.7002 710.975 L-31.4998 710.975 Z" fill="#000000" fill-rule="nonzero" fill-opacity="1" /><path clip-path="url(#clip120)" d="M-31.4998 668.73 L-31.4998 663.811 L17.1978 678.857 L17.1978 683.776 L-31.4998 668.73 Z" fill="#000000" fill-rule="nonzero" fill-opacity="1" /><path clip-path="url(#clip120)" d="M-19.7522 637.567 L-14.7175 637.567 Q-15.8749 639.824 -16.4536 642.254 Q-17.0323 644.685 -17.0323 647.289 Q-17.0323 651.253 -15.8171 653.25 Q-14.6018 655.217 -12.1712 655.217 Q-10.3194 655.217 -9.2488 653.799 Q-8.20714 652.382 -7.25229 648.099 L-6.8472 646.276 Q-5.63193 640.605 -3.40393 638.232 Q-1.20487 635.831 2.75923 635.831 Q7.2731 635.831 9.90619 639.419 Q12.5393 642.978 12.5393 649.228 Q12.5393 651.832 12.0184 654.667 Q11.5265 657.474 10.5138 660.599 L5.01617 660.599 Q6.54972 657.648 7.33097 654.783 Q8.08328 651.919 8.08328 649.112 Q8.08328 645.35 6.81014 643.325 Q5.50806 641.299 3.16432 641.299 Q0.994196 641.299 -0.163205 642.775 Q-1.32061 644.222 -2.3912 649.17 L-2.82523 651.022 Q-3.86689 655.97 -6.00808 658.169 Q-8.17821 660.368 -11.9398 660.368 Q-16.5115 660.368 -18.9999 657.127 Q-21.4883 653.886 -21.4883 647.926 Q-21.4883 644.974 -21.0543 642.37 Q-20.6203 639.766 -19.7522 637.567 Z" fill="#000000" fill-rule="nonzero" fill-opacity="1" /><path clip-path="url(#clip120)" d="M-33.3227 614.911 L19.5126 614.911 L19.5126 627.179 L15.3749 627.179 L15.3749 620.264 L-29.185 620.264 L-29.185 627.179 L-33.3227 627.179 L-33.3227 614.911 Z" fill="#000000" fill-rule="nonzero" fill-opacity="1" /><polyline clip-path="url(#clip122)" style="stroke:#023eff; stroke-linecap:round; stroke-linejoin:round; stroke-width:5; stroke-opacity:1; fill:none" points="337.016,1446.99 353.584,1422.02 370.153,1422.02 386.721,1422.02 403.289,1439.12 419.858,1439.12 436.426,1230.3 452.994,1040.87 469.563,1040.87 486.131,1040.87 502.699,953.61 519.268,1040.87 535.836,1040.87 552.404,1040.87 568.973,954.219 585.541,1040.87 602.109,1144.61 618.678,1144.61 635.246,1144.61 651.814,1099.34 668.383,1144.61 684.951,1144.61 701.519,1345.9 718.088,1442.81 734.656,1417.24 751.224,298.734 767.793,1417.24 784.361,1417.24 800.929,1417.24 817.498,1417.24 834.066,1231.76 850.634,971.693 867.203,971.693 883.771,971.693 900.339,971.693 916.908,971.693 933.476,971.693 950.044,971.693 966.613,971.693 983.181,971.693 999.749,1117.56 1016.32,1117.56 1032.89,1117.56 1049.45,1117.56 1066.02,1117.56 1082.59,1209.97 1099.16,1329.64 1115.73,1381.7 1132.3,1418.39 1148.86,1418.39 1165.43,1418.39 1182,1418.39 1198.57,1418.39 1215.14,1418.39 1231.71,1231.76 1248.27,971.693 1264.84,971.693 1281.41,912.807 1297.98,912.807 1314.55,912.807 1331.12,912.807 1347.68,971.693 1364.25,912.807 1380.82,971.693 1397.39,1117.56 1413.96,1117.56 1430.53,1117.56 1447.09,1117.56 1463.66,1117.56 1480.23,1209.97 1496.8,1329.64 1513.37,1381.7 1529.94,1418.39 1546.5,1418.39 1563.07,1418.39 1579.64,1418.39 1596.21,1418.39 1612.78,1418.39 1629.35,1231.76 1645.91,971.693 1662.48,971.693 1679.05,971.693 1695.62,971.693 1712.19,971.693 1728.76,971.693 1745.32,971.693 1761.89,912.807 1778.46,912.807 1795.03,1117.56 1811.6,1117.56 1828.17,1117.56 1844.73,1117.56 1861.3,1117.56 1877.87,1209.97 1894.44,1329.64 1911.01,1381.7 1927.58,1418.39 1944.14,1418.39 1960.71,1418.39 1977.28,1418.39 1993.85,1418.39 2010.42,1418.39 2026.99,1231.76 2043.55,971.693 2060.12,912.807 2076.69,971.693 2093.26,912.807 2109.83,971.693 2126.4,971.693 2142.96,971.693 2159.53,971.693 2176.1,971.693 2192.67,1117.56 2209.24,1117.56 2225.81,1117.56 2242.37,1117.56 2258.94,1117.56 2275.51,1209.97 2292.08,1329.64 2308.65,1381.7 2325.22,1430.39 2341.78,1430.39 2358.35,1327.62 2374.92,1327.62 2391.49,1430.39 2408.06,1430.39 2424.63,1327.62 2441.19,1170.37 2457.76,1073.61 2474.33,1073.61 2490.9,1073.61 2507.47,1073.61 2524.04,1073.61 2540.6,1073.61 2557.17,1199.31 2573.74,1199.31 2590.31,1199.31 2606.88,1199.31 2623.45,1199.31 2640.01,1199.31 2656.58,1199.31 2673.15,1199.31 2689.72,1297.02 2706.29,1297.02 2722.86,1430.39 2739.42,1430.39 2755.99,1430.39 2772.56,1430.39 2789.13,1430.39 2805.7,1430.39 2822.27,1430.39 2838.83,1170.37 2855.4,1170.37 2871.97,1073.61 2888.54,1073.61 2905.11,1073.61 2921.68,1073.61 2938.24,1170.37 2954.81,1199.31 2971.38,1199.31 2987.95,1297.02 3004.52,1297.02 3021.09,1199.31 3037.65,1297.02 3054.22,1199.31 3070.79,1199.31 3087.36,983.1 3103.93,275.908 "/>
<polyline clip-path="url(#clip122)" style="stroke:#ff7c00; stroke-linecap:round; stroke-linejoin:round; stroke-width:5; stroke-opacity:1; fill:none" points="337.016,1362.06 353.584,1445.59 370.153,1445.59 386.721,1445.59 403.289,1445.59 419.858,1445.59 436.426,1231.27 452.994,999.016 469.563,999.016 486.131,999.016 502.699,999.016 519.268,999.016 535.836,999.016 552.404,999.016 568.973,999.016 585.541,999.016 602.109,1141.29 618.678,1231.27 635.246,1231.27 651.814,1141.29 668.383,1231.27 684.951,1231.27 701.519,1395.88 718.088,1395.88 734.656,1454.99 751.224,88.2942 767.793,1454.99 784.361,1454.99 800.929,1454.99 817.498,1454.99 834.066,1153 850.634,988.894 867.203,988.894 883.771,988.894 900.339,988.894 916.908,988.894 933.476,988.894 950.044,988.894 966.613,988.894 983.181,988.894 999.749,1139.55 1016.32,1139.55 1032.89,1139.55 1049.45,1139.55 1066.02,1139.55 1082.59,1139.55 1099.16,1378.07 1115.73,1378.07 1132.3,1454.99 1148.86,1454.99 1165.43,1454.99 1182,1454.99 1198.57,1454.99 1215.14,1454.99 1231.71,1153 1248.27,988.894 1264.84,988.894 1281.41,988.894 1297.98,988.894 1314.55,988.894 1331.12,988.894 1347.68,988.894 1364.25,988.894 1380.82,988.894 1397.39,1139.55 1413.96,1153 1430.53,1153 1447.09,1139.55 1463.66,1153 1480.23,1153 1496.8,1378.07 1513.37,1378.07 1529.94,1454.99 1546.5,1454.99 1563.07,1454.99 1579.64,1454.99 1596.21,1454.99 1612.78,1454.99 1629.35,988.894 1645.91,988.894 1662.48,988.894 1679.05,988.894 1695.62,988.894 1712.19,988.894 1728.76,988.894 1745.32,988.894 1761.89,988.894 1778.46,988.894 1795.03,1139.55 1811.6,1139.55 1828.17,1139.55 1844.73,1139.55 1861.3,1139.55 1877.87,1153 1894.44,1273.97 1911.01,1378.07 1927.58,1454.99 1944.14,1454.99 1960.71,1454.99 1977.28,1454.99 1993.85,1454.99 2010.42,1454.99 2026.99,1225.44 2043.55,988.894 2060.12,988.894 2076.69,988.894 2093.26,988.894 2109.83,988.894 2126.4,988.894 2142.96,988.894 2159.53,988.894 2176.1,988.894 2192.67,1139.55 2209.24,1139.55 2225.81,1225.44 2242.37,1139.55 2258.94,1139.55 2275.51,1225.44 2292.08,1378.07 2308.65,1378.07 2325.22,1454.99 2341.78,1454.99 2358.35,1454.99 2374.92,1454.99 2391.49,1454.99 2408.06,1454.99 2424.63,1225.44 2441.19,1225.44 2457.76,1084.29 2474.33,1084.29 2490.9,1084.29 2507.47,1084.29 2524.04,1084.29 2540.6,1084.29 2557.17,1084.29 2573.74,1225.44 2590.31,1225.44 2606.88,1225.44 2623.45,1225.44 2640.01,1084.29 2656.58,1225.44 2673.15,1225.44 2689.72,1378.07 2706.29,1378.07 2722.86,1454.99 2739.42,1454.99 2755.99,1454.99 2772.56,1454.99 2789.13,1454.99 2805.7,1454.99 2822.27,1225.44 2838.83,1225.44 2855.4,1225.44 2871.97,1084.29 2888.54,1084.29 2905.11,1084.29 2921.68,1084.29 2938.24,1225.44 2954.81,1225.44 2971.38,1225.44 2987.95,1225.44 3004.52,1225.44 3021.09,1225.44 3037.65,1225.44 3054.22,1225.44 3070.79,1225.44 3087.36,1084.29 3103.93,330.085 "/>
<polyline clip-path="url(#clip122)" style="stroke:#1ac938; stroke-linecap:round; stroke-linejoin:round; stroke-width:5; stroke-opacity:1; fill:none" points="337.016,1448.01 353.584,1445.88 370.153,1445.88 386.721,1445.88 403.289,1445.88 419.858,1445.88 436.426,1297.45 452.994,1033.61 469.563,1033.61 486.131,1033.61 502.699,1033.61 519.268,1033.61 535.836,1033.61 552.404,1033.61 568.973,1033.61 585.541,1033.61 602.109,1189.55 618.678,1189.55 635.246,1189.55 651.814,1189.55 668.383,1189.55 684.951,1189.55 701.519,1414.07 718.088,1414.07 734.656,1456.63 751.224,104.774 767.793,1456.63 784.361,1456.63 800.929,1456.63 817.498,1456.63 834.066,1297.45 850.634,1033.61 867.203,1033.61 883.771,1033.61 900.339,1033.61 916.908,1033.61 933.476,1033.61 950.044,1033.61 966.613,1033.61 983.181,1033.61 999.749,1174.84 1016.32,1174.84 1032.89,1174.84 1049.45,1174.84 1066.02,1174.84 1082.59,1263.07 1099.16,1413.32 1115.73,1413.32 1132.3,1456.63 1148.86,1456.63 1165.43,1456.63 1182,1456.63 1198.57,1456.63 1215.14,1456.63 1231.71,1297.45 1248.27,1033.61 1264.84,1033.61 1281.41,1033.61 1297.98,1033.61 1314.55,1033.61 1331.12,1033.61 1347.68,1033.61 1364.25,1033.61 1380.82,1033.61 1397.39,1174.84 1413.96,1174.84 1430.53,1174.84 1447.09,1174.84 1463.66,1174.84 1480.23,1263.07 1496.8,1413.32 1513.37,1413.32 1529.94,1456.63 1546.5,1456.63 1563.07,1456.63 1579.64,1456.63 1596.21,1456.63 1612.78,1456.63 1629.35,1297.45 1645.91,1033.61 1662.48,1033.61 1679.05,1033.61 1695.62,1033.61 1712.19,1033.61 1728.76,1033.61 1745.32,1033.61 1761.89,1033.61 1778.46,1033.61 1795.03,1174.84 1811.6,1174.84 1828.17,1174.84 1844.73,1174.84 1861.3,1174.84 1877.87,1263.07 1894.44,1413.32 1911.01,1413.32 1927.58,1456.63 1944.14,1456.63 1960.71,1456.63 1977.28,1456.63 1993.85,1456.63 2010.42,1456.63 2026.99,1297.45 2043.55,1033.61 2060.12,1033.61 2076.69,1033.61 2093.26,1033.61 2109.83,1033.61 2126.4,1033.61 2142.96,1033.61 2159.53,1033.61 2176.1,1033.61 2192.67,1174.84 2209.24,1174.84 2225.81,1174.84 2242.37,1174.84 2258.94,1174.84 2275.51,1263.07 2292.08,1413.32 2308.65,1413.32 2325.22,1456.63 2341.78,1456.63 2358.35,1456.63 2374.92,1456.63 2391.49,1456.63 2408.06,1456.63 2424.63,1297.45 2441.19,1177.92 2457.76,1177.92 2474.33,1177.92 2490.9,1177.92 2507.47,1177.92 2524.04,1177.92 2540.6,1177.92 2557.17,1177.92 2573.74,1293.71 2590.31,1177.92 2606.88,1177.92 2623.45,1177.92 2640.01,1177.92 2656.58,1177.92 2673.15,1293.71 2689.72,1293.71 2706.29,1293.71 2722.86,1456.63 2739.42,1456.63 2755.99,1456.63 2772.56,1456.63 2789.13,1456.63 2805.7,1456.63 2822.27,1297.45 2838.83,1177.92 2855.4,1177.92 2871.97,1177.92 2888.54,1177.92 2905.11,1177.92 2921.68,1177.92 2938.24,1293.71 2954.81,1293.71 2971.38,1293.71 2987.95,1293.71 3004.52,1293.71 3021.09,1293.71 3037.65,1293.71 3054.22,1177.92 3070.79,1177.92 3087.36,1177.92 3103.93,374.468 "/>
<polyline clip-path="url(#clip122)" style="stroke:#e8000b; stroke-linecap:round; stroke-linejoin:round; stroke-width:5; stroke-opacity:1; fill:none" points="337.016,1069.5 353.584,1437 370.153,1437 386.721,1437 403.289,1437 419.858,1437 436.426,1231.09 452.994,1031.41 469.563,1031.41 486.131,1031.41 502.699,926.91 519.268,1031.41 535.836,1031.41 552.404,1031.41 568.973,1031.41 585.541,1031.41 602.109,1031.41 618.678,1031.41 635.246,1031.41 651.814,1031.41 668.383,1231.09 684.951,1231.09 701.519,1455.95 718.088,1455.95 734.656,1359.95 751.224,235.566 767.793,1359.95 784.361,1359.95 800.929,1359.95 817.498,1359.95 834.066,1059.43 850.634,1059.43 867.203,1059.43 883.771,1059.43 900.339,1059.43 916.908,1059.43 933.476,1059.43 950.044,1059.43 966.613,1059.43 983.181,1059.43 999.749,1059.43 1016.32,1059.43 1032.89,1059.43 1049.45,1059.43 1066.02,1059.43 1082.59,1059.43 1099.16,1359.95 1115.73,1359.95 1132.3,1359.95 1148.86,1359.95 1165.43,1359.95 1182,1359.95 1198.57,1359.95 1215.14,1359.95 1231.71,1059.43 1248.27,1059.43 1264.84,1059.43 1281.41,1059.43 1297.98,1059.43 1314.55,1059.43 1331.12,1059.43 1347.68,1059.43 1364.25,1059.43 1380.82,1059.43 1397.39,1059.43 1413.96,1059.43 1430.53,1059.43 1447.09,1059.43 1463.66,1059.43 1480.23,1359.95 1496.8,1359.95 1513.37,1359.95 1529.94,1359.95 1546.5,1359.95 1563.07,1059.43 1579.64,1059.43 1596.21,1359.95 1612.78,1359.95 1629.35,1059.43 1645.91,1059.43 1662.48,1059.43 1679.05,1059.43 1695.62,1059.43 1712.19,1059.43 1728.76,1059.43 1745.32,1059.43 1761.89,1059.43 1778.46,1059.43 1795.03,1059.43 1811.6,1059.43 1828.17,1059.43 1844.73,1059.43 1861.3,1059.43 1877.87,1059.43 1894.44,1059.43 1911.01,1359.95 1927.58,1359.95 1944.14,1359.95 1960.71,1359.95 1977.28,1359.95 1993.85,1359.95 2010.42,1359.95 2026.99,1059.43 2043.55,1059.43 2060.12,1059.43 2076.69,1059.43 2093.26,1059.43 2109.83,1059.43 2126.4,1059.43 2142.96,1059.43 2159.53,1059.43 2176.1,1059.43 2192.67,1059.43 2209.24,1059.43 2225.81,1059.43 2242.37,1059.43 2258.94,1059.43 2275.51,1059.43 2292.08,1359.95 2308.65,1359.95 2325.22,1359.95 2341.78,1359.95 2358.35,1059.43 2374.92,1359.95 2391.49,1359.95 2408.06,1359.95 2424.63,1059.43 2441.19,1059.43 2457.76,1059.43 2474.33,1059.43 2490.9,1059.43 2507.47,1059.43 2524.04,1059.43 2540.6,1059.43 2557.17,1059.43 2573.74,1059.43 2590.31,1059.43 2606.88,1059.43 2623.45,1059.43 2640.01,1059.43 2656.58,1059.43 2673.15,1059.43 2689.72,1359.95 2706.29,1359.95 2722.86,1359.95 2739.42,1359.95 2755.99,1359.95 2772.56,1359.95 2789.13,1359.95 2805.7,1359.95 2822.27,1359.95 2838.83,1059.43 2855.4,1059.43 2871.97,1059.43 2888.54,1059.43 2905.11,1059.43 2921.68,1059.43 2938.24,1059.43 2954.81,1059.43 2971.38,1059.43 2987.95,1359.95 3004.52,1359.95 3021.09,1059.43 3037.65,1359.95 3054.22,1059.43 3070.79,1059.43 3087.36,1059.43 3103.93,235.566 "/>
<path clip-path="url(#clip120)" d="M3310.23 445.512 L3952.76 445.512 L3952.76 95.592 L3310.23 95.592  Z" fill="#ffffff" fill-rule="evenodd" fill-opacity="1"/>
<polyline clip-path="url(#clip120)" style="stroke:#000000; stroke-linecap:round; stroke-linejoin:round; stroke-width:4; stroke-opacity:1; fill:none" points="3310.23,445.512 3952.76,445.512 3952.76,95.592 3310.23,95.592 3310.23,445.512 "/>
<polyline clip-path="url(#clip120)" style="stroke:#023eff; stroke-linecap:round; stroke-linejoin:round; stroke-width:5.625; stroke-opacity:1; fill:none" points="3351.32,153.912 3597.91,153.912 "/>
<path clip-path="url(#clip120)" d="M3643.82 168.977 L3643.82 184.446 L3639 184.446 L3639 144.185 L3643.82 144.185 L3643.82 148.613 Q3645.33 146.008 3647.62 144.758 Q3649.94 143.482 3653.14 143.482 Q3658.46 143.482 3661.76 147.701 Q3665.1 151.92 3665.1 158.795 Q3665.1 165.67 3661.76 169.888 Q3658.46 174.107 3653.14 174.107 Q3649.94 174.107 3647.62 172.857 Q3645.33 171.581 3643.82 168.977 M3660.12 158.795 Q3660.12 153.508 3657.94 150.514 Q3655.77 147.493 3651.97 147.493 Q3648.17 147.493 3645.98 150.514 Q3643.82 153.508 3643.82 158.795 Q3643.82 164.081 3645.98 167.102 Q3648.17 170.097 3651.97 170.097 Q3655.77 170.097 3657.94 167.102 Q3660.12 164.081 3660.12 158.795 Z" fill="#000000" fill-rule="nonzero" fill-opacity="1" /><path clip-path="url(#clip120)" d="M3689.94 148.665 Q3689.13 148.196 3688.17 147.988 Q3687.23 147.753 3686.09 147.753 Q3682.02 147.753 3679.84 150.409 Q3677.68 153.04 3677.68 157.987 L3677.68 173.352 L3672.86 173.352 L3672.86 144.185 L3677.68 144.185 L3677.68 148.717 Q3679.19 146.06 3681.61 144.784 Q3684.03 143.482 3687.49 143.482 Q3687.99 143.482 3688.59 143.56 Q3689.19 143.613 3689.92 143.743 L3689.94 148.665 Z" fill="#000000" fill-rule="nonzero" fill-opacity="1" /><path clip-path="url(#clip120)" d="M3718.74 157.571 L3718.74 159.915 L3696.71 159.915 Q3697.02 164.862 3699.68 167.467 Q3702.36 170.045 3707.13 170.045 Q3709.89 170.045 3712.47 169.368 Q3715.07 168.691 3717.62 167.336 L3717.62 171.868 Q3715.05 172.961 3712.34 173.534 Q3709.63 174.107 3706.84 174.107 Q3699.86 174.107 3695.77 170.045 Q3691.71 165.982 3691.71 159.055 Q3691.71 151.894 3695.57 147.701 Q3699.45 143.482 3706.01 143.482 Q3711.89 143.482 3715.31 147.284 Q3718.74 151.06 3718.74 157.571 M3713.95 156.165 Q3713.9 152.232 3711.74 149.889 Q3709.6 147.545 3706.06 147.545 Q3702.05 147.545 3699.63 149.81 Q3697.23 152.076 3696.87 156.191 L3713.95 156.165 Z" fill="#000000" fill-rule="nonzero" fill-opacity="1" /><path clip-path="url(#clip120)" d="M3745.8 148.613 L3745.8 132.831 L3750.59 132.831 L3750.59 173.352 L3745.8 173.352 L3745.8 168.977 Q3744.29 171.581 3741.97 172.857 Q3739.68 174.107 3736.45 174.107 Q3731.16 174.107 3727.83 169.888 Q3724.52 165.67 3724.52 158.795 Q3724.52 151.92 3727.83 147.701 Q3731.16 143.482 3736.45 143.482 Q3739.68 143.482 3741.97 144.758 Q3744.29 146.008 3745.8 148.613 M3729.47 158.795 Q3729.47 164.081 3731.63 167.102 Q3733.82 170.097 3737.62 170.097 Q3741.43 170.097 3743.61 167.102 Q3745.8 164.081 3745.8 158.795 Q3745.8 153.508 3743.61 150.514 Q3741.43 147.493 3737.62 147.493 Q3733.82 147.493 3731.63 150.514 Q3729.47 153.508 3729.47 158.795 Z" fill="#000000" fill-rule="nonzero" fill-opacity="1" /><path clip-path="url(#clip120)" d="M3760.46 144.185 L3765.25 144.185 L3765.25 173.352 L3760.46 173.352 L3760.46 144.185 M3760.46 132.831 L3765.25 132.831 L3765.25 138.899 L3760.46 138.899 L3760.46 132.831 Z" fill="#000000" fill-rule="nonzero" fill-opacity="1" /><path clip-path="url(#clip120)" d="M3796.27 145.305 L3796.27 149.784 Q3794.24 148.665 3792.18 148.118 Q3790.15 147.545 3788.07 147.545 Q3783.4 147.545 3780.83 150.514 Q3778.25 153.456 3778.25 158.795 Q3778.25 164.133 3780.83 167.102 Q3783.4 170.045 3788.07 170.045 Q3790.15 170.045 3792.18 169.498 Q3794.24 168.925 3796.27 167.805 L3796.27 172.232 Q3794.26 173.17 3792.1 173.638 Q3789.97 174.107 3787.54 174.107 Q3780.96 174.107 3777.08 169.967 Q3773.2 165.826 3773.2 158.795 Q3773.2 151.659 3777.1 147.571 Q3781.03 143.482 3787.86 143.482 Q3790.07 143.482 3792.18 143.951 Q3794.29 144.394 3796.27 145.305 Z" fill="#000000" fill-rule="nonzero" fill-opacity="1" /><path clip-path="url(#clip120)" d="M3809.34 135.904 L3809.34 144.185 L3819.21 144.185 L3819.21 147.909 L3809.34 147.909 L3809.34 163.743 Q3809.34 167.31 3810.31 168.326 Q3811.29 169.342 3814.29 169.342 L3819.21 169.342 L3819.21 173.352 L3814.29 173.352 Q3808.74 173.352 3806.63 171.295 Q3804.52 169.211 3804.52 163.743 L3804.52 147.909 L3801.01 147.909 L3801.01 144.185 L3804.52 144.185 L3804.52 135.904 L3809.34 135.904 Z" fill="#000000" fill-rule="nonzero" fill-opacity="1" /><path clip-path="url(#clip120)" d="M3847.67 182.206 L3847.67 185.93 L3819.97 185.93 L3819.97 182.206 L3847.67 182.206 Z" fill="#000000" fill-rule="nonzero" fill-opacity="1" /><path clip-path="url(#clip120)" d="M3852.91 134.472 L3873.56 134.472 L3873.56 138.899 L3857.73 138.899 L3857.73 148.43 Q3858.87 148.04 3860.02 147.857 Q3861.16 147.649 3862.31 147.649 Q3868.82 147.649 3872.62 151.217 Q3876.42 154.784 3876.42 160.878 Q3876.42 167.154 3872.52 170.644 Q3868.61 174.107 3861.5 174.107 Q3859.05 174.107 3856.5 173.69 Q3853.98 173.274 3851.27 172.441 L3851.27 167.154 Q3853.61 168.43 3856.11 169.055 Q3858.61 169.68 3861.4 169.68 Q3865.9 169.68 3868.53 167.31 Q3871.16 164.941 3871.16 160.878 Q3871.16 156.816 3868.53 154.446 Q3865.9 152.076 3861.4 152.076 Q3859.29 152.076 3857.18 152.545 Q3855.1 153.014 3852.91 154.003 L3852.91 134.472 Z" fill="#000000" fill-rule="nonzero" fill-opacity="1" /><path clip-path="url(#clip120)" d="M3891.32 168.925 L3909.68 168.925 L3909.68 173.352 L3884.99 173.352 L3884.99 168.925 Q3887.99 165.826 3893.14 160.618 Q3898.33 155.383 3899.65 153.873 Q3902.18 151.034 3903.17 149.081 Q3904.18 147.102 3904.18 145.201 Q3904.18 142.102 3902 140.149 Q3899.84 138.196 3896.35 138.196 Q3893.87 138.196 3891.11 139.055 Q3888.38 139.915 3885.25 141.659 L3885.25 136.347 Q3888.43 135.071 3891.19 134.42 Q3893.95 133.769 3896.24 133.769 Q3902.28 133.769 3905.88 136.79 Q3909.47 139.81 3909.47 144.863 Q3909.47 147.258 3908.56 149.42 Q3907.67 151.555 3905.3 154.472 Q3904.65 155.227 3901.16 158.847 Q3897.67 162.441 3891.32 168.925 Z" fill="#000000" fill-rule="nonzero" fill-opacity="1" /><polyline clip-path="url(#clip120)" style="stroke:#ff7c00; stroke-linecap:round; stroke-linejoin:round; stroke-width:5.625; stroke-opacity:1; fill:none" points="3351.32,212.232 3597.91,212.232 "/>
<path clip-path="url(#clip120)" d="M3643.82 227.297 L3643.82 242.766 L3639 242.766 L3639 202.505 L3643.82 202.505 L3643.82 206.933 Q3645.33 204.328 3647.62 203.078 Q3649.94 201.802 3653.14 201.802 Q3658.46 201.802 3661.76 206.021 Q3665.1 210.24 3665.1 217.115 Q3665.1 223.99 3661.76 228.208 Q3658.46 232.427 3653.14 232.427 Q3649.94 232.427 3647.62 231.177 Q3645.33 229.901 3643.82 227.297 M3660.12 217.115 Q3660.12 211.828 3657.94 208.834 Q3655.77 205.813 3651.97 205.813 Q3648.17 205.813 3645.98 208.834 Q3643.82 211.828 3643.82 217.115 Q3643.82 222.401 3645.98 225.422 Q3648.17 228.417 3651.97 228.417 Q3655.77 228.417 3657.94 225.422 Q3660.12 222.401 3660.12 217.115 Z" fill="#000000" fill-rule="nonzero" fill-opacity="1" /><path clip-path="url(#clip120)" d="M3689.94 206.985 Q3689.13 206.516 3688.17 206.308 Q3687.23 206.073 3686.09 206.073 Q3682.02 206.073 3679.84 208.729 Q3677.68 211.36 3677.68 216.307 L3677.68 231.672 L3672.86 231.672 L3672.86 202.505 L3677.68 202.505 L3677.68 207.037 Q3679.19 204.38 3681.61 203.104 Q3684.03 201.802 3687.49 201.802 Q3687.99 201.802 3688.59 201.88 Q3689.19 201.933 3689.92 202.063 L3689.94 206.985 Z" fill="#000000" fill-rule="nonzero" fill-opacity="1" /><path clip-path="url(#clip120)" d="M3718.74 215.891 L3718.74 218.235 L3696.71 218.235 Q3697.02 223.182 3699.68 225.787 Q3702.36 228.365 3707.13 228.365 Q3709.89 228.365 3712.47 227.688 Q3715.07 227.011 3717.62 225.656 L3717.62 230.188 Q3715.05 231.281 3712.34 231.854 Q3709.63 232.427 3706.84 232.427 Q3699.86 232.427 3695.77 228.365 Q3691.71 224.302 3691.71 217.375 Q3691.71 210.214 3695.57 206.021 Q3699.45 201.802 3706.01 201.802 Q3711.89 201.802 3715.31 205.604 Q3718.74 209.38 3718.74 215.891 M3713.95 214.485 Q3713.9 210.552 3711.74 208.209 Q3709.6 205.865 3706.06 205.865 Q3702.05 205.865 3699.63 208.13 Q3697.23 210.396 3696.87 214.511 L3713.95 214.485 Z" fill="#000000" fill-rule="nonzero" fill-opacity="1" /><path clip-path="url(#clip120)" d="M3745.8 206.933 L3745.8 191.151 L3750.59 191.151 L3750.59 231.672 L3745.8 231.672 L3745.8 227.297 Q3744.29 229.901 3741.97 231.177 Q3739.68 232.427 3736.45 232.427 Q3731.16 232.427 3727.83 228.208 Q3724.52 223.99 3724.52 217.115 Q3724.52 210.24 3727.83 206.021 Q3731.16 201.802 3736.45 201.802 Q3739.68 201.802 3741.97 203.078 Q3744.29 204.328 3745.8 206.933 M3729.47 217.115 Q3729.47 222.401 3731.63 225.422 Q3733.82 228.417 3737.62 228.417 Q3741.43 228.417 3743.61 225.422 Q3745.8 222.401 3745.8 217.115 Q3745.8 211.828 3743.61 208.834 Q3741.43 205.813 3737.62 205.813 Q3733.82 205.813 3731.63 208.834 Q3729.47 211.828 3729.47 217.115 Z" fill="#000000" fill-rule="nonzero" fill-opacity="1" /><path clip-path="url(#clip120)" d="M3760.46 202.505 L3765.25 202.505 L3765.25 231.672 L3760.46 231.672 L3760.46 202.505 M3760.46 191.151 L3765.25 191.151 L3765.25 197.219 L3760.46 197.219 L3760.46 191.151 Z" fill="#000000" fill-rule="nonzero" fill-opacity="1" /><path clip-path="url(#clip120)" d="M3796.27 203.625 L3796.27 208.104 Q3794.24 206.985 3792.18 206.438 Q3790.15 205.865 3788.07 205.865 Q3783.4 205.865 3780.83 208.834 Q3778.25 211.776 3778.25 217.115 Q3778.25 222.453 3780.83 225.422 Q3783.4 228.365 3788.07 228.365 Q3790.15 228.365 3792.18 227.818 Q3794.24 227.245 3796.27 226.125 L3796.27 230.552 Q3794.26 231.49 3792.1 231.958 Q3789.97 232.427 3787.54 232.427 Q3780.96 232.427 3777.08 228.287 Q3773.2 224.146 3773.2 217.115 Q3773.2 209.979 3777.1 205.891 Q3781.03 201.802 3787.86 201.802 Q3790.07 201.802 3792.18 202.271 Q3794.29 202.714 3796.27 203.625 Z" fill="#000000" fill-rule="nonzero" fill-opacity="1" /><path clip-path="url(#clip120)" d="M3809.34 194.224 L3809.34 202.505 L3819.21 202.505 L3819.21 206.229 L3809.34 206.229 L3809.34 222.063 Q3809.34 225.63 3810.31 226.646 Q3811.29 227.662 3814.29 227.662 L3819.21 227.662 L3819.21 231.672 L3814.29 231.672 Q3808.74 231.672 3806.63 229.615 Q3804.52 227.531 3804.52 222.063 L3804.52 206.229 L3801.01 206.229 L3801.01 202.505 L3804.52 202.505 L3804.52 194.224 L3809.34 194.224 Z" fill="#000000" fill-rule="nonzero" fill-opacity="1" /><path clip-path="url(#clip120)" d="M3847.67 240.526 L3847.67 244.25 L3819.97 244.25 L3819.97 240.526 L3847.67 240.526 Z" fill="#000000" fill-rule="nonzero" fill-opacity="1" /><path clip-path="url(#clip120)" d="M3857.39 227.245 L3875.75 227.245 L3875.75 231.672 L3851.06 231.672 L3851.06 227.245 Q3854.05 224.146 3859.21 218.938 Q3864.39 213.703 3865.72 212.193 Q3868.25 209.354 3869.24 207.401 Q3870.25 205.422 3870.25 203.521 Q3870.25 200.422 3868.07 198.469 Q3865.9 196.516 3862.41 196.516 Q3859.94 196.516 3857.18 197.375 Q3854.45 198.235 3851.32 199.979 L3851.32 194.667 Q3854.5 193.391 3857.26 192.74 Q3860.02 192.089 3862.31 192.089 Q3868.35 192.089 3871.95 195.11 Q3875.54 198.13 3875.54 203.183 Q3875.54 205.578 3874.63 207.74 Q3873.74 209.875 3871.37 212.792 Q3870.72 213.547 3867.23 217.167 Q3863.74 220.761 3857.39 227.245 Z" fill="#000000" fill-rule="nonzero" fill-opacity="1" /><path clip-path="url(#clip120)" d="M3898.69 210.136 Q3895.15 210.136 3893.07 212.557 Q3891.01 214.979 3891.01 219.198 Q3891.01 223.391 3893.07 225.839 Q3895.15 228.261 3898.69 228.261 Q3902.23 228.261 3904.29 225.839 Q3906.37 223.391 3906.37 219.198 Q3906.37 214.979 3904.29 212.557 Q3902.23 210.136 3898.69 210.136 M3909.13 193.651 L3909.13 198.443 Q3907.15 197.505 3905.12 197.011 Q3903.12 196.516 3901.14 196.516 Q3895.93 196.516 3893.17 200.031 Q3890.43 203.547 3890.04 210.656 Q3891.58 208.391 3893.9 207.193 Q3896.22 205.969 3899 205.969 Q3904.86 205.969 3908.25 209.537 Q3911.66 213.078 3911.66 219.198 Q3911.66 225.188 3908.12 228.807 Q3904.58 232.427 3898.69 232.427 Q3891.95 232.427 3888.38 227.271 Q3884.81 222.089 3884.81 212.271 Q3884.81 203.052 3889.18 197.584 Q3893.56 192.089 3900.93 192.089 Q3902.91 192.089 3904.91 192.479 Q3906.95 192.87 3909.13 193.651 Z" fill="#000000" fill-rule="nonzero" fill-opacity="1" /><polyline clip-path="url(#clip120)" style="stroke:#1ac938; stroke-linecap:round; stroke-linejoin:round; stroke-width:5.625; stroke-opacity:1; fill:none" points="3351.32,270.552 3597.91,270.552 "/>
<path clip-path="url(#clip120)" d="M3643.82 285.617 L3643.82 301.086 L3639 301.086 L3639 260.825 L3643.82 260.825 L3643.82 265.253 Q3645.33 262.648 3647.62 261.398 Q3649.94 260.122 3653.14 260.122 Q3658.46 260.122 3661.76 264.341 Q3665.1 268.56 3665.1 275.435 Q3665.1 282.31 3661.76 286.528 Q3658.46 290.747 3653.14 290.747 Q3649.94 290.747 3647.62 289.497 Q3645.33 288.221 3643.82 285.617 M3660.12 275.435 Q3660.12 270.148 3657.94 267.154 Q3655.77 264.133 3651.97 264.133 Q3648.17 264.133 3645.98 267.154 Q3643.82 270.148 3643.82 275.435 Q3643.82 280.721 3645.98 283.742 Q3648.17 286.737 3651.97 286.737 Q3655.77 286.737 3657.94 283.742 Q3660.12 280.721 3660.12 275.435 Z" fill="#000000" fill-rule="nonzero" fill-opacity="1" /><path clip-path="url(#clip120)" d="M3689.94 265.305 Q3689.13 264.836 3688.17 264.628 Q3687.23 264.393 3686.09 264.393 Q3682.02 264.393 3679.84 267.049 Q3677.68 269.68 3677.68 274.627 L3677.68 289.992 L3672.86 289.992 L3672.86 260.825 L3677.68 260.825 L3677.68 265.357 Q3679.19 262.7 3681.61 261.424 Q3684.03 260.122 3687.49 260.122 Q3687.99 260.122 3688.59 260.2 Q3689.19 260.253 3689.92 260.383 L3689.94 265.305 Z" fill="#000000" fill-rule="nonzero" fill-opacity="1" /><path clip-path="url(#clip120)" d="M3718.74 274.211 L3718.74 276.555 L3696.71 276.555 Q3697.02 281.502 3699.68 284.107 Q3702.36 286.685 3707.13 286.685 Q3709.89 286.685 3712.47 286.008 Q3715.07 285.331 3717.62 283.976 L3717.62 288.508 Q3715.05 289.601 3712.34 290.174 Q3709.63 290.747 3706.84 290.747 Q3699.86 290.747 3695.77 286.685 Q3691.71 282.622 3691.71 275.695 Q3691.71 268.534 3695.57 264.341 Q3699.45 260.122 3706.01 260.122 Q3711.89 260.122 3715.31 263.924 Q3718.74 267.7 3718.74 274.211 M3713.95 272.805 Q3713.9 268.872 3711.74 266.529 Q3709.6 264.185 3706.06 264.185 Q3702.05 264.185 3699.63 266.45 Q3697.23 268.716 3696.87 272.831 L3713.95 272.805 Z" fill="#000000" fill-rule="nonzero" fill-opacity="1" /><path clip-path="url(#clip120)" d="M3745.8 265.253 L3745.8 249.471 L3750.59 249.471 L3750.59 289.992 L3745.8 289.992 L3745.8 285.617 Q3744.29 288.221 3741.97 289.497 Q3739.68 290.747 3736.45 290.747 Q3731.16 290.747 3727.83 286.528 Q3724.52 282.31 3724.52 275.435 Q3724.52 268.56 3727.83 264.341 Q3731.16 260.122 3736.45 260.122 Q3739.68 260.122 3741.97 261.398 Q3744.29 262.648 3745.8 265.253 M3729.47 275.435 Q3729.47 280.721 3731.63 283.742 Q3733.82 286.737 3737.62 286.737 Q3741.43 286.737 3743.61 283.742 Q3745.8 280.721 3745.8 275.435 Q3745.8 270.148 3743.61 267.154 Q3741.43 264.133 3737.62 264.133 Q3733.82 264.133 3731.63 267.154 Q3729.47 270.148 3729.47 275.435 Z" fill="#000000" fill-rule="nonzero" fill-opacity="1" /><path clip-path="url(#clip120)" d="M3760.46 260.825 L3765.25 260.825 L3765.25 289.992 L3760.46 289.992 L3760.46 260.825 M3760.46 249.471 L3765.25 249.471 L3765.25 255.539 L3760.46 255.539 L3760.46 249.471 Z" fill="#000000" fill-rule="nonzero" fill-opacity="1" /><path clip-path="url(#clip120)" d="M3796.27 261.945 L3796.27 266.424 Q3794.24 265.305 3792.18 264.758 Q3790.15 264.185 3788.07 264.185 Q3783.4 264.185 3780.83 267.154 Q3778.25 270.096 3778.25 275.435 Q3778.25 280.773 3780.83 283.742 Q3783.4 286.685 3788.07 286.685 Q3790.15 286.685 3792.18 286.138 Q3794.24 285.565 3796.27 284.445 L3796.27 288.872 Q3794.26 289.81 3792.1 290.278 Q3789.97 290.747 3787.54 290.747 Q3780.96 290.747 3777.08 286.607 Q3773.2 282.466 3773.2 275.435 Q3773.2 268.299 3777.1 264.211 Q3781.03 260.122 3787.86 260.122 Q3790.07 260.122 3792.18 260.591 Q3794.29 261.034 3796.27 261.945 Z" fill="#000000" fill-rule="nonzero" fill-opacity="1" /><path clip-path="url(#clip120)" d="M3809.34 252.544 L3809.34 260.825 L3819.21 260.825 L3819.21 264.549 L3809.34 264.549 L3809.34 280.383 Q3809.34 283.95 3810.31 284.966 Q3811.29 285.982 3814.29 285.982 L3819.21 285.982 L3819.21 289.992 L3814.29 289.992 Q3808.74 289.992 3806.63 287.935 Q3804.52 285.851 3804.52 280.383 L3804.52 264.549 L3801.01 264.549 L3801.01 260.825 L3804.52 260.825 L3804.52 252.544 L3809.34 252.544 Z" fill="#000000" fill-rule="nonzero" fill-opacity="1" /><path clip-path="url(#clip120)" d="M3847.67 298.846 L3847.67 302.57 L3819.97 302.57 L3819.97 298.846 L3847.67 298.846 Z" fill="#000000" fill-rule="nonzero" fill-opacity="1" /><path clip-path="url(#clip120)" d="M3867.31 255.695 L3854.03 276.45 L3867.31 276.45 L3867.31 255.695 M3865.93 251.112 L3872.54 251.112 L3872.54 276.45 L3878.09 276.45 L3878.09 280.825 L3872.54 280.825 L3872.54 289.992 L3867.31 289.992 L3867.31 280.825 L3849.76 280.825 L3849.76 275.747 L3865.93 251.112 Z" fill="#000000" fill-rule="nonzero" fill-opacity="1" /><polyline clip-path="url(#clip120)" style="stroke:#e8000b; stroke-linecap:round; stroke-linejoin:round; stroke-width:5.625; stroke-opacity:1; fill:none" points="3351.32,328.872 3597.91,328.872 "/>
<path clip-path="url(#clip120)" d="M3643.82 343.937 L3643.82 359.406 L3639 359.406 L3639 319.145 L3643.82 319.145 L3643.82 323.573 Q3645.33 320.968 3647.62 319.718 Q3649.94 318.442 3653.14 318.442 Q3658.46 318.442 3661.76 322.661 Q3665.1 326.88 3665.1 333.755 Q3665.1 340.63 3661.76 344.848 Q3658.46 349.067 3653.14 349.067 Q3649.94 349.067 3647.62 347.817 Q3645.33 346.541 3643.82 343.937 M3660.12 333.755 Q3660.12 328.468 3657.94 325.474 Q3655.77 322.453 3651.97 322.453 Q3648.17 322.453 3645.98 325.474 Q3643.82 328.468 3643.82 333.755 Q3643.82 339.041 3645.98 342.062 Q3648.17 345.057 3651.97 345.057 Q3655.77 345.057 3657.94 342.062 Q3660.12 339.041 3660.12 333.755 Z" fill="#000000" fill-rule="nonzero" fill-opacity="1" /><path clip-path="url(#clip120)" d="M3689.94 323.625 Q3689.13 323.156 3688.17 322.948 Q3687.23 322.713 3686.09 322.713 Q3682.02 322.713 3679.84 325.369 Q3677.68 328 3677.68 332.947 L3677.68 348.312 L3672.86 348.312 L3672.86 319.145 L3677.68 319.145 L3677.68 323.677 Q3679.19 321.02 3681.61 319.744 Q3684.03 318.442 3687.49 318.442 Q3687.99 318.442 3688.59 318.52 Q3689.19 318.573 3689.92 318.703 L3689.94 323.625 Z" fill="#000000" fill-rule="nonzero" fill-opacity="1" /><path clip-path="url(#clip120)" d="M3718.74 332.531 L3718.74 334.875 L3696.71 334.875 Q3697.02 339.822 3699.68 342.427 Q3702.36 345.005 3707.13 345.005 Q3709.89 345.005 3712.47 344.328 Q3715.07 343.651 3717.62 342.296 L3717.62 346.828 Q3715.05 347.921 3712.34 348.494 Q3709.63 349.067 3706.84 349.067 Q3699.86 349.067 3695.77 345.005 Q3691.71 340.942 3691.71 334.015 Q3691.71 326.854 3695.57 322.661 Q3699.45 318.442 3706.01 318.442 Q3711.89 318.442 3715.31 322.244 Q3718.74 326.02 3718.74 332.531 M3713.95 331.125 Q3713.9 327.192 3711.74 324.849 Q3709.6 322.505 3706.06 322.505 Q3702.05 322.505 3699.63 324.77 Q3697.23 327.036 3696.87 331.151 L3713.95 331.125 Z" fill="#000000" fill-rule="nonzero" fill-opacity="1" /><path clip-path="url(#clip120)" d="M3745.8 323.573 L3745.8 307.791 L3750.59 307.791 L3750.59 348.312 L3745.8 348.312 L3745.8 343.937 Q3744.29 346.541 3741.97 347.817 Q3739.68 349.067 3736.45 349.067 Q3731.16 349.067 3727.83 344.848 Q3724.52 340.63 3724.52 333.755 Q3724.52 326.88 3727.83 322.661 Q3731.16 318.442 3736.45 318.442 Q3739.68 318.442 3741.97 319.718 Q3744.29 320.968 3745.8 323.573 M3729.47 333.755 Q3729.47 339.041 3731.63 342.062 Q3733.82 345.057 3737.62 345.057 Q3741.43 345.057 3743.61 342.062 Q3745.8 339.041 3745.8 333.755 Q3745.8 328.468 3743.61 325.474 Q3741.43 322.453 3737.62 322.453 Q3733.82 322.453 3731.63 325.474 Q3729.47 328.468 3729.47 333.755 Z" fill="#000000" fill-rule="nonzero" fill-opacity="1" /><path clip-path="url(#clip120)" d="M3760.46 319.145 L3765.25 319.145 L3765.25 348.312 L3760.46 348.312 L3760.46 319.145 M3760.46 307.791 L3765.25 307.791 L3765.25 313.859 L3760.46 313.859 L3760.46 307.791 Z" fill="#000000" fill-rule="nonzero" fill-opacity="1" /><path clip-path="url(#clip120)" d="M3796.27 320.265 L3796.27 324.744 Q3794.24 323.625 3792.18 323.078 Q3790.15 322.505 3788.07 322.505 Q3783.4 322.505 3780.83 325.474 Q3778.25 328.416 3778.25 333.755 Q3778.25 339.093 3780.83 342.062 Q3783.4 345.005 3788.07 345.005 Q3790.15 345.005 3792.18 344.458 Q3794.24 343.885 3796.27 342.765 L3796.27 347.192 Q3794.26 348.13 3792.1 348.598 Q3789.97 349.067 3787.54 349.067 Q3780.96 349.067 3777.08 344.927 Q3773.2 340.786 3773.2 333.755 Q3773.2 326.619 3777.1 322.531 Q3781.03 318.442 3787.86 318.442 Q3790.07 318.442 3792.18 318.911 Q3794.29 319.354 3796.27 320.265 Z" fill="#000000" fill-rule="nonzero" fill-opacity="1" /><path clip-path="url(#clip120)" d="M3809.34 310.864 L3809.34 319.145 L3819.21 319.145 L3819.21 322.869 L3809.34 322.869 L3809.34 338.703 Q3809.34 342.27 3810.31 343.286 Q3811.29 344.302 3814.29 344.302 L3819.21 344.302 L3819.21 348.312 L3814.29 348.312 Q3808.74 348.312 3806.63 346.255 Q3804.52 344.171 3804.52 338.703 L3804.52 322.869 L3801.01 322.869 L3801.01 319.145 L3804.52 319.145 L3804.52 310.864 L3809.34 310.864 Z" fill="#000000" fill-rule="nonzero" fill-opacity="1" /><path clip-path="url(#clip120)" d="M3847.67 357.166 L3847.67 360.89 L3819.97 360.89 L3819.97 357.166 L3847.67 357.166 Z" fill="#000000" fill-rule="nonzero" fill-opacity="1" /><path clip-path="url(#clip120)" d="M3853.77 343.885 L3862.36 343.885 L3862.36 314.224 L3853.01 316.099 L3853.01 311.307 L3862.31 309.432 L3867.57 309.432 L3867.57 343.885 L3876.16 343.885 L3876.16 348.312 L3853.77 348.312 L3853.77 343.885 Z" fill="#000000" fill-rule="nonzero" fill-opacity="1" /><polyline clip-path="url(#clip120)" style="stroke:#000000; stroke-linecap:round; stroke-linejoin:round; stroke-width:6.75; stroke-opacity:1; fill:none" points="3351.32,387.192 3597.91,387.192 "/>
<path clip-path="url(#clip120)" d="M3654.08 391.971 Q3648.27 391.971 3646.04 393.299 Q3643.8 394.627 3643.8 397.83 Q3643.8 400.382 3645.46 401.892 Q3647.15 403.377 3650.05 403.377 Q3654.03 403.377 3656.43 400.564 Q3658.85 397.726 3658.85 393.038 L3658.85 391.971 L3654.08 391.971 M3663.64 389.991 L3663.64 406.632 L3658.85 406.632 L3658.85 402.205 Q3657.21 404.861 3654.76 406.137 Q3652.31 407.387 3648.77 407.387 Q3644.29 407.387 3641.63 404.887 Q3639 402.361 3639 398.142 Q3639 393.221 3642.29 390.721 Q3645.59 388.221 3652.13 388.221 L3658.85 388.221 L3658.85 387.752 Q3658.85 384.445 3656.66 382.648 Q3654.5 380.825 3650.57 380.825 Q3648.07 380.825 3645.7 381.424 Q3643.33 382.023 3641.14 383.221 L3641.14 378.794 Q3643.77 377.778 3646.24 377.283 Q3648.72 376.762 3651.06 376.762 Q3657.39 376.762 3660.51 380.044 Q3663.64 383.325 3663.64 389.991 Z" fill="#000000" fill-rule="nonzero" fill-opacity="1" /><path clip-path="url(#clip120)" d="M3694.5 378.585 L3694.5 383.064 Q3692.47 381.945 3690.41 381.398 Q3688.38 380.825 3686.3 380.825 Q3681.63 380.825 3679.06 383.794 Q3676.48 386.736 3676.48 392.075 Q3676.48 397.413 3679.06 400.382 Q3681.63 403.325 3686.3 403.325 Q3688.38 403.325 3690.41 402.778 Q3692.47 402.205 3694.5 401.085 L3694.5 405.512 Q3692.49 406.45 3690.33 406.918 Q3688.2 407.387 3685.77 407.387 Q3679.19 407.387 3675.31 403.247 Q3671.43 399.106 3671.43 392.075 Q3671.43 384.939 3675.33 380.851 Q3679.26 376.762 3686.09 376.762 Q3688.3 376.762 3690.41 377.231 Q3692.52 377.674 3694.5 378.585 Z" fill="#000000" fill-rule="nonzero" fill-opacity="1" /><path clip-path="url(#clip120)" d="M3707.57 369.184 L3707.57 377.465 L3717.44 377.465 L3717.44 381.189 L3707.57 381.189 L3707.57 397.023 Q3707.57 400.59 3708.53 401.606 Q3709.52 402.622 3712.52 402.622 L3717.44 402.622 L3717.44 406.632 L3712.52 406.632 Q3706.97 406.632 3704.86 404.575 Q3702.75 402.491 3702.75 397.023 L3702.75 381.189 L3699.24 381.189 L3699.24 377.465 L3702.75 377.465 L3702.75 369.184 L3707.57 369.184 Z" fill="#000000" fill-rule="nonzero" fill-opacity="1" /><path clip-path="url(#clip120)" d="M3723.25 395.122 L3723.25 377.465 L3728.04 377.465 L3728.04 394.939 Q3728.04 399.08 3729.65 401.163 Q3731.27 403.221 3734.5 403.221 Q3738.38 403.221 3740.62 400.747 Q3742.88 398.273 3742.88 394.002 L3742.88 377.465 L3747.68 377.465 L3747.68 406.632 L3742.88 406.632 L3742.88 402.153 Q3741.14 404.809 3738.82 406.111 Q3736.53 407.387 3733.48 407.387 Q3728.46 407.387 3725.85 404.262 Q3723.25 401.137 3723.25 395.122 M3735.31 376.762 L3735.31 376.762 Z" fill="#000000" fill-rule="nonzero" fill-opacity="1" /><path clip-path="url(#clip120)" d="M3770.8 391.971 Q3764.99 391.971 3762.75 393.299 Q3760.51 394.627 3760.51 397.83 Q3760.51 400.382 3762.18 401.892 Q3763.87 403.377 3766.76 403.377 Q3770.75 403.377 3773.14 400.564 Q3775.57 397.726 3775.57 393.038 L3775.57 391.971 L3770.8 391.971 M3780.36 389.991 L3780.36 406.632 L3775.57 406.632 L3775.57 402.205 Q3773.93 404.861 3771.48 406.137 Q3769.03 407.387 3765.49 407.387 Q3761.01 407.387 3758.35 404.887 Q3755.72 402.361 3755.72 398.142 Q3755.72 393.221 3759 390.721 Q3762.31 388.221 3768.85 388.221 L3775.57 388.221 L3775.57 387.752 Q3775.57 384.445 3773.38 382.648 Q3771.22 380.825 3767.28 380.825 Q3764.78 380.825 3762.41 381.424 Q3760.04 382.023 3757.86 383.221 L3757.86 378.794 Q3760.49 377.778 3762.96 377.283 Q3765.44 376.762 3767.78 376.762 Q3774.11 376.762 3777.23 380.044 Q3780.36 383.325 3780.36 389.991 Z" fill="#000000" fill-rule="nonzero" fill-opacity="1" /><path clip-path="url(#clip120)" d="M3790.23 366.111 L3795.02 366.111 L3795.02 406.632 L3790.23 406.632 L3790.23 366.111 Z" fill="#000000" fill-rule="nonzero" fill-opacity="1" /></svg>
