<?xml version="1.0" encoding="utf-8"?>
<svg xmlns="http://www.w3.org/2000/svg" xmlns:xlink="http://www.w3.org/1999/xlink" width="1000" height="400" viewBox="0 0 4000 1600">
<defs>
  <clipPath id="clip760">
    <rect x="0" y="0" width="4000" height="1600"/>
  </clipPath>
</defs>
<path clip-path="url(#clip760)" d="M0 1600 L4000 1600 L4000 0 L0 0  Z" fill="#ffffff" fill-rule="evenodd" fill-opacity="1"/>
<defs>
  <clipPath id="clip761">
    <rect x="800" y="0" width="2801" height="1600"/>
  </clipPath>
</defs>
<path clip-path="url(#clip760)" d="M205.623 1497.68 L3180.48 1497.68 L3180.48 47.2441 L205.623 47.2441  Z" fill="#ffffff" fill-rule="evenodd" fill-opacity="1"/>
<defs>
  <clipPath id="clip762">
    <rect x="205" y="47" width="2976" height="1451"/>
  </clipPath>
</defs>
<polyline clip-path="url(#clip762)" style="stroke:#000000; stroke-linecap:round; stroke-linejoin:round; stroke-width:2; stroke-opacity:0.1; fill:none" points="289.818,1497.68 289.818,47.2441 "/>
<polyline clip-path="url(#clip762)" style="stroke:#000000; stroke-linecap:round; stroke-linejoin:round; stroke-width:2; stroke-opacity:0.1; fill:none" points="1096.47,1497.68 1096.47,47.2441 "/>
<polyline clip-path="url(#clip762)" style="stroke:#000000; stroke-linecap:round; stroke-linejoin:round; stroke-width:2; stroke-opacity:0.1; fill:none" points="1903.12,1497.68 1903.12,47.2441 "/>
<polyline clip-path="url(#clip762)" style="stroke:#000000; stroke-linecap:round; stroke-linejoin:round; stroke-width:2; stroke-opacity:0.1; fill:none" points="2709.77,1497.68 2709.77,47.2441 "/>
<polyline clip-path="url(#clip760)" style="stroke:#000000; stroke-linecap:round; stroke-linejoin:round; stroke-width:4; stroke-opacity:1; fill:none" points="205.623,1497.68 3180.48,1497.68 "/>
<polyline clip-path="url(#clip760)" style="stroke:#000000; stroke-linecap:round; stroke-linejoin:round; stroke-width:4; stroke-opacity:1; fill:none" points="289.818,1497.68 289.818,1478.78 "/>
<polyline clip-path="url(#clip760)" style="stroke:#000000; stroke-linecap:round; stroke-linejoin:round; stroke-width:4; stroke-opacity:1; fill:none" points="1096.47,1497.68 1096.47,1478.78 "/>
<polyline clip-path="url(#clip760)" style="stroke:#000000; stroke-linecap:round; stroke-linejoin:round; stroke-width:4; stroke-opacity:1; fill:none" points="1903.12,1497.68 1903.12,1478.78 "/>
<polyline clip-path="url(#clip760)" style="stroke:#000000; stroke-linecap:round; stroke-linejoin:round; stroke-width:4; stroke-opacity:1; fill:none" points="2709.77,1497.68 2709.77,1478.78 "/>
<path clip-path="url(#clip760)" d="M144.805 1573.85 L163.165 1573.85 L163.165 1578.28 L138.477 1578.28 L138.477 1573.85 Q141.472 1570.75 146.628 1565.55 Q151.81 1560.31 153.139 1558.8 Q155.665 1555.96 156.654 1554.01 Q157.67 1552.03 157.67 1550.13 Q157.67 1547.03 155.482 1545.08 Q153.321 1543.12 149.831 1543.12 Q147.357 1543.12 144.597 1543.98 Q141.863 1544.84 138.738 1546.59 L138.738 1541.27 Q141.915 1540 144.675 1539.35 Q147.435 1538.7 149.727 1538.7 Q155.769 1538.7 159.362 1541.72 Q162.956 1544.74 162.956 1549.79 Q162.956 1552.19 162.045 1554.35 Q161.159 1556.48 158.79 1559.4 Q158.139 1560.15 154.649 1563.77 Q151.159 1567.37 144.805 1573.85 Z" fill="#000000" fill-rule="nonzero" fill-opacity="1" /><path clip-path="url(#clip760)" d="M185.456 1542.86 Q181.394 1542.86 179.336 1546.87 Q177.305 1550.86 177.305 1558.88 Q177.305 1566.87 179.336 1570.88 Q181.394 1574.87 185.456 1574.87 Q189.545 1574.87 191.576 1570.88 Q193.633 1566.87 193.633 1558.88 Q193.633 1550.86 191.576 1546.87 Q189.545 1542.86 185.456 1542.86 M185.456 1538.7 Q191.993 1538.7 195.43 1543.88 Q198.894 1549.04 198.894 1558.88 Q198.894 1568.7 195.43 1573.88 Q191.993 1579.04 185.456 1579.04 Q178.92 1579.04 175.456 1573.88 Q172.019 1568.7 172.019 1558.88 Q172.019 1549.04 175.456 1543.88 Q178.92 1538.7 185.456 1538.7 Z" fill="#000000" fill-rule="nonzero" fill-opacity="1" /><path clip-path="url(#clip760)" d="M212.67 1573.85 L231.029 1573.85 L231.029 1578.28 L206.341 1578.28 L206.341 1573.85 Q209.336 1570.75 214.492 1565.55 Q219.675 1560.31 221.003 1558.8 Q223.529 1555.96 224.518 1554.01 Q225.534 1552.03 225.534 1550.13 Q225.534 1547.03 223.347 1545.08 Q221.185 1543.12 217.696 1543.12 Q215.222 1543.12 212.461 1543.98 Q209.727 1544.84 206.602 1546.59 L206.602 1541.27 Q209.779 1540 212.539 1539.35 Q215.3 1538.7 217.591 1538.7 Q223.633 1538.7 227.227 1541.72 Q230.82 1544.74 230.82 1549.79 Q230.82 1552.19 229.909 1554.35 Q229.024 1556.48 226.654 1559.4 Q226.003 1560.15 222.513 1563.77 Q219.024 1567.37 212.67 1573.85 Z" fill="#000000" fill-rule="nonzero" fill-opacity="1" /><path clip-path="url(#clip760)" d="M258.008 1557.32 Q261.784 1558.12 263.893 1560.68 Q266.029 1563.23 266.029 1566.98 Q266.029 1572.73 262.07 1575.88 Q258.112 1579.04 250.82 1579.04 Q248.372 1579.04 245.768 1578.54 Q243.19 1578.07 240.43 1577.11 L240.43 1572.03 Q242.617 1573.31 245.221 1573.96 Q247.826 1574.61 250.664 1574.61 Q255.612 1574.61 258.19 1572.65 Q260.794 1570.7 260.794 1566.98 Q260.794 1563.54 258.372 1561.61 Q255.977 1559.66 251.68 1559.66 L247.148 1559.66 L247.148 1555.34 L251.888 1555.34 Q255.768 1555.34 257.826 1553.8 Q259.883 1552.24 259.883 1549.32 Q259.883 1546.33 257.747 1544.74 Q255.638 1543.12 251.68 1543.12 Q249.518 1543.12 247.044 1543.59 Q244.57 1544.06 241.602 1545.05 L241.602 1540.36 Q244.596 1539.53 247.201 1539.11 Q249.831 1538.7 252.148 1538.7 Q258.138 1538.7 261.628 1541.43 Q265.117 1544.14 265.117 1548.77 Q265.117 1552 263.268 1554.24 Q261.419 1556.46 258.008 1557.32 Z" fill="#000000" fill-rule="nonzero" fill-opacity="1" /><path clip-path="url(#clip760)" d="M272.904 1561.54 L286.94 1561.54 L286.94 1565.81 L272.904 1565.81 L272.904 1561.54 Z" fill="#000000" fill-rule="nonzero" fill-opacity="1" /><path clip-path="url(#clip760)" d="M306.497 1542.86 Q302.435 1542.86 300.377 1546.87 Q298.346 1550.86 298.346 1558.88 Q298.346 1566.87 300.377 1570.88 Q302.435 1574.87 306.497 1574.87 Q310.586 1574.87 312.617 1570.88 Q314.674 1566.87 314.674 1558.88 Q314.674 1550.86 312.617 1546.87 Q310.586 1542.86 306.497 1542.86 M306.497 1538.7 Q313.034 1538.7 316.471 1543.88 Q319.935 1549.04 319.935 1558.88 Q319.935 1568.7 316.471 1573.88 Q313.034 1579.04 306.497 1579.04 Q299.961 1579.04 296.497 1573.88 Q293.06 1568.7 293.06 1558.88 Q293.06 1549.04 296.497 1543.88 Q299.961 1538.7 306.497 1538.7 Z" fill="#000000" fill-rule="nonzero" fill-opacity="1" /><path clip-path="url(#clip760)" d="M330.091 1573.85 L338.684 1573.85 L338.684 1544.19 L329.336 1546.07 L329.336 1541.27 L338.632 1539.4 L343.893 1539.4 L343.893 1573.85 L352.486 1573.85 L352.486 1578.28 L330.091 1578.28 L330.091 1573.85 Z" fill="#000000" fill-rule="nonzero" fill-opacity="1" /><path clip-path="url(#clip760)" d="M360.012 1561.54 L374.049 1561.54 L374.049 1565.81 L360.012 1565.81 L360.012 1561.54 Z" fill="#000000" fill-rule="nonzero" fill-opacity="1" /><path clip-path="url(#clip760)" d="M383.268 1573.85 L391.861 1573.85 L391.861 1544.19 L382.512 1546.07 L382.512 1541.27 L391.809 1539.4 L397.07 1539.4 L397.07 1573.85 L405.663 1573.85 L405.663 1578.28 L383.268 1578.28 L383.268 1573.85 Z" fill="#000000" fill-rule="nonzero" fill-opacity="1" /><path clip-path="url(#clip760)" d="M428.189 1556.74 Q424.648 1556.74 422.564 1559.17 Q420.507 1561.59 420.507 1565.81 Q420.507 1570 422.564 1572.45 Q424.648 1574.87 428.189 1574.87 Q431.731 1574.87 433.788 1572.45 Q435.871 1570 435.871 1565.81 Q435.871 1561.59 433.788 1559.17 Q431.731 1556.74 428.189 1556.74 M438.632 1540.26 L438.632 1545.05 Q436.653 1544.11 434.621 1543.62 Q432.616 1543.12 430.637 1543.12 Q425.429 1543.12 422.668 1546.64 Q419.934 1550.16 419.543 1557.26 Q421.08 1555 423.398 1553.8 Q425.715 1552.58 428.502 1552.58 Q434.361 1552.58 437.746 1556.14 Q441.158 1559.69 441.158 1565.81 Q441.158 1571.8 437.616 1575.42 Q434.075 1579.04 428.189 1579.04 Q421.444 1579.04 417.877 1573.88 Q414.309 1568.7 414.309 1558.88 Q414.309 1549.66 418.684 1544.19 Q423.059 1538.7 430.429 1538.7 Q432.408 1538.7 434.413 1539.09 Q436.444 1539.48 438.632 1540.26 Z" fill="#000000" fill-rule="nonzero" fill-opacity="1" /><path clip-path="url(#clip760)" d="M951.599 1573.85 L969.958 1573.85 L969.958 1578.28 L945.271 1578.28 L945.271 1573.85 Q948.266 1570.75 953.422 1565.55 Q958.604 1560.31 959.932 1558.8 Q962.458 1555.96 963.448 1554.01 Q964.464 1552.03 964.464 1550.13 Q964.464 1547.03 962.276 1545.08 Q960.115 1543.12 956.625 1543.12 Q954.151 1543.12 951.391 1543.98 Q948.656 1544.84 945.531 1546.59 L945.531 1541.27 Q948.708 1540 951.469 1539.35 Q954.229 1538.7 956.521 1538.7 Q962.563 1538.7 966.156 1541.72 Q969.75 1544.74 969.75 1549.79 Q969.75 1552.19 968.839 1554.35 Q967.953 1556.48 965.583 1559.4 Q964.932 1560.15 961.443 1563.77 Q957.953 1567.37 951.599 1573.85 Z" fill="#000000" fill-rule="nonzero" fill-opacity="1" /><path clip-path="url(#clip760)" d="M992.25 1542.86 Q988.187 1542.86 986.13 1546.87 Q984.099 1550.86 984.099 1558.88 Q984.099 1566.87 986.13 1570.88 Q988.187 1574.87 992.25 1574.87 Q996.338 1574.87 998.37 1570.88 Q1000.43 1566.87 1000.43 1558.88 Q1000.43 1550.86 998.37 1546.87 Q996.338 1542.86 992.25 1542.86 M992.25 1538.7 Q998.786 1538.7 1002.22 1543.88 Q1005.69 1549.04 1005.69 1558.88 Q1005.69 1568.7 1002.22 1573.88 Q998.786 1579.04 992.25 1579.04 Q985.713 1579.04 982.25 1573.88 Q978.812 1568.7 978.812 1558.88 Q978.812 1549.04 982.25 1543.88 Q985.713 1538.7 992.25 1538.7 Z" fill="#000000" fill-rule="nonzero" fill-opacity="1" /><path clip-path="url(#clip760)" d="M1019.46 1573.85 L1037.82 1573.85 L1037.82 1578.28 L1013.14 1578.28 L1013.14 1573.85 Q1016.13 1570.75 1021.29 1565.55 Q1026.47 1560.31 1027.8 1558.8 Q1030.32 1555.96 1031.31 1554.01 Q1032.33 1552.03 1032.33 1550.13 Q1032.33 1547.03 1030.14 1545.08 Q1027.98 1543.12 1024.49 1543.12 Q1022.02 1543.12 1019.25 1543.98 Q1016.52 1544.84 1013.4 1546.59 L1013.4 1541.27 Q1016.57 1540 1019.33 1539.35 Q1022.09 1538.7 1024.39 1538.7 Q1030.43 1538.7 1034.02 1541.72 Q1037.61 1544.74 1037.61 1549.79 Q1037.61 1552.19 1036.7 1554.35 Q1035.82 1556.48 1033.45 1559.4 Q1032.8 1560.15 1029.31 1563.77 Q1025.82 1567.37 1019.46 1573.85 Z" fill="#000000" fill-rule="nonzero" fill-opacity="1" /><path clip-path="url(#clip760)" d="M1064.8 1557.32 Q1068.58 1558.12 1070.69 1560.68 Q1072.82 1563.23 1072.82 1566.98 Q1072.82 1572.73 1068.86 1575.88 Q1064.91 1579.04 1057.61 1579.04 Q1055.17 1579.04 1052.56 1578.54 Q1049.98 1578.07 1047.22 1577.11 L1047.22 1572.03 Q1049.41 1573.31 1052.02 1573.96 Q1054.62 1574.61 1057.46 1574.61 Q1062.41 1574.61 1064.98 1572.65 Q1067.59 1570.7 1067.59 1566.98 Q1067.59 1563.54 1065.17 1561.61 Q1062.77 1559.66 1058.47 1559.66 L1053.94 1559.66 L1053.94 1555.34 L1058.68 1555.34 Q1062.56 1555.34 1064.62 1553.8 Q1066.68 1552.24 1066.68 1549.32 Q1066.68 1546.33 1064.54 1544.74 Q1062.43 1543.12 1058.47 1543.12 Q1056.31 1543.12 1053.84 1543.59 Q1051.36 1544.06 1048.4 1545.05 L1048.4 1540.36 Q1051.39 1539.53 1053.99 1539.11 Q1056.62 1538.7 1058.94 1538.7 Q1064.93 1538.7 1068.42 1541.43 Q1071.91 1544.14 1071.91 1548.77 Q1071.91 1552 1070.06 1554.24 Q1068.21 1556.46 1064.8 1557.32 Z" fill="#000000" fill-rule="nonzero" fill-opacity="1" /><path clip-path="url(#clip760)" d="M1079.7 1561.54 L1093.73 1561.54 L1093.73 1565.81 L1079.7 1565.81 L1079.7 1561.54 Z" fill="#000000" fill-rule="nonzero" fill-opacity="1" /><path clip-path="url(#clip760)" d="M1113.29 1542.86 Q1109.23 1542.86 1107.17 1546.87 Q1105.14 1550.86 1105.14 1558.88 Q1105.14 1566.87 1107.17 1570.88 Q1109.23 1574.87 1113.29 1574.87 Q1117.38 1574.87 1119.41 1570.88 Q1121.47 1566.87 1121.47 1558.88 Q1121.47 1550.86 1119.41 1546.87 Q1117.38 1542.86 1113.29 1542.86 M1113.29 1538.7 Q1119.83 1538.7 1123.26 1543.88 Q1126.73 1549.04 1126.73 1558.88 Q1126.73 1568.7 1123.26 1573.88 Q1119.83 1579.04 1113.29 1579.04 Q1106.75 1579.04 1103.29 1573.88 Q1099.85 1568.7 1099.85 1558.88 Q1099.85 1549.04 1103.29 1543.88 Q1106.75 1538.7 1113.29 1538.7 Z" fill="#000000" fill-rule="nonzero" fill-opacity="1" /><path clip-path="url(#clip760)" d="M1136.88 1573.85 L1145.48 1573.85 L1145.48 1544.19 L1136.13 1546.07 L1136.13 1541.27 L1145.43 1539.4 L1150.69 1539.4 L1150.69 1573.85 L1159.28 1573.85 L1159.28 1578.28 L1136.88 1578.28 L1136.88 1573.85 Z" fill="#000000" fill-rule="nonzero" fill-opacity="1" /><path clip-path="url(#clip760)" d="M1166.81 1561.54 L1180.84 1561.54 L1180.84 1565.81 L1166.81 1565.81 L1166.81 1561.54 Z" fill="#000000" fill-rule="nonzero" fill-opacity="1" /><path clip-path="url(#clip760)" d="M1190.06 1573.85 L1198.66 1573.85 L1198.66 1544.19 L1189.31 1546.07 L1189.31 1541.27 L1198.6 1539.4 L1203.86 1539.4 L1203.86 1573.85 L1212.46 1573.85 L1212.46 1578.28 L1190.06 1578.28 L1190.06 1573.85 Z" fill="#000000" fill-rule="nonzero" fill-opacity="1" /><path clip-path="url(#clip760)" d="M1234.33 1559.82 Q1230.58 1559.82 1228.42 1561.82 Q1226.29 1563.83 1226.29 1567.34 Q1226.29 1570.86 1228.42 1572.86 Q1230.58 1574.87 1234.33 1574.87 Q1238.08 1574.87 1240.24 1572.86 Q1242.4 1570.83 1242.4 1567.34 Q1242.4 1563.83 1240.24 1561.82 Q1238.11 1559.82 1234.33 1559.82 M1229.07 1557.58 Q1225.69 1556.74 1223.79 1554.43 Q1221.91 1552.11 1221.91 1548.77 Q1221.91 1544.11 1225.22 1541.41 Q1228.55 1538.7 1234.33 1538.7 Q1240.14 1538.7 1243.45 1541.41 Q1246.75 1544.11 1246.75 1548.77 Q1246.75 1552.11 1244.85 1554.43 Q1242.98 1556.74 1239.62 1557.58 Q1243.42 1558.46 1245.53 1561.04 Q1247.67 1563.62 1247.67 1567.34 Q1247.67 1572.99 1244.2 1576.01 Q1240.76 1579.04 1234.33 1579.04 Q1227.9 1579.04 1224.44 1576.01 Q1221 1572.99 1221 1567.34 Q1221 1563.62 1223.13 1561.04 Q1225.27 1558.46 1229.07 1557.58 M1227.14 1549.27 Q1227.14 1552.29 1229.02 1553.98 Q1230.92 1555.68 1234.33 1555.68 Q1237.72 1555.68 1239.62 1553.98 Q1241.55 1552.29 1241.55 1549.27 Q1241.55 1546.25 1239.62 1544.56 Q1237.72 1542.86 1234.33 1542.86 Q1230.92 1542.86 1229.02 1544.56 Q1227.14 1546.25 1227.14 1549.27 Z" fill="#000000" fill-rule="nonzero" fill-opacity="1" /><path clip-path="url(#clip760)" d="M1758.2 1573.85 L1776.56 1573.85 L1776.56 1578.28 L1751.87 1578.28 L1751.87 1573.85 Q1754.86 1570.75 1760.02 1565.55 Q1765.2 1560.31 1766.53 1558.8 Q1769.06 1555.96 1770.05 1554.01 Q1771.06 1552.03 1771.06 1550.13 Q1771.06 1547.03 1768.87 1545.08 Q1766.71 1543.12 1763.22 1543.12 Q1760.75 1543.12 1757.99 1543.98 Q1755.25 1544.84 1752.13 1546.59 L1752.13 1541.27 Q1755.31 1540 1758.07 1539.35 Q1760.83 1538.7 1763.12 1538.7 Q1769.16 1538.7 1772.75 1541.72 Q1776.35 1544.74 1776.35 1549.79 Q1776.35 1552.19 1775.44 1554.35 Q1774.55 1556.48 1772.18 1559.4 Q1771.53 1560.15 1768.04 1563.77 Q1764.55 1567.37 1758.2 1573.85 Z" fill="#000000" fill-rule="nonzero" fill-opacity="1" /><path clip-path="url(#clip760)" d="M1798.85 1542.86 Q1794.79 1542.86 1792.73 1546.87 Q1790.7 1550.86 1790.7 1558.88 Q1790.7 1566.87 1792.73 1570.88 Q1794.79 1574.87 1798.85 1574.87 Q1802.94 1574.87 1804.97 1570.88 Q1807.03 1566.87 1807.03 1558.88 Q1807.03 1550.86 1804.97 1546.87 Q1802.94 1542.86 1798.85 1542.86 M1798.85 1538.7 Q1805.38 1538.7 1808.82 1543.88 Q1812.29 1549.04 1812.29 1558.88 Q1812.29 1568.7 1808.82 1573.88 Q1805.38 1579.04 1798.85 1579.04 Q1792.31 1579.04 1788.85 1573.88 Q1785.41 1568.7 1785.41 1558.88 Q1785.41 1549.04 1788.85 1543.88 Q1792.31 1538.7 1798.85 1538.7 Z" fill="#000000" fill-rule="nonzero" fill-opacity="1" /><path clip-path="url(#clip760)" d="M1826.06 1573.85 L1844.42 1573.85 L1844.42 1578.28 L1819.73 1578.28 L1819.73 1573.85 Q1822.73 1570.75 1827.88 1565.55 Q1833.07 1560.31 1834.4 1558.8 Q1836.92 1555.96 1837.91 1554.01 Q1838.93 1552.03 1838.93 1550.13 Q1838.93 1547.03 1836.74 1545.08 Q1834.58 1543.12 1831.09 1543.12 Q1828.61 1543.12 1825.85 1543.98 Q1823.12 1544.84 1819.99 1546.59 L1819.99 1541.27 Q1823.17 1540 1825.93 1539.35 Q1828.69 1538.7 1830.98 1538.7 Q1837.03 1538.7 1840.62 1541.72 Q1844.21 1544.74 1844.21 1549.79 Q1844.21 1552.19 1843.3 1554.35 Q1842.42 1556.48 1840.05 1559.4 Q1839.4 1560.15 1835.91 1563.77 Q1832.42 1567.37 1826.06 1573.85 Z" fill="#000000" fill-rule="nonzero" fill-opacity="1" /><path clip-path="url(#clip760)" d="M1871.4 1557.32 Q1875.18 1558.12 1877.29 1560.68 Q1879.42 1563.23 1879.42 1566.98 Q1879.42 1572.73 1875.46 1575.88 Q1871.5 1579.04 1864.21 1579.04 Q1861.76 1579.04 1859.16 1578.54 Q1856.58 1578.07 1853.82 1577.11 L1853.82 1572.03 Q1856.01 1573.31 1858.61 1573.96 Q1861.22 1574.61 1864.06 1574.61 Q1869 1574.61 1871.58 1572.65 Q1874.19 1570.7 1874.19 1566.98 Q1874.19 1563.54 1871.76 1561.61 Q1869.37 1559.66 1865.07 1559.66 L1860.54 1559.66 L1860.54 1555.34 L1865.28 1555.34 Q1869.16 1555.34 1871.22 1553.8 Q1873.28 1552.24 1873.28 1549.32 Q1873.28 1546.33 1871.14 1544.74 Q1869.03 1543.12 1865.07 1543.12 Q1862.91 1543.12 1860.44 1543.59 Q1857.96 1544.06 1854.99 1545.05 L1854.99 1540.36 Q1857.99 1539.53 1860.59 1539.11 Q1863.22 1538.7 1865.54 1538.7 Q1871.53 1538.7 1875.02 1541.43 Q1878.51 1544.14 1878.51 1548.77 Q1878.51 1552 1876.66 1554.24 Q1874.81 1556.46 1871.4 1557.32 Z" fill="#000000" fill-rule="nonzero" fill-opacity="1" /><path clip-path="url(#clip760)" d="M1886.3 1561.54 L1900.33 1561.54 L1900.33 1565.81 L1886.3 1565.81 L1886.3 1561.54 Z" fill="#000000" fill-rule="nonzero" fill-opacity="1" /><path clip-path="url(#clip760)" d="M1919.89 1542.86 Q1915.83 1542.86 1913.77 1546.87 Q1911.74 1550.86 1911.74 1558.88 Q1911.74 1566.87 1913.77 1570.88 Q1915.83 1574.87 1919.89 1574.87 Q1923.98 1574.87 1926.01 1570.88 Q1928.07 1566.87 1928.07 1558.88 Q1928.07 1550.86 1926.01 1546.87 Q1923.98 1542.86 1919.89 1542.86 M1919.89 1538.7 Q1926.43 1538.7 1929.86 1543.88 Q1933.33 1549.04 1933.33 1558.88 Q1933.33 1568.7 1929.86 1573.88 Q1926.43 1579.04 1919.89 1579.04 Q1913.35 1579.04 1909.89 1573.88 Q1906.45 1568.7 1906.45 1558.88 Q1906.45 1549.04 1909.89 1543.88 Q1913.35 1538.7 1919.89 1538.7 Z" fill="#000000" fill-rule="nonzero" fill-opacity="1" /><path clip-path="url(#clip760)" d="M1943.48 1573.85 L1952.08 1573.85 L1952.08 1544.19 L1942.73 1546.07 L1942.73 1541.27 L1952.02 1539.4 L1957.29 1539.4 L1957.29 1573.85 L1965.88 1573.85 L1965.88 1578.28 L1943.48 1578.28 L1943.48 1573.85 Z" fill="#000000" fill-rule="nonzero" fill-opacity="1" /><path clip-path="url(#clip760)" d="M1973.4 1561.54 L1987.44 1561.54 L1987.44 1565.81 L1973.4 1565.81 L1973.4 1561.54 Z" fill="#000000" fill-rule="nonzero" fill-opacity="1" /><path clip-path="url(#clip760)" d="M2000.28 1573.85 L2018.64 1573.85 L2018.64 1578.28 L1993.95 1578.28 L1993.95 1573.85 Q1996.95 1570.75 2002.1 1565.55 Q2007.28 1560.31 2008.61 1558.8 Q2011.14 1555.96 2012.13 1554.01 Q2013.14 1552.03 2013.14 1550.13 Q2013.14 1547.03 2010.96 1545.08 Q2008.8 1543.12 2005.31 1543.12 Q2002.83 1543.12 2000.07 1543.98 Q1997.34 1544.84 1994.21 1546.59 L1994.21 1541.27 Q1997.39 1540 2000.15 1539.35 Q2002.91 1538.7 2005.2 1538.7 Q2011.24 1538.7 2014.84 1541.72 Q2018.43 1544.74 2018.43 1549.79 Q2018.43 1552.19 2017.52 1554.35 Q2016.63 1556.48 2014.26 1559.4 Q2013.61 1560.15 2010.12 1563.77 Q2006.63 1567.37 2000.28 1573.85 Z" fill="#000000" fill-rule="nonzero" fill-opacity="1" /><path clip-path="url(#clip760)" d="M2040.93 1542.86 Q2036.87 1542.86 2034.81 1546.87 Q2032.78 1550.86 2032.78 1558.88 Q2032.78 1566.87 2034.81 1570.88 Q2036.87 1574.87 2040.93 1574.87 Q2045.02 1574.87 2047.05 1570.88 Q2049.11 1566.87 2049.11 1558.88 Q2049.11 1550.86 2047.05 1546.87 Q2045.02 1542.86 2040.93 1542.86 M2040.93 1538.7 Q2047.47 1538.7 2050.9 1543.88 Q2054.37 1549.04 2054.37 1558.88 Q2054.37 1568.7 2050.9 1573.88 Q2047.47 1579.04 2040.93 1579.04 Q2034.39 1579.04 2030.93 1573.88 Q2027.49 1568.7 2027.49 1558.88 Q2027.49 1549.04 2030.93 1543.88 Q2034.39 1538.7 2040.93 1538.7 Z" fill="#000000" fill-rule="nonzero" fill-opacity="1" /><path clip-path="url(#clip760)" d="M2565.75 1573.85 L2584.11 1573.85 L2584.11 1578.28 L2559.42 1578.28 L2559.42 1573.85 Q2562.41 1570.75 2567.57 1565.55 Q2572.75 1560.31 2574.08 1558.8 Q2576.61 1555.96 2577.6 1554.01 Q2578.61 1552.03 2578.61 1550.13 Q2578.61 1547.03 2576.42 1545.08 Q2574.26 1543.12 2570.77 1543.12 Q2568.3 1543.12 2565.54 1543.98 Q2562.8 1544.84 2559.68 1546.59 L2559.68 1541.27 Q2562.86 1540 2565.62 1539.35 Q2568.38 1538.7 2570.67 1538.7 Q2576.71 1538.7 2580.3 1541.72 Q2583.9 1544.74 2583.9 1549.79 Q2583.9 1552.19 2582.99 1554.35 Q2582.1 1556.48 2579.73 1559.4 Q2579.08 1560.15 2575.59 1563.77 Q2572.1 1567.37 2565.75 1573.85 Z" fill="#000000" fill-rule="nonzero" fill-opacity="1" /><path clip-path="url(#clip760)" d="M2606.4 1542.86 Q2602.33 1542.86 2600.28 1546.87 Q2598.25 1550.86 2598.25 1558.88 Q2598.25 1566.87 2600.28 1570.88 Q2602.33 1574.87 2606.4 1574.87 Q2610.49 1574.87 2612.52 1570.88 Q2614.57 1566.87 2614.57 1558.88 Q2614.57 1550.86 2612.52 1546.87 Q2610.49 1542.86 2606.4 1542.86 M2606.4 1538.7 Q2612.93 1538.7 2616.37 1543.88 Q2619.83 1549.04 2619.83 1558.88 Q2619.83 1568.7 2616.37 1573.88 Q2612.93 1579.04 2606.4 1579.04 Q2599.86 1579.04 2596.4 1573.88 Q2592.96 1568.7 2592.96 1558.88 Q2592.96 1549.04 2596.4 1543.88 Q2599.86 1538.7 2606.4 1538.7 Z" fill="#000000" fill-rule="nonzero" fill-opacity="1" /><path clip-path="url(#clip760)" d="M2633.61 1573.85 L2651.97 1573.85 L2651.97 1578.28 L2627.28 1578.28 L2627.28 1573.85 Q2630.28 1570.75 2635.43 1565.55 Q2640.62 1560.31 2641.94 1558.8 Q2644.47 1555.96 2645.46 1554.01 Q2646.48 1552.03 2646.48 1550.13 Q2646.48 1547.03 2644.29 1545.08 Q2642.13 1543.12 2638.64 1543.12 Q2636.16 1543.12 2633.4 1543.98 Q2630.67 1544.84 2627.54 1546.59 L2627.54 1541.27 Q2630.72 1540 2633.48 1539.35 Q2636.24 1538.7 2638.53 1538.7 Q2644.57 1538.7 2648.17 1541.72 Q2651.76 1544.74 2651.76 1549.79 Q2651.76 1552.19 2650.85 1554.35 Q2649.96 1556.48 2647.6 1559.4 Q2646.94 1560.15 2643.45 1563.77 Q2639.96 1567.37 2633.61 1573.85 Z" fill="#000000" fill-rule="nonzero" fill-opacity="1" /><path clip-path="url(#clip760)" d="M2678.95 1557.32 Q2682.73 1558.12 2684.83 1560.68 Q2686.97 1563.23 2686.97 1566.98 Q2686.97 1572.73 2683.01 1575.88 Q2679.05 1579.04 2671.76 1579.04 Q2669.31 1579.04 2666.71 1578.54 Q2664.13 1578.07 2661.37 1577.11 L2661.37 1572.03 Q2663.56 1573.31 2666.16 1573.96 Q2668.77 1574.61 2671.61 1574.61 Q2676.55 1574.61 2679.13 1572.65 Q2681.74 1570.7 2681.74 1566.98 Q2681.74 1563.54 2679.31 1561.61 Q2676.92 1559.66 2672.62 1559.66 L2668.09 1559.66 L2668.09 1555.34 L2672.83 1555.34 Q2676.71 1555.34 2678.77 1553.8 Q2680.82 1552.24 2680.82 1549.32 Q2680.82 1546.33 2678.69 1544.74 Q2676.58 1543.12 2672.62 1543.12 Q2670.46 1543.12 2667.99 1543.59 Q2665.51 1544.06 2662.54 1545.05 L2662.54 1540.36 Q2665.54 1539.53 2668.14 1539.11 Q2670.77 1538.7 2673.09 1538.7 Q2679.08 1538.7 2682.57 1541.43 Q2686.06 1544.14 2686.06 1548.77 Q2686.06 1552 2684.21 1554.24 Q2682.36 1556.46 2678.95 1557.32 Z" fill="#000000" fill-rule="nonzero" fill-opacity="1" /><path clip-path="url(#clip760)" d="M2693.84 1561.54 L2707.88 1561.54 L2707.88 1565.81 L2693.84 1565.81 L2693.84 1561.54 Z" fill="#000000" fill-rule="nonzero" fill-opacity="1" /><path clip-path="url(#clip760)" d="M2727.44 1542.86 Q2723.38 1542.86 2721.32 1546.87 Q2719.29 1550.86 2719.29 1558.88 Q2719.29 1566.87 2721.32 1570.88 Q2723.38 1574.87 2727.44 1574.87 Q2731.53 1574.87 2733.56 1570.88 Q2735.62 1566.87 2735.62 1558.88 Q2735.62 1550.86 2733.56 1546.87 Q2731.53 1542.86 2727.44 1542.86 M2727.44 1538.7 Q2733.97 1538.7 2737.41 1543.88 Q2740.88 1549.04 2740.88 1558.88 Q2740.88 1568.7 2737.41 1573.88 Q2733.97 1579.04 2727.44 1579.04 Q2720.9 1579.04 2717.44 1573.88 Q2714 1568.7 2714 1558.88 Q2714 1549.04 2717.44 1543.88 Q2720.9 1538.7 2727.44 1538.7 Z" fill="#000000" fill-rule="nonzero" fill-opacity="1" /><path clip-path="url(#clip760)" d="M2751.03 1573.85 L2759.63 1573.85 L2759.63 1544.19 L2750.28 1546.07 L2750.28 1541.27 L2759.57 1539.4 L2764.83 1539.4 L2764.83 1573.85 L2773.43 1573.85 L2773.43 1578.28 L2751.03 1578.28 L2751.03 1573.85 Z" fill="#000000" fill-rule="nonzero" fill-opacity="1" /><path clip-path="url(#clip760)" d="M2780.95 1561.54 L2794.99 1561.54 L2794.99 1565.81 L2780.95 1565.81 L2780.95 1561.54 Z" fill="#000000" fill-rule="nonzero" fill-opacity="1" /><path clip-path="url(#clip760)" d="M2807.83 1573.85 L2826.19 1573.85 L2826.19 1578.28 L2801.5 1578.28 L2801.5 1573.85 Q2804.5 1570.75 2809.65 1565.55 Q2814.83 1560.31 2816.16 1558.8 Q2818.69 1555.96 2819.68 1554.01 Q2820.69 1552.03 2820.69 1550.13 Q2820.69 1547.03 2818.51 1545.08 Q2816.34 1543.12 2812.85 1543.12 Q2810.38 1543.12 2807.62 1543.98 Q2804.89 1544.84 2801.76 1546.59 L2801.76 1541.27 Q2804.94 1540 2807.7 1539.35 Q2810.46 1538.7 2812.75 1538.7 Q2818.79 1538.7 2822.39 1541.72 Q2825.98 1544.74 2825.98 1549.79 Q2825.98 1552.19 2825.07 1554.35 Q2824.18 1556.48 2821.81 1559.4 Q2821.16 1560.15 2817.67 1563.77 Q2814.18 1567.37 2807.83 1573.85 Z" fill="#000000" fill-rule="nonzero" fill-opacity="1" /><path clip-path="url(#clip760)" d="M2841.76 1573.85 L2860.12 1573.85 L2860.12 1578.28 L2835.43 1578.28 L2835.43 1573.85 Q2838.43 1570.75 2843.58 1565.55 Q2848.77 1560.31 2850.09 1558.8 Q2852.62 1555.96 2853.61 1554.01 Q2854.63 1552.03 2854.63 1550.13 Q2854.63 1547.03 2852.44 1545.08 Q2850.28 1543.12 2846.79 1543.12 Q2844.31 1543.12 2841.55 1543.98 Q2838.82 1544.84 2835.69 1546.59 L2835.69 1541.27 Q2838.87 1540 2841.63 1539.35 Q2844.39 1538.7 2846.68 1538.7 Q2852.72 1538.7 2856.32 1541.72 Q2859.91 1544.74 2859.91 1549.79 Q2859.91 1552.19 2859 1554.35 Q2858.11 1556.48 2855.75 1559.4 Q2855.09 1560.15 2851.6 1563.77 Q2848.11 1567.37 2841.76 1573.85 Z" fill="#000000" fill-rule="nonzero" fill-opacity="1" /><polyline clip-path="url(#clip762)" style="stroke:#000000; stroke-linecap:round; stroke-linejoin:round; stroke-width:2; stroke-opacity:0.1; fill:none" points="205.623,1339.01 3180.48,1339.01 "/>
<polyline clip-path="url(#clip762)" style="stroke:#000000; stroke-linecap:round; stroke-linejoin:round; stroke-width:2; stroke-opacity:0.1; fill:none" points="205.623,1074.91 3180.48,1074.91 "/>
<polyline clip-path="url(#clip762)" style="stroke:#000000; stroke-linecap:round; stroke-linejoin:round; stroke-width:2; stroke-opacity:0.1; fill:none" points="205.623,810.817 3180.48,810.817 "/>
<polyline clip-path="url(#clip762)" style="stroke:#000000; stroke-linecap:round; stroke-linejoin:round; stroke-width:2; stroke-opacity:0.1; fill:none" points="205.623,546.721 3180.48,546.721 "/>
<polyline clip-path="url(#clip762)" style="stroke:#000000; stroke-linecap:round; stroke-linejoin:round; stroke-width:2; stroke-opacity:0.1; fill:none" points="205.623,282.625 3180.48,282.625 "/>
<polyline clip-path="url(#clip760)" style="stroke:#000000; stroke-linecap:round; stroke-linejoin:round; stroke-width:4; stroke-opacity:1; fill:none" points="205.623,1497.68 205.623,47.2441 "/>
<polyline clip-path="url(#clip760)" style="stroke:#000000; stroke-linecap:round; stroke-linejoin:round; stroke-width:4; stroke-opacity:1; fill:none" points="205.623,1339.01 220.626,1339.01 "/>
<polyline clip-path="url(#clip760)" style="stroke:#000000; stroke-linecap:round; stroke-linejoin:round; stroke-width:4; stroke-opacity:1; fill:none" points="205.623,1074.91 220.626,1074.91 "/>
<polyline clip-path="url(#clip760)" style="stroke:#000000; stroke-linecap:round; stroke-linejoin:round; stroke-width:4; stroke-opacity:1; fill:none" points="205.623,810.817 220.626,810.817 "/>
<polyline clip-path="url(#clip760)" style="stroke:#000000; stroke-linecap:round; stroke-linejoin:round; stroke-width:4; stroke-opacity:1; fill:none" points="205.623,546.721 220.626,546.721 "/>
<polyline clip-path="url(#clip760)" style="stroke:#000000; stroke-linecap:round; stroke-linejoin:round; stroke-width:4; stroke-opacity:1; fill:none" points="205.623,282.625 220.626,282.625 "/>
<path clip-path="url(#clip760)" d="M92.9153 1354.02 L111.275 1354.02 L111.275 1358.45 L86.5872 1358.45 L86.5872 1354.02 Q89.582 1350.92 94.7382 1345.71 Q99.9205 1340.48 101.249 1338.97 Q103.775 1336.13 104.764 1334.18 Q105.78 1332.2 105.78 1330.3 Q105.78 1327.2 103.592 1325.25 Q101.431 1323.29 97.9413 1323.29 Q95.4674 1323.29 92.707 1324.15 Q89.9726 1325.01 86.8476 1326.76 L86.8476 1321.44 Q90.0247 1320.17 92.7851 1319.52 Q95.5455 1318.87 97.8372 1318.87 Q103.879 1318.87 107.473 1321.89 Q111.066 1324.91 111.066 1329.96 Q111.066 1332.36 110.155 1334.52 Q109.269 1336.65 106.9 1339.57 Q106.249 1340.32 102.759 1343.94 Q99.2695 1347.54 92.9153 1354.02 Z" fill="#000000" fill-rule="nonzero" fill-opacity="1" /><path clip-path="url(#clip760)" d="M123.228 1354.02 L131.821 1354.02 L131.821 1324.36 L122.472 1326.24 L122.472 1321.44 L131.769 1319.57 L137.03 1319.57 L137.03 1354.02 L145.623 1354.02 L145.623 1358.45 L123.228 1358.45 L123.228 1354.02 Z" fill="#000000" fill-rule="nonzero" fill-opacity="1" /><path clip-path="url(#clip760)" d="M90.9882 1089.93 L109.348 1089.93 L109.348 1094.35 L84.6602 1094.35 L84.6602 1089.93 Q87.6549 1086.83 92.8112 1081.62 Q97.9934 1076.38 99.3215 1074.87 Q101.848 1072.04 102.837 1070.08 Q103.853 1068.1 103.853 1066.2 Q103.853 1063.1 101.665 1061.15 Q99.5038 1059.2 96.0143 1059.2 Q93.5403 1059.2 90.7799 1060.06 Q88.0456 1060.92 84.9206 1062.66 L84.9206 1057.35 Q88.0976 1056.07 90.858 1055.42 Q93.6184 1054.77 95.9101 1054.77 Q101.952 1054.77 105.545 1057.79 Q109.139 1060.81 109.139 1065.86 Q109.139 1068.26 108.228 1070.42 Q107.342 1072.56 104.973 1075.47 Q104.322 1076.23 100.832 1079.85 Q97.3424 1083.44 90.9882 1089.93 Z" fill="#000000" fill-rule="nonzero" fill-opacity="1" /><path clip-path="url(#clip760)" d="M134.842 1060.06 L121.561 1080.81 L134.842 1080.81 L134.842 1060.06 M133.462 1055.47 L140.077 1055.47 L140.077 1080.81 L145.623 1080.81 L145.623 1085.19 L140.077 1085.19 L140.077 1094.35 L134.842 1094.35 L134.842 1085.19 L117.29 1085.19 L117.29 1080.11 L133.462 1055.47 Z" fill="#000000" fill-rule="nonzero" fill-opacity="1" /><path clip-path="url(#clip760)" d="M92.5507 825.83 L110.91 825.83 L110.91 830.257 L86.2226 830.257 L86.2226 825.83 Q89.2174 822.731 94.3736 817.523 Q99.5559 812.288 100.884 810.778 Q103.41 807.939 104.4 805.986 Q105.415 804.007 105.415 802.106 Q105.415 799.007 103.228 797.054 Q101.066 795.101 97.5768 795.101 Q95.1028 795.101 92.3424 795.96 Q89.608 796.82 86.4831 798.565 L86.4831 793.252 Q89.6601 791.976 92.4205 791.325 Q95.1809 790.674 97.4726 790.674 Q103.514 790.674 107.108 793.695 Q110.702 796.716 110.702 801.768 Q110.702 804.163 109.79 806.325 Q108.905 808.46 106.535 811.377 Q105.884 812.132 102.394 815.752 Q98.9049 819.346 92.5507 825.83 Z" fill="#000000" fill-rule="nonzero" fill-opacity="1" /><path clip-path="url(#clip760)" d="M120.624 791.377 L145.623 791.377 L145.623 793.617 L131.509 830.257 L126.014 830.257 L139.295 795.804 L120.624 795.804 L120.624 791.377 Z" fill="#000000" fill-rule="nonzero" fill-opacity="1" /><path clip-path="url(#clip760)" d="M102.941 545.198 Q106.717 546.005 108.827 548.557 Q110.962 551.109 110.962 554.859 Q110.962 560.614 107.004 563.765 Q103.045 566.916 95.7538 566.916 Q93.3059 566.916 90.7018 566.421 Q88.1237 565.953 85.3633 564.989 L85.3633 559.911 Q87.5508 561.187 90.1549 561.838 Q92.7591 562.489 95.5976 562.489 Q100.545 562.489 103.124 560.536 Q105.728 558.583 105.728 554.859 Q105.728 551.421 103.306 549.494 Q100.91 547.541 96.6132 547.541 L92.082 547.541 L92.082 543.218 L96.8216 543.218 Q100.702 543.218 102.759 541.682 Q104.816 540.119 104.816 537.203 Q104.816 534.208 102.681 532.619 Q100.572 531.005 96.6132 531.005 Q94.4518 531.005 91.9778 531.474 Q89.5039 531.942 86.5351 532.932 L86.5351 528.244 Q89.5299 527.411 92.1341 526.995 Q94.7643 526.578 97.082 526.578 Q103.072 526.578 106.561 529.312 Q110.051 532.021 110.051 536.656 Q110.051 539.885 108.202 542.125 Q106.353 544.338 102.941 545.198 Z" fill="#000000" fill-rule="nonzero" fill-opacity="1" /><path clip-path="url(#clip760)" d="M132.186 530.744 Q128.123 530.744 126.066 534.755 Q124.035 538.739 124.035 546.76 Q124.035 554.755 126.066 558.765 Q128.123 562.75 132.186 562.75 Q136.274 562.75 138.306 558.765 Q140.363 554.755 140.363 546.76 Q140.363 538.739 138.306 534.755 Q136.274 530.744 132.186 530.744 M132.186 526.578 Q138.722 526.578 142.16 531.76 Q145.623 536.916 145.623 546.76 Q145.623 556.578 142.16 561.76 Q138.722 566.916 132.186 566.916 Q125.65 566.916 122.186 561.76 Q118.749 556.578 118.749 546.76 Q118.749 536.916 122.186 531.76 Q125.65 526.578 132.186 526.578 Z" fill="#000000" fill-rule="nonzero" fill-opacity="1" /><path clip-path="url(#clip760)" d="M103.67 281.101 Q107.446 281.909 109.556 284.461 Q111.691 287.013 111.691 290.763 Q111.691 296.518 107.733 299.669 Q103.775 302.82 96.483 302.82 Q94.0351 302.82 91.431 302.325 Q88.8528 301.857 86.0924 300.893 L86.0924 295.815 Q88.2799 297.091 90.8841 297.742 Q93.4882 298.393 96.3268 298.393 Q101.275 298.393 103.853 296.44 Q106.457 294.487 106.457 290.763 Q106.457 287.325 104.035 285.398 Q101.639 283.445 97.3424 283.445 L92.8112 283.445 L92.8112 279.122 L97.5507 279.122 Q101.431 279.122 103.488 277.586 Q105.545 276.023 105.545 273.107 Q105.545 270.112 103.41 268.523 Q101.301 266.909 97.3424 266.909 Q95.1809 266.909 92.707 267.378 Q90.233 267.846 87.2643 268.836 L87.2643 264.148 Q90.2591 263.315 92.8632 262.898 Q95.4934 262.482 97.8111 262.482 Q103.801 262.482 107.29 265.216 Q110.78 267.924 110.78 272.56 Q110.78 275.789 108.931 278.029 Q107.082 280.242 103.67 281.101 Z" fill="#000000" fill-rule="nonzero" fill-opacity="1" /><path clip-path="url(#clip760)" d="M137.603 281.101 Q141.379 281.909 143.488 284.461 Q145.623 287.013 145.623 290.763 Q145.623 296.518 141.665 299.669 Q137.707 302.82 130.415 302.82 Q127.967 302.82 125.363 302.325 Q122.785 301.857 120.025 300.893 L120.025 295.815 Q122.212 297.091 124.816 297.742 Q127.42 298.393 130.259 298.393 Q135.207 298.393 137.785 296.44 Q140.389 294.487 140.389 290.763 Q140.389 287.325 137.967 285.398 Q135.571 283.445 131.274 283.445 L126.743 283.445 L126.743 279.122 L131.483 279.122 Q135.363 279.122 137.42 277.586 Q139.478 276.023 139.478 273.107 Q139.478 270.112 137.342 268.523 Q135.233 266.909 131.274 266.909 Q129.113 266.909 126.639 267.378 Q124.165 267.846 121.196 268.836 L121.196 264.148 Q124.191 263.315 126.795 262.898 Q129.426 262.482 131.743 262.482 Q137.733 262.482 141.222 265.216 Q144.712 267.924 144.712 272.56 Q144.712 275.789 142.863 278.029 Q141.014 280.242 137.603 281.101 Z" fill="#000000" fill-rule="nonzero" fill-opacity="1" /><path clip-path="url(#clip760)" d="M-31.4998 930.013 L-31.4998 924.168 L11.7002 924.168 L11.7002 930.013 L-31.4998 930.013 Z" fill="#000000" fill-rule="nonzero" fill-opacity="1" /><path clip-path="url(#clip760)" d="M-7.85992 885.829 L11.7002 885.829 L11.7002 891.153 L-7.68631 891.153 Q-12.287 891.153 -14.5728 892.947 Q-16.8587 894.741 -16.8587 898.329 Q-16.8587 902.641 -14.1099 905.129 Q-11.3611 907.618 -6.61572 907.618 L11.7002 907.618 L11.7002 912.97 L-20.7071 912.97 L-20.7071 907.618 L-15.6724 907.618 Q-18.5948 905.708 -20.0416 903.133 Q-21.4883 900.528 -21.4883 897.143 Q-21.4883 891.559 -18.0161 888.694 Q-14.5728 885.829 -7.85992 885.829 Z" fill="#000000" fill-rule="nonzero" fill-opacity="1" /><path clip-path="url(#clip760)" d="M-33.3227 858.804 L-28.8957 858.804 L-28.8957 863.897 Q-28.8957 866.761 -27.7383 867.89 Q-26.5809 868.989 -23.5716 868.989 L-20.7071 868.989 L-20.7071 860.222 L-16.5694 860.222 L-16.5694 868.989 L11.7002 868.989 L11.7002 874.342 L-16.5694 874.342 L-16.5694 879.435 L-20.7071 879.435 L-20.7071 874.342 L-22.964 874.342 Q-28.3749 874.342 -30.8343 871.825 Q-33.3227 869.308 -33.3227 863.839 L-33.3227 858.804 Z" fill="#000000" fill-rule="nonzero" fill-opacity="1" /><path clip-path="url(#clip760)" d="M-33.3227 854.348 L-33.3227 849.024 L11.7002 849.024 L11.7002 854.348 L-33.3227 854.348 Z" fill="#000000" fill-rule="nonzero" fill-opacity="1" /><path clip-path="url(#clip760)" d="M-16.9745 825.326 Q-16.9745 829.609 -13.618 832.097 Q-10.2905 834.585 -4.47452 834.585 Q1.34142 834.585 4.69788 832.126 Q8.02541 829.638 8.02541 825.326 Q8.02541 821.073 4.66895 818.584 Q1.31248 816.096 -4.47452 816.096 Q-10.2326 816.096 -13.5891 818.584 Q-16.9745 821.073 -16.9745 825.326 M-21.4883 825.326 Q-21.4883 818.382 -16.9745 814.418 Q-12.4606 810.454 -4.47452 810.454 Q3.48261 810.454 8.02541 814.418 Q12.5393 818.382 12.5393 825.326 Q12.5393 832.3 8.02541 836.264 Q3.48261 840.199 -4.47452 840.199 Q-12.4606 840.199 -16.9745 836.264 Q-21.4883 832.3 -21.4883 825.326 Z" fill="#000000" fill-rule="nonzero" fill-opacity="1" /><path clip-path="url(#clip760)" d="M-20.7071 804.725 L-20.7071 799.4 L4.58214 792.745 L-20.7071 786.119 L-20.7071 779.84 L4.58214 773.185 L-20.7071 766.559 L-20.7071 761.235 L11.7002 769.713 L11.7002 775.992 L-14.8622 782.965 L11.7002 789.968 L11.7002 796.247 L-20.7071 804.725 Z" fill="#000000" fill-rule="nonzero" fill-opacity="1" /><path clip-path="url(#clip760)" d="M-33.3227 734.818 L-33.3227 722.549 L-29.185 722.549 L-29.185 729.493 L15.3749 729.493 L15.3749 722.549 L19.5126 722.549 L19.5126 734.818 L-33.3227 734.818 Z" fill="#000000" fill-rule="nonzero" fill-opacity="1" /><path clip-path="url(#clip760)" d="M-31.4998 710.975 L-31.4998 705.13 L6.7812 705.13 L6.7812 684.094 L11.7002 684.094 L11.7002 710.975 L-31.4998 710.975 Z" fill="#000000" fill-rule="nonzero" fill-opacity="1" /><path clip-path="url(#clip760)" d="M-31.4998 668.73 L-31.4998 663.811 L17.1978 678.857 L17.1978 683.776 L-31.4998 668.73 Z" fill="#000000" fill-rule="nonzero" fill-opacity="1" /><path clip-path="url(#clip760)" d="M-19.7522 637.567 L-14.7175 637.567 Q-15.8749 639.824 -16.4536 642.254 Q-17.0323 644.685 -17.0323 647.289 Q-17.0323 651.253 -15.8171 653.25 Q-14.6018 655.217 -12.1712 655.217 Q-10.3194 655.217 -9.2488 653.799 Q-8.20714 652.382 -7.25229 648.099 L-6.8472 646.276 Q-5.63193 640.605 -3.40393 638.232 Q-1.20487 635.831 2.75923 635.831 Q7.2731 635.831 9.90619 639.419 Q12.5393 642.978 12.5393 649.228 Q12.5393 651.832 12.0184 654.667 Q11.5265 657.474 10.5138 660.599 L5.01617 660.599 Q6.54972 657.648 7.33097 654.783 Q8.08328 651.919 8.08328 649.112 Q8.08328 645.35 6.81014 643.325 Q5.50806 641.299 3.16432 641.299 Q0.994196 641.299 -0.163205 642.775 Q-1.32061 644.222 -2.3912 649.17 L-2.82523 651.022 Q-3.86689 655.97 -6.00808 658.169 Q-8.17821 660.368 -11.9398 660.368 Q-16.5115 660.368 -18.9999 657.127 Q-21.4883 653.886 -21.4883 647.926 Q-21.4883 644.974 -21.0543 642.37 Q-20.6203 639.766 -19.7522 637.567 Z" fill="#000000" fill-rule="nonzero" fill-opacity="1" /><path clip-path="url(#clip760)" d="M-33.3227 614.911 L19.5126 614.911 L19.5126 627.179 L15.3749 627.179 L15.3749 620.264 L-29.185 620.264 L-29.185 627.179 L-33.3227 627.179 L-33.3227 614.911 Z" fill="#000000" fill-rule="nonzero" fill-opacity="1" /><polyline clip-path="url(#clip762)" style="stroke:#023eff; stroke-linecap:round; stroke-linejoin:round; stroke-width:5; stroke-opacity:1; fill:none" points="289.818,1344.36 306.623,1371.93 323.428,1371.93 340.233,1295.1 357.038,1295.1 373.844,1295.1 390.649,1204.59 407.454,744.019 424.259,744.019 441.065,744.019 457.87,744.019 474.675,744.019 491.48,744.019 508.285,744.019 525.091,744.019 541.896,744.019 558.701,744.019 575.506,744.019 592.311,744.019 609.117,744.019 625.922,947.707 642.727,947.707 659.532,947.707 676.338,1295.1 693.143,1180.28 709.948,1180.28 726.753,1180.28 743.558,1228.53 760.364,1180.28 777.169,1180.28 793.974,759.525 810.779,759.525 827.585,759.525 844.39,759.525 861.195,759.525 878,759.525 894.805,759.525 911.611,759.525 928.416,759.525 945.221,759.525 962.026,759.525 978.832,759.525 995.637,759.525 1012.44,759.525 1029.25,759.525 1046.05,759.525 1062.86,1180.28 1079.66,1180.28 1096.47,1180.28 1113.27,1180.28 1130.08,1180.28 1146.88,1180.28 1163.69,1180.28 1180.49,1180.28 1197.3,759.525 1214.1,759.525 1230.91,759.525 1247.72,759.525 1264.52,759.525 1281.33,759.525 1298.13,759.525 1314.94,759.525 1331.74,759.525 1348.55,759.525 1365.35,759.525 1382.16,759.525 1398.96,759.525 1415.77,759.525 1432.57,759.525 1449.38,1180.28 1466.18,759.525 1482.99,759.525 1499.79,1180.28 1516.6,1180.28 1533.4,1180.28 1550.21,1180.28 1567.01,1180.28 1583.82,1180.28 1600.62,759.525 1617.43,759.525 1634.24,759.525 1651.04,759.525 1667.85,759.525 1684.65,759.525 1701.46,759.525 1718.26,759.525 1735.07,759.525 1751.87,759.525 1768.68,759.525 1785.48,759.525 1802.29,759.525 1819.09,759.525 1835.9,759.525 1852.7,759.525 1869.51,759.525 1886.31,1180.28 1903.12,1199.21 1919.92,1199.21 1936.73,1199.21 1953.53,1199.21 1970.34,1199.21 1987.14,1199.21 2003.95,1199.21 2020.76,1199.21 2037.56,1199.21 2054.37,1199.21 2071.17,1199.21 2087.98,1199.21 2104.78,1199.21 2121.59,1199.21 2138.39,1199.21 2155.2,1199.21 2172,1199.21 2188.81,1199.21 2205.61,1199.21 2222.42,1199.21 2239.22,1199.21 2256.03,1199.21 2272.83,1199.21 2289.64,1415.38 2306.44,1340.87 2323.25,1340.87 2340.05,1340.87 2356.86,1456.63 2373.66,1456.63 2390.47,1456.63 2407.28,1456.63 2424.08,1456.63 2440.89,1167.81 2457.69,1167.81 2474.5,1456.63 2491.3,1456.63 2508.11,1456.63 2524.91,1456.63 2541.72,1456.63 2558.52,1456.63 2575.33,1167.81 2592.13,1167.81 2608.94,1167.81 2625.74,1167.81 2642.55,1167.81 2659.35,1167.81 2676.16,1340.87 2692.96,1340.87 2709.77,1384.1 2726.57,1384.1 2743.38,1384.1 2760.18,1244.09 2776.99,1244.09 2793.8,1244.09 2810.6,1384.1 2827.41,1244.09 2844.21,1244.09 2861.02,1244.09 2877.82,1244.09 2894.63,1244.09 2911.43,1244.09 2928.24,1244.09 2945.04,1244.09 2961.85,1244.09 2978.65,1244.09 2995.46,1244.09 3012.26,1244.09 3029.07,1244.09 3045.87,1244.09 3062.68,1384.1 3079.48,1244.09 3096.29,1244.09 "/>
<polyline clip-path="url(#clip762)" style="stroke:#ff7c00; stroke-linecap:round; stroke-linejoin:round; stroke-width:5; stroke-opacity:1; fill:none" points="289.818,1291.65 306.623,1391.54 323.428,1391.54 340.233,1304.8 357.038,1304.8 373.844,1304.8 390.649,1254.27 407.454,799.825 424.259,799.825 441.065,799.825 457.87,799.825 474.675,799.825 491.48,799.825 508.285,799.825 525.091,799.825 541.896,799.825 558.701,799.825 575.506,799.825 592.311,799.825 609.117,1143.02 625.922,1143.02 642.727,1143.02 659.532,1143.02 676.338,1143.02 693.143,1184.35 709.948,1184.35 726.753,1184.35 743.558,1184.35 760.364,1184.35 777.169,1184.35 793.974,777.103 810.779,777.103 827.585,777.103 844.39,777.103 861.195,777.103 878,777.103 894.805,777.103 911.611,777.103 928.416,777.103 945.221,777.103 962.026,777.103 978.832,777.103 995.637,777.103 1012.44,777.103 1029.25,777.103 1046.05,777.103 1062.86,777.103 1079.66,1155.89 1096.47,1184.35 1113.27,777.103 1130.08,1184.35 1146.88,1184.35 1163.69,1184.35 1180.49,1184.35 1197.3,777.103 1214.1,777.103 1230.91,777.103 1247.72,777.103 1264.52,777.103 1281.33,777.103 1298.13,777.103 1314.94,777.103 1331.74,777.103 1348.55,777.103 1365.35,777.103 1382.16,777.103 1398.96,777.103 1415.77,777.103 1432.57,777.103 1449.38,1155.89 1466.18,777.103 1482.99,777.103 1499.79,1184.35 1516.6,1184.35 1533.4,1184.35 1550.21,1184.35 1567.01,1184.35 1583.82,1184.35 1600.62,777.103 1617.43,777.103 1634.24,777.103 1651.04,777.103 1667.85,777.103 1684.65,777.103 1701.46,354.635 1718.26,354.635 1735.07,777.103 1751.87,777.103 1768.68,354.635 1785.48,354.635 1802.29,354.635 1819.09,354.635 1835.9,354.635 1852.7,354.635 1869.51,354.635 1886.31,1155.89 1903.12,1184.35 1919.92,1184.35 1936.73,1184.35 1953.53,1184.35 1970.34,1184.35 1987.14,354.635 2003.95,354.635 2020.76,354.635 2037.56,354.635 2054.37,354.635 2071.17,354.635 2087.98,354.635 2104.78,354.635 2121.59,354.635 2138.39,354.635 2155.2,354.635 2172,354.635 2188.81,354.635 2205.61,1155.89 2222.42,354.635 2239.22,354.635 2256.03,1155.89 2272.83,1155.89 2289.64,1155.89 2306.44,1382.74 2323.25,1382.74 2340.05,1382.74 2356.86,1382.74 2373.66,1382.74 2390.47,1382.74 2407.28,1382.74 2424.08,1159.97 2440.89,1159.97 2457.69,1159.97 2474.5,1159.97 2491.3,1159.97 2508.11,1159.97 2524.91,1274.02 2541.72,1274.02 2558.52,1274.02 2575.33,1274.02 2592.13,1274.02 2608.94,1274.02 2625.74,1274.02 2642.55,1274.02 2659.35,1274.02 2676.16,1361.9 2692.96,1361.9 2709.77,1382.74 2726.57,1382.74 2743.38,1382.74 2760.18,1382.74 2776.99,1382.74 2793.8,1382.74 2810.6,1382.74 2827.41,1159.97 2844.21,1159.97 2861.02,1159.97 2877.82,1159.97 2894.63,1159.97 2911.43,1159.97 2928.24,1274.02 2945.04,1274.02 2961.85,1274.02 2978.65,1274.02 2995.46,1274.02 3012.26,1274.02 3029.07,1274.02 3045.87,1274.02 3062.68,1274.02 3079.48,1361.9 3096.29,1361.9 "/>
<polyline clip-path="url(#clip762)" style="stroke:#1ac938; stroke-linecap:round; stroke-linejoin:round; stroke-width:5; stroke-opacity:1; fill:none" points="289.818,1291.43 306.623,1420.59 323.428,1420.59 340.233,992.2 357.038,992.2 373.844,992.2 390.649,1222 407.454,992.2 424.259,992.2 441.065,761.813 457.87,761.813 474.675,761.813 491.48,761.813 508.285,916.744 525.091,761.813 541.896,761.813 558.701,761.813 575.506,761.813 592.311,992.2 609.117,761.813 625.922,992.2 642.727,1222 659.532,992.2 676.338,992.2 693.143,1297.39 709.948,1297.39 726.753,1297.39 743.558,1297.39 760.364,1297.39 777.169,1297.39 793.974,881.243 810.779,881.243 827.585,881.243 844.39,881.243 861.195,749.723 878,749.723 894.805,749.723 911.611,881.243 928.416,881.243 945.221,881.243 962.026,749.723 978.832,881.243 995.637,749.723 1012.44,749.723 1029.25,881.243 1046.05,1193 1062.86,1193 1079.66,1193 1096.47,1297.39 1113.27,1297.39 1130.08,1297.39 1146.88,1297.39 1163.69,1297.39 1180.49,1297.39 1197.3,881.243 1214.1,881.243 1230.91,881.243 1247.72,881.243 1264.52,881.243 1281.33,881.243 1298.13,749.723 1314.94,881.243 1331.74,881.243 1348.55,881.243 1365.35,749.723 1382.16,881.243 1398.96,881.243 1415.77,749.723 1432.57,749.723 1449.38,1193 1466.18,749.723 1482.99,749.723 1499.79,1297.39 1516.6,1297.39 1533.4,1297.39 1550.21,1297.39 1567.01,1297.39 1583.82,1297.39 1600.62,288.237 1617.43,288.237 1634.24,288.237 1651.04,288.237 1667.85,288.237 1684.65,288.237 1701.46,288.237 1718.26,288.237 1735.07,288.237 1751.87,288.237 1768.68,288.237 1785.48,288.237 1802.29,288.237 1819.09,288.237 1835.9,288.237 1852.7,288.237 1869.51,288.237 1886.31,1193 1903.12,1297.39 1919.92,1297.39 1936.73,1297.39 1953.53,1297.39 1970.34,1297.39 1987.14,1222.02 2003.95,1222.02 2020.76,1222.02 2037.56,1222.02 2054.37,1222.02 2071.17,1222.02 2087.98,1222.02 2104.78,1222.02 2121.59,1222.02 2138.39,1222.02 2155.2,1222.02 2172,1222.02 2188.81,1222.02 2205.61,1193 2222.42,1222.02 2239.22,1193 2256.03,1193 2272.83,1193 2289.64,1193 2306.44,1297.39 2323.25,1297.39 2340.05,1297.39 2356.86,1297.39 2373.66,1297.39 2390.47,1297.39 2407.28,1034.42 2424.08,1034.42 2440.89,1222.02 2457.69,1222.02 2474.5,1222.02 2491.3,1222.02 2508.11,1183.51 2524.91,1183.51 2541.72,1183.51 2558.52,1308.22 2575.33,1308.22 2592.13,1308.22 2608.94,1308.22 2625.74,1308.22 2642.55,1308.22 2659.35,1308.22 2676.16,1308.22 2692.96,1308.22 2709.77,1297.39 2726.57,1297.39 2743.38,1297.39 2760.18,1297.39 2776.99,1297.39 2793.8,1297.39 2810.6,1034.42 2827.41,1034.42 2844.21,1183.51 2861.02,1183.51 2877.82,1183.51 2894.63,1183.51 2911.43,1183.51 2928.24,1183.51 2945.04,1183.51 2961.85,1308.22 2978.65,1308.22 2995.46,1308.22 3012.26,1308.22 3029.07,1308.22 3045.87,1308.22 3062.68,1308.22 3079.48,1308.22 3096.29,1308.22 "/>
<polyline clip-path="url(#clip762)" style="stroke:#e8000b; stroke-linecap:round; stroke-linejoin:round; stroke-width:5; stroke-opacity:1; fill:none" points="289.818,1249.2 306.623,1272.26 323.428,1272.26 340.233,1272.26 357.038,1272.26 373.844,1272.26 390.649,1272.26 407.454,911.467 424.259,911.467 441.065,911.467 457.87,911.467 474.675,911.467 491.48,911.467 508.285,911.467 525.091,714.058 541.896,714.058 558.701,714.058 575.506,714.058 592.311,714.058 609.117,714.058 625.922,1100.75 642.727,1100.75 659.532,1100.75 676.338,1100.75 693.143,1289.15 709.948,1289.15 726.753,1289.15 743.558,1289.15 760.364,1289.15 777.169,1289.15 793.974,1031.07 810.779,726.553 827.585,726.553 844.39,726.553 861.195,726.553 878,726.553 894.805,726.553 911.611,726.553 928.416,726.553 945.221,726.553 962.026,726.553 978.832,726.553 995.637,1097.19 1012.44,1097.19 1029.25,1097.19 1046.05,1097.19 1062.86,1097.19 1079.66,1097.19 1096.47,1289.15 1113.27,1289.15 1130.08,1289.15 1146.88,1289.15 1163.69,1289.15 1180.49,1289.15 1197.3,726.553 1214.1,726.553 1230.91,726.553 1247.72,726.553 1264.52,726.553 1281.33,726.553 1298.13,726.553 1314.94,726.553 1331.74,726.553 1348.55,726.553 1365.35,726.553 1382.16,726.553 1398.96,1097.19 1415.77,1097.19 1432.57,1097.19 1449.38,1097.19 1466.18,1097.19 1482.99,1097.19 1499.79,1289.15 1516.6,1289.15 1533.4,1289.15 1550.21,1289.15 1567.01,1289.15 1583.82,1289.15 1600.62,1031.07 1617.43,88.2942 1634.24,88.2942 1651.04,88.2942 1667.85,88.2942 1684.65,88.2942 1701.46,88.2942 1718.26,88.2942 1735.07,88.2942 1751.87,88.2942 1768.68,88.2942 1785.48,88.2942 1802.29,1097.19 1819.09,1097.19 1835.9,1097.19 1852.7,1097.19 1869.51,1097.19 1886.31,1097.19 1903.12,1289.15 1919.92,1289.15 1936.73,1289.15 1953.53,1289.15 1970.34,1289.15 1987.14,1289.15 2003.95,88.2942 2020.76,88.2942 2037.56,88.2942 2054.37,88.2942 2071.17,88.2942 2087.98,88.2942 2104.78,88.2942 2121.59,88.2942 2138.39,88.2942 2155.2,88.2942 2172,88.2942 2188.81,88.2942 2205.61,1097.19 2222.42,1097.19 2239.22,1097.19 2256.03,1097.19 2272.83,1097.19 2289.64,1097.19 2306.44,1289.15 2323.25,1289.15 2340.05,1289.15 2356.86,1289.15 2373.66,1289.15 2390.47,1289.15 2407.28,1064.35 2424.08,1064.35 2440.89,1064.35 2457.69,1064.35 2474.5,1064.35 2491.3,1064.35 2508.11,1064.35 2524.91,1064.35 2541.72,1064.35 2558.52,1064.35 2575.33,1064.35 2592.13,1064.35 2608.94,1064.35 2625.74,1064.35 2642.55,1064.35 2659.35,1064.35 2676.16,1064.35 2692.96,1064.35 2709.77,1289.15 2726.57,1289.15 2743.38,1289.15 2760.18,1289.15 2776.99,1289.15 2793.8,1289.15 2810.6,1064.35 2827.41,1064.35 2844.21,1064.35 2861.02,1064.35 2877.82,1064.35 2894.63,1064.35 2911.43,1064.35 2928.24,1064.35 2945.04,1064.35 2961.85,1064.35 2978.65,1064.35 2995.46,1249.16 3012.26,1249.16 3029.07,1249.16 3045.87,1249.16 3062.68,1249.16 3079.48,1064.35 3096.29,1064.35 "/>
<path clip-path="url(#clip760)" d="M3305.39 445.512 L3952.76 445.512 L3952.76 95.592 L3305.39 95.592  Z" fill="#ffffff" fill-rule="evenodd" fill-opacity="1"/>
<polyline clip-path="url(#clip760)" style="stroke:#000000; stroke-linecap:round; stroke-linejoin:round; stroke-width:4; stroke-opacity:1; fill:none" points="3305.39,445.512 3952.76,445.512 3952.76,95.592 3305.39,95.592 3305.39,445.512 "/>
<polyline clip-path="url(#clip760)" style="stroke:#023eff; stroke-linecap:round; stroke-linejoin:round; stroke-width:5.625; stroke-opacity:1; fill:none" points="3347.02,153.912 3596.83,153.912 "/>
<path clip-path="url(#clip760)" d="M3643.28 168.977 L3643.28 184.446 L3638.47 184.446 L3638.47 144.185 L3643.28 144.185 L3643.28 148.613 Q3644.79 146.008 3647.09 144.758 Q3649.4 143.482 3652.61 143.482 Q3657.92 143.482 3661.23 147.701 Q3664.56 151.92 3664.56 158.795 Q3664.56 165.67 3661.23 169.888 Q3657.92 174.107 3652.61 174.107 Q3649.4 174.107 3647.09 172.857 Q3644.79 171.581 3643.28 168.977 M3659.59 158.795 Q3659.59 153.508 3657.4 150.514 Q3655.24 147.493 3651.43 147.493 Q3647.63 147.493 3645.45 150.514 Q3643.28 153.508 3643.28 158.795 Q3643.28 164.081 3645.45 167.102 Q3647.63 170.097 3651.43 170.097 Q3655.24 170.097 3657.4 167.102 Q3659.59 164.081 3659.59 158.795 Z" fill="#000000" fill-rule="nonzero" fill-opacity="1" /><path clip-path="url(#clip760)" d="M3689.4 148.665 Q3688.6 148.196 3687.63 147.988 Q3686.7 147.753 3685.55 147.753 Q3681.49 147.753 3679.3 150.409 Q3677.14 153.04 3677.14 157.987 L3677.14 173.352 L3672.32 173.352 L3672.32 144.185 L3677.14 144.185 L3677.14 148.717 Q3678.65 146.06 3681.07 144.784 Q3683.49 143.482 3686.96 143.482 Q3687.45 143.482 3688.05 143.56 Q3688.65 143.613 3689.38 143.743 L3689.4 148.665 Z" fill="#000000" fill-rule="nonzero" fill-opacity="1" /><path clip-path="url(#clip760)" d="M3718.21 157.571 L3718.21 159.915 L3696.17 159.915 Q3696.49 164.862 3699.14 167.467 Q3701.83 170.045 3706.59 170.045 Q3709.35 170.045 3711.93 169.368 Q3714.53 168.691 3717.09 167.336 L3717.09 171.868 Q3714.51 172.961 3711.8 173.534 Q3709.09 174.107 3706.3 174.107 Q3699.33 174.107 3695.24 170.045 Q3691.17 165.982 3691.17 159.055 Q3691.17 151.894 3695.03 147.701 Q3698.91 143.482 3705.47 143.482 Q3711.36 143.482 3714.77 147.284 Q3718.21 151.06 3718.21 157.571 M3713.41 156.165 Q3713.36 152.232 3711.2 149.889 Q3709.06 147.545 3705.52 147.545 Q3701.51 147.545 3699.09 149.81 Q3696.7 152.076 3696.33 156.191 L3713.41 156.165 Z" fill="#000000" fill-rule="nonzero" fill-opacity="1" /><path clip-path="url(#clip760)" d="M3745.26 148.613 L3745.26 132.831 L3750.05 132.831 L3750.05 173.352 L3745.26 173.352 L3745.26 168.977 Q3743.75 171.581 3741.43 172.857 Q3739.14 174.107 3735.91 174.107 Q3730.63 174.107 3727.29 169.888 Q3723.99 165.67 3723.99 158.795 Q3723.99 151.92 3727.29 147.701 Q3730.63 143.482 3735.91 143.482 Q3739.14 143.482 3741.43 144.758 Q3743.75 146.008 3745.26 148.613 M3728.93 158.795 Q3728.93 164.081 3731.1 167.102 Q3733.28 170.097 3737.09 170.097 Q3740.89 170.097 3743.08 167.102 Q3745.26 164.081 3745.26 158.795 Q3745.26 153.508 3743.08 150.514 Q3740.89 147.493 3737.09 147.493 Q3733.28 147.493 3731.1 150.514 Q3728.93 153.508 3728.93 158.795 Z" fill="#000000" fill-rule="nonzero" fill-opacity="1" /><path clip-path="url(#clip760)" d="M3759.92 144.185 L3764.72 144.185 L3764.72 173.352 L3759.92 173.352 L3759.92 144.185 M3759.92 132.831 L3764.72 132.831 L3764.72 138.899 L3759.92 138.899 L3759.92 132.831 Z" fill="#000000" fill-rule="nonzero" fill-opacity="1" /><path clip-path="url(#clip760)" d="M3795.73 145.305 L3795.73 149.784 Q3793.7 148.665 3791.64 148.118 Q3789.61 147.545 3787.53 147.545 Q3782.87 147.545 3780.29 150.514 Q3777.71 153.456 3777.71 158.795 Q3777.71 164.133 3780.29 167.102 Q3782.87 170.045 3787.53 170.045 Q3789.61 170.045 3791.64 169.498 Q3793.7 168.925 3795.73 167.805 L3795.73 172.232 Q3793.73 173.17 3791.56 173.638 Q3789.43 174.107 3787.01 174.107 Q3780.42 174.107 3776.54 169.967 Q3772.66 165.826 3772.66 158.795 Q3772.66 151.659 3776.56 147.571 Q3780.5 143.482 3787.32 143.482 Q3789.53 143.482 3791.64 143.951 Q3793.75 144.394 3795.73 145.305 Z" fill="#000000" fill-rule="nonzero" fill-opacity="1" /><path clip-path="url(#clip760)" d="M3808.8 135.904 L3808.8 144.185 L3818.67 144.185 L3818.67 147.909 L3808.8 147.909 L3808.8 163.743 Q3808.8 167.31 3809.77 168.326 Q3810.76 169.342 3813.75 169.342 L3818.67 169.342 L3818.67 173.352 L3813.75 173.352 Q3808.2 173.352 3806.1 171.295 Q3803.99 169.211 3803.99 163.743 L3803.99 147.909 L3800.47 147.909 L3800.47 144.185 L3803.99 144.185 L3803.99 135.904 L3808.8 135.904 Z" fill="#000000" fill-rule="nonzero" fill-opacity="1" /><path clip-path="url(#clip760)" d="M3847.14 182.206 L3847.14 185.93 L3819.43 185.93 L3819.43 182.206 L3847.14 182.206 Z" fill="#000000" fill-rule="nonzero" fill-opacity="1" /><path clip-path="url(#clip760)" d="M3852.37 134.472 L3873.02 134.472 L3873.02 138.899 L3857.19 138.899 L3857.19 148.43 Q3858.33 148.04 3859.48 147.857 Q3860.63 147.649 3861.77 147.649 Q3868.28 147.649 3872.08 151.217 Q3875.89 154.784 3875.89 160.878 Q3875.89 167.154 3871.98 170.644 Q3868.07 174.107 3860.97 174.107 Q3858.52 174.107 3855.97 173.69 Q3853.44 173.274 3850.73 172.441 L3850.73 167.154 Q3853.07 168.43 3855.57 169.055 Q3858.07 169.68 3860.86 169.68 Q3865.37 169.68 3868 167.31 Q3870.63 164.941 3870.63 160.878 Q3870.63 156.816 3868 154.446 Q3865.37 152.076 3860.86 152.076 Q3858.75 152.076 3856.64 152.545 Q3854.56 153.014 3852.37 154.003 L3852.37 134.472 Z" fill="#000000" fill-rule="nonzero" fill-opacity="1" /><path clip-path="url(#clip760)" d="M3890.78 168.925 L3909.14 168.925 L3909.14 173.352 L3884.45 173.352 L3884.45 168.925 Q3887.45 165.826 3892.61 160.618 Q3897.79 155.383 3899.12 153.873 Q3901.64 151.034 3902.63 149.081 Q3903.65 147.102 3903.65 145.201 Q3903.65 142.102 3901.46 140.149 Q3899.3 138.196 3895.81 138.196 Q3893.33 138.196 3890.57 139.055 Q3887.84 139.915 3884.71 141.659 L3884.71 136.347 Q3887.89 135.071 3890.65 134.42 Q3893.41 133.769 3895.7 133.769 Q3901.75 133.769 3905.34 136.79 Q3908.93 139.81 3908.93 144.863 Q3908.93 147.258 3908.02 149.42 Q3907.14 151.555 3904.77 154.472 Q3904.12 155.227 3900.63 158.847 Q3897.14 162.441 3890.78 168.925 Z" fill="#000000" fill-rule="nonzero" fill-opacity="1" /><polyline clip-path="url(#clip760)" style="stroke:#ff7c00; stroke-linecap:round; stroke-linejoin:round; stroke-width:5.625; stroke-opacity:1; fill:none" points="3347.02,212.232 3596.83,212.232 "/>
<path clip-path="url(#clip760)" d="M3643.28 227.297 L3643.28 242.766 L3638.47 242.766 L3638.47 202.505 L3643.28 202.505 L3643.28 206.933 Q3644.79 204.328 3647.09 203.078 Q3649.4 201.802 3652.61 201.802 Q3657.92 201.802 3661.23 206.021 Q3664.56 210.24 3664.56 217.115 Q3664.56 223.99 3661.23 228.208 Q3657.92 232.427 3652.61 232.427 Q3649.4 232.427 3647.09 231.177 Q3644.79 229.901 3643.28 227.297 M3659.59 217.115 Q3659.59 211.828 3657.4 208.834 Q3655.24 205.813 3651.43 205.813 Q3647.63 205.813 3645.45 208.834 Q3643.28 211.828 3643.28 217.115 Q3643.28 222.401 3645.45 225.422 Q3647.63 228.417 3651.43 228.417 Q3655.24 228.417 3657.4 225.422 Q3659.59 222.401 3659.59 217.115 Z" fill="#000000" fill-rule="nonzero" fill-opacity="1" /><path clip-path="url(#clip760)" d="M3689.4 206.985 Q3688.6 206.516 3687.63 206.308 Q3686.7 206.073 3685.55 206.073 Q3681.49 206.073 3679.3 208.729 Q3677.14 211.36 3677.14 216.307 L3677.14 231.672 L3672.32 231.672 L3672.32 202.505 L3677.14 202.505 L3677.14 207.037 Q3678.65 204.38 3681.07 203.104 Q3683.49 201.802 3686.96 201.802 Q3687.45 201.802 3688.05 201.88 Q3688.65 201.933 3689.38 202.063 L3689.4 206.985 Z" fill="#000000" fill-rule="nonzero" fill-opacity="1" /><path clip-path="url(#clip760)" d="M3718.21 215.891 L3718.21 218.235 L3696.17 218.235 Q3696.49 223.182 3699.14 225.787 Q3701.83 228.365 3706.59 228.365 Q3709.35 228.365 3711.93 227.688 Q3714.53 227.011 3717.09 225.656 L3717.09 230.188 Q3714.51 231.281 3711.8 231.854 Q3709.09 232.427 3706.3 232.427 Q3699.33 232.427 3695.24 228.365 Q3691.17 224.302 3691.17 217.375 Q3691.17 210.214 3695.03 206.021 Q3698.91 201.802 3705.47 201.802 Q3711.36 201.802 3714.77 205.604 Q3718.21 209.38 3718.21 215.891 M3713.41 214.485 Q3713.36 210.552 3711.2 208.209 Q3709.06 205.865 3705.52 205.865 Q3701.51 205.865 3699.09 208.13 Q3696.7 210.396 3696.33 214.511 L3713.41 214.485 Z" fill="#000000" fill-rule="nonzero" fill-opacity="1" /><path clip-path="url(#clip760)" d="M3745.26 206.933 L3745.26 191.151 L3750.05 191.151 L3750.05 231.672 L3745.26 231.672 L3745.26 227.297 Q3743.75 229.901 3741.43 231.177 Q3739.14 232.427 3735.91 232.427 Q3730.63 232.427 3727.29 228.208 Q3723.99 223.99 3723.99 217.115 Q3723.99 210.24 3727.29 206.021 Q3730.63 201.802 3735.91 201.802 Q3739.14 201.802 3741.43 203.078 Q3743.75 204.328 3745.26 206.933 M3728.93 217.115 Q3728.93 222.401 3731.1 225.422 Q3733.28 228.417 3737.09 228.417 Q3740.89 228.417 3743.08 225.422 Q3745.26 222.401 3745.26 217.115 Q3745.26 211.828 3743.08 208.834 Q3740.89 205.813 3737.09 205.813 Q3733.28 205.813 3731.1 208.834 Q3728.93 211.828 3728.93 217.115 Z" fill="#000000" fill-rule="nonzero" fill-opacity="1" /><path clip-path="url(#clip760)" d="M3759.92 202.505 L3764.72 202.505 L3764.72 231.672 L3759.92 231.672 L3759.92 202.505 M3759.92 191.151 L3764.72 191.151 L3764.72 197.219 L3759.92 197.219 L3759.92 191.151 Z" fill="#000000" fill-rule="nonzero" fill-opacity="1" /><path clip-path="url(#clip760)" d="M3795.73 203.625 L3795.73 208.104 Q3793.7 206.985 3791.64 206.438 Q3789.61 205.865 3787.53 205.865 Q3782.87 205.865 3780.29 208.834 Q3777.71 211.776 3777.71 217.115 Q3777.71 222.453 3780.29 225.422 Q3782.87 228.365 3787.53 228.365 Q3789.61 228.365 3791.64 227.818 Q3793.7 227.245 3795.73 226.125 L3795.73 230.552 Q3793.73 231.49 3791.56 231.958 Q3789.43 232.427 3787.01 232.427 Q3780.42 232.427 3776.54 228.287 Q3772.66 224.146 3772.66 217.115 Q3772.66 209.979 3776.56 205.891 Q3780.5 201.802 3787.32 201.802 Q3789.53 201.802 3791.64 202.271 Q3793.75 202.714 3795.73 203.625 Z" fill="#000000" fill-rule="nonzero" fill-opacity="1" /><path clip-path="url(#clip760)" d="M3808.8 194.224 L3808.8 202.505 L3818.67 202.505 L3818.67 206.229 L3808.8 206.229 L3808.8 222.063 Q3808.8 225.63 3809.77 226.646 Q3810.76 227.662 3813.75 227.662 L3818.67 227.662 L3818.67 231.672 L3813.75 231.672 Q3808.2 231.672 3806.1 229.615 Q3803.99 227.531 3803.99 222.063 L3803.99 206.229 L3800.47 206.229 L3800.47 202.505 L3803.99 202.505 L3803.99 194.224 L3808.8 194.224 Z" fill="#000000" fill-rule="nonzero" fill-opacity="1" /><path clip-path="url(#clip760)" d="M3847.14 240.526 L3847.14 244.25 L3819.43 244.25 L3819.43 240.526 L3847.14 240.526 Z" fill="#000000" fill-rule="nonzero" fill-opacity="1" /><path clip-path="url(#clip760)" d="M3856.85 227.245 L3875.21 227.245 L3875.21 231.672 L3850.52 231.672 L3850.52 227.245 Q3853.52 224.146 3858.67 218.938 Q3863.86 213.703 3865.18 212.193 Q3867.71 209.354 3868.7 207.401 Q3869.72 205.422 3869.72 203.521 Q3869.72 200.422 3867.53 198.469 Q3865.37 196.516 3861.88 196.516 Q3859.4 196.516 3856.64 197.375 Q3853.91 198.235 3850.78 199.979 L3850.78 194.667 Q3853.96 193.391 3856.72 192.74 Q3859.48 192.089 3861.77 192.089 Q3867.81 192.089 3871.41 195.11 Q3875 198.13 3875 203.183 Q3875 205.578 3874.09 207.74 Q3873.2 209.875 3870.83 212.792 Q3870.18 213.547 3866.69 217.167 Q3863.2 220.761 3856.85 227.245 Z" fill="#000000" fill-rule="nonzero" fill-opacity="1" /><path clip-path="url(#clip760)" d="M3898.15 210.136 Q3894.61 210.136 3892.53 212.557 Q3890.47 214.979 3890.47 219.198 Q3890.47 223.391 3892.53 225.839 Q3894.61 228.261 3898.15 228.261 Q3901.69 228.261 3903.75 225.839 Q3905.83 223.391 3905.83 219.198 Q3905.83 214.979 3903.75 212.557 Q3901.69 210.136 3898.15 210.136 M3908.6 193.651 L3908.6 198.443 Q3906.62 197.505 3904.58 197.011 Q3902.58 196.516 3900.6 196.516 Q3895.39 196.516 3892.63 200.031 Q3889.9 203.547 3889.51 210.656 Q3891.04 208.391 3893.36 207.193 Q3895.68 205.969 3898.46 205.969 Q3904.32 205.969 3907.71 209.537 Q3911.12 213.078 3911.12 219.198 Q3911.12 225.188 3907.58 228.807 Q3904.04 232.427 3898.15 232.427 Q3891.41 232.427 3887.84 227.271 Q3884.27 222.089 3884.27 212.271 Q3884.27 203.052 3888.65 197.584 Q3893.02 192.089 3900.39 192.089 Q3902.37 192.089 3904.38 192.479 Q3906.41 192.87 3908.6 193.651 Z" fill="#000000" fill-rule="nonzero" fill-opacity="1" /><polyline clip-path="url(#clip760)" style="stroke:#1ac938; stroke-linecap:round; stroke-linejoin:round; stroke-width:5.625; stroke-opacity:1; fill:none" points="3347.02,270.552 3596.83,270.552 "/>
<path clip-path="url(#clip760)" d="M3643.28 285.617 L3643.28 301.086 L3638.47 301.086 L3638.47 260.825 L3643.28 260.825 L3643.28 265.253 Q3644.79 262.648 3647.09 261.398 Q3649.4 260.122 3652.61 260.122 Q3657.92 260.122 3661.23 264.341 Q3664.56 268.56 3664.56 275.435 Q3664.56 282.31 3661.23 286.528 Q3657.92 290.747 3652.61 290.747 Q3649.4 290.747 3647.09 289.497 Q3644.79 288.221 3643.28 285.617 M3659.59 275.435 Q3659.59 270.148 3657.4 267.154 Q3655.24 264.133 3651.43 264.133 Q3647.63 264.133 3645.45 267.154 Q3643.28 270.148 3643.28 275.435 Q3643.28 280.721 3645.45 283.742 Q3647.63 286.737 3651.43 286.737 Q3655.24 286.737 3657.4 283.742 Q3659.59 280.721 3659.59 275.435 Z" fill="#000000" fill-rule="nonzero" fill-opacity="1" /><path clip-path="url(#clip760)" d="M3689.4 265.305 Q3688.6 264.836 3687.63 264.628 Q3686.7 264.393 3685.55 264.393 Q3681.49 264.393 3679.3 267.049 Q3677.14 269.68 3677.14 274.627 L3677.14 289.992 L3672.32 289.992 L3672.32 260.825 L3677.14 260.825 L3677.14 265.357 Q3678.65 262.7 3681.07 261.424 Q3683.49 260.122 3686.96 260.122 Q3687.45 260.122 3688.05 260.2 Q3688.65 260.253 3689.38 260.383 L3689.4 265.305 Z" fill="#000000" fill-rule="nonzero" fill-opacity="1" /><path clip-path="url(#clip760)" d="M3718.21 274.211 L3718.21 276.555 L3696.17 276.555 Q3696.49 281.502 3699.14 284.107 Q3701.83 286.685 3706.59 286.685 Q3709.35 286.685 3711.93 286.008 Q3714.53 285.331 3717.09 283.976 L3717.09 288.508 Q3714.51 289.601 3711.8 290.174 Q3709.09 290.747 3706.3 290.747 Q3699.33 290.747 3695.24 286.685 Q3691.17 282.622 3691.17 275.695 Q3691.17 268.534 3695.03 264.341 Q3698.91 260.122 3705.47 260.122 Q3711.36 260.122 3714.77 263.924 Q3718.21 267.7 3718.21 274.211 M3713.41 272.805 Q3713.36 268.872 3711.2 266.529 Q3709.06 264.185 3705.52 264.185 Q3701.51 264.185 3699.09 266.45 Q3696.7 268.716 3696.33 272.831 L3713.41 272.805 Z" fill="#000000" fill-rule="nonzero" fill-opacity="1" /><path clip-path="url(#clip760)" d="M3745.26 265.253 L3745.26 249.471 L3750.05 249.471 L3750.05 289.992 L3745.26 289.992 L3745.26 285.617 Q3743.75 288.221 3741.43 289.497 Q3739.14 290.747 3735.91 290.747 Q3730.63 290.747 3727.29 286.528 Q3723.99 282.31 3723.99 275.435 Q3723.99 268.56 3727.29 264.341 Q3730.63 260.122 3735.91 260.122 Q3739.14 260.122 3741.43 261.398 Q3743.75 262.648 3745.26 265.253 M3728.93 275.435 Q3728.93 280.721 3731.1 283.742 Q3733.28 286.737 3737.09 286.737 Q3740.89 286.737 3743.08 283.742 Q3745.26 280.721 3745.26 275.435 Q3745.26 270.148 3743.08 267.154 Q3740.89 264.133 3737.09 264.133 Q3733.28 264.133 3731.1 267.154 Q3728.93 270.148 3728.93 275.435 Z" fill="#000000" fill-rule="nonzero" fill-opacity="1" /><path clip-path="url(#clip760)" d="M3759.92 260.825 L3764.72 260.825 L3764.72 289.992 L3759.92 289.992 L3759.92 260.825 M3759.92 249.471 L3764.72 249.471 L3764.72 255.539 L3759.92 255.539 L3759.92 249.471 Z" fill="#000000" fill-rule="nonzero" fill-opacity="1" /><path clip-path="url(#clip760)" d="M3795.73 261.945 L3795.73 266.424 Q3793.7 265.305 3791.64 264.758 Q3789.61 264.185 3787.53 264.185 Q3782.87 264.185 3780.29 267.154 Q3777.71 270.096 3777.71 275.435 Q3777.71 280.773 3780.29 283.742 Q3782.87 286.685 3787.53 286.685 Q3789.61 286.685 3791.64 286.138 Q3793.7 285.565 3795.73 284.445 L3795.73 288.872 Q3793.73 289.81 3791.56 290.278 Q3789.43 290.747 3787.01 290.747 Q3780.42 290.747 3776.54 286.607 Q3772.66 282.466 3772.66 275.435 Q3772.66 268.299 3776.56 264.211 Q3780.5 260.122 3787.32 260.122 Q3789.53 260.122 3791.64 260.591 Q3793.75 261.034 3795.73 261.945 Z" fill="#000000" fill-rule="nonzero" fill-opacity="1" /><path clip-path="url(#clip760)" d="M3808.8 252.544 L3808.8 260.825 L3818.67 260.825 L3818.67 264.549 L3808.8 264.549 L3808.8 280.383 Q3808.8 283.95 3809.77 284.966 Q3810.76 285.982 3813.75 285.982 L3818.67 285.982 L3818.67 289.992 L3813.75 289.992 Q3808.2 289.992 3806.1 287.935 Q3803.99 285.851 3803.99 280.383 L3803.99 264.549 L3800.47 264.549 L3800.47 260.825 L3803.99 260.825 L3803.99 252.544 L3808.8 252.544 Z" fill="#000000" fill-rule="nonzero" fill-opacity="1" /><path clip-path="url(#clip760)" d="M3847.14 298.846 L3847.14 302.57 L3819.43 302.57 L3819.43 298.846 L3847.14 298.846 Z" fill="#000000" fill-rule="nonzero" fill-opacity="1" /><path clip-path="url(#clip760)" d="M3866.77 255.695 L3853.49 276.45 L3866.77 276.45 L3866.77 255.695 M3865.39 251.112 L3872.01 251.112 L3872.01 276.45 L3877.55 276.45 L3877.55 280.825 L3872.01 280.825 L3872.01 289.992 L3866.77 289.992 L3866.77 280.825 L3849.22 280.825 L3849.22 275.747 L3865.39 251.112 Z" fill="#000000" fill-rule="nonzero" fill-opacity="1" /><polyline clip-path="url(#clip760)" style="stroke:#e8000b; stroke-linecap:round; stroke-linejoin:round; stroke-width:5.625; stroke-opacity:1; fill:none" points="3347.02,328.872 3596.83,328.872 "/>
<path clip-path="url(#clip760)" d="M3643.28 343.937 L3643.28 359.406 L3638.47 359.406 L3638.47 319.145 L3643.28 319.145 L3643.28 323.573 Q3644.79 320.968 3647.09 319.718 Q3649.4 318.442 3652.61 318.442 Q3657.92 318.442 3661.23 322.661 Q3664.56 326.88 3664.56 333.755 Q3664.56 340.63 3661.23 344.848 Q3657.92 349.067 3652.61 349.067 Q3649.4 349.067 3647.09 347.817 Q3644.79 346.541 3643.28 343.937 M3659.59 333.755 Q3659.59 328.468 3657.4 325.474 Q3655.24 322.453 3651.43 322.453 Q3647.63 322.453 3645.45 325.474 Q3643.28 328.468 3643.28 333.755 Q3643.28 339.041 3645.45 342.062 Q3647.63 345.057 3651.43 345.057 Q3655.24 345.057 3657.4 342.062 Q3659.59 339.041 3659.59 333.755 Z" fill="#000000" fill-rule="nonzero" fill-opacity="1" /><path clip-path="url(#clip760)" d="M3689.4 323.625 Q3688.6 323.156 3687.63 322.948 Q3686.7 322.713 3685.55 322.713 Q3681.49 322.713 3679.3 325.369 Q3677.14 328 3677.14 332.947 L3677.14 348.312 L3672.32 348.312 L3672.32 319.145 L3677.14 319.145 L3677.14 323.677 Q3678.65 321.02 3681.07 319.744 Q3683.49 318.442 3686.96 318.442 Q3687.45 318.442 3688.05 318.52 Q3688.65 318.573 3689.38 318.703 L3689.4 323.625 Z" fill="#000000" fill-rule="nonzero" fill-opacity="1" /><path clip-path="url(#clip760)" d="M3718.21 332.531 L3718.21 334.875 L3696.17 334.875 Q3696.49 339.822 3699.14 342.427 Q3701.83 345.005 3706.59 345.005 Q3709.35 345.005 3711.93 344.328 Q3714.53 343.651 3717.09 342.296 L3717.09 346.828 Q3714.51 347.921 3711.8 348.494 Q3709.09 349.067 3706.3 349.067 Q3699.33 349.067 3695.24 345.005 Q3691.17 340.942 3691.17 334.015 Q3691.17 326.854 3695.03 322.661 Q3698.91 318.442 3705.47 318.442 Q3711.36 318.442 3714.77 322.244 Q3718.21 326.02 3718.21 332.531 M3713.41 331.125 Q3713.36 327.192 3711.2 324.849 Q3709.06 322.505 3705.52 322.505 Q3701.51 322.505 3699.09 324.77 Q3696.7 327.036 3696.33 331.151 L3713.41 331.125 Z" fill="#000000" fill-rule="nonzero" fill-opacity="1" /><path clip-path="url(#clip760)" d="M3745.26 323.573 L3745.26 307.791 L3750.05 307.791 L3750.05 348.312 L3745.26 348.312 L3745.26 343.937 Q3743.75 346.541 3741.43 347.817 Q3739.14 349.067 3735.91 349.067 Q3730.63 349.067 3727.29 344.848 Q3723.99 340.63 3723.99 333.755 Q3723.99 326.88 3727.29 322.661 Q3730.63 318.442 3735.91 318.442 Q3739.14 318.442 3741.43 319.718 Q3743.75 320.968 3745.26 323.573 M3728.93 333.755 Q3728.93 339.041 3731.1 342.062 Q3733.28 345.057 3737.09 345.057 Q3740.89 345.057 3743.08 342.062 Q3745.26 339.041 3745.26 333.755 Q3745.26 328.468 3743.08 325.474 Q3740.89 322.453 3737.09 322.453 Q3733.28 322.453 3731.1 325.474 Q3728.93 328.468 3728.93 333.755 Z" fill="#000000" fill-rule="nonzero" fill-opacity="1" /><path clip-path="url(#clip760)" d="M3759.92 319.145 L3764.72 319.145 L3764.72 348.312 L3759.92 348.312 L3759.92 319.145 M3759.92 307.791 L3764.72 307.791 L3764.72 313.859 L3759.92 313.859 L3759.92 307.791 Z" fill="#000000" fill-rule="nonzero" fill-opacity="1" /><path clip-path="url(#clip760)" d="M3795.73 320.265 L3795.73 324.744 Q3793.7 323.625 3791.64 323.078 Q3789.61 322.505 3787.53 322.505 Q3782.87 322.505 3780.29 325.474 Q3777.71 328.416 3777.71 333.755 Q3777.71 339.093 3780.29 342.062 Q3782.87 345.005 3787.53 345.005 Q3789.61 345.005 3791.64 344.458 Q3793.7 343.885 3795.73 342.765 L3795.73 347.192 Q3793.73 348.13 3791.56 348.598 Q3789.43 349.067 3787.01 349.067 Q3780.42 349.067 3776.54 344.927 Q3772.66 340.786 3772.66 333.755 Q3772.66 326.619 3776.56 322.531 Q3780.5 318.442 3787.32 318.442 Q3789.53 318.442 3791.64 318.911 Q3793.75 319.354 3795.73 320.265 Z" fill="#000000" fill-rule="nonzero" fill-opacity="1" /><path clip-path="url(#clip760)" d="M3808.8 310.864 L3808.8 319.145 L3818.67 319.145 L3818.67 322.869 L3808.8 322.869 L3808.8 338.703 Q3808.8 342.27 3809.77 343.286 Q3810.76 344.302 3813.75 344.302 L3818.67 344.302 L3818.67 348.312 L3813.75 348.312 Q3808.2 348.312 3806.1 346.255 Q3803.99 344.171 3803.99 338.703 L3803.99 322.869 L3800.47 322.869 L3800.47 319.145 L3803.99 319.145 L3803.99 310.864 L3808.8 310.864 Z" fill="#000000" fill-rule="nonzero" fill-opacity="1" /><path clip-path="url(#clip760)" d="M3847.14 357.166 L3847.14 360.89 L3819.43 360.89 L3819.43 357.166 L3847.14 357.166 Z" fill="#000000" fill-rule="nonzero" fill-opacity="1" /><path clip-path="url(#clip760)" d="M3853.23 343.885 L3861.82 343.885 L3861.82 314.224 L3852.48 316.099 L3852.48 311.307 L3861.77 309.432 L3867.03 309.432 L3867.03 343.885 L3875.63 343.885 L3875.63 348.312 L3853.23 348.312 L3853.23 343.885 Z" fill="#000000" fill-rule="nonzero" fill-opacity="1" /><polyline clip-path="url(#clip760)" style="stroke:#000000; stroke-linecap:round; stroke-linejoin:round; stroke-width:6.75; stroke-opacity:1; fill:none" points="3347.02,387.192 3596.83,387.192 "/>
<path clip-path="url(#clip760)" d="M3653.54 391.971 Q3647.74 391.971 3645.5 393.299 Q3643.26 394.627 3643.26 397.83 Q3643.26 400.382 3644.92 401.892 Q3646.62 403.377 3649.51 403.377 Q3653.49 403.377 3655.89 400.564 Q3658.31 397.726 3658.31 393.038 L3658.31 391.971 L3653.54 391.971 M3663.1 389.991 L3663.1 406.632 L3658.31 406.632 L3658.31 402.205 Q3656.67 404.861 3654.22 406.137 Q3651.77 407.387 3648.23 407.387 Q3643.75 407.387 3641.1 404.887 Q3638.47 402.361 3638.47 398.142 Q3638.47 393.221 3641.75 390.721 Q3645.05 388.221 3651.59 388.221 L3658.31 388.221 L3658.31 387.752 Q3658.31 384.445 3656.12 382.648 Q3653.96 380.825 3650.03 380.825 Q3647.53 380.825 3645.16 381.424 Q3642.79 382.023 3640.6 383.221 L3640.6 378.794 Q3643.23 377.778 3645.71 377.283 Q3648.18 376.762 3650.52 376.762 Q3656.85 376.762 3659.98 380.044 Q3663.1 383.325 3663.1 389.991 Z" fill="#000000" fill-rule="nonzero" fill-opacity="1" /><path clip-path="url(#clip760)" d="M3693.96 378.585 L3693.96 383.064 Q3691.93 381.945 3689.87 381.398 Q3687.84 380.825 3685.76 380.825 Q3681.1 380.825 3678.52 383.794 Q3675.94 386.736 3675.94 392.075 Q3675.94 397.413 3678.52 400.382 Q3681.1 403.325 3685.76 403.325 Q3687.84 403.325 3689.87 402.778 Q3691.93 402.205 3693.96 401.085 L3693.96 405.512 Q3691.96 406.45 3689.79 406.918 Q3687.66 407.387 3685.24 407.387 Q3678.65 407.387 3674.77 403.247 Q3670.89 399.106 3670.89 392.075 Q3670.89 384.939 3674.79 380.851 Q3678.73 376.762 3685.55 376.762 Q3687.76 376.762 3689.87 377.231 Q3691.98 377.674 3693.96 378.585 Z" fill="#000000" fill-rule="nonzero" fill-opacity="1" /><path clip-path="url(#clip760)" d="M3707.03 369.184 L3707.03 377.465 L3716.9 377.465 L3716.9 381.189 L3707.03 381.189 L3707.03 397.023 Q3707.03 400.59 3708 401.606 Q3708.99 402.622 3711.98 402.622 L3716.9 402.622 L3716.9 406.632 L3711.98 406.632 Q3706.43 406.632 3704.33 404.575 Q3702.22 402.491 3702.22 397.023 L3702.22 381.189 L3698.7 381.189 L3698.7 377.465 L3702.22 377.465 L3702.22 369.184 L3707.03 369.184 Z" fill="#000000" fill-rule="nonzero" fill-opacity="1" /><path clip-path="url(#clip760)" d="M3722.71 395.122 L3722.71 377.465 L3727.5 377.465 L3727.5 394.939 Q3727.5 399.08 3729.12 401.163 Q3730.73 403.221 3733.96 403.221 Q3737.84 403.221 3740.08 400.747 Q3742.35 398.273 3742.35 394.002 L3742.35 377.465 L3747.14 377.465 L3747.14 406.632 L3742.35 406.632 L3742.35 402.153 Q3740.6 404.809 3738.28 406.111 Q3735.99 407.387 3732.94 407.387 Q3727.92 407.387 3725.31 404.262 Q3722.71 401.137 3722.71 395.122 M3734.77 376.762 L3734.77 376.762 Z" fill="#000000" fill-rule="nonzero" fill-opacity="1" /><path clip-path="url(#clip760)" d="M3770.26 391.971 Q3764.46 391.971 3762.22 393.299 Q3759.98 394.627 3759.98 397.83 Q3759.98 400.382 3761.64 401.892 Q3763.34 403.377 3766.23 403.377 Q3770.21 403.377 3772.61 400.564 Q3775.03 397.726 3775.03 393.038 L3775.03 391.971 L3770.26 391.971 M3779.82 389.991 L3779.82 406.632 L3775.03 406.632 L3775.03 402.205 Q3773.39 404.861 3770.94 406.137 Q3768.49 407.387 3764.95 407.387 Q3760.47 407.387 3757.81 404.887 Q3755.18 402.361 3755.18 398.142 Q3755.18 393.221 3758.47 390.721 Q3761.77 388.221 3768.31 388.221 L3775.03 388.221 L3775.03 387.752 Q3775.03 384.445 3772.84 382.648 Q3770.68 380.825 3766.75 380.825 Q3764.25 380.825 3761.88 381.424 Q3759.51 382.023 3757.32 383.221 L3757.32 378.794 Q3759.95 377.778 3762.42 377.283 Q3764.9 376.762 3767.24 376.762 Q3773.57 376.762 3776.69 380.044 Q3779.82 383.325 3779.82 389.991 Z" fill="#000000" fill-rule="nonzero" fill-opacity="1" /><path clip-path="url(#clip760)" d="M3789.69 366.111 L3794.48 366.111 L3794.48 406.632 L3789.69 406.632 L3789.69 366.111 Z" fill="#000000" fill-rule="nonzero" fill-opacity="1" /></svg>
