<?xml version="1.0" encoding="UTF-8" standalone="no"?>
<!DOCTYPE svg PUBLIC "-//W3C//DTD SVG 1.1//EN"
 "http://www.w3.org/Graphics/SVG/1.1/DTD/svg11.dtd">
<!-- Generated by graphviz version 2.50.0 (20211204.2007)
 -->
<!-- Pages: 1 -->
<svg width="1238pt" height="588pt"
 viewBox="0.00 0.00 1237.50 588.00" xmlns="http://www.w3.org/2000/svg" xmlns:xlink="http://www.w3.org/1999/xlink">
<g id="graph0" class="graph" transform="scale(1 1) rotate(0) translate(4 584)">
<polygon fill="white" stroke="transparent" points="-4,4 -4,-584 1233.5,-584 1233.5,4 -4,4"/>
<!-- 1 -->
<g id="node1" class="node">
<title>1</title>
<text text-anchor="start" x="606" y="-561.8" font-family="Arial" font-weight="bold" font-size="14.00"> </text>
<path fill="#ebebeb" stroke="transparent" d="M566,-489C566,-489 650,-489 650,-489 656,-489 662,-495 662,-501 662,-501 662,-541 662,-541 662,-547 656,-553 650,-553 650,-553 566,-553 566,-553 560,-553 554,-547 554,-541 554,-541 554,-501 554,-501 554,-495 560,-489 566,-489"/>
<text text-anchor="start" x="555" y="-550.4" font-family="Arial" font-size="2.00"> </text>
<text text-anchor="start" x="555" y="-544.4" font-family="Arial" font-size="7.00"> &#160;1</text>
<text text-anchor="start" x="569" y="-527.8" font-family="Arial" font-weight="bold" font-size="14.00">Mean: 9.874</text>
<text text-anchor="start" x="584.5" y="-510.8" font-family="Arial" font-weight="bold" font-size="14.00">n = 168</text>
<text text-anchor="start" x="606.5" y="-492.8" font-family="Arial" font-size="9.00"> </text>
<path fill="none" stroke="#333333" d="M566,-489C566,-489 650,-489 650,-489 656,-489 662,-495 662,-501 662,-501 662,-541 662,-541 662,-547 656,-553 650,-553 650,-553 566,-553 566,-553 560,-553 554,-547 554,-541 554,-541 554,-501 554,-501 554,-495 560,-489 566,-489"/>
<text text-anchor="start" x="593.5" y="-474.8" font-family="Arial" font-weight="bold" font-size="14.00">time</text>
</g>
<!-- 2 -->
<g id="node2" class="node">
<title>2</title>
<text text-anchor="start" x="439.5" y="-407.8" font-family="Arial" font-weight="bold" font-size="14.00"> &lt; 9.5</text>
<text text-anchor="start" x="393" y="-363.3" font-family="Arial" font-size="14.00"> &#160;</text>
<path fill="#ebebeb" stroke="transparent" d="M415,-335C415,-335 499,-335 499,-335 505,-335 511,-341 511,-347 511,-347 511,-387 511,-387 511,-393 505,-399 499,-399 499,-399 415,-399 415,-399 409,-399 403,-393 403,-387 403,-387 403,-347 403,-347 403,-341 409,-335 415,-335"/>
<text text-anchor="start" x="404" y="-396.4" font-family="Arial" font-size="2.00"> </text>
<text text-anchor="start" x="404" y="-390.4" font-family="Arial" font-size="7.00"> &#160;2</text>
<text text-anchor="start" x="418" y="-373.8" font-family="Arial" font-weight="bold" font-size="14.00">Mean: 9.413</text>
<text text-anchor="start" x="437" y="-356.8" font-family="Arial" font-weight="bold" font-size="14.00">n = 70</text>
<text text-anchor="start" x="455.5" y="-338.8" font-family="Arial" font-size="9.00"> </text>
<path fill="none" stroke="#333333" d="M415,-335C415,-335 499,-335 499,-335 505,-335 511,-341 511,-347 511,-347 511,-387 511,-387 511,-393 505,-399 499,-399 499,-399 415,-399 415,-399 409,-399 403,-393 403,-387 403,-387 403,-347 403,-347 403,-341 409,-335 415,-335"/>
<text text-anchor="start" x="513" y="-363.3" font-family="Arial" font-size="14.00"> &#160;</text>
<text text-anchor="start" x="407" y="-320.8" font-family="Arial" font-weight="bold" font-size="14.00">prev_1h_inflow</text>
</g>
<!-- 1&#45;&gt;2 -->
<g id="edge1" class="edge">
<title>1&#45;&gt;2</title>
<path fill="none" stroke="#888888" d="M550.05,-461.67C540.84,-452.39 531.26,-442.75 521.9,-433.33"/>
<polygon fill="#888888" stroke="#888888" points="524.32,-430.8 514.79,-426.18 519.36,-435.74 524.32,-430.8"/>
</g>
<!-- 9 -->
<g id="node3" class="node">
<title>9</title>
<text text-anchor="start" x="749" y="-407.8" font-family="Arial" font-weight="bold" font-size="14.00"> ≥ 9.5</text>
<text text-anchor="start" x="698" y="-363.3" font-family="Arial" font-size="14.00"> &#160;&#160;&#160;</text>
<path fill="#ebebeb" stroke="transparent" d="M728,-335C728,-335 804,-335 804,-335 810,-335 816,-341 816,-347 816,-347 816,-387 816,-387 816,-393 810,-399 804,-399 804,-399 728,-399 728,-399 722,-399 716,-393 716,-387 716,-387 716,-347 716,-347 716,-341 722,-335 728,-335"/>
<text text-anchor="start" x="717" y="-396.4" font-family="Arial" font-size="2.00"> </text>
<text text-anchor="start" x="717" y="-390.4" font-family="Arial" font-size="7.00"> &#160;9</text>
<text text-anchor="start" x="731" y="-373.8" font-family="Arial" font-weight="bold" font-size="14.00">Mean: 10.2</text>
<text text-anchor="start" x="746" y="-356.8" font-family="Arial" font-weight="bold" font-size="14.00">n = 98</text>
<text text-anchor="start" x="764.5" y="-338.8" font-family="Arial" font-size="9.00"> </text>
<path fill="none" stroke="#333333" d="M728,-335C728,-335 804,-335 804,-335 810,-335 816,-341 816,-347 816,-347 816,-387 816,-387 816,-393 810,-399 804,-399 804,-399 728,-399 728,-399 722,-399 716,-393 716,-387 716,-387 716,-347 716,-347 716,-341 722,-335 728,-335"/>
<text text-anchor="start" x="818" y="-363.3" font-family="Arial" font-size="14.00"> &#160;&#160;&#160;</text>
<text text-anchor="start" x="712.5" y="-320.8" font-family="Arial" font-weight="bold" font-size="14.00">prev_24h_inflow</text>
</g>
<!-- 1&#45;&gt;9 -->
<g id="edge2" class="edge">
<title>1&#45;&gt;9</title>
<path fill="none" stroke="#888888" d="M668.64,-461.67C678.27,-452.39 688.3,-442.75 698.09,-433.33"/>
<polygon fill="#888888" stroke="#888888" points="700.75,-435.63 705.53,-426.18 695.89,-430.59 700.75,-435.63"/>
</g>
<!-- 3 -->
<g id="node4" class="node">
<title>3</title>
<text text-anchor="start" x="200" y="-253.8" font-family="Arial" font-weight="bold" font-size="14.00"> &lt; 9.105</text>
<text text-anchor="start" x="153" y="-209.3" font-family="Arial" font-size="14.00"> &#160;&#160;&#160;</text>
<path fill="#ebebeb" stroke="transparent" d="M183,-181C183,-181 267,-181 267,-181 273,-181 279,-187 279,-193 279,-193 279,-233 279,-233 279,-239 273,-245 267,-245 267,-245 183,-245 183,-245 177,-245 171,-239 171,-233 171,-233 171,-193 171,-193 171,-187 177,-181 183,-181"/>
<text text-anchor="start" x="172" y="-242.4" font-family="Arial" font-size="2.00"> </text>
<text text-anchor="start" x="172" y="-236.4" font-family="Arial" font-size="7.00"> &#160;3</text>
<text text-anchor="start" x="186" y="-219.8" font-family="Arial" font-weight="bold" font-size="14.00">Mean: 8.806</text>
<text text-anchor="start" x="205" y="-202.8" font-family="Arial" font-weight="bold" font-size="14.00">n = 44</text>
<text text-anchor="start" x="223.5" y="-184.8" font-family="Arial" font-size="9.00"> </text>
<path fill="none" stroke="#333333" d="M183,-181C183,-181 267,-181 267,-181 273,-181 279,-187 279,-193 279,-193 279,-233 279,-233 279,-239 273,-245 267,-245 267,-245 183,-245 183,-245 177,-245 171,-239 171,-233 171,-233 171,-193 171,-193 171,-187 177,-181 183,-181"/>
<text text-anchor="start" x="281" y="-209.3" font-family="Arial" font-size="14.00"> &#160;&#160;&#160;</text>
<text text-anchor="start" x="167.5" y="-166.8" font-family="Arial" font-weight="bold" font-size="14.00">prev_168h_inflow</text>
</g>
<!-- 2&#45;&gt;3 -->
<g id="edge3" class="edge">
<title>2&#45;&gt;3</title>
<path fill="none" stroke="#888888" d="M382.96,-317.49C361.55,-303.47 337.95,-288 315.66,-273.4"/>
<polygon fill="#888888" stroke="#888888" points="317.47,-270.4 307.19,-267.85 313.64,-276.26 317.47,-270.4"/>
</g>
<!-- 6 -->
<g id="node5" class="node">
<title>6</title>
<text text-anchor="start" x="432.5" y="-253.8" font-family="Arial" font-weight="bold" font-size="14.00"> ≥ 9.105</text>
<path fill="#ebebeb" stroke="transparent" d="M415,-181C415,-181 499,-181 499,-181 505,-181 511,-187 511,-193 511,-193 511,-233 511,-233 511,-239 505,-245 499,-245 499,-245 415,-245 415,-245 409,-245 403,-239 403,-233 403,-233 403,-193 403,-193 403,-187 409,-181 415,-181"/>
<text text-anchor="start" x="404" y="-242.4" font-family="Arial" font-size="2.00"> </text>
<text text-anchor="start" x="404" y="-236.4" font-family="Arial" font-size="7.00"> &#160;6</text>
<text text-anchor="start" x="418" y="-219.8" font-family="Arial" font-weight="bold" font-size="14.00">Mean: 10.44</text>
<text text-anchor="start" x="437" y="-202.8" font-family="Arial" font-weight="bold" font-size="14.00">n = 26</text>
<text text-anchor="start" x="455.5" y="-184.8" font-family="Arial" font-size="9.00"> </text>
<path fill="none" stroke="#333333" d="M415,-181C415,-181 499,-181 499,-181 505,-181 511,-187 511,-193 511,-193 511,-233 511,-233 511,-239 505,-245 499,-245 499,-245 415,-245 415,-245 409,-245 403,-239 403,-233 403,-233 403,-193 403,-193 403,-187 409,-181 415,-181"/>
<text text-anchor="start" x="442.5" y="-166.8" font-family="Arial" font-weight="bold" font-size="14.00">time</text>
</g>
<!-- 2&#45;&gt;6 -->
<g id="edge4" class="edge">
<title>2&#45;&gt;6</title>
<path fill="none" stroke="#888888" d="M457,-307.67C457,-299.39 457,-290.83 457,-282.38"/>
<polygon fill="#888888" stroke="#888888" points="460.5,-282.18 457,-272.18 453.5,-282.18 460.5,-282.18"/>
</g>
<!-- 10 -->
<g id="node10" class="node">
<title>10</title>
<text text-anchor="start" x="741" y="-253.8" font-family="Arial" font-weight="bold" font-size="14.00"> &lt; 10.09</text>
<text text-anchor="start" x="702" y="-209.3" font-family="Arial" font-size="14.00"> &#160;</text>
<path fill="#ebebeb" stroke="transparent" d="M724,-181C724,-181 808,-181 808,-181 814,-181 820,-187 820,-193 820,-193 820,-233 820,-233 820,-239 814,-245 808,-245 808,-245 724,-245 724,-245 718,-245 712,-239 712,-233 712,-233 712,-193 712,-193 712,-187 718,-181 724,-181"/>
<text text-anchor="start" x="713" y="-242.4" font-family="Arial" font-size="2.00"> </text>
<text text-anchor="start" x="713" y="-236.4" font-family="Arial" font-size="7.00"> &#160;10</text>
<text text-anchor="start" x="727" y="-219.8" font-family="Arial" font-weight="bold" font-size="14.00">Mean: 9.864</text>
<text text-anchor="start" x="746" y="-202.8" font-family="Arial" font-weight="bold" font-size="14.00">n = 38</text>
<text text-anchor="start" x="764.5" y="-184.8" font-family="Arial" font-size="9.00"> </text>
<path fill="none" stroke="#333333" d="M724,-181C724,-181 808,-181 808,-181 814,-181 820,-187 820,-193 820,-193 820,-233 820,-233 820,-239 814,-245 808,-245 808,-245 724,-245 724,-245 718,-245 712,-239 712,-233 712,-233 712,-193 712,-193 712,-187 718,-181 724,-181"/>
<text text-anchor="start" x="822" y="-209.3" font-family="Arial" font-size="14.00"> &#160;</text>
<text text-anchor="start" x="716" y="-166.8" font-family="Arial" font-weight="bold" font-size="14.00">prev_1h_inflow</text>
</g>
<!-- 9&#45;&gt;10 -->
<g id="edge9" class="edge">
<title>9&#45;&gt;10</title>
<path fill="none" stroke="#888888" d="M766,-307.67C766,-299.39 766,-290.83 766,-282.38"/>
<polygon fill="#888888" stroke="#888888" points="769.5,-282.18 766,-272.18 762.5,-282.18 769.5,-282.18"/>
</g>
<!-- 13 -->
<g id="node11" class="node">
<title>13</title>
<text text-anchor="start" x="980.5" y="-253.8" font-family="Arial" font-weight="bold" font-size="14.00"> ≥ 10.09</text>
<text text-anchor="start" x="941" y="-209.3" font-family="Arial" font-size="14.00"> &#160;</text>
<path fill="#ebebeb" stroke="transparent" d="M963,-181C963,-181 1047,-181 1047,-181 1053,-181 1059,-187 1059,-193 1059,-193 1059,-233 1059,-233 1059,-239 1053,-245 1047,-245 1047,-245 963,-245 963,-245 957,-245 951,-239 951,-233 951,-233 951,-193 951,-193 951,-187 957,-181 963,-181"/>
<text text-anchor="start" x="952" y="-242.4" font-family="Arial" font-size="2.00"> </text>
<text text-anchor="start" x="952" y="-236.4" font-family="Arial" font-size="7.00"> &#160;13</text>
<text text-anchor="start" x="966" y="-219.8" font-family="Arial" font-weight="bold" font-size="14.00">Mean: 10.42</text>
<text text-anchor="start" x="985" y="-202.8" font-family="Arial" font-weight="bold" font-size="14.00">n = 60</text>
<text text-anchor="start" x="1003.5" y="-184.8" font-family="Arial" font-size="9.00"> </text>
<path fill="none" stroke="#333333" d="M963,-181C963,-181 1047,-181 1047,-181 1053,-181 1059,-187 1059,-193 1059,-193 1059,-233 1059,-233 1059,-239 1053,-245 1047,-245 1047,-245 963,-245 963,-245 957,-245 951,-239 951,-233 951,-233 951,-193 951,-193 951,-187 957,-181 963,-181"/>
<text text-anchor="start" x="1061" y="-209.3" font-family="Arial" font-size="14.00"> &#160;</text>
<text text-anchor="start" x="955" y="-166.8" font-family="Arial" font-weight="bold" font-size="14.00">prev_1h_inflow</text>
</g>
<!-- 9&#45;&gt;13 -->
<g id="edge10" class="edge">
<title>9&#45;&gt;13</title>
<path fill="none" stroke="#888888" d="M844.26,-316.23C869.21,-300.36 896.89,-282.75 922.16,-266.68"/>
<polygon fill="#888888" stroke="#888888" points="924.07,-269.62 930.63,-261.3 920.31,-263.71 924.07,-269.62"/>
</g>
<!-- 4 -->
<g id="node6" class="node">
<title>4</title>
<text text-anchor="start" x="44" y="-99.8" font-family="Arial" font-weight="bold" font-size="14.00"> &lt; 9.055</text>
<path fill="#f8766d" fill-opacity="0.874510" stroke="transparent" d="M24,-27C24,-27 114,-27 114,-27 120,-27 126,-33 126,-39 126,-39 126,-79 126,-79 126,-85 120,-91 114,-91 114,-91 24,-91 24,-91 18,-91 12,-85 12,-79 12,-79 12,-39 12,-39 12,-33 18,-27 24,-27"/>
<text text-anchor="start" x="13" y="-88.4" font-family="Arial" font-size="2.00"> </text>
<text text-anchor="start" x="13" y="-82.4" font-family="Arial" font-size="7.00"> &#160;4</text>
<text text-anchor="start" x="27" y="-65.8" font-family="Arial" font-weight="bold" font-size="14.00">Predict 8.588</text>
<text text-anchor="start" x="49" y="-48.8" font-family="Arial" font-weight="bold" font-size="14.00">n = 36</text>
<text text-anchor="start" x="67.5" y="-30.8" font-family="Arial" font-size="9.00"> </text>
<path fill="none" stroke="#333333" d="M24,-27C24,-27 114,-27 114,-27 120,-27 126,-33 126,-39 126,-39 126,-79 126,-79 126,-85 120,-91 114,-91 114,-91 24,-91 24,-91 18,-91 12,-85 12,-79 12,-79 12,-39 12,-39 12,-33 18,-27 24,-27"/>
<text text-anchor="start" x="67" y="-12.8" font-family="Arial" font-weight="bold" font-size="14.00"> </text>
</g>
<!-- 3&#45;&gt;4 -->
<g id="edge5" class="edge">
<title>3&#45;&gt;4</title>
<path fill="none" stroke="#888888" d="M165.13,-153.67C155.62,-144.39 145.72,-134.75 136.05,-125.33"/>
<polygon fill="#888888" stroke="#888888" points="138.31,-122.65 128.71,-118.18 133.43,-127.66 138.31,-122.65"/>
</g>
<!-- 5 -->
<g id="node7" class="node">
<title>5</title>
<text text-anchor="start" x="200.5" y="-99.8" font-family="Arial" font-weight="bold" font-size="14.00"> ≥ 9.055</text>
<path fill="#f8766d" fill-opacity="0.666667" stroke="transparent" d="M180,-27C180,-27 270,-27 270,-27 276,-27 282,-33 282,-39 282,-39 282,-79 282,-79 282,-85 276,-91 270,-91 270,-91 180,-91 180,-91 174,-91 168,-85 168,-79 168,-79 168,-39 168,-39 168,-33 174,-27 180,-27"/>
<text text-anchor="start" x="169" y="-88.4" font-family="Arial" font-size="2.00"> </text>
<text text-anchor="start" x="169" y="-82.4" font-family="Arial" font-size="7.00"> &#160;5</text>
<text text-anchor="start" x="183" y="-65.8" font-family="Arial" font-weight="bold" font-size="14.00">Predict 9.786</text>
<text text-anchor="start" x="209" y="-48.8" font-family="Arial" font-weight="bold" font-size="14.00">n = 8</text>
<text text-anchor="start" x="223.5" y="-30.8" font-family="Arial" font-size="9.00"> </text>
<path fill="none" stroke="#333333" d="M180,-27C180,-27 270,-27 270,-27 276,-27 282,-33 282,-39 282,-39 282,-79 282,-79 282,-85 276,-91 270,-91 270,-91 180,-91 180,-91 174,-91 168,-85 168,-79 168,-79 168,-39 168,-39 168,-33 174,-27 180,-27"/>
<text text-anchor="start" x="223" y="-12.8" font-family="Arial" font-weight="bold" font-size="14.00"> </text>
</g>
<!-- 3&#45;&gt;5 -->
<g id="edge6" class="edge">
<title>3&#45;&gt;5</title>
<path fill="none" stroke="#888888" d="M225,-153.67C225,-145.39 225,-136.83 225,-128.38"/>
<polygon fill="#888888" stroke="#888888" points="228.5,-128.18 225,-118.18 221.5,-128.18 228.5,-128.18"/>
</g>
<!-- 7 -->
<g id="node8" class="node">
<title>7</title>
<text text-anchor="start" x="363.5" y="-99.8" font-family="Arial" font-weight="bold" font-size="14.00"> &lt; 3.5</text>
<path fill="#f8766d" fill-opacity="0.827451" stroke="transparent" d="M336,-27C336,-27 426,-27 426,-27 432,-27 438,-33 438,-39 438,-39 438,-79 438,-79 438,-85 432,-91 426,-91 426,-91 336,-91 336,-91 330,-91 324,-85 324,-79 324,-79 324,-39 324,-39 324,-33 330,-27 336,-27"/>
<text text-anchor="start" x="325" y="-88.4" font-family="Arial" font-size="2.00"> </text>
<text text-anchor="start" x="325" y="-82.4" font-family="Arial" font-size="7.00"> &#160;7</text>
<text text-anchor="start" x="339" y="-65.8" font-family="Arial" font-weight="bold" font-size="14.00">Predict 8.861</text>
<text text-anchor="start" x="365" y="-48.8" font-family="Arial" font-weight="bold" font-size="14.00">n = 7</text>
<text text-anchor="start" x="379.5" y="-30.8" font-family="Arial" font-size="9.00"> </text>
<path fill="none" stroke="#333333" d="M336,-27C336,-27 426,-27 426,-27 432,-27 438,-33 438,-39 438,-39 438,-79 438,-79 438,-85 432,-91 426,-91 426,-91 336,-91 336,-91 330,-91 324,-85 324,-79 324,-79 324,-39 324,-39 324,-33 330,-27 336,-27"/>
<text text-anchor="start" x="379" y="-12.8" font-family="Arial" font-weight="bold" font-size="14.00"> </text>
</g>
<!-- 6&#45;&gt;7 -->
<g id="edge7" class="edge">
<title>6&#45;&gt;7</title>
<path fill="none" stroke="#888888" d="M427.83,-153.67C423.52,-145.03 419.04,-136.07 414.64,-127.27"/>
<polygon fill="#888888" stroke="#888888" points="417.69,-125.56 410.09,-118.18 411.43,-128.69 417.69,-125.56"/>
</g>
<!-- 8 -->
<g id="node9" class="node">
<title>8</title>
<text text-anchor="start" x="520.5" y="-99.8" font-family="Arial" font-weight="bold" font-size="14.00"> ≥ 3.5</text>
<path fill="#f8766d" fill-opacity="0.450980" stroke="transparent" d="M493,-27C493,-27 582,-27 582,-27 588,-27 594,-33 594,-39 594,-39 594,-79 594,-79 594,-85 588,-91 582,-91 582,-91 493,-91 493,-91 487,-91 481,-85 481,-79 481,-79 481,-39 481,-39 481,-33 487,-27 493,-27"/>
<text text-anchor="start" x="482" y="-88.4" font-family="Arial" font-size="2.00"> </text>
<text text-anchor="start" x="482" y="-82.4" font-family="Arial" font-size="7.00"> &#160;8</text>
<text text-anchor="start" x="496" y="-65.8" font-family="Arial" font-weight="bold" font-size="14.00">Predict 11.02</text>
<text text-anchor="start" x="517.5" y="-48.8" font-family="Arial" font-weight="bold" font-size="14.00">n = 19</text>
<text text-anchor="start" x="536" y="-30.8" font-family="Arial" font-size="9.00"> </text>
<path fill="none" stroke="#333333" d="M493,-27C493,-27 582,-27 582,-27 588,-27 594,-33 594,-39 594,-39 594,-79 594,-79 594,-85 588,-91 582,-91 582,-91 493,-91 493,-91 487,-91 481,-85 481,-79 481,-79 481,-39 481,-39 481,-33 487,-27 493,-27"/>
<text text-anchor="start" x="535.5" y="-12.8" font-family="Arial" font-weight="bold" font-size="14.00"> </text>
</g>
<!-- 6&#45;&gt;8 -->
<g id="edge8" class="edge">
<title>6&#45;&gt;8</title>
<path fill="none" stroke="#888888" d="M487.7,-153.67C492.25,-145.03 496.96,-136.07 501.59,-127.27"/>
<polygon fill="#888888" stroke="#888888" points="504.82,-128.66 506.38,-118.18 498.63,-125.4 504.82,-128.66"/>
</g>
<!-- 11 -->
<g id="node12" class="node">
<title>11</title>
<text text-anchor="start" x="668" y="-99.8" font-family="Arial" font-weight="bold" font-size="14.00"> &lt; 10.73</text>
<path fill="#f8766d" fill-opacity="0.682353" stroke="transparent" d="M648,-27C648,-27 738,-27 738,-27 744,-27 750,-33 750,-39 750,-39 750,-79 750,-79 750,-85 744,-91 738,-91 738,-91 648,-91 648,-91 642,-91 636,-85 636,-79 636,-79 636,-39 636,-39 636,-33 642,-27 648,-27"/>
<text text-anchor="start" x="637" y="-88.4" font-family="Arial" font-size="2.00"> </text>
<text text-anchor="start" x="637" y="-82.4" font-family="Arial" font-size="7.00"> &#160;11</text>
<text text-anchor="start" x="651" y="-65.8" font-family="Arial" font-weight="bold" font-size="14.00">Predict 9.696</text>
<text text-anchor="start" x="673" y="-48.8" font-family="Arial" font-weight="bold" font-size="14.00">n = 32</text>
<text text-anchor="start" x="691.5" y="-30.8" font-family="Arial" font-size="9.00"> </text>
<path fill="none" stroke="#333333" d="M648,-27C648,-27 738,-27 738,-27 744,-27 750,-33 750,-39 750,-39 750,-79 750,-79 750,-85 744,-91 738,-91 738,-91 648,-91 648,-91 642,-91 636,-85 636,-79 636,-79 636,-39 636,-39 636,-33 642,-27 648,-27"/>
<text text-anchor="start" x="691" y="-12.8" font-family="Arial" font-weight="bold" font-size="14.00"> </text>
</g>
<!-- 10&#45;&gt;11 -->
<g id="edge11" class="edge">
<title>10&#45;&gt;11</title>
<path fill="none" stroke="#888888" d="M737.99,-153.67C733.84,-145.03 729.53,-136.07 725.31,-127.27"/>
<polygon fill="#888888" stroke="#888888" points="728.42,-125.68 720.94,-118.18 722.11,-128.71 728.42,-125.68"/>
</g>
<!-- 12 -->
<g id="node13" class="node">
<title>12</title>
<text text-anchor="start" x="824.5" y="-99.8" font-family="Arial" font-weight="bold" font-size="14.00"> ≥ 10.73</text>
<path fill="#f8766d" fill-opacity="0.498039" stroke="transparent" d="M804,-27C804,-27 894,-27 894,-27 900,-27 906,-33 906,-39 906,-39 906,-79 906,-79 906,-85 900,-91 894,-91 894,-91 804,-91 804,-91 798,-91 792,-85 792,-79 792,-79 792,-39 792,-39 792,-33 798,-27 804,-27"/>
<text text-anchor="start" x="793" y="-88.4" font-family="Arial" font-size="2.00"> </text>
<text text-anchor="start" x="793" y="-82.4" font-family="Arial" font-size="7.00"> &#160;12</text>
<text text-anchor="start" x="807" y="-65.8" font-family="Arial" font-weight="bold" font-size="14.00">Predict 10.76</text>
<text text-anchor="start" x="833" y="-48.8" font-family="Arial" font-weight="bold" font-size="14.00">n = 6</text>
<text text-anchor="start" x="847.5" y="-30.8" font-family="Arial" font-size="9.00"> </text>
<path fill="none" stroke="#333333" d="M804,-27C804,-27 894,-27 894,-27 900,-27 906,-33 906,-39 906,-39 906,-79 906,-79 906,-85 900,-91 894,-91 894,-91 804,-91 804,-91 798,-91 792,-85 792,-79 792,-79 792,-39 792,-39 792,-33 798,-27 804,-27"/>
<text text-anchor="start" x="847" y="-12.8" font-family="Arial" font-weight="bold" font-size="14.00"> </text>
</g>
<!-- 10&#45;&gt;12 -->
<g id="edge12" class="edge">
<title>10&#45;&gt;12</title>
<path fill="none" stroke="#888888" d="M797.85,-153.67C802.62,-144.94 807.56,-135.88 812.42,-126.99"/>
<polygon fill="#888888" stroke="#888888" points="815.51,-128.63 817.23,-118.18 809.37,-125.28 815.51,-128.63"/>
</g>
<!-- 14 -->
<g id="node14" class="node">
<title>14</title>
<text text-anchor="start" x="980.5" y="-99.8" font-family="Arial" font-weight="bold" font-size="14.00"> &lt; 11.16</text>
<path fill="#f8766d" fill-opacity="0.568627" stroke="transparent" d="M960,-27C960,-27 1050,-27 1050,-27 1056,-27 1062,-33 1062,-39 1062,-39 1062,-79 1062,-79 1062,-85 1056,-91 1050,-91 1050,-91 960,-91 960,-91 954,-91 948,-85 948,-79 948,-79 948,-39 948,-39 948,-33 954,-27 960,-27"/>
<text text-anchor="start" x="949" y="-88.4" font-family="Arial" font-size="2.00"> </text>
<text text-anchor="start" x="949" y="-82.4" font-family="Arial" font-size="7.00"> &#160;14</text>
<text text-anchor="start" x="963" y="-65.8" font-family="Arial" font-weight="bold" font-size="14.00">Predict 10.34</text>
<text text-anchor="start" x="985" y="-48.8" font-family="Arial" font-weight="bold" font-size="14.00">n = 56</text>
<text text-anchor="start" x="1003.5" y="-30.8" font-family="Arial" font-size="9.00"> </text>
<path fill="none" stroke="#333333" d="M960,-27C960,-27 1050,-27 1050,-27 1056,-27 1062,-33 1062,-39 1062,-39 1062,-79 1062,-79 1062,-85 1056,-91 1050,-91 1050,-91 960,-91 960,-91 954,-91 948,-85 948,-79 948,-79 948,-39 948,-39 948,-33 954,-27 960,-27"/>
<text text-anchor="start" x="1003" y="-12.8" font-family="Arial" font-weight="bold" font-size="14.00"> </text>
</g>
<!-- 13&#45;&gt;14 -->
<g id="edge13" class="edge">
<title>13&#45;&gt;14</title>
<path fill="none" stroke="#888888" d="M1005,-153.67C1005,-145.39 1005,-136.83 1005,-128.38"/>
<polygon fill="#888888" stroke="#888888" points="1008.5,-128.18 1005,-118.18 1001.5,-128.18 1008.5,-128.18"/>
</g>
<!-- 15 -->
<g id="node15" class="node">
<title>15</title>
<text text-anchor="start" x="1137" y="-99.8" font-family="Arial" font-weight="bold" font-size="14.00"> ≥ 11.16</text>
<path fill="#f8766d" fill-opacity="0.376471" stroke="transparent" d="M1117,-27C1117,-27 1206,-27 1206,-27 1212,-27 1218,-33 1218,-39 1218,-39 1218,-79 1218,-79 1218,-85 1212,-91 1206,-91 1206,-91 1117,-91 1117,-91 1111,-91 1105,-85 1105,-79 1105,-79 1105,-39 1105,-39 1105,-33 1111,-27 1117,-27"/>
<text text-anchor="start" x="1106" y="-88.4" font-family="Arial" font-size="2.00"> </text>
<text text-anchor="start" x="1106" y="-82.4" font-family="Arial" font-size="7.00"> &#160;15</text>
<text text-anchor="start" x="1120" y="-65.8" font-family="Arial" font-weight="bold" font-size="14.00">Predict 11.47</text>
<text text-anchor="start" x="1145.5" y="-48.8" font-family="Arial" font-weight="bold" font-size="14.00">n = 4</text>
<text text-anchor="start" x="1160" y="-30.8" font-family="Arial" font-size="9.00"> </text>
<path fill="none" stroke="#333333" d="M1117,-27C1117,-27 1206,-27 1206,-27 1212,-27 1218,-33 1218,-39 1218,-39 1218,-79 1218,-79 1218,-85 1212,-91 1206,-91 1206,-91 1117,-91 1117,-91 1111,-91 1105,-85 1105,-79 1105,-79 1105,-39 1105,-39 1105,-33 1111,-27 1117,-27"/>
<text text-anchor="start" x="1159.5" y="-12.8" font-family="Arial" font-weight="bold" font-size="14.00"> </text>
</g>
<!-- 13&#45;&gt;15 -->
<g id="edge14" class="edge">
<title>13&#45;&gt;15</title>
<path fill="none" stroke="#888888" d="M1064.87,-153.67C1074.38,-144.39 1084.28,-134.75 1093.95,-125.33"/>
<polygon fill="#888888" stroke="#888888" points="1096.57,-127.66 1101.29,-118.18 1091.69,-122.65 1096.57,-127.66"/>
</g>
</g>
</svg>
