<?xml version="1.0" encoding="UTF-8" standalone="no"?>
<!DOCTYPE svg PUBLIC "-//W3C//DTD SVG 1.1//EN"
 "http://www.w3.org/Graphics/SVG/1.1/DTD/svg11.dtd">
<!-- Generated by graphviz version 2.50.0 (20211204.2007)
 -->
<!-- Pages: 1 -->
<svg width="1851pt" height="742pt"
 viewBox="0.00 0.00 1851.00 742.00" xmlns="http://www.w3.org/2000/svg" xmlns:xlink="http://www.w3.org/1999/xlink">
<g id="graph0" class="graph" transform="scale(1 1) rotate(0) translate(4 738)">
<polygon fill="white" stroke="transparent" points="-4,4 -4,-738 1847,-738 1847,4 -4,4"/>
<!-- 1 -->
<g id="node1" class="node">
<title>1</title>
<text text-anchor="start" x="762" y="-715.8" font-family="Arial" font-weight="bold" font-size="14.00"> </text>
<text text-anchor="start" x="692" y="-671.3" font-family="Arial" font-size="14.00"> &#160;&#160;&#160;</text>
<path fill="#ebebeb" stroke="transparent" d="M722,-643C722,-643 806,-643 806,-643 812,-643 818,-649 818,-655 818,-655 818,-695 818,-695 818,-701 812,-707 806,-707 806,-707 722,-707 722,-707 716,-707 710,-701 710,-695 710,-695 710,-655 710,-655 710,-649 716,-643 722,-643"/>
<text text-anchor="start" x="711" y="-704.4" font-family="Arial" font-size="2.00"> </text>
<text text-anchor="start" x="711" y="-698.4" font-family="Arial" font-size="7.00"> &#160;1</text>
<text text-anchor="start" x="725" y="-681.8" font-family="Arial" font-weight="bold" font-size="14.00">Mean: 83.26</text>
<text text-anchor="start" x="740.5" y="-664.8" font-family="Arial" font-weight="bold" font-size="14.00">n = 168</text>
<text text-anchor="start" x="762.5" y="-646.8" font-family="Arial" font-size="9.00"> </text>
<path fill="none" stroke="#333333" d="M722,-643C722,-643 806,-643 806,-643 812,-643 818,-649 818,-655 818,-655 818,-695 818,-695 818,-701 812,-707 806,-707 806,-707 722,-707 722,-707 716,-707 710,-701 710,-695 710,-695 710,-655 710,-655 710,-649 716,-643 722,-643"/>
<text text-anchor="start" x="820" y="-671.3" font-family="Arial" font-size="14.00"> &#160;&#160;&#160;</text>
<text text-anchor="start" x="706.5" y="-628.8" font-family="Arial" font-weight="bold" font-size="14.00">prev_168h_inflow</text>
</g>
<!-- 2 -->
<g id="node2" class="node">
<title>2</title>
<text text-anchor="start" x="432.5" y="-561.8" font-family="Arial" font-weight="bold" font-size="14.00"> &lt; 73.2</text>
<text text-anchor="start" x="382" y="-517.3" font-family="Arial" font-size="14.00"> &#160;&#160;&#160;</text>
<path fill="#ebebeb" stroke="transparent" d="M412,-489C412,-489 496,-489 496,-489 502,-489 508,-495 508,-501 508,-501 508,-541 508,-541 508,-547 502,-553 496,-553 496,-553 412,-553 412,-553 406,-553 400,-547 400,-541 400,-541 400,-501 400,-501 400,-495 406,-489 412,-489"/>
<text text-anchor="start" x="401" y="-550.4" font-family="Arial" font-size="2.00"> </text>
<text text-anchor="start" x="401" y="-544.4" font-family="Arial" font-size="7.00"> &#160;2</text>
<text text-anchor="start" x="415" y="-527.8" font-family="Arial" font-weight="bold" font-size="14.00">Mean: 64.57</text>
<text text-anchor="start" x="434" y="-510.8" font-family="Arial" font-weight="bold" font-size="14.00">n = 50</text>
<text text-anchor="start" x="452.5" y="-492.8" font-family="Arial" font-size="9.00"> </text>
<path fill="none" stroke="#333333" d="M412,-489C412,-489 496,-489 496,-489 502,-489 508,-495 508,-501 508,-501 508,-541 508,-541 508,-547 502,-553 496,-553 496,-553 412,-553 412,-553 406,-553 400,-547 400,-541 400,-541 400,-501 400,-501 400,-495 406,-489 412,-489"/>
<text text-anchor="start" x="510" y="-517.3" font-family="Arial" font-size="14.00"> &#160;&#160;&#160;</text>
<text text-anchor="start" x="396.5" y="-474.8" font-family="Arial" font-weight="bold" font-size="14.00">prev_168h_inflow</text>
</g>
<!-- 1&#45;&gt;2 -->
<g id="edge1" class="edge">
<title>1&#45;&gt;2</title>
<path fill="none" stroke="#888888" d="M681.74,-633.67C639.71,-613.06 588.44,-587.92 545.21,-566.72"/>
<polygon fill="#888888" stroke="#888888" points="546.63,-563.52 536.11,-562.26 543.54,-569.8 546.63,-563.52"/>
</g>
<!-- 11 -->
<g id="node3" class="node">
<title>11</title>
<text text-anchor="start" x="895" y="-561.8" font-family="Arial" font-weight="bold" font-size="14.00"> ≥ 73.2</text>
<path fill="#ebebeb" stroke="transparent" d="M874,-489C874,-489 958,-489 958,-489 964,-489 970,-495 970,-501 970,-501 970,-541 970,-541 970,-547 964,-553 958,-553 958,-553 874,-553 874,-553 868,-553 862,-547 862,-541 862,-541 862,-501 862,-501 862,-495 868,-489 874,-489"/>
<text text-anchor="start" x="863" y="-550.4" font-family="Arial" font-size="2.00"> </text>
<text text-anchor="start" x="863" y="-544.4" font-family="Arial" font-size="7.00"> &#160;11</text>
<text text-anchor="start" x="877" y="-527.8" font-family="Arial" font-weight="bold" font-size="14.00">Mean: 91.18</text>
<text text-anchor="start" x="893" y="-510.8" font-family="Arial" font-weight="bold" font-size="14.00">n = 118</text>
<text text-anchor="start" x="914.5" y="-492.8" font-family="Arial" font-size="9.00"> </text>
<path fill="none" stroke="#333333" d="M874,-489C874,-489 958,-489 958,-489 964,-489 970,-495 970,-501 970,-501 970,-541 970,-541 970,-547 964,-553 958,-553 958,-553 874,-553 874,-553 868,-553 862,-547 862,-541 862,-541 862,-501 862,-501 862,-495 868,-489 874,-489"/>
<text text-anchor="start" x="901.5" y="-474.8" font-family="Arial" font-weight="bold" font-size="14.00">time</text>
</g>
<!-- 1&#45;&gt;11 -->
<g id="edge2" class="edge">
<title>1&#45;&gt;11</title>
<path fill="none" stroke="#888888" d="M822.33,-615.67C831.61,-606.39 841.25,-596.75 850.67,-587.33"/>
<polygon fill="#888888" stroke="#888888" points="853.23,-589.72 857.82,-580.18 848.28,-584.77 853.23,-589.72"/>
</g>
<!-- 3 -->
<g id="node4" class="node">
<title>3</title>
<text text-anchor="start" x="192" y="-407.8" font-family="Arial" font-weight="bold" font-size="14.00"> &lt; 64.65</text>
<text text-anchor="start" x="145" y="-363.3" font-family="Arial" font-size="14.00"> &#160;&#160;&#160;</text>
<path fill="#ebebeb" stroke="transparent" d="M175,-335C175,-335 259,-335 259,-335 265,-335 271,-341 271,-347 271,-347 271,-387 271,-387 271,-393 265,-399 259,-399 259,-399 175,-399 175,-399 169,-399 163,-393 163,-387 163,-387 163,-347 163,-347 163,-341 169,-335 175,-335"/>
<text text-anchor="start" x="164" y="-396.4" font-family="Arial" font-size="2.00"> </text>
<text text-anchor="start" x="164" y="-390.4" font-family="Arial" font-size="7.00"> &#160;3</text>
<text text-anchor="start" x="178" y="-373.8" font-family="Arial" font-weight="bold" font-size="14.00">Mean: 61.52</text>
<text text-anchor="start" x="197" y="-356.8" font-family="Arial" font-weight="bold" font-size="14.00">n = 36</text>
<text text-anchor="start" x="215.5" y="-338.8" font-family="Arial" font-size="9.00"> </text>
<path fill="none" stroke="#333333" d="M175,-335C175,-335 259,-335 259,-335 265,-335 271,-341 271,-347 271,-347 271,-387 271,-387 271,-393 265,-399 259,-399 259,-399 175,-399 175,-399 169,-399 163,-393 163,-387 163,-387 163,-347 163,-347 163,-341 169,-335 175,-335"/>
<text text-anchor="start" x="273" y="-363.3" font-family="Arial" font-size="14.00"> &#160;&#160;&#160;</text>
<text text-anchor="start" x="159.5" y="-320.8" font-family="Arial" font-weight="bold" font-size="14.00">prev_168h_inflow</text>
</g>
<!-- 2&#45;&gt;3 -->
<g id="edge3" class="edge">
<title>2&#45;&gt;3</title>
<path fill="none" stroke="#888888" d="M371.77,-467.26C351.09,-454 328.78,-439.69 307.71,-426.18"/>
<polygon fill="#888888" stroke="#888888" points="309.39,-423.09 299.08,-420.64 305.61,-428.99 309.39,-423.09"/>
</g>
<!-- 6 -->
<g id="node5" class="node">
<title>6</title>
<text text-anchor="start" x="429.5" y="-407.8" font-family="Arial" font-weight="bold" font-size="14.00"> ≥ 64.65</text>
<path fill="#ebebeb" stroke="transparent" d="M412,-335C412,-335 496,-335 496,-335 502,-335 508,-341 508,-347 508,-347 508,-387 508,-387 508,-393 502,-399 496,-399 496,-399 412,-399 412,-399 406,-399 400,-393 400,-387 400,-387 400,-347 400,-347 400,-341 406,-335 412,-335"/>
<text text-anchor="start" x="401" y="-396.4" font-family="Arial" font-size="2.00"> </text>
<text text-anchor="start" x="401" y="-390.4" font-family="Arial" font-size="7.00"> &#160;6</text>
<text text-anchor="start" x="415" y="-373.8" font-family="Arial" font-weight="bold" font-size="14.00">Mean: 72.41</text>
<text text-anchor="start" x="434" y="-356.8" font-family="Arial" font-weight="bold" font-size="14.00">n = 14</text>
<text text-anchor="start" x="452.5" y="-338.8" font-family="Arial" font-size="9.00"> </text>
<path fill="none" stroke="#333333" d="M412,-335C412,-335 496,-335 496,-335 502,-335 508,-341 508,-347 508,-347 508,-387 508,-387 508,-393 502,-399 496,-399 496,-399 412,-399 412,-399 406,-399 400,-393 400,-387 400,-387 400,-347 400,-347 400,-341 406,-335 412,-335"/>
<text text-anchor="start" x="439.5" y="-320.8" font-family="Arial" font-weight="bold" font-size="14.00">time</text>
</g>
<!-- 2&#45;&gt;6 -->
<g id="edge4" class="edge">
<title>2&#45;&gt;6</title>
<path fill="none" stroke="#888888" d="M454,-461.67C454,-453.39 454,-444.83 454,-436.38"/>
<polygon fill="#888888" stroke="#888888" points="457.5,-436.18 454,-426.18 450.5,-436.18 457.5,-436.18"/>
</g>
<!-- 12 -->
<g id="node12" class="node">
<title>12</title>
<text text-anchor="start" x="894.5" y="-407.8" font-family="Arial" font-weight="bold" font-size="14.00"> &lt; 13.5</text>
<path fill="#ebebeb" stroke="transparent" d="M874,-335C874,-335 958,-335 958,-335 964,-335 970,-341 970,-347 970,-347 970,-387 970,-387 970,-393 964,-399 958,-399 958,-399 874,-399 874,-399 868,-399 862,-393 862,-387 862,-387 862,-347 862,-347 862,-341 868,-335 874,-335"/>
<text text-anchor="start" x="863" y="-396.4" font-family="Arial" font-size="2.00"> </text>
<text text-anchor="start" x="863" y="-390.4" font-family="Arial" font-size="7.00"> &#160;12</text>
<text text-anchor="start" x="877" y="-373.8" font-family="Arial" font-weight="bold" font-size="14.00">Mean: 97.31</text>
<text text-anchor="start" x="896" y="-356.8" font-family="Arial" font-weight="bold" font-size="14.00">n = 48</text>
<text text-anchor="start" x="914.5" y="-338.8" font-family="Arial" font-size="9.00"> </text>
<path fill="none" stroke="#333333" d="M874,-335C874,-335 958,-335 958,-335 964,-335 970,-341 970,-347 970,-347 970,-387 970,-387 970,-393 964,-399 958,-399 958,-399 874,-399 874,-399 868,-399 862,-393 862,-387 862,-387 862,-347 862,-347 862,-341 868,-335 874,-335"/>
<text text-anchor="start" x="873.5" y="-320.8" font-family="Arial" font-weight="bold" font-size="14.00">day_of_week</text>
</g>
<!-- 11&#45;&gt;12 -->
<g id="edge11" class="edge">
<title>11&#45;&gt;12</title>
<path fill="none" stroke="#888888" d="M916,-461.67C916,-453.39 916,-444.83 916,-436.38"/>
<polygon fill="#888888" stroke="#888888" points="919.5,-436.18 916,-426.18 912.5,-436.18 919.5,-436.18"/>
</g>
<!-- 19 -->
<g id="node13" class="node">
<title>19</title>
<text text-anchor="start" x="1358" y="-407.8" font-family="Arial" font-weight="bold" font-size="14.00"> ≥ 13.5</text>
<text text-anchor="start" x="1307" y="-363.3" font-family="Arial" font-size="14.00"> &#160;&#160;&#160;</text>
<path fill="#ebebeb" stroke="transparent" d="M1337,-335C1337,-335 1421,-335 1421,-335 1427,-335 1433,-341 1433,-347 1433,-347 1433,-387 1433,-387 1433,-393 1427,-399 1421,-399 1421,-399 1337,-399 1337,-399 1331,-399 1325,-393 1325,-387 1325,-387 1325,-347 1325,-347 1325,-341 1331,-335 1337,-335"/>
<text text-anchor="start" x="1326" y="-396.4" font-family="Arial" font-size="2.00"> </text>
<text text-anchor="start" x="1326" y="-390.4" font-family="Arial" font-size="7.00"> &#160;19</text>
<text text-anchor="start" x="1340" y="-373.8" font-family="Arial" font-weight="bold" font-size="14.00">Mean: 86.98</text>
<text text-anchor="start" x="1359" y="-356.8" font-family="Arial" font-weight="bold" font-size="14.00">n = 70</text>
<text text-anchor="start" x="1377.5" y="-338.8" font-family="Arial" font-size="9.00"> </text>
<path fill="none" stroke="#333333" d="M1337,-335C1337,-335 1421,-335 1421,-335 1427,-335 1433,-341 1433,-347 1433,-347 1433,-387 1433,-387 1433,-393 1427,-399 1421,-399 1421,-399 1337,-399 1337,-399 1331,-399 1325,-393 1325,-387 1325,-387 1325,-347 1325,-347 1325,-341 1331,-335 1337,-335"/>
<text text-anchor="start" x="1435" y="-363.3" font-family="Arial" font-size="14.00"> &#160;&#160;&#160;</text>
<text text-anchor="start" x="1321.5" y="-320.8" font-family="Arial" font-weight="bold" font-size="14.00">prev_168h_inflow</text>
</g>
<!-- 11&#45;&gt;19 -->
<g id="edge12" class="edge">
<title>11&#45;&gt;19</title>
<path fill="none" stroke="#888888" d="M982.34,-498.22C1062.31,-471.97 1197.16,-427.7 1287.12,-398.16"/>
<polygon fill="#888888" stroke="#888888" points="1288.36,-401.44 1296.77,-395 1286.18,-394.79 1288.36,-401.44"/>
</g>
<!-- 4 -->
<g id="node6" class="node">
<title>4</title>
<text text-anchor="start" x="40" y="-253.8" font-family="Arial" font-weight="bold" font-size="14.00"> &lt; 61.38</text>
<path fill="#f8766d" fill-opacity="0.874510" stroke="transparent" d="M24,-181C24,-181 106,-181 106,-181 112,-181 118,-187 118,-193 118,-193 118,-233 118,-233 118,-239 112,-245 106,-245 106,-245 24,-245 24,-245 18,-245 12,-239 12,-233 12,-233 12,-193 12,-193 12,-187 18,-181 24,-181"/>
<text text-anchor="start" x="13" y="-242.4" font-family="Arial" font-size="2.00"> </text>
<text text-anchor="start" x="13" y="-236.4" font-family="Arial" font-size="7.00"> &#160;4</text>
<text text-anchor="start" x="27" y="-219.8" font-family="Arial" font-weight="bold" font-size="14.00">Predict 60.4</text>
<text text-anchor="start" x="45" y="-202.8" font-family="Arial" font-weight="bold" font-size="14.00">n = 21</text>
<text text-anchor="start" x="63.5" y="-184.8" font-family="Arial" font-size="9.00"> </text>
<path fill="none" stroke="#333333" d="M24,-181C24,-181 106,-181 106,-181 112,-181 118,-187 118,-193 118,-193 118,-233 118,-233 118,-239 112,-245 106,-245 106,-245 24,-245 24,-245 18,-245 12,-239 12,-233 12,-233 12,-193 12,-193 12,-187 18,-181 24,-181"/>
<text text-anchor="start" x="63" y="-166.8" font-family="Arial" font-weight="bold" font-size="14.00"> </text>
</g>
<!-- 3&#45;&gt;4 -->
<g id="edge5" class="edge">
<title>3&#45;&gt;4</title>
<path fill="none" stroke="#888888" d="M158.67,-307.67C149.39,-298.39 139.75,-288.75 130.33,-279.33"/>
<polygon fill="#888888" stroke="#888888" points="132.72,-276.77 123.18,-272.18 127.77,-281.72 132.72,-276.77"/>
</g>
<!-- 5 -->
<g id="node7" class="node">
<title>5</title>
<text text-anchor="start" x="192.5" y="-253.8" font-family="Arial" font-weight="bold" font-size="14.00"> ≥ 61.38</text>
<path fill="#f8766d" fill-opacity="0.843137" stroke="transparent" d="M172,-181C172,-181 262,-181 262,-181 268,-181 274,-187 274,-193 274,-193 274,-233 274,-233 274,-239 268,-245 262,-245 262,-245 172,-245 172,-245 166,-245 160,-239 160,-233 160,-233 160,-193 160,-193 160,-187 166,-181 172,-181"/>
<text text-anchor="start" x="161" y="-242.4" font-family="Arial" font-size="2.00"> </text>
<text text-anchor="start" x="161" y="-236.4" font-family="Arial" font-size="7.00"> &#160;5</text>
<text text-anchor="start" x="175" y="-219.8" font-family="Arial" font-weight="bold" font-size="14.00">Predict 63.09</text>
<text text-anchor="start" x="197" y="-202.8" font-family="Arial" font-weight="bold" font-size="14.00">n = 15</text>
<text text-anchor="start" x="215.5" y="-184.8" font-family="Arial" font-size="9.00"> </text>
<path fill="none" stroke="#333333" d="M172,-181C172,-181 262,-181 262,-181 268,-181 274,-187 274,-193 274,-193 274,-233 274,-233 274,-239 268,-245 262,-245 262,-245 172,-245 172,-245 166,-245 160,-239 160,-233 160,-233 160,-193 160,-193 160,-187 166,-181 172,-181"/>
<text text-anchor="start" x="215" y="-166.8" font-family="Arial" font-weight="bold" font-size="14.00"> </text>
</g>
<!-- 3&#45;&gt;5 -->
<g id="edge6" class="edge">
<title>3&#45;&gt;5</title>
<path fill="none" stroke="#888888" d="M217,-307.67C217,-299.39 217,-290.83 217,-282.38"/>
<polygon fill="#888888" stroke="#888888" points="220.5,-282.18 217,-272.18 213.5,-282.18 220.5,-282.18"/>
</g>
<!-- 7 -->
<g id="node8" class="node">
<title>7</title>
<text text-anchor="start" x="361" y="-253.8" font-family="Arial" font-weight="bold" font-size="14.00"> &lt; 3</text>
<path fill="#f8766d" fill-opacity="0.784314" stroke="transparent" d="M328,-181C328,-181 418,-181 418,-181 424,-181 430,-187 430,-193 430,-193 430,-233 430,-233 430,-239 424,-245 418,-245 418,-245 328,-245 328,-245 322,-245 316,-239 316,-233 316,-233 316,-193 316,-193 316,-187 322,-181 328,-181"/>
<text text-anchor="start" x="317" y="-242.4" font-family="Arial" font-size="2.00"> </text>
<text text-anchor="start" x="317" y="-236.4" font-family="Arial" font-size="7.00"> &#160;7</text>
<text text-anchor="start" x="331" y="-219.8" font-family="Arial" font-weight="bold" font-size="14.00">Predict 67.94</text>
<text text-anchor="start" x="357" y="-202.8" font-family="Arial" font-weight="bold" font-size="14.00">n = 7</text>
<text text-anchor="start" x="371.5" y="-184.8" font-family="Arial" font-size="9.00"> </text>
<path fill="none" stroke="#333333" d="M328,-181C328,-181 418,-181 418,-181 424,-181 430,-187 430,-193 430,-193 430,-233 430,-233 430,-239 424,-245 418,-245 418,-245 328,-245 328,-245 322,-245 316,-239 316,-233 316,-233 316,-193 316,-193 316,-187 322,-181 328,-181"/>
<text text-anchor="start" x="371" y="-166.8" font-family="Arial" font-weight="bold" font-size="14.00"> </text>
</g>
<!-- 6&#45;&gt;7 -->
<g id="edge7" class="edge">
<title>6&#45;&gt;7</title>
<path fill="none" stroke="#888888" d="M422.91,-307.67C418.31,-299.03 413.54,-290.07 408.85,-281.27"/>
<polygon fill="#888888" stroke="#888888" points="411.79,-279.36 404,-272.18 405.62,-282.65 411.79,-279.36"/>
</g>
<!-- 8 -->
<g id="node9" class="node">
<title>8</title>
<text text-anchor="start" x="514.5" y="-253.8" font-family="Arial" font-weight="bold" font-size="14.00"> ≥ 3</text>
<path fill="#ebebeb" stroke="transparent" d="M484,-181C484,-181 568,-181 568,-181 574,-181 580,-187 580,-193 580,-193 580,-233 580,-233 580,-239 574,-245 568,-245 568,-245 484,-245 484,-245 478,-245 472,-239 472,-233 472,-233 472,-193 472,-193 472,-187 478,-181 484,-181"/>
<text text-anchor="start" x="473" y="-242.4" font-family="Arial" font-size="2.00"> </text>
<text text-anchor="start" x="473" y="-236.4" font-family="Arial" font-size="7.00"> &#160;8</text>
<text text-anchor="start" x="487" y="-219.8" font-family="Arial" font-weight="bold" font-size="14.00">Mean: 76.88</text>
<text text-anchor="start" x="510" y="-202.8" font-family="Arial" font-weight="bold" font-size="14.00">n = 7</text>
<text text-anchor="start" x="524.5" y="-184.8" font-family="Arial" font-size="9.00"> </text>
<path fill="none" stroke="#333333" d="M484,-181C484,-181 568,-181 568,-181 574,-181 580,-187 580,-193 580,-193 580,-233 580,-233 580,-239 574,-245 568,-245 568,-245 484,-245 484,-245 478,-245 472,-239 472,-233 472,-233 472,-193 472,-193 472,-187 478,-181 484,-181"/>
<text text-anchor="start" x="483.5" y="-166.8" font-family="Arial" font-weight="bold" font-size="14.00">day_of_week</text>
</g>
<!-- 6&#45;&gt;8 -->
<g id="edge8" class="edge">
<title>6&#45;&gt;8</title>
<path fill="none" stroke="#888888" d="M481.63,-307.67C485.72,-299.03 489.97,-290.07 494.14,-281.27"/>
<polygon fill="#888888" stroke="#888888" points="497.32,-282.71 498.44,-272.18 491,-279.72 497.32,-282.71"/>
</g>
<!-- 9 -->
<g id="node10" class="node">
<title>9</title>
<text text-anchor="start" x="356.5" y="-99.8" font-family="Arial" font-weight="bold" font-size="14.00"> &lt; 5.5</text>
<path fill="#f8766d" fill-opacity="0.650980" stroke="transparent" d="M333,-27C333,-27 415,-27 415,-27 421,-27 427,-33 427,-39 427,-39 427,-79 427,-79 427,-85 421,-91 415,-91 415,-91 333,-91 333,-91 327,-91 321,-85 321,-79 321,-79 321,-39 321,-39 321,-33 327,-27 333,-27"/>
<text text-anchor="start" x="322" y="-88.4" font-family="Arial" font-size="2.00"> </text>
<text text-anchor="start" x="322" y="-82.4" font-family="Arial" font-size="7.00"> &#160;9</text>
<text text-anchor="start" x="336" y="-65.8" font-family="Arial" font-weight="bold" font-size="14.00">Predict 79.2</text>
<text text-anchor="start" x="358" y="-48.8" font-family="Arial" font-weight="bold" font-size="14.00">n = 5</text>
<text text-anchor="start" x="372.5" y="-30.8" font-family="Arial" font-size="9.00"> </text>
<path fill="none" stroke="#333333" d="M333,-27C333,-27 415,-27 415,-27 421,-27 427,-33 427,-39 427,-39 427,-79 427,-79 427,-85 421,-91 415,-91 415,-91 333,-91 333,-91 327,-91 321,-85 321,-79 321,-79 321,-39 321,-39 321,-33 327,-27 333,-27"/>
<text text-anchor="start" x="372" y="-12.8" font-family="Arial" font-weight="bold" font-size="14.00"> </text>
</g>
<!-- 8&#45;&gt;9 -->
<g id="edge9" class="edge">
<title>8&#45;&gt;9</title>
<path fill="none" stroke="#888888" d="M467.67,-153.67C458.39,-144.39 448.75,-134.75 439.33,-125.33"/>
<polygon fill="#888888" stroke="#888888" points="441.72,-122.77 432.18,-118.18 436.77,-127.72 441.72,-122.77"/>
</g>
<!-- 10 -->
<g id="node11" class="node">
<title>10</title>
<text text-anchor="start" x="509" y="-99.8" font-family="Arial" font-weight="bold" font-size="14.00"> ≥ 5.5</text>
<path fill="#f8766d" fill-opacity="0.749020" stroke="transparent" d="M481,-27C481,-27 571,-27 571,-27 577,-27 583,-33 583,-39 583,-39 583,-79 583,-79 583,-85 577,-91 571,-91 571,-91 481,-91 481,-91 475,-91 469,-85 469,-79 469,-79 469,-39 469,-39 469,-33 475,-27 481,-27"/>
<text text-anchor="start" x="470" y="-88.4" font-family="Arial" font-size="2.00"> </text>
<text text-anchor="start" x="470" y="-82.4" font-family="Arial" font-size="7.00"> &#160;10</text>
<text text-anchor="start" x="484" y="-65.8" font-family="Arial" font-weight="bold" font-size="14.00">Predict 71.09</text>
<text text-anchor="start" x="510" y="-48.8" font-family="Arial" font-weight="bold" font-size="14.00">n = 2</text>
<text text-anchor="start" x="524.5" y="-30.8" font-family="Arial" font-size="9.00"> </text>
<path fill="none" stroke="#333333" d="M481,-27C481,-27 571,-27 571,-27 577,-27 583,-33 583,-39 583,-39 583,-79 583,-79 583,-85 577,-91 571,-91 571,-91 481,-91 481,-91 475,-91 469,-85 469,-79 469,-79 469,-39 469,-39 469,-33 475,-27 481,-27"/>
<text text-anchor="start" x="524" y="-12.8" font-family="Arial" font-weight="bold" font-size="14.00"> </text>
</g>
<!-- 8&#45;&gt;10 -->
<g id="edge10" class="edge">
<title>8&#45;&gt;10</title>
<path fill="none" stroke="#888888" d="M526,-153.67C526,-145.39 526,-136.83 526,-128.38"/>
<polygon fill="#888888" stroke="#888888" points="529.5,-128.18 526,-118.18 522.5,-128.18 529.5,-128.18"/>
</g>
<!-- 13 -->
<g id="node14" class="node">
<title>13</title>
<text text-anchor="start" x="815.5" y="-253.8" font-family="Arial" font-weight="bold" font-size="14.00"> &lt; 5.5</text>
<path fill="#ebebeb" stroke="transparent" d="M791,-181C791,-181 875,-181 875,-181 881,-181 887,-187 887,-193 887,-193 887,-233 887,-233 887,-239 881,-245 875,-245 875,-245 791,-245 791,-245 785,-245 779,-239 779,-233 779,-233 779,-193 779,-193 779,-187 785,-181 791,-181"/>
<text text-anchor="start" x="780" y="-242.4" font-family="Arial" font-size="2.00"> </text>
<text text-anchor="start" x="780" y="-236.4" font-family="Arial" font-size="7.00"> &#160;13</text>
<text text-anchor="start" x="794" y="-219.8" font-family="Arial" font-weight="bold" font-size="14.00">Mean: 96.36</text>
<text text-anchor="start" x="813" y="-202.8" font-family="Arial" font-weight="bold" font-size="14.00">n = 35</text>
<text text-anchor="start" x="831.5" y="-184.8" font-family="Arial" font-size="9.00"> </text>
<path fill="none" stroke="#333333" d="M791,-181C791,-181 875,-181 875,-181 881,-181 887,-187 887,-193 887,-193 887,-233 887,-233 887,-239 881,-245 875,-245 875,-245 791,-245 791,-245 785,-245 779,-239 779,-233 779,-233 779,-193 779,-193 779,-187 785,-181 791,-181"/>
<text text-anchor="start" x="818.5" y="-166.8" font-family="Arial" font-weight="bold" font-size="14.00">time</text>
</g>
<!-- 12&#45;&gt;13 -->
<g id="edge13" class="edge">
<title>12&#45;&gt;13</title>
<path fill="none" stroke="#888888" d="M884.15,-307.67C879.38,-298.94 874.44,-289.88 869.58,-280.99"/>
<polygon fill="#888888" stroke="#888888" points="872.63,-279.28 864.77,-272.18 866.49,-282.63 872.63,-279.28"/>
</g>
<!-- 16 -->
<g id="node15" class="node">
<title>16</title>
<text text-anchor="start" x="982" y="-253.8" font-family="Arial" font-weight="bold" font-size="14.00"> ≥ 5.5</text>
<text text-anchor="start" x="927" y="-209.3" font-family="Arial" font-size="14.00"> &#160;&#160;&#160;</text>
<path fill="#ebebeb" stroke="transparent" d="M957,-181C957,-181 1041,-181 1041,-181 1047,-181 1053,-187 1053,-193 1053,-193 1053,-233 1053,-233 1053,-239 1047,-245 1041,-245 1041,-245 957,-245 957,-245 951,-245 945,-239 945,-233 945,-233 945,-193 945,-193 945,-187 951,-181 957,-181"/>
<text text-anchor="start" x="946" y="-242.4" font-family="Arial" font-size="2.00"> </text>
<text text-anchor="start" x="946" y="-236.4" font-family="Arial" font-size="7.00"> &#160;16</text>
<text text-anchor="start" x="960" y="-219.8" font-family="Arial" font-weight="bold" font-size="14.00">Mean: 99.88</text>
<text text-anchor="start" x="979" y="-202.8" font-family="Arial" font-weight="bold" font-size="14.00">n = 13</text>
<text text-anchor="start" x="997.5" y="-184.8" font-family="Arial" font-size="9.00"> </text>
<path fill="none" stroke="#333333" d="M957,-181C957,-181 1041,-181 1041,-181 1047,-181 1053,-187 1053,-193 1053,-193 1053,-233 1053,-233 1053,-239 1047,-245 1041,-245 1041,-245 957,-245 957,-245 951,-245 945,-239 945,-233 945,-233 945,-193 945,-193 945,-187 951,-181 957,-181"/>
<text text-anchor="start" x="1055" y="-209.3" font-family="Arial" font-size="14.00"> &#160;&#160;&#160;</text>
<text text-anchor="start" x="941.5" y="-166.8" font-family="Arial" font-weight="bold" font-size="14.00">prev_168h_inflow</text>
</g>
<!-- 12&#45;&gt;16 -->
<g id="edge14" class="edge">
<title>12&#45;&gt;16</title>
<path fill="none" stroke="#888888" d="M947.85,-307.67C952.62,-298.94 957.56,-289.88 962.42,-280.99"/>
<polygon fill="#888888" stroke="#888888" points="965.51,-282.63 967.23,-272.18 959.37,-279.28 965.51,-282.63"/>
</g>
<!-- 20 -->
<g id="node20" class="node">
<title>20</title>
<text text-anchor="start" x="1354" y="-253.8" font-family="Arial" font-weight="bold" font-size="14.00"> &lt; 83.92</text>
<text text-anchor="start" x="1307" y="-209.3" font-family="Arial" font-size="14.00"> &#160;&#160;&#160;</text>
<path fill="#ebebeb" stroke="transparent" d="M1337,-181C1337,-181 1421,-181 1421,-181 1427,-181 1433,-187 1433,-193 1433,-193 1433,-233 1433,-233 1433,-239 1427,-245 1421,-245 1421,-245 1337,-245 1337,-245 1331,-245 1325,-239 1325,-233 1325,-233 1325,-193 1325,-193 1325,-187 1331,-181 1337,-181"/>
<text text-anchor="start" x="1326" y="-242.4" font-family="Arial" font-size="2.00"> </text>
<text text-anchor="start" x="1326" y="-236.4" font-family="Arial" font-size="7.00"> &#160;20</text>
<text text-anchor="start" x="1340" y="-219.8" font-family="Arial" font-weight="bold" font-size="14.00">Mean: 80.29</text>
<text text-anchor="start" x="1359" y="-202.8" font-family="Arial" font-weight="bold" font-size="14.00">n = 22</text>
<text text-anchor="start" x="1377.5" y="-184.8" font-family="Arial" font-size="9.00"> </text>
<path fill="none" stroke="#333333" d="M1337,-181C1337,-181 1421,-181 1421,-181 1427,-181 1433,-187 1433,-193 1433,-193 1433,-233 1433,-233 1433,-239 1427,-245 1421,-245 1421,-245 1337,-245 1337,-245 1331,-245 1325,-239 1325,-233 1325,-233 1325,-193 1325,-193 1325,-187 1331,-181 1337,-181"/>
<text text-anchor="start" x="1435" y="-209.3" font-family="Arial" font-size="14.00"> &#160;&#160;&#160;</text>
<text text-anchor="start" x="1321.5" y="-166.8" font-family="Arial" font-weight="bold" font-size="14.00">prev_168h_inflow</text>
</g>
<!-- 19&#45;&gt;20 -->
<g id="edge19" class="edge">
<title>19&#45;&gt;20</title>
<path fill="none" stroke="#888888" d="M1379,-307.67C1379,-299.39 1379,-290.83 1379,-282.38"/>
<polygon fill="#888888" stroke="#888888" points="1382.5,-282.18 1379,-272.18 1375.5,-282.18 1382.5,-282.18"/>
</g>
<!-- 23 -->
<g id="node21" class="node">
<title>23</title>
<text text-anchor="start" x="1593.5" y="-253.8" font-family="Arial" font-weight="bold" font-size="14.00"> ≥ 83.92</text>
<path fill="#ebebeb" stroke="transparent" d="M1576,-181C1576,-181 1660,-181 1660,-181 1666,-181 1672,-187 1672,-193 1672,-193 1672,-233 1672,-233 1672,-239 1666,-245 1660,-245 1660,-245 1576,-245 1576,-245 1570,-245 1564,-239 1564,-233 1564,-233 1564,-193 1564,-193 1564,-187 1570,-181 1576,-181"/>
<text text-anchor="start" x="1565" y="-242.4" font-family="Arial" font-size="2.00"> </text>
<text text-anchor="start" x="1565" y="-236.4" font-family="Arial" font-size="7.00"> &#160;23</text>
<text text-anchor="start" x="1579" y="-219.8" font-family="Arial" font-weight="bold" font-size="14.00">Mean: 90.04</text>
<text text-anchor="start" x="1598" y="-202.8" font-family="Arial" font-weight="bold" font-size="14.00">n = 48</text>
<text text-anchor="start" x="1616.5" y="-184.8" font-family="Arial" font-size="9.00"> </text>
<path fill="none" stroke="#333333" d="M1576,-181C1576,-181 1660,-181 1660,-181 1666,-181 1672,-187 1672,-193 1672,-193 1672,-233 1672,-233 1672,-239 1666,-245 1660,-245 1660,-245 1576,-245 1576,-245 1570,-245 1564,-239 1564,-233 1564,-233 1564,-193 1564,-193 1564,-187 1570,-181 1576,-181"/>
<text text-anchor="start" x="1603.5" y="-166.8" font-family="Arial" font-weight="bold" font-size="14.00">time</text>
</g>
<!-- 19&#45;&gt;23 -->
<g id="edge20" class="edge">
<title>19&#45;&gt;23</title>
<path fill="none" stroke="#888888" d="M1461.25,-313.69C1487.82,-296.79 1517.12,-278.16 1543.12,-261.62"/>
<polygon fill="#888888" stroke="#888888" points="1545.24,-264.42 1551.8,-256.1 1541.49,-258.51 1545.24,-264.42"/>
</g>
<!-- 14 -->
<g id="node16" class="node">
<title>14</title>
<text text-anchor="start" x="664.5" y="-99.8" font-family="Arial" font-weight="bold" font-size="14.00"> &lt; 9.5</text>
<path fill="#f8766d" fill-opacity="0.376471" stroke="transparent" d="M637,-27C637,-27 727,-27 727,-27 733,-27 739,-33 739,-39 739,-39 739,-79 739,-79 739,-85 733,-91 727,-91 727,-91 637,-91 637,-91 631,-91 625,-85 625,-79 625,-79 625,-39 625,-39 625,-33 631,-27 637,-27"/>
<text text-anchor="start" x="626" y="-88.4" font-family="Arial" font-size="2.00"> </text>
<text text-anchor="start" x="626" y="-82.4" font-family="Arial" font-size="7.00"> &#160;14</text>
<text text-anchor="start" x="640" y="-65.8" font-family="Arial" font-weight="bold" font-size="14.00">Predict 102.3</text>
<text text-anchor="start" x="662" y="-48.8" font-family="Arial" font-weight="bold" font-size="14.00">n = 15</text>
<text text-anchor="start" x="680.5" y="-30.8" font-family="Arial" font-size="9.00"> </text>
<path fill="none" stroke="#333333" d="M637,-27C637,-27 727,-27 727,-27 733,-27 739,-33 739,-39 739,-39 739,-79 739,-79 739,-85 733,-91 727,-91 727,-91 637,-91 637,-91 631,-91 625,-85 625,-79 625,-79 625,-39 625,-39 625,-33 631,-27 637,-27"/>
<text text-anchor="start" x="680" y="-12.8" font-family="Arial" font-weight="bold" font-size="14.00"> </text>
</g>
<!-- 13&#45;&gt;14 -->
<g id="edge15" class="edge">
<title>13&#45;&gt;14</title>
<path fill="none" stroke="#888888" d="M775.05,-153.67C765.84,-144.39 756.26,-134.75 746.9,-125.33"/>
<polygon fill="#888888" stroke="#888888" points="749.32,-122.8 739.79,-118.18 744.36,-127.74 749.32,-122.8"/>
</g>
<!-- 15 -->
<g id="node17" class="node">
<title>15</title>
<text text-anchor="start" x="821" y="-99.8" font-family="Arial" font-weight="bold" font-size="14.00"> ≥ 9.5</text>
<path fill="#f8766d" fill-opacity="0.498039" stroke="transparent" d="M793,-27C793,-27 883,-27 883,-27 889,-27 895,-33 895,-39 895,-39 895,-79 895,-79 895,-85 889,-91 883,-91 883,-91 793,-91 793,-91 787,-91 781,-85 781,-79 781,-79 781,-39 781,-39 781,-33 787,-27 793,-27"/>
<text text-anchor="start" x="782" y="-88.4" font-family="Arial" font-size="2.00"> </text>
<text text-anchor="start" x="782" y="-82.4" font-family="Arial" font-size="7.00"> &#160;15</text>
<text text-anchor="start" x="796" y="-65.8" font-family="Arial" font-weight="bold" font-size="14.00">Predict 91.91</text>
<text text-anchor="start" x="818" y="-48.8" font-family="Arial" font-weight="bold" font-size="14.00">n = 20</text>
<text text-anchor="start" x="836.5" y="-30.8" font-family="Arial" font-size="9.00"> </text>
<path fill="none" stroke="#333333" d="M793,-27C793,-27 883,-27 883,-27 889,-27 895,-33 895,-39 895,-39 895,-79 895,-79 895,-85 889,-91 883,-91 883,-91 793,-91 793,-91 787,-91 781,-85 781,-79 781,-79 781,-39 781,-39 781,-33 787,-27 793,-27"/>
<text text-anchor="start" x="836" y="-12.8" font-family="Arial" font-weight="bold" font-size="14.00"> </text>
</g>
<!-- 13&#45;&gt;15 -->
<g id="edge16" class="edge">
<title>13&#45;&gt;15</title>
<path fill="none" stroke="#888888" d="M834.92,-153.67C835.19,-145.39 835.47,-136.83 835.75,-128.38"/>
<polygon fill="#888888" stroke="#888888" points="839.26,-128.29 836.09,-118.18 832.26,-128.06 839.26,-128.29"/>
</g>
<!-- 17 -->
<g id="node18" class="node">
<title>17</title>
<text text-anchor="start" x="969" y="-99.8" font-family="Arial" font-weight="bold" font-size="14.00"> &lt; 89.15</text>
<path fill="#f8766d" fill-opacity="0.564706" stroke="transparent" d="M949,-27C949,-27 1039,-27 1039,-27 1045,-27 1051,-33 1051,-39 1051,-39 1051,-79 1051,-79 1051,-85 1045,-91 1039,-91 1039,-91 949,-91 949,-91 943,-91 937,-85 937,-79 937,-79 937,-39 937,-39 937,-33 943,-27 949,-27"/>
<text text-anchor="start" x="938" y="-88.4" font-family="Arial" font-size="2.00"> </text>
<text text-anchor="start" x="938" y="-82.4" font-family="Arial" font-size="7.00"> &#160;17</text>
<text text-anchor="start" x="952" y="-65.8" font-family="Arial" font-weight="bold" font-size="14.00">Predict 86.41</text>
<text text-anchor="start" x="978" y="-48.8" font-family="Arial" font-weight="bold" font-size="14.00">n = 2</text>
<text text-anchor="start" x="992.5" y="-30.8" font-family="Arial" font-size="9.00"> </text>
<path fill="none" stroke="#333333" d="M949,-27C949,-27 1039,-27 1039,-27 1045,-27 1051,-33 1051,-39 1051,-39 1051,-79 1051,-79 1051,-85 1045,-91 1039,-91 1039,-91 949,-91 949,-91 943,-91 937,-85 937,-79 937,-79 937,-39 937,-39 937,-33 943,-27 949,-27"/>
<text text-anchor="start" x="992" y="-12.8" font-family="Arial" font-weight="bold" font-size="14.00"> </text>
</g>
<!-- 16&#45;&gt;17 -->
<g id="edge17" class="edge">
<title>16&#45;&gt;17</title>
<path fill="none" stroke="#888888" d="M997.08,-153.67C996.81,-145.39 996.53,-136.83 996.25,-128.38"/>
<polygon fill="#888888" stroke="#888888" points="999.74,-128.06 995.91,-118.18 992.74,-128.29 999.74,-128.06"/>
</g>
<!-- 18 -->
<g id="node19" class="node">
<title>18</title>
<text text-anchor="start" x="1125.5" y="-99.8" font-family="Arial" font-weight="bold" font-size="14.00"> ≥ 89.15</text>
<path fill="#f8766d" fill-opacity="0.376471" stroke="transparent" d="M1105,-27C1105,-27 1195,-27 1195,-27 1201,-27 1207,-33 1207,-39 1207,-39 1207,-79 1207,-79 1207,-85 1201,-91 1195,-91 1195,-91 1105,-91 1105,-91 1099,-91 1093,-85 1093,-79 1093,-79 1093,-39 1093,-39 1093,-33 1099,-27 1105,-27"/>
<text text-anchor="start" x="1094" y="-88.4" font-family="Arial" font-size="2.00"> </text>
<text text-anchor="start" x="1094" y="-82.4" font-family="Arial" font-size="7.00"> &#160;18</text>
<text text-anchor="start" x="1108" y="-65.8" font-family="Arial" font-weight="bold" font-size="14.00">Predict 102.3</text>
<text text-anchor="start" x="1130.5" y="-48.8" font-family="Arial" font-weight="bold" font-size="14.00">n = 11</text>
<text text-anchor="start" x="1148.5" y="-30.8" font-family="Arial" font-size="9.00"> </text>
<path fill="none" stroke="#333333" d="M1105,-27C1105,-27 1195,-27 1195,-27 1201,-27 1207,-33 1207,-39 1207,-39 1207,-79 1207,-79 1207,-85 1201,-91 1195,-91 1195,-91 1105,-91 1105,-91 1099,-91 1093,-85 1093,-79 1093,-79 1093,-39 1093,-39 1093,-33 1099,-27 1105,-27"/>
<text text-anchor="start" x="1148" y="-12.8" font-family="Arial" font-weight="bold" font-size="14.00"> </text>
</g>
<!-- 16&#45;&gt;18 -->
<g id="edge18" class="edge">
<title>16&#45;&gt;18</title>
<path fill="none" stroke="#888888" d="M1056.95,-153.67C1066.16,-144.39 1075.74,-134.75 1085.1,-125.33"/>
<polygon fill="#888888" stroke="#888888" points="1087.64,-127.74 1092.21,-118.18 1082.68,-122.8 1087.64,-127.74"/>
</g>
<!-- 21 -->
<g id="node22" class="node">
<title>21</title>
<text text-anchor="start" x="1281" y="-99.8" font-family="Arial" font-weight="bold" font-size="14.00"> &lt; 77.03</text>
<path fill="#f8766d" fill-opacity="0.694118" stroke="transparent" d="M1261,-27C1261,-27 1351,-27 1351,-27 1357,-27 1363,-33 1363,-39 1363,-39 1363,-79 1363,-79 1363,-85 1357,-91 1351,-91 1351,-91 1261,-91 1261,-91 1255,-91 1249,-85 1249,-79 1249,-79 1249,-39 1249,-39 1249,-33 1255,-27 1261,-27"/>
<text text-anchor="start" x="1250" y="-88.4" font-family="Arial" font-size="2.00"> </text>
<text text-anchor="start" x="1250" y="-82.4" font-family="Arial" font-size="7.00"> &#160;21</text>
<text text-anchor="start" x="1264" y="-65.8" font-family="Arial" font-weight="bold" font-size="14.00">Predict 75.44</text>
<text text-anchor="start" x="1290" y="-48.8" font-family="Arial" font-weight="bold" font-size="14.00">n = 8</text>
<text text-anchor="start" x="1304.5" y="-30.8" font-family="Arial" font-size="9.00"> </text>
<path fill="none" stroke="#333333" d="M1261,-27C1261,-27 1351,-27 1351,-27 1357,-27 1363,-33 1363,-39 1363,-39 1363,-79 1363,-79 1363,-85 1357,-91 1351,-91 1351,-91 1261,-91 1261,-91 1255,-91 1249,-85 1249,-79 1249,-79 1249,-39 1249,-39 1249,-33 1255,-27 1261,-27"/>
<text text-anchor="start" x="1304" y="-12.8" font-family="Arial" font-weight="bold" font-size="14.00"> </text>
</g>
<!-- 20&#45;&gt;21 -->
<g id="edge21" class="edge">
<title>20&#45;&gt;21</title>
<path fill="none" stroke="#888888" d="M1350.99,-153.67C1346.84,-145.03 1342.53,-136.07 1338.31,-127.27"/>
<polygon fill="#888888" stroke="#888888" points="1341.42,-125.68 1333.94,-118.18 1335.11,-128.71 1341.42,-125.68"/>
</g>
<!-- 22 -->
<g id="node23" class="node">
<title>22</title>
<text text-anchor="start" x="1437.5" y="-99.8" font-family="Arial" font-weight="bold" font-size="14.00"> ≥ 77.03</text>
<path fill="#f8766d" fill-opacity="0.603922" stroke="transparent" d="M1417,-27C1417,-27 1507,-27 1507,-27 1513,-27 1519,-33 1519,-39 1519,-39 1519,-79 1519,-79 1519,-85 1513,-91 1507,-91 1507,-91 1417,-91 1417,-91 1411,-91 1405,-85 1405,-79 1405,-79 1405,-39 1405,-39 1405,-33 1411,-27 1417,-27"/>
<text text-anchor="start" x="1406" y="-88.4" font-family="Arial" font-size="2.00"> </text>
<text text-anchor="start" x="1406" y="-82.4" font-family="Arial" font-size="7.00"> &#160;22</text>
<text text-anchor="start" x="1420" y="-65.8" font-family="Arial" font-weight="bold" font-size="14.00">Predict 83.07</text>
<text text-anchor="start" x="1442" y="-48.8" font-family="Arial" font-weight="bold" font-size="14.00">n = 14</text>
<text text-anchor="start" x="1460.5" y="-30.8" font-family="Arial" font-size="9.00"> </text>
<path fill="none" stroke="#333333" d="M1417,-27C1417,-27 1507,-27 1507,-27 1513,-27 1519,-33 1519,-39 1519,-39 1519,-79 1519,-79 1519,-85 1513,-91 1507,-91 1507,-91 1417,-91 1417,-91 1411,-91 1405,-85 1405,-79 1405,-79 1405,-39 1405,-39 1405,-33 1411,-27 1417,-27"/>
<text text-anchor="start" x="1460" y="-12.8" font-family="Arial" font-weight="bold" font-size="14.00"> </text>
</g>
<!-- 20&#45;&gt;22 -->
<g id="edge22" class="edge">
<title>20&#45;&gt;22</title>
<path fill="none" stroke="#888888" d="M1410.85,-153.67C1415.62,-144.94 1420.56,-135.88 1425.42,-126.99"/>
<polygon fill="#888888" stroke="#888888" points="1428.51,-128.63 1430.23,-118.18 1422.37,-125.28 1428.51,-128.63"/>
</g>
<!-- 24 -->
<g id="node24" class="node">
<title>24</title>
<text text-anchor="start" x="1596.5" y="-99.8" font-family="Arial" font-weight="bold" font-size="14.00"> &lt; 17.5</text>
<path fill="#f8766d" fill-opacity="0.556863" stroke="transparent" d="M1573,-27C1573,-27 1663,-27 1663,-27 1669,-27 1675,-33 1675,-39 1675,-39 1675,-79 1675,-79 1675,-85 1669,-91 1663,-91 1663,-91 1573,-91 1573,-91 1567,-91 1561,-85 1561,-79 1561,-79 1561,-39 1561,-39 1561,-33 1567,-27 1573,-27"/>
<text text-anchor="start" x="1562" y="-88.4" font-family="Arial" font-size="2.00"> </text>
<text text-anchor="start" x="1562" y="-82.4" font-family="Arial" font-size="7.00"> &#160;24</text>
<text text-anchor="start" x="1576" y="-65.8" font-family="Arial" font-weight="bold" font-size="14.00">Predict 87.07</text>
<text text-anchor="start" x="1598" y="-48.8" font-family="Arial" font-weight="bold" font-size="14.00">n = 22</text>
<text text-anchor="start" x="1616.5" y="-30.8" font-family="Arial" font-size="9.00"> </text>
<path fill="none" stroke="#333333" d="M1573,-27C1573,-27 1663,-27 1663,-27 1669,-27 1675,-33 1675,-39 1675,-39 1675,-79 1675,-79 1675,-85 1669,-91 1663,-91 1663,-91 1573,-91 1573,-91 1567,-91 1561,-85 1561,-79 1561,-79 1561,-39 1561,-39 1561,-33 1567,-27 1573,-27"/>
<text text-anchor="start" x="1616" y="-12.8" font-family="Arial" font-weight="bold" font-size="14.00"> </text>
</g>
<!-- 23&#45;&gt;24 -->
<g id="edge23" class="edge">
<title>23&#45;&gt;24</title>
<path fill="none" stroke="#888888" d="M1618,-153.67C1618,-145.39 1618,-136.83 1618,-128.38"/>
<polygon fill="#888888" stroke="#888888" points="1621.5,-128.18 1618,-118.18 1614.5,-128.18 1621.5,-128.18"/>
</g>
<!-- 25 -->
<g id="node25" class="node">
<title>25</title>
<text text-anchor="start" x="1753" y="-99.8" font-family="Arial" font-weight="bold" font-size="14.00"> ≥ 17.5</text>
<path fill="#f8766d" fill-opacity="0.490196" stroke="transparent" d="M1729,-27C1729,-27 1819,-27 1819,-27 1825,-27 1831,-33 1831,-39 1831,-39 1831,-79 1831,-79 1831,-85 1825,-91 1819,-91 1819,-91 1729,-91 1729,-91 1723,-91 1717,-85 1717,-79 1717,-79 1717,-39 1717,-39 1717,-33 1723,-27 1729,-27"/>
<text text-anchor="start" x="1718" y="-88.4" font-family="Arial" font-size="2.00"> </text>
<text text-anchor="start" x="1718" y="-82.4" font-family="Arial" font-size="7.00"> &#160;25</text>
<text text-anchor="start" x="1732" y="-65.8" font-family="Arial" font-weight="bold" font-size="14.00">Predict 92.56</text>
<text text-anchor="start" x="1754" y="-48.8" font-family="Arial" font-weight="bold" font-size="14.00">n = 26</text>
<text text-anchor="start" x="1772.5" y="-30.8" font-family="Arial" font-size="9.00"> </text>
<path fill="none" stroke="#333333" d="M1729,-27C1729,-27 1819,-27 1819,-27 1825,-27 1831,-33 1831,-39 1831,-39 1831,-79 1831,-79 1831,-85 1825,-91 1819,-91 1819,-91 1729,-91 1729,-91 1723,-91 1717,-85 1717,-79 1717,-79 1717,-39 1717,-39 1717,-33 1723,-27 1729,-27"/>
<text text-anchor="start" x="1772" y="-12.8" font-family="Arial" font-weight="bold" font-size="14.00"> </text>
</g>
<!-- 23&#45;&gt;25 -->
<g id="edge24" class="edge">
<title>23&#45;&gt;25</title>
<path fill="none" stroke="#888888" d="M1677.87,-153.67C1687.38,-144.39 1697.28,-134.75 1706.95,-125.33"/>
<polygon fill="#888888" stroke="#888888" points="1709.57,-127.66 1714.29,-118.18 1704.69,-122.65 1709.57,-127.66"/>
</g>
</g>
</svg>
