<?xml version="1.0" encoding="UTF-8" standalone="no"?>
<!DOCTYPE svg PUBLIC "-//W3C//DTD SVG 1.1//EN"
 "http://www.w3.org/Graphics/SVG/1.1/DTD/svg11.dtd">
<!-- Generated by graphviz version 2.50.0 (20211204.2007)
 -->
<!-- Pages: 1 -->
<svg width="2023pt" height="742pt"
 viewBox="0.00 0.00 2023.00 742.00" xmlns="http://www.w3.org/2000/svg" xmlns:xlink="http://www.w3.org/1999/xlink">
<g id="graph0" class="graph" transform="scale(1 1) rotate(0) translate(4 738)">
<polygon fill="white" stroke="transparent" points="-4,4 -4,-738 2019,-738 2019,4 -4,4"/>
<!-- 1 -->
<g id="node1" class="node">
<title>1</title>
<text text-anchor="start" x="865" y="-715.8" font-family="Arial" font-weight="bold" font-size="14.00"> </text>
<path fill="#ebebeb" stroke="transparent" d="M829,-643C829,-643 905,-643 905,-643 911,-643 917,-649 917,-655 917,-655 917,-695 917,-695 917,-701 911,-707 905,-707 905,-707 829,-707 829,-707 823,-707 817,-701 817,-695 817,-695 817,-655 817,-655 817,-649 823,-643 829,-643"/>
<text text-anchor="start" x="818" y="-704.4" font-family="Arial" font-size="2.00"> </text>
<text text-anchor="start" x="818" y="-698.4" font-family="Arial" font-size="7.00"> &#160;1</text>
<text text-anchor="start" x="832" y="-681.8" font-family="Arial" font-weight="bold" font-size="14.00">Mean: 25.2</text>
<text text-anchor="start" x="843.5" y="-664.8" font-family="Arial" font-weight="bold" font-size="14.00">n = 168</text>
<text text-anchor="start" x="865.5" y="-646.8" font-family="Arial" font-size="9.00"> </text>
<path fill="none" stroke="#333333" d="M829,-643C829,-643 905,-643 905,-643 911,-643 917,-649 917,-655 917,-655 917,-695 917,-695 917,-701 911,-707 905,-707 905,-707 829,-707 829,-707 823,-707 817,-701 817,-695 817,-695 817,-655 817,-655 817,-649 823,-643 829,-643"/>
<text text-anchor="start" x="837.5" y="-628.8" font-family="Arial" font-weight="bold" font-size="14.00">day_type</text>
</g>
<!-- 2 -->
<g id="node2" class="node">
<title>2</title>
<text text-anchor="start" x="459.5" y="-561.8" font-family="Arial" font-weight="bold" font-size="14.00"> &lt; 0.5</text>
<text text-anchor="start" x="405" y="-517.3" font-family="Arial" font-size="14.00"> &#160;&#160;&#160;</text>
<path fill="#ebebeb" stroke="transparent" d="M435,-489C435,-489 519,-489 519,-489 525,-489 531,-495 531,-501 531,-501 531,-541 531,-541 531,-547 525,-553 519,-553 519,-553 435,-553 435,-553 429,-553 423,-547 423,-541 423,-541 423,-501 423,-501 423,-495 429,-489 435,-489"/>
<text text-anchor="start" x="424" y="-550.4" font-family="Arial" font-size="2.00"> </text>
<text text-anchor="start" x="424" y="-544.4" font-family="Arial" font-size="7.00"> &#160;2</text>
<text text-anchor="start" x="438" y="-527.8" font-family="Arial" font-weight="bold" font-size="14.00">Mean: 21.75</text>
<text text-anchor="start" x="457" y="-510.8" font-family="Arial" font-weight="bold" font-size="14.00">n = 48</text>
<text text-anchor="start" x="475.5" y="-492.8" font-family="Arial" font-size="9.00"> </text>
<path fill="none" stroke="#333333" d="M435,-489C435,-489 519,-489 519,-489 525,-489 531,-495 531,-501 531,-501 531,-541 531,-541 531,-547 525,-553 519,-553 519,-553 435,-553 435,-553 429,-553 423,-547 423,-541 423,-541 423,-501 423,-501 423,-495 429,-489 435,-489"/>
<text text-anchor="start" x="533" y="-517.3" font-family="Arial" font-size="14.00"> &#160;&#160;&#160;</text>
<text text-anchor="start" x="419.5" y="-474.8" font-family="Arial" font-weight="bold" font-size="14.00">prev_168h_inflow</text>
</g>
<!-- 1&#45;&gt;2 -->
<g id="edge1" class="edge">
<title>1&#45;&gt;2</title>
<path fill="none" stroke="#888888" d="M804.77,-649.75C741.07,-624.92 641.38,-586.06 568.65,-557.72"/>
<polygon fill="#888888" stroke="#888888" points="569.61,-554.34 559.02,-553.97 567.07,-560.86 569.61,-554.34"/>
</g>
<!-- 13 -->
<g id="node3" class="node">
<title>13</title>
<text text-anchor="start" x="1079" y="-561.8" font-family="Arial" font-weight="bold" font-size="14.00"> ≥ 0.5</text>
<text text-anchor="start" x="1024" y="-517.3" font-family="Arial" font-size="14.00"> &#160;&#160;&#160;</text>
<path fill="#ebebeb" stroke="transparent" d="M1054,-489C1054,-489 1138,-489 1138,-489 1144,-489 1150,-495 1150,-501 1150,-501 1150,-541 1150,-541 1150,-547 1144,-553 1138,-553 1138,-553 1054,-553 1054,-553 1048,-553 1042,-547 1042,-541 1042,-541 1042,-501 1042,-501 1042,-495 1048,-489 1054,-489"/>
<text text-anchor="start" x="1043" y="-550.4" font-family="Arial" font-size="2.00"> </text>
<text text-anchor="start" x="1043" y="-544.4" font-family="Arial" font-size="7.00"> &#160;13</text>
<text text-anchor="start" x="1057" y="-527.8" font-family="Arial" font-weight="bold" font-size="14.00">Mean: 26.58</text>
<text text-anchor="start" x="1072.5" y="-510.8" font-family="Arial" font-weight="bold" font-size="14.00">n = 120</text>
<text text-anchor="start" x="1094.5" y="-492.8" font-family="Arial" font-size="9.00"> </text>
<path fill="none" stroke="#333333" d="M1054,-489C1054,-489 1138,-489 1138,-489 1144,-489 1150,-495 1150,-501 1150,-501 1150,-541 1150,-541 1150,-547 1144,-553 1138,-553 1138,-553 1054,-553 1054,-553 1048,-553 1042,-547 1042,-541 1042,-541 1042,-501 1042,-501 1042,-495 1048,-489 1054,-489"/>
<text text-anchor="start" x="1152" y="-517.3" font-family="Arial" font-size="14.00"> &#160;&#160;&#160;</text>
<text text-anchor="start" x="1038.5" y="-474.8" font-family="Arial" font-weight="bold" font-size="14.00">prev_168h_inflow</text>
</g>
<!-- 1&#45;&gt;13 -->
<g id="edge2" class="edge">
<title>1&#45;&gt;13</title>
<path fill="none" stroke="#888888" d="M929.27,-632.67C952.71,-617.11 979.87,-599.08 1005.38,-582.15"/>
<polygon fill="#888888" stroke="#888888" points="1007.56,-584.9 1013.96,-576.46 1003.69,-579.07 1007.56,-584.9"/>
</g>
<!-- 3 -->
<g id="node4" class="node">
<title>3</title>
<text text-anchor="start" x="200" y="-407.8" font-family="Arial" font-weight="bold" font-size="14.00"> &lt; 22.94</text>
<path fill="#ebebeb" stroke="transparent" d="M187,-335C187,-335 263,-335 263,-335 269,-335 275,-341 275,-347 275,-347 275,-387 275,-387 275,-393 269,-399 263,-399 263,-399 187,-399 187,-399 181,-399 175,-393 175,-387 175,-387 175,-347 175,-347 175,-341 181,-335 187,-335"/>
<text text-anchor="start" x="176" y="-396.4" font-family="Arial" font-size="2.00"> </text>
<text text-anchor="start" x="176" y="-390.4" font-family="Arial" font-size="7.00"> &#160;3</text>
<text text-anchor="start" x="190" y="-373.8" font-family="Arial" font-weight="bold" font-size="14.00">Mean: 19.7</text>
<text text-anchor="start" x="205" y="-356.8" font-family="Arial" font-weight="bold" font-size="14.00">n = 18</text>
<text text-anchor="start" x="223.5" y="-338.8" font-family="Arial" font-size="9.00"> </text>
<path fill="none" stroke="#333333" d="M187,-335C187,-335 263,-335 263,-335 269,-335 275,-341 275,-347 275,-347 275,-387 275,-387 275,-393 269,-399 263,-399 263,-399 187,-399 187,-399 181,-399 175,-393 175,-387 175,-387 175,-347 175,-347 175,-341 181,-335 187,-335"/>
<text text-anchor="start" x="210.5" y="-320.8" font-family="Arial" font-weight="bold" font-size="14.00">time</text>
</g>
<!-- 2&#45;&gt;3 -->
<g id="edge3" class="edge">
<title>2&#45;&gt;3</title>
<path fill="none" stroke="#888888" d="M394.83,-470.44C362.94,-451.2 326.76,-429.38 296.01,-410.83"/>
<polygon fill="#888888" stroke="#888888" points="297.45,-407.61 287.08,-405.44 293.83,-413.61 297.45,-407.61"/>
</g>
<!-- 6 -->
<g id="node5" class="node">
<title>6</title>
<text text-anchor="start" x="452.5" y="-407.8" font-family="Arial" font-weight="bold" font-size="14.00"> ≥ 22.94</text>
<text text-anchor="start" x="405" y="-363.3" font-family="Arial" font-size="14.00"> &#160;&#160;&#160;</text>
<path fill="#ebebeb" stroke="transparent" d="M435,-335C435,-335 519,-335 519,-335 525,-335 531,-341 531,-347 531,-347 531,-387 531,-387 531,-393 525,-399 519,-399 519,-399 435,-399 435,-399 429,-399 423,-393 423,-387 423,-387 423,-347 423,-347 423,-341 429,-335 435,-335"/>
<text text-anchor="start" x="424" y="-396.4" font-family="Arial" font-size="2.00"> </text>
<text text-anchor="start" x="424" y="-390.4" font-family="Arial" font-size="7.00"> &#160;6</text>
<text text-anchor="start" x="438" y="-373.8" font-family="Arial" font-weight="bold" font-size="14.00">Mean: 22.98</text>
<text text-anchor="start" x="457" y="-356.8" font-family="Arial" font-weight="bold" font-size="14.00">n = 30</text>
<text text-anchor="start" x="475.5" y="-338.8" font-family="Arial" font-size="9.00"> </text>
<path fill="none" stroke="#333333" d="M435,-335C435,-335 519,-335 519,-335 525,-335 531,-341 531,-347 531,-347 531,-387 531,-387 531,-393 525,-399 519,-399 519,-399 435,-399 435,-399 429,-399 423,-393 423,-387 423,-387 423,-347 423,-347 423,-341 429,-335 435,-335"/>
<text text-anchor="start" x="533" y="-363.3" font-family="Arial" font-size="14.00"> &#160;&#160;&#160;</text>
<text text-anchor="start" x="419.5" y="-320.8" font-family="Arial" font-weight="bold" font-size="14.00">prev_168h_inflow</text>
</g>
<!-- 2&#45;&gt;6 -->
<g id="edge4" class="edge">
<title>2&#45;&gt;6</title>
<path fill="none" stroke="#888888" d="M477,-461.67C477,-453.39 477,-444.83 477,-436.38"/>
<polygon fill="#888888" stroke="#888888" points="480.5,-436.18 477,-426.18 473.5,-436.18 480.5,-436.18"/>
</g>
<!-- 14 -->
<g id="node14" class="node">
<title>14</title>
<text text-anchor="start" x="1071" y="-407.8" font-family="Arial" font-weight="bold" font-size="14.00"> &lt; 25.12</text>
<path fill="#ebebeb" stroke="transparent" d="M1054,-335C1054,-335 1138,-335 1138,-335 1144,-335 1150,-341 1150,-347 1150,-347 1150,-387 1150,-387 1150,-393 1144,-399 1138,-399 1138,-399 1054,-399 1054,-399 1048,-399 1042,-393 1042,-387 1042,-387 1042,-347 1042,-347 1042,-341 1048,-335 1054,-335"/>
<text text-anchor="start" x="1043" y="-396.4" font-family="Arial" font-size="2.00"> </text>
<text text-anchor="start" x="1043" y="-390.4" font-family="Arial" font-size="7.00"> &#160;14</text>
<text text-anchor="start" x="1057" y="-373.8" font-family="Arial" font-weight="bold" font-size="14.00">Mean: 22.85</text>
<text text-anchor="start" x="1076" y="-356.8" font-family="Arial" font-weight="bold" font-size="14.00">n = 55</text>
<text text-anchor="start" x="1094.5" y="-338.8" font-family="Arial" font-size="9.00"> </text>
<path fill="none" stroke="#333333" d="M1054,-335C1054,-335 1138,-335 1138,-335 1144,-335 1150,-341 1150,-347 1150,-347 1150,-387 1150,-387 1150,-393 1144,-399 1138,-399 1138,-399 1054,-399 1054,-399 1048,-399 1042,-393 1042,-387 1042,-387 1042,-347 1042,-347 1042,-341 1048,-335 1054,-335"/>
<text text-anchor="start" x="1081.5" y="-320.8" font-family="Arial" font-weight="bold" font-size="14.00">time</text>
</g>
<!-- 13&#45;&gt;14 -->
<g id="edge13" class="edge">
<title>13&#45;&gt;14</title>
<path fill="none" stroke="#888888" d="M1096,-461.67C1096,-453.39 1096,-444.83 1096,-436.38"/>
<polygon fill="#888888" stroke="#888888" points="1099.5,-436.18 1096,-426.18 1092.5,-436.18 1099.5,-436.18"/>
</g>
<!-- 21 -->
<g id="node15" class="node">
<title>21</title>
<text text-anchor="start" x="1533.5" y="-407.8" font-family="Arial" font-weight="bold" font-size="14.00"> ≥ 25.12</text>
<text text-anchor="start" x="1486" y="-363.3" font-family="Arial" font-size="14.00"> &#160;&#160;&#160;</text>
<path fill="#ebebeb" stroke="transparent" d="M1516,-335C1516,-335 1600,-335 1600,-335 1606,-335 1612,-341 1612,-347 1612,-347 1612,-387 1612,-387 1612,-393 1606,-399 1600,-399 1600,-399 1516,-399 1516,-399 1510,-399 1504,-393 1504,-387 1504,-387 1504,-347 1504,-347 1504,-341 1510,-335 1516,-335"/>
<text text-anchor="start" x="1505" y="-396.4" font-family="Arial" font-size="2.00"> </text>
<text text-anchor="start" x="1505" y="-390.4" font-family="Arial" font-size="7.00"> &#160;21</text>
<text text-anchor="start" x="1519" y="-373.8" font-family="Arial" font-weight="bold" font-size="14.00">Mean: 29.73</text>
<text text-anchor="start" x="1538" y="-356.8" font-family="Arial" font-weight="bold" font-size="14.00">n = 65</text>
<text text-anchor="start" x="1556.5" y="-338.8" font-family="Arial" font-size="9.00"> </text>
<path fill="none" stroke="#333333" d="M1516,-335C1516,-335 1600,-335 1600,-335 1606,-335 1612,-341 1612,-347 1612,-347 1612,-387 1612,-387 1612,-393 1606,-399 1600,-399 1600,-399 1516,-399 1516,-399 1510,-399 1504,-393 1504,-387 1504,-387 1504,-347 1504,-347 1504,-341 1510,-335 1516,-335"/>
<text text-anchor="start" x="1614" y="-363.3" font-family="Arial" font-size="14.00"> &#160;&#160;&#160;</text>
<text text-anchor="start" x="1500.5" y="-320.8" font-family="Arial" font-weight="bold" font-size="14.00">prev_168h_inflow</text>
</g>
<!-- 13&#45;&gt;21 -->
<g id="edge14" class="edge">
<title>13&#45;&gt;21</title>
<path fill="none" stroke="#888888" d="M1178.06,-493C1258.96,-466.39 1382.33,-425.79 1466.39,-398.14"/>
<polygon fill="#888888" stroke="#888888" points="1467.52,-401.45 1475.92,-395 1465.33,-394.8 1467.52,-401.45"/>
</g>
<!-- 4 -->
<g id="node6" class="node">
<title>4</title>
<text text-anchor="start" x="51.5" y="-253.8" font-family="Arial" font-weight="bold" font-size="14.00"> &lt; 4.5</text>
<path fill="#f8766d" fill-opacity="0.874510" stroke="transparent" d="M24,-181C24,-181 114,-181 114,-181 120,-181 126,-187 126,-193 126,-193 126,-233 126,-233 126,-239 120,-245 114,-245 114,-245 24,-245 24,-245 18,-245 12,-239 12,-233 12,-233 12,-193 12,-193 12,-187 18,-181 24,-181"/>
<text text-anchor="start" x="13" y="-242.4" font-family="Arial" font-size="2.00"> </text>
<text text-anchor="start" x="13" y="-236.4" font-family="Arial" font-size="7.00"> &#160;4</text>
<text text-anchor="start" x="27" y="-219.8" font-family="Arial" font-weight="bold" font-size="14.00">Predict 19.09</text>
<text text-anchor="start" x="49" y="-202.8" font-family="Arial" font-weight="bold" font-size="14.00">n = 10</text>
<text text-anchor="start" x="67.5" y="-184.8" font-family="Arial" font-size="9.00"> </text>
<path fill="none" stroke="#333333" d="M24,-181C24,-181 114,-181 114,-181 120,-181 126,-187 126,-193 126,-193 126,-233 126,-233 126,-239 120,-245 114,-245 114,-245 24,-245 24,-245 18,-245 12,-239 12,-233 12,-233 12,-193 12,-193 12,-187 18,-181 24,-181"/>
<text text-anchor="start" x="67" y="-166.8" font-family="Arial" font-weight="bold" font-size="14.00"> </text>
</g>
<!-- 3&#45;&gt;4 -->
<g id="edge5" class="edge">
<title>3&#45;&gt;4</title>
<path fill="none" stroke="#888888" d="M165.13,-307.67C155.62,-298.39 145.72,-288.75 136.05,-279.33"/>
<polygon fill="#888888" stroke="#888888" points="138.31,-276.65 128.71,-272.18 133.43,-281.66 138.31,-276.65"/>
</g>
<!-- 5 -->
<g id="node7" class="node">
<title>5</title>
<text text-anchor="start" x="208" y="-253.8" font-family="Arial" font-weight="bold" font-size="14.00"> ≥ 4.5</text>
<path fill="#f8766d" fill-opacity="0.827451" stroke="transparent" d="M180,-181C180,-181 270,-181 270,-181 276,-181 282,-187 282,-193 282,-193 282,-233 282,-233 282,-239 276,-245 270,-245 270,-245 180,-245 180,-245 174,-245 168,-239 168,-233 168,-233 168,-193 168,-193 168,-187 174,-181 180,-181"/>
<text text-anchor="start" x="169" y="-242.4" font-family="Arial" font-size="2.00"> </text>
<text text-anchor="start" x="169" y="-236.4" font-family="Arial" font-size="7.00"> &#160;5</text>
<text text-anchor="start" x="183" y="-219.8" font-family="Arial" font-weight="bold" font-size="14.00">Predict 20.47</text>
<text text-anchor="start" x="209" y="-202.8" font-family="Arial" font-weight="bold" font-size="14.00">n = 8</text>
<text text-anchor="start" x="223.5" y="-184.8" font-family="Arial" font-size="9.00"> </text>
<path fill="none" stroke="#333333" d="M180,-181C180,-181 270,-181 270,-181 276,-181 282,-187 282,-193 282,-193 282,-233 282,-233 282,-239 276,-245 270,-245 270,-245 180,-245 180,-245 174,-245 168,-239 168,-233 168,-233 168,-193 168,-193 168,-187 174,-181 180,-181"/>
<text text-anchor="start" x="223" y="-166.8" font-family="Arial" font-weight="bold" font-size="14.00"> </text>
</g>
<!-- 3&#45;&gt;5 -->
<g id="edge6" class="edge">
<title>3&#45;&gt;5</title>
<path fill="none" stroke="#888888" d="M225,-307.67C225,-299.39 225,-290.83 225,-282.38"/>
<polygon fill="#888888" stroke="#888888" points="228.5,-282.18 225,-272.18 221.5,-282.18 228.5,-282.18"/>
</g>
<!-- 7 -->
<g id="node8" class="node">
<title>7</title>
<text text-anchor="start" x="369" y="-253.8" font-family="Arial" font-weight="bold" font-size="14.00"> &lt; 26.34</text>
<text text-anchor="start" x="322" y="-209.3" font-family="Arial" font-size="14.00"> &#160;&#160;&#160;</text>
<path fill="#ebebeb" stroke="transparent" d="M352,-181C352,-181 436,-181 436,-181 442,-181 448,-187 448,-193 448,-193 448,-233 448,-233 448,-239 442,-245 436,-245 436,-245 352,-245 352,-245 346,-245 340,-239 340,-233 340,-233 340,-193 340,-193 340,-187 346,-181 352,-181"/>
<text text-anchor="start" x="341" y="-242.4" font-family="Arial" font-size="2.00"> </text>
<text text-anchor="start" x="341" y="-236.4" font-family="Arial" font-size="7.00"> &#160;7</text>
<text text-anchor="start" x="355" y="-219.8" font-family="Arial" font-weight="bold" font-size="14.00">Mean: 22.32</text>
<text text-anchor="start" x="374" y="-202.8" font-family="Arial" font-weight="bold" font-size="14.00">n = 23</text>
<text text-anchor="start" x="392.5" y="-184.8" font-family="Arial" font-size="9.00"> </text>
<path fill="none" stroke="#333333" d="M352,-181C352,-181 436,-181 436,-181 442,-181 448,-187 448,-193 448,-193 448,-233 448,-233 448,-239 442,-245 436,-245 436,-245 352,-245 352,-245 346,-245 340,-239 340,-233 340,-233 340,-193 340,-193 340,-187 346,-181 352,-181"/>
<text text-anchor="start" x="450" y="-209.3" font-family="Arial" font-size="14.00"> &#160;&#160;&#160;</text>
<text text-anchor="start" x="336.5" y="-166.8" font-family="Arial" font-weight="bold" font-size="14.00">prev_168h_inflow</text>
</g>
<!-- 6&#45;&gt;7 -->
<g id="edge7" class="edge">
<title>6&#45;&gt;7</title>
<path fill="none" stroke="#888888" d="M445.15,-307.67C440.38,-298.94 435.44,-289.88 430.58,-280.99"/>
<polygon fill="#888888" stroke="#888888" points="433.63,-279.28 425.77,-272.18 427.49,-282.63 433.63,-279.28"/>
</g>
<!-- 10 -->
<g id="node9" class="node">
<title>10</title>
<text text-anchor="start" x="535.5" y="-253.8" font-family="Arial" font-weight="bold" font-size="14.00"> ≥ 26.34</text>
<path fill="#ebebeb" stroke="transparent" d="M518,-181C518,-181 602,-181 602,-181 608,-181 614,-187 614,-193 614,-193 614,-233 614,-233 614,-239 608,-245 602,-245 602,-245 518,-245 518,-245 512,-245 506,-239 506,-233 506,-233 506,-193 506,-193 506,-187 512,-181 518,-181"/>
<text text-anchor="start" x="507" y="-242.4" font-family="Arial" font-size="2.00"> </text>
<text text-anchor="start" x="507" y="-236.4" font-family="Arial" font-size="7.00"> &#160;10</text>
<text text-anchor="start" x="521" y="-219.8" font-family="Arial" font-weight="bold" font-size="14.00">Mean: 25.14</text>
<text text-anchor="start" x="544" y="-202.8" font-family="Arial" font-weight="bold" font-size="14.00">n = 7</text>
<text text-anchor="start" x="558.5" y="-184.8" font-family="Arial" font-size="9.00"> </text>
<path fill="none" stroke="#333333" d="M518,-181C518,-181 602,-181 602,-181 608,-181 614,-187 614,-193 614,-193 614,-233 614,-233 614,-239 608,-245 602,-245 602,-245 518,-245 518,-245 512,-245 506,-239 506,-233 506,-233 506,-193 506,-193 506,-187 512,-181 518,-181"/>
<text text-anchor="start" x="524.5" y="-166.8" font-family="Arial" font-weight="bold" font-size="14.00">windspeed</text>
</g>
<!-- 6&#45;&gt;10 -->
<g id="edge8" class="edge">
<title>6&#45;&gt;10</title>
<path fill="none" stroke="#888888" d="M508.85,-307.67C513.62,-298.94 518.56,-289.88 523.42,-280.99"/>
<polygon fill="#888888" stroke="#888888" points="526.51,-282.63 528.23,-272.18 520.37,-279.28 526.51,-282.63"/>
</g>
<!-- 8 -->
<g id="node10" class="node">
<title>8</title>
<text text-anchor="start" x="213" y="-99.8" font-family="Arial" font-weight="bold" font-size="14.00"> &lt; 24.93</text>
<path fill="#f8766d" fill-opacity="0.772549" stroke="transparent" d="M193,-27C193,-27 283,-27 283,-27 289,-27 295,-33 295,-39 295,-39 295,-79 295,-79 295,-85 289,-91 283,-91 283,-91 193,-91 193,-91 187,-91 181,-85 181,-79 181,-79 181,-39 181,-39 181,-33 187,-27 193,-27"/>
<text text-anchor="start" x="182" y="-88.4" font-family="Arial" font-size="2.00"> </text>
<text text-anchor="start" x="182" y="-82.4" font-family="Arial" font-size="7.00"> &#160;8</text>
<text text-anchor="start" x="196" y="-65.8" font-family="Arial" font-weight="bold" font-size="14.00">Predict 21.98</text>
<text text-anchor="start" x="218" y="-48.8" font-family="Arial" font-weight="bold" font-size="14.00">n = 14</text>
<text text-anchor="start" x="236.5" y="-30.8" font-family="Arial" font-size="9.00"> </text>
<path fill="none" stroke="#333333" d="M193,-27C193,-27 283,-27 283,-27 289,-27 295,-33 295,-39 295,-39 295,-79 295,-79 295,-85 289,-91 283,-91 283,-91 193,-91 193,-91 187,-91 181,-85 181,-79 181,-79 181,-39 181,-39 181,-33 187,-27 193,-27"/>
<text text-anchor="start" x="236" y="-12.8" font-family="Arial" font-weight="bold" font-size="14.00"> </text>
</g>
<!-- 7&#45;&gt;8 -->
<g id="edge9" class="edge">
<title>7&#45;&gt;8</title>
<path fill="none" stroke="#888888" d="M334.13,-153.67C324.62,-144.39 314.72,-134.75 305.05,-125.33"/>
<polygon fill="#888888" stroke="#888888" points="307.31,-122.65 297.71,-118.18 302.43,-127.66 307.31,-122.65"/>
</g>
<!-- 9 -->
<g id="node11" class="node">
<title>9</title>
<text text-anchor="start" x="369.5" y="-99.8" font-family="Arial" font-weight="bold" font-size="14.00"> ≥ 24.93</text>
<path fill="#f8766d" fill-opacity="0.741176" stroke="transparent" d="M349,-27C349,-27 439,-27 439,-27 445,-27 451,-33 451,-39 451,-39 451,-79 451,-79 451,-85 445,-91 439,-91 439,-91 349,-91 349,-91 343,-91 337,-85 337,-79 337,-79 337,-39 337,-39 337,-33 343,-27 349,-27"/>
<text text-anchor="start" x="338" y="-88.4" font-family="Arial" font-size="2.00"> </text>
<text text-anchor="start" x="338" y="-82.4" font-family="Arial" font-size="7.00"> &#160;9</text>
<text text-anchor="start" x="352" y="-65.8" font-family="Arial" font-weight="bold" font-size="14.00">Predict 22.86</text>
<text text-anchor="start" x="378" y="-48.8" font-family="Arial" font-weight="bold" font-size="14.00">n = 9</text>
<text text-anchor="start" x="392.5" y="-30.8" font-family="Arial" font-size="9.00"> </text>
<path fill="none" stroke="#333333" d="M349,-27C349,-27 439,-27 439,-27 445,-27 451,-33 451,-39 451,-39 451,-79 451,-79 451,-85 445,-91 439,-91 439,-91 349,-91 349,-91 343,-91 337,-85 337,-79 337,-79 337,-39 337,-39 337,-33 343,-27 349,-27"/>
<text text-anchor="start" x="392" y="-12.8" font-family="Arial" font-weight="bold" font-size="14.00"> </text>
</g>
<!-- 7&#45;&gt;9 -->
<g id="edge10" class="edge">
<title>7&#45;&gt;9</title>
<path fill="none" stroke="#888888" d="M394,-153.67C394,-145.39 394,-136.83 394,-128.38"/>
<polygon fill="#888888" stroke="#888888" points="397.5,-128.18 394,-118.18 390.5,-128.18 397.5,-128.18"/>
</g>
<!-- 11 -->
<g id="node12" class="node">
<title>11</title>
<text text-anchor="start" x="532.5" y="-99.8" font-family="Arial" font-weight="bold" font-size="14.00"> &lt; 6.5</text>
<path fill="#f8766d" fill-opacity="0.623529" stroke="transparent" d="M505,-27C505,-27 595,-27 595,-27 601,-27 607,-33 607,-39 607,-39 607,-79 607,-79 607,-85 601,-91 595,-91 595,-91 505,-91 505,-91 499,-91 493,-85 493,-79 493,-79 493,-39 493,-39 493,-33 499,-27 505,-27"/>
<text text-anchor="start" x="494" y="-88.4" font-family="Arial" font-size="2.00"> </text>
<text text-anchor="start" x="494" y="-82.4" font-family="Arial" font-size="7.00"> &#160;11</text>
<text text-anchor="start" x="508" y="-65.8" font-family="Arial" font-weight="bold" font-size="14.00">Predict 26.29</text>
<text text-anchor="start" x="534" y="-48.8" font-family="Arial" font-weight="bold" font-size="14.00">n = 2</text>
<text text-anchor="start" x="548.5" y="-30.8" font-family="Arial" font-size="9.00"> </text>
<path fill="none" stroke="#333333" d="M505,-27C505,-27 595,-27 595,-27 601,-27 607,-33 607,-39 607,-39 607,-79 607,-79 607,-85 601,-91 595,-91 595,-91 505,-91 505,-91 499,-91 493,-85 493,-79 493,-79 493,-39 493,-39 493,-33 499,-27 505,-27"/>
<text text-anchor="start" x="548" y="-12.8" font-family="Arial" font-weight="bold" font-size="14.00"> </text>
</g>
<!-- 10&#45;&gt;11 -->
<g id="edge11" class="edge">
<title>10&#45;&gt;11</title>
<path fill="none" stroke="#888888" d="M556.16,-153.67C555.62,-145.39 555.05,-136.83 554.5,-128.38"/>
<polygon fill="#888888" stroke="#888888" points="557.98,-127.92 553.83,-118.18 550.99,-128.38 557.98,-127.92"/>
</g>
<!-- 12 -->
<g id="node13" class="node">
<title>12</title>
<text text-anchor="start" x="689" y="-99.8" font-family="Arial" font-weight="bold" font-size="14.00"> ≥ 6.5</text>
<path fill="#f8766d" fill-opacity="0.678431" stroke="transparent" d="M661,-27C661,-27 751,-27 751,-27 757,-27 763,-33 763,-39 763,-39 763,-79 763,-79 763,-85 757,-91 751,-91 751,-91 661,-91 661,-91 655,-91 649,-85 649,-79 649,-79 649,-39 649,-39 649,-33 655,-27 661,-27"/>
<text text-anchor="start" x="650" y="-88.4" font-family="Arial" font-size="2.00"> </text>
<text text-anchor="start" x="650" y="-82.4" font-family="Arial" font-size="7.00"> &#160;12</text>
<text text-anchor="start" x="664" y="-65.8" font-family="Arial" font-weight="bold" font-size="14.00">Predict 24.69</text>
<text text-anchor="start" x="690" y="-48.8" font-family="Arial" font-weight="bold" font-size="14.00">n = 5</text>
<text text-anchor="start" x="704.5" y="-30.8" font-family="Arial" font-size="9.00"> </text>
<path fill="none" stroke="#333333" d="M661,-27C661,-27 751,-27 751,-27 757,-27 763,-33 763,-39 763,-39 763,-79 763,-79 763,-85 757,-91 751,-91 751,-91 661,-91 661,-91 655,-91 649,-85 649,-79 649,-79 649,-39 649,-39 649,-33 655,-27 661,-27"/>
<text text-anchor="start" x="704" y="-12.8" font-family="Arial" font-weight="bold" font-size="14.00"> </text>
</g>
<!-- 10&#45;&gt;12 -->
<g id="edge12" class="edge">
<title>10&#45;&gt;12</title>
<path fill="none" stroke="#888888" d="M616.03,-153.67C624.85,-144.49 634.02,-134.94 642.98,-125.6"/>
<polygon fill="#888888" stroke="#888888" points="645.72,-127.81 650.12,-118.18 640.67,-122.96 645.72,-127.81"/>
</g>
<!-- 15 -->
<g id="node16" class="node">
<title>15</title>
<text text-anchor="start" x="1000.5" y="-253.8" font-family="Arial" font-weight="bold" font-size="14.00"> &lt; 6.5</text>
<path fill="#ebebeb" stroke="transparent" d="M976,-181C976,-181 1060,-181 1060,-181 1066,-181 1072,-187 1072,-193 1072,-193 1072,-233 1072,-233 1072,-239 1066,-245 1060,-245 1060,-245 976,-245 976,-245 970,-245 964,-239 964,-233 964,-233 964,-193 964,-193 964,-187 970,-181 976,-181"/>
<text text-anchor="start" x="965" y="-242.4" font-family="Arial" font-size="2.00"> </text>
<text text-anchor="start" x="965" y="-236.4" font-family="Arial" font-size="7.00"> &#160;15</text>
<text text-anchor="start" x="979" y="-219.8" font-family="Arial" font-weight="bold" font-size="14.00">Mean: 21.78</text>
<text text-anchor="start" x="998" y="-202.8" font-family="Arial" font-weight="bold" font-size="14.00">n = 35</text>
<text text-anchor="start" x="1016.5" y="-184.8" font-family="Arial" font-size="9.00"> </text>
<path fill="none" stroke="#333333" d="M976,-181C976,-181 1060,-181 1060,-181 1066,-181 1072,-187 1072,-193 1072,-193 1072,-233 1072,-233 1072,-239 1066,-245 1060,-245 1060,-245 976,-245 976,-245 970,-245 964,-239 964,-233 964,-233 964,-193 964,-193 964,-187 970,-181 976,-181"/>
<text text-anchor="start" x="1003.5" y="-166.8" font-family="Arial" font-weight="bold" font-size="14.00">time</text>
</g>
<!-- 14&#45;&gt;15 -->
<g id="edge15" class="edge">
<title>14&#45;&gt;15</title>
<path fill="none" stroke="#888888" d="M1066.07,-307.67C1061.63,-299.03 1057.04,-290.07 1052.52,-281.27"/>
<polygon fill="#888888" stroke="#888888" points="1055.53,-279.48 1047.85,-272.18 1049.31,-282.67 1055.53,-279.48"/>
</g>
<!-- 18 -->
<g id="node17" class="node">
<title>18</title>
<text text-anchor="start" x="1157" y="-253.8" font-family="Arial" font-weight="bold" font-size="14.00"> ≥ 6.5</text>
<path fill="#ebebeb" stroke="transparent" d="M1132,-181C1132,-181 1216,-181 1216,-181 1222,-181 1228,-187 1228,-193 1228,-193 1228,-233 1228,-233 1228,-239 1222,-245 1216,-245 1216,-245 1132,-245 1132,-245 1126,-245 1120,-239 1120,-233 1120,-233 1120,-193 1120,-193 1120,-187 1126,-181 1132,-181"/>
<text text-anchor="start" x="1121" y="-242.4" font-family="Arial" font-size="2.00"> </text>
<text text-anchor="start" x="1121" y="-236.4" font-family="Arial" font-size="7.00"> &#160;18</text>
<text text-anchor="start" x="1135" y="-219.8" font-family="Arial" font-weight="bold" font-size="14.00">Mean: 24.73</text>
<text text-anchor="start" x="1154" y="-202.8" font-family="Arial" font-weight="bold" font-size="14.00">n = 20</text>
<text text-anchor="start" x="1172.5" y="-184.8" font-family="Arial" font-size="9.00"> </text>
<path fill="none" stroke="#333333" d="M1132,-181C1132,-181 1216,-181 1216,-181 1222,-181 1228,-187 1228,-193 1228,-193 1228,-233 1228,-233 1228,-239 1222,-245 1216,-245 1216,-245 1132,-245 1132,-245 1126,-245 1120,-239 1120,-233 1120,-233 1120,-193 1120,-193 1120,-187 1126,-181 1132,-181"/>
<text text-anchor="start" x="1159.5" y="-166.8" font-family="Arial" font-weight="bold" font-size="14.00">time</text>
</g>
<!-- 14&#45;&gt;18 -->
<g id="edge16" class="edge">
<title>14&#45;&gt;18</title>
<path fill="none" stroke="#888888" d="M1125.93,-307.67C1130.37,-299.03 1134.96,-290.07 1139.48,-281.27"/>
<polygon fill="#888888" stroke="#888888" points="1142.69,-282.67 1144.15,-272.18 1136.47,-279.48 1142.69,-282.67"/>
</g>
<!-- 22 -->
<g id="node22" class="node">
<title>22</title>
<text text-anchor="start" x="1533" y="-253.8" font-family="Arial" font-weight="bold" font-size="14.00"> &lt; 26.71</text>
<path fill="#ebebeb" stroke="transparent" d="M1516,-181C1516,-181 1600,-181 1600,-181 1606,-181 1612,-187 1612,-193 1612,-193 1612,-233 1612,-233 1612,-239 1606,-245 1600,-245 1600,-245 1516,-245 1516,-245 1510,-245 1504,-239 1504,-233 1504,-233 1504,-193 1504,-193 1504,-187 1510,-181 1516,-181"/>
<text text-anchor="start" x="1505" y="-242.4" font-family="Arial" font-size="2.00"> </text>
<text text-anchor="start" x="1505" y="-236.4" font-family="Arial" font-size="7.00"> &#160;22</text>
<text text-anchor="start" x="1519" y="-219.8" font-family="Arial" font-weight="bold" font-size="14.00">Mean: 27.49</text>
<text text-anchor="start" x="1538" y="-202.8" font-family="Arial" font-weight="bold" font-size="14.00">n = 30</text>
<text text-anchor="start" x="1556.5" y="-184.8" font-family="Arial" font-size="9.00"> </text>
<path fill="none" stroke="#333333" d="M1516,-181C1516,-181 1600,-181 1600,-181 1606,-181 1612,-187 1612,-193 1612,-193 1612,-233 1612,-233 1612,-239 1606,-245 1600,-245 1600,-245 1516,-245 1516,-245 1510,-245 1504,-239 1504,-233 1504,-233 1504,-193 1504,-193 1504,-187 1510,-181 1516,-181"/>
<text text-anchor="start" x="1543.5" y="-166.8" font-family="Arial" font-weight="bold" font-size="14.00">time</text>
</g>
<!-- 21&#45;&gt;22 -->
<g id="edge21" class="edge">
<title>21&#45;&gt;22</title>
<path fill="none" stroke="#888888" d="M1558,-307.67C1558,-299.39 1558,-290.83 1558,-282.38"/>
<polygon fill="#888888" stroke="#888888" points="1561.5,-282.18 1558,-272.18 1554.5,-282.18 1561.5,-282.18"/>
</g>
<!-- 25 -->
<g id="node23" class="node">
<title>25</title>
<text text-anchor="start" x="1765.5" y="-253.8" font-family="Arial" font-weight="bold" font-size="14.00"> ≥ 26.71</text>
<path fill="#ebebeb" stroke="transparent" d="M1748,-181C1748,-181 1832,-181 1832,-181 1838,-181 1844,-187 1844,-193 1844,-193 1844,-233 1844,-233 1844,-239 1838,-245 1832,-245 1832,-245 1748,-245 1748,-245 1742,-245 1736,-239 1736,-233 1736,-233 1736,-193 1736,-193 1736,-187 1742,-181 1748,-181"/>
<text text-anchor="start" x="1737" y="-242.4" font-family="Arial" font-size="2.00"> </text>
<text text-anchor="start" x="1737" y="-236.4" font-family="Arial" font-size="7.00"> &#160;25</text>
<text text-anchor="start" x="1751" y="-219.8" font-family="Arial" font-weight="bold" font-size="14.00">Mean: 31.66</text>
<text text-anchor="start" x="1770" y="-202.8" font-family="Arial" font-weight="bold" font-size="14.00">n = 35</text>
<text text-anchor="start" x="1788.5" y="-184.8" font-family="Arial" font-size="9.00"> </text>
<path fill="none" stroke="#333333" d="M1748,-181C1748,-181 1832,-181 1832,-181 1838,-181 1844,-187 1844,-193 1844,-193 1844,-233 1844,-233 1844,-239 1838,-245 1832,-245 1832,-245 1748,-245 1748,-245 1742,-245 1736,-239 1736,-233 1736,-233 1736,-193 1736,-193 1736,-187 1742,-181 1748,-181"/>
<text text-anchor="start" x="1747.5" y="-166.8" font-family="Arial" font-weight="bold" font-size="14.00">day_of_week</text>
</g>
<!-- 21&#45;&gt;25 -->
<g id="edge22" class="edge">
<title>21&#45;&gt;25</title>
<path fill="none" stroke="#888888" d="M1640.12,-312.2C1664.5,-296.22 1691.07,-278.82 1714.97,-263.16"/>
<polygon fill="#888888" stroke="#888888" points="1717.2,-265.88 1723.65,-257.47 1713.37,-260.02 1717.2,-265.88"/>
</g>
<!-- 16 -->
<g id="node18" class="node">
<title>16</title>
<text text-anchor="start" x="844.5" y="-99.8" font-family="Arial" font-weight="bold" font-size="14.00"> &lt; 5.5</text>
<path fill="#f8766d" fill-opacity="0.800000" stroke="transparent" d="M817,-27C817,-27 907,-27 907,-27 913,-27 919,-33 919,-39 919,-39 919,-79 919,-79 919,-85 913,-91 907,-91 907,-91 817,-91 817,-91 811,-91 805,-85 805,-79 805,-79 805,-39 805,-39 805,-33 811,-27 817,-27"/>
<text text-anchor="start" x="806" y="-88.4" font-family="Arial" font-size="2.00"> </text>
<text text-anchor="start" x="806" y="-82.4" font-family="Arial" font-size="7.00"> &#160;16</text>
<text text-anchor="start" x="820" y="-65.8" font-family="Arial" font-weight="bold" font-size="14.00">Predict 21.17</text>
<text text-anchor="start" x="842" y="-48.8" font-family="Arial" font-weight="bold" font-size="14.00">n = 30</text>
<text text-anchor="start" x="860.5" y="-30.8" font-family="Arial" font-size="9.00"> </text>
<path fill="none" stroke="#333333" d="M817,-27C817,-27 907,-27 907,-27 913,-27 919,-33 919,-39 919,-39 919,-79 919,-79 919,-85 913,-91 907,-91 907,-91 817,-91 817,-91 811,-91 805,-85 805,-79 805,-79 805,-39 805,-39 805,-33 811,-27 817,-27"/>
<text text-anchor="start" x="860" y="-12.8" font-family="Arial" font-weight="bold" font-size="14.00"> </text>
</g>
<!-- 15&#45;&gt;16 -->
<g id="edge17" class="edge">
<title>15&#45;&gt;16</title>
<path fill="none" stroke="#888888" d="M958.13,-153.67C948.62,-144.39 938.72,-134.75 929.05,-125.33"/>
<polygon fill="#888888" stroke="#888888" points="931.31,-122.65 921.71,-118.18 926.43,-127.66 931.31,-122.65"/>
</g>
<!-- 17 -->
<g id="node19" class="node">
<title>17</title>
<text text-anchor="start" x="1001" y="-99.8" font-family="Arial" font-weight="bold" font-size="14.00"> ≥ 5.5</text>
<path fill="#f8766d" fill-opacity="0.650980" stroke="transparent" d="M973,-27C973,-27 1063,-27 1063,-27 1069,-27 1075,-33 1075,-39 1075,-39 1075,-79 1075,-79 1075,-85 1069,-91 1063,-91 1063,-91 973,-91 973,-91 967,-91 961,-85 961,-79 961,-79 961,-39 961,-39 961,-33 967,-27 973,-27"/>
<text text-anchor="start" x="962" y="-88.4" font-family="Arial" font-size="2.00"> </text>
<text text-anchor="start" x="962" y="-82.4" font-family="Arial" font-size="7.00"> &#160;17</text>
<text text-anchor="start" x="976" y="-65.8" font-family="Arial" font-weight="bold" font-size="14.00">Predict 25.46</text>
<text text-anchor="start" x="1002" y="-48.8" font-family="Arial" font-weight="bold" font-size="14.00">n = 5</text>
<text text-anchor="start" x="1016.5" y="-30.8" font-family="Arial" font-size="9.00"> </text>
<path fill="none" stroke="#333333" d="M973,-27C973,-27 1063,-27 1063,-27 1069,-27 1075,-33 1075,-39 1075,-39 1075,-79 1075,-79 1075,-85 1069,-91 1063,-91 1063,-91 973,-91 973,-91 967,-91 961,-85 961,-79 961,-79 961,-39 961,-39 961,-33 967,-27 973,-27"/>
<text text-anchor="start" x="1016" y="-12.8" font-family="Arial" font-weight="bold" font-size="14.00"> </text>
</g>
<!-- 15&#45;&gt;17 -->
<g id="edge18" class="edge">
<title>15&#45;&gt;17</title>
<path fill="none" stroke="#888888" d="M1018,-153.67C1018,-145.39 1018,-136.83 1018,-128.38"/>
<polygon fill="#888888" stroke="#888888" points="1021.5,-128.18 1018,-118.18 1014.5,-128.18 1021.5,-128.18"/>
</g>
<!-- 19 -->
<g id="node20" class="node">
<title>19</title>
<text text-anchor="start" x="1152.5" y="-99.8" font-family="Arial" font-weight="bold" font-size="14.00"> &lt; 16.5</text>
<path fill="#f8766d" fill-opacity="0.564706" stroke="transparent" d="M1129,-27C1129,-27 1219,-27 1219,-27 1225,-27 1231,-33 1231,-39 1231,-39 1231,-79 1231,-79 1231,-85 1225,-91 1219,-91 1219,-91 1129,-91 1129,-91 1123,-91 1117,-85 1117,-79 1117,-79 1117,-39 1117,-39 1117,-33 1123,-27 1129,-27"/>
<text text-anchor="start" x="1118" y="-88.4" font-family="Arial" font-size="2.00"> </text>
<text text-anchor="start" x="1118" y="-82.4" font-family="Arial" font-size="7.00"> &#160;19</text>
<text text-anchor="start" x="1132" y="-65.8" font-family="Arial" font-weight="bold" font-size="14.00">Predict 27.92</text>
<text text-anchor="start" x="1158" y="-48.8" font-family="Arial" font-weight="bold" font-size="14.00">n = 6</text>
<text text-anchor="start" x="1172.5" y="-30.8" font-family="Arial" font-size="9.00"> </text>
<path fill="none" stroke="#333333" d="M1129,-27C1129,-27 1219,-27 1219,-27 1225,-27 1231,-33 1231,-39 1231,-39 1231,-79 1231,-79 1231,-85 1225,-91 1219,-91 1219,-91 1129,-91 1129,-91 1123,-91 1117,-85 1117,-79 1117,-79 1117,-39 1117,-39 1117,-33 1123,-27 1129,-27"/>
<text text-anchor="start" x="1172" y="-12.8" font-family="Arial" font-weight="bold" font-size="14.00"> </text>
</g>
<!-- 18&#45;&gt;19 -->
<g id="edge19" class="edge">
<title>18&#45;&gt;19</title>
<path fill="none" stroke="#888888" d="M1174,-153.67C1174,-145.39 1174,-136.83 1174,-128.38"/>
<polygon fill="#888888" stroke="#888888" points="1177.5,-128.18 1174,-118.18 1170.5,-128.18 1177.5,-128.18"/>
</g>
<!-- 20 -->
<g id="node21" class="node">
<title>20</title>
<text text-anchor="start" x="1309" y="-99.8" font-family="Arial" font-weight="bold" font-size="14.00"> ≥ 16.5</text>
<path fill="#f8766d" fill-opacity="0.725490" stroke="transparent" d="M1285,-27C1285,-27 1375,-27 1375,-27 1381,-27 1387,-33 1387,-39 1387,-39 1387,-79 1387,-79 1387,-85 1381,-91 1375,-91 1375,-91 1285,-91 1285,-91 1279,-91 1273,-85 1273,-79 1273,-79 1273,-39 1273,-39 1273,-33 1279,-27 1285,-27"/>
<text text-anchor="start" x="1274" y="-88.4" font-family="Arial" font-size="2.00"> </text>
<text text-anchor="start" x="1274" y="-82.4" font-family="Arial" font-size="7.00"> &#160;20</text>
<text text-anchor="start" x="1288" y="-65.8" font-family="Arial" font-weight="bold" font-size="14.00">Predict 23.36</text>
<text text-anchor="start" x="1310" y="-48.8" font-family="Arial" font-weight="bold" font-size="14.00">n = 14</text>
<text text-anchor="start" x="1328.5" y="-30.8" font-family="Arial" font-size="9.00"> </text>
<path fill="none" stroke="#333333" d="M1285,-27C1285,-27 1375,-27 1375,-27 1381,-27 1387,-33 1387,-39 1387,-39 1387,-79 1387,-79 1387,-85 1381,-91 1375,-91 1375,-91 1285,-91 1285,-91 1279,-91 1273,-85 1273,-79 1273,-79 1273,-39 1273,-39 1273,-33 1279,-27 1285,-27"/>
<text text-anchor="start" x="1328" y="-12.8" font-family="Arial" font-weight="bold" font-size="14.00"> </text>
</g>
<!-- 18&#45;&gt;20 -->
<g id="edge20" class="edge">
<title>18&#45;&gt;20</title>
<path fill="none" stroke="#888888" d="M1233.87,-153.67C1243.38,-144.39 1253.28,-134.75 1262.95,-125.33"/>
<polygon fill="#888888" stroke="#888888" points="1265.57,-127.66 1270.29,-118.18 1260.69,-122.65 1265.57,-127.66"/>
</g>
<!-- 23 -->
<g id="node24" class="node">
<title>23</title>
<text text-anchor="start" x="1460.5" y="-99.8" font-family="Arial" font-weight="bold" font-size="14.00"> &lt; 17.5</text>
<path fill="#f8766d" fill-opacity="0.541176" stroke="transparent" d="M1441,-27C1441,-27 1523,-27 1523,-27 1529,-27 1535,-33 1535,-39 1535,-39 1535,-79 1535,-79 1535,-85 1529,-91 1523,-91 1523,-91 1441,-91 1441,-91 1435,-91 1429,-85 1429,-79 1429,-79 1429,-39 1429,-39 1429,-33 1435,-27 1441,-27"/>
<text text-anchor="start" x="1430" y="-88.4" font-family="Arial" font-size="2.00"> </text>
<text text-anchor="start" x="1430" y="-82.4" font-family="Arial" font-size="7.00"> &#160;23</text>
<text text-anchor="start" x="1444" y="-65.8" font-family="Arial" font-weight="bold" font-size="14.00">Predict 28.6</text>
<text text-anchor="start" x="1462" y="-48.8" font-family="Arial" font-weight="bold" font-size="14.00">n = 13</text>
<text text-anchor="start" x="1480.5" y="-30.8" font-family="Arial" font-size="9.00"> </text>
<path fill="none" stroke="#333333" d="M1441,-27C1441,-27 1523,-27 1523,-27 1529,-27 1535,-33 1535,-39 1535,-39 1535,-79 1535,-79 1535,-85 1529,-91 1523,-91 1523,-91 1441,-91 1441,-91 1435,-91 1429,-85 1429,-79 1429,-79 1429,-39 1429,-39 1429,-33 1435,-27 1441,-27"/>
<text text-anchor="start" x="1480" y="-12.8" font-family="Arial" font-weight="bold" font-size="14.00"> </text>
</g>
<!-- 22&#45;&gt;23 -->
<g id="edge23" class="edge">
<title>22&#45;&gt;23</title>
<path fill="none" stroke="#888888" d="M1528.83,-153.67C1524.52,-145.03 1520.04,-136.07 1515.64,-127.27"/>
<polygon fill="#888888" stroke="#888888" points="1518.69,-125.56 1511.09,-118.18 1512.43,-128.69 1518.69,-125.56"/>
</g>
<!-- 24 -->
<g id="node25" class="node">
<title>24</title>
<text text-anchor="start" x="1613" y="-99.8" font-family="Arial" font-weight="bold" font-size="14.00"> ≥ 17.5</text>
<path fill="#f8766d" fill-opacity="0.607843" stroke="transparent" d="M1589,-27C1589,-27 1679,-27 1679,-27 1685,-27 1691,-33 1691,-39 1691,-39 1691,-79 1691,-79 1691,-85 1685,-91 1679,-91 1679,-91 1589,-91 1589,-91 1583,-91 1577,-85 1577,-79 1577,-79 1577,-39 1577,-39 1577,-33 1583,-27 1589,-27"/>
<text text-anchor="start" x="1578" y="-88.4" font-family="Arial" font-size="2.00"> </text>
<text text-anchor="start" x="1578" y="-82.4" font-family="Arial" font-size="7.00"> &#160;24</text>
<text text-anchor="start" x="1592" y="-65.8" font-family="Arial" font-weight="bold" font-size="14.00">Predict 26.63</text>
<text text-anchor="start" x="1614" y="-48.8" font-family="Arial" font-weight="bold" font-size="14.00">n = 17</text>
<text text-anchor="start" x="1632.5" y="-30.8" font-family="Arial" font-size="9.00"> </text>
<path fill="none" stroke="#333333" d="M1589,-27C1589,-27 1679,-27 1679,-27 1685,-27 1691,-33 1691,-39 1691,-39 1691,-79 1691,-79 1691,-85 1685,-91 1679,-91 1679,-91 1589,-91 1589,-91 1583,-91 1577,-85 1577,-79 1577,-79 1577,-39 1577,-39 1577,-33 1583,-27 1589,-27"/>
<text text-anchor="start" x="1632" y="-12.8" font-family="Arial" font-weight="bold" font-size="14.00"> </text>
</g>
<!-- 22&#45;&gt;24 -->
<g id="edge24" class="edge">
<title>22&#45;&gt;24</title>
<path fill="none" stroke="#888888" d="M1587.17,-153.67C1591.48,-145.03 1595.96,-136.07 1600.36,-127.27"/>
<polygon fill="#888888" stroke="#888888" points="1603.57,-128.69 1604.91,-118.18 1597.31,-125.56 1603.57,-128.69"/>
</g>
<!-- 26 -->
<g id="node26" class="node">
<title>26</title>
<text text-anchor="start" x="1772.5" y="-99.8" font-family="Arial" font-weight="bold" font-size="14.00"> &lt; 3.5</text>
<path fill="#f8766d" fill-opacity="0.454902" stroke="transparent" d="M1745,-27C1745,-27 1835,-27 1835,-27 1841,-27 1847,-33 1847,-39 1847,-39 1847,-79 1847,-79 1847,-85 1841,-91 1835,-91 1835,-91 1745,-91 1745,-91 1739,-91 1733,-85 1733,-79 1733,-79 1733,-39 1733,-39 1733,-33 1739,-27 1745,-27"/>
<text text-anchor="start" x="1734" y="-88.4" font-family="Arial" font-size="2.00"> </text>
<text text-anchor="start" x="1734" y="-82.4" font-family="Arial" font-size="7.00"> &#160;26</text>
<text text-anchor="start" x="1748" y="-65.8" font-family="Arial" font-weight="bold" font-size="14.00">Predict 31.08</text>
<text text-anchor="start" x="1770" y="-48.8" font-family="Arial" font-weight="bold" font-size="14.00">n = 26</text>
<text text-anchor="start" x="1788.5" y="-30.8" font-family="Arial" font-size="9.00"> </text>
<path fill="none" stroke="#333333" d="M1745,-27C1745,-27 1835,-27 1835,-27 1841,-27 1847,-33 1847,-39 1847,-39 1847,-79 1847,-79 1847,-85 1841,-91 1835,-91 1835,-91 1745,-91 1745,-91 1739,-91 1733,-85 1733,-79 1733,-79 1733,-39 1733,-39 1733,-33 1739,-27 1745,-27"/>
<text text-anchor="start" x="1788" y="-12.8" font-family="Arial" font-weight="bold" font-size="14.00"> </text>
</g>
<!-- 25&#45;&gt;26 -->
<g id="edge25" class="edge">
<title>25&#45;&gt;26</title>
<path fill="none" stroke="#888888" d="M1790,-153.67C1790,-145.39 1790,-136.83 1790,-128.38"/>
<polygon fill="#888888" stroke="#888888" points="1793.5,-128.18 1790,-118.18 1786.5,-128.18 1793.5,-128.18"/>
</g>
<!-- 27 -->
<g id="node27" class="node">
<title>27</title>
<text text-anchor="start" x="1929" y="-99.8" font-family="Arial" font-weight="bold" font-size="14.00"> ≥ 3.5</text>
<path fill="#f8766d" fill-opacity="0.376471" stroke="transparent" d="M1901,-27C1901,-27 1991,-27 1991,-27 1997,-27 2003,-33 2003,-39 2003,-39 2003,-79 2003,-79 2003,-85 1997,-91 1991,-91 1991,-91 1901,-91 1901,-91 1895,-91 1889,-85 1889,-79 1889,-79 1889,-39 1889,-39 1889,-33 1895,-27 1901,-27"/>
<text text-anchor="start" x="1890" y="-88.4" font-family="Arial" font-size="2.00"> </text>
<text text-anchor="start" x="1890" y="-82.4" font-family="Arial" font-size="7.00"> &#160;27</text>
<text text-anchor="start" x="1904" y="-65.8" font-family="Arial" font-weight="bold" font-size="14.00">Predict 33.31</text>
<text text-anchor="start" x="1930" y="-48.8" font-family="Arial" font-weight="bold" font-size="14.00">n = 9</text>
<text text-anchor="start" x="1944.5" y="-30.8" font-family="Arial" font-size="9.00"> </text>
<path fill="none" stroke="#333333" d="M1901,-27C1901,-27 1991,-27 1991,-27 1997,-27 2003,-33 2003,-39 2003,-39 2003,-79 2003,-79 2003,-85 1997,-91 1991,-91 1991,-91 1901,-91 1901,-91 1895,-91 1889,-85 1889,-79 1889,-79 1889,-39 1889,-39 1889,-33 1895,-27 1901,-27"/>
<text text-anchor="start" x="1944" y="-12.8" font-family="Arial" font-weight="bold" font-size="14.00"> </text>
</g>
<!-- 25&#45;&gt;27 -->
<g id="edge26" class="edge">
<title>25&#45;&gt;27</title>
<path fill="none" stroke="#888888" d="M1849.87,-153.67C1859.38,-144.39 1869.28,-134.75 1878.95,-125.33"/>
<polygon fill="#888888" stroke="#888888" points="1881.57,-127.66 1886.29,-118.18 1876.69,-122.65 1881.57,-127.66"/>
</g>
</g>
</svg>
