<?xml version="1.0" encoding="utf-8"?>
<svg xmlns="http://www.w3.org/2000/svg" xmlns:xlink="http://www.w3.org/1999/xlink" width="1000" height="400" viewBox="0 0 4000 1600">
<defs>
  <clipPath id="clip360">
    <rect x="0" y="0" width="4000" height="1600"/>
  </clipPath>
</defs>
<path clip-path="url(#clip360)" d="M0 1600 L4000 1600 L4000 0 L0 0  Z" fill="#ffffff" fill-rule="evenodd" fill-opacity="1"/>
<defs>
  <clipPath id="clip361">
    <rect x="800" y="0" width="2801" height="1600"/>
  </clipPath>
</defs>
<path clip-path="url(#clip360)" d="M206.379 1497.68 L3180.58 1497.68 L3180.58 47.2441 L206.379 47.2441  Z" fill="#ffffff" fill-rule="evenodd" fill-opacity="1"/>
<defs>
  <clipPath id="clip362">
    <rect x="206" y="47" width="2975" height="1451"/>
  </clipPath>
</defs>
<polyline clip-path="url(#clip362)" style="stroke:#000000; stroke-linecap:round; stroke-linejoin:round; stroke-width:2; stroke-opacity:0.1; fill:none" points="290.554,1497.68 290.554,47.2441 "/>
<polyline clip-path="url(#clip362)" style="stroke:#000000; stroke-linecap:round; stroke-linejoin:round; stroke-width:2; stroke-opacity:0.1; fill:none" points="1097.03,1497.68 1097.03,47.2441 "/>
<polyline clip-path="url(#clip362)" style="stroke:#000000; stroke-linecap:round; stroke-linejoin:round; stroke-width:2; stroke-opacity:0.1; fill:none" points="1903.5,1497.68 1903.5,47.2441 "/>
<polyline clip-path="url(#clip362)" style="stroke:#000000; stroke-linecap:round; stroke-linejoin:round; stroke-width:2; stroke-opacity:0.1; fill:none" points="2709.97,1497.68 2709.97,47.2441 "/>
<polyline clip-path="url(#clip360)" style="stroke:#000000; stroke-linecap:round; stroke-linejoin:round; stroke-width:4; stroke-opacity:1; fill:none" points="206.379,1497.68 3180.58,1497.68 "/>
<polyline clip-path="url(#clip360)" style="stroke:#000000; stroke-linecap:round; stroke-linejoin:round; stroke-width:4; stroke-opacity:1; fill:none" points="290.554,1497.68 290.554,1478.78 "/>
<polyline clip-path="url(#clip360)" style="stroke:#000000; stroke-linecap:round; stroke-linejoin:round; stroke-width:4; stroke-opacity:1; fill:none" points="1097.03,1497.68 1097.03,1478.78 "/>
<polyline clip-path="url(#clip360)" style="stroke:#000000; stroke-linecap:round; stroke-linejoin:round; stroke-width:4; stroke-opacity:1; fill:none" points="1903.5,1497.68 1903.5,1478.78 "/>
<polyline clip-path="url(#clip360)" style="stroke:#000000; stroke-linecap:round; stroke-linejoin:round; stroke-width:4; stroke-opacity:1; fill:none" points="2709.97,1497.68 2709.97,1478.78 "/>
<path clip-path="url(#clip360)" d="M145.542 1573.85 L163.901 1573.85 L163.901 1578.28 L139.214 1578.28 L139.214 1573.85 Q142.209 1570.75 147.365 1565.55 Q152.547 1560.31 153.875 1558.8 Q156.401 1555.96 157.391 1554.01 Q158.406 1552.03 158.406 1550.13 Q158.406 1547.03 156.219 1545.08 Q154.058 1543.12 150.568 1543.12 Q148.094 1543.12 145.334 1543.98 Q142.599 1544.84 139.474 1546.59 L139.474 1541.27 Q142.651 1540 145.412 1539.35 Q148.172 1538.7 150.464 1538.7 Q156.505 1538.7 160.099 1541.72 Q163.693 1544.74 163.693 1549.79 Q163.693 1552.19 162.781 1554.35 Q161.896 1556.48 159.526 1559.4 Q158.875 1560.15 155.386 1563.77 Q151.896 1567.37 145.542 1573.85 Z" fill="#000000" fill-rule="nonzero" fill-opacity="1" /><path clip-path="url(#clip360)" d="M186.193 1542.86 Q182.13 1542.86 180.073 1546.87 Q178.042 1550.86 178.042 1558.88 Q178.042 1566.87 180.073 1570.88 Q182.13 1574.87 186.193 1574.87 Q190.281 1574.87 192.313 1570.88 Q194.37 1566.87 194.37 1558.88 Q194.37 1550.86 192.313 1546.87 Q190.281 1542.86 186.193 1542.86 M186.193 1538.7 Q192.729 1538.7 196.167 1543.88 Q199.63 1549.04 199.63 1558.88 Q199.63 1568.7 196.167 1573.88 Q192.729 1579.04 186.193 1579.04 Q179.656 1579.04 176.193 1573.88 Q172.755 1568.7 172.755 1558.88 Q172.755 1549.04 176.193 1543.88 Q179.656 1538.7 186.193 1538.7 Z" fill="#000000" fill-rule="nonzero" fill-opacity="1" /><path clip-path="url(#clip360)" d="M213.406 1573.85 L231.765 1573.85 L231.765 1578.28 L207.078 1578.28 L207.078 1573.85 Q210.073 1570.75 215.229 1565.55 Q220.411 1560.31 221.739 1558.8 Q224.265 1555.96 225.255 1554.01 Q226.271 1552.03 226.271 1550.13 Q226.271 1547.03 224.083 1545.08 Q221.922 1543.12 218.432 1543.12 Q215.958 1543.12 213.198 1543.98 Q210.463 1544.84 207.339 1546.59 L207.339 1541.27 Q210.516 1540 213.276 1539.35 Q216.036 1538.7 218.328 1538.7 Q224.37 1538.7 227.963 1541.72 Q231.557 1544.74 231.557 1549.79 Q231.557 1552.19 230.646 1554.35 Q229.76 1556.48 227.39 1559.4 Q226.739 1560.15 223.25 1563.77 Q219.76 1567.37 213.406 1573.85 Z" fill="#000000" fill-rule="nonzero" fill-opacity="1" /><path clip-path="url(#clip360)" d="M258.744 1557.32 Q262.521 1558.12 264.63 1560.68 Q266.765 1563.23 266.765 1566.98 Q266.765 1572.73 262.807 1575.88 Q258.849 1579.04 251.557 1579.04 Q249.109 1579.04 246.505 1578.54 Q243.927 1578.07 241.166 1577.11 L241.166 1572.03 Q243.354 1573.31 245.958 1573.96 Q248.562 1574.61 251.401 1574.61 Q256.349 1574.61 258.927 1572.65 Q261.531 1570.7 261.531 1566.98 Q261.531 1563.54 259.109 1561.61 Q256.713 1559.66 252.416 1559.66 L247.885 1559.66 L247.885 1555.34 L252.625 1555.34 Q256.505 1555.34 258.562 1553.8 Q260.619 1552.24 260.619 1549.32 Q260.619 1546.33 258.484 1544.74 Q256.375 1543.12 252.416 1543.12 Q250.255 1543.12 247.781 1543.59 Q245.307 1544.06 242.338 1545.05 L242.338 1540.36 Q245.333 1539.53 247.937 1539.11 Q250.567 1538.7 252.885 1538.7 Q258.875 1538.7 262.364 1541.43 Q265.854 1544.14 265.854 1548.77 Q265.854 1552 264.005 1554.24 Q262.156 1556.46 258.744 1557.32 Z" fill="#000000" fill-rule="nonzero" fill-opacity="1" /><path clip-path="url(#clip360)" d="M273.64 1561.54 L287.677 1561.54 L287.677 1565.81 L273.64 1565.81 L273.64 1561.54 Z" fill="#000000" fill-rule="nonzero" fill-opacity="1" /><path clip-path="url(#clip360)" d="M307.234 1542.86 Q303.171 1542.86 301.114 1546.87 Q299.083 1550.86 299.083 1558.88 Q299.083 1566.87 301.114 1570.88 Q303.171 1574.87 307.234 1574.87 Q311.322 1574.87 313.354 1570.88 Q315.411 1566.87 315.411 1558.88 Q315.411 1550.86 313.354 1546.87 Q311.322 1542.86 307.234 1542.86 M307.234 1538.7 Q313.77 1538.7 317.208 1543.88 Q320.671 1549.04 320.671 1558.88 Q320.671 1568.7 317.208 1573.88 Q313.77 1579.04 307.234 1579.04 Q300.697 1579.04 297.234 1573.88 Q293.796 1568.7 293.796 1558.88 Q293.796 1549.04 297.234 1543.88 Q300.697 1538.7 307.234 1538.7 Z" fill="#000000" fill-rule="nonzero" fill-opacity="1" /><path clip-path="url(#clip360)" d="M330.827 1573.85 L339.421 1573.85 L339.421 1544.19 L330.072 1546.07 L330.072 1541.27 L339.369 1539.4 L344.629 1539.4 L344.629 1573.85 L353.223 1573.85 L353.223 1578.28 L330.827 1578.28 L330.827 1573.85 Z" fill="#000000" fill-rule="nonzero" fill-opacity="1" /><path clip-path="url(#clip360)" d="M360.749 1561.54 L374.786 1561.54 L374.786 1565.81 L360.749 1565.81 L360.749 1561.54 Z" fill="#000000" fill-rule="nonzero" fill-opacity="1" /><path clip-path="url(#clip360)" d="M384.004 1573.85 L392.598 1573.85 L392.598 1544.19 L383.249 1546.07 L383.249 1541.27 L392.546 1539.4 L397.806 1539.4 L397.806 1573.85 L406.4 1573.85 L406.4 1578.28 L384.004 1578.28 L384.004 1573.85 Z" fill="#000000" fill-rule="nonzero" fill-opacity="1" /><path clip-path="url(#clip360)" d="M428.926 1556.74 Q425.384 1556.74 423.301 1559.17 Q421.244 1561.59 421.244 1565.81 Q421.244 1570 423.301 1572.45 Q425.384 1574.87 428.926 1574.87 Q432.468 1574.87 434.525 1572.45 Q436.608 1570 436.608 1565.81 Q436.608 1561.59 434.525 1559.17 Q432.468 1556.74 428.926 1556.74 M439.369 1540.26 L439.369 1545.05 Q437.389 1544.11 435.358 1543.62 Q433.353 1543.12 431.374 1543.12 Q426.165 1543.12 423.405 1546.64 Q420.671 1550.16 420.28 1557.26 Q421.817 1555 424.134 1553.8 Q426.452 1552.58 429.238 1552.58 Q435.098 1552.58 438.483 1556.14 Q441.895 1559.69 441.895 1565.81 Q441.895 1571.8 438.353 1575.42 Q434.811 1579.04 428.926 1579.04 Q422.181 1579.04 418.613 1573.88 Q415.046 1568.7 415.046 1558.88 Q415.046 1549.66 419.421 1544.19 Q423.796 1538.7 431.165 1538.7 Q433.145 1538.7 435.15 1539.09 Q437.181 1539.48 439.369 1540.26 Z" fill="#000000" fill-rule="nonzero" fill-opacity="1" /><path clip-path="url(#clip360)" d="M952.158 1573.85 L970.518 1573.85 L970.518 1578.28 L945.83 1578.28 L945.83 1573.85 Q948.825 1570.75 953.981 1565.55 Q959.163 1560.31 960.492 1558.8 Q963.018 1555.96 964.007 1554.01 Q965.023 1552.03 965.023 1550.13 Q965.023 1547.03 962.835 1545.08 Q960.674 1543.12 957.184 1543.12 Q954.71 1543.12 951.95 1543.98 Q949.216 1544.84 946.091 1546.59 L946.091 1541.27 Q949.268 1540 952.028 1539.35 Q954.788 1538.7 957.08 1538.7 Q963.122 1538.7 966.715 1541.72 Q970.309 1544.74 970.309 1549.79 Q970.309 1552.19 969.398 1554.35 Q968.512 1556.48 966.143 1559.4 Q965.492 1560.15 962.002 1563.77 Q958.512 1567.37 952.158 1573.85 Z" fill="#000000" fill-rule="nonzero" fill-opacity="1" /><path clip-path="url(#clip360)" d="M992.809 1542.86 Q988.747 1542.86 986.689 1546.87 Q984.658 1550.86 984.658 1558.88 Q984.658 1566.87 986.689 1570.88 Q988.747 1574.87 992.809 1574.87 Q996.898 1574.87 998.929 1570.88 Q1000.99 1566.87 1000.99 1558.88 Q1000.99 1550.86 998.929 1546.87 Q996.898 1542.86 992.809 1542.86 M992.809 1538.7 Q999.346 1538.7 1002.78 1543.88 Q1006.25 1549.04 1006.25 1558.88 Q1006.25 1568.7 1002.78 1573.88 Q999.346 1579.04 992.809 1579.04 Q986.273 1579.04 982.809 1573.88 Q979.372 1568.7 979.372 1558.88 Q979.372 1549.04 982.809 1543.88 Q986.273 1538.7 992.809 1538.7 Z" fill="#000000" fill-rule="nonzero" fill-opacity="1" /><path clip-path="url(#clip360)" d="M1020.02 1573.85 L1038.38 1573.85 L1038.38 1578.28 L1013.69 1578.28 L1013.69 1573.85 Q1016.69 1570.75 1021.85 1565.55 Q1027.03 1560.31 1028.36 1558.8 Q1030.88 1555.96 1031.87 1554.01 Q1032.89 1552.03 1032.89 1550.13 Q1032.89 1547.03 1030.7 1545.08 Q1028.54 1543.12 1025.05 1543.12 Q1022.57 1543.12 1019.81 1543.98 Q1017.08 1544.84 1013.95 1546.59 L1013.95 1541.27 Q1017.13 1540 1019.89 1539.35 Q1022.65 1538.7 1024.94 1538.7 Q1030.99 1538.7 1034.58 1541.72 Q1038.17 1544.74 1038.17 1549.79 Q1038.17 1552.19 1037.26 1554.35 Q1036.38 1556.48 1034.01 1559.4 Q1033.36 1560.15 1029.87 1563.77 Q1026.38 1567.37 1020.02 1573.85 Z" fill="#000000" fill-rule="nonzero" fill-opacity="1" /><path clip-path="url(#clip360)" d="M1065.36 1557.32 Q1069.14 1558.12 1071.25 1560.68 Q1073.38 1563.23 1073.38 1566.98 Q1073.38 1572.73 1069.42 1575.88 Q1065.46 1579.04 1058.17 1579.04 Q1055.73 1579.04 1053.12 1578.54 Q1050.54 1578.07 1047.78 1577.11 L1047.78 1572.03 Q1049.97 1573.31 1052.57 1573.96 Q1055.18 1574.61 1058.02 1574.61 Q1062.96 1574.61 1065.54 1572.65 Q1068.15 1570.7 1068.15 1566.98 Q1068.15 1563.54 1065.73 1561.61 Q1063.33 1559.66 1059.03 1559.66 L1054.5 1559.66 L1054.5 1555.34 L1059.24 1555.34 Q1063.12 1555.34 1065.18 1553.8 Q1067.24 1552.24 1067.24 1549.32 Q1067.24 1546.33 1065.1 1544.74 Q1062.99 1543.12 1059.03 1543.12 Q1056.87 1543.12 1054.4 1543.59 Q1051.92 1544.06 1048.95 1545.05 L1048.95 1540.36 Q1051.95 1539.53 1054.55 1539.11 Q1057.18 1538.7 1059.5 1538.7 Q1065.49 1538.7 1068.98 1541.43 Q1072.47 1544.14 1072.47 1548.77 Q1072.47 1552 1070.62 1554.24 Q1068.77 1556.46 1065.36 1557.32 Z" fill="#000000" fill-rule="nonzero" fill-opacity="1" /><path clip-path="url(#clip360)" d="M1080.26 1561.54 L1094.29 1561.54 L1094.29 1565.81 L1080.26 1565.81 L1080.26 1561.54 Z" fill="#000000" fill-rule="nonzero" fill-opacity="1" /><path clip-path="url(#clip360)" d="M1113.85 1542.86 Q1109.79 1542.86 1107.73 1546.87 Q1105.7 1550.86 1105.7 1558.88 Q1105.7 1566.87 1107.73 1570.88 Q1109.79 1574.87 1113.85 1574.87 Q1117.94 1574.87 1119.97 1570.88 Q1122.03 1566.87 1122.03 1558.88 Q1122.03 1550.86 1119.97 1546.87 Q1117.94 1542.86 1113.85 1542.86 M1113.85 1538.7 Q1120.39 1538.7 1123.82 1543.88 Q1127.29 1549.04 1127.29 1558.88 Q1127.29 1568.7 1123.82 1573.88 Q1120.39 1579.04 1113.85 1579.04 Q1107.31 1579.04 1103.85 1573.88 Q1100.41 1568.7 1100.41 1558.88 Q1100.41 1549.04 1103.85 1543.88 Q1107.31 1538.7 1113.85 1538.7 Z" fill="#000000" fill-rule="nonzero" fill-opacity="1" /><path clip-path="url(#clip360)" d="M1137.44 1573.85 L1146.04 1573.85 L1146.04 1544.19 L1136.69 1546.07 L1136.69 1541.27 L1145.99 1539.4 L1151.25 1539.4 L1151.25 1573.85 L1159.84 1573.85 L1159.84 1578.28 L1137.44 1578.28 L1137.44 1573.85 Z" fill="#000000" fill-rule="nonzero" fill-opacity="1" /><path clip-path="url(#clip360)" d="M1167.37 1561.54 L1181.4 1561.54 L1181.4 1565.81 L1167.37 1565.81 L1167.37 1561.54 Z" fill="#000000" fill-rule="nonzero" fill-opacity="1" /><path clip-path="url(#clip360)" d="M1190.62 1573.85 L1199.21 1573.85 L1199.21 1544.19 L1189.87 1546.07 L1189.87 1541.27 L1199.16 1539.4 L1204.42 1539.4 L1204.42 1573.85 L1213.02 1573.85 L1213.02 1578.28 L1190.62 1578.28 L1190.62 1573.85 Z" fill="#000000" fill-rule="nonzero" fill-opacity="1" /><path clip-path="url(#clip360)" d="M1234.89 1559.82 Q1231.14 1559.82 1228.98 1561.82 Q1226.84 1563.83 1226.84 1567.34 Q1226.84 1570.86 1228.98 1572.86 Q1231.14 1574.87 1234.89 1574.87 Q1238.64 1574.87 1240.8 1572.86 Q1242.96 1570.83 1242.96 1567.34 Q1242.96 1563.83 1240.8 1561.82 Q1238.67 1559.82 1234.89 1559.82 M1229.63 1557.58 Q1226.25 1556.74 1224.34 1554.43 Q1222.47 1552.11 1222.47 1548.77 Q1222.47 1544.11 1225.78 1541.41 Q1229.11 1538.7 1234.89 1538.7 Q1240.7 1538.7 1244.01 1541.41 Q1247.31 1544.11 1247.31 1548.77 Q1247.31 1552.11 1245.41 1554.43 Q1243.54 1556.74 1240.18 1557.58 Q1243.98 1558.46 1246.09 1561.04 Q1248.22 1563.62 1248.22 1567.34 Q1248.22 1572.99 1244.76 1576.01 Q1241.32 1579.04 1234.89 1579.04 Q1228.46 1579.04 1225 1576.01 Q1221.56 1572.99 1221.56 1567.34 Q1221.56 1563.62 1223.69 1561.04 Q1225.83 1558.46 1229.63 1557.58 M1227.7 1549.27 Q1227.7 1552.29 1229.58 1553.98 Q1231.48 1555.68 1234.89 1555.68 Q1238.28 1555.68 1240.18 1553.98 Q1242.1 1552.29 1242.1 1549.27 Q1242.1 1546.25 1240.18 1544.56 Q1238.28 1542.86 1234.89 1542.86 Q1231.48 1542.86 1229.58 1544.56 Q1227.7 1546.25 1227.7 1549.27 Z" fill="#000000" fill-rule="nonzero" fill-opacity="1" /><path clip-path="url(#clip360)" d="M1758.58 1573.85 L1776.94 1573.85 L1776.94 1578.28 L1752.25 1578.28 L1752.25 1573.85 Q1755.25 1570.75 1760.4 1565.55 Q1765.58 1560.31 1766.91 1558.8 Q1769.44 1555.96 1770.43 1554.01 Q1771.44 1552.03 1771.44 1550.13 Q1771.44 1547.03 1769.26 1545.08 Q1767.09 1543.12 1763.61 1543.12 Q1761.13 1543.12 1758.37 1543.98 Q1755.64 1544.84 1752.51 1546.59 L1752.51 1541.27 Q1755.69 1540 1758.45 1539.35 Q1761.21 1538.7 1763.5 1538.7 Q1769.54 1538.7 1773.14 1541.72 Q1776.73 1544.74 1776.73 1549.79 Q1776.73 1552.19 1775.82 1554.35 Q1774.93 1556.48 1772.56 1559.4 Q1771.91 1560.15 1768.42 1563.77 Q1764.93 1567.37 1758.58 1573.85 Z" fill="#000000" fill-rule="nonzero" fill-opacity="1" /><path clip-path="url(#clip360)" d="M1799.23 1542.86 Q1795.17 1542.86 1793.11 1546.87 Q1791.08 1550.86 1791.08 1558.88 Q1791.08 1566.87 1793.11 1570.88 Q1795.17 1574.87 1799.23 1574.87 Q1803.32 1574.87 1805.35 1570.88 Q1807.41 1566.87 1807.41 1558.88 Q1807.41 1550.86 1805.35 1546.87 Q1803.32 1542.86 1799.23 1542.86 M1799.23 1538.7 Q1805.77 1538.7 1809.2 1543.88 Q1812.67 1549.04 1812.67 1558.88 Q1812.67 1568.7 1809.2 1573.88 Q1805.77 1579.04 1799.23 1579.04 Q1792.69 1579.04 1789.23 1573.88 Q1785.79 1568.7 1785.79 1558.88 Q1785.79 1549.04 1789.23 1543.88 Q1792.69 1538.7 1799.23 1538.7 Z" fill="#000000" fill-rule="nonzero" fill-opacity="1" /><path clip-path="url(#clip360)" d="M1826.44 1573.85 L1844.8 1573.85 L1844.8 1578.28 L1820.12 1578.28 L1820.12 1573.85 Q1823.11 1570.75 1828.27 1565.55 Q1833.45 1560.31 1834.78 1558.8 Q1837.3 1555.96 1838.29 1554.01 Q1839.31 1552.03 1839.31 1550.13 Q1839.31 1547.03 1837.12 1545.08 Q1834.96 1543.12 1831.47 1543.12 Q1829 1543.12 1826.24 1543.98 Q1823.5 1544.84 1820.38 1546.59 L1820.38 1541.27 Q1823.55 1540 1826.31 1539.35 Q1829.07 1538.7 1831.37 1538.7 Q1837.41 1538.7 1841 1541.72 Q1844.59 1544.74 1844.59 1549.79 Q1844.59 1552.19 1843.68 1554.35 Q1842.8 1556.48 1840.43 1559.4 Q1839.78 1560.15 1836.29 1563.77 Q1832.8 1567.37 1826.44 1573.85 Z" fill="#000000" fill-rule="nonzero" fill-opacity="1" /><path clip-path="url(#clip360)" d="M1871.78 1557.32 Q1875.56 1558.12 1877.67 1560.68 Q1879.8 1563.23 1879.8 1566.98 Q1879.8 1572.73 1875.84 1575.88 Q1871.89 1579.04 1864.59 1579.04 Q1862.15 1579.04 1859.54 1578.54 Q1856.96 1578.07 1854.2 1577.11 L1854.2 1572.03 Q1856.39 1573.31 1859 1573.96 Q1861.6 1574.61 1864.44 1574.61 Q1869.39 1574.61 1871.96 1572.65 Q1874.57 1570.7 1874.57 1566.98 Q1874.57 1563.54 1872.15 1561.61 Q1869.75 1559.66 1865.45 1559.66 L1860.92 1559.66 L1860.92 1555.34 L1865.66 1555.34 Q1869.54 1555.34 1871.6 1553.8 Q1873.66 1552.24 1873.66 1549.32 Q1873.66 1546.33 1871.52 1544.74 Q1869.41 1543.12 1865.45 1543.12 Q1863.29 1543.12 1860.82 1543.59 Q1858.34 1544.06 1855.38 1545.05 L1855.38 1540.36 Q1858.37 1539.53 1860.97 1539.11 Q1863.6 1538.7 1865.92 1538.7 Q1871.91 1538.7 1875.4 1541.43 Q1878.89 1544.14 1878.89 1548.77 Q1878.89 1552 1877.04 1554.24 Q1875.19 1556.46 1871.78 1557.32 Z" fill="#000000" fill-rule="nonzero" fill-opacity="1" /><path clip-path="url(#clip360)" d="M1886.68 1561.54 L1900.71 1561.54 L1900.71 1565.81 L1886.68 1565.81 L1886.68 1561.54 Z" fill="#000000" fill-rule="nonzero" fill-opacity="1" /><path clip-path="url(#clip360)" d="M1920.27 1542.86 Q1916.21 1542.86 1914.15 1546.87 Q1912.12 1550.86 1912.12 1558.88 Q1912.12 1566.87 1914.15 1570.88 Q1916.21 1574.87 1920.27 1574.87 Q1924.36 1574.87 1926.39 1570.88 Q1928.45 1566.87 1928.45 1558.88 Q1928.45 1550.86 1926.39 1546.87 Q1924.36 1542.86 1920.27 1542.86 M1920.27 1538.7 Q1926.81 1538.7 1930.25 1543.88 Q1933.71 1549.04 1933.71 1558.88 Q1933.71 1568.7 1930.25 1573.88 Q1926.81 1579.04 1920.27 1579.04 Q1913.73 1579.04 1910.27 1573.88 Q1906.83 1568.7 1906.83 1558.88 Q1906.83 1549.04 1910.27 1543.88 Q1913.73 1538.7 1920.27 1538.7 Z" fill="#000000" fill-rule="nonzero" fill-opacity="1" /><path clip-path="url(#clip360)" d="M1943.86 1573.85 L1952.46 1573.85 L1952.46 1544.19 L1943.11 1546.07 L1943.11 1541.27 L1952.41 1539.4 L1957.67 1539.4 L1957.67 1573.85 L1966.26 1573.85 L1966.26 1578.28 L1943.86 1578.28 L1943.86 1573.85 Z" fill="#000000" fill-rule="nonzero" fill-opacity="1" /><path clip-path="url(#clip360)" d="M1973.79 1561.54 L1987.82 1561.54 L1987.82 1565.81 L1973.79 1565.81 L1973.79 1561.54 Z" fill="#000000" fill-rule="nonzero" fill-opacity="1" /><path clip-path="url(#clip360)" d="M2000.66 1573.85 L2019.02 1573.85 L2019.02 1578.28 L1994.33 1578.28 L1994.33 1573.85 Q1997.33 1570.75 2002.48 1565.55 Q2007.67 1560.31 2008.99 1558.8 Q2011.52 1555.96 2012.51 1554.01 Q2013.53 1552.03 2013.53 1550.13 Q2013.53 1547.03 2011.34 1545.08 Q2009.18 1543.12 2005.69 1543.12 Q2003.21 1543.12 2000.45 1543.98 Q1997.72 1544.84 1994.59 1546.59 L1994.59 1541.27 Q1997.77 1540 2000.53 1539.35 Q2003.29 1538.7 2005.58 1538.7 Q2011.62 1538.7 2015.22 1541.72 Q2018.81 1544.74 2018.81 1549.79 Q2018.81 1552.19 2017.9 1554.35 Q2017.02 1556.48 2014.65 1559.4 Q2013.99 1560.15 2010.51 1563.77 Q2007.02 1567.37 2000.66 1573.85 Z" fill="#000000" fill-rule="nonzero" fill-opacity="1" /><path clip-path="url(#clip360)" d="M2041.31 1542.86 Q2037.25 1542.86 2035.19 1546.87 Q2033.16 1550.86 2033.16 1558.88 Q2033.16 1566.87 2035.19 1570.88 Q2037.25 1574.87 2041.31 1574.87 Q2045.4 1574.87 2047.43 1570.88 Q2049.49 1566.87 2049.49 1558.88 Q2049.49 1550.86 2047.43 1546.87 Q2045.4 1542.86 2041.31 1542.86 M2041.31 1538.7 Q2047.85 1538.7 2051.29 1543.88 Q2054.75 1549.04 2054.75 1558.88 Q2054.75 1568.7 2051.29 1573.88 Q2047.85 1579.04 2041.31 1579.04 Q2034.78 1579.04 2031.31 1573.88 Q2027.87 1568.7 2027.87 1558.88 Q2027.87 1549.04 2031.31 1543.88 Q2034.78 1538.7 2041.31 1538.7 Z" fill="#000000" fill-rule="nonzero" fill-opacity="1" /><path clip-path="url(#clip360)" d="M2565.95 1573.85 L2584.31 1573.85 L2584.31 1578.28 L2559.62 1578.28 L2559.62 1573.85 Q2562.62 1570.75 2567.77 1565.55 Q2572.96 1560.31 2574.28 1558.8 Q2576.81 1555.96 2577.8 1554.01 Q2578.82 1552.03 2578.82 1550.13 Q2578.82 1547.03 2576.63 1545.08 Q2574.47 1543.12 2570.98 1543.12 Q2568.5 1543.12 2565.74 1543.98 Q2563.01 1544.84 2559.88 1546.59 L2559.88 1541.27 Q2563.06 1540 2565.82 1539.35 Q2568.58 1538.7 2570.87 1538.7 Q2576.91 1538.7 2580.51 1541.72 Q2584.1 1544.74 2584.1 1549.79 Q2584.1 1552.19 2583.19 1554.35 Q2582.3 1556.48 2579.94 1559.4 Q2579.28 1560.15 2575.79 1563.77 Q2572.3 1567.37 2565.95 1573.85 Z" fill="#000000" fill-rule="nonzero" fill-opacity="1" /><path clip-path="url(#clip360)" d="M2606.6 1542.86 Q2602.54 1542.86 2600.48 1546.87 Q2598.45 1550.86 2598.45 1558.88 Q2598.45 1566.87 2600.48 1570.88 Q2602.54 1574.87 2606.6 1574.87 Q2610.69 1574.87 2612.72 1570.88 Q2614.78 1566.87 2614.78 1558.88 Q2614.78 1550.86 2612.72 1546.87 Q2610.69 1542.86 2606.6 1542.86 M2606.6 1538.7 Q2613.14 1538.7 2616.58 1543.88 Q2620.04 1549.04 2620.04 1558.88 Q2620.04 1568.7 2616.58 1573.88 Q2613.14 1579.04 2606.6 1579.04 Q2600.07 1579.04 2596.6 1573.88 Q2593.16 1568.7 2593.16 1558.88 Q2593.16 1549.04 2596.6 1543.88 Q2600.07 1538.7 2606.6 1538.7 Z" fill="#000000" fill-rule="nonzero" fill-opacity="1" /><path clip-path="url(#clip360)" d="M2633.82 1573.85 L2652.17 1573.85 L2652.17 1578.28 L2627.49 1578.28 L2627.49 1573.85 Q2630.48 1570.75 2635.64 1565.55 Q2640.82 1560.31 2642.15 1558.8 Q2644.67 1555.96 2645.66 1554.01 Q2646.68 1552.03 2646.68 1550.13 Q2646.68 1547.03 2644.49 1545.08 Q2642.33 1543.12 2638.84 1543.12 Q2636.37 1543.12 2633.61 1543.98 Q2630.87 1544.84 2627.75 1546.59 L2627.75 1541.27 Q2630.92 1540 2633.68 1539.35 Q2636.45 1538.7 2638.74 1538.7 Q2644.78 1538.7 2648.37 1541.72 Q2651.97 1544.74 2651.97 1549.79 Q2651.97 1552.19 2651.05 1554.35 Q2650.17 1556.48 2647.8 1559.4 Q2647.15 1560.15 2643.66 1563.77 Q2640.17 1567.37 2633.82 1573.85 Z" fill="#000000" fill-rule="nonzero" fill-opacity="1" /><path clip-path="url(#clip360)" d="M2679.15 1557.32 Q2682.93 1558.12 2685.04 1560.68 Q2687.17 1563.23 2687.17 1566.98 Q2687.17 1572.73 2683.22 1575.88 Q2679.26 1579.04 2671.97 1579.04 Q2669.52 1579.04 2666.91 1578.54 Q2664.34 1578.07 2661.58 1577.11 L2661.58 1572.03 Q2663.76 1573.31 2666.37 1573.96 Q2668.97 1574.61 2671.81 1574.61 Q2676.76 1574.61 2679.34 1572.65 Q2681.94 1570.7 2681.94 1566.98 Q2681.94 1563.54 2679.52 1561.61 Q2677.12 1559.66 2672.83 1559.66 L2668.29 1559.66 L2668.29 1555.34 L2673.03 1555.34 Q2676.91 1555.34 2678.97 1553.8 Q2681.03 1552.24 2681.03 1549.32 Q2681.03 1546.33 2678.89 1544.74 Q2676.78 1543.12 2672.83 1543.12 Q2670.66 1543.12 2668.19 1543.59 Q2665.72 1544.06 2662.75 1545.05 L2662.75 1540.36 Q2665.74 1539.53 2668.35 1539.11 Q2670.98 1538.7 2673.29 1538.7 Q2679.28 1538.7 2682.77 1541.43 Q2686.26 1544.14 2686.26 1548.77 Q2686.26 1552 2684.41 1554.24 Q2682.56 1556.46 2679.15 1557.32 Z" fill="#000000" fill-rule="nonzero" fill-opacity="1" /><path clip-path="url(#clip360)" d="M2694.05 1561.54 L2708.09 1561.54 L2708.09 1565.81 L2694.05 1565.81 L2694.05 1561.54 Z" fill="#000000" fill-rule="nonzero" fill-opacity="1" /><path clip-path="url(#clip360)" d="M2727.64 1542.86 Q2723.58 1542.86 2721.52 1546.87 Q2719.49 1550.86 2719.49 1558.88 Q2719.49 1566.87 2721.52 1570.88 Q2723.58 1574.87 2727.64 1574.87 Q2731.73 1574.87 2733.76 1570.88 Q2735.82 1566.87 2735.82 1558.88 Q2735.82 1550.86 2733.76 1546.87 Q2731.73 1542.86 2727.64 1542.86 M2727.64 1538.7 Q2734.18 1538.7 2737.62 1543.88 Q2741.08 1549.04 2741.08 1558.88 Q2741.08 1568.7 2737.62 1573.88 Q2734.18 1579.04 2727.64 1579.04 Q2721.11 1579.04 2717.64 1573.88 Q2714.21 1568.7 2714.21 1558.88 Q2714.21 1549.04 2717.64 1543.88 Q2721.11 1538.7 2727.64 1538.7 Z" fill="#000000" fill-rule="nonzero" fill-opacity="1" /><path clip-path="url(#clip360)" d="M2751.24 1573.85 L2759.83 1573.85 L2759.83 1544.19 L2750.48 1546.07 L2750.48 1541.27 L2759.78 1539.4 L2765.04 1539.4 L2765.04 1573.85 L2773.63 1573.85 L2773.63 1578.28 L2751.24 1578.28 L2751.24 1573.85 Z" fill="#000000" fill-rule="nonzero" fill-opacity="1" /><path clip-path="url(#clip360)" d="M2781.16 1561.54 L2795.19 1561.54 L2795.19 1565.81 L2781.16 1565.81 L2781.16 1561.54 Z" fill="#000000" fill-rule="nonzero" fill-opacity="1" /><path clip-path="url(#clip360)" d="M2808.03 1573.85 L2826.39 1573.85 L2826.39 1578.28 L2801.7 1578.28 L2801.7 1573.85 Q2804.7 1570.75 2809.86 1565.55 Q2815.04 1560.31 2816.37 1558.8 Q2818.89 1555.96 2819.88 1554.01 Q2820.9 1552.03 2820.9 1550.13 Q2820.9 1547.03 2818.71 1545.08 Q2816.55 1543.12 2813.06 1543.12 Q2810.58 1543.12 2807.82 1543.98 Q2805.09 1544.84 2801.97 1546.59 L2801.97 1541.27 Q2805.14 1540 2807.9 1539.35 Q2810.66 1538.7 2812.95 1538.7 Q2819 1538.7 2822.59 1541.72 Q2826.18 1544.74 2826.18 1549.79 Q2826.18 1552.19 2825.27 1554.35 Q2824.39 1556.48 2822.02 1559.4 Q2821.37 1560.15 2817.88 1563.77 Q2814.39 1567.37 2808.03 1573.85 Z" fill="#000000" fill-rule="nonzero" fill-opacity="1" /><path clip-path="url(#clip360)" d="M2841.96 1573.85 L2860.32 1573.85 L2860.32 1578.28 L2835.64 1578.28 L2835.64 1573.85 Q2838.63 1570.75 2843.79 1565.55 Q2848.97 1560.31 2850.3 1558.8 Q2852.82 1555.96 2853.81 1554.01 Q2854.83 1552.03 2854.83 1550.13 Q2854.83 1547.03 2852.64 1545.08 Q2850.48 1543.12 2846.99 1543.12 Q2844.52 1543.12 2841.76 1543.98 Q2839.02 1544.84 2835.9 1546.59 L2835.9 1541.27 Q2839.07 1540 2841.83 1539.35 Q2844.6 1538.7 2846.89 1538.7 Q2852.93 1538.7 2856.52 1541.72 Q2860.12 1544.74 2860.12 1549.79 Q2860.12 1552.19 2859.2 1554.35 Q2858.32 1556.48 2855.95 1559.4 Q2855.3 1560.15 2851.81 1563.77 Q2848.32 1567.37 2841.96 1573.85 Z" fill="#000000" fill-rule="nonzero" fill-opacity="1" /><polyline clip-path="url(#clip362)" style="stroke:#000000; stroke-linecap:round; stroke-linejoin:round; stroke-width:2; stroke-opacity:0.1; fill:none" points="206.379,1193.49 3180.58,1193.49 "/>
<polyline clip-path="url(#clip362)" style="stroke:#000000; stroke-linecap:round; stroke-linejoin:round; stroke-width:2; stroke-opacity:0.1; fill:none" points="206.379,862.13 3180.58,862.13 "/>
<polyline clip-path="url(#clip362)" style="stroke:#000000; stroke-linecap:round; stroke-linejoin:round; stroke-width:2; stroke-opacity:0.1; fill:none" points="206.379,530.774 3180.58,530.774 "/>
<polyline clip-path="url(#clip362)" style="stroke:#000000; stroke-linecap:round; stroke-linejoin:round; stroke-width:2; stroke-opacity:0.1; fill:none" points="206.379,199.417 3180.58,199.417 "/>
<polyline clip-path="url(#clip360)" style="stroke:#000000; stroke-linecap:round; stroke-linejoin:round; stroke-width:4; stroke-opacity:1; fill:none" points="206.379,1497.68 206.379,47.2441 "/>
<polyline clip-path="url(#clip360)" style="stroke:#000000; stroke-linecap:round; stroke-linejoin:round; stroke-width:4; stroke-opacity:1; fill:none" points="206.379,1193.49 221.381,1193.49 "/>
<polyline clip-path="url(#clip360)" style="stroke:#000000; stroke-linecap:round; stroke-linejoin:round; stroke-width:4; stroke-opacity:1; fill:none" points="206.379,862.13 221.381,862.13 "/>
<polyline clip-path="url(#clip360)" style="stroke:#000000; stroke-linecap:round; stroke-linejoin:round; stroke-width:4; stroke-opacity:1; fill:none" points="206.379,530.774 221.381,530.774 "/>
<polyline clip-path="url(#clip360)" style="stroke:#000000; stroke-linecap:round; stroke-linejoin:round; stroke-width:4; stroke-opacity:1; fill:none" points="206.379,199.417 221.381,199.417 "/>
<path clip-path="url(#clip360)" d="M93.4101 1208.5 L111.769 1208.5 L111.769 1212.93 L87.082 1212.93 L87.082 1208.5 Q90.0768 1205.4 95.233 1200.19 Q100.415 1194.96 101.743 1193.45 Q104.269 1190.61 105.259 1188.66 Q106.275 1186.68 106.275 1184.78 Q106.275 1181.68 104.087 1179.72 Q101.926 1177.77 98.4361 1177.77 Q95.9622 1177.77 93.2018 1178.63 Q90.4674 1179.49 87.3424 1181.23 L87.3424 1175.92 Q90.5195 1174.65 93.2799 1173.99 Q96.0403 1173.34 98.332 1173.34 Q104.374 1173.34 107.967 1176.36 Q111.561 1179.39 111.561 1184.44 Q111.561 1186.83 110.65 1188.99 Q109.764 1191.13 107.394 1194.05 Q106.743 1194.8 103.254 1198.42 Q99.7642 1202.02 93.4101 1208.5 Z" fill="#000000" fill-rule="nonzero" fill-opacity="1" /><path clip-path="url(#clip360)" d="M122.863 1174.05 L143.514 1174.05 L143.514 1178.47 L127.681 1178.47 L127.681 1188.01 Q128.827 1187.61 129.972 1187.43 Q131.118 1187.22 132.264 1187.22 Q138.774 1187.22 142.577 1190.79 Q146.379 1194.36 146.379 1200.45 Q146.379 1206.73 142.472 1210.22 Q138.566 1213.68 131.457 1213.68 Q129.009 1213.68 126.457 1213.27 Q123.931 1212.85 121.222 1212.02 L121.222 1206.73 Q123.566 1208 126.066 1208.63 Q128.566 1209.25 131.353 1209.25 Q135.858 1209.25 138.488 1206.89 Q141.118 1204.52 141.118 1200.45 Q141.118 1196.39 138.488 1194.02 Q135.858 1191.65 131.353 1191.65 Q129.243 1191.65 127.134 1192.12 Q125.051 1192.59 122.863 1193.58 L122.863 1174.05 Z" fill="#000000" fill-rule="nonzero" fill-opacity="1" /><path clip-path="url(#clip360)" d="M103.697 860.607 Q107.473 861.414 109.582 863.966 Q111.717 866.518 111.717 870.268 Q111.717 876.023 107.759 879.174 Q103.801 882.325 96.5091 882.325 Q94.0611 882.325 91.457 881.831 Q88.8789 881.362 86.1185 880.398 L86.1185 875.32 Q88.306 876.596 90.9101 877.247 Q93.5143 877.898 96.3528 877.898 Q101.301 877.898 103.879 875.945 Q106.483 873.992 106.483 870.268 Q106.483 866.831 104.061 864.904 Q101.665 862.951 97.3684 862.951 L92.8372 862.951 L92.8372 858.628 L97.5768 858.628 Q101.457 858.628 103.514 857.091 Q105.572 855.529 105.572 852.612 Q105.572 849.617 103.436 848.029 Q101.327 846.414 97.3684 846.414 Q95.207 846.414 92.733 846.883 Q90.2591 847.352 87.2904 848.341 L87.2904 843.654 Q90.2851 842.821 92.8893 842.404 Q95.5195 841.987 97.8372 841.987 Q103.827 841.987 107.316 844.722 Q110.806 847.43 110.806 852.065 Q110.806 855.294 108.957 857.534 Q107.108 859.747 103.697 860.607 Z" fill="#000000" fill-rule="nonzero" fill-opacity="1" /><path clip-path="url(#clip360)" d="M132.941 846.154 Q128.879 846.154 126.821 850.164 Q124.79 854.149 124.79 862.169 Q124.79 870.164 126.821 874.175 Q128.879 878.159 132.941 878.159 Q137.03 878.159 139.061 874.175 Q141.118 870.164 141.118 862.169 Q141.118 854.149 139.061 850.164 Q137.03 846.154 132.941 846.154 M132.941 841.987 Q139.478 841.987 142.915 847.169 Q146.379 852.326 146.379 862.169 Q146.379 871.987 142.915 877.169 Q139.478 882.325 132.941 882.325 Q126.405 882.325 122.941 877.169 Q119.504 871.987 119.504 862.169 Q119.504 852.326 122.941 847.169 Q126.405 841.987 132.941 841.987 Z" fill="#000000" fill-rule="nonzero" fill-opacity="1" /><path clip-path="url(#clip360)" d="M104.816 529.25 Q108.592 530.058 110.702 532.61 Q112.837 535.162 112.837 538.912 Q112.837 544.667 108.879 547.818 Q104.92 550.969 97.6288 550.969 Q95.1809 550.969 92.5768 550.474 Q89.9987 550.005 87.2383 549.042 L87.2383 543.964 Q89.4258 545.24 92.0299 545.891 Q94.6341 546.542 97.4726 546.542 Q102.42 546.542 104.999 544.589 Q107.603 542.636 107.603 538.912 Q107.603 535.474 105.181 533.547 Q102.785 531.594 98.4882 531.594 L93.957 531.594 L93.957 527.271 L98.6965 527.271 Q102.577 527.271 104.634 525.735 Q106.691 524.172 106.691 521.256 Q106.691 518.261 104.556 516.672 Q102.447 515.058 98.4882 515.058 Q96.3268 515.058 93.8528 515.526 Q91.3789 515.995 88.4101 516.985 L88.4101 512.297 Q91.4049 511.464 94.0091 511.047 Q96.6393 510.631 98.957 510.631 Q104.947 510.631 108.436 513.365 Q111.926 516.073 111.926 520.709 Q111.926 523.938 110.077 526.177 Q108.228 528.391 104.816 529.25 Z" fill="#000000" fill-rule="nonzero" fill-opacity="1" /><path clip-path="url(#clip360)" d="M122.863 511.334 L143.514 511.334 L143.514 515.761 L127.681 515.761 L127.681 525.292 Q128.827 524.901 129.972 524.719 Q131.118 524.511 132.264 524.511 Q138.774 524.511 142.577 528.078 Q146.379 531.646 146.379 537.74 Q146.379 544.016 142.472 547.505 Q138.566 550.969 131.457 550.969 Q129.009 550.969 126.457 550.552 Q123.931 550.136 121.222 549.302 L121.222 544.016 Q123.566 545.292 126.066 545.917 Q128.566 546.542 131.353 546.542 Q135.858 546.542 138.488 544.172 Q141.118 541.802 141.118 537.74 Q141.118 533.677 138.488 531.308 Q135.858 528.938 131.353 528.938 Q129.243 528.938 127.134 529.407 Q125.051 529.875 122.863 530.865 L122.863 511.334 Z" fill="#000000" fill-rule="nonzero" fill-opacity="1" /><path clip-path="url(#clip360)" d="M102.212 184.561 L88.931 205.316 L102.212 205.316 L102.212 184.561 M100.832 179.977 L107.446 179.977 L107.446 205.316 L112.993 205.316 L112.993 209.691 L107.446 209.691 L107.446 218.857 L102.212 218.857 L102.212 209.691 L84.6602 209.691 L84.6602 204.612 L100.832 179.977 Z" fill="#000000" fill-rule="nonzero" fill-opacity="1" /><path clip-path="url(#clip360)" d="M132.941 183.441 Q128.879 183.441 126.821 187.451 Q124.79 191.435 124.79 199.456 Q124.79 207.451 126.821 211.461 Q128.879 215.446 132.941 215.446 Q137.03 215.446 139.061 211.461 Q141.118 207.451 141.118 199.456 Q141.118 191.435 139.061 187.451 Q137.03 183.441 132.941 183.441 M132.941 179.274 Q139.478 179.274 142.915 184.456 Q146.379 189.613 146.379 199.456 Q146.379 209.274 142.915 214.456 Q139.478 219.612 132.941 219.612 Q126.405 219.612 122.941 214.456 Q119.504 209.274 119.504 199.456 Q119.504 189.613 122.941 184.456 Q126.405 179.274 132.941 179.274 Z" fill="#000000" fill-rule="nonzero" fill-opacity="1" /><path clip-path="url(#clip360)" d="M-31.4998 930.013 L-31.4998 924.168 L11.7002 924.168 L11.7002 930.013 L-31.4998 930.013 Z" fill="#000000" fill-rule="nonzero" fill-opacity="1" /><path clip-path="url(#clip360)" d="M-7.85992 885.829 L11.7002 885.829 L11.7002 891.153 L-7.68631 891.153 Q-12.287 891.153 -14.5728 892.947 Q-16.8587 894.741 -16.8587 898.329 Q-16.8587 902.641 -14.1099 905.129 Q-11.3611 907.618 -6.61572 907.618 L11.7002 907.618 L11.7002 912.97 L-20.7071 912.97 L-20.7071 907.618 L-15.6724 907.618 Q-18.5948 905.708 -20.0416 903.133 Q-21.4883 900.528 -21.4883 897.143 Q-21.4883 891.559 -18.0161 888.694 Q-14.5728 885.829 -7.85992 885.829 Z" fill="#000000" fill-rule="nonzero" fill-opacity="1" /><path clip-path="url(#clip360)" d="M-33.3227 858.804 L-28.8957 858.804 L-28.8957 863.897 Q-28.8957 866.761 -27.7383 867.89 Q-26.5809 868.989 -23.5716 868.989 L-20.7071 868.989 L-20.7071 860.222 L-16.5694 860.222 L-16.5694 868.989 L11.7002 868.989 L11.7002 874.342 L-16.5694 874.342 L-16.5694 879.435 L-20.7071 879.435 L-20.7071 874.342 L-22.964 874.342 Q-28.3749 874.342 -30.8343 871.825 Q-33.3227 869.308 -33.3227 863.839 L-33.3227 858.804 Z" fill="#000000" fill-rule="nonzero" fill-opacity="1" /><path clip-path="url(#clip360)" d="M-33.3227 854.348 L-33.3227 849.024 L11.7002 849.024 L11.7002 854.348 L-33.3227 854.348 Z" fill="#000000" fill-rule="nonzero" fill-opacity="1" /><path clip-path="url(#clip360)" d="M-16.9745 825.326 Q-16.9745 829.609 -13.618 832.097 Q-10.2905 834.585 -4.47452 834.585 Q1.34142 834.585 4.69788 832.126 Q8.02541 829.638 8.02541 825.326 Q8.02541 821.073 4.66895 818.584 Q1.31248 816.096 -4.47452 816.096 Q-10.2326 816.096 -13.5891 818.584 Q-16.9745 821.073 -16.9745 825.326 M-21.4883 825.326 Q-21.4883 818.382 -16.9745 814.418 Q-12.4606 810.454 -4.47452 810.454 Q3.48261 810.454 8.02541 814.418 Q12.5393 818.382 12.5393 825.326 Q12.5393 832.3 8.02541 836.264 Q3.48261 840.199 -4.47452 840.199 Q-12.4606 840.199 -16.9745 836.264 Q-21.4883 832.3 -21.4883 825.326 Z" fill="#000000" fill-rule="nonzero" fill-opacity="1" /><path clip-path="url(#clip360)" d="M-20.7071 804.725 L-20.7071 799.4 L4.58214 792.745 L-20.7071 786.119 L-20.7071 779.84 L4.58214 773.185 L-20.7071 766.559 L-20.7071 761.235 L11.7002 769.713 L11.7002 775.992 L-14.8622 782.965 L11.7002 789.968 L11.7002 796.247 L-20.7071 804.725 Z" fill="#000000" fill-rule="nonzero" fill-opacity="1" /><path clip-path="url(#clip360)" d="M-33.3227 734.818 L-33.3227 722.549 L-29.185 722.549 L-29.185 729.493 L15.3749 729.493 L15.3749 722.549 L19.5126 722.549 L19.5126 734.818 L-33.3227 734.818 Z" fill="#000000" fill-rule="nonzero" fill-opacity="1" /><path clip-path="url(#clip360)" d="M-31.4998 710.975 L-31.4998 705.13 L6.7812 705.13 L6.7812 684.094 L11.7002 684.094 L11.7002 710.975 L-31.4998 710.975 Z" fill="#000000" fill-rule="nonzero" fill-opacity="1" /><path clip-path="url(#clip360)" d="M-31.4998 668.73 L-31.4998 663.811 L17.1978 678.857 L17.1978 683.776 L-31.4998 668.73 Z" fill="#000000" fill-rule="nonzero" fill-opacity="1" /><path clip-path="url(#clip360)" d="M-19.7522 637.567 L-14.7175 637.567 Q-15.8749 639.824 -16.4536 642.254 Q-17.0323 644.685 -17.0323 647.289 Q-17.0323 651.253 -15.8171 653.25 Q-14.6018 655.217 -12.1712 655.217 Q-10.3194 655.217 -9.2488 653.799 Q-8.20714 652.382 -7.25229 648.099 L-6.8472 646.276 Q-5.63193 640.605 -3.40393 638.232 Q-1.20487 635.831 2.75923 635.831 Q7.2731 635.831 9.90619 639.419 Q12.5393 642.978 12.5393 649.228 Q12.5393 651.832 12.0184 654.667 Q11.5265 657.474 10.5138 660.599 L5.01617 660.599 Q6.54972 657.648 7.33097 654.783 Q8.08328 651.919 8.08328 649.112 Q8.08328 645.35 6.81014 643.325 Q5.50806 641.299 3.16432 641.299 Q0.994196 641.299 -0.163205 642.775 Q-1.32061 644.222 -2.3912 649.17 L-2.82523 651.022 Q-3.86689 655.97 -6.00808 658.169 Q-8.17821 660.368 -11.9398 660.368 Q-16.5115 660.368 -18.9999 657.127 Q-21.4883 653.886 -21.4883 647.926 Q-21.4883 644.974 -21.0543 642.37 Q-20.6203 639.766 -19.7522 637.567 Z" fill="#000000" fill-rule="nonzero" fill-opacity="1" /><path clip-path="url(#clip360)" d="M-33.3227 614.911 L19.5126 614.911 L19.5126 627.179 L15.3749 627.179 L15.3749 620.264 L-29.185 620.264 L-29.185 627.179 L-33.3227 627.179 L-33.3227 614.911 Z" fill="#000000" fill-rule="nonzero" fill-opacity="1" /><polyline clip-path="url(#clip362)" style="stroke:#023eff; stroke-linecap:round; stroke-linejoin:round; stroke-width:5; stroke-opacity:1; fill:none" points="290.554,1103.13 307.356,1373.19 324.157,1452.57 340.959,1452.57 357.76,1373.19 374.562,1373.19 391.363,824.047 408.165,614.712 424.966,574.695 441.768,588.18 458.569,448.09 475.371,448.09 492.172,448.09 508.974,448.09 525.776,694.623 542.577,784.896 559.379,588.18 576.18,694.623 592.982,592.01 609.783,427.635 626.585,217.125 643.386,592.01 660.188,931.844 676.989,931.844 693.791,1163.52 710.592,1163.52 727.394,1336.39 744.195,1336.39 760.997,1336.39 777.798,1336.39 794.6,1029.94 811.401,134.827 828.203,134.827 845.004,247.29 861.806,411.216 878.608,621.054 895.409,621.054 912.211,411.216 929.012,599.396 945.814,599.396 962.615,599.396 979.417,599.396 996.218,530.28 1013.02,245.16 1029.82,245.16 1046.62,474.069 1063.42,898.157 1080.23,912.944 1097.03,1163.52 1113.83,1163.52 1130.63,1336.39 1147.43,1336.39 1164.23,1336.39 1181.03,1336.39 1197.84,633.25 1214.64,134.827 1231.44,134.827 1248.24,247.29 1265.04,411.216 1281.84,411.216 1298.65,411.216 1315.45,621.054 1332.25,599.396 1349.05,599.396 1365.85,599.396 1382.65,599.396 1399.45,530.28 1416.26,530.28 1433.06,245.16 1449.86,474.069 1466.66,767.608 1483.46,912.944 1500.26,1163.52 1517.07,1163.52 1533.87,1336.39 1550.67,1336.39 1567.47,1336.39 1584.27,1336.39 1601.07,633.25 1617.87,134.827 1634.68,134.827 1651.48,247.29 1668.28,472.973 1685.08,621.054 1701.88,621.054 1718.68,621.054 1735.49,599.396 1752.29,599.396 1769.09,599.396 1785.89,599.396 1802.69,245.16 1819.49,245.16 1836.29,245.16 1853.1,639.502 1869.9,898.157 1886.7,912.944 1903.5,1142.03 1920.3,1163.52 1937.1,1236.7 1953.9,1236.7 1970.71,1236.7 1987.51,1142.03 2004.31,633.25 2021.11,134.827 2037.91,134.827 2054.71,247.29 2071.52,411.216 2088.32,621.054 2105.12,621.054 2121.92,621.054 2138.72,599.396 2155.52,599.396 2172.32,599.396 2189.13,599.396 2205.93,530.28 2222.73,245.16 2239.53,245.16 2256.33,639.502 2273.13,898.157 2289.94,912.944 2306.74,1142.03 2323.54,1163.52 2340.34,1236.7 2357.14,1236.7 2373.94,1236.7 2390.74,1236.7 2407.55,1322.88 2424.35,743.472 2441.15,198.787 2457.95,88.2942 2474.75,88.2942 2491.55,260.448 2508.36,318.002 2525.16,364.571 2541.96,398.79 2558.76,398.79 2575.56,599.396 2592.36,398.79 2609.16,530.28 2625.97,530.28 2642.77,530.28 2659.57,639.502 2676.37,898.157 2693.17,912.944 2709.97,1142.03 2726.78,1163.52 2743.58,1236.7 2760.38,1236.7 2777.18,1236.7 2793.98,1236.7 2810.78,985.952 2827.58,743.472 2844.39,260.448 2861.19,88.2942 2877.99,88.2942 2894.79,88.2942 2911.59,318.002 2928.39,212.931 2945.19,599.396 2962,599.396 2978.8,599.396 2995.6,599.396 3012.4,530.28 3029.2,398.79 3046,398.79 3062.81,639.502 3079.61,898.157 3096.41,912.944 "/>
<polyline clip-path="url(#clip362)" style="stroke:#ff7c00; stroke-linecap:round; stroke-linejoin:round; stroke-width:5; stroke-opacity:1; fill:none" points="290.554,1229.74 307.356,1395.37 324.157,1456.63 340.959,1456.63 357.76,1409.49 374.562,1304.57 391.363,1043.38 408.165,435.769 424.966,422.853 441.768,543.512 458.569,422.853 475.371,656.864 492.172,656.864 508.974,415.327 525.776,715.108 542.577,815.378 559.379,634.668 576.18,715.108 592.982,619.919 609.783,400.012 626.585,415.327 643.386,692.415 660.188,992.075 676.989,1120.62 693.791,1282.37 710.592,1415.12 727.394,1415.12 744.195,1415.12 760.997,1415.12 777.798,1339.57 794.6,1043.38 811.401,478.857 828.203,478.857 845.004,478.857 861.806,521.368 878.608,652.417 895.409,652.417 912.211,652.417 929.012,731.383 945.814,731.383 962.615,731.383 979.417,731.383 996.218,609.609 1013.02,609.609 1029.82,344.258 1046.62,344.258 1063.42,1022.42 1080.23,1129.9 1097.03,1282.37 1113.83,1415.12 1130.63,1415.12 1147.43,1415.12 1164.23,1415.12 1181.03,1339.57 1197.84,1043.38 1214.64,478.857 1231.44,478.857 1248.24,478.857 1265.04,521.368 1281.84,652.417 1298.65,652.417 1315.45,652.417 1332.25,731.383 1349.05,731.383 1365.85,731.383 1382.65,731.383 1399.45,609.609 1416.26,609.609 1433.06,609.609 1449.86,609.609 1466.66,1022.42 1483.46,1129.9 1500.26,1282.37 1517.07,1415.12 1533.87,1415.12 1550.67,1415.12 1567.47,1415.12 1584.27,1339.57 1601.07,1043.38 1617.87,478.857 1634.68,478.857 1651.48,478.857 1668.28,521.368 1685.08,652.417 1701.88,652.417 1718.68,652.417 1735.49,731.383 1752.29,731.383 1769.09,731.383 1785.89,731.383 1802.69,609.609 1819.49,344.258 1836.29,609.609 1853.1,609.609 1869.9,1022.42 1886.7,1129.9 1903.5,1282.37 1920.3,1415.12 1937.1,1415.12 1953.9,1415.12 1970.71,1415.12 1987.51,1339.57 2004.31,1043.38 2021.11,478.857 2037.91,478.857 2054.71,478.857 2071.52,521.368 2088.32,652.417 2105.12,652.417 2121.92,652.417 2138.72,731.383 2155.52,731.383 2172.32,731.383 2189.13,731.383 2205.93,609.609 2222.73,344.258 2239.53,344.258 2256.33,609.609 2273.13,1022.42 2289.94,1129.9 2306.74,1282.37 2323.54,1415.12 2340.34,1415.12 2357.14,1415.12 2373.94,1415.12 2390.74,1339.57 2407.55,1212.83 2424.35,800.065 2441.15,209.912 2457.95,209.912 2474.75,192.586 2491.55,192.586 2508.36,408.382 2525.16,408.382 2541.96,546.956 2558.76,731.383 2575.56,731.383 2592.36,731.383 2609.16,609.609 2625.97,609.609 2642.77,609.609 2659.57,609.609 2676.37,1022.42 2693.17,1129.9 2709.97,1282.37 2726.78,1415.12 2743.58,1415.12 2760.38,1415.12 2777.18,1415.12 2793.98,1339.57 2810.78,1212.83 2827.58,800.065 2844.39,209.912 2861.19,209.912 2877.99,192.586 2894.79,192.586 2911.59,408.382 2928.39,408.382 2945.19,731.383 2962,731.383 2978.8,731.383 2995.6,731.383 3012.4,609.609 3029.2,344.258 3046,344.258 3062.81,609.609 3079.61,1022.42 3096.41,1129.9 "/>
<polyline clip-path="url(#clip362)" style="stroke:#1ac938; stroke-linecap:round; stroke-linejoin:round; stroke-width:5; stroke-opacity:1; fill:none" points="290.554,1202.25 307.356,1279.14 324.157,1400.44 340.959,1400.44 357.76,1400.44 374.562,1400.44 391.363,1151.59 408.165,499.568 424.966,418.278 441.768,418.278 458.569,418.278 475.371,418.278 492.172,418.278 508.974,470.086 525.776,655.879 542.577,831.736 559.379,655.879 576.18,655.879 592.982,499.568 609.783,470.086 626.585,470.086 643.386,676.635 660.188,1062.06 676.989,1062.06 693.791,1279.14 710.592,1279.14 727.394,1400.44 744.195,1400.44 760.997,1400.44 777.798,1400.44 794.6,1151.33 811.401,267.925 828.203,267.925 845.004,485.182 861.806,485.182 878.608,620.675 895.409,620.675 912.211,485.182 929.012,485.182 945.814,731.428 962.615,731.428 979.417,731.428 996.218,731.428 1013.02,485.182 1029.82,485.182 1046.62,485.182 1063.42,1063.41 1080.23,1063.41 1097.03,1279.14 1113.83,1279.14 1130.63,1400.44 1147.43,1400.44 1164.23,1400.44 1181.03,1400.44 1197.84,1151.33 1214.64,267.925 1231.44,267.925 1248.24,485.182 1265.04,485.182 1281.84,485.182 1298.65,485.182 1315.45,620.675 1332.25,620.675 1349.05,731.428 1365.85,731.428 1382.65,731.428 1399.45,485.182 1416.26,731.428 1433.06,485.182 1449.86,485.182 1466.66,1063.41 1483.46,1063.41 1500.26,1279.14 1517.07,1279.14 1533.87,1400.44 1550.67,1400.44 1567.47,1400.44 1584.27,1400.44 1601.07,1151.33 1617.87,267.925 1634.68,267.925 1651.48,485.182 1668.28,485.182 1685.08,620.675 1701.88,620.675 1718.68,620.675 1735.49,485.182 1752.29,731.428 1769.09,731.428 1785.89,731.428 1802.69,485.182 1819.49,485.182 1836.29,485.182 1853.1,731.428 1869.9,1063.41 1886.7,1063.41 1903.5,1279.14 1920.3,1279.14 1937.1,1400.44 1953.9,1400.44 1970.71,1400.44 1987.51,1400.44 2004.31,1151.33 2021.11,267.925 2037.91,267.925 2054.71,212.779 2071.52,212.779 2088.32,620.675 2105.12,212.779 2121.92,620.675 2138.72,620.675 2155.52,731.428 2172.32,731.428 2189.13,731.428 2205.93,731.428 2222.73,552.768 2239.53,552.768 2256.33,731.428 2273.13,1063.41 2289.94,1063.41 2306.74,1279.14 2323.54,1279.14 2340.34,1400.44 2357.14,1400.44 2373.94,1400.44 2390.74,1400.44 2407.55,1151.33 2424.35,400.551 2441.15,267.925 2457.95,212.779 2474.75,212.779 2491.55,212.779 2508.36,212.779 2525.16,552.768 2541.96,552.768 2558.76,552.768 2575.56,552.768 2592.36,552.768 2609.16,731.428 2625.97,731.428 2642.77,731.428 2659.57,731.428 2676.37,1063.41 2693.17,1063.41 2709.97,1279.14 2726.78,1279.14 2743.58,1400.44 2760.38,1400.44 2777.18,1400.44 2793.98,1400.44 2810.78,1151.33 2827.58,400.551 2844.39,267.925 2861.19,212.779 2877.99,212.779 2894.79,212.779 2911.59,212.779 2928.39,552.768 2945.19,620.675 2962,731.428 2978.8,552.768 2995.6,731.428 3012.4,731.428 3029.2,552.768 3046,552.768 3062.81,731.428 3079.61,1063.41 3096.41,1063.41 "/>
<polyline clip-path="url(#clip362)" style="stroke:#e8000b; stroke-linecap:round; stroke-linejoin:round; stroke-width:5; stroke-opacity:1; fill:none" points="290.554,1352.41 307.356,1352.41 324.157,1352.41 340.959,1352.41 357.76,1352.41 374.562,1352.41 391.363,355.74 408.165,454.429 424.966,355.74 441.768,355.74 458.569,355.74 475.371,673.334 492.172,673.334 508.974,673.334 525.776,673.334 542.577,673.334 559.379,673.334 576.18,673.334 592.982,673.334 609.783,454.429 626.585,673.334 643.386,673.334 660.188,1070.79 676.989,1070.79 693.791,1334.95 710.592,1334.95 727.394,1334.95 744.195,1334.95 760.997,1334.95 777.798,1334.95 794.6,907.479 811.401,308.909 828.203,308.909 845.004,308.909 861.806,308.909 878.608,590.007 895.409,590.007 912.211,590.007 929.012,590.007 945.814,590.007 962.615,907.479 979.417,907.479 996.218,590.007 1013.02,590.007 1029.82,590.007 1046.62,590.007 1063.42,907.479 1080.23,1334.95 1097.03,1334.95 1113.83,1334.95 1130.63,1334.95 1147.43,1334.95 1164.23,1334.95 1181.03,1334.95 1197.84,907.479 1214.64,308.909 1231.44,308.909 1248.24,308.909 1265.04,308.909 1281.84,590.007 1298.65,590.007 1315.45,590.007 1332.25,590.007 1349.05,590.007 1365.85,590.007 1382.65,590.007 1399.45,590.007 1416.26,590.007 1433.06,590.007 1449.86,590.007 1466.66,590.007 1483.46,907.479 1500.26,907.479 1517.07,1334.95 1533.87,1334.95 1550.67,1334.95 1567.47,1334.95 1584.27,1334.95 1601.07,907.479 1617.87,308.909 1634.68,308.909 1651.48,308.909 1668.28,308.909 1685.08,590.007 1701.88,590.007 1718.68,590.007 1735.49,590.007 1752.29,907.479 1769.09,590.007 1785.89,590.007 1802.69,590.007 1819.49,590.007 1836.29,590.007 1853.1,907.479 1869.9,907.479 1886.7,907.479 1903.5,907.479 1920.3,907.479 1937.1,1334.95 1953.9,1334.95 1970.71,1334.95 1987.51,907.479 2004.31,308.909 2021.11,308.909 2037.91,308.909 2054.71,308.909 2071.52,308.909 2088.32,907.479 2105.12,590.007 2121.92,590.007 2138.72,590.007 2155.52,907.479 2172.32,907.479 2189.13,907.479 2205.93,590.007 2222.73,590.007 2239.53,590.007 2256.33,590.007 2273.13,1334.95 2289.94,1334.95 2306.74,907.479 2323.54,1334.95 2340.34,1334.95 2357.14,1334.95 2373.94,1334.95 2390.74,1334.95 2407.55,1334.95 2424.35,907.479 2441.15,308.909 2457.95,308.909 2474.75,308.909 2491.55,590.007 2508.36,590.007 2525.16,590.007 2541.96,590.007 2558.76,590.007 2575.56,590.007 2592.36,590.007 2609.16,590.007 2625.97,907.479 2642.77,590.007 2659.57,590.007 2676.37,907.479 2693.17,907.479 2709.97,907.479 2726.78,1334.95 2743.58,1334.95 2760.38,1334.95 2777.18,1334.95 2793.98,1334.95 2810.78,907.479 2827.58,907.479 2844.39,308.909 2861.19,308.909 2877.99,308.909 2894.79,590.007 2911.59,590.007 2928.39,590.007 2945.19,590.007 2962,907.479 2978.8,590.007 2995.6,590.007 3012.4,590.007 3029.2,590.007 3046,590.007 3062.81,590.007 3079.61,907.479 3096.41,907.479 "/>
<path clip-path="url(#clip360)" d="M3305.46 445.512 L3952.76 445.512 L3952.76 95.592 L3305.46 95.592  Z" fill="#ffffff" fill-rule="evenodd" fill-opacity="1"/>
<polyline clip-path="url(#clip360)" style="stroke:#000000; stroke-linecap:round; stroke-linejoin:round; stroke-width:4; stroke-opacity:1; fill:none" points="3305.46,445.512 3952.76,445.512 3952.76,95.592 3305.46,95.592 3305.46,445.512 "/>
<polyline clip-path="url(#clip360)" style="stroke:#023eff; stroke-linecap:round; stroke-linejoin:round; stroke-width:5.625; stroke-opacity:1; fill:none" points="3347.09,153.912 3596.85,153.912 "/>
<path clip-path="url(#clip360)" d="M3643.29 168.977 L3643.29 184.446 L3638.47 184.446 L3638.47 144.185 L3643.29 144.185 L3643.29 148.613 Q3644.8 146.008 3647.09 144.758 Q3649.41 143.482 3652.62 143.482 Q3657.93 143.482 3661.23 147.701 Q3664.57 151.92 3664.57 158.795 Q3664.57 165.67 3661.23 169.888 Q3657.93 174.107 3652.62 174.107 Q3649.41 174.107 3647.09 172.857 Q3644.8 171.581 3643.29 168.977 M3659.59 158.795 Q3659.59 153.508 3657.41 150.514 Q3655.25 147.493 3651.44 147.493 Q3647.64 147.493 3645.45 150.514 Q3643.29 153.508 3643.29 158.795 Q3643.29 164.081 3645.45 167.102 Q3647.64 170.097 3651.44 170.097 Q3655.25 170.097 3657.41 167.102 Q3659.59 164.081 3659.59 158.795 Z" fill="#000000" fill-rule="nonzero" fill-opacity="1" /><path clip-path="url(#clip360)" d="M3689.41 148.665 Q3688.6 148.196 3687.64 147.988 Q3686.7 147.753 3685.56 147.753 Q3681.5 147.753 3679.31 150.409 Q3677.15 153.04 3677.15 157.987 L3677.15 173.352 L3672.33 173.352 L3672.33 144.185 L3677.15 144.185 L3677.15 148.717 Q3678.66 146.06 3681.08 144.784 Q3683.5 143.482 3686.96 143.482 Q3687.46 143.482 3688.06 143.56 Q3688.66 143.613 3689.39 143.743 L3689.41 148.665 Z" fill="#000000" fill-rule="nonzero" fill-opacity="1" /><path clip-path="url(#clip360)" d="M3718.21 157.571 L3718.21 159.915 L3696.18 159.915 Q3696.5 164.862 3699.15 167.467 Q3701.83 170.045 3706.6 170.045 Q3709.36 170.045 3711.94 169.368 Q3714.54 168.691 3717.09 167.336 L3717.09 171.868 Q3714.52 172.961 3711.81 173.534 Q3709.1 174.107 3706.31 174.107 Q3699.33 174.107 3695.25 170.045 Q3691.18 165.982 3691.18 159.055 Q3691.18 151.894 3695.04 147.701 Q3698.92 143.482 3705.48 143.482 Q3711.36 143.482 3714.78 147.284 Q3718.21 151.06 3718.21 157.571 M3713.42 156.165 Q3713.37 152.232 3711.21 149.889 Q3709.07 147.545 3705.53 147.545 Q3701.52 147.545 3699.1 149.81 Q3696.7 152.076 3696.34 156.191 L3713.42 156.165 Z" fill="#000000" fill-rule="nonzero" fill-opacity="1" /><path clip-path="url(#clip360)" d="M3745.27 148.613 L3745.27 132.831 L3750.06 132.831 L3750.06 173.352 L3745.27 173.352 L3745.27 168.977 Q3743.76 171.581 3741.44 172.857 Q3739.15 174.107 3735.92 174.107 Q3730.64 174.107 3727.3 169.888 Q3724 165.67 3724 158.795 Q3724 151.92 3727.3 147.701 Q3730.64 143.482 3735.92 143.482 Q3739.15 143.482 3741.44 144.758 Q3743.76 146.008 3745.27 148.613 M3728.94 158.795 Q3728.94 164.081 3731.1 167.102 Q3733.29 170.097 3737.09 170.097 Q3740.9 170.097 3743.08 167.102 Q3745.27 164.081 3745.27 158.795 Q3745.27 153.508 3743.08 150.514 Q3740.9 147.493 3737.09 147.493 Q3733.29 147.493 3731.1 150.514 Q3728.94 153.508 3728.94 158.795 Z" fill="#000000" fill-rule="nonzero" fill-opacity="1" /><path clip-path="url(#clip360)" d="M3759.93 144.185 L3764.72 144.185 L3764.72 173.352 L3759.93 173.352 L3759.93 144.185 M3759.93 132.831 L3764.72 132.831 L3764.72 138.899 L3759.93 138.899 L3759.93 132.831 Z" fill="#000000" fill-rule="nonzero" fill-opacity="1" /><path clip-path="url(#clip360)" d="M3795.74 145.305 L3795.74 149.784 Q3793.71 148.665 3791.65 148.118 Q3789.62 147.545 3787.54 147.545 Q3782.87 147.545 3780.3 150.514 Q3777.72 153.456 3777.72 158.795 Q3777.72 164.133 3780.3 167.102 Q3782.87 170.045 3787.54 170.045 Q3789.62 170.045 3791.65 169.498 Q3793.71 168.925 3795.74 167.805 L3795.74 172.232 Q3793.73 173.17 3791.57 173.638 Q3789.44 174.107 3787.02 174.107 Q3780.43 174.107 3776.55 169.967 Q3772.67 165.826 3772.67 158.795 Q3772.67 151.659 3776.57 147.571 Q3780.51 143.482 3787.33 143.482 Q3789.54 143.482 3791.65 143.951 Q3793.76 144.394 3795.74 145.305 Z" fill="#000000" fill-rule="nonzero" fill-opacity="1" /><path clip-path="url(#clip360)" d="M3808.81 135.904 L3808.81 144.185 L3818.68 144.185 L3818.68 147.909 L3808.81 147.909 L3808.81 163.743 Q3808.81 167.31 3809.78 168.326 Q3810.77 169.342 3813.76 169.342 L3818.68 169.342 L3818.68 173.352 L3813.76 173.352 Q3808.21 173.352 3806.1 171.295 Q3803.99 169.211 3803.99 163.743 L3803.99 147.909 L3800.48 147.909 L3800.48 144.185 L3803.99 144.185 L3803.99 135.904 L3808.81 135.904 Z" fill="#000000" fill-rule="nonzero" fill-opacity="1" /><path clip-path="url(#clip360)" d="M3847.15 182.206 L3847.15 185.93 L3819.44 185.93 L3819.44 182.206 L3847.15 182.206 Z" fill="#000000" fill-rule="nonzero" fill-opacity="1" /><path clip-path="url(#clip360)" d="M3852.38 134.472 L3873.03 134.472 L3873.03 138.899 L3857.2 138.899 L3857.2 148.43 Q3858.34 148.04 3859.49 147.857 Q3860.63 147.649 3861.78 147.649 Q3868.29 147.649 3872.09 151.217 Q3875.9 154.784 3875.9 160.878 Q3875.9 167.154 3871.99 170.644 Q3868.08 174.107 3860.97 174.107 Q3858.53 174.107 3855.97 173.69 Q3853.45 173.274 3850.74 172.441 L3850.74 167.154 Q3853.08 168.43 3855.58 169.055 Q3858.08 169.68 3860.87 169.68 Q3865.37 169.68 3868 167.31 Q3870.63 164.941 3870.63 160.878 Q3870.63 156.816 3868 154.446 Q3865.37 152.076 3860.87 152.076 Q3858.76 152.076 3856.65 152.545 Q3854.57 153.014 3852.38 154.003 L3852.38 134.472 Z" fill="#000000" fill-rule="nonzero" fill-opacity="1" /><path clip-path="url(#clip360)" d="M3890.79 168.925 L3909.15 168.925 L3909.15 173.352 L3884.46 173.352 L3884.46 168.925 Q3887.46 165.826 3892.61 160.618 Q3897.8 155.383 3899.12 153.873 Q3901.65 151.034 3902.64 149.081 Q3903.66 147.102 3903.66 145.201 Q3903.66 142.102 3901.47 140.149 Q3899.31 138.196 3895.82 138.196 Q3893.34 138.196 3890.58 139.055 Q3887.85 139.915 3884.72 141.659 L3884.72 136.347 Q3887.9 135.071 3890.66 134.42 Q3893.42 133.769 3895.71 133.769 Q3901.75 133.769 3905.35 136.79 Q3908.94 139.81 3908.94 144.863 Q3908.94 147.258 3908.03 149.42 Q3907.15 151.555 3904.78 154.472 Q3904.12 155.227 3900.63 158.847 Q3897.15 162.441 3890.79 168.925 Z" fill="#000000" fill-rule="nonzero" fill-opacity="1" /><polyline clip-path="url(#clip360)" style="stroke:#ff7c00; stroke-linecap:round; stroke-linejoin:round; stroke-width:5.625; stroke-opacity:1; fill:none" points="3347.09,212.232 3596.85,212.232 "/>
<path clip-path="url(#clip360)" d="M3643.29 227.297 L3643.29 242.766 L3638.47 242.766 L3638.47 202.505 L3643.29 202.505 L3643.29 206.933 Q3644.8 204.328 3647.09 203.078 Q3649.41 201.802 3652.62 201.802 Q3657.93 201.802 3661.23 206.021 Q3664.57 210.24 3664.57 217.115 Q3664.57 223.99 3661.23 228.208 Q3657.93 232.427 3652.62 232.427 Q3649.41 232.427 3647.09 231.177 Q3644.8 229.901 3643.29 227.297 M3659.59 217.115 Q3659.59 211.828 3657.41 208.834 Q3655.25 205.813 3651.44 205.813 Q3647.64 205.813 3645.45 208.834 Q3643.29 211.828 3643.29 217.115 Q3643.29 222.401 3645.45 225.422 Q3647.64 228.417 3651.44 228.417 Q3655.25 228.417 3657.41 225.422 Q3659.59 222.401 3659.59 217.115 Z" fill="#000000" fill-rule="nonzero" fill-opacity="1" /><path clip-path="url(#clip360)" d="M3689.41 206.985 Q3688.6 206.516 3687.64 206.308 Q3686.7 206.073 3685.56 206.073 Q3681.5 206.073 3679.31 208.729 Q3677.15 211.36 3677.15 216.307 L3677.15 231.672 L3672.33 231.672 L3672.33 202.505 L3677.15 202.505 L3677.15 207.037 Q3678.66 204.38 3681.08 203.104 Q3683.5 201.802 3686.96 201.802 Q3687.46 201.802 3688.06 201.88 Q3688.66 201.933 3689.39 202.063 L3689.41 206.985 Z" fill="#000000" fill-rule="nonzero" fill-opacity="1" /><path clip-path="url(#clip360)" d="M3718.21 215.891 L3718.21 218.235 L3696.18 218.235 Q3696.5 223.182 3699.15 225.787 Q3701.83 228.365 3706.6 228.365 Q3709.36 228.365 3711.94 227.688 Q3714.54 227.011 3717.09 225.656 L3717.09 230.188 Q3714.52 231.281 3711.81 231.854 Q3709.1 232.427 3706.31 232.427 Q3699.33 232.427 3695.25 228.365 Q3691.18 224.302 3691.18 217.375 Q3691.18 210.214 3695.04 206.021 Q3698.92 201.802 3705.48 201.802 Q3711.36 201.802 3714.78 205.604 Q3718.21 209.38 3718.21 215.891 M3713.42 214.485 Q3713.37 210.552 3711.21 208.209 Q3709.07 205.865 3705.53 205.865 Q3701.52 205.865 3699.1 208.13 Q3696.7 210.396 3696.34 214.511 L3713.42 214.485 Z" fill="#000000" fill-rule="nonzero" fill-opacity="1" /><path clip-path="url(#clip360)" d="M3745.27 206.933 L3745.27 191.151 L3750.06 191.151 L3750.06 231.672 L3745.27 231.672 L3745.27 227.297 Q3743.76 229.901 3741.44 231.177 Q3739.15 232.427 3735.92 232.427 Q3730.64 232.427 3727.3 228.208 Q3724 223.99 3724 217.115 Q3724 210.24 3727.3 206.021 Q3730.64 201.802 3735.92 201.802 Q3739.15 201.802 3741.44 203.078 Q3743.76 204.328 3745.27 206.933 M3728.94 217.115 Q3728.94 222.401 3731.1 225.422 Q3733.29 228.417 3737.09 228.417 Q3740.9 228.417 3743.08 225.422 Q3745.27 222.401 3745.27 217.115 Q3745.27 211.828 3743.08 208.834 Q3740.9 205.813 3737.09 205.813 Q3733.29 205.813 3731.1 208.834 Q3728.94 211.828 3728.94 217.115 Z" fill="#000000" fill-rule="nonzero" fill-opacity="1" /><path clip-path="url(#clip360)" d="M3759.93 202.505 L3764.72 202.505 L3764.72 231.672 L3759.93 231.672 L3759.93 202.505 M3759.93 191.151 L3764.72 191.151 L3764.72 197.219 L3759.93 197.219 L3759.93 191.151 Z" fill="#000000" fill-rule="nonzero" fill-opacity="1" /><path clip-path="url(#clip360)" d="M3795.74 203.625 L3795.74 208.104 Q3793.71 206.985 3791.65 206.438 Q3789.62 205.865 3787.54 205.865 Q3782.87 205.865 3780.3 208.834 Q3777.72 211.776 3777.72 217.115 Q3777.72 222.453 3780.3 225.422 Q3782.87 228.365 3787.54 228.365 Q3789.62 228.365 3791.65 227.818 Q3793.71 227.245 3795.74 226.125 L3795.74 230.552 Q3793.73 231.49 3791.57 231.958 Q3789.44 232.427 3787.02 232.427 Q3780.43 232.427 3776.55 228.287 Q3772.67 224.146 3772.67 217.115 Q3772.67 209.979 3776.57 205.891 Q3780.51 201.802 3787.33 201.802 Q3789.54 201.802 3791.65 202.271 Q3793.76 202.714 3795.74 203.625 Z" fill="#000000" fill-rule="nonzero" fill-opacity="1" /><path clip-path="url(#clip360)" d="M3808.81 194.224 L3808.81 202.505 L3818.68 202.505 L3818.68 206.229 L3808.81 206.229 L3808.81 222.063 Q3808.81 225.63 3809.78 226.646 Q3810.77 227.662 3813.76 227.662 L3818.68 227.662 L3818.68 231.672 L3813.76 231.672 Q3808.21 231.672 3806.1 229.615 Q3803.99 227.531 3803.99 222.063 L3803.99 206.229 L3800.48 206.229 L3800.48 202.505 L3803.99 202.505 L3803.99 194.224 L3808.81 194.224 Z" fill="#000000" fill-rule="nonzero" fill-opacity="1" /><path clip-path="url(#clip360)" d="M3847.15 240.526 L3847.15 244.25 L3819.44 244.25 L3819.44 240.526 L3847.15 240.526 Z" fill="#000000" fill-rule="nonzero" fill-opacity="1" /><path clip-path="url(#clip360)" d="M3856.86 227.245 L3875.22 227.245 L3875.22 231.672 L3850.53 231.672 L3850.53 227.245 Q3853.53 224.146 3858.68 218.938 Q3863.86 213.703 3865.19 212.193 Q3867.72 209.354 3868.71 207.401 Q3869.72 205.422 3869.72 203.521 Q3869.72 200.422 3867.54 198.469 Q3865.37 196.516 3861.88 196.516 Q3859.41 196.516 3856.65 197.375 Q3853.92 198.235 3850.79 199.979 L3850.79 194.667 Q3853.97 193.391 3856.73 192.74 Q3859.49 192.089 3861.78 192.089 Q3867.82 192.089 3871.42 195.11 Q3875.01 198.13 3875.01 203.183 Q3875.01 205.578 3874.1 207.74 Q3873.21 209.875 3870.84 212.792 Q3870.19 213.547 3866.7 217.167 Q3863.21 220.761 3856.86 227.245 Z" fill="#000000" fill-rule="nonzero" fill-opacity="1" /><path clip-path="url(#clip360)" d="M3898.16 210.136 Q3894.62 210.136 3892.54 212.557 Q3890.48 214.979 3890.48 219.198 Q3890.48 223.391 3892.54 225.839 Q3894.62 228.261 3898.16 228.261 Q3901.7 228.261 3903.76 225.839 Q3905.84 223.391 3905.84 219.198 Q3905.84 214.979 3903.76 212.557 Q3901.7 210.136 3898.16 210.136 M3908.6 193.651 L3908.6 198.443 Q3906.62 197.505 3904.59 197.011 Q3902.59 196.516 3900.61 196.516 Q3895.4 196.516 3892.64 200.031 Q3889.91 203.547 3889.52 210.656 Q3891.05 208.391 3893.37 207.193 Q3895.69 205.969 3898.47 205.969 Q3904.33 205.969 3907.72 209.537 Q3911.13 213.078 3911.13 219.198 Q3911.13 225.188 3907.59 228.807 Q3904.05 232.427 3898.16 232.427 Q3891.42 232.427 3887.85 227.271 Q3884.28 222.089 3884.28 212.271 Q3884.28 203.052 3888.66 197.584 Q3893.03 192.089 3900.4 192.089 Q3902.38 192.089 3904.38 192.479 Q3906.42 192.87 3908.6 193.651 Z" fill="#000000" fill-rule="nonzero" fill-opacity="1" /><polyline clip-path="url(#clip360)" style="stroke:#1ac938; stroke-linecap:round; stroke-linejoin:round; stroke-width:5.625; stroke-opacity:1; fill:none" points="3347.09,270.552 3596.85,270.552 "/>
<path clip-path="url(#clip360)" d="M3643.29 285.617 L3643.29 301.086 L3638.47 301.086 L3638.47 260.825 L3643.29 260.825 L3643.29 265.253 Q3644.8 262.648 3647.09 261.398 Q3649.41 260.122 3652.62 260.122 Q3657.93 260.122 3661.23 264.341 Q3664.57 268.56 3664.57 275.435 Q3664.57 282.31 3661.23 286.528 Q3657.93 290.747 3652.62 290.747 Q3649.41 290.747 3647.09 289.497 Q3644.8 288.221 3643.29 285.617 M3659.59 275.435 Q3659.59 270.148 3657.41 267.154 Q3655.25 264.133 3651.44 264.133 Q3647.64 264.133 3645.45 267.154 Q3643.29 270.148 3643.29 275.435 Q3643.29 280.721 3645.45 283.742 Q3647.64 286.737 3651.44 286.737 Q3655.25 286.737 3657.41 283.742 Q3659.59 280.721 3659.59 275.435 Z" fill="#000000" fill-rule="nonzero" fill-opacity="1" /><path clip-path="url(#clip360)" d="M3689.41 265.305 Q3688.6 264.836 3687.64 264.628 Q3686.7 264.393 3685.56 264.393 Q3681.5 264.393 3679.31 267.049 Q3677.15 269.68 3677.15 274.627 L3677.15 289.992 L3672.33 289.992 L3672.33 260.825 L3677.15 260.825 L3677.15 265.357 Q3678.66 262.7 3681.08 261.424 Q3683.5 260.122 3686.96 260.122 Q3687.46 260.122 3688.06 260.2 Q3688.66 260.253 3689.39 260.383 L3689.41 265.305 Z" fill="#000000" fill-rule="nonzero" fill-opacity="1" /><path clip-path="url(#clip360)" d="M3718.21 274.211 L3718.21 276.555 L3696.18 276.555 Q3696.5 281.502 3699.15 284.107 Q3701.83 286.685 3706.6 286.685 Q3709.36 286.685 3711.94 286.008 Q3714.54 285.331 3717.09 283.976 L3717.09 288.508 Q3714.52 289.601 3711.81 290.174 Q3709.1 290.747 3706.31 290.747 Q3699.33 290.747 3695.25 286.685 Q3691.18 282.622 3691.18 275.695 Q3691.18 268.534 3695.04 264.341 Q3698.92 260.122 3705.48 260.122 Q3711.36 260.122 3714.78 263.924 Q3718.21 267.7 3718.21 274.211 M3713.42 272.805 Q3713.37 268.872 3711.21 266.529 Q3709.07 264.185 3705.53 264.185 Q3701.52 264.185 3699.1 266.45 Q3696.7 268.716 3696.34 272.831 L3713.42 272.805 Z" fill="#000000" fill-rule="nonzero" fill-opacity="1" /><path clip-path="url(#clip360)" d="M3745.27 265.253 L3745.27 249.471 L3750.06 249.471 L3750.06 289.992 L3745.27 289.992 L3745.27 285.617 Q3743.76 288.221 3741.44 289.497 Q3739.15 290.747 3735.92 290.747 Q3730.64 290.747 3727.3 286.528 Q3724 282.31 3724 275.435 Q3724 268.56 3727.3 264.341 Q3730.64 260.122 3735.92 260.122 Q3739.15 260.122 3741.44 261.398 Q3743.76 262.648 3745.27 265.253 M3728.94 275.435 Q3728.94 280.721 3731.1 283.742 Q3733.29 286.737 3737.09 286.737 Q3740.9 286.737 3743.08 283.742 Q3745.27 280.721 3745.27 275.435 Q3745.27 270.148 3743.08 267.154 Q3740.9 264.133 3737.09 264.133 Q3733.29 264.133 3731.1 267.154 Q3728.94 270.148 3728.94 275.435 Z" fill="#000000" fill-rule="nonzero" fill-opacity="1" /><path clip-path="url(#clip360)" d="M3759.93 260.825 L3764.72 260.825 L3764.72 289.992 L3759.93 289.992 L3759.93 260.825 M3759.93 249.471 L3764.72 249.471 L3764.72 255.539 L3759.93 255.539 L3759.93 249.471 Z" fill="#000000" fill-rule="nonzero" fill-opacity="1" /><path clip-path="url(#clip360)" d="M3795.74 261.945 L3795.74 266.424 Q3793.71 265.305 3791.65 264.758 Q3789.62 264.185 3787.54 264.185 Q3782.87 264.185 3780.3 267.154 Q3777.72 270.096 3777.72 275.435 Q3777.72 280.773 3780.3 283.742 Q3782.87 286.685 3787.54 286.685 Q3789.62 286.685 3791.65 286.138 Q3793.71 285.565 3795.74 284.445 L3795.74 288.872 Q3793.73 289.81 3791.57 290.278 Q3789.44 290.747 3787.02 290.747 Q3780.43 290.747 3776.55 286.607 Q3772.67 282.466 3772.67 275.435 Q3772.67 268.299 3776.57 264.211 Q3780.51 260.122 3787.33 260.122 Q3789.54 260.122 3791.65 260.591 Q3793.76 261.034 3795.74 261.945 Z" fill="#000000" fill-rule="nonzero" fill-opacity="1" /><path clip-path="url(#clip360)" d="M3808.81 252.544 L3808.81 260.825 L3818.68 260.825 L3818.68 264.549 L3808.81 264.549 L3808.81 280.383 Q3808.81 283.95 3809.78 284.966 Q3810.77 285.982 3813.76 285.982 L3818.68 285.982 L3818.68 289.992 L3813.76 289.992 Q3808.21 289.992 3806.1 287.935 Q3803.99 285.851 3803.99 280.383 L3803.99 264.549 L3800.48 264.549 L3800.48 260.825 L3803.99 260.825 L3803.99 252.544 L3808.81 252.544 Z" fill="#000000" fill-rule="nonzero" fill-opacity="1" /><path clip-path="url(#clip360)" d="M3847.15 298.846 L3847.15 302.57 L3819.44 302.57 L3819.44 298.846 L3847.15 298.846 Z" fill="#000000" fill-rule="nonzero" fill-opacity="1" /><path clip-path="url(#clip360)" d="M3866.78 255.695 L3853.5 276.45 L3866.78 276.45 L3866.78 255.695 M3865.4 251.112 L3872.02 251.112 L3872.02 276.45 L3877.56 276.45 L3877.56 280.825 L3872.02 280.825 L3872.02 289.992 L3866.78 289.992 L3866.78 280.825 L3849.23 280.825 L3849.23 275.747 L3865.4 251.112 Z" fill="#000000" fill-rule="nonzero" fill-opacity="1" /><polyline clip-path="url(#clip360)" style="stroke:#e8000b; stroke-linecap:round; stroke-linejoin:round; stroke-width:5.625; stroke-opacity:1; fill:none" points="3347.09,328.872 3596.85,328.872 "/>
<path clip-path="url(#clip360)" d="M3643.29 343.937 L3643.29 359.406 L3638.47 359.406 L3638.47 319.145 L3643.29 319.145 L3643.29 323.573 Q3644.8 320.968 3647.09 319.718 Q3649.41 318.442 3652.62 318.442 Q3657.93 318.442 3661.23 322.661 Q3664.57 326.88 3664.57 333.755 Q3664.57 340.63 3661.23 344.848 Q3657.93 349.067 3652.62 349.067 Q3649.41 349.067 3647.09 347.817 Q3644.8 346.541 3643.29 343.937 M3659.59 333.755 Q3659.59 328.468 3657.41 325.474 Q3655.25 322.453 3651.44 322.453 Q3647.64 322.453 3645.45 325.474 Q3643.29 328.468 3643.29 333.755 Q3643.29 339.041 3645.45 342.062 Q3647.64 345.057 3651.44 345.057 Q3655.25 345.057 3657.41 342.062 Q3659.59 339.041 3659.59 333.755 Z" fill="#000000" fill-rule="nonzero" fill-opacity="1" /><path clip-path="url(#clip360)" d="M3689.41 323.625 Q3688.6 323.156 3687.64 322.948 Q3686.7 322.713 3685.56 322.713 Q3681.5 322.713 3679.31 325.369 Q3677.15 328 3677.15 332.947 L3677.15 348.312 L3672.33 348.312 L3672.33 319.145 L3677.15 319.145 L3677.15 323.677 Q3678.66 321.02 3681.08 319.744 Q3683.5 318.442 3686.96 318.442 Q3687.46 318.442 3688.06 318.52 Q3688.66 318.573 3689.39 318.703 L3689.41 323.625 Z" fill="#000000" fill-rule="nonzero" fill-opacity="1" /><path clip-path="url(#clip360)" d="M3718.21 332.531 L3718.21 334.875 L3696.18 334.875 Q3696.5 339.822 3699.15 342.427 Q3701.83 345.005 3706.6 345.005 Q3709.36 345.005 3711.94 344.328 Q3714.54 343.651 3717.09 342.296 L3717.09 346.828 Q3714.52 347.921 3711.81 348.494 Q3709.1 349.067 3706.31 349.067 Q3699.33 349.067 3695.25 345.005 Q3691.18 340.942 3691.18 334.015 Q3691.18 326.854 3695.04 322.661 Q3698.92 318.442 3705.48 318.442 Q3711.36 318.442 3714.78 322.244 Q3718.21 326.02 3718.21 332.531 M3713.42 331.125 Q3713.37 327.192 3711.21 324.849 Q3709.07 322.505 3705.53 322.505 Q3701.52 322.505 3699.1 324.77 Q3696.7 327.036 3696.34 331.151 L3713.42 331.125 Z" fill="#000000" fill-rule="nonzero" fill-opacity="1" /><path clip-path="url(#clip360)" d="M3745.27 323.573 L3745.27 307.791 L3750.06 307.791 L3750.06 348.312 L3745.27 348.312 L3745.27 343.937 Q3743.76 346.541 3741.44 347.817 Q3739.15 349.067 3735.92 349.067 Q3730.64 349.067 3727.3 344.848 Q3724 340.63 3724 333.755 Q3724 326.88 3727.3 322.661 Q3730.64 318.442 3735.92 318.442 Q3739.15 318.442 3741.44 319.718 Q3743.76 320.968 3745.27 323.573 M3728.94 333.755 Q3728.94 339.041 3731.1 342.062 Q3733.29 345.057 3737.09 345.057 Q3740.9 345.057 3743.08 342.062 Q3745.27 339.041 3745.27 333.755 Q3745.27 328.468 3743.08 325.474 Q3740.9 322.453 3737.09 322.453 Q3733.29 322.453 3731.1 325.474 Q3728.94 328.468 3728.94 333.755 Z" fill="#000000" fill-rule="nonzero" fill-opacity="1" /><path clip-path="url(#clip360)" d="M3759.93 319.145 L3764.72 319.145 L3764.72 348.312 L3759.93 348.312 L3759.93 319.145 M3759.93 307.791 L3764.72 307.791 L3764.72 313.859 L3759.93 313.859 L3759.93 307.791 Z" fill="#000000" fill-rule="nonzero" fill-opacity="1" /><path clip-path="url(#clip360)" d="M3795.74 320.265 L3795.74 324.744 Q3793.71 323.625 3791.65 323.078 Q3789.62 322.505 3787.54 322.505 Q3782.87 322.505 3780.3 325.474 Q3777.72 328.416 3777.72 333.755 Q3777.72 339.093 3780.3 342.062 Q3782.87 345.005 3787.54 345.005 Q3789.62 345.005 3791.65 344.458 Q3793.71 343.885 3795.74 342.765 L3795.74 347.192 Q3793.73 348.13 3791.57 348.598 Q3789.44 349.067 3787.02 349.067 Q3780.43 349.067 3776.55 344.927 Q3772.67 340.786 3772.67 333.755 Q3772.67 326.619 3776.57 322.531 Q3780.51 318.442 3787.33 318.442 Q3789.54 318.442 3791.65 318.911 Q3793.76 319.354 3795.74 320.265 Z" fill="#000000" fill-rule="nonzero" fill-opacity="1" /><path clip-path="url(#clip360)" d="M3808.81 310.864 L3808.81 319.145 L3818.68 319.145 L3818.68 322.869 L3808.81 322.869 L3808.81 338.703 Q3808.81 342.27 3809.78 343.286 Q3810.77 344.302 3813.76 344.302 L3818.68 344.302 L3818.68 348.312 L3813.76 348.312 Q3808.21 348.312 3806.1 346.255 Q3803.99 344.171 3803.99 338.703 L3803.99 322.869 L3800.48 322.869 L3800.48 319.145 L3803.99 319.145 L3803.99 310.864 L3808.81 310.864 Z" fill="#000000" fill-rule="nonzero" fill-opacity="1" /><path clip-path="url(#clip360)" d="M3847.15 357.166 L3847.15 360.89 L3819.44 360.89 L3819.44 357.166 L3847.15 357.166 Z" fill="#000000" fill-rule="nonzero" fill-opacity="1" /><path clip-path="url(#clip360)" d="M3853.24 343.885 L3861.83 343.885 L3861.83 314.224 L3852.48 316.099 L3852.48 311.307 L3861.78 309.432 L3867.04 309.432 L3867.04 343.885 L3875.63 343.885 L3875.63 348.312 L3853.24 348.312 L3853.24 343.885 Z" fill="#000000" fill-rule="nonzero" fill-opacity="1" /><polyline clip-path="url(#clip360)" style="stroke:#000000; stroke-linecap:round; stroke-linejoin:round; stroke-width:6.75; stroke-opacity:1; fill:none" points="3347.09,387.192 3596.85,387.192 "/>
<path clip-path="url(#clip360)" d="M3653.55 391.971 Q3647.75 391.971 3645.51 393.299 Q3643.27 394.627 3643.27 397.83 Q3643.27 400.382 3644.93 401.892 Q3646.63 403.377 3649.52 403.377 Q3653.5 403.377 3655.9 400.564 Q3658.32 397.726 3658.32 393.038 L3658.32 391.971 L3653.55 391.971 M3663.11 389.991 L3663.11 406.632 L3658.32 406.632 L3658.32 402.205 Q3656.68 404.861 3654.23 406.137 Q3651.78 407.387 3648.24 407.387 Q3643.76 407.387 3641.1 404.887 Q3638.47 402.361 3638.47 398.142 Q3638.47 393.221 3641.76 390.721 Q3645.06 388.221 3651.6 388.221 L3658.32 388.221 L3658.32 387.752 Q3658.32 384.445 3656.13 382.648 Q3653.97 380.825 3650.04 380.825 Q3647.54 380.825 3645.17 381.424 Q3642.8 382.023 3640.61 383.221 L3640.61 378.794 Q3643.24 377.778 3645.71 377.283 Q3648.19 376.762 3650.53 376.762 Q3656.86 376.762 3659.99 380.044 Q3663.11 383.325 3663.11 389.991 Z" fill="#000000" fill-rule="nonzero" fill-opacity="1" /><path clip-path="url(#clip360)" d="M3693.97 378.585 L3693.97 383.064 Q3691.94 381.945 3689.88 381.398 Q3687.85 380.825 3685.77 380.825 Q3681.1 380.825 3678.53 383.794 Q3675.95 386.736 3675.95 392.075 Q3675.95 397.413 3678.53 400.382 Q3681.1 403.325 3685.77 403.325 Q3687.85 403.325 3689.88 402.778 Q3691.94 402.205 3693.97 401.085 L3693.97 405.512 Q3691.96 406.45 3689.8 406.918 Q3687.67 407.387 3685.25 407.387 Q3678.66 407.387 3674.78 403.247 Q3670.9 399.106 3670.9 392.075 Q3670.9 384.939 3674.8 380.851 Q3678.73 376.762 3685.56 376.762 Q3687.77 376.762 3689.88 377.231 Q3691.99 377.674 3693.97 378.585 Z" fill="#000000" fill-rule="nonzero" fill-opacity="1" /><path clip-path="url(#clip360)" d="M3707.04 369.184 L3707.04 377.465 L3716.91 377.465 L3716.91 381.189 L3707.04 381.189 L3707.04 397.023 Q3707.04 400.59 3708.01 401.606 Q3709 402.622 3711.99 402.622 L3716.91 402.622 L3716.91 406.632 L3711.99 406.632 Q3706.44 406.632 3704.33 404.575 Q3702.22 402.491 3702.22 397.023 L3702.22 381.189 L3698.71 381.189 L3698.71 377.465 L3702.22 377.465 L3702.22 369.184 L3707.04 369.184 Z" fill="#000000" fill-rule="nonzero" fill-opacity="1" /><path clip-path="url(#clip360)" d="M3722.72 395.122 L3722.72 377.465 L3727.51 377.465 L3727.51 394.939 Q3727.51 399.08 3729.13 401.163 Q3730.74 403.221 3733.97 403.221 Q3737.85 403.221 3740.09 400.747 Q3742.35 398.273 3742.35 394.002 L3742.35 377.465 L3747.15 377.465 L3747.15 406.632 L3742.35 406.632 L3742.35 402.153 Q3740.61 404.809 3738.29 406.111 Q3736 407.387 3732.95 407.387 Q3727.93 407.387 3725.32 404.262 Q3722.72 401.137 3722.72 395.122 M3734.78 376.762 L3734.78 376.762 Z" fill="#000000" fill-rule="nonzero" fill-opacity="1" /><path clip-path="url(#clip360)" d="M3770.27 391.971 Q3764.46 391.971 3762.22 393.299 Q3759.98 394.627 3759.98 397.83 Q3759.98 400.382 3761.65 401.892 Q3763.34 403.377 3766.23 403.377 Q3770.22 403.377 3772.61 400.564 Q3775.04 397.726 3775.04 393.038 L3775.04 391.971 L3770.27 391.971 M3779.83 389.991 L3779.83 406.632 L3775.04 406.632 L3775.04 402.205 Q3773.4 404.861 3770.95 406.137 Q3768.5 407.387 3764.96 407.387 Q3760.48 407.387 3757.82 404.887 Q3755.19 402.361 3755.19 398.142 Q3755.19 393.221 3758.47 390.721 Q3761.78 388.221 3768.32 388.221 L3775.04 388.221 L3775.04 387.752 Q3775.04 384.445 3772.85 382.648 Q3770.69 380.825 3766.76 380.825 Q3764.26 380.825 3761.89 381.424 Q3759.52 382.023 3757.33 383.221 L3757.33 378.794 Q3759.96 377.778 3762.43 377.283 Q3764.91 376.762 3767.25 376.762 Q3773.58 376.762 3776.7 380.044 Q3779.83 383.325 3779.83 389.991 Z" fill="#000000" fill-rule="nonzero" fill-opacity="1" /><path clip-path="url(#clip360)" d="M3789.7 366.111 L3794.49 366.111 L3794.49 406.632 L3789.7 406.632 L3789.7 366.111 Z" fill="#000000" fill-rule="nonzero" fill-opacity="1" /></svg>
