<?xml version="1.0" encoding="utf-8"?>
<svg xmlns="http://www.w3.org/2000/svg" xmlns:xlink="http://www.w3.org/1999/xlink" width="1000" height="400" viewBox="0 0 4000 1600">
<defs>
  <clipPath id="clip680">
    <rect x="0" y="0" width="4000" height="1600"/>
  </clipPath>
</defs>
<path clip-path="url(#clip680)" d="M0 1600 L4000 1600 L4000 0 L0 0  Z" fill="#ffffff" fill-rule="evenodd" fill-opacity="1"/>
<defs>
  <clipPath id="clip681">
    <rect x="800" y="0" width="2801" height="1600"/>
  </clipPath>
</defs>
<path clip-path="url(#clip680)" d="M205.077 1497.68 L3180.41 1497.68 L3180.41 47.2441 L205.077 47.2441  Z" fill="#ffffff" fill-rule="evenodd" fill-opacity="1"/>
<defs>
  <clipPath id="clip682">
    <rect x="205" y="47" width="2976" height="1451"/>
  </clipPath>
</defs>
<polyline clip-path="url(#clip682)" style="stroke:#000000; stroke-linecap:round; stroke-linejoin:round; stroke-width:2; stroke-opacity:0.1; fill:none" points="289.284,1497.68 289.284,47.2441 "/>
<polyline clip-path="url(#clip682)" style="stroke:#000000; stroke-linecap:round; stroke-linejoin:round; stroke-width:2; stroke-opacity:0.1; fill:none" points="1096.06,1497.68 1096.06,47.2441 "/>
<polyline clip-path="url(#clip682)" style="stroke:#000000; stroke-linecap:round; stroke-linejoin:round; stroke-width:2; stroke-opacity:0.1; fill:none" points="1902.84,1497.68 1902.84,47.2441 "/>
<polyline clip-path="url(#clip682)" style="stroke:#000000; stroke-linecap:round; stroke-linejoin:round; stroke-width:2; stroke-opacity:0.1; fill:none" points="2709.62,1497.68 2709.62,47.2441 "/>
<polyline clip-path="url(#clip680)" style="stroke:#000000; stroke-linecap:round; stroke-linejoin:round; stroke-width:4; stroke-opacity:1; fill:none" points="205.077,1497.68 3180.41,1497.68 "/>
<polyline clip-path="url(#clip680)" style="stroke:#000000; stroke-linecap:round; stroke-linejoin:round; stroke-width:4; stroke-opacity:1; fill:none" points="289.284,1497.68 289.284,1478.78 "/>
<polyline clip-path="url(#clip680)" style="stroke:#000000; stroke-linecap:round; stroke-linejoin:round; stroke-width:4; stroke-opacity:1; fill:none" points="1096.06,1497.68 1096.06,1478.78 "/>
<polyline clip-path="url(#clip680)" style="stroke:#000000; stroke-linecap:round; stroke-linejoin:round; stroke-width:4; stroke-opacity:1; fill:none" points="1902.84,1497.68 1902.84,1478.78 "/>
<polyline clip-path="url(#clip680)" style="stroke:#000000; stroke-linecap:round; stroke-linejoin:round; stroke-width:4; stroke-opacity:1; fill:none" points="2709.62,1497.68 2709.62,1478.78 "/>
<path clip-path="url(#clip680)" d="M144.272 1573.85 L162.631 1573.85 L162.631 1578.28 L137.944 1578.28 L137.944 1573.85 Q140.939 1570.75 146.095 1565.55 Q151.277 1560.31 152.605 1558.8 Q155.131 1555.96 156.121 1554.01 Q157.136 1552.03 157.136 1550.13 Q157.136 1547.03 154.949 1545.08 Q152.787 1543.12 149.298 1543.12 Q146.824 1543.12 144.063 1543.98 Q141.329 1544.84 138.204 1546.59 L138.204 1541.27 Q141.381 1540 144.142 1539.35 Q146.902 1538.7 149.194 1538.7 Q155.235 1538.7 158.829 1541.72 Q162.423 1544.74 162.423 1549.79 Q162.423 1552.19 161.511 1554.35 Q160.626 1556.48 158.256 1559.4 Q157.605 1560.15 154.116 1563.77 Q150.626 1567.37 144.272 1573.85 Z" fill="#000000" fill-rule="nonzero" fill-opacity="1" /><path clip-path="url(#clip680)" d="M184.923 1542.86 Q180.86 1542.86 178.803 1546.87 Q176.772 1550.86 176.772 1558.88 Q176.772 1566.87 178.803 1570.88 Q180.86 1574.87 184.923 1574.87 Q189.011 1574.87 191.042 1570.88 Q193.1 1566.87 193.1 1558.88 Q193.1 1550.86 191.042 1546.87 Q189.011 1542.86 184.923 1542.86 M184.923 1538.7 Q191.459 1538.7 194.897 1543.88 Q198.36 1549.04 198.36 1558.88 Q198.36 1568.7 194.897 1573.88 Q191.459 1579.04 184.923 1579.04 Q178.386 1579.04 174.923 1573.88 Q171.485 1568.7 171.485 1558.88 Q171.485 1549.04 174.923 1543.88 Q178.386 1538.7 184.923 1538.7 Z" fill="#000000" fill-rule="nonzero" fill-opacity="1" /><path clip-path="url(#clip680)" d="M212.136 1573.85 L230.495 1573.85 L230.495 1578.28 L205.808 1578.28 L205.808 1573.85 Q208.803 1570.75 213.959 1565.55 Q219.141 1560.31 220.469 1558.8 Q222.995 1555.96 223.985 1554.01 Q225.001 1552.03 225.001 1550.13 Q225.001 1547.03 222.813 1545.08 Q220.652 1543.12 217.162 1543.12 Q214.688 1543.12 211.928 1543.98 Q209.193 1544.84 206.068 1546.59 L206.068 1541.27 Q209.245 1540 212.006 1539.35 Q214.766 1538.7 217.058 1538.7 Q223.1 1538.7 226.693 1541.72 Q230.287 1544.74 230.287 1549.79 Q230.287 1552.19 229.376 1554.35 Q228.49 1556.48 226.12 1559.4 Q225.469 1560.15 221.98 1563.77 Q218.49 1567.37 212.136 1573.85 Z" fill="#000000" fill-rule="nonzero" fill-opacity="1" /><path clip-path="url(#clip680)" d="M257.474 1557.32 Q261.25 1558.12 263.36 1560.68 Q265.495 1563.23 265.495 1566.98 Q265.495 1572.73 261.537 1575.88 Q257.579 1579.04 250.287 1579.04 Q247.839 1579.04 245.235 1578.54 Q242.657 1578.07 239.896 1577.11 L239.896 1572.03 Q242.084 1573.31 244.688 1573.96 Q247.292 1574.61 250.131 1574.61 Q255.079 1574.61 257.657 1572.65 Q260.261 1570.7 260.261 1566.98 Q260.261 1563.54 257.839 1561.61 Q255.443 1559.66 251.146 1559.66 L246.615 1559.66 L246.615 1555.34 L251.355 1555.34 Q255.235 1555.34 257.292 1553.8 Q259.349 1552.24 259.349 1549.32 Q259.349 1546.33 257.214 1544.74 Q255.105 1543.12 251.146 1543.12 Q248.985 1543.12 246.511 1543.59 Q244.037 1544.06 241.068 1545.05 L241.068 1540.36 Q244.063 1539.53 246.667 1539.11 Q249.297 1538.7 251.615 1538.7 Q257.605 1538.7 261.094 1541.43 Q264.584 1544.14 264.584 1548.77 Q264.584 1552 262.735 1554.24 Q260.886 1556.46 257.474 1557.32 Z" fill="#000000" fill-rule="nonzero" fill-opacity="1" /><path clip-path="url(#clip680)" d="M272.37 1561.54 L286.406 1561.54 L286.406 1565.81 L272.37 1565.81 L272.37 1561.54 Z" fill="#000000" fill-rule="nonzero" fill-opacity="1" /><path clip-path="url(#clip680)" d="M305.964 1542.86 Q301.901 1542.86 299.844 1546.87 Q297.813 1550.86 297.813 1558.88 Q297.813 1566.87 299.844 1570.88 Q301.901 1574.87 305.964 1574.87 Q310.052 1574.87 312.083 1570.88 Q314.141 1566.87 314.141 1558.88 Q314.141 1550.86 312.083 1546.87 Q310.052 1542.86 305.964 1542.86 M305.964 1538.7 Q312.5 1538.7 315.938 1543.88 Q319.401 1549.04 319.401 1558.88 Q319.401 1568.7 315.938 1573.88 Q312.5 1579.04 305.964 1579.04 Q299.427 1579.04 295.964 1573.88 Q292.526 1568.7 292.526 1558.88 Q292.526 1549.04 295.964 1543.88 Q299.427 1538.7 305.964 1538.7 Z" fill="#000000" fill-rule="nonzero" fill-opacity="1" /><path clip-path="url(#clip680)" d="M329.557 1573.85 L338.151 1573.85 L338.151 1544.19 L328.802 1546.07 L328.802 1541.27 L338.099 1539.4 L343.359 1539.4 L343.359 1573.85 L351.953 1573.85 L351.953 1578.28 L329.557 1578.28 L329.557 1573.85 Z" fill="#000000" fill-rule="nonzero" fill-opacity="1" /><path clip-path="url(#clip680)" d="M359.479 1561.54 L373.515 1561.54 L373.515 1565.81 L359.479 1565.81 L359.479 1561.54 Z" fill="#000000" fill-rule="nonzero" fill-opacity="1" /><path clip-path="url(#clip680)" d="M382.734 1573.85 L391.328 1573.85 L391.328 1544.19 L381.979 1546.07 L381.979 1541.27 L391.276 1539.4 L396.536 1539.4 L396.536 1573.85 L405.13 1573.85 L405.13 1578.28 L382.734 1578.28 L382.734 1573.85 Z" fill="#000000" fill-rule="nonzero" fill-opacity="1" /><path clip-path="url(#clip680)" d="M427.656 1556.74 Q424.114 1556.74 422.031 1559.17 Q419.973 1561.59 419.973 1565.81 Q419.973 1570 422.031 1572.45 Q424.114 1574.87 427.656 1574.87 Q431.197 1574.87 433.255 1572.45 Q435.338 1570 435.338 1565.81 Q435.338 1561.59 433.255 1559.17 Q431.197 1556.74 427.656 1556.74 M438.098 1540.26 L438.098 1545.05 Q436.119 1544.11 434.088 1543.62 Q432.083 1543.12 430.104 1543.12 Q424.895 1543.12 422.135 1546.64 Q419.401 1550.16 419.01 1557.26 Q420.546 1555 422.864 1553.8 Q425.182 1552.58 427.968 1552.58 Q433.828 1552.58 437.213 1556.14 Q440.624 1559.69 440.624 1565.81 Q440.624 1571.8 437.083 1575.42 Q433.541 1579.04 427.656 1579.04 Q420.911 1579.04 417.343 1573.88 Q413.776 1568.7 413.776 1558.88 Q413.776 1549.66 418.151 1544.19 Q422.526 1538.7 429.895 1538.7 Q431.874 1538.7 433.88 1539.09 Q435.911 1539.48 438.098 1540.26 Z" fill="#000000" fill-rule="nonzero" fill-opacity="1" /><path clip-path="url(#clip680)" d="M951.194 1573.85 L969.553 1573.85 L969.553 1578.28 L944.866 1578.28 L944.866 1573.85 Q947.861 1570.75 953.017 1565.55 Q958.199 1560.31 959.527 1558.8 Q962.053 1555.96 963.043 1554.01 Q964.059 1552.03 964.059 1550.13 Q964.059 1547.03 961.871 1545.08 Q959.71 1543.12 956.22 1543.12 Q953.746 1543.12 950.986 1543.98 Q948.251 1544.84 945.126 1546.59 L945.126 1541.27 Q948.304 1540 951.064 1539.35 Q953.824 1538.7 956.116 1538.7 Q962.158 1538.7 965.751 1541.72 Q969.345 1544.74 969.345 1549.79 Q969.345 1552.19 968.434 1554.35 Q967.548 1556.48 965.178 1559.4 Q964.527 1560.15 961.038 1563.77 Q957.548 1567.37 951.194 1573.85 Z" fill="#000000" fill-rule="nonzero" fill-opacity="1" /><path clip-path="url(#clip680)" d="M991.845 1542.86 Q987.782 1542.86 985.725 1546.87 Q983.694 1550.86 983.694 1558.88 Q983.694 1566.87 985.725 1570.88 Q987.782 1574.87 991.845 1574.87 Q995.933 1574.87 997.965 1570.88 Q1000.02 1566.87 1000.02 1558.88 Q1000.02 1550.86 997.965 1546.87 Q995.933 1542.86 991.845 1542.86 M991.845 1538.7 Q998.381 1538.7 1001.82 1543.88 Q1005.28 1549.04 1005.28 1558.88 Q1005.28 1568.7 1001.82 1573.88 Q998.381 1579.04 991.845 1579.04 Q985.309 1579.04 981.845 1573.88 Q978.408 1568.7 978.408 1558.88 Q978.408 1549.04 981.845 1543.88 Q985.309 1538.7 991.845 1538.7 Z" fill="#000000" fill-rule="nonzero" fill-opacity="1" /><path clip-path="url(#clip680)" d="M1019.06 1573.85 L1037.42 1573.85 L1037.42 1578.28 L1012.73 1578.28 L1012.73 1573.85 Q1015.73 1570.75 1020.88 1565.55 Q1026.06 1560.31 1027.39 1558.8 Q1029.92 1555.96 1030.91 1554.01 Q1031.92 1552.03 1031.92 1550.13 Q1031.92 1547.03 1029.74 1545.08 Q1027.57 1543.12 1024.08 1543.12 Q1021.61 1543.12 1018.85 1543.98 Q1016.12 1544.84 1012.99 1546.59 L1012.99 1541.27 Q1016.17 1540 1018.93 1539.35 Q1021.69 1538.7 1023.98 1538.7 Q1030.02 1538.7 1033.62 1541.72 Q1037.21 1544.74 1037.21 1549.79 Q1037.21 1552.19 1036.3 1554.35 Q1035.41 1556.48 1033.04 1559.4 Q1032.39 1560.15 1028.9 1563.77 Q1025.41 1567.37 1019.06 1573.85 Z" fill="#000000" fill-rule="nonzero" fill-opacity="1" /><path clip-path="url(#clip680)" d="M1064.4 1557.32 Q1068.17 1558.12 1070.28 1560.68 Q1072.42 1563.23 1072.42 1566.98 Q1072.42 1572.73 1068.46 1575.88 Q1064.5 1579.04 1057.21 1579.04 Q1054.76 1579.04 1052.16 1578.54 Q1049.58 1578.07 1046.82 1577.11 L1046.82 1572.03 Q1049.01 1573.31 1051.61 1573.96 Q1054.21 1574.61 1057.05 1574.61 Q1062 1574.61 1064.58 1572.65 Q1067.18 1570.7 1067.18 1566.98 Q1067.18 1563.54 1064.76 1561.61 Q1062.37 1559.66 1058.07 1559.66 L1053.54 1559.66 L1053.54 1555.34 L1058.28 1555.34 Q1062.16 1555.34 1064.21 1553.8 Q1066.27 1552.24 1066.27 1549.32 Q1066.27 1546.33 1064.14 1544.74 Q1062.03 1543.12 1058.07 1543.12 Q1055.91 1543.12 1053.43 1543.59 Q1050.96 1544.06 1047.99 1545.05 L1047.99 1540.36 Q1050.99 1539.53 1053.59 1539.11 Q1056.22 1538.7 1058.54 1538.7 Q1064.53 1538.7 1068.02 1541.43 Q1071.51 1544.14 1071.51 1548.77 Q1071.51 1552 1069.66 1554.24 Q1067.81 1556.46 1064.4 1557.32 Z" fill="#000000" fill-rule="nonzero" fill-opacity="1" /><path clip-path="url(#clip680)" d="M1079.29 1561.54 L1093.33 1561.54 L1093.33 1565.81 L1079.29 1565.81 L1079.29 1561.54 Z" fill="#000000" fill-rule="nonzero" fill-opacity="1" /><path clip-path="url(#clip680)" d="M1112.89 1542.86 Q1108.82 1542.86 1106.77 1546.87 Q1104.73 1550.86 1104.73 1558.88 Q1104.73 1566.87 1106.77 1570.88 Q1108.82 1574.87 1112.89 1574.87 Q1116.97 1574.87 1119.01 1570.88 Q1121.06 1566.87 1121.06 1558.88 Q1121.06 1550.86 1119.01 1546.87 Q1116.97 1542.86 1112.89 1542.86 M1112.89 1538.7 Q1119.42 1538.7 1122.86 1543.88 Q1126.32 1549.04 1126.32 1558.88 Q1126.32 1568.7 1122.86 1573.88 Q1119.42 1579.04 1112.89 1579.04 Q1106.35 1579.04 1102.89 1573.88 Q1099.45 1568.7 1099.45 1558.88 Q1099.45 1549.04 1102.89 1543.88 Q1106.35 1538.7 1112.89 1538.7 Z" fill="#000000" fill-rule="nonzero" fill-opacity="1" /><path clip-path="url(#clip680)" d="M1136.48 1573.85 L1145.07 1573.85 L1145.07 1544.19 L1135.72 1546.07 L1135.72 1541.27 L1145.02 1539.4 L1150.28 1539.4 L1150.28 1573.85 L1158.88 1573.85 L1158.88 1578.28 L1136.48 1578.28 L1136.48 1573.85 Z" fill="#000000" fill-rule="nonzero" fill-opacity="1" /><path clip-path="url(#clip680)" d="M1166.4 1561.54 L1180.44 1561.54 L1180.44 1565.81 L1166.4 1565.81 L1166.4 1561.54 Z" fill="#000000" fill-rule="nonzero" fill-opacity="1" /><path clip-path="url(#clip680)" d="M1189.66 1573.85 L1198.25 1573.85 L1198.25 1544.19 L1188.9 1546.07 L1188.9 1541.27 L1198.2 1539.4 L1203.46 1539.4 L1203.46 1573.85 L1212.05 1573.85 L1212.05 1578.28 L1189.66 1578.28 L1189.66 1573.85 Z" fill="#000000" fill-rule="nonzero" fill-opacity="1" /><path clip-path="url(#clip680)" d="M1233.93 1559.82 Q1230.18 1559.82 1228.02 1561.82 Q1225.88 1563.83 1225.88 1567.34 Q1225.88 1570.86 1228.02 1572.86 Q1230.18 1574.87 1233.93 1574.87 Q1237.68 1574.87 1239.84 1572.86 Q1242 1570.83 1242 1567.34 Q1242 1563.83 1239.84 1561.82 Q1237.7 1559.82 1233.93 1559.82 M1228.67 1557.58 Q1225.28 1556.74 1223.38 1554.43 Q1221.51 1552.11 1221.51 1548.77 Q1221.51 1544.11 1224.81 1541.41 Q1228.15 1538.7 1233.93 1538.7 Q1239.73 1538.7 1243.04 1541.41 Q1246.35 1544.11 1246.35 1548.77 Q1246.35 1552.11 1244.45 1554.43 Q1242.57 1556.74 1239.21 1557.58 Q1243.02 1558.46 1245.12 1561.04 Q1247.26 1563.62 1247.26 1567.34 Q1247.26 1572.99 1243.8 1576.01 Q1240.36 1579.04 1233.93 1579.04 Q1227.49 1579.04 1224.03 1576.01 Q1220.59 1572.99 1220.59 1567.34 Q1220.59 1563.62 1222.73 1561.04 Q1224.86 1558.46 1228.67 1557.58 M1226.74 1549.27 Q1226.74 1552.29 1228.61 1553.98 Q1230.52 1555.68 1233.93 1555.68 Q1237.31 1555.68 1239.21 1553.98 Q1241.14 1552.29 1241.14 1549.27 Q1241.14 1546.25 1239.21 1544.56 Q1237.31 1542.86 1233.93 1542.86 Q1230.52 1542.86 1228.61 1544.56 Q1226.74 1546.25 1226.74 1549.27 Z" fill="#000000" fill-rule="nonzero" fill-opacity="1" /><path clip-path="url(#clip680)" d="M1757.92 1573.85 L1776.28 1573.85 L1776.28 1578.28 L1751.59 1578.28 L1751.59 1573.85 Q1754.59 1570.75 1759.74 1565.55 Q1764.93 1560.31 1766.25 1558.8 Q1768.78 1555.96 1769.77 1554.01 Q1770.79 1552.03 1770.79 1550.13 Q1770.79 1547.03 1768.6 1545.08 Q1766.44 1543.12 1762.95 1543.12 Q1760.47 1543.12 1757.71 1543.98 Q1754.98 1544.84 1751.85 1546.59 L1751.85 1541.27 Q1755.03 1540 1757.79 1539.35 Q1760.55 1538.7 1762.84 1538.7 Q1768.88 1538.7 1772.48 1541.72 Q1776.07 1544.74 1776.07 1549.79 Q1776.07 1552.19 1775.16 1554.35 Q1774.28 1556.48 1771.91 1559.4 Q1771.25 1560.15 1767.76 1563.77 Q1764.28 1567.37 1757.92 1573.85 Z" fill="#000000" fill-rule="nonzero" fill-opacity="1" /><path clip-path="url(#clip680)" d="M1798.57 1542.86 Q1794.51 1542.86 1792.45 1546.87 Q1790.42 1550.86 1790.42 1558.88 Q1790.42 1566.87 1792.45 1570.88 Q1794.51 1574.87 1798.57 1574.87 Q1802.66 1574.87 1804.69 1570.88 Q1806.75 1566.87 1806.75 1558.88 Q1806.75 1550.86 1804.69 1546.87 Q1802.66 1542.86 1798.57 1542.86 M1798.57 1538.7 Q1805.11 1538.7 1808.55 1543.88 Q1812.01 1549.04 1812.01 1558.88 Q1812.01 1568.7 1808.55 1573.88 Q1805.11 1579.04 1798.57 1579.04 Q1792.04 1579.04 1788.57 1573.88 Q1785.13 1568.7 1785.13 1558.88 Q1785.13 1549.04 1788.57 1543.88 Q1792.04 1538.7 1798.57 1538.7 Z" fill="#000000" fill-rule="nonzero" fill-opacity="1" /><path clip-path="url(#clip680)" d="M1825.79 1573.85 L1844.14 1573.85 L1844.14 1578.28 L1819.46 1578.28 L1819.46 1573.85 Q1822.45 1570.75 1827.61 1565.55 Q1832.79 1560.31 1834.12 1558.8 Q1836.64 1555.96 1837.63 1554.01 Q1838.65 1552.03 1838.65 1550.13 Q1838.65 1547.03 1836.46 1545.08 Q1834.3 1543.12 1830.81 1543.12 Q1828.34 1543.12 1825.58 1543.98 Q1822.84 1544.84 1819.72 1546.59 L1819.72 1541.27 Q1822.89 1540 1825.66 1539.35 Q1828.42 1538.7 1830.71 1538.7 Q1836.75 1538.7 1840.34 1541.72 Q1843.94 1544.74 1843.94 1549.79 Q1843.94 1552.19 1843.02 1554.35 Q1842.14 1556.48 1839.77 1559.4 Q1839.12 1560.15 1835.63 1563.77 Q1832.14 1567.37 1825.79 1573.85 Z" fill="#000000" fill-rule="nonzero" fill-opacity="1" /><path clip-path="url(#clip680)" d="M1871.12 1557.32 Q1874.9 1558.12 1877.01 1560.68 Q1879.14 1563.23 1879.14 1566.98 Q1879.14 1572.73 1875.19 1575.88 Q1871.23 1579.04 1863.94 1579.04 Q1861.49 1579.04 1858.88 1578.54 Q1856.31 1578.07 1853.55 1577.11 L1853.55 1572.03 Q1855.73 1573.31 1858.34 1573.96 Q1860.94 1574.61 1863.78 1574.61 Q1868.73 1574.61 1871.31 1572.65 Q1873.91 1570.7 1873.91 1566.98 Q1873.91 1563.54 1871.49 1561.61 Q1869.09 1559.66 1864.8 1559.66 L1860.26 1559.66 L1860.26 1555.34 L1865 1555.34 Q1868.88 1555.34 1870.94 1553.8 Q1873 1552.24 1873 1549.32 Q1873 1546.33 1870.86 1544.74 Q1868.75 1543.12 1864.8 1543.12 Q1862.63 1543.12 1860.16 1543.59 Q1857.69 1544.06 1854.72 1545.05 L1854.72 1540.36 Q1857.71 1539.53 1860.32 1539.11 Q1862.95 1538.7 1865.26 1538.7 Q1871.25 1538.7 1874.74 1541.43 Q1878.23 1544.14 1878.23 1548.77 Q1878.23 1552 1876.38 1554.24 Q1874.54 1556.46 1871.12 1557.32 Z" fill="#000000" fill-rule="nonzero" fill-opacity="1" /><path clip-path="url(#clip680)" d="M1886.02 1561.54 L1900.06 1561.54 L1900.06 1565.81 L1886.02 1565.81 L1886.02 1561.54 Z" fill="#000000" fill-rule="nonzero" fill-opacity="1" /><path clip-path="url(#clip680)" d="M1919.61 1542.86 Q1915.55 1542.86 1913.49 1546.87 Q1911.46 1550.86 1911.46 1558.88 Q1911.46 1566.87 1913.49 1570.88 Q1915.55 1574.87 1919.61 1574.87 Q1923.7 1574.87 1925.73 1570.88 Q1927.79 1566.87 1927.79 1558.88 Q1927.79 1550.86 1925.73 1546.87 Q1923.7 1542.86 1919.61 1542.86 M1919.61 1538.7 Q1926.15 1538.7 1929.59 1543.88 Q1933.05 1549.04 1933.05 1558.88 Q1933.05 1568.7 1929.59 1573.88 Q1926.15 1579.04 1919.61 1579.04 Q1913.08 1579.04 1909.61 1573.88 Q1906.18 1568.7 1906.18 1558.88 Q1906.18 1549.04 1909.61 1543.88 Q1913.08 1538.7 1919.61 1538.7 Z" fill="#000000" fill-rule="nonzero" fill-opacity="1" /><path clip-path="url(#clip680)" d="M1943.21 1573.85 L1951.8 1573.85 L1951.8 1544.19 L1942.45 1546.07 L1942.45 1541.27 L1951.75 1539.4 L1957.01 1539.4 L1957.01 1573.85 L1965.6 1573.85 L1965.6 1578.28 L1943.21 1578.28 L1943.21 1573.85 Z" fill="#000000" fill-rule="nonzero" fill-opacity="1" /><path clip-path="url(#clip680)" d="M1973.13 1561.54 L1987.16 1561.54 L1987.16 1565.81 L1973.13 1565.81 L1973.13 1561.54 Z" fill="#000000" fill-rule="nonzero" fill-opacity="1" /><path clip-path="url(#clip680)" d="M2000 1573.85 L2018.36 1573.85 L2018.36 1578.28 L1993.68 1578.28 L1993.68 1573.85 Q1996.67 1570.75 2001.83 1565.55 Q2007.01 1560.31 2008.34 1558.8 Q2010.86 1555.96 2011.85 1554.01 Q2012.87 1552.03 2012.87 1550.13 Q2012.87 1547.03 2010.68 1545.08 Q2008.52 1543.12 2005.03 1543.12 Q2002.56 1543.12 1999.79 1543.98 Q1997.06 1544.84 1993.94 1546.59 L1993.94 1541.27 Q1997.11 1540 1999.87 1539.35 Q2002.63 1538.7 2004.93 1538.7 Q2010.97 1538.7 2014.56 1541.72 Q2018.15 1544.74 2018.15 1549.79 Q2018.15 1552.19 2017.24 1554.35 Q2016.36 1556.48 2013.99 1559.4 Q2013.34 1560.15 2009.85 1563.77 Q2006.36 1567.37 2000 1573.85 Z" fill="#000000" fill-rule="nonzero" fill-opacity="1" /><path clip-path="url(#clip680)" d="M2040.65 1542.86 Q2036.59 1542.86 2034.53 1546.87 Q2032.5 1550.86 2032.5 1558.88 Q2032.5 1566.87 2034.53 1570.88 Q2036.59 1574.87 2040.65 1574.87 Q2044.74 1574.87 2046.77 1570.88 Q2048.83 1566.87 2048.83 1558.88 Q2048.83 1550.86 2046.77 1546.87 Q2044.74 1542.86 2040.65 1542.86 M2040.65 1538.7 Q2047.19 1538.7 2050.63 1543.88 Q2054.09 1549.04 2054.09 1558.88 Q2054.09 1568.7 2050.63 1573.88 Q2047.19 1579.04 2040.65 1579.04 Q2034.12 1579.04 2030.65 1573.88 Q2027.22 1568.7 2027.22 1558.88 Q2027.22 1549.04 2030.65 1543.88 Q2034.12 1538.7 2040.65 1538.7 Z" fill="#000000" fill-rule="nonzero" fill-opacity="1" /><path clip-path="url(#clip680)" d="M2565.6 1573.85 L2583.96 1573.85 L2583.96 1578.28 L2559.27 1578.28 L2559.27 1573.85 Q2562.27 1570.75 2567.42 1565.55 Q2572.6 1560.31 2573.93 1558.8 Q2576.46 1555.96 2577.45 1554.01 Q2578.46 1552.03 2578.46 1550.13 Q2578.46 1547.03 2576.28 1545.08 Q2574.11 1543.12 2570.62 1543.12 Q2568.15 1543.12 2565.39 1543.98 Q2562.66 1544.84 2559.53 1546.59 L2559.53 1541.27 Q2562.71 1540 2565.47 1539.35 Q2568.23 1538.7 2570.52 1538.7 Q2576.56 1538.7 2580.16 1541.72 Q2583.75 1544.74 2583.75 1549.79 Q2583.75 1552.19 2582.84 1554.35 Q2581.95 1556.48 2579.58 1559.4 Q2578.93 1560.15 2575.44 1563.77 Q2571.95 1567.37 2565.6 1573.85 Z" fill="#000000" fill-rule="nonzero" fill-opacity="1" /><path clip-path="url(#clip680)" d="M2606.25 1542.86 Q2602.19 1542.86 2600.13 1546.87 Q2598.1 1550.86 2598.1 1558.88 Q2598.1 1566.87 2600.13 1570.88 Q2602.19 1574.87 2606.25 1574.87 Q2610.34 1574.87 2612.37 1570.88 Q2614.43 1566.87 2614.43 1558.88 Q2614.43 1550.86 2612.37 1546.87 Q2610.34 1542.86 2606.25 1542.86 M2606.25 1538.7 Q2612.79 1538.7 2616.22 1543.88 Q2619.69 1549.04 2619.69 1558.88 Q2619.69 1568.7 2616.22 1573.88 Q2612.79 1579.04 2606.25 1579.04 Q2599.71 1579.04 2596.25 1573.88 Q2592.81 1568.7 2592.81 1558.88 Q2592.81 1549.04 2596.25 1543.88 Q2599.71 1538.7 2606.25 1538.7 Z" fill="#000000" fill-rule="nonzero" fill-opacity="1" /><path clip-path="url(#clip680)" d="M2633.46 1573.85 L2651.82 1573.85 L2651.82 1578.28 L2627.13 1578.28 L2627.13 1573.85 Q2630.13 1570.75 2635.29 1565.55 Q2640.47 1560.31 2641.8 1558.8 Q2644.32 1555.96 2645.31 1554.01 Q2646.33 1552.03 2646.33 1550.13 Q2646.33 1547.03 2644.14 1545.08 Q2641.98 1543.12 2638.49 1543.12 Q2636.01 1543.12 2633.25 1543.98 Q2630.52 1544.84 2627.4 1546.59 L2627.4 1541.27 Q2630.57 1540 2633.33 1539.35 Q2636.09 1538.7 2638.38 1538.7 Q2644.43 1538.7 2648.02 1541.72 Q2651.61 1544.74 2651.61 1549.79 Q2651.61 1552.19 2650.7 1554.35 Q2649.82 1556.48 2647.45 1559.4 Q2646.8 1560.15 2643.31 1563.77 Q2639.82 1567.37 2633.46 1573.85 Z" fill="#000000" fill-rule="nonzero" fill-opacity="1" /><path clip-path="url(#clip680)" d="M2678.8 1557.32 Q2682.58 1558.12 2684.69 1560.68 Q2686.82 1563.23 2686.82 1566.98 Q2686.82 1572.73 2682.86 1575.88 Q2678.91 1579.04 2671.61 1579.04 Q2669.17 1579.04 2666.56 1578.54 Q2663.98 1578.07 2661.22 1577.11 L2661.22 1572.03 Q2663.41 1573.31 2666.01 1573.96 Q2668.62 1574.61 2671.46 1574.61 Q2676.41 1574.61 2678.98 1572.65 Q2681.59 1570.7 2681.59 1566.98 Q2681.59 1563.54 2679.17 1561.61 Q2676.77 1559.66 2672.47 1559.66 L2667.94 1559.66 L2667.94 1555.34 L2672.68 1555.34 Q2676.56 1555.34 2678.62 1553.8 Q2680.68 1552.24 2680.68 1549.32 Q2680.68 1546.33 2678.54 1544.74 Q2676.43 1543.12 2672.47 1543.12 Q2670.31 1543.12 2667.84 1543.59 Q2665.36 1544.06 2662.4 1545.05 L2662.4 1540.36 Q2665.39 1539.53 2667.99 1539.11 Q2670.62 1538.7 2672.94 1538.7 Q2678.93 1538.7 2682.42 1541.43 Q2685.91 1544.14 2685.91 1548.77 Q2685.91 1552 2684.06 1554.24 Q2682.21 1556.46 2678.8 1557.32 Z" fill="#000000" fill-rule="nonzero" fill-opacity="1" /><path clip-path="url(#clip680)" d="M2693.7 1561.54 L2707.73 1561.54 L2707.73 1565.81 L2693.7 1565.81 L2693.7 1561.54 Z" fill="#000000" fill-rule="nonzero" fill-opacity="1" /><path clip-path="url(#clip680)" d="M2727.29 1542.86 Q2723.23 1542.86 2721.17 1546.87 Q2719.14 1550.86 2719.14 1558.88 Q2719.14 1566.87 2721.17 1570.88 Q2723.23 1574.87 2727.29 1574.87 Q2731.38 1574.87 2733.41 1570.88 Q2735.47 1566.87 2735.47 1558.88 Q2735.47 1550.86 2733.41 1546.87 Q2731.38 1542.86 2727.29 1542.86 M2727.29 1538.7 Q2733.83 1538.7 2737.26 1543.88 Q2740.73 1549.04 2740.73 1558.88 Q2740.73 1568.7 2737.26 1573.88 Q2733.83 1579.04 2727.29 1579.04 Q2720.75 1579.04 2717.29 1573.88 Q2713.85 1568.7 2713.85 1558.88 Q2713.85 1549.04 2717.29 1543.88 Q2720.75 1538.7 2727.29 1538.7 Z" fill="#000000" fill-rule="nonzero" fill-opacity="1" /><path clip-path="url(#clip680)" d="M2750.88 1573.85 L2759.48 1573.85 L2759.48 1544.19 L2750.13 1546.07 L2750.13 1541.27 L2759.43 1539.4 L2764.69 1539.4 L2764.69 1573.85 L2773.28 1573.85 L2773.28 1578.28 L2750.88 1578.28 L2750.88 1573.85 Z" fill="#000000" fill-rule="nonzero" fill-opacity="1" /><path clip-path="url(#clip680)" d="M2780.81 1561.54 L2794.84 1561.54 L2794.84 1565.81 L2780.81 1565.81 L2780.81 1561.54 Z" fill="#000000" fill-rule="nonzero" fill-opacity="1" /><path clip-path="url(#clip680)" d="M2807.68 1573.85 L2826.04 1573.85 L2826.04 1578.28 L2801.35 1578.28 L2801.35 1573.85 Q2804.35 1570.75 2809.5 1565.55 Q2814.69 1560.31 2816.01 1558.8 Q2818.54 1555.96 2819.53 1554.01 Q2820.55 1552.03 2820.55 1550.13 Q2820.55 1547.03 2818.36 1545.08 Q2816.2 1543.12 2812.71 1543.12 Q2810.23 1543.12 2807.47 1543.98 Q2804.74 1544.84 2801.61 1546.59 L2801.61 1541.27 Q2804.79 1540 2807.55 1539.35 Q2810.31 1538.7 2812.6 1538.7 Q2818.64 1538.7 2822.24 1541.72 Q2825.83 1544.74 2825.83 1549.79 Q2825.83 1552.19 2824.92 1554.35 Q2824.03 1556.48 2821.66 1559.4 Q2821.01 1560.15 2817.52 1563.77 Q2814.03 1567.37 2807.68 1573.85 Z" fill="#000000" fill-rule="nonzero" fill-opacity="1" /><path clip-path="url(#clip680)" d="M2841.61 1573.85 L2859.97 1573.85 L2859.97 1578.28 L2835.28 1578.28 L2835.28 1573.85 Q2838.28 1570.75 2843.44 1565.55 Q2848.62 1560.31 2849.95 1558.8 Q2852.47 1555.96 2853.46 1554.01 Q2854.48 1552.03 2854.48 1550.13 Q2854.48 1547.03 2852.29 1545.08 Q2850.13 1543.12 2846.64 1543.12 Q2844.16 1543.12 2841.4 1543.98 Q2838.67 1544.84 2835.55 1546.59 L2835.55 1541.27 Q2838.72 1540 2841.48 1539.35 Q2844.24 1538.7 2846.53 1538.7 Q2852.58 1538.7 2856.17 1541.72 Q2859.76 1544.74 2859.76 1549.79 Q2859.76 1552.19 2858.85 1554.35 Q2857.97 1556.48 2855.6 1559.4 Q2854.95 1560.15 2851.46 1563.77 Q2847.97 1567.37 2841.61 1573.85 Z" fill="#000000" fill-rule="nonzero" fill-opacity="1" /><polyline clip-path="url(#clip682)" style="stroke:#000000; stroke-linecap:round; stroke-linejoin:round; stroke-width:2; stroke-opacity:0.1; fill:none" points="205.077,1300.25 3180.41,1300.25 "/>
<polyline clip-path="url(#clip682)" style="stroke:#000000; stroke-linecap:round; stroke-linejoin:round; stroke-width:2; stroke-opacity:0.1; fill:none" points="205.077,973.457 3180.41,973.457 "/>
<polyline clip-path="url(#clip682)" style="stroke:#000000; stroke-linecap:round; stroke-linejoin:round; stroke-width:2; stroke-opacity:0.1; fill:none" points="205.077,646.668 3180.41,646.668 "/>
<polyline clip-path="url(#clip682)" style="stroke:#000000; stroke-linecap:round; stroke-linejoin:round; stroke-width:2; stroke-opacity:0.1; fill:none" points="205.077,319.879 3180.41,319.879 "/>
<polyline clip-path="url(#clip680)" style="stroke:#000000; stroke-linecap:round; stroke-linejoin:round; stroke-width:4; stroke-opacity:1; fill:none" points="205.077,1497.68 205.077,47.2441 "/>
<polyline clip-path="url(#clip680)" style="stroke:#000000; stroke-linecap:round; stroke-linejoin:round; stroke-width:4; stroke-opacity:1; fill:none" points="205.077,1300.25 220.08,1300.25 "/>
<polyline clip-path="url(#clip680)" style="stroke:#000000; stroke-linecap:round; stroke-linejoin:round; stroke-width:4; stroke-opacity:1; fill:none" points="205.077,973.457 220.08,973.457 "/>
<polyline clip-path="url(#clip680)" style="stroke:#000000; stroke-linecap:round; stroke-linejoin:round; stroke-width:4; stroke-opacity:1; fill:none" points="205.077,646.668 220.08,646.668 "/>
<polyline clip-path="url(#clip680)" style="stroke:#000000; stroke-linecap:round; stroke-linejoin:round; stroke-width:4; stroke-opacity:1; fill:none" points="205.077,319.879 220.08,319.879 "/>
<path clip-path="url(#clip680)" d="M88.4883 1315.26 L97.082 1315.26 L97.082 1285.6 L87.7331 1287.47 L87.7331 1282.68 L97.0299 1280.81 L102.29 1280.81 L102.29 1315.26 L110.884 1315.26 L110.884 1319.69 L88.4883 1319.69 L88.4883 1315.26 Z" fill="#000000" fill-rule="nonzero" fill-opacity="1" /><path clip-path="url(#clip680)" d="M121.561 1280.81 L142.212 1280.81 L142.212 1285.23 L126.379 1285.23 L126.379 1294.76 Q127.525 1294.37 128.67 1294.19 Q129.816 1293.98 130.962 1293.98 Q137.472 1293.98 141.274 1297.55 Q145.077 1301.12 145.077 1307.21 Q145.077 1313.49 141.17 1316.98 Q137.264 1320.44 130.155 1320.44 Q127.707 1320.44 125.155 1320.03 Q122.629 1319.61 119.92 1318.78 L119.92 1313.49 Q122.264 1314.76 124.764 1315.39 Q127.264 1316.01 130.051 1316.01 Q134.556 1316.01 137.186 1313.64 Q139.816 1311.28 139.816 1307.21 Q139.816 1303.15 137.186 1300.78 Q134.556 1298.41 130.051 1298.41 Q127.941 1298.41 125.832 1298.88 Q123.748 1299.35 121.561 1300.34 L121.561 1280.81 Z" fill="#000000" fill-rule="nonzero" fill-opacity="1" /><path clip-path="url(#clip680)" d="M90.9882 988.47 L109.348 988.47 L109.348 992.897 L84.6602 992.897 L84.6602 988.47 Q87.6549 985.371 92.8112 980.163 Q97.9934 974.929 99.3215 973.418 Q101.848 970.58 102.837 968.627 Q103.853 966.647 103.853 964.746 Q103.853 961.647 101.665 959.694 Q99.5038 957.741 96.0143 957.741 Q93.5403 957.741 90.7799 958.601 Q88.0456 959.46 84.9206 961.205 L84.9206 955.892 Q88.0976 954.616 90.858 953.965 Q93.6184 953.314 95.9101 953.314 Q101.952 953.314 105.545 956.335 Q109.139 959.356 109.139 964.408 Q109.139 966.804 108.228 968.965 Q107.342 971.101 104.973 974.017 Q104.322 974.772 100.832 978.392 Q97.3424 981.986 90.9882 988.47 Z" fill="#000000" fill-rule="nonzero" fill-opacity="1" /><path clip-path="url(#clip680)" d="M131.639 957.481 Q127.577 957.481 125.519 961.491 Q123.488 965.476 123.488 973.496 Q123.488 981.491 125.519 985.502 Q127.577 989.486 131.639 989.486 Q135.728 989.486 137.759 985.502 Q139.816 981.491 139.816 973.496 Q139.816 965.476 137.759 961.491 Q135.728 957.481 131.639 957.481 M131.639 953.314 Q138.175 953.314 141.613 958.496 Q145.077 963.653 145.077 973.496 Q145.077 983.314 141.613 988.496 Q138.175 993.652 131.639 993.652 Q125.103 993.652 121.639 988.496 Q118.202 983.314 118.202 973.496 Q118.202 963.653 121.639 958.496 Q125.103 953.314 131.639 953.314 Z" fill="#000000" fill-rule="nonzero" fill-opacity="1" /><path clip-path="url(#clip680)" d="M92.108 661.681 L110.467 661.681 L110.467 666.108 L85.7799 666.108 L85.7799 661.681 Q88.7747 658.582 93.9309 653.374 Q99.1132 648.139 100.441 646.629 Q102.967 643.79 103.957 641.837 Q104.973 639.858 104.973 637.957 Q104.973 634.858 102.785 632.905 Q100.624 630.952 97.134 630.952 Q94.6601 630.952 91.8997 631.811 Q89.1653 632.671 86.0404 634.416 L86.0404 629.103 Q89.2174 627.827 91.9778 627.176 Q94.7382 626.525 97.0299 626.525 Q103.072 626.525 106.665 629.546 Q110.259 632.567 110.259 637.619 Q110.259 640.014 109.348 642.176 Q108.462 644.311 106.092 647.228 Q105.441 647.983 101.952 651.603 Q98.4622 655.197 92.108 661.681 Z" fill="#000000" fill-rule="nonzero" fill-opacity="1" /><path clip-path="url(#clip680)" d="M121.561 627.228 L142.212 627.228 L142.212 631.655 L126.379 631.655 L126.379 641.186 Q127.525 640.796 128.67 640.613 Q129.816 640.405 130.962 640.405 Q137.472 640.405 141.274 643.973 Q145.077 647.54 145.077 653.634 Q145.077 659.91 141.17 663.4 Q137.264 666.863 130.155 666.863 Q127.707 666.863 125.155 666.447 Q122.629 666.03 119.92 665.197 L119.92 659.91 Q122.264 661.186 124.764 661.811 Q127.264 662.436 130.051 662.436 Q134.556 662.436 137.186 660.066 Q139.816 657.697 139.816 653.634 Q139.816 649.572 137.186 647.202 Q134.556 644.832 130.051 644.832 Q127.941 644.832 125.832 645.301 Q123.748 645.77 121.561 646.759 L121.561 627.228 Z" fill="#000000" fill-rule="nonzero" fill-opacity="1" /><path clip-path="url(#clip680)" d="M102.394 318.355 Q106.17 319.163 108.28 321.715 Q110.415 324.267 110.415 328.017 Q110.415 333.772 106.457 336.923 Q102.499 340.074 95.207 340.074 Q92.7591 340.074 90.1549 339.579 Q87.5768 339.11 84.8164 338.147 L84.8164 333.069 Q87.0039 334.345 89.608 334.996 Q92.2122 335.647 95.0507 335.647 Q99.9986 335.647 102.577 333.694 Q105.181 331.741 105.181 328.017 Q105.181 324.579 102.759 322.652 Q100.363 320.699 96.0663 320.699 L91.5351 320.699 L91.5351 316.376 L96.2747 316.376 Q100.155 316.376 102.212 314.84 Q104.269 313.277 104.269 310.361 Q104.269 307.366 102.134 305.777 Q100.025 304.163 96.0663 304.163 Q93.9049 304.163 91.431 304.631 Q88.957 305.1 85.9883 306.09 L85.9883 301.402 Q88.9831 300.569 91.5872 300.152 Q94.2174 299.736 96.5351 299.736 Q102.525 299.736 106.014 302.47 Q109.504 305.178 109.504 309.814 Q109.504 313.043 107.655 315.282 Q105.806 317.496 102.394 318.355 Z" fill="#000000" fill-rule="nonzero" fill-opacity="1" /><path clip-path="url(#clip680)" d="M131.639 303.902 Q127.577 303.902 125.519 307.913 Q123.488 311.897 123.488 319.918 Q123.488 327.913 125.519 331.923 Q127.577 335.907 131.639 335.907 Q135.728 335.907 137.759 331.923 Q139.816 327.913 139.816 319.918 Q139.816 311.897 137.759 307.913 Q135.728 303.902 131.639 303.902 M131.639 299.736 Q138.175 299.736 141.613 304.918 Q145.077 310.074 145.077 319.918 Q145.077 329.736 141.613 334.918 Q138.175 340.074 131.639 340.074 Q125.103 340.074 121.639 334.918 Q118.202 329.736 118.202 319.918 Q118.202 310.074 121.639 304.918 Q125.103 299.736 131.639 299.736 Z" fill="#000000" fill-rule="nonzero" fill-opacity="1" /><path clip-path="url(#clip680)" d="M-31.4998 930.013 L-31.4998 924.168 L11.7002 924.168 L11.7002 930.013 L-31.4998 930.013 Z" fill="#000000" fill-rule="nonzero" fill-opacity="1" /><path clip-path="url(#clip680)" d="M-7.85992 885.829 L11.7002 885.829 L11.7002 891.153 L-7.68631 891.153 Q-12.287 891.153 -14.5728 892.947 Q-16.8587 894.741 -16.8587 898.329 Q-16.8587 902.641 -14.1099 905.129 Q-11.3611 907.618 -6.61572 907.618 L11.7002 907.618 L11.7002 912.97 L-20.7071 912.97 L-20.7071 907.618 L-15.6724 907.618 Q-18.5948 905.708 -20.0416 903.133 Q-21.4883 900.528 -21.4883 897.143 Q-21.4883 891.559 -18.0161 888.694 Q-14.5728 885.829 -7.85992 885.829 Z" fill="#000000" fill-rule="nonzero" fill-opacity="1" /><path clip-path="url(#clip680)" d="M-33.3227 858.804 L-28.8957 858.804 L-28.8957 863.897 Q-28.8957 866.761 -27.7383 867.89 Q-26.5809 868.989 -23.5716 868.989 L-20.7071 868.989 L-20.7071 860.222 L-16.5694 860.222 L-16.5694 868.989 L11.7002 868.989 L11.7002 874.342 L-16.5694 874.342 L-16.5694 879.435 L-20.7071 879.435 L-20.7071 874.342 L-22.964 874.342 Q-28.3749 874.342 -30.8343 871.825 Q-33.3227 869.308 -33.3227 863.839 L-33.3227 858.804 Z" fill="#000000" fill-rule="nonzero" fill-opacity="1" /><path clip-path="url(#clip680)" d="M-33.3227 854.348 L-33.3227 849.024 L11.7002 849.024 L11.7002 854.348 L-33.3227 854.348 Z" fill="#000000" fill-rule="nonzero" fill-opacity="1" /><path clip-path="url(#clip680)" d="M-16.9745 825.326 Q-16.9745 829.609 -13.618 832.097 Q-10.2905 834.585 -4.47452 834.585 Q1.34142 834.585 4.69788 832.126 Q8.02541 829.638 8.02541 825.326 Q8.02541 821.073 4.66895 818.584 Q1.31248 816.096 -4.47452 816.096 Q-10.2326 816.096 -13.5891 818.584 Q-16.9745 821.073 -16.9745 825.326 M-21.4883 825.326 Q-21.4883 818.382 -16.9745 814.418 Q-12.4606 810.454 -4.47452 810.454 Q3.48261 810.454 8.02541 814.418 Q12.5393 818.382 12.5393 825.326 Q12.5393 832.3 8.02541 836.264 Q3.48261 840.199 -4.47452 840.199 Q-12.4606 840.199 -16.9745 836.264 Q-21.4883 832.3 -21.4883 825.326 Z" fill="#000000" fill-rule="nonzero" fill-opacity="1" /><path clip-path="url(#clip680)" d="M-20.7071 804.725 L-20.7071 799.4 L4.58214 792.745 L-20.7071 786.119 L-20.7071 779.84 L4.58214 773.185 L-20.7071 766.559 L-20.7071 761.235 L11.7002 769.713 L11.7002 775.992 L-14.8622 782.965 L11.7002 789.968 L11.7002 796.247 L-20.7071 804.725 Z" fill="#000000" fill-rule="nonzero" fill-opacity="1" /><path clip-path="url(#clip680)" d="M-33.3227 734.818 L-33.3227 722.549 L-29.185 722.549 L-29.185 729.493 L15.3749 729.493 L15.3749 722.549 L19.5126 722.549 L19.5126 734.818 L-33.3227 734.818 Z" fill="#000000" fill-rule="nonzero" fill-opacity="1" /><path clip-path="url(#clip680)" d="M-31.4998 710.975 L-31.4998 705.13 L6.7812 705.13 L6.7812 684.094 L11.7002 684.094 L11.7002 710.975 L-31.4998 710.975 Z" fill="#000000" fill-rule="nonzero" fill-opacity="1" /><path clip-path="url(#clip680)" d="M-31.4998 668.73 L-31.4998 663.811 L17.1978 678.857 L17.1978 683.776 L-31.4998 668.73 Z" fill="#000000" fill-rule="nonzero" fill-opacity="1" /><path clip-path="url(#clip680)" d="M-19.7522 637.567 L-14.7175 637.567 Q-15.8749 639.824 -16.4536 642.254 Q-17.0323 644.685 -17.0323 647.289 Q-17.0323 651.253 -15.8171 653.25 Q-14.6018 655.217 -12.1712 655.217 Q-10.3194 655.217 -9.2488 653.799 Q-8.20714 652.382 -7.25229 648.099 L-6.8472 646.276 Q-5.63193 640.605 -3.40393 638.232 Q-1.20487 635.831 2.75923 635.831 Q7.2731 635.831 9.90619 639.419 Q12.5393 642.978 12.5393 649.228 Q12.5393 651.832 12.0184 654.667 Q11.5265 657.474 10.5138 660.599 L5.01617 660.599 Q6.54972 657.648 7.33097 654.783 Q8.08328 651.919 8.08328 649.112 Q8.08328 645.35 6.81014 643.325 Q5.50806 641.299 3.16432 641.299 Q0.994196 641.299 -0.163205 642.775 Q-1.32061 644.222 -2.3912 649.17 L-2.82523 651.022 Q-3.86689 655.97 -6.00808 658.169 Q-8.17821 660.368 -11.9398 660.368 Q-16.5115 660.368 -18.9999 657.127 Q-21.4883 653.886 -21.4883 647.926 Q-21.4883 644.974 -21.0543 642.37 Q-20.6203 639.766 -19.7522 637.567 Z" fill="#000000" fill-rule="nonzero" fill-opacity="1" /><path clip-path="url(#clip680)" d="M-33.3227 614.911 L19.5126 614.911 L19.5126 627.179 L15.3749 627.179 L15.3749 620.264 L-29.185 620.264 L-29.185 627.179 L-33.3227 627.179 L-33.3227 614.911 Z" fill="#000000" fill-rule="nonzero" fill-opacity="1" /><polyline clip-path="url(#clip682)" style="stroke:#023eff; stroke-linecap:round; stroke-linejoin:round; stroke-width:5; stroke-opacity:1; fill:none" points="289.284,1133.69 306.092,1268.84 322.9,1305.02 339.708,1401.24 356.516,1401.24 373.324,1401.24 390.131,1136.58 406.939,540.57 423.747,383.299 440.555,383.299 457.363,247.39 474.171,247.39 490.979,247.39 507.787,383.299 524.595,469.334 541.403,616.471 558.21,667.259 575.018,469.334 591.826,469.334 608.634,469.334 625.442,469.334 642.25,469.334 659.058,859.586 675.866,859.586 692.674,1145.49 709.482,1362.67 726.289,1362.67 743.097,1408.08 759.905,1408.08 776.713,1362.67 793.521,1089.93 810.329,527.305 827.137,339.103 843.945,339.103 860.753,339.103 877.56,457.794 894.368,457.794 911.176,457.794 927.984,558.236 944.792,558.236 961.6,558.236 978.408,558.236 995.216,558.236 1012.02,558.236 1028.83,558.236 1045.64,558.236 1062.45,805.851 1079.26,805.851 1096.06,1145.49 1112.87,1362.67 1129.68,1408.08 1146.49,1456.63 1163.29,1456.63 1180.1,1408.08 1196.91,1089.93 1213.72,527.305 1230.53,339.103 1247.33,339.103 1264.14,339.103 1280.95,457.794 1297.76,457.794 1314.57,457.794 1331.37,558.236 1348.18,558.236 1364.99,558.236 1381.8,558.236 1398.61,558.236 1415.41,558.236 1432.22,558.236 1449.03,558.236 1465.84,805.851 1482.64,987.573 1499.45,1145.49 1516.26,1362.67 1533.07,1408.08 1549.88,1408.08 1566.68,1408.08 1583.49,1362.67 1600.3,1089.93 1617.11,527.305 1633.92,339.103 1650.72,339.103 1667.53,339.103 1684.34,457.794 1701.15,457.794 1717.96,457.794 1734.76,558.236 1751.57,558.236 1768.38,716.914 1785.19,558.236 1801.99,558.236 1818.8,558.236 1835.61,558.236 1852.42,558.236 1869.23,805.851 1886.03,886.679 1902.84,1145.49 1919.65,1362.67 1936.46,1408.08 1953.27,1408.08 1970.07,1408.08 1986.88,1362.67 2003.69,1089.93 2020.5,527.305 2037.31,339.103 2054.11,339.103 2070.92,339.103 2087.73,457.794 2104.54,457.794 2121.34,457.794 2138.15,558.236 2154.96,558.236 2171.77,558.236 2188.58,558.236 2205.38,558.236 2222.19,558.236 2239,558.236 2255.81,558.236 2272.62,805.851 2289.42,987.573 2306.23,1179.24 2323.04,1379.91 2339.85,1280.77 2356.66,1385.48 2373.46,1385.48 2390.27,1385.48 2407.08,1280.77 2423.89,978.495 2440.69,574.425 2457.5,280.765 2474.31,280.765 2491.12,280.765 2507.93,280.765 2524.73,280.765 2541.54,280.765 2558.35,574.425 2575.16,574.425 2591.97,574.425 2608.77,574.425 2625.58,574.425 2642.39,574.425 2659.2,574.425 2676.01,743.309 2692.81,869.636 2709.62,1179.24 2726.43,1280.77 2743.24,1280.77 2760.05,1385.48 2776.85,1385.48 2793.66,1385.48 2810.47,1280.77 2827.28,1093.97 2844.08,733.794 2860.89,280.765 2877.7,280.765 2894.51,280.765 2911.32,280.765 2928.12,574.425 2944.93,280.765 2961.74,574.425 2978.55,743.309 2995.36,574.425 3012.16,574.425 3028.97,574.425 3045.78,574.425 3062.59,574.425 3079.4,743.309 3096.2,869.636 "/>
<polyline clip-path="url(#clip682)" style="stroke:#ff7c00; stroke-linecap:round; stroke-linejoin:round; stroke-width:5; stroke-opacity:1; fill:none" points="289.284,1179.75 306.092,1282.32 322.9,1389.36 339.708,1389.36 356.516,1389.36 373.324,1389.36 390.131,1182.66 406.939,488.653 423.747,177.399 440.555,342.917 457.363,195.431 474.171,331.834 490.979,331.834 507.787,418.856 524.595,418.856 541.403,516.11 558.21,662.093 575.018,516.11 591.826,476.517 608.634,418.856 625.442,418.856 642.25,488.029 659.058,808.783 675.866,943.243 692.674,1190.11 709.482,1258.16 726.289,1418.77 743.097,1418.77 759.905,1418.77 776.713,1418.77 793.521,1224.28 810.329,501.814 827.137,351.717 843.945,351.717 860.753,351.717 877.56,203.513 894.368,351.717 911.176,351.717 927.984,501.814 944.792,467.057 961.6,467.057 978.408,467.057 995.216,467.057 1012.02,467.057 1028.83,467.057 1045.64,467.057 1062.45,647.625 1079.26,647.625 1096.06,1190.11 1112.87,1238.4 1129.68,1418.77 1146.49,1418.77 1163.29,1418.77 1180.1,1418.77 1196.91,1224.28 1213.72,501.814 1230.53,351.717 1247.33,351.717 1264.14,351.717 1280.95,351.717 1297.76,351.717 1314.57,351.717 1331.37,351.717 1348.18,467.057 1364.99,467.057 1381.8,467.057 1398.61,467.057 1415.41,467.057 1432.22,467.057 1449.03,467.057 1465.84,467.057 1482.64,956.84 1499.45,1190.11 1516.26,1238.4 1533.07,1418.77 1549.88,1418.77 1566.68,1418.77 1583.49,1418.77 1600.3,1224.28 1617.11,501.814 1633.92,203.513 1650.72,351.717 1667.53,203.513 1684.34,203.513 1701.15,203.513 1717.96,203.513 1734.76,203.513 1751.57,467.057 1768.38,467.057 1785.19,467.057 1801.99,467.057 1818.8,467.057 1835.61,467.057 1852.42,467.057 1869.23,467.057 1886.03,956.84 1902.84,1190.11 1919.65,1258.16 1936.46,1418.77 1953.27,1418.77 1970.07,1418.77 1986.88,1418.77 2003.69,1224.28 2020.5,203.513 2037.31,203.513 2054.11,203.513 2070.92,203.513 2087.73,203.513 2104.54,203.513 2121.34,203.513 2138.15,203.513 2154.96,467.057 2171.77,467.057 2188.58,467.057 2205.38,467.057 2222.19,467.057 2239,467.057 2255.81,467.057 2272.62,467.057 2289.42,956.84 2306.23,1019.67 2323.04,1217.76 2339.85,1379.76 2356.66,1379.76 2373.46,1379.76 2390.27,1379.76 2407.08,1217.76 2423.89,1019.67 2440.69,498.457 2457.5,239.559 2474.31,239.559 2491.12,352.322 2507.93,352.322 2524.73,352.322 2541.54,604.354 2558.35,604.354 2575.16,674.521 2591.97,604.354 2608.77,604.354 2625.58,604.354 2642.39,604.354 2659.2,674.521 2676.01,952.794 2692.81,1053.22 2709.62,1019.67 2726.43,1217.76 2743.24,1217.76 2760.05,1379.76 2776.85,1379.76 2793.66,1379.76 2810.47,1217.76 2827.28,1019.67 2844.08,850.503 2860.89,239.559 2877.7,239.559 2894.51,352.322 2911.32,352.322 2928.12,498.457 2944.93,604.354 2961.74,674.521 2978.55,674.521 2995.36,604.354 3012.16,604.354 3028.97,604.354 3045.78,604.354 3062.59,604.354 3079.4,952.794 3096.2,1053.22 "/>
<polyline clip-path="url(#clip682)" style="stroke:#1ac938; stroke-linecap:round; stroke-linejoin:round; stroke-width:5; stroke-opacity:1; fill:none" points="289.284,1126.67 306.092,1318.12 322.9,1382.1 339.708,1382.1 356.516,1382.1 373.324,1382.1 390.131,1224.12 406.939,844.008 423.747,669.995 440.555,318.681 457.363,318.681 474.171,158.34 490.979,318.681 507.787,462.841 524.595,462.841 541.403,462.841 558.21,669.995 575.018,462.841 591.826,462.841 608.634,462.841 625.442,462.841 642.25,462.841 659.058,669.995 675.866,844.008 692.674,1103.39 709.482,1291.83 726.289,1385.77 743.097,1385.77 759.905,1385.77 776.713,1385.77 793.521,1141.86 810.329,529.786 827.137,199.309 843.945,199.309 860.753,199.309 877.56,310.831 894.368,310.831 911.176,199.309 927.984,432.547 944.792,432.547 961.6,432.547 978.408,432.547 995.216,432.547 1012.02,432.547 1028.83,432.547 1045.64,432.547 1062.45,760.484 1079.26,760.484 1096.06,1103.39 1112.87,1291.83 1129.68,1385.77 1146.49,1385.77 1163.29,1385.77 1180.1,1385.77 1196.91,1141.86 1213.72,529.786 1230.53,199.309 1247.33,199.309 1264.14,199.309 1280.95,199.309 1297.76,199.309 1314.57,199.309 1331.37,432.547 1348.18,432.547 1364.99,432.547 1381.8,432.547 1398.61,432.547 1415.41,432.547 1432.22,432.547 1449.03,432.547 1465.84,760.484 1482.64,965.251 1499.45,1103.39 1516.26,1291.83 1533.07,1385.77 1549.88,1385.77 1566.68,1385.77 1583.49,1385.77 1600.3,1141.86 1617.11,529.786 1633.92,310.831 1650.72,199.309 1667.53,310.831 1684.34,310.831 1701.15,310.831 1717.96,310.831 1734.76,432.547 1751.57,432.547 1768.38,432.547 1785.19,432.547 1801.99,432.547 1818.8,432.547 1835.61,432.547 1852.42,432.547 1869.23,760.484 1886.03,965.251 1902.84,1103.39 1919.65,1291.83 1936.46,1385.77 1953.27,1385.77 1970.07,1385.77 1986.88,1385.77 2003.69,1141.86 2020.5,529.786 2037.31,168.386 2054.11,168.386 2070.92,168.386 2087.73,168.386 2104.54,168.386 2121.34,168.386 2138.15,432.547 2154.96,432.547 2171.77,432.547 2188.58,432.547 2205.38,432.547 2222.19,432.547 2239,432.547 2255.81,432.547 2272.62,760.484 2289.42,965.251 2306.23,1103.39 2323.04,1141.86 2339.85,1385.77 2356.66,1385.77 2373.46,1385.77 2390.27,1385.77 2407.08,1180.25 2423.89,994.633 2440.69,168.386 2457.5,168.386 2474.31,168.386 2491.12,168.386 2507.93,168.386 2524.73,168.386 2541.54,626.781 2558.35,626.781 2575.16,626.781 2591.97,626.781 2608.77,626.781 2625.58,626.781 2642.39,626.781 2659.2,626.781 2676.01,626.781 2692.81,965.251 2709.62,1103.39 2726.43,1291.83 2743.24,1354.82 2760.05,1354.82 2776.85,1354.82 2793.66,1354.82 2810.47,1180.25 2827.28,994.633 2844.08,168.386 2860.89,168.386 2877.7,168.386 2894.51,310.831 2911.32,310.831 2928.12,310.831 2944.93,626.781 2961.74,626.781 2978.55,626.781 2995.36,626.781 3012.16,626.781 3028.97,626.781 3045.78,626.781 3062.59,626.781 3079.4,626.781 3096.2,965.251 "/>
<polyline clip-path="url(#clip682)" style="stroke:#e8000b; stroke-linecap:round; stroke-linejoin:round; stroke-width:5; stroke-opacity:1; fill:none" points="289.284,1108.75 306.092,1245.88 322.9,1245.88 339.708,1381.94 356.516,1381.94 373.324,1381.94 390.131,1245.88 406.939,121.751 423.747,121.751 440.555,121.751 457.363,121.751 474.171,273.971 490.979,273.971 507.787,434.691 524.595,434.691 541.403,513.875 558.21,434.691 575.018,434.691 591.826,434.691 608.634,434.691 625.442,434.691 642.25,434.691 659.058,513.875 675.866,907.282 692.674,1112.96 709.482,1271.36 726.289,1271.36 743.097,1414.36 759.905,1414.36 776.713,1271.36 793.521,1112.96 810.329,262.466 827.137,88.2942 843.945,88.2942 860.753,88.2942 877.56,88.2942 894.368,88.2942 911.176,88.2942 927.984,388.112 944.792,285.403 961.6,507.298 978.408,507.298 995.216,285.403 1012.02,285.403 1028.83,285.403 1045.64,285.403 1062.45,507.298 1079.26,507.298 1096.06,1112.96 1112.87,1271.36 1129.68,1414.36 1146.49,1414.36 1163.29,1414.36 1180.1,1271.36 1196.91,1112.96 1213.72,262.466 1230.53,88.2942 1247.33,88.2942 1264.14,88.2942 1280.95,88.2942 1297.76,88.2942 1314.57,88.2942 1331.37,262.466 1348.18,285.403 1364.99,285.403 1381.8,285.403 1398.61,285.403 1415.41,285.403 1432.22,285.403 1449.03,285.403 1465.84,507.298 1482.64,847.825 1499.45,1112.96 1516.26,1271.36 1533.07,1414.36 1549.88,1414.36 1566.68,1414.36 1583.49,1271.36 1600.3,1112.96 1617.11,388.112 1633.92,88.2942 1650.72,88.2942 1667.53,88.2942 1684.34,88.2942 1701.15,88.2942 1717.96,88.2942 1734.76,88.2942 1751.57,285.403 1768.38,507.298 1785.19,285.403 1801.99,285.403 1818.8,285.403 1835.61,285.403 1852.42,285.403 1869.23,507.298 1886.03,847.825 1902.84,1112.96 1919.65,1271.36 1936.46,1414.36 1953.27,1414.36 1970.07,1414.36 1986.88,1271.36 2003.69,1112.96 2020.5,388.112 2037.31,155.308 2054.11,155.308 2070.92,155.308 2087.73,388.112 2104.54,155.308 2121.34,155.308 2138.15,155.308 2154.96,285.403 2171.77,285.403 2188.58,285.403 2205.38,285.403 2222.19,285.403 2239,285.403 2255.81,285.403 2272.62,507.298 2289.42,847.825 2306.23,1112.96 2323.04,1112.96 2339.85,1271.36 2356.66,1271.36 2373.46,1414.36 2390.27,1271.36 2407.08,1271.36 2423.89,1033.91 2440.69,388.112 2457.5,155.308 2474.31,155.308 2491.12,155.308 2507.93,155.308 2524.73,155.308 2541.54,155.308 2558.35,637.082 2575.16,637.082 2591.97,285.403 2608.77,637.082 2625.58,285.403 2642.39,285.403 2659.2,637.082 2676.01,637.082 2692.81,872.153 2709.62,1112.96 2726.43,1112.96 2743.24,1271.36 2760.05,1271.36 2776.85,1271.36 2793.66,1271.36 2810.47,1271.36 2827.28,1033.91 2844.08,388.112 2860.89,155.308 2877.7,155.308 2894.51,155.308 2911.32,155.308 2928.12,388.112 2944.93,388.112 2961.74,637.082 2978.55,637.082 2995.36,637.082 3012.16,285.403 3028.97,285.403 3045.78,285.403 3062.59,285.403 3079.4,637.082 3096.2,872.153 "/>
<path clip-path="url(#clip680)" d="M3305.33 445.512 L3952.76 445.512 L3952.76 95.592 L3305.33 95.592  Z" fill="#ffffff" fill-rule="evenodd" fill-opacity="1"/>
<polyline clip-path="url(#clip680)" style="stroke:#000000; stroke-linecap:round; stroke-linejoin:round; stroke-width:4; stroke-opacity:1; fill:none" points="3305.33,445.512 3952.76,445.512 3952.76,95.592 3305.33,95.592 3305.33,445.512 "/>
<polyline clip-path="url(#clip680)" style="stroke:#023eff; stroke-linecap:round; stroke-linejoin:round; stroke-width:5.625; stroke-opacity:1; fill:none" points="3346.97,153.912 3596.82,153.912 "/>
<path clip-path="url(#clip680)" d="M3643.28 168.977 L3643.28 184.446 L3638.46 184.446 L3638.46 144.185 L3643.28 144.185 L3643.28 148.613 Q3644.79 146.008 3647.08 144.758 Q3649.4 143.482 3652.6 143.482 Q3657.91 143.482 3661.22 147.701 Q3664.55 151.92 3664.55 158.795 Q3664.55 165.67 3661.22 169.888 Q3657.91 174.107 3652.6 174.107 Q3649.4 174.107 3647.08 172.857 Q3644.79 171.581 3643.28 168.977 M3659.58 158.795 Q3659.58 153.508 3657.39 150.514 Q3655.23 147.493 3651.43 147.493 Q3647.63 147.493 3645.44 150.514 Q3643.28 153.508 3643.28 158.795 Q3643.28 164.081 3645.44 167.102 Q3647.63 170.097 3651.43 170.097 Q3655.23 170.097 3657.39 167.102 Q3659.58 164.081 3659.58 158.795 Z" fill="#000000" fill-rule="nonzero" fill-opacity="1" /><path clip-path="url(#clip680)" d="M3689.4 148.665 Q3688.59 148.196 3687.63 147.988 Q3686.69 147.753 3685.54 147.753 Q3681.48 147.753 3679.29 150.409 Q3677.13 153.04 3677.13 157.987 L3677.13 173.352 L3672.31 173.352 L3672.31 144.185 L3677.13 144.185 L3677.13 148.717 Q3678.64 146.06 3681.06 144.784 Q3683.49 143.482 3686.95 143.482 Q3687.44 143.482 3688.04 143.56 Q3688.64 143.613 3689.37 143.743 L3689.4 148.665 Z" fill="#000000" fill-rule="nonzero" fill-opacity="1" /><path clip-path="url(#clip680)" d="M3718.2 157.571 L3718.2 159.915 L3696.17 159.915 Q3696.48 164.862 3699.14 167.467 Q3701.82 170.045 3706.58 170.045 Q3709.35 170.045 3711.92 169.368 Q3714.53 168.691 3717.08 167.336 L3717.08 171.868 Q3714.5 172.961 3711.79 173.534 Q3709.08 174.107 3706.3 174.107 Q3699.32 174.107 3695.23 170.045 Q3691.17 165.982 3691.17 159.055 Q3691.17 151.894 3695.02 147.701 Q3698.9 143.482 3705.47 143.482 Q3711.35 143.482 3714.76 147.284 Q3718.2 151.06 3718.2 157.571 M3713.41 156.165 Q3713.36 152.232 3711.19 149.889 Q3709.06 147.545 3705.52 147.545 Q3701.51 147.545 3699.08 149.81 Q3696.69 152.076 3696.32 156.191 L3713.41 156.165 Z" fill="#000000" fill-rule="nonzero" fill-opacity="1" /><path clip-path="url(#clip680)" d="M3745.26 148.613 L3745.26 132.831 L3750.05 132.831 L3750.05 173.352 L3745.26 173.352 L3745.26 168.977 Q3743.75 171.581 3741.43 172.857 Q3739.14 174.107 3735.91 174.107 Q3730.62 174.107 3727.29 169.888 Q3723.98 165.67 3723.98 158.795 Q3723.98 151.92 3727.29 147.701 Q3730.62 143.482 3735.91 143.482 Q3739.14 143.482 3741.43 144.758 Q3743.75 146.008 3745.26 148.613 M3728.93 158.795 Q3728.93 164.081 3731.09 167.102 Q3733.28 170.097 3737.08 170.097 Q3740.88 170.097 3743.07 167.102 Q3745.26 164.081 3745.26 158.795 Q3745.26 153.508 3743.07 150.514 Q3740.88 147.493 3737.08 147.493 Q3733.28 147.493 3731.09 150.514 Q3728.93 153.508 3728.93 158.795 Z" fill="#000000" fill-rule="nonzero" fill-opacity="1" /><path clip-path="url(#clip680)" d="M3759.92 144.185 L3764.71 144.185 L3764.71 173.352 L3759.92 173.352 L3759.92 144.185 M3759.92 132.831 L3764.71 132.831 L3764.71 138.899 L3759.92 138.899 L3759.92 132.831 Z" fill="#000000" fill-rule="nonzero" fill-opacity="1" /><path clip-path="url(#clip680)" d="M3795.73 145.305 L3795.73 149.784 Q3793.69 148.665 3791.64 148.118 Q3789.61 147.545 3787.52 147.545 Q3782.86 147.545 3780.28 150.514 Q3777.7 153.456 3777.7 158.795 Q3777.7 164.133 3780.28 167.102 Q3782.86 170.045 3787.52 170.045 Q3789.61 170.045 3791.64 169.498 Q3793.69 168.925 3795.73 167.805 L3795.73 172.232 Q3793.72 173.17 3791.56 173.638 Q3789.42 174.107 3787 174.107 Q3780.41 174.107 3776.53 169.967 Q3772.65 165.826 3772.65 158.795 Q3772.65 151.659 3776.56 147.571 Q3780.49 143.482 3787.31 143.482 Q3789.53 143.482 3791.64 143.951 Q3793.75 144.394 3795.73 145.305 Z" fill="#000000" fill-rule="nonzero" fill-opacity="1" /><path clip-path="url(#clip680)" d="M3808.8 135.904 L3808.8 144.185 L3818.67 144.185 L3818.67 147.909 L3808.8 147.909 L3808.8 163.743 Q3808.8 167.31 3809.76 168.326 Q3810.75 169.342 3813.75 169.342 L3818.67 169.342 L3818.67 173.352 L3813.75 173.352 Q3808.2 173.352 3806.09 171.295 Q3803.98 169.211 3803.98 163.743 L3803.98 147.909 L3800.46 147.909 L3800.46 144.185 L3803.98 144.185 L3803.98 135.904 L3808.8 135.904 Z" fill="#000000" fill-rule="nonzero" fill-opacity="1" /><path clip-path="url(#clip680)" d="M3847.13 182.206 L3847.13 185.93 L3819.42 185.93 L3819.42 182.206 L3847.13 182.206 Z" fill="#000000" fill-rule="nonzero" fill-opacity="1" /><path clip-path="url(#clip680)" d="M3852.37 134.472 L3873.02 134.472 L3873.02 138.899 L3857.18 138.899 L3857.18 148.43 Q3858.33 148.04 3859.47 147.857 Q3860.62 147.649 3861.77 147.649 Q3868.28 147.649 3872.08 151.217 Q3875.88 154.784 3875.88 160.878 Q3875.88 167.154 3871.97 170.644 Q3868.07 174.107 3860.96 174.107 Q3858.51 174.107 3855.96 173.69 Q3853.43 173.274 3850.72 172.441 L3850.72 167.154 Q3853.07 168.43 3855.57 169.055 Q3858.07 169.68 3860.85 169.68 Q3865.36 169.68 3867.99 167.31 Q3870.62 164.941 3870.62 160.878 Q3870.62 156.816 3867.99 154.446 Q3865.36 152.076 3860.85 152.076 Q3858.75 152.076 3856.64 152.545 Q3854.55 153.014 3852.37 154.003 L3852.37 134.472 Z" fill="#000000" fill-rule="nonzero" fill-opacity="1" /><path clip-path="url(#clip680)" d="M3890.78 168.925 L3909.14 168.925 L3909.14 173.352 L3884.45 173.352 L3884.45 168.925 Q3887.44 165.826 3892.6 160.618 Q3897.78 155.383 3899.11 153.873 Q3901.64 151.034 3902.63 149.081 Q3903.64 147.102 3903.64 145.201 Q3903.64 142.102 3901.45 140.149 Q3899.29 138.196 3895.8 138.196 Q3893.33 138.196 3890.57 139.055 Q3887.83 139.915 3884.71 141.659 L3884.71 136.347 Q3887.89 135.071 3890.65 134.42 Q3893.41 133.769 3895.7 133.769 Q3901.74 133.769 3905.33 136.79 Q3908.93 139.81 3908.93 144.863 Q3908.93 147.258 3908.02 149.42 Q3907.13 151.555 3904.76 154.472 Q3904.11 155.227 3900.62 158.847 Q3897.13 162.441 3890.78 168.925 Z" fill="#000000" fill-rule="nonzero" fill-opacity="1" /><polyline clip-path="url(#clip680)" style="stroke:#ff7c00; stroke-linecap:round; stroke-linejoin:round; stroke-width:5.625; stroke-opacity:1; fill:none" points="3346.97,212.232 3596.82,212.232 "/>
<path clip-path="url(#clip680)" d="M3643.28 227.297 L3643.28 242.766 L3638.46 242.766 L3638.46 202.505 L3643.28 202.505 L3643.28 206.933 Q3644.79 204.328 3647.08 203.078 Q3649.4 201.802 3652.6 201.802 Q3657.91 201.802 3661.22 206.021 Q3664.55 210.24 3664.55 217.115 Q3664.55 223.99 3661.22 228.208 Q3657.91 232.427 3652.6 232.427 Q3649.4 232.427 3647.08 231.177 Q3644.79 229.901 3643.28 227.297 M3659.58 217.115 Q3659.58 211.828 3657.39 208.834 Q3655.23 205.813 3651.43 205.813 Q3647.63 205.813 3645.44 208.834 Q3643.28 211.828 3643.28 217.115 Q3643.28 222.401 3645.44 225.422 Q3647.63 228.417 3651.43 228.417 Q3655.23 228.417 3657.39 225.422 Q3659.58 222.401 3659.58 217.115 Z" fill="#000000" fill-rule="nonzero" fill-opacity="1" /><path clip-path="url(#clip680)" d="M3689.4 206.985 Q3688.59 206.516 3687.63 206.308 Q3686.69 206.073 3685.54 206.073 Q3681.48 206.073 3679.29 208.729 Q3677.13 211.36 3677.13 216.307 L3677.13 231.672 L3672.31 231.672 L3672.31 202.505 L3677.13 202.505 L3677.13 207.037 Q3678.64 204.38 3681.06 203.104 Q3683.49 201.802 3686.95 201.802 Q3687.44 201.802 3688.04 201.88 Q3688.64 201.933 3689.37 202.063 L3689.4 206.985 Z" fill="#000000" fill-rule="nonzero" fill-opacity="1" /><path clip-path="url(#clip680)" d="M3718.2 215.891 L3718.2 218.235 L3696.17 218.235 Q3696.48 223.182 3699.14 225.787 Q3701.82 228.365 3706.58 228.365 Q3709.35 228.365 3711.92 227.688 Q3714.53 227.011 3717.08 225.656 L3717.08 230.188 Q3714.5 231.281 3711.79 231.854 Q3709.08 232.427 3706.3 232.427 Q3699.32 232.427 3695.23 228.365 Q3691.17 224.302 3691.17 217.375 Q3691.17 210.214 3695.02 206.021 Q3698.9 201.802 3705.47 201.802 Q3711.35 201.802 3714.76 205.604 Q3718.2 209.38 3718.2 215.891 M3713.41 214.485 Q3713.36 210.552 3711.19 208.209 Q3709.06 205.865 3705.52 205.865 Q3701.51 205.865 3699.08 208.13 Q3696.69 210.396 3696.32 214.511 L3713.41 214.485 Z" fill="#000000" fill-rule="nonzero" fill-opacity="1" /><path clip-path="url(#clip680)" d="M3745.26 206.933 L3745.26 191.151 L3750.05 191.151 L3750.05 231.672 L3745.26 231.672 L3745.26 227.297 Q3743.75 229.901 3741.43 231.177 Q3739.14 232.427 3735.91 232.427 Q3730.62 232.427 3727.29 228.208 Q3723.98 223.99 3723.98 217.115 Q3723.98 210.24 3727.29 206.021 Q3730.62 201.802 3735.91 201.802 Q3739.14 201.802 3741.43 203.078 Q3743.75 204.328 3745.26 206.933 M3728.93 217.115 Q3728.93 222.401 3731.09 225.422 Q3733.28 228.417 3737.08 228.417 Q3740.88 228.417 3743.07 225.422 Q3745.26 222.401 3745.26 217.115 Q3745.26 211.828 3743.07 208.834 Q3740.88 205.813 3737.08 205.813 Q3733.28 205.813 3731.09 208.834 Q3728.93 211.828 3728.93 217.115 Z" fill="#000000" fill-rule="nonzero" fill-opacity="1" /><path clip-path="url(#clip680)" d="M3759.92 202.505 L3764.71 202.505 L3764.71 231.672 L3759.92 231.672 L3759.92 202.505 M3759.92 191.151 L3764.71 191.151 L3764.71 197.219 L3759.92 197.219 L3759.92 191.151 Z" fill="#000000" fill-rule="nonzero" fill-opacity="1" /><path clip-path="url(#clip680)" d="M3795.73 203.625 L3795.73 208.104 Q3793.69 206.985 3791.64 206.438 Q3789.61 205.865 3787.52 205.865 Q3782.86 205.865 3780.28 208.834 Q3777.7 211.776 3777.7 217.115 Q3777.7 222.453 3780.28 225.422 Q3782.86 228.365 3787.52 228.365 Q3789.61 228.365 3791.64 227.818 Q3793.69 227.245 3795.73 226.125 L3795.73 230.552 Q3793.72 231.49 3791.56 231.958 Q3789.42 232.427 3787 232.427 Q3780.41 232.427 3776.53 228.287 Q3772.65 224.146 3772.65 217.115 Q3772.65 209.979 3776.56 205.891 Q3780.49 201.802 3787.31 201.802 Q3789.53 201.802 3791.64 202.271 Q3793.75 202.714 3795.73 203.625 Z" fill="#000000" fill-rule="nonzero" fill-opacity="1" /><path clip-path="url(#clip680)" d="M3808.8 194.224 L3808.8 202.505 L3818.67 202.505 L3818.67 206.229 L3808.8 206.229 L3808.8 222.063 Q3808.8 225.63 3809.76 226.646 Q3810.75 227.662 3813.75 227.662 L3818.67 227.662 L3818.67 231.672 L3813.75 231.672 Q3808.2 231.672 3806.09 229.615 Q3803.98 227.531 3803.98 222.063 L3803.98 206.229 L3800.46 206.229 L3800.46 202.505 L3803.98 202.505 L3803.98 194.224 L3808.8 194.224 Z" fill="#000000" fill-rule="nonzero" fill-opacity="1" /><path clip-path="url(#clip680)" d="M3847.13 240.526 L3847.13 244.25 L3819.42 244.25 L3819.42 240.526 L3847.13 240.526 Z" fill="#000000" fill-rule="nonzero" fill-opacity="1" /><path clip-path="url(#clip680)" d="M3856.84 227.245 L3875.2 227.245 L3875.2 231.672 L3850.52 231.672 L3850.52 227.245 Q3853.51 224.146 3858.67 218.938 Q3863.85 213.703 3865.18 212.193 Q3867.7 209.354 3868.69 207.401 Q3869.71 205.422 3869.71 203.521 Q3869.71 200.422 3867.52 198.469 Q3865.36 196.516 3861.87 196.516 Q3859.4 196.516 3856.64 197.375 Q3853.9 198.235 3850.78 199.979 L3850.78 194.667 Q3853.95 193.391 3856.71 192.74 Q3859.47 192.089 3861.77 192.089 Q3867.81 192.089 3871.4 195.11 Q3875 198.13 3875 203.183 Q3875 205.578 3874.08 207.74 Q3873.2 209.875 3870.83 212.792 Q3870.18 213.547 3866.69 217.167 Q3863.2 220.761 3856.84 227.245 Z" fill="#000000" fill-rule="nonzero" fill-opacity="1" /><path clip-path="url(#clip680)" d="M3898.15 210.136 Q3894.6 210.136 3892.52 212.557 Q3890.46 214.979 3890.46 219.198 Q3890.46 223.391 3892.52 225.839 Q3894.6 228.261 3898.15 228.261 Q3901.69 228.261 3903.75 225.839 Q3905.83 223.391 3905.83 219.198 Q3905.83 214.979 3903.75 212.557 Q3901.69 210.136 3898.15 210.136 M3908.59 193.651 L3908.59 198.443 Q3906.61 197.505 3904.58 197.011 Q3902.57 196.516 3900.59 196.516 Q3895.39 196.516 3892.63 200.031 Q3889.89 203.547 3889.5 210.656 Q3891.04 208.391 3893.35 207.193 Q3895.67 205.969 3898.46 205.969 Q3904.32 205.969 3907.7 209.537 Q3911.12 213.078 3911.12 219.198 Q3911.12 225.188 3907.57 228.807 Q3904.03 232.427 3898.15 232.427 Q3891.4 232.427 3887.83 227.271 Q3884.27 222.089 3884.27 212.271 Q3884.27 203.052 3888.64 197.584 Q3893.02 192.089 3900.39 192.089 Q3902.37 192.089 3904.37 192.479 Q3906.4 192.87 3908.59 193.651 Z" fill="#000000" fill-rule="nonzero" fill-opacity="1" /><polyline clip-path="url(#clip680)" style="stroke:#1ac938; stroke-linecap:round; stroke-linejoin:round; stroke-width:5.625; stroke-opacity:1; fill:none" points="3346.97,270.552 3596.82,270.552 "/>
<path clip-path="url(#clip680)" d="M3643.28 285.617 L3643.28 301.086 L3638.46 301.086 L3638.46 260.825 L3643.28 260.825 L3643.28 265.253 Q3644.79 262.648 3647.08 261.398 Q3649.4 260.122 3652.6 260.122 Q3657.91 260.122 3661.22 264.341 Q3664.55 268.56 3664.55 275.435 Q3664.55 282.31 3661.22 286.528 Q3657.91 290.747 3652.6 290.747 Q3649.4 290.747 3647.08 289.497 Q3644.79 288.221 3643.28 285.617 M3659.58 275.435 Q3659.58 270.148 3657.39 267.154 Q3655.23 264.133 3651.43 264.133 Q3647.63 264.133 3645.44 267.154 Q3643.28 270.148 3643.28 275.435 Q3643.28 280.721 3645.44 283.742 Q3647.63 286.737 3651.43 286.737 Q3655.23 286.737 3657.39 283.742 Q3659.58 280.721 3659.58 275.435 Z" fill="#000000" fill-rule="nonzero" fill-opacity="1" /><path clip-path="url(#clip680)" d="M3689.4 265.305 Q3688.59 264.836 3687.63 264.628 Q3686.69 264.393 3685.54 264.393 Q3681.48 264.393 3679.29 267.049 Q3677.13 269.68 3677.13 274.627 L3677.13 289.992 L3672.31 289.992 L3672.31 260.825 L3677.13 260.825 L3677.13 265.357 Q3678.64 262.7 3681.06 261.424 Q3683.49 260.122 3686.95 260.122 Q3687.44 260.122 3688.04 260.2 Q3688.64 260.253 3689.37 260.383 L3689.4 265.305 Z" fill="#000000" fill-rule="nonzero" fill-opacity="1" /><path clip-path="url(#clip680)" d="M3718.2 274.211 L3718.2 276.555 L3696.17 276.555 Q3696.48 281.502 3699.14 284.107 Q3701.82 286.685 3706.58 286.685 Q3709.35 286.685 3711.92 286.008 Q3714.53 285.331 3717.08 283.976 L3717.08 288.508 Q3714.5 289.601 3711.79 290.174 Q3709.08 290.747 3706.3 290.747 Q3699.32 290.747 3695.23 286.685 Q3691.17 282.622 3691.17 275.695 Q3691.17 268.534 3695.02 264.341 Q3698.9 260.122 3705.47 260.122 Q3711.35 260.122 3714.76 263.924 Q3718.2 267.7 3718.2 274.211 M3713.41 272.805 Q3713.36 268.872 3711.19 266.529 Q3709.06 264.185 3705.52 264.185 Q3701.51 264.185 3699.08 266.45 Q3696.69 268.716 3696.32 272.831 L3713.41 272.805 Z" fill="#000000" fill-rule="nonzero" fill-opacity="1" /><path clip-path="url(#clip680)" d="M3745.26 265.253 L3745.26 249.471 L3750.05 249.471 L3750.05 289.992 L3745.26 289.992 L3745.26 285.617 Q3743.75 288.221 3741.43 289.497 Q3739.14 290.747 3735.91 290.747 Q3730.62 290.747 3727.29 286.528 Q3723.98 282.31 3723.98 275.435 Q3723.98 268.56 3727.29 264.341 Q3730.62 260.122 3735.91 260.122 Q3739.14 260.122 3741.43 261.398 Q3743.75 262.648 3745.26 265.253 M3728.93 275.435 Q3728.93 280.721 3731.09 283.742 Q3733.28 286.737 3737.08 286.737 Q3740.88 286.737 3743.07 283.742 Q3745.26 280.721 3745.26 275.435 Q3745.26 270.148 3743.07 267.154 Q3740.88 264.133 3737.08 264.133 Q3733.28 264.133 3731.09 267.154 Q3728.93 270.148 3728.93 275.435 Z" fill="#000000" fill-rule="nonzero" fill-opacity="1" /><path clip-path="url(#clip680)" d="M3759.92 260.825 L3764.71 260.825 L3764.71 289.992 L3759.92 289.992 L3759.92 260.825 M3759.92 249.471 L3764.71 249.471 L3764.71 255.539 L3759.92 255.539 L3759.92 249.471 Z" fill="#000000" fill-rule="nonzero" fill-opacity="1" /><path clip-path="url(#clip680)" d="M3795.73 261.945 L3795.73 266.424 Q3793.69 265.305 3791.64 264.758 Q3789.61 264.185 3787.52 264.185 Q3782.86 264.185 3780.28 267.154 Q3777.7 270.096 3777.7 275.435 Q3777.7 280.773 3780.28 283.742 Q3782.86 286.685 3787.52 286.685 Q3789.61 286.685 3791.64 286.138 Q3793.69 285.565 3795.73 284.445 L3795.73 288.872 Q3793.72 289.81 3791.56 290.278 Q3789.42 290.747 3787 290.747 Q3780.41 290.747 3776.53 286.607 Q3772.65 282.466 3772.65 275.435 Q3772.65 268.299 3776.56 264.211 Q3780.49 260.122 3787.31 260.122 Q3789.53 260.122 3791.64 260.591 Q3793.75 261.034 3795.73 261.945 Z" fill="#000000" fill-rule="nonzero" fill-opacity="1" /><path clip-path="url(#clip680)" d="M3808.8 252.544 L3808.8 260.825 L3818.67 260.825 L3818.67 264.549 L3808.8 264.549 L3808.8 280.383 Q3808.8 283.95 3809.76 284.966 Q3810.75 285.982 3813.75 285.982 L3818.67 285.982 L3818.67 289.992 L3813.75 289.992 Q3808.2 289.992 3806.09 287.935 Q3803.98 285.851 3803.98 280.383 L3803.98 264.549 L3800.46 264.549 L3800.46 260.825 L3803.98 260.825 L3803.98 252.544 L3808.8 252.544 Z" fill="#000000" fill-rule="nonzero" fill-opacity="1" /><path clip-path="url(#clip680)" d="M3847.13 298.846 L3847.13 302.57 L3819.42 302.57 L3819.42 298.846 L3847.13 298.846 Z" fill="#000000" fill-rule="nonzero" fill-opacity="1" /><path clip-path="url(#clip680)" d="M3866.77 255.695 L3853.49 276.45 L3866.77 276.45 L3866.77 255.695 M3865.39 251.112 L3872 251.112 L3872 276.45 L3877.55 276.45 L3877.55 280.825 L3872 280.825 L3872 289.992 L3866.77 289.992 L3866.77 280.825 L3849.21 280.825 L3849.21 275.747 L3865.39 251.112 Z" fill="#000000" fill-rule="nonzero" fill-opacity="1" /><polyline clip-path="url(#clip680)" style="stroke:#e8000b; stroke-linecap:round; stroke-linejoin:round; stroke-width:5.625; stroke-opacity:1; fill:none" points="3346.97,328.872 3596.82,328.872 "/>
<path clip-path="url(#clip680)" d="M3643.28 343.937 L3643.28 359.406 L3638.46 359.406 L3638.46 319.145 L3643.28 319.145 L3643.28 323.573 Q3644.79 320.968 3647.08 319.718 Q3649.4 318.442 3652.6 318.442 Q3657.91 318.442 3661.22 322.661 Q3664.55 326.88 3664.55 333.755 Q3664.55 340.63 3661.22 344.848 Q3657.91 349.067 3652.6 349.067 Q3649.4 349.067 3647.08 347.817 Q3644.79 346.541 3643.28 343.937 M3659.58 333.755 Q3659.58 328.468 3657.39 325.474 Q3655.23 322.453 3651.43 322.453 Q3647.63 322.453 3645.44 325.474 Q3643.28 328.468 3643.28 333.755 Q3643.28 339.041 3645.44 342.062 Q3647.63 345.057 3651.43 345.057 Q3655.23 345.057 3657.39 342.062 Q3659.58 339.041 3659.58 333.755 Z" fill="#000000" fill-rule="nonzero" fill-opacity="1" /><path clip-path="url(#clip680)" d="M3689.4 323.625 Q3688.59 323.156 3687.63 322.948 Q3686.69 322.713 3685.54 322.713 Q3681.48 322.713 3679.29 325.369 Q3677.13 328 3677.13 332.947 L3677.13 348.312 L3672.31 348.312 L3672.31 319.145 L3677.13 319.145 L3677.13 323.677 Q3678.64 321.02 3681.06 319.744 Q3683.49 318.442 3686.95 318.442 Q3687.44 318.442 3688.04 318.52 Q3688.64 318.573 3689.37 318.703 L3689.4 323.625 Z" fill="#000000" fill-rule="nonzero" fill-opacity="1" /><path clip-path="url(#clip680)" d="M3718.2 332.531 L3718.2 334.875 L3696.17 334.875 Q3696.48 339.822 3699.14 342.427 Q3701.82 345.005 3706.58 345.005 Q3709.35 345.005 3711.92 344.328 Q3714.53 343.651 3717.08 342.296 L3717.08 346.828 Q3714.5 347.921 3711.79 348.494 Q3709.08 349.067 3706.3 349.067 Q3699.32 349.067 3695.23 345.005 Q3691.17 340.942 3691.17 334.015 Q3691.17 326.854 3695.02 322.661 Q3698.9 318.442 3705.47 318.442 Q3711.35 318.442 3714.76 322.244 Q3718.2 326.02 3718.2 332.531 M3713.41 331.125 Q3713.36 327.192 3711.19 324.849 Q3709.06 322.505 3705.52 322.505 Q3701.51 322.505 3699.08 324.77 Q3696.69 327.036 3696.32 331.151 L3713.41 331.125 Z" fill="#000000" fill-rule="nonzero" fill-opacity="1" /><path clip-path="url(#clip680)" d="M3745.26 323.573 L3745.26 307.791 L3750.05 307.791 L3750.05 348.312 L3745.26 348.312 L3745.26 343.937 Q3743.75 346.541 3741.43 347.817 Q3739.14 349.067 3735.91 349.067 Q3730.62 349.067 3727.29 344.848 Q3723.98 340.63 3723.98 333.755 Q3723.98 326.88 3727.29 322.661 Q3730.62 318.442 3735.91 318.442 Q3739.14 318.442 3741.43 319.718 Q3743.75 320.968 3745.26 323.573 M3728.93 333.755 Q3728.93 339.041 3731.09 342.062 Q3733.28 345.057 3737.08 345.057 Q3740.88 345.057 3743.07 342.062 Q3745.26 339.041 3745.26 333.755 Q3745.26 328.468 3743.07 325.474 Q3740.88 322.453 3737.08 322.453 Q3733.28 322.453 3731.09 325.474 Q3728.93 328.468 3728.93 333.755 Z" fill="#000000" fill-rule="nonzero" fill-opacity="1" /><path clip-path="url(#clip680)" d="M3759.92 319.145 L3764.71 319.145 L3764.71 348.312 L3759.92 348.312 L3759.92 319.145 M3759.92 307.791 L3764.71 307.791 L3764.71 313.859 L3759.92 313.859 L3759.92 307.791 Z" fill="#000000" fill-rule="nonzero" fill-opacity="1" /><path clip-path="url(#clip680)" d="M3795.73 320.265 L3795.73 324.744 Q3793.69 323.625 3791.64 323.078 Q3789.61 322.505 3787.52 322.505 Q3782.86 322.505 3780.28 325.474 Q3777.7 328.416 3777.7 333.755 Q3777.7 339.093 3780.28 342.062 Q3782.86 345.005 3787.52 345.005 Q3789.61 345.005 3791.64 344.458 Q3793.69 343.885 3795.73 342.765 L3795.73 347.192 Q3793.72 348.13 3791.56 348.598 Q3789.42 349.067 3787 349.067 Q3780.41 349.067 3776.53 344.927 Q3772.65 340.786 3772.65 333.755 Q3772.65 326.619 3776.56 322.531 Q3780.49 318.442 3787.31 318.442 Q3789.53 318.442 3791.64 318.911 Q3793.75 319.354 3795.73 320.265 Z" fill="#000000" fill-rule="nonzero" fill-opacity="1" /><path clip-path="url(#clip680)" d="M3808.8 310.864 L3808.8 319.145 L3818.67 319.145 L3818.67 322.869 L3808.8 322.869 L3808.8 338.703 Q3808.8 342.27 3809.76 343.286 Q3810.75 344.302 3813.75 344.302 L3818.67 344.302 L3818.67 348.312 L3813.75 348.312 Q3808.2 348.312 3806.09 346.255 Q3803.98 344.171 3803.98 338.703 L3803.98 322.869 L3800.46 322.869 L3800.46 319.145 L3803.98 319.145 L3803.98 310.864 L3808.8 310.864 Z" fill="#000000" fill-rule="nonzero" fill-opacity="1" /><path clip-path="url(#clip680)" d="M3847.13 357.166 L3847.13 360.89 L3819.42 360.89 L3819.42 357.166 L3847.13 357.166 Z" fill="#000000" fill-rule="nonzero" fill-opacity="1" /><path clip-path="url(#clip680)" d="M3853.22 343.885 L3861.82 343.885 L3861.82 314.224 L3852.47 316.099 L3852.47 311.307 L3861.77 309.432 L3867.03 309.432 L3867.03 343.885 L3875.62 343.885 L3875.62 348.312 L3853.22 348.312 L3853.22 343.885 Z" fill="#000000" fill-rule="nonzero" fill-opacity="1" /><polyline clip-path="url(#clip680)" style="stroke:#000000; stroke-linecap:round; stroke-linejoin:round; stroke-width:6.75; stroke-opacity:1; fill:none" points="3346.97,387.192 3596.82,387.192 "/>
<path clip-path="url(#clip680)" d="M3653.54 391.971 Q3647.73 391.971 3645.49 393.299 Q3643.25 394.627 3643.25 397.83 Q3643.25 400.382 3644.92 401.892 Q3646.61 403.377 3649.5 403.377 Q3653.49 403.377 3655.88 400.564 Q3658.3 397.726 3658.3 393.038 L3658.3 391.971 L3653.54 391.971 M3663.1 389.991 L3663.1 406.632 L3658.3 406.632 L3658.3 402.205 Q3656.66 404.861 3654.22 406.137 Q3651.77 407.387 3648.23 407.387 Q3643.75 407.387 3641.09 404.887 Q3638.46 402.361 3638.46 398.142 Q3638.46 393.221 3641.74 390.721 Q3645.05 388.221 3651.59 388.221 L3658.3 388.221 L3658.3 387.752 Q3658.3 384.445 3656.12 382.648 Q3653.95 380.825 3650.02 380.825 Q3647.52 380.825 3645.15 381.424 Q3642.78 382.023 3640.6 383.221 L3640.6 378.794 Q3643.23 377.778 3645.7 377.283 Q3648.17 376.762 3650.52 376.762 Q3656.85 376.762 3659.97 380.044 Q3663.1 383.325 3663.1 389.991 Z" fill="#000000" fill-rule="nonzero" fill-opacity="1" /><path clip-path="url(#clip680)" d="M3693.95 378.585 L3693.95 383.064 Q3691.92 381.945 3689.87 381.398 Q3687.83 380.825 3685.75 380.825 Q3681.09 380.825 3678.51 383.794 Q3675.93 386.736 3675.93 392.075 Q3675.93 397.413 3678.51 400.382 Q3681.09 403.325 3685.75 403.325 Q3687.83 403.325 3689.87 402.778 Q3691.92 402.205 3693.95 401.085 L3693.95 405.512 Q3691.95 406.45 3689.79 406.918 Q3687.65 407.387 3685.23 407.387 Q3678.64 407.387 3674.76 403.247 Q3670.88 399.106 3670.88 392.075 Q3670.88 384.939 3674.79 380.851 Q3678.72 376.762 3685.54 376.762 Q3687.76 376.762 3689.87 377.231 Q3691.98 377.674 3693.95 378.585 Z" fill="#000000" fill-rule="nonzero" fill-opacity="1" /><path clip-path="url(#clip680)" d="M3707.03 369.184 L3707.03 377.465 L3716.9 377.465 L3716.9 381.189 L3707.03 381.189 L3707.03 397.023 Q3707.03 400.59 3707.99 401.606 Q3708.98 402.622 3711.98 402.622 L3716.9 402.622 L3716.9 406.632 L3711.98 406.632 Q3706.43 406.632 3704.32 404.575 Q3702.21 402.491 3702.21 397.023 L3702.21 381.189 L3698.69 381.189 L3698.69 377.465 L3702.21 377.465 L3702.21 369.184 L3707.03 369.184 Z" fill="#000000" fill-rule="nonzero" fill-opacity="1" /><path clip-path="url(#clip680)" d="M3722.7 395.122 L3722.7 377.465 L3727.5 377.465 L3727.5 394.939 Q3727.5 399.08 3729.11 401.163 Q3730.73 403.221 3733.95 403.221 Q3737.83 403.221 3740.07 400.747 Q3742.34 398.273 3742.34 394.002 L3742.34 377.465 L3747.13 377.465 L3747.13 406.632 L3742.34 406.632 L3742.34 402.153 Q3740.6 404.809 3738.28 406.111 Q3735.99 407.387 3732.94 407.387 Q3727.91 407.387 3725.31 404.262 Q3722.7 401.137 3722.7 395.122 M3734.76 376.762 L3734.76 376.762 Z" fill="#000000" fill-rule="nonzero" fill-opacity="1" /><path clip-path="url(#clip680)" d="M3770.26 391.971 Q3764.45 391.971 3762.21 393.299 Q3759.97 394.627 3759.97 397.83 Q3759.97 400.382 3761.64 401.892 Q3763.33 403.377 3766.22 403.377 Q3770.2 403.377 3772.6 400.564 Q3775.02 397.726 3775.02 393.038 L3775.02 391.971 L3770.26 391.971 M3779.81 389.991 L3779.81 406.632 L3775.02 406.632 L3775.02 402.205 Q3773.38 404.861 3770.93 406.137 Q3768.49 407.387 3764.94 407.387 Q3760.46 407.387 3757.81 404.887 Q3755.18 402.361 3755.18 398.142 Q3755.18 393.221 3758.46 390.721 Q3761.77 388.221 3768.3 388.221 L3775.02 388.221 L3775.02 387.752 Q3775.02 384.445 3772.83 382.648 Q3770.67 380.825 3766.74 380.825 Q3764.24 380.825 3761.87 381.424 Q3759.5 382.023 3757.31 383.221 L3757.31 378.794 Q3759.94 377.778 3762.42 377.283 Q3764.89 376.762 3767.24 376.762 Q3773.56 376.762 3776.69 380.044 Q3779.81 383.325 3779.81 389.991 Z" fill="#000000" fill-rule="nonzero" fill-opacity="1" /><path clip-path="url(#clip680)" d="M3789.68 366.111 L3794.48 366.111 L3794.48 406.632 L3789.68 406.632 L3789.68 366.111 Z" fill="#000000" fill-rule="nonzero" fill-opacity="1" /></svg>
