<?xml version="1.0" encoding="UTF-8" standalone="no"?>
<!DOCTYPE svg PUBLIC "-//W3C//DTD SVG 1.1//EN"
 "http://www.w3.org/Graphics/SVG/1.1/DTD/svg11.dtd">
<!-- Generated by graphviz version 2.50.0 (20211204.2007)
 -->
<!-- Pages: 1 -->
<svg width="682pt" height="742pt"
 viewBox="0.00 0.00 682.00 742.00" xmlns="http://www.w3.org/2000/svg" xmlns:xlink="http://www.w3.org/1999/xlink">
<g id="graph0" class="graph" transform="scale(1 1) rotate(0) translate(4 738)">
<polygon fill="white" stroke="transparent" points="-4,4 -4,-738 678,-738 678,4 -4,4"/>
<!-- 1 -->
<g id="node1" class="node">
<title>1</title>
<text text-anchor="start" x="303" y="-715.8" font-family="Arial" font-weight="bold" font-size="14.00"> </text>
<path fill="#ebebeb" stroke="transparent" d="M263,-643C263,-643 347,-643 347,-643 353,-643 359,-649 359,-655 359,-655 359,-695 359,-695 359,-701 353,-707 347,-707 347,-707 263,-707 263,-707 257,-707 251,-701 251,-695 251,-695 251,-655 251,-655 251,-649 257,-643 263,-643"/>
<text text-anchor="start" x="252" y="-704.4" font-family="Arial" font-size="2.00"> </text>
<text text-anchor="start" x="252" y="-698.4" font-family="Arial" font-size="7.00"> &#160;1</text>
<text text-anchor="start" x="266" y="-681.8" font-family="Arial" font-weight="bold" font-size="14.00">Mean: 9.771</text>
<text text-anchor="start" x="281.5" y="-664.8" font-family="Arial" font-weight="bold" font-size="14.00">n = 672</text>
<text text-anchor="start" x="303.5" y="-646.8" font-family="Arial" font-size="9.00"> </text>
<path fill="none" stroke="#333333" d="M263,-643C263,-643 347,-643 347,-643 353,-643 359,-649 359,-655 359,-655 359,-695 359,-695 359,-701 353,-707 347,-707 347,-707 263,-707 263,-707 257,-707 251,-701 251,-695 251,-695 251,-655 251,-655 251,-649 257,-643 263,-643"/>
<text text-anchor="start" x="290.5" y="-628.8" font-family="Arial" font-weight="bold" font-size="14.00">time</text>
</g>
<!-- 2 -->
<g id="node2" class="node">
<title>2</title>
<text text-anchor="start" x="207.5" y="-561.8" font-family="Arial" font-weight="bold" font-size="14.00"> &lt; 5.5</text>
<text text-anchor="start" x="161" y="-517.3" font-family="Arial" font-size="14.00"> &#160;</text>
<path fill="#ebebeb" stroke="transparent" d="M183,-489C183,-489 267,-489 267,-489 273,-489 279,-495 279,-501 279,-501 279,-541 279,-541 279,-547 273,-553 267,-553 267,-553 183,-553 183,-553 177,-553 171,-547 171,-541 171,-541 171,-501 171,-501 171,-495 177,-489 183,-489"/>
<text text-anchor="start" x="172" y="-550.4" font-family="Arial" font-size="2.00"> </text>
<text text-anchor="start" x="172" y="-544.4" font-family="Arial" font-size="7.00"> &#160;2</text>
<text text-anchor="start" x="186" y="-527.8" font-family="Arial" font-weight="bold" font-size="14.00">Mean: 8.254</text>
<text text-anchor="start" x="201.5" y="-510.8" font-family="Arial" font-weight="bold" font-size="14.00">n = 168</text>
<text text-anchor="start" x="223.5" y="-492.8" font-family="Arial" font-size="9.00"> </text>
<path fill="none" stroke="#333333" d="M183,-489C183,-489 267,-489 267,-489 273,-489 279,-495 279,-501 279,-501 279,-541 279,-541 279,-547 273,-553 267,-553 267,-553 183,-553 183,-553 177,-553 171,-547 171,-541 171,-541 171,-501 171,-501 171,-495 177,-489 183,-489"/>
<text text-anchor="start" x="281" y="-517.3" font-family="Arial" font-size="14.00"> &#160;</text>
<text text-anchor="start" x="175" y="-474.8" font-family="Arial" font-weight="bold" font-size="14.00">prev_1h_inflow</text>
</g>
<!-- 1&#45;&gt;2 -->
<g id="edge1" class="edge">
<title>1&#45;&gt;2</title>
<path fill="none" stroke="#888888" d="M274.3,-615.67C269.75,-607.03 265.04,-598.07 260.41,-589.27"/>
<polygon fill="#888888" stroke="#888888" points="263.37,-587.4 255.62,-580.18 257.18,-590.66 263.37,-587.4"/>
</g>
<!-- 5 -->
<g id="node3" class="node">
<title>5</title>
<text text-anchor="start" x="369" y="-561.8" font-family="Arial" font-weight="bold" font-size="14.00"> ≥ 5.5</text>
<path fill="#ebebeb" stroke="transparent" d="M344,-489C344,-489 428,-489 428,-489 434,-489 440,-495 440,-501 440,-501 440,-541 440,-541 440,-547 434,-553 428,-553 428,-553 344,-553 344,-553 338,-553 332,-547 332,-541 332,-541 332,-501 332,-501 332,-495 338,-489 344,-489"/>
<text text-anchor="start" x="333" y="-550.4" font-family="Arial" font-size="2.00"> </text>
<text text-anchor="start" x="333" y="-544.4" font-family="Arial" font-size="7.00"> &#160;5</text>
<text text-anchor="start" x="347" y="-527.8" font-family="Arial" font-weight="bold" font-size="14.00">Mean: 10.28</text>
<text text-anchor="start" x="362.5" y="-510.8" font-family="Arial" font-weight="bold" font-size="14.00">n = 504</text>
<text text-anchor="start" x="384.5" y="-492.8" font-family="Arial" font-size="9.00"> </text>
<path fill="none" stroke="#333333" d="M344,-489C344,-489 428,-489 428,-489 434,-489 440,-495 440,-501 440,-501 440,-541 440,-541 440,-547 434,-553 428,-553 428,-553 344,-553 344,-553 338,-553 332,-547 332,-541 332,-541 332,-501 332,-501 332,-495 338,-489 344,-489"/>
<text text-anchor="start" x="371.5" y="-474.8" font-family="Arial" font-weight="bold" font-size="14.00">time</text>
</g>
<!-- 1&#45;&gt;5 -->
<g id="edge2" class="edge">
<title>1&#45;&gt;5</title>
<path fill="none" stroke="#888888" d="M336.09,-615.67C340.69,-607.03 345.46,-598.07 350.15,-589.27"/>
<polygon fill="#888888" stroke="#888888" points="353.38,-590.65 355,-580.18 347.21,-587.36 353.38,-590.65"/>
</g>
<!-- 3 -->
<g id="node4" class="node">
<title>3</title>
<text text-anchor="start" x="44" y="-407.8" font-family="Arial" font-weight="bold" font-size="14.00"> &lt; 8.365</text>
<path fill="#f8766d" fill-opacity="0.874510" stroke="transparent" d="M24,-335C24,-335 114,-335 114,-335 120,-335 126,-341 126,-347 126,-347 126,-387 126,-387 126,-393 120,-399 114,-399 114,-399 24,-399 24,-399 18,-399 12,-393 12,-387 12,-387 12,-347 12,-347 12,-341 18,-335 24,-335"/>
<text text-anchor="start" x="13" y="-396.4" font-family="Arial" font-size="2.00"> </text>
<text text-anchor="start" x="13" y="-390.4" font-family="Arial" font-size="7.00"> &#160;3</text>
<text text-anchor="start" x="27" y="-373.8" font-family="Arial" font-weight="bold" font-size="14.00">Predict 7.834</text>
<text text-anchor="start" x="49" y="-356.8" font-family="Arial" font-weight="bold" font-size="14.00">n = 75</text>
<text text-anchor="start" x="67.5" y="-338.8" font-family="Arial" font-size="9.00"> </text>
<path fill="none" stroke="#333333" d="M24,-335C24,-335 114,-335 114,-335 120,-335 126,-341 126,-347 126,-347 126,-387 126,-387 126,-393 120,-399 114,-399 114,-399 24,-399 24,-399 18,-399 12,-393 12,-387 12,-387 12,-347 12,-347 12,-341 18,-335 24,-335"/>
<text text-anchor="start" x="67" y="-320.8" font-family="Arial" font-weight="bold" font-size="14.00"> </text>
</g>
<!-- 2&#45;&gt;3 -->
<g id="edge3" class="edge">
<title>2&#45;&gt;3</title>
<path fill="none" stroke="#888888" d="M165.13,-461.67C155.62,-452.39 145.72,-442.75 136.05,-433.33"/>
<polygon fill="#888888" stroke="#888888" points="138.31,-430.65 128.71,-426.18 133.43,-435.66 138.31,-430.65"/>
</g>
<!-- 4 -->
<g id="node5" class="node">
<title>4</title>
<text text-anchor="start" x="200.5" y="-407.8" font-family="Arial" font-weight="bold" font-size="14.00"> ≥ 8.365</text>
<path fill="#f8766d" fill-opacity="0.752941" stroke="transparent" d="M180,-335C180,-335 270,-335 270,-335 276,-335 282,-341 282,-347 282,-347 282,-387 282,-387 282,-393 276,-399 270,-399 270,-399 180,-399 180,-399 174,-399 168,-393 168,-387 168,-387 168,-347 168,-347 168,-341 174,-335 180,-335"/>
<text text-anchor="start" x="169" y="-396.4" font-family="Arial" font-size="2.00"> </text>
<text text-anchor="start" x="169" y="-390.4" font-family="Arial" font-size="7.00"> &#160;4</text>
<text text-anchor="start" x="183" y="-373.8" font-family="Arial" font-weight="bold" font-size="14.00">Predict 8.594</text>
<text text-anchor="start" x="205" y="-356.8" font-family="Arial" font-weight="bold" font-size="14.00">n = 93</text>
<text text-anchor="start" x="223.5" y="-338.8" font-family="Arial" font-size="9.00"> </text>
<path fill="none" stroke="#333333" d="M180,-335C180,-335 270,-335 270,-335 276,-335 282,-341 282,-347 282,-347 282,-387 282,-387 282,-393 276,-399 270,-399 270,-399 180,-399 180,-399 174,-399 168,-393 168,-387 168,-387 168,-347 168,-347 168,-341 174,-335 180,-335"/>
<text text-anchor="start" x="223" y="-320.8" font-family="Arial" font-weight="bold" font-size="14.00"> </text>
</g>
<!-- 2&#45;&gt;4 -->
<g id="edge4" class="edge">
<title>2&#45;&gt;4</title>
<path fill="none" stroke="#888888" d="M225,-461.67C225,-453.39 225,-444.83 225,-436.38"/>
<polygon fill="#888888" stroke="#888888" points="228.5,-436.18 225,-426.18 221.5,-436.18 228.5,-436.18"/>
</g>
<!-- 6 -->
<g id="node6" class="node">
<title>6</title>
<text text-anchor="start" x="364.5" y="-407.8" font-family="Arial" font-weight="bold" font-size="14.00"> &lt; 21.5</text>
<text text-anchor="start" x="322" y="-363.3" font-family="Arial" font-size="14.00"> &#160;</text>
<path fill="#ebebeb" stroke="transparent" d="M344,-335C344,-335 428,-335 428,-335 434,-335 440,-341 440,-347 440,-347 440,-387 440,-387 440,-393 434,-399 428,-399 428,-399 344,-399 344,-399 338,-399 332,-393 332,-387 332,-387 332,-347 332,-347 332,-341 338,-335 344,-335"/>
<text text-anchor="start" x="333" y="-396.4" font-family="Arial" font-size="2.00"> </text>
<text text-anchor="start" x="333" y="-390.4" font-family="Arial" font-size="7.00"> &#160;6</text>
<text text-anchor="start" x="347" y="-373.8" font-family="Arial" font-weight="bold" font-size="14.00">Mean: 10.42</text>
<text text-anchor="start" x="362.5" y="-356.8" font-family="Arial" font-weight="bold" font-size="14.00">n = 448</text>
<text text-anchor="start" x="384.5" y="-338.8" font-family="Arial" font-size="9.00"> </text>
<path fill="none" stroke="#333333" d="M344,-335C344,-335 428,-335 428,-335 434,-335 440,-341 440,-347 440,-347 440,-387 440,-387 440,-393 434,-399 428,-399 428,-399 344,-399 344,-399 338,-399 332,-393 332,-387 332,-387 332,-347 332,-347 332,-341 338,-335 344,-335"/>
<text text-anchor="start" x="442" y="-363.3" font-family="Arial" font-size="14.00"> &#160;</text>
<text text-anchor="start" x="336" y="-320.8" font-family="Arial" font-weight="bold" font-size="14.00">prev_1h_inflow</text>
</g>
<!-- 5&#45;&gt;6 -->
<g id="edge5" class="edge">
<title>5&#45;&gt;6</title>
<path fill="none" stroke="#888888" d="M386,-461.67C386,-453.39 386,-444.83 386,-436.38"/>
<polygon fill="#888888" stroke="#888888" points="389.5,-436.18 386,-426.18 382.5,-436.18 389.5,-436.18"/>
</g>
<!-- 13 -->
<g id="node7" class="node">
<title>13</title>
<text text-anchor="start" x="526" y="-407.8" font-family="Arial" font-weight="bold" font-size="14.00"> ≥ 21.5</text>
<path fill="#f8766d" fill-opacity="0.674510" stroke="transparent" d="M502,-335C502,-335 592,-335 592,-335 598,-335 604,-341 604,-347 604,-347 604,-387 604,-387 604,-393 598,-399 592,-399 592,-399 502,-399 502,-399 496,-399 490,-393 490,-387 490,-387 490,-347 490,-347 490,-341 496,-335 502,-335"/>
<text text-anchor="start" x="491" y="-396.4" font-family="Arial" font-size="2.00"> </text>
<text text-anchor="start" x="491" y="-390.4" font-family="Arial" font-size="7.00"> &#160;13</text>
<text text-anchor="start" x="505" y="-373.8" font-family="Arial" font-weight="bold" font-size="14.00">Predict 9.105</text>
<text text-anchor="start" x="527" y="-356.8" font-family="Arial" font-weight="bold" font-size="14.00">n = 56</text>
<text text-anchor="start" x="545.5" y="-338.8" font-family="Arial" font-size="9.00"> </text>
<path fill="none" stroke="#333333" d="M502,-335C502,-335 592,-335 592,-335 598,-335 604,-341 604,-347 604,-347 604,-387 604,-387 604,-393 598,-399 592,-399 592,-399 502,-399 502,-399 496,-399 490,-393 490,-387 490,-387 490,-347 490,-347 490,-341 496,-335 502,-335"/>
<text text-anchor="start" x="545" y="-320.8" font-family="Arial" font-weight="bold" font-size="14.00"> </text>
</g>
<!-- 5&#45;&gt;13 -->
<g id="edge6" class="edge">
<title>5&#45;&gt;13</title>
<path fill="none" stroke="#888888" d="M447.79,-461.67C457.71,-452.3 468.03,-442.56 478.1,-433.05"/>
<polygon fill="#888888" stroke="#888888" points="480.51,-435.59 485.38,-426.18 475.7,-430.5 480.51,-435.59"/>
</g>
<!-- 7 -->
<g id="node8" class="node">
<title>7</title>
<text text-anchor="start" x="277.5" y="-253.8" font-family="Arial" font-weight="bold" font-size="14.00"> &lt; 9.03</text>
<text text-anchor="start" x="227" y="-209.3" font-family="Arial" font-size="14.00"> &#160;&#160;&#160;</text>
<path fill="#ebebeb" stroke="transparent" d="M257,-181C257,-181 341,-181 341,-181 347,-181 353,-187 353,-193 353,-193 353,-233 353,-233 353,-239 347,-245 341,-245 341,-245 257,-245 257,-245 251,-245 245,-239 245,-233 245,-233 245,-193 245,-193 245,-187 251,-181 257,-181"/>
<text text-anchor="start" x="246" y="-242.4" font-family="Arial" font-size="2.00"> </text>
<text text-anchor="start" x="246" y="-236.4" font-family="Arial" font-size="7.00"> &#160;7</text>
<text text-anchor="start" x="260" y="-219.8" font-family="Arial" font-weight="bold" font-size="14.00">Mean: 9.382</text>
<text text-anchor="start" x="279" y="-202.8" font-family="Arial" font-weight="bold" font-size="14.00">n = 71</text>
<text text-anchor="start" x="297.5" y="-184.8" font-family="Arial" font-size="9.00"> </text>
<path fill="none" stroke="#333333" d="M257,-181C257,-181 341,-181 341,-181 347,-181 353,-187 353,-193 353,-193 353,-233 353,-233 353,-239 347,-245 341,-245 341,-245 257,-245 257,-245 251,-245 245,-239 245,-233 245,-233 245,-193 245,-193 245,-187 251,-181 257,-181"/>
<text text-anchor="start" x="355" y="-209.3" font-family="Arial" font-size="14.00"> &#160;&#160;&#160;</text>
<text text-anchor="start" x="241.5" y="-166.8" font-family="Arial" font-weight="bold" font-size="14.00">prev_168h_inflow</text>
</g>
<!-- 6&#45;&gt;7 -->
<g id="edge7" class="edge">
<title>6&#45;&gt;7</title>
<path fill="none" stroke="#888888" d="M352.61,-307.67C347.62,-298.94 342.43,-289.88 337.34,-280.99"/>
<polygon fill="#888888" stroke="#888888" points="340.3,-279.12 332.3,-272.18 334.23,-282.59 340.3,-279.12"/>
</g>
<!-- 10 -->
<g id="node9" class="node">
<title>10</title>
<text text-anchor="start" x="452" y="-253.8" font-family="Arial" font-weight="bold" font-size="14.00"> ≥ 9.03</text>
<text text-anchor="start" x="409" y="-209.3" font-family="Arial" font-size="14.00"> &#160;</text>
<path fill="#ebebeb" stroke="transparent" d="M431,-181C431,-181 515,-181 515,-181 521,-181 527,-187 527,-193 527,-193 527,-233 527,-233 527,-239 521,-245 515,-245 515,-245 431,-245 431,-245 425,-245 419,-239 419,-233 419,-233 419,-193 419,-193 419,-187 425,-181 431,-181"/>
<text text-anchor="start" x="420" y="-242.4" font-family="Arial" font-size="2.00"> </text>
<text text-anchor="start" x="420" y="-236.4" font-family="Arial" font-size="7.00"> &#160;10</text>
<text text-anchor="start" x="434" y="-219.8" font-family="Arial" font-weight="bold" font-size="14.00">Mean: 10.62</text>
<text text-anchor="start" x="449.5" y="-202.8" font-family="Arial" font-weight="bold" font-size="14.00">n = 377</text>
<text text-anchor="start" x="471.5" y="-184.8" font-family="Arial" font-size="9.00"> </text>
<path fill="none" stroke="#333333" d="M431,-181C431,-181 515,-181 515,-181 521,-181 527,-187 527,-193 527,-193 527,-233 527,-233 527,-239 521,-245 515,-245 515,-245 431,-245 431,-245 425,-245 419,-239 419,-233 419,-233 419,-193 419,-193 419,-187 425,-181 431,-181"/>
<text text-anchor="start" x="529" y="-209.3" font-family="Arial" font-size="14.00"> &#160;</text>
<text text-anchor="start" x="423" y="-166.8" font-family="Arial" font-weight="bold" font-size="14.00">prev_1h_inflow</text>
</g>
<!-- 6&#45;&gt;10 -->
<g id="edge8" class="edge">
<title>6&#45;&gt;10</title>
<path fill="none" stroke="#888888" d="M419.39,-307.67C424.38,-298.94 429.57,-289.88 434.66,-280.99"/>
<polygon fill="#888888" stroke="#888888" points="437.77,-282.59 439.7,-272.18 431.7,-279.12 437.77,-282.59"/>
</g>
<!-- 8 -->
<g id="node10" class="node">
<title>8</title>
<text text-anchor="start" x="123" y="-99.8" font-family="Arial" font-weight="bold" font-size="14.00"> &lt; 9.565</text>
<path fill="#f8766d" fill-opacity="0.717647" stroke="transparent" d="M103,-27C103,-27 193,-27 193,-27 199,-27 205,-33 205,-39 205,-39 205,-79 205,-79 205,-85 199,-91 193,-91 193,-91 103,-91 103,-91 97,-91 91,-85 91,-79 91,-79 91,-39 91,-39 91,-33 97,-27 103,-27"/>
<text text-anchor="start" x="92" y="-88.4" font-family="Arial" font-size="2.00"> </text>
<text text-anchor="start" x="92" y="-82.4" font-family="Arial" font-size="7.00"> &#160;8</text>
<text text-anchor="start" x="106" y="-65.8" font-family="Arial" font-weight="bold" font-size="14.00">Predict 8.834</text>
<text text-anchor="start" x="128" y="-48.8" font-family="Arial" font-weight="bold" font-size="14.00">n = 36</text>
<text text-anchor="start" x="146.5" y="-30.8" font-family="Arial" font-size="9.00"> </text>
<path fill="none" stroke="#333333" d="M103,-27C103,-27 193,-27 193,-27 199,-27 205,-33 205,-39 205,-39 205,-79 205,-79 205,-85 199,-91 193,-91 193,-91 103,-91 103,-91 97,-91 91,-85 91,-79 91,-79 91,-39 91,-39 91,-33 97,-27 103,-27"/>
<text text-anchor="start" x="146" y="-12.8" font-family="Arial" font-weight="bold" font-size="14.00"> </text>
</g>
<!-- 7&#45;&gt;8 -->
<g id="edge9" class="edge">
<title>7&#45;&gt;8</title>
<path fill="none" stroke="#888888" d="M241.05,-153.67C231.84,-144.39 222.26,-134.75 212.9,-125.33"/>
<polygon fill="#888888" stroke="#888888" points="215.32,-122.8 205.79,-118.18 210.36,-127.74 215.32,-122.8"/>
</g>
<!-- 9 -->
<g id="node11" class="node">
<title>9</title>
<text text-anchor="start" x="279.5" y="-99.8" font-family="Arial" font-weight="bold" font-size="14.00"> ≥ 9.565</text>
<path fill="#f8766d" fill-opacity="0.541176" stroke="transparent" d="M259,-27C259,-27 349,-27 349,-27 355,-27 361,-33 361,-39 361,-39 361,-79 361,-79 361,-85 355,-91 349,-91 349,-91 259,-91 259,-91 253,-91 247,-85 247,-79 247,-79 247,-39 247,-39 247,-33 253,-27 259,-27"/>
<text text-anchor="start" x="248" y="-88.4" font-family="Arial" font-size="2.00"> </text>
<text text-anchor="start" x="248" y="-82.4" font-family="Arial" font-size="7.00"> &#160;9</text>
<text text-anchor="start" x="262" y="-65.8" font-family="Arial" font-weight="bold" font-size="14.00">Predict 9.946</text>
<text text-anchor="start" x="284" y="-48.8" font-family="Arial" font-weight="bold" font-size="14.00">n = 35</text>
<text text-anchor="start" x="302.5" y="-30.8" font-family="Arial" font-size="9.00"> </text>
<path fill="none" stroke="#333333" d="M259,-27C259,-27 349,-27 349,-27 355,-27 361,-33 361,-39 361,-39 361,-79 361,-79 361,-85 355,-91 349,-91 349,-91 259,-91 259,-91 253,-91 247,-85 247,-79 247,-79 247,-39 247,-39 247,-33 253,-27 259,-27"/>
<text text-anchor="start" x="302" y="-12.8" font-family="Arial" font-weight="bold" font-size="14.00"> </text>
</g>
<!-- 7&#45;&gt;9 -->
<g id="edge10" class="edge">
<title>7&#45;&gt;9</title>
<path fill="none" stroke="#888888" d="M300.92,-153.67C301.19,-145.39 301.47,-136.83 301.75,-128.38"/>
<polygon fill="#888888" stroke="#888888" points="305.26,-128.29 302.09,-118.18 298.26,-128.06 305.26,-128.29"/>
</g>
<!-- 11 -->
<g id="node12" class="node">
<title>11</title>
<text text-anchor="start" x="444" y="-99.8" font-family="Arial" font-weight="bold" font-size="14.00"> &lt; 10.73</text>
<path fill="#f8766d" fill-opacity="0.478431" stroke="transparent" d="M424,-27C424,-27 514,-27 514,-27 520,-27 526,-33 526,-39 526,-39 526,-79 526,-79 526,-85 520,-91 514,-91 514,-91 424,-91 424,-91 418,-91 412,-85 412,-79 412,-79 412,-39 412,-39 412,-33 418,-27 424,-27"/>
<text text-anchor="start" x="413" y="-88.4" font-family="Arial" font-size="2.00"> </text>
<text text-anchor="start" x="413" y="-82.4" font-family="Arial" font-size="7.00"> &#160;11</text>
<text text-anchor="start" x="427" y="-65.8" font-family="Arial" font-weight="bold" font-size="14.00">Predict 10.35</text>
<text text-anchor="start" x="445.5" y="-48.8" font-family="Arial" font-weight="bold" font-size="14.00">n = 221</text>
<text text-anchor="start" x="467.5" y="-30.8" font-family="Arial" font-size="9.00"> </text>
<path fill="none" stroke="#333333" d="M424,-27C424,-27 514,-27 514,-27 520,-27 526,-33 526,-39 526,-39 526,-79 526,-79 526,-85 520,-91 514,-91 514,-91 424,-91 424,-91 418,-91 412,-85 412,-79 412,-79 412,-39 412,-39 412,-33 418,-27 424,-27"/>
<text text-anchor="start" x="467" y="-12.8" font-family="Arial" font-weight="bold" font-size="14.00"> </text>
</g>
<!-- 10&#45;&gt;11 -->
<g id="edge11" class="edge">
<title>10&#45;&gt;11</title>
<path fill="none" stroke="#888888" d="M471.46,-153.67C471.25,-145.39 471.02,-136.83 470.8,-128.38"/>
<polygon fill="#888888" stroke="#888888" points="474.29,-128.08 470.53,-118.18 467.3,-128.27 474.29,-128.08"/>
</g>
<!-- 12 -->
<g id="node13" class="node">
<title>12</title>
<text text-anchor="start" x="590.5" y="-99.8" font-family="Arial" font-weight="bold" font-size="14.00"> ≥ 10.73</text>
<path fill="#f8766d" fill-opacity="0.376471" stroke="transparent" d="M580,-27C580,-27 650,-27 650,-27 656,-27 662,-33 662,-39 662,-39 662,-79 662,-79 662,-85 656,-91 650,-91 650,-91 580,-91 580,-91 574,-91 568,-85 568,-79 568,-79 568,-39 568,-39 568,-33 574,-27 580,-27"/>
<text text-anchor="start" x="569" y="-88.4" font-family="Arial" font-size="2.00"> </text>
<text text-anchor="start" x="569" y="-82.4" font-family="Arial" font-size="7.00"> &#160;12</text>
<text text-anchor="start" x="583" y="-65.8" font-family="Arial" font-weight="bold" font-size="14.00">Predict 11</text>
<text text-anchor="start" x="591.5" y="-48.8" font-family="Arial" font-weight="bold" font-size="14.00">n = 156</text>
<text text-anchor="start" x="613.5" y="-30.8" font-family="Arial" font-size="9.00"> </text>
<path fill="none" stroke="#333333" d="M580,-27C580,-27 650,-27 650,-27 656,-27 662,-33 662,-39 662,-39 662,-79 662,-79 662,-85 656,-91 650,-91 650,-91 580,-91 580,-91 574,-91 568,-85 568,-79 568,-79 568,-39 568,-39 568,-33 574,-27 580,-27"/>
<text text-anchor="start" x="613" y="-12.8" font-family="Arial" font-weight="bold" font-size="14.00"> </text>
</g>
<!-- 10&#45;&gt;12 -->
<g id="edge12" class="edge">
<title>10&#45;&gt;12</title>
<path fill="none" stroke="#888888" d="M527.49,-153.67C536.07,-144.49 544.99,-134.94 553.71,-125.6"/>
<polygon fill="#888888" stroke="#888888" points="556.38,-127.87 560.65,-118.18 551.27,-123.09 556.38,-127.87"/>
</g>
</g>
</svg>
