<?xml version="1.0" encoding="UTF-8" standalone="no"?>
<!DOCTYPE svg PUBLIC "-//W3C//DTD SVG 1.1//EN"
 "http://www.w3.org/Graphics/SVG/1.1/DTD/svg11.dtd">
<!-- Generated by graphviz version 2.50.0 (20211204.2007)
 -->
<!-- Pages: 1 -->
<svg width="942pt" height="588pt"
 viewBox="0.00 0.00 942.00 588.00" xmlns="http://www.w3.org/2000/svg" xmlns:xlink="http://www.w3.org/1999/xlink">
<g id="graph0" class="graph" transform="scale(1 1) rotate(0) translate(4 584)">
<polygon fill="white" stroke="transparent" points="-4,4 -4,-584 938,-584 938,4 -4,4"/>
<!-- 1 -->
<g id="node1" class="node">
<title>1</title>
<text text-anchor="start" x="474" y="-561.8" font-family="Arial" font-weight="bold" font-size="14.00"> </text>
<text text-anchor="start" x="408" y="-517.3" font-family="Arial" font-size="14.00"> &#160;&#160;</text>
<path fill="#ebebeb" stroke="transparent" d="M434,-489C434,-489 518,-489 518,-489 524,-489 530,-495 530,-501 530,-501 530,-541 530,-541 530,-547 524,-553 518,-553 518,-553 434,-553 434,-553 428,-553 422,-547 422,-541 422,-541 422,-501 422,-501 422,-495 428,-489 434,-489"/>
<text text-anchor="start" x="423" y="-550.4" font-family="Arial" font-size="2.00"> </text>
<text text-anchor="start" x="423" y="-544.4" font-family="Arial" font-size="7.00"> &#160;1</text>
<text text-anchor="start" x="437" y="-527.8" font-family="Arial" font-weight="bold" font-size="14.00">Mean: 3.616</text>
<text text-anchor="start" x="452.5" y="-510.8" font-family="Arial" font-weight="bold" font-size="14.00">n = 672</text>
<text text-anchor="start" x="474.5" y="-492.8" font-family="Arial" font-size="9.00"> </text>
<path fill="none" stroke="#333333" d="M434,-489C434,-489 518,-489 518,-489 524,-489 530,-495 530,-501 530,-501 530,-541 530,-541 530,-547 524,-553 518,-553 518,-553 434,-553 434,-553 428,-553 422,-547 422,-541 422,-541 422,-501 422,-501 422,-495 428,-489 434,-489"/>
<text text-anchor="start" x="532" y="-517.3" font-family="Arial" font-size="14.00"> &#160;&#160;</text>
<text text-anchor="start" x="422.5" y="-474.8" font-family="Arial" font-weight="bold" font-size="14.00">prev_24h_inflow</text>
</g>
<!-- 2 -->
<g id="node2" class="node">
<title>2</title>
<text text-anchor="start" x="360" y="-407.8" font-family="Arial" font-weight="bold" font-size="14.00"> &lt; 4.015</text>
<text text-anchor="start" x="313" y="-363.3" font-family="Arial" font-size="14.00"> &#160;&#160;&#160;</text>
<path fill="#ebebeb" stroke="transparent" d="M343,-335C343,-335 427,-335 427,-335 433,-335 439,-341 439,-347 439,-347 439,-387 439,-387 439,-393 433,-399 427,-399 427,-399 343,-399 343,-399 337,-399 331,-393 331,-387 331,-387 331,-347 331,-347 331,-341 337,-335 343,-335"/>
<text text-anchor="start" x="332" y="-396.4" font-family="Arial" font-size="2.00"> </text>
<text text-anchor="start" x="332" y="-390.4" font-family="Arial" font-size="7.00"> &#160;2</text>
<text text-anchor="start" x="346" y="-373.8" font-family="Arial" font-weight="bold" font-size="14.00">Mean: 3.102</text>
<text text-anchor="start" x="361.5" y="-356.8" font-family="Arial" font-weight="bold" font-size="14.00">n = 425</text>
<text text-anchor="start" x="383.5" y="-338.8" font-family="Arial" font-size="9.00"> </text>
<path fill="none" stroke="#333333" d="M343,-335C343,-335 427,-335 427,-335 433,-335 439,-341 439,-347 439,-347 439,-387 439,-387 439,-393 433,-399 427,-399 427,-399 343,-399 343,-399 337,-399 331,-393 331,-387 331,-387 331,-347 331,-347 331,-341 337,-335 343,-335"/>
<text text-anchor="start" x="441" y="-363.3" font-family="Arial" font-size="14.00"> &#160;&#160;&#160;</text>
<text text-anchor="start" x="327.5" y="-320.8" font-family="Arial" font-weight="bold" font-size="14.00">prev_168h_inflow</text>
</g>
<!-- 1&#45;&gt;2 -->
<g id="edge1" class="edge">
<title>1&#45;&gt;2</title>
<path fill="none" stroke="#888888" d="M441.08,-461.67C435.85,-452.94 430.43,-443.88 425.11,-434.99"/>
<polygon fill="#888888" stroke="#888888" points="427.97,-432.96 419.83,-426.18 421.96,-436.55 427.97,-432.96"/>
</g>
<!-- 9 -->
<g id="node3" class="node">
<title>9</title>
<text text-anchor="start" x="542.5" y="-407.8" font-family="Arial" font-weight="bold" font-size="14.00"> ≥ 4.015</text>
<text text-anchor="start" x="495" y="-363.3" font-family="Arial" font-size="14.00"> &#160;&#160;&#160;</text>
<path fill="#ebebeb" stroke="transparent" d="M525,-335C525,-335 609,-335 609,-335 615,-335 621,-341 621,-347 621,-347 621,-387 621,-387 621,-393 615,-399 609,-399 609,-399 525,-399 525,-399 519,-399 513,-393 513,-387 513,-387 513,-347 513,-347 513,-341 519,-335 525,-335"/>
<text text-anchor="start" x="514" y="-396.4" font-family="Arial" font-size="2.00"> </text>
<text text-anchor="start" x="514" y="-390.4" font-family="Arial" font-size="7.00"> &#160;9</text>
<text text-anchor="start" x="528" y="-373.8" font-family="Arial" font-weight="bold" font-size="14.00">Mean: 4.499</text>
<text text-anchor="start" x="543.5" y="-356.8" font-family="Arial" font-weight="bold" font-size="14.00">n = 247</text>
<text text-anchor="start" x="565.5" y="-338.8" font-family="Arial" font-size="9.00"> </text>
<path fill="none" stroke="#333333" d="M525,-335C525,-335 609,-335 609,-335 615,-335 621,-341 621,-347 621,-347 621,-387 621,-387 621,-393 615,-399 609,-399 609,-399 525,-399 525,-399 519,-399 513,-393 513,-387 513,-387 513,-347 513,-347 513,-341 519,-335 525,-335"/>
<text text-anchor="start" x="623" y="-363.3" font-family="Arial" font-size="14.00"> &#160;&#160;&#160;</text>
<text text-anchor="start" x="509.5" y="-320.8" font-family="Arial" font-weight="bold" font-size="14.00">prev_168h_inflow</text>
</g>
<!-- 1&#45;&gt;9 -->
<g id="edge2" class="edge">
<title>1&#45;&gt;9</title>
<path fill="none" stroke="#888888" d="M510.92,-461.67C516.15,-452.94 521.57,-443.88 526.89,-434.99"/>
<polygon fill="#888888" stroke="#888888" points="530.04,-436.55 532.17,-426.18 524.03,-432.96 530.04,-436.55"/>
</g>
<!-- 3 -->
<g id="node4" class="node">
<title>3</title>
<text text-anchor="start" x="191" y="-253.8" font-family="Arial" font-weight="bold" font-size="14.00"> &lt; 3.265</text>
<text text-anchor="start" x="148" y="-209.3" font-family="Arial" font-size="14.00"> &#160;&#160;</text>
<path fill="#ebebeb" stroke="transparent" d="M174,-181C174,-181 258,-181 258,-181 264,-181 270,-187 270,-193 270,-193 270,-233 270,-233 270,-239 264,-245 258,-245 258,-245 174,-245 174,-245 168,-245 162,-239 162,-233 162,-233 162,-193 162,-193 162,-187 168,-181 174,-181"/>
<text text-anchor="start" x="163" y="-242.4" font-family="Arial" font-size="2.00"> </text>
<text text-anchor="start" x="163" y="-236.4" font-family="Arial" font-size="7.00"> &#160;3</text>
<text text-anchor="start" x="177" y="-219.8" font-family="Arial" font-weight="bold" font-size="14.00">Mean: 2.456</text>
<text text-anchor="start" x="192.5" y="-202.8" font-family="Arial" font-weight="bold" font-size="14.00">n = 202</text>
<text text-anchor="start" x="214.5" y="-184.8" font-family="Arial" font-size="9.00"> </text>
<path fill="none" stroke="#333333" d="M174,-181C174,-181 258,-181 258,-181 264,-181 270,-187 270,-193 270,-193 270,-233 270,-233 270,-239 264,-245 258,-245 258,-245 174,-245 174,-245 168,-245 162,-239 162,-233 162,-233 162,-193 162,-193 162,-187 168,-181 174,-181"/>
<text text-anchor="start" x="272" y="-209.3" font-family="Arial" font-size="14.00"> &#160;&#160;</text>
<text text-anchor="start" x="162.5" y="-166.8" font-family="Arial" font-weight="bold" font-size="14.00">prev_24h_inflow</text>
</g>
<!-- 2&#45;&gt;3 -->
<g id="edge3" class="edge">
<title>2&#45;&gt;3</title>
<path fill="none" stroke="#888888" d="M320.14,-307.67C309.73,-298.3 298.9,-288.56 288.33,-279.05"/>
<polygon fill="#888888" stroke="#888888" points="290.46,-276.26 280.68,-272.18 285.78,-281.47 290.46,-276.26"/>
</g>
<!-- 6 -->
<g id="node5" class="node">
<title>6</title>
<text text-anchor="start" x="365.5" y="-253.8" font-family="Arial" font-weight="bold" font-size="14.00"> ≥ 3.265</text>
<text text-anchor="start" x="322" y="-209.3" font-family="Arial" font-size="14.00"> &#160;&#160;</text>
<path fill="#ebebeb" stroke="transparent" d="M348,-181C348,-181 432,-181 432,-181 438,-181 444,-187 444,-193 444,-193 444,-233 444,-233 444,-239 438,-245 432,-245 432,-245 348,-245 348,-245 342,-245 336,-239 336,-233 336,-233 336,-193 336,-193 336,-187 342,-181 348,-181"/>
<text text-anchor="start" x="337" y="-242.4" font-family="Arial" font-size="2.00"> </text>
<text text-anchor="start" x="337" y="-236.4" font-family="Arial" font-size="7.00"> &#160;6</text>
<text text-anchor="start" x="351" y="-219.8" font-family="Arial" font-weight="bold" font-size="14.00">Mean: 3.688</text>
<text text-anchor="start" x="366.5" y="-202.8" font-family="Arial" font-weight="bold" font-size="14.00">n = 223</text>
<text text-anchor="start" x="388.5" y="-184.8" font-family="Arial" font-size="9.00"> </text>
<path fill="none" stroke="#333333" d="M348,-181C348,-181 432,-181 432,-181 438,-181 444,-187 444,-193 444,-193 444,-233 444,-233 444,-239 438,-245 432,-245 432,-245 348,-245 348,-245 342,-245 336,-239 336,-233 336,-233 336,-193 336,-193 336,-187 342,-181 348,-181"/>
<text text-anchor="start" x="446" y="-209.3" font-family="Arial" font-size="14.00"> &#160;&#160;</text>
<text text-anchor="start" x="336.5" y="-166.8" font-family="Arial" font-weight="bold" font-size="14.00">prev_24h_inflow</text>
</g>
<!-- 2&#45;&gt;6 -->
<g id="edge4" class="edge">
<title>2&#45;&gt;6</title>
<path fill="none" stroke="#888888" d="M386.92,-307.67C387.19,-299.39 387.47,-290.83 387.75,-282.38"/>
<polygon fill="#888888" stroke="#888888" points="391.26,-282.29 388.09,-272.18 384.26,-282.06 391.26,-282.29"/>
</g>
<!-- 10 -->
<g id="node10" class="node">
<title>10</title>
<text text-anchor="start" x="538" y="-253.8" font-family="Arial" font-weight="bold" font-size="14.00"> &lt; 4.085</text>
<path fill="#f8766d" fill-opacity="0.501961" stroke="transparent" d="M518,-181C518,-181 608,-181 608,-181 614,-181 620,-187 620,-193 620,-193 620,-233 620,-233 620,-239 614,-245 608,-245 608,-245 518,-245 518,-245 512,-245 506,-239 506,-233 506,-233 506,-193 506,-193 506,-187 512,-181 518,-181"/>
<text text-anchor="start" x="507" y="-242.4" font-family="Arial" font-size="2.00"> </text>
<text text-anchor="start" x="507" y="-236.4" font-family="Arial" font-size="7.00"> &#160;10</text>
<text text-anchor="start" x="521" y="-219.8" font-family="Arial" font-weight="bold" font-size="14.00">Predict 4.217</text>
<text text-anchor="start" x="543" y="-202.8" font-family="Arial" font-weight="bold" font-size="14.00">n = 91</text>
<text text-anchor="start" x="561.5" y="-184.8" font-family="Arial" font-size="9.00"> </text>
<path fill="none" stroke="#333333" d="M518,-181C518,-181 608,-181 608,-181 614,-181 620,-187 620,-193 620,-193 620,-233 620,-233 620,-239 614,-245 608,-245 608,-245 518,-245 518,-245 512,-245 506,-239 506,-233 506,-233 506,-193 506,-193 506,-187 512,-181 518,-181"/>
<text text-anchor="start" x="561" y="-166.8" font-family="Arial" font-weight="bold" font-size="14.00"> </text>
</g>
<!-- 9&#45;&gt;10 -->
<g id="edge9" class="edge">
<title>9&#45;&gt;10</title>
<path fill="none" stroke="#888888" d="M565.46,-307.67C565.25,-299.39 565.02,-290.83 564.8,-282.38"/>
<polygon fill="#888888" stroke="#888888" points="568.29,-282.08 564.53,-272.18 561.3,-282.27 568.29,-282.08"/>
</g>
<!-- 11 -->
<g id="node11" class="node">
<title>11</title>
<text text-anchor="start" x="703.5" y="-253.8" font-family="Arial" font-weight="bold" font-size="14.00"> ≥ 4.085</text>
<text text-anchor="start" x="660" y="-209.3" font-family="Arial" font-size="14.00"> &#160;&#160;</text>
<path fill="#ebebeb" stroke="transparent" d="M686,-181C686,-181 770,-181 770,-181 776,-181 782,-187 782,-193 782,-193 782,-233 782,-233 782,-239 776,-245 770,-245 770,-245 686,-245 686,-245 680,-245 674,-239 674,-233 674,-233 674,-193 674,-193 674,-187 680,-181 686,-181"/>
<text text-anchor="start" x="675" y="-242.4" font-family="Arial" font-size="2.00"> </text>
<text text-anchor="start" x="675" y="-236.4" font-family="Arial" font-size="7.00"> &#160;11</text>
<text text-anchor="start" x="689" y="-219.8" font-family="Arial" font-weight="bold" font-size="14.00">Mean: 4.663</text>
<text text-anchor="start" x="704.5" y="-202.8" font-family="Arial" font-weight="bold" font-size="14.00">n = 156</text>
<text text-anchor="start" x="726.5" y="-184.8" font-family="Arial" font-size="9.00"> </text>
<path fill="none" stroke="#333333" d="M686,-181C686,-181 770,-181 770,-181 776,-181 782,-187 782,-193 782,-193 782,-233 782,-233 782,-239 776,-245 770,-245 770,-245 686,-245 686,-245 680,-245 674,-239 674,-233 674,-233 674,-193 674,-193 674,-187 680,-181 686,-181"/>
<text text-anchor="start" x="784" y="-209.3" font-family="Arial" font-size="14.00"> &#160;&#160;</text>
<text text-anchor="start" x="674.5" y="-166.8" font-family="Arial" font-weight="bold" font-size="14.00">prev_24h_inflow</text>
</g>
<!-- 9&#45;&gt;11 -->
<g id="edge10" class="edge">
<title>9&#45;&gt;11</title>
<path fill="none" stroke="#888888" d="M628.79,-307.67C638.71,-298.3 649.03,-288.56 659.1,-279.05"/>
<polygon fill="#888888" stroke="#888888" points="661.51,-281.59 666.38,-272.18 656.7,-276.5 661.51,-281.59"/>
</g>
<!-- 4 -->
<g id="node6" class="node">
<title>4</title>
<text text-anchor="start" x="43" y="-99.8" font-family="Arial" font-weight="bold" font-size="14.00"> &lt; 2.445</text>
<path fill="#f8766d" fill-opacity="0.874510" stroke="transparent" d="M24,-27C24,-27 112,-27 112,-27 118,-27 124,-33 124,-39 124,-39 124,-79 124,-79 124,-85 118,-91 112,-91 112,-91 24,-91 24,-91 18,-91 12,-85 12,-79 12,-79 12,-39 12,-39 12,-33 18,-27 24,-27"/>
<text text-anchor="start" x="13" y="-88.4" font-family="Arial" font-size="2.00"> </text>
<text text-anchor="start" x="13" y="-82.4" font-family="Arial" font-size="7.00"> &#160;4</text>
<text text-anchor="start" x="27" y="-65.8" font-family="Arial" font-weight="bold" font-size="14.00">Predict 2.111</text>
<text text-anchor="start" x="44.5" y="-48.8" font-family="Arial" font-weight="bold" font-size="14.00">n = 107</text>
<text text-anchor="start" x="66.5" y="-30.8" font-family="Arial" font-size="9.00"> </text>
<path fill="none" stroke="#333333" d="M24,-27C24,-27 112,-27 112,-27 118,-27 124,-33 124,-39 124,-39 124,-79 124,-79 124,-85 118,-91 112,-91 112,-91 24,-91 24,-91 18,-91 12,-85 12,-79 12,-79 12,-39 12,-39 12,-33 18,-27 24,-27"/>
<text text-anchor="start" x="66" y="-12.8" font-family="Arial" font-weight="bold" font-size="14.00"> </text>
</g>
<!-- 3&#45;&gt;4 -->
<g id="edge5" class="edge">
<title>3&#45;&gt;4</title>
<path fill="none" stroke="#888888" d="M159.2,-153.67C150.26,-144.49 140.97,-134.94 131.88,-125.6"/>
<polygon fill="#888888" stroke="#888888" points="134.13,-122.9 124.65,-118.18 129.11,-127.78 134.13,-122.9"/>
</g>
<!-- 5 -->
<g id="node7" class="node">
<title>5</title>
<text text-anchor="start" x="198.5" y="-99.8" font-family="Arial" font-weight="bold" font-size="14.00"> ≥ 2.445</text>
<path fill="#f8766d" fill-opacity="0.745098" stroke="transparent" d="M178,-27C178,-27 268,-27 268,-27 274,-27 280,-33 280,-39 280,-39 280,-79 280,-79 280,-85 274,-91 268,-91 268,-91 178,-91 178,-91 172,-91 166,-85 166,-79 166,-79 166,-39 166,-39 166,-33 172,-27 178,-27"/>
<text text-anchor="start" x="167" y="-88.4" font-family="Arial" font-size="2.00"> </text>
<text text-anchor="start" x="167" y="-82.4" font-family="Arial" font-size="7.00"> &#160;5</text>
<text text-anchor="start" x="181" y="-65.8" font-family="Arial" font-weight="bold" font-size="14.00">Predict 2.845</text>
<text text-anchor="start" x="203" y="-48.8" font-family="Arial" font-weight="bold" font-size="14.00">n = 95</text>
<text text-anchor="start" x="221.5" y="-30.8" font-family="Arial" font-size="9.00"> </text>
<path fill="none" stroke="#333333" d="M178,-27C178,-27 268,-27 268,-27 274,-27 280,-33 280,-39 280,-39 280,-79 280,-79 280,-85 274,-91 268,-91 268,-91 178,-91 178,-91 172,-91 166,-85 166,-79 166,-79 166,-39 166,-39 166,-33 172,-27 178,-27"/>
<text text-anchor="start" x="221" y="-12.8" font-family="Arial" font-weight="bold" font-size="14.00"> </text>
</g>
<!-- 3&#45;&gt;5 -->
<g id="edge6" class="edge">
<title>3&#45;&gt;5</title>
<path fill="none" stroke="#888888" d="M218.69,-153.67C219.07,-145.39 219.46,-136.83 219.85,-128.38"/>
<polygon fill="#888888" stroke="#888888" points="223.36,-128.33 220.32,-118.18 216.36,-128 223.36,-128.33"/>
</g>
<!-- 7 -->
<g id="node8" class="node">
<title>7</title>
<text text-anchor="start" x="359.5" y="-99.8" font-family="Arial" font-weight="bold" font-size="14.00"> &lt; 3.525</text>
<path fill="#f8766d" fill-opacity="0.647059" stroke="transparent" d="M347,-27C347,-27 422,-27 422,-27 428,-27 434,-33 434,-39 434,-39 434,-79 434,-79 434,-85 428,-91 422,-91 422,-91 347,-91 347,-91 341,-91 335,-85 335,-79 335,-79 335,-39 335,-39 335,-33 341,-27 347,-27"/>
<text text-anchor="start" x="336" y="-88.4" font-family="Arial" font-size="2.00"> </text>
<text text-anchor="start" x="336" y="-82.4" font-family="Arial" font-size="7.00"> &#160;7</text>
<text text-anchor="start" x="350" y="-65.8" font-family="Arial" font-weight="bold" font-size="14.00">Predict 3.4</text>
<text text-anchor="start" x="364.5" y="-48.8" font-family="Arial" font-weight="bold" font-size="14.00">n = 85</text>
<text text-anchor="start" x="383" y="-30.8" font-family="Arial" font-size="9.00"> </text>
<path fill="none" stroke="#333333" d="M347,-27C347,-27 422,-27 422,-27 428,-27 434,-33 434,-39 434,-39 434,-79 434,-79 434,-85 428,-91 422,-91 422,-91 347,-91 347,-91 341,-91 335,-85 335,-79 335,-79 335,-39 335,-39 335,-33 341,-27 347,-27"/>
<text text-anchor="start" x="382.5" y="-12.8" font-family="Arial" font-weight="bold" font-size="14.00"> </text>
</g>
<!-- 6&#45;&gt;7 -->
<g id="edge7" class="edge">
<title>6&#45;&gt;7</title>
<path fill="none" stroke="#888888" d="M387.7,-153.67C387.37,-145.39 387.03,-136.83 386.7,-128.38"/>
<polygon fill="#888888" stroke="#888888" points="390.19,-128.03 386.3,-118.18 383.19,-128.31 390.19,-128.03"/>
</g>
<!-- 8 -->
<g id="node9" class="node">
<title>8</title>
<text text-anchor="start" x="508.5" y="-99.8" font-family="Arial" font-weight="bold" font-size="14.00"> ≥ 3.525</text>
<path fill="#f8766d" fill-opacity="0.564706" stroke="transparent" d="M488,-27C488,-27 578,-27 578,-27 584,-27 590,-33 590,-39 590,-39 590,-79 590,-79 590,-85 584,-91 578,-91 578,-91 488,-91 488,-91 482,-91 476,-85 476,-79 476,-79 476,-39 476,-39 476,-33 482,-27 488,-27"/>
<text text-anchor="start" x="477" y="-88.4" font-family="Arial" font-size="2.00"> </text>
<text text-anchor="start" x="477" y="-82.4" font-family="Arial" font-size="7.00"> &#160;8</text>
<text text-anchor="start" x="491" y="-65.8" font-family="Arial" font-weight="bold" font-size="14.00">Predict 3.865</text>
<text text-anchor="start" x="509.5" y="-48.8" font-family="Arial" font-weight="bold" font-size="14.00">n = 138</text>
<text text-anchor="start" x="531.5" y="-30.8" font-family="Arial" font-size="9.00"> </text>
<path fill="none" stroke="#333333" d="M488,-27C488,-27 578,-27 578,-27 584,-27 590,-33 590,-39 590,-39 590,-79 590,-79 590,-85 584,-91 578,-91 578,-91 488,-91 488,-91 482,-91 476,-85 476,-79 476,-79 476,-39 476,-39 476,-33 482,-27 488,-27"/>
<text text-anchor="start" x="531" y="-12.8" font-family="Arial" font-weight="bold" font-size="14.00"> </text>
</g>
<!-- 6&#45;&gt;8 -->
<g id="edge8" class="edge">
<title>6&#45;&gt;8</title>
<path fill="none" stroke="#888888" d="M444.88,-153.67C453.52,-144.49 462.5,-134.94 471.28,-125.6"/>
<polygon fill="#888888" stroke="#888888" points="473.97,-127.86 478.27,-118.18 468.87,-123.06 473.97,-127.86"/>
</g>
<!-- 12 -->
<g id="node12" class="node">
<title>12</title>
<text text-anchor="start" x="684" y="-99.8" font-family="Arial" font-weight="bold" font-size="14.00"> &lt; 4.595</text>
<path fill="#f8766d" fill-opacity="0.466667" stroke="transparent" d="M664,-27C664,-27 754,-27 754,-27 760,-27 766,-33 766,-39 766,-39 766,-79 766,-79 766,-85 760,-91 754,-91 754,-91 664,-91 664,-91 658,-91 652,-85 652,-79 652,-79 652,-39 652,-39 652,-33 658,-27 664,-27"/>
<text text-anchor="start" x="653" y="-88.4" font-family="Arial" font-size="2.00"> </text>
<text text-anchor="start" x="653" y="-82.4" font-family="Arial" font-size="7.00"> &#160;12</text>
<text text-anchor="start" x="667" y="-65.8" font-family="Arial" font-weight="bold" font-size="14.00">Predict 4.403</text>
<text text-anchor="start" x="689" y="-48.8" font-family="Arial" font-weight="bold" font-size="14.00">n = 78</text>
<text text-anchor="start" x="707.5" y="-30.8" font-family="Arial" font-size="9.00"> </text>
<path fill="none" stroke="#333333" d="M664,-27C664,-27 754,-27 754,-27 760,-27 766,-33 766,-39 766,-39 766,-79 766,-79 766,-85 760,-91 754,-91 754,-91 664,-91 664,-91 658,-91 652,-85 652,-79 652,-79 652,-39 652,-39 652,-33 658,-27 664,-27"/>
<text text-anchor="start" x="707" y="-12.8" font-family="Arial" font-weight="bold" font-size="14.00"> </text>
</g>
<!-- 11&#45;&gt;12 -->
<g id="edge11" class="edge">
<title>11&#45;&gt;12</title>
<path fill="none" stroke="#888888" d="M720.71,-153.67C719.66,-145.3 718.58,-136.64 717.51,-128.1"/>
<polygon fill="#888888" stroke="#888888" points="720.99,-127.66 716.27,-118.18 714.04,-128.53 720.99,-127.66"/>
</g>
<!-- 13 -->
<g id="node13" class="node">
<title>13</title>
<text text-anchor="start" x="840.5" y="-99.8" font-family="Arial" font-weight="bold" font-size="14.00"> ≥ 4.595</text>
<path fill="#f8766d" fill-opacity="0.376471" stroke="transparent" d="M820,-27C820,-27 910,-27 910,-27 916,-27 922,-33 922,-39 922,-39 922,-79 922,-79 922,-85 916,-91 910,-91 910,-91 820,-91 820,-91 814,-91 808,-85 808,-79 808,-79 808,-39 808,-39 808,-33 814,-27 820,-27"/>
<text text-anchor="start" x="809" y="-88.4" font-family="Arial" font-size="2.00"> </text>
<text text-anchor="start" x="809" y="-82.4" font-family="Arial" font-size="7.00"> &#160;13</text>
<text text-anchor="start" x="823" y="-65.8" font-family="Arial" font-weight="bold" font-size="14.00">Predict 4.923</text>
<text text-anchor="start" x="845" y="-48.8" font-family="Arial" font-weight="bold" font-size="14.00">n = 78</text>
<text text-anchor="start" x="863.5" y="-30.8" font-family="Arial" font-size="9.00"> </text>
<path fill="none" stroke="#333333" d="M820,-27C820,-27 910,-27 910,-27 916,-27 922,-33 922,-39 922,-39 922,-79 922,-79 922,-85 916,-91 910,-91 910,-91 820,-91 820,-91 814,-91 808,-85 808,-79 808,-79 808,-39 808,-39 808,-33 814,-27 820,-27"/>
<text text-anchor="start" x="863" y="-12.8" font-family="Arial" font-weight="bold" font-size="14.00"> </text>
</g>
<!-- 11&#45;&gt;13 -->
<g id="edge12" class="edge">
<title>11&#45;&gt;13</title>
<path fill="none" stroke="#888888" d="M780.58,-153.67C788.85,-144.49 797.46,-134.94 805.87,-125.6"/>
<polygon fill="#888888" stroke="#888888" points="808.47,-127.95 812.56,-118.18 803.27,-123.26 808.47,-127.95"/>
</g>
</g>
</svg>
