<?xml version="1.0" encoding="UTF-8" standalone="no"?>
<!DOCTYPE svg PUBLIC "-//W3C//DTD SVG 1.1//EN"
 "http://www.w3.org/Graphics/SVG/1.1/DTD/svg11.dtd">
<!-- Generated by graphviz version 2.50.0 (20211204.2007)
 -->
<!-- Pages: 1 -->
<svg width="2021pt" height="1204pt"
 viewBox="0.00 0.00 2020.50 1204.00" xmlns="http://www.w3.org/2000/svg" xmlns:xlink="http://www.w3.org/1999/xlink">
<g id="graph0" class="graph" transform="scale(1 1) rotate(0) translate(4 1200)">
<polygon fill="white" stroke="transparent" points="-4,4 -4,-1200 2016.5,-1200 2016.5,4 -4,4"/>
<!-- 1 -->
<g id="node1" class="node">
<title>1</title>
<text text-anchor="start" x="581.5" y="-1177.8" font-family="Arial" font-weight="bold" font-size="14.00"> </text>
<text text-anchor="start" x="511.5" y="-1133.3" font-family="Arial" font-size="14.00"> &#160;&#160;&#160;</text>
<path fill="#ebebeb" stroke="transparent" d="M541.5,-1105C541.5,-1105 625.5,-1105 625.5,-1105 631.5,-1105 637.5,-1111 637.5,-1117 637.5,-1117 637.5,-1157 637.5,-1157 637.5,-1163 631.5,-1169 625.5,-1169 625.5,-1169 541.5,-1169 541.5,-1169 535.5,-1169 529.5,-1163 529.5,-1157 529.5,-1157 529.5,-1117 529.5,-1117 529.5,-1111 535.5,-1105 541.5,-1105"/>
<text text-anchor="start" x="530.5" y="-1166.4" font-family="Arial" font-size="2.00"> </text>
<text text-anchor="start" x="530.5" y="-1160.4" font-family="Arial" font-size="7.00"> &#160;1</text>
<text text-anchor="start" x="544.5" y="-1143.8" font-family="Arial" font-weight="bold" font-size="14.00">Mean: 22.75</text>
<text text-anchor="start" x="560" y="-1126.8" font-family="Arial" font-weight="bold" font-size="14.00">n = 168</text>
<text text-anchor="start" x="582" y="-1108.8" font-family="Arial" font-size="9.00"> </text>
<path fill="none" stroke="#333333" d="M541.5,-1105C541.5,-1105 625.5,-1105 625.5,-1105 631.5,-1105 637.5,-1111 637.5,-1117 637.5,-1117 637.5,-1157 637.5,-1157 637.5,-1163 631.5,-1169 625.5,-1169 625.5,-1169 541.5,-1169 541.5,-1169 535.5,-1169 529.5,-1163 529.5,-1157 529.5,-1157 529.5,-1117 529.5,-1117 529.5,-1111 535.5,-1105 541.5,-1105"/>
<text text-anchor="start" x="639.5" y="-1133.3" font-family="Arial" font-size="14.00"> &#160;&#160;&#160;</text>
<text text-anchor="start" x="526" y="-1090.8" font-family="Arial" font-weight="bold" font-size="14.00">prev_168h_inflow</text>
</g>
<!-- 2 -->
<g id="node2" class="node">
<title>2</title>
<text text-anchor="start" x="473.5" y="-1023.8" font-family="Arial" font-weight="bold" font-size="14.00"> &lt; 20.63</text>
<text text-anchor="start" x="426.5" y="-979.3" font-family="Arial" font-size="14.00"> &#160;&#160;&#160;</text>
<path fill="#ebebeb" stroke="transparent" d="M456.5,-951C456.5,-951 540.5,-951 540.5,-951 546.5,-951 552.5,-957 552.5,-963 552.5,-963 552.5,-1003 552.5,-1003 552.5,-1009 546.5,-1015 540.5,-1015 540.5,-1015 456.5,-1015 456.5,-1015 450.5,-1015 444.5,-1009 444.5,-1003 444.5,-1003 444.5,-963 444.5,-963 444.5,-957 450.5,-951 456.5,-951"/>
<text text-anchor="start" x="445.5" y="-1012.4" font-family="Arial" font-size="2.00"> </text>
<text text-anchor="start" x="445.5" y="-1006.4" font-family="Arial" font-size="7.00"> &#160;2</text>
<text text-anchor="start" x="459.5" y="-989.8" font-family="Arial" font-weight="bold" font-size="14.00">Mean: 14.63</text>
<text text-anchor="start" x="478.5" y="-972.8" font-family="Arial" font-weight="bold" font-size="14.00">n = 60</text>
<text text-anchor="start" x="497" y="-954.8" font-family="Arial" font-size="9.00"> </text>
<path fill="none" stroke="#333333" d="M456.5,-951C456.5,-951 540.5,-951 540.5,-951 546.5,-951 552.5,-957 552.5,-963 552.5,-963 552.5,-1003 552.5,-1003 552.5,-1009 546.5,-1015 540.5,-1015 540.5,-1015 456.5,-1015 456.5,-1015 450.5,-1015 444.5,-1009 444.5,-1003 444.5,-1003 444.5,-963 444.5,-963 444.5,-957 450.5,-951 456.5,-951"/>
<text text-anchor="start" x="554.5" y="-979.3" font-family="Arial" font-size="14.00"> &#160;&#160;&#160;</text>
<text text-anchor="start" x="441" y="-936.8" font-family="Arial" font-weight="bold" font-size="14.00">prev_168h_inflow</text>
</g>
<!-- 1&#45;&gt;2 -->
<g id="edge1" class="edge">
<title>1&#45;&gt;2</title>
<path fill="none" stroke="#888888" d="M550.88,-1077.67C546,-1068.94 540.93,-1059.88 535.96,-1050.99"/>
<polygon fill="#888888" stroke="#888888" points="538.97,-1049.2 531.03,-1042.18 532.86,-1052.61 538.97,-1049.2"/>
</g>
<!-- 9 -->
<g id="node3" class="node">
<title>9</title>
<text text-anchor="start" x="702" y="-1023.8" font-family="Arial" font-weight="bold" font-size="14.00"> ≥ 20.63</text>
<path fill="#ebebeb" stroke="transparent" d="M684.5,-951C684.5,-951 768.5,-951 768.5,-951 774.5,-951 780.5,-957 780.5,-963 780.5,-963 780.5,-1003 780.5,-1003 780.5,-1009 774.5,-1015 768.5,-1015 768.5,-1015 684.5,-1015 684.5,-1015 678.5,-1015 672.5,-1009 672.5,-1003 672.5,-1003 672.5,-963 672.5,-963 672.5,-957 678.5,-951 684.5,-951"/>
<text text-anchor="start" x="673.5" y="-1012.4" font-family="Arial" font-size="2.00"> </text>
<text text-anchor="start" x="673.5" y="-1006.4" font-family="Arial" font-size="7.00"> &#160;9</text>
<text text-anchor="start" x="687.5" y="-989.8" font-family="Arial" font-weight="bold" font-size="14.00">Mean: 27.26</text>
<text text-anchor="start" x="703" y="-972.8" font-family="Arial" font-weight="bold" font-size="14.00">n = 108</text>
<text text-anchor="start" x="725" y="-954.8" font-family="Arial" font-size="9.00"> </text>
<path fill="none" stroke="#333333" d="M684.5,-951C684.5,-951 768.5,-951 768.5,-951 774.5,-951 780.5,-957 780.5,-963 780.5,-963 780.5,-1003 780.5,-1003 780.5,-1009 774.5,-1015 768.5,-1015 768.5,-1015 684.5,-1015 684.5,-1015 678.5,-1015 672.5,-1009 672.5,-1003 672.5,-1003 672.5,-963 672.5,-963 672.5,-957 678.5,-951 684.5,-951"/>
<text text-anchor="start" x="712" y="-936.8" font-family="Arial" font-weight="bold" font-size="14.00">time</text>
</g>
<!-- 1&#45;&gt;9 -->
<g id="edge2" class="edge">
<title>1&#45;&gt;9</title>
<path fill="none" stroke="#888888" d="M638.38,-1077.67C647.02,-1068.49 656,-1058.94 664.78,-1049.6"/>
<polygon fill="#888888" stroke="#888888" points="667.47,-1051.86 671.77,-1042.18 662.37,-1047.06 667.47,-1051.86"/>
</g>
<!-- 3 -->
<g id="node4" class="node">
<title>3</title>
<text text-anchor="start" x="199.5" y="-869.8" font-family="Arial" font-weight="bold" font-size="14.00"> &lt; 14.75</text>
<text text-anchor="start" x="152.5" y="-825.3" font-family="Arial" font-size="14.00"> &#160;&#160;&#160;</text>
<path fill="#ebebeb" stroke="transparent" d="M182.5,-797C182.5,-797 266.5,-797 266.5,-797 272.5,-797 278.5,-803 278.5,-809 278.5,-809 278.5,-849 278.5,-849 278.5,-855 272.5,-861 266.5,-861 266.5,-861 182.5,-861 182.5,-861 176.5,-861 170.5,-855 170.5,-849 170.5,-849 170.5,-809 170.5,-809 170.5,-803 176.5,-797 182.5,-797"/>
<text text-anchor="start" x="171.5" y="-858.4" font-family="Arial" font-size="2.00"> </text>
<text text-anchor="start" x="171.5" y="-852.4" font-family="Arial" font-size="7.00"> &#160;3</text>
<text text-anchor="start" x="185.5" y="-835.8" font-family="Arial" font-weight="bold" font-size="14.00">Mean: 12.65</text>
<text text-anchor="start" x="204.5" y="-818.8" font-family="Arial" font-weight="bold" font-size="14.00">n = 37</text>
<text text-anchor="start" x="223" y="-800.8" font-family="Arial" font-size="9.00"> </text>
<path fill="none" stroke="#333333" d="M182.5,-797C182.5,-797 266.5,-797 266.5,-797 272.5,-797 278.5,-803 278.5,-809 278.5,-809 278.5,-849 278.5,-849 278.5,-855 272.5,-861 266.5,-861 266.5,-861 182.5,-861 182.5,-861 176.5,-861 170.5,-855 170.5,-849 170.5,-849 170.5,-809 170.5,-809 170.5,-803 176.5,-797 182.5,-797"/>
<text text-anchor="start" x="280.5" y="-825.3" font-family="Arial" font-size="14.00"> &#160;&#160;&#160;</text>
<text text-anchor="start" x="167" y="-782.8" font-family="Arial" font-weight="bold" font-size="14.00">prev_168h_inflow</text>
</g>
<!-- 2&#45;&gt;3 -->
<g id="edge3" class="edge">
<title>2&#45;&gt;3</title>
<path fill="none" stroke="#888888" d="M416.29,-936.39C384.59,-918.81 348.21,-898.63 315.71,-880.6"/>
<polygon fill="#888888" stroke="#888888" points="317.09,-877.36 306.65,-875.57 313.7,-883.48 317.09,-877.36"/>
</g>
<!-- 6 -->
<g id="node5" class="node">
<title>6</title>
<text text-anchor="start" x="474" y="-869.8" font-family="Arial" font-weight="bold" font-size="14.00"> ≥ 14.75</text>
<text text-anchor="start" x="430.5" y="-825.3" font-family="Arial" font-size="14.00"> &#160;&#160;</text>
<path fill="#ebebeb" stroke="transparent" d="M456.5,-797C456.5,-797 540.5,-797 540.5,-797 546.5,-797 552.5,-803 552.5,-809 552.5,-809 552.5,-849 552.5,-849 552.5,-855 546.5,-861 540.5,-861 540.5,-861 456.5,-861 456.5,-861 450.5,-861 444.5,-855 444.5,-849 444.5,-849 444.5,-809 444.5,-809 444.5,-803 450.5,-797 456.5,-797"/>
<text text-anchor="start" x="445.5" y="-858.4" font-family="Arial" font-size="2.00"> </text>
<text text-anchor="start" x="445.5" y="-852.4" font-family="Arial" font-size="7.00"> &#160;6</text>
<text text-anchor="start" x="459.5" y="-835.8" font-family="Arial" font-weight="bold" font-size="14.00">Mean: 17.83</text>
<text text-anchor="start" x="478.5" y="-818.8" font-family="Arial" font-weight="bold" font-size="14.00">n = 23</text>
<text text-anchor="start" x="497" y="-800.8" font-family="Arial" font-size="9.00"> </text>
<path fill="none" stroke="#333333" d="M456.5,-797C456.5,-797 540.5,-797 540.5,-797 546.5,-797 552.5,-803 552.5,-809 552.5,-809 552.5,-849 552.5,-849 552.5,-855 546.5,-861 540.5,-861 540.5,-861 456.5,-861 456.5,-861 450.5,-861 444.5,-855 444.5,-849 444.5,-849 444.5,-809 444.5,-809 444.5,-803 450.5,-797 456.5,-797"/>
<text text-anchor="start" x="554.5" y="-825.3" font-family="Arial" font-size="14.00"> &#160;&#160;</text>
<text text-anchor="start" x="445" y="-782.8" font-family="Arial" font-weight="bold" font-size="14.00">prev_24h_inflow</text>
</g>
<!-- 2&#45;&gt;6 -->
<g id="edge4" class="edge">
<title>2&#45;&gt;6</title>
<path fill="none" stroke="#888888" d="M498.5,-923.67C498.5,-915.39 498.5,-906.83 498.5,-898.38"/>
<polygon fill="#888888" stroke="#888888" points="502,-898.18 498.5,-888.18 495,-898.18 502,-898.18"/>
</g>
<!-- 10 -->
<g id="node10" class="node">
<title>10</title>
<text text-anchor="start" x="705" y="-869.8" font-family="Arial" font-weight="bold" font-size="14.00"> &lt; 10.5</text>
<text text-anchor="start" x="662.5" y="-825.3" font-family="Arial" font-size="14.00"> &#160;</text>
<path fill="#ebebeb" stroke="transparent" d="M684.5,-797C684.5,-797 768.5,-797 768.5,-797 774.5,-797 780.5,-803 780.5,-809 780.5,-809 780.5,-849 780.5,-849 780.5,-855 774.5,-861 768.5,-861 768.5,-861 684.5,-861 684.5,-861 678.5,-861 672.5,-855 672.5,-849 672.5,-849 672.5,-809 672.5,-809 672.5,-803 678.5,-797 684.5,-797"/>
<text text-anchor="start" x="673.5" y="-858.4" font-family="Arial" font-size="2.00"> </text>
<text text-anchor="start" x="673.5" y="-852.4" font-family="Arial" font-size="7.00"> &#160;10</text>
<text text-anchor="start" x="687.5" y="-835.8" font-family="Arial" font-weight="bold" font-size="14.00">Mean: 30.64</text>
<text text-anchor="start" x="706.5" y="-818.8" font-family="Arial" font-weight="bold" font-size="14.00">n = 26</text>
<text text-anchor="start" x="725" y="-800.8" font-family="Arial" font-size="9.00"> </text>
<path fill="none" stroke="#333333" d="M684.5,-797C684.5,-797 768.5,-797 768.5,-797 774.5,-797 780.5,-803 780.5,-809 780.5,-809 780.5,-849 780.5,-849 780.5,-855 774.5,-861 768.5,-861 768.5,-861 684.5,-861 684.5,-861 678.5,-861 672.5,-855 672.5,-849 672.5,-849 672.5,-809 672.5,-809 672.5,-803 678.5,-797 684.5,-797"/>
<text text-anchor="start" x="782.5" y="-825.3" font-family="Arial" font-size="14.00"> &#160;</text>
<text text-anchor="start" x="676.5" y="-782.8" font-family="Arial" font-weight="bold" font-size="14.00">prev_1h_inflow</text>
</g>
<!-- 9&#45;&gt;10 -->
<g id="edge9" class="edge">
<title>9&#45;&gt;10</title>
<path fill="none" stroke="#888888" d="M726.5,-923.67C726.5,-915.39 726.5,-906.83 726.5,-898.38"/>
<polygon fill="#888888" stroke="#888888" points="730,-898.18 726.5,-888.18 723,-898.18 730,-898.18"/>
</g>
<!-- 17 -->
<g id="node11" class="node">
<title>17</title>
<text text-anchor="start" x="1203.5" y="-869.8" font-family="Arial" font-weight="bold" font-size="14.00"> ≥ 10.5</text>
<text text-anchor="start" x="1160.5" y="-825.3" font-family="Arial" font-size="14.00"> &#160;</text>
<path fill="#ebebeb" stroke="transparent" d="M1182.5,-797C1182.5,-797 1266.5,-797 1266.5,-797 1272.5,-797 1278.5,-803 1278.5,-809 1278.5,-809 1278.5,-849 1278.5,-849 1278.5,-855 1272.5,-861 1266.5,-861 1266.5,-861 1182.5,-861 1182.5,-861 1176.5,-861 1170.5,-855 1170.5,-849 1170.5,-849 1170.5,-809 1170.5,-809 1170.5,-803 1176.5,-797 1182.5,-797"/>
<text text-anchor="start" x="1171.5" y="-858.4" font-family="Arial" font-size="2.00"> </text>
<text text-anchor="start" x="1171.5" y="-852.4" font-family="Arial" font-size="7.00"> &#160;17</text>
<text text-anchor="start" x="1185.5" y="-835.8" font-family="Arial" font-weight="bold" font-size="14.00">Mean: 26.18</text>
<text text-anchor="start" x="1204.5" y="-818.8" font-family="Arial" font-weight="bold" font-size="14.00">n = 82</text>
<text text-anchor="start" x="1223" y="-800.8" font-family="Arial" font-size="9.00"> </text>
<path fill="none" stroke="#333333" d="M1182.5,-797C1182.5,-797 1266.5,-797 1266.5,-797 1272.5,-797 1278.5,-803 1278.5,-809 1278.5,-809 1278.5,-849 1278.5,-849 1278.5,-855 1272.5,-861 1266.5,-861 1266.5,-861 1182.5,-861 1182.5,-861 1176.5,-861 1170.5,-855 1170.5,-849 1170.5,-849 1170.5,-809 1170.5,-809 1170.5,-803 1176.5,-797 1182.5,-797"/>
<text text-anchor="start" x="1280.5" y="-825.3" font-family="Arial" font-size="14.00"> &#160;</text>
<text text-anchor="start" x="1174.5" y="-782.8" font-family="Arial" font-weight="bold" font-size="14.00">prev_1h_inflow</text>
</g>
<!-- 9&#45;&gt;17 -->
<g id="edge10" class="edge">
<title>9&#45;&gt;17</title>
<path fill="none" stroke="#888888" d="M792.63,-961.82C882.38,-934.42 1042.76,-885.47 1140.8,-855.55"/>
<polygon fill="#888888" stroke="#888888" points="1141.84,-858.89 1150.38,-852.62 1139.79,-852.19 1141.84,-858.89"/>
</g>
<!-- 4 -->
<g id="node6" class="node">
<title>4</title>
<text text-anchor="start" x="44" y="-715.8" font-family="Arial" font-weight="bold" font-size="14.00"> &lt; 12.23</text>
<path fill="#f8766d" fill-opacity="0.874510" stroke="transparent" d="M24.5,-643C24.5,-643 113.5,-643 113.5,-643 119.5,-643 125.5,-649 125.5,-655 125.5,-655 125.5,-695 125.5,-695 125.5,-701 119.5,-707 113.5,-707 113.5,-707 24.5,-707 24.5,-707 18.5,-707 12.5,-701 12.5,-695 12.5,-695 12.5,-655 12.5,-655 12.5,-649 18.5,-643 24.5,-643"/>
<text text-anchor="start" x="13.5" y="-704.4" font-family="Arial" font-size="2.00"> </text>
<text text-anchor="start" x="13.5" y="-698.4" font-family="Arial" font-size="7.00"> &#160;4</text>
<text text-anchor="start" x="27.5" y="-681.8" font-family="Arial" font-weight="bold" font-size="14.00">Predict 11.81</text>
<text text-anchor="start" x="49" y="-664.8" font-family="Arial" font-weight="bold" font-size="14.00">n = 17</text>
<text text-anchor="start" x="67.5" y="-646.8" font-family="Arial" font-size="9.00"> </text>
<path fill="none" stroke="#333333" d="M24.5,-643C24.5,-643 113.5,-643 113.5,-643 119.5,-643 125.5,-649 125.5,-655 125.5,-655 125.5,-695 125.5,-695 125.5,-701 119.5,-707 113.5,-707 113.5,-707 24.5,-707 24.5,-707 18.5,-707 12.5,-701 12.5,-695 12.5,-695 12.5,-655 12.5,-655 12.5,-649 18.5,-643 24.5,-643"/>
<text text-anchor="start" x="67" y="-628.8" font-family="Arial" font-weight="bold" font-size="14.00"> </text>
</g>
<!-- 3&#45;&gt;4 -->
<g id="edge5" class="edge">
<title>3&#45;&gt;4</title>
<path fill="none" stroke="#888888" d="M164.63,-769.67C155.12,-760.39 145.22,-750.75 135.55,-741.33"/>
<polygon fill="#888888" stroke="#888888" points="137.81,-738.65 128.21,-734.18 132.93,-743.66 137.81,-738.65"/>
</g>
<!-- 5 -->
<g id="node7" class="node">
<title>5</title>
<text text-anchor="start" x="200" y="-715.8" font-family="Arial" font-weight="bold" font-size="14.00"> ≥ 12.23</text>
<path fill="#f8766d" fill-opacity="0.835294" stroke="transparent" d="M179.5,-643C179.5,-643 269.5,-643 269.5,-643 275.5,-643 281.5,-649 281.5,-655 281.5,-655 281.5,-695 281.5,-695 281.5,-701 275.5,-707 269.5,-707 269.5,-707 179.5,-707 179.5,-707 173.5,-707 167.5,-701 167.5,-695 167.5,-695 167.5,-655 167.5,-655 167.5,-649 173.5,-643 179.5,-643"/>
<text text-anchor="start" x="168.5" y="-704.4" font-family="Arial" font-size="2.00"> </text>
<text text-anchor="start" x="168.5" y="-698.4" font-family="Arial" font-size="7.00"> &#160;5</text>
<text text-anchor="start" x="182.5" y="-681.8" font-family="Arial" font-weight="bold" font-size="14.00">Predict 13.36</text>
<text text-anchor="start" x="204.5" y="-664.8" font-family="Arial" font-weight="bold" font-size="14.00">n = 20</text>
<text text-anchor="start" x="223" y="-646.8" font-family="Arial" font-size="9.00"> </text>
<path fill="none" stroke="#333333" d="M179.5,-643C179.5,-643 269.5,-643 269.5,-643 275.5,-643 281.5,-649 281.5,-655 281.5,-655 281.5,-695 281.5,-695 281.5,-701 275.5,-707 269.5,-707 269.5,-707 179.5,-707 179.5,-707 173.5,-707 167.5,-701 167.5,-695 167.5,-695 167.5,-655 167.5,-655 167.5,-649 173.5,-643 179.5,-643"/>
<text text-anchor="start" x="222.5" y="-628.8" font-family="Arial" font-weight="bold" font-size="14.00"> </text>
</g>
<!-- 3&#45;&gt;5 -->
<g id="edge6" class="edge">
<title>3&#45;&gt;5</title>
<path fill="none" stroke="#888888" d="M224.5,-769.67C224.5,-761.39 224.5,-752.83 224.5,-744.38"/>
<polygon fill="#888888" stroke="#888888" points="228,-744.18 224.5,-734.18 221,-744.18 228,-744.18"/>
</g>
<!-- 7 -->
<g id="node8" class="node">
<title>7</title>
<text text-anchor="start" x="355.5" y="-715.8" font-family="Arial" font-weight="bold" font-size="14.00"> &lt; 18.69</text>
<path fill="#f8766d" fill-opacity="0.752941" stroke="transparent" d="M335.5,-643C335.5,-643 425.5,-643 425.5,-643 431.5,-643 437.5,-649 437.5,-655 437.5,-655 437.5,-695 437.5,-695 437.5,-701 431.5,-707 425.5,-707 425.5,-707 335.5,-707 335.5,-707 329.5,-707 323.5,-701 323.5,-695 323.5,-695 323.5,-655 323.5,-655 323.5,-649 329.5,-643 335.5,-643"/>
<text text-anchor="start" x="324.5" y="-704.4" font-family="Arial" font-size="2.00"> </text>
<text text-anchor="start" x="324.5" y="-698.4" font-family="Arial" font-size="7.00"> &#160;7</text>
<text text-anchor="start" x="338.5" y="-681.8" font-family="Arial" font-weight="bold" font-size="14.00">Predict 16.73</text>
<text text-anchor="start" x="360.5" y="-664.8" font-family="Arial" font-weight="bold" font-size="14.00">n = 14</text>
<text text-anchor="start" x="379" y="-646.8" font-family="Arial" font-size="9.00"> </text>
<path fill="none" stroke="#333333" d="M335.5,-643C335.5,-643 425.5,-643 425.5,-643 431.5,-643 437.5,-649 437.5,-655 437.5,-655 437.5,-695 437.5,-695 437.5,-701 431.5,-707 425.5,-707 425.5,-707 335.5,-707 335.5,-707 329.5,-707 323.5,-701 323.5,-695 323.5,-695 323.5,-655 323.5,-655 323.5,-649 329.5,-643 335.5,-643"/>
<text text-anchor="start" x="378.5" y="-628.8" font-family="Arial" font-weight="bold" font-size="14.00"> </text>
</g>
<!-- 6&#45;&gt;7 -->
<g id="edge7" class="edge">
<title>6&#45;&gt;7</title>
<path fill="none" stroke="#888888" d="M453.22,-769.67C446.23,-760.67 438.97,-751.32 431.86,-742.16"/>
<polygon fill="#888888" stroke="#888888" points="434.56,-739.93 425.66,-734.18 429.03,-744.22 434.56,-739.93"/>
</g>
<!-- 8 -->
<g id="node9" class="node">
<title>8</title>
<text text-anchor="start" x="512" y="-715.8" font-family="Arial" font-weight="bold" font-size="14.00"> ≥ 18.69</text>
<path fill="#f8766d" fill-opacity="0.682353" stroke="transparent" d="M491.5,-643C491.5,-643 581.5,-643 581.5,-643 587.5,-643 593.5,-649 593.5,-655 593.5,-655 593.5,-695 593.5,-695 593.5,-701 587.5,-707 581.5,-707 581.5,-707 491.5,-707 491.5,-707 485.5,-707 479.5,-701 479.5,-695 479.5,-695 479.5,-655 479.5,-655 479.5,-649 485.5,-643 491.5,-643"/>
<text text-anchor="start" x="480.5" y="-704.4" font-family="Arial" font-size="2.00"> </text>
<text text-anchor="start" x="480.5" y="-698.4" font-family="Arial" font-size="7.00"> &#160;8</text>
<text text-anchor="start" x="494.5" y="-681.8" font-family="Arial" font-weight="bold" font-size="14.00">Predict 19.54</text>
<text text-anchor="start" x="520.5" y="-664.8" font-family="Arial" font-weight="bold" font-size="14.00">n = 9</text>
<text text-anchor="start" x="535" y="-646.8" font-family="Arial" font-size="9.00"> </text>
<path fill="none" stroke="#333333" d="M491.5,-643C491.5,-643 581.5,-643 581.5,-643 587.5,-643 593.5,-649 593.5,-655 593.5,-655 593.5,-695 593.5,-695 593.5,-701 587.5,-707 581.5,-707 581.5,-707 491.5,-707 491.5,-707 485.5,-707 479.5,-701 479.5,-695 479.5,-695 479.5,-655 479.5,-655 479.5,-649 485.5,-643 491.5,-643"/>
<text text-anchor="start" x="534.5" y="-628.8" font-family="Arial" font-weight="bold" font-size="14.00"> </text>
</g>
<!-- 6&#45;&gt;8 -->
<g id="edge8" class="edge">
<title>6&#45;&gt;8</title>
<path fill="none" stroke="#888888" d="M513.08,-769.67C515.17,-761.3 517.34,-752.64 519.47,-744.1"/>
<polygon fill="#888888" stroke="#888888" points="522.93,-744.73 521.96,-734.18 516.13,-743.03 522.93,-744.73"/>
</g>
<!-- 11 -->
<g id="node12" class="node">
<title>11</title>
<text text-anchor="start" x="664.5" y="-715.8" font-family="Arial" font-weight="bold" font-size="14.00"> &lt; 21.73</text>
<path fill="#ebebeb" stroke="transparent" d="M647.5,-643C647.5,-643 731.5,-643 731.5,-643 737.5,-643 743.5,-649 743.5,-655 743.5,-655 743.5,-695 743.5,-695 743.5,-701 737.5,-707 731.5,-707 731.5,-707 647.5,-707 647.5,-707 641.5,-707 635.5,-701 635.5,-695 635.5,-695 635.5,-655 635.5,-655 635.5,-649 641.5,-643 647.5,-643"/>
<text text-anchor="start" x="636.5" y="-704.4" font-family="Arial" font-size="2.00"> </text>
<text text-anchor="start" x="636.5" y="-698.4" font-family="Arial" font-size="7.00"> &#160;11</text>
<text text-anchor="start" x="650.5" y="-681.8" font-family="Arial" font-weight="bold" font-size="14.00">Mean: 27.54</text>
<text text-anchor="start" x="673.5" y="-664.8" font-family="Arial" font-weight="bold" font-size="14.00">n = 7</text>
<text text-anchor="start" x="688" y="-646.8" font-family="Arial" font-size="9.00"> </text>
<path fill="none" stroke="#333333" d="M647.5,-643C647.5,-643 731.5,-643 731.5,-643 737.5,-643 743.5,-649 743.5,-655 743.5,-655 743.5,-695 743.5,-695 743.5,-701 737.5,-707 731.5,-707 731.5,-707 647.5,-707 647.5,-707 641.5,-707 635.5,-701 635.5,-695 635.5,-695 635.5,-655 635.5,-655 635.5,-649 641.5,-643 647.5,-643"/>
<text text-anchor="start" x="656.5" y="-628.8" font-family="Arial" font-weight="bold" font-size="14.00">air_humid</text>
</g>
<!-- 10&#45;&gt;11 -->
<g id="edge11" class="edge">
<title>10&#45;&gt;11</title>
<path fill="none" stroke="#888888" d="M712.3,-769.67C710.26,-761.3 708.16,-752.64 706.08,-744.1"/>
<polygon fill="#888888" stroke="#888888" points="709.43,-743.06 703.66,-734.18 702.63,-744.72 709.43,-743.06"/>
</g>
<!-- 14 -->
<g id="node13" class="node">
<title>14</title>
<text text-anchor="start" x="818" y="-715.8" font-family="Arial" font-weight="bold" font-size="14.00"> ≥ 21.73</text>
<path fill="#ebebeb" stroke="transparent" d="M800.5,-643C800.5,-643 884.5,-643 884.5,-643 890.5,-643 896.5,-649 896.5,-655 896.5,-655 896.5,-695 896.5,-695 896.5,-701 890.5,-707 884.5,-707 884.5,-707 800.5,-707 800.5,-707 794.5,-707 788.5,-701 788.5,-695 788.5,-695 788.5,-655 788.5,-655 788.5,-649 794.5,-643 800.5,-643"/>
<text text-anchor="start" x="789.5" y="-704.4" font-family="Arial" font-size="2.00"> </text>
<text text-anchor="start" x="789.5" y="-698.4" font-family="Arial" font-size="7.00"> &#160;14</text>
<text text-anchor="start" x="803.5" y="-681.8" font-family="Arial" font-weight="bold" font-size="14.00">Mean: 31.78</text>
<text text-anchor="start" x="822.5" y="-664.8" font-family="Arial" font-weight="bold" font-size="14.00">n = 19</text>
<text text-anchor="start" x="841" y="-646.8" font-family="Arial" font-size="9.00"> </text>
<path fill="none" stroke="#333333" d="M800.5,-643C800.5,-643 884.5,-643 884.5,-643 890.5,-643 896.5,-649 896.5,-655 896.5,-655 896.5,-695 896.5,-695 896.5,-701 890.5,-707 884.5,-707 884.5,-707 800.5,-707 800.5,-707 794.5,-707 788.5,-701 788.5,-695 788.5,-695 788.5,-655 788.5,-655 788.5,-649 794.5,-643 800.5,-643"/>
<text text-anchor="start" x="807" y="-628.8" font-family="Arial" font-weight="bold" font-size="14.00">windspeed</text>
</g>
<!-- 10&#45;&gt;14 -->
<g id="edge12" class="edge">
<title>10&#45;&gt;14</title>
<path fill="none" stroke="#888888" d="M771.02,-769.67C777.89,-760.67 785.02,-751.32 792.01,-742.16"/>
<polygon fill="#888888" stroke="#888888" points="794.82,-744.25 798.1,-734.18 789.25,-740 794.82,-744.25"/>
</g>
<!-- 18 -->
<g id="node18" class="node">
<title>18</title>
<text text-anchor="start" x="1199.5" y="-715.8" font-family="Arial" font-weight="bold" font-size="14.00"> &lt; 23.78</text>
<text text-anchor="start" x="1156.5" y="-671.3" font-family="Arial" font-size="14.00"> &#160;&#160;</text>
<path fill="#ebebeb" stroke="transparent" d="M1182.5,-643C1182.5,-643 1266.5,-643 1266.5,-643 1272.5,-643 1278.5,-649 1278.5,-655 1278.5,-655 1278.5,-695 1278.5,-695 1278.5,-701 1272.5,-707 1266.5,-707 1266.5,-707 1182.5,-707 1182.5,-707 1176.5,-707 1170.5,-701 1170.5,-695 1170.5,-695 1170.5,-655 1170.5,-655 1170.5,-649 1176.5,-643 1182.5,-643"/>
<text text-anchor="start" x="1171.5" y="-704.4" font-family="Arial" font-size="2.00"> </text>
<text text-anchor="start" x="1171.5" y="-698.4" font-family="Arial" font-size="7.00"> &#160;18</text>
<text text-anchor="start" x="1185.5" y="-681.8" font-family="Arial" font-weight="bold" font-size="14.00">Mean: 21.84</text>
<text text-anchor="start" x="1204.5" y="-664.8" font-family="Arial" font-weight="bold" font-size="14.00">n = 12</text>
<text text-anchor="start" x="1223" y="-646.8" font-family="Arial" font-size="9.00"> </text>
<path fill="none" stroke="#333333" d="M1182.5,-643C1182.5,-643 1266.5,-643 1266.5,-643 1272.5,-643 1278.5,-649 1278.5,-655 1278.5,-655 1278.5,-695 1278.5,-695 1278.5,-701 1272.5,-707 1266.5,-707 1266.5,-707 1182.5,-707 1182.5,-707 1176.5,-707 1170.5,-701 1170.5,-695 1170.5,-695 1170.5,-655 1170.5,-655 1170.5,-649 1176.5,-643 1182.5,-643"/>
<text text-anchor="start" x="1280.5" y="-671.3" font-family="Arial" font-size="14.00"> &#160;&#160;</text>
<text text-anchor="start" x="1171" y="-628.8" font-family="Arial" font-weight="bold" font-size="14.00">prev_24h_inflow</text>
</g>
<!-- 17&#45;&gt;18 -->
<g id="edge17" class="edge">
<title>17&#45;&gt;18</title>
<path fill="none" stroke="#888888" d="M1224.5,-769.67C1224.5,-761.39 1224.5,-752.83 1224.5,-744.38"/>
<polygon fill="#888888" stroke="#888888" points="1228,-744.18 1224.5,-734.18 1221,-744.18 1228,-744.18"/>
</g>
<!-- 23 -->
<g id="node19" class="node">
<title>23</title>
<text text-anchor="start" x="1516" y="-715.8" font-family="Arial" font-weight="bold" font-size="14.00"> ≥ 23.78</text>
<text text-anchor="start" x="1468.5" y="-671.3" font-family="Arial" font-size="14.00"> &#160;&#160;&#160;</text>
<path fill="#ebebeb" stroke="transparent" d="M1498.5,-643C1498.5,-643 1582.5,-643 1582.5,-643 1588.5,-643 1594.5,-649 1594.5,-655 1594.5,-655 1594.5,-695 1594.5,-695 1594.5,-701 1588.5,-707 1582.5,-707 1582.5,-707 1498.5,-707 1498.5,-707 1492.5,-707 1486.5,-701 1486.5,-695 1486.5,-695 1486.5,-655 1486.5,-655 1486.5,-649 1492.5,-643 1498.5,-643"/>
<text text-anchor="start" x="1487.5" y="-704.4" font-family="Arial" font-size="2.00"> </text>
<text text-anchor="start" x="1487.5" y="-698.4" font-family="Arial" font-size="7.00"> &#160;23</text>
<text text-anchor="start" x="1501.5" y="-681.8" font-family="Arial" font-weight="bold" font-size="14.00">Mean: 26.93</text>
<text text-anchor="start" x="1520.5" y="-664.8" font-family="Arial" font-weight="bold" font-size="14.00">n = 70</text>
<text text-anchor="start" x="1539" y="-646.8" font-family="Arial" font-size="9.00"> </text>
<path fill="none" stroke="#333333" d="M1498.5,-643C1498.5,-643 1582.5,-643 1582.5,-643 1588.5,-643 1594.5,-649 1594.5,-655 1594.5,-655 1594.5,-695 1594.5,-695 1594.5,-701 1588.5,-707 1582.5,-707 1582.5,-707 1498.5,-707 1498.5,-707 1492.5,-707 1486.5,-701 1486.5,-695 1486.5,-695 1486.5,-655 1486.5,-655 1486.5,-649 1492.5,-643 1498.5,-643"/>
<text text-anchor="start" x="1596.5" y="-671.3" font-family="Arial" font-size="14.00"> &#160;&#160;&#160;</text>
<text text-anchor="start" x="1483" y="-628.8" font-family="Arial" font-weight="bold" font-size="14.00">prev_168h_inflow</text>
</g>
<!-- 17&#45;&gt;23 -->
<g id="edge18" class="edge">
<title>17&#45;&gt;23</title>
<path fill="none" stroke="#888888" d="M1298.59,-792.36C1343.57,-770.72 1401.35,-742.93 1449.15,-719.94"/>
<polygon fill="#888888" stroke="#888888" points="1450.77,-723.05 1458.26,-715.56 1447.73,-716.74 1450.77,-723.05"/>
</g>
<!-- 12 -->
<g id="node14" class="node">
<title>12</title>
<text text-anchor="start" x="509" y="-561.8" font-family="Arial" font-weight="bold" font-size="14.00"> &lt; 83.5</text>
<path fill="#f8766d" fill-opacity="0.513725" stroke="transparent" d="M485.5,-489C485.5,-489 575.5,-489 575.5,-489 581.5,-489 587.5,-495 587.5,-501 587.5,-501 587.5,-541 587.5,-541 587.5,-547 581.5,-553 575.5,-553 575.5,-553 485.5,-553 485.5,-553 479.5,-553 473.5,-547 473.5,-541 473.5,-541 473.5,-501 473.5,-501 473.5,-495 479.5,-489 485.5,-489"/>
<text text-anchor="start" x="474.5" y="-550.4" font-family="Arial" font-size="2.00"> </text>
<text text-anchor="start" x="474.5" y="-544.4" font-family="Arial" font-size="7.00"> &#160;12</text>
<text text-anchor="start" x="488.5" y="-527.8" font-family="Arial" font-weight="bold" font-size="14.00">Predict 26.38</text>
<text text-anchor="start" x="514.5" y="-510.8" font-family="Arial" font-weight="bold" font-size="14.00">n = 4</text>
<text text-anchor="start" x="529" y="-492.8" font-family="Arial" font-size="9.00"> </text>
<path fill="none" stroke="#333333" d="M485.5,-489C485.5,-489 575.5,-489 575.5,-489 581.5,-489 587.5,-495 587.5,-501 587.5,-501 587.5,-541 587.5,-541 587.5,-547 581.5,-553 575.5,-553 575.5,-553 485.5,-553 485.5,-553 479.5,-553 473.5,-547 473.5,-541 473.5,-541 473.5,-501 473.5,-501 473.5,-495 479.5,-489 485.5,-489"/>
<text text-anchor="start" x="528.5" y="-474.8" font-family="Arial" font-weight="bold" font-size="14.00"> </text>
</g>
<!-- 11&#45;&gt;12 -->
<g id="edge13" class="edge">
<title>11&#45;&gt;12</title>
<path fill="none" stroke="#888888" d="M628.48,-615.67C618.78,-606.39 608.69,-596.75 598.84,-587.33"/>
<polygon fill="#888888" stroke="#888888" points="601,-584.56 591.36,-580.18 596.17,-589.62 601,-584.56"/>
</g>
<!-- 13 -->
<g id="node15" class="node">
<title>13</title>
<text text-anchor="start" x="665.5" y="-561.8" font-family="Arial" font-weight="bold" font-size="14.00"> ≥ 83.5</text>
<path fill="#f8766d" fill-opacity="0.447059" stroke="transparent" d="M641.5,-489C641.5,-489 731.5,-489 731.5,-489 737.5,-489 743.5,-495 743.5,-501 743.5,-501 743.5,-541 743.5,-541 743.5,-547 737.5,-553 731.5,-553 731.5,-553 641.5,-553 641.5,-553 635.5,-553 629.5,-547 629.5,-541 629.5,-541 629.5,-501 629.5,-501 629.5,-495 635.5,-489 641.5,-489"/>
<text text-anchor="start" x="630.5" y="-550.4" font-family="Arial" font-size="2.00"> </text>
<text text-anchor="start" x="630.5" y="-544.4" font-family="Arial" font-size="7.00"> &#160;13</text>
<text text-anchor="start" x="644.5" y="-527.8" font-family="Arial" font-weight="bold" font-size="14.00">Predict 29.08</text>
<text text-anchor="start" x="670.5" y="-510.8" font-family="Arial" font-weight="bold" font-size="14.00">n = 3</text>
<text text-anchor="start" x="685" y="-492.8" font-family="Arial" font-size="9.00"> </text>
<path fill="none" stroke="#333333" d="M641.5,-489C641.5,-489 731.5,-489 731.5,-489 737.5,-489 743.5,-495 743.5,-501 743.5,-501 743.5,-541 743.5,-541 743.5,-547 737.5,-553 731.5,-553 731.5,-553 641.5,-553 641.5,-553 635.5,-553 629.5,-547 629.5,-541 629.5,-541 629.5,-501 629.5,-501 629.5,-495 635.5,-489 641.5,-489"/>
<text text-anchor="start" x="684.5" y="-474.8" font-family="Arial" font-weight="bold" font-size="14.00"> </text>
</g>
<!-- 11&#45;&gt;13 -->
<g id="edge14" class="edge">
<title>11&#45;&gt;13</title>
<path fill="none" stroke="#888888" d="M688.35,-615.67C688.19,-607.39 688.02,-598.83 687.85,-590.38"/>
<polygon fill="#888888" stroke="#888888" points="691.34,-590.11 687.65,-580.18 684.35,-590.24 691.34,-590.11"/>
</g>
<!-- 15 -->
<g id="node16" class="node">
<title>15</title>
<text text-anchor="start" x="825" y="-561.8" font-family="Arial" font-weight="bold" font-size="14.00"> &lt; 1.5</text>
<path fill="#f8766d" fill-opacity="0.454902" stroke="transparent" d="M797.5,-489C797.5,-489 887.5,-489 887.5,-489 893.5,-489 899.5,-495 899.5,-501 899.5,-501 899.5,-541 899.5,-541 899.5,-547 893.5,-553 887.5,-553 887.5,-553 797.5,-553 797.5,-553 791.5,-553 785.5,-547 785.5,-541 785.5,-541 785.5,-501 785.5,-501 785.5,-495 791.5,-489 797.5,-489"/>
<text text-anchor="start" x="786.5" y="-550.4" font-family="Arial" font-size="2.00"> </text>
<text text-anchor="start" x="786.5" y="-544.4" font-family="Arial" font-size="7.00"> &#160;15</text>
<text text-anchor="start" x="800.5" y="-527.8" font-family="Arial" font-weight="bold" font-size="14.00">Predict 28.73</text>
<text text-anchor="start" x="826.5" y="-510.8" font-family="Arial" font-weight="bold" font-size="14.00">n = 1</text>
<text text-anchor="start" x="841" y="-492.8" font-family="Arial" font-size="9.00"> </text>
<path fill="none" stroke="#333333" d="M797.5,-489C797.5,-489 887.5,-489 887.5,-489 893.5,-489 899.5,-495 899.5,-501 899.5,-501 899.5,-541 899.5,-541 899.5,-547 893.5,-553 887.5,-553 887.5,-553 797.5,-553 797.5,-553 791.5,-553 785.5,-547 785.5,-541 785.5,-541 785.5,-501 785.5,-501 785.5,-495 791.5,-489 797.5,-489"/>
<text text-anchor="start" x="840.5" y="-474.8" font-family="Arial" font-weight="bold" font-size="14.00"> </text>
</g>
<!-- 14&#45;&gt;15 -->
<g id="edge15" class="edge">
<title>14&#45;&gt;15</title>
<path fill="none" stroke="#888888" d="M842.5,-615.67C842.5,-607.39 842.5,-598.83 842.5,-590.38"/>
<polygon fill="#888888" stroke="#888888" points="846,-590.18 842.5,-580.18 839,-590.18 846,-590.18"/>
</g>
<!-- 16 -->
<g id="node17" class="node">
<title>16</title>
<text text-anchor="start" x="981.5" y="-561.8" font-family="Arial" font-weight="bold" font-size="14.00"> ≥ 1.5</text>
<path fill="#f8766d" fill-opacity="0.376471" stroke="transparent" d="M953.5,-489C953.5,-489 1043.5,-489 1043.5,-489 1049.5,-489 1055.5,-495 1055.5,-501 1055.5,-501 1055.5,-541 1055.5,-541 1055.5,-547 1049.5,-553 1043.5,-553 1043.5,-553 953.5,-553 953.5,-553 947.5,-553 941.5,-547 941.5,-541 941.5,-541 941.5,-501 941.5,-501 941.5,-495 947.5,-489 953.5,-489"/>
<text text-anchor="start" x="942.5" y="-550.4" font-family="Arial" font-size="2.00"> </text>
<text text-anchor="start" x="942.5" y="-544.4" font-family="Arial" font-size="7.00"> &#160;16</text>
<text text-anchor="start" x="956.5" y="-527.8" font-family="Arial" font-weight="bold" font-size="14.00">Predict 31.95</text>
<text text-anchor="start" x="978.5" y="-510.8" font-family="Arial" font-weight="bold" font-size="14.00">n = 18</text>
<text text-anchor="start" x="997" y="-492.8" font-family="Arial" font-size="9.00"> </text>
<path fill="none" stroke="#333333" d="M953.5,-489C953.5,-489 1043.5,-489 1043.5,-489 1049.5,-489 1055.5,-495 1055.5,-501 1055.5,-501 1055.5,-541 1055.5,-541 1055.5,-547 1049.5,-553 1043.5,-553 1043.5,-553 953.5,-553 953.5,-553 947.5,-553 941.5,-547 941.5,-541 941.5,-541 941.5,-501 941.5,-501 941.5,-495 947.5,-489 953.5,-489"/>
<text text-anchor="start" x="996.5" y="-474.8" font-family="Arial" font-weight="bold" font-size="14.00"> </text>
</g>
<!-- 14&#45;&gt;16 -->
<g id="edge16" class="edge">
<title>14&#45;&gt;16</title>
<path fill="none" stroke="#888888" d="M902.37,-615.67C911.88,-606.39 921.78,-596.75 931.45,-587.33"/>
<polygon fill="#888888" stroke="#888888" points="934.07,-589.66 938.79,-580.18 929.19,-584.65 934.07,-589.66"/>
</g>
<!-- 19 -->
<g id="node20" class="node">
<title>19</title>
<text text-anchor="start" x="1129.5" y="-561.8" font-family="Arial" font-weight="bold" font-size="14.00"> &lt; 22.43</text>
<path fill="#f8766d" fill-opacity="0.662745" stroke="transparent" d="M1109.5,-489C1109.5,-489 1199.5,-489 1199.5,-489 1205.5,-489 1211.5,-495 1211.5,-501 1211.5,-501 1211.5,-541 1211.5,-541 1211.5,-547 1205.5,-553 1199.5,-553 1199.5,-553 1109.5,-553 1109.5,-553 1103.5,-553 1097.5,-547 1097.5,-541 1097.5,-541 1097.5,-501 1097.5,-501 1097.5,-495 1103.5,-489 1109.5,-489"/>
<text text-anchor="start" x="1098.5" y="-550.4" font-family="Arial" font-size="2.00"> </text>
<text text-anchor="start" x="1098.5" y="-544.4" font-family="Arial" font-size="7.00"> &#160;19</text>
<text text-anchor="start" x="1112.5" y="-527.8" font-family="Arial" font-weight="bold" font-size="14.00">Predict 20.42</text>
<text text-anchor="start" x="1138.5" y="-510.8" font-family="Arial" font-weight="bold" font-size="14.00">n = 5</text>
<text text-anchor="start" x="1153" y="-492.8" font-family="Arial" font-size="9.00"> </text>
<path fill="none" stroke="#333333" d="M1109.5,-489C1109.5,-489 1199.5,-489 1199.5,-489 1205.5,-489 1211.5,-495 1211.5,-501 1211.5,-501 1211.5,-541 1211.5,-541 1211.5,-547 1205.5,-553 1199.5,-553 1199.5,-553 1109.5,-553 1109.5,-553 1103.5,-553 1097.5,-547 1097.5,-541 1097.5,-541 1097.5,-501 1097.5,-501 1097.5,-495 1103.5,-489 1109.5,-489"/>
<text text-anchor="start" x="1152.5" y="-474.8" font-family="Arial" font-weight="bold" font-size="14.00"> </text>
</g>
<!-- 18&#45;&gt;19 -->
<g id="edge19" class="edge">
<title>18&#45;&gt;19</title>
<path fill="none" stroke="#888888" d="M1197.64,-615.67C1193.66,-607.03 1189.53,-598.07 1185.48,-589.27"/>
<polygon fill="#888888" stroke="#888888" points="1188.65,-587.8 1181.29,-580.18 1182.3,-590.72 1188.65,-587.8"/>
</g>
<!-- 20 -->
<g id="node21" class="node">
<title>20</title>
<text text-anchor="start" x="1283" y="-561.8" font-family="Arial" font-weight="bold" font-size="14.00"> ≥ 22.43</text>
<path fill="#ebebeb" stroke="transparent" d="M1265.5,-489C1265.5,-489 1349.5,-489 1349.5,-489 1355.5,-489 1361.5,-495 1361.5,-501 1361.5,-501 1361.5,-541 1361.5,-541 1361.5,-547 1355.5,-553 1349.5,-553 1349.5,-553 1265.5,-553 1265.5,-553 1259.5,-553 1253.5,-547 1253.5,-541 1253.5,-541 1253.5,-501 1253.5,-501 1253.5,-495 1259.5,-489 1265.5,-489"/>
<text text-anchor="start" x="1254.5" y="-550.4" font-family="Arial" font-size="2.00"> </text>
<text text-anchor="start" x="1254.5" y="-544.4" font-family="Arial" font-size="7.00"> &#160;20</text>
<text text-anchor="start" x="1268.5" y="-527.8" font-family="Arial" font-weight="bold" font-size="14.00">Mean: 22.85</text>
<text text-anchor="start" x="1291.5" y="-510.8" font-family="Arial" font-weight="bold" font-size="14.00">n = 7</text>
<text text-anchor="start" x="1306" y="-492.8" font-family="Arial" font-size="9.00"> </text>
<path fill="none" stroke="#333333" d="M1265.5,-489C1265.5,-489 1349.5,-489 1349.5,-489 1355.5,-489 1361.5,-495 1361.5,-501 1361.5,-501 1361.5,-541 1361.5,-541 1361.5,-547 1355.5,-553 1349.5,-553 1349.5,-553 1265.5,-553 1265.5,-553 1259.5,-553 1253.5,-547 1253.5,-541 1253.5,-541 1253.5,-501 1253.5,-501 1253.5,-495 1259.5,-489 1265.5,-489"/>
<text text-anchor="start" x="1293" y="-474.8" font-family="Arial" font-weight="bold" font-size="14.00">time</text>
</g>
<!-- 18&#45;&gt;20 -->
<g id="edge20" class="edge">
<title>18&#45;&gt;20</title>
<path fill="none" stroke="#888888" d="M1256.35,-615.67C1261.12,-606.94 1266.06,-597.88 1270.92,-588.99"/>
<polygon fill="#888888" stroke="#888888" points="1274.01,-590.63 1275.73,-580.18 1267.87,-587.28 1274.01,-590.63"/>
</g>
<!-- 24 -->
<g id="node24" class="node">
<title>24</title>
<text text-anchor="start" x="1515.5" y="-561.8" font-family="Arial" font-weight="bold" font-size="14.00"> &lt; 26.38</text>
<text text-anchor="start" x="1468.5" y="-517.3" font-family="Arial" font-size="14.00"> &#160;&#160;&#160;</text>
<path fill="#ebebeb" stroke="transparent" d="M1498.5,-489C1498.5,-489 1582.5,-489 1582.5,-489 1588.5,-489 1594.5,-495 1594.5,-501 1594.5,-501 1594.5,-541 1594.5,-541 1594.5,-547 1588.5,-553 1582.5,-553 1582.5,-553 1498.5,-553 1498.5,-553 1492.5,-553 1486.5,-547 1486.5,-541 1486.5,-541 1486.5,-501 1486.5,-501 1486.5,-495 1492.5,-489 1498.5,-489"/>
<text text-anchor="start" x="1487.5" y="-550.4" font-family="Arial" font-size="2.00"> </text>
<text text-anchor="start" x="1487.5" y="-544.4" font-family="Arial" font-size="7.00"> &#160;24</text>
<text text-anchor="start" x="1501.5" y="-527.8" font-family="Arial" font-weight="bold" font-size="14.00">Mean: 24.99</text>
<text text-anchor="start" x="1520.5" y="-510.8" font-family="Arial" font-weight="bold" font-size="14.00">n = 31</text>
<text text-anchor="start" x="1539" y="-492.8" font-family="Arial" font-size="9.00"> </text>
<path fill="none" stroke="#333333" d="M1498.5,-489C1498.5,-489 1582.5,-489 1582.5,-489 1588.5,-489 1594.5,-495 1594.5,-501 1594.5,-501 1594.5,-541 1594.5,-541 1594.5,-547 1588.5,-553 1582.5,-553 1582.5,-553 1498.5,-553 1498.5,-553 1492.5,-553 1486.5,-547 1486.5,-541 1486.5,-541 1486.5,-501 1486.5,-501 1486.5,-495 1492.5,-489 1498.5,-489"/>
<text text-anchor="start" x="1596.5" y="-517.3" font-family="Arial" font-size="14.00"> &#160;&#160;&#160;</text>
<text text-anchor="start" x="1483" y="-474.8" font-family="Arial" font-weight="bold" font-size="14.00">prev_168h_inflow</text>
</g>
<!-- 23&#45;&gt;24 -->
<g id="edge23" class="edge">
<title>23&#45;&gt;24</title>
<path fill="none" stroke="#888888" d="M1540.5,-615.67C1540.5,-607.39 1540.5,-598.83 1540.5,-590.38"/>
<polygon fill="#888888" stroke="#888888" points="1544,-590.18 1540.5,-580.18 1537,-590.18 1544,-590.18"/>
</g>
<!-- 29 -->
<g id="node25" class="node">
<title>29</title>
<text text-anchor="start" x="1766" y="-561.8" font-family="Arial" font-weight="bold" font-size="14.00"> ≥ 26.38</text>
<text text-anchor="start" x="1718.5" y="-517.3" font-family="Arial" font-size="14.00"> &#160;&#160;&#160;</text>
<path fill="#ebebeb" stroke="transparent" d="M1748.5,-489C1748.5,-489 1832.5,-489 1832.5,-489 1838.5,-489 1844.5,-495 1844.5,-501 1844.5,-501 1844.5,-541 1844.5,-541 1844.5,-547 1838.5,-553 1832.5,-553 1832.5,-553 1748.5,-553 1748.5,-553 1742.5,-553 1736.5,-547 1736.5,-541 1736.5,-541 1736.5,-501 1736.5,-501 1736.5,-495 1742.5,-489 1748.5,-489"/>
<text text-anchor="start" x="1737.5" y="-550.4" font-family="Arial" font-size="2.00"> </text>
<text text-anchor="start" x="1737.5" y="-544.4" font-family="Arial" font-size="7.00"> &#160;29</text>
<text text-anchor="start" x="1751.5" y="-527.8" font-family="Arial" font-weight="bold" font-size="14.00">Mean: 28.47</text>
<text text-anchor="start" x="1770.5" y="-510.8" font-family="Arial" font-weight="bold" font-size="14.00">n = 39</text>
<text text-anchor="start" x="1789" y="-492.8" font-family="Arial" font-size="9.00"> </text>
<path fill="none" stroke="#333333" d="M1748.5,-489C1748.5,-489 1832.5,-489 1832.5,-489 1838.5,-489 1844.5,-495 1844.5,-501 1844.5,-501 1844.5,-541 1844.5,-541 1844.5,-547 1838.5,-553 1832.5,-553 1832.5,-553 1748.5,-553 1748.5,-553 1742.5,-553 1736.5,-547 1736.5,-541 1736.5,-541 1736.5,-501 1736.5,-501 1736.5,-495 1742.5,-489 1748.5,-489"/>
<text text-anchor="start" x="1846.5" y="-517.3" font-family="Arial" font-size="14.00"> &#160;&#160;&#160;</text>
<text text-anchor="start" x="1733" y="-474.8" font-family="Arial" font-weight="bold" font-size="14.00">prev_168h_inflow</text>
</g>
<!-- 23&#45;&gt;29 -->
<g id="edge24" class="edge">
<title>23&#45;&gt;29</title>
<path fill="none" stroke="#888888" d="M1622.71,-624.02C1647.28,-609.08 1674.35,-592.62 1699.46,-577.35"/>
<polygon fill="#888888" stroke="#888888" points="1701.52,-580.2 1708.24,-572.01 1697.88,-574.22 1701.52,-580.2"/>
</g>
<!-- 21 -->
<g id="node22" class="node">
<title>21</title>
<text text-anchor="start" x="1139.5" y="-407.8" font-family="Arial" font-weight="bold" font-size="14.00"> &lt; 18.5</text>
<path fill="#f8766d" fill-opacity="0.623529" stroke="transparent" d="M1125.5,-335C1125.5,-335 1196.5,-335 1196.5,-335 1202.5,-335 1208.5,-341 1208.5,-347 1208.5,-347 1208.5,-387 1208.5,-387 1208.5,-393 1202.5,-399 1196.5,-399 1196.5,-399 1125.5,-399 1125.5,-399 1119.5,-399 1113.5,-393 1113.5,-387 1113.5,-387 1113.5,-347 1113.5,-347 1113.5,-341 1119.5,-335 1125.5,-335"/>
<text text-anchor="start" x="1114.5" y="-396.4" font-family="Arial" font-size="2.00"> </text>
<text text-anchor="start" x="1114.5" y="-390.4" font-family="Arial" font-size="7.00"> &#160;21</text>
<text text-anchor="start" x="1128.5" y="-373.8" font-family="Arial" font-weight="bold" font-size="14.00">Predict 22</text>
<text text-anchor="start" x="1145" y="-356.8" font-family="Arial" font-weight="bold" font-size="14.00">n = 5</text>
<text text-anchor="start" x="1159.5" y="-338.8" font-family="Arial" font-size="9.00"> </text>
<path fill="none" stroke="#333333" d="M1125.5,-335C1125.5,-335 1196.5,-335 1196.5,-335 1202.5,-335 1208.5,-341 1208.5,-347 1208.5,-347 1208.5,-387 1208.5,-387 1208.5,-393 1202.5,-399 1196.5,-399 1196.5,-399 1125.5,-399 1125.5,-399 1119.5,-399 1113.5,-393 1113.5,-387 1113.5,-387 1113.5,-347 1113.5,-347 1113.5,-341 1119.5,-335 1125.5,-335"/>
<text text-anchor="start" x="1159" y="-320.8" font-family="Arial" font-weight="bold" font-size="14.00"> </text>
</g>
<!-- 20&#45;&gt;21 -->
<g id="edge21" class="edge">
<title>20&#45;&gt;21</title>
<path fill="none" stroke="#888888" d="M1251.09,-461.67C1242.21,-452.49 1232.97,-442.94 1223.95,-433.6"/>
<polygon fill="#888888" stroke="#888888" points="1226.23,-430.93 1216.76,-426.18 1221.2,-435.8 1226.23,-430.93"/>
</g>
<!-- 22 -->
<g id="node23" class="node">
<title>22</title>
<text text-anchor="start" x="1286.5" y="-407.8" font-family="Arial" font-weight="bold" font-size="14.00"> ≥ 18.5</text>
<path fill="#f8766d" fill-opacity="0.549020" stroke="transparent" d="M1262.5,-335C1262.5,-335 1352.5,-335 1352.5,-335 1358.5,-335 1364.5,-341 1364.5,-347 1364.5,-347 1364.5,-387 1364.5,-387 1364.5,-393 1358.5,-399 1352.5,-399 1352.5,-399 1262.5,-399 1262.5,-399 1256.5,-399 1250.5,-393 1250.5,-387 1250.5,-387 1250.5,-347 1250.5,-347 1250.5,-341 1256.5,-335 1262.5,-335"/>
<text text-anchor="start" x="1251.5" y="-396.4" font-family="Arial" font-size="2.00"> </text>
<text text-anchor="start" x="1251.5" y="-390.4" font-family="Arial" font-size="7.00"> &#160;22</text>
<text text-anchor="start" x="1265.5" y="-373.8" font-family="Arial" font-weight="bold" font-size="14.00">Predict 24.96</text>
<text text-anchor="start" x="1291.5" y="-356.8" font-family="Arial" font-weight="bold" font-size="14.00">n = 2</text>
<text text-anchor="start" x="1306" y="-338.8" font-family="Arial" font-size="9.00"> </text>
<path fill="none" stroke="#333333" d="M1262.5,-335C1262.5,-335 1352.5,-335 1352.5,-335 1358.5,-335 1364.5,-341 1364.5,-347 1364.5,-347 1364.5,-387 1364.5,-387 1364.5,-393 1358.5,-399 1352.5,-399 1352.5,-399 1262.5,-399 1262.5,-399 1256.5,-399 1250.5,-393 1250.5,-387 1250.5,-387 1250.5,-347 1250.5,-347 1250.5,-341 1256.5,-335 1262.5,-335"/>
<text text-anchor="start" x="1305.5" y="-320.8" font-family="Arial" font-weight="bold" font-size="14.00"> </text>
</g>
<!-- 20&#45;&gt;22 -->
<g id="edge22" class="edge">
<title>20&#45;&gt;22</title>
<path fill="none" stroke="#888888" d="M1307.5,-461.67C1307.5,-453.39 1307.5,-444.83 1307.5,-436.38"/>
<polygon fill="#888888" stroke="#888888" points="1311,-436.18 1307.5,-426.18 1304,-436.18 1311,-436.18"/>
</g>
<!-- 25 -->
<g id="node26" class="node">
<title>25</title>
<text text-anchor="start" x="1438.5" y="-407.8" font-family="Arial" font-weight="bold" font-size="14.00"> &lt; 24.33</text>
<path fill="#f8766d" fill-opacity="0.576471" stroke="transparent" d="M1418.5,-335C1418.5,-335 1508.5,-335 1508.5,-335 1514.5,-335 1520.5,-341 1520.5,-347 1520.5,-347 1520.5,-387 1520.5,-387 1520.5,-393 1514.5,-399 1508.5,-399 1508.5,-399 1418.5,-399 1418.5,-399 1412.5,-399 1406.5,-393 1406.5,-387 1406.5,-387 1406.5,-347 1406.5,-347 1406.5,-341 1412.5,-335 1418.5,-335"/>
<text text-anchor="start" x="1407.5" y="-396.4" font-family="Arial" font-size="2.00"> </text>
<text text-anchor="start" x="1407.5" y="-390.4" font-family="Arial" font-size="7.00"> &#160;25</text>
<text text-anchor="start" x="1421.5" y="-373.8" font-family="Arial" font-weight="bold" font-size="14.00">Predict 23.84</text>
<text text-anchor="start" x="1444" y="-356.8" font-family="Arial" font-weight="bold" font-size="14.00">n = 11</text>
<text text-anchor="start" x="1462" y="-338.8" font-family="Arial" font-size="9.00"> </text>
<path fill="none" stroke="#333333" d="M1418.5,-335C1418.5,-335 1508.5,-335 1508.5,-335 1514.5,-335 1520.5,-341 1520.5,-347 1520.5,-347 1520.5,-387 1520.5,-387 1520.5,-393 1514.5,-399 1508.5,-399 1508.5,-399 1418.5,-399 1418.5,-399 1412.5,-399 1406.5,-393 1406.5,-387 1406.5,-387 1406.5,-347 1406.5,-347 1406.5,-341 1412.5,-335 1418.5,-335"/>
<text text-anchor="start" x="1461.5" y="-320.8" font-family="Arial" font-weight="bold" font-size="14.00"> </text>
</g>
<!-- 24&#45;&gt;25 -->
<g id="edge25" class="edge">
<title>24&#45;&gt;25</title>
<path fill="none" stroke="#888888" d="M1510.95,-461.67C1506.57,-453.03 1502.04,-444.07 1497.58,-435.27"/>
<polygon fill="#888888" stroke="#888888" points="1500.61,-433.52 1492.97,-426.18 1494.37,-436.68 1500.61,-433.52"/>
</g>
<!-- 26 -->
<g id="node27" class="node">
<title>26</title>
<text text-anchor="start" x="1604" y="-407.8" font-family="Arial" font-weight="bold" font-size="14.00"> ≥ 24.33</text>
<text text-anchor="start" x="1560.5" y="-363.3" font-family="Arial" font-size="14.00"> &#160;&#160;</text>
<path fill="#ebebeb" stroke="transparent" d="M1586.5,-335C1586.5,-335 1670.5,-335 1670.5,-335 1676.5,-335 1682.5,-341 1682.5,-347 1682.5,-347 1682.5,-387 1682.5,-387 1682.5,-393 1676.5,-399 1670.5,-399 1670.5,-399 1586.5,-399 1586.5,-399 1580.5,-399 1574.5,-393 1574.5,-387 1574.5,-387 1574.5,-347 1574.5,-347 1574.5,-341 1580.5,-335 1586.5,-335"/>
<text text-anchor="start" x="1575.5" y="-396.4" font-family="Arial" font-size="2.00"> </text>
<text text-anchor="start" x="1575.5" y="-390.4" font-family="Arial" font-size="7.00"> &#160;26</text>
<text text-anchor="start" x="1589.5" y="-373.8" font-family="Arial" font-weight="bold" font-size="14.00">Mean: 25.62</text>
<text text-anchor="start" x="1608.5" y="-356.8" font-family="Arial" font-weight="bold" font-size="14.00">n = 20</text>
<text text-anchor="start" x="1627" y="-338.8" font-family="Arial" font-size="9.00"> </text>
<path fill="none" stroke="#333333" d="M1586.5,-335C1586.5,-335 1670.5,-335 1670.5,-335 1676.5,-335 1682.5,-341 1682.5,-347 1682.5,-347 1682.5,-387 1682.5,-387 1682.5,-393 1676.5,-399 1670.5,-399 1670.5,-399 1586.5,-399 1586.5,-399 1580.5,-399 1574.5,-393 1574.5,-387 1574.5,-387 1574.5,-347 1574.5,-347 1574.5,-341 1580.5,-335 1586.5,-335"/>
<text text-anchor="start" x="1684.5" y="-363.3" font-family="Arial" font-size="14.00"> &#160;&#160;</text>
<text text-anchor="start" x="1575" y="-320.8" font-family="Arial" font-weight="bold" font-size="14.00">prev_24h_inflow</text>
</g>
<!-- 24&#45;&gt;26 -->
<g id="edge26" class="edge">
<title>24&#45;&gt;26</title>
<path fill="none" stroke="#888888" d="M1574.27,-461.67C1579.32,-452.94 1584.57,-443.88 1589.71,-434.99"/>
<polygon fill="#888888" stroke="#888888" points="1592.84,-436.58 1594.82,-426.18 1586.78,-433.08 1592.84,-436.58"/>
</g>
<!-- 30 -->
<g id="node30" class="node">
<title>30</title>
<text text-anchor="start" x="1769" y="-407.8" font-family="Arial" font-weight="bold" font-size="14.00"> &lt; 30.1</text>
<path fill="#ebebeb" stroke="transparent" d="M1748.5,-335C1748.5,-335 1832.5,-335 1832.5,-335 1838.5,-335 1844.5,-341 1844.5,-347 1844.5,-347 1844.5,-387 1844.5,-387 1844.5,-393 1838.5,-399 1832.5,-399 1832.5,-399 1748.5,-399 1748.5,-399 1742.5,-399 1736.5,-393 1736.5,-387 1736.5,-387 1736.5,-347 1736.5,-347 1736.5,-341 1742.5,-335 1748.5,-335"/>
<text text-anchor="start" x="1737.5" y="-396.4" font-family="Arial" font-size="2.00"> </text>
<text text-anchor="start" x="1737.5" y="-390.4" font-family="Arial" font-size="7.00"> &#160;30</text>
<text text-anchor="start" x="1751.5" y="-373.8" font-family="Arial" font-weight="bold" font-size="14.00">Mean: 28.25</text>
<text text-anchor="start" x="1770.5" y="-356.8" font-family="Arial" font-weight="bold" font-size="14.00">n = 31</text>
<text text-anchor="start" x="1789" y="-338.8" font-family="Arial" font-size="9.00"> </text>
<path fill="none" stroke="#333333" d="M1748.5,-335C1748.5,-335 1832.5,-335 1832.5,-335 1838.5,-335 1844.5,-341 1844.5,-347 1844.5,-347 1844.5,-387 1844.5,-387 1844.5,-393 1838.5,-399 1832.5,-399 1832.5,-399 1748.5,-399 1748.5,-399 1742.5,-399 1736.5,-393 1736.5,-387 1736.5,-387 1736.5,-347 1736.5,-347 1736.5,-341 1742.5,-335 1748.5,-335"/>
<text text-anchor="start" x="1776" y="-320.8" font-family="Arial" font-weight="bold" font-size="14.00">time</text>
</g>
<!-- 29&#45;&gt;30 -->
<g id="edge29" class="edge">
<title>29&#45;&gt;30</title>
<path fill="none" stroke="#888888" d="M1790.5,-461.67C1790.5,-453.39 1790.5,-444.83 1790.5,-436.38"/>
<polygon fill="#888888" stroke="#888888" points="1794,-436.18 1790.5,-426.18 1787,-436.18 1794,-436.18"/>
</g>
<!-- 35 -->
<g id="node31" class="node">
<title>35</title>
<text text-anchor="start" x="1922.5" y="-407.8" font-family="Arial" font-weight="bold" font-size="14.00"> ≥ 30.1</text>
<path fill="#f8766d" fill-opacity="0.439216" stroke="transparent" d="M1898.5,-335C1898.5,-335 1988.5,-335 1988.5,-335 1994.5,-335 2000.5,-341 2000.5,-347 2000.5,-347 2000.5,-387 2000.5,-387 2000.5,-393 1994.5,-399 1988.5,-399 1988.5,-399 1898.5,-399 1898.5,-399 1892.5,-399 1886.5,-393 1886.5,-387 1886.5,-387 1886.5,-347 1886.5,-347 1886.5,-341 1892.5,-335 1898.5,-335"/>
<text text-anchor="start" x="1887.5" y="-396.4" font-family="Arial" font-size="2.00"> </text>
<text text-anchor="start" x="1887.5" y="-390.4" font-family="Arial" font-size="7.00"> &#160;35</text>
<text text-anchor="start" x="1901.5" y="-373.8" font-family="Arial" font-weight="bold" font-size="14.00">Predict 29.31</text>
<text text-anchor="start" x="1927.5" y="-356.8" font-family="Arial" font-weight="bold" font-size="14.00">n = 8</text>
<text text-anchor="start" x="1942" y="-338.8" font-family="Arial" font-size="9.00"> </text>
<path fill="none" stroke="#333333" d="M1898.5,-335C1898.5,-335 1988.5,-335 1988.5,-335 1994.5,-335 2000.5,-341 2000.5,-347 2000.5,-347 2000.5,-387 2000.5,-387 2000.5,-393 1994.5,-399 1988.5,-399 1988.5,-399 1898.5,-399 1898.5,-399 1892.5,-399 1886.5,-393 1886.5,-387 1886.5,-387 1886.5,-347 1886.5,-347 1886.5,-341 1892.5,-335 1898.5,-335"/>
<text text-anchor="start" x="1941.5" y="-320.8" font-family="Arial" font-weight="bold" font-size="14.00"> </text>
</g>
<!-- 29&#45;&gt;35 -->
<g id="edge30" class="edge">
<title>29&#45;&gt;35</title>
<path fill="none" stroke="#888888" d="M1849.22,-461.67C1858.55,-452.39 1868.26,-442.75 1877.74,-433.33"/>
<polygon fill="#888888" stroke="#888888" points="1880.31,-435.71 1884.94,-426.18 1875.38,-430.74 1880.31,-435.71"/>
</g>
<!-- 27 -->
<g id="node28" class="node">
<title>27</title>
<text text-anchor="start" x="1449.5" y="-253.8" font-family="Arial" font-weight="bold" font-size="14.00"> &lt; 25.58</text>
<path fill="#f8766d" fill-opacity="0.556863" stroke="transparent" d="M1429.5,-181C1429.5,-181 1519.5,-181 1519.5,-181 1525.5,-181 1531.5,-187 1531.5,-193 1531.5,-193 1531.5,-233 1531.5,-233 1531.5,-239 1525.5,-245 1519.5,-245 1519.5,-245 1429.5,-245 1429.5,-245 1423.5,-245 1417.5,-239 1417.5,-233 1417.5,-233 1417.5,-193 1417.5,-193 1417.5,-187 1423.5,-181 1429.5,-181"/>
<text text-anchor="start" x="1418.5" y="-242.4" font-family="Arial" font-size="2.00"> </text>
<text text-anchor="start" x="1418.5" y="-236.4" font-family="Arial" font-size="7.00"> &#160;27</text>
<text text-anchor="start" x="1432.5" y="-219.8" font-family="Arial" font-weight="bold" font-size="14.00">Predict 24.56</text>
<text text-anchor="start" x="1458.5" y="-202.8" font-family="Arial" font-weight="bold" font-size="14.00">n = 8</text>
<text text-anchor="start" x="1473" y="-184.8" font-family="Arial" font-size="9.00"> </text>
<path fill="none" stroke="#333333" d="M1429.5,-181C1429.5,-181 1519.5,-181 1519.5,-181 1525.5,-181 1531.5,-187 1531.5,-193 1531.5,-193 1531.5,-233 1531.5,-233 1531.5,-239 1525.5,-245 1519.5,-245 1519.5,-245 1429.5,-245 1429.5,-245 1423.5,-245 1417.5,-239 1417.5,-233 1417.5,-233 1417.5,-193 1417.5,-193 1417.5,-187 1423.5,-181 1429.5,-181"/>
<text text-anchor="start" x="1472.5" y="-166.8" font-family="Arial" font-weight="bold" font-size="14.00"> </text>
</g>
<!-- 26&#45;&gt;27 -->
<g id="edge27" class="edge">
<title>26&#45;&gt;27</title>
<path fill="none" stroke="#888888" d="M1569.4,-307.67C1560,-298.39 1550.23,-288.75 1540.69,-279.33"/>
<polygon fill="#888888" stroke="#888888" points="1543.02,-276.71 1533.44,-272.18 1538.1,-281.69 1543.02,-276.71"/>
</g>
<!-- 28 -->
<g id="node29" class="node">
<title>28</title>
<text text-anchor="start" x="1606" y="-253.8" font-family="Arial" font-weight="bold" font-size="14.00"> ≥ 25.58</text>
<path fill="#f8766d" fill-opacity="0.513725" stroke="transparent" d="M1585.5,-181C1585.5,-181 1675.5,-181 1675.5,-181 1681.5,-181 1687.5,-187 1687.5,-193 1687.5,-193 1687.5,-233 1687.5,-233 1687.5,-239 1681.5,-245 1675.5,-245 1675.5,-245 1585.5,-245 1585.5,-245 1579.5,-245 1573.5,-239 1573.5,-233 1573.5,-233 1573.5,-193 1573.5,-193 1573.5,-187 1579.5,-181 1585.5,-181"/>
<text text-anchor="start" x="1574.5" y="-242.4" font-family="Arial" font-size="2.00"> </text>
<text text-anchor="start" x="1574.5" y="-236.4" font-family="Arial" font-size="7.00"> &#160;28</text>
<text text-anchor="start" x="1588.5" y="-219.8" font-family="Arial" font-weight="bold" font-size="14.00">Predict 26.33</text>
<text text-anchor="start" x="1610.5" y="-202.8" font-family="Arial" font-weight="bold" font-size="14.00">n = 12</text>
<text text-anchor="start" x="1629" y="-184.8" font-family="Arial" font-size="9.00"> </text>
<path fill="none" stroke="#333333" d="M1585.5,-181C1585.5,-181 1675.5,-181 1675.5,-181 1681.5,-181 1687.5,-187 1687.5,-193 1687.5,-193 1687.5,-233 1687.5,-233 1687.5,-239 1681.5,-245 1675.5,-245 1675.5,-245 1585.5,-245 1585.5,-245 1579.5,-245 1573.5,-239 1573.5,-233 1573.5,-233 1573.5,-193 1573.5,-193 1573.5,-187 1579.5,-181 1585.5,-181"/>
<text text-anchor="start" x="1628.5" y="-166.8" font-family="Arial" font-weight="bold" font-size="14.00"> </text>
</g>
<!-- 26&#45;&gt;28 -->
<g id="edge28" class="edge">
<title>26&#45;&gt;28</title>
<path fill="none" stroke="#888888" d="M1629.27,-307.67C1629.38,-299.39 1629.49,-290.83 1629.6,-282.38"/>
<polygon fill="#888888" stroke="#888888" points="1633.1,-282.22 1629.73,-272.18 1626.1,-282.13 1633.1,-282.22"/>
</g>
<!-- 31 -->
<g id="node32" class="node">
<title>31</title>
<text text-anchor="start" x="1772" y="-253.8" font-family="Arial" font-weight="bold" font-size="14.00"> &lt; 17</text>
<path fill="#ebebeb" stroke="transparent" d="M1745.5,-181C1745.5,-181 1829.5,-181 1829.5,-181 1835.5,-181 1841.5,-187 1841.5,-193 1841.5,-193 1841.5,-233 1841.5,-233 1841.5,-239 1835.5,-245 1829.5,-245 1829.5,-245 1745.5,-245 1745.5,-245 1739.5,-245 1733.5,-239 1733.5,-233 1733.5,-233 1733.5,-193 1733.5,-193 1733.5,-187 1739.5,-181 1745.5,-181"/>
<text text-anchor="start" x="1734.5" y="-242.4" font-family="Arial" font-size="2.00"> </text>
<text text-anchor="start" x="1734.5" y="-236.4" font-family="Arial" font-size="7.00"> &#160;31</text>
<text text-anchor="start" x="1748.5" y="-219.8" font-family="Arial" font-weight="bold" font-size="14.00">Mean: 28.53</text>
<text text-anchor="start" x="1767.5" y="-202.8" font-family="Arial" font-weight="bold" font-size="14.00">n = 20</text>
<text text-anchor="start" x="1786" y="-184.8" font-family="Arial" font-size="9.00"> </text>
<path fill="none" stroke="#333333" d="M1745.5,-181C1745.5,-181 1829.5,-181 1829.5,-181 1835.5,-181 1841.5,-187 1841.5,-193 1841.5,-193 1841.5,-233 1841.5,-233 1841.5,-239 1835.5,-245 1829.5,-245 1829.5,-245 1745.5,-245 1745.5,-245 1739.5,-245 1733.5,-239 1733.5,-233 1733.5,-233 1733.5,-193 1733.5,-193 1733.5,-187 1739.5,-181 1745.5,-181"/>
<text text-anchor="start" x="1754.5" y="-166.8" font-family="Arial" font-weight="bold" font-size="14.00">air_humid</text>
</g>
<!-- 30&#45;&gt;31 -->
<g id="edge31" class="edge">
<title>30&#45;&gt;31</title>
<path fill="none" stroke="#888888" d="M1789.35,-307.67C1789.19,-299.39 1789.02,-290.83 1788.85,-282.38"/>
<polygon fill="#888888" stroke="#888888" points="1792.34,-282.11 1788.65,-272.18 1785.35,-282.24 1792.34,-282.11"/>
</g>
<!-- 34 -->
<g id="node33" class="node">
<title>34</title>
<text text-anchor="start" x="1925" y="-253.8" font-family="Arial" font-weight="bold" font-size="14.00"> ≥ 17</text>
<path fill="#f8766d" fill-opacity="0.478431" stroke="transparent" d="M1895.5,-181C1895.5,-181 1985.5,-181 1985.5,-181 1991.5,-181 1997.5,-187 1997.5,-193 1997.5,-193 1997.5,-233 1997.5,-233 1997.5,-239 1991.5,-245 1985.5,-245 1985.5,-245 1895.5,-245 1895.5,-245 1889.5,-245 1883.5,-239 1883.5,-233 1883.5,-233 1883.5,-193 1883.5,-193 1883.5,-187 1889.5,-181 1895.5,-181"/>
<text text-anchor="start" x="1884.5" y="-242.4" font-family="Arial" font-size="2.00"> </text>
<text text-anchor="start" x="1884.5" y="-236.4" font-family="Arial" font-size="7.00"> &#160;34</text>
<text text-anchor="start" x="1898.5" y="-219.8" font-family="Arial" font-weight="bold" font-size="14.00">Predict 27.76</text>
<text text-anchor="start" x="1921" y="-202.8" font-family="Arial" font-weight="bold" font-size="14.00">n = 11</text>
<text text-anchor="start" x="1939" y="-184.8" font-family="Arial" font-size="9.00"> </text>
<path fill="none" stroke="#333333" d="M1895.5,-181C1895.5,-181 1985.5,-181 1985.5,-181 1991.5,-181 1997.5,-187 1997.5,-193 1997.5,-193 1997.5,-233 1997.5,-233 1997.5,-239 1991.5,-245 1985.5,-245 1985.5,-245 1895.5,-245 1895.5,-245 1889.5,-245 1883.5,-239 1883.5,-233 1883.5,-233 1883.5,-193 1883.5,-193 1883.5,-187 1889.5,-181 1895.5,-181"/>
<text text-anchor="start" x="1938.5" y="-166.8" font-family="Arial" font-weight="bold" font-size="14.00"> </text>
</g>
<!-- 30&#45;&gt;34 -->
<g id="edge32" class="edge">
<title>30&#45;&gt;34</title>
<path fill="none" stroke="#888888" d="M1848.06,-307.67C1857.22,-298.39 1866.73,-288.75 1876.03,-279.33"/>
<polygon fill="#888888" stroke="#888888" points="1878.56,-281.75 1883.09,-272.18 1873.57,-276.84 1878.56,-281.75"/>
</g>
<!-- 32 -->
<g id="node34" class="node">
<title>32</title>
<text text-anchor="start" x="1694" y="-99.8" font-family="Arial" font-weight="bold" font-size="14.00"> &lt; 81</text>
<path fill="#f8766d" fill-opacity="0.486275" stroke="transparent" d="M1664.5,-27C1664.5,-27 1754.5,-27 1754.5,-27 1760.5,-27 1766.5,-33 1766.5,-39 1766.5,-39 1766.5,-79 1766.5,-79 1766.5,-85 1760.5,-91 1754.5,-91 1754.5,-91 1664.5,-91 1664.5,-91 1658.5,-91 1652.5,-85 1652.5,-79 1652.5,-79 1652.5,-39 1652.5,-39 1652.5,-33 1658.5,-27 1664.5,-27"/>
<text text-anchor="start" x="1653.5" y="-88.4" font-family="Arial" font-size="2.00"> </text>
<text text-anchor="start" x="1653.5" y="-82.4" font-family="Arial" font-size="7.00"> &#160;32</text>
<text text-anchor="start" x="1667.5" y="-65.8" font-family="Arial" font-weight="bold" font-size="14.00">Predict 27.54</text>
<text text-anchor="start" x="1689.5" y="-48.8" font-family="Arial" font-weight="bold" font-size="14.00">n = 13</text>
<text text-anchor="start" x="1708" y="-30.8" font-family="Arial" font-size="9.00"> </text>
<path fill="none" stroke="#333333" d="M1664.5,-27C1664.5,-27 1754.5,-27 1754.5,-27 1760.5,-27 1766.5,-33 1766.5,-39 1766.5,-39 1766.5,-79 1766.5,-79 1766.5,-85 1760.5,-91 1754.5,-91 1754.5,-91 1664.5,-91 1664.5,-91 1658.5,-91 1652.5,-85 1652.5,-79 1652.5,-79 1652.5,-39 1652.5,-39 1652.5,-33 1658.5,-27 1664.5,-27"/>
<text text-anchor="start" x="1707.5" y="-12.8" font-family="Arial" font-weight="bold" font-size="14.00"> </text>
</g>
<!-- 31&#45;&gt;32 -->
<g id="edge33" class="edge">
<title>31&#45;&gt;32</title>
<path fill="none" stroke="#888888" d="M1757.57,-153.67C1753.13,-145.03 1748.54,-136.07 1744.02,-127.27"/>
<polygon fill="#888888" stroke="#888888" points="1747.03,-125.48 1739.35,-118.18 1740.81,-128.67 1747.03,-125.48"/>
</g>
<!-- 33 -->
<g id="node35" class="node">
<title>33</title>
<text text-anchor="start" x="1850" y="-99.8" font-family="Arial" font-weight="bold" font-size="14.00"> ≥ 81</text>
<path fill="#f8766d" fill-opacity="0.415686" stroke="transparent" d="M1820.5,-27C1820.5,-27 1910.5,-27 1910.5,-27 1916.5,-27 1922.5,-33 1922.5,-39 1922.5,-39 1922.5,-79 1922.5,-79 1922.5,-85 1916.5,-91 1910.5,-91 1910.5,-91 1820.5,-91 1820.5,-91 1814.5,-91 1808.5,-85 1808.5,-79 1808.5,-79 1808.5,-39 1808.5,-39 1808.5,-33 1814.5,-27 1820.5,-27"/>
<text text-anchor="start" x="1809.5" y="-88.4" font-family="Arial" font-size="2.00"> </text>
<text text-anchor="start" x="1809.5" y="-82.4" font-family="Arial" font-size="7.00"> &#160;33</text>
<text text-anchor="start" x="1823.5" y="-65.8" font-family="Arial" font-weight="bold" font-size="14.00">Predict 30.36</text>
<text text-anchor="start" x="1849.5" y="-48.8" font-family="Arial" font-weight="bold" font-size="14.00">n = 7</text>
<text text-anchor="start" x="1864" y="-30.8" font-family="Arial" font-size="9.00"> </text>
<path fill="none" stroke="#333333" d="M1820.5,-27C1820.5,-27 1910.5,-27 1910.5,-27 1916.5,-27 1922.5,-33 1922.5,-39 1922.5,-39 1922.5,-79 1922.5,-79 1922.5,-85 1916.5,-91 1910.5,-91 1910.5,-91 1820.5,-91 1820.5,-91 1814.5,-91 1808.5,-85 1808.5,-79 1808.5,-79 1808.5,-39 1808.5,-39 1808.5,-33 1814.5,-27 1820.5,-27"/>
<text text-anchor="start" x="1863.5" y="-12.8" font-family="Arial" font-weight="bold" font-size="14.00"> </text>
</g>
<!-- 31&#45;&gt;33 -->
<g id="edge34" class="edge">
<title>31&#45;&gt;33</title>
<path fill="none" stroke="#888888" d="M1817.43,-153.67C1821.87,-145.03 1826.46,-136.07 1830.98,-127.27"/>
<polygon fill="#888888" stroke="#888888" points="1834.19,-128.67 1835.65,-118.18 1827.97,-125.48 1834.19,-128.67"/>
</g>
</g>
</svg>
