<?xml version="1.0" encoding="utf-8"?>
<svg xmlns="http://www.w3.org/2000/svg" xmlns:xlink="http://www.w3.org/1999/xlink" width="1000" height="400" viewBox="0 0 4000 1600">
<defs>
  <clipPath id="clip560">
    <rect x="0" y="0" width="4000" height="1600"/>
  </clipPath>
</defs>
<path clip-path="url(#clip560)" d="M0 1600 L4000 1600 L4000 0 L0 0  Z" fill="#ffffff" fill-rule="evenodd" fill-opacity="1"/>
<defs>
  <clipPath id="clip561">
    <rect x="800" y="0" width="2801" height="1600"/>
  </clipPath>
</defs>
<path clip-path="url(#clip560)" d="M203.019 1497.68 L3180.14 1497.68 L3180.14 47.2441 L203.019 47.2441  Z" fill="#ffffff" fill-rule="evenodd" fill-opacity="1"/>
<defs>
  <clipPath id="clip562">
    <rect x="203" y="47" width="2978" height="1451"/>
  </clipPath>
</defs>
<polyline clip-path="url(#clip562)" style="stroke:#000000; stroke-linecap:round; stroke-linejoin:round; stroke-width:2; stroke-opacity:0.1; fill:none" points="287.277,1497.68 287.277,47.2441 "/>
<polyline clip-path="url(#clip562)" style="stroke:#000000; stroke-linecap:round; stroke-linejoin:round; stroke-width:2; stroke-opacity:0.1; fill:none" points="1094.54,1497.68 1094.54,47.2441 "/>
<polyline clip-path="url(#clip562)" style="stroke:#000000; stroke-linecap:round; stroke-linejoin:round; stroke-width:2; stroke-opacity:0.1; fill:none" points="1901.8,1497.68 1901.8,47.2441 "/>
<polyline clip-path="url(#clip562)" style="stroke:#000000; stroke-linecap:round; stroke-linejoin:round; stroke-width:2; stroke-opacity:0.1; fill:none" points="2709.06,1497.68 2709.06,47.2441 "/>
<polyline clip-path="url(#clip560)" style="stroke:#000000; stroke-linecap:round; stroke-linejoin:round; stroke-width:4; stroke-opacity:1; fill:none" points="203.019,1497.68 3180.14,1497.68 "/>
<polyline clip-path="url(#clip560)" style="stroke:#000000; stroke-linecap:round; stroke-linejoin:round; stroke-width:4; stroke-opacity:1; fill:none" points="287.277,1497.68 287.277,1478.78 "/>
<polyline clip-path="url(#clip560)" style="stroke:#000000; stroke-linecap:round; stroke-linejoin:round; stroke-width:4; stroke-opacity:1; fill:none" points="1094.54,1497.68 1094.54,1478.78 "/>
<polyline clip-path="url(#clip560)" style="stroke:#000000; stroke-linecap:round; stroke-linejoin:round; stroke-width:4; stroke-opacity:1; fill:none" points="1901.8,1497.68 1901.8,1478.78 "/>
<polyline clip-path="url(#clip560)" style="stroke:#000000; stroke-linecap:round; stroke-linejoin:round; stroke-width:4; stroke-opacity:1; fill:none" points="2709.06,1497.68 2709.06,1478.78 "/>
<path clip-path="url(#clip560)" d="M143.046 1573.85 L161.406 1573.85 L161.406 1578.28 L136.718 1578.28 L136.718 1573.85 Q139.713 1570.75 144.869 1565.55 Q150.051 1560.31 151.38 1558.8 Q153.906 1555.96 154.895 1554.01 Q155.911 1552.03 155.911 1550.13 Q155.911 1547.03 153.723 1545.08 Q151.562 1543.12 148.072 1543.12 Q145.598 1543.12 142.838 1543.98 Q140.104 1544.84 136.979 1546.59 L136.979 1541.27 Q140.156 1540 142.916 1539.35 Q145.676 1538.7 147.968 1538.7 Q154.01 1538.7 157.603 1541.72 Q161.197 1544.74 161.197 1549.79 Q161.197 1552.19 160.286 1554.35 Q159.4 1556.48 157.031 1559.4 Q156.38 1560.15 152.89 1563.77 Q149.4 1567.37 143.046 1573.85 Z" fill="#000000" fill-rule="nonzero" fill-opacity="1" /><path clip-path="url(#clip560)" d="M183.697 1542.86 Q179.635 1542.86 177.577 1546.87 Q175.546 1550.86 175.546 1558.88 Q175.546 1566.87 177.577 1570.88 Q179.635 1574.87 183.697 1574.87 Q187.786 1574.87 189.817 1570.88 Q191.874 1566.87 191.874 1558.88 Q191.874 1550.86 189.817 1546.87 Q187.786 1542.86 183.697 1542.86 M183.697 1538.7 Q190.233 1538.7 193.671 1543.88 Q197.135 1549.04 197.135 1558.88 Q197.135 1568.7 193.671 1573.88 Q190.233 1579.04 183.697 1579.04 Q177.161 1579.04 173.697 1573.88 Q170.26 1568.7 170.26 1558.88 Q170.26 1549.04 173.697 1543.88 Q177.161 1538.7 183.697 1538.7 Z" fill="#000000" fill-rule="nonzero" fill-opacity="1" /><path clip-path="url(#clip560)" d="M210.91 1573.85 L229.27 1573.85 L229.27 1578.28 L204.582 1578.28 L204.582 1573.85 Q207.577 1570.75 212.733 1565.55 Q217.916 1560.31 219.244 1558.8 Q221.77 1555.96 222.759 1554.01 Q223.775 1552.03 223.775 1550.13 Q223.775 1547.03 221.587 1545.08 Q219.426 1543.12 215.936 1543.12 Q213.463 1543.12 210.702 1543.98 Q207.968 1544.84 204.843 1546.59 L204.843 1541.27 Q208.02 1540 210.78 1539.35 Q213.541 1538.7 215.832 1538.7 Q221.874 1538.7 225.468 1541.72 Q229.061 1544.74 229.061 1549.79 Q229.061 1552.19 228.15 1554.35 Q227.265 1556.48 224.895 1559.4 Q224.244 1560.15 220.754 1563.77 Q217.265 1567.37 210.91 1573.85 Z" fill="#000000" fill-rule="nonzero" fill-opacity="1" /><path clip-path="url(#clip560)" d="M244.843 1573.85 L263.202 1573.85 L263.202 1578.28 L238.514 1578.28 L238.514 1573.85 Q241.509 1570.75 246.665 1565.55 Q251.848 1560.31 253.176 1558.8 Q255.702 1555.96 256.691 1554.01 Q257.707 1552.03 257.707 1550.13 Q257.707 1547.03 255.52 1545.08 Q253.358 1543.12 249.869 1543.12 Q247.395 1543.12 244.634 1543.98 Q241.9 1544.84 238.775 1546.59 L238.775 1541.27 Q241.952 1540 244.712 1539.35 Q247.473 1538.7 249.764 1538.7 Q255.806 1538.7 259.4 1541.72 Q262.994 1544.74 262.994 1549.79 Q262.994 1552.19 262.082 1554.35 Q261.197 1556.48 258.827 1559.4 Q258.176 1560.15 254.686 1563.77 Q251.197 1567.37 244.843 1573.85 Z" fill="#000000" fill-rule="nonzero" fill-opacity="1" /><path clip-path="url(#clip560)" d="M271.145 1561.54 L285.181 1561.54 L285.181 1565.81 L271.145 1565.81 L271.145 1561.54 Z" fill="#000000" fill-rule="nonzero" fill-opacity="1" /><path clip-path="url(#clip560)" d="M294.4 1573.85 L302.993 1573.85 L302.993 1544.19 L293.644 1546.07 L293.644 1541.27 L302.941 1539.4 L308.202 1539.4 L308.202 1573.85 L316.795 1573.85 L316.795 1578.28 L294.4 1578.28 L294.4 1573.85 Z" fill="#000000" fill-rule="nonzero" fill-opacity="1" /><path clip-path="url(#clip560)" d="M338.67 1542.86 Q334.608 1542.86 332.55 1546.87 Q330.519 1550.86 330.519 1558.88 Q330.519 1566.87 332.55 1570.88 Q334.608 1574.87 338.67 1574.87 Q342.759 1574.87 344.79 1570.88 Q346.847 1566.87 346.847 1558.88 Q346.847 1550.86 344.79 1546.87 Q342.759 1542.86 338.67 1542.86 M338.67 1538.7 Q345.207 1538.7 348.644 1543.88 Q352.108 1549.04 352.108 1558.88 Q352.108 1568.7 348.644 1573.88 Q345.207 1579.04 338.67 1579.04 Q332.134 1579.04 328.67 1573.88 Q325.233 1568.7 325.233 1558.88 Q325.233 1549.04 328.67 1543.88 Q332.134 1538.7 338.67 1538.7 Z" fill="#000000" fill-rule="nonzero" fill-opacity="1" /><path clip-path="url(#clip560)" d="M358.253 1561.54 L372.29 1561.54 L372.29 1565.81 L358.253 1565.81 L358.253 1561.54 Z" fill="#000000" fill-rule="nonzero" fill-opacity="1" /><path clip-path="url(#clip560)" d="M396.534 1557.32 Q400.31 1558.12 402.42 1560.68 Q404.555 1563.23 404.555 1566.98 Q404.555 1572.73 400.597 1575.88 Q396.639 1579.04 389.347 1579.04 Q386.899 1579.04 384.295 1578.54 Q381.717 1578.07 378.956 1577.11 L378.956 1572.03 Q381.144 1573.31 383.748 1573.96 Q386.352 1574.61 389.191 1574.61 Q394.139 1574.61 396.717 1572.65 Q399.321 1570.7 399.321 1566.98 Q399.321 1563.54 396.899 1561.61 Q394.503 1559.66 390.206 1559.66 L385.675 1559.66 L385.675 1555.34 L390.415 1555.34 Q394.295 1555.34 396.352 1553.8 Q398.409 1552.24 398.409 1549.32 Q398.409 1546.33 396.274 1544.74 Q394.165 1543.12 390.206 1543.12 Q388.045 1543.12 385.571 1543.59 Q383.097 1544.06 380.128 1545.05 L380.128 1540.36 Q383.123 1539.53 385.727 1539.11 Q388.357 1538.7 390.675 1538.7 Q396.665 1538.7 400.154 1541.43 Q403.644 1544.14 403.644 1548.77 Q403.644 1552 401.795 1554.24 Q399.946 1556.46 396.534 1557.32 Z" fill="#000000" fill-rule="nonzero" fill-opacity="1" /><path clip-path="url(#clip560)" d="M415.441 1573.85 L424.034 1573.85 L424.034 1544.19 L414.685 1546.07 L414.685 1541.27 L423.982 1539.4 L429.243 1539.4 L429.243 1573.85 L437.836 1573.85 L437.836 1578.28 L415.441 1578.28 L415.441 1573.85 Z" fill="#000000" fill-rule="nonzero" fill-opacity="1" /><path clip-path="url(#clip560)" d="M950.517 1573.85 L968.876 1573.85 L968.876 1578.28 L944.189 1578.28 L944.189 1573.85 Q947.184 1570.75 952.34 1565.55 Q957.522 1560.31 958.85 1558.8 Q961.376 1555.96 962.366 1554.01 Q963.382 1552.03 963.382 1550.13 Q963.382 1547.03 961.194 1545.08 Q959.033 1543.12 955.543 1543.12 Q953.069 1543.12 950.309 1543.98 Q947.574 1544.84 944.449 1546.59 L944.449 1541.27 Q947.627 1540 950.387 1539.35 Q953.147 1538.7 955.439 1538.7 Q961.481 1538.7 965.074 1541.72 Q968.668 1544.74 968.668 1549.79 Q968.668 1552.19 967.757 1554.35 Q966.871 1556.48 964.501 1559.4 Q963.85 1560.15 960.361 1563.77 Q956.871 1567.37 950.517 1573.85 Z" fill="#000000" fill-rule="nonzero" fill-opacity="1" /><path clip-path="url(#clip560)" d="M991.168 1542.86 Q987.105 1542.86 985.048 1546.87 Q983.017 1550.86 983.017 1558.88 Q983.017 1566.87 985.048 1570.88 Q987.105 1574.87 991.168 1574.87 Q995.256 1574.87 997.288 1570.88 Q999.345 1566.87 999.345 1558.88 Q999.345 1550.86 997.288 1546.87 Q995.256 1542.86 991.168 1542.86 M991.168 1538.7 Q997.704 1538.7 1001.14 1543.88 Q1004.61 1549.04 1004.61 1558.88 Q1004.61 1568.7 1001.14 1573.88 Q997.704 1579.04 991.168 1579.04 Q984.632 1579.04 981.168 1573.88 Q977.731 1568.7 977.731 1558.88 Q977.731 1549.04 981.168 1543.88 Q984.632 1538.7 991.168 1538.7 Z" fill="#000000" fill-rule="nonzero" fill-opacity="1" /><path clip-path="url(#clip560)" d="M1018.38 1573.85 L1036.74 1573.85 L1036.74 1578.28 L1012.05 1578.28 L1012.05 1573.85 Q1015.05 1570.75 1020.2 1565.55 Q1025.39 1560.31 1026.71 1558.8 Q1029.24 1555.96 1030.23 1554.01 Q1031.25 1552.03 1031.25 1550.13 Q1031.25 1547.03 1029.06 1545.08 Q1026.9 1543.12 1023.41 1543.12 Q1020.93 1543.12 1018.17 1543.98 Q1015.44 1544.84 1012.31 1546.59 L1012.31 1541.27 Q1015.49 1540 1018.25 1539.35 Q1021.01 1538.7 1023.3 1538.7 Q1029.34 1538.7 1032.94 1541.72 Q1036.53 1544.74 1036.53 1549.79 Q1036.53 1552.19 1035.62 1554.35 Q1034.74 1556.48 1032.37 1559.4 Q1031.71 1560.15 1028.23 1563.77 Q1024.74 1567.37 1018.38 1573.85 Z" fill="#000000" fill-rule="nonzero" fill-opacity="1" /><path clip-path="url(#clip560)" d="M1052.31 1573.85 L1070.67 1573.85 L1070.67 1578.28 L1045.99 1578.28 L1045.99 1573.85 Q1048.98 1570.75 1054.14 1565.55 Q1059.32 1560.31 1060.65 1558.8 Q1063.17 1555.96 1064.16 1554.01 Q1065.18 1552.03 1065.18 1550.13 Q1065.18 1547.03 1062.99 1545.08 Q1060.83 1543.12 1057.34 1543.12 Q1054.87 1543.12 1052.11 1543.98 Q1049.37 1544.84 1046.25 1546.59 L1046.25 1541.27 Q1049.42 1540 1052.18 1539.35 Q1054.94 1538.7 1057.24 1538.7 Q1063.28 1538.7 1066.87 1541.72 Q1070.46 1544.74 1070.46 1549.79 Q1070.46 1552.19 1069.55 1554.35 Q1068.67 1556.48 1066.3 1559.4 Q1065.65 1560.15 1062.16 1563.77 Q1058.67 1567.37 1052.31 1573.85 Z" fill="#000000" fill-rule="nonzero" fill-opacity="1" /><path clip-path="url(#clip560)" d="M1078.62 1561.54 L1092.65 1561.54 L1092.65 1565.81 L1078.62 1565.81 L1078.62 1561.54 Z" fill="#000000" fill-rule="nonzero" fill-opacity="1" /><path clip-path="url(#clip560)" d="M1101.87 1573.85 L1110.46 1573.85 L1110.46 1544.19 L1101.12 1546.07 L1101.12 1541.27 L1110.41 1539.4 L1115.67 1539.4 L1115.67 1573.85 L1124.27 1573.85 L1124.27 1578.28 L1101.87 1578.28 L1101.87 1573.85 Z" fill="#000000" fill-rule="nonzero" fill-opacity="1" /><path clip-path="url(#clip560)" d="M1135.8 1573.85 L1144.4 1573.85 L1144.4 1544.19 L1135.05 1546.07 L1135.05 1541.27 L1144.34 1539.4 L1149.6 1539.4 L1149.6 1573.85 L1158.2 1573.85 L1158.2 1578.28 L1135.8 1578.28 L1135.8 1573.85 Z" fill="#000000" fill-rule="nonzero" fill-opacity="1" /><path clip-path="url(#clip560)" d="M1165.72 1561.54 L1179.76 1561.54 L1179.76 1565.81 L1165.72 1565.81 L1165.72 1561.54 Z" fill="#000000" fill-rule="nonzero" fill-opacity="1" /><path clip-path="url(#clip560)" d="M1199.32 1542.86 Q1195.26 1542.86 1193.2 1546.87 Q1191.17 1550.86 1191.17 1558.88 Q1191.17 1566.87 1193.2 1570.88 Q1195.26 1574.87 1199.32 1574.87 Q1203.41 1574.87 1205.44 1570.88 Q1207.49 1566.87 1207.49 1558.88 Q1207.49 1550.86 1205.44 1546.87 Q1203.41 1542.86 1199.32 1542.86 M1199.32 1538.7 Q1205.85 1538.7 1209.29 1543.88 Q1212.76 1549.04 1212.76 1558.88 Q1212.76 1568.7 1209.29 1573.88 Q1205.85 1579.04 1199.32 1579.04 Q1192.78 1579.04 1189.32 1573.88 Q1185.88 1568.7 1185.88 1558.88 Q1185.88 1549.04 1189.32 1543.88 Q1192.78 1538.7 1199.32 1538.7 Z" fill="#000000" fill-rule="nonzero" fill-opacity="1" /><path clip-path="url(#clip560)" d="M1226.53 1573.85 L1244.89 1573.85 L1244.89 1578.28 L1220.2 1578.28 L1220.2 1573.85 Q1223.2 1570.75 1228.35 1565.55 Q1233.54 1560.31 1234.86 1558.8 Q1237.39 1555.96 1238.38 1554.01 Q1239.4 1552.03 1239.4 1550.13 Q1239.4 1547.03 1237.21 1545.08 Q1235.05 1543.12 1231.56 1543.12 Q1229.08 1543.12 1226.32 1543.98 Q1223.59 1544.84 1220.46 1546.59 L1220.46 1541.27 Q1223.64 1540 1226.4 1539.35 Q1229.16 1538.7 1231.45 1538.7 Q1237.49 1538.7 1241.09 1541.72 Q1244.68 1544.74 1244.68 1549.79 Q1244.68 1552.19 1243.77 1554.35 Q1242.89 1556.48 1240.52 1559.4 Q1239.86 1560.15 1236.37 1563.77 Q1232.89 1567.37 1226.53 1573.85 Z" fill="#000000" fill-rule="nonzero" fill-opacity="1" /><path clip-path="url(#clip560)" d="M1756.61 1573.85 L1774.97 1573.85 L1774.97 1578.28 L1750.28 1578.28 L1750.28 1573.85 Q1753.27 1570.75 1758.43 1565.55 Q1763.61 1560.31 1764.94 1558.8 Q1767.47 1555.96 1768.46 1554.01 Q1769.47 1552.03 1769.47 1550.13 Q1769.47 1547.03 1767.28 1545.08 Q1765.12 1543.12 1761.63 1543.12 Q1759.16 1543.12 1756.4 1543.98 Q1753.67 1544.84 1750.54 1546.59 L1750.54 1541.27 Q1753.72 1540 1756.48 1539.35 Q1759.24 1538.7 1761.53 1538.7 Q1767.57 1538.7 1771.17 1541.72 Q1774.76 1544.74 1774.76 1549.79 Q1774.76 1552.19 1773.85 1554.35 Q1772.96 1556.48 1770.59 1559.4 Q1769.94 1560.15 1766.45 1563.77 Q1762.96 1567.37 1756.61 1573.85 Z" fill="#000000" fill-rule="nonzero" fill-opacity="1" /><path clip-path="url(#clip560)" d="M1797.26 1542.86 Q1793.2 1542.86 1791.14 1546.87 Q1789.11 1550.86 1789.11 1558.88 Q1789.11 1566.87 1791.14 1570.88 Q1793.2 1574.87 1797.26 1574.87 Q1801.35 1574.87 1803.38 1570.88 Q1805.44 1566.87 1805.44 1558.88 Q1805.44 1550.86 1803.38 1546.87 Q1801.35 1542.86 1797.26 1542.86 M1797.26 1538.7 Q1803.8 1538.7 1807.23 1543.88 Q1810.7 1549.04 1810.7 1558.88 Q1810.7 1568.7 1807.23 1573.88 Q1803.8 1579.04 1797.26 1579.04 Q1790.72 1579.04 1787.26 1573.88 Q1783.82 1568.7 1783.82 1558.88 Q1783.82 1549.04 1787.26 1543.88 Q1790.72 1538.7 1797.26 1538.7 Z" fill="#000000" fill-rule="nonzero" fill-opacity="1" /><path clip-path="url(#clip560)" d="M1824.47 1573.85 L1842.83 1573.85 L1842.83 1578.28 L1818.14 1578.28 L1818.14 1573.85 Q1821.14 1570.75 1826.29 1565.55 Q1831.48 1560.31 1832.81 1558.8 Q1835.33 1555.96 1836.32 1554.01 Q1837.34 1552.03 1837.34 1550.13 Q1837.34 1547.03 1835.15 1545.08 Q1832.99 1543.12 1829.5 1543.12 Q1827.02 1543.12 1824.26 1543.98 Q1821.53 1544.84 1818.4 1546.59 L1818.4 1541.27 Q1821.58 1540 1824.34 1539.35 Q1827.1 1538.7 1829.39 1538.7 Q1835.44 1538.7 1839.03 1541.72 Q1842.62 1544.74 1842.62 1549.79 Q1842.62 1552.19 1841.71 1554.35 Q1840.83 1556.48 1838.46 1559.4 Q1837.81 1560.15 1834.32 1563.77 Q1830.83 1567.37 1824.47 1573.85 Z" fill="#000000" fill-rule="nonzero" fill-opacity="1" /><path clip-path="url(#clip560)" d="M1858.4 1573.85 L1876.76 1573.85 L1876.76 1578.28 L1852.08 1578.28 L1852.08 1573.85 Q1855.07 1570.75 1860.23 1565.55 Q1865.41 1560.31 1866.74 1558.8 Q1869.26 1555.96 1870.25 1554.01 Q1871.27 1552.03 1871.27 1550.13 Q1871.27 1547.03 1869.08 1545.08 Q1866.92 1543.12 1863.43 1543.12 Q1860.96 1543.12 1858.2 1543.98 Q1855.46 1544.84 1852.34 1546.59 L1852.34 1541.27 Q1855.51 1540 1858.27 1539.35 Q1861.03 1538.7 1863.33 1538.7 Q1869.37 1538.7 1872.96 1541.72 Q1876.56 1544.74 1876.56 1549.79 Q1876.56 1552.19 1875.64 1554.35 Q1874.76 1556.48 1872.39 1559.4 Q1871.74 1560.15 1868.25 1563.77 Q1864.76 1567.37 1858.4 1573.85 Z" fill="#000000" fill-rule="nonzero" fill-opacity="1" /><path clip-path="url(#clip560)" d="M1884.71 1561.54 L1898.74 1561.54 L1898.74 1565.81 L1884.71 1565.81 L1884.71 1561.54 Z" fill="#000000" fill-rule="nonzero" fill-opacity="1" /><path clip-path="url(#clip560)" d="M1907.96 1573.85 L1916.55 1573.85 L1916.55 1544.19 L1907.21 1546.07 L1907.21 1541.27 L1916.5 1539.4 L1921.76 1539.4 L1921.76 1573.85 L1930.36 1573.85 L1930.36 1578.28 L1907.96 1578.28 L1907.96 1573.85 Z" fill="#000000" fill-rule="nonzero" fill-opacity="1" /><path clip-path="url(#clip560)" d="M1941.89 1573.85 L1950.49 1573.85 L1950.49 1544.19 L1941.14 1546.07 L1941.14 1541.27 L1950.43 1539.4 L1955.7 1539.4 L1955.7 1573.85 L1964.29 1573.85 L1964.29 1578.28 L1941.89 1578.28 L1941.89 1573.85 Z" fill="#000000" fill-rule="nonzero" fill-opacity="1" /><path clip-path="url(#clip560)" d="M1971.81 1561.54 L1985.85 1561.54 L1985.85 1565.81 L1971.81 1565.81 L1971.81 1561.54 Z" fill="#000000" fill-rule="nonzero" fill-opacity="1" /><path clip-path="url(#clip560)" d="M2005.41 1542.86 Q2001.35 1542.86 1999.29 1546.87 Q1997.26 1550.86 1997.26 1558.88 Q1997.26 1566.87 1999.29 1570.88 Q2001.35 1574.87 2005.41 1574.87 Q2009.5 1574.87 2011.53 1570.88 Q2013.59 1566.87 2013.59 1558.88 Q2013.59 1550.86 2011.53 1546.87 Q2009.5 1542.86 2005.41 1542.86 M2005.41 1538.7 Q2011.94 1538.7 2015.38 1543.88 Q2018.85 1549.04 2018.85 1558.88 Q2018.85 1568.7 2015.38 1573.88 Q2011.94 1579.04 2005.41 1579.04 Q1998.87 1579.04 1995.41 1573.88 Q1991.97 1568.7 1991.97 1558.88 Q1991.97 1549.04 1995.41 1543.88 Q1998.87 1538.7 2005.41 1538.7 Z" fill="#000000" fill-rule="nonzero" fill-opacity="1" /><path clip-path="url(#clip560)" d="M2042.54 1543.98 L2029.26 1564.74 L2042.54 1564.74 L2042.54 1543.98 M2041.16 1539.4 L2047.78 1539.4 L2047.78 1564.74 L2053.32 1564.74 L2053.32 1569.11 L2047.78 1569.11 L2047.78 1578.28 L2042.54 1578.28 L2042.54 1569.11 L2024.99 1569.11 L2024.99 1564.04 L2041.16 1539.4 Z" fill="#000000" fill-rule="nonzero" fill-opacity="1" /><path clip-path="url(#clip560)" d="M2564.05 1573.85 L2582.41 1573.85 L2582.41 1578.28 L2557.72 1578.28 L2557.72 1573.85 Q2560.72 1570.75 2565.88 1565.55 Q2571.06 1560.31 2572.39 1558.8 Q2574.91 1555.96 2575.9 1554.01 Q2576.92 1552.03 2576.92 1550.13 Q2576.92 1547.03 2574.73 1545.08 Q2572.57 1543.12 2569.08 1543.12 Q2566.6 1543.12 2563.84 1543.98 Q2561.11 1544.84 2557.98 1546.59 L2557.98 1541.27 Q2561.16 1540 2563.92 1539.35 Q2566.68 1538.7 2568.97 1538.7 Q2575.02 1538.7 2578.61 1541.72 Q2582.2 1544.74 2582.2 1549.79 Q2582.2 1552.19 2581.29 1554.35 Q2580.41 1556.48 2578.04 1559.4 Q2577.39 1560.15 2573.9 1563.77 Q2570.41 1567.37 2564.05 1573.85 Z" fill="#000000" fill-rule="nonzero" fill-opacity="1" /><path clip-path="url(#clip560)" d="M2604.7 1542.86 Q2600.64 1542.86 2598.58 1546.87 Q2596.55 1550.86 2596.55 1558.88 Q2596.55 1566.87 2598.58 1570.88 Q2600.64 1574.87 2604.7 1574.87 Q2608.79 1574.87 2610.82 1570.88 Q2612.88 1566.87 2612.88 1558.88 Q2612.88 1550.86 2610.82 1546.87 Q2608.79 1542.86 2604.7 1542.86 M2604.7 1538.7 Q2611.24 1538.7 2614.68 1543.88 Q2618.14 1549.04 2618.14 1558.88 Q2618.14 1568.7 2614.68 1573.88 Q2611.24 1579.04 2604.7 1579.04 Q2598.17 1579.04 2594.7 1573.88 Q2591.27 1568.7 2591.27 1558.88 Q2591.27 1549.04 2594.7 1543.88 Q2598.17 1538.7 2604.7 1538.7 Z" fill="#000000" fill-rule="nonzero" fill-opacity="1" /><path clip-path="url(#clip560)" d="M2631.92 1573.85 L2650.28 1573.85 L2650.28 1578.28 L2625.59 1578.28 L2625.59 1573.85 Q2628.58 1570.75 2633.74 1565.55 Q2638.92 1560.31 2640.25 1558.8 Q2642.78 1555.96 2643.77 1554.01 Q2644.78 1552.03 2644.78 1550.13 Q2644.78 1547.03 2642.59 1545.08 Q2640.43 1543.12 2636.94 1543.12 Q2634.47 1543.12 2631.71 1543.98 Q2628.97 1544.84 2625.85 1546.59 L2625.85 1541.27 Q2629.03 1540 2631.79 1539.35 Q2634.55 1538.7 2636.84 1538.7 Q2642.88 1538.7 2646.47 1541.72 Q2650.07 1544.74 2650.07 1549.79 Q2650.07 1552.19 2649.16 1554.35 Q2648.27 1556.48 2645.9 1559.4 Q2645.25 1560.15 2641.76 1563.77 Q2638.27 1567.37 2631.92 1573.85 Z" fill="#000000" fill-rule="nonzero" fill-opacity="1" /><path clip-path="url(#clip560)" d="M2665.85 1573.85 L2684.21 1573.85 L2684.21 1578.28 L2659.52 1578.28 L2659.52 1573.85 Q2662.52 1570.75 2667.67 1565.55 Q2672.85 1560.31 2674.18 1558.8 Q2676.71 1555.96 2677.7 1554.01 Q2678.71 1552.03 2678.71 1550.13 Q2678.71 1547.03 2676.53 1545.08 Q2674.36 1543.12 2670.87 1543.12 Q2668.4 1543.12 2665.64 1543.98 Q2662.91 1544.84 2659.78 1546.59 L2659.78 1541.27 Q2662.96 1540 2665.72 1539.35 Q2668.48 1538.7 2670.77 1538.7 Q2676.81 1538.7 2680.41 1541.72 Q2684 1544.74 2684 1549.79 Q2684 1552.19 2683.09 1554.35 Q2682.2 1556.48 2679.83 1559.4 Q2679.18 1560.15 2675.69 1563.77 Q2672.2 1567.37 2665.85 1573.85 Z" fill="#000000" fill-rule="nonzero" fill-opacity="1" /><path clip-path="url(#clip560)" d="M2692.15 1561.54 L2706.19 1561.54 L2706.19 1565.81 L2692.15 1565.81 L2692.15 1561.54 Z" fill="#000000" fill-rule="nonzero" fill-opacity="1" /><path clip-path="url(#clip560)" d="M2715.41 1573.85 L2724 1573.85 L2724 1544.19 L2714.65 1546.07 L2714.65 1541.27 L2723.95 1539.4 L2729.21 1539.4 L2729.21 1573.85 L2737.8 1573.85 L2737.8 1578.28 L2715.41 1578.28 L2715.41 1573.85 Z" fill="#000000" fill-rule="nonzero" fill-opacity="1" /><path clip-path="url(#clip560)" d="M2749.34 1573.85 L2757.93 1573.85 L2757.93 1544.19 L2748.58 1546.07 L2748.58 1541.27 L2757.88 1539.4 L2763.14 1539.4 L2763.14 1573.85 L2771.73 1573.85 L2771.73 1578.28 L2749.34 1578.28 L2749.34 1573.85 Z" fill="#000000" fill-rule="nonzero" fill-opacity="1" /><path clip-path="url(#clip560)" d="M2779.26 1561.54 L2793.3 1561.54 L2793.3 1565.81 L2779.26 1565.81 L2779.26 1561.54 Z" fill="#000000" fill-rule="nonzero" fill-opacity="1" /><path clip-path="url(#clip560)" d="M2812.85 1542.86 Q2808.79 1542.86 2806.73 1546.87 Q2804.7 1550.86 2804.7 1558.88 Q2804.7 1566.87 2806.73 1570.88 Q2808.79 1574.87 2812.85 1574.87 Q2816.94 1574.87 2818.97 1570.88 Q2821.03 1566.87 2821.03 1558.88 Q2821.03 1550.86 2818.97 1546.87 Q2816.94 1542.86 2812.85 1542.86 M2812.85 1538.7 Q2819.39 1538.7 2822.83 1543.88 Q2826.29 1549.04 2826.29 1558.88 Q2826.29 1568.7 2822.83 1573.88 Q2819.39 1579.04 2812.85 1579.04 Q2806.32 1579.04 2802.85 1573.88 Q2799.42 1568.7 2799.42 1558.88 Q2799.42 1549.04 2802.85 1543.88 Q2806.32 1538.7 2812.85 1538.7 Z" fill="#000000" fill-rule="nonzero" fill-opacity="1" /><path clip-path="url(#clip560)" d="M2847.44 1556.74 Q2843.89 1556.74 2841.81 1559.17 Q2839.75 1561.59 2839.75 1565.81 Q2839.75 1570 2841.81 1572.45 Q2843.89 1574.87 2847.44 1574.87 Q2850.98 1574.87 2853.04 1572.45 Q2855.12 1570 2855.12 1565.81 Q2855.12 1561.59 2853.04 1559.17 Q2850.98 1556.74 2847.44 1556.74 M2857.88 1540.26 L2857.88 1545.05 Q2855.9 1544.11 2853.87 1543.62 Q2851.86 1543.12 2849.88 1543.12 Q2844.68 1543.12 2841.92 1546.64 Q2839.18 1550.16 2838.79 1557.26 Q2840.33 1555 2842.64 1553.8 Q2844.96 1552.58 2847.75 1552.58 Q2853.61 1552.58 2856.99 1556.14 Q2860.41 1559.69 2860.41 1565.81 Q2860.41 1571.8 2856.86 1575.42 Q2853.32 1579.04 2847.44 1579.04 Q2840.69 1579.04 2837.12 1573.88 Q2833.56 1568.7 2833.56 1558.88 Q2833.56 1549.66 2837.93 1544.19 Q2842.31 1538.7 2849.68 1538.7 Q2851.66 1538.7 2853.66 1539.09 Q2855.69 1539.48 2857.88 1540.26 Z" fill="#000000" fill-rule="nonzero" fill-opacity="1" /><polyline clip-path="url(#clip562)" style="stroke:#000000; stroke-linecap:round; stroke-linejoin:round; stroke-width:2; stroke-opacity:0.1; fill:none" points="203.019,1306.87 3180.14,1306.87 "/>
<polyline clip-path="url(#clip562)" style="stroke:#000000; stroke-linecap:round; stroke-linejoin:round; stroke-width:2; stroke-opacity:0.1; fill:none" points="203.019,1030.97 3180.14,1030.97 "/>
<polyline clip-path="url(#clip562)" style="stroke:#000000; stroke-linecap:round; stroke-linejoin:round; stroke-width:2; stroke-opacity:0.1; fill:none" points="203.019,755.065 3180.14,755.065 "/>
<polyline clip-path="url(#clip562)" style="stroke:#000000; stroke-linecap:round; stroke-linejoin:round; stroke-width:2; stroke-opacity:0.1; fill:none" points="203.019,479.16 3180.14,479.16 "/>
<polyline clip-path="url(#clip562)" style="stroke:#000000; stroke-linecap:round; stroke-linejoin:round; stroke-width:2; stroke-opacity:0.1; fill:none" points="203.019,203.255 3180.14,203.255 "/>
<polyline clip-path="url(#clip560)" style="stroke:#000000; stroke-linecap:round; stroke-linejoin:round; stroke-width:4; stroke-opacity:1; fill:none" points="203.019,1497.68 203.019,47.2441 "/>
<polyline clip-path="url(#clip560)" style="stroke:#000000; stroke-linecap:round; stroke-linejoin:round; stroke-width:4; stroke-opacity:1; fill:none" points="203.019,1306.87 218.023,1306.87 "/>
<polyline clip-path="url(#clip560)" style="stroke:#000000; stroke-linecap:round; stroke-linejoin:round; stroke-width:4; stroke-opacity:1; fill:none" points="203.019,1030.97 218.023,1030.97 "/>
<polyline clip-path="url(#clip560)" style="stroke:#000000; stroke-linecap:round; stroke-linejoin:round; stroke-width:4; stroke-opacity:1; fill:none" points="203.019,755.065 218.023,755.065 "/>
<polyline clip-path="url(#clip560)" style="stroke:#000000; stroke-linecap:round; stroke-linejoin:round; stroke-width:4; stroke-opacity:1; fill:none" points="203.019,479.16 218.023,479.16 "/>
<polyline clip-path="url(#clip560)" style="stroke:#000000; stroke-linecap:round; stroke-linejoin:round; stroke-width:4; stroke-opacity:1; fill:none" points="203.019,203.255 218.023,203.255 "/>
<path clip-path="url(#clip560)" d="M130.051 1304.78 Q126.509 1304.78 124.426 1307.2 Q122.368 1309.62 122.368 1313.84 Q122.368 1318.03 124.426 1320.48 Q126.509 1322.9 130.051 1322.9 Q133.592 1322.9 135.649 1320.48 Q137.733 1318.03 137.733 1313.84 Q137.733 1309.62 135.649 1307.2 Q133.592 1304.78 130.051 1304.78 M140.493 1288.29 L140.493 1293.09 Q138.514 1292.15 136.483 1291.65 Q134.478 1291.16 132.498 1291.16 Q127.29 1291.16 124.53 1294.67 Q121.795 1298.19 121.405 1305.3 Q122.941 1303.03 125.259 1301.84 Q127.577 1300.61 130.363 1300.61 Q136.222 1300.61 139.608 1304.18 Q143.019 1307.72 143.019 1313.84 Q143.019 1319.83 139.478 1323.45 Q135.936 1327.07 130.051 1327.07 Q123.306 1327.07 119.738 1321.91 Q116.17 1316.73 116.17 1306.91 Q116.17 1297.7 120.545 1292.23 Q124.92 1286.73 132.29 1286.73 Q134.269 1286.73 136.274 1287.12 Q138.306 1287.51 140.493 1288.29 Z" fill="#000000" fill-rule="nonzero" fill-opacity="1" /><path clip-path="url(#clip560)" d="M118.696 1049.6 L118.696 1044.81 Q120.676 1045.75 122.707 1046.24 Q124.738 1046.74 126.691 1046.74 Q131.899 1046.74 134.634 1043.25 Q137.394 1039.73 137.785 1032.6 Q136.274 1034.84 133.957 1036.03 Q131.639 1037.23 128.827 1037.23 Q122.993 1037.23 119.582 1033.72 Q116.196 1030.18 116.196 1024.06 Q116.196 1018.07 119.738 1014.45 Q123.28 1010.83 129.165 1010.83 Q135.91 1010.83 139.452 1016.01 Q143.019 1021.17 143.019 1031.01 Q143.019 1040.2 138.644 1045.7 Q134.295 1051.16 126.926 1051.16 Q124.946 1051.16 122.915 1050.77 Q120.884 1050.38 118.696 1049.6 M129.165 1033.12 Q132.707 1033.12 134.764 1030.7 Q136.847 1028.27 136.847 1024.06 Q136.847 1019.86 134.764 1017.44 Q132.707 1014.99 129.165 1014.99 Q125.623 1014.99 123.54 1017.44 Q121.483 1019.86 121.483 1024.06 Q121.483 1028.27 123.54 1030.7 Q125.623 1033.12 129.165 1033.12 Z" fill="#000000" fill-rule="nonzero" fill-opacity="1" /><path clip-path="url(#clip560)" d="M87.1081 770.078 L95.7018 770.078 L95.7018 740.416 L86.3529 742.291 L86.3529 737.5 L95.6497 735.625 L100.91 735.625 L100.91 770.078 L109.504 770.078 L109.504 774.505 L87.1081 774.505 L87.1081 770.078 Z" fill="#000000" fill-rule="nonzero" fill-opacity="1" /><path clip-path="url(#clip560)" d="M124.66 770.078 L143.019 770.078 L143.019 774.505 L118.332 774.505 L118.332 770.078 Q121.327 766.979 126.483 761.77 Q131.665 756.536 132.993 755.026 Q135.519 752.187 136.509 750.234 Q137.524 748.255 137.524 746.354 Q137.524 743.255 135.337 741.302 Q133.176 739.349 129.686 739.349 Q127.212 739.349 124.452 740.208 Q121.717 741.067 118.592 742.812 L118.592 737.5 Q121.769 736.224 124.53 735.573 Q127.29 734.922 129.582 734.922 Q135.623 734.922 139.217 737.942 Q142.811 740.963 142.811 746.015 Q142.811 748.411 141.899 750.572 Q141.014 752.708 138.644 755.625 Q137.993 756.38 134.504 760 Q131.014 763.593 124.66 770.078 Z" fill="#000000" fill-rule="nonzero" fill-opacity="1" /><path clip-path="url(#clip560)" d="M86.431 494.173 L95.0247 494.173 L95.0247 464.511 L85.6758 466.386 L85.6758 461.595 L94.9726 459.72 L100.233 459.72 L100.233 494.173 L108.827 494.173 L108.827 498.6 L86.431 498.6 L86.431 494.173 Z" fill="#000000" fill-rule="nonzero" fill-opacity="1" /><path clip-path="url(#clip560)" d="M119.504 459.72 L140.155 459.72 L140.155 464.147 L124.321 464.147 L124.321 473.678 Q125.467 473.287 126.613 473.105 Q127.759 472.897 128.905 472.897 Q135.415 472.897 139.217 476.464 Q143.019 480.032 143.019 486.126 Q143.019 492.402 139.113 495.891 Q135.207 499.355 128.097 499.355 Q125.65 499.355 123.097 498.938 Q120.571 498.521 117.863 497.688 L117.863 492.402 Q120.207 493.678 122.707 494.303 Q125.207 494.928 127.993 494.928 Q132.498 494.928 135.129 492.558 Q137.759 490.188 137.759 486.126 Q137.759 482.063 135.129 479.693 Q132.498 477.324 127.993 477.324 Q125.884 477.324 123.775 477.792 Q121.691 478.261 119.504 479.251 L119.504 459.72 Z" fill="#000000" fill-rule="nonzero" fill-opacity="1" /><path clip-path="url(#clip560)" d="M85.4154 218.268 L94.0091 218.268 L94.0091 188.606 L84.6602 190.481 L84.6602 185.69 L93.957 183.815 L99.2174 183.815 L99.2174 218.268 L107.811 218.268 L107.811 222.695 L85.4154 222.695 L85.4154 218.268 Z" fill="#000000" fill-rule="nonzero" fill-opacity="1" /><path clip-path="url(#clip560)" d="M129.686 204.231 Q125.936 204.231 123.775 206.236 Q121.639 208.242 121.639 211.757 Q121.639 215.273 123.775 217.278 Q125.936 219.283 129.686 219.283 Q133.436 219.283 135.597 217.278 Q137.759 215.247 137.759 211.757 Q137.759 208.242 135.597 206.236 Q133.462 204.231 129.686 204.231 M124.426 201.992 Q121.04 201.158 119.139 198.841 Q117.264 196.523 117.264 193.19 Q117.264 188.528 120.571 185.82 Q123.905 183.111 129.686 183.111 Q135.493 183.111 138.8 185.82 Q142.108 188.528 142.108 193.19 Q142.108 196.523 140.207 198.841 Q138.332 201.158 134.972 201.992 Q138.774 202.877 140.884 205.455 Q143.019 208.033 143.019 211.757 Q143.019 217.408 139.556 220.429 Q136.118 223.45 129.686 223.45 Q123.254 223.45 119.79 220.429 Q116.353 217.408 116.353 211.757 Q116.353 208.033 118.488 205.455 Q120.624 202.877 124.426 201.992 M122.498 193.684 Q122.498 196.705 124.373 198.398 Q126.275 200.091 129.686 200.091 Q133.071 200.091 134.972 198.398 Q136.899 196.705 136.899 193.684 Q136.899 190.664 134.972 188.971 Q133.071 187.278 129.686 187.278 Q126.275 187.278 124.373 188.971 Q122.498 190.664 122.498 193.684 Z" fill="#000000" fill-rule="nonzero" fill-opacity="1" /><path clip-path="url(#clip560)" d="M-31.4998 930.013 L-31.4998 924.168 L11.7002 924.168 L11.7002 930.013 L-31.4998 930.013 Z" fill="#000000" fill-rule="nonzero" fill-opacity="1" /><path clip-path="url(#clip560)" d="M-7.85992 885.829 L11.7002 885.829 L11.7002 891.153 L-7.68631 891.153 Q-12.287 891.153 -14.5728 892.947 Q-16.8587 894.741 -16.8587 898.329 Q-16.8587 902.641 -14.1099 905.129 Q-11.3611 907.618 -6.61572 907.618 L11.7002 907.618 L11.7002 912.97 L-20.7071 912.97 L-20.7071 907.618 L-15.6724 907.618 Q-18.5948 905.708 -20.0416 903.133 Q-21.4883 900.528 -21.4883 897.143 Q-21.4883 891.559 -18.0161 888.694 Q-14.5728 885.829 -7.85992 885.829 Z" fill="#000000" fill-rule="nonzero" fill-opacity="1" /><path clip-path="url(#clip560)" d="M-33.3227 858.804 L-28.8957 858.804 L-28.8957 863.897 Q-28.8957 866.761 -27.7383 867.89 Q-26.5809 868.989 -23.5716 868.989 L-20.7071 868.989 L-20.7071 860.222 L-16.5694 860.222 L-16.5694 868.989 L11.7002 868.989 L11.7002 874.342 L-16.5694 874.342 L-16.5694 879.435 L-20.7071 879.435 L-20.7071 874.342 L-22.964 874.342 Q-28.3749 874.342 -30.8343 871.825 Q-33.3227 869.308 -33.3227 863.839 L-33.3227 858.804 Z" fill="#000000" fill-rule="nonzero" fill-opacity="1" /><path clip-path="url(#clip560)" d="M-33.3227 854.348 L-33.3227 849.024 L11.7002 849.024 L11.7002 854.348 L-33.3227 854.348 Z" fill="#000000" fill-rule="nonzero" fill-opacity="1" /><path clip-path="url(#clip560)" d="M-16.9745 825.326 Q-16.9745 829.609 -13.618 832.097 Q-10.2905 834.585 -4.47452 834.585 Q1.34142 834.585 4.69788 832.126 Q8.02541 829.638 8.02541 825.326 Q8.02541 821.073 4.66895 818.584 Q1.31248 816.096 -4.47452 816.096 Q-10.2326 816.096 -13.5891 818.584 Q-16.9745 821.073 -16.9745 825.326 M-21.4883 825.326 Q-21.4883 818.382 -16.9745 814.418 Q-12.4606 810.454 -4.47452 810.454 Q3.48261 810.454 8.02541 814.418 Q12.5393 818.382 12.5393 825.326 Q12.5393 832.3 8.02541 836.264 Q3.48261 840.199 -4.47452 840.199 Q-12.4606 840.199 -16.9745 836.264 Q-21.4883 832.3 -21.4883 825.326 Z" fill="#000000" fill-rule="nonzero" fill-opacity="1" /><path clip-path="url(#clip560)" d="M-20.7071 804.725 L-20.7071 799.4 L4.58214 792.745 L-20.7071 786.119 L-20.7071 779.84 L4.58214 773.185 L-20.7071 766.559 L-20.7071 761.235 L11.7002 769.713 L11.7002 775.992 L-14.8622 782.965 L11.7002 789.968 L11.7002 796.247 L-20.7071 804.725 Z" fill="#000000" fill-rule="nonzero" fill-opacity="1" /><path clip-path="url(#clip560)" d="M-33.3227 734.818 L-33.3227 722.549 L-29.185 722.549 L-29.185 729.493 L15.3749 729.493 L15.3749 722.549 L19.5126 722.549 L19.5126 734.818 L-33.3227 734.818 Z" fill="#000000" fill-rule="nonzero" fill-opacity="1" /><path clip-path="url(#clip560)" d="M-31.4998 710.975 L-31.4998 705.13 L6.7812 705.13 L6.7812 684.094 L11.7002 684.094 L11.7002 710.975 L-31.4998 710.975 Z" fill="#000000" fill-rule="nonzero" fill-opacity="1" /><path clip-path="url(#clip560)" d="M-31.4998 668.73 L-31.4998 663.811 L17.1978 678.857 L17.1978 683.776 L-31.4998 668.73 Z" fill="#000000" fill-rule="nonzero" fill-opacity="1" /><path clip-path="url(#clip560)" d="M-19.7522 637.567 L-14.7175 637.567 Q-15.8749 639.824 -16.4536 642.254 Q-17.0323 644.685 -17.0323 647.289 Q-17.0323 651.253 -15.8171 653.25 Q-14.6018 655.217 -12.1712 655.217 Q-10.3194 655.217 -9.2488 653.799 Q-8.20714 652.382 -7.25229 648.099 L-6.8472 646.276 Q-5.63193 640.605 -3.40393 638.232 Q-1.20487 635.831 2.75923 635.831 Q7.2731 635.831 9.90619 639.419 Q12.5393 642.978 12.5393 649.228 Q12.5393 651.832 12.0184 654.667 Q11.5265 657.474 10.5138 660.599 L5.01617 660.599 Q6.54972 657.648 7.33097 654.783 Q8.08328 651.919 8.08328 649.112 Q8.08328 645.35 6.81014 643.325 Q5.50806 641.299 3.16432 641.299 Q0.994196 641.299 -0.163205 642.775 Q-1.32061 644.222 -2.3912 649.17 L-2.82523 651.022 Q-3.86689 655.97 -6.00808 658.169 Q-8.17821 660.368 -11.9398 660.368 Q-16.5115 660.368 -18.9999 657.127 Q-21.4883 653.886 -21.4883 647.926 Q-21.4883 644.974 -21.0543 642.37 Q-20.6203 639.766 -19.7522 637.567 Z" fill="#000000" fill-rule="nonzero" fill-opacity="1" /><path clip-path="url(#clip560)" d="M-33.3227 614.911 L19.5126 614.911 L19.5126 627.179 L15.3749 627.179 L15.3749 620.264 L-29.185 620.264 L-29.185 627.179 L-33.3227 627.179 L-33.3227 614.911 Z" fill="#000000" fill-rule="nonzero" fill-opacity="1" /><polyline clip-path="url(#clip562)" style="stroke:#023eff; stroke-linecap:round; stroke-linejoin:round; stroke-width:5; stroke-opacity:1; fill:none" points="287.277,378.531 304.095,1354.65 320.913,1354.65 337.731,1354.65 354.549,1354.65 371.367,1354.65 388.185,825.88 405.003,1028.62 421.821,1028.62 438.639,1028.62 455.457,1028.62 472.275,1028.62 489.093,1028.62 505.911,957.369 522.729,957.369 539.547,957.369 556.365,1155.82 573.183,1195.97 590.001,1195.97 606.819,1195.97 623.637,1195.97 640.455,1195.97 657.273,1366.86 674.091,1366.86 690.909,1452.01 707.726,1168.93 724.544,1220.42 741.362,1168.93 758.18,1433.16 774.998,1433.16 791.816,1168.93 808.634,920.258 825.452,920.258 842.27,920.258 859.088,920.258 875.906,920.258 892.724,920.258 909.542,920.258 926.36,920.258 943.178,920.258 959.996,1123 976.814,1123 993.632,1123 1010.45,1123 1027.27,1123 1044.09,1190.94 1060.9,1375.96 1077.72,1375.96 1094.54,1433.16 1111.36,1168.93 1128.18,1168.93 1144.99,1168.93 1161.81,1168.93 1178.63,1168.93 1195.45,1168.93 1212.27,920.258 1229.08,920.258 1245.9,920.258 1262.72,920.258 1279.54,920.258 1296.36,920.258 1313.17,920.258 1329.99,920.258 1346.81,920.258 1363.63,1123 1380.45,1123 1397.26,1123 1414.08,1123 1430.9,626.309 1447.72,1190.94 1464.54,1375.96 1481.35,1375.96 1498.17,1452.01 1514.99,1168.93 1531.81,1433.16 1548.62,1433.16 1565.44,1433.16 1582.26,1433.16 1599.08,1168.93 1615.9,920.258 1632.71,920.258 1649.53,920.258 1666.35,920.258 1683.17,920.258 1699.99,920.258 1716.8,920.258 1733.62,920.258 1750.44,920.258 1767.26,1123 1784.08,1190.94 1800.89,1190.94 1817.71,626.309 1834.53,1123 1851.35,1190.94 1868.17,1375.96 1884.98,1375.96 1901.8,1168.93 1918.62,1433.16 1935.44,1433.16 1952.26,1168.93 1969.07,1433.16 1985.89,1168.93 2002.71,1168.93 2019.53,920.258 2036.35,920.258 2053.16,920.258 2069.98,748.609 2086.8,1144.19 2103.62,920.258 2120.44,920.258 2137.25,920.258 2154.07,920.258 2170.89,1123 2187.71,1123 2204.53,1123 2221.34,1123 2238.16,1123 2254.98,1190.94 2271.8,1375.96 2288.62,1375.96 2305.43,1452.01 2322.25,1452.01 2339.07,1452.01 2355.89,1373.9 2372.71,1362.79 2389.52,1452.01 2406.34,1366.92 2423.16,1146.92 2439.98,1043.24 2456.8,1043.24 2473.61,1043.24 2490.43,1146.92 2507.25,1146.92 2524.07,1043.24 2540.89,1146.92 2557.7,1218.71 2574.52,1218.71 2591.34,1218.71 2608.16,1264.63 2624.98,1218.71 2641.79,1218.71 2658.61,1218.71 2675.43,1357.21 2692.25,1357.21 2709.06,1452.01 2725.88,1452.01 2742.7,1452.01 2759.52,1452.01 2776.34,1452.01 2793.15,1452.01 2809.97,1366.92 2826.79,1146.92 2843.61,1146.92 2860.43,1146.92 2877.24,1043.24 2894.06,1146.92 2910.88,1146.92 2927.7,1146.92 2944.52,1146.92 2961.33,1218.71 2978.15,1218.71 2994.97,1218.71 3011.79,1264.63 3028.61,1264.63 3045.42,1218.71 3062.24,1264.63 3079.06,1357.21 3095.88,1043.24 "/>
<polyline clip-path="url(#clip562)" style="stroke:#ff7c00; stroke-linecap:round; stroke-linejoin:round; stroke-width:5; stroke-opacity:1; fill:none" points="287.277,236.363 304.095,1377.88 320.913,1377.88 337.731,1377.88 354.549,1443.9 371.367,1443.9 388.185,1089.19 405.003,1089.19 421.821,1089.19 438.639,1089.19 455.457,945.24 472.275,1089.19 489.093,1069.58 505.911,1089.19 522.729,1089.19 539.547,1089.19 556.365,1169.01 573.183,1169.01 590.001,1169.01 606.819,1169.01 623.637,1169.01 640.455,1169.01 657.273,1312.29 674.091,667.714 690.909,1290.49 707.726,847.11 724.544,244.57 741.362,1144.9 758.18,1456.63 774.998,1290.49 791.816,1144.9 808.634,899.308 825.452,899.308 842.27,899.308 859.088,899.308 875.906,899.308 892.724,899.308 909.542,899.308 926.36,899.308 943.178,899.308 959.996,899.308 976.814,1285.35 993.632,1285.35 1010.45,1285.35 1027.27,847.11 1044.09,847.11 1060.9,847.11 1077.72,847.11 1094.54,1290.49 1111.36,847.11 1128.18,847.11 1144.99,1290.49 1161.81,1290.49 1178.63,1144.9 1195.45,1231.49 1212.27,899.308 1229.08,899.308 1245.9,899.308 1262.72,899.308 1279.54,899.308 1296.36,899.308 1313.17,899.308 1329.99,899.308 1346.81,899.308 1363.63,899.308 1380.45,1026.15 1397.26,1285.35 1414.08,1285.35 1430.9,1285.35 1447.72,847.11 1464.54,847.11 1481.35,847.11 1498.17,847.11 1514.99,847.11 1531.81,1442.99 1548.62,1290.49 1565.44,1442.99 1582.26,847.11 1599.08,847.11 1615.9,899.308 1632.71,899.308 1649.53,899.308 1666.35,899.308 1683.17,899.308 1699.99,899.308 1716.8,899.308 1733.62,899.308 1750.44,899.308 1767.26,1026.15 1784.08,847.11 1800.89,847.11 1817.71,1285.35 1834.53,1026.15 1851.35,1144.9 1868.17,1290.49 1884.98,1290.49 1901.8,1290.49 1918.62,1290.49 1935.44,1290.49 1952.26,1144.9 1969.07,1290.49 1985.89,1290.49 2002.71,1231.49 2019.53,899.308 2036.35,899.308 2053.16,899.308 2069.98,899.308 2086.8,1026.15 2103.62,1442.99 2120.44,899.308 2137.25,899.308 2154.07,899.308 2170.89,899.308 2187.71,1285.35 2204.53,1285.35 2221.34,1285.35 2238.16,1285.35 2254.98,1144.9 2271.8,1290.49 2288.62,1456.63 2305.43,1456.63 2322.25,1456.63 2339.07,1290.49 2355.89,1144.9 2372.71,1144.9 2389.52,1290.49 2406.34,1144.9 2423.16,1111.47 2439.98,1111.47 2456.8,1111.47 2473.61,1111.47 2490.43,1144.9 2507.25,1026.15 2524.07,1111.47 2540.89,1026.15 2557.7,1026.15 2574.52,1026.15 2591.34,1144.9 2608.16,1144.9 2624.98,1111.47 2641.79,1026.15 2658.61,1026.15 2675.43,1144.9 2692.25,1290.49 2709.06,1290.49 2725.88,1290.49 2742.7,1290.49 2759.52,1290.49 2776.34,1456.63 2793.15,1456.63 2809.97,1290.49 2826.79,1026.15 2843.61,1026.15 2860.43,1111.47 2877.24,1111.47 2894.06,1026.15 2910.88,1111.47 2927.7,1111.47 2944.52,1026.15 2961.33,1144.9 2978.15,1026.15 2994.97,1026.15 3011.79,1144.9 3028.61,1144.9 3045.42,1026.15 3062.24,1144.9 3079.06,1144.9 3095.88,1111.47 "/>
<polyline clip-path="url(#clip562)" style="stroke:#1ac938; stroke-linecap:round; stroke-linejoin:round; stroke-width:5; stroke-opacity:1; fill:none" points="287.277,445.131 304.095,1380.96 320.913,1380.96 337.731,1380.96 354.549,1380.96 371.367,1380.96 388.185,1107.59 405.003,1107.59 421.821,1107.59 438.639,1107.59 455.457,914.979 472.275,1107.59 489.093,1107.59 505.911,1107.59 522.729,1107.59 539.547,1107.59 556.365,1107.59 573.183,1107.59 590.001,1107.59 606.819,1107.59 623.637,1107.59 640.455,1282.97 657.273,1282.97 674.091,1069.54 690.909,1255.39 707.726,924.681 724.544,226.592 741.362,710.767 758.18,1442.07 774.998,1255.39 791.816,1255.39 808.634,889.728 825.452,889.728 842.27,889.728 859.088,889.728 875.906,889.728 892.724,889.728 909.542,889.728 926.36,889.728 943.178,1287.08 959.996,1287.08 976.814,1287.08 993.632,710.767 1010.45,710.767 1027.27,710.767 1044.09,710.767 1060.9,924.681 1077.72,924.681 1094.54,1255.39 1111.36,924.681 1128.18,924.681 1144.99,1255.39 1161.81,1255.39 1178.63,710.767 1195.45,710.767 1212.27,889.728 1229.08,889.728 1245.9,889.728 1262.72,889.728 1279.54,889.728 1296.36,889.728 1313.17,889.728 1329.99,889.728 1346.81,1287.08 1363.63,1055.35 1380.45,1055.35 1397.26,1287.08 1414.08,1287.08 1430.9,710.767 1447.72,710.767 1464.54,924.681 1481.35,924.681 1498.17,924.681 1514.99,924.681 1531.81,924.681 1548.62,1255.39 1565.44,924.681 1582.26,924.681 1599.08,710.767 1615.9,889.728 1632.71,889.728 1649.53,1055.35 1666.35,889.728 1683.17,889.728 1699.99,889.728 1716.8,1055.35 1733.62,889.728 1750.44,1287.08 1767.26,710.767 1784.08,710.767 1800.89,710.767 1817.71,710.767 1834.53,1055.35 1851.35,1055.35 1868.17,1255.39 1884.98,1255.39 1901.8,1255.39 1918.62,1255.39 1935.44,1255.39 1952.26,1255.39 1969.07,1255.39 1985.89,1255.39 2002.71,1055.35 2019.53,889.728 2036.35,889.728 2053.16,889.728 2069.98,832.553 2086.8,1055.35 2103.62,710.767 2120.44,1055.35 2137.25,889.728 2154.07,1287.08 2170.89,1287.08 2187.71,1055.35 2204.53,450.649 2221.34,450.649 2238.16,1055.35 2254.98,1055.35 2271.8,1255.39 2288.62,1442.07 2305.43,1442.07 2322.25,1442.07 2339.07,1255.39 2355.89,1055.35 2372.71,1055.35 2389.52,1255.39 2406.34,1255.39 2423.16,1055.35 2439.98,1085.69 2456.8,1085.69 2473.61,1085.69 2490.43,1055.35 2507.25,1055.35 2524.07,1085.69 2540.89,1055.35 2557.7,1055.35 2574.52,1055.35 2591.34,1055.35 2608.16,1055.35 2624.98,1055.35 2641.79,1055.35 2658.61,1055.35 2675.43,1255.39 2692.25,1255.39 2709.06,1255.39 2725.88,1255.39 2742.7,1255.39 2759.52,1255.39 2776.34,1442.07 2793.15,1442.07 2809.97,1255.39 2826.79,1055.35 2843.61,1055.35 2860.43,1055.35 2877.24,1085.69 2894.06,1055.35 2910.88,1055.35 2927.7,1055.35 2944.52,1055.35 2961.33,1055.35 2978.15,1055.35 2994.97,1055.35 3011.79,1255.39 3028.61,1055.35 3045.42,1055.35 3062.24,1255.39 3079.06,1055.35 3095.88,450.649 "/>
<polyline clip-path="url(#clip562)" style="stroke:#e8000b; stroke-linecap:round; stroke-linejoin:round; stroke-width:5; stroke-opacity:1; fill:none" points="287.277,88.2942 304.095,1363.53 320.913,1363.53 337.731,1363.53 354.549,1363.53 371.367,1363.53 388.185,1191.4 405.003,1191.4 421.821,1191.4 438.639,1191.4 455.457,959.354 472.275,1191.4 489.093,1191.4 505.911,1191.4 522.729,1191.4 539.547,1191.4 556.365,1191.4 573.183,1191.4 590.001,1191.4 606.819,1191.4 623.637,1191.4 640.455,1191.4 657.273,1191.4 674.091,959.354 690.909,1412.4 707.726,1412.4 724.544,128.76 741.362,1412.4 758.18,1412.4 774.998,1412.4 791.816,1356.23 808.634,896.947 825.452,896.947 842.27,896.947 859.088,896.947 875.906,896.947 892.724,973.03 909.542,973.03 926.36,973.03 943.178,973.03 959.996,1133.97 976.814,1133.97 993.632,1133.97 1010.45,1133.97 1027.27,1133.97 1044.09,1133.97 1060.9,1363.26 1077.72,1363.26 1094.54,1412.4 1111.36,1412.4 1128.18,1412.4 1144.99,1412.4 1161.81,1412.4 1178.63,1412.4 1195.45,1152.06 1212.27,896.947 1229.08,896.947 1245.9,896.947 1262.72,896.947 1279.54,896.947 1296.36,973.03 1313.17,973.03 1329.99,973.03 1346.81,973.03 1363.63,1133.97 1380.45,1133.97 1397.26,1133.97 1414.08,1133.97 1430.9,1133.97 1447.72,1133.97 1464.54,1363.26 1481.35,1363.26 1498.17,1412.4 1514.99,1412.4 1531.81,1412.4 1548.62,1412.4 1565.44,1412.4 1582.26,1412.4 1599.08,1152.06 1615.9,896.947 1632.71,896.947 1649.53,896.947 1666.35,896.947 1683.17,896.947 1699.99,973.03 1716.8,973.03 1733.62,973.03 1750.44,973.03 1767.26,1133.97 1784.08,1133.97 1800.89,1133.97 1817.71,1133.97 1834.53,1133.97 1851.35,1133.97 1868.17,1363.26 1884.98,1363.26 1901.8,1412.4 1918.62,1412.4 1935.44,1412.4 1952.26,1412.4 1969.07,1412.4 1985.89,1412.4 2002.71,1356.23 2019.53,916.009 2036.35,916.009 2053.16,916.009 2069.98,916.009 2086.8,1084.31 2103.62,1084.31 2120.44,1084.31 2137.25,1084.31 2154.07,1084.31 2170.89,1133.97 2187.71,1133.97 2204.53,450.649 2221.34,450.649 2238.16,450.649 2254.98,450.649 2271.8,450.649 2288.62,450.649 2305.43,1412.4 2322.25,1412.4 2339.07,1412.4 2355.89,1412.4 2372.71,1412.4 2389.52,1412.4 2406.34,1356.23 2423.16,1126.26 2439.98,1126.26 2456.8,1126.26 2473.61,1126.26 2490.43,1126.26 2507.25,1126.26 2524.07,1126.26 2540.89,1126.26 2557.7,1126.26 2574.52,1220.81 2591.34,450.649 2608.16,450.649 2624.98,450.649 2641.79,450.649 2658.61,450.649 2675.43,450.649 2692.25,450.649 2709.06,1412.4 2725.88,1412.4 2742.7,1412.4 2759.52,1412.4 2776.34,1412.4 2793.15,1412.4 2809.97,1356.23 2826.79,1126.26 2843.61,1126.26 2860.43,1126.26 2877.24,1126.26 2894.06,1126.26 2910.88,1126.26 2927.7,1126.26 2944.52,1126.26 2961.33,1126.26 2978.15,450.649 2994.97,450.649 3011.79,450.649 3028.61,450.649 3045.42,450.649 3062.24,450.649 3079.06,450.649 3095.88,450.649 "/>
<path clip-path="url(#clip560)" d="M3305.13 445.512 L3952.76 445.512 L3952.76 95.592 L3305.13 95.592  Z" fill="#ffffff" fill-rule="evenodd" fill-opacity="1"/>
<polyline clip-path="url(#clip560)" style="stroke:#000000; stroke-linecap:round; stroke-linejoin:round; stroke-width:4; stroke-opacity:1; fill:none" points="3305.13,445.512 3952.76,445.512 3952.76,95.592 3305.13,95.592 3305.13,445.512 "/>
<polyline clip-path="url(#clip560)" style="stroke:#023eff; stroke-linecap:round; stroke-linejoin:round; stroke-width:5.625; stroke-opacity:1; fill:none" points="3346.79,153.912 3596.77,153.912 "/>
<path clip-path="url(#clip560)" d="M3643.26 168.977 L3643.26 184.446 L3638.44 184.446 L3638.44 144.185 L3643.26 144.185 L3643.26 148.613 Q3644.77 146.008 3647.06 144.758 Q3649.37 143.482 3652.58 143.482 Q3657.89 143.482 3661.2 147.701 Q3664.53 151.92 3664.53 158.795 Q3664.53 165.67 3661.2 169.888 Q3657.89 174.107 3652.58 174.107 Q3649.37 174.107 3647.06 172.857 Q3644.77 171.581 3643.26 168.977 M3659.56 158.795 Q3659.56 153.508 3657.37 150.514 Q3655.21 147.493 3651.41 147.493 Q3647.6 147.493 3645.42 150.514 Q3643.26 153.508 3643.26 158.795 Q3643.26 164.081 3645.42 167.102 Q3647.6 170.097 3651.41 170.097 Q3655.21 170.097 3657.37 167.102 Q3659.56 164.081 3659.56 158.795 Z" fill="#000000" fill-rule="nonzero" fill-opacity="1" /><path clip-path="url(#clip560)" d="M3689.37 148.665 Q3688.57 148.196 3687.6 147.988 Q3686.67 147.753 3685.52 147.753 Q3681.46 147.753 3679.27 150.409 Q3677.11 153.04 3677.11 157.987 L3677.11 173.352 L3672.29 173.352 L3672.29 144.185 L3677.11 144.185 L3677.11 148.717 Q3678.62 146.06 3681.04 144.784 Q3683.46 143.482 3686.93 143.482 Q3687.42 143.482 3688.02 143.56 Q3688.62 143.613 3689.35 143.743 L3689.37 148.665 Z" fill="#000000" fill-rule="nonzero" fill-opacity="1" /><path clip-path="url(#clip560)" d="M3718.18 157.571 L3718.18 159.915 L3696.15 159.915 Q3696.46 164.862 3699.11 167.467 Q3701.8 170.045 3706.56 170.045 Q3709.32 170.045 3711.9 169.368 Q3714.5 168.691 3717.06 167.336 L3717.06 171.868 Q3714.48 172.961 3711.77 173.534 Q3709.06 174.107 3706.28 174.107 Q3699.3 174.107 3695.21 170.045 Q3691.15 165.982 3691.15 159.055 Q3691.15 151.894 3695 147.701 Q3698.88 143.482 3705.44 143.482 Q3711.33 143.482 3714.74 147.284 Q3718.18 151.06 3718.18 157.571 M3713.38 156.165 Q3713.33 152.232 3711.17 149.889 Q3709.04 147.545 3705.49 147.545 Q3701.48 147.545 3699.06 149.81 Q3696.67 152.076 3696.3 156.191 L3713.38 156.165 Z" fill="#000000" fill-rule="nonzero" fill-opacity="1" /><path clip-path="url(#clip560)" d="M3745.23 148.613 L3745.23 132.831 L3750.03 132.831 L3750.03 173.352 L3745.23 173.352 L3745.23 168.977 Q3743.72 171.581 3741.41 172.857 Q3739.11 174.107 3735.88 174.107 Q3730.6 174.107 3727.27 169.888 Q3723.96 165.67 3723.96 158.795 Q3723.96 151.92 3727.27 147.701 Q3730.6 143.482 3735.88 143.482 Q3739.11 143.482 3741.41 144.758 Q3743.72 146.008 3745.23 148.613 M3728.91 158.795 Q3728.91 164.081 3731.07 167.102 Q3733.25 170.097 3737.06 170.097 Q3740.86 170.097 3743.05 167.102 Q3745.23 164.081 3745.23 158.795 Q3745.23 153.508 3743.05 150.514 Q3740.86 147.493 3737.06 147.493 Q3733.25 147.493 3731.07 150.514 Q3728.91 153.508 3728.91 158.795 Z" fill="#000000" fill-rule="nonzero" fill-opacity="1" /><path clip-path="url(#clip560)" d="M3759.9 144.185 L3764.69 144.185 L3764.69 173.352 L3759.9 173.352 L3759.9 144.185 M3759.9 132.831 L3764.69 132.831 L3764.69 138.899 L3759.9 138.899 L3759.9 132.831 Z" fill="#000000" fill-rule="nonzero" fill-opacity="1" /><path clip-path="url(#clip560)" d="M3795.7 145.305 L3795.7 149.784 Q3793.67 148.665 3791.61 148.118 Q3789.58 147.545 3787.5 147.545 Q3782.84 147.545 3780.26 150.514 Q3777.68 153.456 3777.68 158.795 Q3777.68 164.133 3780.26 167.102 Q3782.84 170.045 3787.5 170.045 Q3789.58 170.045 3791.61 169.498 Q3793.67 168.925 3795.7 167.805 L3795.7 172.232 Q3793.7 173.17 3791.54 173.638 Q3789.4 174.107 3786.98 174.107 Q3780.39 174.107 3776.51 169.967 Q3772.63 165.826 3772.63 158.795 Q3772.63 151.659 3776.54 147.571 Q3780.47 143.482 3787.29 143.482 Q3789.5 143.482 3791.61 143.951 Q3793.72 144.394 3795.7 145.305 Z" fill="#000000" fill-rule="nonzero" fill-opacity="1" /><path clip-path="url(#clip560)" d="M3808.78 135.904 L3808.78 144.185 L3818.64 144.185 L3818.64 147.909 L3808.78 147.909 L3808.78 163.743 Q3808.78 167.31 3809.74 168.326 Q3810.73 169.342 3813.72 169.342 L3818.64 169.342 L3818.64 173.352 L3813.72 173.352 Q3808.18 173.352 3806.07 171.295 Q3803.96 169.211 3803.96 163.743 L3803.96 147.909 L3800.44 147.909 L3800.44 144.185 L3803.96 144.185 L3803.96 135.904 L3808.78 135.904 Z" fill="#000000" fill-rule="nonzero" fill-opacity="1" /><path clip-path="url(#clip560)" d="M3847.11 182.206 L3847.11 185.93 L3819.4 185.93 L3819.4 182.206 L3847.11 182.206 Z" fill="#000000" fill-rule="nonzero" fill-opacity="1" /><path clip-path="url(#clip560)" d="M3852.34 134.472 L3872.99 134.472 L3872.99 138.899 L3857.16 138.899 L3857.16 148.43 Q3858.31 148.04 3859.45 147.857 Q3860.6 147.649 3861.74 147.649 Q3868.25 147.649 3872.06 151.217 Q3875.86 154.784 3875.86 160.878 Q3875.86 167.154 3871.95 170.644 Q3868.05 174.107 3860.94 174.107 Q3858.49 174.107 3855.94 173.69 Q3853.41 173.274 3850.7 172.441 L3850.7 167.154 Q3853.05 168.43 3855.55 169.055 Q3858.05 169.68 3860.83 169.68 Q3865.34 169.68 3867.97 167.31 Q3870.6 164.941 3870.6 160.878 Q3870.6 156.816 3867.97 154.446 Q3865.34 152.076 3860.83 152.076 Q3858.72 152.076 3856.61 152.545 Q3854.53 153.014 3852.34 154.003 L3852.34 134.472 Z" fill="#000000" fill-rule="nonzero" fill-opacity="1" /><path clip-path="url(#clip560)" d="M3890.75 168.925 L3909.11 168.925 L3909.11 173.352 L3884.43 173.352 L3884.43 168.925 Q3887.42 165.826 3892.58 160.618 Q3897.76 155.383 3899.09 153.873 Q3901.61 151.034 3902.6 149.081 Q3903.62 147.102 3903.62 145.201 Q3903.62 142.102 3901.43 140.149 Q3899.27 138.196 3895.78 138.196 Q3893.31 138.196 3890.55 139.055 Q3887.81 139.915 3884.69 141.659 L3884.69 136.347 Q3887.86 135.071 3890.62 134.42 Q3893.38 133.769 3895.68 133.769 Q3901.72 133.769 3905.31 136.79 Q3908.9 139.81 3908.9 144.863 Q3908.9 147.258 3907.99 149.42 Q3907.11 151.555 3904.74 154.472 Q3904.09 155.227 3900.6 158.847 Q3897.11 162.441 3890.75 168.925 Z" fill="#000000" fill-rule="nonzero" fill-opacity="1" /><polyline clip-path="url(#clip560)" style="stroke:#ff7c00; stroke-linecap:round; stroke-linejoin:round; stroke-width:5.625; stroke-opacity:1; fill:none" points="3346.79,212.232 3596.77,212.232 "/>
<path clip-path="url(#clip560)" d="M3643.26 227.297 L3643.26 242.766 L3638.44 242.766 L3638.44 202.505 L3643.26 202.505 L3643.26 206.933 Q3644.77 204.328 3647.06 203.078 Q3649.37 201.802 3652.58 201.802 Q3657.89 201.802 3661.2 206.021 Q3664.53 210.24 3664.53 217.115 Q3664.53 223.99 3661.2 228.208 Q3657.89 232.427 3652.58 232.427 Q3649.37 232.427 3647.06 231.177 Q3644.77 229.901 3643.26 227.297 M3659.56 217.115 Q3659.56 211.828 3657.37 208.834 Q3655.21 205.813 3651.41 205.813 Q3647.6 205.813 3645.42 208.834 Q3643.26 211.828 3643.26 217.115 Q3643.26 222.401 3645.42 225.422 Q3647.6 228.417 3651.41 228.417 Q3655.21 228.417 3657.37 225.422 Q3659.56 222.401 3659.56 217.115 Z" fill="#000000" fill-rule="nonzero" fill-opacity="1" /><path clip-path="url(#clip560)" d="M3689.37 206.985 Q3688.57 206.516 3687.6 206.308 Q3686.67 206.073 3685.52 206.073 Q3681.46 206.073 3679.27 208.729 Q3677.11 211.36 3677.11 216.307 L3677.11 231.672 L3672.29 231.672 L3672.29 202.505 L3677.11 202.505 L3677.11 207.037 Q3678.62 204.38 3681.04 203.104 Q3683.46 201.802 3686.93 201.802 Q3687.42 201.802 3688.02 201.88 Q3688.62 201.933 3689.35 202.063 L3689.37 206.985 Z" fill="#000000" fill-rule="nonzero" fill-opacity="1" /><path clip-path="url(#clip560)" d="M3718.18 215.891 L3718.18 218.235 L3696.15 218.235 Q3696.46 223.182 3699.11 225.787 Q3701.8 228.365 3706.56 228.365 Q3709.32 228.365 3711.9 227.688 Q3714.5 227.011 3717.06 225.656 L3717.06 230.188 Q3714.48 231.281 3711.77 231.854 Q3709.06 232.427 3706.28 232.427 Q3699.3 232.427 3695.21 228.365 Q3691.15 224.302 3691.15 217.375 Q3691.15 210.214 3695 206.021 Q3698.88 201.802 3705.44 201.802 Q3711.33 201.802 3714.74 205.604 Q3718.18 209.38 3718.18 215.891 M3713.38 214.485 Q3713.33 210.552 3711.17 208.209 Q3709.04 205.865 3705.49 205.865 Q3701.48 205.865 3699.06 208.13 Q3696.67 210.396 3696.3 214.511 L3713.38 214.485 Z" fill="#000000" fill-rule="nonzero" fill-opacity="1" /><path clip-path="url(#clip560)" d="M3745.23 206.933 L3745.23 191.151 L3750.03 191.151 L3750.03 231.672 L3745.23 231.672 L3745.23 227.297 Q3743.72 229.901 3741.41 231.177 Q3739.11 232.427 3735.88 232.427 Q3730.6 232.427 3727.27 228.208 Q3723.96 223.99 3723.96 217.115 Q3723.96 210.24 3727.27 206.021 Q3730.6 201.802 3735.88 201.802 Q3739.11 201.802 3741.41 203.078 Q3743.72 204.328 3745.23 206.933 M3728.91 217.115 Q3728.91 222.401 3731.07 225.422 Q3733.25 228.417 3737.06 228.417 Q3740.86 228.417 3743.05 225.422 Q3745.23 222.401 3745.23 217.115 Q3745.23 211.828 3743.05 208.834 Q3740.86 205.813 3737.06 205.813 Q3733.25 205.813 3731.07 208.834 Q3728.91 211.828 3728.91 217.115 Z" fill="#000000" fill-rule="nonzero" fill-opacity="1" /><path clip-path="url(#clip560)" d="M3759.9 202.505 L3764.69 202.505 L3764.69 231.672 L3759.9 231.672 L3759.9 202.505 M3759.9 191.151 L3764.69 191.151 L3764.69 197.219 L3759.9 197.219 L3759.9 191.151 Z" fill="#000000" fill-rule="nonzero" fill-opacity="1" /><path clip-path="url(#clip560)" d="M3795.7 203.625 L3795.7 208.104 Q3793.67 206.985 3791.61 206.438 Q3789.58 205.865 3787.5 205.865 Q3782.84 205.865 3780.26 208.834 Q3777.68 211.776 3777.68 217.115 Q3777.68 222.453 3780.26 225.422 Q3782.84 228.365 3787.5 228.365 Q3789.58 228.365 3791.61 227.818 Q3793.67 227.245 3795.7 226.125 L3795.7 230.552 Q3793.7 231.49 3791.54 231.958 Q3789.4 232.427 3786.98 232.427 Q3780.39 232.427 3776.51 228.287 Q3772.63 224.146 3772.63 217.115 Q3772.63 209.979 3776.54 205.891 Q3780.47 201.802 3787.29 201.802 Q3789.5 201.802 3791.61 202.271 Q3793.72 202.714 3795.7 203.625 Z" fill="#000000" fill-rule="nonzero" fill-opacity="1" /><path clip-path="url(#clip560)" d="M3808.78 194.224 L3808.78 202.505 L3818.64 202.505 L3818.64 206.229 L3808.78 206.229 L3808.78 222.063 Q3808.78 225.63 3809.74 226.646 Q3810.73 227.662 3813.72 227.662 L3818.64 227.662 L3818.64 231.672 L3813.72 231.672 Q3808.18 231.672 3806.07 229.615 Q3803.96 227.531 3803.96 222.063 L3803.96 206.229 L3800.44 206.229 L3800.44 202.505 L3803.96 202.505 L3803.96 194.224 L3808.78 194.224 Z" fill="#000000" fill-rule="nonzero" fill-opacity="1" /><path clip-path="url(#clip560)" d="M3847.11 240.526 L3847.11 244.25 L3819.4 244.25 L3819.4 240.526 L3847.11 240.526 Z" fill="#000000" fill-rule="nonzero" fill-opacity="1" /><path clip-path="url(#clip560)" d="M3856.82 227.245 L3875.18 227.245 L3875.18 231.672 L3850.49 231.672 L3850.49 227.245 Q3853.49 224.146 3858.64 218.938 Q3863.83 213.703 3865.15 212.193 Q3867.68 209.354 3868.67 207.401 Q3869.69 205.422 3869.69 203.521 Q3869.69 200.422 3867.5 198.469 Q3865.34 196.516 3861.85 196.516 Q3859.37 196.516 3856.61 197.375 Q3853.88 198.235 3850.75 199.979 L3850.75 194.667 Q3853.93 193.391 3856.69 192.74 Q3859.45 192.089 3861.74 192.089 Q3867.79 192.089 3871.38 195.11 Q3874.97 198.13 3874.97 203.183 Q3874.97 205.578 3874.06 207.74 Q3873.18 209.875 3870.81 212.792 Q3870.15 213.547 3866.67 217.167 Q3863.18 220.761 3856.82 227.245 Z" fill="#000000" fill-rule="nonzero" fill-opacity="1" /><path clip-path="url(#clip560)" d="M3898.12 210.136 Q3894.58 210.136 3892.5 212.557 Q3890.44 214.979 3890.44 219.198 Q3890.44 223.391 3892.5 225.839 Q3894.58 228.261 3898.12 228.261 Q3901.67 228.261 3903.72 225.839 Q3905.81 223.391 3905.81 219.198 Q3905.81 214.979 3903.72 212.557 Q3901.67 210.136 3898.12 210.136 M3908.57 193.651 L3908.57 198.443 Q3906.59 197.505 3904.56 197.011 Q3902.55 196.516 3900.57 196.516 Q3895.36 196.516 3892.6 200.031 Q3889.87 203.547 3889.48 210.656 Q3891.01 208.391 3893.33 207.193 Q3895.65 205.969 3898.44 205.969 Q3904.3 205.969 3907.68 209.537 Q3911.09 213.078 3911.09 219.198 Q3911.09 225.188 3907.55 228.807 Q3904.01 232.427 3898.12 232.427 Q3891.38 232.427 3887.81 227.271 Q3884.24 222.089 3884.24 212.271 Q3884.24 203.052 3888.62 197.584 Q3892.99 192.089 3900.36 192.089 Q3902.34 192.089 3904.35 192.479 Q3906.38 192.87 3908.57 193.651 Z" fill="#000000" fill-rule="nonzero" fill-opacity="1" /><polyline clip-path="url(#clip560)" style="stroke:#1ac938; stroke-linecap:round; stroke-linejoin:round; stroke-width:5.625; stroke-opacity:1; fill:none" points="3346.79,270.552 3596.77,270.552 "/>
<path clip-path="url(#clip560)" d="M3643.26 285.617 L3643.26 301.086 L3638.44 301.086 L3638.44 260.825 L3643.26 260.825 L3643.26 265.253 Q3644.77 262.648 3647.06 261.398 Q3649.37 260.122 3652.58 260.122 Q3657.89 260.122 3661.2 264.341 Q3664.53 268.56 3664.53 275.435 Q3664.53 282.31 3661.2 286.528 Q3657.89 290.747 3652.58 290.747 Q3649.37 290.747 3647.06 289.497 Q3644.77 288.221 3643.26 285.617 M3659.56 275.435 Q3659.56 270.148 3657.37 267.154 Q3655.21 264.133 3651.41 264.133 Q3647.6 264.133 3645.42 267.154 Q3643.26 270.148 3643.26 275.435 Q3643.26 280.721 3645.42 283.742 Q3647.6 286.737 3651.41 286.737 Q3655.21 286.737 3657.37 283.742 Q3659.56 280.721 3659.56 275.435 Z" fill="#000000" fill-rule="nonzero" fill-opacity="1" /><path clip-path="url(#clip560)" d="M3689.37 265.305 Q3688.57 264.836 3687.6 264.628 Q3686.67 264.393 3685.52 264.393 Q3681.46 264.393 3679.27 267.049 Q3677.11 269.68 3677.11 274.627 L3677.11 289.992 L3672.29 289.992 L3672.29 260.825 L3677.11 260.825 L3677.11 265.357 Q3678.62 262.7 3681.04 261.424 Q3683.46 260.122 3686.93 260.122 Q3687.42 260.122 3688.02 260.2 Q3688.62 260.253 3689.35 260.383 L3689.37 265.305 Z" fill="#000000" fill-rule="nonzero" fill-opacity="1" /><path clip-path="url(#clip560)" d="M3718.18 274.211 L3718.18 276.555 L3696.15 276.555 Q3696.46 281.502 3699.11 284.107 Q3701.8 286.685 3706.56 286.685 Q3709.32 286.685 3711.9 286.008 Q3714.5 285.331 3717.06 283.976 L3717.06 288.508 Q3714.48 289.601 3711.77 290.174 Q3709.06 290.747 3706.28 290.747 Q3699.3 290.747 3695.21 286.685 Q3691.15 282.622 3691.15 275.695 Q3691.15 268.534 3695 264.341 Q3698.88 260.122 3705.44 260.122 Q3711.33 260.122 3714.74 263.924 Q3718.18 267.7 3718.18 274.211 M3713.38 272.805 Q3713.33 268.872 3711.17 266.529 Q3709.04 264.185 3705.49 264.185 Q3701.48 264.185 3699.06 266.45 Q3696.67 268.716 3696.3 272.831 L3713.38 272.805 Z" fill="#000000" fill-rule="nonzero" fill-opacity="1" /><path clip-path="url(#clip560)" d="M3745.23 265.253 L3745.23 249.471 L3750.03 249.471 L3750.03 289.992 L3745.23 289.992 L3745.23 285.617 Q3743.72 288.221 3741.41 289.497 Q3739.11 290.747 3735.88 290.747 Q3730.6 290.747 3727.27 286.528 Q3723.96 282.31 3723.96 275.435 Q3723.96 268.56 3727.27 264.341 Q3730.6 260.122 3735.88 260.122 Q3739.11 260.122 3741.41 261.398 Q3743.72 262.648 3745.23 265.253 M3728.91 275.435 Q3728.91 280.721 3731.07 283.742 Q3733.25 286.737 3737.06 286.737 Q3740.86 286.737 3743.05 283.742 Q3745.23 280.721 3745.23 275.435 Q3745.23 270.148 3743.05 267.154 Q3740.86 264.133 3737.06 264.133 Q3733.25 264.133 3731.07 267.154 Q3728.91 270.148 3728.91 275.435 Z" fill="#000000" fill-rule="nonzero" fill-opacity="1" /><path clip-path="url(#clip560)" d="M3759.9 260.825 L3764.69 260.825 L3764.69 289.992 L3759.9 289.992 L3759.9 260.825 M3759.9 249.471 L3764.69 249.471 L3764.69 255.539 L3759.9 255.539 L3759.9 249.471 Z" fill="#000000" fill-rule="nonzero" fill-opacity="1" /><path clip-path="url(#clip560)" d="M3795.7 261.945 L3795.7 266.424 Q3793.67 265.305 3791.61 264.758 Q3789.58 264.185 3787.5 264.185 Q3782.84 264.185 3780.26 267.154 Q3777.68 270.096 3777.68 275.435 Q3777.68 280.773 3780.26 283.742 Q3782.84 286.685 3787.5 286.685 Q3789.58 286.685 3791.61 286.138 Q3793.67 285.565 3795.7 284.445 L3795.7 288.872 Q3793.7 289.81 3791.54 290.278 Q3789.4 290.747 3786.98 290.747 Q3780.39 290.747 3776.51 286.607 Q3772.63 282.466 3772.63 275.435 Q3772.63 268.299 3776.54 264.211 Q3780.47 260.122 3787.29 260.122 Q3789.5 260.122 3791.61 260.591 Q3793.72 261.034 3795.7 261.945 Z" fill="#000000" fill-rule="nonzero" fill-opacity="1" /><path clip-path="url(#clip560)" d="M3808.78 252.544 L3808.78 260.825 L3818.64 260.825 L3818.64 264.549 L3808.78 264.549 L3808.78 280.383 Q3808.78 283.95 3809.74 284.966 Q3810.73 285.982 3813.72 285.982 L3818.64 285.982 L3818.64 289.992 L3813.72 289.992 Q3808.18 289.992 3806.07 287.935 Q3803.96 285.851 3803.96 280.383 L3803.96 264.549 L3800.44 264.549 L3800.44 260.825 L3803.96 260.825 L3803.96 252.544 L3808.78 252.544 Z" fill="#000000" fill-rule="nonzero" fill-opacity="1" /><path clip-path="url(#clip560)" d="M3847.11 298.846 L3847.11 302.57 L3819.4 302.57 L3819.4 298.846 L3847.11 298.846 Z" fill="#000000" fill-rule="nonzero" fill-opacity="1" /><path clip-path="url(#clip560)" d="M3866.74 255.695 L3853.46 276.45 L3866.74 276.45 L3866.74 255.695 M3865.36 251.112 L3871.98 251.112 L3871.98 276.45 L3877.52 276.45 L3877.52 280.825 L3871.98 280.825 L3871.98 289.992 L3866.74 289.992 L3866.74 280.825 L3849.19 280.825 L3849.19 275.747 L3865.36 251.112 Z" fill="#000000" fill-rule="nonzero" fill-opacity="1" /><polyline clip-path="url(#clip560)" style="stroke:#e8000b; stroke-linecap:round; stroke-linejoin:round; stroke-width:5.625; stroke-opacity:1; fill:none" points="3346.79,328.872 3596.77,328.872 "/>
<path clip-path="url(#clip560)" d="M3643.26 343.937 L3643.26 359.406 L3638.44 359.406 L3638.44 319.145 L3643.26 319.145 L3643.26 323.573 Q3644.77 320.968 3647.06 319.718 Q3649.37 318.442 3652.58 318.442 Q3657.89 318.442 3661.2 322.661 Q3664.53 326.88 3664.53 333.755 Q3664.53 340.63 3661.2 344.848 Q3657.89 349.067 3652.58 349.067 Q3649.37 349.067 3647.06 347.817 Q3644.77 346.541 3643.26 343.937 M3659.56 333.755 Q3659.56 328.468 3657.37 325.474 Q3655.21 322.453 3651.41 322.453 Q3647.6 322.453 3645.42 325.474 Q3643.26 328.468 3643.26 333.755 Q3643.26 339.041 3645.42 342.062 Q3647.6 345.057 3651.41 345.057 Q3655.21 345.057 3657.37 342.062 Q3659.56 339.041 3659.56 333.755 Z" fill="#000000" fill-rule="nonzero" fill-opacity="1" /><path clip-path="url(#clip560)" d="M3689.37 323.625 Q3688.57 323.156 3687.6 322.948 Q3686.67 322.713 3685.52 322.713 Q3681.46 322.713 3679.27 325.369 Q3677.11 328 3677.11 332.947 L3677.11 348.312 L3672.29 348.312 L3672.29 319.145 L3677.11 319.145 L3677.11 323.677 Q3678.62 321.02 3681.04 319.744 Q3683.46 318.442 3686.93 318.442 Q3687.42 318.442 3688.02 318.52 Q3688.62 318.573 3689.35 318.703 L3689.37 323.625 Z" fill="#000000" fill-rule="nonzero" fill-opacity="1" /><path clip-path="url(#clip560)" d="M3718.18 332.531 L3718.18 334.875 L3696.15 334.875 Q3696.46 339.822 3699.11 342.427 Q3701.8 345.005 3706.56 345.005 Q3709.32 345.005 3711.9 344.328 Q3714.5 343.651 3717.06 342.296 L3717.06 346.828 Q3714.48 347.921 3711.77 348.494 Q3709.06 349.067 3706.28 349.067 Q3699.3 349.067 3695.21 345.005 Q3691.15 340.942 3691.15 334.015 Q3691.15 326.854 3695 322.661 Q3698.88 318.442 3705.44 318.442 Q3711.33 318.442 3714.74 322.244 Q3718.18 326.02 3718.18 332.531 M3713.38 331.125 Q3713.33 327.192 3711.17 324.849 Q3709.04 322.505 3705.49 322.505 Q3701.48 322.505 3699.06 324.77 Q3696.67 327.036 3696.3 331.151 L3713.38 331.125 Z" fill="#000000" fill-rule="nonzero" fill-opacity="1" /><path clip-path="url(#clip560)" d="M3745.23 323.573 L3745.23 307.791 L3750.03 307.791 L3750.03 348.312 L3745.23 348.312 L3745.23 343.937 Q3743.72 346.541 3741.41 347.817 Q3739.11 349.067 3735.88 349.067 Q3730.6 349.067 3727.27 344.848 Q3723.96 340.63 3723.96 333.755 Q3723.96 326.88 3727.27 322.661 Q3730.6 318.442 3735.88 318.442 Q3739.11 318.442 3741.41 319.718 Q3743.72 320.968 3745.23 323.573 M3728.91 333.755 Q3728.91 339.041 3731.07 342.062 Q3733.25 345.057 3737.06 345.057 Q3740.86 345.057 3743.05 342.062 Q3745.23 339.041 3745.23 333.755 Q3745.23 328.468 3743.05 325.474 Q3740.86 322.453 3737.06 322.453 Q3733.25 322.453 3731.07 325.474 Q3728.91 328.468 3728.91 333.755 Z" fill="#000000" fill-rule="nonzero" fill-opacity="1" /><path clip-path="url(#clip560)" d="M3759.9 319.145 L3764.69 319.145 L3764.69 348.312 L3759.9 348.312 L3759.9 319.145 M3759.9 307.791 L3764.69 307.791 L3764.69 313.859 L3759.9 313.859 L3759.9 307.791 Z" fill="#000000" fill-rule="nonzero" fill-opacity="1" /><path clip-path="url(#clip560)" d="M3795.7 320.265 L3795.7 324.744 Q3793.67 323.625 3791.61 323.078 Q3789.58 322.505 3787.5 322.505 Q3782.84 322.505 3780.26 325.474 Q3777.68 328.416 3777.68 333.755 Q3777.68 339.093 3780.26 342.062 Q3782.84 345.005 3787.5 345.005 Q3789.58 345.005 3791.61 344.458 Q3793.67 343.885 3795.7 342.765 L3795.7 347.192 Q3793.7 348.13 3791.54 348.598 Q3789.4 349.067 3786.98 349.067 Q3780.39 349.067 3776.51 344.927 Q3772.63 340.786 3772.63 333.755 Q3772.63 326.619 3776.54 322.531 Q3780.47 318.442 3787.29 318.442 Q3789.5 318.442 3791.61 318.911 Q3793.72 319.354 3795.7 320.265 Z" fill="#000000" fill-rule="nonzero" fill-opacity="1" /><path clip-path="url(#clip560)" d="M3808.78 310.864 L3808.78 319.145 L3818.64 319.145 L3818.64 322.869 L3808.78 322.869 L3808.78 338.703 Q3808.78 342.27 3809.74 343.286 Q3810.73 344.302 3813.72 344.302 L3818.64 344.302 L3818.64 348.312 L3813.72 348.312 Q3808.18 348.312 3806.07 346.255 Q3803.96 344.171 3803.96 338.703 L3803.96 322.869 L3800.44 322.869 L3800.44 319.145 L3803.96 319.145 L3803.96 310.864 L3808.78 310.864 Z" fill="#000000" fill-rule="nonzero" fill-opacity="1" /><path clip-path="url(#clip560)" d="M3847.11 357.166 L3847.11 360.89 L3819.4 360.89 L3819.4 357.166 L3847.11 357.166 Z" fill="#000000" fill-rule="nonzero" fill-opacity="1" /><path clip-path="url(#clip560)" d="M3853.2 343.885 L3861.8 343.885 L3861.8 314.224 L3852.45 316.099 L3852.45 311.307 L3861.74 309.432 L3867 309.432 L3867 343.885 L3875.6 343.885 L3875.6 348.312 L3853.2 348.312 L3853.2 343.885 Z" fill="#000000" fill-rule="nonzero" fill-opacity="1" /><polyline clip-path="url(#clip560)" style="stroke:#000000; stroke-linecap:round; stroke-linejoin:round; stroke-width:6.75; stroke-opacity:1; fill:none" points="3346.79,387.192 3596.77,387.192 "/>
<path clip-path="url(#clip560)" d="M3653.52 391.971 Q3647.71 391.971 3645.47 393.299 Q3643.23 394.627 3643.23 397.83 Q3643.23 400.382 3644.9 401.892 Q3646.59 403.377 3649.48 403.377 Q3653.46 403.377 3655.86 400.564 Q3658.28 397.726 3658.28 393.038 L3658.28 391.971 L3653.52 391.971 M3663.07 389.991 L3663.07 406.632 L3658.28 406.632 L3658.28 402.205 Q3656.64 404.861 3654.19 406.137 Q3651.74 407.387 3648.2 407.387 Q3643.72 407.387 3641.07 404.887 Q3638.44 402.361 3638.44 398.142 Q3638.44 393.221 3641.72 390.721 Q3645.03 388.221 3651.56 388.221 L3658.28 388.221 L3658.28 387.752 Q3658.28 384.445 3656.09 382.648 Q3653.93 380.825 3650 380.825 Q3647.5 380.825 3645.13 381.424 Q3642.76 382.023 3640.57 383.221 L3640.57 378.794 Q3643.2 377.778 3645.68 377.283 Q3648.15 376.762 3650.49 376.762 Q3656.82 376.762 3659.95 380.044 Q3663.07 383.325 3663.07 389.991 Z" fill="#000000" fill-rule="nonzero" fill-opacity="1" /><path clip-path="url(#clip560)" d="M3693.93 378.585 L3693.93 383.064 Q3691.9 381.945 3689.84 381.398 Q3687.81 380.825 3685.73 380.825 Q3681.07 380.825 3678.49 383.794 Q3675.91 386.736 3675.91 392.075 Q3675.91 397.413 3678.49 400.382 Q3681.07 403.325 3685.73 403.325 Q3687.81 403.325 3689.84 402.778 Q3691.9 402.205 3693.93 401.085 L3693.93 405.512 Q3691.93 406.45 3689.77 406.918 Q3687.63 407.387 3685.21 407.387 Q3678.62 407.387 3674.74 403.247 Q3670.86 399.106 3670.86 392.075 Q3670.86 384.939 3674.77 380.851 Q3678.7 376.762 3685.52 376.762 Q3687.73 376.762 3689.84 377.231 Q3691.95 377.674 3693.93 378.585 Z" fill="#000000" fill-rule="nonzero" fill-opacity="1" /><path clip-path="url(#clip560)" d="M3707 369.184 L3707 377.465 L3716.87 377.465 L3716.87 381.189 L3707 381.189 L3707 397.023 Q3707 400.59 3707.97 401.606 Q3708.96 402.622 3711.95 402.622 L3716.87 402.622 L3716.87 406.632 L3711.95 406.632 Q3706.41 406.632 3704.3 404.575 Q3702.19 402.491 3702.19 397.023 L3702.19 381.189 L3698.67 381.189 L3698.67 377.465 L3702.19 377.465 L3702.19 369.184 L3707 369.184 Z" fill="#000000" fill-rule="nonzero" fill-opacity="1" /><path clip-path="url(#clip560)" d="M3722.68 395.122 L3722.68 377.465 L3727.47 377.465 L3727.47 394.939 Q3727.47 399.08 3729.09 401.163 Q3730.7 403.221 3733.93 403.221 Q3737.81 403.221 3740.05 400.747 Q3742.32 398.273 3742.32 394.002 L3742.32 377.465 L3747.11 377.465 L3747.11 406.632 L3742.32 406.632 L3742.32 402.153 Q3740.57 404.809 3738.25 406.111 Q3735.96 407.387 3732.92 407.387 Q3727.89 407.387 3725.29 404.262 Q3722.68 401.137 3722.68 395.122 M3734.74 376.762 L3734.74 376.762 Z" fill="#000000" fill-rule="nonzero" fill-opacity="1" /><path clip-path="url(#clip560)" d="M3770.23 391.971 Q3764.43 391.971 3762.19 393.299 Q3759.95 394.627 3759.95 397.83 Q3759.95 400.382 3761.61 401.892 Q3763.31 403.377 3766.2 403.377 Q3770.18 403.377 3772.58 400.564 Q3775 397.726 3775 393.038 L3775 391.971 L3770.23 391.971 M3779.79 389.991 L3779.79 406.632 L3775 406.632 L3775 402.205 Q3773.36 404.861 3770.91 406.137 Q3768.46 407.387 3764.92 407.387 Q3760.44 407.387 3757.79 404.887 Q3755.16 402.361 3755.16 398.142 Q3755.16 393.221 3758.44 390.721 Q3761.74 388.221 3768.28 388.221 L3775 388.221 L3775 387.752 Q3775 384.445 3772.81 382.648 Q3770.65 380.825 3766.72 380.825 Q3764.22 380.825 3761.85 381.424 Q3759.48 382.023 3757.29 383.221 L3757.29 378.794 Q3759.92 377.778 3762.4 377.283 Q3764.87 376.762 3767.21 376.762 Q3773.54 376.762 3776.67 380.044 Q3779.79 383.325 3779.79 389.991 Z" fill="#000000" fill-rule="nonzero" fill-opacity="1" /><path clip-path="url(#clip560)" d="M3789.66 366.111 L3794.45 366.111 L3794.45 406.632 L3789.66 406.632 L3789.66 366.111 Z" fill="#000000" fill-rule="nonzero" fill-opacity="1" /></svg>
