<?xml version="1.0" encoding="utf-8"?>
<svg xmlns="http://www.w3.org/2000/svg" xmlns:xlink="http://www.w3.org/1999/xlink" width="1000" height="400" viewBox="0 0 4000 1600">
<defs>
  <clipPath id="clip320">
    <rect x="0" y="0" width="4000" height="1600"/>
  </clipPath>
</defs>
<path clip-path="url(#clip320)" d="M0 1600 L4000 1600 L4000 0 L0 0  Z" fill="#ffffff" fill-rule="evenodd" fill-opacity="1"/>
<defs>
  <clipPath id="clip321">
    <rect x="800" y="0" width="2801" height="1600"/>
  </clipPath>
</defs>
<path clip-path="url(#clip320)" d="M205.077 1497.68 L3180.41 1497.68 L3180.41 47.2441 L205.077 47.2441  Z" fill="#ffffff" fill-rule="evenodd" fill-opacity="1"/>
<defs>
  <clipPath id="clip322">
    <rect x="205" y="47" width="2976" height="1451"/>
  </clipPath>
</defs>
<polyline clip-path="url(#clip322)" style="stroke:#000000; stroke-linecap:round; stroke-linejoin:round; stroke-width:2; stroke-opacity:0.1; fill:none" points="289.284,1497.68 289.284,47.2441 "/>
<polyline clip-path="url(#clip322)" style="stroke:#000000; stroke-linecap:round; stroke-linejoin:round; stroke-width:2; stroke-opacity:0.1; fill:none" points="1096.06,1497.68 1096.06,47.2441 "/>
<polyline clip-path="url(#clip322)" style="stroke:#000000; stroke-linecap:round; stroke-linejoin:round; stroke-width:2; stroke-opacity:0.1; fill:none" points="1902.84,1497.68 1902.84,47.2441 "/>
<polyline clip-path="url(#clip322)" style="stroke:#000000; stroke-linecap:round; stroke-linejoin:round; stroke-width:2; stroke-opacity:0.1; fill:none" points="2709.62,1497.68 2709.62,47.2441 "/>
<polyline clip-path="url(#clip320)" style="stroke:#000000; stroke-linecap:round; stroke-linejoin:round; stroke-width:4; stroke-opacity:1; fill:none" points="205.077,1497.68 3180.41,1497.68 "/>
<polyline clip-path="url(#clip320)" style="stroke:#000000; stroke-linecap:round; stroke-linejoin:round; stroke-width:4; stroke-opacity:1; fill:none" points="289.284,1497.68 289.284,1478.78 "/>
<polyline clip-path="url(#clip320)" style="stroke:#000000; stroke-linecap:round; stroke-linejoin:round; stroke-width:4; stroke-opacity:1; fill:none" points="1096.06,1497.68 1096.06,1478.78 "/>
<polyline clip-path="url(#clip320)" style="stroke:#000000; stroke-linecap:round; stroke-linejoin:round; stroke-width:4; stroke-opacity:1; fill:none" points="1902.84,1497.68 1902.84,1478.78 "/>
<polyline clip-path="url(#clip320)" style="stroke:#000000; stroke-linecap:round; stroke-linejoin:round; stroke-width:4; stroke-opacity:1; fill:none" points="2709.62,1497.68 2709.62,1478.78 "/>
<path clip-path="url(#clip320)" d="M145.053 1573.85 L163.412 1573.85 L163.412 1578.28 L138.725 1578.28 L138.725 1573.85 Q141.72 1570.75 146.876 1565.55 Q152.058 1560.31 153.386 1558.8 Q155.912 1555.96 156.902 1554.01 Q157.918 1552.03 157.918 1550.13 Q157.918 1547.03 155.73 1545.08 Q153.569 1543.12 150.079 1543.12 Q147.605 1543.12 144.845 1543.98 Q142.11 1544.84 138.985 1546.59 L138.985 1541.27 Q142.162 1540 144.923 1539.35 Q147.683 1538.7 149.975 1538.7 Q156.017 1538.7 159.61 1541.72 Q163.204 1544.74 163.204 1549.79 Q163.204 1552.19 162.293 1554.35 Q161.407 1556.48 159.037 1559.4 Q158.386 1560.15 154.897 1563.77 Q151.407 1567.37 145.053 1573.85 Z" fill="#000000" fill-rule="nonzero" fill-opacity="1" /><path clip-path="url(#clip320)" d="M185.704 1542.86 Q181.641 1542.86 179.584 1546.87 Q177.553 1550.86 177.553 1558.88 Q177.553 1566.87 179.584 1570.88 Q181.641 1574.87 185.704 1574.87 Q189.792 1574.87 191.824 1570.88 Q193.881 1566.87 193.881 1558.88 Q193.881 1550.86 191.824 1546.87 Q189.792 1542.86 185.704 1542.86 M185.704 1538.7 Q192.24 1538.7 195.678 1543.88 Q199.141 1549.04 199.141 1558.88 Q199.141 1568.7 195.678 1573.88 Q192.24 1579.04 185.704 1579.04 Q179.167 1579.04 175.704 1573.88 Q172.266 1568.7 172.266 1558.88 Q172.266 1549.04 175.704 1543.88 Q179.167 1538.7 185.704 1538.7 Z" fill="#000000" fill-rule="nonzero" fill-opacity="1" /><path clip-path="url(#clip320)" d="M212.917 1573.85 L231.277 1573.85 L231.277 1578.28 L206.589 1578.28 L206.589 1573.85 Q209.584 1570.75 214.74 1565.55 Q219.922 1560.31 221.251 1558.8 Q223.777 1555.96 224.766 1554.01 Q225.782 1552.03 225.782 1550.13 Q225.782 1547.03 223.594 1545.08 Q221.433 1543.12 217.943 1543.12 Q215.469 1543.12 212.709 1543.98 Q209.975 1544.84 206.85 1546.59 L206.85 1541.27 Q210.027 1540 212.787 1539.35 Q215.547 1538.7 217.839 1538.7 Q223.881 1538.7 227.475 1541.72 Q231.068 1544.74 231.068 1549.79 Q231.068 1552.19 230.157 1554.35 Q229.271 1556.48 226.902 1559.4 Q226.251 1560.15 222.761 1563.77 Q219.271 1567.37 212.917 1573.85 Z" fill="#000000" fill-rule="nonzero" fill-opacity="1" /><path clip-path="url(#clip320)" d="M246.849 1573.85 L265.209 1573.85 L265.209 1578.28 L240.521 1578.28 L240.521 1573.85 Q243.516 1570.75 248.672 1565.55 Q253.855 1560.31 255.183 1558.8 Q257.709 1555.96 258.698 1554.01 Q259.714 1552.03 259.714 1550.13 Q259.714 1547.03 257.526 1545.08 Q255.365 1543.12 251.875 1543.12 Q249.401 1543.12 246.641 1543.98 Q243.907 1544.84 240.782 1546.59 L240.782 1541.27 Q243.959 1540 246.719 1539.35 Q249.48 1538.7 251.771 1538.7 Q257.813 1538.7 261.407 1541.72 Q265 1544.74 265 1549.79 Q265 1552.19 264.089 1554.35 Q263.203 1556.48 260.834 1559.4 Q260.183 1560.15 256.693 1563.77 Q253.204 1567.37 246.849 1573.85 Z" fill="#000000" fill-rule="nonzero" fill-opacity="1" /><path clip-path="url(#clip320)" d="M273.151 1561.54 L287.188 1561.54 L287.188 1565.81 L273.151 1565.81 L273.151 1561.54 Z" fill="#000000" fill-rule="nonzero" fill-opacity="1" /><path clip-path="url(#clip320)" d="M296.406 1573.85 L305 1573.85 L305 1544.19 L295.651 1546.07 L295.651 1541.27 L304.948 1539.4 L310.208 1539.4 L310.208 1573.85 L318.802 1573.85 L318.802 1578.28 L296.406 1578.28 L296.406 1573.85 Z" fill="#000000" fill-rule="nonzero" fill-opacity="1" /><path clip-path="url(#clip320)" d="M340.677 1542.86 Q336.615 1542.86 334.557 1546.87 Q332.526 1550.86 332.526 1558.88 Q332.526 1566.87 334.557 1570.88 Q336.615 1574.87 340.677 1574.87 Q344.766 1574.87 346.797 1570.88 Q348.854 1566.87 348.854 1558.88 Q348.854 1550.86 346.797 1546.87 Q344.766 1542.86 340.677 1542.86 M340.677 1538.7 Q347.213 1538.7 350.651 1543.88 Q354.114 1549.04 354.114 1558.88 Q354.114 1568.7 350.651 1573.88 Q347.213 1579.04 340.677 1579.04 Q334.141 1579.04 330.677 1573.88 Q327.24 1568.7 327.24 1558.88 Q327.24 1549.04 330.677 1543.88 Q334.141 1538.7 340.677 1538.7 Z" fill="#000000" fill-rule="nonzero" fill-opacity="1" /><path clip-path="url(#clip320)" d="M360.26 1561.54 L374.297 1561.54 L374.297 1565.81 L360.26 1565.81 L360.26 1561.54 Z" fill="#000000" fill-rule="nonzero" fill-opacity="1" /><path clip-path="url(#clip320)" d="M398.541 1557.32 Q402.317 1558.12 404.427 1560.68 Q406.562 1563.23 406.562 1566.98 Q406.562 1572.73 402.604 1575.88 Q398.645 1579.04 391.354 1579.04 Q388.906 1579.04 386.302 1578.54 Q383.724 1578.07 380.963 1577.11 L380.963 1572.03 Q383.151 1573.31 385.755 1573.96 Q388.359 1574.61 391.198 1574.61 Q396.145 1574.61 398.724 1572.65 Q401.328 1570.7 401.328 1566.98 Q401.328 1563.54 398.906 1561.61 Q396.51 1559.66 392.213 1559.66 L387.682 1559.66 L387.682 1555.34 L392.422 1555.34 Q396.302 1555.34 398.359 1553.8 Q400.416 1552.24 400.416 1549.32 Q400.416 1546.33 398.281 1544.74 Q396.172 1543.12 392.213 1543.12 Q390.052 1543.12 387.578 1543.59 Q385.104 1544.06 382.135 1545.05 L382.135 1540.36 Q385.13 1539.53 387.734 1539.11 Q390.364 1538.7 392.682 1538.7 Q398.672 1538.7 402.161 1541.43 Q405.651 1544.14 405.651 1548.77 Q405.651 1552 403.802 1554.24 Q401.953 1556.46 398.541 1557.32 Z" fill="#000000" fill-rule="nonzero" fill-opacity="1" /><path clip-path="url(#clip320)" d="M417.447 1573.85 L426.041 1573.85 L426.041 1544.19 L416.692 1546.07 L416.692 1541.27 L425.989 1539.4 L431.249 1539.4 L431.249 1573.85 L439.843 1573.85 L439.843 1578.28 L417.447 1578.28 L417.447 1573.85 Z" fill="#000000" fill-rule="nonzero" fill-opacity="1" /><path clip-path="url(#clip320)" d="M952.04 1573.85 L970.4 1573.85 L970.4 1578.28 L945.712 1578.28 L945.712 1573.85 Q948.707 1570.75 953.863 1565.55 Q959.046 1560.31 960.374 1558.8 Q962.9 1555.96 963.889 1554.01 Q964.905 1552.03 964.905 1550.13 Q964.905 1547.03 962.718 1545.08 Q960.556 1543.12 957.066 1543.12 Q954.593 1543.12 951.832 1543.98 Q949.098 1544.84 945.973 1546.59 L945.973 1541.27 Q949.15 1540 951.91 1539.35 Q954.671 1538.7 956.962 1538.7 Q963.004 1538.7 966.598 1541.72 Q970.191 1544.74 970.191 1549.79 Q970.191 1552.19 969.28 1554.35 Q968.395 1556.48 966.025 1559.4 Q965.374 1560.15 961.884 1563.77 Q958.395 1567.37 952.04 1573.85 Z" fill="#000000" fill-rule="nonzero" fill-opacity="1" /><path clip-path="url(#clip320)" d="M992.691 1542.86 Q988.629 1542.86 986.572 1546.87 Q984.54 1550.86 984.54 1558.88 Q984.54 1566.87 986.572 1570.88 Q988.629 1574.87 992.691 1574.87 Q996.78 1574.87 998.811 1570.88 Q1000.87 1566.87 1000.87 1558.88 Q1000.87 1550.86 998.811 1546.87 Q996.78 1542.86 992.691 1542.86 M992.691 1538.7 Q999.228 1538.7 1002.67 1543.88 Q1006.13 1549.04 1006.13 1558.88 Q1006.13 1568.7 1002.67 1573.88 Q999.228 1579.04 992.691 1579.04 Q986.155 1579.04 982.691 1573.88 Q979.254 1568.7 979.254 1558.88 Q979.254 1549.04 982.691 1543.88 Q986.155 1538.7 992.691 1538.7 Z" fill="#000000" fill-rule="nonzero" fill-opacity="1" /><path clip-path="url(#clip320)" d="M1019.9 1573.85 L1038.26 1573.85 L1038.26 1578.28 L1013.58 1578.28 L1013.58 1573.85 Q1016.57 1570.75 1021.73 1565.55 Q1026.91 1560.31 1028.24 1558.8 Q1030.76 1555.96 1031.75 1554.01 Q1032.77 1552.03 1032.77 1550.13 Q1032.77 1547.03 1030.58 1545.08 Q1028.42 1543.12 1024.93 1543.12 Q1022.46 1543.12 1019.7 1543.98 Q1016.96 1544.84 1013.84 1546.59 L1013.84 1541.27 Q1017.01 1540 1019.77 1539.35 Q1022.53 1538.7 1024.83 1538.7 Q1030.87 1538.7 1034.46 1541.72 Q1038.06 1544.74 1038.06 1549.79 Q1038.06 1552.19 1037.14 1554.35 Q1036.26 1556.48 1033.89 1559.4 Q1033.24 1560.15 1029.75 1563.77 Q1026.26 1567.37 1019.9 1573.85 Z" fill="#000000" fill-rule="nonzero" fill-opacity="1" /><path clip-path="url(#clip320)" d="M1053.84 1573.85 L1072.2 1573.85 L1072.2 1578.28 L1047.51 1578.28 L1047.51 1573.85 Q1050.5 1570.75 1055.66 1565.55 Q1060.84 1560.31 1062.17 1558.8 Q1064.7 1555.96 1065.69 1554.01 Q1066.7 1552.03 1066.7 1550.13 Q1066.7 1547.03 1064.51 1545.08 Q1062.35 1543.12 1058.86 1543.12 Q1056.39 1543.12 1053.63 1543.98 Q1050.89 1544.84 1047.77 1546.59 L1047.77 1541.27 Q1050.95 1540 1053.71 1539.35 Q1056.47 1538.7 1058.76 1538.7 Q1064.8 1538.7 1068.39 1541.72 Q1071.99 1544.74 1071.99 1549.79 Q1071.99 1552.19 1071.08 1554.35 Q1070.19 1556.48 1067.82 1559.4 Q1067.17 1560.15 1063.68 1563.77 Q1060.19 1567.37 1053.84 1573.85 Z" fill="#000000" fill-rule="nonzero" fill-opacity="1" /><path clip-path="url(#clip320)" d="M1080.14 1561.54 L1094.18 1561.54 L1094.18 1565.81 L1080.14 1565.81 L1080.14 1561.54 Z" fill="#000000" fill-rule="nonzero" fill-opacity="1" /><path clip-path="url(#clip320)" d="M1103.39 1573.85 L1111.99 1573.85 L1111.99 1544.19 L1102.64 1546.07 L1102.64 1541.27 L1111.94 1539.4 L1117.2 1539.4 L1117.2 1573.85 L1125.79 1573.85 L1125.79 1578.28 L1103.39 1578.28 L1103.39 1573.85 Z" fill="#000000" fill-rule="nonzero" fill-opacity="1" /><path clip-path="url(#clip320)" d="M1137.33 1573.85 L1145.92 1573.85 L1145.92 1544.19 L1136.57 1546.07 L1136.57 1541.27 L1145.87 1539.4 L1151.13 1539.4 L1151.13 1573.85 L1159.72 1573.85 L1159.72 1578.28 L1137.33 1578.28 L1137.33 1573.85 Z" fill="#000000" fill-rule="nonzero" fill-opacity="1" /><path clip-path="url(#clip320)" d="M1167.25 1561.54 L1181.28 1561.54 L1181.28 1565.81 L1167.25 1565.81 L1167.25 1561.54 Z" fill="#000000" fill-rule="nonzero" fill-opacity="1" /><path clip-path="url(#clip320)" d="M1200.84 1542.86 Q1196.78 1542.86 1194.72 1546.87 Q1192.69 1550.86 1192.69 1558.88 Q1192.69 1566.87 1194.72 1570.88 Q1196.78 1574.87 1200.84 1574.87 Q1204.93 1574.87 1206.96 1570.88 Q1209.02 1566.87 1209.02 1558.88 Q1209.02 1550.86 1206.96 1546.87 Q1204.93 1542.86 1200.84 1542.86 M1200.84 1538.7 Q1207.38 1538.7 1210.82 1543.88 Q1214.28 1549.04 1214.28 1558.88 Q1214.28 1568.7 1210.82 1573.88 Q1207.38 1579.04 1200.84 1579.04 Q1194.3 1579.04 1190.84 1573.88 Q1187.4 1568.7 1187.4 1558.88 Q1187.4 1549.04 1190.84 1543.88 Q1194.3 1538.7 1200.84 1538.7 Z" fill="#000000" fill-rule="nonzero" fill-opacity="1" /><path clip-path="url(#clip320)" d="M1228.05 1573.85 L1246.41 1573.85 L1246.41 1578.28 L1221.73 1578.28 L1221.73 1573.85 Q1224.72 1570.75 1229.88 1565.55 Q1235.06 1560.31 1236.39 1558.8 Q1238.91 1555.96 1239.9 1554.01 Q1240.92 1552.03 1240.92 1550.13 Q1240.92 1547.03 1238.73 1545.08 Q1236.57 1543.12 1233.08 1543.12 Q1230.61 1543.12 1227.85 1543.98 Q1225.11 1544.84 1221.99 1546.59 L1221.99 1541.27 Q1225.16 1540 1227.92 1539.35 Q1230.68 1538.7 1232.98 1538.7 Q1239.02 1538.7 1242.61 1541.72 Q1246.21 1544.74 1246.21 1549.79 Q1246.21 1552.19 1245.29 1554.35 Q1244.41 1556.48 1242.04 1559.4 Q1241.39 1560.15 1237.9 1563.77 Q1234.41 1567.37 1228.05 1573.85 Z" fill="#000000" fill-rule="nonzero" fill-opacity="1" /><path clip-path="url(#clip320)" d="M1757.65 1573.85 L1776.01 1573.85 L1776.01 1578.28 L1751.32 1578.28 L1751.32 1573.85 Q1754.31 1570.75 1759.47 1565.55 Q1764.65 1560.31 1765.98 1558.8 Q1768.51 1555.96 1769.5 1554.01 Q1770.51 1552.03 1770.51 1550.13 Q1770.51 1547.03 1768.32 1545.08 Q1766.16 1543.12 1762.67 1543.12 Q1760.2 1543.12 1757.44 1543.98 Q1754.71 1544.84 1751.58 1546.59 L1751.58 1541.27 Q1754.76 1540 1757.52 1539.35 Q1760.28 1538.7 1762.57 1538.7 Q1768.61 1538.7 1772.2 1541.72 Q1775.8 1544.74 1775.8 1549.79 Q1775.8 1552.19 1774.89 1554.35 Q1774 1556.48 1771.63 1559.4 Q1770.98 1560.15 1767.49 1563.77 Q1764 1567.37 1757.65 1573.85 Z" fill="#000000" fill-rule="nonzero" fill-opacity="1" /><path clip-path="url(#clip320)" d="M1798.3 1542.86 Q1794.24 1542.86 1792.18 1546.87 Q1790.15 1550.86 1790.15 1558.88 Q1790.15 1566.87 1792.18 1570.88 Q1794.24 1574.87 1798.3 1574.87 Q1802.39 1574.87 1804.42 1570.88 Q1806.48 1566.87 1806.48 1558.88 Q1806.48 1550.86 1804.42 1546.87 Q1802.39 1542.86 1798.3 1542.86 M1798.3 1538.7 Q1804.83 1538.7 1808.27 1543.88 Q1811.74 1549.04 1811.74 1558.88 Q1811.74 1568.7 1808.27 1573.88 Q1804.83 1579.04 1798.3 1579.04 Q1791.76 1579.04 1788.3 1573.88 Q1784.86 1568.7 1784.86 1558.88 Q1784.86 1549.04 1788.3 1543.88 Q1791.76 1538.7 1798.3 1538.7 Z" fill="#000000" fill-rule="nonzero" fill-opacity="1" /><path clip-path="url(#clip320)" d="M1825.51 1573.85 L1843.87 1573.85 L1843.87 1578.28 L1819.18 1578.28 L1819.18 1573.85 Q1822.18 1570.75 1827.33 1565.55 Q1832.52 1560.31 1833.85 1558.8 Q1836.37 1555.96 1837.36 1554.01 Q1838.38 1552.03 1838.38 1550.13 Q1838.38 1547.03 1836.19 1545.08 Q1834.03 1543.12 1830.54 1543.12 Q1828.06 1543.12 1825.3 1543.98 Q1822.57 1544.84 1819.44 1546.59 L1819.44 1541.27 Q1822.62 1540 1825.38 1539.35 Q1828.14 1538.7 1830.43 1538.7 Q1836.48 1538.7 1840.07 1541.72 Q1843.66 1544.74 1843.66 1549.79 Q1843.66 1552.19 1842.75 1554.35 Q1841.87 1556.48 1839.5 1559.4 Q1838.85 1560.15 1835.36 1563.77 Q1831.87 1567.37 1825.51 1573.85 Z" fill="#000000" fill-rule="nonzero" fill-opacity="1" /><path clip-path="url(#clip320)" d="M1859.44 1573.85 L1877.8 1573.85 L1877.8 1578.28 L1853.12 1578.28 L1853.12 1573.85 Q1856.11 1570.75 1861.27 1565.55 Q1866.45 1560.31 1867.78 1558.8 Q1870.3 1555.96 1871.29 1554.01 Q1872.31 1552.03 1872.31 1550.13 Q1872.31 1547.03 1870.12 1545.08 Q1867.96 1543.12 1864.47 1543.12 Q1862 1543.12 1859.24 1543.98 Q1856.5 1544.84 1853.38 1546.59 L1853.38 1541.27 Q1856.55 1540 1859.31 1539.35 Q1862.07 1538.7 1864.37 1538.7 Q1870.41 1538.7 1874 1541.72 Q1877.59 1544.74 1877.59 1549.79 Q1877.59 1552.19 1876.68 1554.35 Q1875.8 1556.48 1873.43 1559.4 Q1872.78 1560.15 1869.29 1563.77 Q1865.8 1567.37 1859.44 1573.85 Z" fill="#000000" fill-rule="nonzero" fill-opacity="1" /><path clip-path="url(#clip320)" d="M1885.75 1561.54 L1899.78 1561.54 L1899.78 1565.81 L1885.75 1565.81 L1885.75 1561.54 Z" fill="#000000" fill-rule="nonzero" fill-opacity="1" /><path clip-path="url(#clip320)" d="M1909 1573.85 L1917.59 1573.85 L1917.59 1544.19 L1908.25 1546.07 L1908.25 1541.27 L1917.54 1539.4 L1922.8 1539.4 L1922.8 1573.85 L1931.4 1573.85 L1931.4 1578.28 L1909 1578.28 L1909 1573.85 Z" fill="#000000" fill-rule="nonzero" fill-opacity="1" /><path clip-path="url(#clip320)" d="M1942.93 1573.85 L1951.53 1573.85 L1951.53 1544.19 L1942.18 1546.07 L1942.18 1541.27 L1951.47 1539.4 L1956.74 1539.4 L1956.74 1573.85 L1965.33 1573.85 L1965.33 1578.28 L1942.93 1578.28 L1942.93 1573.85 Z" fill="#000000" fill-rule="nonzero" fill-opacity="1" /><path clip-path="url(#clip320)" d="M1972.85 1561.54 L1986.89 1561.54 L1986.89 1565.81 L1972.85 1565.81 L1972.85 1561.54 Z" fill="#000000" fill-rule="nonzero" fill-opacity="1" /><path clip-path="url(#clip320)" d="M2006.45 1542.86 Q2002.39 1542.86 2000.33 1546.87 Q1998.3 1550.86 1998.3 1558.88 Q1998.3 1566.87 2000.33 1570.88 Q2002.39 1574.87 2006.45 1574.87 Q2010.54 1574.87 2012.57 1570.88 Q2014.63 1566.87 2014.63 1558.88 Q2014.63 1550.86 2012.57 1546.87 Q2010.54 1542.86 2006.45 1542.86 M2006.45 1538.7 Q2012.98 1538.7 2016.42 1543.88 Q2019.89 1549.04 2019.89 1558.88 Q2019.89 1568.7 2016.42 1573.88 Q2012.98 1579.04 2006.45 1579.04 Q1999.91 1579.04 1996.45 1573.88 Q1993.01 1568.7 1993.01 1558.88 Q1993.01 1549.04 1996.45 1543.88 Q1999.91 1538.7 2006.45 1538.7 Z" fill="#000000" fill-rule="nonzero" fill-opacity="1" /><path clip-path="url(#clip320)" d="M2043.58 1543.98 L2030.3 1564.74 L2043.58 1564.74 L2043.58 1543.98 M2042.2 1539.4 L2048.82 1539.4 L2048.82 1564.74 L2054.36 1564.74 L2054.36 1569.11 L2048.82 1569.11 L2048.82 1578.28 L2043.58 1578.28 L2043.58 1569.11 L2026.03 1569.11 L2026.03 1564.04 L2042.2 1539.4 Z" fill="#000000" fill-rule="nonzero" fill-opacity="1" /><path clip-path="url(#clip320)" d="M2564.61 1573.85 L2582.97 1573.85 L2582.97 1578.28 L2558.28 1578.28 L2558.28 1573.85 Q2561.28 1570.75 2566.43 1565.55 Q2571.61 1560.31 2572.94 1558.8 Q2575.47 1555.96 2576.46 1554.01 Q2577.47 1552.03 2577.47 1550.13 Q2577.47 1547.03 2575.29 1545.08 Q2573.12 1543.12 2569.64 1543.12 Q2567.16 1543.12 2564.4 1543.98 Q2561.67 1544.84 2558.54 1546.59 L2558.54 1541.27 Q2561.72 1540 2564.48 1539.35 Q2567.24 1538.7 2569.53 1538.7 Q2575.57 1538.7 2579.17 1541.72 Q2582.76 1544.74 2582.76 1549.79 Q2582.76 1552.19 2581.85 1554.35 Q2580.96 1556.48 2578.59 1559.4 Q2577.94 1560.15 2574.45 1563.77 Q2570.96 1567.37 2564.61 1573.85 Z" fill="#000000" fill-rule="nonzero" fill-opacity="1" /><path clip-path="url(#clip320)" d="M2605.26 1542.86 Q2601.2 1542.86 2599.14 1546.87 Q2597.11 1550.86 2597.11 1558.88 Q2597.11 1566.87 2599.14 1570.88 Q2601.2 1574.87 2605.26 1574.87 Q2609.35 1574.87 2611.38 1570.88 Q2613.44 1566.87 2613.44 1558.88 Q2613.44 1550.86 2611.38 1546.87 Q2609.35 1542.86 2605.26 1542.86 M2605.26 1538.7 Q2611.8 1538.7 2615.23 1543.88 Q2618.7 1549.04 2618.7 1558.88 Q2618.7 1568.7 2615.23 1573.88 Q2611.8 1579.04 2605.26 1579.04 Q2598.72 1579.04 2595.26 1573.88 Q2591.82 1568.7 2591.82 1558.88 Q2591.82 1549.04 2595.26 1543.88 Q2598.72 1538.7 2605.26 1538.7 Z" fill="#000000" fill-rule="nonzero" fill-opacity="1" /><path clip-path="url(#clip320)" d="M2632.47 1573.85 L2650.83 1573.85 L2650.83 1578.28 L2626.15 1578.28 L2626.15 1573.85 Q2629.14 1570.75 2634.3 1565.55 Q2639.48 1560.31 2640.81 1558.8 Q2643.33 1555.96 2644.32 1554.01 Q2645.34 1552.03 2645.34 1550.13 Q2645.34 1547.03 2643.15 1545.08 Q2640.99 1543.12 2637.5 1543.12 Q2635.03 1543.12 2632.26 1543.98 Q2629.53 1544.84 2626.41 1546.59 L2626.41 1541.27 Q2629.58 1540 2632.34 1539.35 Q2635.1 1538.7 2637.4 1538.7 Q2643.44 1538.7 2647.03 1541.72 Q2650.62 1544.74 2650.62 1549.79 Q2650.62 1552.19 2649.71 1554.35 Q2648.83 1556.48 2646.46 1559.4 Q2645.81 1560.15 2642.32 1563.77 Q2638.83 1567.37 2632.47 1573.85 Z" fill="#000000" fill-rule="nonzero" fill-opacity="1" /><path clip-path="url(#clip320)" d="M2666.41 1573.85 L2684.76 1573.85 L2684.76 1578.28 L2660.08 1578.28 L2660.08 1573.85 Q2663.07 1570.75 2668.23 1565.55 Q2673.41 1560.31 2674.74 1558.8 Q2677.26 1555.96 2678.25 1554.01 Q2679.27 1552.03 2679.27 1550.13 Q2679.27 1547.03 2677.08 1545.08 Q2674.92 1543.12 2671.43 1543.12 Q2668.96 1543.12 2666.2 1543.98 Q2663.46 1544.84 2660.34 1546.59 L2660.34 1541.27 Q2663.51 1540 2666.28 1539.35 Q2669.04 1538.7 2671.33 1538.7 Q2677.37 1538.7 2680.96 1541.72 Q2684.56 1544.74 2684.56 1549.79 Q2684.56 1552.19 2683.64 1554.35 Q2682.76 1556.48 2680.39 1559.4 Q2679.74 1560.15 2676.25 1563.77 Q2672.76 1567.37 2666.41 1573.85 Z" fill="#000000" fill-rule="nonzero" fill-opacity="1" /><path clip-path="url(#clip320)" d="M2692.71 1561.54 L2706.74 1561.54 L2706.74 1565.81 L2692.71 1565.81 L2692.71 1561.54 Z" fill="#000000" fill-rule="nonzero" fill-opacity="1" /><path clip-path="url(#clip320)" d="M2715.96 1573.85 L2724.56 1573.85 L2724.56 1544.19 L2715.21 1546.07 L2715.21 1541.27 L2724.5 1539.4 L2729.76 1539.4 L2729.76 1573.85 L2738.36 1573.85 L2738.36 1578.28 L2715.96 1578.28 L2715.96 1573.85 Z" fill="#000000" fill-rule="nonzero" fill-opacity="1" /><path clip-path="url(#clip320)" d="M2749.89 1573.85 L2758.49 1573.85 L2758.49 1544.19 L2749.14 1546.07 L2749.14 1541.27 L2758.44 1539.4 L2763.7 1539.4 L2763.7 1573.85 L2772.29 1573.85 L2772.29 1578.28 L2749.89 1578.28 L2749.89 1573.85 Z" fill="#000000" fill-rule="nonzero" fill-opacity="1" /><path clip-path="url(#clip320)" d="M2779.82 1561.54 L2793.85 1561.54 L2793.85 1565.81 L2779.82 1565.81 L2779.82 1561.54 Z" fill="#000000" fill-rule="nonzero" fill-opacity="1" /><path clip-path="url(#clip320)" d="M2813.41 1542.86 Q2809.35 1542.86 2807.29 1546.87 Q2805.26 1550.86 2805.26 1558.88 Q2805.26 1566.87 2807.29 1570.88 Q2809.35 1574.87 2813.41 1574.87 Q2817.5 1574.87 2819.53 1570.88 Q2821.59 1566.87 2821.59 1558.88 Q2821.59 1550.86 2819.53 1546.87 Q2817.5 1542.86 2813.41 1542.86 M2813.41 1538.7 Q2819.95 1538.7 2823.38 1543.88 Q2826.85 1549.04 2826.85 1558.88 Q2826.85 1568.7 2823.38 1573.88 Q2819.95 1579.04 2813.41 1579.04 Q2806.87 1579.04 2803.41 1573.88 Q2799.97 1568.7 2799.97 1558.88 Q2799.97 1549.04 2803.41 1543.88 Q2806.87 1538.7 2813.41 1538.7 Z" fill="#000000" fill-rule="nonzero" fill-opacity="1" /><path clip-path="url(#clip320)" d="M2847.99 1556.74 Q2844.45 1556.74 2842.37 1559.17 Q2840.31 1561.59 2840.31 1565.81 Q2840.31 1570 2842.37 1572.45 Q2844.45 1574.87 2847.99 1574.87 Q2851.53 1574.87 2853.59 1572.45 Q2855.68 1570 2855.68 1565.81 Q2855.68 1561.59 2853.59 1559.17 Q2851.53 1556.74 2847.99 1556.74 M2858.44 1540.26 L2858.44 1545.05 Q2856.46 1544.11 2854.43 1543.62 Q2852.42 1543.12 2850.44 1543.12 Q2845.23 1543.12 2842.47 1546.64 Q2839.74 1550.16 2839.35 1557.26 Q2840.88 1555 2843.2 1553.8 Q2845.52 1552.58 2848.31 1552.58 Q2854.16 1552.58 2857.55 1556.14 Q2860.96 1559.69 2860.96 1565.81 Q2860.96 1571.8 2857.42 1575.42 Q2853.88 1579.04 2847.99 1579.04 Q2841.25 1579.04 2837.68 1573.88 Q2834.11 1568.7 2834.11 1558.88 Q2834.11 1549.66 2838.49 1544.19 Q2842.86 1538.7 2850.23 1538.7 Q2852.21 1538.7 2854.22 1539.09 Q2856.25 1539.48 2858.44 1540.26 Z" fill="#000000" fill-rule="nonzero" fill-opacity="1" /><polyline clip-path="url(#clip322)" style="stroke:#000000; stroke-linecap:round; stroke-linejoin:round; stroke-width:2; stroke-opacity:0.1; fill:none" points="205.077,1239.59 3180.41,1239.59 "/>
<polyline clip-path="url(#clip322)" style="stroke:#000000; stroke-linecap:round; stroke-linejoin:round; stroke-width:2; stroke-opacity:0.1; fill:none" points="205.077,907.587 3180.41,907.587 "/>
<polyline clip-path="url(#clip322)" style="stroke:#000000; stroke-linecap:round; stroke-linejoin:round; stroke-width:2; stroke-opacity:0.1; fill:none" points="205.077,575.581 3180.41,575.581 "/>
<polyline clip-path="url(#clip322)" style="stroke:#000000; stroke-linecap:round; stroke-linejoin:round; stroke-width:2; stroke-opacity:0.1; fill:none" points="205.077,243.574 3180.41,243.574 "/>
<polyline clip-path="url(#clip320)" style="stroke:#000000; stroke-linecap:round; stroke-linejoin:round; stroke-width:4; stroke-opacity:1; fill:none" points="205.077,1497.68 205.077,47.2441 "/>
<polyline clip-path="url(#clip320)" style="stroke:#000000; stroke-linecap:round; stroke-linejoin:round; stroke-width:4; stroke-opacity:1; fill:none" points="205.077,1239.59 220.08,1239.59 "/>
<polyline clip-path="url(#clip320)" style="stroke:#000000; stroke-linecap:round; stroke-linejoin:round; stroke-width:4; stroke-opacity:1; fill:none" points="205.077,907.587 220.08,907.587 "/>
<polyline clip-path="url(#clip320)" style="stroke:#000000; stroke-linecap:round; stroke-linejoin:round; stroke-width:4; stroke-opacity:1; fill:none" points="205.077,575.581 220.08,575.581 "/>
<polyline clip-path="url(#clip320)" style="stroke:#000000; stroke-linecap:round; stroke-linejoin:round; stroke-width:4; stroke-opacity:1; fill:none" points="205.077,243.574 220.08,243.574 "/>
<path clip-path="url(#clip320)" d="M88.4883 1254.61 L97.082 1254.61 L97.082 1224.95 L87.7331 1226.82 L87.7331 1222.03 L97.0299 1220.15 L102.29 1220.15 L102.29 1254.61 L110.884 1254.61 L110.884 1259.03 L88.4883 1259.03 L88.4883 1254.61 Z" fill="#000000" fill-rule="nonzero" fill-opacity="1" /><path clip-path="url(#clip320)" d="M121.561 1220.15 L142.212 1220.15 L142.212 1224.58 L126.379 1224.58 L126.379 1234.11 Q127.525 1233.72 128.67 1233.54 Q129.816 1233.33 130.962 1233.33 Q137.472 1233.33 141.274 1236.9 Q145.077 1240.47 145.077 1246.56 Q145.077 1252.84 141.17 1256.33 Q137.264 1259.79 130.155 1259.79 Q127.707 1259.79 125.155 1259.37 Q122.629 1258.96 119.92 1258.12 L119.92 1252.84 Q122.264 1254.11 124.764 1254.74 Q127.264 1255.36 130.051 1255.36 Q134.556 1255.36 137.186 1252.99 Q139.816 1250.62 139.816 1246.56 Q139.816 1242.5 137.186 1240.13 Q134.556 1237.76 130.051 1237.76 Q127.941 1237.76 125.832 1238.23 Q123.748 1238.7 121.561 1239.69 L121.561 1220.15 Z" fill="#000000" fill-rule="nonzero" fill-opacity="1" /><path clip-path="url(#clip320)" d="M90.9882 922.6 L109.348 922.6 L109.348 927.027 L84.6602 927.027 L84.6602 922.6 Q87.6549 919.501 92.8112 914.293 Q97.9934 909.059 99.3215 907.548 Q101.848 904.71 102.837 902.757 Q103.853 900.778 103.853 898.877 Q103.853 895.778 101.665 893.824 Q99.5038 891.871 96.0143 891.871 Q93.5403 891.871 90.7799 892.731 Q88.0456 893.59 84.9206 895.335 L84.9206 890.022 Q88.0976 888.746 90.858 888.095 Q93.6184 887.444 95.9101 887.444 Q101.952 887.444 105.545 890.465 Q109.139 893.486 109.139 898.538 Q109.139 900.934 108.228 903.095 Q107.342 905.231 104.973 908.147 Q104.322 908.903 100.832 912.522 Q97.3424 916.116 90.9882 922.6 Z" fill="#000000" fill-rule="nonzero" fill-opacity="1" /><path clip-path="url(#clip320)" d="M131.639 891.611 Q127.577 891.611 125.519 895.621 Q123.488 899.606 123.488 907.626 Q123.488 915.621 125.519 919.632 Q127.577 923.616 131.639 923.616 Q135.728 923.616 137.759 919.632 Q139.816 915.621 139.816 907.626 Q139.816 899.606 137.759 895.621 Q135.728 891.611 131.639 891.611 M131.639 887.444 Q138.175 887.444 141.613 892.627 Q145.077 897.783 145.077 907.626 Q145.077 917.444 141.613 922.626 Q138.175 927.783 131.639 927.783 Q125.103 927.783 121.639 922.626 Q118.202 917.444 118.202 907.626 Q118.202 897.783 121.639 892.627 Q125.103 887.444 131.639 887.444 Z" fill="#000000" fill-rule="nonzero" fill-opacity="1" /><path clip-path="url(#clip320)" d="M92.108 590.594 L110.467 590.594 L110.467 595.021 L85.7799 595.021 L85.7799 590.594 Q88.7747 587.495 93.9309 582.286 Q99.1132 577.052 100.441 575.542 Q102.967 572.703 103.957 570.75 Q104.973 568.771 104.973 566.87 Q104.973 563.771 102.785 561.818 Q100.624 559.865 97.134 559.865 Q94.6601 559.865 91.8997 560.724 Q89.1653 561.583 86.0404 563.328 L86.0404 558.016 Q89.2174 556.74 91.9778 556.089 Q94.7382 555.437 97.0299 555.437 Q103.072 555.437 106.665 558.458 Q110.259 561.479 110.259 566.531 Q110.259 568.927 109.348 571.088 Q108.462 573.224 106.092 576.14 Q105.441 576.896 101.952 580.515 Q98.4622 584.109 92.108 590.594 Z" fill="#000000" fill-rule="nonzero" fill-opacity="1" /><path clip-path="url(#clip320)" d="M121.561 556.141 L142.212 556.141 L142.212 560.568 L126.379 560.568 L126.379 570.099 Q127.525 569.708 128.67 569.526 Q129.816 569.318 130.962 569.318 Q137.472 569.318 141.274 572.885 Q145.077 576.453 145.077 582.547 Q145.077 588.823 141.17 592.312 Q137.264 595.776 130.155 595.776 Q127.707 595.776 125.155 595.359 Q122.629 594.942 119.92 594.109 L119.92 588.823 Q122.264 590.099 124.764 590.724 Q127.264 591.349 130.051 591.349 Q134.556 591.349 137.186 588.979 Q139.816 586.609 139.816 582.547 Q139.816 578.484 137.186 576.114 Q134.556 573.745 130.051 573.745 Q127.941 573.745 125.832 574.213 Q123.748 574.682 121.561 575.672 L121.561 556.141 Z" fill="#000000" fill-rule="nonzero" fill-opacity="1" /><path clip-path="url(#clip320)" d="M102.394 242.05 Q106.17 242.858 108.28 245.41 Q110.415 247.962 110.415 251.712 Q110.415 257.467 106.457 260.618 Q102.499 263.769 95.207 263.769 Q92.7591 263.769 90.1549 263.274 Q87.5768 262.805 84.8164 261.842 L84.8164 256.764 Q87.0039 258.04 89.608 258.691 Q92.2122 259.342 95.0507 259.342 Q99.9986 259.342 102.577 257.389 Q105.181 255.436 105.181 251.712 Q105.181 248.274 102.759 246.347 Q100.363 244.394 96.0663 244.394 L91.5351 244.394 L91.5351 240.071 L96.2747 240.071 Q100.155 240.071 102.212 238.535 Q104.269 236.972 104.269 234.056 Q104.269 231.061 102.134 229.472 Q100.025 227.858 96.0663 227.858 Q93.9049 227.858 91.431 228.326 Q88.957 228.795 85.9883 229.785 L85.9883 225.097 Q88.9831 224.264 91.5872 223.847 Q94.2174 223.431 96.5351 223.431 Q102.525 223.431 106.014 226.165 Q109.504 228.873 109.504 233.509 Q109.504 236.738 107.655 238.977 Q105.806 241.191 102.394 242.05 Z" fill="#000000" fill-rule="nonzero" fill-opacity="1" /><path clip-path="url(#clip320)" d="M131.639 227.597 Q127.577 227.597 125.519 231.608 Q123.488 235.592 123.488 243.613 Q123.488 251.608 125.519 255.618 Q127.577 259.602 131.639 259.602 Q135.728 259.602 137.759 255.618 Q139.816 251.608 139.816 243.613 Q139.816 235.592 137.759 231.608 Q135.728 227.597 131.639 227.597 M131.639 223.431 Q138.175 223.431 141.613 228.613 Q145.077 233.769 145.077 243.613 Q145.077 253.43 141.613 258.613 Q138.175 263.769 131.639 263.769 Q125.103 263.769 121.639 258.613 Q118.202 253.43 118.202 243.613 Q118.202 233.769 121.639 228.613 Q125.103 223.431 131.639 223.431 Z" fill="#000000" fill-rule="nonzero" fill-opacity="1" /><path clip-path="url(#clip320)" d="M-31.4998 930.013 L-31.4998 924.168 L11.7002 924.168 L11.7002 930.013 L-31.4998 930.013 Z" fill="#000000" fill-rule="nonzero" fill-opacity="1" /><path clip-path="url(#clip320)" d="M-7.85992 885.829 L11.7002 885.829 L11.7002 891.153 L-7.68631 891.153 Q-12.287 891.153 -14.5728 892.947 Q-16.8587 894.741 -16.8587 898.329 Q-16.8587 902.641 -14.1099 905.129 Q-11.3611 907.618 -6.61572 907.618 L11.7002 907.618 L11.7002 912.97 L-20.7071 912.97 L-20.7071 907.618 L-15.6724 907.618 Q-18.5948 905.708 -20.0416 903.133 Q-21.4883 900.528 -21.4883 897.143 Q-21.4883 891.559 -18.0161 888.694 Q-14.5728 885.829 -7.85992 885.829 Z" fill="#000000" fill-rule="nonzero" fill-opacity="1" /><path clip-path="url(#clip320)" d="M-33.3227 858.804 L-28.8957 858.804 L-28.8957 863.897 Q-28.8957 866.761 -27.7383 867.89 Q-26.5809 868.989 -23.5716 868.989 L-20.7071 868.989 L-20.7071 860.222 L-16.5694 860.222 L-16.5694 868.989 L11.7002 868.989 L11.7002 874.342 L-16.5694 874.342 L-16.5694 879.435 L-20.7071 879.435 L-20.7071 874.342 L-22.964 874.342 Q-28.3749 874.342 -30.8343 871.825 Q-33.3227 869.308 -33.3227 863.839 L-33.3227 858.804 Z" fill="#000000" fill-rule="nonzero" fill-opacity="1" /><path clip-path="url(#clip320)" d="M-33.3227 854.348 L-33.3227 849.024 L11.7002 849.024 L11.7002 854.348 L-33.3227 854.348 Z" fill="#000000" fill-rule="nonzero" fill-opacity="1" /><path clip-path="url(#clip320)" d="M-16.9745 825.326 Q-16.9745 829.609 -13.618 832.097 Q-10.2905 834.585 -4.47452 834.585 Q1.34142 834.585 4.69788 832.126 Q8.02541 829.638 8.02541 825.326 Q8.02541 821.073 4.66895 818.584 Q1.31248 816.096 -4.47452 816.096 Q-10.2326 816.096 -13.5891 818.584 Q-16.9745 821.073 -16.9745 825.326 M-21.4883 825.326 Q-21.4883 818.382 -16.9745 814.418 Q-12.4606 810.454 -4.47452 810.454 Q3.48261 810.454 8.02541 814.418 Q12.5393 818.382 12.5393 825.326 Q12.5393 832.3 8.02541 836.264 Q3.48261 840.199 -4.47452 840.199 Q-12.4606 840.199 -16.9745 836.264 Q-21.4883 832.3 -21.4883 825.326 Z" fill="#000000" fill-rule="nonzero" fill-opacity="1" /><path clip-path="url(#clip320)" d="M-20.7071 804.725 L-20.7071 799.4 L4.58214 792.745 L-20.7071 786.119 L-20.7071 779.84 L4.58214 773.185 L-20.7071 766.559 L-20.7071 761.235 L11.7002 769.713 L11.7002 775.992 L-14.8622 782.965 L11.7002 789.968 L11.7002 796.247 L-20.7071 804.725 Z" fill="#000000" fill-rule="nonzero" fill-opacity="1" /><path clip-path="url(#clip320)" d="M-33.3227 734.818 L-33.3227 722.549 L-29.185 722.549 L-29.185 729.493 L15.3749 729.493 L15.3749 722.549 L19.5126 722.549 L19.5126 734.818 L-33.3227 734.818 Z" fill="#000000" fill-rule="nonzero" fill-opacity="1" /><path clip-path="url(#clip320)" d="M-31.4998 710.975 L-31.4998 705.13 L6.7812 705.13 L6.7812 684.094 L11.7002 684.094 L11.7002 710.975 L-31.4998 710.975 Z" fill="#000000" fill-rule="nonzero" fill-opacity="1" /><path clip-path="url(#clip320)" d="M-31.4998 668.73 L-31.4998 663.811 L17.1978 678.857 L17.1978 683.776 L-31.4998 668.73 Z" fill="#000000" fill-rule="nonzero" fill-opacity="1" /><path clip-path="url(#clip320)" d="M-19.7522 637.567 L-14.7175 637.567 Q-15.8749 639.824 -16.4536 642.254 Q-17.0323 644.685 -17.0323 647.289 Q-17.0323 651.253 -15.8171 653.25 Q-14.6018 655.217 -12.1712 655.217 Q-10.3194 655.217 -9.2488 653.799 Q-8.20714 652.382 -7.25229 648.099 L-6.8472 646.276 Q-5.63193 640.605 -3.40393 638.232 Q-1.20487 635.831 2.75923 635.831 Q7.2731 635.831 9.90619 639.419 Q12.5393 642.978 12.5393 649.228 Q12.5393 651.832 12.0184 654.667 Q11.5265 657.474 10.5138 660.599 L5.01617 660.599 Q6.54972 657.648 7.33097 654.783 Q8.08328 651.919 8.08328 649.112 Q8.08328 645.35 6.81014 643.325 Q5.50806 641.299 3.16432 641.299 Q0.994196 641.299 -0.163205 642.775 Q-1.32061 644.222 -2.3912 649.17 L-2.82523 651.022 Q-3.86689 655.97 -6.00808 658.169 Q-8.17821 660.368 -11.9398 660.368 Q-16.5115 660.368 -18.9999 657.127 Q-21.4883 653.886 -21.4883 647.926 Q-21.4883 644.974 -21.0543 642.37 Q-20.6203 639.766 -19.7522 637.567 Z" fill="#000000" fill-rule="nonzero" fill-opacity="1" /><path clip-path="url(#clip320)" d="M-33.3227 614.911 L19.5126 614.911 L19.5126 627.179 L15.3749 627.179 L15.3749 620.264 L-29.185 620.264 L-29.185 627.179 L-33.3227 627.179 L-33.3227 614.911 Z" fill="#000000" fill-rule="nonzero" fill-opacity="1" /><polyline clip-path="url(#clip322)" style="stroke:#023eff; stroke-linecap:round; stroke-linejoin:round; stroke-width:5; stroke-opacity:1; fill:none" points="289.284,1157.17 306.092,1345.76 322.9,1345.76 339.708,1456.63 356.516,1456.63 373.324,1385.75 390.131,1144.35 406.939,589.279 423.747,340.403 440.555,147.412 457.363,294.148 474.171,454.86 490.979,454.86 507.787,403.542 524.595,403.542 541.403,589.279 558.21,658.4 575.018,788.443 591.826,658.4 608.634,524.384 625.442,403.542 642.25,589.279 659.058,788.443 675.866,1028.4 692.674,1192.85 709.482,1353.57 726.289,1407.58 743.097,1453.79 759.905,1453.79 776.713,1412.09 793.521,1144.66 810.329,557.486 827.137,357.307 843.945,357.307 860.753,357.307 877.56,477.975 894.368,477.975 911.176,477.975 927.984,435.958 944.792,530.143 961.6,530.143 978.408,530.143 995.216,435.958 1012.02,369.201 1028.83,369.201 1045.64,624.276 1062.45,753.582 1079.26,904.648 1096.06,1192.85 1112.87,1353.57 1129.68,1407.58 1146.49,1453.79 1163.29,1453.79 1180.1,1363.1 1196.91,1144.66 1213.72,785.542 1230.53,357.307 1247.33,357.307 1264.14,357.307 1280.95,477.975 1297.76,477.975 1314.57,477.975 1331.37,435.958 1348.18,435.958 1364.99,575.398 1381.8,530.143 1398.61,530.143 1415.41,369.201 1432.22,369.201 1449.03,624.276 1465.84,624.276 1482.64,956.912 1499.45,1192.85 1516.26,1353.57 1533.07,1407.58 1549.88,1453.79 1566.68,1407.58 1583.49,1363.1 1600.3,1144.66 1617.11,785.542 1633.92,357.307 1650.72,357.307 1667.53,357.307 1684.34,477.975 1701.15,477.975 1717.96,477.975 1734.76,435.958 1751.57,530.143 1768.38,624.276 1785.19,435.958 1801.99,435.958 1818.8,369.201 1835.61,624.276 1852.42,624.276 1869.23,753.582 1886.03,956.912 1902.84,1192.85 1919.65,1318.39 1936.46,1407.58 1953.27,1407.58 1970.07,1453.79 1986.88,1363.1 2003.69,1144.66 2020.5,557.486 2037.31,357.307 2054.11,357.307 2070.92,357.307 2087.73,477.975 2104.54,477.975 2121.34,477.975 2138.15,435.958 2154.96,530.143 2171.77,530.143 2188.58,624.276 2205.38,624.276 2222.19,369.201 2239,624.276 2255.81,753.582 2272.62,904.648 2289.42,1017.72 2306.23,1242.46 2323.04,1353.57 2339.85,1407.58 2356.66,1453.79 2373.46,1453.79 2390.27,1412.09 2407.08,1326.63 2423.89,941.222 2440.69,369.773 2457.5,369.773 2474.31,369.773 2491.12,369.773 2507.93,469.938 2524.73,593.035 2541.54,469.938 2558.35,649.168 2575.16,786.806 2591.97,854.691 2608.77,778.526 2625.58,693.861 2642.39,535.629 2659.2,778.526 2676.01,956.912 2692.81,1090.91 2709.62,1242.46 2726.43,1353.57 2743.24,1407.58 2760.05,1453.79 2776.85,1453.79 2793.66,1412.09 2810.47,1326.63 2827.28,941.222 2844.08,535.629 2860.89,369.773 2877.7,369.773 2894.51,535.629 2911.32,593.035 2928.12,649.168 2944.93,649.168 2961.74,854.691 2978.55,854.691 2995.36,854.691 3012.16,778.526 3028.97,535.629 3045.78,693.861 3062.59,854.691 3079.4,904.648 3096.2,1090.91 "/>
<polyline clip-path="url(#clip322)" style="stroke:#ff7c00; stroke-linecap:round; stroke-linejoin:round; stroke-width:5; stroke-opacity:1; fill:none" points="289.284,1193.71 306.092,1349.46 322.9,1380.05 339.708,1447.19 356.516,1447.19 373.324,1447.19 390.131,1174.56 406.939,610.722 423.747,307.49 440.555,129.404 457.363,307.49 474.171,313.189 490.979,313.189 507.787,467.429 524.595,467.429 541.403,610.722 558.21,610.722 575.018,610.722 591.826,610.722 608.634,556.151 625.442,467.429 642.25,707.727 659.058,795.037 675.866,965.592 692.674,1161.35 709.482,1345.88 726.289,1366.55 743.097,1445.44 759.905,1445.44 776.713,1445.44 793.521,1161.35 810.329,403.253 827.137,117.356 843.945,117.356 860.753,177.362 877.56,334.662 894.368,334.662 911.176,334.662 927.984,334.662 944.792,543.852 961.6,543.852 978.408,543.852 995.216,395.999 1012.02,395.999 1028.83,395.999 1045.64,543.852 1062.45,785.155 1079.26,982.461 1096.06,1161.35 1112.87,1345.88 1129.68,1366.55 1146.49,1445.44 1163.29,1445.44 1180.1,1366.55 1196.91,1161.35 1213.72,403.253 1230.53,117.356 1247.33,117.356 1264.14,177.362 1280.95,334.662 1297.76,334.662 1314.57,334.662 1331.37,334.662 1348.18,395.999 1364.99,543.852 1381.8,543.852 1398.61,543.852 1415.41,395.999 1432.22,395.999 1449.03,543.852 1465.84,785.155 1482.64,982.461 1499.45,1161.35 1516.26,1345.88 1533.07,1366.55 1549.88,1445.44 1566.68,1445.44 1583.49,1445.44 1600.3,1161.35 1617.11,403.253 1633.92,117.356 1650.72,117.356 1667.53,177.362 1684.34,334.662 1701.15,334.662 1717.96,334.662 1734.76,334.662 1751.57,543.852 1768.38,543.852 1785.19,395.999 1801.99,395.999 1818.8,395.999 1835.61,543.852 1852.42,543.852 1869.23,785.155 1886.03,982.461 1902.84,1161.35 1919.65,1345.88 1936.46,1366.55 1953.27,1445.44 1970.07,1445.44 1986.88,1366.55 2003.69,1161.35 2020.5,403.253 2037.31,117.356 2054.11,117.356 2070.92,177.362 2087.73,334.662 2104.54,334.662 2121.34,334.662 2138.15,334.662 2154.96,543.852 2171.77,543.852 2188.58,543.852 2205.38,543.852 2222.19,395.999 2239,543.852 2255.81,543.852 2272.62,925.163 2289.42,982.461 2306.23,1161.35 2323.04,1345.88 2339.85,1366.55 2356.66,1445.44 2373.46,1445.44 2390.27,1445.44 2407.08,1311.39 2423.89,903.2 2440.69,406.988 2457.5,169.385 2474.31,169.385 2491.12,316.582 2507.93,406.988 2524.73,406.988 2541.54,567.056 2558.35,648.294 2575.16,729.227 2591.97,782.772 2608.77,729.227 2625.58,648.294 2642.39,648.294 2659.2,782.772 2676.01,925.163 2692.81,982.461 2709.62,1161.35 2726.43,1345.88 2743.24,1366.55 2760.05,1445.44 2776.85,1445.44 2793.66,1445.44 2810.47,1311.39 2827.28,903.2 2844.08,406.988 2860.89,169.385 2877.7,316.582 2894.51,406.988 2911.32,648.294 2928.12,543.044 2944.93,729.227 2961.74,866.764 2978.55,903.2 2995.36,813.239 3012.16,729.227 3028.97,567.056 3045.78,648.294 3062.59,866.764 3079.4,925.163 3096.2,982.461 "/>
<polyline clip-path="url(#clip322)" style="stroke:#1ac938; stroke-linecap:round; stroke-linejoin:round; stroke-width:5; stroke-opacity:1; fill:none" points="289.284,1154.68 306.092,1363.65 322.9,1363.65 339.708,1449.59 356.516,1449.59 373.324,1449.59 390.131,1154.68 406.939,381.091 423.747,88.2942 440.555,88.2942 457.363,179.563 474.171,321.257 490.979,473.481 507.787,321.257 524.595,321.257 541.403,554.545 558.21,554.545 575.018,554.545 591.826,554.545 608.634,321.257 625.442,321.257 642.25,473.481 659.058,848.739 675.866,954.016 692.674,1154.68 709.482,1359.79 726.289,1359.79 743.097,1445.38 759.905,1445.38 776.713,1445.38 793.521,1154.68 810.329,384.435 827.137,115.878 843.945,115.878 860.753,115.878 877.56,321.46 894.368,321.46 911.176,321.46 927.984,321.46 944.792,559.099 961.6,476.394 978.408,559.099 995.216,476.394 1012.02,321.46 1028.83,321.46 1045.64,476.394 1062.45,643.49 1079.26,952.161 1096.06,1154.68 1112.87,1359.79 1129.68,1359.79 1146.49,1445.38 1163.29,1445.38 1180.1,1359.79 1196.91,1154.68 1213.72,523.124 1230.53,115.878 1247.33,115.878 1264.14,115.878 1280.95,321.46 1297.76,321.46 1314.57,321.46 1331.37,321.46 1348.18,476.394 1364.99,643.49 1381.8,476.394 1398.61,476.394 1415.41,321.46 1432.22,321.46 1449.03,476.394 1465.84,559.099 1482.64,952.161 1499.45,1154.68 1516.26,1359.79 1533.07,1359.79 1549.88,1445.38 1566.68,1445.38 1583.49,1359.79 1600.3,1154.68 1617.11,384.435 1633.92,115.878 1650.72,115.878 1667.53,115.878 1684.34,321.46 1701.15,321.46 1717.96,321.46 1734.76,321.46 1751.57,476.394 1768.38,559.099 1785.19,476.394 1801.99,321.46 1818.8,321.46 1835.61,559.099 1852.42,476.394 1869.23,749.53 1886.03,952.161 1902.84,952.161 1919.65,1154.68 1936.46,1359.79 1953.27,1445.38 1970.07,1445.38 1986.88,1359.79 2003.69,1154.68 2020.5,384.435 2037.31,115.878 2054.11,115.878 2070.92,115.878 2087.73,321.46 2104.54,321.46 2121.34,321.46 2138.15,321.46 2154.96,559.099 2171.77,559.099 2188.58,643.49 2205.38,476.394 2222.19,476.394 2239,476.394 2255.81,643.49 2272.62,952.161 2289.42,952.161 2306.23,1154.68 2323.04,1359.79 2339.85,1359.79 2356.66,1445.38 2373.46,1445.38 2390.27,1445.38 2407.08,1359.79 2423.89,952.161 2440.69,384.435 2457.5,115.878 2474.31,115.878 2491.12,321.46 2507.93,321.46 2524.73,559.099 2541.54,476.394 2558.35,643.49 2575.16,749.53 2591.97,749.53 2608.77,643.49 2625.58,643.49 2642.39,559.099 2659.2,749.53 2676.01,952.161 2692.81,952.161 2709.62,1154.68 2726.43,1359.79 2743.24,1359.79 2760.05,1445.38 2776.85,1445.38 2793.66,1445.38 2810.47,1359.79 2827.28,952.161 2844.08,384.435 2860.89,115.878 2877.7,195.599 2894.51,476.394 2911.32,559.099 2928.12,643.49 2944.93,643.49 2961.74,952.161 2978.55,952.161 2995.36,952.161 3012.16,749.53 3028.97,559.099 3045.78,643.49 3062.59,749.53 3079.4,952.161 3096.2,1154.68 "/>
<polyline clip-path="url(#clip322)" style="stroke:#e8000b; stroke-linecap:round; stroke-linejoin:round; stroke-width:5; stroke-opacity:1; fill:none" points="289.284,1124.67 306.092,1348.49 322.9,1348.49 339.708,1451.69 356.516,1451.69 373.324,1348.49 390.131,1124.67 406.939,376.111 423.747,112.453 440.555,112.453 457.363,112.453 474.171,312.773 490.979,500.76 507.787,312.773 524.595,312.773 541.403,500.76 558.21,500.76 575.018,896.631 591.826,500.76 608.634,312.773 625.442,312.773 642.25,500.76 659.058,896.631 675.866,1124.67 692.674,1128.26 709.482,1348.49 726.289,1348.49 743.097,1451.69 759.905,1451.69 776.713,1451.69 793.521,1128.26 810.329,467.824 827.137,125.624 843.945,125.624 860.753,125.624 877.56,302.326 894.368,302.326 911.176,302.326 927.984,302.326 944.792,467.824 961.6,467.824 978.408,467.824 995.216,467.824 1012.02,302.326 1028.83,425.347 1045.64,467.824 1062.45,673.191 1079.26,909.579 1096.06,1128.26 1112.87,1348.49 1129.68,1348.49 1146.49,1451.69 1163.29,1451.69 1180.1,1348.49 1196.91,1128.26 1213.72,483.283 1230.53,125.624 1247.33,125.624 1264.14,125.624 1280.95,302.326 1297.76,302.326 1314.57,302.326 1331.37,302.326 1348.18,467.824 1364.99,673.191 1381.8,467.824 1398.61,467.824 1415.41,302.326 1432.22,425.347 1449.03,467.824 1465.84,467.824 1482.64,1036.67 1499.45,1128.26 1516.26,1348.49 1533.07,1348.49 1549.88,1451.69 1566.68,1348.49 1583.49,1348.49 1600.3,1128.26 1617.11,483.283 1633.92,125.624 1650.72,125.624 1667.53,125.624 1684.34,302.326 1701.15,302.326 1717.96,302.326 1734.76,302.326 1751.57,467.824 1768.38,467.824 1785.19,467.824 1801.99,302.326 1818.8,302.326 1835.61,467.824 1852.42,467.824 1869.23,673.191 1886.03,909.579 1902.84,1128.26 1919.65,1128.26 1936.46,1348.49 1953.27,1348.49 1970.07,1348.49 1986.88,1348.49 2003.69,1128.26 2020.5,483.283 2037.31,125.624 2054.11,125.624 2070.92,125.624 2087.73,302.326 2104.54,302.326 2121.34,302.326 2138.15,302.326 2154.96,467.824 2171.77,467.824 2188.58,673.191 2205.38,467.824 2222.19,467.824 2239,467.824 2255.81,673.191 2272.62,909.579 2289.42,1036.67 2306.23,1128.26 2323.04,1348.49 2339.85,1348.49 2356.66,1451.69 2373.46,1451.69 2390.27,1451.69 2407.08,1348.49 2423.89,1036.67 2440.69,467.824 2457.5,125.624 2474.31,125.624 2491.12,302.326 2507.93,467.824 2524.73,467.824 2541.54,467.824 2558.35,673.191 2575.16,673.191 2591.97,909.579 2608.77,673.191 2625.58,673.191 2642.39,467.824 2659.2,909.579 2676.01,1036.67 2692.81,1036.67 2709.62,1128.26 2726.43,1348.49 2743.24,1348.49 2760.05,1451.69 2776.85,1451.69 2793.66,1348.49 2810.47,1348.49 2827.28,1036.67 2844.08,637.201 2860.89,125.624 2877.7,125.624 2894.51,637.201 2911.32,637.201 2928.12,840.965 2944.93,840.965 2961.74,519.139 2978.55,519.139 2995.36,519.139 3012.16,840.965 3028.97,637.201 3045.78,840.965 3062.59,519.139 3079.4,519.139 3096.2,1036.67 "/>
<path clip-path="url(#clip320)" d="M3305.33 445.512 L3952.76 445.512 L3952.76 95.592 L3305.33 95.592  Z" fill="#ffffff" fill-rule="evenodd" fill-opacity="1"/>
<polyline clip-path="url(#clip320)" style="stroke:#000000; stroke-linecap:round; stroke-linejoin:round; stroke-width:4; stroke-opacity:1; fill:none" points="3305.33,445.512 3952.76,445.512 3952.76,95.592 3305.33,95.592 3305.33,445.512 "/>
<polyline clip-path="url(#clip320)" style="stroke:#023eff; stroke-linecap:round; stroke-linejoin:round; stroke-width:5.625; stroke-opacity:1; fill:none" points="3346.97,153.912 3596.82,153.912 "/>
<path clip-path="url(#clip320)" d="M3643.28 168.977 L3643.28 184.446 L3638.46 184.446 L3638.46 144.185 L3643.28 144.185 L3643.28 148.613 Q3644.79 146.008 3647.08 144.758 Q3649.4 143.482 3652.6 143.482 Q3657.91 143.482 3661.22 147.701 Q3664.55 151.92 3664.55 158.795 Q3664.55 165.67 3661.22 169.888 Q3657.91 174.107 3652.6 174.107 Q3649.4 174.107 3647.08 172.857 Q3644.79 171.581 3643.28 168.977 M3659.58 158.795 Q3659.58 153.508 3657.39 150.514 Q3655.23 147.493 3651.43 147.493 Q3647.63 147.493 3645.44 150.514 Q3643.28 153.508 3643.28 158.795 Q3643.28 164.081 3645.44 167.102 Q3647.63 170.097 3651.43 170.097 Q3655.23 170.097 3657.39 167.102 Q3659.58 164.081 3659.58 158.795 Z" fill="#000000" fill-rule="nonzero" fill-opacity="1" /><path clip-path="url(#clip320)" d="M3689.4 148.665 Q3688.59 148.196 3687.63 147.988 Q3686.69 147.753 3685.54 147.753 Q3681.48 147.753 3679.29 150.409 Q3677.13 153.04 3677.13 157.987 L3677.13 173.352 L3672.31 173.352 L3672.31 144.185 L3677.13 144.185 L3677.13 148.717 Q3678.64 146.06 3681.06 144.784 Q3683.49 143.482 3686.95 143.482 Q3687.44 143.482 3688.04 143.56 Q3688.64 143.613 3689.37 143.743 L3689.4 148.665 Z" fill="#000000" fill-rule="nonzero" fill-opacity="1" /><path clip-path="url(#clip320)" d="M3718.2 157.571 L3718.2 159.915 L3696.17 159.915 Q3696.48 164.862 3699.14 167.467 Q3701.82 170.045 3706.58 170.045 Q3709.35 170.045 3711.92 169.368 Q3714.53 168.691 3717.08 167.336 L3717.08 171.868 Q3714.5 172.961 3711.79 173.534 Q3709.08 174.107 3706.3 174.107 Q3699.32 174.107 3695.23 170.045 Q3691.17 165.982 3691.17 159.055 Q3691.17 151.894 3695.02 147.701 Q3698.9 143.482 3705.47 143.482 Q3711.35 143.482 3714.76 147.284 Q3718.2 151.06 3718.2 157.571 M3713.41 156.165 Q3713.36 152.232 3711.19 149.889 Q3709.06 147.545 3705.52 147.545 Q3701.51 147.545 3699.08 149.81 Q3696.69 152.076 3696.32 156.191 L3713.41 156.165 Z" fill="#000000" fill-rule="nonzero" fill-opacity="1" /><path clip-path="url(#clip320)" d="M3745.26 148.613 L3745.26 132.831 L3750.05 132.831 L3750.05 173.352 L3745.26 173.352 L3745.26 168.977 Q3743.75 171.581 3741.43 172.857 Q3739.14 174.107 3735.91 174.107 Q3730.62 174.107 3727.29 169.888 Q3723.98 165.67 3723.98 158.795 Q3723.98 151.92 3727.29 147.701 Q3730.62 143.482 3735.91 143.482 Q3739.14 143.482 3741.43 144.758 Q3743.75 146.008 3745.26 148.613 M3728.93 158.795 Q3728.93 164.081 3731.09 167.102 Q3733.28 170.097 3737.08 170.097 Q3740.88 170.097 3743.07 167.102 Q3745.26 164.081 3745.26 158.795 Q3745.26 153.508 3743.07 150.514 Q3740.88 147.493 3737.08 147.493 Q3733.28 147.493 3731.09 150.514 Q3728.93 153.508 3728.93 158.795 Z" fill="#000000" fill-rule="nonzero" fill-opacity="1" /><path clip-path="url(#clip320)" d="M3759.92 144.185 L3764.71 144.185 L3764.71 173.352 L3759.92 173.352 L3759.92 144.185 M3759.92 132.831 L3764.71 132.831 L3764.71 138.899 L3759.92 138.899 L3759.92 132.831 Z" fill="#000000" fill-rule="nonzero" fill-opacity="1" /><path clip-path="url(#clip320)" d="M3795.73 145.305 L3795.73 149.784 Q3793.69 148.665 3791.64 148.118 Q3789.61 147.545 3787.52 147.545 Q3782.86 147.545 3780.28 150.514 Q3777.7 153.456 3777.7 158.795 Q3777.7 164.133 3780.28 167.102 Q3782.86 170.045 3787.52 170.045 Q3789.61 170.045 3791.64 169.498 Q3793.69 168.925 3795.73 167.805 L3795.73 172.232 Q3793.72 173.17 3791.56 173.638 Q3789.42 174.107 3787 174.107 Q3780.41 174.107 3776.53 169.967 Q3772.65 165.826 3772.65 158.795 Q3772.65 151.659 3776.56 147.571 Q3780.49 143.482 3787.31 143.482 Q3789.53 143.482 3791.64 143.951 Q3793.75 144.394 3795.73 145.305 Z" fill="#000000" fill-rule="nonzero" fill-opacity="1" /><path clip-path="url(#clip320)" d="M3808.8 135.904 L3808.8 144.185 L3818.67 144.185 L3818.67 147.909 L3808.8 147.909 L3808.8 163.743 Q3808.8 167.31 3809.76 168.326 Q3810.75 169.342 3813.75 169.342 L3818.67 169.342 L3818.67 173.352 L3813.75 173.352 Q3808.2 173.352 3806.09 171.295 Q3803.98 169.211 3803.98 163.743 L3803.98 147.909 L3800.46 147.909 L3800.46 144.185 L3803.98 144.185 L3803.98 135.904 L3808.8 135.904 Z" fill="#000000" fill-rule="nonzero" fill-opacity="1" /><path clip-path="url(#clip320)" d="M3847.13 182.206 L3847.13 185.93 L3819.42 185.93 L3819.42 182.206 L3847.13 182.206 Z" fill="#000000" fill-rule="nonzero" fill-opacity="1" /><path clip-path="url(#clip320)" d="M3852.37 134.472 L3873.02 134.472 L3873.02 138.899 L3857.18 138.899 L3857.18 148.43 Q3858.33 148.04 3859.47 147.857 Q3860.62 147.649 3861.77 147.649 Q3868.28 147.649 3872.08 151.217 Q3875.88 154.784 3875.88 160.878 Q3875.88 167.154 3871.97 170.644 Q3868.07 174.107 3860.96 174.107 Q3858.51 174.107 3855.96 173.69 Q3853.43 173.274 3850.72 172.441 L3850.72 167.154 Q3853.07 168.43 3855.57 169.055 Q3858.07 169.68 3860.85 169.68 Q3865.36 169.68 3867.99 167.31 Q3870.62 164.941 3870.62 160.878 Q3870.62 156.816 3867.99 154.446 Q3865.36 152.076 3860.85 152.076 Q3858.75 152.076 3856.64 152.545 Q3854.55 153.014 3852.37 154.003 L3852.37 134.472 Z" fill="#000000" fill-rule="nonzero" fill-opacity="1" /><path clip-path="url(#clip320)" d="M3890.78 168.925 L3909.14 168.925 L3909.14 173.352 L3884.45 173.352 L3884.45 168.925 Q3887.44 165.826 3892.6 160.618 Q3897.78 155.383 3899.11 153.873 Q3901.64 151.034 3902.63 149.081 Q3903.64 147.102 3903.64 145.201 Q3903.64 142.102 3901.45 140.149 Q3899.29 138.196 3895.8 138.196 Q3893.33 138.196 3890.57 139.055 Q3887.83 139.915 3884.71 141.659 L3884.71 136.347 Q3887.89 135.071 3890.65 134.42 Q3893.41 133.769 3895.7 133.769 Q3901.74 133.769 3905.33 136.79 Q3908.93 139.81 3908.93 144.863 Q3908.93 147.258 3908.02 149.42 Q3907.13 151.555 3904.76 154.472 Q3904.11 155.227 3900.62 158.847 Q3897.13 162.441 3890.78 168.925 Z" fill="#000000" fill-rule="nonzero" fill-opacity="1" /><polyline clip-path="url(#clip320)" style="stroke:#ff7c00; stroke-linecap:round; stroke-linejoin:round; stroke-width:5.625; stroke-opacity:1; fill:none" points="3346.97,212.232 3596.82,212.232 "/>
<path clip-path="url(#clip320)" d="M3643.28 227.297 L3643.28 242.766 L3638.46 242.766 L3638.46 202.505 L3643.28 202.505 L3643.28 206.933 Q3644.79 204.328 3647.08 203.078 Q3649.4 201.802 3652.6 201.802 Q3657.91 201.802 3661.22 206.021 Q3664.55 210.24 3664.55 217.115 Q3664.55 223.99 3661.22 228.208 Q3657.91 232.427 3652.6 232.427 Q3649.4 232.427 3647.08 231.177 Q3644.79 229.901 3643.28 227.297 M3659.58 217.115 Q3659.58 211.828 3657.39 208.834 Q3655.23 205.813 3651.43 205.813 Q3647.63 205.813 3645.44 208.834 Q3643.28 211.828 3643.28 217.115 Q3643.28 222.401 3645.44 225.422 Q3647.63 228.417 3651.43 228.417 Q3655.23 228.417 3657.39 225.422 Q3659.58 222.401 3659.58 217.115 Z" fill="#000000" fill-rule="nonzero" fill-opacity="1" /><path clip-path="url(#clip320)" d="M3689.4 206.985 Q3688.59 206.516 3687.63 206.308 Q3686.69 206.073 3685.54 206.073 Q3681.48 206.073 3679.29 208.729 Q3677.13 211.36 3677.13 216.307 L3677.13 231.672 L3672.31 231.672 L3672.31 202.505 L3677.13 202.505 L3677.13 207.037 Q3678.64 204.38 3681.06 203.104 Q3683.49 201.802 3686.95 201.802 Q3687.44 201.802 3688.04 201.88 Q3688.64 201.933 3689.37 202.063 L3689.4 206.985 Z" fill="#000000" fill-rule="nonzero" fill-opacity="1" /><path clip-path="url(#clip320)" d="M3718.2 215.891 L3718.2 218.235 L3696.17 218.235 Q3696.48 223.182 3699.14 225.787 Q3701.82 228.365 3706.58 228.365 Q3709.35 228.365 3711.92 227.688 Q3714.53 227.011 3717.08 225.656 L3717.08 230.188 Q3714.5 231.281 3711.79 231.854 Q3709.08 232.427 3706.3 232.427 Q3699.32 232.427 3695.23 228.365 Q3691.17 224.302 3691.17 217.375 Q3691.17 210.214 3695.02 206.021 Q3698.9 201.802 3705.47 201.802 Q3711.35 201.802 3714.76 205.604 Q3718.2 209.38 3718.2 215.891 M3713.41 214.485 Q3713.36 210.552 3711.19 208.209 Q3709.06 205.865 3705.52 205.865 Q3701.51 205.865 3699.08 208.13 Q3696.69 210.396 3696.32 214.511 L3713.41 214.485 Z" fill="#000000" fill-rule="nonzero" fill-opacity="1" /><path clip-path="url(#clip320)" d="M3745.26 206.933 L3745.26 191.151 L3750.05 191.151 L3750.05 231.672 L3745.26 231.672 L3745.26 227.297 Q3743.75 229.901 3741.43 231.177 Q3739.14 232.427 3735.91 232.427 Q3730.62 232.427 3727.29 228.208 Q3723.98 223.99 3723.98 217.115 Q3723.98 210.24 3727.29 206.021 Q3730.62 201.802 3735.91 201.802 Q3739.14 201.802 3741.43 203.078 Q3743.75 204.328 3745.26 206.933 M3728.93 217.115 Q3728.93 222.401 3731.09 225.422 Q3733.28 228.417 3737.08 228.417 Q3740.88 228.417 3743.07 225.422 Q3745.26 222.401 3745.26 217.115 Q3745.26 211.828 3743.07 208.834 Q3740.88 205.813 3737.08 205.813 Q3733.28 205.813 3731.09 208.834 Q3728.93 211.828 3728.93 217.115 Z" fill="#000000" fill-rule="nonzero" fill-opacity="1" /><path clip-path="url(#clip320)" d="M3759.92 202.505 L3764.71 202.505 L3764.71 231.672 L3759.92 231.672 L3759.92 202.505 M3759.92 191.151 L3764.71 191.151 L3764.71 197.219 L3759.92 197.219 L3759.92 191.151 Z" fill="#000000" fill-rule="nonzero" fill-opacity="1" /><path clip-path="url(#clip320)" d="M3795.73 203.625 L3795.73 208.104 Q3793.69 206.985 3791.64 206.438 Q3789.61 205.865 3787.52 205.865 Q3782.86 205.865 3780.28 208.834 Q3777.7 211.776 3777.7 217.115 Q3777.7 222.453 3780.28 225.422 Q3782.86 228.365 3787.52 228.365 Q3789.61 228.365 3791.64 227.818 Q3793.69 227.245 3795.73 226.125 L3795.73 230.552 Q3793.72 231.49 3791.56 231.958 Q3789.42 232.427 3787 232.427 Q3780.41 232.427 3776.53 228.287 Q3772.65 224.146 3772.65 217.115 Q3772.65 209.979 3776.56 205.891 Q3780.49 201.802 3787.31 201.802 Q3789.53 201.802 3791.64 202.271 Q3793.75 202.714 3795.73 203.625 Z" fill="#000000" fill-rule="nonzero" fill-opacity="1" /><path clip-path="url(#clip320)" d="M3808.8 194.224 L3808.8 202.505 L3818.67 202.505 L3818.67 206.229 L3808.8 206.229 L3808.8 222.063 Q3808.8 225.63 3809.76 226.646 Q3810.75 227.662 3813.75 227.662 L3818.67 227.662 L3818.67 231.672 L3813.75 231.672 Q3808.2 231.672 3806.09 229.615 Q3803.98 227.531 3803.98 222.063 L3803.98 206.229 L3800.46 206.229 L3800.46 202.505 L3803.98 202.505 L3803.98 194.224 L3808.8 194.224 Z" fill="#000000" fill-rule="nonzero" fill-opacity="1" /><path clip-path="url(#clip320)" d="M3847.13 240.526 L3847.13 244.25 L3819.42 244.25 L3819.42 240.526 L3847.13 240.526 Z" fill="#000000" fill-rule="nonzero" fill-opacity="1" /><path clip-path="url(#clip320)" d="M3856.84 227.245 L3875.2 227.245 L3875.2 231.672 L3850.52 231.672 L3850.52 227.245 Q3853.51 224.146 3858.67 218.938 Q3863.85 213.703 3865.18 212.193 Q3867.7 209.354 3868.69 207.401 Q3869.71 205.422 3869.71 203.521 Q3869.71 200.422 3867.52 198.469 Q3865.36 196.516 3861.87 196.516 Q3859.4 196.516 3856.64 197.375 Q3853.9 198.235 3850.78 199.979 L3850.78 194.667 Q3853.95 193.391 3856.71 192.74 Q3859.47 192.089 3861.77 192.089 Q3867.81 192.089 3871.4 195.11 Q3875 198.13 3875 203.183 Q3875 205.578 3874.08 207.74 Q3873.2 209.875 3870.83 212.792 Q3870.18 213.547 3866.69 217.167 Q3863.2 220.761 3856.84 227.245 Z" fill="#000000" fill-rule="nonzero" fill-opacity="1" /><path clip-path="url(#clip320)" d="M3898.15 210.136 Q3894.6 210.136 3892.52 212.557 Q3890.46 214.979 3890.46 219.198 Q3890.46 223.391 3892.52 225.839 Q3894.6 228.261 3898.15 228.261 Q3901.69 228.261 3903.75 225.839 Q3905.83 223.391 3905.83 219.198 Q3905.83 214.979 3903.75 212.557 Q3901.69 210.136 3898.15 210.136 M3908.59 193.651 L3908.59 198.443 Q3906.61 197.505 3904.58 197.011 Q3902.57 196.516 3900.59 196.516 Q3895.39 196.516 3892.63 200.031 Q3889.89 203.547 3889.5 210.656 Q3891.04 208.391 3893.35 207.193 Q3895.67 205.969 3898.46 205.969 Q3904.32 205.969 3907.7 209.537 Q3911.12 213.078 3911.12 219.198 Q3911.12 225.188 3907.57 228.807 Q3904.03 232.427 3898.15 232.427 Q3891.4 232.427 3887.83 227.271 Q3884.27 222.089 3884.27 212.271 Q3884.27 203.052 3888.64 197.584 Q3893.02 192.089 3900.39 192.089 Q3902.37 192.089 3904.37 192.479 Q3906.4 192.87 3908.59 193.651 Z" fill="#000000" fill-rule="nonzero" fill-opacity="1" /><polyline clip-path="url(#clip320)" style="stroke:#1ac938; stroke-linecap:round; stroke-linejoin:round; stroke-width:5.625; stroke-opacity:1; fill:none" points="3346.97,270.552 3596.82,270.552 "/>
<path clip-path="url(#clip320)" d="M3643.28 285.617 L3643.28 301.086 L3638.46 301.086 L3638.46 260.825 L3643.28 260.825 L3643.28 265.253 Q3644.79 262.648 3647.08 261.398 Q3649.4 260.122 3652.6 260.122 Q3657.91 260.122 3661.22 264.341 Q3664.55 268.56 3664.55 275.435 Q3664.55 282.31 3661.22 286.528 Q3657.91 290.747 3652.6 290.747 Q3649.4 290.747 3647.08 289.497 Q3644.79 288.221 3643.28 285.617 M3659.58 275.435 Q3659.58 270.148 3657.39 267.154 Q3655.23 264.133 3651.43 264.133 Q3647.63 264.133 3645.44 267.154 Q3643.28 270.148 3643.28 275.435 Q3643.28 280.721 3645.44 283.742 Q3647.63 286.737 3651.43 286.737 Q3655.23 286.737 3657.39 283.742 Q3659.58 280.721 3659.58 275.435 Z" fill="#000000" fill-rule="nonzero" fill-opacity="1" /><path clip-path="url(#clip320)" d="M3689.4 265.305 Q3688.59 264.836 3687.63 264.628 Q3686.69 264.393 3685.54 264.393 Q3681.48 264.393 3679.29 267.049 Q3677.13 269.68 3677.13 274.627 L3677.13 289.992 L3672.31 289.992 L3672.31 260.825 L3677.13 260.825 L3677.13 265.357 Q3678.64 262.7 3681.06 261.424 Q3683.49 260.122 3686.95 260.122 Q3687.44 260.122 3688.04 260.2 Q3688.64 260.253 3689.37 260.383 L3689.4 265.305 Z" fill="#000000" fill-rule="nonzero" fill-opacity="1" /><path clip-path="url(#clip320)" d="M3718.2 274.211 L3718.2 276.555 L3696.17 276.555 Q3696.48 281.502 3699.14 284.107 Q3701.82 286.685 3706.58 286.685 Q3709.35 286.685 3711.92 286.008 Q3714.53 285.331 3717.08 283.976 L3717.08 288.508 Q3714.5 289.601 3711.79 290.174 Q3709.08 290.747 3706.3 290.747 Q3699.32 290.747 3695.23 286.685 Q3691.17 282.622 3691.17 275.695 Q3691.17 268.534 3695.02 264.341 Q3698.9 260.122 3705.47 260.122 Q3711.35 260.122 3714.76 263.924 Q3718.2 267.7 3718.2 274.211 M3713.41 272.805 Q3713.36 268.872 3711.19 266.529 Q3709.06 264.185 3705.52 264.185 Q3701.51 264.185 3699.08 266.45 Q3696.69 268.716 3696.32 272.831 L3713.41 272.805 Z" fill="#000000" fill-rule="nonzero" fill-opacity="1" /><path clip-path="url(#clip320)" d="M3745.26 265.253 L3745.26 249.471 L3750.05 249.471 L3750.05 289.992 L3745.26 289.992 L3745.26 285.617 Q3743.75 288.221 3741.43 289.497 Q3739.14 290.747 3735.91 290.747 Q3730.62 290.747 3727.29 286.528 Q3723.98 282.31 3723.98 275.435 Q3723.98 268.56 3727.29 264.341 Q3730.62 260.122 3735.91 260.122 Q3739.14 260.122 3741.43 261.398 Q3743.75 262.648 3745.26 265.253 M3728.93 275.435 Q3728.93 280.721 3731.09 283.742 Q3733.28 286.737 3737.08 286.737 Q3740.88 286.737 3743.07 283.742 Q3745.26 280.721 3745.26 275.435 Q3745.26 270.148 3743.07 267.154 Q3740.88 264.133 3737.08 264.133 Q3733.28 264.133 3731.09 267.154 Q3728.93 270.148 3728.93 275.435 Z" fill="#000000" fill-rule="nonzero" fill-opacity="1" /><path clip-path="url(#clip320)" d="M3759.92 260.825 L3764.71 260.825 L3764.71 289.992 L3759.92 289.992 L3759.92 260.825 M3759.92 249.471 L3764.71 249.471 L3764.71 255.539 L3759.92 255.539 L3759.92 249.471 Z" fill="#000000" fill-rule="nonzero" fill-opacity="1" /><path clip-path="url(#clip320)" d="M3795.73 261.945 L3795.73 266.424 Q3793.69 265.305 3791.64 264.758 Q3789.61 264.185 3787.52 264.185 Q3782.86 264.185 3780.28 267.154 Q3777.7 270.096 3777.7 275.435 Q3777.7 280.773 3780.28 283.742 Q3782.86 286.685 3787.52 286.685 Q3789.61 286.685 3791.64 286.138 Q3793.69 285.565 3795.73 284.445 L3795.73 288.872 Q3793.72 289.81 3791.56 290.278 Q3789.42 290.747 3787 290.747 Q3780.41 290.747 3776.53 286.607 Q3772.65 282.466 3772.65 275.435 Q3772.65 268.299 3776.56 264.211 Q3780.49 260.122 3787.31 260.122 Q3789.53 260.122 3791.64 260.591 Q3793.75 261.034 3795.73 261.945 Z" fill="#000000" fill-rule="nonzero" fill-opacity="1" /><path clip-path="url(#clip320)" d="M3808.8 252.544 L3808.8 260.825 L3818.67 260.825 L3818.67 264.549 L3808.8 264.549 L3808.8 280.383 Q3808.8 283.95 3809.76 284.966 Q3810.75 285.982 3813.75 285.982 L3818.67 285.982 L3818.67 289.992 L3813.75 289.992 Q3808.2 289.992 3806.09 287.935 Q3803.98 285.851 3803.98 280.383 L3803.98 264.549 L3800.46 264.549 L3800.46 260.825 L3803.98 260.825 L3803.98 252.544 L3808.8 252.544 Z" fill="#000000" fill-rule="nonzero" fill-opacity="1" /><path clip-path="url(#clip320)" d="M3847.13 298.846 L3847.13 302.57 L3819.42 302.57 L3819.42 298.846 L3847.13 298.846 Z" fill="#000000" fill-rule="nonzero" fill-opacity="1" /><path clip-path="url(#clip320)" d="M3866.77 255.695 L3853.49 276.45 L3866.77 276.45 L3866.77 255.695 M3865.39 251.112 L3872 251.112 L3872 276.45 L3877.55 276.45 L3877.55 280.825 L3872 280.825 L3872 289.992 L3866.77 289.992 L3866.77 280.825 L3849.21 280.825 L3849.21 275.747 L3865.39 251.112 Z" fill="#000000" fill-rule="nonzero" fill-opacity="1" /><polyline clip-path="url(#clip320)" style="stroke:#e8000b; stroke-linecap:round; stroke-linejoin:round; stroke-width:5.625; stroke-opacity:1; fill:none" points="3346.97,328.872 3596.82,328.872 "/>
<path clip-path="url(#clip320)" d="M3643.28 343.937 L3643.28 359.406 L3638.46 359.406 L3638.46 319.145 L3643.28 319.145 L3643.28 323.573 Q3644.79 320.968 3647.08 319.718 Q3649.4 318.442 3652.6 318.442 Q3657.91 318.442 3661.22 322.661 Q3664.55 326.88 3664.55 333.755 Q3664.55 340.63 3661.22 344.848 Q3657.91 349.067 3652.6 349.067 Q3649.4 349.067 3647.08 347.817 Q3644.79 346.541 3643.28 343.937 M3659.58 333.755 Q3659.58 328.468 3657.39 325.474 Q3655.23 322.453 3651.43 322.453 Q3647.63 322.453 3645.44 325.474 Q3643.28 328.468 3643.28 333.755 Q3643.28 339.041 3645.44 342.062 Q3647.63 345.057 3651.43 345.057 Q3655.23 345.057 3657.39 342.062 Q3659.58 339.041 3659.58 333.755 Z" fill="#000000" fill-rule="nonzero" fill-opacity="1" /><path clip-path="url(#clip320)" d="M3689.4 323.625 Q3688.59 323.156 3687.63 322.948 Q3686.69 322.713 3685.54 322.713 Q3681.48 322.713 3679.29 325.369 Q3677.13 328 3677.13 332.947 L3677.13 348.312 L3672.31 348.312 L3672.31 319.145 L3677.13 319.145 L3677.13 323.677 Q3678.64 321.02 3681.06 319.744 Q3683.49 318.442 3686.95 318.442 Q3687.44 318.442 3688.04 318.52 Q3688.64 318.573 3689.37 318.703 L3689.4 323.625 Z" fill="#000000" fill-rule="nonzero" fill-opacity="1" /><path clip-path="url(#clip320)" d="M3718.2 332.531 L3718.2 334.875 L3696.17 334.875 Q3696.48 339.822 3699.14 342.427 Q3701.82 345.005 3706.58 345.005 Q3709.35 345.005 3711.92 344.328 Q3714.53 343.651 3717.08 342.296 L3717.08 346.828 Q3714.5 347.921 3711.79 348.494 Q3709.08 349.067 3706.3 349.067 Q3699.32 349.067 3695.23 345.005 Q3691.17 340.942 3691.17 334.015 Q3691.17 326.854 3695.02 322.661 Q3698.9 318.442 3705.47 318.442 Q3711.35 318.442 3714.76 322.244 Q3718.2 326.02 3718.2 332.531 M3713.41 331.125 Q3713.36 327.192 3711.19 324.849 Q3709.06 322.505 3705.52 322.505 Q3701.51 322.505 3699.08 324.77 Q3696.69 327.036 3696.32 331.151 L3713.41 331.125 Z" fill="#000000" fill-rule="nonzero" fill-opacity="1" /><path clip-path="url(#clip320)" d="M3745.26 323.573 L3745.26 307.791 L3750.05 307.791 L3750.05 348.312 L3745.26 348.312 L3745.26 343.937 Q3743.75 346.541 3741.43 347.817 Q3739.14 349.067 3735.91 349.067 Q3730.62 349.067 3727.29 344.848 Q3723.98 340.63 3723.98 333.755 Q3723.98 326.88 3727.29 322.661 Q3730.62 318.442 3735.91 318.442 Q3739.14 318.442 3741.43 319.718 Q3743.75 320.968 3745.26 323.573 M3728.93 333.755 Q3728.93 339.041 3731.09 342.062 Q3733.28 345.057 3737.08 345.057 Q3740.88 345.057 3743.07 342.062 Q3745.26 339.041 3745.26 333.755 Q3745.26 328.468 3743.07 325.474 Q3740.88 322.453 3737.08 322.453 Q3733.28 322.453 3731.09 325.474 Q3728.93 328.468 3728.93 333.755 Z" fill="#000000" fill-rule="nonzero" fill-opacity="1" /><path clip-path="url(#clip320)" d="M3759.92 319.145 L3764.71 319.145 L3764.71 348.312 L3759.92 348.312 L3759.92 319.145 M3759.92 307.791 L3764.71 307.791 L3764.71 313.859 L3759.92 313.859 L3759.92 307.791 Z" fill="#000000" fill-rule="nonzero" fill-opacity="1" /><path clip-path="url(#clip320)" d="M3795.73 320.265 L3795.73 324.744 Q3793.69 323.625 3791.64 323.078 Q3789.61 322.505 3787.52 322.505 Q3782.86 322.505 3780.28 325.474 Q3777.7 328.416 3777.7 333.755 Q3777.7 339.093 3780.28 342.062 Q3782.86 345.005 3787.52 345.005 Q3789.61 345.005 3791.64 344.458 Q3793.69 343.885 3795.73 342.765 L3795.73 347.192 Q3793.72 348.13 3791.56 348.598 Q3789.42 349.067 3787 349.067 Q3780.41 349.067 3776.53 344.927 Q3772.65 340.786 3772.65 333.755 Q3772.65 326.619 3776.56 322.531 Q3780.49 318.442 3787.31 318.442 Q3789.53 318.442 3791.64 318.911 Q3793.75 319.354 3795.73 320.265 Z" fill="#000000" fill-rule="nonzero" fill-opacity="1" /><path clip-path="url(#clip320)" d="M3808.8 310.864 L3808.8 319.145 L3818.67 319.145 L3818.67 322.869 L3808.8 322.869 L3808.8 338.703 Q3808.8 342.27 3809.76 343.286 Q3810.75 344.302 3813.75 344.302 L3818.67 344.302 L3818.67 348.312 L3813.75 348.312 Q3808.2 348.312 3806.09 346.255 Q3803.98 344.171 3803.98 338.703 L3803.98 322.869 L3800.46 322.869 L3800.46 319.145 L3803.98 319.145 L3803.98 310.864 L3808.8 310.864 Z" fill="#000000" fill-rule="nonzero" fill-opacity="1" /><path clip-path="url(#clip320)" d="M3847.13 357.166 L3847.13 360.89 L3819.42 360.89 L3819.42 357.166 L3847.13 357.166 Z" fill="#000000" fill-rule="nonzero" fill-opacity="1" /><path clip-path="url(#clip320)" d="M3853.22 343.885 L3861.82 343.885 L3861.82 314.224 L3852.47 316.099 L3852.47 311.307 L3861.77 309.432 L3867.03 309.432 L3867.03 343.885 L3875.62 343.885 L3875.62 348.312 L3853.22 348.312 L3853.22 343.885 Z" fill="#000000" fill-rule="nonzero" fill-opacity="1" /><polyline clip-path="url(#clip320)" style="stroke:#000000; stroke-linecap:round; stroke-linejoin:round; stroke-width:6.75; stroke-opacity:1; fill:none" points="3346.97,387.192 3596.82,387.192 "/>
<path clip-path="url(#clip320)" d="M3653.54 391.971 Q3647.73 391.971 3645.49 393.299 Q3643.25 394.627 3643.25 397.83 Q3643.25 400.382 3644.92 401.892 Q3646.61 403.377 3649.5 403.377 Q3653.49 403.377 3655.88 400.564 Q3658.3 397.726 3658.3 393.038 L3658.3 391.971 L3653.54 391.971 M3663.1 389.991 L3663.1 406.632 L3658.3 406.632 L3658.3 402.205 Q3656.66 404.861 3654.22 406.137 Q3651.77 407.387 3648.23 407.387 Q3643.75 407.387 3641.09 404.887 Q3638.46 402.361 3638.46 398.142 Q3638.46 393.221 3641.74 390.721 Q3645.05 388.221 3651.59 388.221 L3658.3 388.221 L3658.3 387.752 Q3658.3 384.445 3656.12 382.648 Q3653.95 380.825 3650.02 380.825 Q3647.52 380.825 3645.15 381.424 Q3642.78 382.023 3640.6 383.221 L3640.6 378.794 Q3643.23 377.778 3645.7 377.283 Q3648.17 376.762 3650.52 376.762 Q3656.85 376.762 3659.97 380.044 Q3663.1 383.325 3663.1 389.991 Z" fill="#000000" fill-rule="nonzero" fill-opacity="1" /><path clip-path="url(#clip320)" d="M3693.95 378.585 L3693.95 383.064 Q3691.92 381.945 3689.87 381.398 Q3687.83 380.825 3685.75 380.825 Q3681.09 380.825 3678.51 383.794 Q3675.93 386.736 3675.93 392.075 Q3675.93 397.413 3678.51 400.382 Q3681.09 403.325 3685.75 403.325 Q3687.83 403.325 3689.87 402.778 Q3691.92 402.205 3693.95 401.085 L3693.95 405.512 Q3691.95 406.45 3689.79 406.918 Q3687.65 407.387 3685.23 407.387 Q3678.64 407.387 3674.76 403.247 Q3670.88 399.106 3670.88 392.075 Q3670.88 384.939 3674.79 380.851 Q3678.72 376.762 3685.54 376.762 Q3687.76 376.762 3689.87 377.231 Q3691.98 377.674 3693.95 378.585 Z" fill="#000000" fill-rule="nonzero" fill-opacity="1" /><path clip-path="url(#clip320)" d="M3707.03 369.184 L3707.03 377.465 L3716.9 377.465 L3716.9 381.189 L3707.03 381.189 L3707.03 397.023 Q3707.03 400.59 3707.99 401.606 Q3708.98 402.622 3711.98 402.622 L3716.9 402.622 L3716.9 406.632 L3711.98 406.632 Q3706.43 406.632 3704.32 404.575 Q3702.21 402.491 3702.21 397.023 L3702.21 381.189 L3698.69 381.189 L3698.69 377.465 L3702.21 377.465 L3702.21 369.184 L3707.03 369.184 Z" fill="#000000" fill-rule="nonzero" fill-opacity="1" /><path clip-path="url(#clip320)" d="M3722.7 395.122 L3722.7 377.465 L3727.5 377.465 L3727.5 394.939 Q3727.5 399.08 3729.11 401.163 Q3730.73 403.221 3733.95 403.221 Q3737.83 403.221 3740.07 400.747 Q3742.34 398.273 3742.34 394.002 L3742.34 377.465 L3747.13 377.465 L3747.13 406.632 L3742.34 406.632 L3742.34 402.153 Q3740.6 404.809 3738.28 406.111 Q3735.99 407.387 3732.94 407.387 Q3727.91 407.387 3725.31 404.262 Q3722.7 401.137 3722.7 395.122 M3734.76 376.762 L3734.76 376.762 Z" fill="#000000" fill-rule="nonzero" fill-opacity="1" /><path clip-path="url(#clip320)" d="M3770.26 391.971 Q3764.45 391.971 3762.21 393.299 Q3759.97 394.627 3759.97 397.83 Q3759.97 400.382 3761.64 401.892 Q3763.33 403.377 3766.22 403.377 Q3770.2 403.377 3772.6 400.564 Q3775.02 397.726 3775.02 393.038 L3775.02 391.971 L3770.26 391.971 M3779.81 389.991 L3779.81 406.632 L3775.02 406.632 L3775.02 402.205 Q3773.38 404.861 3770.93 406.137 Q3768.49 407.387 3764.94 407.387 Q3760.46 407.387 3757.81 404.887 Q3755.18 402.361 3755.18 398.142 Q3755.18 393.221 3758.46 390.721 Q3761.77 388.221 3768.3 388.221 L3775.02 388.221 L3775.02 387.752 Q3775.02 384.445 3772.83 382.648 Q3770.67 380.825 3766.74 380.825 Q3764.24 380.825 3761.87 381.424 Q3759.5 382.023 3757.31 383.221 L3757.31 378.794 Q3759.94 377.778 3762.42 377.283 Q3764.89 376.762 3767.24 376.762 Q3773.56 376.762 3776.69 380.044 Q3779.81 383.325 3779.81 389.991 Z" fill="#000000" fill-rule="nonzero" fill-opacity="1" /><path clip-path="url(#clip320)" d="M3789.68 366.111 L3794.48 366.111 L3794.48 406.632 L3789.68 406.632 L3789.68 366.111 Z" fill="#000000" fill-rule="nonzero" fill-opacity="1" /></svg>
