<?xml version="1.0" encoding="UTF-8" standalone="no"?>
<!DOCTYPE svg PUBLIC "-//W3C//DTD SVG 1.1//EN"
 "http://www.w3.org/Graphics/SVG/1.1/DTD/svg11.dtd">
<!-- Generated by graphviz version 2.50.0 (20211204.2007)
 -->
<!-- Pages: 1 -->
<svg width="1917pt" height="1050pt"
 viewBox="0.00 0.00 1916.50 1050.00" xmlns="http://www.w3.org/2000/svg" xmlns:xlink="http://www.w3.org/1999/xlink">
<g id="graph0" class="graph" transform="scale(1 1) rotate(0) translate(4 1046)">
<polygon fill="white" stroke="transparent" points="-4,4 -4,-1046 1912.5,-1046 1912.5,4 -4,4"/>
<!-- 1 -->
<g id="node1" class="node">
<title>1</title>
<text text-anchor="start" x="924.5" y="-1023.8" font-family="Arial" font-weight="bold" font-size="14.00"> </text>
<path fill="#ebebeb" stroke="transparent" d="M884.5,-951C884.5,-951 968.5,-951 968.5,-951 974.5,-951 980.5,-957 980.5,-963 980.5,-963 980.5,-1003 980.5,-1003 980.5,-1009 974.5,-1015 968.5,-1015 968.5,-1015 884.5,-1015 884.5,-1015 878.5,-1015 872.5,-1009 872.5,-1003 872.5,-1003 872.5,-963 872.5,-963 872.5,-957 878.5,-951 884.5,-951"/>
<text text-anchor="start" x="873.5" y="-1012.4" font-family="Arial" font-size="2.00"> </text>
<text text-anchor="start" x="873.5" y="-1006.4" font-family="Arial" font-size="7.00"> &#160;1</text>
<text text-anchor="start" x="887.5" y="-989.8" font-family="Arial" font-weight="bold" font-size="14.00">Mean: 7.989</text>
<text text-anchor="start" x="903" y="-972.8" font-family="Arial" font-weight="bold" font-size="14.00">n = 168</text>
<text text-anchor="start" x="925" y="-954.8" font-family="Arial" font-size="9.00"> </text>
<path fill="none" stroke="#333333" d="M884.5,-951C884.5,-951 968.5,-951 968.5,-951 974.5,-951 980.5,-957 980.5,-963 980.5,-963 980.5,-1003 980.5,-1003 980.5,-1009 974.5,-1015 968.5,-1015 968.5,-1015 884.5,-1015 884.5,-1015 878.5,-1015 872.5,-1009 872.5,-1003 872.5,-1003 872.5,-963 872.5,-963 872.5,-957 878.5,-951 884.5,-951"/>
<text text-anchor="start" x="912" y="-936.8" font-family="Arial" font-weight="bold" font-size="14.00">time</text>
</g>
<!-- 2 -->
<g id="node2" class="node">
<title>2</title>
<text text-anchor="start" x="602" y="-869.8" font-family="Arial" font-weight="bold" font-size="14.00"> &lt; 6.5</text>
<path fill="#ebebeb" stroke="transparent" d="M577.5,-797C577.5,-797 661.5,-797 661.5,-797 667.5,-797 673.5,-803 673.5,-809 673.5,-809 673.5,-849 673.5,-849 673.5,-855 667.5,-861 661.5,-861 661.5,-861 577.5,-861 577.5,-861 571.5,-861 565.5,-855 565.5,-849 565.5,-849 565.5,-809 565.5,-809 565.5,-803 571.5,-797 577.5,-797"/>
<text text-anchor="start" x="566.5" y="-858.4" font-family="Arial" font-size="2.00"> </text>
<text text-anchor="start" x="566.5" y="-852.4" font-family="Arial" font-size="7.00"> &#160;2</text>
<text text-anchor="start" x="580.5" y="-835.8" font-family="Arial" font-weight="bold" font-size="14.00">Mean: 6.232</text>
<text text-anchor="start" x="599.5" y="-818.8" font-family="Arial" font-weight="bold" font-size="14.00">n = 49</text>
<text text-anchor="start" x="618" y="-800.8" font-family="Arial" font-size="9.00"> </text>
<path fill="none" stroke="#333333" d="M577.5,-797C577.5,-797 661.5,-797 661.5,-797 667.5,-797 673.5,-803 673.5,-809 673.5,-809 673.5,-849 673.5,-849 673.5,-855 667.5,-861 661.5,-861 661.5,-861 577.5,-861 577.5,-861 571.5,-861 565.5,-855 565.5,-849 565.5,-849 565.5,-809 565.5,-809 565.5,-803 571.5,-797 577.5,-797"/>
<text text-anchor="start" x="577" y="-782.8" font-family="Arial" font-weight="bold" font-size="14.00">day_of_week</text>
</g>
<!-- 1&#45;&gt;2 -->
<g id="edge1" class="edge">
<title>1&#45;&gt;2</title>
<path fill="none" stroke="#888888" d="M860.26,-949.21C811.64,-925.13 745.53,-892.4 694.89,-867.32"/>
<polygon fill="#888888" stroke="#888888" points="696.13,-864.04 685.62,-862.74 693.03,-870.31 696.13,-864.04"/>
</g>
<!-- 15 -->
<g id="node3" class="node">
<title>15</title>
<text text-anchor="start" x="1287.5" y="-869.8" font-family="Arial" font-weight="bold" font-size="14.00"> ≥ 6.5</text>
<path fill="#ebebeb" stroke="transparent" d="M1262.5,-797C1262.5,-797 1346.5,-797 1346.5,-797 1352.5,-797 1358.5,-803 1358.5,-809 1358.5,-809 1358.5,-849 1358.5,-849 1358.5,-855 1352.5,-861 1346.5,-861 1346.5,-861 1262.5,-861 1262.5,-861 1256.5,-861 1250.5,-855 1250.5,-849 1250.5,-849 1250.5,-809 1250.5,-809 1250.5,-803 1256.5,-797 1262.5,-797"/>
<text text-anchor="start" x="1251.5" y="-858.4" font-family="Arial" font-size="2.00"> </text>
<text text-anchor="start" x="1251.5" y="-852.4" font-family="Arial" font-size="7.00"> &#160;15</text>
<text text-anchor="start" x="1265.5" y="-835.8" font-family="Arial" font-weight="bold" font-size="14.00">Mean: 8.712</text>
<text text-anchor="start" x="1281.5" y="-818.8" font-family="Arial" font-weight="bold" font-size="14.00">n = 119</text>
<text text-anchor="start" x="1303" y="-800.8" font-family="Arial" font-size="9.00"> </text>
<path fill="none" stroke="#333333" d="M1262.5,-797C1262.5,-797 1346.5,-797 1346.5,-797 1352.5,-797 1358.5,-803 1358.5,-809 1358.5,-809 1358.5,-849 1358.5,-849 1358.5,-855 1352.5,-861 1346.5,-861 1346.5,-861 1262.5,-861 1262.5,-861 1256.5,-861 1250.5,-855 1250.5,-849 1250.5,-849 1250.5,-809 1250.5,-809 1250.5,-803 1256.5,-797 1262.5,-797"/>
<text text-anchor="start" x="1290" y="-782.8" font-family="Arial" font-weight="bold" font-size="14.00">time</text>
</g>
<!-- 1&#45;&gt;15 -->
<g id="edge2" class="edge">
<title>1&#45;&gt;15</title>
<path fill="none" stroke="#888888" d="M992.78,-955.35C1058.7,-928.84 1159.72,-888.22 1228.78,-860.45"/>
<polygon fill="#888888" stroke="#888888" points="1230.33,-863.6 1238.3,-856.62 1227.72,-857.1 1230.33,-863.6"/>
</g>
<!-- 3 -->
<g id="node4" class="node">
<title>3</title>
<text text-anchor="start" x="356.5" y="-715.8" font-family="Arial" font-weight="bold" font-size="14.00"> &lt; 1.5</text>
<path fill="#ebebeb" stroke="transparent" d="M332.5,-643C332.5,-643 415.5,-643 415.5,-643 421.5,-643 427.5,-649 427.5,-655 427.5,-655 427.5,-695 427.5,-695 427.5,-701 421.5,-707 415.5,-707 415.5,-707 332.5,-707 332.5,-707 326.5,-707 320.5,-701 320.5,-695 320.5,-695 320.5,-655 320.5,-655 320.5,-649 326.5,-643 332.5,-643"/>
<text text-anchor="start" x="321.5" y="-704.4" font-family="Arial" font-size="2.00"> </text>
<text text-anchor="start" x="321.5" y="-698.4" font-family="Arial" font-size="7.00"> &#160;3</text>
<text text-anchor="start" x="335.5" y="-681.8" font-family="Arial" font-weight="bold" font-size="14.00">Mean: 11.04</text>
<text text-anchor="start" x="358" y="-664.8" font-family="Arial" font-weight="bold" font-size="14.00">n = 7</text>
<text text-anchor="start" x="372.5" y="-646.8" font-family="Arial" font-size="9.00"> </text>
<path fill="none" stroke="#333333" d="M332.5,-643C332.5,-643 415.5,-643 415.5,-643 421.5,-643 427.5,-649 427.5,-655 427.5,-655 427.5,-695 427.5,-695 427.5,-701 421.5,-707 415.5,-707 415.5,-707 332.5,-707 332.5,-707 326.5,-707 320.5,-701 320.5,-695 320.5,-695 320.5,-655 320.5,-655 320.5,-649 326.5,-643 332.5,-643"/>
<text text-anchor="start" x="338.5" y="-628.8" font-family="Arial" font-weight="bold" font-size="14.00">windspeed</text>
</g>
<!-- 2&#45;&gt;3 -->
<g id="edge3" class="edge">
<title>2&#45;&gt;3</title>
<path fill="none" stroke="#888888" d="M553.25,-787.07C520.73,-766.97 481.41,-742.68 447.86,-721.95"/>
<polygon fill="#888888" stroke="#888888" points="449.36,-718.76 439.01,-716.48 445.68,-724.71 449.36,-718.76"/>
</g>
<!-- 8 -->
<g id="node5" class="node">
<title>8</title>
<text text-anchor="start" x="602.5" y="-715.8" font-family="Arial" font-weight="bold" font-size="14.00"> ≥ 1.5</text>
<path fill="#ebebeb" stroke="transparent" d="M577.5,-643C577.5,-643 661.5,-643 661.5,-643 667.5,-643 673.5,-649 673.5,-655 673.5,-655 673.5,-695 673.5,-695 673.5,-701 667.5,-707 661.5,-707 661.5,-707 577.5,-707 577.5,-707 571.5,-707 565.5,-701 565.5,-695 565.5,-695 565.5,-655 565.5,-655 565.5,-649 571.5,-643 577.5,-643"/>
<text text-anchor="start" x="566.5" y="-704.4" font-family="Arial" font-size="2.00"> </text>
<text text-anchor="start" x="566.5" y="-698.4" font-family="Arial" font-size="7.00"> &#160;8</text>
<text text-anchor="start" x="580.5" y="-681.8" font-family="Arial" font-weight="bold" font-size="14.00">Mean: 5.431</text>
<text text-anchor="start" x="599.5" y="-664.8" font-family="Arial" font-weight="bold" font-size="14.00">n = 42</text>
<text text-anchor="start" x="618" y="-646.8" font-family="Arial" font-size="9.00"> </text>
<path fill="none" stroke="#333333" d="M577.5,-643C577.5,-643 661.5,-643 661.5,-643 667.5,-643 673.5,-649 673.5,-655 673.5,-655 673.5,-695 673.5,-695 673.5,-701 667.5,-707 661.5,-707 661.5,-707 577.5,-707 577.5,-707 571.5,-707 565.5,-701 565.5,-695 565.5,-695 565.5,-655 565.5,-655 565.5,-649 571.5,-643 577.5,-643"/>
<text text-anchor="start" x="605" y="-628.8" font-family="Arial" font-weight="bold" font-size="14.00">time</text>
</g>
<!-- 2&#45;&gt;8 -->
<g id="edge4" class="edge">
<title>2&#45;&gt;8</title>
<path fill="none" stroke="#888888" d="M619.5,-769.67C619.5,-761.39 619.5,-752.83 619.5,-744.38"/>
<polygon fill="#888888" stroke="#888888" points="623,-744.18 619.5,-734.18 616,-744.18 623,-744.18"/>
</g>
<!-- 16 -->
<g id="node16" class="node">
<title>16</title>
<text text-anchor="start" x="1283.5" y="-715.8" font-family="Arial" font-weight="bold" font-size="14.00"> &lt; 15.5</text>
<text text-anchor="start" x="1248.5" y="-671.3" font-family="Arial" font-size="14.00"> &#160;</text>
<path fill="#ebebeb" stroke="transparent" d="M1270.5,-643C1270.5,-643 1339.5,-643 1339.5,-643 1345.5,-643 1351.5,-649 1351.5,-655 1351.5,-655 1351.5,-695 1351.5,-695 1351.5,-701 1345.5,-707 1339.5,-707 1339.5,-707 1270.5,-707 1270.5,-707 1264.5,-707 1258.5,-701 1258.5,-695 1258.5,-695 1258.5,-655 1258.5,-655 1258.5,-649 1264.5,-643 1270.5,-643"/>
<text text-anchor="start" x="1259.5" y="-704.4" font-family="Arial" font-size="2.00"> </text>
<text text-anchor="start" x="1259.5" y="-698.4" font-family="Arial" font-size="7.00"> &#160;16</text>
<text text-anchor="start" x="1273.5" y="-681.8" font-family="Arial" font-weight="bold" font-size="14.00">Mean: 9.9</text>
<text text-anchor="start" x="1285" y="-664.8" font-family="Arial" font-weight="bold" font-size="14.00">n = 63</text>
<text text-anchor="start" x="1303.5" y="-646.8" font-family="Arial" font-size="9.00"> </text>
<path fill="none" stroke="#333333" d="M1270.5,-643C1270.5,-643 1339.5,-643 1339.5,-643 1345.5,-643 1351.5,-649 1351.5,-655 1351.5,-655 1351.5,-695 1351.5,-695 1351.5,-701 1345.5,-707 1339.5,-707 1339.5,-707 1270.5,-707 1270.5,-707 1264.5,-707 1258.5,-701 1258.5,-695 1258.5,-695 1258.5,-655 1258.5,-655 1258.5,-649 1264.5,-643 1270.5,-643"/>
<text text-anchor="start" x="1353.5" y="-671.3" font-family="Arial" font-size="14.00"> &#160;</text>
<text text-anchor="start" x="1262.5" y="-628.8" font-family="Arial" font-weight="bold" font-size="14.00">day_of_week</text>
</g>
<!-- 15&#45;&gt;16 -->
<g id="edge15" class="edge">
<title>15&#45;&gt;16</title>
<path fill="none" stroke="#888888" d="M1304.5,-769.67C1304.5,-761.39 1304.5,-752.83 1304.5,-744.38"/>
<polygon fill="#888888" stroke="#888888" points="1308,-744.18 1304.5,-734.18 1301,-744.18 1308,-744.18"/>
</g>
<!-- 33 -->
<g id="node17" class="node">
<title>33</title>
<text text-anchor="start" x="1512.5" y="-715.8" font-family="Arial" font-weight="bold" font-size="14.00"> ≥ 15.5</text>
<path fill="#ebebeb" stroke="transparent" d="M1491.5,-643C1491.5,-643 1575.5,-643 1575.5,-643 1581.5,-643 1587.5,-649 1587.5,-655 1587.5,-655 1587.5,-695 1587.5,-695 1587.5,-701 1581.5,-707 1575.5,-707 1575.5,-707 1491.5,-707 1491.5,-707 1485.5,-707 1479.5,-701 1479.5,-695 1479.5,-695 1479.5,-655 1479.5,-655 1479.5,-649 1485.5,-643 1491.5,-643"/>
<text text-anchor="start" x="1480.5" y="-704.4" font-family="Arial" font-size="2.00"> </text>
<text text-anchor="start" x="1480.5" y="-698.4" font-family="Arial" font-size="7.00"> &#160;33</text>
<text text-anchor="start" x="1494.5" y="-681.8" font-family="Arial" font-weight="bold" font-size="14.00">Mean: 7.376</text>
<text text-anchor="start" x="1513.5" y="-664.8" font-family="Arial" font-weight="bold" font-size="14.00">n = 56</text>
<text text-anchor="start" x="1532" y="-646.8" font-family="Arial" font-size="9.00"> </text>
<path fill="none" stroke="#333333" d="M1491.5,-643C1491.5,-643 1575.5,-643 1575.5,-643 1581.5,-643 1587.5,-649 1587.5,-655 1587.5,-655 1587.5,-695 1587.5,-695 1587.5,-701 1581.5,-707 1575.5,-707 1575.5,-707 1491.5,-707 1491.5,-707 1485.5,-707 1479.5,-701 1479.5,-695 1479.5,-695 1479.5,-655 1479.5,-655 1479.5,-649 1485.5,-643 1491.5,-643"/>
<text text-anchor="start" x="1504.5" y="-628.8" font-family="Arial" font-weight="bold" font-size="14.00">air_temp</text>
</g>
<!-- 15&#45;&gt;33 -->
<g id="edge16" class="edge">
<title>15&#45;&gt;33</title>
<path fill="none" stroke="#888888" d="M1370.74,-784.04C1398.27,-765.76 1430.36,-744.46 1458.74,-725.63"/>
<polygon fill="#888888" stroke="#888888" points="1461.02,-728.31 1467.41,-719.87 1457.15,-722.48 1461.02,-728.31"/>
</g>
<!-- 4 -->
<g id="node6" class="node">
<title>4</title>
<text text-anchor="start" x="203" y="-561.8" font-family="Arial" font-weight="bold" font-size="14.00"> &lt; 7.5</text>
<path fill="#ebebeb" stroke="transparent" d="M178.5,-489C178.5,-489 262.5,-489 262.5,-489 268.5,-489 274.5,-495 274.5,-501 274.5,-501 274.5,-541 274.5,-541 274.5,-547 268.5,-553 262.5,-553 262.5,-553 178.5,-553 178.5,-553 172.5,-553 166.5,-547 166.5,-541 166.5,-541 166.5,-501 166.5,-501 166.5,-495 172.5,-489 178.5,-489"/>
<text text-anchor="start" x="167.5" y="-550.4" font-family="Arial" font-size="2.00"> </text>
<text text-anchor="start" x="167.5" y="-544.4" font-family="Arial" font-size="7.00"> &#160;4</text>
<text text-anchor="start" x="181.5" y="-527.8" font-family="Arial" font-weight="bold" font-size="14.00">Mean: 9.602</text>
<text text-anchor="start" x="204.5" y="-510.8" font-family="Arial" font-weight="bold" font-size="14.00">n = 6</text>
<text text-anchor="start" x="219" y="-492.8" font-family="Arial" font-size="9.00"> </text>
<path fill="none" stroke="#333333" d="M178.5,-489C178.5,-489 262.5,-489 262.5,-489 268.5,-489 274.5,-495 274.5,-501 274.5,-501 274.5,-541 274.5,-541 274.5,-547 268.5,-553 262.5,-553 262.5,-553 178.5,-553 178.5,-553 172.5,-553 166.5,-547 166.5,-541 166.5,-541 166.5,-501 166.5,-501 166.5,-495 172.5,-489 178.5,-489"/>
<text text-anchor="start" x="191.5" y="-474.8" font-family="Arial" font-weight="bold" font-size="14.00">air_temp</text>
</g>
<!-- 3&#45;&gt;4 -->
<g id="edge5" class="edge">
<title>3&#45;&gt;4</title>
<path fill="none" stroke="#888888" d="M314.78,-615.67C305.45,-606.39 295.74,-596.75 286.26,-587.33"/>
<polygon fill="#888888" stroke="#888888" points="288.62,-584.74 279.06,-580.18 283.69,-589.71 288.62,-584.74"/>
</g>
<!-- 7 -->
<g id="node7" class="node">
<title>7</title>
<text text-anchor="start" x="356.5" y="-561.8" font-family="Arial" font-weight="bold" font-size="14.00"> ≥ 7.5</text>
<path fill="#f8766d" fill-opacity="0.376471" stroke="transparent" d="M328.5,-489C328.5,-489 418.5,-489 418.5,-489 424.5,-489 430.5,-495 430.5,-501 430.5,-501 430.5,-541 430.5,-541 430.5,-547 424.5,-553 418.5,-553 418.5,-553 328.5,-553 328.5,-553 322.5,-553 316.5,-547 316.5,-541 316.5,-541 316.5,-501 316.5,-501 316.5,-495 322.5,-489 328.5,-489"/>
<text text-anchor="start" x="317.5" y="-550.4" font-family="Arial" font-size="2.00"> </text>
<text text-anchor="start" x="317.5" y="-544.4" font-family="Arial" font-size="7.00"> &#160;7</text>
<text text-anchor="start" x="331.5" y="-527.8" font-family="Arial" font-weight="bold" font-size="14.00">Predict 19.69</text>
<text text-anchor="start" x="357.5" y="-510.8" font-family="Arial" font-weight="bold" font-size="14.00">n = 1</text>
<text text-anchor="start" x="372" y="-492.8" font-family="Arial" font-size="9.00"> </text>
<path fill="none" stroke="#333333" d="M328.5,-489C328.5,-489 418.5,-489 418.5,-489 424.5,-489 430.5,-495 430.5,-501 430.5,-501 430.5,-541 430.5,-541 430.5,-547 424.5,-553 418.5,-553 418.5,-553 328.5,-553 328.5,-553 322.5,-553 316.5,-547 316.5,-541 316.5,-541 316.5,-501 316.5,-501 316.5,-495 322.5,-489 328.5,-489"/>
<text text-anchor="start" x="371.5" y="-474.8" font-family="Arial" font-weight="bold" font-size="14.00"> </text>
</g>
<!-- 3&#45;&gt;7 -->
<g id="edge6" class="edge">
<title>3&#45;&gt;7</title>
<path fill="none" stroke="#888888" d="M373.5,-615.67C373.5,-607.39 373.5,-598.83 373.5,-590.38"/>
<polygon fill="#888888" stroke="#888888" points="377,-590.18 373.5,-580.18 370,-590.18 377,-590.18"/>
</g>
<!-- 9 -->
<g id="node10" class="node">
<title>9</title>
<text text-anchor="start" x="521" y="-561.8" font-family="Arial" font-weight="bold" font-size="14.00"> &lt; 5.5</text>
<text text-anchor="start" x="470.5" y="-517.3" font-family="Arial" font-size="14.00"> &#160;&#160;&#160;</text>
<path fill="#ebebeb" stroke="transparent" d="M500.5,-489C500.5,-489 576.5,-489 576.5,-489 582.5,-489 588.5,-495 588.5,-501 588.5,-501 588.5,-541 588.5,-541 588.5,-547 582.5,-553 576.5,-553 576.5,-553 500.5,-553 500.5,-553 494.5,-553 488.5,-547 488.5,-541 488.5,-541 488.5,-501 488.5,-501 488.5,-495 494.5,-489 500.5,-489"/>
<text text-anchor="start" x="489.5" y="-550.4" font-family="Arial" font-size="2.00"> </text>
<text text-anchor="start" x="489.5" y="-544.4" font-family="Arial" font-size="7.00"> &#160;9</text>
<text text-anchor="start" x="503.5" y="-527.8" font-family="Arial" font-weight="bold" font-size="14.00">Mean: 5.24</text>
<text text-anchor="start" x="518.5" y="-510.8" font-family="Arial" font-weight="bold" font-size="14.00">n = 36</text>
<text text-anchor="start" x="537" y="-492.8" font-family="Arial" font-size="9.00"> </text>
<path fill="none" stroke="#333333" d="M500.5,-489C500.5,-489 576.5,-489 576.5,-489 582.5,-489 588.5,-495 588.5,-501 588.5,-501 588.5,-541 588.5,-541 588.5,-547 582.5,-553 576.5,-553 576.5,-553 500.5,-553 500.5,-553 494.5,-553 488.5,-547 488.5,-541 488.5,-541 488.5,-501 488.5,-501 488.5,-495 494.5,-489 500.5,-489"/>
<text text-anchor="start" x="590.5" y="-517.3" font-family="Arial" font-size="14.00"> &#160;&#160;&#160;</text>
<text text-anchor="start" x="481" y="-474.8" font-family="Arial" font-weight="bold" font-size="14.00">prev_168h_inflow</text>
</g>
<!-- 8&#45;&gt;9 -->
<g id="edge9" class="edge">
<title>8&#45;&gt;9</title>
<path fill="none" stroke="#888888" d="M588.41,-615.67C583.81,-607.03 579.04,-598.07 574.35,-589.27"/>
<polygon fill="#888888" stroke="#888888" points="577.29,-587.36 569.5,-580.18 571.12,-590.65 577.29,-587.36"/>
</g>
<!-- 12 -->
<g id="node11" class="node">
<title>12</title>
<text text-anchor="start" x="683.5" y="-561.8" font-family="Arial" font-weight="bold" font-size="14.00"> ≥ 5.5</text>
<path fill="#ebebeb" stroke="transparent" d="M658.5,-489C658.5,-489 742.5,-489 742.5,-489 748.5,-489 754.5,-495 754.5,-501 754.5,-501 754.5,-541 754.5,-541 754.5,-547 748.5,-553 742.5,-553 742.5,-553 658.5,-553 658.5,-553 652.5,-553 646.5,-547 646.5,-541 646.5,-541 646.5,-501 646.5,-501 646.5,-495 652.5,-489 658.5,-489"/>
<text text-anchor="start" x="647.5" y="-550.4" font-family="Arial" font-size="2.00"> </text>
<text text-anchor="start" x="647.5" y="-544.4" font-family="Arial" font-size="7.00"> &#160;12</text>
<text text-anchor="start" x="661.5" y="-527.8" font-family="Arial" font-weight="bold" font-size="14.00">Mean: 6.573</text>
<text text-anchor="start" x="684.5" y="-510.8" font-family="Arial" font-weight="bold" font-size="14.00">n = 6</text>
<text text-anchor="start" x="699" y="-492.8" font-family="Arial" font-size="9.00"> </text>
<path fill="none" stroke="#333333" d="M658.5,-489C658.5,-489 742.5,-489 742.5,-489 748.5,-489 754.5,-495 754.5,-501 754.5,-501 754.5,-541 754.5,-541 754.5,-547 748.5,-553 742.5,-553 742.5,-553 658.5,-553 658.5,-553 652.5,-553 646.5,-547 646.5,-541 646.5,-541 646.5,-501 646.5,-501 646.5,-495 652.5,-489 658.5,-489"/>
<text text-anchor="start" x="667.5" y="-474.8" font-family="Arial" font-weight="bold" font-size="14.00">air_humid</text>
</g>
<!-- 8&#45;&gt;12 -->
<g id="edge10" class="edge">
<title>8&#45;&gt;12</title>
<path fill="none" stroke="#888888" d="M650.59,-615.67C655.19,-607.03 659.96,-598.07 664.65,-589.27"/>
<polygon fill="#888888" stroke="#888888" points="667.88,-590.65 669.5,-580.18 661.71,-587.36 667.88,-590.65"/>
</g>
<!-- 5 -->
<g id="node8" class="node">
<title>5</title>
<text text-anchor="start" x="44" y="-407.8" font-family="Arial" font-weight="bold" font-size="14.00"> &lt; 19.55</text>
<path fill="#f8766d" fill-opacity="0.764706" stroke="transparent" d="M24.5,-335C24.5,-335 113.5,-335 113.5,-335 119.5,-335 125.5,-341 125.5,-347 125.5,-347 125.5,-387 125.5,-387 125.5,-393 119.5,-399 113.5,-399 113.5,-399 24.5,-399 24.5,-399 18.5,-399 12.5,-393 12.5,-387 12.5,-387 12.5,-347 12.5,-347 12.5,-341 18.5,-335 24.5,-335"/>
<text text-anchor="start" x="13.5" y="-396.4" font-family="Arial" font-size="2.00"> </text>
<text text-anchor="start" x="13.5" y="-390.4" font-family="Arial" font-size="7.00"> &#160;5</text>
<text text-anchor="start" x="27.5" y="-373.8" font-family="Arial" font-weight="bold" font-size="14.00">Predict 8.113</text>
<text text-anchor="start" x="53" y="-356.8" font-family="Arial" font-weight="bold" font-size="14.00">n = 3</text>
<text text-anchor="start" x="67.5" y="-338.8" font-family="Arial" font-size="9.00"> </text>
<path fill="none" stroke="#333333" d="M24.5,-335C24.5,-335 113.5,-335 113.5,-335 119.5,-335 125.5,-341 125.5,-347 125.5,-347 125.5,-387 125.5,-387 125.5,-393 119.5,-399 113.5,-399 113.5,-399 24.5,-399 24.5,-399 18.5,-399 12.5,-393 12.5,-387 12.5,-387 12.5,-347 12.5,-347 12.5,-341 18.5,-335 24.5,-335"/>
<text text-anchor="start" x="67" y="-320.8" font-family="Arial" font-weight="bold" font-size="14.00"> </text>
</g>
<!-- 4&#45;&gt;5 -->
<g id="edge7" class="edge">
<title>4&#45;&gt;5</title>
<path fill="none" stroke="#888888" d="M162.17,-461.67C152.89,-452.39 143.25,-442.75 133.83,-433.33"/>
<polygon fill="#888888" stroke="#888888" points="136.22,-430.77 126.68,-426.18 131.27,-435.72 136.22,-430.77"/>
</g>
<!-- 6 -->
<g id="node9" class="node">
<title>6</title>
<text text-anchor="start" x="199.5" y="-407.8" font-family="Arial" font-weight="bold" font-size="14.00"> ≥ 19.55</text>
<path fill="#f8766d" fill-opacity="0.666667" stroke="transparent" d="M179.5,-335C179.5,-335 268.5,-335 268.5,-335 274.5,-335 280.5,-341 280.5,-347 280.5,-347 280.5,-387 280.5,-387 280.5,-393 274.5,-399 268.5,-399 268.5,-399 179.5,-399 179.5,-399 173.5,-399 167.5,-393 167.5,-387 167.5,-387 167.5,-347 167.5,-347 167.5,-341 173.5,-335 179.5,-335"/>
<text text-anchor="start" x="168.5" y="-396.4" font-family="Arial" font-size="2.00"> </text>
<text text-anchor="start" x="168.5" y="-390.4" font-family="Arial" font-size="7.00"> &#160;6</text>
<text text-anchor="start" x="182.5" y="-373.8" font-family="Arial" font-weight="bold" font-size="14.00">Predict 11.09</text>
<text text-anchor="start" x="208" y="-356.8" font-family="Arial" font-weight="bold" font-size="14.00">n = 3</text>
<text text-anchor="start" x="222.5" y="-338.8" font-family="Arial" font-size="9.00"> </text>
<path fill="none" stroke="#333333" d="M179.5,-335C179.5,-335 268.5,-335 268.5,-335 274.5,-335 280.5,-341 280.5,-347 280.5,-347 280.5,-387 280.5,-387 280.5,-393 274.5,-399 268.5,-399 268.5,-399 179.5,-399 179.5,-399 173.5,-399 167.5,-393 167.5,-387 167.5,-387 167.5,-347 167.5,-347 167.5,-341 173.5,-335 179.5,-335"/>
<text text-anchor="start" x="222" y="-320.8" font-family="Arial" font-weight="bold" font-size="14.00"> </text>
</g>
<!-- 4&#45;&gt;6 -->
<g id="edge8" class="edge">
<title>4&#45;&gt;6</title>
<path fill="none" stroke="#888888" d="M221.65,-461.67C221.81,-453.39 221.98,-444.83 222.15,-436.38"/>
<polygon fill="#888888" stroke="#888888" points="225.65,-436.24 222.35,-426.18 218.66,-436.11 225.65,-436.24"/>
</g>
<!-- 10 -->
<g id="node12" class="node">
<title>10</title>
<text text-anchor="start" x="357.5" y="-407.8" font-family="Arial" font-weight="bold" font-size="14.00"> &lt; 15.21</text>
<path fill="#f8766d" fill-opacity="0.874510" stroke="transparent" d="M337.5,-335C337.5,-335 427.5,-335 427.5,-335 433.5,-335 439.5,-341 439.5,-347 439.5,-347 439.5,-387 439.5,-387 439.5,-393 433.5,-399 427.5,-399 427.5,-399 337.5,-399 337.5,-399 331.5,-399 325.5,-393 325.5,-387 325.5,-387 325.5,-347 325.5,-347 325.5,-341 331.5,-335 337.5,-335"/>
<text text-anchor="start" x="326.5" y="-396.4" font-family="Arial" font-size="2.00"> </text>
<text text-anchor="start" x="326.5" y="-390.4" font-family="Arial" font-size="7.00"> &#160;10</text>
<text text-anchor="start" x="340.5" y="-373.8" font-family="Arial" font-weight="bold" font-size="14.00">Predict 4.853</text>
<text text-anchor="start" x="362.5" y="-356.8" font-family="Arial" font-weight="bold" font-size="14.00">n = 35</text>
<text text-anchor="start" x="381" y="-338.8" font-family="Arial" font-size="9.00"> </text>
<path fill="none" stroke="#333333" d="M337.5,-335C337.5,-335 427.5,-335 427.5,-335 433.5,-335 439.5,-341 439.5,-347 439.5,-347 439.5,-387 439.5,-387 439.5,-393 433.5,-399 427.5,-399 427.5,-399 337.5,-399 337.5,-399 331.5,-399 325.5,-393 325.5,-387 325.5,-387 325.5,-347 325.5,-347 325.5,-341 331.5,-335 337.5,-335"/>
<text text-anchor="start" x="380.5" y="-320.8" font-family="Arial" font-weight="bold" font-size="14.00"> </text>
</g>
<!-- 9&#45;&gt;10 -->
<g id="edge11" class="edge">
<title>9&#45;&gt;10</title>
<path fill="none" stroke="#888888" d="M478.63,-461.67C469.12,-452.39 459.22,-442.75 449.55,-433.33"/>
<polygon fill="#888888" stroke="#888888" points="451.81,-430.65 442.21,-426.18 446.93,-435.66 451.81,-430.65"/>
</g>
<!-- 11 -->
<g id="node13" class="node">
<title>11</title>
<text text-anchor="start" x="514" y="-407.8" font-family="Arial" font-weight="bold" font-size="14.00"> ≥ 15.21</text>
<path fill="#f8766d" fill-opacity="0.403922" stroke="transparent" d="M493.5,-335C493.5,-335 583.5,-335 583.5,-335 589.5,-335 595.5,-341 595.5,-347 595.5,-347 595.5,-387 595.5,-387 595.5,-393 589.5,-399 583.5,-399 583.5,-399 493.5,-399 493.5,-399 487.5,-399 481.5,-393 481.5,-387 481.5,-387 481.5,-347 481.5,-347 481.5,-341 487.5,-335 493.5,-335"/>
<text text-anchor="start" x="482.5" y="-396.4" font-family="Arial" font-size="2.00"> </text>
<text text-anchor="start" x="482.5" y="-390.4" font-family="Arial" font-size="7.00"> &#160;11</text>
<text text-anchor="start" x="496.5" y="-373.8" font-family="Arial" font-weight="bold" font-size="14.00">Predict 18.81</text>
<text text-anchor="start" x="522.5" y="-356.8" font-family="Arial" font-weight="bold" font-size="14.00">n = 1</text>
<text text-anchor="start" x="537" y="-338.8" font-family="Arial" font-size="9.00"> </text>
<path fill="none" stroke="#333333" d="M493.5,-335C493.5,-335 583.5,-335 583.5,-335 589.5,-335 595.5,-341 595.5,-347 595.5,-347 595.5,-387 595.5,-387 595.5,-393 589.5,-399 583.5,-399 583.5,-399 493.5,-399 493.5,-399 487.5,-399 481.5,-393 481.5,-387 481.5,-387 481.5,-347 481.5,-347 481.5,-341 487.5,-335 493.5,-335"/>
<text text-anchor="start" x="536.5" y="-320.8" font-family="Arial" font-weight="bold" font-size="14.00"> </text>
</g>
<!-- 9&#45;&gt;11 -->
<g id="edge12" class="edge">
<title>9&#45;&gt;11</title>
<path fill="none" stroke="#888888" d="M538.5,-461.67C538.5,-453.39 538.5,-444.83 538.5,-436.38"/>
<polygon fill="#888888" stroke="#888888" points="542,-436.18 538.5,-426.18 535,-436.18 542,-436.18"/>
</g>
<!-- 13 -->
<g id="node14" class="node">
<title>13</title>
<text text-anchor="start" x="679" y="-407.8" font-family="Arial" font-weight="bold" font-size="14.00"> &lt; 84</text>
<path fill="#f8766d" fill-opacity="0.854902" stroke="transparent" d="M649.5,-335C649.5,-335 739.5,-335 739.5,-335 745.5,-335 751.5,-341 751.5,-347 751.5,-347 751.5,-387 751.5,-387 751.5,-393 745.5,-399 739.5,-399 739.5,-399 649.5,-399 649.5,-399 643.5,-399 637.5,-393 637.5,-387 637.5,-387 637.5,-347 637.5,-347 637.5,-341 643.5,-335 649.5,-335"/>
<text text-anchor="start" x="638.5" y="-396.4" font-family="Arial" font-size="2.00"> </text>
<text text-anchor="start" x="638.5" y="-390.4" font-family="Arial" font-size="7.00"> &#160;13</text>
<text text-anchor="start" x="652.5" y="-373.8" font-family="Arial" font-weight="bold" font-size="14.00">Predict 5.463</text>
<text text-anchor="start" x="678.5" y="-356.8" font-family="Arial" font-weight="bold" font-size="14.00">n = 3</text>
<text text-anchor="start" x="693" y="-338.8" font-family="Arial" font-size="9.00"> </text>
<path fill="none" stroke="#333333" d="M649.5,-335C649.5,-335 739.5,-335 739.5,-335 745.5,-335 751.5,-341 751.5,-347 751.5,-347 751.5,-387 751.5,-387 751.5,-393 745.5,-399 739.5,-399 739.5,-399 649.5,-399 649.5,-399 643.5,-399 637.5,-393 637.5,-387 637.5,-387 637.5,-347 637.5,-347 637.5,-341 643.5,-335 649.5,-335"/>
<text text-anchor="start" x="692.5" y="-320.8" font-family="Arial" font-weight="bold" font-size="14.00"> </text>
</g>
<!-- 12&#45;&gt;13 -->
<g id="edge13" class="edge">
<title>12&#45;&gt;13</title>
<path fill="none" stroke="#888888" d="M698.2,-461.67C697.87,-453.39 697.53,-444.83 697.2,-436.38"/>
<polygon fill="#888888" stroke="#888888" points="700.69,-436.03 696.8,-426.18 693.69,-436.31 700.69,-436.03"/>
</g>
<!-- 14 -->
<g id="node15" class="node">
<title>14</title>
<text text-anchor="start" x="835" y="-407.8" font-family="Arial" font-weight="bold" font-size="14.00"> ≥ 84</text>
<path fill="#f8766d" fill-opacity="0.780392" stroke="transparent" d="M805.5,-335C805.5,-335 895.5,-335 895.5,-335 901.5,-335 907.5,-341 907.5,-347 907.5,-347 907.5,-387 907.5,-387 907.5,-393 901.5,-399 895.5,-399 895.5,-399 805.5,-399 805.5,-399 799.5,-399 793.5,-393 793.5,-387 793.5,-387 793.5,-347 793.5,-347 793.5,-341 799.5,-335 805.5,-335"/>
<text text-anchor="start" x="794.5" y="-396.4" font-family="Arial" font-size="2.00"> </text>
<text text-anchor="start" x="794.5" y="-390.4" font-family="Arial" font-size="7.00"> &#160;14</text>
<text text-anchor="start" x="808.5" y="-373.8" font-family="Arial" font-weight="bold" font-size="14.00">Predict 7.683</text>
<text text-anchor="start" x="834.5" y="-356.8" font-family="Arial" font-weight="bold" font-size="14.00">n = 3</text>
<text text-anchor="start" x="849" y="-338.8" font-family="Arial" font-size="9.00"> </text>
<path fill="none" stroke="#333333" d="M805.5,-335C805.5,-335 895.5,-335 895.5,-335 901.5,-335 907.5,-341 907.5,-347 907.5,-347 907.5,-387 907.5,-387 907.5,-393 901.5,-399 895.5,-399 895.5,-399 805.5,-399 805.5,-399 799.5,-399 793.5,-393 793.5,-387 793.5,-387 793.5,-347 793.5,-347 793.5,-341 799.5,-335 805.5,-335"/>
<text text-anchor="start" x="848.5" y="-320.8" font-family="Arial" font-weight="bold" font-size="14.00"> </text>
</g>
<!-- 12&#45;&gt;14 -->
<g id="edge14" class="edge">
<title>12&#45;&gt;14</title>
<path fill="none" stroke="#888888" d="M758.06,-461.67C767.22,-452.39 776.73,-442.75 786.03,-433.33"/>
<polygon fill="#888888" stroke="#888888" points="788.56,-435.75 793.09,-426.18 783.57,-430.84 788.56,-435.75"/>
</g>
<!-- 17 -->
<g id="node18" class="node">
<title>17</title>
<text text-anchor="start" x="1212.5" y="-561.8" font-family="Arial" font-weight="bold" font-size="14.00"> &lt; 4.5</text>
<path fill="#ebebeb" stroke="transparent" d="M1188.5,-489C1188.5,-489 1271.5,-489 1271.5,-489 1277.5,-489 1283.5,-495 1283.5,-501 1283.5,-501 1283.5,-541 1283.5,-541 1283.5,-547 1277.5,-553 1271.5,-553 1271.5,-553 1188.5,-553 1188.5,-553 1182.5,-553 1176.5,-547 1176.5,-541 1176.5,-541 1176.5,-501 1176.5,-501 1176.5,-495 1182.5,-489 1188.5,-489"/>
<text text-anchor="start" x="1177.5" y="-550.4" font-family="Arial" font-size="2.00"> </text>
<text text-anchor="start" x="1177.5" y="-544.4" font-family="Arial" font-size="7.00"> &#160;17</text>
<text text-anchor="start" x="1191.5" y="-527.8" font-family="Arial" font-weight="bold" font-size="14.00">Mean: 11.03</text>
<text text-anchor="start" x="1210" y="-510.8" font-family="Arial" font-weight="bold" font-size="14.00">n = 36</text>
<text text-anchor="start" x="1228.5" y="-492.8" font-family="Arial" font-size="9.00"> </text>
<path fill="none" stroke="#333333" d="M1188.5,-489C1188.5,-489 1271.5,-489 1271.5,-489 1277.5,-489 1283.5,-495 1283.5,-501 1283.5,-501 1283.5,-541 1283.5,-541 1283.5,-547 1277.5,-553 1271.5,-553 1271.5,-553 1188.5,-553 1188.5,-553 1182.5,-553 1176.5,-547 1176.5,-541 1176.5,-541 1176.5,-501 1176.5,-501 1176.5,-495 1182.5,-489 1188.5,-489"/>
<text text-anchor="start" x="1215.5" y="-474.8" font-family="Arial" font-weight="bold" font-size="14.00">time</text>
</g>
<!-- 16&#45;&gt;17 -->
<g id="edge17" class="edge">
<title>16&#45;&gt;17</title>
<path fill="none" stroke="#888888" d="M1275.72,-615.67C1271.46,-607.03 1267.04,-598.07 1262.69,-589.27"/>
<polygon fill="#888888" stroke="#888888" points="1265.77,-587.6 1258.21,-580.18 1259.49,-590.69 1265.77,-587.6"/>
</g>
<!-- 28 -->
<g id="node19" class="node">
<title>28</title>
<text text-anchor="start" x="1363.5" y="-561.8" font-family="Arial" font-weight="bold" font-size="14.00"> ≥ 4.5</text>
<path fill="#ebebeb" stroke="transparent" d="M1338.5,-489C1338.5,-489 1422.5,-489 1422.5,-489 1428.5,-489 1434.5,-495 1434.5,-501 1434.5,-501 1434.5,-541 1434.5,-541 1434.5,-547 1428.5,-553 1422.5,-553 1422.5,-553 1338.5,-553 1338.5,-553 1332.5,-553 1326.5,-547 1326.5,-541 1326.5,-541 1326.5,-501 1326.5,-501 1326.5,-495 1332.5,-489 1338.5,-489"/>
<text text-anchor="start" x="1327.5" y="-550.4" font-family="Arial" font-size="2.00"> </text>
<text text-anchor="start" x="1327.5" y="-544.4" font-family="Arial" font-size="7.00"> &#160;28</text>
<text text-anchor="start" x="1341.5" y="-527.8" font-family="Arial" font-weight="bold" font-size="14.00">Mean: 8.387</text>
<text text-anchor="start" x="1360.5" y="-510.8" font-family="Arial" font-weight="bold" font-size="14.00">n = 27</text>
<text text-anchor="start" x="1379" y="-492.8" font-family="Arial" font-size="9.00"> </text>
<path fill="none" stroke="#333333" d="M1338.5,-489C1338.5,-489 1422.5,-489 1422.5,-489 1428.5,-489 1434.5,-495 1434.5,-501 1434.5,-501 1434.5,-541 1434.5,-541 1434.5,-547 1428.5,-553 1422.5,-553 1422.5,-553 1338.5,-553 1338.5,-553 1332.5,-553 1326.5,-547 1326.5,-541 1326.5,-541 1326.5,-501 1326.5,-501 1326.5,-495 1332.5,-489 1338.5,-489"/>
<text text-anchor="start" x="1338" y="-474.8" font-family="Arial" font-weight="bold" font-size="14.00">day_of_week</text>
</g>
<!-- 16&#45;&gt;28 -->
<g id="edge18" class="edge">
<title>16&#45;&gt;28</title>
<path fill="none" stroke="#888888" d="M1333.67,-615.67C1337.98,-607.03 1342.46,-598.07 1346.86,-589.27"/>
<polygon fill="#888888" stroke="#888888" points="1350.07,-590.69 1351.41,-580.18 1343.81,-587.56 1350.07,-590.69"/>
</g>
<!-- 34 -->
<g id="node34" class="node">
<title>34</title>
<text text-anchor="start" x="1508.5" y="-561.8" font-family="Arial" font-weight="bold" font-size="14.00"> &lt; 16.85</text>
<path fill="#f8766d" fill-opacity="0.521569" stroke="transparent" d="M1488.5,-489C1488.5,-489 1578.5,-489 1578.5,-489 1584.5,-489 1590.5,-495 1590.5,-501 1590.5,-501 1590.5,-541 1590.5,-541 1590.5,-547 1584.5,-553 1578.5,-553 1578.5,-553 1488.5,-553 1488.5,-553 1482.5,-553 1476.5,-547 1476.5,-541 1476.5,-541 1476.5,-501 1476.5,-501 1476.5,-495 1482.5,-489 1488.5,-489"/>
<text text-anchor="start" x="1477.5" y="-550.4" font-family="Arial" font-size="2.00"> </text>
<text text-anchor="start" x="1477.5" y="-544.4" font-family="Arial" font-size="7.00"> &#160;34</text>
<text text-anchor="start" x="1491.5" y="-527.8" font-family="Arial" font-weight="bold" font-size="14.00">Predict 15.31</text>
<text text-anchor="start" x="1517.5" y="-510.8" font-family="Arial" font-weight="bold" font-size="14.00">n = 1</text>
<text text-anchor="start" x="1532" y="-492.8" font-family="Arial" font-size="9.00"> </text>
<path fill="none" stroke="#333333" d="M1488.5,-489C1488.5,-489 1578.5,-489 1578.5,-489 1584.5,-489 1590.5,-495 1590.5,-501 1590.5,-501 1590.5,-541 1590.5,-541 1590.5,-547 1584.5,-553 1578.5,-553 1578.5,-553 1488.5,-553 1488.5,-553 1482.5,-553 1476.5,-547 1476.5,-541 1476.5,-541 1476.5,-501 1476.5,-501 1476.5,-495 1482.5,-489 1488.5,-489"/>
<text text-anchor="start" x="1531.5" y="-474.8" font-family="Arial" font-weight="bold" font-size="14.00"> </text>
</g>
<!-- 33&#45;&gt;34 -->
<g id="edge33" class="edge">
<title>33&#45;&gt;34</title>
<path fill="none" stroke="#888888" d="M1533.5,-615.67C1533.5,-607.39 1533.5,-598.83 1533.5,-590.38"/>
<polygon fill="#888888" stroke="#888888" points="1537,-590.18 1533.5,-580.18 1530,-590.18 1537,-590.18"/>
</g>
<!-- 35 -->
<g id="node35" class="node">
<title>35</title>
<text text-anchor="start" x="1662" y="-561.8" font-family="Arial" font-weight="bold" font-size="14.00"> ≥ 16.85</text>
<path fill="#ebebeb" stroke="transparent" d="M1644.5,-489C1644.5,-489 1728.5,-489 1728.5,-489 1734.5,-489 1740.5,-495 1740.5,-501 1740.5,-501 1740.5,-541 1740.5,-541 1740.5,-547 1734.5,-553 1728.5,-553 1728.5,-553 1644.5,-553 1644.5,-553 1638.5,-553 1632.5,-547 1632.5,-541 1632.5,-541 1632.5,-501 1632.5,-501 1632.5,-495 1638.5,-489 1644.5,-489"/>
<text text-anchor="start" x="1633.5" y="-550.4" font-family="Arial" font-size="2.00"> </text>
<text text-anchor="start" x="1633.5" y="-544.4" font-family="Arial" font-size="7.00"> &#160;35</text>
<text text-anchor="start" x="1647.5" y="-527.8" font-family="Arial" font-weight="bold" font-size="14.00">Mean: 7.232</text>
<text text-anchor="start" x="1666.5" y="-510.8" font-family="Arial" font-weight="bold" font-size="14.00">n = 55</text>
<text text-anchor="start" x="1685" y="-492.8" font-family="Arial" font-size="9.00"> </text>
<path fill="none" stroke="#333333" d="M1644.5,-489C1644.5,-489 1728.5,-489 1728.5,-489 1734.5,-489 1740.5,-495 1740.5,-501 1740.5,-501 1740.5,-541 1740.5,-541 1740.5,-547 1734.5,-553 1728.5,-553 1728.5,-553 1644.5,-553 1644.5,-553 1638.5,-553 1632.5,-547 1632.5,-541 1632.5,-541 1632.5,-501 1632.5,-501 1632.5,-495 1638.5,-489 1644.5,-489"/>
<text text-anchor="start" x="1672" y="-474.8" font-family="Arial" font-weight="bold" font-size="14.00">time</text>
</g>
<!-- 33&#45;&gt;35 -->
<g id="edge34" class="edge">
<title>33&#45;&gt;35</title>
<path fill="none" stroke="#888888" d="M1592.22,-615.67C1601.55,-606.39 1611.26,-596.75 1620.74,-587.33"/>
<polygon fill="#888888" stroke="#888888" points="1623.31,-589.71 1627.94,-580.18 1618.38,-584.74 1623.31,-589.71"/>
</g>
<!-- 18 -->
<g id="node20" class="node">
<title>18</title>
<text text-anchor="start" x="983" y="-407.8" font-family="Arial" font-weight="bold" font-size="14.00"> &lt; 11.5</text>
<path fill="#ebebeb" stroke="transparent" d="M962.5,-335C962.5,-335 1045.5,-335 1045.5,-335 1051.5,-335 1057.5,-341 1057.5,-347 1057.5,-347 1057.5,-387 1057.5,-387 1057.5,-393 1051.5,-399 1045.5,-399 1045.5,-399 962.5,-399 962.5,-399 956.5,-399 950.5,-393 950.5,-387 950.5,-387 950.5,-347 950.5,-347 950.5,-341 956.5,-335 962.5,-335"/>
<text text-anchor="start" x="951.5" y="-396.4" font-family="Arial" font-size="2.00"> </text>
<text text-anchor="start" x="951.5" y="-390.4" font-family="Arial" font-size="7.00"> &#160;18</text>
<text text-anchor="start" x="965.5" y="-373.8" font-family="Arial" font-weight="bold" font-size="14.00">Mean: 11.23</text>
<text text-anchor="start" x="984" y="-356.8" font-family="Arial" font-weight="bold" font-size="14.00">n = 20</text>
<text text-anchor="start" x="1002.5" y="-338.8" font-family="Arial" font-size="9.00"> </text>
<path fill="none" stroke="#333333" d="M962.5,-335C962.5,-335 1045.5,-335 1045.5,-335 1051.5,-335 1057.5,-341 1057.5,-347 1057.5,-347 1057.5,-387 1057.5,-387 1057.5,-393 1051.5,-399 1045.5,-399 1045.5,-399 962.5,-399 962.5,-399 956.5,-399 950.5,-393 950.5,-387 950.5,-387 950.5,-347 950.5,-347 950.5,-341 956.5,-335 962.5,-335"/>
<text text-anchor="start" x="961.5" y="-320.8" font-family="Arial" font-weight="bold" font-size="14.00">day_of_week</text>
</g>
<!-- 17&#45;&gt;18 -->
<g id="edge19" class="edge">
<title>17&#45;&gt;18</title>
<path fill="none" stroke="#888888" d="M1163.83,-475.83C1136.9,-457.72 1105.59,-436.66 1077.83,-417.99"/>
<polygon fill="#888888" stroke="#888888" points="1079.59,-414.96 1069.34,-412.28 1075.68,-420.76 1079.59,-414.96"/>
</g>
<!-- 23 -->
<g id="node21" class="node">
<title>23</title>
<text text-anchor="start" x="1209" y="-407.8" font-family="Arial" font-weight="bold" font-size="14.00"> ≥ 11.5</text>
<path fill="#ebebeb" stroke="transparent" d="M1187.5,-335C1187.5,-335 1271.5,-335 1271.5,-335 1277.5,-335 1283.5,-341 1283.5,-347 1283.5,-347 1283.5,-387 1283.5,-387 1283.5,-393 1277.5,-399 1271.5,-399 1271.5,-399 1187.5,-399 1187.5,-399 1181.5,-399 1175.5,-393 1175.5,-387 1175.5,-387 1175.5,-347 1175.5,-347 1175.5,-341 1181.5,-335 1187.5,-335"/>
<text text-anchor="start" x="1176.5" y="-396.4" font-family="Arial" font-size="2.00"> </text>
<text text-anchor="start" x="1176.5" y="-390.4" font-family="Arial" font-size="7.00"> &#160;23</text>
<text text-anchor="start" x="1190.5" y="-373.8" font-family="Arial" font-weight="bold" font-size="14.00">Mean: 10.79</text>
<text text-anchor="start" x="1209.5" y="-356.8" font-family="Arial" font-weight="bold" font-size="14.00">n = 16</text>
<text text-anchor="start" x="1228" y="-338.8" font-family="Arial" font-size="9.00"> </text>
<path fill="none" stroke="#333333" d="M1187.5,-335C1187.5,-335 1271.5,-335 1271.5,-335 1277.5,-335 1283.5,-341 1283.5,-347 1283.5,-347 1283.5,-387 1283.5,-387 1283.5,-393 1277.5,-399 1271.5,-399 1271.5,-399 1187.5,-399 1187.5,-399 1181.5,-399 1175.5,-393 1175.5,-387 1175.5,-387 1175.5,-347 1175.5,-347 1175.5,-341 1181.5,-335 1187.5,-335"/>
<text text-anchor="start" x="1196.5" y="-320.8" font-family="Arial" font-weight="bold" font-size="14.00">air_humid</text>
</g>
<!-- 17&#45;&gt;23 -->
<g id="edge20" class="edge">
<title>17&#45;&gt;23</title>
<path fill="none" stroke="#888888" d="M1229.5,-461.67C1229.5,-453.39 1229.5,-444.83 1229.5,-436.38"/>
<polygon fill="#888888" stroke="#888888" points="1233,-436.18 1229.5,-426.18 1226,-436.18 1233,-436.18"/>
</g>
<!-- 29 -->
<g id="node30" class="node">
<title>29</title>
<text text-anchor="start" x="1363" y="-407.8" font-family="Arial" font-weight="bold" font-size="14.00"> &lt; 5.5</text>
<path fill="#ebebeb" stroke="transparent" d="M1338.5,-335C1338.5,-335 1422.5,-335 1422.5,-335 1428.5,-335 1434.5,-341 1434.5,-347 1434.5,-347 1434.5,-387 1434.5,-387 1434.5,-393 1428.5,-399 1422.5,-399 1422.5,-399 1338.5,-399 1338.5,-399 1332.5,-399 1326.5,-393 1326.5,-387 1326.5,-387 1326.5,-347 1326.5,-347 1326.5,-341 1332.5,-335 1338.5,-335"/>
<text text-anchor="start" x="1327.5" y="-396.4" font-family="Arial" font-size="2.00"> </text>
<text text-anchor="start" x="1327.5" y="-390.4" font-family="Arial" font-size="7.00"> &#160;29</text>
<text text-anchor="start" x="1341.5" y="-373.8" font-family="Arial" font-weight="bold" font-size="14.00">Mean: 9.233</text>
<text text-anchor="start" x="1364.5" y="-356.8" font-family="Arial" font-weight="bold" font-size="14.00">n = 9</text>
<text text-anchor="start" x="1379" y="-338.8" font-family="Arial" font-size="9.00"> </text>
<path fill="none" stroke="#333333" d="M1338.5,-335C1338.5,-335 1422.5,-335 1422.5,-335 1428.5,-335 1434.5,-341 1434.5,-347 1434.5,-347 1434.5,-387 1434.5,-387 1434.5,-393 1428.5,-399 1422.5,-399 1422.5,-399 1338.5,-399 1338.5,-399 1332.5,-399 1326.5,-393 1326.5,-387 1326.5,-387 1326.5,-347 1326.5,-347 1326.5,-341 1332.5,-335 1338.5,-335"/>
<text text-anchor="start" x="1366" y="-320.8" font-family="Arial" font-weight="bold" font-size="14.00">time</text>
</g>
<!-- 28&#45;&gt;29 -->
<g id="edge29" class="edge">
<title>28&#45;&gt;29</title>
<path fill="none" stroke="#888888" d="M1380.5,-461.67C1380.5,-453.39 1380.5,-444.83 1380.5,-436.38"/>
<polygon fill="#888888" stroke="#888888" points="1384,-436.18 1380.5,-426.18 1377,-436.18 1384,-436.18"/>
</g>
<!-- 32 -->
<g id="node31" class="node">
<title>32</title>
<text text-anchor="start" x="1516.5" y="-407.8" font-family="Arial" font-weight="bold" font-size="14.00"> ≥ 5.5</text>
<path fill="#f8766d" fill-opacity="0.768627" stroke="transparent" d="M1488.5,-335C1488.5,-335 1578.5,-335 1578.5,-335 1584.5,-335 1590.5,-341 1590.5,-347 1590.5,-347 1590.5,-387 1590.5,-387 1590.5,-393 1584.5,-399 1578.5,-399 1578.5,-399 1488.5,-399 1488.5,-399 1482.5,-399 1476.5,-393 1476.5,-387 1476.5,-387 1476.5,-347 1476.5,-347 1476.5,-341 1482.5,-335 1488.5,-335"/>
<text text-anchor="start" x="1477.5" y="-396.4" font-family="Arial" font-size="2.00"> </text>
<text text-anchor="start" x="1477.5" y="-390.4" font-family="Arial" font-size="7.00"> &#160;32</text>
<text text-anchor="start" x="1491.5" y="-373.8" font-family="Arial" font-weight="bold" font-size="14.00">Predict 7.964</text>
<text text-anchor="start" x="1513.5" y="-356.8" font-family="Arial" font-weight="bold" font-size="14.00">n = 18</text>
<text text-anchor="start" x="1532" y="-338.8" font-family="Arial" font-size="9.00"> </text>
<path fill="none" stroke="#333333" d="M1488.5,-335C1488.5,-335 1578.5,-335 1578.5,-335 1584.5,-335 1590.5,-341 1590.5,-347 1590.5,-347 1590.5,-387 1590.5,-387 1590.5,-393 1584.5,-399 1578.5,-399 1578.5,-399 1488.5,-399 1488.5,-399 1482.5,-399 1476.5,-393 1476.5,-387 1476.5,-387 1476.5,-347 1476.5,-347 1476.5,-341 1482.5,-335 1488.5,-335"/>
<text text-anchor="start" x="1531.5" y="-320.8" font-family="Arial" font-weight="bold" font-size="14.00"> </text>
</g>
<!-- 28&#45;&gt;32 -->
<g id="edge30" class="edge">
<title>28&#45;&gt;32</title>
<path fill="none" stroke="#888888" d="M1439.22,-461.67C1448.55,-452.39 1458.26,-442.75 1467.74,-433.33"/>
<polygon fill="#888888" stroke="#888888" points="1470.31,-435.71 1474.94,-426.18 1465.38,-430.74 1470.31,-435.71"/>
</g>
<!-- 19 -->
<g id="node22" class="node">
<title>19</title>
<text text-anchor="start" x="758" y="-253.8" font-family="Arial" font-weight="bold" font-size="14.00"> &lt; 1.5</text>
<path fill="#f8766d" fill-opacity="0.541176" stroke="transparent" d="M730.5,-181C730.5,-181 820.5,-181 820.5,-181 826.5,-181 832.5,-187 832.5,-193 832.5,-193 832.5,-233 832.5,-233 832.5,-239 826.5,-245 820.5,-245 820.5,-245 730.5,-245 730.5,-245 724.5,-245 718.5,-239 718.5,-233 718.5,-233 718.5,-193 718.5,-193 718.5,-187 724.5,-181 730.5,-181"/>
<text text-anchor="start" x="719.5" y="-242.4" font-family="Arial" font-size="2.00"> </text>
<text text-anchor="start" x="719.5" y="-236.4" font-family="Arial" font-size="7.00"> &#160;19</text>
<text text-anchor="start" x="733.5" y="-219.8" font-family="Arial" font-weight="bold" font-size="14.00">Predict 14.79</text>
<text text-anchor="start" x="759.5" y="-202.8" font-family="Arial" font-weight="bold" font-size="14.00">n = 5</text>
<text text-anchor="start" x="774" y="-184.8" font-family="Arial" font-size="9.00"> </text>
<path fill="none" stroke="#333333" d="M730.5,-181C730.5,-181 820.5,-181 820.5,-181 826.5,-181 832.5,-187 832.5,-193 832.5,-193 832.5,-233 832.5,-233 832.5,-239 826.5,-245 820.5,-245 820.5,-245 730.5,-245 730.5,-245 724.5,-245 718.5,-239 718.5,-233 718.5,-233 718.5,-193 718.5,-193 718.5,-187 724.5,-181 730.5,-181"/>
<text text-anchor="start" x="773.5" y="-166.8" font-family="Arial" font-weight="bold" font-size="14.00"> </text>
</g>
<!-- 18&#45;&gt;19 -->
<g id="edge21" class="edge">
<title>18&#45;&gt;19</title>
<path fill="none" stroke="#888888" d="M937.86,-322.24C911.39,-304.59 880.66,-284.1 853.09,-265.73"/>
<polygon fill="#888888" stroke="#888888" points="854.91,-262.73 844.65,-260.1 851.03,-268.56 854.91,-262.73"/>
</g>
<!-- 20 -->
<g id="node23" class="node">
<title>20</title>
<text text-anchor="start" x="911.5" y="-253.8" font-family="Arial" font-weight="bold" font-size="14.00"> ≥ 1.5</text>
<path fill="#ebebeb" stroke="transparent" d="M886.5,-181C886.5,-181 970.5,-181 970.5,-181 976.5,-181 982.5,-187 982.5,-193 982.5,-193 982.5,-233 982.5,-233 982.5,-239 976.5,-245 970.5,-245 970.5,-245 886.5,-245 886.5,-245 880.5,-245 874.5,-239 874.5,-233 874.5,-233 874.5,-193 874.5,-193 874.5,-187 880.5,-181 886.5,-181"/>
<text text-anchor="start" x="875.5" y="-242.4" font-family="Arial" font-size="2.00"> </text>
<text text-anchor="start" x="875.5" y="-236.4" font-family="Arial" font-size="7.00"> &#160;20</text>
<text text-anchor="start" x="889.5" y="-219.8" font-family="Arial" font-weight="bold" font-size="14.00">Mean: 10.04</text>
<text text-anchor="start" x="908.5" y="-202.8" font-family="Arial" font-weight="bold" font-size="14.00">n = 15</text>
<text text-anchor="start" x="927" y="-184.8" font-family="Arial" font-size="9.00"> </text>
<path fill="none" stroke="#333333" d="M886.5,-181C886.5,-181 970.5,-181 970.5,-181 976.5,-181 982.5,-187 982.5,-193 982.5,-193 982.5,-233 982.5,-233 982.5,-239 976.5,-245 970.5,-245 970.5,-245 886.5,-245 886.5,-245 880.5,-245 874.5,-239 874.5,-233 874.5,-233 874.5,-193 874.5,-193 874.5,-187 880.5,-181 886.5,-181"/>
<text text-anchor="start" x="893" y="-166.8" font-family="Arial" font-weight="bold" font-size="14.00">windspeed</text>
</g>
<!-- 18&#45;&gt;20 -->
<g id="edge22" class="edge">
<title>18&#45;&gt;20</title>
<path fill="none" stroke="#888888" d="M974.72,-307.67C970.46,-299.03 966.04,-290.07 961.69,-281.27"/>
<polygon fill="#888888" stroke="#888888" points="964.77,-279.6 957.21,-272.18 958.49,-282.69 964.77,-279.6"/>
</g>
<!-- 24 -->
<g id="node26" class="node">
<title>24</title>
<text text-anchor="start" x="1066" y="-253.8" font-family="Arial" font-weight="bold" font-size="14.00"> &lt; 74</text>
<path fill="#ebebeb" stroke="transparent" d="M1039.5,-181C1039.5,-181 1123.5,-181 1123.5,-181 1129.5,-181 1135.5,-187 1135.5,-193 1135.5,-193 1135.5,-233 1135.5,-233 1135.5,-239 1129.5,-245 1123.5,-245 1123.5,-245 1039.5,-245 1039.5,-245 1033.5,-245 1027.5,-239 1027.5,-233 1027.5,-233 1027.5,-193 1027.5,-193 1027.5,-187 1033.5,-181 1039.5,-181"/>
<text text-anchor="start" x="1028.5" y="-242.4" font-family="Arial" font-size="2.00"> </text>
<text text-anchor="start" x="1028.5" y="-236.4" font-family="Arial" font-size="7.00"> &#160;24</text>
<text text-anchor="start" x="1042.5" y="-219.8" font-family="Arial" font-weight="bold" font-size="14.00">Mean: 12.29</text>
<text text-anchor="start" x="1065.5" y="-202.8" font-family="Arial" font-weight="bold" font-size="14.00">n = 7</text>
<text text-anchor="start" x="1080" y="-184.8" font-family="Arial" font-size="9.00"> </text>
<path fill="none" stroke="#333333" d="M1039.5,-181C1039.5,-181 1123.5,-181 1123.5,-181 1129.5,-181 1135.5,-187 1135.5,-193 1135.5,-193 1135.5,-233 1135.5,-233 1135.5,-239 1129.5,-245 1123.5,-245 1123.5,-245 1039.5,-245 1039.5,-245 1033.5,-245 1027.5,-239 1027.5,-233 1027.5,-233 1027.5,-193 1027.5,-193 1027.5,-187 1033.5,-181 1039.5,-181"/>
<text text-anchor="start" x="1052.5" y="-166.8" font-family="Arial" font-weight="bold" font-size="14.00">air_temp</text>
</g>
<!-- 23&#45;&gt;24 -->
<g id="edge25" class="edge">
<title>23&#45;&gt;24</title>
<path fill="none" stroke="#888888" d="M1172.7,-307.67C1163.76,-298.49 1154.47,-288.94 1145.38,-279.6"/>
<polygon fill="#888888" stroke="#888888" points="1147.63,-276.9 1138.15,-272.18 1142.61,-281.78 1147.63,-276.9"/>
</g>
<!-- 27 -->
<g id="node27" class="node">
<title>27</title>
<text text-anchor="start" x="1215" y="-253.8" font-family="Arial" font-weight="bold" font-size="14.00"> ≥ 74</text>
<path fill="#f8766d" fill-opacity="0.713725" stroke="transparent" d="M1189.5,-181C1189.5,-181 1271.5,-181 1271.5,-181 1277.5,-181 1283.5,-187 1283.5,-193 1283.5,-193 1283.5,-233 1283.5,-233 1283.5,-239 1277.5,-245 1271.5,-245 1271.5,-245 1189.5,-245 1189.5,-245 1183.5,-245 1177.5,-239 1177.5,-233 1177.5,-233 1177.5,-193 1177.5,-193 1177.5,-187 1183.5,-181 1189.5,-181"/>
<text text-anchor="start" x="1178.5" y="-242.4" font-family="Arial" font-size="2.00"> </text>
<text text-anchor="start" x="1178.5" y="-236.4" font-family="Arial" font-size="7.00"> &#160;27</text>
<text text-anchor="start" x="1192.5" y="-219.8" font-family="Arial" font-weight="bold" font-size="14.00">Predict 9.63</text>
<text text-anchor="start" x="1214.5" y="-202.8" font-family="Arial" font-weight="bold" font-size="14.00">n = 9</text>
<text text-anchor="start" x="1229" y="-184.8" font-family="Arial" font-size="9.00"> </text>
<path fill="none" stroke="#333333" d="M1189.5,-181C1189.5,-181 1271.5,-181 1271.5,-181 1277.5,-181 1283.5,-187 1283.5,-193 1283.5,-193 1283.5,-233 1283.5,-233 1283.5,-239 1277.5,-245 1271.5,-245 1271.5,-245 1189.5,-245 1189.5,-245 1183.5,-245 1177.5,-239 1177.5,-233 1177.5,-233 1177.5,-193 1177.5,-193 1177.5,-187 1183.5,-181 1189.5,-181"/>
<text text-anchor="start" x="1228.5" y="-166.8" font-family="Arial" font-weight="bold" font-size="14.00"> </text>
</g>
<!-- 23&#45;&gt;27 -->
<g id="edge26" class="edge">
<title>23&#45;&gt;27</title>
<path fill="none" stroke="#888888" d="M1229.88,-307.67C1229.94,-299.39 1229.99,-290.83 1230.05,-282.38"/>
<polygon fill="#888888" stroke="#888888" points="1233.55,-282.2 1230.12,-272.18 1226.55,-282.15 1233.55,-282.2"/>
</g>
<!-- 21 -->
<g id="node24" class="node">
<title>21</title>
<text text-anchor="start" x="756" y="-99.8" font-family="Arial" font-weight="bold" font-size="14.00"> &lt; 17</text>
<path fill="#f8766d" fill-opacity="0.686275" stroke="transparent" d="M726.5,-27C726.5,-27 816.5,-27 816.5,-27 822.5,-27 828.5,-33 828.5,-39 828.5,-39 828.5,-79 828.5,-79 828.5,-85 822.5,-91 816.5,-91 816.5,-91 726.5,-91 726.5,-91 720.5,-91 714.5,-85 714.5,-79 714.5,-79 714.5,-39 714.5,-39 714.5,-33 720.5,-27 726.5,-27"/>
<text text-anchor="start" x="715.5" y="-88.4" font-family="Arial" font-size="2.00"> </text>
<text text-anchor="start" x="715.5" y="-82.4" font-family="Arial" font-size="7.00"> &#160;21</text>
<text text-anchor="start" x="729.5" y="-65.8" font-family="Arial" font-weight="bold" font-size="14.00">Predict 10.46</text>
<text text-anchor="start" x="752" y="-48.8" font-family="Arial" font-weight="bold" font-size="14.00">n = 11</text>
<text text-anchor="start" x="770" y="-30.8" font-family="Arial" font-size="9.00"> </text>
<path fill="none" stroke="#333333" d="M726.5,-27C726.5,-27 816.5,-27 816.5,-27 822.5,-27 828.5,-33 828.5,-39 828.5,-39 828.5,-79 828.5,-79 828.5,-85 822.5,-91 816.5,-91 816.5,-91 726.5,-91 726.5,-91 720.5,-91 714.5,-85 714.5,-79 714.5,-79 714.5,-39 714.5,-39 714.5,-33 720.5,-27 726.5,-27"/>
<text text-anchor="start" x="769.5" y="-12.8" font-family="Arial" font-weight="bold" font-size="14.00"> </text>
</g>
<!-- 20&#45;&gt;21 -->
<g id="edge23" class="edge">
<title>20&#45;&gt;21</title>
<path fill="none" stroke="#888888" d="M868.25,-153.67C858.67,-144.39 848.71,-134.75 838.98,-125.33"/>
<polygon fill="#888888" stroke="#888888" points="841.21,-122.62 831.59,-118.18 836.34,-127.65 841.21,-122.62"/>
</g>
<!-- 22 -->
<g id="node25" class="node">
<title>22</title>
<text text-anchor="start" x="912" y="-99.8" font-family="Arial" font-weight="bold" font-size="14.00"> ≥ 17</text>
<path fill="#f8766d" fill-opacity="0.737255" stroke="transparent" d="M882.5,-27C882.5,-27 972.5,-27 972.5,-27 978.5,-27 984.5,-33 984.5,-39 984.5,-39 984.5,-79 984.5,-79 984.5,-85 978.5,-91 972.5,-91 972.5,-91 882.5,-91 882.5,-91 876.5,-91 870.5,-85 870.5,-79 870.5,-79 870.5,-39 870.5,-39 870.5,-33 876.5,-27 882.5,-27"/>
<text text-anchor="start" x="871.5" y="-88.4" font-family="Arial" font-size="2.00"> </text>
<text text-anchor="start" x="871.5" y="-82.4" font-family="Arial" font-size="7.00"> &#160;22</text>
<text text-anchor="start" x="885.5" y="-65.8" font-family="Arial" font-weight="bold" font-size="14.00">Predict 8.885</text>
<text text-anchor="start" x="911.5" y="-48.8" font-family="Arial" font-weight="bold" font-size="14.00">n = 4</text>
<text text-anchor="start" x="926" y="-30.8" font-family="Arial" font-size="9.00"> </text>
<path fill="none" stroke="#333333" d="M882.5,-27C882.5,-27 972.5,-27 972.5,-27 978.5,-27 984.5,-33 984.5,-39 984.5,-39 984.5,-79 984.5,-79 984.5,-85 978.5,-91 972.5,-91 972.5,-91 882.5,-91 882.5,-91 876.5,-91 870.5,-85 870.5,-79 870.5,-79 870.5,-39 870.5,-39 870.5,-33 876.5,-27 882.5,-27"/>
<text text-anchor="start" x="925.5" y="-12.8" font-family="Arial" font-weight="bold" font-size="14.00"> </text>
</g>
<!-- 20&#45;&gt;22 -->
<g id="edge24" class="edge">
<title>20&#45;&gt;22</title>
<path fill="none" stroke="#888888" d="M928.12,-153.67C928.06,-145.39 928.01,-136.83 927.95,-128.38"/>
<polygon fill="#888888" stroke="#888888" points="931.45,-128.15 927.88,-118.18 924.45,-128.2 931.45,-128.15"/>
</g>
<!-- 25 -->
<g id="node28" class="node">
<title>25</title>
<text text-anchor="start" x="1062" y="-99.8" font-family="Arial" font-weight="bold" font-size="14.00"> &lt; 21.3</text>
<path fill="#f8766d" fill-opacity="0.674510" stroke="transparent" d="M1038.5,-27C1038.5,-27 1128.5,-27 1128.5,-27 1134.5,-27 1140.5,-33 1140.5,-39 1140.5,-39 1140.5,-79 1140.5,-79 1140.5,-85 1134.5,-91 1128.5,-91 1128.5,-91 1038.5,-91 1038.5,-91 1032.5,-91 1026.5,-85 1026.5,-79 1026.5,-79 1026.5,-39 1026.5,-39 1026.5,-33 1032.5,-27 1038.5,-27"/>
<text text-anchor="start" x="1027.5" y="-88.4" font-family="Arial" font-size="2.00"> </text>
<text text-anchor="start" x="1027.5" y="-82.4" font-family="Arial" font-size="7.00"> &#160;25</text>
<text text-anchor="start" x="1041.5" y="-65.8" font-family="Arial" font-weight="bold" font-size="14.00">Predict 10.84</text>
<text text-anchor="start" x="1067.5" y="-48.8" font-family="Arial" font-weight="bold" font-size="14.00">n = 3</text>
<text text-anchor="start" x="1082" y="-30.8" font-family="Arial" font-size="9.00"> </text>
<path fill="none" stroke="#333333" d="M1038.5,-27C1038.5,-27 1128.5,-27 1128.5,-27 1134.5,-27 1140.5,-33 1140.5,-39 1140.5,-39 1140.5,-79 1140.5,-79 1140.5,-85 1134.5,-91 1128.5,-91 1128.5,-91 1038.5,-91 1038.5,-91 1032.5,-91 1026.5,-85 1026.5,-79 1026.5,-79 1026.5,-39 1026.5,-39 1026.5,-33 1032.5,-27 1038.5,-27"/>
<text text-anchor="start" x="1081.5" y="-12.8" font-family="Arial" font-weight="bold" font-size="14.00"> </text>
</g>
<!-- 24&#45;&gt;25 -->
<g id="edge27" class="edge">
<title>24&#45;&gt;25</title>
<path fill="none" stroke="#888888" d="M1082.27,-153.67C1082.38,-145.39 1082.49,-136.83 1082.6,-128.38"/>
<polygon fill="#888888" stroke="#888888" points="1086.1,-128.22 1082.73,-118.18 1079.1,-128.13 1086.1,-128.22"/>
</g>
<!-- 26 -->
<g id="node29" class="node">
<title>26</title>
<text text-anchor="start" x="1218.5" y="-99.8" font-family="Arial" font-weight="bold" font-size="14.00"> ≥ 21.3</text>
<path fill="#f8766d" fill-opacity="0.588235" stroke="transparent" d="M1194.5,-27C1194.5,-27 1284.5,-27 1284.5,-27 1290.5,-27 1296.5,-33 1296.5,-39 1296.5,-39 1296.5,-79 1296.5,-79 1296.5,-85 1290.5,-91 1284.5,-91 1284.5,-91 1194.5,-91 1194.5,-91 1188.5,-91 1182.5,-85 1182.5,-79 1182.5,-79 1182.5,-39 1182.5,-39 1182.5,-33 1188.5,-27 1194.5,-27"/>
<text text-anchor="start" x="1183.5" y="-88.4" font-family="Arial" font-size="2.00"> </text>
<text text-anchor="start" x="1183.5" y="-82.4" font-family="Arial" font-size="7.00"> &#160;26</text>
<text text-anchor="start" x="1197.5" y="-65.8" font-family="Arial" font-weight="bold" font-size="14.00">Predict 13.38</text>
<text text-anchor="start" x="1223.5" y="-48.8" font-family="Arial" font-weight="bold" font-size="14.00">n = 4</text>
<text text-anchor="start" x="1238" y="-30.8" font-family="Arial" font-size="9.00"> </text>
<path fill="none" stroke="#333333" d="M1194.5,-27C1194.5,-27 1284.5,-27 1284.5,-27 1290.5,-27 1296.5,-33 1296.5,-39 1296.5,-39 1296.5,-79 1296.5,-79 1296.5,-85 1290.5,-91 1284.5,-91 1284.5,-91 1194.5,-91 1194.5,-91 1188.5,-91 1182.5,-85 1182.5,-79 1182.5,-79 1182.5,-39 1182.5,-39 1182.5,-33 1188.5,-27 1194.5,-27"/>
<text text-anchor="start" x="1237.5" y="-12.8" font-family="Arial" font-weight="bold" font-size="14.00"> </text>
</g>
<!-- 24&#45;&gt;26 -->
<g id="edge28" class="edge">
<title>24&#45;&gt;26</title>
<path fill="none" stroke="#888888" d="M1142.14,-153.67C1151.77,-144.39 1161.8,-134.75 1171.59,-125.33"/>
<polygon fill="#888888" stroke="#888888" points="1174.25,-127.63 1179.03,-118.18 1169.39,-122.59 1174.25,-127.63"/>
</g>
<!-- 30 -->
<g id="node32" class="node">
<title>30</title>
<text text-anchor="start" x="1361" y="-253.8" font-family="Arial" font-weight="bold" font-size="14.00"> &lt; 10.5</text>
<path fill="#f8766d" fill-opacity="0.694118" stroke="transparent" d="M1337.5,-181C1337.5,-181 1427.5,-181 1427.5,-181 1433.5,-181 1439.5,-187 1439.5,-193 1439.5,-193 1439.5,-233 1439.5,-233 1439.5,-239 1433.5,-245 1427.5,-245 1427.5,-245 1337.5,-245 1337.5,-245 1331.5,-245 1325.5,-239 1325.5,-233 1325.5,-233 1325.5,-193 1325.5,-193 1325.5,-187 1331.5,-181 1337.5,-181"/>
<text text-anchor="start" x="1326.5" y="-242.4" font-family="Arial" font-size="2.00"> </text>
<text text-anchor="start" x="1326.5" y="-236.4" font-family="Arial" font-size="7.00"> &#160;30</text>
<text text-anchor="start" x="1340.5" y="-219.8" font-family="Arial" font-weight="bold" font-size="14.00">Predict 10.25</text>
<text text-anchor="start" x="1366.5" y="-202.8" font-family="Arial" font-weight="bold" font-size="14.00">n = 4</text>
<text text-anchor="start" x="1381" y="-184.8" font-family="Arial" font-size="9.00"> </text>
<path fill="none" stroke="#333333" d="M1337.5,-181C1337.5,-181 1427.5,-181 1427.5,-181 1433.5,-181 1439.5,-187 1439.5,-193 1439.5,-193 1439.5,-233 1439.5,-233 1439.5,-239 1433.5,-245 1427.5,-245 1427.5,-245 1337.5,-245 1337.5,-245 1331.5,-245 1325.5,-239 1325.5,-233 1325.5,-233 1325.5,-193 1325.5,-193 1325.5,-187 1331.5,-181 1337.5,-181"/>
<text text-anchor="start" x="1380.5" y="-166.8" font-family="Arial" font-weight="bold" font-size="14.00"> </text>
</g>
<!-- 29&#45;&gt;30 -->
<g id="edge31" class="edge">
<title>29&#45;&gt;30</title>
<path fill="none" stroke="#888888" d="M1381.27,-307.67C1381.38,-299.39 1381.49,-290.83 1381.6,-282.38"/>
<polygon fill="#888888" stroke="#888888" points="1385.1,-282.22 1381.73,-272.18 1378.1,-282.13 1385.1,-282.22"/>
</g>
<!-- 31 -->
<g id="node33" class="node">
<title>31</title>
<text text-anchor="start" x="1513.5" y="-253.8" font-family="Arial" font-weight="bold" font-size="14.00"> ≥ 10.5</text>
<path fill="#f8766d" fill-opacity="0.752941" stroke="transparent" d="M1493.5,-181C1493.5,-181 1575.5,-181 1575.5,-181 1581.5,-181 1587.5,-187 1587.5,-193 1587.5,-193 1587.5,-233 1587.5,-233 1587.5,-239 1581.5,-245 1575.5,-245 1575.5,-245 1493.5,-245 1493.5,-245 1487.5,-245 1481.5,-239 1481.5,-233 1481.5,-233 1481.5,-193 1481.5,-193 1481.5,-187 1487.5,-181 1493.5,-181"/>
<text text-anchor="start" x="1482.5" y="-242.4" font-family="Arial" font-size="2.00"> </text>
<text text-anchor="start" x="1482.5" y="-236.4" font-family="Arial" font-size="7.00"> &#160;31</text>
<text text-anchor="start" x="1496.5" y="-219.8" font-family="Arial" font-weight="bold" font-size="14.00">Predict 8.42</text>
<text text-anchor="start" x="1518.5" y="-202.8" font-family="Arial" font-weight="bold" font-size="14.00">n = 5</text>
<text text-anchor="start" x="1533" y="-184.8" font-family="Arial" font-size="9.00"> </text>
<path fill="none" stroke="#333333" d="M1493.5,-181C1493.5,-181 1575.5,-181 1575.5,-181 1581.5,-181 1587.5,-187 1587.5,-193 1587.5,-193 1587.5,-233 1587.5,-233 1587.5,-239 1581.5,-245 1575.5,-245 1575.5,-245 1493.5,-245 1493.5,-245 1487.5,-245 1481.5,-239 1481.5,-233 1481.5,-233 1481.5,-193 1481.5,-193 1481.5,-187 1487.5,-181 1493.5,-181"/>
<text text-anchor="start" x="1532.5" y="-166.8" font-family="Arial" font-weight="bold" font-size="14.00"> </text>
</g>
<!-- 29&#45;&gt;31 -->
<g id="edge32" class="edge">
<title>29&#45;&gt;31</title>
<path fill="none" stroke="#888888" d="M1439.6,-307.67C1449,-298.39 1458.77,-288.75 1468.31,-279.33"/>
<polygon fill="#888888" stroke="#888888" points="1470.9,-281.69 1475.56,-272.18 1465.98,-276.71 1470.9,-281.69"/>
</g>
<!-- 36 -->
<g id="node36" class="node">
<title>36</title>
<text text-anchor="start" x="1665" y="-407.8" font-family="Arial" font-weight="bold" font-size="14.00"> &lt; 21.5</text>
<path fill="#ebebeb" stroke="transparent" d="M1644.5,-335C1644.5,-335 1728.5,-335 1728.5,-335 1734.5,-335 1740.5,-341 1740.5,-347 1740.5,-347 1740.5,-387 1740.5,-387 1740.5,-393 1734.5,-399 1728.5,-399 1728.5,-399 1644.5,-399 1644.5,-399 1638.5,-399 1632.5,-393 1632.5,-387 1632.5,-387 1632.5,-347 1632.5,-347 1632.5,-341 1638.5,-335 1644.5,-335"/>
<text text-anchor="start" x="1633.5" y="-396.4" font-family="Arial" font-size="2.00"> </text>
<text text-anchor="start" x="1633.5" y="-390.4" font-family="Arial" font-size="7.00"> &#160;36</text>
<text text-anchor="start" x="1647.5" y="-373.8" font-family="Arial" font-weight="bold" font-size="14.00">Mean: 7.803</text>
<text text-anchor="start" x="1666.5" y="-356.8" font-family="Arial" font-weight="bold" font-size="14.00">n = 42</text>
<text text-anchor="start" x="1685" y="-338.8" font-family="Arial" font-size="9.00"> </text>
<path fill="none" stroke="#333333" d="M1644.5,-335C1644.5,-335 1728.5,-335 1728.5,-335 1734.5,-335 1740.5,-341 1740.5,-347 1740.5,-347 1740.5,-387 1740.5,-387 1740.5,-393 1734.5,-399 1728.5,-399 1728.5,-399 1644.5,-399 1644.5,-399 1638.5,-399 1632.5,-393 1632.5,-387 1632.5,-387 1632.5,-347 1632.5,-347 1632.5,-341 1638.5,-335 1644.5,-335"/>
<text text-anchor="start" x="1657.5" y="-320.8" font-family="Arial" font-weight="bold" font-size="14.00">air_temp</text>
</g>
<!-- 35&#45;&gt;36 -->
<g id="edge35" class="edge">
<title>35&#45;&gt;36</title>
<path fill="none" stroke="#888888" d="M1686.5,-461.67C1686.5,-453.39 1686.5,-444.83 1686.5,-436.38"/>
<polygon fill="#888888" stroke="#888888" points="1690,-436.18 1686.5,-426.18 1683,-436.18 1690,-436.18"/>
</g>
<!-- 41 -->
<g id="node37" class="node">
<title>41</title>
<text text-anchor="start" x="1818.5" y="-407.8" font-family="Arial" font-weight="bold" font-size="14.00"> ≥ 21.5</text>
<path fill="#f8766d" fill-opacity="0.858824" stroke="transparent" d="M1794.5,-335C1794.5,-335 1884.5,-335 1884.5,-335 1890.5,-335 1896.5,-341 1896.5,-347 1896.5,-347 1896.5,-387 1896.5,-387 1896.5,-393 1890.5,-399 1884.5,-399 1884.5,-399 1794.5,-399 1794.5,-399 1788.5,-399 1782.5,-393 1782.5,-387 1782.5,-387 1782.5,-347 1782.5,-347 1782.5,-341 1788.5,-335 1794.5,-335"/>
<text text-anchor="start" x="1783.5" y="-396.4" font-family="Arial" font-size="2.00"> </text>
<text text-anchor="start" x="1783.5" y="-390.4" font-family="Arial" font-size="7.00"> &#160;41</text>
<text text-anchor="start" x="1797.5" y="-373.8" font-family="Arial" font-weight="bold" font-size="14.00">Predict 5.387</text>
<text text-anchor="start" x="1819.5" y="-356.8" font-family="Arial" font-weight="bold" font-size="14.00">n = 13</text>
<text text-anchor="start" x="1838" y="-338.8" font-family="Arial" font-size="9.00"> </text>
<path fill="none" stroke="#333333" d="M1794.5,-335C1794.5,-335 1884.5,-335 1884.5,-335 1890.5,-335 1896.5,-341 1896.5,-347 1896.5,-347 1896.5,-387 1896.5,-387 1896.5,-393 1890.5,-399 1884.5,-399 1884.5,-399 1794.5,-399 1794.5,-399 1788.5,-399 1782.5,-393 1782.5,-387 1782.5,-387 1782.5,-347 1782.5,-347 1782.5,-341 1788.5,-335 1794.5,-335"/>
<text text-anchor="start" x="1837.5" y="-320.8" font-family="Arial" font-weight="bold" font-size="14.00"> </text>
</g>
<!-- 35&#45;&gt;41 -->
<g id="edge36" class="edge">
<title>35&#45;&gt;41</title>
<path fill="none" stroke="#888888" d="M1745.22,-461.67C1754.55,-452.39 1764.26,-442.75 1773.74,-433.33"/>
<polygon fill="#888888" stroke="#888888" points="1776.31,-435.71 1780.94,-426.18 1771.38,-430.74 1776.31,-435.71"/>
</g>
<!-- 37 -->
<g id="node38" class="node">
<title>37</title>
<text text-anchor="start" x="1659.5" y="-253.8" font-family="Arial" font-weight="bold" font-size="14.00"> &lt; 20.85</text>
<path fill="#ebebeb" stroke="transparent" d="M1642.5,-181C1642.5,-181 1726.5,-181 1726.5,-181 1732.5,-181 1738.5,-187 1738.5,-193 1738.5,-193 1738.5,-233 1738.5,-233 1738.5,-239 1732.5,-245 1726.5,-245 1726.5,-245 1642.5,-245 1642.5,-245 1636.5,-245 1630.5,-239 1630.5,-233 1630.5,-233 1630.5,-193 1630.5,-193 1630.5,-187 1636.5,-181 1642.5,-181"/>
<text text-anchor="start" x="1631.5" y="-242.4" font-family="Arial" font-size="2.00"> </text>
<text text-anchor="start" x="1631.5" y="-236.4" font-family="Arial" font-size="7.00"> &#160;37</text>
<text text-anchor="start" x="1645.5" y="-219.8" font-family="Arial" font-weight="bold" font-size="14.00">Mean: 7.574</text>
<text text-anchor="start" x="1664.5" y="-202.8" font-family="Arial" font-weight="bold" font-size="14.00">n = 37</text>
<text text-anchor="start" x="1683" y="-184.8" font-family="Arial" font-size="9.00"> </text>
<path fill="none" stroke="#333333" d="M1642.5,-181C1642.5,-181 1726.5,-181 1726.5,-181 1732.5,-181 1738.5,-187 1738.5,-193 1738.5,-193 1738.5,-233 1738.5,-233 1738.5,-239 1732.5,-245 1726.5,-245 1726.5,-245 1642.5,-245 1642.5,-245 1636.5,-245 1630.5,-239 1630.5,-233 1630.5,-233 1630.5,-193 1630.5,-193 1630.5,-187 1636.5,-181 1642.5,-181"/>
<text text-anchor="start" x="1642" y="-166.8" font-family="Arial" font-weight="bold" font-size="14.00">day_of_week</text>
</g>
<!-- 36&#45;&gt;37 -->
<g id="edge37" class="edge">
<title>36&#45;&gt;37</title>
<path fill="none" stroke="#888888" d="M1685.73,-307.67C1685.62,-299.39 1685.51,-290.83 1685.4,-282.38"/>
<polygon fill="#888888" stroke="#888888" points="1688.9,-282.13 1685.27,-272.18 1681.9,-282.22 1688.9,-282.13"/>
</g>
<!-- 40 -->
<g id="node39" class="node">
<title>40</title>
<text text-anchor="start" x="1806.5" y="-253.8" font-family="Arial" font-weight="bold" font-size="14.00"> ≥ 20.85</text>
<path fill="#f8766d" fill-opacity="0.717647" stroke="transparent" d="M1793.5,-181C1793.5,-181 1868.5,-181 1868.5,-181 1874.5,-181 1880.5,-187 1880.5,-193 1880.5,-193 1880.5,-233 1880.5,-233 1880.5,-239 1874.5,-245 1868.5,-245 1868.5,-245 1793.5,-245 1793.5,-245 1787.5,-245 1781.5,-239 1781.5,-233 1781.5,-233 1781.5,-193 1781.5,-193 1781.5,-187 1787.5,-181 1793.5,-181"/>
<text text-anchor="start" x="1782.5" y="-242.4" font-family="Arial" font-size="2.00"> </text>
<text text-anchor="start" x="1782.5" y="-236.4" font-family="Arial" font-size="7.00"> &#160;40</text>
<text text-anchor="start" x="1796.5" y="-219.8" font-family="Arial" font-weight="bold" font-size="14.00">Predict 9.5</text>
<text text-anchor="start" x="1815" y="-202.8" font-family="Arial" font-weight="bold" font-size="14.00">n = 5</text>
<text text-anchor="start" x="1829.5" y="-184.8" font-family="Arial" font-size="9.00"> </text>
<path fill="none" stroke="#333333" d="M1793.5,-181C1793.5,-181 1868.5,-181 1868.5,-181 1874.5,-181 1880.5,-187 1880.5,-193 1880.5,-193 1880.5,-233 1880.5,-233 1880.5,-239 1874.5,-245 1868.5,-245 1868.5,-245 1793.5,-245 1793.5,-245 1787.5,-245 1781.5,-239 1781.5,-233 1781.5,-233 1781.5,-193 1781.5,-193 1781.5,-187 1787.5,-181 1793.5,-181"/>
<text text-anchor="start" x="1829" y="-166.8" font-family="Arial" font-weight="bold" font-size="14.00"> </text>
</g>
<!-- 36&#45;&gt;40 -->
<g id="edge38" class="edge">
<title>36&#45;&gt;40</title>
<path fill="none" stroke="#888888" d="M1741.76,-307.67C1750.46,-298.49 1759.51,-288.94 1768.35,-279.6"/>
<polygon fill="#888888" stroke="#888888" points="1771.05,-281.84 1775.39,-272.18 1765.97,-277.03 1771.05,-281.84"/>
</g>
<!-- 38 -->
<g id="node40" class="node">
<title>38</title>
<text text-anchor="start" x="1591" y="-99.8" font-family="Arial" font-weight="bold" font-size="14.00"> &lt; 5.5</text>
<path fill="#f8766d" fill-opacity="0.772549" stroke="transparent" d="M1567.5,-27C1567.5,-27 1649.5,-27 1649.5,-27 1655.5,-27 1661.5,-33 1661.5,-39 1661.5,-39 1661.5,-79 1661.5,-79 1661.5,-85 1655.5,-91 1649.5,-91 1649.5,-91 1567.5,-91 1567.5,-91 1561.5,-91 1555.5,-85 1555.5,-79 1555.5,-79 1555.5,-39 1555.5,-39 1555.5,-33 1561.5,-27 1567.5,-27"/>
<text text-anchor="start" x="1556.5" y="-88.4" font-family="Arial" font-size="2.00"> </text>
<text text-anchor="start" x="1556.5" y="-82.4" font-family="Arial" font-size="7.00"> &#160;38</text>
<text text-anchor="start" x="1570.5" y="-65.8" font-family="Arial" font-weight="bold" font-size="14.00">Predict 7.88</text>
<text text-anchor="start" x="1588.5" y="-48.8" font-family="Arial" font-weight="bold" font-size="14.00">n = 25</text>
<text text-anchor="start" x="1607" y="-30.8" font-family="Arial" font-size="9.00"> </text>
<path fill="none" stroke="#333333" d="M1567.5,-27C1567.5,-27 1649.5,-27 1649.5,-27 1655.5,-27 1661.5,-33 1661.5,-39 1661.5,-39 1661.5,-79 1661.5,-79 1661.5,-85 1655.5,-91 1649.5,-91 1649.5,-91 1567.5,-91 1567.5,-91 1561.5,-91 1555.5,-85 1555.5,-79 1555.5,-79 1555.5,-39 1555.5,-39 1555.5,-33 1561.5,-27 1567.5,-27"/>
<text text-anchor="start" x="1606.5" y="-12.8" font-family="Arial" font-weight="bold" font-size="14.00"> </text>
</g>
<!-- 37&#45;&gt;38 -->
<g id="edge39" class="edge">
<title>37&#45;&gt;38</title>
<path fill="none" stroke="#888888" d="M1655.33,-153.67C1651.02,-145.03 1646.54,-136.07 1642.14,-127.27"/>
<polygon fill="#888888" stroke="#888888" points="1645.19,-125.56 1637.59,-118.18 1638.93,-128.69 1645.19,-125.56"/>
</g>
<!-- 39 -->
<g id="node41" class="node">
<title>39</title>
<text text-anchor="start" x="1743.5" y="-99.8" font-family="Arial" font-weight="bold" font-size="14.00"> ≥ 5.5</text>
<path fill="#f8766d" fill-opacity="0.803922" stroke="transparent" d="M1715.5,-27C1715.5,-27 1805.5,-27 1805.5,-27 1811.5,-27 1817.5,-33 1817.5,-39 1817.5,-39 1817.5,-79 1817.5,-79 1817.5,-85 1811.5,-91 1805.5,-91 1805.5,-91 1715.5,-91 1715.5,-91 1709.5,-91 1703.5,-85 1703.5,-79 1703.5,-79 1703.5,-39 1703.5,-39 1703.5,-33 1709.5,-27 1715.5,-27"/>
<text text-anchor="start" x="1704.5" y="-88.4" font-family="Arial" font-size="2.00"> </text>
<text text-anchor="start" x="1704.5" y="-82.4" font-family="Arial" font-size="7.00"> &#160;39</text>
<text text-anchor="start" x="1718.5" y="-65.8" font-family="Arial" font-weight="bold" font-size="14.00">Predict 6.936</text>
<text text-anchor="start" x="1740.5" y="-48.8" font-family="Arial" font-weight="bold" font-size="14.00">n = 12</text>
<text text-anchor="start" x="1759" y="-30.8" font-family="Arial" font-size="9.00"> </text>
<path fill="none" stroke="#333333" d="M1715.5,-27C1715.5,-27 1805.5,-27 1805.5,-27 1811.5,-27 1817.5,-33 1817.5,-39 1817.5,-39 1817.5,-79 1817.5,-79 1817.5,-85 1811.5,-91 1805.5,-91 1805.5,-91 1715.5,-91 1715.5,-91 1709.5,-91 1703.5,-85 1703.5,-79 1703.5,-79 1703.5,-39 1703.5,-39 1703.5,-33 1709.5,-27 1715.5,-27"/>
<text text-anchor="start" x="1758.5" y="-12.8" font-family="Arial" font-weight="bold" font-size="14.00"> </text>
</g>
<!-- 37&#45;&gt;39 -->
<g id="edge40" class="edge">
<title>37&#45;&gt;39</title>
<path fill="none" stroke="#888888" d="M1713.67,-153.67C1717.98,-145.03 1722.46,-136.07 1726.86,-127.27"/>
<polygon fill="#888888" stroke="#888888" points="1730.07,-128.69 1731.41,-118.18 1723.81,-125.56 1730.07,-128.69"/>
</g>
</g>
</svg>
