<?xml version="1.0" encoding="utf-8"?>
<svg xmlns="http://www.w3.org/2000/svg" xmlns:xlink="http://www.w3.org/1999/xlink" width="1000" height="400" viewBox="0 0 4000 1600">
<defs>
  <clipPath id="clip080">
    <rect x="0" y="0" width="4000" height="1600"/>
  </clipPath>
</defs>
<path clip-path="url(#clip080)" d="M0 1600 L4000 1600 L4000 0 L0 0  Z" fill="#ffffff" fill-rule="evenodd" fill-opacity="1"/>
<defs>
  <clipPath id="clip081">
    <rect x="800" y="0" width="2801" height="1600"/>
  </clipPath>
</defs>
<path clip-path="url(#clip080)" d="M203.123 1497.68 L3180.15 1497.68 L3180.15 47.2441 L203.123 47.2441  Z" fill="#ffffff" fill-rule="evenodd" fill-opacity="1"/>
<defs>
  <clipPath id="clip082">
    <rect x="203" y="47" width="2978" height="1451"/>
  </clipPath>
</defs>
<polyline clip-path="url(#clip082)" style="stroke:#000000; stroke-linecap:round; stroke-linejoin:round; stroke-width:2; stroke-opacity:0.1; fill:none" points="287.379,1497.68 287.379,47.2441 "/>
<polyline clip-path="url(#clip082)" style="stroke:#000000; stroke-linecap:round; stroke-linejoin:round; stroke-width:2; stroke-opacity:0.1; fill:none" points="1094.62,1497.68 1094.62,47.2441 "/>
<polyline clip-path="url(#clip082)" style="stroke:#000000; stroke-linecap:round; stroke-linejoin:round; stroke-width:2; stroke-opacity:0.1; fill:none" points="1901.85,1497.68 1901.85,47.2441 "/>
<polyline clip-path="url(#clip082)" style="stroke:#000000; stroke-linecap:round; stroke-linejoin:round; stroke-width:2; stroke-opacity:0.1; fill:none" points="2709.09,1497.68 2709.09,47.2441 "/>
<polyline clip-path="url(#clip080)" style="stroke:#000000; stroke-linecap:round; stroke-linejoin:round; stroke-width:4; stroke-opacity:1; fill:none" points="203.123,1497.68 3180.15,1497.68 "/>
<polyline clip-path="url(#clip080)" style="stroke:#000000; stroke-linecap:round; stroke-linejoin:round; stroke-width:4; stroke-opacity:1; fill:none" points="287.379,1497.68 287.379,1478.78 "/>
<polyline clip-path="url(#clip080)" style="stroke:#000000; stroke-linecap:round; stroke-linejoin:round; stroke-width:4; stroke-opacity:1; fill:none" points="1094.62,1497.68 1094.62,1478.78 "/>
<polyline clip-path="url(#clip080)" style="stroke:#000000; stroke-linecap:round; stroke-linejoin:round; stroke-width:4; stroke-opacity:1; fill:none" points="1901.85,1497.68 1901.85,1478.78 "/>
<polyline clip-path="url(#clip080)" style="stroke:#000000; stroke-linecap:round; stroke-linejoin:round; stroke-width:4; stroke-opacity:1; fill:none" points="2709.09,1497.68 2709.09,1478.78 "/>
<path clip-path="url(#clip080)" d="M143.148 1573.85 L161.507 1573.85 L161.507 1578.28 L136.82 1578.28 L136.82 1573.85 Q139.815 1570.75 144.971 1565.55 Q150.153 1560.31 151.481 1558.8 Q154.007 1555.96 154.997 1554.01 Q156.012 1552.03 156.012 1550.13 Q156.012 1547.03 153.825 1545.08 Q151.663 1543.12 148.174 1543.12 Q145.7 1543.12 142.94 1543.98 Q140.205 1544.84 137.08 1546.59 L137.08 1541.27 Q140.257 1540 143.018 1539.35 Q145.778 1538.7 148.07 1538.7 Q154.111 1538.7 157.705 1541.72 Q161.299 1544.74 161.299 1549.79 Q161.299 1552.19 160.387 1554.35 Q159.502 1556.48 157.132 1559.4 Q156.481 1560.15 152.992 1563.77 Q149.502 1567.37 143.148 1573.85 Z" fill="#000000" fill-rule="nonzero" fill-opacity="1" /><path clip-path="url(#clip080)" d="M183.799 1542.86 Q179.736 1542.86 177.679 1546.87 Q175.648 1550.86 175.648 1558.88 Q175.648 1566.87 177.679 1570.88 Q179.736 1574.87 183.799 1574.87 Q187.887 1574.87 189.918 1570.88 Q191.976 1566.87 191.976 1558.88 Q191.976 1550.86 189.918 1546.87 Q187.887 1542.86 183.799 1542.86 M183.799 1538.7 Q190.335 1538.7 193.773 1543.88 Q197.236 1549.04 197.236 1558.88 Q197.236 1568.7 193.773 1573.88 Q190.335 1579.04 183.799 1579.04 Q177.262 1579.04 173.799 1573.88 Q170.361 1568.7 170.361 1558.88 Q170.361 1549.04 173.799 1543.88 Q177.262 1538.7 183.799 1538.7 Z" fill="#000000" fill-rule="nonzero" fill-opacity="1" /><path clip-path="url(#clip080)" d="M211.012 1573.85 L229.371 1573.85 L229.371 1578.28 L204.684 1578.28 L204.684 1573.85 Q207.679 1570.75 212.835 1565.55 Q218.017 1560.31 219.345 1558.8 Q221.871 1555.96 222.861 1554.01 Q223.877 1552.03 223.877 1550.13 Q223.877 1547.03 221.689 1545.08 Q219.528 1543.12 216.038 1543.12 Q213.564 1543.12 210.804 1543.98 Q208.069 1544.84 204.944 1546.59 L204.944 1541.27 Q208.121 1540 210.882 1539.35 Q213.642 1538.7 215.934 1538.7 Q221.976 1538.7 225.569 1541.72 Q229.163 1544.74 229.163 1549.79 Q229.163 1552.19 228.252 1554.35 Q227.366 1556.48 224.996 1559.4 Q224.345 1560.15 220.856 1563.77 Q217.366 1567.37 211.012 1573.85 Z" fill="#000000" fill-rule="nonzero" fill-opacity="1" /><path clip-path="url(#clip080)" d="M244.944 1573.85 L263.303 1573.85 L263.303 1578.28 L238.616 1578.28 L238.616 1573.85 Q241.611 1570.75 246.767 1565.55 Q251.949 1560.31 253.277 1558.8 Q255.804 1555.96 256.793 1554.01 Q257.809 1552.03 257.809 1550.13 Q257.809 1547.03 255.621 1545.08 Q253.46 1543.12 249.97 1543.12 Q247.496 1543.12 244.736 1543.98 Q242.001 1544.84 238.877 1546.59 L238.877 1541.27 Q242.054 1540 244.814 1539.35 Q247.574 1538.7 249.866 1538.7 Q255.908 1538.7 259.501 1541.72 Q263.095 1544.74 263.095 1549.79 Q263.095 1552.19 262.184 1554.35 Q261.298 1556.48 258.928 1559.4 Q258.277 1560.15 254.788 1563.77 Q251.298 1567.37 244.944 1573.85 Z" fill="#000000" fill-rule="nonzero" fill-opacity="1" /><path clip-path="url(#clip080)" d="M271.246 1561.54 L285.283 1561.54 L285.283 1565.81 L271.246 1565.81 L271.246 1561.54 Z" fill="#000000" fill-rule="nonzero" fill-opacity="1" /><path clip-path="url(#clip080)" d="M294.501 1573.85 L303.095 1573.85 L303.095 1544.19 L293.746 1546.07 L293.746 1541.27 L303.043 1539.4 L308.303 1539.4 L308.303 1573.85 L316.897 1573.85 L316.897 1578.28 L294.501 1578.28 L294.501 1573.85 Z" fill="#000000" fill-rule="nonzero" fill-opacity="1" /><path clip-path="url(#clip080)" d="M338.772 1542.86 Q334.709 1542.86 332.652 1546.87 Q330.621 1550.86 330.621 1558.88 Q330.621 1566.87 332.652 1570.88 Q334.709 1574.87 338.772 1574.87 Q342.86 1574.87 344.892 1570.88 Q346.949 1566.87 346.949 1558.88 Q346.949 1550.86 344.892 1546.87 Q342.86 1542.86 338.772 1542.86 M338.772 1538.7 Q345.308 1538.7 348.746 1543.88 Q352.209 1549.04 352.209 1558.88 Q352.209 1568.7 348.746 1573.88 Q345.308 1579.04 338.772 1579.04 Q332.235 1579.04 328.772 1573.88 Q325.334 1568.7 325.334 1558.88 Q325.334 1549.04 328.772 1543.88 Q332.235 1538.7 338.772 1538.7 Z" fill="#000000" fill-rule="nonzero" fill-opacity="1" /><path clip-path="url(#clip080)" d="M358.355 1561.54 L372.391 1561.54 L372.391 1565.81 L358.355 1565.81 L358.355 1561.54 Z" fill="#000000" fill-rule="nonzero" fill-opacity="1" /><path clip-path="url(#clip080)" d="M396.636 1557.32 Q400.412 1558.12 402.521 1560.68 Q404.657 1563.23 404.657 1566.98 Q404.657 1572.73 400.699 1575.88 Q396.74 1579.04 389.449 1579.04 Q387.001 1579.04 384.397 1578.54 Q381.818 1578.07 379.058 1577.11 L379.058 1572.03 Q381.246 1573.31 383.85 1573.96 Q386.454 1574.61 389.292 1574.61 Q394.24 1574.61 396.818 1572.65 Q399.423 1570.7 399.423 1566.98 Q399.423 1563.54 397.001 1561.61 Q394.605 1559.66 390.308 1559.66 L385.777 1559.66 L385.777 1555.34 L390.516 1555.34 Q394.397 1555.34 396.454 1553.8 Q398.511 1552.24 398.511 1549.32 Q398.511 1546.33 396.376 1544.74 Q394.266 1543.12 390.308 1543.12 Q388.147 1543.12 385.673 1543.59 Q383.199 1544.06 380.23 1545.05 L380.23 1540.36 Q383.225 1539.53 385.829 1539.11 Q388.459 1538.7 390.777 1538.7 Q396.766 1538.7 400.256 1541.43 Q403.745 1544.14 403.745 1548.77 Q403.745 1552 401.896 1554.24 Q400.048 1556.46 396.636 1557.32 Z" fill="#000000" fill-rule="nonzero" fill-opacity="1" /><path clip-path="url(#clip080)" d="M415.542 1573.85 L424.136 1573.85 L424.136 1544.19 L414.787 1546.07 L414.787 1541.27 L424.084 1539.4 L429.344 1539.4 L429.344 1573.85 L437.938 1573.85 L437.938 1578.28 L415.542 1578.28 L415.542 1573.85 Z" fill="#000000" fill-rule="nonzero" fill-opacity="1" /><path clip-path="url(#clip080)" d="M950.594 1573.85 L968.954 1573.85 L968.954 1578.28 L944.266 1578.28 L944.266 1573.85 Q947.261 1570.75 952.417 1565.55 Q957.599 1560.31 958.928 1558.8 Q961.454 1555.96 962.443 1554.01 Q963.459 1552.03 963.459 1550.13 Q963.459 1547.03 961.271 1545.08 Q959.11 1543.12 955.62 1543.12 Q953.146 1543.12 950.386 1543.98 Q947.652 1544.84 944.527 1546.59 L944.527 1541.27 Q947.704 1540 950.464 1539.35 Q953.224 1538.7 955.516 1538.7 Q961.558 1538.7 965.151 1541.72 Q968.745 1544.74 968.745 1549.79 Q968.745 1552.19 967.834 1554.35 Q966.948 1556.48 964.579 1559.4 Q963.928 1560.15 960.438 1563.77 Q956.948 1567.37 950.594 1573.85 Z" fill="#000000" fill-rule="nonzero" fill-opacity="1" /><path clip-path="url(#clip080)" d="M991.245 1542.86 Q987.183 1542.86 985.125 1546.87 Q983.094 1550.86 983.094 1558.88 Q983.094 1566.87 985.125 1570.88 Q987.183 1574.87 991.245 1574.87 Q995.334 1574.87 997.365 1570.88 Q999.422 1566.87 999.422 1558.88 Q999.422 1550.86 997.365 1546.87 Q995.334 1542.86 991.245 1542.86 M991.245 1538.7 Q997.782 1538.7 1001.22 1543.88 Q1004.68 1549.04 1004.68 1558.88 Q1004.68 1568.7 1001.22 1573.88 Q997.782 1579.04 991.245 1579.04 Q984.709 1579.04 981.245 1573.88 Q977.808 1568.7 977.808 1558.88 Q977.808 1549.04 981.245 1543.88 Q984.709 1538.7 991.245 1538.7 Z" fill="#000000" fill-rule="nonzero" fill-opacity="1" /><path clip-path="url(#clip080)" d="M1018.46 1573.85 L1036.82 1573.85 L1036.82 1578.28 L1012.13 1578.28 L1012.13 1573.85 Q1015.13 1570.75 1020.28 1565.55 Q1025.46 1560.31 1026.79 1558.8 Q1029.32 1555.96 1030.31 1554.01 Q1031.32 1552.03 1031.32 1550.13 Q1031.32 1547.03 1029.14 1545.08 Q1026.97 1543.12 1023.48 1543.12 Q1021.01 1543.12 1018.25 1543.98 Q1015.52 1544.84 1012.39 1546.59 L1012.39 1541.27 Q1015.57 1540 1018.33 1539.35 Q1021.09 1538.7 1023.38 1538.7 Q1029.42 1538.7 1033.02 1541.72 Q1036.61 1544.74 1036.61 1549.79 Q1036.61 1552.19 1035.7 1554.35 Q1034.81 1556.48 1032.44 1559.4 Q1031.79 1560.15 1028.3 1563.77 Q1024.81 1567.37 1018.46 1573.85 Z" fill="#000000" fill-rule="nonzero" fill-opacity="1" /><path clip-path="url(#clip080)" d="M1052.39 1573.85 L1070.75 1573.85 L1070.75 1578.28 L1046.06 1578.28 L1046.06 1573.85 Q1049.06 1570.75 1054.21 1565.55 Q1059.4 1560.31 1060.72 1558.8 Q1063.25 1555.96 1064.24 1554.01 Q1065.26 1552.03 1065.26 1550.13 Q1065.26 1547.03 1063.07 1545.08 Q1060.91 1543.12 1057.42 1543.12 Q1054.94 1543.12 1052.18 1543.98 Q1049.45 1544.84 1046.32 1546.59 L1046.32 1541.27 Q1049.5 1540 1052.26 1539.35 Q1055.02 1538.7 1057.31 1538.7 Q1063.35 1538.7 1066.95 1541.72 Q1070.54 1544.74 1070.54 1549.79 Q1070.54 1552.19 1069.63 1554.35 Q1068.74 1556.48 1066.37 1559.4 Q1065.72 1560.15 1062.23 1563.77 Q1058.74 1567.37 1052.39 1573.85 Z" fill="#000000" fill-rule="nonzero" fill-opacity="1" /><path clip-path="url(#clip080)" d="M1078.69 1561.54 L1092.73 1561.54 L1092.73 1565.81 L1078.69 1565.81 L1078.69 1561.54 Z" fill="#000000" fill-rule="nonzero" fill-opacity="1" /><path clip-path="url(#clip080)" d="M1101.95 1573.85 L1110.54 1573.85 L1110.54 1544.19 L1101.19 1546.07 L1101.19 1541.27 L1110.49 1539.4 L1115.75 1539.4 L1115.75 1573.85 L1124.34 1573.85 L1124.34 1578.28 L1101.95 1578.28 L1101.95 1573.85 Z" fill="#000000" fill-rule="nonzero" fill-opacity="1" /><path clip-path="url(#clip080)" d="M1135.88 1573.85 L1144.47 1573.85 L1144.47 1544.19 L1135.12 1546.07 L1135.12 1541.27 L1144.42 1539.4 L1149.68 1539.4 L1149.68 1573.85 L1158.28 1573.85 L1158.28 1578.28 L1135.88 1578.28 L1135.88 1573.85 Z" fill="#000000" fill-rule="nonzero" fill-opacity="1" /><path clip-path="url(#clip080)" d="M1165.8 1561.54 L1179.84 1561.54 L1179.84 1565.81 L1165.8 1565.81 L1165.8 1561.54 Z" fill="#000000" fill-rule="nonzero" fill-opacity="1" /><path clip-path="url(#clip080)" d="M1199.4 1542.86 Q1195.33 1542.86 1193.28 1546.87 Q1191.24 1550.86 1191.24 1558.88 Q1191.24 1566.87 1193.28 1570.88 Q1195.33 1574.87 1199.4 1574.87 Q1203.48 1574.87 1205.51 1570.88 Q1207.57 1566.87 1207.57 1558.88 Q1207.57 1550.86 1205.51 1546.87 Q1203.48 1542.86 1199.4 1542.86 M1199.4 1538.7 Q1205.93 1538.7 1209.37 1543.88 Q1212.83 1549.04 1212.83 1558.88 Q1212.83 1568.7 1209.37 1573.88 Q1205.93 1579.04 1199.4 1579.04 Q1192.86 1579.04 1189.4 1573.88 Q1185.96 1568.7 1185.96 1558.88 Q1185.96 1549.04 1189.4 1543.88 Q1192.86 1538.7 1199.4 1538.7 Z" fill="#000000" fill-rule="nonzero" fill-opacity="1" /><path clip-path="url(#clip080)" d="M1226.61 1573.85 L1244.97 1573.85 L1244.97 1578.28 L1220.28 1578.28 L1220.28 1573.85 Q1223.28 1570.75 1228.43 1565.55 Q1233.61 1560.31 1234.94 1558.8 Q1237.47 1555.96 1238.46 1554.01 Q1239.47 1552.03 1239.47 1550.13 Q1239.47 1547.03 1237.29 1545.08 Q1235.12 1543.12 1231.63 1543.12 Q1229.16 1543.12 1226.4 1543.98 Q1223.67 1544.84 1220.54 1546.59 L1220.54 1541.27 Q1223.72 1540 1226.48 1539.35 Q1229.24 1538.7 1231.53 1538.7 Q1237.57 1538.7 1241.17 1541.72 Q1244.76 1544.74 1244.76 1549.79 Q1244.76 1552.19 1243.85 1554.35 Q1242.96 1556.48 1240.59 1559.4 Q1239.94 1560.15 1236.45 1563.77 Q1232.96 1567.37 1226.61 1573.85 Z" fill="#000000" fill-rule="nonzero" fill-opacity="1" /><path clip-path="url(#clip080)" d="M1756.66 1573.85 L1775.02 1573.85 L1775.02 1578.28 L1750.33 1578.28 L1750.33 1573.85 Q1753.33 1570.75 1758.48 1565.55 Q1763.67 1560.31 1764.99 1558.8 Q1767.52 1555.96 1768.51 1554.01 Q1769.52 1552.03 1769.52 1550.13 Q1769.52 1547.03 1767.34 1545.08 Q1765.18 1543.12 1761.69 1543.12 Q1759.21 1543.12 1756.45 1543.98 Q1753.72 1544.84 1750.59 1546.59 L1750.59 1541.27 Q1753.77 1540 1756.53 1539.35 Q1759.29 1538.7 1761.58 1538.7 Q1767.62 1538.7 1771.22 1541.72 Q1774.81 1544.74 1774.81 1549.79 Q1774.81 1552.19 1773.9 1554.35 Q1773.01 1556.48 1770.64 1559.4 Q1769.99 1560.15 1766.5 1563.77 Q1763.01 1567.37 1756.66 1573.85 Z" fill="#000000" fill-rule="nonzero" fill-opacity="1" /><path clip-path="url(#clip080)" d="M1797.31 1542.86 Q1793.25 1542.86 1791.19 1546.87 Q1789.16 1550.86 1789.16 1558.88 Q1789.16 1566.87 1791.19 1570.88 Q1793.25 1574.87 1797.31 1574.87 Q1801.4 1574.87 1803.43 1570.88 Q1805.49 1566.87 1805.49 1558.88 Q1805.49 1550.86 1803.43 1546.87 Q1801.4 1542.86 1797.31 1542.86 M1797.31 1538.7 Q1803.85 1538.7 1807.29 1543.88 Q1810.75 1549.04 1810.75 1558.88 Q1810.75 1568.7 1807.29 1573.88 Q1803.85 1579.04 1797.31 1579.04 Q1790.77 1579.04 1787.31 1573.88 Q1783.87 1568.7 1783.87 1558.88 Q1783.87 1549.04 1787.31 1543.88 Q1790.77 1538.7 1797.31 1538.7 Z" fill="#000000" fill-rule="nonzero" fill-opacity="1" /><path clip-path="url(#clip080)" d="M1824.52 1573.85 L1842.88 1573.85 L1842.88 1578.28 L1818.2 1578.28 L1818.2 1573.85 Q1821.19 1570.75 1826.35 1565.55 Q1831.53 1560.31 1832.86 1558.8 Q1835.38 1555.96 1836.37 1554.01 Q1837.39 1552.03 1837.39 1550.13 Q1837.39 1547.03 1835.2 1545.08 Q1833.04 1543.12 1829.55 1543.12 Q1827.08 1543.12 1824.32 1543.98 Q1821.58 1544.84 1818.46 1546.59 L1818.46 1541.27 Q1821.63 1540 1824.39 1539.35 Q1827.15 1538.7 1829.45 1538.7 Q1835.49 1538.7 1839.08 1541.72 Q1842.68 1544.74 1842.68 1549.79 Q1842.68 1552.19 1841.76 1554.35 Q1840.88 1556.48 1838.51 1559.4 Q1837.86 1560.15 1834.37 1563.77 Q1830.88 1567.37 1824.52 1573.85 Z" fill="#000000" fill-rule="nonzero" fill-opacity="1" /><path clip-path="url(#clip080)" d="M1858.46 1573.85 L1876.82 1573.85 L1876.82 1578.28 L1852.13 1578.28 L1852.13 1573.85 Q1855.12 1570.75 1860.28 1565.55 Q1865.46 1560.31 1866.79 1558.8 Q1869.32 1555.96 1870.31 1554.01 Q1871.32 1552.03 1871.32 1550.13 Q1871.32 1547.03 1869.13 1545.08 Q1866.97 1543.12 1863.48 1543.12 Q1861.01 1543.12 1858.25 1543.98 Q1855.51 1544.84 1852.39 1546.59 L1852.39 1541.27 Q1855.57 1540 1858.33 1539.35 Q1861.09 1538.7 1863.38 1538.7 Q1869.42 1538.7 1873.01 1541.72 Q1876.61 1544.74 1876.61 1549.79 Q1876.61 1552.19 1875.7 1554.35 Q1874.81 1556.48 1872.44 1559.4 Q1871.79 1560.15 1868.3 1563.77 Q1864.81 1567.37 1858.46 1573.85 Z" fill="#000000" fill-rule="nonzero" fill-opacity="1" /><path clip-path="url(#clip080)" d="M1884.76 1561.54 L1898.8 1561.54 L1898.8 1565.81 L1884.76 1565.81 L1884.76 1561.54 Z" fill="#000000" fill-rule="nonzero" fill-opacity="1" /><path clip-path="url(#clip080)" d="M1908.01 1573.85 L1916.61 1573.85 L1916.61 1544.19 L1907.26 1546.07 L1907.26 1541.27 L1916.56 1539.4 L1921.82 1539.4 L1921.82 1573.85 L1930.41 1573.85 L1930.41 1578.28 L1908.01 1578.28 L1908.01 1573.85 Z" fill="#000000" fill-rule="nonzero" fill-opacity="1" /><path clip-path="url(#clip080)" d="M1941.95 1573.85 L1950.54 1573.85 L1950.54 1544.19 L1941.19 1546.07 L1941.19 1541.27 L1950.49 1539.4 L1955.75 1539.4 L1955.75 1573.85 L1964.34 1573.85 L1964.34 1578.28 L1941.95 1578.28 L1941.95 1573.85 Z" fill="#000000" fill-rule="nonzero" fill-opacity="1" /><path clip-path="url(#clip080)" d="M1971.87 1561.54 L1985.9 1561.54 L1985.9 1565.81 L1971.87 1565.81 L1971.87 1561.54 Z" fill="#000000" fill-rule="nonzero" fill-opacity="1" /><path clip-path="url(#clip080)" d="M2005.46 1542.86 Q2001.4 1542.86 1999.34 1546.87 Q1997.31 1550.86 1997.31 1558.88 Q1997.31 1566.87 1999.34 1570.88 Q2001.4 1574.87 2005.46 1574.87 Q2009.55 1574.87 2011.58 1570.88 Q2013.64 1566.87 2013.64 1558.88 Q2013.64 1550.86 2011.58 1546.87 Q2009.55 1542.86 2005.46 1542.86 M2005.46 1538.7 Q2012 1538.7 2015.44 1543.88 Q2018.9 1549.04 2018.9 1558.88 Q2018.9 1568.7 2015.44 1573.88 Q2012 1579.04 2005.46 1579.04 Q1998.92 1579.04 1995.46 1573.88 Q1992.02 1568.7 1992.02 1558.88 Q1992.02 1549.04 1995.46 1543.88 Q1998.92 1538.7 2005.46 1538.7 Z" fill="#000000" fill-rule="nonzero" fill-opacity="1" /><path clip-path="url(#clip080)" d="M2042.6 1543.98 L2029.32 1564.74 L2042.6 1564.74 L2042.6 1543.98 M2041.22 1539.4 L2047.83 1539.4 L2047.83 1564.74 L2053.38 1564.74 L2053.38 1569.11 L2047.83 1569.11 L2047.83 1578.28 L2042.6 1578.28 L2042.6 1569.11 L2025.04 1569.11 L2025.04 1564.04 L2041.22 1539.4 Z" fill="#000000" fill-rule="nonzero" fill-opacity="1" /><path clip-path="url(#clip080)" d="M2564.08 1573.85 L2582.44 1573.85 L2582.44 1578.28 L2557.75 1578.28 L2557.75 1573.85 Q2560.75 1570.75 2565.9 1565.55 Q2571.09 1560.31 2572.41 1558.8 Q2574.94 1555.96 2575.93 1554.01 Q2576.95 1552.03 2576.95 1550.13 Q2576.95 1547.03 2574.76 1545.08 Q2572.6 1543.12 2569.11 1543.12 Q2566.63 1543.12 2563.87 1543.98 Q2561.14 1544.84 2558.01 1546.59 L2558.01 1541.27 Q2561.19 1540 2563.95 1539.35 Q2566.71 1538.7 2569 1538.7 Q2575.04 1538.7 2578.64 1541.72 Q2582.23 1544.74 2582.23 1549.79 Q2582.23 1552.19 2581.32 1554.35 Q2580.43 1556.48 2578.07 1559.4 Q2577.41 1560.15 2573.92 1563.77 Q2570.43 1567.37 2564.08 1573.85 Z" fill="#000000" fill-rule="nonzero" fill-opacity="1" /><path clip-path="url(#clip080)" d="M2604.73 1542.86 Q2600.67 1542.86 2598.61 1546.87 Q2596.58 1550.86 2596.58 1558.88 Q2596.58 1566.87 2598.61 1570.88 Q2600.67 1574.87 2604.73 1574.87 Q2608.82 1574.87 2610.85 1570.88 Q2612.91 1566.87 2612.91 1558.88 Q2612.91 1550.86 2610.85 1546.87 Q2608.82 1542.86 2604.73 1542.86 M2604.73 1538.7 Q2611.27 1538.7 2614.71 1543.88 Q2618.17 1549.04 2618.17 1558.88 Q2618.17 1568.7 2614.71 1573.88 Q2611.27 1579.04 2604.73 1579.04 Q2598.2 1579.04 2594.73 1573.88 Q2591.29 1568.7 2591.29 1558.88 Q2591.29 1549.04 2594.73 1543.88 Q2598.2 1538.7 2604.73 1538.7 Z" fill="#000000" fill-rule="nonzero" fill-opacity="1" /><path clip-path="url(#clip080)" d="M2631.95 1573.85 L2650.3 1573.85 L2650.3 1578.28 L2625.62 1578.28 L2625.62 1573.85 Q2628.61 1570.75 2633.77 1565.55 Q2638.95 1560.31 2640.28 1558.8 Q2642.8 1555.96 2643.79 1554.01 Q2644.81 1552.03 2644.81 1550.13 Q2644.81 1547.03 2642.62 1545.08 Q2640.46 1543.12 2636.97 1543.12 Q2634.5 1543.12 2631.74 1543.98 Q2629 1544.84 2625.88 1546.59 L2625.88 1541.27 Q2629.05 1540 2631.81 1539.35 Q2634.58 1538.7 2636.87 1538.7 Q2642.91 1538.7 2646.5 1541.72 Q2650.1 1544.74 2650.1 1549.79 Q2650.1 1552.19 2649.18 1554.35 Q2648.3 1556.48 2645.93 1559.4 Q2645.28 1560.15 2641.79 1563.77 Q2638.3 1567.37 2631.95 1573.85 Z" fill="#000000" fill-rule="nonzero" fill-opacity="1" /><path clip-path="url(#clip080)" d="M2665.88 1573.85 L2684.24 1573.85 L2684.24 1578.28 L2659.55 1578.28 L2659.55 1573.85 Q2662.54 1570.75 2667.7 1565.55 Q2672.88 1560.31 2674.21 1558.8 Q2676.74 1555.96 2677.73 1554.01 Q2678.74 1552.03 2678.74 1550.13 Q2678.74 1547.03 2676.55 1545.08 Q2674.39 1543.12 2670.9 1543.12 Q2668.43 1543.12 2665.67 1543.98 Q2662.93 1544.84 2659.81 1546.59 L2659.81 1541.27 Q2662.99 1540 2665.75 1539.35 Q2668.51 1538.7 2670.8 1538.7 Q2676.84 1538.7 2680.43 1541.72 Q2684.03 1544.74 2684.03 1549.79 Q2684.03 1552.19 2683.12 1554.35 Q2682.23 1556.48 2679.86 1559.4 Q2679.21 1560.15 2675.72 1563.77 Q2672.23 1567.37 2665.88 1573.85 Z" fill="#000000" fill-rule="nonzero" fill-opacity="1" /><path clip-path="url(#clip080)" d="M2692.18 1561.54 L2706.22 1561.54 L2706.22 1565.81 L2692.18 1565.81 L2692.18 1561.54 Z" fill="#000000" fill-rule="nonzero" fill-opacity="1" /><path clip-path="url(#clip080)" d="M2715.43 1573.85 L2724.03 1573.85 L2724.03 1544.19 L2714.68 1546.07 L2714.68 1541.27 L2723.98 1539.4 L2729.24 1539.4 L2729.24 1573.85 L2737.83 1573.85 L2737.83 1578.28 L2715.43 1578.28 L2715.43 1573.85 Z" fill="#000000" fill-rule="nonzero" fill-opacity="1" /><path clip-path="url(#clip080)" d="M2749.37 1573.85 L2757.96 1573.85 L2757.96 1544.19 L2748.61 1546.07 L2748.61 1541.27 L2757.91 1539.4 L2763.17 1539.4 L2763.17 1573.85 L2771.76 1573.85 L2771.76 1578.28 L2749.37 1578.28 L2749.37 1573.85 Z" fill="#000000" fill-rule="nonzero" fill-opacity="1" /><path clip-path="url(#clip080)" d="M2779.29 1561.54 L2793.32 1561.54 L2793.32 1565.81 L2779.29 1565.81 L2779.29 1561.54 Z" fill="#000000" fill-rule="nonzero" fill-opacity="1" /><path clip-path="url(#clip080)" d="M2812.88 1542.86 Q2808.82 1542.86 2806.76 1546.87 Q2804.73 1550.86 2804.73 1558.88 Q2804.73 1566.87 2806.76 1570.88 Q2808.82 1574.87 2812.88 1574.87 Q2816.97 1574.87 2819 1570.88 Q2821.06 1566.87 2821.06 1558.88 Q2821.06 1550.86 2819 1546.87 Q2816.97 1542.86 2812.88 1542.86 M2812.88 1538.7 Q2819.42 1538.7 2822.86 1543.88 Q2826.32 1549.04 2826.32 1558.88 Q2826.32 1568.7 2822.86 1573.88 Q2819.42 1579.04 2812.88 1579.04 Q2806.35 1579.04 2802.88 1573.88 Q2799.44 1568.7 2799.44 1558.88 Q2799.44 1549.04 2802.88 1543.88 Q2806.35 1538.7 2812.88 1538.7 Z" fill="#000000" fill-rule="nonzero" fill-opacity="1" /><path clip-path="url(#clip080)" d="M2847.46 1556.74 Q2843.92 1556.74 2841.84 1559.17 Q2839.78 1561.59 2839.78 1565.81 Q2839.78 1570 2841.84 1572.45 Q2843.92 1574.87 2847.46 1574.87 Q2851.01 1574.87 2853.06 1572.45 Q2855.15 1570 2855.15 1565.81 Q2855.15 1561.59 2853.06 1559.17 Q2851.01 1556.74 2847.46 1556.74 M2857.91 1540.26 L2857.91 1545.05 Q2855.93 1544.11 2853.9 1543.62 Q2851.89 1543.12 2849.91 1543.12 Q2844.7 1543.12 2841.94 1546.64 Q2839.21 1550.16 2838.82 1557.26 Q2840.36 1555 2842.67 1553.8 Q2844.99 1552.58 2847.78 1552.58 Q2853.64 1552.58 2857.02 1556.14 Q2860.43 1559.69 2860.43 1565.81 Q2860.43 1571.8 2856.89 1575.42 Q2853.35 1579.04 2847.46 1579.04 Q2840.72 1579.04 2837.15 1573.88 Q2833.58 1568.7 2833.58 1558.88 Q2833.58 1549.66 2837.96 1544.19 Q2842.33 1538.7 2849.7 1538.7 Q2851.68 1538.7 2853.69 1539.09 Q2855.72 1539.48 2857.91 1540.26 Z" fill="#000000" fill-rule="nonzero" fill-opacity="1" /><polyline clip-path="url(#clip082)" style="stroke:#000000; stroke-linecap:round; stroke-linejoin:round; stroke-width:2; stroke-opacity:0.1; fill:none" points="203.123,1383.84 3180.15,1383.84 "/>
<polyline clip-path="url(#clip082)" style="stroke:#000000; stroke-linecap:round; stroke-linejoin:round; stroke-width:2; stroke-opacity:0.1; fill:none" points="203.123,1110.23 3180.15,1110.23 "/>
<polyline clip-path="url(#clip082)" style="stroke:#000000; stroke-linecap:round; stroke-linejoin:round; stroke-width:2; stroke-opacity:0.1; fill:none" points="203.123,836.62 3180.15,836.62 "/>
<polyline clip-path="url(#clip082)" style="stroke:#000000; stroke-linecap:round; stroke-linejoin:round; stroke-width:2; stroke-opacity:0.1; fill:none" points="203.123,563.009 3180.15,563.009 "/>
<polyline clip-path="url(#clip082)" style="stroke:#000000; stroke-linecap:round; stroke-linejoin:round; stroke-width:2; stroke-opacity:0.1; fill:none" points="203.123,289.398 3180.15,289.398 "/>
<polyline clip-path="url(#clip080)" style="stroke:#000000; stroke-linecap:round; stroke-linejoin:round; stroke-width:4; stroke-opacity:1; fill:none" points="203.123,1497.68 203.123,47.2441 "/>
<polyline clip-path="url(#clip080)" style="stroke:#000000; stroke-linecap:round; stroke-linejoin:round; stroke-width:4; stroke-opacity:1; fill:none" points="203.123,1383.84 218.127,1383.84 "/>
<polyline clip-path="url(#clip080)" style="stroke:#000000; stroke-linecap:round; stroke-linejoin:round; stroke-width:4; stroke-opacity:1; fill:none" points="203.123,1110.23 218.127,1110.23 "/>
<polyline clip-path="url(#clip080)" style="stroke:#000000; stroke-linecap:round; stroke-linejoin:round; stroke-width:4; stroke-opacity:1; fill:none" points="203.123,836.62 218.127,836.62 "/>
<polyline clip-path="url(#clip080)" style="stroke:#000000; stroke-linecap:round; stroke-linejoin:round; stroke-width:4; stroke-opacity:1; fill:none" points="203.123,563.009 218.127,563.009 "/>
<polyline clip-path="url(#clip080)" style="stroke:#000000; stroke-linecap:round; stroke-linejoin:round; stroke-width:4; stroke-opacity:1; fill:none" points="203.123,289.398 218.127,289.398 "/>
<path clip-path="url(#clip080)" d="M130.155 1381.75 Q126.613 1381.75 124.53 1384.17 Q122.472 1386.59 122.472 1390.81 Q122.472 1395 124.53 1397.45 Q126.613 1399.87 130.155 1399.87 Q133.696 1399.87 135.754 1397.45 Q137.837 1395 137.837 1390.81 Q137.837 1386.59 135.754 1384.17 Q133.696 1381.75 130.155 1381.75 M140.597 1365.26 L140.597 1370.05 Q138.618 1369.12 136.587 1368.62 Q134.582 1368.13 132.603 1368.13 Q127.394 1368.13 124.634 1371.64 Q121.9 1375.16 121.509 1382.27 Q123.045 1380 125.363 1378.8 Q127.681 1377.58 130.467 1377.58 Q136.327 1377.58 139.712 1381.15 Q143.123 1384.69 143.123 1390.81 Q143.123 1396.8 139.582 1400.42 Q136.04 1404.04 130.155 1404.04 Q123.41 1404.04 119.842 1398.88 Q116.275 1393.7 116.275 1383.88 Q116.275 1374.66 120.65 1369.19 Q125.025 1363.7 132.394 1363.7 Q134.373 1363.7 136.379 1364.09 Q138.41 1364.48 140.597 1365.26 Z" fill="#000000" fill-rule="nonzero" fill-opacity="1" /><path clip-path="url(#clip080)" d="M118.124 1090.79 L143.123 1090.79 L143.123 1093.03 L129.009 1129.67 L123.514 1129.67 L136.795 1095.22 L118.124 1095.22 L118.124 1090.79 Z" fill="#000000" fill-rule="nonzero" fill-opacity="1" /><path clip-path="url(#clip080)" d="M129.79 837.597 Q126.04 837.597 123.879 839.602 Q121.743 841.607 121.743 845.123 Q121.743 848.638 123.879 850.643 Q126.04 852.649 129.79 852.649 Q133.54 852.649 135.702 850.643 Q137.863 848.612 137.863 845.123 Q137.863 841.607 135.702 839.602 Q133.566 837.597 129.79 837.597 M124.53 835.357 Q121.144 834.524 119.243 832.206 Q117.368 829.888 117.368 826.555 Q117.368 821.894 120.676 819.185 Q124.009 816.477 129.79 816.477 Q135.597 816.477 138.905 819.185 Q142.212 821.894 142.212 826.555 Q142.212 829.888 140.311 832.206 Q138.436 834.524 135.077 835.357 Q138.879 836.242 140.988 838.821 Q143.123 841.399 143.123 845.123 Q143.123 850.774 139.66 853.794 Q136.222 856.815 129.79 856.815 Q123.358 856.815 119.894 853.794 Q116.457 850.774 116.457 845.123 Q116.457 841.399 118.592 838.821 Q120.728 836.242 124.53 835.357 M122.603 827.05 Q122.603 830.071 124.478 831.763 Q126.379 833.456 129.79 833.456 Q133.176 833.456 135.077 831.763 Q137.004 830.071 137.004 827.05 Q137.004 824.029 135.077 822.336 Q133.176 820.644 129.79 820.644 Q126.379 820.644 124.478 822.336 Q122.603 824.029 122.603 827.05 Z" fill="#000000" fill-rule="nonzero" fill-opacity="1" /><path clip-path="url(#clip080)" d="M118.801 581.642 L118.801 576.85 Q120.78 577.788 122.811 578.282 Q124.842 578.777 126.795 578.777 Q132.004 578.777 134.738 575.288 Q137.498 571.772 137.889 564.637 Q136.379 566.876 134.061 568.074 Q131.743 569.272 128.931 569.272 Q123.097 569.272 119.686 565.756 Q116.301 562.215 116.301 556.095 Q116.301 550.106 119.842 546.486 Q123.384 542.866 129.269 542.866 Q136.014 542.866 139.556 548.048 Q143.123 553.204 143.123 563.048 Q143.123 572.241 138.748 577.736 Q134.399 583.204 127.03 583.204 Q125.051 583.204 123.019 582.814 Q120.988 582.423 118.801 581.642 M129.269 565.158 Q132.811 565.158 134.868 562.736 Q136.952 560.314 136.952 556.095 Q136.952 551.902 134.868 549.481 Q132.811 547.033 129.269 547.033 Q125.728 547.033 123.644 549.481 Q121.587 551.902 121.587 556.095 Q121.587 560.314 123.644 562.736 Q125.728 565.158 129.269 565.158 Z" fill="#000000" fill-rule="nonzero" fill-opacity="1" /><path clip-path="url(#clip080)" d="M85.4154 304.411 L94.0091 304.411 L94.0091 274.75 L84.6602 276.625 L84.6602 271.833 L93.957 269.958 L99.2174 269.958 L99.2174 304.411 L107.811 304.411 L107.811 308.838 L85.4154 308.838 L85.4154 304.411 Z" fill="#000000" fill-rule="nonzero" fill-opacity="1" /><path clip-path="url(#clip080)" d="M129.686 273.422 Q125.623 273.422 123.566 277.432 Q121.535 281.416 121.535 289.437 Q121.535 297.432 123.566 301.442 Q125.623 305.427 129.686 305.427 Q133.774 305.427 135.806 301.442 Q137.863 297.432 137.863 289.437 Q137.863 281.416 135.806 277.432 Q133.774 273.422 129.686 273.422 M129.686 269.255 Q136.222 269.255 139.66 274.437 Q143.123 279.594 143.123 289.437 Q143.123 299.255 139.66 304.437 Q136.222 309.593 129.686 309.593 Q123.15 309.593 119.686 304.437 Q116.249 299.255 116.249 289.437 Q116.249 279.594 119.686 274.437 Q123.15 269.255 129.686 269.255 Z" fill="#000000" fill-rule="nonzero" fill-opacity="1" /><path clip-path="url(#clip080)" d="M-31.4998 930.013 L-31.4998 924.168 L11.7002 924.168 L11.7002 930.013 L-31.4998 930.013 Z" fill="#000000" fill-rule="nonzero" fill-opacity="1" /><path clip-path="url(#clip080)" d="M-7.85992 885.829 L11.7002 885.829 L11.7002 891.153 L-7.68631 891.153 Q-12.287 891.153 -14.5728 892.947 Q-16.8587 894.741 -16.8587 898.329 Q-16.8587 902.641 -14.1099 905.129 Q-11.3611 907.618 -6.61572 907.618 L11.7002 907.618 L11.7002 912.97 L-20.7071 912.97 L-20.7071 907.618 L-15.6724 907.618 Q-18.5948 905.708 -20.0416 903.133 Q-21.4883 900.528 -21.4883 897.143 Q-21.4883 891.559 -18.0161 888.694 Q-14.5728 885.829 -7.85992 885.829 Z" fill="#000000" fill-rule="nonzero" fill-opacity="1" /><path clip-path="url(#clip080)" d="M-33.3227 858.804 L-28.8957 858.804 L-28.8957 863.897 Q-28.8957 866.761 -27.7383 867.89 Q-26.5809 868.989 -23.5716 868.989 L-20.7071 868.989 L-20.7071 860.222 L-16.5694 860.222 L-16.5694 868.989 L11.7002 868.989 L11.7002 874.342 L-16.5694 874.342 L-16.5694 879.435 L-20.7071 879.435 L-20.7071 874.342 L-22.964 874.342 Q-28.3749 874.342 -30.8343 871.825 Q-33.3227 869.308 -33.3227 863.839 L-33.3227 858.804 Z" fill="#000000" fill-rule="nonzero" fill-opacity="1" /><path clip-path="url(#clip080)" d="M-33.3227 854.348 L-33.3227 849.024 L11.7002 849.024 L11.7002 854.348 L-33.3227 854.348 Z" fill="#000000" fill-rule="nonzero" fill-opacity="1" /><path clip-path="url(#clip080)" d="M-16.9745 825.326 Q-16.9745 829.609 -13.618 832.097 Q-10.2905 834.585 -4.47452 834.585 Q1.34142 834.585 4.69788 832.126 Q8.02541 829.638 8.02541 825.326 Q8.02541 821.073 4.66895 818.584 Q1.31248 816.096 -4.47452 816.096 Q-10.2326 816.096 -13.5891 818.584 Q-16.9745 821.073 -16.9745 825.326 M-21.4883 825.326 Q-21.4883 818.382 -16.9745 814.418 Q-12.4606 810.454 -4.47452 810.454 Q3.48261 810.454 8.02541 814.418 Q12.5393 818.382 12.5393 825.326 Q12.5393 832.3 8.02541 836.264 Q3.48261 840.199 -4.47452 840.199 Q-12.4606 840.199 -16.9745 836.264 Q-21.4883 832.3 -21.4883 825.326 Z" fill="#000000" fill-rule="nonzero" fill-opacity="1" /><path clip-path="url(#clip080)" d="M-20.7071 804.725 L-20.7071 799.4 L4.58214 792.745 L-20.7071 786.119 L-20.7071 779.84 L4.58214 773.185 L-20.7071 766.559 L-20.7071 761.235 L11.7002 769.713 L11.7002 775.992 L-14.8622 782.965 L11.7002 789.968 L11.7002 796.247 L-20.7071 804.725 Z" fill="#000000" fill-rule="nonzero" fill-opacity="1" /><path clip-path="url(#clip080)" d="M-33.3227 734.818 L-33.3227 722.549 L-29.185 722.549 L-29.185 729.493 L15.3749 729.493 L15.3749 722.549 L19.5126 722.549 L19.5126 734.818 L-33.3227 734.818 Z" fill="#000000" fill-rule="nonzero" fill-opacity="1" /><path clip-path="url(#clip080)" d="M-31.4998 710.975 L-31.4998 705.13 L6.7812 705.13 L6.7812 684.094 L11.7002 684.094 L11.7002 710.975 L-31.4998 710.975 Z" fill="#000000" fill-rule="nonzero" fill-opacity="1" /><path clip-path="url(#clip080)" d="M-31.4998 668.73 L-31.4998 663.811 L17.1978 678.857 L17.1978 683.776 L-31.4998 668.73 Z" fill="#000000" fill-rule="nonzero" fill-opacity="1" /><path clip-path="url(#clip080)" d="M-19.7522 637.567 L-14.7175 637.567 Q-15.8749 639.824 -16.4536 642.254 Q-17.0323 644.685 -17.0323 647.289 Q-17.0323 651.253 -15.8171 653.25 Q-14.6018 655.217 -12.1712 655.217 Q-10.3194 655.217 -9.2488 653.799 Q-8.20714 652.382 -7.25229 648.099 L-6.8472 646.276 Q-5.63193 640.605 -3.40393 638.232 Q-1.20487 635.831 2.75923 635.831 Q7.2731 635.831 9.90619 639.419 Q12.5393 642.978 12.5393 649.228 Q12.5393 651.832 12.0184 654.667 Q11.5265 657.474 10.5138 660.599 L5.01617 660.599 Q6.54972 657.648 7.33097 654.783 Q8.08328 651.919 8.08328 649.112 Q8.08328 645.35 6.81014 643.325 Q5.50806 641.299 3.16432 641.299 Q0.994196 641.299 -0.163205 642.775 Q-1.32061 644.222 -2.3912 649.17 L-2.82523 651.022 Q-3.86689 655.97 -6.00808 658.169 Q-8.17821 660.368 -11.9398 660.368 Q-16.5115 660.368 -18.9999 657.127 Q-21.4883 653.886 -21.4883 647.926 Q-21.4883 644.974 -21.0543 642.37 Q-20.6203 639.766 -19.7522 637.567 Z" fill="#000000" fill-rule="nonzero" fill-opacity="1" /><path clip-path="url(#clip080)" d="M-33.3227 614.911 L19.5126 614.911 L19.5126 627.179 L15.3749 627.179 L15.3749 620.264 L-29.185 620.264 L-29.185 627.179 L-33.3227 627.179 L-33.3227 614.911 Z" fill="#000000" fill-rule="nonzero" fill-opacity="1" /><polyline clip-path="url(#clip082)" style="stroke:#023eff; stroke-linecap:round; stroke-linejoin:round; stroke-width:5; stroke-opacity:1; fill:none" points="287.379,1456.63 304.196,1173.43 321.014,1321.34 337.831,1173.43 354.649,1173.43 371.466,1173.43 388.284,974.228 405.101,531.742 421.919,713.499 438.736,713.499 455.553,713.499 472.371,713.499 489.188,713.499 506.006,713.499 522.823,713.499 539.641,704.172 556.458,713.499 573.276,531.742 590.093,713.499 606.911,531.742 623.728,713.499 640.546,713.499 657.363,1045.58 674.18,1045.58 690.998,1203.33 707.815,1203.33 724.633,1203.33 741.45,1203.33 758.268,1203.33 775.085,1203.33 791.903,901.679 808.72,586.098 825.538,586.098 842.355,586.098 859.172,586.098 875.99,734.187 892.807,734.187 909.625,734.187 926.442,734.187 943.26,734.187 960.077,734.187 976.895,734.187 993.712,564.686 1010.53,564.686 1027.35,564.686 1044.16,734.187 1060.98,980.978 1077.8,1108 1094.62,1203.33 1111.43,1203.33 1128.25,1203.33 1145.07,1203.33 1161.89,1203.33 1178.7,1203.33 1195.52,901.679 1212.34,183.83 1229.16,564.686 1245.97,564.686 1262.79,586.098 1279.61,734.187 1296.43,734.187 1313.24,564.686 1330.06,734.187 1346.88,734.187 1363.7,734.187 1380.51,734.187 1397.33,564.686 1414.15,734.187 1430.97,564.686 1447.78,564.686 1464.6,980.978 1481.42,1108 1498.24,1203.33 1515.05,1203.33 1531.87,1203.33 1548.69,1203.33 1565.51,1203.33 1582.32,1203.33 1599.14,901.679 1615.96,183.83 1632.78,564.686 1649.59,564.686 1666.41,564.686 1683.23,564.686 1700.05,734.187 1716.86,564.686 1733.68,734.187 1750.5,734.187 1767.32,564.686 1784.13,564.686 1800.95,734.187 1817.77,564.686 1834.59,564.686 1851.4,564.686 1868.22,980.978 1885.04,1108 1901.85,1203.33 1918.67,1203.33 1935.49,1203.33 1952.31,1203.33 1969.12,1203.33 1985.94,1203.33 2002.76,901.679 2019.58,183.83 2036.39,564.686 2053.21,564.686 2070.03,564.686 2086.85,564.686 2103.66,734.187 2120.48,388.962 2137.3,564.686 2154.12,564.686 2170.93,564.686 2187.75,564.686 2204.57,564.686 2221.39,564.686 2238.2,564.686 2255.02,734.187 2271.84,564.686 2288.66,1108 2305.47,1203.33 2322.29,1203.33 2339.11,1203.33 2355.93,1203.33 2372.74,1203.33 2389.56,1203.33 2406.38,1130.25 2423.2,586.098 2440.01,564.686 2456.83,564.686 2473.65,586.098 2490.47,564.686 2507.28,734.187 2524.1,183.107 2540.92,734.187 2557.74,564.686 2574.55,734.187 2591.37,734.187 2608.19,564.686 2625.01,564.686 2641.82,564.686 2658.64,734.187 2675.46,980.978 2692.28,1108 2709.09,1203.33 2725.91,1203.33 2742.73,1203.33 2759.55,1203.33 2776.36,1203.33 2793.18,1203.33 2810,1130.25 2826.82,183.107 2843.63,183.107 2860.45,183.107 2877.27,564.686 2894.09,734.187 2910.9,564.686 2927.72,734.187 2944.54,734.187 2961.35,734.187 2978.17,734.187 2994.99,564.686 3011.81,564.686 3028.62,564.686 3045.44,734.187 3062.26,734.187 3079.08,980.978 3095.89,1108 "/>
<polyline clip-path="url(#clip082)" style="stroke:#ff7c00; stroke-linecap:round; stroke-linejoin:round; stroke-width:5; stroke-opacity:1; fill:none" points="287.379,1426.27 304.196,1172.8 321.014,1172.8 337.831,1172.8 354.649,1172.8 371.466,1172.8 388.284,978.875 405.101,173.547 421.919,712.926 438.736,712.926 455.553,712.926 472.371,712.926 489.188,712.926 506.006,712.926 522.823,712.926 539.641,712.926 556.458,712.926 573.276,533.894 590.093,712.926 606.911,533.894 623.728,712.926 640.546,712.926 657.363,1042.34 674.18,1042.34 690.998,1133.36 707.815,1133.36 724.633,1133.36 741.45,1133.36 758.268,1133.36 775.085,1133.36 791.903,825.752 808.72,570.662 825.538,570.662 842.355,570.662 859.172,570.662 875.99,570.662 892.807,585.578 909.625,570.662 926.442,570.662 943.26,570.662 960.077,570.662 976.895,570.662 993.712,585.578 1010.53,585.578 1027.35,387.402 1044.16,570.662 1060.98,952.27 1077.8,952.27 1094.62,1133.36 1111.43,1133.36 1128.25,1133.36 1145.07,1133.36 1161.89,1133.36 1178.7,1133.36 1195.52,825.752 1212.34,369.657 1229.16,585.578 1245.97,585.578 1262.79,570.662 1279.61,570.662 1296.43,570.662 1313.24,585.578 1330.06,570.662 1346.88,570.662 1363.7,570.662 1380.51,570.662 1397.33,585.578 1414.15,570.662 1430.97,585.578 1447.78,585.578 1464.6,952.27 1481.42,952.27 1498.24,1133.36 1515.05,1133.36 1531.87,1133.36 1548.69,1133.36 1565.51,1133.36 1582.32,1133.36 1599.14,825.752 1615.96,369.657 1632.78,585.578 1649.59,585.578 1666.41,585.578 1683.23,585.578 1700.05,570.662 1716.86,585.578 1733.68,570.662 1750.5,570.662 1767.32,585.578 1784.13,585.578 1800.95,570.662 1817.77,585.578 1834.59,387.402 1851.4,387.402 1868.22,952.27 1885.04,952.27 1901.85,1133.36 1918.67,1133.36 1935.49,1133.36 1952.31,1133.36 1969.12,1133.36 1985.94,1133.36 2002.76,825.752 2019.58,369.657 2036.39,585.578 2053.21,585.578 2070.03,585.578 2086.85,585.578 2103.66,570.662 2120.48,387.402 2137.3,585.578 2154.12,387.402 2170.93,585.578 2187.75,585.578 2204.57,585.578 2221.39,585.578 2238.2,585.578 2255.02,570.662 2271.84,585.578 2288.66,952.27 2305.47,1133.36 2322.29,1133.36 2339.11,1133.36 2355.93,1133.36 2372.74,1133.36 2389.56,1133.36 2406.38,1159.18 2423.2,570.662 2440.01,585.578 2456.83,585.578 2473.65,570.662 2490.47,387.402 2507.28,570.662 2524.1,387.402 2540.92,570.662 2557.74,585.578 2574.55,570.662 2591.37,570.662 2608.19,585.578 2625.01,585.578 2641.82,585.578 2658.64,570.662 2675.46,952.27 2692.28,952.27 2709.09,1133.36 2725.91,1133.36 2742.73,1133.36 2759.55,1133.36 2776.36,1133.36 2793.18,1133.36 2810,1159.18 2826.82,88.2942 2843.63,387.402 2860.45,387.402 2877.27,585.578 2894.09,570.662 2910.9,585.578 2927.72,570.662 2944.54,570.662 2961.35,570.662 2978.17,570.662 2994.99,585.578 3011.81,585.578 3028.62,387.402 3045.44,570.662 3062.26,570.662 3079.08,952.27 3095.89,952.27 "/>
<polyline clip-path="url(#clip082)" style="stroke:#1ac938; stroke-linecap:round; stroke-linejoin:round; stroke-width:5; stroke-opacity:1; fill:none" points="287.379,1133.29 304.196,1097.93 321.014,1097.93 337.831,1097.93 354.649,1097.93 371.466,1097.93 388.284,1097.93 405.101,573.718 421.919,573.718 438.736,573.718 455.553,573.718 472.371,573.718 489.188,573.718 506.006,573.718 522.823,573.718 539.641,573.718 556.458,573.718 573.276,573.718 590.093,573.718 606.911,573.718 623.728,573.718 640.546,573.718 657.363,573.718 674.18,573.718 690.998,1097.93 707.815,1097.93 724.633,1097.93 741.45,1097.93 758.268,1097.93 775.085,1097.93 791.903,1097.93 808.72,380.447 825.538,380.447 842.355,380.447 859.172,380.447 875.99,575.952 892.807,575.952 909.625,575.952 926.442,575.952 943.26,575.952 960.077,575.952 976.895,575.952 993.712,575.952 1010.53,575.952 1027.35,575.952 1044.16,575.952 1060.98,947.97 1077.8,947.97 1094.62,1097.93 1111.43,1097.93 1128.25,1097.93 1145.07,1097.93 1161.89,1097.93 1178.7,1097.93 1195.52,1097.93 1212.34,380.447 1229.16,380.447 1245.97,380.447 1262.79,380.447 1279.61,575.952 1296.43,575.952 1313.24,575.952 1330.06,575.952 1346.88,575.952 1363.7,575.952 1380.51,575.952 1397.33,575.952 1414.15,575.952 1430.97,575.952 1447.78,575.952 1464.6,947.97 1481.42,947.97 1498.24,1097.93 1515.05,1097.93 1531.87,1097.93 1548.69,1097.93 1565.51,1097.93 1582.32,1097.93 1599.14,1097.93 1615.96,380.447 1632.78,380.447 1649.59,380.447 1666.41,380.447 1683.23,575.952 1700.05,575.952 1716.86,575.952 1733.68,575.952 1750.5,575.952 1767.32,575.952 1784.13,575.952 1800.95,575.952 1817.77,575.952 1834.59,575.952 1851.4,575.952 1868.22,947.97 1885.04,947.97 1901.85,1097.93 1918.67,1097.93 1935.49,1097.93 1952.31,1097.93 1969.12,1097.93 1985.94,1097.93 2002.76,1097.93 2019.58,380.447 2036.39,380.447 2053.21,380.447 2070.03,380.447 2086.85,575.952 2103.66,575.952 2120.48,575.952 2137.3,575.952 2154.12,575.952 2170.93,575.952 2187.75,575.952 2204.57,575.952 2221.39,575.952 2238.2,575.952 2255.02,575.952 2271.84,947.97 2288.66,947.97 2305.47,1097.93 2322.29,1097.93 2339.11,1097.93 2355.93,1097.93 2372.74,1097.93 2389.56,1097.93 2406.38,1097.93 2423.2,380.447 2440.01,380.447 2456.83,380.447 2473.65,380.447 2490.47,575.952 2507.28,575.952 2524.1,575.952 2540.92,575.952 2557.74,575.952 2574.55,575.952 2591.37,575.952 2608.19,575.952 2625.01,575.952 2641.82,575.952 2658.64,575.952 2675.46,947.97 2692.28,947.97 2709.09,1097.93 2725.91,1097.93 2742.73,1097.93 2759.55,1097.93 2776.36,1097.93 2793.18,1097.93 2810,1097.93 2826.82,380.447 2843.63,380.447 2860.45,380.447 2877.27,380.447 2894.09,575.952 2910.9,575.952 2927.72,575.952 2944.54,575.952 2961.35,575.952 2978.17,575.952 2994.99,575.952 3011.81,575.952 3028.62,575.952 3045.44,575.952 3062.26,575.952 3079.08,947.97 3095.89,947.97 "/>
<polyline clip-path="url(#clip082)" style="stroke:#e8000b; stroke-linecap:round; stroke-linejoin:round; stroke-width:5; stroke-opacity:1; fill:none" points="287.379,1118.75 304.196,1118.75 321.014,1118.75 337.831,1118.75 354.649,1118.75 371.466,593.371 388.284,593.371 405.101,593.371 421.919,593.371 438.736,593.371 455.553,593.371 472.371,593.371 489.188,593.371 506.006,593.371 522.823,593.371 539.641,593.371 556.458,1118.75 573.276,593.371 590.093,593.371 606.911,593.371 623.728,593.371 640.546,593.371 657.363,593.371 674.18,593.371 690.998,1118.75 707.815,1118.75 724.633,1118.75 741.45,593.371 758.268,1118.75 775.085,1118.75 791.903,593.371 808.72,593.371 825.538,593.371 842.355,1118.75 859.172,593.371 875.99,593.371 892.807,593.371 909.625,1118.75 926.442,593.371 943.26,593.371 960.077,593.371 976.895,1118.75 993.712,593.371 1010.53,593.371 1027.35,593.371 1044.16,593.371 1060.98,1118.75 1077.8,1118.75 1094.62,1118.75 1111.43,1118.75 1128.25,1118.75 1145.07,1118.75 1161.89,1118.75 1178.7,1118.75 1195.52,593.371 1212.34,593.371 1229.16,593.371 1245.97,593.371 1262.79,593.371 1279.61,593.371 1296.43,593.371 1313.24,593.371 1330.06,593.371 1346.88,593.371 1363.7,593.371 1380.51,593.371 1397.33,593.371 1414.15,593.371 1430.97,593.371 1447.78,593.371 1464.6,593.371 1481.42,593.371 1498.24,593.371 1515.05,1118.75 1531.87,1118.75 1548.69,1118.75 1565.51,1118.75 1582.32,1118.75 1599.14,593.371 1615.96,593.371 1632.78,593.371 1649.59,593.371 1666.41,593.371 1683.23,593.371 1700.05,593.371 1716.86,593.371 1733.68,593.371 1750.5,593.371 1767.32,593.371 1784.13,593.371 1800.95,593.371 1817.77,593.371 1834.59,593.371 1851.4,593.371 1868.22,593.371 1885.04,593.371 1901.85,593.371 1918.67,593.371 1935.49,593.371 1952.31,1118.75 1969.12,1118.75 1985.94,1118.75 2002.76,593.371 2019.58,593.371 2036.39,593.371 2053.21,593.371 2070.03,593.371 2086.85,593.371 2103.66,593.371 2120.48,593.371 2137.3,593.371 2154.12,593.371 2170.93,593.371 2187.75,593.371 2204.57,593.371 2221.39,593.371 2238.2,593.371 2255.02,593.371 2271.84,593.371 2288.66,1118.75 2305.47,593.371 2322.29,1118.75 2339.11,593.371 2355.93,1118.75 2372.74,1118.75 2389.56,1118.75 2406.38,1118.75 2423.2,593.371 2440.01,593.371 2456.83,593.371 2473.65,593.371 2490.47,593.371 2507.28,593.371 2524.1,593.371 2540.92,593.371 2557.74,593.371 2574.55,593.371 2591.37,593.371 2608.19,593.371 2625.01,593.371 2641.82,593.371 2658.64,593.371 2675.46,593.371 2692.28,593.371 2709.09,593.371 2725.91,593.371 2742.73,1118.75 2759.55,1118.75 2776.36,1118.75 2793.18,593.371 2810,593.371 2826.82,593.371 2843.63,593.371 2860.45,593.371 2877.27,593.371 2894.09,1118.75 2910.9,593.371 2927.72,593.371 2944.54,1118.75 2961.35,1118.75 2978.17,593.371 2994.99,593.371 3011.81,593.371 3028.62,593.371 3045.44,593.371 3062.26,1118.75 3079.08,1118.75 3095.89,1118.75 "/>
<path clip-path="url(#clip080)" d="M3305.14 445.512 L3952.76 445.512 L3952.76 95.592 L3305.14 95.592  Z" fill="#ffffff" fill-rule="evenodd" fill-opacity="1"/>
<polyline clip-path="url(#clip080)" style="stroke:#000000; stroke-linecap:round; stroke-linejoin:round; stroke-width:4; stroke-opacity:1; fill:none" points="3305.14,445.512 3952.76,445.512 3952.76,95.592 3305.14,95.592 3305.14,445.512 "/>
<polyline clip-path="url(#clip080)" style="stroke:#023eff; stroke-linecap:round; stroke-linejoin:round; stroke-width:5.625; stroke-opacity:1; fill:none" points="3346.8,153.912 3596.78,153.912 "/>
<path clip-path="url(#clip080)" d="M3643.26 168.977 L3643.26 184.446 L3638.44 184.446 L3638.44 144.185 L3643.26 144.185 L3643.26 148.613 Q3644.77 146.008 3647.06 144.758 Q3649.38 143.482 3652.58 143.482 Q3657.89 143.482 3661.2 147.701 Q3664.53 151.92 3664.53 158.795 Q3664.53 165.67 3661.2 169.888 Q3657.89 174.107 3652.58 174.107 Q3649.38 174.107 3647.06 172.857 Q3644.77 171.581 3643.26 168.977 M3659.56 158.795 Q3659.56 153.508 3657.37 150.514 Q3655.21 147.493 3651.41 147.493 Q3647.61 147.493 3645.42 150.514 Q3643.26 153.508 3643.26 158.795 Q3643.26 164.081 3645.42 167.102 Q3647.61 170.097 3651.41 170.097 Q3655.21 170.097 3657.37 167.102 Q3659.56 164.081 3659.56 158.795 Z" fill="#000000" fill-rule="nonzero" fill-opacity="1" /><path clip-path="url(#clip080)" d="M3689.38 148.665 Q3688.57 148.196 3687.6 147.988 Q3686.67 147.753 3685.52 147.753 Q3681.46 147.753 3679.27 150.409 Q3677.11 153.04 3677.11 157.987 L3677.11 173.352 L3672.29 173.352 L3672.29 144.185 L3677.11 144.185 L3677.11 148.717 Q3678.62 146.06 3681.04 144.784 Q3683.46 143.482 3686.93 143.482 Q3687.42 143.482 3688.02 143.56 Q3688.62 143.613 3689.35 143.743 L3689.38 148.665 Z" fill="#000000" fill-rule="nonzero" fill-opacity="1" /><path clip-path="url(#clip080)" d="M3718.18 157.571 L3718.18 159.915 L3696.15 159.915 Q3696.46 164.862 3699.12 167.467 Q3701.8 170.045 3706.56 170.045 Q3709.32 170.045 3711.9 169.368 Q3714.51 168.691 3717.06 167.336 L3717.06 171.868 Q3714.48 172.961 3711.77 173.534 Q3709.06 174.107 3706.28 174.107 Q3699.3 174.107 3695.21 170.045 Q3691.15 165.982 3691.15 159.055 Q3691.15 151.894 3695 147.701 Q3698.88 143.482 3705.44 143.482 Q3711.33 143.482 3714.74 147.284 Q3718.18 151.06 3718.18 157.571 M3713.39 156.165 Q3713.33 152.232 3711.17 149.889 Q3709.04 147.545 3705.5 147.545 Q3701.49 147.545 3699.06 149.81 Q3696.67 152.076 3696.3 156.191 L3713.39 156.165 Z" fill="#000000" fill-rule="nonzero" fill-opacity="1" /><path clip-path="url(#clip080)" d="M3745.23 148.613 L3745.23 132.831 L3750.03 132.831 L3750.03 173.352 L3745.23 173.352 L3745.23 168.977 Q3743.72 171.581 3741.41 172.857 Q3739.12 174.107 3735.89 174.107 Q3730.6 174.107 3727.27 169.888 Q3723.96 165.67 3723.96 158.795 Q3723.96 151.92 3727.27 147.701 Q3730.6 143.482 3735.89 143.482 Q3739.12 143.482 3741.41 144.758 Q3743.72 146.008 3745.23 148.613 M3728.91 158.795 Q3728.91 164.081 3731.07 167.102 Q3733.26 170.097 3737.06 170.097 Q3740.86 170.097 3743.05 167.102 Q3745.23 164.081 3745.23 158.795 Q3745.23 153.508 3743.05 150.514 Q3740.86 147.493 3737.06 147.493 Q3733.26 147.493 3731.07 150.514 Q3728.91 153.508 3728.91 158.795 Z" fill="#000000" fill-rule="nonzero" fill-opacity="1" /><path clip-path="url(#clip080)" d="M3759.9 144.185 L3764.69 144.185 L3764.69 173.352 L3759.9 173.352 L3759.9 144.185 M3759.9 132.831 L3764.69 132.831 L3764.69 138.899 L3759.9 138.899 L3759.9 132.831 Z" fill="#000000" fill-rule="nonzero" fill-opacity="1" /><path clip-path="url(#clip080)" d="M3795.7 145.305 L3795.7 149.784 Q3793.67 148.665 3791.61 148.118 Q3789.58 147.545 3787.5 147.545 Q3782.84 147.545 3780.26 150.514 Q3777.68 153.456 3777.68 158.795 Q3777.68 164.133 3780.26 167.102 Q3782.84 170.045 3787.5 170.045 Q3789.58 170.045 3791.61 169.498 Q3793.67 168.925 3795.7 167.805 L3795.7 172.232 Q3793.7 173.17 3791.54 173.638 Q3789.4 174.107 3786.98 174.107 Q3780.39 174.107 3776.51 169.967 Q3772.63 165.826 3772.63 158.795 Q3772.63 151.659 3776.54 147.571 Q3780.47 143.482 3787.29 143.482 Q3789.51 143.482 3791.61 143.951 Q3793.72 144.394 3795.7 145.305 Z" fill="#000000" fill-rule="nonzero" fill-opacity="1" /><path clip-path="url(#clip080)" d="M3808.78 135.904 L3808.78 144.185 L3818.65 144.185 L3818.65 147.909 L3808.78 147.909 L3808.78 163.743 Q3808.78 167.31 3809.74 168.326 Q3810.73 169.342 3813.72 169.342 L3818.65 169.342 L3818.65 173.352 L3813.72 173.352 Q3808.18 173.352 3806.07 171.295 Q3803.96 169.211 3803.96 163.743 L3803.96 147.909 L3800.44 147.909 L3800.44 144.185 L3803.96 144.185 L3803.96 135.904 L3808.78 135.904 Z" fill="#000000" fill-rule="nonzero" fill-opacity="1" /><path clip-path="url(#clip080)" d="M3847.11 182.206 L3847.11 185.93 L3819.4 185.93 L3819.4 182.206 L3847.11 182.206 Z" fill="#000000" fill-rule="nonzero" fill-opacity="1" /><path clip-path="url(#clip080)" d="M3852.34 134.472 L3872.99 134.472 L3872.99 138.899 L3857.16 138.899 L3857.16 148.43 Q3858.31 148.04 3859.45 147.857 Q3860.6 147.649 3861.74 147.649 Q3868.26 147.649 3872.06 151.217 Q3875.86 154.784 3875.86 160.878 Q3875.86 167.154 3871.95 170.644 Q3868.05 174.107 3860.94 174.107 Q3858.49 174.107 3855.94 173.69 Q3853.41 173.274 3850.7 172.441 L3850.7 167.154 Q3853.05 168.43 3855.55 169.055 Q3858.05 169.68 3860.83 169.68 Q3865.34 169.68 3867.97 167.31 Q3870.6 164.941 3870.6 160.878 Q3870.6 156.816 3867.97 154.446 Q3865.34 152.076 3860.83 152.076 Q3858.72 152.076 3856.61 152.545 Q3854.53 153.014 3852.34 154.003 L3852.34 134.472 Z" fill="#000000" fill-rule="nonzero" fill-opacity="1" /><path clip-path="url(#clip080)" d="M3890.75 168.925 L3909.11 168.925 L3909.11 173.352 L3884.43 173.352 L3884.43 168.925 Q3887.42 165.826 3892.58 160.618 Q3897.76 155.383 3899.09 153.873 Q3901.61 151.034 3902.6 149.081 Q3903.62 147.102 3903.62 145.201 Q3903.62 142.102 3901.43 140.149 Q3899.27 138.196 3895.78 138.196 Q3893.31 138.196 3890.55 139.055 Q3887.81 139.915 3884.69 141.659 L3884.69 136.347 Q3887.86 135.071 3890.62 134.42 Q3893.39 133.769 3895.68 133.769 Q3901.72 133.769 3905.31 136.79 Q3908.91 139.81 3908.91 144.863 Q3908.91 147.258 3907.99 149.42 Q3907.11 151.555 3904.74 154.472 Q3904.09 155.227 3900.6 158.847 Q3897.11 162.441 3890.75 168.925 Z" fill="#000000" fill-rule="nonzero" fill-opacity="1" /><polyline clip-path="url(#clip080)" style="stroke:#ff7c00; stroke-linecap:round; stroke-linejoin:round; stroke-width:5.625; stroke-opacity:1; fill:none" points="3346.8,212.232 3596.78,212.232 "/>
<path clip-path="url(#clip080)" d="M3643.26 227.297 L3643.26 242.766 L3638.44 242.766 L3638.44 202.505 L3643.26 202.505 L3643.26 206.933 Q3644.77 204.328 3647.06 203.078 Q3649.38 201.802 3652.58 201.802 Q3657.89 201.802 3661.2 206.021 Q3664.53 210.24 3664.53 217.115 Q3664.53 223.99 3661.2 228.208 Q3657.89 232.427 3652.58 232.427 Q3649.38 232.427 3647.06 231.177 Q3644.77 229.901 3643.26 227.297 M3659.56 217.115 Q3659.56 211.828 3657.37 208.834 Q3655.21 205.813 3651.41 205.813 Q3647.61 205.813 3645.42 208.834 Q3643.26 211.828 3643.26 217.115 Q3643.26 222.401 3645.42 225.422 Q3647.61 228.417 3651.41 228.417 Q3655.21 228.417 3657.37 225.422 Q3659.56 222.401 3659.56 217.115 Z" fill="#000000" fill-rule="nonzero" fill-opacity="1" /><path clip-path="url(#clip080)" d="M3689.38 206.985 Q3688.57 206.516 3687.6 206.308 Q3686.67 206.073 3685.52 206.073 Q3681.46 206.073 3679.27 208.729 Q3677.11 211.36 3677.11 216.307 L3677.11 231.672 L3672.29 231.672 L3672.29 202.505 L3677.11 202.505 L3677.11 207.037 Q3678.62 204.38 3681.04 203.104 Q3683.46 201.802 3686.93 201.802 Q3687.42 201.802 3688.02 201.88 Q3688.62 201.933 3689.35 202.063 L3689.38 206.985 Z" fill="#000000" fill-rule="nonzero" fill-opacity="1" /><path clip-path="url(#clip080)" d="M3718.18 215.891 L3718.18 218.235 L3696.15 218.235 Q3696.46 223.182 3699.12 225.787 Q3701.8 228.365 3706.56 228.365 Q3709.32 228.365 3711.9 227.688 Q3714.51 227.011 3717.06 225.656 L3717.06 230.188 Q3714.48 231.281 3711.77 231.854 Q3709.06 232.427 3706.28 232.427 Q3699.3 232.427 3695.21 228.365 Q3691.15 224.302 3691.15 217.375 Q3691.15 210.214 3695 206.021 Q3698.88 201.802 3705.44 201.802 Q3711.33 201.802 3714.74 205.604 Q3718.18 209.38 3718.18 215.891 M3713.39 214.485 Q3713.33 210.552 3711.17 208.209 Q3709.04 205.865 3705.5 205.865 Q3701.49 205.865 3699.06 208.13 Q3696.67 210.396 3696.3 214.511 L3713.39 214.485 Z" fill="#000000" fill-rule="nonzero" fill-opacity="1" /><path clip-path="url(#clip080)" d="M3745.23 206.933 L3745.23 191.151 L3750.03 191.151 L3750.03 231.672 L3745.23 231.672 L3745.23 227.297 Q3743.72 229.901 3741.41 231.177 Q3739.12 232.427 3735.89 232.427 Q3730.6 232.427 3727.27 228.208 Q3723.96 223.99 3723.96 217.115 Q3723.96 210.24 3727.27 206.021 Q3730.6 201.802 3735.89 201.802 Q3739.12 201.802 3741.41 203.078 Q3743.72 204.328 3745.23 206.933 M3728.91 217.115 Q3728.91 222.401 3731.07 225.422 Q3733.26 228.417 3737.06 228.417 Q3740.86 228.417 3743.05 225.422 Q3745.23 222.401 3745.23 217.115 Q3745.23 211.828 3743.05 208.834 Q3740.86 205.813 3737.06 205.813 Q3733.26 205.813 3731.07 208.834 Q3728.91 211.828 3728.91 217.115 Z" fill="#000000" fill-rule="nonzero" fill-opacity="1" /><path clip-path="url(#clip080)" d="M3759.9 202.505 L3764.69 202.505 L3764.69 231.672 L3759.9 231.672 L3759.9 202.505 M3759.9 191.151 L3764.69 191.151 L3764.69 197.219 L3759.9 197.219 L3759.9 191.151 Z" fill="#000000" fill-rule="nonzero" fill-opacity="1" /><path clip-path="url(#clip080)" d="M3795.7 203.625 L3795.7 208.104 Q3793.67 206.985 3791.61 206.438 Q3789.58 205.865 3787.5 205.865 Q3782.84 205.865 3780.26 208.834 Q3777.68 211.776 3777.68 217.115 Q3777.68 222.453 3780.26 225.422 Q3782.84 228.365 3787.5 228.365 Q3789.58 228.365 3791.61 227.818 Q3793.67 227.245 3795.7 226.125 L3795.7 230.552 Q3793.7 231.49 3791.54 231.958 Q3789.4 232.427 3786.98 232.427 Q3780.39 232.427 3776.51 228.287 Q3772.63 224.146 3772.63 217.115 Q3772.63 209.979 3776.54 205.891 Q3780.47 201.802 3787.29 201.802 Q3789.51 201.802 3791.61 202.271 Q3793.72 202.714 3795.7 203.625 Z" fill="#000000" fill-rule="nonzero" fill-opacity="1" /><path clip-path="url(#clip080)" d="M3808.78 194.224 L3808.78 202.505 L3818.65 202.505 L3818.65 206.229 L3808.78 206.229 L3808.78 222.063 Q3808.78 225.63 3809.74 226.646 Q3810.73 227.662 3813.72 227.662 L3818.65 227.662 L3818.65 231.672 L3813.72 231.672 Q3808.18 231.672 3806.07 229.615 Q3803.96 227.531 3803.96 222.063 L3803.96 206.229 L3800.44 206.229 L3800.44 202.505 L3803.96 202.505 L3803.96 194.224 L3808.78 194.224 Z" fill="#000000" fill-rule="nonzero" fill-opacity="1" /><path clip-path="url(#clip080)" d="M3847.11 240.526 L3847.11 244.25 L3819.4 244.25 L3819.4 240.526 L3847.11 240.526 Z" fill="#000000" fill-rule="nonzero" fill-opacity="1" /><path clip-path="url(#clip080)" d="M3856.82 227.245 L3875.18 227.245 L3875.18 231.672 L3850.49 231.672 L3850.49 227.245 Q3853.49 224.146 3858.65 218.938 Q3863.83 213.703 3865.16 212.193 Q3867.68 209.354 3868.67 207.401 Q3869.69 205.422 3869.69 203.521 Q3869.69 200.422 3867.5 198.469 Q3865.34 196.516 3861.85 196.516 Q3859.37 196.516 3856.61 197.375 Q3853.88 198.235 3850.76 199.979 L3850.76 194.667 Q3853.93 193.391 3856.69 192.74 Q3859.45 192.089 3861.74 192.089 Q3867.79 192.089 3871.38 195.11 Q3874.97 198.13 3874.97 203.183 Q3874.97 205.578 3874.06 207.74 Q3873.18 209.875 3870.81 212.792 Q3870.16 213.547 3866.67 217.167 Q3863.18 220.761 3856.82 227.245 Z" fill="#000000" fill-rule="nonzero" fill-opacity="1" /><path clip-path="url(#clip080)" d="M3898.12 210.136 Q3894.58 210.136 3892.5 212.557 Q3890.44 214.979 3890.44 219.198 Q3890.44 223.391 3892.5 225.839 Q3894.58 228.261 3898.12 228.261 Q3901.67 228.261 3903.72 225.839 Q3905.81 223.391 3905.81 219.198 Q3905.81 214.979 3903.72 212.557 Q3901.67 210.136 3898.12 210.136 M3908.57 193.651 L3908.57 198.443 Q3906.59 197.505 3904.56 197.011 Q3902.55 196.516 3900.57 196.516 Q3895.36 196.516 3892.6 200.031 Q3889.87 203.547 3889.48 210.656 Q3891.02 208.391 3893.33 207.193 Q3895.65 205.969 3898.44 205.969 Q3904.3 205.969 3907.68 209.537 Q3911.09 213.078 3911.09 219.198 Q3911.09 225.188 3907.55 228.807 Q3904.01 232.427 3898.12 232.427 Q3891.38 232.427 3887.81 227.271 Q3884.24 222.089 3884.24 212.271 Q3884.24 203.052 3888.62 197.584 Q3892.99 192.089 3900.36 192.089 Q3902.34 192.089 3904.35 192.479 Q3906.38 192.87 3908.57 193.651 Z" fill="#000000" fill-rule="nonzero" fill-opacity="1" /><polyline clip-path="url(#clip080)" style="stroke:#1ac938; stroke-linecap:round; stroke-linejoin:round; stroke-width:5.625; stroke-opacity:1; fill:none" points="3346.8,270.552 3596.78,270.552 "/>
<path clip-path="url(#clip080)" d="M3643.26 285.617 L3643.26 301.086 L3638.44 301.086 L3638.44 260.825 L3643.26 260.825 L3643.26 265.253 Q3644.77 262.648 3647.06 261.398 Q3649.38 260.122 3652.58 260.122 Q3657.89 260.122 3661.2 264.341 Q3664.53 268.56 3664.53 275.435 Q3664.53 282.31 3661.2 286.528 Q3657.89 290.747 3652.58 290.747 Q3649.38 290.747 3647.06 289.497 Q3644.77 288.221 3643.26 285.617 M3659.56 275.435 Q3659.56 270.148 3657.37 267.154 Q3655.21 264.133 3651.41 264.133 Q3647.61 264.133 3645.42 267.154 Q3643.26 270.148 3643.26 275.435 Q3643.26 280.721 3645.42 283.742 Q3647.61 286.737 3651.41 286.737 Q3655.21 286.737 3657.37 283.742 Q3659.56 280.721 3659.56 275.435 Z" fill="#000000" fill-rule="nonzero" fill-opacity="1" /><path clip-path="url(#clip080)" d="M3689.38 265.305 Q3688.57 264.836 3687.6 264.628 Q3686.67 264.393 3685.52 264.393 Q3681.46 264.393 3679.27 267.049 Q3677.11 269.68 3677.11 274.627 L3677.11 289.992 L3672.29 289.992 L3672.29 260.825 L3677.11 260.825 L3677.11 265.357 Q3678.62 262.7 3681.04 261.424 Q3683.46 260.122 3686.93 260.122 Q3687.42 260.122 3688.02 260.2 Q3688.62 260.253 3689.35 260.383 L3689.38 265.305 Z" fill="#000000" fill-rule="nonzero" fill-opacity="1" /><path clip-path="url(#clip080)" d="M3718.18 274.211 L3718.18 276.555 L3696.15 276.555 Q3696.46 281.502 3699.12 284.107 Q3701.8 286.685 3706.56 286.685 Q3709.32 286.685 3711.9 286.008 Q3714.51 285.331 3717.06 283.976 L3717.06 288.508 Q3714.48 289.601 3711.77 290.174 Q3709.06 290.747 3706.28 290.747 Q3699.3 290.747 3695.21 286.685 Q3691.15 282.622 3691.15 275.695 Q3691.15 268.534 3695 264.341 Q3698.88 260.122 3705.44 260.122 Q3711.33 260.122 3714.74 263.924 Q3718.18 267.7 3718.18 274.211 M3713.39 272.805 Q3713.33 268.872 3711.17 266.529 Q3709.04 264.185 3705.5 264.185 Q3701.49 264.185 3699.06 266.45 Q3696.67 268.716 3696.3 272.831 L3713.39 272.805 Z" fill="#000000" fill-rule="nonzero" fill-opacity="1" /><path clip-path="url(#clip080)" d="M3745.23 265.253 L3745.23 249.471 L3750.03 249.471 L3750.03 289.992 L3745.23 289.992 L3745.23 285.617 Q3743.72 288.221 3741.41 289.497 Q3739.12 290.747 3735.89 290.747 Q3730.6 290.747 3727.27 286.528 Q3723.96 282.31 3723.96 275.435 Q3723.96 268.56 3727.27 264.341 Q3730.6 260.122 3735.89 260.122 Q3739.12 260.122 3741.41 261.398 Q3743.72 262.648 3745.23 265.253 M3728.91 275.435 Q3728.91 280.721 3731.07 283.742 Q3733.26 286.737 3737.06 286.737 Q3740.86 286.737 3743.05 283.742 Q3745.23 280.721 3745.23 275.435 Q3745.23 270.148 3743.05 267.154 Q3740.86 264.133 3737.06 264.133 Q3733.26 264.133 3731.07 267.154 Q3728.91 270.148 3728.91 275.435 Z" fill="#000000" fill-rule="nonzero" fill-opacity="1" /><path clip-path="url(#clip080)" d="M3759.9 260.825 L3764.69 260.825 L3764.69 289.992 L3759.9 289.992 L3759.9 260.825 M3759.9 249.471 L3764.69 249.471 L3764.69 255.539 L3759.9 255.539 L3759.9 249.471 Z" fill="#000000" fill-rule="nonzero" fill-opacity="1" /><path clip-path="url(#clip080)" d="M3795.7 261.945 L3795.7 266.424 Q3793.67 265.305 3791.61 264.758 Q3789.58 264.185 3787.5 264.185 Q3782.84 264.185 3780.26 267.154 Q3777.68 270.096 3777.68 275.435 Q3777.68 280.773 3780.26 283.742 Q3782.84 286.685 3787.5 286.685 Q3789.58 286.685 3791.61 286.138 Q3793.67 285.565 3795.7 284.445 L3795.7 288.872 Q3793.7 289.81 3791.54 290.278 Q3789.4 290.747 3786.98 290.747 Q3780.39 290.747 3776.51 286.607 Q3772.63 282.466 3772.63 275.435 Q3772.63 268.299 3776.54 264.211 Q3780.47 260.122 3787.29 260.122 Q3789.51 260.122 3791.61 260.591 Q3793.72 261.034 3795.7 261.945 Z" fill="#000000" fill-rule="nonzero" fill-opacity="1" /><path clip-path="url(#clip080)" d="M3808.78 252.544 L3808.78 260.825 L3818.65 260.825 L3818.65 264.549 L3808.78 264.549 L3808.78 280.383 Q3808.78 283.95 3809.74 284.966 Q3810.73 285.982 3813.72 285.982 L3818.65 285.982 L3818.65 289.992 L3813.72 289.992 Q3808.18 289.992 3806.07 287.935 Q3803.96 285.851 3803.96 280.383 L3803.96 264.549 L3800.44 264.549 L3800.44 260.825 L3803.96 260.825 L3803.96 252.544 L3808.78 252.544 Z" fill="#000000" fill-rule="nonzero" fill-opacity="1" /><path clip-path="url(#clip080)" d="M3847.11 298.846 L3847.11 302.57 L3819.4 302.57 L3819.4 298.846 L3847.11 298.846 Z" fill="#000000" fill-rule="nonzero" fill-opacity="1" /><path clip-path="url(#clip080)" d="M3866.74 255.695 L3853.46 276.45 L3866.74 276.45 L3866.74 255.695 M3865.36 251.112 L3871.98 251.112 L3871.98 276.45 L3877.53 276.45 L3877.53 280.825 L3871.98 280.825 L3871.98 289.992 L3866.74 289.992 L3866.74 280.825 L3849.19 280.825 L3849.19 275.747 L3865.36 251.112 Z" fill="#000000" fill-rule="nonzero" fill-opacity="1" /><polyline clip-path="url(#clip080)" style="stroke:#e8000b; stroke-linecap:round; stroke-linejoin:round; stroke-width:5.625; stroke-opacity:1; fill:none" points="3346.8,328.872 3596.78,328.872 "/>
<path clip-path="url(#clip080)" d="M3643.26 343.937 L3643.26 359.406 L3638.44 359.406 L3638.44 319.145 L3643.26 319.145 L3643.26 323.573 Q3644.77 320.968 3647.06 319.718 Q3649.38 318.442 3652.58 318.442 Q3657.89 318.442 3661.2 322.661 Q3664.53 326.88 3664.53 333.755 Q3664.53 340.63 3661.2 344.848 Q3657.89 349.067 3652.58 349.067 Q3649.38 349.067 3647.06 347.817 Q3644.77 346.541 3643.26 343.937 M3659.56 333.755 Q3659.56 328.468 3657.37 325.474 Q3655.21 322.453 3651.41 322.453 Q3647.61 322.453 3645.42 325.474 Q3643.26 328.468 3643.26 333.755 Q3643.26 339.041 3645.42 342.062 Q3647.61 345.057 3651.41 345.057 Q3655.21 345.057 3657.37 342.062 Q3659.56 339.041 3659.56 333.755 Z" fill="#000000" fill-rule="nonzero" fill-opacity="1" /><path clip-path="url(#clip080)" d="M3689.38 323.625 Q3688.57 323.156 3687.6 322.948 Q3686.67 322.713 3685.52 322.713 Q3681.46 322.713 3679.27 325.369 Q3677.11 328 3677.11 332.947 L3677.11 348.312 L3672.29 348.312 L3672.29 319.145 L3677.11 319.145 L3677.11 323.677 Q3678.62 321.02 3681.04 319.744 Q3683.46 318.442 3686.93 318.442 Q3687.42 318.442 3688.02 318.52 Q3688.62 318.573 3689.35 318.703 L3689.38 323.625 Z" fill="#000000" fill-rule="nonzero" fill-opacity="1" /><path clip-path="url(#clip080)" d="M3718.18 332.531 L3718.18 334.875 L3696.15 334.875 Q3696.46 339.822 3699.12 342.427 Q3701.8 345.005 3706.56 345.005 Q3709.32 345.005 3711.9 344.328 Q3714.51 343.651 3717.06 342.296 L3717.06 346.828 Q3714.48 347.921 3711.77 348.494 Q3709.06 349.067 3706.28 349.067 Q3699.3 349.067 3695.21 345.005 Q3691.15 340.942 3691.15 334.015 Q3691.15 326.854 3695 322.661 Q3698.88 318.442 3705.44 318.442 Q3711.33 318.442 3714.74 322.244 Q3718.18 326.02 3718.18 332.531 M3713.39 331.125 Q3713.33 327.192 3711.17 324.849 Q3709.04 322.505 3705.5 322.505 Q3701.49 322.505 3699.06 324.77 Q3696.67 327.036 3696.3 331.151 L3713.39 331.125 Z" fill="#000000" fill-rule="nonzero" fill-opacity="1" /><path clip-path="url(#clip080)" d="M3745.23 323.573 L3745.23 307.791 L3750.03 307.791 L3750.03 348.312 L3745.23 348.312 L3745.23 343.937 Q3743.72 346.541 3741.41 347.817 Q3739.12 349.067 3735.89 349.067 Q3730.6 349.067 3727.27 344.848 Q3723.96 340.63 3723.96 333.755 Q3723.96 326.88 3727.27 322.661 Q3730.6 318.442 3735.89 318.442 Q3739.12 318.442 3741.41 319.718 Q3743.72 320.968 3745.23 323.573 M3728.91 333.755 Q3728.91 339.041 3731.07 342.062 Q3733.26 345.057 3737.06 345.057 Q3740.86 345.057 3743.05 342.062 Q3745.23 339.041 3745.23 333.755 Q3745.23 328.468 3743.05 325.474 Q3740.86 322.453 3737.06 322.453 Q3733.26 322.453 3731.07 325.474 Q3728.91 328.468 3728.91 333.755 Z" fill="#000000" fill-rule="nonzero" fill-opacity="1" /><path clip-path="url(#clip080)" d="M3759.9 319.145 L3764.69 319.145 L3764.69 348.312 L3759.9 348.312 L3759.9 319.145 M3759.9 307.791 L3764.69 307.791 L3764.69 313.859 L3759.9 313.859 L3759.9 307.791 Z" fill="#000000" fill-rule="nonzero" fill-opacity="1" /><path clip-path="url(#clip080)" d="M3795.7 320.265 L3795.7 324.744 Q3793.67 323.625 3791.61 323.078 Q3789.58 322.505 3787.5 322.505 Q3782.84 322.505 3780.26 325.474 Q3777.68 328.416 3777.68 333.755 Q3777.68 339.093 3780.26 342.062 Q3782.84 345.005 3787.5 345.005 Q3789.58 345.005 3791.61 344.458 Q3793.67 343.885 3795.7 342.765 L3795.7 347.192 Q3793.7 348.13 3791.54 348.598 Q3789.4 349.067 3786.98 349.067 Q3780.39 349.067 3776.51 344.927 Q3772.63 340.786 3772.63 333.755 Q3772.63 326.619 3776.54 322.531 Q3780.47 318.442 3787.29 318.442 Q3789.51 318.442 3791.61 318.911 Q3793.72 319.354 3795.7 320.265 Z" fill="#000000" fill-rule="nonzero" fill-opacity="1" /><path clip-path="url(#clip080)" d="M3808.78 310.864 L3808.78 319.145 L3818.65 319.145 L3818.65 322.869 L3808.78 322.869 L3808.78 338.703 Q3808.78 342.27 3809.74 343.286 Q3810.73 344.302 3813.72 344.302 L3818.65 344.302 L3818.65 348.312 L3813.72 348.312 Q3808.18 348.312 3806.07 346.255 Q3803.96 344.171 3803.96 338.703 L3803.96 322.869 L3800.44 322.869 L3800.44 319.145 L3803.96 319.145 L3803.96 310.864 L3808.78 310.864 Z" fill="#000000" fill-rule="nonzero" fill-opacity="1" /><path clip-path="url(#clip080)" d="M3847.11 357.166 L3847.11 360.89 L3819.4 360.89 L3819.4 357.166 L3847.11 357.166 Z" fill="#000000" fill-rule="nonzero" fill-opacity="1" /><path clip-path="url(#clip080)" d="M3853.2 343.885 L3861.8 343.885 L3861.8 314.224 L3852.45 316.099 L3852.45 311.307 L3861.74 309.432 L3867.01 309.432 L3867.01 343.885 L3875.6 343.885 L3875.6 348.312 L3853.2 348.312 L3853.2 343.885 Z" fill="#000000" fill-rule="nonzero" fill-opacity="1" /><polyline clip-path="url(#clip080)" style="stroke:#000000; stroke-linecap:round; stroke-linejoin:round; stroke-width:6.75; stroke-opacity:1; fill:none" points="3346.8,387.192 3596.78,387.192 "/>
<path clip-path="url(#clip080)" d="M3653.52 391.971 Q3647.71 391.971 3645.47 393.299 Q3643.23 394.627 3643.23 397.83 Q3643.23 400.382 3644.9 401.892 Q3646.59 403.377 3649.48 403.377 Q3653.46 403.377 3655.86 400.564 Q3658.28 397.726 3658.28 393.038 L3658.28 391.971 L3653.52 391.971 M3663.07 389.991 L3663.07 406.632 L3658.28 406.632 L3658.28 402.205 Q3656.64 404.861 3654.19 406.137 Q3651.75 407.387 3648.2 407.387 Q3643.72 407.387 3641.07 404.887 Q3638.44 402.361 3638.44 398.142 Q3638.44 393.221 3641.72 390.721 Q3645.03 388.221 3651.56 388.221 L3658.28 388.221 L3658.28 387.752 Q3658.28 384.445 3656.09 382.648 Q3653.93 380.825 3650 380.825 Q3647.5 380.825 3645.13 381.424 Q3642.76 382.023 3640.57 383.221 L3640.57 378.794 Q3643.2 377.778 3645.68 377.283 Q3648.15 376.762 3650.5 376.762 Q3656.82 376.762 3659.95 380.044 Q3663.07 383.325 3663.07 389.991 Z" fill="#000000" fill-rule="nonzero" fill-opacity="1" /><path clip-path="url(#clip080)" d="M3693.93 378.585 L3693.93 383.064 Q3691.9 381.945 3689.84 381.398 Q3687.81 380.825 3685.73 380.825 Q3681.07 380.825 3678.49 383.794 Q3675.91 386.736 3675.91 392.075 Q3675.91 397.413 3678.49 400.382 Q3681.07 403.325 3685.73 403.325 Q3687.81 403.325 3689.84 402.778 Q3691.9 402.205 3693.93 401.085 L3693.93 405.512 Q3691.93 406.45 3689.77 406.918 Q3687.63 407.387 3685.21 407.387 Q3678.62 407.387 3674.74 403.247 Q3670.86 399.106 3670.86 392.075 Q3670.86 384.939 3674.77 380.851 Q3678.7 376.762 3685.52 376.762 Q3687.74 376.762 3689.84 377.231 Q3691.95 377.674 3693.93 378.585 Z" fill="#000000" fill-rule="nonzero" fill-opacity="1" /><path clip-path="url(#clip080)" d="M3707.01 369.184 L3707.01 377.465 L3716.88 377.465 L3716.88 381.189 L3707.01 381.189 L3707.01 397.023 Q3707.01 400.59 3707.97 401.606 Q3708.96 402.622 3711.95 402.622 L3716.88 402.622 L3716.88 406.632 L3711.95 406.632 Q3706.41 406.632 3704.3 404.575 Q3702.19 402.491 3702.19 397.023 L3702.19 381.189 L3698.67 381.189 L3698.67 377.465 L3702.19 377.465 L3702.19 369.184 L3707.01 369.184 Z" fill="#000000" fill-rule="nonzero" fill-opacity="1" /><path clip-path="url(#clip080)" d="M3722.68 395.122 L3722.68 377.465 L3727.47 377.465 L3727.47 394.939 Q3727.47 399.08 3729.09 401.163 Q3730.7 403.221 3733.93 403.221 Q3737.81 403.221 3740.05 400.747 Q3742.32 398.273 3742.32 394.002 L3742.32 377.465 L3747.11 377.465 L3747.11 406.632 L3742.32 406.632 L3742.32 402.153 Q3740.57 404.809 3738.26 406.111 Q3735.96 407.387 3732.92 407.387 Q3727.89 407.387 3725.29 404.262 Q3722.68 401.137 3722.68 395.122 M3734.74 376.762 L3734.74 376.762 Z" fill="#000000" fill-rule="nonzero" fill-opacity="1" /><path clip-path="url(#clip080)" d="M3770.23 391.971 Q3764.43 391.971 3762.19 393.299 Q3759.95 394.627 3759.95 397.83 Q3759.95 400.382 3761.61 401.892 Q3763.31 403.377 3766.2 403.377 Q3770.18 403.377 3772.58 400.564 Q3775 397.726 3775 393.038 L3775 391.971 L3770.23 391.971 M3779.79 389.991 L3779.79 406.632 L3775 406.632 L3775 402.205 Q3773.36 404.861 3770.91 406.137 Q3768.46 407.387 3764.92 407.387 Q3760.44 407.387 3757.79 404.887 Q3755.16 402.361 3755.16 398.142 Q3755.16 393.221 3758.44 390.721 Q3761.75 388.221 3768.28 388.221 L3775 388.221 L3775 387.752 Q3775 384.445 3772.81 382.648 Q3770.65 380.825 3766.72 380.825 Q3764.22 380.825 3761.85 381.424 Q3759.48 382.023 3757.29 383.221 L3757.29 378.794 Q3759.92 377.778 3762.4 377.283 Q3764.87 376.762 3767.21 376.762 Q3773.54 376.762 3776.67 380.044 Q3779.79 383.325 3779.79 389.991 Z" fill="#000000" fill-rule="nonzero" fill-opacity="1" /><path clip-path="url(#clip080)" d="M3789.66 366.111 L3794.45 366.111 L3794.45 406.632 L3789.66 406.632 L3789.66 366.111 Z" fill="#000000" fill-rule="nonzero" fill-opacity="1" /></svg>
