<?xml version="1.0" encoding="UTF-8" standalone="no"?>
<!DOCTYPE svg PUBLIC "-//W3C//DTD SVG 1.1//EN"
 "http://www.w3.org/Graphics/SVG/1.1/DTD/svg11.dtd">
<!-- Generated by graphviz version 2.50.0 (20211204.2007)
 -->
<!-- Pages: 1 -->
<svg width="1864pt" height="896pt"
 viewBox="0.00 0.00 1864.00 896.00" xmlns="http://www.w3.org/2000/svg" xmlns:xlink="http://www.w3.org/1999/xlink">
<g id="graph0" class="graph" transform="scale(1 1) rotate(0) translate(4 892)">
<polygon fill="white" stroke="transparent" points="-4,4 -4,-892 1860,-892 1860,4 -4,4"/>
<!-- 1 -->
<g id="node1" class="node">
<title>1</title>
<text text-anchor="start" x="693" y="-869.8" font-family="Arial" font-weight="bold" font-size="14.00"> </text>
<text text-anchor="start" x="623" y="-825.3" font-family="Arial" font-size="14.00"> &#160;&#160;&#160;</text>
<path fill="#ebebeb" stroke="transparent" d="M653,-797C653,-797 737,-797 737,-797 743,-797 749,-803 749,-809 749,-809 749,-849 749,-849 749,-855 743,-861 737,-861 737,-861 653,-861 653,-861 647,-861 641,-855 641,-849 641,-849 641,-809 641,-809 641,-803 647,-797 653,-797"/>
<text text-anchor="start" x="642" y="-858.4" font-family="Arial" font-size="2.00"> </text>
<text text-anchor="start" x="642" y="-852.4" font-family="Arial" font-size="7.00"> &#160;1</text>
<text text-anchor="start" x="656" y="-835.8" font-family="Arial" font-weight="bold" font-size="14.00">Mean: 8.666</text>
<text text-anchor="start" x="671.5" y="-818.8" font-family="Arial" font-weight="bold" font-size="14.00">n = 672</text>
<text text-anchor="start" x="693.5" y="-800.8" font-family="Arial" font-size="9.00"> </text>
<path fill="none" stroke="#333333" d="M653,-797C653,-797 737,-797 737,-797 743,-797 749,-803 749,-809 749,-809 749,-849 749,-849 749,-855 743,-861 737,-861 737,-861 653,-861 653,-861 647,-861 641,-855 641,-849 641,-849 641,-809 641,-809 641,-803 647,-797 653,-797"/>
<text text-anchor="start" x="751" y="-825.3" font-family="Arial" font-size="14.00"> &#160;&#160;&#160;</text>
<text text-anchor="start" x="637.5" y="-782.8" font-family="Arial" font-weight="bold" font-size="14.00">prev_168h_inflow</text>
</g>
<!-- 2 -->
<g id="node2" class="node">
<title>2</title>
<text text-anchor="start" x="514" y="-715.8" font-family="Arial" font-weight="bold" font-size="14.00"> &lt; 8.375</text>
<text text-anchor="start" x="471" y="-671.3" font-family="Arial" font-size="14.00"> &#160;&#160;&#160;</text>
<path fill="#ebebeb" stroke="transparent" d="M501,-643C501,-643 577,-643 577,-643 583,-643 589,-649 589,-655 589,-655 589,-695 589,-695 589,-701 583,-707 577,-707 577,-707 501,-707 501,-707 495,-707 489,-701 489,-695 489,-695 489,-655 489,-655 489,-649 495,-643 501,-643"/>
<text text-anchor="start" x="490" y="-704.4" font-family="Arial" font-size="2.00"> </text>
<text text-anchor="start" x="490" y="-698.4" font-family="Arial" font-size="7.00"> &#160;2</text>
<text text-anchor="start" x="504" y="-681.8" font-family="Arial" font-weight="bold" font-size="14.00">Mean: 7.54</text>
<text text-anchor="start" x="515.5" y="-664.8" font-family="Arial" font-weight="bold" font-size="14.00">n = 357</text>
<text text-anchor="start" x="537.5" y="-646.8" font-family="Arial" font-size="9.00"> </text>
<path fill="none" stroke="#333333" d="M501,-643C501,-643 577,-643 577,-643 583,-643 589,-649 589,-655 589,-655 589,-695 589,-695 589,-701 583,-707 577,-707 577,-707 501,-707 501,-707 495,-707 489,-701 489,-695 489,-695 489,-655 489,-655 489,-649 495,-643 501,-643"/>
<text text-anchor="start" x="591" y="-671.3" font-family="Arial" font-size="14.00"> &#160;&#160;&#160;</text>
<text text-anchor="start" x="481.5" y="-628.8" font-family="Arial" font-weight="bold" font-size="14.00">prev_168h_inflow</text>
</g>
<!-- 1&#45;&gt;2 -->
<g id="edge1" class="edge">
<title>1&#45;&gt;2</title>
<path fill="none" stroke="#888888" d="M635.13,-769.67C625.62,-760.39 615.72,-750.75 606.05,-741.33"/>
<polygon fill="#888888" stroke="#888888" points="608.31,-738.65 598.71,-734.18 603.43,-743.66 608.31,-738.65"/>
</g>
<!-- 11 -->
<g id="node3" class="node">
<title>11</title>
<text text-anchor="start" x="829.5" y="-715.8" font-family="Arial" font-weight="bold" font-size="14.00"> ≥ 8.375</text>
<path fill="#ebebeb" stroke="transparent" d="M812,-643C812,-643 896,-643 896,-643 902,-643 908,-649 908,-655 908,-655 908,-695 908,-695 908,-701 902,-707 896,-707 896,-707 812,-707 812,-707 806,-707 800,-701 800,-695 800,-695 800,-655 800,-655 800,-649 806,-643 812,-643"/>
<text text-anchor="start" x="801" y="-704.4" font-family="Arial" font-size="2.00"> </text>
<text text-anchor="start" x="801" y="-698.4" font-family="Arial" font-size="7.00"> &#160;11</text>
<text text-anchor="start" x="815" y="-681.8" font-family="Arial" font-weight="bold" font-size="14.00">Mean: 9.942</text>
<text text-anchor="start" x="830.5" y="-664.8" font-family="Arial" font-weight="bold" font-size="14.00">n = 315</text>
<text text-anchor="start" x="852.5" y="-646.8" font-family="Arial" font-size="9.00"> </text>
<path fill="none" stroke="#333333" d="M812,-643C812,-643 896,-643 896,-643 902,-643 908,-649 908,-655 908,-655 908,-695 908,-695 908,-701 902,-707 896,-707 896,-707 812,-707 812,-707 806,-707 800,-701 800,-695 800,-695 800,-655 800,-655 800,-649 806,-643 812,-643"/>
<text text-anchor="start" x="839.5" y="-628.8" font-family="Arial" font-weight="bold" font-size="14.00">time</text>
</g>
<!-- 1&#45;&gt;11 -->
<g id="edge2" class="edge">
<title>1&#45;&gt;11</title>
<path fill="none" stroke="#888888" d="M756.02,-769.67C765.72,-760.39 775.81,-750.75 785.66,-741.33"/>
<polygon fill="#888888" stroke="#888888" points="788.33,-743.62 793.14,-734.18 783.5,-738.56 788.33,-743.62"/>
</g>
<!-- 3 -->
<g id="node4" class="node">
<title>3</title>
<text text-anchor="start" x="286.5" y="-561.8" font-family="Arial" font-weight="bold" font-size="14.00"> &lt; 5.87</text>
<path fill="#ebebeb" stroke="transparent" d="M266,-489C266,-489 350,-489 350,-489 356,-489 362,-495 362,-501 362,-501 362,-541 362,-541 362,-547 356,-553 350,-553 350,-553 266,-553 266,-553 260,-553 254,-547 254,-541 254,-541 254,-501 254,-501 254,-495 260,-489 266,-489"/>
<text text-anchor="start" x="255" y="-550.4" font-family="Arial" font-size="2.00"> </text>
<text text-anchor="start" x="255" y="-544.4" font-family="Arial" font-size="7.00"> &#160;3</text>
<text text-anchor="start" x="269" y="-527.8" font-family="Arial" font-weight="bold" font-size="14.00">Mean: 5.963</text>
<text text-anchor="start" x="284.5" y="-510.8" font-family="Arial" font-weight="bold" font-size="14.00">n = 162</text>
<text text-anchor="start" x="306.5" y="-492.8" font-family="Arial" font-size="9.00"> </text>
<path fill="none" stroke="#333333" d="M266,-489C266,-489 350,-489 350,-489 356,-489 362,-495 362,-501 362,-501 362,-541 362,-541 362,-547 356,-553 350,-553 350,-553 266,-553 266,-553 260,-553 254,-547 254,-541 254,-541 254,-501 254,-501 254,-495 260,-489 266,-489"/>
<text text-anchor="start" x="275" y="-474.8" font-family="Arial" font-weight="bold" font-size="14.00">air_humid</text>
</g>
<!-- 2&#45;&gt;3 -->
<g id="edge3" class="edge">
<title>2&#45;&gt;3</title>
<path fill="none" stroke="#888888" d="M460.79,-622.54C435.51,-605.9 407.56,-587.51 382.55,-571.05"/>
<polygon fill="#888888" stroke="#888888" points="384.46,-568.12 374.19,-565.55 380.62,-573.97 384.46,-568.12"/>
</g>
<!-- 8 -->
<g id="node5" class="node">
<title>8</title>
<text text-anchor="start" x="518" y="-561.8" font-family="Arial" font-weight="bold" font-size="14.00"> ≥ 5.87</text>
<path fill="#ebebeb" stroke="transparent" d="M501,-489C501,-489 577,-489 577,-489 583,-489 589,-495 589,-501 589,-501 589,-541 589,-541 589,-547 583,-553 577,-553 577,-553 501,-553 501,-553 495,-553 489,-547 489,-541 489,-541 489,-501 489,-501 489,-495 495,-489 501,-489"/>
<text text-anchor="start" x="490" y="-550.4" font-family="Arial" font-size="2.00"> </text>
<text text-anchor="start" x="490" y="-544.4" font-family="Arial" font-size="7.00"> &#160;8</text>
<text text-anchor="start" x="504" y="-527.8" font-family="Arial" font-weight="bold" font-size="14.00">Mean: 8.85</text>
<text text-anchor="start" x="515.5" y="-510.8" font-family="Arial" font-weight="bold" font-size="14.00">n = 195</text>
<text text-anchor="start" x="537.5" y="-492.8" font-family="Arial" font-size="9.00"> </text>
<path fill="none" stroke="#333333" d="M501,-489C501,-489 577,-489 577,-489 583,-489 589,-495 589,-501 589,-501 589,-541 589,-541 589,-547 583,-553 577,-553 577,-553 501,-553 501,-553 495,-553 489,-547 489,-541 489,-541 489,-501 489,-501 489,-495 495,-489 501,-489"/>
<text text-anchor="start" x="506" y="-474.8" font-family="Arial" font-weight="bold" font-size="14.00">air_humid</text>
</g>
<!-- 2&#45;&gt;8 -->
<g id="edge4" class="edge">
<title>2&#45;&gt;8</title>
<path fill="none" stroke="#888888" d="M539,-615.67C539,-607.39 539,-598.83 539,-590.38"/>
<polygon fill="#888888" stroke="#888888" points="542.5,-590.18 539,-580.18 535.5,-590.18 542.5,-590.18"/>
</g>
<!-- 12 -->
<g id="node12" class="node">
<title>12</title>
<text text-anchor="start" x="836.5" y="-561.8" font-family="Arial" font-weight="bold" font-size="14.00"> &lt; 5.5</text>
<path fill="#ebebeb" stroke="transparent" d="M812,-489C812,-489 896,-489 896,-489 902,-489 908,-495 908,-501 908,-501 908,-541 908,-541 908,-547 902,-553 896,-553 896,-553 812,-553 812,-553 806,-553 800,-547 800,-541 800,-541 800,-501 800,-501 800,-495 806,-489 812,-489"/>
<text text-anchor="start" x="801" y="-550.4" font-family="Arial" font-size="2.00"> </text>
<text text-anchor="start" x="801" y="-544.4" font-family="Arial" font-size="7.00"> &#160;12</text>
<text text-anchor="start" x="815" y="-527.8" font-family="Arial" font-weight="bold" font-size="14.00">Mean: 7.796</text>
<text text-anchor="start" x="834" y="-510.8" font-family="Arial" font-weight="bold" font-size="14.00">n = 34</text>
<text text-anchor="start" x="852.5" y="-492.8" font-family="Arial" font-size="9.00"> </text>
<path fill="none" stroke="#333333" d="M812,-489C812,-489 896,-489 896,-489 902,-489 908,-495 908,-501 908,-501 908,-541 908,-541 908,-547 902,-553 896,-553 896,-553 812,-553 812,-553 806,-553 800,-547 800,-541 800,-541 800,-501 800,-501 800,-495 806,-489 812,-489"/>
<text text-anchor="start" x="811.5" y="-474.8" font-family="Arial" font-weight="bold" font-size="14.00">day_of_week</text>
</g>
<!-- 11&#45;&gt;12 -->
<g id="edge11" class="edge">
<title>11&#45;&gt;12</title>
<path fill="none" stroke="#888888" d="M854,-615.67C854,-607.39 854,-598.83 854,-590.38"/>
<polygon fill="#888888" stroke="#888888" points="857.5,-590.18 854,-580.18 850.5,-590.18 857.5,-590.18"/>
</g>
<!-- 15 -->
<g id="node13" class="node">
<title>15</title>
<text text-anchor="start" x="1068" y="-561.8" font-family="Arial" font-weight="bold" font-size="14.00"> ≥ 5.5</text>
<path fill="#ebebeb" stroke="transparent" d="M1047,-489C1047,-489 1123,-489 1123,-489 1129,-489 1135,-495 1135,-501 1135,-501 1135,-541 1135,-541 1135,-547 1129,-553 1123,-553 1123,-553 1047,-553 1047,-553 1041,-553 1035,-547 1035,-541 1035,-541 1035,-501 1035,-501 1035,-495 1041,-489 1047,-489"/>
<text text-anchor="start" x="1036" y="-550.4" font-family="Arial" font-size="2.00"> </text>
<text text-anchor="start" x="1036" y="-544.4" font-family="Arial" font-size="7.00"> &#160;15</text>
<text text-anchor="start" x="1050" y="-527.8" font-family="Arial" font-weight="bold" font-size="14.00">Mean: 10.2</text>
<text text-anchor="start" x="1061.5" y="-510.8" font-family="Arial" font-weight="bold" font-size="14.00">n = 281</text>
<text text-anchor="start" x="1083.5" y="-492.8" font-family="Arial" font-size="9.00"> </text>
<path fill="none" stroke="#333333" d="M1047,-489C1047,-489 1123,-489 1123,-489 1129,-489 1135,-495 1135,-501 1135,-501 1135,-541 1135,-541 1135,-547 1129,-553 1123,-553 1123,-553 1047,-553 1047,-553 1041,-553 1035,-547 1035,-541 1035,-541 1035,-501 1035,-501 1035,-495 1041,-489 1047,-489"/>
<text text-anchor="start" x="1070.5" y="-474.8" font-family="Arial" font-weight="bold" font-size="14.00">time</text>
</g>
<!-- 11&#45;&gt;15 -->
<g id="edge12" class="edge">
<title>11&#45;&gt;15</title>
<path fill="none" stroke="#888888" d="M920.2,-630.44C949.56,-611.12 984.16,-588.35 1014.06,-568.68"/>
<polygon fill="#888888" stroke="#888888" points="1016.33,-571.37 1022.76,-562.95 1012.48,-565.53 1016.33,-571.37"/>
</g>
<!-- 4 -->
<g id="node6" class="node">
<title>4</title>
<text text-anchor="start" x="117.5" y="-407.8" font-family="Arial" font-weight="bold" font-size="14.00"> &lt; 86.5</text>
<text text-anchor="start" x="67" y="-363.3" font-family="Arial" font-size="14.00"> &#160;&#160;&#160;</text>
<path fill="#ebebeb" stroke="transparent" d="M97,-335C97,-335 181,-335 181,-335 187,-335 193,-341 193,-347 193,-347 193,-387 193,-387 193,-393 187,-399 181,-399 181,-399 97,-399 97,-399 91,-399 85,-393 85,-387 85,-387 85,-347 85,-347 85,-341 91,-335 97,-335"/>
<text text-anchor="start" x="86" y="-396.4" font-family="Arial" font-size="2.00"> </text>
<text text-anchor="start" x="86" y="-390.4" font-family="Arial" font-size="7.00"> &#160;4</text>
<text text-anchor="start" x="100" y="-373.8" font-family="Arial" font-weight="bold" font-size="14.00">Mean: 5.774</text>
<text text-anchor="start" x="115.5" y="-356.8" font-family="Arial" font-weight="bold" font-size="14.00">n = 155</text>
<text text-anchor="start" x="137.5" y="-338.8" font-family="Arial" font-size="9.00"> </text>
<path fill="none" stroke="#333333" d="M97,-335C97,-335 181,-335 181,-335 187,-335 193,-341 193,-347 193,-347 193,-387 193,-387 193,-393 187,-399 181,-399 181,-399 97,-399 97,-399 91,-399 85,-393 85,-387 85,-387 85,-347 85,-347 85,-341 91,-335 97,-335"/>
<text text-anchor="start" x="195" y="-363.3" font-family="Arial" font-size="14.00"> &#160;&#160;&#160;</text>
<text text-anchor="start" x="81.5" y="-320.8" font-family="Arial" font-weight="bold" font-size="14.00">prev_168h_inflow</text>
</g>
<!-- 3&#45;&gt;4 -->
<g id="edge5" class="edge">
<title>3&#45;&gt;4</title>
<path fill="none" stroke="#888888" d="M243.14,-461.67C232.73,-452.3 221.9,-442.56 211.33,-433.05"/>
<polygon fill="#888888" stroke="#888888" points="213.46,-430.26 203.68,-426.18 208.78,-435.47 213.46,-430.26"/>
</g>
<!-- 7 -->
<g id="node7" class="node">
<title>7</title>
<text text-anchor="start" x="287" y="-407.8" font-family="Arial" font-weight="bold" font-size="14.00"> ≥ 86.5</text>
<path fill="#f8766d" fill-opacity="0.662745" stroke="transparent" d="M263,-335C263,-335 353,-335 353,-335 359,-335 365,-341 365,-347 365,-347 365,-387 365,-387 365,-393 359,-399 353,-399 353,-399 263,-399 263,-399 257,-399 251,-393 251,-387 251,-387 251,-347 251,-347 251,-341 257,-335 263,-335"/>
<text text-anchor="start" x="252" y="-396.4" font-family="Arial" font-size="2.00"> </text>
<text text-anchor="start" x="252" y="-390.4" font-family="Arial" font-size="7.00"> &#160;7</text>
<text text-anchor="start" x="266" y="-373.8" font-family="Arial" font-weight="bold" font-size="14.00">Predict 10.16</text>
<text text-anchor="start" x="292" y="-356.8" font-family="Arial" font-weight="bold" font-size="14.00">n = 7</text>
<text text-anchor="start" x="306.5" y="-338.8" font-family="Arial" font-size="9.00"> </text>
<path fill="none" stroke="#333333" d="M263,-335C263,-335 353,-335 353,-335 359,-335 365,-341 365,-347 365,-347 365,-387 365,-387 365,-393 359,-399 353,-399 353,-399 263,-399 263,-399 257,-399 251,-393 251,-387 251,-387 251,-347 251,-347 251,-341 257,-335 263,-335"/>
<text text-anchor="start" x="306" y="-320.8" font-family="Arial" font-weight="bold" font-size="14.00"> </text>
</g>
<!-- 3&#45;&gt;7 -->
<g id="edge6" class="edge">
<title>3&#45;&gt;7</title>
<path fill="none" stroke="#888888" d="M308,-461.67C308,-453.39 308,-444.83 308,-436.38"/>
<polygon fill="#888888" stroke="#888888" points="311.5,-436.18 308,-426.18 304.5,-436.18 311.5,-436.18"/>
</g>
<!-- 9 -->
<g id="node10" class="node">
<title>9</title>
<text text-anchor="start" x="448.5" y="-407.8" font-family="Arial" font-weight="bold" font-size="14.00"> &lt; 86</text>
<path fill="#f8766d" fill-opacity="0.717647" stroke="transparent" d="M419,-335C419,-335 509,-335 509,-335 515,-335 521,-341 521,-347 521,-347 521,-387 521,-387 521,-393 515,-399 509,-399 509,-399 419,-399 419,-399 413,-399 407,-393 407,-387 407,-387 407,-347 407,-347 407,-341 413,-335 419,-335"/>
<text text-anchor="start" x="408" y="-396.4" font-family="Arial" font-size="2.00"> </text>
<text text-anchor="start" x="408" y="-390.4" font-family="Arial" font-size="7.00"> &#160;9</text>
<text text-anchor="start" x="422" y="-373.8" font-family="Arial" font-weight="bold" font-size="14.00">Predict 8.735</text>
<text text-anchor="start" x="440.5" y="-356.8" font-family="Arial" font-weight="bold" font-size="14.00">n = 189</text>
<text text-anchor="start" x="462.5" y="-338.8" font-family="Arial" font-size="9.00"> </text>
<path fill="none" stroke="#333333" d="M419,-335C419,-335 509,-335 509,-335 515,-335 521,-341 521,-347 521,-347 521,-387 521,-387 521,-393 515,-399 509,-399 509,-399 419,-399 419,-399 413,-399 407,-393 407,-387 407,-387 407,-347 407,-347 407,-341 413,-335 419,-335"/>
<text text-anchor="start" x="462" y="-320.8" font-family="Arial" font-weight="bold" font-size="14.00"> </text>
</g>
<!-- 8&#45;&gt;9 -->
<g id="edge9" class="edge">
<title>8&#45;&gt;9</title>
<path fill="none" stroke="#888888" d="M510.22,-461.67C505.96,-453.03 501.54,-444.07 497.19,-435.27"/>
<polygon fill="#888888" stroke="#888888" points="500.27,-433.6 492.71,-426.18 493.99,-436.69 500.27,-433.6"/>
</g>
<!-- 10 -->
<g id="node11" class="node">
<title>10</title>
<text text-anchor="start" x="604.5" y="-407.8" font-family="Arial" font-weight="bold" font-size="14.00"> ≥ 86</text>
<path fill="#f8766d" fill-opacity="0.572549" stroke="transparent" d="M575,-335C575,-335 665,-335 665,-335 671,-335 677,-341 677,-347 677,-347 677,-387 677,-387 677,-393 671,-399 665,-399 665,-399 575,-399 575,-399 569,-399 563,-393 563,-387 563,-387 563,-347 563,-347 563,-341 569,-335 575,-335"/>
<text text-anchor="start" x="564" y="-396.4" font-family="Arial" font-size="2.00"> </text>
<text text-anchor="start" x="564" y="-390.4" font-family="Arial" font-size="7.00"> &#160;10</text>
<text text-anchor="start" x="578" y="-373.8" font-family="Arial" font-weight="bold" font-size="14.00">Predict 12.48</text>
<text text-anchor="start" x="604" y="-356.8" font-family="Arial" font-weight="bold" font-size="14.00">n = 6</text>
<text text-anchor="start" x="618.5" y="-338.8" font-family="Arial" font-size="9.00"> </text>
<path fill="none" stroke="#333333" d="M575,-335C575,-335 665,-335 665,-335 671,-335 677,-341 677,-347 677,-347 677,-387 677,-387 677,-393 671,-399 665,-399 665,-399 575,-399 575,-399 569,-399 563,-393 563,-387 563,-387 563,-347 563,-347 563,-341 569,-335 575,-335"/>
<text text-anchor="start" x="618" y="-320.8" font-family="Arial" font-weight="bold" font-size="14.00"> </text>
</g>
<!-- 8&#45;&gt;10 -->
<g id="edge10" class="edge">
<title>8&#45;&gt;10</title>
<path fill="none" stroke="#888888" d="M570.09,-461.67C574.69,-453.03 579.46,-444.07 584.15,-435.27"/>
<polygon fill="#888888" stroke="#888888" points="587.38,-436.65 589,-426.18 581.21,-433.36 587.38,-436.65"/>
</g>
<!-- 5 -->
<g id="node8" class="node">
<title>5</title>
<text text-anchor="start" x="40" y="-253.8" font-family="Arial" font-weight="bold" font-size="14.00"> &lt; 4.425</text>
<path fill="#f8766d" fill-opacity="0.874510" stroke="transparent" d="M24,-181C24,-181 106,-181 106,-181 112,-181 118,-187 118,-193 118,-193 118,-233 118,-233 118,-239 112,-245 106,-245 106,-245 24,-245 24,-245 18,-245 12,-239 12,-233 12,-233 12,-193 12,-193 12,-187 18,-181 24,-181"/>
<text text-anchor="start" x="13" y="-242.4" font-family="Arial" font-size="2.00"> </text>
<text text-anchor="start" x="13" y="-236.4" font-family="Arial" font-size="7.00"> &#160;5</text>
<text text-anchor="start" x="27" y="-219.8" font-family="Arial" font-weight="bold" font-size="14.00">Predict 4.53</text>
<text text-anchor="start" x="45" y="-202.8" font-family="Arial" font-weight="bold" font-size="14.00">n = 60</text>
<text text-anchor="start" x="63.5" y="-184.8" font-family="Arial" font-size="9.00"> </text>
<path fill="none" stroke="#333333" d="M24,-181C24,-181 106,-181 106,-181 112,-181 118,-187 118,-193 118,-193 118,-233 118,-233 118,-239 112,-245 106,-245 106,-245 24,-245 24,-245 18,-245 12,-239 12,-233 12,-233 12,-193 12,-193 12,-187 18,-181 24,-181"/>
<text text-anchor="start" x="63" y="-166.8" font-family="Arial" font-weight="bold" font-size="14.00"> </text>
</g>
<!-- 4&#45;&gt;5 -->
<g id="edge7" class="edge">
<title>4&#45;&gt;5</title>
<path fill="none" stroke="#888888" d="M110.6,-307.67C106.4,-299.03 102.03,-290.07 97.75,-281.27"/>
<polygon fill="#888888" stroke="#888888" points="100.85,-279.64 93.32,-272.18 94.55,-282.7 100.85,-279.64"/>
</g>
<!-- 6 -->
<g id="node9" class="node">
<title>6</title>
<text text-anchor="start" x="188.5" y="-253.8" font-family="Arial" font-weight="bold" font-size="14.00"> ≥ 4.425</text>
<path fill="#f8766d" fill-opacity="0.800000" stroke="transparent" d="M172,-181C172,-181 254,-181 254,-181 260,-181 266,-187 266,-193 266,-193 266,-233 266,-233 266,-239 260,-245 254,-245 254,-245 172,-245 172,-245 166,-245 160,-239 160,-233 160,-233 160,-193 160,-193 160,-187 166,-181 172,-181"/>
<text text-anchor="start" x="161" y="-242.4" font-family="Arial" font-size="2.00"> </text>
<text text-anchor="start" x="161" y="-236.4" font-family="Arial" font-size="7.00"> &#160;6</text>
<text text-anchor="start" x="175" y="-219.8" font-family="Arial" font-weight="bold" font-size="14.00">Predict 6.56</text>
<text text-anchor="start" x="193" y="-202.8" font-family="Arial" font-weight="bold" font-size="14.00">n = 95</text>
<text text-anchor="start" x="211.5" y="-184.8" font-family="Arial" font-size="9.00"> </text>
<path fill="none" stroke="#333333" d="M172,-181C172,-181 254,-181 254,-181 260,-181 266,-187 266,-193 266,-193 266,-233 266,-233 266,-239 260,-245 254,-245 254,-245 172,-245 172,-245 166,-245 160,-239 160,-233 160,-233 160,-193 160,-193 160,-187 166,-181 172,-181"/>
<text text-anchor="start" x="211" y="-166.8" font-family="Arial" font-weight="bold" font-size="14.00"> </text>
</g>
<!-- 4&#45;&gt;6 -->
<g id="edge8" class="edge">
<title>4&#45;&gt;6</title>
<path fill="none" stroke="#888888" d="M167.4,-307.67C171.6,-299.03 175.97,-290.07 180.25,-281.27"/>
<polygon fill="#888888" stroke="#888888" points="183.45,-282.7 184.68,-272.18 177.15,-279.64 183.45,-282.7"/>
</g>
<!-- 13 -->
<g id="node14" class="node">
<title>13</title>
<text text-anchor="start" x="758.5" y="-407.8" font-family="Arial" font-weight="bold" font-size="14.00"> &lt; 2.5</text>
<path fill="#f8766d" fill-opacity="0.376471" stroke="transparent" d="M731,-335C731,-335 821,-335 821,-335 827,-335 833,-341 833,-347 833,-347 833,-387 833,-387 833,-393 827,-399 821,-399 821,-399 731,-399 731,-399 725,-399 719,-393 719,-387 719,-387 719,-347 719,-347 719,-341 725,-335 731,-335"/>
<text text-anchor="start" x="720" y="-396.4" font-family="Arial" font-size="2.00"> </text>
<text text-anchor="start" x="720" y="-390.4" font-family="Arial" font-size="7.00"> &#160;13</text>
<text text-anchor="start" x="734" y="-373.8" font-family="Arial" font-weight="bold" font-size="14.00">Predict 17.75</text>
<text text-anchor="start" x="760" y="-356.8" font-family="Arial" font-weight="bold" font-size="14.00">n = 8</text>
<text text-anchor="start" x="774.5" y="-338.8" font-family="Arial" font-size="9.00"> </text>
<path fill="none" stroke="#333333" d="M731,-335C731,-335 821,-335 821,-335 827,-335 833,-341 833,-347 833,-347 833,-387 833,-387 833,-393 827,-399 821,-399 821,-399 731,-399 731,-399 725,-399 719,-393 719,-387 719,-387 719,-347 719,-347 719,-341 725,-335 731,-335"/>
<text text-anchor="start" x="774" y="-320.8" font-family="Arial" font-weight="bold" font-size="14.00"> </text>
</g>
<!-- 12&#45;&gt;13 -->
<g id="edge13" class="edge">
<title>12&#45;&gt;13</title>
<path fill="none" stroke="#888888" d="M824.07,-461.67C819.63,-453.03 815.04,-444.07 810.52,-435.27"/>
<polygon fill="#888888" stroke="#888888" points="813.53,-433.48 805.85,-426.18 807.31,-436.67 813.53,-433.48"/>
</g>
<!-- 14 -->
<g id="node15" class="node">
<title>14</title>
<text text-anchor="start" x="915" y="-407.8" font-family="Arial" font-weight="bold" font-size="14.00"> ≥ 2.5</text>
<path fill="#f8766d" fill-opacity="0.866667" stroke="transparent" d="M887,-335C887,-335 977,-335 977,-335 983,-335 989,-341 989,-347 989,-347 989,-387 989,-387 989,-393 983,-399 977,-399 977,-399 887,-399 887,-399 881,-399 875,-393 875,-387 875,-387 875,-347 875,-347 875,-341 881,-335 887,-335"/>
<text text-anchor="start" x="876" y="-396.4" font-family="Arial" font-size="2.00"> </text>
<text text-anchor="start" x="876" y="-390.4" font-family="Arial" font-size="7.00"> &#160;14</text>
<text text-anchor="start" x="890" y="-373.8" font-family="Arial" font-weight="bold" font-size="14.00">Predict 4.734</text>
<text text-anchor="start" x="912" y="-356.8" font-family="Arial" font-weight="bold" font-size="14.00">n = 26</text>
<text text-anchor="start" x="930.5" y="-338.8" font-family="Arial" font-size="9.00"> </text>
<path fill="none" stroke="#333333" d="M887,-335C887,-335 977,-335 977,-335 983,-335 989,-341 989,-347 989,-347 989,-387 989,-387 989,-393 983,-399 977,-399 977,-399 887,-399 887,-399 881,-399 875,-393 875,-387 875,-387 875,-347 875,-347 875,-341 881,-335 887,-335"/>
<text text-anchor="start" x="930" y="-320.8" font-family="Arial" font-weight="bold" font-size="14.00"> </text>
</g>
<!-- 12&#45;&gt;14 -->
<g id="edge14" class="edge">
<title>12&#45;&gt;14</title>
<path fill="none" stroke="#888888" d="M883.93,-461.67C888.37,-453.03 892.96,-444.07 897.48,-435.27"/>
<polygon fill="#888888" stroke="#888888" points="900.69,-436.67 902.15,-426.18 894.47,-433.48 900.69,-436.67"/>
</g>
<!-- 16 -->
<g id="node16" class="node">
<title>16</title>
<text text-anchor="start" x="1063.5" y="-407.8" font-family="Arial" font-weight="bold" font-size="14.00"> &lt; 14.5</text>
<path fill="#ebebeb" stroke="transparent" d="M1043,-335C1043,-335 1127,-335 1127,-335 1133,-335 1139,-341 1139,-347 1139,-347 1139,-387 1139,-387 1139,-393 1133,-399 1127,-399 1127,-399 1043,-399 1043,-399 1037,-399 1031,-393 1031,-387 1031,-387 1031,-347 1031,-347 1031,-341 1037,-335 1043,-335"/>
<text text-anchor="start" x="1032" y="-396.4" font-family="Arial" font-size="2.00"> </text>
<text text-anchor="start" x="1032" y="-390.4" font-family="Arial" font-size="7.00"> &#160;16</text>
<text text-anchor="start" x="1046" y="-373.8" font-family="Arial" font-weight="bold" font-size="14.00">Mean: 10.77</text>
<text text-anchor="start" x="1061.5" y="-356.8" font-family="Arial" font-weight="bold" font-size="14.00">n = 184</text>
<text text-anchor="start" x="1083.5" y="-338.8" font-family="Arial" font-size="9.00"> </text>
<path fill="none" stroke="#333333" d="M1043,-335C1043,-335 1127,-335 1127,-335 1133,-335 1139,-341 1139,-347 1139,-347 1139,-387 1139,-387 1139,-393 1133,-399 1127,-399 1127,-399 1043,-399 1043,-399 1037,-399 1031,-393 1031,-387 1031,-387 1031,-347 1031,-347 1031,-341 1037,-335 1043,-335"/>
<text text-anchor="start" x="1056" y="-320.8" font-family="Arial" font-weight="bold" font-size="14.00">air_temp</text>
</g>
<!-- 15&#45;&gt;16 -->
<g id="edge15" class="edge">
<title>15&#45;&gt;16</title>
<path fill="none" stroke="#888888" d="M1085,-461.67C1085,-453.39 1085,-444.83 1085,-436.38"/>
<polygon fill="#888888" stroke="#888888" points="1088.5,-436.18 1085,-426.18 1081.5,-436.18 1088.5,-436.18"/>
</g>
<!-- 23 -->
<g id="node17" class="node">
<title>23</title>
<text text-anchor="start" x="1371.5" y="-407.8" font-family="Arial" font-weight="bold" font-size="14.00"> ≥ 14.5</text>
<path fill="#ebebeb" stroke="transparent" d="M1351,-335C1351,-335 1434,-335 1434,-335 1440,-335 1446,-341 1446,-347 1446,-347 1446,-387 1446,-387 1446,-393 1440,-399 1434,-399 1434,-399 1351,-399 1351,-399 1345,-399 1339,-393 1339,-387 1339,-387 1339,-347 1339,-347 1339,-341 1345,-335 1351,-335"/>
<text text-anchor="start" x="1340" y="-396.4" font-family="Arial" font-size="2.00"> </text>
<text text-anchor="start" x="1340" y="-390.4" font-family="Arial" font-size="7.00"> &#160;23</text>
<text text-anchor="start" x="1354" y="-373.8" font-family="Arial" font-weight="bold" font-size="14.00">Mean: 9.117</text>
<text text-anchor="start" x="1372.5" y="-356.8" font-family="Arial" font-weight="bold" font-size="14.00">n = 97</text>
<text text-anchor="start" x="1391" y="-338.8" font-family="Arial" font-size="9.00"> </text>
<path fill="none" stroke="#333333" d="M1351,-335C1351,-335 1434,-335 1434,-335 1440,-335 1446,-341 1446,-347 1446,-347 1446,-387 1446,-387 1446,-393 1440,-399 1434,-399 1434,-399 1351,-399 1351,-399 1345,-399 1339,-393 1339,-387 1339,-387 1339,-347 1339,-347 1339,-341 1345,-335 1351,-335"/>
<text text-anchor="start" x="1363.5" y="-320.8" font-family="Arial" font-weight="bold" font-size="14.00">air_temp</text>
</g>
<!-- 15&#45;&gt;23 -->
<g id="edge16" class="edge">
<title>15&#45;&gt;23</title>
<path fill="none" stroke="#888888" d="M1147.13,-489.24C1196.22,-464.94 1264.91,-430.93 1317.05,-405.11"/>
<polygon fill="#888888" stroke="#888888" points="1318.84,-408.13 1326.25,-400.55 1315.74,-401.85 1318.84,-408.13"/>
</g>
<!-- 17 -->
<g id="node18" class="node">
<title>17</title>
<text text-anchor="start" x="826" y="-253.8" font-family="Arial" font-weight="bold" font-size="14.00"> &lt; 19.35</text>
<path fill="#ebebeb" stroke="transparent" d="M809,-181C809,-181 893,-181 893,-181 899,-181 905,-187 905,-193 905,-193 905,-233 905,-233 905,-239 899,-245 893,-245 893,-245 809,-245 809,-245 803,-245 797,-239 797,-233 797,-233 797,-193 797,-193 797,-187 803,-181 809,-181"/>
<text text-anchor="start" x="798" y="-242.4" font-family="Arial" font-size="2.00"> </text>
<text text-anchor="start" x="798" y="-236.4" font-family="Arial" font-size="7.00"> &#160;17</text>
<text text-anchor="start" x="812" y="-219.8" font-family="Arial" font-weight="bold" font-size="14.00">Mean: 10.04</text>
<text text-anchor="start" x="828" y="-202.8" font-family="Arial" font-weight="bold" font-size="14.00">n = 111</text>
<text text-anchor="start" x="849.5" y="-184.8" font-family="Arial" font-size="9.00"> </text>
<path fill="none" stroke="#333333" d="M809,-181C809,-181 893,-181 893,-181 899,-181 905,-187 905,-193 905,-193 905,-233 905,-233 905,-239 899,-245 893,-245 893,-245 809,-245 809,-245 803,-245 797,-239 797,-233 797,-233 797,-193 797,-193 797,-187 803,-181 809,-181"/>
<text text-anchor="start" x="808.5" y="-166.8" font-family="Arial" font-weight="bold" font-size="14.00">day_of_week</text>
</g>
<!-- 16&#45;&gt;17 -->
<g id="edge17" class="edge">
<title>16&#45;&gt;17</title>
<path fill="none" stroke="#888888" d="M1018.88,-323.05C989.98,-304.28 955.92,-282.16 926.07,-262.76"/>
<polygon fill="#888888" stroke="#888888" points="927.65,-259.62 917.36,-257.1 923.84,-265.49 927.65,-259.62"/>
</g>
<!-- 20 -->
<g id="node19" class="node">
<title>20</title>
<text text-anchor="start" x="1061" y="-253.8" font-family="Arial" font-weight="bold" font-size="14.00"> ≥ 19.35</text>
<path fill="#ebebeb" stroke="transparent" d="M1044,-181C1044,-181 1127,-181 1127,-181 1133,-181 1139,-187 1139,-193 1139,-193 1139,-233 1139,-233 1139,-239 1133,-245 1127,-245 1127,-245 1044,-245 1044,-245 1038,-245 1032,-239 1032,-233 1032,-233 1032,-193 1032,-193 1032,-187 1038,-181 1044,-181"/>
<text text-anchor="start" x="1033" y="-242.4" font-family="Arial" font-size="2.00"> </text>
<text text-anchor="start" x="1033" y="-236.4" font-family="Arial" font-size="7.00"> &#160;20</text>
<text text-anchor="start" x="1047" y="-219.8" font-family="Arial" font-weight="bold" font-size="14.00">Mean: 11.89</text>
<text text-anchor="start" x="1065.5" y="-202.8" font-family="Arial" font-weight="bold" font-size="14.00">n = 73</text>
<text text-anchor="start" x="1084" y="-184.8" font-family="Arial" font-size="9.00"> </text>
<path fill="none" stroke="#333333" d="M1044,-181C1044,-181 1127,-181 1127,-181 1133,-181 1139,-187 1139,-193 1139,-193 1139,-233 1139,-233 1139,-239 1133,-245 1127,-245 1127,-245 1044,-245 1044,-245 1038,-245 1032,-239 1032,-233 1032,-233 1032,-193 1032,-193 1032,-187 1038,-181 1044,-181"/>
<text text-anchor="start" x="1052.5" y="-166.8" font-family="Arial" font-weight="bold" font-size="14.00">air_humid</text>
</g>
<!-- 16&#45;&gt;20 -->
<g id="edge18" class="edge">
<title>16&#45;&gt;20</title>
<path fill="none" stroke="#888888" d="M1085,-307.67C1085,-299.39 1085,-290.83 1085,-282.38"/>
<polygon fill="#888888" stroke="#888888" points="1088.5,-282.18 1085,-272.18 1081.5,-282.18 1088.5,-282.18"/>
</g>
<!-- 24 -->
<g id="node24" class="node">
<title>24</title>
<text text-anchor="start" x="1367" y="-253.8" font-family="Arial" font-weight="bold" font-size="14.00"> &lt; 18.55</text>
<path fill="#ebebeb" stroke="transparent" d="M1350,-181C1350,-181 1434,-181 1434,-181 1440,-181 1446,-187 1446,-193 1446,-193 1446,-233 1446,-233 1446,-239 1440,-245 1434,-245 1434,-245 1350,-245 1350,-245 1344,-245 1338,-239 1338,-233 1338,-233 1338,-193 1338,-193 1338,-187 1344,-181 1350,-181"/>
<text text-anchor="start" x="1339" y="-242.4" font-family="Arial" font-size="2.00"> </text>
<text text-anchor="start" x="1339" y="-236.4" font-family="Arial" font-size="7.00"> &#160;24</text>
<text text-anchor="start" x="1353" y="-219.8" font-family="Arial" font-weight="bold" font-size="14.00">Mean: 6.629</text>
<text text-anchor="start" x="1372" y="-202.8" font-family="Arial" font-weight="bold" font-size="14.00">n = 22</text>
<text text-anchor="start" x="1390.5" y="-184.8" font-family="Arial" font-size="9.00"> </text>
<path fill="none" stroke="#333333" d="M1350,-181C1350,-181 1434,-181 1434,-181 1440,-181 1446,-187 1446,-193 1446,-193 1446,-233 1446,-233 1446,-239 1440,-245 1434,-245 1434,-245 1350,-245 1350,-245 1344,-245 1338,-239 1338,-233 1338,-233 1338,-193 1338,-193 1338,-187 1344,-181 1350,-181"/>
<text text-anchor="start" x="1363" y="-166.8" font-family="Arial" font-weight="bold" font-size="14.00">air_temp</text>
</g>
<!-- 23&#45;&gt;24 -->
<g id="edge23" class="edge">
<title>23&#45;&gt;24</title>
<path fill="none" stroke="#888888" d="M1392,-307.67C1392,-299.39 1392,-290.83 1392,-282.38"/>
<polygon fill="#888888" stroke="#888888" points="1395.5,-282.18 1392,-272.18 1388.5,-282.18 1395.5,-282.18"/>
</g>
<!-- 27 -->
<g id="node25" class="node">
<title>27</title>
<text text-anchor="start" x="1606.5" y="-253.8" font-family="Arial" font-weight="bold" font-size="14.00"> ≥ 18.55</text>
<text text-anchor="start" x="1559" y="-209.3" font-family="Arial" font-size="14.00"> &#160;&#160;&#160;</text>
<path fill="#ebebeb" stroke="transparent" d="M1589,-181C1589,-181 1673,-181 1673,-181 1679,-181 1685,-187 1685,-193 1685,-193 1685,-233 1685,-233 1685,-239 1679,-245 1673,-245 1673,-245 1589,-245 1589,-245 1583,-245 1577,-239 1577,-233 1577,-233 1577,-193 1577,-193 1577,-187 1583,-181 1589,-181"/>
<text text-anchor="start" x="1578" y="-242.4" font-family="Arial" font-size="2.00"> </text>
<text text-anchor="start" x="1578" y="-236.4" font-family="Arial" font-size="7.00"> &#160;27</text>
<text text-anchor="start" x="1592" y="-219.8" font-family="Arial" font-weight="bold" font-size="14.00">Mean: 9.847</text>
<text text-anchor="start" x="1611" y="-202.8" font-family="Arial" font-weight="bold" font-size="14.00">n = 75</text>
<text text-anchor="start" x="1629.5" y="-184.8" font-family="Arial" font-size="9.00"> </text>
<path fill="none" stroke="#333333" d="M1589,-181C1589,-181 1673,-181 1673,-181 1679,-181 1685,-187 1685,-193 1685,-193 1685,-233 1685,-233 1685,-239 1679,-245 1673,-245 1673,-245 1589,-245 1589,-245 1583,-245 1577,-239 1577,-233 1577,-233 1577,-193 1577,-193 1577,-187 1583,-181 1589,-181"/>
<text text-anchor="start" x="1687" y="-209.3" font-family="Arial" font-size="14.00"> &#160;&#160;&#160;</text>
<text text-anchor="start" x="1573.5" y="-166.8" font-family="Arial" font-weight="bold" font-size="14.00">prev_168h_inflow</text>
</g>
<!-- 23&#45;&gt;27 -->
<g id="edge24" class="edge">
<title>23&#45;&gt;27</title>
<path fill="none" stroke="#888888" d="M1457.62,-324.26C1483.17,-308.02 1512.87,-289.13 1540.4,-271.62"/>
<polygon fill="#888888" stroke="#888888" points="1542.31,-274.55 1548.87,-266.23 1538.55,-268.65 1542.31,-274.55"/>
</g>
<!-- 18 -->
<g id="node20" class="node">
<title>18</title>
<text text-anchor="start" x="677.5" y="-99.8" font-family="Arial" font-weight="bold" font-size="14.00"> &lt; 5.5</text>
<path fill="#f8766d" fill-opacity="0.647059" stroke="transparent" d="M650,-27C650,-27 740,-27 740,-27 746,-27 752,-33 752,-39 752,-39 752,-79 752,-79 752,-85 746,-91 740,-91 740,-91 650,-91 650,-91 644,-91 638,-85 638,-79 638,-79 638,-39 638,-39 638,-33 644,-27 650,-27"/>
<text text-anchor="start" x="639" y="-88.4" font-family="Arial" font-size="2.00"> </text>
<text text-anchor="start" x="639" y="-82.4" font-family="Arial" font-size="7.00"> &#160;18</text>
<text text-anchor="start" x="653" y="-65.8" font-family="Arial" font-weight="bold" font-size="14.00">Predict 10.54</text>
<text text-anchor="start" x="675" y="-48.8" font-family="Arial" font-weight="bold" font-size="14.00">n = 85</text>
<text text-anchor="start" x="693.5" y="-30.8" font-family="Arial" font-size="9.00"> </text>
<path fill="none" stroke="#333333" d="M650,-27C650,-27 740,-27 740,-27 746,-27 752,-33 752,-39 752,-39 752,-79 752,-79 752,-85 746,-91 740,-91 740,-91 650,-91 650,-91 644,-91 638,-85 638,-79 638,-79 638,-39 638,-39 638,-33 644,-27 650,-27"/>
<text text-anchor="start" x="693" y="-12.8" font-family="Arial" font-weight="bold" font-size="14.00"> </text>
</g>
<!-- 17&#45;&gt;18 -->
<g id="edge19" class="edge">
<title>17&#45;&gt;18</title>
<path fill="none" stroke="#888888" d="M791.13,-153.67C781.62,-144.39 771.72,-134.75 762.05,-125.33"/>
<polygon fill="#888888" stroke="#888888" points="764.31,-122.65 754.71,-118.18 759.43,-127.66 764.31,-122.65"/>
</g>
<!-- 19 -->
<g id="node21" class="node">
<title>19</title>
<text text-anchor="start" x="834" y="-99.8" font-family="Arial" font-weight="bold" font-size="14.00"> ≥ 5.5</text>
<path fill="#f8766d" fill-opacity="0.729412" stroke="transparent" d="M806,-27C806,-27 896,-27 896,-27 902,-27 908,-33 908,-39 908,-39 908,-79 908,-79 908,-85 902,-91 896,-91 896,-91 806,-91 806,-91 800,-91 794,-85 794,-79 794,-79 794,-39 794,-39 794,-33 800,-27 806,-27"/>
<text text-anchor="start" x="795" y="-88.4" font-family="Arial" font-size="2.00"> </text>
<text text-anchor="start" x="795" y="-82.4" font-family="Arial" font-size="7.00"> &#160;19</text>
<text text-anchor="start" x="809" y="-65.8" font-family="Arial" font-weight="bold" font-size="14.00">Predict 8.405</text>
<text text-anchor="start" x="831" y="-48.8" font-family="Arial" font-weight="bold" font-size="14.00">n = 26</text>
<text text-anchor="start" x="849.5" y="-30.8" font-family="Arial" font-size="9.00"> </text>
<path fill="none" stroke="#333333" d="M806,-27C806,-27 896,-27 896,-27 902,-27 908,-33 908,-39 908,-39 908,-79 908,-79 908,-85 902,-91 896,-91 896,-91 806,-91 806,-91 800,-91 794,-85 794,-79 794,-79 794,-39 794,-39 794,-33 800,-27 806,-27"/>
<text text-anchor="start" x="849" y="-12.8" font-family="Arial" font-weight="bold" font-size="14.00"> </text>
</g>
<!-- 17&#45;&gt;19 -->
<g id="edge20" class="edge">
<title>17&#45;&gt;19</title>
<path fill="none" stroke="#888888" d="M851,-153.67C851,-145.39 851,-136.83 851,-128.38"/>
<polygon fill="#888888" stroke="#888888" points="854.5,-128.18 851,-118.18 847.5,-128.18 854.5,-128.18"/>
</g>
<!-- 21 -->
<g id="node22" class="node">
<title>21</title>
<text text-anchor="start" x="986" y="-99.8" font-family="Arial" font-weight="bold" font-size="14.00"> &lt; 74.5</text>
<path fill="#f8766d" fill-opacity="0.623529" stroke="transparent" d="M963,-27C963,-27 1052,-27 1052,-27 1058,-27 1064,-33 1064,-39 1064,-39 1064,-79 1064,-79 1064,-85 1058,-91 1052,-91 1052,-91 963,-91 963,-91 957,-91 951,-85 951,-79 951,-79 951,-39 951,-39 951,-33 957,-27 963,-27"/>
<text text-anchor="start" x="952" y="-88.4" font-family="Arial" font-size="2.00"> </text>
<text text-anchor="start" x="952" y="-82.4" font-family="Arial" font-size="7.00"> &#160;21</text>
<text text-anchor="start" x="966" y="-65.8" font-family="Arial" font-weight="bold" font-size="14.00">Predict 11.16</text>
<text text-anchor="start" x="987.5" y="-48.8" font-family="Arial" font-weight="bold" font-size="14.00">n = 47</text>
<text text-anchor="start" x="1006" y="-30.8" font-family="Arial" font-size="9.00"> </text>
<path fill="none" stroke="#333333" d="M963,-27C963,-27 1052,-27 1052,-27 1058,-27 1064,-33 1064,-39 1064,-39 1064,-79 1064,-79 1064,-85 1058,-91 1052,-91 1052,-91 963,-91 963,-91 957,-91 951,-85 951,-79 951,-79 951,-39 951,-39 951,-33 957,-27 963,-27"/>
<text text-anchor="start" x="1005.5" y="-12.8" font-family="Arial" font-weight="bold" font-size="14.00"> </text>
</g>
<!-- 20&#45;&gt;21 -->
<g id="edge21" class="edge">
<title>20&#45;&gt;21</title>
<path fill="none" stroke="#888888" d="M1055.07,-153.67C1050.63,-145.03 1046.04,-136.07 1041.52,-127.27"/>
<polygon fill="#888888" stroke="#888888" points="1044.53,-125.48 1036.85,-118.18 1038.31,-128.67 1044.53,-125.48"/>
</g>
<!-- 22 -->
<g id="node23" class="node">
<title>22</title>
<text text-anchor="start" x="1142" y="-99.8" font-family="Arial" font-weight="bold" font-size="14.00"> ≥ 74.5</text>
<path fill="#f8766d" fill-opacity="0.545098" stroke="transparent" d="M1118,-27C1118,-27 1208,-27 1208,-27 1214,-27 1220,-33 1220,-39 1220,-39 1220,-79 1220,-79 1220,-85 1214,-91 1208,-91 1208,-91 1118,-91 1118,-91 1112,-91 1106,-85 1106,-79 1106,-79 1106,-39 1106,-39 1106,-33 1112,-27 1118,-27"/>
<text text-anchor="start" x="1107" y="-88.4" font-family="Arial" font-size="2.00"> </text>
<text text-anchor="start" x="1107" y="-82.4" font-family="Arial" font-size="7.00"> &#160;22</text>
<text text-anchor="start" x="1121" y="-65.8" font-family="Arial" font-weight="bold" font-size="14.00">Predict 13.22</text>
<text text-anchor="start" x="1143" y="-48.8" font-family="Arial" font-weight="bold" font-size="14.00">n = 26</text>
<text text-anchor="start" x="1161.5" y="-30.8" font-family="Arial" font-size="9.00"> </text>
<path fill="none" stroke="#333333" d="M1118,-27C1118,-27 1208,-27 1208,-27 1214,-27 1220,-33 1220,-39 1220,-39 1220,-79 1220,-79 1220,-85 1214,-91 1208,-91 1208,-91 1118,-91 1118,-91 1112,-91 1106,-85 1106,-79 1106,-79 1106,-39 1106,-39 1106,-33 1112,-27 1118,-27"/>
<text text-anchor="start" x="1161" y="-12.8" font-family="Arial" font-weight="bold" font-size="14.00"> </text>
</g>
<!-- 20&#45;&gt;22 -->
<g id="edge22" class="edge">
<title>20&#45;&gt;22</title>
<path fill="none" stroke="#888888" d="M1114.93,-153.67C1119.37,-145.03 1123.96,-136.07 1128.48,-127.27"/>
<polygon fill="#888888" stroke="#888888" points="1131.69,-128.67 1133.15,-118.18 1125.47,-125.48 1131.69,-128.67"/>
</g>
<!-- 25 -->
<g id="node26" class="node">
<title>25</title>
<text text-anchor="start" x="1294" y="-99.8" font-family="Arial" font-weight="bold" font-size="14.00"> &lt; 16.85</text>
<path fill="#f8766d" fill-opacity="0.466667" stroke="transparent" d="M1274,-27C1274,-27 1364,-27 1364,-27 1370,-27 1376,-33 1376,-39 1376,-39 1376,-79 1376,-79 1376,-85 1370,-91 1364,-91 1364,-91 1274,-91 1274,-91 1268,-91 1262,-85 1262,-79 1262,-79 1262,-39 1262,-39 1262,-33 1268,-27 1274,-27"/>
<text text-anchor="start" x="1263" y="-88.4" font-family="Arial" font-size="2.00"> </text>
<text text-anchor="start" x="1263" y="-82.4" font-family="Arial" font-size="7.00"> &#160;25</text>
<text text-anchor="start" x="1277" y="-65.8" font-family="Arial" font-weight="bold" font-size="14.00">Predict 15.31</text>
<text text-anchor="start" x="1303" y="-48.8" font-family="Arial" font-weight="bold" font-size="14.00">n = 1</text>
<text text-anchor="start" x="1317.5" y="-30.8" font-family="Arial" font-size="9.00"> </text>
<path fill="none" stroke="#333333" d="M1274,-27C1274,-27 1364,-27 1364,-27 1370,-27 1376,-33 1376,-39 1376,-39 1376,-79 1376,-79 1376,-85 1370,-91 1364,-91 1364,-91 1274,-91 1274,-91 1268,-91 1262,-85 1262,-79 1262,-79 1262,-39 1262,-39 1262,-33 1268,-27 1274,-27"/>
<text text-anchor="start" x="1317" y="-12.8" font-family="Arial" font-weight="bold" font-size="14.00"> </text>
</g>
<!-- 24&#45;&gt;25 -->
<g id="edge25" class="edge">
<title>24&#45;&gt;25</title>
<path fill="none" stroke="#888888" d="M1363.99,-153.67C1359.84,-145.03 1355.53,-136.07 1351.31,-127.27"/>
<polygon fill="#888888" stroke="#888888" points="1354.42,-125.68 1346.94,-118.18 1348.11,-128.71 1354.42,-125.68"/>
</g>
<!-- 26 -->
<g id="node27" class="node">
<title>26</title>
<text text-anchor="start" x="1450.5" y="-99.8" font-family="Arial" font-weight="bold" font-size="14.00"> ≥ 16.85</text>
<path fill="#f8766d" fill-opacity="0.811765" stroke="transparent" d="M1430,-27C1430,-27 1520,-27 1520,-27 1526,-27 1532,-33 1532,-39 1532,-39 1532,-79 1532,-79 1532,-85 1526,-91 1520,-91 1520,-91 1430,-91 1430,-91 1424,-91 1418,-85 1418,-79 1418,-79 1418,-39 1418,-39 1418,-33 1424,-27 1430,-27"/>
<text text-anchor="start" x="1419" y="-88.4" font-family="Arial" font-size="2.00"> </text>
<text text-anchor="start" x="1419" y="-82.4" font-family="Arial" font-size="7.00"> &#160;26</text>
<text text-anchor="start" x="1433" y="-65.8" font-family="Arial" font-weight="bold" font-size="14.00">Predict 6.215</text>
<text text-anchor="start" x="1455" y="-48.8" font-family="Arial" font-weight="bold" font-size="14.00">n = 21</text>
<text text-anchor="start" x="1473.5" y="-30.8" font-family="Arial" font-size="9.00"> </text>
<path fill="none" stroke="#333333" d="M1430,-27C1430,-27 1520,-27 1520,-27 1526,-27 1532,-33 1532,-39 1532,-39 1532,-79 1532,-79 1532,-85 1526,-91 1520,-91 1520,-91 1430,-91 1430,-91 1424,-91 1418,-85 1418,-79 1418,-79 1418,-39 1418,-39 1418,-33 1424,-27 1430,-27"/>
<text text-anchor="start" x="1473" y="-12.8" font-family="Arial" font-weight="bold" font-size="14.00"> </text>
</g>
<!-- 24&#45;&gt;26 -->
<g id="edge26" class="edge">
<title>24&#45;&gt;26</title>
<path fill="none" stroke="#888888" d="M1423.85,-153.67C1428.62,-144.94 1433.56,-135.88 1438.42,-126.99"/>
<polygon fill="#888888" stroke="#888888" points="1441.51,-128.63 1443.23,-118.18 1435.37,-125.28 1441.51,-128.63"/>
</g>
<!-- 28 -->
<g id="node28" class="node">
<title>28</title>
<text text-anchor="start" x="1606" y="-99.8" font-family="Arial" font-weight="bold" font-size="14.00"> &lt; 10.04</text>
<path fill="#f8766d" fill-opacity="0.631373" stroke="transparent" d="M1586,-27C1586,-27 1676,-27 1676,-27 1682,-27 1688,-33 1688,-39 1688,-39 1688,-79 1688,-79 1688,-85 1682,-91 1676,-91 1676,-91 1586,-91 1586,-91 1580,-91 1574,-85 1574,-79 1574,-79 1574,-39 1574,-39 1574,-33 1580,-27 1586,-27"/>
<text text-anchor="start" x="1575" y="-88.4" font-family="Arial" font-size="2.00"> </text>
<text text-anchor="start" x="1575" y="-82.4" font-family="Arial" font-size="7.00"> &#160;28</text>
<text text-anchor="start" x="1589" y="-65.8" font-family="Arial" font-weight="bold" font-size="14.00">Predict 10.99</text>
<text text-anchor="start" x="1611" y="-48.8" font-family="Arial" font-weight="bold" font-size="14.00">n = 40</text>
<text text-anchor="start" x="1629.5" y="-30.8" font-family="Arial" font-size="9.00"> </text>
<path fill="none" stroke="#333333" d="M1586,-27C1586,-27 1676,-27 1676,-27 1682,-27 1688,-33 1688,-39 1688,-39 1688,-79 1688,-79 1688,-85 1682,-91 1676,-91 1676,-91 1586,-91 1586,-91 1580,-91 1574,-85 1574,-79 1574,-79 1574,-39 1574,-39 1574,-33 1580,-27 1586,-27"/>
<text text-anchor="start" x="1629" y="-12.8" font-family="Arial" font-weight="bold" font-size="14.00"> </text>
</g>
<!-- 27&#45;&gt;28 -->
<g id="edge27" class="edge">
<title>27&#45;&gt;28</title>
<path fill="none" stroke="#888888" d="M1631,-153.67C1631,-145.39 1631,-136.83 1631,-128.38"/>
<polygon fill="#888888" stroke="#888888" points="1634.5,-128.18 1631,-118.18 1627.5,-128.18 1634.5,-128.18"/>
</g>
<!-- 29 -->
<g id="node29" class="node">
<title>29</title>
<text text-anchor="start" x="1762.5" y="-99.8" font-family="Arial" font-weight="bold" font-size="14.00"> ≥ 10.04</text>
<path fill="#f8766d" fill-opacity="0.721569" stroke="transparent" d="M1742,-27C1742,-27 1832,-27 1832,-27 1838,-27 1844,-33 1844,-39 1844,-39 1844,-79 1844,-79 1844,-85 1838,-91 1832,-91 1832,-91 1742,-91 1742,-91 1736,-91 1730,-85 1730,-79 1730,-79 1730,-39 1730,-39 1730,-33 1736,-27 1742,-27"/>
<text text-anchor="start" x="1731" y="-88.4" font-family="Arial" font-size="2.00"> </text>
<text text-anchor="start" x="1731" y="-82.4" font-family="Arial" font-size="7.00"> &#160;29</text>
<text text-anchor="start" x="1745" y="-65.8" font-family="Arial" font-weight="bold" font-size="14.00">Predict 8.539</text>
<text text-anchor="start" x="1767" y="-48.8" font-family="Arial" font-weight="bold" font-size="14.00">n = 35</text>
<text text-anchor="start" x="1785.5" y="-30.8" font-family="Arial" font-size="9.00"> </text>
<path fill="none" stroke="#333333" d="M1742,-27C1742,-27 1832,-27 1832,-27 1838,-27 1844,-33 1844,-39 1844,-39 1844,-79 1844,-79 1844,-85 1838,-91 1832,-91 1832,-91 1742,-91 1742,-91 1736,-91 1730,-85 1730,-79 1730,-79 1730,-39 1730,-39 1730,-33 1736,-27 1742,-27"/>
<text text-anchor="start" x="1785" y="-12.8" font-family="Arial" font-weight="bold" font-size="14.00"> </text>
</g>
<!-- 27&#45;&gt;29 -->
<g id="edge28" class="edge">
<title>27&#45;&gt;29</title>
<path fill="none" stroke="#888888" d="M1690.87,-153.67C1700.38,-144.39 1710.28,-134.75 1719.95,-125.33"/>
<polygon fill="#888888" stroke="#888888" points="1722.57,-127.66 1727.29,-118.18 1717.69,-122.65 1722.57,-127.66"/>
</g>
</g>
</svg>
