<?xml version="1.0" encoding="UTF-8" standalone="no"?>
<!DOCTYPE svg PUBLIC "-//W3C//DTD SVG 1.1//EN"
 "http://www.w3.org/Graphics/SVG/1.1/DTD/svg11.dtd">
<!-- Generated by graphviz version 2.50.0 (20211204.2007)
 -->
<!-- Pages: 1 -->
<svg width="2158pt" height="742pt"
 viewBox="0.00 0.00 2158.00 742.00" xmlns="http://www.w3.org/2000/svg" xmlns:xlink="http://www.w3.org/1999/xlink">
<g id="graph0" class="graph" transform="scale(1 1) rotate(0) translate(4 738)">
<polygon fill="white" stroke="transparent" points="-4,4 -4,-738 2154,-738 2154,4 -4,4"/>
<!-- 1 -->
<g id="node1" class="node">
<title>1</title>
<text text-anchor="start" x="953" y="-715.8" font-family="Arial" font-weight="bold" font-size="14.00"> </text>
<text text-anchor="start" x="883" y="-671.3" font-family="Arial" font-size="14.00"> &#160;&#160;&#160;</text>
<path fill="#ebebeb" stroke="transparent" d="M913,-643C913,-643 997,-643 997,-643 1003,-643 1009,-649 1009,-655 1009,-655 1009,-695 1009,-695 1009,-701 1003,-707 997,-707 997,-707 913,-707 913,-707 907,-707 901,-701 901,-695 901,-695 901,-655 901,-655 901,-649 907,-643 913,-643"/>
<text text-anchor="start" x="902" y="-704.4" font-family="Arial" font-size="2.00"> </text>
<text text-anchor="start" x="902" y="-698.4" font-family="Arial" font-size="7.00"> &#160;1</text>
<text text-anchor="start" x="916" y="-681.8" font-family="Arial" font-weight="bold" font-size="14.00">Mean: 3.256</text>
<text text-anchor="start" x="931.5" y="-664.8" font-family="Arial" font-weight="bold" font-size="14.00">n = 168</text>
<text text-anchor="start" x="953.5" y="-646.8" font-family="Arial" font-size="9.00"> </text>
<path fill="none" stroke="#333333" d="M913,-643C913,-643 997,-643 997,-643 1003,-643 1009,-649 1009,-655 1009,-655 1009,-695 1009,-695 1009,-701 1003,-707 997,-707 997,-707 913,-707 913,-707 907,-707 901,-701 901,-695 901,-695 901,-655 901,-655 901,-649 907,-643 913,-643"/>
<text text-anchor="start" x="1011" y="-671.3" font-family="Arial" font-size="14.00"> &#160;&#160;&#160;</text>
<text text-anchor="start" x="897.5" y="-628.8" font-family="Arial" font-weight="bold" font-size="14.00">prev_168h_inflow</text>
</g>
<!-- 2 -->
<g id="node2" class="node">
<title>2</title>
<text text-anchor="start" x="584" y="-561.8" font-family="Arial" font-weight="bold" font-size="14.00"> &lt; 3.585</text>
<path fill="#ebebeb" stroke="transparent" d="M567,-489C567,-489 651,-489 651,-489 657,-489 663,-495 663,-501 663,-501 663,-541 663,-541 663,-547 657,-553 651,-553 651,-553 567,-553 567,-553 561,-553 555,-547 555,-541 555,-541 555,-501 555,-501 555,-495 561,-489 567,-489"/>
<text text-anchor="start" x="556" y="-550.4" font-family="Arial" font-size="2.00"> </text>
<text text-anchor="start" x="556" y="-544.4" font-family="Arial" font-size="7.00"> &#160;2</text>
<text text-anchor="start" x="570" y="-527.8" font-family="Arial" font-weight="bold" font-size="14.00">Mean: 2.455</text>
<text text-anchor="start" x="589" y="-510.8" font-family="Arial" font-weight="bold" font-size="14.00">n = 69</text>
<text text-anchor="start" x="607.5" y="-492.8" font-family="Arial" font-size="9.00"> </text>
<path fill="none" stroke="#333333" d="M567,-489C567,-489 651,-489 651,-489 657,-489 663,-495 663,-501 663,-501 663,-541 663,-541 663,-547 657,-553 651,-553 651,-553 567,-553 567,-553 561,-553 555,-547 555,-541 555,-541 555,-501 555,-501 555,-495 561,-489 567,-489"/>
<text text-anchor="start" x="594.5" y="-474.8" font-family="Arial" font-weight="bold" font-size="14.00">time</text>
</g>
<!-- 1&#45;&gt;2 -->
<g id="edge1" class="edge">
<title>1&#45;&gt;2</title>
<path fill="none" stroke="#888888" d="M872.56,-637.79C815.5,-612.72 740.13,-579.61 684.61,-555.22"/>
<polygon fill="#888888" stroke="#888888" points="685.74,-551.89 675.18,-551.07 682.93,-558.3 685.74,-551.89"/>
</g>
<!-- 15 -->
<g id="node3" class="node">
<title>15</title>
<text text-anchor="start" x="1198.5" y="-561.8" font-family="Arial" font-weight="bold" font-size="14.00"> ≥ 3.585</text>
<path fill="#ebebeb" stroke="transparent" d="M1181,-489C1181,-489 1265,-489 1265,-489 1271,-489 1277,-495 1277,-501 1277,-501 1277,-541 1277,-541 1277,-547 1271,-553 1265,-553 1265,-553 1181,-553 1181,-553 1175,-553 1169,-547 1169,-541 1169,-541 1169,-501 1169,-501 1169,-495 1175,-489 1181,-489"/>
<text text-anchor="start" x="1170" y="-550.4" font-family="Arial" font-size="2.00"> </text>
<text text-anchor="start" x="1170" y="-544.4" font-family="Arial" font-size="7.00"> &#160;15</text>
<text text-anchor="start" x="1184" y="-527.8" font-family="Arial" font-weight="bold" font-size="14.00">Mean: 3.814</text>
<text text-anchor="start" x="1203" y="-510.8" font-family="Arial" font-weight="bold" font-size="14.00">n = 99</text>
<text text-anchor="start" x="1221.5" y="-492.8" font-family="Arial" font-size="9.00"> </text>
<path fill="none" stroke="#333333" d="M1181,-489C1181,-489 1265,-489 1265,-489 1271,-489 1277,-495 1277,-501 1277,-501 1277,-541 1277,-541 1277,-547 1271,-553 1265,-553 1265,-553 1181,-553 1181,-553 1175,-553 1169,-547 1169,-541 1169,-541 1169,-501 1169,-501 1169,-495 1175,-489 1181,-489"/>
<text text-anchor="start" x="1208.5" y="-474.8" font-family="Arial" font-weight="bold" font-size="14.00">time</text>
</g>
<!-- 1&#45;&gt;15 -->
<g id="edge2" class="edge">
<title>1&#45;&gt;15</title>
<path fill="none" stroke="#888888" d="M1037.23,-627.36C1072.4,-607.41 1113.19,-584.28 1147.58,-564.78"/>
<polygon fill="#888888" stroke="#888888" points="1149.66,-567.62 1156.63,-559.64 1146.21,-561.53 1149.66,-567.62"/>
</g>
<!-- 3 -->
<g id="node4" class="node">
<title>3</title>
<text text-anchor="start" x="207.5" y="-407.8" font-family="Arial" font-weight="bold" font-size="14.00"> &lt; 5.5</text>
<path fill="#ebebeb" stroke="transparent" d="M183,-335C183,-335 267,-335 267,-335 273,-335 279,-341 279,-347 279,-347 279,-387 279,-387 279,-393 273,-399 267,-399 267,-399 183,-399 183,-399 177,-399 171,-393 171,-387 171,-387 171,-347 171,-347 171,-341 177,-335 183,-335"/>
<text text-anchor="start" x="172" y="-396.4" font-family="Arial" font-size="2.00"> </text>
<text text-anchor="start" x="172" y="-390.4" font-family="Arial" font-size="7.00"> &#160;3</text>
<text text-anchor="start" x="186" y="-373.8" font-family="Arial" font-weight="bold" font-size="14.00">Mean: 2.022</text>
<text text-anchor="start" x="205" y="-356.8" font-family="Arial" font-weight="bold" font-size="14.00">n = 42</text>
<text text-anchor="start" x="223.5" y="-338.8" font-family="Arial" font-size="9.00"> </text>
<path fill="none" stroke="#333333" d="M183,-335C183,-335 267,-335 267,-335 273,-335 279,-341 279,-347 279,-347 279,-387 279,-387 279,-393 273,-399 267,-399 267,-399 183,-399 183,-399 177,-399 171,-393 171,-387 171,-387 171,-347 171,-347 171,-341 177,-335 183,-335"/>
<text text-anchor="start" x="210.5" y="-320.8" font-family="Arial" font-weight="bold" font-size="14.00">time</text>
</g>
<!-- 2&#45;&gt;3 -->
<g id="edge3" class="edge">
<title>2&#45;&gt;3</title>
<path fill="none" stroke="#888888" d="M542.99,-493.87C475.57,-467.18 371.05,-425.81 300.42,-397.85"/>
<polygon fill="#888888" stroke="#888888" points="301.7,-394.6 291.11,-394.17 299.12,-401.1 301.7,-394.6"/>
</g>
<!-- 8 -->
<g id="node5" class="node">
<title>8</title>
<text text-anchor="start" x="592" y="-407.8" font-family="Arial" font-weight="bold" font-size="14.00"> ≥ 5.5</text>
<path fill="#ebebeb" stroke="transparent" d="M567,-335C567,-335 651,-335 651,-335 657,-335 663,-341 663,-347 663,-347 663,-387 663,-387 663,-393 657,-399 651,-399 651,-399 567,-399 567,-399 561,-399 555,-393 555,-387 555,-387 555,-347 555,-347 555,-341 561,-335 567,-335"/>
<text text-anchor="start" x="556" y="-396.4" font-family="Arial" font-size="2.00"> </text>
<text text-anchor="start" x="556" y="-390.4" font-family="Arial" font-size="7.00"> &#160;8</text>
<text text-anchor="start" x="570" y="-373.8" font-family="Arial" font-weight="bold" font-size="14.00">Mean: 3.129</text>
<text text-anchor="start" x="589" y="-356.8" font-family="Arial" font-weight="bold" font-size="14.00">n = 27</text>
<text text-anchor="start" x="607.5" y="-338.8" font-family="Arial" font-size="9.00"> </text>
<path fill="none" stroke="#333333" d="M567,-335C567,-335 651,-335 651,-335 657,-335 663,-341 663,-347 663,-347 663,-387 663,-387 663,-393 657,-399 651,-399 651,-399 567,-399 567,-399 561,-399 555,-393 555,-387 555,-387 555,-347 555,-347 555,-341 561,-335 567,-335"/>
<text text-anchor="start" x="580" y="-320.8" font-family="Arial" font-weight="bold" font-size="14.00">air_temp</text>
</g>
<!-- 2&#45;&gt;8 -->
<g id="edge4" class="edge">
<title>2&#45;&gt;8</title>
<path fill="none" stroke="#888888" d="M609,-461.67C609,-453.39 609,-444.83 609,-436.38"/>
<polygon fill="#888888" stroke="#888888" points="612.5,-436.18 609,-426.18 605.5,-436.18 612.5,-436.18"/>
</g>
<!-- 16 -->
<g id="node16" class="node">
<title>16</title>
<text text-anchor="start" x="1201.5" y="-407.8" font-family="Arial" font-weight="bold" font-size="14.00"> &lt; 10.5</text>
<path fill="#ebebeb" stroke="transparent" d="M1181,-335C1181,-335 1265,-335 1265,-335 1271,-335 1277,-341 1277,-347 1277,-347 1277,-387 1277,-387 1277,-393 1271,-399 1265,-399 1265,-399 1181,-399 1181,-399 1175,-399 1169,-393 1169,-387 1169,-387 1169,-347 1169,-347 1169,-341 1175,-335 1181,-335"/>
<text text-anchor="start" x="1170" y="-396.4" font-family="Arial" font-size="2.00"> </text>
<text text-anchor="start" x="1170" y="-390.4" font-family="Arial" font-size="7.00"> &#160;16</text>
<text text-anchor="start" x="1184" y="-373.8" font-family="Arial" font-weight="bold" font-size="14.00">Mean: 4.068</text>
<text text-anchor="start" x="1203" y="-356.8" font-family="Arial" font-weight="bold" font-size="14.00">n = 31</text>
<text text-anchor="start" x="1221.5" y="-338.8" font-family="Arial" font-size="9.00"> </text>
<path fill="none" stroke="#333333" d="M1181,-335C1181,-335 1265,-335 1265,-335 1271,-335 1277,-341 1277,-347 1277,-347 1277,-387 1277,-387 1277,-393 1271,-399 1265,-399 1265,-399 1181,-399 1181,-399 1175,-399 1169,-393 1169,-387 1169,-387 1169,-347 1169,-347 1169,-341 1175,-335 1181,-335"/>
<text text-anchor="start" x="1193.5" y="-320.8" font-family="Arial" font-weight="bold" font-size="14.00">day_type</text>
</g>
<!-- 15&#45;&gt;16 -->
<g id="edge15" class="edge">
<title>15&#45;&gt;16</title>
<path fill="none" stroke="#888888" d="M1223,-461.67C1223,-453.39 1223,-444.83 1223,-436.38"/>
<polygon fill="#888888" stroke="#888888" points="1226.5,-436.18 1223,-426.18 1219.5,-436.18 1226.5,-436.18"/>
</g>
<!-- 23 -->
<g id="node17" class="node">
<title>23</title>
<text text-anchor="start" x="1665" y="-407.8" font-family="Arial" font-weight="bold" font-size="14.00"> ≥ 10.5</text>
<path fill="#ebebeb" stroke="transparent" d="M1644,-335C1644,-335 1728,-335 1728,-335 1734,-335 1740,-341 1740,-347 1740,-347 1740,-387 1740,-387 1740,-393 1734,-399 1728,-399 1728,-399 1644,-399 1644,-399 1638,-399 1632,-393 1632,-387 1632,-387 1632,-347 1632,-347 1632,-341 1638,-335 1644,-335"/>
<text text-anchor="start" x="1633" y="-396.4" font-family="Arial" font-size="2.00"> </text>
<text text-anchor="start" x="1633" y="-390.4" font-family="Arial" font-size="7.00"> &#160;23</text>
<text text-anchor="start" x="1647" y="-373.8" font-family="Arial" font-weight="bold" font-size="14.00">Mean: 3.698</text>
<text text-anchor="start" x="1666" y="-356.8" font-family="Arial" font-weight="bold" font-size="14.00">n = 68</text>
<text text-anchor="start" x="1684.5" y="-338.8" font-family="Arial" font-size="9.00"> </text>
<path fill="none" stroke="#333333" d="M1644,-335C1644,-335 1728,-335 1728,-335 1734,-335 1740,-341 1740,-347 1740,-347 1740,-387 1740,-387 1740,-393 1734,-399 1728,-399 1728,-399 1644,-399 1644,-399 1638,-399 1632,-393 1632,-387 1632,-387 1632,-347 1632,-347 1632,-341 1638,-335 1644,-335"/>
<text text-anchor="start" x="1671.5" y="-320.8" font-family="Arial" font-weight="bold" font-size="14.00">time</text>
</g>
<!-- 15&#45;&gt;23 -->
<g id="edge16" class="edge">
<title>15&#45;&gt;23</title>
<path fill="none" stroke="#888888" d="M1289.34,-498.22C1374.26,-470.34 1521.05,-422.15 1610.27,-392.86"/>
<polygon fill="#888888" stroke="#888888" points="1611.38,-396.18 1619.79,-389.74 1609.19,-389.53 1611.38,-396.18"/>
</g>
<!-- 4 -->
<g id="node6" class="node">
<title>4</title>
<text text-anchor="start" x="54.5" y="-253.8" font-family="Arial" font-weight="bold" font-size="14.00"> &lt; 0.5</text>
<path fill="#f8766d" fill-opacity="0.827451" stroke="transparent" d="M27,-181C27,-181 117,-181 117,-181 123,-181 129,-187 129,-193 129,-193 129,-233 129,-233 129,-239 123,-245 117,-245 117,-245 27,-245 27,-245 21,-245 15,-239 15,-233 15,-233 15,-193 15,-193 15,-187 21,-181 27,-181"/>
<text text-anchor="start" x="16" y="-242.4" font-family="Arial" font-size="2.00"> </text>
<text text-anchor="start" x="16" y="-236.4" font-family="Arial" font-size="7.00"> &#160;4</text>
<text text-anchor="start" x="30" y="-219.8" font-family="Arial" font-weight="bold" font-size="14.00">Predict 2.223</text>
<text text-anchor="start" x="56" y="-202.8" font-family="Arial" font-weight="bold" font-size="14.00">n = 7</text>
<text text-anchor="start" x="70.5" y="-184.8" font-family="Arial" font-size="9.00"> </text>
<path fill="none" stroke="#333333" d="M27,-181C27,-181 117,-181 117,-181 123,-181 129,-187 129,-193 129,-193 129,-233 129,-233 129,-239 123,-245 117,-245 117,-245 27,-245 27,-245 21,-245 15,-239 15,-233 15,-233 15,-193 15,-193 15,-187 21,-181 27,-181"/>
<text text-anchor="start" x="70" y="-166.8" font-family="Arial" font-weight="bold" font-size="14.00"> </text>
</g>
<!-- 3&#45;&gt;4 -->
<g id="edge5" class="edge">
<title>3&#45;&gt;4</title>
<path fill="none" stroke="#888888" d="M166.28,-307.67C156.95,-298.39 147.24,-288.75 137.76,-279.33"/>
<polygon fill="#888888" stroke="#888888" points="140.12,-276.74 130.56,-272.18 135.19,-281.71 140.12,-276.74"/>
</g>
<!-- 5 -->
<g id="node7" class="node">
<title>5</title>
<text text-anchor="start" x="208" y="-253.8" font-family="Arial" font-weight="bold" font-size="14.00"> ≥ 0.5</text>
<path fill="#ebebeb" stroke="transparent" d="M183,-181C183,-181 267,-181 267,-181 273,-181 279,-187 279,-193 279,-193 279,-233 279,-233 279,-239 273,-245 267,-245 267,-245 183,-245 183,-245 177,-245 171,-239 171,-233 171,-233 171,-193 171,-193 171,-187 177,-181 183,-181"/>
<text text-anchor="start" x="172" y="-242.4" font-family="Arial" font-size="2.00"> </text>
<text text-anchor="start" x="172" y="-236.4" font-family="Arial" font-size="7.00"> &#160;5</text>
<text text-anchor="start" x="186" y="-219.8" font-family="Arial" font-weight="bold" font-size="14.00">Mean: 1.982</text>
<text text-anchor="start" x="205" y="-202.8" font-family="Arial" font-weight="bold" font-size="14.00">n = 35</text>
<text text-anchor="start" x="223.5" y="-184.8" font-family="Arial" font-size="9.00"> </text>
<path fill="none" stroke="#333333" d="M183,-181C183,-181 267,-181 267,-181 273,-181 279,-187 279,-193 279,-193 279,-233 279,-233 279,-239 273,-245 267,-245 267,-245 183,-245 183,-245 177,-245 171,-239 171,-233 171,-233 171,-193 171,-193 171,-187 177,-181 183,-181"/>
<text text-anchor="start" x="210.5" y="-166.8" font-family="Arial" font-weight="bold" font-size="14.00">time</text>
</g>
<!-- 3&#45;&gt;5 -->
<g id="edge6" class="edge">
<title>3&#45;&gt;5</title>
<path fill="none" stroke="#888888" d="M225,-307.67C225,-299.39 225,-290.83 225,-282.38"/>
<polygon fill="#888888" stroke="#888888" points="228.5,-282.18 225,-272.18 221.5,-282.18 228.5,-282.18"/>
</g>
<!-- 9 -->
<g id="node10" class="node">
<title>9</title>
<text text-anchor="start" x="508" y="-253.8" font-family="Arial" font-weight="bold" font-size="14.00"> &lt; 16.15</text>
<path fill="#ebebeb" stroke="transparent" d="M491,-181C491,-181 575,-181 575,-181 581,-181 587,-187 587,-193 587,-193 587,-233 587,-233 587,-239 581,-245 575,-245 575,-245 491,-245 491,-245 485,-245 479,-239 479,-233 479,-233 479,-193 479,-193 479,-187 485,-181 491,-181"/>
<text text-anchor="start" x="480" y="-242.4" font-family="Arial" font-size="2.00"> </text>
<text text-anchor="start" x="480" y="-236.4" font-family="Arial" font-size="7.00"> &#160;9</text>
<text text-anchor="start" x="494" y="-219.8" font-family="Arial" font-weight="bold" font-size="14.00">Mean: 3.293</text>
<text text-anchor="start" x="517" y="-202.8" font-family="Arial" font-weight="bold" font-size="14.00">n = 4</text>
<text text-anchor="start" x="531.5" y="-184.8" font-family="Arial" font-size="9.00"> </text>
<path fill="none" stroke="#333333" d="M491,-181C491,-181 575,-181 575,-181 581,-181 587,-187 587,-193 587,-193 587,-233 587,-233 587,-239 581,-245 575,-245 575,-245 491,-245 491,-245 485,-245 479,-239 479,-233 479,-233 479,-193 479,-193 479,-187 485,-181 491,-181"/>
<text text-anchor="start" x="518.5" y="-166.8" font-family="Arial" font-weight="bold" font-size="14.00">time</text>
</g>
<!-- 8&#45;&gt;9 -->
<g id="edge9" class="edge">
<title>8&#45;&gt;9</title>
<path fill="none" stroke="#888888" d="M579.83,-307.67C575.52,-299.03 571.04,-290.07 566.64,-281.27"/>
<polygon fill="#888888" stroke="#888888" points="569.69,-279.56 562.09,-272.18 563.43,-282.69 569.69,-279.56"/>
</g>
<!-- 12 -->
<g id="node11" class="node">
<title>12</title>
<text text-anchor="start" x="660.5" y="-253.8" font-family="Arial" font-weight="bold" font-size="14.00"> ≥ 16.15</text>
<path fill="#ebebeb" stroke="transparent" d="M643,-181C643,-181 727,-181 727,-181 733,-181 739,-187 739,-193 739,-193 739,-233 739,-233 739,-239 733,-245 727,-245 727,-245 643,-245 643,-245 637,-245 631,-239 631,-233 631,-233 631,-193 631,-193 631,-187 637,-181 643,-181"/>
<text text-anchor="start" x="632" y="-242.4" font-family="Arial" font-size="2.00"> </text>
<text text-anchor="start" x="632" y="-236.4" font-family="Arial" font-size="7.00"> &#160;12</text>
<text text-anchor="start" x="646" y="-219.8" font-family="Arial" font-weight="bold" font-size="14.00">Mean: 3.101</text>
<text text-anchor="start" x="665" y="-202.8" font-family="Arial" font-weight="bold" font-size="14.00">n = 23</text>
<text text-anchor="start" x="683.5" y="-184.8" font-family="Arial" font-size="9.00"> </text>
<path fill="none" stroke="#333333" d="M643,-181C643,-181 727,-181 727,-181 733,-181 739,-187 739,-193 739,-193 739,-233 739,-233 739,-239 733,-245 727,-245 727,-245 643,-245 643,-245 637,-245 631,-239 631,-233 631,-233 631,-193 631,-193 631,-187 637,-181 643,-181"/>
<text text-anchor="start" x="670.5" y="-166.8" font-family="Arial" font-weight="bold" font-size="14.00">time</text>
</g>
<!-- 8&#45;&gt;12 -->
<g id="edge10" class="edge">
<title>8&#45;&gt;12</title>
<path fill="none" stroke="#888888" d="M638.17,-307.67C642.48,-299.03 646.96,-290.07 651.36,-281.27"/>
<polygon fill="#888888" stroke="#888888" points="654.57,-282.69 655.91,-272.18 648.31,-279.56 654.57,-282.69"/>
</g>
<!-- 6 -->
<g id="node8" class="node">
<title>6</title>
<text text-anchor="start" x="51.5" y="-99.8" font-family="Arial" font-weight="bold" font-size="14.00"> &lt; 4.5</text>
<path fill="#f8766d" fill-opacity="0.874510" stroke="transparent" d="M24,-27C24,-27 114,-27 114,-27 120,-27 126,-33 126,-39 126,-39 126,-79 126,-79 126,-85 120,-91 114,-91 114,-91 24,-91 24,-91 18,-91 12,-85 12,-79 12,-79 12,-39 12,-39 12,-33 18,-27 24,-27"/>
<text text-anchor="start" x="13" y="-88.4" font-family="Arial" font-size="2.00"> </text>
<text text-anchor="start" x="13" y="-82.4" font-family="Arial" font-size="7.00"> &#160;6</text>
<text text-anchor="start" x="27" y="-65.8" font-family="Arial" font-weight="bold" font-size="14.00">Predict 1.927</text>
<text text-anchor="start" x="49" y="-48.8" font-family="Arial" font-weight="bold" font-size="14.00">n = 28</text>
<text text-anchor="start" x="67.5" y="-30.8" font-family="Arial" font-size="9.00"> </text>
<path fill="none" stroke="#333333" d="M24,-27C24,-27 114,-27 114,-27 120,-27 126,-33 126,-39 126,-39 126,-79 126,-79 126,-85 120,-91 114,-91 114,-91 24,-91 24,-91 18,-91 12,-85 12,-79 12,-79 12,-39 12,-39 12,-33 18,-27 24,-27"/>
<text text-anchor="start" x="67" y="-12.8" font-family="Arial" font-weight="bold" font-size="14.00"> </text>
</g>
<!-- 5&#45;&gt;6 -->
<g id="edge7" class="edge">
<title>5&#45;&gt;6</title>
<path fill="none" stroke="#888888" d="M165.13,-153.67C155.62,-144.39 145.72,-134.75 136.05,-125.33"/>
<polygon fill="#888888" stroke="#888888" points="138.31,-122.65 128.71,-118.18 133.43,-127.66 138.31,-122.65"/>
</g>
<!-- 7 -->
<g id="node9" class="node">
<title>7</title>
<text text-anchor="start" x="208" y="-99.8" font-family="Arial" font-weight="bold" font-size="14.00"> ≥ 4.5</text>
<path fill="#f8766d" fill-opacity="0.831373" stroke="transparent" d="M180,-27C180,-27 270,-27 270,-27 276,-27 282,-33 282,-39 282,-39 282,-79 282,-79 282,-85 276,-91 270,-91 270,-91 180,-91 180,-91 174,-91 168,-85 168,-79 168,-79 168,-39 168,-39 168,-33 174,-27 180,-27"/>
<text text-anchor="start" x="169" y="-88.4" font-family="Arial" font-size="2.00"> </text>
<text text-anchor="start" x="169" y="-82.4" font-family="Arial" font-size="7.00"> &#160;7</text>
<text text-anchor="start" x="183" y="-65.8" font-family="Arial" font-weight="bold" font-size="14.00">Predict 2.199</text>
<text text-anchor="start" x="209" y="-48.8" font-family="Arial" font-weight="bold" font-size="14.00">n = 7</text>
<text text-anchor="start" x="223.5" y="-30.8" font-family="Arial" font-size="9.00"> </text>
<path fill="none" stroke="#333333" d="M180,-27C180,-27 270,-27 270,-27 276,-27 282,-33 282,-39 282,-39 282,-79 282,-79 282,-85 276,-91 270,-91 270,-91 180,-91 180,-91 174,-91 168,-85 168,-79 168,-79 168,-39 168,-39 168,-33 174,-27 180,-27"/>
<text text-anchor="start" x="223" y="-12.8" font-family="Arial" font-weight="bold" font-size="14.00"> </text>
</g>
<!-- 5&#45;&gt;7 -->
<g id="edge8" class="edge">
<title>5&#45;&gt;7</title>
<path fill="none" stroke="#888888" d="M225,-153.67C225,-145.39 225,-136.83 225,-128.38"/>
<polygon fill="#888888" stroke="#888888" points="228.5,-128.18 225,-118.18 221.5,-128.18 228.5,-128.18"/>
</g>
<!-- 10 -->
<g id="node12" class="node">
<title>10</title>
<text text-anchor="start" x="363.5" y="-99.8" font-family="Arial" font-weight="bold" font-size="14.00"> &lt; 6.5</text>
<path fill="#f8766d" fill-opacity="0.745098" stroke="transparent" d="M336,-27C336,-27 426,-27 426,-27 432,-27 438,-33 438,-39 438,-39 438,-79 438,-79 438,-85 432,-91 426,-91 426,-91 336,-91 336,-91 330,-91 324,-85 324,-79 324,-79 324,-39 324,-39 324,-33 330,-27 336,-27"/>
<text text-anchor="start" x="325" y="-88.4" font-family="Arial" font-size="2.00"> </text>
<text text-anchor="start" x="325" y="-82.4" font-family="Arial" font-size="7.00"> &#160;10</text>
<text text-anchor="start" x="339" y="-65.8" font-family="Arial" font-weight="bold" font-size="14.00">Predict 2.755</text>
<text text-anchor="start" x="365" y="-48.8" font-family="Arial" font-weight="bold" font-size="14.00">n = 2</text>
<text text-anchor="start" x="379.5" y="-30.8" font-family="Arial" font-size="9.00"> </text>
<path fill="none" stroke="#333333" d="M336,-27C336,-27 426,-27 426,-27 432,-27 438,-33 438,-39 438,-39 438,-79 438,-79 438,-85 432,-91 426,-91 426,-91 336,-91 336,-91 330,-91 324,-85 324,-79 324,-79 324,-39 324,-39 324,-33 330,-27 336,-27"/>
<text text-anchor="start" x="379" y="-12.8" font-family="Arial" font-weight="bold" font-size="14.00"> </text>
</g>
<!-- 9&#45;&gt;10 -->
<g id="edge11" class="edge">
<title>9&#45;&gt;10</title>
<path fill="none" stroke="#888888" d="M474.67,-153.67C465.39,-144.39 455.75,-134.75 446.33,-125.33"/>
<polygon fill="#888888" stroke="#888888" points="448.72,-122.77 439.18,-118.18 443.77,-127.72 448.72,-122.77"/>
</g>
<!-- 11 -->
<g id="node13" class="node">
<title>11</title>
<text text-anchor="start" x="516" y="-99.8" font-family="Arial" font-weight="bold" font-size="14.00"> ≥ 6.5</text>
<path fill="#f8766d" fill-opacity="0.580392" stroke="transparent" d="M492,-27C492,-27 574,-27 574,-27 580,-27 586,-33 586,-39 586,-39 586,-79 586,-79 586,-85 580,-91 574,-91 574,-91 492,-91 492,-91 486,-91 480,-85 480,-79 480,-79 480,-39 480,-39 480,-33 486,-27 492,-27"/>
<text text-anchor="start" x="481" y="-88.4" font-family="Arial" font-size="2.00"> </text>
<text text-anchor="start" x="481" y="-82.4" font-family="Arial" font-size="7.00"> &#160;11</text>
<text text-anchor="start" x="495" y="-65.8" font-family="Arial" font-weight="bold" font-size="14.00">Predict 3.83</text>
<text text-anchor="start" x="517" y="-48.8" font-family="Arial" font-weight="bold" font-size="14.00">n = 2</text>
<text text-anchor="start" x="531.5" y="-30.8" font-family="Arial" font-size="9.00"> </text>
<path fill="none" stroke="#333333" d="M492,-27C492,-27 574,-27 574,-27 580,-27 586,-33 586,-39 586,-39 586,-79 586,-79 586,-85 580,-91 574,-91 574,-91 492,-91 492,-91 486,-91 480,-85 480,-79 480,-79 480,-39 480,-39 480,-33 486,-27 492,-27"/>
<text text-anchor="start" x="531" y="-12.8" font-family="Arial" font-weight="bold" font-size="14.00"> </text>
</g>
<!-- 9&#45;&gt;11 -->
<g id="edge12" class="edge">
<title>9&#45;&gt;11</title>
<path fill="none" stroke="#888888" d="M533,-153.67C533,-145.39 533,-136.83 533,-128.38"/>
<polygon fill="#888888" stroke="#888888" points="536.5,-128.18 533,-118.18 529.5,-128.18 536.5,-128.18"/>
</g>
<!-- 13 -->
<g id="node14" class="node">
<title>13</title>
<text text-anchor="start" x="663.5" y="-99.8" font-family="Arial" font-weight="bold" font-size="14.00"> &lt; 22.5</text>
<path fill="#f8766d" fill-opacity="0.658824" stroke="transparent" d="M640,-27C640,-27 730,-27 730,-27 736,-27 742,-33 742,-39 742,-39 742,-79 742,-79 742,-85 736,-91 730,-91 730,-91 640,-91 640,-91 634,-91 628,-85 628,-79 628,-79 628,-39 628,-39 628,-33 634,-27 640,-27"/>
<text text-anchor="start" x="629" y="-88.4" font-family="Arial" font-size="2.00"> </text>
<text text-anchor="start" x="629" y="-82.4" font-family="Arial" font-size="7.00"> &#160;13</text>
<text text-anchor="start" x="643" y="-65.8" font-family="Arial" font-weight="bold" font-size="14.00">Predict 3.321</text>
<text text-anchor="start" x="665" y="-48.8" font-family="Arial" font-weight="bold" font-size="14.00">n = 16</text>
<text text-anchor="start" x="683.5" y="-30.8" font-family="Arial" font-size="9.00"> </text>
<path fill="none" stroke="#333333" d="M640,-27C640,-27 730,-27 730,-27 736,-27 742,-33 742,-39 742,-39 742,-79 742,-79 742,-85 736,-91 730,-91 730,-91 640,-91 640,-91 634,-91 628,-85 628,-79 628,-79 628,-39 628,-39 628,-33 634,-27 640,-27"/>
<text text-anchor="start" x="683" y="-12.8" font-family="Arial" font-weight="bold" font-size="14.00"> </text>
</g>
<!-- 12&#45;&gt;13 -->
<g id="edge13" class="edge">
<title>12&#45;&gt;13</title>
<path fill="none" stroke="#888888" d="M685,-153.67C685,-145.39 685,-136.83 685,-128.38"/>
<polygon fill="#888888" stroke="#888888" points="688.5,-128.18 685,-118.18 681.5,-128.18 688.5,-128.18"/>
</g>
<!-- 14 -->
<g id="node15" class="node">
<title>14</title>
<text text-anchor="start" x="820" y="-99.8" font-family="Arial" font-weight="bold" font-size="14.00"> ≥ 22.5</text>
<path fill="#f8766d" fill-opacity="0.772549" stroke="transparent" d="M796,-27C796,-27 886,-27 886,-27 892,-27 898,-33 898,-39 898,-39 898,-79 898,-79 898,-85 892,-91 886,-91 886,-91 796,-91 796,-91 790,-91 784,-85 784,-79 784,-79 784,-39 784,-39 784,-33 790,-27 796,-27"/>
<text text-anchor="start" x="785" y="-88.4" font-family="Arial" font-size="2.00"> </text>
<text text-anchor="start" x="785" y="-82.4" font-family="Arial" font-size="7.00"> &#160;14</text>
<text text-anchor="start" x="799" y="-65.8" font-family="Arial" font-weight="bold" font-size="14.00">Predict 2.597</text>
<text text-anchor="start" x="825" y="-48.8" font-family="Arial" font-weight="bold" font-size="14.00">n = 7</text>
<text text-anchor="start" x="839.5" y="-30.8" font-family="Arial" font-size="9.00"> </text>
<path fill="none" stroke="#333333" d="M796,-27C796,-27 886,-27 886,-27 892,-27 898,-33 898,-39 898,-39 898,-79 898,-79 898,-85 892,-91 886,-91 886,-91 796,-91 796,-91 790,-91 784,-85 784,-79 784,-79 784,-39 784,-39 784,-33 790,-27 796,-27"/>
<text text-anchor="start" x="839" y="-12.8" font-family="Arial" font-weight="bold" font-size="14.00"> </text>
</g>
<!-- 12&#45;&gt;14 -->
<g id="edge14" class="edge">
<title>12&#45;&gt;14</title>
<path fill="none" stroke="#888888" d="M744.87,-153.67C754.38,-144.39 764.28,-134.75 773.95,-125.33"/>
<polygon fill="#888888" stroke="#888888" points="776.57,-127.66 781.29,-118.18 771.69,-122.65 776.57,-127.66"/>
</g>
<!-- 17 -->
<g id="node18" class="node">
<title>17</title>
<text text-anchor="start" x="1116.5" y="-253.8" font-family="Arial" font-weight="bold" font-size="14.00"> &lt; 0.5</text>
<text text-anchor="start" x="1062" y="-209.3" font-family="Arial" font-size="14.00"> &#160;&#160;&#160;</text>
<path fill="#ebebeb" stroke="transparent" d="M1092,-181C1092,-181 1176,-181 1176,-181 1182,-181 1188,-187 1188,-193 1188,-193 1188,-233 1188,-233 1188,-239 1182,-245 1176,-245 1176,-245 1092,-245 1092,-245 1086,-245 1080,-239 1080,-233 1080,-233 1080,-193 1080,-193 1080,-187 1086,-181 1092,-181"/>
<text text-anchor="start" x="1081" y="-242.4" font-family="Arial" font-size="2.00"> </text>
<text text-anchor="start" x="1081" y="-236.4" font-family="Arial" font-size="7.00"> &#160;17</text>
<text text-anchor="start" x="1095" y="-219.8" font-family="Arial" font-weight="bold" font-size="14.00">Mean: 4.893</text>
<text text-anchor="start" x="1118" y="-202.8" font-family="Arial" font-weight="bold" font-size="14.00">n = 6</text>
<text text-anchor="start" x="1132.5" y="-184.8" font-family="Arial" font-size="9.00"> </text>
<path fill="none" stroke="#333333" d="M1092,-181C1092,-181 1176,-181 1176,-181 1182,-181 1188,-187 1188,-193 1188,-193 1188,-233 1188,-233 1188,-239 1182,-245 1176,-245 1176,-245 1092,-245 1092,-245 1086,-245 1080,-239 1080,-233 1080,-233 1080,-193 1080,-193 1080,-187 1086,-181 1092,-181"/>
<text text-anchor="start" x="1190" y="-209.3" font-family="Arial" font-size="14.00"> &#160;&#160;&#160;</text>
<text text-anchor="start" x="1076.5" y="-166.8" font-family="Arial" font-weight="bold" font-size="14.00">prev_168h_inflow</text>
</g>
<!-- 16&#45;&gt;17 -->
<g id="edge17" class="edge">
<title>16&#45;&gt;17</title>
<path fill="none" stroke="#888888" d="M1188.84,-307.67C1183.73,-298.94 1178.43,-289.88 1173.23,-280.99"/>
<polygon fill="#888888" stroke="#888888" points="1176.14,-279.04 1168.06,-272.18 1170.1,-282.57 1176.14,-279.04"/>
</g>
<!-- 20 -->
<g id="node19" class="node">
<title>20</title>
<text text-anchor="start" x="1295" y="-253.8" font-family="Arial" font-weight="bold" font-size="14.00"> ≥ 0.5</text>
<text text-anchor="start" x="1244" y="-209.3" font-family="Arial" font-size="14.00"> &#160;&#160;&#160;</text>
<path fill="#ebebeb" stroke="transparent" d="M1274,-181C1274,-181 1350,-181 1350,-181 1356,-181 1362,-187 1362,-193 1362,-193 1362,-233 1362,-233 1362,-239 1356,-245 1350,-245 1350,-245 1274,-245 1274,-245 1268,-245 1262,-239 1262,-233 1262,-233 1262,-193 1262,-193 1262,-187 1268,-181 1274,-181"/>
<text text-anchor="start" x="1263" y="-242.4" font-family="Arial" font-size="2.00"> </text>
<text text-anchor="start" x="1263" y="-236.4" font-family="Arial" font-size="7.00"> &#160;20</text>
<text text-anchor="start" x="1277" y="-219.8" font-family="Arial" font-weight="bold" font-size="14.00">Mean: 3.87</text>
<text text-anchor="start" x="1292" y="-202.8" font-family="Arial" font-weight="bold" font-size="14.00">n = 25</text>
<text text-anchor="start" x="1310.5" y="-184.8" font-family="Arial" font-size="9.00"> </text>
<path fill="none" stroke="#333333" d="M1274,-181C1274,-181 1350,-181 1350,-181 1356,-181 1362,-187 1362,-193 1362,-193 1362,-233 1362,-233 1362,-239 1356,-245 1350,-245 1350,-245 1274,-245 1274,-245 1268,-245 1262,-239 1262,-233 1262,-233 1262,-193 1262,-193 1262,-187 1268,-181 1274,-181"/>
<text text-anchor="start" x="1364" y="-209.3" font-family="Arial" font-size="14.00"> &#160;&#160;&#160;</text>
<text text-anchor="start" x="1254.5" y="-166.8" font-family="Arial" font-weight="bold" font-size="14.00">prev_168h_inflow</text>
</g>
<!-- 16&#45;&gt;20 -->
<g id="edge18" class="edge">
<title>16&#45;&gt;20</title>
<path fill="none" stroke="#888888" d="M1257.16,-307.67C1262.27,-298.94 1267.57,-289.88 1272.77,-280.99"/>
<polygon fill="#888888" stroke="#888888" points="1275.9,-282.57 1277.94,-272.18 1269.86,-279.04 1275.9,-282.57"/>
</g>
<!-- 24 -->
<g id="node24" class="node">
<title>24</title>
<text text-anchor="start" x="1664.5" y="-253.8" font-family="Arial" font-weight="bold" font-size="14.00"> &lt; 17.5</text>
<path fill="#ebebeb" stroke="transparent" d="M1644,-181C1644,-181 1728,-181 1728,-181 1734,-181 1740,-187 1740,-193 1740,-193 1740,-233 1740,-233 1740,-239 1734,-245 1728,-245 1728,-245 1644,-245 1644,-245 1638,-245 1632,-239 1632,-233 1632,-233 1632,-193 1632,-193 1632,-187 1638,-181 1644,-181"/>
<text text-anchor="start" x="1633" y="-242.4" font-family="Arial" font-size="2.00"> </text>
<text text-anchor="start" x="1633" y="-236.4" font-family="Arial" font-size="7.00"> &#160;24</text>
<text text-anchor="start" x="1647" y="-219.8" font-family="Arial" font-weight="bold" font-size="14.00">Mean: 3.447</text>
<text text-anchor="start" x="1666" y="-202.8" font-family="Arial" font-weight="bold" font-size="14.00">n = 35</text>
<text text-anchor="start" x="1684.5" y="-184.8" font-family="Arial" font-size="9.00"> </text>
<path fill="none" stroke="#333333" d="M1644,-181C1644,-181 1728,-181 1728,-181 1734,-181 1740,-187 1740,-193 1740,-193 1740,-233 1740,-233 1740,-239 1734,-245 1728,-245 1728,-245 1644,-245 1644,-245 1638,-245 1632,-239 1632,-233 1632,-233 1632,-193 1632,-193 1632,-187 1638,-181 1644,-181"/>
<text text-anchor="start" x="1643.5" y="-166.8" font-family="Arial" font-weight="bold" font-size="14.00">day_of_week</text>
</g>
<!-- 23&#45;&gt;24 -->
<g id="edge23" class="edge">
<title>23&#45;&gt;24</title>
<path fill="none" stroke="#888888" d="M1686,-307.67C1686,-299.39 1686,-290.83 1686,-282.38"/>
<polygon fill="#888888" stroke="#888888" points="1689.5,-282.18 1686,-272.18 1682.5,-282.18 1689.5,-282.18"/>
</g>
<!-- 27 -->
<g id="node25" class="node">
<title>27</title>
<text text-anchor="start" x="1904" y="-253.8" font-family="Arial" font-weight="bold" font-size="14.00"> ≥ 17.5</text>
<text text-anchor="start" x="1853" y="-209.3" font-family="Arial" font-size="14.00"> &#160;&#160;&#160;</text>
<path fill="#ebebeb" stroke="transparent" d="M1883,-181C1883,-181 1967,-181 1967,-181 1973,-181 1979,-187 1979,-193 1979,-193 1979,-233 1979,-233 1979,-239 1973,-245 1967,-245 1967,-245 1883,-245 1883,-245 1877,-245 1871,-239 1871,-233 1871,-233 1871,-193 1871,-193 1871,-187 1877,-181 1883,-181"/>
<text text-anchor="start" x="1872" y="-242.4" font-family="Arial" font-size="2.00"> </text>
<text text-anchor="start" x="1872" y="-236.4" font-family="Arial" font-size="7.00"> &#160;27</text>
<text text-anchor="start" x="1886" y="-219.8" font-family="Arial" font-weight="bold" font-size="14.00">Mean: 3.964</text>
<text text-anchor="start" x="1905" y="-202.8" font-family="Arial" font-weight="bold" font-size="14.00">n = 33</text>
<text text-anchor="start" x="1923.5" y="-184.8" font-family="Arial" font-size="9.00"> </text>
<path fill="none" stroke="#333333" d="M1883,-181C1883,-181 1967,-181 1967,-181 1973,-181 1979,-187 1979,-193 1979,-193 1979,-233 1979,-233 1979,-239 1973,-245 1967,-245 1967,-245 1883,-245 1883,-245 1877,-245 1871,-239 1871,-233 1871,-233 1871,-193 1871,-193 1871,-187 1877,-181 1883,-181"/>
<text text-anchor="start" x="1981" y="-209.3" font-family="Arial" font-size="14.00"> &#160;&#160;&#160;</text>
<text text-anchor="start" x="1867.5" y="-166.8" font-family="Arial" font-weight="bold" font-size="14.00">prev_168h_inflow</text>
</g>
<!-- 23&#45;&gt;27 -->
<g id="edge24" class="edge">
<title>23&#45;&gt;27</title>
<path fill="none" stroke="#888888" d="M1752.26,-323.86C1777.56,-307.77 1806.87,-289.13 1834.08,-271.82"/>
<polygon fill="#888888" stroke="#888888" points="1836.27,-274.58 1842.83,-266.26 1832.52,-268.67 1836.27,-274.58"/>
</g>
<!-- 18 -->
<g id="node20" class="node">
<title>18</title>
<text text-anchor="start" x="968" y="-99.8" font-family="Arial" font-weight="bold" font-size="14.00"> &lt; 4.615</text>
<path fill="#f8766d" fill-opacity="0.454902" stroke="transparent" d="M952,-27C952,-27 1034,-27 1034,-27 1040,-27 1046,-33 1046,-39 1046,-39 1046,-79 1046,-79 1046,-85 1040,-91 1034,-91 1034,-91 952,-91 952,-91 946,-91 940,-85 940,-79 940,-79 940,-39 940,-39 940,-33 946,-27 952,-27"/>
<text text-anchor="start" x="941" y="-88.4" font-family="Arial" font-size="2.00"> </text>
<text text-anchor="start" x="941" y="-82.4" font-family="Arial" font-size="7.00"> &#160;18</text>
<text text-anchor="start" x="955" y="-65.8" font-family="Arial" font-weight="bold" font-size="14.00">Predict 4.64</text>
<text text-anchor="start" x="977" y="-48.8" font-family="Arial" font-weight="bold" font-size="14.00">n = 3</text>
<text text-anchor="start" x="991.5" y="-30.8" font-family="Arial" font-size="9.00"> </text>
<path fill="none" stroke="#333333" d="M952,-27C952,-27 1034,-27 1034,-27 1040,-27 1046,-33 1046,-39 1046,-39 1046,-79 1046,-79 1046,-85 1040,-91 1034,-91 1034,-91 952,-91 952,-91 946,-91 940,-85 940,-79 940,-79 940,-39 940,-39 940,-33 946,-27 952,-27"/>
<text text-anchor="start" x="991" y="-12.8" font-family="Arial" font-weight="bold" font-size="14.00"> </text>
</g>
<!-- 17&#45;&gt;18 -->
<g id="edge19" class="edge">
<title>17&#45;&gt;18</title>
<path fill="none" stroke="#888888" d="M1079.89,-153.67C1071.37,-144.49 1062.52,-134.94 1053.86,-125.6"/>
<polygon fill="#888888" stroke="#888888" points="1056.33,-123.13 1046.97,-118.18 1051.2,-127.89 1056.33,-123.13"/>
</g>
<!-- 19 -->
<g id="node21" class="node">
<title>19</title>
<text text-anchor="start" x="1120.5" y="-99.8" font-family="Arial" font-weight="bold" font-size="14.00"> ≥ 4.615</text>
<path fill="#f8766d" fill-opacity="0.376471" stroke="transparent" d="M1100,-27C1100,-27 1190,-27 1190,-27 1196,-27 1202,-33 1202,-39 1202,-39 1202,-79 1202,-79 1202,-85 1196,-91 1190,-91 1190,-91 1100,-91 1100,-91 1094,-91 1088,-85 1088,-79 1088,-79 1088,-39 1088,-39 1088,-33 1094,-27 1100,-27"/>
<text text-anchor="start" x="1089" y="-88.4" font-family="Arial" font-size="2.00"> </text>
<text text-anchor="start" x="1089" y="-82.4" font-family="Arial" font-size="7.00"> &#160;19</text>
<text text-anchor="start" x="1103" y="-65.8" font-family="Arial" font-weight="bold" font-size="14.00">Predict 5.147</text>
<text text-anchor="start" x="1129" y="-48.8" font-family="Arial" font-weight="bold" font-size="14.00">n = 3</text>
<text text-anchor="start" x="1143.5" y="-30.8" font-family="Arial" font-size="9.00"> </text>
<path fill="none" stroke="#333333" d="M1100,-27C1100,-27 1190,-27 1190,-27 1196,-27 1202,-33 1202,-39 1202,-39 1202,-79 1202,-79 1202,-85 1196,-91 1190,-91 1190,-91 1100,-91 1100,-91 1094,-91 1088,-85 1088,-79 1088,-79 1088,-39 1088,-39 1088,-33 1094,-27 1100,-27"/>
<text text-anchor="start" x="1143" y="-12.8" font-family="Arial" font-weight="bold" font-size="14.00"> </text>
</g>
<!-- 17&#45;&gt;19 -->
<g id="edge20" class="edge">
<title>17&#45;&gt;19</title>
<path fill="none" stroke="#888888" d="M1138.22,-153.67C1138.82,-145.39 1139.44,-136.83 1140.05,-128.38"/>
<polygon fill="#888888" stroke="#888888" points="1143.56,-128.4 1140.79,-118.18 1136.58,-127.9 1143.56,-128.4"/>
</g>
<!-- 21 -->
<g id="node22" class="node">
<title>21</title>
<text text-anchor="start" x="1279.5" y="-99.8" font-family="Arial" font-weight="bold" font-size="14.00"> &lt; 4.46</text>
<path fill="#f8766d" fill-opacity="0.619608" stroke="transparent" d="M1256,-27C1256,-27 1346,-27 1346,-27 1352,-27 1358,-33 1358,-39 1358,-39 1358,-79 1358,-79 1358,-85 1352,-91 1346,-91 1346,-91 1256,-91 1256,-91 1250,-91 1244,-85 1244,-79 1244,-79 1244,-39 1244,-39 1244,-33 1250,-27 1256,-27"/>
<text text-anchor="start" x="1245" y="-88.4" font-family="Arial" font-size="2.00"> </text>
<text text-anchor="start" x="1245" y="-82.4" font-family="Arial" font-size="7.00"> &#160;21</text>
<text text-anchor="start" x="1259" y="-65.8" font-family="Arial" font-weight="bold" font-size="14.00">Predict 3.567</text>
<text text-anchor="start" x="1281.5" y="-48.8" font-family="Arial" font-weight="bold" font-size="14.00">n = 11</text>
<text text-anchor="start" x="1299.5" y="-30.8" font-family="Arial" font-size="9.00"> </text>
<path fill="none" stroke="#333333" d="M1256,-27C1256,-27 1346,-27 1346,-27 1352,-27 1358,-33 1358,-39 1358,-39 1358,-79 1358,-79 1358,-85 1352,-91 1346,-91 1346,-91 1256,-91 1256,-91 1250,-91 1244,-85 1244,-79 1244,-79 1244,-39 1244,-39 1244,-33 1250,-27 1256,-27"/>
<text text-anchor="start" x="1299" y="-12.8" font-family="Arial" font-weight="bold" font-size="14.00"> </text>
</g>
<!-- 20&#45;&gt;21 -->
<g id="edge21" class="edge">
<title>20&#45;&gt;21</title>
<path fill="none" stroke="#888888" d="M1307.78,-153.67C1307.18,-145.39 1306.56,-136.83 1305.95,-128.38"/>
<polygon fill="#888888" stroke="#888888" points="1309.42,-127.9 1305.21,-118.18 1302.44,-128.4 1309.42,-127.9"/>
</g>
<!-- 22 -->
<g id="node23" class="node">
<title>22</title>
<text text-anchor="start" x="1436" y="-99.8" font-family="Arial" font-weight="bold" font-size="14.00"> ≥ 4.46</text>
<path fill="#f8766d" fill-opacity="0.537255" stroke="transparent" d="M1412,-27C1412,-27 1502,-27 1502,-27 1508,-27 1514,-33 1514,-39 1514,-39 1514,-79 1514,-79 1514,-85 1508,-91 1502,-91 1502,-91 1412,-91 1412,-91 1406,-91 1400,-85 1400,-79 1400,-79 1400,-39 1400,-39 1400,-33 1406,-27 1412,-27"/>
<text text-anchor="start" x="1401" y="-88.4" font-family="Arial" font-size="2.00"> </text>
<text text-anchor="start" x="1401" y="-82.4" font-family="Arial" font-size="7.00"> &#160;22</text>
<text text-anchor="start" x="1415" y="-65.8" font-family="Arial" font-weight="bold" font-size="14.00">Predict 4.107</text>
<text text-anchor="start" x="1437" y="-48.8" font-family="Arial" font-weight="bold" font-size="14.00">n = 14</text>
<text text-anchor="start" x="1455.5" y="-30.8" font-family="Arial" font-size="9.00"> </text>
<path fill="none" stroke="#333333" d="M1412,-27C1412,-27 1502,-27 1502,-27 1508,-27 1514,-33 1514,-39 1514,-39 1514,-79 1514,-79 1514,-85 1508,-91 1502,-91 1502,-91 1412,-91 1412,-91 1406,-91 1400,-85 1400,-79 1400,-79 1400,-39 1400,-39 1400,-33 1406,-27 1412,-27"/>
<text text-anchor="start" x="1455" y="-12.8" font-family="Arial" font-weight="bold" font-size="14.00"> </text>
</g>
<!-- 20&#45;&gt;22 -->
<g id="edge22" class="edge">
<title>20&#45;&gt;22</title>
<path fill="none" stroke="#888888" d="M1367.65,-153.67C1376.41,-144.49 1385.51,-134.94 1394.42,-125.6"/>
<polygon fill="#888888" stroke="#888888" points="1397.13,-127.83 1401.5,-118.18 1392.07,-123 1397.13,-127.83"/>
</g>
<!-- 25 -->
<g id="node26" class="node">
<title>25</title>
<text text-anchor="start" x="1595.5" y="-99.8" font-family="Arial" font-weight="bold" font-size="14.00"> &lt; 5.5</text>
<path fill="#f8766d" fill-opacity="0.662745" stroke="transparent" d="M1568,-27C1568,-27 1658,-27 1658,-27 1664,-27 1670,-33 1670,-39 1670,-39 1670,-79 1670,-79 1670,-85 1664,-91 1658,-91 1658,-91 1568,-91 1568,-91 1562,-91 1556,-85 1556,-79 1556,-79 1556,-39 1556,-39 1556,-33 1562,-27 1568,-27"/>
<text text-anchor="start" x="1557" y="-88.4" font-family="Arial" font-size="2.00"> </text>
<text text-anchor="start" x="1557" y="-82.4" font-family="Arial" font-size="7.00"> &#160;25</text>
<text text-anchor="start" x="1571" y="-65.8" font-family="Arial" font-weight="bold" font-size="14.00">Predict 3.285</text>
<text text-anchor="start" x="1593" y="-48.8" font-family="Arial" font-weight="bold" font-size="14.00">n = 26</text>
<text text-anchor="start" x="1611.5" y="-30.8" font-family="Arial" font-size="9.00"> </text>
<path fill="none" stroke="#333333" d="M1568,-27C1568,-27 1658,-27 1658,-27 1664,-27 1670,-33 1670,-39 1670,-39 1670,-79 1670,-79 1670,-85 1664,-91 1658,-91 1658,-91 1568,-91 1568,-91 1562,-91 1556,-85 1556,-79 1556,-79 1556,-39 1556,-39 1556,-33 1562,-27 1568,-27"/>
<text text-anchor="start" x="1611" y="-12.8" font-family="Arial" font-weight="bold" font-size="14.00"> </text>
</g>
<!-- 24&#45;&gt;25 -->
<g id="edge25" class="edge">
<title>24&#45;&gt;25</title>
<path fill="none" stroke="#888888" d="M1657.99,-153.67C1653.84,-145.03 1649.53,-136.07 1645.31,-127.27"/>
<polygon fill="#888888" stroke="#888888" points="1648.42,-125.68 1640.94,-118.18 1642.11,-128.71 1648.42,-125.68"/>
</g>
<!-- 26 -->
<g id="node27" class="node">
<title>26</title>
<text text-anchor="start" x="1752" y="-99.8" font-family="Arial" font-weight="bold" font-size="14.00"> ≥ 5.5</text>
<path fill="#f8766d" fill-opacity="0.564706" stroke="transparent" d="M1724,-27C1724,-27 1814,-27 1814,-27 1820,-27 1826,-33 1826,-39 1826,-39 1826,-79 1826,-79 1826,-85 1820,-91 1814,-91 1814,-91 1724,-91 1724,-91 1718,-91 1712,-85 1712,-79 1712,-79 1712,-39 1712,-39 1712,-33 1718,-27 1724,-27"/>
<text text-anchor="start" x="1713" y="-88.4" font-family="Arial" font-size="2.00"> </text>
<text text-anchor="start" x="1713" y="-82.4" font-family="Arial" font-size="7.00"> &#160;26</text>
<text text-anchor="start" x="1727" y="-65.8" font-family="Arial" font-weight="bold" font-size="14.00">Predict 3.913</text>
<text text-anchor="start" x="1753" y="-48.8" font-family="Arial" font-weight="bold" font-size="14.00">n = 9</text>
<text text-anchor="start" x="1767.5" y="-30.8" font-family="Arial" font-size="9.00"> </text>
<path fill="none" stroke="#333333" d="M1724,-27C1724,-27 1814,-27 1814,-27 1820,-27 1826,-33 1826,-39 1826,-39 1826,-79 1826,-79 1826,-85 1820,-91 1814,-91 1814,-91 1724,-91 1724,-91 1718,-91 1712,-85 1712,-79 1712,-79 1712,-39 1712,-39 1712,-33 1718,-27 1724,-27"/>
<text text-anchor="start" x="1767" y="-12.8" font-family="Arial" font-weight="bold" font-size="14.00"> </text>
</g>
<!-- 24&#45;&gt;26 -->
<g id="edge26" class="edge">
<title>24&#45;&gt;26</title>
<path fill="none" stroke="#888888" d="M1717.85,-153.67C1722.62,-144.94 1727.56,-135.88 1732.42,-126.99"/>
<polygon fill="#888888" stroke="#888888" points="1735.51,-128.63 1737.23,-118.18 1729.37,-125.28 1735.51,-128.63"/>
</g>
<!-- 28 -->
<g id="node28" class="node">
<title>28</title>
<text text-anchor="start" x="1900" y="-99.8" font-family="Arial" font-weight="bold" font-size="14.00"> &lt; 4.055</text>
<path fill="#f8766d" fill-opacity="0.592157" stroke="transparent" d="M1880,-27C1880,-27 1970,-27 1970,-27 1976,-27 1982,-33 1982,-39 1982,-39 1982,-79 1982,-79 1982,-85 1976,-91 1970,-91 1970,-91 1880,-91 1880,-91 1874,-91 1868,-85 1868,-79 1868,-79 1868,-39 1868,-39 1868,-33 1874,-27 1880,-27"/>
<text text-anchor="start" x="1869" y="-88.4" font-family="Arial" font-size="2.00"> </text>
<text text-anchor="start" x="1869" y="-82.4" font-family="Arial" font-size="7.00"> &#160;28</text>
<text text-anchor="start" x="1883" y="-65.8" font-family="Arial" font-weight="bold" font-size="14.00">Predict 3.739</text>
<text text-anchor="start" x="1905" y="-48.8" font-family="Arial" font-weight="bold" font-size="14.00">n = 12</text>
<text text-anchor="start" x="1923.5" y="-30.8" font-family="Arial" font-size="9.00"> </text>
<path fill="none" stroke="#333333" d="M1880,-27C1880,-27 1970,-27 1970,-27 1976,-27 1982,-33 1982,-39 1982,-39 1982,-79 1982,-79 1982,-85 1976,-91 1970,-91 1970,-91 1880,-91 1880,-91 1874,-91 1868,-85 1868,-79 1868,-79 1868,-39 1868,-39 1868,-33 1874,-27 1880,-27"/>
<text text-anchor="start" x="1923" y="-12.8" font-family="Arial" font-weight="bold" font-size="14.00"> </text>
</g>
<!-- 27&#45;&gt;28 -->
<g id="edge27" class="edge">
<title>27&#45;&gt;28</title>
<path fill="none" stroke="#888888" d="M1925,-153.67C1925,-145.39 1925,-136.83 1925,-128.38"/>
<polygon fill="#888888" stroke="#888888" points="1928.5,-128.18 1925,-118.18 1921.5,-128.18 1928.5,-128.18"/>
</g>
<!-- 29 -->
<g id="node29" class="node">
<title>29</title>
<text text-anchor="start" x="2056.5" y="-99.8" font-family="Arial" font-weight="bold" font-size="14.00"> ≥ 4.055</text>
<path fill="#f8766d" fill-opacity="0.537255" stroke="transparent" d="M2036,-27C2036,-27 2126,-27 2126,-27 2132,-27 2138,-33 2138,-39 2138,-39 2138,-79 2138,-79 2138,-85 2132,-91 2126,-91 2126,-91 2036,-91 2036,-91 2030,-91 2024,-85 2024,-79 2024,-79 2024,-39 2024,-39 2024,-33 2030,-27 2036,-27"/>
<text text-anchor="start" x="2025" y="-88.4" font-family="Arial" font-size="2.00"> </text>
<text text-anchor="start" x="2025" y="-82.4" font-family="Arial" font-size="7.00"> &#160;29</text>
<text text-anchor="start" x="2039" y="-65.8" font-family="Arial" font-weight="bold" font-size="14.00">Predict 4.093</text>
<text text-anchor="start" x="2061" y="-48.8" font-family="Arial" font-weight="bold" font-size="14.00">n = 21</text>
<text text-anchor="start" x="2079.5" y="-30.8" font-family="Arial" font-size="9.00"> </text>
<path fill="none" stroke="#333333" d="M2036,-27C2036,-27 2126,-27 2126,-27 2132,-27 2138,-33 2138,-39 2138,-39 2138,-79 2138,-79 2138,-85 2132,-91 2126,-91 2126,-91 2036,-91 2036,-91 2030,-91 2024,-85 2024,-79 2024,-79 2024,-39 2024,-39 2024,-33 2030,-27 2036,-27"/>
<text text-anchor="start" x="2079" y="-12.8" font-family="Arial" font-weight="bold" font-size="14.00"> </text>
</g>
<!-- 27&#45;&gt;29 -->
<g id="edge28" class="edge">
<title>27&#45;&gt;29</title>
<path fill="none" stroke="#888888" d="M1984.87,-153.67C1994.38,-144.39 2004.28,-134.75 2013.95,-125.33"/>
<polygon fill="#888888" stroke="#888888" points="2016.57,-127.66 2021.29,-118.18 2011.69,-122.65 2016.57,-127.66"/>
</g>
</g>
</svg>
