<?xml version="1.0" encoding="utf-8"?>
<svg xmlns="http://www.w3.org/2000/svg" xmlns:xlink="http://www.w3.org/1999/xlink" width="1000" height="400" viewBox="0 0 4000 1600">
<defs>
  <clipPath id="clip000">
    <rect x="0" y="0" width="4000" height="1600"/>
  </clipPath>
</defs>
<path clip-path="url(#clip000)" d="M0 1600 L4000 1600 L4000 0 L0 0  Z" fill="#ffffff" fill-rule="evenodd" fill-opacity="1"/>
<defs>
  <clipPath id="clip001">
    <rect x="800" y="0" width="2801" height="1600"/>
  </clipPath>
</defs>
<path clip-path="url(#clip000)" d="M237.055 1497.68 L3184.67 1497.68 L3184.67 47.2441 L237.055 47.2441  Z" fill="#ffffff" fill-rule="evenodd" fill-opacity="1"/>
<defs>
  <clipPath id="clip002">
    <rect x="237" y="47" width="2949" height="1451"/>
  </clipPath>
</defs>
<polyline clip-path="url(#clip002)" style="stroke:#000000; stroke-linecap:round; stroke-linejoin:round; stroke-width:2; stroke-opacity:0.1; fill:none" points="320.479,1497.68 320.479,47.2441 "/>
<polyline clip-path="url(#clip002)" style="stroke:#000000; stroke-linecap:round; stroke-linejoin:round; stroke-width:2; stroke-opacity:0.1; fill:none" points="1119.74,1497.68 1119.74,47.2441 "/>
<polyline clip-path="url(#clip002)" style="stroke:#000000; stroke-linecap:round; stroke-linejoin:round; stroke-width:2; stroke-opacity:0.1; fill:none" points="1919.01,1497.68 1919.01,47.2441 "/>
<polyline clip-path="url(#clip002)" style="stroke:#000000; stroke-linecap:round; stroke-linejoin:round; stroke-width:2; stroke-opacity:0.1; fill:none" points="2718.27,1497.68 2718.27,47.2441 "/>
<polyline clip-path="url(#clip000)" style="stroke:#000000; stroke-linecap:round; stroke-linejoin:round; stroke-width:4; stroke-opacity:1; fill:none" points="237.055,1497.68 3184.67,1497.68 "/>
<polyline clip-path="url(#clip000)" style="stroke:#000000; stroke-linecap:round; stroke-linejoin:round; stroke-width:4; stroke-opacity:1; fill:none" points="320.479,1497.68 320.479,1478.78 "/>
<polyline clip-path="url(#clip000)" style="stroke:#000000; stroke-linecap:round; stroke-linejoin:round; stroke-width:4; stroke-opacity:1; fill:none" points="1119.74,1497.68 1119.74,1478.78 "/>
<polyline clip-path="url(#clip000)" style="stroke:#000000; stroke-linecap:round; stroke-linejoin:round; stroke-width:4; stroke-opacity:1; fill:none" points="1919.01,1497.68 1919.01,1478.78 "/>
<polyline clip-path="url(#clip000)" style="stroke:#000000; stroke-linecap:round; stroke-linejoin:round; stroke-width:4; stroke-opacity:1; fill:none" points="2718.27,1497.68 2718.27,1478.78 "/>
<path clip-path="url(#clip000)" d="M176.248 1573.85 L194.607 1573.85 L194.607 1578.28 L169.92 1578.28 L169.92 1573.85 Q172.914 1570.75 178.071 1565.55 Q183.253 1560.31 184.581 1558.8 Q187.107 1555.96 188.097 1554.01 Q189.112 1552.03 189.112 1550.13 Q189.112 1547.03 186.925 1545.08 Q184.763 1543.12 181.274 1543.12 Q178.8 1543.12 176.039 1543.98 Q173.305 1544.84 170.18 1546.59 L170.18 1541.27 Q173.357 1540 176.117 1539.35 Q178.878 1538.7 181.17 1538.7 Q187.211 1538.7 190.805 1541.72 Q194.399 1544.74 194.399 1549.79 Q194.399 1552.19 193.487 1554.35 Q192.602 1556.48 190.232 1559.4 Q189.581 1560.15 186.091 1563.77 Q182.602 1567.37 176.248 1573.85 Z" fill="#000000" fill-rule="nonzero" fill-opacity="1" /><path clip-path="url(#clip000)" d="M216.898 1542.86 Q212.836 1542.86 210.779 1546.87 Q208.748 1550.86 208.748 1558.88 Q208.748 1566.87 210.779 1570.88 Q212.836 1574.87 216.898 1574.87 Q220.987 1574.87 223.018 1570.88 Q225.076 1566.87 225.076 1558.88 Q225.076 1550.86 223.018 1546.87 Q220.987 1542.86 216.898 1542.86 M216.898 1538.7 Q223.435 1538.7 226.872 1543.88 Q230.336 1549.04 230.336 1558.88 Q230.336 1568.7 226.872 1573.88 Q223.435 1579.04 216.898 1579.04 Q210.362 1579.04 206.899 1573.88 Q203.461 1568.7 203.461 1558.88 Q203.461 1549.04 206.899 1543.88 Q210.362 1538.7 216.898 1538.7 Z" fill="#000000" fill-rule="nonzero" fill-opacity="1" /><path clip-path="url(#clip000)" d="M244.112 1573.85 L262.471 1573.85 L262.471 1578.28 L237.784 1578.28 L237.784 1573.85 Q240.779 1570.75 245.935 1565.55 Q251.117 1560.31 252.445 1558.8 Q254.971 1555.96 255.961 1554.01 Q256.976 1552.03 256.976 1550.13 Q256.976 1547.03 254.789 1545.08 Q252.627 1543.12 249.138 1543.12 Q246.664 1543.12 243.904 1543.98 Q241.169 1544.84 238.044 1546.59 L238.044 1541.27 Q241.221 1540 243.982 1539.35 Q246.742 1538.7 249.034 1538.7 Q255.075 1538.7 258.669 1541.72 Q262.263 1544.74 262.263 1549.79 Q262.263 1552.19 261.351 1554.35 Q260.466 1556.48 258.096 1559.4 Q257.445 1560.15 253.956 1563.77 Q250.466 1567.37 244.112 1573.85 Z" fill="#000000" fill-rule="nonzero" fill-opacity="1" /><path clip-path="url(#clip000)" d="M278.044 1573.85 L296.403 1573.85 L296.403 1578.28 L271.716 1578.28 L271.716 1573.85 Q274.711 1570.75 279.867 1565.55 Q285.049 1560.31 286.377 1558.8 Q288.903 1555.96 289.893 1554.01 Q290.909 1552.03 290.909 1550.13 Q290.909 1547.03 288.721 1545.08 Q286.56 1543.12 283.07 1543.12 Q280.596 1543.12 277.836 1543.98 Q275.101 1544.84 271.976 1546.59 L271.976 1541.27 Q275.153 1540 277.914 1539.35 Q280.674 1538.7 282.966 1538.7 Q289.007 1538.7 292.601 1541.72 Q296.195 1544.74 296.195 1549.79 Q296.195 1552.19 295.283 1554.35 Q294.398 1556.48 292.028 1559.4 Q291.377 1560.15 287.888 1563.77 Q284.398 1567.37 278.044 1573.85 Z" fill="#000000" fill-rule="nonzero" fill-opacity="1" /><path clip-path="url(#clip000)" d="M304.346 1561.54 L318.382 1561.54 L318.382 1565.81 L304.346 1565.81 L304.346 1561.54 Z" fill="#000000" fill-rule="nonzero" fill-opacity="1" /><path clip-path="url(#clip000)" d="M327.601 1573.85 L336.195 1573.85 L336.195 1544.19 L326.846 1546.07 L326.846 1541.27 L336.143 1539.4 L341.403 1539.4 L341.403 1573.85 L349.997 1573.85 L349.997 1578.28 L327.601 1578.28 L327.601 1573.85 Z" fill="#000000" fill-rule="nonzero" fill-opacity="1" /><path clip-path="url(#clip000)" d="M371.872 1542.86 Q367.809 1542.86 365.752 1546.87 Q363.721 1550.86 363.721 1558.88 Q363.721 1566.87 365.752 1570.88 Q367.809 1574.87 371.872 1574.87 Q375.96 1574.87 377.991 1570.88 Q380.049 1566.87 380.049 1558.88 Q380.049 1550.86 377.991 1546.87 Q375.96 1542.86 371.872 1542.86 M371.872 1538.7 Q378.408 1538.7 381.846 1543.88 Q385.309 1549.04 385.309 1558.88 Q385.309 1568.7 381.846 1573.88 Q378.408 1579.04 371.872 1579.04 Q365.335 1579.04 361.872 1573.88 Q358.434 1568.7 358.434 1558.88 Q358.434 1549.04 361.872 1543.88 Q365.335 1538.7 371.872 1538.7 Z" fill="#000000" fill-rule="nonzero" fill-opacity="1" /><path clip-path="url(#clip000)" d="M391.455 1561.54 L405.491 1561.54 L405.491 1565.81 L391.455 1565.81 L391.455 1561.54 Z" fill="#000000" fill-rule="nonzero" fill-opacity="1" /><path clip-path="url(#clip000)" d="M429.736 1557.32 Q433.512 1558.12 435.621 1560.68 Q437.757 1563.23 437.757 1566.98 Q437.757 1572.73 433.798 1575.88 Q429.84 1579.04 422.548 1579.04 Q420.101 1579.04 417.496 1578.54 Q414.918 1578.07 412.158 1577.11 L412.158 1572.03 Q414.345 1573.31 416.95 1573.96 Q419.554 1574.61 422.392 1574.61 Q427.34 1574.61 429.918 1572.65 Q432.522 1570.7 432.522 1566.98 Q432.522 1563.54 430.1 1561.61 Q427.705 1559.66 423.408 1559.66 L418.877 1559.66 L418.877 1555.34 L423.616 1555.34 Q427.496 1555.34 429.554 1553.8 Q431.611 1552.24 431.611 1549.32 Q431.611 1546.33 429.475 1544.74 Q427.366 1543.12 423.408 1543.12 Q421.246 1543.12 418.772 1543.59 Q416.298 1544.06 413.33 1545.05 L413.33 1540.36 Q416.325 1539.53 418.929 1539.11 Q421.559 1538.7 423.877 1538.7 Q429.866 1538.7 433.356 1541.43 Q436.845 1544.14 436.845 1548.77 Q436.845 1552 434.996 1554.24 Q433.147 1556.46 429.736 1557.32 Z" fill="#000000" fill-rule="nonzero" fill-opacity="1" /><path clip-path="url(#clip000)" d="M448.642 1573.85 L457.236 1573.85 L457.236 1544.19 L447.887 1546.07 L447.887 1541.27 L457.184 1539.4 L462.444 1539.4 L462.444 1573.85 L471.038 1573.85 L471.038 1578.28 L448.642 1578.28 L448.642 1573.85 Z" fill="#000000" fill-rule="nonzero" fill-opacity="1" /><path clip-path="url(#clip000)" d="M975.72 1573.85 L994.079 1573.85 L994.079 1578.28 L969.392 1578.28 L969.392 1573.85 Q972.387 1570.75 977.543 1565.55 Q982.725 1560.31 984.053 1558.8 Q986.579 1555.96 987.569 1554.01 Q988.584 1552.03 988.584 1550.13 Q988.584 1547.03 986.397 1545.08 Q984.236 1543.12 980.746 1543.12 Q978.272 1543.12 975.512 1543.98 Q972.777 1544.84 969.652 1546.59 L969.652 1541.27 Q972.829 1540 975.59 1539.35 Q978.35 1538.7 980.642 1538.7 Q986.683 1538.7 990.277 1541.72 Q993.871 1544.74 993.871 1549.79 Q993.871 1552.19 992.959 1554.35 Q992.074 1556.48 989.704 1559.4 Q989.053 1560.15 985.564 1563.77 Q982.074 1567.37 975.72 1573.85 Z" fill="#000000" fill-rule="nonzero" fill-opacity="1" /><path clip-path="url(#clip000)" d="M1016.37 1542.86 Q1012.31 1542.86 1010.25 1546.87 Q1008.22 1550.86 1008.22 1558.88 Q1008.22 1566.87 1010.25 1570.88 Q1012.31 1574.87 1016.37 1574.87 Q1020.46 1574.87 1022.49 1570.88 Q1024.55 1566.87 1024.55 1558.88 Q1024.55 1550.86 1022.49 1546.87 Q1020.46 1542.86 1016.37 1542.86 M1016.37 1538.7 Q1022.91 1538.7 1026.34 1543.88 Q1029.81 1549.04 1029.81 1558.88 Q1029.81 1568.7 1026.34 1573.88 Q1022.91 1579.04 1016.37 1579.04 Q1009.83 1579.04 1006.37 1573.88 Q1002.93 1568.7 1002.93 1558.88 Q1002.93 1549.04 1006.37 1543.88 Q1009.83 1538.7 1016.37 1538.7 Z" fill="#000000" fill-rule="nonzero" fill-opacity="1" /><path clip-path="url(#clip000)" d="M1043.58 1573.85 L1061.94 1573.85 L1061.94 1578.28 L1037.26 1578.28 L1037.26 1573.85 Q1040.25 1570.75 1045.41 1565.55 Q1050.59 1560.31 1051.92 1558.8 Q1054.44 1555.96 1055.43 1554.01 Q1056.45 1552.03 1056.45 1550.13 Q1056.45 1547.03 1054.26 1545.08 Q1052.1 1543.12 1048.61 1543.12 Q1046.14 1543.12 1043.38 1543.98 Q1040.64 1544.84 1037.52 1546.59 L1037.52 1541.27 Q1040.69 1540 1043.45 1539.35 Q1046.21 1538.7 1048.51 1538.7 Q1054.55 1538.7 1058.14 1541.72 Q1061.74 1544.74 1061.74 1549.79 Q1061.74 1552.19 1060.82 1554.35 Q1059.94 1556.48 1057.57 1559.4 Q1056.92 1560.15 1053.43 1563.77 Q1049.94 1567.37 1043.58 1573.85 Z" fill="#000000" fill-rule="nonzero" fill-opacity="1" /><path clip-path="url(#clip000)" d="M1077.52 1573.85 L1095.88 1573.85 L1095.88 1578.28 L1071.19 1578.28 L1071.19 1573.85 Q1074.18 1570.75 1079.34 1565.55 Q1084.52 1560.31 1085.85 1558.8 Q1088.38 1555.96 1089.37 1554.01 Q1090.38 1552.03 1090.38 1550.13 Q1090.38 1547.03 1088.19 1545.08 Q1086.03 1543.12 1082.54 1543.12 Q1080.07 1543.12 1077.31 1543.98 Q1074.57 1544.84 1071.45 1546.59 L1071.45 1541.27 Q1074.63 1540 1077.39 1539.35 Q1080.15 1538.7 1082.44 1538.7 Q1088.48 1538.7 1092.07 1541.72 Q1095.67 1544.74 1095.67 1549.79 Q1095.67 1552.19 1094.76 1554.35 Q1093.87 1556.48 1091.5 1559.4 Q1090.85 1560.15 1087.36 1563.77 Q1083.87 1567.37 1077.52 1573.85 Z" fill="#000000" fill-rule="nonzero" fill-opacity="1" /><path clip-path="url(#clip000)" d="M1103.82 1561.54 L1117.85 1561.54 L1117.85 1565.81 L1103.82 1565.81 L1103.82 1561.54 Z" fill="#000000" fill-rule="nonzero" fill-opacity="1" /><path clip-path="url(#clip000)" d="M1127.07 1573.85 L1135.67 1573.85 L1135.67 1544.19 L1126.32 1546.07 L1126.32 1541.27 L1135.61 1539.4 L1140.88 1539.4 L1140.88 1573.85 L1149.47 1573.85 L1149.47 1578.28 L1127.07 1578.28 L1127.07 1573.85 Z" fill="#000000" fill-rule="nonzero" fill-opacity="1" /><path clip-path="url(#clip000)" d="M1161.01 1573.85 L1169.6 1573.85 L1169.6 1544.19 L1160.25 1546.07 L1160.25 1541.27 L1169.55 1539.4 L1174.81 1539.4 L1174.81 1573.85 L1183.4 1573.85 L1183.4 1578.28 L1161.01 1578.28 L1161.01 1573.85 Z" fill="#000000" fill-rule="nonzero" fill-opacity="1" /><path clip-path="url(#clip000)" d="M1190.93 1561.54 L1204.96 1561.54 L1204.96 1565.81 L1190.93 1565.81 L1190.93 1561.54 Z" fill="#000000" fill-rule="nonzero" fill-opacity="1" /><path clip-path="url(#clip000)" d="M1224.52 1542.86 Q1220.46 1542.86 1218.4 1546.87 Q1216.37 1550.86 1216.37 1558.88 Q1216.37 1566.87 1218.4 1570.88 Q1220.46 1574.87 1224.52 1574.87 Q1228.61 1574.87 1230.64 1570.88 Q1232.7 1566.87 1232.7 1558.88 Q1232.7 1550.86 1230.64 1546.87 Q1228.61 1542.86 1224.52 1542.86 M1224.52 1538.7 Q1231.06 1538.7 1234.49 1543.88 Q1237.96 1549.04 1237.96 1558.88 Q1237.96 1568.7 1234.49 1573.88 Q1231.06 1579.04 1224.52 1579.04 Q1217.98 1579.04 1214.52 1573.88 Q1211.08 1568.7 1211.08 1558.88 Q1211.08 1549.04 1214.52 1543.88 Q1217.98 1538.7 1224.52 1538.7 Z" fill="#000000" fill-rule="nonzero" fill-opacity="1" /><path clip-path="url(#clip000)" d="M1251.73 1573.85 L1270.09 1573.85 L1270.09 1578.28 L1245.41 1578.28 L1245.41 1573.85 Q1248.4 1570.75 1253.56 1565.55 Q1258.74 1560.31 1260.07 1558.8 Q1262.59 1555.96 1263.58 1554.01 Q1264.6 1552.03 1264.6 1550.13 Q1264.6 1547.03 1262.41 1545.08 Q1260.25 1543.12 1256.76 1543.12 Q1254.29 1543.12 1251.53 1543.98 Q1248.79 1544.84 1245.67 1546.59 L1245.67 1541.27 Q1248.84 1540 1251.6 1539.35 Q1254.36 1538.7 1256.66 1538.7 Q1262.7 1538.7 1266.29 1541.72 Q1269.89 1544.74 1269.89 1549.79 Q1269.89 1552.19 1268.97 1554.35 Q1268.09 1556.48 1265.72 1559.4 Q1265.07 1560.15 1261.58 1563.77 Q1258.09 1567.37 1251.73 1573.85 Z" fill="#000000" fill-rule="nonzero" fill-opacity="1" /><path clip-path="url(#clip000)" d="M1773.81 1573.85 L1792.17 1573.85 L1792.17 1578.28 L1767.48 1578.28 L1767.48 1573.85 Q1770.48 1570.75 1775.63 1565.55 Q1780.82 1560.31 1782.15 1558.8 Q1784.67 1555.96 1785.66 1554.01 Q1786.68 1552.03 1786.68 1550.13 Q1786.68 1547.03 1784.49 1545.08 Q1782.33 1543.12 1778.84 1543.12 Q1776.36 1543.12 1773.6 1543.98 Q1770.87 1544.84 1767.74 1546.59 L1767.74 1541.27 Q1770.92 1540 1773.68 1539.35 Q1776.44 1538.7 1778.73 1538.7 Q1784.78 1538.7 1788.37 1541.72 Q1791.96 1544.74 1791.96 1549.79 Q1791.96 1552.19 1791.05 1554.35 Q1790.17 1556.48 1787.8 1559.4 Q1787.15 1560.15 1783.66 1563.77 Q1780.17 1567.37 1773.81 1573.85 Z" fill="#000000" fill-rule="nonzero" fill-opacity="1" /><path clip-path="url(#clip000)" d="M1814.46 1542.86 Q1810.4 1542.86 1808.34 1546.87 Q1806.31 1550.86 1806.31 1558.88 Q1806.31 1566.87 1808.34 1570.88 Q1810.4 1574.87 1814.46 1574.87 Q1818.55 1574.87 1820.58 1570.88 Q1822.64 1566.87 1822.64 1558.88 Q1822.64 1550.86 1820.58 1546.87 Q1818.55 1542.86 1814.46 1542.86 M1814.46 1538.7 Q1821 1538.7 1824.44 1543.88 Q1827.9 1549.04 1827.9 1558.88 Q1827.9 1568.7 1824.44 1573.88 Q1821 1579.04 1814.46 1579.04 Q1807.93 1579.04 1804.46 1573.88 Q1801.03 1568.7 1801.03 1558.88 Q1801.03 1549.04 1804.46 1543.88 Q1807.93 1538.7 1814.46 1538.7 Z" fill="#000000" fill-rule="nonzero" fill-opacity="1" /><path clip-path="url(#clip000)" d="M1841.68 1573.85 L1860.04 1573.85 L1860.04 1578.28 L1835.35 1578.28 L1835.35 1573.85 Q1838.34 1570.75 1843.5 1565.55 Q1848.68 1560.31 1850.01 1558.8 Q1852.54 1555.96 1853.53 1554.01 Q1854.54 1552.03 1854.54 1550.13 Q1854.54 1547.03 1852.35 1545.08 Q1850.19 1543.12 1846.7 1543.12 Q1844.23 1543.12 1841.47 1543.98 Q1838.73 1544.84 1835.61 1546.59 L1835.61 1541.27 Q1838.79 1540 1841.55 1539.35 Q1844.31 1538.7 1846.6 1538.7 Q1852.64 1538.7 1856.23 1541.72 Q1859.83 1544.74 1859.83 1549.79 Q1859.83 1552.19 1858.92 1554.35 Q1858.03 1556.48 1855.66 1559.4 Q1855.01 1560.15 1851.52 1563.77 Q1848.03 1567.37 1841.68 1573.85 Z" fill="#000000" fill-rule="nonzero" fill-opacity="1" /><path clip-path="url(#clip000)" d="M1875.61 1573.85 L1893.97 1573.85 L1893.97 1578.28 L1869.28 1578.28 L1869.28 1573.85 Q1872.28 1570.75 1877.43 1565.55 Q1882.61 1560.31 1883.94 1558.8 Q1886.47 1555.96 1887.46 1554.01 Q1888.47 1552.03 1888.47 1550.13 Q1888.47 1547.03 1886.29 1545.08 Q1884.12 1543.12 1880.63 1543.12 Q1878.16 1543.12 1875.4 1543.98 Q1872.67 1544.84 1869.54 1546.59 L1869.54 1541.27 Q1872.72 1540 1875.48 1539.35 Q1878.24 1538.7 1880.53 1538.7 Q1886.57 1538.7 1890.17 1541.72 Q1893.76 1544.74 1893.76 1549.79 Q1893.76 1552.19 1892.85 1554.35 Q1891.96 1556.48 1889.59 1559.4 Q1888.94 1560.15 1885.45 1563.77 Q1881.96 1567.37 1875.61 1573.85 Z" fill="#000000" fill-rule="nonzero" fill-opacity="1" /><path clip-path="url(#clip000)" d="M1901.91 1561.54 L1915.95 1561.54 L1915.95 1565.81 L1901.91 1565.81 L1901.91 1561.54 Z" fill="#000000" fill-rule="nonzero" fill-opacity="1" /><path clip-path="url(#clip000)" d="M1925.17 1573.85 L1933.76 1573.85 L1933.76 1544.19 L1924.41 1546.07 L1924.41 1541.27 L1933.71 1539.4 L1938.97 1539.4 L1938.97 1573.85 L1947.56 1573.85 L1947.56 1578.28 L1925.17 1578.28 L1925.17 1573.85 Z" fill="#000000" fill-rule="nonzero" fill-opacity="1" /><path clip-path="url(#clip000)" d="M1959.1 1573.85 L1967.69 1573.85 L1967.69 1544.19 L1958.34 1546.07 L1958.34 1541.27 L1967.64 1539.4 L1972.9 1539.4 L1972.9 1573.85 L1981.49 1573.85 L1981.49 1578.28 L1959.1 1578.28 L1959.1 1573.85 Z" fill="#000000" fill-rule="nonzero" fill-opacity="1" /><path clip-path="url(#clip000)" d="M1989.02 1561.54 L2003.06 1561.54 L2003.06 1565.81 L1989.02 1565.81 L1989.02 1561.54 Z" fill="#000000" fill-rule="nonzero" fill-opacity="1" /><path clip-path="url(#clip000)" d="M2022.61 1542.86 Q2018.55 1542.86 2016.49 1546.87 Q2014.46 1550.86 2014.46 1558.88 Q2014.46 1566.87 2016.49 1570.88 Q2018.55 1574.87 2022.61 1574.87 Q2026.7 1574.87 2028.73 1570.88 Q2030.79 1566.87 2030.79 1558.88 Q2030.79 1550.86 2028.73 1546.87 Q2026.7 1542.86 2022.61 1542.86 M2022.61 1538.7 Q2029.15 1538.7 2032.59 1543.88 Q2036.05 1549.04 2036.05 1558.88 Q2036.05 1568.7 2032.59 1573.88 Q2029.15 1579.04 2022.61 1579.04 Q2016.08 1579.04 2012.61 1573.88 Q2009.18 1568.7 2009.18 1558.88 Q2009.18 1549.04 2012.61 1543.88 Q2016.08 1538.7 2022.61 1538.7 Z" fill="#000000" fill-rule="nonzero" fill-opacity="1" /><path clip-path="url(#clip000)" d="M2059.75 1543.98 L2046.47 1564.74 L2059.75 1564.74 L2059.75 1543.98 M2058.37 1539.4 L2064.98 1539.4 L2064.98 1564.74 L2070.53 1564.74 L2070.53 1569.11 L2064.98 1569.11 L2064.98 1578.28 L2059.75 1578.28 L2059.75 1569.11 L2042.2 1569.11 L2042.2 1564.04 L2058.37 1539.4 Z" fill="#000000" fill-rule="nonzero" fill-opacity="1" /><path clip-path="url(#clip000)" d="M2573.26 1573.85 L2591.62 1573.85 L2591.62 1578.28 L2566.93 1578.28 L2566.93 1573.85 Q2569.93 1570.75 2575.08 1565.55 Q2580.26 1560.31 2581.59 1558.8 Q2584.12 1555.96 2585.11 1554.01 Q2586.12 1552.03 2586.12 1550.13 Q2586.12 1547.03 2583.94 1545.08 Q2581.77 1543.12 2578.28 1543.12 Q2575.81 1543.12 2573.05 1543.98 Q2570.32 1544.84 2567.19 1546.59 L2567.19 1541.27 Q2570.37 1540 2573.13 1539.35 Q2575.89 1538.7 2578.18 1538.7 Q2584.22 1538.7 2587.82 1541.72 Q2591.41 1544.74 2591.41 1549.79 Q2591.41 1552.19 2590.5 1554.35 Q2589.61 1556.48 2587.24 1559.4 Q2586.59 1560.15 2583.1 1563.77 Q2579.61 1567.37 2573.26 1573.85 Z" fill="#000000" fill-rule="nonzero" fill-opacity="1" /><path clip-path="url(#clip000)" d="M2613.91 1542.86 Q2609.85 1542.86 2607.79 1546.87 Q2605.76 1550.86 2605.76 1558.88 Q2605.76 1566.87 2607.79 1570.88 Q2609.85 1574.87 2613.91 1574.87 Q2618 1574.87 2620.03 1570.88 Q2622.09 1566.87 2622.09 1558.88 Q2622.09 1550.86 2620.03 1546.87 Q2618 1542.86 2613.91 1542.86 M2613.91 1538.7 Q2620.45 1538.7 2623.88 1543.88 Q2627.35 1549.04 2627.35 1558.88 Q2627.35 1568.7 2623.88 1573.88 Q2620.45 1579.04 2613.91 1579.04 Q2607.37 1579.04 2603.91 1573.88 Q2600.47 1568.7 2600.47 1558.88 Q2600.47 1549.04 2603.91 1543.88 Q2607.37 1538.7 2613.91 1538.7 Z" fill="#000000" fill-rule="nonzero" fill-opacity="1" /><path clip-path="url(#clip000)" d="M2641.12 1573.85 L2659.48 1573.85 L2659.48 1578.28 L2634.79 1578.28 L2634.79 1573.85 Q2637.79 1570.75 2642.95 1565.55 Q2648.13 1560.31 2649.46 1558.8 Q2651.98 1555.96 2652.97 1554.01 Q2653.99 1552.03 2653.99 1550.13 Q2653.99 1547.03 2651.8 1545.08 Q2649.64 1543.12 2646.15 1543.12 Q2643.67 1543.12 2640.91 1543.98 Q2638.18 1544.84 2635.05 1546.59 L2635.05 1541.27 Q2638.23 1540 2640.99 1539.35 Q2643.75 1538.7 2646.04 1538.7 Q2652.09 1538.7 2655.68 1541.72 Q2659.27 1544.74 2659.27 1549.79 Q2659.27 1552.19 2658.36 1554.35 Q2657.48 1556.48 2655.11 1559.4 Q2654.46 1560.15 2650.97 1563.77 Q2647.48 1567.37 2641.12 1573.85 Z" fill="#000000" fill-rule="nonzero" fill-opacity="1" /><path clip-path="url(#clip000)" d="M2675.05 1573.85 L2693.41 1573.85 L2693.41 1578.28 L2668.73 1578.28 L2668.73 1573.85 Q2671.72 1570.75 2676.88 1565.55 Q2682.06 1560.31 2683.39 1558.8 Q2685.91 1555.96 2686.9 1554.01 Q2687.92 1552.03 2687.92 1550.13 Q2687.92 1547.03 2685.73 1545.08 Q2683.57 1543.12 2680.08 1543.12 Q2677.61 1543.12 2674.85 1543.98 Q2672.11 1544.84 2668.99 1546.59 L2668.99 1541.27 Q2672.16 1540 2674.92 1539.35 Q2677.68 1538.7 2679.98 1538.7 Q2686.02 1538.7 2689.61 1541.72 Q2693.21 1544.74 2693.21 1549.79 Q2693.21 1552.19 2692.29 1554.35 Q2691.41 1556.48 2689.04 1559.4 Q2688.39 1560.15 2684.9 1563.77 Q2681.41 1567.37 2675.05 1573.85 Z" fill="#000000" fill-rule="nonzero" fill-opacity="1" /><path clip-path="url(#clip000)" d="M2701.36 1561.54 L2715.39 1561.54 L2715.39 1565.81 L2701.36 1565.81 L2701.36 1561.54 Z" fill="#000000" fill-rule="nonzero" fill-opacity="1" /><path clip-path="url(#clip000)" d="M2724.61 1573.85 L2733.21 1573.85 L2733.21 1544.19 L2723.86 1546.07 L2723.86 1541.27 L2733.15 1539.4 L2738.41 1539.4 L2738.41 1573.85 L2747.01 1573.85 L2747.01 1578.28 L2724.61 1578.28 L2724.61 1573.85 Z" fill="#000000" fill-rule="nonzero" fill-opacity="1" /><path clip-path="url(#clip000)" d="M2758.54 1573.85 L2767.14 1573.85 L2767.14 1544.19 L2757.79 1546.07 L2757.79 1541.27 L2767.09 1539.4 L2772.35 1539.4 L2772.35 1573.85 L2780.94 1573.85 L2780.94 1578.28 L2758.54 1578.28 L2758.54 1573.85 Z" fill="#000000" fill-rule="nonzero" fill-opacity="1" /><path clip-path="url(#clip000)" d="M2788.47 1561.54 L2802.5 1561.54 L2802.5 1565.81 L2788.47 1565.81 L2788.47 1561.54 Z" fill="#000000" fill-rule="nonzero" fill-opacity="1" /><path clip-path="url(#clip000)" d="M2822.06 1542.86 Q2818 1542.86 2815.94 1546.87 Q2813.91 1550.86 2813.91 1558.88 Q2813.91 1566.87 2815.94 1570.88 Q2818 1574.87 2822.06 1574.87 Q2826.15 1574.87 2828.18 1570.88 Q2830.24 1566.87 2830.24 1558.88 Q2830.24 1550.86 2828.18 1546.87 Q2826.15 1542.86 2822.06 1542.86 M2822.06 1538.7 Q2828.6 1538.7 2832.03 1543.88 Q2835.5 1549.04 2835.5 1558.88 Q2835.5 1568.7 2832.03 1573.88 Q2828.6 1579.04 2822.06 1579.04 Q2815.52 1579.04 2812.06 1573.88 Q2808.62 1568.7 2808.62 1558.88 Q2808.62 1549.04 2812.06 1543.88 Q2815.52 1538.7 2822.06 1538.7 Z" fill="#000000" fill-rule="nonzero" fill-opacity="1" /><path clip-path="url(#clip000)" d="M2856.64 1556.74 Q2853.1 1556.74 2851.02 1559.17 Q2848.96 1561.59 2848.96 1565.81 Q2848.96 1570 2851.02 1572.45 Q2853.1 1574.87 2856.64 1574.87 Q2860.18 1574.87 2862.24 1572.45 Q2864.32 1570 2864.32 1565.81 Q2864.32 1561.59 2862.24 1559.17 Q2860.18 1556.74 2856.64 1556.74 M2867.08 1540.26 L2867.08 1545.05 Q2865.11 1544.11 2863.07 1543.62 Q2861.07 1543.12 2859.09 1543.12 Q2853.88 1543.12 2851.12 1546.64 Q2848.39 1550.16 2848 1557.26 Q2849.53 1555 2851.85 1553.8 Q2854.17 1552.58 2856.95 1552.58 Q2862.81 1552.58 2866.2 1556.14 Q2869.61 1559.69 2869.61 1565.81 Q2869.61 1571.8 2866.07 1575.42 Q2862.53 1579.04 2856.64 1579.04 Q2849.9 1579.04 2846.33 1573.88 Q2842.76 1568.7 2842.76 1558.88 Q2842.76 1549.66 2847.14 1544.19 Q2851.51 1538.7 2858.88 1538.7 Q2860.86 1538.7 2862.87 1539.09 Q2864.9 1539.48 2867.08 1540.26 Z" fill="#000000" fill-rule="nonzero" fill-opacity="1" /><polyline clip-path="url(#clip002)" style="stroke:#000000; stroke-linecap:round; stroke-linejoin:round; stroke-width:2; stroke-opacity:0.1; fill:none" points="237.055,1473.23 3184.67,1473.23 "/>
<polyline clip-path="url(#clip002)" style="stroke:#000000; stroke-linecap:round; stroke-linejoin:round; stroke-width:2; stroke-opacity:0.1; fill:none" points="237.055,1172.19 3184.67,1172.19 "/>
<polyline clip-path="url(#clip002)" style="stroke:#000000; stroke-linecap:round; stroke-linejoin:round; stroke-width:2; stroke-opacity:0.1; fill:none" points="237.055,871.158 3184.67,871.158 "/>
<polyline clip-path="url(#clip002)" style="stroke:#000000; stroke-linecap:round; stroke-linejoin:round; stroke-width:2; stroke-opacity:0.1; fill:none" points="237.055,570.123 3184.67,570.123 "/>
<polyline clip-path="url(#clip002)" style="stroke:#000000; stroke-linecap:round; stroke-linejoin:round; stroke-width:2; stroke-opacity:0.1; fill:none" points="237.055,269.087 3184.67,269.087 "/>
<polyline clip-path="url(#clip000)" style="stroke:#000000; stroke-linecap:round; stroke-linejoin:round; stroke-width:4; stroke-opacity:1; fill:none" points="237.055,1497.68 237.055,47.2441 "/>
<polyline clip-path="url(#clip000)" style="stroke:#000000; stroke-linecap:round; stroke-linejoin:round; stroke-width:4; stroke-opacity:1; fill:none" points="237.055,1473.23 252.047,1473.23 "/>
<polyline clip-path="url(#clip000)" style="stroke:#000000; stroke-linecap:round; stroke-linejoin:round; stroke-width:4; stroke-opacity:1; fill:none" points="237.055,1172.19 252.047,1172.19 "/>
<polyline clip-path="url(#clip000)" style="stroke:#000000; stroke-linecap:round; stroke-linejoin:round; stroke-width:4; stroke-opacity:1; fill:none" points="237.055,871.158 252.047,871.158 "/>
<polyline clip-path="url(#clip000)" style="stroke:#000000; stroke-linecap:round; stroke-linejoin:round; stroke-width:4; stroke-opacity:1; fill:none" points="237.055,570.123 252.047,570.123 "/>
<polyline clip-path="url(#clip000)" style="stroke:#000000; stroke-linecap:round; stroke-linejoin:round; stroke-width:4; stroke-opacity:1; fill:none" points="237.055,269.087 252.047,269.087 "/>
<path clip-path="url(#clip000)" d="M130.337 1471.13 Q126.795 1471.13 124.712 1473.55 Q122.655 1475.98 122.655 1480.19 Q122.655 1484.39 124.712 1486.84 Q126.795 1489.26 130.337 1489.26 Q133.879 1489.26 135.936 1486.84 Q138.019 1484.39 138.019 1480.19 Q138.019 1475.98 135.936 1473.55 Q133.879 1471.13 130.337 1471.13 M140.78 1454.65 L140.78 1459.44 Q138.8 1458.5 136.769 1458.01 Q134.764 1457.51 132.785 1457.51 Q127.577 1457.51 124.816 1461.03 Q122.082 1464.54 121.691 1471.65 Q123.228 1469.39 125.545 1468.19 Q127.863 1466.97 130.649 1466.97 Q136.509 1466.97 139.894 1470.53 Q143.306 1474.07 143.306 1480.19 Q143.306 1486.18 139.764 1489.8 Q136.222 1493.42 130.337 1493.42 Q123.592 1493.42 120.025 1488.27 Q116.457 1483.09 116.457 1473.27 Q116.457 1464.05 120.832 1458.58 Q125.207 1453.09 132.577 1453.09 Q134.556 1453.09 136.561 1453.48 Q138.592 1453.87 140.78 1454.65 Z" fill="#000000" fill-rule="nonzero" fill-opacity="1" /><path clip-path="url(#clip000)" d="M163.618 1457.25 Q159.556 1457.25 157.498 1461.26 Q155.467 1465.25 155.467 1473.27 Q155.467 1481.26 157.498 1485.27 Q159.556 1489.26 163.618 1489.26 Q167.707 1489.26 169.738 1485.27 Q171.795 1481.26 171.795 1473.27 Q171.795 1465.25 169.738 1461.26 Q167.707 1457.25 163.618 1457.25 M163.618 1453.09 Q170.154 1453.09 173.592 1458.27 Q177.055 1463.42 177.055 1473.27 Q177.055 1483.09 173.592 1488.27 Q170.154 1493.42 163.618 1493.42 Q157.082 1493.42 153.618 1488.27 Q150.181 1483.09 150.181 1473.27 Q150.181 1463.42 153.618 1458.27 Q157.082 1453.09 163.618 1453.09 Z" fill="#000000" fill-rule="nonzero" fill-opacity="1" /><path clip-path="url(#clip000)" d="M117.108 1152.75 L142.108 1152.75 L142.108 1154.99 L127.993 1191.63 L122.498 1191.63 L135.78 1157.18 L117.108 1157.18 L117.108 1152.75 Z" fill="#000000" fill-rule="nonzero" fill-opacity="1" /><path clip-path="url(#clip000)" d="M163.618 1156.22 Q159.556 1156.22 157.498 1160.23 Q155.467 1164.21 155.467 1172.23 Q155.467 1180.23 157.498 1184.24 Q159.556 1188.22 163.618 1188.22 Q167.707 1188.22 169.738 1184.24 Q171.795 1180.23 171.795 1172.23 Q171.795 1164.21 169.738 1160.23 Q167.707 1156.22 163.618 1156.22 M163.618 1152.05 Q170.154 1152.05 173.592 1157.23 Q177.055 1162.39 177.055 1172.23 Q177.055 1182.05 173.592 1187.23 Q170.154 1192.39 163.618 1192.39 Q157.082 1192.39 153.618 1187.23 Q150.181 1182.05 150.181 1172.23 Q150.181 1162.39 153.618 1157.23 Q157.082 1152.05 163.618 1152.05 Z" fill="#000000" fill-rule="nonzero" fill-opacity="1" /><path clip-path="url(#clip000)" d="M129.686 872.134 Q125.936 872.134 123.775 874.14 Q121.639 876.145 121.639 879.66 Q121.639 883.176 123.775 885.181 Q125.936 887.186 129.686 887.186 Q133.436 887.186 135.597 885.181 Q137.759 883.15 137.759 879.66 Q137.759 876.145 135.597 874.14 Q133.462 872.134 129.686 872.134 M124.426 869.895 Q121.04 869.062 119.139 866.744 Q117.264 864.426 117.264 861.093 Q117.264 856.431 120.571 853.723 Q123.905 851.015 129.686 851.015 Q135.493 851.015 138.8 853.723 Q142.108 856.431 142.108 861.093 Q142.108 864.426 140.207 866.744 Q138.332 869.062 134.972 869.895 Q138.774 870.78 140.884 873.358 Q143.019 875.937 143.019 879.66 Q143.019 885.312 139.556 888.332 Q136.118 891.353 129.686 891.353 Q123.254 891.353 119.79 888.332 Q116.353 885.312 116.353 879.66 Q116.353 875.937 118.488 873.358 Q120.624 870.78 124.426 869.895 M122.498 861.588 Q122.498 864.608 124.373 866.301 Q126.275 867.994 129.686 867.994 Q133.071 867.994 134.972 866.301 Q136.899 864.608 136.899 861.588 Q136.899 858.567 134.972 856.874 Q133.071 855.181 129.686 855.181 Q126.275 855.181 124.373 856.874 Q122.498 858.567 122.498 861.588 Z" fill="#000000" fill-rule="nonzero" fill-opacity="1" /><path clip-path="url(#clip000)" d="M163.618 855.181 Q159.556 855.181 157.498 859.192 Q155.467 863.176 155.467 871.197 Q155.467 879.192 157.498 883.202 Q159.556 887.186 163.618 887.186 Q167.707 887.186 169.738 883.202 Q171.795 879.192 171.795 871.197 Q171.795 863.176 169.738 859.192 Q167.707 855.181 163.618 855.181 M163.618 851.015 Q170.154 851.015 173.592 856.197 Q177.055 861.353 177.055 871.197 Q177.055 881.015 173.592 886.197 Q170.154 891.353 163.618 891.353 Q157.082 891.353 153.618 886.197 Q150.181 881.015 150.181 871.197 Q150.181 861.353 153.618 856.197 Q157.082 851.015 163.618 851.015 Z" fill="#000000" fill-rule="nonzero" fill-opacity="1" /><path clip-path="url(#clip000)" d="M118.592 588.755 L118.592 583.964 Q120.571 584.901 122.603 585.396 Q124.634 585.891 126.587 585.891 Q131.795 585.891 134.53 582.401 Q137.29 578.886 137.681 571.75 Q136.17 573.99 133.853 575.188 Q131.535 576.386 128.722 576.386 Q122.889 576.386 119.478 572.87 Q116.092 569.328 116.092 563.209 Q116.092 557.219 119.634 553.599 Q123.176 549.98 129.061 549.98 Q135.806 549.98 139.347 555.162 Q142.915 560.318 142.915 570.162 Q142.915 579.354 138.54 584.849 Q134.191 590.318 126.821 590.318 Q124.842 590.318 122.811 589.927 Q120.78 589.537 118.592 588.755 M129.061 572.271 Q132.603 572.271 134.66 569.849 Q136.743 567.427 136.743 563.209 Q136.743 559.016 134.66 556.594 Q132.603 554.146 129.061 554.146 Q125.519 554.146 123.436 556.594 Q121.379 559.016 121.379 563.209 Q121.379 567.427 123.436 569.849 Q125.519 572.271 129.061 572.271 Z" fill="#000000" fill-rule="nonzero" fill-opacity="1" /><path clip-path="url(#clip000)" d="M163.618 554.146 Q159.556 554.146 157.498 558.157 Q155.467 562.141 155.467 570.162 Q155.467 578.156 157.498 582.167 Q159.556 586.151 163.618 586.151 Q167.707 586.151 169.738 582.167 Q171.795 578.156 171.795 570.162 Q171.795 562.141 169.738 558.157 Q167.707 554.146 163.618 554.146 M163.618 549.98 Q170.154 549.98 173.592 555.162 Q177.055 560.318 177.055 570.162 Q177.055 579.979 173.592 585.162 Q170.154 590.318 163.618 590.318 Q157.082 590.318 153.618 585.162 Q150.181 579.979 150.181 570.162 Q150.181 560.318 153.618 555.162 Q157.082 549.98 163.618 549.98 Z" fill="#000000" fill-rule="nonzero" fill-opacity="1" /><path clip-path="url(#clip000)" d="M85.4154 284.1 L94.0091 284.1 L94.0091 254.439 L84.6602 256.314 L84.6602 251.522 L93.957 249.647 L99.2174 249.647 L99.2174 284.1 L107.811 284.1 L107.811 288.527 L85.4154 288.527 L85.4154 284.1 Z" fill="#000000" fill-rule="nonzero" fill-opacity="1" /><path clip-path="url(#clip000)" d="M129.686 253.111 Q125.623 253.111 123.566 257.121 Q121.535 261.106 121.535 269.126 Q121.535 277.121 123.566 281.132 Q125.623 285.116 129.686 285.116 Q133.774 285.116 135.806 281.132 Q137.863 277.121 137.863 269.126 Q137.863 261.106 135.806 257.121 Q133.774 253.111 129.686 253.111 M129.686 248.944 Q136.222 248.944 139.66 254.127 Q143.123 259.283 143.123 269.126 Q143.123 278.944 139.66 284.126 Q136.222 289.283 129.686 289.283 Q123.15 289.283 119.686 284.126 Q116.249 278.944 116.249 269.126 Q116.249 259.283 119.686 254.127 Q123.15 248.944 129.686 248.944 Z" fill="#000000" fill-rule="nonzero" fill-opacity="1" /><path clip-path="url(#clip000)" d="M163.618 253.111 Q159.556 253.111 157.498 257.121 Q155.467 261.106 155.467 269.126 Q155.467 277.121 157.498 281.132 Q159.556 285.116 163.618 285.116 Q167.707 285.116 169.738 281.132 Q171.795 277.121 171.795 269.126 Q171.795 261.106 169.738 257.121 Q167.707 253.111 163.618 253.111 M163.618 248.944 Q170.154 248.944 173.592 254.127 Q177.055 259.283 177.055 269.126 Q177.055 278.944 173.592 284.126 Q170.154 289.283 163.618 289.283 Q157.082 289.283 153.618 284.126 Q150.181 278.944 150.181 269.126 Q150.181 259.283 153.618 254.127 Q157.082 248.944 163.618 248.944 Z" fill="#000000" fill-rule="nonzero" fill-opacity="1" /><path clip-path="url(#clip000)" d="M-31.4998 930.013 L-31.4998 924.168 L11.7002 924.168 L11.7002 930.013 L-31.4998 930.013 Z" fill="#000000" fill-rule="nonzero" fill-opacity="1" /><path clip-path="url(#clip000)" d="M-7.85992 885.829 L11.7002 885.829 L11.7002 891.153 L-7.68631 891.153 Q-12.287 891.153 -14.5728 892.947 Q-16.8587 894.741 -16.8587 898.329 Q-16.8587 902.641 -14.1099 905.129 Q-11.3611 907.618 -6.61572 907.618 L11.7002 907.618 L11.7002 912.97 L-20.7071 912.97 L-20.7071 907.618 L-15.6724 907.618 Q-18.5948 905.708 -20.0416 903.133 Q-21.4883 900.528 -21.4883 897.143 Q-21.4883 891.559 -18.0161 888.694 Q-14.5728 885.829 -7.85992 885.829 Z" fill="#000000" fill-rule="nonzero" fill-opacity="1" /><path clip-path="url(#clip000)" d="M-33.3227 858.804 L-28.8957 858.804 L-28.8957 863.897 Q-28.8957 866.761 -27.7383 867.89 Q-26.5809 868.989 -23.5716 868.989 L-20.7071 868.989 L-20.7071 860.222 L-16.5694 860.222 L-16.5694 868.989 L11.7002 868.989 L11.7002 874.342 L-16.5694 874.342 L-16.5694 879.435 L-20.7071 879.435 L-20.7071 874.342 L-22.964 874.342 Q-28.3749 874.342 -30.8343 871.825 Q-33.3227 869.308 -33.3227 863.839 L-33.3227 858.804 Z" fill="#000000" fill-rule="nonzero" fill-opacity="1" /><path clip-path="url(#clip000)" d="M-33.3227 854.348 L-33.3227 849.024 L11.7002 849.024 L11.7002 854.348 L-33.3227 854.348 Z" fill="#000000" fill-rule="nonzero" fill-opacity="1" /><path clip-path="url(#clip000)" d="M-16.9745 825.326 Q-16.9745 829.609 -13.618 832.097 Q-10.2905 834.585 -4.47452 834.585 Q1.34142 834.585 4.69788 832.126 Q8.02541 829.638 8.02541 825.326 Q8.02541 821.073 4.66895 818.584 Q1.31248 816.096 -4.47452 816.096 Q-10.2326 816.096 -13.5891 818.584 Q-16.9745 821.073 -16.9745 825.326 M-21.4883 825.326 Q-21.4883 818.382 -16.9745 814.418 Q-12.4606 810.454 -4.47452 810.454 Q3.48261 810.454 8.02541 814.418 Q12.5393 818.382 12.5393 825.326 Q12.5393 832.3 8.02541 836.264 Q3.48261 840.199 -4.47452 840.199 Q-12.4606 840.199 -16.9745 836.264 Q-21.4883 832.3 -21.4883 825.326 Z" fill="#000000" fill-rule="nonzero" fill-opacity="1" /><path clip-path="url(#clip000)" d="M-20.7071 804.725 L-20.7071 799.4 L4.58214 792.745 L-20.7071 786.119 L-20.7071 779.84 L4.58214 773.185 L-20.7071 766.559 L-20.7071 761.235 L11.7002 769.713 L11.7002 775.992 L-14.8622 782.965 L11.7002 789.968 L11.7002 796.247 L-20.7071 804.725 Z" fill="#000000" fill-rule="nonzero" fill-opacity="1" /><path clip-path="url(#clip000)" d="M-33.3227 734.818 L-33.3227 722.549 L-29.185 722.549 L-29.185 729.493 L15.3749 729.493 L15.3749 722.549 L19.5126 722.549 L19.5126 734.818 L-33.3227 734.818 Z" fill="#000000" fill-rule="nonzero" fill-opacity="1" /><path clip-path="url(#clip000)" d="M-31.4998 710.975 L-31.4998 705.13 L6.7812 705.13 L6.7812 684.094 L11.7002 684.094 L11.7002 710.975 L-31.4998 710.975 Z" fill="#000000" fill-rule="nonzero" fill-opacity="1" /><path clip-path="url(#clip000)" d="M-31.4998 668.73 L-31.4998 663.811 L17.1978 678.857 L17.1978 683.776 L-31.4998 668.73 Z" fill="#000000" fill-rule="nonzero" fill-opacity="1" /><path clip-path="url(#clip000)" d="M-19.7522 637.567 L-14.7175 637.567 Q-15.8749 639.824 -16.4536 642.254 Q-17.0323 644.685 -17.0323 647.289 Q-17.0323 651.253 -15.8171 653.25 Q-14.6018 655.217 -12.1712 655.217 Q-10.3194 655.217 -9.2488 653.799 Q-8.20714 652.382 -7.25229 648.099 L-6.8472 646.276 Q-5.63193 640.605 -3.40393 638.232 Q-1.20487 635.831 2.75923 635.831 Q7.2731 635.831 9.90619 639.419 Q12.5393 642.978 12.5393 649.228 Q12.5393 651.832 12.0184 654.667 Q11.5265 657.474 10.5138 660.599 L5.01617 660.599 Q6.54972 657.648 7.33097 654.783 Q8.08328 651.919 8.08328 649.112 Q8.08328 645.35 6.81014 643.325 Q5.50806 641.299 3.16432 641.299 Q0.994196 641.299 -0.163205 642.775 Q-1.32061 644.222 -2.3912 649.17 L-2.82523 651.022 Q-3.86689 655.97 -6.00808 658.169 Q-8.17821 660.368 -11.9398 660.368 Q-16.5115 660.368 -18.9999 657.127 Q-21.4883 653.886 -21.4883 647.926 Q-21.4883 644.974 -21.0543 642.37 Q-20.6203 639.766 -19.7522 637.567 Z" fill="#000000" fill-rule="nonzero" fill-opacity="1" /><path clip-path="url(#clip000)" d="M-33.3227 614.911 L19.5126 614.911 L19.5126 627.179 L15.3749 627.179 L15.3749 620.264 L-29.185 620.264 L-29.185 627.179 L-33.3227 627.179 L-33.3227 614.911 Z" fill="#000000" fill-rule="nonzero" fill-opacity="1" /><polyline clip-path="url(#clip002)" style="stroke:#023eff; stroke-linecap:round; stroke-linejoin:round; stroke-width:5; stroke-opacity:1; fill:none" points="320.479,1276.1 337.13,1368.64 353.781,1368.64 370.433,1456.63 387.084,1456.63 403.735,1368.64 420.387,949.686 437.038,163.494 453.689,163.494 470.341,373.365 486.992,373.365 503.643,539.173 520.295,539.173 536.946,617.296 553.597,617.296 570.249,718.937 586.9,817.308 603.551,718.937 620.203,617.296 636.854,473.912 653.505,473.912 670.157,617.296 686.808,949.686 703.459,1090.41 720.111,1304.09 736.762,1403.36 753.413,1450.99 770.065,1450.99 786.716,1450.99 803.367,1363.93 820.019,874.078 836.67,147.35 853.321,272.912 869.973,423.244 886.624,538.658 903.275,577.981 919.927,577.981 936.578,577.981 953.229,634.492 969.881,708.293 986.532,778.21 1003.18,708.293 1019.83,634.492 1036.49,668.227 1053.14,668.227 1069.79,634.492 1086.44,833.398 1103.09,979.995 1119.74,1200.8 1136.39,1403.36 1153.05,1450.99 1169.7,1450.99 1186.35,1450.99 1203,1363.93 1219.65,874.078 1236.3,147.35 1252.95,147.35 1269.6,423.244 1286.26,538.658 1302.91,577.981 1319.56,577.981 1336.21,577.981 1352.86,634.492 1369.51,634.492 1386.16,708.293 1402.82,634.492 1419.47,538.658 1436.12,668.227 1452.77,668.227 1469.42,577.981 1486.07,778.21 1502.72,1074.89 1519.37,1304.09 1536.03,1403.36 1552.68,1450.99 1569.33,1403.36 1585.98,1450.99 1602.63,1363.93 1619.28,874.078 1635.93,147.35 1652.59,147.35 1669.24,423.244 1685.89,462.374 1702.54,577.981 1719.19,577.981 1735.84,577.981 1752.49,634.492 1769.14,708.293 1785.8,708.293 1802.45,708.293 1819.1,577.981 1835.75,462.374 1852.4,462.374 1869.05,577.981 1885.7,778.21 1902.36,979.995 1919.01,1200.8 1935.66,1363.93 1952.31,1450.99 1968.96,1450.99 1985.61,1450.99 2002.26,1304.09 2018.91,874.078 2035.57,147.35 2052.22,147.35 2068.87,272.912 2085.52,462.374 2102.17,577.981 2118.82,577.981 2135.47,577.981 2152.13,634.492 2168.78,634.492 2185.43,708.293 2202.08,634.492 2218.73,577.981 2235.38,462.374 2252.03,577.981 2268.68,708.293 2285.34,881.489 2301.99,979.995 2318.64,1200.8 2335.29,1363.93 2351.94,1450.99 2368.59,1403.36 2385.24,1403.36 2401.9,1363.93 2418.55,1200.8 2435.2,644.883 2451.85,272.912 2468.5,147.35 2485.15,147.35 2501.8,272.912 2518.45,423.244 2535.11,462.374 2551.76,538.658 2568.41,634.492 2585.06,634.492 2601.71,708.293 2618.36,634.492 2635.01,577.981 2651.67,634.492 2668.32,778.21 2684.97,979.995 2701.62,979.995 2718.27,1200.8 2734.92,1304.09 2751.57,1363.93 2768.22,1450.99 2784.88,1450.99 2801.53,1363.93 2818.18,1200.8 2834.83,1301.34 2851.48,147.35 2868.13,147.35 2884.78,147.35 2901.44,462.374 2918.09,462.374 2934.74,577.981 2951.39,708.293 2968.04,778.21 2984.69,778.21 3001.34,708.293 3017.99,634.492 3034.65,577.981 3051.3,634.492 3067.95,833.398 3084.6,979.995 3101.25,1074.89 "/>
<polyline clip-path="url(#clip002)" style="stroke:#ff7c00; stroke-linecap:round; stroke-linejoin:round; stroke-width:5; stroke-opacity:1; fill:none" points="320.479,1275.53 337.13,1287.07 353.781,1362.88 370.433,1449.67 387.084,1449.67 403.735,1362.88 420.387,935.526 437.038,98.0194 453.689,98.0194 470.341,182.973 486.992,390.515 503.643,500.671 520.295,500.671 536.946,577.001 553.597,652.832 570.249,796.453 586.9,796.453 603.551,706.493 620.203,577.001 636.854,476.644 653.505,304.231 670.157,577.001 686.808,796.453 703.459,1042.23 720.111,1324.26 736.762,1382.37 753.413,1448.19 770.065,1448.19 786.716,1448.19 803.367,1324.26 820.019,895.546 836.67,98.0194 853.321,262.02 869.973,343.897 886.624,507.359 903.275,621.098 919.927,621.098 936.578,621.098 953.229,621.098 969.881,702.58 986.532,770.045 1003.18,702.58 1019.83,621.098 1036.49,451.588 1053.14,451.588 1069.79,592.69 1086.44,842.894 1103.09,1063.75 1119.74,1256.44 1136.39,1382.37 1153.05,1448.19 1169.7,1448.19 1186.35,1448.19 1203,1324.26 1219.65,895.546 1236.3,98.0194 1252.95,98.0194 1269.6,343.897 1286.26,507.359 1302.91,621.098 1319.56,621.098 1336.21,621.098 1352.86,621.098 1369.51,621.098 1386.16,702.58 1402.82,702.58 1419.47,507.359 1436.12,343.897 1452.77,343.897 1469.42,592.69 1486.07,770.045 1502.72,1063.75 1519.37,1256.44 1536.03,1382.37 1552.68,1448.19 1569.33,1382.37 1585.98,1448.19 1602.63,1324.26 1619.28,895.546 1635.93,98.0194 1652.59,98.0194 1669.24,343.897 1685.89,451.588 1702.54,621.098 1719.19,621.098 1735.84,621.098 1752.49,621.098 1769.14,702.58 1785.8,702.58 1802.45,702.58 1819.1,621.098 1835.75,451.588 1852.4,451.588 1869.05,592.69 1885.7,770.045 1902.36,1063.75 1919.01,1256.44 1935.66,1382.37 1952.31,1448.19 1968.96,1448.19 1985.61,1448.19 2002.26,1324.26 2018.91,895.546 2035.57,98.0194 2052.22,98.0194 2068.87,262.02 2085.52,451.588 2102.17,621.098 2118.82,621.098 2135.47,621.098 2152.13,621.098 2168.78,621.098 2185.43,702.58 2202.08,621.098 2218.73,621.098 2235.38,451.588 2252.03,592.69 2268.68,702.58 2285.34,969.267 2301.99,1063.75 2318.64,1256.44 2335.29,1324.26 2351.94,1448.19 2368.59,1382.37 2385.24,1448.19 2401.9,1382.37 2418.55,1175.53 2435.2,702.58 2451.85,262.02 2468.5,98.0194 2485.15,98.0194 2501.8,262.02 2518.45,451.588 2535.11,451.588 2551.76,507.359 2568.41,621.098 2585.06,621.098 2601.71,702.58 2618.36,621.098 2635.01,592.69 2651.67,592.69 2668.32,770.045 2684.97,969.267 2701.62,1063.75 2718.27,1256.44 2734.92,1324.26 2751.57,1382.37 2768.22,1448.19 2784.88,1448.19 2801.53,1324.26 2818.18,1175.53 2834.83,494.196 2851.48,98.0194 2868.13,98.0194 2884.78,98.0194 2901.44,451.588 2918.09,451.588 2934.74,621.098 2951.39,702.58 2968.04,770.045 2984.69,770.045 3001.34,702.58 3017.99,621.098 3034.65,592.69 3051.3,592.69 3067.95,842.894 3084.6,969.267 3101.25,1063.75 "/>
<polyline clip-path="url(#clip002)" style="stroke:#1ac938; stroke-linecap:round; stroke-linejoin:round; stroke-width:5; stroke-opacity:1; fill:none" points="320.479,1274.32 337.13,1274.32 353.781,1383.52 370.433,1451.81 387.084,1383.52 403.735,1383.52 420.387,876.096 437.038,96.3167 453.689,96.3167 470.341,264.759 486.992,469.472 503.643,575.016 520.295,575.016 536.946,575.016 553.597,651.388 570.249,716.934 586.9,716.934 603.551,716.934 620.203,575.016 636.854,421.831 653.505,421.831 670.157,651.388 686.808,716.934 703.459,1044.7 720.111,1241.79 736.762,1353.5 753.413,1438.22 770.065,1438.22 786.716,1438.22 803.367,1353.5 820.019,876.096 836.67,91.3671 853.321,91.3671 869.973,276.425 886.624,568.35 903.275,568.35 919.927,568.35 936.578,568.35 953.229,644.85 969.881,716.934 986.532,716.934 1003.18,716.934 1019.83,568.35 1036.49,419.061 1053.14,419.061 1069.79,568.35 1086.44,876.096 1103.09,1044.7 1119.74,1241.79 1136.39,1353.5 1153.05,1438.22 1169.7,1438.22 1186.35,1438.22 1203,1353.5 1219.65,876.096 1236.3,91.3671 1252.95,91.3671 1269.6,276.425 1286.26,568.35 1302.91,568.35 1319.56,568.35 1336.21,568.35 1352.86,568.35 1369.51,644.85 1386.16,716.934 1402.82,644.85 1419.47,568.35 1436.12,419.061 1452.77,419.061 1469.42,568.35 1486.07,716.934 1502.72,1044.7 1519.37,1241.79 1536.03,1438.22 1552.68,1438.22 1569.33,1438.22 1585.98,1438.22 1602.63,1353.5 1619.28,876.096 1635.93,91.3671 1652.59,91.3671 1669.24,276.425 1685.89,419.061 1702.54,568.35 1719.19,568.35 1735.84,568.35 1752.49,568.35 1769.14,716.934 1785.8,716.934 1802.45,716.934 1819.1,568.35 1835.75,419.061 1852.4,419.061 1869.05,568.35 1885.7,716.934 1902.36,1044.7 1919.01,1241.79 1935.66,1353.5 1952.31,1438.22 1968.96,1438.22 1985.61,1438.22 2002.26,1241.79 2018.91,876.096 2035.57,91.3671 2052.22,91.3671 2068.87,276.425 2085.52,419.061 2102.17,568.35 2118.82,568.35 2135.47,568.35 2152.13,568.35 2168.78,644.85 2185.43,716.934 2202.08,644.85 2218.73,568.35 2235.38,419.061 2252.03,568.35 2268.68,716.934 2285.34,876.096 2301.99,1044.7 2318.64,1241.79 2335.29,1353.5 2351.94,1438.22 2368.59,1438.22 2385.24,1438.22 2401.9,1353.5 2418.55,876.096 2435.2,716.934 2451.85,91.3671 2468.5,91.3671 2485.15,159.149 2501.8,419.061 2518.45,419.061 2535.11,419.061 2551.76,568.35 2568.41,568.35 2585.06,644.85 2601.71,716.934 2618.36,644.85 2635.01,568.35 2651.67,568.35 2668.32,716.934 2684.97,876.096 2701.62,1044.7 2718.27,1241.79 2734.92,1241.79 2751.57,1353.5 2768.22,1438.22 2784.88,1438.22 2801.53,1353.5 2818.18,876.096 2834.83,276.425 2851.48,91.3671 2868.13,91.3671 2884.78,159.149 2901.44,419.061 2918.09,419.061 2934.74,568.35 2951.39,716.934 2968.04,716.934 2984.69,716.934 3001.34,716.934 3017.99,568.35 3034.65,568.35 3051.3,644.85 3067.95,876.096 3084.6,876.096 3101.25,1044.7 "/>
<polyline clip-path="url(#clip002)" style="stroke:#e8000b; stroke-linecap:round; stroke-linejoin:round; stroke-width:5; stroke-opacity:1; fill:none" points="320.479,1234.68 337.13,1340.37 353.781,1340.37 370.433,1424.18 387.084,1424.18 403.735,1340.37 420.387,611.364 437.038,116.982 453.689,116.982 470.341,280.054 486.992,432.053 503.643,565.25 520.295,565.25 536.946,565.25 553.597,565.25 570.249,696.131 586.9,696.131 603.551,696.131 620.203,565.25 636.854,432.053 653.505,432.053 670.157,565.25 686.808,696.131 703.459,850.928 720.111,1259.04 736.762,1410.76 753.413,1410.76 770.065,1410.76 786.716,1410.76 803.367,1259.04 820.019,856.199 836.67,88.2942 853.321,392.646 869.973,392.646 886.624,573.365 903.275,573.365 919.927,573.365 936.578,573.365 953.229,708.373 969.881,708.373 986.532,708.373 1003.18,708.373 1019.83,573.365 1036.49,392.646 1053.14,392.646 1069.79,573.365 1086.44,856.199 1103.09,1048.1 1119.74,1259.04 1136.39,1410.76 1153.05,1410.76 1169.7,1410.76 1186.35,1410.76 1203,1259.04 1219.65,856.199 1236.3,88.2942 1252.95,88.2942 1269.6,392.646 1286.26,573.365 1302.91,573.365 1319.56,573.365 1336.21,573.365 1352.86,573.365 1369.51,708.373 1386.16,708.373 1402.82,708.373 1419.47,573.365 1436.12,392.646 1452.77,392.646 1469.42,573.365 1486.07,708.373 1502.72,1048.1 1519.37,1259.04 1536.03,1410.76 1552.68,1410.76 1569.33,1410.76 1585.98,1410.76 1602.63,1259.04 1619.28,856.199 1635.93,88.2942 1652.59,88.2942 1669.24,392.646 1685.89,392.646 1702.54,573.365 1719.19,573.365 1735.84,573.365 1752.49,573.365 1769.14,708.373 1785.8,708.373 1802.45,708.373 1819.1,573.365 1835.75,392.646 1852.4,392.646 1869.05,573.365 1885.7,708.373 1902.36,856.199 1919.01,1259.04 1935.66,1410.76 1952.31,1410.76 1968.96,1410.76 1985.61,1410.76 2002.26,1259.04 2018.91,856.199 2035.57,88.2942 2052.22,88.2942 2068.87,392.646 2085.52,392.646 2102.17,573.365 2118.82,573.365 2135.47,573.365 2152.13,573.365 2168.78,708.373 2185.43,708.373 2202.08,708.373 2218.73,573.365 2235.38,392.646 2252.03,573.365 2268.68,708.373 2285.34,856.199 2301.99,1048.1 2318.64,1259.04 2335.29,1259.04 2351.94,1410.76 2368.59,1410.76 2385.24,1410.76 2401.9,1410.76 2418.55,1048.1 2435.2,708.373 2451.85,392.646 2468.5,88.2942 2485.15,88.2942 2501.8,392.646 2518.45,392.646 2535.11,392.646 2551.76,573.365 2568.41,573.365 2585.06,708.373 2601.71,708.373 2618.36,708.373 2635.01,573.365 2651.67,573.365 2668.32,708.373 2684.97,856.199 2701.62,1048.1 2718.27,1259.04 2734.92,1259.04 2751.57,1410.76 2768.22,1410.76 2784.88,1410.76 2801.53,1259.04 2818.18,1048.1 2834.83,573.365 2851.48,88.2942 2868.13,88.2942 2884.78,88.2942 2901.44,392.646 2918.09,392.646 2934.74,573.365 2951.39,708.373 2968.04,708.373 2984.69,708.373 3001.34,708.373 3017.99,573.365 3034.65,573.365 3051.3,708.373 3067.95,856.199 3084.6,1048.1 3101.25,1048.1 "/>
<path clip-path="url(#clip000)" d="M3308.53 445.512 L3952.76 445.512 L3952.76 95.592 L3308.53 95.592  Z" fill="#ffffff" fill-rule="evenodd" fill-opacity="1"/>
<polyline clip-path="url(#clip000)" style="stroke:#000000; stroke-linecap:round; stroke-linejoin:round; stroke-width:4; stroke-opacity:1; fill:none" points="3308.53,445.512 3952.76,445.512 3952.76,95.592 3308.53,95.592 3308.53,445.512 "/>
<polyline clip-path="url(#clip000)" style="stroke:#023eff; stroke-linecap:round; stroke-linejoin:round; stroke-width:5.625; stroke-opacity:1; fill:none" points="3349.82,153.912 3597.53,153.912 "/>
<path clip-path="url(#clip000)" d="M3643.63 168.977 L3643.63 184.446 L3638.82 184.446 L3638.82 144.185 L3643.63 144.185 L3643.63 148.613 Q3645.14 146.008 3647.44 144.758 Q3649.75 143.482 3652.96 143.482 Q3658.27 143.482 3661.58 147.701 Q3664.91 151.92 3664.91 158.795 Q3664.91 165.67 3661.58 169.888 Q3658.27 174.107 3652.96 174.107 Q3649.75 174.107 3647.44 172.857 Q3645.14 171.581 3643.63 168.977 M3659.94 158.795 Q3659.94 153.508 3657.75 150.514 Q3655.59 147.493 3651.78 147.493 Q3647.98 147.493 3645.79 150.514 Q3643.63 153.508 3643.63 158.795 Q3643.63 164.081 3645.79 167.102 Q3647.98 170.097 3651.78 170.097 Q3655.59 170.097 3657.75 167.102 Q3659.94 164.081 3659.94 158.795 Z" fill="#000000" fill-rule="nonzero" fill-opacity="1" /><path clip-path="url(#clip000)" d="M3689.75 148.665 Q3688.95 148.196 3687.98 147.988 Q3687.04 147.753 3685.9 147.753 Q3681.84 147.753 3679.65 150.409 Q3677.49 153.04 3677.49 157.987 L3677.49 173.352 L3672.67 173.352 L3672.67 144.185 L3677.49 144.185 L3677.49 148.717 Q3679 146.06 3681.42 144.784 Q3683.84 143.482 3687.3 143.482 Q3687.8 143.482 3688.4 143.56 Q3689 143.613 3689.73 143.743 L3689.75 148.665 Z" fill="#000000" fill-rule="nonzero" fill-opacity="1" /><path clip-path="url(#clip000)" d="M3718.55 157.571 L3718.55 159.915 L3696.52 159.915 Q3696.84 164.862 3699.49 167.467 Q3702.17 170.045 3706.94 170.045 Q3709.7 170.045 3712.28 169.368 Q3714.88 168.691 3717.43 167.336 L3717.43 171.868 Q3714.86 172.961 3712.15 173.534 Q3709.44 174.107 3706.65 174.107 Q3699.67 174.107 3695.59 170.045 Q3691.52 165.982 3691.52 159.055 Q3691.52 151.894 3695.38 147.701 Q3699.26 143.482 3705.82 143.482 Q3711.71 143.482 3715.12 147.284 Q3718.55 151.06 3718.55 157.571 M3713.76 156.165 Q3713.71 152.232 3711.55 149.889 Q3709.41 147.545 3705.87 147.545 Q3701.86 147.545 3699.44 149.81 Q3697.04 152.076 3696.68 156.191 L3713.76 156.165 Z" fill="#000000" fill-rule="nonzero" fill-opacity="1" /><path clip-path="url(#clip000)" d="M3745.61 148.613 L3745.61 132.831 L3750.4 132.831 L3750.4 173.352 L3745.61 173.352 L3745.61 168.977 Q3744.1 171.581 3741.78 172.857 Q3739.49 174.107 3736.26 174.107 Q3730.98 174.107 3727.64 169.888 Q3724.34 165.67 3724.34 158.795 Q3724.34 151.92 3727.64 147.701 Q3730.98 143.482 3736.26 143.482 Q3739.49 143.482 3741.78 144.758 Q3744.1 146.008 3745.61 148.613 M3729.28 158.795 Q3729.28 164.081 3731.45 167.102 Q3733.63 170.097 3737.43 170.097 Q3741.24 170.097 3743.42 167.102 Q3745.61 164.081 3745.61 158.795 Q3745.61 153.508 3743.42 150.514 Q3741.24 147.493 3737.43 147.493 Q3733.63 147.493 3731.45 150.514 Q3729.28 153.508 3729.28 158.795 Z" fill="#000000" fill-rule="nonzero" fill-opacity="1" /><path clip-path="url(#clip000)" d="M3760.27 144.185 L3765.06 144.185 L3765.06 173.352 L3760.27 173.352 L3760.27 144.185 M3760.27 132.831 L3765.06 132.831 L3765.06 138.899 L3760.27 138.899 L3760.27 132.831 Z" fill="#000000" fill-rule="nonzero" fill-opacity="1" /><path clip-path="url(#clip000)" d="M3796.08 145.305 L3796.08 149.784 Q3794.05 148.665 3791.99 148.118 Q3789.96 147.545 3787.88 147.545 Q3783.22 147.545 3780.64 150.514 Q3778.06 153.456 3778.06 158.795 Q3778.06 164.133 3780.64 167.102 Q3783.22 170.045 3787.88 170.045 Q3789.96 170.045 3791.99 169.498 Q3794.05 168.925 3796.08 167.805 L3796.08 172.232 Q3794.08 173.17 3791.91 173.638 Q3789.78 174.107 3787.36 174.107 Q3780.77 174.107 3776.89 169.967 Q3773.01 165.826 3773.01 158.795 Q3773.01 151.659 3776.91 147.571 Q3780.85 143.482 3787.67 143.482 Q3789.88 143.482 3791.99 143.951 Q3794.1 144.394 3796.08 145.305 Z" fill="#000000" fill-rule="nonzero" fill-opacity="1" /><path clip-path="url(#clip000)" d="M3809.15 135.904 L3809.15 144.185 L3819.02 144.185 L3819.02 147.909 L3809.15 147.909 L3809.15 163.743 Q3809.15 167.31 3810.12 168.326 Q3811.11 169.342 3814.1 169.342 L3819.02 169.342 L3819.02 173.352 L3814.1 173.352 Q3808.55 173.352 3806.44 171.295 Q3804.34 169.211 3804.34 163.743 L3804.34 147.909 L3800.82 147.909 L3800.82 144.185 L3804.34 144.185 L3804.34 135.904 L3809.15 135.904 Z" fill="#000000" fill-rule="nonzero" fill-opacity="1" /><path clip-path="url(#clip000)" d="M3847.49 182.206 L3847.49 185.93 L3819.78 185.93 L3819.78 182.206 L3847.49 182.206 Z" fill="#000000" fill-rule="nonzero" fill-opacity="1" /><path clip-path="url(#clip000)" d="M3852.72 134.472 L3873.37 134.472 L3873.37 138.899 L3857.54 138.899 L3857.54 148.43 Q3858.68 148.04 3859.83 147.857 Q3860.98 147.649 3862.12 147.649 Q3868.63 147.649 3872.43 151.217 Q3876.24 154.784 3876.24 160.878 Q3876.24 167.154 3872.33 170.644 Q3868.42 174.107 3861.31 174.107 Q3858.87 174.107 3856.31 173.69 Q3853.79 173.274 3851.08 172.441 L3851.08 167.154 Q3853.42 168.43 3855.92 169.055 Q3858.42 169.68 3861.21 169.68 Q3865.72 169.68 3868.35 167.31 Q3870.98 164.941 3870.98 160.878 Q3870.98 156.816 3868.35 154.446 Q3865.72 152.076 3861.21 152.076 Q3859.1 152.076 3856.99 152.545 Q3854.91 153.014 3852.72 154.003 L3852.72 134.472 Z" fill="#000000" fill-rule="nonzero" fill-opacity="1" /><path clip-path="url(#clip000)" d="M3891.13 168.925 L3909.49 168.925 L3909.49 173.352 L3884.8 173.352 L3884.8 168.925 Q3887.8 165.826 3892.95 160.618 Q3898.14 155.383 3899.47 153.873 Q3901.99 151.034 3902.98 149.081 Q3904 147.102 3904 145.201 Q3904 142.102 3901.81 140.149 Q3899.65 138.196 3896.16 138.196 Q3893.68 138.196 3890.92 139.055 Q3888.19 139.915 3885.06 141.659 L3885.06 136.347 Q3888.24 135.071 3891 134.42 Q3893.76 133.769 3896.05 133.769 Q3902.1 133.769 3905.69 136.79 Q3909.28 139.81 3909.28 144.863 Q3909.28 147.258 3908.37 149.42 Q3907.49 151.555 3905.12 154.472 Q3904.47 155.227 3900.98 158.847 Q3897.49 162.441 3891.13 168.925 Z" fill="#000000" fill-rule="nonzero" fill-opacity="1" /><polyline clip-path="url(#clip000)" style="stroke:#ff7c00; stroke-linecap:round; stroke-linejoin:round; stroke-width:5.625; stroke-opacity:1; fill:none" points="3349.82,212.232 3597.53,212.232 "/>
<path clip-path="url(#clip000)" d="M3643.63 227.297 L3643.63 242.766 L3638.82 242.766 L3638.82 202.505 L3643.63 202.505 L3643.63 206.933 Q3645.14 204.328 3647.44 203.078 Q3649.75 201.802 3652.96 201.802 Q3658.27 201.802 3661.58 206.021 Q3664.91 210.24 3664.91 217.115 Q3664.91 223.99 3661.58 228.208 Q3658.27 232.427 3652.96 232.427 Q3649.75 232.427 3647.44 231.177 Q3645.14 229.901 3643.63 227.297 M3659.94 217.115 Q3659.94 211.828 3657.75 208.834 Q3655.59 205.813 3651.78 205.813 Q3647.98 205.813 3645.79 208.834 Q3643.63 211.828 3643.63 217.115 Q3643.63 222.401 3645.79 225.422 Q3647.98 228.417 3651.78 228.417 Q3655.59 228.417 3657.75 225.422 Q3659.94 222.401 3659.94 217.115 Z" fill="#000000" fill-rule="nonzero" fill-opacity="1" /><path clip-path="url(#clip000)" d="M3689.75 206.985 Q3688.95 206.516 3687.98 206.308 Q3687.04 206.073 3685.9 206.073 Q3681.84 206.073 3679.65 208.729 Q3677.49 211.36 3677.49 216.307 L3677.49 231.672 L3672.67 231.672 L3672.67 202.505 L3677.49 202.505 L3677.49 207.037 Q3679 204.38 3681.42 203.104 Q3683.84 201.802 3687.3 201.802 Q3687.8 201.802 3688.4 201.88 Q3689 201.933 3689.73 202.063 L3689.75 206.985 Z" fill="#000000" fill-rule="nonzero" fill-opacity="1" /><path clip-path="url(#clip000)" d="M3718.55 215.891 L3718.55 218.235 L3696.52 218.235 Q3696.84 223.182 3699.49 225.787 Q3702.17 228.365 3706.94 228.365 Q3709.7 228.365 3712.28 227.688 Q3714.88 227.011 3717.43 225.656 L3717.43 230.188 Q3714.86 231.281 3712.15 231.854 Q3709.44 232.427 3706.65 232.427 Q3699.67 232.427 3695.59 228.365 Q3691.52 224.302 3691.52 217.375 Q3691.52 210.214 3695.38 206.021 Q3699.26 201.802 3705.82 201.802 Q3711.71 201.802 3715.12 205.604 Q3718.55 209.38 3718.55 215.891 M3713.76 214.485 Q3713.71 210.552 3711.55 208.209 Q3709.41 205.865 3705.87 205.865 Q3701.86 205.865 3699.44 208.13 Q3697.04 210.396 3696.68 214.511 L3713.76 214.485 Z" fill="#000000" fill-rule="nonzero" fill-opacity="1" /><path clip-path="url(#clip000)" d="M3745.61 206.933 L3745.61 191.151 L3750.4 191.151 L3750.4 231.672 L3745.61 231.672 L3745.61 227.297 Q3744.1 229.901 3741.78 231.177 Q3739.49 232.427 3736.26 232.427 Q3730.98 232.427 3727.64 228.208 Q3724.34 223.99 3724.34 217.115 Q3724.34 210.24 3727.64 206.021 Q3730.98 201.802 3736.26 201.802 Q3739.49 201.802 3741.78 203.078 Q3744.1 204.328 3745.61 206.933 M3729.28 217.115 Q3729.28 222.401 3731.45 225.422 Q3733.63 228.417 3737.43 228.417 Q3741.24 228.417 3743.42 225.422 Q3745.61 222.401 3745.61 217.115 Q3745.61 211.828 3743.42 208.834 Q3741.24 205.813 3737.43 205.813 Q3733.63 205.813 3731.45 208.834 Q3729.28 211.828 3729.28 217.115 Z" fill="#000000" fill-rule="nonzero" fill-opacity="1" /><path clip-path="url(#clip000)" d="M3760.27 202.505 L3765.06 202.505 L3765.06 231.672 L3760.27 231.672 L3760.27 202.505 M3760.27 191.151 L3765.06 191.151 L3765.06 197.219 L3760.27 197.219 L3760.27 191.151 Z" fill="#000000" fill-rule="nonzero" fill-opacity="1" /><path clip-path="url(#clip000)" d="M3796.08 203.625 L3796.08 208.104 Q3794.05 206.985 3791.99 206.438 Q3789.96 205.865 3787.88 205.865 Q3783.22 205.865 3780.64 208.834 Q3778.06 211.776 3778.06 217.115 Q3778.06 222.453 3780.64 225.422 Q3783.22 228.365 3787.88 228.365 Q3789.96 228.365 3791.99 227.818 Q3794.05 227.245 3796.08 226.125 L3796.08 230.552 Q3794.08 231.49 3791.91 231.958 Q3789.78 232.427 3787.36 232.427 Q3780.77 232.427 3776.89 228.287 Q3773.01 224.146 3773.01 217.115 Q3773.01 209.979 3776.91 205.891 Q3780.85 201.802 3787.67 201.802 Q3789.88 201.802 3791.99 202.271 Q3794.1 202.714 3796.08 203.625 Z" fill="#000000" fill-rule="nonzero" fill-opacity="1" /><path clip-path="url(#clip000)" d="M3809.15 194.224 L3809.15 202.505 L3819.02 202.505 L3819.02 206.229 L3809.15 206.229 L3809.15 222.063 Q3809.15 225.63 3810.12 226.646 Q3811.11 227.662 3814.1 227.662 L3819.02 227.662 L3819.02 231.672 L3814.1 231.672 Q3808.55 231.672 3806.44 229.615 Q3804.34 227.531 3804.34 222.063 L3804.34 206.229 L3800.82 206.229 L3800.82 202.505 L3804.34 202.505 L3804.34 194.224 L3809.15 194.224 Z" fill="#000000" fill-rule="nonzero" fill-opacity="1" /><path clip-path="url(#clip000)" d="M3847.49 240.526 L3847.49 244.25 L3819.78 244.25 L3819.78 240.526 L3847.49 240.526 Z" fill="#000000" fill-rule="nonzero" fill-opacity="1" /><path clip-path="url(#clip000)" d="M3857.2 227.245 L3875.56 227.245 L3875.56 231.672 L3850.87 231.672 L3850.87 227.245 Q3853.87 224.146 3859.02 218.938 Q3864.2 213.703 3865.53 212.193 Q3868.06 209.354 3869.05 207.401 Q3870.06 205.422 3870.06 203.521 Q3870.06 200.422 3867.88 198.469 Q3865.72 196.516 3862.23 196.516 Q3859.75 196.516 3856.99 197.375 Q3854.26 198.235 3851.13 199.979 L3851.13 194.667 Q3854.31 193.391 3857.07 192.74 Q3859.83 192.089 3862.12 192.089 Q3868.16 192.089 3871.76 195.11 Q3875.35 198.13 3875.35 203.183 Q3875.35 205.578 3874.44 207.74 Q3873.55 209.875 3871.18 212.792 Q3870.53 213.547 3867.04 217.167 Q3863.55 220.761 3857.2 227.245 Z" fill="#000000" fill-rule="nonzero" fill-opacity="1" /><path clip-path="url(#clip000)" d="M3898.5 210.136 Q3894.96 210.136 3892.88 212.557 Q3890.82 214.979 3890.82 219.198 Q3890.82 223.391 3892.88 225.839 Q3894.96 228.261 3898.5 228.261 Q3902.04 228.261 3904.1 225.839 Q3906.18 223.391 3906.18 219.198 Q3906.18 214.979 3904.1 212.557 Q3902.04 210.136 3898.5 210.136 M3908.94 193.651 L3908.94 198.443 Q3906.97 197.505 3904.93 197.011 Q3902.93 196.516 3900.95 196.516 Q3895.74 196.516 3892.98 200.031 Q3890.25 203.547 3889.86 210.656 Q3891.39 208.391 3893.71 207.193 Q3896.03 205.969 3898.81 205.969 Q3904.67 205.969 3908.06 209.537 Q3911.47 213.078 3911.47 219.198 Q3911.47 225.188 3907.93 228.807 Q3904.39 232.427 3898.5 232.427 Q3891.76 232.427 3888.19 227.271 Q3884.62 222.089 3884.62 212.271 Q3884.62 203.052 3889 197.584 Q3893.37 192.089 3900.74 192.089 Q3902.72 192.089 3904.73 192.479 Q3906.76 192.87 3908.94 193.651 Z" fill="#000000" fill-rule="nonzero" fill-opacity="1" /><polyline clip-path="url(#clip000)" style="stroke:#1ac938; stroke-linecap:round; stroke-linejoin:round; stroke-width:5.625; stroke-opacity:1; fill:none" points="3349.82,270.552 3597.53,270.552 "/>
<path clip-path="url(#clip000)" d="M3643.63 285.617 L3643.63 301.086 L3638.82 301.086 L3638.82 260.825 L3643.63 260.825 L3643.63 265.253 Q3645.14 262.648 3647.44 261.398 Q3649.75 260.122 3652.96 260.122 Q3658.27 260.122 3661.58 264.341 Q3664.91 268.56 3664.91 275.435 Q3664.91 282.31 3661.58 286.528 Q3658.27 290.747 3652.96 290.747 Q3649.75 290.747 3647.44 289.497 Q3645.14 288.221 3643.63 285.617 M3659.94 275.435 Q3659.94 270.148 3657.75 267.154 Q3655.59 264.133 3651.78 264.133 Q3647.98 264.133 3645.79 267.154 Q3643.63 270.148 3643.63 275.435 Q3643.63 280.721 3645.79 283.742 Q3647.98 286.737 3651.78 286.737 Q3655.59 286.737 3657.75 283.742 Q3659.94 280.721 3659.94 275.435 Z" fill="#000000" fill-rule="nonzero" fill-opacity="1" /><path clip-path="url(#clip000)" d="M3689.75 265.305 Q3688.95 264.836 3687.98 264.628 Q3687.04 264.393 3685.9 264.393 Q3681.84 264.393 3679.65 267.049 Q3677.49 269.68 3677.49 274.627 L3677.49 289.992 L3672.67 289.992 L3672.67 260.825 L3677.49 260.825 L3677.49 265.357 Q3679 262.7 3681.42 261.424 Q3683.84 260.122 3687.3 260.122 Q3687.8 260.122 3688.4 260.2 Q3689 260.253 3689.73 260.383 L3689.75 265.305 Z" fill="#000000" fill-rule="nonzero" fill-opacity="1" /><path clip-path="url(#clip000)" d="M3718.55 274.211 L3718.55 276.555 L3696.52 276.555 Q3696.84 281.502 3699.49 284.107 Q3702.17 286.685 3706.94 286.685 Q3709.7 286.685 3712.28 286.008 Q3714.88 285.331 3717.43 283.976 L3717.43 288.508 Q3714.86 289.601 3712.15 290.174 Q3709.44 290.747 3706.65 290.747 Q3699.67 290.747 3695.59 286.685 Q3691.52 282.622 3691.52 275.695 Q3691.52 268.534 3695.38 264.341 Q3699.26 260.122 3705.82 260.122 Q3711.71 260.122 3715.12 263.924 Q3718.55 267.7 3718.55 274.211 M3713.76 272.805 Q3713.71 268.872 3711.55 266.529 Q3709.41 264.185 3705.87 264.185 Q3701.86 264.185 3699.44 266.45 Q3697.04 268.716 3696.68 272.831 L3713.76 272.805 Z" fill="#000000" fill-rule="nonzero" fill-opacity="1" /><path clip-path="url(#clip000)" d="M3745.61 265.253 L3745.61 249.471 L3750.4 249.471 L3750.4 289.992 L3745.61 289.992 L3745.61 285.617 Q3744.1 288.221 3741.78 289.497 Q3739.49 290.747 3736.26 290.747 Q3730.98 290.747 3727.64 286.528 Q3724.34 282.31 3724.34 275.435 Q3724.34 268.56 3727.64 264.341 Q3730.98 260.122 3736.26 260.122 Q3739.49 260.122 3741.78 261.398 Q3744.1 262.648 3745.61 265.253 M3729.28 275.435 Q3729.28 280.721 3731.45 283.742 Q3733.63 286.737 3737.43 286.737 Q3741.24 286.737 3743.42 283.742 Q3745.61 280.721 3745.61 275.435 Q3745.61 270.148 3743.42 267.154 Q3741.24 264.133 3737.43 264.133 Q3733.63 264.133 3731.45 267.154 Q3729.28 270.148 3729.28 275.435 Z" fill="#000000" fill-rule="nonzero" fill-opacity="1" /><path clip-path="url(#clip000)" d="M3760.27 260.825 L3765.06 260.825 L3765.06 289.992 L3760.27 289.992 L3760.27 260.825 M3760.27 249.471 L3765.06 249.471 L3765.06 255.539 L3760.27 255.539 L3760.27 249.471 Z" fill="#000000" fill-rule="nonzero" fill-opacity="1" /><path clip-path="url(#clip000)" d="M3796.08 261.945 L3796.08 266.424 Q3794.05 265.305 3791.99 264.758 Q3789.96 264.185 3787.88 264.185 Q3783.22 264.185 3780.64 267.154 Q3778.06 270.096 3778.06 275.435 Q3778.06 280.773 3780.64 283.742 Q3783.22 286.685 3787.88 286.685 Q3789.96 286.685 3791.99 286.138 Q3794.05 285.565 3796.08 284.445 L3796.08 288.872 Q3794.08 289.81 3791.91 290.278 Q3789.78 290.747 3787.36 290.747 Q3780.77 290.747 3776.89 286.607 Q3773.01 282.466 3773.01 275.435 Q3773.01 268.299 3776.91 264.211 Q3780.85 260.122 3787.67 260.122 Q3789.88 260.122 3791.99 260.591 Q3794.1 261.034 3796.08 261.945 Z" fill="#000000" fill-rule="nonzero" fill-opacity="1" /><path clip-path="url(#clip000)" d="M3809.15 252.544 L3809.15 260.825 L3819.02 260.825 L3819.02 264.549 L3809.15 264.549 L3809.15 280.383 Q3809.15 283.95 3810.12 284.966 Q3811.11 285.982 3814.1 285.982 L3819.02 285.982 L3819.02 289.992 L3814.1 289.992 Q3808.55 289.992 3806.44 287.935 Q3804.34 285.851 3804.34 280.383 L3804.34 264.549 L3800.82 264.549 L3800.82 260.825 L3804.34 260.825 L3804.34 252.544 L3809.15 252.544 Z" fill="#000000" fill-rule="nonzero" fill-opacity="1" /><path clip-path="url(#clip000)" d="M3847.49 298.846 L3847.49 302.57 L3819.78 302.57 L3819.78 298.846 L3847.49 298.846 Z" fill="#000000" fill-rule="nonzero" fill-opacity="1" /><path clip-path="url(#clip000)" d="M3867.12 255.695 L3853.84 276.45 L3867.12 276.45 L3867.12 255.695 M3865.74 251.112 L3872.36 251.112 L3872.36 276.45 L3877.9 276.45 L3877.9 280.825 L3872.36 280.825 L3872.36 289.992 L3867.12 289.992 L3867.12 280.825 L3849.57 280.825 L3849.57 275.747 L3865.74 251.112 Z" fill="#000000" fill-rule="nonzero" fill-opacity="1" /><polyline clip-path="url(#clip000)" style="stroke:#e8000b; stroke-linecap:round; stroke-linejoin:round; stroke-width:5.625; stroke-opacity:1; fill:none" points="3349.82,328.872 3597.53,328.872 "/>
<path clip-path="url(#clip000)" d="M3643.63 343.937 L3643.63 359.406 L3638.82 359.406 L3638.82 319.145 L3643.63 319.145 L3643.63 323.573 Q3645.14 320.968 3647.44 319.718 Q3649.75 318.442 3652.96 318.442 Q3658.27 318.442 3661.58 322.661 Q3664.91 326.88 3664.91 333.755 Q3664.91 340.63 3661.58 344.848 Q3658.27 349.067 3652.96 349.067 Q3649.75 349.067 3647.44 347.817 Q3645.14 346.541 3643.63 343.937 M3659.94 333.755 Q3659.94 328.468 3657.75 325.474 Q3655.59 322.453 3651.78 322.453 Q3647.98 322.453 3645.79 325.474 Q3643.63 328.468 3643.63 333.755 Q3643.63 339.041 3645.79 342.062 Q3647.98 345.057 3651.78 345.057 Q3655.59 345.057 3657.75 342.062 Q3659.94 339.041 3659.94 333.755 Z" fill="#000000" fill-rule="nonzero" fill-opacity="1" /><path clip-path="url(#clip000)" d="M3689.75 323.625 Q3688.95 323.156 3687.98 322.948 Q3687.04 322.713 3685.9 322.713 Q3681.84 322.713 3679.65 325.369 Q3677.49 328 3677.49 332.947 L3677.49 348.312 L3672.67 348.312 L3672.67 319.145 L3677.49 319.145 L3677.49 323.677 Q3679 321.02 3681.42 319.744 Q3683.84 318.442 3687.3 318.442 Q3687.8 318.442 3688.4 318.52 Q3689 318.573 3689.73 318.703 L3689.75 323.625 Z" fill="#000000" fill-rule="nonzero" fill-opacity="1" /><path clip-path="url(#clip000)" d="M3718.55 332.531 L3718.55 334.875 L3696.52 334.875 Q3696.84 339.822 3699.49 342.427 Q3702.17 345.005 3706.94 345.005 Q3709.7 345.005 3712.28 344.328 Q3714.88 343.651 3717.43 342.296 L3717.43 346.828 Q3714.86 347.921 3712.15 348.494 Q3709.44 349.067 3706.65 349.067 Q3699.67 349.067 3695.59 345.005 Q3691.52 340.942 3691.52 334.015 Q3691.52 326.854 3695.38 322.661 Q3699.26 318.442 3705.82 318.442 Q3711.71 318.442 3715.12 322.244 Q3718.55 326.02 3718.55 332.531 M3713.76 331.125 Q3713.71 327.192 3711.55 324.849 Q3709.41 322.505 3705.87 322.505 Q3701.86 322.505 3699.44 324.77 Q3697.04 327.036 3696.68 331.151 L3713.76 331.125 Z" fill="#000000" fill-rule="nonzero" fill-opacity="1" /><path clip-path="url(#clip000)" d="M3745.61 323.573 L3745.61 307.791 L3750.4 307.791 L3750.4 348.312 L3745.61 348.312 L3745.61 343.937 Q3744.1 346.541 3741.78 347.817 Q3739.49 349.067 3736.26 349.067 Q3730.98 349.067 3727.64 344.848 Q3724.34 340.63 3724.34 333.755 Q3724.34 326.88 3727.64 322.661 Q3730.98 318.442 3736.26 318.442 Q3739.49 318.442 3741.78 319.718 Q3744.1 320.968 3745.61 323.573 M3729.28 333.755 Q3729.28 339.041 3731.45 342.062 Q3733.63 345.057 3737.43 345.057 Q3741.24 345.057 3743.42 342.062 Q3745.61 339.041 3745.61 333.755 Q3745.61 328.468 3743.42 325.474 Q3741.24 322.453 3737.43 322.453 Q3733.63 322.453 3731.45 325.474 Q3729.28 328.468 3729.28 333.755 Z" fill="#000000" fill-rule="nonzero" fill-opacity="1" /><path clip-path="url(#clip000)" d="M3760.27 319.145 L3765.06 319.145 L3765.06 348.312 L3760.27 348.312 L3760.27 319.145 M3760.27 307.791 L3765.06 307.791 L3765.06 313.859 L3760.27 313.859 L3760.27 307.791 Z" fill="#000000" fill-rule="nonzero" fill-opacity="1" /><path clip-path="url(#clip000)" d="M3796.08 320.265 L3796.08 324.744 Q3794.05 323.625 3791.99 323.078 Q3789.96 322.505 3787.88 322.505 Q3783.22 322.505 3780.64 325.474 Q3778.06 328.416 3778.06 333.755 Q3778.06 339.093 3780.64 342.062 Q3783.22 345.005 3787.88 345.005 Q3789.96 345.005 3791.99 344.458 Q3794.05 343.885 3796.08 342.765 L3796.08 347.192 Q3794.08 348.13 3791.91 348.598 Q3789.78 349.067 3787.36 349.067 Q3780.77 349.067 3776.89 344.927 Q3773.01 340.786 3773.01 333.755 Q3773.01 326.619 3776.91 322.531 Q3780.85 318.442 3787.67 318.442 Q3789.88 318.442 3791.99 318.911 Q3794.1 319.354 3796.08 320.265 Z" fill="#000000" fill-rule="nonzero" fill-opacity="1" /><path clip-path="url(#clip000)" d="M3809.15 310.864 L3809.15 319.145 L3819.02 319.145 L3819.02 322.869 L3809.15 322.869 L3809.15 338.703 Q3809.15 342.27 3810.12 343.286 Q3811.11 344.302 3814.1 344.302 L3819.02 344.302 L3819.02 348.312 L3814.1 348.312 Q3808.55 348.312 3806.44 346.255 Q3804.34 344.171 3804.34 338.703 L3804.34 322.869 L3800.82 322.869 L3800.82 319.145 L3804.34 319.145 L3804.34 310.864 L3809.15 310.864 Z" fill="#000000" fill-rule="nonzero" fill-opacity="1" /><path clip-path="url(#clip000)" d="M3847.49 357.166 L3847.49 360.89 L3819.78 360.89 L3819.78 357.166 L3847.49 357.166 Z" fill="#000000" fill-rule="nonzero" fill-opacity="1" /><path clip-path="url(#clip000)" d="M3853.58 343.885 L3862.17 343.885 L3862.17 314.224 L3852.82 316.099 L3852.82 311.307 L3862.12 309.432 L3867.38 309.432 L3867.38 343.885 L3875.98 343.885 L3875.98 348.312 L3853.58 348.312 L3853.58 343.885 Z" fill="#000000" fill-rule="nonzero" fill-opacity="1" /><polyline clip-path="url(#clip000)" style="stroke:#000000; stroke-linecap:round; stroke-linejoin:round; stroke-width:6.75; stroke-opacity:1; fill:none" points="3349.82,387.192 3597.53,387.192 "/>
<path clip-path="url(#clip000)" d="M3653.89 391.971 Q3648.09 391.971 3645.85 393.299 Q3643.61 394.627 3643.61 397.83 Q3643.61 400.382 3645.27 401.892 Q3646.97 403.377 3649.86 403.377 Q3653.84 403.377 3656.24 400.564 Q3658.66 397.726 3658.66 393.038 L3658.66 391.971 L3653.89 391.971 M3663.45 389.991 L3663.45 406.632 L3658.66 406.632 L3658.66 402.205 Q3657.02 404.861 3654.57 406.137 Q3652.12 407.387 3648.58 407.387 Q3644.1 407.387 3641.45 404.887 Q3638.82 402.361 3638.82 398.142 Q3638.82 393.221 3642.1 390.721 Q3645.4 388.221 3651.94 388.221 L3658.66 388.221 L3658.66 387.752 Q3658.66 384.445 3656.47 382.648 Q3654.31 380.825 3650.38 380.825 Q3647.88 380.825 3645.51 381.424 Q3643.14 382.023 3640.95 383.221 L3640.95 378.794 Q3643.58 377.778 3646.06 377.283 Q3648.53 376.762 3650.87 376.762 Q3657.2 376.762 3660.33 380.044 Q3663.45 383.325 3663.45 389.991 Z" fill="#000000" fill-rule="nonzero" fill-opacity="1" /><path clip-path="url(#clip000)" d="M3694.31 378.585 L3694.31 383.064 Q3692.28 381.945 3690.22 381.398 Q3688.19 380.825 3686.11 380.825 Q3681.45 380.825 3678.87 383.794 Q3676.29 386.736 3676.29 392.075 Q3676.29 397.413 3678.87 400.382 Q3681.45 403.325 3686.11 403.325 Q3688.19 403.325 3690.22 402.778 Q3692.28 402.205 3694.31 401.085 L3694.31 405.512 Q3692.3 406.45 3690.14 406.918 Q3688.01 407.387 3685.59 407.387 Q3679 407.387 3675.12 403.247 Q3671.24 399.106 3671.24 392.075 Q3671.24 384.939 3675.14 380.851 Q3679.08 376.762 3685.9 376.762 Q3688.11 376.762 3690.22 377.231 Q3692.33 377.674 3694.31 378.585 Z" fill="#000000" fill-rule="nonzero" fill-opacity="1" /><path clip-path="url(#clip000)" d="M3707.38 369.184 L3707.38 377.465 L3717.25 377.465 L3717.25 381.189 L3707.38 381.189 L3707.38 397.023 Q3707.38 400.59 3708.35 401.606 Q3709.34 402.622 3712.33 402.622 L3717.25 402.622 L3717.25 406.632 L3712.33 406.632 Q3706.78 406.632 3704.67 404.575 Q3702.57 402.491 3702.57 397.023 L3702.57 381.189 L3699.05 381.189 L3699.05 377.465 L3702.57 377.465 L3702.57 369.184 L3707.38 369.184 Z" fill="#000000" fill-rule="nonzero" fill-opacity="1" /><path clip-path="url(#clip000)" d="M3723.06 395.122 L3723.06 377.465 L3727.85 377.465 L3727.85 394.939 Q3727.85 399.08 3729.47 401.163 Q3731.08 403.221 3734.31 403.221 Q3738.19 403.221 3740.43 400.747 Q3742.7 398.273 3742.7 394.002 L3742.7 377.465 L3747.49 377.465 L3747.49 406.632 L3742.7 406.632 L3742.7 402.153 Q3740.95 404.809 3738.63 406.111 Q3736.34 407.387 3733.29 407.387 Q3728.27 407.387 3725.66 404.262 Q3723.06 401.137 3723.06 395.122 M3735.12 376.762 L3735.12 376.762 Z" fill="#000000" fill-rule="nonzero" fill-opacity="1" /><path clip-path="url(#clip000)" d="M3770.61 391.971 Q3764.8 391.971 3762.56 393.299 Q3760.33 394.627 3760.33 397.83 Q3760.33 400.382 3761.99 401.892 Q3763.68 403.377 3766.58 403.377 Q3770.56 403.377 3772.96 400.564 Q3775.38 397.726 3775.38 393.038 L3775.38 391.971 L3770.61 391.971 M3780.17 389.991 L3780.17 406.632 L3775.38 406.632 L3775.38 402.205 Q3773.74 404.861 3771.29 406.137 Q3768.84 407.387 3765.3 407.387 Q3760.82 407.387 3758.16 404.887 Q3755.53 402.361 3755.53 398.142 Q3755.53 393.221 3758.81 390.721 Q3762.12 388.221 3768.66 388.221 L3775.38 388.221 L3775.38 387.752 Q3775.38 384.445 3773.19 382.648 Q3771.03 380.825 3767.1 380.825 Q3764.6 380.825 3762.23 381.424 Q3759.86 382.023 3757.67 383.221 L3757.67 378.794 Q3760.3 377.778 3762.77 377.283 Q3765.25 376.762 3767.59 376.762 Q3773.92 376.762 3777.04 380.044 Q3780.17 383.325 3780.17 389.991 Z" fill="#000000" fill-rule="nonzero" fill-opacity="1" /><path clip-path="url(#clip000)" d="M3790.04 366.111 L3794.83 366.111 L3794.83 406.632 L3790.04 406.632 L3790.04 366.111 Z" fill="#000000" fill-rule="nonzero" fill-opacity="1" /></svg>
