<?xml version="1.0" encoding="UTF-8" standalone="no"?>
<!DOCTYPE svg PUBLIC "-//W3C//DTD SVG 1.1//EN"
 "http://www.w3.org/Graphics/SVG/1.1/DTD/svg11.dtd">
<!-- Generated by graphviz version 2.50.0 (20211204.2007)
 -->
<!-- Pages: 1 -->
<svg width="918pt" height="742pt"
 viewBox="0.00 0.00 918.00 742.00" xmlns="http://www.w3.org/2000/svg" xmlns:xlink="http://www.w3.org/1999/xlink">
<g id="graph0" class="graph" transform="scale(1 1) rotate(0) translate(4 738)">
<polygon fill="white" stroke="transparent" points="-4,4 -4,-738 914,-738 914,4 -4,4"/>
<!-- 1 -->
<g id="node1" class="node">
<title>1</title>
<text text-anchor="start" x="356" y="-715.8" font-family="Arial" font-weight="bold" font-size="14.00"> </text>
<text text-anchor="start" x="286" y="-671.3" font-family="Arial" font-size="14.00"> &#160;&#160;&#160;</text>
<path fill="#ebebeb" stroke="transparent" d="M316,-643C316,-643 400,-643 400,-643 406,-643 412,-649 412,-655 412,-655 412,-695 412,-695 412,-701 406,-707 400,-707 400,-707 316,-707 316,-707 310,-707 304,-701 304,-695 304,-695 304,-655 304,-655 304,-649 310,-643 316,-643"/>
<text text-anchor="start" x="305" y="-704.4" font-family="Arial" font-size="2.00"> </text>
<text text-anchor="start" x="305" y="-698.4" font-family="Arial" font-size="7.00"> &#160;1</text>
<text text-anchor="start" x="319" y="-681.8" font-family="Arial" font-weight="bold" font-size="14.00">Mean: 30.64</text>
<text text-anchor="start" x="334.5" y="-664.8" font-family="Arial" font-weight="bold" font-size="14.00">n = 168</text>
<text text-anchor="start" x="356.5" y="-646.8" font-family="Arial" font-size="9.00"> </text>
<path fill="none" stroke="#333333" d="M316,-643C316,-643 400,-643 400,-643 406,-643 412,-649 412,-655 412,-655 412,-695 412,-695 412,-701 406,-707 400,-707 400,-707 316,-707 316,-707 310,-707 304,-701 304,-695 304,-695 304,-655 304,-655 304,-649 310,-643 316,-643"/>
<text text-anchor="start" x="414" y="-671.3" font-family="Arial" font-size="14.00"> &#160;&#160;&#160;</text>
<text text-anchor="start" x="300.5" y="-628.8" font-family="Arial" font-weight="bold" font-size="14.00">prev_168h_inflow</text>
</g>
<!-- 2 -->
<g id="node2" class="node">
<title>2</title>
<text text-anchor="start" x="242" y="-561.8" font-family="Arial" font-weight="bold" font-size="14.00"> &lt; 29.48</text>
<text text-anchor="start" x="195" y="-517.3" font-family="Arial" font-size="14.00"> &#160;&#160;&#160;</text>
<path fill="#ebebeb" stroke="transparent" d="M225,-489C225,-489 309,-489 309,-489 315,-489 321,-495 321,-501 321,-501 321,-541 321,-541 321,-547 315,-553 309,-553 309,-553 225,-553 225,-553 219,-553 213,-547 213,-541 213,-541 213,-501 213,-501 213,-495 219,-489 225,-489"/>
<text text-anchor="start" x="214" y="-550.4" font-family="Arial" font-size="2.00"> </text>
<text text-anchor="start" x="214" y="-544.4" font-family="Arial" font-size="7.00"> &#160;2</text>
<text text-anchor="start" x="228" y="-527.8" font-family="Arial" font-weight="bold" font-size="14.00">Mean: 23.38</text>
<text text-anchor="start" x="247" y="-510.8" font-family="Arial" font-weight="bold" font-size="14.00">n = 56</text>
<text text-anchor="start" x="265.5" y="-492.8" font-family="Arial" font-size="9.00"> </text>
<path fill="none" stroke="#333333" d="M225,-489C225,-489 309,-489 309,-489 315,-489 321,-495 321,-501 321,-501 321,-541 321,-541 321,-547 315,-553 309,-553 309,-553 225,-553 225,-553 219,-553 213,-547 213,-541 213,-541 213,-501 213,-501 213,-495 219,-489 225,-489"/>
<text text-anchor="start" x="323" y="-517.3" font-family="Arial" font-size="14.00"> &#160;&#160;&#160;</text>
<text text-anchor="start" x="209.5" y="-474.8" font-family="Arial" font-weight="bold" font-size="14.00">prev_168h_inflow</text>
</g>
<!-- 1&#45;&gt;2 -->
<g id="edge1" class="edge">
<title>1&#45;&gt;2</title>
<path fill="none" stroke="#888888" d="M323.08,-615.67C317.85,-606.94 312.43,-597.88 307.11,-588.99"/>
<polygon fill="#888888" stroke="#888888" points="309.97,-586.96 301.83,-580.18 303.96,-590.55 309.97,-586.96"/>
</g>
<!-- 5 -->
<g id="node3" class="node">
<title>5</title>
<text text-anchor="start" x="424.5" y="-561.8" font-family="Arial" font-weight="bold" font-size="14.00"> ≥ 29.48</text>
<text text-anchor="start" x="377" y="-517.3" font-family="Arial" font-size="14.00"> &#160;&#160;&#160;</text>
<path fill="#ebebeb" stroke="transparent" d="M407,-489C407,-489 491,-489 491,-489 497,-489 503,-495 503,-501 503,-501 503,-541 503,-541 503,-547 497,-553 491,-553 491,-553 407,-553 407,-553 401,-553 395,-547 395,-541 395,-541 395,-501 395,-501 395,-495 401,-489 407,-489"/>
<text text-anchor="start" x="396" y="-550.4" font-family="Arial" font-size="2.00"> </text>
<text text-anchor="start" x="396" y="-544.4" font-family="Arial" font-size="7.00"> &#160;5</text>
<text text-anchor="start" x="410" y="-527.8" font-family="Arial" font-weight="bold" font-size="14.00">Mean: 34.28</text>
<text text-anchor="start" x="426" y="-510.8" font-family="Arial" font-weight="bold" font-size="14.00">n = 112</text>
<text text-anchor="start" x="447.5" y="-492.8" font-family="Arial" font-size="9.00"> </text>
<path fill="none" stroke="#333333" d="M407,-489C407,-489 491,-489 491,-489 497,-489 503,-495 503,-501 503,-501 503,-541 503,-541 503,-547 497,-553 491,-553 491,-553 407,-553 407,-553 401,-553 395,-547 395,-541 395,-541 395,-501 395,-501 395,-495 401,-489 407,-489"/>
<text text-anchor="start" x="505" y="-517.3" font-family="Arial" font-size="14.00"> &#160;&#160;&#160;</text>
<text text-anchor="start" x="391.5" y="-474.8" font-family="Arial" font-weight="bold" font-size="14.00">prev_168h_inflow</text>
</g>
<!-- 1&#45;&gt;5 -->
<g id="edge2" class="edge">
<title>1&#45;&gt;5</title>
<path fill="none" stroke="#888888" d="M392.92,-615.67C398.15,-606.94 403.57,-597.88 408.89,-588.99"/>
<polygon fill="#888888" stroke="#888888" points="412.04,-590.55 414.17,-580.18 406.03,-586.96 412.04,-590.55"/>
</g>
<!-- 3 -->
<g id="node4" class="node">
<title>3</title>
<text text-anchor="start" x="97.5" y="-407.8" font-family="Arial" font-weight="bold" font-size="14.00"> &lt; 24.5</text>
<path fill="#f8766d" fill-opacity="0.874510" stroke="transparent" d="M78,-335C78,-335 160,-335 160,-335 166,-335 172,-341 172,-347 172,-347 172,-387 172,-387 172,-393 166,-399 160,-399 160,-399 78,-399 78,-399 72,-399 66,-393 66,-387 66,-387 66,-347 66,-347 66,-341 72,-335 78,-335"/>
<text text-anchor="start" x="67" y="-396.4" font-family="Arial" font-size="2.00"> </text>
<text text-anchor="start" x="67" y="-390.4" font-family="Arial" font-size="7.00"> &#160;3</text>
<text text-anchor="start" x="81" y="-373.8" font-family="Arial" font-weight="bold" font-size="14.00">Predict 21.8</text>
<text text-anchor="start" x="99" y="-356.8" font-family="Arial" font-weight="bold" font-size="14.00">n = 37</text>
<text text-anchor="start" x="117.5" y="-338.8" font-family="Arial" font-size="9.00"> </text>
<path fill="none" stroke="#333333" d="M78,-335C78,-335 160,-335 160,-335 166,-335 172,-341 172,-347 172,-347 172,-387 172,-387 172,-393 166,-399 160,-399 160,-399 78,-399 78,-399 72,-399 66,-393 66,-387 66,-387 66,-347 66,-347 66,-341 72,-335 78,-335"/>
<text text-anchor="start" x="117" y="-320.8" font-family="Arial" font-weight="bold" font-size="14.00"> </text>
</g>
<!-- 2&#45;&gt;3 -->
<g id="edge3" class="edge">
<title>2&#45;&gt;3</title>
<path fill="none" stroke="#888888" d="M210.2,-461.67C201.26,-452.49 191.97,-442.94 182.88,-433.6"/>
<polygon fill="#888888" stroke="#888888" points="185.13,-430.9 175.65,-426.18 180.11,-435.78 185.13,-430.9"/>
</g>
<!-- 4 -->
<g id="node5" class="node">
<title>4</title>
<text text-anchor="start" x="250" y="-407.8" font-family="Arial" font-weight="bold" font-size="14.00"> ≥ 24.5</text>
<path fill="#f8766d" fill-opacity="0.756863" stroke="transparent" d="M226,-335C226,-335 316,-335 316,-335 322,-335 328,-341 328,-347 328,-347 328,-387 328,-387 328,-393 322,-399 316,-399 316,-399 226,-399 226,-399 220,-399 214,-393 214,-387 214,-387 214,-347 214,-347 214,-341 220,-335 226,-335"/>
<text text-anchor="start" x="215" y="-396.4" font-family="Arial" font-size="2.00"> </text>
<text text-anchor="start" x="215" y="-390.4" font-family="Arial" font-size="7.00"> &#160;4</text>
<text text-anchor="start" x="229" y="-373.8" font-family="Arial" font-weight="bold" font-size="14.00">Predict 26.47</text>
<text text-anchor="start" x="251" y="-356.8" font-family="Arial" font-weight="bold" font-size="14.00">n = 19</text>
<text text-anchor="start" x="269.5" y="-338.8" font-family="Arial" font-size="9.00"> </text>
<path fill="none" stroke="#333333" d="M226,-335C226,-335 316,-335 316,-335 322,-335 328,-341 328,-347 328,-347 328,-387 328,-387 328,-393 322,-399 316,-399 316,-399 226,-399 226,-399 220,-399 214,-393 214,-387 214,-387 214,-347 214,-347 214,-341 220,-335 226,-335"/>
<text text-anchor="start" x="269" y="-320.8" font-family="Arial" font-weight="bold" font-size="14.00"> </text>
</g>
<!-- 2&#45;&gt;4 -->
<g id="edge4" class="edge">
<title>2&#45;&gt;4</title>
<path fill="none" stroke="#888888" d="M268.54,-461.67C268.75,-453.39 268.98,-444.83 269.2,-436.38"/>
<polygon fill="#888888" stroke="#888888" points="272.7,-436.27 269.47,-426.18 265.71,-436.08 272.7,-436.27"/>
</g>
<!-- 6 -->
<g id="node6" class="node">
<title>6</title>
<text text-anchor="start" x="421" y="-407.8" font-family="Arial" font-weight="bold" font-size="14.00"> &lt; 35.23</text>
<text text-anchor="start" x="374" y="-363.3" font-family="Arial" font-size="14.00"> &#160;&#160;&#160;</text>
<path fill="#ebebeb" stroke="transparent" d="M404,-335C404,-335 488,-335 488,-335 494,-335 500,-341 500,-347 500,-347 500,-387 500,-387 500,-393 494,-399 488,-399 488,-399 404,-399 404,-399 398,-399 392,-393 392,-387 392,-387 392,-347 392,-347 392,-341 398,-335 404,-335"/>
<text text-anchor="start" x="393" y="-396.4" font-family="Arial" font-size="2.00"> </text>
<text text-anchor="start" x="393" y="-390.4" font-family="Arial" font-size="7.00"> &#160;6</text>
<text text-anchor="start" x="407" y="-373.8" font-family="Arial" font-weight="bold" font-size="14.00">Mean: 32.39</text>
<text text-anchor="start" x="426" y="-356.8" font-family="Arial" font-weight="bold" font-size="14.00">n = 65</text>
<text text-anchor="start" x="444.5" y="-338.8" font-family="Arial" font-size="9.00"> </text>
<path fill="none" stroke="#333333" d="M404,-335C404,-335 488,-335 488,-335 494,-335 500,-341 500,-347 500,-347 500,-387 500,-387 500,-393 494,-399 488,-399 488,-399 404,-399 404,-399 398,-399 392,-393 392,-387 392,-387 392,-347 392,-347 392,-341 398,-335 404,-335"/>
<text text-anchor="start" x="502" y="-363.3" font-family="Arial" font-size="14.00"> &#160;&#160;&#160;</text>
<text text-anchor="start" x="388.5" y="-320.8" font-family="Arial" font-weight="bold" font-size="14.00">prev_168h_inflow</text>
</g>
<!-- 5&#45;&gt;6 -->
<g id="edge5" class="edge">
<title>5&#45;&gt;6</title>
<path fill="none" stroke="#888888" d="M447.85,-461.67C447.69,-453.39 447.52,-444.83 447.35,-436.38"/>
<polygon fill="#888888" stroke="#888888" points="450.84,-436.11 447.15,-426.18 443.85,-436.24 450.84,-436.11"/>
</g>
<!-- 13 -->
<g id="node7" class="node">
<title>13</title>
<text text-anchor="start" x="660.5" y="-407.8" font-family="Arial" font-weight="bold" font-size="14.00"> ≥ 35.23</text>
<path fill="#ebebeb" stroke="transparent" d="M643,-335C643,-335 727,-335 727,-335 733,-335 739,-341 739,-347 739,-347 739,-387 739,-387 739,-393 733,-399 727,-399 727,-399 643,-399 643,-399 637,-399 631,-393 631,-387 631,-387 631,-347 631,-347 631,-341 637,-335 643,-335"/>
<text text-anchor="start" x="632" y="-396.4" font-family="Arial" font-size="2.00"> </text>
<text text-anchor="start" x="632" y="-390.4" font-family="Arial" font-size="7.00"> &#160;13</text>
<text text-anchor="start" x="646" y="-373.8" font-family="Arial" font-weight="bold" font-size="14.00">Mean: 36.88</text>
<text text-anchor="start" x="665" y="-356.8" font-family="Arial" font-weight="bold" font-size="14.00">n = 47</text>
<text text-anchor="start" x="683.5" y="-338.8" font-family="Arial" font-size="9.00"> </text>
<path fill="none" stroke="#333333" d="M643,-335C643,-335 727,-335 727,-335 733,-335 739,-341 739,-347 739,-347 739,-387 739,-387 739,-393 733,-399 727,-399 727,-399 643,-399 643,-399 637,-399 631,-393 631,-387 631,-387 631,-347 631,-347 631,-341 637,-335 643,-335"/>
<text text-anchor="start" x="670.5" y="-320.8" font-family="Arial" font-weight="bold" font-size="14.00">time</text>
</g>
<!-- 5&#45;&gt;13 -->
<g id="edge6" class="edge">
<title>5&#45;&gt;13</title>
<path fill="none" stroke="#888888" d="M531.21,-467.05C556.79,-450.57 584.86,-432.5 609.93,-416.35"/>
<polygon fill="#888888" stroke="#888888" points="612.15,-419.08 618.66,-410.73 608.36,-413.2 612.15,-419.08"/>
</g>
<!-- 7 -->
<g id="node8" class="node">
<title>7</title>
<text text-anchor="start" x="192" y="-253.8" font-family="Arial" font-weight="bold" font-size="14.00"> &lt; 33.08</text>
<path fill="#ebebeb" stroke="transparent" d="M175,-181C175,-181 259,-181 259,-181 265,-181 271,-187 271,-193 271,-193 271,-233 271,-233 271,-239 265,-245 259,-245 259,-245 175,-245 175,-245 169,-245 163,-239 163,-233 163,-233 163,-193 163,-193 163,-187 169,-181 175,-181"/>
<text text-anchor="start" x="164" y="-242.4" font-family="Arial" font-size="2.00"> </text>
<text text-anchor="start" x="164" y="-236.4" font-family="Arial" font-size="7.00"> &#160;7</text>
<text text-anchor="start" x="178" y="-219.8" font-family="Arial" font-weight="bold" font-size="14.00">Mean: 31.61</text>
<text text-anchor="start" x="197" y="-202.8" font-family="Arial" font-weight="bold" font-size="14.00">n = 40</text>
<text text-anchor="start" x="215.5" y="-184.8" font-family="Arial" font-size="9.00"> </text>
<path fill="none" stroke="#333333" d="M175,-181C175,-181 259,-181 259,-181 265,-181 271,-187 271,-193 271,-193 271,-233 271,-233 271,-239 265,-245 259,-245 259,-245 175,-245 175,-245 169,-245 163,-239 163,-233 163,-233 163,-193 163,-193 163,-187 169,-181 175,-181"/>
<text text-anchor="start" x="174.5" y="-166.8" font-family="Arial" font-weight="bold" font-size="14.00">day_of_week</text>
</g>
<!-- 6&#45;&gt;7 -->
<g id="edge7" class="edge">
<title>6&#45;&gt;7</title>
<path fill="none" stroke="#888888" d="M363.97,-311.55C340.31,-295.85 314.64,-278.81 291.46,-263.42"/>
<polygon fill="#888888" stroke="#888888" points="293.31,-260.45 283.05,-257.84 289.44,-266.28 293.31,-260.45"/>
</g>
<!-- 10 -->
<g id="node9" class="node">
<title>10</title>
<text text-anchor="start" x="421.5" y="-253.8" font-family="Arial" font-weight="bold" font-size="14.00"> ≥ 33.08</text>
<path fill="#ebebeb" stroke="transparent" d="M404,-181C404,-181 488,-181 488,-181 494,-181 500,-187 500,-193 500,-193 500,-233 500,-233 500,-239 494,-245 488,-245 488,-245 404,-245 404,-245 398,-245 392,-239 392,-233 392,-233 392,-193 392,-193 392,-187 398,-181 404,-181"/>
<text text-anchor="start" x="393" y="-242.4" font-family="Arial" font-size="2.00"> </text>
<text text-anchor="start" x="393" y="-236.4" font-family="Arial" font-size="7.00"> &#160;10</text>
<text text-anchor="start" x="407" y="-219.8" font-family="Arial" font-weight="bold" font-size="14.00">Mean: 33.63</text>
<text text-anchor="start" x="426" y="-202.8" font-family="Arial" font-weight="bold" font-size="14.00">n = 25</text>
<text text-anchor="start" x="444.5" y="-184.8" font-family="Arial" font-size="9.00"> </text>
<path fill="none" stroke="#333333" d="M404,-181C404,-181 488,-181 488,-181 494,-181 500,-187 500,-193 500,-193 500,-233 500,-233 500,-239 494,-245 488,-245 488,-245 404,-245 404,-245 398,-245 392,-239 392,-233 392,-233 392,-193 392,-193 392,-187 398,-181 404,-181"/>
<text text-anchor="start" x="431.5" y="-166.8" font-family="Arial" font-weight="bold" font-size="14.00">time</text>
</g>
<!-- 6&#45;&gt;10 -->
<g id="edge8" class="edge">
<title>6&#45;&gt;10</title>
<path fill="none" stroke="#888888" d="M446,-307.67C446,-299.39 446,-290.83 446,-282.38"/>
<polygon fill="#888888" stroke="#888888" points="449.5,-282.18 446,-272.18 442.5,-282.18 449.5,-282.18"/>
</g>
<!-- 14 -->
<g id="node14" class="node">
<title>14</title>
<text text-anchor="start" x="664" y="-253.8" font-family="Arial" font-weight="bold" font-size="14.00"> &lt; 11.5</text>
<path fill="#ebebeb" stroke="transparent" d="M643,-181C643,-181 727,-181 727,-181 733,-181 739,-187 739,-193 739,-193 739,-233 739,-233 739,-239 733,-245 727,-245 727,-245 643,-245 643,-245 637,-245 631,-239 631,-233 631,-233 631,-193 631,-193 631,-187 637,-181 643,-181"/>
<text text-anchor="start" x="632" y="-242.4" font-family="Arial" font-size="2.00"> </text>
<text text-anchor="start" x="632" y="-236.4" font-family="Arial" font-size="7.00"> &#160;14</text>
<text text-anchor="start" x="646" y="-219.8" font-family="Arial" font-weight="bold" font-size="14.00">Mean: 38.64</text>
<text text-anchor="start" x="665" y="-202.8" font-family="Arial" font-weight="bold" font-size="14.00">n = 26</text>
<text text-anchor="start" x="683.5" y="-184.8" font-family="Arial" font-size="9.00"> </text>
<path fill="none" stroke="#333333" d="M643,-181C643,-181 727,-181 727,-181 733,-181 739,-187 739,-193 739,-193 739,-233 739,-233 739,-239 733,-245 727,-245 727,-245 643,-245 643,-245 637,-245 631,-239 631,-233 631,-233 631,-193 631,-193 631,-187 637,-181 643,-181"/>
<text text-anchor="start" x="642.5" y="-166.8" font-family="Arial" font-weight="bold" font-size="14.00">day_of_week</text>
</g>
<!-- 13&#45;&gt;14 -->
<g id="edge13" class="edge">
<title>13&#45;&gt;14</title>
<path fill="none" stroke="#888888" d="M685,-307.67C685,-299.39 685,-290.83 685,-282.38"/>
<polygon fill="#888888" stroke="#888888" points="688.5,-282.18 685,-272.18 681.5,-282.18 688.5,-282.18"/>
</g>
<!-- 17 -->
<g id="node15" class="node">
<title>17</title>
<text text-anchor="start" x="817.5" y="-253.8" font-family="Arial" font-weight="bold" font-size="14.00"> ≥ 11.5</text>
<path fill="#f8766d" fill-opacity="0.549020" stroke="transparent" d="M793,-181C793,-181 883,-181 883,-181 889,-181 895,-187 895,-193 895,-193 895,-233 895,-233 895,-239 889,-245 883,-245 883,-245 793,-245 793,-245 787,-245 781,-239 781,-233 781,-233 781,-193 781,-193 781,-187 787,-181 793,-181"/>
<text text-anchor="start" x="782" y="-242.4" font-family="Arial" font-size="2.00"> </text>
<text text-anchor="start" x="782" y="-236.4" font-family="Arial" font-size="7.00"> &#160;17</text>
<text text-anchor="start" x="796" y="-219.8" font-family="Arial" font-weight="bold" font-size="14.00">Predict 34.71</text>
<text text-anchor="start" x="818" y="-202.8" font-family="Arial" font-weight="bold" font-size="14.00">n = 21</text>
<text text-anchor="start" x="836.5" y="-184.8" font-family="Arial" font-size="9.00"> </text>
<path fill="none" stroke="#333333" d="M793,-181C793,-181 883,-181 883,-181 889,-181 895,-187 895,-193 895,-193 895,-233 895,-233 895,-239 889,-245 883,-245 883,-245 793,-245 793,-245 787,-245 781,-239 781,-233 781,-233 781,-193 781,-193 781,-187 787,-181 793,-181"/>
<text text-anchor="start" x="836" y="-166.8" font-family="Arial" font-weight="bold" font-size="14.00"> </text>
</g>
<!-- 13&#45;&gt;17 -->
<g id="edge14" class="edge">
<title>13&#45;&gt;17</title>
<path fill="none" stroke="#888888" d="M743.72,-307.67C753.05,-298.39 762.76,-288.75 772.24,-279.33"/>
<polygon fill="#888888" stroke="#888888" points="774.81,-281.71 779.44,-272.18 769.88,-276.74 774.81,-281.71"/>
</g>
<!-- 8 -->
<g id="node10" class="node">
<title>8</title>
<text text-anchor="start" x="47.5" y="-99.8" font-family="Arial" font-weight="bold" font-size="14.00"> &lt; 4.5</text>
<path fill="#f8766d" fill-opacity="0.650980" stroke="transparent" d="M24,-27C24,-27 106,-27 106,-27 112,-27 118,-33 118,-39 118,-39 118,-79 118,-79 118,-85 112,-91 106,-91 106,-91 24,-91 24,-91 18,-91 12,-85 12,-79 12,-79 12,-39 12,-39 12,-33 18,-27 24,-27"/>
<text text-anchor="start" x="13" y="-88.4" font-family="Arial" font-size="2.00"> </text>
<text text-anchor="start" x="13" y="-82.4" font-family="Arial" font-size="7.00"> &#160;8</text>
<text text-anchor="start" x="27" y="-65.8" font-family="Arial" font-weight="bold" font-size="14.00">Predict 30.6</text>
<text text-anchor="start" x="45" y="-48.8" font-family="Arial" font-weight="bold" font-size="14.00">n = 25</text>
<text text-anchor="start" x="63.5" y="-30.8" font-family="Arial" font-size="9.00"> </text>
<path fill="none" stroke="#333333" d="M24,-27C24,-27 106,-27 106,-27 112,-27 118,-33 118,-39 118,-39 118,-79 118,-79 118,-85 112,-91 106,-91 106,-91 24,-91 24,-91 18,-91 12,-85 12,-79 12,-79 12,-39 12,-39 12,-33 18,-27 24,-27"/>
<text text-anchor="start" x="63" y="-12.8" font-family="Arial" font-weight="bold" font-size="14.00"> </text>
</g>
<!-- 7&#45;&gt;8 -->
<g id="edge9" class="edge">
<title>7&#45;&gt;8</title>
<path fill="none" stroke="#888888" d="M158.67,-153.67C149.39,-144.39 139.75,-134.75 130.33,-125.33"/>
<polygon fill="#888888" stroke="#888888" points="132.72,-122.77 123.18,-118.18 127.77,-127.72 132.72,-122.77"/>
</g>
<!-- 9 -->
<g id="node11" class="node">
<title>9</title>
<text text-anchor="start" x="200" y="-99.8" font-family="Arial" font-weight="bold" font-size="14.00"> ≥ 4.5</text>
<path fill="#f8766d" fill-opacity="0.584314" stroke="transparent" d="M172,-27C172,-27 262,-27 262,-27 268,-27 274,-33 274,-39 274,-39 274,-79 274,-79 274,-85 268,-91 262,-91 262,-91 172,-91 172,-91 166,-91 160,-85 160,-79 160,-79 160,-39 160,-39 160,-33 166,-27 172,-27"/>
<text text-anchor="start" x="161" y="-88.4" font-family="Arial" font-size="2.00"> </text>
<text text-anchor="start" x="161" y="-82.4" font-family="Arial" font-size="7.00"> &#160;9</text>
<text text-anchor="start" x="175" y="-65.8" font-family="Arial" font-weight="bold" font-size="14.00">Predict 33.29</text>
<text text-anchor="start" x="197" y="-48.8" font-family="Arial" font-weight="bold" font-size="14.00">n = 15</text>
<text text-anchor="start" x="215.5" y="-30.8" font-family="Arial" font-size="9.00"> </text>
<path fill="none" stroke="#333333" d="M172,-27C172,-27 262,-27 262,-27 268,-27 274,-33 274,-39 274,-39 274,-79 274,-79 274,-85 268,-91 262,-91 262,-91 172,-91 172,-91 166,-91 160,-85 160,-79 160,-79 160,-39 160,-39 160,-33 166,-27 172,-27"/>
<text text-anchor="start" x="215" y="-12.8" font-family="Arial" font-weight="bold" font-size="14.00"> </text>
</g>
<!-- 7&#45;&gt;9 -->
<g id="edge10" class="edge">
<title>7&#45;&gt;9</title>
<path fill="none" stroke="#888888" d="M217,-153.67C217,-145.39 217,-136.83 217,-128.38"/>
<polygon fill="#888888" stroke="#888888" points="220.5,-128.18 217,-118.18 213.5,-128.18 220.5,-128.18"/>
</g>
<!-- 11 -->
<g id="node12" class="node">
<title>11</title>
<text text-anchor="start" x="351.5" y="-99.8" font-family="Arial" font-weight="bold" font-size="14.00"> &lt; 18.5</text>
<path fill="#f8766d" fill-opacity="0.592157" stroke="transparent" d="M328,-27C328,-27 418,-27 418,-27 424,-27 430,-33 430,-39 430,-39 430,-79 430,-79 430,-85 424,-91 418,-91 418,-91 328,-91 328,-91 322,-91 316,-85 316,-79 316,-79 316,-39 316,-39 316,-33 322,-27 328,-27"/>
<text text-anchor="start" x="317" y="-88.4" font-family="Arial" font-size="2.00"> </text>
<text text-anchor="start" x="317" y="-82.4" font-family="Arial" font-size="7.00"> &#160;11</text>
<text text-anchor="start" x="331" y="-65.8" font-family="Arial" font-weight="bold" font-size="14.00">Predict 33.05</text>
<text text-anchor="start" x="353" y="-48.8" font-family="Arial" font-weight="bold" font-size="14.00">n = 21</text>
<text text-anchor="start" x="371.5" y="-30.8" font-family="Arial" font-size="9.00"> </text>
<path fill="none" stroke="#333333" d="M328,-27C328,-27 418,-27 418,-27 424,-27 430,-33 430,-39 430,-39 430,-79 430,-79 430,-85 424,-91 418,-91 418,-91 328,-91 328,-91 322,-91 316,-85 316,-79 316,-79 316,-39 316,-39 316,-33 322,-27 328,-27"/>
<text text-anchor="start" x="371" y="-12.8" font-family="Arial" font-weight="bold" font-size="14.00"> </text>
</g>
<!-- 10&#45;&gt;11 -->
<g id="edge11" class="edge">
<title>10&#45;&gt;11</title>
<path fill="none" stroke="#888888" d="M417.99,-153.67C413.84,-145.03 409.53,-136.07 405.31,-127.27"/>
<polygon fill="#888888" stroke="#888888" points="408.42,-125.68 400.94,-118.18 402.11,-128.71 408.42,-125.68"/>
</g>
<!-- 12 -->
<g id="node13" class="node">
<title>12</title>
<text text-anchor="start" x="508" y="-99.8" font-family="Arial" font-weight="bold" font-size="14.00"> ≥ 18.5</text>
<path fill="#f8766d" fill-opacity="0.498039" stroke="transparent" d="M484,-27C484,-27 574,-27 574,-27 580,-27 586,-33 586,-39 586,-39 586,-79 586,-79 586,-85 580,-91 574,-91 574,-91 484,-91 484,-91 478,-91 472,-85 472,-79 472,-79 472,-39 472,-39 472,-33 478,-27 484,-27"/>
<text text-anchor="start" x="473" y="-88.4" font-family="Arial" font-size="2.00"> </text>
<text text-anchor="start" x="473" y="-82.4" font-family="Arial" font-size="7.00"> &#160;12</text>
<text text-anchor="start" x="487" y="-65.8" font-family="Arial" font-weight="bold" font-size="14.00">Predict 36.71</text>
<text text-anchor="start" x="513" y="-48.8" font-family="Arial" font-weight="bold" font-size="14.00">n = 4</text>
<text text-anchor="start" x="527.5" y="-30.8" font-family="Arial" font-size="9.00"> </text>
<path fill="none" stroke="#333333" d="M484,-27C484,-27 574,-27 574,-27 580,-27 586,-33 586,-39 586,-39 586,-79 586,-79 586,-85 580,-91 574,-91 574,-91 484,-91 484,-91 478,-91 472,-85 472,-79 472,-79 472,-39 472,-39 472,-33 478,-27 484,-27"/>
<text text-anchor="start" x="527" y="-12.8" font-family="Arial" font-weight="bold" font-size="14.00"> </text>
</g>
<!-- 10&#45;&gt;12 -->
<g id="edge12" class="edge">
<title>10&#45;&gt;12</title>
<path fill="none" stroke="#888888" d="M477.85,-153.67C482.62,-144.94 487.56,-135.88 492.42,-126.99"/>
<polygon fill="#888888" stroke="#888888" points="495.51,-128.63 497.23,-118.18 489.37,-125.28 495.51,-128.63"/>
</g>
<!-- 15 -->
<g id="node16" class="node">
<title>15</title>
<text text-anchor="start" x="667.5" y="-99.8" font-family="Arial" font-weight="bold" font-size="14.00"> &lt; 5.5</text>
<path fill="#f8766d" fill-opacity="0.482353" stroke="transparent" d="M640,-27C640,-27 730,-27 730,-27 736,-27 742,-33 742,-39 742,-39 742,-79 742,-79 742,-85 736,-91 730,-91 730,-91 640,-91 640,-91 634,-91 628,-85 628,-79 628,-79 628,-39 628,-39 628,-33 634,-27 640,-27"/>
<text text-anchor="start" x="629" y="-88.4" font-family="Arial" font-size="2.00"> </text>
<text text-anchor="start" x="629" y="-82.4" font-family="Arial" font-size="7.00"> &#160;15</text>
<text text-anchor="start" x="643" y="-65.8" font-family="Arial" font-weight="bold" font-size="14.00">Predict 37.32</text>
<text text-anchor="start" x="665" y="-48.8" font-family="Arial" font-weight="bold" font-size="14.00">n = 18</text>
<text text-anchor="start" x="683.5" y="-30.8" font-family="Arial" font-size="9.00"> </text>
<path fill="none" stroke="#333333" d="M640,-27C640,-27 730,-27 730,-27 736,-27 742,-33 742,-39 742,-39 742,-79 742,-79 742,-85 736,-91 730,-91 730,-91 640,-91 640,-91 634,-91 628,-85 628,-79 628,-79 628,-39 628,-39 628,-33 634,-27 640,-27"/>
<text text-anchor="start" x="683" y="-12.8" font-family="Arial" font-weight="bold" font-size="14.00"> </text>
</g>
<!-- 14&#45;&gt;15 -->
<g id="edge15" class="edge">
<title>14&#45;&gt;15</title>
<path fill="none" stroke="#888888" d="M685,-153.67C685,-145.39 685,-136.83 685,-128.38"/>
<polygon fill="#888888" stroke="#888888" points="688.5,-128.18 685,-118.18 681.5,-128.18 688.5,-128.18"/>
</g>
<!-- 16 -->
<g id="node17" class="node">
<title>16</title>
<text text-anchor="start" x="824" y="-99.8" font-family="Arial" font-weight="bold" font-size="14.00"> ≥ 5.5</text>
<path fill="#f8766d" fill-opacity="0.376471" stroke="transparent" d="M796,-27C796,-27 886,-27 886,-27 892,-27 898,-33 898,-39 898,-39 898,-79 898,-79 898,-85 892,-91 886,-91 886,-91 796,-91 796,-91 790,-91 784,-85 784,-79 784,-79 784,-39 784,-39 784,-33 790,-27 796,-27"/>
<text text-anchor="start" x="785" y="-88.4" font-family="Arial" font-size="2.00"> </text>
<text text-anchor="start" x="785" y="-82.4" font-family="Arial" font-size="7.00"> &#160;16</text>
<text text-anchor="start" x="799" y="-65.8" font-family="Arial" font-weight="bold" font-size="14.00">Predict 41.59</text>
<text text-anchor="start" x="825" y="-48.8" font-family="Arial" font-weight="bold" font-size="14.00">n = 8</text>
<text text-anchor="start" x="839.5" y="-30.8" font-family="Arial" font-size="9.00"> </text>
<path fill="none" stroke="#333333" d="M796,-27C796,-27 886,-27 886,-27 892,-27 898,-33 898,-39 898,-39 898,-79 898,-79 898,-85 892,-91 886,-91 886,-91 796,-91 796,-91 790,-91 784,-85 784,-79 784,-79 784,-39 784,-39 784,-33 790,-27 796,-27"/>
<text text-anchor="start" x="839" y="-12.8" font-family="Arial" font-weight="bold" font-size="14.00"> </text>
</g>
<!-- 14&#45;&gt;16 -->
<g id="edge16" class="edge">
<title>14&#45;&gt;16</title>
<path fill="none" stroke="#888888" d="M744.87,-153.67C754.38,-144.39 764.28,-134.75 773.95,-125.33"/>
<polygon fill="#888888" stroke="#888888" points="776.57,-127.66 781.29,-118.18 771.69,-122.65 776.57,-127.66"/>
</g>
</g>
</svg>
