<?xml version="1.0" encoding="UTF-8" standalone="no"?>
<!DOCTYPE svg PUBLIC "-//W3C//DTD SVG 1.1//EN"
 "http://www.w3.org/Graphics/SVG/1.1/DTD/svg11.dtd">
<!-- Generated by graphviz version 2.50.0 (20211204.2007)
 -->
<!-- Pages: 1 -->
<svg width="1021pt" height="742pt"
 viewBox="0.00 0.00 1021.00 742.00" xmlns="http://www.w3.org/2000/svg" xmlns:xlink="http://www.w3.org/1999/xlink">
<g id="graph0" class="graph" transform="scale(1 1) rotate(0) translate(4 738)">
<polygon fill="white" stroke="transparent" points="-4,4 -4,-738 1017,-738 1017,4 -4,4"/>
<!-- 1 -->
<g id="node1" class="node">
<title>1</title>
<text text-anchor="start" x="356" y="-715.8" font-family="Arial" font-weight="bold" font-size="14.00"> </text>
<text text-anchor="start" x="286" y="-671.3" font-family="Arial" font-size="14.00"> &#160;&#160;&#160;</text>
<path fill="#ebebeb" stroke="transparent" d="M316,-643C316,-643 400,-643 400,-643 406,-643 412,-649 412,-655 412,-655 412,-695 412,-695 412,-701 406,-707 400,-707 400,-707 316,-707 316,-707 310,-707 304,-701 304,-695 304,-695 304,-655 304,-655 304,-649 310,-643 316,-643"/>
<text text-anchor="start" x="305" y="-704.4" font-family="Arial" font-size="2.00"> </text>
<text text-anchor="start" x="305" y="-698.4" font-family="Arial" font-size="7.00"> &#160;1</text>
<text text-anchor="start" x="319" y="-681.8" font-family="Arial" font-weight="bold" font-size="14.00">Mean: 3.256</text>
<text text-anchor="start" x="334.5" y="-664.8" font-family="Arial" font-weight="bold" font-size="14.00">n = 168</text>
<text text-anchor="start" x="356.5" y="-646.8" font-family="Arial" font-size="9.00"> </text>
<path fill="none" stroke="#333333" d="M316,-643C316,-643 400,-643 400,-643 406,-643 412,-649 412,-655 412,-655 412,-695 412,-695 412,-701 406,-707 400,-707 400,-707 316,-707 316,-707 310,-707 304,-701 304,-695 304,-695 304,-655 304,-655 304,-649 310,-643 316,-643"/>
<text text-anchor="start" x="414" y="-671.3" font-family="Arial" font-size="14.00"> &#160;&#160;&#160;</text>
<text text-anchor="start" x="300.5" y="-628.8" font-family="Arial" font-weight="bold" font-size="14.00">prev_168h_inflow</text>
</g>
<!-- 2 -->
<g id="node2" class="node">
<title>2</title>
<text text-anchor="start" x="213" y="-561.8" font-family="Arial" font-weight="bold" font-size="14.00"> &lt; 3.835</text>
<path fill="#ebebeb" stroke="transparent" d="M196,-489C196,-489 280,-489 280,-489 286,-489 292,-495 292,-501 292,-501 292,-541 292,-541 292,-547 286,-553 280,-553 280,-553 196,-553 196,-553 190,-553 184,-547 184,-541 184,-541 184,-501 184,-501 184,-495 190,-489 196,-489"/>
<text text-anchor="start" x="185" y="-550.4" font-family="Arial" font-size="2.00"> </text>
<text text-anchor="start" x="185" y="-544.4" font-family="Arial" font-size="7.00"> &#160;2</text>
<text text-anchor="start" x="199" y="-527.8" font-family="Arial" font-weight="bold" font-size="14.00">Mean: 2.707</text>
<text text-anchor="start" x="218" y="-510.8" font-family="Arial" font-weight="bold" font-size="14.00">n = 92</text>
<text text-anchor="start" x="236.5" y="-492.8" font-family="Arial" font-size="9.00"> </text>
<path fill="none" stroke="#333333" d="M196,-489C196,-489 280,-489 280,-489 286,-489 292,-495 292,-501 292,-501 292,-541 292,-541 292,-547 286,-553 280,-553 280,-553 196,-553 196,-553 190,-553 184,-547 184,-541 184,-541 184,-501 184,-501 184,-495 190,-489 196,-489"/>
<text text-anchor="start" x="223.5" y="-474.8" font-family="Arial" font-weight="bold" font-size="14.00">time</text>
</g>
<!-- 1&#45;&gt;2 -->
<g id="edge1" class="edge">
<title>1&#45;&gt;2</title>
<path fill="none" stroke="#888888" d="M311.95,-615.67C304.84,-606.67 297.46,-597.32 290.23,-588.16"/>
<polygon fill="#888888" stroke="#888888" points="292.87,-585.86 283.93,-580.18 287.38,-590.19 292.87,-585.86"/>
</g>
<!-- 9 -->
<g id="node3" class="node">
<title>9</title>
<text text-anchor="start" x="453.5" y="-561.8" font-family="Arial" font-weight="bold" font-size="14.00"> ≥ 3.835</text>
<path fill="#ebebeb" stroke="transparent" d="M440,-489C440,-489 516,-489 516,-489 522,-489 528,-495 528,-501 528,-501 528,-541 528,-541 528,-547 522,-553 516,-553 516,-553 440,-553 440,-553 434,-553 428,-547 428,-541 428,-541 428,-501 428,-501 428,-495 434,-489 440,-489"/>
<text text-anchor="start" x="429" y="-550.4" font-family="Arial" font-size="2.00"> </text>
<text text-anchor="start" x="429" y="-544.4" font-family="Arial" font-size="7.00"> &#160;9</text>
<text text-anchor="start" x="443" y="-527.8" font-family="Arial" font-weight="bold" font-size="14.00">Mean: 3.92</text>
<text text-anchor="start" x="458" y="-510.8" font-family="Arial" font-weight="bold" font-size="14.00">n = 76</text>
<text text-anchor="start" x="476.5" y="-492.8" font-family="Arial" font-size="9.00"> </text>
<path fill="none" stroke="#333333" d="M440,-489C440,-489 516,-489 516,-489 522,-489 528,-495 528,-501 528,-501 528,-541 528,-541 528,-547 522,-553 516,-553 516,-553 440,-553 440,-553 434,-553 428,-547 428,-541 428,-541 428,-501 428,-501 428,-495 434,-489 440,-489"/>
<text text-anchor="start" x="448.5" y="-474.8" font-family="Arial" font-weight="bold" font-size="14.00">day_type</text>
</g>
<!-- 1&#45;&gt;9 -->
<g id="edge2" class="edge">
<title>1&#45;&gt;9</title>
<path fill="none" stroke="#888888" d="M404.05,-615.67C411.16,-606.67 418.54,-597.32 425.77,-588.16"/>
<polygon fill="#888888" stroke="#888888" points="428.62,-590.19 432.07,-580.18 423.13,-585.86 428.62,-590.19"/>
</g>
<!-- 3 -->
<g id="node4" class="node">
<title>3</title>
<text text-anchor="start" x="51.5" y="-407.8" font-family="Arial" font-weight="bold" font-size="14.00"> &lt; 5.5</text>
<path fill="#f8766d" fill-opacity="0.874510" stroke="transparent" d="M24,-335C24,-335 114,-335 114,-335 120,-335 126,-341 126,-347 126,-347 126,-387 126,-387 126,-393 120,-399 114,-399 114,-399 24,-399 24,-399 18,-399 12,-393 12,-387 12,-387 12,-347 12,-347 12,-341 18,-335 24,-335"/>
<text text-anchor="start" x="13" y="-396.4" font-family="Arial" font-size="2.00"> </text>
<text text-anchor="start" x="13" y="-390.4" font-family="Arial" font-size="7.00"> &#160;3</text>
<text text-anchor="start" x="27" y="-373.8" font-family="Arial" font-weight="bold" font-size="14.00">Predict 2.022</text>
<text text-anchor="start" x="49" y="-356.8" font-family="Arial" font-weight="bold" font-size="14.00">n = 42</text>
<text text-anchor="start" x="67.5" y="-338.8" font-family="Arial" font-size="9.00"> </text>
<path fill="none" stroke="#333333" d="M24,-335C24,-335 114,-335 114,-335 120,-335 126,-341 126,-347 126,-347 126,-387 126,-387 126,-393 120,-399 114,-399 114,-399 24,-399 24,-399 18,-399 12,-393 12,-387 12,-387 12,-347 12,-347 12,-341 18,-335 24,-335"/>
<text text-anchor="start" x="67" y="-320.8" font-family="Arial" font-weight="bold" font-size="14.00"> </text>
</g>
<!-- 2&#45;&gt;3 -->
<g id="edge3" class="edge">
<title>2&#45;&gt;3</title>
<path fill="none" stroke="#888888" d="M173.14,-461.67C162.73,-452.3 151.9,-442.56 141.33,-433.05"/>
<polygon fill="#888888" stroke="#888888" points="143.46,-430.26 133.68,-426.18 138.78,-435.47 143.46,-430.26"/>
</g>
<!-- 4 -->
<g id="node5" class="node">
<title>4</title>
<text text-anchor="start" x="221" y="-407.8" font-family="Arial" font-weight="bold" font-size="14.00"> ≥ 5.5</text>
<text text-anchor="start" x="166" y="-363.3" font-family="Arial" font-size="14.00"> &#160;&#160;&#160;</text>
<path fill="#ebebeb" stroke="transparent" d="M196,-335C196,-335 280,-335 280,-335 286,-335 292,-341 292,-347 292,-347 292,-387 292,-387 292,-393 286,-399 280,-399 280,-399 196,-399 196,-399 190,-399 184,-393 184,-387 184,-387 184,-347 184,-347 184,-341 190,-335 196,-335"/>
<text text-anchor="start" x="185" y="-396.4" font-family="Arial" font-size="2.00"> </text>
<text text-anchor="start" x="185" y="-390.4" font-family="Arial" font-size="7.00"> &#160;4</text>
<text text-anchor="start" x="199" y="-373.8" font-family="Arial" font-weight="bold" font-size="14.00">Mean: 3.283</text>
<text text-anchor="start" x="218" y="-356.8" font-family="Arial" font-weight="bold" font-size="14.00">n = 50</text>
<text text-anchor="start" x="236.5" y="-338.8" font-family="Arial" font-size="9.00"> </text>
<path fill="none" stroke="#333333" d="M196,-335C196,-335 280,-335 280,-335 286,-335 292,-341 292,-347 292,-347 292,-387 292,-387 292,-393 286,-399 280,-399 280,-399 196,-399 196,-399 190,-399 184,-393 184,-387 184,-387 184,-347 184,-347 184,-341 190,-335 196,-335"/>
<text text-anchor="start" x="294" y="-363.3" font-family="Arial" font-size="14.00"> &#160;&#160;&#160;</text>
<text text-anchor="start" x="180.5" y="-320.8" font-family="Arial" font-weight="bold" font-size="14.00">prev_168h_inflow</text>
</g>
<!-- 2&#45;&gt;4 -->
<g id="edge4" class="edge">
<title>2&#45;&gt;4</title>
<path fill="none" stroke="#888888" d="M238,-461.67C238,-453.39 238,-444.83 238,-436.38"/>
<polygon fill="#888888" stroke="#888888" points="241.5,-436.18 238,-426.18 234.5,-436.18 241.5,-436.18"/>
</g>
<!-- 10 -->
<g id="node10" class="node">
<title>10</title>
<text text-anchor="start" x="460.5" y="-407.8" font-family="Arial" font-weight="bold" font-size="14.00"> &lt; 0.5</text>
<path fill="#ebebeb" stroke="transparent" d="M436,-335C436,-335 520,-335 520,-335 526,-335 532,-341 532,-347 532,-347 532,-387 532,-387 532,-393 526,-399 520,-399 520,-399 436,-399 436,-399 430,-399 424,-393 424,-387 424,-387 424,-347 424,-347 424,-341 430,-335 436,-335"/>
<text text-anchor="start" x="425" y="-396.4" font-family="Arial" font-size="2.00"> </text>
<text text-anchor="start" x="425" y="-390.4" font-family="Arial" font-size="7.00"> &#160;10</text>
<text text-anchor="start" x="439" y="-373.8" font-family="Arial" font-weight="bold" font-size="14.00">Mean: 4.347</text>
<text text-anchor="start" x="458" y="-356.8" font-family="Arial" font-weight="bold" font-size="14.00">n = 18</text>
<text text-anchor="start" x="476.5" y="-338.8" font-family="Arial" font-size="9.00"> </text>
<path fill="none" stroke="#333333" d="M436,-335C436,-335 520,-335 520,-335 526,-335 532,-341 532,-347 532,-347 532,-387 532,-387 532,-393 526,-399 520,-399 520,-399 436,-399 436,-399 430,-399 424,-393 424,-387 424,-387 424,-347 424,-347 424,-341 430,-335 436,-335"/>
<text text-anchor="start" x="463.5" y="-320.8" font-family="Arial" font-weight="bold" font-size="14.00">time</text>
</g>
<!-- 9&#45;&gt;10 -->
<g id="edge9" class="edge">
<title>9&#45;&gt;10</title>
<path fill="none" stroke="#888888" d="M478,-461.67C478,-453.39 478,-444.83 478,-436.38"/>
<polygon fill="#888888" stroke="#888888" points="481.5,-436.18 478,-426.18 474.5,-436.18 481.5,-436.18"/>
</g>
<!-- 13 -->
<g id="node11" class="node">
<title>13</title>
<text text-anchor="start" x="698" y="-407.8" font-family="Arial" font-weight="bold" font-size="14.00"> ≥ 0.5</text>
<text text-anchor="start" x="647" y="-363.3" font-family="Arial" font-size="14.00"> &#160;&#160;</text>
<path fill="#ebebeb" stroke="transparent" d="M673,-335C673,-335 757,-335 757,-335 763,-335 769,-341 769,-347 769,-347 769,-387 769,-387 769,-393 763,-399 757,-399 757,-399 673,-399 673,-399 667,-399 661,-393 661,-387 661,-387 661,-347 661,-347 661,-341 667,-335 673,-335"/>
<text text-anchor="start" x="662" y="-396.4" font-family="Arial" font-size="2.00"> </text>
<text text-anchor="start" x="662" y="-390.4" font-family="Arial" font-size="7.00"> &#160;13</text>
<text text-anchor="start" x="676" y="-373.8" font-family="Arial" font-weight="bold" font-size="14.00">Mean: 3.787</text>
<text text-anchor="start" x="695" y="-356.8" font-family="Arial" font-weight="bold" font-size="14.00">n = 58</text>
<text text-anchor="start" x="713.5" y="-338.8" font-family="Arial" font-size="9.00"> </text>
<path fill="none" stroke="#333333" d="M673,-335C673,-335 757,-335 757,-335 763,-335 769,-341 769,-347 769,-347 769,-387 769,-387 769,-393 763,-399 757,-399 757,-399 673,-399 673,-399 667,-399 661,-393 661,-387 661,-387 661,-347 661,-347 661,-341 667,-335 673,-335"/>
<text text-anchor="start" x="771" y="-363.3" font-family="Arial" font-size="14.00"> &#160;&#160;</text>
<text text-anchor="start" x="661.5" y="-320.8" font-family="Arial" font-weight="bold" font-size="14.00">prev_24h_inflow</text>
</g>
<!-- 9&#45;&gt;13 -->
<g id="edge10" class="edge">
<title>9&#45;&gt;13</title>
<path fill="none" stroke="#888888" d="M540.27,-480.06C567.11,-462.85 598.95,-442.43 628.06,-423.76"/>
<polygon fill="#888888" stroke="#888888" points="630.06,-426.63 636.59,-418.29 626.28,-420.74 630.06,-426.63"/>
</g>
<!-- 5 -->
<g id="node6" class="node">
<title>5</title>
<text text-anchor="start" x="51.5" y="-253.8" font-family="Arial" font-weight="bold" font-size="14.00"> &lt; 2.92</text>
<path fill="#f8766d" fill-opacity="0.768627" stroke="transparent" d="M28,-181C28,-181 118,-181 118,-181 124,-181 130,-187 130,-193 130,-193 130,-233 130,-233 130,-239 124,-245 118,-245 118,-245 28,-245 28,-245 22,-245 16,-239 16,-233 16,-233 16,-193 16,-193 16,-187 22,-181 28,-181"/>
<text text-anchor="start" x="17" y="-242.4" font-family="Arial" font-size="2.00"> </text>
<text text-anchor="start" x="17" y="-236.4" font-family="Arial" font-size="7.00"> &#160;5</text>
<text text-anchor="start" x="31" y="-219.8" font-family="Arial" font-weight="bold" font-size="14.00">Predict 2.642</text>
<text text-anchor="start" x="57" y="-202.8" font-family="Arial" font-weight="bold" font-size="14.00">n = 6</text>
<text text-anchor="start" x="71.5" y="-184.8" font-family="Arial" font-size="9.00"> </text>
<path fill="none" stroke="#333333" d="M28,-181C28,-181 118,-181 118,-181 124,-181 130,-187 130,-193 130,-193 130,-233 130,-233 130,-239 124,-245 118,-245 118,-245 28,-245 28,-245 22,-245 16,-239 16,-233 16,-233 16,-193 16,-193 16,-187 22,-181 28,-181"/>
<text text-anchor="start" x="71" y="-166.8" font-family="Arial" font-weight="bold" font-size="14.00"> </text>
</g>
<!-- 4&#45;&gt;5 -->
<g id="edge5" class="edge">
<title>4&#45;&gt;5</title>
<path fill="none" stroke="#888888" d="M174.68,-307.67C164.51,-298.3 153.94,-288.56 143.61,-279.05"/>
<polygon fill="#888888" stroke="#888888" points="145.88,-276.38 136.15,-272.18 141.14,-281.53 145.88,-276.38"/>
</g>
<!-- 6 -->
<g id="node7" class="node">
<title>6</title>
<text text-anchor="start" x="217" y="-253.8" font-family="Arial" font-weight="bold" font-size="14.00"> ≥ 2.92</text>
<text text-anchor="start" x="170" y="-209.3" font-family="Arial" font-size="14.00"> &#160;&#160;&#160;</text>
<path fill="#ebebeb" stroke="transparent" d="M200,-181C200,-181 276,-181 276,-181 282,-181 288,-187 288,-193 288,-193 288,-233 288,-233 288,-239 282,-245 276,-245 276,-245 200,-245 200,-245 194,-245 188,-239 188,-233 188,-233 188,-193 188,-193 188,-187 194,-181 200,-181"/>
<text text-anchor="start" x="189" y="-242.4" font-family="Arial" font-size="2.00"> </text>
<text text-anchor="start" x="189" y="-236.4" font-family="Arial" font-size="7.00"> &#160;6</text>
<text text-anchor="start" x="203" y="-219.8" font-family="Arial" font-weight="bold" font-size="14.00">Mean: 3.37</text>
<text text-anchor="start" x="218" y="-202.8" font-family="Arial" font-weight="bold" font-size="14.00">n = 44</text>
<text text-anchor="start" x="236.5" y="-184.8" font-family="Arial" font-size="9.00"> </text>
<path fill="none" stroke="#333333" d="M200,-181C200,-181 276,-181 276,-181 282,-181 288,-187 288,-193 288,-193 288,-233 288,-233 288,-239 282,-245 276,-245 276,-245 200,-245 200,-245 194,-245 188,-239 188,-233 188,-233 188,-193 188,-193 188,-187 194,-181 200,-181"/>
<text text-anchor="start" x="290" y="-209.3" font-family="Arial" font-size="14.00"> &#160;&#160;&#160;</text>
<text text-anchor="start" x="184.5" y="-166.8" font-family="Arial" font-weight="bold" font-size="14.00">prev_24h_inflow</text>
</g>
<!-- 4&#45;&gt;6 -->
<g id="edge6" class="edge">
<title>4&#45;&gt;6</title>
<path fill="none" stroke="#888888" d="M238,-307.67C238,-299.39 238,-290.83 238,-282.38"/>
<polygon fill="#888888" stroke="#888888" points="241.5,-282.18 238,-272.18 234.5,-282.18 241.5,-282.18"/>
</g>
<!-- 7 -->
<g id="node8" class="node">
<title>7</title>
<text text-anchor="start" x="135" y="-99.8" font-family="Arial" font-weight="bold" font-size="14.00"> &lt; 3.255</text>
<path fill="#f8766d" fill-opacity="0.690196" stroke="transparent" d="M115,-27C115,-27 205,-27 205,-27 211,-27 217,-33 217,-39 217,-39 217,-79 217,-79 217,-85 211,-91 205,-91 205,-91 115,-91 115,-91 109,-91 103,-85 103,-79 103,-79 103,-39 103,-39 103,-33 109,-27 115,-27"/>
<text text-anchor="start" x="104" y="-88.4" font-family="Arial" font-size="2.00"> </text>
<text text-anchor="start" x="104" y="-82.4" font-family="Arial" font-size="7.00"> &#160;7</text>
<text text-anchor="start" x="118" y="-65.8" font-family="Arial" font-weight="bold" font-size="14.00">Predict 3.076</text>
<text text-anchor="start" x="140" y="-48.8" font-family="Arial" font-weight="bold" font-size="14.00">n = 17</text>
<text text-anchor="start" x="158.5" y="-30.8" font-family="Arial" font-size="9.00"> </text>
<path fill="none" stroke="#333333" d="M115,-27C115,-27 205,-27 205,-27 211,-27 217,-33 217,-39 217,-39 217,-79 217,-79 217,-85 211,-91 205,-91 205,-91 115,-91 115,-91 109,-91 103,-85 103,-79 103,-79 103,-39 103,-39 103,-33 109,-27 115,-27"/>
<text text-anchor="start" x="158" y="-12.8" font-family="Arial" font-weight="bold" font-size="14.00"> </text>
</g>
<!-- 6&#45;&gt;7 -->
<g id="edge7" class="edge">
<title>6&#45;&gt;7</title>
<path fill="none" stroke="#888888" d="M208.07,-153.67C203.63,-145.03 199.04,-136.07 194.52,-127.27"/>
<polygon fill="#888888" stroke="#888888" points="197.53,-125.48 189.85,-118.18 191.31,-128.67 197.53,-125.48"/>
</g>
<!-- 8 -->
<g id="node9" class="node">
<title>8</title>
<text text-anchor="start" x="291.5" y="-99.8" font-family="Arial" font-weight="bold" font-size="14.00"> ≥ 3.255</text>
<path fill="#f8766d" fill-opacity="0.607843" stroke="transparent" d="M271,-27C271,-27 361,-27 361,-27 367,-27 373,-33 373,-39 373,-39 373,-79 373,-79 373,-85 367,-91 361,-91 361,-91 271,-91 271,-91 265,-91 259,-85 259,-79 259,-79 259,-39 259,-39 259,-33 265,-27 271,-27"/>
<text text-anchor="start" x="260" y="-88.4" font-family="Arial" font-size="2.00"> </text>
<text text-anchor="start" x="260" y="-82.4" font-family="Arial" font-size="7.00"> &#160;8</text>
<text text-anchor="start" x="274" y="-65.8" font-family="Arial" font-weight="bold" font-size="14.00">Predict 3.555</text>
<text text-anchor="start" x="296" y="-48.8" font-family="Arial" font-weight="bold" font-size="14.00">n = 27</text>
<text text-anchor="start" x="314.5" y="-30.8" font-family="Arial" font-size="9.00"> </text>
<path fill="none" stroke="#333333" d="M271,-27C271,-27 361,-27 361,-27 367,-27 373,-33 373,-39 373,-39 373,-79 373,-79 373,-85 367,-91 361,-91 361,-91 271,-91 271,-91 265,-91 259,-85 259,-79 259,-79 259,-39 259,-39 259,-33 265,-27 271,-27"/>
<text text-anchor="start" x="314" y="-12.8" font-family="Arial" font-weight="bold" font-size="14.00"> </text>
</g>
<!-- 6&#45;&gt;8 -->
<g id="edge8" class="edge">
<title>6&#45;&gt;8</title>
<path fill="none" stroke="#888888" d="M267.93,-153.67C272.37,-145.03 276.96,-136.07 281.48,-127.27"/>
<polygon fill="#888888" stroke="#888888" points="284.69,-128.67 286.15,-118.18 278.47,-125.48 284.69,-128.67"/>
</g>
<!-- 11 -->
<g id="node12" class="node">
<title>11</title>
<text text-anchor="start" x="381.5" y="-253.8" font-family="Arial" font-weight="bold" font-size="14.00"> &lt; 10.5</text>
<path fill="#f8766d" fill-opacity="0.376471" stroke="transparent" d="M358,-181C358,-181 448,-181 448,-181 454,-181 460,-187 460,-193 460,-193 460,-233 460,-233 460,-239 454,-245 448,-245 448,-245 358,-245 358,-245 352,-245 346,-239 346,-233 346,-233 346,-193 346,-193 346,-187 352,-181 358,-181"/>
<text text-anchor="start" x="347" y="-242.4" font-family="Arial" font-size="2.00"> </text>
<text text-anchor="start" x="347" y="-236.4" font-family="Arial" font-size="7.00"> &#160;11</text>
<text text-anchor="start" x="361" y="-219.8" font-family="Arial" font-weight="bold" font-size="14.00">Predict 4.893</text>
<text text-anchor="start" x="387" y="-202.8" font-family="Arial" font-weight="bold" font-size="14.00">n = 6</text>
<text text-anchor="start" x="401.5" y="-184.8" font-family="Arial" font-size="9.00"> </text>
<path fill="none" stroke="#333333" d="M358,-181C358,-181 448,-181 448,-181 454,-181 460,-187 460,-193 460,-193 460,-233 460,-233 460,-239 454,-245 448,-245 448,-245 358,-245 358,-245 352,-245 346,-239 346,-233 346,-233 346,-193 346,-193 346,-187 352,-181 358,-181"/>
<text text-anchor="start" x="401" y="-166.8" font-family="Arial" font-weight="bold" font-size="14.00"> </text>
</g>
<!-- 10&#45;&gt;11 -->
<g id="edge11" class="edge">
<title>10&#45;&gt;11</title>
<path fill="none" stroke="#888888" d="M449.22,-307.67C444.96,-299.03 440.54,-290.07 436.19,-281.27"/>
<polygon fill="#888888" stroke="#888888" points="439.27,-279.6 431.71,-272.18 432.99,-282.69 439.27,-279.6"/>
</g>
<!-- 12 -->
<g id="node13" class="node">
<title>12</title>
<text text-anchor="start" x="538" y="-253.8" font-family="Arial" font-weight="bold" font-size="14.00"> ≥ 10.5</text>
<path fill="#f8766d" fill-opacity="0.517647" stroke="transparent" d="M514,-181C514,-181 604,-181 604,-181 610,-181 616,-187 616,-193 616,-193 616,-233 616,-233 616,-239 610,-245 604,-245 604,-245 514,-245 514,-245 508,-245 502,-239 502,-233 502,-233 502,-193 502,-193 502,-187 508,-181 514,-181"/>
<text text-anchor="start" x="503" y="-242.4" font-family="Arial" font-size="2.00"> </text>
<text text-anchor="start" x="503" y="-236.4" font-family="Arial" font-size="7.00"> &#160;12</text>
<text text-anchor="start" x="517" y="-219.8" font-family="Arial" font-weight="bold" font-size="14.00">Predict 4.074</text>
<text text-anchor="start" x="539" y="-202.8" font-family="Arial" font-weight="bold" font-size="14.00">n = 12</text>
<text text-anchor="start" x="557.5" y="-184.8" font-family="Arial" font-size="9.00"> </text>
<path fill="none" stroke="#333333" d="M514,-181C514,-181 604,-181 604,-181 610,-181 616,-187 616,-193 616,-193 616,-233 616,-233 616,-239 610,-245 604,-245 604,-245 514,-245 514,-245 508,-245 502,-239 502,-233 502,-233 502,-193 502,-193 502,-187 508,-181 514,-181"/>
<text text-anchor="start" x="557" y="-166.8" font-family="Arial" font-weight="bold" font-size="14.00"> </text>
</g>
<!-- 10&#45;&gt;12 -->
<g id="edge12" class="edge">
<title>10&#45;&gt;12</title>
<path fill="none" stroke="#888888" d="M509.09,-307.67C513.69,-299.03 518.46,-290.07 523.15,-281.27"/>
<polygon fill="#888888" stroke="#888888" points="526.38,-282.65 528,-272.18 520.21,-279.36 526.38,-282.65"/>
</g>
<!-- 14 -->
<g id="node14" class="node">
<title>14</title>
<text text-anchor="start" x="697.5" y="-253.8" font-family="Arial" font-weight="bold" font-size="14.00"> &lt; 3.6</text>
<path fill="#f8766d" fill-opacity="0.639216" stroke="transparent" d="M670,-181C670,-181 760,-181 760,-181 766,-181 772,-187 772,-193 772,-193 772,-233 772,-233 772,-239 766,-245 760,-245 760,-245 670,-245 670,-245 664,-245 658,-239 658,-233 658,-233 658,-193 658,-193 658,-187 664,-181 670,-181"/>
<text text-anchor="start" x="659" y="-242.4" font-family="Arial" font-size="2.00"> </text>
<text text-anchor="start" x="659" y="-236.4" font-family="Arial" font-size="7.00"> &#160;14</text>
<text text-anchor="start" x="673" y="-219.8" font-family="Arial" font-weight="bold" font-size="14.00">Predict 3.373</text>
<text text-anchor="start" x="695" y="-202.8" font-family="Arial" font-weight="bold" font-size="14.00">n = 19</text>
<text text-anchor="start" x="713.5" y="-184.8" font-family="Arial" font-size="9.00"> </text>
<path fill="none" stroke="#333333" d="M670,-181C670,-181 760,-181 760,-181 766,-181 772,-187 772,-193 772,-193 772,-233 772,-233 772,-239 766,-245 760,-245 760,-245 670,-245 670,-245 664,-245 658,-239 658,-233 658,-233 658,-193 658,-193 658,-187 664,-181 670,-181"/>
<text text-anchor="start" x="713" y="-166.8" font-family="Arial" font-weight="bold" font-size="14.00"> </text>
</g>
<!-- 13&#45;&gt;14 -->
<g id="edge13" class="edge">
<title>13&#45;&gt;14</title>
<path fill="none" stroke="#888888" d="M715,-307.67C715,-299.39 715,-290.83 715,-282.38"/>
<polygon fill="#888888" stroke="#888888" points="718.5,-282.18 715,-272.18 711.5,-282.18 718.5,-282.18"/>
</g>
<!-- 15 -->
<g id="node15" class="node">
<title>15</title>
<text text-anchor="start" x="851" y="-253.8" font-family="Arial" font-weight="bold" font-size="14.00"> ≥ 3.6</text>
<path fill="#ebebeb" stroke="transparent" d="M826,-181C826,-181 910,-181 910,-181 916,-181 922,-187 922,-193 922,-193 922,-233 922,-233 922,-239 916,-245 910,-245 910,-245 826,-245 826,-245 820,-245 814,-239 814,-233 814,-233 814,-193 814,-193 814,-187 820,-181 826,-181"/>
<text text-anchor="start" x="815" y="-242.4" font-family="Arial" font-size="2.00"> </text>
<text text-anchor="start" x="815" y="-236.4" font-family="Arial" font-size="7.00"> &#160;15</text>
<text text-anchor="start" x="829" y="-219.8" font-family="Arial" font-weight="bold" font-size="14.00">Mean: 3.989</text>
<text text-anchor="start" x="848" y="-202.8" font-family="Arial" font-weight="bold" font-size="14.00">n = 39</text>
<text text-anchor="start" x="866.5" y="-184.8" font-family="Arial" font-size="9.00"> </text>
<path fill="none" stroke="#333333" d="M826,-181C826,-181 910,-181 910,-181 916,-181 922,-187 922,-193 922,-193 922,-233 922,-233 922,-239 916,-245 910,-245 910,-245 826,-245 826,-245 820,-245 814,-239 814,-233 814,-233 814,-193 814,-193 814,-187 820,-181 826,-181"/>
<text text-anchor="start" x="853.5" y="-166.8" font-family="Arial" font-weight="bold" font-size="14.00">time</text>
</g>
<!-- 13&#45;&gt;15 -->
<g id="edge14" class="edge">
<title>13&#45;&gt;15</title>
<path fill="none" stroke="#888888" d="M773.72,-307.67C783.05,-298.39 792.76,-288.75 802.24,-279.33"/>
<polygon fill="#888888" stroke="#888888" points="804.81,-281.71 809.44,-272.18 799.88,-276.74 804.81,-281.71"/>
</g>
<!-- 16 -->
<g id="node16" class="node">
<title>16</title>
<text text-anchor="start" x="774.5" y="-99.8" font-family="Arial" font-weight="bold" font-size="14.00"> &lt; 7.5</text>
<path fill="#f8766d" fill-opacity="0.435294" stroke="transparent" d="M751,-27C751,-27 833,-27 833,-27 839,-27 845,-33 845,-39 845,-39 845,-79 845,-79 845,-85 839,-91 833,-91 833,-91 751,-91 751,-91 745,-91 739,-85 739,-79 739,-79 739,-39 739,-39 739,-33 745,-27 751,-27"/>
<text text-anchor="start" x="740" y="-88.4" font-family="Arial" font-size="2.00"> </text>
<text text-anchor="start" x="740" y="-82.4" font-family="Arial" font-size="7.00"> &#160;16</text>
<text text-anchor="start" x="754" y="-65.8" font-family="Arial" font-weight="bold" font-size="14.00">Predict 4.55</text>
<text text-anchor="start" x="776" y="-48.8" font-family="Arial" font-weight="bold" font-size="14.00">n = 4</text>
<text text-anchor="start" x="790.5" y="-30.8" font-family="Arial" font-size="9.00"> </text>
<path fill="none" stroke="#333333" d="M751,-27C751,-27 833,-27 833,-27 839,-27 845,-33 845,-39 845,-39 845,-79 845,-79 845,-85 839,-91 833,-91 833,-91 751,-91 751,-91 745,-91 739,-85 739,-79 739,-79 739,-39 739,-39 739,-33 745,-27 751,-27"/>
<text text-anchor="start" x="790" y="-12.8" font-family="Arial" font-weight="bold" font-size="14.00"> </text>
</g>
<!-- 15&#45;&gt;16 -->
<g id="edge15" class="edge">
<title>15&#45;&gt;16</title>
<path fill="none" stroke="#888888" d="M838.83,-153.67C834.52,-145.03 830.04,-136.07 825.64,-127.27"/>
<polygon fill="#888888" stroke="#888888" points="828.69,-125.56 821.09,-118.18 822.43,-128.69 828.69,-125.56"/>
</g>
<!-- 17 -->
<g id="node17" class="node">
<title>17</title>
<text text-anchor="start" x="927" y="-99.8" font-family="Arial" font-weight="bold" font-size="14.00"> ≥ 7.5</text>
<path fill="#f8766d" fill-opacity="0.545098" stroke="transparent" d="M899,-27C899,-27 989,-27 989,-27 995,-27 1001,-33 1001,-39 1001,-39 1001,-79 1001,-79 1001,-85 995,-91 989,-91 989,-91 899,-91 899,-91 893,-91 887,-85 887,-79 887,-79 887,-39 887,-39 887,-33 893,-27 899,-27"/>
<text text-anchor="start" x="888" y="-88.4" font-family="Arial" font-size="2.00"> </text>
<text text-anchor="start" x="888" y="-82.4" font-family="Arial" font-size="7.00"> &#160;17</text>
<text text-anchor="start" x="902" y="-65.8" font-family="Arial" font-weight="bold" font-size="14.00">Predict 3.925</text>
<text text-anchor="start" x="924" y="-48.8" font-family="Arial" font-weight="bold" font-size="14.00">n = 35</text>
<text text-anchor="start" x="942.5" y="-30.8" font-family="Arial" font-size="9.00"> </text>
<path fill="none" stroke="#333333" d="M899,-27C899,-27 989,-27 989,-27 995,-27 1001,-33 1001,-39 1001,-39 1001,-79 1001,-79 1001,-85 995,-91 989,-91 989,-91 899,-91 899,-91 893,-91 887,-85 887,-79 887,-79 887,-39 887,-39 887,-33 893,-27 899,-27"/>
<text text-anchor="start" x="942" y="-12.8" font-family="Arial" font-weight="bold" font-size="14.00"> </text>
</g>
<!-- 15&#45;&gt;17 -->
<g id="edge16" class="edge">
<title>15&#45;&gt;17</title>
<path fill="none" stroke="#888888" d="M897.17,-153.67C901.48,-145.03 905.96,-136.07 910.36,-127.27"/>
<polygon fill="#888888" stroke="#888888" points="913.57,-128.69 914.91,-118.18 907.31,-125.56 913.57,-128.69"/>
</g>
</g>
</svg>
