<?xml version="1.0" encoding="UTF-8" standalone="no"?>
<!DOCTYPE svg PUBLIC "-//W3C//DTD SVG 1.1//EN"
 "http://www.w3.org/Graphics/SVG/1.1/DTD/svg11.dtd">
<!-- Generated by graphviz version 2.50.0 (20211204.2007)
 -->
<!-- Pages: 1 -->
<svg width="768pt" height="1050pt"
 viewBox="0.00 0.00 768.00 1050.00" xmlns="http://www.w3.org/2000/svg" xmlns:xlink="http://www.w3.org/1999/xlink">
<g id="graph0" class="graph" transform="scale(1 1) rotate(0) translate(4 1046)">
<polygon fill="white" stroke="transparent" points="-4,4 -4,-1046 764,-1046 764,4 -4,4"/>
<!-- 1 -->
<g id="node1" class="node">
<title>1</title>
<text text-anchor="start" x="378" y="-1023.8" font-family="Arial" font-weight="bold" font-size="14.00"> </text>
<path fill="#ebebeb" stroke="transparent" d="M338,-951C338,-951 422,-951 422,-951 428,-951 434,-957 434,-963 434,-963 434,-1003 434,-1003 434,-1009 428,-1015 422,-1015 422,-1015 338,-1015 338,-1015 332,-1015 326,-1009 326,-1003 326,-1003 326,-963 326,-963 326,-957 332,-951 338,-951"/>
<text text-anchor="start" x="327" y="-1012.4" font-family="Arial" font-size="2.00"> </text>
<text text-anchor="start" x="327" y="-1006.4" font-family="Arial" font-size="7.00"> &#160;1</text>
<text text-anchor="start" x="341" y="-989.8" font-family="Arial" font-weight="bold" font-size="14.00">Mean: 8.065</text>
<text text-anchor="start" x="356.5" y="-972.8" font-family="Arial" font-weight="bold" font-size="14.00">n = 168</text>
<text text-anchor="start" x="378.5" y="-954.8" font-family="Arial" font-size="9.00"> </text>
<path fill="none" stroke="#333333" d="M338,-951C338,-951 422,-951 422,-951 428,-951 434,-957 434,-963 434,-963 434,-1003 434,-1003 434,-1009 428,-1015 422,-1015 422,-1015 338,-1015 338,-1015 332,-1015 326,-1009 326,-1003 326,-1003 326,-963 326,-963 326,-957 332,-951 338,-951"/>
<text text-anchor="start" x="365.5" y="-936.8" font-family="Arial" font-weight="bold" font-size="14.00">time</text>
</g>
<!-- 2 -->
<g id="node2" class="node">
<title>2</title>
<text text-anchor="start" x="286.5" y="-869.8" font-family="Arial" font-weight="bold" font-size="14.00"> &lt; 6.5</text>
<path fill="#f8766d" fill-opacity="0.850980" stroke="transparent" d="M259,-797C259,-797 349,-797 349,-797 355,-797 361,-803 361,-809 361,-809 361,-849 361,-849 361,-855 355,-861 349,-861 349,-861 259,-861 259,-861 253,-861 247,-855 247,-849 247,-849 247,-809 247,-809 247,-803 253,-797 259,-797"/>
<text text-anchor="start" x="248" y="-858.4" font-family="Arial" font-size="2.00"> </text>
<text text-anchor="start" x="248" y="-852.4" font-family="Arial" font-size="7.00"> &#160;2</text>
<text text-anchor="start" x="262" y="-835.8" font-family="Arial" font-weight="bold" font-size="14.00">Predict 6.082</text>
<text text-anchor="start" x="284" y="-818.8" font-family="Arial" font-weight="bold" font-size="14.00">n = 49</text>
<text text-anchor="start" x="302.5" y="-800.8" font-family="Arial" font-size="9.00"> </text>
<path fill="none" stroke="#333333" d="M259,-797C259,-797 349,-797 349,-797 355,-797 361,-803 361,-809 361,-809 361,-849 361,-849 361,-855 355,-861 349,-861 349,-861 259,-861 259,-861 253,-861 247,-855 247,-849 247,-849 247,-809 247,-809 247,-803 253,-797 259,-797"/>
<text text-anchor="start" x="302" y="-782.8" font-family="Arial" font-weight="bold" font-size="14.00"> </text>
</g>
<!-- 1&#45;&gt;2 -->
<g id="edge1" class="edge">
<title>1&#45;&gt;2</title>
<path fill="none" stroke="#888888" d="M350.83,-923.67C346.52,-915.03 342.04,-906.07 337.64,-897.27"/>
<polygon fill="#888888" stroke="#888888" points="340.69,-895.56 333.09,-888.18 334.43,-898.69 340.69,-895.56"/>
</g>
<!-- 3 -->
<g id="node3" class="node">
<title>3</title>
<text text-anchor="start" x="440" y="-869.8" font-family="Arial" font-weight="bold" font-size="14.00"> ≥ 6.5</text>
<path fill="#ebebeb" stroke="transparent" d="M415,-797C415,-797 499,-797 499,-797 505,-797 511,-803 511,-809 511,-809 511,-849 511,-849 511,-855 505,-861 499,-861 499,-861 415,-861 415,-861 409,-861 403,-855 403,-849 403,-849 403,-809 403,-809 403,-803 409,-797 415,-797"/>
<text text-anchor="start" x="404" y="-858.4" font-family="Arial" font-size="2.00"> </text>
<text text-anchor="start" x="404" y="-852.4" font-family="Arial" font-size="7.00"> &#160;3</text>
<text text-anchor="start" x="418" y="-835.8" font-family="Arial" font-weight="bold" font-size="14.00">Mean: 8.882</text>
<text text-anchor="start" x="434" y="-818.8" font-family="Arial" font-weight="bold" font-size="14.00">n = 119</text>
<text text-anchor="start" x="455.5" y="-800.8" font-family="Arial" font-size="9.00"> </text>
<path fill="none" stroke="#333333" d="M415,-797C415,-797 499,-797 499,-797 505,-797 511,-803 511,-809 511,-809 511,-849 511,-849 511,-855 505,-861 499,-861 499,-861 415,-861 415,-861 409,-861 403,-855 403,-849 403,-849 403,-809 403,-809 403,-803 409,-797 415,-797"/>
<text text-anchor="start" x="428" y="-782.8" font-family="Arial" font-weight="bold" font-size="14.00">air_temp</text>
</g>
<!-- 1&#45;&gt;3 -->
<g id="edge2" class="edge">
<title>1&#45;&gt;3</title>
<path fill="none" stroke="#888888" d="M409.55,-923.67C413.93,-915.03 418.46,-906.07 422.92,-897.27"/>
<polygon fill="#888888" stroke="#888888" points="426.13,-898.68 427.53,-888.18 419.89,-895.52 426.13,-898.68"/>
</g>
<!-- 4 -->
<g id="node4" class="node">
<title>4</title>
<text text-anchor="start" x="353" y="-715.8" font-family="Arial" font-weight="bold" font-size="14.00"> &lt; 25.45</text>
<text text-anchor="start" x="314" y="-671.3" font-family="Arial" font-size="14.00"> &#160;</text>
<path fill="#ebebeb" stroke="transparent" d="M336,-643C336,-643 420,-643 420,-643 426,-643 432,-649 432,-655 432,-655 432,-695 432,-695 432,-701 426,-707 420,-707 420,-707 336,-707 336,-707 330,-707 324,-701 324,-695 324,-695 324,-655 324,-655 324,-649 330,-643 336,-643"/>
<text text-anchor="start" x="325" y="-704.4" font-family="Arial" font-size="2.00"> </text>
<text text-anchor="start" x="325" y="-698.4" font-family="Arial" font-size="7.00"> &#160;4</text>
<text text-anchor="start" x="339" y="-681.8" font-family="Arial" font-weight="bold" font-size="14.00">Mean: 9.512</text>
<text text-anchor="start" x="358" y="-664.8" font-family="Arial" font-weight="bold" font-size="14.00">n = 64</text>
<text text-anchor="start" x="376.5" y="-646.8" font-family="Arial" font-size="9.00"> </text>
<path fill="none" stroke="#333333" d="M336,-643C336,-643 420,-643 420,-643 426,-643 432,-649 432,-655 432,-655 432,-695 432,-695 432,-701 426,-707 420,-707 420,-707 336,-707 336,-707 330,-707 324,-701 324,-695 324,-695 324,-655 324,-655 324,-649 330,-643 336,-643"/>
<text text-anchor="start" x="434" y="-671.3" font-family="Arial" font-size="14.00"> &#160;</text>
<text text-anchor="start" x="328" y="-628.8" font-family="Arial" font-weight="bold" font-size="14.00">prev_1h_inflow</text>
</g>
<!-- 3&#45;&gt;4 -->
<g id="edge3" class="edge">
<title>3&#45;&gt;4</title>
<path fill="none" stroke="#888888" d="M426.68,-769.67C422.19,-761.03 417.54,-752.07 412.96,-743.27"/>
<polygon fill="#888888" stroke="#888888" points="415.95,-741.44 408.24,-734.18 409.74,-744.66 415.95,-741.44"/>
</g>
<!-- 15 -->
<g id="node5" class="node">
<title>15</title>
<text text-anchor="start" x="511.5" y="-715.8" font-family="Arial" font-weight="bold" font-size="14.00"> ≥ 25.45</text>
<path fill="#ebebeb" stroke="transparent" d="M494,-643C494,-643 578,-643 578,-643 584,-643 590,-649 590,-655 590,-655 590,-695 590,-695 590,-701 584,-707 578,-707 578,-707 494,-707 494,-707 488,-707 482,-701 482,-695 482,-695 482,-655 482,-655 482,-649 488,-643 494,-643"/>
<text text-anchor="start" x="483" y="-704.4" font-family="Arial" font-size="2.00"> </text>
<text text-anchor="start" x="483" y="-698.4" font-family="Arial" font-size="7.00"> &#160;15</text>
<text text-anchor="start" x="497" y="-681.8" font-family="Arial" font-weight="bold" font-size="14.00">Mean: 8.148</text>
<text text-anchor="start" x="516" y="-664.8" font-family="Arial" font-weight="bold" font-size="14.00">n = 55</text>
<text text-anchor="start" x="534.5" y="-646.8" font-family="Arial" font-size="9.00"> </text>
<path fill="none" stroke="#333333" d="M494,-643C494,-643 578,-643 578,-643 584,-643 590,-649 590,-655 590,-655 590,-695 590,-695 590,-701 584,-707 578,-707 578,-707 494,-707 494,-707 488,-707 482,-701 482,-695 482,-695 482,-655 482,-655 482,-649 488,-643 494,-643"/>
<text text-anchor="start" x="521.5" y="-628.8" font-family="Arial" font-weight="bold" font-size="14.00">time</text>
</g>
<!-- 3&#45;&gt;15 -->
<g id="edge4" class="edge">
<title>3&#45;&gt;15</title>
<path fill="none" stroke="#888888" d="M487.32,-769.67C491.81,-761.03 496.46,-752.07 501.04,-743.27"/>
<polygon fill="#888888" stroke="#888888" points="504.26,-744.66 505.76,-734.18 498.05,-741.44 504.26,-744.66"/>
</g>
<!-- 5 -->
<g id="node6" class="node">
<title>5</title>
<text text-anchor="start" x="189" y="-561.8" font-family="Arial" font-weight="bold" font-size="14.00"> &lt; 8.705</text>
<text text-anchor="start" x="142" y="-517.3" font-family="Arial" font-size="14.00"> &#160;&#160;&#160;</text>
<path fill="#ebebeb" stroke="transparent" d="M172,-489C172,-489 256,-489 256,-489 262,-489 268,-495 268,-501 268,-501 268,-541 268,-541 268,-547 262,-553 256,-553 256,-553 172,-553 172,-553 166,-553 160,-547 160,-541 160,-541 160,-501 160,-501 160,-495 166,-489 172,-489"/>
<text text-anchor="start" x="161" y="-550.4" font-family="Arial" font-size="2.00"> </text>
<text text-anchor="start" x="161" y="-544.4" font-family="Arial" font-size="7.00"> &#160;5</text>
<text text-anchor="start" x="175" y="-527.8" font-family="Arial" font-weight="bold" font-size="14.00">Mean: 9.897</text>
<text text-anchor="start" x="194" y="-510.8" font-family="Arial" font-weight="bold" font-size="14.00">n = 22</text>
<text text-anchor="start" x="212.5" y="-492.8" font-family="Arial" font-size="9.00"> </text>
<path fill="none" stroke="#333333" d="M172,-489C172,-489 256,-489 256,-489 262,-489 268,-495 268,-501 268,-501 268,-541 268,-541 268,-547 262,-553 256,-553 256,-553 172,-553 172,-553 166,-553 160,-547 160,-541 160,-541 160,-501 160,-501 160,-495 166,-489 172,-489"/>
<text text-anchor="start" x="270" y="-517.3" font-family="Arial" font-size="14.00"> &#160;&#160;&#160;</text>
<text text-anchor="start" x="156.5" y="-474.8" font-family="Arial" font-weight="bold" font-size="14.00">prev_168h_inflow</text>
</g>
<!-- 4&#45;&gt;5 -->
<g id="edge5" class="edge">
<title>4&#45;&gt;5</title>
<path fill="none" stroke="#888888" d="M315.06,-615.67C304.96,-606.3 294.45,-596.56 284.19,-587.05"/>
<polygon fill="#888888" stroke="#888888" points="286.48,-584.41 276.77,-580.18 281.72,-589.54 286.48,-584.41"/>
</g>
<!-- 8 -->
<g id="node7" class="node">
<title>8</title>
<text text-anchor="start" x="355.5" y="-561.8" font-family="Arial" font-weight="bold" font-size="14.00"> ≥ 8.705</text>
<text text-anchor="start" x="324" y="-517.3" font-family="Arial" font-size="14.00"> </text>
<path fill="#ebebeb" stroke="transparent" d="M342,-489C342,-489 418,-489 418,-489 424,-489 430,-495 430,-501 430,-501 430,-541 430,-541 430,-547 424,-553 418,-553 418,-553 342,-553 342,-553 336,-553 330,-547 330,-541 330,-541 330,-501 330,-501 330,-495 336,-489 342,-489"/>
<text text-anchor="start" x="331" y="-550.4" font-family="Arial" font-size="2.00"> </text>
<text text-anchor="start" x="331" y="-544.4" font-family="Arial" font-size="7.00"> &#160;8</text>
<text text-anchor="start" x="345" y="-527.8" font-family="Arial" font-weight="bold" font-size="14.00">Mean: 9.31</text>
<text text-anchor="start" x="360" y="-510.8" font-family="Arial" font-weight="bold" font-size="14.00">n = 42</text>
<text text-anchor="start" x="378.5" y="-492.8" font-family="Arial" font-size="9.00"> </text>
<path fill="none" stroke="#333333" d="M342,-489C342,-489 418,-489 418,-489 424,-489 430,-495 430,-501 430,-501 430,-541 430,-541 430,-547 424,-553 418,-553 418,-553 342,-553 342,-553 336,-553 330,-547 330,-541 330,-541 330,-501 330,-501 330,-495 336,-489 342,-489"/>
<text text-anchor="start" x="432" y="-517.3" font-family="Arial" font-size="14.00"> </text>
<text text-anchor="start" x="337.5" y="-474.8" font-family="Arial" font-weight="bold" font-size="14.00">day_of_week</text>
</g>
<!-- 4&#45;&gt;8 -->
<g id="edge6" class="edge">
<title>4&#45;&gt;8</title>
<path fill="none" stroke="#888888" d="M378.77,-615.67C378.88,-607.39 378.99,-598.83 379.1,-590.38"/>
<polygon fill="#888888" stroke="#888888" points="382.6,-590.22 379.23,-580.18 375.6,-590.13 382.6,-590.22"/>
</g>
<!-- 16 -->
<g id="node16" class="node">
<title>16</title>
<text text-anchor="start" x="513.5" y="-561.8" font-family="Arial" font-weight="bold" font-size="14.00"> &lt; 20.5</text>
<path fill="#f8766d" fill-opacity="0.670588" stroke="transparent" d="M490,-489C490,-489 580,-489 580,-489 586,-489 592,-495 592,-501 592,-501 592,-541 592,-541 592,-547 586,-553 580,-553 580,-553 490,-553 490,-553 484,-553 478,-547 478,-541 478,-541 478,-501 478,-501 478,-495 484,-489 490,-489"/>
<text text-anchor="start" x="479" y="-550.4" font-family="Arial" font-size="2.00"> </text>
<text text-anchor="start" x="479" y="-544.4" font-family="Arial" font-size="7.00"> &#160;16</text>
<text text-anchor="start" x="493" y="-527.8" font-family="Arial" font-weight="bold" font-size="14.00">Predict 8.459</text>
<text text-anchor="start" x="515" y="-510.8" font-family="Arial" font-weight="bold" font-size="14.00">n = 43</text>
<text text-anchor="start" x="533.5" y="-492.8" font-family="Arial" font-size="9.00"> </text>
<path fill="none" stroke="#333333" d="M490,-489C490,-489 580,-489 580,-489 586,-489 592,-495 592,-501 592,-501 592,-541 592,-541 592,-547 586,-553 580,-553 580,-553 490,-553 490,-553 484,-553 478,-547 478,-541 478,-541 478,-501 478,-501 478,-495 484,-489 490,-489"/>
<text text-anchor="start" x="533" y="-474.8" font-family="Arial" font-weight="bold" font-size="14.00"> </text>
</g>
<!-- 15&#45;&gt;16 -->
<g id="edge15" class="edge">
<title>15&#45;&gt;16</title>
<path fill="none" stroke="#888888" d="M535.62,-615.67C535.56,-607.39 535.51,-598.83 535.45,-590.38"/>
<polygon fill="#888888" stroke="#888888" points="538.95,-590.15 535.38,-580.18 531.95,-590.2 538.95,-590.15"/>
</g>
<!-- 17 -->
<g id="node17" class="node">
<title>17</title>
<text text-anchor="start" x="670" y="-561.8" font-family="Arial" font-weight="bold" font-size="14.00"> ≥ 20.5</text>
<path fill="#f8766d" fill-opacity="0.776471" stroke="transparent" d="M646,-489C646,-489 736,-489 736,-489 742,-489 748,-495 748,-501 748,-501 748,-541 748,-541 748,-547 742,-553 736,-553 736,-553 646,-553 646,-553 640,-553 634,-547 634,-541 634,-541 634,-501 634,-501 634,-495 640,-489 646,-489"/>
<text text-anchor="start" x="635" y="-550.4" font-family="Arial" font-size="2.00"> </text>
<text text-anchor="start" x="635" y="-544.4" font-family="Arial" font-size="7.00"> &#160;17</text>
<text text-anchor="start" x="649" y="-527.8" font-family="Arial" font-weight="bold" font-size="14.00">Predict 7.037</text>
<text text-anchor="start" x="671" y="-510.8" font-family="Arial" font-weight="bold" font-size="14.00">n = 12</text>
<text text-anchor="start" x="689.5" y="-492.8" font-family="Arial" font-size="9.00"> </text>
<path fill="none" stroke="#333333" d="M646,-489C646,-489 736,-489 736,-489 742,-489 748,-495 748,-501 748,-501 748,-541 748,-541 748,-547 742,-553 736,-553 736,-553 646,-553 646,-553 640,-553 634,-547 634,-541 634,-541 634,-501 634,-501 634,-495 640,-489 646,-489"/>
<text text-anchor="start" x="689" y="-474.8" font-family="Arial" font-weight="bold" font-size="14.00"> </text>
</g>
<!-- 15&#45;&gt;17 -->
<g id="edge16" class="edge">
<title>15&#45;&gt;17</title>
<path fill="none" stroke="#888888" d="M595.48,-615.67C604.94,-606.39 614.78,-596.75 624.38,-587.33"/>
<polygon fill="#888888" stroke="#888888" points="626.99,-589.68 631.68,-580.18 622.08,-584.68 626.99,-589.68"/>
</g>
<!-- 6 -->
<g id="node8" class="node">
<title>6</title>
<text text-anchor="start" x="40" y="-407.8" font-family="Arial" font-weight="bold" font-size="14.00"> &lt; 9.375</text>
<path fill="#f8766d" fill-opacity="0.647059" stroke="transparent" d="M24,-335C24,-335 106,-335 106,-335 112,-335 118,-341 118,-347 118,-347 118,-387 118,-387 118,-393 112,-399 106,-399 106,-399 24,-399 24,-399 18,-399 12,-393 12,-387 12,-387 12,-347 12,-347 12,-341 18,-335 24,-335"/>
<text text-anchor="start" x="13" y="-396.4" font-family="Arial" font-size="2.00"> </text>
<text text-anchor="start" x="13" y="-390.4" font-family="Arial" font-size="7.00"> &#160;6</text>
<text text-anchor="start" x="27" y="-373.8" font-family="Arial" font-weight="bold" font-size="14.00">Predict 8.74</text>
<text text-anchor="start" x="45" y="-356.8" font-family="Arial" font-weight="bold" font-size="14.00">n = 14</text>
<text text-anchor="start" x="63.5" y="-338.8" font-family="Arial" font-size="9.00"> </text>
<path fill="none" stroke="#333333" d="M24,-335C24,-335 106,-335 106,-335 112,-335 118,-341 118,-347 118,-347 118,-387 118,-387 118,-393 112,-399 106,-399 106,-399 24,-399 24,-399 18,-399 12,-393 12,-387 12,-387 12,-347 12,-347 12,-341 18,-335 24,-335"/>
<text text-anchor="start" x="63" y="-320.8" font-family="Arial" font-weight="bold" font-size="14.00"> </text>
</g>
<!-- 5&#45;&gt;6 -->
<g id="edge7" class="edge">
<title>5&#45;&gt;6</title>
<path fill="none" stroke="#888888" d="M156.82,-461.67C147.73,-452.39 138.27,-442.75 129.04,-433.33"/>
<polygon fill="#888888" stroke="#888888" points="131.53,-430.87 122.03,-426.18 126.53,-435.77 131.53,-430.87"/>
</g>
<!-- 7 -->
<g id="node9" class="node">
<title>7</title>
<text text-anchor="start" x="193" y="-407.8" font-family="Arial" font-weight="bold" font-size="14.00"> ≥ 9.375</text>
<path fill="#f8766d" fill-opacity="0.403922" stroke="transparent" d="M173,-335C173,-335 262,-335 262,-335 268,-335 274,-341 274,-347 274,-347 274,-387 274,-387 274,-393 268,-399 262,-399 262,-399 173,-399 173,-399 167,-399 161,-393 161,-387 161,-387 161,-347 161,-347 161,-341 167,-335 173,-335"/>
<text text-anchor="start" x="162" y="-396.4" font-family="Arial" font-size="2.00"> </text>
<text text-anchor="start" x="162" y="-390.4" font-family="Arial" font-size="7.00"> &#160;7</text>
<text text-anchor="start" x="176" y="-373.8" font-family="Arial" font-weight="bold" font-size="14.00">Predict 11.92</text>
<text text-anchor="start" x="201.5" y="-356.8" font-family="Arial" font-weight="bold" font-size="14.00">n = 8</text>
<text text-anchor="start" x="216" y="-338.8" font-family="Arial" font-size="9.00"> </text>
<path fill="none" stroke="#333333" d="M173,-335C173,-335 262,-335 262,-335 268,-335 274,-341 274,-347 274,-347 274,-387 274,-387 274,-393 268,-399 262,-399 262,-399 173,-399 173,-399 167,-399 161,-393 161,-387 161,-387 161,-347 161,-347 161,-341 167,-335 173,-335"/>
<text text-anchor="start" x="215.5" y="-320.8" font-family="Arial" font-weight="bold" font-size="14.00"> </text>
</g>
<!-- 5&#45;&gt;7 -->
<g id="edge8" class="edge">
<title>5&#45;&gt;7</title>
<path fill="none" stroke="#888888" d="M215.15,-461.67C215.31,-453.39 215.48,-444.83 215.65,-436.38"/>
<polygon fill="#888888" stroke="#888888" points="219.15,-436.24 215.85,-426.18 212.16,-436.11 219.15,-436.24"/>
</g>
<!-- 9 -->
<g id="node10" class="node">
<title>9</title>
<text text-anchor="start" x="360.5" y="-407.8" font-family="Arial" font-weight="bold" font-size="14.00"> &lt; 1.5</text>
<path fill="#f8766d" fill-opacity="0.615686" stroke="transparent" d="M333,-335C333,-335 423,-335 423,-335 429,-335 435,-341 435,-347 435,-347 435,-387 435,-387 435,-393 429,-399 423,-399 423,-399 333,-399 333,-399 327,-399 321,-393 321,-387 321,-387 321,-347 321,-347 321,-341 327,-335 333,-335"/>
<text text-anchor="start" x="322" y="-396.4" font-family="Arial" font-size="2.00"> </text>
<text text-anchor="start" x="322" y="-390.4" font-family="Arial" font-size="7.00"> &#160;9</text>
<text text-anchor="start" x="336" y="-373.8" font-family="Arial" font-weight="bold" font-size="14.00">Predict 9.179</text>
<text text-anchor="start" x="358" y="-356.8" font-family="Arial" font-weight="bold" font-size="14.00">n = 12</text>
<text text-anchor="start" x="376.5" y="-338.8" font-family="Arial" font-size="9.00"> </text>
<path fill="none" stroke="#333333" d="M333,-335C333,-335 423,-335 423,-335 429,-335 435,-341 435,-347 435,-347 435,-387 435,-387 435,-393 429,-399 423,-399 423,-399 333,-399 333,-399 327,-399 321,-393 321,-387 321,-387 321,-347 321,-347 321,-341 327,-335 333,-335"/>
<text text-anchor="start" x="376" y="-320.8" font-family="Arial" font-weight="bold" font-size="14.00"> </text>
</g>
<!-- 8&#45;&gt;9 -->
<g id="edge9" class="edge">
<title>8&#45;&gt;9</title>
<path fill="none" stroke="#888888" d="M379.23,-461.67C379.12,-453.39 379.01,-444.83 378.9,-436.38"/>
<polygon fill="#888888" stroke="#888888" points="382.4,-436.13 378.77,-426.18 375.4,-436.22 382.4,-436.13"/>
</g>
<!-- 10 -->
<g id="node11" class="node">
<title>10</title>
<text text-anchor="start" x="530" y="-407.8" font-family="Arial" font-weight="bold" font-size="14.00"> ≥ 1.5</text>
<text text-anchor="start" x="475" y="-363.3" font-family="Arial" font-size="14.00"> &#160;&#160;&#160;</text>
<path fill="#ebebeb" stroke="transparent" d="M505,-335C505,-335 589,-335 589,-335 595,-335 601,-341 601,-347 601,-347 601,-387 601,-387 601,-393 595,-399 589,-399 589,-399 505,-399 505,-399 499,-399 493,-393 493,-387 493,-387 493,-347 493,-347 493,-341 499,-335 505,-335"/>
<text text-anchor="start" x="494" y="-396.4" font-family="Arial" font-size="2.00"> </text>
<text text-anchor="start" x="494" y="-390.4" font-family="Arial" font-size="7.00"> &#160;10</text>
<text text-anchor="start" x="508" y="-373.8" font-family="Arial" font-weight="bold" font-size="14.00">Mean: 9.363</text>
<text text-anchor="start" x="527" y="-356.8" font-family="Arial" font-weight="bold" font-size="14.00">n = 30</text>
<text text-anchor="start" x="545.5" y="-338.8" font-family="Arial" font-size="9.00"> </text>
<path fill="none" stroke="#333333" d="M505,-335C505,-335 589,-335 589,-335 595,-335 601,-341 601,-347 601,-347 601,-387 601,-387 601,-393 595,-399 589,-399 589,-399 505,-399 505,-399 499,-399 493,-393 493,-387 493,-387 493,-347 493,-347 493,-341 499,-335 505,-335"/>
<text text-anchor="start" x="603" y="-363.3" font-family="Arial" font-size="14.00"> &#160;&#160;&#160;</text>
<text text-anchor="start" x="489.5" y="-320.8" font-family="Arial" font-weight="bold" font-size="14.00">prev_168h_inflow</text>
</g>
<!-- 8&#45;&gt;10 -->
<g id="edge10" class="edge">
<title>8&#45;&gt;10</title>
<path fill="none" stroke="#888888" d="M444.09,-461.67C454.38,-452.3 465.08,-442.56 475.53,-433.05"/>
<polygon fill="#888888" stroke="#888888" points="478.04,-435.5 483.08,-426.18 473.33,-430.32 478.04,-435.5"/>
</g>
<!-- 11 -->
<g id="node12" class="node">
<title>11</title>
<text text-anchor="start" x="437" y="-253.8" font-family="Arial" font-weight="bold" font-size="14.00"> &lt; 10.97</text>
<text text-anchor="start" x="390" y="-209.3" font-family="Arial" font-size="14.00"> &#160;&#160;&#160;</text>
<path fill="#ebebeb" stroke="transparent" d="M420,-181C420,-181 504,-181 504,-181 510,-181 516,-187 516,-193 516,-193 516,-233 516,-233 516,-239 510,-245 504,-245 504,-245 420,-245 420,-245 414,-245 408,-239 408,-233 408,-233 408,-193 408,-193 408,-187 414,-181 420,-181"/>
<text text-anchor="start" x="409" y="-242.4" font-family="Arial" font-size="2.00"> </text>
<text text-anchor="start" x="409" y="-236.4" font-family="Arial" font-size="7.00"> &#160;11</text>
<text text-anchor="start" x="423" y="-219.8" font-family="Arial" font-weight="bold" font-size="14.00">Mean: 9.036</text>
<text text-anchor="start" x="442" y="-202.8" font-family="Arial" font-weight="bold" font-size="14.00">n = 27</text>
<text text-anchor="start" x="460.5" y="-184.8" font-family="Arial" font-size="9.00"> </text>
<path fill="none" stroke="#333333" d="M420,-181C420,-181 504,-181 504,-181 510,-181 516,-187 516,-193 516,-193 516,-233 516,-233 516,-239 510,-245 504,-245 504,-245 420,-245 420,-245 414,-245 408,-239 408,-233 408,-233 408,-193 408,-193 408,-187 414,-181 420,-181"/>
<text text-anchor="start" x="518" y="-209.3" font-family="Arial" font-size="14.00"> &#160;&#160;&#160;</text>
<text text-anchor="start" x="404.5" y="-166.8" font-family="Arial" font-weight="bold" font-size="14.00">prev_168h_inflow</text>
</g>
<!-- 10&#45;&gt;11 -->
<g id="edge11" class="edge">
<title>10&#45;&gt;11</title>
<path fill="none" stroke="#888888" d="M514.38,-307.67C509.5,-298.94 504.43,-289.88 499.46,-280.99"/>
<polygon fill="#888888" stroke="#888888" points="502.47,-279.2 494.53,-272.18 496.36,-282.61 502.47,-279.2"/>
</g>
<!-- 14 -->
<g id="node13" class="node">
<title>14</title>
<text text-anchor="start" x="606.5" y="-253.8" font-family="Arial" font-weight="bold" font-size="14.00"> ≥ 10.97</text>
<path fill="#f8766d" fill-opacity="0.376471" stroke="transparent" d="M586,-181C586,-181 676,-181 676,-181 682,-181 688,-187 688,-193 688,-193 688,-233 688,-233 688,-239 682,-245 676,-245 676,-245 586,-245 586,-245 580,-245 574,-239 574,-233 574,-233 574,-193 574,-193 574,-187 580,-181 586,-181"/>
<text text-anchor="start" x="575" y="-242.4" font-family="Arial" font-size="2.00"> </text>
<text text-anchor="start" x="575" y="-236.4" font-family="Arial" font-size="7.00"> &#160;14</text>
<text text-anchor="start" x="589" y="-219.8" font-family="Arial" font-weight="bold" font-size="14.00">Predict 12.31</text>
<text text-anchor="start" x="615" y="-202.8" font-family="Arial" font-weight="bold" font-size="14.00">n = 3</text>
<text text-anchor="start" x="629.5" y="-184.8" font-family="Arial" font-size="9.00"> </text>
<path fill="none" stroke="#333333" d="M586,-181C586,-181 676,-181 676,-181 682,-181 688,-187 688,-193 688,-193 688,-233 688,-233 688,-239 682,-245 676,-245 676,-245 586,-245 586,-245 580,-245 574,-239 574,-233 574,-233 574,-193 574,-193 574,-187 580,-181 586,-181"/>
<text text-anchor="start" x="629" y="-166.8" font-family="Arial" font-weight="bold" font-size="14.00"> </text>
</g>
<!-- 10&#45;&gt;14 -->
<g id="edge12" class="edge">
<title>10&#45;&gt;14</title>
<path fill="none" stroke="#888888" d="M579.24,-307.67C584.06,-298.94 589.06,-289.88 593.98,-280.99"/>
<polygon fill="#888888" stroke="#888888" points="597.08,-282.62 598.85,-272.18 590.95,-279.24 597.08,-282.62"/>
</g>
<!-- 12 -->
<g id="node14" class="node">
<title>12</title>
<text text-anchor="start" x="362.5" y="-99.8" font-family="Arial" font-weight="bold" font-size="14.00"> &lt; 7.57</text>
<path fill="#f8766d" fill-opacity="0.874510" stroke="transparent" d="M339,-27C339,-27 429,-27 429,-27 435,-27 441,-33 441,-39 441,-39 441,-79 441,-79 441,-85 435,-91 429,-91 429,-91 339,-91 339,-91 333,-91 327,-85 327,-79 327,-79 327,-39 327,-39 327,-33 333,-27 339,-27"/>
<text text-anchor="start" x="328" y="-88.4" font-family="Arial" font-size="2.00"> </text>
<text text-anchor="start" x="328" y="-82.4" font-family="Arial" font-size="7.00"> &#160;12</text>
<text text-anchor="start" x="342" y="-65.8" font-family="Arial" font-weight="bold" font-size="14.00">Predict 5.757</text>
<text text-anchor="start" x="368" y="-48.8" font-family="Arial" font-weight="bold" font-size="14.00">n = 3</text>
<text text-anchor="start" x="382.5" y="-30.8" font-family="Arial" font-size="9.00"> </text>
<path fill="none" stroke="#333333" d="M339,-27C339,-27 429,-27 429,-27 435,-27 441,-33 441,-39 441,-39 441,-79 441,-79 441,-85 435,-91 429,-91 429,-91 339,-91 339,-91 333,-91 327,-85 327,-79 327,-79 327,-39 327,-39 327,-33 333,-27 339,-27"/>
<text text-anchor="start" x="382" y="-12.8" font-family="Arial" font-weight="bold" font-size="14.00"> </text>
</g>
<!-- 11&#45;&gt;12 -->
<g id="edge13" class="edge">
<title>11&#45;&gt;12</title>
<path fill="none" stroke="#888888" d="M432.07,-153.67C427.63,-145.03 423.04,-136.07 418.52,-127.27"/>
<polygon fill="#888888" stroke="#888888" points="421.53,-125.48 413.85,-118.18 415.31,-128.67 421.53,-125.48"/>
</g>
<!-- 13 -->
<g id="node15" class="node">
<title>13</title>
<text text-anchor="start" x="519" y="-99.8" font-family="Arial" font-weight="bold" font-size="14.00"> ≥ 7.57</text>
<path fill="#f8766d" fill-opacity="0.592157" stroke="transparent" d="M495,-27C495,-27 585,-27 585,-27 591,-27 597,-33 597,-39 597,-39 597,-79 597,-79 597,-85 591,-91 585,-91 585,-91 495,-91 495,-91 489,-91 483,-85 483,-79 483,-79 483,-39 483,-39 483,-33 489,-27 495,-27"/>
<text text-anchor="start" x="484" y="-88.4" font-family="Arial" font-size="2.00"> </text>
<text text-anchor="start" x="484" y="-82.4" font-family="Arial" font-size="7.00"> &#160;13</text>
<text text-anchor="start" x="498" y="-65.8" font-family="Arial" font-weight="bold" font-size="14.00">Predict 9.445</text>
<text text-anchor="start" x="520" y="-48.8" font-family="Arial" font-weight="bold" font-size="14.00">n = 24</text>
<text text-anchor="start" x="538.5" y="-30.8" font-family="Arial" font-size="9.00"> </text>
<path fill="none" stroke="#333333" d="M495,-27C495,-27 585,-27 585,-27 591,-27 597,-33 597,-39 597,-39 597,-79 597,-79 597,-85 591,-91 585,-91 585,-91 495,-91 495,-91 489,-91 483,-85 483,-79 483,-79 483,-39 483,-39 483,-33 489,-27 495,-27"/>
<text text-anchor="start" x="538" y="-12.8" font-family="Arial" font-weight="bold" font-size="14.00"> </text>
</g>
<!-- 11&#45;&gt;13 -->
<g id="edge14" class="edge">
<title>11&#45;&gt;13</title>
<path fill="none" stroke="#888888" d="M491.93,-153.67C496.37,-145.03 500.96,-136.07 505.48,-127.27"/>
<polygon fill="#888888" stroke="#888888" points="508.69,-128.67 510.15,-118.18 502.47,-125.48 508.69,-128.67"/>
</g>
</g>
</svg>
