<?xml version="1.0" encoding="UTF-8" standalone="no"?>
<!DOCTYPE svg PUBLIC "-//W3C//DTD SVG 1.1//EN"
 "http://www.w3.org/Graphics/SVG/1.1/DTD/svg11.dtd">
<!-- Generated by graphviz version 2.50.0 (20211204.2007)
 -->
<!-- Pages: 1 -->
<svg width="694pt" height="588pt"
 viewBox="0.00 0.00 694.00 588.00" xmlns="http://www.w3.org/2000/svg" xmlns:xlink="http://www.w3.org/1999/xlink">
<g id="graph0" class="graph" transform="scale(1 1) rotate(0) translate(4 584)">
<polygon fill="white" stroke="transparent" points="-4,4 -4,-584 690,-584 690,4 -4,4"/>
<!-- 1 -->
<g id="node1" class="node">
<title>1</title>
<text text-anchor="start" x="303" y="-561.8" font-family="Arial" font-weight="bold" font-size="14.00"> </text>
<text text-anchor="start" x="237" y="-517.3" font-family="Arial" font-size="14.00"> &#160;&#160;</text>
<path fill="#ebebeb" stroke="transparent" d="M263,-489C263,-489 347,-489 347,-489 353,-489 359,-495 359,-501 359,-501 359,-541 359,-541 359,-547 353,-553 347,-553 347,-553 263,-553 263,-553 257,-553 251,-547 251,-541 251,-541 251,-501 251,-501 251,-495 257,-489 263,-489"/>
<text text-anchor="start" x="252" y="-550.4" font-family="Arial" font-size="2.00"> </text>
<text text-anchor="start" x="252" y="-544.4" font-family="Arial" font-size="7.00"> &#160;1</text>
<text text-anchor="start" x="266" y="-527.8" font-family="Arial" font-weight="bold" font-size="14.00">Mean: 8.234</text>
<text text-anchor="start" x="281.5" y="-510.8" font-family="Arial" font-weight="bold" font-size="14.00">n = 672</text>
<text text-anchor="start" x="303.5" y="-492.8" font-family="Arial" font-size="9.00"> </text>
<path fill="none" stroke="#333333" d="M263,-489C263,-489 347,-489 347,-489 353,-489 359,-495 359,-501 359,-501 359,-541 359,-541 359,-547 353,-553 347,-553 347,-553 263,-553 263,-553 257,-553 251,-547 251,-541 251,-541 251,-501 251,-501 251,-495 257,-489 263,-489"/>
<text text-anchor="start" x="361" y="-517.3" font-family="Arial" font-size="14.00"> &#160;&#160;</text>
<text text-anchor="start" x="251.5" y="-474.8" font-family="Arial" font-weight="bold" font-size="14.00">prev_24h_inflow</text>
</g>
<!-- 2 -->
<g id="node2" class="node">
<title>2</title>
<text text-anchor="start" x="200.5" y="-407.8" font-family="Arial" font-weight="bold" font-size="14.00"> &lt; 8.04</text>
<path fill="#ebebeb" stroke="transparent" d="M180,-335C180,-335 264,-335 264,-335 270,-335 276,-341 276,-347 276,-347 276,-387 276,-387 276,-393 270,-399 264,-399 264,-399 180,-399 180,-399 174,-399 168,-393 168,-387 168,-387 168,-347 168,-347 168,-341 174,-335 180,-335"/>
<text text-anchor="start" x="169" y="-396.4" font-family="Arial" font-size="2.00"> </text>
<text text-anchor="start" x="169" y="-390.4" font-family="Arial" font-size="7.00"> &#160;2</text>
<text text-anchor="start" x="183" y="-373.8" font-family="Arial" font-weight="bold" font-size="14.00">Mean: 6.986</text>
<text text-anchor="start" x="198.5" y="-356.8" font-family="Arial" font-weight="bold" font-size="14.00">n = 312</text>
<text text-anchor="start" x="220.5" y="-338.8" font-family="Arial" font-size="9.00"> </text>
<path fill="none" stroke="#333333" d="M180,-335C180,-335 264,-335 264,-335 270,-335 276,-341 276,-347 276,-347 276,-387 276,-387 276,-393 270,-399 264,-399 264,-399 180,-399 180,-399 174,-399 168,-393 168,-387 168,-387 168,-347 168,-347 168,-341 174,-335 180,-335"/>
<text text-anchor="start" x="207.5" y="-320.8" font-family="Arial" font-weight="bold" font-size="14.00">time</text>
</g>
<!-- 1&#45;&gt;2 -->
<g id="edge1" class="edge">
<title>1&#45;&gt;2</title>
<path fill="none" stroke="#888888" d="M273.15,-461.67C268.38,-452.94 263.44,-443.88 258.58,-434.99"/>
<polygon fill="#888888" stroke="#888888" points="261.63,-433.28 253.77,-426.18 255.49,-436.63 261.63,-433.28"/>
</g>
<!-- 5 -->
<g id="node3" class="node">
<title>5</title>
<text text-anchor="start" x="367" y="-407.8" font-family="Arial" font-weight="bold" font-size="14.00"> ≥ 8.04</text>
<text text-anchor="start" x="316" y="-363.3" font-family="Arial" font-size="14.00"> &#160;&#160;&#160;</text>
<path fill="#ebebeb" stroke="transparent" d="M346,-335C346,-335 430,-335 430,-335 436,-335 442,-341 442,-347 442,-347 442,-387 442,-387 442,-393 436,-399 430,-399 430,-399 346,-399 346,-399 340,-399 334,-393 334,-387 334,-387 334,-347 334,-347 334,-341 340,-335 346,-335"/>
<text text-anchor="start" x="335" y="-396.4" font-family="Arial" font-size="2.00"> </text>
<text text-anchor="start" x="335" y="-390.4" font-family="Arial" font-size="7.00"> &#160;5</text>
<text text-anchor="start" x="349" y="-373.8" font-family="Arial" font-weight="bold" font-size="14.00">Mean: 9.315</text>
<text text-anchor="start" x="364.5" y="-356.8" font-family="Arial" font-weight="bold" font-size="14.00">n = 360</text>
<text text-anchor="start" x="386.5" y="-338.8" font-family="Arial" font-size="9.00"> </text>
<path fill="none" stroke="#333333" d="M346,-335C346,-335 430,-335 430,-335 436,-335 442,-341 442,-347 442,-347 442,-387 442,-387 442,-393 436,-399 430,-399 430,-399 346,-399 346,-399 340,-399 334,-393 334,-387 334,-387 334,-347 334,-347 334,-341 340,-335 346,-335"/>
<text text-anchor="start" x="444" y="-363.3" font-family="Arial" font-size="14.00"> &#160;&#160;&#160;</text>
<text text-anchor="start" x="330.5" y="-320.8" font-family="Arial" font-weight="bold" font-size="14.00">prev_168h_inflow</text>
</g>
<!-- 1&#45;&gt;5 -->
<g id="edge2" class="edge">
<title>1&#45;&gt;5</title>
<path fill="none" stroke="#888888" d="M336.85,-461.67C341.62,-452.94 346.56,-443.88 351.42,-434.99"/>
<polygon fill="#888888" stroke="#888888" points="354.51,-436.63 356.23,-426.18 348.37,-433.28 354.51,-436.63"/>
</g>
<!-- 3 -->
<g id="node4" class="node">
<title>3</title>
<text text-anchor="start" x="51.5" y="-253.8" font-family="Arial" font-weight="bold" font-size="14.00"> &lt; 5.5</text>
<path fill="#f8766d" fill-opacity="0.874510" stroke="transparent" d="M24,-181C24,-181 114,-181 114,-181 120,-181 126,-187 126,-193 126,-193 126,-233 126,-233 126,-239 120,-245 114,-245 114,-245 24,-245 24,-245 18,-245 12,-239 12,-233 12,-233 12,-193 12,-193 12,-187 18,-181 24,-181"/>
<text text-anchor="start" x="13" y="-242.4" font-family="Arial" font-size="2.00"> </text>
<text text-anchor="start" x="13" y="-236.4" font-family="Arial" font-size="7.00"> &#160;3</text>
<text text-anchor="start" x="27" y="-219.8" font-family="Arial" font-weight="bold" font-size="14.00">Predict 6.224</text>
<text text-anchor="start" x="45.5" y="-202.8" font-family="Arial" font-weight="bold" font-size="14.00">n = 168</text>
<text text-anchor="start" x="67.5" y="-184.8" font-family="Arial" font-size="9.00"> </text>
<path fill="none" stroke="#333333" d="M24,-181C24,-181 114,-181 114,-181 120,-181 126,-187 126,-193 126,-193 126,-233 126,-233 126,-239 120,-245 114,-245 114,-245 24,-245 24,-245 18,-245 12,-239 12,-233 12,-233 12,-193 12,-193 12,-187 18,-181 24,-181"/>
<text text-anchor="start" x="67" y="-166.8" font-family="Arial" font-weight="bold" font-size="14.00"> </text>
</g>
<!-- 2&#45;&gt;3 -->
<g id="edge3" class="edge">
<title>2&#45;&gt;3</title>
<path fill="none" stroke="#888888" d="M163.28,-307.67C153.95,-298.39 144.24,-288.75 134.76,-279.33"/>
<polygon fill="#888888" stroke="#888888" points="137.12,-276.74 127.56,-272.18 132.19,-281.71 137.12,-276.74"/>
</g>
<!-- 4 -->
<g id="node5" class="node">
<title>4</title>
<text text-anchor="start" x="208" y="-253.8" font-family="Arial" font-weight="bold" font-size="14.00"> ≥ 5.5</text>
<path fill="#f8766d" fill-opacity="0.705882" stroke="transparent" d="M180,-181C180,-181 270,-181 270,-181 276,-181 282,-187 282,-193 282,-193 282,-233 282,-233 282,-239 276,-245 270,-245 270,-245 180,-245 180,-245 174,-245 168,-239 168,-233 168,-233 168,-193 168,-193 168,-187 174,-181 180,-181"/>
<text text-anchor="start" x="169" y="-242.4" font-family="Arial" font-size="2.00"> </text>
<text text-anchor="start" x="169" y="-236.4" font-family="Arial" font-size="7.00"> &#160;4</text>
<text text-anchor="start" x="183" y="-219.8" font-family="Arial" font-weight="bold" font-size="14.00">Predict 7.876</text>
<text text-anchor="start" x="201.5" y="-202.8" font-family="Arial" font-weight="bold" font-size="14.00">n = 144</text>
<text text-anchor="start" x="223.5" y="-184.8" font-family="Arial" font-size="9.00"> </text>
<path fill="none" stroke="#333333" d="M180,-181C180,-181 270,-181 270,-181 276,-181 282,-187 282,-193 282,-193 282,-233 282,-233 282,-239 276,-245 270,-245 270,-245 180,-245 180,-245 174,-245 168,-239 168,-233 168,-233 168,-193 168,-193 168,-187 174,-181 180,-181"/>
<text text-anchor="start" x="223" y="-166.8" font-family="Arial" font-weight="bold" font-size="14.00"> </text>
</g>
<!-- 2&#45;&gt;4 -->
<g id="edge4" class="edge">
<title>2&#45;&gt;4</title>
<path fill="none" stroke="#888888" d="M223.15,-307.67C223.31,-299.39 223.48,-290.83 223.65,-282.38"/>
<polygon fill="#888888" stroke="#888888" points="227.15,-282.24 223.85,-272.18 220.16,-282.11 227.15,-282.24"/>
</g>
<!-- 6 -->
<g id="node6" class="node">
<title>6</title>
<text text-anchor="start" x="361" y="-253.8" font-family="Arial" font-weight="bold" font-size="14.00"> &lt; 9.405</text>
<path fill="#f8766d" fill-opacity="0.627451" stroke="transparent" d="M341,-181C341,-181 431,-181 431,-181 437,-181 443,-187 443,-193 443,-193 443,-233 443,-233 443,-239 437,-245 431,-245 431,-245 341,-245 341,-245 335,-245 329,-239 329,-233 329,-233 329,-193 329,-193 329,-187 335,-181 341,-181"/>
<text text-anchor="start" x="330" y="-242.4" font-family="Arial" font-size="2.00"> </text>
<text text-anchor="start" x="330" y="-236.4" font-family="Arial" font-size="7.00"> &#160;6</text>
<text text-anchor="start" x="344" y="-219.8" font-family="Arial" font-weight="bold" font-size="14.00">Predict 8.655</text>
<text text-anchor="start" x="362.5" y="-202.8" font-family="Arial" font-weight="bold" font-size="14.00">n = 185</text>
<text text-anchor="start" x="384.5" y="-184.8" font-family="Arial" font-size="9.00"> </text>
<path fill="none" stroke="#333333" d="M341,-181C341,-181 431,-181 431,-181 437,-181 443,-187 443,-193 443,-193 443,-233 443,-233 443,-239 437,-245 431,-245 431,-245 341,-245 341,-245 335,-245 329,-239 329,-233 329,-233 329,-193 329,-193 329,-187 335,-181 341,-181"/>
<text text-anchor="start" x="384" y="-166.8" font-family="Arial" font-weight="bold" font-size="14.00"> </text>
</g>
<!-- 5&#45;&gt;6 -->
<g id="edge5" class="edge">
<title>5&#45;&gt;6</title>
<path fill="none" stroke="#888888" d="M387.23,-307.67C387.12,-299.39 387.01,-290.83 386.9,-282.38"/>
<polygon fill="#888888" stroke="#888888" points="390.4,-282.13 386.77,-272.18 383.4,-282.22 390.4,-282.13"/>
</g>
<!-- 7 -->
<g id="node7" class="node">
<title>7</title>
<text text-anchor="start" x="514.5" y="-253.8" font-family="Arial" font-weight="bold" font-size="14.00"> ≥ 9.405</text>
<path fill="#ebebeb" stroke="transparent" d="M497,-181C497,-181 581,-181 581,-181 587,-181 593,-187 593,-193 593,-193 593,-233 593,-233 593,-239 587,-245 581,-245 581,-245 497,-245 497,-245 491,-245 485,-239 485,-233 485,-233 485,-193 485,-193 485,-187 491,-181 497,-181"/>
<text text-anchor="start" x="486" y="-242.4" font-family="Arial" font-size="2.00"> </text>
<text text-anchor="start" x="486" y="-236.4" font-family="Arial" font-size="7.00"> &#160;7</text>
<text text-anchor="start" x="500" y="-219.8" font-family="Arial" font-weight="bold" font-size="14.00">Mean: 10.01</text>
<text text-anchor="start" x="515.5" y="-202.8" font-family="Arial" font-weight="bold" font-size="14.00">n = 175</text>
<text text-anchor="start" x="537.5" y="-184.8" font-family="Arial" font-size="9.00"> </text>
<path fill="none" stroke="#333333" d="M497,-181C497,-181 581,-181 581,-181 587,-181 593,-187 593,-193 593,-193 593,-233 593,-233 593,-239 587,-245 581,-245 581,-245 497,-245 497,-245 491,-245 485,-239 485,-233 485,-233 485,-193 485,-193 485,-187 491,-181 497,-181"/>
<text text-anchor="start" x="524.5" y="-166.8" font-family="Arial" font-weight="bold" font-size="14.00">time</text>
</g>
<!-- 5&#45;&gt;7 -->
<g id="edge6" class="edge">
<title>5&#45;&gt;7</title>
<path fill="none" stroke="#888888" d="M445.95,-307.67C455.16,-298.39 464.74,-288.75 474.1,-279.33"/>
<polygon fill="#888888" stroke="#888888" points="476.64,-281.74 481.21,-272.18 471.68,-276.8 476.64,-281.74"/>
</g>
<!-- 8 -->
<g id="node8" class="node">
<title>8</title>
<text text-anchor="start" x="444" y="-99.8" font-family="Arial" font-weight="bold" font-size="14.00"> &lt; 8.5</text>
<path fill="#f8766d" fill-opacity="0.376471" stroke="transparent" d="M417,-27C417,-27 506,-27 506,-27 512,-27 518,-33 518,-39 518,-39 518,-79 518,-79 518,-85 512,-91 506,-91 506,-91 417,-91 417,-91 411,-91 405,-85 405,-79 405,-79 405,-39 405,-39 405,-33 411,-27 417,-27"/>
<text text-anchor="start" x="406" y="-88.4" font-family="Arial" font-size="2.00"> </text>
<text text-anchor="start" x="406" y="-82.4" font-family="Arial" font-size="7.00"> &#160;8</text>
<text text-anchor="start" x="420" y="-65.8" font-family="Arial" font-weight="bold" font-size="14.00">Predict 11.15</text>
<text text-anchor="start" x="441.5" y="-48.8" font-family="Arial" font-weight="bold" font-size="14.00">n = 48</text>
<text text-anchor="start" x="460" y="-30.8" font-family="Arial" font-size="9.00"> </text>
<path fill="none" stroke="#333333" d="M417,-27C417,-27 506,-27 506,-27 512,-27 518,-33 518,-39 518,-39 518,-79 518,-79 518,-85 512,-91 506,-91 506,-91 417,-91 417,-91 411,-91 405,-85 405,-79 405,-79 405,-39 405,-39 405,-33 411,-27 417,-27"/>
<text text-anchor="start" x="459.5" y="-12.8" font-family="Arial" font-weight="bold" font-size="14.00"> </text>
</g>
<!-- 7&#45;&gt;8 -->
<g id="edge7" class="edge">
<title>7&#45;&gt;8</title>
<path fill="none" stroke="#888888" d="M509.07,-153.67C504.63,-145.03 500.04,-136.07 495.52,-127.27"/>
<polygon fill="#888888" stroke="#888888" points="498.53,-125.48 490.85,-118.18 492.31,-128.67 498.53,-125.48"/>
</g>
<!-- 9 -->
<g id="node9" class="node">
<title>9</title>
<text text-anchor="start" x="600" y="-99.8" font-family="Arial" font-weight="bold" font-size="14.00"> ≥ 8.5</text>
<path fill="#f8766d" fill-opacity="0.533333" stroke="transparent" d="M572,-27C572,-27 662,-27 662,-27 668,-27 674,-33 674,-39 674,-39 674,-79 674,-79 674,-85 668,-91 662,-91 662,-91 572,-91 572,-91 566,-91 560,-85 560,-79 560,-79 560,-39 560,-39 560,-33 566,-27 572,-27"/>
<text text-anchor="start" x="561" y="-88.4" font-family="Arial" font-size="2.00"> </text>
<text text-anchor="start" x="561" y="-82.4" font-family="Arial" font-size="7.00"> &#160;9</text>
<text text-anchor="start" x="575" y="-65.8" font-family="Arial" font-weight="bold" font-size="14.00">Predict 9.587</text>
<text text-anchor="start" x="593.5" y="-48.8" font-family="Arial" font-weight="bold" font-size="14.00">n = 127</text>
<text text-anchor="start" x="615.5" y="-30.8" font-family="Arial" font-size="9.00"> </text>
<path fill="none" stroke="#333333" d="M572,-27C572,-27 662,-27 662,-27 668,-27 674,-33 674,-39 674,-39 674,-79 674,-79 674,-85 668,-91 662,-91 662,-91 572,-91 572,-91 566,-91 560,-85 560,-79 560,-79 560,-39 560,-39 560,-33 566,-27 572,-27"/>
<text text-anchor="start" x="615" y="-12.8" font-family="Arial" font-weight="bold" font-size="14.00"> </text>
</g>
<!-- 7&#45;&gt;9 -->
<g id="edge8" class="edge">
<title>7&#45;&gt;9</title>
<path fill="none" stroke="#888888" d="M568.93,-153.67C573.37,-145.03 577.96,-136.07 582.48,-127.27"/>
<polygon fill="#888888" stroke="#888888" points="585.69,-128.67 587.15,-118.18 579.47,-125.48 585.69,-128.67"/>
</g>
</g>
</svg>
