<?xml version="1.0" encoding="UTF-8" standalone="no"?>
<!DOCTYPE svg PUBLIC "-//W3C//DTD SVG 1.1//EN"
 "http://www.w3.org/Graphics/SVG/1.1/DTD/svg11.dtd">
<!-- Generated by graphviz version 2.50.0 (20211204.2007)
 -->
<!-- Pages: 1 -->
<svg width="1535pt" height="742pt"
 viewBox="0.00 0.00 1535.00 742.00" xmlns="http://www.w3.org/2000/svg" xmlns:xlink="http://www.w3.org/1999/xlink">
<g id="graph0" class="graph" transform="scale(1 1) rotate(0) translate(4 738)">
<polygon fill="white" stroke="transparent" points="-4,4 -4,-738 1531,-738 1531,4 -4,4"/>
<!-- 1 -->
<g id="node1" class="node">
<title>1</title>
<text text-anchor="start" x="960" y="-715.8" font-family="Arial" font-weight="bold" font-size="14.00"> </text>
<text text-anchor="start" x="898" y="-671.3" font-family="Arial" font-size="14.00"> &#160;</text>
<path fill="#ebebeb" stroke="transparent" d="M920,-643C920,-643 1004,-643 1004,-643 1010,-643 1016,-649 1016,-655 1016,-655 1016,-695 1016,-695 1016,-701 1010,-707 1004,-707 1004,-707 920,-707 920,-707 914,-707 908,-701 908,-695 908,-695 908,-655 908,-655 908,-649 914,-643 920,-643"/>
<text text-anchor="start" x="909" y="-704.4" font-family="Arial" font-size="2.00"> </text>
<text text-anchor="start" x="909" y="-698.4" font-family="Arial" font-size="7.00"> &#160;1</text>
<text text-anchor="start" x="923" y="-681.8" font-family="Arial" font-weight="bold" font-size="14.00">Mean: 28.97</text>
<text text-anchor="start" x="938.5" y="-664.8" font-family="Arial" font-weight="bold" font-size="14.00">n = 672</text>
<text text-anchor="start" x="960.5" y="-646.8" font-family="Arial" font-size="9.00"> </text>
<path fill="none" stroke="#333333" d="M920,-643C920,-643 1004,-643 1004,-643 1010,-643 1016,-649 1016,-655 1016,-655 1016,-695 1016,-695 1016,-701 1010,-707 1004,-707 1004,-707 920,-707 920,-707 914,-707 908,-701 908,-695 908,-695 908,-655 908,-655 908,-649 914,-643 920,-643"/>
<text text-anchor="start" x="1018" y="-671.3" font-family="Arial" font-size="14.00"> &#160;</text>
<text text-anchor="start" x="912" y="-628.8" font-family="Arial" font-weight="bold" font-size="14.00">prev_1h_inflow</text>
</g>
<!-- 2 -->
<g id="node2" class="node">
<title>2</title>
<text text-anchor="start" x="674" y="-561.8" font-family="Arial" font-weight="bold" font-size="14.00"> &lt; 30.74</text>
<text text-anchor="start" x="627" y="-517.3" font-family="Arial" font-size="14.00"> &#160;&#160;&#160;</text>
<path fill="#ebebeb" stroke="transparent" d="M657,-489C657,-489 741,-489 741,-489 747,-489 753,-495 753,-501 753,-501 753,-541 753,-541 753,-547 747,-553 741,-553 741,-553 657,-553 657,-553 651,-553 645,-547 645,-541 645,-541 645,-501 645,-501 645,-495 651,-489 657,-489"/>
<text text-anchor="start" x="646" y="-550.4" font-family="Arial" font-size="2.00"> </text>
<text text-anchor="start" x="646" y="-544.4" font-family="Arial" font-size="7.00"> &#160;2</text>
<text text-anchor="start" x="660" y="-527.8" font-family="Arial" font-weight="bold" font-size="14.00">Mean: 26.09</text>
<text text-anchor="start" x="675.5" y="-510.8" font-family="Arial" font-weight="bold" font-size="14.00">n = 410</text>
<text text-anchor="start" x="697.5" y="-492.8" font-family="Arial" font-size="9.00"> </text>
<path fill="none" stroke="#333333" d="M657,-489C657,-489 741,-489 741,-489 747,-489 753,-495 753,-501 753,-501 753,-541 753,-541 753,-547 747,-553 741,-553 741,-553 657,-553 657,-553 651,-553 645,-547 645,-541 645,-541 645,-501 645,-501 645,-495 651,-489 657,-489"/>
<text text-anchor="start" x="755" y="-517.3" font-family="Arial" font-size="14.00"> &#160;&#160;&#160;</text>
<text text-anchor="start" x="641.5" y="-474.8" font-family="Arial" font-weight="bold" font-size="14.00">prev_168h_inflow</text>
</g>
<!-- 1&#45;&gt;2 -->
<g id="edge1" class="edge">
<title>1&#45;&gt;2</title>
<path fill="none" stroke="#888888" d="M887.69,-631.05C857.42,-613.56 822.13,-593.16 790.32,-574.78"/>
<polygon fill="#888888" stroke="#888888" points="791.85,-571.62 781.44,-569.65 788.35,-577.68 791.85,-571.62"/>
</g>
<!-- 15 -->
<g id="node3" class="node">
<title>15</title>
<text text-anchor="start" x="1045.5" y="-561.8" font-family="Arial" font-weight="bold" font-size="14.00"> ≥ 30.74</text>
<text text-anchor="start" x="998" y="-517.3" font-family="Arial" font-size="14.00"> &#160;&#160;&#160;</text>
<path fill="#ebebeb" stroke="transparent" d="M1028,-489C1028,-489 1112,-489 1112,-489 1118,-489 1124,-495 1124,-501 1124,-501 1124,-541 1124,-541 1124,-547 1118,-553 1112,-553 1112,-553 1028,-553 1028,-553 1022,-553 1016,-547 1016,-541 1016,-541 1016,-501 1016,-501 1016,-495 1022,-489 1028,-489"/>
<text text-anchor="start" x="1017" y="-550.4" font-family="Arial" font-size="2.00"> </text>
<text text-anchor="start" x="1017" y="-544.4" font-family="Arial" font-size="7.00"> &#160;15</text>
<text text-anchor="start" x="1031" y="-527.8" font-family="Arial" font-weight="bold" font-size="14.00">Mean: 33.49</text>
<text text-anchor="start" x="1046.5" y="-510.8" font-family="Arial" font-weight="bold" font-size="14.00">n = 262</text>
<text text-anchor="start" x="1068.5" y="-492.8" font-family="Arial" font-size="9.00"> </text>
<path fill="none" stroke="#333333" d="M1028,-489C1028,-489 1112,-489 1112,-489 1118,-489 1124,-495 1124,-501 1124,-501 1124,-541 1124,-541 1124,-547 1118,-553 1112,-553 1112,-553 1028,-553 1028,-553 1022,-553 1016,-547 1016,-541 1016,-541 1016,-501 1016,-501 1016,-495 1022,-489 1028,-489"/>
<text text-anchor="start" x="1126" y="-517.3" font-family="Arial" font-size="14.00"> &#160;&#160;&#160;</text>
<text text-anchor="start" x="1012.5" y="-474.8" font-family="Arial" font-weight="bold" font-size="14.00">prev_168h_inflow</text>
</g>
<!-- 1&#45;&gt;15 -->
<g id="edge2" class="edge">
<title>1&#45;&gt;15</title>
<path fill="none" stroke="#888888" d="M1003.45,-615.67C1009.78,-606.76 1016.35,-597.51 1022.79,-588.44"/>
<polygon fill="#888888" stroke="#888888" points="1025.73,-590.36 1028.66,-580.18 1020.02,-586.3 1025.73,-590.36"/>
</g>
<!-- 3 -->
<g id="node4" class="node">
<title>3</title>
<text text-anchor="start" x="402" y="-407.8" font-family="Arial" font-weight="bold" font-size="14.00"> &lt; 28.16</text>
<path fill="#ebebeb" stroke="transparent" d="M385,-335C385,-335 469,-335 469,-335 475,-335 481,-341 481,-347 481,-347 481,-387 481,-387 481,-393 475,-399 469,-399 469,-399 385,-399 385,-399 379,-399 373,-393 373,-387 373,-387 373,-347 373,-347 373,-341 379,-335 385,-335"/>
<text text-anchor="start" x="374" y="-396.4" font-family="Arial" font-size="2.00"> </text>
<text text-anchor="start" x="374" y="-390.4" font-family="Arial" font-size="7.00"> &#160;3</text>
<text text-anchor="start" x="388" y="-373.8" font-family="Arial" font-weight="bold" font-size="14.00">Mean: 24.87</text>
<text text-anchor="start" x="403.5" y="-356.8" font-family="Arial" font-weight="bold" font-size="14.00">n = 313</text>
<text text-anchor="start" x="425.5" y="-338.8" font-family="Arial" font-size="9.00"> </text>
<path fill="none" stroke="#333333" d="M385,-335C385,-335 469,-335 469,-335 475,-335 481,-341 481,-347 481,-347 481,-387 481,-387 481,-393 475,-399 469,-399 469,-399 385,-399 385,-399 379,-399 373,-393 373,-387 373,-387 373,-347 373,-347 373,-341 379,-335 385,-335"/>
<text text-anchor="start" x="412.5" y="-320.8" font-family="Arial" font-weight="bold" font-size="14.00">time</text>
</g>
<!-- 2&#45;&gt;3 -->
<g id="edge3" class="edge">
<title>2&#45;&gt;3</title>
<path fill="none" stroke="#888888" d="M616.65,-473.98C580.18,-453.6 537.59,-429.8 502.01,-409.92"/>
<polygon fill="#888888" stroke="#888888" points="503.56,-406.77 493.12,-404.95 500.15,-412.89 503.56,-406.77"/>
</g>
<!-- 10 -->
<g id="node5" class="node">
<title>10</title>
<text text-anchor="start" x="674.5" y="-407.8" font-family="Arial" font-weight="bold" font-size="14.00"> ≥ 28.16</text>
<text text-anchor="start" x="635" y="-363.3" font-family="Arial" font-size="14.00"> &#160;</text>
<path fill="#ebebeb" stroke="transparent" d="M657,-335C657,-335 741,-335 741,-335 747,-335 753,-341 753,-347 753,-347 753,-387 753,-387 753,-393 747,-399 741,-399 741,-399 657,-399 657,-399 651,-399 645,-393 645,-387 645,-387 645,-347 645,-347 645,-341 651,-335 657,-335"/>
<text text-anchor="start" x="646" y="-396.4" font-family="Arial" font-size="2.00"> </text>
<text text-anchor="start" x="646" y="-390.4" font-family="Arial" font-size="7.00"> &#160;10</text>
<text text-anchor="start" x="660" y="-373.8" font-family="Arial" font-weight="bold" font-size="14.00">Mean: 29.99</text>
<text text-anchor="start" x="679" y="-356.8" font-family="Arial" font-weight="bold" font-size="14.00">n = 97</text>
<text text-anchor="start" x="697.5" y="-338.8" font-family="Arial" font-size="9.00"> </text>
<path fill="none" stroke="#333333" d="M657,-335C657,-335 741,-335 741,-335 747,-335 753,-341 753,-347 753,-347 753,-387 753,-387 753,-393 747,-399 741,-399 741,-399 657,-399 657,-399 651,-399 645,-393 645,-387 645,-387 645,-347 645,-347 645,-341 651,-335 657,-335"/>
<text text-anchor="start" x="755" y="-363.3" font-family="Arial" font-size="14.00"> &#160;</text>
<text text-anchor="start" x="649" y="-320.8" font-family="Arial" font-weight="bold" font-size="14.00">prev_1h_inflow</text>
</g>
<!-- 2&#45;&gt;10 -->
<g id="edge4" class="edge">
<title>2&#45;&gt;10</title>
<path fill="none" stroke="#888888" d="M699,-461.67C699,-453.39 699,-444.83 699,-436.38"/>
<polygon fill="#888888" stroke="#888888" points="702.5,-436.18 699,-426.18 695.5,-436.18 702.5,-436.18"/>
</g>
<!-- 16 -->
<g id="node16" class="node">
<title>16</title>
<text text-anchor="start" x="1048.5" y="-407.8" font-family="Arial" font-weight="bold" font-size="14.00"> &lt; 33.8</text>
<path fill="#ebebeb" stroke="transparent" d="M1028,-335C1028,-335 1112,-335 1112,-335 1118,-335 1124,-341 1124,-347 1124,-347 1124,-387 1124,-387 1124,-393 1118,-399 1112,-399 1112,-399 1028,-399 1028,-399 1022,-399 1016,-393 1016,-387 1016,-387 1016,-347 1016,-347 1016,-341 1022,-335 1028,-335"/>
<text text-anchor="start" x="1017" y="-396.4" font-family="Arial" font-size="2.00"> </text>
<text text-anchor="start" x="1017" y="-390.4" font-family="Arial" font-size="7.00"> &#160;16</text>
<text text-anchor="start" x="1031" y="-373.8" font-family="Arial" font-weight="bold" font-size="14.00">Mean: 32.28</text>
<text text-anchor="start" x="1046.5" y="-356.8" font-family="Arial" font-weight="bold" font-size="14.00">n = 145</text>
<text text-anchor="start" x="1068.5" y="-338.8" font-family="Arial" font-size="9.00"> </text>
<path fill="none" stroke="#333333" d="M1028,-335C1028,-335 1112,-335 1112,-335 1118,-335 1124,-341 1124,-347 1124,-347 1124,-387 1124,-387 1124,-393 1118,-399 1112,-399 1112,-399 1028,-399 1028,-399 1022,-399 1016,-393 1016,-387 1016,-387 1016,-347 1016,-347 1016,-341 1022,-335 1028,-335"/>
<text text-anchor="start" x="1055.5" y="-320.8" font-family="Arial" font-weight="bold" font-size="14.00">time</text>
</g>
<!-- 15&#45;&gt;16 -->
<g id="edge15" class="edge">
<title>15&#45;&gt;16</title>
<path fill="none" stroke="#888888" d="M1070,-461.67C1070,-453.39 1070,-444.83 1070,-436.38"/>
<polygon fill="#888888" stroke="#888888" points="1073.5,-436.18 1070,-426.18 1066.5,-436.18 1073.5,-436.18"/>
</g>
<!-- 21 -->
<g id="node17" class="node">
<title>21</title>
<text text-anchor="start" x="1282" y="-407.8" font-family="Arial" font-weight="bold" font-size="14.00"> ≥ 33.8</text>
<path fill="#ebebeb" stroke="transparent" d="M1261,-335C1261,-335 1345,-335 1345,-335 1351,-335 1357,-341 1357,-347 1357,-347 1357,-387 1357,-387 1357,-393 1351,-399 1345,-399 1345,-399 1261,-399 1261,-399 1255,-399 1249,-393 1249,-387 1249,-387 1249,-347 1249,-347 1249,-341 1255,-335 1261,-335"/>
<text text-anchor="start" x="1250" y="-396.4" font-family="Arial" font-size="2.00"> </text>
<text text-anchor="start" x="1250" y="-390.4" font-family="Arial" font-size="7.00"> &#160;21</text>
<text text-anchor="start" x="1264" y="-373.8" font-family="Arial" font-weight="bold" font-size="14.00">Mean: 34.99</text>
<text text-anchor="start" x="1280" y="-356.8" font-family="Arial" font-weight="bold" font-size="14.00">n = 117</text>
<text text-anchor="start" x="1301.5" y="-338.8" font-family="Arial" font-size="9.00"> </text>
<path fill="none" stroke="#333333" d="M1261,-335C1261,-335 1345,-335 1345,-335 1351,-335 1357,-341 1357,-347 1357,-347 1357,-387 1357,-387 1357,-393 1351,-399 1345,-399 1345,-399 1261,-399 1261,-399 1255,-399 1249,-393 1249,-387 1249,-387 1249,-347 1249,-347 1249,-341 1255,-335 1261,-335"/>
<text text-anchor="start" x="1288.5" y="-320.8" font-family="Arial" font-weight="bold" font-size="14.00">time</text>
</g>
<!-- 15&#45;&gt;21 -->
<g id="edge16" class="edge">
<title>15&#45;&gt;21</title>
<path fill="none" stroke="#888888" d="M1152.15,-466.41C1176.99,-450.2 1204.13,-432.5 1228.45,-416.63"/>
<polygon fill="#888888" stroke="#888888" points="1230.46,-419.5 1236.93,-411.1 1226.64,-413.64 1230.46,-419.5"/>
</g>
<!-- 4 -->
<g id="node6" class="node">
<title>4</title>
<text text-anchor="start" x="199.5" y="-253.8" font-family="Arial" font-weight="bold" font-size="14.00"> &lt; 5.5</text>
<text text-anchor="start" x="145" y="-209.3" font-family="Arial" font-size="14.00"> &#160;&#160;&#160;</text>
<path fill="#ebebeb" stroke="transparent" d="M175,-181C175,-181 259,-181 259,-181 265,-181 271,-187 271,-193 271,-193 271,-233 271,-233 271,-239 265,-245 259,-245 259,-245 175,-245 175,-245 169,-245 163,-239 163,-233 163,-233 163,-193 163,-193 163,-187 169,-181 175,-181"/>
<text text-anchor="start" x="164" y="-242.4" font-family="Arial" font-size="2.00"> </text>
<text text-anchor="start" x="164" y="-236.4" font-family="Arial" font-size="7.00"> &#160;4</text>
<text text-anchor="start" x="178" y="-219.8" font-family="Arial" font-weight="bold" font-size="14.00">Mean: 23.37</text>
<text text-anchor="start" x="193.5" y="-202.8" font-family="Arial" font-weight="bold" font-size="14.00">n = 168</text>
<text text-anchor="start" x="215.5" y="-184.8" font-family="Arial" font-size="9.00"> </text>
<path fill="none" stroke="#333333" d="M175,-181C175,-181 259,-181 259,-181 265,-181 271,-187 271,-193 271,-193 271,-233 271,-233 271,-239 265,-245 259,-245 259,-245 175,-245 175,-245 169,-245 163,-239 163,-233 163,-233 163,-193 163,-193 163,-187 169,-181 175,-181"/>
<text text-anchor="start" x="273" y="-209.3" font-family="Arial" font-size="14.00"> &#160;&#160;&#160;</text>
<text text-anchor="start" x="159.5" y="-166.8" font-family="Arial" font-weight="bold" font-size="14.00">prev_168h_inflow</text>
</g>
<!-- 3&#45;&gt;4 -->
<g id="edge5" class="edge">
<title>3&#45;&gt;4</title>
<path fill="none" stroke="#888888" d="M360.84,-318.11C343.25,-305.38 323.96,-291.42 305.38,-277.97"/>
<polygon fill="#888888" stroke="#888888" points="307.35,-275.07 297.19,-272.04 303.24,-280.74 307.35,-275.07"/>
</g>
<!-- 7 -->
<g id="node7" class="node">
<title>7</title>
<text text-anchor="start" x="410" y="-253.8" font-family="Arial" font-weight="bold" font-size="14.00"> ≥ 5.5</text>
<text text-anchor="start" x="355" y="-209.3" font-family="Arial" font-size="14.00"> &#160;&#160;&#160;</text>
<path fill="#ebebeb" stroke="transparent" d="M385,-181C385,-181 469,-181 469,-181 475,-181 481,-187 481,-193 481,-193 481,-233 481,-233 481,-239 475,-245 469,-245 469,-245 385,-245 385,-245 379,-245 373,-239 373,-233 373,-233 373,-193 373,-193 373,-187 379,-181 385,-181"/>
<text text-anchor="start" x="374" y="-242.4" font-family="Arial" font-size="2.00"> </text>
<text text-anchor="start" x="374" y="-236.4" font-family="Arial" font-size="7.00"> &#160;7</text>
<text text-anchor="start" x="388" y="-219.8" font-family="Arial" font-weight="bold" font-size="14.00">Mean: 26.61</text>
<text text-anchor="start" x="403.5" y="-202.8" font-family="Arial" font-weight="bold" font-size="14.00">n = 145</text>
<text text-anchor="start" x="425.5" y="-184.8" font-family="Arial" font-size="9.00"> </text>
<path fill="none" stroke="#333333" d="M385,-181C385,-181 469,-181 469,-181 475,-181 481,-187 481,-193 481,-193 481,-233 481,-233 481,-239 475,-245 469,-245 469,-245 385,-245 385,-245 379,-245 373,-239 373,-233 373,-233 373,-193 373,-193 373,-187 379,-181 385,-181"/>
<text text-anchor="start" x="483" y="-209.3" font-family="Arial" font-size="14.00"> &#160;&#160;&#160;</text>
<text text-anchor="start" x="369.5" y="-166.8" font-family="Arial" font-weight="bold" font-size="14.00">prev_168h_inflow</text>
</g>
<!-- 3&#45;&gt;7 -->
<g id="edge6" class="edge">
<title>3&#45;&gt;7</title>
<path fill="none" stroke="#888888" d="M427,-307.67C427,-299.39 427,-290.83 427,-282.38"/>
<polygon fill="#888888" stroke="#888888" points="430.5,-282.18 427,-272.18 423.5,-282.18 430.5,-282.18"/>
</g>
<!-- 11 -->
<g id="node12" class="node">
<title>11</title>
<text text-anchor="start" x="598" y="-253.8" font-family="Arial" font-weight="bold" font-size="14.00"> &lt; 26.52</text>
<path fill="#f8766d" fill-opacity="0.733333" stroke="transparent" d="M578,-181C578,-181 668,-181 668,-181 674,-181 680,-187 680,-193 680,-193 680,-233 680,-233 680,-239 674,-245 668,-245 668,-245 578,-245 578,-245 572,-245 566,-239 566,-233 566,-233 566,-193 566,-193 566,-187 572,-181 578,-181"/>
<text text-anchor="start" x="567" y="-242.4" font-family="Arial" font-size="2.00"> </text>
<text text-anchor="start" x="567" y="-236.4" font-family="Arial" font-size="7.00"> &#160;11</text>
<text text-anchor="start" x="581" y="-219.8" font-family="Arial" font-weight="bold" font-size="14.00">Predict 28.65</text>
<text text-anchor="start" x="603" y="-202.8" font-family="Arial" font-weight="bold" font-size="14.00">n = 21</text>
<text text-anchor="start" x="621.5" y="-184.8" font-family="Arial" font-size="9.00"> </text>
<path fill="none" stroke="#333333" d="M578,-181C578,-181 668,-181 668,-181 674,-181 680,-187 680,-193 680,-193 680,-233 680,-233 680,-239 674,-245 668,-245 668,-245 578,-245 578,-245 572,-245 566,-239 566,-233 566,-233 566,-193 566,-193 566,-187 572,-181 578,-181"/>
<text text-anchor="start" x="621" y="-166.8" font-family="Arial" font-weight="bold" font-size="14.00"> </text>
</g>
<!-- 10&#45;&gt;11 -->
<g id="edge11" class="edge">
<title>10&#45;&gt;11</title>
<path fill="none" stroke="#888888" d="M669.83,-307.67C665.52,-299.03 661.04,-290.07 656.64,-281.27"/>
<polygon fill="#888888" stroke="#888888" points="659.69,-279.56 652.09,-272.18 653.43,-282.69 659.69,-279.56"/>
</g>
<!-- 12 -->
<g id="node13" class="node">
<title>12</title>
<text text-anchor="start" x="751.5" y="-253.8" font-family="Arial" font-weight="bold" font-size="14.00"> ≥ 26.52</text>
<path fill="#ebebeb" stroke="transparent" d="M734,-181C734,-181 818,-181 818,-181 824,-181 830,-187 830,-193 830,-193 830,-233 830,-233 830,-239 824,-245 818,-245 818,-245 734,-245 734,-245 728,-245 722,-239 722,-233 722,-233 722,-193 722,-193 722,-187 728,-181 734,-181"/>
<text text-anchor="start" x="723" y="-242.4" font-family="Arial" font-size="2.00"> </text>
<text text-anchor="start" x="723" y="-236.4" font-family="Arial" font-size="7.00"> &#160;12</text>
<text text-anchor="start" x="737" y="-219.8" font-family="Arial" font-weight="bold" font-size="14.00">Mean: 30.36</text>
<text text-anchor="start" x="756" y="-202.8" font-family="Arial" font-weight="bold" font-size="14.00">n = 76</text>
<text text-anchor="start" x="774.5" y="-184.8" font-family="Arial" font-size="9.00"> </text>
<path fill="none" stroke="#333333" d="M734,-181C734,-181 818,-181 818,-181 824,-181 830,-187 830,-193 830,-193 830,-233 830,-233 830,-239 824,-245 818,-245 818,-245 734,-245 734,-245 728,-245 722,-239 722,-233 722,-233 722,-193 722,-193 722,-187 728,-181 734,-181"/>
<text text-anchor="start" x="761.5" y="-166.8" font-family="Arial" font-weight="bold" font-size="14.00">time</text>
</g>
<!-- 10&#45;&gt;12 -->
<g id="edge12" class="edge">
<title>10&#45;&gt;12</title>
<path fill="none" stroke="#888888" d="M728.55,-307.67C732.93,-299.03 737.46,-290.07 741.92,-281.27"/>
<polygon fill="#888888" stroke="#888888" points="745.13,-282.68 746.53,-272.18 738.89,-279.52 745.13,-282.68"/>
</g>
<!-- 5 -->
<g id="node8" class="node">
<title>5</title>
<text text-anchor="start" x="40" y="-99.8" font-family="Arial" font-weight="bold" font-size="14.00"> &lt; 22.61</text>
<path fill="#f8766d" fill-opacity="0.874510" stroke="transparent" d="M24,-27C24,-27 106,-27 106,-27 112,-27 118,-33 118,-39 118,-39 118,-79 118,-79 118,-85 112,-91 106,-91 106,-91 24,-91 24,-91 18,-91 12,-85 12,-79 12,-79 12,-39 12,-39 12,-33 18,-27 24,-27"/>
<text text-anchor="start" x="13" y="-88.4" font-family="Arial" font-size="2.00"> </text>
<text text-anchor="start" x="13" y="-82.4" font-family="Arial" font-size="7.00"> &#160;5</text>
<text text-anchor="start" x="27" y="-65.8" font-family="Arial" font-weight="bold" font-size="14.00">Predict 22.5</text>
<text text-anchor="start" x="45" y="-48.8" font-family="Arial" font-weight="bold" font-size="14.00">n = 60</text>
<text text-anchor="start" x="63.5" y="-30.8" font-family="Arial" font-size="9.00"> </text>
<path fill="none" stroke="#333333" d="M24,-27C24,-27 106,-27 106,-27 112,-27 118,-33 118,-39 118,-39 118,-79 118,-79 118,-85 112,-91 106,-91 106,-91 24,-91 24,-91 18,-91 12,-85 12,-79 12,-79 12,-39 12,-39 12,-33 18,-27 24,-27"/>
<text text-anchor="start" x="63" y="-12.8" font-family="Arial" font-weight="bold" font-size="14.00"> </text>
</g>
<!-- 4&#45;&gt;5 -->
<g id="edge7" class="edge">
<title>4&#45;&gt;5</title>
<path fill="none" stroke="#888888" d="M158.67,-153.67C149.39,-144.39 139.75,-134.75 130.33,-125.33"/>
<polygon fill="#888888" stroke="#888888" points="132.72,-122.77 123.18,-118.18 127.77,-127.72 132.72,-122.77"/>
</g>
<!-- 6 -->
<g id="node9" class="node">
<title>6</title>
<text text-anchor="start" x="192.5" y="-99.8" font-family="Arial" font-weight="bold" font-size="14.00"> ≥ 22.61</text>
<path fill="#f8766d" fill-opacity="0.843137" stroke="transparent" d="M172,-27C172,-27 262,-27 262,-27 268,-27 274,-33 274,-39 274,-39 274,-79 274,-79 274,-85 268,-91 262,-91 262,-91 172,-91 172,-91 166,-91 160,-85 160,-79 160,-79 160,-39 160,-39 160,-33 166,-27 172,-27"/>
<text text-anchor="start" x="161" y="-88.4" font-family="Arial" font-size="2.00"> </text>
<text text-anchor="start" x="161" y="-82.4" font-family="Arial" font-size="7.00"> &#160;6</text>
<text text-anchor="start" x="175" y="-65.8" font-family="Arial" font-weight="bold" font-size="14.00">Predict 23.86</text>
<text text-anchor="start" x="193.5" y="-48.8" font-family="Arial" font-weight="bold" font-size="14.00">n = 108</text>
<text text-anchor="start" x="215.5" y="-30.8" font-family="Arial" font-size="9.00"> </text>
<path fill="none" stroke="#333333" d="M172,-27C172,-27 262,-27 262,-27 268,-27 274,-33 274,-39 274,-39 274,-79 274,-79 274,-85 268,-91 262,-91 262,-91 172,-91 172,-91 166,-91 160,-85 160,-79 160,-79 160,-39 160,-39 160,-33 166,-27 172,-27"/>
<text text-anchor="start" x="215" y="-12.8" font-family="Arial" font-weight="bold" font-size="14.00"> </text>
</g>
<!-- 4&#45;&gt;6 -->
<g id="edge8" class="edge">
<title>4&#45;&gt;6</title>
<path fill="none" stroke="#888888" d="M217,-153.67C217,-145.39 217,-136.83 217,-128.38"/>
<polygon fill="#888888" stroke="#888888" points="220.5,-128.18 217,-118.18 213.5,-128.18 220.5,-128.18"/>
</g>
<!-- 8 -->
<g id="node10" class="node">
<title>8</title>
<text text-anchor="start" x="348" y="-99.8" font-family="Arial" font-weight="bold" font-size="14.00"> &lt; 25.93</text>
<path fill="#f8766d" fill-opacity="0.803922" stroke="transparent" d="M328,-27C328,-27 418,-27 418,-27 424,-27 430,-33 430,-39 430,-39 430,-79 430,-79 430,-85 424,-91 418,-91 418,-91 328,-91 328,-91 322,-91 316,-85 316,-79 316,-79 316,-39 316,-39 316,-33 322,-27 328,-27"/>
<text text-anchor="start" x="317" y="-88.4" font-family="Arial" font-size="2.00"> </text>
<text text-anchor="start" x="317" y="-82.4" font-family="Arial" font-size="7.00"> &#160;8</text>
<text text-anchor="start" x="331" y="-65.8" font-family="Arial" font-weight="bold" font-size="14.00">Predict 25.59</text>
<text text-anchor="start" x="353" y="-48.8" font-family="Arial" font-weight="bold" font-size="14.00">n = 67</text>
<text text-anchor="start" x="371.5" y="-30.8" font-family="Arial" font-size="9.00"> </text>
<path fill="none" stroke="#333333" d="M328,-27C328,-27 418,-27 418,-27 424,-27 430,-33 430,-39 430,-39 430,-79 430,-79 430,-85 424,-91 418,-91 418,-91 328,-91 328,-91 322,-91 316,-85 316,-79 316,-79 316,-39 316,-39 316,-33 322,-27 328,-27"/>
<text text-anchor="start" x="371" y="-12.8" font-family="Arial" font-weight="bold" font-size="14.00"> </text>
</g>
<!-- 7&#45;&gt;8 -->
<g id="edge9" class="edge">
<title>7&#45;&gt;8</title>
<path fill="none" stroke="#888888" d="M406.28,-153.67C403.27,-145.21 400.16,-136.45 397.1,-127.83"/>
<polygon fill="#888888" stroke="#888888" points="400.31,-126.43 393.67,-118.18 393.72,-128.77 400.31,-126.43"/>
</g>
<!-- 9 -->
<g id="node11" class="node">
<title>9</title>
<text text-anchor="start" x="504.5" y="-99.8" font-family="Arial" font-weight="bold" font-size="14.00"> ≥ 25.93</text>
<path fill="#f8766d" fill-opacity="0.760784" stroke="transparent" d="M484,-27C484,-27 574,-27 574,-27 580,-27 586,-33 586,-39 586,-39 586,-79 586,-79 586,-85 580,-91 574,-91 574,-91 484,-91 484,-91 478,-91 472,-85 472,-79 472,-79 472,-39 472,-39 472,-33 478,-27 484,-27"/>
<text text-anchor="start" x="473" y="-88.4" font-family="Arial" font-size="2.00"> </text>
<text text-anchor="start" x="473" y="-82.4" font-family="Arial" font-size="7.00"> &#160;9</text>
<text text-anchor="start" x="487" y="-65.8" font-family="Arial" font-weight="bold" font-size="14.00">Predict 27.49</text>
<text text-anchor="start" x="509" y="-48.8" font-family="Arial" font-weight="bold" font-size="14.00">n = 78</text>
<text text-anchor="start" x="527.5" y="-30.8" font-family="Arial" font-size="9.00"> </text>
<path fill="none" stroke="#333333" d="M484,-27C484,-27 574,-27 574,-27 580,-27 586,-33 586,-39 586,-39 586,-79 586,-79 586,-85 580,-91 574,-91 574,-91 484,-91 484,-91 478,-91 472,-85 472,-79 472,-79 472,-39 472,-39 472,-33 478,-27 484,-27"/>
<text text-anchor="start" x="527" y="-12.8" font-family="Arial" font-weight="bold" font-size="14.00"> </text>
</g>
<!-- 7&#45;&gt;9 -->
<g id="edge10" class="edge">
<title>7&#45;&gt;9</title>
<path fill="none" stroke="#888888" d="M466.14,-153.67C472.06,-144.85 478.21,-135.69 484.23,-126.71"/>
<polygon fill="#888888" stroke="#888888" points="487.29,-128.43 489.96,-118.18 481.48,-124.53 487.29,-128.43"/>
</g>
<!-- 13 -->
<g id="node14" class="node">
<title>13</title>
<text text-anchor="start" x="663.5" y="-99.8" font-family="Arial" font-weight="bold" font-size="14.00"> &lt; 7.5</text>
<path fill="#f8766d" fill-opacity="0.619608" stroke="transparent" d="M640,-27C640,-27 722,-27 722,-27 728,-27 734,-33 734,-39 734,-39 734,-79 734,-79 734,-85 728,-91 722,-91 722,-91 640,-91 640,-91 634,-91 628,-85 628,-79 628,-79 628,-39 628,-39 628,-33 634,-27 640,-27"/>
<text text-anchor="start" x="629" y="-88.4" font-family="Arial" font-size="2.00"> </text>
<text text-anchor="start" x="629" y="-82.4" font-family="Arial" font-size="7.00"> &#160;13</text>
<text text-anchor="start" x="643" y="-65.8" font-family="Arial" font-weight="bold" font-size="14.00">Predict 33.5</text>
<text text-anchor="start" x="661" y="-48.8" font-family="Arial" font-weight="bold" font-size="14.00">n = 18</text>
<text text-anchor="start" x="679.5" y="-30.8" font-family="Arial" font-size="9.00"> </text>
<path fill="none" stroke="#333333" d="M640,-27C640,-27 722,-27 722,-27 728,-27 734,-33 734,-39 734,-39 734,-79 734,-79 734,-85 728,-91 722,-91 722,-91 640,-91 640,-91 634,-91 628,-85 628,-79 628,-79 628,-39 628,-39 628,-33 634,-27 640,-27"/>
<text text-anchor="start" x="679" y="-12.8" font-family="Arial" font-weight="bold" font-size="14.00"> </text>
</g>
<!-- 12&#45;&gt;13 -->
<g id="edge13" class="edge">
<title>12&#45;&gt;13</title>
<path fill="none" stroke="#888888" d="M739.54,-153.67C734.03,-144.85 728.31,-135.69 722.7,-126.71"/>
<polygon fill="#888888" stroke="#888888" points="725.63,-124.8 717.36,-118.18 719.69,-128.51 725.63,-124.8"/>
</g>
<!-- 14 -->
<g id="node15" class="node">
<title>14</title>
<text text-anchor="start" x="816" y="-99.8" font-family="Arial" font-weight="bold" font-size="14.00"> ≥ 7.5</text>
<path fill="#f8766d" fill-opacity="0.713725" stroke="transparent" d="M788,-27C788,-27 878,-27 878,-27 884,-27 890,-33 890,-39 890,-39 890,-79 890,-79 890,-85 884,-91 878,-91 878,-91 788,-91 788,-91 782,-91 776,-85 776,-79 776,-79 776,-39 776,-39 776,-33 782,-27 788,-27"/>
<text text-anchor="start" x="777" y="-88.4" font-family="Arial" font-size="2.00"> </text>
<text text-anchor="start" x="777" y="-82.4" font-family="Arial" font-size="7.00"> &#160;14</text>
<text text-anchor="start" x="791" y="-65.8" font-family="Arial" font-weight="bold" font-size="14.00">Predict 29.38</text>
<text text-anchor="start" x="813" y="-48.8" font-family="Arial" font-weight="bold" font-size="14.00">n = 58</text>
<text text-anchor="start" x="831.5" y="-30.8" font-family="Arial" font-size="9.00"> </text>
<path fill="none" stroke="#333333" d="M788,-27C788,-27 878,-27 878,-27 884,-27 890,-33 890,-39 890,-39 890,-79 890,-79 890,-85 884,-91 878,-91 878,-91 788,-91 788,-91 782,-91 776,-85 776,-79 776,-79 776,-39 776,-39 776,-33 782,-27 788,-27"/>
<text text-anchor="start" x="831" y="-12.8" font-family="Arial" font-weight="bold" font-size="14.00"> </text>
</g>
<!-- 12&#45;&gt;14 -->
<g id="edge14" class="edge">
<title>12&#45;&gt;14</title>
<path fill="none" stroke="#888888" d="M797.87,-153.67C801.08,-145.12 804.4,-136.26 807.67,-127.55"/>
<polygon fill="#888888" stroke="#888888" points="810.95,-128.77 811.18,-118.18 804.4,-126.31 810.95,-128.77"/>
</g>
<!-- 17 -->
<g id="node18" class="node">
<title>17</title>
<text text-anchor="start" x="967.5" y="-253.8" font-family="Arial" font-weight="bold" font-size="14.00"> &lt; 20.5</text>
<text text-anchor="start" x="925" y="-209.3" font-family="Arial" font-size="14.00"> &#160;</text>
<path fill="#ebebeb" stroke="transparent" d="M947,-181C947,-181 1031,-181 1031,-181 1037,-181 1043,-187 1043,-193 1043,-193 1043,-233 1043,-233 1043,-239 1037,-245 1031,-245 1031,-245 947,-245 947,-245 941,-245 935,-239 935,-233 935,-233 935,-193 935,-193 935,-187 941,-181 947,-181"/>
<text text-anchor="start" x="936" y="-242.4" font-family="Arial" font-size="2.00"> </text>
<text text-anchor="start" x="936" y="-236.4" font-family="Arial" font-size="7.00"> &#160;17</text>
<text text-anchor="start" x="950" y="-219.8" font-family="Arial" font-weight="bold" font-size="14.00">Mean: 32.72</text>
<text text-anchor="start" x="965.5" y="-202.8" font-family="Arial" font-weight="bold" font-size="14.00">n = 127</text>
<text text-anchor="start" x="987.5" y="-184.8" font-family="Arial" font-size="9.00"> </text>
<path fill="none" stroke="#333333" d="M947,-181C947,-181 1031,-181 1031,-181 1037,-181 1043,-187 1043,-193 1043,-193 1043,-233 1043,-233 1043,-239 1037,-245 1031,-245 1031,-245 947,-245 947,-245 941,-245 935,-239 935,-233 935,-233 935,-193 935,-193 935,-187 941,-181 947,-181"/>
<text text-anchor="start" x="1045" y="-209.3" font-family="Arial" font-size="14.00"> &#160;</text>
<text text-anchor="start" x="939" y="-166.8" font-family="Arial" font-weight="bold" font-size="14.00">prev_1h_inflow</text>
</g>
<!-- 16&#45;&gt;17 -->
<g id="edge17" class="edge">
<title>16&#45;&gt;17</title>
<path fill="none" stroke="#888888" d="M1038.91,-307.67C1034.31,-299.03 1029.54,-290.07 1024.85,-281.27"/>
<polygon fill="#888888" stroke="#888888" points="1027.79,-279.36 1020,-272.18 1021.62,-282.65 1027.79,-279.36"/>
</g>
<!-- 20 -->
<g id="node19" class="node">
<title>20</title>
<text text-anchor="start" x="1129" y="-253.8" font-family="Arial" font-weight="bold" font-size="14.00"> ≥ 20.5</text>
<path fill="#f8766d" fill-opacity="0.721569" stroke="transparent" d="M1105,-181C1105,-181 1195,-181 1195,-181 1201,-181 1207,-187 1207,-193 1207,-193 1207,-233 1207,-233 1207,-239 1201,-245 1195,-245 1195,-245 1105,-245 1105,-245 1099,-245 1093,-239 1093,-233 1093,-233 1093,-193 1093,-193 1093,-187 1099,-181 1105,-181"/>
<text text-anchor="start" x="1094" y="-242.4" font-family="Arial" font-size="2.00"> </text>
<text text-anchor="start" x="1094" y="-236.4" font-family="Arial" font-size="7.00"> &#160;20</text>
<text text-anchor="start" x="1108" y="-219.8" font-family="Arial" font-weight="bold" font-size="14.00">Predict 29.16</text>
<text text-anchor="start" x="1130" y="-202.8" font-family="Arial" font-weight="bold" font-size="14.00">n = 18</text>
<text text-anchor="start" x="1148.5" y="-184.8" font-family="Arial" font-size="9.00"> </text>
<path fill="none" stroke="#333333" d="M1105,-181C1105,-181 1195,-181 1195,-181 1201,-181 1207,-187 1207,-193 1207,-193 1207,-233 1207,-233 1207,-239 1201,-245 1195,-245 1195,-245 1105,-245 1105,-245 1099,-245 1093,-239 1093,-233 1093,-233 1093,-193 1093,-193 1093,-187 1099,-181 1105,-181"/>
<text text-anchor="start" x="1148" y="-166.8" font-family="Arial" font-weight="bold" font-size="14.00"> </text>
</g>
<!-- 16&#45;&gt;20 -->
<g id="edge18" class="edge">
<title>16&#45;&gt;20</title>
<path fill="none" stroke="#888888" d="M1100.7,-307.67C1105.25,-299.03 1109.96,-290.07 1114.59,-281.27"/>
<polygon fill="#888888" stroke="#888888" points="1117.82,-282.66 1119.38,-272.18 1111.63,-279.4 1117.82,-282.66"/>
</g>
<!-- 22 -->
<g id="node22" class="node">
<title>22</title>
<text text-anchor="start" x="1282" y="-253.8" font-family="Arial" font-weight="bold" font-size="14.00"> &lt; 11.5</text>
<path fill="#ebebeb" stroke="transparent" d="M1261,-181C1261,-181 1345,-181 1345,-181 1351,-181 1357,-187 1357,-193 1357,-193 1357,-233 1357,-233 1357,-239 1351,-245 1345,-245 1345,-245 1261,-245 1261,-245 1255,-245 1249,-239 1249,-233 1249,-233 1249,-193 1249,-193 1249,-187 1255,-181 1261,-181"/>
<text text-anchor="start" x="1250" y="-242.4" font-family="Arial" font-size="2.00"> </text>
<text text-anchor="start" x="1250" y="-236.4" font-family="Arial" font-size="7.00"> &#160;22</text>
<text text-anchor="start" x="1264" y="-219.8" font-family="Arial" font-weight="bold" font-size="14.00">Mean: 35.85</text>
<text text-anchor="start" x="1283" y="-202.8" font-family="Arial" font-weight="bold" font-size="14.00">n = 77</text>
<text text-anchor="start" x="1301.5" y="-184.8" font-family="Arial" font-size="9.00"> </text>
<path fill="none" stroke="#333333" d="M1261,-181C1261,-181 1345,-181 1345,-181 1351,-181 1357,-187 1357,-193 1357,-193 1357,-233 1357,-233 1357,-239 1351,-245 1345,-245 1345,-245 1261,-245 1261,-245 1255,-245 1249,-239 1249,-233 1249,-233 1249,-193 1249,-193 1249,-187 1255,-181 1261,-181"/>
<text text-anchor="start" x="1274" y="-166.8" font-family="Arial" font-weight="bold" font-size="14.00">air_temp</text>
</g>
<!-- 21&#45;&gt;22 -->
<g id="edge21" class="edge">
<title>21&#45;&gt;22</title>
<path fill="none" stroke="#888888" d="M1303,-307.67C1303,-299.39 1303,-290.83 1303,-282.38"/>
<polygon fill="#888888" stroke="#888888" points="1306.5,-282.18 1303,-272.18 1299.5,-282.18 1306.5,-282.18"/>
</g>
<!-- 25 -->
<g id="node23" class="node">
<title>25</title>
<text text-anchor="start" x="1435.5" y="-253.8" font-family="Arial" font-weight="bold" font-size="14.00"> ≥ 11.5</text>
<path fill="#f8766d" fill-opacity="0.623529" stroke="transparent" d="M1411,-181C1411,-181 1501,-181 1501,-181 1507,-181 1513,-187 1513,-193 1513,-193 1513,-233 1513,-233 1513,-239 1507,-245 1501,-245 1501,-245 1411,-245 1411,-245 1405,-245 1399,-239 1399,-233 1399,-233 1399,-193 1399,-193 1399,-187 1405,-181 1411,-181"/>
<text text-anchor="start" x="1400" y="-242.4" font-family="Arial" font-size="2.00"> </text>
<text text-anchor="start" x="1400" y="-236.4" font-family="Arial" font-size="7.00"> &#160;25</text>
<text text-anchor="start" x="1414" y="-219.8" font-family="Arial" font-weight="bold" font-size="14.00">Predict 33.33</text>
<text text-anchor="start" x="1436" y="-202.8" font-family="Arial" font-weight="bold" font-size="14.00">n = 40</text>
<text text-anchor="start" x="1454.5" y="-184.8" font-family="Arial" font-size="9.00"> </text>
<path fill="none" stroke="#333333" d="M1411,-181C1411,-181 1501,-181 1501,-181 1507,-181 1513,-187 1513,-193 1513,-193 1513,-233 1513,-233 1513,-239 1507,-245 1501,-245 1501,-245 1411,-245 1411,-245 1405,-245 1399,-239 1399,-233 1399,-233 1399,-193 1399,-193 1399,-187 1405,-181 1411,-181"/>
<text text-anchor="start" x="1454" y="-166.8" font-family="Arial" font-weight="bold" font-size="14.00"> </text>
</g>
<!-- 21&#45;&gt;25 -->
<g id="edge22" class="edge">
<title>21&#45;&gt;25</title>
<path fill="none" stroke="#888888" d="M1361.72,-307.67C1371.05,-298.39 1380.76,-288.75 1390.24,-279.33"/>
<polygon fill="#888888" stroke="#888888" points="1392.81,-281.71 1397.44,-272.18 1387.88,-276.74 1392.81,-281.71"/>
</g>
<!-- 18 -->
<g id="node20" class="node">
<title>18</title>
<text text-anchor="start" x="964" y="-99.8" font-family="Arial" font-weight="bold" font-size="14.00"> &lt; 34.93</text>
<path fill="#f8766d" fill-opacity="0.647059" stroke="transparent" d="M944,-27C944,-27 1034,-27 1034,-27 1040,-27 1046,-33 1046,-39 1046,-39 1046,-79 1046,-79 1046,-85 1040,-91 1034,-91 1034,-91 944,-91 944,-91 938,-91 932,-85 932,-79 932,-79 932,-39 932,-39 932,-33 938,-27 944,-27"/>
<text text-anchor="start" x="933" y="-88.4" font-family="Arial" font-size="2.00"> </text>
<text text-anchor="start" x="933" y="-82.4" font-family="Arial" font-size="7.00"> &#160;18</text>
<text text-anchor="start" x="947" y="-65.8" font-family="Arial" font-weight="bold" font-size="14.00">Predict 32.24</text>
<text text-anchor="start" x="965.5" y="-48.8" font-family="Arial" font-weight="bold" font-size="14.00">n = 107</text>
<text text-anchor="start" x="987.5" y="-30.8" font-family="Arial" font-size="9.00"> </text>
<path fill="none" stroke="#333333" d="M944,-27C944,-27 1034,-27 1034,-27 1040,-27 1046,-33 1046,-39 1046,-39 1046,-79 1046,-79 1046,-85 1040,-91 1034,-91 1034,-91 944,-91 944,-91 938,-91 932,-85 932,-79 932,-79 932,-39 932,-39 932,-33 938,-27 944,-27"/>
<text text-anchor="start" x="987" y="-12.8" font-family="Arial" font-weight="bold" font-size="14.00"> </text>
</g>
<!-- 17&#45;&gt;18 -->
<g id="edge19" class="edge">
<title>17&#45;&gt;18</title>
<path fill="none" stroke="#888888" d="M989,-153.67C989,-145.39 989,-136.83 989,-128.38"/>
<polygon fill="#888888" stroke="#888888" points="992.5,-128.18 989,-118.18 985.5,-128.18 992.5,-128.18"/>
</g>
<!-- 19 -->
<g id="node21" class="node">
<title>19</title>
<text text-anchor="start" x="1120.5" y="-99.8" font-family="Arial" font-weight="bold" font-size="14.00"> ≥ 34.93</text>
<path fill="#f8766d" fill-opacity="0.576471" stroke="transparent" d="M1100,-27C1100,-27 1190,-27 1190,-27 1196,-27 1202,-33 1202,-39 1202,-39 1202,-79 1202,-79 1202,-85 1196,-91 1190,-91 1190,-91 1100,-91 1100,-91 1094,-91 1088,-85 1088,-79 1088,-79 1088,-39 1088,-39 1088,-33 1094,-27 1100,-27"/>
<text text-anchor="start" x="1089" y="-88.4" font-family="Arial" font-size="2.00"> </text>
<text text-anchor="start" x="1089" y="-82.4" font-family="Arial" font-size="7.00"> &#160;19</text>
<text text-anchor="start" x="1103" y="-65.8" font-family="Arial" font-weight="bold" font-size="14.00">Predict 35.29</text>
<text text-anchor="start" x="1125" y="-48.8" font-family="Arial" font-weight="bold" font-size="14.00">n = 20</text>
<text text-anchor="start" x="1143.5" y="-30.8" font-family="Arial" font-size="9.00"> </text>
<path fill="none" stroke="#333333" d="M1100,-27C1100,-27 1190,-27 1190,-27 1196,-27 1202,-33 1202,-39 1202,-39 1202,-79 1202,-79 1202,-85 1196,-91 1190,-91 1190,-91 1100,-91 1100,-91 1094,-91 1088,-85 1088,-79 1088,-79 1088,-39 1088,-39 1088,-33 1094,-27 1100,-27"/>
<text text-anchor="start" x="1143" y="-12.8" font-family="Arial" font-weight="bold" font-size="14.00"> </text>
</g>
<!-- 17&#45;&gt;19 -->
<g id="edge20" class="edge">
<title>17&#45;&gt;19</title>
<path fill="none" stroke="#888888" d="M1048.87,-153.67C1058.38,-144.39 1068.28,-134.75 1077.95,-125.33"/>
<polygon fill="#888888" stroke="#888888" points="1080.57,-127.66 1085.29,-118.18 1075.69,-122.65 1080.57,-127.66"/>
</g>
<!-- 23 -->
<g id="node24" class="node">
<title>23</title>
<text text-anchor="start" x="1286.5" y="-99.8" font-family="Arial" font-weight="bold" font-size="14.00"> &lt; 21</text>
<path fill="#f8766d" fill-opacity="0.376471" stroke="transparent" d="M1257,-27C1257,-27 1347,-27 1347,-27 1353,-27 1359,-33 1359,-39 1359,-39 1359,-79 1359,-79 1359,-85 1353,-91 1347,-91 1347,-91 1257,-91 1257,-91 1251,-91 1245,-85 1245,-79 1245,-79 1245,-39 1245,-39 1245,-33 1251,-27 1257,-27"/>
<text text-anchor="start" x="1246" y="-88.4" font-family="Arial" font-size="2.00"> </text>
<text text-anchor="start" x="1246" y="-82.4" font-family="Arial" font-size="7.00"> &#160;23</text>
<text text-anchor="start" x="1260" y="-65.8" font-family="Arial" font-weight="bold" font-size="14.00">Predict 43.97</text>
<text text-anchor="start" x="1286" y="-48.8" font-family="Arial" font-weight="bold" font-size="14.00">n = 1</text>
<text text-anchor="start" x="1300.5" y="-30.8" font-family="Arial" font-size="9.00"> </text>
<path fill="none" stroke="#333333" d="M1257,-27C1257,-27 1347,-27 1347,-27 1353,-27 1359,-33 1359,-39 1359,-39 1359,-79 1359,-79 1359,-85 1353,-91 1347,-91 1347,-91 1257,-91 1257,-91 1251,-91 1245,-85 1245,-79 1245,-79 1245,-39 1245,-39 1245,-33 1251,-27 1257,-27"/>
<text text-anchor="start" x="1300" y="-12.8" font-family="Arial" font-weight="bold" font-size="14.00"> </text>
</g>
<!-- 22&#45;&gt;23 -->
<g id="edge23" class="edge">
<title>22&#45;&gt;23</title>
<path fill="none" stroke="#888888" d="M1302.62,-153.67C1302.56,-145.39 1302.51,-136.83 1302.45,-128.38"/>
<polygon fill="#888888" stroke="#888888" points="1305.95,-128.15 1302.38,-118.18 1298.95,-128.2 1305.95,-128.15"/>
</g>
<!-- 24 -->
<g id="node25" class="node">
<title>24</title>
<text text-anchor="start" x="1442.5" y="-99.8" font-family="Arial" font-weight="bold" font-size="14.00"> ≥ 21</text>
<path fill="#f8766d" fill-opacity="0.564706" stroke="transparent" d="M1413,-27C1413,-27 1503,-27 1503,-27 1509,-27 1515,-33 1515,-39 1515,-39 1515,-79 1515,-79 1515,-85 1509,-91 1503,-91 1503,-91 1413,-91 1413,-91 1407,-91 1401,-85 1401,-79 1401,-79 1401,-39 1401,-39 1401,-33 1407,-27 1413,-27"/>
<text text-anchor="start" x="1402" y="-88.4" font-family="Arial" font-size="2.00"> </text>
<text text-anchor="start" x="1402" y="-82.4" font-family="Arial" font-size="7.00"> &#160;24</text>
<text text-anchor="start" x="1416" y="-65.8" font-family="Arial" font-weight="bold" font-size="14.00">Predict 35.74</text>
<text text-anchor="start" x="1438" y="-48.8" font-family="Arial" font-weight="bold" font-size="14.00">n = 76</text>
<text text-anchor="start" x="1456.5" y="-30.8" font-family="Arial" font-size="9.00"> </text>
<path fill="none" stroke="#333333" d="M1413,-27C1413,-27 1503,-27 1503,-27 1509,-27 1515,-33 1515,-39 1515,-39 1515,-79 1515,-79 1515,-85 1509,-91 1503,-91 1503,-91 1413,-91 1413,-91 1407,-91 1401,-85 1401,-79 1401,-79 1401,-39 1401,-39 1401,-33 1407,-27 1413,-27"/>
<text text-anchor="start" x="1456" y="-12.8" font-family="Arial" font-weight="bold" font-size="14.00"> </text>
</g>
<!-- 22&#45;&gt;24 -->
<g id="edge24" class="edge">
<title>22&#45;&gt;24</title>
<path fill="none" stroke="#888888" d="M1362.48,-153.67C1371.94,-144.39 1381.78,-134.75 1391.38,-125.33"/>
<polygon fill="#888888" stroke="#888888" points="1393.99,-127.68 1398.68,-118.18 1389.08,-122.68 1393.99,-127.68"/>
</g>
</g>
</svg>
