<?xml version="1.0" encoding="UTF-8" standalone="no"?>
<!DOCTYPE svg PUBLIC "-//W3C//DTD SVG 1.1//EN"
 "http://www.w3.org/Graphics/SVG/1.1/DTD/svg11.dtd">
<!-- Generated by graphviz version 2.50.0 (20211204.2007)
 -->
<!-- Pages: 1 -->
<svg width="1542pt" height="742pt"
 viewBox="0.00 0.00 1542.00 742.00" xmlns="http://www.w3.org/2000/svg" xmlns:xlink="http://www.w3.org/1999/xlink">
<g id="graph0" class="graph" transform="scale(1 1) rotate(0) translate(4 738)">
<polygon fill="white" stroke="transparent" points="-4,4 -4,-738 1538,-738 1538,4 -4,4"/>
<!-- 1 -->
<g id="node1" class="node">
<title>1</title>
<text text-anchor="start" x="599" y="-715.8" font-family="Arial" font-weight="bold" font-size="14.00"> </text>
<text text-anchor="start" x="529" y="-671.3" font-family="Arial" font-size="14.00"> &#160;&#160;&#160;</text>
<path fill="#ebebeb" stroke="transparent" d="M559,-643C559,-643 643,-643 643,-643 649,-643 655,-649 655,-655 655,-655 655,-695 655,-695 655,-701 649,-707 643,-707 643,-707 559,-707 559,-707 553,-707 547,-701 547,-695 547,-695 547,-655 547,-655 547,-649 553,-643 559,-643"/>
<text text-anchor="start" x="548" y="-704.4" font-family="Arial" font-size="2.00"> </text>
<text text-anchor="start" x="548" y="-698.4" font-family="Arial" font-size="7.00"> &#160;1</text>
<text text-anchor="start" x="562" y="-681.8" font-family="Arial" font-weight="bold" font-size="14.00">Mean: 31.33</text>
<text text-anchor="start" x="577.5" y="-664.8" font-family="Arial" font-weight="bold" font-size="14.00">n = 672</text>
<text text-anchor="start" x="599.5" y="-646.8" font-family="Arial" font-size="9.00"> </text>
<path fill="none" stroke="#333333" d="M559,-643C559,-643 643,-643 643,-643 649,-643 655,-649 655,-655 655,-655 655,-695 655,-695 655,-701 649,-707 643,-707 643,-707 559,-707 559,-707 553,-707 547,-701 547,-695 547,-695 547,-655 547,-655 547,-649 553,-643 559,-643"/>
<text text-anchor="start" x="657" y="-671.3" font-family="Arial" font-size="14.00"> &#160;&#160;&#160;</text>
<text text-anchor="start" x="543.5" y="-628.8" font-family="Arial" font-weight="bold" font-size="14.00">prev_168h_inflow</text>
</g>
<!-- 2 -->
<g id="node2" class="node">
<title>2</title>
<text text-anchor="start" x="487" y="-561.8" font-family="Arial" font-weight="bold" font-size="14.00"> &lt; 29.68</text>
<text text-anchor="start" x="448" y="-517.3" font-family="Arial" font-size="14.00"> &#160;</text>
<path fill="#ebebeb" stroke="transparent" d="M470,-489C470,-489 554,-489 554,-489 560,-489 566,-495 566,-501 566,-501 566,-541 566,-541 566,-547 560,-553 554,-553 554,-553 470,-553 470,-553 464,-553 458,-547 458,-541 458,-541 458,-501 458,-501 458,-495 464,-489 470,-489"/>
<text text-anchor="start" x="459" y="-550.4" font-family="Arial" font-size="2.00"> </text>
<text text-anchor="start" x="459" y="-544.4" font-family="Arial" font-size="7.00"> &#160;2</text>
<text text-anchor="start" x="473" y="-527.8" font-family="Arial" font-weight="bold" font-size="14.00">Mean: 23.23</text>
<text text-anchor="start" x="488.5" y="-510.8" font-family="Arial" font-weight="bold" font-size="14.00">n = 241</text>
<text text-anchor="start" x="510.5" y="-492.8" font-family="Arial" font-size="9.00"> </text>
<path fill="none" stroke="#333333" d="M470,-489C470,-489 554,-489 554,-489 560,-489 566,-495 566,-501 566,-501 566,-541 566,-541 566,-547 560,-553 554,-553 554,-553 470,-553 470,-553 464,-553 458,-547 458,-541 458,-541 458,-501 458,-501 458,-495 464,-489 470,-489"/>
<text text-anchor="start" x="568" y="-517.3" font-family="Arial" font-size="14.00"> &#160;</text>
<text text-anchor="start" x="462" y="-474.8" font-family="Arial" font-weight="bold" font-size="14.00">prev_1h_inflow</text>
</g>
<!-- 1&#45;&gt;2 -->
<g id="edge1" class="edge">
<title>1&#45;&gt;2</title>
<path fill="none" stroke="#888888" d="M566.84,-615.67C561.73,-606.94 556.43,-597.88 551.23,-588.99"/>
<polygon fill="#888888" stroke="#888888" points="554.14,-587.04 546.06,-580.18 548.1,-590.57 554.14,-587.04"/>
</g>
<!-- 11 -->
<g id="node3" class="node">
<title>11</title>
<text text-anchor="start" x="729.5" y="-561.8" font-family="Arial" font-weight="bold" font-size="14.00"> ≥ 29.68</text>
<text text-anchor="start" x="686" y="-517.3" font-family="Arial" font-size="14.00"> &#160;&#160;</text>
<path fill="#ebebeb" stroke="transparent" d="M712,-489C712,-489 796,-489 796,-489 802,-489 808,-495 808,-501 808,-501 808,-541 808,-541 808,-547 802,-553 796,-553 796,-553 712,-553 712,-553 706,-553 700,-547 700,-541 700,-541 700,-501 700,-501 700,-495 706,-489 712,-489"/>
<text text-anchor="start" x="701" y="-550.4" font-family="Arial" font-size="2.00"> </text>
<text text-anchor="start" x="701" y="-544.4" font-family="Arial" font-size="7.00"> &#160;11</text>
<text text-anchor="start" x="715" y="-527.8" font-family="Arial" font-weight="bold" font-size="14.00">Mean: 35.86</text>
<text text-anchor="start" x="730.5" y="-510.8" font-family="Arial" font-weight="bold" font-size="14.00">n = 431</text>
<text text-anchor="start" x="752.5" y="-492.8" font-family="Arial" font-size="9.00"> </text>
<path fill="none" stroke="#333333" d="M712,-489C712,-489 796,-489 796,-489 802,-489 808,-495 808,-501 808,-501 808,-541 808,-541 808,-547 802,-553 796,-553 796,-553 712,-553 712,-553 706,-553 700,-547 700,-541 700,-541 700,-501 700,-501 700,-495 706,-489 712,-489"/>
<text text-anchor="start" x="810" y="-517.3" font-family="Arial" font-size="14.00"> &#160;&#160;</text>
<text text-anchor="start" x="700.5" y="-474.8" font-family="Arial" font-weight="bold" font-size="14.00">prev_24h_inflow</text>
</g>
<!-- 1&#45;&gt;11 -->
<g id="edge2" class="edge">
<title>1&#45;&gt;11</title>
<path fill="none" stroke="#888888" d="M659.72,-615.67C669.05,-606.39 678.76,-596.75 688.24,-587.33"/>
<polygon fill="#888888" stroke="#888888" points="690.81,-589.71 695.44,-580.18 685.88,-584.74 690.81,-589.71"/>
</g>
<!-- 3 -->
<g id="node4" class="node">
<title>3</title>
<text text-anchor="start" x="322" y="-407.8" font-family="Arial" font-weight="bold" font-size="14.00"> &lt; 15.79</text>
<path fill="#f8766d" fill-opacity="0.874510" stroke="transparent" d="M302,-335C302,-335 392,-335 392,-335 398,-335 404,-341 404,-347 404,-347 404,-387 404,-387 404,-393 398,-399 392,-399 392,-399 302,-399 302,-399 296,-399 290,-393 290,-387 290,-387 290,-347 290,-347 290,-341 296,-335 302,-335"/>
<text text-anchor="start" x="291" y="-396.4" font-family="Arial" font-size="2.00"> </text>
<text text-anchor="start" x="291" y="-390.4" font-family="Arial" font-size="7.00"> &#160;3</text>
<text text-anchor="start" x="305" y="-373.8" font-family="Arial" font-weight="bold" font-size="14.00">Predict 15.94</text>
<text text-anchor="start" x="327" y="-356.8" font-family="Arial" font-weight="bold" font-size="14.00">n = 10</text>
<text text-anchor="start" x="345.5" y="-338.8" font-family="Arial" font-size="9.00"> </text>
<path fill="none" stroke="#333333" d="M302,-335C302,-335 392,-335 392,-335 398,-335 404,-341 404,-347 404,-347 404,-387 404,-387 404,-393 398,-399 392,-399 392,-399 302,-399 302,-399 296,-399 290,-393 290,-387 290,-387 290,-347 290,-347 290,-341 296,-335 302,-335"/>
<text text-anchor="start" x="345" y="-320.8" font-family="Arial" font-weight="bold" font-size="14.00"> </text>
</g>
<!-- 2&#45;&gt;3 -->
<g id="edge3" class="edge">
<title>2&#45;&gt;3</title>
<path fill="none" stroke="#888888" d="M448.68,-461.67C438.51,-452.3 427.94,-442.56 417.61,-433.05"/>
<polygon fill="#888888" stroke="#888888" points="419.88,-430.38 410.15,-426.18 415.14,-435.53 419.88,-430.38"/>
</g>
<!-- 4 -->
<g id="node5" class="node">
<title>4</title>
<text text-anchor="start" x="487.5" y="-407.8" font-family="Arial" font-weight="bold" font-size="14.00"> ≥ 15.79</text>
<text text-anchor="start" x="444" y="-363.3" font-family="Arial" font-size="14.00"> &#160;&#160;</text>
<path fill="#ebebeb" stroke="transparent" d="M470,-335C470,-335 554,-335 554,-335 560,-335 566,-341 566,-347 566,-347 566,-387 566,-387 566,-393 560,-399 554,-399 554,-399 470,-399 470,-399 464,-399 458,-393 458,-387 458,-387 458,-347 458,-347 458,-341 464,-335 470,-335"/>
<text text-anchor="start" x="459" y="-396.4" font-family="Arial" font-size="2.00"> </text>
<text text-anchor="start" x="459" y="-390.4" font-family="Arial" font-size="7.00"> &#160;4</text>
<text text-anchor="start" x="473" y="-373.8" font-family="Arial" font-weight="bold" font-size="14.00">Mean: 23.55</text>
<text text-anchor="start" x="488.5" y="-356.8" font-family="Arial" font-weight="bold" font-size="14.00">n = 231</text>
<text text-anchor="start" x="510.5" y="-338.8" font-family="Arial" font-size="9.00"> </text>
<path fill="none" stroke="#333333" d="M470,-335C470,-335 554,-335 554,-335 560,-335 566,-341 566,-347 566,-347 566,-387 566,-387 566,-393 560,-399 554,-399 554,-399 470,-399 470,-399 464,-399 458,-393 458,-387 458,-387 458,-347 458,-347 458,-341 464,-335 470,-335"/>
<text text-anchor="start" x="568" y="-363.3" font-family="Arial" font-size="14.00"> &#160;&#160;</text>
<text text-anchor="start" x="458.5" y="-320.8" font-family="Arial" font-weight="bold" font-size="14.00">prev_24h_inflow</text>
</g>
<!-- 2&#45;&gt;4 -->
<g id="edge4" class="edge">
<title>2&#45;&gt;4</title>
<path fill="none" stroke="#888888" d="M512,-461.67C512,-453.39 512,-444.83 512,-436.38"/>
<polygon fill="#888888" stroke="#888888" points="515.5,-436.18 512,-426.18 508.5,-436.18 515.5,-436.18"/>
</g>
<!-- 12 -->
<g id="node12" class="node">
<title>12</title>
<text text-anchor="start" x="732.5" y="-407.8" font-family="Arial" font-weight="bold" font-size="14.00"> &lt; 35.3</text>
<text text-anchor="start" x="682" y="-363.3" font-family="Arial" font-size="14.00"> &#160;&#160;&#160;</text>
<path fill="#ebebeb" stroke="transparent" d="M712,-335C712,-335 796,-335 796,-335 802,-335 808,-341 808,-347 808,-347 808,-387 808,-387 808,-393 802,-399 796,-399 796,-399 712,-399 712,-399 706,-399 700,-393 700,-387 700,-387 700,-347 700,-347 700,-341 706,-335 712,-335"/>
<text text-anchor="start" x="701" y="-396.4" font-family="Arial" font-size="2.00"> </text>
<text text-anchor="start" x="701" y="-390.4" font-family="Arial" font-size="7.00"> &#160;12</text>
<text text-anchor="start" x="715" y="-373.8" font-family="Arial" font-weight="bold" font-size="14.00">Mean: 33.32</text>
<text text-anchor="start" x="730.5" y="-356.8" font-family="Arial" font-weight="bold" font-size="14.00">n = 196</text>
<text text-anchor="start" x="752.5" y="-338.8" font-family="Arial" font-size="9.00"> </text>
<path fill="none" stroke="#333333" d="M712,-335C712,-335 796,-335 796,-335 802,-335 808,-341 808,-347 808,-347 808,-387 808,-387 808,-393 802,-399 796,-399 796,-399 712,-399 712,-399 706,-399 700,-393 700,-387 700,-387 700,-347 700,-347 700,-341 706,-335 712,-335"/>
<text text-anchor="start" x="810" y="-363.3" font-family="Arial" font-size="14.00"> &#160;&#160;&#160;</text>
<text text-anchor="start" x="696.5" y="-320.8" font-family="Arial" font-weight="bold" font-size="14.00">prev_168h_inflow</text>
</g>
<!-- 11&#45;&gt;12 -->
<g id="edge11" class="edge">
<title>11&#45;&gt;12</title>
<path fill="none" stroke="#888888" d="M754,-461.67C754,-453.39 754,-444.83 754,-436.38"/>
<polygon fill="#888888" stroke="#888888" points="757.5,-436.18 754,-426.18 750.5,-436.18 757.5,-436.18"/>
</g>
<!-- 17 -->
<g id="node13" class="node">
<title>17</title>
<text text-anchor="start" x="1081" y="-407.8" font-family="Arial" font-weight="bold" font-size="14.00"> ≥ 35.3</text>
<text text-anchor="start" x="1038" y="-363.3" font-family="Arial" font-size="14.00"> &#160;</text>
<path fill="#ebebeb" stroke="transparent" d="M1060,-335C1060,-335 1144,-335 1144,-335 1150,-335 1156,-341 1156,-347 1156,-347 1156,-387 1156,-387 1156,-393 1150,-399 1144,-399 1144,-399 1060,-399 1060,-399 1054,-399 1048,-393 1048,-387 1048,-387 1048,-347 1048,-347 1048,-341 1054,-335 1060,-335"/>
<text text-anchor="start" x="1049" y="-396.4" font-family="Arial" font-size="2.00"> </text>
<text text-anchor="start" x="1049" y="-390.4" font-family="Arial" font-size="7.00"> &#160;17</text>
<text text-anchor="start" x="1063" y="-373.8" font-family="Arial" font-weight="bold" font-size="14.00">Mean: 37.98</text>
<text text-anchor="start" x="1078.5" y="-356.8" font-family="Arial" font-weight="bold" font-size="14.00">n = 235</text>
<text text-anchor="start" x="1100.5" y="-338.8" font-family="Arial" font-size="9.00"> </text>
<path fill="none" stroke="#333333" d="M1060,-335C1060,-335 1144,-335 1144,-335 1150,-335 1156,-341 1156,-347 1156,-347 1156,-387 1156,-387 1156,-393 1150,-399 1144,-399 1144,-399 1060,-399 1060,-399 1054,-399 1048,-393 1048,-387 1048,-387 1048,-347 1048,-347 1048,-341 1054,-335 1060,-335"/>
<text text-anchor="start" x="1158" y="-363.3" font-family="Arial" font-size="14.00"> &#160;</text>
<text text-anchor="start" x="1052" y="-320.8" font-family="Arial" font-weight="bold" font-size="14.00">prev_1h_inflow</text>
</g>
<!-- 11&#45;&gt;17 -->
<g id="edge12" class="edge">
<title>11&#45;&gt;17</title>
<path fill="none" stroke="#888888" d="M832.1,-485.89C887.53,-461.68 961.84,-429.22 1018.45,-404.49"/>
<polygon fill="#888888" stroke="#888888" points="1019.98,-407.65 1027.74,-400.44 1017.17,-401.23 1019.98,-407.65"/>
</g>
<!-- 5 -->
<g id="node6" class="node">
<title>5</title>
<text text-anchor="start" x="200" y="-253.8" font-family="Arial" font-weight="bold" font-size="14.00"> &lt; 29.86</text>
<path fill="#ebebeb" stroke="transparent" d="M183,-181C183,-181 267,-181 267,-181 273,-181 279,-187 279,-193 279,-193 279,-233 279,-233 279,-239 273,-245 267,-245 267,-245 183,-245 183,-245 177,-245 171,-239 171,-233 171,-233 171,-193 171,-193 171,-187 177,-181 183,-181"/>
<text text-anchor="start" x="172" y="-242.4" font-family="Arial" font-size="2.00"> </text>
<text text-anchor="start" x="172" y="-236.4" font-family="Arial" font-size="7.00"> &#160;5</text>
<text text-anchor="start" x="186" y="-219.8" font-family="Arial" font-weight="bold" font-size="14.00">Mean: 22.39</text>
<text text-anchor="start" x="201.5" y="-202.8" font-family="Arial" font-weight="bold" font-size="14.00">n = 198</text>
<text text-anchor="start" x="223.5" y="-184.8" font-family="Arial" font-size="9.00"> </text>
<path fill="none" stroke="#333333" d="M183,-181C183,-181 267,-181 267,-181 273,-181 279,-187 279,-193 279,-193 279,-233 279,-233 279,-239 273,-245 267,-245 267,-245 183,-245 183,-245 177,-245 171,-239 171,-233 171,-233 171,-193 171,-193 171,-187 177,-181 183,-181"/>
<text text-anchor="start" x="210.5" y="-166.8" font-family="Arial" font-weight="bold" font-size="14.00">time</text>
</g>
<!-- 4&#45;&gt;5 -->
<g id="edge5" class="edge">
<title>4&#45;&gt;5</title>
<path fill="none" stroke="#888888" d="M433.96,-324.67C392.36,-302.63 341.42,-275.66 300.25,-253.85"/>
<polygon fill="#888888" stroke="#888888" points="301.83,-250.73 291.35,-249.14 298.55,-256.91 301.83,-250.73"/>
</g>
<!-- 8 -->
<g id="node7" class="node">
<title>8</title>
<text text-anchor="start" x="487.5" y="-253.8" font-family="Arial" font-weight="bold" font-size="14.00"> ≥ 29.86</text>
<text text-anchor="start" x="444" y="-209.3" font-family="Arial" font-size="14.00"> &#160;&#160;&#160;</text>
<path fill="#ebebeb" stroke="transparent" d="M474,-181C474,-181 550,-181 550,-181 556,-181 562,-187 562,-193 562,-193 562,-233 562,-233 562,-239 556,-245 550,-245 550,-245 474,-245 474,-245 468,-245 462,-239 462,-233 462,-233 462,-193 462,-193 462,-187 468,-181 474,-181"/>
<text text-anchor="start" x="463" y="-242.4" font-family="Arial" font-size="2.00"> </text>
<text text-anchor="start" x="463" y="-236.4" font-family="Arial" font-size="7.00"> &#160;8</text>
<text text-anchor="start" x="477" y="-219.8" font-family="Arial" font-weight="bold" font-size="14.00">Mean: 30.5</text>
<text text-anchor="start" x="492" y="-202.8" font-family="Arial" font-weight="bold" font-size="14.00">n = 33</text>
<text text-anchor="start" x="510.5" y="-184.8" font-family="Arial" font-size="9.00"> </text>
<path fill="none" stroke="#333333" d="M474,-181C474,-181 550,-181 550,-181 556,-181 562,-187 562,-193 562,-193 562,-233 562,-233 562,-239 556,-245 550,-245 550,-245 474,-245 474,-245 468,-245 462,-239 462,-233 462,-233 462,-193 462,-193 462,-187 468,-181 474,-181"/>
<text text-anchor="start" x="564" y="-209.3" font-family="Arial" font-size="14.00"> &#160;&#160;&#160;</text>
<text text-anchor="start" x="454.5" y="-166.8" font-family="Arial" font-weight="bold" font-size="14.00">prev_168h_inflow</text>
</g>
<!-- 4&#45;&gt;8 -->
<g id="edge6" class="edge">
<title>4&#45;&gt;8</title>
<path fill="none" stroke="#888888" d="M512,-307.67C512,-299.39 512,-290.83 512,-282.38"/>
<polygon fill="#888888" stroke="#888888" points="515.5,-282.18 512,-272.18 508.5,-282.18 515.5,-282.18"/>
</g>
<!-- 6 -->
<g id="node8" class="node">
<title>6</title>
<text text-anchor="start" x="51.5" y="-99.8" font-family="Arial" font-weight="bold" font-size="14.00"> &lt; 4.5</text>
<path fill="#f8766d" fill-opacity="0.776471" stroke="transparent" d="M24,-27C24,-27 114,-27 114,-27 120,-27 126,-33 126,-39 126,-39 126,-79 126,-79 126,-85 120,-91 114,-91 114,-91 24,-91 24,-91 18,-91 12,-85 12,-79 12,-79 12,-39 12,-39 12,-33 18,-27 24,-27"/>
<text text-anchor="start" x="13" y="-88.4" font-family="Arial" font-size="2.00"> </text>
<text text-anchor="start" x="13" y="-82.4" font-family="Arial" font-size="7.00"> &#160;6</text>
<text text-anchor="start" x="27" y="-65.8" font-family="Arial" font-weight="bold" font-size="14.00">Predict 21.03</text>
<text text-anchor="start" x="45.5" y="-48.8" font-family="Arial" font-weight="bold" font-size="14.00">n = 132</text>
<text text-anchor="start" x="67.5" y="-30.8" font-family="Arial" font-size="9.00"> </text>
<path fill="none" stroke="#333333" d="M24,-27C24,-27 114,-27 114,-27 120,-27 126,-33 126,-39 126,-39 126,-79 126,-79 126,-85 120,-91 114,-91 114,-91 24,-91 24,-91 18,-91 12,-85 12,-79 12,-79 12,-39 12,-39 12,-33 18,-27 24,-27"/>
<text text-anchor="start" x="67" y="-12.8" font-family="Arial" font-weight="bold" font-size="14.00"> </text>
</g>
<!-- 5&#45;&gt;6 -->
<g id="edge7" class="edge">
<title>5&#45;&gt;6</title>
<path fill="none" stroke="#888888" d="M165.13,-153.67C155.62,-144.39 145.72,-134.75 136.05,-125.33"/>
<polygon fill="#888888" stroke="#888888" points="138.31,-122.65 128.71,-118.18 133.43,-127.66 138.31,-122.65"/>
</g>
<!-- 7 -->
<g id="node9" class="node">
<title>7</title>
<text text-anchor="start" x="208.5" y="-99.8" font-family="Arial" font-weight="bold" font-size="14.00"> ≥ 4.5</text>
<path fill="#f8766d" fill-opacity="0.698039" stroke="transparent" d="M181,-27C181,-27 270,-27 270,-27 276,-27 282,-33 282,-39 282,-39 282,-79 282,-79 282,-85 276,-91 270,-91 270,-91 181,-91 181,-91 175,-91 169,-85 169,-79 169,-79 169,-39 169,-39 169,-33 175,-27 181,-27"/>
<text text-anchor="start" x="170" y="-88.4" font-family="Arial" font-size="2.00"> </text>
<text text-anchor="start" x="170" y="-82.4" font-family="Arial" font-size="7.00"> &#160;7</text>
<text text-anchor="start" x="184" y="-65.8" font-family="Arial" font-weight="bold" font-size="14.00">Predict 25.11</text>
<text text-anchor="start" x="205.5" y="-48.8" font-family="Arial" font-weight="bold" font-size="14.00">n = 66</text>
<text text-anchor="start" x="224" y="-30.8" font-family="Arial" font-size="9.00"> </text>
<path fill="none" stroke="#333333" d="M181,-27C181,-27 270,-27 270,-27 276,-27 282,-33 282,-39 282,-39 282,-79 282,-79 282,-85 276,-91 270,-91 270,-91 181,-91 181,-91 175,-91 169,-85 169,-79 169,-79 169,-39 169,-39 169,-33 175,-27 181,-27"/>
<text text-anchor="start" x="223.5" y="-12.8" font-family="Arial" font-weight="bold" font-size="14.00"> </text>
</g>
<!-- 5&#45;&gt;7 -->
<g id="edge8" class="edge">
<title>5&#45;&gt;7</title>
<path fill="none" stroke="#888888" d="M225,-153.67C225,-145.39 225,-136.83 225,-128.38"/>
<polygon fill="#888888" stroke="#888888" points="228.5,-128.18 225,-118.18 221.5,-128.18 228.5,-128.18"/>
</g>
<!-- 9 -->
<g id="node10" class="node">
<title>9</title>
<text text-anchor="start" x="356" y="-99.8" font-family="Arial" font-weight="bold" font-size="14.00"> &lt; 27.12</text>
<path fill="#f8766d" fill-opacity="0.662745" stroke="transparent" d="M336,-27C336,-27 426,-27 426,-27 432,-27 438,-33 438,-39 438,-39 438,-79 438,-79 438,-85 432,-91 426,-91 426,-91 336,-91 336,-91 330,-91 324,-85 324,-79 324,-79 324,-39 324,-39 324,-33 330,-27 336,-27"/>
<text text-anchor="start" x="325" y="-88.4" font-family="Arial" font-size="2.00"> </text>
<text text-anchor="start" x="325" y="-82.4" font-family="Arial" font-size="7.00"> &#160;9</text>
<text text-anchor="start" x="339" y="-65.8" font-family="Arial" font-weight="bold" font-size="14.00">Predict 26.88</text>
<text text-anchor="start" x="365" y="-48.8" font-family="Arial" font-weight="bold" font-size="14.00">n = 9</text>
<text text-anchor="start" x="379.5" y="-30.8" font-family="Arial" font-size="9.00"> </text>
<path fill="none" stroke="#333333" d="M336,-27C336,-27 426,-27 426,-27 432,-27 438,-33 438,-39 438,-39 438,-79 438,-79 438,-85 432,-91 426,-91 426,-91 336,-91 336,-91 330,-91 324,-85 324,-79 324,-79 324,-39 324,-39 324,-33 330,-27 336,-27"/>
<text text-anchor="start" x="379" y="-12.8" font-family="Arial" font-weight="bold" font-size="14.00"> </text>
</g>
<!-- 8&#45;&gt;9 -->
<g id="edge9" class="edge">
<title>8&#45;&gt;9</title>
<path fill="none" stroke="#888888" d="M461.73,-153.67C453.89,-144.58 445.75,-135.13 437.78,-125.88"/>
<polygon fill="#888888" stroke="#888888" points="440.32,-123.47 431.14,-118.18 435.02,-128.04 440.32,-123.47"/>
</g>
<!-- 10 -->
<g id="node11" class="node">
<title>10</title>
<text text-anchor="start" x="512.5" y="-99.8" font-family="Arial" font-weight="bold" font-size="14.00"> ≥ 27.12</text>
<path fill="#f8766d" fill-opacity="0.564706" stroke="transparent" d="M492,-27C492,-27 582,-27 582,-27 588,-27 594,-33 594,-39 594,-39 594,-79 594,-79 594,-85 588,-91 582,-91 582,-91 492,-91 492,-91 486,-91 480,-85 480,-79 480,-79 480,-39 480,-39 480,-33 486,-27 492,-27"/>
<text text-anchor="start" x="481" y="-88.4" font-family="Arial" font-size="2.00"> </text>
<text text-anchor="start" x="481" y="-82.4" font-family="Arial" font-size="7.00"> &#160;10</text>
<text text-anchor="start" x="495" y="-65.8" font-family="Arial" font-weight="bold" font-size="14.00">Predict 31.86</text>
<text text-anchor="start" x="517" y="-48.8" font-family="Arial" font-weight="bold" font-size="14.00">n = 24</text>
<text text-anchor="start" x="535.5" y="-30.8" font-family="Arial" font-size="9.00"> </text>
<path fill="none" stroke="#333333" d="M492,-27C492,-27 582,-27 582,-27 588,-27 594,-33 594,-39 594,-39 594,-79 594,-79 594,-85 588,-91 582,-91 582,-91 492,-91 492,-91 486,-91 480,-85 480,-79 480,-79 480,-39 480,-39 480,-33 486,-27 492,-27"/>
<text text-anchor="start" x="535" y="-12.8" font-family="Arial" font-weight="bold" font-size="14.00"> </text>
</g>
<!-- 8&#45;&gt;10 -->
<g id="edge10" class="edge">
<title>8&#45;&gt;10</title>
<path fill="none" stroke="#888888" d="M521.59,-153.67C522.97,-145.3 524.4,-136.64 525.8,-128.1"/>
<polygon fill="#888888" stroke="#888888" points="529.26,-128.61 527.43,-118.18 522.35,-127.48 529.26,-128.61"/>
</g>
<!-- 13 -->
<g id="node14" class="node">
<title>13</title>
<text text-anchor="start" x="693" y="-253.8" font-family="Arial" font-weight="bold" font-size="14.00"> &lt; 38.53</text>
<text text-anchor="start" x="654" y="-209.3" font-family="Arial" font-size="14.00"> &#160;&#160;</text>
<path fill="#ebebeb" stroke="transparent" d="M680,-181C680,-181 756,-181 756,-181 762,-181 768,-187 768,-193 768,-193 768,-233 768,-233 768,-239 762,-245 756,-245 756,-245 680,-245 680,-245 674,-245 668,-239 668,-233 668,-233 668,-193 668,-193 668,-187 674,-181 680,-181"/>
<text text-anchor="start" x="669" y="-242.4" font-family="Arial" font-size="2.00"> </text>
<text text-anchor="start" x="669" y="-236.4" font-family="Arial" font-size="7.00"> &#160;13</text>
<text text-anchor="start" x="683" y="-219.8" font-family="Arial" font-weight="bold" font-size="14.00">Mean: 32.6</text>
<text text-anchor="start" x="694.5" y="-202.8" font-family="Arial" font-weight="bold" font-size="14.00">n = 171</text>
<text text-anchor="start" x="716.5" y="-184.8" font-family="Arial" font-size="9.00"> </text>
<path fill="none" stroke="#333333" d="M680,-181C680,-181 756,-181 756,-181 762,-181 768,-187 768,-193 768,-193 768,-233 768,-233 768,-239 762,-245 756,-245 756,-245 680,-245 680,-245 674,-245 668,-239 668,-233 668,-233 668,-193 668,-193 668,-187 674,-181 680,-181"/>
<text text-anchor="start" x="770" y="-209.3" font-family="Arial" font-size="14.00"> &#160;&#160;</text>
<text text-anchor="start" x="668" y="-166.8" font-family="Arial" font-weight="bold" font-size="14.00">prev_1h_inflow</text>
</g>
<!-- 12&#45;&gt;13 -->
<g id="edge13" class="edge">
<title>12&#45;&gt;13</title>
<path fill="none" stroke="#888888" d="M740.18,-307.67C738.2,-299.3 736.15,-290.64 734.13,-282.1"/>
<polygon fill="#888888" stroke="#888888" points="737.49,-281.1 731.78,-272.18 730.68,-282.71 737.49,-281.1"/>
</g>
<!-- 16 -->
<g id="node15" class="node">
<title>16</title>
<text text-anchor="start" x="854.5" y="-253.8" font-family="Arial" font-weight="bold" font-size="14.00"> ≥ 38.53</text>
<path fill="#f8766d" fill-opacity="0.439216" stroke="transparent" d="M834,-181C834,-181 924,-181 924,-181 930,-181 936,-187 936,-193 936,-193 936,-233 936,-233 936,-239 930,-245 924,-245 924,-245 834,-245 834,-245 828,-245 822,-239 822,-233 822,-233 822,-193 822,-193 822,-187 828,-181 834,-181"/>
<text text-anchor="start" x="823" y="-242.4" font-family="Arial" font-size="2.00"> </text>
<text text-anchor="start" x="823" y="-236.4" font-family="Arial" font-size="7.00"> &#160;16</text>
<text text-anchor="start" x="837" y="-219.8" font-family="Arial" font-weight="bold" font-size="14.00">Predict 38.26</text>
<text text-anchor="start" x="859" y="-202.8" font-family="Arial" font-weight="bold" font-size="14.00">n = 25</text>
<text text-anchor="start" x="877.5" y="-184.8" font-family="Arial" font-size="9.00"> </text>
<path fill="none" stroke="#333333" d="M834,-181C834,-181 924,-181 924,-181 930,-181 936,-187 936,-193 936,-193 936,-233 936,-233 936,-239 930,-245 924,-245 924,-245 834,-245 834,-245 828,-245 822,-239 822,-233 822,-233 822,-193 822,-193 822,-187 828,-181 834,-181"/>
<text text-anchor="start" x="877" y="-166.8" font-family="Arial" font-weight="bold" font-size="14.00"> </text>
</g>
<!-- 12&#45;&gt;16 -->
<g id="edge14" class="edge">
<title>12&#45;&gt;16</title>
<path fill="none" stroke="#888888" d="M801.97,-307.67C809.37,-298.67 817.06,-289.32 824.59,-280.16"/>
<polygon fill="#888888" stroke="#888888" points="827.51,-282.12 831.16,-272.18 822.1,-277.68 827.51,-282.12"/>
</g>
<!-- 18 -->
<g id="node18" class="node">
<title>18</title>
<text text-anchor="start" x="1077" y="-253.8" font-family="Arial" font-weight="bold" font-size="14.00"> &lt; 37.73</text>
<text text-anchor="start" x="1030" y="-209.3" font-family="Arial" font-size="14.00"> &#160;&#160;&#160;</text>
<path fill="#ebebeb" stroke="transparent" d="M1060,-181C1060,-181 1144,-181 1144,-181 1150,-181 1156,-187 1156,-193 1156,-193 1156,-233 1156,-233 1156,-239 1150,-245 1144,-245 1144,-245 1060,-245 1060,-245 1054,-245 1048,-239 1048,-233 1048,-233 1048,-193 1048,-193 1048,-187 1054,-181 1060,-181"/>
<text text-anchor="start" x="1049" y="-242.4" font-family="Arial" font-size="2.00"> </text>
<text text-anchor="start" x="1049" y="-236.4" font-family="Arial" font-size="7.00"> &#160;18</text>
<text text-anchor="start" x="1063" y="-219.8" font-family="Arial" font-weight="bold" font-size="14.00">Mean: 36.22</text>
<text text-anchor="start" x="1078.5" y="-202.8" font-family="Arial" font-weight="bold" font-size="14.00">n = 122</text>
<text text-anchor="start" x="1100.5" y="-184.8" font-family="Arial" font-size="9.00"> </text>
<path fill="none" stroke="#333333" d="M1060,-181C1060,-181 1144,-181 1144,-181 1150,-181 1156,-187 1156,-193 1156,-193 1156,-233 1156,-233 1156,-239 1150,-245 1144,-245 1144,-245 1060,-245 1060,-245 1054,-245 1048,-239 1048,-233 1048,-233 1048,-193 1048,-193 1048,-187 1054,-181 1060,-181"/>
<text text-anchor="start" x="1158" y="-209.3" font-family="Arial" font-size="14.00"> &#160;&#160;&#160;</text>
<text text-anchor="start" x="1044.5" y="-166.8" font-family="Arial" font-weight="bold" font-size="14.00">prev_168h_inflow</text>
</g>
<!-- 17&#45;&gt;18 -->
<g id="edge17" class="edge">
<title>17&#45;&gt;18</title>
<path fill="none" stroke="#888888" d="M1102,-307.67C1102,-299.39 1102,-290.83 1102,-282.38"/>
<polygon fill="#888888" stroke="#888888" points="1105.5,-282.18 1102,-272.18 1098.5,-282.18 1105.5,-282.18"/>
</g>
<!-- 21 -->
<g id="node19" class="node">
<title>21</title>
<text text-anchor="start" x="1288.5" y="-253.8" font-family="Arial" font-weight="bold" font-size="14.00"> ≥ 37.73</text>
<text text-anchor="start" x="1241" y="-209.3" font-family="Arial" font-size="14.00"> &#160;&#160;&#160;</text>
<path fill="#ebebeb" stroke="transparent" d="M1271,-181C1271,-181 1355,-181 1355,-181 1361,-181 1367,-187 1367,-193 1367,-193 1367,-233 1367,-233 1367,-239 1361,-245 1355,-245 1355,-245 1271,-245 1271,-245 1265,-245 1259,-239 1259,-233 1259,-233 1259,-193 1259,-193 1259,-187 1265,-181 1271,-181"/>
<text text-anchor="start" x="1260" y="-242.4" font-family="Arial" font-size="2.00"> </text>
<text text-anchor="start" x="1260" y="-236.4" font-family="Arial" font-size="7.00"> &#160;21</text>
<text text-anchor="start" x="1274" y="-219.8" font-family="Arial" font-weight="bold" font-size="14.00">Mean: 39.88</text>
<text text-anchor="start" x="1290" y="-202.8" font-family="Arial" font-weight="bold" font-size="14.00">n = 113</text>
<text text-anchor="start" x="1311.5" y="-184.8" font-family="Arial" font-size="9.00"> </text>
<path fill="none" stroke="#333333" d="M1271,-181C1271,-181 1355,-181 1355,-181 1361,-181 1367,-187 1367,-193 1367,-193 1367,-233 1367,-233 1367,-239 1361,-245 1355,-245 1355,-245 1271,-245 1271,-245 1265,-245 1259,-239 1259,-233 1259,-233 1259,-193 1259,-193 1259,-187 1265,-181 1271,-181"/>
<text text-anchor="start" x="1369" y="-209.3" font-family="Arial" font-size="14.00"> &#160;&#160;&#160;</text>
<text text-anchor="start" x="1255.5" y="-166.8" font-family="Arial" font-weight="bold" font-size="14.00">prev_168h_inflow</text>
</g>
<!-- 17&#45;&gt;21 -->
<g id="edge18" class="edge">
<title>17&#45;&gt;21</title>
<path fill="none" stroke="#888888" d="M1176.09,-312.62C1191.57,-301.48 1208.03,-289.62 1223.98,-278.13"/>
<polygon fill="#888888" stroke="#888888" points="1226.19,-280.85 1232.26,-272.16 1222.1,-275.17 1226.19,-280.85"/>
</g>
<!-- 14 -->
<g id="node16" class="node">
<title>14</title>
<text text-anchor="start" x="668" y="-99.8" font-family="Arial" font-weight="bold" font-size="14.00"> &lt; 33.74</text>
<path fill="#f8766d" fill-opacity="0.572549" stroke="transparent" d="M648,-27C648,-27 738,-27 738,-27 744,-27 750,-33 750,-39 750,-39 750,-79 750,-79 750,-85 744,-91 738,-91 738,-91 648,-91 648,-91 642,-91 636,-85 636,-79 636,-79 636,-39 636,-39 636,-33 642,-27 648,-27"/>
<text text-anchor="start" x="637" y="-88.4" font-family="Arial" font-size="2.00"> </text>
<text text-anchor="start" x="637" y="-82.4" font-family="Arial" font-size="7.00"> &#160;14</text>
<text text-anchor="start" x="651" y="-65.8" font-family="Arial" font-weight="bold" font-size="14.00">Predict 31.39</text>
<text text-anchor="start" x="673" y="-48.8" font-family="Arial" font-weight="bold" font-size="14.00">n = 90</text>
<text text-anchor="start" x="691.5" y="-30.8" font-family="Arial" font-size="9.00"> </text>
<path fill="none" stroke="#333333" d="M648,-27C648,-27 738,-27 738,-27 744,-27 750,-33 750,-39 750,-39 750,-79 750,-79 750,-85 744,-91 738,-91 738,-91 648,-91 648,-91 642,-91 636,-85 636,-79 636,-79 636,-39 636,-39 636,-33 642,-27 648,-27"/>
<text text-anchor="start" x="691" y="-12.8" font-family="Arial" font-weight="bold" font-size="14.00"> </text>
</g>
<!-- 13&#45;&gt;14 -->
<g id="edge15" class="edge">
<title>13&#45;&gt;14</title>
<path fill="none" stroke="#888888" d="M708.41,-153.67C707.03,-145.3 705.6,-136.64 704.2,-128.1"/>
<polygon fill="#888888" stroke="#888888" points="707.65,-127.48 702.57,-118.18 700.74,-128.61 707.65,-127.48"/>
</g>
<!-- 15 -->
<g id="node17" class="node">
<title>15</title>
<text text-anchor="start" x="824.5" y="-99.8" font-family="Arial" font-weight="bold" font-size="14.00"> ≥ 33.74</text>
<path fill="#f8766d" fill-opacity="0.525490" stroke="transparent" d="M804,-27C804,-27 894,-27 894,-27 900,-27 906,-33 906,-39 906,-39 906,-79 906,-79 906,-85 900,-91 894,-91 894,-91 804,-91 804,-91 798,-91 792,-85 792,-79 792,-79 792,-39 792,-39 792,-33 798,-27 804,-27"/>
<text text-anchor="start" x="793" y="-88.4" font-family="Arial" font-size="2.00"> </text>
<text text-anchor="start" x="793" y="-82.4" font-family="Arial" font-size="7.00"> &#160;15</text>
<text text-anchor="start" x="807" y="-65.8" font-family="Arial" font-weight="bold" font-size="14.00">Predict 33.94</text>
<text text-anchor="start" x="829" y="-48.8" font-family="Arial" font-weight="bold" font-size="14.00">n = 81</text>
<text text-anchor="start" x="847.5" y="-30.8" font-family="Arial" font-size="9.00"> </text>
<path fill="none" stroke="#333333" d="M804,-27C804,-27 894,-27 894,-27 900,-27 906,-33 906,-39 906,-39 906,-79 906,-79 906,-85 900,-91 894,-91 894,-91 804,-91 804,-91 798,-91 792,-85 792,-79 792,-79 792,-39 792,-39 792,-33 798,-27 804,-27"/>
<text text-anchor="start" x="847" y="-12.8" font-family="Arial" font-weight="bold" font-size="14.00"> </text>
</g>
<!-- 13&#45;&gt;15 -->
<g id="edge16" class="edge">
<title>13&#45;&gt;15</title>
<path fill="none" stroke="#888888" d="M768.27,-153.67C776.11,-144.58 784.25,-135.13 792.22,-125.88"/>
<polygon fill="#888888" stroke="#888888" points="794.98,-128.04 798.86,-118.18 789.68,-123.47 794.98,-128.04"/>
</g>
<!-- 19 -->
<g id="node20" class="node">
<title>19</title>
<text text-anchor="start" x="980" y="-99.8" font-family="Arial" font-weight="bold" font-size="14.00"> &lt; 35.44</text>
<path fill="#f8766d" fill-opacity="0.533333" stroke="transparent" d="M960,-27C960,-27 1050,-27 1050,-27 1056,-27 1062,-33 1062,-39 1062,-39 1062,-79 1062,-79 1062,-85 1056,-91 1050,-91 1050,-91 960,-91 960,-91 954,-91 948,-85 948,-79 948,-79 948,-39 948,-39 948,-33 954,-27 960,-27"/>
<text text-anchor="start" x="949" y="-88.4" font-family="Arial" font-size="2.00"> </text>
<text text-anchor="start" x="949" y="-82.4" font-family="Arial" font-size="7.00"> &#160;19</text>
<text text-anchor="start" x="963" y="-65.8" font-family="Arial" font-weight="bold" font-size="14.00">Predict 33.52</text>
<text text-anchor="start" x="985" y="-48.8" font-family="Arial" font-weight="bold" font-size="14.00">n = 39</text>
<text text-anchor="start" x="1003.5" y="-30.8" font-family="Arial" font-size="9.00"> </text>
<path fill="none" stroke="#333333" d="M960,-27C960,-27 1050,-27 1050,-27 1056,-27 1062,-33 1062,-39 1062,-39 1062,-79 1062,-79 1062,-85 1056,-91 1050,-91 1050,-91 960,-91 960,-91 954,-91 948,-85 948,-79 948,-79 948,-39 948,-39 948,-33 954,-27 960,-27"/>
<text text-anchor="start" x="1003" y="-12.8" font-family="Arial" font-weight="bold" font-size="14.00"> </text>
</g>
<!-- 18&#45;&gt;19 -->
<g id="edge19" class="edge">
<title>18&#45;&gt;19</title>
<path fill="none" stroke="#888888" d="M1064.77,-153.67C1059.15,-144.85 1053.3,-135.69 1047.57,-126.71"/>
<polygon fill="#888888" stroke="#888888" points="1050.46,-124.72 1042.13,-118.18 1044.55,-128.49 1050.46,-124.72"/>
</g>
<!-- 20 -->
<g id="node21" class="node">
<title>20</title>
<text text-anchor="start" x="1136.5" y="-99.8" font-family="Arial" font-weight="bold" font-size="14.00"> ≥ 35.44</text>
<path fill="#f8766d" fill-opacity="0.454902" stroke="transparent" d="M1116,-27C1116,-27 1206,-27 1206,-27 1212,-27 1218,-33 1218,-39 1218,-39 1218,-79 1218,-79 1218,-85 1212,-91 1206,-91 1206,-91 1116,-91 1116,-91 1110,-91 1104,-85 1104,-79 1104,-79 1104,-39 1104,-39 1104,-33 1110,-27 1116,-27"/>
<text text-anchor="start" x="1105" y="-88.4" font-family="Arial" font-size="2.00"> </text>
<text text-anchor="start" x="1105" y="-82.4" font-family="Arial" font-size="7.00"> &#160;20</text>
<text text-anchor="start" x="1119" y="-65.8" font-family="Arial" font-weight="bold" font-size="14.00">Predict 37.49</text>
<text text-anchor="start" x="1141" y="-48.8" font-family="Arial" font-weight="bold" font-size="14.00">n = 83</text>
<text text-anchor="start" x="1159.5" y="-30.8" font-family="Arial" font-size="9.00"> </text>
<path fill="none" stroke="#333333" d="M1116,-27C1116,-27 1206,-27 1206,-27 1212,-27 1218,-33 1218,-39 1218,-39 1218,-79 1218,-79 1218,-85 1212,-91 1206,-91 1206,-91 1116,-91 1116,-91 1110,-91 1104,-85 1104,-79 1104,-79 1104,-39 1104,-39 1104,-33 1110,-27 1116,-27"/>
<text text-anchor="start" x="1159" y="-12.8" font-family="Arial" font-weight="bold" font-size="14.00"> </text>
</g>
<!-- 18&#45;&gt;20 -->
<g id="edge20" class="edge">
<title>18&#45;&gt;20</title>
<path fill="none" stroke="#888888" d="M1124.64,-153.67C1127.96,-145.12 1131.4,-136.26 1134.78,-127.55"/>
<polygon fill="#888888" stroke="#888888" points="1138.06,-128.77 1138.42,-118.18 1131.54,-126.23 1138.06,-128.77"/>
</g>
<!-- 22 -->
<g id="node22" class="node">
<title>22</title>
<text text-anchor="start" x="1288" y="-99.8" font-family="Arial" font-weight="bold" font-size="14.00"> &lt; 40.35</text>
<path fill="#f8766d" fill-opacity="0.431373" stroke="transparent" d="M1272,-27C1272,-27 1354,-27 1354,-27 1360,-27 1366,-33 1366,-39 1366,-39 1366,-79 1366,-79 1366,-85 1360,-91 1354,-91 1354,-91 1272,-91 1272,-91 1266,-91 1260,-85 1260,-79 1260,-79 1260,-39 1260,-39 1260,-33 1266,-27 1272,-27"/>
<text text-anchor="start" x="1261" y="-88.4" font-family="Arial" font-size="2.00"> </text>
<text text-anchor="start" x="1261" y="-82.4" font-family="Arial" font-size="7.00"> &#160;22</text>
<text text-anchor="start" x="1275" y="-65.8" font-family="Arial" font-weight="bold" font-size="14.00">Predict 38.7</text>
<text text-anchor="start" x="1293" y="-48.8" font-family="Arial" font-weight="bold" font-size="14.00">n = 67</text>
<text text-anchor="start" x="1311.5" y="-30.8" font-family="Arial" font-size="9.00"> </text>
<path fill="none" stroke="#333333" d="M1272,-27C1272,-27 1354,-27 1354,-27 1360,-27 1366,-33 1366,-39 1366,-39 1366,-79 1366,-79 1366,-85 1360,-91 1354,-91 1354,-91 1272,-91 1272,-91 1266,-91 1260,-85 1260,-79 1260,-79 1260,-39 1260,-39 1260,-33 1266,-27 1272,-27"/>
<text text-anchor="start" x="1311" y="-12.8" font-family="Arial" font-weight="bold" font-size="14.00"> </text>
</g>
<!-- 21&#45;&gt;22 -->
<g id="edge21" class="edge">
<title>21&#45;&gt;22</title>
<path fill="none" stroke="#888888" d="M1313,-153.67C1313,-145.39 1313,-136.83 1313,-128.38"/>
<polygon fill="#888888" stroke="#888888" points="1316.5,-128.18 1313,-118.18 1309.5,-128.18 1316.5,-128.18"/>
</g>
<!-- 23 -->
<g id="node23" class="node">
<title>23</title>
<text text-anchor="start" x="1440.5" y="-99.8" font-family="Arial" font-weight="bold" font-size="14.00"> ≥ 40.35</text>
<path fill="#f8766d" fill-opacity="0.376471" stroke="transparent" d="M1420,-27C1420,-27 1510,-27 1510,-27 1516,-27 1522,-33 1522,-39 1522,-39 1522,-79 1522,-79 1522,-85 1516,-91 1510,-91 1510,-91 1420,-91 1420,-91 1414,-91 1408,-85 1408,-79 1408,-79 1408,-39 1408,-39 1408,-33 1414,-27 1420,-27"/>
<text text-anchor="start" x="1409" y="-88.4" font-family="Arial" font-size="2.00"> </text>
<text text-anchor="start" x="1409" y="-82.4" font-family="Arial" font-size="7.00"> &#160;23</text>
<text text-anchor="start" x="1423" y="-65.8" font-family="Arial" font-weight="bold" font-size="14.00">Predict 41.61</text>
<text text-anchor="start" x="1445" y="-48.8" font-family="Arial" font-weight="bold" font-size="14.00">n = 46</text>
<text text-anchor="start" x="1463.5" y="-30.8" font-family="Arial" font-size="9.00"> </text>
<path fill="none" stroke="#333333" d="M1420,-27C1420,-27 1510,-27 1510,-27 1516,-27 1522,-33 1522,-39 1522,-39 1522,-79 1522,-79 1522,-85 1516,-91 1510,-91 1510,-91 1420,-91 1420,-91 1414,-91 1408,-85 1408,-79 1408,-79 1408,-39 1408,-39 1408,-33 1414,-27 1420,-27"/>
<text text-anchor="start" x="1463" y="-12.8" font-family="Arial" font-weight="bold" font-size="14.00"> </text>
</g>
<!-- 21&#45;&gt;23 -->
<g id="edge22" class="edge">
<title>21&#45;&gt;23</title>
<path fill="none" stroke="#888888" d="M1371.33,-153.67C1380.61,-144.39 1390.25,-134.75 1399.67,-125.33"/>
<polygon fill="#888888" stroke="#888888" points="1402.23,-127.72 1406.82,-118.18 1397.28,-122.77 1402.23,-127.72"/>
</g>
</g>
</svg>
