<?xml version="1.0" encoding="UTF-8" standalone="no"?>
<!DOCTYPE svg PUBLIC "-//W3C//DTD SVG 1.1//EN"
 "http://www.w3.org/Graphics/SVG/1.1/DTD/svg11.dtd">
<!-- Generated by graphviz version 2.50.0 (20211204.2007)
 -->
<!-- Pages: 1 -->
<svg width="1093pt" height="742pt"
 viewBox="0.00 0.00 1093.00 742.00" xmlns="http://www.w3.org/2000/svg" xmlns:xlink="http://www.w3.org/1999/xlink">
<g id="graph0" class="graph" transform="scale(1 1) rotate(0) translate(4 738)">
<polygon fill="white" stroke="transparent" points="-4,4 -4,-738 1089,-738 1089,4 -4,4"/>
<!-- 1 -->
<g id="node1" class="node">
<title>1</title>
<text text-anchor="start" x="625" y="-715.8" font-family="Arial" font-weight="bold" font-size="14.00"> </text>
<path fill="#ebebeb" stroke="transparent" d="M585,-643C585,-643 669,-643 669,-643 675,-643 681,-649 681,-655 681,-655 681,-695 681,-695 681,-701 675,-707 669,-707 669,-707 585,-707 585,-707 579,-707 573,-701 573,-695 573,-695 573,-655 573,-655 573,-649 579,-643 585,-643"/>
<text text-anchor="start" x="574" y="-704.4" font-family="Arial" font-size="2.00"> </text>
<text text-anchor="start" x="574" y="-698.4" font-family="Arial" font-size="7.00"> &#160;1</text>
<text text-anchor="start" x="588" y="-681.8" font-family="Arial" font-weight="bold" font-size="14.00">Mean: 28.76</text>
<text text-anchor="start" x="603.5" y="-664.8" font-family="Arial" font-weight="bold" font-size="14.00">n = 168</text>
<text text-anchor="start" x="625.5" y="-646.8" font-family="Arial" font-size="9.00"> </text>
<path fill="none" stroke="#333333" d="M585,-643C585,-643 669,-643 669,-643 675,-643 681,-649 681,-655 681,-655 681,-695 681,-695 681,-701 675,-707 669,-707 669,-707 585,-707 585,-707 579,-707 573,-701 573,-695 573,-695 573,-655 573,-655 573,-649 579,-643 585,-643"/>
<text text-anchor="start" x="612.5" y="-628.8" font-family="Arial" font-weight="bold" font-size="14.00">time</text>
</g>
<!-- 2 -->
<g id="node2" class="node">
<title>2</title>
<text text-anchor="start" x="522.5" y="-561.8" font-family="Arial" font-weight="bold" font-size="14.00"> &lt; 14.5</text>
<text text-anchor="start" x="472" y="-517.3" font-family="Arial" font-size="14.00"> &#160;&#160;&#160;</text>
<path fill="#ebebeb" stroke="transparent" d="M502,-489C502,-489 586,-489 586,-489 592,-489 598,-495 598,-501 598,-501 598,-541 598,-541 598,-547 592,-553 586,-553 586,-553 502,-553 502,-553 496,-553 490,-547 490,-541 490,-541 490,-501 490,-501 490,-495 496,-489 502,-489"/>
<text text-anchor="start" x="491" y="-550.4" font-family="Arial" font-size="2.00"> </text>
<text text-anchor="start" x="491" y="-544.4" font-family="Arial" font-size="7.00"> &#160;2</text>
<text text-anchor="start" x="505" y="-527.8" font-family="Arial" font-weight="bold" font-size="14.00">Mean: 28.63</text>
<text text-anchor="start" x="520.5" y="-510.8" font-family="Arial" font-weight="bold" font-size="14.00">n = 105</text>
<text text-anchor="start" x="542.5" y="-492.8" font-family="Arial" font-size="9.00"> </text>
<path fill="none" stroke="#333333" d="M502,-489C502,-489 586,-489 586,-489 592,-489 598,-495 598,-501 598,-501 598,-541 598,-541 598,-547 592,-553 586,-553 586,-553 502,-553 502,-553 496,-553 490,-547 490,-541 490,-541 490,-501 490,-501 490,-495 496,-489 502,-489"/>
<text text-anchor="start" x="600" y="-517.3" font-family="Arial" font-size="14.00"> &#160;&#160;&#160;</text>
<text text-anchor="start" x="486.5" y="-474.8" font-family="Arial" font-weight="bold" font-size="14.00">prev_168h_inflow</text>
</g>
<!-- 1&#45;&gt;2 -->
<g id="edge1" class="edge">
<title>1&#45;&gt;2</title>
<path fill="none" stroke="#888888" d="M595.15,-615.67C590.38,-606.94 585.44,-597.88 580.58,-588.99"/>
<polygon fill="#888888" stroke="#888888" points="583.63,-587.28 575.77,-580.18 577.49,-590.63 583.63,-587.28"/>
</g>
<!-- 15 -->
<g id="node3" class="node">
<title>15</title>
<text text-anchor="start" x="689" y="-561.8" font-family="Arial" font-weight="bold" font-size="14.00"> ≥ 14.5</text>
<path fill="#ebebeb" stroke="transparent" d="M668,-489C668,-489 752,-489 752,-489 758,-489 764,-495 764,-501 764,-501 764,-541 764,-541 764,-547 758,-553 752,-553 752,-553 668,-553 668,-553 662,-553 656,-547 656,-541 656,-541 656,-501 656,-501 656,-495 662,-489 668,-489"/>
<text text-anchor="start" x="657" y="-550.4" font-family="Arial" font-size="2.00"> </text>
<text text-anchor="start" x="657" y="-544.4" font-family="Arial" font-size="7.00"> &#160;15</text>
<text text-anchor="start" x="671" y="-527.8" font-family="Arial" font-weight="bold" font-size="14.00">Mean: 28.98</text>
<text text-anchor="start" x="690" y="-510.8" font-family="Arial" font-weight="bold" font-size="14.00">n = 63</text>
<text text-anchor="start" x="708.5" y="-492.8" font-family="Arial" font-size="9.00"> </text>
<path fill="none" stroke="#333333" d="M668,-489C668,-489 752,-489 752,-489 758,-489 764,-495 764,-501 764,-501 764,-541 764,-541 764,-547 758,-553 752,-553 752,-553 668,-553 668,-553 662,-553 656,-547 656,-541 656,-541 656,-501 656,-501 656,-495 662,-489 668,-489"/>
<text text-anchor="start" x="680.5" y="-474.8" font-family="Arial" font-weight="bold" font-size="14.00">day_type</text>
</g>
<!-- 1&#45;&gt;15 -->
<g id="edge2" class="edge">
<title>1&#45;&gt;15</title>
<path fill="none" stroke="#888888" d="M658.85,-615.67C663.62,-606.94 668.56,-597.88 673.42,-588.99"/>
<polygon fill="#888888" stroke="#888888" points="676.51,-590.63 678.23,-580.18 670.37,-587.28 676.51,-590.63"/>
</g>
<!-- 3 -->
<g id="node4" class="node">
<title>3</title>
<text text-anchor="start" x="213" y="-407.8" font-family="Arial" font-weight="bold" font-size="14.00"> &lt; 31.82</text>
<path fill="#ebebeb" stroke="transparent" d="M196,-335C196,-335 280,-335 280,-335 286,-335 292,-341 292,-347 292,-347 292,-387 292,-387 292,-393 286,-399 280,-399 280,-399 196,-399 196,-399 190,-399 184,-393 184,-387 184,-387 184,-347 184,-347 184,-341 190,-335 196,-335"/>
<text text-anchor="start" x="185" y="-396.4" font-family="Arial" font-size="2.00"> </text>
<text text-anchor="start" x="185" y="-390.4" font-family="Arial" font-size="7.00"> &#160;3</text>
<text text-anchor="start" x="199" y="-373.8" font-family="Arial" font-weight="bold" font-size="14.00">Mean: 25.28</text>
<text text-anchor="start" x="218" y="-356.8" font-family="Arial" font-weight="bold" font-size="14.00">n = 65</text>
<text text-anchor="start" x="236.5" y="-338.8" font-family="Arial" font-size="9.00"> </text>
<path fill="none" stroke="#333333" d="M196,-335C196,-335 280,-335 280,-335 286,-335 292,-341 292,-347 292,-347 292,-387 292,-387 292,-393 286,-399 280,-399 280,-399 196,-399 196,-399 190,-399 184,-393 184,-387 184,-387 184,-347 184,-347 184,-341 190,-335 196,-335"/>
<text text-anchor="start" x="223.5" y="-320.8" font-family="Arial" font-weight="bold" font-size="14.00">time</text>
</g>
<!-- 2&#45;&gt;3 -->
<g id="edge3" class="edge">
<title>2&#45;&gt;3</title>
<path fill="none" stroke="#888888" d="M462,-479.27C415.79,-456.31 358.48,-427.85 313.4,-405.45"/>
<polygon fill="#888888" stroke="#888888" points="314.77,-402.23 304.26,-400.91 311.66,-408.5 314.77,-402.23"/>
</g>
<!-- 8 -->
<g id="node5" class="node">
<title>8</title>
<text text-anchor="start" x="524.5" y="-407.8" font-family="Arial" font-weight="bold" font-size="14.00"> ≥ 31.82</text>
<path fill="#ebebeb" stroke="transparent" d="M507,-335C507,-335 591,-335 591,-335 597,-335 603,-341 603,-347 603,-347 603,-387 603,-387 603,-393 597,-399 591,-399 591,-399 507,-399 507,-399 501,-399 495,-393 495,-387 495,-387 495,-347 495,-347 495,-341 501,-335 507,-335"/>
<text text-anchor="start" x="496" y="-396.4" font-family="Arial" font-size="2.00"> </text>
<text text-anchor="start" x="496" y="-390.4" font-family="Arial" font-size="7.00"> &#160;8</text>
<text text-anchor="start" x="510" y="-373.8" font-family="Arial" font-weight="bold" font-size="14.00">Mean: 34.08</text>
<text text-anchor="start" x="529" y="-356.8" font-family="Arial" font-weight="bold" font-size="14.00">n = 40</text>
<text text-anchor="start" x="547.5" y="-338.8" font-family="Arial" font-size="9.00"> </text>
<path fill="none" stroke="#333333" d="M507,-335C507,-335 591,-335 591,-335 597,-335 603,-341 603,-347 603,-347 603,-387 603,-387 603,-393 597,-399 591,-399 591,-399 507,-399 507,-399 501,-399 495,-393 495,-387 495,-387 495,-347 495,-347 495,-341 501,-335 507,-335"/>
<text text-anchor="start" x="520" y="-320.8" font-family="Arial" font-weight="bold" font-size="14.00">air_temp</text>
</g>
<!-- 2&#45;&gt;8 -->
<g id="edge4" class="edge">
<title>2&#45;&gt;8</title>
<path fill="none" stroke="#888888" d="M545.92,-461.67C546.19,-453.39 546.47,-444.83 546.75,-436.38"/>
<polygon fill="#888888" stroke="#888888" points="550.26,-436.29 547.09,-426.18 543.26,-436.06 550.26,-436.29"/>
</g>
<!-- 16 -->
<g id="node16" class="node">
<title>16</title>
<text text-anchor="start" x="690.5" y="-407.8" font-family="Arial" font-weight="bold" font-size="14.00"> &lt; 0.5</text>
<path fill="#f8766d" fill-opacity="0.807843" stroke="transparent" d="M663,-335C663,-335 753,-335 753,-335 759,-335 765,-341 765,-347 765,-347 765,-387 765,-387 765,-393 759,-399 753,-399 753,-399 663,-399 663,-399 657,-399 651,-393 651,-387 651,-387 651,-347 651,-347 651,-341 657,-335 663,-335"/>
<text text-anchor="start" x="652" y="-396.4" font-family="Arial" font-size="2.00"> </text>
<text text-anchor="start" x="652" y="-390.4" font-family="Arial" font-size="7.00"> &#160;16</text>
<text text-anchor="start" x="666" y="-373.8" font-family="Arial" font-weight="bold" font-size="14.00">Predict 26.22</text>
<text text-anchor="start" x="688" y="-356.8" font-family="Arial" font-weight="bold" font-size="14.00">n = 18</text>
<text text-anchor="start" x="706.5" y="-338.8" font-family="Arial" font-size="9.00"> </text>
<path fill="none" stroke="#333333" d="M663,-335C663,-335 753,-335 753,-335 759,-335 765,-341 765,-347 765,-347 765,-387 765,-387 765,-393 759,-399 753,-399 753,-399 663,-399 663,-399 657,-399 651,-393 651,-387 651,-387 651,-347 651,-347 651,-341 657,-335 663,-335"/>
<text text-anchor="start" x="706" y="-320.8" font-family="Arial" font-weight="bold" font-size="14.00"> </text>
</g>
<!-- 15&#45;&gt;16 -->
<g id="edge15" class="edge">
<title>15&#45;&gt;16</title>
<path fill="none" stroke="#888888" d="M709.23,-461.67C709.12,-453.39 709.01,-444.83 708.9,-436.38"/>
<polygon fill="#888888" stroke="#888888" points="712.4,-436.13 708.77,-426.18 705.4,-436.22 712.4,-436.13"/>
</g>
<!-- 17 -->
<g id="node17" class="node">
<title>17</title>
<text text-anchor="start" x="844" y="-407.8" font-family="Arial" font-weight="bold" font-size="14.00"> ≥ 0.5</text>
<path fill="#ebebeb" stroke="transparent" d="M819,-335C819,-335 903,-335 903,-335 909,-335 915,-341 915,-347 915,-347 915,-387 915,-387 915,-393 909,-399 903,-399 903,-399 819,-399 819,-399 813,-399 807,-393 807,-387 807,-387 807,-347 807,-347 807,-341 813,-335 819,-335"/>
<text text-anchor="start" x="808" y="-396.4" font-family="Arial" font-size="2.00"> </text>
<text text-anchor="start" x="808" y="-390.4" font-family="Arial" font-size="7.00"> &#160;17</text>
<text text-anchor="start" x="822" y="-373.8" font-family="Arial" font-weight="bold" font-size="14.00">Mean: 30.08</text>
<text text-anchor="start" x="841" y="-356.8" font-family="Arial" font-weight="bold" font-size="14.00">n = 45</text>
<text text-anchor="start" x="859.5" y="-338.8" font-family="Arial" font-size="9.00"> </text>
<path fill="none" stroke="#333333" d="M819,-335C819,-335 903,-335 903,-335 909,-335 915,-341 915,-347 915,-347 915,-387 915,-387 915,-393 909,-399 903,-399 903,-399 819,-399 819,-399 813,-399 807,-393 807,-387 807,-387 807,-347 807,-347 807,-341 813,-335 819,-335"/>
<text text-anchor="start" x="846.5" y="-320.8" font-family="Arial" font-weight="bold" font-size="14.00">time</text>
</g>
<!-- 15&#45;&gt;17 -->
<g id="edge16" class="edge">
<title>15&#45;&gt;17</title>
<path fill="none" stroke="#888888" d="M767.95,-461.67C777.16,-452.39 786.74,-442.75 796.1,-433.33"/>
<polygon fill="#888888" stroke="#888888" points="798.64,-435.74 803.21,-426.18 793.68,-430.8 798.64,-435.74"/>
</g>
<!-- 4 -->
<g id="node6" class="node">
<title>4</title>
<text text-anchor="start" x="51.5" y="-253.8" font-family="Arial" font-weight="bold" font-size="14.00"> &lt; 5.5</text>
<path fill="#f8766d" fill-opacity="0.874510" stroke="transparent" d="M24,-181C24,-181 114,-181 114,-181 120,-181 126,-187 126,-193 126,-193 126,-233 126,-233 126,-239 120,-245 114,-245 114,-245 24,-245 24,-245 18,-245 12,-239 12,-233 12,-233 12,-193 12,-193 12,-187 18,-181 24,-181"/>
<text text-anchor="start" x="13" y="-242.4" font-family="Arial" font-size="2.00"> </text>
<text text-anchor="start" x="13" y="-236.4" font-family="Arial" font-size="7.00"> &#160;4</text>
<text text-anchor="start" x="27" y="-219.8" font-family="Arial" font-weight="bold" font-size="14.00">Predict 23.81</text>
<text text-anchor="start" x="49" y="-202.8" font-family="Arial" font-weight="bold" font-size="14.00">n = 42</text>
<text text-anchor="start" x="67.5" y="-184.8" font-family="Arial" font-size="9.00"> </text>
<path fill="none" stroke="#333333" d="M24,-181C24,-181 114,-181 114,-181 120,-181 126,-187 126,-193 126,-193 126,-233 126,-233 126,-239 120,-245 114,-245 114,-245 24,-245 24,-245 18,-245 12,-239 12,-233 12,-233 12,-193 12,-193 12,-187 18,-181 24,-181"/>
<text text-anchor="start" x="67" y="-166.8" font-family="Arial" font-weight="bold" font-size="14.00"> </text>
</g>
<!-- 3&#45;&gt;4 -->
<g id="edge5" class="edge">
<title>3&#45;&gt;4</title>
<path fill="none" stroke="#888888" d="M173.14,-307.67C162.73,-298.3 151.9,-288.56 141.33,-279.05"/>
<polygon fill="#888888" stroke="#888888" points="143.46,-276.26 133.68,-272.18 138.78,-281.47 143.46,-276.26"/>
</g>
<!-- 5 -->
<g id="node7" class="node">
<title>5</title>
<text text-anchor="start" x="221" y="-253.8" font-family="Arial" font-weight="bold" font-size="14.00"> ≥ 5.5</text>
<text text-anchor="start" x="166" y="-209.3" font-family="Arial" font-size="14.00"> &#160;&#160;&#160;</text>
<path fill="#ebebeb" stroke="transparent" d="M196,-181C196,-181 280,-181 280,-181 286,-181 292,-187 292,-193 292,-193 292,-233 292,-233 292,-239 286,-245 280,-245 280,-245 196,-245 196,-245 190,-245 184,-239 184,-233 184,-233 184,-193 184,-193 184,-187 190,-181 196,-181"/>
<text text-anchor="start" x="185" y="-242.4" font-family="Arial" font-size="2.00"> </text>
<text text-anchor="start" x="185" y="-236.4" font-family="Arial" font-size="7.00"> &#160;5</text>
<text text-anchor="start" x="199" y="-219.8" font-family="Arial" font-weight="bold" font-size="14.00">Mean: 27.96</text>
<text text-anchor="start" x="218" y="-202.8" font-family="Arial" font-weight="bold" font-size="14.00">n = 23</text>
<text text-anchor="start" x="236.5" y="-184.8" font-family="Arial" font-size="9.00"> </text>
<path fill="none" stroke="#333333" d="M196,-181C196,-181 280,-181 280,-181 286,-181 292,-187 292,-193 292,-193 292,-233 292,-233 292,-239 286,-245 280,-245 280,-245 196,-245 196,-245 190,-245 184,-239 184,-233 184,-233 184,-193 184,-193 184,-187 190,-181 196,-181"/>
<text text-anchor="start" x="294" y="-209.3" font-family="Arial" font-size="14.00"> &#160;&#160;&#160;</text>
<text text-anchor="start" x="180.5" y="-166.8" font-family="Arial" font-weight="bold" font-size="14.00">prev_168h_inflow</text>
</g>
<!-- 3&#45;&gt;5 -->
<g id="edge6" class="edge">
<title>3&#45;&gt;5</title>
<path fill="none" stroke="#888888" d="M238,-307.67C238,-299.39 238,-290.83 238,-282.38"/>
<polygon fill="#888888" stroke="#888888" points="241.5,-282.18 238,-272.18 234.5,-282.18 241.5,-282.18"/>
</g>
<!-- 9 -->
<g id="node10" class="node">
<title>9</title>
<text text-anchor="start" x="524" y="-253.8" font-family="Arial" font-weight="bold" font-size="14.00"> &lt; 22.25</text>
<path fill="#ebebeb" stroke="transparent" d="M511,-181C511,-181 587,-181 587,-181 593,-181 599,-187 599,-193 599,-193 599,-233 599,-233 599,-239 593,-245 587,-245 587,-245 511,-245 511,-245 505,-245 499,-239 499,-233 499,-233 499,-193 499,-193 499,-187 505,-181 511,-181"/>
<text text-anchor="start" x="500" y="-242.4" font-family="Arial" font-size="2.00"> </text>
<text text-anchor="start" x="500" y="-236.4" font-family="Arial" font-size="7.00"> &#160;9</text>
<text text-anchor="start" x="514" y="-219.8" font-family="Arial" font-weight="bold" font-size="14.00">Mean: 40.3</text>
<text text-anchor="start" x="533" y="-202.8" font-family="Arial" font-weight="bold" font-size="14.00">n = 3</text>
<text text-anchor="start" x="547.5" y="-184.8" font-family="Arial" font-size="9.00"> </text>
<path fill="none" stroke="#333333" d="M511,-181C511,-181 587,-181 587,-181 593,-181 599,-187 599,-193 599,-193 599,-233 599,-233 599,-239 593,-245 587,-245 587,-245 511,-245 511,-245 505,-245 499,-239 499,-233 499,-233 499,-193 499,-193 499,-187 505,-181 511,-181"/>
<text text-anchor="start" x="534.5" y="-166.8" font-family="Arial" font-weight="bold" font-size="14.00">time</text>
</g>
<!-- 8&#45;&gt;9 -->
<g id="edge9" class="edge">
<title>8&#45;&gt;9</title>
<path fill="none" stroke="#888888" d="M549,-307.67C549,-299.39 549,-290.83 549,-282.38"/>
<polygon fill="#888888" stroke="#888888" points="552.5,-282.18 549,-272.18 545.5,-282.18 552.5,-282.18"/>
</g>
<!-- 12 -->
<g id="node11" class="node">
<title>12</title>
<text text-anchor="start" x="681.5" y="-253.8" font-family="Arial" font-weight="bold" font-size="14.00"> ≥ 22.25</text>
<path fill="#ebebeb" stroke="transparent" d="M664,-181C664,-181 748,-181 748,-181 754,-181 760,-187 760,-193 760,-193 760,-233 760,-233 760,-239 754,-245 748,-245 748,-245 664,-245 664,-245 658,-245 652,-239 652,-233 652,-233 652,-193 652,-193 652,-187 658,-181 664,-181"/>
<text text-anchor="start" x="653" y="-242.4" font-family="Arial" font-size="2.00"> </text>
<text text-anchor="start" x="653" y="-236.4" font-family="Arial" font-size="7.00"> &#160;12</text>
<text text-anchor="start" x="667" y="-219.8" font-family="Arial" font-weight="bold" font-size="14.00">Mean: 33.57</text>
<text text-anchor="start" x="686" y="-202.8" font-family="Arial" font-weight="bold" font-size="14.00">n = 37</text>
<text text-anchor="start" x="704.5" y="-184.8" font-family="Arial" font-size="9.00"> </text>
<path fill="none" stroke="#333333" d="M664,-181C664,-181 748,-181 748,-181 754,-181 760,-187 760,-193 760,-193 760,-233 760,-233 760,-239 754,-245 748,-245 748,-245 664,-245 664,-245 658,-245 652,-239 652,-233 652,-233 652,-193 652,-193 652,-187 658,-181 664,-181"/>
<text text-anchor="start" x="691.5" y="-166.8" font-family="Arial" font-weight="bold" font-size="14.00">time</text>
</g>
<!-- 8&#45;&gt;12 -->
<g id="edge10" class="edge">
<title>8&#45;&gt;12</title>
<path fill="none" stroke="#888888" d="M609.25,-307.67C618.83,-298.39 628.79,-288.75 638.52,-279.33"/>
<polygon fill="#888888" stroke="#888888" points="641.16,-281.65 645.91,-272.18 636.29,-276.62 641.16,-281.65"/>
</g>
<!-- 6 -->
<g id="node8" class="node">
<title>6</title>
<text text-anchor="start" x="57" y="-99.8" font-family="Arial" font-weight="bold" font-size="14.00"> &lt; 27.42</text>
<path fill="#f8766d" fill-opacity="0.800000" stroke="transparent" d="M37,-27C37,-27 127,-27 127,-27 133,-27 139,-33 139,-39 139,-39 139,-79 139,-79 139,-85 133,-91 127,-91 127,-91 37,-91 37,-91 31,-91 25,-85 25,-79 25,-79 25,-39 25,-39 25,-33 31,-27 37,-27"/>
<text text-anchor="start" x="26" y="-88.4" font-family="Arial" font-size="2.00"> </text>
<text text-anchor="start" x="26" y="-82.4" font-family="Arial" font-size="7.00"> &#160;6</text>
<text text-anchor="start" x="40" y="-65.8" font-family="Arial" font-weight="bold" font-size="14.00">Predict 26.54</text>
<text text-anchor="start" x="66" y="-48.8" font-family="Arial" font-weight="bold" font-size="14.00">n = 9</text>
<text text-anchor="start" x="80.5" y="-30.8" font-family="Arial" font-size="9.00"> </text>
<path fill="none" stroke="#333333" d="M37,-27C37,-27 127,-27 127,-27 133,-27 139,-33 139,-39 139,-39 139,-79 139,-79 139,-85 133,-91 127,-91 127,-91 37,-91 37,-91 31,-91 25,-85 25,-79 25,-79 25,-39 25,-39 25,-33 31,-27 37,-27"/>
<text text-anchor="start" x="80" y="-12.8" font-family="Arial" font-weight="bold" font-size="14.00"> </text>
</g>
<!-- 5&#45;&gt;6 -->
<g id="edge7" class="edge">
<title>5&#45;&gt;6</title>
<path fill="none" stroke="#888888" d="M178.13,-153.67C168.62,-144.39 158.72,-134.75 149.05,-125.33"/>
<polygon fill="#888888" stroke="#888888" points="151.31,-122.65 141.71,-118.18 146.43,-127.66 151.31,-122.65"/>
</g>
<!-- 7 -->
<g id="node9" class="node">
<title>7</title>
<text text-anchor="start" x="213.5" y="-99.8" font-family="Arial" font-weight="bold" font-size="14.00"> ≥ 27.42</text>
<path fill="#f8766d" fill-opacity="0.737255" stroke="transparent" d="M193,-27C193,-27 283,-27 283,-27 289,-27 295,-33 295,-39 295,-39 295,-79 295,-79 295,-85 289,-91 283,-91 283,-91 193,-91 193,-91 187,-91 181,-85 181,-79 181,-79 181,-39 181,-39 181,-33 187,-27 193,-27"/>
<text text-anchor="start" x="182" y="-88.4" font-family="Arial" font-size="2.00"> </text>
<text text-anchor="start" x="182" y="-82.4" font-family="Arial" font-size="7.00"> &#160;7</text>
<text text-anchor="start" x="196" y="-65.8" font-family="Arial" font-weight="bold" font-size="14.00">Predict 28.87</text>
<text text-anchor="start" x="218" y="-48.8" font-family="Arial" font-weight="bold" font-size="14.00">n = 14</text>
<text text-anchor="start" x="236.5" y="-30.8" font-family="Arial" font-size="9.00"> </text>
<path fill="none" stroke="#333333" d="M193,-27C193,-27 283,-27 283,-27 289,-27 295,-33 295,-39 295,-39 295,-79 295,-79 295,-85 289,-91 283,-91 283,-91 193,-91 193,-91 187,-91 181,-85 181,-79 181,-79 181,-39 181,-39 181,-33 187,-27 193,-27"/>
<text text-anchor="start" x="236" y="-12.8" font-family="Arial" font-weight="bold" font-size="14.00"> </text>
</g>
<!-- 5&#45;&gt;7 -->
<g id="edge8" class="edge">
<title>5&#45;&gt;7</title>
<path fill="none" stroke="#888888" d="M238,-153.67C238,-145.39 238,-136.83 238,-128.38"/>
<polygon fill="#888888" stroke="#888888" points="241.5,-128.18 238,-118.18 234.5,-128.18 241.5,-128.18"/>
</g>
<!-- 10 -->
<g id="node12" class="node">
<title>10</title>
<text text-anchor="start" x="376.5" y="-99.8" font-family="Arial" font-weight="bold" font-size="14.00"> &lt; 7.5</text>
<path fill="#f8766d" fill-opacity="0.533333" stroke="transparent" d="M349,-27C349,-27 439,-27 439,-27 445,-27 451,-33 451,-39 451,-39 451,-79 451,-79 451,-85 445,-91 439,-91 439,-91 349,-91 349,-91 343,-91 337,-85 337,-79 337,-79 337,-39 337,-39 337,-33 343,-27 349,-27"/>
<text text-anchor="start" x="338" y="-88.4" font-family="Arial" font-size="2.00"> </text>
<text text-anchor="start" x="338" y="-82.4" font-family="Arial" font-size="7.00"> &#160;10</text>
<text text-anchor="start" x="352" y="-65.8" font-family="Arial" font-weight="bold" font-size="14.00">Predict 36.39</text>
<text text-anchor="start" x="378" y="-48.8" font-family="Arial" font-weight="bold" font-size="14.00">n = 1</text>
<text text-anchor="start" x="392.5" y="-30.8" font-family="Arial" font-size="9.00"> </text>
<path fill="none" stroke="#333333" d="M349,-27C349,-27 439,-27 439,-27 445,-27 451,-33 451,-39 451,-39 451,-79 451,-79 451,-85 445,-91 439,-91 439,-91 349,-91 349,-91 343,-91 337,-85 337,-79 337,-79 337,-39 337,-39 337,-33 343,-27 349,-27"/>
<text text-anchor="start" x="392" y="-12.8" font-family="Arial" font-weight="bold" font-size="14.00"> </text>
</g>
<!-- 9&#45;&gt;10 -->
<g id="edge11" class="edge">
<title>9&#45;&gt;10</title>
<path fill="none" stroke="#888888" d="M489.52,-153.67C480.06,-144.39 470.22,-134.75 460.62,-125.33"/>
<polygon fill="#888888" stroke="#888888" points="462.92,-122.68 453.32,-118.18 458.01,-127.68 462.92,-122.68"/>
</g>
<!-- 11 -->
<g id="node13" class="node">
<title>11</title>
<text text-anchor="start" x="533" y="-99.8" font-family="Arial" font-weight="bold" font-size="14.00"> ≥ 7.5</text>
<path fill="#f8766d" fill-opacity="0.376471" stroke="transparent" d="M505,-27C505,-27 595,-27 595,-27 601,-27 607,-33 607,-39 607,-39 607,-79 607,-79 607,-85 601,-91 595,-91 595,-91 505,-91 505,-91 499,-91 493,-85 493,-79 493,-79 493,-39 493,-39 493,-33 499,-27 505,-27"/>
<text text-anchor="start" x="494" y="-88.4" font-family="Arial" font-size="2.00"> </text>
<text text-anchor="start" x="494" y="-82.4" font-family="Arial" font-size="7.00"> &#160;11</text>
<text text-anchor="start" x="508" y="-65.8" font-family="Arial" font-weight="bold" font-size="14.00">Predict 42.26</text>
<text text-anchor="start" x="534" y="-48.8" font-family="Arial" font-weight="bold" font-size="14.00">n = 2</text>
<text text-anchor="start" x="548.5" y="-30.8" font-family="Arial" font-size="9.00"> </text>
<path fill="none" stroke="#333333" d="M505,-27C505,-27 595,-27 595,-27 601,-27 607,-33 607,-39 607,-39 607,-79 607,-79 607,-85 601,-91 595,-91 595,-91 505,-91 505,-91 499,-91 493,-85 493,-79 493,-79 493,-39 493,-39 493,-33 499,-27 505,-27"/>
<text text-anchor="start" x="548" y="-12.8" font-family="Arial" font-weight="bold" font-size="14.00"> </text>
</g>
<!-- 9&#45;&gt;11 -->
<g id="edge12" class="edge">
<title>9&#45;&gt;11</title>
<path fill="none" stroke="#888888" d="M549.38,-153.67C549.44,-145.39 549.49,-136.83 549.55,-128.38"/>
<polygon fill="#888888" stroke="#888888" points="553.05,-128.2 549.62,-118.18 546.05,-128.15 553.05,-128.2"/>
</g>
<!-- 13 -->
<g id="node14" class="node">
<title>13</title>
<text text-anchor="start" x="685" y="-99.8" font-family="Arial" font-weight="bold" font-size="14.00"> &lt; 11.5</text>
<path fill="#f8766d" fill-opacity="0.592157" stroke="transparent" d="M661,-27C661,-27 751,-27 751,-27 757,-27 763,-33 763,-39 763,-39 763,-79 763,-79 763,-85 757,-91 751,-91 751,-91 661,-91 661,-91 655,-91 649,-85 649,-79 649,-79 649,-39 649,-39 649,-33 655,-27 661,-27"/>
<text text-anchor="start" x="650" y="-88.4" font-family="Arial" font-size="2.00"> </text>
<text text-anchor="start" x="650" y="-82.4" font-family="Arial" font-size="7.00"> &#160;13</text>
<text text-anchor="start" x="664" y="-65.8" font-family="Arial" font-weight="bold" font-size="14.00">Predict 34.21</text>
<text text-anchor="start" x="686" y="-48.8" font-family="Arial" font-weight="bold" font-size="14.00">n = 22</text>
<text text-anchor="start" x="704.5" y="-30.8" font-family="Arial" font-size="9.00"> </text>
<path fill="none" stroke="#333333" d="M661,-27C661,-27 751,-27 751,-27 757,-27 763,-33 763,-39 763,-39 763,-79 763,-79 763,-85 757,-91 751,-91 751,-91 661,-91 661,-91 655,-91 649,-85 649,-79 649,-79 649,-39 649,-39 649,-33 655,-27 661,-27"/>
<text text-anchor="start" x="704" y="-12.8" font-family="Arial" font-weight="bold" font-size="14.00"> </text>
</g>
<!-- 12&#45;&gt;13 -->
<g id="edge13" class="edge">
<title>12&#45;&gt;13</title>
<path fill="none" stroke="#888888" d="M706,-153.67C706,-145.39 706,-136.83 706,-128.38"/>
<polygon fill="#888888" stroke="#888888" points="709.5,-128.18 706,-118.18 702.5,-128.18 709.5,-128.18"/>
</g>
<!-- 14 -->
<g id="node15" class="node">
<title>14</title>
<text text-anchor="start" x="841.5" y="-99.8" font-family="Arial" font-weight="bold" font-size="14.00"> ≥ 11.5</text>
<path fill="#f8766d" fill-opacity="0.635294" stroke="transparent" d="M817,-27C817,-27 907,-27 907,-27 913,-27 919,-33 919,-39 919,-39 919,-79 919,-79 919,-85 913,-91 907,-91 907,-91 817,-91 817,-91 811,-91 805,-85 805,-79 805,-79 805,-39 805,-39 805,-33 811,-27 817,-27"/>
<text text-anchor="start" x="806" y="-88.4" font-family="Arial" font-size="2.00"> </text>
<text text-anchor="start" x="806" y="-82.4" font-family="Arial" font-size="7.00"> &#160;14</text>
<text text-anchor="start" x="820" y="-65.8" font-family="Arial" font-weight="bold" font-size="14.00">Predict 32.65</text>
<text text-anchor="start" x="842" y="-48.8" font-family="Arial" font-weight="bold" font-size="14.00">n = 15</text>
<text text-anchor="start" x="860.5" y="-30.8" font-family="Arial" font-size="9.00"> </text>
<path fill="none" stroke="#333333" d="M817,-27C817,-27 907,-27 907,-27 913,-27 919,-33 919,-39 919,-39 919,-79 919,-79 919,-85 913,-91 907,-91 907,-91 817,-91 817,-91 811,-91 805,-85 805,-79 805,-79 805,-39 805,-39 805,-33 811,-27 817,-27"/>
<text text-anchor="start" x="860" y="-12.8" font-family="Arial" font-weight="bold" font-size="14.00"> </text>
</g>
<!-- 12&#45;&gt;14 -->
<g id="edge14" class="edge">
<title>12&#45;&gt;14</title>
<path fill="none" stroke="#888888" d="M765.87,-153.67C775.38,-144.39 785.28,-134.75 794.95,-125.33"/>
<polygon fill="#888888" stroke="#888888" points="797.57,-127.66 802.29,-118.18 792.69,-122.65 797.57,-127.66"/>
</g>
<!-- 18 -->
<g id="node18" class="node">
<title>18</title>
<text text-anchor="start" x="838.5" y="-253.8" font-family="Arial" font-weight="bold" font-size="14.00"> &lt; 20.5</text>
<path fill="#f8766d" fill-opacity="0.678431" stroke="transparent" d="M815,-181C815,-181 905,-181 905,-181 911,-181 917,-187 917,-193 917,-193 917,-233 917,-233 917,-239 911,-245 905,-245 905,-245 815,-245 815,-245 809,-245 803,-239 803,-233 803,-233 803,-193 803,-193 803,-187 809,-181 815,-181"/>
<text text-anchor="start" x="804" y="-242.4" font-family="Arial" font-size="2.00"> </text>
<text text-anchor="start" x="804" y="-236.4" font-family="Arial" font-size="7.00"> &#160;18</text>
<text text-anchor="start" x="818" y="-219.8" font-family="Arial" font-weight="bold" font-size="14.00">Predict 31.09</text>
<text text-anchor="start" x="840" y="-202.8" font-family="Arial" font-weight="bold" font-size="14.00">n = 30</text>
<text text-anchor="start" x="858.5" y="-184.8" font-family="Arial" font-size="9.00"> </text>
<path fill="none" stroke="#333333" d="M815,-181C815,-181 905,-181 905,-181 911,-181 917,-187 917,-193 917,-193 917,-233 917,-233 917,-239 911,-245 905,-245 905,-245 815,-245 815,-245 809,-245 803,-239 803,-233 803,-233 803,-193 803,-193 803,-187 809,-181 815,-181"/>
<text text-anchor="start" x="858" y="-166.8" font-family="Arial" font-weight="bold" font-size="14.00"> </text>
</g>
<!-- 17&#45;&gt;18 -->
<g id="edge17" class="edge">
<title>17&#45;&gt;18</title>
<path fill="none" stroke="#888888" d="M860.62,-307.67C860.56,-299.39 860.51,-290.83 860.45,-282.38"/>
<polygon fill="#888888" stroke="#888888" points="863.95,-282.15 860.38,-272.18 856.95,-282.2 863.95,-282.15"/>
</g>
<!-- 19 -->
<g id="node19" class="node">
<title>19</title>
<text text-anchor="start" x="995" y="-253.8" font-family="Arial" font-weight="bold" font-size="14.00"> ≥ 20.5</text>
<path fill="#f8766d" fill-opacity="0.760784" stroke="transparent" d="M971,-181C971,-181 1061,-181 1061,-181 1067,-181 1073,-187 1073,-193 1073,-193 1073,-233 1073,-233 1073,-239 1067,-245 1061,-245 1061,-245 971,-245 971,-245 965,-245 959,-239 959,-233 959,-233 959,-193 959,-193 959,-187 965,-181 971,-181"/>
<text text-anchor="start" x="960" y="-242.4" font-family="Arial" font-size="2.00"> </text>
<text text-anchor="start" x="960" y="-236.4" font-family="Arial" font-size="7.00"> &#160;19</text>
<text text-anchor="start" x="974" y="-219.8" font-family="Arial" font-weight="bold" font-size="14.00">Predict 28.07</text>
<text text-anchor="start" x="996" y="-202.8" font-family="Arial" font-weight="bold" font-size="14.00">n = 15</text>
<text text-anchor="start" x="1014.5" y="-184.8" font-family="Arial" font-size="9.00"> </text>
<path fill="none" stroke="#333333" d="M971,-181C971,-181 1061,-181 1061,-181 1067,-181 1073,-187 1073,-193 1073,-193 1073,-233 1073,-233 1073,-239 1067,-245 1061,-245 1061,-245 971,-245 971,-245 965,-245 959,-239 959,-233 959,-233 959,-193 959,-193 959,-187 965,-181 971,-181"/>
<text text-anchor="start" x="1014" y="-166.8" font-family="Arial" font-weight="bold" font-size="14.00"> </text>
</g>
<!-- 17&#45;&gt;19 -->
<g id="edge18" class="edge">
<title>17&#45;&gt;19</title>
<path fill="none" stroke="#888888" d="M920.48,-307.67C929.94,-298.39 939.78,-288.75 949.38,-279.33"/>
<polygon fill="#888888" stroke="#888888" points="951.99,-281.68 956.68,-272.18 947.08,-276.68 951.99,-281.68"/>
</g>
</g>
</svg>
