<?xml version="1.0" encoding="UTF-8" standalone="no"?>
<!DOCTYPE svg PUBLIC "-//W3C//DTD SVG 1.1//EN"
 "http://www.w3.org/Graphics/SVG/1.1/DTD/svg11.dtd">
<!-- Generated by graphviz version 2.50.0 (20211204.2007)
 -->
<!-- Pages: 1 -->
<svg width="854pt" height="896pt"
 viewBox="0.00 0.00 854.00 896.00" xmlns="http://www.w3.org/2000/svg" xmlns:xlink="http://www.w3.org/1999/xlink">
<g id="graph0" class="graph" transform="scale(1 1) rotate(0) translate(4 892)">
<polygon fill="white" stroke="transparent" points="-4,4 -4,-892 850,-892 850,4 -4,4"/>
<!-- 1 -->
<g id="node1" class="node">
<title>1</title>
<text text-anchor="start" x="301" y="-869.8" font-family="Arial" font-weight="bold" font-size="14.00"> </text>
<path fill="#ebebeb" stroke="transparent" d="M261,-797C261,-797 345,-797 345,-797 351,-797 357,-803 357,-809 357,-809 357,-849 357,-849 357,-855 351,-861 345,-861 345,-861 261,-861 261,-861 255,-861 249,-855 249,-849 249,-849 249,-809 249,-809 249,-803 255,-797 261,-797"/>
<text text-anchor="start" x="250" y="-858.4" font-family="Arial" font-size="2.00"> </text>
<text text-anchor="start" x="250" y="-852.4" font-family="Arial" font-size="7.00"> &#160;1</text>
<text text-anchor="start" x="264" y="-835.8" font-family="Arial" font-weight="bold" font-size="14.00">Mean: 21.63</text>
<text text-anchor="start" x="279.5" y="-818.8" font-family="Arial" font-weight="bold" font-size="14.00">n = 168</text>
<text text-anchor="start" x="301.5" y="-800.8" font-family="Arial" font-size="9.00"> </text>
<path fill="none" stroke="#333333" d="M261,-797C261,-797 345,-797 345,-797 351,-797 357,-803 357,-809 357,-809 357,-849 357,-849 357,-855 351,-861 345,-861 345,-861 261,-861 261,-861 255,-861 249,-855 249,-849 249,-849 249,-809 249,-809 249,-803 255,-797 261,-797"/>
<text text-anchor="start" x="273.5" y="-782.8" font-family="Arial" font-weight="bold" font-size="14.00">day_type</text>
</g>
<!-- 2 -->
<g id="node2" class="node">
<title>2</title>
<text text-anchor="start" x="204.5" y="-715.8" font-family="Arial" font-weight="bold" font-size="14.00"> &lt; 0.5</text>
<text text-anchor="start" x="154" y="-671.3" font-family="Arial" font-size="14.00"> &#160;&#160;</text>
<path fill="#ebebeb" stroke="transparent" d="M180,-643C180,-643 264,-643 264,-643 270,-643 276,-649 276,-655 276,-655 276,-695 276,-695 276,-701 270,-707 264,-707 264,-707 180,-707 180,-707 174,-707 168,-701 168,-695 168,-695 168,-655 168,-655 168,-649 174,-643 180,-643"/>
<text text-anchor="start" x="169" y="-704.4" font-family="Arial" font-size="2.00"> </text>
<text text-anchor="start" x="169" y="-698.4" font-family="Arial" font-size="7.00"> &#160;2</text>
<text text-anchor="start" x="183" y="-681.8" font-family="Arial" font-weight="bold" font-size="14.00">Mean: 19.24</text>
<text text-anchor="start" x="202" y="-664.8" font-family="Arial" font-weight="bold" font-size="14.00">n = 48</text>
<text text-anchor="start" x="220.5" y="-646.8" font-family="Arial" font-size="9.00"> </text>
<path fill="none" stroke="#333333" d="M180,-643C180,-643 264,-643 264,-643 270,-643 276,-649 276,-655 276,-655 276,-695 276,-695 276,-701 270,-707 264,-707 264,-707 180,-707 180,-707 174,-707 168,-701 168,-695 168,-695 168,-655 168,-655 168,-649 174,-643 180,-643"/>
<text text-anchor="start" x="278" y="-671.3" font-family="Arial" font-size="14.00"> &#160;&#160;</text>
<text text-anchor="start" x="168.5" y="-628.8" font-family="Arial" font-weight="bold" font-size="14.00">prev_24h_inflow</text>
</g>
<!-- 1&#45;&gt;2 -->
<g id="edge1" class="edge">
<title>1&#45;&gt;2</title>
<path fill="none" stroke="#888888" d="M271.91,-769.67C267.31,-761.03 262.54,-752.07 257.85,-743.27"/>
<polygon fill="#888888" stroke="#888888" points="260.79,-741.36 253,-734.18 254.62,-744.65 260.79,-741.36"/>
</g>
<!-- 5 -->
<g id="node3" class="node">
<title>5</title>
<text text-anchor="start" x="367" y="-715.8" font-family="Arial" font-weight="bold" font-size="14.00"> ≥ 0.5</text>
<path fill="#ebebeb" stroke="transparent" d="M342,-643C342,-643 426,-643 426,-643 432,-643 438,-649 438,-655 438,-655 438,-695 438,-695 438,-701 432,-707 426,-707 426,-707 342,-707 342,-707 336,-707 330,-701 330,-695 330,-695 330,-655 330,-655 330,-649 336,-643 342,-643"/>
<text text-anchor="start" x="331" y="-704.4" font-family="Arial" font-size="2.00"> </text>
<text text-anchor="start" x="331" y="-698.4" font-family="Arial" font-size="7.00"> &#160;5</text>
<text text-anchor="start" x="345" y="-681.8" font-family="Arial" font-weight="bold" font-size="14.00">Mean: 22.59</text>
<text text-anchor="start" x="360.5" y="-664.8" font-family="Arial" font-weight="bold" font-size="14.00">n = 120</text>
<text text-anchor="start" x="382.5" y="-646.8" font-family="Arial" font-size="9.00"> </text>
<path fill="none" stroke="#333333" d="M342,-643C342,-643 426,-643 426,-643 432,-643 438,-649 438,-655 438,-655 438,-695 438,-695 438,-701 432,-707 426,-707 426,-707 342,-707 342,-707 336,-707 330,-701 330,-695 330,-695 330,-655 330,-655 330,-649 336,-643 342,-643"/>
<text text-anchor="start" x="369.5" y="-628.8" font-family="Arial" font-weight="bold" font-size="14.00">time</text>
</g>
<!-- 1&#45;&gt;5 -->
<g id="edge2" class="edge">
<title>1&#45;&gt;5</title>
<path fill="none" stroke="#888888" d="M334.09,-769.67C338.69,-761.03 343.46,-752.07 348.15,-743.27"/>
<polygon fill="#888888" stroke="#888888" points="351.38,-744.65 353,-734.18 345.21,-741.36 351.38,-744.65"/>
</g>
<!-- 3 -->
<g id="node4" class="node">
<title>3</title>
<text text-anchor="start" x="44" y="-561.8" font-family="Arial" font-weight="bold" font-size="14.00"> &lt; 22.78</text>
<path fill="#f8766d" fill-opacity="0.874510" stroke="transparent" d="M24,-489C24,-489 114,-489 114,-489 120,-489 126,-495 126,-501 126,-501 126,-541 126,-541 126,-547 120,-553 114,-553 114,-553 24,-553 24,-553 18,-553 12,-547 12,-541 12,-541 12,-501 12,-501 12,-495 18,-489 24,-489"/>
<text text-anchor="start" x="13" y="-550.4" font-family="Arial" font-size="2.00"> </text>
<text text-anchor="start" x="13" y="-544.4" font-family="Arial" font-size="7.00"> &#160;3</text>
<text text-anchor="start" x="27" y="-527.8" font-family="Arial" font-weight="bold" font-size="14.00">Predict 18.92</text>
<text text-anchor="start" x="49" y="-510.8" font-family="Arial" font-weight="bold" font-size="14.00">n = 38</text>
<text text-anchor="start" x="67.5" y="-492.8" font-family="Arial" font-size="9.00"> </text>
<path fill="none" stroke="#333333" d="M24,-489C24,-489 114,-489 114,-489 120,-489 126,-495 126,-501 126,-501 126,-541 126,-541 126,-547 120,-553 114,-553 114,-553 24,-553 24,-553 18,-553 12,-547 12,-541 12,-541 12,-501 12,-501 12,-495 18,-489 24,-489"/>
<text text-anchor="start" x="67" y="-474.8" font-family="Arial" font-weight="bold" font-size="14.00"> </text>
</g>
<!-- 2&#45;&gt;3 -->
<g id="edge3" class="edge">
<title>2&#45;&gt;3</title>
<path fill="none" stroke="#888888" d="M163.28,-615.67C153.95,-606.39 144.24,-596.75 134.76,-587.33"/>
<polygon fill="#888888" stroke="#888888" points="137.12,-584.74 127.56,-580.18 132.19,-589.71 137.12,-584.74"/>
</g>
<!-- 4 -->
<g id="node5" class="node">
<title>4</title>
<text text-anchor="start" x="200.5" y="-561.8" font-family="Arial" font-weight="bold" font-size="14.00"> ≥ 22.78</text>
<path fill="#f8766d" fill-opacity="0.819608" stroke="transparent" d="M180,-489C180,-489 270,-489 270,-489 276,-489 282,-495 282,-501 282,-501 282,-541 282,-541 282,-547 276,-553 270,-553 270,-553 180,-553 180,-553 174,-553 168,-547 168,-541 168,-541 168,-501 168,-501 168,-495 174,-489 180,-489"/>
<text text-anchor="start" x="169" y="-550.4" font-family="Arial" font-size="2.00"> </text>
<text text-anchor="start" x="169" y="-544.4" font-family="Arial" font-size="7.00"> &#160;4</text>
<text text-anchor="start" x="183" y="-527.8" font-family="Arial" font-weight="bold" font-size="14.00">Predict 20.44</text>
<text text-anchor="start" x="205" y="-510.8" font-family="Arial" font-weight="bold" font-size="14.00">n = 10</text>
<text text-anchor="start" x="223.5" y="-492.8" font-family="Arial" font-size="9.00"> </text>
<path fill="none" stroke="#333333" d="M180,-489C180,-489 270,-489 270,-489 276,-489 282,-495 282,-501 282,-501 282,-541 282,-541 282,-547 276,-553 270,-553 270,-553 180,-553 180,-553 174,-553 168,-547 168,-541 168,-541 168,-501 168,-501 168,-495 174,-489 180,-489"/>
<text text-anchor="start" x="223" y="-474.8" font-family="Arial" font-weight="bold" font-size="14.00"> </text>
</g>
<!-- 2&#45;&gt;4 -->
<g id="edge4" class="edge">
<title>2&#45;&gt;4</title>
<path fill="none" stroke="#888888" d="M223.15,-615.67C223.31,-607.39 223.48,-598.83 223.65,-590.38"/>
<polygon fill="#888888" stroke="#888888" points="227.15,-590.24 223.85,-580.18 220.16,-590.11 227.15,-590.24"/>
</g>
<!-- 6 -->
<g id="node6" class="node">
<title>6</title>
<text text-anchor="start" x="360.5" y="-561.8" font-family="Arial" font-weight="bold" font-size="14.00"> &lt; 15.5</text>
<path fill="#ebebeb" stroke="transparent" d="M340,-489C340,-489 424,-489 424,-489 430,-489 436,-495 436,-501 436,-501 436,-541 436,-541 436,-547 430,-553 424,-553 424,-553 340,-553 340,-553 334,-553 328,-547 328,-541 328,-541 328,-501 328,-501 328,-495 334,-489 340,-489"/>
<text text-anchor="start" x="329" y="-550.4" font-family="Arial" font-size="2.00"> </text>
<text text-anchor="start" x="329" y="-544.4" font-family="Arial" font-size="7.00"> &#160;6</text>
<text text-anchor="start" x="343" y="-527.8" font-family="Arial" font-weight="bold" font-size="14.00">Mean: 22.78</text>
<text text-anchor="start" x="362" y="-510.8" font-family="Arial" font-weight="bold" font-size="14.00">n = 80</text>
<text text-anchor="start" x="380.5" y="-492.8" font-family="Arial" font-size="9.00"> </text>
<path fill="none" stroke="#333333" d="M340,-489C340,-489 424,-489 424,-489 430,-489 436,-495 436,-501 436,-501 436,-541 436,-541 436,-547 430,-553 424,-553 424,-553 340,-553 340,-553 334,-553 328,-547 328,-541 328,-541 328,-501 328,-501 328,-495 334,-489 340,-489"/>
<text text-anchor="start" x="367.5" y="-474.8" font-family="Arial" font-weight="bold" font-size="14.00">time</text>
</g>
<!-- 5&#45;&gt;6 -->
<g id="edge5" class="edge">
<title>5&#45;&gt;6</title>
<path fill="none" stroke="#888888" d="M383.23,-615.67C383.12,-607.39 383.01,-598.83 382.9,-590.38"/>
<polygon fill="#888888" stroke="#888888" points="386.4,-590.13 382.77,-580.18 379.4,-590.22 386.4,-590.13"/>
</g>
<!-- 17 -->
<g id="node7" class="node">
<title>17</title>
<text text-anchor="start" x="510" y="-561.8" font-family="Arial" font-weight="bold" font-size="14.00"> ≥ 15.5</text>
<path fill="#f8766d" fill-opacity="0.756863" stroke="transparent" d="M490,-489C490,-489 572,-489 572,-489 578,-489 584,-495 584,-501 584,-501 584,-541 584,-541 584,-547 578,-553 572,-553 572,-553 490,-553 490,-553 484,-553 478,-547 478,-541 478,-541 478,-501 478,-501 478,-495 484,-489 490,-489"/>
<text text-anchor="start" x="479" y="-550.4" font-family="Arial" font-size="2.00"> </text>
<text text-anchor="start" x="479" y="-544.4" font-family="Arial" font-size="7.00"> &#160;17</text>
<text text-anchor="start" x="493" y="-527.8" font-family="Arial" font-weight="bold" font-size="14.00">Predict 22.2</text>
<text text-anchor="start" x="511" y="-510.8" font-family="Arial" font-weight="bold" font-size="14.00">n = 40</text>
<text text-anchor="start" x="529.5" y="-492.8" font-family="Arial" font-size="9.00"> </text>
<path fill="none" stroke="#333333" d="M490,-489C490,-489 572,-489 572,-489 578,-489 584,-495 584,-501 584,-501 584,-541 584,-541 584,-547 578,-553 572,-553 572,-553 490,-553 490,-553 484,-553 478,-547 478,-541 478,-541 478,-501 478,-501 478,-495 484,-489 490,-489"/>
<text text-anchor="start" x="529" y="-474.8" font-family="Arial" font-weight="bold" font-size="14.00"> </text>
</g>
<!-- 5&#45;&gt;17 -->
<g id="edge6" class="edge">
<title>5&#45;&gt;17</title>
<path fill="none" stroke="#888888" d="M440.41,-615.67C449.29,-606.49 458.53,-596.94 467.55,-587.6"/>
<polygon fill="#888888" stroke="#888888" points="470.3,-589.8 474.74,-580.18 465.27,-584.93 470.3,-589.8"/>
</g>
<!-- 7 -->
<g id="node8" class="node">
<title>7</title>
<text text-anchor="start" x="279.5" y="-407.8" font-family="Arial" font-weight="bold" font-size="14.00"> &lt; 6.5</text>
<text text-anchor="start" x="229" y="-363.3" font-family="Arial" font-size="14.00"> &#160;&#160;</text>
<path fill="#ebebeb" stroke="transparent" d="M255,-335C255,-335 339,-335 339,-335 345,-335 351,-341 351,-347 351,-347 351,-387 351,-387 351,-393 345,-399 339,-399 339,-399 255,-399 255,-399 249,-399 243,-393 243,-387 243,-387 243,-347 243,-347 243,-341 249,-335 255,-335"/>
<text text-anchor="start" x="244" y="-396.4" font-family="Arial" font-size="2.00"> </text>
<text text-anchor="start" x="244" y="-390.4" font-family="Arial" font-size="7.00"> &#160;7</text>
<text text-anchor="start" x="258" y="-373.8" font-family="Arial" font-weight="bold" font-size="14.00">Mean: 19.92</text>
<text text-anchor="start" x="277" y="-356.8" font-family="Arial" font-weight="bold" font-size="14.00">n = 35</text>
<text text-anchor="start" x="295.5" y="-338.8" font-family="Arial" font-size="9.00"> </text>
<path fill="none" stroke="#333333" d="M255,-335C255,-335 339,-335 339,-335 345,-335 351,-341 351,-347 351,-347 351,-387 351,-387 351,-393 345,-399 339,-399 339,-399 255,-399 255,-399 249,-399 243,-393 243,-387 243,-387 243,-347 243,-347 243,-341 249,-335 255,-335"/>
<text text-anchor="start" x="353" y="-363.3" font-family="Arial" font-size="14.00"> &#160;&#160;</text>
<text text-anchor="start" x="243.5" y="-320.8" font-family="Arial" font-weight="bold" font-size="14.00">prev_24h_inflow</text>
</g>
<!-- 6&#45;&gt;7 -->
<g id="edge7" class="edge">
<title>6&#45;&gt;7</title>
<path fill="none" stroke="#888888" d="M349.38,-461.67C344.5,-452.94 339.43,-443.88 334.46,-434.99"/>
<polygon fill="#888888" stroke="#888888" points="337.47,-433.2 329.53,-426.18 331.36,-436.61 337.47,-433.2"/>
</g>
<!-- 10 -->
<g id="node9" class="node">
<title>10</title>
<text text-anchor="start" x="449" y="-407.8" font-family="Arial" font-weight="bold" font-size="14.00"> ≥ 6.5</text>
<path fill="#ebebeb" stroke="transparent" d="M424,-335C424,-335 508,-335 508,-335 514,-335 520,-341 520,-347 520,-347 520,-387 520,-387 520,-393 514,-399 508,-399 508,-399 424,-399 424,-399 418,-399 412,-393 412,-387 412,-387 412,-347 412,-347 412,-341 418,-335 424,-335"/>
<text text-anchor="start" x="413" y="-396.4" font-family="Arial" font-size="2.00"> </text>
<text text-anchor="start" x="413" y="-390.4" font-family="Arial" font-size="7.00"> &#160;10</text>
<text text-anchor="start" x="427" y="-373.8" font-family="Arial" font-weight="bold" font-size="14.00">Mean: 25.01</text>
<text text-anchor="start" x="446" y="-356.8" font-family="Arial" font-weight="bold" font-size="14.00">n = 45</text>
<text text-anchor="start" x="464.5" y="-338.8" font-family="Arial" font-size="9.00"> </text>
<path fill="none" stroke="#333333" d="M424,-335C424,-335 508,-335 508,-335 514,-335 520,-341 520,-347 520,-347 520,-387 520,-387 520,-393 514,-399 508,-399 508,-399 424,-399 424,-399 418,-399 412,-393 412,-387 412,-387 412,-347 412,-347 412,-341 418,-335 424,-335"/>
<text text-anchor="start" x="437" y="-320.8" font-family="Arial" font-weight="bold" font-size="14.00">air_temp</text>
</g>
<!-- 6&#45;&gt;10 -->
<g id="edge8" class="edge">
<title>6&#45;&gt;10</title>
<path fill="none" stroke="#888888" d="M414.24,-461.67C419.06,-452.94 424.06,-443.88 428.98,-434.99"/>
<polygon fill="#888888" stroke="#888888" points="432.08,-436.62 433.85,-426.18 425.95,-433.24 432.08,-436.62"/>
</g>
<!-- 8 -->
<g id="node10" class="node">
<title>8</title>
<text text-anchor="start" x="116" y="-253.8" font-family="Arial" font-weight="bold" font-size="14.00"> &lt; 19.78</text>
<path fill="#f8766d" fill-opacity="0.858824" stroke="transparent" d="M96,-181C96,-181 186,-181 186,-181 192,-181 198,-187 198,-193 198,-193 198,-233 198,-233 198,-239 192,-245 186,-245 186,-245 96,-245 96,-245 90,-245 84,-239 84,-233 84,-233 84,-193 84,-193 84,-187 90,-181 96,-181"/>
<text text-anchor="start" x="85" y="-242.4" font-family="Arial" font-size="2.00"> </text>
<text text-anchor="start" x="85" y="-236.4" font-family="Arial" font-size="7.00"> &#160;8</text>
<text text-anchor="start" x="99" y="-219.8" font-family="Arial" font-weight="bold" font-size="14.00">Predict 19.39</text>
<text text-anchor="start" x="121" y="-202.8" font-family="Arial" font-weight="bold" font-size="14.00">n = 21</text>
<text text-anchor="start" x="139.5" y="-184.8" font-family="Arial" font-size="9.00"> </text>
<path fill="none" stroke="#333333" d="M96,-181C96,-181 186,-181 186,-181 192,-181 198,-187 198,-193 198,-193 198,-233 198,-233 198,-239 192,-245 186,-245 186,-245 96,-245 96,-245 90,-245 84,-239 84,-233 84,-233 84,-193 84,-193 84,-187 90,-181 96,-181"/>
<text text-anchor="start" x="139" y="-166.8" font-family="Arial" font-weight="bold" font-size="14.00"> </text>
</g>
<!-- 7&#45;&gt;8 -->
<g id="edge9" class="edge">
<title>7&#45;&gt;8</title>
<path fill="none" stroke="#888888" d="M237.13,-307.67C227.62,-298.39 217.72,-288.75 208.05,-279.33"/>
<polygon fill="#888888" stroke="#888888" points="210.31,-276.65 200.71,-272.18 205.43,-281.66 210.31,-276.65"/>
</g>
<!-- 9 -->
<g id="node11" class="node">
<title>9</title>
<text text-anchor="start" x="272.5" y="-253.8" font-family="Arial" font-weight="bold" font-size="14.00"> ≥ 19.78</text>
<path fill="#f8766d" fill-opacity="0.811765" stroke="transparent" d="M252,-181C252,-181 342,-181 342,-181 348,-181 354,-187 354,-193 354,-193 354,-233 354,-233 354,-239 348,-245 342,-245 342,-245 252,-245 252,-245 246,-245 240,-239 240,-233 240,-233 240,-193 240,-193 240,-187 246,-181 252,-181"/>
<text text-anchor="start" x="241" y="-242.4" font-family="Arial" font-size="2.00"> </text>
<text text-anchor="start" x="241" y="-236.4" font-family="Arial" font-size="7.00"> &#160;9</text>
<text text-anchor="start" x="255" y="-219.8" font-family="Arial" font-weight="bold" font-size="14.00">Predict 20.72</text>
<text text-anchor="start" x="277" y="-202.8" font-family="Arial" font-weight="bold" font-size="14.00">n = 14</text>
<text text-anchor="start" x="295.5" y="-184.8" font-family="Arial" font-size="9.00"> </text>
<path fill="none" stroke="#333333" d="M252,-181C252,-181 342,-181 342,-181 348,-181 354,-187 354,-193 354,-193 354,-233 354,-233 354,-239 348,-245 342,-245 342,-245 252,-245 252,-245 246,-245 240,-239 240,-233 240,-233 240,-193 240,-193 240,-187 246,-181 252,-181"/>
<text text-anchor="start" x="295" y="-166.8" font-family="Arial" font-weight="bold" font-size="14.00"> </text>
</g>
<!-- 7&#45;&gt;9 -->
<g id="edge10" class="edge">
<title>7&#45;&gt;9</title>
<path fill="none" stroke="#888888" d="M297,-307.67C297,-299.39 297,-290.83 297,-282.38"/>
<polygon fill="#888888" stroke="#888888" points="300.5,-282.18 297,-272.18 293.5,-282.18 300.5,-282.18"/>
</g>
<!-- 11 -->
<g id="node12" class="node">
<title>11</title>
<text text-anchor="start" x="441" y="-253.8" font-family="Arial" font-weight="bold" font-size="14.00"> &lt; 22.25</text>
<text text-anchor="start" x="394" y="-209.3" font-family="Arial" font-size="14.00"> &#160;&#160;&#160;</text>
<path fill="#ebebeb" stroke="transparent" d="M424,-181C424,-181 508,-181 508,-181 514,-181 520,-187 520,-193 520,-193 520,-233 520,-233 520,-239 514,-245 508,-245 508,-245 424,-245 424,-245 418,-245 412,-239 412,-233 412,-233 412,-193 412,-193 412,-187 418,-181 424,-181"/>
<text text-anchor="start" x="413" y="-242.4" font-family="Arial" font-size="2.00"> </text>
<text text-anchor="start" x="413" y="-236.4" font-family="Arial" font-size="7.00"> &#160;11</text>
<text text-anchor="start" x="427" y="-219.8" font-family="Arial" font-weight="bold" font-size="14.00">Mean: 29.47</text>
<text text-anchor="start" x="450" y="-202.8" font-family="Arial" font-weight="bold" font-size="14.00">n = 3</text>
<text text-anchor="start" x="464.5" y="-184.8" font-family="Arial" font-size="9.00"> </text>
<path fill="none" stroke="#333333" d="M424,-181C424,-181 508,-181 508,-181 514,-181 520,-187 520,-193 520,-193 520,-233 520,-233 520,-239 514,-245 508,-245 508,-245 424,-245 424,-245 418,-245 412,-239 412,-233 412,-233 412,-193 412,-193 412,-187 418,-181 424,-181"/>
<text text-anchor="start" x="522" y="-209.3" font-family="Arial" font-size="14.00"> &#160;&#160;&#160;</text>
<text text-anchor="start" x="408.5" y="-166.8" font-family="Arial" font-weight="bold" font-size="14.00">prev_168h_inflow</text>
</g>
<!-- 10&#45;&gt;11 -->
<g id="edge11" class="edge">
<title>10&#45;&gt;11</title>
<path fill="none" stroke="#888888" d="M466,-307.67C466,-299.39 466,-290.83 466,-282.38"/>
<polygon fill="#888888" stroke="#888888" points="469.5,-282.18 466,-272.18 462.5,-282.18 469.5,-282.18"/>
</g>
<!-- 14 -->
<g id="node13" class="node">
<title>14</title>
<text text-anchor="start" x="607.5" y="-253.8" font-family="Arial" font-weight="bold" font-size="14.00"> ≥ 22.25</text>
<path fill="#ebebeb" stroke="transparent" d="M590,-181C590,-181 674,-181 674,-181 680,-181 686,-187 686,-193 686,-193 686,-233 686,-233 686,-239 680,-245 674,-245 674,-245 590,-245 590,-245 584,-245 578,-239 578,-233 578,-233 578,-193 578,-193 578,-187 584,-181 590,-181"/>
<text text-anchor="start" x="579" y="-242.4" font-family="Arial" font-size="2.00"> </text>
<text text-anchor="start" x="579" y="-236.4" font-family="Arial" font-size="7.00"> &#160;14</text>
<text text-anchor="start" x="593" y="-219.8" font-family="Arial" font-weight="bold" font-size="14.00">Mean: 24.69</text>
<text text-anchor="start" x="612" y="-202.8" font-family="Arial" font-weight="bold" font-size="14.00">n = 42</text>
<text text-anchor="start" x="630.5" y="-184.8" font-family="Arial" font-size="9.00"> </text>
<path fill="none" stroke="#333333" d="M590,-181C590,-181 674,-181 674,-181 680,-181 686,-187 686,-193 686,-193 686,-233 686,-233 686,-239 680,-245 674,-245 674,-245 590,-245 590,-245 584,-245 578,-239 578,-233 578,-233 578,-193 578,-193 578,-187 584,-181 590,-181"/>
<text text-anchor="start" x="617.5" y="-166.8" font-family="Arial" font-weight="bold" font-size="14.00">time</text>
</g>
<!-- 10&#45;&gt;14 -->
<g id="edge12" class="edge">
<title>10&#45;&gt;14</title>
<path fill="none" stroke="#888888" d="M529.71,-307.67C539.93,-298.3 550.57,-288.56 560.96,-279.05"/>
<polygon fill="#888888" stroke="#888888" points="563.45,-281.51 568.47,-272.18 558.73,-276.35 563.45,-281.51"/>
</g>
<!-- 12 -->
<g id="node14" class="node">
<title>12</title>
<text text-anchor="start" x="287" y="-99.8" font-family="Arial" font-weight="bold" font-size="14.00"> &lt; 25.43</text>
<path fill="#f8766d" fill-opacity="0.556863" stroke="transparent" d="M267,-27C267,-27 357,-27 357,-27 363,-27 369,-33 369,-39 369,-39 369,-79 369,-79 369,-85 363,-91 357,-91 357,-91 267,-91 267,-91 261,-91 255,-85 255,-79 255,-79 255,-39 255,-39 255,-33 261,-27 267,-27"/>
<text text-anchor="start" x="256" y="-88.4" font-family="Arial" font-size="2.00"> </text>
<text text-anchor="start" x="256" y="-82.4" font-family="Arial" font-size="7.00"> &#160;12</text>
<text text-anchor="start" x="270" y="-65.8" font-family="Arial" font-weight="bold" font-size="14.00">Predict 27.77</text>
<text text-anchor="start" x="296" y="-48.8" font-family="Arial" font-weight="bold" font-size="14.00">n = 2</text>
<text text-anchor="start" x="310.5" y="-30.8" font-family="Arial" font-size="9.00"> </text>
<path fill="none" stroke="#333333" d="M267,-27C267,-27 357,-27 357,-27 363,-27 369,-33 369,-39 369,-39 369,-79 369,-79 369,-85 363,-91 357,-91 357,-91 267,-91 267,-91 261,-91 255,-85 255,-79 255,-79 255,-39 255,-39 255,-33 261,-27 267,-27"/>
<text text-anchor="start" x="310" y="-12.8" font-family="Arial" font-weight="bold" font-size="14.00"> </text>
</g>
<!-- 11&#45;&gt;12 -->
<g id="edge13" class="edge">
<title>11&#45;&gt;12</title>
<path fill="none" stroke="#888888" d="M406.9,-153.67C397.5,-144.39 387.73,-134.75 378.19,-125.33"/>
<polygon fill="#888888" stroke="#888888" points="380.52,-122.71 370.94,-118.18 375.6,-127.69 380.52,-122.71"/>
</g>
<!-- 13 -->
<g id="node15" class="node">
<title>13</title>
<text text-anchor="start" x="443.5" y="-99.8" font-family="Arial" font-weight="bold" font-size="14.00"> ≥ 25.43</text>
<path fill="#f8766d" fill-opacity="0.376471" stroke="transparent" d="M423,-27C423,-27 513,-27 513,-27 519,-27 525,-33 525,-39 525,-39 525,-79 525,-79 525,-85 519,-91 513,-91 513,-91 423,-91 423,-91 417,-91 411,-85 411,-79 411,-79 411,-39 411,-39 411,-33 417,-27 423,-27"/>
<text text-anchor="start" x="412" y="-88.4" font-family="Arial" font-size="2.00"> </text>
<text text-anchor="start" x="412" y="-82.4" font-family="Arial" font-size="7.00"> &#160;13</text>
<text text-anchor="start" x="426" y="-65.8" font-family="Arial" font-weight="bold" font-size="14.00">Predict 32.87</text>
<text text-anchor="start" x="452" y="-48.8" font-family="Arial" font-weight="bold" font-size="14.00">n = 1</text>
<text text-anchor="start" x="466.5" y="-30.8" font-family="Arial" font-size="9.00"> </text>
<path fill="none" stroke="#333333" d="M423,-27C423,-27 513,-27 513,-27 519,-27 525,-33 525,-39 525,-39 525,-79 525,-79 525,-85 519,-91 513,-91 513,-91 423,-91 423,-91 417,-91 411,-85 411,-79 411,-79 411,-39 411,-39 411,-33 417,-27 423,-27"/>
<text text-anchor="start" x="466" y="-12.8" font-family="Arial" font-weight="bold" font-size="14.00"> </text>
</g>
<!-- 11&#45;&gt;13 -->
<g id="edge14" class="edge">
<title>11&#45;&gt;13</title>
<path fill="none" stroke="#888888" d="M466.77,-153.67C466.88,-145.39 466.99,-136.83 467.1,-128.38"/>
<polygon fill="#888888" stroke="#888888" points="470.6,-128.22 467.23,-118.18 463.6,-128.13 470.6,-128.22"/>
</g>
<!-- 15 -->
<g id="node16" class="node">
<title>15</title>
<text text-anchor="start" x="611.5" y="-99.8" font-family="Arial" font-weight="bold" font-size="14.00"> &lt; 7.5</text>
<path fill="#f8766d" fill-opacity="0.741176" stroke="transparent" d="M584,-27C584,-27 674,-27 674,-27 680,-27 686,-33 686,-39 686,-39 686,-79 686,-79 686,-85 680,-91 674,-91 674,-91 584,-91 584,-91 578,-91 572,-85 572,-79 572,-79 572,-39 572,-39 572,-33 578,-27 584,-27"/>
<text text-anchor="start" x="573" y="-88.4" font-family="Arial" font-size="2.00"> </text>
<text text-anchor="start" x="573" y="-82.4" font-family="Arial" font-size="7.00"> &#160;15</text>
<text text-anchor="start" x="587" y="-65.8" font-family="Arial" font-weight="bold" font-size="14.00">Predict 22.65</text>
<text text-anchor="start" x="613" y="-48.8" font-family="Arial" font-weight="bold" font-size="14.00">n = 4</text>
<text text-anchor="start" x="627.5" y="-30.8" font-family="Arial" font-size="9.00"> </text>
<path fill="none" stroke="#333333" d="M584,-27C584,-27 674,-27 674,-27 680,-27 686,-33 686,-39 686,-39 686,-79 686,-79 686,-85 680,-91 674,-91 674,-91 584,-91 584,-91 578,-91 572,-85 572,-79 572,-79 572,-39 572,-39 572,-33 578,-27 584,-27"/>
<text text-anchor="start" x="627" y="-12.8" font-family="Arial" font-weight="bold" font-size="14.00"> </text>
</g>
<!-- 14&#45;&gt;15 -->
<g id="edge15" class="edge">
<title>14&#45;&gt;15</title>
<path fill="none" stroke="#888888" d="M630.85,-153.67C630.69,-145.39 630.52,-136.83 630.35,-128.38"/>
<polygon fill="#888888" stroke="#888888" points="633.84,-128.11 630.15,-118.18 626.85,-128.24 633.84,-128.11"/>
</g>
<!-- 16 -->
<g id="node17" class="node">
<title>16</title>
<text text-anchor="start" x="764" y="-99.8" font-family="Arial" font-weight="bold" font-size="14.00"> ≥ 7.5</text>
<path fill="#f8766d" fill-opacity="0.658824" stroke="transparent" d="M740,-27C740,-27 822,-27 822,-27 828,-27 834,-33 834,-39 834,-39 834,-79 834,-79 834,-85 828,-91 822,-91 822,-91 740,-91 740,-91 734,-91 728,-85 728,-79 728,-79 728,-39 728,-39 728,-33 734,-27 740,-27"/>
<text text-anchor="start" x="729" y="-88.4" font-family="Arial" font-size="2.00"> </text>
<text text-anchor="start" x="729" y="-82.4" font-family="Arial" font-size="7.00"> &#160;16</text>
<text text-anchor="start" x="743" y="-65.8" font-family="Arial" font-weight="bold" font-size="14.00">Predict 24.9</text>
<text text-anchor="start" x="761" y="-48.8" font-family="Arial" font-weight="bold" font-size="14.00">n = 38</text>
<text text-anchor="start" x="779.5" y="-30.8" font-family="Arial" font-size="9.00"> </text>
<path fill="none" stroke="#333333" d="M740,-27C740,-27 822,-27 822,-27 828,-27 834,-33 834,-39 834,-39 834,-79 834,-79 834,-85 828,-91 822,-91 822,-91 740,-91 740,-91 734,-91 728,-85 728,-79 728,-79 728,-39 728,-39 728,-33 734,-27 740,-27"/>
<text text-anchor="start" x="779" y="-12.8" font-family="Arial" font-weight="bold" font-size="14.00"> </text>
</g>
<!-- 14&#45;&gt;16 -->
<g id="edge16" class="edge">
<title>14&#45;&gt;16</title>
<path fill="none" stroke="#888888" d="M689.18,-153.67C698.27,-144.39 707.73,-134.75 716.96,-125.33"/>
<polygon fill="#888888" stroke="#888888" points="719.47,-127.77 723.97,-118.18 714.47,-122.87 719.47,-127.77"/>
</g>
</g>
</svg>
