<?xml version="1.0" encoding="UTF-8" standalone="no"?>
<!DOCTYPE svg PUBLIC "-//W3C//DTD SVG 1.1//EN"
 "http://www.w3.org/Graphics/SVG/1.1/DTD/svg11.dtd">
<!-- Generated by graphviz version 2.50.0 (20211204.2007)
 -->
<!-- Pages: 1 -->
<svg width="2444pt" height="742pt"
 viewBox="0.00 0.00 2443.50 742.00" xmlns="http://www.w3.org/2000/svg" xmlns:xlink="http://www.w3.org/1999/xlink">
<g id="graph0" class="graph" transform="scale(1 1) rotate(0) translate(4 738)">
<polygon fill="white" stroke="transparent" points="-4,4 -4,-738 2439.5,-738 2439.5,4 -4,4"/>
<!-- 1 -->
<g id="node1" class="node">
<title>1</title>
<text text-anchor="start" x="1206.5" y="-715.8" font-family="Arial" font-weight="bold" font-size="14.00"> </text>
<text text-anchor="start" x="1140.5" y="-671.3" font-family="Arial" font-size="14.00"> &#160;&#160;&#160;</text>
<path fill="#ebebeb" stroke="transparent" d="M1170.5,-643C1170.5,-643 1246.5,-643 1246.5,-643 1252.5,-643 1258.5,-649 1258.5,-655 1258.5,-655 1258.5,-695 1258.5,-695 1258.5,-701 1252.5,-707 1246.5,-707 1246.5,-707 1170.5,-707 1170.5,-707 1164.5,-707 1158.5,-701 1158.5,-695 1158.5,-695 1158.5,-655 1158.5,-655 1158.5,-649 1164.5,-643 1170.5,-643"/>
<text text-anchor="start" x="1159.5" y="-704.4" font-family="Arial" font-size="2.00"> </text>
<text text-anchor="start" x="1159.5" y="-698.4" font-family="Arial" font-size="7.00"> &#160;1</text>
<text text-anchor="start" x="1173.5" y="-681.8" font-family="Arial" font-weight="bold" font-size="14.00">Mean: 26.8</text>
<text text-anchor="start" x="1185" y="-664.8" font-family="Arial" font-weight="bold" font-size="14.00">n = 672</text>
<text text-anchor="start" x="1207" y="-646.8" font-family="Arial" font-size="9.00"> </text>
<path fill="none" stroke="#333333" d="M1170.5,-643C1170.5,-643 1246.5,-643 1246.5,-643 1252.5,-643 1258.5,-649 1258.5,-655 1258.5,-655 1258.5,-695 1258.5,-695 1258.5,-701 1252.5,-707 1246.5,-707 1246.5,-707 1170.5,-707 1170.5,-707 1164.5,-707 1158.5,-701 1158.5,-695 1158.5,-695 1158.5,-655 1158.5,-655 1158.5,-649 1164.5,-643 1170.5,-643"/>
<text text-anchor="start" x="1260.5" y="-671.3" font-family="Arial" font-size="14.00"> &#160;&#160;&#160;</text>
<text text-anchor="start" x="1151" y="-628.8" font-family="Arial" font-weight="bold" font-size="14.00">prev_168h_inflow</text>
</g>
<!-- 2 -->
<g id="node2" class="node">
<title>2</title>
<text text-anchor="start" x="875.5" y="-561.8" font-family="Arial" font-weight="bold" font-size="14.00"> &lt; 27.37</text>
<text text-anchor="start" x="832.5" y="-517.3" font-family="Arial" font-size="14.00"> &#160;&#160;</text>
<path fill="#ebebeb" stroke="transparent" d="M858.5,-489C858.5,-489 942.5,-489 942.5,-489 948.5,-489 954.5,-495 954.5,-501 954.5,-501 954.5,-541 954.5,-541 954.5,-547 948.5,-553 942.5,-553 942.5,-553 858.5,-553 858.5,-553 852.5,-553 846.5,-547 846.5,-541 846.5,-541 846.5,-501 846.5,-501 846.5,-495 852.5,-489 858.5,-489"/>
<text text-anchor="start" x="847.5" y="-550.4" font-family="Arial" font-size="2.00"> </text>
<text text-anchor="start" x="847.5" y="-544.4" font-family="Arial" font-size="7.00"> &#160;2</text>
<text text-anchor="start" x="861.5" y="-527.8" font-family="Arial" font-weight="bold" font-size="14.00">Mean: 24.02</text>
<text text-anchor="start" x="877" y="-510.8" font-family="Arial" font-weight="bold" font-size="14.00">n = 345</text>
<text text-anchor="start" x="899" y="-492.8" font-family="Arial" font-size="9.00"> </text>
<path fill="none" stroke="#333333" d="M858.5,-489C858.5,-489 942.5,-489 942.5,-489 948.5,-489 954.5,-495 954.5,-501 954.5,-501 954.5,-541 954.5,-541 954.5,-547 948.5,-553 942.5,-553 942.5,-553 858.5,-553 858.5,-553 852.5,-553 846.5,-547 846.5,-541 846.5,-541 846.5,-501 846.5,-501 846.5,-495 852.5,-489 858.5,-489"/>
<text text-anchor="start" x="956.5" y="-517.3" font-family="Arial" font-size="14.00"> &#160;&#160;</text>
<text text-anchor="start" x="847" y="-474.8" font-family="Arial" font-weight="bold" font-size="14.00">prev_24h_inflow</text>
</g>
<!-- 1&#45;&gt;2 -->
<g id="edge1" class="edge">
<title>1&#45;&gt;2</title>
<path fill="none" stroke="#888888" d="M1130.38,-635.45C1086.86,-613.97 1032.57,-587.18 987.67,-565.02"/>
<polygon fill="#888888" stroke="#888888" points="989.05,-561.8 978.54,-560.51 985.95,-568.08 989.05,-561.8"/>
</g>
<!-- 17 -->
<g id="node3" class="node">
<title>17</title>
<text text-anchor="start" x="1492" y="-561.8" font-family="Arial" font-weight="bold" font-size="14.00"> ≥ 27.37</text>
<path fill="#ebebeb" stroke="transparent" d="M1474.5,-489C1474.5,-489 1558.5,-489 1558.5,-489 1564.5,-489 1570.5,-495 1570.5,-501 1570.5,-501 1570.5,-541 1570.5,-541 1570.5,-547 1564.5,-553 1558.5,-553 1558.5,-553 1474.5,-553 1474.5,-553 1468.5,-553 1462.5,-547 1462.5,-541 1462.5,-541 1462.5,-501 1462.5,-501 1462.5,-495 1468.5,-489 1474.5,-489"/>
<text text-anchor="start" x="1463.5" y="-550.4" font-family="Arial" font-size="2.00"> </text>
<text text-anchor="start" x="1463.5" y="-544.4" font-family="Arial" font-size="7.00"> &#160;17</text>
<text text-anchor="start" x="1477.5" y="-527.8" font-family="Arial" font-weight="bold" font-size="14.00">Mean: 29.75</text>
<text text-anchor="start" x="1493" y="-510.8" font-family="Arial" font-weight="bold" font-size="14.00">n = 327</text>
<text text-anchor="start" x="1515" y="-492.8" font-family="Arial" font-size="9.00"> </text>
<path fill="none" stroke="#333333" d="M1474.5,-489C1474.5,-489 1558.5,-489 1558.5,-489 1564.5,-489 1570.5,-495 1570.5,-501 1570.5,-501 1570.5,-541 1570.5,-541 1570.5,-547 1564.5,-553 1558.5,-553 1558.5,-553 1474.5,-553 1474.5,-553 1468.5,-553 1462.5,-547 1462.5,-541 1462.5,-541 1462.5,-501 1462.5,-501 1462.5,-495 1468.5,-489 1474.5,-489"/>
<text text-anchor="start" x="1474" y="-474.8" font-family="Arial" font-weight="bold" font-size="14.00">day_of_week</text>
</g>
<!-- 1&#45;&gt;17 -->
<g id="edge2" class="edge">
<title>1&#45;&gt;17</title>
<path fill="none" stroke="#888888" d="M1286.62,-635.45C1334.07,-612.03 1394.33,-582.29 1441.25,-559.13"/>
<polygon fill="#888888" stroke="#888888" points="1443.03,-562.16 1450.45,-554.59 1439.94,-555.88 1443.03,-562.16"/>
</g>
<!-- 3 -->
<g id="node4" class="node">
<title>3</title>
<text text-anchor="start" x="424.5" y="-407.8" font-family="Arial" font-weight="bold" font-size="14.00"> &lt; 24.35</text>
<text text-anchor="start" x="381.5" y="-363.3" font-family="Arial" font-size="14.00"> &#160;&#160;</text>
<path fill="#ebebeb" stroke="transparent" d="M407.5,-335C407.5,-335 491.5,-335 491.5,-335 497.5,-335 503.5,-341 503.5,-347 503.5,-347 503.5,-387 503.5,-387 503.5,-393 497.5,-399 491.5,-399 491.5,-399 407.5,-399 407.5,-399 401.5,-399 395.5,-393 395.5,-387 395.5,-387 395.5,-347 395.5,-347 395.5,-341 401.5,-335 407.5,-335"/>
<text text-anchor="start" x="396.5" y="-396.4" font-family="Arial" font-size="2.00"> </text>
<text text-anchor="start" x="396.5" y="-390.4" font-family="Arial" font-size="7.00"> &#160;3</text>
<text text-anchor="start" x="410.5" y="-373.8" font-family="Arial" font-weight="bold" font-size="14.00">Mean: 21.64</text>
<text text-anchor="start" x="426" y="-356.8" font-family="Arial" font-weight="bold" font-size="14.00">n = 183</text>
<text text-anchor="start" x="448" y="-338.8" font-family="Arial" font-size="9.00"> </text>
<path fill="none" stroke="#333333" d="M407.5,-335C407.5,-335 491.5,-335 491.5,-335 497.5,-335 503.5,-341 503.5,-347 503.5,-347 503.5,-387 503.5,-387 503.5,-393 497.5,-399 491.5,-399 491.5,-399 407.5,-399 407.5,-399 401.5,-399 395.5,-393 395.5,-387 395.5,-387 395.5,-347 395.5,-347 395.5,-341 401.5,-335 407.5,-335"/>
<text text-anchor="start" x="505.5" y="-363.3" font-family="Arial" font-size="14.00"> &#160;&#160;</text>
<text text-anchor="start" x="396" y="-320.8" font-family="Arial" font-weight="bold" font-size="14.00">prev_24h_inflow</text>
</g>
<!-- 2&#45;&gt;3 -->
<g id="edge3" class="edge">
<title>2&#45;&gt;3</title>
<path fill="none" stroke="#888888" d="M822.46,-493.7C743.03,-466.93 620.15,-425.52 537.36,-397.61"/>
<polygon fill="#888888" stroke="#888888" points="538.31,-394.24 527.72,-394.36 536.08,-400.87 538.31,-394.24"/>
</g>
<!-- 10 -->
<g id="node5" class="node">
<title>10</title>
<text text-anchor="start" x="876" y="-407.8" font-family="Arial" font-weight="bold" font-size="14.00"> ≥ 24.35</text>
<text text-anchor="start" x="832.5" y="-363.3" font-family="Arial" font-size="14.00"> &#160;&#160;&#160;</text>
<path fill="#ebebeb" stroke="transparent" d="M862.5,-335C862.5,-335 938.5,-335 938.5,-335 944.5,-335 950.5,-341 950.5,-347 950.5,-347 950.5,-387 950.5,-387 950.5,-393 944.5,-399 938.5,-399 938.5,-399 862.5,-399 862.5,-399 856.5,-399 850.5,-393 850.5,-387 850.5,-387 850.5,-347 850.5,-347 850.5,-341 856.5,-335 862.5,-335"/>
<text text-anchor="start" x="851.5" y="-396.4" font-family="Arial" font-size="2.00"> </text>
<text text-anchor="start" x="851.5" y="-390.4" font-family="Arial" font-size="7.00"> &#160;10</text>
<text text-anchor="start" x="865.5" y="-373.8" font-family="Arial" font-weight="bold" font-size="14.00">Mean: 26.7</text>
<text text-anchor="start" x="877" y="-356.8" font-family="Arial" font-weight="bold" font-size="14.00">n = 162</text>
<text text-anchor="start" x="899" y="-338.8" font-family="Arial" font-size="9.00"> </text>
<path fill="none" stroke="#333333" d="M862.5,-335C862.5,-335 938.5,-335 938.5,-335 944.5,-335 950.5,-341 950.5,-347 950.5,-347 950.5,-387 950.5,-387 950.5,-393 944.5,-399 938.5,-399 938.5,-399 862.5,-399 862.5,-399 856.5,-399 850.5,-393 850.5,-387 850.5,-387 850.5,-347 850.5,-347 850.5,-341 856.5,-335 862.5,-335"/>
<text text-anchor="start" x="952.5" y="-363.3" font-family="Arial" font-size="14.00"> &#160;&#160;&#160;</text>
<text text-anchor="start" x="847" y="-320.8" font-family="Arial" font-weight="bold" font-size="14.00">prev_24h_inflow</text>
</g>
<!-- 2&#45;&gt;10 -->
<g id="edge4" class="edge">
<title>2&#45;&gt;10</title>
<path fill="none" stroke="#888888" d="M900.5,-461.67C900.5,-453.39 900.5,-444.83 900.5,-436.38"/>
<polygon fill="#888888" stroke="#888888" points="904,-436.18 900.5,-426.18 897,-436.18 904,-436.18"/>
</g>
<!-- 18 -->
<g id="node18" class="node">
<title>18</title>
<text text-anchor="start" x="1499" y="-407.8" font-family="Arial" font-weight="bold" font-size="14.00"> &lt; 5.5</text>
<text text-anchor="start" x="1448.5" y="-363.3" font-family="Arial" font-size="14.00"> &#160;&#160;</text>
<path fill="#ebebeb" stroke="transparent" d="M1474.5,-335C1474.5,-335 1558.5,-335 1558.5,-335 1564.5,-335 1570.5,-341 1570.5,-347 1570.5,-347 1570.5,-387 1570.5,-387 1570.5,-393 1564.5,-399 1558.5,-399 1558.5,-399 1474.5,-399 1474.5,-399 1468.5,-399 1462.5,-393 1462.5,-387 1462.5,-387 1462.5,-347 1462.5,-347 1462.5,-341 1468.5,-335 1474.5,-335"/>
<text text-anchor="start" x="1463.5" y="-396.4" font-family="Arial" font-size="2.00"> </text>
<text text-anchor="start" x="1463.5" y="-390.4" font-family="Arial" font-size="7.00"> &#160;18</text>
<text text-anchor="start" x="1477.5" y="-373.8" font-family="Arial" font-weight="bold" font-size="14.00">Mean: 29.46</text>
<text text-anchor="start" x="1493" y="-356.8" font-family="Arial" font-weight="bold" font-size="14.00">n = 233</text>
<text text-anchor="start" x="1515" y="-338.8" font-family="Arial" font-size="9.00"> </text>
<path fill="none" stroke="#333333" d="M1474.5,-335C1474.5,-335 1558.5,-335 1558.5,-335 1564.5,-335 1570.5,-341 1570.5,-347 1570.5,-347 1570.5,-387 1570.5,-387 1570.5,-393 1564.5,-399 1558.5,-399 1558.5,-399 1474.5,-399 1474.5,-399 1468.5,-399 1462.5,-393 1462.5,-387 1462.5,-387 1462.5,-347 1462.5,-347 1462.5,-341 1468.5,-335 1474.5,-335"/>
<text text-anchor="start" x="1572.5" y="-363.3" font-family="Arial" font-size="14.00"> &#160;&#160;</text>
<text text-anchor="start" x="1463" y="-320.8" font-family="Arial" font-weight="bold" font-size="14.00">prev_24h_inflow</text>
</g>
<!-- 17&#45;&gt;18 -->
<g id="edge17" class="edge">
<title>17&#45;&gt;18</title>
<path fill="none" stroke="#888888" d="M1516.5,-461.67C1516.5,-453.39 1516.5,-444.83 1516.5,-436.38"/>
<polygon fill="#888888" stroke="#888888" points="1520,-436.18 1516.5,-426.18 1513,-436.18 1520,-436.18"/>
</g>
<!-- 25 -->
<g id="node19" class="node">
<title>25</title>
<text text-anchor="start" x="1959.5" y="-407.8" font-family="Arial" font-weight="bold" font-size="14.00"> ≥ 5.5</text>
<text text-anchor="start" x="1904.5" y="-363.3" font-family="Arial" font-size="14.00"> &#160;&#160;&#160;</text>
<path fill="#ebebeb" stroke="transparent" d="M1934.5,-335C1934.5,-335 2018.5,-335 2018.5,-335 2024.5,-335 2030.5,-341 2030.5,-347 2030.5,-347 2030.5,-387 2030.5,-387 2030.5,-393 2024.5,-399 2018.5,-399 2018.5,-399 1934.5,-399 1934.5,-399 1928.5,-399 1922.5,-393 1922.5,-387 1922.5,-387 1922.5,-347 1922.5,-347 1922.5,-341 1928.5,-335 1934.5,-335"/>
<text text-anchor="start" x="1923.5" y="-396.4" font-family="Arial" font-size="2.00"> </text>
<text text-anchor="start" x="1923.5" y="-390.4" font-family="Arial" font-size="7.00"> &#160;25</text>
<text text-anchor="start" x="1937.5" y="-373.8" font-family="Arial" font-weight="bold" font-size="14.00">Mean: 30.46</text>
<text text-anchor="start" x="1956.5" y="-356.8" font-family="Arial" font-weight="bold" font-size="14.00">n = 94</text>
<text text-anchor="start" x="1975" y="-338.8" font-family="Arial" font-size="9.00"> </text>
<path fill="none" stroke="#333333" d="M1934.5,-335C1934.5,-335 2018.5,-335 2018.5,-335 2024.5,-335 2030.5,-341 2030.5,-347 2030.5,-347 2030.5,-387 2030.5,-387 2030.5,-393 2024.5,-399 2018.5,-399 2018.5,-399 1934.5,-399 1934.5,-399 1928.5,-399 1922.5,-393 1922.5,-387 1922.5,-387 1922.5,-347 1922.5,-347 1922.5,-341 1928.5,-335 1934.5,-335"/>
<text text-anchor="start" x="2032.5" y="-363.3" font-family="Arial" font-size="14.00"> &#160;&#160;&#160;</text>
<text text-anchor="start" x="1919" y="-320.8" font-family="Arial" font-weight="bold" font-size="14.00">prev_168h_inflow</text>
</g>
<!-- 17&#45;&gt;25 -->
<g id="edge18" class="edge">
<title>17&#45;&gt;25</title>
<path fill="none" stroke="#888888" d="M1582.9,-498.06C1662.24,-471.84 1795.43,-427.83 1884.61,-398.36"/>
<polygon fill="#888888" stroke="#888888" points="1885.79,-401.66 1894.18,-395.2 1883.59,-395.02 1885.79,-401.66"/>
</g>
<!-- 4 -->
<g id="node6" class="node">
<title>4</title>
<text text-anchor="start" x="181.5" y="-253.8" font-family="Arial" font-weight="bold" font-size="14.00"> &lt; 22.12</text>
<text text-anchor="start" x="134.5" y="-209.3" font-family="Arial" font-size="14.00"> &#160;&#160;&#160;</text>
<path fill="#ebebeb" stroke="transparent" d="M164.5,-181C164.5,-181 248.5,-181 248.5,-181 254.5,-181 260.5,-187 260.5,-193 260.5,-193 260.5,-233 260.5,-233 260.5,-239 254.5,-245 248.5,-245 248.5,-245 164.5,-245 164.5,-245 158.5,-245 152.5,-239 152.5,-233 152.5,-233 152.5,-193 152.5,-193 152.5,-187 158.5,-181 164.5,-181"/>
<text text-anchor="start" x="153.5" y="-242.4" font-family="Arial" font-size="2.00"> </text>
<text text-anchor="start" x="153.5" y="-236.4" font-family="Arial" font-size="7.00"> &#160;4</text>
<text text-anchor="start" x="167.5" y="-219.8" font-family="Arial" font-weight="bold" font-size="14.00">Mean: 21.15</text>
<text text-anchor="start" x="183" y="-202.8" font-family="Arial" font-weight="bold" font-size="14.00">n = 133</text>
<text text-anchor="start" x="205" y="-184.8" font-family="Arial" font-size="9.00"> </text>
<path fill="none" stroke="#333333" d="M164.5,-181C164.5,-181 248.5,-181 248.5,-181 254.5,-181 260.5,-187 260.5,-193 260.5,-193 260.5,-233 260.5,-233 260.5,-239 254.5,-245 248.5,-245 248.5,-245 164.5,-245 164.5,-245 158.5,-245 152.5,-239 152.5,-233 152.5,-233 152.5,-193 152.5,-193 152.5,-187 158.5,-181 164.5,-181"/>
<text text-anchor="start" x="262.5" y="-209.3" font-family="Arial" font-size="14.00"> &#160;&#160;&#160;</text>
<text text-anchor="start" x="149" y="-166.8" font-family="Arial" font-weight="bold" font-size="14.00">prev_168h_inflow</text>
</g>
<!-- 3&#45;&gt;4 -->
<g id="edge5" class="edge">
<title>3&#45;&gt;4</title>
<path fill="none" stroke="#888888" d="M371.28,-317.07C347.69,-302.32 321.61,-286 297.29,-270.79"/>
<polygon fill="#888888" stroke="#888888" points="299.1,-267.79 288.76,-265.46 295.39,-273.73 299.1,-267.79"/>
</g>
<!-- 7 -->
<g id="node7" class="node">
<title>7</title>
<text text-anchor="start" x="425" y="-253.8" font-family="Arial" font-weight="bold" font-size="14.00"> ≥ 22.12</text>
<text text-anchor="start" x="377.5" y="-209.3" font-family="Arial" font-size="14.00"> &#160;&#160;&#160;</text>
<path fill="#ebebeb" stroke="transparent" d="M407.5,-181C407.5,-181 491.5,-181 491.5,-181 497.5,-181 503.5,-187 503.5,-193 503.5,-193 503.5,-233 503.5,-233 503.5,-239 497.5,-245 491.5,-245 491.5,-245 407.5,-245 407.5,-245 401.5,-245 395.5,-239 395.5,-233 395.5,-233 395.5,-193 395.5,-193 395.5,-187 401.5,-181 407.5,-181"/>
<text text-anchor="start" x="396.5" y="-242.4" font-family="Arial" font-size="2.00"> </text>
<text text-anchor="start" x="396.5" y="-236.4" font-family="Arial" font-size="7.00"> &#160;7</text>
<text text-anchor="start" x="410.5" y="-219.8" font-family="Arial" font-weight="bold" font-size="14.00">Mean: 22.96</text>
<text text-anchor="start" x="429.5" y="-202.8" font-family="Arial" font-weight="bold" font-size="14.00">n = 50</text>
<text text-anchor="start" x="448" y="-184.8" font-family="Arial" font-size="9.00"> </text>
<path fill="none" stroke="#333333" d="M407.5,-181C407.5,-181 491.5,-181 491.5,-181 497.5,-181 503.5,-187 503.5,-193 503.5,-193 503.5,-233 503.5,-233 503.5,-239 497.5,-245 491.5,-245 491.5,-245 407.5,-245 407.5,-245 401.5,-245 395.5,-239 395.5,-233 395.5,-233 395.5,-193 395.5,-193 395.5,-187 401.5,-181 407.5,-181"/>
<text text-anchor="start" x="505.5" y="-209.3" font-family="Arial" font-size="14.00"> &#160;&#160;&#160;</text>
<text text-anchor="start" x="392" y="-166.8" font-family="Arial" font-weight="bold" font-size="14.00">prev_168h_inflow</text>
</g>
<!-- 3&#45;&gt;7 -->
<g id="edge6" class="edge">
<title>3&#45;&gt;7</title>
<path fill="none" stroke="#888888" d="M449.5,-307.67C449.5,-299.39 449.5,-290.83 449.5,-282.38"/>
<polygon fill="#888888" stroke="#888888" points="453,-282.18 449.5,-272.18 446,-282.18 453,-282.18"/>
</g>
<!-- 11 -->
<g id="node12" class="node">
<title>11</title>
<text text-anchor="start" x="795" y="-253.8" font-family="Arial" font-weight="bold" font-size="14.00"> &lt; 27.11</text>
<path fill="#ebebeb" stroke="transparent" d="M777.5,-181C777.5,-181 861.5,-181 861.5,-181 867.5,-181 873.5,-187 873.5,-193 873.5,-193 873.5,-233 873.5,-233 873.5,-239 867.5,-245 861.5,-245 861.5,-245 777.5,-245 777.5,-245 771.5,-245 765.5,-239 765.5,-233 765.5,-233 765.5,-193 765.5,-193 765.5,-187 771.5,-181 777.5,-181"/>
<text text-anchor="start" x="766.5" y="-242.4" font-family="Arial" font-size="2.00"> </text>
<text text-anchor="start" x="766.5" y="-236.4" font-family="Arial" font-size="7.00"> &#160;11</text>
<text text-anchor="start" x="780.5" y="-219.8" font-family="Arial" font-weight="bold" font-size="14.00">Mean: 25.76</text>
<text text-anchor="start" x="799.5" y="-202.8" font-family="Arial" font-weight="bold" font-size="14.00">n = 89</text>
<text text-anchor="start" x="818" y="-184.8" font-family="Arial" font-size="9.00"> </text>
<path fill="none" stroke="#333333" d="M777.5,-181C777.5,-181 861.5,-181 861.5,-181 867.5,-181 873.5,-187 873.5,-193 873.5,-193 873.5,-233 873.5,-233 873.5,-239 867.5,-245 861.5,-245 861.5,-245 777.5,-245 777.5,-245 771.5,-245 765.5,-239 765.5,-233 765.5,-233 765.5,-193 765.5,-193 765.5,-187 771.5,-181 777.5,-181"/>
<text text-anchor="start" x="805" y="-166.8" font-family="Arial" font-weight="bold" font-size="14.00">time</text>
</g>
<!-- 10&#45;&gt;11 -->
<g id="edge11" class="edge">
<title>10&#45;&gt;11</title>
<path fill="none" stroke="#888888" d="M869.41,-307.67C864.81,-299.03 860.04,-290.07 855.35,-281.27"/>
<polygon fill="#888888" stroke="#888888" points="858.29,-279.36 850.5,-272.18 852.12,-282.65 858.29,-279.36"/>
</g>
<!-- 14 -->
<g id="node13" class="node">
<title>14</title>
<text text-anchor="start" x="957" y="-253.8" font-family="Arial" font-weight="bold" font-size="14.00"> ≥ 27.11</text>
<text text-anchor="start" x="913.5" y="-209.3" font-family="Arial" font-size="14.00"> &#160;&#160;</text>
<path fill="#ebebeb" stroke="transparent" d="M939.5,-181C939.5,-181 1023.5,-181 1023.5,-181 1029.5,-181 1035.5,-187 1035.5,-193 1035.5,-193 1035.5,-233 1035.5,-233 1035.5,-239 1029.5,-245 1023.5,-245 1023.5,-245 939.5,-245 939.5,-245 933.5,-245 927.5,-239 927.5,-233 927.5,-233 927.5,-193 927.5,-193 927.5,-187 933.5,-181 939.5,-181"/>
<text text-anchor="start" x="928.5" y="-242.4" font-family="Arial" font-size="2.00"> </text>
<text text-anchor="start" x="928.5" y="-236.4" font-family="Arial" font-size="7.00"> &#160;14</text>
<text text-anchor="start" x="942.5" y="-219.8" font-family="Arial" font-weight="bold" font-size="14.00">Mean: 27.84</text>
<text text-anchor="start" x="961.5" y="-202.8" font-family="Arial" font-weight="bold" font-size="14.00">n = 73</text>
<text text-anchor="start" x="980" y="-184.8" font-family="Arial" font-size="9.00"> </text>
<path fill="none" stroke="#333333" d="M939.5,-181C939.5,-181 1023.5,-181 1023.5,-181 1029.5,-181 1035.5,-187 1035.5,-193 1035.5,-193 1035.5,-233 1035.5,-233 1035.5,-239 1029.5,-245 1023.5,-245 1023.5,-245 939.5,-245 939.5,-245 933.5,-245 927.5,-239 927.5,-233 927.5,-233 927.5,-193 927.5,-193 927.5,-187 933.5,-181 939.5,-181"/>
<text text-anchor="start" x="1037.5" y="-209.3" font-family="Arial" font-size="14.00"> &#160;&#160;</text>
<text text-anchor="start" x="928" y="-166.8" font-family="Arial" font-weight="bold" font-size="14.00">prev_24h_inflow</text>
</g>
<!-- 10&#45;&gt;14 -->
<g id="edge12" class="edge">
<title>10&#45;&gt;14</title>
<path fill="none" stroke="#888888" d="M931.59,-307.67C936.19,-299.03 940.96,-290.07 945.65,-281.27"/>
<polygon fill="#888888" stroke="#888888" points="948.88,-282.65 950.5,-272.18 942.71,-279.36 948.88,-282.65"/>
</g>
<!-- 5 -->
<g id="node8" class="node">
<title>5</title>
<text text-anchor="start" x="35" y="-99.8" font-family="Arial" font-weight="bold" font-size="14.00"> &lt; 22.89</text>
<path fill="#f8766d" fill-opacity="0.874510" stroke="transparent" d="M24.5,-27C24.5,-27 95.5,-27 95.5,-27 101.5,-27 107.5,-33 107.5,-39 107.5,-39 107.5,-79 107.5,-79 107.5,-85 101.5,-91 95.5,-91 95.5,-91 24.5,-91 24.5,-91 18.5,-91 12.5,-85 12.5,-79 12.5,-79 12.5,-39 12.5,-39 12.5,-33 18.5,-27 24.5,-27"/>
<text text-anchor="start" x="13.5" y="-88.4" font-family="Arial" font-size="2.00"> </text>
<text text-anchor="start" x="13.5" y="-82.4" font-family="Arial" font-size="7.00"> &#160;5</text>
<text text-anchor="start" x="27.5" y="-65.8" font-family="Arial" font-weight="bold" font-size="14.00">Predict 21</text>
<text text-anchor="start" x="36.5" y="-48.8" font-family="Arial" font-weight="bold" font-size="14.00">n = 125</text>
<text text-anchor="start" x="58.5" y="-30.8" font-family="Arial" font-size="9.00"> </text>
<path fill="none" stroke="#333333" d="M24.5,-27C24.5,-27 95.5,-27 95.5,-27 101.5,-27 107.5,-33 107.5,-39 107.5,-39 107.5,-79 107.5,-79 107.5,-85 101.5,-91 95.5,-91 95.5,-91 24.5,-91 24.5,-91 18.5,-91 12.5,-85 12.5,-79 12.5,-79 12.5,-39 12.5,-39 12.5,-33 18.5,-27 24.5,-27"/>
<text text-anchor="start" x="58" y="-12.8" font-family="Arial" font-weight="bold" font-size="14.00"> </text>
</g>
<!-- 4&#45;&gt;5 -->
<g id="edge7" class="edge">
<title>4&#45;&gt;5</title>
<path fill="none" stroke="#888888" d="M150.09,-153.67C141.21,-144.49 131.97,-134.94 122.95,-125.6"/>
<polygon fill="#888888" stroke="#888888" points="125.23,-122.93 115.76,-118.18 120.2,-127.8 125.23,-122.93"/>
</g>
<!-- 6 -->
<g id="node9" class="node">
<title>6</title>
<text text-anchor="start" x="182" y="-99.8" font-family="Arial" font-weight="bold" font-size="14.00"> ≥ 22.89</text>
<path fill="#f8766d" fill-opacity="0.784314" stroke="transparent" d="M161.5,-27C161.5,-27 251.5,-27 251.5,-27 257.5,-27 263.5,-33 263.5,-39 263.5,-39 263.5,-79 263.5,-79 263.5,-85 257.5,-91 251.5,-91 251.5,-91 161.5,-91 161.5,-91 155.5,-91 149.5,-85 149.5,-79 149.5,-79 149.5,-39 149.5,-39 149.5,-33 155.5,-27 161.5,-27"/>
<text text-anchor="start" x="150.5" y="-88.4" font-family="Arial" font-size="2.00"> </text>
<text text-anchor="start" x="150.5" y="-82.4" font-family="Arial" font-size="7.00"> &#160;6</text>
<text text-anchor="start" x="164.5" y="-65.8" font-family="Arial" font-weight="bold" font-size="14.00">Predict 23.54</text>
<text text-anchor="start" x="190.5" y="-48.8" font-family="Arial" font-weight="bold" font-size="14.00">n = 8</text>
<text text-anchor="start" x="205" y="-30.8" font-family="Arial" font-size="9.00"> </text>
<path fill="none" stroke="#333333" d="M161.5,-27C161.5,-27 251.5,-27 251.5,-27 257.5,-27 263.5,-33 263.5,-39 263.5,-39 263.5,-79 263.5,-79 263.5,-85 257.5,-91 251.5,-91 251.5,-91 161.5,-91 161.5,-91 155.5,-91 149.5,-85 149.5,-79 149.5,-79 149.5,-39 149.5,-39 149.5,-33 155.5,-27 161.5,-27"/>
<text text-anchor="start" x="204.5" y="-12.8" font-family="Arial" font-weight="bold" font-size="14.00"> </text>
</g>
<!-- 4&#45;&gt;6 -->
<g id="edge8" class="edge">
<title>4&#45;&gt;6</title>
<path fill="none" stroke="#888888" d="M206.5,-153.67C206.5,-145.39 206.5,-136.83 206.5,-128.38"/>
<polygon fill="#888888" stroke="#888888" points="210,-128.18 206.5,-118.18 203,-128.18 210,-128.18"/>
</g>
<!-- 8 -->
<g id="node10" class="node">
<title>8</title>
<text text-anchor="start" x="333.5" y="-99.8" font-family="Arial" font-weight="bold" font-size="14.00"> &lt; 21.89</text>
<path fill="#f8766d" fill-opacity="0.843137" stroke="transparent" d="M317.5,-27C317.5,-27 399.5,-27 399.5,-27 405.5,-27 411.5,-33 411.5,-39 411.5,-39 411.5,-79 411.5,-79 411.5,-85 405.5,-91 399.5,-91 399.5,-91 317.5,-91 317.5,-91 311.5,-91 305.5,-85 305.5,-79 305.5,-79 305.5,-39 305.5,-39 305.5,-33 311.5,-27 317.5,-27"/>
<text text-anchor="start" x="306.5" y="-88.4" font-family="Arial" font-size="2.00"> </text>
<text text-anchor="start" x="306.5" y="-82.4" font-family="Arial" font-size="7.00"> &#160;8</text>
<text text-anchor="start" x="320.5" y="-65.8" font-family="Arial" font-weight="bold" font-size="14.00">Predict 21.9</text>
<text text-anchor="start" x="338.5" y="-48.8" font-family="Arial" font-weight="bold" font-size="14.00">n = 18</text>
<text text-anchor="start" x="357" y="-30.8" font-family="Arial" font-size="9.00"> </text>
<path fill="none" stroke="#333333" d="M317.5,-27C317.5,-27 399.5,-27 399.5,-27 405.5,-27 411.5,-33 411.5,-39 411.5,-39 411.5,-79 411.5,-79 411.5,-85 405.5,-91 399.5,-91 399.5,-91 317.5,-91 317.5,-91 311.5,-91 305.5,-85 305.5,-79 305.5,-79 305.5,-39 305.5,-39 305.5,-33 311.5,-27 317.5,-27"/>
<text text-anchor="start" x="356.5" y="-12.8" font-family="Arial" font-weight="bold" font-size="14.00"> </text>
</g>
<!-- 7&#45;&gt;8 -->
<g id="edge9" class="edge">
<title>7&#45;&gt;8</title>
<path fill="none" stroke="#888888" d="M414.58,-153.67C409.35,-144.94 403.93,-135.88 398.61,-126.99"/>
<polygon fill="#888888" stroke="#888888" points="401.47,-124.96 393.33,-118.18 395.46,-128.55 401.47,-124.96"/>
</g>
<!-- 9 -->
<g id="node11" class="node">
<title>9</title>
<text text-anchor="start" x="486" y="-99.8" font-family="Arial" font-weight="bold" font-size="14.00"> ≥ 21.89</text>
<path fill="#f8766d" fill-opacity="0.784314" stroke="transparent" d="M465.5,-27C465.5,-27 555.5,-27 555.5,-27 561.5,-27 567.5,-33 567.5,-39 567.5,-39 567.5,-79 567.5,-79 567.5,-85 561.5,-91 555.5,-91 555.5,-91 465.5,-91 465.5,-91 459.5,-91 453.5,-85 453.5,-79 453.5,-79 453.5,-39 453.5,-39 453.5,-33 459.5,-27 465.5,-27"/>
<text text-anchor="start" x="454.5" y="-88.4" font-family="Arial" font-size="2.00"> </text>
<text text-anchor="start" x="454.5" y="-82.4" font-family="Arial" font-size="7.00"> &#160;9</text>
<text text-anchor="start" x="468.5" y="-65.8" font-family="Arial" font-weight="bold" font-size="14.00">Predict 23.55</text>
<text text-anchor="start" x="490.5" y="-48.8" font-family="Arial" font-weight="bold" font-size="14.00">n = 32</text>
<text text-anchor="start" x="509" y="-30.8" font-family="Arial" font-size="9.00"> </text>
<path fill="none" stroke="#333333" d="M465.5,-27C465.5,-27 555.5,-27 555.5,-27 561.5,-27 567.5,-33 567.5,-39 567.5,-39 567.5,-79 567.5,-79 567.5,-85 561.5,-91 555.5,-91 555.5,-91 465.5,-91 465.5,-91 459.5,-91 453.5,-85 453.5,-79 453.5,-79 453.5,-39 453.5,-39 453.5,-33 459.5,-27 465.5,-27"/>
<text text-anchor="start" x="508.5" y="-12.8" font-family="Arial" font-weight="bold" font-size="14.00"> </text>
</g>
<!-- 7&#45;&gt;9 -->
<g id="edge10" class="edge">
<title>7&#45;&gt;9</title>
<path fill="none" stroke="#888888" d="M472.91,-153.67C476.34,-145.12 479.9,-136.26 483.39,-127.55"/>
<polygon fill="#888888" stroke="#888888" points="486.68,-128.76 487.15,-118.18 480.18,-126.15 486.68,-128.76"/>
</g>
<!-- 12 -->
<g id="node14" class="node">
<title>12</title>
<text text-anchor="start" x="651" y="-99.8" font-family="Arial" font-weight="bold" font-size="14.00"> &lt; 11</text>
<path fill="#f8766d" fill-opacity="0.749020" stroke="transparent" d="M621.5,-27C621.5,-27 711.5,-27 711.5,-27 717.5,-27 723.5,-33 723.5,-39 723.5,-39 723.5,-79 723.5,-79 723.5,-85 717.5,-91 711.5,-91 711.5,-91 621.5,-91 621.5,-91 615.5,-91 609.5,-85 609.5,-79 609.5,-79 609.5,-39 609.5,-39 609.5,-33 615.5,-27 621.5,-27"/>
<text text-anchor="start" x="610.5" y="-88.4" font-family="Arial" font-size="2.00"> </text>
<text text-anchor="start" x="610.5" y="-82.4" font-family="Arial" font-size="7.00"> &#160;12</text>
<text text-anchor="start" x="624.5" y="-65.8" font-family="Arial" font-weight="bold" font-size="14.00">Predict 24.45</text>
<text text-anchor="start" x="646.5" y="-48.8" font-family="Arial" font-weight="bold" font-size="14.00">n = 22</text>
<text text-anchor="start" x="665" y="-30.8" font-family="Arial" font-size="9.00"> </text>
<path fill="none" stroke="#333333" d="M621.5,-27C621.5,-27 711.5,-27 711.5,-27 717.5,-27 723.5,-33 723.5,-39 723.5,-39 723.5,-79 723.5,-79 723.5,-85 717.5,-91 711.5,-91 711.5,-91 621.5,-91 621.5,-91 615.5,-91 609.5,-85 609.5,-79 609.5,-79 609.5,-39 609.5,-39 609.5,-33 615.5,-27 621.5,-27"/>
<text text-anchor="start" x="664.5" y="-12.8" font-family="Arial" font-weight="bold" font-size="14.00"> </text>
</g>
<!-- 11&#45;&gt;12 -->
<g id="edge13" class="edge">
<title>11&#45;&gt;12</title>
<path fill="none" stroke="#888888" d="M760.78,-153.67C751.45,-144.39 741.74,-134.75 732.26,-125.33"/>
<polygon fill="#888888" stroke="#888888" points="734.62,-122.74 725.06,-118.18 729.69,-127.71 734.62,-122.74"/>
</g>
<!-- 13 -->
<g id="node15" class="node">
<title>13</title>
<text text-anchor="start" x="807.5" y="-99.8" font-family="Arial" font-weight="bold" font-size="14.00"> ≥ 11</text>
<path fill="#f8766d" fill-opacity="0.686275" stroke="transparent" d="M777.5,-27C777.5,-27 867.5,-27 867.5,-27 873.5,-27 879.5,-33 879.5,-39 879.5,-39 879.5,-79 879.5,-79 879.5,-85 873.5,-91 867.5,-91 867.5,-91 777.5,-91 777.5,-91 771.5,-91 765.5,-85 765.5,-79 765.5,-79 765.5,-39 765.5,-39 765.5,-33 771.5,-27 777.5,-27"/>
<text text-anchor="start" x="766.5" y="-88.4" font-family="Arial" font-size="2.00"> </text>
<text text-anchor="start" x="766.5" y="-82.4" font-family="Arial" font-size="7.00"> &#160;13</text>
<text text-anchor="start" x="780.5" y="-65.8" font-family="Arial" font-weight="bold" font-size="14.00">Predict 26.19</text>
<text text-anchor="start" x="802.5" y="-48.8" font-family="Arial" font-weight="bold" font-size="14.00">n = 67</text>
<text text-anchor="start" x="821" y="-30.8" font-family="Arial" font-size="9.00"> </text>
<path fill="none" stroke="#333333" d="M777.5,-27C777.5,-27 867.5,-27 867.5,-27 873.5,-27 879.5,-33 879.5,-39 879.5,-39 879.5,-79 879.5,-79 879.5,-85 873.5,-91 867.5,-91 867.5,-91 777.5,-91 777.5,-91 771.5,-91 765.5,-85 765.5,-79 765.5,-79 765.5,-39 765.5,-39 765.5,-33 771.5,-27 777.5,-27"/>
<text text-anchor="start" x="820.5" y="-12.8" font-family="Arial" font-weight="bold" font-size="14.00"> </text>
</g>
<!-- 11&#45;&gt;13 -->
<g id="edge14" class="edge">
<title>11&#45;&gt;13</title>
<path fill="none" stroke="#888888" d="M820.65,-153.67C820.81,-145.39 820.98,-136.83 821.15,-128.38"/>
<polygon fill="#888888" stroke="#888888" points="824.65,-128.24 821.35,-118.18 817.66,-128.11 824.65,-128.24"/>
</g>
<!-- 15 -->
<g id="node16" class="node">
<title>15</title>
<text text-anchor="start" x="957" y="-99.8" font-family="Arial" font-weight="bold" font-size="14.00"> &lt; 33.4</text>
<path fill="#f8766d" fill-opacity="0.631373" stroke="transparent" d="M933.5,-27C933.5,-27 1023.5,-27 1023.5,-27 1029.5,-27 1035.5,-33 1035.5,-39 1035.5,-39 1035.5,-79 1035.5,-79 1035.5,-85 1029.5,-91 1023.5,-91 1023.5,-91 933.5,-91 933.5,-91 927.5,-91 921.5,-85 921.5,-79 921.5,-79 921.5,-39 921.5,-39 921.5,-33 927.5,-27 933.5,-27"/>
<text text-anchor="start" x="922.5" y="-88.4" font-family="Arial" font-size="2.00"> </text>
<text text-anchor="start" x="922.5" y="-82.4" font-family="Arial" font-size="7.00"> &#160;15</text>
<text text-anchor="start" x="936.5" y="-65.8" font-family="Arial" font-weight="bold" font-size="14.00">Predict 27.75</text>
<text text-anchor="start" x="958.5" y="-48.8" font-family="Arial" font-weight="bold" font-size="14.00">n = 72</text>
<text text-anchor="start" x="977" y="-30.8" font-family="Arial" font-size="9.00"> </text>
<path fill="none" stroke="#333333" d="M933.5,-27C933.5,-27 1023.5,-27 1023.5,-27 1029.5,-27 1035.5,-33 1035.5,-39 1035.5,-39 1035.5,-79 1035.5,-79 1035.5,-85 1029.5,-91 1023.5,-91 1023.5,-91 933.5,-91 933.5,-91 927.5,-91 921.5,-85 921.5,-79 921.5,-79 921.5,-39 921.5,-39 921.5,-33 927.5,-27 933.5,-27"/>
<text text-anchor="start" x="976.5" y="-12.8" font-family="Arial" font-weight="bold" font-size="14.00"> </text>
</g>
<!-- 14&#45;&gt;15 -->
<g id="edge15" class="edge">
<title>14&#45;&gt;15</title>
<path fill="none" stroke="#888888" d="M980.35,-153.67C980.19,-145.39 980.02,-136.83 979.85,-128.38"/>
<polygon fill="#888888" stroke="#888888" points="983.34,-128.11 979.65,-118.18 976.35,-128.24 983.34,-128.11"/>
</g>
<!-- 16 -->
<g id="node17" class="node">
<title>16</title>
<text text-anchor="start" x="1113.5" y="-99.8" font-family="Arial" font-weight="bold" font-size="14.00"> ≥ 33.4</text>
<path fill="#f8766d" fill-opacity="0.376471" stroke="transparent" d="M1089.5,-27C1089.5,-27 1179.5,-27 1179.5,-27 1185.5,-27 1191.5,-33 1191.5,-39 1191.5,-39 1191.5,-79 1191.5,-79 1191.5,-85 1185.5,-91 1179.5,-91 1179.5,-91 1089.5,-91 1089.5,-91 1083.5,-91 1077.5,-85 1077.5,-79 1077.5,-79 1077.5,-39 1077.5,-39 1077.5,-33 1083.5,-27 1089.5,-27"/>
<text text-anchor="start" x="1078.5" y="-88.4" font-family="Arial" font-size="2.00"> </text>
<text text-anchor="start" x="1078.5" y="-82.4" font-family="Arial" font-size="7.00"> &#160;16</text>
<text text-anchor="start" x="1092.5" y="-65.8" font-family="Arial" font-weight="bold" font-size="14.00">Predict 34.83</text>
<text text-anchor="start" x="1118.5" y="-48.8" font-family="Arial" font-weight="bold" font-size="14.00">n = 1</text>
<text text-anchor="start" x="1133" y="-30.8" font-family="Arial" font-size="9.00"> </text>
<path fill="none" stroke="#333333" d="M1089.5,-27C1089.5,-27 1179.5,-27 1179.5,-27 1185.5,-27 1191.5,-33 1191.5,-39 1191.5,-39 1191.5,-79 1191.5,-79 1191.5,-85 1185.5,-91 1179.5,-91 1179.5,-91 1089.5,-91 1089.5,-91 1083.5,-91 1077.5,-85 1077.5,-79 1077.5,-79 1077.5,-39 1077.5,-39 1077.5,-33 1083.5,-27 1089.5,-27"/>
<text text-anchor="start" x="1132.5" y="-12.8" font-family="Arial" font-weight="bold" font-size="14.00"> </text>
</g>
<!-- 14&#45;&gt;16 -->
<g id="edge16" class="edge">
<title>14&#45;&gt;16</title>
<path fill="none" stroke="#888888" d="M1040.22,-153.67C1049.55,-144.39 1059.26,-134.75 1068.74,-125.33"/>
<polygon fill="#888888" stroke="#888888" points="1071.31,-127.71 1075.94,-118.18 1066.38,-122.74 1071.31,-127.71"/>
</g>
<!-- 19 -->
<g id="node20" class="node">
<title>19</title>
<text text-anchor="start" x="1413.5" y="-253.8" font-family="Arial" font-weight="bold" font-size="14.00"> &lt; 28.79</text>
<path fill="#ebebeb" stroke="transparent" d="M1396.5,-181C1396.5,-181 1480.5,-181 1480.5,-181 1486.5,-181 1492.5,-187 1492.5,-193 1492.5,-193 1492.5,-233 1492.5,-233 1492.5,-239 1486.5,-245 1480.5,-245 1480.5,-245 1396.5,-245 1396.5,-245 1390.5,-245 1384.5,-239 1384.5,-233 1384.5,-233 1384.5,-193 1384.5,-193 1384.5,-187 1390.5,-181 1396.5,-181"/>
<text text-anchor="start" x="1385.5" y="-242.4" font-family="Arial" font-size="2.00"> </text>
<text text-anchor="start" x="1385.5" y="-236.4" font-family="Arial" font-size="7.00"> &#160;19</text>
<text text-anchor="start" x="1399.5" y="-219.8" font-family="Arial" font-weight="bold" font-size="14.00">Mean: 27.97</text>
<text text-anchor="start" x="1415" y="-202.8" font-family="Arial" font-weight="bold" font-size="14.00">n = 100</text>
<text text-anchor="start" x="1437" y="-184.8" font-family="Arial" font-size="9.00"> </text>
<path fill="none" stroke="#333333" d="M1396.5,-181C1396.5,-181 1480.5,-181 1480.5,-181 1486.5,-181 1492.5,-187 1492.5,-193 1492.5,-193 1492.5,-233 1492.5,-233 1492.5,-239 1486.5,-245 1480.5,-245 1480.5,-245 1396.5,-245 1396.5,-245 1390.5,-245 1384.5,-239 1384.5,-233 1384.5,-233 1384.5,-193 1384.5,-193 1384.5,-187 1390.5,-181 1396.5,-181"/>
<text text-anchor="start" x="1403" y="-166.8" font-family="Arial" font-weight="bold" font-size="14.00">windspeed</text>
</g>
<!-- 18&#45;&gt;19 -->
<g id="edge19" class="edge">
<title>18&#45;&gt;19</title>
<path fill="none" stroke="#888888" d="M1486.57,-307.67C1482.13,-299.03 1477.54,-290.07 1473.02,-281.27"/>
<polygon fill="#888888" stroke="#888888" points="1476.03,-279.48 1468.35,-272.18 1469.81,-282.67 1476.03,-279.48"/>
</g>
<!-- 22 -->
<g id="node21" class="node">
<title>22</title>
<text text-anchor="start" x="1570" y="-253.8" font-family="Arial" font-weight="bold" font-size="14.00"> ≥ 28.79</text>
<path fill="#ebebeb" stroke="transparent" d="M1552.5,-181C1552.5,-181 1636.5,-181 1636.5,-181 1642.5,-181 1648.5,-187 1648.5,-193 1648.5,-193 1648.5,-233 1648.5,-233 1648.5,-239 1642.5,-245 1636.5,-245 1636.5,-245 1552.5,-245 1552.5,-245 1546.5,-245 1540.5,-239 1540.5,-233 1540.5,-233 1540.5,-193 1540.5,-193 1540.5,-187 1546.5,-181 1552.5,-181"/>
<text text-anchor="start" x="1541.5" y="-242.4" font-family="Arial" font-size="2.00"> </text>
<text text-anchor="start" x="1541.5" y="-236.4" font-family="Arial" font-size="7.00"> &#160;22</text>
<text text-anchor="start" x="1555.5" y="-219.8" font-family="Arial" font-weight="bold" font-size="14.00">Mean: 30.58</text>
<text text-anchor="start" x="1571" y="-202.8" font-family="Arial" font-weight="bold" font-size="14.00">n = 133</text>
<text text-anchor="start" x="1593" y="-184.8" font-family="Arial" font-size="9.00"> </text>
<path fill="none" stroke="#333333" d="M1552.5,-181C1552.5,-181 1636.5,-181 1636.5,-181 1642.5,-181 1648.5,-187 1648.5,-193 1648.5,-193 1648.5,-233 1648.5,-233 1648.5,-239 1642.5,-245 1636.5,-245 1636.5,-245 1552.5,-245 1552.5,-245 1546.5,-245 1540.5,-239 1540.5,-233 1540.5,-233 1540.5,-193 1540.5,-193 1540.5,-187 1546.5,-181 1552.5,-181"/>
<text text-anchor="start" x="1580" y="-166.8" font-family="Arial" font-weight="bold" font-size="14.00">time</text>
</g>
<!-- 18&#45;&gt;22 -->
<g id="edge20" class="edge">
<title>18&#45;&gt;22</title>
<path fill="none" stroke="#888888" d="M1546.43,-307.67C1550.87,-299.03 1555.46,-290.07 1559.98,-281.27"/>
<polygon fill="#888888" stroke="#888888" points="1563.19,-282.67 1564.65,-272.18 1556.97,-279.48 1563.19,-282.67"/>
</g>
<!-- 26 -->
<g id="node26" class="node">
<title>26</title>
<text text-anchor="start" x="1951.5" y="-253.8" font-family="Arial" font-weight="bold" font-size="14.00"> &lt; 32.78</text>
<path fill="#ebebeb" stroke="transparent" d="M1934.5,-181C1934.5,-181 2018.5,-181 2018.5,-181 2024.5,-181 2030.5,-187 2030.5,-193 2030.5,-193 2030.5,-233 2030.5,-233 2030.5,-239 2024.5,-245 2018.5,-245 2018.5,-245 1934.5,-245 1934.5,-245 1928.5,-245 1922.5,-239 1922.5,-233 1922.5,-233 1922.5,-193 1922.5,-193 1922.5,-187 1928.5,-181 1934.5,-181"/>
<text text-anchor="start" x="1923.5" y="-242.4" font-family="Arial" font-size="2.00"> </text>
<text text-anchor="start" x="1923.5" y="-236.4" font-family="Arial" font-size="7.00"> &#160;26</text>
<text text-anchor="start" x="1937.5" y="-219.8" font-family="Arial" font-weight="bold" font-size="14.00">Mean: 29.72</text>
<text text-anchor="start" x="1956.5" y="-202.8" font-family="Arial" font-weight="bold" font-size="14.00">n = 77</text>
<text text-anchor="start" x="1975" y="-184.8" font-family="Arial" font-size="9.00"> </text>
<path fill="none" stroke="#333333" d="M1934.5,-181C1934.5,-181 2018.5,-181 2018.5,-181 2024.5,-181 2030.5,-187 2030.5,-193 2030.5,-193 2030.5,-233 2030.5,-233 2030.5,-239 2024.5,-245 2018.5,-245 2018.5,-245 1934.5,-245 1934.5,-245 1928.5,-245 1922.5,-239 1922.5,-233 1922.5,-233 1922.5,-193 1922.5,-193 1922.5,-187 1928.5,-181 1934.5,-181"/>
<text text-anchor="start" x="1962" y="-166.8" font-family="Arial" font-weight="bold" font-size="14.00">time</text>
</g>
<!-- 25&#45;&gt;26 -->
<g id="edge25" class="edge">
<title>25&#45;&gt;26</title>
<path fill="none" stroke="#888888" d="M1976.5,-307.67C1976.5,-299.39 1976.5,-290.83 1976.5,-282.38"/>
<polygon fill="#888888" stroke="#888888" points="1980,-282.18 1976.5,-272.18 1973,-282.18 1980,-282.18"/>
</g>
<!-- 29 -->
<g id="node27" class="node">
<title>29</title>
<text text-anchor="start" x="2186" y="-253.8" font-family="Arial" font-weight="bold" font-size="14.00"> ≥ 32.78</text>
<path fill="#ebebeb" stroke="transparent" d="M2172.5,-181C2172.5,-181 2248.5,-181 2248.5,-181 2254.5,-181 2260.5,-187 2260.5,-193 2260.5,-193 2260.5,-233 2260.5,-233 2260.5,-239 2254.5,-245 2248.5,-245 2248.5,-245 2172.5,-245 2172.5,-245 2166.5,-245 2160.5,-239 2160.5,-233 2160.5,-233 2160.5,-193 2160.5,-193 2160.5,-187 2166.5,-181 2172.5,-181"/>
<text text-anchor="start" x="2161.5" y="-242.4" font-family="Arial" font-size="2.00"> </text>
<text text-anchor="start" x="2161.5" y="-236.4" font-family="Arial" font-size="7.00"> &#160;29</text>
<text text-anchor="start" x="2175.5" y="-219.8" font-family="Arial" font-weight="bold" font-size="14.00">Mean: 33.8</text>
<text text-anchor="start" x="2190.5" y="-202.8" font-family="Arial" font-weight="bold" font-size="14.00">n = 17</text>
<text text-anchor="start" x="2209" y="-184.8" font-family="Arial" font-size="9.00"> </text>
<path fill="none" stroke="#333333" d="M2172.5,-181C2172.5,-181 2248.5,-181 2248.5,-181 2254.5,-181 2260.5,-187 2260.5,-193 2260.5,-193 2260.5,-233 2260.5,-233 2260.5,-239 2254.5,-245 2248.5,-245 2248.5,-245 2172.5,-245 2172.5,-245 2166.5,-245 2160.5,-239 2160.5,-233 2160.5,-233 2160.5,-193 2160.5,-193 2160.5,-187 2166.5,-181 2172.5,-181"/>
<text text-anchor="start" x="2177.5" y="-166.8" font-family="Arial" font-weight="bold" font-size="14.00">air_humid</text>
</g>
<!-- 25&#45;&gt;29 -->
<g id="edge26" class="edge">
<title>25&#45;&gt;29</title>
<path fill="none" stroke="#888888" d="M2058.67,-312.62C2085.17,-295.41 2114.3,-276.49 2139.89,-259.87"/>
<polygon fill="#888888" stroke="#888888" points="2141.95,-262.7 2148.43,-254.32 2138.13,-256.83 2141.95,-262.7"/>
</g>
<!-- 20 -->
<g id="node22" class="node">
<title>20</title>
<text text-anchor="start" x="1265" y="-99.8" font-family="Arial" font-weight="bold" font-size="14.00"> &lt; 28.5</text>
<path fill="#f8766d" fill-opacity="0.623529" stroke="transparent" d="M1245.5,-27C1245.5,-27 1327.5,-27 1327.5,-27 1333.5,-27 1339.5,-33 1339.5,-39 1339.5,-39 1339.5,-79 1339.5,-79 1339.5,-85 1333.5,-91 1327.5,-91 1327.5,-91 1245.5,-91 1245.5,-91 1239.5,-91 1233.5,-85 1233.5,-79 1233.5,-79 1233.5,-39 1233.5,-39 1233.5,-33 1239.5,-27 1245.5,-27"/>
<text text-anchor="start" x="1234.5" y="-88.4" font-family="Arial" font-size="2.00"> </text>
<text text-anchor="start" x="1234.5" y="-82.4" font-family="Arial" font-size="7.00"> &#160;20</text>
<text text-anchor="start" x="1248.5" y="-65.8" font-family="Arial" font-weight="bold" font-size="14.00">Predict 27.9</text>
<text text-anchor="start" x="1266.5" y="-48.8" font-family="Arial" font-weight="bold" font-size="14.00">n = 99</text>
<text text-anchor="start" x="1285" y="-30.8" font-family="Arial" font-size="9.00"> </text>
<path fill="none" stroke="#333333" d="M1245.5,-27C1245.5,-27 1327.5,-27 1327.5,-27 1333.5,-27 1339.5,-33 1339.5,-39 1339.5,-39 1339.5,-79 1339.5,-79 1339.5,-85 1333.5,-91 1327.5,-91 1327.5,-91 1245.5,-91 1245.5,-91 1239.5,-91 1233.5,-85 1233.5,-79 1233.5,-79 1233.5,-39 1233.5,-39 1233.5,-33 1239.5,-27 1245.5,-27"/>
<text text-anchor="start" x="1284.5" y="-12.8" font-family="Arial" font-weight="bold" font-size="14.00"> </text>
</g>
<!-- 19&#45;&gt;20 -->
<g id="edge21" class="edge">
<title>19&#45;&gt;20</title>
<path fill="none" stroke="#888888" d="M1380.17,-153.67C1370.89,-144.39 1361.25,-134.75 1351.83,-125.33"/>
<polygon fill="#888888" stroke="#888888" points="1354.22,-122.77 1344.68,-118.18 1349.27,-127.72 1354.22,-122.77"/>
</g>
<!-- 21 -->
<g id="node23" class="node">
<title>21</title>
<text text-anchor="start" x="1418" y="-99.8" font-family="Arial" font-weight="bold" font-size="14.00"> ≥ 28.5</text>
<path fill="#f8766d" fill-opacity="0.400000" stroke="transparent" d="M1394.5,-27C1394.5,-27 1483.5,-27 1483.5,-27 1489.5,-27 1495.5,-33 1495.5,-39 1495.5,-39 1495.5,-79 1495.5,-79 1495.5,-85 1489.5,-91 1483.5,-91 1483.5,-91 1394.5,-91 1394.5,-91 1388.5,-91 1382.5,-85 1382.5,-79 1382.5,-79 1382.5,-39 1382.5,-39 1382.5,-33 1388.5,-27 1394.5,-27"/>
<text text-anchor="start" x="1383.5" y="-88.4" font-family="Arial" font-size="2.00"> </text>
<text text-anchor="start" x="1383.5" y="-82.4" font-family="Arial" font-size="7.00"> &#160;21</text>
<text text-anchor="start" x="1397.5" y="-65.8" font-family="Arial" font-weight="bold" font-size="14.00">Predict 34.11</text>
<text text-anchor="start" x="1423" y="-48.8" font-family="Arial" font-weight="bold" font-size="14.00">n = 1</text>
<text text-anchor="start" x="1437.5" y="-30.8" font-family="Arial" font-size="9.00"> </text>
<path fill="none" stroke="#333333" d="M1394.5,-27C1394.5,-27 1483.5,-27 1483.5,-27 1489.5,-27 1495.5,-33 1495.5,-39 1495.5,-39 1495.5,-79 1495.5,-79 1495.5,-85 1489.5,-91 1483.5,-91 1483.5,-91 1394.5,-91 1394.5,-91 1388.5,-91 1382.5,-85 1382.5,-79 1382.5,-79 1382.5,-39 1382.5,-39 1382.5,-33 1388.5,-27 1394.5,-27"/>
<text text-anchor="start" x="1437" y="-12.8" font-family="Arial" font-weight="bold" font-size="14.00"> </text>
</g>
<!-- 19&#45;&gt;21 -->
<g id="edge22" class="edge">
<title>19&#45;&gt;21</title>
<path fill="none" stroke="#888888" d="M1438.5,-153.67C1438.5,-145.39 1438.5,-136.83 1438.5,-128.38"/>
<polygon fill="#888888" stroke="#888888" points="1442,-128.18 1438.5,-118.18 1435,-128.18 1442,-128.18"/>
</g>
<!-- 23 -->
<g id="node24" class="node">
<title>23</title>
<text text-anchor="start" x="1577" y="-99.8" font-family="Arial" font-weight="bold" font-size="14.00"> &lt; 9.5</text>
<path fill="#f8766d" fill-opacity="0.478431" stroke="transparent" d="M1549.5,-27C1549.5,-27 1639.5,-27 1639.5,-27 1645.5,-27 1651.5,-33 1651.5,-39 1651.5,-39 1651.5,-79 1651.5,-79 1651.5,-85 1645.5,-91 1639.5,-91 1639.5,-91 1549.5,-91 1549.5,-91 1543.5,-91 1537.5,-85 1537.5,-79 1537.5,-79 1537.5,-39 1537.5,-39 1537.5,-33 1543.5,-27 1549.5,-27"/>
<text text-anchor="start" x="1538.5" y="-88.4" font-family="Arial" font-size="2.00"> </text>
<text text-anchor="start" x="1538.5" y="-82.4" font-family="Arial" font-size="7.00"> &#160;23</text>
<text text-anchor="start" x="1552.5" y="-65.8" font-family="Arial" font-weight="bold" font-size="14.00">Predict 32.01</text>
<text text-anchor="start" x="1574.5" y="-48.8" font-family="Arial" font-weight="bold" font-size="14.00">n = 43</text>
<text text-anchor="start" x="1593" y="-30.8" font-family="Arial" font-size="9.00"> </text>
<path fill="none" stroke="#333333" d="M1549.5,-27C1549.5,-27 1639.5,-27 1639.5,-27 1645.5,-27 1651.5,-33 1651.5,-39 1651.5,-39 1651.5,-79 1651.5,-79 1651.5,-85 1645.5,-91 1639.5,-91 1639.5,-91 1549.5,-91 1549.5,-91 1543.5,-91 1537.5,-85 1537.5,-79 1537.5,-79 1537.5,-39 1537.5,-39 1537.5,-33 1543.5,-27 1549.5,-27"/>
<text text-anchor="start" x="1592.5" y="-12.8" font-family="Arial" font-weight="bold" font-size="14.00"> </text>
</g>
<!-- 22&#45;&gt;23 -->
<g id="edge23" class="edge">
<title>22&#45;&gt;23</title>
<path fill="none" stroke="#888888" d="M1594.5,-153.67C1594.5,-145.39 1594.5,-136.83 1594.5,-128.38"/>
<polygon fill="#888888" stroke="#888888" points="1598,-128.18 1594.5,-118.18 1591,-128.18 1598,-128.18"/>
</g>
<!-- 24 -->
<g id="node25" class="node">
<title>24</title>
<text text-anchor="start" x="1729.5" y="-99.8" font-family="Arial" font-weight="bold" font-size="14.00"> ≥ 9.5</text>
<path fill="#f8766d" fill-opacity="0.552941" stroke="transparent" d="M1705.5,-27C1705.5,-27 1787.5,-27 1787.5,-27 1793.5,-27 1799.5,-33 1799.5,-39 1799.5,-39 1799.5,-79 1799.5,-79 1799.5,-85 1793.5,-91 1787.5,-91 1787.5,-91 1705.5,-91 1705.5,-91 1699.5,-91 1693.5,-85 1693.5,-79 1693.5,-79 1693.5,-39 1693.5,-39 1693.5,-33 1699.5,-27 1705.5,-27"/>
<text text-anchor="start" x="1694.5" y="-88.4" font-family="Arial" font-size="2.00"> </text>
<text text-anchor="start" x="1694.5" y="-82.4" font-family="Arial" font-size="7.00"> &#160;24</text>
<text text-anchor="start" x="1708.5" y="-65.8" font-family="Arial" font-weight="bold" font-size="14.00">Predict 29.9</text>
<text text-anchor="start" x="1726.5" y="-48.8" font-family="Arial" font-weight="bold" font-size="14.00">n = 90</text>
<text text-anchor="start" x="1745" y="-30.8" font-family="Arial" font-size="9.00"> </text>
<path fill="none" stroke="#333333" d="M1705.5,-27C1705.5,-27 1787.5,-27 1787.5,-27 1793.5,-27 1799.5,-33 1799.5,-39 1799.5,-39 1799.5,-79 1799.5,-79 1799.5,-85 1793.5,-91 1787.5,-91 1787.5,-91 1705.5,-91 1705.5,-91 1699.5,-91 1693.5,-85 1693.5,-79 1693.5,-79 1693.5,-39 1693.5,-39 1693.5,-33 1699.5,-27 1705.5,-27"/>
<text text-anchor="start" x="1744.5" y="-12.8" font-family="Arial" font-weight="bold" font-size="14.00"> </text>
</g>
<!-- 22&#45;&gt;24 -->
<g id="edge24" class="edge">
<title>22&#45;&gt;24</title>
<path fill="none" stroke="#888888" d="M1652.83,-153.67C1662.11,-144.39 1671.75,-134.75 1681.17,-125.33"/>
<polygon fill="#888888" stroke="#888888" points="1683.73,-127.72 1688.32,-118.18 1678.78,-122.77 1683.73,-127.72"/>
</g>
<!-- 27 -->
<g id="node28" class="node">
<title>27</title>
<text text-anchor="start" x="1877" y="-99.8" font-family="Arial" font-weight="bold" font-size="14.00"> &lt; 13.5</text>
<path fill="#f8766d" fill-opacity="0.521569" stroke="transparent" d="M1853.5,-27C1853.5,-27 1943.5,-27 1943.5,-27 1949.5,-27 1955.5,-33 1955.5,-39 1955.5,-39 1955.5,-79 1955.5,-79 1955.5,-85 1949.5,-91 1943.5,-91 1943.5,-91 1853.5,-91 1853.5,-91 1847.5,-91 1841.5,-85 1841.5,-79 1841.5,-79 1841.5,-39 1841.5,-39 1841.5,-33 1847.5,-27 1853.5,-27"/>
<text text-anchor="start" x="1842.5" y="-88.4" font-family="Arial" font-size="2.00"> </text>
<text text-anchor="start" x="1842.5" y="-82.4" font-family="Arial" font-size="7.00"> &#160;27</text>
<text text-anchor="start" x="1856.5" y="-65.8" font-family="Arial" font-weight="bold" font-size="14.00">Predict 30.75</text>
<text text-anchor="start" x="1878.5" y="-48.8" font-family="Arial" font-weight="bold" font-size="14.00">n = 30</text>
<text text-anchor="start" x="1897" y="-30.8" font-family="Arial" font-size="9.00"> </text>
<path fill="none" stroke="#333333" d="M1853.5,-27C1853.5,-27 1943.5,-27 1943.5,-27 1949.5,-27 1955.5,-33 1955.5,-39 1955.5,-39 1955.5,-79 1955.5,-79 1955.5,-85 1949.5,-91 1943.5,-91 1943.5,-91 1853.5,-91 1853.5,-91 1847.5,-91 1841.5,-85 1841.5,-79 1841.5,-79 1841.5,-39 1841.5,-39 1841.5,-33 1847.5,-27 1853.5,-27"/>
<text text-anchor="start" x="1896.5" y="-12.8" font-family="Arial" font-weight="bold" font-size="14.00"> </text>
</g>
<!-- 26&#45;&gt;27 -->
<g id="edge27" class="edge">
<title>26&#45;&gt;27</title>
<path fill="none" stroke="#888888" d="M1946.57,-153.67C1942.13,-145.03 1937.54,-136.07 1933.02,-127.27"/>
<polygon fill="#888888" stroke="#888888" points="1936.03,-125.48 1928.35,-118.18 1929.81,-128.67 1936.03,-125.48"/>
</g>
<!-- 28 -->
<g id="node29" class="node">
<title>28</title>
<text text-anchor="start" x="2033.5" y="-99.8" font-family="Arial" font-weight="bold" font-size="14.00"> ≥ 13.5</text>
<path fill="#f8766d" fill-opacity="0.584314" stroke="transparent" d="M2009.5,-27C2009.5,-27 2099.5,-27 2099.5,-27 2105.5,-27 2111.5,-33 2111.5,-39 2111.5,-39 2111.5,-79 2111.5,-79 2111.5,-85 2105.5,-91 2099.5,-91 2099.5,-91 2009.5,-91 2009.5,-91 2003.5,-91 1997.5,-85 1997.5,-79 1997.5,-79 1997.5,-39 1997.5,-39 1997.5,-33 2003.5,-27 2009.5,-27"/>
<text text-anchor="start" x="1998.5" y="-88.4" font-family="Arial" font-size="2.00"> </text>
<text text-anchor="start" x="1998.5" y="-82.4" font-family="Arial" font-size="7.00"> &#160;28</text>
<text text-anchor="start" x="2012.5" y="-65.8" font-family="Arial" font-weight="bold" font-size="14.00">Predict 29.07</text>
<text text-anchor="start" x="2034.5" y="-48.8" font-family="Arial" font-weight="bold" font-size="14.00">n = 47</text>
<text text-anchor="start" x="2053" y="-30.8" font-family="Arial" font-size="9.00"> </text>
<path fill="none" stroke="#333333" d="M2009.5,-27C2009.5,-27 2099.5,-27 2099.5,-27 2105.5,-27 2111.5,-33 2111.5,-39 2111.5,-39 2111.5,-79 2111.5,-79 2111.5,-85 2105.5,-91 2099.5,-91 2099.5,-91 2009.5,-91 2009.5,-91 2003.5,-91 1997.5,-85 1997.5,-79 1997.5,-79 1997.5,-39 1997.5,-39 1997.5,-33 2003.5,-27 2009.5,-27"/>
<text text-anchor="start" x="2052.5" y="-12.8" font-family="Arial" font-weight="bold" font-size="14.00"> </text>
</g>
<!-- 26&#45;&gt;28 -->
<g id="edge28" class="edge">
<title>26&#45;&gt;28</title>
<path fill="none" stroke="#888888" d="M2006.43,-153.67C2010.87,-145.03 2015.46,-136.07 2019.98,-127.27"/>
<polygon fill="#888888" stroke="#888888" points="2023.19,-128.67 2024.65,-118.18 2016.97,-125.48 2023.19,-128.67"/>
</g>
<!-- 30 -->
<g id="node30" class="node">
<title>30</title>
<text text-anchor="start" x="2189" y="-99.8" font-family="Arial" font-weight="bold" font-size="14.00"> &lt; 95.5</text>
<path fill="#f8766d" fill-opacity="0.396078" stroke="transparent" d="M2165.5,-27C2165.5,-27 2255.5,-27 2255.5,-27 2261.5,-27 2267.5,-33 2267.5,-39 2267.5,-39 2267.5,-79 2267.5,-79 2267.5,-85 2261.5,-91 2255.5,-91 2255.5,-91 2165.5,-91 2165.5,-91 2159.5,-91 2153.5,-85 2153.5,-79 2153.5,-79 2153.5,-39 2153.5,-39 2153.5,-33 2159.5,-27 2165.5,-27"/>
<text text-anchor="start" x="2154.5" y="-88.4" font-family="Arial" font-size="2.00"> </text>
<text text-anchor="start" x="2154.5" y="-82.4" font-family="Arial" font-size="7.00"> &#160;30</text>
<text text-anchor="start" x="2168.5" y="-65.8" font-family="Arial" font-weight="bold" font-size="14.00">Predict 34.23</text>
<text text-anchor="start" x="2190.5" y="-48.8" font-family="Arial" font-weight="bold" font-size="14.00">n = 15</text>
<text text-anchor="start" x="2209" y="-30.8" font-family="Arial" font-size="9.00"> </text>
<path fill="none" stroke="#333333" d="M2165.5,-27C2165.5,-27 2255.5,-27 2255.5,-27 2261.5,-27 2267.5,-33 2267.5,-39 2267.5,-39 2267.5,-79 2267.5,-79 2267.5,-85 2261.5,-91 2255.5,-91 2255.5,-91 2165.5,-91 2165.5,-91 2159.5,-91 2153.5,-85 2153.5,-79 2153.5,-79 2153.5,-39 2153.5,-39 2153.5,-33 2159.5,-27 2165.5,-27"/>
<text text-anchor="start" x="2208.5" y="-12.8" font-family="Arial" font-weight="bold" font-size="14.00"> </text>
</g>
<!-- 29&#45;&gt;30 -->
<g id="edge29" class="edge">
<title>29&#45;&gt;30</title>
<path fill="none" stroke="#888888" d="M2210.5,-153.67C2210.5,-145.39 2210.5,-136.83 2210.5,-128.38"/>
<polygon fill="#888888" stroke="#888888" points="2214,-128.18 2210.5,-118.18 2207,-128.18 2214,-128.18"/>
</g>
<!-- 31 -->
<g id="node31" class="node">
<title>31</title>
<text text-anchor="start" x="2345.5" y="-99.8" font-family="Arial" font-weight="bold" font-size="14.00"> ≥ 95.5</text>
<path fill="#f8766d" fill-opacity="0.525490" stroke="transparent" d="M2321.5,-27C2321.5,-27 2411.5,-27 2411.5,-27 2417.5,-27 2423.5,-33 2423.5,-39 2423.5,-39 2423.5,-79 2423.5,-79 2423.5,-85 2417.5,-91 2411.5,-91 2411.5,-91 2321.5,-91 2321.5,-91 2315.5,-91 2309.5,-85 2309.5,-79 2309.5,-79 2309.5,-39 2309.5,-39 2309.5,-33 2315.5,-27 2321.5,-27"/>
<text text-anchor="start" x="2310.5" y="-88.4" font-family="Arial" font-size="2.00"> </text>
<text text-anchor="start" x="2310.5" y="-82.4" font-family="Arial" font-size="7.00"> &#160;31</text>
<text text-anchor="start" x="2324.5" y="-65.8" font-family="Arial" font-weight="bold" font-size="14.00">Predict 30.61</text>
<text text-anchor="start" x="2350.5" y="-48.8" font-family="Arial" font-weight="bold" font-size="14.00">n = 2</text>
<text text-anchor="start" x="2365" y="-30.8" font-family="Arial" font-size="9.00"> </text>
<path fill="none" stroke="#333333" d="M2321.5,-27C2321.5,-27 2411.5,-27 2411.5,-27 2417.5,-27 2423.5,-33 2423.5,-39 2423.5,-39 2423.5,-79 2423.5,-79 2423.5,-85 2417.5,-91 2411.5,-91 2411.5,-91 2321.5,-91 2321.5,-91 2315.5,-91 2309.5,-85 2309.5,-79 2309.5,-79 2309.5,-39 2309.5,-39 2309.5,-33 2315.5,-27 2321.5,-27"/>
<text text-anchor="start" x="2364.5" y="-12.8" font-family="Arial" font-weight="bold" font-size="14.00"> </text>
</g>
<!-- 29&#45;&gt;31 -->
<g id="edge30" class="edge">
<title>29&#45;&gt;31</title>
<path fill="none" stroke="#888888" d="M2270.37,-153.67C2279.88,-144.39 2289.78,-134.75 2299.45,-125.33"/>
<polygon fill="#888888" stroke="#888888" points="2302.07,-127.66 2306.79,-118.18 2297.19,-122.65 2302.07,-127.66"/>
</g>
</g>
</svg>
