<?xml version="1.0" encoding="utf-8"?>
<svg xmlns="http://www.w3.org/2000/svg" xmlns:xlink="http://www.w3.org/1999/xlink" width="1000" height="400" viewBox="0 0 4000 1600">
<defs>
  <clipPath id="clip280">
    <rect x="0" y="0" width="4000" height="1600"/>
  </clipPath>
</defs>
<path clip-path="url(#clip280)" d="M0 1600 L4000 1600 L4000 0 L0 0  Z" fill="#ffffff" fill-rule="evenodd" fill-opacity="1"/>
<defs>
  <clipPath id="clip281">
    <rect x="800" y="0" width="2801" height="1600"/>
  </clipPath>
</defs>
<path clip-path="url(#clip280)" d="M202.004 1497.68 L3180 1497.68 L3180 47.2441 L202.004 47.2441  Z" fill="#ffffff" fill-rule="evenodd" fill-opacity="1"/>
<defs>
  <clipPath id="clip282">
    <rect x="202" y="47" width="2979" height="1451"/>
  </clipPath>
</defs>
<polyline clip-path="url(#clip282)" style="stroke:#000000; stroke-linecap:round; stroke-linejoin:round; stroke-width:2; stroke-opacity:0.1; fill:none" points="286.287,1497.68 286.287,47.2441 "/>
<polyline clip-path="url(#clip282)" style="stroke:#000000; stroke-linecap:round; stroke-linejoin:round; stroke-width:2; stroke-opacity:0.1; fill:none" points="1093.79,1497.68 1093.79,47.2441 "/>
<polyline clip-path="url(#clip282)" style="stroke:#000000; stroke-linecap:round; stroke-linejoin:round; stroke-width:2; stroke-opacity:0.1; fill:none" points="1901.29,1497.68 1901.29,47.2441 "/>
<polyline clip-path="url(#clip282)" style="stroke:#000000; stroke-linecap:round; stroke-linejoin:round; stroke-width:2; stroke-opacity:0.1; fill:none" points="2708.79,1497.68 2708.79,47.2441 "/>
<polyline clip-path="url(#clip280)" style="stroke:#000000; stroke-linecap:round; stroke-linejoin:round; stroke-width:4; stroke-opacity:1; fill:none" points="202.004,1497.68 3180,1497.68 "/>
<polyline clip-path="url(#clip280)" style="stroke:#000000; stroke-linecap:round; stroke-linejoin:round; stroke-width:4; stroke-opacity:1; fill:none" points="286.287,1497.68 286.287,1478.78 "/>
<polyline clip-path="url(#clip280)" style="stroke:#000000; stroke-linecap:round; stroke-linejoin:round; stroke-width:4; stroke-opacity:1; fill:none" points="1093.79,1497.68 1093.79,1478.78 "/>
<polyline clip-path="url(#clip280)" style="stroke:#000000; stroke-linecap:round; stroke-linejoin:round; stroke-width:4; stroke-opacity:1; fill:none" points="1901.29,1497.68 1901.29,1478.78 "/>
<polyline clip-path="url(#clip280)" style="stroke:#000000; stroke-linecap:round; stroke-linejoin:round; stroke-width:4; stroke-opacity:1; fill:none" points="2708.79,1497.68 2708.79,1478.78 "/>
<path clip-path="url(#clip280)" d="M141.47 1573.85 L159.829 1573.85 L159.829 1578.28 L135.142 1578.28 L135.142 1573.85 Q138.136 1570.75 143.293 1565.55 Q148.475 1560.31 149.803 1558.8 Q152.329 1555.96 153.319 1554.01 Q154.334 1552.03 154.334 1550.13 Q154.334 1547.03 152.147 1545.08 Q149.985 1543.12 146.496 1543.12 Q144.022 1543.12 141.261 1543.98 Q138.527 1544.84 135.402 1546.59 L135.402 1541.27 Q138.579 1540 141.339 1539.35 Q144.1 1538.7 146.391 1538.7 Q152.433 1538.7 156.027 1541.72 Q159.621 1544.74 159.621 1549.79 Q159.621 1552.19 158.709 1554.35 Q157.824 1556.48 155.454 1559.4 Q154.803 1560.15 151.313 1563.77 Q147.824 1567.37 141.47 1573.85 Z" fill="#000000" fill-rule="nonzero" fill-opacity="1" /><path clip-path="url(#clip280)" d="M182.12 1542.86 Q178.058 1542.86 176.001 1546.87 Q173.969 1550.86 173.969 1558.88 Q173.969 1566.87 176.001 1570.88 Q178.058 1574.87 182.12 1574.87 Q186.209 1574.87 188.24 1570.88 Q190.297 1566.87 190.297 1558.88 Q190.297 1550.86 188.24 1546.87 Q186.209 1542.86 182.12 1542.86 M182.12 1538.7 Q188.657 1538.7 192.094 1543.88 Q195.558 1549.04 195.558 1558.88 Q195.558 1568.7 192.094 1573.88 Q188.657 1579.04 182.12 1579.04 Q175.584 1579.04 172.12 1573.88 Q168.683 1568.7 168.683 1558.88 Q168.683 1549.04 172.12 1543.88 Q175.584 1538.7 182.12 1538.7 Z" fill="#000000" fill-rule="nonzero" fill-opacity="1" /><path clip-path="url(#clip280)" d="M209.334 1573.85 L227.693 1573.85 L227.693 1578.28 L203.006 1578.28 L203.006 1573.85 Q206.001 1570.75 211.157 1565.55 Q216.339 1560.31 217.667 1558.8 Q220.193 1555.96 221.183 1554.01 Q222.198 1552.03 222.198 1550.13 Q222.198 1547.03 220.011 1545.08 Q217.849 1543.12 214.36 1543.12 Q211.886 1543.12 209.125 1543.98 Q206.391 1544.84 203.266 1546.59 L203.266 1541.27 Q206.443 1540 209.204 1539.35 Q211.964 1538.7 214.256 1538.7 Q220.297 1538.7 223.891 1541.72 Q227.485 1544.74 227.485 1549.79 Q227.485 1552.19 226.573 1554.35 Q225.688 1556.48 223.318 1559.4 Q222.667 1560.15 219.178 1563.77 Q215.688 1567.37 209.334 1573.85 Z" fill="#000000" fill-rule="nonzero" fill-opacity="1" /><path clip-path="url(#clip280)" d="M254.672 1557.32 Q258.448 1558.12 260.558 1560.68 Q262.693 1563.23 262.693 1566.98 Q262.693 1572.73 258.735 1575.88 Q254.776 1579.04 247.485 1579.04 Q245.037 1579.04 242.433 1578.54 Q239.854 1578.07 237.094 1577.11 L237.094 1572.03 Q239.282 1573.31 241.886 1573.96 Q244.49 1574.61 247.328 1574.61 Q252.276 1574.61 254.854 1572.65 Q257.459 1570.7 257.459 1566.98 Q257.459 1563.54 255.037 1561.61 Q252.641 1559.66 248.344 1559.66 L243.813 1559.66 L243.813 1555.34 L248.552 1555.34 Q252.433 1555.34 254.49 1553.8 Q256.547 1552.24 256.547 1549.32 Q256.547 1546.33 254.412 1544.74 Q252.302 1543.12 248.344 1543.12 Q246.183 1543.12 243.709 1543.59 Q241.235 1544.06 238.266 1545.05 L238.266 1540.36 Q241.261 1539.53 243.865 1539.11 Q246.495 1538.7 248.813 1538.7 Q254.802 1538.7 258.292 1541.43 Q261.781 1544.14 261.781 1548.77 Q261.781 1552 259.933 1554.24 Q258.084 1556.46 254.672 1557.32 Z" fill="#000000" fill-rule="nonzero" fill-opacity="1" /><path clip-path="url(#clip280)" d="M269.568 1561.54 L283.604 1561.54 L283.604 1565.81 L269.568 1565.81 L269.568 1561.54 Z" fill="#000000" fill-rule="nonzero" fill-opacity="1" /><path clip-path="url(#clip280)" d="M303.161 1542.86 Q299.099 1542.86 297.042 1546.87 Q295.01 1550.86 295.01 1558.88 Q295.01 1566.87 297.042 1570.88 Q299.099 1574.87 303.161 1574.87 Q307.25 1574.87 309.281 1570.88 Q311.338 1566.87 311.338 1558.88 Q311.338 1550.86 309.281 1546.87 Q307.25 1542.86 303.161 1542.86 M303.161 1538.7 Q309.698 1538.7 313.135 1543.88 Q316.599 1549.04 316.599 1558.88 Q316.599 1568.7 313.135 1573.88 Q309.698 1579.04 303.161 1579.04 Q296.625 1579.04 293.162 1573.88 Q289.724 1568.7 289.724 1558.88 Q289.724 1549.04 293.162 1543.88 Q296.625 1538.7 303.161 1538.7 Z" fill="#000000" fill-rule="nonzero" fill-opacity="1" /><path clip-path="url(#clip280)" d="M326.755 1573.85 L335.349 1573.85 L335.349 1544.19 L326 1546.07 L326 1541.27 L335.297 1539.4 L340.557 1539.4 L340.557 1573.85 L349.151 1573.85 L349.151 1578.28 L326.755 1578.28 L326.755 1573.85 Z" fill="#000000" fill-rule="nonzero" fill-opacity="1" /><path clip-path="url(#clip280)" d="M356.677 1561.54 L370.713 1561.54 L370.713 1565.81 L356.677 1565.81 L356.677 1561.54 Z" fill="#000000" fill-rule="nonzero" fill-opacity="1" /><path clip-path="url(#clip280)" d="M390.27 1542.86 Q386.208 1542.86 384.151 1546.87 Q382.119 1550.86 382.119 1558.88 Q382.119 1566.87 384.151 1570.88 Q386.208 1574.87 390.27 1574.87 Q394.359 1574.87 396.39 1570.88 Q398.447 1566.87 398.447 1558.88 Q398.447 1550.86 396.39 1546.87 Q394.359 1542.86 390.27 1542.86 M390.27 1538.7 Q396.807 1538.7 400.244 1543.88 Q403.708 1549.04 403.708 1558.88 Q403.708 1568.7 400.244 1573.88 Q396.807 1579.04 390.27 1579.04 Q383.734 1579.04 380.27 1573.88 Q376.833 1568.7 376.833 1558.88 Q376.833 1549.04 380.27 1543.88 Q383.734 1538.7 390.27 1538.7 Z" fill="#000000" fill-rule="nonzero" fill-opacity="1" /><path clip-path="url(#clip280)" d="M413.109 1577.47 L413.109 1572.68 Q415.088 1573.62 417.119 1574.11 Q419.15 1574.61 421.104 1574.61 Q426.312 1574.61 429.046 1571.12 Q431.807 1567.6 432.197 1560.47 Q430.687 1562.71 428.369 1563.9 Q426.051 1565.1 423.239 1565.1 Q417.406 1565.1 413.994 1561.59 Q410.609 1558.05 410.609 1551.93 Q410.609 1545.94 414.15 1542.32 Q417.692 1538.7 423.577 1538.7 Q430.322 1538.7 433.864 1543.88 Q437.432 1549.04 437.432 1558.88 Q437.432 1568.07 433.057 1573.57 Q428.708 1579.04 421.338 1579.04 Q419.359 1579.04 417.328 1578.64 Q415.296 1578.25 413.109 1577.47 M423.577 1560.99 Q427.119 1560.99 429.176 1558.57 Q431.26 1556.14 431.26 1551.93 Q431.26 1547.73 429.176 1545.31 Q427.119 1542.86 423.577 1542.86 Q420.036 1542.86 417.953 1545.31 Q415.895 1547.73 415.895 1551.93 Q415.895 1556.14 417.953 1558.57 Q420.036 1560.99 423.577 1560.99 Z" fill="#000000" fill-rule="nonzero" fill-opacity="1" /><path clip-path="url(#clip280)" d="M949.557 1573.85 L967.916 1573.85 L967.916 1578.28 L943.229 1578.28 L943.229 1573.85 Q946.223 1570.75 951.38 1565.55 Q956.562 1560.31 957.89 1558.8 Q960.416 1555.96 961.406 1554.01 Q962.421 1552.03 962.421 1550.13 Q962.421 1547.03 960.234 1545.08 Q958.072 1543.12 954.583 1543.12 Q952.109 1543.12 949.348 1543.98 Q946.614 1544.84 943.489 1546.59 L943.489 1541.27 Q946.666 1540 949.427 1539.35 Q952.187 1538.7 954.479 1538.7 Q960.52 1538.7 964.114 1541.72 Q967.708 1544.74 967.708 1549.79 Q967.708 1552.19 966.796 1554.35 Q965.911 1556.48 963.541 1559.4 Q962.89 1560.15 959.4 1563.77 Q955.911 1567.37 949.557 1573.85 Z" fill="#000000" fill-rule="nonzero" fill-opacity="1" /><path clip-path="url(#clip280)" d="M990.208 1542.86 Q986.145 1542.86 984.088 1546.87 Q982.057 1550.86 982.057 1558.88 Q982.057 1566.87 984.088 1570.88 Q986.145 1574.87 990.208 1574.87 Q994.296 1574.87 996.327 1570.88 Q998.385 1566.87 998.385 1558.88 Q998.385 1550.86 996.327 1546.87 Q994.296 1542.86 990.208 1542.86 M990.208 1538.7 Q996.744 1538.7 1000.18 1543.88 Q1003.65 1549.04 1003.65 1558.88 Q1003.65 1568.7 1000.18 1573.88 Q996.744 1579.04 990.208 1579.04 Q983.671 1579.04 980.208 1573.88 Q976.77 1568.7 976.77 1558.88 Q976.77 1549.04 980.208 1543.88 Q983.671 1538.7 990.208 1538.7 Z" fill="#000000" fill-rule="nonzero" fill-opacity="1" /><path clip-path="url(#clip280)" d="M1017.42 1573.85 L1035.78 1573.85 L1035.78 1578.28 L1011.09 1578.28 L1011.09 1573.85 Q1014.09 1570.75 1019.24 1565.55 Q1024.43 1560.31 1025.75 1558.8 Q1028.28 1555.96 1029.27 1554.01 Q1030.29 1552.03 1030.29 1550.13 Q1030.29 1547.03 1028.1 1545.08 Q1025.94 1543.12 1022.45 1543.12 Q1019.97 1543.12 1017.21 1543.98 Q1014.48 1544.84 1011.35 1546.59 L1011.35 1541.27 Q1014.53 1540 1017.29 1539.35 Q1020.05 1538.7 1022.34 1538.7 Q1028.38 1538.7 1031.98 1541.72 Q1035.57 1544.74 1035.57 1549.79 Q1035.57 1552.19 1034.66 1554.35 Q1033.78 1556.48 1031.41 1559.4 Q1030.75 1560.15 1027.26 1563.77 Q1023.78 1567.37 1017.42 1573.85 Z" fill="#000000" fill-rule="nonzero" fill-opacity="1" /><path clip-path="url(#clip280)" d="M1062.76 1557.32 Q1066.54 1558.12 1068.64 1560.68 Q1070.78 1563.23 1070.78 1566.98 Q1070.78 1572.73 1066.82 1575.88 Q1062.86 1579.04 1055.57 1579.04 Q1053.12 1579.04 1050.52 1578.54 Q1047.94 1578.07 1045.18 1577.11 L1045.18 1572.03 Q1047.37 1573.31 1049.97 1573.96 Q1052.58 1574.61 1055.42 1574.61 Q1060.36 1574.61 1062.94 1572.65 Q1065.55 1570.7 1065.55 1566.98 Q1065.55 1563.54 1063.12 1561.61 Q1060.73 1559.66 1056.43 1559.66 L1051.9 1559.66 L1051.9 1555.34 L1056.64 1555.34 Q1060.52 1555.34 1062.58 1553.8 Q1064.63 1552.24 1064.63 1549.32 Q1064.63 1546.33 1062.5 1544.74 Q1060.39 1543.12 1056.43 1543.12 Q1054.27 1543.12 1051.8 1543.59 Q1049.32 1544.06 1046.35 1545.05 L1046.35 1540.36 Q1049.35 1539.53 1051.95 1539.11 Q1054.58 1538.7 1056.9 1538.7 Q1062.89 1538.7 1066.38 1541.43 Q1069.87 1544.14 1069.87 1548.77 Q1069.87 1552 1068.02 1554.24 Q1066.17 1556.46 1062.76 1557.32 Z" fill="#000000" fill-rule="nonzero" fill-opacity="1" /><path clip-path="url(#clip280)" d="M1077.66 1561.54 L1091.69 1561.54 L1091.69 1565.81 L1077.66 1565.81 L1077.66 1561.54 Z" fill="#000000" fill-rule="nonzero" fill-opacity="1" /><path clip-path="url(#clip280)" d="M1111.25 1542.86 Q1107.19 1542.86 1105.13 1546.87 Q1103.1 1550.86 1103.1 1558.88 Q1103.1 1566.87 1105.13 1570.88 Q1107.19 1574.87 1111.25 1574.87 Q1115.34 1574.87 1117.37 1570.88 Q1119.43 1566.87 1119.43 1558.88 Q1119.43 1550.86 1117.37 1546.87 Q1115.34 1542.86 1111.25 1542.86 M1111.25 1538.7 Q1117.79 1538.7 1121.22 1543.88 Q1124.69 1549.04 1124.69 1558.88 Q1124.69 1568.7 1121.22 1573.88 Q1117.79 1579.04 1111.25 1579.04 Q1104.71 1579.04 1101.25 1573.88 Q1097.81 1568.7 1097.81 1558.88 Q1097.81 1549.04 1101.25 1543.88 Q1104.71 1538.7 1111.25 1538.7 Z" fill="#000000" fill-rule="nonzero" fill-opacity="1" /><path clip-path="url(#clip280)" d="M1134.84 1573.85 L1143.44 1573.85 L1143.44 1544.19 L1134.09 1546.07 L1134.09 1541.27 L1143.38 1539.4 L1148.64 1539.4 L1148.64 1573.85 L1157.24 1573.85 L1157.24 1578.28 L1134.84 1578.28 L1134.84 1573.85 Z" fill="#000000" fill-rule="nonzero" fill-opacity="1" /><path clip-path="url(#clip280)" d="M1164.76 1561.54 L1178.8 1561.54 L1178.8 1565.81 L1164.76 1565.81 L1164.76 1561.54 Z" fill="#000000" fill-rule="nonzero" fill-opacity="1" /><path clip-path="url(#clip280)" d="M1188.02 1573.85 L1196.61 1573.85 L1196.61 1544.19 L1187.26 1546.07 L1187.26 1541.27 L1196.56 1539.4 L1201.82 1539.4 L1201.82 1573.85 L1210.41 1573.85 L1210.41 1578.28 L1188.02 1578.28 L1188.02 1573.85 Z" fill="#000000" fill-rule="nonzero" fill-opacity="1" /><path clip-path="url(#clip280)" d="M1221.95 1573.85 L1230.54 1573.85 L1230.54 1544.19 L1221.2 1546.07 L1221.2 1541.27 L1230.49 1539.4 L1235.75 1539.4 L1235.75 1573.85 L1244.35 1573.85 L1244.35 1578.28 L1221.95 1578.28 L1221.95 1573.85 Z" fill="#000000" fill-rule="nonzero" fill-opacity="1" /><path clip-path="url(#clip280)" d="M1756.73 1573.85 L1775.09 1573.85 L1775.09 1578.28 L1750.4 1578.28 L1750.4 1573.85 Q1753.4 1570.75 1758.56 1565.55 Q1763.74 1560.31 1765.07 1558.8 Q1767.59 1555.96 1768.58 1554.01 Q1769.6 1552.03 1769.6 1550.13 Q1769.6 1547.03 1767.41 1545.08 Q1765.25 1543.12 1761.76 1543.12 Q1759.28 1543.12 1756.52 1543.98 Q1753.79 1544.84 1750.66 1546.59 L1750.66 1541.27 Q1753.84 1540 1756.6 1539.35 Q1759.36 1538.7 1761.65 1538.7 Q1767.7 1538.7 1771.29 1541.72 Q1774.88 1544.74 1774.88 1549.79 Q1774.88 1552.19 1773.97 1554.35 Q1773.09 1556.48 1770.72 1559.4 Q1770.07 1560.15 1766.58 1563.77 Q1763.09 1567.37 1756.73 1573.85 Z" fill="#000000" fill-rule="nonzero" fill-opacity="1" /><path clip-path="url(#clip280)" d="M1797.38 1542.86 Q1793.32 1542.86 1791.26 1546.87 Q1789.23 1550.86 1789.23 1558.88 Q1789.23 1566.87 1791.26 1570.88 Q1793.32 1574.87 1797.38 1574.87 Q1801.47 1574.87 1803.5 1570.88 Q1805.56 1566.87 1805.56 1558.88 Q1805.56 1550.86 1803.5 1546.87 Q1801.47 1542.86 1797.38 1542.86 M1797.38 1538.7 Q1803.92 1538.7 1807.36 1543.88 Q1810.82 1549.04 1810.82 1558.88 Q1810.82 1568.7 1807.36 1573.88 Q1803.92 1579.04 1797.38 1579.04 Q1790.85 1579.04 1787.38 1573.88 Q1783.95 1568.7 1783.95 1558.88 Q1783.95 1549.04 1787.38 1543.88 Q1790.85 1538.7 1797.38 1538.7 Z" fill="#000000" fill-rule="nonzero" fill-opacity="1" /><path clip-path="url(#clip280)" d="M1824.6 1573.85 L1842.96 1573.85 L1842.96 1578.28 L1818.27 1578.28 L1818.27 1573.85 Q1821.26 1570.75 1826.42 1565.55 Q1831.6 1560.31 1832.93 1558.8 Q1835.46 1555.96 1836.45 1554.01 Q1837.46 1552.03 1837.46 1550.13 Q1837.46 1547.03 1835.27 1545.08 Q1833.11 1543.12 1829.62 1543.12 Q1827.15 1543.12 1824.39 1543.98 Q1821.65 1544.84 1818.53 1546.59 L1818.53 1541.27 Q1821.71 1540 1824.47 1539.35 Q1827.23 1538.7 1829.52 1538.7 Q1835.56 1538.7 1839.15 1541.72 Q1842.75 1544.74 1842.75 1549.79 Q1842.75 1552.19 1841.84 1554.35 Q1840.95 1556.48 1838.58 1559.4 Q1837.93 1560.15 1834.44 1563.77 Q1830.95 1567.37 1824.6 1573.85 Z" fill="#000000" fill-rule="nonzero" fill-opacity="1" /><path clip-path="url(#clip280)" d="M1869.93 1557.32 Q1873.71 1558.12 1875.82 1560.68 Q1877.96 1563.23 1877.96 1566.98 Q1877.96 1572.73 1874 1575.88 Q1870.04 1579.04 1862.75 1579.04 Q1860.3 1579.04 1857.7 1578.54 Q1855.12 1578.07 1852.36 1577.11 L1852.36 1572.03 Q1854.54 1573.31 1857.15 1573.96 Q1859.75 1574.61 1862.59 1574.61 Q1867.54 1574.61 1870.12 1572.65 Q1872.72 1570.7 1872.72 1566.98 Q1872.72 1563.54 1870.3 1561.61 Q1867.9 1559.66 1863.61 1559.66 L1859.08 1559.66 L1859.08 1555.34 L1863.82 1555.34 Q1867.7 1555.34 1869.75 1553.8 Q1871.81 1552.24 1871.81 1549.32 Q1871.81 1546.33 1869.67 1544.74 Q1867.57 1543.12 1863.61 1543.12 Q1861.45 1543.12 1858.97 1543.59 Q1856.5 1544.06 1853.53 1545.05 L1853.53 1540.36 Q1856.52 1539.53 1859.13 1539.11 Q1861.76 1538.7 1864.08 1538.7 Q1870.07 1538.7 1873.55 1541.43 Q1877.04 1544.14 1877.04 1548.77 Q1877.04 1552 1875.2 1554.24 Q1873.35 1556.46 1869.93 1557.32 Z" fill="#000000" fill-rule="nonzero" fill-opacity="1" /><path clip-path="url(#clip280)" d="M1884.83 1561.54 L1898.87 1561.54 L1898.87 1565.81 L1884.83 1565.81 L1884.83 1561.54 Z" fill="#000000" fill-rule="nonzero" fill-opacity="1" /><path clip-path="url(#clip280)" d="M1918.42 1542.86 Q1914.36 1542.86 1912.3 1546.87 Q1910.27 1550.86 1910.27 1558.88 Q1910.27 1566.87 1912.3 1570.88 Q1914.36 1574.87 1918.42 1574.87 Q1922.51 1574.87 1924.54 1570.88 Q1926.6 1566.87 1926.6 1558.88 Q1926.6 1550.86 1924.54 1546.87 Q1922.51 1542.86 1918.42 1542.86 M1918.42 1538.7 Q1924.96 1538.7 1928.4 1543.88 Q1931.86 1549.04 1931.86 1558.88 Q1931.86 1568.7 1928.4 1573.88 Q1924.96 1579.04 1918.42 1579.04 Q1911.89 1579.04 1908.42 1573.88 Q1904.99 1568.7 1904.99 1558.88 Q1904.99 1549.04 1908.42 1543.88 Q1911.89 1538.7 1918.42 1538.7 Z" fill="#000000" fill-rule="nonzero" fill-opacity="1" /><path clip-path="url(#clip280)" d="M1942.02 1573.85 L1950.61 1573.85 L1950.61 1544.19 L1941.26 1546.07 L1941.26 1541.27 L1950.56 1539.4 L1955.82 1539.4 L1955.82 1573.85 L1964.41 1573.85 L1964.41 1578.28 L1942.02 1578.28 L1942.02 1573.85 Z" fill="#000000" fill-rule="nonzero" fill-opacity="1" /><path clip-path="url(#clip280)" d="M1971.94 1561.54 L1985.98 1561.54 L1985.98 1565.81 L1971.94 1565.81 L1971.94 1561.54 Z" fill="#000000" fill-rule="nonzero" fill-opacity="1" /><path clip-path="url(#clip280)" d="M1995.19 1573.85 L2003.79 1573.85 L2003.79 1544.19 L1994.44 1546.07 L1994.44 1541.27 L2003.74 1539.4 L2009 1539.4 L2009 1573.85 L2017.59 1573.85 L2017.59 1578.28 L1995.19 1578.28 L1995.19 1573.85 Z" fill="#000000" fill-rule="nonzero" fill-opacity="1" /><path clip-path="url(#clip280)" d="M2044.15 1557.32 Q2047.93 1558.12 2050.04 1560.68 Q2052.17 1563.23 2052.17 1566.98 Q2052.17 1572.73 2048.22 1575.88 Q2044.26 1579.04 2036.97 1579.04 Q2034.52 1579.04 2031.91 1578.54 Q2029.34 1578.07 2026.57 1577.11 L2026.57 1572.03 Q2028.76 1573.31 2031.37 1573.96 Q2033.97 1574.61 2036.81 1574.61 Q2041.76 1574.61 2044.34 1572.65 Q2046.94 1570.7 2046.94 1566.98 Q2046.94 1563.54 2044.52 1561.61 Q2042.12 1559.66 2037.82 1559.66 L2033.29 1559.66 L2033.29 1555.34 L2038.03 1555.34 Q2041.91 1555.34 2043.97 1553.8 Q2046.03 1552.24 2046.03 1549.32 Q2046.03 1546.33 2043.89 1544.74 Q2041.78 1543.12 2037.82 1543.12 Q2035.66 1543.12 2033.19 1543.59 Q2030.72 1544.06 2027.75 1545.05 L2027.75 1540.36 Q2030.74 1539.53 2033.35 1539.11 Q2035.98 1538.7 2038.29 1538.7 Q2044.28 1538.7 2047.77 1541.43 Q2051.26 1544.14 2051.26 1548.77 Q2051.26 1552 2049.41 1554.24 Q2047.56 1556.46 2044.15 1557.32 Z" fill="#000000" fill-rule="nonzero" fill-opacity="1" /><path clip-path="url(#clip280)" d="M2564.43 1573.85 L2582.79 1573.85 L2582.79 1578.28 L2558.1 1578.28 L2558.1 1573.85 Q2561.1 1570.75 2566.25 1565.55 Q2571.43 1560.31 2572.76 1558.8 Q2575.29 1555.96 2576.28 1554.01 Q2577.29 1552.03 2577.29 1550.13 Q2577.29 1547.03 2575.11 1545.08 Q2572.94 1543.12 2569.46 1543.12 Q2566.98 1543.12 2564.22 1543.98 Q2561.49 1544.84 2558.36 1546.59 L2558.36 1541.27 Q2561.54 1540 2564.3 1539.35 Q2567.06 1538.7 2569.35 1538.7 Q2575.39 1538.7 2578.99 1541.72 Q2582.58 1544.74 2582.58 1549.79 Q2582.58 1552.19 2581.67 1554.35 Q2580.78 1556.48 2578.41 1559.4 Q2577.76 1560.15 2574.27 1563.77 Q2570.78 1567.37 2564.43 1573.85 Z" fill="#000000" fill-rule="nonzero" fill-opacity="1" /><path clip-path="url(#clip280)" d="M2605.08 1542.86 Q2601.02 1542.86 2598.96 1546.87 Q2596.93 1550.86 2596.93 1558.88 Q2596.93 1566.87 2598.96 1570.88 Q2601.02 1574.87 2605.08 1574.87 Q2609.17 1574.87 2611.2 1570.88 Q2613.26 1566.87 2613.26 1558.88 Q2613.26 1550.86 2611.2 1546.87 Q2609.17 1542.86 2605.08 1542.86 M2605.08 1538.7 Q2611.62 1538.7 2615.05 1543.88 Q2618.52 1549.04 2618.52 1558.88 Q2618.52 1568.7 2615.05 1573.88 Q2611.62 1579.04 2605.08 1579.04 Q2598.54 1579.04 2595.08 1573.88 Q2591.64 1568.7 2591.64 1558.88 Q2591.64 1549.04 2595.08 1543.88 Q2598.54 1538.7 2605.08 1538.7 Z" fill="#000000" fill-rule="nonzero" fill-opacity="1" /><path clip-path="url(#clip280)" d="M2632.29 1573.85 L2650.65 1573.85 L2650.65 1578.28 L2625.97 1578.28 L2625.97 1573.85 Q2628.96 1570.75 2634.12 1565.55 Q2639.3 1560.31 2640.63 1558.8 Q2643.15 1555.96 2644.14 1554.01 Q2645.16 1552.03 2645.16 1550.13 Q2645.16 1547.03 2642.97 1545.08 Q2640.81 1543.12 2637.32 1543.12 Q2634.85 1543.12 2632.08 1543.98 Q2629.35 1544.84 2626.23 1546.59 L2626.23 1541.27 Q2629.4 1540 2632.16 1539.35 Q2634.92 1538.7 2637.22 1538.7 Q2643.26 1538.7 2646.85 1541.72 Q2650.44 1544.74 2650.44 1549.79 Q2650.44 1552.19 2649.53 1554.35 Q2648.65 1556.48 2646.28 1559.4 Q2645.63 1560.15 2642.14 1563.77 Q2638.65 1567.37 2632.29 1573.85 Z" fill="#000000" fill-rule="nonzero" fill-opacity="1" /><path clip-path="url(#clip280)" d="M2677.63 1557.32 Q2681.41 1558.12 2683.52 1560.68 Q2685.65 1563.23 2685.65 1566.98 Q2685.65 1572.73 2681.69 1575.88 Q2677.74 1579.04 2670.44 1579.04 Q2668 1579.04 2665.39 1578.54 Q2662.81 1578.07 2660.05 1577.11 L2660.05 1572.03 Q2662.24 1573.31 2664.85 1573.96 Q2667.45 1574.61 2670.29 1574.61 Q2675.24 1574.61 2677.81 1572.65 Q2680.42 1570.7 2680.42 1566.98 Q2680.42 1563.54 2678 1561.61 Q2675.6 1559.66 2671.3 1559.66 L2666.77 1559.66 L2666.77 1555.34 L2671.51 1555.34 Q2675.39 1555.34 2677.45 1553.8 Q2679.51 1552.24 2679.51 1549.32 Q2679.51 1546.33 2677.37 1544.74 Q2675.26 1543.12 2671.3 1543.12 Q2669.14 1543.12 2666.67 1543.59 Q2664.19 1544.06 2661.23 1545.05 L2661.23 1540.36 Q2664.22 1539.53 2666.82 1539.11 Q2669.45 1538.7 2671.77 1538.7 Q2677.76 1538.7 2681.25 1541.43 Q2684.74 1544.14 2684.74 1548.77 Q2684.74 1552 2682.89 1554.24 Q2681.04 1556.46 2677.63 1557.32 Z" fill="#000000" fill-rule="nonzero" fill-opacity="1" /><path clip-path="url(#clip280)" d="M2692.53 1561.54 L2706.56 1561.54 L2706.56 1565.81 L2692.53 1565.81 L2692.53 1561.54 Z" fill="#000000" fill-rule="nonzero" fill-opacity="1" /><path clip-path="url(#clip280)" d="M2726.12 1542.86 Q2722.06 1542.86 2720 1546.87 Q2717.97 1550.86 2717.97 1558.88 Q2717.97 1566.87 2720 1570.88 Q2722.06 1574.87 2726.12 1574.87 Q2730.21 1574.87 2732.24 1570.88 Q2734.3 1566.87 2734.3 1558.88 Q2734.3 1550.86 2732.24 1546.87 Q2730.21 1542.86 2726.12 1542.86 M2726.12 1538.7 Q2732.66 1538.7 2736.09 1543.88 Q2739.56 1549.04 2739.56 1558.88 Q2739.56 1568.7 2736.09 1573.88 Q2732.66 1579.04 2726.12 1579.04 Q2719.58 1579.04 2716.12 1573.88 Q2712.68 1568.7 2712.68 1558.88 Q2712.68 1549.04 2716.12 1543.88 Q2719.58 1538.7 2726.12 1538.7 Z" fill="#000000" fill-rule="nonzero" fill-opacity="1" /><path clip-path="url(#clip280)" d="M2749.71 1573.85 L2758.31 1573.85 L2758.31 1544.19 L2748.96 1546.07 L2748.96 1541.27 L2758.26 1539.4 L2763.52 1539.4 L2763.52 1573.85 L2772.11 1573.85 L2772.11 1578.28 L2749.71 1578.28 L2749.71 1573.85 Z" fill="#000000" fill-rule="nonzero" fill-opacity="1" /><path clip-path="url(#clip280)" d="M2779.64 1561.54 L2793.67 1561.54 L2793.67 1565.81 L2779.64 1565.81 L2779.64 1561.54 Z" fill="#000000" fill-rule="nonzero" fill-opacity="1" /><path clip-path="url(#clip280)" d="M2802.89 1573.85 L2811.48 1573.85 L2811.48 1544.19 L2802.14 1546.07 L2802.14 1541.27 L2811.43 1539.4 L2816.69 1539.4 L2816.69 1573.85 L2825.29 1573.85 L2825.29 1578.28 L2802.89 1578.28 L2802.89 1573.85 Z" fill="#000000" fill-rule="nonzero" fill-opacity="1" /><path clip-path="url(#clip280)" d="M2835.96 1539.4 L2856.61 1539.4 L2856.61 1543.83 L2840.78 1543.83 L2840.78 1553.36 Q2841.93 1552.97 2843.07 1552.79 Q2844.22 1552.58 2845.36 1552.58 Q2851.88 1552.58 2855.68 1556.14 Q2859.48 1559.71 2859.48 1565.81 Q2859.48 1572.08 2855.57 1575.57 Q2851.67 1579.04 2844.56 1579.04 Q2842.11 1579.04 2839.56 1578.62 Q2837.03 1578.2 2834.32 1577.37 L2834.32 1572.08 Q2836.67 1573.36 2839.17 1573.98 Q2841.67 1574.61 2844.45 1574.61 Q2848.96 1574.61 2851.59 1572.24 Q2854.22 1569.87 2854.22 1565.81 Q2854.22 1561.74 2851.59 1559.37 Q2848.96 1557 2844.45 1557 Q2842.34 1557 2840.23 1557.47 Q2838.15 1557.94 2835.96 1558.93 L2835.96 1539.4 Z" fill="#000000" fill-rule="nonzero" fill-opacity="1" /><polyline clip-path="url(#clip282)" style="stroke:#000000; stroke-linecap:round; stroke-linejoin:round; stroke-width:2; stroke-opacity:0.1; fill:none" points="202.004,1392.03 3180,1392.03 "/>
<polyline clip-path="url(#clip282)" style="stroke:#000000; stroke-linecap:round; stroke-linejoin:round; stroke-width:2; stroke-opacity:0.1; fill:none" points="202.004,1115.18 3180,1115.18 "/>
<polyline clip-path="url(#clip282)" style="stroke:#000000; stroke-linecap:round; stroke-linejoin:round; stroke-width:2; stroke-opacity:0.1; fill:none" points="202.004,838.329 3180,838.329 "/>
<polyline clip-path="url(#clip282)" style="stroke:#000000; stroke-linecap:round; stroke-linejoin:round; stroke-width:2; stroke-opacity:0.1; fill:none" points="202.004,561.479 3180,561.479 "/>
<polyline clip-path="url(#clip282)" style="stroke:#000000; stroke-linecap:round; stroke-linejoin:round; stroke-width:2; stroke-opacity:0.1; fill:none" points="202.004,284.628 3180,284.628 "/>
<polyline clip-path="url(#clip280)" style="stroke:#000000; stroke-linecap:round; stroke-linejoin:round; stroke-width:4; stroke-opacity:1; fill:none" points="202.004,1497.68 202.004,47.2441 "/>
<polyline clip-path="url(#clip280)" style="stroke:#000000; stroke-linecap:round; stroke-linejoin:round; stroke-width:4; stroke-opacity:1; fill:none" points="202.004,1392.03 217.008,1392.03 "/>
<polyline clip-path="url(#clip280)" style="stroke:#000000; stroke-linecap:round; stroke-linejoin:round; stroke-width:4; stroke-opacity:1; fill:none" points="202.004,1115.18 217.008,1115.18 "/>
<polyline clip-path="url(#clip280)" style="stroke:#000000; stroke-linecap:round; stroke-linejoin:round; stroke-width:4; stroke-opacity:1; fill:none" points="202.004,838.329 217.008,838.329 "/>
<polyline clip-path="url(#clip280)" style="stroke:#000000; stroke-linecap:round; stroke-linejoin:round; stroke-width:4; stroke-opacity:1; fill:none" points="202.004,561.479 217.008,561.479 "/>
<polyline clip-path="url(#clip280)" style="stroke:#000000; stroke-linecap:round; stroke-linejoin:round; stroke-width:4; stroke-opacity:1; fill:none" points="202.004,284.628 217.008,284.628 "/>
<path clip-path="url(#clip280)" d="M133.983 1390.51 Q137.759 1391.32 139.868 1393.87 Q142.004 1396.42 142.004 1400.17 Q142.004 1405.92 138.045 1409.08 Q134.087 1412.23 126.795 1412.23 Q124.347 1412.23 121.743 1411.73 Q119.165 1411.26 116.405 1410.3 L116.405 1405.22 Q118.592 1406.5 121.196 1407.15 Q123.801 1407.8 126.639 1407.8 Q131.587 1407.8 134.165 1405.85 Q136.769 1403.89 136.769 1400.17 Q136.769 1396.73 134.347 1394.8 Q131.952 1392.85 127.655 1392.85 L123.123 1392.85 L123.123 1388.53 L127.863 1388.53 Q131.743 1388.53 133.801 1386.99 Q135.858 1385.43 135.858 1382.51 Q135.858 1379.52 133.722 1377.93 Q131.613 1376.32 127.655 1376.32 Q125.493 1376.32 123.019 1376.78 Q120.545 1377.25 117.577 1378.24 L117.577 1373.55 Q120.571 1372.72 123.176 1372.3 Q125.806 1371.89 128.123 1371.89 Q134.113 1371.89 137.603 1374.62 Q141.092 1377.33 141.092 1381.97 Q141.092 1385.2 139.243 1387.43 Q137.394 1389.65 133.983 1390.51 Z" fill="#000000" fill-rule="nonzero" fill-opacity="1" /><path clip-path="url(#clip280)" d="M129.035 1113.08 Q125.493 1113.08 123.41 1115.51 Q121.353 1117.93 121.353 1122.15 Q121.353 1126.34 123.41 1128.79 Q125.493 1131.21 129.035 1131.21 Q132.577 1131.21 134.634 1128.79 Q136.717 1126.34 136.717 1122.15 Q136.717 1117.93 134.634 1115.51 Q132.577 1113.08 129.035 1113.08 M139.478 1096.6 L139.478 1101.39 Q137.498 1100.45 135.467 1099.96 Q133.462 1099.46 131.483 1099.46 Q126.275 1099.46 123.514 1102.98 Q120.78 1106.5 120.389 1113.6 Q121.926 1111.34 124.243 1110.14 Q126.561 1108.92 129.347 1108.92 Q135.207 1108.92 138.592 1112.49 Q142.004 1116.03 142.004 1122.15 Q142.004 1128.14 138.462 1131.76 Q134.92 1135.38 129.035 1135.38 Q122.29 1135.38 118.722 1130.22 Q115.155 1125.04 115.155 1115.22 Q115.155 1106 119.53 1100.53 Q123.905 1095.04 131.274 1095.04 Q133.254 1095.04 135.259 1095.43 Q137.29 1095.82 139.478 1096.6 Z" fill="#000000" fill-rule="nonzero" fill-opacity="1" /><path clip-path="url(#clip280)" d="M117.681 856.962 L117.681 852.171 Q119.66 853.108 121.691 853.603 Q123.722 854.098 125.676 854.098 Q130.884 854.098 133.618 850.608 Q136.379 847.092 136.769 839.957 Q135.259 842.197 132.941 843.395 Q130.623 844.592 127.811 844.592 Q121.978 844.592 118.566 841.077 Q115.181 837.535 115.181 831.415 Q115.181 825.426 118.722 821.806 Q122.264 818.186 128.15 818.186 Q134.894 818.186 138.436 823.369 Q142.004 828.525 142.004 838.368 Q142.004 847.561 137.629 853.056 Q133.28 858.525 125.91 858.525 Q123.931 858.525 121.9 858.134 Q119.868 857.743 117.681 856.962 M128.15 840.478 Q131.691 840.478 133.748 838.056 Q135.832 835.634 135.832 831.415 Q135.832 827.223 133.748 824.801 Q131.691 822.353 128.15 822.353 Q124.608 822.353 122.525 824.801 Q120.467 827.223 120.467 831.415 Q120.467 835.634 122.525 838.056 Q124.608 840.478 128.15 840.478 Z" fill="#000000" fill-rule="nonzero" fill-opacity="1" /><path clip-path="url(#clip280)" d="M86.0924 576.491 L94.6861 576.491 L94.6861 546.83 L85.3372 548.705 L85.3372 543.914 L94.6341 542.039 L99.8945 542.039 L99.8945 576.491 L108.488 576.491 L108.488 580.919 L86.0924 580.919 L86.0924 576.491 Z" fill="#000000" fill-rule="nonzero" fill-opacity="1" /><path clip-path="url(#clip280)" d="M123.644 576.491 L142.004 576.491 L142.004 580.919 L117.316 580.919 L117.316 576.491 Q120.311 573.393 125.467 568.184 Q130.649 562.95 131.978 561.439 Q134.504 558.601 135.493 556.648 Q136.509 554.669 136.509 552.768 Q136.509 549.669 134.321 547.716 Q132.16 545.762 128.67 545.762 Q126.196 545.762 123.436 546.622 Q120.702 547.481 117.577 549.226 L117.577 543.914 Q120.754 542.637 123.514 541.986 Q126.275 541.335 128.566 541.335 Q134.608 541.335 138.202 544.356 Q141.795 547.377 141.795 552.429 Q141.795 554.825 140.884 556.986 Q139.998 559.122 137.629 562.038 Q136.978 562.794 133.488 566.413 Q129.998 570.007 123.644 576.491 Z" fill="#000000" fill-rule="nonzero" fill-opacity="1" /><path clip-path="url(#clip280)" d="M85.4154 299.641 L94.0091 299.641 L94.0091 269.979 L84.6602 271.854 L84.6602 267.063 L93.957 265.188 L99.2174 265.188 L99.2174 299.641 L107.811 299.641 L107.811 304.068 L85.4154 304.068 L85.4154 299.641 Z" fill="#000000" fill-rule="nonzero" fill-opacity="1" /><path clip-path="url(#clip280)" d="M118.488 265.188 L139.139 265.188 L139.139 269.615 L123.306 269.615 L123.306 279.146 Q124.452 278.755 125.597 278.573 Q126.743 278.365 127.889 278.365 Q134.399 278.365 138.202 281.932 Q142.004 285.5 142.004 291.594 Q142.004 297.87 138.097 301.359 Q134.191 304.823 127.082 304.823 Q124.634 304.823 122.082 304.406 Q119.556 303.989 116.847 303.156 L116.847 297.87 Q119.191 299.146 121.691 299.771 Q124.191 300.396 126.978 300.396 Q131.483 300.396 134.113 298.026 Q136.743 295.656 136.743 291.594 Q136.743 287.531 134.113 285.161 Q131.483 282.792 126.978 282.792 Q124.868 282.792 122.759 283.26 Q120.676 283.729 118.488 284.719 L118.488 265.188 Z" fill="#000000" fill-rule="nonzero" fill-opacity="1" /><path clip-path="url(#clip280)" d="M-31.4998 930.013 L-31.4998 924.168 L11.7002 924.168 L11.7002 930.013 L-31.4998 930.013 Z" fill="#000000" fill-rule="nonzero" fill-opacity="1" /><path clip-path="url(#clip280)" d="M-7.85992 885.829 L11.7002 885.829 L11.7002 891.153 L-7.68631 891.153 Q-12.287 891.153 -14.5728 892.947 Q-16.8587 894.741 -16.8587 898.329 Q-16.8587 902.641 -14.1099 905.129 Q-11.3611 907.618 -6.61572 907.618 L11.7002 907.618 L11.7002 912.97 L-20.7071 912.97 L-20.7071 907.618 L-15.6724 907.618 Q-18.5948 905.708 -20.0416 903.133 Q-21.4883 900.528 -21.4883 897.143 Q-21.4883 891.559 -18.0161 888.694 Q-14.5728 885.829 -7.85992 885.829 Z" fill="#000000" fill-rule="nonzero" fill-opacity="1" /><path clip-path="url(#clip280)" d="M-33.3227 858.804 L-28.8957 858.804 L-28.8957 863.897 Q-28.8957 866.761 -27.7383 867.89 Q-26.5809 868.989 -23.5716 868.989 L-20.7071 868.989 L-20.7071 860.222 L-16.5694 860.222 L-16.5694 868.989 L11.7002 868.989 L11.7002 874.342 L-16.5694 874.342 L-16.5694 879.435 L-20.7071 879.435 L-20.7071 874.342 L-22.964 874.342 Q-28.3749 874.342 -30.8343 871.825 Q-33.3227 869.308 -33.3227 863.839 L-33.3227 858.804 Z" fill="#000000" fill-rule="nonzero" fill-opacity="1" /><path clip-path="url(#clip280)" d="M-33.3227 854.348 L-33.3227 849.024 L11.7002 849.024 L11.7002 854.348 L-33.3227 854.348 Z" fill="#000000" fill-rule="nonzero" fill-opacity="1" /><path clip-path="url(#clip280)" d="M-16.9745 825.326 Q-16.9745 829.609 -13.618 832.097 Q-10.2905 834.585 -4.47452 834.585 Q1.34142 834.585 4.69788 832.126 Q8.02541 829.638 8.02541 825.326 Q8.02541 821.073 4.66895 818.584 Q1.31248 816.096 -4.47452 816.096 Q-10.2326 816.096 -13.5891 818.584 Q-16.9745 821.073 -16.9745 825.326 M-21.4883 825.326 Q-21.4883 818.382 -16.9745 814.418 Q-12.4606 810.454 -4.47452 810.454 Q3.48261 810.454 8.02541 814.418 Q12.5393 818.382 12.5393 825.326 Q12.5393 832.3 8.02541 836.264 Q3.48261 840.199 -4.47452 840.199 Q-12.4606 840.199 -16.9745 836.264 Q-21.4883 832.3 -21.4883 825.326 Z" fill="#000000" fill-rule="nonzero" fill-opacity="1" /><path clip-path="url(#clip280)" d="M-20.7071 804.725 L-20.7071 799.4 L4.58214 792.745 L-20.7071 786.119 L-20.7071 779.84 L4.58214 773.185 L-20.7071 766.559 L-20.7071 761.235 L11.7002 769.713 L11.7002 775.992 L-14.8622 782.965 L11.7002 789.968 L11.7002 796.247 L-20.7071 804.725 Z" fill="#000000" fill-rule="nonzero" fill-opacity="1" /><path clip-path="url(#clip280)" d="M-33.3227 734.818 L-33.3227 722.549 L-29.185 722.549 L-29.185 729.493 L15.3749 729.493 L15.3749 722.549 L19.5126 722.549 L19.5126 734.818 L-33.3227 734.818 Z" fill="#000000" fill-rule="nonzero" fill-opacity="1" /><path clip-path="url(#clip280)" d="M-31.4998 710.975 L-31.4998 705.13 L6.7812 705.13 L6.7812 684.094 L11.7002 684.094 L11.7002 710.975 L-31.4998 710.975 Z" fill="#000000" fill-rule="nonzero" fill-opacity="1" /><path clip-path="url(#clip280)" d="M-31.4998 668.73 L-31.4998 663.811 L17.1978 678.857 L17.1978 683.776 L-31.4998 668.73 Z" fill="#000000" fill-rule="nonzero" fill-opacity="1" /><path clip-path="url(#clip280)" d="M-19.7522 637.567 L-14.7175 637.567 Q-15.8749 639.824 -16.4536 642.254 Q-17.0323 644.685 -17.0323 647.289 Q-17.0323 651.253 -15.8171 653.25 Q-14.6018 655.217 -12.1712 655.217 Q-10.3194 655.217 -9.2488 653.799 Q-8.20714 652.382 -7.25229 648.099 L-6.8472 646.276 Q-5.63193 640.605 -3.40393 638.232 Q-1.20487 635.831 2.75923 635.831 Q7.2731 635.831 9.90619 639.419 Q12.5393 642.978 12.5393 649.228 Q12.5393 651.832 12.0184 654.667 Q11.5265 657.474 10.5138 660.599 L5.01617 660.599 Q6.54972 657.648 7.33097 654.783 Q8.08328 651.919 8.08328 649.112 Q8.08328 645.35 6.81014 643.325 Q5.50806 641.299 3.16432 641.299 Q0.994196 641.299 -0.163205 642.775 Q-1.32061 644.222 -2.3912 649.17 L-2.82523 651.022 Q-3.86689 655.97 -6.00808 658.169 Q-8.17821 660.368 -11.9398 660.368 Q-16.5115 660.368 -18.9999 657.127 Q-21.4883 653.886 -21.4883 647.926 Q-21.4883 644.974 -21.0543 642.37 Q-20.6203 639.766 -19.7522 637.567 Z" fill="#000000" fill-rule="nonzero" fill-opacity="1" /><path clip-path="url(#clip280)" d="M-33.3227 614.911 L19.5126 614.911 L19.5126 627.179 L15.3749 627.179 L15.3749 620.264 L-29.185 620.264 L-29.185 627.179 L-33.3227 627.179 L-33.3227 614.911 Z" fill="#000000" fill-rule="nonzero" fill-opacity="1" /><polyline clip-path="url(#clip282)" style="stroke:#023eff; stroke-linecap:round; stroke-linejoin:round; stroke-width:5; stroke-opacity:1; fill:none" points="286.287,1270.91 303.109,1247.41 319.932,1247.41 336.755,1247.41 353.578,1247.41 370.401,1247.41 387.224,1247.41 404.047,874.374 420.87,874.374 437.693,874.374 454.516,874.374 471.339,874.374 488.162,874.374 504.985,874.374 521.808,874.374 538.631,874.374 555.454,1077.32 572.277,1077.32 589.099,1077.32 605.922,1077.32 622.745,1014.91 639.568,1077.32 656.391,1202.59 673.214,1197.85 690.037,1260.26 706.86,213.569 723.683,1260.26 740.506,1260.26 757.329,1278.49 774.152,1278.49 790.975,1101.8 807.798,1038.36 824.621,1038.36 841.444,860.904 858.267,860.904 875.09,860.904 891.912,860.904 908.735,860.904 925.558,860.904 942.381,860.904 959.204,1038.36 976.027,1038.36 992.85,1038.36 1009.67,1038.36 1026.5,1038.36 1043.32,1101.8 1060.14,1204 1076.96,1204 1093.79,1260.26 1110.61,1260.26 1127.43,1260.26 1144.26,1260.26 1161.08,1278.49 1177.9,1260.26 1194.73,1101.8 1211.55,860.904 1228.37,860.904 1245.19,860.904 1262.02,860.904 1278.84,860.904 1295.66,860.904 1312.49,1038.36 1329.31,860.904 1346.13,1038.36 1362.95,1101.8 1379.78,1101.8 1396.6,1101.8 1413.42,1101.8 1430.25,1038.36 1447.07,1101.8 1463.89,1204 1480.72,1204 1497.54,1278.49 1514.36,1278.49 1531.18,1260.26 1548.01,1260.26 1564.83,1260.26 1581.65,1260.26 1598.48,1101.8 1615.3,1038.36 1632.12,1038.36 1648.94,1038.36 1665.77,1038.36 1682.59,1038.36 1699.41,860.904 1716.24,860.904 1733.06,860.904 1749.88,1038.36 1766.71,1038.36 1783.53,1038.36 1800.35,1101.8 1817.17,1038.36 1834,1038.36 1850.82,1101.8 1867.64,1204 1884.47,1204 1901.29,1278.49 1918.11,1278.49 1934.93,1260.26 1951.76,1278.49 1968.58,1278.49 1985.4,1278.49 2002.23,1101.8 2019.05,1038.36 2035.87,1038.36 2052.7,860.904 2069.52,1038.36 2086.34,1038.36 2103.16,1101.8 2119.99,1101.8 2136.81,1101.8 2153.63,1101.8 2170.46,1101.8 2187.28,1101.8 2204.1,1101.8 2220.92,1101.8 2237.75,1101.8 2254.57,1101.8 2271.39,1204 2288.22,1204 2305.04,1278.49 2321.86,1260.26 2338.69,1260.26 2355.51,1260.26 2372.33,1260.26 2389.15,1260.26 2405.98,1101.8 2422.8,1101.8 2439.62,1038.36 2456.45,1038.36 2473.27,947.108 2490.09,1038.36 2506.91,1038.36 2523.74,1038.36 2540.56,1038.36 2557.38,1038.36 2574.21,1101.8 2591.03,1101.8 2607.85,1101.8 2624.68,1038.36 2641.5,1101.8 2658.32,1101.8 2675.14,1204 2691.97,1204 2708.79,1278.49 2725.61,1278.49 2742.44,1260.26 2759.26,1278.49 2776.08,1278.49 2792.9,1278.49 2809.73,1101.8 2826.55,1038.36 2843.37,1038.36 2860.2,1038.36 2877.02,1038.36 2893.84,1038.36 2910.67,1101.8 2927.49,1101.8 2944.31,1038.36 2961.13,1101.8 2977.96,1101.8 2994.78,1038.36 3011.6,1101.8 3028.43,1038.36 3045.25,1038.36 3062.07,1101.8 3078.89,985.41 3095.72,985.41 "/>
<polyline clip-path="url(#clip282)" style="stroke:#ff7c00; stroke-linecap:round; stroke-linejoin:round; stroke-width:5; stroke-opacity:1; fill:none" points="286.287,1255.54 303.109,1288.42 319.932,1288.42 336.755,1288.42 353.578,1288.42 370.401,1288.42 387.224,1087.89 404.047,1087.89 420.87,931.151 437.693,931.151 454.516,931.151 471.339,931.151 488.162,931.151 504.985,1087.89 521.808,931.151 538.631,1087.89 555.454,1087.89 572.277,1288.42 589.099,1288.42 605.922,1087.89 622.745,1087.89 639.568,1087.89 656.391,1087.89 673.214,1288.42 690.037,1306.72 706.86,162.484 723.683,1306.72 740.506,1306.72 757.329,1306.72 774.152,1306.72 790.975,1202.83 807.798,1049.48 824.621,1049.48 841.444,908.866 858.267,908.866 875.09,1049.48 891.912,1049.48 908.735,908.866 925.558,908.866 942.381,908.866 959.204,1049.48 976.027,1049.48 992.85,1049.48 1009.67,1049.48 1026.5,1049.48 1043.32,1202.83 1060.14,1202.83 1076.96,1202.83 1093.79,1306.72 1110.61,1306.72 1127.43,1306.72 1144.26,1306.72 1161.08,1306.72 1177.9,1306.72 1194.73,1049.48 1211.55,1049.48 1228.37,908.866 1245.19,908.866 1262.02,908.866 1278.84,1049.48 1295.66,1049.48 1312.49,1049.48 1329.31,1049.48 1346.13,1049.48 1362.95,1049.48 1379.78,1202.83 1396.6,1049.48 1413.42,1049.48 1430.25,1049.48 1447.07,1202.83 1463.89,1202.83 1480.72,1202.83 1497.54,1306.72 1514.36,1306.72 1531.18,1306.72 1548.01,1306.72 1564.83,1306.72 1581.65,1306.72 1598.48,1202.83 1615.3,1049.48 1632.12,1049.48 1648.94,1049.48 1665.77,1049.48 1682.59,1049.48 1699.41,908.866 1716.24,908.866 1733.06,908.866 1749.88,1049.48 1766.71,1049.48 1783.53,1049.48 1800.35,1049.48 1817.17,1049.48 1834,1049.48 1850.82,1202.83 1867.64,1202.83 1884.47,1202.83 1901.29,1306.72 1918.11,1306.72 1934.93,1306.72 1951.76,1306.72 1968.58,1306.72 1985.4,1306.72 2002.23,1202.83 2019.05,1049.48 2035.87,1049.48 2052.7,1049.48 2069.52,1049.48 2086.34,1049.48 2103.16,1049.48 2119.99,1202.83 2136.81,1049.48 2153.63,1202.83 2170.46,1202.83 2187.28,1202.83 2204.1,1202.83 2220.92,1049.48 2237.75,1049.48 2254.57,1202.83 2271.39,1202.83 2288.22,1202.83 2305.04,1306.72 2321.86,1306.72 2338.69,1306.72 2355.51,1306.72 2372.33,1306.72 2389.15,1306.72 2405.98,1202.83 2422.8,1202.83 2439.62,1049.48 2456.45,1049.48 2473.27,1049.48 2490.09,1049.48 2506.91,1049.48 2523.74,1049.48 2540.56,1049.48 2557.38,1049.48 2574.21,1049.48 2591.03,1049.48 2607.85,1049.48 2624.68,1049.48 2641.5,1202.83 2658.32,1202.83 2675.14,1202.83 2691.97,1202.83 2708.79,1306.72 2725.61,1306.72 2742.44,1306.72 2759.26,1306.72 2776.08,1306.72 2792.9,1306.72 2809.73,1202.83 2826.55,1049.48 2843.37,1049.48 2860.2,1049.48 2877.02,1049.48 2893.84,1049.48 2910.67,1049.48 2927.49,1049.48 2944.31,1049.48 2961.13,1202.83 2977.96,1202.83 2994.78,1049.48 3011.6,1202.83 3028.43,1049.48 3045.25,1049.48 3062.07,1049.48 3078.89,908.866 3095.72,908.866 "/>
<polyline clip-path="url(#clip282)" style="stroke:#1ac938; stroke-linecap:round; stroke-linejoin:round; stroke-width:5; stroke-opacity:1; fill:none" points="286.287,1281.05 303.109,1277.31 319.932,1333.69 336.755,1277.31 353.578,1277.31 370.401,1333.69 387.224,1041.29 404.047,1041.29 420.87,1109.27 437.693,1109.27 454.516,1109.27 471.339,1109.27 488.162,1109.27 504.985,1041.29 521.808,1109.27 538.631,1041.29 555.454,1041.29 572.277,1041.29 589.099,1041.29 605.922,1041.29 622.745,1041.29 639.568,1133.34 656.391,1225.57 673.214,1225.57 690.037,1319.65 706.86,88.2942 723.683,1319.65 740.506,1319.65 757.329,1319.65 774.152,1319.65 790.975,1115.41 807.798,891.818 824.621,891.818 841.444,891.818 858.267,957.145 875.09,957.145 891.912,957.145 908.735,957.145 925.558,957.145 942.381,957.145 959.204,1100.95 976.027,1100.95 992.85,1100.95 1009.67,1022.61 1026.5,1100.95 1043.32,1150.51 1060.14,1334.1 1076.96,1334.1 1093.79,1319.65 1110.61,1319.65 1127.43,1319.65 1144.26,1319.65 1161.08,1319.65 1177.9,1319.65 1194.73,1115.41 1211.55,891.818 1228.37,891.818 1245.19,891.818 1262.02,957.145 1278.84,957.145 1295.66,957.145 1312.49,957.145 1329.31,957.145 1346.13,957.145 1362.95,1100.95 1379.78,1150.51 1396.6,1100.95 1413.42,1100.95 1430.25,1100.95 1447.07,1150.51 1463.89,1236.38 1480.72,1334.1 1497.54,1319.65 1514.36,1319.65 1531.18,1319.65 1548.01,1319.65 1564.83,1319.65 1581.65,1319.65 1598.48,1115.41 1615.3,957.145 1632.12,957.145 1648.94,957.145 1665.77,957.145 1682.59,957.145 1699.41,957.145 1716.24,957.145 1733.06,957.145 1749.88,957.145 1766.71,1100.95 1783.53,1022.61 1800.35,1100.95 1817.17,1100.95 1834,1100.95 1850.82,1150.51 1867.64,1334.1 1884.47,1334.1 1901.29,1319.65 1918.11,1319.65 1934.93,1319.65 1951.76,1319.65 1968.58,1319.65 1985.4,1319.65 2002.23,1240.69 2019.05,1060.19 2035.87,1060.19 2052.7,1060.19 2069.52,1060.19 2086.34,1060.19 2103.16,1060.19 2119.99,1060.19 2136.81,1060.19 2153.63,1142.54 2170.46,1150.51 2187.28,1150.51 2204.1,1150.51 2220.92,1100.95 2237.75,1100.95 2254.57,1150.51 2271.39,1236.38 2288.22,1334.1 2305.04,1319.65 2321.86,1319.65 2338.69,1319.65 2355.51,1319.65 2372.33,1319.65 2389.15,1319.65 2405.98,1240.69 2422.8,1060.19 2439.62,1060.19 2456.45,1060.19 2473.27,1060.19 2490.09,1060.19 2506.91,1142.54 2523.74,1142.54 2540.56,1142.54 2557.38,1142.54 2574.21,1100.95 2591.03,1100.95 2607.85,1100.95 2624.68,1100.95 2641.5,1150.51 2658.32,1150.51 2675.14,1334.1 2691.97,1334.1 2708.79,1319.65 2725.61,1319.65 2742.44,1319.65 2759.26,1319.65 2776.08,1319.65 2792.9,1319.65 2809.73,1240.69 2826.55,1060.19 2843.37,1060.19 2860.2,1060.19 2877.02,1060.19 2893.84,1142.54 2910.67,1142.54 2927.49,1142.54 2944.31,1142.54 2961.13,1060.19 2977.96,1150.51 2994.78,1100.95 3011.6,1150.51 3028.43,1100.95 3045.25,1100.95 3062.07,1100.95 3078.89,1022.61 3095.72,434.127 "/>
<polyline clip-path="url(#clip282)" style="stroke:#e8000b; stroke-linecap:round; stroke-linejoin:round; stroke-width:5; stroke-opacity:1; fill:none" points="286.287,1301.78 303.109,1301.78 319.932,1301.78 336.755,1301.78 353.578,1301.78 370.401,1301.78 387.224,1041.23 404.047,1041.23 420.87,1041.23 437.693,1041.23 454.516,1041.23 471.339,1041.23 488.162,1041.23 504.985,1041.23 521.808,1041.23 538.631,1041.23 555.454,1041.23 572.277,1301.78 589.099,1301.78 605.922,1041.23 622.745,1041.23 639.568,1041.23 656.391,1041.23 673.214,1301.78 690.037,1301.78 706.86,1041.23 723.683,1041.23 740.506,1041.23 757.329,1301.78 774.152,1301.78 790.975,1301.78 807.798,1041.23 824.621,1041.23 841.444,1041.23 858.267,1041.23 875.09,1041.23 891.912,1041.23 908.735,1041.23 925.558,1041.23 942.381,1041.23 959.204,1041.23 976.027,1041.23 992.85,1041.23 1009.67,1041.23 1026.5,1041.23 1043.32,1301.78 1060.14,1301.78 1076.96,1301.78 1093.79,1301.78 1110.61,1301.78 1127.43,1301.78 1144.26,1301.78 1161.08,1301.78 1177.9,1301.78 1194.73,1041.23 1211.55,1041.23 1228.37,1041.23 1245.19,1041.23 1262.02,1041.23 1278.84,1041.23 1295.66,1041.23 1312.49,1041.23 1329.31,1041.23 1346.13,1041.23 1362.95,1041.23 1379.78,1041.23 1396.6,1041.23 1413.42,1041.23 1430.25,1041.23 1447.07,1041.23 1463.89,1301.78 1480.72,1301.78 1497.54,1301.78 1514.36,1301.78 1531.18,1301.78 1548.01,1301.78 1564.83,1301.78 1581.65,1301.78 1598.48,1041.23 1615.3,1041.23 1632.12,1041.23 1648.94,1041.23 1665.77,1041.23 1682.59,1041.23 1699.41,1041.23 1716.24,1041.23 1733.06,1041.23 1749.88,1041.23 1766.71,1041.23 1783.53,1041.23 1800.35,1041.23 1817.17,1041.23 1834,1041.23 1850.82,1041.23 1867.64,1301.78 1884.47,1301.78 1901.29,1301.78 1918.11,1301.78 1934.93,1301.78 1951.76,1301.78 1968.58,1301.78 1985.4,1301.78 2002.23,1041.23 2019.05,1041.23 2035.87,1041.23 2052.7,1041.23 2069.52,1041.23 2086.34,1041.23 2103.16,1041.23 2119.99,1041.23 2136.81,1041.23 2153.63,1041.23 2170.46,1301.78 2187.28,1301.78 2204.1,1301.78 2220.92,1041.23 2237.75,1041.23 2254.57,1041.23 2271.39,1301.78 2288.22,1301.78 2305.04,1301.78 2321.86,1301.78 2338.69,1301.78 2355.51,1301.78 2372.33,1301.78 2389.15,1301.78 2405.98,1301.78 2422.8,1041.23 2439.62,1041.23 2456.45,1041.23 2473.27,1041.23 2490.09,1041.23 2506.91,1041.23 2523.74,1041.23 2540.56,1041.23 2557.38,1041.23 2574.21,1041.23 2591.03,1041.23 2607.85,1041.23 2624.68,1041.23 2641.5,1041.23 2658.32,1301.78 2675.14,1301.78 2691.97,1301.78 2708.79,1301.78 2725.61,1301.78 2742.44,1301.78 2759.26,1301.78 2776.08,1301.78 2792.9,1301.78 2809.73,1041.23 2826.55,1041.23 2843.37,1041.23 2860.2,1041.23 2877.02,1041.23 2893.84,1041.23 2910.67,1041.23 2927.49,1041.23 2944.31,1041.23 2961.13,1041.23 2977.96,1041.23 2994.78,1041.23 3011.6,1041.23 3028.43,1041.23 3045.25,1041.23 3062.07,1041.23 3078.89,1041.23 3095.72,1041.23 "/>
<polyline clip-path="url(#clip282)" style="stroke:#000000; stroke-linecap:round; stroke-linejoin:round; stroke-width:6; stroke-opacity:1; fill:none" points="286.287,1277.6 303.109,1328.36 319.932,1206.54 336.755,1306.21 353.578,1313.59 370.401,1383.73 387.224,1160.4 404.047,998.903 420.87,1035.82 437.693,935.227 454.516,994.289 471.339,966.604 488.162,904.774 504.985,918.616 521.808,852.172 538.631,938.919 555.454,1010.9 572.277,1066.27 589.099,1050.58 605.922,997.98 622.745,1085.65 639.568,1157.63 656.391,1305.28 673.214,1364.35 690.037,1440.94 706.86,158.199 723.683,1240.69 740.506,1222.23 757.329,1333.89 774.152,1305.28 790.975,1092.11 807.798,889.085 824.621,935.227 841.444,876.166 858.267,971.218 875.09,898.314 891.912,959.221 908.735,971.218 925.558,909.388 942.381,1018.28 959.204,996.134 976.027,1019.21 992.85,974.909 1009.67,959.221 1026.5,959.221 1043.32,1011.82 1060.14,1196.39 1076.96,1228.69 1093.79,1248.07 1110.61,1249.91 1127.43,1226.84 1144.26,1366.19 1161.08,1356.96 1177.9,1296.06 1194.73,1131.79 1211.55,934.304 1228.37,871.552 1245.19,794.956 1262.02,777.422 1278.84,792.188 1295.66,751.583 1312.49,802.339 1329.31,782.959 1346.13,866.937 1362.95,974.909 1379.78,1051.5 1396.6,1078.27 1413.42,1015.51 1430.25,1045.04 1447.07,1178.86 1463.89,1225 1480.72,1184.39 1497.54,1234.23 1514.36,1265.6 1531.18,1162.24 1548.01,1166.86 1564.83,1245.3 1581.65,1208.39 1598.48,1033.05 1615.3,851.249 1632.12,849.403 1648.94,895.545 1665.77,897.391 1682.59,895.545 1699.41,895.545 1716.24,894.622 1733.06,683.293 1749.88,760.811 1766.71,746.969 1783.53,1013.67 1800.35,984.138 1817.17,964.758 1834,935.227 1850.82,1069.04 1867.64,1161.32 1884.47,1226.84 1901.29,1245.3 1918.11,1263.76 1934.93,1231.46 1951.76,1355.12 1968.58,1359.73 1985.4,1323.74 2002.23,1082.88 2019.05,830.024 2035.87,743.277 2052.7,833.715 2069.52,772.808 2086.34,860.478 2103.16,813.413 2119.99,878.011 2136.81,819.873 2153.63,859.555 2170.46,999.826 2187.28,1035.82 2204.1,1079.19 2220.92,1038.58 2237.75,994.289 2254.57,1099.49 2271.39,1173.32 2288.22,1214.85 2305.04,1225 2321.86,1254.53 2338.69,1154.86 2355.51,1168.7 2372.33,1238.84 2389.15,1231.46 2405.98,1143.79 2422.8,1075.5 2439.62,1027.51 2456.45,934.304 2473.27,930.613 2490.09,1021.97 2506.91,989.675 2523.74,963.835 2540.56,1007.21 2557.38,1137.33 2574.21,1062.58 2591.03,1059.81 2607.85,1090.26 2624.68,1018.28 2641.5,1062.58 2658.32,1150.25 2675.14,1203.77 2691.97,1257.3 2708.79,1302.52 2725.61,1433.56 2742.44,1433.56 2759.26,1456.63 2776.08,1440.94 2792.9,1336.66 2809.73,1217.62 2826.55,1109.64 2843.37,1043.2 2860.2,966.604 2877.02,897.391 2893.84,967.527 2910.67,1014.59 2927.49,1150.25 2944.31,1141.94 2961.13,1151.17 2977.96,1182.55 2994.78,1215.77 3011.6,1141.02 3028.43,1187.16 3045.25,1044.12 3062.07,1122.56 3078.89,888.163 3095.72,302.161 "/>
<path clip-path="url(#clip280)" d="M3305.03 445.512 L3952.76 445.512 L3952.76 95.592 L3305.03 95.592  Z" fill="#ffffff" fill-rule="evenodd" fill-opacity="1"/>
<polyline clip-path="url(#clip280)" style="stroke:#000000; stroke-linecap:round; stroke-linejoin:round; stroke-width:4; stroke-opacity:1; fill:none" points="3305.03,445.512 3952.76,445.512 3952.76,95.592 3305.03,95.592 3305.03,445.512 "/>
<polyline clip-path="url(#clip280)" style="stroke:#023eff; stroke-linecap:round; stroke-linejoin:round; stroke-width:5.625; stroke-opacity:1; fill:none" points="3346.7,153.912 3596.75,153.912 "/>
<path clip-path="url(#clip280)" d="M3643.24 168.977 L3643.24 184.446 L3638.43 184.446 L3638.43 144.185 L3643.24 144.185 L3643.24 148.613 Q3644.75 146.008 3647.05 144.758 Q3649.36 143.482 3652.57 143.482 Q3657.88 143.482 3661.19 147.701 Q3664.52 151.92 3664.52 158.795 Q3664.52 165.67 3661.19 169.888 Q3657.88 174.107 3652.57 174.107 Q3649.36 174.107 3647.05 172.857 Q3644.75 171.581 3643.24 168.977 M3659.55 158.795 Q3659.55 153.508 3657.36 150.514 Q3655.2 147.493 3651.39 147.493 Q3647.59 147.493 3645.41 150.514 Q3643.24 153.508 3643.24 158.795 Q3643.24 164.081 3645.41 167.102 Q3647.59 170.097 3651.39 170.097 Q3655.2 170.097 3657.36 167.102 Q3659.55 164.081 3659.55 158.795 Z" fill="#000000" fill-rule="nonzero" fill-opacity="1" /><path clip-path="url(#clip280)" d="M3689.36 148.665 Q3688.56 148.196 3687.59 147.988 Q3686.65 147.753 3685.51 147.753 Q3681.45 147.753 3679.26 150.409 Q3677.1 153.04 3677.1 157.987 L3677.1 173.352 L3672.28 173.352 L3672.28 144.185 L3677.1 144.185 L3677.1 148.717 Q3678.61 146.06 3681.03 144.784 Q3683.45 143.482 3686.92 143.482 Q3687.41 143.482 3688.01 143.56 Q3688.61 143.613 3689.34 143.743 L3689.36 148.665 Z" fill="#000000" fill-rule="nonzero" fill-opacity="1" /><path clip-path="url(#clip280)" d="M3718.17 157.571 L3718.17 159.915 L3696.13 159.915 Q3696.45 164.862 3699.1 167.467 Q3701.79 170.045 3706.55 170.045 Q3709.31 170.045 3711.89 169.368 Q3714.49 168.691 3717.05 167.336 L3717.05 171.868 Q3714.47 172.961 3711.76 173.534 Q3709.05 174.107 3706.26 174.107 Q3699.29 174.107 3695.2 170.045 Q3691.13 165.982 3691.13 159.055 Q3691.13 151.894 3694.99 147.701 Q3698.87 143.482 3705.43 143.482 Q3711.32 143.482 3714.73 147.284 Q3718.17 151.06 3718.17 157.571 M3713.37 156.165 Q3713.32 152.232 3711.16 149.889 Q3709.02 147.545 3705.48 147.545 Q3701.47 147.545 3699.05 149.81 Q3696.65 152.076 3696.29 156.191 L3713.37 156.165 Z" fill="#000000" fill-rule="nonzero" fill-opacity="1" /><path clip-path="url(#clip280)" d="M3745.22 148.613 L3745.22 132.831 L3750.01 132.831 L3750.01 173.352 L3745.22 173.352 L3745.22 168.977 Q3743.71 171.581 3741.39 172.857 Q3739.1 174.107 3735.87 174.107 Q3730.59 174.107 3727.25 169.888 Q3723.95 165.67 3723.95 158.795 Q3723.95 151.92 3727.25 147.701 Q3730.59 143.482 3735.87 143.482 Q3739.1 143.482 3741.39 144.758 Q3743.71 146.008 3745.22 148.613 M3728.89 158.795 Q3728.89 164.081 3731.06 167.102 Q3733.24 170.097 3737.05 170.097 Q3740.85 170.097 3743.03 167.102 Q3745.22 164.081 3745.22 158.795 Q3745.22 153.508 3743.03 150.514 Q3740.85 147.493 3737.05 147.493 Q3733.24 147.493 3731.06 150.514 Q3728.89 153.508 3728.89 158.795 Z" fill="#000000" fill-rule="nonzero" fill-opacity="1" /><path clip-path="url(#clip280)" d="M3759.88 144.185 L3764.68 144.185 L3764.68 173.352 L3759.88 173.352 L3759.88 144.185 M3759.88 132.831 L3764.68 132.831 L3764.68 138.899 L3759.88 138.899 L3759.88 132.831 Z" fill="#000000" fill-rule="nonzero" fill-opacity="1" /><path clip-path="url(#clip280)" d="M3795.69 145.305 L3795.69 149.784 Q3793.66 148.665 3791.6 148.118 Q3789.57 147.545 3787.49 147.545 Q3782.83 147.545 3780.25 150.514 Q3777.67 153.456 3777.67 158.795 Q3777.67 164.133 3780.25 167.102 Q3782.83 170.045 3787.49 170.045 Q3789.57 170.045 3791.6 169.498 Q3793.66 168.925 3795.69 167.805 L3795.69 172.232 Q3793.69 173.17 3791.52 173.638 Q3789.39 174.107 3786.97 174.107 Q3780.38 174.107 3776.5 169.967 Q3772.62 165.826 3772.62 158.795 Q3772.62 151.659 3776.52 147.571 Q3780.46 143.482 3787.28 143.482 Q3789.49 143.482 3791.6 143.951 Q3793.71 144.394 3795.69 145.305 Z" fill="#000000" fill-rule="nonzero" fill-opacity="1" /><path clip-path="url(#clip280)" d="M3808.76 135.904 L3808.76 144.185 L3818.63 144.185 L3818.63 147.909 L3808.76 147.909 L3808.76 163.743 Q3808.76 167.31 3809.73 168.326 Q3810.72 169.342 3813.71 169.342 L3818.63 169.342 L3818.63 173.352 L3813.71 173.352 Q3808.16 173.352 3806.06 171.295 Q3803.95 169.211 3803.95 163.743 L3803.95 147.909 L3800.43 147.909 L3800.43 144.185 L3803.95 144.185 L3803.95 135.904 L3808.76 135.904 Z" fill="#000000" fill-rule="nonzero" fill-opacity="1" /><path clip-path="url(#clip280)" d="M3847.1 182.206 L3847.1 185.93 L3819.39 185.93 L3819.39 182.206 L3847.1 182.206 Z" fill="#000000" fill-rule="nonzero" fill-opacity="1" /><path clip-path="url(#clip280)" d="M3852.33 134.472 L3872.98 134.472 L3872.98 138.899 L3857.15 138.899 L3857.15 148.43 Q3858.29 148.04 3859.44 147.857 Q3860.59 147.649 3861.73 147.649 Q3868.24 147.649 3872.04 151.217 Q3875.85 154.784 3875.85 160.878 Q3875.85 167.154 3871.94 170.644 Q3868.03 174.107 3860.92 174.107 Q3858.48 174.107 3855.92 173.69 Q3853.4 173.274 3850.69 172.441 L3850.69 167.154 Q3853.03 168.43 3855.53 169.055 Q3858.03 169.68 3860.82 169.68 Q3865.33 169.68 3867.96 167.31 Q3870.59 164.941 3870.59 160.878 Q3870.59 156.816 3867.96 154.446 Q3865.33 152.076 3860.82 152.076 Q3858.71 152.076 3856.6 152.545 Q3854.52 153.014 3852.33 154.003 L3852.33 134.472 Z" fill="#000000" fill-rule="nonzero" fill-opacity="1" /><path clip-path="url(#clip280)" d="M3890.74 168.925 L3909.1 168.925 L3909.1 173.352 L3884.41 173.352 L3884.41 168.925 Q3887.41 165.826 3892.57 160.618 Q3897.75 155.383 3899.08 153.873 Q3901.6 151.034 3902.59 149.081 Q3903.61 147.102 3903.61 145.201 Q3903.61 142.102 3901.42 140.149 Q3899.26 138.196 3895.77 138.196 Q3893.29 138.196 3890.53 139.055 Q3887.8 139.915 3884.67 141.659 L3884.67 136.347 Q3887.85 135.071 3890.61 134.42 Q3893.37 133.769 3895.66 133.769 Q3901.71 133.769 3905.3 136.79 Q3908.89 139.81 3908.89 144.863 Q3908.89 147.258 3907.98 149.42 Q3907.1 151.555 3904.73 154.472 Q3904.08 155.227 3900.59 158.847 Q3897.1 162.441 3890.74 168.925 Z" fill="#000000" fill-rule="nonzero" fill-opacity="1" /><polyline clip-path="url(#clip280)" style="stroke:#ff7c00; stroke-linecap:round; stroke-linejoin:round; stroke-width:5.625; stroke-opacity:1; fill:none" points="3346.7,212.232 3596.75,212.232 "/>
<path clip-path="url(#clip280)" d="M3643.24 227.297 L3643.24 242.766 L3638.43 242.766 L3638.43 202.505 L3643.24 202.505 L3643.24 206.933 Q3644.75 204.328 3647.05 203.078 Q3649.36 201.802 3652.57 201.802 Q3657.88 201.802 3661.19 206.021 Q3664.52 210.24 3664.52 217.115 Q3664.52 223.99 3661.19 228.208 Q3657.88 232.427 3652.57 232.427 Q3649.36 232.427 3647.05 231.177 Q3644.75 229.901 3643.24 227.297 M3659.55 217.115 Q3659.55 211.828 3657.36 208.834 Q3655.2 205.813 3651.39 205.813 Q3647.59 205.813 3645.41 208.834 Q3643.24 211.828 3643.24 217.115 Q3643.24 222.401 3645.41 225.422 Q3647.59 228.417 3651.39 228.417 Q3655.2 228.417 3657.36 225.422 Q3659.55 222.401 3659.55 217.115 Z" fill="#000000" fill-rule="nonzero" fill-opacity="1" /><path clip-path="url(#clip280)" d="M3689.36 206.985 Q3688.56 206.516 3687.59 206.308 Q3686.65 206.073 3685.51 206.073 Q3681.45 206.073 3679.26 208.729 Q3677.1 211.36 3677.1 216.307 L3677.1 231.672 L3672.28 231.672 L3672.28 202.505 L3677.1 202.505 L3677.1 207.037 Q3678.61 204.38 3681.03 203.104 Q3683.45 201.802 3686.92 201.802 Q3687.41 201.802 3688.01 201.88 Q3688.61 201.933 3689.34 202.063 L3689.36 206.985 Z" fill="#000000" fill-rule="nonzero" fill-opacity="1" /><path clip-path="url(#clip280)" d="M3718.17 215.891 L3718.17 218.235 L3696.13 218.235 Q3696.45 223.182 3699.1 225.787 Q3701.79 228.365 3706.55 228.365 Q3709.31 228.365 3711.89 227.688 Q3714.49 227.011 3717.05 225.656 L3717.05 230.188 Q3714.47 231.281 3711.76 231.854 Q3709.05 232.427 3706.26 232.427 Q3699.29 232.427 3695.2 228.365 Q3691.13 224.302 3691.13 217.375 Q3691.13 210.214 3694.99 206.021 Q3698.87 201.802 3705.43 201.802 Q3711.32 201.802 3714.73 205.604 Q3718.17 209.38 3718.17 215.891 M3713.37 214.485 Q3713.32 210.552 3711.16 208.209 Q3709.02 205.865 3705.48 205.865 Q3701.47 205.865 3699.05 208.13 Q3696.65 210.396 3696.29 214.511 L3713.37 214.485 Z" fill="#000000" fill-rule="nonzero" fill-opacity="1" /><path clip-path="url(#clip280)" d="M3745.22 206.933 L3745.22 191.151 L3750.01 191.151 L3750.01 231.672 L3745.22 231.672 L3745.22 227.297 Q3743.71 229.901 3741.39 231.177 Q3739.1 232.427 3735.87 232.427 Q3730.59 232.427 3727.25 228.208 Q3723.95 223.99 3723.95 217.115 Q3723.95 210.24 3727.25 206.021 Q3730.59 201.802 3735.87 201.802 Q3739.1 201.802 3741.39 203.078 Q3743.71 204.328 3745.22 206.933 M3728.89 217.115 Q3728.89 222.401 3731.06 225.422 Q3733.24 228.417 3737.05 228.417 Q3740.85 228.417 3743.03 225.422 Q3745.22 222.401 3745.22 217.115 Q3745.22 211.828 3743.03 208.834 Q3740.85 205.813 3737.05 205.813 Q3733.24 205.813 3731.06 208.834 Q3728.89 211.828 3728.89 217.115 Z" fill="#000000" fill-rule="nonzero" fill-opacity="1" /><path clip-path="url(#clip280)" d="M3759.88 202.505 L3764.68 202.505 L3764.68 231.672 L3759.88 231.672 L3759.88 202.505 M3759.88 191.151 L3764.68 191.151 L3764.68 197.219 L3759.88 197.219 L3759.88 191.151 Z" fill="#000000" fill-rule="nonzero" fill-opacity="1" /><path clip-path="url(#clip280)" d="M3795.69 203.625 L3795.69 208.104 Q3793.66 206.985 3791.6 206.438 Q3789.57 205.865 3787.49 205.865 Q3782.83 205.865 3780.25 208.834 Q3777.67 211.776 3777.67 217.115 Q3777.67 222.453 3780.25 225.422 Q3782.83 228.365 3787.49 228.365 Q3789.57 228.365 3791.6 227.818 Q3793.66 227.245 3795.69 226.125 L3795.69 230.552 Q3793.69 231.49 3791.52 231.958 Q3789.39 232.427 3786.97 232.427 Q3780.38 232.427 3776.5 228.287 Q3772.62 224.146 3772.62 217.115 Q3772.62 209.979 3776.52 205.891 Q3780.46 201.802 3787.28 201.802 Q3789.49 201.802 3791.6 202.271 Q3793.71 202.714 3795.69 203.625 Z" fill="#000000" fill-rule="nonzero" fill-opacity="1" /><path clip-path="url(#clip280)" d="M3808.76 194.224 L3808.76 202.505 L3818.63 202.505 L3818.63 206.229 L3808.76 206.229 L3808.76 222.063 Q3808.76 225.63 3809.73 226.646 Q3810.72 227.662 3813.71 227.662 L3818.63 227.662 L3818.63 231.672 L3813.71 231.672 Q3808.16 231.672 3806.06 229.615 Q3803.95 227.531 3803.95 222.063 L3803.95 206.229 L3800.43 206.229 L3800.43 202.505 L3803.95 202.505 L3803.95 194.224 L3808.76 194.224 Z" fill="#000000" fill-rule="nonzero" fill-opacity="1" /><path clip-path="url(#clip280)" d="M3847.1 240.526 L3847.1 244.25 L3819.39 244.25 L3819.39 240.526 L3847.1 240.526 Z" fill="#000000" fill-rule="nonzero" fill-opacity="1" /><path clip-path="url(#clip280)" d="M3856.81 227.245 L3875.17 227.245 L3875.17 231.672 L3850.48 231.672 L3850.48 227.245 Q3853.48 224.146 3858.63 218.938 Q3863.82 213.703 3865.14 212.193 Q3867.67 209.354 3868.66 207.401 Q3869.67 205.422 3869.67 203.521 Q3869.67 200.422 3867.49 198.469 Q3865.33 196.516 3861.84 196.516 Q3859.36 196.516 3856.6 197.375 Q3853.87 198.235 3850.74 199.979 L3850.74 194.667 Q3853.92 193.391 3856.68 192.74 Q3859.44 192.089 3861.73 192.089 Q3867.77 192.089 3871.37 195.11 Q3874.96 198.13 3874.96 203.183 Q3874.96 205.578 3874.05 207.74 Q3873.16 209.875 3870.79 212.792 Q3870.14 213.547 3866.65 217.167 Q3863.16 220.761 3856.81 227.245 Z" fill="#000000" fill-rule="nonzero" fill-opacity="1" /><path clip-path="url(#clip280)" d="M3898.11 210.136 Q3894.57 210.136 3892.49 212.557 Q3890.43 214.979 3890.43 219.198 Q3890.43 223.391 3892.49 225.839 Q3894.57 228.261 3898.11 228.261 Q3901.65 228.261 3903.71 225.839 Q3905.79 223.391 3905.79 219.198 Q3905.79 214.979 3903.71 212.557 Q3901.65 210.136 3898.11 210.136 M3908.55 193.651 L3908.55 198.443 Q3906.58 197.505 3904.54 197.011 Q3902.54 196.516 3900.56 196.516 Q3895.35 196.516 3892.59 200.031 Q3889.86 203.547 3889.47 210.656 Q3891 208.391 3893.32 207.193 Q3895.64 205.969 3898.42 205.969 Q3904.28 205.969 3907.67 209.537 Q3911.08 213.078 3911.08 219.198 Q3911.08 225.188 3907.54 228.807 Q3904 232.427 3898.11 232.427 Q3891.37 232.427 3887.8 227.271 Q3884.23 222.089 3884.23 212.271 Q3884.23 203.052 3888.61 197.584 Q3892.98 192.089 3900.35 192.089 Q3902.33 192.089 3904.34 192.479 Q3906.37 192.87 3908.55 193.651 Z" fill="#000000" fill-rule="nonzero" fill-opacity="1" /><polyline clip-path="url(#clip280)" style="stroke:#1ac938; stroke-linecap:round; stroke-linejoin:round; stroke-width:5.625; stroke-opacity:1; fill:none" points="3346.7,270.552 3596.75,270.552 "/>
<path clip-path="url(#clip280)" d="M3643.24 285.617 L3643.24 301.086 L3638.43 301.086 L3638.43 260.825 L3643.24 260.825 L3643.24 265.253 Q3644.75 262.648 3647.05 261.398 Q3649.36 260.122 3652.57 260.122 Q3657.88 260.122 3661.19 264.341 Q3664.52 268.56 3664.52 275.435 Q3664.52 282.31 3661.19 286.528 Q3657.88 290.747 3652.57 290.747 Q3649.36 290.747 3647.05 289.497 Q3644.75 288.221 3643.24 285.617 M3659.55 275.435 Q3659.55 270.148 3657.36 267.154 Q3655.2 264.133 3651.39 264.133 Q3647.59 264.133 3645.41 267.154 Q3643.24 270.148 3643.24 275.435 Q3643.24 280.721 3645.41 283.742 Q3647.59 286.737 3651.39 286.737 Q3655.2 286.737 3657.36 283.742 Q3659.55 280.721 3659.55 275.435 Z" fill="#000000" fill-rule="nonzero" fill-opacity="1" /><path clip-path="url(#clip280)" d="M3689.36 265.305 Q3688.56 264.836 3687.59 264.628 Q3686.65 264.393 3685.51 264.393 Q3681.45 264.393 3679.26 267.049 Q3677.1 269.68 3677.1 274.627 L3677.1 289.992 L3672.28 289.992 L3672.28 260.825 L3677.1 260.825 L3677.1 265.357 Q3678.61 262.7 3681.03 261.424 Q3683.45 260.122 3686.92 260.122 Q3687.41 260.122 3688.01 260.2 Q3688.61 260.253 3689.34 260.383 L3689.36 265.305 Z" fill="#000000" fill-rule="nonzero" fill-opacity="1" /><path clip-path="url(#clip280)" d="M3718.17 274.211 L3718.17 276.555 L3696.13 276.555 Q3696.45 281.502 3699.1 284.107 Q3701.79 286.685 3706.55 286.685 Q3709.31 286.685 3711.89 286.008 Q3714.49 285.331 3717.05 283.976 L3717.05 288.508 Q3714.47 289.601 3711.76 290.174 Q3709.05 290.747 3706.26 290.747 Q3699.29 290.747 3695.2 286.685 Q3691.13 282.622 3691.13 275.695 Q3691.13 268.534 3694.99 264.341 Q3698.87 260.122 3705.43 260.122 Q3711.32 260.122 3714.73 263.924 Q3718.17 267.7 3718.17 274.211 M3713.37 272.805 Q3713.32 268.872 3711.16 266.529 Q3709.02 264.185 3705.48 264.185 Q3701.47 264.185 3699.05 266.45 Q3696.65 268.716 3696.29 272.831 L3713.37 272.805 Z" fill="#000000" fill-rule="nonzero" fill-opacity="1" /><path clip-path="url(#clip280)" d="M3745.22 265.253 L3745.22 249.471 L3750.01 249.471 L3750.01 289.992 L3745.22 289.992 L3745.22 285.617 Q3743.71 288.221 3741.39 289.497 Q3739.1 290.747 3735.87 290.747 Q3730.59 290.747 3727.25 286.528 Q3723.95 282.31 3723.95 275.435 Q3723.95 268.56 3727.25 264.341 Q3730.59 260.122 3735.87 260.122 Q3739.1 260.122 3741.39 261.398 Q3743.71 262.648 3745.22 265.253 M3728.89 275.435 Q3728.89 280.721 3731.06 283.742 Q3733.24 286.737 3737.05 286.737 Q3740.85 286.737 3743.03 283.742 Q3745.22 280.721 3745.22 275.435 Q3745.22 270.148 3743.03 267.154 Q3740.85 264.133 3737.05 264.133 Q3733.24 264.133 3731.06 267.154 Q3728.89 270.148 3728.89 275.435 Z" fill="#000000" fill-rule="nonzero" fill-opacity="1" /><path clip-path="url(#clip280)" d="M3759.88 260.825 L3764.68 260.825 L3764.68 289.992 L3759.88 289.992 L3759.88 260.825 M3759.88 249.471 L3764.68 249.471 L3764.68 255.539 L3759.88 255.539 L3759.88 249.471 Z" fill="#000000" fill-rule="nonzero" fill-opacity="1" /><path clip-path="url(#clip280)" d="M3795.69 261.945 L3795.69 266.424 Q3793.66 265.305 3791.6 264.758 Q3789.57 264.185 3787.49 264.185 Q3782.83 264.185 3780.25 267.154 Q3777.67 270.096 3777.67 275.435 Q3777.67 280.773 3780.25 283.742 Q3782.83 286.685 3787.49 286.685 Q3789.57 286.685 3791.6 286.138 Q3793.66 285.565 3795.69 284.445 L3795.69 288.872 Q3793.69 289.81 3791.52 290.278 Q3789.39 290.747 3786.97 290.747 Q3780.38 290.747 3776.5 286.607 Q3772.62 282.466 3772.62 275.435 Q3772.62 268.299 3776.52 264.211 Q3780.46 260.122 3787.28 260.122 Q3789.49 260.122 3791.6 260.591 Q3793.71 261.034 3795.69 261.945 Z" fill="#000000" fill-rule="nonzero" fill-opacity="1" /><path clip-path="url(#clip280)" d="M3808.76 252.544 L3808.76 260.825 L3818.63 260.825 L3818.63 264.549 L3808.76 264.549 L3808.76 280.383 Q3808.76 283.95 3809.73 284.966 Q3810.72 285.982 3813.71 285.982 L3818.63 285.982 L3818.63 289.992 L3813.71 289.992 Q3808.16 289.992 3806.06 287.935 Q3803.95 285.851 3803.95 280.383 L3803.95 264.549 L3800.43 264.549 L3800.43 260.825 L3803.95 260.825 L3803.95 252.544 L3808.76 252.544 Z" fill="#000000" fill-rule="nonzero" fill-opacity="1" /><path clip-path="url(#clip280)" d="M3847.1 298.846 L3847.1 302.57 L3819.39 302.57 L3819.39 298.846 L3847.1 298.846 Z" fill="#000000" fill-rule="nonzero" fill-opacity="1" /><path clip-path="url(#clip280)" d="M3866.73 255.695 L3853.45 276.45 L3866.73 276.45 L3866.73 255.695 M3865.35 251.112 L3871.97 251.112 L3871.97 276.45 L3877.51 276.45 L3877.51 280.825 L3871.97 280.825 L3871.97 289.992 L3866.73 289.992 L3866.73 280.825 L3849.18 280.825 L3849.18 275.747 L3865.35 251.112 Z" fill="#000000" fill-rule="nonzero" fill-opacity="1" /><polyline clip-path="url(#clip280)" style="stroke:#e8000b; stroke-linecap:round; stroke-linejoin:round; stroke-width:5.625; stroke-opacity:1; fill:none" points="3346.7,328.872 3596.75,328.872 "/>
<path clip-path="url(#clip280)" d="M3643.24 343.937 L3643.24 359.406 L3638.43 359.406 L3638.43 319.145 L3643.24 319.145 L3643.24 323.573 Q3644.75 320.968 3647.05 319.718 Q3649.36 318.442 3652.57 318.442 Q3657.88 318.442 3661.19 322.661 Q3664.52 326.88 3664.52 333.755 Q3664.52 340.63 3661.19 344.848 Q3657.88 349.067 3652.57 349.067 Q3649.36 349.067 3647.05 347.817 Q3644.75 346.541 3643.24 343.937 M3659.55 333.755 Q3659.55 328.468 3657.36 325.474 Q3655.2 322.453 3651.39 322.453 Q3647.59 322.453 3645.41 325.474 Q3643.24 328.468 3643.24 333.755 Q3643.24 339.041 3645.41 342.062 Q3647.59 345.057 3651.39 345.057 Q3655.2 345.057 3657.36 342.062 Q3659.55 339.041 3659.55 333.755 Z" fill="#000000" fill-rule="nonzero" fill-opacity="1" /><path clip-path="url(#clip280)" d="M3689.36 323.625 Q3688.56 323.156 3687.59 322.948 Q3686.65 322.713 3685.51 322.713 Q3681.45 322.713 3679.26 325.369 Q3677.1 328 3677.1 332.947 L3677.1 348.312 L3672.28 348.312 L3672.28 319.145 L3677.1 319.145 L3677.1 323.677 Q3678.61 321.02 3681.03 319.744 Q3683.45 318.442 3686.92 318.442 Q3687.41 318.442 3688.01 318.52 Q3688.61 318.573 3689.34 318.703 L3689.36 323.625 Z" fill="#000000" fill-rule="nonzero" fill-opacity="1" /><path clip-path="url(#clip280)" d="M3718.17 332.531 L3718.17 334.875 L3696.13 334.875 Q3696.45 339.822 3699.1 342.427 Q3701.79 345.005 3706.55 345.005 Q3709.31 345.005 3711.89 344.328 Q3714.49 343.651 3717.05 342.296 L3717.05 346.828 Q3714.47 347.921 3711.76 348.494 Q3709.05 349.067 3706.26 349.067 Q3699.29 349.067 3695.2 345.005 Q3691.13 340.942 3691.13 334.015 Q3691.13 326.854 3694.99 322.661 Q3698.87 318.442 3705.43 318.442 Q3711.32 318.442 3714.73 322.244 Q3718.17 326.02 3718.17 332.531 M3713.37 331.125 Q3713.32 327.192 3711.16 324.849 Q3709.02 322.505 3705.48 322.505 Q3701.47 322.505 3699.05 324.77 Q3696.65 327.036 3696.29 331.151 L3713.37 331.125 Z" fill="#000000" fill-rule="nonzero" fill-opacity="1" /><path clip-path="url(#clip280)" d="M3745.22 323.573 L3745.22 307.791 L3750.01 307.791 L3750.01 348.312 L3745.22 348.312 L3745.22 343.937 Q3743.71 346.541 3741.39 347.817 Q3739.1 349.067 3735.87 349.067 Q3730.59 349.067 3727.25 344.848 Q3723.95 340.63 3723.95 333.755 Q3723.95 326.88 3727.25 322.661 Q3730.59 318.442 3735.87 318.442 Q3739.1 318.442 3741.39 319.718 Q3743.71 320.968 3745.22 323.573 M3728.89 333.755 Q3728.89 339.041 3731.06 342.062 Q3733.24 345.057 3737.05 345.057 Q3740.85 345.057 3743.03 342.062 Q3745.22 339.041 3745.22 333.755 Q3745.22 328.468 3743.03 325.474 Q3740.85 322.453 3737.05 322.453 Q3733.24 322.453 3731.06 325.474 Q3728.89 328.468 3728.89 333.755 Z" fill="#000000" fill-rule="nonzero" fill-opacity="1" /><path clip-path="url(#clip280)" d="M3759.88 319.145 L3764.68 319.145 L3764.68 348.312 L3759.88 348.312 L3759.88 319.145 M3759.88 307.791 L3764.68 307.791 L3764.68 313.859 L3759.88 313.859 L3759.88 307.791 Z" fill="#000000" fill-rule="nonzero" fill-opacity="1" /><path clip-path="url(#clip280)" d="M3795.69 320.265 L3795.69 324.744 Q3793.66 323.625 3791.6 323.078 Q3789.57 322.505 3787.49 322.505 Q3782.83 322.505 3780.25 325.474 Q3777.67 328.416 3777.67 333.755 Q3777.67 339.093 3780.25 342.062 Q3782.83 345.005 3787.49 345.005 Q3789.57 345.005 3791.6 344.458 Q3793.66 343.885 3795.69 342.765 L3795.69 347.192 Q3793.69 348.13 3791.52 348.598 Q3789.39 349.067 3786.97 349.067 Q3780.38 349.067 3776.5 344.927 Q3772.62 340.786 3772.62 333.755 Q3772.62 326.619 3776.52 322.531 Q3780.46 318.442 3787.28 318.442 Q3789.49 318.442 3791.6 318.911 Q3793.71 319.354 3795.69 320.265 Z" fill="#000000" fill-rule="nonzero" fill-opacity="1" /><path clip-path="url(#clip280)" d="M3808.76 310.864 L3808.76 319.145 L3818.63 319.145 L3818.63 322.869 L3808.76 322.869 L3808.76 338.703 Q3808.76 342.27 3809.73 343.286 Q3810.72 344.302 3813.71 344.302 L3818.63 344.302 L3818.63 348.312 L3813.71 348.312 Q3808.16 348.312 3806.06 346.255 Q3803.95 344.171 3803.95 338.703 L3803.95 322.869 L3800.43 322.869 L3800.43 319.145 L3803.95 319.145 L3803.95 310.864 L3808.76 310.864 Z" fill="#000000" fill-rule="nonzero" fill-opacity="1" /><path clip-path="url(#clip280)" d="M3847.1 357.166 L3847.1 360.89 L3819.39 360.89 L3819.39 357.166 L3847.1 357.166 Z" fill="#000000" fill-rule="nonzero" fill-opacity="1" /><path clip-path="url(#clip280)" d="M3853.19 343.885 L3861.78 343.885 L3861.78 314.224 L3852.44 316.099 L3852.44 311.307 L3861.73 309.432 L3866.99 309.432 L3866.99 343.885 L3875.59 343.885 L3875.59 348.312 L3853.19 348.312 L3853.19 343.885 Z" fill="#000000" fill-rule="nonzero" fill-opacity="1" /><polyline clip-path="url(#clip280)" style="stroke:#000000; stroke-linecap:round; stroke-linejoin:round; stroke-width:6.75; stroke-opacity:1; fill:none" points="3346.7,387.192 3596.75,387.192 "/>
<path clip-path="url(#clip280)" d="M3653.5 391.971 Q3647.7 391.971 3645.46 393.299 Q3643.22 394.627 3643.22 397.83 Q3643.22 400.382 3644.88 401.892 Q3646.58 403.377 3649.47 403.377 Q3653.45 403.377 3655.85 400.564 Q3658.27 397.726 3658.27 393.038 L3658.27 391.971 L3653.5 391.971 M3663.06 389.991 L3663.06 406.632 L3658.27 406.632 L3658.27 402.205 Q3656.63 404.861 3654.18 406.137 Q3651.73 407.387 3648.19 407.387 Q3643.71 407.387 3641.06 404.887 Q3638.43 402.361 3638.43 398.142 Q3638.43 393.221 3641.71 390.721 Q3645.01 388.221 3651.55 388.221 L3658.27 388.221 L3658.27 387.752 Q3658.27 384.445 3656.08 382.648 Q3653.92 380.825 3649.99 380.825 Q3647.49 380.825 3645.12 381.424 Q3642.75 382.023 3640.56 383.221 L3640.56 378.794 Q3643.19 377.778 3645.67 377.283 Q3648.14 376.762 3650.48 376.762 Q3656.81 376.762 3659.94 380.044 Q3663.06 383.325 3663.06 389.991 Z" fill="#000000" fill-rule="nonzero" fill-opacity="1" /><path clip-path="url(#clip280)" d="M3693.92 378.585 L3693.92 383.064 Q3691.89 381.945 3689.83 381.398 Q3687.8 380.825 3685.72 380.825 Q3681.06 380.825 3678.48 383.794 Q3675.9 386.736 3675.9 392.075 Q3675.9 397.413 3678.48 400.382 Q3681.06 403.325 3685.72 403.325 Q3687.8 403.325 3689.83 402.778 Q3691.89 402.205 3693.92 401.085 L3693.92 405.512 Q3691.92 406.45 3689.75 406.918 Q3687.62 407.387 3685.2 407.387 Q3678.61 407.387 3674.73 403.247 Q3670.85 399.106 3670.85 392.075 Q3670.85 384.939 3674.75 380.851 Q3678.69 376.762 3685.51 376.762 Q3687.72 376.762 3689.83 377.231 Q3691.94 377.674 3693.92 378.585 Z" fill="#000000" fill-rule="nonzero" fill-opacity="1" /><path clip-path="url(#clip280)" d="M3706.99 369.184 L3706.99 377.465 L3716.86 377.465 L3716.86 381.189 L3706.99 381.189 L3706.99 397.023 Q3706.99 400.59 3707.96 401.606 Q3708.95 402.622 3711.94 402.622 L3716.86 402.622 L3716.86 406.632 L3711.94 406.632 Q3706.39 406.632 3704.29 404.575 Q3702.18 402.491 3702.18 397.023 L3702.18 381.189 L3698.66 381.189 L3698.66 377.465 L3702.18 377.465 L3702.18 369.184 L3706.99 369.184 Z" fill="#000000" fill-rule="nonzero" fill-opacity="1" /><path clip-path="url(#clip280)" d="M3722.67 395.122 L3722.67 377.465 L3727.46 377.465 L3727.46 394.939 Q3727.46 399.08 3729.08 401.163 Q3730.69 403.221 3733.92 403.221 Q3737.8 403.221 3740.04 400.747 Q3742.31 398.273 3742.31 394.002 L3742.31 377.465 L3747.1 377.465 L3747.1 406.632 L3742.31 406.632 L3742.31 402.153 Q3740.56 404.809 3738.24 406.111 Q3735.95 407.387 3732.9 407.387 Q3727.88 407.387 3725.27 404.262 Q3722.67 401.137 3722.67 395.122 M3734.73 376.762 L3734.73 376.762 Z" fill="#000000" fill-rule="nonzero" fill-opacity="1" /><path clip-path="url(#clip280)" d="M3770.22 391.971 Q3764.41 391.971 3762.18 393.299 Q3759.94 394.627 3759.94 397.83 Q3759.94 400.382 3761.6 401.892 Q3763.3 403.377 3766.19 403.377 Q3770.17 403.377 3772.57 400.564 Q3774.99 397.726 3774.99 393.038 L3774.99 391.971 L3770.22 391.971 M3779.78 389.991 L3779.78 406.632 L3774.99 406.632 L3774.99 402.205 Q3773.35 404.861 3770.9 406.137 Q3768.45 407.387 3764.91 407.387 Q3760.43 407.387 3757.77 404.887 Q3755.14 402.361 3755.14 398.142 Q3755.14 393.221 3758.43 390.721 Q3761.73 388.221 3768.27 388.221 L3774.99 388.221 L3774.99 387.752 Q3774.99 384.445 3772.8 382.648 Q3770.64 380.825 3766.71 380.825 Q3764.21 380.825 3761.84 381.424 Q3759.47 382.023 3757.28 383.221 L3757.28 378.794 Q3759.91 377.778 3762.38 377.283 Q3764.86 376.762 3767.2 376.762 Q3773.53 376.762 3776.65 380.044 Q3779.78 383.325 3779.78 389.991 Z" fill="#000000" fill-rule="nonzero" fill-opacity="1" /><path clip-path="url(#clip280)" d="M3789.65 366.111 L3794.44 366.111 L3794.44 406.632 L3789.65 406.632 L3789.65 366.111 Z" fill="#000000" fill-rule="nonzero" fill-opacity="1" /></svg>
