<?xml version="1.0" encoding="UTF-8" standalone="no"?>
<!DOCTYPE svg PUBLIC "-//W3C//DTD SVG 1.1//EN"
 "http://www.w3.org/Graphics/SVG/1.1/DTD/svg11.dtd">
<!-- Generated by graphviz version 2.50.0 (20211204.2007)
 -->
<!-- Pages: 1 -->
<svg width="1262pt" height="742pt"
 viewBox="0.00 0.00 1262.00 742.00" xmlns="http://www.w3.org/2000/svg" xmlns:xlink="http://www.w3.org/1999/xlink">
<g id="graph0" class="graph" transform="scale(1 1) rotate(0) translate(4 738)">
<polygon fill="white" stroke="transparent" points="-4,4 -4,-738 1258,-738 1258,4 -4,4"/>
<!-- 1 -->
<g id="node1" class="node">
<title>1</title>
<text text-anchor="start" x="624" y="-715.8" font-family="Arial" font-weight="bold" font-size="14.00"> </text>
<path fill="#ebebeb" stroke="transparent" d="M588,-643C588,-643 664,-643 664,-643 670,-643 676,-649 676,-655 676,-655 676,-695 676,-695 676,-701 670,-707 664,-707 664,-707 588,-707 588,-707 582,-707 576,-701 576,-695 576,-695 576,-655 576,-655 576,-649 582,-643 588,-643"/>
<text text-anchor="start" x="577" y="-704.4" font-family="Arial" font-size="2.00"> </text>
<text text-anchor="start" x="577" y="-698.4" font-family="Arial" font-size="7.00"> &#160;1</text>
<text text-anchor="start" x="591" y="-681.8" font-family="Arial" font-weight="bold" font-size="14.00">Mean: 26.8</text>
<text text-anchor="start" x="602.5" y="-664.8" font-family="Arial" font-weight="bold" font-size="14.00">n = 672</text>
<text text-anchor="start" x="624.5" y="-646.8" font-family="Arial" font-size="9.00"> </text>
<path fill="none" stroke="#333333" d="M588,-643C588,-643 664,-643 664,-643 670,-643 676,-649 676,-655 676,-655 676,-695 676,-695 676,-701 670,-707 664,-707 664,-707 588,-707 588,-707 582,-707 576,-701 576,-695 576,-695 576,-655 576,-655 576,-649 582,-643 588,-643"/>
<text text-anchor="start" x="611.5" y="-628.8" font-family="Arial" font-weight="bold" font-size="14.00">time</text>
</g>
<!-- 2 -->
<g id="node2" class="node">
<title>2</title>
<text text-anchor="start" x="449.5" y="-561.8" font-family="Arial" font-weight="bold" font-size="14.00"> &lt; 9.5</text>
<text text-anchor="start" x="403" y="-517.3" font-family="Arial" font-size="14.00"> &#160;</text>
<path fill="#ebebeb" stroke="transparent" d="M425,-489C425,-489 509,-489 509,-489 515,-489 521,-495 521,-501 521,-501 521,-541 521,-541 521,-547 515,-553 509,-553 509,-553 425,-553 425,-553 419,-553 413,-547 413,-541 413,-541 413,-501 413,-501 413,-495 419,-489 425,-489"/>
<text text-anchor="start" x="414" y="-550.4" font-family="Arial" font-size="2.00"> </text>
<text text-anchor="start" x="414" y="-544.4" font-family="Arial" font-size="7.00"> &#160;2</text>
<text text-anchor="start" x="428" y="-527.8" font-family="Arial" font-weight="bold" font-size="14.00">Mean: 24.44</text>
<text text-anchor="start" x="443.5" y="-510.8" font-family="Arial" font-weight="bold" font-size="14.00">n = 280</text>
<text text-anchor="start" x="465.5" y="-492.8" font-family="Arial" font-size="9.00"> </text>
<path fill="none" stroke="#333333" d="M425,-489C425,-489 509,-489 509,-489 515,-489 521,-495 521,-501 521,-501 521,-541 521,-541 521,-547 515,-553 509,-553 509,-553 425,-553 425,-553 419,-553 413,-547 413,-541 413,-541 413,-501 413,-501 413,-495 419,-489 425,-489"/>
<text text-anchor="start" x="523" y="-517.3" font-family="Arial" font-size="14.00"> &#160;</text>
<text text-anchor="start" x="417" y="-474.8" font-family="Arial" font-weight="bold" font-size="14.00">prev_1h_inflow</text>
</g>
<!-- 1&#45;&gt;2 -->
<g id="edge1" class="edge">
<title>1&#45;&gt;2</title>
<path fill="none" stroke="#888888" d="M564.98,-615.67C555.28,-606.39 545.19,-596.75 535.34,-587.33"/>
<polygon fill="#888888" stroke="#888888" points="537.5,-584.56 527.86,-580.18 532.67,-589.62 537.5,-584.56"/>
</g>
<!-- 11 -->
<g id="node3" class="node">
<title>11</title>
<text text-anchor="start" x="773" y="-561.8" font-family="Arial" font-weight="bold" font-size="14.00"> ≥ 9.5</text>
<text text-anchor="start" x="726" y="-517.3" font-family="Arial" font-size="14.00"> &#160;&#160;</text>
<path fill="#ebebeb" stroke="transparent" d="M752,-489C752,-489 828,-489 828,-489 834,-489 840,-495 840,-501 840,-501 840,-541 840,-541 840,-547 834,-553 828,-553 828,-553 752,-553 752,-553 746,-553 740,-547 740,-541 740,-541 740,-501 740,-501 740,-495 746,-489 752,-489"/>
<text text-anchor="start" x="741" y="-550.4" font-family="Arial" font-size="2.00"> </text>
<text text-anchor="start" x="741" y="-544.4" font-family="Arial" font-size="7.00"> &#160;11</text>
<text text-anchor="start" x="755" y="-527.8" font-family="Arial" font-weight="bold" font-size="14.00">Mean: 28.5</text>
<text text-anchor="start" x="766.5" y="-510.8" font-family="Arial" font-weight="bold" font-size="14.00">n = 392</text>
<text text-anchor="start" x="788.5" y="-492.8" font-family="Arial" font-size="9.00"> </text>
<path fill="none" stroke="#333333" d="M752,-489C752,-489 828,-489 828,-489 834,-489 840,-495 840,-501 840,-501 840,-541 840,-541 840,-547 834,-553 828,-553 828,-553 752,-553 752,-553 746,-553 740,-547 740,-541 740,-541 740,-501 740,-501 740,-495 746,-489 752,-489"/>
<text text-anchor="start" x="842" y="-517.3" font-family="Arial" font-size="14.00"> &#160;&#160;</text>
<text text-anchor="start" x="740" y="-474.8" font-family="Arial" font-weight="bold" font-size="14.00">prev_1h_inflow</text>
</g>
<!-- 1&#45;&gt;11 -->
<g id="edge2" class="edge">
<title>1&#45;&gt;11</title>
<path fill="none" stroke="#888888" d="M688,-616.54C698.37,-606.93 709.18,-596.9 719.74,-587.12"/>
<polygon fill="#888888" stroke="#888888" points="722.41,-589.42 727.37,-580.05 717.65,-584.28 722.41,-589.42"/>
</g>
<!-- 3 -->
<g id="node4" class="node">
<title>3</title>
<text text-anchor="start" x="208.5" y="-407.8" font-family="Arial" font-weight="bold" font-size="14.00"> &lt; 24.2</text>
<path fill="#ebebeb" stroke="transparent" d="M188,-335C188,-335 272,-335 272,-335 278,-335 284,-341 284,-347 284,-347 284,-387 284,-387 284,-393 278,-399 272,-399 272,-399 188,-399 188,-399 182,-399 176,-393 176,-387 176,-387 176,-347 176,-347 176,-341 182,-335 188,-335"/>
<text text-anchor="start" x="177" y="-396.4" font-family="Arial" font-size="2.00"> </text>
<text text-anchor="start" x="177" y="-390.4" font-family="Arial" font-size="7.00"> &#160;3</text>
<text text-anchor="start" x="191" y="-373.8" font-family="Arial" font-weight="bold" font-size="14.00">Mean: 21.95</text>
<text text-anchor="start" x="206.5" y="-356.8" font-family="Arial" font-weight="bold" font-size="14.00">n = 181</text>
<text text-anchor="start" x="228.5" y="-338.8" font-family="Arial" font-size="9.00"> </text>
<path fill="none" stroke="#333333" d="M188,-335C188,-335 272,-335 272,-335 278,-335 284,-341 284,-347 284,-347 284,-387 284,-387 284,-393 278,-399 272,-399 272,-399 188,-399 188,-399 182,-399 176,-393 176,-387 176,-387 176,-347 176,-347 176,-341 182,-335 188,-335"/>
<text text-anchor="start" x="215.5" y="-320.8" font-family="Arial" font-weight="bold" font-size="14.00">time</text>
</g>
<!-- 2&#45;&gt;3 -->
<g id="edge3" class="edge">
<title>2&#45;&gt;3</title>
<path fill="none" stroke="#888888" d="M392.99,-472.53C364.92,-454.53 332.97,-434.04 304.83,-415.99"/>
<polygon fill="#888888" stroke="#888888" points="306.53,-412.93 296.23,-410.47 302.75,-418.82 306.53,-412.93"/>
</g>
<!-- 8 -->
<g id="node5" class="node">
<title>8</title>
<text text-anchor="start" x="446" y="-407.8" font-family="Arial" font-weight="bold" font-size="14.00"> ≥ 24.2</text>
<path fill="#ebebeb" stroke="transparent" d="M425,-335C425,-335 509,-335 509,-335 515,-335 521,-341 521,-347 521,-347 521,-387 521,-387 521,-393 515,-399 509,-399 509,-399 425,-399 425,-399 419,-399 413,-393 413,-387 413,-387 413,-347 413,-347 413,-341 419,-335 425,-335"/>
<text text-anchor="start" x="414" y="-396.4" font-family="Arial" font-size="2.00"> </text>
<text text-anchor="start" x="414" y="-390.4" font-family="Arial" font-size="7.00"> &#160;8</text>
<text text-anchor="start" x="428" y="-373.8" font-family="Arial" font-weight="bold" font-size="14.00">Mean: 28.98</text>
<text text-anchor="start" x="447" y="-356.8" font-family="Arial" font-weight="bold" font-size="14.00">n = 99</text>
<text text-anchor="start" x="465.5" y="-338.8" font-family="Arial" font-size="9.00"> </text>
<path fill="none" stroke="#333333" d="M425,-335C425,-335 509,-335 509,-335 515,-335 521,-341 521,-347 521,-347 521,-387 521,-387 521,-393 515,-399 509,-399 509,-399 425,-399 425,-399 419,-399 413,-393 413,-387 413,-387 413,-347 413,-347 413,-341 419,-335 425,-335"/>
<text text-anchor="start" x="452.5" y="-320.8" font-family="Arial" font-weight="bold" font-size="14.00">time</text>
</g>
<!-- 2&#45;&gt;8 -->
<g id="edge4" class="edge">
<title>2&#45;&gt;8</title>
<path fill="none" stroke="#888888" d="M467,-461.67C467,-453.39 467,-444.83 467,-436.38"/>
<polygon fill="#888888" stroke="#888888" points="470.5,-436.18 467,-426.18 463.5,-436.18 470.5,-436.18"/>
</g>
<!-- 12 -->
<g id="node12" class="node">
<title>12</title>
<text text-anchor="start" x="765" y="-407.8" font-family="Arial" font-weight="bold" font-size="14.00"> &lt; 29.82</text>
<path fill="#ebebeb" stroke="transparent" d="M748,-335C748,-335 832,-335 832,-335 838,-335 844,-341 844,-347 844,-347 844,-387 844,-387 844,-393 838,-399 832,-399 832,-399 748,-399 748,-399 742,-399 736,-393 736,-387 736,-387 736,-347 736,-347 736,-341 742,-335 748,-335"/>
<text text-anchor="start" x="737" y="-396.4" font-family="Arial" font-size="2.00"> </text>
<text text-anchor="start" x="737" y="-390.4" font-family="Arial" font-size="7.00"> &#160;12</text>
<text text-anchor="start" x="751" y="-373.8" font-family="Arial" font-weight="bold" font-size="14.00">Mean: 27.56</text>
<text text-anchor="start" x="766.5" y="-356.8" font-family="Arial" font-weight="bold" font-size="14.00">n = 274</text>
<text text-anchor="start" x="788.5" y="-338.8" font-family="Arial" font-size="9.00"> </text>
<path fill="none" stroke="#333333" d="M748,-335C748,-335 832,-335 832,-335 838,-335 844,-341 844,-347 844,-347 844,-387 844,-387 844,-393 838,-399 832,-399 832,-399 748,-399 748,-399 742,-399 736,-393 736,-387 736,-387 736,-347 736,-347 736,-341 742,-335 748,-335"/>
<text text-anchor="start" x="775.5" y="-320.8" font-family="Arial" font-weight="bold" font-size="14.00">time</text>
</g>
<!-- 11&#45;&gt;12 -->
<g id="edge11" class="edge">
<title>11&#45;&gt;12</title>
<path fill="none" stroke="#888888" d="M790,-461.67C790,-453.39 790,-444.83 790,-436.38"/>
<polygon fill="#888888" stroke="#888888" points="793.5,-436.18 790,-426.18 786.5,-436.18 793.5,-436.18"/>
</g>
<!-- 17 -->
<g id="node13" class="node">
<title>17</title>
<text text-anchor="start" x="1004.5" y="-407.8" font-family="Arial" font-weight="bold" font-size="14.00"> ≥ 29.82</text>
<text text-anchor="start" x="965" y="-363.3" font-family="Arial" font-size="14.00"> &#160;</text>
<path fill="#ebebeb" stroke="transparent" d="M987,-335C987,-335 1071,-335 1071,-335 1077,-335 1083,-341 1083,-347 1083,-347 1083,-387 1083,-387 1083,-393 1077,-399 1071,-399 1071,-399 987,-399 987,-399 981,-399 975,-393 975,-387 975,-387 975,-347 975,-347 975,-341 981,-335 987,-335"/>
<text text-anchor="start" x="976" y="-396.4" font-family="Arial" font-size="2.00"> </text>
<text text-anchor="start" x="976" y="-390.4" font-family="Arial" font-size="7.00"> &#160;17</text>
<text text-anchor="start" x="990" y="-373.8" font-family="Arial" font-weight="bold" font-size="14.00">Mean: 30.67</text>
<text text-anchor="start" x="1006" y="-356.8" font-family="Arial" font-weight="bold" font-size="14.00">n = 118</text>
<text text-anchor="start" x="1027.5" y="-338.8" font-family="Arial" font-size="9.00"> </text>
<path fill="none" stroke="#333333" d="M987,-335C987,-335 1071,-335 1071,-335 1077,-335 1083,-341 1083,-347 1083,-347 1083,-387 1083,-387 1083,-393 1077,-399 1071,-399 1071,-399 987,-399 987,-399 981,-399 975,-393 975,-387 975,-387 975,-347 975,-347 975,-341 981,-335 987,-335"/>
<text text-anchor="start" x="1085" y="-363.3" font-family="Arial" font-size="14.00"> &#160;</text>
<text text-anchor="start" x="979" y="-320.8" font-family="Arial" font-weight="bold" font-size="14.00">prev_1h_inflow</text>
</g>
<!-- 11&#45;&gt;17 -->
<g id="edge12" class="edge">
<title>11&#45;&gt;17</title>
<path fill="none" stroke="#888888" d="M864.31,-472.74C890.28,-456.23 919.58,-437.59 946.2,-420.66"/>
<polygon fill="#888888" stroke="#888888" points="948.18,-423.55 954.73,-415.23 944.42,-417.64 948.18,-423.55"/>
</g>
<!-- 4 -->
<g id="node6" class="node">
<title>4</title>
<text text-anchor="start" x="51.5" y="-253.8" font-family="Arial" font-weight="bold" font-size="14.00"> &lt; 5.5</text>
<path fill="#f8766d" fill-opacity="0.874510" stroke="transparent" d="M24,-181C24,-181 114,-181 114,-181 120,-181 126,-187 126,-193 126,-193 126,-233 126,-233 126,-239 120,-245 114,-245 114,-245 24,-245 24,-245 18,-245 12,-239 12,-233 12,-233 12,-193 12,-193 12,-187 18,-181 24,-181"/>
<text text-anchor="start" x="13" y="-242.4" font-family="Arial" font-size="2.00"> </text>
<text text-anchor="start" x="13" y="-236.4" font-family="Arial" font-size="7.00"> &#160;4</text>
<text text-anchor="start" x="27" y="-219.8" font-family="Arial" font-weight="bold" font-size="14.00">Predict 21.03</text>
<text text-anchor="start" x="45.5" y="-202.8" font-family="Arial" font-weight="bold" font-size="14.00">n = 134</text>
<text text-anchor="start" x="67.5" y="-184.8" font-family="Arial" font-size="9.00"> </text>
<path fill="none" stroke="#333333" d="M24,-181C24,-181 114,-181 114,-181 120,-181 126,-187 126,-193 126,-193 126,-233 126,-233 126,-239 120,-245 114,-245 114,-245 24,-245 24,-245 18,-245 12,-239 12,-233 12,-233 12,-193 12,-193 12,-187 18,-181 24,-181"/>
<text text-anchor="start" x="67" y="-166.8" font-family="Arial" font-weight="bold" font-size="14.00"> </text>
</g>
<!-- 3&#45;&gt;4 -->
<g id="edge5" class="edge">
<title>3&#45;&gt;4</title>
<path fill="none" stroke="#888888" d="M168.21,-307.67C158.29,-298.3 147.97,-288.56 137.9,-279.05"/>
<polygon fill="#888888" stroke="#888888" points="140.3,-276.5 130.62,-272.18 135.49,-281.59 140.3,-276.5"/>
</g>
<!-- 5 -->
<g id="node7" class="node">
<title>5</title>
<text text-anchor="start" x="213" y="-253.8" font-family="Arial" font-weight="bold" font-size="14.00"> ≥ 5.5</text>
<text text-anchor="start" x="166" y="-209.3" font-family="Arial" font-size="14.00"> &#160;</text>
<path fill="#ebebeb" stroke="transparent" d="M188,-181C188,-181 272,-181 272,-181 278,-181 284,-187 284,-193 284,-193 284,-233 284,-233 284,-239 278,-245 272,-245 272,-245 188,-245 188,-245 182,-245 176,-239 176,-233 176,-233 176,-193 176,-193 176,-187 182,-181 188,-181"/>
<text text-anchor="start" x="177" y="-242.4" font-family="Arial" font-size="2.00"> </text>
<text text-anchor="start" x="177" y="-236.4" font-family="Arial" font-size="7.00"> &#160;5</text>
<text text-anchor="start" x="191" y="-219.8" font-family="Arial" font-weight="bold" font-size="14.00">Mean: 24.58</text>
<text text-anchor="start" x="210" y="-202.8" font-family="Arial" font-weight="bold" font-size="14.00">n = 47</text>
<text text-anchor="start" x="228.5" y="-184.8" font-family="Arial" font-size="9.00"> </text>
<path fill="none" stroke="#333333" d="M188,-181C188,-181 272,-181 272,-181 278,-181 284,-187 284,-193 284,-193 284,-233 284,-233 284,-239 278,-245 272,-245 272,-245 188,-245 188,-245 182,-245 176,-239 176,-233 176,-233 176,-193 176,-193 176,-187 182,-181 188,-181"/>
<text text-anchor="start" x="286" y="-209.3" font-family="Arial" font-size="14.00"> &#160;</text>
<text text-anchor="start" x="180" y="-166.8" font-family="Arial" font-weight="bold" font-size="14.00">prev_1h_inflow</text>
</g>
<!-- 3&#45;&gt;5 -->
<g id="edge6" class="edge">
<title>3&#45;&gt;5</title>
<path fill="none" stroke="#888888" d="M230,-307.67C230,-299.39 230,-290.83 230,-282.38"/>
<polygon fill="#888888" stroke="#888888" points="233.5,-282.18 230,-272.18 226.5,-282.18 233.5,-282.18"/>
</g>
<!-- 9 -->
<g id="node10" class="node">
<title>9</title>
<text text-anchor="start" x="373.5" y="-253.8" font-family="Arial" font-weight="bold" font-size="14.00"> &lt; 4.5</text>
<path fill="#f8766d" fill-opacity="0.776471" stroke="transparent" d="M346,-181C346,-181 436,-181 436,-181 442,-181 448,-187 448,-193 448,-193 448,-233 448,-233 448,-239 442,-245 436,-245 436,-245 346,-245 346,-245 340,-245 334,-239 334,-233 334,-233 334,-193 334,-193 334,-187 340,-181 346,-181"/>
<text text-anchor="start" x="335" y="-242.4" font-family="Arial" font-size="2.00"> </text>
<text text-anchor="start" x="335" y="-236.4" font-family="Arial" font-size="7.00"> &#160;9</text>
<text text-anchor="start" x="349" y="-219.8" font-family="Arial" font-weight="bold" font-size="14.00">Predict 23.38</text>
<text text-anchor="start" x="371" y="-202.8" font-family="Arial" font-weight="bold" font-size="14.00">n = 34</text>
<text text-anchor="start" x="389.5" y="-184.8" font-family="Arial" font-size="9.00"> </text>
<path fill="none" stroke="#333333" d="M346,-181C346,-181 436,-181 436,-181 442,-181 448,-187 448,-193 448,-193 448,-233 448,-233 448,-239 442,-245 436,-245 436,-245 346,-245 346,-245 340,-245 334,-239 334,-233 334,-233 334,-193 334,-193 334,-187 340,-181 346,-181"/>
<text text-anchor="start" x="389" y="-166.8" font-family="Arial" font-weight="bold" font-size="14.00"> </text>
</g>
<!-- 8&#45;&gt;9 -->
<g id="edge9" class="edge">
<title>8&#45;&gt;9</title>
<path fill="none" stroke="#888888" d="M437.83,-307.67C433.52,-299.03 429.04,-290.07 424.64,-281.27"/>
<polygon fill="#888888" stroke="#888888" points="427.69,-279.56 420.09,-272.18 421.43,-282.69 427.69,-279.56"/>
</g>
<!-- 10 -->
<g id="node11" class="node">
<title>10</title>
<text text-anchor="start" x="530" y="-253.8" font-family="Arial" font-weight="bold" font-size="14.00"> ≥ 4.5</text>
<path fill="#f8766d" fill-opacity="0.411765" stroke="transparent" d="M502,-181C502,-181 592,-181 592,-181 598,-181 604,-187 604,-193 604,-193 604,-233 604,-233 604,-239 598,-245 592,-245 592,-245 502,-245 502,-245 496,-245 490,-239 490,-233 490,-233 490,-193 490,-193 490,-187 496,-181 502,-181"/>
<text text-anchor="start" x="491" y="-242.4" font-family="Arial" font-size="2.00"> </text>
<text text-anchor="start" x="491" y="-236.4" font-family="Arial" font-size="7.00"> &#160;10</text>
<text text-anchor="start" x="505" y="-219.8" font-family="Arial" font-weight="bold" font-size="14.00">Predict 31.91</text>
<text text-anchor="start" x="527" y="-202.8" font-family="Arial" font-weight="bold" font-size="14.00">n = 65</text>
<text text-anchor="start" x="545.5" y="-184.8" font-family="Arial" font-size="9.00"> </text>
<path fill="none" stroke="#333333" d="M502,-181C502,-181 592,-181 592,-181 598,-181 604,-187 604,-193 604,-193 604,-233 604,-233 604,-239 598,-245 592,-245 592,-245 502,-245 502,-245 496,-245 490,-239 490,-233 490,-233 490,-193 490,-193 490,-187 496,-181 502,-181"/>
<text text-anchor="start" x="545" y="-166.8" font-family="Arial" font-weight="bold" font-size="14.00"> </text>
</g>
<!-- 8&#45;&gt;10 -->
<g id="edge10" class="edge">
<title>8&#45;&gt;10</title>
<path fill="none" stroke="#888888" d="M497.7,-307.67C502.25,-299.03 506.96,-290.07 511.59,-281.27"/>
<polygon fill="#888888" stroke="#888888" points="514.82,-282.66 516.38,-272.18 508.63,-279.4 514.82,-282.66"/>
</g>
<!-- 6 -->
<g id="node8" class="node">
<title>6</title>
<text text-anchor="start" x="127" y="-99.8" font-family="Arial" font-weight="bold" font-size="14.00"> &lt; 21.65</text>
<path fill="#f8766d" fill-opacity="0.788235" stroke="transparent" d="M107,-27C107,-27 197,-27 197,-27 203,-27 209,-33 209,-39 209,-39 209,-79 209,-79 209,-85 203,-91 197,-91 197,-91 107,-91 107,-91 101,-91 95,-85 95,-79 95,-79 95,-39 95,-39 95,-33 101,-27 107,-27"/>
<text text-anchor="start" x="96" y="-88.4" font-family="Arial" font-size="2.00"> </text>
<text text-anchor="start" x="96" y="-82.4" font-family="Arial" font-size="7.00"> &#160;6</text>
<text text-anchor="start" x="110" y="-65.8" font-family="Arial" font-weight="bold" font-size="14.00">Predict 23.06</text>
<text text-anchor="start" x="132" y="-48.8" font-family="Arial" font-weight="bold" font-size="14.00">n = 21</text>
<text text-anchor="start" x="150.5" y="-30.8" font-family="Arial" font-size="9.00"> </text>
<path fill="none" stroke="#333333" d="M107,-27C107,-27 197,-27 197,-27 203,-27 209,-33 209,-39 209,-39 209,-79 209,-79 209,-85 203,-91 197,-91 197,-91 107,-91 107,-91 101,-91 95,-85 95,-79 95,-79 95,-39 95,-39 95,-33 101,-27 107,-27"/>
<text text-anchor="start" x="150" y="-12.8" font-family="Arial" font-weight="bold" font-size="14.00"> </text>
</g>
<!-- 5&#45;&gt;6 -->
<g id="edge7" class="edge">
<title>5&#45;&gt;6</title>
<path fill="none" stroke="#888888" d="M200.07,-153.67C195.63,-145.03 191.04,-136.07 186.52,-127.27"/>
<polygon fill="#888888" stroke="#888888" points="189.53,-125.48 181.85,-118.18 183.31,-128.67 189.53,-125.48"/>
</g>
<!-- 7 -->
<g id="node9" class="node">
<title>7</title>
<text text-anchor="start" x="283.5" y="-99.8" font-family="Arial" font-weight="bold" font-size="14.00"> ≥ 21.65</text>
<path fill="#f8766d" fill-opacity="0.670588" stroke="transparent" d="M263,-27C263,-27 353,-27 353,-27 359,-27 365,-33 365,-39 365,-39 365,-79 365,-79 365,-85 359,-91 353,-91 353,-91 263,-91 263,-91 257,-91 251,-85 251,-79 251,-79 251,-39 251,-39 251,-33 257,-27 263,-27"/>
<text text-anchor="start" x="252" y="-88.4" font-family="Arial" font-size="2.00"> </text>
<text text-anchor="start" x="252" y="-82.4" font-family="Arial" font-size="7.00"> &#160;7</text>
<text text-anchor="start" x="266" y="-65.8" font-family="Arial" font-weight="bold" font-size="14.00">Predict 25.82</text>
<text text-anchor="start" x="288" y="-48.8" font-family="Arial" font-weight="bold" font-size="14.00">n = 26</text>
<text text-anchor="start" x="306.5" y="-30.8" font-family="Arial" font-size="9.00"> </text>
<path fill="none" stroke="#333333" d="M263,-27C263,-27 353,-27 353,-27 359,-27 365,-33 365,-39 365,-39 365,-79 365,-79 365,-85 359,-91 353,-91 353,-91 263,-91 263,-91 257,-91 251,-85 251,-79 251,-79 251,-39 251,-39 251,-33 257,-27 263,-27"/>
<text text-anchor="start" x="306" y="-12.8" font-family="Arial" font-weight="bold" font-size="14.00"> </text>
</g>
<!-- 5&#45;&gt;7 -->
<g id="edge8" class="edge">
<title>5&#45;&gt;7</title>
<path fill="none" stroke="#888888" d="M259.93,-153.67C264.37,-145.03 268.96,-136.07 273.48,-127.27"/>
<polygon fill="#888888" stroke="#888888" points="276.69,-128.67 278.15,-118.18 270.47,-125.48 276.69,-128.67"/>
</g>
<!-- 13 -->
<g id="node14" class="node">
<title>13</title>
<text text-anchor="start" x="689" y="-253.8" font-family="Arial" font-weight="bold" font-size="14.00"> &lt; 21.5</text>
<text text-anchor="start" x="645" y="-209.3" font-family="Arial" font-size="14.00"> &#160;&#160;&#160;&#160;</text>
<path fill="#ebebeb" stroke="transparent" d="M678,-181C678,-181 743,-181 743,-181 749,-181 755,-187 755,-193 755,-193 755,-233 755,-233 755,-239 749,-245 743,-245 743,-245 678,-245 678,-245 672,-245 666,-239 666,-233 666,-233 666,-193 666,-193 666,-187 672,-181 678,-181"/>
<text text-anchor="start" x="667" y="-242.4" font-family="Arial" font-size="2.00"> </text>
<text text-anchor="start" x="667" y="-236.4" font-family="Arial" font-size="7.00"> &#160;13</text>
<text text-anchor="start" x="681" y="-219.8" font-family="Arial" font-weight="bold" font-size="14.00">Mean: 28</text>
<text text-anchor="start" x="687" y="-202.8" font-family="Arial" font-weight="bold" font-size="14.00">n = 219</text>
<text text-anchor="start" x="709" y="-184.8" font-family="Arial" font-size="9.00"> </text>
<path fill="none" stroke="#333333" d="M678,-181C678,-181 743,-181 743,-181 749,-181 755,-187 755,-193 755,-193 755,-233 755,-233 755,-239 749,-245 743,-245 743,-245 678,-245 678,-245 672,-245 666,-239 666,-233 666,-233 666,-193 666,-193 666,-187 672,-181 678,-181"/>
<text text-anchor="start" x="757" y="-209.3" font-family="Arial" font-size="14.00"> &#160;&#160;&#160;&#160;</text>
<text text-anchor="start" x="657" y="-166.8" font-family="Arial" font-weight="bold" font-size="14.00">prev_24h_inflow</text>
</g>
<!-- 12&#45;&gt;13 -->
<g id="edge13" class="edge">
<title>12&#45;&gt;13</title>
<path fill="none" stroke="#888888" d="M759.3,-307.67C754.75,-299.03 750.04,-290.07 745.41,-281.27"/>
<polygon fill="#888888" stroke="#888888" points="748.37,-279.4 740.62,-272.18 742.18,-282.66 748.37,-279.4"/>
</g>
<!-- 16 -->
<g id="node15" class="node">
<title>16</title>
<text text-anchor="start" x="852" y="-253.8" font-family="Arial" font-weight="bold" font-size="14.00"> ≥ 21.5</text>
<path fill="#f8766d" fill-opacity="0.670588" stroke="transparent" d="M828,-181C828,-181 918,-181 918,-181 924,-181 930,-187 930,-193 930,-193 930,-233 930,-233 930,-239 924,-245 918,-245 918,-245 828,-245 828,-245 822,-245 816,-239 816,-233 816,-233 816,-193 816,-193 816,-187 822,-181 828,-181"/>
<text text-anchor="start" x="817" y="-242.4" font-family="Arial" font-size="2.00"> </text>
<text text-anchor="start" x="817" y="-236.4" font-family="Arial" font-size="7.00"> &#160;16</text>
<text text-anchor="start" x="831" y="-219.8" font-family="Arial" font-weight="bold" font-size="14.00">Predict 25.83</text>
<text text-anchor="start" x="853" y="-202.8" font-family="Arial" font-weight="bold" font-size="14.00">n = 55</text>
<text text-anchor="start" x="871.5" y="-184.8" font-family="Arial" font-size="9.00"> </text>
<path fill="none" stroke="#333333" d="M828,-181C828,-181 918,-181 918,-181 924,-181 930,-187 930,-193 930,-193 930,-233 930,-233 930,-239 924,-245 918,-245 918,-245 828,-245 828,-245 822,-245 816,-239 816,-233 816,-233 816,-193 816,-193 816,-187 822,-181 828,-181"/>
<text text-anchor="start" x="871" y="-166.8" font-family="Arial" font-weight="bold" font-size="14.00"> </text>
</g>
<!-- 12&#45;&gt;16 -->
<g id="edge14" class="edge">
<title>12&#45;&gt;16</title>
<path fill="none" stroke="#888888" d="M821.85,-307.67C826.62,-298.94 831.56,-289.88 836.42,-280.99"/>
<polygon fill="#888888" stroke="#888888" points="839.51,-282.63 841.23,-272.18 833.37,-279.28 839.51,-282.63"/>
</g>
<!-- 18 -->
<g id="node18" class="node">
<title>18</title>
<text text-anchor="start" x="1004" y="-253.8" font-family="Arial" font-weight="bold" font-size="14.00"> &lt; 32.57</text>
<path fill="#f8766d" fill-opacity="0.498039" stroke="transparent" d="M984,-181C984,-181 1074,-181 1074,-181 1080,-181 1086,-187 1086,-193 1086,-193 1086,-233 1086,-233 1086,-239 1080,-245 1074,-245 1074,-245 984,-245 984,-245 978,-245 972,-239 972,-233 972,-233 972,-193 972,-193 972,-187 978,-181 984,-181"/>
<text text-anchor="start" x="973" y="-242.4" font-family="Arial" font-size="2.00"> </text>
<text text-anchor="start" x="973" y="-236.4" font-family="Arial" font-size="7.00"> &#160;18</text>
<text text-anchor="start" x="987" y="-219.8" font-family="Arial" font-weight="bold" font-size="14.00">Predict 29.94</text>
<text text-anchor="start" x="1009" y="-202.8" font-family="Arial" font-weight="bold" font-size="14.00">n = 88</text>
<text text-anchor="start" x="1027.5" y="-184.8" font-family="Arial" font-size="9.00"> </text>
<path fill="none" stroke="#333333" d="M984,-181C984,-181 1074,-181 1074,-181 1080,-181 1086,-187 1086,-193 1086,-193 1086,-233 1086,-233 1086,-239 1080,-245 1074,-245 1074,-245 984,-245 984,-245 978,-245 972,-239 972,-233 972,-233 972,-193 972,-193 972,-187 978,-181 984,-181"/>
<text text-anchor="start" x="1027" y="-166.8" font-family="Arial" font-weight="bold" font-size="14.00"> </text>
</g>
<!-- 17&#45;&gt;18 -->
<g id="edge17" class="edge">
<title>17&#45;&gt;18</title>
<path fill="none" stroke="#888888" d="M1029,-307.67C1029,-299.39 1029,-290.83 1029,-282.38"/>
<polygon fill="#888888" stroke="#888888" points="1032.5,-282.18 1029,-272.18 1025.5,-282.18 1032.5,-282.18"/>
</g>
<!-- 19 -->
<g id="node19" class="node">
<title>19</title>
<text text-anchor="start" x="1160.5" y="-253.8" font-family="Arial" font-weight="bold" font-size="14.00"> ≥ 32.57</text>
<path fill="#f8766d" fill-opacity="0.376471" stroke="transparent" d="M1140,-181C1140,-181 1230,-181 1230,-181 1236,-181 1242,-187 1242,-193 1242,-193 1242,-233 1242,-233 1242,-239 1236,-245 1230,-245 1230,-245 1140,-245 1140,-245 1134,-245 1128,-239 1128,-233 1128,-233 1128,-193 1128,-193 1128,-187 1134,-181 1140,-181"/>
<text text-anchor="start" x="1129" y="-242.4" font-family="Arial" font-size="2.00"> </text>
<text text-anchor="start" x="1129" y="-236.4" font-family="Arial" font-size="7.00"> &#160;19</text>
<text text-anchor="start" x="1143" y="-219.8" font-family="Arial" font-weight="bold" font-size="14.00">Predict 32.81</text>
<text text-anchor="start" x="1165" y="-202.8" font-family="Arial" font-weight="bold" font-size="14.00">n = 30</text>
<text text-anchor="start" x="1183.5" y="-184.8" font-family="Arial" font-size="9.00"> </text>
<path fill="none" stroke="#333333" d="M1140,-181C1140,-181 1230,-181 1230,-181 1236,-181 1242,-187 1242,-193 1242,-193 1242,-233 1242,-233 1242,-239 1236,-245 1230,-245 1230,-245 1140,-245 1140,-245 1134,-245 1128,-239 1128,-233 1128,-233 1128,-193 1128,-193 1128,-187 1134,-181 1140,-181"/>
<text text-anchor="start" x="1183" y="-166.8" font-family="Arial" font-weight="bold" font-size="14.00"> </text>
</g>
<!-- 17&#45;&gt;19 -->
<g id="edge18" class="edge">
<title>17&#45;&gt;19</title>
<path fill="none" stroke="#888888" d="M1088.87,-307.67C1098.38,-298.39 1108.28,-288.75 1117.95,-279.33"/>
<polygon fill="#888888" stroke="#888888" points="1120.57,-281.66 1125.29,-272.18 1115.69,-276.65 1120.57,-281.66"/>
</g>
<!-- 14 -->
<g id="node16" class="node">
<title>14</title>
<text text-anchor="start" x="607" y="-99.8" font-family="Arial" font-weight="bold" font-size="14.00"> &lt; 27.94</text>
<path fill="#f8766d" fill-opacity="0.603922" stroke="transparent" d="M587,-27C587,-27 677,-27 677,-27 683,-27 689,-33 689,-39 689,-39 689,-79 689,-79 689,-85 683,-91 677,-91 677,-91 587,-91 587,-91 581,-91 575,-85 575,-79 575,-79 575,-39 575,-39 575,-33 581,-27 587,-27"/>
<text text-anchor="start" x="576" y="-88.4" font-family="Arial" font-size="2.00"> </text>
<text text-anchor="start" x="576" y="-82.4" font-family="Arial" font-size="7.00"> &#160;14</text>
<text text-anchor="start" x="590" y="-65.8" font-family="Arial" font-weight="bold" font-size="14.00">Predict 27.45</text>
<text text-anchor="start" x="608.5" y="-48.8" font-family="Arial" font-weight="bold" font-size="14.00">n = 102</text>
<text text-anchor="start" x="630.5" y="-30.8" font-family="Arial" font-size="9.00"> </text>
<path fill="none" stroke="#333333" d="M587,-27C587,-27 677,-27 677,-27 683,-27 689,-33 689,-39 689,-39 689,-79 689,-79 689,-85 683,-91 677,-91 677,-91 587,-91 587,-91 581,-91 575,-85 575,-79 575,-79 575,-39 575,-39 575,-33 581,-27 587,-27"/>
<text text-anchor="start" x="630" y="-12.8" font-family="Arial" font-weight="bold" font-size="14.00"> </text>
</g>
<!-- 13&#45;&gt;14 -->
<g id="edge15" class="edge">
<title>13&#45;&gt;14</title>
<path fill="none" stroke="#888888" d="M680.07,-153.67C675.63,-145.03 671.04,-136.07 666.52,-127.27"/>
<polygon fill="#888888" stroke="#888888" points="669.53,-125.48 661.85,-118.18 663.31,-128.67 669.53,-125.48"/>
</g>
<!-- 15 -->
<g id="node17" class="node">
<title>15</title>
<text text-anchor="start" x="763.5" y="-99.8" font-family="Arial" font-weight="bold" font-size="14.00"> ≥ 27.94</text>
<path fill="#f8766d" fill-opacity="0.560784" stroke="transparent" d="M743,-27C743,-27 833,-27 833,-27 839,-27 845,-33 845,-39 845,-39 845,-79 845,-79 845,-85 839,-91 833,-91 833,-91 743,-91 743,-91 737,-91 731,-85 731,-79 731,-79 731,-39 731,-39 731,-33 737,-27 743,-27"/>
<text text-anchor="start" x="732" y="-88.4" font-family="Arial" font-size="2.00"> </text>
<text text-anchor="start" x="732" y="-82.4" font-family="Arial" font-size="7.00"> &#160;15</text>
<text text-anchor="start" x="746" y="-65.8" font-family="Arial" font-weight="bold" font-size="14.00">Predict 28.47</text>
<text text-anchor="start" x="765" y="-48.8" font-family="Arial" font-weight="bold" font-size="14.00">n = 117</text>
<text text-anchor="start" x="786.5" y="-30.8" font-family="Arial" font-size="9.00"> </text>
<path fill="none" stroke="#333333" d="M743,-27C743,-27 833,-27 833,-27 839,-27 845,-33 845,-39 845,-39 845,-79 845,-79 845,-85 839,-91 833,-91 833,-91 743,-91 743,-91 737,-91 731,-85 731,-79 731,-79 731,-39 731,-39 731,-33 737,-27 743,-27"/>
<text text-anchor="start" x="786" y="-12.8" font-family="Arial" font-weight="bold" font-size="14.00"> </text>
</g>
<!-- 13&#45;&gt;15 -->
<g id="edge16" class="edge">
<title>13&#45;&gt;15</title>
<path fill="none" stroke="#888888" d="M739.93,-153.67C744.37,-145.03 748.96,-136.07 753.48,-127.27"/>
<polygon fill="#888888" stroke="#888888" points="756.69,-128.67 758.15,-118.18 750.47,-125.48 756.69,-128.67"/>
</g>
</g>
</svg>
