<?xml version="1.0" encoding="UTF-8" standalone="no"?>
<!DOCTYPE svg PUBLIC "-//W3C//DTD SVG 1.1//EN"
 "http://www.w3.org/Graphics/SVG/1.1/DTD/svg11.dtd">
<!-- Generated by graphviz version 2.50.0 (20211204.2007)
 -->
<!-- Pages: 1 -->
<svg width="371pt" height="434pt"
 viewBox="0.00 0.00 371.00 434.00" xmlns="http://www.w3.org/2000/svg" xmlns:xlink="http://www.w3.org/1999/xlink">
<g id="graph0" class="graph" transform="scale(1 1) rotate(0) translate(4 430)">
<polygon fill="white" stroke="transparent" points="-4,4 -4,-430 367,-430 367,4 -4,4"/>
<!-- 1 -->
<g id="node1" class="node">
<title>1</title>
<text text-anchor="start" x="143" y="-407.8" font-family="Arial" font-weight="bold" font-size="14.00"> </text>
<path fill="#ebebeb" stroke="transparent" d="M107,-335C107,-335 183,-335 183,-335 189,-335 195,-341 195,-347 195,-347 195,-387 195,-387 195,-393 189,-399 183,-399 183,-399 107,-399 107,-399 101,-399 95,-393 95,-387 95,-387 95,-347 95,-347 95,-341 101,-335 107,-335"/>
<text text-anchor="start" x="96" y="-396.4" font-family="Arial" font-size="2.00"> </text>
<text text-anchor="start" x="96" y="-390.4" font-family="Arial" font-size="7.00"> &#160;1</text>
<text text-anchor="start" x="110" y="-373.8" font-family="Arial" font-weight="bold" font-size="14.00">Mean: 9.71</text>
<text text-anchor="start" x="121.5" y="-356.8" font-family="Arial" font-weight="bold" font-size="14.00">n = 672</text>
<text text-anchor="start" x="143.5" y="-338.8" font-family="Arial" font-size="9.00"> </text>
<path fill="none" stroke="#333333" d="M107,-335C107,-335 183,-335 183,-335 189,-335 195,-341 195,-347 195,-347 195,-387 195,-387 195,-393 189,-399 183,-399 183,-399 107,-399 107,-399 101,-399 95,-393 95,-387 95,-387 95,-347 95,-347 95,-341 101,-335 107,-335"/>
<text text-anchor="start" x="130.5" y="-320.8" font-family="Arial" font-weight="bold" font-size="14.00">time</text>
</g>
<!-- 2 -->
<g id="node2" class="node">
<title>2</title>
<text text-anchor="start" x="51.5" y="-253.8" font-family="Arial" font-weight="bold" font-size="14.00"> &lt; 6.5</text>
<path fill="#f8766d" fill-opacity="0.874510" stroke="transparent" d="M24,-181C24,-181 114,-181 114,-181 120,-181 126,-187 126,-193 126,-193 126,-233 126,-233 126,-239 120,-245 114,-245 114,-245 24,-245 24,-245 18,-245 12,-239 12,-233 12,-233 12,-193 12,-193 12,-187 18,-181 24,-181"/>
<text text-anchor="start" x="13" y="-242.4" font-family="Arial" font-size="2.00"> </text>
<text text-anchor="start" x="13" y="-236.4" font-family="Arial" font-size="7.00"> &#160;2</text>
<text text-anchor="start" x="27" y="-219.8" font-family="Arial" font-weight="bold" font-size="14.00">Predict 8.296</text>
<text text-anchor="start" x="45.5" y="-202.8" font-family="Arial" font-weight="bold" font-size="14.00">n = 196</text>
<text text-anchor="start" x="67.5" y="-184.8" font-family="Arial" font-size="9.00"> </text>
<path fill="none" stroke="#333333" d="M24,-181C24,-181 114,-181 114,-181 120,-181 126,-187 126,-193 126,-193 126,-233 126,-233 126,-239 120,-245 114,-245 114,-245 24,-245 24,-245 18,-245 12,-239 12,-233 12,-233 12,-193 12,-193 12,-187 18,-181 24,-181"/>
<text text-anchor="start" x="67" y="-166.8" font-family="Arial" font-weight="bold" font-size="14.00"> </text>
</g>
<!-- 1&#45;&gt;2 -->
<g id="edge1" class="edge">
<title>1&#45;&gt;2</title>
<path fill="none" stroke="#888888" d="M115.83,-307.67C111.52,-299.03 107.04,-290.07 102.64,-281.27"/>
<polygon fill="#888888" stroke="#888888" points="105.69,-279.56 98.09,-272.18 99.43,-282.69 105.69,-279.56"/>
</g>
<!-- 3 -->
<g id="node3" class="node">
<title>3</title>
<text text-anchor="start" x="205" y="-253.8" font-family="Arial" font-weight="bold" font-size="14.00"> ≥ 6.5</text>
<path fill="#ebebeb" stroke="transparent" d="M180,-181C180,-181 264,-181 264,-181 270,-181 276,-187 276,-193 276,-193 276,-233 276,-233 276,-239 270,-245 264,-245 264,-245 180,-245 180,-245 174,-245 168,-239 168,-233 168,-233 168,-193 168,-193 168,-187 174,-181 180,-181"/>
<text text-anchor="start" x="169" y="-242.4" font-family="Arial" font-size="2.00"> </text>
<text text-anchor="start" x="169" y="-236.4" font-family="Arial" font-size="7.00"> &#160;3</text>
<text text-anchor="start" x="183" y="-219.8" font-family="Arial" font-weight="bold" font-size="14.00">Mean: 10.29</text>
<text text-anchor="start" x="198.5" y="-202.8" font-family="Arial" font-weight="bold" font-size="14.00">n = 476</text>
<text text-anchor="start" x="220.5" y="-184.8" font-family="Arial" font-size="9.00"> </text>
<path fill="none" stroke="#333333" d="M180,-181C180,-181 264,-181 264,-181 270,-181 276,-187 276,-193 276,-193 276,-233 276,-233 276,-239 270,-245 264,-245 264,-245 180,-245 180,-245 174,-245 168,-239 168,-233 168,-233 168,-193 168,-193 168,-187 174,-181 180,-181"/>
<text text-anchor="start" x="207.5" y="-166.8" font-family="Arial" font-weight="bold" font-size="14.00">time</text>
</g>
<!-- 1&#45;&gt;3 -->
<g id="edge2" class="edge">
<title>1&#45;&gt;3</title>
<path fill="none" stroke="#888888" d="M174.55,-307.67C178.93,-299.03 183.46,-290.07 187.92,-281.27"/>
<polygon fill="#888888" stroke="#888888" points="191.13,-282.68 192.53,-272.18 184.89,-279.52 191.13,-282.68"/>
</g>
<!-- 4 -->
<g id="node4" class="node">
<title>4</title>
<text text-anchor="start" x="124.5" y="-99.8" font-family="Arial" font-weight="bold" font-size="14.00"> &lt; 21.5</text>
<path fill="#f8766d" fill-opacity="0.376471" stroke="transparent" d="M101,-27C101,-27 191,-27 191,-27 197,-27 203,-33 203,-39 203,-39 203,-79 203,-79 203,-85 197,-91 191,-91 191,-91 101,-91 101,-91 95,-91 89,-85 89,-79 89,-79 89,-39 89,-39 89,-33 95,-27 101,-27"/>
<text text-anchor="start" x="90" y="-88.4" font-family="Arial" font-size="2.00"> </text>
<text text-anchor="start" x="90" y="-82.4" font-family="Arial" font-size="7.00"> &#160;4</text>
<text text-anchor="start" x="104" y="-65.8" font-family="Arial" font-weight="bold" font-size="14.00">Predict 10.43</text>
<text text-anchor="start" x="122.5" y="-48.8" font-family="Arial" font-weight="bold" font-size="14.00">n = 420</text>
<text text-anchor="start" x="144.5" y="-30.8" font-family="Arial" font-size="9.00"> </text>
<path fill="none" stroke="#333333" d="M101,-27C101,-27 191,-27 191,-27 197,-27 203,-33 203,-39 203,-39 203,-79 203,-79 203,-85 197,-91 191,-91 191,-91 101,-91 101,-91 95,-91 89,-85 89,-79 89,-79 89,-39 89,-39 89,-33 95,-27 101,-27"/>
<text text-anchor="start" x="144" y="-12.8" font-family="Arial" font-weight="bold" font-size="14.00"> </text>
</g>
<!-- 3&#45;&gt;4 -->
<g id="edge3" class="edge">
<title>3&#45;&gt;4</title>
<path fill="none" stroke="#888888" d="M192.83,-153.67C188.52,-145.03 184.04,-136.07 179.64,-127.27"/>
<polygon fill="#888888" stroke="#888888" points="182.69,-125.56 175.09,-118.18 176.43,-128.69 182.69,-125.56"/>
</g>
<!-- 5 -->
<g id="node5" class="node">
<title>5</title>
<text text-anchor="start" x="277" y="-99.8" font-family="Arial" font-weight="bold" font-size="14.00"> ≥ 21.5</text>
<path fill="#f8766d" fill-opacity="0.654902" stroke="transparent" d="M257,-27C257,-27 339,-27 339,-27 345,-27 351,-33 351,-39 351,-39 351,-79 351,-79 351,-85 345,-91 339,-91 339,-91 257,-91 257,-91 251,-91 245,-85 245,-79 245,-79 245,-39 245,-39 245,-33 251,-27 257,-27"/>
<text text-anchor="start" x="246" y="-88.4" font-family="Arial" font-size="2.00"> </text>
<text text-anchor="start" x="246" y="-82.4" font-family="Arial" font-size="7.00"> &#160;5</text>
<text text-anchor="start" x="260" y="-65.8" font-family="Arial" font-weight="bold" font-size="14.00">Predict 9.23</text>
<text text-anchor="start" x="278" y="-48.8" font-family="Arial" font-weight="bold" font-size="14.00">n = 56</text>
<text text-anchor="start" x="296.5" y="-30.8" font-family="Arial" font-size="9.00"> </text>
<path fill="none" stroke="#333333" d="M257,-27C257,-27 339,-27 339,-27 345,-27 351,-33 351,-39 351,-39 351,-79 351,-79 351,-85 345,-91 339,-91 339,-91 257,-91 257,-91 251,-91 245,-85 245,-79 245,-79 245,-39 245,-39 245,-33 251,-27 257,-27"/>
<text text-anchor="start" x="296" y="-12.8" font-family="Arial" font-weight="bold" font-size="14.00"> </text>
</g>
<!-- 3&#45;&gt;5 -->
<g id="edge4" class="edge">
<title>3&#45;&gt;5</title>
<path fill="none" stroke="#888888" d="M251.17,-153.67C255.48,-145.03 259.96,-136.07 264.36,-127.27"/>
<polygon fill="#888888" stroke="#888888" points="267.57,-128.69 268.91,-118.18 261.31,-125.56 267.57,-128.69"/>
</g>
</g>
</svg>
