<?xml version="1.0" encoding="UTF-8" standalone="no"?>
<!DOCTYPE svg PUBLIC "-//W3C//DTD SVG 1.1//EN"
 "http://www.w3.org/Graphics/SVG/1.1/DTD/svg11.dtd">
<!-- Generated by graphviz version 2.50.0 (20211204.2007)
 -->
<!-- Pages: 1 -->
<svg width="767pt" height="588pt"
 viewBox="0.00 0.00 767.00 588.00" xmlns="http://www.w3.org/2000/svg" xmlns:xlink="http://www.w3.org/1999/xlink">
<g id="graph0" class="graph" transform="scale(1 1) rotate(0) translate(4 584)">
<polygon fill="white" stroke="transparent" points="-4,4 -4,-584 763,-584 763,4 -4,4"/>
<!-- 1 -->
<g id="node1" class="node">
<title>1</title>
<text text-anchor="start" x="303" y="-561.8" font-family="Arial" font-weight="bold" font-size="14.00"> </text>
<path fill="#ebebeb" stroke="transparent" d="M263,-489C263,-489 347,-489 347,-489 353,-489 359,-495 359,-501 359,-501 359,-541 359,-541 359,-547 353,-553 347,-553 347,-553 263,-553 263,-553 257,-553 251,-547 251,-541 251,-541 251,-501 251,-501 251,-495 257,-489 263,-489"/>
<text text-anchor="start" x="252" y="-550.4" font-family="Arial" font-size="2.00"> </text>
<text text-anchor="start" x="252" y="-544.4" font-family="Arial" font-size="7.00"> &#160;1</text>
<text text-anchor="start" x="266" y="-527.8" font-family="Arial" font-weight="bold" font-size="14.00">Mean: 21.96</text>
<text text-anchor="start" x="281.5" y="-510.8" font-family="Arial" font-weight="bold" font-size="14.00">n = 168</text>
<text text-anchor="start" x="303.5" y="-492.8" font-family="Arial" font-size="9.00"> </text>
<path fill="none" stroke="#333333" d="M263,-489C263,-489 347,-489 347,-489 353,-489 359,-495 359,-501 359,-501 359,-541 359,-541 359,-547 353,-553 347,-553 347,-553 263,-553 263,-553 257,-553 251,-547 251,-541 251,-541 251,-501 251,-501 251,-495 257,-489 263,-489"/>
<text text-anchor="start" x="290.5" y="-474.8" font-family="Arial" font-weight="bold" font-size="14.00">time</text>
</g>
<!-- 2 -->
<g id="node2" class="node">
<title>2</title>
<text text-anchor="start" x="206.5" y="-407.8" font-family="Arial" font-weight="bold" font-size="14.00"> &lt; 7.5</text>
<text text-anchor="start" x="152" y="-363.3" font-family="Arial" font-size="14.00"> &#160;&#160;&#160;</text>
<path fill="#ebebeb" stroke="transparent" d="M182,-335C182,-335 266,-335 266,-335 272,-335 278,-341 278,-347 278,-347 278,-387 278,-387 278,-393 272,-399 266,-399 266,-399 182,-399 182,-399 176,-399 170,-393 170,-387 170,-387 170,-347 170,-347 170,-341 176,-335 182,-335"/>
<text text-anchor="start" x="171" y="-396.4" font-family="Arial" font-size="2.00"> </text>
<text text-anchor="start" x="171" y="-390.4" font-family="Arial" font-size="7.00"> &#160;2</text>
<text text-anchor="start" x="185" y="-373.8" font-family="Arial" font-weight="bold" font-size="14.00">Mean: 15.06</text>
<text text-anchor="start" x="204" y="-356.8" font-family="Arial" font-weight="bold" font-size="14.00">n = 56</text>
<text text-anchor="start" x="222.5" y="-338.8" font-family="Arial" font-size="9.00"> </text>
<path fill="none" stroke="#333333" d="M182,-335C182,-335 266,-335 266,-335 272,-335 278,-341 278,-347 278,-347 278,-387 278,-387 278,-393 272,-399 266,-399 266,-399 182,-399 182,-399 176,-399 170,-393 170,-387 170,-387 170,-347 170,-347 170,-341 176,-335 182,-335"/>
<text text-anchor="start" x="280" y="-363.3" font-family="Arial" font-size="14.00"> &#160;&#160;&#160;</text>
<text text-anchor="start" x="166.5" y="-320.8" font-family="Arial" font-weight="bold" font-size="14.00">prev_168h_inflow</text>
</g>
<!-- 1&#45;&gt;2 -->
<g id="edge1" class="edge">
<title>1&#45;&gt;2</title>
<path fill="none" stroke="#888888" d="M273.91,-461.67C269.31,-453.03 264.54,-444.07 259.85,-435.27"/>
<polygon fill="#888888" stroke="#888888" points="262.79,-433.36 255,-426.18 256.62,-436.65 262.79,-433.36"/>
</g>
<!-- 5 -->
<g id="node3" class="node">
<title>5</title>
<text text-anchor="start" x="369" y="-407.8" font-family="Arial" font-weight="bold" font-size="14.00"> ≥ 7.5</text>
<path fill="#ebebeb" stroke="transparent" d="M348,-335C348,-335 424,-335 424,-335 430,-335 436,-341 436,-347 436,-347 436,-387 436,-387 436,-393 430,-399 424,-399 424,-399 348,-399 348,-399 342,-399 336,-393 336,-387 336,-387 336,-347 336,-347 336,-341 342,-335 348,-335"/>
<text text-anchor="start" x="337" y="-396.4" font-family="Arial" font-size="2.00"> </text>
<text text-anchor="start" x="337" y="-390.4" font-family="Arial" font-size="7.00"> &#160;5</text>
<text text-anchor="start" x="351" y="-373.8" font-family="Arial" font-weight="bold" font-size="14.00">Mean: 25.4</text>
<text text-anchor="start" x="363" y="-356.8" font-family="Arial" font-weight="bold" font-size="14.00">n = 112</text>
<text text-anchor="start" x="384.5" y="-338.8" font-family="Arial" font-size="9.00"> </text>
<path fill="none" stroke="#333333" d="M348,-335C348,-335 424,-335 424,-335 430,-335 436,-341 436,-347 436,-347 436,-387 436,-387 436,-393 430,-399 424,-399 424,-399 348,-399 348,-399 342,-399 336,-393 336,-387 336,-387 336,-347 336,-347 336,-341 342,-335 348,-335"/>
<text text-anchor="start" x="371.5" y="-320.8" font-family="Arial" font-weight="bold" font-size="14.00">time</text>
</g>
<!-- 1&#45;&gt;5 -->
<g id="edge2" class="edge">
<title>1&#45;&gt;5</title>
<path fill="none" stroke="#888888" d="M336.09,-461.67C340.69,-453.03 345.46,-444.07 350.15,-435.27"/>
<polygon fill="#888888" stroke="#888888" points="353.38,-436.65 355,-426.18 347.21,-433.36 353.38,-436.65"/>
</g>
<!-- 3 -->
<g id="node4" class="node">
<title>3</title>
<text text-anchor="start" x="44" y="-253.8" font-family="Arial" font-weight="bold" font-size="14.00"> &lt; 16.26</text>
<path fill="#f8766d" fill-opacity="0.874510" stroke="transparent" d="M24,-181C24,-181 114,-181 114,-181 120,-181 126,-187 126,-193 126,-193 126,-233 126,-233 126,-239 120,-245 114,-245 114,-245 24,-245 24,-245 18,-245 12,-239 12,-233 12,-233 12,-193 12,-193 12,-187 18,-181 24,-181"/>
<text text-anchor="start" x="13" y="-242.4" font-family="Arial" font-size="2.00"> </text>
<text text-anchor="start" x="13" y="-236.4" font-family="Arial" font-size="7.00"> &#160;3</text>
<text text-anchor="start" x="27" y="-219.8" font-family="Arial" font-weight="bold" font-size="14.00">Predict 13.98</text>
<text text-anchor="start" x="49" y="-202.8" font-family="Arial" font-weight="bold" font-size="14.00">n = 41</text>
<text text-anchor="start" x="67.5" y="-184.8" font-family="Arial" font-size="9.00"> </text>
<path fill="none" stroke="#333333" d="M24,-181C24,-181 114,-181 114,-181 120,-181 126,-187 126,-193 126,-193 126,-233 126,-233 126,-239 120,-245 114,-245 114,-245 24,-245 24,-245 18,-245 12,-239 12,-233 12,-233 12,-193 12,-193 12,-187 18,-181 24,-181"/>
<text text-anchor="start" x="67" y="-166.8" font-family="Arial" font-weight="bold" font-size="14.00"> </text>
</g>
<!-- 2&#45;&gt;3 -->
<g id="edge3" class="edge">
<title>2&#45;&gt;3</title>
<path fill="none" stroke="#888888" d="M164.52,-307.67C155.06,-298.39 145.22,-288.75 135.62,-279.33"/>
<polygon fill="#888888" stroke="#888888" points="137.92,-276.68 128.32,-272.18 133.01,-281.68 137.92,-276.68"/>
</g>
<!-- 4 -->
<g id="node5" class="node">
<title>4</title>
<text text-anchor="start" x="200.5" y="-253.8" font-family="Arial" font-weight="bold" font-size="14.00"> ≥ 16.26</text>
<path fill="#f8766d" fill-opacity="0.733333" stroke="transparent" d="M180,-181C180,-181 270,-181 270,-181 276,-181 282,-187 282,-193 282,-193 282,-233 282,-233 282,-239 276,-245 270,-245 270,-245 180,-245 180,-245 174,-245 168,-239 168,-233 168,-233 168,-193 168,-193 168,-187 174,-181 180,-181"/>
<text text-anchor="start" x="169" y="-242.4" font-family="Arial" font-size="2.00"> </text>
<text text-anchor="start" x="169" y="-236.4" font-family="Arial" font-size="7.00"> &#160;4</text>
<text text-anchor="start" x="183" y="-219.8" font-family="Arial" font-weight="bold" font-size="14.00">Predict 18.02</text>
<text text-anchor="start" x="205" y="-202.8" font-family="Arial" font-weight="bold" font-size="14.00">n = 15</text>
<text text-anchor="start" x="223.5" y="-184.8" font-family="Arial" font-size="9.00"> </text>
<path fill="none" stroke="#333333" d="M180,-181C180,-181 270,-181 270,-181 276,-181 282,-187 282,-193 282,-193 282,-233 282,-233 282,-239 276,-245 270,-245 270,-245 180,-245 180,-245 174,-245 168,-239 168,-233 168,-233 168,-193 168,-193 168,-187 174,-181 180,-181"/>
<text text-anchor="start" x="223" y="-166.8" font-family="Arial" font-weight="bold" font-size="14.00"> </text>
</g>
<!-- 2&#45;&gt;4 -->
<g id="edge4" class="edge">
<title>2&#45;&gt;4</title>
<path fill="none" stroke="#888888" d="M224.38,-307.67C224.44,-299.39 224.49,-290.83 224.55,-282.38"/>
<polygon fill="#888888" stroke="#888888" points="228.05,-282.2 224.62,-272.18 221.05,-282.15 228.05,-282.2"/>
</g>
<!-- 6 -->
<g id="node6" class="node">
<title>6</title>
<text text-anchor="start" x="364.5" y="-253.8" font-family="Arial" font-weight="bold" font-size="14.00"> &lt; 13.5</text>
<text text-anchor="start" x="322" y="-209.3" font-family="Arial" font-size="14.00"> &#160;</text>
<path fill="#ebebeb" stroke="transparent" d="M344,-181C344,-181 428,-181 428,-181 434,-181 440,-187 440,-193 440,-193 440,-233 440,-233 440,-239 434,-245 428,-245 428,-245 344,-245 344,-245 338,-245 332,-239 332,-233 332,-233 332,-193 332,-193 332,-187 338,-181 344,-181"/>
<text text-anchor="start" x="333" y="-242.4" font-family="Arial" font-size="2.00"> </text>
<text text-anchor="start" x="333" y="-236.4" font-family="Arial" font-size="7.00"> &#160;6</text>
<text text-anchor="start" x="347" y="-219.8" font-family="Arial" font-weight="bold" font-size="14.00">Mean: 27.67</text>
<text text-anchor="start" x="366" y="-202.8" font-family="Arial" font-weight="bold" font-size="14.00">n = 42</text>
<text text-anchor="start" x="384.5" y="-184.8" font-family="Arial" font-size="9.00"> </text>
<path fill="none" stroke="#333333" d="M344,-181C344,-181 428,-181 428,-181 434,-181 440,-187 440,-193 440,-193 440,-233 440,-233 440,-239 434,-245 428,-245 428,-245 344,-245 344,-245 338,-245 332,-239 332,-233 332,-233 332,-193 332,-193 332,-187 338,-181 344,-181"/>
<text text-anchor="start" x="442" y="-209.3" font-family="Arial" font-size="14.00"> &#160;</text>
<text text-anchor="start" x="336" y="-166.8" font-family="Arial" font-weight="bold" font-size="14.00">prev_1h_inflow</text>
</g>
<!-- 5&#45;&gt;6 -->
<g id="edge5" class="edge">
<title>5&#45;&gt;6</title>
<path fill="none" stroke="#888888" d="M386,-307.67C386,-299.39 386,-290.83 386,-282.38"/>
<polygon fill="#888888" stroke="#888888" points="389.5,-282.18 386,-272.18 382.5,-282.18 389.5,-282.18"/>
</g>
<!-- 9 -->
<g id="node7" class="node">
<title>9</title>
<text text-anchor="start" x="523" y="-253.8" font-family="Arial" font-weight="bold" font-size="14.00"> ≥ 13.5</text>
<path fill="#ebebeb" stroke="transparent" d="M502,-181C502,-181 586,-181 586,-181 592,-181 598,-187 598,-193 598,-193 598,-233 598,-233 598,-239 592,-245 586,-245 586,-245 502,-245 502,-245 496,-245 490,-239 490,-233 490,-233 490,-193 490,-193 490,-187 496,-181 502,-181"/>
<text text-anchor="start" x="491" y="-242.4" font-family="Arial" font-size="2.00"> </text>
<text text-anchor="start" x="491" y="-236.4" font-family="Arial" font-size="7.00"> &#160;9</text>
<text text-anchor="start" x="505" y="-219.8" font-family="Arial" font-weight="bold" font-size="14.00">Mean: 24.04</text>
<text text-anchor="start" x="524" y="-202.8" font-family="Arial" font-weight="bold" font-size="14.00">n = 70</text>
<text text-anchor="start" x="542.5" y="-184.8" font-family="Arial" font-size="9.00"> </text>
<path fill="none" stroke="#333333" d="M502,-181C502,-181 586,-181 586,-181 592,-181 598,-187 598,-193 598,-193 598,-233 598,-233 598,-239 592,-245 586,-245 586,-245 502,-245 502,-245 496,-245 490,-239 490,-233 490,-233 490,-193 490,-193 490,-187 496,-181 502,-181"/>
<text text-anchor="start" x="529.5" y="-166.8" font-family="Arial" font-weight="bold" font-size="14.00">time</text>
</g>
<!-- 5&#45;&gt;9 -->
<g id="edge6" class="edge">
<title>5&#45;&gt;9</title>
<path fill="none" stroke="#888888" d="M446.64,-307.67C456.27,-298.39 466.3,-288.75 476.09,-279.33"/>
<polygon fill="#888888" stroke="#888888" points="478.75,-281.63 483.53,-272.18 473.89,-276.59 478.75,-281.63"/>
</g>
<!-- 7 -->
<g id="node8" class="node">
<title>7</title>
<text text-anchor="start" x="210.5" y="-99.8" font-family="Arial" font-weight="bold" font-size="14.00"> &lt; 20.11</text>
<path fill="#f8766d" fill-opacity="0.560784" stroke="transparent" d="M190,-27C190,-27 280,-27 280,-27 286,-27 292,-33 292,-39 292,-39 292,-79 292,-79 292,-85 286,-91 280,-91 280,-91 190,-91 190,-91 184,-91 178,-85 178,-79 178,-79 178,-39 178,-39 178,-33 184,-27 190,-27"/>
<text text-anchor="start" x="179" y="-88.4" font-family="Arial" font-size="2.00"> </text>
<text text-anchor="start" x="179" y="-82.4" font-family="Arial" font-size="7.00"> &#160;7</text>
<text text-anchor="start" x="193" y="-65.8" font-family="Arial" font-weight="bold" font-size="14.00">Predict 23.02</text>
<text text-anchor="start" x="219" y="-48.8" font-family="Arial" font-weight="bold" font-size="14.00">n = 5</text>
<text text-anchor="start" x="233.5" y="-30.8" font-family="Arial" font-size="9.00"> </text>
<path fill="none" stroke="#333333" d="M190,-27C190,-27 280,-27 280,-27 286,-27 292,-33 292,-39 292,-39 292,-79 292,-79 292,-85 286,-91 280,-91 280,-91 190,-91 190,-91 184,-91 178,-85 178,-79 178,-79 178,-39 178,-39 178,-33 184,-27 190,-27"/>
<text text-anchor="start" x="233" y="-12.8" font-family="Arial" font-weight="bold" font-size="14.00"> </text>
</g>
<!-- 6&#45;&gt;7 -->
<g id="edge7" class="edge">
<title>6&#45;&gt;7</title>
<path fill="none" stroke="#888888" d="M328.05,-153.67C318.84,-144.39 309.26,-134.75 299.9,-125.33"/>
<polygon fill="#888888" stroke="#888888" points="302.32,-122.8 292.79,-118.18 297.36,-127.74 302.32,-122.8"/>
</g>
<!-- 8 -->
<g id="node9" class="node">
<title>8</title>
<text text-anchor="start" x="362.5" y="-99.8" font-family="Arial" font-weight="bold" font-size="14.00"> ≥ 20.11</text>
<path fill="#f8766d" fill-opacity="0.376471" stroke="transparent" d="M346,-27C346,-27 428,-27 428,-27 434,-27 440,-33 440,-39 440,-39 440,-79 440,-79 440,-85 434,-91 428,-91 428,-91 346,-91 346,-91 340,-91 334,-85 334,-79 334,-79 334,-39 334,-39 334,-33 340,-27 346,-27"/>
<text text-anchor="start" x="335" y="-88.4" font-family="Arial" font-size="2.00"> </text>
<text text-anchor="start" x="335" y="-82.4" font-family="Arial" font-size="7.00"> &#160;8</text>
<text text-anchor="start" x="349" y="-65.8" font-family="Arial" font-weight="bold" font-size="14.00">Predict 28.3</text>
<text text-anchor="start" x="367" y="-48.8" font-family="Arial" font-weight="bold" font-size="14.00">n = 37</text>
<text text-anchor="start" x="385.5" y="-30.8" font-family="Arial" font-size="9.00"> </text>
<path fill="none" stroke="#333333" d="M346,-27C346,-27 428,-27 428,-27 434,-27 440,-33 440,-39 440,-39 440,-79 440,-79 440,-85 434,-91 428,-91 428,-91 346,-91 346,-91 340,-91 334,-85 334,-79 334,-79 334,-39 334,-39 334,-33 340,-27 346,-27"/>
<text text-anchor="start" x="385" y="-12.8" font-family="Arial" font-weight="bold" font-size="14.00"> </text>
</g>
<!-- 6&#45;&gt;8 -->
<g id="edge8" class="edge">
<title>6&#45;&gt;8</title>
<path fill="none" stroke="#888888" d="M386.38,-153.67C386.44,-145.39 386.49,-136.83 386.55,-128.38"/>
<polygon fill="#888888" stroke="#888888" points="390.05,-128.2 386.62,-118.18 383.05,-128.15 390.05,-128.2"/>
</g>
<!-- 10 -->
<g id="node10" class="node">
<title>10</title>
<text text-anchor="start" x="520.5" y="-99.8" font-family="Arial" font-weight="bold" font-size="14.00"> &lt; 21.5</text>
<path fill="#f8766d" fill-opacity="0.494118" stroke="transparent" d="M497,-27C497,-27 587,-27 587,-27 593,-27 599,-33 599,-39 599,-39 599,-79 599,-79 599,-85 593,-91 587,-91 587,-91 497,-91 497,-91 491,-91 485,-85 485,-79 485,-79 485,-39 485,-39 485,-33 491,-27 497,-27"/>
<text text-anchor="start" x="486" y="-88.4" font-family="Arial" font-size="2.00"> </text>
<text text-anchor="start" x="486" y="-82.4" font-family="Arial" font-size="7.00"> &#160;10</text>
<text text-anchor="start" x="500" y="-65.8" font-family="Arial" font-weight="bold" font-size="14.00">Predict 24.85</text>
<text text-anchor="start" x="522" y="-48.8" font-family="Arial" font-weight="bold" font-size="14.00">n = 56</text>
<text text-anchor="start" x="540.5" y="-30.8" font-family="Arial" font-size="9.00"> </text>
<path fill="none" stroke="#333333" d="M497,-27C497,-27 587,-27 587,-27 593,-27 599,-33 599,-39 599,-39 599,-79 599,-79 599,-85 593,-91 587,-91 587,-91 497,-91 497,-91 491,-91 485,-85 485,-79 485,-79 485,-39 485,-39 485,-33 491,-27 497,-27"/>
<text text-anchor="start" x="540" y="-12.8" font-family="Arial" font-weight="bold" font-size="14.00"> </text>
</g>
<!-- 9&#45;&gt;10 -->
<g id="edge9" class="edge">
<title>9&#45;&gt;10</title>
<path fill="none" stroke="#888888" d="M543.23,-153.67C543.12,-145.39 543.01,-136.83 542.9,-128.38"/>
<polygon fill="#888888" stroke="#888888" points="546.4,-128.13 542.77,-118.18 539.4,-128.22 546.4,-128.13"/>
</g>
<!-- 11 -->
<g id="node11" class="node">
<title>11</title>
<text text-anchor="start" x="673" y="-99.8" font-family="Arial" font-weight="bold" font-size="14.00"> ≥ 21.5</text>
<path fill="#f8766d" fill-opacity="0.635294" stroke="transparent" d="M653,-27C653,-27 735,-27 735,-27 741,-27 747,-33 747,-39 747,-39 747,-79 747,-79 747,-85 741,-91 735,-91 735,-91 653,-91 653,-91 647,-91 641,-85 641,-79 641,-79 641,-39 641,-39 641,-33 647,-27 653,-27"/>
<text text-anchor="start" x="642" y="-88.4" font-family="Arial" font-size="2.00"> </text>
<text text-anchor="start" x="642" y="-82.4" font-family="Arial" font-size="7.00"> &#160;11</text>
<text text-anchor="start" x="656" y="-65.8" font-family="Arial" font-weight="bold" font-size="14.00">Predict 20.8</text>
<text text-anchor="start" x="674" y="-48.8" font-family="Arial" font-weight="bold" font-size="14.00">n = 14</text>
<text text-anchor="start" x="692.5" y="-30.8" font-family="Arial" font-size="9.00"> </text>
<path fill="none" stroke="#333333" d="M653,-27C653,-27 735,-27 735,-27 741,-27 747,-33 747,-39 747,-39 747,-79 747,-79 747,-85 741,-91 735,-91 735,-91 653,-91 653,-91 647,-91 641,-85 641,-79 641,-79 641,-39 641,-39 641,-33 647,-27 653,-27"/>
<text text-anchor="start" x="692" y="-12.8" font-family="Arial" font-weight="bold" font-size="14.00"> </text>
</g>
<!-- 9&#45;&gt;11 -->
<g id="edge10" class="edge">
<title>9&#45;&gt;11</title>
<path fill="none" stroke="#888888" d="M601.56,-153.67C610.72,-144.39 620.23,-134.75 629.53,-125.33"/>
<polygon fill="#888888" stroke="#888888" points="632.06,-127.75 636.59,-118.18 627.07,-122.84 632.06,-127.75"/>
</g>
</g>
</svg>
