<?xml version="1.0" encoding="UTF-8" standalone="no"?>
<!DOCTYPE svg PUBLIC "-//W3C//DTD SVG 1.1//EN"
 "http://www.w3.org/Graphics/SVG/1.1/DTD/svg11.dtd">
<!-- Generated by graphviz version 2.50.0 (20211204.2007)
 -->
<!-- Pages: 1 -->
<svg width="698pt" height="588pt"
 viewBox="0.00 0.00 698.00 588.00" xmlns="http://www.w3.org/2000/svg" xmlns:xlink="http://www.w3.org/1999/xlink">
<g id="graph0" class="graph" transform="scale(1 1) rotate(0) translate(4 584)">
<polygon fill="white" stroke="transparent" points="-4,4 -4,-584 694,-584 694,4 -4,4"/>
<!-- 1 -->
<g id="node1" class="node">
<title>1</title>
<text text-anchor="start" x="305" y="-561.8" font-family="Arial" font-weight="bold" font-size="14.00"> </text>
<text text-anchor="start" x="235" y="-517.3" font-family="Arial" font-size="14.00"> &#160;&#160;&#160;</text>
<path fill="#ebebeb" stroke="transparent" d="M265,-489C265,-489 349,-489 349,-489 355,-489 361,-495 361,-501 361,-501 361,-541 361,-541 361,-547 355,-553 349,-553 349,-553 265,-553 265,-553 259,-553 253,-547 253,-541 253,-541 253,-501 253,-501 253,-495 259,-489 265,-489"/>
<text text-anchor="start" x="254" y="-550.4" font-family="Arial" font-size="2.00"> </text>
<text text-anchor="start" x="254" y="-544.4" font-family="Arial" font-size="7.00"> &#160;1</text>
<text text-anchor="start" x="268" y="-527.8" font-family="Arial" font-weight="bold" font-size="14.00">Mean: 27.19</text>
<text text-anchor="start" x="283.5" y="-510.8" font-family="Arial" font-weight="bold" font-size="14.00">n = 168</text>
<text text-anchor="start" x="305.5" y="-492.8" font-family="Arial" font-size="9.00"> </text>
<path fill="none" stroke="#333333" d="M265,-489C265,-489 349,-489 349,-489 355,-489 361,-495 361,-501 361,-501 361,-541 361,-541 361,-547 355,-553 349,-553 349,-553 265,-553 265,-553 259,-553 253,-547 253,-541 253,-541 253,-501 253,-501 253,-495 259,-489 265,-489"/>
<text text-anchor="start" x="363" y="-517.3" font-family="Arial" font-size="14.00"> &#160;&#160;&#160;</text>
<text text-anchor="start" x="249.5" y="-474.8" font-family="Arial" font-weight="bold" font-size="14.00">prev_168h_inflow</text>
</g>
<!-- 2 -->
<g id="node2" class="node">
<title>2</title>
<text text-anchor="start" x="195" y="-407.8" font-family="Arial" font-weight="bold" font-size="14.00"> &lt; 26.24</text>
<text text-anchor="start" x="148" y="-363.3" font-family="Arial" font-size="14.00"> &#160;&#160;&#160;</text>
<path fill="#ebebeb" stroke="transparent" d="M178,-335C178,-335 262,-335 262,-335 268,-335 274,-341 274,-347 274,-347 274,-387 274,-387 274,-393 268,-399 262,-399 262,-399 178,-399 178,-399 172,-399 166,-393 166,-387 166,-387 166,-347 166,-347 166,-341 172,-335 178,-335"/>
<text text-anchor="start" x="167" y="-396.4" font-family="Arial" font-size="2.00"> </text>
<text text-anchor="start" x="167" y="-390.4" font-family="Arial" font-size="7.00"> &#160;2</text>
<text text-anchor="start" x="181" y="-373.8" font-family="Arial" font-weight="bold" font-size="14.00">Mean: 23.09</text>
<text text-anchor="start" x="200" y="-356.8" font-family="Arial" font-weight="bold" font-size="14.00">n = 65</text>
<text text-anchor="start" x="218.5" y="-338.8" font-family="Arial" font-size="9.00"> </text>
<path fill="none" stroke="#333333" d="M178,-335C178,-335 262,-335 262,-335 268,-335 274,-341 274,-347 274,-347 274,-387 274,-387 274,-393 268,-399 262,-399 262,-399 178,-399 178,-399 172,-399 166,-393 166,-387 166,-387 166,-347 166,-347 166,-341 172,-335 178,-335"/>
<text text-anchor="start" x="276" y="-363.3" font-family="Arial" font-size="14.00"> &#160;&#160;&#160;</text>
<text text-anchor="start" x="162.5" y="-320.8" font-family="Arial" font-weight="bold" font-size="14.00">prev_168h_inflow</text>
</g>
<!-- 1&#45;&gt;2 -->
<g id="edge1" class="edge">
<title>1&#45;&gt;2</title>
<path fill="none" stroke="#888888" d="M273.61,-461.67C268.62,-452.94 263.43,-443.88 258.34,-434.99"/>
<polygon fill="#888888" stroke="#888888" points="261.3,-433.12 253.3,-426.18 255.23,-436.59 261.3,-433.12"/>
</g>
<!-- 5 -->
<g id="node3" class="node">
<title>5</title>
<text text-anchor="start" x="369.5" y="-407.8" font-family="Arial" font-weight="bold" font-size="14.00"> ≥ 26.24</text>
<text text-anchor="start" x="330" y="-363.3" font-family="Arial" font-size="14.00"> &#160;</text>
<path fill="#ebebeb" stroke="transparent" d="M352,-335C352,-335 436,-335 436,-335 442,-335 448,-341 448,-347 448,-347 448,-387 448,-387 448,-393 442,-399 436,-399 436,-399 352,-399 352,-399 346,-399 340,-393 340,-387 340,-387 340,-347 340,-347 340,-341 346,-335 352,-335"/>
<text text-anchor="start" x="341" y="-396.4" font-family="Arial" font-size="2.00"> </text>
<text text-anchor="start" x="341" y="-390.4" font-family="Arial" font-size="7.00"> &#160;5</text>
<text text-anchor="start" x="355" y="-373.8" font-family="Arial" font-weight="bold" font-size="14.00">Mean: 29.78</text>
<text text-anchor="start" x="370.5" y="-356.8" font-family="Arial" font-weight="bold" font-size="14.00">n = 103</text>
<text text-anchor="start" x="392.5" y="-338.8" font-family="Arial" font-size="9.00"> </text>
<path fill="none" stroke="#333333" d="M352,-335C352,-335 436,-335 436,-335 442,-335 448,-341 448,-347 448,-347 448,-387 448,-387 448,-393 442,-399 436,-399 436,-399 352,-399 352,-399 346,-399 340,-393 340,-387 340,-387 340,-347 340,-347 340,-341 346,-335 352,-335"/>
<text text-anchor="start" x="450" y="-363.3" font-family="Arial" font-size="14.00"> &#160;</text>
<text text-anchor="start" x="344" y="-320.8" font-family="Arial" font-weight="bold" font-size="14.00">prev_1h_inflow</text>
</g>
<!-- 1&#45;&gt;5 -->
<g id="edge2" class="edge">
<title>1&#45;&gt;5</title>
<path fill="none" stroke="#888888" d="M340.39,-461.67C345.38,-452.94 350.57,-443.88 355.66,-434.99"/>
<polygon fill="#888888" stroke="#888888" points="358.77,-436.59 360.7,-426.18 352.7,-433.12 358.77,-436.59"/>
</g>
<!-- 3 -->
<g id="node4" class="node">
<title>3</title>
<text text-anchor="start" x="44" y="-253.8" font-family="Arial" font-weight="bold" font-size="14.00"> &lt; 22.72</text>
<path fill="#f8766d" fill-opacity="0.874510" stroke="transparent" d="M24,-181C24,-181 114,-181 114,-181 120,-181 126,-187 126,-193 126,-193 126,-233 126,-233 126,-239 120,-245 114,-245 114,-245 24,-245 24,-245 18,-245 12,-239 12,-233 12,-233 12,-193 12,-193 12,-187 18,-181 24,-181"/>
<text text-anchor="start" x="13" y="-242.4" font-family="Arial" font-size="2.00"> </text>
<text text-anchor="start" x="13" y="-236.4" font-family="Arial" font-size="7.00"> &#160;3</text>
<text text-anchor="start" x="27" y="-219.8" font-family="Arial" font-weight="bold" font-size="14.00">Predict 21.56</text>
<text text-anchor="start" x="49" y="-202.8" font-family="Arial" font-weight="bold" font-size="14.00">n = 39</text>
<text text-anchor="start" x="67.5" y="-184.8" font-family="Arial" font-size="9.00"> </text>
<path fill="none" stroke="#333333" d="M24,-181C24,-181 114,-181 114,-181 120,-181 126,-187 126,-193 126,-193 126,-233 126,-233 126,-239 120,-245 114,-245 114,-245 24,-245 24,-245 18,-245 12,-239 12,-233 12,-233 12,-193 12,-193 12,-187 18,-181 24,-181"/>
<text text-anchor="start" x="67" y="-166.8" font-family="Arial" font-weight="bold" font-size="14.00"> </text>
</g>
<!-- 2&#45;&gt;3 -->
<g id="edge3" class="edge">
<title>2&#45;&gt;3</title>
<path fill="none" stroke="#888888" d="M162.05,-307.67C152.84,-298.39 143.26,-288.75 133.9,-279.33"/>
<polygon fill="#888888" stroke="#888888" points="136.32,-276.8 126.79,-272.18 131.36,-281.74 136.32,-276.8"/>
</g>
<!-- 4 -->
<g id="node5" class="node">
<title>4</title>
<text text-anchor="start" x="200.5" y="-253.8" font-family="Arial" font-weight="bold" font-size="14.00"> ≥ 22.72</text>
<path fill="#f8766d" fill-opacity="0.698039" stroke="transparent" d="M180,-181C180,-181 270,-181 270,-181 276,-181 282,-187 282,-193 282,-193 282,-233 282,-233 282,-239 276,-245 270,-245 270,-245 180,-245 180,-245 174,-245 168,-239 168,-233 168,-233 168,-193 168,-193 168,-187 174,-181 180,-181"/>
<text text-anchor="start" x="169" y="-242.4" font-family="Arial" font-size="2.00"> </text>
<text text-anchor="start" x="169" y="-236.4" font-family="Arial" font-size="7.00"> &#160;4</text>
<text text-anchor="start" x="183" y="-219.8" font-family="Arial" font-weight="bold" font-size="14.00">Predict 25.37</text>
<text text-anchor="start" x="205" y="-202.8" font-family="Arial" font-weight="bold" font-size="14.00">n = 26</text>
<text text-anchor="start" x="223.5" y="-184.8" font-family="Arial" font-size="9.00"> </text>
<path fill="none" stroke="#333333" d="M180,-181C180,-181 270,-181 270,-181 276,-181 282,-187 282,-193 282,-193 282,-233 282,-233 282,-239 276,-245 270,-245 270,-245 180,-245 180,-245 174,-245 168,-239 168,-233 168,-233 168,-193 168,-193 168,-187 174,-181 180,-181"/>
<text text-anchor="start" x="223" y="-166.8" font-family="Arial" font-weight="bold" font-size="14.00"> </text>
</g>
<!-- 2&#45;&gt;4 -->
<g id="edge4" class="edge">
<title>2&#45;&gt;4</title>
<path fill="none" stroke="#888888" d="M221.92,-307.67C222.19,-299.39 222.47,-290.83 222.75,-282.38"/>
<polygon fill="#888888" stroke="#888888" points="226.26,-282.29 223.09,-272.18 219.26,-282.06 226.26,-282.29"/>
</g>
<!-- 6 -->
<g id="node6" class="node">
<title>6</title>
<text text-anchor="start" x="365" y="-253.8" font-family="Arial" font-weight="bold" font-size="14.00"> &lt; 28.54</text>
<path fill="#f8766d" fill-opacity="0.564706" stroke="transparent" d="M345,-181C345,-181 435,-181 435,-181 441,-181 447,-187 447,-193 447,-193 447,-233 447,-233 447,-239 441,-245 435,-245 435,-245 345,-245 345,-245 339,-245 333,-239 333,-233 333,-233 333,-193 333,-193 333,-187 339,-181 345,-181"/>
<text text-anchor="start" x="334" y="-242.4" font-family="Arial" font-size="2.00"> </text>
<text text-anchor="start" x="334" y="-236.4" font-family="Arial" font-size="7.00"> &#160;6</text>
<text text-anchor="start" x="348" y="-219.8" font-family="Arial" font-weight="bold" font-size="14.00">Predict 28.24</text>
<text text-anchor="start" x="370" y="-202.8" font-family="Arial" font-weight="bold" font-size="14.00">n = 30</text>
<text text-anchor="start" x="388.5" y="-184.8" font-family="Arial" font-size="9.00"> </text>
<path fill="none" stroke="#333333" d="M345,-181C345,-181 435,-181 435,-181 441,-181 447,-187 447,-193 447,-193 447,-233 447,-233 447,-239 441,-245 435,-245 435,-245 345,-245 345,-245 339,-245 333,-239 333,-233 333,-233 333,-193 333,-193 333,-187 339,-181 345,-181"/>
<text text-anchor="start" x="388" y="-166.8" font-family="Arial" font-weight="bold" font-size="14.00"> </text>
</g>
<!-- 5&#45;&gt;6 -->
<g id="edge5" class="edge">
<title>5&#45;&gt;6</title>
<path fill="none" stroke="#888888" d="M392.46,-307.67C392.25,-299.39 392.02,-290.83 391.8,-282.38"/>
<polygon fill="#888888" stroke="#888888" points="395.29,-282.08 391.53,-272.18 388.3,-282.27 395.29,-282.08"/>
</g>
<!-- 7 -->
<g id="node7" class="node">
<title>7</title>
<text text-anchor="start" x="518.5" y="-253.8" font-family="Arial" font-weight="bold" font-size="14.00"> ≥ 28.54</text>
<path fill="#ebebeb" stroke="transparent" d="M501,-181C501,-181 585,-181 585,-181 591,-181 597,-187 597,-193 597,-193 597,-233 597,-233 597,-239 591,-245 585,-245 585,-245 501,-245 501,-245 495,-245 489,-239 489,-233 489,-233 489,-193 489,-193 489,-187 495,-181 501,-181"/>
<text text-anchor="start" x="490" y="-242.4" font-family="Arial" font-size="2.00"> </text>
<text text-anchor="start" x="490" y="-236.4" font-family="Arial" font-size="7.00"> &#160;7</text>
<text text-anchor="start" x="504" y="-219.8" font-family="Arial" font-weight="bold" font-size="14.00">Mean: 30.42</text>
<text text-anchor="start" x="523" y="-202.8" font-family="Arial" font-weight="bold" font-size="14.00">n = 73</text>
<text text-anchor="start" x="541.5" y="-184.8" font-family="Arial" font-size="9.00"> </text>
<path fill="none" stroke="#333333" d="M501,-181C501,-181 585,-181 585,-181 591,-181 597,-187 597,-193 597,-193 597,-233 597,-233 597,-239 591,-245 585,-245 585,-245 501,-245 501,-245 495,-245 489,-239 489,-233 489,-233 489,-193 489,-193 489,-187 495,-181 501,-181"/>
<text text-anchor="start" x="528.5" y="-166.8" font-family="Arial" font-weight="bold" font-size="14.00">time</text>
</g>
<!-- 5&#45;&gt;7 -->
<g id="edge6" class="edge">
<title>5&#45;&gt;7</title>
<path fill="none" stroke="#888888" d="M451.18,-307.67C460.27,-298.39 469.73,-288.75 478.96,-279.33"/>
<polygon fill="#888888" stroke="#888888" points="481.47,-281.77 485.97,-272.18 476.47,-276.87 481.47,-281.77"/>
</g>
<!-- 8 -->
<g id="node8" class="node">
<title>8</title>
<text text-anchor="start" x="444" y="-99.8" font-family="Arial" font-weight="bold" font-size="14.00"> &lt; 11.5</text>
<path fill="#f8766d" fill-opacity="0.376471" stroke="transparent" d="M420,-27C420,-27 510,-27 510,-27 516,-27 522,-33 522,-39 522,-39 522,-79 522,-79 522,-85 516,-91 510,-91 510,-91 420,-91 420,-91 414,-91 408,-85 408,-79 408,-79 408,-39 408,-39 408,-33 414,-27 420,-27"/>
<text text-anchor="start" x="409" y="-88.4" font-family="Arial" font-size="2.00"> </text>
<text text-anchor="start" x="409" y="-82.4" font-family="Arial" font-size="7.00"> &#160;8</text>
<text text-anchor="start" x="423" y="-65.8" font-family="Arial" font-weight="bold" font-size="14.00">Predict 32.33</text>
<text text-anchor="start" x="445" y="-48.8" font-family="Arial" font-weight="bold" font-size="14.00">n = 23</text>
<text text-anchor="start" x="463.5" y="-30.8" font-family="Arial" font-size="9.00"> </text>
<path fill="none" stroke="#333333" d="M420,-27C420,-27 510,-27 510,-27 516,-27 522,-33 522,-39 522,-39 522,-79 522,-79 522,-85 516,-91 510,-91 510,-91 420,-91 420,-91 414,-91 408,-85 408,-79 408,-79 408,-39 408,-39 408,-33 414,-27 420,-27"/>
<text text-anchor="start" x="463" y="-12.8" font-family="Arial" font-weight="bold" font-size="14.00"> </text>
</g>
<!-- 7&#45;&gt;8 -->
<g id="edge7" class="edge">
<title>7&#45;&gt;8</title>
<path fill="none" stroke="#888888" d="M513.07,-153.67C508.63,-145.03 504.04,-136.07 499.52,-127.27"/>
<polygon fill="#888888" stroke="#888888" points="502.53,-125.48 494.85,-118.18 496.31,-128.67 502.53,-125.48"/>
</g>
<!-- 9 -->
<g id="node9" class="node">
<title>9</title>
<text text-anchor="start" x="600.5" y="-99.8" font-family="Arial" font-weight="bold" font-size="14.00"> ≥ 11.5</text>
<path fill="#f8766d" fill-opacity="0.505882" stroke="transparent" d="M576,-27C576,-27 666,-27 666,-27 672,-27 678,-33 678,-39 678,-39 678,-79 678,-79 678,-85 672,-91 666,-91 666,-91 576,-91 576,-91 570,-91 564,-85 564,-79 564,-79 564,-39 564,-39 564,-33 570,-27 576,-27"/>
<text text-anchor="start" x="565" y="-88.4" font-family="Arial" font-size="2.00"> </text>
<text text-anchor="start" x="565" y="-82.4" font-family="Arial" font-size="7.00"> &#160;9</text>
<text text-anchor="start" x="579" y="-65.8" font-family="Arial" font-weight="bold" font-size="14.00">Predict 29.54</text>
<text text-anchor="start" x="601" y="-48.8" font-family="Arial" font-weight="bold" font-size="14.00">n = 50</text>
<text text-anchor="start" x="619.5" y="-30.8" font-family="Arial" font-size="9.00"> </text>
<path fill="none" stroke="#333333" d="M576,-27C576,-27 666,-27 666,-27 672,-27 678,-33 678,-39 678,-39 678,-79 678,-79 678,-85 672,-91 666,-91 666,-91 576,-91 576,-91 570,-91 564,-85 564,-79 564,-79 564,-39 564,-39 564,-33 570,-27 576,-27"/>
<text text-anchor="start" x="619" y="-12.8" font-family="Arial" font-weight="bold" font-size="14.00"> </text>
</g>
<!-- 7&#45;&gt;9 -->
<g id="edge8" class="edge">
<title>7&#45;&gt;9</title>
<path fill="none" stroke="#888888" d="M572.93,-153.67C577.37,-145.03 581.96,-136.07 586.48,-127.27"/>
<polygon fill="#888888" stroke="#888888" points="589.69,-128.67 591.15,-118.18 583.47,-125.48 589.69,-128.67"/>
</g>
</g>
</svg>
