<?xml version="1.0" encoding="UTF-8" standalone="no"?>
<!DOCTYPE svg PUBLIC "-//W3C//DTD SVG 1.1//EN"
 "http://www.w3.org/Graphics/SVG/1.1/DTD/svg11.dtd">
<!-- Generated by graphviz version 2.50.0 (20211204.2007)
 -->
<!-- Pages: 1 -->
<svg width="942pt" height="742pt"
 viewBox="0.00 0.00 942.00 742.00" xmlns="http://www.w3.org/2000/svg" xmlns:xlink="http://www.w3.org/1999/xlink">
<g id="graph0" class="graph" transform="scale(1 1) rotate(0) translate(4 738)">
<polygon fill="white" stroke="transparent" points="-4,4 -4,-738 938,-738 938,4 -4,4"/>
<!-- 1 -->
<g id="node1" class="node">
<title>1</title>
<text text-anchor="start" x="303" y="-715.8" font-family="Arial" font-weight="bold" font-size="14.00"> </text>
<text text-anchor="start" x="233" y="-671.3" font-family="Arial" font-size="14.00"> &#160;&#160;&#160;</text>
<path fill="#ebebeb" stroke="transparent" d="M263,-643C263,-643 347,-643 347,-643 353,-643 359,-649 359,-655 359,-655 359,-695 359,-695 359,-701 353,-707 347,-707 347,-707 263,-707 263,-707 257,-707 251,-701 251,-695 251,-695 251,-655 251,-655 251,-649 257,-643 263,-643"/>
<text text-anchor="start" x="252" y="-704.4" font-family="Arial" font-size="2.00"> </text>
<text text-anchor="start" x="252" y="-698.4" font-family="Arial" font-size="7.00"> &#160;1</text>
<text text-anchor="start" x="266" y="-681.8" font-family="Arial" font-weight="bold" font-size="14.00">Mean: 24.68</text>
<text text-anchor="start" x="281.5" y="-664.8" font-family="Arial" font-weight="bold" font-size="14.00">n = 168</text>
<text text-anchor="start" x="303.5" y="-646.8" font-family="Arial" font-size="9.00"> </text>
<path fill="none" stroke="#333333" d="M263,-643C263,-643 347,-643 347,-643 353,-643 359,-649 359,-655 359,-655 359,-695 359,-695 359,-701 353,-707 347,-707 347,-707 263,-707 263,-707 257,-707 251,-701 251,-695 251,-695 251,-655 251,-655 251,-649 257,-643 263,-643"/>
<text text-anchor="start" x="361" y="-671.3" font-family="Arial" font-size="14.00"> &#160;&#160;&#160;</text>
<text text-anchor="start" x="247.5" y="-628.8" font-family="Arial" font-weight="bold" font-size="14.00">prev_168h_inflow</text>
</g>
<!-- 2 -->
<g id="node2" class="node">
<title>2</title>
<text text-anchor="start" x="200" y="-561.8" font-family="Arial" font-weight="bold" font-size="14.00"> &lt; 22.72</text>
<path fill="#ebebeb" stroke="transparent" d="M183,-489C183,-489 267,-489 267,-489 273,-489 279,-495 279,-501 279,-501 279,-541 279,-541 279,-547 273,-553 267,-553 267,-553 183,-553 183,-553 177,-553 171,-547 171,-541 171,-541 171,-501 171,-501 171,-495 177,-489 183,-489"/>
<text text-anchor="start" x="172" y="-550.4" font-family="Arial" font-size="2.00"> </text>
<text text-anchor="start" x="172" y="-544.4" font-family="Arial" font-size="7.00"> &#160;2</text>
<text text-anchor="start" x="186" y="-527.8" font-family="Arial" font-weight="bold" font-size="14.00">Mean: 20.97</text>
<text text-anchor="start" x="205" y="-510.8" font-family="Arial" font-weight="bold" font-size="14.00">n = 56</text>
<text text-anchor="start" x="223.5" y="-492.8" font-family="Arial" font-size="9.00"> </text>
<path fill="none" stroke="#333333" d="M183,-489C183,-489 267,-489 267,-489 273,-489 279,-495 279,-501 279,-501 279,-541 279,-541 279,-547 273,-553 267,-553 267,-553 183,-553 183,-553 177,-553 171,-547 171,-541 171,-541 171,-501 171,-501 171,-495 177,-489 183,-489"/>
<text text-anchor="start" x="210.5" y="-474.8" font-family="Arial" font-weight="bold" font-size="14.00">time</text>
</g>
<!-- 1&#45;&gt;2 -->
<g id="edge1" class="edge">
<title>1&#45;&gt;2</title>
<path fill="none" stroke="#888888" d="M274.3,-615.67C269.75,-607.03 265.04,-598.07 260.41,-589.27"/>
<polygon fill="#888888" stroke="#888888" points="263.37,-587.4 255.62,-580.18 257.18,-590.66 263.37,-587.4"/>
</g>
<!-- 5 -->
<g id="node3" class="node">
<title>5</title>
<text text-anchor="start" x="361.5" y="-561.8" font-family="Arial" font-weight="bold" font-size="14.00"> ≥ 22.72</text>
<text text-anchor="start" x="322" y="-517.3" font-family="Arial" font-size="14.00"> &#160;</text>
<path fill="#ebebeb" stroke="transparent" d="M344,-489C344,-489 428,-489 428,-489 434,-489 440,-495 440,-501 440,-501 440,-541 440,-541 440,-547 434,-553 428,-553 428,-553 344,-553 344,-553 338,-553 332,-547 332,-541 332,-541 332,-501 332,-501 332,-495 338,-489 344,-489"/>
<text text-anchor="start" x="333" y="-550.4" font-family="Arial" font-size="2.00"> </text>
<text text-anchor="start" x="333" y="-544.4" font-family="Arial" font-size="7.00"> &#160;5</text>
<text text-anchor="start" x="347" y="-527.8" font-family="Arial" font-weight="bold" font-size="14.00">Mean: 26.54</text>
<text text-anchor="start" x="363" y="-510.8" font-family="Arial" font-weight="bold" font-size="14.00">n = 112</text>
<text text-anchor="start" x="384.5" y="-492.8" font-family="Arial" font-size="9.00"> </text>
<path fill="none" stroke="#333333" d="M344,-489C344,-489 428,-489 428,-489 434,-489 440,-495 440,-501 440,-501 440,-541 440,-541 440,-547 434,-553 428,-553 428,-553 344,-553 344,-553 338,-553 332,-547 332,-541 332,-541 332,-501 332,-501 332,-495 338,-489 344,-489"/>
<text text-anchor="start" x="442" y="-517.3" font-family="Arial" font-size="14.00"> &#160;</text>
<text text-anchor="start" x="336" y="-474.8" font-family="Arial" font-weight="bold" font-size="14.00">prev_1h_inflow</text>
</g>
<!-- 1&#45;&gt;5 -->
<g id="edge2" class="edge">
<title>1&#45;&gt;5</title>
<path fill="none" stroke="#888888" d="M336.09,-615.67C340.69,-607.03 345.46,-598.07 350.15,-589.27"/>
<polygon fill="#888888" stroke="#888888" points="353.38,-590.65 355,-580.18 347.21,-587.36 353.38,-590.65"/>
</g>
<!-- 3 -->
<g id="node4" class="node">
<title>3</title>
<text text-anchor="start" x="51.5" y="-407.8" font-family="Arial" font-weight="bold" font-size="14.00"> &lt; 5.5</text>
<path fill="#f8766d" fill-opacity="0.874510" stroke="transparent" d="M24,-335C24,-335 114,-335 114,-335 120,-335 126,-341 126,-347 126,-347 126,-387 126,-387 126,-393 120,-399 114,-399 114,-399 24,-399 24,-399 18,-399 12,-393 12,-387 12,-387 12,-347 12,-347 12,-341 18,-335 24,-335"/>
<text text-anchor="start" x="13" y="-396.4" font-family="Arial" font-size="2.00"> </text>
<text text-anchor="start" x="13" y="-390.4" font-family="Arial" font-size="7.00"> &#160;3</text>
<text text-anchor="start" x="27" y="-373.8" font-family="Arial" font-weight="bold" font-size="14.00">Predict 20.58</text>
<text text-anchor="start" x="49" y="-356.8" font-family="Arial" font-weight="bold" font-size="14.00">n = 42</text>
<text text-anchor="start" x="67.5" y="-338.8" font-family="Arial" font-size="9.00"> </text>
<path fill="none" stroke="#333333" d="M24,-335C24,-335 114,-335 114,-335 120,-335 126,-341 126,-347 126,-347 126,-387 126,-387 126,-393 120,-399 114,-399 114,-399 24,-399 24,-399 18,-399 12,-393 12,-387 12,-387 12,-347 12,-347 12,-341 18,-335 24,-335"/>
<text text-anchor="start" x="67" y="-320.8" font-family="Arial" font-weight="bold" font-size="14.00"> </text>
</g>
<!-- 2&#45;&gt;3 -->
<g id="edge3" class="edge">
<title>2&#45;&gt;3</title>
<path fill="none" stroke="#888888" d="M165.13,-461.67C155.62,-452.39 145.72,-442.75 136.05,-433.33"/>
<polygon fill="#888888" stroke="#888888" points="138.31,-430.65 128.71,-426.18 133.43,-435.66 138.31,-430.65"/>
</g>
<!-- 4 -->
<g id="node5" class="node">
<title>4</title>
<text text-anchor="start" x="208" y="-407.8" font-family="Arial" font-weight="bold" font-size="14.00"> ≥ 5.5</text>
<path fill="#f8766d" fill-opacity="0.788235" stroke="transparent" d="M180,-335C180,-335 270,-335 270,-335 276,-335 282,-341 282,-347 282,-347 282,-387 282,-387 282,-393 276,-399 270,-399 270,-399 180,-399 180,-399 174,-399 168,-393 168,-387 168,-387 168,-347 168,-347 168,-341 174,-335 180,-335"/>
<text text-anchor="start" x="169" y="-396.4" font-family="Arial" font-size="2.00"> </text>
<text text-anchor="start" x="169" y="-390.4" font-family="Arial" font-size="7.00"> &#160;4</text>
<text text-anchor="start" x="183" y="-373.8" font-family="Arial" font-weight="bold" font-size="14.00">Predict 22.13</text>
<text text-anchor="start" x="205" y="-356.8" font-family="Arial" font-weight="bold" font-size="14.00">n = 14</text>
<text text-anchor="start" x="223.5" y="-338.8" font-family="Arial" font-size="9.00"> </text>
<path fill="none" stroke="#333333" d="M180,-335C180,-335 270,-335 270,-335 276,-335 282,-341 282,-347 282,-347 282,-387 282,-387 282,-393 276,-399 270,-399 270,-399 180,-399 180,-399 174,-399 168,-393 168,-387 168,-387 168,-347 168,-347 168,-341 174,-335 180,-335"/>
<text text-anchor="start" x="223" y="-320.8" font-family="Arial" font-weight="bold" font-size="14.00"> </text>
</g>
<!-- 2&#45;&gt;4 -->
<g id="edge4" class="edge">
<title>2&#45;&gt;4</title>
<path fill="none" stroke="#888888" d="M225,-461.67C225,-453.39 225,-444.83 225,-436.38"/>
<polygon fill="#888888" stroke="#888888" points="228.5,-436.18 225,-426.18 221.5,-436.18 228.5,-436.18"/>
</g>
<!-- 6 -->
<g id="node6" class="node">
<title>6</title>
<text text-anchor="start" x="364.5" y="-407.8" font-family="Arial" font-weight="bold" font-size="14.00"> &lt; 26.3</text>
<text text-anchor="start" x="322" y="-363.3" font-family="Arial" font-size="14.00"> &#160;</text>
<path fill="#ebebeb" stroke="transparent" d="M344,-335C344,-335 428,-335 428,-335 434,-335 440,-341 440,-347 440,-347 440,-387 440,-387 440,-393 434,-399 428,-399 428,-399 344,-399 344,-399 338,-399 332,-393 332,-387 332,-387 332,-347 332,-347 332,-341 338,-335 344,-335"/>
<text text-anchor="start" x="333" y="-396.4" font-family="Arial" font-size="2.00"> </text>
<text text-anchor="start" x="333" y="-390.4" font-family="Arial" font-size="7.00"> &#160;6</text>
<text text-anchor="start" x="347" y="-373.8" font-family="Arial" font-weight="bold" font-size="14.00">Mean: 25.06</text>
<text text-anchor="start" x="366" y="-356.8" font-family="Arial" font-weight="bold" font-size="14.00">n = 63</text>
<text text-anchor="start" x="384.5" y="-338.8" font-family="Arial" font-size="9.00"> </text>
<path fill="none" stroke="#333333" d="M344,-335C344,-335 428,-335 428,-335 434,-335 440,-341 440,-347 440,-347 440,-387 440,-387 440,-393 434,-399 428,-399 428,-399 344,-399 344,-399 338,-399 332,-393 332,-387 332,-387 332,-347 332,-347 332,-341 338,-335 344,-335"/>
<text text-anchor="start" x="442" y="-363.3" font-family="Arial" font-size="14.00"> &#160;</text>
<text text-anchor="start" x="336" y="-320.8" font-family="Arial" font-weight="bold" font-size="14.00">prev_1h_inflow</text>
</g>
<!-- 5&#45;&gt;6 -->
<g id="edge5" class="edge">
<title>5&#45;&gt;6</title>
<path fill="none" stroke="#888888" d="M386,-461.67C386,-453.39 386,-444.83 386,-436.38"/>
<polygon fill="#888888" stroke="#888888" points="389.5,-436.18 386,-426.18 382.5,-436.18 389.5,-436.18"/>
</g>
<!-- 13 -->
<g id="node7" class="node">
<title>13</title>
<text text-anchor="start" x="539" y="-407.8" font-family="Arial" font-weight="bold" font-size="14.00"> ≥ 26.3</text>
<text text-anchor="start" x="488" y="-363.3" font-family="Arial" font-size="14.00"> &#160;&#160;&#160;</text>
<path fill="#ebebeb" stroke="transparent" d="M518,-335C518,-335 602,-335 602,-335 608,-335 614,-341 614,-347 614,-347 614,-387 614,-387 614,-393 608,-399 602,-399 602,-399 518,-399 518,-399 512,-399 506,-393 506,-387 506,-387 506,-347 506,-347 506,-341 512,-335 518,-335"/>
<text text-anchor="start" x="507" y="-396.4" font-family="Arial" font-size="2.00"> </text>
<text text-anchor="start" x="507" y="-390.4" font-family="Arial" font-size="7.00"> &#160;13</text>
<text text-anchor="start" x="521" y="-373.8" font-family="Arial" font-weight="bold" font-size="14.00">Mean: 28.44</text>
<text text-anchor="start" x="540" y="-356.8" font-family="Arial" font-weight="bold" font-size="14.00">n = 49</text>
<text text-anchor="start" x="558.5" y="-338.8" font-family="Arial" font-size="9.00"> </text>
<path fill="none" stroke="#333333" d="M518,-335C518,-335 602,-335 602,-335 608,-335 614,-341 614,-347 614,-347 614,-387 614,-387 614,-393 608,-399 602,-399 602,-399 518,-399 518,-399 512,-399 506,-393 506,-387 506,-387 506,-347 506,-347 506,-341 512,-335 518,-335"/>
<text text-anchor="start" x="616" y="-363.3" font-family="Arial" font-size="14.00"> &#160;&#160;&#160;</text>
<text text-anchor="start" x="502.5" y="-320.8" font-family="Arial" font-weight="bold" font-size="14.00">prev_168h_inflow</text>
</g>
<!-- 5&#45;&gt;13 -->
<g id="edge6" class="edge">
<title>5&#45;&gt;13</title>
<path fill="none" stroke="#888888" d="M452.78,-461.67C463.6,-452.21 474.86,-442.37 485.85,-432.77"/>
<polygon fill="#888888" stroke="#888888" points="488.17,-435.39 493.4,-426.18 483.57,-430.12 488.17,-435.39"/>
</g>
<!-- 7 -->
<g id="node8" class="node">
<title>7</title>
<text text-anchor="start" x="207" y="-253.8" font-family="Arial" font-weight="bold" font-size="14.00"> &lt; 24.93</text>
<text text-anchor="start" x="168" y="-209.3" font-family="Arial" font-size="14.00"> &#160;</text>
<path fill="#ebebeb" stroke="transparent" d="M190,-181C190,-181 274,-181 274,-181 280,-181 286,-187 286,-193 286,-193 286,-233 286,-233 286,-239 280,-245 274,-245 274,-245 190,-245 190,-245 184,-245 178,-239 178,-233 178,-233 178,-193 178,-193 178,-187 184,-181 190,-181"/>
<text text-anchor="start" x="179" y="-242.4" font-family="Arial" font-size="2.00"> </text>
<text text-anchor="start" x="179" y="-236.4" font-family="Arial" font-size="7.00"> &#160;7</text>
<text text-anchor="start" x="193" y="-219.8" font-family="Arial" font-weight="bold" font-size="14.00">Mean: 24.32</text>
<text text-anchor="start" x="212" y="-202.8" font-family="Arial" font-weight="bold" font-size="14.00">n = 32</text>
<text text-anchor="start" x="230.5" y="-184.8" font-family="Arial" font-size="9.00"> </text>
<path fill="none" stroke="#333333" d="M190,-181C190,-181 274,-181 274,-181 280,-181 286,-187 286,-193 286,-193 286,-233 286,-233 286,-239 280,-245 274,-245 274,-245 190,-245 190,-245 184,-245 178,-239 178,-233 178,-233 178,-193 178,-193 178,-187 184,-181 190,-181"/>
<text text-anchor="start" x="288" y="-209.3" font-family="Arial" font-size="14.00"> &#160;</text>
<text text-anchor="start" x="182" y="-166.8" font-family="Arial" font-weight="bold" font-size="14.00">prev_1h_inflow</text>
</g>
<!-- 6&#45;&gt;7 -->
<g id="edge7" class="edge">
<title>6&#45;&gt;7</title>
<path fill="none" stroke="#888888" d="M326.9,-307.67C317.5,-298.39 307.73,-288.75 298.19,-279.33"/>
<polygon fill="#888888" stroke="#888888" points="300.52,-276.71 290.94,-272.18 295.6,-281.69 300.52,-276.71"/>
</g>
<!-- 10 -->
<g id="node9" class="node">
<title>10</title>
<text text-anchor="start" x="365.5" y="-253.8" font-family="Arial" font-weight="bold" font-size="14.00"> ≥ 24.93</text>
<path fill="#ebebeb" stroke="transparent" d="M348,-181C348,-181 432,-181 432,-181 438,-181 444,-187 444,-193 444,-193 444,-233 444,-233 444,-239 438,-245 432,-245 432,-245 348,-245 348,-245 342,-245 336,-239 336,-233 336,-233 336,-193 336,-193 336,-187 342,-181 348,-181"/>
<text text-anchor="start" x="337" y="-242.4" font-family="Arial" font-size="2.00"> </text>
<text text-anchor="start" x="337" y="-236.4" font-family="Arial" font-size="7.00"> &#160;10</text>
<text text-anchor="start" x="351" y="-219.8" font-family="Arial" font-weight="bold" font-size="14.00">Mean: 25.82</text>
<text text-anchor="start" x="370" y="-202.8" font-family="Arial" font-weight="bold" font-size="14.00">n = 31</text>
<text text-anchor="start" x="388.5" y="-184.8" font-family="Arial" font-size="9.00"> </text>
<path fill="none" stroke="#333333" d="M348,-181C348,-181 432,-181 432,-181 438,-181 444,-187 444,-193 444,-193 444,-233 444,-233 444,-239 438,-245 432,-245 432,-245 348,-245 348,-245 342,-245 336,-239 336,-233 336,-233 336,-193 336,-193 336,-187 342,-181 348,-181"/>
<text text-anchor="start" x="375.5" y="-166.8" font-family="Arial" font-weight="bold" font-size="14.00">time</text>
</g>
<!-- 6&#45;&gt;10 -->
<g id="edge8" class="edge">
<title>6&#45;&gt;10</title>
<path fill="none" stroke="#888888" d="M387.54,-307.67C387.75,-299.39 387.98,-290.83 388.2,-282.38"/>
<polygon fill="#888888" stroke="#888888" points="391.7,-282.27 388.47,-272.18 384.71,-282.08 391.7,-282.27"/>
</g>
<!-- 14 -->
<g id="node14" class="node">
<title>14</title>
<text text-anchor="start" x="533" y="-253.8" font-family="Arial" font-weight="bold" font-size="14.00"> &lt; 26.07</text>
<path fill="#f8766d" fill-opacity="0.541176" stroke="transparent" d="M513,-181C513,-181 603,-181 603,-181 609,-181 615,-187 615,-193 615,-193 615,-233 615,-233 615,-239 609,-245 603,-245 603,-245 513,-245 513,-245 507,-245 501,-239 501,-233 501,-233 501,-193 501,-193 501,-187 507,-181 513,-181"/>
<text text-anchor="start" x="502" y="-242.4" font-family="Arial" font-size="2.00"> </text>
<text text-anchor="start" x="502" y="-236.4" font-family="Arial" font-size="7.00"> &#160;14</text>
<text text-anchor="start" x="516" y="-219.8" font-family="Arial" font-weight="bold" font-size="14.00">Predict 26.61</text>
<text text-anchor="start" x="538" y="-202.8" font-family="Arial" font-weight="bold" font-size="14.00">n = 16</text>
<text text-anchor="start" x="556.5" y="-184.8" font-family="Arial" font-size="9.00"> </text>
<path fill="none" stroke="#333333" d="M513,-181C513,-181 603,-181 603,-181 609,-181 615,-187 615,-193 615,-193 615,-233 615,-233 615,-239 609,-245 603,-245 603,-245 513,-245 513,-245 507,-245 501,-239 501,-233 501,-233 501,-193 501,-193 501,-187 507,-181 513,-181"/>
<text text-anchor="start" x="556" y="-166.8" font-family="Arial" font-weight="bold" font-size="14.00"> </text>
</g>
<!-- 13&#45;&gt;14 -->
<g id="edge13" class="edge">
<title>13&#45;&gt;14</title>
<path fill="none" stroke="#888888" d="M559.23,-307.67C559.12,-299.39 559.01,-290.83 558.9,-282.38"/>
<polygon fill="#888888" stroke="#888888" points="562.4,-282.13 558.77,-272.18 555.4,-282.22 562.4,-282.13"/>
</g>
<!-- 15 -->
<g id="node15" class="node">
<title>15</title>
<text text-anchor="start" x="686.5" y="-253.8" font-family="Arial" font-weight="bold" font-size="14.00"> ≥ 26.07</text>
<path fill="#ebebeb" stroke="transparent" d="M669,-181C669,-181 753,-181 753,-181 759,-181 765,-187 765,-193 765,-193 765,-233 765,-233 765,-239 759,-245 753,-245 753,-245 669,-245 669,-245 663,-245 657,-239 657,-233 657,-233 657,-193 657,-193 657,-187 663,-181 669,-181"/>
<text text-anchor="start" x="658" y="-242.4" font-family="Arial" font-size="2.00"> </text>
<text text-anchor="start" x="658" y="-236.4" font-family="Arial" font-size="7.00"> &#160;15</text>
<text text-anchor="start" x="672" y="-219.8" font-family="Arial" font-weight="bold" font-size="14.00">Mean: 29.33</text>
<text text-anchor="start" x="691" y="-202.8" font-family="Arial" font-weight="bold" font-size="14.00">n = 33</text>
<text text-anchor="start" x="709.5" y="-184.8" font-family="Arial" font-size="9.00"> </text>
<path fill="none" stroke="#333333" d="M669,-181C669,-181 753,-181 753,-181 759,-181 765,-187 765,-193 765,-193 765,-233 765,-233 765,-239 759,-245 753,-245 753,-245 669,-245 669,-245 663,-245 657,-239 657,-233 657,-233 657,-193 657,-193 657,-187 663,-181 669,-181"/>
<text text-anchor="start" x="678" y="-166.8" font-family="Arial" font-weight="bold" font-size="14.00">air_humid</text>
</g>
<!-- 13&#45;&gt;15 -->
<g id="edge14" class="edge">
<title>13&#45;&gt;15</title>
<path fill="none" stroke="#888888" d="M617.95,-307.67C627.16,-298.39 636.74,-288.75 646.1,-279.33"/>
<polygon fill="#888888" stroke="#888888" points="648.64,-281.74 653.21,-272.18 643.68,-276.8 648.64,-281.74"/>
</g>
<!-- 8 -->
<g id="node10" class="node">
<title>8</title>
<text text-anchor="start" x="51" y="-99.8" font-family="Arial" font-weight="bold" font-size="14.00"> &lt; 21.94</text>
<path fill="#f8766d" fill-opacity="0.737255" stroke="transparent" d="M31,-27C31,-27 121,-27 121,-27 127,-27 133,-33 133,-39 133,-39 133,-79 133,-79 133,-85 127,-91 121,-91 121,-91 31,-91 31,-91 25,-91 19,-85 19,-79 19,-79 19,-39 19,-39 19,-33 25,-27 31,-27"/>
<text text-anchor="start" x="20" y="-88.4" font-family="Arial" font-size="2.00"> </text>
<text text-anchor="start" x="20" y="-82.4" font-family="Arial" font-size="7.00"> &#160;8</text>
<text text-anchor="start" x="34" y="-65.8" font-family="Arial" font-weight="bold" font-size="14.00">Predict 23.05</text>
<text text-anchor="start" x="60" y="-48.8" font-family="Arial" font-weight="bold" font-size="14.00">n = 6</text>
<text text-anchor="start" x="74.5" y="-30.8" font-family="Arial" font-size="9.00"> </text>
<path fill="none" stroke="#333333" d="M31,-27C31,-27 121,-27 121,-27 127,-27 133,-33 133,-39 133,-39 133,-79 133,-79 133,-85 127,-91 121,-91 121,-91 31,-91 31,-91 25,-91 19,-85 19,-79 19,-79 19,-39 19,-39 19,-33 25,-27 31,-27"/>
<text text-anchor="start" x="74" y="-12.8" font-family="Arial" font-weight="bold" font-size="14.00"> </text>
</g>
<!-- 7&#45;&gt;8 -->
<g id="edge9" class="edge">
<title>7&#45;&gt;8</title>
<path fill="none" stroke="#888888" d="M172.13,-153.67C162.62,-144.39 152.72,-134.75 143.05,-125.33"/>
<polygon fill="#888888" stroke="#888888" points="145.31,-122.65 135.71,-118.18 140.43,-127.66 145.31,-122.65"/>
</g>
<!-- 9 -->
<g id="node11" class="node">
<title>9</title>
<text text-anchor="start" x="207.5" y="-99.8" font-family="Arial" font-weight="bold" font-size="14.00"> ≥ 21.94</text>
<path fill="#f8766d" fill-opacity="0.650980" stroke="transparent" d="M187,-27C187,-27 277,-27 277,-27 283,-27 289,-33 289,-39 289,-39 289,-79 289,-79 289,-85 283,-91 277,-91 277,-91 187,-91 187,-91 181,-91 175,-85 175,-79 175,-79 175,-39 175,-39 175,-33 181,-27 187,-27"/>
<text text-anchor="start" x="176" y="-88.4" font-family="Arial" font-size="2.00"> </text>
<text text-anchor="start" x="176" y="-82.4" font-family="Arial" font-size="7.00"> &#160;9</text>
<text text-anchor="start" x="190" y="-65.8" font-family="Arial" font-weight="bold" font-size="14.00">Predict 24.62</text>
<text text-anchor="start" x="212" y="-48.8" font-family="Arial" font-weight="bold" font-size="14.00">n = 26</text>
<text text-anchor="start" x="230.5" y="-30.8" font-family="Arial" font-size="9.00"> </text>
<path fill="none" stroke="#333333" d="M187,-27C187,-27 277,-27 277,-27 283,-27 289,-33 289,-39 289,-39 289,-79 289,-79 289,-85 283,-91 277,-91 277,-91 187,-91 187,-91 181,-91 175,-85 175,-79 175,-79 175,-39 175,-39 175,-33 181,-27 187,-27"/>
<text text-anchor="start" x="230" y="-12.8" font-family="Arial" font-weight="bold" font-size="14.00"> </text>
</g>
<!-- 7&#45;&gt;9 -->
<g id="edge10" class="edge">
<title>7&#45;&gt;9</title>
<path fill="none" stroke="#888888" d="M232,-153.67C232,-145.39 232,-136.83 232,-128.38"/>
<polygon fill="#888888" stroke="#888888" points="235.5,-128.18 232,-118.18 228.5,-128.18 235.5,-128.18"/>
</g>
<!-- 11 -->
<g id="node12" class="node">
<title>11</title>
<text text-anchor="start" x="371.5" y="-99.8" font-family="Arial" font-weight="bold" font-size="14.00"> &lt; 8.5</text>
<path fill="#f8766d" fill-opacity="0.396078" stroke="transparent" d="M344,-27C344,-27 434,-27 434,-27 440,-27 446,-33 446,-39 446,-39 446,-79 446,-79 446,-85 440,-91 434,-91 434,-91 344,-91 344,-91 338,-91 332,-85 332,-79 332,-79 332,-39 332,-39 332,-33 338,-27 344,-27"/>
<text text-anchor="start" x="333" y="-88.4" font-family="Arial" font-size="2.00"> </text>
<text text-anchor="start" x="333" y="-82.4" font-family="Arial" font-size="7.00"> &#160;11</text>
<text text-anchor="start" x="347" y="-65.8" font-family="Arial" font-weight="bold" font-size="14.00">Predict 29.22</text>
<text text-anchor="start" x="373" y="-48.8" font-family="Arial" font-weight="bold" font-size="14.00">n = 2</text>
<text text-anchor="start" x="387.5" y="-30.8" font-family="Arial" font-size="9.00"> </text>
<path fill="none" stroke="#333333" d="M344,-27C344,-27 434,-27 434,-27 440,-27 446,-33 446,-39 446,-39 446,-79 446,-79 446,-85 440,-91 434,-91 434,-91 344,-91 344,-91 338,-91 332,-85 332,-79 332,-79 332,-39 332,-39 332,-33 338,-27 344,-27"/>
<text text-anchor="start" x="387" y="-12.8" font-family="Arial" font-weight="bold" font-size="14.00"> </text>
</g>
<!-- 10&#45;&gt;11 -->
<g id="edge11" class="edge">
<title>10&#45;&gt;11</title>
<path fill="none" stroke="#888888" d="M389.62,-153.67C389.56,-145.39 389.51,-136.83 389.45,-128.38"/>
<polygon fill="#888888" stroke="#888888" points="392.95,-128.15 389.38,-118.18 385.95,-128.2 392.95,-128.15"/>
</g>
<!-- 12 -->
<g id="node13" class="node">
<title>12</title>
<text text-anchor="start" x="528" y="-99.8" font-family="Arial" font-weight="bold" font-size="14.00"> ≥ 8.5</text>
<path fill="#f8766d" fill-opacity="0.596078" stroke="transparent" d="M500,-27C500,-27 590,-27 590,-27 596,-27 602,-33 602,-39 602,-39 602,-79 602,-79 602,-85 596,-91 590,-91 590,-91 500,-91 500,-91 494,-91 488,-85 488,-79 488,-79 488,-39 488,-39 488,-33 494,-27 500,-27"/>
<text text-anchor="start" x="489" y="-88.4" font-family="Arial" font-size="2.00"> </text>
<text text-anchor="start" x="489" y="-82.4" font-family="Arial" font-size="7.00"> &#160;12</text>
<text text-anchor="start" x="503" y="-65.8" font-family="Arial" font-weight="bold" font-size="14.00">Predict 25.58</text>
<text text-anchor="start" x="525" y="-48.8" font-family="Arial" font-weight="bold" font-size="14.00">n = 29</text>
<text text-anchor="start" x="543.5" y="-30.8" font-family="Arial" font-size="9.00"> </text>
<path fill="none" stroke="#333333" d="M500,-27C500,-27 590,-27 590,-27 596,-27 602,-33 602,-39 602,-39 602,-79 602,-79 602,-85 596,-91 590,-91 590,-91 500,-91 500,-91 494,-91 488,-85 488,-79 488,-79 488,-39 488,-39 488,-33 494,-27 500,-27"/>
<text text-anchor="start" x="543" y="-12.8" font-family="Arial" font-weight="bold" font-size="14.00"> </text>
</g>
<!-- 10&#45;&gt;12 -->
<g id="edge12" class="edge">
<title>10&#45;&gt;12</title>
<path fill="none" stroke="#888888" d="M449.48,-153.67C458.94,-144.39 468.78,-134.75 478.38,-125.33"/>
<polygon fill="#888888" stroke="#888888" points="480.99,-127.68 485.68,-118.18 476.08,-122.68 480.99,-127.68"/>
</g>
<!-- 16 -->
<g id="node16" class="node">
<title>16</title>
<text text-anchor="start" x="687.5" y="-99.8" font-family="Arial" font-weight="bold" font-size="14.00"> &lt; 87.5</text>
<path fill="#f8766d" fill-opacity="0.466667" stroke="transparent" d="M664,-27C664,-27 754,-27 754,-27 760,-27 766,-33 766,-39 766,-39 766,-79 766,-79 766,-85 760,-91 754,-91 754,-91 664,-91 664,-91 658,-91 652,-85 652,-79 652,-79 652,-39 652,-39 652,-33 658,-27 664,-27"/>
<text text-anchor="start" x="653" y="-88.4" font-family="Arial" font-size="2.00"> </text>
<text text-anchor="start" x="653" y="-82.4" font-family="Arial" font-size="7.00"> &#160;16</text>
<text text-anchor="start" x="667" y="-65.8" font-family="Arial" font-weight="bold" font-size="14.00">Predict 27.93</text>
<text text-anchor="start" x="693" y="-48.8" font-family="Arial" font-weight="bold" font-size="14.00">n = 5</text>
<text text-anchor="start" x="707.5" y="-30.8" font-family="Arial" font-size="9.00"> </text>
<path fill="none" stroke="#333333" d="M664,-27C664,-27 754,-27 754,-27 760,-27 766,-33 766,-39 766,-39 766,-79 766,-79 766,-85 760,-91 754,-91 754,-91 664,-91 664,-91 658,-91 652,-85 652,-79 652,-79 652,-39 652,-39 652,-33 658,-27 664,-27"/>
<text text-anchor="start" x="707" y="-12.8" font-family="Arial" font-weight="bold" font-size="14.00"> </text>
</g>
<!-- 15&#45;&gt;16 -->
<g id="edge15" class="edge">
<title>15&#45;&gt;16</title>
<path fill="none" stroke="#888888" d="M710.23,-153.67C710.12,-145.39 710.01,-136.83 709.9,-128.38"/>
<polygon fill="#888888" stroke="#888888" points="713.4,-128.13 709.77,-118.18 706.4,-128.22 713.4,-128.13"/>
</g>
<!-- 17 -->
<g id="node17" class="node">
<title>17</title>
<text text-anchor="start" x="844" y="-99.8" font-family="Arial" font-weight="bold" font-size="14.00"> ≥ 87.5</text>
<path fill="#f8766d" fill-opacity="0.376471" stroke="transparent" d="M820,-27C820,-27 910,-27 910,-27 916,-27 922,-33 922,-39 922,-39 922,-79 922,-79 922,-85 916,-91 910,-91 910,-91 820,-91 820,-91 814,-91 808,-85 808,-79 808,-79 808,-39 808,-39 808,-33 814,-27 820,-27"/>
<text text-anchor="start" x="809" y="-88.4" font-family="Arial" font-size="2.00"> </text>
<text text-anchor="start" x="809" y="-82.4" font-family="Arial" font-size="7.00"> &#160;17</text>
<text text-anchor="start" x="823" y="-65.8" font-family="Arial" font-weight="bold" font-size="14.00">Predict 29.58</text>
<text text-anchor="start" x="845" y="-48.8" font-family="Arial" font-weight="bold" font-size="14.00">n = 28</text>
<text text-anchor="start" x="863.5" y="-30.8" font-family="Arial" font-size="9.00"> </text>
<path fill="none" stroke="#333333" d="M820,-27C820,-27 910,-27 910,-27 916,-27 922,-33 922,-39 922,-39 922,-79 922,-79 922,-85 916,-91 910,-91 910,-91 820,-91 820,-91 814,-91 808,-85 808,-79 808,-79 808,-39 808,-39 808,-33 814,-27 820,-27"/>
<text text-anchor="start" x="863" y="-12.8" font-family="Arial" font-weight="bold" font-size="14.00"> </text>
</g>
<!-- 15&#45;&gt;17 -->
<g id="edge16" class="edge">
<title>15&#45;&gt;17</title>
<path fill="none" stroke="#888888" d="M770.1,-153.67C779.5,-144.39 789.27,-134.75 798.81,-125.33"/>
<polygon fill="#888888" stroke="#888888" points="801.4,-127.69 806.06,-118.18 796.48,-122.71 801.4,-127.69"/>
</g>
</g>
</svg>
