<?xml version="1.0" encoding="utf-8"?>
<svg xmlns="http://www.w3.org/2000/svg" xmlns:xlink="http://www.w3.org/1999/xlink" width="1000" height="400" viewBox="0 0 4000 1600">
<defs>
  <clipPath id="clip540">
    <rect x="0" y="0" width="4000" height="1600"/>
  </clipPath>
</defs>
<path clip-path="url(#clip540)" d="M0 1600 L4000 1600 L4000 0 L0 0  Z" fill="#ffffff" fill-rule="evenodd" fill-opacity="1"/>
<defs>
  <clipPath id="clip541">
    <rect x="800" y="0" width="2801" height="1600"/>
  </clipPath>
</defs>
<path clip-path="url(#clip540)" d="M172.993 1497.68 L3176.13 1497.68 L3176.13 47.2441 L172.993 47.2441  Z" fill="#ffffff" fill-rule="evenodd" fill-opacity="1"/>
<defs>
  <clipPath id="clip542">
    <rect x="172" y="47" width="3004" height="1451"/>
  </clipPath>
</defs>
<polyline clip-path="url(#clip542)" style="stroke:#000000; stroke-linecap:round; stroke-linejoin:round; stroke-width:2; stroke-opacity:0.1; fill:none" points="257.988,1497.68 257.988,47.2441 "/>
<polyline clip-path="url(#clip542)" style="stroke:#000000; stroke-linecap:round; stroke-linejoin:round; stroke-width:2; stroke-opacity:0.1; fill:none" points="1072.31,1497.68 1072.31,47.2441 "/>
<polyline clip-path="url(#clip542)" style="stroke:#000000; stroke-linecap:round; stroke-linejoin:round; stroke-width:2; stroke-opacity:0.1; fill:none" points="1886.63,1497.68 1886.63,47.2441 "/>
<polyline clip-path="url(#clip542)" style="stroke:#000000; stroke-linecap:round; stroke-linejoin:round; stroke-width:2; stroke-opacity:0.1; fill:none" points="2700.94,1497.68 2700.94,47.2441 "/>
<polyline clip-path="url(#clip540)" style="stroke:#000000; stroke-linecap:round; stroke-linejoin:round; stroke-width:4; stroke-opacity:1; fill:none" points="172.993,1497.68 3176.13,1497.68 "/>
<polyline clip-path="url(#clip540)" style="stroke:#000000; stroke-linecap:round; stroke-linejoin:round; stroke-width:4; stroke-opacity:1; fill:none" points="257.988,1497.68 257.988,1478.78 "/>
<polyline clip-path="url(#clip540)" style="stroke:#000000; stroke-linecap:round; stroke-linejoin:round; stroke-width:4; stroke-opacity:1; fill:none" points="1072.31,1497.68 1072.31,1478.78 "/>
<polyline clip-path="url(#clip540)" style="stroke:#000000; stroke-linecap:round; stroke-linejoin:round; stroke-width:4; stroke-opacity:1; fill:none" points="1886.63,1497.68 1886.63,1478.78 "/>
<polyline clip-path="url(#clip540)" style="stroke:#000000; stroke-linecap:round; stroke-linejoin:round; stroke-width:4; stroke-opacity:1; fill:none" points="2700.94,1497.68 2700.94,1478.78 "/>
<path clip-path="url(#clip540)" d="M113.171 1573.85 L131.53 1573.85 L131.53 1578.28 L106.843 1578.28 L106.843 1573.85 Q109.838 1570.75 114.994 1565.55 Q120.176 1560.31 121.504 1558.8 Q124.03 1555.96 125.02 1554.01 Q126.035 1552.03 126.035 1550.13 Q126.035 1547.03 123.848 1545.08 Q121.686 1543.12 118.197 1543.12 Q115.723 1543.12 112.963 1543.98 Q110.228 1544.84 107.103 1546.59 L107.103 1541.27 Q110.28 1540 113.041 1539.35 Q115.801 1538.7 118.093 1538.7 Q124.134 1538.7 127.728 1541.72 Q131.322 1544.74 131.322 1549.79 Q131.322 1552.19 130.41 1554.35 Q129.525 1556.48 127.155 1559.4 Q126.504 1560.15 123.015 1563.77 Q119.525 1567.37 113.171 1573.85 Z" fill="#000000" fill-rule="nonzero" fill-opacity="1" /><path clip-path="url(#clip540)" d="M153.822 1542.86 Q149.759 1542.86 147.702 1546.87 Q145.671 1550.86 145.671 1558.88 Q145.671 1566.87 147.702 1570.88 Q149.759 1574.87 153.822 1574.87 Q157.91 1574.87 159.942 1570.88 Q161.999 1566.87 161.999 1558.88 Q161.999 1550.86 159.942 1546.87 Q157.91 1542.86 153.822 1542.86 M153.822 1538.7 Q160.358 1538.7 163.796 1543.88 Q167.259 1549.04 167.259 1558.88 Q167.259 1568.7 163.796 1573.88 Q160.358 1579.04 153.822 1579.04 Q147.285 1579.04 143.822 1573.88 Q140.384 1568.7 140.384 1558.88 Q140.384 1549.04 143.822 1543.88 Q147.285 1538.7 153.822 1538.7 Z" fill="#000000" fill-rule="nonzero" fill-opacity="1" /><path clip-path="url(#clip540)" d="M181.035 1573.85 L199.394 1573.85 L199.394 1578.28 L174.707 1578.28 L174.707 1573.85 Q177.702 1570.75 182.858 1565.55 Q188.04 1560.31 189.368 1558.8 Q191.894 1555.96 192.884 1554.01 Q193.9 1552.03 193.9 1550.13 Q193.9 1547.03 191.712 1545.08 Q189.551 1543.12 186.061 1543.12 Q183.587 1543.12 180.827 1543.98 Q178.092 1544.84 174.967 1546.59 L174.967 1541.27 Q178.145 1540 180.905 1539.35 Q183.665 1538.7 185.957 1538.7 Q191.999 1538.7 195.592 1541.72 Q199.186 1544.74 199.186 1549.79 Q199.186 1552.19 198.275 1554.35 Q197.389 1556.48 195.019 1559.4 Q194.368 1560.15 190.879 1563.77 Q187.389 1567.37 181.035 1573.85 Z" fill="#000000" fill-rule="nonzero" fill-opacity="1" /><path clip-path="url(#clip540)" d="M226.373 1557.32 Q230.149 1558.12 232.259 1560.68 Q234.394 1563.23 234.394 1566.98 Q234.394 1572.73 230.436 1575.88 Q226.478 1579.04 219.186 1579.04 Q216.738 1579.04 214.134 1578.54 Q211.556 1578.07 208.795 1577.11 L208.795 1572.03 Q210.983 1573.31 213.587 1573.96 Q216.191 1574.61 219.03 1574.61 Q223.978 1574.61 226.556 1572.65 Q229.16 1570.7 229.16 1566.98 Q229.16 1563.54 226.738 1561.61 Q224.342 1559.66 220.045 1559.66 L215.514 1559.66 L215.514 1555.34 L220.254 1555.34 Q224.134 1555.34 226.191 1553.8 Q228.248 1552.24 228.248 1549.32 Q228.248 1546.33 226.113 1544.74 Q224.004 1543.12 220.045 1543.12 Q217.884 1543.12 215.41 1543.59 Q212.936 1544.06 209.967 1545.05 L209.967 1540.36 Q212.962 1539.53 215.566 1539.11 Q218.196 1538.7 220.514 1538.7 Q226.504 1538.7 229.993 1541.43 Q233.483 1544.14 233.483 1548.77 Q233.483 1552 231.634 1554.24 Q229.785 1556.46 226.373 1557.32 Z" fill="#000000" fill-rule="nonzero" fill-opacity="1" /><path clip-path="url(#clip540)" d="M241.269 1561.54 L255.306 1561.54 L255.306 1565.81 L241.269 1565.81 L241.269 1561.54 Z" fill="#000000" fill-rule="nonzero" fill-opacity="1" /><path clip-path="url(#clip540)" d="M274.863 1542.86 Q270.8 1542.86 268.743 1546.87 Q266.712 1550.86 266.712 1558.88 Q266.712 1566.87 268.743 1570.88 Q270.8 1574.87 274.863 1574.87 Q278.951 1574.87 280.983 1570.88 Q283.04 1566.87 283.04 1558.88 Q283.04 1550.86 280.983 1546.87 Q278.951 1542.86 274.863 1542.86 M274.863 1538.7 Q281.399 1538.7 284.837 1543.88 Q288.3 1549.04 288.3 1558.88 Q288.3 1568.7 284.837 1573.88 Q281.399 1579.04 274.863 1579.04 Q268.326 1579.04 264.863 1573.88 Q261.425 1568.7 261.425 1558.88 Q261.425 1549.04 264.863 1543.88 Q268.326 1538.7 274.863 1538.7 Z" fill="#000000" fill-rule="nonzero" fill-opacity="1" /><path clip-path="url(#clip540)" d="M298.456 1573.85 L307.05 1573.85 L307.05 1544.19 L297.701 1546.07 L297.701 1541.27 L306.998 1539.4 L312.258 1539.4 L312.258 1573.85 L320.852 1573.85 L320.852 1578.28 L298.456 1578.28 L298.456 1573.85 Z" fill="#000000" fill-rule="nonzero" fill-opacity="1" /><path clip-path="url(#clip540)" d="M328.378 1561.54 L342.414 1561.54 L342.414 1565.81 L328.378 1565.81 L328.378 1561.54 Z" fill="#000000" fill-rule="nonzero" fill-opacity="1" /><path clip-path="url(#clip540)" d="M361.972 1542.86 Q357.909 1542.86 355.852 1546.87 Q353.821 1550.86 353.821 1558.88 Q353.821 1566.87 355.852 1570.88 Q357.909 1574.87 361.972 1574.87 Q366.06 1574.87 368.091 1570.88 Q370.149 1566.87 370.149 1558.88 Q370.149 1550.86 368.091 1546.87 Q366.06 1542.86 361.972 1542.86 M361.972 1538.7 Q368.508 1538.7 371.946 1543.88 Q375.409 1549.04 375.409 1558.88 Q375.409 1568.7 371.946 1573.88 Q368.508 1579.04 361.972 1579.04 Q355.435 1579.04 351.972 1573.88 Q348.534 1568.7 348.534 1558.88 Q348.534 1549.04 351.972 1543.88 Q355.435 1538.7 361.972 1538.7 Z" fill="#000000" fill-rule="nonzero" fill-opacity="1" /><path clip-path="url(#clip540)" d="M384.81 1577.47 L384.81 1572.68 Q386.789 1573.62 388.82 1574.11 Q390.852 1574.61 392.805 1574.61 Q398.013 1574.61 400.748 1571.12 Q403.508 1567.6 403.899 1560.47 Q402.388 1562.71 400.07 1563.9 Q397.753 1565.1 394.94 1565.1 Q389.107 1565.1 385.696 1561.59 Q382.31 1558.05 382.31 1551.93 Q382.31 1545.94 385.852 1542.32 Q389.393 1538.7 395.279 1538.7 Q402.024 1538.7 405.565 1543.88 Q409.133 1549.04 409.133 1558.88 Q409.133 1568.07 404.758 1573.57 Q400.409 1579.04 393.039 1579.04 Q391.06 1579.04 389.029 1578.64 Q386.998 1578.25 384.81 1577.47 M395.279 1560.99 Q398.82 1560.99 400.878 1558.57 Q402.961 1556.14 402.961 1551.93 Q402.961 1547.73 400.878 1545.31 Q398.82 1542.86 395.279 1542.86 Q391.737 1542.86 389.654 1545.31 Q387.597 1547.73 387.597 1551.93 Q387.597 1556.14 389.654 1558.57 Q391.737 1560.99 395.279 1560.99 Z" fill="#000000" fill-rule="nonzero" fill-opacity="1" /><path clip-path="url(#clip540)" d="M928.076 1573.85 L946.435 1573.85 L946.435 1578.28 L921.747 1578.28 L921.747 1573.85 Q924.742 1570.75 929.898 1565.55 Q935.081 1560.31 936.409 1558.8 Q938.935 1555.96 939.924 1554.01 Q940.94 1552.03 940.94 1550.13 Q940.94 1547.03 938.753 1545.08 Q936.591 1543.12 933.102 1543.12 Q930.628 1543.12 927.867 1543.98 Q925.133 1544.84 922.008 1546.59 L922.008 1541.27 Q925.185 1540 927.945 1539.35 Q930.706 1538.7 932.997 1538.7 Q939.039 1538.7 942.633 1541.72 Q946.226 1544.74 946.226 1549.79 Q946.226 1552.19 945.315 1554.35 Q944.43 1556.48 942.06 1559.4 Q941.409 1560.15 937.919 1563.77 Q934.43 1567.37 928.076 1573.85 Z" fill="#000000" fill-rule="nonzero" fill-opacity="1" /><path clip-path="url(#clip540)" d="M968.726 1542.86 Q964.664 1542.86 962.607 1546.87 Q960.575 1550.86 960.575 1558.88 Q960.575 1566.87 962.607 1570.88 Q964.664 1574.87 968.726 1574.87 Q972.815 1574.87 974.846 1570.88 Q976.903 1566.87 976.903 1558.88 Q976.903 1550.86 974.846 1546.87 Q972.815 1542.86 968.726 1542.86 M968.726 1538.7 Q975.263 1538.7 978.7 1543.88 Q982.164 1549.04 982.164 1558.88 Q982.164 1568.7 978.7 1573.88 Q975.263 1579.04 968.726 1579.04 Q962.19 1579.04 958.726 1573.88 Q955.289 1568.7 955.289 1558.88 Q955.289 1549.04 958.726 1543.88 Q962.19 1538.7 968.726 1538.7 Z" fill="#000000" fill-rule="nonzero" fill-opacity="1" /><path clip-path="url(#clip540)" d="M995.94 1573.85 L1014.3 1573.85 L1014.3 1578.28 L989.612 1578.28 L989.612 1573.85 Q992.606 1570.75 997.763 1565.55 Q1002.94 1560.31 1004.27 1558.8 Q1006.8 1555.96 1007.79 1554.01 Q1008.8 1552.03 1008.8 1550.13 Q1008.8 1547.03 1006.62 1545.08 Q1004.46 1543.12 1000.97 1543.12 Q998.492 1543.12 995.731 1543.98 Q992.997 1544.84 989.872 1546.59 L989.872 1541.27 Q993.049 1540 995.81 1539.35 Q998.57 1538.7 1000.86 1538.7 Q1006.9 1538.7 1010.5 1541.72 Q1014.09 1544.74 1014.09 1549.79 Q1014.09 1552.19 1013.18 1554.35 Q1012.29 1556.48 1009.92 1559.4 Q1009.27 1560.15 1005.78 1563.77 Q1002.29 1567.37 995.94 1573.85 Z" fill="#000000" fill-rule="nonzero" fill-opacity="1" /><path clip-path="url(#clip540)" d="M1041.28 1557.32 Q1045.05 1558.12 1047.16 1560.68 Q1049.3 1563.23 1049.3 1566.98 Q1049.3 1572.73 1045.34 1575.88 Q1041.38 1579.04 1034.09 1579.04 Q1031.64 1579.04 1029.04 1578.54 Q1026.46 1578.07 1023.7 1577.11 L1023.7 1572.03 Q1025.89 1573.31 1028.49 1573.96 Q1031.1 1574.61 1033.93 1574.61 Q1038.88 1574.61 1041.46 1572.65 Q1044.06 1570.7 1044.06 1566.98 Q1044.06 1563.54 1041.64 1561.61 Q1039.25 1559.66 1034.95 1559.66 L1030.42 1559.66 L1030.42 1555.34 L1035.16 1555.34 Q1039.04 1555.34 1041.1 1553.8 Q1043.15 1552.24 1043.15 1549.32 Q1043.15 1546.33 1041.02 1544.74 Q1038.91 1543.12 1034.95 1543.12 Q1032.79 1543.12 1030.31 1543.59 Q1027.84 1544.06 1024.87 1545.05 L1024.87 1540.36 Q1027.87 1539.53 1030.47 1539.11 Q1033.1 1538.7 1035.42 1538.7 Q1041.41 1538.7 1044.9 1541.43 Q1048.39 1544.14 1048.39 1548.77 Q1048.39 1552 1046.54 1554.24 Q1044.69 1556.46 1041.28 1557.32 Z" fill="#000000" fill-rule="nonzero" fill-opacity="1" /><path clip-path="url(#clip540)" d="M1056.17 1561.54 L1070.21 1561.54 L1070.21 1565.81 L1056.17 1565.81 L1056.17 1561.54 Z" fill="#000000" fill-rule="nonzero" fill-opacity="1" /><path clip-path="url(#clip540)" d="M1089.77 1542.86 Q1085.7 1542.86 1083.65 1546.87 Q1081.62 1550.86 1081.62 1558.88 Q1081.62 1566.87 1083.65 1570.88 Q1085.7 1574.87 1089.77 1574.87 Q1093.86 1574.87 1095.89 1570.88 Q1097.94 1566.87 1097.94 1558.88 Q1097.94 1550.86 1095.89 1546.87 Q1093.86 1542.86 1089.77 1542.86 M1089.77 1538.7 Q1096.3 1538.7 1099.74 1543.88 Q1103.2 1549.04 1103.2 1558.88 Q1103.2 1568.7 1099.74 1573.88 Q1096.3 1579.04 1089.77 1579.04 Q1083.23 1579.04 1079.77 1573.88 Q1076.33 1568.7 1076.33 1558.88 Q1076.33 1549.04 1079.77 1543.88 Q1083.23 1538.7 1089.77 1538.7 Z" fill="#000000" fill-rule="nonzero" fill-opacity="1" /><path clip-path="url(#clip540)" d="M1113.36 1573.85 L1121.95 1573.85 L1121.95 1544.19 L1112.61 1546.07 L1112.61 1541.27 L1121.9 1539.4 L1127.16 1539.4 L1127.16 1573.85 L1135.76 1573.85 L1135.76 1578.28 L1113.36 1578.28 L1113.36 1573.85 Z" fill="#000000" fill-rule="nonzero" fill-opacity="1" /><path clip-path="url(#clip540)" d="M1143.28 1561.54 L1157.32 1561.54 L1157.32 1565.81 L1143.28 1565.81 L1143.28 1561.54 Z" fill="#000000" fill-rule="nonzero" fill-opacity="1" /><path clip-path="url(#clip540)" d="M1166.54 1573.85 L1175.13 1573.85 L1175.13 1544.19 L1165.78 1546.07 L1165.78 1541.27 L1175.08 1539.4 L1180.34 1539.4 L1180.34 1573.85 L1188.93 1573.85 L1188.93 1578.28 L1166.54 1578.28 L1166.54 1573.85 Z" fill="#000000" fill-rule="nonzero" fill-opacity="1" /><path clip-path="url(#clip540)" d="M1200.47 1573.85 L1209.06 1573.85 L1209.06 1544.19 L1199.71 1546.07 L1199.71 1541.27 L1209.01 1539.4 L1214.27 1539.4 L1214.27 1573.85 L1222.87 1573.85 L1222.87 1578.28 L1200.47 1578.28 L1200.47 1573.85 Z" fill="#000000" fill-rule="nonzero" fill-opacity="1" /><path clip-path="url(#clip540)" d="M1742.07 1573.85 L1760.43 1573.85 L1760.43 1578.28 L1735.74 1578.28 L1735.74 1573.85 Q1738.74 1570.75 1743.89 1565.55 Q1749.07 1560.31 1750.4 1558.8 Q1752.93 1555.96 1753.92 1554.01 Q1754.93 1552.03 1754.93 1550.13 Q1754.93 1547.03 1752.75 1545.08 Q1750.58 1543.12 1747.09 1543.12 Q1744.62 1543.12 1741.86 1543.98 Q1739.13 1544.84 1736 1546.59 L1736 1541.27 Q1739.18 1540 1741.94 1539.35 Q1744.7 1538.7 1746.99 1538.7 Q1753.03 1538.7 1756.63 1541.72 Q1760.22 1544.74 1760.22 1549.79 Q1760.22 1552.19 1759.31 1554.35 Q1758.42 1556.48 1756.05 1559.4 Q1755.4 1560.15 1751.91 1563.77 Q1748.42 1567.37 1742.07 1573.85 Z" fill="#000000" fill-rule="nonzero" fill-opacity="1" /><path clip-path="url(#clip540)" d="M1782.72 1542.86 Q1778.66 1542.86 1776.6 1546.87 Q1774.57 1550.86 1774.57 1558.88 Q1774.57 1566.87 1776.6 1570.88 Q1778.66 1574.87 1782.72 1574.87 Q1786.81 1574.87 1788.84 1570.88 Q1790.9 1566.87 1790.9 1558.88 Q1790.9 1550.86 1788.84 1546.87 Q1786.81 1542.86 1782.72 1542.86 M1782.72 1538.7 Q1789.26 1538.7 1792.69 1543.88 Q1796.16 1549.04 1796.16 1558.88 Q1796.16 1568.7 1792.69 1573.88 Q1789.26 1579.04 1782.72 1579.04 Q1776.18 1579.04 1772.72 1573.88 Q1769.28 1568.7 1769.28 1558.88 Q1769.28 1549.04 1772.72 1543.88 Q1776.18 1538.7 1782.72 1538.7 Z" fill="#000000" fill-rule="nonzero" fill-opacity="1" /><path clip-path="url(#clip540)" d="M1809.93 1573.85 L1828.29 1573.85 L1828.29 1578.28 L1803.6 1578.28 L1803.6 1573.85 Q1806.6 1570.75 1811.76 1565.55 Q1816.94 1560.31 1818.27 1558.8 Q1820.79 1555.96 1821.78 1554.01 Q1822.8 1552.03 1822.8 1550.13 Q1822.8 1547.03 1820.61 1545.08 Q1818.45 1543.12 1814.96 1543.12 Q1812.48 1543.12 1809.72 1543.98 Q1806.99 1544.84 1803.87 1546.59 L1803.87 1541.27 Q1807.04 1540 1809.8 1539.35 Q1812.56 1538.7 1814.85 1538.7 Q1820.9 1538.7 1824.49 1541.72 Q1828.08 1544.74 1828.08 1549.79 Q1828.08 1552.19 1827.17 1554.35 Q1826.29 1556.48 1823.92 1559.4 Q1823.27 1560.15 1819.78 1563.77 Q1816.29 1567.37 1809.93 1573.85 Z" fill="#000000" fill-rule="nonzero" fill-opacity="1" /><path clip-path="url(#clip540)" d="M1855.27 1557.32 Q1859.05 1558.12 1861.16 1560.68 Q1863.29 1563.23 1863.29 1566.98 Q1863.29 1572.73 1859.33 1575.88 Q1855.38 1579.04 1848.08 1579.04 Q1845.64 1579.04 1843.03 1578.54 Q1840.45 1578.07 1837.69 1577.11 L1837.69 1572.03 Q1839.88 1573.31 1842.48 1573.96 Q1845.09 1574.61 1847.93 1574.61 Q1852.88 1574.61 1855.45 1572.65 Q1858.06 1570.7 1858.06 1566.98 Q1858.06 1563.54 1855.64 1561.61 Q1853.24 1559.66 1848.94 1559.66 L1844.41 1559.66 L1844.41 1555.34 L1849.15 1555.34 Q1853.03 1555.34 1855.09 1553.8 Q1857.15 1552.24 1857.15 1549.32 Q1857.15 1546.33 1855.01 1544.74 Q1852.9 1543.12 1848.94 1543.12 Q1846.78 1543.12 1844.31 1543.59 Q1841.83 1544.06 1838.87 1545.05 L1838.87 1540.36 Q1841.86 1539.53 1844.46 1539.11 Q1847.09 1538.7 1849.41 1538.7 Q1855.4 1538.7 1858.89 1541.43 Q1862.38 1544.14 1862.38 1548.77 Q1862.38 1552 1860.53 1554.24 Q1858.68 1556.46 1855.27 1557.32 Z" fill="#000000" fill-rule="nonzero" fill-opacity="1" /><path clip-path="url(#clip540)" d="M1870.17 1561.54 L1884.2 1561.54 L1884.2 1565.81 L1870.17 1565.81 L1870.17 1561.54 Z" fill="#000000" fill-rule="nonzero" fill-opacity="1" /><path clip-path="url(#clip540)" d="M1903.76 1542.86 Q1899.7 1542.86 1897.64 1546.87 Q1895.61 1550.86 1895.61 1558.88 Q1895.61 1566.87 1897.64 1570.88 Q1899.7 1574.87 1903.76 1574.87 Q1907.85 1574.87 1909.88 1570.88 Q1911.94 1566.87 1911.94 1558.88 Q1911.94 1550.86 1909.88 1546.87 Q1907.85 1542.86 1903.76 1542.86 M1903.76 1538.7 Q1910.3 1538.7 1913.73 1543.88 Q1917.2 1549.04 1917.2 1558.88 Q1917.2 1568.7 1913.73 1573.88 Q1910.3 1579.04 1903.76 1579.04 Q1897.22 1579.04 1893.76 1573.88 Q1890.32 1568.7 1890.32 1558.88 Q1890.32 1549.04 1893.76 1543.88 Q1897.22 1538.7 1903.76 1538.7 Z" fill="#000000" fill-rule="nonzero" fill-opacity="1" /><path clip-path="url(#clip540)" d="M1927.35 1573.85 L1935.95 1573.85 L1935.95 1544.19 L1926.6 1546.07 L1926.6 1541.27 L1935.9 1539.4 L1941.16 1539.4 L1941.16 1573.85 L1949.75 1573.85 L1949.75 1578.28 L1927.35 1578.28 L1927.35 1573.85 Z" fill="#000000" fill-rule="nonzero" fill-opacity="1" /><path clip-path="url(#clip540)" d="M1957.28 1561.54 L1971.31 1561.54 L1971.31 1565.81 L1957.28 1565.81 L1957.28 1561.54 Z" fill="#000000" fill-rule="nonzero" fill-opacity="1" /><path clip-path="url(#clip540)" d="M1980.53 1573.85 L1989.12 1573.85 L1989.12 1544.19 L1979.78 1546.07 L1979.78 1541.27 L1989.07 1539.4 L1994.33 1539.4 L1994.33 1573.85 L2002.93 1573.85 L2002.93 1578.28 L1980.53 1578.28 L1980.53 1573.85 Z" fill="#000000" fill-rule="nonzero" fill-opacity="1" /><path clip-path="url(#clip540)" d="M2029.49 1557.32 Q2033.27 1558.12 2035.37 1560.68 Q2037.51 1563.23 2037.51 1566.98 Q2037.51 1572.73 2033.55 1575.88 Q2029.59 1579.04 2022.3 1579.04 Q2019.85 1579.04 2017.25 1578.54 Q2014.67 1578.07 2011.91 1577.11 L2011.91 1572.03 Q2014.1 1573.31 2016.7 1573.96 Q2019.31 1574.61 2022.15 1574.61 Q2027.09 1574.61 2029.67 1572.65 Q2032.28 1570.7 2032.28 1566.98 Q2032.28 1563.54 2029.85 1561.61 Q2027.46 1559.66 2023.16 1559.66 L2018.63 1559.66 L2018.63 1555.34 L2023.37 1555.34 Q2027.25 1555.34 2029.31 1553.8 Q2031.36 1552.24 2031.36 1549.32 Q2031.36 1546.33 2029.23 1544.74 Q2027.12 1543.12 2023.16 1543.12 Q2021 1543.12 2018.53 1543.59 Q2016.05 1544.06 2013.08 1545.05 L2013.08 1540.36 Q2016.08 1539.53 2018.68 1539.11 Q2021.31 1538.7 2023.63 1538.7 Q2029.62 1538.7 2033.11 1541.43 Q2036.6 1544.14 2036.6 1548.77 Q2036.6 1552 2034.75 1554.24 Q2032.9 1556.46 2029.49 1557.32 Z" fill="#000000" fill-rule="nonzero" fill-opacity="1" /><path clip-path="url(#clip540)" d="M2556.58 1573.85 L2574.94 1573.85 L2574.94 1578.28 L2550.25 1578.28 L2550.25 1573.85 Q2553.25 1570.75 2558.41 1565.55 Q2563.59 1560.31 2564.92 1558.8 Q2567.44 1555.96 2568.43 1554.01 Q2569.45 1552.03 2569.45 1550.13 Q2569.45 1547.03 2567.26 1545.08 Q2565.1 1543.12 2561.61 1543.12 Q2559.13 1543.12 2556.37 1543.98 Q2553.64 1544.84 2550.52 1546.59 L2550.52 1541.27 Q2553.69 1540 2556.45 1539.35 Q2559.21 1538.7 2561.5 1538.7 Q2567.55 1538.7 2571.14 1541.72 Q2574.73 1544.74 2574.73 1549.79 Q2574.73 1552.19 2573.82 1554.35 Q2572.94 1556.48 2570.57 1559.4 Q2569.92 1560.15 2566.43 1563.77 Q2562.94 1567.37 2556.58 1573.85 Z" fill="#000000" fill-rule="nonzero" fill-opacity="1" /><path clip-path="url(#clip540)" d="M2597.23 1542.86 Q2593.17 1542.86 2591.11 1546.87 Q2589.08 1550.86 2589.08 1558.88 Q2589.08 1566.87 2591.11 1570.88 Q2593.17 1574.87 2597.23 1574.87 Q2601.32 1574.87 2603.35 1570.88 Q2605.41 1566.87 2605.41 1558.88 Q2605.41 1550.86 2603.35 1546.87 Q2601.32 1542.86 2597.23 1542.86 M2597.23 1538.7 Q2603.77 1538.7 2607.21 1543.88 Q2610.67 1549.04 2610.67 1558.88 Q2610.67 1568.7 2607.21 1573.88 Q2603.77 1579.04 2597.23 1579.04 Q2590.7 1579.04 2587.23 1573.88 Q2583.8 1568.7 2583.8 1558.88 Q2583.8 1549.04 2587.23 1543.88 Q2590.7 1538.7 2597.23 1538.7 Z" fill="#000000" fill-rule="nonzero" fill-opacity="1" /><path clip-path="url(#clip540)" d="M2624.45 1573.85 L2642.81 1573.85 L2642.81 1578.28 L2618.12 1578.28 L2618.12 1573.85 Q2621.11 1570.75 2626.27 1565.55 Q2631.45 1560.31 2632.78 1558.8 Q2635.31 1555.96 2636.3 1554.01 Q2637.31 1552.03 2637.31 1550.13 Q2637.31 1547.03 2635.12 1545.08 Q2632.96 1543.12 2629.47 1543.12 Q2627 1543.12 2624.24 1543.98 Q2621.5 1544.84 2618.38 1546.59 L2618.38 1541.27 Q2621.56 1540 2624.32 1539.35 Q2627.08 1538.7 2629.37 1538.7 Q2635.41 1538.7 2639 1541.72 Q2642.6 1544.74 2642.6 1549.79 Q2642.6 1552.19 2641.69 1554.35 Q2640.8 1556.48 2638.43 1559.4 Q2637.78 1560.15 2634.29 1563.77 Q2630.8 1567.37 2624.45 1573.85 Z" fill="#000000" fill-rule="nonzero" fill-opacity="1" /><path clip-path="url(#clip540)" d="M2669.79 1557.32 Q2673.56 1558.12 2675.67 1560.68 Q2677.81 1563.23 2677.81 1566.98 Q2677.81 1572.73 2673.85 1575.88 Q2669.89 1579.04 2662.6 1579.04 Q2660.15 1579.04 2657.55 1578.54 Q2654.97 1578.07 2652.21 1577.11 L2652.21 1572.03 Q2654.39 1573.31 2657 1573.96 Q2659.6 1574.61 2662.44 1574.61 Q2667.39 1574.61 2669.97 1572.65 Q2672.57 1570.7 2672.57 1566.98 Q2672.57 1563.54 2670.15 1561.61 Q2667.75 1559.66 2663.46 1559.66 L2658.93 1559.66 L2658.93 1555.34 L2663.67 1555.34 Q2667.55 1555.34 2669.6 1553.8 Q2671.66 1552.24 2671.66 1549.32 Q2671.66 1546.33 2669.52 1544.74 Q2667.42 1543.12 2663.46 1543.12 Q2661.3 1543.12 2658.82 1543.59 Q2656.35 1544.06 2653.38 1545.05 L2653.38 1540.36 Q2656.37 1539.53 2658.98 1539.11 Q2661.61 1538.7 2663.93 1538.7 Q2669.92 1538.7 2673.4 1541.43 Q2676.89 1544.14 2676.89 1548.77 Q2676.89 1552 2675.05 1554.24 Q2673.2 1556.46 2669.79 1557.32 Z" fill="#000000" fill-rule="nonzero" fill-opacity="1" /><path clip-path="url(#clip540)" d="M2684.68 1561.54 L2698.72 1561.54 L2698.72 1565.81 L2684.68 1565.81 L2684.68 1561.54 Z" fill="#000000" fill-rule="nonzero" fill-opacity="1" /><path clip-path="url(#clip540)" d="M2718.27 1542.86 Q2714.21 1542.86 2712.15 1546.87 Q2710.12 1550.86 2710.12 1558.88 Q2710.12 1566.87 2712.15 1570.88 Q2714.21 1574.87 2718.27 1574.87 Q2722.36 1574.87 2724.39 1570.88 Q2726.45 1566.87 2726.45 1558.88 Q2726.45 1550.86 2724.39 1546.87 Q2722.36 1542.86 2718.27 1542.86 M2718.27 1538.7 Q2724.81 1538.7 2728.25 1543.88 Q2731.71 1549.04 2731.71 1558.88 Q2731.71 1568.7 2728.25 1573.88 Q2724.81 1579.04 2718.27 1579.04 Q2711.74 1579.04 2708.27 1573.88 Q2704.84 1568.7 2704.84 1558.88 Q2704.84 1549.04 2708.27 1543.88 Q2711.74 1538.7 2718.27 1538.7 Z" fill="#000000" fill-rule="nonzero" fill-opacity="1" /><path clip-path="url(#clip540)" d="M2741.87 1573.85 L2750.46 1573.85 L2750.46 1544.19 L2741.11 1546.07 L2741.11 1541.27 L2750.41 1539.4 L2755.67 1539.4 L2755.67 1573.85 L2764.26 1573.85 L2764.26 1578.28 L2741.87 1578.28 L2741.87 1573.85 Z" fill="#000000" fill-rule="nonzero" fill-opacity="1" /><path clip-path="url(#clip540)" d="M2771.79 1561.54 L2785.83 1561.54 L2785.83 1565.81 L2771.79 1565.81 L2771.79 1561.54 Z" fill="#000000" fill-rule="nonzero" fill-opacity="1" /><path clip-path="url(#clip540)" d="M2795.04 1573.85 L2803.64 1573.85 L2803.64 1544.19 L2794.29 1546.07 L2794.29 1541.27 L2803.59 1539.4 L2808.85 1539.4 L2808.85 1573.85 L2817.44 1573.85 L2817.44 1578.28 L2795.04 1578.28 L2795.04 1573.85 Z" fill="#000000" fill-rule="nonzero" fill-opacity="1" /><path clip-path="url(#clip540)" d="M2828.12 1539.4 L2848.77 1539.4 L2848.77 1543.83 L2832.94 1543.83 L2832.94 1553.36 Q2834.08 1552.97 2835.23 1552.79 Q2836.37 1552.58 2837.52 1552.58 Q2844.03 1552.58 2847.83 1556.14 Q2851.63 1559.71 2851.63 1565.81 Q2851.63 1572.08 2847.73 1575.57 Q2843.82 1579.04 2836.71 1579.04 Q2834.26 1579.04 2831.71 1578.62 Q2829.19 1578.2 2826.48 1577.37 L2826.48 1572.08 Q2828.82 1573.36 2831.32 1573.98 Q2833.82 1574.61 2836.61 1574.61 Q2841.11 1574.61 2843.74 1572.24 Q2846.37 1569.87 2846.37 1565.81 Q2846.37 1561.74 2843.74 1559.37 Q2841.11 1557 2836.61 1557 Q2834.5 1557 2832.39 1557.47 Q2830.31 1557.94 2828.12 1558.93 L2828.12 1539.4 Z" fill="#000000" fill-rule="nonzero" fill-opacity="1" /><polyline clip-path="url(#clip542)" style="stroke:#000000; stroke-linecap:round; stroke-linejoin:round; stroke-width:2; stroke-opacity:0.1; fill:none" points="172.993,1267.82 3176.13,1267.82 "/>
<polyline clip-path="url(#clip542)" style="stroke:#000000; stroke-linecap:round; stroke-linejoin:round; stroke-width:2; stroke-opacity:0.1; fill:none" points="172.993,897.606 3176.13,897.606 "/>
<polyline clip-path="url(#clip542)" style="stroke:#000000; stroke-linecap:round; stroke-linejoin:round; stroke-width:2; stroke-opacity:0.1; fill:none" points="172.993,527.392 3176.13,527.392 "/>
<polyline clip-path="url(#clip542)" style="stroke:#000000; stroke-linecap:round; stroke-linejoin:round; stroke-width:2; stroke-opacity:0.1; fill:none" points="172.993,157.178 3176.13,157.178 "/>
<polyline clip-path="url(#clip540)" style="stroke:#000000; stroke-linecap:round; stroke-linejoin:round; stroke-width:4; stroke-opacity:1; fill:none" points="172.993,1497.68 172.993,47.2441 "/>
<polyline clip-path="url(#clip540)" style="stroke:#000000; stroke-linecap:round; stroke-linejoin:round; stroke-width:4; stroke-opacity:1; fill:none" points="172.993,1267.82 188.008,1267.82 "/>
<polyline clip-path="url(#clip540)" style="stroke:#000000; stroke-linecap:round; stroke-linejoin:round; stroke-width:4; stroke-opacity:1; fill:none" points="172.993,897.606 188.008,897.606 "/>
<polyline clip-path="url(#clip540)" style="stroke:#000000; stroke-linecap:round; stroke-linejoin:round; stroke-width:4; stroke-opacity:1; fill:none" points="172.993,527.392 188.008,527.392 "/>
<polyline clip-path="url(#clip540)" style="stroke:#000000; stroke-linecap:round; stroke-linejoin:round; stroke-width:4; stroke-opacity:1; fill:none" points="172.993,157.178 188.008,157.178 "/>
<path clip-path="url(#clip540)" d="M94.6341 1282.83 L112.993 1282.83 L112.993 1287.26 L88.306 1287.26 L88.306 1282.83 Q91.3007 1279.73 96.457 1274.53 Q101.639 1269.29 102.967 1267.78 Q105.493 1264.94 106.483 1262.99 Q107.499 1261.01 107.499 1259.11 Q107.499 1256.01 105.311 1254.06 Q103.15 1252.1 99.6601 1252.1 Q97.1861 1252.1 94.4257 1252.96 Q91.6914 1253.82 88.5664 1255.57 L88.5664 1250.26 Q91.7435 1248.98 94.5039 1248.33 Q97.2643 1247.68 99.5559 1247.68 Q105.598 1247.68 109.191 1250.7 Q112.785 1253.72 112.785 1258.77 Q112.785 1261.17 111.874 1263.33 Q110.988 1265.46 108.618 1268.38 Q107.967 1269.14 104.478 1272.76 Q100.988 1276.35 94.6341 1282.83 Z" fill="#000000" fill-rule="nonzero" fill-opacity="1" /><path clip-path="url(#clip540)" d="M104.973 896.083 Q108.749 896.89 110.858 899.442 Q112.993 901.994 112.993 905.744 Q112.993 911.5 109.035 914.651 Q105.077 917.802 97.7851 917.802 Q95.3372 917.802 92.733 917.307 Q90.1549 916.838 87.3945 915.875 L87.3945 910.797 Q89.582 912.073 92.1862 912.724 Q94.7903 913.375 97.6288 913.375 Q102.577 913.375 105.155 911.422 Q107.759 909.468 107.759 905.744 Q107.759 902.307 105.337 900.38 Q102.941 898.427 98.6445 898.427 L94.1132 898.427 L94.1132 894.104 L98.8528 894.104 Q102.733 894.104 104.79 892.567 Q106.848 891.005 106.848 888.088 Q106.848 885.094 104.712 883.505 Q102.603 881.89 98.6445 881.89 Q96.483 881.89 94.0091 882.359 Q91.5351 882.828 88.5664 883.818 L88.5664 879.13 Q91.5612 878.297 94.1653 877.88 Q96.7955 877.463 99.1132 877.463 Q105.103 877.463 108.592 880.198 Q112.082 882.906 112.082 887.541 Q112.082 890.771 110.233 893.01 Q108.384 895.224 104.973 896.083 Z" fill="#000000" fill-rule="nonzero" fill-opacity="1" /><path clip-path="url(#clip540)" d="M102.212 512.536 L88.931 533.291 L102.212 533.291 L102.212 512.536 M100.832 507.952 L107.446 507.952 L107.446 533.291 L112.993 533.291 L112.993 537.666 L107.446 537.666 L107.446 546.832 L102.212 546.832 L102.212 537.666 L84.6602 537.666 L84.6602 532.588 L100.832 507.952 Z" fill="#000000" fill-rule="nonzero" fill-opacity="1" /><path clip-path="url(#clip540)" d="M89.4778 137.738 L110.129 137.738 L110.129 142.165 L94.2955 142.165 L94.2955 151.697 Q95.4413 151.306 96.5872 151.124 Q97.733 150.915 98.8788 150.915 Q105.389 150.915 109.191 154.483 Q112.993 158.051 112.993 164.144 Q112.993 170.42 109.087 173.91 Q105.181 177.373 98.0715 177.373 Q95.6236 177.373 93.0716 176.957 Q90.5455 176.54 87.8372 175.707 L87.8372 170.42 Q90.181 171.696 92.6809 172.321 Q95.1809 172.946 97.9674 172.946 Q102.473 172.946 105.103 170.577 Q107.733 168.207 107.733 164.144 Q107.733 160.082 105.103 157.712 Q102.473 155.342 97.9674 155.342 Q95.858 155.342 93.7487 155.811 Q91.6653 156.28 89.4778 157.269 L89.4778 137.738 Z" fill="#000000" fill-rule="nonzero" fill-opacity="1" /><path clip-path="url(#clip540)" d="M-31.4998 930.013 L-31.4998 924.168 L11.7002 924.168 L11.7002 930.013 L-31.4998 930.013 Z" fill="#000000" fill-rule="nonzero" fill-opacity="1" /><path clip-path="url(#clip540)" d="M-7.85992 885.829 L11.7002 885.829 L11.7002 891.153 L-7.68631 891.153 Q-12.287 891.153 -14.5728 892.947 Q-16.8587 894.741 -16.8587 898.329 Q-16.8587 902.641 -14.1099 905.129 Q-11.3611 907.618 -6.61572 907.618 L11.7002 907.618 L11.7002 912.97 L-20.7071 912.97 L-20.7071 907.618 L-15.6724 907.618 Q-18.5948 905.708 -20.0416 903.133 Q-21.4883 900.528 -21.4883 897.143 Q-21.4883 891.559 -18.0161 888.694 Q-14.5728 885.829 -7.85992 885.829 Z" fill="#000000" fill-rule="nonzero" fill-opacity="1" /><path clip-path="url(#clip540)" d="M-33.3227 858.804 L-28.8957 858.804 L-28.8957 863.897 Q-28.8957 866.761 -27.7383 867.89 Q-26.5809 868.989 -23.5716 868.989 L-20.7071 868.989 L-20.7071 860.222 L-16.5694 860.222 L-16.5694 868.989 L11.7002 868.989 L11.7002 874.342 L-16.5694 874.342 L-16.5694 879.435 L-20.7071 879.435 L-20.7071 874.342 L-22.964 874.342 Q-28.3749 874.342 -30.8343 871.825 Q-33.3227 869.308 -33.3227 863.839 L-33.3227 858.804 Z" fill="#000000" fill-rule="nonzero" fill-opacity="1" /><path clip-path="url(#clip540)" d="M-33.3227 854.348 L-33.3227 849.024 L11.7002 849.024 L11.7002 854.348 L-33.3227 854.348 Z" fill="#000000" fill-rule="nonzero" fill-opacity="1" /><path clip-path="url(#clip540)" d="M-16.9745 825.326 Q-16.9745 829.609 -13.618 832.097 Q-10.2905 834.585 -4.47452 834.585 Q1.34142 834.585 4.69788 832.126 Q8.02541 829.638 8.02541 825.326 Q8.02541 821.073 4.66895 818.584 Q1.31248 816.096 -4.47452 816.096 Q-10.2326 816.096 -13.5891 818.584 Q-16.9745 821.073 -16.9745 825.326 M-21.4883 825.326 Q-21.4883 818.382 -16.9745 814.418 Q-12.4606 810.454 -4.47452 810.454 Q3.48261 810.454 8.02541 814.418 Q12.5393 818.382 12.5393 825.326 Q12.5393 832.3 8.02541 836.264 Q3.48261 840.199 -4.47452 840.199 Q-12.4606 840.199 -16.9745 836.264 Q-21.4883 832.3 -21.4883 825.326 Z" fill="#000000" fill-rule="nonzero" fill-opacity="1" /><path clip-path="url(#clip540)" d="M-20.7071 804.725 L-20.7071 799.4 L4.58214 792.745 L-20.7071 786.119 L-20.7071 779.84 L4.58214 773.185 L-20.7071 766.559 L-20.7071 761.235 L11.7002 769.713 L11.7002 775.992 L-14.8622 782.965 L11.7002 789.968 L11.7002 796.247 L-20.7071 804.725 Z" fill="#000000" fill-rule="nonzero" fill-opacity="1" /><path clip-path="url(#clip540)" d="M-33.3227 734.818 L-33.3227 722.549 L-29.185 722.549 L-29.185 729.493 L15.3749 729.493 L15.3749 722.549 L19.5126 722.549 L19.5126 734.818 L-33.3227 734.818 Z" fill="#000000" fill-rule="nonzero" fill-opacity="1" /><path clip-path="url(#clip540)" d="M-31.4998 710.975 L-31.4998 705.13 L6.7812 705.13 L6.7812 684.094 L11.7002 684.094 L11.7002 710.975 L-31.4998 710.975 Z" fill="#000000" fill-rule="nonzero" fill-opacity="1" /><path clip-path="url(#clip540)" d="M-31.4998 668.73 L-31.4998 663.811 L17.1978 678.857 L17.1978 683.776 L-31.4998 668.73 Z" fill="#000000" fill-rule="nonzero" fill-opacity="1" /><path clip-path="url(#clip540)" d="M-19.7522 637.567 L-14.7175 637.567 Q-15.8749 639.824 -16.4536 642.254 Q-17.0323 644.685 -17.0323 647.289 Q-17.0323 651.253 -15.8171 653.25 Q-14.6018 655.217 -12.1712 655.217 Q-10.3194 655.217 -9.2488 653.799 Q-8.20714 652.382 -7.25229 648.099 L-6.8472 646.276 Q-5.63193 640.605 -3.40393 638.232 Q-1.20487 635.831 2.75923 635.831 Q7.2731 635.831 9.90619 639.419 Q12.5393 642.978 12.5393 649.228 Q12.5393 651.832 12.0184 654.667 Q11.5265 657.474 10.5138 660.599 L5.01617 660.599 Q6.54972 657.648 7.33097 654.783 Q8.08328 651.919 8.08328 649.112 Q8.08328 645.35 6.81014 643.325 Q5.50806 641.299 3.16432 641.299 Q0.994196 641.299 -0.163205 642.775 Q-1.32061 644.222 -2.3912 649.17 L-2.82523 651.022 Q-3.86689 655.97 -6.00808 658.169 Q-8.17821 660.368 -11.9398 660.368 Q-16.5115 660.368 -18.9999 657.127 Q-21.4883 653.886 -21.4883 647.926 Q-21.4883 644.974 -21.0543 642.37 Q-20.6203 639.766 -19.7522 637.567 Z" fill="#000000" fill-rule="nonzero" fill-opacity="1" /><path clip-path="url(#clip540)" d="M-33.3227 614.911 L19.5126 614.911 L19.5126 627.179 L15.3749 627.179 L15.3749 620.264 L-29.185 620.264 L-29.185 627.179 L-33.3227 627.179 L-33.3227 614.911 Z" fill="#000000" fill-rule="nonzero" fill-opacity="1" /><polyline clip-path="url(#clip542)" style="stroke:#023eff; stroke-linecap:round; stroke-linejoin:round; stroke-width:5; stroke-opacity:1; fill:none" points="257.988,1175.98 274.953,1285.23 291.918,1374.37 308.883,1374.37 325.848,1374.37 342.813,1374.37 359.778,1285.23 376.743,1000.25 393.708,708.73 410.673,507.803 427.638,510.913 444.603,510.913 461.568,507.803 478.532,623.543 495.497,708.73 512.462,891.2 529.427,891.2 546.392,708.73 563.357,623.543 580.322,708.73 597.287,708.73 614.252,708.73 631.217,1034.1 648.182,1034.1 665.147,1119.84 682.112,1388.46 699.077,1388.46 716.042,1388.46 733.007,1388.46 749.972,1210.72 766.937,1210.72 783.902,785.388 800.867,785.388 817.832,560.309 834.797,560.309 851.762,587.291 868.727,785.388 885.692,560.309 902.657,785.388 919.622,1008.11 936.587,1008.11 953.552,785.388 970.517,785.388 987.482,785.388 1004.45,560.309 1021.41,785.388 1038.38,891.919 1055.34,891.919 1072.31,1119.84 1089.27,1388.46 1106.24,1388.46 1123.2,1388.46 1140.17,1388.46 1157.13,1065.69 1174.1,891.919 1191.06,785.388 1208.03,560.309 1224.99,560.309 1241.96,560.309 1258.92,785.388 1275.89,785.388 1292.85,560.309 1309.82,785.388 1326.78,785.388 1343.75,785.388 1360.71,785.388 1377.68,560.309 1394.64,785.388 1411.61,560.309 1428.57,785.388 1445.54,891.919 1462.5,891.919 1479.47,1119.84 1496.43,1388.46 1513.4,1388.46 1530.36,1388.46 1547.33,1388.46 1564.29,1065.69 1581.26,891.919 1598.22,785.388 1615.19,560.309 1632.15,560.309 1649.12,560.309 1666.08,785.388 1683.05,587.291 1700.01,560.309 1716.98,785.388 1733.94,785.388 1750.91,1008.11 1767.87,785.388 1784.84,785.388 1801.8,785.388 1818.77,785.388 1835.73,785.388 1852.7,1008.11 1869.66,1210.72 1886.63,1119.84 1903.59,1388.46 1920.56,1388.46 1937.52,1388.46 1954.49,1388.46 1971.45,1210.72 1988.42,891.919 2005.38,1008.11 2022.34,560.309 2039.31,560.309 2056.27,453.186 2073.24,560.309 2090.2,560.309 2107.17,560.309 2124.13,560.309 2141.1,785.388 2158.06,891.919 2175.03,891.919 2191.99,785.388 2208.96,785.388 2225.92,785.388 2242.89,1008.11 2259.85,1210.72 2276.82,1210.72 2293.78,1119.84 2310.75,1388.46 2327.71,1388.46 2344.68,1388.46 2361.64,1388.46 2378.61,1210.72 2395.57,891.919 2412.54,891.919 2429.5,560.309 2446.47,560.309 2463.43,560.309 2480.4,560.309 2497.36,560.309 2514.33,560.309 2531.29,560.309 2548.26,560.309 2565.22,785.388 2582.19,785.388 2599.15,785.388 2616.12,785.388 2633.08,785.388 2650.05,785.388 2667.01,1008.11 2683.98,1210.72 2700.94,1119.84 2717.91,1388.46 2734.87,1388.46 2751.84,1388.46 2768.8,1388.46 2785.77,1065.69 2802.73,891.919 2819.7,1210.72 2836.66,785.388 2853.63,88.2942 2870.59,88.2942 2887.56,88.2942 2904.52,560.309 2921.49,560.309 2938.45,560.309 2955.42,785.388 2972.38,785.388 2989.35,560.309 3006.31,560.309 3023.28,560.309 3040.24,560.309 3057.21,560.309 3074.17,1008.11 3091.14,1210.72 "/>
<polyline clip-path="url(#clip542)" style="stroke:#ff7c00; stroke-linecap:round; stroke-linejoin:round; stroke-width:5; stroke-opacity:1; fill:none" points="257.988,1234.8 274.953,1335.36 291.918,1335.36 308.883,1335.36 325.848,1335.36 342.813,1335.36 359.778,1335.36 376.743,1176.77 393.708,786.621 410.673,629.299 427.638,438.147 444.603,438.147 461.568,531.252 478.532,616.479 495.497,616.479 512.462,786.621 529.427,786.621 546.392,786.621 563.357,713.596 580.322,684.092 597.287,684.092 614.252,786.621 631.217,1094.3 648.182,1094.3 665.147,1242.9 682.112,1374.6 699.077,1374.6 716.042,1374.6 733.007,1374.6 749.972,1374.6 766.937,1086.07 783.902,821.869 800.867,821.869 817.832,756.1 834.797,756.1 851.762,756.1 868.727,756.1 885.692,714.941 902.657,821.869 919.622,821.869 936.587,821.869 953.552,821.869 970.517,756.1 987.482,756.1 1004.45,714.941 1021.41,821.869 1038.38,944.994 1055.34,944.994 1072.31,1242.9 1089.27,1374.6 1106.24,1374.6 1123.2,1374.6 1140.17,1374.6 1157.13,1374.6 1174.1,1086.07 1191.06,821.869 1208.03,610.833 1224.99,756.1 1241.96,714.941 1258.92,756.1 1275.89,756.1 1292.85,714.941 1309.82,821.869 1326.78,821.869 1343.75,821.869 1360.71,821.869 1377.68,756.1 1394.64,756.1 1411.61,756.1 1428.57,821.869 1445.54,1086.07 1462.5,1086.07 1479.47,1242.9 1496.43,1374.6 1513.4,1374.6 1530.36,1374.6 1547.33,1374.6 1564.29,1374.6 1581.26,944.994 1598.22,821.869 1615.19,610.833 1632.15,610.833 1649.12,756.1 1666.08,756.1 1683.05,821.869 1700.01,756.1 1716.98,821.869 1733.94,821.869 1750.91,821.869 1767.87,821.869 1784.84,756.1 1801.8,756.1 1818.77,821.869 1835.73,821.869 1852.7,1086.07 1869.66,1086.07 1886.63,1242.9 1903.59,1313.57 1920.56,1374.6 1937.52,1374.6 1954.49,1374.6 1971.45,1374.6 1988.42,1313.57 2005.38,821.869 2022.34,610.833 2039.31,610.833 2056.27,502.744 2073.24,502.744 2090.2,502.744 2107.17,714.941 2124.13,714.941 2141.1,821.869 2158.06,821.869 2175.03,821.869 2191.99,821.869 2208.96,821.869 2225.92,821.869 2242.89,821.869 2259.85,1086.07 2276.82,1086.07 2293.78,1242.9 2310.75,1374.6 2327.71,1374.6 2344.68,1374.6 2361.64,1374.6 2378.61,1374.6 2395.57,1313.57 2412.54,1086.07 2429.5,577.587 2446.47,502.744 2463.43,577.587 2480.4,577.587 2497.36,577.587 2514.33,577.587 2531.29,577.587 2548.26,756.1 2565.22,821.869 2582.19,821.869 2599.15,821.869 2616.12,756.1 2633.08,756.1 2650.05,821.869 2667.01,1086.07 2683.98,1086.07 2700.94,1313.57 2717.91,1313.57 2734.87,1374.6 2751.84,1374.6 2768.8,1374.6 2785.77,1374.6 2802.73,1313.57 2819.7,1086.07 2836.66,756.1 2853.63,502.744 2870.59,377.075 2887.56,377.075 2904.52,502.744 2921.49,577.587 2938.45,577.587 2955.42,756.1 2972.38,756.1 2989.35,756.1 3006.31,577.587 3023.28,577.587 3040.24,577.587 3057.21,756.1 3074.17,1086.07 3091.14,1086.07 "/>
<polyline clip-path="url(#clip542)" style="stroke:#1ac938; stroke-linecap:round; stroke-linejoin:round; stroke-width:5; stroke-opacity:1; fill:none" points="257.988,1226.55 274.953,1356.17 291.918,1356.17 308.883,1356.17 325.848,1420.5 342.813,1420.5 359.778,1202.24 376.743,1089.16 393.708,798.389 410.673,565.686 427.638,700.094 444.603,700.094 461.568,700.094 478.532,700.094 495.497,700.094 512.462,798.389 529.427,798.389 546.392,798.389 563.357,700.094 580.322,700.094 597.287,700.094 614.252,798.389 631.217,1089.16 648.182,1089.16 665.147,1256.08 682.112,1370.28 699.077,1370.28 716.042,1370.28 733.007,1370.28 749.972,1370.28 766.937,1256.08 783.902,808.186 800.867,808.186 817.832,799.323 834.797,645.159 851.762,645.159 868.727,645.159 885.692,645.159 902.657,823.946 919.622,823.946 936.587,823.946 953.552,823.946 970.517,823.946 987.482,823.946 1004.45,723.606 1021.41,823.946 1038.38,986.855 1055.34,1073.46 1072.31,1256.08 1089.27,1370.28 1106.24,1370.28 1123.2,1370.28 1140.17,1370.28 1157.13,1370.28 1174.1,1180.07 1191.06,808.186 1208.03,553.719 1224.99,799.323 1241.96,645.159 1258.92,645.159 1275.89,645.159 1292.85,645.159 1309.82,823.946 1326.78,823.946 1343.75,823.946 1360.71,823.946 1377.68,723.606 1394.64,823.946 1411.61,723.606 1428.57,823.946 1445.54,986.855 1462.5,1073.46 1479.47,1256.08 1496.43,1370.28 1513.4,1370.28 1530.36,1370.28 1547.33,1370.28 1564.29,1370.28 1581.26,1180.07 1598.22,1010.73 1615.19,702.98 1632.15,645.159 1649.12,645.159 1666.08,645.159 1683.05,645.159 1700.01,645.159 1716.98,823.946 1733.94,823.946 1750.91,823.946 1767.87,823.946 1784.84,823.946 1801.8,823.946 1818.77,823.946 1835.73,823.946 1852.7,986.855 1869.66,1073.46 1886.63,1256.08 1903.59,1370.28 1920.56,1370.28 1937.52,1370.28 1954.49,1370.28 1971.45,1370.28 1988.42,1370.28 2005.38,808.186 2022.34,808.186 2039.31,799.323 2056.27,645.159 2073.24,645.159 2090.2,645.159 2107.17,645.159 2124.13,723.606 2141.1,823.946 2158.06,823.946 2175.03,823.946 2191.99,823.946 2208.96,823.946 2225.92,823.946 2242.89,823.946 2259.85,986.855 2276.82,1073.46 2293.78,1256.08 2310.75,1370.28 2327.71,1370.28 2344.68,1370.28 2361.64,1370.28 2378.61,1370.28 2395.57,1256.08 2412.54,1010.73 2429.5,553.719 2446.47,486.893 2463.43,486.893 2480.4,486.893 2497.36,486.893 2514.33,486.893 2531.29,723.606 2548.26,723.606 2565.22,823.946 2582.19,823.946 2599.15,823.946 2616.12,723.606 2633.08,723.606 2650.05,823.946 2667.01,986.855 2683.98,1073.46 2700.94,1256.08 2717.91,1370.28 2734.87,1370.28 2751.84,1370.28 2768.8,1370.28 2785.77,1370.28 2802.73,1370.28 2819.7,1180.07 2836.66,702.98 2853.63,486.893 2870.59,486.893 2887.56,486.893 2904.52,486.893 2921.49,486.893 2938.45,723.606 2955.42,823.946 2972.38,823.946 2989.35,723.606 3006.31,723.606 3023.28,723.606 3040.24,723.606 3057.21,723.606 3074.17,986.855 3091.14,1073.46 "/>
<polyline clip-path="url(#clip542)" style="stroke:#e8000b; stroke-linecap:round; stroke-linejoin:round; stroke-width:5; stroke-opacity:1; fill:none" points="257.988,1374.74 274.953,1374.74 291.918,1374.74 308.883,1374.74 325.848,1374.74 342.813,1374.74 359.778,1128.84 376.743,1128.84 393.708,794.831 410.673,626.292 427.638,626.292 444.603,626.292 461.568,626.292 478.532,626.292 495.497,626.292 512.462,794.831 529.427,794.831 546.392,794.831 563.357,626.292 580.322,626.292 597.287,626.292 614.252,794.831 631.217,1128.84 648.182,1128.84 665.147,1353.42 682.112,1353.42 699.077,1353.42 716.042,1353.42 733.007,1353.42 749.972,1353.42 766.937,1353.42 783.902,803.863 800.867,803.863 817.832,803.863 834.797,803.863 851.762,803.863 868.727,803.863 885.692,649.311 902.657,803.863 919.622,1057.97 936.587,1057.97 953.552,803.863 970.517,803.863 987.482,803.863 1004.45,649.311 1021.41,803.863 1038.38,1057.97 1055.34,1057.97 1072.31,1353.42 1089.27,1353.42 1106.24,1353.42 1123.2,1353.42 1140.17,1353.42 1157.13,1353.42 1174.1,1353.42 1191.06,803.863 1208.03,649.311 1224.99,803.863 1241.96,649.311 1258.92,803.863 1275.89,803.863 1292.85,649.311 1309.82,803.863 1326.78,803.863 1343.75,803.863 1360.71,803.863 1377.68,803.863 1394.64,803.863 1411.61,803.863 1428.57,803.863 1445.54,1057.97 1462.5,1057.97 1479.47,1353.42 1496.43,1353.42 1513.4,1353.42 1530.36,1353.42 1547.33,1353.42 1564.29,1353.42 1581.26,1353.42 1598.22,803.863 1615.19,649.311 1632.15,649.311 1649.12,803.863 1666.08,803.863 1683.05,803.863 1700.01,803.863 1716.98,803.863 1733.94,803.863 1750.91,1057.97 1767.87,803.863 1784.84,803.863 1801.8,803.863 1818.77,803.863 1835.73,803.863 1852.7,1057.97 1869.66,1057.97 1886.63,1353.42 1903.59,1353.42 1920.56,1353.42 1937.52,1353.42 1954.49,1353.42 1971.45,1353.42 1988.42,1353.42 2005.38,1057.97 2022.34,649.311 2039.31,649.311 2056.27,649.311 2073.24,649.311 2090.2,649.311 2107.17,649.311 2124.13,649.311 2141.1,803.863 2158.06,1057.97 2175.03,1057.97 2191.99,803.863 2208.96,803.863 2225.92,803.863 2242.89,1057.97 2259.85,1057.97 2276.82,1057.97 2293.78,1353.42 2310.75,1353.42 2327.71,1353.42 2344.68,1353.42 2361.64,1353.42 2378.61,1353.42 2395.57,1353.42 2412.54,1057.97 2429.5,649.311 2446.47,649.311 2463.43,649.311 2480.4,649.311 2497.36,649.311 2514.33,649.311 2531.29,649.311 2548.26,803.863 2565.22,803.863 2582.19,803.863 2599.15,803.863 2616.12,803.863 2633.08,803.863 2650.05,803.863 2667.01,1057.97 2683.98,1057.97 2700.94,1353.42 2717.91,1353.42 2734.87,1353.42 2751.84,1353.42 2768.8,1353.42 2785.77,1353.42 2802.73,1353.42 2819.7,1057.97 2836.66,803.863 2853.63,649.311 2870.59,649.311 2887.56,649.311 2904.52,649.311 2921.49,649.311 2938.45,649.311 2955.42,803.863 2972.38,803.863 2989.35,803.863 3006.31,649.311 3023.28,649.311 3040.24,649.311 3057.21,803.863 3074.17,1057.97 3091.14,1057.97 "/>
<polyline clip-path="url(#clip542)" style="stroke:#000000; stroke-linecap:round; stroke-linejoin:round; stroke-width:6; stroke-opacity:1; fill:none" points="257.988,1267.82 274.953,1330.76 291.918,1352.97 308.883,1349.27 325.848,1375.18 342.813,1271.52 359.778,867.989 376.743,601.435 393.708,623.648 410.673,771.734 427.638,731.01 444.603,697.691 461.568,812.457 478.532,790.244 495.497,879.096 512.462,916.117 529.427,956.841 546.392,827.266 563.357,764.329 580.322,656.967 597.287,701.393 614.252,764.329 631.217,1004.97 648.182,1208.59 665.147,1282.63 682.112,1352.97 699.077,1364.08 716.042,1382.59 733.007,1386.29 749.972,1297.44 766.937,897.606 783.902,486.669 800.867,560.712 817.832,357.094 834.797,638.457 851.762,716.202 868.727,760.627 885.692,738.414 902.657,738.414 919.622,823.564 936.587,916.117 953.552,842.074 970.517,679.18 987.482,564.414 1004.45,616.244 1021.41,756.925 1038.38,930.926 1055.34,1104.93 1072.31,1223.39 1089.27,1323.35 1106.24,1364.08 1123.2,1397.4 1140.17,1371.48 1157.13,1290.03 1174.1,867.989 1191.06,549.605 1208.03,645.861 1224.99,727.308 1241.96,523.69 1258.92,660.669 1275.89,797.649 1292.85,801.351 1309.82,990.16 1326.78,1016.08 1343.75,975.351 1360.71,960.543 1377.68,634.754 1394.64,679.18 1411.61,616.244 1428.57,771.734 1445.54,993.862 1462.5,1201.18 1479.47,1293.74 1496.43,1375.18 1513.4,1452.93 1530.36,1456.63 1547.33,1434.42 1564.29,1338.16 1581.26,893.904 1598.22,434.839 1615.19,727.308 1632.15,727.308 1649.12,867.989 1666.08,930.926 1683.05,782.84 1700.01,849.479 1716.98,919.819 1733.94,1023.48 1750.91,982.756 1767.87,901.309 1784.84,668.074 1801.8,693.989 1818.77,686.584 1835.73,742.117 1852.7,1023.48 1869.66,1149.35 1886.63,1282.63 1903.59,1378.88 1920.56,1438.12 1937.52,1423.31 1954.49,1327.05 1971.45,1338.16 1988.42,908.713 2005.38,471.86 2022.34,653.265 2039.31,716.202 2056.27,834.67 2073.24,897.606 2090.2,934.628 2107.17,890.202 2124.13,908.713 2141.1,1008.67 2158.06,923.521 2175.03,945.734 2191.99,793.947 2208.96,838.372 2225.92,786.542 2242.89,882.798 2259.85,1071.61 2276.82,1156.76 2293.78,1264.12 2310.75,1352.97 2327.71,1419.61 2344.68,1441.82 2361.64,1419.61 2378.61,1408.5 2395.57,1190.08 2412.54,816.159 2429.5,508.882 2446.47,331.179 2463.43,320.072 2480.4,501.477 2497.36,527.392 2514.33,575.52 2531.29,679.18 2548.26,768.032 2565.22,882.798 2582.19,738.414 2599.15,656.967 2616.12,734.712 2633.08,867.989 2650.05,956.841 2667.01,1101.22 2683.98,1219.69 2700.94,1234.5 2717.91,1315.95 2734.87,1401.1 2751.84,1438.12 2768.8,1434.42 2785.77,1415.91 2802.73,1275.22 2819.7,1060.5 2836.66,568.116 2853.63,357.094 2870.59,342.285 2887.56,360.796 2904.52,553.307 2921.49,597.733 2938.45,682.882 2955.42,801.351 2972.38,830.968 2989.35,775.436 3006.31,623.648 3023.28,697.691 3040.24,705.095 3057.21,860.585 3074.17,1012.37 3091.14,1178.97 "/>
<path clip-path="url(#clip540)" d="M3302.12 445.512 L3952.76 445.512 L3952.76 95.592 L3302.12 95.592  Z" fill="#ffffff" fill-rule="evenodd" fill-opacity="1"/>
<polyline clip-path="url(#clip540)" style="stroke:#000000; stroke-linecap:round; stroke-linejoin:round; stroke-width:4; stroke-opacity:1; fill:none" points="3302.12,445.512 3952.76,445.512 3952.76,95.592 3302.12,95.592 3302.12,445.512 "/>
<polyline clip-path="url(#clip540)" style="stroke:#023eff; stroke-linecap:round; stroke-linejoin:round; stroke-width:5.625; stroke-opacity:1; fill:none" points="3344.12,153.912 3596.11,153.912 "/>
<path clip-path="url(#clip540)" d="M3642.92 168.977 L3642.92 184.446 L3638.1 184.446 L3638.1 144.185 L3642.92 144.185 L3642.92 148.613 Q3644.43 146.008 3646.72 144.758 Q3649.04 143.482 3652.24 143.482 Q3657.56 143.482 3660.86 147.701 Q3664.2 151.92 3664.2 158.795 Q3664.2 165.67 3660.86 169.888 Q3657.56 174.107 3652.24 174.107 Q3649.04 174.107 3646.72 172.857 Q3644.43 171.581 3642.92 168.977 M3659.22 158.795 Q3659.22 153.508 3657.04 150.514 Q3654.87 147.493 3651.07 147.493 Q3647.27 147.493 3645.08 150.514 Q3642.92 153.508 3642.92 158.795 Q3642.92 164.081 3645.08 167.102 Q3647.27 170.097 3651.07 170.097 Q3654.87 170.097 3657.04 167.102 Q3659.22 164.081 3659.22 158.795 Z" fill="#000000" fill-rule="nonzero" fill-opacity="1" /><path clip-path="url(#clip540)" d="M3689.04 148.665 Q3688.23 148.196 3687.27 147.988 Q3686.33 147.753 3685.19 147.753 Q3681.12 147.753 3678.94 150.409 Q3676.78 153.04 3676.78 157.987 L3676.78 173.352 L3671.96 173.352 L3671.96 144.185 L3676.78 144.185 L3676.78 148.717 Q3678.29 146.06 3680.71 144.784 Q3683.13 143.482 3686.59 143.482 Q3687.09 143.482 3687.69 143.56 Q3688.29 143.613 3689.01 143.743 L3689.04 148.665 Z" fill="#000000" fill-rule="nonzero" fill-opacity="1" /><path clip-path="url(#clip540)" d="M3717.84 157.571 L3717.84 159.915 L3695.81 159.915 Q3696.12 164.862 3698.78 167.467 Q3701.46 170.045 3706.23 170.045 Q3708.99 170.045 3711.57 169.368 Q3714.17 168.691 3716.72 167.336 L3716.72 171.868 Q3714.15 172.961 3711.44 173.534 Q3708.73 174.107 3705.94 174.107 Q3698.96 174.107 3694.87 170.045 Q3690.81 165.982 3690.81 159.055 Q3690.81 151.894 3694.67 147.701 Q3698.55 143.482 3705.11 143.482 Q3710.99 143.482 3714.41 147.284 Q3717.84 151.06 3717.84 157.571 M3713.05 156.165 Q3713 152.232 3710.84 149.889 Q3708.7 147.545 3705.16 147.545 Q3701.15 147.545 3698.73 149.81 Q3696.33 152.076 3695.97 156.191 L3713.05 156.165 Z" fill="#000000" fill-rule="nonzero" fill-opacity="1" /><path clip-path="url(#clip540)" d="M3744.9 148.613 L3744.9 132.831 L3749.69 132.831 L3749.69 173.352 L3744.9 173.352 L3744.9 168.977 Q3743.39 171.581 3741.07 172.857 Q3738.78 174.107 3735.55 174.107 Q3730.26 174.107 3726.93 169.888 Q3723.62 165.67 3723.62 158.795 Q3723.62 151.92 3726.93 147.701 Q3730.26 143.482 3735.55 143.482 Q3738.78 143.482 3741.07 144.758 Q3743.39 146.008 3744.9 148.613 M3728.57 158.795 Q3728.57 164.081 3730.73 167.102 Q3732.92 170.097 3736.72 170.097 Q3740.53 170.097 3742.71 167.102 Q3744.9 164.081 3744.9 158.795 Q3744.9 153.508 3742.71 150.514 Q3740.53 147.493 3736.72 147.493 Q3732.92 147.493 3730.73 150.514 Q3728.57 153.508 3728.57 158.795 Z" fill="#000000" fill-rule="nonzero" fill-opacity="1" /><path clip-path="url(#clip540)" d="M3759.56 144.185 L3764.35 144.185 L3764.35 173.352 L3759.56 173.352 L3759.56 144.185 M3759.56 132.831 L3764.35 132.831 L3764.35 138.899 L3759.56 138.899 L3759.56 132.831 Z" fill="#000000" fill-rule="nonzero" fill-opacity="1" /><path clip-path="url(#clip540)" d="M3795.37 145.305 L3795.37 149.784 Q3793.34 148.665 3791.28 148.118 Q3789.25 147.545 3787.17 147.545 Q3782.5 147.545 3779.93 150.514 Q3777.35 153.456 3777.35 158.795 Q3777.35 164.133 3779.93 167.102 Q3782.5 170.045 3787.17 170.045 Q3789.25 170.045 3791.28 169.498 Q3793.34 168.925 3795.37 167.805 L3795.37 172.232 Q3793.36 173.17 3791.2 173.638 Q3789.07 174.107 3786.64 174.107 Q3780.06 174.107 3776.18 169.967 Q3772.3 165.826 3772.3 158.795 Q3772.3 151.659 3776.2 147.571 Q3780.13 143.482 3786.96 143.482 Q3789.17 143.482 3791.28 143.951 Q3793.39 144.394 3795.37 145.305 Z" fill="#000000" fill-rule="nonzero" fill-opacity="1" /><path clip-path="url(#clip540)" d="M3808.44 135.904 L3808.44 144.185 L3818.31 144.185 L3818.31 147.909 L3808.44 147.909 L3808.44 163.743 Q3808.44 167.31 3809.4 168.326 Q3810.39 169.342 3813.39 169.342 L3818.31 169.342 L3818.31 173.352 L3813.39 173.352 Q3807.84 173.352 3805.73 171.295 Q3803.62 169.211 3803.62 163.743 L3803.62 147.909 L3800.11 147.909 L3800.11 144.185 L3803.62 144.185 L3803.62 135.904 L3808.44 135.904 Z" fill="#000000" fill-rule="nonzero" fill-opacity="1" /><path clip-path="url(#clip540)" d="M3846.77 182.206 L3846.77 185.93 L3819.07 185.93 L3819.07 182.206 L3846.77 182.206 Z" fill="#000000" fill-rule="nonzero" fill-opacity="1" /><path clip-path="url(#clip540)" d="M3852.01 134.472 L3872.66 134.472 L3872.66 138.899 L3856.83 138.899 L3856.83 148.43 Q3857.97 148.04 3859.12 147.857 Q3860.26 147.649 3861.41 147.649 Q3867.92 147.649 3871.72 151.217 Q3875.52 154.784 3875.52 160.878 Q3875.52 167.154 3871.62 170.644 Q3867.71 174.107 3860.6 174.107 Q3858.15 174.107 3855.6 173.69 Q3853.08 173.274 3850.37 172.441 L3850.37 167.154 Q3852.71 168.43 3855.21 169.055 Q3857.71 169.68 3860.5 169.68 Q3865 169.68 3867.63 167.31 Q3870.26 164.941 3870.26 160.878 Q3870.26 156.816 3867.63 154.446 Q3865 152.076 3860.5 152.076 Q3858.39 152.076 3856.28 152.545 Q3854.2 153.014 3852.01 154.003 L3852.01 134.472 Z" fill="#000000" fill-rule="nonzero" fill-opacity="1" /><path clip-path="url(#clip540)" d="M3890.42 168.925 L3908.78 168.925 L3908.78 173.352 L3884.09 173.352 L3884.09 168.925 Q3887.09 165.826 3892.24 160.618 Q3897.43 155.383 3898.75 153.873 Q3901.28 151.034 3902.27 149.081 Q3903.28 147.102 3903.28 145.201 Q3903.28 142.102 3901.1 140.149 Q3898.94 138.196 3895.45 138.196 Q3892.97 138.196 3890.21 139.055 Q3887.48 139.915 3884.35 141.659 L3884.35 136.347 Q3887.53 135.071 3890.29 134.42 Q3893.05 133.769 3895.34 133.769 Q3901.38 133.769 3904.98 136.79 Q3908.57 139.81 3908.57 144.863 Q3908.57 147.258 3907.66 149.42 Q3906.77 151.555 3904.4 154.472 Q3903.75 155.227 3900.26 158.847 Q3896.77 162.441 3890.42 168.925 Z" fill="#000000" fill-rule="nonzero" fill-opacity="1" /><polyline clip-path="url(#clip540)" style="stroke:#ff7c00; stroke-linecap:round; stroke-linejoin:round; stroke-width:5.625; stroke-opacity:1; fill:none" points="3344.12,212.232 3596.11,212.232 "/>
<path clip-path="url(#clip540)" d="M3642.92 227.297 L3642.92 242.766 L3638.1 242.766 L3638.1 202.505 L3642.92 202.505 L3642.92 206.933 Q3644.43 204.328 3646.72 203.078 Q3649.04 201.802 3652.24 201.802 Q3657.56 201.802 3660.86 206.021 Q3664.2 210.24 3664.2 217.115 Q3664.2 223.99 3660.86 228.208 Q3657.56 232.427 3652.24 232.427 Q3649.04 232.427 3646.72 231.177 Q3644.43 229.901 3642.92 227.297 M3659.22 217.115 Q3659.22 211.828 3657.04 208.834 Q3654.87 205.813 3651.07 205.813 Q3647.27 205.813 3645.08 208.834 Q3642.92 211.828 3642.92 217.115 Q3642.92 222.401 3645.08 225.422 Q3647.27 228.417 3651.07 228.417 Q3654.87 228.417 3657.04 225.422 Q3659.22 222.401 3659.22 217.115 Z" fill="#000000" fill-rule="nonzero" fill-opacity="1" /><path clip-path="url(#clip540)" d="M3689.04 206.985 Q3688.23 206.516 3687.27 206.308 Q3686.33 206.073 3685.19 206.073 Q3681.12 206.073 3678.94 208.729 Q3676.78 211.36 3676.78 216.307 L3676.78 231.672 L3671.96 231.672 L3671.96 202.505 L3676.78 202.505 L3676.78 207.037 Q3678.29 204.38 3680.71 203.104 Q3683.13 201.802 3686.59 201.802 Q3687.09 201.802 3687.69 201.88 Q3688.29 201.933 3689.01 202.063 L3689.04 206.985 Z" fill="#000000" fill-rule="nonzero" fill-opacity="1" /><path clip-path="url(#clip540)" d="M3717.84 215.891 L3717.84 218.235 L3695.81 218.235 Q3696.12 223.182 3698.78 225.787 Q3701.46 228.365 3706.23 228.365 Q3708.99 228.365 3711.57 227.688 Q3714.17 227.011 3716.72 225.656 L3716.72 230.188 Q3714.15 231.281 3711.44 231.854 Q3708.73 232.427 3705.94 232.427 Q3698.96 232.427 3694.87 228.365 Q3690.81 224.302 3690.81 217.375 Q3690.81 210.214 3694.67 206.021 Q3698.55 201.802 3705.11 201.802 Q3710.99 201.802 3714.41 205.604 Q3717.84 209.38 3717.84 215.891 M3713.05 214.485 Q3713 210.552 3710.84 208.209 Q3708.7 205.865 3705.16 205.865 Q3701.15 205.865 3698.73 208.13 Q3696.33 210.396 3695.97 214.511 L3713.05 214.485 Z" fill="#000000" fill-rule="nonzero" fill-opacity="1" /><path clip-path="url(#clip540)" d="M3744.9 206.933 L3744.9 191.151 L3749.69 191.151 L3749.69 231.672 L3744.9 231.672 L3744.9 227.297 Q3743.39 229.901 3741.07 231.177 Q3738.78 232.427 3735.55 232.427 Q3730.26 232.427 3726.93 228.208 Q3723.62 223.99 3723.62 217.115 Q3723.62 210.24 3726.93 206.021 Q3730.26 201.802 3735.55 201.802 Q3738.78 201.802 3741.07 203.078 Q3743.39 204.328 3744.9 206.933 M3728.57 217.115 Q3728.57 222.401 3730.73 225.422 Q3732.92 228.417 3736.72 228.417 Q3740.53 228.417 3742.71 225.422 Q3744.9 222.401 3744.9 217.115 Q3744.9 211.828 3742.71 208.834 Q3740.53 205.813 3736.72 205.813 Q3732.92 205.813 3730.73 208.834 Q3728.57 211.828 3728.57 217.115 Z" fill="#000000" fill-rule="nonzero" fill-opacity="1" /><path clip-path="url(#clip540)" d="M3759.56 202.505 L3764.35 202.505 L3764.35 231.672 L3759.56 231.672 L3759.56 202.505 M3759.56 191.151 L3764.35 191.151 L3764.35 197.219 L3759.56 197.219 L3759.56 191.151 Z" fill="#000000" fill-rule="nonzero" fill-opacity="1" /><path clip-path="url(#clip540)" d="M3795.37 203.625 L3795.37 208.104 Q3793.34 206.985 3791.28 206.438 Q3789.25 205.865 3787.17 205.865 Q3782.5 205.865 3779.93 208.834 Q3777.35 211.776 3777.35 217.115 Q3777.35 222.453 3779.93 225.422 Q3782.5 228.365 3787.17 228.365 Q3789.25 228.365 3791.28 227.818 Q3793.34 227.245 3795.37 226.125 L3795.37 230.552 Q3793.36 231.49 3791.2 231.958 Q3789.07 232.427 3786.64 232.427 Q3780.06 232.427 3776.18 228.287 Q3772.3 224.146 3772.3 217.115 Q3772.3 209.979 3776.2 205.891 Q3780.13 201.802 3786.96 201.802 Q3789.17 201.802 3791.28 202.271 Q3793.39 202.714 3795.37 203.625 Z" fill="#000000" fill-rule="nonzero" fill-opacity="1" /><path clip-path="url(#clip540)" d="M3808.44 194.224 L3808.44 202.505 L3818.31 202.505 L3818.31 206.229 L3808.44 206.229 L3808.44 222.063 Q3808.44 225.63 3809.4 226.646 Q3810.39 227.662 3813.39 227.662 L3818.31 227.662 L3818.31 231.672 L3813.39 231.672 Q3807.84 231.672 3805.73 229.615 Q3803.62 227.531 3803.62 222.063 L3803.62 206.229 L3800.11 206.229 L3800.11 202.505 L3803.62 202.505 L3803.62 194.224 L3808.44 194.224 Z" fill="#000000" fill-rule="nonzero" fill-opacity="1" /><path clip-path="url(#clip540)" d="M3846.77 240.526 L3846.77 244.25 L3819.07 244.25 L3819.07 240.526 L3846.77 240.526 Z" fill="#000000" fill-rule="nonzero" fill-opacity="1" /><path clip-path="url(#clip540)" d="M3856.49 227.245 L3874.85 227.245 L3874.85 231.672 L3850.16 231.672 L3850.16 227.245 Q3853.15 224.146 3858.31 218.938 Q3863.49 213.703 3864.82 212.193 Q3867.35 209.354 3868.34 207.401 Q3869.35 205.422 3869.35 203.521 Q3869.35 200.422 3867.17 198.469 Q3865 196.516 3861.51 196.516 Q3859.04 196.516 3856.28 197.375 Q3853.55 198.235 3850.42 199.979 L3850.42 194.667 Q3853.6 193.391 3856.36 192.74 Q3859.12 192.089 3861.41 192.089 Q3867.45 192.089 3871.05 195.11 Q3874.64 198.13 3874.64 203.183 Q3874.64 205.578 3873.73 207.74 Q3872.84 209.875 3870.47 212.792 Q3869.82 213.547 3866.33 217.167 Q3862.84 220.761 3856.49 227.245 Z" fill="#000000" fill-rule="nonzero" fill-opacity="1" /><path clip-path="url(#clip540)" d="M3897.79 210.136 Q3894.25 210.136 3892.16 212.557 Q3890.11 214.979 3890.11 219.198 Q3890.11 223.391 3892.16 225.839 Q3894.25 228.261 3897.79 228.261 Q3901.33 228.261 3903.39 225.839 Q3905.47 223.391 3905.47 219.198 Q3905.47 214.979 3903.39 212.557 Q3901.33 210.136 3897.79 210.136 M3908.23 193.651 L3908.23 198.443 Q3906.25 197.505 3904.22 197.011 Q3902.22 196.516 3900.24 196.516 Q3895.03 196.516 3892.27 200.031 Q3889.53 203.547 3889.14 210.656 Q3890.68 208.391 3893 207.193 Q3895.32 205.969 3898.1 205.969 Q3903.96 205.969 3907.35 209.537 Q3910.76 213.078 3910.76 219.198 Q3910.76 225.188 3907.22 228.807 Q3903.68 232.427 3897.79 232.427 Q3891.05 232.427 3887.48 227.271 Q3883.91 222.089 3883.91 212.271 Q3883.91 203.052 3888.28 197.584 Q3892.66 192.089 3900.03 192.089 Q3902.01 192.089 3904.01 192.479 Q3906.05 192.87 3908.23 193.651 Z" fill="#000000" fill-rule="nonzero" fill-opacity="1" /><polyline clip-path="url(#clip540)" style="stroke:#1ac938; stroke-linecap:round; stroke-linejoin:round; stroke-width:5.625; stroke-opacity:1; fill:none" points="3344.12,270.552 3596.11,270.552 "/>
<path clip-path="url(#clip540)" d="M3642.92 285.617 L3642.92 301.086 L3638.1 301.086 L3638.1 260.825 L3642.92 260.825 L3642.92 265.253 Q3644.43 262.648 3646.72 261.398 Q3649.04 260.122 3652.24 260.122 Q3657.56 260.122 3660.86 264.341 Q3664.2 268.56 3664.2 275.435 Q3664.2 282.31 3660.86 286.528 Q3657.56 290.747 3652.24 290.747 Q3649.04 290.747 3646.72 289.497 Q3644.43 288.221 3642.92 285.617 M3659.22 275.435 Q3659.22 270.148 3657.04 267.154 Q3654.87 264.133 3651.07 264.133 Q3647.27 264.133 3645.08 267.154 Q3642.92 270.148 3642.92 275.435 Q3642.92 280.721 3645.08 283.742 Q3647.27 286.737 3651.07 286.737 Q3654.87 286.737 3657.04 283.742 Q3659.22 280.721 3659.22 275.435 Z" fill="#000000" fill-rule="nonzero" fill-opacity="1" /><path clip-path="url(#clip540)" d="M3689.04 265.305 Q3688.23 264.836 3687.27 264.628 Q3686.33 264.393 3685.19 264.393 Q3681.12 264.393 3678.94 267.049 Q3676.78 269.68 3676.78 274.627 L3676.78 289.992 L3671.96 289.992 L3671.96 260.825 L3676.78 260.825 L3676.78 265.357 Q3678.29 262.7 3680.71 261.424 Q3683.13 260.122 3686.59 260.122 Q3687.09 260.122 3687.69 260.2 Q3688.29 260.253 3689.01 260.383 L3689.04 265.305 Z" fill="#000000" fill-rule="nonzero" fill-opacity="1" /><path clip-path="url(#clip540)" d="M3717.84 274.211 L3717.84 276.555 L3695.81 276.555 Q3696.12 281.502 3698.78 284.107 Q3701.46 286.685 3706.23 286.685 Q3708.99 286.685 3711.57 286.008 Q3714.17 285.331 3716.72 283.976 L3716.72 288.508 Q3714.15 289.601 3711.44 290.174 Q3708.73 290.747 3705.94 290.747 Q3698.96 290.747 3694.87 286.685 Q3690.81 282.622 3690.81 275.695 Q3690.81 268.534 3694.67 264.341 Q3698.55 260.122 3705.11 260.122 Q3710.99 260.122 3714.41 263.924 Q3717.84 267.7 3717.84 274.211 M3713.05 272.805 Q3713 268.872 3710.84 266.529 Q3708.7 264.185 3705.16 264.185 Q3701.15 264.185 3698.73 266.45 Q3696.33 268.716 3695.97 272.831 L3713.05 272.805 Z" fill="#000000" fill-rule="nonzero" fill-opacity="1" /><path clip-path="url(#clip540)" d="M3744.9 265.253 L3744.9 249.471 L3749.69 249.471 L3749.69 289.992 L3744.9 289.992 L3744.9 285.617 Q3743.39 288.221 3741.07 289.497 Q3738.78 290.747 3735.55 290.747 Q3730.26 290.747 3726.93 286.528 Q3723.62 282.31 3723.62 275.435 Q3723.62 268.56 3726.93 264.341 Q3730.26 260.122 3735.55 260.122 Q3738.78 260.122 3741.07 261.398 Q3743.39 262.648 3744.9 265.253 M3728.57 275.435 Q3728.57 280.721 3730.73 283.742 Q3732.92 286.737 3736.72 286.737 Q3740.53 286.737 3742.71 283.742 Q3744.9 280.721 3744.9 275.435 Q3744.9 270.148 3742.71 267.154 Q3740.53 264.133 3736.72 264.133 Q3732.92 264.133 3730.73 267.154 Q3728.57 270.148 3728.57 275.435 Z" fill="#000000" fill-rule="nonzero" fill-opacity="1" /><path clip-path="url(#clip540)" d="M3759.56 260.825 L3764.35 260.825 L3764.35 289.992 L3759.56 289.992 L3759.56 260.825 M3759.56 249.471 L3764.35 249.471 L3764.35 255.539 L3759.56 255.539 L3759.56 249.471 Z" fill="#000000" fill-rule="nonzero" fill-opacity="1" /><path clip-path="url(#clip540)" d="M3795.37 261.945 L3795.37 266.424 Q3793.34 265.305 3791.28 264.758 Q3789.25 264.185 3787.17 264.185 Q3782.5 264.185 3779.93 267.154 Q3777.35 270.096 3777.35 275.435 Q3777.35 280.773 3779.93 283.742 Q3782.5 286.685 3787.17 286.685 Q3789.25 286.685 3791.28 286.138 Q3793.34 285.565 3795.37 284.445 L3795.37 288.872 Q3793.36 289.81 3791.2 290.278 Q3789.07 290.747 3786.64 290.747 Q3780.06 290.747 3776.18 286.607 Q3772.3 282.466 3772.3 275.435 Q3772.3 268.299 3776.2 264.211 Q3780.13 260.122 3786.96 260.122 Q3789.17 260.122 3791.28 260.591 Q3793.39 261.034 3795.37 261.945 Z" fill="#000000" fill-rule="nonzero" fill-opacity="1" /><path clip-path="url(#clip540)" d="M3808.44 252.544 L3808.44 260.825 L3818.31 260.825 L3818.31 264.549 L3808.44 264.549 L3808.44 280.383 Q3808.44 283.95 3809.4 284.966 Q3810.39 285.982 3813.39 285.982 L3818.31 285.982 L3818.31 289.992 L3813.39 289.992 Q3807.84 289.992 3805.73 287.935 Q3803.62 285.851 3803.62 280.383 L3803.62 264.549 L3800.11 264.549 L3800.11 260.825 L3803.62 260.825 L3803.62 252.544 L3808.44 252.544 Z" fill="#000000" fill-rule="nonzero" fill-opacity="1" /><path clip-path="url(#clip540)" d="M3846.77 298.846 L3846.77 302.57 L3819.07 302.57 L3819.07 298.846 L3846.77 298.846 Z" fill="#000000" fill-rule="nonzero" fill-opacity="1" /><path clip-path="url(#clip540)" d="M3866.41 255.695 L3853.13 276.45 L3866.41 276.45 L3866.41 255.695 M3865.03 251.112 L3871.64 251.112 L3871.64 276.45 L3877.19 276.45 L3877.19 280.825 L3871.64 280.825 L3871.64 289.992 L3866.41 289.992 L3866.41 280.825 L3848.86 280.825 L3848.86 275.747 L3865.03 251.112 Z" fill="#000000" fill-rule="nonzero" fill-opacity="1" /><polyline clip-path="url(#clip540)" style="stroke:#e8000b; stroke-linecap:round; stroke-linejoin:round; stroke-width:5.625; stroke-opacity:1; fill:none" points="3344.12,328.872 3596.11,328.872 "/>
<path clip-path="url(#clip540)" d="M3642.92 343.937 L3642.92 359.406 L3638.1 359.406 L3638.1 319.145 L3642.92 319.145 L3642.92 323.573 Q3644.43 320.968 3646.72 319.718 Q3649.04 318.442 3652.24 318.442 Q3657.56 318.442 3660.86 322.661 Q3664.2 326.88 3664.2 333.755 Q3664.2 340.63 3660.86 344.848 Q3657.56 349.067 3652.24 349.067 Q3649.04 349.067 3646.72 347.817 Q3644.43 346.541 3642.92 343.937 M3659.22 333.755 Q3659.22 328.468 3657.04 325.474 Q3654.87 322.453 3651.07 322.453 Q3647.27 322.453 3645.08 325.474 Q3642.92 328.468 3642.92 333.755 Q3642.92 339.041 3645.08 342.062 Q3647.27 345.057 3651.07 345.057 Q3654.87 345.057 3657.04 342.062 Q3659.22 339.041 3659.22 333.755 Z" fill="#000000" fill-rule="nonzero" fill-opacity="1" /><path clip-path="url(#clip540)" d="M3689.04 323.625 Q3688.23 323.156 3687.27 322.948 Q3686.33 322.713 3685.19 322.713 Q3681.12 322.713 3678.94 325.369 Q3676.78 328 3676.78 332.947 L3676.78 348.312 L3671.96 348.312 L3671.96 319.145 L3676.78 319.145 L3676.78 323.677 Q3678.29 321.02 3680.71 319.744 Q3683.13 318.442 3686.59 318.442 Q3687.09 318.442 3687.69 318.52 Q3688.29 318.573 3689.01 318.703 L3689.04 323.625 Z" fill="#000000" fill-rule="nonzero" fill-opacity="1" /><path clip-path="url(#clip540)" d="M3717.84 332.531 L3717.84 334.875 L3695.81 334.875 Q3696.12 339.822 3698.78 342.427 Q3701.46 345.005 3706.23 345.005 Q3708.99 345.005 3711.57 344.328 Q3714.17 343.651 3716.72 342.296 L3716.72 346.828 Q3714.15 347.921 3711.44 348.494 Q3708.73 349.067 3705.94 349.067 Q3698.96 349.067 3694.87 345.005 Q3690.81 340.942 3690.81 334.015 Q3690.81 326.854 3694.67 322.661 Q3698.55 318.442 3705.11 318.442 Q3710.99 318.442 3714.41 322.244 Q3717.84 326.02 3717.84 332.531 M3713.05 331.125 Q3713 327.192 3710.84 324.849 Q3708.7 322.505 3705.16 322.505 Q3701.15 322.505 3698.73 324.77 Q3696.33 327.036 3695.97 331.151 L3713.05 331.125 Z" fill="#000000" fill-rule="nonzero" fill-opacity="1" /><path clip-path="url(#clip540)" d="M3744.9 323.573 L3744.9 307.791 L3749.69 307.791 L3749.69 348.312 L3744.9 348.312 L3744.9 343.937 Q3743.39 346.541 3741.07 347.817 Q3738.78 349.067 3735.55 349.067 Q3730.26 349.067 3726.93 344.848 Q3723.62 340.63 3723.62 333.755 Q3723.62 326.88 3726.93 322.661 Q3730.26 318.442 3735.55 318.442 Q3738.78 318.442 3741.07 319.718 Q3743.39 320.968 3744.9 323.573 M3728.57 333.755 Q3728.57 339.041 3730.73 342.062 Q3732.92 345.057 3736.72 345.057 Q3740.53 345.057 3742.71 342.062 Q3744.9 339.041 3744.9 333.755 Q3744.9 328.468 3742.71 325.474 Q3740.53 322.453 3736.72 322.453 Q3732.92 322.453 3730.73 325.474 Q3728.57 328.468 3728.57 333.755 Z" fill="#000000" fill-rule="nonzero" fill-opacity="1" /><path clip-path="url(#clip540)" d="M3759.56 319.145 L3764.35 319.145 L3764.35 348.312 L3759.56 348.312 L3759.56 319.145 M3759.56 307.791 L3764.35 307.791 L3764.35 313.859 L3759.56 313.859 L3759.56 307.791 Z" fill="#000000" fill-rule="nonzero" fill-opacity="1" /><path clip-path="url(#clip540)" d="M3795.37 320.265 L3795.37 324.744 Q3793.34 323.625 3791.28 323.078 Q3789.25 322.505 3787.17 322.505 Q3782.5 322.505 3779.93 325.474 Q3777.35 328.416 3777.35 333.755 Q3777.35 339.093 3779.93 342.062 Q3782.5 345.005 3787.17 345.005 Q3789.25 345.005 3791.28 344.458 Q3793.34 343.885 3795.37 342.765 L3795.37 347.192 Q3793.36 348.13 3791.2 348.598 Q3789.07 349.067 3786.64 349.067 Q3780.06 349.067 3776.18 344.927 Q3772.3 340.786 3772.3 333.755 Q3772.3 326.619 3776.2 322.531 Q3780.13 318.442 3786.96 318.442 Q3789.17 318.442 3791.28 318.911 Q3793.39 319.354 3795.37 320.265 Z" fill="#000000" fill-rule="nonzero" fill-opacity="1" /><path clip-path="url(#clip540)" d="M3808.44 310.864 L3808.44 319.145 L3818.31 319.145 L3818.31 322.869 L3808.44 322.869 L3808.44 338.703 Q3808.44 342.27 3809.4 343.286 Q3810.39 344.302 3813.39 344.302 L3818.31 344.302 L3818.31 348.312 L3813.39 348.312 Q3807.84 348.312 3805.73 346.255 Q3803.62 344.171 3803.62 338.703 L3803.62 322.869 L3800.11 322.869 L3800.11 319.145 L3803.62 319.145 L3803.62 310.864 L3808.44 310.864 Z" fill="#000000" fill-rule="nonzero" fill-opacity="1" /><path clip-path="url(#clip540)" d="M3846.77 357.166 L3846.77 360.89 L3819.07 360.89 L3819.07 357.166 L3846.77 357.166 Z" fill="#000000" fill-rule="nonzero" fill-opacity="1" /><path clip-path="url(#clip540)" d="M3852.87 343.885 L3861.46 343.885 L3861.46 314.224 L3852.11 316.099 L3852.11 311.307 L3861.41 309.432 L3866.67 309.432 L3866.67 343.885 L3875.26 343.885 L3875.26 348.312 L3852.87 348.312 L3852.87 343.885 Z" fill="#000000" fill-rule="nonzero" fill-opacity="1" /><polyline clip-path="url(#clip540)" style="stroke:#000000; stroke-linecap:round; stroke-linejoin:round; stroke-width:6.75; stroke-opacity:1; fill:none" points="3344.12,387.192 3596.11,387.192 "/>
<path clip-path="url(#clip540)" d="M3653.18 391.971 Q3647.37 391.971 3645.13 393.299 Q3642.9 394.627 3642.9 397.83 Q3642.9 400.382 3644.56 401.892 Q3646.25 403.377 3649.15 403.377 Q3653.13 403.377 3655.53 400.564 Q3657.95 397.726 3657.95 393.038 L3657.95 391.971 L3653.18 391.971 M3662.74 389.991 L3662.74 406.632 L3657.95 406.632 L3657.95 402.205 Q3656.31 404.861 3653.86 406.137 Q3651.41 407.387 3647.87 407.387 Q3643.39 407.387 3640.73 404.887 Q3638.1 402.361 3638.1 398.142 Q3638.1 393.221 3641.38 390.721 Q3644.69 388.221 3651.23 388.221 L3657.95 388.221 L3657.95 387.752 Q3657.95 384.445 3655.76 382.648 Q3653.6 380.825 3649.67 380.825 Q3647.17 380.825 3644.8 381.424 Q3642.43 382.023 3640.24 383.221 L3640.24 378.794 Q3642.87 377.778 3645.34 377.283 Q3647.82 376.762 3650.16 376.762 Q3656.49 376.762 3659.61 380.044 Q3662.74 383.325 3662.74 389.991 Z" fill="#000000" fill-rule="nonzero" fill-opacity="1" /><path clip-path="url(#clip540)" d="M3693.6 378.585 L3693.6 383.064 Q3691.57 381.945 3689.51 381.398 Q3687.48 380.825 3685.4 380.825 Q3680.73 380.825 3678.16 383.794 Q3675.58 386.736 3675.58 392.075 Q3675.58 397.413 3678.16 400.382 Q3680.73 403.325 3685.4 403.325 Q3687.48 403.325 3689.51 402.778 Q3691.57 402.205 3693.6 401.085 L3693.6 405.512 Q3691.59 406.45 3689.43 406.918 Q3687.3 407.387 3684.87 407.387 Q3678.29 407.387 3674.41 403.247 Q3670.53 399.106 3670.53 392.075 Q3670.53 384.939 3674.43 380.851 Q3678.36 376.762 3685.19 376.762 Q3687.4 376.762 3689.51 377.231 Q3691.62 377.674 3693.6 378.585 Z" fill="#000000" fill-rule="nonzero" fill-opacity="1" /><path clip-path="url(#clip540)" d="M3706.67 369.184 L3706.67 377.465 L3716.54 377.465 L3716.54 381.189 L3706.67 381.189 L3706.67 397.023 Q3706.67 400.59 3707.63 401.606 Q3708.62 402.622 3711.62 402.622 L3716.54 402.622 L3716.54 406.632 L3711.62 406.632 Q3706.07 406.632 3703.96 404.575 Q3701.85 402.491 3701.85 397.023 L3701.85 381.189 L3698.34 381.189 L3698.34 377.465 L3701.85 377.465 L3701.85 369.184 L3706.67 369.184 Z" fill="#000000" fill-rule="nonzero" fill-opacity="1" /><path clip-path="url(#clip540)" d="M3722.35 395.122 L3722.35 377.465 L3727.14 377.465 L3727.14 394.939 Q3727.14 399.08 3728.75 401.163 Q3730.37 403.221 3733.6 403.221 Q3737.48 403.221 3739.72 400.747 Q3741.98 398.273 3741.98 394.002 L3741.98 377.465 L3746.78 377.465 L3746.78 406.632 L3741.98 406.632 L3741.98 402.153 Q3740.24 404.809 3737.92 406.111 Q3735.63 407.387 3732.58 407.387 Q3727.56 407.387 3724.95 404.262 Q3722.35 401.137 3722.35 395.122 M3734.41 376.762 L3734.41 376.762 Z" fill="#000000" fill-rule="nonzero" fill-opacity="1" /><path clip-path="url(#clip540)" d="M3769.9 391.971 Q3764.09 391.971 3761.85 393.299 Q3759.61 394.627 3759.61 397.83 Q3759.61 400.382 3761.28 401.892 Q3762.97 403.377 3765.86 403.377 Q3769.85 403.377 3772.24 400.564 Q3774.67 397.726 3774.67 393.038 L3774.67 391.971 L3769.9 391.971 M3779.46 389.991 L3779.46 406.632 L3774.67 406.632 L3774.67 402.205 Q3773.02 404.861 3770.58 406.137 Q3768.13 407.387 3764.59 407.387 Q3760.11 407.387 3757.45 404.887 Q3754.82 402.361 3754.82 398.142 Q3754.82 393.221 3758.1 390.721 Q3761.41 388.221 3767.95 388.221 L3774.67 388.221 L3774.67 387.752 Q3774.67 384.445 3772.48 382.648 Q3770.32 380.825 3766.38 380.825 Q3763.88 380.825 3761.51 381.424 Q3759.14 382.023 3756.96 383.221 L3756.96 378.794 Q3759.59 377.778 3762.06 377.283 Q3764.54 376.762 3766.88 376.762 Q3773.21 376.762 3776.33 380.044 Q3779.46 383.325 3779.46 389.991 Z" fill="#000000" fill-rule="nonzero" fill-opacity="1" /><path clip-path="url(#clip540)" d="M3789.33 366.111 L3794.12 366.111 L3794.12 406.632 L3789.33 406.632 L3789.33 366.111 Z" fill="#000000" fill-rule="nonzero" fill-opacity="1" /></svg>
