<?xml version="1.0" encoding="utf-8"?>
<svg xmlns="http://www.w3.org/2000/svg" xmlns:xlink="http://www.w3.org/1999/xlink" width="1000" height="400" viewBox="0 0 4000 1600">
<defs>
  <clipPath id="clip960">
    <rect x="0" y="0" width="4000" height="1600"/>
  </clipPath>
</defs>
<path clip-path="url(#clip960)" d="M0 1600 L4000 1600 L4000 0 L0 0  Z" fill="#ffffff" fill-rule="evenodd" fill-opacity="1"/>
<defs>
  <clipPath id="clip961">
    <rect x="800" y="0" width="2801" height="1600"/>
  </clipPath>
</defs>
<path clip-path="url(#clip960)" d="M205.077 1497.68 L3180.41 1497.68 L3180.41 47.2441 L205.077 47.2441  Z" fill="#ffffff" fill-rule="evenodd" fill-opacity="1"/>
<defs>
  <clipPath id="clip962">
    <rect x="205" y="47" width="2976" height="1451"/>
  </clipPath>
</defs>
<polyline clip-path="url(#clip962)" style="stroke:#000000; stroke-linecap:round; stroke-linejoin:round; stroke-width:2; stroke-opacity:0.1; fill:none" points="289.284,1497.68 289.284,47.2441 "/>
<polyline clip-path="url(#clip962)" style="stroke:#000000; stroke-linecap:round; stroke-linejoin:round; stroke-width:2; stroke-opacity:0.1; fill:none" points="1096.06,1497.68 1096.06,47.2441 "/>
<polyline clip-path="url(#clip962)" style="stroke:#000000; stroke-linecap:round; stroke-linejoin:round; stroke-width:2; stroke-opacity:0.1; fill:none" points="1902.84,1497.68 1902.84,47.2441 "/>
<polyline clip-path="url(#clip962)" style="stroke:#000000; stroke-linecap:round; stroke-linejoin:round; stroke-width:2; stroke-opacity:0.1; fill:none" points="2709.62,1497.68 2709.62,47.2441 "/>
<polyline clip-path="url(#clip960)" style="stroke:#000000; stroke-linecap:round; stroke-linejoin:round; stroke-width:4; stroke-opacity:1; fill:none" points="205.077,1497.68 3180.41,1497.68 "/>
<polyline clip-path="url(#clip960)" style="stroke:#000000; stroke-linecap:round; stroke-linejoin:round; stroke-width:4; stroke-opacity:1; fill:none" points="289.284,1497.68 289.284,1478.78 "/>
<polyline clip-path="url(#clip960)" style="stroke:#000000; stroke-linecap:round; stroke-linejoin:round; stroke-width:4; stroke-opacity:1; fill:none" points="1096.06,1497.68 1096.06,1478.78 "/>
<polyline clip-path="url(#clip960)" style="stroke:#000000; stroke-linecap:round; stroke-linejoin:round; stroke-width:4; stroke-opacity:1; fill:none" points="1902.84,1497.68 1902.84,1478.78 "/>
<polyline clip-path="url(#clip960)" style="stroke:#000000; stroke-linecap:round; stroke-linejoin:round; stroke-width:4; stroke-opacity:1; fill:none" points="2709.62,1497.68 2709.62,1478.78 "/>
<path clip-path="url(#clip960)" d="M144.467 1573.85 L162.826 1573.85 L162.826 1578.28 L138.139 1578.28 L138.139 1573.85 Q141.134 1570.75 146.29 1565.55 Q151.472 1560.31 152.8 1558.8 Q155.326 1555.96 156.316 1554.01 Q157.332 1552.03 157.332 1550.13 Q157.332 1547.03 155.144 1545.08 Q152.983 1543.12 149.493 1543.12 Q147.019 1543.12 144.259 1543.98 Q141.524 1544.84 138.399 1546.59 L138.399 1541.27 Q141.577 1540 144.337 1539.35 Q147.097 1538.7 149.389 1538.7 Q155.431 1538.7 159.024 1541.72 Q162.618 1544.74 162.618 1549.79 Q162.618 1552.19 161.707 1554.35 Q160.821 1556.48 158.451 1559.4 Q157.8 1560.15 154.311 1563.77 Q150.821 1567.37 144.467 1573.85 Z" fill="#000000" fill-rule="nonzero" fill-opacity="1" /><path clip-path="url(#clip960)" d="M185.118 1542.86 Q181.055 1542.86 178.998 1546.87 Q176.967 1550.86 176.967 1558.88 Q176.967 1566.87 178.998 1570.88 Q181.055 1574.87 185.118 1574.87 Q189.206 1574.87 191.238 1570.88 Q193.295 1566.87 193.295 1558.88 Q193.295 1550.86 191.238 1546.87 Q189.206 1542.86 185.118 1542.86 M185.118 1538.7 Q191.654 1538.7 195.092 1543.88 Q198.555 1549.04 198.555 1558.88 Q198.555 1568.7 195.092 1573.88 Q191.654 1579.04 185.118 1579.04 Q178.582 1579.04 175.118 1573.88 Q171.681 1568.7 171.681 1558.88 Q171.681 1549.04 175.118 1543.88 Q178.582 1538.7 185.118 1538.7 Z" fill="#000000" fill-rule="nonzero" fill-opacity="1" /><path clip-path="url(#clip960)" d="M212.331 1573.85 L230.691 1573.85 L230.691 1578.28 L206.003 1578.28 L206.003 1573.85 Q208.998 1570.75 214.154 1565.55 Q219.337 1560.31 220.665 1558.8 Q223.191 1555.96 224.18 1554.01 Q225.196 1552.03 225.196 1550.13 Q225.196 1547.03 223.008 1545.08 Q220.847 1543.12 217.357 1543.12 Q214.883 1543.12 212.123 1543.98 Q209.389 1544.84 206.264 1546.59 L206.264 1541.27 Q209.441 1540 212.201 1539.35 Q214.962 1538.7 217.253 1538.7 Q223.295 1538.7 226.889 1541.72 Q230.482 1544.74 230.482 1549.79 Q230.482 1552.19 229.571 1554.35 Q228.685 1556.48 226.316 1559.4 Q225.665 1560.15 222.175 1563.77 Q218.685 1567.37 212.331 1573.85 Z" fill="#000000" fill-rule="nonzero" fill-opacity="1" /><path clip-path="url(#clip960)" d="M257.67 1557.32 Q261.446 1558.12 263.555 1560.68 Q265.69 1563.23 265.69 1566.98 Q265.69 1572.73 261.732 1575.88 Q257.774 1579.04 250.482 1579.04 Q248.034 1579.04 245.43 1578.54 Q242.852 1578.07 240.092 1577.11 L240.092 1572.03 Q242.279 1573.31 244.883 1573.96 Q247.487 1574.61 250.326 1574.61 Q255.274 1574.61 257.852 1572.65 Q260.456 1570.7 260.456 1566.98 Q260.456 1563.54 258.034 1561.61 Q255.638 1559.66 251.342 1559.66 L246.81 1559.66 L246.81 1555.34 L251.55 1555.34 Q255.43 1555.34 257.487 1553.8 Q259.545 1552.24 259.545 1549.32 Q259.545 1546.33 257.409 1544.74 Q255.3 1543.12 251.342 1543.12 Q249.18 1543.12 246.706 1543.59 Q244.232 1544.06 241.263 1545.05 L241.263 1540.36 Q244.258 1539.53 246.862 1539.11 Q249.493 1538.7 251.81 1538.7 Q257.8 1538.7 261.289 1541.43 Q264.779 1544.14 264.779 1548.77 Q264.779 1552 262.93 1554.24 Q261.081 1556.46 257.67 1557.32 Z" fill="#000000" fill-rule="nonzero" fill-opacity="1" /><path clip-path="url(#clip960)" d="M272.565 1561.54 L286.602 1561.54 L286.602 1565.81 L272.565 1565.81 L272.565 1561.54 Z" fill="#000000" fill-rule="nonzero" fill-opacity="1" /><path clip-path="url(#clip960)" d="M306.159 1542.86 Q302.096 1542.86 300.039 1546.87 Q298.008 1550.86 298.008 1558.88 Q298.008 1566.87 300.039 1570.88 Q302.096 1574.87 306.159 1574.87 Q310.247 1574.87 312.279 1570.88 Q314.336 1566.87 314.336 1558.88 Q314.336 1550.86 312.279 1546.87 Q310.247 1542.86 306.159 1542.86 M306.159 1538.7 Q312.695 1538.7 316.133 1543.88 Q319.596 1549.04 319.596 1558.88 Q319.596 1568.7 316.133 1573.88 Q312.695 1579.04 306.159 1579.04 Q299.623 1579.04 296.159 1573.88 Q292.722 1568.7 292.722 1558.88 Q292.722 1549.04 296.159 1543.88 Q299.623 1538.7 306.159 1538.7 Z" fill="#000000" fill-rule="nonzero" fill-opacity="1" /><path clip-path="url(#clip960)" d="M329.753 1573.85 L338.346 1573.85 L338.346 1544.19 L328.997 1546.07 L328.997 1541.27 L338.294 1539.4 L343.555 1539.4 L343.555 1573.85 L352.148 1573.85 L352.148 1578.28 L329.753 1578.28 L329.753 1573.85 Z" fill="#000000" fill-rule="nonzero" fill-opacity="1" /><path clip-path="url(#clip960)" d="M359.674 1561.54 L373.711 1561.54 L373.711 1565.81 L359.674 1565.81 L359.674 1561.54 Z" fill="#000000" fill-rule="nonzero" fill-opacity="1" /><path clip-path="url(#clip960)" d="M393.268 1542.86 Q389.205 1542.86 387.148 1546.87 Q385.117 1550.86 385.117 1558.88 Q385.117 1566.87 387.148 1570.88 Q389.205 1574.87 393.268 1574.87 Q397.356 1574.87 399.388 1570.88 Q401.445 1566.87 401.445 1558.88 Q401.445 1550.86 399.388 1546.87 Q397.356 1542.86 393.268 1542.86 M393.268 1538.7 Q399.804 1538.7 403.242 1543.88 Q406.705 1549.04 406.705 1558.88 Q406.705 1568.7 403.242 1573.88 Q399.804 1579.04 393.268 1579.04 Q386.731 1579.04 383.268 1573.88 Q379.83 1568.7 379.83 1558.88 Q379.83 1549.04 383.268 1543.88 Q386.731 1538.7 393.268 1538.7 Z" fill="#000000" fill-rule="nonzero" fill-opacity="1" /><path clip-path="url(#clip960)" d="M416.106 1577.47 L416.106 1572.68 Q418.085 1573.62 420.117 1574.11 Q422.148 1574.61 424.101 1574.61 Q429.309 1574.61 432.044 1571.12 Q434.804 1567.6 435.195 1560.47 Q433.684 1562.71 431.367 1563.9 Q429.049 1565.1 426.236 1565.1 Q420.403 1565.1 416.992 1561.59 Q413.606 1558.05 413.606 1551.93 Q413.606 1545.94 417.148 1542.32 Q420.69 1538.7 426.575 1538.7 Q433.32 1538.7 436.861 1543.88 Q440.429 1549.04 440.429 1558.88 Q440.429 1568.07 436.054 1573.57 Q431.705 1579.04 424.335 1579.04 Q422.356 1579.04 420.325 1578.64 Q418.294 1578.25 416.106 1577.47 M426.575 1560.99 Q430.117 1560.99 432.174 1558.57 Q434.257 1556.14 434.257 1551.93 Q434.257 1547.73 432.174 1545.31 Q430.117 1542.86 426.575 1542.86 Q423.033 1542.86 420.95 1545.31 Q418.893 1547.73 418.893 1551.93 Q418.893 1556.14 420.95 1558.57 Q423.033 1560.99 426.575 1560.99 Z" fill="#000000" fill-rule="nonzero" fill-opacity="1" /><path clip-path="url(#clip960)" d="M951.832 1573.85 L970.191 1573.85 L970.191 1578.28 L945.504 1578.28 L945.504 1573.85 Q948.499 1570.75 953.655 1565.55 Q958.837 1560.31 960.165 1558.8 Q962.691 1555.96 963.681 1554.01 Q964.697 1552.03 964.697 1550.13 Q964.697 1547.03 962.509 1545.08 Q960.348 1543.12 956.858 1543.12 Q954.384 1543.12 951.624 1543.98 Q948.889 1544.84 945.764 1546.59 L945.764 1541.27 Q948.942 1540 951.702 1539.35 Q954.462 1538.7 956.754 1538.7 Q962.796 1538.7 966.389 1541.72 Q969.983 1544.74 969.983 1549.79 Q969.983 1552.19 969.072 1554.35 Q968.186 1556.48 965.816 1559.4 Q965.165 1560.15 961.676 1563.77 Q958.186 1567.37 951.832 1573.85 Z" fill="#000000" fill-rule="nonzero" fill-opacity="1" /><path clip-path="url(#clip960)" d="M992.483 1542.86 Q988.42 1542.86 986.363 1546.87 Q984.332 1550.86 984.332 1558.88 Q984.332 1566.87 986.363 1570.88 Q988.42 1574.87 992.483 1574.87 Q996.571 1574.87 998.603 1570.88 Q1000.66 1566.87 1000.66 1558.88 Q1000.66 1550.86 998.603 1546.87 Q996.571 1542.86 992.483 1542.86 M992.483 1538.7 Q999.019 1538.7 1002.46 1543.88 Q1005.92 1549.04 1005.92 1558.88 Q1005.92 1568.7 1002.46 1573.88 Q999.019 1579.04 992.483 1579.04 Q985.947 1579.04 982.483 1573.88 Q979.046 1568.7 979.046 1558.88 Q979.046 1549.04 982.483 1543.88 Q985.947 1538.7 992.483 1538.7 Z" fill="#000000" fill-rule="nonzero" fill-opacity="1" /><path clip-path="url(#clip960)" d="M1019.7 1573.85 L1038.06 1573.85 L1038.06 1578.28 L1013.37 1578.28 L1013.37 1573.85 Q1016.36 1570.75 1021.52 1565.55 Q1026.7 1560.31 1028.03 1558.8 Q1030.56 1555.96 1031.55 1554.01 Q1032.56 1552.03 1032.56 1550.13 Q1032.56 1547.03 1030.37 1545.08 Q1028.21 1543.12 1024.72 1543.12 Q1022.25 1543.12 1019.49 1543.98 Q1016.75 1544.84 1013.63 1546.59 L1013.63 1541.27 Q1016.81 1540 1019.57 1539.35 Q1022.33 1538.7 1024.62 1538.7 Q1030.66 1538.7 1034.25 1541.72 Q1037.85 1544.74 1037.85 1549.79 Q1037.85 1552.19 1036.94 1554.35 Q1036.05 1556.48 1033.68 1559.4 Q1033.03 1560.15 1029.54 1563.77 Q1026.05 1567.37 1019.7 1573.85 Z" fill="#000000" fill-rule="nonzero" fill-opacity="1" /><path clip-path="url(#clip960)" d="M1065.03 1557.32 Q1068.81 1558.12 1070.92 1560.68 Q1073.06 1563.23 1073.06 1566.98 Q1073.06 1572.73 1069.1 1575.88 Q1065.14 1579.04 1057.85 1579.04 Q1055.4 1579.04 1052.8 1578.54 Q1050.22 1578.07 1047.46 1577.11 L1047.46 1572.03 Q1049.64 1573.31 1052.25 1573.96 Q1054.85 1574.61 1057.69 1574.61 Q1062.64 1574.61 1065.22 1572.65 Q1067.82 1570.7 1067.82 1566.98 Q1067.82 1563.54 1065.4 1561.61 Q1063 1559.66 1058.71 1559.66 L1054.18 1559.66 L1054.18 1555.34 L1058.91 1555.34 Q1062.8 1555.34 1064.85 1553.8 Q1066.91 1552.24 1066.91 1549.32 Q1066.91 1546.33 1064.77 1544.74 Q1062.66 1543.12 1058.71 1543.12 Q1056.55 1543.12 1054.07 1543.59 Q1051.6 1544.06 1048.63 1545.05 L1048.63 1540.36 Q1051.62 1539.53 1054.23 1539.11 Q1056.86 1538.7 1059.18 1538.7 Q1065.16 1538.7 1068.65 1541.43 Q1072.14 1544.14 1072.14 1548.77 Q1072.14 1552 1070.3 1554.24 Q1068.45 1556.46 1065.03 1557.32 Z" fill="#000000" fill-rule="nonzero" fill-opacity="1" /><path clip-path="url(#clip960)" d="M1079.93 1561.54 L1093.97 1561.54 L1093.97 1565.81 L1079.93 1565.81 L1079.93 1561.54 Z" fill="#000000" fill-rule="nonzero" fill-opacity="1" /><path clip-path="url(#clip960)" d="M1113.52 1542.86 Q1109.46 1542.86 1107.4 1546.87 Q1105.37 1550.86 1105.37 1558.88 Q1105.37 1566.87 1107.4 1570.88 Q1109.46 1574.87 1113.52 1574.87 Q1117.61 1574.87 1119.64 1570.88 Q1121.7 1566.87 1121.7 1558.88 Q1121.7 1550.86 1119.64 1546.87 Q1117.61 1542.86 1113.52 1542.86 M1113.52 1538.7 Q1120.06 1538.7 1123.5 1543.88 Q1126.96 1549.04 1126.96 1558.88 Q1126.96 1568.7 1123.5 1573.88 Q1120.06 1579.04 1113.52 1579.04 Q1106.99 1579.04 1103.52 1573.88 Q1100.09 1568.7 1100.09 1558.88 Q1100.09 1549.04 1103.52 1543.88 Q1106.99 1538.7 1113.52 1538.7 Z" fill="#000000" fill-rule="nonzero" fill-opacity="1" /><path clip-path="url(#clip960)" d="M1137.12 1573.85 L1145.71 1573.85 L1145.71 1544.19 L1136.36 1546.07 L1136.36 1541.27 L1145.66 1539.4 L1150.92 1539.4 L1150.92 1573.85 L1159.51 1573.85 L1159.51 1578.28 L1137.12 1578.28 L1137.12 1573.85 Z" fill="#000000" fill-rule="nonzero" fill-opacity="1" /><path clip-path="url(#clip960)" d="M1167.04 1561.54 L1181.08 1561.54 L1181.08 1565.81 L1167.04 1565.81 L1167.04 1561.54 Z" fill="#000000" fill-rule="nonzero" fill-opacity="1" /><path clip-path="url(#clip960)" d="M1190.29 1573.85 L1198.89 1573.85 L1198.89 1544.19 L1189.54 1546.07 L1189.54 1541.27 L1198.84 1539.4 L1204.1 1539.4 L1204.1 1573.85 L1212.69 1573.85 L1212.69 1578.28 L1190.29 1578.28 L1190.29 1573.85 Z" fill="#000000" fill-rule="nonzero" fill-opacity="1" /><path clip-path="url(#clip960)" d="M1224.23 1573.85 L1232.82 1573.85 L1232.82 1544.19 L1223.47 1546.07 L1223.47 1541.27 L1232.77 1539.4 L1238.03 1539.4 L1238.03 1573.85 L1246.62 1573.85 L1246.62 1578.28 L1224.23 1578.28 L1224.23 1573.85 Z" fill="#000000" fill-rule="nonzero" fill-opacity="1" /><path clip-path="url(#clip960)" d="M1758.29 1573.85 L1776.64 1573.85 L1776.64 1578.28 L1751.96 1578.28 L1751.96 1573.85 Q1754.95 1570.75 1760.11 1565.55 Q1765.29 1560.31 1766.62 1558.8 Q1769.15 1555.96 1770.13 1554.01 Q1771.15 1552.03 1771.15 1550.13 Q1771.15 1547.03 1768.96 1545.08 Q1766.8 1543.12 1763.31 1543.12 Q1760.84 1543.12 1758.08 1543.98 Q1755.34 1544.84 1752.22 1546.59 L1752.22 1541.27 Q1755.4 1540 1758.16 1539.35 Q1760.92 1538.7 1763.21 1538.7 Q1769.25 1538.7 1772.84 1541.72 Q1776.44 1544.74 1776.44 1549.79 Q1776.44 1552.19 1775.53 1554.35 Q1774.64 1556.48 1772.27 1559.4 Q1771.62 1560.15 1768.13 1563.77 Q1764.64 1567.37 1758.29 1573.85 Z" fill="#000000" fill-rule="nonzero" fill-opacity="1" /><path clip-path="url(#clip960)" d="M1798.94 1542.86 Q1794.87 1542.86 1792.82 1546.87 Q1790.79 1550.86 1790.79 1558.88 Q1790.79 1566.87 1792.82 1570.88 Q1794.87 1574.87 1798.94 1574.87 Q1803.03 1574.87 1805.06 1570.88 Q1807.11 1566.87 1807.11 1558.88 Q1807.11 1550.86 1805.06 1546.87 Q1803.03 1542.86 1798.94 1542.86 M1798.94 1538.7 Q1805.47 1538.7 1808.91 1543.88 Q1812.37 1549.04 1812.37 1558.88 Q1812.37 1568.7 1808.91 1573.88 Q1805.47 1579.04 1798.94 1579.04 Q1792.4 1579.04 1788.94 1573.88 Q1785.5 1568.7 1785.5 1558.88 Q1785.5 1549.04 1788.94 1543.88 Q1792.4 1538.7 1798.94 1538.7 Z" fill="#000000" fill-rule="nonzero" fill-opacity="1" /><path clip-path="url(#clip960)" d="M1826.15 1573.85 L1844.51 1573.85 L1844.51 1578.28 L1819.82 1578.28 L1819.82 1573.85 Q1822.82 1570.75 1827.97 1565.55 Q1833.16 1560.31 1834.48 1558.8 Q1837.01 1555.96 1838 1554.01 Q1839.01 1552.03 1839.01 1550.13 Q1839.01 1547.03 1836.83 1545.08 Q1834.67 1543.12 1831.18 1543.12 Q1828.7 1543.12 1825.94 1543.98 Q1823.21 1544.84 1820.08 1546.59 L1820.08 1541.27 Q1823.26 1540 1826.02 1539.35 Q1828.78 1538.7 1831.07 1538.7 Q1837.11 1538.7 1840.71 1541.72 Q1844.3 1544.74 1844.3 1549.79 Q1844.3 1552.19 1843.39 1554.35 Q1842.5 1556.48 1840.13 1559.4 Q1839.48 1560.15 1835.99 1563.77 Q1832.5 1567.37 1826.15 1573.85 Z" fill="#000000" fill-rule="nonzero" fill-opacity="1" /><path clip-path="url(#clip960)" d="M1871.49 1557.32 Q1875.26 1558.12 1877.37 1560.68 Q1879.51 1563.23 1879.51 1566.98 Q1879.51 1572.73 1875.55 1575.88 Q1871.59 1579.04 1864.3 1579.04 Q1861.85 1579.04 1859.25 1578.54 Q1856.67 1578.07 1853.91 1577.11 L1853.91 1572.03 Q1856.1 1573.31 1858.7 1573.96 Q1861.31 1574.61 1864.14 1574.61 Q1869.09 1574.61 1871.67 1572.65 Q1874.27 1570.7 1874.27 1566.98 Q1874.27 1563.54 1871.85 1561.61 Q1869.46 1559.66 1865.16 1559.66 L1860.63 1559.66 L1860.63 1555.34 L1865.37 1555.34 Q1869.25 1555.34 1871.31 1553.8 Q1873.36 1552.24 1873.36 1549.32 Q1873.36 1546.33 1871.23 1544.74 Q1869.12 1543.12 1865.16 1543.12 Q1863 1543.12 1860.52 1543.59 Q1858.05 1544.06 1855.08 1545.05 L1855.08 1540.36 Q1858.08 1539.53 1860.68 1539.11 Q1863.31 1538.7 1865.63 1538.7 Q1871.62 1538.7 1875.11 1541.43 Q1878.6 1544.14 1878.6 1548.77 Q1878.6 1552 1876.75 1554.24 Q1874.9 1556.46 1871.49 1557.32 Z" fill="#000000" fill-rule="nonzero" fill-opacity="1" /><path clip-path="url(#clip960)" d="M1886.38 1561.54 L1900.42 1561.54 L1900.42 1565.81 L1886.38 1565.81 L1886.38 1561.54 Z" fill="#000000" fill-rule="nonzero" fill-opacity="1" /><path clip-path="url(#clip960)" d="M1919.98 1542.86 Q1915.92 1542.86 1913.86 1546.87 Q1911.83 1550.86 1911.83 1558.88 Q1911.83 1566.87 1913.86 1570.88 Q1915.92 1574.87 1919.98 1574.87 Q1924.07 1574.87 1926.1 1570.88 Q1928.15 1566.87 1928.15 1558.88 Q1928.15 1550.86 1926.1 1546.87 Q1924.07 1542.86 1919.98 1542.86 M1919.98 1538.7 Q1926.51 1538.7 1929.95 1543.88 Q1933.41 1549.04 1933.41 1558.88 Q1933.41 1568.7 1929.95 1573.88 Q1926.51 1579.04 1919.98 1579.04 Q1913.44 1579.04 1909.98 1573.88 Q1906.54 1568.7 1906.54 1558.88 Q1906.54 1549.04 1909.98 1543.88 Q1913.44 1538.7 1919.98 1538.7 Z" fill="#000000" fill-rule="nonzero" fill-opacity="1" /><path clip-path="url(#clip960)" d="M1943.57 1573.85 L1952.16 1573.85 L1952.16 1544.19 L1942.82 1546.07 L1942.82 1541.27 L1952.11 1539.4 L1957.37 1539.4 L1957.37 1573.85 L1965.97 1573.85 L1965.97 1578.28 L1943.57 1578.28 L1943.57 1573.85 Z" fill="#000000" fill-rule="nonzero" fill-opacity="1" /><path clip-path="url(#clip960)" d="M1973.49 1561.54 L1987.53 1561.54 L1987.53 1565.81 L1973.49 1565.81 L1973.49 1561.54 Z" fill="#000000" fill-rule="nonzero" fill-opacity="1" /><path clip-path="url(#clip960)" d="M1996.75 1573.85 L2005.34 1573.85 L2005.34 1544.19 L1995.99 1546.07 L1995.99 1541.27 L2005.29 1539.4 L2010.55 1539.4 L2010.55 1573.85 L2019.14 1573.85 L2019.14 1578.28 L1996.75 1578.28 L1996.75 1573.85 Z" fill="#000000" fill-rule="nonzero" fill-opacity="1" /><path clip-path="url(#clip960)" d="M2045.71 1557.32 Q2049.48 1558.12 2051.59 1560.68 Q2053.73 1563.23 2053.73 1566.98 Q2053.73 1572.73 2049.77 1575.88 Q2045.81 1579.04 2038.52 1579.04 Q2036.07 1579.04 2033.47 1578.54 Q2030.89 1578.07 2028.13 1577.11 L2028.13 1572.03 Q2030.32 1573.31 2032.92 1573.96 Q2035.52 1574.61 2038.36 1574.61 Q2043.31 1574.61 2045.89 1572.65 Q2048.49 1570.7 2048.49 1566.98 Q2048.49 1563.54 2046.07 1561.61 Q2043.67 1559.66 2039.38 1559.66 L2034.85 1559.66 L2034.85 1555.34 L2039.59 1555.34 Q2043.47 1555.34 2045.52 1553.8 Q2047.58 1552.24 2047.58 1549.32 Q2047.58 1546.33 2045.45 1544.74 Q2043.34 1543.12 2039.38 1543.12 Q2037.22 1543.12 2034.74 1543.59 Q2032.27 1544.06 2029.3 1545.05 L2029.3 1540.36 Q2032.29 1539.53 2034.9 1539.11 Q2037.53 1538.7 2039.85 1538.7 Q2045.84 1538.7 2049.33 1541.43 Q2052.82 1544.14 2052.82 1548.77 Q2052.82 1552 2050.97 1554.24 Q2049.12 1556.46 2045.71 1557.32 Z" fill="#000000" fill-rule="nonzero" fill-opacity="1" /><path clip-path="url(#clip960)" d="M2565.26 1573.85 L2583.62 1573.85 L2583.62 1578.28 L2558.93 1578.28 L2558.93 1573.85 Q2561.93 1570.75 2567.08 1565.55 Q2572.27 1560.31 2573.59 1558.8 Q2576.12 1555.96 2577.11 1554.01 Q2578.12 1552.03 2578.12 1550.13 Q2578.12 1547.03 2575.94 1545.08 Q2573.78 1543.12 2570.29 1543.12 Q2567.81 1543.12 2565.05 1543.98 Q2562.32 1544.84 2559.19 1546.59 L2559.19 1541.27 Q2562.37 1540 2565.13 1539.35 Q2567.89 1538.7 2570.18 1538.7 Q2576.22 1538.7 2579.82 1541.72 Q2583.41 1544.74 2583.41 1549.79 Q2583.41 1552.19 2582.5 1554.35 Q2581.61 1556.48 2579.24 1559.4 Q2578.59 1560.15 2575.1 1563.77 Q2571.61 1567.37 2565.26 1573.85 Z" fill="#000000" fill-rule="nonzero" fill-opacity="1" /><path clip-path="url(#clip960)" d="M2605.91 1542.86 Q2601.85 1542.86 2599.79 1546.87 Q2597.76 1550.86 2597.76 1558.88 Q2597.76 1566.87 2599.79 1570.88 Q2601.85 1574.87 2605.91 1574.87 Q2610 1574.87 2612.03 1570.88 Q2614.09 1566.87 2614.09 1558.88 Q2614.09 1550.86 2612.03 1546.87 Q2610 1542.86 2605.91 1542.86 M2605.91 1538.7 Q2612.45 1538.7 2615.88 1543.88 Q2619.35 1549.04 2619.35 1558.88 Q2619.35 1568.7 2615.88 1573.88 Q2612.45 1579.04 2605.91 1579.04 Q2599.37 1579.04 2595.91 1573.88 Q2592.47 1568.7 2592.47 1558.88 Q2592.47 1549.04 2595.91 1543.88 Q2599.37 1538.7 2605.91 1538.7 Z" fill="#000000" fill-rule="nonzero" fill-opacity="1" /><path clip-path="url(#clip960)" d="M2633.12 1573.85 L2651.48 1573.85 L2651.48 1578.28 L2626.8 1578.28 L2626.8 1573.85 Q2629.79 1570.75 2634.95 1565.55 Q2640.13 1560.31 2641.46 1558.8 Q2643.98 1555.96 2644.97 1554.01 Q2645.99 1552.03 2645.99 1550.13 Q2645.99 1547.03 2643.8 1545.08 Q2641.64 1543.12 2638.15 1543.12 Q2635.68 1543.12 2632.92 1543.98 Q2630.18 1544.84 2627.06 1546.59 L2627.06 1541.27 Q2630.23 1540 2632.99 1539.35 Q2635.75 1538.7 2638.05 1538.7 Q2644.09 1538.7 2647.68 1541.72 Q2651.28 1544.74 2651.28 1549.79 Q2651.28 1552.19 2650.36 1554.35 Q2649.48 1556.48 2647.11 1559.4 Q2646.46 1560.15 2642.97 1563.77 Q2639.48 1567.37 2633.12 1573.85 Z" fill="#000000" fill-rule="nonzero" fill-opacity="1" /><path clip-path="url(#clip960)" d="M2678.46 1557.32 Q2682.24 1558.12 2684.35 1560.68 Q2686.48 1563.23 2686.48 1566.98 Q2686.48 1572.73 2682.53 1575.88 Q2678.57 1579.04 2671.28 1579.04 Q2668.83 1579.04 2666.22 1578.54 Q2663.65 1578.07 2660.88 1577.11 L2660.88 1572.03 Q2663.07 1573.31 2665.68 1573.96 Q2668.28 1574.61 2671.12 1574.61 Q2676.07 1574.61 2678.64 1572.65 Q2681.25 1570.7 2681.25 1566.98 Q2681.25 1563.54 2678.83 1561.61 Q2676.43 1559.66 2672.13 1559.66 L2667.6 1559.66 L2667.6 1555.34 L2672.34 1555.34 Q2676.22 1555.34 2678.28 1553.8 Q2680.34 1552.24 2680.34 1549.32 Q2680.34 1546.33 2678.2 1544.74 Q2676.09 1543.12 2672.13 1543.12 Q2669.97 1543.12 2667.5 1543.59 Q2665.03 1544.06 2662.06 1545.05 L2662.06 1540.36 Q2665.05 1539.53 2667.66 1539.11 Q2670.29 1538.7 2672.6 1538.7 Q2678.59 1538.7 2682.08 1541.43 Q2685.57 1544.14 2685.57 1548.77 Q2685.57 1552 2683.72 1554.24 Q2681.87 1556.46 2678.46 1557.32 Z" fill="#000000" fill-rule="nonzero" fill-opacity="1" /><path clip-path="url(#clip960)" d="M2693.36 1561.54 L2707.39 1561.54 L2707.39 1565.81 L2693.36 1565.81 L2693.36 1561.54 Z" fill="#000000" fill-rule="nonzero" fill-opacity="1" /><path clip-path="url(#clip960)" d="M2726.95 1542.86 Q2722.89 1542.86 2720.83 1546.87 Q2718.8 1550.86 2718.8 1558.88 Q2718.8 1566.87 2720.83 1570.88 Q2722.89 1574.87 2726.95 1574.87 Q2731.04 1574.87 2733.07 1570.88 Q2735.13 1566.87 2735.13 1558.88 Q2735.13 1550.86 2733.07 1546.87 Q2731.04 1542.86 2726.95 1542.86 M2726.95 1538.7 Q2733.49 1538.7 2736.93 1543.88 Q2740.39 1549.04 2740.39 1558.88 Q2740.39 1568.7 2736.93 1573.88 Q2733.49 1579.04 2726.95 1579.04 Q2720.42 1579.04 2716.95 1573.88 Q2713.51 1568.7 2713.51 1558.88 Q2713.51 1549.04 2716.95 1543.88 Q2720.42 1538.7 2726.95 1538.7 Z" fill="#000000" fill-rule="nonzero" fill-opacity="1" /><path clip-path="url(#clip960)" d="M2750.55 1573.85 L2759.14 1573.85 L2759.14 1544.19 L2749.79 1546.07 L2749.79 1541.27 L2759.09 1539.4 L2764.35 1539.4 L2764.35 1573.85 L2772.94 1573.85 L2772.94 1578.28 L2750.55 1578.28 L2750.55 1573.85 Z" fill="#000000" fill-rule="nonzero" fill-opacity="1" /><path clip-path="url(#clip960)" d="M2780.47 1561.54 L2794.5 1561.54 L2794.5 1565.81 L2780.47 1565.81 L2780.47 1561.54 Z" fill="#000000" fill-rule="nonzero" fill-opacity="1" /><path clip-path="url(#clip960)" d="M2803.72 1573.85 L2812.32 1573.85 L2812.32 1544.19 L2802.97 1546.07 L2802.97 1541.27 L2812.26 1539.4 L2817.52 1539.4 L2817.52 1573.85 L2826.12 1573.85 L2826.12 1578.28 L2803.72 1578.28 L2803.72 1573.85 Z" fill="#000000" fill-rule="nonzero" fill-opacity="1" /><path clip-path="url(#clip960)" d="M2836.8 1539.4 L2857.45 1539.4 L2857.45 1543.83 L2841.61 1543.83 L2841.61 1553.36 Q2842.76 1552.97 2843.9 1552.79 Q2845.05 1552.58 2846.2 1552.58 Q2852.71 1552.58 2856.51 1556.14 Q2860.31 1559.71 2860.31 1565.81 Q2860.31 1572.08 2856.4 1575.57 Q2852.5 1579.04 2845.39 1579.04 Q2842.94 1579.04 2840.39 1578.62 Q2837.86 1578.2 2835.15 1577.37 L2835.15 1572.08 Q2837.5 1573.36 2840 1573.98 Q2842.5 1574.61 2845.28 1574.61 Q2849.79 1574.61 2852.42 1572.24 Q2855.05 1569.87 2855.05 1565.81 Q2855.05 1561.74 2852.42 1559.37 Q2849.79 1557 2845.28 1557 Q2843.18 1557 2841.07 1557.47 Q2838.98 1557.94 2836.8 1558.93 L2836.8 1539.4 Z" fill="#000000" fill-rule="nonzero" fill-opacity="1" /><polyline clip-path="url(#clip962)" style="stroke:#000000; stroke-linecap:round; stroke-linejoin:round; stroke-width:2; stroke-opacity:0.1; fill:none" points="205.077,1459.19 3180.41,1459.19 "/>
<polyline clip-path="url(#clip962)" style="stroke:#000000; stroke-linecap:round; stroke-linejoin:round; stroke-width:2; stroke-opacity:0.1; fill:none" points="205.077,1128.7 3180.41,1128.7 "/>
<polyline clip-path="url(#clip962)" style="stroke:#000000; stroke-linecap:round; stroke-linejoin:round; stroke-width:2; stroke-opacity:0.1; fill:none" points="205.077,798.199 3180.41,798.199 "/>
<polyline clip-path="url(#clip962)" style="stroke:#000000; stroke-linecap:round; stroke-linejoin:round; stroke-width:2; stroke-opacity:0.1; fill:none" points="205.077,467.703 3180.41,467.703 "/>
<polyline clip-path="url(#clip962)" style="stroke:#000000; stroke-linecap:round; stroke-linejoin:round; stroke-width:2; stroke-opacity:0.1; fill:none" points="205.077,137.208 3180.41,137.208 "/>
<polyline clip-path="url(#clip960)" style="stroke:#000000; stroke-linecap:round; stroke-linejoin:round; stroke-width:4; stroke-opacity:1; fill:none" points="205.077,1497.68 205.077,47.2441 "/>
<polyline clip-path="url(#clip960)" style="stroke:#000000; stroke-linecap:round; stroke-linejoin:round; stroke-width:4; stroke-opacity:1; fill:none" points="205.077,1459.19 220.08,1459.19 "/>
<polyline clip-path="url(#clip960)" style="stroke:#000000; stroke-linecap:round; stroke-linejoin:round; stroke-width:4; stroke-opacity:1; fill:none" points="205.077,1128.7 220.08,1128.7 "/>
<polyline clip-path="url(#clip960)" style="stroke:#000000; stroke-linecap:round; stroke-linejoin:round; stroke-width:4; stroke-opacity:1; fill:none" points="205.077,798.199 220.08,798.199 "/>
<polyline clip-path="url(#clip960)" style="stroke:#000000; stroke-linecap:round; stroke-linejoin:round; stroke-width:4; stroke-opacity:1; fill:none" points="205.077,467.703 220.08,467.703 "/>
<polyline clip-path="url(#clip960)" style="stroke:#000000; stroke-linecap:round; stroke-linejoin:round; stroke-width:4; stroke-opacity:1; fill:none" points="205.077,137.208 220.08,137.208 "/>
<path clip-path="url(#clip960)" d="M88.4883 1474.2 L97.082 1474.2 L97.082 1444.54 L87.7331 1446.42 L87.7331 1441.63 L97.0299 1439.75 L102.29 1439.75 L102.29 1474.2 L110.884 1474.2 L110.884 1478.63 L88.4883 1478.63 L88.4883 1474.2 Z" fill="#000000" fill-rule="nonzero" fill-opacity="1" /><path clip-path="url(#clip960)" d="M121.561 1439.75 L142.212 1439.75 L142.212 1444.18 L126.379 1444.18 L126.379 1453.71 Q127.525 1453.32 128.67 1453.14 Q129.816 1452.93 130.962 1452.93 Q137.472 1452.93 141.274 1456.5 Q145.077 1460.06 145.077 1466.16 Q145.077 1472.43 141.17 1475.92 Q137.264 1479.39 130.155 1479.39 Q127.707 1479.39 125.155 1478.97 Q122.629 1478.55 119.92 1477.72 L119.92 1472.43 Q122.264 1473.71 124.764 1474.33 Q127.264 1474.96 130.051 1474.96 Q134.556 1474.96 137.186 1472.59 Q139.816 1470.22 139.816 1466.16 Q139.816 1462.09 137.186 1459.72 Q134.556 1457.36 130.051 1457.36 Q127.941 1457.36 125.832 1457.82 Q123.748 1458.29 121.561 1459.28 L121.561 1439.75 Z" fill="#000000" fill-rule="nonzero" fill-opacity="1" /><path clip-path="url(#clip960)" d="M90.9882 1143.71 L109.348 1143.71 L109.348 1148.14 L84.6602 1148.14 L84.6602 1143.71 Q87.6549 1140.61 92.8112 1135.4 Q97.9934 1130.17 99.3215 1128.66 Q101.848 1125.82 102.837 1123.86 Q103.853 1121.89 103.853 1119.98 Q103.853 1116.89 101.665 1114.93 Q99.5038 1112.98 96.0143 1112.98 Q93.5403 1112.98 90.7799 1113.84 Q88.0456 1114.7 84.9206 1116.44 L84.9206 1111.13 Q88.0976 1109.85 90.858 1109.2 Q93.6184 1108.55 95.9101 1108.55 Q101.952 1108.55 105.545 1111.57 Q109.139 1114.59 109.139 1119.65 Q109.139 1122.04 108.228 1124.2 Q107.342 1126.34 104.973 1129.26 Q104.322 1130.01 100.832 1133.63 Q97.3424 1137.22 90.9882 1143.71 Z" fill="#000000" fill-rule="nonzero" fill-opacity="1" /><path clip-path="url(#clip960)" d="M131.639 1112.72 Q127.577 1112.72 125.519 1116.73 Q123.488 1120.71 123.488 1128.73 Q123.488 1136.73 125.519 1140.74 Q127.577 1144.72 131.639 1144.72 Q135.728 1144.72 137.759 1140.74 Q139.816 1136.73 139.816 1128.73 Q139.816 1120.71 137.759 1116.73 Q135.728 1112.72 131.639 1112.72 M131.639 1108.55 Q138.175 1108.55 141.613 1113.73 Q145.077 1118.89 145.077 1128.73 Q145.077 1138.55 141.613 1143.73 Q138.175 1148.89 131.639 1148.89 Q125.103 1148.89 121.639 1143.73 Q118.202 1138.55 118.202 1128.73 Q118.202 1118.89 121.639 1113.73 Q125.103 1108.55 131.639 1108.55 Z" fill="#000000" fill-rule="nonzero" fill-opacity="1" /><path clip-path="url(#clip960)" d="M92.108 813.212 L110.467 813.212 L110.467 817.639 L85.7799 817.639 L85.7799 813.212 Q88.7747 810.113 93.9309 804.905 Q99.1132 799.671 100.441 798.16 Q102.967 795.322 103.957 793.369 Q104.973 791.389 104.973 789.488 Q104.973 786.39 102.785 784.436 Q100.624 782.483 97.134 782.483 Q94.6601 782.483 91.8997 783.343 Q89.1653 784.202 86.0404 785.947 L86.0404 780.634 Q89.2174 779.358 91.9778 778.707 Q94.7382 778.056 97.0299 778.056 Q103.072 778.056 106.665 781.077 Q110.259 784.098 110.259 789.15 Q110.259 791.546 109.348 793.707 Q108.462 795.843 106.092 798.759 Q105.441 799.514 101.952 803.134 Q98.4622 806.728 92.108 813.212 Z" fill="#000000" fill-rule="nonzero" fill-opacity="1" /><path clip-path="url(#clip960)" d="M121.561 778.759 L142.212 778.759 L142.212 783.186 L126.379 783.186 L126.379 792.718 Q127.525 792.327 128.67 792.145 Q129.816 791.936 130.962 791.936 Q137.472 791.936 141.274 795.504 Q145.077 799.072 145.077 805.165 Q145.077 811.441 141.17 814.931 Q137.264 818.395 130.155 818.395 Q127.707 818.395 125.155 817.978 Q122.629 817.561 119.92 816.728 L119.92 811.441 Q122.264 812.718 124.764 813.343 Q127.264 813.967 130.051 813.967 Q134.556 813.967 137.186 811.598 Q139.816 809.228 139.816 805.165 Q139.816 801.103 137.186 798.733 Q134.556 796.363 130.051 796.363 Q127.941 796.363 125.832 796.832 Q123.748 797.301 121.561 798.29 L121.561 778.759 Z" fill="#000000" fill-rule="nonzero" fill-opacity="1" /><path clip-path="url(#clip960)" d="M102.394 466.18 Q106.17 466.987 108.28 469.539 Q110.415 472.091 110.415 475.841 Q110.415 481.597 106.457 484.748 Q102.499 487.899 95.207 487.899 Q92.7591 487.899 90.1549 487.404 Q87.5768 486.935 84.8164 485.972 L84.8164 480.893 Q87.0039 482.17 89.608 482.821 Q92.2122 483.472 95.0507 483.472 Q99.9986 483.472 102.577 481.518 Q105.181 479.565 105.181 475.841 Q105.181 472.404 102.759 470.477 Q100.363 468.524 96.0663 468.524 L91.5351 468.524 L91.5351 464.201 L96.2747 464.201 Q100.155 464.201 102.212 462.664 Q104.269 461.102 104.269 458.185 Q104.269 455.191 102.134 453.602 Q100.025 451.987 96.0663 451.987 Q93.9049 451.987 91.431 452.456 Q88.957 452.925 85.9883 453.914 L85.9883 449.227 Q88.9831 448.394 91.5872 447.977 Q94.2174 447.56 96.5351 447.56 Q102.525 447.56 106.014 450.295 Q109.504 453.003 109.504 457.638 Q109.504 460.868 107.655 463.107 Q105.806 465.321 102.394 466.18 Z" fill="#000000" fill-rule="nonzero" fill-opacity="1" /><path clip-path="url(#clip960)" d="M131.639 451.727 Q127.577 451.727 125.519 455.737 Q123.488 459.722 123.488 467.743 Q123.488 475.737 125.519 479.748 Q127.577 483.732 131.639 483.732 Q135.728 483.732 137.759 479.748 Q139.816 475.737 139.816 467.743 Q139.816 459.722 137.759 455.737 Q135.728 451.727 131.639 451.727 M131.639 447.56 Q138.175 447.56 141.613 452.743 Q145.077 457.899 145.077 467.743 Q145.077 477.56 141.613 482.742 Q138.175 487.899 131.639 487.899 Q125.103 487.899 121.639 482.742 Q118.202 477.56 118.202 467.743 Q118.202 457.899 121.639 452.743 Q125.103 447.56 131.639 447.56 Z" fill="#000000" fill-rule="nonzero" fill-opacity="1" /><path clip-path="url(#clip960)" d="M103.514 135.684 Q107.29 136.491 109.4 139.043 Q111.535 141.596 111.535 145.346 Q111.535 151.101 107.577 154.252 Q103.618 157.403 96.3268 157.403 Q93.8789 157.403 91.2747 156.908 Q88.6966 156.439 85.9362 155.476 L85.9362 150.398 Q88.1237 151.674 90.7278 152.325 Q93.332 152.976 96.1705 152.976 Q101.118 152.976 103.697 151.023 Q106.301 149.069 106.301 145.346 Q106.301 141.908 103.879 139.981 Q101.483 138.028 97.1861 138.028 L92.6549 138.028 L92.6549 133.705 L97.3945 133.705 Q101.275 133.705 103.332 132.169 Q105.389 130.606 105.389 127.689 Q105.389 124.695 103.254 123.106 Q101.144 121.491 97.1861 121.491 Q95.0247 121.491 92.5507 121.96 Q90.0768 122.429 87.1081 123.419 L87.1081 118.731 Q90.1028 117.898 92.707 117.481 Q95.3372 117.064 97.6549 117.064 Q103.644 117.064 107.134 119.799 Q110.624 122.507 110.624 127.143 Q110.624 130.372 108.775 132.611 Q106.926 134.825 103.514 135.684 Z" fill="#000000" fill-rule="nonzero" fill-opacity="1" /><path clip-path="url(#clip960)" d="M121.561 117.768 L142.212 117.768 L142.212 122.195 L126.379 122.195 L126.379 131.726 Q127.525 131.335 128.67 131.153 Q129.816 130.945 130.962 130.945 Q137.472 130.945 141.274 134.512 Q145.077 138.08 145.077 144.174 Q145.077 150.45 141.17 153.939 Q137.264 157.403 130.155 157.403 Q127.707 157.403 125.155 156.986 Q122.629 156.569 119.92 155.736 L119.92 150.45 Q122.264 151.726 124.764 152.351 Q127.264 152.976 130.051 152.976 Q134.556 152.976 137.186 150.606 Q139.816 148.236 139.816 144.174 Q139.816 140.111 137.186 137.741 Q134.556 135.372 130.051 135.372 Q127.941 135.372 125.832 135.84 Q123.748 136.309 121.561 137.299 L121.561 117.768 Z" fill="#000000" fill-rule="nonzero" fill-opacity="1" /><path clip-path="url(#clip960)" d="M-31.4998 930.013 L-31.4998 924.168 L11.7002 924.168 L11.7002 930.013 L-31.4998 930.013 Z" fill="#000000" fill-rule="nonzero" fill-opacity="1" /><path clip-path="url(#clip960)" d="M-7.85992 885.829 L11.7002 885.829 L11.7002 891.153 L-7.68631 891.153 Q-12.287 891.153 -14.5728 892.947 Q-16.8587 894.741 -16.8587 898.329 Q-16.8587 902.641 -14.1099 905.129 Q-11.3611 907.618 -6.61572 907.618 L11.7002 907.618 L11.7002 912.97 L-20.7071 912.97 L-20.7071 907.618 L-15.6724 907.618 Q-18.5948 905.708 -20.0416 903.133 Q-21.4883 900.528 -21.4883 897.143 Q-21.4883 891.559 -18.0161 888.694 Q-14.5728 885.829 -7.85992 885.829 Z" fill="#000000" fill-rule="nonzero" fill-opacity="1" /><path clip-path="url(#clip960)" d="M-33.3227 858.804 L-28.8957 858.804 L-28.8957 863.897 Q-28.8957 866.761 -27.7383 867.89 Q-26.5809 868.989 -23.5716 868.989 L-20.7071 868.989 L-20.7071 860.222 L-16.5694 860.222 L-16.5694 868.989 L11.7002 868.989 L11.7002 874.342 L-16.5694 874.342 L-16.5694 879.435 L-20.7071 879.435 L-20.7071 874.342 L-22.964 874.342 Q-28.3749 874.342 -30.8343 871.825 Q-33.3227 869.308 -33.3227 863.839 L-33.3227 858.804 Z" fill="#000000" fill-rule="nonzero" fill-opacity="1" /><path clip-path="url(#clip960)" d="M-33.3227 854.348 L-33.3227 849.024 L11.7002 849.024 L11.7002 854.348 L-33.3227 854.348 Z" fill="#000000" fill-rule="nonzero" fill-opacity="1" /><path clip-path="url(#clip960)" d="M-16.9745 825.326 Q-16.9745 829.609 -13.618 832.097 Q-10.2905 834.585 -4.47452 834.585 Q1.34142 834.585 4.69788 832.126 Q8.02541 829.638 8.02541 825.326 Q8.02541 821.073 4.66895 818.584 Q1.31248 816.096 -4.47452 816.096 Q-10.2326 816.096 -13.5891 818.584 Q-16.9745 821.073 -16.9745 825.326 M-21.4883 825.326 Q-21.4883 818.382 -16.9745 814.418 Q-12.4606 810.454 -4.47452 810.454 Q3.48261 810.454 8.02541 814.418 Q12.5393 818.382 12.5393 825.326 Q12.5393 832.3 8.02541 836.264 Q3.48261 840.199 -4.47452 840.199 Q-12.4606 840.199 -16.9745 836.264 Q-21.4883 832.3 -21.4883 825.326 Z" fill="#000000" fill-rule="nonzero" fill-opacity="1" /><path clip-path="url(#clip960)" d="M-20.7071 804.725 L-20.7071 799.4 L4.58214 792.745 L-20.7071 786.119 L-20.7071 779.84 L4.58214 773.185 L-20.7071 766.559 L-20.7071 761.235 L11.7002 769.713 L11.7002 775.992 L-14.8622 782.965 L11.7002 789.968 L11.7002 796.247 L-20.7071 804.725 Z" fill="#000000" fill-rule="nonzero" fill-opacity="1" /><path clip-path="url(#clip960)" d="M-33.3227 734.818 L-33.3227 722.549 L-29.185 722.549 L-29.185 729.493 L15.3749 729.493 L15.3749 722.549 L19.5126 722.549 L19.5126 734.818 L-33.3227 734.818 Z" fill="#000000" fill-rule="nonzero" fill-opacity="1" /><path clip-path="url(#clip960)" d="M-31.4998 710.975 L-31.4998 705.13 L6.7812 705.13 L6.7812 684.094 L11.7002 684.094 L11.7002 710.975 L-31.4998 710.975 Z" fill="#000000" fill-rule="nonzero" fill-opacity="1" /><path clip-path="url(#clip960)" d="M-31.4998 668.73 L-31.4998 663.811 L17.1978 678.857 L17.1978 683.776 L-31.4998 668.73 Z" fill="#000000" fill-rule="nonzero" fill-opacity="1" /><path clip-path="url(#clip960)" d="M-19.7522 637.567 L-14.7175 637.567 Q-15.8749 639.824 -16.4536 642.254 Q-17.0323 644.685 -17.0323 647.289 Q-17.0323 651.253 -15.8171 653.25 Q-14.6018 655.217 -12.1712 655.217 Q-10.3194 655.217 -9.2488 653.799 Q-8.20714 652.382 -7.25229 648.099 L-6.8472 646.276 Q-5.63193 640.605 -3.40393 638.232 Q-1.20487 635.831 2.75923 635.831 Q7.2731 635.831 9.90619 639.419 Q12.5393 642.978 12.5393 649.228 Q12.5393 651.832 12.0184 654.667 Q11.5265 657.474 10.5138 660.599 L5.01617 660.599 Q6.54972 657.648 7.33097 654.783 Q8.08328 651.919 8.08328 649.112 Q8.08328 645.35 6.81014 643.325 Q5.50806 641.299 3.16432 641.299 Q0.994196 641.299 -0.163205 642.775 Q-1.32061 644.222 -2.3912 649.17 L-2.82523 651.022 Q-3.86689 655.97 -6.00808 658.169 Q-8.17821 660.368 -11.9398 660.368 Q-16.5115 660.368 -18.9999 657.127 Q-21.4883 653.886 -21.4883 647.926 Q-21.4883 644.974 -21.0543 642.37 Q-20.6203 639.766 -19.7522 637.567 Z" fill="#000000" fill-rule="nonzero" fill-opacity="1" /><path clip-path="url(#clip960)" d="M-33.3227 614.911 L19.5126 614.911 L19.5126 627.179 L15.3749 627.179 L15.3749 620.264 L-29.185 620.264 L-29.185 627.179 L-33.3227 627.179 L-33.3227 614.911 Z" fill="#000000" fill-rule="nonzero" fill-opacity="1" /><polyline clip-path="url(#clip962)" style="stroke:#023eff; stroke-linecap:round; stroke-linejoin:round; stroke-width:5; stroke-opacity:1; fill:none" points="289.284,1122.25 306.092,1170.83 322.9,1170.83 339.708,1170.83 356.516,1170.83 373.324,1170.83 390.131,1170.83 406.939,1099.35 423.747,787.359 440.555,918.241 457.363,674.744 474.171,787.359 490.979,787.359 507.787,787.359 524.595,787.359 541.403,787.359 558.21,787.359 575.018,1108.92 591.826,1108.92 608.634,1108.92 625.442,1108.92 642.25,1108.92 659.058,1108.92 675.866,1108.92 692.674,1113.19 709.482,1113.19 726.289,1113.19 743.097,1113.19 759.905,1113.19 776.713,1113.19 793.521,1113.19 810.329,1102.25 827.137,1018.32 843.945,1018.32 860.753,1018.32 877.56,1018.32 894.368,1018.32 911.176,1018.32 927.984,1018.32 944.792,1018.32 961.6,1018.32 978.408,1108.7 995.216,1108.7 1012.02,1019.78 1028.83,1019.78 1045.64,1019.78 1062.45,1108.7 1079.26,1193.03 1096.06,1113.19 1112.87,1113.19 1129.68,1113.19 1146.49,1113.19 1163.29,1113.19 1180.1,1113.19 1196.91,1113.19 1213.72,1102.25 1230.53,1018.32 1247.33,1018.32 1264.14,1018.32 1280.95,1018.32 1297.76,1018.32 1314.57,1018.32 1331.37,1018.32 1348.18,1018.32 1364.99,1018.32 1381.8,1108.7 1398.61,1108.7 1415.41,1108.7 1432.22,1108.7 1449.03,1108.7 1465.84,1108.7 1482.64,1108.7 1499.45,1113.19 1516.26,1113.19 1533.07,1113.19 1549.88,1113.19 1566.68,1113.19 1583.49,1113.19 1600.3,1113.19 1617.11,1102.25 1633.92,1018.32 1650.72,1018.32 1667.53,1018.32 1684.34,1018.32 1701.15,1018.32 1717.96,1018.32 1734.76,1018.32 1751.57,1018.32 1768.38,1018.32 1785.19,1108.7 1801.99,1108.7 1818.8,1108.7 1835.61,1108.7 1852.42,1108.7 1869.23,1108.7 1886.03,1108.7 1902.84,1113.19 1919.65,1113.19 1936.46,1113.19 1953.27,1113.19 1970.07,1113.19 1986.88,1113.19 2003.69,1113.19 2020.5,1102.25 2037.31,1018.32 2054.11,1018.32 2070.92,1018.32 2087.73,1018.32 2104.54,1018.32 2121.34,1018.32 2138.15,1018.32 2154.96,1018.32 2171.77,1018.32 2188.58,1108.7 2205.38,1108.7 2222.19,1108.7 2239,1108.7 2255.81,1108.7 2272.62,1108.7 2289.42,1108.7 2306.23,1141.32 2323.04,1141.32 2339.85,1141.32 2356.66,1141.32 2373.46,1141.32 2390.27,1141.32 2407.08,1141.32 2423.89,1141.32 2440.69,967.413 2457.5,967.413 2474.31,967.413 2491.12,967.413 2507.93,967.413 2524.73,967.413 2541.54,967.413 2558.35,1325.95 2575.16,1325.95 2591.97,1325.95 2608.77,1325.95 2625.58,1325.95 2642.39,1417.63 2659.2,1417.63 2676.01,1417.63 2692.81,1417.63 2709.62,1456.63 2726.43,1141.32 2743.24,1141.32 2760.05,1141.32 2776.85,1141.32 2793.66,1141.32 2810.47,1141.32 2827.28,1141.32 2844.08,1311.02 2860.89,1311.02 2877.7,1311.02 2894.51,1311.02 2911.32,1311.02 2928.12,1311.02 2944.93,1311.02 2961.74,1040.31 2978.55,1040.31 2995.36,1040.31 3012.16,1040.31 3028.97,1040.31 3045.78,1040.31 3062.59,1040.31 3079.4,1040.31 3096.2,1040.31 "/>
<polyline clip-path="url(#clip962)" style="stroke:#ff7c00; stroke-linecap:round; stroke-linejoin:round; stroke-width:5; stroke-opacity:1; fill:none" points="289.284,1155.12 306.092,1093.29 322.9,1093.29 339.708,1093.29 356.516,1093.29 373.324,1093.29 390.131,842.495 406.939,842.495 423.747,842.495 440.555,826.01 457.363,826.01 474.171,842.495 490.979,842.495 507.787,842.495 524.595,842.495 541.403,842.495 558.21,842.495 575.018,842.495 591.826,1029.27 608.634,1029.27 625.442,946.595 642.25,946.595 659.058,1029.27 675.866,1093.29 692.674,1152.87 709.482,1152.87 726.289,1152.87 743.097,1152.87 759.905,1152.87 776.713,1152.87 793.521,1098.4 810.329,920.076 827.137,920.076 843.945,920.076 860.753,920.076 877.56,920.076 894.368,920.076 911.176,920.076 927.984,920.076 944.792,920.076 961.6,920.076 978.408,1006.8 995.216,1006.8 1012.02,1006.8 1028.83,1006.8 1045.64,1006.8 1062.45,1006.8 1079.26,1151.22 1096.06,1224.96 1112.87,1224.96 1129.68,1224.96 1146.49,1224.96 1163.29,1152.87 1180.1,1152.87 1196.91,1098.4 1213.72,920.076 1230.53,920.076 1247.33,920.076 1264.14,920.076 1280.95,920.076 1297.76,920.076 1314.57,920.076 1331.37,920.076 1348.18,920.076 1364.99,920.076 1381.8,1006.8 1398.61,1006.8 1415.41,1006.8 1432.22,1006.8 1449.03,1006.8 1465.84,1006.8 1482.64,1006.8 1499.45,1152.87 1516.26,1152.87 1533.07,1152.87 1549.88,1152.87 1566.68,1152.87 1583.49,1152.87 1600.3,1098.4 1617.11,920.076 1633.92,920.076 1650.72,920.076 1667.53,920.076 1684.34,920.076 1701.15,920.076 1717.96,920.076 1734.76,920.076 1751.57,920.076 1768.38,920.076 1785.19,1006.8 1801.99,1006.8 1818.8,1006.8 1835.61,1006.8 1852.42,1006.8 1869.23,1006.8 1886.03,1006.8 1902.84,1152.87 1919.65,1152.87 1936.46,1152.87 1953.27,1152.87 1970.07,1152.87 1986.88,1152.87 2003.69,1098.4 2020.5,920.076 2037.31,920.076 2054.11,920.076 2070.92,920.076 2087.73,920.076 2104.54,920.076 2121.34,920.076 2138.15,920.076 2154.96,920.076 2171.77,920.076 2188.58,1006.8 2205.38,1006.8 2222.19,1006.8 2239,1006.8 2255.81,1006.8 2272.62,1006.8 2289.42,1006.8 2306.23,1103.94 2323.04,1103.94 2339.85,1103.94 2356.66,1103.94 2373.46,1103.94 2390.27,1103.94 2407.08,1103.94 2423.89,957.704 2440.69,957.704 2457.5,957.704 2474.31,957.704 2491.12,957.704 2507.93,957.704 2524.73,849.03 2541.54,849.03 2558.35,1042.76 2575.16,1042.76 2591.97,1042.76 2608.77,1042.76 2625.58,1042.76 2642.39,1042.76 2659.2,1042.76 2676.01,1042.76 2692.81,1042.76 2709.62,1103.94 2726.43,1103.94 2743.24,1103.94 2760.05,1103.94 2776.85,1103.94 2793.66,1103.94 2810.47,1103.94 2827.28,957.704 2844.08,957.704 2860.89,957.704 2877.7,957.704 2894.51,957.704 2911.32,957.704 2928.12,957.704 2944.93,957.704 2961.74,1042.76 2978.55,1042.76 2995.36,1042.76 3012.16,1042.76 3028.97,1042.76 3045.78,1042.76 3062.59,1042.76 3079.4,1042.76 3096.2,1042.76 "/>
<polyline clip-path="url(#clip962)" style="stroke:#1ac938; stroke-linecap:round; stroke-linejoin:round; stroke-width:5; stroke-opacity:1; fill:none" points="289.284,1066.26 306.092,1102.73 322.9,1102.73 339.708,1102.73 356.516,1102.73 373.324,1102.73 390.131,1014.07 406.939,1014.07 423.747,1014.07 440.555,679.865 457.363,679.865 474.171,916.263 490.979,916.263 507.787,916.263 524.595,1014.07 541.403,1014.07 558.21,1014.07 575.018,1014.07 591.826,1014.07 608.634,1014.07 625.442,1014.07 642.25,1014.07 659.058,1014.07 675.866,1014.07 692.674,1090.57 709.482,1090.57 726.289,1090.57 743.097,1090.57 759.905,1090.57 776.713,1090.57 793.521,1090.57 810.329,732.864 827.137,732.864 843.945,760.482 860.753,732.864 877.56,760.482 894.368,732.864 911.176,760.482 927.984,760.482 944.792,760.482 961.6,760.482 978.408,732.864 995.216,954.159 1012.02,954.159 1028.83,954.159 1045.64,954.159 1062.45,954.159 1079.26,954.159 1096.06,1090.57 1112.87,1090.57 1129.68,1090.57 1146.49,1090.57 1163.29,1090.57 1180.1,1090.57 1196.91,1090.57 1213.72,732.864 1230.53,641.572 1247.33,760.482 1264.14,760.482 1280.95,760.482 1297.76,760.482 1314.57,760.482 1331.37,760.482 1348.18,760.482 1364.99,760.482 1381.8,732.864 1398.61,954.159 1415.41,954.159 1432.22,954.159 1449.03,954.159 1465.84,954.159 1482.64,954.159 1499.45,1090.57 1516.26,1090.57 1533.07,1090.57 1549.88,1090.57 1566.68,1090.57 1583.49,1090.57 1600.3,1090.57 1617.11,732.864 1633.92,732.864 1650.72,732.864 1667.53,732.864 1684.34,760.482 1701.15,760.482 1717.96,760.482 1734.76,732.864 1751.57,760.482 1768.38,760.482 1785.19,732.864 1801.99,954.159 1818.8,954.159 1835.61,954.159 1852.42,954.159 1869.23,954.159 1886.03,954.159 1902.84,1090.57 1919.65,1090.57 1936.46,1090.57 1953.27,1090.57 1970.07,1090.57 1986.88,1090.57 2003.69,1090.57 2020.5,971.746 2037.31,971.746 2054.11,971.746 2070.92,971.746 2087.73,971.746 2104.54,971.746 2121.34,971.746 2138.15,971.746 2154.96,971.746 2171.77,971.746 2188.58,971.746 2205.38,1053.96 2222.19,1053.96 2239,1053.96 2255.81,1053.96 2272.62,1053.96 2289.42,1053.96 2306.23,1090.57 2323.04,1090.57 2339.85,1090.57 2356.66,1090.57 2373.46,1090.57 2390.27,1090.57 2407.08,1090.57 2423.89,971.746 2440.69,971.746 2457.5,971.746 2474.31,971.746 2491.12,971.746 2507.93,971.746 2524.73,971.746 2541.54,971.746 2558.35,971.746 2575.16,971.746 2591.97,971.746 2608.77,1053.96 2625.58,1053.96 2642.39,1053.96 2659.2,1053.96 2676.01,1053.96 2692.81,1053.96 2709.62,1090.57 2726.43,1090.57 2743.24,1090.57 2760.05,1090.57 2776.85,1090.57 2793.66,1090.57 2810.47,1090.57 2827.28,971.746 2844.08,971.746 2860.89,971.746 2877.7,971.746 2894.51,971.746 2911.32,971.746 2928.12,971.746 2944.93,971.746 2961.74,971.746 2978.55,971.746 2995.36,971.746 3012.16,1053.96 3028.97,1053.96 3045.78,1053.96 3062.59,1053.96 3079.4,1053.96 3096.2,1053.96 "/>
<polyline clip-path="url(#clip962)" style="stroke:#e8000b; stroke-linecap:round; stroke-linejoin:round; stroke-width:5; stroke-opacity:1; fill:none" points="289.284,1120.21 306.092,1120.21 322.9,1120.21 339.708,1120.21 356.516,1120.21 373.324,1120.21 390.131,1120.21 406.939,889.995 423.747,889.995 440.555,698.307 457.363,698.307 474.171,698.307 490.979,698.307 507.787,698.307 524.595,698.307 541.403,698.307 558.21,698.307 575.018,969.868 591.826,969.868 608.634,969.868 625.442,969.868 642.25,969.868 659.058,969.868 675.866,969.868 692.674,1118.43 709.482,1118.43 726.289,1118.43 743.097,1118.43 759.905,1118.43 776.713,1118.43 793.521,983.608 810.329,983.608 827.137,983.608 843.945,652.781 860.753,652.781 877.56,652.781 894.368,652.781 911.176,652.781 927.984,652.781 944.792,652.781 961.6,652.781 978.408,652.781 995.216,652.781 1012.02,652.781 1028.83,652.781 1045.64,652.781 1062.45,652.781 1079.26,652.781 1096.06,1118.43 1112.87,1118.43 1129.68,1118.43 1146.49,1118.43 1163.29,1118.43 1180.1,1118.43 1196.91,1118.43 1213.72,983.608 1230.53,983.608 1247.33,652.781 1264.14,652.781 1280.95,652.781 1297.76,652.781 1314.57,652.781 1331.37,652.781 1348.18,652.781 1364.99,652.781 1381.8,652.781 1398.61,652.781 1415.41,652.781 1432.22,652.781 1449.03,652.781 1465.84,652.781 1482.64,652.781 1499.45,1118.43 1516.26,1118.43 1533.07,1118.43 1549.88,1118.43 1566.68,1118.43 1583.49,1118.43 1600.3,1118.43 1617.11,983.608 1633.92,983.608 1650.72,652.781 1667.53,652.781 1684.34,652.781 1701.15,652.781 1717.96,652.781 1734.76,652.781 1751.57,652.781 1768.38,652.781 1785.19,652.781 1801.99,652.781 1818.8,652.781 1835.61,652.781 1852.42,652.781 1869.23,652.781 1886.03,652.781 1902.84,1118.43 1919.65,1118.43 1936.46,1118.43 1953.27,1118.43 1970.07,1118.43 1986.88,1118.43 2003.69,1118.43 2020.5,1118.43 2037.31,983.608 2054.11,1010.31 2070.92,1010.31 2087.73,1010.31 2104.54,1010.31 2121.34,1010.31 2138.15,1010.31 2154.96,1010.31 2171.77,1010.31 2188.58,1010.31 2205.38,1010.31 2222.19,1010.31 2239,1010.31 2255.81,1010.31 2272.62,1010.31 2289.42,1010.31 2306.23,1118.43 2323.04,1118.43 2339.85,1118.43 2356.66,1118.43 2373.46,1118.43 2390.27,1118.43 2407.08,1118.43 2423.89,1118.43 2440.69,983.608 2457.5,1010.31 2474.31,1010.31 2491.12,1010.31 2507.93,1010.31 2524.73,1010.31 2541.54,1010.31 2558.35,1010.31 2575.16,1010.31 2591.97,1010.31 2608.77,1010.31 2625.58,1010.31 2642.39,1010.31 2659.2,1010.31 2676.01,1010.31 2692.81,1010.31 2709.62,1118.43 2726.43,1118.43 2743.24,1118.43 2760.05,1118.43 2776.85,1118.43 2793.66,1118.43 2810.47,1118.43 2827.28,1118.43 2844.08,1118.43 2860.89,1010.31 2877.7,1010.31 2894.51,1010.31 2911.32,1010.31 2928.12,1010.31 2944.93,1010.31 2961.74,1010.31 2978.55,1010.31 2995.36,990.181 3012.16,990.181 3028.97,990.181 3045.78,990.181 3062.59,990.181 3079.4,990.181 3096.2,1010.31 "/>
<polyline clip-path="url(#clip962)" style="stroke:#000000; stroke-linecap:round; stroke-linejoin:round; stroke-width:6; stroke-opacity:1; fill:none" points="289.284,1025.58 306.092,1081.1 322.9,1104.24 339.708,1065.24 356.516,1121.42 373.324,1054 390.131,956.176 406.939,855.706 423.747,755.896 440.555,656.086 457.363,499.431 474.171,540.413 490.979,600.563 507.787,583.377 524.595,611.8 541.403,662.696 558.21,630.307 575.018,649.476 591.826,849.096 608.634,677.899 625.442,915.856 642.25,948.905 659.058,976.006 675.866,1037.48 692.674,1066.56 709.482,1055.33 726.289,1036.16 743.097,1091.68 759.905,1050.7 776.713,1027.56 793.521,874.874 810.329,839.842 827.137,716.236 843.945,611.8 860.753,658.069 877.56,625.02 894.368,607.834 911.176,623.698 927.984,646.832 944.792,568.835 961.6,665.34 978.408,792.25 995.216,831.91 1012.02,833.232 1028.83,862.316 1045.64,886.111 1062.45,890.738 1079.26,985.921 1096.06,988.565 1112.87,889.416 1129.68,1059.95 1146.49,1054.66 1163.29,1036.16 1180.1,993.853 1196.91,847.113 1213.72,833.893 1230.53,705 1247.33,527.854 1264.14,572.801 1280.95,632.951 1297.76,623.698 1314.57,344.759 1331.37,586.021 1348.18,602.546 1364.99,501.414 1381.8,668.645 1398.61,787.623 1415.41,825.961 1432.22,856.367 1449.03,909.907 1465.84,803.487 1482.64,829.927 1499.45,999.141 1516.26,958.82 1533.07,1016.33 1549.88,1038.8 1566.68,968.735 1583.49,918.5 1600.3,877.518 1617.11,829.266 1633.92,576.106 1650.72,90.9381 1667.53,389.045 1684.34,426.722 1701.15,502.075 1717.96,208.595 1734.76,88.2942 1751.57,106.141 1768.38,377.148 1785.19,571.479 1801.99,812.741 1818.8,870.247 1835.61,843.147 1852.42,847.774 1869.23,847.774 1886.03,910.568 1902.84,937.008 1919.65,926.432 1936.46,942.296 1953.27,914.534 1970.07,909.907 1986.88,843.808 2003.69,749.286 2020.5,650.137 2037.31,570.157 2054.11,475.635 2070.92,624.359 2087.73,642.866 2104.54,607.173 2121.34,659.391 2138.15,669.306 2154.96,509.346 2171.77,658.069 2188.58,781.675 2205.38,903.958 2222.19,823.978 2239,882.145 2255.81,935.686 2272.62,962.125 2289.42,1081.76 2306.23,1068.54 2323.04,1100.27 2339.85,1069.87 2356.66,1069.87 2373.46,1060.61 2390.27,1014.34 2407.08,1005.09 2423.89,930.398 2440.69,858.35 2457.5,847.113 2474.31,792.25 2491.12,794.233 2507.93,899.331 2524.73,946.923 2541.54,935.686 2558.35,991.209 2575.16,1008.39 2591.97,960.803 2608.77,941.635 2625.58,913.212 2642.39,1011.04 2659.2,993.192 2676.01,1052.02 2692.81,1077.14 2709.62,1122.09 2726.43,1127.37 2743.24,1120.76 2760.05,1035.5 2776.85,1056.65 2793.66,1034.17 2810.47,1090.36 2827.28,984.599 2844.08,1012.36 2860.89,955.515 2877.7,951.549 2894.51,997.158 2911.32,991.209 2928.12,901.975 2944.93,994.514 2961.74,1016.33 2978.55,995.836 2995.36,1030.21 3012.16,921.805 3028.97,979.972 3045.78,1026.24 3062.59,1072.51 3079.4,1065.9 3096.2,1046.07 "/>
<path clip-path="url(#clip960)" d="M3305.33 445.512 L3952.76 445.512 L3952.76 95.592 L3305.33 95.592  Z" fill="#ffffff" fill-rule="evenodd" fill-opacity="1"/>
<polyline clip-path="url(#clip960)" style="stroke:#000000; stroke-linecap:round; stroke-linejoin:round; stroke-width:4; stroke-opacity:1; fill:none" points="3305.33,445.512 3952.76,445.512 3952.76,95.592 3305.33,95.592 3305.33,445.512 "/>
<polyline clip-path="url(#clip960)" style="stroke:#023eff; stroke-linecap:round; stroke-linejoin:round; stroke-width:5.625; stroke-opacity:1; fill:none" points="3346.97,153.912 3596.82,153.912 "/>
<path clip-path="url(#clip960)" d="M3643.28 168.977 L3643.28 184.446 L3638.46 184.446 L3638.46 144.185 L3643.28 144.185 L3643.28 148.613 Q3644.79 146.008 3647.08 144.758 Q3649.4 143.482 3652.6 143.482 Q3657.91 143.482 3661.22 147.701 Q3664.55 151.92 3664.55 158.795 Q3664.55 165.67 3661.22 169.888 Q3657.91 174.107 3652.6 174.107 Q3649.4 174.107 3647.08 172.857 Q3644.79 171.581 3643.28 168.977 M3659.58 158.795 Q3659.58 153.508 3657.39 150.514 Q3655.23 147.493 3651.43 147.493 Q3647.63 147.493 3645.44 150.514 Q3643.28 153.508 3643.28 158.795 Q3643.28 164.081 3645.44 167.102 Q3647.63 170.097 3651.43 170.097 Q3655.23 170.097 3657.39 167.102 Q3659.58 164.081 3659.58 158.795 Z" fill="#000000" fill-rule="nonzero" fill-opacity="1" /><path clip-path="url(#clip960)" d="M3689.4 148.665 Q3688.59 148.196 3687.63 147.988 Q3686.69 147.753 3685.54 147.753 Q3681.48 147.753 3679.29 150.409 Q3677.13 153.04 3677.13 157.987 L3677.13 173.352 L3672.31 173.352 L3672.31 144.185 L3677.13 144.185 L3677.13 148.717 Q3678.64 146.06 3681.06 144.784 Q3683.49 143.482 3686.95 143.482 Q3687.44 143.482 3688.04 143.56 Q3688.64 143.613 3689.37 143.743 L3689.4 148.665 Z" fill="#000000" fill-rule="nonzero" fill-opacity="1" /><path clip-path="url(#clip960)" d="M3718.2 157.571 L3718.2 159.915 L3696.17 159.915 Q3696.48 164.862 3699.14 167.467 Q3701.82 170.045 3706.58 170.045 Q3709.35 170.045 3711.92 169.368 Q3714.53 168.691 3717.08 167.336 L3717.08 171.868 Q3714.5 172.961 3711.79 173.534 Q3709.08 174.107 3706.3 174.107 Q3699.32 174.107 3695.23 170.045 Q3691.17 165.982 3691.17 159.055 Q3691.17 151.894 3695.02 147.701 Q3698.9 143.482 3705.47 143.482 Q3711.35 143.482 3714.76 147.284 Q3718.2 151.06 3718.2 157.571 M3713.41 156.165 Q3713.36 152.232 3711.19 149.889 Q3709.06 147.545 3705.52 147.545 Q3701.51 147.545 3699.08 149.81 Q3696.69 152.076 3696.32 156.191 L3713.41 156.165 Z" fill="#000000" fill-rule="nonzero" fill-opacity="1" /><path clip-path="url(#clip960)" d="M3745.26 148.613 L3745.26 132.831 L3750.05 132.831 L3750.05 173.352 L3745.26 173.352 L3745.26 168.977 Q3743.75 171.581 3741.43 172.857 Q3739.14 174.107 3735.91 174.107 Q3730.62 174.107 3727.29 169.888 Q3723.98 165.67 3723.98 158.795 Q3723.98 151.92 3727.29 147.701 Q3730.62 143.482 3735.91 143.482 Q3739.14 143.482 3741.43 144.758 Q3743.75 146.008 3745.26 148.613 M3728.93 158.795 Q3728.93 164.081 3731.09 167.102 Q3733.28 170.097 3737.08 170.097 Q3740.88 170.097 3743.07 167.102 Q3745.26 164.081 3745.26 158.795 Q3745.26 153.508 3743.07 150.514 Q3740.88 147.493 3737.08 147.493 Q3733.28 147.493 3731.09 150.514 Q3728.93 153.508 3728.93 158.795 Z" fill="#000000" fill-rule="nonzero" fill-opacity="1" /><path clip-path="url(#clip960)" d="M3759.92 144.185 L3764.71 144.185 L3764.71 173.352 L3759.92 173.352 L3759.92 144.185 M3759.92 132.831 L3764.71 132.831 L3764.71 138.899 L3759.92 138.899 L3759.92 132.831 Z" fill="#000000" fill-rule="nonzero" fill-opacity="1" /><path clip-path="url(#clip960)" d="M3795.73 145.305 L3795.73 149.784 Q3793.69 148.665 3791.64 148.118 Q3789.61 147.545 3787.52 147.545 Q3782.86 147.545 3780.28 150.514 Q3777.7 153.456 3777.7 158.795 Q3777.7 164.133 3780.28 167.102 Q3782.86 170.045 3787.52 170.045 Q3789.61 170.045 3791.64 169.498 Q3793.69 168.925 3795.73 167.805 L3795.73 172.232 Q3793.72 173.17 3791.56 173.638 Q3789.42 174.107 3787 174.107 Q3780.41 174.107 3776.53 169.967 Q3772.65 165.826 3772.65 158.795 Q3772.65 151.659 3776.56 147.571 Q3780.49 143.482 3787.31 143.482 Q3789.53 143.482 3791.64 143.951 Q3793.75 144.394 3795.73 145.305 Z" fill="#000000" fill-rule="nonzero" fill-opacity="1" /><path clip-path="url(#clip960)" d="M3808.8 135.904 L3808.8 144.185 L3818.67 144.185 L3818.67 147.909 L3808.8 147.909 L3808.8 163.743 Q3808.8 167.31 3809.76 168.326 Q3810.75 169.342 3813.75 169.342 L3818.67 169.342 L3818.67 173.352 L3813.75 173.352 Q3808.2 173.352 3806.09 171.295 Q3803.98 169.211 3803.98 163.743 L3803.98 147.909 L3800.46 147.909 L3800.46 144.185 L3803.98 144.185 L3803.98 135.904 L3808.8 135.904 Z" fill="#000000" fill-rule="nonzero" fill-opacity="1" /><path clip-path="url(#clip960)" d="M3847.13 182.206 L3847.13 185.93 L3819.42 185.93 L3819.42 182.206 L3847.13 182.206 Z" fill="#000000" fill-rule="nonzero" fill-opacity="1" /><path clip-path="url(#clip960)" d="M3852.37 134.472 L3873.02 134.472 L3873.02 138.899 L3857.18 138.899 L3857.18 148.43 Q3858.33 148.04 3859.47 147.857 Q3860.62 147.649 3861.77 147.649 Q3868.28 147.649 3872.08 151.217 Q3875.88 154.784 3875.88 160.878 Q3875.88 167.154 3871.97 170.644 Q3868.07 174.107 3860.96 174.107 Q3858.51 174.107 3855.96 173.69 Q3853.43 173.274 3850.72 172.441 L3850.72 167.154 Q3853.07 168.43 3855.57 169.055 Q3858.07 169.68 3860.85 169.68 Q3865.36 169.68 3867.99 167.31 Q3870.62 164.941 3870.62 160.878 Q3870.62 156.816 3867.99 154.446 Q3865.36 152.076 3860.85 152.076 Q3858.75 152.076 3856.64 152.545 Q3854.55 153.014 3852.37 154.003 L3852.37 134.472 Z" fill="#000000" fill-rule="nonzero" fill-opacity="1" /><path clip-path="url(#clip960)" d="M3890.78 168.925 L3909.14 168.925 L3909.14 173.352 L3884.45 173.352 L3884.45 168.925 Q3887.44 165.826 3892.6 160.618 Q3897.78 155.383 3899.11 153.873 Q3901.64 151.034 3902.63 149.081 Q3903.64 147.102 3903.64 145.201 Q3903.64 142.102 3901.45 140.149 Q3899.29 138.196 3895.8 138.196 Q3893.33 138.196 3890.57 139.055 Q3887.83 139.915 3884.71 141.659 L3884.71 136.347 Q3887.89 135.071 3890.65 134.42 Q3893.41 133.769 3895.7 133.769 Q3901.74 133.769 3905.33 136.79 Q3908.93 139.81 3908.93 144.863 Q3908.93 147.258 3908.02 149.42 Q3907.13 151.555 3904.76 154.472 Q3904.11 155.227 3900.62 158.847 Q3897.13 162.441 3890.78 168.925 Z" fill="#000000" fill-rule="nonzero" fill-opacity="1" /><polyline clip-path="url(#clip960)" style="stroke:#ff7c00; stroke-linecap:round; stroke-linejoin:round; stroke-width:5.625; stroke-opacity:1; fill:none" points="3346.97,212.232 3596.82,212.232 "/>
<path clip-path="url(#clip960)" d="M3643.28 227.297 L3643.28 242.766 L3638.46 242.766 L3638.46 202.505 L3643.28 202.505 L3643.28 206.933 Q3644.79 204.328 3647.08 203.078 Q3649.4 201.802 3652.6 201.802 Q3657.91 201.802 3661.22 206.021 Q3664.55 210.24 3664.55 217.115 Q3664.55 223.99 3661.22 228.208 Q3657.91 232.427 3652.6 232.427 Q3649.4 232.427 3647.08 231.177 Q3644.79 229.901 3643.28 227.297 M3659.58 217.115 Q3659.58 211.828 3657.39 208.834 Q3655.23 205.813 3651.43 205.813 Q3647.63 205.813 3645.44 208.834 Q3643.28 211.828 3643.28 217.115 Q3643.28 222.401 3645.44 225.422 Q3647.63 228.417 3651.43 228.417 Q3655.23 228.417 3657.39 225.422 Q3659.58 222.401 3659.58 217.115 Z" fill="#000000" fill-rule="nonzero" fill-opacity="1" /><path clip-path="url(#clip960)" d="M3689.4 206.985 Q3688.59 206.516 3687.63 206.308 Q3686.69 206.073 3685.54 206.073 Q3681.48 206.073 3679.29 208.729 Q3677.13 211.36 3677.13 216.307 L3677.13 231.672 L3672.31 231.672 L3672.31 202.505 L3677.13 202.505 L3677.13 207.037 Q3678.64 204.38 3681.06 203.104 Q3683.49 201.802 3686.95 201.802 Q3687.44 201.802 3688.04 201.88 Q3688.64 201.933 3689.37 202.063 L3689.4 206.985 Z" fill="#000000" fill-rule="nonzero" fill-opacity="1" /><path clip-path="url(#clip960)" d="M3718.2 215.891 L3718.2 218.235 L3696.17 218.235 Q3696.48 223.182 3699.14 225.787 Q3701.82 228.365 3706.58 228.365 Q3709.35 228.365 3711.92 227.688 Q3714.53 227.011 3717.08 225.656 L3717.08 230.188 Q3714.5 231.281 3711.79 231.854 Q3709.08 232.427 3706.3 232.427 Q3699.32 232.427 3695.23 228.365 Q3691.17 224.302 3691.17 217.375 Q3691.17 210.214 3695.02 206.021 Q3698.9 201.802 3705.47 201.802 Q3711.35 201.802 3714.76 205.604 Q3718.2 209.38 3718.2 215.891 M3713.41 214.485 Q3713.36 210.552 3711.19 208.209 Q3709.06 205.865 3705.52 205.865 Q3701.51 205.865 3699.08 208.13 Q3696.69 210.396 3696.32 214.511 L3713.41 214.485 Z" fill="#000000" fill-rule="nonzero" fill-opacity="1" /><path clip-path="url(#clip960)" d="M3745.26 206.933 L3745.26 191.151 L3750.05 191.151 L3750.05 231.672 L3745.26 231.672 L3745.26 227.297 Q3743.75 229.901 3741.43 231.177 Q3739.14 232.427 3735.91 232.427 Q3730.62 232.427 3727.29 228.208 Q3723.98 223.99 3723.98 217.115 Q3723.98 210.24 3727.29 206.021 Q3730.62 201.802 3735.91 201.802 Q3739.14 201.802 3741.43 203.078 Q3743.75 204.328 3745.26 206.933 M3728.93 217.115 Q3728.93 222.401 3731.09 225.422 Q3733.28 228.417 3737.08 228.417 Q3740.88 228.417 3743.07 225.422 Q3745.26 222.401 3745.26 217.115 Q3745.26 211.828 3743.07 208.834 Q3740.88 205.813 3737.08 205.813 Q3733.28 205.813 3731.09 208.834 Q3728.93 211.828 3728.93 217.115 Z" fill="#000000" fill-rule="nonzero" fill-opacity="1" /><path clip-path="url(#clip960)" d="M3759.92 202.505 L3764.71 202.505 L3764.71 231.672 L3759.92 231.672 L3759.92 202.505 M3759.92 191.151 L3764.71 191.151 L3764.71 197.219 L3759.92 197.219 L3759.92 191.151 Z" fill="#000000" fill-rule="nonzero" fill-opacity="1" /><path clip-path="url(#clip960)" d="M3795.73 203.625 L3795.73 208.104 Q3793.69 206.985 3791.64 206.438 Q3789.61 205.865 3787.52 205.865 Q3782.86 205.865 3780.28 208.834 Q3777.7 211.776 3777.7 217.115 Q3777.7 222.453 3780.28 225.422 Q3782.86 228.365 3787.52 228.365 Q3789.61 228.365 3791.64 227.818 Q3793.69 227.245 3795.73 226.125 L3795.73 230.552 Q3793.72 231.49 3791.56 231.958 Q3789.42 232.427 3787 232.427 Q3780.41 232.427 3776.53 228.287 Q3772.65 224.146 3772.65 217.115 Q3772.65 209.979 3776.56 205.891 Q3780.49 201.802 3787.31 201.802 Q3789.53 201.802 3791.64 202.271 Q3793.75 202.714 3795.73 203.625 Z" fill="#000000" fill-rule="nonzero" fill-opacity="1" /><path clip-path="url(#clip960)" d="M3808.8 194.224 L3808.8 202.505 L3818.67 202.505 L3818.67 206.229 L3808.8 206.229 L3808.8 222.063 Q3808.8 225.63 3809.76 226.646 Q3810.75 227.662 3813.75 227.662 L3818.67 227.662 L3818.67 231.672 L3813.75 231.672 Q3808.2 231.672 3806.09 229.615 Q3803.98 227.531 3803.98 222.063 L3803.98 206.229 L3800.46 206.229 L3800.46 202.505 L3803.98 202.505 L3803.98 194.224 L3808.8 194.224 Z" fill="#000000" fill-rule="nonzero" fill-opacity="1" /><path clip-path="url(#clip960)" d="M3847.13 240.526 L3847.13 244.25 L3819.42 244.25 L3819.42 240.526 L3847.13 240.526 Z" fill="#000000" fill-rule="nonzero" fill-opacity="1" /><path clip-path="url(#clip960)" d="M3856.84 227.245 L3875.2 227.245 L3875.2 231.672 L3850.52 231.672 L3850.52 227.245 Q3853.51 224.146 3858.67 218.938 Q3863.85 213.703 3865.18 212.193 Q3867.7 209.354 3868.69 207.401 Q3869.71 205.422 3869.71 203.521 Q3869.71 200.422 3867.52 198.469 Q3865.36 196.516 3861.87 196.516 Q3859.4 196.516 3856.64 197.375 Q3853.9 198.235 3850.78 199.979 L3850.78 194.667 Q3853.95 193.391 3856.71 192.74 Q3859.47 192.089 3861.77 192.089 Q3867.81 192.089 3871.4 195.11 Q3875 198.13 3875 203.183 Q3875 205.578 3874.08 207.74 Q3873.2 209.875 3870.83 212.792 Q3870.18 213.547 3866.69 217.167 Q3863.2 220.761 3856.84 227.245 Z" fill="#000000" fill-rule="nonzero" fill-opacity="1" /><path clip-path="url(#clip960)" d="M3898.15 210.136 Q3894.6 210.136 3892.52 212.557 Q3890.46 214.979 3890.46 219.198 Q3890.46 223.391 3892.52 225.839 Q3894.6 228.261 3898.15 228.261 Q3901.69 228.261 3903.75 225.839 Q3905.83 223.391 3905.83 219.198 Q3905.83 214.979 3903.75 212.557 Q3901.69 210.136 3898.15 210.136 M3908.59 193.651 L3908.59 198.443 Q3906.61 197.505 3904.58 197.011 Q3902.57 196.516 3900.59 196.516 Q3895.39 196.516 3892.63 200.031 Q3889.89 203.547 3889.5 210.656 Q3891.04 208.391 3893.35 207.193 Q3895.67 205.969 3898.46 205.969 Q3904.32 205.969 3907.7 209.537 Q3911.12 213.078 3911.12 219.198 Q3911.12 225.188 3907.57 228.807 Q3904.03 232.427 3898.15 232.427 Q3891.4 232.427 3887.83 227.271 Q3884.27 222.089 3884.27 212.271 Q3884.27 203.052 3888.64 197.584 Q3893.02 192.089 3900.39 192.089 Q3902.37 192.089 3904.37 192.479 Q3906.4 192.87 3908.59 193.651 Z" fill="#000000" fill-rule="nonzero" fill-opacity="1" /><polyline clip-path="url(#clip960)" style="stroke:#1ac938; stroke-linecap:round; stroke-linejoin:round; stroke-width:5.625; stroke-opacity:1; fill:none" points="3346.97,270.552 3596.82,270.552 "/>
<path clip-path="url(#clip960)" d="M3643.28 285.617 L3643.28 301.086 L3638.46 301.086 L3638.46 260.825 L3643.28 260.825 L3643.28 265.253 Q3644.79 262.648 3647.08 261.398 Q3649.4 260.122 3652.6 260.122 Q3657.91 260.122 3661.22 264.341 Q3664.55 268.56 3664.55 275.435 Q3664.55 282.31 3661.22 286.528 Q3657.91 290.747 3652.6 290.747 Q3649.4 290.747 3647.08 289.497 Q3644.79 288.221 3643.28 285.617 M3659.58 275.435 Q3659.58 270.148 3657.39 267.154 Q3655.23 264.133 3651.43 264.133 Q3647.63 264.133 3645.44 267.154 Q3643.28 270.148 3643.28 275.435 Q3643.28 280.721 3645.44 283.742 Q3647.63 286.737 3651.43 286.737 Q3655.23 286.737 3657.39 283.742 Q3659.58 280.721 3659.58 275.435 Z" fill="#000000" fill-rule="nonzero" fill-opacity="1" /><path clip-path="url(#clip960)" d="M3689.4 265.305 Q3688.59 264.836 3687.63 264.628 Q3686.69 264.393 3685.54 264.393 Q3681.48 264.393 3679.29 267.049 Q3677.13 269.68 3677.13 274.627 L3677.13 289.992 L3672.31 289.992 L3672.31 260.825 L3677.13 260.825 L3677.13 265.357 Q3678.64 262.7 3681.06 261.424 Q3683.49 260.122 3686.95 260.122 Q3687.44 260.122 3688.04 260.2 Q3688.64 260.253 3689.37 260.383 L3689.4 265.305 Z" fill="#000000" fill-rule="nonzero" fill-opacity="1" /><path clip-path="url(#clip960)" d="M3718.2 274.211 L3718.2 276.555 L3696.17 276.555 Q3696.48 281.502 3699.14 284.107 Q3701.82 286.685 3706.58 286.685 Q3709.35 286.685 3711.92 286.008 Q3714.53 285.331 3717.08 283.976 L3717.08 288.508 Q3714.5 289.601 3711.79 290.174 Q3709.08 290.747 3706.3 290.747 Q3699.32 290.747 3695.23 286.685 Q3691.17 282.622 3691.17 275.695 Q3691.17 268.534 3695.02 264.341 Q3698.9 260.122 3705.47 260.122 Q3711.35 260.122 3714.76 263.924 Q3718.2 267.7 3718.2 274.211 M3713.41 272.805 Q3713.36 268.872 3711.19 266.529 Q3709.06 264.185 3705.52 264.185 Q3701.51 264.185 3699.08 266.45 Q3696.69 268.716 3696.32 272.831 L3713.41 272.805 Z" fill="#000000" fill-rule="nonzero" fill-opacity="1" /><path clip-path="url(#clip960)" d="M3745.26 265.253 L3745.26 249.471 L3750.05 249.471 L3750.05 289.992 L3745.26 289.992 L3745.26 285.617 Q3743.75 288.221 3741.43 289.497 Q3739.14 290.747 3735.91 290.747 Q3730.62 290.747 3727.29 286.528 Q3723.98 282.31 3723.98 275.435 Q3723.98 268.56 3727.29 264.341 Q3730.62 260.122 3735.91 260.122 Q3739.14 260.122 3741.43 261.398 Q3743.75 262.648 3745.26 265.253 M3728.93 275.435 Q3728.93 280.721 3731.09 283.742 Q3733.28 286.737 3737.08 286.737 Q3740.88 286.737 3743.07 283.742 Q3745.26 280.721 3745.26 275.435 Q3745.26 270.148 3743.07 267.154 Q3740.88 264.133 3737.08 264.133 Q3733.28 264.133 3731.09 267.154 Q3728.93 270.148 3728.93 275.435 Z" fill="#000000" fill-rule="nonzero" fill-opacity="1" /><path clip-path="url(#clip960)" d="M3759.92 260.825 L3764.71 260.825 L3764.71 289.992 L3759.92 289.992 L3759.92 260.825 M3759.92 249.471 L3764.71 249.471 L3764.71 255.539 L3759.92 255.539 L3759.92 249.471 Z" fill="#000000" fill-rule="nonzero" fill-opacity="1" /><path clip-path="url(#clip960)" d="M3795.73 261.945 L3795.73 266.424 Q3793.69 265.305 3791.64 264.758 Q3789.61 264.185 3787.52 264.185 Q3782.86 264.185 3780.28 267.154 Q3777.7 270.096 3777.7 275.435 Q3777.7 280.773 3780.28 283.742 Q3782.86 286.685 3787.52 286.685 Q3789.61 286.685 3791.64 286.138 Q3793.69 285.565 3795.73 284.445 L3795.73 288.872 Q3793.72 289.81 3791.56 290.278 Q3789.42 290.747 3787 290.747 Q3780.41 290.747 3776.53 286.607 Q3772.65 282.466 3772.65 275.435 Q3772.65 268.299 3776.56 264.211 Q3780.49 260.122 3787.31 260.122 Q3789.53 260.122 3791.64 260.591 Q3793.75 261.034 3795.73 261.945 Z" fill="#000000" fill-rule="nonzero" fill-opacity="1" /><path clip-path="url(#clip960)" d="M3808.8 252.544 L3808.8 260.825 L3818.67 260.825 L3818.67 264.549 L3808.8 264.549 L3808.8 280.383 Q3808.8 283.95 3809.76 284.966 Q3810.75 285.982 3813.75 285.982 L3818.67 285.982 L3818.67 289.992 L3813.75 289.992 Q3808.2 289.992 3806.09 287.935 Q3803.98 285.851 3803.98 280.383 L3803.98 264.549 L3800.46 264.549 L3800.46 260.825 L3803.98 260.825 L3803.98 252.544 L3808.8 252.544 Z" fill="#000000" fill-rule="nonzero" fill-opacity="1" /><path clip-path="url(#clip960)" d="M3847.13 298.846 L3847.13 302.57 L3819.42 302.57 L3819.42 298.846 L3847.13 298.846 Z" fill="#000000" fill-rule="nonzero" fill-opacity="1" /><path clip-path="url(#clip960)" d="M3866.77 255.695 L3853.49 276.45 L3866.77 276.45 L3866.77 255.695 M3865.39 251.112 L3872 251.112 L3872 276.45 L3877.55 276.45 L3877.55 280.825 L3872 280.825 L3872 289.992 L3866.77 289.992 L3866.77 280.825 L3849.21 280.825 L3849.21 275.747 L3865.39 251.112 Z" fill="#000000" fill-rule="nonzero" fill-opacity="1" /><polyline clip-path="url(#clip960)" style="stroke:#e8000b; stroke-linecap:round; stroke-linejoin:round; stroke-width:5.625; stroke-opacity:1; fill:none" points="3346.97,328.872 3596.82,328.872 "/>
<path clip-path="url(#clip960)" d="M3643.28 343.937 L3643.28 359.406 L3638.46 359.406 L3638.46 319.145 L3643.28 319.145 L3643.28 323.573 Q3644.79 320.968 3647.08 319.718 Q3649.4 318.442 3652.6 318.442 Q3657.91 318.442 3661.22 322.661 Q3664.55 326.88 3664.55 333.755 Q3664.55 340.63 3661.22 344.848 Q3657.91 349.067 3652.6 349.067 Q3649.4 349.067 3647.08 347.817 Q3644.79 346.541 3643.28 343.937 M3659.58 333.755 Q3659.58 328.468 3657.39 325.474 Q3655.23 322.453 3651.43 322.453 Q3647.63 322.453 3645.44 325.474 Q3643.28 328.468 3643.28 333.755 Q3643.28 339.041 3645.44 342.062 Q3647.63 345.057 3651.43 345.057 Q3655.23 345.057 3657.39 342.062 Q3659.58 339.041 3659.58 333.755 Z" fill="#000000" fill-rule="nonzero" fill-opacity="1" /><path clip-path="url(#clip960)" d="M3689.4 323.625 Q3688.59 323.156 3687.63 322.948 Q3686.69 322.713 3685.54 322.713 Q3681.48 322.713 3679.29 325.369 Q3677.13 328 3677.13 332.947 L3677.13 348.312 L3672.31 348.312 L3672.31 319.145 L3677.13 319.145 L3677.13 323.677 Q3678.64 321.02 3681.06 319.744 Q3683.49 318.442 3686.95 318.442 Q3687.44 318.442 3688.04 318.52 Q3688.64 318.573 3689.37 318.703 L3689.4 323.625 Z" fill="#000000" fill-rule="nonzero" fill-opacity="1" /><path clip-path="url(#clip960)" d="M3718.2 332.531 L3718.2 334.875 L3696.17 334.875 Q3696.48 339.822 3699.14 342.427 Q3701.82 345.005 3706.58 345.005 Q3709.35 345.005 3711.92 344.328 Q3714.53 343.651 3717.08 342.296 L3717.08 346.828 Q3714.5 347.921 3711.79 348.494 Q3709.08 349.067 3706.3 349.067 Q3699.32 349.067 3695.23 345.005 Q3691.17 340.942 3691.17 334.015 Q3691.17 326.854 3695.02 322.661 Q3698.9 318.442 3705.47 318.442 Q3711.35 318.442 3714.76 322.244 Q3718.2 326.02 3718.2 332.531 M3713.41 331.125 Q3713.36 327.192 3711.19 324.849 Q3709.06 322.505 3705.52 322.505 Q3701.51 322.505 3699.08 324.77 Q3696.69 327.036 3696.32 331.151 L3713.41 331.125 Z" fill="#000000" fill-rule="nonzero" fill-opacity="1" /><path clip-path="url(#clip960)" d="M3745.26 323.573 L3745.26 307.791 L3750.05 307.791 L3750.05 348.312 L3745.26 348.312 L3745.26 343.937 Q3743.75 346.541 3741.43 347.817 Q3739.14 349.067 3735.91 349.067 Q3730.62 349.067 3727.29 344.848 Q3723.98 340.63 3723.98 333.755 Q3723.98 326.88 3727.29 322.661 Q3730.62 318.442 3735.91 318.442 Q3739.14 318.442 3741.43 319.718 Q3743.75 320.968 3745.26 323.573 M3728.93 333.755 Q3728.93 339.041 3731.09 342.062 Q3733.28 345.057 3737.08 345.057 Q3740.88 345.057 3743.07 342.062 Q3745.26 339.041 3745.26 333.755 Q3745.26 328.468 3743.07 325.474 Q3740.88 322.453 3737.08 322.453 Q3733.28 322.453 3731.09 325.474 Q3728.93 328.468 3728.93 333.755 Z" fill="#000000" fill-rule="nonzero" fill-opacity="1" /><path clip-path="url(#clip960)" d="M3759.92 319.145 L3764.71 319.145 L3764.71 348.312 L3759.92 348.312 L3759.92 319.145 M3759.92 307.791 L3764.71 307.791 L3764.71 313.859 L3759.92 313.859 L3759.92 307.791 Z" fill="#000000" fill-rule="nonzero" fill-opacity="1" /><path clip-path="url(#clip960)" d="M3795.73 320.265 L3795.73 324.744 Q3793.69 323.625 3791.64 323.078 Q3789.61 322.505 3787.52 322.505 Q3782.86 322.505 3780.28 325.474 Q3777.7 328.416 3777.7 333.755 Q3777.7 339.093 3780.28 342.062 Q3782.86 345.005 3787.52 345.005 Q3789.61 345.005 3791.64 344.458 Q3793.69 343.885 3795.73 342.765 L3795.73 347.192 Q3793.72 348.13 3791.56 348.598 Q3789.42 349.067 3787 349.067 Q3780.41 349.067 3776.53 344.927 Q3772.65 340.786 3772.65 333.755 Q3772.65 326.619 3776.56 322.531 Q3780.49 318.442 3787.31 318.442 Q3789.53 318.442 3791.64 318.911 Q3793.75 319.354 3795.73 320.265 Z" fill="#000000" fill-rule="nonzero" fill-opacity="1" /><path clip-path="url(#clip960)" d="M3808.8 310.864 L3808.8 319.145 L3818.67 319.145 L3818.67 322.869 L3808.8 322.869 L3808.8 338.703 Q3808.8 342.27 3809.76 343.286 Q3810.75 344.302 3813.75 344.302 L3818.67 344.302 L3818.67 348.312 L3813.75 348.312 Q3808.2 348.312 3806.09 346.255 Q3803.98 344.171 3803.98 338.703 L3803.98 322.869 L3800.46 322.869 L3800.46 319.145 L3803.98 319.145 L3803.98 310.864 L3808.8 310.864 Z" fill="#000000" fill-rule="nonzero" fill-opacity="1" /><path clip-path="url(#clip960)" d="M3847.13 357.166 L3847.13 360.89 L3819.42 360.89 L3819.42 357.166 L3847.13 357.166 Z" fill="#000000" fill-rule="nonzero" fill-opacity="1" /><path clip-path="url(#clip960)" d="M3853.22 343.885 L3861.82 343.885 L3861.82 314.224 L3852.47 316.099 L3852.47 311.307 L3861.77 309.432 L3867.03 309.432 L3867.03 343.885 L3875.62 343.885 L3875.62 348.312 L3853.22 348.312 L3853.22 343.885 Z" fill="#000000" fill-rule="nonzero" fill-opacity="1" /><polyline clip-path="url(#clip960)" style="stroke:#000000; stroke-linecap:round; stroke-linejoin:round; stroke-width:6.75; stroke-opacity:1; fill:none" points="3346.97,387.192 3596.82,387.192 "/>
<path clip-path="url(#clip960)" d="M3653.54 391.971 Q3647.73 391.971 3645.49 393.299 Q3643.25 394.627 3643.25 397.83 Q3643.25 400.382 3644.92 401.892 Q3646.61 403.377 3649.5 403.377 Q3653.49 403.377 3655.88 400.564 Q3658.3 397.726 3658.3 393.038 L3658.3 391.971 L3653.54 391.971 M3663.1 389.991 L3663.1 406.632 L3658.3 406.632 L3658.3 402.205 Q3656.66 404.861 3654.22 406.137 Q3651.77 407.387 3648.23 407.387 Q3643.75 407.387 3641.09 404.887 Q3638.46 402.361 3638.46 398.142 Q3638.46 393.221 3641.74 390.721 Q3645.05 388.221 3651.59 388.221 L3658.3 388.221 L3658.3 387.752 Q3658.3 384.445 3656.12 382.648 Q3653.95 380.825 3650.02 380.825 Q3647.52 380.825 3645.15 381.424 Q3642.78 382.023 3640.6 383.221 L3640.6 378.794 Q3643.23 377.778 3645.7 377.283 Q3648.17 376.762 3650.52 376.762 Q3656.85 376.762 3659.97 380.044 Q3663.1 383.325 3663.1 389.991 Z" fill="#000000" fill-rule="nonzero" fill-opacity="1" /><path clip-path="url(#clip960)" d="M3693.95 378.585 L3693.95 383.064 Q3691.92 381.945 3689.87 381.398 Q3687.83 380.825 3685.75 380.825 Q3681.09 380.825 3678.51 383.794 Q3675.93 386.736 3675.93 392.075 Q3675.93 397.413 3678.51 400.382 Q3681.09 403.325 3685.75 403.325 Q3687.83 403.325 3689.87 402.778 Q3691.92 402.205 3693.95 401.085 L3693.95 405.512 Q3691.95 406.45 3689.79 406.918 Q3687.65 407.387 3685.23 407.387 Q3678.64 407.387 3674.76 403.247 Q3670.88 399.106 3670.88 392.075 Q3670.88 384.939 3674.79 380.851 Q3678.72 376.762 3685.54 376.762 Q3687.76 376.762 3689.87 377.231 Q3691.98 377.674 3693.95 378.585 Z" fill="#000000" fill-rule="nonzero" fill-opacity="1" /><path clip-path="url(#clip960)" d="M3707.03 369.184 L3707.03 377.465 L3716.9 377.465 L3716.9 381.189 L3707.03 381.189 L3707.03 397.023 Q3707.03 400.59 3707.99 401.606 Q3708.98 402.622 3711.98 402.622 L3716.9 402.622 L3716.9 406.632 L3711.98 406.632 Q3706.43 406.632 3704.32 404.575 Q3702.21 402.491 3702.21 397.023 L3702.21 381.189 L3698.69 381.189 L3698.69 377.465 L3702.21 377.465 L3702.21 369.184 L3707.03 369.184 Z" fill="#000000" fill-rule="nonzero" fill-opacity="1" /><path clip-path="url(#clip960)" d="M3722.7 395.122 L3722.7 377.465 L3727.5 377.465 L3727.5 394.939 Q3727.5 399.08 3729.11 401.163 Q3730.73 403.221 3733.95 403.221 Q3737.83 403.221 3740.07 400.747 Q3742.34 398.273 3742.34 394.002 L3742.34 377.465 L3747.13 377.465 L3747.13 406.632 L3742.34 406.632 L3742.34 402.153 Q3740.6 404.809 3738.28 406.111 Q3735.99 407.387 3732.94 407.387 Q3727.91 407.387 3725.31 404.262 Q3722.7 401.137 3722.7 395.122 M3734.76 376.762 L3734.76 376.762 Z" fill="#000000" fill-rule="nonzero" fill-opacity="1" /><path clip-path="url(#clip960)" d="M3770.26 391.971 Q3764.45 391.971 3762.21 393.299 Q3759.97 394.627 3759.97 397.83 Q3759.97 400.382 3761.64 401.892 Q3763.33 403.377 3766.22 403.377 Q3770.2 403.377 3772.6 400.564 Q3775.02 397.726 3775.02 393.038 L3775.02 391.971 L3770.26 391.971 M3779.81 389.991 L3779.81 406.632 L3775.02 406.632 L3775.02 402.205 Q3773.38 404.861 3770.93 406.137 Q3768.49 407.387 3764.94 407.387 Q3760.46 407.387 3757.81 404.887 Q3755.18 402.361 3755.18 398.142 Q3755.18 393.221 3758.46 390.721 Q3761.77 388.221 3768.3 388.221 L3775.02 388.221 L3775.02 387.752 Q3775.02 384.445 3772.83 382.648 Q3770.67 380.825 3766.74 380.825 Q3764.24 380.825 3761.87 381.424 Q3759.5 382.023 3757.31 383.221 L3757.31 378.794 Q3759.94 377.778 3762.42 377.283 Q3764.89 376.762 3767.24 376.762 Q3773.56 376.762 3776.69 380.044 Q3779.81 383.325 3779.81 389.991 Z" fill="#000000" fill-rule="nonzero" fill-opacity="1" /><path clip-path="url(#clip960)" d="M3789.68 366.111 L3794.48 366.111 L3794.48 406.632 L3789.68 406.632 L3789.68 366.111 Z" fill="#000000" fill-rule="nonzero" fill-opacity="1" /></svg>
