<?xml version="1.0" encoding="utf-8"?>
<svg xmlns="http://www.w3.org/2000/svg" xmlns:xlink="http://www.w3.org/1999/xlink" width="1000" height="400" viewBox="0 0 4000 1600">
<defs>
  <clipPath id="clip700">
    <rect x="0" y="0" width="4000" height="1600"/>
  </clipPath>
</defs>
<path clip-path="url(#clip700)" d="M0 1600 L4000 1600 L4000 0 L0 0  Z" fill="#ffffff" fill-rule="evenodd" fill-opacity="1"/>
<defs>
  <clipPath id="clip701">
    <rect x="800" y="0" width="2801" height="1600"/>
  </clipPath>
</defs>
<path clip-path="url(#clip700)" d="M254.009 1497.68 L3186.93 1497.68 L3186.93 47.2441 L254.009 47.2441  Z" fill="#ffffff" fill-rule="evenodd" fill-opacity="1"/>
<defs>
  <clipPath id="clip702">
    <rect x="254" y="47" width="2934" height="1451"/>
  </clipPath>
</defs>
<polyline clip-path="url(#clip702)" style="stroke:#000000; stroke-linecap:round; stroke-linejoin:round; stroke-width:2; stroke-opacity:0.1; fill:none" points="337.016,1497.68 337.016,47.2441 "/>
<polyline clip-path="url(#clip702)" style="stroke:#000000; stroke-linecap:round; stroke-linejoin:round; stroke-width:2; stroke-opacity:0.1; fill:none" points="1132.3,1497.68 1132.3,47.2441 "/>
<polyline clip-path="url(#clip702)" style="stroke:#000000; stroke-linecap:round; stroke-linejoin:round; stroke-width:2; stroke-opacity:0.1; fill:none" points="1927.58,1497.68 1927.58,47.2441 "/>
<polyline clip-path="url(#clip702)" style="stroke:#000000; stroke-linecap:round; stroke-linejoin:round; stroke-width:2; stroke-opacity:0.1; fill:none" points="2722.86,1497.68 2722.86,47.2441 "/>
<polyline clip-path="url(#clip700)" style="stroke:#000000; stroke-linecap:round; stroke-linejoin:round; stroke-width:4; stroke-opacity:1; fill:none" points="254.009,1497.68 3186.93,1497.68 "/>
<polyline clip-path="url(#clip700)" style="stroke:#000000; stroke-linecap:round; stroke-linejoin:round; stroke-width:4; stroke-opacity:1; fill:none" points="337.016,1497.68 337.016,1478.78 "/>
<polyline clip-path="url(#clip700)" style="stroke:#000000; stroke-linecap:round; stroke-linejoin:round; stroke-width:4; stroke-opacity:1; fill:none" points="1132.3,1497.68 1132.3,1478.78 "/>
<polyline clip-path="url(#clip700)" style="stroke:#000000; stroke-linecap:round; stroke-linejoin:round; stroke-width:4; stroke-opacity:1; fill:none" points="1927.58,1497.68 1927.58,1478.78 "/>
<polyline clip-path="url(#clip700)" style="stroke:#000000; stroke-linecap:round; stroke-linejoin:round; stroke-width:4; stroke-opacity:1; fill:none" points="2722.86,1497.68 2722.86,1478.78 "/>
<path clip-path="url(#clip700)" d="M192.199 1573.85 L210.558 1573.85 L210.558 1578.28 L185.871 1578.28 L185.871 1573.85 Q188.866 1570.75 194.022 1565.55 Q199.204 1560.31 200.532 1558.8 Q203.058 1555.96 204.048 1554.01 Q205.063 1552.03 205.063 1550.13 Q205.063 1547.03 202.876 1545.08 Q200.715 1543.12 197.225 1543.12 Q194.751 1543.12 191.991 1543.98 Q189.256 1544.84 186.131 1546.59 L186.131 1541.27 Q189.308 1540 192.069 1539.35 Q194.829 1538.7 197.121 1538.7 Q203.162 1538.7 206.756 1541.72 Q210.35 1544.74 210.35 1549.79 Q210.35 1552.19 209.438 1554.35 Q208.553 1556.48 206.183 1559.4 Q205.532 1560.15 202.043 1563.77 Q198.553 1567.37 192.199 1573.85 Z" fill="#000000" fill-rule="nonzero" fill-opacity="1" /><path clip-path="url(#clip700)" d="M232.85 1542.86 Q228.787 1542.86 226.73 1546.87 Q224.699 1550.86 224.699 1558.88 Q224.699 1566.87 226.73 1570.88 Q228.787 1574.87 232.85 1574.87 Q236.938 1574.87 238.97 1570.88 Q241.027 1566.87 241.027 1558.88 Q241.027 1550.86 238.97 1546.87 Q236.938 1542.86 232.85 1542.86 M232.85 1538.7 Q239.386 1538.7 242.824 1543.88 Q246.287 1549.04 246.287 1558.88 Q246.287 1568.7 242.824 1573.88 Q239.386 1579.04 232.85 1579.04 Q226.313 1579.04 222.85 1573.88 Q219.412 1568.7 219.412 1558.88 Q219.412 1549.04 222.85 1543.88 Q226.313 1538.7 232.85 1538.7 Z" fill="#000000" fill-rule="nonzero" fill-opacity="1" /><path clip-path="url(#clip700)" d="M260.063 1573.85 L278.422 1573.85 L278.422 1578.28 L253.735 1578.28 L253.735 1573.85 Q256.73 1570.75 261.886 1565.55 Q267.068 1560.31 268.396 1558.8 Q270.922 1555.96 271.912 1554.01 Q272.928 1552.03 272.928 1550.13 Q272.928 1547.03 270.74 1545.08 Q268.579 1543.12 265.089 1543.12 Q262.615 1543.12 259.855 1543.98 Q257.12 1544.84 253.995 1546.59 L253.995 1541.27 Q257.173 1540 259.933 1539.35 Q262.693 1538.7 264.985 1538.7 Q271.027 1538.7 274.62 1541.72 Q278.214 1544.74 278.214 1549.79 Q278.214 1552.19 277.303 1554.35 Q276.417 1556.48 274.047 1559.4 Q273.396 1560.15 269.907 1563.77 Q266.417 1567.37 260.063 1573.85 Z" fill="#000000" fill-rule="nonzero" fill-opacity="1" /><path clip-path="url(#clip700)" d="M305.401 1557.32 Q309.177 1558.12 311.287 1560.68 Q313.422 1563.23 313.422 1566.98 Q313.422 1572.73 309.464 1575.88 Q305.506 1579.04 298.214 1579.04 Q295.766 1579.04 293.162 1578.54 Q290.584 1578.07 287.823 1577.11 L287.823 1572.03 Q290.011 1573.31 292.615 1573.96 Q295.219 1574.61 298.058 1574.61 Q303.006 1574.61 305.584 1572.65 Q308.188 1570.7 308.188 1566.98 Q308.188 1563.54 305.766 1561.61 Q303.37 1559.66 299.073 1559.66 L294.542 1559.66 L294.542 1555.34 L299.282 1555.34 Q303.162 1555.34 305.219 1553.8 Q307.276 1552.24 307.276 1549.32 Q307.276 1546.33 305.141 1544.74 Q303.032 1543.12 299.073 1543.12 Q296.912 1543.12 294.438 1543.59 Q291.964 1544.06 288.995 1545.05 L288.995 1540.36 Q291.99 1539.53 294.594 1539.11 Q297.224 1538.7 299.542 1538.7 Q305.532 1538.7 309.021 1541.43 Q312.511 1544.14 312.511 1548.77 Q312.511 1552 310.662 1554.24 Q308.813 1556.46 305.401 1557.32 Z" fill="#000000" fill-rule="nonzero" fill-opacity="1" /><path clip-path="url(#clip700)" d="M320.297 1561.54 L334.334 1561.54 L334.334 1565.81 L320.297 1565.81 L320.297 1561.54 Z" fill="#000000" fill-rule="nonzero" fill-opacity="1" /><path clip-path="url(#clip700)" d="M353.891 1542.86 Q349.828 1542.86 347.771 1546.87 Q345.74 1550.86 345.74 1558.88 Q345.74 1566.87 347.771 1570.88 Q349.828 1574.87 353.891 1574.87 Q357.979 1574.87 360.011 1570.88 Q362.068 1566.87 362.068 1558.88 Q362.068 1550.86 360.011 1546.87 Q357.979 1542.86 353.891 1542.86 M353.891 1538.7 Q360.427 1538.7 363.865 1543.88 Q367.328 1549.04 367.328 1558.88 Q367.328 1568.7 363.865 1573.88 Q360.427 1579.04 353.891 1579.04 Q347.354 1579.04 343.891 1573.88 Q340.453 1568.7 340.453 1558.88 Q340.453 1549.04 343.891 1543.88 Q347.354 1538.7 353.891 1538.7 Z" fill="#000000" fill-rule="nonzero" fill-opacity="1" /><path clip-path="url(#clip700)" d="M377.484 1573.85 L386.078 1573.85 L386.078 1544.19 L376.729 1546.07 L376.729 1541.27 L386.026 1539.4 L391.286 1539.4 L391.286 1573.85 L399.88 1573.85 L399.88 1578.28 L377.484 1578.28 L377.484 1573.85 Z" fill="#000000" fill-rule="nonzero" fill-opacity="1" /><path clip-path="url(#clip700)" d="M407.406 1561.54 L421.443 1561.54 L421.443 1565.81 L407.406 1565.81 L407.406 1561.54 Z" fill="#000000" fill-rule="nonzero" fill-opacity="1" /><path clip-path="url(#clip700)" d="M441 1542.86 Q436.937 1542.86 434.88 1546.87 Q432.849 1550.86 432.849 1558.88 Q432.849 1566.87 434.88 1570.88 Q436.937 1574.87 441 1574.87 Q445.088 1574.87 447.119 1570.88 Q449.177 1566.87 449.177 1558.88 Q449.177 1550.86 447.119 1546.87 Q445.088 1542.86 441 1542.86 M441 1538.7 Q447.536 1538.7 450.974 1543.88 Q454.437 1549.04 454.437 1558.88 Q454.437 1568.7 450.974 1573.88 Q447.536 1579.04 441 1579.04 Q434.463 1579.04 431 1573.88 Q427.562 1568.7 427.562 1558.88 Q427.562 1549.04 431 1543.88 Q434.463 1538.7 441 1538.7 Z" fill="#000000" fill-rule="nonzero" fill-opacity="1" /><path clip-path="url(#clip700)" d="M463.838 1577.47 L463.838 1572.68 Q465.817 1573.62 467.849 1574.11 Q469.88 1574.61 471.833 1574.61 Q477.041 1574.61 479.776 1571.12 Q482.536 1567.6 482.927 1560.47 Q481.416 1562.71 479.098 1563.9 Q476.781 1565.1 473.968 1565.1 Q468.135 1565.1 464.724 1561.59 Q461.338 1558.05 461.338 1551.93 Q461.338 1545.94 464.88 1542.32 Q468.421 1538.7 474.307 1538.7 Q481.052 1538.7 484.593 1543.88 Q488.161 1549.04 488.161 1558.88 Q488.161 1568.07 483.786 1573.57 Q479.437 1579.04 472.067 1579.04 Q470.088 1579.04 468.057 1578.64 Q466.026 1578.25 463.838 1577.47 M474.307 1560.99 Q477.848 1560.99 479.906 1558.57 Q481.989 1556.14 481.989 1551.93 Q481.989 1547.73 479.906 1545.31 Q477.848 1542.86 474.307 1542.86 Q470.765 1542.86 468.682 1545.31 Q466.625 1547.73 466.625 1551.93 Q466.625 1556.14 468.682 1558.57 Q470.765 1560.99 474.307 1560.99 Z" fill="#000000" fill-rule="nonzero" fill-opacity="1" /><path clip-path="url(#clip700)" d="M988.065 1573.85 L1006.42 1573.85 L1006.42 1578.28 L981.737 1578.28 L981.737 1573.85 Q984.732 1570.75 989.888 1565.55 Q995.07 1560.31 996.398 1558.8 Q998.924 1555.96 999.914 1554.01 Q1000.93 1552.03 1000.93 1550.13 Q1000.93 1547.03 998.742 1545.08 Q996.58 1543.12 993.091 1543.12 Q990.617 1543.12 987.857 1543.98 Q985.122 1544.84 981.997 1546.59 L981.997 1541.27 Q985.174 1540 987.935 1539.35 Q990.695 1538.7 992.987 1538.7 Q999.028 1538.7 1002.62 1541.72 Q1006.22 1544.74 1006.22 1549.79 Q1006.22 1552.19 1005.3 1554.35 Q1004.42 1556.48 1002.05 1559.4 Q1001.4 1560.15 997.909 1563.77 Q994.419 1567.37 988.065 1573.85 Z" fill="#000000" fill-rule="nonzero" fill-opacity="1" /><path clip-path="url(#clip700)" d="M1028.72 1542.86 Q1024.65 1542.86 1022.6 1546.87 Q1020.56 1550.86 1020.56 1558.88 Q1020.56 1566.87 1022.6 1570.88 Q1024.65 1574.87 1028.72 1574.87 Q1032.8 1574.87 1034.84 1570.88 Q1036.89 1566.87 1036.89 1558.88 Q1036.89 1550.86 1034.84 1546.87 Q1032.8 1542.86 1028.72 1542.86 M1028.72 1538.7 Q1035.25 1538.7 1038.69 1543.88 Q1042.15 1549.04 1042.15 1558.88 Q1042.15 1568.7 1038.69 1573.88 Q1035.25 1579.04 1028.72 1579.04 Q1022.18 1579.04 1018.72 1573.88 Q1015.28 1568.7 1015.28 1558.88 Q1015.28 1549.04 1018.72 1543.88 Q1022.18 1538.7 1028.72 1538.7 Z" fill="#000000" fill-rule="nonzero" fill-opacity="1" /><path clip-path="url(#clip700)" d="M1055.93 1573.85 L1074.29 1573.85 L1074.29 1578.28 L1049.6 1578.28 L1049.6 1573.85 Q1052.6 1570.75 1057.75 1565.55 Q1062.93 1560.31 1064.26 1558.8 Q1066.79 1555.96 1067.78 1554.01 Q1068.79 1552.03 1068.79 1550.13 Q1068.79 1547.03 1066.61 1545.08 Q1064.44 1543.12 1060.96 1543.12 Q1058.48 1543.12 1055.72 1543.98 Q1052.99 1544.84 1049.86 1546.59 L1049.86 1541.27 Q1053.04 1540 1055.8 1539.35 Q1058.56 1538.7 1060.85 1538.7 Q1066.89 1538.7 1070.49 1541.72 Q1074.08 1544.74 1074.08 1549.79 Q1074.08 1552.19 1073.17 1554.35 Q1072.28 1556.48 1069.91 1559.4 Q1069.26 1560.15 1065.77 1563.77 Q1062.28 1567.37 1055.93 1573.85 Z" fill="#000000" fill-rule="nonzero" fill-opacity="1" /><path clip-path="url(#clip700)" d="M1101.27 1557.32 Q1105.04 1558.12 1107.15 1560.68 Q1109.29 1563.23 1109.29 1566.98 Q1109.29 1572.73 1105.33 1575.88 Q1101.37 1579.04 1094.08 1579.04 Q1091.63 1579.04 1089.03 1578.54 Q1086.45 1578.07 1083.69 1577.11 L1083.69 1572.03 Q1085.88 1573.31 1088.48 1573.96 Q1091.09 1574.61 1093.92 1574.61 Q1098.87 1574.61 1101.45 1572.65 Q1104.05 1570.7 1104.05 1566.98 Q1104.05 1563.54 1101.63 1561.61 Q1099.24 1559.66 1094.94 1559.66 L1090.41 1559.66 L1090.41 1555.34 L1095.15 1555.34 Q1099.03 1555.34 1101.09 1553.8 Q1103.14 1552.24 1103.14 1549.32 Q1103.14 1546.33 1101.01 1544.74 Q1098.9 1543.12 1094.94 1543.12 Q1092.78 1543.12 1090.3 1543.59 Q1087.83 1544.06 1084.86 1545.05 L1084.86 1540.36 Q1087.86 1539.53 1090.46 1539.11 Q1093.09 1538.7 1095.41 1538.7 Q1101.4 1538.7 1104.89 1541.43 Q1108.38 1544.14 1108.38 1548.77 Q1108.38 1552 1106.53 1554.24 Q1104.68 1556.46 1101.27 1557.32 Z" fill="#000000" fill-rule="nonzero" fill-opacity="1" /><path clip-path="url(#clip700)" d="M1116.16 1561.54 L1130.2 1561.54 L1130.2 1565.81 L1116.16 1565.81 L1116.16 1561.54 Z" fill="#000000" fill-rule="nonzero" fill-opacity="1" /><path clip-path="url(#clip700)" d="M1149.76 1542.86 Q1145.69 1542.86 1143.64 1546.87 Q1141.61 1550.86 1141.61 1558.88 Q1141.61 1566.87 1143.64 1570.88 Q1145.69 1574.87 1149.76 1574.87 Q1153.85 1574.87 1155.88 1570.88 Q1157.93 1566.87 1157.93 1558.88 Q1157.93 1550.86 1155.88 1546.87 Q1153.85 1542.86 1149.76 1542.86 M1149.76 1538.7 Q1156.29 1538.7 1159.73 1543.88 Q1163.19 1549.04 1163.19 1558.88 Q1163.19 1568.7 1159.73 1573.88 Q1156.29 1579.04 1149.76 1579.04 Q1143.22 1579.04 1139.76 1573.88 Q1136.32 1568.7 1136.32 1558.88 Q1136.32 1549.04 1139.76 1543.88 Q1143.22 1538.7 1149.76 1538.7 Z" fill="#000000" fill-rule="nonzero" fill-opacity="1" /><path clip-path="url(#clip700)" d="M1173.35 1573.85 L1181.94 1573.85 L1181.94 1544.19 L1172.6 1546.07 L1172.6 1541.27 L1181.89 1539.4 L1187.15 1539.4 L1187.15 1573.85 L1195.75 1573.85 L1195.75 1578.28 L1173.35 1578.28 L1173.35 1573.85 Z" fill="#000000" fill-rule="nonzero" fill-opacity="1" /><path clip-path="url(#clip700)" d="M1203.27 1561.54 L1217.31 1561.54 L1217.31 1565.81 L1203.27 1565.81 L1203.27 1561.54 Z" fill="#000000" fill-rule="nonzero" fill-opacity="1" /><path clip-path="url(#clip700)" d="M1226.53 1573.85 L1235.12 1573.85 L1235.12 1544.19 L1225.77 1546.07 L1225.77 1541.27 L1235.07 1539.4 L1240.33 1539.4 L1240.33 1573.85 L1248.92 1573.85 L1248.92 1578.28 L1226.53 1578.28 L1226.53 1573.85 Z" fill="#000000" fill-rule="nonzero" fill-opacity="1" /><path clip-path="url(#clip700)" d="M1260.46 1573.85 L1269.05 1573.85 L1269.05 1544.19 L1259.7 1546.07 L1259.7 1541.27 L1269 1539.4 L1274.26 1539.4 L1274.26 1573.85 L1282.85 1573.85 L1282.85 1578.28 L1260.46 1578.28 L1260.46 1573.85 Z" fill="#000000" fill-rule="nonzero" fill-opacity="1" /><path clip-path="url(#clip700)" d="M1783.02 1573.85 L1801.38 1573.85 L1801.38 1578.28 L1776.69 1578.28 L1776.69 1573.85 Q1779.69 1570.75 1784.84 1565.55 Q1790.02 1560.31 1791.35 1558.8 Q1793.88 1555.96 1794.87 1554.01 Q1795.88 1552.03 1795.88 1550.13 Q1795.88 1547.03 1793.7 1545.08 Q1791.53 1543.12 1788.05 1543.12 Q1785.57 1543.12 1782.81 1543.98 Q1780.08 1544.84 1776.95 1546.59 L1776.95 1541.27 Q1780.13 1540 1782.89 1539.35 Q1785.65 1538.7 1787.94 1538.7 Q1793.98 1538.7 1797.58 1541.72 Q1801.17 1544.74 1801.17 1549.79 Q1801.17 1552.19 1800.26 1554.35 Q1799.37 1556.48 1797 1559.4 Q1796.35 1560.15 1792.86 1563.77 Q1789.37 1567.37 1783.02 1573.85 Z" fill="#000000" fill-rule="nonzero" fill-opacity="1" /><path clip-path="url(#clip700)" d="M1823.67 1542.86 Q1819.61 1542.86 1817.55 1546.87 Q1815.52 1550.86 1815.52 1558.88 Q1815.52 1566.87 1817.55 1570.88 Q1819.61 1574.87 1823.67 1574.87 Q1827.76 1574.87 1829.79 1570.88 Q1831.85 1566.87 1831.85 1558.88 Q1831.85 1550.86 1829.79 1546.87 Q1827.76 1542.86 1823.67 1542.86 M1823.67 1538.7 Q1830.21 1538.7 1833.64 1543.88 Q1837.11 1549.04 1837.11 1558.88 Q1837.11 1568.7 1833.64 1573.88 Q1830.21 1579.04 1823.67 1579.04 Q1817.13 1579.04 1813.67 1573.88 Q1810.23 1568.7 1810.23 1558.88 Q1810.23 1549.04 1813.67 1543.88 Q1817.13 1538.7 1823.67 1538.7 Z" fill="#000000" fill-rule="nonzero" fill-opacity="1" /><path clip-path="url(#clip700)" d="M1850.88 1573.85 L1869.24 1573.85 L1869.24 1578.28 L1844.56 1578.28 L1844.56 1573.85 Q1847.55 1570.75 1852.71 1565.55 Q1857.89 1560.31 1859.22 1558.8 Q1861.74 1555.96 1862.73 1554.01 Q1863.75 1552.03 1863.75 1550.13 Q1863.75 1547.03 1861.56 1545.08 Q1859.4 1543.12 1855.91 1543.12 Q1853.44 1543.12 1850.68 1543.98 Q1847.94 1544.84 1844.82 1546.59 L1844.82 1541.27 Q1847.99 1540 1850.75 1539.35 Q1853.51 1538.7 1855.81 1538.7 Q1861.85 1538.7 1865.44 1541.72 Q1869.03 1544.74 1869.03 1549.79 Q1869.03 1552.19 1868.12 1554.35 Q1867.24 1556.48 1864.87 1559.4 Q1864.22 1560.15 1860.73 1563.77 Q1857.24 1567.37 1850.88 1573.85 Z" fill="#000000" fill-rule="nonzero" fill-opacity="1" /><path clip-path="url(#clip700)" d="M1896.22 1557.32 Q1900 1558.12 1902.11 1560.68 Q1904.24 1563.23 1904.24 1566.98 Q1904.24 1572.73 1900.28 1575.88 Q1896.33 1579.04 1889.03 1579.04 Q1886.59 1579.04 1883.98 1578.54 Q1881.4 1578.07 1878.64 1577.11 L1878.64 1572.03 Q1880.83 1573.31 1883.44 1573.96 Q1886.04 1574.61 1888.88 1574.61 Q1893.83 1574.61 1896.4 1572.65 Q1899.01 1570.7 1899.01 1566.98 Q1899.01 1563.54 1896.59 1561.61 Q1894.19 1559.66 1889.89 1559.66 L1885.36 1559.66 L1885.36 1555.34 L1890.1 1555.34 Q1893.98 1555.34 1896.04 1553.8 Q1898.1 1552.24 1898.1 1549.32 Q1898.1 1546.33 1895.96 1544.74 Q1893.85 1543.12 1889.89 1543.12 Q1887.73 1543.12 1885.26 1543.59 Q1882.78 1544.06 1879.82 1545.05 L1879.82 1540.36 Q1882.81 1539.53 1885.41 1539.11 Q1888.04 1538.7 1890.36 1538.7 Q1896.35 1538.7 1899.84 1541.43 Q1903.33 1544.14 1903.33 1548.77 Q1903.33 1552 1901.48 1554.24 Q1899.63 1556.46 1896.22 1557.32 Z" fill="#000000" fill-rule="nonzero" fill-opacity="1" /><path clip-path="url(#clip700)" d="M1911.12 1561.54 L1925.15 1561.54 L1925.15 1565.81 L1911.12 1565.81 L1911.12 1561.54 Z" fill="#000000" fill-rule="nonzero" fill-opacity="1" /><path clip-path="url(#clip700)" d="M1944.71 1542.86 Q1940.65 1542.86 1938.59 1546.87 Q1936.56 1550.86 1936.56 1558.88 Q1936.56 1566.87 1938.59 1570.88 Q1940.65 1574.87 1944.71 1574.87 Q1948.8 1574.87 1950.83 1570.88 Q1952.89 1566.87 1952.89 1558.88 Q1952.89 1550.86 1950.83 1546.87 Q1948.8 1542.86 1944.71 1542.86 M1944.71 1538.7 Q1951.25 1538.7 1954.69 1543.88 Q1958.15 1549.04 1958.15 1558.88 Q1958.15 1568.7 1954.69 1573.88 Q1951.25 1579.04 1944.71 1579.04 Q1938.17 1579.04 1934.71 1573.88 Q1931.27 1568.7 1931.27 1558.88 Q1931.27 1549.04 1934.71 1543.88 Q1938.17 1538.7 1944.71 1538.7 Z" fill="#000000" fill-rule="nonzero" fill-opacity="1" /><path clip-path="url(#clip700)" d="M1968.3 1573.85 L1976.9 1573.85 L1976.9 1544.19 L1967.55 1546.07 L1967.55 1541.27 L1976.85 1539.4 L1982.11 1539.4 L1982.11 1573.85 L1990.7 1573.85 L1990.7 1578.28 L1968.3 1578.28 L1968.3 1573.85 Z" fill="#000000" fill-rule="nonzero" fill-opacity="1" /><path clip-path="url(#clip700)" d="M1998.23 1561.54 L2012.26 1561.54 L2012.26 1565.81 L1998.23 1565.81 L1998.23 1561.54 Z" fill="#000000" fill-rule="nonzero" fill-opacity="1" /><path clip-path="url(#clip700)" d="M2021.48 1573.85 L2030.08 1573.85 L2030.08 1544.19 L2020.73 1546.07 L2020.73 1541.27 L2030.02 1539.4 L2035.28 1539.4 L2035.28 1573.85 L2043.88 1573.85 L2043.88 1578.28 L2021.48 1578.28 L2021.48 1573.85 Z" fill="#000000" fill-rule="nonzero" fill-opacity="1" /><path clip-path="url(#clip700)" d="M2070.44 1557.32 Q2074.22 1558.12 2076.33 1560.68 Q2078.46 1563.23 2078.46 1566.98 Q2078.46 1572.73 2074.5 1575.88 Q2070.54 1579.04 2063.25 1579.04 Q2060.8 1579.04 2058.2 1578.54 Q2055.62 1578.07 2052.86 1577.11 L2052.86 1572.03 Q2055.05 1573.31 2057.65 1573.96 Q2060.26 1574.61 2063.1 1574.61 Q2068.04 1574.61 2070.62 1572.65 Q2073.23 1570.7 2073.23 1566.98 Q2073.23 1563.54 2070.8 1561.61 Q2068.41 1559.66 2064.11 1559.66 L2059.58 1559.66 L2059.58 1555.34 L2064.32 1555.34 Q2068.2 1555.34 2070.26 1553.8 Q2072.31 1552.24 2072.31 1549.32 Q2072.31 1546.33 2070.18 1544.74 Q2068.07 1543.12 2064.11 1543.12 Q2061.95 1543.12 2059.48 1543.59 Q2057 1544.06 2054.03 1545.05 L2054.03 1540.36 Q2057.03 1539.53 2059.63 1539.11 Q2062.26 1538.7 2064.58 1538.7 Q2070.57 1538.7 2074.06 1541.43 Q2077.55 1544.14 2077.55 1548.77 Q2077.55 1552 2075.7 1554.24 Q2073.85 1556.46 2070.44 1557.32 Z" fill="#000000" fill-rule="nonzero" fill-opacity="1" /><path clip-path="url(#clip700)" d="M2578.49 1573.85 L2596.85 1573.85 L2596.85 1578.28 L2572.17 1578.28 L2572.17 1573.85 Q2575.16 1570.75 2580.32 1565.55 Q2585.5 1560.31 2586.83 1558.8 Q2589.35 1555.96 2590.34 1554.01 Q2591.36 1552.03 2591.36 1550.13 Q2591.36 1547.03 2589.17 1545.08 Q2587.01 1543.12 2583.52 1543.12 Q2581.05 1543.12 2578.29 1543.98 Q2575.55 1544.84 2572.43 1546.59 L2572.43 1541.27 Q2575.6 1540 2578.36 1539.35 Q2581.12 1538.7 2583.42 1538.7 Q2589.46 1538.7 2593.05 1541.72 Q2596.65 1544.74 2596.65 1549.79 Q2596.65 1552.19 2595.73 1554.35 Q2594.85 1556.48 2592.48 1559.4 Q2591.83 1560.15 2588.34 1563.77 Q2584.85 1567.37 2578.49 1573.85 Z" fill="#000000" fill-rule="nonzero" fill-opacity="1" /><path clip-path="url(#clip700)" d="M2619.15 1542.86 Q2615.08 1542.86 2613.03 1546.87 Q2610.99 1550.86 2610.99 1558.88 Q2610.99 1566.87 2613.03 1570.88 Q2615.08 1574.87 2619.15 1574.87 Q2623.23 1574.87 2625.27 1570.88 Q2627.32 1566.87 2627.32 1558.88 Q2627.32 1550.86 2625.27 1546.87 Q2623.23 1542.86 2619.15 1542.86 M2619.15 1538.7 Q2625.68 1538.7 2629.12 1543.88 Q2632.58 1549.04 2632.58 1558.88 Q2632.58 1568.7 2629.12 1573.88 Q2625.68 1579.04 2619.15 1579.04 Q2612.61 1579.04 2609.15 1573.88 Q2605.71 1568.7 2605.71 1558.88 Q2605.71 1549.04 2609.15 1543.88 Q2612.61 1538.7 2619.15 1538.7 Z" fill="#000000" fill-rule="nonzero" fill-opacity="1" /><path clip-path="url(#clip700)" d="M2646.36 1573.85 L2664.72 1573.85 L2664.72 1578.28 L2640.03 1578.28 L2640.03 1573.85 Q2643.03 1570.75 2648.18 1565.55 Q2653.36 1560.31 2654.69 1558.8 Q2657.22 1555.96 2658.21 1554.01 Q2659.22 1552.03 2659.22 1550.13 Q2659.22 1547.03 2657.04 1545.08 Q2654.87 1543.12 2651.38 1543.12 Q2648.91 1543.12 2646.15 1543.98 Q2643.42 1544.84 2640.29 1546.59 L2640.29 1541.27 Q2643.47 1540 2646.23 1539.35 Q2648.99 1538.7 2651.28 1538.7 Q2657.32 1538.7 2660.92 1541.72 Q2664.51 1544.74 2664.51 1549.79 Q2664.51 1552.19 2663.6 1554.35 Q2662.71 1556.48 2660.34 1559.4 Q2659.69 1560.15 2656.2 1563.77 Q2652.71 1567.37 2646.36 1573.85 Z" fill="#000000" fill-rule="nonzero" fill-opacity="1" /><path clip-path="url(#clip700)" d="M2691.7 1557.32 Q2695.47 1558.12 2697.58 1560.68 Q2699.72 1563.23 2699.72 1566.98 Q2699.72 1572.73 2695.76 1575.88 Q2691.8 1579.04 2684.51 1579.04 Q2682.06 1579.04 2679.46 1578.54 Q2676.88 1578.07 2674.12 1577.11 L2674.12 1572.03 Q2676.31 1573.31 2678.91 1573.96 Q2681.51 1574.61 2684.35 1574.61 Q2689.3 1574.61 2691.88 1572.65 Q2694.48 1570.7 2694.48 1566.98 Q2694.48 1563.54 2692.06 1561.61 Q2689.67 1559.66 2685.37 1559.66 L2680.84 1559.66 L2680.84 1555.34 L2685.58 1555.34 Q2689.46 1555.34 2691.51 1553.8 Q2693.57 1552.24 2693.57 1549.32 Q2693.57 1546.33 2691.44 1544.74 Q2689.33 1543.12 2685.37 1543.12 Q2683.21 1543.12 2680.73 1543.59 Q2678.26 1544.06 2675.29 1545.05 L2675.29 1540.36 Q2678.29 1539.53 2680.89 1539.11 Q2683.52 1538.7 2685.84 1538.7 Q2691.83 1538.7 2695.32 1541.43 Q2698.81 1544.14 2698.81 1548.77 Q2698.81 1552 2696.96 1554.24 Q2695.11 1556.46 2691.7 1557.32 Z" fill="#000000" fill-rule="nonzero" fill-opacity="1" /><path clip-path="url(#clip700)" d="M2706.59 1561.54 L2720.63 1561.54 L2720.63 1565.81 L2706.59 1565.81 L2706.59 1561.54 Z" fill="#000000" fill-rule="nonzero" fill-opacity="1" /><path clip-path="url(#clip700)" d="M2740.19 1542.86 Q2736.12 1542.86 2734.07 1546.87 Q2732.04 1550.86 2732.04 1558.88 Q2732.04 1566.87 2734.07 1570.88 Q2736.12 1574.87 2740.19 1574.87 Q2744.27 1574.87 2746.31 1570.88 Q2748.36 1566.87 2748.36 1558.88 Q2748.36 1550.86 2746.31 1546.87 Q2744.27 1542.86 2740.19 1542.86 M2740.19 1538.7 Q2746.72 1538.7 2750.16 1543.88 Q2753.62 1549.04 2753.62 1558.88 Q2753.62 1568.7 2750.16 1573.88 Q2746.72 1579.04 2740.19 1579.04 Q2733.65 1579.04 2730.19 1573.88 Q2726.75 1568.7 2726.75 1558.88 Q2726.75 1549.04 2730.19 1543.88 Q2733.65 1538.7 2740.19 1538.7 Z" fill="#000000" fill-rule="nonzero" fill-opacity="1" /><path clip-path="url(#clip700)" d="M2763.78 1573.85 L2772.37 1573.85 L2772.37 1544.19 L2763.02 1546.07 L2763.02 1541.27 L2772.32 1539.4 L2777.58 1539.4 L2777.58 1573.85 L2786.18 1573.85 L2786.18 1578.28 L2763.78 1578.28 L2763.78 1573.85 Z" fill="#000000" fill-rule="nonzero" fill-opacity="1" /><path clip-path="url(#clip700)" d="M2793.7 1561.54 L2807.74 1561.54 L2807.74 1565.81 L2793.7 1565.81 L2793.7 1561.54 Z" fill="#000000" fill-rule="nonzero" fill-opacity="1" /><path clip-path="url(#clip700)" d="M2816.96 1573.85 L2825.55 1573.85 L2825.55 1544.19 L2816.2 1546.07 L2816.2 1541.27 L2825.5 1539.4 L2830.76 1539.4 L2830.76 1573.85 L2839.35 1573.85 L2839.35 1578.28 L2816.96 1578.28 L2816.96 1573.85 Z" fill="#000000" fill-rule="nonzero" fill-opacity="1" /><path clip-path="url(#clip700)" d="M2850.03 1539.4 L2870.68 1539.4 L2870.68 1543.83 L2854.85 1543.83 L2854.85 1553.36 Q2855.99 1552.97 2857.14 1552.79 Q2858.28 1552.58 2859.43 1552.58 Q2865.94 1552.58 2869.74 1556.14 Q2873.55 1559.71 2873.55 1565.81 Q2873.55 1572.08 2869.64 1575.57 Q2865.73 1579.04 2858.62 1579.04 Q2856.18 1579.04 2853.62 1578.62 Q2851.1 1578.2 2848.39 1577.37 L2848.39 1572.08 Q2850.73 1573.36 2853.23 1573.98 Q2855.73 1574.61 2858.52 1574.61 Q2863.02 1574.61 2865.65 1572.24 Q2868.28 1569.87 2868.28 1565.81 Q2868.28 1561.74 2865.65 1559.37 Q2863.02 1557 2858.52 1557 Q2856.41 1557 2854.3 1557.47 Q2852.22 1557.94 2850.03 1558.93 L2850.03 1539.4 Z" fill="#000000" fill-rule="nonzero" fill-opacity="1" /><polyline clip-path="url(#clip702)" style="stroke:#000000; stroke-linecap:round; stroke-linejoin:round; stroke-width:2; stroke-opacity:0.1; fill:none" points="254.009,1430.05 3186.93,1430.05 "/>
<polyline clip-path="url(#clip702)" style="stroke:#000000; stroke-linecap:round; stroke-linejoin:round; stroke-width:2; stroke-opacity:0.1; fill:none" points="254.009,1141.13 3186.93,1141.13 "/>
<polyline clip-path="url(#clip702)" style="stroke:#000000; stroke-linecap:round; stroke-linejoin:round; stroke-width:2; stroke-opacity:0.1; fill:none" points="254.009,852.205 3186.93,852.205 "/>
<polyline clip-path="url(#clip702)" style="stroke:#000000; stroke-linecap:round; stroke-linejoin:round; stroke-width:2; stroke-opacity:0.1; fill:none" points="254.009,563.282 3186.93,563.282 "/>
<polyline clip-path="url(#clip702)" style="stroke:#000000; stroke-linecap:round; stroke-linejoin:round; stroke-width:2; stroke-opacity:0.1; fill:none" points="254.009,274.36 3186.93,274.36 "/>
<polyline clip-path="url(#clip700)" style="stroke:#000000; stroke-linecap:round; stroke-linejoin:round; stroke-width:4; stroke-opacity:1; fill:none" points="254.009,1497.68 254.009,47.2441 "/>
<polyline clip-path="url(#clip700)" style="stroke:#000000; stroke-linecap:round; stroke-linejoin:round; stroke-width:4; stroke-opacity:1; fill:none" points="254.009,1430.05 268.993,1430.05 "/>
<polyline clip-path="url(#clip700)" style="stroke:#000000; stroke-linecap:round; stroke-linejoin:round; stroke-width:4; stroke-opacity:1; fill:none" points="254.009,1141.13 268.993,1141.13 "/>
<polyline clip-path="url(#clip700)" style="stroke:#000000; stroke-linecap:round; stroke-linejoin:round; stroke-width:4; stroke-opacity:1; fill:none" points="254.009,852.205 268.993,852.205 "/>
<polyline clip-path="url(#clip700)" style="stroke:#000000; stroke-linecap:round; stroke-linejoin:round; stroke-width:4; stroke-opacity:1; fill:none" points="254.009,563.282 268.993,563.282 "/>
<polyline clip-path="url(#clip700)" style="stroke:#000000; stroke-linecap:round; stroke-linejoin:round; stroke-width:4; stroke-opacity:1; fill:none" points="254.009,274.36 268.993,274.36 "/>
<path clip-path="url(#clip700)" d="M118.228 1410.61 L143.228 1410.61 L143.228 1412.85 L129.113 1449.49 L123.618 1449.49 L136.899 1415.04 L118.228 1415.04 L118.228 1410.61 Z" fill="#000000" fill-rule="nonzero" fill-opacity="1" /><path clip-path="url(#clip700)" d="M153.488 1442.87 L158.983 1442.87 L158.983 1449.49 L153.488 1449.49 L153.488 1442.87 Z" fill="#000000" fill-rule="nonzero" fill-opacity="1" /><path clip-path="url(#clip700)" d="M170.493 1410.61 L191.144 1410.61 L191.144 1415.04 L175.311 1415.04 L175.311 1424.57 Q176.457 1424.18 177.602 1423.99 Q178.748 1423.79 179.894 1423.79 Q186.404 1423.79 190.206 1427.35 Q194.009 1430.92 194.009 1437.02 Q194.009 1443.29 190.102 1446.78 Q186.196 1450.24 179.087 1450.24 Q176.639 1450.24 174.087 1449.83 Q171.561 1449.41 168.852 1448.58 L168.852 1443.29 Q171.196 1444.57 173.696 1445.19 Q176.196 1445.82 178.983 1445.82 Q183.488 1445.82 186.118 1443.45 Q188.748 1441.08 188.748 1437.02 Q188.748 1432.95 186.118 1430.58 Q183.488 1428.21 178.983 1428.21 Q176.873 1428.21 174.764 1428.68 Q172.681 1429.15 170.493 1430.14 L170.493 1410.61 Z" fill="#000000" fill-rule="nonzero" fill-opacity="1" /><path clip-path="url(#clip700)" d="M85.4154 1156.14 L94.0091 1156.14 L94.0091 1126.48 L84.6602 1128.35 L84.6602 1123.56 L93.957 1121.69 L99.2174 1121.69 L99.2174 1156.14 L107.811 1156.14 L107.811 1160.57 L85.4154 1160.57 L85.4154 1156.14 Z" fill="#000000" fill-rule="nonzero" fill-opacity="1" /><path clip-path="url(#clip700)" d="M129.686 1125.15 Q125.623 1125.15 123.566 1129.16 Q121.535 1133.15 121.535 1141.17 Q121.535 1149.16 123.566 1153.17 Q125.623 1157.16 129.686 1157.16 Q133.774 1157.16 135.806 1153.17 Q137.863 1149.16 137.863 1141.17 Q137.863 1133.15 135.806 1129.16 Q133.774 1125.15 129.686 1125.15 M129.686 1120.98 Q136.222 1120.98 139.66 1126.17 Q143.123 1131.32 143.123 1141.17 Q143.123 1150.98 139.66 1156.17 Q136.222 1161.32 129.686 1161.32 Q123.15 1161.32 119.686 1156.17 Q116.249 1150.98 116.249 1141.17 Q116.249 1131.32 119.686 1126.17 Q123.15 1120.98 129.686 1120.98 Z" fill="#000000" fill-rule="nonzero" fill-opacity="1" /><path clip-path="url(#clip700)" d="M152.368 1153.95 L157.863 1153.95 L157.863 1160.57 L152.368 1160.57 L152.368 1153.95 Z" fill="#000000" fill-rule="nonzero" fill-opacity="1" /><path clip-path="url(#clip700)" d="M180.571 1125.15 Q176.509 1125.15 174.451 1129.16 Q172.42 1133.15 172.42 1141.17 Q172.42 1149.16 174.451 1153.17 Q176.509 1157.16 180.571 1157.16 Q184.66 1157.16 186.691 1153.17 Q188.748 1149.16 188.748 1141.17 Q188.748 1133.15 186.691 1129.16 Q184.66 1125.15 180.571 1125.15 M180.571 1120.98 Q187.108 1120.98 190.545 1126.17 Q194.009 1131.32 194.009 1141.17 Q194.009 1150.98 190.545 1156.17 Q187.108 1161.32 180.571 1161.32 Q174.035 1161.32 170.571 1156.17 Q167.134 1150.98 167.134 1141.17 Q167.134 1131.32 170.571 1126.17 Q174.035 1120.98 180.571 1120.98 Z" fill="#000000" fill-rule="nonzero" fill-opacity="1" /><path clip-path="url(#clip700)" d="M86.5351 867.217 L95.1289 867.217 L95.1289 837.556 L85.7799 839.431 L85.7799 834.64 L95.0768 832.765 L100.337 832.765 L100.337 867.217 L108.931 867.217 L108.931 871.645 L86.5351 871.645 L86.5351 867.217 Z" fill="#000000" fill-rule="nonzero" fill-opacity="1" /><path clip-path="url(#clip700)" d="M124.087 867.217 L142.446 867.217 L142.446 871.645 L117.759 871.645 L117.759 867.217 Q120.754 864.119 125.91 858.91 Q131.092 853.676 132.42 852.165 Q134.946 849.327 135.936 847.374 Q136.952 845.395 136.952 843.494 Q136.952 840.395 134.764 838.442 Q132.603 836.488 129.113 836.488 Q126.639 836.488 123.879 837.348 Q121.144 838.207 118.019 839.952 L118.019 834.64 Q121.196 833.363 123.957 832.712 Q126.717 832.061 129.009 832.061 Q135.051 832.061 138.644 835.082 Q142.238 838.103 142.238 843.155 Q142.238 845.551 141.327 847.712 Q140.441 849.848 138.071 852.764 Q137.42 853.52 133.931 857.139 Q130.441 860.733 124.087 867.217 Z" fill="#000000" fill-rule="nonzero" fill-opacity="1" /><path clip-path="url(#clip700)" d="M153.488 865.03 L158.983 865.03 L158.983 871.645 L153.488 871.645 L153.488 865.03 Z" fill="#000000" fill-rule="nonzero" fill-opacity="1" /><path clip-path="url(#clip700)" d="M170.493 832.765 L191.144 832.765 L191.144 837.192 L175.311 837.192 L175.311 846.723 Q176.457 846.332 177.602 846.15 Q178.748 845.942 179.894 845.942 Q186.404 845.942 190.206 849.509 Q194.009 853.077 194.009 859.171 Q194.009 865.447 190.102 868.936 Q186.196 872.4 179.087 872.4 Q176.639 872.4 174.087 871.983 Q171.561 871.566 168.852 870.733 L168.852 865.447 Q171.196 866.723 173.696 867.348 Q176.196 867.973 178.983 867.973 Q183.488 867.973 186.118 865.603 Q188.748 863.233 188.748 859.171 Q188.748 855.108 186.118 852.738 Q183.488 850.369 178.983 850.369 Q176.873 850.369 174.764 850.837 Q172.681 851.306 170.493 852.296 L170.493 832.765 Z" fill="#000000" fill-rule="nonzero" fill-opacity="1" /><path clip-path="url(#clip700)" d="M85.4154 578.295 L94.0091 578.295 L94.0091 548.634 L84.6602 550.509 L84.6602 545.717 L93.957 543.842 L99.2174 543.842 L99.2174 578.295 L107.811 578.295 L107.811 582.722 L85.4154 582.722 L85.4154 578.295 Z" fill="#000000" fill-rule="nonzero" fill-opacity="1" /><path clip-path="url(#clip700)" d="M118.488 543.842 L139.139 543.842 L139.139 548.269 L123.306 548.269 L123.306 557.801 Q124.452 557.41 125.597 557.228 Q126.743 557.019 127.889 557.019 Q134.399 557.019 138.202 560.587 Q142.004 564.155 142.004 570.248 Q142.004 576.524 138.097 580.014 Q134.191 583.478 127.082 583.478 Q124.634 583.478 122.082 583.061 Q119.556 582.644 116.847 581.811 L116.847 576.524 Q119.191 577.8 121.691 578.425 Q124.191 579.05 126.978 579.05 Q131.483 579.05 134.113 576.681 Q136.743 574.311 136.743 570.248 Q136.743 566.186 134.113 563.816 Q131.483 561.446 126.978 561.446 Q124.868 561.446 122.759 561.915 Q120.676 562.384 118.488 563.373 L118.488 543.842 Z" fill="#000000" fill-rule="nonzero" fill-opacity="1" /><path clip-path="url(#clip700)" d="M152.368 576.108 L157.863 576.108 L157.863 582.722 L152.368 582.722 L152.368 576.108 Z" fill="#000000" fill-rule="nonzero" fill-opacity="1" /><path clip-path="url(#clip700)" d="M180.571 547.306 Q176.509 547.306 174.451 551.316 Q172.42 555.301 172.42 563.321 Q172.42 571.316 174.451 575.327 Q176.509 579.311 180.571 579.311 Q184.66 579.311 186.691 575.327 Q188.748 571.316 188.748 563.321 Q188.748 555.301 186.691 551.316 Q184.66 547.306 180.571 547.306 M180.571 543.139 Q187.108 543.139 190.545 548.321 Q194.009 553.478 194.009 563.321 Q194.009 573.139 190.545 578.321 Q187.108 583.478 180.571 583.478 Q174.035 583.478 170.571 578.321 Q167.134 573.139 167.134 563.321 Q167.134 553.478 170.571 548.321 Q174.035 543.139 180.571 543.139 Z" fill="#000000" fill-rule="nonzero" fill-opacity="1" /><path clip-path="url(#clip700)" d="M86.5351 289.373 L95.1289 289.373 L95.1289 259.712 L85.7799 261.587 L85.7799 256.795 L95.0768 254.92 L100.337 254.92 L100.337 289.373 L108.931 289.373 L108.931 293.8 L86.5351 293.8 L86.5351 289.373 Z" fill="#000000" fill-rule="nonzero" fill-opacity="1" /><path clip-path="url(#clip700)" d="M118.228 254.92 L143.228 254.92 L143.228 257.16 L129.113 293.8 L123.618 293.8 L136.899 259.347 L118.228 259.347 L118.228 254.92 Z" fill="#000000" fill-rule="nonzero" fill-opacity="1" /><path clip-path="url(#clip700)" d="M153.488 287.186 L158.983 287.186 L158.983 293.8 L153.488 293.8 L153.488 287.186 Z" fill="#000000" fill-rule="nonzero" fill-opacity="1" /><path clip-path="url(#clip700)" d="M170.493 254.92 L191.144 254.92 L191.144 259.347 L175.311 259.347 L175.311 268.878 Q176.457 268.488 177.602 268.305 Q178.748 268.097 179.894 268.097 Q186.404 268.097 190.206 271.665 Q194.009 275.232 194.009 281.326 Q194.009 287.602 190.102 291.092 Q186.196 294.555 179.087 294.555 Q176.639 294.555 174.087 294.139 Q171.561 293.722 168.852 292.889 L168.852 287.602 Q171.196 288.878 173.696 289.503 Q176.196 290.128 178.983 290.128 Q183.488 290.128 186.118 287.758 Q188.748 285.389 188.748 281.326 Q188.748 277.264 186.118 274.894 Q183.488 272.524 178.983 272.524 Q176.873 272.524 174.764 272.993 Q172.681 273.462 170.493 274.451 L170.493 254.92 Z" fill="#000000" fill-rule="nonzero" fill-opacity="1" /><path clip-path="url(#clip700)" d="M-31.4998 930.013 L-31.4998 924.168 L11.7002 924.168 L11.7002 930.013 L-31.4998 930.013 Z" fill="#000000" fill-rule="nonzero" fill-opacity="1" /><path clip-path="url(#clip700)" d="M-7.85992 885.829 L11.7002 885.829 L11.7002 891.153 L-7.68631 891.153 Q-12.287 891.153 -14.5728 892.947 Q-16.8587 894.741 -16.8587 898.329 Q-16.8587 902.641 -14.1099 905.129 Q-11.3611 907.618 -6.61572 907.618 L11.7002 907.618 L11.7002 912.97 L-20.7071 912.97 L-20.7071 907.618 L-15.6724 907.618 Q-18.5948 905.708 -20.0416 903.133 Q-21.4883 900.528 -21.4883 897.143 Q-21.4883 891.559 -18.0161 888.694 Q-14.5728 885.829 -7.85992 885.829 Z" fill="#000000" fill-rule="nonzero" fill-opacity="1" /><path clip-path="url(#clip700)" d="M-33.3227 858.804 L-28.8957 858.804 L-28.8957 863.897 Q-28.8957 866.761 -27.7383 867.89 Q-26.5809 868.989 -23.5716 868.989 L-20.7071 868.989 L-20.7071 860.222 L-16.5694 860.222 L-16.5694 868.989 L11.7002 868.989 L11.7002 874.342 L-16.5694 874.342 L-16.5694 879.435 L-20.7071 879.435 L-20.7071 874.342 L-22.964 874.342 Q-28.3749 874.342 -30.8343 871.825 Q-33.3227 869.308 -33.3227 863.839 L-33.3227 858.804 Z" fill="#000000" fill-rule="nonzero" fill-opacity="1" /><path clip-path="url(#clip700)" d="M-33.3227 854.348 L-33.3227 849.024 L11.7002 849.024 L11.7002 854.348 L-33.3227 854.348 Z" fill="#000000" fill-rule="nonzero" fill-opacity="1" /><path clip-path="url(#clip700)" d="M-16.9745 825.326 Q-16.9745 829.609 -13.618 832.097 Q-10.2905 834.585 -4.47452 834.585 Q1.34142 834.585 4.69788 832.126 Q8.02541 829.638 8.02541 825.326 Q8.02541 821.073 4.66895 818.584 Q1.31248 816.096 -4.47452 816.096 Q-10.2326 816.096 -13.5891 818.584 Q-16.9745 821.073 -16.9745 825.326 M-21.4883 825.326 Q-21.4883 818.382 -16.9745 814.418 Q-12.4606 810.454 -4.47452 810.454 Q3.48261 810.454 8.02541 814.418 Q12.5393 818.382 12.5393 825.326 Q12.5393 832.3 8.02541 836.264 Q3.48261 840.199 -4.47452 840.199 Q-12.4606 840.199 -16.9745 836.264 Q-21.4883 832.3 -21.4883 825.326 Z" fill="#000000" fill-rule="nonzero" fill-opacity="1" /><path clip-path="url(#clip700)" d="M-20.7071 804.725 L-20.7071 799.4 L4.58214 792.745 L-20.7071 786.119 L-20.7071 779.84 L4.58214 773.185 L-20.7071 766.559 L-20.7071 761.235 L11.7002 769.713 L11.7002 775.992 L-14.8622 782.965 L11.7002 789.968 L11.7002 796.247 L-20.7071 804.725 Z" fill="#000000" fill-rule="nonzero" fill-opacity="1" /><path clip-path="url(#clip700)" d="M-33.3227 734.818 L-33.3227 722.549 L-29.185 722.549 L-29.185 729.493 L15.3749 729.493 L15.3749 722.549 L19.5126 722.549 L19.5126 734.818 L-33.3227 734.818 Z" fill="#000000" fill-rule="nonzero" fill-opacity="1" /><path clip-path="url(#clip700)" d="M-31.4998 710.975 L-31.4998 705.13 L6.7812 705.13 L6.7812 684.094 L11.7002 684.094 L11.7002 710.975 L-31.4998 710.975 Z" fill="#000000" fill-rule="nonzero" fill-opacity="1" /><path clip-path="url(#clip700)" d="M-31.4998 668.73 L-31.4998 663.811 L17.1978 678.857 L17.1978 683.776 L-31.4998 668.73 Z" fill="#000000" fill-rule="nonzero" fill-opacity="1" /><path clip-path="url(#clip700)" d="M-19.7522 637.567 L-14.7175 637.567 Q-15.8749 639.824 -16.4536 642.254 Q-17.0323 644.685 -17.0323 647.289 Q-17.0323 651.253 -15.8171 653.25 Q-14.6018 655.217 -12.1712 655.217 Q-10.3194 655.217 -9.2488 653.799 Q-8.20714 652.382 -7.25229 648.099 L-6.8472 646.276 Q-5.63193 640.605 -3.40393 638.232 Q-1.20487 635.831 2.75923 635.831 Q7.2731 635.831 9.90619 639.419 Q12.5393 642.978 12.5393 649.228 Q12.5393 651.832 12.0184 654.667 Q11.5265 657.474 10.5138 660.599 L5.01617 660.599 Q6.54972 657.648 7.33097 654.783 Q8.08328 651.919 8.08328 649.112 Q8.08328 645.35 6.81014 643.325 Q5.50806 641.299 3.16432 641.299 Q0.994196 641.299 -0.163205 642.775 Q-1.32061 644.222 -2.3912 649.17 L-2.82523 651.022 Q-3.86689 655.97 -6.00808 658.169 Q-8.17821 660.368 -11.9398 660.368 Q-16.5115 660.368 -18.9999 657.127 Q-21.4883 653.886 -21.4883 647.926 Q-21.4883 644.974 -21.0543 642.37 Q-20.6203 639.766 -19.7522 637.567 Z" fill="#000000" fill-rule="nonzero" fill-opacity="1" /><path clip-path="url(#clip700)" d="M-33.3227 614.911 L19.5126 614.911 L19.5126 627.179 L15.3749 627.179 L15.3749 620.264 L-29.185 620.264 L-29.185 627.179 L-33.3227 627.179 L-33.3227 614.911 Z" fill="#000000" fill-rule="nonzero" fill-opacity="1" /><polyline clip-path="url(#clip702)" style="stroke:#023eff; stroke-linecap:round; stroke-linejoin:round; stroke-width:5; stroke-opacity:1; fill:none" points="337.016,1267.64 353.584,1221.31 370.153,1349.86 386.721,1349.86 403.289,1349.86 419.858,1221.31 436.426,1265.66 452.994,1191.72 469.563,1042.76 486.131,1042.76 502.699,1042.76 519.268,1042.76 535.836,1042.76 552.404,1034.39 568.973,926.103 585.541,1042.76 602.109,1042.76 618.678,1042.76 635.246,1042.76 651.814,1042.76 668.383,1042.76 684.951,1042.76 701.519,1334.81 718.088,1334.81 734.656,1369.57 751.224,1235.15 767.793,1369.57 784.361,1369.57 800.929,1369.57 817.498,1235.15 834.066,1097.79 850.634,1089.82 867.203,1089.82 883.771,1089.82 900.339,1078.84 916.908,1078.84 933.476,1078.84 950.044,1078.84 966.613,1078.84 983.181,1078.84 999.749,1078.84 1016.32,1078.84 1032.89,1078.84 1049.45,981.313 1066.02,981.313 1082.59,981.313 1099.16,1275.04 1115.73,1275.04 1132.3,1369.57 1148.86,1369.57 1165.43,1235.15 1182,1235.15 1198.57,1235.15 1215.14,1235.15 1231.71,1097.79 1248.27,864.339 1264.84,864.339 1281.41,88.2942 1297.98,1078.84 1314.55,1078.84 1331.12,1078.84 1347.68,1078.84 1364.25,1078.84 1380.82,1078.84 1397.39,1078.84 1413.96,1078.84 1430.53,981.313 1447.09,981.313 1463.66,981.313 1480.23,981.313 1496.8,1127.44 1513.37,1127.44 1529.94,1235.15 1546.5,1369.57 1563.07,1235.15 1579.64,1369.57 1596.21,1369.57 1612.78,1369.57 1629.35,1369.57 1645.91,864.339 1662.48,864.339 1679.05,864.339 1695.62,1078.84 1712.19,1078.84 1728.76,1078.84 1745.32,1078.84 1761.89,1078.84 1778.46,1078.84 1795.03,1078.84 1811.6,1078.84 1828.17,1078.84 1844.73,1078.84 1861.3,981.313 1877.87,981.313 1894.44,1127.44 1911.01,1127.44 1927.58,1235.15 1944.14,1235.15 1960.71,1235.15 1977.28,1235.15 1993.85,1369.57 2010.42,1235.15 2026.99,1369.57 2043.55,864.339 2060.12,864.339 2076.69,864.339 2093.26,981.313 2109.83,1078.84 2126.4,1078.84 2142.96,1078.84 2159.53,1078.84 2176.1,1078.84 2192.67,1078.84 2209.24,1078.84 2225.81,1078.84 2242.37,1078.84 2258.94,1078.84 2275.51,1078.84 2292.08,1275.04 2308.65,1275.04 2325.22,1369.57 2341.78,1369.57 2358.35,1369.57 2374.92,1369.57 2391.49,1369.57 2408.06,1369.57 2424.63,1369.57 2441.19,864.339 2457.76,864.339 2474.33,864.339 2490.9,1078.84 2507.47,1078.84 2524.04,1078.84 2540.6,1078.84 2557.17,1078.84 2573.74,1078.84 2590.31,1078.84 2606.88,1078.84 2623.45,1078.84 2640.01,1078.84 2656.58,981.313 2673.15,981.313 2689.72,1127.44 2706.29,1127.44 2722.86,1235.15 2739.42,1369.57 2755.99,1369.57 2772.56,1369.57 2789.13,1369.57 2805.7,1369.57 2822.27,1369.57 2838.83,864.339 2855.4,864.339 2871.97,864.339 2888.54,1078.84 2905.11,1078.84 2921.68,1078.84 2938.24,1078.84 2954.81,1078.84 2971.38,1078.84 2987.95,1078.84 3004.52,1078.84 3021.09,1078.84 3037.65,1078.84 3054.22,1078.84 3070.79,1078.84 3087.36,1275.04 3103.93,1275.04 "/>
<polyline clip-path="url(#clip702)" style="stroke:#ff7c00; stroke-linecap:round; stroke-linejoin:round; stroke-width:5; stroke-opacity:1; fill:none" points="337.016,1313.7 353.584,1402.76 370.153,1402.76 386.721,1448.98 403.289,1402.76 419.858,1402.76 436.426,1321.09 452.994,1222.02 469.563,1101.68 486.131,1101.68 502.699,1101.68 519.268,1101.68 535.836,1101.68 552.404,1044.4 568.973,1044.4 585.541,1101.68 602.109,1101.68 618.678,1222.02 635.246,1101.68 651.814,1101.68 668.383,1153.59 684.951,1153.59 701.519,1357.21 718.088,1357.21 734.656,1402.86 751.224,1402.86 767.793,1402.86 784.361,1402.86 800.929,1402.86 817.498,1402.86 834.066,1402.86 850.634,1179.49 867.203,1111.34 883.771,1111.34 900.339,1111.34 916.908,1179.49 933.476,1059.31 950.044,1111.34 966.613,1111.34 983.181,1179.49 999.749,1179.49 1016.32,1179.49 1032.89,1111.34 1049.45,1111.34 1066.02,1179.49 1082.59,1059.31 1099.16,1284.3 1115.73,1284.3 1132.3,1402.86 1148.86,1402.86 1165.43,1402.86 1182,1402.86 1198.57,1402.86 1215.14,1402.86 1231.71,1402.86 1248.27,1111.34 1264.84,1059.31 1281.41,1059.31 1297.98,1111.34 1314.55,1111.34 1331.12,1111.34 1347.68,1111.34 1364.25,1111.34 1380.82,1059.31 1397.39,1111.34 1413.96,1111.34 1430.53,1111.34 1447.09,1111.34 1463.66,1111.34 1480.23,1111.34 1496.8,1284.3 1513.37,1284.3 1529.94,1402.86 1546.5,1402.86 1563.07,1402.86 1579.64,1402.86 1596.21,1402.86 1612.78,1402.86 1629.35,1402.86 1645.91,1179.49 1662.48,1111.34 1679.05,1111.34 1695.62,1179.49 1712.19,1111.34 1728.76,1111.34 1745.32,1059.31 1761.89,1059.31 1778.46,1111.34 1795.03,1111.34 1811.6,1059.31 1828.17,1111.34 1844.73,1111.34 1861.3,1111.34 1877.87,1111.34 1894.44,1111.34 1911.01,1284.3 1927.58,1402.86 1944.14,1402.86 1960.71,1402.86 1977.28,1402.86 1993.85,1402.86 2010.42,1402.86 2026.99,1402.86 2043.55,1179.49 2060.12,1111.34 2076.69,1059.31 2093.26,1059.31 2109.83,1059.31 2126.4,1059.31 2142.96,1111.34 2159.53,1059.31 2176.1,1111.34 2192.67,1179.49 2209.24,1111.34 2225.81,1111.34 2242.37,1111.34 2258.94,1111.34 2275.51,1111.34 2292.08,1284.3 2308.65,1284.3 2325.22,1402.86 2341.78,1402.86 2358.35,1402.86 2374.92,1402.86 2391.49,1402.86 2408.06,1402.86 2424.63,1402.86 2441.19,1179.49 2457.76,1111.34 2474.33,1059.31 2490.9,1059.31 2507.47,1111.34 2524.04,1059.31 2540.6,1059.31 2557.17,1059.31 2573.74,1059.31 2590.31,1111.34 2606.88,1179.49 2623.45,1111.34 2640.01,1111.34 2656.58,1059.31 2673.15,1179.49 2689.72,1284.3 2706.29,1111.34 2722.86,1402.86 2739.42,1402.86 2755.99,1402.86 2772.56,1402.86 2789.13,1402.86 2805.7,1402.86 2822.27,1402.86 2838.83,1179.49 2855.4,1111.34 2871.97,1111.34 2888.54,1059.31 2905.11,1059.31 2921.68,1059.31 2938.24,1059.31 2954.81,1059.31 2971.38,1111.34 2987.95,1111.34 3004.52,1111.34 3021.09,1111.34 3037.65,1059.31 3054.22,1111.34 3070.79,1111.34 3087.36,1284.3 3103.93,1111.34 "/>
<polyline clip-path="url(#clip702)" style="stroke:#1ac938; stroke-linecap:round; stroke-linejoin:round; stroke-width:5; stroke-opacity:1; fill:none" points="337.016,1338.01 353.584,1338.01 370.153,1338.01 386.721,1338.01 403.289,1338.01 419.858,1338.01 436.426,1338.01 452.994,1090.98 469.563,1090.98 486.131,1090.98 502.699,1090.98 519.268,1090.98 535.836,1090.98 552.404,1090.98 568.973,1090.98 585.541,1090.98 602.109,1090.98 618.678,1090.98 635.246,1090.98 651.814,1090.98 668.383,1090.98 684.951,1090.98 701.519,1230.14 718.088,1230.14 734.656,1325.22 751.224,1325.22 767.793,1325.22 784.361,1325.22 800.929,1400.25 817.498,1400.25 834.066,1245.09 850.634,1245.09 867.203,1098.37 883.771,1098.37 900.339,1098.37 916.908,1098.37 933.476,1049.65 950.044,1098.37 966.613,1098.37 983.181,1098.37 999.749,1098.37 1016.32,1098.37 1032.89,1098.37 1049.45,1098.37 1066.02,1098.37 1082.59,1049.65 1099.16,1230.14 1115.73,1230.14 1132.3,1325.22 1148.86,1325.22 1165.43,1325.22 1182,1325.22 1198.57,1325.22 1215.14,1325.22 1231.71,1060.15 1248.27,1060.15 1264.84,1049.65 1281.41,1049.65 1297.98,1098.37 1314.55,1098.37 1331.12,1098.37 1347.68,1098.37 1364.25,1098.37 1380.82,1049.65 1397.39,1098.37 1413.96,1098.37 1430.53,1098.37 1447.09,1098.37 1463.66,1098.37 1480.23,1098.37 1496.8,1230.14 1513.37,1230.14 1529.94,1325.22 1546.5,1325.22 1563.07,1325.22 1579.64,1325.22 1596.21,1325.22 1612.78,1325.22 1629.35,1245.09 1645.91,1245.09 1662.48,1098.37 1679.05,1098.37 1695.62,1098.37 1712.19,1098.37 1728.76,1098.37 1745.32,1049.65 1761.89,1049.65 1778.46,1098.37 1795.03,1098.37 1811.6,1049.65 1828.17,1098.37 1844.73,1098.37 1861.3,1098.37 1877.87,1098.37 1894.44,1230.14 1911.01,1230.14 1927.58,1325.22 1944.14,1325.22 1960.71,1325.22 1977.28,1325.22 1993.85,1325.22 2010.42,1325.22 2026.99,1245.09 2043.55,1245.09 2060.12,1098.37 2076.69,1049.65 2093.26,1049.65 2109.83,1049.65 2126.4,1049.65 2142.96,1098.37 2159.53,1049.65 2176.1,1098.37 2192.67,1098.37 2209.24,1098.37 2225.81,1098.37 2242.37,1098.37 2258.94,1098.37 2275.51,1098.37 2292.08,1230.14 2308.65,1230.14 2325.22,1309.09 2341.78,1309.09 2358.35,1309.09 2374.92,1309.09 2391.49,1309.09 2408.06,1309.09 2424.63,1309.09 2441.19,1309.09 2457.76,1098.37 2474.33,1049.65 2490.9,1049.65 2507.47,1098.37 2524.04,1049.65 2540.6,1049.65 2557.17,1049.65 2573.74,1049.65 2590.31,1098.37 2606.88,1098.37 2623.45,1098.37 2640.01,1098.37 2656.58,1049.65 2673.15,1098.37 2689.72,1230.14 2706.29,1230.14 2722.86,1309.09 2739.42,1309.09 2755.99,1309.09 2772.56,1309.09 2789.13,1309.09 2805.7,1309.09 2822.27,1309.09 2838.83,1309.09 2855.4,1098.37 2871.97,1098.37 2888.54,1049.65 2905.11,1049.65 2921.68,1049.65 2938.24,1049.65 2954.81,1049.65 2971.38,1098.37 2987.95,1098.37 3004.52,1098.37 3021.09,1098.37 3037.65,1049.65 3054.22,1098.37 3070.79,1098.37 3087.36,1230.14 3103.93,1230.14 "/>
<polyline clip-path="url(#clip702)" style="stroke:#e8000b; stroke-linecap:round; stroke-linejoin:round; stroke-width:5; stroke-opacity:1; fill:none" points="337.016,1368.98 353.584,1368.98 370.153,1368.98 386.721,1368.98 403.289,1368.98 419.858,1368.98 436.426,1368.98 452.994,1368.98 469.563,1054.04 486.131,1054.04 502.699,1054.04 519.268,1054.04 535.836,1054.04 552.404,1054.04 568.973,1054.04 585.541,1054.04 602.109,1136.56 618.678,1136.56 635.246,1136.56 651.814,1136.56 668.383,1136.56 684.951,1136.56 701.519,1269.49 718.088,1269.49 734.656,1395.76 751.224,1395.76 767.793,1395.76 784.361,1395.76 800.929,1395.76 817.498,1395.76 834.066,1288.64 850.634,1288.64 867.203,1094.07 883.771,1094.07 900.339,1094.07 916.908,1094.07 933.476,1094.07 950.044,1094.07 966.613,1094.07 983.181,1104.99 999.749,1104.99 1016.32,1104.99 1032.89,1104.99 1049.45,1104.99 1066.02,1104.99 1082.59,1104.99 1099.16,1269.49 1115.73,1269.49 1132.3,1395.76 1148.86,1395.76 1165.43,1395.76 1182,1395.76 1198.57,1395.76 1215.14,1395.76 1231.71,1288.64 1248.27,1288.64 1264.84,1094.07 1281.41,1094.07 1297.98,1094.07 1314.55,1094.07 1331.12,1094.07 1347.68,1094.07 1364.25,1094.07 1380.82,1104.99 1397.39,1104.99 1413.96,1104.99 1430.53,1104.99 1447.09,1104.99 1463.66,1104.99 1480.23,1104.99 1496.8,1269.49 1513.37,1269.49 1529.94,1395.76 1546.5,1395.76 1563.07,1395.76 1579.64,1395.76 1596.21,1395.76 1612.78,1395.76 1629.35,1288.64 1645.91,1288.64 1662.48,1094.07 1679.05,1094.07 1695.62,1094.07 1712.19,1094.07 1728.76,1094.07 1745.32,1094.07 1761.89,1094.07 1778.46,1104.99 1795.03,1104.99 1811.6,1104.99 1828.17,1104.99 1844.73,1104.99 1861.3,1104.99 1877.87,1104.99 1894.44,1269.49 1911.01,1269.49 1927.58,1395.76 1944.14,1395.76 1960.71,1395.76 1977.28,1395.76 1993.85,1395.76 2010.42,1395.76 2026.99,1288.64 2043.55,1288.64 2060.12,992.318 2076.69,992.318 2093.26,992.318 2109.83,992.318 2126.4,992.318 2142.96,992.318 2159.53,992.318 2176.1,1104.99 2192.67,1104.99 2209.24,1104.99 2225.81,1104.99 2242.37,1104.99 2258.94,1104.99 2275.51,1104.99 2292.08,1269.49 2308.65,1269.49 2325.22,1395.76 2341.78,1395.76 2358.35,1395.76 2374.92,1395.76 2391.49,1395.76 2408.06,1395.76 2424.63,1288.64 2441.19,1288.64 2457.76,992.318 2474.33,992.318 2490.9,992.318 2507.47,992.318 2524.04,992.318 2540.6,992.318 2557.17,992.318 2573.74,1104.99 2590.31,1104.99 2606.88,1104.99 2623.45,1104.99 2640.01,1104.99 2656.58,1104.99 2673.15,1104.99 2689.72,1269.49 2706.29,1269.49 2722.86,1395.76 2739.42,1395.76 2755.99,1395.76 2772.56,1395.76 2789.13,1395.76 2805.7,1395.76 2822.27,1288.64 2838.83,1288.64 2855.4,992.318 2871.97,992.318 2888.54,992.318 2905.11,992.318 2921.68,992.318 2938.24,992.318 2954.81,992.318 2971.38,1104.99 2987.95,1104.99 3004.52,1104.99 3021.09,1104.99 3037.65,1104.99 3054.22,1104.99 3070.79,1104.99 3087.36,1269.49 3103.93,1269.49 "/>
<polyline clip-path="url(#clip702)" style="stroke:#000000; stroke-linecap:round; stroke-linejoin:round; stroke-width:6; stroke-opacity:1; fill:none" points="337.016,1267.1 353.584,1335.28 370.153,1353.77 386.721,1261.32 403.289,1363.02 419.858,1327.19 436.426,1202.38 452.994,1078.72 469.563,973.552 486.131,1263.63 502.699,1243.98 519.268,1160.77 535.836,1161.93 552.404,1074.1 568.973,1307.55 585.541,942.348 602.109,1189.67 618.678,1211.62 635.246,1211.62 651.814,1069.47 668.383,913.456 684.951,1044.05 701.519,1215.09 718.088,1260.16 734.656,1279.81 751.224,1380.35 767.793,1455.47 784.361,1290.21 800.929,1343.37 817.498,1409.25 834.066,1224.34 850.634,1178.11 867.203,980.486 883.771,943.504 900.339,1068.32 916.908,1063.7 933.476,988.576 950.044,1029.02 966.613,1063.7 983.181,1106.46 999.749,1008.22 1016.32,897.276 1032.89,971.24 1049.45,1033.65 1066.02,956.217 1082.59,899.588 1099.16,1228.96 1115.73,1431.2 1132.3,1291.37 1148.86,1283.28 1165.43,1324.88 1182,1284.43 1198.57,1272.88 1215.14,1219.71 1231.71,1034.8 1248.27,1107.61 1264.84,1010.53 1281.41,1138.82 1297.98,1064.85 1314.55,1212.78 1331.12,1072.94 1347.68,1237.05 1364.25,1116.86 1380.82,1301.77 1397.39,1389.6 1413.96,989.731 1430.53,1072.94 1447.09,844.115 1463.66,1010.53 1480.23,1087.97 1496.8,1233.58 1513.37,1307.55 1529.94,1248.61 1546.5,1294.83 1563.07,1352.62 1579.64,1456.63 1596.21,1426.58 1612.78,1331.82 1629.35,1213.94 1645.91,971.24 1662.48,934.258 1679.05,963.151 1695.62,1205.85 1712.19,1187.35 1728.76,1158.46 1745.32,1097.21 1761.89,1128.41 1778.46,1149.22 1795.03,1173.49 1811.6,1052.14 1828.17,1113.39 1844.73,907.678 1861.3,1107.61 1877.87,1133.04 1894.44,1280.97 1911.01,1329.5 1927.58,1204.69 1944.14,1403.47 1960.71,1329.5 1977.28,1375.73 1993.85,1393.07 2010.42,1299.46 2026.99,1157.31 2043.55,817.534 2060.12,1124.95 2076.69,1052.14 2093.26,1024.4 2109.83,1130.73 2126.4,1048.67 2142.96,1131.88 2159.53,1116.86 2176.1,1122.64 2192.67,1020.94 2209.24,1075.25 2225.81,848.737 2242.37,945.815 2258.94,946.971 2275.51,1186.2 2292.08,1157.31 2308.65,1227.8 2325.22,1309.86 2341.78,1301.77 2358.35,1293.68 2374.92,1280.97 2391.49,1300.61 2408.06,1381.51 2424.63,1289.05 2441.19,1241.67 2457.76,848.737 2474.33,893.809 2490.9,881.097 2507.47,891.498 2524.04,948.127 2540.6,1044.05 2557.17,881.097 2573.74,1063.7 2590.31,1150.37 2606.88,1098.37 2623.45,1014 2640.01,1020.94 2656.58,1067.16 2673.15,1044.05 2689.72,1300.61 2706.29,1205.85 2722.86,1290.21 2739.42,1332.97 2755.99,1290.21 2772.56,1330.66 2789.13,1263.63 2805.7,1290.21 2822.27,1261.32 2838.83,1228.96 2855.4,1048.67 2871.97,796.731 2888.54,842.959 2905.11,780.552 2921.68,751.66 2938.24,889.187 2954.81,986.264 2971.38,1090.28 2987.95,1138.82 3004.52,1115.7 3021.09,1040.58 3037.65,892.654 3054.22,853.36 3070.79,1180.42 3087.36,1194.29 3103.93,1292.52 "/>
<path clip-path="url(#clip700)" d="M3310.23 445.512 L3952.76 445.512 L3952.76 95.592 L3310.23 95.592  Z" fill="#ffffff" fill-rule="evenodd" fill-opacity="1"/>
<polyline clip-path="url(#clip700)" style="stroke:#000000; stroke-linecap:round; stroke-linejoin:round; stroke-width:4; stroke-opacity:1; fill:none" points="3310.23,445.512 3952.76,445.512 3952.76,95.592 3310.23,95.592 3310.23,445.512 "/>
<polyline clip-path="url(#clip700)" style="stroke:#023eff; stroke-linecap:round; stroke-linejoin:round; stroke-width:5.625; stroke-opacity:1; fill:none" points="3351.32,153.912 3597.91,153.912 "/>
<path clip-path="url(#clip700)" d="M3643.82 168.977 L3643.82 184.446 L3639 184.446 L3639 144.185 L3643.82 144.185 L3643.82 148.613 Q3645.33 146.008 3647.62 144.758 Q3649.94 143.482 3653.14 143.482 Q3658.46 143.482 3661.76 147.701 Q3665.1 151.92 3665.1 158.795 Q3665.1 165.67 3661.76 169.888 Q3658.46 174.107 3653.14 174.107 Q3649.94 174.107 3647.62 172.857 Q3645.33 171.581 3643.82 168.977 M3660.12 158.795 Q3660.12 153.508 3657.94 150.514 Q3655.77 147.493 3651.97 147.493 Q3648.17 147.493 3645.98 150.514 Q3643.82 153.508 3643.82 158.795 Q3643.82 164.081 3645.98 167.102 Q3648.17 170.097 3651.97 170.097 Q3655.77 170.097 3657.94 167.102 Q3660.12 164.081 3660.12 158.795 Z" fill="#000000" fill-rule="nonzero" fill-opacity="1" /><path clip-path="url(#clip700)" d="M3689.94 148.665 Q3689.13 148.196 3688.17 147.988 Q3687.23 147.753 3686.09 147.753 Q3682.02 147.753 3679.84 150.409 Q3677.68 153.04 3677.68 157.987 L3677.68 173.352 L3672.86 173.352 L3672.86 144.185 L3677.68 144.185 L3677.68 148.717 Q3679.19 146.06 3681.61 144.784 Q3684.03 143.482 3687.49 143.482 Q3687.99 143.482 3688.59 143.56 Q3689.19 143.613 3689.92 143.743 L3689.94 148.665 Z" fill="#000000" fill-rule="nonzero" fill-opacity="1" /><path clip-path="url(#clip700)" d="M3718.74 157.571 L3718.74 159.915 L3696.71 159.915 Q3697.02 164.862 3699.68 167.467 Q3702.36 170.045 3707.13 170.045 Q3709.89 170.045 3712.47 169.368 Q3715.07 168.691 3717.62 167.336 L3717.62 171.868 Q3715.05 172.961 3712.34 173.534 Q3709.63 174.107 3706.84 174.107 Q3699.86 174.107 3695.77 170.045 Q3691.71 165.982 3691.71 159.055 Q3691.71 151.894 3695.57 147.701 Q3699.45 143.482 3706.01 143.482 Q3711.89 143.482 3715.31 147.284 Q3718.74 151.06 3718.74 157.571 M3713.95 156.165 Q3713.9 152.232 3711.74 149.889 Q3709.6 147.545 3706.06 147.545 Q3702.05 147.545 3699.63 149.81 Q3697.23 152.076 3696.87 156.191 L3713.95 156.165 Z" fill="#000000" fill-rule="nonzero" fill-opacity="1" /><path clip-path="url(#clip700)" d="M3745.8 148.613 L3745.8 132.831 L3750.59 132.831 L3750.59 173.352 L3745.8 173.352 L3745.8 168.977 Q3744.29 171.581 3741.97 172.857 Q3739.68 174.107 3736.45 174.107 Q3731.16 174.107 3727.83 169.888 Q3724.52 165.67 3724.52 158.795 Q3724.52 151.92 3727.83 147.701 Q3731.16 143.482 3736.45 143.482 Q3739.68 143.482 3741.97 144.758 Q3744.29 146.008 3745.8 148.613 M3729.47 158.795 Q3729.47 164.081 3731.63 167.102 Q3733.82 170.097 3737.62 170.097 Q3741.43 170.097 3743.61 167.102 Q3745.8 164.081 3745.8 158.795 Q3745.8 153.508 3743.61 150.514 Q3741.43 147.493 3737.62 147.493 Q3733.82 147.493 3731.63 150.514 Q3729.47 153.508 3729.47 158.795 Z" fill="#000000" fill-rule="nonzero" fill-opacity="1" /><path clip-path="url(#clip700)" d="M3760.46 144.185 L3765.25 144.185 L3765.25 173.352 L3760.46 173.352 L3760.46 144.185 M3760.46 132.831 L3765.25 132.831 L3765.25 138.899 L3760.46 138.899 L3760.46 132.831 Z" fill="#000000" fill-rule="nonzero" fill-opacity="1" /><path clip-path="url(#clip700)" d="M3796.27 145.305 L3796.27 149.784 Q3794.24 148.665 3792.18 148.118 Q3790.15 147.545 3788.07 147.545 Q3783.4 147.545 3780.83 150.514 Q3778.25 153.456 3778.25 158.795 Q3778.25 164.133 3780.83 167.102 Q3783.4 170.045 3788.07 170.045 Q3790.15 170.045 3792.18 169.498 Q3794.24 168.925 3796.27 167.805 L3796.27 172.232 Q3794.26 173.17 3792.1 173.638 Q3789.97 174.107 3787.54 174.107 Q3780.96 174.107 3777.08 169.967 Q3773.2 165.826 3773.2 158.795 Q3773.2 151.659 3777.1 147.571 Q3781.03 143.482 3787.86 143.482 Q3790.07 143.482 3792.18 143.951 Q3794.29 144.394 3796.27 145.305 Z" fill="#000000" fill-rule="nonzero" fill-opacity="1" /><path clip-path="url(#clip700)" d="M3809.34 135.904 L3809.34 144.185 L3819.21 144.185 L3819.21 147.909 L3809.34 147.909 L3809.34 163.743 Q3809.34 167.31 3810.31 168.326 Q3811.29 169.342 3814.29 169.342 L3819.21 169.342 L3819.21 173.352 L3814.29 173.352 Q3808.74 173.352 3806.63 171.295 Q3804.52 169.211 3804.52 163.743 L3804.52 147.909 L3801.01 147.909 L3801.01 144.185 L3804.52 144.185 L3804.52 135.904 L3809.34 135.904 Z" fill="#000000" fill-rule="nonzero" fill-opacity="1" /><path clip-path="url(#clip700)" d="M3847.67 182.206 L3847.67 185.93 L3819.97 185.93 L3819.97 182.206 L3847.67 182.206 Z" fill="#000000" fill-rule="nonzero" fill-opacity="1" /><path clip-path="url(#clip700)" d="M3852.91 134.472 L3873.56 134.472 L3873.56 138.899 L3857.73 138.899 L3857.73 148.43 Q3858.87 148.04 3860.02 147.857 Q3861.16 147.649 3862.31 147.649 Q3868.82 147.649 3872.62 151.217 Q3876.42 154.784 3876.42 160.878 Q3876.42 167.154 3872.52 170.644 Q3868.61 174.107 3861.5 174.107 Q3859.05 174.107 3856.5 173.69 Q3853.98 173.274 3851.27 172.441 L3851.27 167.154 Q3853.61 168.43 3856.11 169.055 Q3858.61 169.68 3861.4 169.68 Q3865.9 169.68 3868.53 167.31 Q3871.16 164.941 3871.16 160.878 Q3871.16 156.816 3868.53 154.446 Q3865.9 152.076 3861.4 152.076 Q3859.29 152.076 3857.18 152.545 Q3855.1 153.014 3852.91 154.003 L3852.91 134.472 Z" fill="#000000" fill-rule="nonzero" fill-opacity="1" /><path clip-path="url(#clip700)" d="M3891.32 168.925 L3909.68 168.925 L3909.68 173.352 L3884.99 173.352 L3884.99 168.925 Q3887.99 165.826 3893.14 160.618 Q3898.33 155.383 3899.65 153.873 Q3902.18 151.034 3903.17 149.081 Q3904.18 147.102 3904.18 145.201 Q3904.18 142.102 3902 140.149 Q3899.84 138.196 3896.35 138.196 Q3893.87 138.196 3891.11 139.055 Q3888.38 139.915 3885.25 141.659 L3885.25 136.347 Q3888.43 135.071 3891.19 134.42 Q3893.95 133.769 3896.24 133.769 Q3902.28 133.769 3905.88 136.79 Q3909.47 139.81 3909.47 144.863 Q3909.47 147.258 3908.56 149.42 Q3907.67 151.555 3905.3 154.472 Q3904.65 155.227 3901.16 158.847 Q3897.67 162.441 3891.32 168.925 Z" fill="#000000" fill-rule="nonzero" fill-opacity="1" /><polyline clip-path="url(#clip700)" style="stroke:#ff7c00; stroke-linecap:round; stroke-linejoin:round; stroke-width:5.625; stroke-opacity:1; fill:none" points="3351.32,212.232 3597.91,212.232 "/>
<path clip-path="url(#clip700)" d="M3643.82 227.297 L3643.82 242.766 L3639 242.766 L3639 202.505 L3643.82 202.505 L3643.82 206.933 Q3645.33 204.328 3647.62 203.078 Q3649.94 201.802 3653.14 201.802 Q3658.46 201.802 3661.76 206.021 Q3665.1 210.24 3665.1 217.115 Q3665.1 223.99 3661.76 228.208 Q3658.46 232.427 3653.14 232.427 Q3649.94 232.427 3647.62 231.177 Q3645.33 229.901 3643.82 227.297 M3660.12 217.115 Q3660.12 211.828 3657.94 208.834 Q3655.77 205.813 3651.97 205.813 Q3648.17 205.813 3645.98 208.834 Q3643.82 211.828 3643.82 217.115 Q3643.82 222.401 3645.98 225.422 Q3648.17 228.417 3651.97 228.417 Q3655.77 228.417 3657.94 225.422 Q3660.12 222.401 3660.12 217.115 Z" fill="#000000" fill-rule="nonzero" fill-opacity="1" /><path clip-path="url(#clip700)" d="M3689.94 206.985 Q3689.13 206.516 3688.17 206.308 Q3687.23 206.073 3686.09 206.073 Q3682.02 206.073 3679.84 208.729 Q3677.68 211.36 3677.68 216.307 L3677.68 231.672 L3672.86 231.672 L3672.86 202.505 L3677.68 202.505 L3677.68 207.037 Q3679.19 204.38 3681.61 203.104 Q3684.03 201.802 3687.49 201.802 Q3687.99 201.802 3688.59 201.88 Q3689.19 201.933 3689.92 202.063 L3689.94 206.985 Z" fill="#000000" fill-rule="nonzero" fill-opacity="1" /><path clip-path="url(#clip700)" d="M3718.74 215.891 L3718.74 218.235 L3696.71 218.235 Q3697.02 223.182 3699.68 225.787 Q3702.36 228.365 3707.13 228.365 Q3709.89 228.365 3712.47 227.688 Q3715.07 227.011 3717.62 225.656 L3717.62 230.188 Q3715.05 231.281 3712.34 231.854 Q3709.63 232.427 3706.84 232.427 Q3699.86 232.427 3695.77 228.365 Q3691.71 224.302 3691.71 217.375 Q3691.71 210.214 3695.57 206.021 Q3699.45 201.802 3706.01 201.802 Q3711.89 201.802 3715.31 205.604 Q3718.74 209.38 3718.74 215.891 M3713.95 214.485 Q3713.9 210.552 3711.74 208.209 Q3709.6 205.865 3706.06 205.865 Q3702.05 205.865 3699.63 208.13 Q3697.23 210.396 3696.87 214.511 L3713.95 214.485 Z" fill="#000000" fill-rule="nonzero" fill-opacity="1" /><path clip-path="url(#clip700)" d="M3745.8 206.933 L3745.8 191.151 L3750.59 191.151 L3750.59 231.672 L3745.8 231.672 L3745.8 227.297 Q3744.29 229.901 3741.97 231.177 Q3739.68 232.427 3736.45 232.427 Q3731.16 232.427 3727.83 228.208 Q3724.52 223.99 3724.52 217.115 Q3724.52 210.24 3727.83 206.021 Q3731.16 201.802 3736.45 201.802 Q3739.68 201.802 3741.97 203.078 Q3744.29 204.328 3745.8 206.933 M3729.47 217.115 Q3729.47 222.401 3731.63 225.422 Q3733.82 228.417 3737.62 228.417 Q3741.43 228.417 3743.61 225.422 Q3745.8 222.401 3745.8 217.115 Q3745.8 211.828 3743.61 208.834 Q3741.43 205.813 3737.62 205.813 Q3733.82 205.813 3731.63 208.834 Q3729.47 211.828 3729.47 217.115 Z" fill="#000000" fill-rule="nonzero" fill-opacity="1" /><path clip-path="url(#clip700)" d="M3760.46 202.505 L3765.25 202.505 L3765.25 231.672 L3760.46 231.672 L3760.46 202.505 M3760.46 191.151 L3765.25 191.151 L3765.25 197.219 L3760.46 197.219 L3760.46 191.151 Z" fill="#000000" fill-rule="nonzero" fill-opacity="1" /><path clip-path="url(#clip700)" d="M3796.27 203.625 L3796.27 208.104 Q3794.24 206.985 3792.18 206.438 Q3790.15 205.865 3788.07 205.865 Q3783.4 205.865 3780.83 208.834 Q3778.25 211.776 3778.25 217.115 Q3778.25 222.453 3780.83 225.422 Q3783.4 228.365 3788.07 228.365 Q3790.15 228.365 3792.18 227.818 Q3794.24 227.245 3796.27 226.125 L3796.27 230.552 Q3794.26 231.49 3792.1 231.958 Q3789.97 232.427 3787.54 232.427 Q3780.96 232.427 3777.08 228.287 Q3773.2 224.146 3773.2 217.115 Q3773.2 209.979 3777.1 205.891 Q3781.03 201.802 3787.86 201.802 Q3790.07 201.802 3792.18 202.271 Q3794.29 202.714 3796.27 203.625 Z" fill="#000000" fill-rule="nonzero" fill-opacity="1" /><path clip-path="url(#clip700)" d="M3809.34 194.224 L3809.34 202.505 L3819.21 202.505 L3819.21 206.229 L3809.34 206.229 L3809.34 222.063 Q3809.34 225.63 3810.31 226.646 Q3811.29 227.662 3814.29 227.662 L3819.21 227.662 L3819.21 231.672 L3814.29 231.672 Q3808.74 231.672 3806.63 229.615 Q3804.52 227.531 3804.52 222.063 L3804.52 206.229 L3801.01 206.229 L3801.01 202.505 L3804.52 202.505 L3804.52 194.224 L3809.34 194.224 Z" fill="#000000" fill-rule="nonzero" fill-opacity="1" /><path clip-path="url(#clip700)" d="M3847.67 240.526 L3847.67 244.25 L3819.97 244.25 L3819.97 240.526 L3847.67 240.526 Z" fill="#000000" fill-rule="nonzero" fill-opacity="1" /><path clip-path="url(#clip700)" d="M3857.39 227.245 L3875.75 227.245 L3875.75 231.672 L3851.06 231.672 L3851.06 227.245 Q3854.05 224.146 3859.21 218.938 Q3864.39 213.703 3865.72 212.193 Q3868.25 209.354 3869.24 207.401 Q3870.25 205.422 3870.25 203.521 Q3870.25 200.422 3868.07 198.469 Q3865.9 196.516 3862.41 196.516 Q3859.94 196.516 3857.18 197.375 Q3854.45 198.235 3851.32 199.979 L3851.32 194.667 Q3854.5 193.391 3857.26 192.74 Q3860.02 192.089 3862.31 192.089 Q3868.35 192.089 3871.95 195.11 Q3875.54 198.13 3875.54 203.183 Q3875.54 205.578 3874.63 207.74 Q3873.74 209.875 3871.37 212.792 Q3870.72 213.547 3867.23 217.167 Q3863.74 220.761 3857.39 227.245 Z" fill="#000000" fill-rule="nonzero" fill-opacity="1" /><path clip-path="url(#clip700)" d="M3898.69 210.136 Q3895.15 210.136 3893.07 212.557 Q3891.01 214.979 3891.01 219.198 Q3891.01 223.391 3893.07 225.839 Q3895.15 228.261 3898.69 228.261 Q3902.23 228.261 3904.29 225.839 Q3906.37 223.391 3906.37 219.198 Q3906.37 214.979 3904.29 212.557 Q3902.23 210.136 3898.69 210.136 M3909.13 193.651 L3909.13 198.443 Q3907.15 197.505 3905.12 197.011 Q3903.12 196.516 3901.14 196.516 Q3895.93 196.516 3893.17 200.031 Q3890.43 203.547 3890.04 210.656 Q3891.58 208.391 3893.9 207.193 Q3896.22 205.969 3899 205.969 Q3904.86 205.969 3908.25 209.537 Q3911.66 213.078 3911.66 219.198 Q3911.66 225.188 3908.12 228.807 Q3904.58 232.427 3898.69 232.427 Q3891.95 232.427 3888.38 227.271 Q3884.81 222.089 3884.81 212.271 Q3884.81 203.052 3889.18 197.584 Q3893.56 192.089 3900.93 192.089 Q3902.91 192.089 3904.91 192.479 Q3906.95 192.87 3909.13 193.651 Z" fill="#000000" fill-rule="nonzero" fill-opacity="1" /><polyline clip-path="url(#clip700)" style="stroke:#1ac938; stroke-linecap:round; stroke-linejoin:round; stroke-width:5.625; stroke-opacity:1; fill:none" points="3351.32,270.552 3597.91,270.552 "/>
<path clip-path="url(#clip700)" d="M3643.82 285.617 L3643.82 301.086 L3639 301.086 L3639 260.825 L3643.82 260.825 L3643.82 265.253 Q3645.33 262.648 3647.62 261.398 Q3649.94 260.122 3653.14 260.122 Q3658.46 260.122 3661.76 264.341 Q3665.1 268.56 3665.1 275.435 Q3665.1 282.31 3661.76 286.528 Q3658.46 290.747 3653.14 290.747 Q3649.94 290.747 3647.62 289.497 Q3645.33 288.221 3643.82 285.617 M3660.12 275.435 Q3660.12 270.148 3657.94 267.154 Q3655.77 264.133 3651.97 264.133 Q3648.17 264.133 3645.98 267.154 Q3643.82 270.148 3643.82 275.435 Q3643.82 280.721 3645.98 283.742 Q3648.17 286.737 3651.97 286.737 Q3655.77 286.737 3657.94 283.742 Q3660.12 280.721 3660.12 275.435 Z" fill="#000000" fill-rule="nonzero" fill-opacity="1" /><path clip-path="url(#clip700)" d="M3689.94 265.305 Q3689.13 264.836 3688.17 264.628 Q3687.23 264.393 3686.09 264.393 Q3682.02 264.393 3679.84 267.049 Q3677.68 269.68 3677.68 274.627 L3677.68 289.992 L3672.86 289.992 L3672.86 260.825 L3677.68 260.825 L3677.68 265.357 Q3679.19 262.7 3681.61 261.424 Q3684.03 260.122 3687.49 260.122 Q3687.99 260.122 3688.59 260.2 Q3689.19 260.253 3689.92 260.383 L3689.94 265.305 Z" fill="#000000" fill-rule="nonzero" fill-opacity="1" /><path clip-path="url(#clip700)" d="M3718.74 274.211 L3718.74 276.555 L3696.71 276.555 Q3697.02 281.502 3699.68 284.107 Q3702.36 286.685 3707.13 286.685 Q3709.89 286.685 3712.47 286.008 Q3715.07 285.331 3717.62 283.976 L3717.62 288.508 Q3715.05 289.601 3712.34 290.174 Q3709.63 290.747 3706.84 290.747 Q3699.86 290.747 3695.77 286.685 Q3691.71 282.622 3691.71 275.695 Q3691.71 268.534 3695.57 264.341 Q3699.45 260.122 3706.01 260.122 Q3711.89 260.122 3715.31 263.924 Q3718.74 267.7 3718.74 274.211 M3713.95 272.805 Q3713.9 268.872 3711.74 266.529 Q3709.6 264.185 3706.06 264.185 Q3702.05 264.185 3699.63 266.45 Q3697.23 268.716 3696.87 272.831 L3713.95 272.805 Z" fill="#000000" fill-rule="nonzero" fill-opacity="1" /><path clip-path="url(#clip700)" d="M3745.8 265.253 L3745.8 249.471 L3750.59 249.471 L3750.59 289.992 L3745.8 289.992 L3745.8 285.617 Q3744.29 288.221 3741.97 289.497 Q3739.68 290.747 3736.45 290.747 Q3731.16 290.747 3727.83 286.528 Q3724.52 282.31 3724.52 275.435 Q3724.52 268.56 3727.83 264.341 Q3731.16 260.122 3736.45 260.122 Q3739.68 260.122 3741.97 261.398 Q3744.29 262.648 3745.8 265.253 M3729.47 275.435 Q3729.47 280.721 3731.63 283.742 Q3733.82 286.737 3737.62 286.737 Q3741.43 286.737 3743.61 283.742 Q3745.8 280.721 3745.8 275.435 Q3745.8 270.148 3743.61 267.154 Q3741.43 264.133 3737.62 264.133 Q3733.82 264.133 3731.63 267.154 Q3729.47 270.148 3729.47 275.435 Z" fill="#000000" fill-rule="nonzero" fill-opacity="1" /><path clip-path="url(#clip700)" d="M3760.46 260.825 L3765.25 260.825 L3765.25 289.992 L3760.46 289.992 L3760.46 260.825 M3760.46 249.471 L3765.25 249.471 L3765.25 255.539 L3760.46 255.539 L3760.46 249.471 Z" fill="#000000" fill-rule="nonzero" fill-opacity="1" /><path clip-path="url(#clip700)" d="M3796.27 261.945 L3796.27 266.424 Q3794.24 265.305 3792.18 264.758 Q3790.15 264.185 3788.07 264.185 Q3783.4 264.185 3780.83 267.154 Q3778.25 270.096 3778.25 275.435 Q3778.25 280.773 3780.83 283.742 Q3783.4 286.685 3788.07 286.685 Q3790.15 286.685 3792.18 286.138 Q3794.24 285.565 3796.27 284.445 L3796.27 288.872 Q3794.26 289.81 3792.1 290.278 Q3789.97 290.747 3787.54 290.747 Q3780.96 290.747 3777.08 286.607 Q3773.2 282.466 3773.2 275.435 Q3773.2 268.299 3777.1 264.211 Q3781.03 260.122 3787.86 260.122 Q3790.07 260.122 3792.18 260.591 Q3794.29 261.034 3796.27 261.945 Z" fill="#000000" fill-rule="nonzero" fill-opacity="1" /><path clip-path="url(#clip700)" d="M3809.34 252.544 L3809.34 260.825 L3819.21 260.825 L3819.21 264.549 L3809.34 264.549 L3809.34 280.383 Q3809.34 283.95 3810.31 284.966 Q3811.29 285.982 3814.29 285.982 L3819.21 285.982 L3819.21 289.992 L3814.29 289.992 Q3808.74 289.992 3806.63 287.935 Q3804.52 285.851 3804.52 280.383 L3804.52 264.549 L3801.01 264.549 L3801.01 260.825 L3804.52 260.825 L3804.52 252.544 L3809.34 252.544 Z" fill="#000000" fill-rule="nonzero" fill-opacity="1" /><path clip-path="url(#clip700)" d="M3847.67 298.846 L3847.67 302.57 L3819.97 302.57 L3819.97 298.846 L3847.67 298.846 Z" fill="#000000" fill-rule="nonzero" fill-opacity="1" /><path clip-path="url(#clip700)" d="M3867.31 255.695 L3854.03 276.45 L3867.31 276.45 L3867.31 255.695 M3865.93 251.112 L3872.54 251.112 L3872.54 276.45 L3878.09 276.45 L3878.09 280.825 L3872.54 280.825 L3872.54 289.992 L3867.31 289.992 L3867.31 280.825 L3849.76 280.825 L3849.76 275.747 L3865.93 251.112 Z" fill="#000000" fill-rule="nonzero" fill-opacity="1" /><polyline clip-path="url(#clip700)" style="stroke:#e8000b; stroke-linecap:round; stroke-linejoin:round; stroke-width:5.625; stroke-opacity:1; fill:none" points="3351.32,328.872 3597.91,328.872 "/>
<path clip-path="url(#clip700)" d="M3643.82 343.937 L3643.82 359.406 L3639 359.406 L3639 319.145 L3643.82 319.145 L3643.82 323.573 Q3645.33 320.968 3647.62 319.718 Q3649.94 318.442 3653.14 318.442 Q3658.46 318.442 3661.76 322.661 Q3665.1 326.88 3665.1 333.755 Q3665.1 340.63 3661.76 344.848 Q3658.46 349.067 3653.14 349.067 Q3649.94 349.067 3647.62 347.817 Q3645.33 346.541 3643.82 343.937 M3660.12 333.755 Q3660.12 328.468 3657.94 325.474 Q3655.77 322.453 3651.97 322.453 Q3648.17 322.453 3645.98 325.474 Q3643.82 328.468 3643.82 333.755 Q3643.82 339.041 3645.98 342.062 Q3648.17 345.057 3651.97 345.057 Q3655.77 345.057 3657.94 342.062 Q3660.12 339.041 3660.12 333.755 Z" fill="#000000" fill-rule="nonzero" fill-opacity="1" /><path clip-path="url(#clip700)" d="M3689.94 323.625 Q3689.13 323.156 3688.17 322.948 Q3687.23 322.713 3686.09 322.713 Q3682.02 322.713 3679.84 325.369 Q3677.68 328 3677.68 332.947 L3677.68 348.312 L3672.86 348.312 L3672.86 319.145 L3677.68 319.145 L3677.68 323.677 Q3679.19 321.02 3681.61 319.744 Q3684.03 318.442 3687.49 318.442 Q3687.99 318.442 3688.59 318.52 Q3689.19 318.573 3689.92 318.703 L3689.94 323.625 Z" fill="#000000" fill-rule="nonzero" fill-opacity="1" /><path clip-path="url(#clip700)" d="M3718.74 332.531 L3718.74 334.875 L3696.71 334.875 Q3697.02 339.822 3699.68 342.427 Q3702.36 345.005 3707.13 345.005 Q3709.89 345.005 3712.47 344.328 Q3715.07 343.651 3717.62 342.296 L3717.62 346.828 Q3715.05 347.921 3712.34 348.494 Q3709.63 349.067 3706.84 349.067 Q3699.86 349.067 3695.77 345.005 Q3691.71 340.942 3691.71 334.015 Q3691.71 326.854 3695.57 322.661 Q3699.45 318.442 3706.01 318.442 Q3711.89 318.442 3715.31 322.244 Q3718.74 326.02 3718.74 332.531 M3713.95 331.125 Q3713.9 327.192 3711.74 324.849 Q3709.6 322.505 3706.06 322.505 Q3702.05 322.505 3699.63 324.77 Q3697.23 327.036 3696.87 331.151 L3713.95 331.125 Z" fill="#000000" fill-rule="nonzero" fill-opacity="1" /><path clip-path="url(#clip700)" d="M3745.8 323.573 L3745.8 307.791 L3750.59 307.791 L3750.59 348.312 L3745.8 348.312 L3745.8 343.937 Q3744.29 346.541 3741.97 347.817 Q3739.68 349.067 3736.45 349.067 Q3731.16 349.067 3727.83 344.848 Q3724.52 340.63 3724.52 333.755 Q3724.52 326.88 3727.83 322.661 Q3731.16 318.442 3736.45 318.442 Q3739.68 318.442 3741.97 319.718 Q3744.29 320.968 3745.8 323.573 M3729.47 333.755 Q3729.47 339.041 3731.63 342.062 Q3733.82 345.057 3737.62 345.057 Q3741.43 345.057 3743.61 342.062 Q3745.8 339.041 3745.8 333.755 Q3745.8 328.468 3743.61 325.474 Q3741.43 322.453 3737.62 322.453 Q3733.82 322.453 3731.63 325.474 Q3729.47 328.468 3729.47 333.755 Z" fill="#000000" fill-rule="nonzero" fill-opacity="1" /><path clip-path="url(#clip700)" d="M3760.46 319.145 L3765.25 319.145 L3765.25 348.312 L3760.46 348.312 L3760.46 319.145 M3760.46 307.791 L3765.25 307.791 L3765.25 313.859 L3760.46 313.859 L3760.46 307.791 Z" fill="#000000" fill-rule="nonzero" fill-opacity="1" /><path clip-path="url(#clip700)" d="M3796.27 320.265 L3796.27 324.744 Q3794.24 323.625 3792.18 323.078 Q3790.15 322.505 3788.07 322.505 Q3783.4 322.505 3780.83 325.474 Q3778.25 328.416 3778.25 333.755 Q3778.25 339.093 3780.83 342.062 Q3783.4 345.005 3788.07 345.005 Q3790.15 345.005 3792.18 344.458 Q3794.24 343.885 3796.27 342.765 L3796.27 347.192 Q3794.26 348.13 3792.1 348.598 Q3789.97 349.067 3787.54 349.067 Q3780.96 349.067 3777.08 344.927 Q3773.2 340.786 3773.2 333.755 Q3773.2 326.619 3777.1 322.531 Q3781.03 318.442 3787.86 318.442 Q3790.07 318.442 3792.18 318.911 Q3794.29 319.354 3796.27 320.265 Z" fill="#000000" fill-rule="nonzero" fill-opacity="1" /><path clip-path="url(#clip700)" d="M3809.34 310.864 L3809.34 319.145 L3819.21 319.145 L3819.21 322.869 L3809.34 322.869 L3809.34 338.703 Q3809.34 342.27 3810.31 343.286 Q3811.29 344.302 3814.29 344.302 L3819.21 344.302 L3819.21 348.312 L3814.29 348.312 Q3808.74 348.312 3806.63 346.255 Q3804.52 344.171 3804.52 338.703 L3804.52 322.869 L3801.01 322.869 L3801.01 319.145 L3804.52 319.145 L3804.52 310.864 L3809.34 310.864 Z" fill="#000000" fill-rule="nonzero" fill-opacity="1" /><path clip-path="url(#clip700)" d="M3847.67 357.166 L3847.67 360.89 L3819.97 360.89 L3819.97 357.166 L3847.67 357.166 Z" fill="#000000" fill-rule="nonzero" fill-opacity="1" /><path clip-path="url(#clip700)" d="M3853.77 343.885 L3862.36 343.885 L3862.36 314.224 L3853.01 316.099 L3853.01 311.307 L3862.31 309.432 L3867.57 309.432 L3867.57 343.885 L3876.16 343.885 L3876.16 348.312 L3853.77 348.312 L3853.77 343.885 Z" fill="#000000" fill-rule="nonzero" fill-opacity="1" /><polyline clip-path="url(#clip700)" style="stroke:#000000; stroke-linecap:round; stroke-linejoin:round; stroke-width:6.75; stroke-opacity:1; fill:none" points="3351.32,387.192 3597.91,387.192 "/>
<path clip-path="url(#clip700)" d="M3654.08 391.971 Q3648.27 391.971 3646.04 393.299 Q3643.8 394.627 3643.8 397.83 Q3643.8 400.382 3645.46 401.892 Q3647.15 403.377 3650.05 403.377 Q3654.03 403.377 3656.43 400.564 Q3658.85 397.726 3658.85 393.038 L3658.85 391.971 L3654.08 391.971 M3663.64 389.991 L3663.64 406.632 L3658.85 406.632 L3658.85 402.205 Q3657.21 404.861 3654.76 406.137 Q3652.31 407.387 3648.77 407.387 Q3644.29 407.387 3641.63 404.887 Q3639 402.361 3639 398.142 Q3639 393.221 3642.29 390.721 Q3645.59 388.221 3652.13 388.221 L3658.85 388.221 L3658.85 387.752 Q3658.85 384.445 3656.66 382.648 Q3654.5 380.825 3650.57 380.825 Q3648.07 380.825 3645.7 381.424 Q3643.33 382.023 3641.14 383.221 L3641.14 378.794 Q3643.77 377.778 3646.24 377.283 Q3648.72 376.762 3651.06 376.762 Q3657.39 376.762 3660.51 380.044 Q3663.64 383.325 3663.64 389.991 Z" fill="#000000" fill-rule="nonzero" fill-opacity="1" /><path clip-path="url(#clip700)" d="M3694.5 378.585 L3694.5 383.064 Q3692.47 381.945 3690.41 381.398 Q3688.38 380.825 3686.3 380.825 Q3681.63 380.825 3679.06 383.794 Q3676.48 386.736 3676.48 392.075 Q3676.48 397.413 3679.06 400.382 Q3681.63 403.325 3686.3 403.325 Q3688.38 403.325 3690.41 402.778 Q3692.47 402.205 3694.5 401.085 L3694.5 405.512 Q3692.49 406.45 3690.33 406.918 Q3688.2 407.387 3685.77 407.387 Q3679.19 407.387 3675.31 403.247 Q3671.43 399.106 3671.43 392.075 Q3671.43 384.939 3675.33 380.851 Q3679.26 376.762 3686.09 376.762 Q3688.3 376.762 3690.41 377.231 Q3692.52 377.674 3694.5 378.585 Z" fill="#000000" fill-rule="nonzero" fill-opacity="1" /><path clip-path="url(#clip700)" d="M3707.57 369.184 L3707.57 377.465 L3717.44 377.465 L3717.44 381.189 L3707.57 381.189 L3707.57 397.023 Q3707.57 400.59 3708.53 401.606 Q3709.52 402.622 3712.52 402.622 L3717.44 402.622 L3717.44 406.632 L3712.52 406.632 Q3706.97 406.632 3704.86 404.575 Q3702.75 402.491 3702.75 397.023 L3702.75 381.189 L3699.24 381.189 L3699.24 377.465 L3702.75 377.465 L3702.75 369.184 L3707.57 369.184 Z" fill="#000000" fill-rule="nonzero" fill-opacity="1" /><path clip-path="url(#clip700)" d="M3723.25 395.122 L3723.25 377.465 L3728.04 377.465 L3728.04 394.939 Q3728.04 399.08 3729.65 401.163 Q3731.27 403.221 3734.5 403.221 Q3738.38 403.221 3740.62 400.747 Q3742.88 398.273 3742.88 394.002 L3742.88 377.465 L3747.68 377.465 L3747.68 406.632 L3742.88 406.632 L3742.88 402.153 Q3741.14 404.809 3738.82 406.111 Q3736.53 407.387 3733.48 407.387 Q3728.46 407.387 3725.85 404.262 Q3723.25 401.137 3723.25 395.122 M3735.31 376.762 L3735.31 376.762 Z" fill="#000000" fill-rule="nonzero" fill-opacity="1" /><path clip-path="url(#clip700)" d="M3770.8 391.971 Q3764.99 391.971 3762.75 393.299 Q3760.51 394.627 3760.51 397.83 Q3760.51 400.382 3762.18 401.892 Q3763.87 403.377 3766.76 403.377 Q3770.75 403.377 3773.14 400.564 Q3775.57 397.726 3775.57 393.038 L3775.57 391.971 L3770.8 391.971 M3780.36 389.991 L3780.36 406.632 L3775.57 406.632 L3775.57 402.205 Q3773.93 404.861 3771.48 406.137 Q3769.03 407.387 3765.49 407.387 Q3761.01 407.387 3758.35 404.887 Q3755.72 402.361 3755.72 398.142 Q3755.72 393.221 3759 390.721 Q3762.31 388.221 3768.85 388.221 L3775.57 388.221 L3775.57 387.752 Q3775.57 384.445 3773.38 382.648 Q3771.22 380.825 3767.28 380.825 Q3764.78 380.825 3762.41 381.424 Q3760.04 382.023 3757.86 383.221 L3757.86 378.794 Q3760.49 377.778 3762.96 377.283 Q3765.44 376.762 3767.78 376.762 Q3774.11 376.762 3777.23 380.044 Q3780.36 383.325 3780.36 389.991 Z" fill="#000000" fill-rule="nonzero" fill-opacity="1" /><path clip-path="url(#clip700)" d="M3790.23 366.111 L3795.02 366.111 L3795.02 406.632 L3790.23 406.632 L3790.23 366.111 Z" fill="#000000" fill-rule="nonzero" fill-opacity="1" /></svg>
