<?xml version="1.0" encoding="utf-8"?>
<svg xmlns="http://www.w3.org/2000/svg" xmlns:xlink="http://www.w3.org/1999/xlink" width="1000" height="400" viewBox="0 0 4000 1600">
<defs>
  <clipPath id="clip360">
    <rect x="0" y="0" width="4000" height="1600"/>
  </clipPath>
</defs>
<path clip-path="url(#clip360)" d="M0 1600 L4000 1600 L4000 0 L0 0  Z" fill="#ffffff" fill-rule="evenodd" fill-opacity="1"/>
<defs>
  <clipPath id="clip361">
    <rect x="800" y="0" width="2801" height="1600"/>
  </clipPath>
</defs>
<path clip-path="url(#clip360)" d="M203.123 1497.68 L3180.15 1497.68 L3180.15 47.2441 L203.123 47.2441  Z" fill="#ffffff" fill-rule="evenodd" fill-opacity="1"/>
<defs>
  <clipPath id="clip362">
    <rect x="203" y="47" width="2978" height="1451"/>
  </clipPath>
</defs>
<polyline clip-path="url(#clip362)" style="stroke:#000000; stroke-linecap:round; stroke-linejoin:round; stroke-width:2; stroke-opacity:0.1; fill:none" points="287.379,1497.68 287.379,47.2441 "/>
<polyline clip-path="url(#clip362)" style="stroke:#000000; stroke-linecap:round; stroke-linejoin:round; stroke-width:2; stroke-opacity:0.1; fill:none" points="1094.62,1497.68 1094.62,47.2441 "/>
<polyline clip-path="url(#clip362)" style="stroke:#000000; stroke-linecap:round; stroke-linejoin:round; stroke-width:2; stroke-opacity:0.1; fill:none" points="1901.85,1497.68 1901.85,47.2441 "/>
<polyline clip-path="url(#clip362)" style="stroke:#000000; stroke-linecap:round; stroke-linejoin:round; stroke-width:2; stroke-opacity:0.1; fill:none" points="2709.09,1497.68 2709.09,47.2441 "/>
<polyline clip-path="url(#clip360)" style="stroke:#000000; stroke-linecap:round; stroke-linejoin:round; stroke-width:4; stroke-opacity:1; fill:none" points="203.123,1497.68 3180.15,1497.68 "/>
<polyline clip-path="url(#clip360)" style="stroke:#000000; stroke-linecap:round; stroke-linejoin:round; stroke-width:4; stroke-opacity:1; fill:none" points="287.379,1497.68 287.379,1478.78 "/>
<polyline clip-path="url(#clip360)" style="stroke:#000000; stroke-linecap:round; stroke-linejoin:round; stroke-width:4; stroke-opacity:1; fill:none" points="1094.62,1497.68 1094.62,1478.78 "/>
<polyline clip-path="url(#clip360)" style="stroke:#000000; stroke-linecap:round; stroke-linejoin:round; stroke-width:4; stroke-opacity:1; fill:none" points="1901.85,1497.68 1901.85,1478.78 "/>
<polyline clip-path="url(#clip360)" style="stroke:#000000; stroke-linecap:round; stroke-linejoin:round; stroke-width:4; stroke-opacity:1; fill:none" points="2709.09,1497.68 2709.09,1478.78 "/>
<path clip-path="url(#clip360)" d="M142.562 1573.85 L160.921 1573.85 L160.921 1578.28 L136.234 1578.28 L136.234 1573.85 Q139.229 1570.75 144.385 1565.55 Q149.567 1560.31 150.895 1558.8 Q153.421 1555.96 154.411 1554.01 Q155.426 1552.03 155.426 1550.13 Q155.426 1547.03 153.239 1545.08 Q151.078 1543.12 147.588 1543.12 Q145.114 1543.12 142.354 1543.98 Q139.619 1544.84 136.494 1546.59 L136.494 1541.27 Q139.671 1540 142.432 1539.35 Q145.192 1538.7 147.484 1538.7 Q153.525 1538.7 157.119 1541.72 Q160.713 1544.74 160.713 1549.79 Q160.713 1552.19 159.801 1554.35 Q158.916 1556.48 156.546 1559.4 Q155.895 1560.15 152.406 1563.77 Q148.916 1567.37 142.562 1573.85 Z" fill="#000000" fill-rule="nonzero" fill-opacity="1" /><path clip-path="url(#clip360)" d="M183.213 1542.86 Q179.15 1542.86 177.093 1546.87 Q175.062 1550.86 175.062 1558.88 Q175.062 1566.87 177.093 1570.88 Q179.15 1574.87 183.213 1574.87 Q187.301 1574.87 189.333 1570.88 Q191.39 1566.87 191.39 1558.88 Q191.39 1550.86 189.333 1546.87 Q187.301 1542.86 183.213 1542.86 M183.213 1538.7 Q189.749 1538.7 193.187 1543.88 Q196.65 1549.04 196.65 1558.88 Q196.65 1568.7 193.187 1573.88 Q189.749 1579.04 183.213 1579.04 Q176.676 1579.04 173.213 1573.88 Q169.775 1568.7 169.775 1558.88 Q169.775 1549.04 173.213 1543.88 Q176.676 1538.7 183.213 1538.7 Z" fill="#000000" fill-rule="nonzero" fill-opacity="1" /><path clip-path="url(#clip360)" d="M210.426 1573.85 L228.785 1573.85 L228.785 1578.28 L204.098 1578.28 L204.098 1573.85 Q207.093 1570.75 212.249 1565.55 Q217.431 1560.31 218.759 1558.8 Q221.285 1555.96 222.275 1554.01 Q223.291 1552.03 223.291 1550.13 Q223.291 1547.03 221.103 1545.08 Q218.942 1543.12 215.452 1543.12 Q212.978 1543.12 210.218 1543.98 Q207.483 1544.84 204.358 1546.59 L204.358 1541.27 Q207.536 1540 210.296 1539.35 Q213.056 1538.7 215.348 1538.7 Q221.39 1538.7 224.983 1541.72 Q228.577 1544.74 228.577 1549.79 Q228.577 1552.19 227.666 1554.35 Q226.78 1556.48 224.41 1559.4 Q223.759 1560.15 220.27 1563.77 Q216.78 1567.37 210.426 1573.85 Z" fill="#000000" fill-rule="nonzero" fill-opacity="1" /><path clip-path="url(#clip360)" d="M255.764 1557.32 Q259.54 1558.12 261.65 1560.68 Q263.785 1563.23 263.785 1566.98 Q263.785 1572.73 259.827 1575.88 Q255.869 1579.04 248.577 1579.04 Q246.129 1579.04 243.525 1578.54 Q240.947 1578.07 238.186 1577.11 L238.186 1572.03 Q240.374 1573.31 242.978 1573.96 Q245.582 1574.61 248.421 1574.61 Q253.369 1574.61 255.947 1572.65 Q258.551 1570.7 258.551 1566.98 Q258.551 1563.54 256.129 1561.61 Q253.733 1559.66 249.436 1559.66 L244.905 1559.66 L244.905 1555.34 L249.645 1555.34 Q253.525 1555.34 255.582 1553.8 Q257.639 1552.24 257.639 1549.32 Q257.639 1546.33 255.504 1544.74 Q253.395 1543.12 249.436 1543.12 Q247.275 1543.12 244.801 1543.59 Q242.327 1544.06 239.358 1545.05 L239.358 1540.36 Q242.353 1539.53 244.957 1539.11 Q247.587 1538.7 249.905 1538.7 Q255.895 1538.7 259.384 1541.43 Q262.874 1544.14 262.874 1548.77 Q262.874 1552 261.025 1554.24 Q259.176 1556.46 255.764 1557.32 Z" fill="#000000" fill-rule="nonzero" fill-opacity="1" /><path clip-path="url(#clip360)" d="M270.66 1561.54 L284.697 1561.54 L284.697 1565.81 L270.66 1565.81 L270.66 1561.54 Z" fill="#000000" fill-rule="nonzero" fill-opacity="1" /><path clip-path="url(#clip360)" d="M304.254 1542.86 Q300.191 1542.86 298.134 1546.87 Q296.103 1550.86 296.103 1558.88 Q296.103 1566.87 298.134 1570.88 Q300.191 1574.87 304.254 1574.87 Q308.342 1574.87 310.374 1570.88 Q312.431 1566.87 312.431 1558.88 Q312.431 1550.86 310.374 1546.87 Q308.342 1542.86 304.254 1542.86 M304.254 1538.7 Q310.79 1538.7 314.228 1543.88 Q317.691 1549.04 317.691 1558.88 Q317.691 1568.7 314.228 1573.88 Q310.79 1579.04 304.254 1579.04 Q297.717 1579.04 294.254 1573.88 Q290.816 1568.7 290.816 1558.88 Q290.816 1549.04 294.254 1543.88 Q297.717 1538.7 304.254 1538.7 Z" fill="#000000" fill-rule="nonzero" fill-opacity="1" /><path clip-path="url(#clip360)" d="M327.847 1573.85 L336.441 1573.85 L336.441 1544.19 L327.092 1546.07 L327.092 1541.27 L336.389 1539.4 L341.649 1539.4 L341.649 1573.85 L350.243 1573.85 L350.243 1578.28 L327.847 1578.28 L327.847 1573.85 Z" fill="#000000" fill-rule="nonzero" fill-opacity="1" /><path clip-path="url(#clip360)" d="M357.769 1561.54 L371.805 1561.54 L371.805 1565.81 L357.769 1565.81 L357.769 1561.54 Z" fill="#000000" fill-rule="nonzero" fill-opacity="1" /><path clip-path="url(#clip360)" d="M391.363 1542.86 Q387.3 1542.86 385.243 1546.87 Q383.212 1550.86 383.212 1558.88 Q383.212 1566.87 385.243 1570.88 Q387.3 1574.87 391.363 1574.87 Q395.451 1574.87 397.482 1570.88 Q399.54 1566.87 399.54 1558.88 Q399.54 1550.86 397.482 1546.87 Q395.451 1542.86 391.363 1542.86 M391.363 1538.7 Q397.899 1538.7 401.337 1543.88 Q404.8 1549.04 404.8 1558.88 Q404.8 1568.7 401.337 1573.88 Q397.899 1579.04 391.363 1579.04 Q384.826 1579.04 381.363 1573.88 Q377.925 1568.7 377.925 1558.88 Q377.925 1549.04 381.363 1543.88 Q384.826 1538.7 391.363 1538.7 Z" fill="#000000" fill-rule="nonzero" fill-opacity="1" /><path clip-path="url(#clip360)" d="M414.201 1577.47 L414.201 1572.68 Q416.18 1573.62 418.211 1574.11 Q420.243 1574.61 422.196 1574.61 Q427.404 1574.61 430.139 1571.12 Q432.899 1567.6 433.29 1560.47 Q431.779 1562.71 429.461 1563.9 Q427.144 1565.1 424.331 1565.1 Q418.498 1565.1 415.087 1561.59 Q411.701 1558.05 411.701 1551.93 Q411.701 1545.94 415.243 1542.32 Q418.784 1538.7 424.67 1538.7 Q431.415 1538.7 434.956 1543.88 Q438.524 1549.04 438.524 1558.88 Q438.524 1568.07 434.149 1573.57 Q429.8 1579.04 422.43 1579.04 Q420.451 1579.04 418.42 1578.64 Q416.389 1578.25 414.201 1577.47 M424.67 1560.99 Q428.211 1560.99 430.269 1558.57 Q432.352 1556.14 432.352 1551.93 Q432.352 1547.73 430.269 1545.31 Q428.211 1542.86 424.67 1542.86 Q421.128 1542.86 419.045 1545.31 Q416.988 1547.73 416.988 1551.93 Q416.988 1556.14 419.045 1558.57 Q421.128 1560.99 424.67 1560.99 Z" fill="#000000" fill-rule="nonzero" fill-opacity="1" /><path clip-path="url(#clip360)" d="M950.386 1573.85 L968.745 1573.85 L968.745 1578.28 L944.058 1578.28 L944.058 1573.85 Q947.053 1570.75 952.209 1565.55 Q957.391 1560.31 958.719 1558.8 Q961.245 1555.96 962.235 1554.01 Q963.25 1552.03 963.25 1550.13 Q963.25 1547.03 961.063 1545.08 Q958.902 1543.12 955.412 1543.12 Q952.938 1543.12 950.178 1543.98 Q947.443 1544.84 944.318 1546.59 L944.318 1541.27 Q947.495 1540 950.256 1539.35 Q953.016 1538.7 955.308 1538.7 Q961.349 1538.7 964.943 1541.72 Q968.537 1544.74 968.537 1549.79 Q968.537 1552.19 967.625 1554.35 Q966.74 1556.48 964.37 1559.4 Q963.719 1560.15 960.23 1563.77 Q956.74 1567.37 950.386 1573.85 Z" fill="#000000" fill-rule="nonzero" fill-opacity="1" /><path clip-path="url(#clip360)" d="M991.037 1542.86 Q986.974 1542.86 984.917 1546.87 Q982.886 1550.86 982.886 1558.88 Q982.886 1566.87 984.917 1570.88 Q986.974 1574.87 991.037 1574.87 Q995.125 1574.87 997.157 1570.88 Q999.214 1566.87 999.214 1558.88 Q999.214 1550.86 997.157 1546.87 Q995.125 1542.86 991.037 1542.86 M991.037 1538.7 Q997.573 1538.7 1001.01 1543.88 Q1004.47 1549.04 1004.47 1558.88 Q1004.47 1568.7 1001.01 1573.88 Q997.573 1579.04 991.037 1579.04 Q984.5 1579.04 981.037 1573.88 Q977.599 1568.7 977.599 1558.88 Q977.599 1549.04 981.037 1543.88 Q984.5 1538.7 991.037 1538.7 Z" fill="#000000" fill-rule="nonzero" fill-opacity="1" /><path clip-path="url(#clip360)" d="M1018.25 1573.85 L1036.61 1573.85 L1036.61 1578.28 L1011.92 1578.28 L1011.92 1573.85 Q1014.92 1570.75 1020.07 1565.55 Q1025.26 1560.31 1026.58 1558.8 Q1029.11 1555.96 1030.1 1554.01 Q1031.11 1552.03 1031.11 1550.13 Q1031.11 1547.03 1028.93 1545.08 Q1026.77 1543.12 1023.28 1543.12 Q1020.8 1543.12 1018.04 1543.98 Q1015.31 1544.84 1012.18 1546.59 L1012.18 1541.27 Q1015.36 1540 1018.12 1539.35 Q1020.88 1538.7 1023.17 1538.7 Q1029.21 1538.7 1032.81 1541.72 Q1036.4 1544.74 1036.4 1549.79 Q1036.4 1552.19 1035.49 1554.35 Q1034.6 1556.48 1032.23 1559.4 Q1031.58 1560.15 1028.09 1563.77 Q1024.6 1567.37 1018.25 1573.85 Z" fill="#000000" fill-rule="nonzero" fill-opacity="1" /><path clip-path="url(#clip360)" d="M1063.59 1557.32 Q1067.36 1558.12 1069.47 1560.68 Q1071.61 1563.23 1071.61 1566.98 Q1071.61 1572.73 1067.65 1575.88 Q1063.69 1579.04 1056.4 1579.04 Q1053.95 1579.04 1051.35 1578.54 Q1048.77 1578.07 1046.01 1577.11 L1046.01 1572.03 Q1048.2 1573.31 1050.8 1573.96 Q1053.41 1574.61 1056.24 1574.61 Q1061.19 1574.61 1063.77 1572.65 Q1066.37 1570.7 1066.37 1566.98 Q1066.37 1563.54 1063.95 1561.61 Q1061.56 1559.66 1057.26 1559.66 L1052.73 1559.66 L1052.73 1555.34 L1057.47 1555.34 Q1061.35 1555.34 1063.41 1553.8 Q1065.46 1552.24 1065.46 1549.32 Q1065.46 1546.33 1063.33 1544.74 Q1061.22 1543.12 1057.26 1543.12 Q1055.1 1543.12 1052.62 1543.59 Q1050.15 1544.06 1047.18 1545.05 L1047.18 1540.36 Q1050.18 1539.53 1052.78 1539.11 Q1055.41 1538.7 1057.73 1538.7 Q1063.72 1538.7 1067.21 1541.43 Q1070.7 1544.14 1070.7 1548.77 Q1070.7 1552 1068.85 1554.24 Q1067 1556.46 1063.59 1557.32 Z" fill="#000000" fill-rule="nonzero" fill-opacity="1" /><path clip-path="url(#clip360)" d="M1078.48 1561.54 L1092.52 1561.54 L1092.52 1565.81 L1078.48 1565.81 L1078.48 1561.54 Z" fill="#000000" fill-rule="nonzero" fill-opacity="1" /><path clip-path="url(#clip360)" d="M1112.08 1542.86 Q1108.02 1542.86 1105.96 1546.87 Q1103.93 1550.86 1103.93 1558.88 Q1103.93 1566.87 1105.96 1570.88 Q1108.02 1574.87 1112.08 1574.87 Q1116.17 1574.87 1118.2 1570.88 Q1120.25 1566.87 1120.25 1558.88 Q1120.25 1550.86 1118.2 1546.87 Q1116.17 1542.86 1112.08 1542.86 M1112.08 1538.7 Q1118.61 1538.7 1122.05 1543.88 Q1125.52 1549.04 1125.52 1558.88 Q1125.52 1568.7 1122.05 1573.88 Q1118.61 1579.04 1112.08 1579.04 Q1105.54 1579.04 1102.08 1573.88 Q1098.64 1568.7 1098.64 1558.88 Q1098.64 1549.04 1102.08 1543.88 Q1105.54 1538.7 1112.08 1538.7 Z" fill="#000000" fill-rule="nonzero" fill-opacity="1" /><path clip-path="url(#clip360)" d="M1135.67 1573.85 L1144.27 1573.85 L1144.27 1544.19 L1134.92 1546.07 L1134.92 1541.27 L1144.21 1539.4 L1149.47 1539.4 L1149.47 1573.85 L1158.07 1573.85 L1158.07 1578.28 L1135.67 1578.28 L1135.67 1573.85 Z" fill="#000000" fill-rule="nonzero" fill-opacity="1" /><path clip-path="url(#clip360)" d="M1165.59 1561.54 L1179.63 1561.54 L1179.63 1565.81 L1165.59 1565.81 L1165.59 1561.54 Z" fill="#000000" fill-rule="nonzero" fill-opacity="1" /><path clip-path="url(#clip360)" d="M1188.85 1573.85 L1197.44 1573.85 L1197.44 1544.19 L1188.09 1546.07 L1188.09 1541.27 L1197.39 1539.4 L1202.65 1539.4 L1202.65 1573.85 L1211.24 1573.85 L1211.24 1578.28 L1188.85 1578.28 L1188.85 1573.85 Z" fill="#000000" fill-rule="nonzero" fill-opacity="1" /><path clip-path="url(#clip360)" d="M1222.78 1573.85 L1231.37 1573.85 L1231.37 1544.19 L1222.03 1546.07 L1222.03 1541.27 L1231.32 1539.4 L1236.58 1539.4 L1236.58 1573.85 L1245.18 1573.85 L1245.18 1578.28 L1222.78 1578.28 L1222.78 1573.85 Z" fill="#000000" fill-rule="nonzero" fill-opacity="1" /><path clip-path="url(#clip360)" d="M1757.3 1573.85 L1775.66 1573.85 L1775.66 1578.28 L1750.97 1578.28 L1750.97 1573.85 Q1753.97 1570.75 1759.12 1565.55 Q1764.3 1560.31 1765.63 1558.8 Q1768.16 1555.96 1769.15 1554.01 Q1770.16 1552.03 1770.16 1550.13 Q1770.16 1547.03 1767.98 1545.08 Q1765.81 1543.12 1762.32 1543.12 Q1759.85 1543.12 1757.09 1543.98 Q1754.36 1544.84 1751.23 1546.59 L1751.23 1541.27 Q1754.41 1540 1757.17 1539.35 Q1759.93 1538.7 1762.22 1538.7 Q1768.26 1538.7 1771.86 1541.72 Q1775.45 1544.74 1775.45 1549.79 Q1775.45 1552.19 1774.54 1554.35 Q1773.65 1556.48 1771.28 1559.4 Q1770.63 1560.15 1767.14 1563.77 Q1763.65 1567.37 1757.3 1573.85 Z" fill="#000000" fill-rule="nonzero" fill-opacity="1" /><path clip-path="url(#clip360)" d="M1797.95 1542.86 Q1793.89 1542.86 1791.83 1546.87 Q1789.8 1550.86 1789.8 1558.88 Q1789.8 1566.87 1791.83 1570.88 Q1793.89 1574.87 1797.95 1574.87 Q1802.04 1574.87 1804.07 1570.88 Q1806.13 1566.87 1806.13 1558.88 Q1806.13 1550.86 1804.07 1546.87 Q1802.04 1542.86 1797.95 1542.86 M1797.95 1538.7 Q1804.49 1538.7 1807.92 1543.88 Q1811.39 1549.04 1811.39 1558.88 Q1811.39 1568.7 1807.92 1573.88 Q1804.49 1579.04 1797.95 1579.04 Q1791.41 1579.04 1787.95 1573.88 Q1784.51 1568.7 1784.51 1558.88 Q1784.51 1549.04 1787.95 1543.88 Q1791.41 1538.7 1797.95 1538.7 Z" fill="#000000" fill-rule="nonzero" fill-opacity="1" /><path clip-path="url(#clip360)" d="M1825.16 1573.85 L1843.52 1573.85 L1843.52 1578.28 L1818.83 1578.28 L1818.83 1573.85 Q1821.83 1570.75 1826.99 1565.55 Q1832.17 1560.31 1833.5 1558.8 Q1836.02 1555.96 1837.01 1554.01 Q1838.03 1552.03 1838.03 1550.13 Q1838.03 1547.03 1835.84 1545.08 Q1833.68 1543.12 1830.19 1543.12 Q1827.71 1543.12 1824.95 1543.98 Q1822.22 1544.84 1819.1 1546.59 L1819.1 1541.27 Q1822.27 1540 1825.03 1539.35 Q1827.79 1538.7 1830.08 1538.7 Q1836.13 1538.7 1839.72 1541.72 Q1843.31 1544.74 1843.31 1549.79 Q1843.31 1552.19 1842.4 1554.35 Q1841.52 1556.48 1839.15 1559.4 Q1838.5 1560.15 1835.01 1563.77 Q1831.52 1567.37 1825.16 1573.85 Z" fill="#000000" fill-rule="nonzero" fill-opacity="1" /><path clip-path="url(#clip360)" d="M1870.5 1557.32 Q1874.28 1558.12 1876.39 1560.68 Q1878.52 1563.23 1878.52 1566.98 Q1878.52 1572.73 1874.56 1575.88 Q1870.61 1579.04 1863.31 1579.04 Q1860.87 1579.04 1858.26 1578.54 Q1855.68 1578.07 1852.92 1577.11 L1852.92 1572.03 Q1855.11 1573.31 1857.71 1573.96 Q1860.32 1574.61 1863.16 1574.61 Q1868.11 1574.61 1870.68 1572.65 Q1873.29 1570.7 1873.29 1566.98 Q1873.29 1563.54 1870.87 1561.61 Q1868.47 1559.66 1864.17 1559.66 L1859.64 1559.66 L1859.64 1555.34 L1864.38 1555.34 Q1868.26 1555.34 1870.32 1553.8 Q1872.38 1552.24 1872.38 1549.32 Q1872.38 1546.33 1870.24 1544.74 Q1868.13 1543.12 1864.17 1543.12 Q1862.01 1543.12 1859.54 1543.59 Q1857.06 1544.06 1854.09 1545.05 L1854.09 1540.36 Q1857.09 1539.53 1859.69 1539.11 Q1862.32 1538.7 1864.64 1538.7 Q1870.63 1538.7 1874.12 1541.43 Q1877.61 1544.14 1877.61 1548.77 Q1877.61 1552 1875.76 1554.24 Q1873.91 1556.46 1870.5 1557.32 Z" fill="#000000" fill-rule="nonzero" fill-opacity="1" /><path clip-path="url(#clip360)" d="M1885.4 1561.54 L1899.43 1561.54 L1899.43 1565.81 L1885.4 1565.81 L1885.4 1561.54 Z" fill="#000000" fill-rule="nonzero" fill-opacity="1" /><path clip-path="url(#clip360)" d="M1918.99 1542.86 Q1914.93 1542.86 1912.87 1546.87 Q1910.84 1550.86 1910.84 1558.88 Q1910.84 1566.87 1912.87 1570.88 Q1914.93 1574.87 1918.99 1574.87 Q1923.08 1574.87 1925.11 1570.88 Q1927.17 1566.87 1927.17 1558.88 Q1927.17 1550.86 1925.11 1546.87 Q1923.08 1542.86 1918.99 1542.86 M1918.99 1538.7 Q1925.53 1538.7 1928.96 1543.88 Q1932.43 1549.04 1932.43 1558.88 Q1932.43 1568.7 1928.96 1573.88 Q1925.53 1579.04 1918.99 1579.04 Q1912.45 1579.04 1908.99 1573.88 Q1905.55 1568.7 1905.55 1558.88 Q1905.55 1549.04 1908.99 1543.88 Q1912.45 1538.7 1918.99 1538.7 Z" fill="#000000" fill-rule="nonzero" fill-opacity="1" /><path clip-path="url(#clip360)" d="M1942.58 1573.85 L1951.18 1573.85 L1951.18 1544.19 L1941.83 1546.07 L1941.83 1541.27 L1951.13 1539.4 L1956.39 1539.4 L1956.39 1573.85 L1964.98 1573.85 L1964.98 1578.28 L1942.58 1578.28 L1942.58 1573.85 Z" fill="#000000" fill-rule="nonzero" fill-opacity="1" /><path clip-path="url(#clip360)" d="M1972.51 1561.54 L1986.54 1561.54 L1986.54 1565.81 L1972.51 1565.81 L1972.51 1561.54 Z" fill="#000000" fill-rule="nonzero" fill-opacity="1" /><path clip-path="url(#clip360)" d="M1995.76 1573.85 L2004.35 1573.85 L2004.35 1544.19 L1995.01 1546.07 L1995.01 1541.27 L2004.3 1539.4 L2009.56 1539.4 L2009.56 1573.85 L2018.16 1573.85 L2018.16 1578.28 L1995.76 1578.28 L1995.76 1573.85 Z" fill="#000000" fill-rule="nonzero" fill-opacity="1" /><path clip-path="url(#clip360)" d="M2044.72 1557.32 Q2048.49 1558.12 2050.6 1560.68 Q2052.74 1563.23 2052.74 1566.98 Q2052.74 1572.73 2048.78 1575.88 Q2044.82 1579.04 2037.53 1579.04 Q2035.08 1579.04 2032.48 1578.54 Q2029.9 1578.07 2027.14 1577.11 L2027.14 1572.03 Q2029.33 1573.31 2031.93 1573.96 Q2034.54 1574.61 2037.38 1574.61 Q2042.32 1574.61 2044.9 1572.65 Q2047.51 1570.7 2047.51 1566.98 Q2047.51 1563.54 2045.08 1561.61 Q2042.69 1559.66 2038.39 1559.66 L2033.86 1559.66 L2033.86 1555.34 L2038.6 1555.34 Q2042.48 1555.34 2044.54 1553.8 Q2046.59 1552.24 2046.59 1549.32 Q2046.59 1546.33 2044.46 1544.74 Q2042.35 1543.12 2038.39 1543.12 Q2036.23 1543.12 2033.76 1543.59 Q2031.28 1544.06 2028.31 1545.05 L2028.31 1540.36 Q2031.31 1539.53 2033.91 1539.11 Q2036.54 1538.7 2038.86 1538.7 Q2044.85 1538.7 2048.34 1541.43 Q2051.83 1544.14 2051.83 1548.77 Q2051.83 1552 2049.98 1554.24 Q2048.13 1556.46 2044.72 1557.32 Z" fill="#000000" fill-rule="nonzero" fill-opacity="1" /><path clip-path="url(#clip360)" d="M2564.73 1573.85 L2583.09 1573.85 L2583.09 1578.28 L2558.4 1578.28 L2558.4 1573.85 Q2561.4 1570.75 2566.55 1565.55 Q2571.74 1560.31 2573.07 1558.8 Q2575.59 1555.96 2576.58 1554.01 Q2577.6 1552.03 2577.6 1550.13 Q2577.6 1547.03 2575.41 1545.08 Q2573.25 1543.12 2569.76 1543.12 Q2567.28 1543.12 2564.52 1543.98 Q2561.79 1544.84 2558.66 1546.59 L2558.66 1541.27 Q2561.84 1540 2564.6 1539.35 Q2567.36 1538.7 2569.65 1538.7 Q2575.7 1538.7 2579.29 1541.72 Q2582.88 1544.74 2582.88 1549.79 Q2582.88 1552.19 2581.97 1554.35 Q2581.09 1556.48 2578.72 1559.4 Q2578.07 1560.15 2574.58 1563.77 Q2571.09 1567.37 2564.73 1573.85 Z" fill="#000000" fill-rule="nonzero" fill-opacity="1" /><path clip-path="url(#clip360)" d="M2605.38 1542.86 Q2601.32 1542.86 2599.26 1546.87 Q2597.23 1550.86 2597.23 1558.88 Q2597.23 1566.87 2599.26 1570.88 Q2601.32 1574.87 2605.38 1574.87 Q2609.47 1574.87 2611.5 1570.88 Q2613.56 1566.87 2613.56 1558.88 Q2613.56 1550.86 2611.5 1546.87 Q2609.47 1542.86 2605.38 1542.86 M2605.38 1538.7 Q2611.92 1538.7 2615.36 1543.88 Q2618.82 1549.04 2618.82 1558.88 Q2618.82 1568.7 2615.36 1573.88 Q2611.92 1579.04 2605.38 1579.04 Q2598.85 1579.04 2595.38 1573.88 Q2591.95 1568.7 2591.95 1558.88 Q2591.95 1549.04 2595.38 1543.88 Q2598.85 1538.7 2605.38 1538.7 Z" fill="#000000" fill-rule="nonzero" fill-opacity="1" /><path clip-path="url(#clip360)" d="M2632.6 1573.85 L2650.96 1573.85 L2650.96 1578.28 L2626.27 1578.28 L2626.27 1573.85 Q2629.26 1570.75 2634.42 1565.55 Q2639.6 1560.31 2640.93 1558.8 Q2643.46 1555.96 2644.44 1554.01 Q2645.46 1552.03 2645.46 1550.13 Q2645.46 1547.03 2643.27 1545.08 Q2641.11 1543.12 2637.62 1543.12 Q2635.15 1543.12 2632.39 1543.98 Q2629.65 1544.84 2626.53 1546.59 L2626.53 1541.27 Q2629.71 1540 2632.47 1539.35 Q2635.23 1538.7 2637.52 1538.7 Q2643.56 1538.7 2647.15 1541.72 Q2650.75 1544.74 2650.75 1549.79 Q2650.75 1552.19 2649.84 1554.35 Q2648.95 1556.48 2646.58 1559.4 Q2645.93 1560.15 2642.44 1563.77 Q2638.95 1567.37 2632.6 1573.85 Z" fill="#000000" fill-rule="nonzero" fill-opacity="1" /><path clip-path="url(#clip360)" d="M2677.93 1557.32 Q2681.71 1558.12 2683.82 1560.68 Q2685.96 1563.23 2685.96 1566.98 Q2685.96 1572.73 2682 1575.88 Q2678.04 1579.04 2670.75 1579.04 Q2668.3 1579.04 2665.69 1578.54 Q2663.12 1578.07 2660.36 1577.11 L2660.36 1572.03 Q2662.54 1573.31 2665.15 1573.96 Q2667.75 1574.61 2670.59 1574.61 Q2675.54 1574.61 2678.12 1572.65 Q2680.72 1570.7 2680.72 1566.98 Q2680.72 1563.54 2678.3 1561.61 Q2675.9 1559.66 2671.61 1559.66 L2667.08 1559.66 L2667.08 1555.34 L2671.81 1555.34 Q2675.69 1555.34 2677.75 1553.8 Q2679.81 1552.24 2679.81 1549.32 Q2679.81 1546.33 2677.67 1544.74 Q2675.56 1543.12 2671.61 1543.12 Q2669.44 1543.12 2666.97 1543.59 Q2664.5 1544.06 2661.53 1545.05 L2661.53 1540.36 Q2664.52 1539.53 2667.13 1539.11 Q2669.76 1538.7 2672.08 1538.7 Q2678.06 1538.7 2681.55 1541.43 Q2685.04 1544.14 2685.04 1548.77 Q2685.04 1552 2683.19 1554.24 Q2681.35 1556.46 2677.93 1557.32 Z" fill="#000000" fill-rule="nonzero" fill-opacity="1" /><path clip-path="url(#clip360)" d="M2692.83 1561.54 L2706.87 1561.54 L2706.87 1565.81 L2692.83 1565.81 L2692.83 1561.54 Z" fill="#000000" fill-rule="nonzero" fill-opacity="1" /><path clip-path="url(#clip360)" d="M2726.42 1542.86 Q2722.36 1542.86 2720.3 1546.87 Q2718.27 1550.86 2718.27 1558.88 Q2718.27 1566.87 2720.3 1570.88 Q2722.36 1574.87 2726.42 1574.87 Q2730.51 1574.87 2732.54 1570.88 Q2734.6 1566.87 2734.6 1558.88 Q2734.6 1550.86 2732.54 1546.87 Q2730.51 1542.86 2726.42 1542.86 M2726.42 1538.7 Q2732.96 1538.7 2736.4 1543.88 Q2739.86 1549.04 2739.86 1558.88 Q2739.86 1568.7 2736.4 1573.88 Q2732.96 1579.04 2726.42 1579.04 Q2719.89 1579.04 2716.42 1573.88 Q2712.99 1568.7 2712.99 1558.88 Q2712.99 1549.04 2716.42 1543.88 Q2719.89 1538.7 2726.42 1538.7 Z" fill="#000000" fill-rule="nonzero" fill-opacity="1" /><path clip-path="url(#clip360)" d="M2750.02 1573.85 L2758.61 1573.85 L2758.61 1544.19 L2749.26 1546.07 L2749.26 1541.27 L2758.56 1539.4 L2763.82 1539.4 L2763.82 1573.85 L2772.41 1573.85 L2772.41 1578.28 L2750.02 1578.28 L2750.02 1573.85 Z" fill="#000000" fill-rule="nonzero" fill-opacity="1" /><path clip-path="url(#clip360)" d="M2779.94 1561.54 L2793.98 1561.54 L2793.98 1565.81 L2779.94 1565.81 L2779.94 1561.54 Z" fill="#000000" fill-rule="nonzero" fill-opacity="1" /><path clip-path="url(#clip360)" d="M2803.19 1573.85 L2811.79 1573.85 L2811.79 1544.19 L2802.44 1546.07 L2802.44 1541.27 L2811.74 1539.4 L2817 1539.4 L2817 1573.85 L2825.59 1573.85 L2825.59 1578.28 L2803.19 1578.28 L2803.19 1573.85 Z" fill="#000000" fill-rule="nonzero" fill-opacity="1" /><path clip-path="url(#clip360)" d="M2836.27 1539.4 L2856.92 1539.4 L2856.92 1543.83 L2841.08 1543.83 L2841.08 1553.36 Q2842.23 1552.97 2843.38 1552.79 Q2844.52 1552.58 2845.67 1552.58 Q2852.18 1552.58 2855.98 1556.14 Q2859.78 1559.71 2859.78 1565.81 Q2859.78 1572.08 2855.88 1575.57 Q2851.97 1579.04 2844.86 1579.04 Q2842.41 1579.04 2839.86 1578.62 Q2837.33 1578.2 2834.63 1577.37 L2834.63 1572.08 Q2836.97 1573.36 2839.47 1573.98 Q2841.97 1574.61 2844.76 1574.61 Q2849.26 1574.61 2851.89 1572.24 Q2854.52 1569.87 2854.52 1565.81 Q2854.52 1561.74 2851.89 1559.37 Q2849.26 1557 2844.76 1557 Q2842.65 1557 2840.54 1557.47 Q2838.45 1557.94 2836.27 1558.93 L2836.27 1539.4 Z" fill="#000000" fill-rule="nonzero" fill-opacity="1" /><polyline clip-path="url(#clip362)" style="stroke:#000000; stroke-linecap:round; stroke-linejoin:round; stroke-width:2; stroke-opacity:0.1; fill:none" points="203.123,1215.11 3180.15,1215.11 "/>
<polyline clip-path="url(#clip362)" style="stroke:#000000; stroke-linecap:round; stroke-linejoin:round; stroke-width:2; stroke-opacity:0.1; fill:none" points="203.123,922.429 3180.15,922.429 "/>
<polyline clip-path="url(#clip362)" style="stroke:#000000; stroke-linecap:round; stroke-linejoin:round; stroke-width:2; stroke-opacity:0.1; fill:none" points="203.123,629.75 3180.15,629.75 "/>
<polyline clip-path="url(#clip362)" style="stroke:#000000; stroke-linecap:round; stroke-linejoin:round; stroke-width:2; stroke-opacity:0.1; fill:none" points="203.123,337.071 3180.15,337.071 "/>
<polyline clip-path="url(#clip360)" style="stroke:#000000; stroke-linecap:round; stroke-linejoin:round; stroke-width:4; stroke-opacity:1; fill:none" points="203.123,1497.68 203.123,47.2441 "/>
<polyline clip-path="url(#clip360)" style="stroke:#000000; stroke-linecap:round; stroke-linejoin:round; stroke-width:4; stroke-opacity:1; fill:none" points="203.123,1215.11 218.127,1215.11 "/>
<polyline clip-path="url(#clip360)" style="stroke:#000000; stroke-linecap:round; stroke-linejoin:round; stroke-width:4; stroke-opacity:1; fill:none" points="203.123,922.429 218.127,922.429 "/>
<polyline clip-path="url(#clip360)" style="stroke:#000000; stroke-linecap:round; stroke-linejoin:round; stroke-width:4; stroke-opacity:1; fill:none" points="203.123,629.75 218.127,629.75 "/>
<polyline clip-path="url(#clip360)" style="stroke:#000000; stroke-linecap:round; stroke-linejoin:round; stroke-width:4; stroke-opacity:1; fill:none" points="203.123,337.071 218.127,337.071 "/>
<path clip-path="url(#clip360)" d="M129.79 1216.08 Q126.04 1216.08 123.879 1218.09 Q121.743 1220.09 121.743 1223.61 Q121.743 1227.13 123.879 1229.13 Q126.04 1231.14 129.79 1231.14 Q133.54 1231.14 135.702 1229.13 Q137.863 1227.1 137.863 1223.61 Q137.863 1220.09 135.702 1218.09 Q133.566 1216.08 129.79 1216.08 M124.53 1213.84 Q121.144 1213.01 119.243 1210.69 Q117.368 1208.38 117.368 1205.04 Q117.368 1200.38 120.676 1197.67 Q124.009 1194.96 129.79 1194.96 Q135.597 1194.96 138.905 1197.67 Q142.212 1200.38 142.212 1205.04 Q142.212 1208.38 140.311 1210.69 Q138.436 1213.01 135.077 1213.84 Q138.879 1214.73 140.988 1217.31 Q143.123 1219.89 143.123 1223.61 Q143.123 1229.26 139.66 1232.28 Q136.222 1235.3 129.79 1235.3 Q123.358 1235.3 119.894 1232.28 Q116.457 1229.26 116.457 1223.61 Q116.457 1219.89 118.592 1217.31 Q120.728 1214.73 124.53 1213.84 M122.603 1205.54 Q122.603 1208.56 124.478 1210.25 Q126.379 1211.94 129.79 1211.94 Q133.176 1211.94 135.077 1210.25 Q137.004 1208.56 137.004 1205.54 Q137.004 1202.52 135.077 1200.82 Q133.176 1199.13 129.79 1199.13 Q126.379 1199.13 124.478 1200.82 Q122.603 1202.52 122.603 1205.54 Z" fill="#000000" fill-rule="nonzero" fill-opacity="1" /><path clip-path="url(#clip360)" d="M118.801 941.061 L118.801 936.27 Q120.78 937.207 122.811 937.702 Q124.842 938.197 126.795 938.197 Q132.004 938.197 134.738 934.707 Q137.498 931.192 137.889 924.056 Q136.379 926.296 134.061 927.494 Q131.743 928.692 128.931 928.692 Q123.097 928.692 119.686 925.176 Q116.301 921.634 116.301 915.515 Q116.301 909.525 119.842 905.905 Q123.384 902.286 129.269 902.286 Q136.014 902.286 139.556 907.468 Q143.123 912.624 143.123 922.468 Q143.123 931.66 138.748 937.155 Q134.399 942.624 127.03 942.624 Q125.051 942.624 123.019 942.233 Q120.988 941.843 118.801 941.061 M129.269 924.577 Q132.811 924.577 134.868 922.155 Q136.952 919.733 136.952 915.515 Q136.952 911.322 134.868 908.9 Q132.811 906.452 129.269 906.452 Q125.728 906.452 123.644 908.9 Q121.587 911.322 121.587 915.515 Q121.587 919.733 123.644 922.155 Q125.728 924.577 129.269 924.577 Z" fill="#000000" fill-rule="nonzero" fill-opacity="1" /><path clip-path="url(#clip360)" d="M85.4154 644.763 L94.0091 644.763 L94.0091 615.102 L84.6602 616.977 L84.6602 612.185 L93.957 610.31 L99.2174 610.31 L99.2174 644.763 L107.811 644.763 L107.811 649.19 L85.4154 649.19 L85.4154 644.763 Z" fill="#000000" fill-rule="nonzero" fill-opacity="1" /><path clip-path="url(#clip360)" d="M129.686 613.773 Q125.623 613.773 123.566 617.784 Q121.535 621.768 121.535 629.789 Q121.535 637.784 123.566 641.794 Q125.623 645.778 129.686 645.778 Q133.774 645.778 135.806 641.794 Q137.863 637.784 137.863 629.789 Q137.863 621.768 135.806 617.784 Q133.774 613.773 129.686 613.773 M129.686 609.607 Q136.222 609.607 139.66 614.789 Q143.123 619.945 143.123 629.789 Q143.123 639.607 139.66 644.789 Q136.222 649.945 129.686 649.945 Q123.15 649.945 119.686 644.789 Q116.249 639.607 116.249 629.789 Q116.249 619.945 119.686 614.789 Q123.15 609.607 129.686 609.607 Z" fill="#000000" fill-rule="nonzero" fill-opacity="1" /><path clip-path="url(#clip360)" d="M86.7956 352.084 L95.3893 352.084 L95.3893 322.423 L86.0404 324.298 L86.0404 319.506 L95.3372 317.631 L100.598 317.631 L100.598 352.084 L109.191 352.084 L109.191 356.511 L86.7956 356.511 L86.7956 352.084 Z" fill="#000000" fill-rule="nonzero" fill-opacity="1" /><path clip-path="url(#clip360)" d="M120.728 352.084 L129.321 352.084 L129.321 322.423 L119.972 324.298 L119.972 319.506 L129.269 317.631 L134.53 317.631 L134.53 352.084 L143.123 352.084 L143.123 356.511 L120.728 356.511 L120.728 352.084 Z" fill="#000000" fill-rule="nonzero" fill-opacity="1" /><path clip-path="url(#clip360)" d="M-31.4998 930.013 L-31.4998 924.168 L11.7002 924.168 L11.7002 930.013 L-31.4998 930.013 Z" fill="#000000" fill-rule="nonzero" fill-opacity="1" /><path clip-path="url(#clip360)" d="M-7.85992 885.829 L11.7002 885.829 L11.7002 891.153 L-7.68631 891.153 Q-12.287 891.153 -14.5728 892.947 Q-16.8587 894.741 -16.8587 898.329 Q-16.8587 902.641 -14.1099 905.129 Q-11.3611 907.618 -6.61572 907.618 L11.7002 907.618 L11.7002 912.97 L-20.7071 912.97 L-20.7071 907.618 L-15.6724 907.618 Q-18.5948 905.708 -20.0416 903.133 Q-21.4883 900.528 -21.4883 897.143 Q-21.4883 891.559 -18.0161 888.694 Q-14.5728 885.829 -7.85992 885.829 Z" fill="#000000" fill-rule="nonzero" fill-opacity="1" /><path clip-path="url(#clip360)" d="M-33.3227 858.804 L-28.8957 858.804 L-28.8957 863.897 Q-28.8957 866.761 -27.7383 867.89 Q-26.5809 868.989 -23.5716 868.989 L-20.7071 868.989 L-20.7071 860.222 L-16.5694 860.222 L-16.5694 868.989 L11.7002 868.989 L11.7002 874.342 L-16.5694 874.342 L-16.5694 879.435 L-20.7071 879.435 L-20.7071 874.342 L-22.964 874.342 Q-28.3749 874.342 -30.8343 871.825 Q-33.3227 869.308 -33.3227 863.839 L-33.3227 858.804 Z" fill="#000000" fill-rule="nonzero" fill-opacity="1" /><path clip-path="url(#clip360)" d="M-33.3227 854.348 L-33.3227 849.024 L11.7002 849.024 L11.7002 854.348 L-33.3227 854.348 Z" fill="#000000" fill-rule="nonzero" fill-opacity="1" /><path clip-path="url(#clip360)" d="M-16.9745 825.326 Q-16.9745 829.609 -13.618 832.097 Q-10.2905 834.585 -4.47452 834.585 Q1.34142 834.585 4.69788 832.126 Q8.02541 829.638 8.02541 825.326 Q8.02541 821.073 4.66895 818.584 Q1.31248 816.096 -4.47452 816.096 Q-10.2326 816.096 -13.5891 818.584 Q-16.9745 821.073 -16.9745 825.326 M-21.4883 825.326 Q-21.4883 818.382 -16.9745 814.418 Q-12.4606 810.454 -4.47452 810.454 Q3.48261 810.454 8.02541 814.418 Q12.5393 818.382 12.5393 825.326 Q12.5393 832.3 8.02541 836.264 Q3.48261 840.199 -4.47452 840.199 Q-12.4606 840.199 -16.9745 836.264 Q-21.4883 832.3 -21.4883 825.326 Z" fill="#000000" fill-rule="nonzero" fill-opacity="1" /><path clip-path="url(#clip360)" d="M-20.7071 804.725 L-20.7071 799.4 L4.58214 792.745 L-20.7071 786.119 L-20.7071 779.84 L4.58214 773.185 L-20.7071 766.559 L-20.7071 761.235 L11.7002 769.713 L11.7002 775.992 L-14.8622 782.965 L11.7002 789.968 L11.7002 796.247 L-20.7071 804.725 Z" fill="#000000" fill-rule="nonzero" fill-opacity="1" /><path clip-path="url(#clip360)" d="M-33.3227 734.818 L-33.3227 722.549 L-29.185 722.549 L-29.185 729.493 L15.3749 729.493 L15.3749 722.549 L19.5126 722.549 L19.5126 734.818 L-33.3227 734.818 Z" fill="#000000" fill-rule="nonzero" fill-opacity="1" /><path clip-path="url(#clip360)" d="M-31.4998 710.975 L-31.4998 705.13 L6.7812 705.13 L6.7812 684.094 L11.7002 684.094 L11.7002 710.975 L-31.4998 710.975 Z" fill="#000000" fill-rule="nonzero" fill-opacity="1" /><path clip-path="url(#clip360)" d="M-31.4998 668.73 L-31.4998 663.811 L17.1978 678.857 L17.1978 683.776 L-31.4998 668.73 Z" fill="#000000" fill-rule="nonzero" fill-opacity="1" /><path clip-path="url(#clip360)" d="M-19.7522 637.567 L-14.7175 637.567 Q-15.8749 639.824 -16.4536 642.254 Q-17.0323 644.685 -17.0323 647.289 Q-17.0323 651.253 -15.8171 653.25 Q-14.6018 655.217 -12.1712 655.217 Q-10.3194 655.217 -9.2488 653.799 Q-8.20714 652.382 -7.25229 648.099 L-6.8472 646.276 Q-5.63193 640.605 -3.40393 638.232 Q-1.20487 635.831 2.75923 635.831 Q7.2731 635.831 9.90619 639.419 Q12.5393 642.978 12.5393 649.228 Q12.5393 651.832 12.0184 654.667 Q11.5265 657.474 10.5138 660.599 L5.01617 660.599 Q6.54972 657.648 7.33097 654.783 Q8.08328 651.919 8.08328 649.112 Q8.08328 645.35 6.81014 643.325 Q5.50806 641.299 3.16432 641.299 Q0.994196 641.299 -0.163205 642.775 Q-1.32061 644.222 -2.3912 649.17 L-2.82523 651.022 Q-3.86689 655.97 -6.00808 658.169 Q-8.17821 660.368 -11.9398 660.368 Q-16.5115 660.368 -18.9999 657.127 Q-21.4883 653.886 -21.4883 647.926 Q-21.4883 644.974 -21.0543 642.37 Q-20.6203 639.766 -19.7522 637.567 Z" fill="#000000" fill-rule="nonzero" fill-opacity="1" /><path clip-path="url(#clip360)" d="M-33.3227 614.911 L19.5126 614.911 L19.5126 627.179 L15.3749 627.179 L15.3749 620.264 L-29.185 620.264 L-29.185 627.179 L-33.3227 627.179 L-33.3227 614.911 Z" fill="#000000" fill-rule="nonzero" fill-opacity="1" /><polyline clip-path="url(#clip362)" style="stroke:#023eff; stroke-linecap:round; stroke-linejoin:round; stroke-width:5; stroke-opacity:1; fill:none" points="287.379,827.796 304.196,958.953 321.014,958.953 337.831,958.953 354.649,958.953 371.466,958.953 388.284,760.709 405.101,572.966 421.919,540.05 438.736,409.235 455.553,347.372 472.371,347.372 489.188,130.349 506.006,409.235 522.823,409.235 539.641,540.05 556.458,409.235 573.276,409.235 590.093,540.05 606.911,409.235 623.728,409.235 640.546,540.05 657.363,702.684 674.18,702.684 690.998,1136.08 707.815,1456.63 724.633,1456.63 741.45,1456.63 758.268,1456.63 775.085,1136.08 791.903,753.708 808.72,603.681 825.538,505.944 842.355,326.63 859.172,505.944 875.99,505.944 892.807,505.944 909.625,505.944 926.442,505.944 943.26,505.944 960.077,754.975 976.895,505.944 993.712,505.944 1010.53,326.63 1027.35,326.63 1044.16,603.681 1060.98,832.634 1077.8,832.634 1094.62,753.708 1111.43,1456.63 1128.25,1456.63 1145.07,1456.63 1161.89,1456.63 1178.7,1456.63 1195.52,753.708 1212.34,603.681 1229.16,326.63 1245.97,326.63 1262.79,326.63 1279.61,505.944 1296.43,505.944 1313.24,326.63 1330.06,505.944 1346.88,505.944 1363.7,505.944 1380.51,603.681 1397.33,603.681 1414.15,505.944 1430.97,505.944 1447.78,603.681 1464.6,603.681 1481.42,832.634 1498.24,1136.08 1515.05,1456.63 1531.87,1456.63 1548.69,1456.63 1565.51,1456.63 1582.32,1136.08 1599.14,753.708 1615.96,505.944 1632.78,326.63 1649.59,326.63 1666.41,505.944 1683.23,505.944 1700.05,648.937 1716.86,754.975 1733.68,505.944 1750.5,505.944 1767.32,603.681 1784.13,505.944 1800.95,505.944 1817.77,505.944 1834.59,326.63 1851.4,505.944 1868.22,603.681 1885.04,832.634 1901.85,753.708 1918.67,1456.63 1935.49,1456.63 1952.31,1456.63 1969.12,1456.63 1985.94,1456.63 2002.76,1147.32 2019.58,603.681 2036.39,505.944 2053.21,326.63 2070.03,326.63 2086.85,326.63 2103.66,326.63 2120.48,505.944 2137.3,326.63 2154.12,505.944 2170.93,505.944 2187.75,505.944 2204.57,326.63 2221.39,505.944 2238.2,603.681 2255.02,603.681 2271.84,832.634 2288.66,832.634 2305.47,759.674 2322.29,966.116 2339.11,966.116 2355.93,966.116 2372.74,1456.63 2389.56,1456.63 2406.38,856.554 2423.2,691.798 2440.01,326.63 2456.83,326.63 2473.65,326.63 2490.47,326.63 2507.28,326.63 2524.1,648.937 2540.92,505.944 2557.74,691.798 2574.55,691.798 2591.37,505.944 2608.19,691.798 2625.01,505.944 2641.82,505.944 2658.64,691.798 2675.46,691.798 2692.28,691.798 2709.09,1136.08 2725.91,1136.08 2742.73,1456.63 2759.55,1456.63 2776.36,1456.63 2793.18,1456.63 2810,1094.06 2826.82,691.798 2843.63,505.944 2860.45,326.63 2877.27,326.63 2894.09,326.63 2910.9,326.63 2927.72,326.63 2944.54,505.944 2961.35,505.944 2978.17,326.63 2994.99,505.944 3011.81,505.944 3028.62,326.63 3045.44,326.63 3062.26,505.944 3079.08,959.501 3095.89,959.501 "/>
<polyline clip-path="url(#clip362)" style="stroke:#ff7c00; stroke-linecap:round; stroke-linejoin:round; stroke-width:5; stroke-opacity:1; fill:none" points="287.379,891.21 304.196,1026.55 321.014,1030.57 337.831,1030.57 354.649,1030.57 371.466,1030.57 388.284,811.348 405.101,722.96 421.919,581.78 438.736,396.675 455.553,371.278 472.371,371.278 489.188,110.028 506.006,396.675 522.823,483.484 539.641,483.484 556.458,396.675 573.276,483.484 590.093,483.484 606.911,396.675 623.728,110.028 640.546,483.484 657.363,704.65 674.18,704.65 690.998,1073.2 707.815,1073.2 724.633,1073.2 741.45,1073.2 758.268,1073.2 775.085,1073.2 791.903,770.003 808.72,620.591 825.538,477.513 842.355,364.503 859.172,477.513 875.99,477.513 892.807,477.513 909.625,477.513 926.442,477.513 943.26,477.513 960.077,620.591 976.895,477.513 993.712,477.513 1010.53,477.513 1027.35,364.503 1044.16,620.591 1060.98,770.003 1077.8,936.461 1094.62,1073.2 1111.43,1073.2 1128.25,1073.2 1145.07,1073.2 1161.89,1073.2 1178.7,1073.2 1195.52,770.003 1212.34,620.591 1229.16,477.513 1245.97,364.503 1262.79,364.503 1279.61,477.513 1296.43,477.513 1313.24,364.503 1330.06,477.513 1346.88,477.513 1363.7,477.513 1380.51,620.591 1397.33,620.591 1414.15,477.513 1430.97,477.513 1447.78,620.591 1464.6,620.591 1481.42,936.461 1498.24,1073.2 1515.05,1073.2 1531.87,1073.2 1548.69,1073.2 1565.51,1073.2 1582.32,1073.2 1599.14,770.003 1615.96,477.513 1632.78,364.503 1649.59,364.503 1666.41,477.513 1683.23,477.513 1700.05,477.513 1716.86,620.591 1733.68,477.513 1750.5,477.513 1767.32,620.591 1784.13,477.513 1800.95,477.513 1817.77,477.513 1834.59,477.513 1851.4,477.513 1868.22,620.591 1885.04,936.461 1901.85,1073.2 1918.67,1073.2 1935.49,1073.2 1952.31,1073.2 1969.12,1073.2 1985.94,1073.2 2002.76,770.003 2019.58,620.591 2036.39,477.513 2053.21,224.682 2070.03,364.503 2086.85,364.503 2103.66,364.503 2120.48,477.513 2137.3,364.503 2154.12,477.513 2170.93,477.513 2187.75,477.513 2204.57,477.513 2221.39,477.513 2238.2,620.591 2255.02,620.591 2271.84,620.591 2288.66,936.461 2305.47,1073.2 2322.29,1073.2 2339.11,1073.2 2355.93,1073.2 2372.74,1073.2 2389.56,1073.2 2406.38,770.003 2423.2,620.591 2440.01,364.503 2456.83,364.503 2473.65,364.503 2490.47,364.503 2507.28,477.513 2524.1,477.513 2540.92,477.513 2557.74,620.591 2574.55,620.591 2591.37,477.513 2608.19,620.591 2625.01,477.513 2641.82,477.513 2658.64,620.591 2675.46,620.591 2692.28,936.461 2709.09,1073.2 2725.91,1073.2 2742.73,1073.2 2759.55,1073.2 2776.36,1073.2 2793.18,1073.2 2810,770.003 2826.82,620.591 2843.63,477.513 2860.45,364.503 2877.27,224.682 2894.09,224.682 2910.9,364.503 2927.72,477.513 2944.54,477.513 2961.35,477.513 2978.17,477.513 2994.99,477.513 3011.81,477.513 3028.62,364.503 3045.44,364.503 3062.26,477.513 3079.08,620.591 3095.89,936.461 "/>
<polyline clip-path="url(#clip362)" style="stroke:#1ac938; stroke-linecap:round; stroke-linejoin:round; stroke-width:5; stroke-opacity:1; fill:none" points="287.379,861.113 304.196,997.153 321.014,997.153 337.831,997.153 354.649,997.153 371.466,997.153 388.284,793.265 405.101,662.613 421.919,417.4 438.736,252.194 455.553,252.194 472.371,252.194 489.188,417.4 506.006,417.4 522.823,478.069 539.641,565.57 556.458,478.069 573.276,478.069 590.093,478.069 606.911,540.741 623.728,478.069 640.546,540.741 657.363,662.613 674.18,793.265 690.998,993.842 707.815,966.038 724.633,966.038 741.45,1006.87 758.268,966.038 775.085,966.038 791.903,648.408 808.72,413.571 825.538,413.571 842.355,413.571 859.172,456.99 875.99,456.99 892.807,456.99 909.625,456.99 926.442,456.99 943.26,456.99 960.077,618.382 976.895,456.99 993.712,456.99 1010.53,456.99 1027.35,456.99 1044.16,456.99 1060.98,783.244 1077.8,783.244 1094.62,912.394 1111.43,966.038 1128.25,1006.87 1145.07,1006.87 1161.89,1006.87 1178.7,966.038 1195.52,783.244 1212.34,648.408 1229.16,413.571 1245.97,413.571 1262.79,456.99 1279.61,456.99 1296.43,456.99 1313.24,456.99 1330.06,456.99 1346.88,456.99 1363.7,456.99 1380.51,456.99 1397.33,456.99 1414.15,456.99 1430.97,456.99 1447.78,456.99 1464.6,711.011 1481.42,783.569 1498.24,993.842 1515.05,966.038 1531.87,966.038 1548.69,1006.87 1565.51,1006.87 1582.32,966.038 1599.14,783.244 1615.96,602.677 1632.78,413.571 1649.59,413.571 1666.41,456.99 1683.23,456.99 1700.05,456.99 1716.86,456.99 1733.68,287.734 1750.5,287.734 1767.32,456.99 1784.13,456.99 1800.95,456.99 1817.77,456.99 1834.59,456.99 1851.4,456.99 1868.22,711.011 1885.04,711.011 1901.85,993.842 1918.67,966.038 1935.49,966.038 1952.31,966.038 1969.12,966.038 1985.94,966.038 2002.76,770.236 2019.58,648.408 2036.39,413.571 2053.21,413.571 2070.03,456.99 2086.85,456.99 2103.66,456.99 2120.48,456.99 2137.3,456.99 2154.12,456.99 2170.93,456.99 2187.75,456.99 2204.57,456.99 2221.39,456.99 2238.2,668.53 2255.02,618.382 2271.84,609.262 2288.66,609.262 2305.47,824.381 2322.29,966.038 2339.11,966.038 2355.93,1006.87 2372.74,1006.87 2389.56,966.038 2406.38,933.404 2423.2,871.698 2440.01,325.949 2456.83,325.949 2473.65,143.903 2490.47,325.949 2507.28,325.949 2524.1,508.288 2540.92,513.442 2557.74,513.442 2574.55,538.111 2591.37,513.442 2608.19,668.53 2625.01,513.442 2641.82,513.442 2658.64,618.382 2675.46,711.011 2692.28,711.011 2709.09,767.309 2725.91,890.234 2742.73,1011.99 2759.55,1011.99 2776.36,1011.99 2793.18,1011.99 2810,933.404 2826.82,871.698 2843.63,325.949 2860.45,325.949 2877.27,325.949 2894.09,325.949 2910.9,325.949 2927.72,513.442 2944.54,513.442 2961.35,513.442 2978.17,513.442 2994.99,420.219 3011.81,420.219 3028.62,160.488 3045.44,160.488 3062.26,420.219 3079.08,609.262 3095.89,809.016 "/>
<polyline clip-path="url(#clip362)" style="stroke:#e8000b; stroke-linecap:round; stroke-linejoin:round; stroke-width:5; stroke-opacity:1; fill:none" points="287.379,911.51 304.196,911.51 321.014,1009.72 337.831,1009.72 354.649,1009.72 371.466,1009.72 388.284,911.51 405.101,625.569 421.919,405.642 438.736,260.975 455.553,260.975 472.371,260.975 489.188,419.997 506.006,403.29 522.823,403.29 539.641,403.29 556.458,403.29 573.276,506.567 590.093,506.567 606.911,400.485 623.728,400.485 640.546,647.311 657.363,683.017 674.18,770.886 690.998,938.526 707.815,973.648 724.633,938.526 741.45,938.526 758.268,1005.46 775.085,1005.46 791.903,880.478 808.72,686.822 825.538,341.328 842.355,341.328 859.172,341.328 875.99,341.328 892.807,341.328 909.625,341.328 926.442,447.557 943.26,447.557 960.077,447.557 976.895,447.557 993.712,516.191 1010.53,516.191 1027.35,516.191 1044.16,687.7 1060.98,852.186 1077.8,852.186 1094.62,938.526 1111.43,938.526 1128.25,938.526 1145.07,938.526 1161.89,1005.46 1178.7,938.526 1195.52,770.236 1212.34,686.822 1229.16,341.328 1245.97,341.328 1262.79,341.328 1279.61,341.328 1296.43,341.328 1313.24,341.328 1330.06,307.803 1346.88,307.803 1363.7,307.803 1380.51,307.803 1397.33,307.803 1414.15,307.803 1430.97,307.803 1447.78,307.803 1464.6,307.803 1481.42,760.48 1498.24,904.868 1515.05,973.648 1531.87,938.526 1548.69,938.526 1565.51,938.526 1582.32,938.526 1599.14,852.186 1615.96,102.928 1632.78,341.328 1649.59,341.328 1666.41,341.328 1683.23,341.328 1700.05,341.328 1716.86,341.328 1733.68,447.557 1750.5,447.557 1767.32,447.557 1784.13,447.557 1800.95,447.557 1817.77,447.557 1834.59,447.557 1851.4,447.557 1868.22,447.557 1885.04,711.7 1901.85,904.868 1918.67,973.648 1935.49,938.526 1952.31,1005.46 1969.12,1005.46 1985.94,1005.46 2002.76,880.478 2019.58,686.822 2036.39,341.328 2053.21,341.328 2070.03,341.328 2086.85,341.328 2103.66,341.328 2120.48,341.328 2137.3,307.803 2154.12,307.803 2170.93,307.803 2187.75,447.557 2204.57,447.557 2221.39,307.803 2238.2,447.557 2255.02,447.557 2271.84,760.48 2288.66,760.48 2305.47,904.868 2322.29,938.526 2339.11,938.526 2355.93,938.526 2372.74,938.526 2389.56,938.526 2406.38,770.236 2423.2,686.822 2440.01,102.928 2456.83,102.928 2473.65,341.328 2490.47,341.328 2507.28,222.926 2524.1,341.328 2540.92,307.803 2557.74,447.557 2574.55,447.557 2591.37,447.557 2608.19,447.557 2625.01,447.557 2641.82,447.557 2658.64,447.557 2675.46,760.48 2692.28,711.7 2709.09,904.868 2725.91,973.648 2742.73,938.526 2759.55,1005.46 2776.36,1005.46 2793.18,1005.46 2810,770.236 2826.82,880.478 2843.63,341.328 2860.45,341.328 2877.27,102.928 2894.09,341.328 2910.9,341.328 2927.72,102.928 2944.54,516.191 2961.35,516.191 2978.17,516.191 2994.99,449.343 3011.81,449.343 3028.62,325.364 3045.44,325.364 3062.26,449.343 3079.08,555.203 3095.89,852.186 "/>
<polyline clip-path="url(#clip362)" style="stroke:#000000; stroke-linecap:round; stroke-linejoin:round; stroke-width:6; stroke-opacity:1; fill:none" points="287.379,934.136 304.196,983.891 321.014,1013.16 337.831,1045.35 354.649,978.038 371.466,919.502 388.284,600.482 405.101,404.387 421.919,416.094 438.736,471.703 455.553,459.996 472.371,527.312 489.188,515.605 506.006,392.68 522.823,591.702 539.641,579.995 556.458,723.407 573.276,544.873 590.093,559.507 606.911,483.411 623.728,310.73 640.546,448.289 657.363,676.579 674.18,735.114 690.998,972.184 707.815,1016.09 724.633,1030.72 741.45,1045.35 758.268,1027.79 775.085,948.77 791.903,644.384 808.72,243.414 825.538,275.609 842.355,360.485 859.172,427.802 875.99,612.189 892.807,600.482 909.625,574.141 926.442,527.312 943.26,609.262 960.077,603.409 976.895,626.823 993.712,533.166 1010.53,369.266 1027.35,413.168 1044.16,424.875 1060.98,679.505 1077.8,802.43 1094.62,1016.09 1111.43,1062.91 1128.25,1071.69 1145.07,1095.11 1161.89,1051.21 1178.7,934.136 1195.52,694.139 1212.34,272.682 1229.16,316.584 1245.97,363.412 1262.79,606.336 1279.61,641.457 1296.43,600.482 1313.24,582.921 1330.06,620.97 1346.88,726.334 1363.7,626.823 1380.51,609.262 1397.33,483.411 1414.15,427.802 1430.97,430.728 1447.78,448.289 1464.6,661.945 1481.42,761.455 1498.24,966.331 1515.05,1042.43 1531.87,1042.43 1548.69,1051.21 1565.51,1033.65 1582.32,963.404 1599.14,635.604 1615.96,334.144 1632.78,243.414 1649.59,278.535 1666.41,506.825 1683.23,571.214 1700.05,618.043 1716.86,623.896 1733.68,656.091 1750.5,623.896 1767.32,998.525 1784.13,691.212 1800.95,582.921 1817.77,474.63 1834.59,398.534 1851.4,582.921 1868.22,758.529 1885.04,746.821 1901.85,919.502 1918.67,1077.55 1935.49,1115.6 1952.31,1092.18 1969.12,1077.55 1985.94,1033.65 2002.76,682.432 2019.58,319.51 2036.39,457.069 2053.21,547.8 2070.03,632.677 2086.85,694.139 2103.66,1062.91 2120.48,571.214 2137.3,629.75 2154.12,661.945 2170.93,568.287 2187.75,600.482 2204.57,562.434 2221.39,486.337 2238.2,503.898 2255.02,685.359 2271.84,825.845 2288.66,840.479 2305.47,989.745 2322.29,1057.06 2339.11,1103.89 2355.93,1118.52 2372.74,1077.55 2389.56,1030.72 2406.38,948.77 2423.2,618.043 2440.01,345.852 2456.83,181.951 2473.65,237.56 2490.47,375.119 2507.28,401.46 2524.1,325.364 2540.92,380.973 2557.74,536.093 2574.55,574.141 2591.37,539.02 2608.19,550.727 2625.01,527.312 2641.82,591.702 2658.64,691.212 2675.46,863.893 2692.28,843.405 2709.09,942.916 2725.91,1019.01 2742.73,1106.82 2759.55,1092.18 2776.36,1112.67 2793.18,1080.48 2810,998.525 2826.82,714.627 2843.63,284.389 2860.45,170.244 2877.27,88.2942 2894.09,129.269 2910.9,260.975 2927.72,319.51 2944.54,448.289 2961.35,512.678 2978.17,603.409 2994.99,656.091 3011.81,459.996 3028.62,471.703 3045.44,462.923 3062.26,638.53 3079.08,781.943 3095.89,852.186 "/>
<path clip-path="url(#clip360)" d="M3305.14 445.512 L3952.76 445.512 L3952.76 95.592 L3305.14 95.592  Z" fill="#ffffff" fill-rule="evenodd" fill-opacity="1"/>
<polyline clip-path="url(#clip360)" style="stroke:#000000; stroke-linecap:round; stroke-linejoin:round; stroke-width:4; stroke-opacity:1; fill:none" points="3305.14,445.512 3952.76,445.512 3952.76,95.592 3305.14,95.592 3305.14,445.512 "/>
<polyline clip-path="url(#clip360)" style="stroke:#023eff; stroke-linecap:round; stroke-linejoin:round; stroke-width:5.625; stroke-opacity:1; fill:none" points="3346.8,153.912 3596.78,153.912 "/>
<path clip-path="url(#clip360)" d="M3643.26 168.977 L3643.26 184.446 L3638.44 184.446 L3638.44 144.185 L3643.26 144.185 L3643.26 148.613 Q3644.77 146.008 3647.06 144.758 Q3649.38 143.482 3652.58 143.482 Q3657.89 143.482 3661.2 147.701 Q3664.53 151.92 3664.53 158.795 Q3664.53 165.67 3661.2 169.888 Q3657.89 174.107 3652.58 174.107 Q3649.38 174.107 3647.06 172.857 Q3644.77 171.581 3643.26 168.977 M3659.56 158.795 Q3659.56 153.508 3657.37 150.514 Q3655.21 147.493 3651.41 147.493 Q3647.61 147.493 3645.42 150.514 Q3643.26 153.508 3643.26 158.795 Q3643.26 164.081 3645.42 167.102 Q3647.61 170.097 3651.41 170.097 Q3655.21 170.097 3657.37 167.102 Q3659.56 164.081 3659.56 158.795 Z" fill="#000000" fill-rule="nonzero" fill-opacity="1" /><path clip-path="url(#clip360)" d="M3689.38 148.665 Q3688.57 148.196 3687.6 147.988 Q3686.67 147.753 3685.52 147.753 Q3681.46 147.753 3679.27 150.409 Q3677.11 153.04 3677.11 157.987 L3677.11 173.352 L3672.29 173.352 L3672.29 144.185 L3677.11 144.185 L3677.11 148.717 Q3678.62 146.06 3681.04 144.784 Q3683.46 143.482 3686.93 143.482 Q3687.42 143.482 3688.02 143.56 Q3688.62 143.613 3689.35 143.743 L3689.38 148.665 Z" fill="#000000" fill-rule="nonzero" fill-opacity="1" /><path clip-path="url(#clip360)" d="M3718.18 157.571 L3718.18 159.915 L3696.15 159.915 Q3696.46 164.862 3699.12 167.467 Q3701.8 170.045 3706.56 170.045 Q3709.32 170.045 3711.9 169.368 Q3714.51 168.691 3717.06 167.336 L3717.06 171.868 Q3714.48 172.961 3711.77 173.534 Q3709.06 174.107 3706.28 174.107 Q3699.3 174.107 3695.21 170.045 Q3691.15 165.982 3691.15 159.055 Q3691.15 151.894 3695 147.701 Q3698.88 143.482 3705.44 143.482 Q3711.33 143.482 3714.74 147.284 Q3718.18 151.06 3718.18 157.571 M3713.39 156.165 Q3713.33 152.232 3711.17 149.889 Q3709.04 147.545 3705.5 147.545 Q3701.49 147.545 3699.06 149.81 Q3696.67 152.076 3696.3 156.191 L3713.39 156.165 Z" fill="#000000" fill-rule="nonzero" fill-opacity="1" /><path clip-path="url(#clip360)" d="M3745.23 148.613 L3745.23 132.831 L3750.03 132.831 L3750.03 173.352 L3745.23 173.352 L3745.23 168.977 Q3743.72 171.581 3741.41 172.857 Q3739.12 174.107 3735.89 174.107 Q3730.6 174.107 3727.27 169.888 Q3723.96 165.67 3723.96 158.795 Q3723.96 151.92 3727.27 147.701 Q3730.6 143.482 3735.89 143.482 Q3739.12 143.482 3741.41 144.758 Q3743.72 146.008 3745.23 148.613 M3728.91 158.795 Q3728.91 164.081 3731.07 167.102 Q3733.26 170.097 3737.06 170.097 Q3740.86 170.097 3743.05 167.102 Q3745.23 164.081 3745.23 158.795 Q3745.23 153.508 3743.05 150.514 Q3740.86 147.493 3737.06 147.493 Q3733.26 147.493 3731.07 150.514 Q3728.91 153.508 3728.91 158.795 Z" fill="#000000" fill-rule="nonzero" fill-opacity="1" /><path clip-path="url(#clip360)" d="M3759.9 144.185 L3764.69 144.185 L3764.69 173.352 L3759.9 173.352 L3759.9 144.185 M3759.9 132.831 L3764.69 132.831 L3764.69 138.899 L3759.9 138.899 L3759.9 132.831 Z" fill="#000000" fill-rule="nonzero" fill-opacity="1" /><path clip-path="url(#clip360)" d="M3795.7 145.305 L3795.7 149.784 Q3793.67 148.665 3791.61 148.118 Q3789.58 147.545 3787.5 147.545 Q3782.84 147.545 3780.26 150.514 Q3777.68 153.456 3777.68 158.795 Q3777.68 164.133 3780.26 167.102 Q3782.84 170.045 3787.5 170.045 Q3789.58 170.045 3791.61 169.498 Q3793.67 168.925 3795.7 167.805 L3795.7 172.232 Q3793.7 173.17 3791.54 173.638 Q3789.4 174.107 3786.98 174.107 Q3780.39 174.107 3776.51 169.967 Q3772.63 165.826 3772.63 158.795 Q3772.63 151.659 3776.54 147.571 Q3780.47 143.482 3787.29 143.482 Q3789.51 143.482 3791.61 143.951 Q3793.72 144.394 3795.7 145.305 Z" fill="#000000" fill-rule="nonzero" fill-opacity="1" /><path clip-path="url(#clip360)" d="M3808.78 135.904 L3808.78 144.185 L3818.65 144.185 L3818.65 147.909 L3808.78 147.909 L3808.78 163.743 Q3808.78 167.31 3809.74 168.326 Q3810.73 169.342 3813.72 169.342 L3818.65 169.342 L3818.65 173.352 L3813.72 173.352 Q3808.18 173.352 3806.07 171.295 Q3803.96 169.211 3803.96 163.743 L3803.96 147.909 L3800.44 147.909 L3800.44 144.185 L3803.96 144.185 L3803.96 135.904 L3808.78 135.904 Z" fill="#000000" fill-rule="nonzero" fill-opacity="1" /><path clip-path="url(#clip360)" d="M3847.11 182.206 L3847.11 185.93 L3819.4 185.93 L3819.4 182.206 L3847.11 182.206 Z" fill="#000000" fill-rule="nonzero" fill-opacity="1" /><path clip-path="url(#clip360)" d="M3852.34 134.472 L3872.99 134.472 L3872.99 138.899 L3857.16 138.899 L3857.16 148.43 Q3858.31 148.04 3859.45 147.857 Q3860.6 147.649 3861.74 147.649 Q3868.26 147.649 3872.06 151.217 Q3875.86 154.784 3875.86 160.878 Q3875.86 167.154 3871.95 170.644 Q3868.05 174.107 3860.94 174.107 Q3858.49 174.107 3855.94 173.69 Q3853.41 173.274 3850.7 172.441 L3850.7 167.154 Q3853.05 168.43 3855.55 169.055 Q3858.05 169.68 3860.83 169.68 Q3865.34 169.68 3867.97 167.31 Q3870.6 164.941 3870.6 160.878 Q3870.6 156.816 3867.97 154.446 Q3865.34 152.076 3860.83 152.076 Q3858.72 152.076 3856.61 152.545 Q3854.53 153.014 3852.34 154.003 L3852.34 134.472 Z" fill="#000000" fill-rule="nonzero" fill-opacity="1" /><path clip-path="url(#clip360)" d="M3890.75 168.925 L3909.11 168.925 L3909.11 173.352 L3884.43 173.352 L3884.43 168.925 Q3887.42 165.826 3892.58 160.618 Q3897.76 155.383 3899.09 153.873 Q3901.61 151.034 3902.6 149.081 Q3903.62 147.102 3903.62 145.201 Q3903.62 142.102 3901.43 140.149 Q3899.27 138.196 3895.78 138.196 Q3893.31 138.196 3890.55 139.055 Q3887.81 139.915 3884.69 141.659 L3884.69 136.347 Q3887.86 135.071 3890.62 134.42 Q3893.39 133.769 3895.68 133.769 Q3901.72 133.769 3905.31 136.79 Q3908.91 139.81 3908.91 144.863 Q3908.91 147.258 3907.99 149.42 Q3907.11 151.555 3904.74 154.472 Q3904.09 155.227 3900.6 158.847 Q3897.11 162.441 3890.75 168.925 Z" fill="#000000" fill-rule="nonzero" fill-opacity="1" /><polyline clip-path="url(#clip360)" style="stroke:#ff7c00; stroke-linecap:round; stroke-linejoin:round; stroke-width:5.625; stroke-opacity:1; fill:none" points="3346.8,212.232 3596.78,212.232 "/>
<path clip-path="url(#clip360)" d="M3643.26 227.297 L3643.26 242.766 L3638.44 242.766 L3638.44 202.505 L3643.26 202.505 L3643.26 206.933 Q3644.77 204.328 3647.06 203.078 Q3649.38 201.802 3652.58 201.802 Q3657.89 201.802 3661.2 206.021 Q3664.53 210.24 3664.53 217.115 Q3664.53 223.99 3661.2 228.208 Q3657.89 232.427 3652.58 232.427 Q3649.38 232.427 3647.06 231.177 Q3644.77 229.901 3643.26 227.297 M3659.56 217.115 Q3659.56 211.828 3657.37 208.834 Q3655.21 205.813 3651.41 205.813 Q3647.61 205.813 3645.42 208.834 Q3643.26 211.828 3643.26 217.115 Q3643.26 222.401 3645.42 225.422 Q3647.61 228.417 3651.41 228.417 Q3655.21 228.417 3657.37 225.422 Q3659.56 222.401 3659.56 217.115 Z" fill="#000000" fill-rule="nonzero" fill-opacity="1" /><path clip-path="url(#clip360)" d="M3689.38 206.985 Q3688.57 206.516 3687.6 206.308 Q3686.67 206.073 3685.52 206.073 Q3681.46 206.073 3679.27 208.729 Q3677.11 211.36 3677.11 216.307 L3677.11 231.672 L3672.29 231.672 L3672.29 202.505 L3677.11 202.505 L3677.11 207.037 Q3678.62 204.38 3681.04 203.104 Q3683.46 201.802 3686.93 201.802 Q3687.42 201.802 3688.02 201.88 Q3688.62 201.933 3689.35 202.063 L3689.38 206.985 Z" fill="#000000" fill-rule="nonzero" fill-opacity="1" /><path clip-path="url(#clip360)" d="M3718.18 215.891 L3718.18 218.235 L3696.15 218.235 Q3696.46 223.182 3699.12 225.787 Q3701.8 228.365 3706.56 228.365 Q3709.32 228.365 3711.9 227.688 Q3714.51 227.011 3717.06 225.656 L3717.06 230.188 Q3714.48 231.281 3711.77 231.854 Q3709.06 232.427 3706.28 232.427 Q3699.3 232.427 3695.21 228.365 Q3691.15 224.302 3691.15 217.375 Q3691.15 210.214 3695 206.021 Q3698.88 201.802 3705.44 201.802 Q3711.33 201.802 3714.74 205.604 Q3718.18 209.38 3718.18 215.891 M3713.39 214.485 Q3713.33 210.552 3711.17 208.209 Q3709.04 205.865 3705.5 205.865 Q3701.49 205.865 3699.06 208.13 Q3696.67 210.396 3696.3 214.511 L3713.39 214.485 Z" fill="#000000" fill-rule="nonzero" fill-opacity="1" /><path clip-path="url(#clip360)" d="M3745.23 206.933 L3745.23 191.151 L3750.03 191.151 L3750.03 231.672 L3745.23 231.672 L3745.23 227.297 Q3743.72 229.901 3741.41 231.177 Q3739.12 232.427 3735.89 232.427 Q3730.6 232.427 3727.27 228.208 Q3723.96 223.99 3723.96 217.115 Q3723.96 210.24 3727.27 206.021 Q3730.6 201.802 3735.89 201.802 Q3739.12 201.802 3741.41 203.078 Q3743.72 204.328 3745.23 206.933 M3728.91 217.115 Q3728.91 222.401 3731.07 225.422 Q3733.26 228.417 3737.06 228.417 Q3740.86 228.417 3743.05 225.422 Q3745.23 222.401 3745.23 217.115 Q3745.23 211.828 3743.05 208.834 Q3740.86 205.813 3737.06 205.813 Q3733.26 205.813 3731.07 208.834 Q3728.91 211.828 3728.91 217.115 Z" fill="#000000" fill-rule="nonzero" fill-opacity="1" /><path clip-path="url(#clip360)" d="M3759.9 202.505 L3764.69 202.505 L3764.69 231.672 L3759.9 231.672 L3759.9 202.505 M3759.9 191.151 L3764.69 191.151 L3764.69 197.219 L3759.9 197.219 L3759.9 191.151 Z" fill="#000000" fill-rule="nonzero" fill-opacity="1" /><path clip-path="url(#clip360)" d="M3795.7 203.625 L3795.7 208.104 Q3793.67 206.985 3791.61 206.438 Q3789.58 205.865 3787.5 205.865 Q3782.84 205.865 3780.26 208.834 Q3777.68 211.776 3777.68 217.115 Q3777.68 222.453 3780.26 225.422 Q3782.84 228.365 3787.5 228.365 Q3789.58 228.365 3791.61 227.818 Q3793.67 227.245 3795.7 226.125 L3795.7 230.552 Q3793.7 231.49 3791.54 231.958 Q3789.4 232.427 3786.98 232.427 Q3780.39 232.427 3776.51 228.287 Q3772.63 224.146 3772.63 217.115 Q3772.63 209.979 3776.54 205.891 Q3780.47 201.802 3787.29 201.802 Q3789.51 201.802 3791.61 202.271 Q3793.72 202.714 3795.7 203.625 Z" fill="#000000" fill-rule="nonzero" fill-opacity="1" /><path clip-path="url(#clip360)" d="M3808.78 194.224 L3808.78 202.505 L3818.65 202.505 L3818.65 206.229 L3808.78 206.229 L3808.78 222.063 Q3808.78 225.63 3809.74 226.646 Q3810.73 227.662 3813.72 227.662 L3818.65 227.662 L3818.65 231.672 L3813.72 231.672 Q3808.18 231.672 3806.07 229.615 Q3803.96 227.531 3803.96 222.063 L3803.96 206.229 L3800.44 206.229 L3800.44 202.505 L3803.96 202.505 L3803.96 194.224 L3808.78 194.224 Z" fill="#000000" fill-rule="nonzero" fill-opacity="1" /><path clip-path="url(#clip360)" d="M3847.11 240.526 L3847.11 244.25 L3819.4 244.25 L3819.4 240.526 L3847.11 240.526 Z" fill="#000000" fill-rule="nonzero" fill-opacity="1" /><path clip-path="url(#clip360)" d="M3856.82 227.245 L3875.18 227.245 L3875.18 231.672 L3850.49 231.672 L3850.49 227.245 Q3853.49 224.146 3858.65 218.938 Q3863.83 213.703 3865.16 212.193 Q3867.68 209.354 3868.67 207.401 Q3869.69 205.422 3869.69 203.521 Q3869.69 200.422 3867.5 198.469 Q3865.34 196.516 3861.85 196.516 Q3859.37 196.516 3856.61 197.375 Q3853.88 198.235 3850.76 199.979 L3850.76 194.667 Q3853.93 193.391 3856.69 192.74 Q3859.45 192.089 3861.74 192.089 Q3867.79 192.089 3871.38 195.11 Q3874.97 198.13 3874.97 203.183 Q3874.97 205.578 3874.06 207.74 Q3873.18 209.875 3870.81 212.792 Q3870.16 213.547 3866.67 217.167 Q3863.18 220.761 3856.82 227.245 Z" fill="#000000" fill-rule="nonzero" fill-opacity="1" /><path clip-path="url(#clip360)" d="M3898.12 210.136 Q3894.58 210.136 3892.5 212.557 Q3890.44 214.979 3890.44 219.198 Q3890.44 223.391 3892.5 225.839 Q3894.58 228.261 3898.12 228.261 Q3901.67 228.261 3903.72 225.839 Q3905.81 223.391 3905.81 219.198 Q3905.81 214.979 3903.72 212.557 Q3901.67 210.136 3898.12 210.136 M3908.57 193.651 L3908.57 198.443 Q3906.59 197.505 3904.56 197.011 Q3902.55 196.516 3900.57 196.516 Q3895.36 196.516 3892.6 200.031 Q3889.87 203.547 3889.48 210.656 Q3891.02 208.391 3893.33 207.193 Q3895.65 205.969 3898.44 205.969 Q3904.3 205.969 3907.68 209.537 Q3911.09 213.078 3911.09 219.198 Q3911.09 225.188 3907.55 228.807 Q3904.01 232.427 3898.12 232.427 Q3891.38 232.427 3887.81 227.271 Q3884.24 222.089 3884.24 212.271 Q3884.24 203.052 3888.62 197.584 Q3892.99 192.089 3900.36 192.089 Q3902.34 192.089 3904.35 192.479 Q3906.38 192.87 3908.57 193.651 Z" fill="#000000" fill-rule="nonzero" fill-opacity="1" /><polyline clip-path="url(#clip360)" style="stroke:#1ac938; stroke-linecap:round; stroke-linejoin:round; stroke-width:5.625; stroke-opacity:1; fill:none" points="3346.8,270.552 3596.78,270.552 "/>
<path clip-path="url(#clip360)" d="M3643.26 285.617 L3643.26 301.086 L3638.44 301.086 L3638.44 260.825 L3643.26 260.825 L3643.26 265.253 Q3644.77 262.648 3647.06 261.398 Q3649.38 260.122 3652.58 260.122 Q3657.89 260.122 3661.2 264.341 Q3664.53 268.56 3664.53 275.435 Q3664.53 282.31 3661.2 286.528 Q3657.89 290.747 3652.58 290.747 Q3649.38 290.747 3647.06 289.497 Q3644.77 288.221 3643.26 285.617 M3659.56 275.435 Q3659.56 270.148 3657.37 267.154 Q3655.21 264.133 3651.41 264.133 Q3647.61 264.133 3645.42 267.154 Q3643.26 270.148 3643.26 275.435 Q3643.26 280.721 3645.42 283.742 Q3647.61 286.737 3651.41 286.737 Q3655.21 286.737 3657.37 283.742 Q3659.56 280.721 3659.56 275.435 Z" fill="#000000" fill-rule="nonzero" fill-opacity="1" /><path clip-path="url(#clip360)" d="M3689.38 265.305 Q3688.57 264.836 3687.6 264.628 Q3686.67 264.393 3685.52 264.393 Q3681.46 264.393 3679.27 267.049 Q3677.11 269.68 3677.11 274.627 L3677.11 289.992 L3672.29 289.992 L3672.29 260.825 L3677.11 260.825 L3677.11 265.357 Q3678.62 262.7 3681.04 261.424 Q3683.46 260.122 3686.93 260.122 Q3687.42 260.122 3688.02 260.2 Q3688.62 260.253 3689.35 260.383 L3689.38 265.305 Z" fill="#000000" fill-rule="nonzero" fill-opacity="1" /><path clip-path="url(#clip360)" d="M3718.18 274.211 L3718.18 276.555 L3696.15 276.555 Q3696.46 281.502 3699.12 284.107 Q3701.8 286.685 3706.56 286.685 Q3709.32 286.685 3711.9 286.008 Q3714.51 285.331 3717.06 283.976 L3717.06 288.508 Q3714.48 289.601 3711.77 290.174 Q3709.06 290.747 3706.28 290.747 Q3699.3 290.747 3695.21 286.685 Q3691.15 282.622 3691.15 275.695 Q3691.15 268.534 3695 264.341 Q3698.88 260.122 3705.44 260.122 Q3711.33 260.122 3714.74 263.924 Q3718.18 267.7 3718.18 274.211 M3713.39 272.805 Q3713.33 268.872 3711.17 266.529 Q3709.04 264.185 3705.5 264.185 Q3701.49 264.185 3699.06 266.45 Q3696.67 268.716 3696.3 272.831 L3713.39 272.805 Z" fill="#000000" fill-rule="nonzero" fill-opacity="1" /><path clip-path="url(#clip360)" d="M3745.23 265.253 L3745.23 249.471 L3750.03 249.471 L3750.03 289.992 L3745.23 289.992 L3745.23 285.617 Q3743.72 288.221 3741.41 289.497 Q3739.12 290.747 3735.89 290.747 Q3730.6 290.747 3727.27 286.528 Q3723.96 282.31 3723.96 275.435 Q3723.96 268.56 3727.27 264.341 Q3730.6 260.122 3735.89 260.122 Q3739.12 260.122 3741.41 261.398 Q3743.72 262.648 3745.23 265.253 M3728.91 275.435 Q3728.91 280.721 3731.07 283.742 Q3733.26 286.737 3737.06 286.737 Q3740.86 286.737 3743.05 283.742 Q3745.23 280.721 3745.23 275.435 Q3745.23 270.148 3743.05 267.154 Q3740.86 264.133 3737.06 264.133 Q3733.26 264.133 3731.07 267.154 Q3728.91 270.148 3728.91 275.435 Z" fill="#000000" fill-rule="nonzero" fill-opacity="1" /><path clip-path="url(#clip360)" d="M3759.9 260.825 L3764.69 260.825 L3764.69 289.992 L3759.9 289.992 L3759.9 260.825 M3759.9 249.471 L3764.69 249.471 L3764.69 255.539 L3759.9 255.539 L3759.9 249.471 Z" fill="#000000" fill-rule="nonzero" fill-opacity="1" /><path clip-path="url(#clip360)" d="M3795.7 261.945 L3795.7 266.424 Q3793.67 265.305 3791.61 264.758 Q3789.58 264.185 3787.5 264.185 Q3782.84 264.185 3780.26 267.154 Q3777.68 270.096 3777.68 275.435 Q3777.68 280.773 3780.26 283.742 Q3782.84 286.685 3787.5 286.685 Q3789.58 286.685 3791.61 286.138 Q3793.67 285.565 3795.7 284.445 L3795.7 288.872 Q3793.7 289.81 3791.54 290.278 Q3789.4 290.747 3786.98 290.747 Q3780.39 290.747 3776.51 286.607 Q3772.63 282.466 3772.63 275.435 Q3772.63 268.299 3776.54 264.211 Q3780.47 260.122 3787.29 260.122 Q3789.51 260.122 3791.61 260.591 Q3793.72 261.034 3795.7 261.945 Z" fill="#000000" fill-rule="nonzero" fill-opacity="1" /><path clip-path="url(#clip360)" d="M3808.78 252.544 L3808.78 260.825 L3818.65 260.825 L3818.65 264.549 L3808.78 264.549 L3808.78 280.383 Q3808.78 283.95 3809.74 284.966 Q3810.73 285.982 3813.72 285.982 L3818.65 285.982 L3818.65 289.992 L3813.72 289.992 Q3808.18 289.992 3806.07 287.935 Q3803.96 285.851 3803.96 280.383 L3803.96 264.549 L3800.44 264.549 L3800.44 260.825 L3803.96 260.825 L3803.96 252.544 L3808.78 252.544 Z" fill="#000000" fill-rule="nonzero" fill-opacity="1" /><path clip-path="url(#clip360)" d="M3847.11 298.846 L3847.11 302.57 L3819.4 302.57 L3819.4 298.846 L3847.11 298.846 Z" fill="#000000" fill-rule="nonzero" fill-opacity="1" /><path clip-path="url(#clip360)" d="M3866.74 255.695 L3853.46 276.45 L3866.74 276.45 L3866.74 255.695 M3865.36 251.112 L3871.98 251.112 L3871.98 276.45 L3877.53 276.45 L3877.53 280.825 L3871.98 280.825 L3871.98 289.992 L3866.74 289.992 L3866.74 280.825 L3849.19 280.825 L3849.19 275.747 L3865.36 251.112 Z" fill="#000000" fill-rule="nonzero" fill-opacity="1" /><polyline clip-path="url(#clip360)" style="stroke:#e8000b; stroke-linecap:round; stroke-linejoin:round; stroke-width:5.625; stroke-opacity:1; fill:none" points="3346.8,328.872 3596.78,328.872 "/>
<path clip-path="url(#clip360)" d="M3643.26 343.937 L3643.26 359.406 L3638.44 359.406 L3638.44 319.145 L3643.26 319.145 L3643.26 323.573 Q3644.77 320.968 3647.06 319.718 Q3649.38 318.442 3652.58 318.442 Q3657.89 318.442 3661.2 322.661 Q3664.53 326.88 3664.53 333.755 Q3664.53 340.63 3661.2 344.848 Q3657.89 349.067 3652.58 349.067 Q3649.38 349.067 3647.06 347.817 Q3644.77 346.541 3643.26 343.937 M3659.56 333.755 Q3659.56 328.468 3657.37 325.474 Q3655.21 322.453 3651.41 322.453 Q3647.61 322.453 3645.42 325.474 Q3643.26 328.468 3643.26 333.755 Q3643.26 339.041 3645.42 342.062 Q3647.61 345.057 3651.41 345.057 Q3655.21 345.057 3657.37 342.062 Q3659.56 339.041 3659.56 333.755 Z" fill="#000000" fill-rule="nonzero" fill-opacity="1" /><path clip-path="url(#clip360)" d="M3689.38 323.625 Q3688.57 323.156 3687.6 322.948 Q3686.67 322.713 3685.52 322.713 Q3681.46 322.713 3679.27 325.369 Q3677.11 328 3677.11 332.947 L3677.11 348.312 L3672.29 348.312 L3672.29 319.145 L3677.11 319.145 L3677.11 323.677 Q3678.62 321.02 3681.04 319.744 Q3683.46 318.442 3686.93 318.442 Q3687.42 318.442 3688.02 318.52 Q3688.62 318.573 3689.35 318.703 L3689.38 323.625 Z" fill="#000000" fill-rule="nonzero" fill-opacity="1" /><path clip-path="url(#clip360)" d="M3718.18 332.531 L3718.18 334.875 L3696.15 334.875 Q3696.46 339.822 3699.12 342.427 Q3701.8 345.005 3706.56 345.005 Q3709.32 345.005 3711.9 344.328 Q3714.51 343.651 3717.06 342.296 L3717.06 346.828 Q3714.48 347.921 3711.77 348.494 Q3709.06 349.067 3706.28 349.067 Q3699.3 349.067 3695.21 345.005 Q3691.15 340.942 3691.15 334.015 Q3691.15 326.854 3695 322.661 Q3698.88 318.442 3705.44 318.442 Q3711.33 318.442 3714.74 322.244 Q3718.18 326.02 3718.18 332.531 M3713.39 331.125 Q3713.33 327.192 3711.17 324.849 Q3709.04 322.505 3705.5 322.505 Q3701.49 322.505 3699.06 324.77 Q3696.67 327.036 3696.3 331.151 L3713.39 331.125 Z" fill="#000000" fill-rule="nonzero" fill-opacity="1" /><path clip-path="url(#clip360)" d="M3745.23 323.573 L3745.23 307.791 L3750.03 307.791 L3750.03 348.312 L3745.23 348.312 L3745.23 343.937 Q3743.72 346.541 3741.41 347.817 Q3739.12 349.067 3735.89 349.067 Q3730.6 349.067 3727.27 344.848 Q3723.96 340.63 3723.96 333.755 Q3723.96 326.88 3727.27 322.661 Q3730.6 318.442 3735.89 318.442 Q3739.12 318.442 3741.41 319.718 Q3743.72 320.968 3745.23 323.573 M3728.91 333.755 Q3728.91 339.041 3731.07 342.062 Q3733.26 345.057 3737.06 345.057 Q3740.86 345.057 3743.05 342.062 Q3745.23 339.041 3745.23 333.755 Q3745.23 328.468 3743.05 325.474 Q3740.86 322.453 3737.06 322.453 Q3733.26 322.453 3731.07 325.474 Q3728.91 328.468 3728.91 333.755 Z" fill="#000000" fill-rule="nonzero" fill-opacity="1" /><path clip-path="url(#clip360)" d="M3759.9 319.145 L3764.69 319.145 L3764.69 348.312 L3759.9 348.312 L3759.9 319.145 M3759.9 307.791 L3764.69 307.791 L3764.69 313.859 L3759.9 313.859 L3759.9 307.791 Z" fill="#000000" fill-rule="nonzero" fill-opacity="1" /><path clip-path="url(#clip360)" d="M3795.7 320.265 L3795.7 324.744 Q3793.67 323.625 3791.61 323.078 Q3789.58 322.505 3787.5 322.505 Q3782.84 322.505 3780.26 325.474 Q3777.68 328.416 3777.68 333.755 Q3777.68 339.093 3780.26 342.062 Q3782.84 345.005 3787.5 345.005 Q3789.58 345.005 3791.61 344.458 Q3793.67 343.885 3795.7 342.765 L3795.7 347.192 Q3793.7 348.13 3791.54 348.598 Q3789.4 349.067 3786.98 349.067 Q3780.39 349.067 3776.51 344.927 Q3772.63 340.786 3772.63 333.755 Q3772.63 326.619 3776.54 322.531 Q3780.47 318.442 3787.29 318.442 Q3789.51 318.442 3791.61 318.911 Q3793.72 319.354 3795.7 320.265 Z" fill="#000000" fill-rule="nonzero" fill-opacity="1" /><path clip-path="url(#clip360)" d="M3808.78 310.864 L3808.78 319.145 L3818.65 319.145 L3818.65 322.869 L3808.78 322.869 L3808.78 338.703 Q3808.78 342.27 3809.74 343.286 Q3810.73 344.302 3813.72 344.302 L3818.65 344.302 L3818.65 348.312 L3813.72 348.312 Q3808.18 348.312 3806.07 346.255 Q3803.96 344.171 3803.96 338.703 L3803.96 322.869 L3800.44 322.869 L3800.44 319.145 L3803.96 319.145 L3803.96 310.864 L3808.78 310.864 Z" fill="#000000" fill-rule="nonzero" fill-opacity="1" /><path clip-path="url(#clip360)" d="M3847.11 357.166 L3847.11 360.89 L3819.4 360.89 L3819.4 357.166 L3847.11 357.166 Z" fill="#000000" fill-rule="nonzero" fill-opacity="1" /><path clip-path="url(#clip360)" d="M3853.2 343.885 L3861.8 343.885 L3861.8 314.224 L3852.45 316.099 L3852.45 311.307 L3861.74 309.432 L3867.01 309.432 L3867.01 343.885 L3875.6 343.885 L3875.6 348.312 L3853.2 348.312 L3853.2 343.885 Z" fill="#000000" fill-rule="nonzero" fill-opacity="1" /><polyline clip-path="url(#clip360)" style="stroke:#000000; stroke-linecap:round; stroke-linejoin:round; stroke-width:6.75; stroke-opacity:1; fill:none" points="3346.8,387.192 3596.78,387.192 "/>
<path clip-path="url(#clip360)" d="M3653.52 391.971 Q3647.71 391.971 3645.47 393.299 Q3643.23 394.627 3643.23 397.83 Q3643.23 400.382 3644.9 401.892 Q3646.59 403.377 3649.48 403.377 Q3653.46 403.377 3655.86 400.564 Q3658.28 397.726 3658.28 393.038 L3658.28 391.971 L3653.52 391.971 M3663.07 389.991 L3663.07 406.632 L3658.28 406.632 L3658.28 402.205 Q3656.64 404.861 3654.19 406.137 Q3651.75 407.387 3648.2 407.387 Q3643.72 407.387 3641.07 404.887 Q3638.44 402.361 3638.44 398.142 Q3638.44 393.221 3641.72 390.721 Q3645.03 388.221 3651.56 388.221 L3658.28 388.221 L3658.28 387.752 Q3658.28 384.445 3656.09 382.648 Q3653.93 380.825 3650 380.825 Q3647.5 380.825 3645.13 381.424 Q3642.76 382.023 3640.57 383.221 L3640.57 378.794 Q3643.2 377.778 3645.68 377.283 Q3648.15 376.762 3650.5 376.762 Q3656.82 376.762 3659.95 380.044 Q3663.07 383.325 3663.07 389.991 Z" fill="#000000" fill-rule="nonzero" fill-opacity="1" /><path clip-path="url(#clip360)" d="M3693.93 378.585 L3693.93 383.064 Q3691.9 381.945 3689.84 381.398 Q3687.81 380.825 3685.73 380.825 Q3681.07 380.825 3678.49 383.794 Q3675.91 386.736 3675.91 392.075 Q3675.91 397.413 3678.49 400.382 Q3681.07 403.325 3685.73 403.325 Q3687.81 403.325 3689.84 402.778 Q3691.9 402.205 3693.93 401.085 L3693.93 405.512 Q3691.93 406.45 3689.77 406.918 Q3687.63 407.387 3685.21 407.387 Q3678.62 407.387 3674.74 403.247 Q3670.86 399.106 3670.86 392.075 Q3670.86 384.939 3674.77 380.851 Q3678.7 376.762 3685.52 376.762 Q3687.74 376.762 3689.84 377.231 Q3691.95 377.674 3693.93 378.585 Z" fill="#000000" fill-rule="nonzero" fill-opacity="1" /><path clip-path="url(#clip360)" d="M3707.01 369.184 L3707.01 377.465 L3716.88 377.465 L3716.88 381.189 L3707.01 381.189 L3707.01 397.023 Q3707.01 400.59 3707.97 401.606 Q3708.96 402.622 3711.95 402.622 L3716.88 402.622 L3716.88 406.632 L3711.95 406.632 Q3706.41 406.632 3704.3 404.575 Q3702.19 402.491 3702.19 397.023 L3702.19 381.189 L3698.67 381.189 L3698.67 377.465 L3702.19 377.465 L3702.19 369.184 L3707.01 369.184 Z" fill="#000000" fill-rule="nonzero" fill-opacity="1" /><path clip-path="url(#clip360)" d="M3722.68 395.122 L3722.68 377.465 L3727.47 377.465 L3727.47 394.939 Q3727.47 399.08 3729.09 401.163 Q3730.7 403.221 3733.93 403.221 Q3737.81 403.221 3740.05 400.747 Q3742.32 398.273 3742.32 394.002 L3742.32 377.465 L3747.11 377.465 L3747.11 406.632 L3742.32 406.632 L3742.32 402.153 Q3740.57 404.809 3738.26 406.111 Q3735.96 407.387 3732.92 407.387 Q3727.89 407.387 3725.29 404.262 Q3722.68 401.137 3722.68 395.122 M3734.74 376.762 L3734.74 376.762 Z" fill="#000000" fill-rule="nonzero" fill-opacity="1" /><path clip-path="url(#clip360)" d="M3770.23 391.971 Q3764.43 391.971 3762.19 393.299 Q3759.95 394.627 3759.95 397.83 Q3759.95 400.382 3761.61 401.892 Q3763.31 403.377 3766.2 403.377 Q3770.18 403.377 3772.58 400.564 Q3775 397.726 3775 393.038 L3775 391.971 L3770.23 391.971 M3779.79 389.991 L3779.79 406.632 L3775 406.632 L3775 402.205 Q3773.36 404.861 3770.91 406.137 Q3768.46 407.387 3764.92 407.387 Q3760.44 407.387 3757.79 404.887 Q3755.16 402.361 3755.16 398.142 Q3755.16 393.221 3758.44 390.721 Q3761.75 388.221 3768.28 388.221 L3775 388.221 L3775 387.752 Q3775 384.445 3772.81 382.648 Q3770.65 380.825 3766.72 380.825 Q3764.22 380.825 3761.85 381.424 Q3759.48 382.023 3757.29 383.221 L3757.29 378.794 Q3759.92 377.778 3762.4 377.283 Q3764.87 376.762 3767.21 376.762 Q3773.54 376.762 3776.67 380.044 Q3779.79 383.325 3779.79 389.991 Z" fill="#000000" fill-rule="nonzero" fill-opacity="1" /><path clip-path="url(#clip360)" d="M3789.66 366.111 L3794.45 366.111 L3794.45 406.632 L3789.66 406.632 L3789.66 366.111 Z" fill="#000000" fill-rule="nonzero" fill-opacity="1" /></svg>
